<?xml version="1.0" encoding="UTF-8" standalone="no"?>
<!DOCTYPE svg PUBLIC "-//W3C//DTD SVG 1.1//EN"
 "http://www.w3.org/Graphics/SVG/1.1/DTD/svg11.dtd">
<!-- Generated by graphviz version 2.50.0 (0)
 -->
<!-- Pages: 1 -->
<svg width="768pt" height="476pt"
 viewBox="0.00 0.00 768.00 476.00" xmlns="http://www.w3.org/2000/svg" xmlns:xlink="http://www.w3.org/1999/xlink">
<g id="graph0" class="graph" transform="scale(1 1) rotate(0) translate(4 472)">
<polygon fill="white" stroke="transparent" points="-4,4 -4,-472 764,-472 764,4 -4,4"/>
<!-- ast.Module object at 0x74b40dd27050 -->
<g id="node1" class="node">
<title>ast.Module object at 0x74b40dd27050</title>
<path fill="#66cdaa" stroke="black" d="M281.5,-468C281.5,-468 246.5,-468 246.5,-468 240.5,-468 234.5,-462 234.5,-456 234.5,-456 234.5,-444 234.5,-444 234.5,-438 240.5,-432 246.5,-432 246.5,-432 281.5,-432 281.5,-432 287.5,-432 293.5,-438 293.5,-444 293.5,-444 293.5,-456 293.5,-456 293.5,-462 287.5,-468 281.5,-468"/>
<text text-anchor="middle" x="264" y="-446.3" font-family="Times,serif" font-size="14.00">Module</text>
</g>
<!-- ast.FunctionDef object at 0x74b40dd26610 -->
<g id="node2" class="node">
<title>ast.FunctionDef object at 0x74b40dd26610</title>
<path fill="#66cdaa" stroke="black" d="M294.5,-396C294.5,-396 233.5,-396 233.5,-396 227.5,-396 221.5,-390 221.5,-384 221.5,-384 221.5,-372 221.5,-372 221.5,-366 227.5,-360 233.5,-360 233.5,-360 294.5,-360 294.5,-360 300.5,-360 306.5,-366 306.5,-372 306.5,-372 306.5,-384 306.5,-384 306.5,-390 300.5,-396 294.5,-396"/>
<text text-anchor="middle" x="264" y="-374.3" font-family="Times,serif" font-size="14.00">FunctionDef</text>
</g>
<!-- ast.Module object at 0x74b40dd27050&#45;&gt;ast.FunctionDef object at 0x74b40dd26610 -->
<g id="edge1" class="edge">
<title>ast.Module object at 0x74b40dd27050&#45;&gt;ast.FunctionDef object at 0x74b40dd26610</title>
<path fill="none" stroke="black" d="M264,-431.7C264,-423.98 264,-414.71 264,-406.11"/>
<polygon fill="black" stroke="black" points="267.5,-406.1 264,-396.1 260.5,-406.1 267.5,-406.1"/>
</g>
<!-- ast.arguments object at 0x74b40dd24890 -->
<g id="node3" class="node">
<title>ast.arguments object at 0x74b40dd24890</title>
<path fill="#66cdaa" stroke="black" d="M86,-324C86,-324 36,-324 36,-324 30,-324 24,-318 24,-312 24,-312 24,-300 24,-300 24,-294 30,-288 36,-288 36,-288 86,-288 86,-288 92,-288 98,-294 98,-300 98,-300 98,-312 98,-312 98,-318 92,-324 86,-324"/>
<text text-anchor="middle" x="61" y="-302.3" font-family="Times,serif" font-size="14.00">arguments</text>
</g>
<!-- ast.FunctionDef object at 0x74b40dd26610&#45;&gt;ast.arguments object at 0x74b40dd24890 -->
<g id="edge2" class="edge">
<title>ast.FunctionDef object at 0x74b40dd26610&#45;&gt;ast.arguments object at 0x74b40dd24890</title>
<path fill="none" stroke="black" d="M221.44,-362.33C188.22,-350.87 142.1,-334.96 107.83,-323.15"/>
<polygon fill="black" stroke="black" points="108.64,-319.73 98.05,-319.77 106.36,-326.34 108.64,-319.73"/>
</g>
<!-- ast.Assign object at 0x74b40dd27810 -->
<g id="node5" class="node">
<title>ast.Assign object at 0x74b40dd27810</title>
<path fill="#66cdaa" stroke="black" d="M192,-324C192,-324 162,-324 162,-324 156,-324 150,-318 150,-312 150,-312 150,-300 150,-300 150,-294 156,-288 162,-288 162,-288 192,-288 192,-288 198,-288 204,-294 204,-300 204,-300 204,-312 204,-312 204,-318 198,-324 192,-324"/>
<text text-anchor="middle" x="177" y="-302.3" font-family="Times,serif" font-size="14.00">Assign</text>
</g>
<!-- ast.FunctionDef object at 0x74b40dd26610&#45;&gt;ast.Assign object at 0x74b40dd27810 -->
<g id="edge4" class="edge">
<title>ast.FunctionDef object at 0x74b40dd26610&#45;&gt;ast.Assign object at 0x74b40dd27810</title>
<path fill="none" stroke="black" d="M242.49,-359.7C231.54,-350.88 218.05,-340.03 206.18,-330.47"/>
<polygon fill="black" stroke="black" points="208.24,-327.65 198.26,-324.1 203.86,-333.1 208.24,-327.65"/>
</g>
<!-- ast.Assign object at 0x74b40dd269d0 -->
<g id="node9" class="node">
<title>ast.Assign object at 0x74b40dd269d0</title>
<path fill="#66cdaa" stroke="black" d="M279,-324C279,-324 249,-324 249,-324 243,-324 237,-318 237,-312 237,-312 237,-300 237,-300 237,-294 243,-288 249,-288 249,-288 279,-288 279,-288 285,-288 291,-294 291,-300 291,-300 291,-312 291,-312 291,-318 285,-324 279,-324"/>
<text text-anchor="middle" x="264" y="-302.3" font-family="Times,serif" font-size="14.00">Assign</text>
</g>
<!-- ast.FunctionDef object at 0x74b40dd26610&#45;&gt;ast.Assign object at 0x74b40dd269d0 -->
<g id="edge8" class="edge">
<title>ast.FunctionDef object at 0x74b40dd26610&#45;&gt;ast.Assign object at 0x74b40dd269d0</title>
<path fill="none" stroke="black" d="M264,-359.7C264,-351.98 264,-342.71 264,-334.11"/>
<polygon fill="black" stroke="black" points="267.5,-334.1 264,-324.1 260.5,-334.1 267.5,-334.1"/>
</g>
<!-- ast.Expr object at 0x74b3ff5a4810 -->
<g id="node17" class="node">
<title>ast.Expr object at 0x74b3ff5a4810</title>
<path fill="#66cdaa" stroke="black" d="M370,-324C370,-324 340,-324 340,-324 334,-324 328,-318 328,-312 328,-312 328,-300 328,-300 328,-294 334,-288 340,-288 340,-288 370,-288 370,-288 376,-288 382,-294 382,-300 382,-300 382,-312 382,-312 382,-318 376,-324 370,-324"/>
<text text-anchor="middle" x="355" y="-302.3" font-family="Times,serif" font-size="14.00">Expr</text>
</g>
<!-- ast.FunctionDef object at 0x74b40dd26610&#45;&gt;ast.Expr object at 0x74b3ff5a4810 -->
<g id="edge18" class="edge">
<title>ast.FunctionDef object at 0x74b40dd26610&#45;&gt;ast.Expr object at 0x74b3ff5a4810</title>
<path fill="none" stroke="black" d="M286.49,-359.7C297.96,-350.88 312.06,-340.03 324.48,-330.47"/>
<polygon fill="black" stroke="black" points="326.97,-332.98 332.76,-324.1 322.7,-327.43 326.97,-332.98"/>
</g>
<!-- ast.Return object at 0x74b3ff5a49d0 -->
<g id="node23" class="node">
<title>ast.Return object at 0x74b3ff5a49d0</title>
<path fill="#66cdaa" stroke="black" d="M527,-324C527,-324 497,-324 497,-324 491,-324 485,-318 485,-312 485,-312 485,-300 485,-300 485,-294 491,-288 497,-288 497,-288 527,-288 527,-288 533,-288 539,-294 539,-300 539,-300 539,-312 539,-312 539,-318 533,-324 527,-324"/>
<text text-anchor="middle" x="512" y="-302.3" font-family="Times,serif" font-size="14.00">Return</text>
</g>
<!-- ast.FunctionDef object at 0x74b40dd26610&#45;&gt;ast.Return object at 0x74b3ff5a49d0 -->
<g id="edge26" class="edge">
<title>ast.FunctionDef object at 0x74b40dd26610&#45;&gt;ast.Return object at 0x74b3ff5a49d0</title>
<path fill="none" stroke="black" d="M306.63,-364.97C354.14,-351.56 430.18,-330.09 475.19,-317.39"/>
<polygon fill="black" stroke="black" points="476.17,-320.75 484.85,-314.66 474.27,-314.01 476.17,-320.75"/>
</g>
<!-- ast.arg object at 0x74b40dd265d0 -->
<g id="node4" class="node">
<title>ast.arg object at 0x74b40dd265d0</title>
<path fill="#66cdaa" stroke="black" d="M42,-252C42,-252 12,-252 12,-252 6,-252 0,-246 0,-240 0,-240 0,-228 0,-228 0,-222 6,-216 12,-216 12,-216 42,-216 42,-216 48,-216 54,-222 54,-228 54,-228 54,-240 54,-240 54,-246 48,-252 42,-252"/>
<text text-anchor="middle" x="27" y="-230.3" font-family="Times,serif" font-size="14.00">arg</text>
</g>
<!-- ast.arguments object at 0x74b40dd24890&#45;&gt;ast.arg object at 0x74b40dd265d0 -->
<g id="edge3" class="edge">
<title>ast.arguments object at 0x74b40dd24890&#45;&gt;ast.arg object at 0x74b40dd265d0</title>
<path fill="none" stroke="black" d="M52.6,-287.7C48.73,-279.73 44.05,-270.1 39.76,-261.26"/>
<polygon fill="black" stroke="black" points="42.83,-259.57 35.31,-252.1 36.53,-262.63 42.83,-259.57"/>
</g>
<!-- ast.Name object at 0x74b40dd255d0 -->
<g id="node6" class="node">
<title>ast.Name object at 0x74b40dd255d0</title>
<path fill="#66cdaa" stroke="black" d="M114,-252C114,-252 84,-252 84,-252 78,-252 72,-246 72,-240 72,-240 72,-228 72,-228 72,-222 78,-216 84,-216 84,-216 114,-216 114,-216 120,-216 126,-222 126,-228 126,-228 126,-240 126,-240 126,-246 120,-252 114,-252"/>
<text text-anchor="middle" x="99" y="-230.3" font-family="Times,serif" font-size="14.00">Name</text>
</g>
<!-- ast.Assign object at 0x74b40dd27810&#45;&gt;ast.Name object at 0x74b40dd255d0 -->
<g id="edge5" class="edge">
<title>ast.Assign object at 0x74b40dd27810&#45;&gt;ast.Name object at 0x74b40dd255d0</title>
<path fill="none" stroke="black" d="M157.72,-287.7C148.08,-279.05 136.27,-268.45 125.77,-259.03"/>
<polygon fill="black" stroke="black" points="127.84,-256.18 118.06,-252.1 123.16,-261.39 127.84,-256.18"/>
</g>
<!-- ast.Constant object at 0x74b40dd27450 -->
<g id="node8" class="node">
<title>ast.Constant object at 0x74b40dd27450</title>
<path fill="#66cdaa" stroke="black" d="M197.5,-252C197.5,-252 156.5,-252 156.5,-252 150.5,-252 144.5,-246 144.5,-240 144.5,-240 144.5,-228 144.5,-228 144.5,-222 150.5,-216 156.5,-216 156.5,-216 197.5,-216 197.5,-216 203.5,-216 209.5,-222 209.5,-228 209.5,-228 209.5,-240 209.5,-240 209.5,-246 203.5,-252 197.5,-252"/>
<text text-anchor="middle" x="177" y="-230.3" font-family="Times,serif" font-size="14.00">Constant</text>
</g>
<!-- ast.Assign object at 0x74b40dd27810&#45;&gt;ast.Constant object at 0x74b40dd27450 -->
<g id="edge7" class="edge">
<title>ast.Assign object at 0x74b40dd27810&#45;&gt;ast.Constant object at 0x74b40dd27450</title>
<path fill="none" stroke="black" d="M177,-287.7C177,-279.98 177,-270.71 177,-262.11"/>
<polygon fill="black" stroke="black" points="180.5,-262.1 177,-252.1 173.5,-262.1 180.5,-262.1"/>
</g>
<!-- ast.Store object at 0x74b53ba56c10 -->
<g id="node7" class="node">
<title>ast.Store object at 0x74b53ba56c10</title>
<path fill="#66cdaa" stroke="black" d="M122,-180C122,-180 92,-180 92,-180 86,-180 80,-174 80,-168 80,-168 80,-156 80,-156 80,-150 86,-144 92,-144 92,-144 122,-144 122,-144 128,-144 134,-150 134,-156 134,-156 134,-168 134,-168 134,-174 128,-180 122,-180"/>
<text text-anchor="middle" x="107" y="-158.3" font-family="Times,serif" font-size="14.00">Store</text>
</g>
<!-- ast.Name object at 0x74b40dd255d0&#45;&gt;ast.Store object at 0x74b53ba56c10 -->
<g id="edge6" class="edge">
<title>ast.Name object at 0x74b40dd255d0&#45;&gt;ast.Store object at 0x74b53ba56c10</title>
<path fill="none" stroke="black" d="M100.98,-215.7C101.86,-207.98 102.92,-198.71 103.9,-190.11"/>
<polygon fill="black" stroke="black" points="107.39,-190.44 105.05,-180.1 100.43,-189.64 107.39,-190.44"/>
</g>
<!-- ast.Name object at 0x74b40dd25390 -->
<g id="node10" class="node">
<title>ast.Name object at 0x74b40dd25390</title>
<path fill="#66cdaa" stroke="black" d="M270,-252C270,-252 240,-252 240,-252 234,-252 228,-246 228,-240 228,-240 228,-228 228,-228 228,-222 234,-216 240,-216 240,-216 270,-216 270,-216 276,-216 282,-222 282,-228 282,-228 282,-240 282,-240 282,-246 276,-252 270,-252"/>
<text text-anchor="middle" x="255" y="-230.3" font-family="Times,serif" font-size="14.00">Name</text>
</g>
<!-- ast.Assign object at 0x74b40dd269d0&#45;&gt;ast.Name object at 0x74b40dd25390 -->
<g id="edge9" class="edge">
<title>ast.Assign object at 0x74b40dd269d0&#45;&gt;ast.Name object at 0x74b40dd25390</title>
<path fill="none" stroke="black" d="M261.78,-287.7C260.78,-279.98 259.59,-270.71 258.49,-262.11"/>
<polygon fill="black" stroke="black" points="261.95,-261.58 257.2,-252.1 255,-262.47 261.95,-261.58"/>
</g>
<!-- ast.Subscript object at 0x74b40dd24990 -->
<g id="node11" class="node">
<title>ast.Subscript object at 0x74b40dd24990</title>
<path fill="#66cdaa" stroke="black" d="M212,-180C212,-180 168,-180 168,-180 162,-180 156,-174 156,-168 156,-168 156,-156 156,-156 156,-150 162,-144 168,-144 168,-144 212,-144 212,-144 218,-144 224,-150 224,-156 224,-156 224,-168 224,-168 224,-174 218,-180 212,-180"/>
<text text-anchor="middle" x="190" y="-158.3" font-family="Times,serif" font-size="14.00">Subscript</text>
</g>
<!-- ast.Assign object at 0x74b40dd269d0&#45;&gt;ast.Subscript object at 0x74b40dd24990 -->
<g id="edge11" class="edge">
<title>ast.Assign object at 0x74b40dd269d0&#45;&gt;ast.Subscript object at 0x74b40dd24990</title>
<path fill="none" stroke="black" d="M277.03,-287.9C289.58,-269.18 304.78,-238.8 291,-216 278.47,-195.28 254.87,-182.26 233.63,-174.32"/>
<polygon fill="black" stroke="black" points="234.68,-170.98 224.09,-171.01 232.39,-177.59 234.68,-170.98"/>
</g>
<!-- ast.Name object at 0x74b40dd25390&#45;&gt;ast.Store object at 0x74b53ba56c10 -->
<g id="edge10" class="edge">
<title>ast.Name object at 0x74b40dd25390&#45;&gt;ast.Store object at 0x74b53ba56c10</title>
<path fill="none" stroke="black" d="M227.85,-220.16C204.15,-208.95 169.54,-192.58 143.42,-180.23"/>
<polygon fill="black" stroke="black" points="144.76,-176.99 134.22,-175.88 141.77,-183.32 144.76,-176.99"/>
</g>
<!-- ast.Name object at 0x74b40dd27b90 -->
<g id="node12" class="node">
<title>ast.Name object at 0x74b40dd27b90</title>
<path fill="#66cdaa" stroke="black" d="M179,-108C179,-108 149,-108 149,-108 143,-108 137,-102 137,-96 137,-96 137,-84 137,-84 137,-78 143,-72 149,-72 149,-72 179,-72 179,-72 185,-72 191,-78 191,-84 191,-84 191,-96 191,-96 191,-102 185,-108 179,-108"/>
<text text-anchor="middle" x="164" y="-86.3" font-family="Times,serif" font-size="14.00">Name</text>
</g>
<!-- ast.Subscript object at 0x74b40dd24990&#45;&gt;ast.Name object at 0x74b40dd27b90 -->
<g id="edge12" class="edge">
<title>ast.Subscript object at 0x74b40dd24990&#45;&gt;ast.Name object at 0x74b40dd27b90</title>
<path fill="none" stroke="black" d="M183.57,-143.7C180.64,-135.81 177.11,-126.3 173.86,-117.55"/>
<polygon fill="black" stroke="black" points="177.12,-116.26 170.35,-108.1 170.55,-118.7 177.12,-116.26"/>
</g>
<!-- ast.Load object at 0x74b53ba56b90 -->
<g id="node13" class="node">
<title>ast.Load object at 0x74b53ba56b90</title>
<path fill="#66cdaa" stroke="black" d="M344,-36C344,-36 314,-36 314,-36 308,-36 302,-30 302,-24 302,-24 302,-12 302,-12 302,-6 308,0 314,0 314,0 344,0 344,0 350,0 356,-6 356,-12 356,-12 356,-24 356,-24 356,-30 350,-36 344,-36"/>
<text text-anchor="middle" x="329" y="-14.3" font-family="Times,serif" font-size="14.00">Load</text>
</g>
<!-- ast.Subscript object at 0x74b40dd24990&#45;&gt;ast.Load object at 0x74b53ba56b90 -->
<g id="edge17" class="edge">
<title>ast.Subscript object at 0x74b40dd24990&#45;&gt;ast.Load object at 0x74b53ba56b90</title>
<path fill="none" stroke="black" d="M195.98,-143.85C203.4,-124.52 217.61,-93.07 238,-72 253.37,-56.11 274.53,-43.41 292.57,-34.43"/>
<polygon fill="black" stroke="black" points="294.17,-37.54 301.68,-30.07 291.14,-31.23 294.17,-37.54"/>
</g>
<!-- ast.Slice object at 0x74b3ff5a47d0 -->
<g id="node14" class="node">
<title>ast.Slice object at 0x74b3ff5a47d0</title>
<path fill="#66cdaa" stroke="black" d="M107,-108C107,-108 77,-108 77,-108 71,-108 65,-102 65,-96 65,-96 65,-84 65,-84 65,-78 71,-72 77,-72 77,-72 107,-72 107,-72 113,-72 119,-78 119,-84 119,-84 119,-96 119,-96 119,-102 113,-108 107,-108"/>
<text text-anchor="middle" x="92" y="-86.3" font-family="Times,serif" font-size="14.00">Slice</text>
</g>
<!-- ast.Subscript object at 0x74b40dd24990&#45;&gt;ast.Slice object at 0x74b3ff5a47d0 -->
<g id="edge14" class="edge">
<title>ast.Subscript object at 0x74b40dd24990&#45;&gt;ast.Slice object at 0x74b3ff5a47d0</title>
<path fill="none" stroke="black" d="M166.03,-143.88C153.45,-134.89 137.87,-123.76 124.25,-114.03"/>
<polygon fill="black" stroke="black" points="126.24,-111.15 116.07,-108.19 122.17,-116.85 126.24,-111.15"/>
</g>
<!-- ast.Name object at 0x74b40dd27b90&#45;&gt;ast.Load object at 0x74b53ba56b90 -->
<g id="edge13" class="edge">
<title>ast.Name object at 0x74b40dd27b90&#45;&gt;ast.Load object at 0x74b53ba56b90</title>
<path fill="none" stroke="black" d="M191.25,-77.44C218.92,-65.7 261.93,-47.45 292.53,-34.47"/>
<polygon fill="black" stroke="black" points="294.15,-37.59 301.99,-30.46 291.41,-31.14 294.15,-37.59"/>
</g>
<!-- ast.Constant object at 0x74b3ff5a76d0 -->
<g id="node15" class="node">
<title>ast.Constant object at 0x74b3ff5a76d0</title>
<path fill="#66cdaa" stroke="black" d="M154.5,-36C154.5,-36 113.5,-36 113.5,-36 107.5,-36 101.5,-30 101.5,-24 101.5,-24 101.5,-12 101.5,-12 101.5,-6 107.5,0 113.5,0 113.5,0 154.5,0 154.5,0 160.5,0 166.5,-6 166.5,-12 166.5,-12 166.5,-24 166.5,-24 166.5,-30 160.5,-36 154.5,-36"/>
<text text-anchor="middle" x="134" y="-14.3" font-family="Times,serif" font-size="14.00">Constant</text>
</g>
<!-- ast.Slice object at 0x74b3ff5a47d0&#45;&gt;ast.Constant object at 0x74b3ff5a76d0 -->
<g id="edge15" class="edge">
<title>ast.Slice object at 0x74b3ff5a47d0&#45;&gt;ast.Constant object at 0x74b3ff5a76d0</title>
<path fill="none" stroke="black" d="M102.38,-71.7C107.26,-63.56 113.19,-53.69 118.58,-44.7"/>
<polygon fill="black" stroke="black" points="121.59,-46.48 123.74,-36.1 115.59,-42.88 121.59,-46.48"/>
</g>
<!-- ast.Constant object at 0x74b3ff5a7ad0 -->
<g id="node16" class="node">
<title>ast.Constant object at 0x74b3ff5a7ad0</title>
<path fill="#66cdaa" stroke="black" d="M71.5,-36C71.5,-36 30.5,-36 30.5,-36 24.5,-36 18.5,-30 18.5,-24 18.5,-24 18.5,-12 18.5,-12 18.5,-6 24.5,0 30.5,0 30.5,0 71.5,0 71.5,0 77.5,0 83.5,-6 83.5,-12 83.5,-12 83.5,-24 83.5,-24 83.5,-30 77.5,-36 71.5,-36"/>
<text text-anchor="middle" x="51" y="-14.3" font-family="Times,serif" font-size="14.00">Constant</text>
</g>
<!-- ast.Slice object at 0x74b3ff5a47d0&#45;&gt;ast.Constant object at 0x74b3ff5a7ad0 -->
<g id="edge16" class="edge">
<title>ast.Slice object at 0x74b3ff5a47d0&#45;&gt;ast.Constant object at 0x74b3ff5a7ad0</title>
<path fill="none" stroke="black" d="M81.87,-71.7C77.15,-63.64 71.44,-53.89 66.22,-44.98"/>
<polygon fill="black" stroke="black" points="69.09,-42.96 61.02,-36.1 63.05,-46.5 69.09,-42.96"/>
</g>
<!-- ast.Call object at 0x74b3ff5a7010 -->
<g id="node18" class="node">
<title>ast.Call object at 0x74b3ff5a7010</title>
<path fill="#66cdaa" stroke="black" d="M380,-252C380,-252 350,-252 350,-252 344,-252 338,-246 338,-240 338,-240 338,-228 338,-228 338,-222 344,-216 350,-216 350,-216 380,-216 380,-216 386,-216 392,-222 392,-228 392,-228 392,-240 392,-240 392,-246 386,-252 380,-252"/>
<text text-anchor="middle" x="365" y="-230.3" font-family="Times,serif" font-size="14.00">Call</text>
</g>
<!-- ast.Expr object at 0x74b3ff5a4810&#45;&gt;ast.Call object at 0x74b3ff5a7010 -->
<g id="edge19" class="edge">
<title>ast.Expr object at 0x74b3ff5a4810&#45;&gt;ast.Call object at 0x74b3ff5a7010</title>
<path fill="none" stroke="black" d="M357.47,-287.7C358.57,-279.98 359.9,-270.71 361.13,-262.11"/>
<polygon fill="black" stroke="black" points="364.61,-262.5 362.56,-252.1 357.68,-261.51 364.61,-262.5"/>
</g>
<!-- ast.Attribute object at 0x74b3ff5a4310 -->
<g id="node19" class="node">
<title>ast.Attribute object at 0x74b3ff5a4310</title>
<path fill="#66cdaa" stroke="black" d="M327.5,-180C327.5,-180 286.5,-180 286.5,-180 280.5,-180 274.5,-174 274.5,-168 274.5,-168 274.5,-156 274.5,-156 274.5,-150 280.5,-144 286.5,-144 286.5,-144 327.5,-144 327.5,-144 333.5,-144 339.5,-150 339.5,-156 339.5,-156 339.5,-168 339.5,-168 339.5,-174 333.5,-180 327.5,-180"/>
<text text-anchor="middle" x="307" y="-158.3" font-family="Times,serif" font-size="14.00">Attribute</text>
</g>
<!-- ast.Call object at 0x74b3ff5a7010&#45;&gt;ast.Attribute object at 0x74b3ff5a4310 -->
<g id="edge20" class="edge">
<title>ast.Call object at 0x74b3ff5a7010&#45;&gt;ast.Attribute object at 0x74b3ff5a4310</title>
<path fill="none" stroke="black" d="M350.66,-215.7C343.71,-207.3 335.23,-197.07 327.6,-187.86"/>
<polygon fill="black" stroke="black" points="330.25,-185.57 321.17,-180.1 324.86,-190.04 330.25,-185.57"/>
</g>
<!-- ast.keyword object at 0x74b3ff5a44d0 -->
<g id="node21" class="node">
<title>ast.keyword object at 0x74b3ff5a44d0</title>
<path fill="#66cdaa" stroke="black" d="M410,-180C410,-180 370,-180 370,-180 364,-180 358,-174 358,-168 358,-168 358,-156 358,-156 358,-150 364,-144 370,-144 370,-144 410,-144 410,-144 416,-144 422,-150 422,-156 422,-156 422,-168 422,-168 422,-174 416,-180 410,-180"/>
<text text-anchor="middle" x="390" y="-158.3" font-family="Times,serif" font-size="14.00">keyword</text>
</g>
<!-- ast.Call object at 0x74b3ff5a7010&#45;&gt;ast.keyword object at 0x74b3ff5a44d0 -->
<g id="edge24" class="edge">
<title>ast.Call object at 0x74b3ff5a7010&#45;&gt;ast.keyword object at 0x74b3ff5a44d0</title>
<path fill="none" stroke="black" d="M371.18,-215.7C374,-207.81 377.39,-198.3 380.52,-189.55"/>
<polygon fill="black" stroke="black" points="383.82,-190.7 383.89,-180.1 377.23,-188.34 383.82,-190.7"/>
</g>
<!-- ast.Attribute object at 0x74b3ff5a4310&#45;&gt;ast.Load object at 0x74b53ba56b90 -->
<g id="edge23" class="edge">
<title>ast.Attribute object at 0x74b3ff5a4310&#45;&gt;ast.Load object at 0x74b53ba56b90</title>
<path fill="none" stroke="black" d="M309.65,-143.87C313.4,-119.67 320.29,-75.21 324.76,-46.39"/>
<polygon fill="black" stroke="black" points="328.26,-46.61 326.34,-36.19 321.35,-45.54 328.26,-46.61"/>
</g>
<!-- ast.Name object at 0x74b3ff5a4e10 -->
<g id="node20" class="node">
<title>ast.Name object at 0x74b3ff5a4e10</title>
<path fill="#66cdaa" stroke="black" d="M289,-108C289,-108 259,-108 259,-108 253,-108 247,-102 247,-96 247,-96 247,-84 247,-84 247,-78 253,-72 259,-72 259,-72 289,-72 289,-72 295,-72 301,-78 301,-84 301,-84 301,-96 301,-96 301,-102 295,-108 289,-108"/>
<text text-anchor="middle" x="274" y="-86.3" font-family="Times,serif" font-size="14.00">Name</text>
</g>
<!-- ast.Attribute object at 0x74b3ff5a4310&#45;&gt;ast.Name object at 0x74b3ff5a4e10 -->
<g id="edge21" class="edge">
<title>ast.Attribute object at 0x74b3ff5a4310&#45;&gt;ast.Name object at 0x74b3ff5a4e10</title>
<path fill="none" stroke="black" d="M298.84,-143.7C295.09,-135.73 290.55,-126.1 286.38,-117.26"/>
<polygon fill="black" stroke="black" points="289.49,-115.66 282.06,-108.1 283.16,-118.64 289.49,-115.66"/>
</g>
<!-- ast.Name object at 0x74b3ff5a4e10&#45;&gt;ast.Load object at 0x74b53ba56b90 -->
<g id="edge22" class="edge">
<title>ast.Name object at 0x74b3ff5a4e10&#45;&gt;ast.Load object at 0x74b53ba56b90</title>
<path fill="none" stroke="black" d="M287.6,-71.7C294.12,-63.39 302.07,-53.28 309.25,-44.14"/>
<polygon fill="black" stroke="black" points="312.13,-46.13 315.56,-36.1 306.63,-41.81 312.13,-46.13"/>
</g>
<!-- ast.Constant object at 0x74b3ff5a7090 -->
<g id="node22" class="node">
<title>ast.Constant object at 0x74b3ff5a7090</title>
<path fill="#66cdaa" stroke="black" d="M410.5,-108C410.5,-108 369.5,-108 369.5,-108 363.5,-108 357.5,-102 357.5,-96 357.5,-96 357.5,-84 357.5,-84 357.5,-78 363.5,-72 369.5,-72 369.5,-72 410.5,-72 410.5,-72 416.5,-72 422.5,-78 422.5,-84 422.5,-84 422.5,-96 422.5,-96 422.5,-102 416.5,-108 410.5,-108"/>
<text text-anchor="middle" x="390" y="-86.3" font-family="Times,serif" font-size="14.00">Constant</text>
</g>
<!-- ast.keyword object at 0x74b3ff5a44d0&#45;&gt;ast.Constant object at 0x74b3ff5a7090 -->
<g id="edge25" class="edge">
<title>ast.keyword object at 0x74b3ff5a44d0&#45;&gt;ast.Constant object at 0x74b3ff5a7090</title>
<path fill="none" stroke="black" d="M390,-143.7C390,-135.98 390,-126.71 390,-118.11"/>
<polygon fill="black" stroke="black" points="393.5,-118.1 390,-108.1 386.5,-118.1 393.5,-118.1"/>
</g>
<!-- ast.Subscript object at 0x74b3ff5a5890 -->
<g id="node24" class="node">
<title>ast.Subscript object at 0x74b3ff5a5890</title>
<path fill="#66cdaa" stroke="black" d="M668,-252C668,-252 624,-252 624,-252 618,-252 612,-246 612,-240 612,-240 612,-228 612,-228 612,-222 618,-216 624,-216 624,-216 668,-216 668,-216 674,-216 680,-222 680,-228 680,-228 680,-240 680,-240 680,-246 674,-252 668,-252"/>
<text text-anchor="middle" x="646" y="-230.3" font-family="Times,serif" font-size="14.00">Subscript</text>
</g>
<!-- ast.Return object at 0x74b3ff5a49d0&#45;&gt;ast.Subscript object at 0x74b3ff5a5890 -->
<g id="edge27" class="edge">
<title>ast.Return object at 0x74b3ff5a49d0&#45;&gt;ast.Subscript object at 0x74b3ff5a5890</title>
<path fill="none" stroke="black" d="M539.12,-290.83C557.77,-281.09 582.91,-267.96 604.12,-256.88"/>
<polygon fill="black" stroke="black" points="606,-259.85 613.24,-252.11 602.76,-253.64 606,-259.85"/>
</g>
<!-- ast.Subscript object at 0x74b3ff5a5890&#45;&gt;ast.Load object at 0x74b53ba56b90 -->
<g id="edge35" class="edge">
<title>ast.Subscript object at 0x74b3ff5a5890&#45;&gt;ast.Load object at 0x74b53ba56b90</title>
<path fill="none" stroke="black" d="M654.58,-215.53C669.15,-183.05 693.92,-112.98 659,-72 621.75,-28.29 444.82,-20.49 366.48,-19.2"/>
<polygon fill="black" stroke="black" points="366.15,-15.69 356.1,-19.06 366.05,-22.69 366.15,-15.69"/>
</g>
<!-- ast.Name object at 0x74b3ff5a5350 -->
<g id="node25" class="node">
<title>ast.Name object at 0x74b3ff5a5350</title>
<path fill="#66cdaa" stroke="black" d="M748,-180C748,-180 718,-180 718,-180 712,-180 706,-174 706,-168 706,-168 706,-156 706,-156 706,-150 712,-144 718,-144 718,-144 748,-144 748,-144 754,-144 760,-150 760,-156 760,-156 760,-168 760,-168 760,-174 754,-180 748,-180"/>
<text text-anchor="middle" x="733" y="-158.3" font-family="Times,serif" font-size="14.00">Name</text>
</g>
<!-- ast.Subscript object at 0x74b3ff5a5890&#45;&gt;ast.Name object at 0x74b3ff5a5350 -->
<g id="edge28" class="edge">
<title>ast.Subscript object at 0x74b3ff5a5890&#45;&gt;ast.Name object at 0x74b3ff5a5350</title>
<path fill="none" stroke="black" d="M667.51,-215.7C678.46,-206.88 691.95,-196.03 703.82,-186.47"/>
<polygon fill="black" stroke="black" points="706.14,-189.1 711.74,-180.1 701.76,-183.65 706.14,-189.1"/>
</g>
<!-- ast.BinOp object at 0x74b3ff5a4350 -->
<g id="node26" class="node">
<title>ast.BinOp object at 0x74b3ff5a4350</title>
<path fill="#66cdaa" stroke="black" d="M598,-180C598,-180 568,-180 568,-180 562,-180 556,-174 556,-168 556,-168 556,-156 556,-156 556,-150 562,-144 568,-144 568,-144 598,-144 598,-144 604,-144 610,-150 610,-156 610,-156 610,-168 610,-168 610,-174 604,-180 598,-180"/>
<text text-anchor="middle" x="583" y="-158.3" font-family="Times,serif" font-size="14.00">BinOp</text>
</g>
<!-- ast.Subscript object at 0x74b3ff5a5890&#45;&gt;ast.BinOp object at 0x74b3ff5a4350 -->
<g id="edge30" class="edge">
<title>ast.Subscript object at 0x74b3ff5a5890&#45;&gt;ast.BinOp object at 0x74b3ff5a4350</title>
<path fill="none" stroke="black" d="M630.43,-215.7C622.8,-207.22 613.48,-196.86 605.12,-187.58"/>
<polygon fill="black" stroke="black" points="607.69,-185.2 598.39,-180.1 602.48,-189.88 607.69,-185.2"/>
</g>
<!-- ast.Name object at 0x74b3ff5a5350&#45;&gt;ast.Load object at 0x74b53ba56b90 -->
<g id="edge29" class="edge">
<title>ast.Name object at 0x74b3ff5a5350&#45;&gt;ast.Load object at 0x74b53ba56b90</title>
<path fill="none" stroke="black" d="M730.15,-143.84C725.76,-123.28 715.3,-89.42 692,-72 641,-33.86 448.16,-22.97 366.21,-20.02"/>
<polygon fill="black" stroke="black" points="366.21,-16.52 356.09,-19.68 365.97,-23.52 366.21,-16.52"/>
</g>
<!-- ast.Name object at 0x74b3ff5a74d0 -->
<g id="node27" class="node">
<title>ast.Name object at 0x74b3ff5a74d0</title>
<path fill="#66cdaa" stroke="black" d="M566,-108C566,-108 536,-108 536,-108 530,-108 524,-102 524,-96 524,-96 524,-84 524,-84 524,-78 530,-72 536,-72 536,-72 566,-72 566,-72 572,-72 578,-78 578,-84 578,-84 578,-96 578,-96 578,-102 572,-108 566,-108"/>
<text text-anchor="middle" x="551" y="-86.3" font-family="Times,serif" font-size="14.00">Name</text>
</g>
<!-- ast.BinOp object at 0x74b3ff5a4350&#45;&gt;ast.Name object at 0x74b3ff5a74d0 -->
<g id="edge31" class="edge">
<title>ast.BinOp object at 0x74b3ff5a4350&#45;&gt;ast.Name object at 0x74b3ff5a74d0</title>
<path fill="none" stroke="black" d="M575.09,-143.7C571.45,-135.73 567.05,-126.1 563.01,-117.26"/>
<polygon fill="black" stroke="black" points="566.16,-115.74 558.82,-108.1 559.79,-118.65 566.16,-115.74"/>
</g>
<!-- ast.Sub object at 0x74b53ba57110 -->
<g id="node28" class="node">
<title>ast.Sub object at 0x74b53ba57110</title>
<path fill="#66cdaa" stroke="black" d="M638,-108C638,-108 608,-108 608,-108 602,-108 596,-102 596,-96 596,-96 596,-84 596,-84 596,-78 602,-72 608,-72 608,-72 638,-72 638,-72 644,-72 650,-78 650,-84 650,-84 650,-96 650,-96 650,-102 644,-108 638,-108"/>
<text text-anchor="middle" x="623" y="-86.3" font-family="Times,serif" font-size="14.00">Sub</text>
</g>
<!-- ast.BinOp object at 0x74b3ff5a4350&#45;&gt;ast.Sub object at 0x74b53ba57110 -->
<g id="edge33" class="edge">
<title>ast.BinOp object at 0x74b3ff5a4350&#45;&gt;ast.Sub object at 0x74b53ba57110</title>
<path fill="none" stroke="black" d="M592.89,-143.7C597.49,-135.64 603.06,-125.89 608.15,-116.98"/>
<polygon fill="black" stroke="black" points="611.3,-118.52 613.23,-108.1 605.23,-115.05 611.3,-118.52"/>
</g>
<!-- ast.Constant object at 0x74b3ff5a55d0 -->
<g id="node29" class="node">
<title>ast.Constant object at 0x74b3ff5a55d0</title>
<path fill="#66cdaa" stroke="black" d="M493.5,-108C493.5,-108 452.5,-108 452.5,-108 446.5,-108 440.5,-102 440.5,-96 440.5,-96 440.5,-84 440.5,-84 440.5,-78 446.5,-72 452.5,-72 452.5,-72 493.5,-72 493.5,-72 499.5,-72 505.5,-78 505.5,-84 505.5,-84 505.5,-96 505.5,-96 505.5,-102 499.5,-108 493.5,-108"/>
<text text-anchor="middle" x="473" y="-86.3" font-family="Times,serif" font-size="14.00">Constant</text>
</g>
<!-- ast.BinOp object at 0x74b3ff5a4350&#45;&gt;ast.Constant object at 0x74b3ff5a55d0 -->
<g id="edge34" class="edge">
<title>ast.BinOp object at 0x74b3ff5a4350&#45;&gt;ast.Constant object at 0x74b3ff5a55d0</title>
<path fill="none" stroke="black" d="M556.09,-143.88C541.84,-134.81 524.15,-123.55 508.76,-113.76"/>
<polygon fill="black" stroke="black" points="510.33,-110.61 500.01,-108.19 506.57,-116.51 510.33,-110.61"/>
</g>
<!-- ast.Name object at 0x74b3ff5a74d0&#45;&gt;ast.Load object at 0x74b53ba56b90 -->
<g id="edge32" class="edge">
<title>ast.Name object at 0x74b3ff5a74d0&#45;&gt;ast.Load object at 0x74b53ba56b90</title>
<path fill="none" stroke="black" d="M523.68,-75.53C520.78,-74.27 517.85,-73.07 515,-72 464.58,-53.06 404.31,-37.04 366.34,-27.73"/>
<polygon fill="black" stroke="black" points="366.79,-24.23 356.25,-25.28 365.14,-31.04 366.79,-24.23"/>
</g>
</g>
</svg>
