<?xml version="1.0" encoding="UTF-8" standalone="no"?>
<!DOCTYPE svg PUBLIC "-//W3C//DTD SVG 1.1//EN"
 "http://www.w3.org/Graphics/SVG/1.1/DTD/svg11.dtd">
<!-- Generated by graphviz version 2.50.0 (0)
 -->
<!-- Pages: 1 -->
<svg width="684pt" height="620pt"
 viewBox="0.00 0.00 684.00 620.00" xmlns="http://www.w3.org/2000/svg" xmlns:xlink="http://www.w3.org/1999/xlink">
<g id="graph0" class="graph" transform="scale(1 1) rotate(0) translate(4 616)">
<polygon fill="white" stroke="transparent" points="-4,4 -4,-616 680,-616 680,4 -4,4"/>
<!-- ast.Module object at 0x7e7fac5b5750 -->
<g id="node1" class="node">
<title>ast.Module object at 0x7e7fac5b5750</title>
<path fill="#66cdaa" stroke="black" d="M490,-612C490,-612 455,-612 455,-612 449,-612 443,-606 443,-600 443,-600 443,-588 443,-588 443,-582 449,-576 455,-576 455,-576 490,-576 490,-576 496,-576 502,-582 502,-588 502,-588 502,-600 502,-600 502,-606 496,-612 490,-612"/>
<text text-anchor="middle" x="472.5" y="-590.3" font-family="Times,serif" font-size="14.00">Module</text>
</g>
<!-- ast.FunctionDef object at 0x7e7fac5b6490 -->
<g id="node2" class="node">
<title>ast.FunctionDef object at 0x7e7fac5b6490</title>
<path fill="#66cdaa" stroke="black" d="M503,-540C503,-540 442,-540 442,-540 436,-540 430,-534 430,-528 430,-528 430,-516 430,-516 430,-510 436,-504 442,-504 442,-504 503,-504 503,-504 509,-504 515,-510 515,-516 515,-516 515,-528 515,-528 515,-534 509,-540 503,-540"/>
<text text-anchor="middle" x="472.5" y="-518.3" font-family="Times,serif" font-size="14.00">FunctionDef</text>
</g>
<!-- ast.Module object at 0x7e7fac5b5750&#45;&gt;ast.FunctionDef object at 0x7e7fac5b6490 -->
<g id="edge1" class="edge">
<title>ast.Module object at 0x7e7fac5b5750&#45;&gt;ast.FunctionDef object at 0x7e7fac5b6490</title>
<path fill="none" stroke="black" d="M472.5,-575.7C472.5,-567.98 472.5,-558.71 472.5,-550.11"/>
<polygon fill="black" stroke="black" points="476,-550.1 472.5,-540.1 469,-550.1 476,-550.1"/>
</g>
<!-- ast.arguments object at 0x7e7face06550 -->
<g id="node3" class="node">
<title>ast.arguments object at 0x7e7face06550</title>
<path fill="#66cdaa" stroke="black" d="M349.5,-468C349.5,-468 299.5,-468 299.5,-468 293.5,-468 287.5,-462 287.5,-456 287.5,-456 287.5,-444 287.5,-444 287.5,-438 293.5,-432 299.5,-432 299.5,-432 349.5,-432 349.5,-432 355.5,-432 361.5,-438 361.5,-444 361.5,-444 361.5,-456 361.5,-456 361.5,-462 355.5,-468 349.5,-468"/>
<text text-anchor="middle" x="324.5" y="-446.3" font-family="Times,serif" font-size="14.00">arguments</text>
</g>
<!-- ast.FunctionDef object at 0x7e7fac5b6490&#45;&gt;ast.arguments object at 0x7e7face06550 -->
<g id="edge2" class="edge">
<title>ast.FunctionDef object at 0x7e7fac5b6490&#45;&gt;ast.arguments object at 0x7e7face06550</title>
<path fill="none" stroke="black" d="M436.3,-503.88C416.24,-494.39 391.13,-482.51 369.79,-472.42"/>
<polygon fill="black" stroke="black" points="371.12,-469.18 360.59,-468.07 368.13,-475.51 371.12,-469.18"/>
</g>
<!-- ast.Assign object at 0x7e7fac696610 -->
<g id="node5" class="node">
<title>ast.Assign object at 0x7e7fac696610</title>
<path fill="#66cdaa" stroke="black" d="M451.5,-468C451.5,-468 421.5,-468 421.5,-468 415.5,-468 409.5,-462 409.5,-456 409.5,-456 409.5,-444 409.5,-444 409.5,-438 415.5,-432 421.5,-432 421.5,-432 451.5,-432 451.5,-432 457.5,-432 463.5,-438 463.5,-444 463.5,-444 463.5,-456 463.5,-456 463.5,-462 457.5,-468 451.5,-468"/>
<text text-anchor="middle" x="436.5" y="-446.3" font-family="Times,serif" font-size="14.00">Assign</text>
</g>
<!-- ast.FunctionDef object at 0x7e7fac5b6490&#45;&gt;ast.Assign object at 0x7e7fac696610 -->
<g id="edge4" class="edge">
<title>ast.FunctionDef object at 0x7e7fac5b6490&#45;&gt;ast.Assign object at 0x7e7fac696610</title>
<path fill="none" stroke="black" d="M463.6,-503.7C459.5,-495.73 454.55,-486.1 450.01,-477.26"/>
<polygon fill="black" stroke="black" points="452.98,-475.4 445.3,-468.1 446.76,-478.6 452.98,-475.4"/>
</g>
<!-- ast.Expr object at 0x7e7fac4cde90 -->
<g id="node22" class="node">
<title>ast.Expr object at 0x7e7fac4cde90</title>
<path fill="#66cdaa" stroke="black" d="M523.5,-468C523.5,-468 493.5,-468 493.5,-468 487.5,-468 481.5,-462 481.5,-456 481.5,-456 481.5,-444 481.5,-444 481.5,-438 487.5,-432 493.5,-432 493.5,-432 523.5,-432 523.5,-432 529.5,-432 535.5,-438 535.5,-444 535.5,-444 535.5,-456 535.5,-456 535.5,-462 529.5,-468 523.5,-468"/>
<text text-anchor="middle" x="508.5" y="-446.3" font-family="Times,serif" font-size="14.00">Expr</text>
</g>
<!-- ast.FunctionDef object at 0x7e7fac5b6490&#45;&gt;ast.Expr object at 0x7e7fac4cde90 -->
<g id="edge26" class="edge">
<title>ast.FunctionDef object at 0x7e7fac5b6490&#45;&gt;ast.Expr object at 0x7e7fac4cde90</title>
<path fill="none" stroke="black" d="M481.4,-503.7C485.5,-495.73 490.45,-486.1 494.99,-477.26"/>
<polygon fill="black" stroke="black" points="498.24,-478.6 499.7,-468.1 492.02,-475.4 498.24,-478.6"/>
</g>
<!-- ast.Return object at 0x7e7fac4ce410 -->
<g id="node26" class="node">
<title>ast.Return object at 0x7e7fac4ce410</title>
<path fill="#66cdaa" stroke="black" d="M595.5,-468C595.5,-468 565.5,-468 565.5,-468 559.5,-468 553.5,-462 553.5,-456 553.5,-456 553.5,-444 553.5,-444 553.5,-438 559.5,-432 565.5,-432 565.5,-432 595.5,-432 595.5,-432 601.5,-432 607.5,-438 607.5,-444 607.5,-444 607.5,-456 607.5,-456 607.5,-462 601.5,-468 595.5,-468"/>
<text text-anchor="middle" x="580.5" y="-446.3" font-family="Times,serif" font-size="14.00">Return</text>
</g>
<!-- ast.FunctionDef object at 0x7e7fac5b6490&#45;&gt;ast.Return object at 0x7e7fac4ce410 -->
<g id="edge32" class="edge">
<title>ast.FunctionDef object at 0x7e7fac5b6490&#45;&gt;ast.Return object at 0x7e7fac4ce410</title>
<path fill="none" stroke="black" d="M498.92,-503.88C512.91,-494.81 530.28,-483.55 545.39,-473.76"/>
<polygon fill="black" stroke="black" points="547.49,-476.57 553.98,-468.19 543.68,-470.69 547.49,-476.57"/>
</g>
<!-- ast.arg object at 0x7e7fac64e510 -->
<g id="node4" class="node">
<title>ast.arg object at 0x7e7fac64e510</title>
<path fill="#66cdaa" stroke="black" d="M277.5,-396C277.5,-396 247.5,-396 247.5,-396 241.5,-396 235.5,-390 235.5,-384 235.5,-384 235.5,-372 235.5,-372 235.5,-366 241.5,-360 247.5,-360 247.5,-360 277.5,-360 277.5,-360 283.5,-360 289.5,-366 289.5,-372 289.5,-372 289.5,-384 289.5,-384 289.5,-390 283.5,-396 277.5,-396"/>
<text text-anchor="middle" x="262.5" y="-374.3" font-family="Times,serif" font-size="14.00">arg</text>
</g>
<!-- ast.arguments object at 0x7e7face06550&#45;&gt;ast.arg object at 0x7e7fac64e510 -->
<g id="edge3" class="edge">
<title>ast.arguments object at 0x7e7face06550&#45;&gt;ast.arg object at 0x7e7fac64e510</title>
<path fill="none" stroke="black" d="M309.17,-431.7C301.74,-423.3 292.68,-413.07 284.52,-403.86"/>
<polygon fill="black" stroke="black" points="286.9,-401.27 277.65,-396.1 281.66,-405.91 286.9,-401.27"/>
</g>
<!-- ast.Name object at 0x7e7fac44ef10 -->
<g id="node6" class="node">
<title>ast.Name object at 0x7e7fac44ef10</title>
<path fill="#66cdaa" stroke="black" d="M462.5,-396C462.5,-396 432.5,-396 432.5,-396 426.5,-396 420.5,-390 420.5,-384 420.5,-384 420.5,-372 420.5,-372 420.5,-366 426.5,-360 432.5,-360 432.5,-360 462.5,-360 462.5,-360 468.5,-360 474.5,-366 474.5,-372 474.5,-372 474.5,-384 474.5,-384 474.5,-390 468.5,-396 462.5,-396"/>
<text text-anchor="middle" x="447.5" y="-374.3" font-family="Times,serif" font-size="14.00">Name</text>
</g>
<!-- ast.Assign object at 0x7e7fac696610&#45;&gt;ast.Name object at 0x7e7fac44ef10 -->
<g id="edge5" class="edge">
<title>ast.Assign object at 0x7e7fac696610&#45;&gt;ast.Name object at 0x7e7fac44ef10</title>
<path fill="none" stroke="black" d="M439.22,-431.7C440.43,-423.98 441.89,-414.71 443.24,-406.11"/>
<polygon fill="black" stroke="black" points="446.72,-406.53 444.81,-396.1 439.8,-405.44 446.72,-406.53"/>
</g>
<!-- ast.ListComp object at 0x7e7fac60e950 -->
<g id="node8" class="node">
<title>ast.ListComp object at 0x7e7fac60e950</title>
<path fill="#66cdaa" stroke="black" d="M367,-396C367,-396 320,-396 320,-396 314,-396 308,-390 308,-384 308,-384 308,-372 308,-372 308,-366 314,-360 320,-360 320,-360 367,-360 367,-360 373,-360 379,-366 379,-372 379,-372 379,-384 379,-384 379,-390 373,-396 367,-396"/>
<text text-anchor="middle" x="343.5" y="-374.3" font-family="Times,serif" font-size="14.00">ListComp</text>
</g>
<!-- ast.Assign object at 0x7e7fac696610&#45;&gt;ast.ListComp object at 0x7e7fac60e950 -->
<g id="edge7" class="edge">
<title>ast.Assign object at 0x7e7fac696610&#45;&gt;ast.ListComp object at 0x7e7fac60e950</title>
<path fill="none" stroke="black" d="M413.51,-431.7C401.69,-422.8 387.11,-411.82 374.32,-402.2"/>
<polygon fill="black" stroke="black" points="376.32,-399.32 366.22,-396.1 372.11,-404.91 376.32,-399.32"/>
</g>
<!-- ast.Store object at 0x7e80d76a3b50 -->
<g id="node7" class="node">
<title>ast.Store object at 0x7e80d76a3b50</title>
<path fill="#66cdaa" stroke="black" d="M432.5,-180C432.5,-180 402.5,-180 402.5,-180 396.5,-180 390.5,-174 390.5,-168 390.5,-168 390.5,-156 390.5,-156 390.5,-150 396.5,-144 402.5,-144 402.5,-144 432.5,-144 432.5,-144 438.5,-144 444.5,-150 444.5,-156 444.5,-156 444.5,-168 444.5,-168 444.5,-174 438.5,-180 432.5,-180"/>
<text text-anchor="middle" x="417.5" y="-158.3" font-family="Times,serif" font-size="14.00">Store</text>
</g>
<!-- ast.Name object at 0x7e7fac44ef10&#45;&gt;ast.Store object at 0x7e80d76a3b50 -->
<g id="edge6" class="edge">
<title>ast.Name object at 0x7e7fac44ef10&#45;&gt;ast.Store object at 0x7e80d76a3b50</title>
<path fill="none" stroke="black" d="M448.1,-359.85C448.76,-330.18 448.55,-267.48 437.5,-216 435.62,-207.25 432.55,-198.02 429.37,-189.77"/>
<polygon fill="black" stroke="black" points="432.52,-188.22 425.52,-180.27 426.04,-190.85 432.52,-188.22"/>
</g>
<!-- ast.Name object at 0x7e7fac5e6850 -->
<g id="node9" class="node">
<title>ast.Name object at 0x7e7fac5e6850</title>
<path fill="#66cdaa" stroke="black" d="M182.5,-324C182.5,-324 152.5,-324 152.5,-324 146.5,-324 140.5,-318 140.5,-312 140.5,-312 140.5,-300 140.5,-300 140.5,-294 146.5,-288 152.5,-288 152.5,-288 182.5,-288 182.5,-288 188.5,-288 194.5,-294 194.5,-300 194.5,-300 194.5,-312 194.5,-312 194.5,-318 188.5,-324 182.5,-324"/>
<text text-anchor="middle" x="167.5" y="-302.3" font-family="Times,serif" font-size="14.00">Name</text>
</g>
<!-- ast.ListComp object at 0x7e7fac60e950&#45;&gt;ast.Name object at 0x7e7fac5e6850 -->
<g id="edge8" class="edge">
<title>ast.ListComp object at 0x7e7fac60e950&#45;&gt;ast.Name object at 0x7e7fac5e6850</title>
<path fill="none" stroke="black" d="M307.88,-362.83C277.7,-350.83 234.59,-333.69 204.13,-321.57"/>
<polygon fill="black" stroke="black" points="205.3,-318.27 194.71,-317.82 202.71,-324.77 205.3,-318.27"/>
</g>
<!-- ast.comprehension object at 0x7e7fac5e6f50 -->
<g id="node11" class="node">
<title>ast.comprehension object at 0x7e7fac5e6f50</title>
<path fill="#66cdaa" stroke="black" d="M374.5,-324C374.5,-324 298.5,-324 298.5,-324 292.5,-324 286.5,-318 286.5,-312 286.5,-312 286.5,-300 286.5,-300 286.5,-294 292.5,-288 298.5,-288 298.5,-288 374.5,-288 374.5,-288 380.5,-288 386.5,-294 386.5,-300 386.5,-300 386.5,-312 386.5,-312 386.5,-318 380.5,-324 374.5,-324"/>
<text text-anchor="middle" x="336.5" y="-302.3" font-family="Times,serif" font-size="14.00">comprehension</text>
</g>
<!-- ast.ListComp object at 0x7e7fac60e950&#45;&gt;ast.comprehension object at 0x7e7fac5e6f50 -->
<g id="edge10" class="edge">
<title>ast.ListComp object at 0x7e7fac60e950&#45;&gt;ast.comprehension object at 0x7e7fac5e6f50</title>
<path fill="none" stroke="black" d="M341.77,-359.7C341,-351.98 340.07,-342.71 339.21,-334.11"/>
<polygon fill="black" stroke="black" points="342.69,-333.71 338.21,-324.1 335.72,-334.4 342.69,-333.71"/>
</g>
<!-- ast.Load object at 0x7e80d76a3ad0 -->
<g id="node10" class="node">
<title>ast.Load object at 0x7e80d76a3ad0</title>
<path fill="#66cdaa" stroke="black" d="M377.5,-36C377.5,-36 347.5,-36 347.5,-36 341.5,-36 335.5,-30 335.5,-24 335.5,-24 335.5,-12 335.5,-12 335.5,-6 341.5,0 347.5,0 347.5,0 377.5,0 377.5,0 383.5,0 389.5,-6 389.5,-12 389.5,-12 389.5,-24 389.5,-24 389.5,-30 383.5,-36 377.5,-36"/>
<text text-anchor="middle" x="362.5" y="-14.3" font-family="Times,serif" font-size="14.00">Load</text>
</g>
<!-- ast.Name object at 0x7e7fac5e6850&#45;&gt;ast.Load object at 0x7e80d76a3ad0 -->
<g id="edge9" class="edge">
<title>ast.Name object at 0x7e7fac5e6850&#45;&gt;ast.Load object at 0x7e80d76a3ad0</title>
<path fill="none" stroke="black" d="M161.7,-287.98C147.89,-243.94 118.76,-125.94 182.5,-72 223.25,-37.52 285.58,-25.46 325.17,-21.25"/>
<polygon fill="black" stroke="black" points="325.58,-24.73 335.2,-20.3 324.92,-17.76 325.58,-24.73"/>
</g>
<!-- ast.Name object at 0x7e7faca07850 -->
<g id="node12" class="node">
<title>ast.Name object at 0x7e7faca07850</title>
<path fill="#66cdaa" stroke="black" d="M416.5,-252C416.5,-252 386.5,-252 386.5,-252 380.5,-252 374.5,-246 374.5,-240 374.5,-240 374.5,-228 374.5,-228 374.5,-222 380.5,-216 386.5,-216 386.5,-216 416.5,-216 416.5,-216 422.5,-216 428.5,-222 428.5,-228 428.5,-228 428.5,-240 428.5,-240 428.5,-246 422.5,-252 416.5,-252"/>
<text text-anchor="middle" x="401.5" y="-230.3" font-family="Times,serif" font-size="14.00">Name</text>
</g>
<!-- ast.comprehension object at 0x7e7fac5e6f50&#45;&gt;ast.Name object at 0x7e7faca07850 -->
<g id="edge11" class="edge">
<title>ast.comprehension object at 0x7e7fac5e6f50&#45;&gt;ast.Name object at 0x7e7faca07850</title>
<path fill="none" stroke="black" d="M352.57,-287.7C360.44,-279.22 370.06,-268.86 378.67,-259.58"/>
<polygon fill="black" stroke="black" points="381.38,-261.81 385.62,-252.1 376.25,-257.05 381.38,-261.81"/>
</g>
<!-- ast.Name object at 0x7e7fac408b10 -->
<g id="node13" class="node">
<title>ast.Name object at 0x7e7fac408b10</title>
<path fill="#66cdaa" stroke="black" d="M344.5,-252C344.5,-252 314.5,-252 314.5,-252 308.5,-252 302.5,-246 302.5,-240 302.5,-240 302.5,-228 302.5,-228 302.5,-222 308.5,-216 314.5,-216 314.5,-216 344.5,-216 344.5,-216 350.5,-216 356.5,-222 356.5,-228 356.5,-228 356.5,-240 356.5,-240 356.5,-246 350.5,-252 344.5,-252"/>
<text text-anchor="middle" x="329.5" y="-230.3" font-family="Times,serif" font-size="14.00">Name</text>
</g>
<!-- ast.comprehension object at 0x7e7fac5e6f50&#45;&gt;ast.Name object at 0x7e7fac408b10 -->
<g id="edge13" class="edge">
<title>ast.comprehension object at 0x7e7fac5e6f50&#45;&gt;ast.Name object at 0x7e7fac408b10</title>
<path fill="none" stroke="black" d="M334.77,-287.7C334,-279.98 333.07,-270.71 332.21,-262.11"/>
<polygon fill="black" stroke="black" points="335.69,-261.71 331.21,-252.1 328.72,-262.4 335.69,-261.71"/>
</g>
<!-- ast.Compare object at 0x7e7fd44aee90 -->
<g id="node14" class="node">
<title>ast.Compare object at 0x7e7fd44aee90</title>
<path fill="#66cdaa" stroke="black" d="M272,-252C272,-252 229,-252 229,-252 223,-252 217,-246 217,-240 217,-240 217,-228 217,-228 217,-222 223,-216 229,-216 229,-216 272,-216 272,-216 278,-216 284,-222 284,-228 284,-228 284,-240 284,-240 284,-246 278,-252 272,-252"/>
<text text-anchor="middle" x="250.5" y="-230.3" font-family="Times,serif" font-size="14.00">Compare</text>
</g>
<!-- ast.comprehension object at 0x7e7fac5e6f50&#45;&gt;ast.Compare object at 0x7e7fd44aee90 -->
<g id="edge15" class="edge">
<title>ast.comprehension object at 0x7e7fac5e6f50&#45;&gt;ast.Compare object at 0x7e7fd44aee90</title>
<path fill="none" stroke="black" d="M315.24,-287.7C304.41,-278.88 291.08,-268.03 279.34,-258.47"/>
<polygon fill="black" stroke="black" points="281.48,-255.7 271.51,-252.1 277.06,-261.13 281.48,-255.7"/>
</g>
<!-- ast.Name object at 0x7e7faca07850&#45;&gt;ast.Store object at 0x7e80d76a3b50 -->
<g id="edge12" class="edge">
<title>ast.Name object at 0x7e7faca07850&#45;&gt;ast.Store object at 0x7e80d76a3b50</title>
<path fill="none" stroke="black" d="M405.46,-215.7C407.22,-207.98 409.34,-198.71 411.3,-190.11"/>
<polygon fill="black" stroke="black" points="414.77,-190.63 413.59,-180.1 407.95,-189.07 414.77,-190.63"/>
</g>
<!-- ast.Name object at 0x7e7fac408b10&#45;&gt;ast.Load object at 0x7e80d76a3ad0 -->
<g id="edge14" class="edge">
<title>ast.Name object at 0x7e7fac408b10&#45;&gt;ast.Load object at 0x7e80d76a3ad0</title>
<path fill="none" stroke="black" d="M334.66,-215.95C337.62,-205.63 341.19,-192.15 343.5,-180 352.34,-133.5 357.76,-78.61 360.45,-46.43"/>
<polygon fill="black" stroke="black" points="363.97,-46.29 361.28,-36.04 356.99,-45.73 363.97,-46.29"/>
</g>
<!-- ast.Name object at 0x7e7fac4ce5d0 -->
<g id="node15" class="node">
<title>ast.Name object at 0x7e7fac4ce5d0</title>
<path fill="#66cdaa" stroke="black" d="M322.5,-108C322.5,-108 292.5,-108 292.5,-108 286.5,-108 280.5,-102 280.5,-96 280.5,-96 280.5,-84 280.5,-84 280.5,-78 286.5,-72 292.5,-72 292.5,-72 322.5,-72 322.5,-72 328.5,-72 334.5,-78 334.5,-84 334.5,-84 334.5,-96 334.5,-96 334.5,-102 328.5,-108 322.5,-108"/>
<text text-anchor="middle" x="307.5" y="-86.3" font-family="Times,serif" font-size="14.00">Name</text>
</g>
<!-- ast.Compare object at 0x7e7fd44aee90&#45;&gt;ast.Name object at 0x7e7fac4ce5d0 -->
<g id="edge16" class="edge">
<title>ast.Compare object at 0x7e7fd44aee90&#45;&gt;ast.Name object at 0x7e7fac4ce5d0</title>
<path fill="none" stroke="black" d="M252.68,-215.68C255.42,-197.29 261.09,-167.69 271.5,-144 275.69,-134.48 281.62,-124.84 287.46,-116.44"/>
<polygon fill="black" stroke="black" points="290.4,-118.35 293.44,-108.2 284.74,-114.24 290.4,-118.35"/>
</g>
<!-- ast.In object at 0x7e80d76b0f10 -->
<g id="node16" class="node">
<title>ast.In object at 0x7e80d76b0f10</title>
<path fill="#66cdaa" stroke="black" d="M322.5,-180C322.5,-180 292.5,-180 292.5,-180 286.5,-180 280.5,-174 280.5,-168 280.5,-168 280.5,-156 280.5,-156 280.5,-150 286.5,-144 292.5,-144 292.5,-144 322.5,-144 322.5,-144 328.5,-144 334.5,-150 334.5,-156 334.5,-156 334.5,-168 334.5,-168 334.5,-174 328.5,-180 322.5,-180"/>
<text text-anchor="middle" x="307.5" y="-158.3" font-family="Times,serif" font-size="14.00">In</text>
</g>
<!-- ast.Compare object at 0x7e7fd44aee90&#45;&gt;ast.In object at 0x7e80d76b0f10 -->
<g id="edge18" class="edge">
<title>ast.Compare object at 0x7e7fd44aee90&#45;&gt;ast.In object at 0x7e80d76b0f10</title>
<path fill="none" stroke="black" d="M264.59,-215.7C271.42,-207.3 279.76,-197.07 287.26,-187.86"/>
<polygon fill="black" stroke="black" points="289.97,-190.07 293.57,-180.1 284.54,-185.65 289.97,-190.07"/>
</g>
<!-- ast.Subscript object at 0x7e7fac4ce610 -->
<g id="node17" class="node">
<title>ast.Subscript object at 0x7e7fac4ce610</title>
<path fill="#66cdaa" stroke="black" d="M212.5,-180C212.5,-180 168.5,-180 168.5,-180 162.5,-180 156.5,-174 156.5,-168 156.5,-168 156.5,-156 156.5,-156 156.5,-150 162.5,-144 168.5,-144 168.5,-144 212.5,-144 212.5,-144 218.5,-144 224.5,-150 224.5,-156 224.5,-156 224.5,-168 224.5,-168 224.5,-174 218.5,-180 212.5,-180"/>
<text text-anchor="middle" x="190.5" y="-158.3" font-family="Times,serif" font-size="14.00">Subscript</text>
</g>
<!-- ast.Compare object at 0x7e7fd44aee90&#45;&gt;ast.Subscript object at 0x7e7fac4ce610 -->
<g id="edge19" class="edge">
<title>ast.Compare object at 0x7e7fd44aee90&#45;&gt;ast.Subscript object at 0x7e7fac4ce610</title>
<path fill="none" stroke="black" d="M235.67,-215.7C228.48,-207.3 219.7,-197.07 211.81,-187.86"/>
<polygon fill="black" stroke="black" points="214.33,-185.42 205.16,-180.1 209.01,-189.97 214.33,-185.42"/>
</g>
<!-- ast.Name object at 0x7e7fac4ce5d0&#45;&gt;ast.Load object at 0x7e80d76a3ad0 -->
<g id="edge17" class="edge">
<title>ast.Name object at 0x7e7fac4ce5d0&#45;&gt;ast.Load object at 0x7e80d76a3ad0</title>
<path fill="none" stroke="black" d="M321.1,-71.7C327.62,-63.39 335.57,-53.28 342.75,-44.14"/>
<polygon fill="black" stroke="black" points="345.63,-46.13 349.06,-36.1 340.13,-41.81 345.63,-46.13"/>
</g>
<!-- ast.Subscript object at 0x7e7fac4ce610&#45;&gt;ast.Load object at 0x7e80d76a3ad0 -->
<g id="edge25" class="edge">
<title>ast.Subscript object at 0x7e7fac4ce610&#45;&gt;ast.Load object at 0x7e80d76a3ad0</title>
<path fill="none" stroke="black" d="M187.15,-143.88C184.36,-124.29 183.12,-92.31 199.5,-72 229.81,-34.42 287.17,-23.18 325.12,-20"/>
<polygon fill="black" stroke="black" points="325.54,-23.48 335.27,-19.3 325.05,-16.49 325.54,-23.48"/>
</g>
<!-- ast.Name object at 0x7e7fac4ce690 -->
<g id="node18" class="node">
<title>ast.Name object at 0x7e7fac4ce690</title>
<path fill="#66cdaa" stroke="black" d="M250.5,-108C250.5,-108 220.5,-108 220.5,-108 214.5,-108 208.5,-102 208.5,-96 208.5,-96 208.5,-84 208.5,-84 208.5,-78 214.5,-72 220.5,-72 220.5,-72 250.5,-72 250.5,-72 256.5,-72 262.5,-78 262.5,-84 262.5,-84 262.5,-96 262.5,-96 262.5,-102 256.5,-108 250.5,-108"/>
<text text-anchor="middle" x="235.5" y="-86.3" font-family="Times,serif" font-size="14.00">Name</text>
</g>
<!-- ast.Subscript object at 0x7e7fac4ce610&#45;&gt;ast.Name object at 0x7e7fac4ce690 -->
<g id="edge20" class="edge">
<title>ast.Subscript object at 0x7e7fac4ce610&#45;&gt;ast.Name object at 0x7e7fac4ce690</title>
<path fill="none" stroke="black" d="M201.62,-143.7C206.86,-135.56 213.2,-125.69 218.98,-116.7"/>
<polygon fill="black" stroke="black" points="222.04,-118.41 224.5,-108.1 216.15,-114.62 222.04,-118.41"/>
</g>
<!-- ast.Slice object at 0x7e7fac4ce650 -->
<g id="node19" class="node">
<title>ast.Slice object at 0x7e7fac4ce650</title>
<path fill="#66cdaa" stroke="black" d="M88.5,-108C88.5,-108 58.5,-108 58.5,-108 52.5,-108 46.5,-102 46.5,-96 46.5,-96 46.5,-84 46.5,-84 46.5,-78 52.5,-72 58.5,-72 58.5,-72 88.5,-72 88.5,-72 94.5,-72 100.5,-78 100.5,-84 100.5,-84 100.5,-96 100.5,-96 100.5,-102 94.5,-108 88.5,-108"/>
<text text-anchor="middle" x="73.5" y="-86.3" font-family="Times,serif" font-size="14.00">Slice</text>
</g>
<!-- ast.Subscript object at 0x7e7fac4ce610&#45;&gt;ast.Slice object at 0x7e7fac4ce650 -->
<g id="edge22" class="edge">
<title>ast.Subscript object at 0x7e7fac4ce610&#45;&gt;ast.Slice object at 0x7e7fac4ce650</title>
<path fill="none" stroke="black" d="M161.88,-143.88C146.12,-134.45 126.42,-122.66 109.61,-112.61"/>
<polygon fill="black" stroke="black" points="111,-109.36 100.62,-107.23 107.4,-115.36 111,-109.36"/>
</g>
<!-- ast.Name object at 0x7e7fac4ce690&#45;&gt;ast.Load object at 0x7e80d76a3ad0 -->
<g id="edge21" class="edge">
<title>ast.Name object at 0x7e7fac4ce690&#45;&gt;ast.Load object at 0x7e80d76a3ad0</title>
<path fill="none" stroke="black" d="M262.74,-73.98C281.33,-63.74 306.14,-50.07 326.37,-38.92"/>
<polygon fill="black" stroke="black" points="328.23,-41.88 335.3,-33.99 324.85,-35.75 328.23,-41.88"/>
</g>
<!-- ast.Constant object at 0x7e7fac4ce1d0 -->
<g id="node20" class="node">
<title>ast.Constant object at 0x7e7fac4ce1d0</title>
<path fill="#66cdaa" stroke="black" d="M53,-36C53,-36 12,-36 12,-36 6,-36 0,-30 0,-24 0,-24 0,-12 0,-12 0,-6 6,0 12,0 12,0 53,0 53,0 59,0 65,-6 65,-12 65,-12 65,-24 65,-24 65,-30 59,-36 53,-36"/>
<text text-anchor="middle" x="32.5" y="-14.3" font-family="Times,serif" font-size="14.00">Constant</text>
</g>
<!-- ast.Slice object at 0x7e7fac4ce650&#45;&gt;ast.Constant object at 0x7e7fac4ce1d0 -->
<g id="edge23" class="edge">
<title>ast.Slice object at 0x7e7fac4ce650&#45;&gt;ast.Constant object at 0x7e7fac4ce1d0</title>
<path fill="none" stroke="black" d="M63.37,-71.7C58.65,-63.64 52.94,-53.89 47.72,-44.98"/>
<polygon fill="black" stroke="black" points="50.59,-42.96 42.52,-36.1 44.55,-46.5 50.59,-42.96"/>
</g>
<!-- ast.Constant object at 0x7e7fac4cea50 -->
<g id="node21" class="node">
<title>ast.Constant object at 0x7e7fac4cea50</title>
<path fill="#66cdaa" stroke="black" d="M136,-36C136,-36 95,-36 95,-36 89,-36 83,-30 83,-24 83,-24 83,-12 83,-12 83,-6 89,0 95,0 95,0 136,0 136,0 142,0 148,-6 148,-12 148,-12 148,-24 148,-24 148,-30 142,-36 136,-36"/>
<text text-anchor="middle" x="115.5" y="-14.3" font-family="Times,serif" font-size="14.00">Constant</text>
</g>
<!-- ast.Slice object at 0x7e7fac4ce650&#45;&gt;ast.Constant object at 0x7e7fac4cea50 -->
<g id="edge24" class="edge">
<title>ast.Slice object at 0x7e7fac4ce650&#45;&gt;ast.Constant object at 0x7e7fac4cea50</title>
<path fill="none" stroke="black" d="M83.88,-71.7C88.76,-63.56 94.69,-53.69 100.08,-44.7"/>
<polygon fill="black" stroke="black" points="103.09,-46.48 105.24,-36.1 97.09,-42.88 103.09,-46.48"/>
</g>
<!-- ast.Call object at 0x7e7fac4ce3d0 -->
<g id="node23" class="node">
<title>ast.Call object at 0x7e7fac4ce3d0</title>
<path fill="#66cdaa" stroke="black" d="M526.5,-324C526.5,-324 496.5,-324 496.5,-324 490.5,-324 484.5,-318 484.5,-312 484.5,-312 484.5,-300 484.5,-300 484.5,-294 490.5,-288 496.5,-288 496.5,-288 526.5,-288 526.5,-288 532.5,-288 538.5,-294 538.5,-300 538.5,-300 538.5,-312 538.5,-312 538.5,-318 532.5,-324 526.5,-324"/>
<text text-anchor="middle" x="511.5" y="-302.3" font-family="Times,serif" font-size="14.00">Call</text>
</g>
<!-- ast.Expr object at 0x7e7fac4cde90&#45;&gt;ast.Call object at 0x7e7fac4ce3d0 -->
<g id="edge27" class="edge">
<title>ast.Expr object at 0x7e7fac4cde90&#45;&gt;ast.Call object at 0x7e7fac4ce3d0</title>
<path fill="none" stroke="black" d="M508.86,-431.87C509.37,-407.67 510.31,-363.21 510.92,-334.39"/>
<polygon fill="black" stroke="black" points="514.42,-334.26 511.14,-324.19 507.43,-334.11 514.42,-334.26"/>
</g>
<!-- ast.Attribute object at 0x7e7fac4ce490 -->
<g id="node24" class="node">
<title>ast.Attribute object at 0x7e7fac4ce490</title>
<path fill="#66cdaa" stroke="black" d="M516,-180C516,-180 475,-180 475,-180 469,-180 463,-174 463,-168 463,-168 463,-156 463,-156 463,-150 469,-144 475,-144 475,-144 516,-144 516,-144 522,-144 528,-150 528,-156 528,-156 528,-168 528,-168 528,-174 522,-180 516,-180"/>
<text text-anchor="middle" x="495.5" y="-158.3" font-family="Times,serif" font-size="14.00">Attribute</text>
</g>
<!-- ast.Call object at 0x7e7fac4ce3d0&#45;&gt;ast.Attribute object at 0x7e7fac4ce490 -->
<g id="edge28" class="edge">
<title>ast.Call object at 0x7e7fac4ce3d0&#45;&gt;ast.Attribute object at 0x7e7fac4ce490</title>
<path fill="none" stroke="black" d="M509.57,-287.87C506.84,-263.67 501.83,-219.21 498.59,-190.39"/>
<polygon fill="black" stroke="black" points="502.03,-189.73 497.44,-180.19 495.08,-190.52 502.03,-189.73"/>
</g>
<!-- ast.Attribute object at 0x7e7fac4ce490&#45;&gt;ast.Load object at 0x7e80d76a3ad0 -->
<g id="edge31" class="edge">
<title>ast.Attribute object at 0x7e7fac4ce490&#45;&gt;ast.Load object at 0x7e80d76a3ad0</title>
<path fill="none" stroke="black" d="M490.79,-143.83C484.78,-124.5 472.78,-93.03 453.5,-72 438.45,-55.59 417.13,-42.8 398.91,-33.9"/>
<polygon fill="black" stroke="black" points="400.25,-30.66 389.71,-29.6 397.29,-37.01 400.25,-30.66"/>
</g>
<!-- ast.Name object at 0x7e7fac4cd350 -->
<g id="node25" class="node">
<title>ast.Name object at 0x7e7fac4cd350</title>
<path fill="#66cdaa" stroke="black" d="M432.5,-108C432.5,-108 402.5,-108 402.5,-108 396.5,-108 390.5,-102 390.5,-96 390.5,-96 390.5,-84 390.5,-84 390.5,-78 396.5,-72 402.5,-72 402.5,-72 432.5,-72 432.5,-72 438.5,-72 444.5,-78 444.5,-84 444.5,-84 444.5,-96 444.5,-96 444.5,-102 438.5,-108 432.5,-108"/>
<text text-anchor="middle" x="417.5" y="-86.3" font-family="Times,serif" font-size="14.00">Name</text>
</g>
<!-- ast.Attribute object at 0x7e7fac4ce490&#45;&gt;ast.Name object at 0x7e7fac4cd350 -->
<g id="edge29" class="edge">
<title>ast.Attribute object at 0x7e7fac4ce490&#45;&gt;ast.Name object at 0x7e7fac4cd350</title>
<path fill="none" stroke="black" d="M476.22,-143.7C466.58,-135.05 454.77,-124.45 444.27,-115.03"/>
<polygon fill="black" stroke="black" points="446.34,-112.18 436.56,-108.1 441.66,-117.39 446.34,-112.18"/>
</g>
<!-- ast.Name object at 0x7e7fac4cd350&#45;&gt;ast.Load object at 0x7e80d76a3ad0 -->
<g id="edge30" class="edge">
<title>ast.Name object at 0x7e7fac4cd350&#45;&gt;ast.Load object at 0x7e80d76a3ad0</title>
<path fill="none" stroke="black" d="M403.9,-71.7C397.38,-63.39 389.43,-53.28 382.25,-44.14"/>
<polygon fill="black" stroke="black" points="384.87,-41.81 375.94,-36.1 379.37,-46.13 384.87,-41.81"/>
</g>
<!-- ast.Subscript object at 0x7e7fac4cd390 -->
<g id="node27" class="node">
<title>ast.Subscript object at 0x7e7fac4cd390</title>
<path fill="#66cdaa" stroke="black" d="M602.5,-180C602.5,-180 558.5,-180 558.5,-180 552.5,-180 546.5,-174 546.5,-168 546.5,-168 546.5,-156 546.5,-156 546.5,-150 552.5,-144 558.5,-144 558.5,-144 602.5,-144 602.5,-144 608.5,-144 614.5,-150 614.5,-156 614.5,-156 614.5,-168 614.5,-168 614.5,-174 608.5,-180 602.5,-180"/>
<text text-anchor="middle" x="580.5" y="-158.3" font-family="Times,serif" font-size="14.00">Subscript</text>
</g>
<!-- ast.Return object at 0x7e7fac4ce410&#45;&gt;ast.Subscript object at 0x7e7fac4cd390 -->
<g id="edge33" class="edge">
<title>ast.Return object at 0x7e7fac4ce410&#45;&gt;ast.Subscript object at 0x7e7fac4cd390</title>
<path fill="none" stroke="black" d="M580.5,-431.97C580.5,-384.29 580.5,-249.18 580.5,-190.63"/>
<polygon fill="black" stroke="black" points="584,-190.31 580.5,-180.31 577,-190.31 584,-190.31"/>
</g>
<!-- ast.Subscript object at 0x7e7fac4cd390&#45;&gt;ast.Load object at 0x7e80d76a3ad0 -->
<g id="edge37" class="edge">
<title>ast.Subscript object at 0x7e7fac4cd390&#45;&gt;ast.Load object at 0x7e80d76a3ad0</title>
<path fill="none" stroke="black" d="M564.25,-143.89C545.27,-124.61 512.28,-93.19 479.5,-72 454.15,-55.62 422.9,-41.74 399.08,-32.3"/>
<polygon fill="black" stroke="black" points="400.27,-29.01 389.69,-28.66 397.74,-35.54 400.27,-29.01"/>
</g>
<!-- ast.Name object at 0x7e7fac4ce510 -->
<g id="node28" class="node">
<title>ast.Name object at 0x7e7fac4ce510</title>
<path fill="#66cdaa" stroke="black" d="M580.5,-108C580.5,-108 550.5,-108 550.5,-108 544.5,-108 538.5,-102 538.5,-96 538.5,-96 538.5,-84 538.5,-84 538.5,-78 544.5,-72 550.5,-72 550.5,-72 580.5,-72 580.5,-72 586.5,-72 592.5,-78 592.5,-84 592.5,-84 592.5,-96 592.5,-96 592.5,-102 586.5,-108 580.5,-108"/>
<text text-anchor="middle" x="565.5" y="-86.3" font-family="Times,serif" font-size="14.00">Name</text>
</g>
<!-- ast.Subscript object at 0x7e7fac4cd390&#45;&gt;ast.Name object at 0x7e7fac4ce510 -->
<g id="edge34" class="edge">
<title>ast.Subscript object at 0x7e7fac4cd390&#45;&gt;ast.Name object at 0x7e7fac4ce510</title>
<path fill="none" stroke="black" d="M576.79,-143.7C575.14,-135.98 573.15,-126.71 571.31,-118.11"/>
<polygon fill="black" stroke="black" points="574.68,-117.15 569.17,-108.1 567.84,-118.62 574.68,-117.15"/>
</g>
<!-- ast.Constant object at 0x7e7fac4cce90 -->
<g id="node29" class="node">
<title>ast.Constant object at 0x7e7fac4cce90</title>
<path fill="#66cdaa" stroke="black" d="M664,-108C664,-108 623,-108 623,-108 617,-108 611,-102 611,-96 611,-96 611,-84 611,-84 611,-78 617,-72 623,-72 623,-72 664,-72 664,-72 670,-72 676,-78 676,-84 676,-84 676,-96 676,-96 676,-102 670,-108 664,-108"/>
<text text-anchor="middle" x="643.5" y="-86.3" font-family="Times,serif" font-size="14.00">Constant</text>
</g>
<!-- ast.Subscript object at 0x7e7fac4cd390&#45;&gt;ast.Constant object at 0x7e7fac4cce90 -->
<g id="edge36" class="edge">
<title>ast.Subscript object at 0x7e7fac4cd390&#45;&gt;ast.Constant object at 0x7e7fac4cce90</title>
<path fill="none" stroke="black" d="M596.07,-143.7C603.7,-135.22 613.02,-124.86 621.38,-115.58"/>
<polygon fill="black" stroke="black" points="624.02,-117.88 628.11,-108.1 618.81,-113.2 624.02,-117.88"/>
</g>
<!-- ast.Name object at 0x7e7fac4ce510&#45;&gt;ast.Load object at 0x7e80d76a3ad0 -->
<g id="edge35" class="edge">
<title>ast.Name object at 0x7e7fac4ce510&#45;&gt;ast.Load object at 0x7e80d76a3ad0</title>
<path fill="none" stroke="black" d="M538.27,-77.37C533.7,-75.51 528.98,-73.66 524.5,-72 482,-56.26 432.37,-40.39 399.35,-30.17"/>
<polygon fill="black" stroke="black" points="400.25,-26.78 389.66,-27.19 398.19,-33.47 400.25,-26.78"/>
</g>
</g>
</svg>
