<?xml version="1.0" encoding="UTF-8" standalone="no"?>
<!DOCTYPE svg PUBLIC "-//W3C//DTD SVG 1.1//EN"
 "http://www.w3.org/Graphics/SVG/1.1/DTD/svg11.dtd">
<!-- Generated by graphviz version 2.50.0 (0)
 -->
<!-- Pages: 1 -->
<svg width="1878pt" height="692pt"
 viewBox="0.00 0.00 1877.90 692.00" xmlns="http://www.w3.org/2000/svg" xmlns:xlink="http://www.w3.org/1999/xlink">
<g id="graph0" class="graph" transform="scale(1 1) rotate(0) translate(4 688)">
<polygon fill="white" stroke="transparent" points="-4,4 -4,-688 1873.9,-688 1873.9,4 -4,4"/>
<!-- ast.Module object at 0x78e59182c7d0 -->
<g id="node1" class="node">
<title>ast.Module object at 0x78e59182c7d0</title>
<path fill="#66cdaa" stroke="black" d="M932.4,-684C932.4,-684 897.4,-684 897.4,-684 891.4,-684 885.4,-678 885.4,-672 885.4,-672 885.4,-660 885.4,-660 885.4,-654 891.4,-648 897.4,-648 897.4,-648 932.4,-648 932.4,-648 938.4,-648 944.4,-654 944.4,-660 944.4,-660 944.4,-672 944.4,-672 944.4,-678 938.4,-684 932.4,-684"/>
<text text-anchor="middle" x="914.9" y="-662.3" font-family="Times,serif" font-size="14.00">Module</text>
</g>
<!-- ast.ImportFrom object at 0x78e59182de90 -->
<g id="node2" class="node">
<title>ast.ImportFrom object at 0x78e59182de90</title>
<path fill="#66cdaa" stroke="black" d="M893.9,-612C893.9,-612 833.9,-612 833.9,-612 827.9,-612 821.9,-606 821.9,-600 821.9,-600 821.9,-588 821.9,-588 821.9,-582 827.9,-576 833.9,-576 833.9,-576 893.9,-576 893.9,-576 899.9,-576 905.9,-582 905.9,-588 905.9,-588 905.9,-600 905.9,-600 905.9,-606 899.9,-612 893.9,-612"/>
<text text-anchor="middle" x="863.9" y="-590.3" font-family="Times,serif" font-size="14.00">ImportFrom</text>
</g>
<!-- ast.Module object at 0x78e59182c7d0&#45;&gt;ast.ImportFrom object at 0x78e59182de90 -->
<g id="edge1" class="edge">
<title>ast.Module object at 0x78e59182c7d0&#45;&gt;ast.ImportFrom object at 0x78e59182de90</title>
<path fill="none" stroke="black" d="M902.3,-647.7C896.31,-639.47 889.03,-629.48 882.42,-620.42"/>
<polygon fill="black" stroke="black" points="885.08,-618.13 876.37,-612.1 879.43,-622.25 885.08,-618.13"/>
</g>
<!-- ast.FunctionDef object at 0x78e59182d910 -->
<g id="node4" class="node">
<title>ast.FunctionDef object at 0x78e59182d910</title>
<path fill="#66cdaa" stroke="black" d="M1118.4,-612C1118.4,-612 1057.4,-612 1057.4,-612 1051.4,-612 1045.4,-606 1045.4,-600 1045.4,-600 1045.4,-588 1045.4,-588 1045.4,-582 1051.4,-576 1057.4,-576 1057.4,-576 1118.4,-576 1118.4,-576 1124.4,-576 1130.4,-582 1130.4,-588 1130.4,-588 1130.4,-600 1130.4,-600 1130.4,-606 1124.4,-612 1118.4,-612"/>
<text text-anchor="middle" x="1087.9" y="-590.3" font-family="Times,serif" font-size="14.00">FunctionDef</text>
</g>
<!-- ast.Module object at 0x78e59182c7d0&#45;&gt;ast.FunctionDef object at 0x78e59182d910 -->
<g id="edge3" class="edge">
<title>ast.Module object at 0x78e59182c7d0&#45;&gt;ast.FunctionDef object at 0x78e59182d910</title>
<path fill="none" stroke="black" d="M944.64,-652.97C969.75,-642.81 1006.28,-628.03 1036.16,-615.94"/>
<polygon fill="black" stroke="black" points="1037.65,-619.11 1045.61,-612.11 1035.03,-612.62 1037.65,-619.11"/>
</g>
<!-- ast.alias object at 0x78e59182e710 -->
<g id="node3" class="node">
<title>ast.alias object at 0x78e59182e710</title>
<path fill="#66cdaa" stroke="black" d="M589.9,-540C589.9,-540 559.9,-540 559.9,-540 553.9,-540 547.9,-534 547.9,-528 547.9,-528 547.9,-516 547.9,-516 547.9,-510 553.9,-504 559.9,-504 559.9,-504 589.9,-504 589.9,-504 595.9,-504 601.9,-510 601.9,-516 601.9,-516 601.9,-528 601.9,-528 601.9,-534 595.9,-540 589.9,-540"/>
<text text-anchor="middle" x="574.9" y="-518.3" font-family="Times,serif" font-size="14.00">alias</text>
</g>
<!-- ast.ImportFrom object at 0x78e59182de90&#45;&gt;ast.alias object at 0x78e59182e710 -->
<g id="edge2" class="edge">
<title>ast.ImportFrom object at 0x78e59182de90&#45;&gt;ast.alias object at 0x78e59182e710</title>
<path fill="none" stroke="black" d="M821.47,-587.23C772.54,-579.89 689.8,-565.4 611.65,-539.85"/>
<polygon fill="black" stroke="black" points="612.74,-536.52 602.15,-536.68 610.53,-543.16 612.74,-536.52"/>
</g>
<!-- ast.arguments object at 0x78e59182c9d0 -->
<g id="node5" class="node">
<title>ast.arguments object at 0x78e59182c9d0</title>
<path fill="#66cdaa" stroke="black" d="M1268.9,-540C1268.9,-540 1218.9,-540 1218.9,-540 1212.9,-540 1206.9,-534 1206.9,-528 1206.9,-528 1206.9,-516 1206.9,-516 1206.9,-510 1212.9,-504 1218.9,-504 1218.9,-504 1268.9,-504 1268.9,-504 1274.9,-504 1280.9,-510 1280.9,-516 1280.9,-516 1280.9,-528 1280.9,-528 1280.9,-534 1274.9,-540 1268.9,-540"/>
<text text-anchor="middle" x="1243.9" y="-518.3" font-family="Times,serif" font-size="14.00">arguments</text>
</g>
<!-- ast.FunctionDef object at 0x78e59182d910&#45;&gt;ast.arguments object at 0x78e59182c9d0 -->
<g id="edge4" class="edge">
<title>ast.FunctionDef object at 0x78e59182d910&#45;&gt;ast.arguments object at 0x78e59182c9d0</title>
<path fill="none" stroke="black" d="M1126.07,-575.88C1147.63,-566.2 1174.75,-554.03 1197.53,-543.81"/>
<polygon fill="black" stroke="black" points="1198.98,-546.99 1206.67,-539.71 1196.12,-540.61 1198.98,-546.99"/>
</g>
<!-- ast.FunctionDef object at 0x78e59182ecd0 -->
<g id="node7" class="node">
<title>ast.FunctionDef object at 0x78e59182ecd0</title>
<path fill="#66cdaa" stroke="black" d="M1638.4,-540C1638.4,-540 1577.4,-540 1577.4,-540 1571.4,-540 1565.4,-534 1565.4,-528 1565.4,-528 1565.4,-516 1565.4,-516 1565.4,-510 1571.4,-504 1577.4,-504 1577.4,-504 1638.4,-504 1638.4,-504 1644.4,-504 1650.4,-510 1650.4,-516 1650.4,-516 1650.4,-528 1650.4,-528 1650.4,-534 1644.4,-540 1638.4,-540"/>
<text text-anchor="middle" x="1607.9" y="-518.3" font-family="Times,serif" font-size="14.00">FunctionDef</text>
</g>
<!-- ast.FunctionDef object at 0x78e59182d910&#45;&gt;ast.FunctionDef object at 0x78e59182ecd0 -->
<g id="edge6" class="edge">
<title>ast.FunctionDef object at 0x78e59182d910&#45;&gt;ast.FunctionDef object at 0x78e59182ecd0</title>
<path fill="none" stroke="black" d="M1130.46,-587.27C1224.85,-574.57 1451.55,-544.05 1554.92,-530.13"/>
<polygon fill="black" stroke="black" points="1555.68,-533.56 1565.13,-528.76 1554.75,-526.62 1555.68,-533.56"/>
</g>
<!-- ast.Assign object at 0x78e599da9ad0 -->
<g id="node25" class="node">
<title>ast.Assign object at 0x78e599da9ad0</title>
<path fill="#66cdaa" stroke="black" d="M661.9,-540C661.9,-540 631.9,-540 631.9,-540 625.9,-540 619.9,-534 619.9,-528 619.9,-528 619.9,-516 619.9,-516 619.9,-510 625.9,-504 631.9,-504 631.9,-504 661.9,-504 661.9,-504 667.9,-504 673.9,-510 673.9,-516 673.9,-516 673.9,-528 673.9,-528 673.9,-534 667.9,-540 661.9,-540"/>
<text text-anchor="middle" x="646.9" y="-518.3" font-family="Times,serif" font-size="14.00">Assign</text>
</g>
<!-- ast.FunctionDef object at 0x78e59182d910&#45;&gt;ast.Assign object at 0x78e599da9ad0 -->
<g id="edge28" class="edge">
<title>ast.FunctionDef object at 0x78e59182d910&#45;&gt;ast.Assign object at 0x78e599da9ad0</title>
<path fill="none" stroke="black" d="M1045.22,-586.22C959.06,-572.55 765.64,-541.85 684.18,-528.92"/>
<polygon fill="black" stroke="black" points="684.34,-525.4 673.91,-527.29 683.24,-532.31 684.34,-525.4"/>
</g>
<!-- ast.Assign object at 0x78e591830f90 -->
<g id="node39" class="node">
<title>ast.Assign object at 0x78e591830f90</title>
<path fill="#66cdaa" stroke="black" d="M1155.9,-396C1155.9,-396 1125.9,-396 1125.9,-396 1119.9,-396 1113.9,-390 1113.9,-384 1113.9,-384 1113.9,-372 1113.9,-372 1113.9,-366 1119.9,-360 1125.9,-360 1125.9,-360 1155.9,-360 1155.9,-360 1161.9,-360 1167.9,-366 1167.9,-372 1167.9,-372 1167.9,-384 1167.9,-384 1167.9,-390 1161.9,-396 1155.9,-396"/>
<text text-anchor="middle" x="1140.9" y="-374.3" font-family="Times,serif" font-size="14.00">Assign</text>
</g>
<!-- ast.FunctionDef object at 0x78e59182d910&#45;&gt;ast.Assign object at 0x78e591830f90 -->
<g id="edge48" class="edge">
<title>ast.FunctionDef object at 0x78e59182d910&#45;&gt;ast.Assign object at 0x78e591830f90</title>
<path fill="none" stroke="black" d="M1092.15,-575.85C1101.34,-538.75 1123.12,-450.81 1134.19,-406.1"/>
<polygon fill="black" stroke="black" points="1137.63,-406.78 1136.64,-396.23 1130.83,-405.1 1137.63,-406.78"/>
</g>
<!-- ast.Assign object at 0x78e5919e2d50 -->
<g id="node44" class="node">
<title>ast.Assign object at 0x78e5919e2d50</title>
<path fill="#66cdaa" stroke="black" d="M1083.9,-396C1083.9,-396 1053.9,-396 1053.9,-396 1047.9,-396 1041.9,-390 1041.9,-384 1041.9,-384 1041.9,-372 1041.9,-372 1041.9,-366 1047.9,-360 1053.9,-360 1053.9,-360 1083.9,-360 1083.9,-360 1089.9,-360 1095.9,-366 1095.9,-372 1095.9,-372 1095.9,-384 1095.9,-384 1095.9,-390 1089.9,-396 1083.9,-396"/>
<text text-anchor="middle" x="1068.9" y="-374.3" font-family="Times,serif" font-size="14.00">Assign</text>
</g>
<!-- ast.FunctionDef object at 0x78e59182d910&#45;&gt;ast.Assign object at 0x78e5919e2d50 -->
<g id="edge56" class="edge">
<title>ast.FunctionDef object at 0x78e59182d910&#45;&gt;ast.Assign object at 0x78e5919e2d50</title>
<path fill="none" stroke="black" d="M1086.38,-575.85C1083.09,-538.83 1075.31,-451.18 1071.34,-406.39"/>
<polygon fill="black" stroke="black" points="1074.8,-405.88 1070.43,-396.23 1067.83,-406.5 1074.8,-405.88"/>
</g>
<!-- ast.For object at 0x78e599d45050 -->
<g id="node48" class="node">
<title>ast.For object at 0x78e599d45050</title>
<path fill="#66cdaa" stroke="black" d="M882.9,-540C882.9,-540 852.9,-540 852.9,-540 846.9,-540 840.9,-534 840.9,-528 840.9,-528 840.9,-516 840.9,-516 840.9,-510 846.9,-504 852.9,-504 852.9,-504 882.9,-504 882.9,-504 888.9,-504 894.9,-510 894.9,-516 894.9,-516 894.9,-528 894.9,-528 894.9,-534 888.9,-540 882.9,-540"/>
<text text-anchor="middle" x="867.9" y="-518.3" font-family="Times,serif" font-size="14.00">For</text>
</g>
<!-- ast.FunctionDef object at 0x78e59182d910&#45;&gt;ast.For object at 0x78e599d45050 -->
<g id="edge62" class="edge">
<title>ast.FunctionDef object at 0x78e59182d910&#45;&gt;ast.For object at 0x78e599d45050</title>
<path fill="none" stroke="black" d="M1045.22,-579.42C1004.5,-566.46 943.79,-547.14 905.02,-534.81"/>
<polygon fill="black" stroke="black" points="905.78,-531.38 895.19,-531.68 903.65,-538.05 905.78,-531.38"/>
</g>
<!-- ast.Return object at 0x78e59134de90 -->
<g id="node78" class="node">
<title>ast.Return object at 0x78e59134de90</title>
<path fill="#66cdaa" stroke="black" d="M1176.9,-540C1176.9,-540 1146.9,-540 1146.9,-540 1140.9,-540 1134.9,-534 1134.9,-528 1134.9,-528 1134.9,-516 1134.9,-516 1134.9,-510 1140.9,-504 1146.9,-504 1146.9,-504 1176.9,-504 1176.9,-504 1182.9,-504 1188.9,-510 1188.9,-516 1188.9,-516 1188.9,-528 1188.9,-528 1188.9,-534 1182.9,-540 1176.9,-540"/>
<text text-anchor="middle" x="1161.9" y="-518.3" font-family="Times,serif" font-size="14.00">Return</text>
</g>
<!-- ast.FunctionDef object at 0x78e59182d910&#45;&gt;ast.Return object at 0x78e59134de90 -->
<g id="edge107" class="edge">
<title>ast.FunctionDef object at 0x78e59182d910&#45;&gt;ast.Return object at 0x78e59134de90</title>
<path fill="none" stroke="black" d="M1106.2,-575.7C1115.34,-567.05 1126.54,-556.45 1136.5,-547.03"/>
<polygon fill="black" stroke="black" points="1138.96,-549.52 1143.82,-540.1 1134.15,-544.43 1138.96,-549.52"/>
</g>
<!-- ast.arg object at 0x78e59182c950 -->
<g id="node6" class="node">
<title>ast.arg object at 0x78e59182c950</title>
<path fill="#66cdaa" stroke="black" d="M1258.9,-468C1258.9,-468 1228.9,-468 1228.9,-468 1222.9,-468 1216.9,-462 1216.9,-456 1216.9,-456 1216.9,-444 1216.9,-444 1216.9,-438 1222.9,-432 1228.9,-432 1228.9,-432 1258.9,-432 1258.9,-432 1264.9,-432 1270.9,-438 1270.9,-444 1270.9,-444 1270.9,-456 1270.9,-456 1270.9,-462 1264.9,-468 1258.9,-468"/>
<text text-anchor="middle" x="1243.9" y="-446.3" font-family="Times,serif" font-size="14.00">arg</text>
</g>
<!-- ast.arguments object at 0x78e59182c9d0&#45;&gt;ast.arg object at 0x78e59182c950 -->
<g id="edge5" class="edge">
<title>ast.arguments object at 0x78e59182c9d0&#45;&gt;ast.arg object at 0x78e59182c950</title>
<path fill="none" stroke="black" d="M1243.9,-503.7C1243.9,-495.98 1243.9,-486.71 1243.9,-478.11"/>
<polygon fill="black" stroke="black" points="1247.4,-478.1 1243.9,-468.1 1240.4,-478.1 1247.4,-478.1"/>
</g>
<!-- ast.arguments object at 0x78e59182d390 -->
<g id="node8" class="node">
<title>ast.arguments object at 0x78e59182d390</title>
<path fill="#66cdaa" stroke="black" d="M1714.9,-468C1714.9,-468 1664.9,-468 1664.9,-468 1658.9,-468 1652.9,-462 1652.9,-456 1652.9,-456 1652.9,-444 1652.9,-444 1652.9,-438 1658.9,-432 1664.9,-432 1664.9,-432 1714.9,-432 1714.9,-432 1720.9,-432 1726.9,-438 1726.9,-444 1726.9,-444 1726.9,-456 1726.9,-456 1726.9,-462 1720.9,-468 1714.9,-468"/>
<text text-anchor="middle" x="1689.9" y="-446.3" font-family="Times,serif" font-size="14.00">arguments</text>
</g>
<!-- ast.FunctionDef object at 0x78e59182ecd0&#45;&gt;ast.arguments object at 0x78e59182d390 -->
<g id="edge7" class="edge">
<title>ast.FunctionDef object at 0x78e59182ecd0&#45;&gt;ast.arguments object at 0x78e59182d390</title>
<path fill="none" stroke="black" d="M1628.17,-503.7C1638.4,-494.97 1650.97,-484.24 1662.08,-474.75"/>
<polygon fill="black" stroke="black" points="1664.53,-477.26 1669.87,-468.1 1659.99,-471.94 1664.53,-477.26"/>
</g>
<!-- ast.Return object at 0x78e59182f990 -->
<g id="node10" class="node">
<title>ast.Return object at 0x78e59182f990</title>
<path fill="#66cdaa" stroke="black" d="M1622.9,-468C1622.9,-468 1592.9,-468 1592.9,-468 1586.9,-468 1580.9,-462 1580.9,-456 1580.9,-456 1580.9,-444 1580.9,-444 1580.9,-438 1586.9,-432 1592.9,-432 1592.9,-432 1622.9,-432 1622.9,-432 1628.9,-432 1634.9,-438 1634.9,-444 1634.9,-444 1634.9,-456 1634.9,-456 1634.9,-462 1628.9,-468 1622.9,-468"/>
<text text-anchor="middle" x="1607.9" y="-446.3" font-family="Times,serif" font-size="14.00">Return</text>
</g>
<!-- ast.FunctionDef object at 0x78e59182ecd0&#45;&gt;ast.Return object at 0x78e59182f990 -->
<g id="edge9" class="edge">
<title>ast.FunctionDef object at 0x78e59182ecd0&#45;&gt;ast.Return object at 0x78e59182f990</title>
<path fill="none" stroke="black" d="M1607.9,-503.7C1607.9,-495.98 1607.9,-486.71 1607.9,-478.11"/>
<polygon fill="black" stroke="black" points="1611.4,-478.1 1607.9,-468.1 1604.4,-478.1 1611.4,-478.1"/>
</g>
<!-- ast.arg object at 0x78e59182e490 -->
<g id="node9" class="node">
<title>ast.arg object at 0x78e59182e490</title>
<path fill="#66cdaa" stroke="black" d="M1704.9,-396C1704.9,-396 1674.9,-396 1674.9,-396 1668.9,-396 1662.9,-390 1662.9,-384 1662.9,-384 1662.9,-372 1662.9,-372 1662.9,-366 1668.9,-360 1674.9,-360 1674.9,-360 1704.9,-360 1704.9,-360 1710.9,-360 1716.9,-366 1716.9,-372 1716.9,-372 1716.9,-384 1716.9,-384 1716.9,-390 1710.9,-396 1704.9,-396"/>
<text text-anchor="middle" x="1689.9" y="-374.3" font-family="Times,serif" font-size="14.00">arg</text>
</g>
<!-- ast.arguments object at 0x78e59182d390&#45;&gt;ast.arg object at 0x78e59182e490 -->
<g id="edge8" class="edge">
<title>ast.arguments object at 0x78e59182d390&#45;&gt;ast.arg object at 0x78e59182e490</title>
<path fill="none" stroke="black" d="M1689.9,-431.7C1689.9,-423.98 1689.9,-414.71 1689.9,-406.11"/>
<polygon fill="black" stroke="black" points="1693.4,-406.1 1689.9,-396.1 1686.4,-406.1 1693.4,-406.1"/>
</g>
<!-- ast.Compare object at 0x78e59182e650 -->
<g id="node11" class="node">
<title>ast.Compare object at 0x78e59182e650</title>
<path fill="#66cdaa" stroke="black" d="M1631.4,-396C1631.4,-396 1588.4,-396 1588.4,-396 1582.4,-396 1576.4,-390 1576.4,-384 1576.4,-384 1576.4,-372 1576.4,-372 1576.4,-366 1582.4,-360 1588.4,-360 1588.4,-360 1631.4,-360 1631.4,-360 1637.4,-360 1643.4,-366 1643.4,-372 1643.4,-372 1643.4,-384 1643.4,-384 1643.4,-390 1637.4,-396 1631.4,-396"/>
<text text-anchor="middle" x="1609.9" y="-374.3" font-family="Times,serif" font-size="14.00">Compare</text>
</g>
<!-- ast.Return object at 0x78e59182f990&#45;&gt;ast.Compare object at 0x78e59182e650 -->
<g id="edge10" class="edge">
<title>ast.Return object at 0x78e59182f990&#45;&gt;ast.Compare object at 0x78e59182e650</title>
<path fill="none" stroke="black" d="M1608.4,-431.7C1608.62,-423.98 1608.88,-414.71 1609.13,-406.11"/>
<polygon fill="black" stroke="black" points="1612.63,-406.2 1609.42,-396.1 1605.63,-406 1612.63,-406.2"/>
</g>
<!-- ast.Call object at 0x78e59182c610 -->
<g id="node12" class="node">
<title>ast.Call object at 0x78e59182c610</title>
<path fill="#66cdaa" stroke="black" d="M1577.9,-252C1577.9,-252 1547.9,-252 1547.9,-252 1541.9,-252 1535.9,-246 1535.9,-240 1535.9,-240 1535.9,-228 1535.9,-228 1535.9,-222 1541.9,-216 1547.9,-216 1547.9,-216 1577.9,-216 1577.9,-216 1583.9,-216 1589.9,-222 1589.9,-228 1589.9,-228 1589.9,-240 1589.9,-240 1589.9,-246 1583.9,-252 1577.9,-252"/>
<text text-anchor="middle" x="1562.9" y="-230.3" font-family="Times,serif" font-size="14.00">Call</text>
</g>
<!-- ast.Compare object at 0x78e59182e650&#45;&gt;ast.Call object at 0x78e59182c610 -->
<g id="edge11" class="edge">
<title>ast.Compare object at 0x78e59182e650&#45;&gt;ast.Call object at 0x78e59182c610</title>
<path fill="none" stroke="black" d="M1604.23,-359.87C1596.19,-335.56 1581.38,-290.82 1571.84,-262.01"/>
<polygon fill="black" stroke="black" points="1575.06,-260.58 1568.59,-252.19 1568.41,-262.78 1575.06,-260.58"/>
</g>
<!-- ast.Eq object at 0x78e5d6baad90 -->
<g id="node16" class="node">
<title>ast.Eq object at 0x78e5d6baad90</title>
<path fill="#66cdaa" stroke="black" d="M1734.9,-324C1734.9,-324 1704.9,-324 1704.9,-324 1698.9,-324 1692.9,-318 1692.9,-312 1692.9,-312 1692.9,-300 1692.9,-300 1692.9,-294 1698.9,-288 1704.9,-288 1704.9,-288 1734.9,-288 1734.9,-288 1740.9,-288 1746.9,-294 1746.9,-300 1746.9,-300 1746.9,-312 1746.9,-312 1746.9,-318 1740.9,-324 1734.9,-324"/>
<text text-anchor="middle" x="1719.9" y="-302.3" font-family="Times,serif" font-size="14.00">Eq</text>
</g>
<!-- ast.Compare object at 0x78e59182e650&#45;&gt;ast.Eq object at 0x78e5d6baad90 -->
<g id="edge16" class="edge">
<title>ast.Compare object at 0x78e59182e650&#45;&gt;ast.Eq object at 0x78e5d6baad90</title>
<path fill="none" stroke="black" d="M1636.81,-359.88C1651.06,-350.81 1668.75,-339.55 1684.14,-329.76"/>
<polygon fill="black" stroke="black" points="1686.33,-332.51 1692.89,-324.19 1682.58,-326.61 1686.33,-332.51"/>
</g>
<!-- ast.Subscript object at 0x78e59182cc90 -->
<g id="node17" class="node">
<title>ast.Subscript object at 0x78e59182cc90</title>
<path fill="#66cdaa" stroke="black" d="M1662.9,-324C1662.9,-324 1618.9,-324 1618.9,-324 1612.9,-324 1606.9,-318 1606.9,-312 1606.9,-312 1606.9,-300 1606.9,-300 1606.9,-294 1612.9,-288 1618.9,-288 1618.9,-288 1662.9,-288 1662.9,-288 1668.9,-288 1674.9,-294 1674.9,-300 1674.9,-300 1674.9,-312 1674.9,-312 1674.9,-318 1668.9,-324 1662.9,-324"/>
<text text-anchor="middle" x="1640.9" y="-302.3" font-family="Times,serif" font-size="14.00">Subscript</text>
</g>
<!-- ast.Compare object at 0x78e59182e650&#45;&gt;ast.Subscript object at 0x78e59182cc90 -->
<g id="edge17" class="edge">
<title>ast.Compare object at 0x78e59182e650&#45;&gt;ast.Subscript object at 0x78e59182cc90</title>
<path fill="none" stroke="black" d="M1617.57,-359.7C1621.1,-351.73 1625.36,-342.1 1629.27,-333.26"/>
<polygon fill="black" stroke="black" points="1632.48,-334.67 1633.33,-324.1 1626.08,-331.83 1632.48,-334.67"/>
</g>
<!-- ast.Attribute object at 0x78e59182d210 -->
<g id="node13" class="node">
<title>ast.Attribute object at 0x78e59182d210</title>
<path fill="#66cdaa" stroke="black" d="M1576.4,-180C1576.4,-180 1535.4,-180 1535.4,-180 1529.4,-180 1523.4,-174 1523.4,-168 1523.4,-168 1523.4,-156 1523.4,-156 1523.4,-150 1529.4,-144 1535.4,-144 1535.4,-144 1576.4,-144 1576.4,-144 1582.4,-144 1588.4,-150 1588.4,-156 1588.4,-156 1588.4,-168 1588.4,-168 1588.4,-174 1582.4,-180 1576.4,-180"/>
<text text-anchor="middle" x="1555.9" y="-158.3" font-family="Times,serif" font-size="14.00">Attribute</text>
</g>
<!-- ast.Call object at 0x78e59182c610&#45;&gt;ast.Attribute object at 0x78e59182d210 -->
<g id="edge12" class="edge">
<title>ast.Call object at 0x78e59182c610&#45;&gt;ast.Attribute object at 0x78e59182d210</title>
<path fill="none" stroke="black" d="M1561.17,-215.7C1560.4,-207.98 1559.48,-198.71 1558.62,-190.11"/>
<polygon fill="black" stroke="black" points="1562.09,-189.71 1557.61,-180.1 1555.13,-190.4 1562.09,-189.71"/>
</g>
<!-- ast.Name object at 0x78e59182ead0 -->
<g id="node14" class="node">
<title>ast.Name object at 0x78e59182ead0</title>
<path fill="#66cdaa" stroke="black" d="M1515.9,-108C1515.9,-108 1485.9,-108 1485.9,-108 1479.9,-108 1473.9,-102 1473.9,-96 1473.9,-96 1473.9,-84 1473.9,-84 1473.9,-78 1479.9,-72 1485.9,-72 1485.9,-72 1515.9,-72 1515.9,-72 1521.9,-72 1527.9,-78 1527.9,-84 1527.9,-84 1527.9,-96 1527.9,-96 1527.9,-102 1521.9,-108 1515.9,-108"/>
<text text-anchor="middle" x="1500.9" y="-86.3" font-family="Times,serif" font-size="14.00">Name</text>
</g>
<!-- ast.Attribute object at 0x78e59182d210&#45;&gt;ast.Name object at 0x78e59182ead0 -->
<g id="edge13" class="edge">
<title>ast.Attribute object at 0x78e59182d210&#45;&gt;ast.Name object at 0x78e59182ead0</title>
<path fill="none" stroke="black" d="M1542.31,-143.7C1535.78,-135.39 1527.84,-125.28 1520.66,-116.14"/>
<polygon fill="black" stroke="black" points="1523.27,-113.81 1514.34,-108.1 1517.77,-118.13 1523.27,-113.81"/>
</g>
<!-- ast.Load object at 0x78e5d6ba9d90 -->
<g id="node15" class="node">
<title>ast.Load object at 0x78e5d6ba9d90</title>
<path fill="#66cdaa" stroke="black" d="M857.9,-36C857.9,-36 827.9,-36 827.9,-36 821.9,-36 815.9,-30 815.9,-24 815.9,-24 815.9,-12 815.9,-12 815.9,-6 821.9,0 827.9,0 827.9,0 857.9,0 857.9,0 863.9,0 869.9,-6 869.9,-12 869.9,-12 869.9,-24 869.9,-24 869.9,-30 863.9,-36 857.9,-36"/>
<text text-anchor="middle" x="842.9" y="-14.3" font-family="Times,serif" font-size="14.00">Load</text>
</g>
<!-- ast.Attribute object at 0x78e59182d210&#45;&gt;ast.Load object at 0x78e5d6ba9d90 -->
<g id="edge15" class="edge">
<title>ast.Attribute object at 0x78e59182d210&#45;&gt;ast.Load object at 0x78e5d6ba9d90</title>
<path fill="none" stroke="black" d="M1557.74,-143.96C1558.89,-123.52 1557.25,-89.78 1536.9,-72 1487.24,-28.59 1017.47,-20.67 880.32,-19.29"/>
<polygon fill="black" stroke="black" points="879.96,-15.78 869.93,-19.19 879.89,-22.78 879.96,-15.78"/>
</g>
<!-- ast.Name object at 0x78e59182ead0&#45;&gt;ast.Load object at 0x78e5d6ba9d90 -->
<g id="edge14" class="edge">
<title>ast.Name object at 0x78e59182ead0&#45;&gt;ast.Load object at 0x78e5d6ba9d90</title>
<path fill="none" stroke="black" d="M1473.5,-76.29C1469.03,-74.61 1464.4,-73.1 1459.9,-72 1245.22,-19.61 977.52,-17.18 880.34,-18.26"/>
<polygon fill="black" stroke="black" points="880.09,-14.76 870.14,-18.39 880.19,-21.76 880.09,-14.76"/>
</g>
<!-- ast.Subscript object at 0x78e59182cc90&#45;&gt;ast.Load object at 0x78e5d6ba9d90 -->
<g id="edge27" class="edge">
<title>ast.Subscript object at 0x78e59182cc90&#45;&gt;ast.Load object at 0x78e5d6ba9d90</title>
<path fill="none" stroke="black" d="M1656.08,-287.63C1663.72,-277.84 1672.31,-265 1676.9,-252 1703.63,-176.44 1727.12,-123.73 1665.9,-72 1605.36,-20.84 1033.79,-18.53 880.55,-18.84"/>
<polygon fill="black" stroke="black" points="880.24,-15.34 870.25,-18.87 880.26,-22.34 880.24,-15.34"/>
</g>
<!-- ast.Call object at 0x78e59182df90 -->
<g id="node18" class="node">
<title>ast.Call object at 0x78e59182df90</title>
<path fill="#66cdaa" stroke="black" d="M1655.9,-252C1655.9,-252 1625.9,-252 1625.9,-252 1619.9,-252 1613.9,-246 1613.9,-240 1613.9,-240 1613.9,-228 1613.9,-228 1613.9,-222 1619.9,-216 1625.9,-216 1625.9,-216 1655.9,-216 1655.9,-216 1661.9,-216 1667.9,-222 1667.9,-228 1667.9,-228 1667.9,-240 1667.9,-240 1667.9,-246 1661.9,-252 1655.9,-252"/>
<text text-anchor="middle" x="1640.9" y="-230.3" font-family="Times,serif" font-size="14.00">Call</text>
</g>
<!-- ast.Subscript object at 0x78e59182cc90&#45;&gt;ast.Call object at 0x78e59182df90 -->
<g id="edge18" class="edge">
<title>ast.Subscript object at 0x78e59182cc90&#45;&gt;ast.Call object at 0x78e59182df90</title>
<path fill="none" stroke="black" d="M1640.9,-287.7C1640.9,-279.98 1640.9,-270.71 1640.9,-262.11"/>
<polygon fill="black" stroke="black" points="1644.4,-262.1 1640.9,-252.1 1637.4,-262.1 1644.4,-262.1"/>
</g>
<!-- ast.Slice object at 0x78e59182e810 -->
<g id="node21" class="node">
<title>ast.Slice object at 0x78e59182e810</title>
<path fill="#66cdaa" stroke="black" d="M1776.9,-252C1776.9,-252 1746.9,-252 1746.9,-252 1740.9,-252 1734.9,-246 1734.9,-240 1734.9,-240 1734.9,-228 1734.9,-228 1734.9,-222 1740.9,-216 1746.9,-216 1746.9,-216 1776.9,-216 1776.9,-216 1782.9,-216 1788.9,-222 1788.9,-228 1788.9,-228 1788.9,-240 1788.9,-240 1788.9,-246 1782.9,-252 1776.9,-252"/>
<text text-anchor="middle" x="1761.9" y="-230.3" font-family="Times,serif" font-size="14.00">Slice</text>
</g>
<!-- ast.Subscript object at 0x78e59182cc90&#45;&gt;ast.Slice object at 0x78e59182e810 -->
<g id="edge23" class="edge">
<title>ast.Subscript object at 0x78e59182cc90&#45;&gt;ast.Slice object at 0x78e59182e810</title>
<path fill="none" stroke="black" d="M1670.5,-287.88C1687.19,-278.23 1708.15,-266.1 1725.8,-255.89"/>
<polygon fill="black" stroke="black" points="1727.78,-258.79 1734.68,-250.75 1724.27,-252.73 1727.78,-258.79"/>
</g>
<!-- ast.Attribute object at 0x78e59182ee50 -->
<g id="node19" class="node">
<title>ast.Attribute object at 0x78e59182ee50</title>
<path fill="#66cdaa" stroke="black" d="M1661.4,-180C1661.4,-180 1620.4,-180 1620.4,-180 1614.4,-180 1608.4,-174 1608.4,-168 1608.4,-168 1608.4,-156 1608.4,-156 1608.4,-150 1614.4,-144 1620.4,-144 1620.4,-144 1661.4,-144 1661.4,-144 1667.4,-144 1673.4,-150 1673.4,-156 1673.4,-156 1673.4,-168 1673.4,-168 1673.4,-174 1667.4,-180 1661.4,-180"/>
<text text-anchor="middle" x="1640.9" y="-158.3" font-family="Times,serif" font-size="14.00">Attribute</text>
</g>
<!-- ast.Call object at 0x78e59182df90&#45;&gt;ast.Attribute object at 0x78e59182ee50 -->
<g id="edge19" class="edge">
<title>ast.Call object at 0x78e59182df90&#45;&gt;ast.Attribute object at 0x78e59182ee50</title>
<path fill="none" stroke="black" d="M1640.9,-215.7C1640.9,-207.98 1640.9,-198.71 1640.9,-190.11"/>
<polygon fill="black" stroke="black" points="1644.4,-190.1 1640.9,-180.1 1637.4,-190.1 1644.4,-190.1"/>
</g>
<!-- ast.Attribute object at 0x78e59182ee50&#45;&gt;ast.Load object at 0x78e5d6ba9d90 -->
<g id="edge22" class="edge">
<title>ast.Attribute object at 0x78e59182ee50&#45;&gt;ast.Load object at 0x78e5d6ba9d90</title>
<path fill="none" stroke="black" d="M1648.71,-143.77C1656.45,-123.77 1664.79,-91.11 1646.9,-72 1594.04,-15.53 1032.3,-17.08 880.52,-18.54"/>
<polygon fill="black" stroke="black" points="880.28,-15.04 870.32,-18.65 880.35,-22.04 880.28,-15.04"/>
</g>
<!-- ast.Name object at 0x78e59182d2d0 -->
<g id="node20" class="node">
<title>ast.Name object at 0x78e59182d2d0</title>
<path fill="#66cdaa" stroke="black" d="M1625.9,-108C1625.9,-108 1595.9,-108 1595.9,-108 1589.9,-108 1583.9,-102 1583.9,-96 1583.9,-96 1583.9,-84 1583.9,-84 1583.9,-78 1589.9,-72 1595.9,-72 1595.9,-72 1625.9,-72 1625.9,-72 1631.9,-72 1637.9,-78 1637.9,-84 1637.9,-84 1637.9,-96 1637.9,-96 1637.9,-102 1631.9,-108 1625.9,-108"/>
<text text-anchor="middle" x="1610.9" y="-86.3" font-family="Times,serif" font-size="14.00">Name</text>
</g>
<!-- ast.Attribute object at 0x78e59182ee50&#45;&gt;ast.Name object at 0x78e59182d2d0 -->
<g id="edge20" class="edge">
<title>ast.Attribute object at 0x78e59182ee50&#45;&gt;ast.Name object at 0x78e59182d2d0</title>
<path fill="none" stroke="black" d="M1633.49,-143.7C1630.11,-135.81 1626.03,-126.3 1622.28,-117.55"/>
<polygon fill="black" stroke="black" points="1625.39,-115.92 1618.23,-108.1 1618.96,-118.67 1625.39,-115.92"/>
</g>
<!-- ast.Name object at 0x78e59182d2d0&#45;&gt;ast.Load object at 0x78e5d6ba9d90 -->
<g id="edge21" class="edge">
<title>ast.Name object at 0x78e59182d2d0&#45;&gt;ast.Load object at 0x78e5d6ba9d90</title>
<path fill="none" stroke="black" d="M1583.52,-76.24C1579.04,-74.57 1574.4,-73.07 1569.9,-72 1436.66,-40.39 1009.14,-24.35 880.12,-20.14"/>
<polygon fill="black" stroke="black" points="880.06,-16.64 869.96,-19.82 879.84,-23.64 880.06,-16.64"/>
</g>
<!-- ast.UnaryOp object at 0x78e59182d350 -->
<g id="node22" class="node">
<title>ast.UnaryOp object at 0x78e59182d350</title>
<path fill="#66cdaa" stroke="black" d="M1787.4,-180C1787.4,-180 1744.4,-180 1744.4,-180 1738.4,-180 1732.4,-174 1732.4,-168 1732.4,-168 1732.4,-156 1732.4,-156 1732.4,-150 1738.4,-144 1744.4,-144 1744.4,-144 1787.4,-144 1787.4,-144 1793.4,-144 1799.4,-150 1799.4,-156 1799.4,-156 1799.4,-168 1799.4,-168 1799.4,-174 1793.4,-180 1787.4,-180"/>
<text text-anchor="middle" x="1765.9" y="-158.3" font-family="Times,serif" font-size="14.00">UnaryOp</text>
</g>
<!-- ast.Slice object at 0x78e59182e810&#45;&gt;ast.UnaryOp object at 0x78e59182d350 -->
<g id="edge24" class="edge">
<title>ast.Slice object at 0x78e59182e810&#45;&gt;ast.UnaryOp object at 0x78e59182d350</title>
<path fill="none" stroke="black" d="M1762.89,-215.7C1763.33,-207.98 1763.86,-198.71 1764.35,-190.11"/>
<polygon fill="black" stroke="black" points="1767.85,-190.29 1764.93,-180.1 1760.86,-189.89 1767.85,-190.29"/>
</g>
<!-- ast.USub object at 0x78e5d6baac10 -->
<g id="node23" class="node">
<title>ast.USub object at 0x78e5d6baac10</title>
<path fill="#66cdaa" stroke="black" d="M1857.9,-108C1857.9,-108 1827.9,-108 1827.9,-108 1821.9,-108 1815.9,-102 1815.9,-96 1815.9,-96 1815.9,-84 1815.9,-84 1815.9,-78 1821.9,-72 1827.9,-72 1827.9,-72 1857.9,-72 1857.9,-72 1863.9,-72 1869.9,-78 1869.9,-84 1869.9,-84 1869.9,-96 1869.9,-96 1869.9,-102 1863.9,-108 1857.9,-108"/>
<text text-anchor="middle" x="1842.9" y="-86.3" font-family="Times,serif" font-size="14.00">USub</text>
</g>
<!-- ast.UnaryOp object at 0x78e59182d350&#45;&gt;ast.USub object at 0x78e5d6baac10 -->
<g id="edge25" class="edge">
<title>ast.UnaryOp object at 0x78e59182d350&#45;&gt;ast.USub object at 0x78e5d6baac10</title>
<path fill="none" stroke="black" d="M1784.94,-143.7C1794.45,-135.05 1806.11,-124.45 1816.47,-115.03"/>
<polygon fill="black" stroke="black" points="1819.04,-117.42 1824.09,-108.1 1814.34,-112.24 1819.04,-117.42"/>
</g>
<!-- ast.Constant object at 0x78e599daa610 -->
<g id="node24" class="node">
<title>ast.Constant object at 0x78e599daa610</title>
<path fill="#66cdaa" stroke="black" d="M1785.4,-108C1785.4,-108 1744.4,-108 1744.4,-108 1738.4,-108 1732.4,-102 1732.4,-96 1732.4,-96 1732.4,-84 1732.4,-84 1732.4,-78 1738.4,-72 1744.4,-72 1744.4,-72 1785.4,-72 1785.4,-72 1791.4,-72 1797.4,-78 1797.4,-84 1797.4,-84 1797.4,-96 1797.4,-96 1797.4,-102 1791.4,-108 1785.4,-108"/>
<text text-anchor="middle" x="1764.9" y="-86.3" font-family="Times,serif" font-size="14.00">Constant</text>
</g>
<!-- ast.UnaryOp object at 0x78e59182d350&#45;&gt;ast.Constant object at 0x78e599daa610 -->
<g id="edge26" class="edge">
<title>ast.UnaryOp object at 0x78e59182d350&#45;&gt;ast.Constant object at 0x78e599daa610</title>
<path fill="none" stroke="black" d="M1765.66,-143.7C1765.55,-135.98 1765.41,-126.71 1765.29,-118.11"/>
<polygon fill="black" stroke="black" points="1768.79,-118.05 1765.15,-108.1 1761.79,-118.15 1768.79,-118.05"/>
</g>
<!-- ast.Name object at 0x78e591877a90 -->
<g id="node26" class="node">
<title>ast.Name object at 0x78e591877a90</title>
<path fill="#66cdaa" stroke="black" d="M532.9,-468C532.9,-468 502.9,-468 502.9,-468 496.9,-468 490.9,-462 490.9,-456 490.9,-456 490.9,-444 490.9,-444 490.9,-438 496.9,-432 502.9,-432 502.9,-432 532.9,-432 532.9,-432 538.9,-432 544.9,-438 544.9,-444 544.9,-444 544.9,-456 544.9,-456 544.9,-462 538.9,-468 532.9,-468"/>
<text text-anchor="middle" x="517.9" y="-446.3" font-family="Times,serif" font-size="14.00">Name</text>
</g>
<!-- ast.Assign object at 0x78e599da9ad0&#45;&gt;ast.Name object at 0x78e591877a90 -->
<g id="edge29" class="edge">
<title>ast.Assign object at 0x78e599da9ad0&#45;&gt;ast.Name object at 0x78e591877a90</title>
<path fill="none" stroke="black" d="M619.86,-506.33C600.68,-495.92 574.74,-481.84 553.83,-470.49"/>
<polygon fill="black" stroke="black" points="555.37,-467.35 544.91,-465.65 552.03,-473.5 555.37,-467.35"/>
</g>
<!-- ast.ListComp object at 0x78e591875450 -->
<g id="node28" class="node">
<title>ast.ListComp object at 0x78e591875450</title>
<path fill="#66cdaa" stroke="black" d="M356.4,-468C356.4,-468 309.4,-468 309.4,-468 303.4,-468 297.4,-462 297.4,-456 297.4,-456 297.4,-444 297.4,-444 297.4,-438 303.4,-432 309.4,-432 309.4,-432 356.4,-432 356.4,-432 362.4,-432 368.4,-438 368.4,-444 368.4,-444 368.4,-456 368.4,-456 368.4,-462 362.4,-468 356.4,-468"/>
<text text-anchor="middle" x="332.9" y="-446.3" font-family="Times,serif" font-size="14.00">ListComp</text>
</g>
<!-- ast.Assign object at 0x78e599da9ad0&#45;&gt;ast.ListComp object at 0x78e591875450 -->
<g id="edge31" class="edge">
<title>ast.Assign object at 0x78e599da9ad0&#45;&gt;ast.ListComp object at 0x78e591875450</title>
<path fill="none" stroke="black" d="M619.68,-507.27C616.76,-506.06 613.8,-504.94 610.9,-504 531.3,-478.08 434.5,-463.18 378.67,-456.12"/>
<polygon fill="black" stroke="black" points="379.09,-452.65 368.73,-454.89 378.23,-459.59 379.09,-452.65"/>
</g>
<!-- ast.Store object at 0x78e5d6ba9e10 -->
<g id="node27" class="node">
<title>ast.Store object at 0x78e5d6ba9e10</title>
<path fill="#66cdaa" stroke="black" d="M588.9,-252C588.9,-252 558.9,-252 558.9,-252 552.9,-252 546.9,-246 546.9,-240 546.9,-240 546.9,-228 546.9,-228 546.9,-222 552.9,-216 558.9,-216 558.9,-216 588.9,-216 588.9,-216 594.9,-216 600.9,-222 600.9,-228 600.9,-228 600.9,-240 600.9,-240 600.9,-246 594.9,-252 588.9,-252"/>
<text text-anchor="middle" x="573.9" y="-230.3" font-family="Times,serif" font-size="14.00">Store</text>
</g>
<!-- ast.Name object at 0x78e591877a90&#45;&gt;ast.Store object at 0x78e5d6ba9e10 -->
<g id="edge30" class="edge">
<title>ast.Name object at 0x78e591877a90&#45;&gt;ast.Store object at 0x78e5d6ba9e10</title>
<path fill="none" stroke="black" d="M519.13,-431.64C521.65,-401.64 528.67,-338.47 545.9,-288 549.03,-278.84 553.58,-269.34 558.11,-260.96"/>
<polygon fill="black" stroke="black" points="561.27,-262.48 563.13,-252.05 555.17,-259.04 561.27,-262.48"/>
</g>
<!-- ast.Name object at 0x78e591877450 -->
<g id="node29" class="node">
<title>ast.Name object at 0x78e591877450</title>
<path fill="#66cdaa" stroke="black" d="M91.9,-324C91.9,-324 61.9,-324 61.9,-324 55.9,-324 49.9,-318 49.9,-312 49.9,-312 49.9,-300 49.9,-300 49.9,-294 55.9,-288 61.9,-288 61.9,-288 91.9,-288 91.9,-288 97.9,-288 103.9,-294 103.9,-300 103.9,-300 103.9,-312 103.9,-312 103.9,-318 97.9,-324 91.9,-324"/>
<text text-anchor="middle" x="76.9" y="-302.3" font-family="Times,serif" font-size="14.00">Name</text>
</g>
<!-- ast.ListComp object at 0x78e591875450&#45;&gt;ast.Name object at 0x78e591877450 -->
<g id="edge32" class="edge">
<title>ast.ListComp object at 0x78e591875450&#45;&gt;ast.Name object at 0x78e591877450</title>
<path fill="none" stroke="black" d="M302.02,-431.87C254.45,-405.48 163.46,-355.01 112.94,-326.99"/>
<polygon fill="black" stroke="black" points="114.44,-323.82 104,-322.03 111.05,-329.94 114.44,-323.82"/>
</g>
<!-- ast.comprehension object at 0x78e5914e3c50 -->
<g id="node30" class="node">
<title>ast.comprehension object at 0x78e5914e3c50</title>
<path fill="#66cdaa" stroke="black" d="M370.9,-396C370.9,-396 294.9,-396 294.9,-396 288.9,-396 282.9,-390 282.9,-384 282.9,-384 282.9,-372 282.9,-372 282.9,-366 288.9,-360 294.9,-360 294.9,-360 370.9,-360 370.9,-360 376.9,-360 382.9,-366 382.9,-372 382.9,-372 382.9,-384 382.9,-384 382.9,-390 376.9,-396 370.9,-396"/>
<text text-anchor="middle" x="332.9" y="-374.3" font-family="Times,serif" font-size="14.00">comprehension</text>
</g>
<!-- ast.ListComp object at 0x78e591875450&#45;&gt;ast.comprehension object at 0x78e5914e3c50 -->
<g id="edge34" class="edge">
<title>ast.ListComp object at 0x78e591875450&#45;&gt;ast.comprehension object at 0x78e5914e3c50</title>
<path fill="none" stroke="black" d="M332.9,-431.7C332.9,-423.98 332.9,-414.71 332.9,-406.11"/>
<polygon fill="black" stroke="black" points="336.4,-406.1 332.9,-396.1 329.4,-406.1 336.4,-406.1"/>
</g>
<!-- ast.Name object at 0x78e591877450&#45;&gt;ast.Load object at 0x78e5d6ba9d90 -->
<g id="edge33" class="edge">
<title>ast.Name object at 0x78e591877450&#45;&gt;ast.Load object at 0x78e5d6ba9d90</title>
<path fill="none" stroke="black" d="M63.95,-287.71C33.66,-245.06 -35.03,-133.8 22.9,-72 50.03,-43.07 648.85,-24.41 805.62,-20"/>
<polygon fill="black" stroke="black" points="805.81,-23.5 815.71,-19.72 805.62,-16.5 805.81,-23.5"/>
</g>
<!-- ast.Name object at 0x78e5918d1090 -->
<g id="node31" class="node">
<title>ast.Name object at 0x78e5918d1090</title>
<path fill="#66cdaa" stroke="black" d="M426.9,-324C426.9,-324 396.9,-324 396.9,-324 390.9,-324 384.9,-318 384.9,-312 384.9,-312 384.9,-300 384.9,-300 384.9,-294 390.9,-288 396.9,-288 396.9,-288 426.9,-288 426.9,-288 432.9,-288 438.9,-294 438.9,-300 438.9,-300 438.9,-312 438.9,-312 438.9,-318 432.9,-324 426.9,-324"/>
<text text-anchor="middle" x="411.9" y="-302.3" font-family="Times,serif" font-size="14.00">Name</text>
</g>
<!-- ast.comprehension object at 0x78e5914e3c50&#45;&gt;ast.Name object at 0x78e5918d1090 -->
<g id="edge35" class="edge">
<title>ast.comprehension object at 0x78e5914e3c50&#45;&gt;ast.Name object at 0x78e5918d1090</title>
<path fill="none" stroke="black" d="M352.43,-359.7C362.29,-350.97 374.39,-340.24 385.1,-330.75"/>
<polygon fill="black" stroke="black" points="387.44,-333.36 392.6,-324.1 382.79,-328.12 387.44,-333.36"/>
</g>
<!-- ast.Subscript object at 0x78e5918d1890 -->
<g id="node32" class="node">
<title>ast.Subscript object at 0x78e5918d1890</title>
<path fill="#66cdaa" stroke="black" d="M179.9,-180C179.9,-180 135.9,-180 135.9,-180 129.9,-180 123.9,-174 123.9,-168 123.9,-168 123.9,-156 123.9,-156 123.9,-150 129.9,-144 135.9,-144 135.9,-144 179.9,-144 179.9,-144 185.9,-144 191.9,-150 191.9,-156 191.9,-156 191.9,-168 191.9,-168 191.9,-174 185.9,-180 179.9,-180"/>
<text text-anchor="middle" x="157.9" y="-158.3" font-family="Times,serif" font-size="14.00">Subscript</text>
</g>
<!-- ast.comprehension object at 0x78e5914e3c50&#45;&gt;ast.Subscript object at 0x78e5918d1890 -->
<g id="edge37" class="edge">
<title>ast.comprehension object at 0x78e5914e3c50&#45;&gt;ast.Subscript object at 0x78e5918d1890</title>
<path fill="none" stroke="black" d="M318.88,-359.85C288.1,-322.21 214.49,-232.2 178.47,-188.15"/>
<polygon fill="black" stroke="black" points="181.04,-185.76 172,-180.23 175.62,-190.19 181.04,-185.76"/>
</g>
<!-- ast.Call object at 0x78e591830810 -->
<g id="node36" class="node">
<title>ast.Call object at 0x78e591830810</title>
<path fill="#66cdaa" stroke="black" d="M347.9,-252C347.9,-252 317.9,-252 317.9,-252 311.9,-252 305.9,-246 305.9,-240 305.9,-240 305.9,-228 305.9,-228 305.9,-222 311.9,-216 317.9,-216 317.9,-216 347.9,-216 347.9,-216 353.9,-216 359.9,-222 359.9,-228 359.9,-228 359.9,-240 359.9,-240 359.9,-246 353.9,-252 347.9,-252"/>
<text text-anchor="middle" x="332.9" y="-230.3" font-family="Times,serif" font-size="14.00">Call</text>
</g>
<!-- ast.comprehension object at 0x78e5914e3c50&#45;&gt;ast.Call object at 0x78e591830810 -->
<g id="edge43" class="edge">
<title>ast.comprehension object at 0x78e5914e3c50&#45;&gt;ast.Call object at 0x78e591830810</title>
<path fill="none" stroke="black" d="M332.9,-359.87C332.9,-335.67 332.9,-291.21 332.9,-262.39"/>
<polygon fill="black" stroke="black" points="336.4,-262.19 332.9,-252.19 329.4,-262.19 336.4,-262.19"/>
</g>
<!-- ast.Name object at 0x78e5918d1090&#45;&gt;ast.Store object at 0x78e5d6ba9e10 -->
<g id="edge36" class="edge">
<title>ast.Name object at 0x78e5918d1090&#45;&gt;ast.Store object at 0x78e5d6ba9e10</title>
<path fill="none" stroke="black" d="M439.02,-293.28C466,-281.62 507.59,-263.65 537.45,-250.75"/>
<polygon fill="black" stroke="black" points="538.91,-253.93 546.7,-246.75 536.13,-247.51 538.91,-253.93"/>
</g>
<!-- ast.Subscript object at 0x78e5918d1890&#45;&gt;ast.Load object at 0x78e5d6ba9d90 -->
<g id="edge42" class="edge">
<title>ast.Subscript object at 0x78e5918d1890&#45;&gt;ast.Load object at 0x78e5d6ba9d90</title>
<path fill="none" stroke="black" d="M161.66,-143.89C167.23,-123.05 179.83,-88.57 204.9,-72 255.07,-38.85 676.37,-23.87 805.46,-20.03"/>
<polygon fill="black" stroke="black" points="805.74,-23.53 815.64,-19.73 805.54,-16.53 805.74,-23.53"/>
</g>
<!-- ast.Name object at 0x78e5918d1790 -->
<g id="node33" class="node">
<title>ast.Name object at 0x78e5918d1790</title>
<path fill="#66cdaa" stroke="black" d="M145.9,-108C145.9,-108 115.9,-108 115.9,-108 109.9,-108 103.9,-102 103.9,-96 103.9,-96 103.9,-84 103.9,-84 103.9,-78 109.9,-72 115.9,-72 115.9,-72 145.9,-72 145.9,-72 151.9,-72 157.9,-78 157.9,-84 157.9,-84 157.9,-96 157.9,-96 157.9,-102 151.9,-108 145.9,-108"/>
<text text-anchor="middle" x="130.9" y="-86.3" font-family="Times,serif" font-size="14.00">Name</text>
</g>
<!-- ast.Subscript object at 0x78e5918d1890&#45;&gt;ast.Name object at 0x78e5918d1790 -->
<g id="edge38" class="edge">
<title>ast.Subscript object at 0x78e5918d1890&#45;&gt;ast.Name object at 0x78e5918d1790</title>
<path fill="none" stroke="black" d="M151.23,-143.7C148.19,-135.81 144.52,-126.3 141.14,-117.55"/>
<polygon fill="black" stroke="black" points="144.37,-116.17 137.5,-108.1 137.83,-118.69 144.37,-116.17"/>
</g>
<!-- ast.Slice object at 0x78e5918310d0 -->
<g id="node34" class="node">
<title>ast.Slice object at 0x78e5918310d0</title>
<path fill="#66cdaa" stroke="black" d="M73.9,-108C73.9,-108 43.9,-108 43.9,-108 37.9,-108 31.9,-102 31.9,-96 31.9,-96 31.9,-84 31.9,-84 31.9,-78 37.9,-72 43.9,-72 43.9,-72 73.9,-72 73.9,-72 79.9,-72 85.9,-78 85.9,-84 85.9,-84 85.9,-96 85.9,-96 85.9,-102 79.9,-108 73.9,-108"/>
<text text-anchor="middle" x="58.9" y="-86.3" font-family="Times,serif" font-size="14.00">Slice</text>
</g>
<!-- ast.Subscript object at 0x78e5918d1890&#45;&gt;ast.Slice object at 0x78e5918310d0 -->
<g id="edge40" class="edge">
<title>ast.Subscript object at 0x78e5918d1890&#45;&gt;ast.Slice object at 0x78e5918310d0</title>
<path fill="none" stroke="black" d="M133.69,-143.88C120.98,-134.89 105.24,-123.76 91.48,-114.03"/>
<polygon fill="black" stroke="black" points="93.4,-111.11 83.22,-108.19 89.36,-116.82 93.4,-111.11"/>
</g>
<!-- ast.Name object at 0x78e5918d1790&#45;&gt;ast.Load object at 0x78e5d6ba9d90 -->
<g id="edge39" class="edge">
<title>ast.Name object at 0x78e5918d1790&#45;&gt;ast.Load object at 0x78e5d6ba9d90</title>
<path fill="none" stroke="black" d="M158.3,-76.26C162.77,-74.59 167.41,-73.08 171.9,-72 293.9,-42.67 683.37,-25.25 805.74,-20.4"/>
<polygon fill="black" stroke="black" points="805.89,-23.9 815.75,-20.01 805.62,-16.9 805.89,-23.9"/>
</g>
<!-- ast.Constant object at 0x78e591831150 -->
<g id="node35" class="node">
<title>ast.Constant object at 0x78e591831150</title>
<path fill="#66cdaa" stroke="black" d="M79.4,-36C79.4,-36 38.4,-36 38.4,-36 32.4,-36 26.4,-30 26.4,-24 26.4,-24 26.4,-12 26.4,-12 26.4,-6 32.4,0 38.4,0 38.4,0 79.4,0 79.4,0 85.4,0 91.4,-6 91.4,-12 91.4,-12 91.4,-24 91.4,-24 91.4,-30 85.4,-36 79.4,-36"/>
<text text-anchor="middle" x="58.9" y="-14.3" font-family="Times,serif" font-size="14.00">Constant</text>
</g>
<!-- ast.Slice object at 0x78e5918310d0&#45;&gt;ast.Constant object at 0x78e591831150 -->
<g id="edge41" class="edge">
<title>ast.Slice object at 0x78e5918310d0&#45;&gt;ast.Constant object at 0x78e591831150</title>
<path fill="none" stroke="black" d="M58.9,-71.7C58.9,-63.98 58.9,-54.71 58.9,-46.11"/>
<polygon fill="black" stroke="black" points="62.4,-46.1 58.9,-36.1 55.4,-46.1 62.4,-46.1"/>
</g>
<!-- ast.Attribute object at 0x78e591830a10 -->
<g id="node37" class="node">
<title>ast.Attribute object at 0x78e591830a10</title>
<path fill="#66cdaa" stroke="black" d="M353.4,-180C353.4,-180 312.4,-180 312.4,-180 306.4,-180 300.4,-174 300.4,-168 300.4,-168 300.4,-156 300.4,-156 300.4,-150 306.4,-144 312.4,-144 312.4,-144 353.4,-144 353.4,-144 359.4,-144 365.4,-150 365.4,-156 365.4,-156 365.4,-168 365.4,-168 365.4,-174 359.4,-180 353.4,-180"/>
<text text-anchor="middle" x="332.9" y="-158.3" font-family="Times,serif" font-size="14.00">Attribute</text>
</g>
<!-- ast.Call object at 0x78e591830810&#45;&gt;ast.Attribute object at 0x78e591830a10 -->
<g id="edge44" class="edge">
<title>ast.Call object at 0x78e591830810&#45;&gt;ast.Attribute object at 0x78e591830a10</title>
<path fill="none" stroke="black" d="M332.9,-215.7C332.9,-207.98 332.9,-198.71 332.9,-190.11"/>
<polygon fill="black" stroke="black" points="336.4,-190.1 332.9,-180.1 329.4,-190.1 336.4,-190.1"/>
</g>
<!-- ast.Attribute object at 0x78e591830a10&#45;&gt;ast.Load object at 0x78e5d6ba9d90 -->
<g id="edge47" class="edge">
<title>ast.Attribute object at 0x78e591830a10&#45;&gt;ast.Load object at 0x78e5d6ba9d90</title>
<path fill="none" stroke="black" d="M325.22,-143.88C317.6,-123.99 309.37,-91.43 326.9,-72 358.91,-36.54 692.26,-23.45 805.5,-20.01"/>
<polygon fill="black" stroke="black" points="805.86,-23.5 815.75,-19.71 805.65,-16.51 805.86,-23.5"/>
</g>
<!-- ast.Name object at 0x78e591830e50 -->
<g id="node38" class="node">
<title>ast.Name object at 0x78e591830e50</title>
<path fill="#66cdaa" stroke="black" d="M377.9,-108C377.9,-108 347.9,-108 347.9,-108 341.9,-108 335.9,-102 335.9,-96 335.9,-96 335.9,-84 335.9,-84 335.9,-78 341.9,-72 347.9,-72 347.9,-72 377.9,-72 377.9,-72 383.9,-72 389.9,-78 389.9,-84 389.9,-84 389.9,-96 389.9,-96 389.9,-102 383.9,-108 377.9,-108"/>
<text text-anchor="middle" x="362.9" y="-86.3" font-family="Times,serif" font-size="14.00">Name</text>
</g>
<!-- ast.Attribute object at 0x78e591830a10&#45;&gt;ast.Name object at 0x78e591830e50 -->
<g id="edge45" class="edge">
<title>ast.Attribute object at 0x78e591830a10&#45;&gt;ast.Name object at 0x78e591830e50</title>
<path fill="none" stroke="black" d="M340.32,-143.7C343.7,-135.81 347.77,-126.3 351.53,-117.55"/>
<polygon fill="black" stroke="black" points="354.85,-118.67 355.57,-108.1 348.42,-115.92 354.85,-118.67"/>
</g>
<!-- ast.Name object at 0x78e591830e50&#45;&gt;ast.Load object at 0x78e5d6ba9d90 -->
<g id="edge46" class="edge">
<title>ast.Name object at 0x78e591830e50&#45;&gt;ast.Load object at 0x78e5d6ba9d90</title>
<path fill="none" stroke="black" d="M390.07,-75.06C393,-73.89 395.98,-72.84 398.9,-72 545.33,-29.89 728.21,-21.2 805.58,-19.43"/>
<polygon fill="black" stroke="black" points="805.86,-22.93 815.79,-19.23 805.72,-15.93 805.86,-22.93"/>
</g>
<!-- ast.Name object at 0x78e599dd2110 -->
<g id="node40" class="node">
<title>ast.Name object at 0x78e599dd2110</title>
<path fill="#66cdaa" stroke="black" d="M973.9,-324C973.9,-324 943.9,-324 943.9,-324 937.9,-324 931.9,-318 931.9,-312 931.9,-312 931.9,-300 931.9,-300 931.9,-294 937.9,-288 943.9,-288 943.9,-288 973.9,-288 973.9,-288 979.9,-288 985.9,-294 985.9,-300 985.9,-300 985.9,-312 985.9,-312 985.9,-318 979.9,-324 973.9,-324"/>
<text text-anchor="middle" x="958.9" y="-302.3" font-family="Times,serif" font-size="14.00">Name</text>
</g>
<!-- ast.Assign object at 0x78e591830f90&#45;&gt;ast.Name object at 0x78e599dd2110 -->
<g id="edge49" class="edge">
<title>ast.Assign object at 0x78e591830f90&#45;&gt;ast.Name object at 0x78e599dd2110</title>
<path fill="none" stroke="black" d="M1113.9,-363.92C1110.88,-362.55 1107.84,-361.22 1104.9,-360 1068.23,-344.72 1025.4,-329.47 995.66,-319.28"/>
<polygon fill="black" stroke="black" points="996.7,-315.94 986.1,-316.03 994.44,-322.56 996.7,-315.94"/>
</g>
<!-- ast.Call object at 0x78e599dd1a50 -->
<g id="node41" class="node">
<title>ast.Call object at 0x78e599dd1a50</title>
<path fill="#66cdaa" stroke="black" d="M1333.9,-180C1333.9,-180 1303.9,-180 1303.9,-180 1297.9,-180 1291.9,-174 1291.9,-168 1291.9,-168 1291.9,-156 1291.9,-156 1291.9,-150 1297.9,-144 1303.9,-144 1303.9,-144 1333.9,-144 1333.9,-144 1339.9,-144 1345.9,-150 1345.9,-156 1345.9,-156 1345.9,-168 1345.9,-168 1345.9,-174 1339.9,-180 1333.9,-180"/>
<text text-anchor="middle" x="1318.9" y="-158.3" font-family="Times,serif" font-size="14.00">Call</text>
</g>
<!-- ast.Assign object at 0x78e591830f90&#45;&gt;ast.Call object at 0x78e599dd1a50 -->
<g id="edge51" class="edge">
<title>ast.Assign object at 0x78e591830f90&#45;&gt;ast.Call object at 0x78e599dd1a50</title>
<path fill="none" stroke="black" d="M1155.17,-359.85C1186.48,-322.21 1261.34,-232.2 1297.98,-188.15"/>
<polygon fill="black" stroke="black" points="1300.87,-190.16 1304.57,-180.23 1295.48,-185.68 1300.87,-190.16"/>
</g>
<!-- ast.Name object at 0x78e599dd2110&#45;&gt;ast.Store object at 0x78e5d6ba9e10 -->
<g id="edge50" class="edge">
<title>ast.Name object at 0x78e599dd2110&#45;&gt;ast.Store object at 0x78e5d6ba9e10</title>
<path fill="none" stroke="black" d="M931.57,-298.33C917.64,-295.03 900.42,-291.1 884.9,-288 786.56,-268.34 669.8,-249.69 611.27,-240.66"/>
<polygon fill="black" stroke="black" points="611.45,-237.15 601.04,-239.09 610.39,-244.07 611.45,-237.15"/>
</g>
<!-- ast.Name object at 0x78e599dd3690 -->
<g id="node42" class="node">
<title>ast.Name object at 0x78e599dd3690</title>
<path fill="#66cdaa" stroke="black" d="M1333.9,-108C1333.9,-108 1303.9,-108 1303.9,-108 1297.9,-108 1291.9,-102 1291.9,-96 1291.9,-96 1291.9,-84 1291.9,-84 1291.9,-78 1297.9,-72 1303.9,-72 1303.9,-72 1333.9,-72 1333.9,-72 1339.9,-72 1345.9,-78 1345.9,-84 1345.9,-84 1345.9,-96 1345.9,-96 1345.9,-102 1339.9,-108 1333.9,-108"/>
<text text-anchor="middle" x="1318.9" y="-86.3" font-family="Times,serif" font-size="14.00">Name</text>
</g>
<!-- ast.Call object at 0x78e599dd1a50&#45;&gt;ast.Name object at 0x78e599dd3690 -->
<g id="edge52" class="edge">
<title>ast.Call object at 0x78e599dd1a50&#45;&gt;ast.Name object at 0x78e599dd3690</title>
<path fill="none" stroke="black" d="M1318.9,-143.7C1318.9,-135.98 1318.9,-126.71 1318.9,-118.11"/>
<polygon fill="black" stroke="black" points="1322.4,-118.1 1318.9,-108.1 1315.4,-118.1 1322.4,-118.1"/>
</g>
<!-- ast.Name object at 0x78e599dd13d0 -->
<g id="node43" class="node">
<title>ast.Name object at 0x78e599dd13d0</title>
<path fill="#66cdaa" stroke="black" d="M1405.9,-108C1405.9,-108 1375.9,-108 1375.9,-108 1369.9,-108 1363.9,-102 1363.9,-96 1363.9,-96 1363.9,-84 1363.9,-84 1363.9,-78 1369.9,-72 1375.9,-72 1375.9,-72 1405.9,-72 1405.9,-72 1411.9,-72 1417.9,-78 1417.9,-84 1417.9,-84 1417.9,-96 1417.9,-96 1417.9,-102 1411.9,-108 1405.9,-108"/>
<text text-anchor="middle" x="1390.9" y="-86.3" font-family="Times,serif" font-size="14.00">Name</text>
</g>
<!-- ast.Call object at 0x78e599dd1a50&#45;&gt;ast.Name object at 0x78e599dd13d0 -->
<g id="edge54" class="edge">
<title>ast.Call object at 0x78e599dd1a50&#45;&gt;ast.Name object at 0x78e599dd13d0</title>
<path fill="none" stroke="black" d="M1336.7,-143.7C1345.51,-135.14 1356.29,-124.66 1365.91,-115.3"/>
<polygon fill="black" stroke="black" points="1368.58,-117.58 1373.31,-108.1 1363.7,-112.57 1368.58,-117.58"/>
</g>
<!-- ast.Name object at 0x78e599dd3690&#45;&gt;ast.Load object at 0x78e5d6ba9d90 -->
<g id="edge53" class="edge">
<title>ast.Name object at 0x78e599dd3690&#45;&gt;ast.Load object at 0x78e5d6ba9d90</title>
<path fill="none" stroke="black" d="M1291.47,-76.43C1287,-74.73 1282.38,-73.18 1277.9,-72 1134.02,-34.16 956.13,-23.21 880.14,-20.14"/>
<polygon fill="black" stroke="black" points="880.24,-16.64 870.11,-19.76 879.97,-23.64 880.24,-16.64"/>
</g>
<!-- ast.Name object at 0x78e599dd13d0&#45;&gt;ast.Load object at 0x78e5d6ba9d90 -->
<g id="edge55" class="edge">
<title>ast.Name object at 0x78e599dd13d0&#45;&gt;ast.Load object at 0x78e5d6ba9d90</title>
<path fill="none" stroke="black" d="M1363.76,-75.02C1360.82,-73.86 1357.83,-72.82 1354.9,-72 1182.21,-23.8 965.73,-18.6 880.16,-18.6"/>
<polygon fill="black" stroke="black" points="880.14,-15.1 870.15,-18.63 880.16,-22.1 880.14,-15.1"/>
</g>
<!-- ast.Name object at 0x78e599d3ce10 -->
<g id="node45" class="node">
<title>ast.Name object at 0x78e599d3ce10</title>
<path fill="#66cdaa" stroke="black" d="M863.9,-324C863.9,-324 833.9,-324 833.9,-324 827.9,-324 821.9,-318 821.9,-312 821.9,-312 821.9,-300 821.9,-300 821.9,-294 827.9,-288 833.9,-288 833.9,-288 863.9,-288 863.9,-288 869.9,-288 875.9,-294 875.9,-300 875.9,-300 875.9,-312 875.9,-312 875.9,-318 869.9,-324 863.9,-324"/>
<text text-anchor="middle" x="848.9" y="-302.3" font-family="Times,serif" font-size="14.00">Name</text>
</g>
<!-- ast.Assign object at 0x78e5919e2d50&#45;&gt;ast.Name object at 0x78e599d3ce10 -->
<g id="edge57" class="edge">
<title>ast.Assign object at 0x78e5919e2d50&#45;&gt;ast.Name object at 0x78e599d3ce10</title>
<path fill="none" stroke="black" d="M1041.49,-368.28C1002.16,-355.76 929.65,-332.69 885.7,-318.71"/>
<polygon fill="black" stroke="black" points="886.57,-315.31 875.98,-315.61 884.44,-321.98 886.57,-315.31"/>
</g>
<!-- ast.Call object at 0x78e599d3c4d0 -->
<g id="node46" class="node">
<title>ast.Call object at 0x78e599d3c4d0</title>
<path fill="#66cdaa" stroke="black" d="M1123.9,-324C1123.9,-324 1093.9,-324 1093.9,-324 1087.9,-324 1081.9,-318 1081.9,-312 1081.9,-312 1081.9,-300 1081.9,-300 1081.9,-294 1087.9,-288 1093.9,-288 1093.9,-288 1123.9,-288 1123.9,-288 1129.9,-288 1135.9,-294 1135.9,-300 1135.9,-300 1135.9,-312 1135.9,-312 1135.9,-318 1129.9,-324 1123.9,-324"/>
<text text-anchor="middle" x="1108.9" y="-302.3" font-family="Times,serif" font-size="14.00">Call</text>
</g>
<!-- ast.Assign object at 0x78e5919e2d50&#45;&gt;ast.Call object at 0x78e599d3c4d0 -->
<g id="edge59" class="edge">
<title>ast.Assign object at 0x78e5919e2d50&#45;&gt;ast.Call object at 0x78e599d3c4d0</title>
<path fill="none" stroke="black" d="M1078.79,-359.7C1083.39,-351.64 1088.96,-341.89 1094.06,-332.98"/>
<polygon fill="black" stroke="black" points="1097.21,-334.52 1099.13,-324.1 1091.13,-331.05 1097.21,-334.52"/>
</g>
<!-- ast.Name object at 0x78e599d3ce10&#45;&gt;ast.Store object at 0x78e5d6ba9e10 -->
<g id="edge58" class="edge">
<title>ast.Name object at 0x78e599d3ce10&#45;&gt;ast.Store object at 0x78e5d6ba9e10</title>
<path fill="none" stroke="black" d="M821.65,-291.36C818.73,-290.13 815.78,-288.98 812.9,-288 743.37,-264.21 658.72,-248.37 611.11,-240.6"/>
<polygon fill="black" stroke="black" points="611.39,-237.11 600.96,-238.98 610.28,-244.02 611.39,-237.11"/>
</g>
<!-- ast.Name object at 0x78e599d3c810 -->
<g id="node47" class="node">
<title>ast.Name object at 0x78e599d3c810</title>
<path fill="#66cdaa" stroke="black" d="M1184.9,-252C1184.9,-252 1154.9,-252 1154.9,-252 1148.9,-252 1142.9,-246 1142.9,-240 1142.9,-240 1142.9,-228 1142.9,-228 1142.9,-222 1148.9,-216 1154.9,-216 1154.9,-216 1184.9,-216 1184.9,-216 1190.9,-216 1196.9,-222 1196.9,-228 1196.9,-228 1196.9,-240 1196.9,-240 1196.9,-246 1190.9,-252 1184.9,-252"/>
<text text-anchor="middle" x="1169.9" y="-230.3" font-family="Times,serif" font-size="14.00">Name</text>
</g>
<!-- ast.Call object at 0x78e599d3c4d0&#45;&gt;ast.Name object at 0x78e599d3c810 -->
<g id="edge60" class="edge">
<title>ast.Call object at 0x78e599d3c4d0&#45;&gt;ast.Name object at 0x78e599d3c810</title>
<path fill="none" stroke="black" d="M1123.98,-287.7C1131.3,-279.3 1140.21,-269.07 1148.24,-259.86"/>
<polygon fill="black" stroke="black" points="1151.07,-261.94 1155,-252.1 1145.79,-257.34 1151.07,-261.94"/>
</g>
<!-- ast.Name object at 0x78e599d3c810&#45;&gt;ast.Load object at 0x78e5d6ba9d90 -->
<g id="edge61" class="edge">
<title>ast.Name object at 0x78e599d3c810&#45;&gt;ast.Load object at 0x78e5d6ba9d90</title>
<path fill="none" stroke="black" d="M1189.02,-215.93C1222.06,-184.41 1282.73,-116.3 1243.9,-72 1220.06,-44.8 974.87,-27.05 880.05,-21.16"/>
<polygon fill="black" stroke="black" points="880.24,-17.67 870.04,-20.55 879.81,-24.65 880.24,-17.67"/>
</g>
<!-- ast.Name object at 0x78e599d6cc90 -->
<g id="node49" class="node">
<title>ast.Name object at 0x78e599d6cc90</title>
<path fill="#66cdaa" stroke="black" d="M624.9,-468C624.9,-468 594.9,-468 594.9,-468 588.9,-468 582.9,-462 582.9,-456 582.9,-456 582.9,-444 582.9,-444 582.9,-438 588.9,-432 594.9,-432 594.9,-432 624.9,-432 624.9,-432 630.9,-432 636.9,-438 636.9,-444 636.9,-444 636.9,-456 636.9,-456 636.9,-462 630.9,-468 624.9,-468"/>
<text text-anchor="middle" x="609.9" y="-446.3" font-family="Times,serif" font-size="14.00">Name</text>
</g>
<!-- ast.For object at 0x78e599d45050&#45;&gt;ast.Name object at 0x78e599d6cc90 -->
<g id="edge63" class="edge">
<title>ast.For object at 0x78e599d45050&#45;&gt;ast.Name object at 0x78e599d6cc90</title>
<path fill="none" stroke="black" d="M840.78,-513.64C794.33,-501.04 699.48,-475.3 646.96,-461.05"/>
<polygon fill="black" stroke="black" points="647.62,-457.61 637.05,-458.37 645.79,-464.36 647.62,-457.61"/>
</g>
<!-- ast.Call object at 0x78e599d6e390 -->
<g id="node50" class="node">
<title>ast.Call object at 0x78e599d6e390</title>
<path fill="#66cdaa" stroke="black" d="M1047.9,-252C1047.9,-252 1017.9,-252 1017.9,-252 1011.9,-252 1005.9,-246 1005.9,-240 1005.9,-240 1005.9,-228 1005.9,-228 1005.9,-222 1011.9,-216 1017.9,-216 1017.9,-216 1047.9,-216 1047.9,-216 1053.9,-216 1059.9,-222 1059.9,-228 1059.9,-228 1059.9,-240 1059.9,-240 1059.9,-246 1053.9,-252 1047.9,-252"/>
<text text-anchor="middle" x="1032.9" y="-230.3" font-family="Times,serif" font-size="14.00">Call</text>
</g>
<!-- ast.For object at 0x78e599d45050&#45;&gt;ast.Call object at 0x78e599d6e390 -->
<g id="edge65" class="edge">
<title>ast.For object at 0x78e599d45050&#45;&gt;ast.Call object at 0x78e599d6e390</title>
<path fill="none" stroke="black" d="M880.31,-503.94C904.32,-470.51 957.98,-393.55 994.9,-324 1005.69,-303.69 1015.81,-279.65 1022.88,-261.68"/>
<polygon fill="black" stroke="black" points="1026.24,-262.72 1026.59,-252.13 1019.71,-260.19 1026.24,-262.72"/>
</g>
<!-- ast.For object at 0x78e599d6d950 -->
<g id="node57" class="node">
<title>ast.For object at 0x78e599d6d950</title>
<path fill="#66cdaa" stroke="black" d="M736.9,-468C736.9,-468 706.9,-468 706.9,-468 700.9,-468 694.9,-462 694.9,-456 694.9,-456 694.9,-444 694.9,-444 694.9,-438 700.9,-432 706.9,-432 706.9,-432 736.9,-432 736.9,-432 742.9,-432 748.9,-438 748.9,-444 748.9,-444 748.9,-456 748.9,-456 748.9,-462 742.9,-468 736.9,-468"/>
<text text-anchor="middle" x="721.9" y="-446.3" font-family="Times,serif" font-size="14.00">For</text>
</g>
<!-- ast.For object at 0x78e599d45050&#45;&gt;ast.For object at 0x78e599d6d950 -->
<g id="edge74" class="edge">
<title>ast.For object at 0x78e599d45050&#45;&gt;ast.For object at 0x78e599d6d950</title>
<path fill="none" stroke="black" d="M840.78,-508C817.58,-496.87 783.96,-480.75 758.39,-468.5"/>
<polygon fill="black" stroke="black" points="759.9,-465.34 749.37,-464.17 756.88,-471.65 759.9,-465.34"/>
</g>
<!-- ast.Name object at 0x78e599d6cc90&#45;&gt;ast.Store object at 0x78e5d6ba9e10 -->
<g id="edge64" class="edge">
<title>ast.Name object at 0x78e599d6cc90&#45;&gt;ast.Store object at 0x78e5d6ba9e10</title>
<path fill="none" stroke="black" d="M585.43,-431.77C574.5,-422.56 562.78,-410.19 556.9,-396 538.56,-351.71 552.2,-294.98 563.35,-262.04"/>
<polygon fill="black" stroke="black" points="566.79,-262.82 566.84,-252.23 560.19,-260.48 566.79,-262.82"/>
</g>
<!-- ast.Name object at 0x78e599d6e110 -->
<g id="node51" class="node">
<title>ast.Name object at 0x78e599d6e110</title>
<path fill="#66cdaa" stroke="black" d="M987.9,-180C987.9,-180 957.9,-180 957.9,-180 951.9,-180 945.9,-174 945.9,-168 945.9,-168 945.9,-156 945.9,-156 945.9,-150 951.9,-144 957.9,-144 957.9,-144 987.9,-144 987.9,-144 993.9,-144 999.9,-150 999.9,-156 999.9,-156 999.9,-168 999.9,-168 999.9,-174 993.9,-180 987.9,-180"/>
<text text-anchor="middle" x="972.9" y="-158.3" font-family="Times,serif" font-size="14.00">Name</text>
</g>
<!-- ast.Call object at 0x78e599d6e390&#45;&gt;ast.Name object at 0x78e599d6e110 -->
<g id="edge66" class="edge">
<title>ast.Call object at 0x78e599d6e390&#45;&gt;ast.Name object at 0x78e599d6e110</title>
<path fill="none" stroke="black" d="M1018.07,-215.7C1010.88,-207.3 1002.11,-197.07 994.21,-187.86"/>
<polygon fill="black" stroke="black" points="996.73,-185.42 987.56,-180.1 991.42,-189.97 996.73,-185.42"/>
</g>
<!-- ast.Constant object at 0x78e599d6f790 -->
<g id="node52" class="node">
<title>ast.Constant object at 0x78e599d6f790</title>
<path fill="#66cdaa" stroke="black" d="M1071.4,-180C1071.4,-180 1030.4,-180 1030.4,-180 1024.4,-180 1018.4,-174 1018.4,-168 1018.4,-168 1018.4,-156 1018.4,-156 1018.4,-150 1024.4,-144 1030.4,-144 1030.4,-144 1071.4,-144 1071.4,-144 1077.4,-144 1083.4,-150 1083.4,-156 1083.4,-156 1083.4,-168 1083.4,-168 1083.4,-174 1077.4,-180 1071.4,-180"/>
<text text-anchor="middle" x="1050.9" y="-158.3" font-family="Times,serif" font-size="14.00">Constant</text>
</g>
<!-- ast.Call object at 0x78e599d6e390&#45;&gt;ast.Constant object at 0x78e599d6f790 -->
<g id="edge68" class="edge">
<title>ast.Call object at 0x78e599d6e390&#45;&gt;ast.Constant object at 0x78e599d6f790</title>
<path fill="none" stroke="black" d="M1037.35,-215.7C1039.36,-207.9 1041.77,-198.51 1044.01,-189.83"/>
<polygon fill="black" stroke="black" points="1047.4,-190.66 1046.51,-180.1 1040.63,-188.92 1047.4,-190.66"/>
</g>
<!-- ast.BinOp object at 0x78e599d6dd50 -->
<g id="node53" class="node">
<title>ast.BinOp object at 0x78e599d6dd50</title>
<path fill="#66cdaa" stroke="black" d="M1143.9,-180C1143.9,-180 1113.9,-180 1113.9,-180 1107.9,-180 1101.9,-174 1101.9,-168 1101.9,-168 1101.9,-156 1101.9,-156 1101.9,-150 1107.9,-144 1113.9,-144 1113.9,-144 1143.9,-144 1143.9,-144 1149.9,-144 1155.9,-150 1155.9,-156 1155.9,-156 1155.9,-168 1155.9,-168 1155.9,-174 1149.9,-180 1143.9,-180"/>
<text text-anchor="middle" x="1128.9" y="-158.3" font-family="Times,serif" font-size="14.00">BinOp</text>
</g>
<!-- ast.Call object at 0x78e599d6e390&#45;&gt;ast.BinOp object at 0x78e599d6dd50 -->
<g id="edge69" class="edge">
<title>ast.Call object at 0x78e599d6e390&#45;&gt;ast.BinOp object at 0x78e599d6dd50</title>
<path fill="none" stroke="black" d="M1056.63,-215.7C1068.84,-206.8 1083.89,-195.82 1097.09,-186.2"/>
<polygon fill="black" stroke="black" points="1099.43,-188.82 1105.45,-180.1 1095.3,-183.17 1099.43,-188.82"/>
</g>
<!-- ast.Name object at 0x78e599d6e110&#45;&gt;ast.Load object at 0x78e5d6ba9d90 -->
<g id="edge67" class="edge">
<title>ast.Name object at 0x78e599d6e110&#45;&gt;ast.Load object at 0x78e5d6ba9d90</title>
<path fill="none" stroke="black" d="M979.87,-143.95C986.5,-124.72 993.5,-93.35 978.9,-72 956.9,-39.81 912.23,-27.17 880.08,-22.21"/>
<polygon fill="black" stroke="black" points="880.5,-18.73 870.12,-20.85 879.56,-25.67 880.5,-18.73"/>
</g>
<!-- ast.Name object at 0x78e599d6fa90 -->
<g id="node54" class="node">
<title>ast.Name object at 0x78e599d6fa90</title>
<path fill="#66cdaa" stroke="black" d="M1067.9,-108C1067.9,-108 1037.9,-108 1037.9,-108 1031.9,-108 1025.9,-102 1025.9,-96 1025.9,-96 1025.9,-84 1025.9,-84 1025.9,-78 1031.9,-72 1037.9,-72 1037.9,-72 1067.9,-72 1067.9,-72 1073.9,-72 1079.9,-78 1079.9,-84 1079.9,-84 1079.9,-96 1079.9,-96 1079.9,-102 1073.9,-108 1067.9,-108"/>
<text text-anchor="middle" x="1052.9" y="-86.3" font-family="Times,serif" font-size="14.00">Name</text>
</g>
<!-- ast.BinOp object at 0x78e599d6dd50&#45;&gt;ast.Name object at 0x78e599d6fa90 -->
<g id="edge70" class="edge">
<title>ast.BinOp object at 0x78e599d6dd50&#45;&gt;ast.Name object at 0x78e599d6fa90</title>
<path fill="none" stroke="black" d="M1110.12,-143.7C1100.73,-135.05 1089.22,-124.45 1078.99,-115.03"/>
<polygon fill="black" stroke="black" points="1081.2,-112.3 1071.47,-108.1 1076.46,-117.45 1081.2,-112.3"/>
</g>
<!-- ast.Add object at 0x78e5d6baa290 -->
<g id="node55" class="node">
<title>ast.Add object at 0x78e5d6baa290</title>
<path fill="#66cdaa" stroke="black" d="M1139.9,-108C1139.9,-108 1109.9,-108 1109.9,-108 1103.9,-108 1097.9,-102 1097.9,-96 1097.9,-96 1097.9,-84 1097.9,-84 1097.9,-78 1103.9,-72 1109.9,-72 1109.9,-72 1139.9,-72 1139.9,-72 1145.9,-72 1151.9,-78 1151.9,-84 1151.9,-84 1151.9,-96 1151.9,-96 1151.9,-102 1145.9,-108 1139.9,-108"/>
<text text-anchor="middle" x="1124.9" y="-86.3" font-family="Times,serif" font-size="14.00">Add</text>
</g>
<!-- ast.BinOp object at 0x78e599d6dd50&#45;&gt;ast.Add object at 0x78e5d6baa290 -->
<g id="edge72" class="edge">
<title>ast.BinOp object at 0x78e599d6dd50&#45;&gt;ast.Add object at 0x78e5d6baa290</title>
<path fill="none" stroke="black" d="M1127.92,-143.7C1127.47,-135.98 1126.94,-126.71 1126.45,-118.11"/>
<polygon fill="black" stroke="black" points="1129.95,-117.89 1125.88,-108.1 1122.96,-118.29 1129.95,-117.89"/>
</g>
<!-- ast.Constant object at 0x78e599d6e350 -->
<g id="node56" class="node">
<title>ast.Constant object at 0x78e599d6e350</title>
<path fill="#66cdaa" stroke="black" d="M1223.4,-108C1223.4,-108 1182.4,-108 1182.4,-108 1176.4,-108 1170.4,-102 1170.4,-96 1170.4,-96 1170.4,-84 1170.4,-84 1170.4,-78 1176.4,-72 1182.4,-72 1182.4,-72 1223.4,-72 1223.4,-72 1229.4,-72 1235.4,-78 1235.4,-84 1235.4,-84 1235.4,-96 1235.4,-96 1235.4,-102 1229.4,-108 1223.4,-108"/>
<text text-anchor="middle" x="1202.9" y="-86.3" font-family="Times,serif" font-size="14.00">Constant</text>
</g>
<!-- ast.BinOp object at 0x78e599d6dd50&#45;&gt;ast.Constant object at 0x78e599d6e350 -->
<g id="edge73" class="edge">
<title>ast.BinOp object at 0x78e599d6dd50&#45;&gt;ast.Constant object at 0x78e599d6e350</title>
<path fill="none" stroke="black" d="M1147.2,-143.7C1156.34,-135.05 1167.54,-124.45 1177.5,-115.03"/>
<polygon fill="black" stroke="black" points="1179.96,-117.52 1184.82,-108.1 1175.15,-112.43 1179.96,-117.52"/>
</g>
<!-- ast.Name object at 0x78e599d6fa90&#45;&gt;ast.Load object at 0x78e5d6ba9d90 -->
<g id="edge71" class="edge">
<title>ast.Name object at 0x78e599d6fa90&#45;&gt;ast.Load object at 0x78e5d6ba9d90</title>
<path fill="none" stroke="black" d="M1025.69,-77.32C1021.11,-75.47 1016.39,-73.63 1011.9,-72 966.92,-55.66 914.17,-39.6 879.72,-29.52"/>
<polygon fill="black" stroke="black" points="880.66,-26.14 870.08,-26.71 878.7,-32.86 880.66,-26.14"/>
</g>
<!-- ast.Name object at 0x78e599d6f950 -->
<g id="node58" class="node">
<title>ast.Name object at 0x78e599d6f950</title>
<path fill="#66cdaa" stroke="black" d="M607.9,-396C607.9,-396 577.9,-396 577.9,-396 571.9,-396 565.9,-390 565.9,-384 565.9,-384 565.9,-372 565.9,-372 565.9,-366 571.9,-360 577.9,-360 577.9,-360 607.9,-360 607.9,-360 613.9,-360 619.9,-366 619.9,-372 619.9,-372 619.9,-384 619.9,-384 619.9,-390 613.9,-396 607.9,-396"/>
<text text-anchor="middle" x="592.9" y="-374.3" font-family="Times,serif" font-size="14.00">Name</text>
</g>
<!-- ast.For object at 0x78e599d6d950&#45;&gt;ast.Name object at 0x78e599d6f950 -->
<g id="edge75" class="edge">
<title>ast.For object at 0x78e599d6d950&#45;&gt;ast.Name object at 0x78e599d6f950</title>
<path fill="none" stroke="black" d="M694.86,-434.33C675.68,-423.92 649.74,-409.84 628.83,-398.49"/>
<polygon fill="black" stroke="black" points="630.37,-395.35 619.91,-393.65 627.03,-401.5 630.37,-395.35"/>
</g>
<!-- ast.Call object at 0x78e599d6f650 -->
<g id="node59" class="node">
<title>ast.Call object at 0x78e599d6f650</title>
<path fill="#66cdaa" stroke="black" d="M620.9,-180C620.9,-180 590.9,-180 590.9,-180 584.9,-180 578.9,-174 578.9,-168 578.9,-168 578.9,-156 578.9,-156 578.9,-150 584.9,-144 590.9,-144 590.9,-144 620.9,-144 620.9,-144 626.9,-144 632.9,-150 632.9,-156 632.9,-156 632.9,-168 632.9,-168 632.9,-174 626.9,-180 620.9,-180"/>
<text text-anchor="middle" x="605.9" y="-158.3" font-family="Times,serif" font-size="14.00">Call</text>
</g>
<!-- ast.For object at 0x78e599d6d950&#45;&gt;ast.Call object at 0x78e599d6f650 -->
<g id="edge77" class="edge">
<title>ast.For object at 0x78e599d6d950&#45;&gt;ast.Call object at 0x78e599d6f650</title>
<path fill="none" stroke="black" d="M718.57,-431.87C714.99,-413.9 709,-384.86 702.9,-360 694.99,-327.75 695.34,-318.8 682.9,-288 669.28,-254.25 663.21,-246.85 643.9,-216 638.14,-206.79 631.35,-197.03 625.12,-188.43"/>
<polygon fill="black" stroke="black" points="627.88,-186.27 619.14,-180.29 622.24,-190.42 627.88,-186.27"/>
</g>
<!-- ast.Assign object at 0x78e599de8850 -->
<g id="node63" class="node">
<title>ast.Assign object at 0x78e599de8850</title>
<path fill="#66cdaa" stroke="black" d="M681.9,-396C681.9,-396 651.9,-396 651.9,-396 645.9,-396 639.9,-390 639.9,-384 639.9,-384 639.9,-372 639.9,-372 639.9,-366 645.9,-360 651.9,-360 651.9,-360 681.9,-360 681.9,-360 687.9,-360 693.9,-366 693.9,-372 693.9,-372 693.9,-384 693.9,-384 693.9,-390 687.9,-396 681.9,-396"/>
<text text-anchor="middle" x="666.9" y="-374.3" font-family="Times,serif" font-size="14.00">Assign</text>
</g>
<!-- ast.For object at 0x78e599d6d950&#45;&gt;ast.Assign object at 0x78e599de8850 -->
<g id="edge84" class="edge">
<title>ast.For object at 0x78e599d6d950&#45;&gt;ast.Assign object at 0x78e599de8850</title>
<path fill="none" stroke="black" d="M708.31,-431.7C701.78,-423.39 693.84,-413.28 686.66,-404.14"/>
<polygon fill="black" stroke="black" points="689.27,-401.81 680.34,-396.1 683.77,-406.13 689.27,-401.81"/>
</g>
<!-- ast.If object at 0x78e5916fa310 -->
<g id="node69" class="node">
<title>ast.If object at 0x78e5916fa310</title>
<path fill="#66cdaa" stroke="black" d="M791.9,-396C791.9,-396 761.9,-396 761.9,-396 755.9,-396 749.9,-390 749.9,-384 749.9,-384 749.9,-372 749.9,-372 749.9,-366 755.9,-360 761.9,-360 761.9,-360 791.9,-360 791.9,-360 797.9,-360 803.9,-366 803.9,-372 803.9,-372 803.9,-384 803.9,-384 803.9,-390 797.9,-396 791.9,-396"/>
<text text-anchor="middle" x="776.9" y="-374.3" font-family="Times,serif" font-size="14.00">If</text>
</g>
<!-- ast.For object at 0x78e599d6d950&#45;&gt;ast.If object at 0x78e5916fa310 -->
<g id="edge93" class="edge">
<title>ast.For object at 0x78e599d6d950&#45;&gt;ast.If object at 0x78e5916fa310</title>
<path fill="none" stroke="black" d="M735.5,-431.7C742.03,-423.39 749.97,-413.28 757.15,-404.14"/>
<polygon fill="black" stroke="black" points="760.04,-406.13 763.46,-396.1 754.53,-401.81 760.04,-406.13"/>
</g>
<!-- ast.Name object at 0x78e599d6f950&#45;&gt;ast.Store object at 0x78e5d6ba9e10 -->
<g id="edge76" class="edge">
<title>ast.Name object at 0x78e599d6f950&#45;&gt;ast.Store object at 0x78e5d6ba9e10</title>
<path fill="none" stroke="black" d="M590.61,-359.87C587.37,-335.67 581.43,-291.21 577.57,-262.39"/>
<polygon fill="black" stroke="black" points="581,-261.64 576.2,-252.19 574.06,-262.57 581,-261.64"/>
</g>
<!-- ast.Name object at 0x78e599de9c10 -->
<g id="node60" class="node">
<title>ast.Name object at 0x78e599de9c10</title>
<path fill="#66cdaa" stroke="black" d="M665.9,-108C665.9,-108 635.9,-108 635.9,-108 629.9,-108 623.9,-102 623.9,-96 623.9,-96 623.9,-84 623.9,-84 623.9,-78 629.9,-72 635.9,-72 635.9,-72 665.9,-72 665.9,-72 671.9,-72 677.9,-78 677.9,-84 677.9,-84 677.9,-96 677.9,-96 677.9,-102 671.9,-108 665.9,-108"/>
<text text-anchor="middle" x="650.9" y="-86.3" font-family="Times,serif" font-size="14.00">Name</text>
</g>
<!-- ast.Call object at 0x78e599d6f650&#45;&gt;ast.Name object at 0x78e599de9c10 -->
<g id="edge78" class="edge">
<title>ast.Call object at 0x78e599d6f650&#45;&gt;ast.Name object at 0x78e599de9c10</title>
<path fill="none" stroke="black" d="M617.03,-143.7C622.26,-135.56 628.6,-125.69 634.38,-116.7"/>
<polygon fill="black" stroke="black" points="637.44,-118.41 639.91,-108.1 631.56,-114.62 637.44,-118.41"/>
</g>
<!-- ast.Name object at 0x78e599de8bd0 -->
<g id="node61" class="node">
<title>ast.Name object at 0x78e599de8bd0</title>
<path fill="#66cdaa" stroke="black" d="M521.9,-108C521.9,-108 491.9,-108 491.9,-108 485.9,-108 479.9,-102 479.9,-96 479.9,-96 479.9,-84 479.9,-84 479.9,-78 485.9,-72 491.9,-72 491.9,-72 521.9,-72 521.9,-72 527.9,-72 533.9,-78 533.9,-84 533.9,-84 533.9,-96 533.9,-96 533.9,-102 527.9,-108 521.9,-108"/>
<text text-anchor="middle" x="506.9" y="-86.3" font-family="Times,serif" font-size="14.00">Name</text>
</g>
<!-- ast.Call object at 0x78e599d6f650&#45;&gt;ast.Name object at 0x78e599de8bd0 -->
<g id="edge80" class="edge">
<title>ast.Call object at 0x78e599d6f650&#45;&gt;ast.Name object at 0x78e599de8bd0</title>
<path fill="none" stroke="black" d="M581.69,-143.88C568.98,-134.89 553.24,-123.76 539.48,-114.03"/>
<polygon fill="black" stroke="black" points="541.4,-111.11 531.22,-108.19 537.36,-116.82 541.4,-111.11"/>
</g>
<!-- ast.Name object at 0x78e599de9250 -->
<g id="node62" class="node">
<title>ast.Name object at 0x78e599de9250</title>
<path fill="#66cdaa" stroke="black" d="M593.9,-108C593.9,-108 563.9,-108 563.9,-108 557.9,-108 551.9,-102 551.9,-96 551.9,-96 551.9,-84 551.9,-84 551.9,-78 557.9,-72 563.9,-72 563.9,-72 593.9,-72 593.9,-72 599.9,-72 605.9,-78 605.9,-84 605.9,-84 605.9,-96 605.9,-96 605.9,-102 599.9,-108 593.9,-108"/>
<text text-anchor="middle" x="578.9" y="-86.3" font-family="Times,serif" font-size="14.00">Name</text>
</g>
<!-- ast.Call object at 0x78e599d6f650&#45;&gt;ast.Name object at 0x78e599de9250 -->
<g id="edge82" class="edge">
<title>ast.Call object at 0x78e599d6f650&#45;&gt;ast.Name object at 0x78e599de9250</title>
<path fill="none" stroke="black" d="M599.23,-143.7C596.19,-135.81 592.52,-126.3 589.14,-117.55"/>
<polygon fill="black" stroke="black" points="592.37,-116.17 585.5,-108.1 585.83,-118.69 592.37,-116.17"/>
</g>
<!-- ast.Name object at 0x78e599de9c10&#45;&gt;ast.Load object at 0x78e5d6ba9d90 -->
<g id="edge79" class="edge">
<title>ast.Name object at 0x78e599de9c10&#45;&gt;ast.Load object at 0x78e5d6ba9d90</title>
<path fill="none" stroke="black" d="M678.17,-77.45C682.74,-75.58 687.44,-73.71 691.9,-72 730.49,-57.24 775.19,-41.75 805.89,-31.35"/>
<polygon fill="black" stroke="black" points="807.38,-34.54 815.74,-28.03 805.14,-27.91 807.38,-34.54"/>
</g>
<!-- ast.Name object at 0x78e599de8bd0&#45;&gt;ast.Load object at 0x78e5d6ba9d90 -->
<g id="edge81" class="edge">
<title>ast.Name object at 0x78e599de8bd0&#45;&gt;ast.Load object at 0x78e5d6ba9d90</title>
<path fill="none" stroke="black" d="M534.12,-75.23C537.04,-74.03 540.01,-72.92 542.9,-72 634.95,-42.72 748.35,-28.24 805.79,-22.35"/>
<polygon fill="black" stroke="black" points="806.24,-25.82 815.84,-21.35 805.55,-18.86 806.24,-25.82"/>
</g>
<!-- ast.Name object at 0x78e599de9250&#45;&gt;ast.Load object at 0x78e5d6ba9d90 -->
<g id="edge83" class="edge">
<title>ast.Name object at 0x78e599de9250&#45;&gt;ast.Load object at 0x78e5d6ba9d90</title>
<path fill="none" stroke="black" d="M606.17,-75.39C609.08,-74.16 612.03,-73 614.9,-72 680.42,-49.21 759.94,-33.25 805.66,-25.14"/>
<polygon fill="black" stroke="black" points="806.45,-28.55 815.7,-23.39 805.25,-21.66 806.45,-28.55"/>
</g>
<!-- ast.Name object at 0x78e599de96d0 -->
<g id="node64" class="node">
<title>ast.Name object at 0x78e599de96d0</title>
<path fill="#66cdaa" stroke="black" d="M643.9,-324C643.9,-324 613.9,-324 613.9,-324 607.9,-324 601.9,-318 601.9,-312 601.9,-312 601.9,-300 601.9,-300 601.9,-294 607.9,-288 613.9,-288 613.9,-288 643.9,-288 643.9,-288 649.9,-288 655.9,-294 655.9,-300 655.9,-300 655.9,-312 655.9,-312 655.9,-318 649.9,-324 643.9,-324"/>
<text text-anchor="middle" x="628.9" y="-302.3" font-family="Times,serif" font-size="14.00">Name</text>
</g>
<!-- ast.Assign object at 0x78e599de8850&#45;&gt;ast.Name object at 0x78e599de96d0 -->
<g id="edge85" class="edge">
<title>ast.Assign object at 0x78e599de8850&#45;&gt;ast.Name object at 0x78e599de96d0</title>
<path fill="none" stroke="black" d="M657.51,-359.7C653.14,-351.64 647.85,-341.89 643.01,-332.98"/>
<polygon fill="black" stroke="black" points="646.04,-331.22 638.19,-324.1 639.88,-334.56 646.04,-331.22"/>
</g>
<!-- ast.Call object at 0x78e59141dc10 -->
<g id="node65" class="node">
<title>ast.Call object at 0x78e59141dc10</title>
<path fill="#66cdaa" stroke="black" d="M449.9,-180C449.9,-180 419.9,-180 419.9,-180 413.9,-180 407.9,-174 407.9,-168 407.9,-168 407.9,-156 407.9,-156 407.9,-150 413.9,-144 419.9,-144 419.9,-144 449.9,-144 449.9,-144 455.9,-144 461.9,-150 461.9,-156 461.9,-156 461.9,-168 461.9,-168 461.9,-174 455.9,-180 449.9,-180"/>
<text text-anchor="middle" x="434.9" y="-158.3" font-family="Times,serif" font-size="14.00">Call</text>
</g>
<!-- ast.Assign object at 0x78e599de8850&#45;&gt;ast.Call object at 0x78e59141dc10 -->
<g id="edge87" class="edge">
<title>ast.Assign object at 0x78e599de8850&#45;&gt;ast.Call object at 0x78e59141dc10</title>
<path fill="none" stroke="black" d="M669.61,-359.71C671.77,-341.35 673.24,-311.77 664.9,-288 651.57,-250 643,-238.95 609.9,-216 567.94,-186.9 509.61,-173.44 472.05,-167.46"/>
<polygon fill="black" stroke="black" points="472.45,-163.98 462.04,-165.97 471.41,-170.91 472.45,-163.98"/>
</g>
<!-- ast.Name object at 0x78e599de96d0&#45;&gt;ast.Store object at 0x78e5d6ba9e10 -->
<g id="edge86" class="edge">
<title>ast.Name object at 0x78e599de96d0&#45;&gt;ast.Store object at 0x78e5d6ba9e10</title>
<path fill="none" stroke="black" d="M615.31,-287.7C608.78,-279.39 600.84,-269.28 593.66,-260.14"/>
<polygon fill="black" stroke="black" points="596.27,-257.81 587.34,-252.1 590.77,-262.13 596.27,-257.81"/>
</g>
<!-- ast.Attribute object at 0x78e523f69f50 -->
<g id="node66" class="node">
<title>ast.Attribute object at 0x78e523f69f50</title>
<path fill="#66cdaa" stroke="black" d="M267.4,-108C267.4,-108 226.4,-108 226.4,-108 220.4,-108 214.4,-102 214.4,-96 214.4,-96 214.4,-84 214.4,-84 214.4,-78 220.4,-72 226.4,-72 226.4,-72 267.4,-72 267.4,-72 273.4,-72 279.4,-78 279.4,-84 279.4,-84 279.4,-96 279.4,-96 279.4,-102 273.4,-108 267.4,-108"/>
<text text-anchor="middle" x="246.9" y="-86.3" font-family="Times,serif" font-size="14.00">Attribute</text>
</g>
<!-- ast.Call object at 0x78e59141dc10&#45;&gt;ast.Attribute object at 0x78e523f69f50 -->
<g id="edge88" class="edge">
<title>ast.Call object at 0x78e59141dc10&#45;&gt;ast.Attribute object at 0x78e523f69f50</title>
<path fill="none" stroke="black" d="M407.57,-150.82C376.57,-139.28 325.64,-120.32 289.44,-106.84"/>
<polygon fill="black" stroke="black" points="290.24,-103.4 279.65,-103.19 287.8,-109.96 290.24,-103.4"/>
</g>
<!-- ast.Name object at 0x78e5bb514d90 -->
<g id="node68" class="node">
<title>ast.Name object at 0x78e5bb514d90</title>
<path fill="#66cdaa" stroke="black" d="M449.9,-108C449.9,-108 419.9,-108 419.9,-108 413.9,-108 407.9,-102 407.9,-96 407.9,-96 407.9,-84 407.9,-84 407.9,-78 413.9,-72 419.9,-72 419.9,-72 449.9,-72 449.9,-72 455.9,-72 461.9,-78 461.9,-84 461.9,-84 461.9,-96 461.9,-96 461.9,-102 455.9,-108 449.9,-108"/>
<text text-anchor="middle" x="434.9" y="-86.3" font-family="Times,serif" font-size="14.00">Name</text>
</g>
<!-- ast.Call object at 0x78e59141dc10&#45;&gt;ast.Name object at 0x78e5bb514d90 -->
<g id="edge91" class="edge">
<title>ast.Call object at 0x78e59141dc10&#45;&gt;ast.Name object at 0x78e5bb514d90</title>
<path fill="none" stroke="black" d="M434.9,-143.7C434.9,-135.98 434.9,-126.71 434.9,-118.11"/>
<polygon fill="black" stroke="black" points="438.4,-118.1 434.9,-108.1 431.4,-118.1 438.4,-118.1"/>
</g>
<!-- ast.Attribute object at 0x78e523f69f50&#45;&gt;ast.Load object at 0x78e5d6ba9d90 -->
<g id="edge90" class="edge">
<title>ast.Attribute object at 0x78e523f69f50&#45;&gt;ast.Load object at 0x78e5d6ba9d90</title>
<path fill="none" stroke="black" d="M279.46,-76.04C284.25,-74.48 289.16,-73.07 293.9,-72 482.86,-29.42 715.97,-21.04 805.48,-19.4"/>
<polygon fill="black" stroke="black" points="805.73,-22.89 815.68,-19.23 805.62,-15.89 805.73,-22.89"/>
</g>
<!-- ast.Constant object at 0x78e523f69010 -->
<g id="node67" class="node">
<title>ast.Constant object at 0x78e523f69010</title>
<path fill="#66cdaa" stroke="black" d="M267.4,-36C267.4,-36 226.4,-36 226.4,-36 220.4,-36 214.4,-30 214.4,-24 214.4,-24 214.4,-12 214.4,-12 214.4,-6 220.4,0 226.4,0 226.4,0 267.4,0 267.4,0 273.4,0 279.4,-6 279.4,-12 279.4,-12 279.4,-24 279.4,-24 279.4,-30 273.4,-36 267.4,-36"/>
<text text-anchor="middle" x="246.9" y="-14.3" font-family="Times,serif" font-size="14.00">Constant</text>
</g>
<!-- ast.Attribute object at 0x78e523f69f50&#45;&gt;ast.Constant object at 0x78e523f69010 -->
<g id="edge89" class="edge">
<title>ast.Attribute object at 0x78e523f69f50&#45;&gt;ast.Constant object at 0x78e523f69010</title>
<path fill="none" stroke="black" d="M246.9,-71.7C246.9,-63.98 246.9,-54.71 246.9,-46.11"/>
<polygon fill="black" stroke="black" points="250.4,-46.1 246.9,-36.1 243.4,-46.1 250.4,-46.1"/>
</g>
<!-- ast.Name object at 0x78e5bb514d90&#45;&gt;ast.Load object at 0x78e5d6ba9d90 -->
<g id="edge92" class="edge">
<title>ast.Name object at 0x78e5bb514d90&#45;&gt;ast.Load object at 0x78e5d6ba9d90</title>
<path fill="none" stroke="black" d="M462.09,-75.13C465.02,-73.95 467.99,-72.87 470.9,-72 589.83,-36.34 737.53,-24.41 805.49,-20.63"/>
<polygon fill="black" stroke="black" points="805.9,-24.12 815.7,-20.1 805.53,-17.13 805.9,-24.12"/>
</g>
<!-- ast.Call object at 0x78e59a013c10 -->
<g id="node70" class="node">
<title>ast.Call object at 0x78e59a013c10</title>
<path fill="#66cdaa" stroke="black" d="M915.9,-180C915.9,-180 885.9,-180 885.9,-180 879.9,-180 873.9,-174 873.9,-168 873.9,-168 873.9,-156 873.9,-156 873.9,-150 879.9,-144 885.9,-144 885.9,-144 915.9,-144 915.9,-144 921.9,-144 927.9,-150 927.9,-156 927.9,-156 927.9,-168 927.9,-168 927.9,-174 921.9,-180 915.9,-180"/>
<text text-anchor="middle" x="900.9" y="-158.3" font-family="Times,serif" font-size="14.00">Call</text>
</g>
<!-- ast.If object at 0x78e5916fa310&#45;&gt;ast.Call object at 0x78e59a013c10 -->
<g id="edge94" class="edge">
<title>ast.If object at 0x78e5916fa310&#45;&gt;ast.Call object at 0x78e59a013c10</title>
<path fill="none" stroke="black" d="M803.99,-371.56C829.36,-364.94 866.09,-351.11 884.9,-324 912.58,-284.13 910.19,-224.73 905.7,-190.33"/>
<polygon fill="black" stroke="black" points="909.12,-189.49 904.21,-180.1 902.19,-190.5 909.12,-189.49"/>
</g>
<!-- ast.Expr object at 0x78e59134da50 -->
<g id="node73" class="node">
<title>ast.Expr object at 0x78e59134da50</title>
<path fill="#66cdaa" stroke="black" d="M791.9,-324C791.9,-324 761.9,-324 761.9,-324 755.9,-324 749.9,-318 749.9,-312 749.9,-312 749.9,-300 749.9,-300 749.9,-294 755.9,-288 761.9,-288 761.9,-288 791.9,-288 791.9,-288 797.9,-288 803.9,-294 803.9,-300 803.9,-300 803.9,-312 803.9,-312 803.9,-318 797.9,-324 791.9,-324"/>
<text text-anchor="middle" x="776.9" y="-302.3" font-family="Times,serif" font-size="14.00">Expr</text>
</g>
<!-- ast.If object at 0x78e5916fa310&#45;&gt;ast.Expr object at 0x78e59134da50 -->
<g id="edge99" class="edge">
<title>ast.If object at 0x78e5916fa310&#45;&gt;ast.Expr object at 0x78e59134da50</title>
<path fill="none" stroke="black" d="M776.9,-359.7C776.9,-351.98 776.9,-342.71 776.9,-334.11"/>
<polygon fill="black" stroke="black" points="780.4,-334.1 776.9,-324.1 773.4,-334.1 780.4,-334.1"/>
</g>
<!-- ast.Name object at 0x78e599fae6d0 -->
<g id="node71" class="node">
<title>ast.Name object at 0x78e599fae6d0</title>
<path fill="#66cdaa" stroke="black" d="M957.9,-108C957.9,-108 927.9,-108 927.9,-108 921.9,-108 915.9,-102 915.9,-96 915.9,-96 915.9,-84 915.9,-84 915.9,-78 921.9,-72 927.9,-72 927.9,-72 957.9,-72 957.9,-72 963.9,-72 969.9,-78 969.9,-84 969.9,-84 969.9,-96 969.9,-96 969.9,-102 963.9,-108 957.9,-108"/>
<text text-anchor="middle" x="942.9" y="-86.3" font-family="Times,serif" font-size="14.00">Name</text>
</g>
<!-- ast.Call object at 0x78e59a013c10&#45;&gt;ast.Name object at 0x78e599fae6d0 -->
<g id="edge95" class="edge">
<title>ast.Call object at 0x78e59a013c10&#45;&gt;ast.Name object at 0x78e599fae6d0</title>
<path fill="none" stroke="black" d="M911.29,-143.7C916.17,-135.56 922.09,-125.69 927.48,-116.7"/>
<polygon fill="black" stroke="black" points="930.5,-118.48 932.64,-108.1 924.5,-114.88 930.5,-118.48"/>
</g>
<!-- ast.Name object at 0x78e59134d610 -->
<g id="node72" class="node">
<title>ast.Name object at 0x78e59134d610</title>
<path fill="#66cdaa" stroke="black" d="M885.9,-108C885.9,-108 855.9,-108 855.9,-108 849.9,-108 843.9,-102 843.9,-96 843.9,-96 843.9,-84 843.9,-84 843.9,-78 849.9,-72 855.9,-72 855.9,-72 885.9,-72 885.9,-72 891.9,-72 897.9,-78 897.9,-84 897.9,-84 897.9,-96 897.9,-96 897.9,-102 891.9,-108 885.9,-108"/>
<text text-anchor="middle" x="870.9" y="-86.3" font-family="Times,serif" font-size="14.00">Name</text>
</g>
<!-- ast.Call object at 0x78e59a013c10&#45;&gt;ast.Name object at 0x78e59134d610 -->
<g id="edge97" class="edge">
<title>ast.Call object at 0x78e59a013c10&#45;&gt;ast.Name object at 0x78e59134d610</title>
<path fill="none" stroke="black" d="M893.49,-143.7C890.11,-135.81 886.03,-126.3 882.28,-117.55"/>
<polygon fill="black" stroke="black" points="885.39,-115.92 878.23,-108.1 878.96,-118.67 885.39,-115.92"/>
</g>
<!-- ast.Name object at 0x78e599fae6d0&#45;&gt;ast.Load object at 0x78e5d6ba9d90 -->
<g id="edge96" class="edge">
<title>ast.Name object at 0x78e599fae6d0&#45;&gt;ast.Load object at 0x78e5d6ba9d90</title>
<path fill="none" stroke="black" d="M918.44,-71.88C905.61,-62.89 889.71,-51.76 875.81,-42.03"/>
<polygon fill="black" stroke="black" points="877.66,-39.06 867.46,-36.19 873.65,-44.79 877.66,-39.06"/>
</g>
<!-- ast.Name object at 0x78e59134d610&#45;&gt;ast.Load object at 0x78e5d6ba9d90 -->
<g id="edge98" class="edge">
<title>ast.Name object at 0x78e59134d610&#45;&gt;ast.Load object at 0x78e5d6ba9d90</title>
<path fill="none" stroke="black" d="M863.98,-71.7C860.83,-63.81 857.03,-54.3 853.52,-45.55"/>
<polygon fill="black" stroke="black" points="856.71,-44.09 849.75,-36.1 850.21,-46.69 856.71,-44.09"/>
</g>
<!-- ast.Call object at 0x78e59134dc90 -->
<g id="node74" class="node">
<title>ast.Call object at 0x78e59134dc90</title>
<path fill="#66cdaa" stroke="black" d="M791.9,-252C791.9,-252 761.9,-252 761.9,-252 755.9,-252 749.9,-246 749.9,-240 749.9,-240 749.9,-228 749.9,-228 749.9,-222 755.9,-216 761.9,-216 761.9,-216 791.9,-216 791.9,-216 797.9,-216 803.9,-222 803.9,-228 803.9,-228 803.9,-240 803.9,-240 803.9,-246 797.9,-252 791.9,-252"/>
<text text-anchor="middle" x="776.9" y="-230.3" font-family="Times,serif" font-size="14.00">Call</text>
</g>
<!-- ast.Expr object at 0x78e59134da50&#45;&gt;ast.Call object at 0x78e59134dc90 -->
<g id="edge100" class="edge">
<title>ast.Expr object at 0x78e59134da50&#45;&gt;ast.Call object at 0x78e59134dc90</title>
<path fill="none" stroke="black" d="M776.9,-287.7C776.9,-279.98 776.9,-270.71 776.9,-262.11"/>
<polygon fill="black" stroke="black" points="780.4,-262.1 776.9,-252.1 773.4,-262.1 780.4,-262.1"/>
</g>
<!-- ast.Attribute object at 0x78e59134d110 -->
<g id="node75" class="node">
<title>ast.Attribute object at 0x78e59134d110</title>
<path fill="#66cdaa" stroke="black" d="M804.4,-180C804.4,-180 763.4,-180 763.4,-180 757.4,-180 751.4,-174 751.4,-168 751.4,-168 751.4,-156 751.4,-156 751.4,-150 757.4,-144 763.4,-144 763.4,-144 804.4,-144 804.4,-144 810.4,-144 816.4,-150 816.4,-156 816.4,-156 816.4,-168 816.4,-168 816.4,-174 810.4,-180 804.4,-180"/>
<text text-anchor="middle" x="783.9" y="-158.3" font-family="Times,serif" font-size="14.00">Attribute</text>
</g>
<!-- ast.Call object at 0x78e59134dc90&#45;&gt;ast.Attribute object at 0x78e59134d110 -->
<g id="edge101" class="edge">
<title>ast.Call object at 0x78e59134dc90&#45;&gt;ast.Attribute object at 0x78e59134d110</title>
<path fill="none" stroke="black" d="M778.63,-215.7C779.41,-207.98 780.33,-198.71 781.19,-190.11"/>
<polygon fill="black" stroke="black" points="784.68,-190.4 782.19,-180.1 777.72,-189.71 784.68,-190.4"/>
</g>
<!-- ast.Name object at 0x78e59134d7d0 -->
<g id="node77" class="node">
<title>ast.Name object at 0x78e59134d7d0</title>
<path fill="#66cdaa" stroke="black" d="M720.9,-180C720.9,-180 690.9,-180 690.9,-180 684.9,-180 678.9,-174 678.9,-168 678.9,-168 678.9,-156 678.9,-156 678.9,-150 684.9,-144 690.9,-144 690.9,-144 720.9,-144 720.9,-144 726.9,-144 732.9,-150 732.9,-156 732.9,-156 732.9,-168 732.9,-168 732.9,-174 726.9,-180 720.9,-180"/>
<text text-anchor="middle" x="705.9" y="-158.3" font-family="Times,serif" font-size="14.00">Name</text>
</g>
<!-- ast.Call object at 0x78e59134dc90&#45;&gt;ast.Name object at 0x78e59134d7d0 -->
<g id="edge105" class="edge">
<title>ast.Call object at 0x78e59134dc90&#45;&gt;ast.Name object at 0x78e59134d7d0</title>
<path fill="none" stroke="black" d="M759.35,-215.7C750.67,-207.14 740.04,-196.66 730.56,-187.3"/>
<polygon fill="black" stroke="black" points="732.83,-184.63 723.25,-180.1 727.92,-189.62 732.83,-184.63"/>
</g>
<!-- ast.Attribute object at 0x78e59134d110&#45;&gt;ast.Load object at 0x78e5d6ba9d90 -->
<g id="edge104" class="edge">
<title>ast.Attribute object at 0x78e59134d110&#45;&gt;ast.Load object at 0x78e5d6ba9d90</title>
<path fill="none" stroke="black" d="M791.02,-143.87C801.16,-119.46 819.87,-74.43 831.84,-45.64"/>
<polygon fill="black" stroke="black" points="835.16,-46.77 835.76,-36.19 828.69,-44.08 835.16,-46.77"/>
</g>
<!-- ast.Name object at 0x78e59134dc50 -->
<g id="node76" class="node">
<title>ast.Name object at 0x78e59134dc50</title>
<path fill="#66cdaa" stroke="black" d="M775.9,-108C775.9,-108 745.9,-108 745.9,-108 739.9,-108 733.9,-102 733.9,-96 733.9,-96 733.9,-84 733.9,-84 733.9,-78 739.9,-72 745.9,-72 745.9,-72 775.9,-72 775.9,-72 781.9,-72 787.9,-78 787.9,-84 787.9,-84 787.9,-96 787.9,-96 787.9,-102 781.9,-108 775.9,-108"/>
<text text-anchor="middle" x="760.9" y="-86.3" font-family="Times,serif" font-size="14.00">Name</text>
</g>
<!-- ast.Attribute object at 0x78e59134d110&#45;&gt;ast.Name object at 0x78e59134dc50 -->
<g id="edge102" class="edge">
<title>ast.Attribute object at 0x78e59134d110&#45;&gt;ast.Name object at 0x78e59134dc50</title>
<path fill="none" stroke="black" d="M778.22,-143.7C775.66,-135.9 772.57,-126.51 769.72,-117.83"/>
<polygon fill="black" stroke="black" points="772.97,-116.51 766.52,-108.1 766.32,-118.7 772.97,-116.51"/>
</g>
<!-- ast.Name object at 0x78e59134dc50&#45;&gt;ast.Load object at 0x78e5d6ba9d90 -->
<g id="edge103" class="edge">
<title>ast.Name object at 0x78e59134dc50&#45;&gt;ast.Load object at 0x78e5d6ba9d90</title>
<path fill="none" stroke="black" d="M781.17,-71.7C791.4,-62.97 803.97,-52.24 815.08,-42.75"/>
<polygon fill="black" stroke="black" points="817.53,-45.26 822.87,-36.1 812.99,-39.94 817.53,-45.26"/>
</g>
<!-- ast.Name object at 0x78e59134d7d0&#45;&gt;ast.Load object at 0x78e5d6ba9d90 -->
<g id="edge106" class="edge">
<title>ast.Name object at 0x78e59134d7d0&#45;&gt;ast.Load object at 0x78e5d6ba9d90</title>
<path fill="none" stroke="black" d="M705.18,-144C705.25,-124.52 708.22,-92.65 724.9,-72 745.11,-46.98 779.64,-33.37 806.14,-26.23"/>
<polygon fill="black" stroke="black" points="807,-29.62 815.85,-23.8 805.3,-22.83 807,-29.62"/>
</g>
<!-- ast.Name object at 0x78e59134d5d0 -->
<g id="node79" class="node">
<title>ast.Name object at 0x78e59134d5d0</title>
<path fill="#66cdaa" stroke="black" d="M1181.9,-468C1181.9,-468 1151.9,-468 1151.9,-468 1145.9,-468 1139.9,-462 1139.9,-456 1139.9,-456 1139.9,-444 1139.9,-444 1139.9,-438 1145.9,-432 1151.9,-432 1151.9,-432 1181.9,-432 1181.9,-432 1187.9,-432 1193.9,-438 1193.9,-444 1193.9,-444 1193.9,-456 1193.9,-456 1193.9,-462 1187.9,-468 1181.9,-468"/>
<text text-anchor="middle" x="1166.9" y="-446.3" font-family="Times,serif" font-size="14.00">Name</text>
</g>
<!-- ast.Return object at 0x78e59134de90&#45;&gt;ast.Name object at 0x78e59134d5d0 -->
<g id="edge108" class="edge">
<title>ast.Return object at 0x78e59134de90&#45;&gt;ast.Name object at 0x78e59134d5d0</title>
<path fill="none" stroke="black" d="M1163.14,-503.7C1163.69,-495.98 1164.35,-486.71 1164.97,-478.11"/>
<polygon fill="black" stroke="black" points="1168.46,-478.33 1165.68,-468.1 1161.48,-477.83 1168.46,-478.33"/>
</g>
<!-- ast.Name object at 0x78e59134d5d0&#45;&gt;ast.Load object at 0x78e5d6ba9d90 -->
<g id="edge109" class="edge">
<title>ast.Name object at 0x78e59134d5d0&#45;&gt;ast.Load object at 0x78e5d6ba9d90</title>
<path fill="none" stroke="black" d="M1193.91,-436.82C1263.93,-405.02 1445.9,-321.05 1445.9,-307 1445.9,-307 1445.9,-307 1445.9,-161 1445.9,-120.55 1457.17,-98.84 1426.9,-72 1386.01,-35.73 1002.7,-23.01 880.29,-19.86"/>
<polygon fill="black" stroke="black" points="880.02,-16.35 869.94,-19.6 879.84,-23.35 880.02,-16.35"/>
</g>
</g>
</svg>
