<?xml version="1.0" encoding="UTF-8" standalone="no"?>
<!DOCTYPE svg PUBLIC "-//W3C//DTD SVG 1.1//EN"
 "http://www.w3.org/Graphics/SVG/1.1/DTD/svg11.dtd">
<!-- Generated by graphviz version 2.50.0 (0)
 -->
<!-- Pages: 1 -->
<svg width="1361pt" height="692pt"
 viewBox="0.00 0.00 1361.45 692.00" xmlns="http://www.w3.org/2000/svg" xmlns:xlink="http://www.w3.org/1999/xlink">
<g id="graph0" class="graph" transform="scale(1 1) rotate(0) translate(4 688)">
<polygon fill="white" stroke="transparent" points="-4,4 -4,-688 1357.45,-688 1357.45,4 -4,4"/>
<!-- ast.Module object at 0x70307133bed0 -->
<g id="node1" class="node">
<title>ast.Module object at 0x70307133bed0</title>
<path fill="#66cdaa" stroke="black" d="M371,-684C371,-684 336,-684 336,-684 330,-684 324,-678 324,-672 324,-672 324,-660 324,-660 324,-654 330,-648 336,-648 336,-648 371,-648 371,-648 377,-648 383,-654 383,-660 383,-660 383,-672 383,-672 383,-678 377,-684 371,-684"/>
<text text-anchor="middle" x="353.5" y="-662.3" font-family="Times,serif" font-size="14.00">Module</text>
</g>
<!-- ast.FunctionDef object at 0x70307107c510 -->
<g id="node2" class="node">
<title>ast.FunctionDef object at 0x70307107c510</title>
<path fill="#66cdaa" stroke="black" d="M384,-612C384,-612 323,-612 323,-612 317,-612 311,-606 311,-600 311,-600 311,-588 311,-588 311,-582 317,-576 323,-576 323,-576 384,-576 384,-576 390,-576 396,-582 396,-588 396,-588 396,-600 396,-600 396,-606 390,-612 384,-612"/>
<text text-anchor="middle" x="353.5" y="-590.3" font-family="Times,serif" font-size="14.00">FunctionDef</text>
</g>
<!-- ast.Module object at 0x70307133bed0&#45;&gt;ast.FunctionDef object at 0x70307107c510 -->
<g id="edge1" class="edge">
<title>ast.Module object at 0x70307133bed0&#45;&gt;ast.FunctionDef object at 0x70307107c510</title>
<path fill="none" stroke="black" d="M353.5,-647.7C353.5,-639.98 353.5,-630.71 353.5,-622.11"/>
<polygon fill="black" stroke="black" points="357,-622.1 353.5,-612.1 350,-622.1 357,-622.1"/>
</g>
<!-- ast.arguments object at 0x7030710f2dd0 -->
<g id="node3" class="node">
<title>ast.arguments object at 0x7030710f2dd0</title>
<path fill="#66cdaa" stroke="black" d="M124.5,-540C124.5,-540 74.5,-540 74.5,-540 68.5,-540 62.5,-534 62.5,-528 62.5,-528 62.5,-516 62.5,-516 62.5,-510 68.5,-504 74.5,-504 74.5,-504 124.5,-504 124.5,-504 130.5,-504 136.5,-510 136.5,-516 136.5,-516 136.5,-528 136.5,-528 136.5,-534 130.5,-540 124.5,-540"/>
<text text-anchor="middle" x="99.5" y="-518.3" font-family="Times,serif" font-size="14.00">arguments</text>
</g>
<!-- ast.FunctionDef object at 0x70307107c510&#45;&gt;ast.arguments object at 0x7030710f2dd0 -->
<g id="edge2" class="edge">
<title>ast.FunctionDef object at 0x70307107c510&#45;&gt;ast.arguments object at 0x7030710f2dd0</title>
<path fill="none" stroke="black" d="M310.99,-581.28C265.5,-568.75 193.55,-548.92 146.43,-535.93"/>
<polygon fill="black" stroke="black" points="147.34,-532.55 136.77,-533.27 145.48,-539.3 147.34,-532.55"/>
</g>
<!-- ast.FunctionDef object at 0x7030712e5f50 -->
<g id="node5" class="node">
<title>ast.FunctionDef object at 0x7030712e5f50</title>
<path fill="#66cdaa" stroke="black" d="M297,-540C297,-540 236,-540 236,-540 230,-540 224,-534 224,-528 224,-528 224,-516 224,-516 224,-510 230,-504 236,-504 236,-504 297,-504 297,-504 303,-504 309,-510 309,-516 309,-516 309,-528 309,-528 309,-534 303,-540 297,-540"/>
<text text-anchor="middle" x="266.5" y="-518.3" font-family="Times,serif" font-size="14.00">FunctionDef</text>
</g>
<!-- ast.FunctionDef object at 0x70307107c510&#45;&gt;ast.FunctionDef object at 0x7030712e5f50 -->
<g id="edge4" class="edge">
<title>ast.FunctionDef object at 0x70307107c510&#45;&gt;ast.FunctionDef object at 0x7030712e5f50</title>
<path fill="none" stroke="black" d="M331.99,-575.7C321.04,-566.88 307.55,-556.03 295.68,-546.47"/>
<polygon fill="black" stroke="black" points="297.74,-543.65 287.76,-540.1 293.36,-549.1 297.74,-543.65"/>
</g>
<!-- ast.Assign object at 0x703070f32210 -->
<g id="node43" class="node">
<title>ast.Assign object at 0x703070f32210</title>
<path fill="#66cdaa" stroke="black" d="M735.5,-396C735.5,-396 705.5,-396 705.5,-396 699.5,-396 693.5,-390 693.5,-384 693.5,-384 693.5,-372 693.5,-372 693.5,-366 699.5,-360 705.5,-360 705.5,-360 735.5,-360 735.5,-360 741.5,-360 747.5,-366 747.5,-372 747.5,-372 747.5,-384 747.5,-384 747.5,-390 741.5,-396 735.5,-396"/>
<text text-anchor="middle" x="720.5" y="-374.3" font-family="Times,serif" font-size="14.00">Assign</text>
</g>
<!-- ast.FunctionDef object at 0x70307107c510&#45;&gt;ast.Assign object at 0x703070f32210 -->
<g id="edge47" class="edge">
<title>ast.FunctionDef object at 0x70307107c510&#45;&gt;ast.Assign object at 0x703070f32210</title>
<path fill="none" stroke="black" d="M382.91,-575.85C449.63,-536.95 612.24,-442.13 684.67,-399.89"/>
<polygon fill="black" stroke="black" points="686.58,-402.83 693.46,-394.77 683.05,-396.78 686.58,-402.83"/>
</g>
<!-- ast.Return object at 0x703070f31850 -->
<g id="node50" class="node">
<title>ast.Return object at 0x703070f31850</title>
<path fill="#66cdaa" stroke="black" d="M767.5,-540C767.5,-540 737.5,-540 737.5,-540 731.5,-540 725.5,-534 725.5,-528 725.5,-528 725.5,-516 725.5,-516 725.5,-510 731.5,-504 737.5,-504 737.5,-504 767.5,-504 767.5,-504 773.5,-504 779.5,-510 779.5,-516 779.5,-516 779.5,-528 779.5,-528 779.5,-534 773.5,-540 767.5,-540"/>
<text text-anchor="middle" x="752.5" y="-518.3" font-family="Times,serif" font-size="14.00">Return</text>
</g>
<!-- ast.FunctionDef object at 0x70307107c510&#45;&gt;ast.Return object at 0x703070f31850 -->
<g id="edge58" class="edge">
<title>ast.FunctionDef object at 0x70307107c510&#45;&gt;ast.Return object at 0x703070f31850</title>
<path fill="none" stroke="black" d="M396.2,-585.51C474.73,-571.73 640.83,-542.59 715.16,-529.55"/>
<polygon fill="black" stroke="black" points="715.78,-533 725.03,-527.82 714.57,-526.1 715.78,-533"/>
</g>
<!-- ast.arg object at 0x7030710f3090 -->
<g id="node4" class="node">
<title>ast.arg object at 0x7030710f3090</title>
<path fill="#66cdaa" stroke="black" d="M45.5,-468C45.5,-468 15.5,-468 15.5,-468 9.5,-468 3.5,-462 3.5,-456 3.5,-456 3.5,-444 3.5,-444 3.5,-438 9.5,-432 15.5,-432 15.5,-432 45.5,-432 45.5,-432 51.5,-432 57.5,-438 57.5,-444 57.5,-444 57.5,-456 57.5,-456 57.5,-462 51.5,-468 45.5,-468"/>
<text text-anchor="middle" x="30.5" y="-446.3" font-family="Times,serif" font-size="14.00">arg</text>
</g>
<!-- ast.arguments object at 0x7030710f2dd0&#45;&gt;ast.arg object at 0x7030710f3090 -->
<g id="edge3" class="edge">
<title>ast.arguments object at 0x7030710f2dd0&#45;&gt;ast.arg object at 0x7030710f3090</title>
<path fill="none" stroke="black" d="M82.44,-503.7C74,-495.14 63.68,-484.66 54.46,-475.3"/>
<polygon fill="black" stroke="black" points="56.87,-472.77 47.36,-468.1 51.89,-477.68 56.87,-472.77"/>
</g>
<!-- ast.arguments object at 0x7030710f2750 -->
<g id="node6" class="node">
<title>ast.arguments object at 0x7030710f2750</title>
<path fill="#66cdaa" stroke="black" d="M209.5,-468C209.5,-468 159.5,-468 159.5,-468 153.5,-468 147.5,-462 147.5,-456 147.5,-456 147.5,-444 147.5,-444 147.5,-438 153.5,-432 159.5,-432 159.5,-432 209.5,-432 209.5,-432 215.5,-432 221.5,-438 221.5,-444 221.5,-444 221.5,-456 221.5,-456 221.5,-462 215.5,-468 209.5,-468"/>
<text text-anchor="middle" x="184.5" y="-446.3" font-family="Times,serif" font-size="14.00">arguments</text>
</g>
<!-- ast.FunctionDef object at 0x7030712e5f50&#45;&gt;ast.arguments object at 0x7030710f2750 -->
<g id="edge5" class="edge">
<title>ast.FunctionDef object at 0x7030712e5f50&#45;&gt;ast.arguments object at 0x7030710f2750</title>
<path fill="none" stroke="black" d="M246.23,-503.7C236,-494.97 223.44,-484.24 212.32,-474.75"/>
<polygon fill="black" stroke="black" points="214.41,-471.94 204.54,-468.1 209.87,-477.26 214.41,-471.94"/>
</g>
<!-- ast.If object at 0x70307160bd50 -->
<g id="node8" class="node">
<title>ast.If object at 0x70307160bd50</title>
<path fill="#66cdaa" stroke="black" d="M281.5,-468C281.5,-468 251.5,-468 251.5,-468 245.5,-468 239.5,-462 239.5,-456 239.5,-456 239.5,-444 239.5,-444 239.5,-438 245.5,-432 251.5,-432 251.5,-432 281.5,-432 281.5,-432 287.5,-432 293.5,-438 293.5,-444 293.5,-444 293.5,-456 293.5,-456 293.5,-462 287.5,-468 281.5,-468"/>
<text text-anchor="middle" x="266.5" y="-446.3" font-family="Times,serif" font-size="14.00">If</text>
</g>
<!-- ast.FunctionDef object at 0x7030712e5f50&#45;&gt;ast.If object at 0x70307160bd50 -->
<g id="edge7" class="edge">
<title>ast.FunctionDef object at 0x7030712e5f50&#45;&gt;ast.If object at 0x70307160bd50</title>
<path fill="none" stroke="black" d="M266.5,-503.7C266.5,-495.98 266.5,-486.71 266.5,-478.11"/>
<polygon fill="black" stroke="black" points="270,-478.1 266.5,-468.1 263,-478.1 270,-478.1"/>
</g>
<!-- ast.For object at 0x703071262d50 -->
<g id="node16" class="node">
<title>ast.For object at 0x703071262d50</title>
<path fill="#66cdaa" stroke="black" d="M417.5,-468C417.5,-468 387.5,-468 387.5,-468 381.5,-468 375.5,-462 375.5,-456 375.5,-456 375.5,-444 375.5,-444 375.5,-438 381.5,-432 387.5,-432 387.5,-432 417.5,-432 417.5,-432 423.5,-432 429.5,-438 429.5,-444 429.5,-444 429.5,-456 429.5,-456 429.5,-462 423.5,-468 417.5,-468"/>
<text text-anchor="middle" x="402.5" y="-446.3" font-family="Times,serif" font-size="14.00">For</text>
</g>
<!-- ast.FunctionDef object at 0x7030712e5f50&#45;&gt;ast.For object at 0x703071262d50 -->
<g id="edge15" class="edge">
<title>ast.FunctionDef object at 0x7030712e5f50&#45;&gt;ast.For object at 0x703071262d50</title>
<path fill="none" stroke="black" d="M299.77,-503.88C319.82,-493.56 345.37,-480.4 365.98,-469.8"/>
<polygon fill="black" stroke="black" points="367.77,-472.81 375.06,-465.12 364.57,-466.59 367.77,-472.81"/>
</g>
<!-- ast.Return object at 0x703070f330d0 -->
<g id="node41" class="node">
<title>ast.Return object at 0x703070f330d0</title>
<path fill="#66cdaa" stroke="black" d="M117.5,-468C117.5,-468 87.5,-468 87.5,-468 81.5,-468 75.5,-462 75.5,-456 75.5,-456 75.5,-444 75.5,-444 75.5,-438 81.5,-432 87.5,-432 87.5,-432 117.5,-432 117.5,-432 123.5,-432 129.5,-438 129.5,-444 129.5,-444 129.5,-456 129.5,-456 129.5,-462 123.5,-468 117.5,-468"/>
<text text-anchor="middle" x="102.5" y="-446.3" font-family="Times,serif" font-size="14.00">Return</text>
</g>
<!-- ast.FunctionDef object at 0x7030712e5f50&#45;&gt;ast.Return object at 0x703070f330d0 -->
<g id="edge45" class="edge">
<title>ast.FunctionDef object at 0x7030712e5f50&#45;&gt;ast.Return object at 0x703070f330d0</title>
<path fill="none" stroke="black" d="M223.9,-503.97C201.05,-494.69 172.23,-482.78 139.04,-468.15"/>
<polygon fill="black" stroke="black" points="140.12,-464.8 129.56,-463.95 137.29,-471.2 140.12,-464.8"/>
</g>
<!-- ast.arg object at 0x7030710f35d0 -->
<g id="node7" class="node">
<title>ast.arg object at 0x7030710f35d0</title>
<path fill="#66cdaa" stroke="black" d="M130.5,-396C130.5,-396 100.5,-396 100.5,-396 94.5,-396 88.5,-390 88.5,-384 88.5,-384 88.5,-372 88.5,-372 88.5,-366 94.5,-360 100.5,-360 100.5,-360 130.5,-360 130.5,-360 136.5,-360 142.5,-366 142.5,-372 142.5,-372 142.5,-384 142.5,-384 142.5,-390 136.5,-396 130.5,-396"/>
<text text-anchor="middle" x="115.5" y="-374.3" font-family="Times,serif" font-size="14.00">arg</text>
</g>
<!-- ast.arguments object at 0x7030710f2750&#45;&gt;ast.arg object at 0x7030710f35d0 -->
<g id="edge6" class="edge">
<title>ast.arguments object at 0x7030710f2750&#45;&gt;ast.arg object at 0x7030710f35d0</title>
<path fill="none" stroke="black" d="M167.44,-431.7C159,-423.14 148.68,-412.66 139.46,-403.3"/>
<polygon fill="black" stroke="black" points="141.87,-400.77 132.36,-396.1 136.89,-405.68 141.87,-400.77"/>
</g>
<!-- ast.Compare object at 0x7030715de450 -->
<g id="node9" class="node">
<title>ast.Compare object at 0x7030715de450</title>
<path fill="#66cdaa" stroke="black" d="M288,-396C288,-396 245,-396 245,-396 239,-396 233,-390 233,-384 233,-384 233,-372 233,-372 233,-366 239,-360 245,-360 245,-360 288,-360 288,-360 294,-360 300,-366 300,-372 300,-372 300,-384 300,-384 300,-390 294,-396 288,-396"/>
<text text-anchor="middle" x="266.5" y="-374.3" font-family="Times,serif" font-size="14.00">Compare</text>
</g>
<!-- ast.If object at 0x70307160bd50&#45;&gt;ast.Compare object at 0x7030715de450 -->
<g id="edge8" class="edge">
<title>ast.If object at 0x70307160bd50&#45;&gt;ast.Compare object at 0x7030715de450</title>
<path fill="none" stroke="black" d="M266.5,-431.7C266.5,-423.98 266.5,-414.71 266.5,-406.11"/>
<polygon fill="black" stroke="black" points="270,-406.1 266.5,-396.1 263,-406.1 270,-406.1"/>
</g>
<!-- ast.Return object at 0x7030710f8550 -->
<g id="node14" class="node">
<title>ast.Return object at 0x7030710f8550</title>
<path fill="#66cdaa" stroke="black" d="M202.5,-396C202.5,-396 172.5,-396 172.5,-396 166.5,-396 160.5,-390 160.5,-384 160.5,-384 160.5,-372 160.5,-372 160.5,-366 166.5,-360 172.5,-360 172.5,-360 202.5,-360 202.5,-360 208.5,-360 214.5,-366 214.5,-372 214.5,-372 214.5,-384 214.5,-384 214.5,-390 208.5,-396 202.5,-396"/>
<text text-anchor="middle" x="187.5" y="-374.3" font-family="Times,serif" font-size="14.00">Return</text>
</g>
<!-- ast.If object at 0x70307160bd50&#45;&gt;ast.Return object at 0x7030710f8550 -->
<g id="edge13" class="edge">
<title>ast.If object at 0x70307160bd50&#45;&gt;ast.Return object at 0x7030710f8550</title>
<path fill="none" stroke="black" d="M246.97,-431.7C237.12,-422.97 225.01,-412.24 214.3,-402.75"/>
<polygon fill="black" stroke="black" points="216.61,-400.12 206.8,-396.1 211.97,-405.36 216.61,-400.12"/>
</g>
<!-- ast.Name object at 0x703071665d90 -->
<g id="node10" class="node">
<title>ast.Name object at 0x703071665d90</title>
<path fill="#66cdaa" stroke="black" d="M281.5,-324C281.5,-324 251.5,-324 251.5,-324 245.5,-324 239.5,-318 239.5,-312 239.5,-312 239.5,-300 239.5,-300 239.5,-294 245.5,-288 251.5,-288 251.5,-288 281.5,-288 281.5,-288 287.5,-288 293.5,-294 293.5,-300 293.5,-300 293.5,-312 293.5,-312 293.5,-318 287.5,-324 281.5,-324"/>
<text text-anchor="middle" x="266.5" y="-302.3" font-family="Times,serif" font-size="14.00">Name</text>
</g>
<!-- ast.Compare object at 0x7030715de450&#45;&gt;ast.Name object at 0x703071665d90 -->
<g id="edge9" class="edge">
<title>ast.Compare object at 0x7030715de450&#45;&gt;ast.Name object at 0x703071665d90</title>
<path fill="none" stroke="black" d="M266.5,-359.7C266.5,-351.98 266.5,-342.71 266.5,-334.11"/>
<polygon fill="black" stroke="black" points="270,-334.1 266.5,-324.1 263,-334.1 270,-334.1"/>
</g>
<!-- ast.LtE object at 0x7031ebab7b90 -->
<g id="node12" class="node">
<title>ast.LtE object at 0x7031ebab7b90</title>
<path fill="#66cdaa" stroke="black" d="M125.5,-324C125.5,-324 95.5,-324 95.5,-324 89.5,-324 83.5,-318 83.5,-312 83.5,-312 83.5,-300 83.5,-300 83.5,-294 89.5,-288 95.5,-288 95.5,-288 125.5,-288 125.5,-288 131.5,-288 137.5,-294 137.5,-300 137.5,-300 137.5,-312 137.5,-312 137.5,-318 131.5,-324 125.5,-324"/>
<text text-anchor="middle" x="110.5" y="-302.3" font-family="Times,serif" font-size="14.00">LtE</text>
</g>
<!-- ast.Compare object at 0x7030715de450&#45;&gt;ast.LtE object at 0x7031ebab7b90 -->
<g id="edge11" class="edge">
<title>ast.Compare object at 0x7030715de450&#45;&gt;ast.LtE object at 0x7031ebab7b90</title>
<path fill="none" stroke="black" d="M232.86,-362.14C209,-351.57 176.24,-337 147.5,-324 147.3,-323.91 147.1,-323.82 146.89,-323.73"/>
<polygon fill="black" stroke="black" points="148.11,-320.43 137.56,-319.48 145.21,-326.81 148.11,-320.43"/>
</g>
<!-- ast.Constant object at 0x7030711bddd0 -->
<g id="node13" class="node">
<title>ast.Constant object at 0x7030711bddd0</title>
<path fill="#66cdaa" stroke="black" d="M209,-324C209,-324 168,-324 168,-324 162,-324 156,-318 156,-312 156,-312 156,-300 156,-300 156,-294 162,-288 168,-288 168,-288 209,-288 209,-288 215,-288 221,-294 221,-300 221,-300 221,-312 221,-312 221,-318 215,-324 209,-324"/>
<text text-anchor="middle" x="188.5" y="-302.3" font-family="Times,serif" font-size="14.00">Constant</text>
</g>
<!-- ast.Compare object at 0x7030715de450&#45;&gt;ast.Constant object at 0x7030711bddd0 -->
<g id="edge12" class="edge">
<title>ast.Compare object at 0x7030715de450&#45;&gt;ast.Constant object at 0x7030711bddd0</title>
<path fill="none" stroke="black" d="M247.22,-359.7C237.58,-351.05 225.77,-340.45 215.27,-331.03"/>
<polygon fill="black" stroke="black" points="217.34,-328.18 207.56,-324.1 212.66,-333.39 217.34,-328.18"/>
</g>
<!-- ast.Load object at 0x7031ebab6a10 -->
<g id="node11" class="node">
<title>ast.Load object at 0x7031ebab6a10</title>
<path fill="#66cdaa" stroke="black" d="M784.5,-36C784.5,-36 754.5,-36 754.5,-36 748.5,-36 742.5,-30 742.5,-24 742.5,-24 742.5,-12 742.5,-12 742.5,-6 748.5,0 754.5,0 754.5,0 784.5,0 784.5,0 790.5,0 796.5,-6 796.5,-12 796.5,-12 796.5,-24 796.5,-24 796.5,-30 790.5,-36 784.5,-36"/>
<text text-anchor="middle" x="769.5" y="-14.3" font-family="Times,serif" font-size="14.00">Load</text>
</g>
<!-- ast.Name object at 0x703071665d90&#45;&gt;ast.Load object at 0x7031ebab6a10 -->
<g id="edge10" class="edge">
<title>ast.Name object at 0x703071665d90&#45;&gt;ast.Load object at 0x7031ebab6a10</title>
<path fill="none" stroke="black" d="M239.4,-290.12C193.87,-264.48 105.44,-211.67 89.5,-180 67.93,-137.12 56.9,-107.24 89.5,-72 133.34,-24.61 596.02,-19.5 732.07,-19.02"/>
<polygon fill="black" stroke="black" points="732.4,-22.52 742.39,-19 732.38,-15.52 732.4,-22.52"/>
</g>
<!-- ast.Constant object at 0x7030710fae50 -->
<g id="node15" class="node">
<title>ast.Constant object at 0x7030710fae50</title>
<path fill="#66cdaa" stroke="black" d="M53,-324C53,-324 12,-324 12,-324 6,-324 0,-318 0,-312 0,-312 0,-300 0,-300 0,-294 6,-288 12,-288 12,-288 53,-288 53,-288 59,-288 65,-294 65,-300 65,-300 65,-312 65,-312 65,-318 59,-324 53,-324"/>
<text text-anchor="middle" x="32.5" y="-302.3" font-family="Times,serif" font-size="14.00">Constant</text>
</g>
<!-- ast.Return object at 0x7030710f8550&#45;&gt;ast.Constant object at 0x7030710fae50 -->
<g id="edge14" class="edge">
<title>ast.Return object at 0x7030710f8550&#45;&gt;ast.Constant object at 0x7030710fae50</title>
<path fill="none" stroke="black" d="M160.4,-364.13C157.4,-362.72 154.39,-361.33 151.5,-360 126.05,-348.32 97.38,-335.55 74.56,-325.46"/>
<polygon fill="black" stroke="black" points="75.73,-322.15 65.17,-321.32 72.9,-328.55 75.73,-322.15"/>
</g>
<!-- ast.Name object at 0x703070f33610 -->
<g id="node17" class="node">
<title>ast.Name object at 0x703070f33610</title>
<path fill="#66cdaa" stroke="black" d="M581.5,-396C581.5,-396 551.5,-396 551.5,-396 545.5,-396 539.5,-390 539.5,-384 539.5,-384 539.5,-372 539.5,-372 539.5,-366 545.5,-360 551.5,-360 551.5,-360 581.5,-360 581.5,-360 587.5,-360 593.5,-366 593.5,-372 593.5,-372 593.5,-384 593.5,-384 593.5,-390 587.5,-396 581.5,-396"/>
<text text-anchor="middle" x="566.5" y="-374.3" font-family="Times,serif" font-size="14.00">Name</text>
</g>
<!-- ast.For object at 0x703071262d50&#45;&gt;ast.Name object at 0x703070f33610 -->
<g id="edge16" class="edge">
<title>ast.For object at 0x703071262d50&#45;&gt;ast.Name object at 0x703070f33610</title>
<path fill="none" stroke="black" d="M429.58,-437.44C457,-425.74 499.58,-407.56 529.97,-394.59"/>
<polygon fill="black" stroke="black" points="531.56,-397.72 539.38,-390.58 528.81,-391.28 531.56,-397.72"/>
</g>
<!-- ast.Call object at 0x703070f335d0 -->
<g id="node19" class="node">
<title>ast.Call object at 0x703070f335d0</title>
<path fill="#66cdaa" stroke="black" d="M479.5,-396C479.5,-396 449.5,-396 449.5,-396 443.5,-396 437.5,-390 437.5,-384 437.5,-384 437.5,-372 437.5,-372 437.5,-366 443.5,-360 449.5,-360 449.5,-360 479.5,-360 479.5,-360 485.5,-360 491.5,-366 491.5,-372 491.5,-372 491.5,-384 491.5,-384 491.5,-390 485.5,-396 479.5,-396"/>
<text text-anchor="middle" x="464.5" y="-374.3" font-family="Times,serif" font-size="14.00">Call</text>
</g>
<!-- ast.For object at 0x703071262d50&#45;&gt;ast.Call object at 0x703070f335d0 -->
<g id="edge18" class="edge">
<title>ast.For object at 0x703071262d50&#45;&gt;ast.Call object at 0x703070f335d0</title>
<path fill="none" stroke="black" d="M417.83,-431.7C425.26,-423.3 434.32,-413.07 442.48,-403.86"/>
<polygon fill="black" stroke="black" points="445.34,-405.91 449.35,-396.1 440.1,-401.27 445.34,-405.91"/>
</g>
<!-- ast.If object at 0x703070f33290 -->
<g id="node31" class="node">
<title>ast.If object at 0x703070f33290</title>
<path fill="#66cdaa" stroke="black" d="M353.5,-324C353.5,-324 323.5,-324 323.5,-324 317.5,-324 311.5,-318 311.5,-312 311.5,-312 311.5,-300 311.5,-300 311.5,-294 317.5,-288 323.5,-288 323.5,-288 353.5,-288 353.5,-288 359.5,-288 365.5,-294 365.5,-300 365.5,-300 365.5,-312 365.5,-312 365.5,-318 359.5,-324 353.5,-324"/>
<text text-anchor="middle" x="338.5" y="-302.3" font-family="Times,serif" font-size="14.00">If</text>
</g>
<!-- ast.For object at 0x703071262d50&#45;&gt;ast.If object at 0x703070f33290 -->
<g id="edge33" class="edge">
<title>ast.For object at 0x703071262d50&#45;&gt;ast.If object at 0x703070f33290</title>
<path fill="none" stroke="black" d="M394.78,-431.87C383.78,-407.46 363.48,-362.43 350.5,-333.64"/>
<polygon fill="black" stroke="black" points="353.55,-331.87 346.25,-324.19 347.17,-334.74 353.55,-331.87"/>
</g>
<!-- ast.Store object at 0x7031ebab6a90 -->
<g id="node18" class="node">
<title>ast.Store object at 0x7031ebab6a90</title>
<path fill="#66cdaa" stroke="black" d="M835.5,-180C835.5,-180 805.5,-180 805.5,-180 799.5,-180 793.5,-174 793.5,-168 793.5,-168 793.5,-156 793.5,-156 793.5,-150 799.5,-144 805.5,-144 805.5,-144 835.5,-144 835.5,-144 841.5,-144 847.5,-150 847.5,-156 847.5,-156 847.5,-168 847.5,-168 847.5,-174 841.5,-180 835.5,-180"/>
<text text-anchor="middle" x="820.5" y="-158.3" font-family="Times,serif" font-size="14.00">Store</text>
</g>
<!-- ast.Name object at 0x703070f33610&#45;&gt;ast.Store object at 0x7031ebab6a90 -->
<g id="edge17" class="edge">
<title>ast.Name object at 0x703070f33610&#45;&gt;ast.Store object at 0x7031ebab6a90</title>
<path fill="none" stroke="black" d="M578.14,-359.84C605.61,-319.43 672.65,-221.31 679.5,-216 710.42,-192.04 753.35,-177.98 783.7,-170.44"/>
<polygon fill="black" stroke="black" points="784.54,-173.84 793.47,-168.13 782.93,-167.02 784.54,-173.84"/>
</g>
<!-- ast.Name object at 0x703070f30210 -->
<g id="node20" class="node">
<title>ast.Name object at 0x703070f30210</title>
<path fill="#66cdaa" stroke="black" d="M581.5,-324C581.5,-324 551.5,-324 551.5,-324 545.5,-324 539.5,-318 539.5,-312 539.5,-312 539.5,-300 539.5,-300 539.5,-294 545.5,-288 551.5,-288 551.5,-288 581.5,-288 581.5,-288 587.5,-288 593.5,-294 593.5,-300 593.5,-300 593.5,-312 593.5,-312 593.5,-318 587.5,-324 581.5,-324"/>
<text text-anchor="middle" x="566.5" y="-302.3" font-family="Times,serif" font-size="14.00">Name</text>
</g>
<!-- ast.Call object at 0x703070f335d0&#45;&gt;ast.Name object at 0x703070f30210 -->
<g id="edge19" class="edge">
<title>ast.Call object at 0x703070f335d0&#45;&gt;ast.Name object at 0x703070f30210</title>
<path fill="none" stroke="black" d="M489.45,-359.88C502.54,-350.89 518.76,-339.76 532.94,-330.03"/>
<polygon fill="black" stroke="black" points="535.19,-332.73 541.45,-324.19 531.23,-326.96 535.19,-332.73"/>
</g>
<!-- ast.Constant object at 0x703070f302d0 -->
<g id="node21" class="node">
<title>ast.Constant object at 0x703070f302d0</title>
<path fill="#66cdaa" stroke="black" d="M509,-324C509,-324 468,-324 468,-324 462,-324 456,-318 456,-312 456,-312 456,-300 456,-300 456,-294 462,-288 468,-288 468,-288 509,-288 509,-288 515,-288 521,-294 521,-300 521,-300 521,-312 521,-312 521,-318 515,-324 509,-324"/>
<text text-anchor="middle" x="488.5" y="-302.3" font-family="Times,serif" font-size="14.00">Constant</text>
</g>
<!-- ast.Call object at 0x703070f335d0&#45;&gt;ast.Constant object at 0x703070f302d0 -->
<g id="edge21" class="edge">
<title>ast.Call object at 0x703070f335d0&#45;&gt;ast.Constant object at 0x703070f302d0</title>
<path fill="none" stroke="black" d="M470.43,-359.7C473.11,-351.9 476.33,-342.51 479.3,-333.83"/>
<polygon fill="black" stroke="black" points="482.7,-334.7 482.64,-324.1 476.08,-332.43 482.7,-334.7"/>
</g>
<!-- ast.BinOp object at 0x703070f33450 -->
<g id="node22" class="node">
<title>ast.BinOp object at 0x703070f33450</title>
<path fill="#66cdaa" stroke="black" d="M425.5,-324C425.5,-324 395.5,-324 395.5,-324 389.5,-324 383.5,-318 383.5,-312 383.5,-312 383.5,-300 383.5,-300 383.5,-294 389.5,-288 395.5,-288 395.5,-288 425.5,-288 425.5,-288 431.5,-288 437.5,-294 437.5,-300 437.5,-300 437.5,-312 437.5,-312 437.5,-318 431.5,-324 425.5,-324"/>
<text text-anchor="middle" x="410.5" y="-302.3" font-family="Times,serif" font-size="14.00">BinOp</text>
</g>
<!-- ast.Call object at 0x703070f335d0&#45;&gt;ast.BinOp object at 0x703070f33450 -->
<g id="edge22" class="edge">
<title>ast.Call object at 0x703070f335d0&#45;&gt;ast.BinOp object at 0x703070f33450</title>
<path fill="none" stroke="black" d="M451.15,-359.7C444.74,-351.39 436.94,-341.28 429.89,-332.14"/>
<polygon fill="black" stroke="black" points="432.57,-329.88 423.69,-324.1 427.03,-334.16 432.57,-329.88"/>
</g>
<!-- ast.Name object at 0x703070f30210&#45;&gt;ast.Load object at 0x7031ebab6a10 -->
<g id="edge20" class="edge">
<title>ast.Name object at 0x703070f30210&#45;&gt;ast.Load object at 0x7031ebab6a10</title>
<path fill="none" stroke="black" d="M568.81,-287.78C575.27,-245.74 597.22,-136.63 657.5,-72 677.62,-50.43 708.31,-36.76 732.48,-28.72"/>
<polygon fill="black" stroke="black" points="733.57,-32.05 742.06,-25.71 731.47,-25.37 733.57,-32.05"/>
</g>
<!-- ast.Call object at 0x703070f31310 -->
<g id="node23" class="node">
<title>ast.Call object at 0x703070f31310</title>
<path fill="#66cdaa" stroke="black" d="M504.5,-252C504.5,-252 474.5,-252 474.5,-252 468.5,-252 462.5,-246 462.5,-240 462.5,-240 462.5,-228 462.5,-228 462.5,-222 468.5,-216 474.5,-216 474.5,-216 504.5,-216 504.5,-216 510.5,-216 516.5,-222 516.5,-228 516.5,-228 516.5,-240 516.5,-240 516.5,-246 510.5,-252 504.5,-252"/>
<text text-anchor="middle" x="489.5" y="-230.3" font-family="Times,serif" font-size="14.00">Call</text>
</g>
<!-- ast.BinOp object at 0x703070f33450&#45;&gt;ast.Call object at 0x703070f31310 -->
<g id="edge23" class="edge">
<title>ast.BinOp object at 0x703070f33450&#45;&gt;ast.Call object at 0x703070f31310</title>
<path fill="none" stroke="black" d="M430.03,-287.7C439.88,-278.97 451.99,-268.24 462.7,-258.75"/>
<polygon fill="black" stroke="black" points="465.03,-261.36 470.2,-252.1 460.39,-256.12 465.03,-261.36"/>
</g>
<!-- ast.Add object at 0x7031ebab6f10 -->
<g id="node29" class="node">
<title>ast.Add object at 0x7031ebab6f10</title>
<path fill="#66cdaa" stroke="black" d="M911.5,-108C911.5,-108 881.5,-108 881.5,-108 875.5,-108 869.5,-102 869.5,-96 869.5,-96 869.5,-84 869.5,-84 869.5,-78 875.5,-72 881.5,-72 881.5,-72 911.5,-72 911.5,-72 917.5,-72 923.5,-78 923.5,-84 923.5,-84 923.5,-96 923.5,-96 923.5,-102 917.5,-108 911.5,-108"/>
<text text-anchor="middle" x="896.5" y="-86.3" font-family="Times,serif" font-size="14.00">Add</text>
</g>
<!-- ast.BinOp object at 0x703070f33450&#45;&gt;ast.Add object at 0x7031ebab6f10 -->
<g id="edge31" class="edge">
<title>ast.BinOp object at 0x703070f33450&#45;&gt;ast.Add object at 0x7031ebab6f10</title>
<path fill="none" stroke="black" d="M437.55,-292.5C440.9,-290.97 444.27,-289.44 447.5,-288 627.31,-207.52 676.59,-191.27 860.28,-108.04"/>
<polygon fill="black" stroke="black" points="861.75,-111.22 869.41,-103.9 858.86,-104.84 861.75,-111.22"/>
</g>
<!-- ast.Constant object at 0x703070f33150 -->
<g id="node30" class="node">
<title>ast.Constant object at 0x703070f33150</title>
<path fill="#66cdaa" stroke="black" d="M432,-252C432,-252 391,-252 391,-252 385,-252 379,-246 379,-240 379,-240 379,-228 379,-228 379,-222 385,-216 391,-216 391,-216 432,-216 432,-216 438,-216 444,-222 444,-228 444,-228 444,-240 444,-240 444,-246 438,-252 432,-252"/>
<text text-anchor="middle" x="411.5" y="-230.3" font-family="Times,serif" font-size="14.00">Constant</text>
</g>
<!-- ast.BinOp object at 0x703070f33450&#45;&gt;ast.Constant object at 0x703070f33150 -->
<g id="edge32" class="edge">
<title>ast.BinOp object at 0x703070f33450&#45;&gt;ast.Constant object at 0x703070f33150</title>
<path fill="none" stroke="black" d="M410.75,-287.7C410.86,-279.98 410.99,-270.71 411.11,-262.11"/>
<polygon fill="black" stroke="black" points="414.61,-262.15 411.26,-252.1 407.61,-262.05 414.61,-262.15"/>
</g>
<!-- ast.Name object at 0x703070f33410 -->
<g id="node24" class="node">
<title>ast.Name object at 0x703070f33410</title>
<path fill="#66cdaa" stroke="black" d="M524.5,-180C524.5,-180 494.5,-180 494.5,-180 488.5,-180 482.5,-174 482.5,-168 482.5,-168 482.5,-156 482.5,-156 482.5,-150 488.5,-144 494.5,-144 494.5,-144 524.5,-144 524.5,-144 530.5,-144 536.5,-150 536.5,-156 536.5,-156 536.5,-168 536.5,-168 536.5,-174 530.5,-180 524.5,-180"/>
<text text-anchor="middle" x="509.5" y="-158.3" font-family="Times,serif" font-size="14.00">Name</text>
</g>
<!-- ast.Call object at 0x703070f31310&#45;&gt;ast.Name object at 0x703070f33410 -->
<g id="edge24" class="edge">
<title>ast.Call object at 0x703070f31310&#45;&gt;ast.Name object at 0x703070f33410</title>
<path fill="none" stroke="black" d="M494.44,-215.7C496.67,-207.9 499.35,-198.51 501.83,-189.83"/>
<polygon fill="black" stroke="black" points="505.23,-190.68 504.61,-180.1 498.5,-188.76 505.23,-190.68"/>
</g>
<!-- ast.BinOp object at 0x703070f32fd0 -->
<g id="node25" class="node">
<title>ast.BinOp object at 0x703070f32fd0</title>
<path fill="#66cdaa" stroke="black" d="M452.5,-180C452.5,-180 422.5,-180 422.5,-180 416.5,-180 410.5,-174 410.5,-168 410.5,-168 410.5,-156 410.5,-156 410.5,-150 416.5,-144 422.5,-144 422.5,-144 452.5,-144 452.5,-144 458.5,-144 464.5,-150 464.5,-156 464.5,-156 464.5,-168 464.5,-168 464.5,-174 458.5,-180 452.5,-180"/>
<text text-anchor="middle" x="437.5" y="-158.3" font-family="Times,serif" font-size="14.00">BinOp</text>
</g>
<!-- ast.Call object at 0x703070f31310&#45;&gt;ast.BinOp object at 0x703070f32fd0 -->
<g id="edge26" class="edge">
<title>ast.Call object at 0x703070f31310&#45;&gt;ast.BinOp object at 0x703070f32fd0</title>
<path fill="none" stroke="black" d="M476.65,-215.7C470.47,-207.39 462.96,-197.28 456.18,-188.14"/>
<polygon fill="black" stroke="black" points="458.98,-186.04 450.21,-180.1 453.36,-190.22 458.98,-186.04"/>
</g>
<!-- ast.Name object at 0x703070f33410&#45;&gt;ast.Load object at 0x7031ebab6a10 -->
<g id="edge25" class="edge">
<title>ast.Name object at 0x703070f33410&#45;&gt;ast.Load object at 0x7031ebab6a10</title>
<path fill="none" stroke="black" d="M517.9,-143.87C528.68,-123.66 549.3,-90.48 576.5,-72 624.09,-39.67 690.86,-26.99 732.09,-22.06"/>
<polygon fill="black" stroke="black" points="732.69,-25.52 742.25,-20.95 731.93,-18.56 732.69,-25.52"/>
</g>
<!-- ast.Name object at 0x703070f32d50 -->
<g id="node26" class="node">
<title>ast.Name object at 0x703070f32d50</title>
<path fill="#66cdaa" stroke="black" d="M512.5,-108C512.5,-108 482.5,-108 482.5,-108 476.5,-108 470.5,-102 470.5,-96 470.5,-96 470.5,-84 470.5,-84 470.5,-78 476.5,-72 482.5,-72 482.5,-72 512.5,-72 512.5,-72 518.5,-72 524.5,-78 524.5,-84 524.5,-84 524.5,-96 524.5,-96 524.5,-102 518.5,-108 512.5,-108"/>
<text text-anchor="middle" x="497.5" y="-86.3" font-family="Times,serif" font-size="14.00">Name</text>
</g>
<!-- ast.BinOp object at 0x703070f32fd0&#45;&gt;ast.Name object at 0x703070f32d50 -->
<g id="edge27" class="edge">
<title>ast.BinOp object at 0x703070f32fd0&#45;&gt;ast.Name object at 0x703070f32d50</title>
<path fill="none" stroke="black" d="M452.33,-143.7C459.52,-135.3 468.3,-125.07 476.19,-115.86"/>
<polygon fill="black" stroke="black" points="478.99,-117.97 482.84,-108.1 473.67,-113.42 478.99,-117.97"/>
</g>
<!-- ast.Pow object at 0x7031ebab7210 -->
<g id="node27" class="node">
<title>ast.Pow object at 0x7031ebab7210</title>
<path fill="#66cdaa" stroke="black" d="M356.5,-108C356.5,-108 326.5,-108 326.5,-108 320.5,-108 314.5,-102 314.5,-96 314.5,-96 314.5,-84 314.5,-84 314.5,-78 320.5,-72 326.5,-72 326.5,-72 356.5,-72 356.5,-72 362.5,-72 368.5,-78 368.5,-84 368.5,-84 368.5,-96 368.5,-96 368.5,-102 362.5,-108 356.5,-108"/>
<text text-anchor="middle" x="341.5" y="-86.3" font-family="Times,serif" font-size="14.00">Pow</text>
</g>
<!-- ast.BinOp object at 0x703070f32fd0&#45;&gt;ast.Pow object at 0x7031ebab7210 -->
<g id="edge29" class="edge">
<title>ast.BinOp object at 0x703070f32fd0&#45;&gt;ast.Pow object at 0x7031ebab7210</title>
<path fill="none" stroke="black" d="M413.77,-143.7C401.56,-134.8 386.51,-123.82 373.32,-114.2"/>
<polygon fill="black" stroke="black" points="375.1,-111.17 364.96,-108.1 370.98,-116.82 375.1,-111.17"/>
</g>
<!-- ast.Constant object at 0x703070f33010 -->
<g id="node28" class="node">
<title>ast.Constant object at 0x703070f33010</title>
<path fill="#66cdaa" stroke="black" d="M440,-108C440,-108 399,-108 399,-108 393,-108 387,-102 387,-96 387,-96 387,-84 387,-84 387,-78 393,-72 399,-72 399,-72 440,-72 440,-72 446,-72 452,-78 452,-84 452,-84 452,-96 452,-96 452,-102 446,-108 440,-108"/>
<text text-anchor="middle" x="419.5" y="-86.3" font-family="Times,serif" font-size="14.00">Constant</text>
</g>
<!-- ast.BinOp object at 0x703070f32fd0&#45;&gt;ast.Constant object at 0x703070f33010 -->
<g id="edge30" class="edge">
<title>ast.BinOp object at 0x703070f32fd0&#45;&gt;ast.Constant object at 0x703070f33010</title>
<path fill="none" stroke="black" d="M433.05,-143.7C431.05,-135.9 428.63,-126.51 426.4,-117.83"/>
<polygon fill="black" stroke="black" points="429.78,-116.92 423.9,-108.1 423,-118.66 429.78,-116.92"/>
</g>
<!-- ast.Name object at 0x703070f32d50&#45;&gt;ast.Load object at 0x7031ebab6a10 -->
<g id="edge28" class="edge">
<title>ast.Name object at 0x703070f32d50&#45;&gt;ast.Load object at 0x7031ebab6a10</title>
<path fill="none" stroke="black" d="M524.61,-77.01C529.2,-75.2 533.95,-73.45 538.5,-72 605.59,-50.56 686.23,-34.1 732.31,-25.54"/>
<polygon fill="black" stroke="black" points="733.22,-28.93 742.43,-23.69 731.96,-22.05 733.22,-28.93"/>
</g>
<!-- ast.Compare object at 0x703070f33190 -->
<g id="node32" class="node">
<title>ast.Compare object at 0x703070f33190</title>
<path fill="#66cdaa" stroke="black" d="M250,-252C250,-252 207,-252 207,-252 201,-252 195,-246 195,-240 195,-240 195,-228 195,-228 195,-222 201,-216 207,-216 207,-216 250,-216 250,-216 256,-216 262,-222 262,-228 262,-228 262,-240 262,-240 262,-246 256,-252 250,-252"/>
<text text-anchor="middle" x="228.5" y="-230.3" font-family="Times,serif" font-size="14.00">Compare</text>
</g>
<!-- ast.If object at 0x703070f33290&#45;&gt;ast.Compare object at 0x703070f33190 -->
<g id="edge34" class="edge">
<title>ast.If object at 0x703070f33290&#45;&gt;ast.Compare object at 0x703070f33190</title>
<path fill="none" stroke="black" d="M311.59,-287.88C297.34,-278.81 279.65,-267.55 264.26,-257.76"/>
<polygon fill="black" stroke="black" points="265.83,-254.61 255.51,-252.19 262.07,-260.51 265.83,-254.61"/>
</g>
<!-- ast.Return object at 0x703070f32110 -->
<g id="node39" class="node">
<title>ast.Return object at 0x703070f32110</title>
<path fill="#66cdaa" stroke="black" d="M348.5,-252C348.5,-252 318.5,-252 318.5,-252 312.5,-252 306.5,-246 306.5,-240 306.5,-240 306.5,-228 306.5,-228 306.5,-222 312.5,-216 318.5,-216 318.5,-216 348.5,-216 348.5,-216 354.5,-216 360.5,-222 360.5,-228 360.5,-228 360.5,-240 360.5,-240 360.5,-246 354.5,-252 348.5,-252"/>
<text text-anchor="middle" x="333.5" y="-230.3" font-family="Times,serif" font-size="14.00">Return</text>
</g>
<!-- ast.If object at 0x703070f33290&#45;&gt;ast.Return object at 0x703070f32110 -->
<g id="edge43" class="edge">
<title>ast.If object at 0x703070f33290&#45;&gt;ast.Return object at 0x703070f32110</title>
<path fill="none" stroke="black" d="M337.26,-287.7C336.71,-279.98 336.05,-270.71 335.44,-262.11"/>
<polygon fill="black" stroke="black" points="338.93,-261.83 334.72,-252.1 331.94,-262.33 338.93,-261.83"/>
</g>
<!-- ast.BinOp object at 0x703070f32f90 -->
<g id="node33" class="node">
<title>ast.BinOp object at 0x703070f32f90</title>
<path fill="#66cdaa" stroke="black" d="M140.5,-180C140.5,-180 110.5,-180 110.5,-180 104.5,-180 98.5,-174 98.5,-168 98.5,-168 98.5,-156 98.5,-156 98.5,-150 104.5,-144 110.5,-144 110.5,-144 140.5,-144 140.5,-144 146.5,-144 152.5,-150 152.5,-156 152.5,-156 152.5,-168 152.5,-168 152.5,-174 146.5,-180 140.5,-180"/>
<text text-anchor="middle" x="125.5" y="-158.3" font-family="Times,serif" font-size="14.00">BinOp</text>
</g>
<!-- ast.Compare object at 0x703070f33190&#45;&gt;ast.BinOp object at 0x703070f32f90 -->
<g id="edge35" class="edge">
<title>ast.Compare object at 0x703070f33190&#45;&gt;ast.BinOp object at 0x703070f32f90</title>
<path fill="none" stroke="black" d="M203.3,-215.88C190.09,-206.89 173.71,-195.76 159.39,-186.03"/>
<polygon fill="black" stroke="black" points="161.03,-182.92 150.79,-180.19 157.1,-188.71 161.03,-182.92"/>
</g>
<!-- ast.Eq object at 0x7031ebab7a10 -->
<g id="node37" class="node">
<title>ast.Eq object at 0x7031ebab7a10</title>
<path fill="#66cdaa" stroke="black" d="M296.5,-180C296.5,-180 266.5,-180 266.5,-180 260.5,-180 254.5,-174 254.5,-168 254.5,-168 254.5,-156 254.5,-156 254.5,-150 260.5,-144 266.5,-144 266.5,-144 296.5,-144 296.5,-144 302.5,-144 308.5,-150 308.5,-156 308.5,-156 308.5,-168 308.5,-168 308.5,-174 302.5,-180 296.5,-180"/>
<text text-anchor="middle" x="281.5" y="-158.3" font-family="Times,serif" font-size="14.00">Eq</text>
</g>
<!-- ast.Compare object at 0x703070f33190&#45;&gt;ast.Eq object at 0x7031ebab7a10 -->
<g id="edge41" class="edge">
<title>ast.Compare object at 0x703070f33190&#45;&gt;ast.Eq object at 0x7031ebab7a10</title>
<path fill="none" stroke="black" d="M241.6,-215.7C247.89,-207.39 255.55,-197.28 262.46,-188.14"/>
<polygon fill="black" stroke="black" points="265.3,-190.19 268.55,-180.1 259.72,-185.96 265.3,-190.19"/>
</g>
<!-- ast.Constant object at 0x703070f33210 -->
<g id="node38" class="node">
<title>ast.Constant object at 0x703070f33210</title>
<path fill="#66cdaa" stroke="black" d="M224,-180C224,-180 183,-180 183,-180 177,-180 171,-174 171,-168 171,-168 171,-156 171,-156 171,-150 177,-144 183,-144 183,-144 224,-144 224,-144 230,-144 236,-150 236,-156 236,-156 236,-168 236,-168 236,-174 230,-180 224,-180"/>
<text text-anchor="middle" x="203.5" y="-158.3" font-family="Times,serif" font-size="14.00">Constant</text>
</g>
<!-- ast.Compare object at 0x703070f33190&#45;&gt;ast.Constant object at 0x703070f33210 -->
<g id="edge42" class="edge">
<title>ast.Compare object at 0x703070f33190&#45;&gt;ast.Constant object at 0x703070f33210</title>
<path fill="none" stroke="black" d="M222.32,-215.7C219.5,-207.81 216.11,-198.3 212.98,-189.55"/>
<polygon fill="black" stroke="black" points="216.27,-188.34 209.61,-180.1 209.68,-190.7 216.27,-188.34"/>
</g>
<!-- ast.Name object at 0x703070f32610 -->
<g id="node34" class="node">
<title>ast.Name object at 0x703070f32610</title>
<path fill="#66cdaa" stroke="black" d="M284.5,-108C284.5,-108 254.5,-108 254.5,-108 248.5,-108 242.5,-102 242.5,-96 242.5,-96 242.5,-84 242.5,-84 242.5,-78 248.5,-72 254.5,-72 254.5,-72 284.5,-72 284.5,-72 290.5,-72 296.5,-78 296.5,-84 296.5,-84 296.5,-96 296.5,-96 296.5,-102 290.5,-108 284.5,-108"/>
<text text-anchor="middle" x="269.5" y="-86.3" font-family="Times,serif" font-size="14.00">Name</text>
</g>
<!-- ast.BinOp object at 0x703070f32f90&#45;&gt;ast.Name object at 0x703070f32610 -->
<g id="edge36" class="edge">
<title>ast.BinOp object at 0x703070f32f90&#45;&gt;ast.Name object at 0x703070f32610</title>
<path fill="none" stroke="black" d="M152.59,-147.83C175.27,-136.81 207.86,-120.97 232.87,-108.81"/>
<polygon fill="black" stroke="black" points="234.58,-111.87 242.05,-104.35 231.52,-105.57 234.58,-111.87"/>
</g>
<!-- ast.Mod object at 0x7031ebab7190 -->
<g id="node35" class="node">
<title>ast.Mod object at 0x7031ebab7190</title>
<path fill="#66cdaa" stroke="black" d="M212.5,-108C212.5,-108 182.5,-108 182.5,-108 176.5,-108 170.5,-102 170.5,-96 170.5,-96 170.5,-84 170.5,-84 170.5,-78 176.5,-72 182.5,-72 182.5,-72 212.5,-72 212.5,-72 218.5,-72 224.5,-78 224.5,-84 224.5,-84 224.5,-96 224.5,-96 224.5,-102 218.5,-108 212.5,-108"/>
<text text-anchor="middle" x="197.5" y="-86.3" font-family="Times,serif" font-size="14.00">Mod</text>
</g>
<!-- ast.BinOp object at 0x703070f32f90&#45;&gt;ast.Mod object at 0x7031ebab7190 -->
<g id="edge38" class="edge">
<title>ast.BinOp object at 0x703070f32f90&#45;&gt;ast.Mod object at 0x7031ebab7190</title>
<path fill="none" stroke="black" d="M143.3,-143.7C152.1,-135.14 162.88,-124.66 172.5,-115.3"/>
<polygon fill="black" stroke="black" points="175.18,-117.58 179.91,-108.1 170.3,-112.57 175.18,-117.58"/>
</g>
<!-- ast.Name object at 0x703070f32750 -->
<g id="node36" class="node">
<title>ast.Name object at 0x703070f32750</title>
<path fill="#66cdaa" stroke="black" d="M140.5,-108C140.5,-108 110.5,-108 110.5,-108 104.5,-108 98.5,-102 98.5,-96 98.5,-96 98.5,-84 98.5,-84 98.5,-78 104.5,-72 110.5,-72 110.5,-72 140.5,-72 140.5,-72 146.5,-72 152.5,-78 152.5,-84 152.5,-84 152.5,-96 152.5,-96 152.5,-102 146.5,-108 140.5,-108"/>
<text text-anchor="middle" x="125.5" y="-86.3" font-family="Times,serif" font-size="14.00">Name</text>
</g>
<!-- ast.BinOp object at 0x703070f32f90&#45;&gt;ast.Name object at 0x703070f32750 -->
<g id="edge39" class="edge">
<title>ast.BinOp object at 0x703070f32f90&#45;&gt;ast.Name object at 0x703070f32750</title>
<path fill="none" stroke="black" d="M125.5,-143.7C125.5,-135.98 125.5,-126.71 125.5,-118.11"/>
<polygon fill="black" stroke="black" points="129,-118.1 125.5,-108.1 122,-118.1 129,-118.1"/>
</g>
<!-- ast.Name object at 0x703070f32610&#45;&gt;ast.Load object at 0x7031ebab6a10 -->
<g id="edge37" class="edge">
<title>ast.Name object at 0x703070f32610&#45;&gt;ast.Load object at 0x7031ebab6a10</title>
<path fill="none" stroke="black" d="M296.66,-75.05C299.59,-73.88 302.58,-72.83 305.5,-72 459.79,-28.06 652.77,-20.38 732.45,-19.16"/>
<polygon fill="black" stroke="black" points="732.53,-22.66 742.49,-19.03 732.45,-15.66 732.53,-22.66"/>
</g>
<!-- ast.Name object at 0x703070f32750&#45;&gt;ast.Load object at 0x7031ebab6a10 -->
<g id="edge40" class="edge">
<title>ast.Name object at 0x703070f32750&#45;&gt;ast.Load object at 0x7031ebab6a10</title>
<path fill="none" stroke="black" d="M152.64,-74.97C155.57,-73.82 158.56,-72.79 161.5,-72 270.23,-42.6 617.73,-25.48 732.4,-20.52"/>
<polygon fill="black" stroke="black" points="732.6,-24.01 742.44,-20.09 732.3,-17.02 732.6,-24.01"/>
</g>
<!-- ast.Constant object at 0x703070f32250 -->
<g id="node40" class="node">
<title>ast.Constant object at 0x703070f32250</title>
<path fill="#66cdaa" stroke="black" d="M380,-180C380,-180 339,-180 339,-180 333,-180 327,-174 327,-168 327,-168 327,-156 327,-156 327,-150 333,-144 339,-144 339,-144 380,-144 380,-144 386,-144 392,-150 392,-156 392,-156 392,-168 392,-168 392,-174 386,-180 380,-180"/>
<text text-anchor="middle" x="359.5" y="-158.3" font-family="Times,serif" font-size="14.00">Constant</text>
</g>
<!-- ast.Return object at 0x703070f32110&#45;&gt;ast.Constant object at 0x703070f32250 -->
<g id="edge44" class="edge">
<title>ast.Return object at 0x703070f32110&#45;&gt;ast.Constant object at 0x703070f32250</title>
<path fill="none" stroke="black" d="M339.93,-215.7C342.86,-207.81 346.39,-198.3 349.64,-189.55"/>
<polygon fill="black" stroke="black" points="352.95,-190.7 353.15,-180.1 346.38,-188.26 352.95,-190.7"/>
</g>
<!-- ast.Constant object at 0x703070f321d0 -->
<g id="node42" class="node">
<title>ast.Constant object at 0x703070f321d0</title>
<path fill="#66cdaa" stroke="black" d="M58,-396C58,-396 17,-396 17,-396 11,-396 5,-390 5,-384 5,-384 5,-372 5,-372 5,-366 11,-360 17,-360 17,-360 58,-360 58,-360 64,-360 70,-366 70,-372 70,-372 70,-384 70,-384 70,-390 64,-396 58,-396"/>
<text text-anchor="middle" x="37.5" y="-374.3" font-family="Times,serif" font-size="14.00">Constant</text>
</g>
<!-- ast.Return object at 0x703070f330d0&#45;&gt;ast.Constant object at 0x703070f321d0 -->
<g id="edge46" class="edge">
<title>ast.Return object at 0x703070f330d0&#45;&gt;ast.Constant object at 0x703070f321d0</title>
<path fill="none" stroke="black" d="M86.43,-431.7C78.56,-423.22 68.94,-412.86 60.33,-403.58"/>
<polygon fill="black" stroke="black" points="62.75,-401.05 53.38,-396.1 57.62,-405.81 62.75,-401.05"/>
</g>
<!-- ast.Tuple object at 0x703070f31350 -->
<g id="node44" class="node">
<title>ast.Tuple object at 0x703070f31350</title>
<path fill="#66cdaa" stroke="black" d="M907.5,-324C907.5,-324 877.5,-324 877.5,-324 871.5,-324 865.5,-318 865.5,-312 865.5,-312 865.5,-300 865.5,-300 865.5,-294 871.5,-288 877.5,-288 877.5,-288 907.5,-288 907.5,-288 913.5,-288 919.5,-294 919.5,-300 919.5,-300 919.5,-312 919.5,-312 919.5,-318 913.5,-324 907.5,-324"/>
<text text-anchor="middle" x="892.5" y="-302.3" font-family="Times,serif" font-size="14.00">Tuple</text>
</g>
<!-- ast.Assign object at 0x703070f32210&#45;&gt;ast.Tuple object at 0x703070f31350 -->
<g id="edge48" class="edge">
<title>ast.Assign object at 0x703070f32210&#45;&gt;ast.Tuple object at 0x703070f31350</title>
<path fill="none" stroke="black" d="M747.75,-365.91C776.94,-354.03 823.42,-335.11 855.81,-321.93"/>
<polygon fill="black" stroke="black" points="857.43,-325.05 865.37,-318.04 854.79,-318.57 857.43,-325.05"/>
</g>
<!-- ast.Tuple object at 0x703070f31e90 -->
<g id="node47" class="node">
<title>ast.Tuple object at 0x703070f31e90</title>
<path fill="#66cdaa" stroke="black" d="M735.5,-324C735.5,-324 705.5,-324 705.5,-324 699.5,-324 693.5,-318 693.5,-312 693.5,-312 693.5,-300 693.5,-300 693.5,-294 699.5,-288 705.5,-288 705.5,-288 735.5,-288 735.5,-288 741.5,-288 747.5,-294 747.5,-300 747.5,-300 747.5,-312 747.5,-312 747.5,-318 741.5,-324 735.5,-324"/>
<text text-anchor="middle" x="720.5" y="-302.3" font-family="Times,serif" font-size="14.00">Tuple</text>
</g>
<!-- ast.Assign object at 0x703070f32210&#45;&gt;ast.Tuple object at 0x703070f31e90 -->
<g id="edge54" class="edge">
<title>ast.Assign object at 0x703070f32210&#45;&gt;ast.Tuple object at 0x703070f31e90</title>
<path fill="none" stroke="black" d="M720.5,-359.7C720.5,-351.98 720.5,-342.71 720.5,-334.11"/>
<polygon fill="black" stroke="black" points="724,-334.1 720.5,-324.1 717,-334.1 724,-334.1"/>
</g>
<!-- ast.Tuple object at 0x703070f31350&#45;&gt;ast.Store object at 0x7031ebab6a90 -->
<g id="edge53" class="edge">
<title>ast.Tuple object at 0x703070f31350&#45;&gt;ast.Store object at 0x7031ebab6a90</title>
<path fill="none" stroke="black" d="M883.82,-287.87C871.38,-263.35 848.4,-218.03 833.81,-189.26"/>
<polygon fill="black" stroke="black" points="836.86,-187.53 829.22,-180.19 830.62,-190.69 836.86,-187.53"/>
</g>
<!-- ast.Name object at 0x703070f325d0 -->
<g id="node45" class="node">
<title>ast.Name object at 0x703070f325d0</title>
<path fill="#66cdaa" stroke="black" d="M934.5,-252C934.5,-252 904.5,-252 904.5,-252 898.5,-252 892.5,-246 892.5,-240 892.5,-240 892.5,-228 892.5,-228 892.5,-222 898.5,-216 904.5,-216 904.5,-216 934.5,-216 934.5,-216 940.5,-216 946.5,-222 946.5,-228 946.5,-228 946.5,-240 946.5,-240 946.5,-246 940.5,-252 934.5,-252"/>
<text text-anchor="middle" x="919.5" y="-230.3" font-family="Times,serif" font-size="14.00">Name</text>
</g>
<!-- ast.Tuple object at 0x703070f31350&#45;&gt;ast.Name object at 0x703070f325d0 -->
<g id="edge49" class="edge">
<title>ast.Tuple object at 0x703070f31350&#45;&gt;ast.Name object at 0x703070f325d0</title>
<path fill="none" stroke="black" d="M899.17,-287.7C902.21,-279.81 905.88,-270.3 909.26,-261.55"/>
<polygon fill="black" stroke="black" points="912.57,-262.69 912.9,-252.1 906.04,-260.17 912.57,-262.69"/>
</g>
<!-- ast.Name object at 0x703070f32090 -->
<g id="node46" class="node">
<title>ast.Name object at 0x703070f32090</title>
<path fill="#66cdaa" stroke="black" d="M1006.5,-252C1006.5,-252 976.5,-252 976.5,-252 970.5,-252 964.5,-246 964.5,-240 964.5,-240 964.5,-228 964.5,-228 964.5,-222 970.5,-216 976.5,-216 976.5,-216 1006.5,-216 1006.5,-216 1012.5,-216 1018.5,-222 1018.5,-228 1018.5,-228 1018.5,-240 1018.5,-240 1018.5,-246 1012.5,-252 1006.5,-252"/>
<text text-anchor="middle" x="991.5" y="-230.3" font-family="Times,serif" font-size="14.00">Name</text>
</g>
<!-- ast.Tuple object at 0x703070f31350&#45;&gt;ast.Name object at 0x703070f32090 -->
<g id="edge51" class="edge">
<title>ast.Tuple object at 0x703070f31350&#45;&gt;ast.Name object at 0x703070f32090</title>
<path fill="none" stroke="black" d="M916.72,-287.88C929.42,-278.89 945.16,-267.76 958.92,-258.03"/>
<polygon fill="black" stroke="black" points="961.04,-260.82 967.19,-252.19 957,-255.11 961.04,-260.82"/>
</g>
<!-- ast.Name object at 0x703070f325d0&#45;&gt;ast.Store object at 0x7031ebab6a90 -->
<g id="edge50" class="edge">
<title>ast.Name object at 0x703070f325d0&#45;&gt;ast.Store object at 0x7031ebab6a90</title>
<path fill="none" stroke="black" d="M895.28,-215.88C882.58,-206.89 866.84,-195.76 853.08,-186.03"/>
<polygon fill="black" stroke="black" points="855,-183.11 844.81,-180.19 850.96,-188.82 855,-183.11"/>
</g>
<!-- ast.Name object at 0x703070f32090&#45;&gt;ast.Store object at 0x7031ebab6a90 -->
<g id="edge52" class="edge">
<title>ast.Name object at 0x703070f32090&#45;&gt;ast.Store object at 0x7031ebab6a90</title>
<path fill="none" stroke="black" d="M964.49,-219.92C961.48,-218.56 958.43,-217.22 955.5,-216 914.99,-199.11 901.41,-198.08 856.85,-179.95"/>
<polygon fill="black" stroke="black" points="858.08,-176.67 847.51,-176.08 855.41,-183.14 858.08,-176.67"/>
</g>
<!-- ast.Tuple object at 0x703070f31e90&#45;&gt;ast.Load object at 0x7031ebab6a10 -->
<g id="edge57" class="edge">
<title>ast.Tuple object at 0x703070f31e90&#45;&gt;ast.Load object at 0x7031ebab6a10</title>
<path fill="none" stroke="black" d="M702.37,-287.66C693.66,-278.08 684.14,-265.41 679.5,-252 653.37,-176.39 638.63,-141.36 678.5,-72 690.17,-51.7 712.93,-38.45 732.77,-30.27"/>
<polygon fill="black" stroke="black" points="734.12,-33.5 742.21,-26.66 731.62,-26.97 734.12,-33.5"/>
</g>
<!-- ast.Constant object at 0x703070f331d0 -->
<g id="node48" class="node">
<title>ast.Constant object at 0x703070f331d0</title>
<path fill="#66cdaa" stroke="black" d="M741,-252C741,-252 700,-252 700,-252 694,-252 688,-246 688,-240 688,-240 688,-228 688,-228 688,-222 694,-216 700,-216 700,-216 741,-216 741,-216 747,-216 753,-222 753,-228 753,-228 753,-240 753,-240 753,-246 747,-252 741,-252"/>
<text text-anchor="middle" x="720.5" y="-230.3" font-family="Times,serif" font-size="14.00">Constant</text>
</g>
<!-- ast.Tuple object at 0x703070f31e90&#45;&gt;ast.Constant object at 0x703070f331d0 -->
<g id="edge55" class="edge">
<title>ast.Tuple object at 0x703070f31e90&#45;&gt;ast.Constant object at 0x703070f331d0</title>
<path fill="none" stroke="black" d="M720.5,-287.7C720.5,-279.98 720.5,-270.71 720.5,-262.11"/>
<polygon fill="black" stroke="black" points="724,-262.1 720.5,-252.1 717,-262.1 724,-262.1"/>
</g>
<!-- ast.Constant object at 0x703070f320d0 -->
<g id="node49" class="node">
<title>ast.Constant object at 0x703070f320d0</title>
<path fill="#66cdaa" stroke="black" d="M824,-252C824,-252 783,-252 783,-252 777,-252 771,-246 771,-240 771,-240 771,-228 771,-228 771,-222 777,-216 783,-216 783,-216 824,-216 824,-216 830,-216 836,-222 836,-228 836,-228 836,-240 836,-240 836,-246 830,-252 824,-252"/>
<text text-anchor="middle" x="803.5" y="-230.3" font-family="Times,serif" font-size="14.00">Constant</text>
</g>
<!-- ast.Tuple object at 0x703070f31e90&#45;&gt;ast.Constant object at 0x703070f320d0 -->
<g id="edge56" class="edge">
<title>ast.Tuple object at 0x703070f31e90&#45;&gt;ast.Constant object at 0x703070f320d0</title>
<path fill="none" stroke="black" d="M741.02,-287.7C751.37,-278.97 764.09,-268.24 775.34,-258.75"/>
<polygon fill="black" stroke="black" points="777.83,-261.23 783.22,-252.1 773.32,-255.88 777.83,-261.23"/>
</g>
<!-- ast.SetComp object at 0x703070f31750 -->
<g id="node51" class="node">
<title>ast.SetComp object at 0x703070f31750</title>
<path fill="#66cdaa" stroke="black" d="M1157.5,-396C1157.5,-396 1113.5,-396 1113.5,-396 1107.5,-396 1101.5,-390 1101.5,-384 1101.5,-384 1101.5,-372 1101.5,-372 1101.5,-366 1107.5,-360 1113.5,-360 1113.5,-360 1157.5,-360 1157.5,-360 1163.5,-360 1169.5,-366 1169.5,-372 1169.5,-372 1169.5,-384 1169.5,-384 1169.5,-390 1163.5,-396 1157.5,-396"/>
<text text-anchor="middle" x="1135.5" y="-374.3" font-family="Times,serif" font-size="14.00">SetComp</text>
</g>
<!-- ast.Return object at 0x703070f31850&#45;&gt;ast.SetComp object at 0x703070f31750 -->
<g id="edge59" class="edge">
<title>ast.Return object at 0x703070f31850&#45;&gt;ast.SetComp object at 0x703070f31750</title>
<path fill="none" stroke="black" d="M779.74,-510.9C845.21,-486.63 1011.9,-424.83 1091.66,-395.25"/>
<polygon fill="black" stroke="black" points="1093.25,-398.4 1101.41,-391.64 1090.82,-391.83 1093.25,-398.4"/>
</g>
<!-- ast.Subscript object at 0x703070f32190 -->
<g id="node52" class="node">
<title>ast.Subscript object at 0x703070f32190</title>
<path fill="#66cdaa" stroke="black" d="M1316.5,-180C1316.5,-180 1272.5,-180 1272.5,-180 1266.5,-180 1260.5,-174 1260.5,-168 1260.5,-168 1260.5,-156 1260.5,-156 1260.5,-150 1266.5,-144 1272.5,-144 1272.5,-144 1316.5,-144 1316.5,-144 1322.5,-144 1328.5,-150 1328.5,-156 1328.5,-156 1328.5,-168 1328.5,-168 1328.5,-174 1322.5,-180 1316.5,-180"/>
<text text-anchor="middle" x="1294.5" y="-158.3" font-family="Times,serif" font-size="14.00">Subscript</text>
</g>
<!-- ast.SetComp object at 0x703070f31750&#45;&gt;ast.Subscript object at 0x703070f32190 -->
<g id="edge60" class="edge">
<title>ast.SetComp object at 0x703070f31750&#45;&gt;ast.Subscript object at 0x703070f32190</title>
<path fill="none" stroke="black" d="M1156.86,-359.98C1168.61,-350.11 1183.08,-337.06 1194.5,-324 1231.94,-281.16 1264.43,-222.73 1281.57,-189.32"/>
<polygon fill="black" stroke="black" points="1284.8,-190.7 1286.19,-180.2 1278.55,-187.54 1284.8,-190.7"/>
</g>
<!-- ast.comprehension object at 0x703070f31f10 -->
<g id="node55" class="node">
<title>ast.comprehension object at 0x703070f31f10</title>
<path fill="#66cdaa" stroke="black" d="M1173.5,-324C1173.5,-324 1097.5,-324 1097.5,-324 1091.5,-324 1085.5,-318 1085.5,-312 1085.5,-312 1085.5,-300 1085.5,-300 1085.5,-294 1091.5,-288 1097.5,-288 1097.5,-288 1173.5,-288 1173.5,-288 1179.5,-288 1185.5,-294 1185.5,-300 1185.5,-300 1185.5,-312 1185.5,-312 1185.5,-318 1179.5,-324 1173.5,-324"/>
<text text-anchor="middle" x="1135.5" y="-302.3" font-family="Times,serif" font-size="14.00">comprehension</text>
</g>
<!-- ast.SetComp object at 0x703070f31750&#45;&gt;ast.comprehension object at 0x703070f31f10 -->
<g id="edge66" class="edge">
<title>ast.SetComp object at 0x703070f31750&#45;&gt;ast.comprehension object at 0x703070f31f10</title>
<path fill="none" stroke="black" d="M1135.5,-359.7C1135.5,-351.98 1135.5,-342.71 1135.5,-334.11"/>
<polygon fill="black" stroke="black" points="1139,-334.1 1135.5,-324.1 1132,-334.1 1139,-334.1"/>
</g>
<!-- ast.Subscript object at 0x703070f32190&#45;&gt;ast.Load object at 0x7031ebab6a10 -->
<g id="edge65" class="edge">
<title>ast.Subscript object at 0x703070f32190&#45;&gt;ast.Load object at 0x7031ebab6a10</title>
<path fill="none" stroke="black" d="M1316.69,-143.87C1338.71,-124.85 1366.52,-93.95 1346.5,-72 1310.14,-32.14 929.53,-21.87 807.16,-19.58"/>
<polygon fill="black" stroke="black" points="806.87,-16.08 796.81,-19.4 806.74,-23.08 806.87,-16.08"/>
</g>
<!-- ast.Name object at 0x703070f317d0 -->
<g id="node53" class="node">
<title>ast.Name object at 0x703070f317d0</title>
<path fill="#66cdaa" stroke="black" d="M1253.5,-108C1253.5,-108 1223.5,-108 1223.5,-108 1217.5,-108 1211.5,-102 1211.5,-96 1211.5,-96 1211.5,-84 1211.5,-84 1211.5,-78 1217.5,-72 1223.5,-72 1223.5,-72 1253.5,-72 1253.5,-72 1259.5,-72 1265.5,-78 1265.5,-84 1265.5,-84 1265.5,-96 1265.5,-96 1265.5,-102 1259.5,-108 1253.5,-108"/>
<text text-anchor="middle" x="1238.5" y="-86.3" font-family="Times,serif" font-size="14.00">Name</text>
</g>
<!-- ast.Subscript object at 0x703070f32190&#45;&gt;ast.Name object at 0x703070f317d0 -->
<g id="edge61" class="edge">
<title>ast.Subscript object at 0x703070f32190&#45;&gt;ast.Name object at 0x703070f317d0</title>
<path fill="none" stroke="black" d="M1280.66,-143.7C1274.01,-135.39 1265.92,-125.28 1258.61,-116.14"/>
<polygon fill="black" stroke="black" points="1261.16,-113.73 1252.18,-108.1 1255.7,-118.1 1261.16,-113.73"/>
</g>
<!-- ast.Name object at 0x703070f31710 -->
<g id="node54" class="node">
<title>ast.Name object at 0x703070f31710</title>
<path fill="#66cdaa" stroke="black" d="M1325.5,-108C1325.5,-108 1295.5,-108 1295.5,-108 1289.5,-108 1283.5,-102 1283.5,-96 1283.5,-96 1283.5,-84 1283.5,-84 1283.5,-78 1289.5,-72 1295.5,-72 1295.5,-72 1325.5,-72 1325.5,-72 1331.5,-72 1337.5,-78 1337.5,-84 1337.5,-84 1337.5,-96 1337.5,-96 1337.5,-102 1331.5,-108 1325.5,-108"/>
<text text-anchor="middle" x="1310.5" y="-86.3" font-family="Times,serif" font-size="14.00">Name</text>
</g>
<!-- ast.Subscript object at 0x703070f32190&#45;&gt;ast.Name object at 0x703070f31710 -->
<g id="edge63" class="edge">
<title>ast.Subscript object at 0x703070f32190&#45;&gt;ast.Name object at 0x703070f31710</title>
<path fill="none" stroke="black" d="M1298.46,-143.7C1300.22,-135.98 1302.34,-126.71 1304.3,-118.11"/>
<polygon fill="black" stroke="black" points="1307.77,-118.63 1306.59,-108.1 1300.95,-117.07 1307.77,-118.63"/>
</g>
<!-- ast.Name object at 0x703070f317d0&#45;&gt;ast.Load object at 0x7031ebab6a10 -->
<g id="edge62" class="edge">
<title>ast.Name object at 0x703070f317d0&#45;&gt;ast.Load object at 0x7031ebab6a10</title>
<path fill="none" stroke="black" d="M1211.06,-76.44C1206.6,-74.74 1201.97,-73.18 1197.5,-72 1056.4,-34.75 882.05,-23.5 806.88,-20.25"/>
<polygon fill="black" stroke="black" points="806.66,-16.74 796.52,-19.83 806.37,-23.73 806.66,-16.74"/>
</g>
<!-- ast.Name object at 0x703070f31710&#45;&gt;ast.Load object at 0x7031ebab6a10 -->
<g id="edge64" class="edge">
<title>ast.Name object at 0x703070f31710&#45;&gt;ast.Load object at 0x7031ebab6a10</title>
<path fill="none" stroke="black" d="M1283.35,-75.02C1280.41,-73.86 1277.43,-72.82 1274.5,-72 1104.55,-24.44 891.59,-18.85 806.81,-18.68"/>
<polygon fill="black" stroke="black" points="806.65,-15.18 796.65,-18.68 806.65,-22.18 806.65,-15.18"/>
</g>
<!-- ast.Name object at 0x703070f313d0 -->
<g id="node56" class="node">
<title>ast.Name object at 0x703070f313d0</title>
<path fill="#66cdaa" stroke="black" d="M1078.5,-252C1078.5,-252 1048.5,-252 1048.5,-252 1042.5,-252 1036.5,-246 1036.5,-240 1036.5,-240 1036.5,-228 1036.5,-228 1036.5,-222 1042.5,-216 1048.5,-216 1048.5,-216 1078.5,-216 1078.5,-216 1084.5,-216 1090.5,-222 1090.5,-228 1090.5,-228 1090.5,-240 1090.5,-240 1090.5,-246 1084.5,-252 1078.5,-252"/>
<text text-anchor="middle" x="1063.5" y="-230.3" font-family="Times,serif" font-size="14.00">Name</text>
</g>
<!-- ast.comprehension object at 0x703070f31f10&#45;&gt;ast.Name object at 0x703070f313d0 -->
<g id="edge67" class="edge">
<title>ast.comprehension object at 0x703070f31f10&#45;&gt;ast.Name object at 0x703070f313d0</title>
<path fill="none" stroke="black" d="M1117.7,-287.7C1108.9,-279.14 1098.12,-268.66 1088.5,-259.3"/>
<polygon fill="black" stroke="black" points="1090.7,-256.57 1081.09,-252.1 1085.82,-261.58 1090.7,-256.57"/>
</g>
<!-- ast.Call object at 0x703070f316d0 -->
<g id="node57" class="node">
<title>ast.Call object at 0x703070f316d0</title>
<path fill="#66cdaa" stroke="black" d="M1222.5,-252C1222.5,-252 1192.5,-252 1192.5,-252 1186.5,-252 1180.5,-246 1180.5,-240 1180.5,-240 1180.5,-228 1180.5,-228 1180.5,-222 1186.5,-216 1192.5,-216 1192.5,-216 1222.5,-216 1222.5,-216 1228.5,-216 1234.5,-222 1234.5,-228 1234.5,-228 1234.5,-240 1234.5,-240 1234.5,-246 1228.5,-252 1222.5,-252"/>
<text text-anchor="middle" x="1207.5" y="-230.3" font-family="Times,serif" font-size="14.00">Call</text>
</g>
<!-- ast.comprehension object at 0x703070f31f10&#45;&gt;ast.Call object at 0x703070f316d0 -->
<g id="edge69" class="edge">
<title>ast.comprehension object at 0x703070f31f10&#45;&gt;ast.Call object at 0x703070f316d0</title>
<path fill="none" stroke="black" d="M1153.3,-287.7C1162.1,-279.14 1172.88,-268.66 1182.5,-259.3"/>
<polygon fill="black" stroke="black" points="1185.18,-261.58 1189.91,-252.1 1180.3,-256.57 1185.18,-261.58"/>
</g>
<!-- ast.Call object at 0x703070f315d0 -->
<g id="node63" class="node">
<title>ast.Call object at 0x703070f315d0</title>
<path fill="#66cdaa" stroke="black" d="M1150.5,-252C1150.5,-252 1120.5,-252 1120.5,-252 1114.5,-252 1108.5,-246 1108.5,-240 1108.5,-240 1108.5,-228 1108.5,-228 1108.5,-222 1114.5,-216 1120.5,-216 1120.5,-216 1150.5,-216 1150.5,-216 1156.5,-216 1162.5,-222 1162.5,-228 1162.5,-228 1162.5,-240 1162.5,-240 1162.5,-246 1156.5,-252 1150.5,-252"/>
<text text-anchor="middle" x="1135.5" y="-230.3" font-family="Times,serif" font-size="14.00">Call</text>
</g>
<!-- ast.comprehension object at 0x703070f31f10&#45;&gt;ast.Call object at 0x703070f315d0 -->
<g id="edge79" class="edge">
<title>ast.comprehension object at 0x703070f31f10&#45;&gt;ast.Call object at 0x703070f315d0</title>
<path fill="none" stroke="black" d="M1135.5,-287.7C1135.5,-279.98 1135.5,-270.71 1135.5,-262.11"/>
<polygon fill="black" stroke="black" points="1139,-262.1 1135.5,-252.1 1132,-262.1 1139,-262.1"/>
</g>
<!-- ast.Name object at 0x703070f313d0&#45;&gt;ast.Store object at 0x7031ebab6a90 -->
<g id="edge68" class="edge">
<title>ast.Name object at 0x703070f313d0&#45;&gt;ast.Store object at 0x7031ebab6a90</title>
<path fill="none" stroke="black" d="M1036.26,-219.33C1033.34,-218.11 1030.38,-216.97 1027.5,-216 956.9,-192.26 932.15,-203.71 857.59,-179.92"/>
<polygon fill="black" stroke="black" points="858.34,-176.48 847.74,-176.67 856.14,-183.13 858.34,-176.48"/>
</g>
<!-- ast.Name object at 0x703070f31dd0 -->
<g id="node58" class="node">
<title>ast.Name object at 0x703070f31dd0</title>
<path fill="#66cdaa" stroke="black" d="M1215.5,-180C1215.5,-180 1185.5,-180 1185.5,-180 1179.5,-180 1173.5,-174 1173.5,-168 1173.5,-168 1173.5,-156 1173.5,-156 1173.5,-150 1179.5,-144 1185.5,-144 1185.5,-144 1215.5,-144 1215.5,-144 1221.5,-144 1227.5,-150 1227.5,-156 1227.5,-156 1227.5,-168 1227.5,-168 1227.5,-174 1221.5,-180 1215.5,-180"/>
<text text-anchor="middle" x="1200.5" y="-158.3" font-family="Times,serif" font-size="14.00">Name</text>
</g>
<!-- ast.Call object at 0x703070f316d0&#45;&gt;ast.Name object at 0x703070f31dd0 -->
<g id="edge70" class="edge">
<title>ast.Call object at 0x703070f316d0&#45;&gt;ast.Name object at 0x703070f31dd0</title>
<path fill="none" stroke="black" d="M1205.77,-215.7C1205,-207.98 1204.07,-198.71 1203.21,-190.11"/>
<polygon fill="black" stroke="black" points="1206.69,-189.71 1202.21,-180.1 1199.72,-190.4 1206.69,-189.71"/>
</g>
<!-- ast.Name object at 0x703070f32050 -->
<g id="node59" class="node">
<title>ast.Name object at 0x703070f32050</title>
<path fill="#66cdaa" stroke="black" d="M1065.5,-180C1065.5,-180 1035.5,-180 1035.5,-180 1029.5,-180 1023.5,-174 1023.5,-168 1023.5,-168 1023.5,-156 1023.5,-156 1023.5,-150 1029.5,-144 1035.5,-144 1035.5,-144 1065.5,-144 1065.5,-144 1071.5,-144 1077.5,-150 1077.5,-156 1077.5,-156 1077.5,-168 1077.5,-168 1077.5,-174 1071.5,-180 1065.5,-180"/>
<text text-anchor="middle" x="1050.5" y="-158.3" font-family="Times,serif" font-size="14.00">Name</text>
</g>
<!-- ast.Call object at 0x703070f316d0&#45;&gt;ast.Name object at 0x703070f32050 -->
<g id="edge72" class="edge">
<title>ast.Call object at 0x703070f316d0&#45;&gt;ast.Name object at 0x703070f32050</title>
<path fill="none" stroke="black" d="M1180.43,-220.07C1177.42,-218.68 1174.4,-217.3 1171.5,-216 1136.69,-200.42 1125.5,-197.18 1086.84,-180.06"/>
<polygon fill="black" stroke="black" points="1088.13,-176.81 1077.57,-175.93 1085.28,-183.2 1088.13,-176.81"/>
</g>
<!-- ast.BinOp object at 0x703070f31690 -->
<g id="node60" class="node">
<title>ast.BinOp object at 0x703070f31690</title>
<path fill="#66cdaa" stroke="black" d="M1137.5,-180C1137.5,-180 1107.5,-180 1107.5,-180 1101.5,-180 1095.5,-174 1095.5,-168 1095.5,-168 1095.5,-156 1095.5,-156 1095.5,-150 1101.5,-144 1107.5,-144 1107.5,-144 1137.5,-144 1137.5,-144 1143.5,-144 1149.5,-150 1149.5,-156 1149.5,-156 1149.5,-168 1149.5,-168 1149.5,-174 1143.5,-180 1137.5,-180"/>
<text text-anchor="middle" x="1122.5" y="-158.3" font-family="Times,serif" font-size="14.00">BinOp</text>
</g>
<!-- ast.Call object at 0x703070f316d0&#45;&gt;ast.BinOp object at 0x703070f31690 -->
<g id="edge74" class="edge">
<title>ast.Call object at 0x703070f316d0&#45;&gt;ast.BinOp object at 0x703070f31690</title>
<path fill="none" stroke="black" d="M1186.49,-215.7C1175.78,-206.88 1162.61,-196.03 1151,-186.47"/>
<polygon fill="black" stroke="black" points="1153.21,-183.76 1143.27,-180.1 1148.76,-189.16 1153.21,-183.76"/>
</g>
<!-- ast.Name object at 0x703070f31dd0&#45;&gt;ast.Load object at 0x7031ebab6a10 -->
<g id="edge71" class="edge">
<title>ast.Name object at 0x703070f31dd0&#45;&gt;ast.Load object at 0x7031ebab6a10</title>
<path fill="none" stroke="black" d="M1198.68,-143.86C1195.52,-123.31 1187.02,-89.47 1164.5,-72 1109.15,-29.05 894.18,-20.89 806.77,-19.35"/>
<polygon fill="black" stroke="black" points="806.81,-15.85 796.76,-19.19 806.71,-22.85 806.81,-15.85"/>
</g>
<!-- ast.Name object at 0x703070f32050&#45;&gt;ast.Load object at 0x7031ebab6a10 -->
<g id="edge73" class="edge">
<title>ast.Name object at 0x703070f32050&#45;&gt;ast.Load object at 0x7031ebab6a10</title>
<path fill="none" stroke="black" d="M1037.61,-143.97C1021.49,-123.86 992.04,-90.77 959.5,-72 910.89,-43.96 846.67,-30.1 806.73,-23.76"/>
<polygon fill="black" stroke="black" points="807.05,-20.27 796.64,-22.23 806,-27.19 807.05,-20.27"/>
</g>
<!-- ast.BinOp object at 0x703070f31690&#45;&gt;ast.Add object at 0x7031ebab6f10 -->
<g id="edge77" class="edge">
<title>ast.BinOp object at 0x703070f31690&#45;&gt;ast.Add object at 0x7031ebab6f10</title>
<path fill="none" stroke="black" d="M1095.19,-147.52C1092.28,-146.26 1089.35,-145.06 1086.5,-144 1034.51,-124.63 972.22,-108.55 933.5,-99.35"/>
<polygon fill="black" stroke="black" points="934.24,-95.93 923.7,-97.05 932.64,-102.75 934.24,-95.93"/>
</g>
<!-- ast.Name object at 0x703070f31e50 -->
<g id="node61" class="node">
<title>ast.Name object at 0x703070f31e50</title>
<path fill="#66cdaa" stroke="black" d="M1059.5,-108C1059.5,-108 1029.5,-108 1029.5,-108 1023.5,-108 1017.5,-102 1017.5,-96 1017.5,-96 1017.5,-84 1017.5,-84 1017.5,-78 1023.5,-72 1029.5,-72 1029.5,-72 1059.5,-72 1059.5,-72 1065.5,-72 1071.5,-78 1071.5,-84 1071.5,-84 1071.5,-96 1071.5,-96 1071.5,-102 1065.5,-108 1059.5,-108"/>
<text text-anchor="middle" x="1044.5" y="-86.3" font-family="Times,serif" font-size="14.00">Name</text>
</g>
<!-- ast.BinOp object at 0x703070f31690&#45;&gt;ast.Name object at 0x703070f31e50 -->
<g id="edge75" class="edge">
<title>ast.BinOp object at 0x703070f31690&#45;&gt;ast.Name object at 0x703070f31e50</title>
<path fill="none" stroke="black" d="M1103.22,-143.7C1093.58,-135.05 1081.77,-124.45 1071.27,-115.03"/>
<polygon fill="black" stroke="black" points="1073.34,-112.18 1063.56,-108.1 1068.66,-117.39 1073.34,-112.18"/>
</g>
<!-- ast.Constant object at 0x703070f31fd0 -->
<g id="node62" class="node">
<title>ast.Constant object at 0x703070f31fd0</title>
<path fill="#66cdaa" stroke="black" d="M1143,-108C1143,-108 1102,-108 1102,-108 1096,-108 1090,-102 1090,-96 1090,-96 1090,-84 1090,-84 1090,-78 1096,-72 1102,-72 1102,-72 1143,-72 1143,-72 1149,-72 1155,-78 1155,-84 1155,-84 1155,-96 1155,-96 1155,-102 1149,-108 1143,-108"/>
<text text-anchor="middle" x="1122.5" y="-86.3" font-family="Times,serif" font-size="14.00">Constant</text>
</g>
<!-- ast.BinOp object at 0x703070f31690&#45;&gt;ast.Constant object at 0x703070f31fd0 -->
<g id="edge78" class="edge">
<title>ast.BinOp object at 0x703070f31690&#45;&gt;ast.Constant object at 0x703070f31fd0</title>
<path fill="none" stroke="black" d="M1122.5,-143.7C1122.5,-135.98 1122.5,-126.71 1122.5,-118.11"/>
<polygon fill="black" stroke="black" points="1126,-118.1 1122.5,-108.1 1119,-118.1 1126,-118.1"/>
</g>
<!-- ast.Name object at 0x703070f31e50&#45;&gt;ast.Load object at 0x7031ebab6a10 -->
<g id="edge76" class="edge">
<title>ast.Name object at 0x703070f31e50&#45;&gt;ast.Load object at 0x7031ebab6a10</title>
<path fill="none" stroke="black" d="M1017.39,-77C1012.81,-75.19 1008.05,-73.45 1003.5,-72 935.23,-50.29 853.07,-33.83 806.5,-25.36"/>
<polygon fill="black" stroke="black" points="807.03,-21.9 796.57,-23.58 805.79,-28.79 807.03,-21.9"/>
</g>
<!-- ast.Name object at 0x703070f31810 -->
<g id="node64" class="node">
<title>ast.Name object at 0x703070f31810</title>
<path fill="#66cdaa" stroke="black" d="M993.5,-180C993.5,-180 963.5,-180 963.5,-180 957.5,-180 951.5,-174 951.5,-168 951.5,-168 951.5,-156 951.5,-156 951.5,-150 957.5,-144 963.5,-144 963.5,-144 993.5,-144 993.5,-144 999.5,-144 1005.5,-150 1005.5,-156 1005.5,-156 1005.5,-168 1005.5,-168 1005.5,-174 999.5,-180 993.5,-180"/>
<text text-anchor="middle" x="978.5" y="-158.3" font-family="Times,serif" font-size="14.00">Name</text>
</g>
<!-- ast.Call object at 0x703070f315d0&#45;&gt;ast.Name object at 0x703070f31810 -->
<g id="edge80" class="edge">
<title>ast.Call object at 0x703070f315d0&#45;&gt;ast.Name object at 0x703070f31810</title>
<path fill="none" stroke="black" d="M1108.43,-220.07C1105.42,-218.68 1102.4,-217.3 1099.5,-216 1064.69,-200.42 1053.5,-197.18 1014.84,-180.06"/>
<polygon fill="black" stroke="black" points="1016.13,-176.81 1005.57,-175.93 1013.28,-183.2 1016.13,-176.81"/>
</g>
<!-- ast.Subscript object at 0x703070f31f90 -->
<g id="node65" class="node">
<title>ast.Subscript object at 0x703070f31f90</title>
<path fill="#66cdaa" stroke="black" d="M921.5,-180C921.5,-180 877.5,-180 877.5,-180 871.5,-180 865.5,-174 865.5,-168 865.5,-168 865.5,-156 865.5,-156 865.5,-150 871.5,-144 877.5,-144 877.5,-144 921.5,-144 921.5,-144 927.5,-144 933.5,-150 933.5,-156 933.5,-156 933.5,-168 933.5,-168 933.5,-174 927.5,-180 921.5,-180"/>
<text text-anchor="middle" x="899.5" y="-158.3" font-family="Times,serif" font-size="14.00">Subscript</text>
</g>
<!-- ast.Call object at 0x703070f315d0&#45;&gt;ast.Subscript object at 0x703070f31f90 -->
<g id="edge82" class="edge">
<title>ast.Call object at 0x703070f315d0&#45;&gt;ast.Subscript object at 0x703070f31f90</title>
<path fill="none" stroke="black" d="M1108.24,-219.38C1105.32,-218.15 1102.37,-216.99 1099.5,-216 1034.76,-193.59 1012.76,-200.54 943.26,-179.96"/>
<polygon fill="black" stroke="black" points="944.19,-176.59 933.6,-177.02 942.15,-183.28 944.19,-176.59"/>
</g>
<!-- ast.Name object at 0x703070f31810&#45;&gt;ast.Load object at 0x7031ebab6a10 -->
<g id="edge81" class="edge">
<title>ast.Name object at 0x703070f31810&#45;&gt;ast.Load object at 0x7031ebab6a10</title>
<path fill="none" stroke="black" d="M973.94,-143.74C967.78,-123.72 954.91,-91.03 932.5,-72 896.48,-41.41 842.41,-28.37 806.56,-22.89"/>
<polygon fill="black" stroke="black" points="806.9,-19.4 796.51,-21.47 805.92,-26.33 806.9,-19.4"/>
</g>
<!-- ast.Subscript object at 0x703070f31f90&#45;&gt;ast.Load object at 0x7031ebab6a10 -->
<g id="edge87" class="edge">
<title>ast.Subscript object at 0x703070f31f90&#45;&gt;ast.Load object at 0x7031ebab6a10</title>
<path fill="none" stroke="black" d="M865.45,-146.56C834.78,-133.26 793.72,-114.62 788.5,-108 774.78,-90.6 770.39,-65.55 769.22,-46.46"/>
<polygon fill="black" stroke="black" points="772.72,-46.15 768.87,-36.28 765.72,-46.4 772.72,-46.15"/>
</g>
<!-- ast.Name object at 0x703070f314d0 -->
<g id="node66" class="node">
<title>ast.Name object at 0x703070f314d0</title>
<path fill="#66cdaa" stroke="black" d="M839.5,-108C839.5,-108 809.5,-108 809.5,-108 803.5,-108 797.5,-102 797.5,-96 797.5,-96 797.5,-84 797.5,-84 797.5,-78 803.5,-72 809.5,-72 809.5,-72 839.5,-72 839.5,-72 845.5,-72 851.5,-78 851.5,-84 851.5,-84 851.5,-96 851.5,-96 851.5,-102 845.5,-108 839.5,-108"/>
<text text-anchor="middle" x="824.5" y="-86.3" font-family="Times,serif" font-size="14.00">Name</text>
</g>
<!-- ast.Subscript object at 0x703070f31f90&#45;&gt;ast.Name object at 0x703070f314d0 -->
<g id="edge83" class="edge">
<title>ast.Subscript object at 0x703070f31f90&#45;&gt;ast.Name object at 0x703070f314d0</title>
<path fill="none" stroke="black" d="M880.96,-143.7C871.7,-135.05 860.34,-124.45 850.24,-115.03"/>
<polygon fill="black" stroke="black" points="852.52,-112.37 842.83,-108.1 847.75,-117.49 852.52,-112.37"/>
</g>
<!-- ast.Name object at 0x703070f31c50 -->
<g id="node67" class="node">
<title>ast.Name object at 0x703070f31c50</title>
<path fill="#66cdaa" stroke="black" d="M729.5,-108C729.5,-108 699.5,-108 699.5,-108 693.5,-108 687.5,-102 687.5,-96 687.5,-96 687.5,-84 687.5,-84 687.5,-78 693.5,-72 699.5,-72 699.5,-72 729.5,-72 729.5,-72 735.5,-72 741.5,-78 741.5,-84 741.5,-84 741.5,-96 741.5,-96 741.5,-102 735.5,-108 729.5,-108"/>
<text text-anchor="middle" x="714.5" y="-86.3" font-family="Times,serif" font-size="14.00">Name</text>
</g>
<!-- ast.Subscript object at 0x703070f31f90&#45;&gt;ast.Name object at 0x703070f31c50 -->
<g id="edge85" class="edge">
<title>ast.Subscript object at 0x703070f31f90&#45;&gt;ast.Name object at 0x703070f31c50</title>
<path fill="none" stroke="black" d="M865.27,-147.35C862.31,-146.2 859.36,-145.07 856.5,-144 811.89,-127.24 799.97,-125.13 755.5,-108 754.11,-107.46 752.69,-106.91 751.26,-106.35"/>
<polygon fill="black" stroke="black" points="752.35,-103.01 741.77,-102.53 749.74,-109.51 752.35,-103.01"/>
</g>
<!-- ast.Name object at 0x703070f314d0&#45;&gt;ast.Load object at 0x7031ebab6a10 -->
<g id="edge84" class="edge">
<title>ast.Name object at 0x703070f314d0&#45;&gt;ast.Load object at 0x7031ebab6a10</title>
<path fill="none" stroke="black" d="M810.9,-71.7C804.38,-63.39 796.43,-53.28 789.25,-44.14"/>
<polygon fill="black" stroke="black" points="791.87,-41.81 782.94,-36.1 786.37,-46.13 791.87,-41.81"/>
</g>
<!-- ast.Name object at 0x703070f31c50&#45;&gt;ast.Load object at 0x7031ebab6a10 -->
<g id="edge86" class="edge">
<title>ast.Name object at 0x703070f31c50&#45;&gt;ast.Load object at 0x7031ebab6a10</title>
<path fill="none" stroke="black" d="M728.1,-71.7C734.62,-63.39 742.57,-53.28 749.75,-44.14"/>
<polygon fill="black" stroke="black" points="752.63,-46.13 756.06,-36.1 747.13,-41.81 752.63,-46.13"/>
</g>
</g>
</svg>
