<?xml version="1.0" encoding="UTF-8" standalone="no"?>
<!DOCTYPE svg PUBLIC "-//W3C//DTD SVG 1.1//EN"
 "http://www.w3.org/Graphics/SVG/1.1/DTD/svg11.dtd">
<!-- Generated by graphviz version 2.50.0 (0)
 -->
<!-- Pages: 1 -->
<svg width="1769pt" height="764pt"
 viewBox="0.00 0.00 1768.95 764.00" xmlns="http://www.w3.org/2000/svg" xmlns:xlink="http://www.w3.org/1999/xlink">
<g id="graph0" class="graph" transform="scale(1 1) rotate(0) translate(4 760)">
<polygon fill="white" stroke="transparent" points="-4,4 -4,-760 1764.95,-760 1764.95,4 -4,4"/>
<!-- ast.Module object at 0x7f1116a93690 -->
<g id="node1" class="node">
<title>ast.Module object at 0x7f1116a93690</title>
<path fill="#66cdaa" stroke="black" d="M1338.53,-756C1338.53,-756 1303.53,-756 1303.53,-756 1297.53,-756 1291.53,-750 1291.53,-744 1291.53,-744 1291.53,-732 1291.53,-732 1291.53,-726 1297.53,-720 1303.53,-720 1303.53,-720 1338.53,-720 1338.53,-720 1344.53,-720 1350.53,-726 1350.53,-732 1350.53,-732 1350.53,-744 1350.53,-744 1350.53,-750 1344.53,-756 1338.53,-756"/>
<text text-anchor="middle" x="1321.03" y="-734.3" font-family="Times,serif" font-size="14.00">Module</text>
</g>
<!-- ast.ImportFrom object at 0x7f1116c68990 -->
<g id="node2" class="node">
<title>ast.ImportFrom object at 0x7f1116c68990</title>
<path fill="#66cdaa" stroke="black" d="M1300.03,-684C1300.03,-684 1240.03,-684 1240.03,-684 1234.03,-684 1228.03,-678 1228.03,-672 1228.03,-672 1228.03,-660 1228.03,-660 1228.03,-654 1234.03,-648 1240.03,-648 1240.03,-648 1300.03,-648 1300.03,-648 1306.03,-648 1312.03,-654 1312.03,-660 1312.03,-660 1312.03,-672 1312.03,-672 1312.03,-678 1306.03,-684 1300.03,-684"/>
<text text-anchor="middle" x="1270.03" y="-662.3" font-family="Times,serif" font-size="14.00">ImportFrom</text>
</g>
<!-- ast.Module object at 0x7f1116a93690&#45;&gt;ast.ImportFrom object at 0x7f1116c68990 -->
<g id="edge1" class="edge">
<title>ast.Module object at 0x7f1116a93690&#45;&gt;ast.ImportFrom object at 0x7f1116c68990</title>
<path fill="none" stroke="black" d="M1308.42,-719.7C1302.43,-711.47 1295.15,-701.48 1288.55,-692.42"/>
<polygon fill="black" stroke="black" points="1291.21,-690.13 1282.49,-684.1 1285.55,-694.25 1291.21,-690.13"/>
</g>
<!-- ast.FunctionDef object at 0x7f1116bf7250 -->
<g id="node4" class="node">
<title>ast.FunctionDef object at 0x7f1116bf7250</title>
<path fill="#66cdaa" stroke="black" d="M1423.53,-684C1423.53,-684 1362.53,-684 1362.53,-684 1356.53,-684 1350.53,-678 1350.53,-672 1350.53,-672 1350.53,-660 1350.53,-660 1350.53,-654 1356.53,-648 1362.53,-648 1362.53,-648 1423.53,-648 1423.53,-648 1429.53,-648 1435.53,-654 1435.53,-660 1435.53,-660 1435.53,-672 1435.53,-672 1435.53,-678 1429.53,-684 1423.53,-684"/>
<text text-anchor="middle" x="1393.03" y="-662.3" font-family="Times,serif" font-size="14.00">FunctionDef</text>
</g>
<!-- ast.Module object at 0x7f1116a93690&#45;&gt;ast.FunctionDef object at 0x7f1116bf7250 -->
<g id="edge3" class="edge">
<title>ast.Module object at 0x7f1116a93690&#45;&gt;ast.FunctionDef object at 0x7f1116bf7250</title>
<path fill="none" stroke="black" d="M1338.83,-719.7C1347.63,-711.14 1358.41,-700.66 1368.03,-691.3"/>
<polygon fill="black" stroke="black" points="1370.71,-693.58 1375.44,-684.1 1365.83,-688.57 1370.71,-693.58"/>
</g>
<!-- ast.alias object at 0x7f1116af7050 -->
<g id="node3" class="node">
<title>ast.alias object at 0x7f1116af7050</title>
<path fill="#66cdaa" stroke="black" d="M1264.03,-612C1264.03,-612 1234.03,-612 1234.03,-612 1228.03,-612 1222.03,-606 1222.03,-600 1222.03,-600 1222.03,-588 1222.03,-588 1222.03,-582 1228.03,-576 1234.03,-576 1234.03,-576 1264.03,-576 1264.03,-576 1270.03,-576 1276.03,-582 1276.03,-588 1276.03,-588 1276.03,-600 1276.03,-600 1276.03,-606 1270.03,-612 1264.03,-612"/>
<text text-anchor="middle" x="1249.03" y="-590.3" font-family="Times,serif" font-size="14.00">alias</text>
</g>
<!-- ast.ImportFrom object at 0x7f1116c68990&#45;&gt;ast.alias object at 0x7f1116af7050 -->
<g id="edge2" class="edge">
<title>ast.ImportFrom object at 0x7f1116c68990&#45;&gt;ast.alias object at 0x7f1116af7050</title>
<path fill="none" stroke="black" d="M1264.84,-647.7C1262.5,-639.9 1259.68,-630.51 1257.08,-621.83"/>
<polygon fill="black" stroke="black" points="1260.39,-620.68 1254.16,-612.1 1253.68,-622.69 1260.39,-620.68"/>
</g>
<!-- ast.arguments object at 0x7f1116af7010 -->
<g id="node5" class="node">
<title>ast.arguments object at 0x7f1116af7010</title>
<path fill="#66cdaa" stroke="black" d="M1578.03,-612C1578.03,-612 1528.03,-612 1528.03,-612 1522.03,-612 1516.03,-606 1516.03,-600 1516.03,-600 1516.03,-588 1516.03,-588 1516.03,-582 1522.03,-576 1528.03,-576 1528.03,-576 1578.03,-576 1578.03,-576 1584.03,-576 1590.03,-582 1590.03,-588 1590.03,-588 1590.03,-600 1590.03,-600 1590.03,-606 1584.03,-612 1578.03,-612"/>
<text text-anchor="middle" x="1553.03" y="-590.3" font-family="Times,serif" font-size="14.00">arguments</text>
</g>
<!-- ast.FunctionDef object at 0x7f1116bf7250&#45;&gt;ast.arguments object at 0x7f1116af7010 -->
<g id="edge4" class="edge">
<title>ast.FunctionDef object at 0x7f1116bf7250&#45;&gt;ast.arguments object at 0x7f1116af7010</title>
<path fill="none" stroke="black" d="M1432.17,-647.88C1454.61,-638.06 1482.92,-625.67 1506.49,-615.36"/>
<polygon fill="black" stroke="black" points="1508.18,-618.44 1515.94,-611.23 1505.38,-612.03 1508.18,-618.44"/>
</g>
<!-- ast.Assign object at 0x7f1116af7190 -->
<g id="node7" class="node">
<title>ast.Assign object at 0x7f1116af7190</title>
<path fill="#66cdaa" stroke="black" d="M1408.03,-612C1408.03,-612 1378.03,-612 1378.03,-612 1372.03,-612 1366.03,-606 1366.03,-600 1366.03,-600 1366.03,-588 1366.03,-588 1366.03,-582 1372.03,-576 1378.03,-576 1378.03,-576 1408.03,-576 1408.03,-576 1414.03,-576 1420.03,-582 1420.03,-588 1420.03,-588 1420.03,-600 1420.03,-600 1420.03,-606 1414.03,-612 1408.03,-612"/>
<text text-anchor="middle" x="1393.03" y="-590.3" font-family="Times,serif" font-size="14.00">Assign</text>
</g>
<!-- ast.FunctionDef object at 0x7f1116bf7250&#45;&gt;ast.Assign object at 0x7f1116af7190 -->
<g id="edge6" class="edge">
<title>ast.FunctionDef object at 0x7f1116bf7250&#45;&gt;ast.Assign object at 0x7f1116af7190</title>
<path fill="none" stroke="black" d="M1393.03,-647.7C1393.03,-639.98 1393.03,-630.71 1393.03,-622.11"/>
<polygon fill="black" stroke="black" points="1396.53,-622.1 1393.03,-612.1 1389.53,-622.1 1396.53,-622.1"/>
</g>
<!-- ast.For object at 0x7f1116af7290 -->
<g id="node11" class="node">
<title>ast.For object at 0x7f1116af7290</title>
<path fill="#66cdaa" stroke="black" d="M1336.03,-612C1336.03,-612 1306.03,-612 1306.03,-612 1300.03,-612 1294.03,-606 1294.03,-600 1294.03,-600 1294.03,-588 1294.03,-588 1294.03,-582 1300.03,-576 1306.03,-576 1306.03,-576 1336.03,-576 1336.03,-576 1342.03,-576 1348.03,-582 1348.03,-588 1348.03,-588 1348.03,-600 1348.03,-600 1348.03,-606 1342.03,-612 1336.03,-612"/>
<text text-anchor="middle" x="1321.03" y="-590.3" font-family="Times,serif" font-size="14.00">For</text>
</g>
<!-- ast.FunctionDef object at 0x7f1116bf7250&#45;&gt;ast.For object at 0x7f1116af7290 -->
<g id="edge10" class="edge">
<title>ast.FunctionDef object at 0x7f1116bf7250&#45;&gt;ast.For object at 0x7f1116af7290</title>
<path fill="none" stroke="black" d="M1375.23,-647.7C1366.43,-639.14 1355.65,-628.66 1346.03,-619.3"/>
<polygon fill="black" stroke="black" points="1348.23,-616.57 1338.62,-612.1 1343.35,-621.58 1348.23,-616.57"/>
</g>
<!-- ast.Return object at 0x7f1116ab32d0 -->
<g id="node73" class="node">
<title>ast.Return object at 0x7f1116ab32d0</title>
<path fill="#66cdaa" stroke="black" d="M1484.03,-612C1484.03,-612 1454.03,-612 1454.03,-612 1448.03,-612 1442.03,-606 1442.03,-600 1442.03,-600 1442.03,-588 1442.03,-588 1442.03,-582 1448.03,-576 1454.03,-576 1454.03,-576 1484.03,-576 1484.03,-576 1490.03,-576 1496.03,-582 1496.03,-588 1496.03,-588 1496.03,-600 1496.03,-600 1496.03,-606 1490.03,-612 1484.03,-612"/>
<text text-anchor="middle" x="1469.03" y="-590.3" font-family="Times,serif" font-size="14.00">Return</text>
</g>
<!-- ast.FunctionDef object at 0x7f1116bf7250&#45;&gt;ast.Return object at 0x7f1116ab32d0 -->
<g id="edge105" class="edge">
<title>ast.FunctionDef object at 0x7f1116bf7250&#45;&gt;ast.Return object at 0x7f1116ab32d0</title>
<path fill="none" stroke="black" d="M1411.82,-647.7C1421.2,-639.05 1432.71,-628.45 1442.94,-619.03"/>
<polygon fill="black" stroke="black" points="1445.48,-621.45 1450.46,-612.1 1440.73,-616.3 1445.48,-621.45"/>
</g>
<!-- ast.arg object at 0x7f1116af6f90 -->
<g id="node6" class="node">
<title>ast.arg object at 0x7f1116af6f90</title>
<path fill="#66cdaa" stroke="black" d="M1571.03,-540C1571.03,-540 1541.03,-540 1541.03,-540 1535.03,-540 1529.03,-534 1529.03,-528 1529.03,-528 1529.03,-516 1529.03,-516 1529.03,-510 1535.03,-504 1541.03,-504 1541.03,-504 1571.03,-504 1571.03,-504 1577.03,-504 1583.03,-510 1583.03,-516 1583.03,-516 1583.03,-528 1583.03,-528 1583.03,-534 1577.03,-540 1571.03,-540"/>
<text text-anchor="middle" x="1556.03" y="-518.3" font-family="Times,serif" font-size="14.00">arg</text>
</g>
<!-- ast.arguments object at 0x7f1116af7010&#45;&gt;ast.arg object at 0x7f1116af6f90 -->
<g id="edge5" class="edge">
<title>ast.arguments object at 0x7f1116af7010&#45;&gt;ast.arg object at 0x7f1116af6f90</title>
<path fill="none" stroke="black" d="M1553.77,-575.7C1554.1,-567.98 1554.5,-558.71 1554.87,-550.11"/>
<polygon fill="black" stroke="black" points="1558.37,-550.25 1555.3,-540.1 1551.37,-549.95 1558.37,-550.25"/>
</g>
<!-- ast.Name object at 0x7f1116af7210 -->
<g id="node8" class="node">
<title>ast.Name object at 0x7f1116af7210</title>
<path fill="#66cdaa" stroke="black" d="M1021.03,-540C1021.03,-540 991.03,-540 991.03,-540 985.03,-540 979.03,-534 979.03,-528 979.03,-528 979.03,-516 979.03,-516 979.03,-510 985.03,-504 991.03,-504 991.03,-504 1021.03,-504 1021.03,-504 1027.03,-504 1033.03,-510 1033.03,-516 1033.03,-516 1033.03,-528 1033.03,-528 1033.03,-534 1027.03,-540 1021.03,-540"/>
<text text-anchor="middle" x="1006.03" y="-518.3" font-family="Times,serif" font-size="14.00">Name</text>
</g>
<!-- ast.Assign object at 0x7f1116af7190&#45;&gt;ast.Name object at 0x7f1116af7210 -->
<g id="edge7" class="edge">
<title>ast.Assign object at 0x7f1116af7190&#45;&gt;ast.Name object at 0x7f1116af7210</title>
<path fill="none" stroke="black" d="M1365.84,-579.16C1362.91,-577.97 1359.94,-576.89 1357.03,-576 1245.89,-542.17 1108.11,-529.42 1043.18,-525.05"/>
<polygon fill="black" stroke="black" points="1043.24,-521.55 1033.04,-524.4 1042.79,-528.54 1043.24,-521.55"/>
</g>
<!-- ast.Constant object at 0x7f1116af7250 -->
<g id="node10" class="node">
<title>ast.Constant object at 0x7f1116af7250</title>
<path fill="#66cdaa" stroke="black" d="M1413.53,-540C1413.53,-540 1372.53,-540 1372.53,-540 1366.53,-540 1360.53,-534 1360.53,-528 1360.53,-528 1360.53,-516 1360.53,-516 1360.53,-510 1366.53,-504 1372.53,-504 1372.53,-504 1413.53,-504 1413.53,-504 1419.53,-504 1425.53,-510 1425.53,-516 1425.53,-516 1425.53,-528 1425.53,-528 1425.53,-534 1419.53,-540 1413.53,-540"/>
<text text-anchor="middle" x="1393.03" y="-518.3" font-family="Times,serif" font-size="14.00">Constant</text>
</g>
<!-- ast.Assign object at 0x7f1116af7190&#45;&gt;ast.Constant object at 0x7f1116af7250 -->
<g id="edge9" class="edge">
<title>ast.Assign object at 0x7f1116af7190&#45;&gt;ast.Constant object at 0x7f1116af7250</title>
<path fill="none" stroke="black" d="M1393.03,-575.7C1393.03,-567.98 1393.03,-558.71 1393.03,-550.11"/>
<polygon fill="black" stroke="black" points="1396.53,-550.1 1393.03,-540.1 1389.53,-550.1 1396.53,-550.1"/>
</g>
<!-- ast.Store object at 0x7f1132bc5790 -->
<g id="node9" class="node">
<title>ast.Store object at 0x7f1132bc5790</title>
<path fill="#66cdaa" stroke="black" d="M639.03,-252C639.03,-252 609.03,-252 609.03,-252 603.03,-252 597.03,-246 597.03,-240 597.03,-240 597.03,-228 597.03,-228 597.03,-222 603.03,-216 609.03,-216 609.03,-216 639.03,-216 639.03,-216 645.03,-216 651.03,-222 651.03,-228 651.03,-228 651.03,-240 651.03,-240 651.03,-246 645.03,-252 639.03,-252"/>
<text text-anchor="middle" x="624.03" y="-230.3" font-family="Times,serif" font-size="14.00">Store</text>
</g>
<!-- ast.Name object at 0x7f1116af7210&#45;&gt;ast.Store object at 0x7f1132bc5790 -->
<g id="edge8" class="edge">
<title>ast.Name object at 0x7f1116af7210&#45;&gt;ast.Store object at 0x7f1132bc5790</title>
<path fill="none" stroke="black" d="M978.9,-517.63C942.39,-512.09 876.56,-498.47 829.03,-468 741.89,-412.13 670.08,-308.89 639.68,-260.85"/>
<polygon fill="black" stroke="black" points="642.59,-258.9 634.32,-252.27 636.65,-262.61 642.59,-258.9"/>
</g>
<!-- ast.Name object at 0x7f1116af72d0 -->
<g id="node12" class="node">
<title>ast.Name object at 0x7f1116af72d0</title>
<path fill="#66cdaa" stroke="black" d="M596.03,-540C596.03,-540 566.03,-540 566.03,-540 560.03,-540 554.03,-534 554.03,-528 554.03,-528 554.03,-516 554.03,-516 554.03,-510 560.03,-504 566.03,-504 566.03,-504 596.03,-504 596.03,-504 602.03,-504 608.03,-510 608.03,-516 608.03,-516 608.03,-528 608.03,-528 608.03,-534 602.03,-540 596.03,-540"/>
<text text-anchor="middle" x="581.03" y="-518.3" font-family="Times,serif" font-size="14.00">Name</text>
</g>
<!-- ast.For object at 0x7f1116af7290&#45;&gt;ast.Name object at 0x7f1116af72d0 -->
<g id="edge11" class="edge">
<title>ast.For object at 0x7f1116af7290&#45;&gt;ast.Name object at 0x7f1116af72d0</title>
<path fill="none" stroke="black" d="M1293.92,-578.88C1290.97,-577.75 1287.98,-576.75 1285.03,-576 1024.06,-509.28 947.62,-570.84 680.03,-540 659.51,-537.64 636.8,-533.82 618.3,-530.4"/>
<polygon fill="black" stroke="black" points="618.7,-526.92 608.23,-528.51 617.41,-533.8 618.7,-526.92"/>
</g>
<!-- ast.Call object at 0x7f1116af7310 -->
<g id="node13" class="node">
<title>ast.Call object at 0x7f1116af7310</title>
<path fill="#66cdaa" stroke="black" d="M1592.03,-252C1592.03,-252 1562.03,-252 1562.03,-252 1556.03,-252 1550.03,-246 1550.03,-240 1550.03,-240 1550.03,-228 1550.03,-228 1550.03,-222 1556.03,-216 1562.03,-216 1562.03,-216 1592.03,-216 1592.03,-216 1598.03,-216 1604.03,-222 1604.03,-228 1604.03,-228 1604.03,-240 1604.03,-240 1604.03,-246 1598.03,-252 1592.03,-252"/>
<text text-anchor="middle" x="1577.03" y="-230.3" font-family="Times,serif" font-size="14.00">Call</text>
</g>
<!-- ast.For object at 0x7f1116af7290&#45;&gt;ast.Call object at 0x7f1116af7310 -->
<g id="edge13" class="edge">
<title>ast.For object at 0x7f1116af7290&#45;&gt;ast.Call object at 0x7f1116af7310</title>
<path fill="none" stroke="black" d="M1323.2,-575.98C1326.41,-549.37 1332.03,-496.25 1332.03,-451 1332.03,-451 1332.03,-451 1332.03,-377 1332.03,-282.07 1471.41,-249.56 1539.91,-239.31"/>
<polygon fill="black" stroke="black" points="1540.46,-242.77 1549.87,-237.91 1539.48,-235.84 1540.46,-242.77"/>
</g>
<!-- ast.For object at 0x7f1116af7550 -->
<g id="node19" class="node">
<title>ast.For object at 0x7f1116af7550</title>
<path fill="#66cdaa" stroke="black" d="M731.03,-540C731.03,-540 701.03,-540 701.03,-540 695.03,-540 689.03,-534 689.03,-528 689.03,-528 689.03,-516 689.03,-516 689.03,-510 695.03,-504 701.03,-504 701.03,-504 731.03,-504 731.03,-504 737.03,-504 743.03,-510 743.03,-516 743.03,-516 743.03,-528 743.03,-528 743.03,-534 737.03,-540 731.03,-540"/>
<text text-anchor="middle" x="716.03" y="-518.3" font-family="Times,serif" font-size="14.00">For</text>
</g>
<!-- ast.For object at 0x7f1116af7290&#45;&gt;ast.For object at 0x7f1116af7550 -->
<g id="edge21" class="edge">
<title>ast.For object at 0x7f1116af7290&#45;&gt;ast.For object at 0x7f1116af7550</title>
<path fill="none" stroke="black" d="M1293.89,-578.98C1290.95,-577.83 1287.96,-576.8 1285.03,-576 1233.88,-562.01 871.31,-534.42 753.15,-525.71"/>
<polygon fill="black" stroke="black" points="753.37,-522.21 743.14,-524.97 752.85,-529.19 753.37,-522.21"/>
</g>
<!-- ast.Name object at 0x7f1116af72d0&#45;&gt;ast.Store object at 0x7f1132bc5790 -->
<g id="edge12" class="edge">
<title>ast.Name object at 0x7f1116af72d0&#45;&gt;ast.Store object at 0x7f1132bc5790</title>
<path fill="none" stroke="black" d="M553.75,-514.73C530.15,-507.7 497.46,-493.76 482.03,-468 457.37,-426.82 463.51,-404.28 482.03,-360 502.33,-311.46 552.82,-274.73 587.78,-254.03"/>
<polygon fill="black" stroke="black" points="589.82,-256.89 596.74,-248.86 586.33,-250.82 589.82,-256.89"/>
</g>
<!-- ast.Name object at 0x7f1116af7350 -->
<g id="node14" class="node">
<title>ast.Name object at 0x7f1116af7350</title>
<path fill="#66cdaa" stroke="black" d="M1592.03,-180C1592.03,-180 1562.03,-180 1562.03,-180 1556.03,-180 1550.03,-174 1550.03,-168 1550.03,-168 1550.03,-156 1550.03,-156 1550.03,-150 1556.03,-144 1562.03,-144 1562.03,-144 1592.03,-144 1592.03,-144 1598.03,-144 1604.03,-150 1604.03,-156 1604.03,-156 1604.03,-168 1604.03,-168 1604.03,-174 1598.03,-180 1592.03,-180"/>
<text text-anchor="middle" x="1577.03" y="-158.3" font-family="Times,serif" font-size="14.00">Name</text>
</g>
<!-- ast.Call object at 0x7f1116af7310&#45;&gt;ast.Name object at 0x7f1116af7350 -->
<g id="edge14" class="edge">
<title>ast.Call object at 0x7f1116af7310&#45;&gt;ast.Name object at 0x7f1116af7350</title>
<path fill="none" stroke="black" d="M1577.03,-215.7C1577.03,-207.98 1577.03,-198.71 1577.03,-190.11"/>
<polygon fill="black" stroke="black" points="1580.53,-190.1 1577.03,-180.1 1573.53,-190.1 1580.53,-190.1"/>
</g>
<!-- ast.Call object at 0x7f1116af73d0 -->
<g id="node16" class="node">
<title>ast.Call object at 0x7f1116af73d0</title>
<path fill="#66cdaa" stroke="black" d="M1664.03,-180C1664.03,-180 1634.03,-180 1634.03,-180 1628.03,-180 1622.03,-174 1622.03,-168 1622.03,-168 1622.03,-156 1622.03,-156 1622.03,-150 1628.03,-144 1634.03,-144 1634.03,-144 1664.03,-144 1664.03,-144 1670.03,-144 1676.03,-150 1676.03,-156 1676.03,-156 1676.03,-168 1676.03,-168 1676.03,-174 1670.03,-180 1664.03,-180"/>
<text text-anchor="middle" x="1649.03" y="-158.3" font-family="Times,serif" font-size="14.00">Call</text>
</g>
<!-- ast.Call object at 0x7f1116af7310&#45;&gt;ast.Call object at 0x7f1116af73d0 -->
<g id="edge16" class="edge">
<title>ast.Call object at 0x7f1116af7310&#45;&gt;ast.Call object at 0x7f1116af73d0</title>
<path fill="none" stroke="black" d="M1594.83,-215.7C1603.63,-207.14 1614.41,-196.66 1624.03,-187.3"/>
<polygon fill="black" stroke="black" points="1626.71,-189.58 1631.44,-180.1 1621.83,-184.57 1626.71,-189.58"/>
</g>
<!-- ast.Load object at 0x7f1132bc5710 -->
<g id="node15" class="node">
<title>ast.Load object at 0x7f1132bc5710</title>
<path fill="#66cdaa" stroke="black" d="M838.03,-36C838.03,-36 808.03,-36 808.03,-36 802.03,-36 796.03,-30 796.03,-24 796.03,-24 796.03,-12 796.03,-12 796.03,-6 802.03,0 808.03,0 808.03,0 838.03,0 838.03,0 844.03,0 850.03,-6 850.03,-12 850.03,-12 850.03,-24 850.03,-24 850.03,-30 844.03,-36 838.03,-36"/>
<text text-anchor="middle" x="823.03" y="-14.3" font-family="Times,serif" font-size="14.00">Load</text>
</g>
<!-- ast.Name object at 0x7f1116af7350&#45;&gt;ast.Load object at 0x7f1132bc5710 -->
<g id="edge15" class="edge">
<title>ast.Name object at 0x7f1116af7350&#45;&gt;ast.Load object at 0x7f1132bc5710</title>
<path fill="none" stroke="black" d="M1571.4,-143.77C1563.54,-122.8 1547.12,-88.19 1520.03,-72 1463.23,-38.06 997.34,-23.48 860.61,-19.91"/>
<polygon fill="black" stroke="black" points="860.33,-16.4 850.24,-19.64 860.15,-23.4 860.33,-16.4"/>
</g>
<!-- ast.Name object at 0x7f1116af7410 -->
<g id="node17" class="node">
<title>ast.Name object at 0x7f1116af7410</title>
<path fill="#66cdaa" stroke="black" d="M1718.03,-108C1718.03,-108 1688.03,-108 1688.03,-108 1682.03,-108 1676.03,-102 1676.03,-96 1676.03,-96 1676.03,-84 1676.03,-84 1676.03,-78 1682.03,-72 1688.03,-72 1688.03,-72 1718.03,-72 1718.03,-72 1724.03,-72 1730.03,-78 1730.03,-84 1730.03,-84 1730.03,-96 1730.03,-96 1730.03,-102 1724.03,-108 1718.03,-108"/>
<text text-anchor="middle" x="1703.03" y="-86.3" font-family="Times,serif" font-size="14.00">Name</text>
</g>
<!-- ast.Call object at 0x7f1116af73d0&#45;&gt;ast.Name object at 0x7f1116af7410 -->
<g id="edge17" class="edge">
<title>ast.Call object at 0x7f1116af73d0&#45;&gt;ast.Name object at 0x7f1116af7410</title>
<path fill="none" stroke="black" d="M1662.38,-143.7C1668.79,-135.39 1676.59,-125.28 1683.64,-116.14"/>
<polygon fill="black" stroke="black" points="1686.5,-118.16 1689.84,-108.1 1680.96,-113.88 1686.5,-118.16"/>
</g>
<!-- ast.Name object at 0x7f1116af7490 -->
<g id="node18" class="node">
<title>ast.Name object at 0x7f1116af7490</title>
<path fill="#66cdaa" stroke="black" d="M1646.03,-108C1646.03,-108 1616.03,-108 1616.03,-108 1610.03,-108 1604.03,-102 1604.03,-96 1604.03,-96 1604.03,-84 1604.03,-84 1604.03,-78 1610.03,-72 1616.03,-72 1616.03,-72 1646.03,-72 1646.03,-72 1652.03,-72 1658.03,-78 1658.03,-84 1658.03,-84 1658.03,-96 1658.03,-96 1658.03,-102 1652.03,-108 1646.03,-108"/>
<text text-anchor="middle" x="1631.03" y="-86.3" font-family="Times,serif" font-size="14.00">Name</text>
</g>
<!-- ast.Call object at 0x7f1116af73d0&#45;&gt;ast.Name object at 0x7f1116af7490 -->
<g id="edge19" class="edge">
<title>ast.Call object at 0x7f1116af73d0&#45;&gt;ast.Name object at 0x7f1116af7490</title>
<path fill="none" stroke="black" d="M1644.58,-143.7C1642.58,-135.9 1640.16,-126.51 1637.93,-117.83"/>
<polygon fill="black" stroke="black" points="1641.31,-116.92 1635.43,-108.1 1634.53,-118.66 1641.31,-116.92"/>
</g>
<!-- ast.Name object at 0x7f1116af7410&#45;&gt;ast.Load object at 0x7f1132bc5710 -->
<g id="edge18" class="edge">
<title>ast.Name object at 0x7f1116af7410&#45;&gt;ast.Load object at 0x7f1132bc5710</title>
<path fill="none" stroke="black" d="M1675.91,-74.89C1672.97,-73.76 1669.98,-72.76 1667.03,-72 1511.14,-31.87 1003.03,-21.6 860.51,-19.48"/>
<polygon fill="black" stroke="black" points="860.17,-15.98 850.12,-19.33 860.07,-22.98 860.17,-15.98"/>
</g>
<!-- ast.Name object at 0x7f1116af7490&#45;&gt;ast.Load object at 0x7f1132bc5710 -->
<g id="edge20" class="edge">
<title>ast.Name object at 0x7f1116af7490&#45;&gt;ast.Load object at 0x7f1132bc5710</title>
<path fill="none" stroke="black" d="M1603.65,-76.23C1599.17,-74.55 1594.53,-73.06 1590.03,-72 1448.82,-38.78 994.45,-23.76 860.52,-19.99"/>
<polygon fill="black" stroke="black" points="860.45,-16.48 850.36,-19.71 860.25,-23.48 860.45,-16.48"/>
</g>
<!-- ast.Name object at 0x7f1116af75d0 -->
<g id="node20" class="node">
<title>ast.Name object at 0x7f1116af75d0</title>
<path fill="#66cdaa" stroke="black" d="M677.03,-396C677.03,-396 647.03,-396 647.03,-396 641.03,-396 635.03,-390 635.03,-384 635.03,-384 635.03,-372 635.03,-372 635.03,-366 641.03,-360 647.03,-360 647.03,-360 677.03,-360 677.03,-360 683.03,-360 689.03,-366 689.03,-372 689.03,-372 689.03,-384 689.03,-384 689.03,-390 683.03,-396 677.03,-396"/>
<text text-anchor="middle" x="662.03" y="-374.3" font-family="Times,serif" font-size="14.00">Name</text>
</g>
<!-- ast.For object at 0x7f1116af7550&#45;&gt;ast.Name object at 0x7f1116af75d0 -->
<g id="edge22" class="edge">
<title>ast.For object at 0x7f1116af7550&#45;&gt;ast.Name object at 0x7f1116af75d0</title>
<path fill="none" stroke="black" d="M709.52,-503.87C700.23,-479.46 683.11,-434.43 672.16,-405.64"/>
<polygon fill="black" stroke="black" points="675.39,-404.29 668.57,-396.19 668.85,-406.78 675.39,-404.29"/>
</g>
<!-- ast.Call object at 0x7f1116af7610 -->
<g id="node21" class="node">
<title>ast.Call object at 0x7f1116af7610</title>
<path fill="#66cdaa" stroke="black" d="M728.03,-252C728.03,-252 698.03,-252 698.03,-252 692.03,-252 686.03,-246 686.03,-240 686.03,-240 686.03,-228 686.03,-228 686.03,-222 692.03,-216 698.03,-216 698.03,-216 728.03,-216 728.03,-216 734.03,-216 740.03,-222 740.03,-228 740.03,-228 740.03,-240 740.03,-240 740.03,-246 734.03,-252 728.03,-252"/>
<text text-anchor="middle" x="713.03" y="-230.3" font-family="Times,serif" font-size="14.00">Call</text>
</g>
<!-- ast.For object at 0x7f1116af7550&#45;&gt;ast.Call object at 0x7f1116af7610 -->
<g id="edge24" class="edge">
<title>ast.For object at 0x7f1116af7550&#45;&gt;ast.Call object at 0x7f1116af7610</title>
<path fill="none" stroke="black" d="M719.77,-503.91C727.65,-465.21 744.24,-367.99 731.03,-288 729.59,-279.28 726.9,-270.06 724.03,-261.8"/>
<polygon fill="black" stroke="black" points="727.26,-260.46 720.51,-252.3 720.7,-262.89 727.26,-260.46"/>
</g>
<!-- ast.Assign object at 0x7f1116af7910 -->
<g id="node30" class="node">
<title>ast.Assign object at 0x7f1116af7910</title>
<path fill="#66cdaa" stroke="black" d="M605.03,-468C605.03,-468 575.03,-468 575.03,-468 569.03,-468 563.03,-462 563.03,-456 563.03,-456 563.03,-444 563.03,-444 563.03,-438 569.03,-432 575.03,-432 575.03,-432 605.03,-432 605.03,-432 611.03,-432 617.03,-438 617.03,-444 617.03,-444 617.03,-456 617.03,-456 617.03,-462 611.03,-468 605.03,-468"/>
<text text-anchor="middle" x="590.03" y="-446.3" font-family="Times,serif" font-size="14.00">Assign</text>
</g>
<!-- ast.For object at 0x7f1116af7550&#45;&gt;ast.Assign object at 0x7f1116af7910 -->
<g id="edge37" class="edge">
<title>ast.For object at 0x7f1116af7550&#45;&gt;ast.Assign object at 0x7f1116af7910</title>
<path fill="none" stroke="black" d="M689,-505.98C670.69,-495.81 646.28,-482.25 626.29,-471.14"/>
<polygon fill="black" stroke="black" points="627.89,-468.03 617.45,-466.23 624.49,-474.15 627.89,-468.03"/>
</g>
<!-- ast.Assign object at 0x7f1116af7cd0 -->
<g id="node39" class="node">
<title>ast.Assign object at 0x7f1116af7cd0</title>
<path fill="#66cdaa" stroke="black" d="M533.03,-468C533.03,-468 503.03,-468 503.03,-468 497.03,-468 491.03,-462 491.03,-456 491.03,-456 491.03,-444 491.03,-444 491.03,-438 497.03,-432 503.03,-432 503.03,-432 533.03,-432 533.03,-432 539.03,-432 545.03,-438 545.03,-444 545.03,-444 545.03,-456 545.03,-456 545.03,-462 539.03,-468 533.03,-468"/>
<text text-anchor="middle" x="518.03" y="-446.3" font-family="Times,serif" font-size="14.00">Assign</text>
</g>
<!-- ast.For object at 0x7f1116af7550&#45;&gt;ast.Assign object at 0x7f1116af7cd0 -->
<g id="edge52" class="edge">
<title>ast.For object at 0x7f1116af7550&#45;&gt;ast.Assign object at 0x7f1116af7cd0</title>
<path fill="none" stroke="black" d="M689,-513.29C658.38,-504.31 606.89,-488.47 554.78,-468.08"/>
<polygon fill="black" stroke="black" points="555.98,-464.78 545.39,-464.35 553.4,-471.29 555.98,-464.78"/>
</g>
<!-- ast.If object at 0x7f1116ab27d0 -->
<g id="node48" class="node">
<title>ast.If object at 0x7f1116ab27d0</title>
<path fill="#66cdaa" stroke="black" d="M880.03,-468C880.03,-468 850.03,-468 850.03,-468 844.03,-468 838.03,-462 838.03,-456 838.03,-456 838.03,-444 838.03,-444 838.03,-438 844.03,-432 850.03,-432 850.03,-432 880.03,-432 880.03,-432 886.03,-432 892.03,-438 892.03,-444 892.03,-444 892.03,-456 892.03,-456 892.03,-462 886.03,-468 880.03,-468"/>
<text text-anchor="middle" x="865.03" y="-446.3" font-family="Times,serif" font-size="14.00">If</text>
</g>
<!-- ast.For object at 0x7f1116af7550&#45;&gt;ast.If object at 0x7f1116ab27d0 -->
<g id="edge67" class="edge">
<title>ast.For object at 0x7f1116af7550&#45;&gt;ast.If object at 0x7f1116ab27d0</title>
<path fill="none" stroke="black" d="M743.36,-508.16C767.3,-496.91 802.29,-480.48 828.61,-468.11"/>
<polygon fill="black" stroke="black" points="830.31,-471.18 837.87,-463.76 827.34,-464.84 830.31,-471.18"/>
</g>
<!-- ast.Name object at 0x7f1116af75d0&#45;&gt;ast.Store object at 0x7f1132bc5790 -->
<g id="edge23" class="edge">
<title>ast.Name object at 0x7f1116af75d0&#45;&gt;ast.Store object at 0x7f1132bc5790</title>
<path fill="none" stroke="black" d="M657.45,-359.87C650.94,-335.56 638.97,-290.82 631.26,-262.01"/>
<polygon fill="black" stroke="black" points="634.6,-260.94 628.63,-252.19 627.83,-262.75 634.6,-260.94"/>
</g>
<!-- ast.Name object at 0x7f1116af7650 -->
<g id="node22" class="node">
<title>ast.Name object at 0x7f1116af7650</title>
<path fill="#66cdaa" stroke="black" d="M707.03,-180C707.03,-180 677.03,-180 677.03,-180 671.03,-180 665.03,-174 665.03,-168 665.03,-168 665.03,-156 665.03,-156 665.03,-150 671.03,-144 677.03,-144 677.03,-144 707.03,-144 707.03,-144 713.03,-144 719.03,-150 719.03,-156 719.03,-156 719.03,-168 719.03,-168 719.03,-174 713.03,-180 707.03,-180"/>
<text text-anchor="middle" x="692.03" y="-158.3" font-family="Times,serif" font-size="14.00">Name</text>
</g>
<!-- ast.Call object at 0x7f1116af7610&#45;&gt;ast.Name object at 0x7f1116af7650 -->
<g id="edge25" class="edge">
<title>ast.Call object at 0x7f1116af7610&#45;&gt;ast.Name object at 0x7f1116af7650</title>
<path fill="none" stroke="black" d="M707.84,-215.7C705.5,-207.9 702.68,-198.51 700.08,-189.83"/>
<polygon fill="black" stroke="black" points="703.39,-188.68 697.16,-180.1 696.68,-190.69 703.39,-188.68"/>
</g>
<!-- ast.BinOp object at 0x7f1116af7710 -->
<g id="node23" class="node">
<title>ast.BinOp object at 0x7f1116af7710</title>
<path fill="#66cdaa" stroke="black" d="M791.03,-180C791.03,-180 761.03,-180 761.03,-180 755.03,-180 749.03,-174 749.03,-168 749.03,-168 749.03,-156 749.03,-156 749.03,-150 755.03,-144 761.03,-144 761.03,-144 791.03,-144 791.03,-144 797.03,-144 803.03,-150 803.03,-156 803.03,-156 803.03,-168 803.03,-168 803.03,-174 797.03,-180 791.03,-180"/>
<text text-anchor="middle" x="776.03" y="-158.3" font-family="Times,serif" font-size="14.00">BinOp</text>
</g>
<!-- ast.Call object at 0x7f1116af7610&#45;&gt;ast.BinOp object at 0x7f1116af7710 -->
<g id="edge27" class="edge">
<title>ast.Call object at 0x7f1116af7610&#45;&gt;ast.BinOp object at 0x7f1116af7710</title>
<path fill="none" stroke="black" d="M728.6,-215.7C736.23,-207.22 745.55,-196.86 753.91,-187.58"/>
<polygon fill="black" stroke="black" points="756.55,-189.88 760.64,-180.1 751.34,-185.2 756.55,-189.88"/>
</g>
<!-- ast.Call object at 0x7f1116af7790 -->
<g id="node27" class="node">
<title>ast.Call object at 0x7f1116af7790</title>
<path fill="#66cdaa" stroke="black" d="M614.03,-180C614.03,-180 584.03,-180 584.03,-180 578.03,-180 572.03,-174 572.03,-168 572.03,-168 572.03,-156 572.03,-156 572.03,-150 578.03,-144 584.03,-144 584.03,-144 614.03,-144 614.03,-144 620.03,-144 626.03,-150 626.03,-156 626.03,-156 626.03,-168 626.03,-168 626.03,-174 620.03,-180 614.03,-180"/>
<text text-anchor="middle" x="599.03" y="-158.3" font-family="Times,serif" font-size="14.00">Call</text>
</g>
<!-- ast.Call object at 0x7f1116af7610&#45;&gt;ast.Call object at 0x7f1116af7790 -->
<g id="edge32" class="edge">
<title>ast.Call object at 0x7f1116af7610&#45;&gt;ast.Call object at 0x7f1116af7790</title>
<path fill="none" stroke="black" d="M686.01,-216.41C670.79,-207.06 651.58,-195.27 635.09,-185.14"/>
<polygon fill="black" stroke="black" points="636.6,-181.96 626.25,-179.71 632.94,-187.93 636.6,-181.96"/>
</g>
<!-- ast.Name object at 0x7f1116af7650&#45;&gt;ast.Load object at 0x7f1132bc5710 -->
<g id="edge26" class="edge">
<title>ast.Name object at 0x7f1116af7650&#45;&gt;ast.Load object at 0x7f1132bc5710</title>
<path fill="none" stroke="black" d="M681.02,-143.67C670.37,-124.48 657.89,-93.41 673.03,-72 698.43,-36.08 750.29,-24.34 785.85,-20.6"/>
<polygon fill="black" stroke="black" points="786.21,-24.08 795.86,-19.71 785.59,-17.11 786.21,-24.08"/>
</g>
<!-- ast.Name object at 0x7f1116af76d0 -->
<g id="node24" class="node">
<title>ast.Name object at 0x7f1116af76d0</title>
<path fill="#66cdaa" stroke="black" d="M724.03,-108C724.03,-108 694.03,-108 694.03,-108 688.03,-108 682.03,-102 682.03,-96 682.03,-96 682.03,-84 682.03,-84 682.03,-78 688.03,-72 694.03,-72 694.03,-72 724.03,-72 724.03,-72 730.03,-72 736.03,-78 736.03,-84 736.03,-84 736.03,-96 736.03,-96 736.03,-102 730.03,-108 724.03,-108"/>
<text text-anchor="middle" x="709.03" y="-86.3" font-family="Times,serif" font-size="14.00">Name</text>
</g>
<!-- ast.BinOp object at 0x7f1116af7710&#45;&gt;ast.Name object at 0x7f1116af76d0 -->
<g id="edge28" class="edge">
<title>ast.BinOp object at 0x7f1116af7710&#45;&gt;ast.Name object at 0x7f1116af76d0</title>
<path fill="none" stroke="black" d="M759.47,-143.7C751.35,-135.22 741.44,-124.86 732.56,-115.58"/>
<polygon fill="black" stroke="black" points="734.84,-112.91 725.4,-108.1 729.79,-117.75 734.84,-112.91"/>
</g>
<!-- ast.Add object at 0x7f1132bc5c10 -->
<g id="node25" class="node">
<title>ast.Add object at 0x7f1132bc5c10</title>
<path fill="#66cdaa" stroke="black" d="M880.03,-108C880.03,-108 850.03,-108 850.03,-108 844.03,-108 838.03,-102 838.03,-96 838.03,-96 838.03,-84 838.03,-84 838.03,-78 844.03,-72 850.03,-72 850.03,-72 880.03,-72 880.03,-72 886.03,-72 892.03,-78 892.03,-84 892.03,-84 892.03,-96 892.03,-96 892.03,-102 886.03,-108 880.03,-108"/>
<text text-anchor="middle" x="865.03" y="-86.3" font-family="Times,serif" font-size="14.00">Add</text>
</g>
<!-- ast.BinOp object at 0x7f1116af7710&#45;&gt;ast.Add object at 0x7f1132bc5c10 -->
<g id="edge30" class="edge">
<title>ast.BinOp object at 0x7f1116af7710&#45;&gt;ast.Add object at 0x7f1132bc5c10</title>
<path fill="none" stroke="black" d="M798.03,-143.7C809.24,-134.88 823.03,-124.03 835.18,-114.47"/>
<polygon fill="black" stroke="black" points="837.59,-117.04 843.28,-108.1 833.26,-111.54 837.59,-117.04"/>
</g>
<!-- ast.Constant object at 0x7f1116af7750 -->
<g id="node26" class="node">
<title>ast.Constant object at 0x7f1116af7750</title>
<path fill="#66cdaa" stroke="black" d="M807.53,-108C807.53,-108 766.53,-108 766.53,-108 760.53,-108 754.53,-102 754.53,-96 754.53,-96 754.53,-84 754.53,-84 754.53,-78 760.53,-72 766.53,-72 766.53,-72 807.53,-72 807.53,-72 813.53,-72 819.53,-78 819.53,-84 819.53,-84 819.53,-96 819.53,-96 819.53,-102 813.53,-108 807.53,-108"/>
<text text-anchor="middle" x="787.03" y="-86.3" font-family="Times,serif" font-size="14.00">Constant</text>
</g>
<!-- ast.BinOp object at 0x7f1116af7710&#45;&gt;ast.Constant object at 0x7f1116af7750 -->
<g id="edge31" class="edge">
<title>ast.BinOp object at 0x7f1116af7710&#45;&gt;ast.Constant object at 0x7f1116af7750</title>
<path fill="none" stroke="black" d="M778.75,-143.7C779.96,-135.98 781.42,-126.71 782.77,-118.11"/>
<polygon fill="black" stroke="black" points="786.25,-118.53 784.34,-108.1 779.33,-117.44 786.25,-118.53"/>
</g>
<!-- ast.Name object at 0x7f1116af76d0&#45;&gt;ast.Load object at 0x7f1132bc5710 -->
<g id="edge29" class="edge">
<title>ast.Name object at 0x7f1116af76d0&#45;&gt;ast.Load object at 0x7f1132bc5710</title>
<path fill="none" stroke="black" d="M736.05,-72.41C751.27,-63.06 770.48,-51.27 786.97,-41.14"/>
<polygon fill="black" stroke="black" points="789.12,-43.93 795.81,-35.71 785.46,-37.96 789.12,-43.93"/>
</g>
<!-- ast.Name object at 0x7f1116af77d0 -->
<g id="node28" class="node">
<title>ast.Name object at 0x7f1116af77d0</title>
<path fill="#66cdaa" stroke="black" d="M614.03,-108C614.03,-108 584.03,-108 584.03,-108 578.03,-108 572.03,-102 572.03,-96 572.03,-96 572.03,-84 572.03,-84 572.03,-78 578.03,-72 584.03,-72 584.03,-72 614.03,-72 614.03,-72 620.03,-72 626.03,-78 626.03,-84 626.03,-84 626.03,-96 626.03,-96 626.03,-102 620.03,-108 614.03,-108"/>
<text text-anchor="middle" x="599.03" y="-86.3" font-family="Times,serif" font-size="14.00">Name</text>
</g>
<!-- ast.Call object at 0x7f1116af7790&#45;&gt;ast.Name object at 0x7f1116af77d0 -->
<g id="edge33" class="edge">
<title>ast.Call object at 0x7f1116af7790&#45;&gt;ast.Name object at 0x7f1116af77d0</title>
<path fill="none" stroke="black" d="M599.03,-143.7C599.03,-135.98 599.03,-126.71 599.03,-118.11"/>
<polygon fill="black" stroke="black" points="602.53,-118.1 599.03,-108.1 595.53,-118.1 602.53,-118.1"/>
</g>
<!-- ast.Name object at 0x7f1116af7850 -->
<g id="node29" class="node">
<title>ast.Name object at 0x7f1116af7850</title>
<path fill="#66cdaa" stroke="black" d="M542.03,-108C542.03,-108 512.03,-108 512.03,-108 506.03,-108 500.03,-102 500.03,-96 500.03,-96 500.03,-84 500.03,-84 500.03,-78 506.03,-72 512.03,-72 512.03,-72 542.03,-72 542.03,-72 548.03,-72 554.03,-78 554.03,-84 554.03,-84 554.03,-96 554.03,-96 554.03,-102 548.03,-108 542.03,-108"/>
<text text-anchor="middle" x="527.03" y="-86.3" font-family="Times,serif" font-size="14.00">Name</text>
</g>
<!-- ast.Call object at 0x7f1116af7790&#45;&gt;ast.Name object at 0x7f1116af7850 -->
<g id="edge35" class="edge">
<title>ast.Call object at 0x7f1116af7790&#45;&gt;ast.Name object at 0x7f1116af7850</title>
<path fill="none" stroke="black" d="M581.23,-143.7C572.43,-135.14 561.65,-124.66 552.03,-115.3"/>
<polygon fill="black" stroke="black" points="554.23,-112.57 544.62,-108.1 549.35,-117.58 554.23,-112.57"/>
</g>
<!-- ast.Name object at 0x7f1116af77d0&#45;&gt;ast.Load object at 0x7f1132bc5710 -->
<g id="edge34" class="edge">
<title>ast.Name object at 0x7f1116af77d0&#45;&gt;ast.Load object at 0x7f1132bc5710</title>
<path fill="none" stroke="black" d="M626.21,-77.23C630.79,-75.39 635.52,-73.58 640.03,-72 689.81,-54.53 748.6,-38.26 785.85,-28.47"/>
<polygon fill="black" stroke="black" points="786.96,-31.79 795.76,-25.88 785.2,-25.02 786.96,-31.79"/>
</g>
<!-- ast.Name object at 0x7f1116af7850&#45;&gt;ast.Load object at 0x7f1132bc5710 -->
<g id="edge36" class="edge">
<title>ast.Name object at 0x7f1116af7850&#45;&gt;ast.Load object at 0x7f1132bc5710</title>
<path fill="none" stroke="black" d="M554.27,-75.31C557.19,-74.09 560.14,-72.96 563.03,-72 640.32,-46.29 734.88,-30.81 785.98,-23.7"/>
<polygon fill="black" stroke="black" points="786.47,-27.16 795.9,-22.34 785.52,-20.23 786.47,-27.16"/>
</g>
<!-- ast.Name object at 0x7f1116af79d0 -->
<g id="node31" class="node">
<title>ast.Name object at 0x7f1116af79d0</title>
<path fill="#66cdaa" stroke="black" d="M605.03,-396C605.03,-396 575.03,-396 575.03,-396 569.03,-396 563.03,-390 563.03,-384 563.03,-384 563.03,-372 563.03,-372 563.03,-366 569.03,-360 575.03,-360 575.03,-360 605.03,-360 605.03,-360 611.03,-360 617.03,-366 617.03,-372 617.03,-372 617.03,-384 617.03,-384 617.03,-390 611.03,-396 605.03,-396"/>
<text text-anchor="middle" x="590.03" y="-374.3" font-family="Times,serif" font-size="14.00">Name</text>
</g>
<!-- ast.Assign object at 0x7f1116af7910&#45;&gt;ast.Name object at 0x7f1116af79d0 -->
<g id="edge38" class="edge">
<title>ast.Assign object at 0x7f1116af7910&#45;&gt;ast.Name object at 0x7f1116af79d0</title>
<path fill="none" stroke="black" d="M590.03,-431.7C590.03,-423.98 590.03,-414.71 590.03,-406.11"/>
<polygon fill="black" stroke="black" points="593.53,-406.1 590.03,-396.1 586.53,-406.1 593.53,-406.1"/>
</g>
<!-- ast.Call object at 0x7f1116af7a10 -->
<g id="node32" class="node">
<title>ast.Call object at 0x7f1116af7a10</title>
<path fill="#66cdaa" stroke="black" d="M382.03,-396C382.03,-396 352.03,-396 352.03,-396 346.03,-396 340.03,-390 340.03,-384 340.03,-384 340.03,-372 340.03,-372 340.03,-366 346.03,-360 352.03,-360 352.03,-360 382.03,-360 382.03,-360 388.03,-360 394.03,-366 394.03,-372 394.03,-372 394.03,-384 394.03,-384 394.03,-390 388.03,-396 382.03,-396"/>
<text text-anchor="middle" x="367.03" y="-374.3" font-family="Times,serif" font-size="14.00">Call</text>
</g>
<!-- ast.Assign object at 0x7f1116af7910&#45;&gt;ast.Call object at 0x7f1116af7a10 -->
<g id="edge40" class="edge">
<title>ast.Assign object at 0x7f1116af7910&#45;&gt;ast.Call object at 0x7f1116af7a10</title>
<path fill="none" stroke="black" d="M562.71,-435.53C559.81,-434.27 556.88,-433.07 554.03,-432 503.2,-412.94 442.41,-396.91 404.25,-387.62"/>
<polygon fill="black" stroke="black" points="404.65,-384.12 394.11,-385.18 403.01,-390.93 404.65,-384.12"/>
</g>
<!-- ast.Name object at 0x7f1116af79d0&#45;&gt;ast.Store object at 0x7f1132bc5790 -->
<g id="edge39" class="edge">
<title>ast.Name object at 0x7f1116af79d0&#45;&gt;ast.Store object at 0x7f1132bc5790</title>
<path fill="none" stroke="black" d="M594.13,-359.87C599.95,-335.56 610.66,-290.82 617.56,-262.01"/>
<polygon fill="black" stroke="black" points="620.99,-262.73 619.91,-252.19 614.18,-261.1 620.99,-262.73"/>
</g>
<!-- ast.Name object at 0x7f1116af7a50 -->
<g id="node33" class="node">
<title>ast.Name object at 0x7f1116af7a50</title>
<path fill="#66cdaa" stroke="black" d="M307.03,-324C307.03,-324 277.03,-324 277.03,-324 271.03,-324 265.03,-318 265.03,-312 265.03,-312 265.03,-300 265.03,-300 265.03,-294 271.03,-288 277.03,-288 277.03,-288 307.03,-288 307.03,-288 313.03,-288 319.03,-294 319.03,-300 319.03,-300 319.03,-312 319.03,-312 319.03,-318 313.03,-324 307.03,-324"/>
<text text-anchor="middle" x="292.03" y="-302.3" font-family="Times,serif" font-size="14.00">Name</text>
</g>
<!-- ast.Call object at 0x7f1116af7a10&#45;&gt;ast.Name object at 0x7f1116af7a50 -->
<g id="edge41" class="edge">
<title>ast.Call object at 0x7f1116af7a10&#45;&gt;ast.Name object at 0x7f1116af7a50</title>
<path fill="none" stroke="black" d="M348.49,-359.7C339.23,-351.05 327.87,-340.45 317.77,-331.03"/>
<polygon fill="black" stroke="black" points="320.05,-328.37 310.36,-324.1 315.28,-333.49 320.05,-328.37"/>
</g>
<!-- ast.Call object at 0x7f1116af7ad0 -->
<g id="node34" class="node">
<title>ast.Call object at 0x7f1116af7ad0</title>
<path fill="#66cdaa" stroke="black" d="M382.03,-324C382.03,-324 352.03,-324 352.03,-324 346.03,-324 340.03,-318 340.03,-312 340.03,-312 340.03,-300 340.03,-300 340.03,-294 346.03,-288 352.03,-288 352.03,-288 382.03,-288 382.03,-288 388.03,-288 394.03,-294 394.03,-300 394.03,-300 394.03,-312 394.03,-312 394.03,-318 388.03,-324 382.03,-324"/>
<text text-anchor="middle" x="367.03" y="-302.3" font-family="Times,serif" font-size="14.00">Call</text>
</g>
<!-- ast.Call object at 0x7f1116af7a10&#45;&gt;ast.Call object at 0x7f1116af7ad0 -->
<g id="edge43" class="edge">
<title>ast.Call object at 0x7f1116af7a10&#45;&gt;ast.Call object at 0x7f1116af7ad0</title>
<path fill="none" stroke="black" d="M367.03,-359.7C367.03,-351.98 367.03,-342.71 367.03,-334.11"/>
<polygon fill="black" stroke="black" points="370.53,-334.1 367.03,-324.1 363.53,-334.1 370.53,-334.1"/>
</g>
<!-- ast.Name object at 0x7f1116af7a50&#45;&gt;ast.Load object at 0x7f1132bc5710 -->
<g id="edge42" class="edge">
<title>ast.Name object at 0x7f1116af7a50&#45;&gt;ast.Load object at 0x7f1132bc5710</title>
<path fill="none" stroke="black" d="M287.41,-287.98C276.87,-244.95 256.27,-131.09 315.03,-72 348.12,-38.73 673.79,-24.24 785.59,-20.22"/>
<polygon fill="black" stroke="black" points="785.85,-23.72 795.72,-19.87 785.6,-16.72 785.85,-23.72"/>
</g>
<!-- ast.Attribute object at 0x7f1116af7b50 -->
<g id="node35" class="node">
<title>ast.Attribute object at 0x7f1116af7b50</title>
<path fill="#66cdaa" stroke="black" d="M387.53,-252C387.53,-252 346.53,-252 346.53,-252 340.53,-252 334.53,-246 334.53,-240 334.53,-240 334.53,-228 334.53,-228 334.53,-222 340.53,-216 346.53,-216 346.53,-216 387.53,-216 387.53,-216 393.53,-216 399.53,-222 399.53,-228 399.53,-228 399.53,-240 399.53,-240 399.53,-246 393.53,-252 387.53,-252"/>
<text text-anchor="middle" x="367.03" y="-230.3" font-family="Times,serif" font-size="14.00">Attribute</text>
</g>
<!-- ast.Call object at 0x7f1116af7ad0&#45;&gt;ast.Attribute object at 0x7f1116af7b50 -->
<g id="edge44" class="edge">
<title>ast.Call object at 0x7f1116af7ad0&#45;&gt;ast.Attribute object at 0x7f1116af7b50</title>
<path fill="none" stroke="black" d="M367.03,-287.7C367.03,-279.98 367.03,-270.71 367.03,-262.11"/>
<polygon fill="black" stroke="black" points="370.53,-262.1 367.03,-252.1 363.53,-262.1 370.53,-262.1"/>
</g>
<!-- ast.Attribute object at 0x7f1116af7b50&#45;&gt;ast.Load object at 0x7f1132bc5710 -->
<g id="edge51" class="edge">
<title>ast.Attribute object at 0x7f1116af7b50&#45;&gt;ast.Load object at 0x7f1132bc5710</title>
<path fill="none" stroke="black" d="M353.88,-215.91C347.11,-206.01 339.54,-192.96 336.03,-180 323.48,-133.67 303.98,-107.73 336.03,-72 365.95,-38.65 676.61,-24.29 785.54,-20.26"/>
<polygon fill="black" stroke="black" points="785.87,-23.75 795.73,-19.89 785.61,-16.75 785.87,-23.75"/>
</g>
<!-- ast.Subscript object at 0x7f1116af7b10 -->
<g id="node36" class="node">
<title>ast.Subscript object at 0x7f1116af7b10</title>
<path fill="#66cdaa" stroke="black" d="M401.03,-180C401.03,-180 357.03,-180 357.03,-180 351.03,-180 345.03,-174 345.03,-168 345.03,-168 345.03,-156 345.03,-156 345.03,-150 351.03,-144 357.03,-144 357.03,-144 401.03,-144 401.03,-144 407.03,-144 413.03,-150 413.03,-156 413.03,-156 413.03,-168 413.03,-168 413.03,-174 407.03,-180 401.03,-180"/>
<text text-anchor="middle" x="379.03" y="-158.3" font-family="Times,serif" font-size="14.00">Subscript</text>
</g>
<!-- ast.Attribute object at 0x7f1116af7b50&#45;&gt;ast.Subscript object at 0x7f1116af7b10 -->
<g id="edge45" class="edge">
<title>ast.Attribute object at 0x7f1116af7b50&#45;&gt;ast.Subscript object at 0x7f1116af7b10</title>
<path fill="none" stroke="black" d="M370,-215.7C371.32,-207.98 372.91,-198.71 374.38,-190.11"/>
<polygon fill="black" stroke="black" points="377.86,-190.55 376.1,-180.1 370.96,-189.37 377.86,-190.55"/>
</g>
<!-- ast.Subscript object at 0x7f1116af7b10&#45;&gt;ast.Load object at 0x7f1132bc5710 -->
<g id="edge50" class="edge">
<title>ast.Subscript object at 0x7f1116af7b10&#45;&gt;ast.Load object at 0x7f1132bc5710</title>
<path fill="none" stroke="black" d="M363.76,-143.97C348.16,-124.46 328.64,-92.56 347.03,-72 376.21,-39.39 679.21,-24.58 786.02,-20.34"/>
<polygon fill="black" stroke="black" points="786.16,-23.84 796.02,-19.95 785.89,-16.84 786.16,-23.84"/>
</g>
<!-- ast.Name object at 0x7f1116af7b90 -->
<g id="node37" class="node">
<title>ast.Name object at 0x7f1116af7b90</title>
<path fill="#66cdaa" stroke="black" d="M398.03,-108C398.03,-108 368.03,-108 368.03,-108 362.03,-108 356.03,-102 356.03,-96 356.03,-96 356.03,-84 356.03,-84 356.03,-78 362.03,-72 368.03,-72 368.03,-72 398.03,-72 398.03,-72 404.03,-72 410.03,-78 410.03,-84 410.03,-84 410.03,-96 410.03,-96 410.03,-102 404.03,-108 398.03,-108"/>
<text text-anchor="middle" x="383.03" y="-86.3" font-family="Times,serif" font-size="14.00">Name</text>
</g>
<!-- ast.Subscript object at 0x7f1116af7b10&#45;&gt;ast.Name object at 0x7f1116af7b90 -->
<g id="edge46" class="edge">
<title>ast.Subscript object at 0x7f1116af7b10&#45;&gt;ast.Name object at 0x7f1116af7b90</title>
<path fill="none" stroke="black" d="M380.02,-143.7C380.46,-135.98 380.99,-126.71 381.48,-118.11"/>
<polygon fill="black" stroke="black" points="384.98,-118.29 382.05,-108.1 377.99,-117.89 384.98,-118.29"/>
</g>
<!-- ast.Name object at 0x7f1116af7bd0 -->
<g id="node38" class="node">
<title>ast.Name object at 0x7f1116af7bd0</title>
<path fill="#66cdaa" stroke="black" d="M470.03,-108C470.03,-108 440.03,-108 440.03,-108 434.03,-108 428.03,-102 428.03,-96 428.03,-96 428.03,-84 428.03,-84 428.03,-78 434.03,-72 440.03,-72 440.03,-72 470.03,-72 470.03,-72 476.03,-72 482.03,-78 482.03,-84 482.03,-84 482.03,-96 482.03,-96 482.03,-102 476.03,-108 470.03,-108"/>
<text text-anchor="middle" x="455.03" y="-86.3" font-family="Times,serif" font-size="14.00">Name</text>
</g>
<!-- ast.Subscript object at 0x7f1116af7b10&#45;&gt;ast.Name object at 0x7f1116af7bd0 -->
<g id="edge48" class="edge">
<title>ast.Subscript object at 0x7f1116af7b10&#45;&gt;ast.Name object at 0x7f1116af7bd0</title>
<path fill="none" stroke="black" d="M397.82,-143.7C407.2,-135.05 418.71,-124.45 428.94,-115.03"/>
<polygon fill="black" stroke="black" points="431.48,-117.45 436.46,-108.1 426.73,-112.3 431.48,-117.45"/>
</g>
<!-- ast.Name object at 0x7f1116af7b90&#45;&gt;ast.Load object at 0x7f1132bc5710 -->
<g id="edge47" class="edge">
<title>ast.Name object at 0x7f1116af7b90&#45;&gt;ast.Load object at 0x7f1132bc5710</title>
<path fill="none" stroke="black" d="M410.2,-75.1C413.13,-73.92 416.11,-72.86 419.03,-72 550.08,-33.49 713.27,-22.92 785.57,-20.05"/>
<polygon fill="black" stroke="black" points="786.1,-23.53 795.97,-19.67 785.85,-16.54 786.1,-23.53"/>
</g>
<!-- ast.Name object at 0x7f1116af7bd0&#45;&gt;ast.Load object at 0x7f1132bc5710 -->
<g id="edge49" class="edge">
<title>ast.Name object at 0x7f1116af7bd0&#45;&gt;ast.Load object at 0x7f1132bc5710</title>
<path fill="none" stroke="black" d="M482.23,-75.18C485.15,-73.99 488.12,-72.9 491.03,-72 594.88,-39.9 723.33,-26.46 785.63,-21.51"/>
<polygon fill="black" stroke="black" points="786.06,-24.99 795.76,-20.74 785.52,-18.01 786.06,-24.99"/>
</g>
<!-- ast.Name object at 0x7f1116af7d10 -->
<g id="node40" class="node">
<title>ast.Name object at 0x7f1116af7d10</title>
<path fill="#66cdaa" stroke="black" d="M533.03,-396C533.03,-396 503.03,-396 503.03,-396 497.03,-396 491.03,-390 491.03,-384 491.03,-384 491.03,-372 491.03,-372 491.03,-366 497.03,-360 503.03,-360 503.03,-360 533.03,-360 533.03,-360 539.03,-360 545.03,-366 545.03,-372 545.03,-372 545.03,-384 545.03,-384 545.03,-390 539.03,-396 533.03,-396"/>
<text text-anchor="middle" x="518.03" y="-374.3" font-family="Times,serif" font-size="14.00">Name</text>
</g>
<!-- ast.Assign object at 0x7f1116af7cd0&#45;&gt;ast.Name object at 0x7f1116af7d10 -->
<g id="edge53" class="edge">
<title>ast.Assign object at 0x7f1116af7cd0&#45;&gt;ast.Name object at 0x7f1116af7d10</title>
<path fill="none" stroke="black" d="M518.03,-431.7C518.03,-423.98 518.03,-414.71 518.03,-406.11"/>
<polygon fill="black" stroke="black" points="521.53,-406.1 518.03,-396.1 514.53,-406.1 521.53,-406.1"/>
</g>
<!-- ast.Call object at 0x7f1116af7d50 -->
<g id="node41" class="node">
<title>ast.Call object at 0x7f1116af7d50</title>
<path fill="#66cdaa" stroke="black" d="M229.03,-396C229.03,-396 199.03,-396 199.03,-396 193.03,-396 187.03,-390 187.03,-384 187.03,-384 187.03,-372 187.03,-372 187.03,-366 193.03,-360 199.03,-360 199.03,-360 229.03,-360 229.03,-360 235.03,-360 241.03,-366 241.03,-372 241.03,-372 241.03,-384 241.03,-384 241.03,-390 235.03,-396 229.03,-396"/>
<text text-anchor="middle" x="214.03" y="-374.3" font-family="Times,serif" font-size="14.00">Call</text>
</g>
<!-- ast.Assign object at 0x7f1116af7cd0&#45;&gt;ast.Call object at 0x7f1116af7d50 -->
<g id="edge55" class="edge">
<title>ast.Assign object at 0x7f1116af7cd0&#45;&gt;ast.Call object at 0x7f1116af7d50</title>
<path fill="none" stroke="black" d="M490.78,-442.73C436.12,-430.14 313,-401.79 251.07,-387.53"/>
<polygon fill="black" stroke="black" points="251.85,-384.12 241.32,-385.28 250.28,-390.94 251.85,-384.12"/>
</g>
<!-- ast.Name object at 0x7f1116af7d10&#45;&gt;ast.Store object at 0x7f1132bc5790 -->
<g id="edge54" class="edge">
<title>ast.Name object at 0x7f1116af7d10&#45;&gt;ast.Store object at 0x7f1132bc5790</title>
<path fill="none" stroke="black" d="M530.82,-359.87C549.28,-335.14 583.54,-289.24 604.99,-260.51"/>
<polygon fill="black" stroke="black" points="608.02,-262.3 611.2,-252.19 602.41,-258.11 608.02,-262.3"/>
</g>
<!-- ast.Name object at 0x7f1116af7d90 -->
<g id="node42" class="node">
<title>ast.Name object at 0x7f1116af7d90</title>
<path fill="#66cdaa" stroke="black" d="M229.03,-324C229.03,-324 199.03,-324 199.03,-324 193.03,-324 187.03,-318 187.03,-312 187.03,-312 187.03,-300 187.03,-300 187.03,-294 193.03,-288 199.03,-288 199.03,-288 229.03,-288 229.03,-288 235.03,-288 241.03,-294 241.03,-300 241.03,-300 241.03,-312 241.03,-312 241.03,-318 235.03,-324 229.03,-324"/>
<text text-anchor="middle" x="214.03" y="-302.3" font-family="Times,serif" font-size="14.00">Name</text>
</g>
<!-- ast.Call object at 0x7f1116af7d50&#45;&gt;ast.Name object at 0x7f1116af7d90 -->
<g id="edge56" class="edge">
<title>ast.Call object at 0x7f1116af7d50&#45;&gt;ast.Name object at 0x7f1116af7d90</title>
<path fill="none" stroke="black" d="M214.03,-359.7C214.03,-351.98 214.03,-342.71 214.03,-334.11"/>
<polygon fill="black" stroke="black" points="217.53,-334.1 214.03,-324.1 210.53,-334.1 217.53,-334.1"/>
</g>
<!-- ast.Call object at 0x7f1116af7ed0 -->
<g id="node43" class="node">
<title>ast.Call object at 0x7f1116af7ed0</title>
<path fill="#66cdaa" stroke="black" d="M146.03,-324C146.03,-324 116.03,-324 116.03,-324 110.03,-324 104.03,-318 104.03,-312 104.03,-312 104.03,-300 104.03,-300 104.03,-294 110.03,-288 116.03,-288 116.03,-288 146.03,-288 146.03,-288 152.03,-288 158.03,-294 158.03,-300 158.03,-300 158.03,-312 158.03,-312 158.03,-318 152.03,-324 146.03,-324"/>
<text text-anchor="middle" x="131.03" y="-302.3" font-family="Times,serif" font-size="14.00">Call</text>
</g>
<!-- ast.Call object at 0x7f1116af7d50&#45;&gt;ast.Call object at 0x7f1116af7ed0 -->
<g id="edge58" class="edge">
<title>ast.Call object at 0x7f1116af7d50&#45;&gt;ast.Call object at 0x7f1116af7ed0</title>
<path fill="none" stroke="black" d="M193.51,-359.7C183.16,-350.97 170.44,-340.24 159.19,-330.75"/>
<polygon fill="black" stroke="black" points="161.21,-327.88 151.31,-324.1 156.7,-333.23 161.21,-327.88"/>
</g>
<!-- ast.Name object at 0x7f1116af7d90&#45;&gt;ast.Load object at 0x7f1132bc5710 -->
<g id="edge57" class="edge">
<title>ast.Name object at 0x7f1116af7d90&#45;&gt;ast.Load object at 0x7f1132bc5710</title>
<path fill="none" stroke="black" d="M213.62,-287.79C213.61,-243.81 220.27,-126.91 288.03,-72 326.62,-40.73 670.9,-24.82 785.85,-20.34"/>
<polygon fill="black" stroke="black" points="786.07,-23.84 795.93,-19.96 785.8,-16.84 786.07,-23.84"/>
</g>
<!-- ast.Attribute object at 0x7f1116af7e90 -->
<g id="node44" class="node">
<title>ast.Attribute object at 0x7f1116af7e90</title>
<path fill="#66cdaa" stroke="black" d="M141.53,-252C141.53,-252 100.53,-252 100.53,-252 94.53,-252 88.53,-246 88.53,-240 88.53,-240 88.53,-228 88.53,-228 88.53,-222 94.53,-216 100.53,-216 100.53,-216 141.53,-216 141.53,-216 147.53,-216 153.53,-222 153.53,-228 153.53,-228 153.53,-240 153.53,-240 153.53,-246 147.53,-252 141.53,-252"/>
<text text-anchor="middle" x="121.03" y="-230.3" font-family="Times,serif" font-size="14.00">Attribute</text>
</g>
<!-- ast.Call object at 0x7f1116af7ed0&#45;&gt;ast.Attribute object at 0x7f1116af7e90 -->
<g id="edge59" class="edge">
<title>ast.Call object at 0x7f1116af7ed0&#45;&gt;ast.Attribute object at 0x7f1116af7e90</title>
<path fill="none" stroke="black" d="M128.56,-287.7C127.46,-279.98 126.13,-270.71 124.9,-262.11"/>
<polygon fill="black" stroke="black" points="128.35,-261.51 123.47,-252.1 121.42,-262.5 128.35,-261.51"/>
</g>
<!-- ast.Attribute object at 0x7f1116af7e90&#45;&gt;ast.Load object at 0x7f1132bc5710 -->
<g id="edge66" class="edge">
<title>ast.Attribute object at 0x7f1116af7e90&#45;&gt;ast.Load object at 0x7f1132bc5710</title>
<path fill="none" stroke="black" d="M94.83,-215.96C50.4,-185.1 -30.8,-118.79 13.03,-72 39.78,-43.44 630.04,-24.54 785.68,-20.04"/>
<polygon fill="black" stroke="black" points="785.82,-23.53 795.71,-19.75 785.62,-16.54 785.82,-23.53"/>
</g>
<!-- ast.Subscript object at 0x7f1116af7fd0 -->
<g id="node45" class="node">
<title>ast.Subscript object at 0x7f1116af7fd0</title>
<path fill="#66cdaa" stroke="black" d="M143.03,-180C143.03,-180 99.03,-180 99.03,-180 93.03,-180 87.03,-174 87.03,-168 87.03,-168 87.03,-156 87.03,-156 87.03,-150 93.03,-144 99.03,-144 99.03,-144 143.03,-144 143.03,-144 149.03,-144 155.03,-150 155.03,-156 155.03,-156 155.03,-168 155.03,-168 155.03,-174 149.03,-180 143.03,-180"/>
<text text-anchor="middle" x="121.03" y="-158.3" font-family="Times,serif" font-size="14.00">Subscript</text>
</g>
<!-- ast.Attribute object at 0x7f1116af7e90&#45;&gt;ast.Subscript object at 0x7f1116af7fd0 -->
<g id="edge60" class="edge">
<title>ast.Attribute object at 0x7f1116af7e90&#45;&gt;ast.Subscript object at 0x7f1116af7fd0</title>
<path fill="none" stroke="black" d="M121.03,-215.7C121.03,-207.98 121.03,-198.71 121.03,-190.11"/>
<polygon fill="black" stroke="black" points="124.53,-190.1 121.03,-180.1 117.53,-190.1 124.53,-190.1"/>
</g>
<!-- ast.Subscript object at 0x7f1116af7fd0&#45;&gt;ast.Load object at 0x7f1132bc5710 -->
<g id="edge65" class="edge">
<title>ast.Subscript object at 0x7f1116af7fd0&#45;&gt;ast.Load object at 0x7f1132bc5710</title>
<path fill="none" stroke="black" d="M133.69,-143.94C151.46,-120.5 183.5,-80.29 200.03,-72 303.53,-20.09 667.19,-17.89 785.52,-18.6"/>
<polygon fill="black" stroke="black" points="785.84,-22.1 795.87,-18.67 785.89,-15.1 785.84,-22.1"/>
</g>
<!-- ast.Name object at 0x7f1116af7f10 -->
<g id="node46" class="node">
<title>ast.Name object at 0x7f1116af7f10</title>
<path fill="#66cdaa" stroke="black" d="M64.03,-108C64.03,-108 34.03,-108 34.03,-108 28.03,-108 22.03,-102 22.03,-96 22.03,-96 22.03,-84 22.03,-84 22.03,-78 28.03,-72 34.03,-72 34.03,-72 64.03,-72 64.03,-72 70.03,-72 76.03,-78 76.03,-84 76.03,-84 76.03,-96 76.03,-96 76.03,-102 70.03,-108 64.03,-108"/>
<text text-anchor="middle" x="49.03" y="-86.3" font-family="Times,serif" font-size="14.00">Name</text>
</g>
<!-- ast.Subscript object at 0x7f1116af7fd0&#45;&gt;ast.Name object at 0x7f1116af7f10 -->
<g id="edge61" class="edge">
<title>ast.Subscript object at 0x7f1116af7fd0&#45;&gt;ast.Name object at 0x7f1116af7f10</title>
<path fill="none" stroke="black" d="M103.23,-143.7C94.43,-135.14 83.65,-124.66 74.03,-115.3"/>
<polygon fill="black" stroke="black" points="76.23,-112.57 66.62,-108.1 71.35,-117.58 76.23,-112.57"/>
</g>
<!-- ast.Name object at 0x7f1116ab26d0 -->
<g id="node47" class="node">
<title>ast.Name object at 0x7f1116ab26d0</title>
<path fill="#66cdaa" stroke="black" d="M136.03,-108C136.03,-108 106.03,-108 106.03,-108 100.03,-108 94.03,-102 94.03,-96 94.03,-96 94.03,-84 94.03,-84 94.03,-78 100.03,-72 106.03,-72 106.03,-72 136.03,-72 136.03,-72 142.03,-72 148.03,-78 148.03,-84 148.03,-84 148.03,-96 148.03,-96 148.03,-102 142.03,-108 136.03,-108"/>
<text text-anchor="middle" x="121.03" y="-86.3" font-family="Times,serif" font-size="14.00">Name</text>
</g>
<!-- ast.Subscript object at 0x7f1116af7fd0&#45;&gt;ast.Name object at 0x7f1116ab26d0 -->
<g id="edge63" class="edge">
<title>ast.Subscript object at 0x7f1116af7fd0&#45;&gt;ast.Name object at 0x7f1116ab26d0</title>
<path fill="none" stroke="black" d="M121.03,-143.7C121.03,-135.98 121.03,-126.71 121.03,-118.11"/>
<polygon fill="black" stroke="black" points="124.53,-118.1 121.03,-108.1 117.53,-118.1 124.53,-118.1"/>
</g>
<!-- ast.Name object at 0x7f1116af7f10&#45;&gt;ast.Load object at 0x7f1132bc5710 -->
<g id="edge62" class="edge">
<title>ast.Name object at 0x7f1116af7f10&#45;&gt;ast.Load object at 0x7f1132bc5710</title>
<path fill="none" stroke="black" d="M76.15,-74.92C79.09,-73.78 82.09,-72.77 85.03,-72 219.63,-36.71 655,-23.19 785.64,-19.87"/>
<polygon fill="black" stroke="black" points="786.01,-23.36 795.92,-19.61 785.83,-16.36 786.01,-23.36"/>
</g>
<!-- ast.Name object at 0x7f1116ab26d0&#45;&gt;ast.Load object at 0x7f1132bc5710 -->
<g id="edge64" class="edge">
<title>ast.Name object at 0x7f1116ab26d0&#45;&gt;ast.Load object at 0x7f1132bc5710</title>
<path fill="none" stroke="black" d="M148.42,-76.27C152.9,-74.59 157.54,-73.08 162.03,-72 281.94,-43.1 664.23,-25.45 785.64,-20.46"/>
<polygon fill="black" stroke="black" points="786.06,-23.95 795.91,-20.04 785.78,-16.95 786.06,-23.95"/>
</g>
<!-- ast.BoolOp object at 0x7f1116ab2810 -->
<g id="node49" class="node">
<title>ast.BoolOp object at 0x7f1116ab2810</title>
<path fill="#66cdaa" stroke="black" d="M1076.53,-396C1076.53,-396 1041.53,-396 1041.53,-396 1035.53,-396 1029.53,-390 1029.53,-384 1029.53,-384 1029.53,-372 1029.53,-372 1029.53,-366 1035.53,-360 1041.53,-360 1041.53,-360 1076.53,-360 1076.53,-360 1082.53,-360 1088.53,-366 1088.53,-372 1088.53,-372 1088.53,-384 1088.53,-384 1088.53,-390 1082.53,-396 1076.53,-396"/>
<text text-anchor="middle" x="1059.03" y="-374.3" font-family="Times,serif" font-size="14.00">BoolOp</text>
</g>
<!-- ast.If object at 0x7f1116ab27d0&#45;&gt;ast.BoolOp object at 0x7f1116ab2810 -->
<g id="edge68" class="edge">
<title>ast.If object at 0x7f1116ab27d0&#45;&gt;ast.BoolOp object at 0x7f1116ab2810</title>
<path fill="none" stroke="black" d="M892.41,-439.12C925.59,-427.15 981.72,-406.89 1019.56,-393.24"/>
<polygon fill="black" stroke="black" points="1021.02,-396.44 1029.24,-389.75 1018.65,-389.85 1021.02,-396.44"/>
</g>
<!-- ast.AugAssign object at 0x7f1116ab3090 -->
<g id="node70" class="node">
<title>ast.AugAssign object at 0x7f1116ab3090</title>
<path fill="#66cdaa" stroke="black" d="M891.53,-396C891.53,-396 838.53,-396 838.53,-396 832.53,-396 826.53,-390 826.53,-384 826.53,-384 826.53,-372 826.53,-372 826.53,-366 832.53,-360 838.53,-360 838.53,-360 891.53,-360 891.53,-360 897.53,-360 903.53,-366 903.53,-372 903.53,-372 903.53,-384 903.53,-384 903.53,-390 897.53,-396 891.53,-396"/>
<text text-anchor="middle" x="865.03" y="-374.3" font-family="Times,serif" font-size="14.00">AugAssign</text>
</g>
<!-- ast.If object at 0x7f1116ab27d0&#45;&gt;ast.AugAssign object at 0x7f1116ab3090 -->
<g id="edge100" class="edge">
<title>ast.If object at 0x7f1116ab27d0&#45;&gt;ast.AugAssign object at 0x7f1116ab3090</title>
<path fill="none" stroke="black" d="M865.03,-431.7C865.03,-423.98 865.03,-414.71 865.03,-406.11"/>
<polygon fill="black" stroke="black" points="868.53,-406.1 865.03,-396.1 861.53,-406.1 868.53,-406.1"/>
</g>
<!-- ast.And object at 0x7f1132bc59d0 -->
<g id="node50" class="node">
<title>ast.And object at 0x7f1132bc59d0</title>
<path fill="#66cdaa" stroke="black" d="M1019.03,-324C1019.03,-324 989.03,-324 989.03,-324 983.03,-324 977.03,-318 977.03,-312 977.03,-312 977.03,-300 977.03,-300 977.03,-294 983.03,-288 989.03,-288 989.03,-288 1019.03,-288 1019.03,-288 1025.03,-288 1031.03,-294 1031.03,-300 1031.03,-300 1031.03,-312 1031.03,-312 1031.03,-318 1025.03,-324 1019.03,-324"/>
<text text-anchor="middle" x="1004.03" y="-302.3" font-family="Times,serif" font-size="14.00">And</text>
</g>
<!-- ast.BoolOp object at 0x7f1116ab2810&#45;&gt;ast.And object at 0x7f1132bc59d0 -->
<g id="edge69" class="edge">
<title>ast.BoolOp object at 0x7f1116ab2810&#45;&gt;ast.And object at 0x7f1132bc59d0</title>
<path fill="none" stroke="black" d="M1045.43,-359.7C1038.91,-351.39 1030.96,-341.28 1023.78,-332.14"/>
<polygon fill="black" stroke="black" points="1026.4,-329.81 1017.47,-324.1 1020.9,-334.13 1026.4,-329.81"/>
</g>
<!-- ast.Compare object at 0x7f1116ab2890 -->
<g id="node51" class="node">
<title>ast.Compare object at 0x7f1116ab2890</title>
<path fill="#66cdaa" stroke="black" d="M1174.53,-324C1174.53,-324 1131.53,-324 1131.53,-324 1125.53,-324 1119.53,-318 1119.53,-312 1119.53,-312 1119.53,-300 1119.53,-300 1119.53,-294 1125.53,-288 1131.53,-288 1131.53,-288 1174.53,-288 1174.53,-288 1180.53,-288 1186.53,-294 1186.53,-300 1186.53,-300 1186.53,-312 1186.53,-312 1186.53,-318 1180.53,-324 1174.53,-324"/>
<text text-anchor="middle" x="1153.03" y="-302.3" font-family="Times,serif" font-size="14.00">Compare</text>
</g>
<!-- ast.BoolOp object at 0x7f1116ab2810&#45;&gt;ast.Compare object at 0x7f1116ab2890 -->
<g id="edge70" class="edge">
<title>ast.BoolOp object at 0x7f1116ab2810&#45;&gt;ast.Compare object at 0x7f1116ab2890</title>
<path fill="none" stroke="black" d="M1082.27,-359.7C1094.22,-350.8 1108.95,-339.82 1121.88,-330.2"/>
<polygon fill="black" stroke="black" points="1124.13,-332.88 1130.06,-324.1 1119.95,-327.27 1124.13,-332.88"/>
</g>
<!-- ast.Compare object at 0x7f1116ab2b50 -->
<g id="node59" class="node">
<title>ast.Compare object at 0x7f1116ab2b50</title>
<path fill="#66cdaa" stroke="black" d="M1291.53,-324C1291.53,-324 1248.53,-324 1248.53,-324 1242.53,-324 1236.53,-318 1236.53,-312 1236.53,-312 1236.53,-300 1236.53,-300 1236.53,-294 1242.53,-288 1248.53,-288 1248.53,-288 1291.53,-288 1291.53,-288 1297.53,-288 1303.53,-294 1303.53,-300 1303.53,-300 1303.53,-312 1303.53,-312 1303.53,-318 1297.53,-324 1291.53,-324"/>
<text text-anchor="middle" x="1270.03" y="-302.3" font-family="Times,serif" font-size="14.00">Compare</text>
</g>
<!-- ast.BoolOp object at 0x7f1116ab2810&#45;&gt;ast.Compare object at 0x7f1116ab2b50 -->
<g id="edge82" class="edge">
<title>ast.BoolOp object at 0x7f1116ab2810&#45;&gt;ast.Compare object at 0x7f1116ab2b50</title>
<path fill="none" stroke="black" d="M1088.81,-367.12C1124.78,-355.19 1185.56,-335.02 1226.72,-321.37"/>
<polygon fill="black" stroke="black" points="1227.82,-324.69 1236.21,-318.22 1225.62,-318.05 1227.82,-324.69"/>
</g>
<!-- ast.Compare object at 0x7f1116ab2e10 -->
<g id="node66" class="node">
<title>ast.Compare object at 0x7f1116ab2e10</title>
<path fill="#66cdaa" stroke="black" d="M1055.53,-180C1055.53,-180 1012.53,-180 1012.53,-180 1006.53,-180 1000.53,-174 1000.53,-168 1000.53,-168 1000.53,-156 1000.53,-156 1000.53,-150 1006.53,-144 1012.53,-144 1012.53,-144 1055.53,-144 1055.53,-144 1061.53,-144 1067.53,-150 1067.53,-156 1067.53,-156 1067.53,-168 1067.53,-168 1067.53,-174 1061.53,-180 1055.53,-180"/>
<text text-anchor="middle" x="1034.03" y="-158.3" font-family="Times,serif" font-size="14.00">Compare</text>
</g>
<!-- ast.BoolOp object at 0x7f1116ab2810&#45;&gt;ast.Compare object at 0x7f1116ab2e10 -->
<g id="edge94" class="edge">
<title>ast.BoolOp object at 0x7f1116ab2810&#45;&gt;ast.Compare object at 0x7f1116ab2e10</title>
<path fill="none" stroke="black" d="M1057.03,-359.85C1052.7,-322.83 1042.46,-235.18 1037.23,-190.39"/>
<polygon fill="black" stroke="black" points="1040.68,-189.76 1036.04,-180.23 1033.73,-190.57 1040.68,-189.76"/>
</g>
<!-- ast.Call object at 0x7f1116ab28d0 -->
<g id="node52" class="node">
<title>ast.Call object at 0x7f1116ab28d0</title>
<path fill="#66cdaa" stroke="black" d="M1213.03,-252C1213.03,-252 1183.03,-252 1183.03,-252 1177.03,-252 1171.03,-246 1171.03,-240 1171.03,-240 1171.03,-228 1171.03,-228 1171.03,-222 1177.03,-216 1183.03,-216 1183.03,-216 1213.03,-216 1213.03,-216 1219.03,-216 1225.03,-222 1225.03,-228 1225.03,-228 1225.03,-240 1225.03,-240 1225.03,-246 1219.03,-252 1213.03,-252"/>
<text text-anchor="middle" x="1198.03" y="-230.3" font-family="Times,serif" font-size="14.00">Call</text>
</g>
<!-- ast.Compare object at 0x7f1116ab2890&#45;&gt;ast.Call object at 0x7f1116ab28d0 -->
<g id="edge71" class="edge">
<title>ast.Compare object at 0x7f1116ab2890&#45;&gt;ast.Call object at 0x7f1116ab28d0</title>
<path fill="none" stroke="black" d="M1164.15,-287.7C1169.38,-279.56 1175.73,-269.69 1181.51,-260.7"/>
<polygon fill="black" stroke="black" points="1184.57,-262.41 1187.03,-252.1 1178.68,-258.62 1184.57,-262.41"/>
</g>
<!-- ast.GtE object at 0x7f1132bc6990 -->
<g id="node57" class="node">
<title>ast.GtE object at 0x7f1132bc6990</title>
<path fill="#66cdaa" stroke="black" d="M1285.03,-252C1285.03,-252 1255.03,-252 1255.03,-252 1249.03,-252 1243.03,-246 1243.03,-240 1243.03,-240 1243.03,-228 1243.03,-228 1243.03,-222 1249.03,-216 1255.03,-216 1255.03,-216 1285.03,-216 1285.03,-216 1291.03,-216 1297.03,-222 1297.03,-228 1297.03,-228 1297.03,-240 1297.03,-240 1297.03,-246 1291.03,-252 1285.03,-252"/>
<text text-anchor="middle" x="1270.03" y="-230.3" font-family="Times,serif" font-size="14.00">GtE</text>
</g>
<!-- ast.Compare object at 0x7f1116ab2890&#45;&gt;ast.GtE object at 0x7f1132bc6990 -->
<g id="edge80" class="edge">
<title>ast.Compare object at 0x7f1116ab2890&#45;&gt;ast.GtE object at 0x7f1132bc6990</title>
<path fill="none" stroke="black" d="M1181.65,-287.88C1197.41,-278.45 1217.11,-266.66 1233.92,-256.61"/>
<polygon fill="black" stroke="black" points="1236.13,-259.36 1242.91,-251.23 1232.53,-253.36 1236.13,-259.36"/>
</g>
<!-- ast.Constant object at 0x7f1116ab2b10 -->
<g id="node58" class="node">
<title>ast.Constant object at 0x7f1116ab2b10</title>
<path fill="#66cdaa" stroke="black" d="M1140.53,-252C1140.53,-252 1099.53,-252 1099.53,-252 1093.53,-252 1087.53,-246 1087.53,-240 1087.53,-240 1087.53,-228 1087.53,-228 1087.53,-222 1093.53,-216 1099.53,-216 1099.53,-216 1140.53,-216 1140.53,-216 1146.53,-216 1152.53,-222 1152.53,-228 1152.53,-228 1152.53,-240 1152.53,-240 1152.53,-246 1146.53,-252 1140.53,-252"/>
<text text-anchor="middle" x="1120.03" y="-230.3" font-family="Times,serif" font-size="14.00">Constant</text>
</g>
<!-- ast.Compare object at 0x7f1116ab2890&#45;&gt;ast.Constant object at 0x7f1116ab2b10 -->
<g id="edge81" class="edge">
<title>ast.Compare object at 0x7f1116ab2890&#45;&gt;ast.Constant object at 0x7f1116ab2b10</title>
<path fill="none" stroke="black" d="M1144.87,-287.7C1141.12,-279.73 1136.58,-270.1 1132.41,-261.26"/>
<polygon fill="black" stroke="black" points="1135.52,-259.66 1128.09,-252.1 1129.19,-262.64 1135.52,-259.66"/>
</g>
<!-- ast.Name object at 0x7f1116ab2910 -->
<g id="node53" class="node">
<title>ast.Name object at 0x7f1116ab2910</title>
<path fill="#66cdaa" stroke="black" d="M1313.03,-180C1313.03,-180 1283.03,-180 1283.03,-180 1277.03,-180 1271.03,-174 1271.03,-168 1271.03,-168 1271.03,-156 1271.03,-156 1271.03,-150 1277.03,-144 1283.03,-144 1283.03,-144 1313.03,-144 1313.03,-144 1319.03,-144 1325.03,-150 1325.03,-156 1325.03,-156 1325.03,-168 1325.03,-168 1325.03,-174 1319.03,-180 1313.03,-180"/>
<text text-anchor="middle" x="1298.03" y="-158.3" font-family="Times,serif" font-size="14.00">Name</text>
</g>
<!-- ast.Call object at 0x7f1116ab28d0&#45;&gt;ast.Name object at 0x7f1116ab2910 -->
<g id="edge72" class="edge">
<title>ast.Call object at 0x7f1116ab28d0&#45;&gt;ast.Name object at 0x7f1116ab2910</title>
<path fill="none" stroke="black" d="M1222.49,-215.88C1235.33,-206.89 1251.23,-195.76 1265.12,-186.03"/>
<polygon fill="black" stroke="black" points="1267.29,-188.79 1273.47,-180.19 1263.27,-183.06 1267.29,-188.79"/>
</g>
<!-- ast.Subscript object at 0x7f1116ab2990 -->
<g id="node54" class="node">
<title>ast.Subscript object at 0x7f1116ab2990</title>
<path fill="#66cdaa" stroke="black" d="M1230.03,-180C1230.03,-180 1186.03,-180 1186.03,-180 1180.03,-180 1174.03,-174 1174.03,-168 1174.03,-168 1174.03,-156 1174.03,-156 1174.03,-150 1180.03,-144 1186.03,-144 1186.03,-144 1230.03,-144 1230.03,-144 1236.03,-144 1242.03,-150 1242.03,-156 1242.03,-156 1242.03,-168 1242.03,-168 1242.03,-174 1236.03,-180 1230.03,-180"/>
<text text-anchor="middle" x="1208.03" y="-158.3" font-family="Times,serif" font-size="14.00">Subscript</text>
</g>
<!-- ast.Call object at 0x7f1116ab28d0&#45;&gt;ast.Subscript object at 0x7f1116ab2990 -->
<g id="edge74" class="edge">
<title>ast.Call object at 0x7f1116ab28d0&#45;&gt;ast.Subscript object at 0x7f1116ab2990</title>
<path fill="none" stroke="black" d="M1200.5,-215.7C1201.6,-207.98 1202.93,-198.71 1204.16,-190.11"/>
<polygon fill="black" stroke="black" points="1207.64,-190.5 1205.59,-180.1 1200.71,-189.51 1207.64,-190.5"/>
</g>
<!-- ast.Name object at 0x7f1116ab2910&#45;&gt;ast.Load object at 0x7f1132bc5710 -->
<g id="edge73" class="edge">
<title>ast.Name object at 0x7f1116ab2910&#45;&gt;ast.Load object at 0x7f1132bc5710</title>
<path fill="none" stroke="black" d="M1299.76,-143.74C1300.76,-123.39 1298.9,-90.07 1279.03,-72 1248.25,-44 964.17,-26.41 860.59,-20.88"/>
<polygon fill="black" stroke="black" points="860.46,-17.37 850.29,-20.34 860.09,-24.36 860.46,-17.37"/>
</g>
<!-- ast.Subscript object at 0x7f1116ab2990&#45;&gt;ast.Load object at 0x7f1132bc5710 -->
<g id="edge79" class="edge">
<title>ast.Subscript object at 0x7f1116ab2990&#45;&gt;ast.Load object at 0x7f1132bc5710</title>
<path fill="none" stroke="black" d="M1230.82,-143.68C1253,-124.76 1280.71,-94.21 1261.03,-72 1234.56,-42.14 960.99,-25.77 860.12,-20.72"/>
<polygon fill="black" stroke="black" points="860.24,-17.22 850.08,-20.23 859.89,-24.21 860.24,-17.22"/>
</g>
<!-- ast.Name object at 0x7f1116ab29d0 -->
<g id="node55" class="node">
<title>ast.Name object at 0x7f1116ab29d0</title>
<path fill="#66cdaa" stroke="black" d="M1168.03,-108C1168.03,-108 1138.03,-108 1138.03,-108 1132.03,-108 1126.03,-102 1126.03,-96 1126.03,-96 1126.03,-84 1126.03,-84 1126.03,-78 1132.03,-72 1138.03,-72 1138.03,-72 1168.03,-72 1168.03,-72 1174.03,-72 1180.03,-78 1180.03,-84 1180.03,-84 1180.03,-96 1180.03,-96 1180.03,-102 1174.03,-108 1168.03,-108"/>
<text text-anchor="middle" x="1153.03" y="-86.3" font-family="Times,serif" font-size="14.00">Name</text>
</g>
<!-- ast.Subscript object at 0x7f1116ab2990&#45;&gt;ast.Name object at 0x7f1116ab29d0 -->
<g id="edge75" class="edge">
<title>ast.Subscript object at 0x7f1116ab2990&#45;&gt;ast.Name object at 0x7f1116ab29d0</title>
<path fill="none" stroke="black" d="M1194.43,-143.7C1187.91,-135.39 1179.96,-125.28 1172.78,-116.14"/>
<polygon fill="black" stroke="black" points="1175.4,-113.81 1166.47,-108.1 1169.9,-118.13 1175.4,-113.81"/>
</g>
<!-- ast.Name object at 0x7f1116ab2a10 -->
<g id="node56" class="node">
<title>ast.Name object at 0x7f1116ab2a10</title>
<path fill="#66cdaa" stroke="black" d="M1240.03,-108C1240.03,-108 1210.03,-108 1210.03,-108 1204.03,-108 1198.03,-102 1198.03,-96 1198.03,-96 1198.03,-84 1198.03,-84 1198.03,-78 1204.03,-72 1210.03,-72 1210.03,-72 1240.03,-72 1240.03,-72 1246.03,-72 1252.03,-78 1252.03,-84 1252.03,-84 1252.03,-96 1252.03,-96 1252.03,-102 1246.03,-108 1240.03,-108"/>
<text text-anchor="middle" x="1225.03" y="-86.3" font-family="Times,serif" font-size="14.00">Name</text>
</g>
<!-- ast.Subscript object at 0x7f1116ab2990&#45;&gt;ast.Name object at 0x7f1116ab2a10 -->
<g id="edge77" class="edge">
<title>ast.Subscript object at 0x7f1116ab2990&#45;&gt;ast.Name object at 0x7f1116ab2a10</title>
<path fill="none" stroke="black" d="M1212.23,-143.7C1214.13,-135.9 1216.41,-126.51 1218.51,-117.83"/>
<polygon fill="black" stroke="black" points="1221.92,-118.65 1220.88,-108.1 1215.11,-117 1221.92,-118.65"/>
</g>
<!-- ast.Name object at 0x7f1116ab29d0&#45;&gt;ast.Load object at 0x7f1132bc5710 -->
<g id="edge76" class="edge">
<title>ast.Name object at 0x7f1116ab29d0&#45;&gt;ast.Load object at 0x7f1132bc5710</title>
<path fill="none" stroke="black" d="M1125.81,-75.24C1122.89,-74.04 1119.93,-72.93 1117.03,-72 1027.47,-43.33 917.29,-28.69 860.63,-22.58"/>
<polygon fill="black" stroke="black" points="860.67,-19.07 850.36,-21.51 859.94,-26.03 860.67,-19.07"/>
</g>
<!-- ast.Name object at 0x7f1116ab2a10&#45;&gt;ast.Load object at 0x7f1132bc5710 -->
<g id="edge78" class="edge">
<title>ast.Name object at 0x7f1116ab2a10&#45;&gt;ast.Load object at 0x7f1132bc5710</title>
<path fill="none" stroke="black" d="M1197.85,-75.14C1194.92,-73.95 1191.94,-72.88 1189.03,-72 1072.32,-36.85 927.43,-24.69 860.34,-20.75"/>
<polygon fill="black" stroke="black" points="860.44,-17.25 850.26,-20.18 860.05,-24.24 860.44,-17.25"/>
</g>
<!-- ast.Compare object at 0x7f1116ab2b50&#45;&gt;ast.GtE object at 0x7f1132bc6990 -->
<g id="edge92" class="edge">
<title>ast.Compare object at 0x7f1116ab2b50&#45;&gt;ast.GtE object at 0x7f1132bc6990</title>
<path fill="none" stroke="black" d="M1270.03,-287.7C1270.03,-279.98 1270.03,-270.71 1270.03,-262.11"/>
<polygon fill="black" stroke="black" points="1273.53,-262.1 1270.03,-252.1 1266.53,-262.1 1273.53,-262.1"/>
</g>
<!-- ast.Call object at 0x7f1116ab2b90 -->
<g id="node60" class="node">
<title>ast.Call object at 0x7f1116ab2b90</title>
<path fill="#66cdaa" stroke="black" d="M1441.03,-252C1441.03,-252 1411.03,-252 1411.03,-252 1405.03,-252 1399.03,-246 1399.03,-240 1399.03,-240 1399.03,-228 1399.03,-228 1399.03,-222 1405.03,-216 1411.03,-216 1411.03,-216 1441.03,-216 1441.03,-216 1447.03,-216 1453.03,-222 1453.03,-228 1453.03,-228 1453.03,-240 1453.03,-240 1453.03,-246 1447.03,-252 1441.03,-252"/>
<text text-anchor="middle" x="1426.03" y="-230.3" font-family="Times,serif" font-size="14.00">Call</text>
</g>
<!-- ast.Compare object at 0x7f1116ab2b50&#45;&gt;ast.Call object at 0x7f1116ab2b90 -->
<g id="edge83" class="edge">
<title>ast.Compare object at 0x7f1116ab2b50&#45;&gt;ast.Call object at 0x7f1116ab2b90</title>
<path fill="none" stroke="black" d="M1303.67,-290.14C1327.53,-279.57 1360.29,-265 1389.03,-252 1389.23,-251.91 1389.43,-251.82 1389.64,-251.73"/>
<polygon fill="black" stroke="black" points="1391.32,-254.81 1398.97,-247.48 1388.42,-248.43 1391.32,-254.81"/>
</g>
<!-- ast.Constant object at 0x7f1116ab2dd0 -->
<g id="node65" class="node">
<title>ast.Constant object at 0x7f1116ab2dd0</title>
<path fill="#66cdaa" stroke="black" d="M1368.53,-252C1368.53,-252 1327.53,-252 1327.53,-252 1321.53,-252 1315.53,-246 1315.53,-240 1315.53,-240 1315.53,-228 1315.53,-228 1315.53,-222 1321.53,-216 1327.53,-216 1327.53,-216 1368.53,-216 1368.53,-216 1374.53,-216 1380.53,-222 1380.53,-228 1380.53,-228 1380.53,-240 1380.53,-240 1380.53,-246 1374.53,-252 1368.53,-252"/>
<text text-anchor="middle" x="1348.03" y="-230.3" font-family="Times,serif" font-size="14.00">Constant</text>
</g>
<!-- ast.Compare object at 0x7f1116ab2b50&#45;&gt;ast.Constant object at 0x7f1116ab2dd0 -->
<g id="edge93" class="edge">
<title>ast.Compare object at 0x7f1116ab2b50&#45;&gt;ast.Constant object at 0x7f1116ab2dd0</title>
<path fill="none" stroke="black" d="M1289.31,-287.7C1298.95,-279.05 1310.76,-268.45 1321.26,-259.03"/>
<polygon fill="black" stroke="black" points="1323.87,-261.39 1328.97,-252.1 1319.19,-256.18 1323.87,-261.39"/>
</g>
<!-- ast.Name object at 0x7f1116ab2bd0 -->
<g id="node61" class="node">
<title>ast.Name object at 0x7f1116ab2bd0</title>
<path fill="#66cdaa" stroke="black" d="M1520.03,-180C1520.03,-180 1490.03,-180 1490.03,-180 1484.03,-180 1478.03,-174 1478.03,-168 1478.03,-168 1478.03,-156 1478.03,-156 1478.03,-150 1484.03,-144 1490.03,-144 1490.03,-144 1520.03,-144 1520.03,-144 1526.03,-144 1532.03,-150 1532.03,-156 1532.03,-156 1532.03,-168 1532.03,-168 1532.03,-174 1526.03,-180 1520.03,-180"/>
<text text-anchor="middle" x="1505.03" y="-158.3" font-family="Times,serif" font-size="14.00">Name</text>
</g>
<!-- ast.Call object at 0x7f1116ab2b90&#45;&gt;ast.Name object at 0x7f1116ab2bd0 -->
<g id="edge84" class="edge">
<title>ast.Call object at 0x7f1116ab2b90&#45;&gt;ast.Name object at 0x7f1116ab2bd0</title>
<path fill="none" stroke="black" d="M1445.56,-215.7C1455.41,-206.97 1467.52,-196.24 1478.23,-186.75"/>
<polygon fill="black" stroke="black" points="1480.56,-189.36 1485.73,-180.1 1475.92,-184.12 1480.56,-189.36"/>
</g>
<!-- ast.Subscript object at 0x7f1116ab2c50 -->
<g id="node62" class="node">
<title>ast.Subscript object at 0x7f1116ab2c50</title>
<path fill="#66cdaa" stroke="black" d="M1448.03,-180C1448.03,-180 1404.03,-180 1404.03,-180 1398.03,-180 1392.03,-174 1392.03,-168 1392.03,-168 1392.03,-156 1392.03,-156 1392.03,-150 1398.03,-144 1404.03,-144 1404.03,-144 1448.03,-144 1448.03,-144 1454.03,-144 1460.03,-150 1460.03,-156 1460.03,-156 1460.03,-168 1460.03,-168 1460.03,-174 1454.03,-180 1448.03,-180"/>
<text text-anchor="middle" x="1426.03" y="-158.3" font-family="Times,serif" font-size="14.00">Subscript</text>
</g>
<!-- ast.Call object at 0x7f1116ab2b90&#45;&gt;ast.Subscript object at 0x7f1116ab2c50 -->
<g id="edge86" class="edge">
<title>ast.Call object at 0x7f1116ab2b90&#45;&gt;ast.Subscript object at 0x7f1116ab2c50</title>
<path fill="none" stroke="black" d="M1426.03,-215.7C1426.03,-207.98 1426.03,-198.71 1426.03,-190.11"/>
<polygon fill="black" stroke="black" points="1429.53,-190.1 1426.03,-180.1 1422.53,-190.1 1429.53,-190.1"/>
</g>
<!-- ast.Name object at 0x7f1116ab2bd0&#45;&gt;ast.Load object at 0x7f1132bc5710 -->
<g id="edge85" class="edge">
<title>ast.Name object at 0x7f1116ab2bd0&#45;&gt;ast.Load object at 0x7f1132bc5710</title>
<path fill="none" stroke="black" d="M1509.72,-143.95C1514.11,-123.82 1517.54,-90.72 1499.03,-72 1453.94,-26.42 996.06,-20.03 860.59,-19.14"/>
<polygon fill="black" stroke="black" points="860.33,-15.64 850.31,-19.08 860.29,-22.64 860.33,-15.64"/>
</g>
<!-- ast.Subscript object at 0x7f1116ab2c50&#45;&gt;ast.Load object at 0x7f1132bc5710 -->
<g id="edge91" class="edge">
<title>ast.Subscript object at 0x7f1116ab2c50&#45;&gt;ast.Load object at 0x7f1132bc5710</title>
<path fill="none" stroke="black" d="M1449.22,-143.95C1472.28,-125 1501.48,-94.16 1481.03,-72 1438.75,-26.18 992.91,-19.96 860.14,-19.13"/>
<polygon fill="black" stroke="black" points="860.07,-15.63 850.05,-19.07 860.03,-22.63 860.07,-15.63"/>
</g>
<!-- ast.Name object at 0x7f1116ab2c90 -->
<g id="node63" class="node">
<title>ast.Name object at 0x7f1116ab2c90</title>
<path fill="#66cdaa" stroke="black" d="M1388.03,-108C1388.03,-108 1358.03,-108 1358.03,-108 1352.03,-108 1346.03,-102 1346.03,-96 1346.03,-96 1346.03,-84 1346.03,-84 1346.03,-78 1352.03,-72 1358.03,-72 1358.03,-72 1388.03,-72 1388.03,-72 1394.03,-72 1400.03,-78 1400.03,-84 1400.03,-84 1400.03,-96 1400.03,-96 1400.03,-102 1394.03,-108 1388.03,-108"/>
<text text-anchor="middle" x="1373.03" y="-86.3" font-family="Times,serif" font-size="14.00">Name</text>
</g>
<!-- ast.Subscript object at 0x7f1116ab2c50&#45;&gt;ast.Name object at 0x7f1116ab2c90 -->
<g id="edge87" class="edge">
<title>ast.Subscript object at 0x7f1116ab2c50&#45;&gt;ast.Name object at 0x7f1116ab2c90</title>
<path fill="none" stroke="black" d="M1412.93,-143.7C1406.64,-135.39 1398.98,-125.28 1392.07,-116.14"/>
<polygon fill="black" stroke="black" points="1394.81,-113.96 1385.98,-108.1 1389.23,-118.19 1394.81,-113.96"/>
</g>
<!-- ast.Name object at 0x7f1116ab2cd0 -->
<g id="node64" class="node">
<title>ast.Name object at 0x7f1116ab2cd0</title>
<path fill="#66cdaa" stroke="black" d="M1460.03,-108C1460.03,-108 1430.03,-108 1430.03,-108 1424.03,-108 1418.03,-102 1418.03,-96 1418.03,-96 1418.03,-84 1418.03,-84 1418.03,-78 1424.03,-72 1430.03,-72 1430.03,-72 1460.03,-72 1460.03,-72 1466.03,-72 1472.03,-78 1472.03,-84 1472.03,-84 1472.03,-96 1472.03,-96 1472.03,-102 1466.03,-108 1460.03,-108"/>
<text text-anchor="middle" x="1445.03" y="-86.3" font-family="Times,serif" font-size="14.00">Name</text>
</g>
<!-- ast.Subscript object at 0x7f1116ab2c50&#45;&gt;ast.Name object at 0x7f1116ab2cd0 -->
<g id="edge89" class="edge">
<title>ast.Subscript object at 0x7f1116ab2c50&#45;&gt;ast.Name object at 0x7f1116ab2cd0</title>
<path fill="none" stroke="black" d="M1430.73,-143.7C1432.84,-135.9 1435.39,-126.51 1437.75,-117.83"/>
<polygon fill="black" stroke="black" points="1441.15,-118.67 1440.39,-108.1 1434.39,-116.84 1441.15,-118.67"/>
</g>
<!-- ast.Name object at 0x7f1116ab2c90&#45;&gt;ast.Load object at 0x7f1132bc5710 -->
<g id="edge88" class="edge">
<title>ast.Name object at 0x7f1116ab2c90&#45;&gt;ast.Load object at 0x7f1132bc5710</title>
<path fill="none" stroke="black" d="M1345.61,-76.36C1341.14,-74.67 1336.51,-73.14 1332.03,-72 1159.63,-28.27 945.61,-20.52 860.48,-19.22"/>
<polygon fill="black" stroke="black" points="860.32,-15.72 850.28,-19.09 860.23,-22.72 860.32,-15.72"/>
</g>
<!-- ast.Name object at 0x7f1116ab2cd0&#45;&gt;ast.Load object at 0x7f1132bc5710 -->
<g id="edge90" class="edge">
<title>ast.Name object at 0x7f1116ab2cd0&#45;&gt;ast.Load object at 0x7f1132bc5710</title>
<path fill="none" stroke="black" d="M1417.89,-74.98C1414.95,-73.82 1411.96,-72.8 1409.03,-72 1304.71,-43.61 972.27,-25.93 860.27,-20.66"/>
<polygon fill="black" stroke="black" points="860.29,-17.16 850.14,-20.19 859.96,-24.15 860.29,-17.16"/>
</g>
<!-- ast.Name object at 0x7f1116ab2e50 -->
<g id="node67" class="node">
<title>ast.Name object at 0x7f1116ab2e50</title>
<path fill="#66cdaa" stroke="black" d="M1024.03,-108C1024.03,-108 994.03,-108 994.03,-108 988.03,-108 982.03,-102 982.03,-96 982.03,-96 982.03,-84 982.03,-84 982.03,-78 988.03,-72 994.03,-72 994.03,-72 1024.03,-72 1024.03,-72 1030.03,-72 1036.03,-78 1036.03,-84 1036.03,-84 1036.03,-96 1036.03,-96 1036.03,-102 1030.03,-108 1024.03,-108"/>
<text text-anchor="middle" x="1009.03" y="-86.3" font-family="Times,serif" font-size="14.00">Name</text>
</g>
<!-- ast.Compare object at 0x7f1116ab2e10&#45;&gt;ast.Name object at 0x7f1116ab2e50 -->
<g id="edge95" class="edge">
<title>ast.Compare object at 0x7f1116ab2e10&#45;&gt;ast.Name object at 0x7f1116ab2e50</title>
<path fill="none" stroke="black" d="M1027.85,-143.7C1025.03,-135.81 1021.64,-126.3 1018.51,-117.55"/>
<polygon fill="black" stroke="black" points="1021.8,-116.34 1015.14,-108.1 1015.21,-118.7 1021.8,-116.34"/>
</g>
<!-- ast.Eq object at 0x7f1132bc6710 -->
<g id="node68" class="node">
<title>ast.Eq object at 0x7f1132bc6710</title>
<path fill="#66cdaa" stroke="black" d="M1096.03,-108C1096.03,-108 1066.03,-108 1066.03,-108 1060.03,-108 1054.03,-102 1054.03,-96 1054.03,-96 1054.03,-84 1054.03,-84 1054.03,-78 1060.03,-72 1066.03,-72 1066.03,-72 1096.03,-72 1096.03,-72 1102.03,-72 1108.03,-78 1108.03,-84 1108.03,-84 1108.03,-96 1108.03,-96 1108.03,-102 1102.03,-108 1096.03,-108"/>
<text text-anchor="middle" x="1081.03" y="-86.3" font-family="Times,serif" font-size="14.00">Eq</text>
</g>
<!-- ast.Compare object at 0x7f1116ab2e10&#45;&gt;ast.Eq object at 0x7f1132bc6710 -->
<g id="edge97" class="edge">
<title>ast.Compare object at 0x7f1116ab2e10&#45;&gt;ast.Eq object at 0x7f1132bc6710</title>
<path fill="none" stroke="black" d="M1045.65,-143.7C1051.17,-135.47 1057.88,-125.48 1063.96,-116.42"/>
<polygon fill="black" stroke="black" points="1066.88,-118.36 1069.55,-108.1 1061.07,-114.46 1066.88,-118.36"/>
</g>
<!-- ast.Name object at 0x7f1116ab2f90 -->
<g id="node69" class="node">
<title>ast.Name object at 0x7f1116ab2f90</title>
<path fill="#66cdaa" stroke="black" d="M952.03,-108C952.03,-108 922.03,-108 922.03,-108 916.03,-108 910.03,-102 910.03,-96 910.03,-96 910.03,-84 910.03,-84 910.03,-78 916.03,-72 922.03,-72 922.03,-72 952.03,-72 952.03,-72 958.03,-72 964.03,-78 964.03,-84 964.03,-84 964.03,-96 964.03,-96 964.03,-102 958.03,-108 952.03,-108"/>
<text text-anchor="middle" x="937.03" y="-86.3" font-family="Times,serif" font-size="14.00">Name</text>
</g>
<!-- ast.Compare object at 0x7f1116ab2e10&#45;&gt;ast.Name object at 0x7f1116ab2f90 -->
<g id="edge98" class="edge">
<title>ast.Compare object at 0x7f1116ab2e10&#45;&gt;ast.Name object at 0x7f1116ab2f90</title>
<path fill="none" stroke="black" d="M1010.05,-143.7C997.72,-134.8 982.51,-123.82 969.18,-114.2"/>
<polygon fill="black" stroke="black" points="970.89,-111.12 960.73,-108.1 966.79,-116.79 970.89,-111.12"/>
</g>
<!-- ast.Name object at 0x7f1116ab2e50&#45;&gt;ast.Load object at 0x7f1132bc5710 -->
<g id="edge96" class="edge">
<title>ast.Name object at 0x7f1116ab2e50&#45;&gt;ast.Load object at 0x7f1132bc5710</title>
<path fill="none" stroke="black" d="M981.64,-75.72C978.75,-74.42 975.84,-73.16 973.03,-72 935.05,-56.37 890.59,-41.02 859.98,-30.89"/>
<polygon fill="black" stroke="black" points="860.76,-27.46 850.17,-27.67 858.57,-34.11 860.76,-27.46"/>
</g>
<!-- ast.Name object at 0x7f1116ab2f90&#45;&gt;ast.Load object at 0x7f1132bc5710 -->
<g id="edge99" class="edge">
<title>ast.Name object at 0x7f1116ab2f90&#45;&gt;ast.Load object at 0x7f1132bc5710</title>
<path fill="none" stroke="black" d="M910.01,-72.41C894.79,-63.06 875.58,-51.27 859.09,-41.14"/>
<polygon fill="black" stroke="black" points="860.6,-37.96 850.25,-35.71 856.94,-43.93 860.6,-37.96"/>
</g>
<!-- ast.AugAssign object at 0x7f1116ab3090&#45;&gt;ast.Add object at 0x7f1132bc5c10 -->
<g id="edge103" class="edge">
<title>ast.AugAssign object at 0x7f1116ab3090&#45;&gt;ast.Add object at 0x7f1132bc5c10</title>
<path fill="none" stroke="black" d="M865.03,-359.97C865.03,-312.29 865.03,-177.18 865.03,-118.63"/>
<polygon fill="black" stroke="black" points="868.53,-118.31 865.03,-108.31 861.53,-118.31 868.53,-118.31"/>
</g>
<!-- ast.Name object at 0x7f1116ab30d0 -->
<g id="node71" class="node">
<title>ast.Name object at 0x7f1116ab30d0</title>
<path fill="#66cdaa" stroke="black" d="M825.03,-324C825.03,-324 795.03,-324 795.03,-324 789.03,-324 783.03,-318 783.03,-312 783.03,-312 783.03,-300 783.03,-300 783.03,-294 789.03,-288 795.03,-288 795.03,-288 825.03,-288 825.03,-288 831.03,-288 837.03,-294 837.03,-300 837.03,-300 837.03,-312 837.03,-312 837.03,-318 831.03,-324 825.03,-324"/>
<text text-anchor="middle" x="810.03" y="-302.3" font-family="Times,serif" font-size="14.00">Name</text>
</g>
<!-- ast.AugAssign object at 0x7f1116ab3090&#45;&gt;ast.Name object at 0x7f1116ab30d0 -->
<g id="edge101" class="edge">
<title>ast.AugAssign object at 0x7f1116ab3090&#45;&gt;ast.Name object at 0x7f1116ab30d0</title>
<path fill="none" stroke="black" d="M851.43,-359.7C844.91,-351.39 836.96,-341.28 829.78,-332.14"/>
<polygon fill="black" stroke="black" points="832.4,-329.81 823.47,-324.1 826.9,-334.13 832.4,-329.81"/>
</g>
<!-- ast.Constant object at 0x7f1116ab3190 -->
<g id="node72" class="node">
<title>ast.Constant object at 0x7f1116ab3190</title>
<path fill="#66cdaa" stroke="black" d="M946.53,-324C946.53,-324 905.53,-324 905.53,-324 899.53,-324 893.53,-318 893.53,-312 893.53,-312 893.53,-300 893.53,-300 893.53,-294 899.53,-288 905.53,-288 905.53,-288 946.53,-288 946.53,-288 952.53,-288 958.53,-294 958.53,-300 958.53,-300 958.53,-312 958.53,-312 958.53,-318 952.53,-324 946.53,-324"/>
<text text-anchor="middle" x="926.03" y="-302.3" font-family="Times,serif" font-size="14.00">Constant</text>
</g>
<!-- ast.AugAssign object at 0x7f1116ab3090&#45;&gt;ast.Constant object at 0x7f1116ab3190 -->
<g id="edge104" class="edge">
<title>ast.AugAssign object at 0x7f1116ab3090&#45;&gt;ast.Constant object at 0x7f1116ab3190</title>
<path fill="none" stroke="black" d="M880.11,-359.7C887.42,-351.3 896.34,-341.07 904.37,-331.86"/>
<polygon fill="black" stroke="black" points="907.19,-333.94 911.12,-324.1 901.92,-329.34 907.19,-333.94"/>
</g>
<!-- ast.Name object at 0x7f1116ab30d0&#45;&gt;ast.Store object at 0x7f1132bc5790 -->
<g id="edge102" class="edge">
<title>ast.Name object at 0x7f1116ab30d0&#45;&gt;ast.Store object at 0x7f1132bc5790</title>
<path fill="none" stroke="black" d="M782.98,-294.82C750.75,-282.69 696.74,-262.36 660.75,-248.82"/>
<polygon fill="black" stroke="black" points="661.7,-245.44 651.11,-245.19 659.23,-251.99 661.7,-245.44"/>
</g>
<!-- ast.Compare object at 0x7f1116ab3310 -->
<g id="node74" class="node">
<title>ast.Compare object at 0x7f1116ab3310</title>
<path fill="#66cdaa" stroke="black" d="M1498.53,-540C1498.53,-540 1455.53,-540 1455.53,-540 1449.53,-540 1443.53,-534 1443.53,-528 1443.53,-528 1443.53,-516 1443.53,-516 1443.53,-510 1449.53,-504 1455.53,-504 1455.53,-504 1498.53,-504 1498.53,-504 1504.53,-504 1510.53,-510 1510.53,-516 1510.53,-516 1510.53,-528 1510.53,-528 1510.53,-534 1504.53,-540 1498.53,-540"/>
<text text-anchor="middle" x="1477.03" y="-518.3" font-family="Times,serif" font-size="14.00">Compare</text>
</g>
<!-- ast.Return object at 0x7f1116ab32d0&#45;&gt;ast.Compare object at 0x7f1116ab3310 -->
<g id="edge106" class="edge">
<title>ast.Return object at 0x7f1116ab32d0&#45;&gt;ast.Compare object at 0x7f1116ab3310</title>
<path fill="none" stroke="black" d="M1471.01,-575.7C1471.89,-567.98 1472.95,-558.71 1473.93,-550.11"/>
<polygon fill="black" stroke="black" points="1477.42,-550.44 1475.08,-540.1 1470.46,-549.64 1477.42,-550.44"/>
</g>
<!-- ast.Name object at 0x7f1116ab3350 -->
<g id="node75" class="node">
<title>ast.Name object at 0x7f1116ab3350</title>
<path fill="#66cdaa" stroke="black" d="M1531.03,-468C1531.03,-468 1501.03,-468 1501.03,-468 1495.03,-468 1489.03,-462 1489.03,-456 1489.03,-456 1489.03,-444 1489.03,-444 1489.03,-438 1495.03,-432 1501.03,-432 1501.03,-432 1531.03,-432 1531.03,-432 1537.03,-432 1543.03,-438 1543.03,-444 1543.03,-444 1543.03,-456 1543.03,-456 1543.03,-462 1537.03,-468 1531.03,-468"/>
<text text-anchor="middle" x="1516.03" y="-446.3" font-family="Times,serif" font-size="14.00">Name</text>
</g>
<!-- ast.Compare object at 0x7f1116ab3310&#45;&gt;ast.Name object at 0x7f1116ab3350 -->
<g id="edge107" class="edge">
<title>ast.Compare object at 0x7f1116ab3310&#45;&gt;ast.Name object at 0x7f1116ab3350</title>
<path fill="none" stroke="black" d="M1486.67,-503.7C1491.16,-495.64 1496.59,-485.89 1501.55,-476.98"/>
<polygon fill="black" stroke="black" points="1504.69,-478.54 1506.5,-468.1 1498.58,-475.14 1504.69,-478.54"/>
</g>
<!-- ast.LtE object at 0x7f1132bc6890 -->
<g id="node76" class="node">
<title>ast.LtE object at 0x7f1132bc6890</title>
<path fill="#66cdaa" stroke="black" d="M1603.03,-468C1603.03,-468 1573.03,-468 1573.03,-468 1567.03,-468 1561.03,-462 1561.03,-456 1561.03,-456 1561.03,-444 1561.03,-444 1561.03,-438 1567.03,-432 1573.03,-432 1573.03,-432 1603.03,-432 1603.03,-432 1609.03,-432 1615.03,-438 1615.03,-444 1615.03,-444 1615.03,-456 1615.03,-456 1615.03,-462 1609.03,-468 1603.03,-468"/>
<text text-anchor="middle" x="1588.03" y="-446.3" font-family="Times,serif" font-size="14.00">LtE</text>
</g>
<!-- ast.Compare object at 0x7f1116ab3310&#45;&gt;ast.LtE object at 0x7f1132bc6890 -->
<g id="edge109" class="edge">
<title>ast.Compare object at 0x7f1116ab3310&#45;&gt;ast.LtE object at 0x7f1132bc6890</title>
<path fill="none" stroke="black" d="M1504.18,-503.88C1518.56,-494.81 1536.41,-483.55 1551.94,-473.76"/>
<polygon fill="black" stroke="black" points="1554.18,-476.48 1560.77,-468.19 1550.45,-470.56 1554.18,-476.48"/>
</g>
<!-- ast.Constant object at 0x7f1116ab3490 -->
<g id="node77" class="node">
<title>ast.Constant object at 0x7f1116ab3490</title>
<path fill="#66cdaa" stroke="black" d="M1458.53,-468C1458.53,-468 1417.53,-468 1417.53,-468 1411.53,-468 1405.53,-462 1405.53,-456 1405.53,-456 1405.53,-444 1405.53,-444 1405.53,-438 1411.53,-432 1417.53,-432 1417.53,-432 1458.53,-432 1458.53,-432 1464.53,-432 1470.53,-438 1470.53,-444 1470.53,-444 1470.53,-456 1470.53,-456 1470.53,-462 1464.53,-468 1458.53,-468"/>
<text text-anchor="middle" x="1438.03" y="-446.3" font-family="Times,serif" font-size="14.00">Constant</text>
</g>
<!-- ast.Compare object at 0x7f1116ab3310&#45;&gt;ast.Constant object at 0x7f1116ab3490 -->
<g id="edge110" class="edge">
<title>ast.Compare object at 0x7f1116ab3310&#45;&gt;ast.Constant object at 0x7f1116ab3490</title>
<path fill="none" stroke="black" d="M1467.39,-503.7C1462.9,-495.64 1457.47,-485.89 1452.51,-476.98"/>
<polygon fill="black" stroke="black" points="1455.48,-475.14 1447.56,-468.1 1449.37,-478.54 1455.48,-475.14"/>
</g>
<!-- ast.Name object at 0x7f1116ab3350&#45;&gt;ast.Load object at 0x7f1132bc5710 -->
<g id="edge108" class="edge">
<title>ast.Name object at 0x7f1116ab3350&#45;&gt;ast.Load object at 0x7f1132bc5710</title>
<path fill="none" stroke="black" d="M1543.32,-434.6C1606.61,-401 1758.03,-319.33 1758.03,-307 1758.03,-307 1758.03,-307 1758.03,-161 1758.03,-120.55 1769.73,-98.34 1739.03,-72 1705.15,-42.93 1028.1,-24.13 860.37,-19.91"/>
<polygon fill="black" stroke="black" points="860.38,-16.4 850.29,-19.65 860.2,-23.4 860.38,-16.4"/>
</g>
</g>
</svg>
