<?xml version="1.0" encoding="UTF-8" standalone="no"?>
<!DOCTYPE svg PUBLIC "-//W3C//DTD SVG 1.1//EN"
 "http://www.w3.org/Graphics/SVG/1.1/DTD/svg11.dtd">
<!-- Generated by graphviz version 2.50.0 (0)
 -->
<!-- Pages: 1 -->
<svg width="698pt" height="548pt"
 viewBox="0.00 0.00 697.50 548.00" xmlns="http://www.w3.org/2000/svg" xmlns:xlink="http://www.w3.org/1999/xlink">
<g id="graph0" class="graph" transform="scale(1 1) rotate(0) translate(4 544)">
<polygon fill="white" stroke="transparent" points="-4,4 -4,-544 693.5,-544 693.5,4 -4,4"/>
<!-- ast.Module object at 0x7a31669c1210 -->
<g id="node1" class="node">
<title>ast.Module object at 0x7a31669c1210</title>
<path fill="#66cdaa" stroke="black" d="M256,-540C256,-540 221,-540 221,-540 215,-540 209,-534 209,-528 209,-528 209,-516 209,-516 209,-510 215,-504 221,-504 221,-504 256,-504 256,-504 262,-504 268,-510 268,-516 268,-516 268,-528 268,-528 268,-534 262,-540 256,-540"/>
<text text-anchor="middle" x="238.5" y="-518.3" font-family="Times,serif" font-size="14.00">Module</text>
</g>
<!-- ast.FunctionDef object at 0x7a316694ef90 -->
<g id="node2" class="node">
<title>ast.FunctionDef object at 0x7a316694ef90</title>
<path fill="#66cdaa" stroke="black" d="M269,-468C269,-468 208,-468 208,-468 202,-468 196,-462 196,-456 196,-456 196,-444 196,-444 196,-438 202,-432 208,-432 208,-432 269,-432 269,-432 275,-432 281,-438 281,-444 281,-444 281,-456 281,-456 281,-462 275,-468 269,-468"/>
<text text-anchor="middle" x="238.5" y="-446.3" font-family="Times,serif" font-size="14.00">FunctionDef</text>
</g>
<!-- ast.Module object at 0x7a31669c1210&#45;&gt;ast.FunctionDef object at 0x7a316694ef90 -->
<g id="edge1" class="edge">
<title>ast.Module object at 0x7a31669c1210&#45;&gt;ast.FunctionDef object at 0x7a316694ef90</title>
<path fill="none" stroke="black" d="M238.5,-503.7C238.5,-495.98 238.5,-486.71 238.5,-478.11"/>
<polygon fill="black" stroke="black" points="242,-478.1 238.5,-468.1 235,-478.1 242,-478.1"/>
</g>
<!-- ast.arguments object at 0x7a316655a850 -->
<g id="node3" class="node">
<title>ast.arguments object at 0x7a316655a850</title>
<path fill="#66cdaa" stroke="black" d="M195.5,-396C195.5,-396 145.5,-396 145.5,-396 139.5,-396 133.5,-390 133.5,-384 133.5,-384 133.5,-372 133.5,-372 133.5,-366 139.5,-360 145.5,-360 145.5,-360 195.5,-360 195.5,-360 201.5,-360 207.5,-366 207.5,-372 207.5,-372 207.5,-384 207.5,-384 207.5,-390 201.5,-396 195.5,-396"/>
<text text-anchor="middle" x="170.5" y="-374.3" font-family="Times,serif" font-size="14.00">arguments</text>
</g>
<!-- ast.FunctionDef object at 0x7a316694ef90&#45;&gt;ast.arguments object at 0x7a316655a850 -->
<g id="edge2" class="edge">
<title>ast.FunctionDef object at 0x7a316694ef90&#45;&gt;ast.arguments object at 0x7a316655a850</title>
<path fill="none" stroke="black" d="M221.69,-431.7C213.37,-423.14 203.19,-412.66 194.11,-403.3"/>
<polygon fill="black" stroke="black" points="196.59,-400.84 187.12,-396.1 191.57,-405.72 196.59,-400.84"/>
</g>
<!-- ast.Assign object at 0x7a316655af50 -->
<g id="node5" class="node">
<title>ast.Assign object at 0x7a316655af50</title>
<path fill="#66cdaa" stroke="black" d="M253.5,-324C253.5,-324 223.5,-324 223.5,-324 217.5,-324 211.5,-318 211.5,-312 211.5,-312 211.5,-300 211.5,-300 211.5,-294 217.5,-288 223.5,-288 223.5,-288 253.5,-288 253.5,-288 259.5,-288 265.5,-294 265.5,-300 265.5,-300 265.5,-312 265.5,-312 265.5,-318 259.5,-324 253.5,-324"/>
<text text-anchor="middle" x="238.5" y="-302.3" font-family="Times,serif" font-size="14.00">Assign</text>
</g>
<!-- ast.FunctionDef object at 0x7a316694ef90&#45;&gt;ast.Assign object at 0x7a316655af50 -->
<g id="edge4" class="edge">
<title>ast.FunctionDef object at 0x7a316694ef90&#45;&gt;ast.Assign object at 0x7a316655af50</title>
<path fill="none" stroke="black" d="M238.5,-431.87C238.5,-407.67 238.5,-363.21 238.5,-334.39"/>
<polygon fill="black" stroke="black" points="242,-334.19 238.5,-324.19 235,-334.19 242,-334.19"/>
</g>
<!-- ast.Return object at 0x7a316655b050 -->
<g id="node15" class="node">
<title>ast.Return object at 0x7a316655b050</title>
<path fill="#66cdaa" stroke="black" d="M316.5,-396C316.5,-396 286.5,-396 286.5,-396 280.5,-396 274.5,-390 274.5,-384 274.5,-384 274.5,-372 274.5,-372 274.5,-366 280.5,-360 286.5,-360 286.5,-360 316.5,-360 316.5,-360 322.5,-360 328.5,-366 328.5,-372 328.5,-372 328.5,-384 328.5,-384 328.5,-390 322.5,-396 316.5,-396"/>
<text text-anchor="middle" x="301.5" y="-374.3" font-family="Times,serif" font-size="14.00">Return</text>
</g>
<!-- ast.FunctionDef object at 0x7a316694ef90&#45;&gt;ast.Return object at 0x7a316655b050 -->
<g id="edge16" class="edge">
<title>ast.FunctionDef object at 0x7a316694ef90&#45;&gt;ast.Return object at 0x7a316655b050</title>
<path fill="none" stroke="black" d="M254.07,-431.7C261.7,-423.22 271.02,-412.86 279.38,-403.58"/>
<polygon fill="black" stroke="black" points="282.02,-405.88 286.11,-396.1 276.81,-401.2 282.02,-405.88"/>
</g>
<!-- ast.arg object at 0x7a316655bad0 -->
<g id="node4" class="node">
<title>ast.arg object at 0x7a316655bad0</title>
<path fill="#66cdaa" stroke="black" d="M181.5,-324C181.5,-324 151.5,-324 151.5,-324 145.5,-324 139.5,-318 139.5,-312 139.5,-312 139.5,-300 139.5,-300 139.5,-294 145.5,-288 151.5,-288 151.5,-288 181.5,-288 181.5,-288 187.5,-288 193.5,-294 193.5,-300 193.5,-300 193.5,-312 193.5,-312 193.5,-318 187.5,-324 181.5,-324"/>
<text text-anchor="middle" x="166.5" y="-302.3" font-family="Times,serif" font-size="14.00">arg</text>
</g>
<!-- ast.arguments object at 0x7a316655a850&#45;&gt;ast.arg object at 0x7a316655bad0 -->
<g id="edge3" class="edge">
<title>ast.arguments object at 0x7a316655a850&#45;&gt;ast.arg object at 0x7a316655bad0</title>
<path fill="none" stroke="black" d="M169.51,-359.7C169.07,-351.98 168.54,-342.71 168.05,-334.11"/>
<polygon fill="black" stroke="black" points="171.54,-333.89 167.48,-324.1 164.55,-334.29 171.54,-333.89"/>
</g>
<!-- ast.Name object at 0x7a316655afd0 -->
<g id="node6" class="node">
<title>ast.Name object at 0x7a316655afd0</title>
<path fill="#66cdaa" stroke="black" d="M253.5,-252C253.5,-252 223.5,-252 223.5,-252 217.5,-252 211.5,-246 211.5,-240 211.5,-240 211.5,-228 211.5,-228 211.5,-222 217.5,-216 223.5,-216 223.5,-216 253.5,-216 253.5,-216 259.5,-216 265.5,-222 265.5,-228 265.5,-228 265.5,-240 265.5,-240 265.5,-246 259.5,-252 253.5,-252"/>
<text text-anchor="middle" x="238.5" y="-230.3" font-family="Times,serif" font-size="14.00">Name</text>
</g>
<!-- ast.Assign object at 0x7a316655af50&#45;&gt;ast.Name object at 0x7a316655afd0 -->
<g id="edge5" class="edge">
<title>ast.Assign object at 0x7a316655af50&#45;&gt;ast.Name object at 0x7a316655afd0</title>
<path fill="none" stroke="black" d="M238.5,-287.7C238.5,-279.98 238.5,-270.71 238.5,-262.11"/>
<polygon fill="black" stroke="black" points="242,-262.1 238.5,-252.1 235,-262.1 242,-262.1"/>
</g>
<!-- ast.Call object at 0x7a316655a950 -->
<g id="node8" class="node">
<title>ast.Call object at 0x7a316655a950</title>
<path fill="#66cdaa" stroke="black" d="M181.5,-252C181.5,-252 151.5,-252 151.5,-252 145.5,-252 139.5,-246 139.5,-240 139.5,-240 139.5,-228 139.5,-228 139.5,-222 145.5,-216 151.5,-216 151.5,-216 181.5,-216 181.5,-216 187.5,-216 193.5,-222 193.5,-228 193.5,-228 193.5,-240 193.5,-240 193.5,-246 187.5,-252 181.5,-252"/>
<text text-anchor="middle" x="166.5" y="-230.3" font-family="Times,serif" font-size="14.00">Call</text>
</g>
<!-- ast.Assign object at 0x7a316655af50&#45;&gt;ast.Call object at 0x7a316655a950 -->
<g id="edge7" class="edge">
<title>ast.Assign object at 0x7a316655af50&#45;&gt;ast.Call object at 0x7a316655a950</title>
<path fill="none" stroke="black" d="M220.7,-287.7C211.9,-279.14 201.12,-268.66 191.5,-259.3"/>
<polygon fill="black" stroke="black" points="193.7,-256.57 184.09,-252.1 188.82,-261.58 193.7,-256.57"/>
</g>
<!-- ast.Store object at 0x7a3177bc50d0 -->
<g id="node7" class="node">
<title>ast.Store object at 0x7a3177bc50d0</title>
<path fill="#66cdaa" stroke="black" d="M253.5,-180C253.5,-180 223.5,-180 223.5,-180 217.5,-180 211.5,-174 211.5,-168 211.5,-168 211.5,-156 211.5,-156 211.5,-150 217.5,-144 223.5,-144 223.5,-144 253.5,-144 253.5,-144 259.5,-144 265.5,-150 265.5,-156 265.5,-156 265.5,-168 265.5,-168 265.5,-174 259.5,-180 253.5,-180"/>
<text text-anchor="middle" x="238.5" y="-158.3" font-family="Times,serif" font-size="14.00">Store</text>
</g>
<!-- ast.Name object at 0x7a316655afd0&#45;&gt;ast.Store object at 0x7a3177bc50d0 -->
<g id="edge6" class="edge">
<title>ast.Name object at 0x7a316655afd0&#45;&gt;ast.Store object at 0x7a3177bc50d0</title>
<path fill="none" stroke="black" d="M238.5,-215.7C238.5,-207.98 238.5,-198.71 238.5,-190.11"/>
<polygon fill="black" stroke="black" points="242,-190.1 238.5,-180.1 235,-190.1 242,-190.1"/>
</g>
<!-- ast.Name object at 0x7a3166558a90 -->
<g id="node9" class="node">
<title>ast.Name object at 0x7a3166558a90</title>
<path fill="#66cdaa" stroke="black" d="M181.5,-180C181.5,-180 151.5,-180 151.5,-180 145.5,-180 139.5,-174 139.5,-168 139.5,-168 139.5,-156 139.5,-156 139.5,-150 145.5,-144 151.5,-144 151.5,-144 181.5,-144 181.5,-144 187.5,-144 193.5,-150 193.5,-156 193.5,-156 193.5,-168 193.5,-168 193.5,-174 187.5,-180 181.5,-180"/>
<text text-anchor="middle" x="166.5" y="-158.3" font-family="Times,serif" font-size="14.00">Name</text>
</g>
<!-- ast.Call object at 0x7a316655a950&#45;&gt;ast.Name object at 0x7a3166558a90 -->
<g id="edge8" class="edge">
<title>ast.Call object at 0x7a316655a950&#45;&gt;ast.Name object at 0x7a3166558a90</title>
<path fill="none" stroke="black" d="M166.5,-215.7C166.5,-207.98 166.5,-198.71 166.5,-190.11"/>
<polygon fill="black" stroke="black" points="170,-190.1 166.5,-180.1 163,-190.1 170,-190.1"/>
</g>
<!-- ast.Subscript object at 0x7a3166559750 -->
<g id="node11" class="node">
<title>ast.Subscript object at 0x7a3166559750</title>
<path fill="#66cdaa" stroke="black" d="M109.5,-180C109.5,-180 65.5,-180 65.5,-180 59.5,-180 53.5,-174 53.5,-168 53.5,-168 53.5,-156 53.5,-156 53.5,-150 59.5,-144 65.5,-144 65.5,-144 109.5,-144 109.5,-144 115.5,-144 121.5,-150 121.5,-156 121.5,-156 121.5,-168 121.5,-168 121.5,-174 115.5,-180 109.5,-180"/>
<text text-anchor="middle" x="87.5" y="-158.3" font-family="Times,serif" font-size="14.00">Subscript</text>
</g>
<!-- ast.Call object at 0x7a316655a950&#45;&gt;ast.Subscript object at 0x7a3166559750 -->
<g id="edge10" class="edge">
<title>ast.Call object at 0x7a316655a950&#45;&gt;ast.Subscript object at 0x7a3166559750</title>
<path fill="none" stroke="black" d="M146.97,-215.7C137.12,-206.97 125.01,-196.24 114.3,-186.75"/>
<polygon fill="black" stroke="black" points="116.61,-184.12 106.8,-180.1 111.97,-189.36 116.61,-184.12"/>
</g>
<!-- ast.Load object at 0x7a3177bc5050 -->
<g id="node10" class="node">
<title>ast.Load object at 0x7a3177bc5050</title>
<path fill="#66cdaa" stroke="black" d="M339.5,-36C339.5,-36 309.5,-36 309.5,-36 303.5,-36 297.5,-30 297.5,-24 297.5,-24 297.5,-12 297.5,-12 297.5,-6 303.5,0 309.5,0 309.5,0 339.5,0 339.5,0 345.5,0 351.5,-6 351.5,-12 351.5,-12 351.5,-24 351.5,-24 351.5,-30 345.5,-36 339.5,-36"/>
<text text-anchor="middle" x="324.5" y="-14.3" font-family="Times,serif" font-size="14.00">Load</text>
</g>
<!-- ast.Name object at 0x7a3166558a90&#45;&gt;ast.Load object at 0x7a3177bc5050 -->
<g id="edge9" class="edge">
<title>ast.Name object at 0x7a3166558a90&#45;&gt;ast.Load object at 0x7a3177bc5050</title>
<path fill="none" stroke="black" d="M172.49,-143.93C180.1,-124.4 194.87,-92.46 216.5,-72 236.72,-52.87 265.16,-39.3 287.78,-30.67"/>
<polygon fill="black" stroke="black" points="289.2,-33.88 297.39,-27.17 286.8,-27.31 289.2,-33.88"/>
</g>
<!-- ast.Subscript object at 0x7a3166559750&#45;&gt;ast.Load object at 0x7a3177bc5050 -->
<g id="edge15" class="edge">
<title>ast.Subscript object at 0x7a3166559750&#45;&gt;ast.Load object at 0x7a3177bc5050</title>
<path fill="none" stroke="black" d="M86.14,-143.78C85.57,-123.8 87.89,-91.14 106.5,-72 131.31,-46.49 231.76,-30.39 287.24,-23.27"/>
<polygon fill="black" stroke="black" points="287.88,-26.72 297.37,-22 287.02,-19.77 287.88,-26.72"/>
</g>
<!-- ast.Name object at 0x7a31665597d0 -->
<g id="node12" class="node">
<title>ast.Name object at 0x7a31665597d0</title>
<path fill="#66cdaa" stroke="black" d="M157.5,-108C157.5,-108 127.5,-108 127.5,-108 121.5,-108 115.5,-102 115.5,-96 115.5,-96 115.5,-84 115.5,-84 115.5,-78 121.5,-72 127.5,-72 127.5,-72 157.5,-72 157.5,-72 163.5,-72 169.5,-78 169.5,-84 169.5,-84 169.5,-96 169.5,-96 169.5,-102 163.5,-108 157.5,-108"/>
<text text-anchor="middle" x="142.5" y="-86.3" font-family="Times,serif" font-size="14.00">Name</text>
</g>
<!-- ast.Subscript object at 0x7a3166559750&#45;&gt;ast.Name object at 0x7a31665597d0 -->
<g id="edge11" class="edge">
<title>ast.Subscript object at 0x7a3166559750&#45;&gt;ast.Name object at 0x7a31665597d0</title>
<path fill="none" stroke="black" d="M101.1,-143.7C107.62,-135.39 115.57,-125.28 122.75,-116.14"/>
<polygon fill="black" stroke="black" points="125.63,-118.13 129.06,-108.1 120.13,-113.81 125.63,-118.13"/>
</g>
<!-- ast.Slice object at 0x7a3166559810 -->
<g id="node13" class="node">
<title>ast.Slice object at 0x7a3166559810</title>
<path fill="#66cdaa" stroke="black" d="M47.5,-108C47.5,-108 17.5,-108 17.5,-108 11.5,-108 5.5,-102 5.5,-96 5.5,-96 5.5,-84 5.5,-84 5.5,-78 11.5,-72 17.5,-72 17.5,-72 47.5,-72 47.5,-72 53.5,-72 59.5,-78 59.5,-84 59.5,-84 59.5,-96 59.5,-96 59.5,-102 53.5,-108 47.5,-108"/>
<text text-anchor="middle" x="32.5" y="-86.3" font-family="Times,serif" font-size="14.00">Slice</text>
</g>
<!-- ast.Subscript object at 0x7a3166559750&#45;&gt;ast.Slice object at 0x7a3166559810 -->
<g id="edge13" class="edge">
<title>ast.Subscript object at 0x7a3166559750&#45;&gt;ast.Slice object at 0x7a3166559810</title>
<path fill="none" stroke="black" d="M73.9,-143.7C67.38,-135.39 59.43,-125.28 52.25,-116.14"/>
<polygon fill="black" stroke="black" points="54.87,-113.81 45.94,-108.1 49.37,-118.13 54.87,-113.81"/>
</g>
<!-- ast.Name object at 0x7a31665597d0&#45;&gt;ast.Load object at 0x7a3177bc5050 -->
<g id="edge12" class="edge">
<title>ast.Name object at 0x7a31665597d0&#45;&gt;ast.Load object at 0x7a3177bc5050</title>
<path fill="none" stroke="black" d="M169.8,-77.53C174.36,-75.66 179.06,-73.76 183.5,-72 218.75,-58.07 259.27,-42.93 287.8,-32.41"/>
<polygon fill="black" stroke="black" points="289.19,-35.63 297.37,-28.89 286.77,-29.06 289.19,-35.63"/>
</g>
<!-- ast.Constant object at 0x7a316655ac90 -->
<g id="node14" class="node">
<title>ast.Constant object at 0x7a316655ac90</title>
<path fill="#66cdaa" stroke="black" d="M53,-36C53,-36 12,-36 12,-36 6,-36 0,-30 0,-24 0,-24 0,-12 0,-12 0,-6 6,0 12,0 12,0 53,0 53,0 59,0 65,-6 65,-12 65,-12 65,-24 65,-24 65,-30 59,-36 53,-36"/>
<text text-anchor="middle" x="32.5" y="-14.3" font-family="Times,serif" font-size="14.00">Constant</text>
</g>
<!-- ast.Slice object at 0x7a3166559810&#45;&gt;ast.Constant object at 0x7a316655ac90 -->
<g id="edge14" class="edge">
<title>ast.Slice object at 0x7a3166559810&#45;&gt;ast.Constant object at 0x7a316655ac90</title>
<path fill="none" stroke="black" d="M32.5,-71.7C32.5,-63.98 32.5,-54.71 32.5,-46.11"/>
<polygon fill="black" stroke="black" points="36,-46.1 32.5,-36.1 29,-46.1 36,-46.1"/>
</g>
<!-- ast.IfExp object at 0x7a316655b090 -->
<g id="node16" class="node">
<title>ast.IfExp object at 0x7a316655b090</title>
<path fill="#66cdaa" stroke="black" d="M410.5,-324C410.5,-324 380.5,-324 380.5,-324 374.5,-324 368.5,-318 368.5,-312 368.5,-312 368.5,-300 368.5,-300 368.5,-294 374.5,-288 380.5,-288 380.5,-288 410.5,-288 410.5,-288 416.5,-288 422.5,-294 422.5,-300 422.5,-300 422.5,-312 422.5,-312 422.5,-318 416.5,-324 410.5,-324"/>
<text text-anchor="middle" x="395.5" y="-302.3" font-family="Times,serif" font-size="14.00">IfExp</text>
</g>
<!-- ast.Return object at 0x7a316655b050&#45;&gt;ast.IfExp object at 0x7a316655b090 -->
<g id="edge17" class="edge">
<title>ast.Return object at 0x7a316655b050&#45;&gt;ast.IfExp object at 0x7a316655b090</title>
<path fill="none" stroke="black" d="M324.74,-359.7C336.69,-350.8 351.42,-339.82 364.35,-330.2"/>
<polygon fill="black" stroke="black" points="366.6,-332.88 372.53,-324.1 362.42,-327.27 366.6,-332.88"/>
</g>
<!-- ast.Compare object at 0x7a3166558750 -->
<g id="node17" class="node">
<title>ast.Compare object at 0x7a3166558750</title>
<path fill="#66cdaa" stroke="black" d="M449,-252C449,-252 406,-252 406,-252 400,-252 394,-246 394,-240 394,-240 394,-228 394,-228 394,-222 400,-216 406,-216 406,-216 449,-216 449,-216 455,-216 461,-222 461,-228 461,-228 461,-240 461,-240 461,-246 455,-252 449,-252"/>
<text text-anchor="middle" x="427.5" y="-230.3" font-family="Times,serif" font-size="14.00">Compare</text>
</g>
<!-- ast.IfExp object at 0x7a316655b090&#45;&gt;ast.Compare object at 0x7a3166558750 -->
<g id="edge18" class="edge">
<title>ast.IfExp object at 0x7a316655b090&#45;&gt;ast.Compare object at 0x7a3166558750</title>
<path fill="none" stroke="black" d="M403.41,-287.7C407.05,-279.73 411.45,-270.1 415.49,-261.26"/>
<polygon fill="black" stroke="black" points="418.71,-262.65 419.68,-252.1 412.34,-259.74 418.71,-262.65"/>
</g>
<!-- ast.Subscript object at 0x7a316655bbd0 -->
<g id="node23" class="node">
<title>ast.Subscript object at 0x7a316655bbd0</title>
<path fill="#66cdaa" stroke="black" d="M639.5,-180C639.5,-180 595.5,-180 595.5,-180 589.5,-180 583.5,-174 583.5,-168 583.5,-168 583.5,-156 583.5,-156 583.5,-150 589.5,-144 595.5,-144 595.5,-144 639.5,-144 639.5,-144 645.5,-144 651.5,-150 651.5,-156 651.5,-156 651.5,-168 651.5,-168 651.5,-174 645.5,-180 639.5,-180"/>
<text text-anchor="middle" x="617.5" y="-158.3" font-family="Times,serif" font-size="14.00">Subscript</text>
</g>
<!-- ast.IfExp object at 0x7a316655b090&#45;&gt;ast.Subscript object at 0x7a316655bbd0 -->
<g id="edge26" class="edge">
<title>ast.IfExp object at 0x7a316655b090&#45;&gt;ast.Subscript object at 0x7a316655bbd0</title>
<path fill="none" stroke="black" d="M422.28,-287.87C462.28,-262.28 537.69,-214.05 582.16,-185.6"/>
<polygon fill="black" stroke="black" points="584.09,-188.53 590.63,-180.19 580.32,-182.63 584.09,-188.53"/>
</g>
<!-- ast.Call object at 0x7a316655be50 -->
<g id="node26" class="node">
<title>ast.Call object at 0x7a316655be50</title>
<path fill="#66cdaa" stroke="black" d="M325.5,-180C325.5,-180 295.5,-180 295.5,-180 289.5,-180 283.5,-174 283.5,-168 283.5,-168 283.5,-156 283.5,-156 283.5,-150 289.5,-144 295.5,-144 295.5,-144 325.5,-144 325.5,-144 331.5,-144 337.5,-150 337.5,-156 337.5,-156 337.5,-168 337.5,-168 337.5,-174 331.5,-180 325.5,-180"/>
<text text-anchor="middle" x="310.5" y="-158.3" font-family="Times,serif" font-size="14.00">Call</text>
</g>
<!-- ast.IfExp object at 0x7a316655b090&#45;&gt;ast.Call object at 0x7a316655be50 -->
<g id="edge31" class="edge">
<title>ast.IfExp object at 0x7a316655b090&#45;&gt;ast.Call object at 0x7a316655be50</title>
<path fill="none" stroke="black" d="M385.25,-287.87C370.51,-263.24 343.21,-217.64 325.99,-188.88"/>
<polygon fill="black" stroke="black" points="328.93,-186.97 320.79,-180.19 322.92,-190.57 328.93,-186.97"/>
</g>
<!-- ast.Call object at 0x7a3166558890 -->
<g id="node18" class="node">
<title>ast.Call object at 0x7a3166558890</title>
<path fill="#66cdaa" stroke="black" d="M481.5,-180C481.5,-180 451.5,-180 451.5,-180 445.5,-180 439.5,-174 439.5,-168 439.5,-168 439.5,-156 439.5,-156 439.5,-150 445.5,-144 451.5,-144 451.5,-144 481.5,-144 481.5,-144 487.5,-144 493.5,-150 493.5,-156 493.5,-156 493.5,-168 493.5,-168 493.5,-174 487.5,-180 481.5,-180"/>
<text text-anchor="middle" x="466.5" y="-158.3" font-family="Times,serif" font-size="14.00">Call</text>
</g>
<!-- ast.Compare object at 0x7a3166558750&#45;&gt;ast.Call object at 0x7a3166558890 -->
<g id="edge19" class="edge">
<title>ast.Compare object at 0x7a3166558750&#45;&gt;ast.Call object at 0x7a3166558890</title>
<path fill="none" stroke="black" d="M437.14,-215.7C441.63,-207.64 447.06,-197.89 452.02,-188.98"/>
<polygon fill="black" stroke="black" points="455.16,-190.54 456.97,-180.1 449.05,-187.14 455.16,-190.54"/>
</g>
<!-- ast.GtE object at 0x7a3177bc62d0 -->
<g id="node21" class="node">
<title>ast.GtE object at 0x7a3177bc62d0</title>
<path fill="#66cdaa" stroke="black" d="M553.5,-180C553.5,-180 523.5,-180 523.5,-180 517.5,-180 511.5,-174 511.5,-168 511.5,-168 511.5,-156 511.5,-156 511.5,-150 517.5,-144 523.5,-144 523.5,-144 553.5,-144 553.5,-144 559.5,-144 565.5,-150 565.5,-156 565.5,-156 565.5,-168 565.5,-168 565.5,-174 559.5,-180 553.5,-180"/>
<text text-anchor="middle" x="538.5" y="-158.3" font-family="Times,serif" font-size="14.00">GtE</text>
</g>
<!-- ast.Compare object at 0x7a3166558750&#45;&gt;ast.GtE object at 0x7a3177bc62d0 -->
<g id="edge24" class="edge">
<title>ast.Compare object at 0x7a3166558750&#45;&gt;ast.GtE object at 0x7a3177bc62d0</title>
<path fill="none" stroke="black" d="M454.65,-215.88C469.03,-206.81 486.88,-195.55 502.41,-185.76"/>
<polygon fill="black" stroke="black" points="504.65,-188.48 511.24,-180.19 500.92,-182.56 504.65,-188.48"/>
</g>
<!-- ast.Constant object at 0x7a316655bf90 -->
<g id="node22" class="node">
<title>ast.Constant object at 0x7a316655bf90</title>
<path fill="#66cdaa" stroke="black" d="M409,-180C409,-180 368,-180 368,-180 362,-180 356,-174 356,-168 356,-168 356,-156 356,-156 356,-150 362,-144 368,-144 368,-144 409,-144 409,-144 415,-144 421,-150 421,-156 421,-156 421,-168 421,-168 421,-174 415,-180 409,-180"/>
<text text-anchor="middle" x="388.5" y="-158.3" font-family="Times,serif" font-size="14.00">Constant</text>
</g>
<!-- ast.Compare object at 0x7a3166558750&#45;&gt;ast.Constant object at 0x7a316655bf90 -->
<g id="edge25" class="edge">
<title>ast.Compare object at 0x7a3166558750&#45;&gt;ast.Constant object at 0x7a316655bf90</title>
<path fill="none" stroke="black" d="M417.86,-215.7C413.37,-207.64 407.94,-197.89 402.98,-188.98"/>
<polygon fill="black" stroke="black" points="405.95,-187.14 398.03,-180.1 399.84,-190.54 405.95,-187.14"/>
</g>
<!-- ast.Name object at 0x7a31665589d0 -->
<g id="node19" class="node">
<title>ast.Name object at 0x7a31665589d0</title>
<path fill="#66cdaa" stroke="black" d="M483.5,-108C483.5,-108 453.5,-108 453.5,-108 447.5,-108 441.5,-102 441.5,-96 441.5,-96 441.5,-84 441.5,-84 441.5,-78 447.5,-72 453.5,-72 453.5,-72 483.5,-72 483.5,-72 489.5,-72 495.5,-78 495.5,-84 495.5,-84 495.5,-96 495.5,-96 495.5,-102 489.5,-108 483.5,-108"/>
<text text-anchor="middle" x="468.5" y="-86.3" font-family="Times,serif" font-size="14.00">Name</text>
</g>
<!-- ast.Call object at 0x7a3166558890&#45;&gt;ast.Name object at 0x7a31665589d0 -->
<g id="edge20" class="edge">
<title>ast.Call object at 0x7a3166558890&#45;&gt;ast.Name object at 0x7a31665589d0</title>
<path fill="none" stroke="black" d="M466.99,-143.7C467.21,-135.98 467.48,-126.71 467.73,-118.11"/>
<polygon fill="black" stroke="black" points="471.22,-118.2 468.01,-108.1 464.23,-118 471.22,-118.2"/>
</g>
<!-- ast.Name object at 0x7a316655bd10 -->
<g id="node20" class="node">
<title>ast.Name object at 0x7a316655bd10</title>
<path fill="#66cdaa" stroke="black" d="M411.5,-108C411.5,-108 381.5,-108 381.5,-108 375.5,-108 369.5,-102 369.5,-96 369.5,-96 369.5,-84 369.5,-84 369.5,-78 375.5,-72 381.5,-72 381.5,-72 411.5,-72 411.5,-72 417.5,-72 423.5,-78 423.5,-84 423.5,-84 423.5,-96 423.5,-96 423.5,-102 417.5,-108 411.5,-108"/>
<text text-anchor="middle" x="396.5" y="-86.3" font-family="Times,serif" font-size="14.00">Name</text>
</g>
<!-- ast.Call object at 0x7a3166558890&#45;&gt;ast.Name object at 0x7a316655bd10 -->
<g id="edge22" class="edge">
<title>ast.Call object at 0x7a3166558890&#45;&gt;ast.Name object at 0x7a316655bd10</title>
<path fill="none" stroke="black" d="M449.2,-143.7C440.64,-135.14 430.16,-124.66 420.8,-115.3"/>
<polygon fill="black" stroke="black" points="423.15,-112.7 413.6,-108.1 418.2,-117.65 423.15,-112.7"/>
</g>
<!-- ast.Name object at 0x7a31665589d0&#45;&gt;ast.Load object at 0x7a3177bc5050 -->
<g id="edge21" class="edge">
<title>ast.Name object at 0x7a31665589d0&#45;&gt;ast.Load object at 0x7a3177bc5050</title>
<path fill="none" stroke="black" d="M441.41,-75.83C418.73,-64.81 386.14,-48.97 361.13,-36.81"/>
<polygon fill="black" stroke="black" points="362.48,-33.57 351.95,-32.35 359.42,-39.87 362.48,-33.57"/>
</g>
<!-- ast.Name object at 0x7a316655bd10&#45;&gt;ast.Load object at 0x7a3177bc5050 -->
<g id="edge23" class="edge">
<title>ast.Name object at 0x7a316655bd10&#45;&gt;ast.Load object at 0x7a3177bc5050</title>
<path fill="none" stroke="black" d="M378.7,-71.7C369.9,-63.14 359.12,-52.66 349.5,-43.3"/>
<polygon fill="black" stroke="black" points="351.7,-40.57 342.09,-36.1 346.82,-45.58 351.7,-40.57"/>
</g>
<!-- ast.Subscript object at 0x7a316655bbd0&#45;&gt;ast.Load object at 0x7a3177bc5050 -->
<g id="edge30" class="edge">
<title>ast.Subscript object at 0x7a316655bbd0&#45;&gt;ast.Load object at 0x7a3177bc5050</title>
<path fill="none" stroke="black" d="M616.87,-143.83C615.16,-123.58 609.14,-90.36 588.5,-72 555.41,-42.57 426.71,-27.67 362.04,-21.92"/>
<polygon fill="black" stroke="black" points="362.12,-18.41 351.86,-21.04 361.52,-25.38 362.12,-18.41"/>
</g>
<!-- ast.Name object at 0x7a316655bd50 -->
<g id="node24" class="node">
<title>ast.Name object at 0x7a316655bd50</title>
<path fill="#66cdaa" stroke="black" d="M677.5,-108C677.5,-108 647.5,-108 647.5,-108 641.5,-108 635.5,-102 635.5,-96 635.5,-96 635.5,-84 635.5,-84 635.5,-78 641.5,-72 647.5,-72 647.5,-72 677.5,-72 677.5,-72 683.5,-72 689.5,-78 689.5,-84 689.5,-84 689.5,-96 689.5,-96 689.5,-102 683.5,-108 677.5,-108"/>
<text text-anchor="middle" x="662.5" y="-86.3" font-family="Times,serif" font-size="14.00">Name</text>
</g>
<!-- ast.Subscript object at 0x7a316655bbd0&#45;&gt;ast.Name object at 0x7a316655bd50 -->
<g id="edge27" class="edge">
<title>ast.Subscript object at 0x7a316655bbd0&#45;&gt;ast.Name object at 0x7a316655bd50</title>
<path fill="none" stroke="black" d="M628.62,-143.7C633.86,-135.56 640.2,-125.69 645.98,-116.7"/>
<polygon fill="black" stroke="black" points="649.04,-118.41 651.5,-108.1 643.15,-114.62 649.04,-118.41"/>
</g>
<!-- ast.Constant object at 0x7a316655bdd0 -->
<g id="node25" class="node">
<title>ast.Constant object at 0x7a316655bdd0</title>
<path fill="#66cdaa" stroke="black" d="M567,-108C567,-108 526,-108 526,-108 520,-108 514,-102 514,-96 514,-96 514,-84 514,-84 514,-78 520,-72 526,-72 526,-72 567,-72 567,-72 573,-72 579,-78 579,-84 579,-84 579,-96 579,-96 579,-102 573,-108 567,-108"/>
<text text-anchor="middle" x="546.5" y="-86.3" font-family="Times,serif" font-size="14.00">Constant</text>
</g>
<!-- ast.Subscript object at 0x7a316655bbd0&#45;&gt;ast.Constant object at 0x7a316655bdd0 -->
<g id="edge29" class="edge">
<title>ast.Subscript object at 0x7a316655bbd0&#45;&gt;ast.Constant object at 0x7a316655bdd0</title>
<path fill="none" stroke="black" d="M599.95,-143.7C591.27,-135.14 580.64,-124.66 571.15,-115.3"/>
<polygon fill="black" stroke="black" points="573.43,-112.63 563.85,-108.1 568.51,-117.62 573.43,-112.63"/>
</g>
<!-- ast.Name object at 0x7a316655bd50&#45;&gt;ast.Load object at 0x7a3177bc5050 -->
<g id="edge28" class="edge">
<title>ast.Name object at 0x7a316655bd50&#45;&gt;ast.Load object at 0x7a3177bc5050</title>
<path fill="none" stroke="black" d="M635.45,-76.82C630.85,-75.03 626.09,-73.34 621.5,-72 529.93,-45.19 418.3,-29.7 361.52,-22.99"/>
<polygon fill="black" stroke="black" points="361.91,-19.51 351.57,-21.84 361.1,-26.47 361.91,-19.51"/>
</g>
<!-- ast.Name object at 0x7a316655bed0 -->
<g id="node27" class="node">
<title>ast.Name object at 0x7a316655bed0</title>
<path fill="#66cdaa" stroke="black" d="M267.5,-108C267.5,-108 237.5,-108 237.5,-108 231.5,-108 225.5,-102 225.5,-96 225.5,-96 225.5,-84 225.5,-84 225.5,-78 231.5,-72 237.5,-72 237.5,-72 267.5,-72 267.5,-72 273.5,-72 279.5,-78 279.5,-84 279.5,-84 279.5,-96 279.5,-96 279.5,-102 273.5,-108 267.5,-108"/>
<text text-anchor="middle" x="252.5" y="-86.3" font-family="Times,serif" font-size="14.00">Name</text>
</g>
<!-- ast.Call object at 0x7a316655be50&#45;&gt;ast.Name object at 0x7a316655bed0 -->
<g id="edge32" class="edge">
<title>ast.Call object at 0x7a316655be50&#45;&gt;ast.Name object at 0x7a316655bed0</title>
<path fill="none" stroke="black" d="M296.16,-143.7C289.21,-135.3 280.73,-125.07 273.1,-115.86"/>
<polygon fill="black" stroke="black" points="275.75,-113.57 266.67,-108.1 270.36,-118.04 275.75,-113.57"/>
</g>
<!-- ast.Name object at 0x7a316655bfd0 -->
<g id="node28" class="node">
<title>ast.Name object at 0x7a316655bfd0</title>
<path fill="#66cdaa" stroke="black" d="M339.5,-108C339.5,-108 309.5,-108 309.5,-108 303.5,-108 297.5,-102 297.5,-96 297.5,-96 297.5,-84 297.5,-84 297.5,-78 303.5,-72 309.5,-72 309.5,-72 339.5,-72 339.5,-72 345.5,-72 351.5,-78 351.5,-84 351.5,-84 351.5,-96 351.5,-96 351.5,-102 345.5,-108 339.5,-108"/>
<text text-anchor="middle" x="324.5" y="-86.3" font-family="Times,serif" font-size="14.00">Name</text>
</g>
<!-- ast.Call object at 0x7a316655be50&#45;&gt;ast.Name object at 0x7a316655bfd0 -->
<g id="edge34" class="edge">
<title>ast.Call object at 0x7a316655be50&#45;&gt;ast.Name object at 0x7a316655bfd0</title>
<path fill="none" stroke="black" d="M313.96,-143.7C315.5,-135.98 317.36,-126.71 319.08,-118.11"/>
<polygon fill="black" stroke="black" points="322.55,-118.6 321.08,-108.1 315.69,-117.22 322.55,-118.6"/>
</g>
<!-- ast.Name object at 0x7a316655bed0&#45;&gt;ast.Load object at 0x7a3177bc5050 -->
<g id="edge33" class="edge">
<title>ast.Name object at 0x7a316655bed0&#45;&gt;ast.Load object at 0x7a3177bc5050</title>
<path fill="none" stroke="black" d="M270.3,-71.7C279.1,-63.14 289.88,-52.66 299.5,-43.3"/>
<polygon fill="black" stroke="black" points="302.18,-45.58 306.91,-36.1 297.3,-40.57 302.18,-45.58"/>
</g>
<!-- ast.Name object at 0x7a316655bfd0&#45;&gt;ast.Load object at 0x7a3177bc5050 -->
<g id="edge35" class="edge">
<title>ast.Name object at 0x7a316655bfd0&#45;&gt;ast.Load object at 0x7a3177bc5050</title>
<path fill="none" stroke="black" d="M324.5,-71.7C324.5,-63.98 324.5,-54.71 324.5,-46.11"/>
<polygon fill="black" stroke="black" points="328,-46.1 324.5,-36.1 321,-46.1 328,-46.1"/>
</g>
</g>
</svg>
