<?xml version="1.0" encoding="UTF-8" standalone="no"?>
<!DOCTYPE svg PUBLIC "-//W3C//DTD SVG 1.1//EN"
 "http://www.w3.org/Graphics/SVG/1.1/DTD/svg11.dtd">
<!-- Generated by graphviz version 2.50.0 (0)
 -->
<!-- Pages: 1 -->
<svg width="1257pt" height="764pt"
 viewBox="0.00 0.00 1257.30 764.00" xmlns="http://www.w3.org/2000/svg" xmlns:xlink="http://www.w3.org/1999/xlink">
<g id="graph0" class="graph" transform="scale(1 1) rotate(0) translate(4 760)">
<polygon fill="white" stroke="transparent" points="-4,4 -4,-760 1253.3,-760 1253.3,4 -4,4"/>
<!-- ast.Module object at 0x73203d9363d0 -->
<g id="node1" class="node">
<title>ast.Module object at 0x73203d9363d0</title>
<path fill="#66cdaa" stroke="black" d="M316.3,-756C316.3,-756 281.3,-756 281.3,-756 275.3,-756 269.3,-750 269.3,-744 269.3,-744 269.3,-732 269.3,-732 269.3,-726 275.3,-720 281.3,-720 281.3,-720 316.3,-720 316.3,-720 322.3,-720 328.3,-726 328.3,-732 328.3,-732 328.3,-744 328.3,-744 328.3,-750 322.3,-756 316.3,-756"/>
<text text-anchor="middle" x="298.8" y="-734.3" font-family="Times,serif" font-size="14.00">Module</text>
</g>
<!-- ast.FunctionDef object at 0x73203d9378d0 -->
<g id="node2" class="node">
<title>ast.FunctionDef object at 0x73203d9378d0</title>
<path fill="#66cdaa" stroke="black" d="M329.3,-684C329.3,-684 268.3,-684 268.3,-684 262.3,-684 256.3,-678 256.3,-672 256.3,-672 256.3,-660 256.3,-660 256.3,-654 262.3,-648 268.3,-648 268.3,-648 329.3,-648 329.3,-648 335.3,-648 341.3,-654 341.3,-660 341.3,-660 341.3,-672 341.3,-672 341.3,-678 335.3,-684 329.3,-684"/>
<text text-anchor="middle" x="298.8" y="-662.3" font-family="Times,serif" font-size="14.00">FunctionDef</text>
</g>
<!-- ast.Module object at 0x73203d9363d0&#45;&gt;ast.FunctionDef object at 0x73203d9378d0 -->
<g id="edge1" class="edge">
<title>ast.Module object at 0x73203d9363d0&#45;&gt;ast.FunctionDef object at 0x73203d9378d0</title>
<path fill="none" stroke="black" d="M298.8,-719.7C298.8,-711.98 298.8,-702.71 298.8,-694.11"/>
<polygon fill="black" stroke="black" points="302.3,-694.1 298.8,-684.1 295.3,-694.1 302.3,-694.1"/>
</g>
<!-- ast.arguments object at 0x73203d936250 -->
<g id="node3" class="node">
<title>ast.arguments object at 0x73203d936250</title>
<path fill="#66cdaa" stroke="black" d="M231.8,-612C231.8,-612 181.8,-612 181.8,-612 175.8,-612 169.8,-606 169.8,-600 169.8,-600 169.8,-588 169.8,-588 169.8,-582 175.8,-576 181.8,-576 181.8,-576 231.8,-576 231.8,-576 237.8,-576 243.8,-582 243.8,-588 243.8,-588 243.8,-600 243.8,-600 243.8,-606 237.8,-612 231.8,-612"/>
<text text-anchor="middle" x="206.8" y="-590.3" font-family="Times,serif" font-size="14.00">arguments</text>
</g>
<!-- ast.FunctionDef object at 0x73203d9378d0&#45;&gt;ast.arguments object at 0x73203d936250 -->
<g id="edge2" class="edge">
<title>ast.FunctionDef object at 0x73203d9378d0&#45;&gt;ast.arguments object at 0x73203d936250</title>
<path fill="none" stroke="black" d="M276.06,-647.7C264.36,-638.8 249.94,-627.82 237.29,-618.2"/>
<polygon fill="black" stroke="black" points="239.36,-615.37 229.28,-612.1 235.12,-620.94 239.36,-615.37"/>
</g>
<!-- ast.Assign object at 0x73203d936d50 -->
<g id="node5" class="node">
<title>ast.Assign object at 0x73203d936d50</title>
<path fill="#66cdaa" stroke="black" d="M286.8,-468C286.8,-468 256.8,-468 256.8,-468 250.8,-468 244.8,-462 244.8,-456 244.8,-456 244.8,-444 244.8,-444 244.8,-438 250.8,-432 256.8,-432 256.8,-432 286.8,-432 286.8,-432 292.8,-432 298.8,-438 298.8,-444 298.8,-444 298.8,-456 298.8,-456 298.8,-462 292.8,-468 286.8,-468"/>
<text text-anchor="middle" x="271.8" y="-446.3" font-family="Times,serif" font-size="14.00">Assign</text>
</g>
<!-- ast.FunctionDef object at 0x73203d9378d0&#45;&gt;ast.Assign object at 0x73203d936d50 -->
<g id="edge4" class="edge">
<title>ast.FunctionDef object at 0x73203d9378d0&#45;&gt;ast.Assign object at 0x73203d936d50</title>
<path fill="none" stroke="black" d="M296.07,-647.83C294.45,-637.47 292.41,-623.99 290.8,-612 284.5,-565.14 278.29,-510.44 274.76,-478.38"/>
<polygon fill="black" stroke="black" points="278.24,-477.98 273.67,-468.42 271.28,-478.74 278.24,-477.98"/>
</g>
<!-- ast.For object at 0x73203d937310 -->
<g id="node10" class="node">
<title>ast.For object at 0x73203d937310</title>
<path fill="#66cdaa" stroke="black" d="M559.8,-612C559.8,-612 529.8,-612 529.8,-612 523.8,-612 517.8,-606 517.8,-600 517.8,-600 517.8,-588 517.8,-588 517.8,-582 523.8,-576 529.8,-576 529.8,-576 559.8,-576 559.8,-576 565.8,-576 571.8,-582 571.8,-588 571.8,-588 571.8,-600 571.8,-600 571.8,-606 565.8,-612 559.8,-612"/>
<text text-anchor="middle" x="544.8" y="-590.3" font-family="Times,serif" font-size="14.00">For</text>
</g>
<!-- ast.FunctionDef object at 0x73203d9378d0&#45;&gt;ast.For object at 0x73203d937310 -->
<g id="edge9" class="edge">
<title>ast.FunctionDef object at 0x73203d9378d0&#45;&gt;ast.For object at 0x73203d937310</title>
<path fill="none" stroke="black" d="M341.37,-652.89C388.32,-639.53 463.11,-618.25 507.73,-605.55"/>
<polygon fill="black" stroke="black" points="508.93,-608.85 517.59,-602.74 507.01,-602.11 508.93,-608.85"/>
</g>
<!-- ast.Return object at 0x732048b703d0 -->
<g id="node50" class="node">
<title>ast.Return object at 0x732048b703d0</title>
<path fill="#66cdaa" stroke="black" d="M341.8,-612C341.8,-612 311.8,-612 311.8,-612 305.8,-612 299.8,-606 299.8,-600 299.8,-600 299.8,-588 299.8,-588 299.8,-582 305.8,-576 311.8,-576 311.8,-576 341.8,-576 341.8,-576 347.8,-576 353.8,-582 353.8,-588 353.8,-588 353.8,-600 353.8,-600 353.8,-606 347.8,-612 341.8,-612"/>
<text text-anchor="middle" x="326.8" y="-590.3" font-family="Times,serif" font-size="14.00">Return</text>
</g>
<!-- ast.FunctionDef object at 0x73203d9378d0&#45;&gt;ast.Return object at 0x732048b703d0 -->
<g id="edge62" class="edge">
<title>ast.FunctionDef object at 0x73203d9378d0&#45;&gt;ast.Return object at 0x732048b703d0</title>
<path fill="none" stroke="black" d="M305.72,-647.7C308.87,-639.81 312.68,-630.3 316.18,-621.55"/>
<polygon fill="black" stroke="black" points="319.49,-622.69 319.96,-612.1 312.99,-620.09 319.49,-622.69"/>
</g>
<!-- ast.arg object at 0x73203d935b10 -->
<g id="node4" class="node">
<title>ast.arg object at 0x73203d935b10</title>
<path fill="#66cdaa" stroke="black" d="M221.8,-540C221.8,-540 191.8,-540 191.8,-540 185.8,-540 179.8,-534 179.8,-528 179.8,-528 179.8,-516 179.8,-516 179.8,-510 185.8,-504 191.8,-504 191.8,-504 221.8,-504 221.8,-504 227.8,-504 233.8,-510 233.8,-516 233.8,-516 233.8,-528 233.8,-528 233.8,-534 227.8,-540 221.8,-540"/>
<text text-anchor="middle" x="206.8" y="-518.3" font-family="Times,serif" font-size="14.00">arg</text>
</g>
<!-- ast.arguments object at 0x73203d936250&#45;&gt;ast.arg object at 0x73203d935b10 -->
<g id="edge3" class="edge">
<title>ast.arguments object at 0x73203d936250&#45;&gt;ast.arg object at 0x73203d935b10</title>
<path fill="none" stroke="black" d="M206.8,-575.7C206.8,-567.98 206.8,-558.71 206.8,-550.11"/>
<polygon fill="black" stroke="black" points="210.3,-550.1 206.8,-540.1 203.3,-550.1 210.3,-550.1"/>
</g>
<!-- ast.Name object at 0x73203d937a10 -->
<g id="node6" class="node">
<title>ast.Name object at 0x73203d937a10</title>
<path fill="#66cdaa" stroke="black" d="M286.8,-396C286.8,-396 256.8,-396 256.8,-396 250.8,-396 244.8,-390 244.8,-384 244.8,-384 244.8,-372 244.8,-372 244.8,-366 250.8,-360 256.8,-360 256.8,-360 286.8,-360 286.8,-360 292.8,-360 298.8,-366 298.8,-372 298.8,-372 298.8,-384 298.8,-384 298.8,-390 292.8,-396 286.8,-396"/>
<text text-anchor="middle" x="271.8" y="-374.3" font-family="Times,serif" font-size="14.00">Name</text>
</g>
<!-- ast.Assign object at 0x73203d936d50&#45;&gt;ast.Name object at 0x73203d937a10 -->
<g id="edge5" class="edge">
<title>ast.Assign object at 0x73203d936d50&#45;&gt;ast.Name object at 0x73203d937a10</title>
<path fill="none" stroke="black" d="M271.8,-431.7C271.8,-423.98 271.8,-414.71 271.8,-406.11"/>
<polygon fill="black" stroke="black" points="275.3,-406.1 271.8,-396.1 268.3,-406.1 275.3,-406.1"/>
</g>
<!-- ast.List object at 0x73203d937090 -->
<g id="node8" class="node">
<title>ast.List object at 0x73203d937090</title>
<path fill="#66cdaa" stroke="black" d="M91.8,-396C91.8,-396 61.8,-396 61.8,-396 55.8,-396 49.8,-390 49.8,-384 49.8,-384 49.8,-372 49.8,-372 49.8,-366 55.8,-360 61.8,-360 61.8,-360 91.8,-360 91.8,-360 97.8,-360 103.8,-366 103.8,-372 103.8,-372 103.8,-384 103.8,-384 103.8,-390 97.8,-396 91.8,-396"/>
<text text-anchor="middle" x="76.8" y="-374.3" font-family="Times,serif" font-size="14.00">List</text>
</g>
<!-- ast.Assign object at 0x73203d936d50&#45;&gt;ast.List object at 0x73203d937090 -->
<g id="edge7" class="edge">
<title>ast.Assign object at 0x73203d936d50&#45;&gt;ast.List object at 0x73203d937090</title>
<path fill="none" stroke="black" d="M244.69,-439.27C210.58,-427.02 151.88,-405.95 113.71,-392.25"/>
<polygon fill="black" stroke="black" points="114.59,-388.85 104,-388.76 112.23,-395.44 114.59,-388.85"/>
</g>
<!-- ast.Store object at 0x732101db6c90 -->
<g id="node7" class="node">
<title>ast.Store object at 0x732101db6c90</title>
<path fill="#66cdaa" stroke="black" d="M446.8,-324C446.8,-324 416.8,-324 416.8,-324 410.8,-324 404.8,-318 404.8,-312 404.8,-312 404.8,-300 404.8,-300 404.8,-294 410.8,-288 416.8,-288 416.8,-288 446.8,-288 446.8,-288 452.8,-288 458.8,-294 458.8,-300 458.8,-300 458.8,-312 458.8,-312 458.8,-318 452.8,-324 446.8,-324"/>
<text text-anchor="middle" x="431.8" y="-302.3" font-family="Times,serif" font-size="14.00">Store</text>
</g>
<!-- ast.Name object at 0x73203d937a10&#45;&gt;ast.Store object at 0x732101db6c90 -->
<g id="edge6" class="edge">
<title>ast.Name object at 0x73203d937a10&#45;&gt;ast.Store object at 0x732101db6c90</title>
<path fill="none" stroke="black" d="M298.94,-365.13C325.46,-353.53 365.99,-335.79 395.31,-322.96"/>
<polygon fill="black" stroke="black" points="397.03,-326.03 404.79,-318.82 394.23,-319.62 397.03,-326.03"/>
</g>
<!-- ast.Load object at 0x732101db6c10 -->
<g id="node9" class="node">
<title>ast.Load object at 0x732101db6c10</title>
<path fill="#66cdaa" stroke="black" d="M592.8,-36C592.8,-36 562.8,-36 562.8,-36 556.8,-36 550.8,-30 550.8,-24 550.8,-24 550.8,-12 550.8,-12 550.8,-6 556.8,0 562.8,0 562.8,0 592.8,0 592.8,0 598.8,0 604.8,-6 604.8,-12 604.8,-12 604.8,-24 604.8,-24 604.8,-30 598.8,-36 592.8,-36"/>
<text text-anchor="middle" x="577.8" y="-14.3" font-family="Times,serif" font-size="14.00">Load</text>
</g>
<!-- ast.List object at 0x73203d937090&#45;&gt;ast.Load object at 0x732101db6c10 -->
<g id="edge8" class="edge">
<title>ast.List object at 0x73203d937090&#45;&gt;ast.Load object at 0x732101db6c10</title>
<path fill="none" stroke="black" d="M60.74,-359.69C38.98,-334.36 2.8,-284.76 2.8,-235 2.8,-235 2.8,-235 2.8,-161 2.8,-120.55 -8.4,-98.91 21.8,-72 60.5,-37.52 422.35,-23.67 540.61,-20.04"/>
<polygon fill="black" stroke="black" points="540.74,-23.53 550.63,-19.73 540.53,-16.54 540.74,-23.53"/>
</g>
<!-- ast.Name object at 0x73203d936b10 -->
<g id="node11" class="node">
<title>ast.Name object at 0x73203d936b10</title>
<path fill="#66cdaa" stroke="black" d="M489.8,-540C489.8,-540 459.8,-540 459.8,-540 453.8,-540 447.8,-534 447.8,-528 447.8,-528 447.8,-516 447.8,-516 447.8,-510 453.8,-504 459.8,-504 459.8,-504 489.8,-504 489.8,-504 495.8,-504 501.8,-510 501.8,-516 501.8,-516 501.8,-528 501.8,-528 501.8,-534 495.8,-540 489.8,-540"/>
<text text-anchor="middle" x="474.8" y="-518.3" font-family="Times,serif" font-size="14.00">Name</text>
</g>
<!-- ast.For object at 0x73203d937310&#45;&gt;ast.Name object at 0x73203d936b10 -->
<g id="edge10" class="edge">
<title>ast.For object at 0x73203d937310&#45;&gt;ast.Name object at 0x73203d936b10</title>
<path fill="none" stroke="black" d="M527.5,-575.7C518.94,-567.14 508.46,-556.66 499.1,-547.3"/>
<polygon fill="black" stroke="black" points="501.45,-544.7 491.9,-540.1 496.5,-549.65 501.45,-544.7"/>
</g>
<!-- ast.Subscript object at 0x73203d937650 -->
<g id="node12" class="node">
<title>ast.Subscript object at 0x73203d937650</title>
<path fill="#66cdaa" stroke="black" d="M1109.8,-180C1109.8,-180 1065.8,-180 1065.8,-180 1059.8,-180 1053.8,-174 1053.8,-168 1053.8,-168 1053.8,-156 1053.8,-156 1053.8,-150 1059.8,-144 1065.8,-144 1065.8,-144 1109.8,-144 1109.8,-144 1115.8,-144 1121.8,-150 1121.8,-156 1121.8,-156 1121.8,-168 1121.8,-168 1121.8,-174 1115.8,-180 1109.8,-180"/>
<text text-anchor="middle" x="1087.8" y="-158.3" font-family="Times,serif" font-size="14.00">Subscript</text>
</g>
<!-- ast.For object at 0x73203d937310&#45;&gt;ast.Subscript object at 0x73203d937650 -->
<g id="edge12" class="edge">
<title>ast.For object at 0x73203d937310&#45;&gt;ast.Subscript object at 0x73203d937650</title>
<path fill="none" stroke="black" d="M571.82,-591.57C678.91,-585.19 1067.8,-554.85 1067.8,-451 1067.8,-451 1067.8,-451 1067.8,-305 1067.8,-264.82 1075.75,-218.87 1081.62,-190.39"/>
<polygon fill="black" stroke="black" points="1085.1,-190.89 1083.75,-180.38 1078.25,-189.43 1085.1,-190.89"/>
</g>
<!-- ast.If object at 0x73203d937a90 -->
<g id="node17" class="node">
<title>ast.If object at 0x73203d937a90</title>
<path fill="#66cdaa" stroke="black" d="M629.8,-540C629.8,-540 599.8,-540 599.8,-540 593.8,-540 587.8,-534 587.8,-528 587.8,-528 587.8,-516 587.8,-516 587.8,-510 593.8,-504 599.8,-504 599.8,-504 629.8,-504 629.8,-504 635.8,-504 641.8,-510 641.8,-516 641.8,-516 641.8,-528 641.8,-528 641.8,-534 635.8,-540 629.8,-540"/>
<text text-anchor="middle" x="614.8" y="-518.3" font-family="Times,serif" font-size="14.00">If</text>
</g>
<!-- ast.For object at 0x73203d937310&#45;&gt;ast.If object at 0x73203d937a90 -->
<g id="edge19" class="edge">
<title>ast.For object at 0x73203d937310&#45;&gt;ast.If object at 0x73203d937a90</title>
<path fill="none" stroke="black" d="M562.1,-575.7C570.67,-567.14 581.14,-556.66 590.5,-547.3"/>
<polygon fill="black" stroke="black" points="593.1,-549.65 597.7,-540.1 588.15,-544.7 593.1,-549.65"/>
</g>
<!-- ast.Name object at 0x73203d936b10&#45;&gt;ast.Store object at 0x732101db6c90 -->
<g id="edge11" class="edge">
<title>ast.Name object at 0x73203d936b10&#45;&gt;ast.Store object at 0x732101db6c90</title>
<path fill="none" stroke="black" d="M471.35,-503.85C463.9,-466.75 446.23,-378.81 437.25,-334.1"/>
<polygon fill="black" stroke="black" points="440.66,-333.35 435.26,-324.23 433.8,-334.73 440.66,-333.35"/>
</g>
<!-- ast.Subscript object at 0x73203d937650&#45;&gt;ast.Load object at 0x732101db6c10 -->
<g id="edge18" class="edge">
<title>ast.Subscript object at 0x73203d937650&#45;&gt;ast.Load object at 0x732101db6c10</title>
<path fill="none" stroke="black" d="M1080.94,-143.92C1071.61,-123.1 1052.79,-88.64 1024.8,-72 955.84,-31 709.92,-21.67 615.29,-19.59"/>
<polygon fill="black" stroke="black" points="615.11,-16.08 605.04,-19.38 614.97,-23.08 615.11,-16.08"/>
</g>
<!-- ast.Name object at 0x73203d937890 -->
<g id="node13" class="node">
<title>ast.Name object at 0x73203d937890</title>
<path fill="#66cdaa" stroke="black" d="M1118.8,-108C1118.8,-108 1088.8,-108 1088.8,-108 1082.8,-108 1076.8,-102 1076.8,-96 1076.8,-96 1076.8,-84 1076.8,-84 1076.8,-78 1082.8,-72 1088.8,-72 1088.8,-72 1118.8,-72 1118.8,-72 1124.8,-72 1130.8,-78 1130.8,-84 1130.8,-84 1130.8,-96 1130.8,-96 1130.8,-102 1124.8,-108 1118.8,-108"/>
<text text-anchor="middle" x="1103.8" y="-86.3" font-family="Times,serif" font-size="14.00">Name</text>
</g>
<!-- ast.Subscript object at 0x73203d937650&#45;&gt;ast.Name object at 0x73203d937890 -->
<g id="edge13" class="edge">
<title>ast.Subscript object at 0x73203d937650&#45;&gt;ast.Name object at 0x73203d937890</title>
<path fill="none" stroke="black" d="M1091.76,-143.7C1093.52,-135.98 1095.64,-126.71 1097.6,-118.11"/>
<polygon fill="black" stroke="black" points="1101.07,-118.63 1099.89,-108.1 1094.25,-117.07 1101.07,-118.63"/>
</g>
<!-- ast.Slice object at 0x73203d936c50 -->
<g id="node14" class="node">
<title>ast.Slice object at 0x73203d936c50</title>
<path fill="#66cdaa" stroke="black" d="M1190.8,-108C1190.8,-108 1160.8,-108 1160.8,-108 1154.8,-108 1148.8,-102 1148.8,-96 1148.8,-96 1148.8,-84 1148.8,-84 1148.8,-78 1154.8,-72 1160.8,-72 1160.8,-72 1190.8,-72 1190.8,-72 1196.8,-72 1202.8,-78 1202.8,-84 1202.8,-84 1202.8,-96 1202.8,-96 1202.8,-102 1196.8,-108 1190.8,-108"/>
<text text-anchor="middle" x="1175.8" y="-86.3" font-family="Times,serif" font-size="14.00">Slice</text>
</g>
<!-- ast.Subscript object at 0x73203d937650&#45;&gt;ast.Slice object at 0x73203d936c50 -->
<g id="edge15" class="edge">
<title>ast.Subscript object at 0x73203d937650&#45;&gt;ast.Slice object at 0x73203d936c50</title>
<path fill="none" stroke="black" d="M1109.55,-143.7C1120.64,-134.88 1134.27,-124.03 1146.29,-114.47"/>
<polygon fill="black" stroke="black" points="1148.65,-117.07 1154.3,-108.1 1144.29,-111.59 1148.65,-117.07"/>
</g>
<!-- ast.Name object at 0x73203d937890&#45;&gt;ast.Load object at 0x732101db6c10 -->
<g id="edge14" class="edge">
<title>ast.Name object at 0x73203d937890&#45;&gt;ast.Load object at 0x732101db6c10</title>
<path fill="none" stroke="black" d="M1076.38,-76.38C1071.91,-74.69 1067.28,-73.15 1062.8,-72 899.5,-30.14 696.97,-21.33 614.91,-19.49"/>
<polygon fill="black" stroke="black" points="614.9,-15.99 604.83,-19.28 614.75,-22.98 614.9,-15.99"/>
</g>
<!-- ast.Constant object at 0x73203d937290 -->
<g id="node15" class="node">
<title>ast.Constant object at 0x73203d937290</title>
<path fill="#66cdaa" stroke="black" d="M1154.3,-36C1154.3,-36 1113.3,-36 1113.3,-36 1107.3,-36 1101.3,-30 1101.3,-24 1101.3,-24 1101.3,-12 1101.3,-12 1101.3,-6 1107.3,0 1113.3,0 1113.3,0 1154.3,0 1154.3,0 1160.3,0 1166.3,-6 1166.3,-12 1166.3,-12 1166.3,-24 1166.3,-24 1166.3,-30 1160.3,-36 1154.3,-36"/>
<text text-anchor="middle" x="1133.8" y="-14.3" font-family="Times,serif" font-size="14.00">Constant</text>
</g>
<!-- ast.Slice object at 0x73203d936c50&#45;&gt;ast.Constant object at 0x73203d937290 -->
<g id="edge16" class="edge">
<title>ast.Slice object at 0x73203d936c50&#45;&gt;ast.Constant object at 0x73203d937290</title>
<path fill="none" stroke="black" d="M1165.42,-71.7C1160.54,-63.56 1154.61,-53.69 1149.22,-44.7"/>
<polygon fill="black" stroke="black" points="1152.21,-42.88 1144.06,-36.1 1146.21,-46.48 1152.21,-42.88"/>
</g>
<!-- ast.Constant object at 0x73203d936090 -->
<g id="node16" class="node">
<title>ast.Constant object at 0x73203d936090</title>
<path fill="#66cdaa" stroke="black" d="M1237.3,-36C1237.3,-36 1196.3,-36 1196.3,-36 1190.3,-36 1184.3,-30 1184.3,-24 1184.3,-24 1184.3,-12 1184.3,-12 1184.3,-6 1190.3,0 1196.3,0 1196.3,0 1237.3,0 1237.3,0 1243.3,0 1249.3,-6 1249.3,-12 1249.3,-12 1249.3,-24 1249.3,-24 1249.3,-30 1243.3,-36 1237.3,-36"/>
<text text-anchor="middle" x="1216.8" y="-14.3" font-family="Times,serif" font-size="14.00">Constant</text>
</g>
<!-- ast.Slice object at 0x73203d936c50&#45;&gt;ast.Constant object at 0x73203d936090 -->
<g id="edge17" class="edge">
<title>ast.Slice object at 0x73203d936c50&#45;&gt;ast.Constant object at 0x73203d936090</title>
<path fill="none" stroke="black" d="M1185.93,-71.7C1190.65,-63.64 1196.36,-53.89 1201.58,-44.98"/>
<polygon fill="black" stroke="black" points="1204.75,-46.5 1206.78,-36.1 1198.71,-42.96 1204.75,-46.5"/>
</g>
<!-- ast.Compare object at 0x73203d936310 -->
<g id="node18" class="node">
<title>ast.Compare object at 0x73203d936310</title>
<path fill="#66cdaa" stroke="black" d="M880.3,-468C880.3,-468 837.3,-468 837.3,-468 831.3,-468 825.3,-462 825.3,-456 825.3,-456 825.3,-444 825.3,-444 825.3,-438 831.3,-432 837.3,-432 837.3,-432 880.3,-432 880.3,-432 886.3,-432 892.3,-438 892.3,-444 892.3,-444 892.3,-456 892.3,-456 892.3,-462 886.3,-468 880.3,-468"/>
<text text-anchor="middle" x="858.8" y="-446.3" font-family="Times,serif" font-size="14.00">Compare</text>
</g>
<!-- ast.If object at 0x73203d937a90&#45;&gt;ast.Compare object at 0x73203d936310 -->
<g id="edge20" class="edge">
<title>ast.If object at 0x73203d937a90&#45;&gt;ast.Compare object at 0x73203d936310</title>
<path fill="none" stroke="black" d="M641.84,-513.24C683.84,-501.19 765.11,-477.88 815.39,-463.45"/>
<polygon fill="black" stroke="black" points="816.36,-466.82 825.01,-460.69 814.43,-460.09 816.36,-466.82"/>
</g>
<!-- ast.For object at 0x73203d936950 -->
<g id="node22" class="node">
<title>ast.For object at 0x73203d936950</title>
<path fill="#66cdaa" stroke="black" d="M629.8,-468C629.8,-468 599.8,-468 599.8,-468 593.8,-468 587.8,-462 587.8,-456 587.8,-456 587.8,-444 587.8,-444 587.8,-438 593.8,-432 599.8,-432 599.8,-432 629.8,-432 629.8,-432 635.8,-432 641.8,-438 641.8,-444 641.8,-444 641.8,-456 641.8,-456 641.8,-462 635.8,-468 629.8,-468"/>
<text text-anchor="middle" x="614.8" y="-446.3" font-family="Times,serif" font-size="14.00">For</text>
</g>
<!-- ast.If object at 0x73203d937a90&#45;&gt;ast.For object at 0x73203d936950 -->
<g id="edge25" class="edge">
<title>ast.If object at 0x73203d937a90&#45;&gt;ast.For object at 0x73203d936950</title>
<path fill="none" stroke="black" d="M614.8,-503.7C614.8,-495.98 614.8,-486.71 614.8,-478.11"/>
<polygon fill="black" stroke="black" points="618.3,-478.1 614.8,-468.1 611.3,-478.1 618.3,-478.1"/>
</g>
<!-- ast.Name object at 0x73203d935850 -->
<g id="node19" class="node">
<title>ast.Name object at 0x73203d935850</title>
<path fill="#66cdaa" stroke="black" d="M837.8,-396C837.8,-396 807.8,-396 807.8,-396 801.8,-396 795.8,-390 795.8,-384 795.8,-384 795.8,-372 795.8,-372 795.8,-366 801.8,-360 807.8,-360 807.8,-360 837.8,-360 837.8,-360 843.8,-360 849.8,-366 849.8,-372 849.8,-372 849.8,-384 849.8,-384 849.8,-390 843.8,-396 837.8,-396"/>
<text text-anchor="middle" x="822.8" y="-374.3" font-family="Times,serif" font-size="14.00">Name</text>
</g>
<!-- ast.Compare object at 0x73203d936310&#45;&gt;ast.Name object at 0x73203d935850 -->
<g id="edge21" class="edge">
<title>ast.Compare object at 0x73203d936310&#45;&gt;ast.Name object at 0x73203d935850</title>
<path fill="none" stroke="black" d="M849.9,-431.7C845.8,-423.73 840.85,-414.1 836.31,-405.26"/>
<polygon fill="black" stroke="black" points="839.28,-403.4 831.6,-396.1 833.06,-406.6 839.28,-403.4"/>
</g>
<!-- ast.Gt object at 0x732101db7e10 -->
<g id="node20" class="node">
<title>ast.Gt object at 0x732101db7e10</title>
<path fill="#66cdaa" stroke="black" d="M909.8,-396C909.8,-396 879.8,-396 879.8,-396 873.8,-396 867.8,-390 867.8,-384 867.8,-384 867.8,-372 867.8,-372 867.8,-366 873.8,-360 879.8,-360 879.8,-360 909.8,-360 909.8,-360 915.8,-360 921.8,-366 921.8,-372 921.8,-372 921.8,-384 921.8,-384 921.8,-390 915.8,-396 909.8,-396"/>
<text text-anchor="middle" x="894.8" y="-374.3" font-family="Times,serif" font-size="14.00">Gt</text>
</g>
<!-- ast.Compare object at 0x73203d936310&#45;&gt;ast.Gt object at 0x732101db7e10 -->
<g id="edge23" class="edge">
<title>ast.Compare object at 0x73203d936310&#45;&gt;ast.Gt object at 0x732101db7e10</title>
<path fill="none" stroke="black" d="M867.7,-431.7C871.8,-423.73 876.75,-414.1 881.29,-405.26"/>
<polygon fill="black" stroke="black" points="884.54,-406.6 886,-396.1 878.32,-403.4 884.54,-406.6"/>
</g>
<!-- ast.Constant object at 0x73203d936a90 -->
<g id="node21" class="node">
<title>ast.Constant object at 0x73203d936a90</title>
<path fill="#66cdaa" stroke="black" d="M993.3,-396C993.3,-396 952.3,-396 952.3,-396 946.3,-396 940.3,-390 940.3,-384 940.3,-384 940.3,-372 940.3,-372 940.3,-366 946.3,-360 952.3,-360 952.3,-360 993.3,-360 993.3,-360 999.3,-360 1005.3,-366 1005.3,-372 1005.3,-372 1005.3,-384 1005.3,-384 1005.3,-390 999.3,-396 993.3,-396"/>
<text text-anchor="middle" x="972.8" y="-374.3" font-family="Times,serif" font-size="14.00">Constant</text>
</g>
<!-- ast.Compare object at 0x73203d936310&#45;&gt;ast.Constant object at 0x73203d936a90 -->
<g id="edge24" class="edge">
<title>ast.Compare object at 0x73203d936310&#45;&gt;ast.Constant object at 0x73203d936a90</title>
<path fill="none" stroke="black" d="M886.69,-431.88C901.59,-422.72 920.13,-411.34 936.18,-401.48"/>
<polygon fill="black" stroke="black" points="938.12,-404.41 944.81,-396.19 934.45,-398.44 938.12,-404.41"/>
</g>
<!-- ast.Name object at 0x73203d935850&#45;&gt;ast.Load object at 0x732101db6c10 -->
<g id="edge22" class="edge">
<title>ast.Name object at 0x73203d935850&#45;&gt;ast.Load object at 0x732101db6c10</title>
<path fill="none" stroke="black" d="M850.14,-363.24C902.28,-336.08 1010.8,-274.78 1010.8,-235 1010.8,-235 1010.8,-235 1010.8,-161 1010.8,-117.81 1006.29,-97.99 971.8,-72 916.04,-29.98 702.34,-21.28 615.16,-19.47"/>
<polygon fill="black" stroke="black" points="615,-15.97 604.93,-19.28 614.87,-22.97 615,-15.97"/>
</g>
<!-- ast.Name object at 0x73203d937550 -->
<g id="node23" class="node">
<title>ast.Name object at 0x73203d937550</title>
<path fill="#66cdaa" stroke="black" d="M530.8,-396C530.8,-396 500.8,-396 500.8,-396 494.8,-396 488.8,-390 488.8,-384 488.8,-384 488.8,-372 488.8,-372 488.8,-366 494.8,-360 500.8,-360 500.8,-360 530.8,-360 530.8,-360 536.8,-360 542.8,-366 542.8,-372 542.8,-372 542.8,-384 542.8,-384 542.8,-390 536.8,-396 530.8,-396"/>
<text text-anchor="middle" x="515.8" y="-374.3" font-family="Times,serif" font-size="14.00">Name</text>
</g>
<!-- ast.For object at 0x73203d936950&#45;&gt;ast.Name object at 0x73203d937550 -->
<g id="edge26" class="edge">
<title>ast.For object at 0x73203d936950&#45;&gt;ast.Name object at 0x73203d937550</title>
<path fill="none" stroke="black" d="M590.58,-431.88C577.88,-422.89 562.14,-411.76 548.38,-402.03"/>
<polygon fill="black" stroke="black" points="550.3,-399.11 540.11,-396.19 546.26,-404.82 550.3,-399.11"/>
</g>
<!-- ast.Call object at 0x73203d935b90 -->
<g id="node24" class="node">
<title>ast.Call object at 0x73203d935b90</title>
<path fill="#66cdaa" stroke="black" d="M659.8,-396C659.8,-396 629.8,-396 629.8,-396 623.8,-396 617.8,-390 617.8,-384 617.8,-384 617.8,-372 617.8,-372 617.8,-366 623.8,-360 629.8,-360 629.8,-360 659.8,-360 659.8,-360 665.8,-360 671.8,-366 671.8,-372 671.8,-372 671.8,-384 671.8,-384 671.8,-390 665.8,-396 659.8,-396"/>
<text text-anchor="middle" x="644.8" y="-374.3" font-family="Times,serif" font-size="14.00">Call</text>
</g>
<!-- ast.For object at 0x73203d936950&#45;&gt;ast.Call object at 0x73203d935b90 -->
<g id="edge28" class="edge">
<title>ast.For object at 0x73203d936950&#45;&gt;ast.Call object at 0x73203d935b90</title>
<path fill="none" stroke="black" d="M622.22,-431.7C625.59,-423.81 629.67,-414.3 633.42,-405.55"/>
<polygon fill="black" stroke="black" points="636.75,-406.67 637.47,-396.1 630.31,-403.92 636.75,-406.67"/>
</g>
<!-- ast.If object at 0x73203d936fd0 -->
<g id="node36" class="node">
<title>ast.If object at 0x73203d936fd0</title>
<path fill="#66cdaa" stroke="black" d="M518.8,-324C518.8,-324 488.8,-324 488.8,-324 482.8,-324 476.8,-318 476.8,-312 476.8,-312 476.8,-300 476.8,-300 476.8,-294 482.8,-288 488.8,-288 488.8,-288 518.8,-288 518.8,-288 524.8,-288 530.8,-294 530.8,-300 530.8,-300 530.8,-312 530.8,-312 530.8,-318 524.8,-324 518.8,-324"/>
<text text-anchor="middle" x="503.8" y="-302.3" font-family="Times,serif" font-size="14.00">If</text>
</g>
<!-- ast.For object at 0x73203d936950&#45;&gt;ast.If object at 0x73203d936fd0 -->
<g id="edge43" class="edge">
<title>ast.For object at 0x73203d936950&#45;&gt;ast.If object at 0x73203d936fd0</title>
<path fill="none" stroke="black" d="M603.54,-431.83C591.37,-413.57 571.11,-384.07 551.8,-360 544.19,-350.51 535.37,-340.52 527.39,-331.8"/>
<polygon fill="black" stroke="black" points="529.71,-329.16 520.34,-324.2 524.57,-333.92 529.71,-329.16"/>
</g>
<!-- ast.Expr object at 0x73203d937490 -->
<g id="node45" class="node">
<title>ast.Expr object at 0x73203d937490</title>
<path fill="#66cdaa" stroke="black" d="M754.8,-396C754.8,-396 724.8,-396 724.8,-396 718.8,-396 712.8,-390 712.8,-384 712.8,-384 712.8,-372 712.8,-372 712.8,-366 718.8,-360 724.8,-360 724.8,-360 754.8,-360 754.8,-360 760.8,-360 766.8,-366 766.8,-372 766.8,-372 766.8,-384 766.8,-384 766.8,-390 760.8,-396 754.8,-396"/>
<text text-anchor="middle" x="739.8" y="-374.3" font-family="Times,serif" font-size="14.00">Expr</text>
</g>
<!-- ast.For object at 0x73203d936950&#45;&gt;ast.Expr object at 0x73203d937490 -->
<g id="edge54" class="edge">
<title>ast.For object at 0x73203d936950&#45;&gt;ast.Expr object at 0x73203d937490</title>
<path fill="none" stroke="black" d="M641.92,-433.81C660.11,-423.63 684.24,-410.11 704,-399.05"/>
<polygon fill="black" stroke="black" points="705.71,-402.1 712.73,-394.16 702.29,-395.99 705.71,-402.1"/>
</g>
<!-- ast.Name object at 0x73203d937550&#45;&gt;ast.Store object at 0x732101db6c90 -->
<g id="edge27" class="edge">
<title>ast.Name object at 0x73203d937550&#45;&gt;ast.Store object at 0x732101db6c90</title>
<path fill="none" stroke="black" d="M495.04,-359.7C484.56,-350.97 471.69,-340.24 460.3,-330.75"/>
<polygon fill="black" stroke="black" points="462.25,-327.82 452.33,-324.1 457.77,-333.19 462.25,-327.82"/>
</g>
<!-- ast.Name object at 0x73203d935c90 -->
<g id="node25" class="node">
<title>ast.Name object at 0x73203d935c90</title>
<path fill="#66cdaa" stroke="black" d="M590.8,-324C590.8,-324 560.8,-324 560.8,-324 554.8,-324 548.8,-318 548.8,-312 548.8,-312 548.8,-300 548.8,-300 548.8,-294 554.8,-288 560.8,-288 560.8,-288 590.8,-288 590.8,-288 596.8,-288 602.8,-294 602.8,-300 602.8,-300 602.8,-312 602.8,-312 602.8,-318 596.8,-324 590.8,-324"/>
<text text-anchor="middle" x="575.8" y="-302.3" font-family="Times,serif" font-size="14.00">Name</text>
</g>
<!-- ast.Call object at 0x73203d935b90&#45;&gt;ast.Name object at 0x73203d935c90 -->
<g id="edge29" class="edge">
<title>ast.Call object at 0x73203d935b90&#45;&gt;ast.Name object at 0x73203d935c90</title>
<path fill="none" stroke="black" d="M627.74,-359.7C619.3,-351.14 608.98,-340.66 599.76,-331.3"/>
<polygon fill="black" stroke="black" points="602.17,-328.77 592.66,-324.1 597.19,-333.68 602.17,-328.77"/>
</g>
<!-- ast.Constant object at 0x73203d936f90 -->
<g id="node26" class="node">
<title>ast.Constant object at 0x73203d936f90</title>
<path fill="#66cdaa" stroke="black" d="M746.3,-324C746.3,-324 705.3,-324 705.3,-324 699.3,-324 693.3,-318 693.3,-312 693.3,-312 693.3,-300 693.3,-300 693.3,-294 699.3,-288 705.3,-288 705.3,-288 746.3,-288 746.3,-288 752.3,-288 758.3,-294 758.3,-300 758.3,-300 758.3,-312 758.3,-312 758.3,-318 752.3,-324 746.3,-324"/>
<text text-anchor="middle" x="725.8" y="-302.3" font-family="Times,serif" font-size="14.00">Constant</text>
</g>
<!-- ast.Call object at 0x73203d935b90&#45;&gt;ast.Constant object at 0x73203d936f90 -->
<g id="edge31" class="edge">
<title>ast.Call object at 0x73203d935b90&#45;&gt;ast.Constant object at 0x73203d936f90</title>
<path fill="none" stroke="black" d="M664.82,-359.7C674.93,-350.97 687.34,-340.24 698.32,-330.75"/>
<polygon fill="black" stroke="black" points="700.73,-333.29 706.01,-324.1 696.15,-327.99 700.73,-333.29"/>
</g>
<!-- ast.BinOp object at 0x73203d936590 -->
<g id="node27" class="node">
<title>ast.BinOp object at 0x73203d936590</title>
<path fill="#66cdaa" stroke="black" d="M662.8,-324C662.8,-324 632.8,-324 632.8,-324 626.8,-324 620.8,-318 620.8,-312 620.8,-312 620.8,-300 620.8,-300 620.8,-294 626.8,-288 632.8,-288 632.8,-288 662.8,-288 662.8,-288 668.8,-288 674.8,-294 674.8,-300 674.8,-300 674.8,-312 674.8,-312 674.8,-318 668.8,-324 662.8,-324"/>
<text text-anchor="middle" x="647.8" y="-302.3" font-family="Times,serif" font-size="14.00">BinOp</text>
</g>
<!-- ast.Call object at 0x73203d935b90&#45;&gt;ast.BinOp object at 0x73203d936590 -->
<g id="edge32" class="edge">
<title>ast.Call object at 0x73203d935b90&#45;&gt;ast.BinOp object at 0x73203d936590</title>
<path fill="none" stroke="black" d="M645.54,-359.7C645.87,-351.98 646.27,-342.71 646.64,-334.11"/>
<polygon fill="black" stroke="black" points="650.14,-334.25 647.07,-324.1 643.14,-333.95 650.14,-334.25"/>
</g>
<!-- ast.Name object at 0x73203d935c90&#45;&gt;ast.Load object at 0x732101db6c10 -->
<g id="edge30" class="edge">
<title>ast.Name object at 0x73203d935c90&#45;&gt;ast.Load object at 0x732101db6c10</title>
<path fill="none" stroke="black" d="M575.92,-287.97C576.25,-240.29 577.2,-105.18 577.61,-46.63"/>
<polygon fill="black" stroke="black" points="581.11,-46.33 577.68,-36.31 574.11,-46.28 581.11,-46.33"/>
</g>
<!-- ast.Call object at 0x73203d936450 -->
<g id="node28" class="node">
<title>ast.Call object at 0x73203d936450</title>
<path fill="#66cdaa" stroke="black" d="M628.8,-252C628.8,-252 598.8,-252 598.8,-252 592.8,-252 586.8,-246 586.8,-240 586.8,-240 586.8,-228 586.8,-228 586.8,-222 592.8,-216 598.8,-216 598.8,-216 628.8,-216 628.8,-216 634.8,-216 640.8,-222 640.8,-228 640.8,-228 640.8,-240 640.8,-240 640.8,-246 634.8,-252 628.8,-252"/>
<text text-anchor="middle" x="613.8" y="-230.3" font-family="Times,serif" font-size="14.00">Call</text>
</g>
<!-- ast.BinOp object at 0x73203d936590&#45;&gt;ast.Call object at 0x73203d936450 -->
<g id="edge33" class="edge">
<title>ast.BinOp object at 0x73203d936590&#45;&gt;ast.Call object at 0x73203d936450</title>
<path fill="none" stroke="black" d="M639.4,-287.7C635.53,-279.73 630.85,-270.1 626.56,-261.26"/>
<polygon fill="black" stroke="black" points="629.63,-259.57 622.11,-252.1 623.33,-262.63 629.63,-259.57"/>
</g>
<!-- ast.Add object at 0x732101db7110 -->
<g id="node34" class="node">
<title>ast.Add object at 0x732101db7110</title>
<path fill="#66cdaa" stroke="black" d="M784.8,-252C784.8,-252 754.8,-252 754.8,-252 748.8,-252 742.8,-246 742.8,-240 742.8,-240 742.8,-228 742.8,-228 742.8,-222 748.8,-216 754.8,-216 754.8,-216 784.8,-216 784.8,-216 790.8,-216 796.8,-222 796.8,-228 796.8,-228 796.8,-240 796.8,-240 796.8,-246 790.8,-252 784.8,-252"/>
<text text-anchor="middle" x="769.8" y="-230.3" font-family="Times,serif" font-size="14.00">Add</text>
</g>
<!-- ast.BinOp object at 0x73203d936590&#45;&gt;ast.Add object at 0x732101db7110 -->
<g id="edge41" class="edge">
<title>ast.BinOp object at 0x73203d936590&#45;&gt;ast.Add object at 0x732101db7110</title>
<path fill="none" stroke="black" d="M674.88,-289.46C692.25,-279.5 715.01,-266.44 733.89,-255.61"/>
<polygon fill="black" stroke="black" points="735.87,-258.5 742.8,-250.49 732.38,-252.43 735.87,-258.5"/>
</g>
<!-- ast.Constant object at 0x73203d935410 -->
<g id="node35" class="node">
<title>ast.Constant object at 0x73203d935410</title>
<path fill="#66cdaa" stroke="black" d="M712.3,-252C712.3,-252 671.3,-252 671.3,-252 665.3,-252 659.3,-246 659.3,-240 659.3,-240 659.3,-228 659.3,-228 659.3,-222 665.3,-216 671.3,-216 671.3,-216 712.3,-216 712.3,-216 718.3,-216 724.3,-222 724.3,-228 724.3,-228 724.3,-240 724.3,-240 724.3,-246 718.3,-252 712.3,-252"/>
<text text-anchor="middle" x="691.8" y="-230.3" font-family="Times,serif" font-size="14.00">Constant</text>
</g>
<!-- ast.BinOp object at 0x73203d936590&#45;&gt;ast.Constant object at 0x73203d935410 -->
<g id="edge42" class="edge">
<title>ast.BinOp object at 0x73203d936590&#45;&gt;ast.Constant object at 0x73203d935410</title>
<path fill="none" stroke="black" d="M658.68,-287.7C663.79,-279.56 670,-269.69 675.65,-260.7"/>
<polygon fill="black" stroke="black" points="678.69,-262.43 681.05,-252.1 672.76,-258.71 678.69,-262.43"/>
</g>
<!-- ast.Name object at 0x73203d936f50 -->
<g id="node29" class="node">
<title>ast.Name object at 0x73203d936f50</title>
<path fill="#66cdaa" stroke="black" d="M628.8,-180C628.8,-180 598.8,-180 598.8,-180 592.8,-180 586.8,-174 586.8,-168 586.8,-168 586.8,-156 586.8,-156 586.8,-150 592.8,-144 598.8,-144 598.8,-144 628.8,-144 628.8,-144 634.8,-144 640.8,-150 640.8,-156 640.8,-156 640.8,-168 640.8,-168 640.8,-174 634.8,-180 628.8,-180"/>
<text text-anchor="middle" x="613.8" y="-158.3" font-family="Times,serif" font-size="14.00">Name</text>
</g>
<!-- ast.Call object at 0x73203d936450&#45;&gt;ast.Name object at 0x73203d936f50 -->
<g id="edge34" class="edge">
<title>ast.Call object at 0x73203d936450&#45;&gt;ast.Name object at 0x73203d936f50</title>
<path fill="none" stroke="black" d="M613.8,-215.7C613.8,-207.98 613.8,-198.71 613.8,-190.11"/>
<polygon fill="black" stroke="black" points="617.3,-190.1 613.8,-180.1 610.3,-190.1 617.3,-190.1"/>
</g>
<!-- ast.BinOp object at 0x73203d935a90 -->
<g id="node30" class="node">
<title>ast.BinOp object at 0x73203d935a90</title>
<path fill="#66cdaa" stroke="black" d="M719.8,-180C719.8,-180 689.8,-180 689.8,-180 683.8,-180 677.8,-174 677.8,-168 677.8,-168 677.8,-156 677.8,-156 677.8,-150 683.8,-144 689.8,-144 689.8,-144 719.8,-144 719.8,-144 725.8,-144 731.8,-150 731.8,-156 731.8,-156 731.8,-168 731.8,-168 731.8,-174 725.8,-180 719.8,-180"/>
<text text-anchor="middle" x="704.8" y="-158.3" font-family="Times,serif" font-size="14.00">BinOp</text>
</g>
<!-- ast.Call object at 0x73203d936450&#45;&gt;ast.BinOp object at 0x73203d935a90 -->
<g id="edge36" class="edge">
<title>ast.Call object at 0x73203d936450&#45;&gt;ast.BinOp object at 0x73203d935a90</title>
<path fill="none" stroke="black" d="M636.29,-215.7C647.76,-206.88 661.86,-196.03 674.28,-186.47"/>
<polygon fill="black" stroke="black" points="676.77,-188.98 682.56,-180.1 672.5,-183.43 676.77,-188.98"/>
</g>
<!-- ast.Name object at 0x73203d936f50&#45;&gt;ast.Load object at 0x732101db6c10 -->
<g id="edge35" class="edge">
<title>ast.Name object at 0x73203d936f50&#45;&gt;ast.Load object at 0x732101db6c10</title>
<path fill="none" stroke="black" d="M609.46,-143.87C603.3,-119.56 591.95,-74.82 584.65,-46.01"/>
<polygon fill="black" stroke="black" points="588.01,-45.02 582.16,-36.19 581.22,-46.74 588.01,-45.02"/>
</g>
<!-- ast.Name object at 0x73203d9368d0 -->
<g id="node31" class="node">
<title>ast.Name object at 0x73203d9368d0</title>
<path fill="#66cdaa" stroke="black" d="M666.8,-108C666.8,-108 636.8,-108 636.8,-108 630.8,-108 624.8,-102 624.8,-96 624.8,-96 624.8,-84 624.8,-84 624.8,-78 630.8,-72 636.8,-72 636.8,-72 666.8,-72 666.8,-72 672.8,-72 678.8,-78 678.8,-84 678.8,-84 678.8,-96 678.8,-96 678.8,-102 672.8,-108 666.8,-108"/>
<text text-anchor="middle" x="651.8" y="-86.3" font-family="Times,serif" font-size="14.00">Name</text>
</g>
<!-- ast.BinOp object at 0x73203d935a90&#45;&gt;ast.Name object at 0x73203d9368d0 -->
<g id="edge37" class="edge">
<title>ast.BinOp object at 0x73203d935a90&#45;&gt;ast.Name object at 0x73203d9368d0</title>
<path fill="none" stroke="black" d="M691.7,-143.7C685.41,-135.39 677.75,-125.28 670.84,-116.14"/>
<polygon fill="black" stroke="black" points="673.58,-113.96 664.75,-108.1 668,-118.19 673.58,-113.96"/>
</g>
<!-- ast.Pow object at 0x732101db7410 -->
<g id="node32" class="node">
<title>ast.Pow object at 0x732101db7410</title>
<path fill="#66cdaa" stroke="black" d="M738.8,-108C738.8,-108 708.8,-108 708.8,-108 702.8,-108 696.8,-102 696.8,-96 696.8,-96 696.8,-84 696.8,-84 696.8,-78 702.8,-72 708.8,-72 708.8,-72 738.8,-72 738.8,-72 744.8,-72 750.8,-78 750.8,-84 750.8,-84 750.8,-96 750.8,-96 750.8,-102 744.8,-108 738.8,-108"/>
<text text-anchor="middle" x="723.8" y="-86.3" font-family="Times,serif" font-size="14.00">Pow</text>
</g>
<!-- ast.BinOp object at 0x73203d935a90&#45;&gt;ast.Pow object at 0x732101db7410 -->
<g id="edge39" class="edge">
<title>ast.BinOp object at 0x73203d935a90&#45;&gt;ast.Pow object at 0x732101db7410</title>
<path fill="none" stroke="black" d="M709.5,-143.7C711.61,-135.9 714.16,-126.51 716.52,-117.83"/>
<polygon fill="black" stroke="black" points="719.92,-118.67 719.16,-108.1 713.16,-116.84 719.92,-118.67"/>
</g>
<!-- ast.Constant object at 0x73203d935890 -->
<g id="node33" class="node">
<title>ast.Constant object at 0x73203d935890</title>
<path fill="#66cdaa" stroke="black" d="M822.3,-108C822.3,-108 781.3,-108 781.3,-108 775.3,-108 769.3,-102 769.3,-96 769.3,-96 769.3,-84 769.3,-84 769.3,-78 775.3,-72 781.3,-72 781.3,-72 822.3,-72 822.3,-72 828.3,-72 834.3,-78 834.3,-84 834.3,-84 834.3,-96 834.3,-96 834.3,-102 828.3,-108 822.3,-108"/>
<text text-anchor="middle" x="801.8" y="-86.3" font-family="Times,serif" font-size="14.00">Constant</text>
</g>
<!-- ast.BinOp object at 0x73203d935a90&#45;&gt;ast.Constant object at 0x73203d935890 -->
<g id="edge40" class="edge">
<title>ast.BinOp object at 0x73203d935a90&#45;&gt;ast.Constant object at 0x73203d935890</title>
<path fill="none" stroke="black" d="M728.78,-143.7C741.11,-134.8 756.32,-123.82 769.65,-114.2"/>
<polygon fill="black" stroke="black" points="772.04,-116.79 778.1,-108.1 767.94,-111.12 772.04,-116.79"/>
</g>
<!-- ast.Name object at 0x73203d9368d0&#45;&gt;ast.Load object at 0x732101db6c10 -->
<g id="edge38" class="edge">
<title>ast.Name object at 0x73203d9368d0&#45;&gt;ast.Load object at 0x732101db6c10</title>
<path fill="none" stroke="black" d="M633.51,-71.7C624.37,-63.05 613.16,-52.45 603.2,-43.03"/>
<polygon fill="black" stroke="black" points="605.55,-40.43 595.88,-36.1 600.74,-45.52 605.55,-40.43"/>
</g>
<!-- ast.Compare object at 0x73203d937c90 -->
<g id="node37" class="node">
<title>ast.Compare object at 0x73203d937c90</title>
<path fill="#66cdaa" stroke="black" d="M446.3,-252C446.3,-252 403.3,-252 403.3,-252 397.3,-252 391.3,-246 391.3,-240 391.3,-240 391.3,-228 391.3,-228 391.3,-222 397.3,-216 403.3,-216 403.3,-216 446.3,-216 446.3,-216 452.3,-216 458.3,-222 458.3,-228 458.3,-228 458.3,-240 458.3,-240 458.3,-246 452.3,-252 446.3,-252"/>
<text text-anchor="middle" x="424.8" y="-230.3" font-family="Times,serif" font-size="14.00">Compare</text>
</g>
<!-- ast.If object at 0x73203d936fd0&#45;&gt;ast.Compare object at 0x73203d937c90 -->
<g id="edge44" class="edge">
<title>ast.If object at 0x73203d936fd0&#45;&gt;ast.Compare object at 0x73203d937c90</title>
<path fill="none" stroke="black" d="M484.27,-287.7C474.42,-278.97 462.31,-268.24 451.6,-258.75"/>
<polygon fill="black" stroke="black" points="453.91,-256.12 444.1,-252.1 449.27,-261.36 453.91,-256.12"/>
</g>
<!-- ast.Break object at 0x73203d937990 -->
<g id="node44" class="node">
<title>ast.Break object at 0x73203d937990</title>
<path fill="#66cdaa" stroke="black" d="M518.8,-252C518.8,-252 488.8,-252 488.8,-252 482.8,-252 476.8,-246 476.8,-240 476.8,-240 476.8,-228 476.8,-228 476.8,-222 482.8,-216 488.8,-216 488.8,-216 518.8,-216 518.8,-216 524.8,-216 530.8,-222 530.8,-228 530.8,-228 530.8,-240 530.8,-240 530.8,-246 524.8,-252 518.8,-252"/>
<text text-anchor="middle" x="503.8" y="-230.3" font-family="Times,serif" font-size="14.00">Break</text>
</g>
<!-- ast.If object at 0x73203d936fd0&#45;&gt;ast.Break object at 0x73203d937990 -->
<g id="edge53" class="edge">
<title>ast.If object at 0x73203d936fd0&#45;&gt;ast.Break object at 0x73203d937990</title>
<path fill="none" stroke="black" d="M503.8,-287.7C503.8,-279.98 503.8,-270.71 503.8,-262.11"/>
<polygon fill="black" stroke="black" points="507.3,-262.1 503.8,-252.1 500.3,-262.1 507.3,-262.1"/>
</g>
<!-- ast.BinOp object at 0x73203d935510 -->
<g id="node38" class="node">
<title>ast.BinOp object at 0x73203d935510</title>
<path fill="#66cdaa" stroke="black" d="M518.8,-180C518.8,-180 488.8,-180 488.8,-180 482.8,-180 476.8,-174 476.8,-168 476.8,-168 476.8,-156 476.8,-156 476.8,-150 482.8,-144 488.8,-144 488.8,-144 518.8,-144 518.8,-144 524.8,-144 530.8,-150 530.8,-156 530.8,-156 530.8,-168 530.8,-168 530.8,-174 524.8,-180 518.8,-180"/>
<text text-anchor="middle" x="503.8" y="-158.3" font-family="Times,serif" font-size="14.00">BinOp</text>
</g>
<!-- ast.Compare object at 0x73203d937c90&#45;&gt;ast.BinOp object at 0x73203d935510 -->
<g id="edge45" class="edge">
<title>ast.Compare object at 0x73203d937c90&#45;&gt;ast.BinOp object at 0x73203d935510</title>
<path fill="none" stroke="black" d="M444.33,-215.7C454.18,-206.97 466.29,-196.24 477,-186.75"/>
<polygon fill="black" stroke="black" points="479.33,-189.36 484.5,-180.1 474.69,-184.12 479.33,-189.36"/>
</g>
<!-- ast.Eq object at 0x732101db7c10 -->
<g id="node42" class="node">
<title>ast.Eq object at 0x732101db7c10</title>
<path fill="#66cdaa" stroke="black" d="M362.8,-180C362.8,-180 332.8,-180 332.8,-180 326.8,-180 320.8,-174 320.8,-168 320.8,-168 320.8,-156 320.8,-156 320.8,-150 326.8,-144 332.8,-144 332.8,-144 362.8,-144 362.8,-144 368.8,-144 374.8,-150 374.8,-156 374.8,-156 374.8,-168 374.8,-168 374.8,-174 368.8,-180 362.8,-180"/>
<text text-anchor="middle" x="347.8" y="-158.3" font-family="Times,serif" font-size="14.00">Eq</text>
</g>
<!-- ast.Compare object at 0x73203d937c90&#45;&gt;ast.Eq object at 0x732101db7c10 -->
<g id="edge51" class="edge">
<title>ast.Compare object at 0x73203d937c90&#45;&gt;ast.Eq object at 0x732101db7c10</title>
<path fill="none" stroke="black" d="M405.77,-215.7C396.26,-207.05 384.59,-196.45 374.23,-187.03"/>
<polygon fill="black" stroke="black" points="376.37,-184.24 366.61,-180.1 371.66,-189.42 376.37,-184.24"/>
</g>
<!-- ast.Constant object at 0x73203d936510 -->
<g id="node43" class="node">
<title>ast.Constant object at 0x73203d936510</title>
<path fill="#66cdaa" stroke="black" d="M446.3,-180C446.3,-180 405.3,-180 405.3,-180 399.3,-180 393.3,-174 393.3,-168 393.3,-168 393.3,-156 393.3,-156 393.3,-150 399.3,-144 405.3,-144 405.3,-144 446.3,-144 446.3,-144 452.3,-144 458.3,-150 458.3,-156 458.3,-156 458.3,-168 458.3,-168 458.3,-174 452.3,-180 446.3,-180"/>
<text text-anchor="middle" x="425.8" y="-158.3" font-family="Times,serif" font-size="14.00">Constant</text>
</g>
<!-- ast.Compare object at 0x73203d937c90&#45;&gt;ast.Constant object at 0x73203d936510 -->
<g id="edge52" class="edge">
<title>ast.Compare object at 0x73203d937c90&#45;&gt;ast.Constant object at 0x73203d936510</title>
<path fill="none" stroke="black" d="M425.05,-215.7C425.16,-207.98 425.29,-198.71 425.41,-190.11"/>
<polygon fill="black" stroke="black" points="428.91,-190.15 425.56,-180.1 421.91,-190.05 428.91,-190.15"/>
</g>
<!-- ast.Name object at 0x73203d936e90 -->
<g id="node39" class="node">
<title>ast.Name object at 0x73203d936e90</title>
<path fill="#66cdaa" stroke="black" d="M446.8,-108C446.8,-108 416.8,-108 416.8,-108 410.8,-108 404.8,-102 404.8,-96 404.8,-96 404.8,-84 404.8,-84 404.8,-78 410.8,-72 416.8,-72 416.8,-72 446.8,-72 446.8,-72 452.8,-72 458.8,-78 458.8,-84 458.8,-84 458.8,-96 458.8,-96 458.8,-102 452.8,-108 446.8,-108"/>
<text text-anchor="middle" x="431.8" y="-86.3" font-family="Times,serif" font-size="14.00">Name</text>
</g>
<!-- ast.BinOp object at 0x73203d935510&#45;&gt;ast.Name object at 0x73203d936e90 -->
<g id="edge46" class="edge">
<title>ast.BinOp object at 0x73203d935510&#45;&gt;ast.Name object at 0x73203d936e90</title>
<path fill="none" stroke="black" d="M486,-143.7C477.2,-135.14 466.42,-124.66 456.8,-115.3"/>
<polygon fill="black" stroke="black" points="459,-112.57 449.39,-108.1 454.12,-117.58 459,-112.57"/>
</g>
<!-- ast.Mod object at 0x732101db7390 -->
<g id="node40" class="node">
<title>ast.Mod object at 0x732101db7390</title>
<path fill="#66cdaa" stroke="black" d="M374.8,-108C374.8,-108 344.8,-108 344.8,-108 338.8,-108 332.8,-102 332.8,-96 332.8,-96 332.8,-84 332.8,-84 332.8,-78 338.8,-72 344.8,-72 344.8,-72 374.8,-72 374.8,-72 380.8,-72 386.8,-78 386.8,-84 386.8,-84 386.8,-96 386.8,-96 386.8,-102 380.8,-108 374.8,-108"/>
<text text-anchor="middle" x="359.8" y="-86.3" font-family="Times,serif" font-size="14.00">Mod</text>
</g>
<!-- ast.BinOp object at 0x73203d935510&#45;&gt;ast.Mod object at 0x732101db7390 -->
<g id="edge48" class="edge">
<title>ast.BinOp object at 0x73203d935510&#45;&gt;ast.Mod object at 0x732101db7390</title>
<path fill="none" stroke="black" d="M476.71,-147.83C454.03,-136.81 421.44,-120.97 396.43,-108.81"/>
<polygon fill="black" stroke="black" points="397.78,-105.57 387.25,-104.35 394.72,-111.87 397.78,-105.57"/>
</g>
<!-- ast.Name object at 0x73203d935f50 -->
<g id="node41" class="node">
<title>ast.Name object at 0x73203d935f50</title>
<path fill="#66cdaa" stroke="black" d="M518.8,-108C518.8,-108 488.8,-108 488.8,-108 482.8,-108 476.8,-102 476.8,-96 476.8,-96 476.8,-84 476.8,-84 476.8,-78 482.8,-72 488.8,-72 488.8,-72 518.8,-72 518.8,-72 524.8,-72 530.8,-78 530.8,-84 530.8,-84 530.8,-96 530.8,-96 530.8,-102 524.8,-108 518.8,-108"/>
<text text-anchor="middle" x="503.8" y="-86.3" font-family="Times,serif" font-size="14.00">Name</text>
</g>
<!-- ast.BinOp object at 0x73203d935510&#45;&gt;ast.Name object at 0x73203d935f50 -->
<g id="edge49" class="edge">
<title>ast.BinOp object at 0x73203d935510&#45;&gt;ast.Name object at 0x73203d935f50</title>
<path fill="none" stroke="black" d="M503.8,-143.7C503.8,-135.98 503.8,-126.71 503.8,-118.11"/>
<polygon fill="black" stroke="black" points="507.3,-118.1 503.8,-108.1 500.3,-118.1 507.3,-118.1"/>
</g>
<!-- ast.Name object at 0x73203d936e90&#45;&gt;ast.Load object at 0x732101db6c10 -->
<g id="edge47" class="edge">
<title>ast.Name object at 0x73203d936e90&#45;&gt;ast.Load object at 0x732101db6c10</title>
<path fill="none" stroke="black" d="M458.92,-76C482.13,-64.87 515.74,-48.75 541.31,-36.5"/>
<polygon fill="black" stroke="black" points="542.83,-39.65 550.33,-32.17 539.8,-33.34 542.83,-39.65"/>
</g>
<!-- ast.Name object at 0x73203d935f50&#45;&gt;ast.Load object at 0x732101db6c10 -->
<g id="edge50" class="edge">
<title>ast.Name object at 0x73203d935f50&#45;&gt;ast.Load object at 0x732101db6c10</title>
<path fill="none" stroke="black" d="M522.09,-71.7C531.23,-63.05 542.44,-52.45 552.4,-43.03"/>
<polygon fill="black" stroke="black" points="554.86,-45.52 559.72,-36.1 550.05,-40.43 554.86,-45.52"/>
</g>
<!-- ast.Call object at 0x73203d936690 -->
<g id="node46" class="node">
<title>ast.Call object at 0x73203d936690</title>
<path fill="#66cdaa" stroke="black" d="M867.8,-252C867.8,-252 837.8,-252 837.8,-252 831.8,-252 825.8,-246 825.8,-240 825.8,-240 825.8,-228 825.8,-228 825.8,-222 831.8,-216 837.8,-216 837.8,-216 867.8,-216 867.8,-216 873.8,-216 879.8,-222 879.8,-228 879.8,-228 879.8,-240 879.8,-240 879.8,-246 873.8,-252 867.8,-252"/>
<text text-anchor="middle" x="852.8" y="-230.3" font-family="Times,serif" font-size="14.00">Call</text>
</g>
<!-- ast.Expr object at 0x73203d937490&#45;&gt;ast.Call object at 0x73203d936690 -->
<g id="edge55" class="edge">
<title>ast.Expr object at 0x73203d937490&#45;&gt;ast.Call object at 0x73203d936690</title>
<path fill="none" stroke="black" d="M753.43,-359.87C773.2,-335.03 809.95,-288.85 832.79,-260.14"/>
<polygon fill="black" stroke="black" points="835.63,-262.19 839.12,-252.19 830.16,-257.83 835.63,-262.19"/>
</g>
<!-- ast.Attribute object at 0x732048b72dd0 -->
<g id="node47" class="node">
<title>ast.Attribute object at 0x732048b72dd0</title>
<path fill="#66cdaa" stroke="black" d="M951.3,-180C951.3,-180 910.3,-180 910.3,-180 904.3,-180 898.3,-174 898.3,-168 898.3,-168 898.3,-156 898.3,-156 898.3,-150 904.3,-144 910.3,-144 910.3,-144 951.3,-144 951.3,-144 957.3,-144 963.3,-150 963.3,-156 963.3,-156 963.3,-168 963.3,-168 963.3,-174 957.3,-180 951.3,-180"/>
<text text-anchor="middle" x="930.8" y="-158.3" font-family="Times,serif" font-size="14.00">Attribute</text>
</g>
<!-- ast.Call object at 0x73203d936690&#45;&gt;ast.Attribute object at 0x732048b72dd0 -->
<g id="edge56" class="edge">
<title>ast.Call object at 0x73203d936690&#45;&gt;ast.Attribute object at 0x732048b72dd0</title>
<path fill="none" stroke="black" d="M872.08,-215.7C881.72,-207.05 893.53,-196.45 904.03,-187.03"/>
<polygon fill="black" stroke="black" points="906.64,-189.39 911.74,-180.1 901.96,-184.18 906.64,-189.39"/>
</g>
<!-- ast.Name object at 0x732048b73bd0 -->
<g id="node49" class="node">
<title>ast.Name object at 0x732048b73bd0</title>
<path fill="#66cdaa" stroke="black" d="M867.8,-180C867.8,-180 837.8,-180 837.8,-180 831.8,-180 825.8,-174 825.8,-168 825.8,-168 825.8,-156 825.8,-156 825.8,-150 831.8,-144 837.8,-144 837.8,-144 867.8,-144 867.8,-144 873.8,-144 879.8,-150 879.8,-156 879.8,-156 879.8,-168 879.8,-168 879.8,-174 873.8,-180 867.8,-180"/>
<text text-anchor="middle" x="852.8" y="-158.3" font-family="Times,serif" font-size="14.00">Name</text>
</g>
<!-- ast.Call object at 0x73203d936690&#45;&gt;ast.Name object at 0x732048b73bd0 -->
<g id="edge60" class="edge">
<title>ast.Call object at 0x73203d936690&#45;&gt;ast.Name object at 0x732048b73bd0</title>
<path fill="none" stroke="black" d="M852.8,-215.7C852.8,-207.98 852.8,-198.71 852.8,-190.11"/>
<polygon fill="black" stroke="black" points="856.3,-190.1 852.8,-180.1 849.3,-190.1 856.3,-190.1"/>
</g>
<!-- ast.Attribute object at 0x732048b72dd0&#45;&gt;ast.Load object at 0x732101db6c10 -->
<g id="edge59" class="edge">
<title>ast.Attribute object at 0x732048b72dd0&#45;&gt;ast.Load object at 0x732101db6c10</title>
<path fill="none" stroke="black" d="M943.32,-143.85C955.98,-124.24 971.39,-92.24 953.8,-72 910.11,-21.72 701.12,-17.8 615.01,-18.37"/>
<polygon fill="black" stroke="black" points="614.87,-14.87 604.9,-18.46 614.93,-21.87 614.87,-14.87"/>
</g>
<!-- ast.Name object at 0x732048b73350 -->
<g id="node48" class="node">
<title>ast.Name object at 0x732048b73350</title>
<path fill="#66cdaa" stroke="black" d="M932.8,-108C932.8,-108 902.8,-108 902.8,-108 896.8,-108 890.8,-102 890.8,-96 890.8,-96 890.8,-84 890.8,-84 890.8,-78 896.8,-72 902.8,-72 902.8,-72 932.8,-72 932.8,-72 938.8,-72 944.8,-78 944.8,-84 944.8,-84 944.8,-96 944.8,-96 944.8,-102 938.8,-108 932.8,-108"/>
<text text-anchor="middle" x="917.8" y="-86.3" font-family="Times,serif" font-size="14.00">Name</text>
</g>
<!-- ast.Attribute object at 0x732048b72dd0&#45;&gt;ast.Name object at 0x732048b73350 -->
<g id="edge57" class="edge">
<title>ast.Attribute object at 0x732048b72dd0&#45;&gt;ast.Name object at 0x732048b73350</title>
<path fill="none" stroke="black" d="M927.59,-143.7C926.15,-135.98 924.43,-126.71 922.84,-118.11"/>
<polygon fill="black" stroke="black" points="926.24,-117.3 920.98,-108.1 919.36,-118.58 926.24,-117.3"/>
</g>
<!-- ast.Name object at 0x732048b73350&#45;&gt;ast.Load object at 0x732101db6c10 -->
<g id="edge58" class="edge">
<title>ast.Name object at 0x732048b73350&#45;&gt;ast.Load object at 0x732101db6c10</title>
<path fill="none" stroke="black" d="M890.75,-76.82C886.16,-75.03 881.39,-73.34 876.8,-72 784.62,-45.07 672.23,-29.63 615.07,-22.96"/>
<polygon fill="black" stroke="black" points="615.39,-19.48 605.05,-21.82 614.59,-26.43 615.39,-19.48"/>
</g>
<!-- ast.Name object at 0x732048b73bd0&#45;&gt;ast.Load object at 0x732101db6c10 -->
<g id="edge61" class="edge">
<title>ast.Name object at 0x732048b73bd0&#45;&gt;ast.Load object at 0x732101db6c10</title>
<path fill="none" stroke="black" d="M856.28,-143.86C859.24,-123.94 860.57,-91.36 842.8,-72 812.6,-39.1 680.73,-25.82 615.13,-21.18"/>
<polygon fill="black" stroke="black" points="615.04,-17.66 604.82,-20.48 614.57,-24.64 615.04,-17.66"/>
</g>
<!-- ast.IfExp object at 0x73203e277ad0 -->
<g id="node51" class="node">
<title>ast.IfExp object at 0x73203e277ad0</title>
<path fill="#66cdaa" stroke="black" d="M254.8,-252C254.8,-252 224.8,-252 224.8,-252 218.8,-252 212.8,-246 212.8,-240 212.8,-240 212.8,-228 212.8,-228 212.8,-222 218.8,-216 224.8,-216 224.8,-216 254.8,-216 254.8,-216 260.8,-216 266.8,-222 266.8,-228 266.8,-228 266.8,-240 266.8,-240 266.8,-246 260.8,-252 254.8,-252"/>
<text text-anchor="middle" x="239.8" y="-230.3" font-family="Times,serif" font-size="14.00">IfExp</text>
</g>
<!-- ast.Return object at 0x732048b703d0&#45;&gt;ast.IfExp object at 0x73203e277ad0 -->
<g id="edge63" class="edge">
<title>ast.Return object at 0x732048b703d0&#45;&gt;ast.IfExp object at 0x73203e277ad0</title>
<path fill="none" stroke="black" d="M326.8,-575.95C326.8,-549.29 326.8,-496.11 326.8,-451 326.8,-451 326.8,-451 326.8,-377 326.8,-330.16 291.96,-285.74 266.37,-259.43"/>
<polygon fill="black" stroke="black" points="268.66,-256.77 259.11,-252.18 263.72,-261.72 268.66,-256.77"/>
</g>
<!-- ast.Name object at 0x73203e277610 -->
<g id="node52" class="node">
<title>ast.Name object at 0x73203e277610</title>
<path fill="#66cdaa" stroke="black" d="M290.8,-180C290.8,-180 260.8,-180 260.8,-180 254.8,-180 248.8,-174 248.8,-168 248.8,-168 248.8,-156 248.8,-156 248.8,-150 254.8,-144 260.8,-144 260.8,-144 290.8,-144 290.8,-144 296.8,-144 302.8,-150 302.8,-156 302.8,-156 302.8,-168 302.8,-168 302.8,-174 296.8,-180 290.8,-180"/>
<text text-anchor="middle" x="275.8" y="-158.3" font-family="Times,serif" font-size="14.00">Name</text>
</g>
<!-- ast.IfExp object at 0x73203e277ad0&#45;&gt;ast.Name object at 0x73203e277610 -->
<g id="edge64" class="edge">
<title>ast.IfExp object at 0x73203e277ad0&#45;&gt;ast.Name object at 0x73203e277610</title>
<path fill="none" stroke="black" d="M248.7,-215.7C252.8,-207.73 257.75,-198.1 262.29,-189.26"/>
<polygon fill="black" stroke="black" points="265.54,-190.6 267,-180.1 259.32,-187.4 265.54,-190.6"/>
</g>
<!-- ast.Call object at 0x73203f27c250 -->
<g id="node53" class="node">
<title>ast.Call object at 0x73203f27c250</title>
<path fill="#66cdaa" stroke="black" d="M146.8,-180C146.8,-180 116.8,-180 116.8,-180 110.8,-180 104.8,-174 104.8,-168 104.8,-168 104.8,-156 104.8,-156 104.8,-150 110.8,-144 116.8,-144 116.8,-144 146.8,-144 146.8,-144 152.8,-144 158.8,-150 158.8,-156 158.8,-156 158.8,-168 158.8,-168 158.8,-174 152.8,-180 146.8,-180"/>
<text text-anchor="middle" x="131.8" y="-158.3" font-family="Times,serif" font-size="14.00">Call</text>
</g>
<!-- ast.IfExp object at 0x73203e277ad0&#45;&gt;ast.Call object at 0x73203f27c250 -->
<g id="edge66" class="edge">
<title>ast.IfExp object at 0x73203e277ad0&#45;&gt;ast.Call object at 0x73203f27c250</title>
<path fill="none" stroke="black" d="M213.38,-215.88C199.39,-206.81 182.02,-195.55 166.91,-185.76"/>
<polygon fill="black" stroke="black" points="168.62,-182.69 158.32,-180.19 164.81,-188.57 168.62,-182.69"/>
</g>
<!-- ast.List object at 0x7320fbb69550 -->
<g id="node58" class="node">
<title>ast.List object at 0x7320fbb69550</title>
<path fill="#66cdaa" stroke="black" d="M218.8,-180C218.8,-180 188.8,-180 188.8,-180 182.8,-180 176.8,-174 176.8,-168 176.8,-168 176.8,-156 176.8,-156 176.8,-150 182.8,-144 188.8,-144 188.8,-144 218.8,-144 218.8,-144 224.8,-144 230.8,-150 230.8,-156 230.8,-156 230.8,-168 230.8,-168 230.8,-174 224.8,-180 218.8,-180"/>
<text text-anchor="middle" x="203.8" y="-158.3" font-family="Times,serif" font-size="14.00">List</text>
</g>
<!-- ast.IfExp object at 0x73203e277ad0&#45;&gt;ast.List object at 0x7320fbb69550 -->
<g id="edge73" class="edge">
<title>ast.IfExp object at 0x73203e277ad0&#45;&gt;ast.List object at 0x7320fbb69550</title>
<path fill="none" stroke="black" d="M230.9,-215.7C226.8,-207.73 221.85,-198.1 217.31,-189.26"/>
<polygon fill="black" stroke="black" points="220.28,-187.4 212.6,-180.1 214.06,-190.6 220.28,-187.4"/>
</g>
<!-- ast.Name object at 0x73203e277610&#45;&gt;ast.Load object at 0x732101db6c10 -->
<g id="edge65" class="edge">
<title>ast.Name object at 0x73203e277610&#45;&gt;ast.Load object at 0x732101db6c10</title>
<path fill="none" stroke="black" d="M280.31,-143.66C286.56,-123.24 299.88,-89.85 323.8,-72 357.68,-46.73 478.36,-30.03 540.39,-22.91"/>
<polygon fill="black" stroke="black" points="540.99,-26.37 550.54,-21.77 540.21,-19.41 540.99,-26.37"/>
</g>
<!-- ast.Name object at 0x73204aba4f10 -->
<g id="node54" class="node">
<title>ast.Name object at 0x73204aba4f10</title>
<path fill="#66cdaa" stroke="black" d="M226.8,-108C226.8,-108 196.8,-108 196.8,-108 190.8,-108 184.8,-102 184.8,-96 184.8,-96 184.8,-84 184.8,-84 184.8,-78 190.8,-72 196.8,-72 196.8,-72 226.8,-72 226.8,-72 232.8,-72 238.8,-78 238.8,-84 238.8,-84 238.8,-96 238.8,-96 238.8,-102 232.8,-108 226.8,-108"/>
<text text-anchor="middle" x="211.8" y="-86.3" font-family="Times,serif" font-size="14.00">Name</text>
</g>
<!-- ast.Call object at 0x73203f27c250&#45;&gt;ast.Name object at 0x73204aba4f10 -->
<g id="edge67" class="edge">
<title>ast.Call object at 0x73203f27c250&#45;&gt;ast.Name object at 0x73204aba4f10</title>
<path fill="none" stroke="black" d="M151.58,-143.7C161.55,-134.97 173.81,-124.24 184.66,-114.75"/>
<polygon fill="black" stroke="black" points="187.03,-117.32 192.25,-108.1 182.42,-112.06 187.03,-117.32"/>
</g>
<!-- ast.Name object at 0x73203e310f10 -->
<g id="node55" class="node">
<title>ast.Name object at 0x73203e310f10</title>
<path fill="#66cdaa" stroke="black" d="M154.8,-108C154.8,-108 124.8,-108 124.8,-108 118.8,-108 112.8,-102 112.8,-96 112.8,-96 112.8,-84 112.8,-84 112.8,-78 118.8,-72 124.8,-72 124.8,-72 154.8,-72 154.8,-72 160.8,-72 166.8,-78 166.8,-84 166.8,-84 166.8,-96 166.8,-96 166.8,-102 160.8,-108 154.8,-108"/>
<text text-anchor="middle" x="139.8" y="-86.3" font-family="Times,serif" font-size="14.00">Name</text>
</g>
<!-- ast.Call object at 0x73203f27c250&#45;&gt;ast.Name object at 0x73203e310f10 -->
<g id="edge69" class="edge">
<title>ast.Call object at 0x73203f27c250&#45;&gt;ast.Name object at 0x73203e310f10</title>
<path fill="none" stroke="black" d="M133.78,-143.7C134.66,-135.98 135.72,-126.71 136.7,-118.11"/>
<polygon fill="black" stroke="black" points="140.19,-118.44 137.85,-108.1 133.23,-117.64 140.19,-118.44"/>
</g>
<!-- ast.keyword object at 0x73203e310410 -->
<g id="node56" class="node">
<title>ast.keyword object at 0x73203e310410</title>
<path fill="#66cdaa" stroke="black" d="M82.8,-108C82.8,-108 42.8,-108 42.8,-108 36.8,-108 30.8,-102 30.8,-96 30.8,-96 30.8,-84 30.8,-84 30.8,-78 36.8,-72 42.8,-72 42.8,-72 82.8,-72 82.8,-72 88.8,-72 94.8,-78 94.8,-84 94.8,-84 94.8,-96 94.8,-96 94.8,-102 88.8,-108 82.8,-108"/>
<text text-anchor="middle" x="62.8" y="-86.3" font-family="Times,serif" font-size="14.00">keyword</text>
</g>
<!-- ast.Call object at 0x73203f27c250&#45;&gt;ast.keyword object at 0x73203e310410 -->
<g id="edge71" class="edge">
<title>ast.Call object at 0x73203f27c250&#45;&gt;ast.keyword object at 0x73203e310410</title>
<path fill="none" stroke="black" d="M114.74,-143.7C106.3,-135.14 95.98,-124.66 86.76,-115.3"/>
<polygon fill="black" stroke="black" points="89.17,-112.77 79.66,-108.1 84.19,-117.68 89.17,-112.77"/>
</g>
<!-- ast.Name object at 0x73204aba4f10&#45;&gt;ast.Load object at 0x732101db6c10 -->
<g id="edge68" class="edge">
<title>ast.Name object at 0x73204aba4f10&#45;&gt;ast.Load object at 0x732101db6c10</title>
<path fill="none" stroke="black" d="M238.83,-76.76C243.43,-74.98 248.21,-73.31 252.8,-72 354.46,-43.06 478.81,-28.27 540.04,-22.3"/>
<polygon fill="black" stroke="black" points="540.75,-25.75 550.37,-21.31 540.08,-18.78 540.75,-25.75"/>
</g>
<!-- ast.Name object at 0x73203e310f10&#45;&gt;ast.Load object at 0x732101db6c10 -->
<g id="edge70" class="edge">
<title>ast.Name object at 0x73203e310f10&#45;&gt;ast.Load object at 0x732101db6c10</title>
<path fill="none" stroke="black" d="M166.97,-75.1C169.9,-73.92 172.88,-72.86 175.8,-72 305.88,-33.73 467.79,-23.05 539.99,-20.1"/>
<polygon fill="black" stroke="black" points="540.53,-23.58 550.39,-19.71 540.26,-16.59 540.53,-23.58"/>
</g>
<!-- ast.Constant object at 0x73203ed10dd0 -->
<g id="node57" class="node">
<title>ast.Constant object at 0x73203ed10dd0</title>
<path fill="#66cdaa" stroke="black" d="M83.3,-36C83.3,-36 42.3,-36 42.3,-36 36.3,-36 30.3,-30 30.3,-24 30.3,-24 30.3,-12 30.3,-12 30.3,-6 36.3,0 42.3,0 42.3,0 83.3,0 83.3,0 89.3,0 95.3,-6 95.3,-12 95.3,-12 95.3,-24 95.3,-24 95.3,-30 89.3,-36 83.3,-36"/>
<text text-anchor="middle" x="62.8" y="-14.3" font-family="Times,serif" font-size="14.00">Constant</text>
</g>
<!-- ast.keyword object at 0x73203e310410&#45;&gt;ast.Constant object at 0x73203ed10dd0 -->
<g id="edge72" class="edge">
<title>ast.keyword object at 0x73203e310410&#45;&gt;ast.Constant object at 0x73203ed10dd0</title>
<path fill="none" stroke="black" d="M62.8,-71.7C62.8,-63.98 62.8,-54.71 62.8,-46.11"/>
<polygon fill="black" stroke="black" points="66.3,-46.1 62.8,-36.1 59.3,-46.1 66.3,-46.1"/>
</g>
<!-- ast.List object at 0x7320fbb69550&#45;&gt;ast.Load object at 0x732101db6c10 -->
<g id="edge74" class="edge">
<title>ast.List object at 0x7320fbb69550&#45;&gt;ast.Load object at 0x732101db6c10</title>
<path fill="none" stroke="black" d="M218.57,-143.77C238.84,-120.54 274.71,-81.05 291.8,-72 372.92,-29.03 483.04,-20.36 540.08,-18.95"/>
<polygon fill="black" stroke="black" points="540.49,-22.44 550.42,-18.76 540.36,-15.44 540.49,-22.44"/>
</g>
</g>
</svg>
