<?xml version="1.0" encoding="UTF-8" standalone="no"?>
<!DOCTYPE svg PUBLIC "-//W3C//DTD SVG 1.1//EN"
 "http://www.w3.org/Graphics/SVG/1.1/DTD/svg11.dtd">
<!-- Generated by graphviz version 2.50.0 (0)
 -->
<!-- Pages: 1 -->
<svg width="1398pt" height="764pt"
 viewBox="0.00 0.00 1397.66 764.00" xmlns="http://www.w3.org/2000/svg" xmlns:xlink="http://www.w3.org/1999/xlink">
<g id="graph0" class="graph" transform="scale(1 1) rotate(0) translate(4 760)">
<polygon fill="white" stroke="transparent" points="-4,4 -4,-760 1393.66,-760 1393.66,4 -4,4"/>
<!-- ast.Module object at 0x732eead29cd0 -->
<g id="node1" class="node">
<title>ast.Module object at 0x732eead29cd0</title>
<path fill="#66cdaa" stroke="black" d="M657.16,-756C657.16,-756 622.16,-756 622.16,-756 616.16,-756 610.16,-750 610.16,-744 610.16,-744 610.16,-732 610.16,-732 610.16,-726 616.16,-720 622.16,-720 622.16,-720 657.16,-720 657.16,-720 663.16,-720 669.16,-726 669.16,-732 669.16,-732 669.16,-744 669.16,-744 669.16,-750 663.16,-756 657.16,-756"/>
<text text-anchor="middle" x="639.66" y="-734.3" font-family="Times,serif" font-size="14.00">Module</text>
</g>
<!-- ast.ImportFrom object at 0x732eead99950 -->
<g id="node2" class="node">
<title>ast.ImportFrom object at 0x732eead99950</title>
<path fill="#66cdaa" stroke="black" d="M618.66,-684C618.66,-684 558.66,-684 558.66,-684 552.66,-684 546.66,-678 546.66,-672 546.66,-672 546.66,-660 546.66,-660 546.66,-654 552.66,-648 558.66,-648 558.66,-648 618.66,-648 618.66,-648 624.66,-648 630.66,-654 630.66,-660 630.66,-660 630.66,-672 630.66,-672 630.66,-678 624.66,-684 618.66,-684"/>
<text text-anchor="middle" x="588.66" y="-662.3" font-family="Times,serif" font-size="14.00">ImportFrom</text>
</g>
<!-- ast.Module object at 0x732eead29cd0&#45;&gt;ast.ImportFrom object at 0x732eead99950 -->
<g id="edge1" class="edge">
<title>ast.Module object at 0x732eead29cd0&#45;&gt;ast.ImportFrom object at 0x732eead99950</title>
<path fill="none" stroke="black" d="M627.06,-719.7C621.07,-711.47 613.79,-701.48 607.18,-692.42"/>
<polygon fill="black" stroke="black" points="609.84,-690.13 601.12,-684.1 604.18,-694.25 609.84,-690.13"/>
</g>
<!-- ast.FunctionDef object at 0x732eead98a10 -->
<g id="node4" class="node">
<title>ast.FunctionDef object at 0x732eead98a10</title>
<path fill="#66cdaa" stroke="black" d="M744.16,-684C744.16,-684 683.16,-684 683.16,-684 677.16,-684 671.16,-678 671.16,-672 671.16,-672 671.16,-660 671.16,-660 671.16,-654 677.16,-648 683.16,-648 683.16,-648 744.16,-648 744.16,-648 750.16,-648 756.16,-654 756.16,-660 756.16,-660 756.16,-672 756.16,-672 756.16,-678 750.16,-684 744.16,-684"/>
<text text-anchor="middle" x="713.66" y="-662.3" font-family="Times,serif" font-size="14.00">FunctionDef</text>
</g>
<!-- ast.Module object at 0x732eead29cd0&#45;&gt;ast.FunctionDef object at 0x732eead98a10 -->
<g id="edge3" class="edge">
<title>ast.Module object at 0x732eead29cd0&#45;&gt;ast.FunctionDef object at 0x732eead98a10</title>
<path fill="none" stroke="black" d="M657.96,-719.7C667.1,-711.05 678.3,-700.45 688.26,-691.03"/>
<polygon fill="black" stroke="black" points="690.72,-693.52 695.58,-684.1 685.91,-688.43 690.72,-693.52"/>
</g>
<!-- ast.alias object at 0x732eead98e10 -->
<g id="node3" class="node">
<title>ast.alias object at 0x732eead98e10</title>
<path fill="#66cdaa" stroke="black" d="M541.66,-612C541.66,-612 511.66,-612 511.66,-612 505.66,-612 499.66,-606 499.66,-600 499.66,-600 499.66,-588 499.66,-588 499.66,-582 505.66,-576 511.66,-576 511.66,-576 541.66,-576 541.66,-576 547.66,-576 553.66,-582 553.66,-588 553.66,-588 553.66,-600 553.66,-600 553.66,-606 547.66,-612 541.66,-612"/>
<text text-anchor="middle" x="526.66" y="-590.3" font-family="Times,serif" font-size="14.00">alias</text>
</g>
<!-- ast.ImportFrom object at 0x732eead99950&#45;&gt;ast.alias object at 0x732eead98e10 -->
<g id="edge2" class="edge">
<title>ast.ImportFrom object at 0x732eead99950&#45;&gt;ast.alias object at 0x732eead98e10</title>
<path fill="none" stroke="black" d="M573.34,-647.7C565.9,-639.3 556.84,-629.07 548.68,-619.86"/>
<polygon fill="black" stroke="black" points="551.06,-617.27 541.81,-612.1 545.82,-621.91 551.06,-617.27"/>
</g>
<!-- ast.arguments object at 0x732eead99e50 -->
<g id="node5" class="node">
<title>ast.arguments object at 0x732eead99e50</title>
<path fill="#66cdaa" stroke="black" d="M1248.66,-612C1248.66,-612 1198.66,-612 1198.66,-612 1192.66,-612 1186.66,-606 1186.66,-600 1186.66,-600 1186.66,-588 1186.66,-588 1186.66,-582 1192.66,-576 1198.66,-576 1198.66,-576 1248.66,-576 1248.66,-576 1254.66,-576 1260.66,-582 1260.66,-588 1260.66,-588 1260.66,-600 1260.66,-600 1260.66,-606 1254.66,-612 1248.66,-612"/>
<text text-anchor="middle" x="1223.66" y="-590.3" font-family="Times,serif" font-size="14.00">arguments</text>
</g>
<!-- ast.FunctionDef object at 0x732eead98a10&#45;&gt;ast.arguments object at 0x732eead99e50 -->
<g id="edge4" class="edge">
<title>ast.FunctionDef object at 0x732eead98a10&#45;&gt;ast.arguments object at 0x732eead99e50</title>
<path fill="none" stroke="black" d="M756.21,-659.94C830.34,-651.03 987.96,-631.59 1120.66,-612 1138.95,-609.3 1159.01,-606.05 1176.53,-603.13"/>
<polygon fill="black" stroke="black" points="1177.24,-606.56 1186.52,-601.44 1176.08,-599.65 1177.24,-606.56"/>
</g>
<!-- ast.Assign object at 0x732eeadd1cd0 -->
<g id="node7" class="node">
<title>ast.Assign object at 0x732eeadd1cd0</title>
<path fill="#66cdaa" stroke="black" d="M612.66,-468C612.66,-468 582.66,-468 582.66,-468 576.66,-468 570.66,-462 570.66,-456 570.66,-456 570.66,-444 570.66,-444 570.66,-438 576.66,-432 582.66,-432 582.66,-432 612.66,-432 612.66,-432 618.66,-432 624.66,-438 624.66,-444 624.66,-444 624.66,-456 624.66,-456 624.66,-462 618.66,-468 612.66,-468"/>
<text text-anchor="middle" x="597.66" y="-446.3" font-family="Times,serif" font-size="14.00">Assign</text>
</g>
<!-- ast.FunctionDef object at 0x732eead98a10&#45;&gt;ast.Assign object at 0x732eeadd1cd0 -->
<g id="edge6" class="edge">
<title>ast.FunctionDef object at 0x732eead98a10&#45;&gt;ast.Assign object at 0x732eeadd1cd0</title>
<path fill="none" stroke="black" d="M701.21,-647.62C694.06,-637.41 685.06,-624.16 677.66,-612 650.03,-566.57 623.74,-510.3 609.25,-477.74"/>
<polygon fill="black" stroke="black" points="612.38,-476.17 605.14,-468.43 605.98,-478.99 612.38,-476.17"/>
</g>
<!-- ast.For object at 0x732eead99e90 -->
<g id="node14" class="node">
<title>ast.For object at 0x732eead99e90</title>
<path fill="#66cdaa" stroke="black" d="M445.66,-540C445.66,-540 415.66,-540 415.66,-540 409.66,-540 403.66,-534 403.66,-528 403.66,-528 403.66,-516 403.66,-516 403.66,-510 409.66,-504 415.66,-504 415.66,-504 445.66,-504 445.66,-504 451.66,-504 457.66,-510 457.66,-516 457.66,-516 457.66,-528 457.66,-528 457.66,-534 451.66,-540 445.66,-540"/>
<text text-anchor="middle" x="430.66" y="-518.3" font-family="Times,serif" font-size="14.00">For</text>
</g>
<!-- ast.FunctionDef object at 0x732eead98a10&#45;&gt;ast.For object at 0x732eead99e90 -->
<g id="edge14" class="edge">
<title>ast.FunctionDef object at 0x732eead98a10&#45;&gt;ast.For object at 0x732eead99e90</title>
<path fill="none" stroke="black" d="M673.17,-647.94C652.34,-638.48 626.94,-625.84 605.66,-612 584.77,-598.41 584.05,-588.8 562.66,-576 532.38,-557.87 494.76,-543.46 467.44,-534.27"/>
<polygon fill="black" stroke="black" points="468.46,-530.92 457.87,-531.12 466.27,-537.57 468.46,-530.92"/>
</g>
<!-- ast.Assign object at 0x732eead99150 -->
<g id="node34" class="node">
<title>ast.Assign object at 0x732eead99150</title>
<path fill="#66cdaa" stroke="black" d="M728.66,-612C728.66,-612 698.66,-612 698.66,-612 692.66,-612 686.66,-606 686.66,-600 686.66,-600 686.66,-588 686.66,-588 686.66,-582 692.66,-576 698.66,-576 698.66,-576 728.66,-576 728.66,-576 734.66,-576 740.66,-582 740.66,-588 740.66,-588 740.66,-600 740.66,-600 740.66,-606 734.66,-612 728.66,-612"/>
<text text-anchor="middle" x="713.66" y="-590.3" font-family="Times,serif" font-size="14.00">Assign</text>
</g>
<!-- ast.FunctionDef object at 0x732eead98a10&#45;&gt;ast.Assign object at 0x732eead99150 -->
<g id="edge46" class="edge">
<title>ast.FunctionDef object at 0x732eead98a10&#45;&gt;ast.Assign object at 0x732eead99150</title>
<path fill="none" stroke="black" d="M713.66,-647.7C713.66,-639.98 713.66,-630.71 713.66,-622.11"/>
<polygon fill="black" stroke="black" points="717.16,-622.1 713.66,-612.1 710.16,-622.1 717.16,-622.1"/>
</g>
<!-- ast.For object at 0x732eead99c10 -->
<g id="node37" class="node">
<title>ast.For object at 0x732eead99c10</title>
<path fill="#66cdaa" stroke="black" d="M913.66,-612C913.66,-612 883.66,-612 883.66,-612 877.66,-612 871.66,-606 871.66,-600 871.66,-600 871.66,-588 871.66,-588 871.66,-582 877.66,-576 883.66,-576 883.66,-576 913.66,-576 913.66,-576 919.66,-576 925.66,-582 925.66,-588 925.66,-588 925.66,-600 925.66,-600 925.66,-606 919.66,-612 913.66,-612"/>
<text text-anchor="middle" x="898.66" y="-590.3" font-family="Times,serif" font-size="14.00">For</text>
</g>
<!-- ast.FunctionDef object at 0x732eead98a10&#45;&gt;ast.For object at 0x732eead99c10 -->
<g id="edge50" class="edge">
<title>ast.FunctionDef object at 0x732eead98a10&#45;&gt;ast.For object at 0x732eead99c10</title>
<path fill="none" stroke="black" d="M756.57,-648.76C788.55,-636.67 831.75,-620.32 862.1,-608.84"/>
<polygon fill="black" stroke="black" points="863.35,-612.1 871.47,-605.29 860.87,-605.56 863.35,-612.1"/>
</g>
<!-- ast.Return object at 0x732eead98e90 -->
<g id="node76" class="node">
<title>ast.Return object at 0x732eead98e90</title>
<path fill="#66cdaa" stroke="black" d="M1099.66,-612C1099.66,-612 1069.66,-612 1069.66,-612 1063.66,-612 1057.66,-606 1057.66,-600 1057.66,-600 1057.66,-588 1057.66,-588 1057.66,-582 1063.66,-576 1069.66,-576 1069.66,-576 1099.66,-576 1099.66,-576 1105.66,-576 1111.66,-582 1111.66,-588 1111.66,-588 1111.66,-600 1111.66,-600 1111.66,-606 1105.66,-612 1099.66,-612"/>
<text text-anchor="middle" x="1084.66" y="-590.3" font-family="Times,serif" font-size="14.00">Return</text>
</g>
<!-- ast.FunctionDef object at 0x732eead98a10&#45;&gt;ast.Return object at 0x732eead98e90 -->
<g id="edge103" class="edge">
<title>ast.FunctionDef object at 0x732eead98a10&#45;&gt;ast.Return object at 0x732eead98e90</title>
<path fill="none" stroke="black" d="M756.22,-656.97C829.36,-643.17 977.72,-615.18 1047.2,-602.07"/>
<polygon fill="black" stroke="black" points="1048.07,-605.47 1057.25,-600.17 1046.78,-598.59 1048.07,-605.47"/>
</g>
<!-- ast.arg object at 0x732eead99a10 -->
<g id="node6" class="node">
<title>ast.arg object at 0x732eead99a10</title>
<path fill="#66cdaa" stroke="black" d="M1294.66,-540C1294.66,-540 1264.66,-540 1264.66,-540 1258.66,-540 1252.66,-534 1252.66,-528 1252.66,-528 1252.66,-516 1252.66,-516 1252.66,-510 1258.66,-504 1264.66,-504 1264.66,-504 1294.66,-504 1294.66,-504 1300.66,-504 1306.66,-510 1306.66,-516 1306.66,-516 1306.66,-528 1306.66,-528 1306.66,-534 1300.66,-540 1294.66,-540"/>
<text text-anchor="middle" x="1279.66" y="-518.3" font-family="Times,serif" font-size="14.00">arg</text>
</g>
<!-- ast.arguments object at 0x732eead99e50&#45;&gt;ast.arg object at 0x732eead99a10 -->
<g id="edge5" class="edge">
<title>ast.arguments object at 0x732eead99e50&#45;&gt;ast.arg object at 0x732eead99a10</title>
<path fill="none" stroke="black" d="M1237.51,-575.7C1244.15,-567.39 1252.24,-557.28 1259.55,-548.14"/>
<polygon fill="black" stroke="black" points="1262.47,-550.1 1265.98,-540.1 1257,-545.73 1262.47,-550.1"/>
</g>
<!-- ast.Name object at 0x732eead983d0 -->
<g id="node8" class="node">
<title>ast.Name object at 0x732eead983d0</title>
<path fill="#66cdaa" stroke="black" d="M612.66,-396C612.66,-396 582.66,-396 582.66,-396 576.66,-396 570.66,-390 570.66,-384 570.66,-384 570.66,-372 570.66,-372 570.66,-366 576.66,-360 582.66,-360 582.66,-360 612.66,-360 612.66,-360 618.66,-360 624.66,-366 624.66,-372 624.66,-372 624.66,-384 624.66,-384 624.66,-390 618.66,-396 612.66,-396"/>
<text text-anchor="middle" x="597.66" y="-374.3" font-family="Times,serif" font-size="14.00">Name</text>
</g>
<!-- ast.Assign object at 0x732eeadd1cd0&#45;&gt;ast.Name object at 0x732eead983d0 -->
<g id="edge7" class="edge">
<title>ast.Assign object at 0x732eeadd1cd0&#45;&gt;ast.Name object at 0x732eead983d0</title>
<path fill="none" stroke="black" d="M597.66,-431.7C597.66,-423.98 597.66,-414.71 597.66,-406.11"/>
<polygon fill="black" stroke="black" points="601.16,-406.1 597.66,-396.1 594.16,-406.1 601.16,-406.1"/>
</g>
<!-- ast.Call object at 0x732eeadd3ed0 -->
<g id="node10" class="node">
<title>ast.Call object at 0x732eeadd3ed0</title>
<path fill="#66cdaa" stroke="black" d="M493.66,-180C493.66,-180 463.66,-180 463.66,-180 457.66,-180 451.66,-174 451.66,-168 451.66,-168 451.66,-156 451.66,-156 451.66,-150 457.66,-144 463.66,-144 463.66,-144 493.66,-144 493.66,-144 499.66,-144 505.66,-150 505.66,-156 505.66,-156 505.66,-168 505.66,-168 505.66,-174 499.66,-180 493.66,-180"/>
<text text-anchor="middle" x="478.66" y="-158.3" font-family="Times,serif" font-size="14.00">Call</text>
</g>
<!-- ast.Assign object at 0x732eeadd1cd0&#45;&gt;ast.Call object at 0x732eeadd3ed0 -->
<g id="edge9" class="edge">
<title>ast.Assign object at 0x732eeadd1cd0&#45;&gt;ast.Call object at 0x732eeadd3ed0</title>
<path fill="none" stroke="black" d="M584.15,-431.55C576.82,-421.53 568,-408.5 561.66,-396 525.61,-324.92 498.2,-234.42 485.86,-190.03"/>
<polygon fill="black" stroke="black" points="489.2,-189 483.18,-180.28 482.45,-190.85 489.2,-189"/>
</g>
<!-- ast.Store object at 0x732eecfbda50 -->
<g id="node9" class="node">
<title>ast.Store object at 0x732eecfbda50</title>
<path fill="#66cdaa" stroke="black" d="M679.66,-324C679.66,-324 649.66,-324 649.66,-324 643.66,-324 637.66,-318 637.66,-312 637.66,-312 637.66,-300 637.66,-300 637.66,-294 643.66,-288 649.66,-288 649.66,-288 679.66,-288 679.66,-288 685.66,-288 691.66,-294 691.66,-300 691.66,-300 691.66,-312 691.66,-312 691.66,-318 685.66,-324 679.66,-324"/>
<text text-anchor="middle" x="664.66" y="-302.3" font-family="Times,serif" font-size="14.00">Store</text>
</g>
<!-- ast.Name object at 0x732eead983d0&#45;&gt;ast.Store object at 0x732eecfbda50 -->
<g id="edge8" class="edge">
<title>ast.Name object at 0x732eead983d0&#45;&gt;ast.Store object at 0x732eecfbda50</title>
<path fill="none" stroke="black" d="M614.23,-359.7C622.34,-351.22 632.25,-340.86 641.13,-331.58"/>
<polygon fill="black" stroke="black" points="643.91,-333.75 648.29,-324.1 638.85,-328.91 643.91,-333.75"/>
</g>
<!-- ast.Name object at 0x732eead997d0 -->
<g id="node11" class="node">
<title>ast.Name object at 0x732eead997d0</title>
<path fill="#66cdaa" stroke="black" d="M571.66,-108C571.66,-108 541.66,-108 541.66,-108 535.66,-108 529.66,-102 529.66,-96 529.66,-96 529.66,-84 529.66,-84 529.66,-78 535.66,-72 541.66,-72 541.66,-72 571.66,-72 571.66,-72 577.66,-72 583.66,-78 583.66,-84 583.66,-84 583.66,-96 583.66,-96 583.66,-102 577.66,-108 571.66,-108"/>
<text text-anchor="middle" x="556.66" y="-86.3" font-family="Times,serif" font-size="14.00">Name</text>
</g>
<!-- ast.Call object at 0x732eeadd3ed0&#45;&gt;ast.Name object at 0x732eead997d0 -->
<g id="edge10" class="edge">
<title>ast.Call object at 0x732eeadd3ed0&#45;&gt;ast.Name object at 0x732eead997d0</title>
<path fill="none" stroke="black" d="M497.94,-143.7C507.58,-135.05 519.39,-124.45 529.89,-115.03"/>
<polygon fill="black" stroke="black" points="532.5,-117.39 537.6,-108.1 527.82,-112.18 532.5,-117.39"/>
</g>
<!-- ast.Name object at 0x732eead98610 -->
<g id="node13" class="node">
<title>ast.Name object at 0x732eead98610</title>
<path fill="#66cdaa" stroke="black" d="M499.66,-108C499.66,-108 469.66,-108 469.66,-108 463.66,-108 457.66,-102 457.66,-96 457.66,-96 457.66,-84 457.66,-84 457.66,-78 463.66,-72 469.66,-72 469.66,-72 499.66,-72 499.66,-72 505.66,-72 511.66,-78 511.66,-84 511.66,-84 511.66,-96 511.66,-96 511.66,-102 505.66,-108 499.66,-108"/>
<text text-anchor="middle" x="484.66" y="-86.3" font-family="Times,serif" font-size="14.00">Name</text>
</g>
<!-- ast.Call object at 0x732eeadd3ed0&#45;&gt;ast.Name object at 0x732eead98610 -->
<g id="edge12" class="edge">
<title>ast.Call object at 0x732eeadd3ed0&#45;&gt;ast.Name object at 0x732eead98610</title>
<path fill="none" stroke="black" d="M480.15,-143.7C480.81,-135.98 481.6,-126.71 482.34,-118.11"/>
<polygon fill="black" stroke="black" points="485.83,-118.37 483.2,-108.1 478.86,-117.77 485.83,-118.37"/>
</g>
<!-- ast.Load object at 0x732eecfbd9d0 -->
<g id="node12" class="node">
<title>ast.Load object at 0x732eecfbd9d0</title>
<path fill="#66cdaa" stroke="black" d="M571.66,-36C571.66,-36 541.66,-36 541.66,-36 535.66,-36 529.66,-30 529.66,-24 529.66,-24 529.66,-12 529.66,-12 529.66,-6 535.66,0 541.66,0 541.66,0 571.66,0 571.66,0 577.66,0 583.66,-6 583.66,-12 583.66,-12 583.66,-24 583.66,-24 583.66,-30 577.66,-36 571.66,-36"/>
<text text-anchor="middle" x="556.66" y="-14.3" font-family="Times,serif" font-size="14.00">Load</text>
</g>
<!-- ast.Name object at 0x732eead997d0&#45;&gt;ast.Load object at 0x732eecfbd9d0 -->
<g id="edge11" class="edge">
<title>ast.Name object at 0x732eead997d0&#45;&gt;ast.Load object at 0x732eecfbd9d0</title>
<path fill="none" stroke="black" d="M556.66,-71.7C556.66,-63.98 556.66,-54.71 556.66,-46.11"/>
<polygon fill="black" stroke="black" points="560.16,-46.1 556.66,-36.1 553.16,-46.1 560.16,-46.1"/>
</g>
<!-- ast.Name object at 0x732eead98610&#45;&gt;ast.Load object at 0x732eecfbd9d0 -->
<g id="edge13" class="edge">
<title>ast.Name object at 0x732eead98610&#45;&gt;ast.Load object at 0x732eecfbd9d0</title>
<path fill="none" stroke="black" d="M502.46,-71.7C511.27,-63.14 522.05,-52.66 531.66,-43.3"/>
<polygon fill="black" stroke="black" points="534.34,-45.58 539.07,-36.1 529.46,-40.57 534.34,-45.58"/>
</g>
<!-- ast.Name object at 0x732eead98b50 -->
<g id="node15" class="node">
<title>ast.Name object at 0x732eead98b50</title>
<path fill="#66cdaa" stroke="black" d="M529.66,-468C529.66,-468 499.66,-468 499.66,-468 493.66,-468 487.66,-462 487.66,-456 487.66,-456 487.66,-444 487.66,-444 487.66,-438 493.66,-432 499.66,-432 499.66,-432 529.66,-432 529.66,-432 535.66,-432 541.66,-438 541.66,-444 541.66,-444 541.66,-456 541.66,-456 541.66,-462 535.66,-468 529.66,-468"/>
<text text-anchor="middle" x="514.66" y="-446.3" font-family="Times,serif" font-size="14.00">Name</text>
</g>
<!-- ast.For object at 0x732eead99e90&#45;&gt;ast.Name object at 0x732eead98b50 -->
<g id="edge15" class="edge">
<title>ast.For object at 0x732eead99e90&#45;&gt;ast.Name object at 0x732eead98b50</title>
<path fill="none" stroke="black" d="M451.43,-503.7C461.9,-494.97 474.77,-484.24 486.16,-474.75"/>
<polygon fill="black" stroke="black" points="488.7,-477.19 494.14,-468.1 484.22,-471.82 488.7,-477.19"/>
</g>
<!-- ast.Name object at 0x732eead99290 -->
<g id="node16" class="node">
<title>ast.Name object at 0x732eead99290</title>
<path fill="#66cdaa" stroke="black" d="M67.66,-324C67.66,-324 37.66,-324 37.66,-324 31.66,-324 25.66,-318 25.66,-312 25.66,-312 25.66,-300 25.66,-300 25.66,-294 31.66,-288 37.66,-288 37.66,-288 67.66,-288 67.66,-288 73.66,-288 79.66,-294 79.66,-300 79.66,-300 79.66,-312 79.66,-312 79.66,-318 73.66,-324 67.66,-324"/>
<text text-anchor="middle" x="52.66" y="-302.3" font-family="Times,serif" font-size="14.00">Name</text>
</g>
<!-- ast.For object at 0x732eead99e90&#45;&gt;ast.Name object at 0x732eead99290 -->
<g id="edge17" class="edge">
<title>ast.For object at 0x732eead99e90&#45;&gt;ast.Name object at 0x732eead99290</title>
<path fill="none" stroke="black" d="M403.45,-514.42C371.51,-506.1 317.47,-490.15 274.66,-468 198.51,-428.6 119.64,-364.96 79.56,-330.68"/>
<polygon fill="black" stroke="black" points="81.7,-327.9 71.84,-324.03 77.13,-333.21 81.7,-327.9"/>
</g>
<!-- ast.Assign object at 0x732eead99690 -->
<g id="node17" class="node">
<title>ast.Assign object at 0x732eead99690</title>
<path fill="#66cdaa" stroke="black" d="M445.66,-468C445.66,-468 415.66,-468 415.66,-468 409.66,-468 403.66,-462 403.66,-456 403.66,-456 403.66,-444 403.66,-444 403.66,-438 409.66,-432 415.66,-432 415.66,-432 445.66,-432 445.66,-432 451.66,-432 457.66,-438 457.66,-444 457.66,-444 457.66,-456 457.66,-456 457.66,-462 451.66,-468 445.66,-468"/>
<text text-anchor="middle" x="430.66" y="-446.3" font-family="Times,serif" font-size="14.00">Assign</text>
</g>
<!-- ast.For object at 0x732eead99e90&#45;&gt;ast.Assign object at 0x732eead99690 -->
<g id="edge19" class="edge">
<title>ast.For object at 0x732eead99e90&#45;&gt;ast.Assign object at 0x732eead99690</title>
<path fill="none" stroke="black" d="M430.66,-503.7C430.66,-495.98 430.66,-486.71 430.66,-478.11"/>
<polygon fill="black" stroke="black" points="434.16,-478.1 430.66,-468.1 427.16,-478.1 434.16,-478.1"/>
</g>
<!-- ast.Expr object at 0x732eead98410 -->
<g id="node27" class="node">
<title>ast.Expr object at 0x732eead98410</title>
<path fill="#66cdaa" stroke="black" d="M325.66,-468C325.66,-468 295.66,-468 295.66,-468 289.66,-468 283.66,-462 283.66,-456 283.66,-456 283.66,-444 283.66,-444 283.66,-438 289.66,-432 295.66,-432 295.66,-432 325.66,-432 325.66,-432 331.66,-432 337.66,-438 337.66,-444 337.66,-444 337.66,-456 337.66,-456 337.66,-462 331.66,-468 325.66,-468"/>
<text text-anchor="middle" x="310.66" y="-446.3" font-family="Times,serif" font-size="14.00">Expr</text>
</g>
<!-- ast.For object at 0x732eead99e90&#45;&gt;ast.Expr object at 0x732eead98410 -->
<g id="edge34" class="edge">
<title>ast.For object at 0x732eead99e90&#45;&gt;ast.Expr object at 0x732eead98410</title>
<path fill="none" stroke="black" d="M403.43,-505.12C386.56,-495.27 364.69,-482.52 346.42,-471.86"/>
<polygon fill="black" stroke="black" points="348.19,-468.84 337.79,-466.82 344.66,-474.88 348.19,-468.84"/>
</g>
<!-- ast.Name object at 0x732eead98b50&#45;&gt;ast.Store object at 0x732eecfbda50 -->
<g id="edge16" class="edge">
<title>ast.Name object at 0x732eead98b50&#45;&gt;ast.Store object at 0x732eecfbda50</title>
<path fill="none" stroke="black" d="M520.11,-432C527.08,-412.52 540.8,-380.65 561.66,-360 580.26,-341.6 606.55,-328.22 627.91,-319.5"/>
<polygon fill="black" stroke="black" points="629.3,-322.72 637.34,-315.82 626.75,-316.2 629.3,-322.72"/>
</g>
<!-- ast.Name object at 0x732eead99290&#45;&gt;ast.Load object at 0x732eecfbd9d0 -->
<g id="edge18" class="edge">
<title>ast.Name object at 0x732eead99290&#45;&gt;ast.Load object at 0x732eecfbd9d0</title>
<path fill="none" stroke="black" d="M42.87,-287.69C20.16,-244.98 -30.08,-133.59 25.66,-72 58.75,-35.45 403.91,-23.04 519.32,-19.89"/>
<polygon fill="black" stroke="black" points="519.53,-23.39 529.44,-19.63 519.35,-16.39 519.53,-23.39"/>
</g>
<!-- ast.Name object at 0x732eead9ae90 -->
<g id="node18" class="node">
<title>ast.Name object at 0x732eead9ae90</title>
<path fill="#66cdaa" stroke="black" d="M464.66,-396C464.66,-396 434.66,-396 434.66,-396 428.66,-396 422.66,-390 422.66,-384 422.66,-384 422.66,-372 422.66,-372 422.66,-366 428.66,-360 434.66,-360 434.66,-360 464.66,-360 464.66,-360 470.66,-360 476.66,-366 476.66,-372 476.66,-372 476.66,-384 476.66,-384 476.66,-390 470.66,-396 464.66,-396"/>
<text text-anchor="middle" x="449.66" y="-374.3" font-family="Times,serif" font-size="14.00">Name</text>
</g>
<!-- ast.Assign object at 0x732eead99690&#45;&gt;ast.Name object at 0x732eead9ae90 -->
<g id="edge20" class="edge">
<title>ast.Assign object at 0x732eead99690&#45;&gt;ast.Name object at 0x732eead9ae90</title>
<path fill="none" stroke="black" d="M435.36,-431.7C437.48,-423.9 440.03,-414.51 442.38,-405.83"/>
<polygon fill="black" stroke="black" points="445.78,-406.67 445.02,-396.1 439.02,-404.84 445.78,-406.67"/>
</g>
<!-- ast.Call object at 0x732eead99490 -->
<g id="node19" class="node">
<title>ast.Call object at 0x732eead99490</title>
<path fill="#66cdaa" stroke="black" d="M392.66,-396C392.66,-396 362.66,-396 362.66,-396 356.66,-396 350.66,-390 350.66,-384 350.66,-384 350.66,-372 350.66,-372 350.66,-366 356.66,-360 362.66,-360 362.66,-360 392.66,-360 392.66,-360 398.66,-360 404.66,-366 404.66,-372 404.66,-372 404.66,-384 404.66,-384 404.66,-390 398.66,-396 392.66,-396"/>
<text text-anchor="middle" x="377.66" y="-374.3" font-family="Times,serif" font-size="14.00">Call</text>
</g>
<!-- ast.Assign object at 0x732eead99690&#45;&gt;ast.Call object at 0x732eead99490 -->
<g id="edge22" class="edge">
<title>ast.Assign object at 0x732eead99690&#45;&gt;ast.Call object at 0x732eead99490</title>
<path fill="none" stroke="black" d="M417.56,-431.7C411.27,-423.39 403.62,-413.28 396.7,-404.14"/>
<polygon fill="black" stroke="black" points="399.44,-401.96 390.61,-396.1 393.86,-406.19 399.44,-401.96"/>
</g>
<!-- ast.Name object at 0x732eead9ae90&#45;&gt;ast.Store object at 0x732eecfbda50 -->
<g id="edge21" class="edge">
<title>ast.Name object at 0x732eead9ae90&#45;&gt;ast.Store object at 0x732eecfbda50</title>
<path fill="none" stroke="black" d="M476.89,-368.13C515.18,-355.67 585.03,-332.93 627.89,-318.97"/>
<polygon fill="black" stroke="black" points="629.23,-322.22 637.65,-315.79 627.06,-315.56 629.23,-322.22"/>
</g>
<!-- ast.Attribute object at 0x732eead98850 -->
<g id="node20" class="node">
<title>ast.Attribute object at 0x732eead98850</title>
<path fill="#66cdaa" stroke="black" d="M320.16,-324C320.16,-324 279.16,-324 279.16,-324 273.16,-324 267.16,-318 267.16,-312 267.16,-312 267.16,-300 267.16,-300 267.16,-294 273.16,-288 279.16,-288 279.16,-288 320.16,-288 320.16,-288 326.16,-288 332.16,-294 332.16,-300 332.16,-300 332.16,-312 332.16,-312 332.16,-318 326.16,-324 320.16,-324"/>
<text text-anchor="middle" x="299.66" y="-302.3" font-family="Times,serif" font-size="14.00">Attribute</text>
</g>
<!-- ast.Call object at 0x732eead99490&#45;&gt;ast.Attribute object at 0x732eead98850 -->
<g id="edge23" class="edge">
<title>ast.Call object at 0x732eead99490&#45;&gt;ast.Attribute object at 0x732eead98850</title>
<path fill="none" stroke="black" d="M358.38,-359.7C348.75,-351.05 336.93,-340.45 326.44,-331.03"/>
<polygon fill="black" stroke="black" points="328.5,-328.18 318.72,-324.1 323.83,-333.39 328.5,-328.18"/>
</g>
<!-- ast.Call object at 0x732eead98b90 -->
<g id="node22" class="node">
<title>ast.Call object at 0x732eead98b90</title>
<path fill="#66cdaa" stroke="black" d="M392.66,-324C392.66,-324 362.66,-324 362.66,-324 356.66,-324 350.66,-318 350.66,-312 350.66,-312 350.66,-300 350.66,-300 350.66,-294 356.66,-288 362.66,-288 362.66,-288 392.66,-288 392.66,-288 398.66,-288 404.66,-294 404.66,-300 404.66,-300 404.66,-312 404.66,-312 404.66,-318 398.66,-324 392.66,-324"/>
<text text-anchor="middle" x="377.66" y="-302.3" font-family="Times,serif" font-size="14.00">Call</text>
</g>
<!-- ast.Call object at 0x732eead99490&#45;&gt;ast.Call object at 0x732eead98b90 -->
<g id="edge26" class="edge">
<title>ast.Call object at 0x732eead99490&#45;&gt;ast.Call object at 0x732eead98b90</title>
<path fill="none" stroke="black" d="M377.66,-359.7C377.66,-351.98 377.66,-342.71 377.66,-334.11"/>
<polygon fill="black" stroke="black" points="381.16,-334.1 377.66,-324.1 374.16,-334.1 381.16,-334.1"/>
</g>
<!-- ast.Attribute object at 0x732eead98850&#45;&gt;ast.Load object at 0x732eecfbd9d0 -->
<g id="edge25" class="edge">
<title>ast.Attribute object at 0x732eead98850&#45;&gt;ast.Load object at 0x732eecfbd9d0</title>
<path fill="none" stroke="black" d="M281.06,-287.76C272.13,-278.2 262.37,-265.53 257.66,-252 233.82,-183.52 309.12,-82.29 321.66,-72 351.57,-47.46 460.96,-30.71 519.35,-23.31"/>
<polygon fill="black" stroke="black" points="520.13,-26.74 529.63,-22.03 519.27,-19.79 520.13,-26.74"/>
</g>
<!-- ast.Constant object at 0x732eead99750 -->
<g id="node21" class="node">
<title>ast.Constant object at 0x732eead99750</title>
<path fill="#66cdaa" stroke="black" d="M320.16,-252C320.16,-252 279.16,-252 279.16,-252 273.16,-252 267.16,-246 267.16,-240 267.16,-240 267.16,-228 267.16,-228 267.16,-222 273.16,-216 279.16,-216 279.16,-216 320.16,-216 320.16,-216 326.16,-216 332.16,-222 332.16,-228 332.16,-228 332.16,-240 332.16,-240 332.16,-246 326.16,-252 320.16,-252"/>
<text text-anchor="middle" x="299.66" y="-230.3" font-family="Times,serif" font-size="14.00">Constant</text>
</g>
<!-- ast.Attribute object at 0x732eead98850&#45;&gt;ast.Constant object at 0x732eead99750 -->
<g id="edge24" class="edge">
<title>ast.Attribute object at 0x732eead98850&#45;&gt;ast.Constant object at 0x732eead99750</title>
<path fill="none" stroke="black" d="M299.66,-287.7C299.66,-279.98 299.66,-270.71 299.66,-262.11"/>
<polygon fill="black" stroke="black" points="303.16,-262.1 299.66,-252.1 296.16,-262.1 303.16,-262.1"/>
</g>
<!-- ast.Name object at 0x732eead99990 -->
<g id="node23" class="node">
<title>ast.Name object at 0x732eead99990</title>
<path fill="#66cdaa" stroke="black" d="M392.66,-252C392.66,-252 362.66,-252 362.66,-252 356.66,-252 350.66,-246 350.66,-240 350.66,-240 350.66,-228 350.66,-228 350.66,-222 356.66,-216 362.66,-216 362.66,-216 392.66,-216 392.66,-216 398.66,-216 404.66,-222 404.66,-228 404.66,-228 404.66,-240 404.66,-240 404.66,-246 398.66,-252 392.66,-252"/>
<text text-anchor="middle" x="377.66" y="-230.3" font-family="Times,serif" font-size="14.00">Name</text>
</g>
<!-- ast.Call object at 0x732eead98b90&#45;&gt;ast.Name object at 0x732eead99990 -->
<g id="edge27" class="edge">
<title>ast.Call object at 0x732eead98b90&#45;&gt;ast.Name object at 0x732eead99990</title>
<path fill="none" stroke="black" d="M377.66,-287.7C377.66,-279.98 377.66,-270.71 377.66,-262.11"/>
<polygon fill="black" stroke="black" points="381.16,-262.1 377.66,-252.1 374.16,-262.1 381.16,-262.1"/>
</g>
<!-- ast.Call object at 0x732eead999d0 -->
<g id="node24" class="node">
<title>ast.Call object at 0x732eead999d0</title>
<path fill="#66cdaa" stroke="black" d="M464.66,-252C464.66,-252 434.66,-252 434.66,-252 428.66,-252 422.66,-246 422.66,-240 422.66,-240 422.66,-228 422.66,-228 422.66,-222 428.66,-216 434.66,-216 434.66,-216 464.66,-216 464.66,-216 470.66,-216 476.66,-222 476.66,-228 476.66,-228 476.66,-240 476.66,-240 476.66,-246 470.66,-252 464.66,-252"/>
<text text-anchor="middle" x="449.66" y="-230.3" font-family="Times,serif" font-size="14.00">Call</text>
</g>
<!-- ast.Call object at 0x732eead98b90&#45;&gt;ast.Call object at 0x732eead999d0 -->
<g id="edge29" class="edge">
<title>ast.Call object at 0x732eead98b90&#45;&gt;ast.Call object at 0x732eead999d0</title>
<path fill="none" stroke="black" d="M395.46,-287.7C404.27,-279.14 415.05,-268.66 424.66,-259.3"/>
<polygon fill="black" stroke="black" points="427.34,-261.58 432.07,-252.1 422.46,-256.57 427.34,-261.58"/>
</g>
<!-- ast.Name object at 0x732eead99990&#45;&gt;ast.Load object at 0x732eecfbd9d0 -->
<g id="edge28" class="edge">
<title>ast.Name object at 0x732eead99990&#45;&gt;ast.Load object at 0x732eecfbd9d0</title>
<path fill="none" stroke="black" d="M365.17,-215.98C343.54,-184.27 304.54,-115.41 338.66,-72 360.71,-43.95 462.84,-28.91 519.14,-22.62"/>
<polygon fill="black" stroke="black" points="519.86,-26.06 529.43,-21.51 519.11,-19.1 519.86,-26.06"/>
</g>
<!-- ast.Attribute object at 0x732eead98ed0 -->
<g id="node25" class="node">
<title>ast.Attribute object at 0x732eead98ed0</title>
<path fill="#66cdaa" stroke="black" d="M421.16,-180C421.16,-180 380.16,-180 380.16,-180 374.16,-180 368.16,-174 368.16,-168 368.16,-168 368.16,-156 368.16,-156 368.16,-150 374.16,-144 380.16,-144 380.16,-144 421.16,-144 421.16,-144 427.16,-144 433.16,-150 433.16,-156 433.16,-156 433.16,-168 433.16,-168 433.16,-174 427.16,-180 421.16,-180"/>
<text text-anchor="middle" x="400.66" y="-158.3" font-family="Times,serif" font-size="14.00">Attribute</text>
</g>
<!-- ast.Call object at 0x732eead999d0&#45;&gt;ast.Attribute object at 0x732eead98ed0 -->
<g id="edge30" class="edge">
<title>ast.Call object at 0x732eead999d0&#45;&gt;ast.Attribute object at 0x732eead98ed0</title>
<path fill="none" stroke="black" d="M437.55,-215.7C431.8,-207.47 424.8,-197.48 418.46,-188.42"/>
<polygon fill="black" stroke="black" points="421.24,-186.29 412.64,-180.1 415.5,-190.3 421.24,-186.29"/>
</g>
<!-- ast.Attribute object at 0x732eead98ed0&#45;&gt;ast.Load object at 0x732eecfbd9d0 -->
<g id="edge33" class="edge">
<title>ast.Attribute object at 0x732eead98ed0&#45;&gt;ast.Load object at 0x732eecfbd9d0</title>
<path fill="none" stroke="black" d="M406.25,-143.93C413.38,-124.39 427.41,-92.45 448.66,-72 468.72,-52.7 497.17,-39.13 519.83,-30.55"/>
<polygon fill="black" stroke="black" points="521.25,-33.76 529.46,-27.07 518.87,-27.18 521.25,-33.76"/>
</g>
<!-- ast.Name object at 0x732eead99050 -->
<g id="node26" class="node">
<title>ast.Name object at 0x732eead99050</title>
<path fill="#66cdaa" stroke="black" d="M389.66,-108C389.66,-108 359.66,-108 359.66,-108 353.66,-108 347.66,-102 347.66,-96 347.66,-96 347.66,-84 347.66,-84 347.66,-78 353.66,-72 359.66,-72 359.66,-72 389.66,-72 389.66,-72 395.66,-72 401.66,-78 401.66,-84 401.66,-84 401.66,-96 401.66,-96 401.66,-102 395.66,-108 389.66,-108"/>
<text text-anchor="middle" x="374.66" y="-86.3" font-family="Times,serif" font-size="14.00">Name</text>
</g>
<!-- ast.Attribute object at 0x732eead98ed0&#45;&gt;ast.Name object at 0x732eead99050 -->
<g id="edge31" class="edge">
<title>ast.Attribute object at 0x732eead98ed0&#45;&gt;ast.Name object at 0x732eead99050</title>
<path fill="none" stroke="black" d="M394.24,-143.7C391.31,-135.81 387.78,-126.3 384.52,-117.55"/>
<polygon fill="black" stroke="black" points="387.78,-116.26 381.02,-108.1 381.22,-118.7 387.78,-116.26"/>
</g>
<!-- ast.Name object at 0x732eead99050&#45;&gt;ast.Load object at 0x732eecfbd9d0 -->
<g id="edge32" class="edge">
<title>ast.Name object at 0x732eead99050&#45;&gt;ast.Load object at 0x732eecfbd9d0</title>
<path fill="none" stroke="black" d="M401.96,-77.53C406.52,-75.66 411.22,-73.76 415.66,-72 450.91,-58.07 491.43,-42.93 519.97,-32.41"/>
<polygon fill="black" stroke="black" points="521.35,-35.63 529.53,-28.89 518.94,-29.06 521.35,-35.63"/>
</g>
<!-- ast.Call object at 0x732eead9a050 -->
<g id="node28" class="node">
<title>ast.Call object at 0x732eead9a050</title>
<path fill="#66cdaa" stroke="black" d="M198.66,-324C198.66,-324 168.66,-324 168.66,-324 162.66,-324 156.66,-318 156.66,-312 156.66,-312 156.66,-300 156.66,-300 156.66,-294 162.66,-288 168.66,-288 168.66,-288 198.66,-288 198.66,-288 204.66,-288 210.66,-294 210.66,-300 210.66,-300 210.66,-312 210.66,-312 210.66,-318 204.66,-324 198.66,-324"/>
<text text-anchor="middle" x="183.66" y="-302.3" font-family="Times,serif" font-size="14.00">Call</text>
</g>
<!-- ast.Expr object at 0x732eead98410&#45;&gt;ast.Call object at 0x732eead9a050 -->
<g id="edge35" class="edge">
<title>ast.Expr object at 0x732eead98410&#45;&gt;ast.Call object at 0x732eead9a050</title>
<path fill="none" stroke="black" d="M295.34,-431.87C273.03,-406.92 231.47,-360.45 205.82,-331.77"/>
<polygon fill="black" stroke="black" points="208.31,-329.31 199.04,-324.19 203.09,-333.98 208.31,-329.31"/>
</g>
<!-- ast.Attribute object at 0x732eead98590 -->
<g id="node29" class="node">
<title>ast.Attribute object at 0x732eead98590</title>
<path fill="#66cdaa" stroke="black" d="M126.16,-252C126.16,-252 85.16,-252 85.16,-252 79.16,-252 73.16,-246 73.16,-240 73.16,-240 73.16,-228 73.16,-228 73.16,-222 79.16,-216 85.16,-216 85.16,-216 126.16,-216 126.16,-216 132.16,-216 138.16,-222 138.16,-228 138.16,-228 138.16,-240 138.16,-240 138.16,-246 132.16,-252 126.16,-252"/>
<text text-anchor="middle" x="105.66" y="-230.3" font-family="Times,serif" font-size="14.00">Attribute</text>
</g>
<!-- ast.Call object at 0x732eead9a050&#45;&gt;ast.Attribute object at 0x732eead98590 -->
<g id="edge36" class="edge">
<title>ast.Call object at 0x732eead9a050&#45;&gt;ast.Attribute object at 0x732eead98590</title>
<path fill="none" stroke="black" d="M164.38,-287.7C154.75,-279.05 142.93,-268.45 132.44,-259.03"/>
<polygon fill="black" stroke="black" points="134.5,-256.18 124.72,-252.1 129.83,-261.39 134.5,-256.18"/>
</g>
<!-- ast.Name object at 0x732eead9bf10 -->
<g id="node33" class="node">
<title>ast.Name object at 0x732eead9bf10</title>
<path fill="#66cdaa" stroke="black" d="M198.66,-252C198.66,-252 168.66,-252 168.66,-252 162.66,-252 156.66,-246 156.66,-240 156.66,-240 156.66,-228 156.66,-228 156.66,-222 162.66,-216 168.66,-216 168.66,-216 198.66,-216 198.66,-216 204.66,-216 210.66,-222 210.66,-228 210.66,-228 210.66,-240 210.66,-240 210.66,-246 204.66,-252 198.66,-252"/>
<text text-anchor="middle" x="183.66" y="-230.3" font-family="Times,serif" font-size="14.00">Name</text>
</g>
<!-- ast.Call object at 0x732eead9a050&#45;&gt;ast.Name object at 0x732eead9bf10 -->
<g id="edge44" class="edge">
<title>ast.Call object at 0x732eead9a050&#45;&gt;ast.Name object at 0x732eead9bf10</title>
<path fill="none" stroke="black" d="M183.66,-287.7C183.66,-279.98 183.66,-270.71 183.66,-262.11"/>
<polygon fill="black" stroke="black" points="187.16,-262.1 183.66,-252.1 180.16,-262.1 187.16,-262.1"/>
</g>
<!-- ast.Attribute object at 0x732eead98590&#45;&gt;ast.Load object at 0x732eecfbd9d0 -->
<g id="edge43" class="edge">
<title>ast.Attribute object at 0x732eead98590&#45;&gt;ast.Load object at 0x732eecfbd9d0</title>
<path fill="none" stroke="black" d="M88.58,-215.87C58.8,-183.96 4.06,-114.79 42.66,-72 74.54,-36.67 406.6,-23.5 519.4,-20.02"/>
<polygon fill="black" stroke="black" points="519.73,-23.51 529.62,-19.72 519.52,-16.52 519.73,-23.51"/>
</g>
<!-- ast.Subscript object at 0x732eead990d0 -->
<g id="node30" class="node">
<title>ast.Subscript object at 0x732eead990d0</title>
<path fill="#66cdaa" stroke="black" d="M137.66,-180C137.66,-180 93.66,-180 93.66,-180 87.66,-180 81.66,-174 81.66,-168 81.66,-168 81.66,-156 81.66,-156 81.66,-150 87.66,-144 93.66,-144 93.66,-144 137.66,-144 137.66,-144 143.66,-144 149.66,-150 149.66,-156 149.66,-156 149.66,-168 149.66,-168 149.66,-174 143.66,-180 137.66,-180"/>
<text text-anchor="middle" x="115.66" y="-158.3" font-family="Times,serif" font-size="14.00">Subscript</text>
</g>
<!-- ast.Attribute object at 0x732eead98590&#45;&gt;ast.Subscript object at 0x732eead990d0 -->
<g id="edge37" class="edge">
<title>ast.Attribute object at 0x732eead98590&#45;&gt;ast.Subscript object at 0x732eead990d0</title>
<path fill="none" stroke="black" d="M108.14,-215.7C109.24,-207.98 110.56,-198.71 111.79,-190.11"/>
<polygon fill="black" stroke="black" points="115.27,-190.5 113.22,-180.1 108.34,-189.51 115.27,-190.5"/>
</g>
<!-- ast.Subscript object at 0x732eead990d0&#45;&gt;ast.Load object at 0x732eecfbd9d0 -->
<g id="edge42" class="edge">
<title>ast.Subscript object at 0x732eead990d0&#45;&gt;ast.Load object at 0x732eecfbd9d0</title>
<path fill="none" stroke="black" d="M117.68,-143.83C121.07,-123.26 129.95,-89.4 152.66,-72 209.66,-28.34 430.3,-20.6 519.21,-19.26"/>
<polygon fill="black" stroke="black" points="519.43,-22.76 529.38,-19.13 519.34,-15.76 519.43,-22.76"/>
</g>
<!-- ast.Name object at 0x732eead99b10 -->
<g id="node31" class="node">
<title>ast.Name object at 0x732eead99b10</title>
<path fill="#66cdaa" stroke="black" d="M203.66,-108C203.66,-108 173.66,-108 173.66,-108 167.66,-108 161.66,-102 161.66,-96 161.66,-96 161.66,-84 161.66,-84 161.66,-78 167.66,-72 173.66,-72 173.66,-72 203.66,-72 203.66,-72 209.66,-72 215.66,-78 215.66,-84 215.66,-84 215.66,-96 215.66,-96 215.66,-102 209.66,-108 203.66,-108"/>
<text text-anchor="middle" x="188.66" y="-86.3" font-family="Times,serif" font-size="14.00">Name</text>
</g>
<!-- ast.Subscript object at 0x732eead990d0&#45;&gt;ast.Name object at 0x732eead99b10 -->
<g id="edge38" class="edge">
<title>ast.Subscript object at 0x732eead990d0&#45;&gt;ast.Name object at 0x732eead99b10</title>
<path fill="none" stroke="black" d="M133.71,-143.7C142.73,-135.05 153.78,-124.45 163.61,-115.03"/>
<polygon fill="black" stroke="black" points="166.03,-117.55 170.83,-108.1 161.19,-112.5 166.03,-117.55"/>
</g>
<!-- ast.Name object at 0x732eead98ad0 -->
<g id="node32" class="node">
<title>ast.Name object at 0x732eead98ad0</title>
<path fill="#66cdaa" stroke="black" d="M93.66,-108C93.66,-108 63.66,-108 63.66,-108 57.66,-108 51.66,-102 51.66,-96 51.66,-96 51.66,-84 51.66,-84 51.66,-78 57.66,-72 63.66,-72 63.66,-72 93.66,-72 93.66,-72 99.66,-72 105.66,-78 105.66,-84 105.66,-84 105.66,-96 105.66,-96 105.66,-102 99.66,-108 93.66,-108"/>
<text text-anchor="middle" x="78.66" y="-86.3" font-family="Times,serif" font-size="14.00">Name</text>
</g>
<!-- ast.Subscript object at 0x732eead990d0&#45;&gt;ast.Name object at 0x732eead98ad0 -->
<g id="edge40" class="edge">
<title>ast.Subscript object at 0x732eead990d0&#45;&gt;ast.Name object at 0x732eead98ad0</title>
<path fill="none" stroke="black" d="M106.52,-143.7C102.26,-135.64 97.11,-125.89 92.4,-116.98"/>
<polygon fill="black" stroke="black" points="95.47,-115.31 87.7,-108.1 89.28,-118.58 95.47,-115.31"/>
</g>
<!-- ast.Name object at 0x732eead99b10&#45;&gt;ast.Load object at 0x732eecfbd9d0 -->
<g id="edge39" class="edge">
<title>ast.Name object at 0x732eead99b10&#45;&gt;ast.Load object at 0x732eecfbd9d0</title>
<path fill="none" stroke="black" d="M215.7,-76.76C220.29,-74.98 225.07,-73.31 229.66,-72 332.42,-42.8 458.22,-28.07 519.52,-22.19"/>
<polygon fill="black" stroke="black" points="519.87,-25.67 529.5,-21.25 519.22,-18.7 519.87,-25.67"/>
</g>
<!-- ast.Name object at 0x732eead98ad0&#45;&gt;ast.Load object at 0x732eecfbd9d0 -->
<g id="edge41" class="edge">
<title>ast.Name object at 0x732eead98ad0&#45;&gt;ast.Load object at 0x732eecfbd9d0</title>
<path fill="none" stroke="black" d="M106.1,-76.43C110.56,-74.73 115.19,-73.17 119.66,-72 264.38,-33.98 443.35,-23.12 519.53,-20.11"/>
<polygon fill="black" stroke="black" points="519.72,-23.6 529.58,-19.73 519.46,-16.61 519.72,-23.6"/>
</g>
<!-- ast.Name object at 0x732eead9bf10&#45;&gt;ast.Load object at 0x732eecfbd9d0 -->
<g id="edge45" class="edge">
<title>ast.Name object at 0x732eead9bf10&#45;&gt;ast.Load object at 0x732eecfbd9d0</title>
<path fill="none" stroke="black" d="M187.33,-215.89C195.47,-182.43 218.32,-108.41 267.66,-72 307.11,-42.89 450.25,-27.62 519.13,-21.81"/>
<polygon fill="black" stroke="black" points="519.84,-25.26 529.52,-20.96 519.27,-18.29 519.84,-25.26"/>
</g>
<!-- ast.Name object at 0x732eead99010 -->
<g id="node35" class="node">
<title>ast.Name object at 0x732eead99010</title>
<path fill="#66cdaa" stroke="black" d="M689.66,-540C689.66,-540 659.66,-540 659.66,-540 653.66,-540 647.66,-534 647.66,-528 647.66,-528 647.66,-516 647.66,-516 647.66,-510 653.66,-504 659.66,-504 659.66,-504 689.66,-504 689.66,-504 695.66,-504 701.66,-510 701.66,-516 701.66,-516 701.66,-528 701.66,-528 701.66,-534 695.66,-540 689.66,-540"/>
<text text-anchor="middle" x="674.66" y="-518.3" font-family="Times,serif" font-size="14.00">Name</text>
</g>
<!-- ast.Assign object at 0x732eead99150&#45;&gt;ast.Name object at 0x732eead99010 -->
<g id="edge47" class="edge">
<title>ast.Assign object at 0x732eead99150&#45;&gt;ast.Name object at 0x732eead99010</title>
<path fill="none" stroke="black" d="M704.02,-575.7C699.54,-567.64 694.1,-557.89 689.14,-548.98"/>
<polygon fill="black" stroke="black" points="692.12,-547.14 684.19,-540.1 686,-550.54 692.12,-547.14"/>
</g>
<!-- ast.Constant object at 0x732eead98f90 -->
<g id="node36" class="node">
<title>ast.Constant object at 0x732eead98f90</title>
<path fill="#66cdaa" stroke="black" d="M773.16,-540C773.16,-540 732.16,-540 732.16,-540 726.16,-540 720.16,-534 720.16,-528 720.16,-528 720.16,-516 720.16,-516 720.16,-510 726.16,-504 732.16,-504 732.16,-504 773.16,-504 773.16,-504 779.16,-504 785.16,-510 785.16,-516 785.16,-516 785.16,-528 785.16,-528 785.16,-534 779.16,-540 773.16,-540"/>
<text text-anchor="middle" x="752.66" y="-518.3" font-family="Times,serif" font-size="14.00">Constant</text>
</g>
<!-- ast.Assign object at 0x732eead99150&#45;&gt;ast.Constant object at 0x732eead98f90 -->
<g id="edge49" class="edge">
<title>ast.Assign object at 0x732eead99150&#45;&gt;ast.Constant object at 0x732eead98f90</title>
<path fill="none" stroke="black" d="M723.3,-575.7C727.79,-567.64 733.22,-557.89 738.19,-548.98"/>
<polygon fill="black" stroke="black" points="741.32,-550.54 743.13,-540.1 735.21,-547.14 741.32,-550.54"/>
</g>
<!-- ast.Name object at 0x732eead99010&#45;&gt;ast.Store object at 0x732eecfbda50 -->
<g id="edge48" class="edge">
<title>ast.Name object at 0x732eead99010&#45;&gt;ast.Store object at 0x732eecfbda50</title>
<path fill="none" stroke="black" d="M673.86,-503.85C672.13,-466.83 668.04,-379.18 665.94,-334.39"/>
<polygon fill="black" stroke="black" points="669.43,-334.06 665.47,-324.23 662.44,-334.38 669.43,-334.06"/>
</g>
<!-- ast.Tuple object at 0x732eead99c50 -->
<g id="node38" class="node">
<title>ast.Tuple object at 0x732eead99c50</title>
<path fill="#66cdaa" stroke="black" d="M822.66,-468C822.66,-468 792.66,-468 792.66,-468 786.66,-468 780.66,-462 780.66,-456 780.66,-456 780.66,-444 780.66,-444 780.66,-438 786.66,-432 792.66,-432 792.66,-432 822.66,-432 822.66,-432 828.66,-432 834.66,-438 834.66,-444 834.66,-444 834.66,-456 834.66,-456 834.66,-462 828.66,-468 822.66,-468"/>
<text text-anchor="middle" x="807.66" y="-446.3" font-family="Times,serif" font-size="14.00">Tuple</text>
</g>
<!-- ast.For object at 0x732eead99c10&#45;&gt;ast.Tuple object at 0x732eead99c50 -->
<g id="edge51" class="edge">
<title>ast.For object at 0x732eead99c10&#45;&gt;ast.Tuple object at 0x732eead99c50</title>
<path fill="none" stroke="black" d="M887.69,-575.87C871.9,-551.24 842.68,-505.64 824.25,-476.88"/>
<polygon fill="black" stroke="black" points="827.02,-474.72 818.68,-468.19 821.13,-478.5 827.02,-474.72"/>
</g>
<!-- ast.Call object at 0x732eead99ed0 -->
<g id="node41" class="node">
<title>ast.Call object at 0x732eead99ed0</title>
<path fill="#66cdaa" stroke="black" d="M1092.66,-540C1092.66,-540 1062.66,-540 1062.66,-540 1056.66,-540 1050.66,-534 1050.66,-528 1050.66,-528 1050.66,-516 1050.66,-516 1050.66,-510 1056.66,-504 1062.66,-504 1062.66,-504 1092.66,-504 1092.66,-504 1098.66,-504 1104.66,-510 1104.66,-516 1104.66,-516 1104.66,-528 1104.66,-528 1104.66,-534 1098.66,-540 1092.66,-540"/>
<text text-anchor="middle" x="1077.66" y="-518.3" font-family="Times,serif" font-size="14.00">Call</text>
</g>
<!-- ast.For object at 0x732eead99c10&#45;&gt;ast.Call object at 0x732eead99ed0 -->
<g id="edge57" class="edge">
<title>ast.For object at 0x732eead99c10&#45;&gt;ast.Call object at 0x732eead99ed0</title>
<path fill="none" stroke="black" d="M925.85,-582.37C956.56,-570.36 1006.7,-550.75 1040.89,-537.38"/>
<polygon fill="black" stroke="black" points="1042.48,-540.52 1050.51,-533.62 1039.93,-534 1042.48,-540.52"/>
</g>
<!-- ast.If object at 0x732eead981d0 -->
<g id="node44" class="node">
<title>ast.If object at 0x732eead981d0</title>
<path fill="#66cdaa" stroke="black" d="M976.66,-540C976.66,-540 946.66,-540 946.66,-540 940.66,-540 934.66,-534 934.66,-528 934.66,-528 934.66,-516 934.66,-516 934.66,-510 940.66,-504 946.66,-504 946.66,-504 976.66,-504 976.66,-504 982.66,-504 988.66,-510 988.66,-516 988.66,-516 988.66,-528 988.66,-528 988.66,-534 982.66,-540 976.66,-540"/>
<text text-anchor="middle" x="961.66" y="-518.3" font-family="Times,serif" font-size="14.00">If</text>
</g>
<!-- ast.For object at 0x732eead99c10&#45;&gt;ast.If object at 0x732eead981d0 -->
<g id="edge62" class="edge">
<title>ast.For object at 0x732eead99c10&#45;&gt;ast.If object at 0x732eead981d0</title>
<path fill="none" stroke="black" d="M914.24,-575.7C921.87,-567.22 931.19,-556.86 939.54,-547.58"/>
<polygon fill="black" stroke="black" points="942.18,-549.88 946.27,-540.1 936.98,-545.2 942.18,-549.88"/>
</g>
<!-- ast.Tuple object at 0x732eead99c50&#45;&gt;ast.Store object at 0x732eecfbda50 -->
<g id="edge56" class="edge">
<title>ast.Tuple object at 0x732eead99c50&#45;&gt;ast.Store object at 0x732eecfbda50</title>
<path fill="none" stroke="black" d="M815.39,-431.82C822.81,-412.47 830.84,-381 815.66,-360 785.78,-318.65 754.56,-341.58 706.66,-324 704.84,-323.33 702.97,-322.63 701.09,-321.91"/>
<polygon fill="black" stroke="black" points="702.26,-318.61 691.67,-318.24 699.72,-325.13 702.26,-318.61"/>
</g>
<!-- ast.Name object at 0x732eead98550 -->
<g id="node39" class="node">
<title>ast.Name object at 0x732eead98550</title>
<path fill="#66cdaa" stroke="black" d="M722.66,-396C722.66,-396 692.66,-396 692.66,-396 686.66,-396 680.66,-390 680.66,-384 680.66,-384 680.66,-372 680.66,-372 680.66,-366 686.66,-360 692.66,-360 692.66,-360 722.66,-360 722.66,-360 728.66,-360 734.66,-366 734.66,-372 734.66,-372 734.66,-384 734.66,-384 734.66,-390 728.66,-396 722.66,-396"/>
<text text-anchor="middle" x="707.66" y="-374.3" font-family="Times,serif" font-size="14.00">Name</text>
</g>
<!-- ast.Tuple object at 0x732eead99c50&#45;&gt;ast.Name object at 0x732eead98550 -->
<g id="edge52" class="edge">
<title>ast.Tuple object at 0x732eead99c50&#45;&gt;ast.Name object at 0x732eead98550</title>
<path fill="none" stroke="black" d="M783.2,-431.88C770.37,-422.89 754.47,-411.76 740.57,-402.03"/>
<polygon fill="black" stroke="black" points="742.42,-399.06 732.22,-396.19 738.41,-404.79 742.42,-399.06"/>
</g>
<!-- ast.Name object at 0x732eead99a50 -->
<g id="node40" class="node">
<title>ast.Name object at 0x732eead99a50</title>
<path fill="#66cdaa" stroke="black" d="M794.66,-396C794.66,-396 764.66,-396 764.66,-396 758.66,-396 752.66,-390 752.66,-384 752.66,-384 752.66,-372 752.66,-372 752.66,-366 758.66,-360 764.66,-360 764.66,-360 794.66,-360 794.66,-360 800.66,-360 806.66,-366 806.66,-372 806.66,-372 806.66,-384 806.66,-384 806.66,-390 800.66,-396 794.66,-396"/>
<text text-anchor="middle" x="779.66" y="-374.3" font-family="Times,serif" font-size="14.00">Name</text>
</g>
<!-- ast.Tuple object at 0x732eead99c50&#45;&gt;ast.Name object at 0x732eead99a50 -->
<g id="edge54" class="edge">
<title>ast.Tuple object at 0x732eead99c50&#45;&gt;ast.Name object at 0x732eead99a50</title>
<path fill="none" stroke="black" d="M800.74,-431.7C797.59,-423.81 793.78,-414.3 790.28,-405.55"/>
<polygon fill="black" stroke="black" points="793.47,-404.09 786.5,-396.1 786.97,-406.69 793.47,-404.09"/>
</g>
<!-- ast.Name object at 0x732eead98550&#45;&gt;ast.Store object at 0x732eecfbda50 -->
<g id="edge53" class="edge">
<title>ast.Name object at 0x732eead98550&#45;&gt;ast.Store object at 0x732eecfbda50</title>
<path fill="none" stroke="black" d="M697.03,-359.7C692.04,-351.56 685.97,-341.69 680.45,-332.7"/>
<polygon fill="black" stroke="black" points="683.39,-330.79 675.17,-324.1 677.42,-334.46 683.39,-330.79"/>
</g>
<!-- ast.Name object at 0x732eead99a50&#45;&gt;ast.Store object at 0x732eecfbda50 -->
<g id="edge55" class="edge">
<title>ast.Name object at 0x732eead99a50&#45;&gt;ast.Store object at 0x732eecfbda50</title>
<path fill="none" stroke="black" d="M752.41,-360.41C736.94,-351 717.39,-339.1 700.67,-328.92"/>
<polygon fill="black" stroke="black" points="702.08,-325.68 691.72,-323.47 698.44,-331.66 702.08,-325.68"/>
</g>
<!-- ast.Attribute object at 0x732eead98d10 -->
<g id="node42" class="node">
<title>ast.Attribute object at 0x732eead98d10</title>
<path fill="#66cdaa" stroke="black" d="M1333.16,-180C1333.16,-180 1292.16,-180 1292.16,-180 1286.16,-180 1280.16,-174 1280.16,-168 1280.16,-168 1280.16,-156 1280.16,-156 1280.16,-150 1286.16,-144 1292.16,-144 1292.16,-144 1333.16,-144 1333.16,-144 1339.16,-144 1345.16,-150 1345.16,-156 1345.16,-156 1345.16,-168 1345.16,-168 1345.16,-174 1339.16,-180 1333.16,-180"/>
<text text-anchor="middle" x="1312.66" y="-158.3" font-family="Times,serif" font-size="14.00">Attribute</text>
</g>
<!-- ast.Call object at 0x732eead99ed0&#45;&gt;ast.Attribute object at 0x732eead98d10 -->
<g id="edge58" class="edge">
<title>ast.Call object at 0x732eead99ed0&#45;&gt;ast.Attribute object at 0x732eead98d10</title>
<path fill="none" stroke="black" d="M1092.08,-503.89C1112.05,-478.42 1145.66,-428.2 1145.66,-379 1145.66,-379 1145.66,-379 1145.66,-305 1145.66,-271.25 1225.81,-216.11 1275.06,-185.42"/>
<polygon fill="black" stroke="black" points="1276.9,-188.39 1283.57,-180.16 1273.23,-182.44 1276.9,-188.39"/>
</g>
<!-- ast.Attribute object at 0x732eead98d10&#45;&gt;ast.Load object at 0x732eecfbd9d0 -->
<g id="edge61" class="edge">
<title>ast.Attribute object at 0x732eead98d10&#45;&gt;ast.Load object at 0x732eecfbd9d0</title>
<path fill="none" stroke="black" d="M1312.23,-143.73C1310.68,-123.05 1304.7,-89.08 1282.66,-72 1227.96,-29.61 735.35,-20.96 594.26,-19.34"/>
<polygon fill="black" stroke="black" points="594.01,-15.84 583.97,-19.23 593.93,-22.84 594.01,-15.84"/>
</g>
<!-- ast.Name object at 0x732eead99910 -->
<g id="node43" class="node">
<title>ast.Name object at 0x732eead99910</title>
<path fill="#66cdaa" stroke="black" d="M1261.66,-108C1261.66,-108 1231.66,-108 1231.66,-108 1225.66,-108 1219.66,-102 1219.66,-96 1219.66,-96 1219.66,-84 1219.66,-84 1219.66,-78 1225.66,-72 1231.66,-72 1231.66,-72 1261.66,-72 1261.66,-72 1267.66,-72 1273.66,-78 1273.66,-84 1273.66,-84 1273.66,-96 1273.66,-96 1273.66,-102 1267.66,-108 1261.66,-108"/>
<text text-anchor="middle" x="1246.66" y="-86.3" font-family="Times,serif" font-size="14.00">Name</text>
</g>
<!-- ast.Attribute object at 0x732eead98d10&#45;&gt;ast.Name object at 0x732eead99910 -->
<g id="edge59" class="edge">
<title>ast.Attribute object at 0x732eead98d10&#45;&gt;ast.Name object at 0x732eead99910</title>
<path fill="none" stroke="black" d="M1296.35,-143.7C1288.36,-135.22 1278.59,-124.86 1269.84,-115.58"/>
<polygon fill="black" stroke="black" points="1272.2,-112.98 1262.79,-108.1 1267.1,-117.78 1272.2,-112.98"/>
</g>
<!-- ast.Name object at 0x732eead99910&#45;&gt;ast.Load object at 0x732eecfbd9d0 -->
<g id="edge60" class="edge">
<title>ast.Name object at 0x732eead99910&#45;&gt;ast.Load object at 0x732eecfbd9d0</title>
<path fill="none" stroke="black" d="M1219.27,-76.27C1214.8,-74.6 1210.16,-73.09 1205.66,-72 1088.2,-43.59 714.28,-25.67 594.18,-20.53"/>
<polygon fill="black" stroke="black" points="594.16,-17.03 584.02,-20.1 593.86,-24.02 594.16,-17.03"/>
</g>
<!-- ast.BoolOp object at 0x732eead988d0 -->
<g id="node45" class="node">
<title>ast.BoolOp object at 0x732eead988d0</title>
<path fill="#66cdaa" stroke="black" d="M1058.16,-324C1058.16,-324 1023.16,-324 1023.16,-324 1017.16,-324 1011.16,-318 1011.16,-312 1011.16,-312 1011.16,-300 1011.16,-300 1011.16,-294 1017.16,-288 1023.16,-288 1023.16,-288 1058.16,-288 1058.16,-288 1064.16,-288 1070.16,-294 1070.16,-300 1070.16,-300 1070.16,-312 1070.16,-312 1070.16,-318 1064.16,-324 1058.16,-324"/>
<text text-anchor="middle" x="1040.66" y="-302.3" font-family="Times,serif" font-size="14.00">BoolOp</text>
</g>
<!-- ast.If object at 0x732eead981d0&#45;&gt;ast.BoolOp object at 0x732eead988d0 -->
<g id="edge63" class="edge">
<title>ast.If object at 0x732eead981d0&#45;&gt;ast.BoolOp object at 0x732eead988d0</title>
<path fill="none" stroke="black" d="M984.42,-503.68C1010.89,-481.92 1053.07,-441.84 1069.66,-396 1077.3,-374.92 1068.28,-350.71 1058.34,-332.87"/>
<polygon fill="black" stroke="black" points="1061.28,-330.96 1053.15,-324.17 1055.27,-334.55 1061.28,-330.96"/>
</g>
<!-- ast.AugAssign object at 0x732eeac3eed0 -->
<g id="node59" class="node">
<title>ast.AugAssign object at 0x732eeac3eed0</title>
<path fill="#66cdaa" stroke="black" d="M988.16,-468C988.16,-468 935.16,-468 935.16,-468 929.16,-468 923.16,-462 923.16,-456 923.16,-456 923.16,-444 923.16,-444 923.16,-438 929.16,-432 935.16,-432 935.16,-432 988.16,-432 988.16,-432 994.16,-432 1000.16,-438 1000.16,-444 1000.16,-444 1000.16,-456 1000.16,-456 1000.16,-462 994.16,-468 988.16,-468"/>
<text text-anchor="middle" x="961.66" y="-446.3" font-family="Times,serif" font-size="14.00">AugAssign</text>
</g>
<!-- ast.If object at 0x732eead981d0&#45;&gt;ast.AugAssign object at 0x732eeac3eed0 -->
<g id="edge81" class="edge">
<title>ast.If object at 0x732eead981d0&#45;&gt;ast.AugAssign object at 0x732eeac3eed0</title>
<path fill="none" stroke="black" d="M961.66,-503.7C961.66,-495.98 961.66,-486.71 961.66,-478.11"/>
<polygon fill="black" stroke="black" points="965.16,-478.1 961.66,-468.1 958.16,-478.1 965.16,-478.1"/>
</g>
<!-- ast.And object at 0x732eecfbdc90 -->
<g id="node46" class="node">
<title>ast.And object at 0x732eecfbdc90</title>
<path fill="#66cdaa" stroke="black" d="M934.66,-252C934.66,-252 904.66,-252 904.66,-252 898.66,-252 892.66,-246 892.66,-240 892.66,-240 892.66,-228 892.66,-228 892.66,-222 898.66,-216 904.66,-216 904.66,-216 934.66,-216 934.66,-216 940.66,-216 946.66,-222 946.66,-228 946.66,-228 946.66,-240 946.66,-240 946.66,-246 940.66,-252 934.66,-252"/>
<text text-anchor="middle" x="919.66" y="-230.3" font-family="Times,serif" font-size="14.00">And</text>
</g>
<!-- ast.BoolOp object at 0x732eead988d0&#45;&gt;ast.And object at 0x732eecfbdc90 -->
<g id="edge64" class="edge">
<title>ast.BoolOp object at 0x732eead988d0&#45;&gt;ast.And object at 0x732eecfbdc90</title>
<path fill="none" stroke="black" d="M1011.06,-287.88C994.38,-278.23 973.41,-266.1 955.77,-255.89"/>
<polygon fill="black" stroke="black" points="957.3,-252.73 946.89,-250.75 953.79,-258.79 957.3,-252.73"/>
</g>
<!-- ast.Compare object at 0x732eead99f50 -->
<g id="node47" class="node">
<title>ast.Compare object at 0x732eead99f50</title>
<path fill="#66cdaa" stroke="black" d="M1020.16,-252C1020.16,-252 977.16,-252 977.16,-252 971.16,-252 965.16,-246 965.16,-240 965.16,-240 965.16,-228 965.16,-228 965.16,-222 971.16,-216 977.16,-216 977.16,-216 1020.16,-216 1020.16,-216 1026.16,-216 1032.16,-222 1032.16,-228 1032.16,-228 1032.16,-240 1032.16,-240 1032.16,-246 1026.16,-252 1020.16,-252"/>
<text text-anchor="middle" x="998.66" y="-230.3" font-family="Times,serif" font-size="14.00">Compare</text>
</g>
<!-- ast.BoolOp object at 0x732eead988d0&#45;&gt;ast.Compare object at 0x732eead99f50 -->
<g id="edge65" class="edge">
<title>ast.BoolOp object at 0x732eead988d0&#45;&gt;ast.Compare object at 0x732eead99f50</title>
<path fill="none" stroke="black" d="M1030.28,-287.7C1025.4,-279.56 1019.48,-269.69 1014.08,-260.7"/>
<polygon fill="black" stroke="black" points="1017.07,-258.88 1008.93,-252.1 1011.07,-262.48 1017.07,-258.88"/>
</g>
<!-- ast.Compare object at 0x732eead99cd0 -->
<g id="node53" class="node">
<title>ast.Compare object at 0x732eead99cd0</title>
<path fill="#66cdaa" stroke="black" d="M1105.16,-252C1105.16,-252 1062.16,-252 1062.16,-252 1056.16,-252 1050.16,-246 1050.16,-240 1050.16,-240 1050.16,-228 1050.16,-228 1050.16,-222 1056.16,-216 1062.16,-216 1062.16,-216 1105.16,-216 1105.16,-216 1111.16,-216 1117.16,-222 1117.16,-228 1117.16,-228 1117.16,-240 1117.16,-240 1117.16,-246 1111.16,-252 1105.16,-252"/>
<text text-anchor="middle" x="1083.66" y="-230.3" font-family="Times,serif" font-size="14.00">Compare</text>
</g>
<!-- ast.BoolOp object at 0x732eead988d0&#45;&gt;ast.Compare object at 0x732eead99cd0 -->
<g id="edge73" class="edge">
<title>ast.BoolOp object at 0x732eead988d0&#45;&gt;ast.Compare object at 0x732eead99cd0</title>
<path fill="none" stroke="black" d="M1051.29,-287.7C1056.29,-279.56 1062.35,-269.69 1067.88,-260.7"/>
<polygon fill="black" stroke="black" points="1070.9,-262.46 1073.16,-252.1 1064.94,-258.79 1070.9,-262.46"/>
</g>
<!-- ast.Call object at 0x732eead98210 -->
<g id="node48" class="node">
<title>ast.Call object at 0x732eead98210</title>
<path fill="#66cdaa" stroke="black" d="M1021.66,-180C1021.66,-180 991.66,-180 991.66,-180 985.66,-180 979.66,-174 979.66,-168 979.66,-168 979.66,-156 979.66,-156 979.66,-150 985.66,-144 991.66,-144 991.66,-144 1021.66,-144 1021.66,-144 1027.66,-144 1033.66,-150 1033.66,-156 1033.66,-156 1033.66,-168 1033.66,-168 1033.66,-174 1027.66,-180 1021.66,-180"/>
<text text-anchor="middle" x="1006.66" y="-158.3" font-family="Times,serif" font-size="14.00">Call</text>
</g>
<!-- ast.Compare object at 0x732eead99f50&#45;&gt;ast.Call object at 0x732eead98210 -->
<g id="edge66" class="edge">
<title>ast.Compare object at 0x732eead99f50&#45;&gt;ast.Call object at 0x732eead98210</title>
<path fill="none" stroke="black" d="M1000.64,-215.7C1001.52,-207.98 1002.58,-198.71 1003.56,-190.11"/>
<polygon fill="black" stroke="black" points="1007.05,-190.44 1004.71,-180.1 1000.1,-189.64 1007.05,-190.44"/>
</g>
<!-- ast.GtE object at 0x732eecfbec50 -->
<g id="node51" class="node">
<title>ast.GtE object at 0x732eecfbec50</title>
<path fill="#66cdaa" stroke="black" d="M865.66,-180C865.66,-180 835.66,-180 835.66,-180 829.66,-180 823.66,-174 823.66,-168 823.66,-168 823.66,-156 823.66,-156 823.66,-150 829.66,-144 835.66,-144 835.66,-144 865.66,-144 865.66,-144 871.66,-144 877.66,-150 877.66,-156 877.66,-156 877.66,-168 877.66,-168 877.66,-174 871.66,-180 865.66,-180"/>
<text text-anchor="middle" x="850.66" y="-158.3" font-family="Times,serif" font-size="14.00">GtE</text>
</g>
<!-- ast.Compare object at 0x732eead99f50&#45;&gt;ast.GtE object at 0x732eecfbec50 -->
<g id="edge71" class="edge">
<title>ast.Compare object at 0x732eead99f50&#45;&gt;ast.GtE object at 0x732eecfbec50</title>
<path fill="none" stroke="black" d="M965.08,-217.12C941.74,-206.08 910.66,-191.38 886.79,-180.08"/>
<polygon fill="black" stroke="black" points="888.23,-176.9 877.69,-175.78 885.24,-183.22 888.23,-176.9"/>
</g>
<!-- ast.Constant object at 0x732eead994d0 -->
<g id="node52" class="node">
<title>ast.Constant object at 0x732eead994d0</title>
<path fill="#66cdaa" stroke="black" d="M949.16,-180C949.16,-180 908.16,-180 908.16,-180 902.16,-180 896.16,-174 896.16,-168 896.16,-168 896.16,-156 896.16,-156 896.16,-150 902.16,-144 908.16,-144 908.16,-144 949.16,-144 949.16,-144 955.16,-144 961.16,-150 961.16,-156 961.16,-156 961.16,-168 961.16,-168 961.16,-174 955.16,-180 949.16,-180"/>
<text text-anchor="middle" x="928.66" y="-158.3" font-family="Times,serif" font-size="14.00">Constant</text>
</g>
<!-- ast.Compare object at 0x732eead99f50&#45;&gt;ast.Constant object at 0x732eead994d0 -->
<g id="edge72" class="edge">
<title>ast.Compare object at 0x732eead99f50&#45;&gt;ast.Constant object at 0x732eead994d0</title>
<path fill="none" stroke="black" d="M981.36,-215.7C972.8,-207.14 962.32,-196.66 952.97,-187.3"/>
<polygon fill="black" stroke="black" points="955.31,-184.7 945.77,-180.1 950.36,-189.65 955.31,-184.7"/>
</g>
<!-- ast.Name object at 0x732eead99bd0 -->
<g id="node49" class="node">
<title>ast.Name object at 0x732eead99bd0</title>
<path fill="#66cdaa" stroke="black" d="M1012.66,-108C1012.66,-108 982.66,-108 982.66,-108 976.66,-108 970.66,-102 970.66,-96 970.66,-96 970.66,-84 970.66,-84 970.66,-78 976.66,-72 982.66,-72 982.66,-72 1012.66,-72 1012.66,-72 1018.66,-72 1024.66,-78 1024.66,-84 1024.66,-84 1024.66,-96 1024.66,-96 1024.66,-102 1018.66,-108 1012.66,-108"/>
<text text-anchor="middle" x="997.66" y="-86.3" font-family="Times,serif" font-size="14.00">Name</text>
</g>
<!-- ast.Call object at 0x732eead98210&#45;&gt;ast.Name object at 0x732eead99bd0 -->
<g id="edge67" class="edge">
<title>ast.Call object at 0x732eead98210&#45;&gt;ast.Name object at 0x732eead99bd0</title>
<path fill="none" stroke="black" d="M1004.44,-143.7C1003.45,-135.98 1002.25,-126.71 1001.15,-118.11"/>
<polygon fill="black" stroke="black" points="1004.61,-117.58 999.86,-108.1 997.67,-118.47 1004.61,-117.58"/>
</g>
<!-- ast.Name object at 0x732eead99190 -->
<g id="node50" class="node">
<title>ast.Name object at 0x732eead99190</title>
<path fill="#66cdaa" stroke="black" d="M937.66,-108C937.66,-108 907.66,-108 907.66,-108 901.66,-108 895.66,-102 895.66,-96 895.66,-96 895.66,-84 895.66,-84 895.66,-78 901.66,-72 907.66,-72 907.66,-72 937.66,-72 937.66,-72 943.66,-72 949.66,-78 949.66,-84 949.66,-84 949.66,-96 949.66,-96 949.66,-102 943.66,-108 937.66,-108"/>
<text text-anchor="middle" x="922.66" y="-86.3" font-family="Times,serif" font-size="14.00">Name</text>
</g>
<!-- ast.Call object at 0x732eead98210&#45;&gt;ast.Name object at 0x732eead99190 -->
<g id="edge69" class="edge">
<title>ast.Call object at 0x732eead98210&#45;&gt;ast.Name object at 0x732eead99190</title>
<path fill="none" stroke="black" d="M985.9,-143.7C975.42,-134.97 962.55,-124.24 951.16,-114.75"/>
<polygon fill="black" stroke="black" points="953.11,-111.82 943.19,-108.1 948.63,-117.19 953.11,-111.82"/>
</g>
<!-- ast.Name object at 0x732eead99bd0&#45;&gt;ast.Load object at 0x732eecfbd9d0 -->
<g id="edge68" class="edge">
<title>ast.Name object at 0x732eead99bd0&#45;&gt;ast.Load object at 0x732eecfbd9d0</title>
<path fill="none" stroke="black" d="M970.31,-75.94C966.46,-74.44 962.51,-73.07 958.66,-72 828.02,-35.69 666.4,-24.02 594.37,-20.46"/>
<polygon fill="black" stroke="black" points="594.15,-16.95 584,-19.98 593.83,-23.94 594.15,-16.95"/>
</g>
<!-- ast.Name object at 0x732eead99190&#45;&gt;ast.Load object at 0x732eecfbd9d0 -->
<g id="edge70" class="edge">
<title>ast.Name object at 0x732eead99190&#45;&gt;ast.Load object at 0x732eecfbd9d0</title>
<path fill="none" stroke="black" d="M895.41,-76.95C890.56,-75.1 885.51,-73.36 880.66,-72 779.19,-43.55 655.28,-28.55 594.28,-22.41"/>
<polygon fill="black" stroke="black" points="594.28,-18.89 583.99,-21.4 593.6,-25.86 594.28,-18.89"/>
</g>
<!-- ast.Call object at 0x732eead99250 -->
<g id="node54" class="node">
<title>ast.Call object at 0x732eead99250</title>
<path fill="#66cdaa" stroke="black" d="M1249.66,-180C1249.66,-180 1219.66,-180 1219.66,-180 1213.66,-180 1207.66,-174 1207.66,-168 1207.66,-168 1207.66,-156 1207.66,-156 1207.66,-150 1213.66,-144 1219.66,-144 1219.66,-144 1249.66,-144 1249.66,-144 1255.66,-144 1261.66,-150 1261.66,-156 1261.66,-156 1261.66,-168 1261.66,-168 1261.66,-174 1255.66,-180 1249.66,-180"/>
<text text-anchor="middle" x="1234.66" y="-158.3" font-family="Times,serif" font-size="14.00">Call</text>
</g>
<!-- ast.Compare object at 0x732eead99cd0&#45;&gt;ast.Call object at 0x732eead99250 -->
<g id="edge74" class="edge">
<title>ast.Compare object at 0x732eead99cd0&#45;&gt;ast.Call object at 0x732eead99250</title>
<path fill="none" stroke="black" d="M1117.17,-217.66C1138.15,-208.03 1165.98,-195.22 1198.31,-180.15"/>
<polygon fill="black" stroke="black" points="1199.97,-183.24 1207.55,-175.84 1197.01,-176.89 1199.97,-183.24"/>
</g>
<!-- ast.Gt object at 0x732eecfbebd0 -->
<g id="node57" class="node">
<title>ast.Gt object at 0x732eecfbebd0</title>
<path fill="#66cdaa" stroke="black" d="M1093.66,-180C1093.66,-180 1063.66,-180 1063.66,-180 1057.66,-180 1051.66,-174 1051.66,-168 1051.66,-168 1051.66,-156 1051.66,-156 1051.66,-150 1057.66,-144 1063.66,-144 1063.66,-144 1093.66,-144 1093.66,-144 1099.66,-144 1105.66,-150 1105.66,-156 1105.66,-156 1105.66,-168 1105.66,-168 1105.66,-174 1099.66,-180 1093.66,-180"/>
<text text-anchor="middle" x="1078.66" y="-158.3" font-family="Times,serif" font-size="14.00">Gt</text>
</g>
<!-- ast.Compare object at 0x732eead99cd0&#45;&gt;ast.Gt object at 0x732eecfbebd0 -->
<g id="edge79" class="edge">
<title>ast.Compare object at 0x732eead99cd0&#45;&gt;ast.Gt object at 0x732eecfbebd0</title>
<path fill="none" stroke="black" d="M1082.43,-215.7C1081.88,-207.98 1081.21,-198.71 1080.6,-190.11"/>
<polygon fill="black" stroke="black" points="1084.09,-189.83 1079.88,-180.1 1077.11,-190.33 1084.09,-189.83"/>
</g>
<!-- ast.Constant object at 0x732eead99dd0 -->
<g id="node58" class="node">
<title>ast.Constant object at 0x732eead99dd0</title>
<path fill="#66cdaa" stroke="black" d="M1177.16,-180C1177.16,-180 1136.16,-180 1136.16,-180 1130.16,-180 1124.16,-174 1124.16,-168 1124.16,-168 1124.16,-156 1124.16,-156 1124.16,-150 1130.16,-144 1136.16,-144 1136.16,-144 1177.16,-144 1177.16,-144 1183.16,-144 1189.16,-150 1189.16,-156 1189.16,-156 1189.16,-168 1189.16,-168 1189.16,-174 1183.16,-180 1177.16,-180"/>
<text text-anchor="middle" x="1156.66" y="-158.3" font-family="Times,serif" font-size="14.00">Constant</text>
</g>
<!-- ast.Compare object at 0x732eead99cd0&#45;&gt;ast.Constant object at 0x732eead99dd0 -->
<g id="edge80" class="edge">
<title>ast.Compare object at 0x732eead99cd0&#45;&gt;ast.Constant object at 0x732eead99dd0</title>
<path fill="none" stroke="black" d="M1101.71,-215.7C1110.73,-207.05 1121.78,-196.45 1131.61,-187.03"/>
<polygon fill="black" stroke="black" points="1134.03,-189.55 1138.83,-180.1 1129.19,-184.5 1134.03,-189.55"/>
</g>
<!-- ast.Name object at 0x732eead98250 -->
<g id="node55" class="node">
<title>ast.Name object at 0x732eead98250</title>
<path fill="#66cdaa" stroke="black" d="M1184.66,-108C1184.66,-108 1154.66,-108 1154.66,-108 1148.66,-108 1142.66,-102 1142.66,-96 1142.66,-96 1142.66,-84 1142.66,-84 1142.66,-78 1148.66,-72 1154.66,-72 1154.66,-72 1184.66,-72 1184.66,-72 1190.66,-72 1196.66,-78 1196.66,-84 1196.66,-84 1196.66,-96 1196.66,-96 1196.66,-102 1190.66,-108 1184.66,-108"/>
<text text-anchor="middle" x="1169.66" y="-86.3" font-family="Times,serif" font-size="14.00">Name</text>
</g>
<!-- ast.Call object at 0x732eead99250&#45;&gt;ast.Name object at 0x732eead98250 -->
<g id="edge75" class="edge">
<title>ast.Call object at 0x732eead99250&#45;&gt;ast.Name object at 0x732eead98250</title>
<path fill="none" stroke="black" d="M1218.6,-143.7C1210.72,-135.22 1201.11,-124.86 1192.49,-115.58"/>
<polygon fill="black" stroke="black" points="1194.92,-113.05 1185.55,-108.1 1189.79,-117.81 1194.92,-113.05"/>
</g>
<!-- ast.Name object at 0x732eead98150 -->
<g id="node56" class="node">
<title>ast.Name object at 0x732eead98150</title>
<path fill="#66cdaa" stroke="black" d="M1103.66,-108C1103.66,-108 1073.66,-108 1073.66,-108 1067.66,-108 1061.66,-102 1061.66,-96 1061.66,-96 1061.66,-84 1061.66,-84 1061.66,-78 1067.66,-72 1073.66,-72 1073.66,-72 1103.66,-72 1103.66,-72 1109.66,-72 1115.66,-78 1115.66,-84 1115.66,-84 1115.66,-96 1115.66,-96 1115.66,-102 1109.66,-108 1103.66,-108"/>
<text text-anchor="middle" x="1088.66" y="-86.3" font-family="Times,serif" font-size="14.00">Name</text>
</g>
<!-- ast.Call object at 0x732eead99250&#45;&gt;ast.Name object at 0x732eead98150 -->
<g id="edge77" class="edge">
<title>ast.Call object at 0x732eead99250&#45;&gt;ast.Name object at 0x732eead98150</title>
<path fill="none" stroke="black" d="M1207.54,-148C1184.34,-136.87 1150.72,-120.75 1125.15,-108.5"/>
<polygon fill="black" stroke="black" points="1126.66,-105.34 1116.13,-104.17 1123.64,-111.65 1126.66,-105.34"/>
</g>
<!-- ast.Name object at 0x732eead98250&#45;&gt;ast.Load object at 0x732eecfbd9d0 -->
<g id="edge76" class="edge">
<title>ast.Name object at 0x732eead98250&#45;&gt;ast.Load object at 0x732eecfbd9d0</title>
<path fill="none" stroke="black" d="M1142.42,-77.38C1136.64,-75.29 1130.52,-73.35 1124.66,-72 928.35,-26.63 685.33,-19.9 593.83,-19.05"/>
<polygon fill="black" stroke="black" points="593.71,-15.55 583.68,-18.97 593.66,-22.55 593.71,-15.55"/>
</g>
<!-- ast.Name object at 0x732eead98150&#45;&gt;ast.Load object at 0x732eecfbd9d0 -->
<g id="edge78" class="edge">
<title>ast.Name object at 0x732eead98150&#45;&gt;ast.Load object at 0x732eecfbd9d0</title>
<path fill="none" stroke="black" d="M1061.51,-79.49C1052.72,-76.72 1042.86,-73.91 1033.66,-72 872.06,-38.36 674.92,-25.05 594.02,-20.74"/>
<polygon fill="black" stroke="black" points="594.01,-17.24 583.84,-20.22 593.65,-24.23 594.01,-17.24"/>
</g>
<!-- ast.Name object at 0x732eead99d10 -->
<g id="node60" class="node">
<title>ast.Name object at 0x732eead99d10</title>
<path fill="#66cdaa" stroke="black" d="M904.66,-396C904.66,-396 874.66,-396 874.66,-396 868.66,-396 862.66,-390 862.66,-384 862.66,-384 862.66,-372 862.66,-372 862.66,-366 868.66,-360 874.66,-360 874.66,-360 904.66,-360 904.66,-360 910.66,-360 916.66,-366 916.66,-372 916.66,-372 916.66,-384 916.66,-384 916.66,-390 910.66,-396 904.66,-396"/>
<text text-anchor="middle" x="889.66" y="-374.3" font-family="Times,serif" font-size="14.00">Name</text>
</g>
<!-- ast.AugAssign object at 0x732eeac3eed0&#45;&gt;ast.Name object at 0x732eead99d10 -->
<g id="edge82" class="edge">
<title>ast.AugAssign object at 0x732eeac3eed0&#45;&gt;ast.Name object at 0x732eead99d10</title>
<path fill="none" stroke="black" d="M943.87,-431.7C935.06,-423.14 924.28,-412.66 914.66,-403.3"/>
<polygon fill="black" stroke="black" points="916.87,-400.57 907.26,-396.1 911.99,-405.58 916.87,-400.57"/>
</g>
<!-- ast.Add object at 0x732eecfbded0 -->
<g id="node61" class="node">
<title>ast.Add object at 0x732eecfbded0</title>
<path fill="#66cdaa" stroke="black" d="M976.66,-396C976.66,-396 946.66,-396 946.66,-396 940.66,-396 934.66,-390 934.66,-384 934.66,-384 934.66,-372 934.66,-372 934.66,-366 940.66,-360 946.66,-360 946.66,-360 976.66,-360 976.66,-360 982.66,-360 988.66,-366 988.66,-372 988.66,-372 988.66,-384 988.66,-384 988.66,-390 982.66,-396 976.66,-396"/>
<text text-anchor="middle" x="961.66" y="-374.3" font-family="Times,serif" font-size="14.00">Add</text>
</g>
<!-- ast.AugAssign object at 0x732eeac3eed0&#45;&gt;ast.Add object at 0x732eecfbded0 -->
<g id="edge84" class="edge">
<title>ast.AugAssign object at 0x732eeac3eed0&#45;&gt;ast.Add object at 0x732eecfbded0</title>
<path fill="none" stroke="black" d="M961.66,-431.7C961.66,-423.98 961.66,-414.71 961.66,-406.11"/>
<polygon fill="black" stroke="black" points="965.16,-406.1 961.66,-396.1 958.16,-406.1 965.16,-406.1"/>
</g>
<!-- ast.BinOp object at 0x732eead99d50 -->
<g id="node62" class="node">
<title>ast.BinOp object at 0x732eead99d50</title>
<path fill="#66cdaa" stroke="black" d="M1048.66,-396C1048.66,-396 1018.66,-396 1018.66,-396 1012.66,-396 1006.66,-390 1006.66,-384 1006.66,-384 1006.66,-372 1006.66,-372 1006.66,-366 1012.66,-360 1018.66,-360 1018.66,-360 1048.66,-360 1048.66,-360 1054.66,-360 1060.66,-366 1060.66,-372 1060.66,-372 1060.66,-384 1060.66,-384 1060.66,-390 1054.66,-396 1048.66,-396"/>
<text text-anchor="middle" x="1033.66" y="-374.3" font-family="Times,serif" font-size="14.00">BinOp</text>
</g>
<!-- ast.AugAssign object at 0x732eeac3eed0&#45;&gt;ast.BinOp object at 0x732eead99d50 -->
<g id="edge85" class="edge">
<title>ast.AugAssign object at 0x732eeac3eed0&#45;&gt;ast.BinOp object at 0x732eead99d50</title>
<path fill="none" stroke="black" d="M979.46,-431.7C988.27,-423.14 999.05,-412.66 1008.66,-403.3"/>
<polygon fill="black" stroke="black" points="1011.34,-405.58 1016.07,-396.1 1006.46,-400.57 1011.34,-405.58"/>
</g>
<!-- ast.Name object at 0x732eead99d10&#45;&gt;ast.Store object at 0x732eecfbda50 -->
<g id="edge83" class="edge">
<title>ast.Name object at 0x732eead99d10&#45;&gt;ast.Store object at 0x732eecfbda50</title>
<path fill="none" stroke="black" d="M862.52,-365.1C857.94,-363.28 853.2,-361.51 848.66,-360 786.87,-339.48 768.54,-344.26 706.66,-324 705.02,-323.46 703.35,-322.89 701.66,-322.3"/>
<polygon fill="black" stroke="black" points="702.62,-318.92 692.03,-318.7 700.17,-325.47 702.62,-318.92"/>
</g>
<!-- ast.BinOp object at 0x732eead991d0 -->
<g id="node63" class="node">
<title>ast.BinOp object at 0x732eead991d0</title>
<path fill="#66cdaa" stroke="black" d="M925.66,-324C925.66,-324 895.66,-324 895.66,-324 889.66,-324 883.66,-318 883.66,-312 883.66,-312 883.66,-300 883.66,-300 883.66,-294 889.66,-288 895.66,-288 895.66,-288 925.66,-288 925.66,-288 931.66,-288 937.66,-294 937.66,-300 937.66,-300 937.66,-312 937.66,-312 937.66,-318 931.66,-324 925.66,-324"/>
<text text-anchor="middle" x="910.66" y="-302.3" font-family="Times,serif" font-size="14.00">BinOp</text>
</g>
<!-- ast.BinOp object at 0x732eead99d50&#45;&gt;ast.BinOp object at 0x732eead991d0 -->
<g id="edge86" class="edge">
<title>ast.BinOp object at 0x732eead99d50&#45;&gt;ast.BinOp object at 0x732eead991d0</title>
<path fill="none" stroke="black" d="M1006.37,-361.46C988.77,-351.45 965.7,-338.32 946.61,-327.46"/>
<polygon fill="black" stroke="black" points="948.31,-324.4 937.88,-322.49 944.84,-330.48 948.31,-324.4"/>
</g>
<!-- ast.FloorDiv object at 0x732eecfbe550 -->
<g id="node74" class="node">
<title>ast.FloorDiv object at 0x732eecfbe550</title>
<path fill="#66cdaa" stroke="black" d="M769.66,-324C769.66,-324 727.66,-324 727.66,-324 721.66,-324 715.66,-318 715.66,-312 715.66,-312 715.66,-300 715.66,-300 715.66,-294 721.66,-288 727.66,-288 727.66,-288 769.66,-288 769.66,-288 775.66,-288 781.66,-294 781.66,-300 781.66,-300 781.66,-312 781.66,-312 781.66,-318 775.66,-324 769.66,-324"/>
<text text-anchor="middle" x="748.66" y="-302.3" font-family="Times,serif" font-size="14.00">FloorDiv</text>
</g>
<!-- ast.BinOp object at 0x732eead99d50&#45;&gt;ast.FloorDiv object at 0x732eecfbe550 -->
<g id="edge101" class="edge">
<title>ast.BinOp object at 0x732eead99d50&#45;&gt;ast.FloorDiv object at 0x732eecfbe550</title>
<path fill="none" stroke="black" d="M1006.45,-363.23C1003.53,-362.02 1000.56,-360.92 997.66,-360 909.07,-331.9 881.12,-349.22 791.66,-324 791.56,-323.97 791.46,-323.94 791.36,-323.91"/>
<polygon fill="black" stroke="black" points="792.36,-320.56 781.77,-320.86 790.23,-327.23 792.36,-320.56"/>
</g>
<!-- ast.Constant object at 0x732eead9aad0 -->
<g id="node75" class="node">
<title>ast.Constant object at 0x732eead9aad0</title>
<path fill="#66cdaa" stroke="black" d="M853.16,-324C853.16,-324 812.16,-324 812.16,-324 806.16,-324 800.16,-318 800.16,-312 800.16,-312 800.16,-300 800.16,-300 800.16,-294 806.16,-288 812.16,-288 812.16,-288 853.16,-288 853.16,-288 859.16,-288 865.16,-294 865.16,-300 865.16,-300 865.16,-312 865.16,-312 865.16,-318 859.16,-324 853.16,-324"/>
<text text-anchor="middle" x="832.66" y="-302.3" font-family="Times,serif" font-size="14.00">Constant</text>
</g>
<!-- ast.BinOp object at 0x732eead99d50&#45;&gt;ast.Constant object at 0x732eead9aad0 -->
<g id="edge102" class="edge">
<title>ast.BinOp object at 0x732eead99d50&#45;&gt;ast.Constant object at 0x732eead9aad0</title>
<path fill="none" stroke="black" d="M1006.34,-363.56C1003.44,-362.29 1000.51,-361.08 997.66,-360 947.22,-340.84 930.25,-342.46 875.13,-323.96"/>
<polygon fill="black" stroke="black" points="876.15,-320.61 865.56,-320.68 873.88,-327.23 876.15,-320.61"/>
</g>
<!-- ast.Call object at 0x732eead99c90 -->
<g id="node64" class="node">
<title>ast.Call object at 0x732eead99c90</title>
<path fill="#66cdaa" stroke="black" d="M565.66,-180C565.66,-180 535.66,-180 535.66,-180 529.66,-180 523.66,-174 523.66,-168 523.66,-168 523.66,-156 523.66,-156 523.66,-150 529.66,-144 535.66,-144 535.66,-144 565.66,-144 565.66,-144 571.66,-144 577.66,-150 577.66,-156 577.66,-156 577.66,-168 577.66,-168 577.66,-174 571.66,-180 565.66,-180"/>
<text text-anchor="middle" x="550.66" y="-158.3" font-family="Times,serif" font-size="14.00">Call</text>
</g>
<!-- ast.BinOp object at 0x732eead991d0&#45;&gt;ast.Call object at 0x732eead99c90 -->
<g id="edge87" class="edge">
<title>ast.BinOp object at 0x732eead991d0&#45;&gt;ast.Call object at 0x732eead99c90</title>
<path fill="none" stroke="black" d="M883.45,-291.23C880.53,-290.03 877.56,-288.92 874.66,-288 786.93,-260.1 755.23,-288.4 670.66,-252 634.22,-236.32 598.48,-207.6 575.62,-187.02"/>
<polygon fill="black" stroke="black" points="577.83,-184.3 568.09,-180.12 573.1,-189.46 577.83,-184.3"/>
</g>
<!-- ast.Mult object at 0x732eecfbdfd0 -->
<g id="node67" class="node">
<title>ast.Mult object at 0x732eecfbdfd0</title>
<path fill="#66cdaa" stroke="black" d="M721.66,-252C721.66,-252 691.66,-252 691.66,-252 685.66,-252 679.66,-246 679.66,-240 679.66,-240 679.66,-228 679.66,-228 679.66,-222 685.66,-216 691.66,-216 691.66,-216 721.66,-216 721.66,-216 727.66,-216 733.66,-222 733.66,-228 733.66,-228 733.66,-240 733.66,-240 733.66,-246 727.66,-252 721.66,-252"/>
<text text-anchor="middle" x="706.66" y="-230.3" font-family="Times,serif" font-size="14.00">Mult</text>
</g>
<!-- ast.BinOp object at 0x732eead991d0&#45;&gt;ast.Mult object at 0x732eecfbdfd0 -->
<g id="edge92" class="edge">
<title>ast.BinOp object at 0x732eead991d0&#45;&gt;ast.Mult object at 0x732eecfbdfd0</title>
<path fill="none" stroke="black" d="M883.36,-291.5C880.45,-290.25 877.52,-289.05 874.66,-288 820.52,-268.01 801.63,-272.51 743.63,-252.01"/>
<polygon fill="black" stroke="black" points="744.56,-248.63 733.97,-248.5 742.17,-255.21 744.56,-248.63"/>
</g>
<!-- ast.BinOp object at 0x732eead99410 -->
<g id="node68" class="node">
<title>ast.BinOp object at 0x732eead99410</title>
<path fill="#66cdaa" stroke="black" d="M793.66,-252C793.66,-252 763.66,-252 763.66,-252 757.66,-252 751.66,-246 751.66,-240 751.66,-240 751.66,-228 751.66,-228 751.66,-222 757.66,-216 763.66,-216 763.66,-216 793.66,-216 793.66,-216 799.66,-216 805.66,-222 805.66,-228 805.66,-228 805.66,-240 805.66,-240 805.66,-246 799.66,-252 793.66,-252"/>
<text text-anchor="middle" x="778.66" y="-230.3" font-family="Times,serif" font-size="14.00">BinOp</text>
</g>
<!-- ast.BinOp object at 0x732eead991d0&#45;&gt;ast.BinOp object at 0x732eead99410 -->
<g id="edge93" class="edge">
<title>ast.BinOp object at 0x732eead991d0&#45;&gt;ast.BinOp object at 0x732eead99410</title>
<path fill="none" stroke="black" d="M883.63,-290.67C863.83,-280.17 836.74,-265.8 815.04,-254.29"/>
<polygon fill="black" stroke="black" points="816.59,-251.15 806.11,-249.56 813.31,-257.33 816.59,-251.15"/>
</g>
<!-- ast.Name object at 0x732eead98490 -->
<g id="node65" class="node">
<title>ast.Name object at 0x732eead98490</title>
<path fill="#66cdaa" stroke="black" d="M715.66,-108C715.66,-108 685.66,-108 685.66,-108 679.66,-108 673.66,-102 673.66,-96 673.66,-96 673.66,-84 673.66,-84 673.66,-78 679.66,-72 685.66,-72 685.66,-72 715.66,-72 715.66,-72 721.66,-72 727.66,-78 727.66,-84 727.66,-84 727.66,-96 727.66,-96 727.66,-102 721.66,-108 715.66,-108"/>
<text text-anchor="middle" x="700.66" y="-86.3" font-family="Times,serif" font-size="14.00">Name</text>
</g>
<!-- ast.Call object at 0x732eead99c90&#45;&gt;ast.Name object at 0x732eead98490 -->
<g id="edge88" class="edge">
<title>ast.Call object at 0x732eead99c90&#45;&gt;ast.Name object at 0x732eead98490</title>
<path fill="none" stroke="black" d="M577.78,-148.16C580.77,-146.76 583.78,-145.35 586.66,-144 618.69,-129.05 628.62,-124.77 664.42,-108.1"/>
<polygon fill="black" stroke="black" points="665.97,-111.24 673.55,-103.84 663.01,-104.89 665.97,-111.24"/>
</g>
<!-- ast.Name object at 0x732eead98110 -->
<g id="node66" class="node">
<title>ast.Name object at 0x732eead98110</title>
<path fill="#66cdaa" stroke="black" d="M643.66,-108C643.66,-108 613.66,-108 613.66,-108 607.66,-108 601.66,-102 601.66,-96 601.66,-96 601.66,-84 601.66,-84 601.66,-78 607.66,-72 613.66,-72 613.66,-72 643.66,-72 643.66,-72 649.66,-72 655.66,-78 655.66,-84 655.66,-84 655.66,-96 655.66,-96 655.66,-102 649.66,-108 643.66,-108"/>
<text text-anchor="middle" x="628.66" y="-86.3" font-family="Times,serif" font-size="14.00">Name</text>
</g>
<!-- ast.Call object at 0x732eead99c90&#45;&gt;ast.Name object at 0x732eead98110 -->
<g id="edge90" class="edge">
<title>ast.Call object at 0x732eead99c90&#45;&gt;ast.Name object at 0x732eead98110</title>
<path fill="none" stroke="black" d="M569.94,-143.7C579.58,-135.05 591.39,-124.45 601.89,-115.03"/>
<polygon fill="black" stroke="black" points="604.5,-117.39 609.6,-108.1 599.82,-112.18 604.5,-117.39"/>
</g>
<!-- ast.Name object at 0x732eead98490&#45;&gt;ast.Load object at 0x732eecfbd9d0 -->
<g id="edge89" class="edge">
<title>ast.Name object at 0x732eead98490&#45;&gt;ast.Load object at 0x732eecfbd9d0</title>
<path fill="none" stroke="black" d="M673.58,-75.83C650.89,-64.81 618.31,-48.97 593.3,-36.81"/>
<polygon fill="black" stroke="black" points="594.64,-33.57 584.12,-32.35 591.58,-39.87 594.64,-33.57"/>
</g>
<!-- ast.Name object at 0x732eead98110&#45;&gt;ast.Load object at 0x732eecfbd9d0 -->
<g id="edge91" class="edge">
<title>ast.Name object at 0x732eead98110&#45;&gt;ast.Load object at 0x732eecfbd9d0</title>
<path fill="none" stroke="black" d="M610.87,-71.7C602.06,-63.14 591.28,-52.66 581.66,-43.3"/>
<polygon fill="black" stroke="black" points="583.87,-40.57 574.26,-36.1 578.99,-45.58 583.87,-40.57"/>
</g>
<!-- ast.Call object at 0x732eead99790 -->
<g id="node69" class="node">
<title>ast.Call object at 0x732eead99790</title>
<path fill="#66cdaa" stroke="black" d="M793.66,-180C793.66,-180 763.66,-180 763.66,-180 757.66,-180 751.66,-174 751.66,-168 751.66,-168 751.66,-156 751.66,-156 751.66,-150 757.66,-144 763.66,-144 763.66,-144 793.66,-144 793.66,-144 799.66,-144 805.66,-150 805.66,-156 805.66,-156 805.66,-168 805.66,-168 805.66,-174 799.66,-180 793.66,-180"/>
<text text-anchor="middle" x="778.66" y="-158.3" font-family="Times,serif" font-size="14.00">Call</text>
</g>
<!-- ast.BinOp object at 0x732eead99410&#45;&gt;ast.Call object at 0x732eead99790 -->
<g id="edge94" class="edge">
<title>ast.BinOp object at 0x732eead99410&#45;&gt;ast.Call object at 0x732eead99790</title>
<path fill="none" stroke="black" d="M778.66,-215.7C778.66,-207.98 778.66,-198.71 778.66,-190.11"/>
<polygon fill="black" stroke="black" points="782.16,-190.1 778.66,-180.1 775.16,-190.1 782.16,-190.1"/>
</g>
<!-- ast.Sub object at 0x732eecfbdf50 -->
<g id="node72" class="node">
<title>ast.Sub object at 0x732eecfbdf50</title>
<path fill="#66cdaa" stroke="black" d="M637.66,-180C637.66,-180 607.66,-180 607.66,-180 601.66,-180 595.66,-174 595.66,-168 595.66,-168 595.66,-156 595.66,-156 595.66,-150 601.66,-144 607.66,-144 607.66,-144 637.66,-144 637.66,-144 643.66,-144 649.66,-150 649.66,-156 649.66,-156 649.66,-168 649.66,-168 649.66,-174 643.66,-180 637.66,-180"/>
<text text-anchor="middle" x="622.66" y="-158.3" font-family="Times,serif" font-size="14.00">Sub</text>
</g>
<!-- ast.BinOp object at 0x732eead99410&#45;&gt;ast.Sub object at 0x732eecfbdf50 -->
<g id="edge99" class="edge">
<title>ast.BinOp object at 0x732eead99410&#45;&gt;ast.Sub object at 0x732eecfbdf50</title>
<path fill="none" stroke="black" d="M751.58,-220.1C748.58,-218.7 745.56,-217.31 742.66,-216 706.03,-199.41 696.38,-196.39 659.66,-180 659.46,-179.91 659.26,-179.82 659.06,-179.73"/>
<polygon fill="black" stroke="black" points="660.27,-176.43 649.71,-175.51 657.38,-182.81 660.27,-176.43"/>
</g>
<!-- ast.Constant object at 0x732eead984d0 -->
<g id="node73" class="node">
<title>ast.Constant object at 0x732eead984d0</title>
<path fill="#66cdaa" stroke="black" d="M721.16,-180C721.16,-180 680.16,-180 680.16,-180 674.16,-180 668.16,-174 668.16,-168 668.16,-168 668.16,-156 668.16,-156 668.16,-150 674.16,-144 680.16,-144 680.16,-144 721.16,-144 721.16,-144 727.16,-144 733.16,-150 733.16,-156 733.16,-156 733.16,-168 733.16,-168 733.16,-174 727.16,-180 721.16,-180"/>
<text text-anchor="middle" x="700.66" y="-158.3" font-family="Times,serif" font-size="14.00">Constant</text>
</g>
<!-- ast.BinOp object at 0x732eead99410&#45;&gt;ast.Constant object at 0x732eead984d0 -->
<g id="edge100" class="edge">
<title>ast.BinOp object at 0x732eead99410&#45;&gt;ast.Constant object at 0x732eead984d0</title>
<path fill="none" stroke="black" d="M759.38,-215.7C749.75,-207.05 737.93,-196.45 727.44,-187.03"/>
<polygon fill="black" stroke="black" points="729.5,-184.18 719.72,-180.1 724.83,-189.39 729.5,-184.18"/>
</g>
<!-- ast.Name object at 0x732eead98510 -->
<g id="node70" class="node">
<title>ast.Name object at 0x732eead98510</title>
<path fill="#66cdaa" stroke="black" d="M859.66,-108C859.66,-108 829.66,-108 829.66,-108 823.66,-108 817.66,-102 817.66,-96 817.66,-96 817.66,-84 817.66,-84 817.66,-78 823.66,-72 829.66,-72 829.66,-72 859.66,-72 859.66,-72 865.66,-72 871.66,-78 871.66,-84 871.66,-84 871.66,-96 871.66,-96 871.66,-102 865.66,-108 859.66,-108"/>
<text text-anchor="middle" x="844.66" y="-86.3" font-family="Times,serif" font-size="14.00">Name</text>
</g>
<!-- ast.Call object at 0x732eead99790&#45;&gt;ast.Name object at 0x732eead98510 -->
<g id="edge95" class="edge">
<title>ast.Call object at 0x732eead99790&#45;&gt;ast.Name object at 0x732eead98510</title>
<path fill="none" stroke="black" d="M794.98,-143.7C802.97,-135.22 812.73,-124.86 821.49,-115.58"/>
<polygon fill="black" stroke="black" points="824.22,-117.78 828.54,-108.1 819.13,-112.98 824.22,-117.78"/>
</g>
<!-- ast.Name object at 0x732eead987d0 -->
<g id="node71" class="node">
<title>ast.Name object at 0x732eead987d0</title>
<path fill="#66cdaa" stroke="black" d="M787.66,-108C787.66,-108 757.66,-108 757.66,-108 751.66,-108 745.66,-102 745.66,-96 745.66,-96 745.66,-84 745.66,-84 745.66,-78 751.66,-72 757.66,-72 757.66,-72 787.66,-72 787.66,-72 793.66,-72 799.66,-78 799.66,-84 799.66,-84 799.66,-96 799.66,-96 799.66,-102 793.66,-108 787.66,-108"/>
<text text-anchor="middle" x="772.66" y="-86.3" font-family="Times,serif" font-size="14.00">Name</text>
</g>
<!-- ast.Call object at 0x732eead99790&#45;&gt;ast.Name object at 0x732eead987d0 -->
<g id="edge97" class="edge">
<title>ast.Call object at 0x732eead99790&#45;&gt;ast.Name object at 0x732eead987d0</title>
<path fill="none" stroke="black" d="M777.18,-143.7C776.52,-135.98 775.72,-126.71 774.99,-118.11"/>
<polygon fill="black" stroke="black" points="778.47,-117.77 774.13,-108.1 771.5,-118.37 778.47,-117.77"/>
</g>
<!-- ast.Name object at 0x732eead98510&#45;&gt;ast.Load object at 0x732eecfbd9d0 -->
<g id="edge96" class="edge">
<title>ast.Name object at 0x732eead98510&#45;&gt;ast.Load object at 0x732eecfbd9d0</title>
<path fill="none" stroke="black" d="M817.42,-75.33C814.5,-74.11 811.55,-72.97 808.66,-72 734.28,-47 643.44,-31.37 593.67,-24.01"/>
<polygon fill="black" stroke="black" points="594.09,-20.53 583.69,-22.56 593.09,-27.46 594.09,-20.53"/>
</g>
<!-- ast.Name object at 0x732eead987d0&#45;&gt;ast.Load object at 0x732eecfbd9d0 -->
<g id="edge98" class="edge">
<title>ast.Name object at 0x732eead987d0&#45;&gt;ast.Load object at 0x732eecfbd9d0</title>
<path fill="none" stroke="black" d="M745.34,-75.56C742.43,-74.29 739.51,-73.08 736.66,-72 688.24,-53.57 630.51,-37.58 593.73,-28.12"/>
<polygon fill="black" stroke="black" points="594.49,-24.7 583.93,-25.62 592.76,-31.48 594.49,-24.7"/>
</g>
<!-- ast.Compare object at 0x732eead99890 -->
<g id="node77" class="node">
<title>ast.Compare object at 0x732eead99890</title>
<path fill="#66cdaa" stroke="black" d="M1222.16,-540C1222.16,-540 1179.16,-540 1179.16,-540 1173.16,-540 1167.16,-534 1167.16,-528 1167.16,-528 1167.16,-516 1167.16,-516 1167.16,-510 1173.16,-504 1179.16,-504 1179.16,-504 1222.16,-504 1222.16,-504 1228.16,-504 1234.16,-510 1234.16,-516 1234.16,-516 1234.16,-528 1234.16,-528 1234.16,-534 1228.16,-540 1222.16,-540"/>
<text text-anchor="middle" x="1200.66" y="-518.3" font-family="Times,serif" font-size="14.00">Compare</text>
</g>
<!-- ast.Return object at 0x732eead98e90&#45;&gt;ast.Compare object at 0x732eead99890 -->
<g id="edge104" class="edge">
<title>ast.Return object at 0x732eead98e90&#45;&gt;ast.Compare object at 0x732eead99890</title>
<path fill="none" stroke="black" d="M1111.86,-576.59C1127.23,-567.31 1146.66,-555.59 1163.43,-545.47"/>
<polygon fill="black" stroke="black" points="1165.67,-548.2 1172.43,-540.04 1162.06,-542.21 1165.67,-548.2"/>
</g>
<!-- ast.Name object at 0x732eead98e50 -->
<g id="node78" class="node">
<title>ast.Name object at 0x732eead98e50</title>
<path fill="#66cdaa" stroke="black" d="M1377.66,-468C1377.66,-468 1347.66,-468 1347.66,-468 1341.66,-468 1335.66,-462 1335.66,-456 1335.66,-456 1335.66,-444 1335.66,-444 1335.66,-438 1341.66,-432 1347.66,-432 1347.66,-432 1377.66,-432 1377.66,-432 1383.66,-432 1389.66,-438 1389.66,-444 1389.66,-444 1389.66,-456 1389.66,-456 1389.66,-462 1383.66,-468 1377.66,-468"/>
<text text-anchor="middle" x="1362.66" y="-446.3" font-family="Times,serif" font-size="14.00">Name</text>
</g>
<!-- ast.Compare object at 0x732eead99890&#45;&gt;ast.Name object at 0x732eead98e50 -->
<g id="edge105" class="edge">
<title>ast.Compare object at 0x732eead99890&#45;&gt;ast.Name object at 0x732eead98e50</title>
<path fill="none" stroke="black" d="M1234.23,-506.5C1261.09,-494.89 1298.7,-478.64 1326.27,-466.72"/>
<polygon fill="black" stroke="black" points="1327.79,-469.88 1335.58,-462.7 1325.01,-463.46 1327.79,-469.88"/>
</g>
<!-- ast.LtE object at 0x732eecfbeb50 -->
<g id="node79" class="node">
<title>ast.LtE object at 0x732eecfbeb50</title>
<path fill="#66cdaa" stroke="black" d="M1215.66,-468C1215.66,-468 1185.66,-468 1185.66,-468 1179.66,-468 1173.66,-462 1173.66,-456 1173.66,-456 1173.66,-444 1173.66,-444 1173.66,-438 1179.66,-432 1185.66,-432 1185.66,-432 1215.66,-432 1215.66,-432 1221.66,-432 1227.66,-438 1227.66,-444 1227.66,-444 1227.66,-456 1227.66,-456 1227.66,-462 1221.66,-468 1215.66,-468"/>
<text text-anchor="middle" x="1200.66" y="-446.3" font-family="Times,serif" font-size="14.00">LtE</text>
</g>
<!-- ast.Compare object at 0x732eead99890&#45;&gt;ast.LtE object at 0x732eecfbeb50 -->
<g id="edge107" class="edge">
<title>ast.Compare object at 0x732eead99890&#45;&gt;ast.LtE object at 0x732eecfbeb50</title>
<path fill="none" stroke="black" d="M1200.66,-503.7C1200.66,-495.98 1200.66,-486.71 1200.66,-478.11"/>
<polygon fill="black" stroke="black" points="1204.16,-478.1 1200.66,-468.1 1197.16,-478.1 1204.16,-478.1"/>
</g>
<!-- ast.Constant object at 0x732eead989d0 -->
<g id="node80" class="node">
<title>ast.Constant object at 0x732eead989d0</title>
<path fill="#66cdaa" stroke="black" d="M1299.16,-468C1299.16,-468 1258.16,-468 1258.16,-468 1252.16,-468 1246.16,-462 1246.16,-456 1246.16,-456 1246.16,-444 1246.16,-444 1246.16,-438 1252.16,-432 1258.16,-432 1258.16,-432 1299.16,-432 1299.16,-432 1305.16,-432 1311.16,-438 1311.16,-444 1311.16,-444 1311.16,-456 1311.16,-456 1311.16,-462 1305.16,-468 1299.16,-468"/>
<text text-anchor="middle" x="1278.66" y="-446.3" font-family="Times,serif" font-size="14.00">Constant</text>
</g>
<!-- ast.Compare object at 0x732eead99890&#45;&gt;ast.Constant object at 0x732eead989d0 -->
<g id="edge108" class="edge">
<title>ast.Compare object at 0x732eead99890&#45;&gt;ast.Constant object at 0x732eead989d0</title>
<path fill="none" stroke="black" d="M1219.94,-503.7C1229.58,-495.05 1241.39,-484.45 1251.89,-475.03"/>
<polygon fill="black" stroke="black" points="1254.5,-477.39 1259.6,-468.1 1249.82,-472.18 1254.5,-477.39"/>
</g>
<!-- ast.Name object at 0x732eead98e50&#45;&gt;ast.Load object at 0x732eecfbd9d0 -->
<g id="edge106" class="edge">
<title>ast.Name object at 0x732eead98e50&#45;&gt;ast.Load object at 0x732eecfbd9d0</title>
<path fill="none" stroke="black" d="M1364.84,-431.98C1368.04,-405.37 1373.66,-352.25 1373.66,-307 1373.66,-307 1373.66,-307 1373.66,-161 1373.66,-111.75 1350.84,-95.68 1307.66,-72 1244.7,-37.47 736.46,-23.17 593.78,-19.81"/>
<polygon fill="black" stroke="black" points="593.85,-16.31 583.77,-19.58 593.69,-23.31 593.85,-16.31"/>
</g>
</g>
</svg>
