<?xml version="1.0" encoding="UTF-8" standalone="no"?>
<!DOCTYPE svg PUBLIC "-//W3C//DTD SVG 1.1//EN"
 "http://www.w3.org/Graphics/SVG/1.1/DTD/svg11.dtd">
<!-- Generated by graphviz version 2.50.0 (0)
 -->
<!-- Pages: 1 -->
<svg width="1764pt" height="692pt"
 viewBox="0.00 0.00 1763.64 692.00" xmlns="http://www.w3.org/2000/svg" xmlns:xlink="http://www.w3.org/1999/xlink">
<g id="graph0" class="graph" transform="scale(1 1) rotate(0) translate(4 688)">
<polygon fill="white" stroke="transparent" points="-4,4 -4,-688 1759.64,-688 1759.64,4 -4,4"/>
<!-- ast.Module object at 0x7094e7c61410 -->
<g id="node1" class="node">
<title>ast.Module object at 0x7094e7c61410</title>
<path fill="#66cdaa" stroke="black" d="M1135.64,-684C1135.64,-684 1100.64,-684 1100.64,-684 1094.64,-684 1088.64,-678 1088.64,-672 1088.64,-672 1088.64,-660 1088.64,-660 1088.64,-654 1094.64,-648 1100.64,-648 1100.64,-648 1135.64,-648 1135.64,-648 1141.64,-648 1147.64,-654 1147.64,-660 1147.64,-660 1147.64,-672 1147.64,-672 1147.64,-678 1141.64,-684 1135.64,-684"/>
<text text-anchor="middle" x="1118.14" y="-662.3" font-family="Times,serif" font-size="14.00">Module</text>
</g>
<!-- ast.Import object at 0x7094e7c608d0 -->
<g id="node2" class="node">
<title>ast.Import object at 0x7094e7c608d0</title>
<path fill="#66cdaa" stroke="black" d="M1089.14,-612C1089.14,-612 1059.14,-612 1059.14,-612 1053.14,-612 1047.14,-606 1047.14,-600 1047.14,-600 1047.14,-588 1047.14,-588 1047.14,-582 1053.14,-576 1059.14,-576 1059.14,-576 1089.14,-576 1089.14,-576 1095.14,-576 1101.14,-582 1101.14,-588 1101.14,-588 1101.14,-600 1101.14,-600 1101.14,-606 1095.14,-612 1089.14,-612"/>
<text text-anchor="middle" x="1074.14" y="-590.3" font-family="Times,serif" font-size="14.00">Import</text>
</g>
<!-- ast.Module object at 0x7094e7c61410&#45;&gt;ast.Import object at 0x7094e7c608d0 -->
<g id="edge1" class="edge">
<title>ast.Module object at 0x7094e7c61410&#45;&gt;ast.Import object at 0x7094e7c608d0</title>
<path fill="none" stroke="black" d="M1107.27,-647.7C1102.15,-639.56 1095.95,-629.69 1090.3,-620.7"/>
<polygon fill="black" stroke="black" points="1093.18,-618.71 1084.9,-612.1 1087.25,-622.43 1093.18,-618.71"/>
</g>
<!-- ast.FunctionDef object at 0x7094e7c61350 -->
<g id="node4" class="node">
<title>ast.FunctionDef object at 0x7094e7c61350</title>
<path fill="#66cdaa" stroke="black" d="M1259.64,-612C1259.64,-612 1198.64,-612 1198.64,-612 1192.64,-612 1186.64,-606 1186.64,-600 1186.64,-600 1186.64,-588 1186.64,-588 1186.64,-582 1192.64,-576 1198.64,-576 1198.64,-576 1259.64,-576 1259.64,-576 1265.64,-576 1271.64,-582 1271.64,-588 1271.64,-588 1271.64,-600 1271.64,-600 1271.64,-606 1265.64,-612 1259.64,-612"/>
<text text-anchor="middle" x="1229.14" y="-590.3" font-family="Times,serif" font-size="14.00">FunctionDef</text>
</g>
<!-- ast.Module object at 0x7094e7c61410&#45;&gt;ast.FunctionDef object at 0x7094e7c61350 -->
<g id="edge3" class="edge">
<title>ast.Module object at 0x7094e7c61410&#45;&gt;ast.FunctionDef object at 0x7094e7c61350</title>
<path fill="none" stroke="black" d="M1145.3,-647.88C1159.68,-638.81 1177.53,-627.55 1193.05,-617.76"/>
<polygon fill="black" stroke="black" points="1195.29,-620.48 1201.89,-612.19 1191.56,-614.56 1195.29,-620.48"/>
</g>
<!-- ast.alias object at 0x7094e7c62a90 -->
<g id="node3" class="node">
<title>ast.alias object at 0x7094e7c62a90</title>
<path fill="#66cdaa" stroke="black" d="M959.14,-540C959.14,-540 929.14,-540 929.14,-540 923.14,-540 917.14,-534 917.14,-528 917.14,-528 917.14,-516 917.14,-516 917.14,-510 923.14,-504 929.14,-504 929.14,-504 959.14,-504 959.14,-504 965.14,-504 971.14,-510 971.14,-516 971.14,-516 971.14,-528 971.14,-528 971.14,-534 965.14,-540 959.14,-540"/>
<text text-anchor="middle" x="944.14" y="-518.3" font-family="Times,serif" font-size="14.00">alias</text>
</g>
<!-- ast.Import object at 0x7094e7c608d0&#45;&gt;ast.alias object at 0x7094e7c62a90 -->
<g id="edge2" class="edge">
<title>ast.Import object at 0x7094e7c608d0&#45;&gt;ast.alias object at 0x7094e7c62a90</title>
<path fill="none" stroke="black" d="M1046.89,-578.33C1027.56,-567.92 1001.42,-553.84 980.35,-542.49"/>
<polygon fill="black" stroke="black" points="981.82,-539.31 971.36,-537.65 978.51,-545.48 981.82,-539.31"/>
</g>
<!-- ast.arguments object at 0x7094e7c63650 -->
<g id="node5" class="node">
<title>ast.arguments object at 0x7094e7c63650</title>
<path fill="#66cdaa" stroke="black" d="M1384.14,-540C1384.14,-540 1334.14,-540 1334.14,-540 1328.14,-540 1322.14,-534 1322.14,-528 1322.14,-528 1322.14,-516 1322.14,-516 1322.14,-510 1328.14,-504 1334.14,-504 1334.14,-504 1384.14,-504 1384.14,-504 1390.14,-504 1396.14,-510 1396.14,-516 1396.14,-516 1396.14,-528 1396.14,-528 1396.14,-534 1390.14,-540 1384.14,-540"/>
<text text-anchor="middle" x="1359.14" y="-518.3" font-family="Times,serif" font-size="14.00">arguments</text>
</g>
<!-- ast.FunctionDef object at 0x7094e7c61350&#45;&gt;ast.arguments object at 0x7094e7c63650 -->
<g id="edge4" class="edge">
<title>ast.FunctionDef object at 0x7094e7c61350&#45;&gt;ast.arguments object at 0x7094e7c63650</title>
<path fill="none" stroke="black" d="M1260.95,-575.88C1278.26,-566.55 1299.86,-554.92 1318.4,-544.94"/>
<polygon fill="black" stroke="black" points="1320.07,-548.01 1327.22,-540.19 1316.76,-541.85 1320.07,-548.01"/>
</g>
<!-- ast.Assign object at 0x7094e785a950 -->
<g id="node7" class="node">
<title>ast.Assign object at 0x7094e785a950</title>
<path fill="#66cdaa" stroke="black" d="M1280.14,-540C1280.14,-540 1250.14,-540 1250.14,-540 1244.14,-540 1238.14,-534 1238.14,-528 1238.14,-528 1238.14,-516 1238.14,-516 1238.14,-510 1244.14,-504 1250.14,-504 1250.14,-504 1280.14,-504 1280.14,-504 1286.14,-504 1292.14,-510 1292.14,-516 1292.14,-516 1292.14,-528 1292.14,-528 1292.14,-534 1286.14,-540 1280.14,-540"/>
<text text-anchor="middle" x="1265.14" y="-518.3" font-family="Times,serif" font-size="14.00">Assign</text>
</g>
<!-- ast.FunctionDef object at 0x7094e7c61350&#45;&gt;ast.Assign object at 0x7094e785a950 -->
<g id="edge6" class="edge">
<title>ast.FunctionDef object at 0x7094e7c61350&#45;&gt;ast.Assign object at 0x7094e785a950</title>
<path fill="none" stroke="black" d="M1238.04,-575.7C1242.14,-567.73 1247.09,-558.1 1251.64,-549.26"/>
<polygon fill="black" stroke="black" points="1254.89,-550.6 1256.35,-540.1 1248.66,-547.4 1254.89,-550.6"/>
</g>
<!-- ast.For object at 0x7094e7859bd0 -->
<g id="node11" class="node">
<title>ast.For object at 0x7094e7859bd0</title>
<path fill="#66cdaa" stroke="black" d="M1031.14,-540C1031.14,-540 1001.14,-540 1001.14,-540 995.14,-540 989.14,-534 989.14,-528 989.14,-528 989.14,-516 989.14,-516 989.14,-510 995.14,-504 1001.14,-504 1001.14,-504 1031.14,-504 1031.14,-504 1037.14,-504 1043.14,-510 1043.14,-516 1043.14,-516 1043.14,-528 1043.14,-528 1043.14,-534 1037.14,-540 1031.14,-540"/>
<text text-anchor="middle" x="1016.14" y="-518.3" font-family="Times,serif" font-size="14.00">For</text>
</g>
<!-- ast.FunctionDef object at 0x7094e7c61350&#45;&gt;ast.For object at 0x7094e7859bd0 -->
<g id="edge10" class="edge">
<title>ast.FunctionDef object at 0x7094e7c61350&#45;&gt;ast.For object at 0x7094e7859bd0</title>
<path fill="none" stroke="black" d="M1186.55,-579C1147.49,-566.17 1090.23,-547.35 1053.06,-535.13"/>
<polygon fill="black" stroke="black" points="1053.74,-531.67 1043.15,-531.87 1051.55,-538.32 1053.74,-531.67"/>
</g>
<!-- ast.For object at 0x7094e7bb7550 -->
<g id="node59" class="node">
<title>ast.For object at 0x7094e7bb7550</title>
<path fill="#66cdaa" stroke="black" d="M1445.14,-396C1445.14,-396 1415.14,-396 1415.14,-396 1409.14,-396 1403.14,-390 1403.14,-384 1403.14,-384 1403.14,-372 1403.14,-372 1403.14,-366 1409.14,-360 1415.14,-360 1415.14,-360 1445.14,-360 1445.14,-360 1451.14,-360 1457.14,-366 1457.14,-372 1457.14,-372 1457.14,-384 1457.14,-384 1457.14,-390 1451.14,-396 1445.14,-396"/>
<text text-anchor="middle" x="1430.14" y="-374.3" font-family="Times,serif" font-size="14.00">For</text>
</g>
<!-- ast.FunctionDef object at 0x7094e7c61350&#45;&gt;ast.For object at 0x7094e7bb7550 -->
<g id="edge82" class="edge">
<title>ast.FunctionDef object at 0x7094e7c61350&#45;&gt;ast.For object at 0x7094e7bb7550</title>
<path fill="none" stroke="black" d="M1271.74,-592.31C1312.22,-589.24 1371.73,-577.97 1405.14,-540 1437.83,-502.86 1437.52,-441.32 1434.05,-406.05"/>
<polygon fill="black" stroke="black" points="1437.51,-405.54 1432.9,-396.01 1430.56,-406.34 1437.51,-405.54"/>
</g>
<!-- ast.Return object at 0x7094e76700d0 -->
<g id="node73" class="node">
<title>ast.Return object at 0x7094e76700d0</title>
<path fill="#66cdaa" stroke="black" d="M1208.14,-540C1208.14,-540 1178.14,-540 1178.14,-540 1172.14,-540 1166.14,-534 1166.14,-528 1166.14,-528 1166.14,-516 1166.14,-516 1166.14,-510 1172.14,-504 1178.14,-504 1178.14,-504 1208.14,-504 1208.14,-504 1214.14,-504 1220.14,-510 1220.14,-516 1220.14,-516 1220.14,-528 1220.14,-528 1220.14,-534 1214.14,-540 1208.14,-540"/>
<text text-anchor="middle" x="1193.14" y="-518.3" font-family="Times,serif" font-size="14.00">Return</text>
</g>
<!-- ast.FunctionDef object at 0x7094e7c61350&#45;&gt;ast.Return object at 0x7094e76700d0 -->
<g id="edge101" class="edge">
<title>ast.FunctionDef object at 0x7094e7c61350&#45;&gt;ast.Return object at 0x7094e76700d0</title>
<path fill="none" stroke="black" d="M1220.25,-575.7C1216.15,-567.73 1211.2,-558.1 1206.65,-549.26"/>
<polygon fill="black" stroke="black" points="1209.63,-547.4 1201.94,-540.1 1203.4,-550.6 1209.63,-547.4"/>
</g>
<!-- ast.arg object at 0x7094e7859210 -->
<g id="node6" class="node">
<title>ast.arg object at 0x7094e7859210</title>
<path fill="#66cdaa" stroke="black" d="M1396.14,-468C1396.14,-468 1366.14,-468 1366.14,-468 1360.14,-468 1354.14,-462 1354.14,-456 1354.14,-456 1354.14,-444 1354.14,-444 1354.14,-438 1360.14,-432 1366.14,-432 1366.14,-432 1396.14,-432 1396.14,-432 1402.14,-432 1408.14,-438 1408.14,-444 1408.14,-444 1408.14,-456 1408.14,-456 1408.14,-462 1402.14,-468 1396.14,-468"/>
<text text-anchor="middle" x="1381.14" y="-446.3" font-family="Times,serif" font-size="14.00">arg</text>
</g>
<!-- ast.arguments object at 0x7094e7c63650&#45;&gt;ast.arg object at 0x7094e7859210 -->
<g id="edge5" class="edge">
<title>ast.arguments object at 0x7094e7c63650&#45;&gt;ast.arg object at 0x7094e7859210</title>
<path fill="none" stroke="black" d="M1364.58,-503.7C1367.03,-495.9 1369.98,-486.51 1372.71,-477.83"/>
<polygon fill="black" stroke="black" points="1376.11,-478.69 1375.77,-468.1 1369.43,-476.59 1376.11,-478.69"/>
</g>
<!-- ast.Name object at 0x7094e785bb10 -->
<g id="node8" class="node">
<title>ast.Name object at 0x7094e785bb10</title>
<path fill="#66cdaa" stroke="black" d="M1307.14,-396C1307.14,-396 1277.14,-396 1277.14,-396 1271.14,-396 1265.14,-390 1265.14,-384 1265.14,-384 1265.14,-372 1265.14,-372 1265.14,-366 1271.14,-360 1277.14,-360 1277.14,-360 1307.14,-360 1307.14,-360 1313.14,-360 1319.14,-366 1319.14,-372 1319.14,-372 1319.14,-384 1319.14,-384 1319.14,-390 1313.14,-396 1307.14,-396"/>
<text text-anchor="middle" x="1292.14" y="-374.3" font-family="Times,serif" font-size="14.00">Name</text>
</g>
<!-- ast.Assign object at 0x7094e785a950&#45;&gt;ast.Name object at 0x7094e785bb10 -->
<g id="edge7" class="edge">
<title>ast.Assign object at 0x7094e785a950&#45;&gt;ast.Name object at 0x7094e785bb10</title>
<path fill="none" stroke="black" d="M1265.4,-503.74C1265.97,-485.66 1267.73,-456.54 1273.14,-432 1275.06,-423.31 1278.01,-414.11 1281.03,-405.84"/>
<polygon fill="black" stroke="black" points="1284.36,-406.93 1284.66,-396.34 1277.82,-404.43 1284.36,-406.93"/>
</g>
<!-- ast.Dict object at 0x7094e7858510 -->
<g id="node10" class="node">
<title>ast.Dict object at 0x7094e7858510</title>
<path fill="#66cdaa" stroke="black" d="M1324.14,-468C1324.14,-468 1294.14,-468 1294.14,-468 1288.14,-468 1282.14,-462 1282.14,-456 1282.14,-456 1282.14,-444 1282.14,-444 1282.14,-438 1288.14,-432 1294.14,-432 1294.14,-432 1324.14,-432 1324.14,-432 1330.14,-432 1336.14,-438 1336.14,-444 1336.14,-444 1336.14,-456 1336.14,-456 1336.14,-462 1330.14,-468 1324.14,-468"/>
<text text-anchor="middle" x="1309.14" y="-446.3" font-family="Times,serif" font-size="14.00">Dict</text>
</g>
<!-- ast.Assign object at 0x7094e785a950&#45;&gt;ast.Dict object at 0x7094e7858510 -->
<g id="edge9" class="edge">
<title>ast.Assign object at 0x7094e785a950&#45;&gt;ast.Dict object at 0x7094e7858510</title>
<path fill="none" stroke="black" d="M1276.02,-503.7C1281.14,-495.56 1287.34,-485.69 1292.99,-476.7"/>
<polygon fill="black" stroke="black" points="1296.03,-478.43 1298.39,-468.1 1290.11,-474.71 1296.03,-478.43"/>
</g>
<!-- ast.Store object at 0x7094e93c1810 -->
<g id="node9" class="node">
<title>ast.Store object at 0x7094e93c1810</title>
<path fill="#66cdaa" stroke="black" d="M1307.14,-252C1307.14,-252 1277.14,-252 1277.14,-252 1271.14,-252 1265.14,-246 1265.14,-240 1265.14,-240 1265.14,-228 1265.14,-228 1265.14,-222 1271.14,-216 1277.14,-216 1277.14,-216 1307.14,-216 1307.14,-216 1313.14,-216 1319.14,-222 1319.14,-228 1319.14,-228 1319.14,-240 1319.14,-240 1319.14,-246 1313.14,-252 1307.14,-252"/>
<text text-anchor="middle" x="1292.14" y="-230.3" font-family="Times,serif" font-size="14.00">Store</text>
</g>
<!-- ast.Name object at 0x7094e785bb10&#45;&gt;ast.Store object at 0x7094e93c1810 -->
<g id="edge8" class="edge">
<title>ast.Name object at 0x7094e785bb10&#45;&gt;ast.Store object at 0x7094e93c1810</title>
<path fill="none" stroke="black" d="M1292.14,-359.87C1292.14,-335.67 1292.14,-291.21 1292.14,-262.39"/>
<polygon fill="black" stroke="black" points="1295.64,-262.19 1292.14,-252.19 1288.64,-262.19 1295.64,-262.19"/>
</g>
<!-- ast.Name object at 0x7094e7859d10 -->
<g id="node12" class="node">
<title>ast.Name object at 0x7094e7859d10</title>
<path fill="#66cdaa" stroke="black" d="M1130.14,-468C1130.14,-468 1100.14,-468 1100.14,-468 1094.14,-468 1088.14,-462 1088.14,-456 1088.14,-456 1088.14,-444 1088.14,-444 1088.14,-438 1094.14,-432 1100.14,-432 1100.14,-432 1130.14,-432 1130.14,-432 1136.14,-432 1142.14,-438 1142.14,-444 1142.14,-444 1142.14,-456 1142.14,-456 1142.14,-462 1136.14,-468 1130.14,-468"/>
<text text-anchor="middle" x="1115.14" y="-446.3" font-family="Times,serif" font-size="14.00">Name</text>
</g>
<!-- ast.For object at 0x7094e7859bd0&#45;&gt;ast.Name object at 0x7094e7859d10 -->
<g id="edge11" class="edge">
<title>ast.For object at 0x7094e7859bd0&#45;&gt;ast.Name object at 0x7094e7859d10</title>
<path fill="none" stroke="black" d="M1040.36,-503.88C1053.07,-494.89 1068.81,-483.76 1082.57,-474.03"/>
<polygon fill="black" stroke="black" points="1084.69,-476.82 1090.83,-468.19 1080.65,-471.11 1084.69,-476.82"/>
</g>
<!-- ast.Name object at 0x7094e7858110 -->
<g id="node13" class="node">
<title>ast.Name object at 0x7094e7858110</title>
<path fill="#66cdaa" stroke="black" d="M99.14,-468C99.14,-468 69.14,-468 69.14,-468 63.14,-468 57.14,-462 57.14,-456 57.14,-456 57.14,-444 57.14,-444 57.14,-438 63.14,-432 69.14,-432 69.14,-432 99.14,-432 99.14,-432 105.14,-432 111.14,-438 111.14,-444 111.14,-444 111.14,-456 111.14,-456 111.14,-462 105.14,-468 99.14,-468"/>
<text text-anchor="middle" x="84.14" y="-446.3" font-family="Times,serif" font-size="14.00">Name</text>
</g>
<!-- ast.For object at 0x7094e7859bd0&#45;&gt;ast.Name object at 0x7094e7858110 -->
<g id="edge13" class="edge">
<title>ast.For object at 0x7094e7859bd0&#45;&gt;ast.Name object at 0x7094e7858110</title>
<path fill="none" stroke="black" d="M989.04,-506.86C986.09,-505.73 983.09,-504.74 980.14,-504 828,-465.78 431.63,-478.96 275.14,-468 221.72,-464.26 160.01,-458.51 121.53,-454.75"/>
<polygon fill="black" stroke="black" points="121.61,-451.24 111.32,-453.74 120.93,-458.21 121.61,-451.24"/>
</g>
<!-- ast.Assign object at 0x7094e7859d50 -->
<g id="node15" class="node">
<title>ast.Assign object at 0x7094e7859d50</title>
<path fill="#66cdaa" stroke="black" d="M1058.14,-468C1058.14,-468 1028.14,-468 1028.14,-468 1022.14,-468 1016.14,-462 1016.14,-456 1016.14,-456 1016.14,-444 1016.14,-444 1016.14,-438 1022.14,-432 1028.14,-432 1028.14,-432 1058.14,-432 1058.14,-432 1064.14,-432 1070.14,-438 1070.14,-444 1070.14,-444 1070.14,-456 1070.14,-456 1070.14,-462 1064.14,-468 1058.14,-468"/>
<text text-anchor="middle" x="1043.14" y="-446.3" font-family="Times,serif" font-size="14.00">Assign</text>
</g>
<!-- ast.For object at 0x7094e7859bd0&#45;&gt;ast.Assign object at 0x7094e7859d50 -->
<g id="edge15" class="edge">
<title>ast.For object at 0x7094e7859bd0&#45;&gt;ast.Assign object at 0x7094e7859d50</title>
<path fill="none" stroke="black" d="M1022.82,-503.7C1025.86,-495.81 1029.53,-486.3 1032.9,-477.55"/>
<polygon fill="black" stroke="black" points="1036.21,-478.69 1036.55,-468.1 1029.68,-476.17 1036.21,-478.69"/>
</g>
<!-- ast.If object at 0x7094e7b56750 -->
<g id="node25" class="node">
<title>ast.If object at 0x7094e7b56750</title>
<path fill="#66cdaa" stroke="black" d="M232.14,-324C232.14,-324 202.14,-324 202.14,-324 196.14,-324 190.14,-318 190.14,-312 190.14,-312 190.14,-300 190.14,-300 190.14,-294 196.14,-288 202.14,-288 202.14,-288 232.14,-288 232.14,-288 238.14,-288 244.14,-294 244.14,-300 244.14,-300 244.14,-312 244.14,-312 244.14,-318 238.14,-324 232.14,-324"/>
<text text-anchor="middle" x="217.14" y="-302.3" font-family="Times,serif" font-size="14.00">If</text>
</g>
<!-- ast.For object at 0x7094e7859bd0&#45;&gt;ast.If object at 0x7094e7b56750 -->
<g id="edge30" class="edge">
<title>ast.For object at 0x7094e7859bd0&#45;&gt;ast.If object at 0x7094e7b56750</title>
<path fill="none" stroke="black" d="M989.01,-506.97C986.07,-505.82 983.08,-504.8 980.14,-504 806.6,-456.88 752.83,-506.36 577.14,-468 483.62,-447.58 461.23,-435.76 374.14,-396 330.95,-376.28 283.88,-348.72 252.66,-329.51"/>
<polygon fill="black" stroke="black" points="254.24,-326.37 243.89,-324.08 250.55,-332.33 254.24,-326.37"/>
</g>
<!-- ast.Assign object at 0x7094e7b55290 -->
<g id="node33" class="node">
<title>ast.Assign object at 0x7094e7b55290</title>
<path fill="#66cdaa" stroke="black" d="M1003.14,-396C1003.14,-396 973.14,-396 973.14,-396 967.14,-396 961.14,-390 961.14,-384 961.14,-384 961.14,-372 961.14,-372 961.14,-366 967.14,-360 973.14,-360 973.14,-360 1003.14,-360 1003.14,-360 1009.14,-360 1015.14,-366 1015.14,-372 1015.14,-372 1015.14,-384 1015.14,-384 1015.14,-390 1009.14,-396 1003.14,-396"/>
<text text-anchor="middle" x="988.14" y="-374.3" font-family="Times,serif" font-size="14.00">Assign</text>
</g>
<!-- ast.For object at 0x7094e7859bd0&#45;&gt;ast.Assign object at 0x7094e7b55290 -->
<g id="edge40" class="edge">
<title>ast.For object at 0x7094e7859bd0&#45;&gt;ast.Assign object at 0x7094e7b55290</title>
<path fill="none" stroke="black" d="M1012.77,-503.87C1007.97,-479.56 999.15,-434.82 993.47,-406.01"/>
<polygon fill="black" stroke="black" points="996.9,-405.32 991.53,-396.19 990.03,-406.68 996.9,-405.32"/>
</g>
<!-- ast.If object at 0x7094e7b54fd0 -->
<g id="node41" class="node">
<title>ast.If object at 0x7094e7b54fd0</title>
<path fill="#66cdaa" stroke="black" d="M628.14,-468C628.14,-468 598.14,-468 598.14,-468 592.14,-468 586.14,-462 586.14,-456 586.14,-456 586.14,-444 586.14,-444 586.14,-438 592.14,-432 598.14,-432 598.14,-432 628.14,-432 628.14,-432 634.14,-432 640.14,-438 640.14,-444 640.14,-444 640.14,-456 640.14,-456 640.14,-462 634.14,-468 628.14,-468"/>
<text text-anchor="middle" x="613.14" y="-446.3" font-family="Times,serif" font-size="14.00">If</text>
</g>
<!-- ast.For object at 0x7094e7859bd0&#45;&gt;ast.If object at 0x7094e7b54fd0 -->
<g id="edge52" class="edge">
<title>ast.For object at 0x7094e7859bd0&#45;&gt;ast.If object at 0x7094e7b54fd0</title>
<path fill="none" stroke="black" d="M988.96,-507.14C986.03,-505.95 983.06,-504.88 980.14,-504 863.11,-468.78 717.83,-456.65 650.56,-452.73"/>
<polygon fill="black" stroke="black" points="650.62,-449.23 640.45,-452.17 650.24,-456.22 650.62,-449.23"/>
</g>
<!-- ast.Name object at 0x7094e7859d10&#45;&gt;ast.Store object at 0x7094e93c1810 -->
<g id="edge12" class="edge">
<title>ast.Name object at 0x7094e7859d10&#45;&gt;ast.Store object at 0x7094e93c1810</title>
<path fill="none" stroke="black" d="M1142.18,-434.83C1158.54,-425.35 1179.07,-411.75 1194.14,-396 1233.47,-354.9 1264.58,-295.38 1280.49,-261.4"/>
<polygon fill="black" stroke="black" points="1283.76,-262.68 1284.76,-252.13 1277.4,-259.76 1283.76,-262.68"/>
</g>
<!-- ast.Load object at 0x7094e93c1790 -->
<g id="node14" class="node">
<title>ast.Load object at 0x7094e93c1790</title>
<path fill="#66cdaa" stroke="black" d="M827.14,-36C827.14,-36 797.14,-36 797.14,-36 791.14,-36 785.14,-30 785.14,-24 785.14,-24 785.14,-12 785.14,-12 785.14,-6 791.14,0 797.14,0 797.14,0 827.14,0 827.14,0 833.14,0 839.14,-6 839.14,-12 839.14,-12 839.14,-24 839.14,-24 839.14,-30 833.14,-36 827.14,-36"/>
<text text-anchor="middle" x="812.14" y="-14.3" font-family="Times,serif" font-size="14.00">Load</text>
</g>
<!-- ast.Name object at 0x7094e7858110&#45;&gt;ast.Load object at 0x7094e93c1790 -->
<g id="edge14" class="edge">
<title>ast.Name object at 0x7094e7858110&#45;&gt;ast.Load object at 0x7094e93c1790</title>
<path fill="none" stroke="black" d="M65.5,-431.69C40.75,-406.72 0.14,-357.98 0.14,-307 0.14,-307 0.14,-307 0.14,-161 0.14,-119.11 -2.16,-97.41 31.14,-72 90.7,-26.56 626.99,-20.08 774.65,-19.15"/>
<polygon fill="black" stroke="black" points="775.02,-22.65 785,-19.09 774.98,-15.65 775.02,-22.65"/>
</g>
<!-- ast.Name object at 0x7094e7858dd0 -->
<g id="node16" class="node">
<title>ast.Name object at 0x7094e7858dd0</title>
<path fill="#66cdaa" stroke="black" d="M1173.14,-396C1173.14,-396 1143.14,-396 1143.14,-396 1137.14,-396 1131.14,-390 1131.14,-384 1131.14,-384 1131.14,-372 1131.14,-372 1131.14,-366 1137.14,-360 1143.14,-360 1143.14,-360 1173.14,-360 1173.14,-360 1179.14,-360 1185.14,-366 1185.14,-372 1185.14,-372 1185.14,-384 1185.14,-384 1185.14,-390 1179.14,-396 1173.14,-396"/>
<text text-anchor="middle" x="1158.14" y="-374.3" font-family="Times,serif" font-size="14.00">Name</text>
</g>
<!-- ast.Assign object at 0x7094e7859d50&#45;&gt;ast.Name object at 0x7094e7858dd0 -->
<g id="edge16" class="edge">
<title>ast.Assign object at 0x7094e7859d50&#45;&gt;ast.Name object at 0x7094e7858dd0</title>
<path fill="none" stroke="black" d="M1070.4,-432.41C1085.86,-423 1105.41,-411.1 1122.13,-400.92"/>
<polygon fill="black" stroke="black" points="1124.36,-403.66 1131.09,-395.47 1120.72,-397.68 1124.36,-403.66"/>
</g>
<!-- ast.Call object at 0x7094e7858ed0 -->
<g id="node17" class="node">
<title>ast.Call object at 0x7094e7858ed0</title>
<path fill="#66cdaa" stroke="black" d="M1080.14,-396C1080.14,-396 1050.14,-396 1050.14,-396 1044.14,-396 1038.14,-390 1038.14,-384 1038.14,-384 1038.14,-372 1038.14,-372 1038.14,-366 1044.14,-360 1050.14,-360 1050.14,-360 1080.14,-360 1080.14,-360 1086.14,-360 1092.14,-366 1092.14,-372 1092.14,-372 1092.14,-384 1092.14,-384 1092.14,-390 1086.14,-396 1080.14,-396"/>
<text text-anchor="middle" x="1065.14" y="-374.3" font-family="Times,serif" font-size="14.00">Call</text>
</g>
<!-- ast.Assign object at 0x7094e7859d50&#45;&gt;ast.Call object at 0x7094e7858ed0 -->
<g id="edge18" class="edge">
<title>ast.Assign object at 0x7094e7859d50&#45;&gt;ast.Call object at 0x7094e7858ed0</title>
<path fill="none" stroke="black" d="M1048.58,-431.7C1051.03,-423.9 1053.98,-414.51 1056.71,-405.83"/>
<polygon fill="black" stroke="black" points="1060.11,-406.69 1059.77,-396.1 1053.43,-404.59 1060.11,-406.69"/>
</g>
<!-- ast.Name object at 0x7094e7858dd0&#45;&gt;ast.Store object at 0x7094e93c1810 -->
<g id="edge17" class="edge">
<title>ast.Name object at 0x7094e7858dd0&#45;&gt;ast.Store object at 0x7094e93c1810</title>
<path fill="none" stroke="black" d="M1168.59,-359.82C1180.46,-341.03 1201.09,-310.59 1223.14,-288 1233.67,-277.21 1246.48,-266.78 1258.18,-258.07"/>
<polygon fill="black" stroke="black" points="1260.43,-260.76 1266.46,-252.05 1256.32,-255.1 1260.43,-260.76"/>
</g>
<!-- ast.Attribute object at 0x7094e78581d0 -->
<g id="node18" class="node">
<title>ast.Attribute object at 0x7094e78581d0</title>
<path fill="#66cdaa" stroke="black" d="M1086.64,-324C1086.64,-324 1045.64,-324 1045.64,-324 1039.64,-324 1033.64,-318 1033.64,-312 1033.64,-312 1033.64,-300 1033.64,-300 1033.64,-294 1039.64,-288 1045.64,-288 1045.64,-288 1086.64,-288 1086.64,-288 1092.64,-288 1098.64,-294 1098.64,-300 1098.64,-300 1098.64,-312 1098.64,-312 1098.64,-318 1092.64,-324 1086.64,-324"/>
<text text-anchor="middle" x="1066.14" y="-302.3" font-family="Times,serif" font-size="14.00">Attribute</text>
</g>
<!-- ast.Call object at 0x7094e7858ed0&#45;&gt;ast.Attribute object at 0x7094e78581d0 -->
<g id="edge19" class="edge">
<title>ast.Call object at 0x7094e7858ed0&#45;&gt;ast.Attribute object at 0x7094e78581d0</title>
<path fill="none" stroke="black" d="M1065.39,-359.7C1065.5,-351.98 1065.63,-342.71 1065.76,-334.11"/>
<polygon fill="black" stroke="black" points="1069.26,-334.15 1065.9,-324.1 1062.26,-334.05 1069.26,-334.15"/>
</g>
<!-- ast.Attribute object at 0x7094e78581d0&#45;&gt;ast.Load object at 0x7094e93c1790 -->
<g id="edge29" class="edge">
<title>ast.Attribute object at 0x7094e78581d0&#45;&gt;ast.Load object at 0x7094e93c1790</title>
<path fill="none" stroke="black" d="M1098.79,-291.41C1132.59,-277.28 1181.65,-256.6 1190.14,-252 1215.51,-238.27 1281.37,-203.47 1298.14,-180 1326.48,-140.35 1349.76,-108.22 1317.14,-72 1285.93,-37.33 961.08,-23.76 849.52,-20.1"/>
<polygon fill="black" stroke="black" points="849.51,-16.6 839.4,-19.78 849.29,-23.59 849.51,-16.6"/>
</g>
<!-- ast.Call object at 0x7094e7b55f90 -->
<g id="node19" class="node">
<title>ast.Call object at 0x7094e7b55f90</title>
<path fill="#66cdaa" stroke="black" d="M1169.14,-252C1169.14,-252 1139.14,-252 1139.14,-252 1133.14,-252 1127.14,-246 1127.14,-240 1127.14,-240 1127.14,-228 1127.14,-228 1127.14,-222 1133.14,-216 1139.14,-216 1139.14,-216 1169.14,-216 1169.14,-216 1175.14,-216 1181.14,-222 1181.14,-228 1181.14,-228 1181.14,-240 1181.14,-240 1181.14,-246 1175.14,-252 1169.14,-252"/>
<text text-anchor="middle" x="1154.14" y="-230.3" font-family="Times,serif" font-size="14.00">Call</text>
</g>
<!-- ast.Attribute object at 0x7094e78581d0&#45;&gt;ast.Call object at 0x7094e7b55f90 -->
<g id="edge20" class="edge">
<title>ast.Attribute object at 0x7094e78581d0&#45;&gt;ast.Call object at 0x7094e7b55f90</title>
<path fill="none" stroke="black" d="M1087.9,-287.7C1098.98,-278.88 1112.62,-268.03 1124.63,-258.47"/>
<polygon fill="black" stroke="black" points="1126.99,-261.07 1132.64,-252.1 1122.64,-255.59 1126.99,-261.07"/>
</g>
<!-- ast.Attribute object at 0x7094e7b55090 -->
<g id="node20" class="node">
<title>ast.Attribute object at 0x7094e7b55090</title>
<path fill="#66cdaa" stroke="black" d="M1091.64,-180C1091.64,-180 1050.64,-180 1050.64,-180 1044.64,-180 1038.64,-174 1038.64,-168 1038.64,-168 1038.64,-156 1038.64,-156 1038.64,-150 1044.64,-144 1050.64,-144 1050.64,-144 1091.64,-144 1091.64,-144 1097.64,-144 1103.64,-150 1103.64,-156 1103.64,-156 1103.64,-168 1103.64,-168 1103.64,-174 1097.64,-180 1091.64,-180"/>
<text text-anchor="middle" x="1071.14" y="-158.3" font-family="Times,serif" font-size="14.00">Attribute</text>
</g>
<!-- ast.Call object at 0x7094e7b55f90&#45;&gt;ast.Attribute object at 0x7094e7b55090 -->
<g id="edge21" class="edge">
<title>ast.Call object at 0x7094e7b55f90&#45;&gt;ast.Attribute object at 0x7094e7b55090</title>
<path fill="none" stroke="black" d="M1133.63,-215.7C1123.27,-206.97 1110.56,-196.24 1099.3,-186.75"/>
<polygon fill="black" stroke="black" points="1101.33,-183.88 1091.42,-180.1 1096.81,-189.23 1101.33,-183.88"/>
</g>
<!-- ast.Constant object at 0x7094e7b572d0 -->
<g id="node22" class="node">
<title>ast.Constant object at 0x7094e7b572d0</title>
<path fill="#66cdaa" stroke="black" d="M1174.64,-180C1174.64,-180 1133.64,-180 1133.64,-180 1127.64,-180 1121.64,-174 1121.64,-168 1121.64,-168 1121.64,-156 1121.64,-156 1121.64,-150 1127.64,-144 1133.64,-144 1133.64,-144 1174.64,-144 1174.64,-144 1180.64,-144 1186.64,-150 1186.64,-156 1186.64,-156 1186.64,-168 1186.64,-168 1186.64,-174 1180.64,-180 1174.64,-180"/>
<text text-anchor="middle" x="1154.14" y="-158.3" font-family="Times,serif" font-size="14.00">Constant</text>
</g>
<!-- ast.Call object at 0x7094e7b55f90&#45;&gt;ast.Constant object at 0x7094e7b572d0 -->
<g id="edge25" class="edge">
<title>ast.Call object at 0x7094e7b55f90&#45;&gt;ast.Constant object at 0x7094e7b572d0</title>
<path fill="none" stroke="black" d="M1154.14,-215.7C1154.14,-207.98 1154.14,-198.71 1154.14,-190.11"/>
<polygon fill="black" stroke="black" points="1157.64,-190.1 1154.14,-180.1 1150.64,-190.1 1157.64,-190.1"/>
</g>
<!-- ast.Constant object at 0x7094e7b55510 -->
<g id="node23" class="node">
<title>ast.Constant object at 0x7094e7b55510</title>
<path fill="#66cdaa" stroke="black" d="M1257.64,-180C1257.64,-180 1216.64,-180 1216.64,-180 1210.64,-180 1204.64,-174 1204.64,-168 1204.64,-168 1204.64,-156 1204.64,-156 1204.64,-150 1210.64,-144 1216.64,-144 1216.64,-144 1257.64,-144 1257.64,-144 1263.64,-144 1269.64,-150 1269.64,-156 1269.64,-156 1269.64,-168 1269.64,-168 1269.64,-174 1263.64,-180 1257.64,-180"/>
<text text-anchor="middle" x="1237.14" y="-158.3" font-family="Times,serif" font-size="14.00">Constant</text>
</g>
<!-- ast.Call object at 0x7094e7b55f90&#45;&gt;ast.Constant object at 0x7094e7b55510 -->
<g id="edge26" class="edge">
<title>ast.Call object at 0x7094e7b55f90&#45;&gt;ast.Constant object at 0x7094e7b55510</title>
<path fill="none" stroke="black" d="M1174.66,-215.7C1185.01,-206.97 1197.73,-196.24 1208.98,-186.75"/>
<polygon fill="black" stroke="black" points="1211.48,-189.23 1216.86,-180.1 1206.96,-183.88 1211.48,-189.23"/>
</g>
<!-- ast.Name object at 0x7094e7b56f10 -->
<g id="node24" class="node">
<title>ast.Name object at 0x7094e7b56f10</title>
<path fill="#66cdaa" stroke="black" d="M1296.14,-108C1296.14,-108 1266.14,-108 1266.14,-108 1260.14,-108 1254.14,-102 1254.14,-96 1254.14,-96 1254.14,-84 1254.14,-84 1254.14,-78 1260.14,-72 1266.14,-72 1266.14,-72 1296.14,-72 1296.14,-72 1302.14,-72 1308.14,-78 1308.14,-84 1308.14,-84 1308.14,-96 1308.14,-96 1308.14,-102 1302.14,-108 1296.14,-108"/>
<text text-anchor="middle" x="1281.14" y="-86.3" font-family="Times,serif" font-size="14.00">Name</text>
</g>
<!-- ast.Call object at 0x7094e7b55f90&#45;&gt;ast.Name object at 0x7094e7b56f10 -->
<g id="edge27" class="edge">
<title>ast.Call object at 0x7094e7b55f90&#45;&gt;ast.Name object at 0x7094e7b56f10</title>
<path fill="none" stroke="black" d="M1181.19,-225.17C1214.1,-215.04 1266.7,-196.71 1278.14,-180 1290.39,-162.11 1290.12,-137.11 1287.37,-118.16"/>
<polygon fill="black" stroke="black" points="1290.78,-117.31 1285.6,-108.07 1283.88,-118.52 1290.78,-117.31"/>
</g>
<!-- ast.Attribute object at 0x7094e7b55090&#45;&gt;ast.Load object at 0x7094e93c1790 -->
<g id="edge24" class="edge">
<title>ast.Attribute object at 0x7094e7b55090&#45;&gt;ast.Load object at 0x7094e93c1790</title>
<path fill="none" stroke="black" d="M1101.44,-143.8C1114.02,-134.9 1127.27,-122.77 1134.14,-108 1140.9,-93.49 1144.5,-84.2 1134.14,-72 1097.99,-29.41 926.43,-20.99 849.55,-19.36"/>
<polygon fill="black" stroke="black" points="849.42,-15.86 839.36,-19.18 849.29,-22.86 849.42,-15.86"/>
</g>
<!-- ast.Name object at 0x7094e7b57450 -->
<g id="node21" class="node">
<title>ast.Name object at 0x7094e7b57450</title>
<path fill="#66cdaa" stroke="black" d="M1224.14,-108C1224.14,-108 1194.14,-108 1194.14,-108 1188.14,-108 1182.14,-102 1182.14,-96 1182.14,-96 1182.14,-84 1182.14,-84 1182.14,-78 1188.14,-72 1194.14,-72 1194.14,-72 1224.14,-72 1224.14,-72 1230.14,-72 1236.14,-78 1236.14,-84 1236.14,-84 1236.14,-96 1236.14,-96 1236.14,-102 1230.14,-108 1224.14,-108"/>
<text text-anchor="middle" x="1209.14" y="-86.3" font-family="Times,serif" font-size="14.00">Name</text>
</g>
<!-- ast.Attribute object at 0x7094e7b55090&#45;&gt;ast.Name object at 0x7094e7b57450 -->
<g id="edge22" class="edge">
<title>ast.Attribute object at 0x7094e7b55090&#45;&gt;ast.Name object at 0x7094e7b57450</title>
<path fill="none" stroke="black" d="M1103.85,-144.41C1124.54,-133.92 1151.31,-120.33 1172.69,-109.49"/>
<polygon fill="black" stroke="black" points="1174.45,-112.52 1181.78,-104.88 1171.28,-106.28 1174.45,-112.52"/>
</g>
<!-- ast.Name object at 0x7094e7b57450&#45;&gt;ast.Load object at 0x7094e93c1790 -->
<g id="edge23" class="edge">
<title>ast.Name object at 0x7094e7b57450&#45;&gt;ast.Load object at 0x7094e93c1790</title>
<path fill="none" stroke="black" d="M1182.13,-76.71C1177.53,-74.93 1172.75,-73.28 1168.14,-72 1054.63,-40.53 915.26,-26.67 849.66,-21.55"/>
<polygon fill="black" stroke="black" points="849.65,-18.04 839.41,-20.77 849.12,-25.02 849.65,-18.04"/>
</g>
<!-- ast.Name object at 0x7094e7b56f10&#45;&gt;ast.Load object at 0x7094e93c1790 -->
<g id="edge28" class="edge">
<title>ast.Name object at 0x7094e7b56f10&#45;&gt;ast.Load object at 0x7094e93c1790</title>
<path fill="none" stroke="black" d="M1253.98,-75.07C1251.05,-73.9 1248.07,-72.84 1245.14,-72 1102.87,-30.86 925.3,-21.65 849.37,-19.59"/>
<polygon fill="black" stroke="black" points="849.43,-16.09 839.35,-19.34 849.26,-23.09 849.43,-16.09"/>
</g>
<!-- ast.Compare object at 0x7094e7b56610 -->
<g id="node26" class="node">
<title>ast.Compare object at 0x7094e7b56610</title>
<path fill="#66cdaa" stroke="black" d="M150.64,-252C150.64,-252 107.64,-252 107.64,-252 101.64,-252 95.64,-246 95.64,-240 95.64,-240 95.64,-228 95.64,-228 95.64,-222 101.64,-216 107.64,-216 107.64,-216 150.64,-216 150.64,-216 156.64,-216 162.64,-222 162.64,-228 162.64,-228 162.64,-240 162.64,-240 162.64,-246 156.64,-252 150.64,-252"/>
<text text-anchor="middle" x="129.14" y="-230.3" font-family="Times,serif" font-size="14.00">Compare</text>
</g>
<!-- ast.If object at 0x7094e7b56750&#45;&gt;ast.Compare object at 0x7094e7b56610 -->
<g id="edge31" class="edge">
<title>ast.If object at 0x7094e7b56750&#45;&gt;ast.Compare object at 0x7094e7b56610</title>
<path fill="none" stroke="black" d="M195.39,-287.7C184.31,-278.88 170.67,-268.03 158.65,-258.47"/>
<polygon fill="black" stroke="black" points="160.65,-255.59 150.65,-252.1 156.29,-261.07 160.65,-255.59"/>
</g>
<!-- ast.Continue object at 0x7094e7b54e50 -->
<g id="node32" class="node">
<title>ast.Continue object at 0x7094e7b54e50</title>
<path fill="#66cdaa" stroke="black" d="M238.14,-252C238.14,-252 196.14,-252 196.14,-252 190.14,-252 184.14,-246 184.14,-240 184.14,-240 184.14,-228 184.14,-228 184.14,-222 190.14,-216 196.14,-216 196.14,-216 238.14,-216 238.14,-216 244.14,-216 250.14,-222 250.14,-228 250.14,-228 250.14,-240 250.14,-240 250.14,-246 244.14,-252 238.14,-252"/>
<text text-anchor="middle" x="217.14" y="-230.3" font-family="Times,serif" font-size="14.00">Continue</text>
</g>
<!-- ast.If object at 0x7094e7b56750&#45;&gt;ast.Continue object at 0x7094e7b54e50 -->
<g id="edge39" class="edge">
<title>ast.If object at 0x7094e7b56750&#45;&gt;ast.Continue object at 0x7094e7b54e50</title>
<path fill="none" stroke="black" d="M217.14,-287.7C217.14,-279.98 217.14,-270.71 217.14,-262.11"/>
<polygon fill="black" stroke="black" points="220.64,-262.1 217.14,-252.1 213.64,-262.1 220.64,-262.1"/>
</g>
<!-- ast.Call object at 0x7094e7b569d0 -->
<g id="node27" class="node">
<title>ast.Call object at 0x7094e7b569d0</title>
<path fill="#66cdaa" stroke="black" d="M70.14,-180C70.14,-180 40.14,-180 40.14,-180 34.14,-180 28.14,-174 28.14,-168 28.14,-168 28.14,-156 28.14,-156 28.14,-150 34.14,-144 40.14,-144 40.14,-144 70.14,-144 70.14,-144 76.14,-144 82.14,-150 82.14,-156 82.14,-156 82.14,-168 82.14,-168 82.14,-174 76.14,-180 70.14,-180"/>
<text text-anchor="middle" x="55.14" y="-158.3" font-family="Times,serif" font-size="14.00">Call</text>
</g>
<!-- ast.Compare object at 0x7094e7b56610&#45;&gt;ast.Call object at 0x7094e7b569d0 -->
<g id="edge32" class="edge">
<title>ast.Compare object at 0x7094e7b56610&#45;&gt;ast.Call object at 0x7094e7b569d0</title>
<path fill="none" stroke="black" d="M110.85,-215.7C101.71,-207.05 90.5,-196.45 80.54,-187.03"/>
<polygon fill="black" stroke="black" points="82.9,-184.43 73.23,-180.1 78.09,-189.52 82.9,-184.43"/>
</g>
<!-- ast.Lt object at 0x7094e93c2890 -->
<g id="node30" class="node">
<title>ast.Lt object at 0x7094e93c2890</title>
<path fill="#66cdaa" stroke="black" d="M142.14,-180C142.14,-180 112.14,-180 112.14,-180 106.14,-180 100.14,-174 100.14,-168 100.14,-168 100.14,-156 100.14,-156 100.14,-150 106.14,-144 112.14,-144 112.14,-144 142.14,-144 142.14,-144 148.14,-144 154.14,-150 154.14,-156 154.14,-156 154.14,-168 154.14,-168 154.14,-174 148.14,-180 142.14,-180"/>
<text text-anchor="middle" x="127.14" y="-158.3" font-family="Times,serif" font-size="14.00">Lt</text>
</g>
<!-- ast.Compare object at 0x7094e7b56610&#45;&gt;ast.Lt object at 0x7094e93c2890 -->
<g id="edge37" class="edge">
<title>ast.Compare object at 0x7094e7b56610&#45;&gt;ast.Lt object at 0x7094e93c2890</title>
<path fill="none" stroke="black" d="M128.65,-215.7C128.43,-207.98 128.16,-198.71 127.92,-190.11"/>
<polygon fill="black" stroke="black" points="131.42,-190 127.63,-180.1 124.42,-190.2 131.42,-190"/>
</g>
<!-- ast.Constant object at 0x7094e7b55190 -->
<g id="node31" class="node">
<title>ast.Constant object at 0x7094e7b55190</title>
<path fill="#66cdaa" stroke="black" d="M225.64,-180C225.64,-180 184.64,-180 184.64,-180 178.64,-180 172.64,-174 172.64,-168 172.64,-168 172.64,-156 172.64,-156 172.64,-150 178.64,-144 184.64,-144 184.64,-144 225.64,-144 225.64,-144 231.64,-144 237.64,-150 237.64,-156 237.64,-156 237.64,-168 237.64,-168 237.64,-174 231.64,-180 225.64,-180"/>
<text text-anchor="middle" x="205.14" y="-158.3" font-family="Times,serif" font-size="14.00">Constant</text>
</g>
<!-- ast.Compare object at 0x7094e7b56610&#45;&gt;ast.Constant object at 0x7094e7b55190 -->
<g id="edge38" class="edge">
<title>ast.Compare object at 0x7094e7b56610&#45;&gt;ast.Constant object at 0x7094e7b55190</title>
<path fill="none" stroke="black" d="M147.93,-215.7C157.32,-207.05 168.83,-196.45 179.06,-187.03"/>
<polygon fill="black" stroke="black" points="181.59,-189.45 186.57,-180.1 176.85,-184.3 181.59,-189.45"/>
</g>
<!-- ast.Name object at 0x7094e7b55250 -->
<g id="node28" class="node">
<title>ast.Name object at 0x7094e7b55250</title>
<path fill="#66cdaa" stroke="black" d="M82.14,-108C82.14,-108 52.14,-108 52.14,-108 46.14,-108 40.14,-102 40.14,-96 40.14,-96 40.14,-84 40.14,-84 40.14,-78 46.14,-72 52.14,-72 52.14,-72 82.14,-72 82.14,-72 88.14,-72 94.14,-78 94.14,-84 94.14,-84 94.14,-96 94.14,-96 94.14,-102 88.14,-108 82.14,-108"/>
<text text-anchor="middle" x="67.14" y="-86.3" font-family="Times,serif" font-size="14.00">Name</text>
</g>
<!-- ast.Call object at 0x7094e7b569d0&#45;&gt;ast.Name object at 0x7094e7b55250 -->
<g id="edge33" class="edge">
<title>ast.Call object at 0x7094e7b569d0&#45;&gt;ast.Name object at 0x7094e7b55250</title>
<path fill="none" stroke="black" d="M58.11,-143.7C59.43,-135.98 61.02,-126.71 62.5,-118.11"/>
<polygon fill="black" stroke="black" points="65.97,-118.55 64.21,-108.1 59.07,-117.37 65.97,-118.55"/>
</g>
<!-- ast.Name object at 0x7094e7b56e90 -->
<g id="node29" class="node">
<title>ast.Name object at 0x7094e7b56e90</title>
<path fill="#66cdaa" stroke="black" d="M177.14,-108C177.14,-108 147.14,-108 147.14,-108 141.14,-108 135.14,-102 135.14,-96 135.14,-96 135.14,-84 135.14,-84 135.14,-78 141.14,-72 147.14,-72 147.14,-72 177.14,-72 177.14,-72 183.14,-72 189.14,-78 189.14,-84 189.14,-84 189.14,-96 189.14,-96 189.14,-102 183.14,-108 177.14,-108"/>
<text text-anchor="middle" x="162.14" y="-86.3" font-family="Times,serif" font-size="14.00">Name</text>
</g>
<!-- ast.Call object at 0x7094e7b569d0&#45;&gt;ast.Name object at 0x7094e7b56e90 -->
<g id="edge35" class="edge">
<title>ast.Call object at 0x7094e7b569d0&#45;&gt;ast.Name object at 0x7094e7b56e90</title>
<path fill="none" stroke="black" d="M81.32,-143.88C95.18,-134.81 112.39,-123.55 127.35,-113.76"/>
<polygon fill="black" stroke="black" points="129.42,-116.59 135.87,-108.19 125.58,-110.74 129.42,-116.59"/>
</g>
<!-- ast.Name object at 0x7094e7b55250&#45;&gt;ast.Load object at 0x7094e93c1790 -->
<g id="edge34" class="edge">
<title>ast.Name object at 0x7094e7b55250&#45;&gt;ast.Load object at 0x7094e93c1790</title>
<path fill="none" stroke="black" d="M94.19,-79.96C104.13,-76.97 115.55,-73.92 126.14,-72 370.8,-27.78 671.09,-20.43 774.82,-19.23"/>
<polygon fill="black" stroke="black" points="775.12,-22.72 785.09,-19.12 775.05,-15.73 775.12,-22.72"/>
</g>
<!-- ast.Name object at 0x7094e7b56e90&#45;&gt;ast.Load object at 0x7094e93c1790 -->
<g id="edge36" class="edge">
<title>ast.Name object at 0x7094e7b56e90&#45;&gt;ast.Load object at 0x7094e93c1790</title>
<path fill="none" stroke="black" d="M189.63,-77.71C195.95,-75.5 202.7,-73.42 209.14,-72 419.58,-25.53 679.8,-19.5 775.02,-18.94"/>
<polygon fill="black" stroke="black" points="775.03,-22.44 785.02,-18.9 775.01,-15.44 775.03,-22.44"/>
</g>
<!-- ast.Name object at 0x7094e7b57f10 -->
<g id="node34" class="node">
<title>ast.Name object at 0x7094e7b57f10</title>
<path fill="#66cdaa" stroke="black" d="M1159.14,-324C1159.14,-324 1129.14,-324 1129.14,-324 1123.14,-324 1117.14,-318 1117.14,-312 1117.14,-312 1117.14,-300 1117.14,-300 1117.14,-294 1123.14,-288 1129.14,-288 1129.14,-288 1159.14,-288 1159.14,-288 1165.14,-288 1171.14,-294 1171.14,-300 1171.14,-300 1171.14,-312 1171.14,-312 1171.14,-318 1165.14,-324 1159.14,-324"/>
<text text-anchor="middle" x="1144.14" y="-302.3" font-family="Times,serif" font-size="14.00">Name</text>
</g>
<!-- ast.Assign object at 0x7094e7b55290&#45;&gt;ast.Name object at 0x7094e7b57f10 -->
<g id="edge41" class="edge">
<title>ast.Assign object at 0x7094e7b55290&#45;&gt;ast.Name object at 0x7094e7b57f10</title>
<path fill="none" stroke="black" d="M1015.6,-364.88C1039.74,-354.2 1075.82,-338.17 1107.14,-324 1107.35,-323.91 1107.55,-323.82 1107.75,-323.73"/>
<polygon fill="black" stroke="black" points="1109.43,-326.81 1117.08,-319.48 1106.53,-320.43 1109.43,-326.81"/>
</g>
<!-- ast.Call object at 0x7094e7b57010 -->
<g id="node35" class="node">
<title>ast.Call object at 0x7094e7b57010</title>
<path fill="#66cdaa" stroke="black" d="M1003.14,-252C1003.14,-252 973.14,-252 973.14,-252 967.14,-252 961.14,-246 961.14,-240 961.14,-240 961.14,-228 961.14,-228 961.14,-222 967.14,-216 973.14,-216 973.14,-216 1003.14,-216 1003.14,-216 1009.14,-216 1015.14,-222 1015.14,-228 1015.14,-228 1015.14,-240 1015.14,-240 1015.14,-246 1009.14,-252 1003.14,-252"/>
<text text-anchor="middle" x="988.14" y="-230.3" font-family="Times,serif" font-size="14.00">Call</text>
</g>
<!-- ast.Assign object at 0x7094e7b55290&#45;&gt;ast.Call object at 0x7094e7b57010 -->
<g id="edge43" class="edge">
<title>ast.Assign object at 0x7094e7b55290&#45;&gt;ast.Call object at 0x7094e7b57010</title>
<path fill="none" stroke="black" d="M988.14,-359.87C988.14,-335.67 988.14,-291.21 988.14,-262.39"/>
<polygon fill="black" stroke="black" points="991.64,-262.19 988.14,-252.19 984.64,-262.19 991.64,-262.19"/>
</g>
<!-- ast.Name object at 0x7094e7b57f10&#45;&gt;ast.Store object at 0x7094e93c1810 -->
<g id="edge42" class="edge">
<title>ast.Name object at 0x7094e7b57f10&#45;&gt;ast.Store object at 0x7094e93c1810</title>
<path fill="none" stroke="black" d="M1171.29,-292.16C1195,-280.95 1229.61,-264.58 1255.72,-252.23"/>
<polygon fill="black" stroke="black" points="1257.38,-255.32 1264.92,-247.88 1254.38,-248.99 1257.38,-255.32"/>
</g>
<!-- ast.Attribute object at 0x7094e7b54a90 -->
<g id="node36" class="node">
<title>ast.Attribute object at 0x7094e7b54a90</title>
<path fill="#66cdaa" stroke="black" d="M1008.64,-180C1008.64,-180 967.64,-180 967.64,-180 961.64,-180 955.64,-174 955.64,-168 955.64,-168 955.64,-156 955.64,-156 955.64,-150 961.64,-144 967.64,-144 967.64,-144 1008.64,-144 1008.64,-144 1014.64,-144 1020.64,-150 1020.64,-156 1020.64,-156 1020.64,-168 1020.64,-168 1020.64,-174 1014.64,-180 1008.64,-180"/>
<text text-anchor="middle" x="988.14" y="-158.3" font-family="Times,serif" font-size="14.00">Attribute</text>
</g>
<!-- ast.Call object at 0x7094e7b57010&#45;&gt;ast.Attribute object at 0x7094e7b54a90 -->
<g id="edge44" class="edge">
<title>ast.Call object at 0x7094e7b57010&#45;&gt;ast.Attribute object at 0x7094e7b54a90</title>
<path fill="none" stroke="black" d="M988.14,-215.7C988.14,-207.98 988.14,-198.71 988.14,-190.11"/>
<polygon fill="black" stroke="black" points="991.64,-190.1 988.14,-180.1 984.64,-190.1 991.64,-190.1"/>
</g>
<!-- ast.Call object at 0x7094e7b55a50 -->
<g id="node38" class="node">
<title>ast.Call object at 0x7094e7b55a50</title>
<path fill="#66cdaa" stroke="black" d="M925.14,-180C925.14,-180 895.14,-180 895.14,-180 889.14,-180 883.14,-174 883.14,-168 883.14,-168 883.14,-156 883.14,-156 883.14,-150 889.14,-144 895.14,-144 895.14,-144 925.14,-144 925.14,-144 931.14,-144 937.14,-150 937.14,-156 937.14,-156 937.14,-168 937.14,-168 937.14,-174 931.14,-180 925.14,-180"/>
<text text-anchor="middle" x="910.14" y="-158.3" font-family="Times,serif" font-size="14.00">Call</text>
</g>
<!-- ast.Call object at 0x7094e7b57010&#45;&gt;ast.Call object at 0x7094e7b55a50 -->
<g id="edge47" class="edge">
<title>ast.Call object at 0x7094e7b57010&#45;&gt;ast.Call object at 0x7094e7b55a50</title>
<path fill="none" stroke="black" d="M968.86,-215.7C959.23,-207.05 947.42,-196.45 936.92,-187.03"/>
<polygon fill="black" stroke="black" points="938.98,-184.18 929.2,-180.1 934.31,-189.39 938.98,-184.18"/>
</g>
<!-- ast.Attribute object at 0x7094e7b54a90&#45;&gt;ast.Load object at 0x7094e93c1790 -->
<g id="edge46" class="edge">
<title>ast.Attribute object at 0x7094e7b54a90&#45;&gt;ast.Load object at 0x7094e93c1790</title>
<path fill="none" stroke="black" d="M1001.04,-143.91C1013.88,-124.64 1029.5,-93.23 1013.14,-72 993.27,-46.2 901.53,-30.44 849.12,-23.38"/>
<polygon fill="black" stroke="black" points="849.57,-19.91 839.2,-22.09 848.66,-26.85 849.57,-19.91"/>
</g>
<!-- ast.Constant object at 0x7094e7b57290 -->
<g id="node37" class="node">
<title>ast.Constant object at 0x7094e7b57290</title>
<path fill="#66cdaa" stroke="black" d="M1113.64,-108C1113.64,-108 1072.64,-108 1072.64,-108 1066.64,-108 1060.64,-102 1060.64,-96 1060.64,-96 1060.64,-84 1060.64,-84 1060.64,-78 1066.64,-72 1072.64,-72 1072.64,-72 1113.64,-72 1113.64,-72 1119.64,-72 1125.64,-78 1125.64,-84 1125.64,-84 1125.64,-96 1125.64,-96 1125.64,-102 1119.64,-108 1113.64,-108"/>
<text text-anchor="middle" x="1093.14" y="-86.3" font-family="Times,serif" font-size="14.00">Constant</text>
</g>
<!-- ast.Attribute object at 0x7094e7b54a90&#45;&gt;ast.Constant object at 0x7094e7b57290 -->
<g id="edge45" class="edge">
<title>ast.Attribute object at 0x7094e7b54a90&#45;&gt;ast.Constant object at 0x7094e7b57290</title>
<path fill="none" stroke="black" d="M1013.83,-143.88C1027.43,-134.81 1044.32,-123.55 1059.01,-113.76"/>
<polygon fill="black" stroke="black" points="1060.98,-116.65 1067.36,-108.19 1057.1,-110.82 1060.98,-116.65"/>
</g>
<!-- ast.Name object at 0x7094e7b54890 -->
<g id="node39" class="node">
<title>ast.Name object at 0x7094e7b54890</title>
<path fill="#66cdaa" stroke="black" d="M920.14,-108C920.14,-108 890.14,-108 890.14,-108 884.14,-108 878.14,-102 878.14,-96 878.14,-96 878.14,-84 878.14,-84 878.14,-78 884.14,-72 890.14,-72 890.14,-72 920.14,-72 920.14,-72 926.14,-72 932.14,-78 932.14,-84 932.14,-84 932.14,-96 932.14,-96 932.14,-102 926.14,-108 920.14,-108"/>
<text text-anchor="middle" x="905.14" y="-86.3" font-family="Times,serif" font-size="14.00">Name</text>
</g>
<!-- ast.Call object at 0x7094e7b55a50&#45;&gt;ast.Name object at 0x7094e7b54890 -->
<g id="edge48" class="edge">
<title>ast.Call object at 0x7094e7b55a50&#45;&gt;ast.Name object at 0x7094e7b54890</title>
<path fill="none" stroke="black" d="M908.91,-143.7C908.36,-135.98 907.69,-126.71 907.08,-118.11"/>
<polygon fill="black" stroke="black" points="910.57,-117.83 906.37,-108.1 903.59,-118.33 910.57,-117.83"/>
</g>
<!-- ast.Name object at 0x7094e7b54a50 -->
<g id="node40" class="node">
<title>ast.Name object at 0x7094e7b54a50</title>
<path fill="#66cdaa" stroke="black" d="M992.14,-108C992.14,-108 962.14,-108 962.14,-108 956.14,-108 950.14,-102 950.14,-96 950.14,-96 950.14,-84 950.14,-84 950.14,-78 956.14,-72 962.14,-72 962.14,-72 992.14,-72 992.14,-72 998.14,-72 1004.14,-78 1004.14,-84 1004.14,-84 1004.14,-96 1004.14,-96 1004.14,-102 998.14,-108 992.14,-108"/>
<text text-anchor="middle" x="977.14" y="-86.3" font-family="Times,serif" font-size="14.00">Name</text>
</g>
<!-- ast.Call object at 0x7094e7b55a50&#45;&gt;ast.Name object at 0x7094e7b54a50 -->
<g id="edge50" class="edge">
<title>ast.Call object at 0x7094e7b55a50&#45;&gt;ast.Name object at 0x7094e7b54a50</title>
<path fill="none" stroke="black" d="M926.71,-143.7C934.82,-135.22 944.73,-124.86 953.61,-115.58"/>
<polygon fill="black" stroke="black" points="956.39,-117.75 960.77,-108.1 951.33,-112.91 956.39,-117.75"/>
</g>
<!-- ast.Name object at 0x7094e7b54890&#45;&gt;ast.Load object at 0x7094e93c1790 -->
<g id="edge49" class="edge">
<title>ast.Name object at 0x7094e7b54890&#45;&gt;ast.Load object at 0x7094e93c1790</title>
<path fill="none" stroke="black" d="M882.16,-71.7C870.33,-62.8 855.75,-51.82 842.97,-42.2"/>
<polygon fill="black" stroke="black" points="844.96,-39.32 834.87,-36.1 840.75,-44.91 844.96,-39.32"/>
</g>
<!-- ast.Name object at 0x7094e7b54a50&#45;&gt;ast.Load object at 0x7094e93c1790 -->
<g id="edge51" class="edge">
<title>ast.Name object at 0x7094e7b54a50&#45;&gt;ast.Load object at 0x7094e93c1790</title>
<path fill="none" stroke="black" d="M950.09,-76.04C947.08,-74.65 944.05,-73.28 941.14,-72 910.3,-58.39 874.86,-43.91 848.93,-33.53"/>
<polygon fill="black" stroke="black" points="850.08,-30.22 839.5,-29.76 847.49,-36.72 850.08,-30.22"/>
</g>
<!-- ast.Compare object at 0x7094e7b568d0 -->
<g id="node42" class="node">
<title>ast.Compare object at 0x7094e7b568d0</title>
<path fill="#66cdaa" stroke="black" d="M541.64,-180C541.64,-180 498.64,-180 498.64,-180 492.64,-180 486.64,-174 486.64,-168 486.64,-168 486.64,-156 486.64,-156 486.64,-150 492.64,-144 498.64,-144 498.64,-144 541.64,-144 541.64,-144 547.64,-144 553.64,-150 553.64,-156 553.64,-156 553.64,-168 553.64,-168 553.64,-174 547.64,-180 541.64,-180"/>
<text text-anchor="middle" x="520.14" y="-158.3" font-family="Times,serif" font-size="14.00">Compare</text>
</g>
<!-- ast.If object at 0x7094e7b54fd0&#45;&gt;ast.Compare object at 0x7094e7b568d0 -->
<g id="edge53" class="edge">
<title>ast.If object at 0x7094e7b54fd0&#45;&gt;ast.Compare object at 0x7094e7b568d0</title>
<path fill="none" stroke="black" d="M607.6,-431.97C592.04,-384.09 547.8,-248.06 528.89,-189.9"/>
<polygon fill="black" stroke="black" points="532.19,-188.73 525.77,-180.31 525.54,-190.9 532.19,-188.73"/>
</g>
<!-- ast.Expr object at 0x7094e7c98cd0 -->
<g id="node46" class="node">
<title>ast.Expr object at 0x7094e7c98cd0</title>
<path fill="#66cdaa" stroke="black" d="M656.14,-396C656.14,-396 626.14,-396 626.14,-396 620.14,-396 614.14,-390 614.14,-384 614.14,-384 614.14,-372 614.14,-372 614.14,-366 620.14,-360 626.14,-360 626.14,-360 656.14,-360 656.14,-360 662.14,-360 668.14,-366 668.14,-372 668.14,-372 668.14,-384 668.14,-384 668.14,-390 662.14,-396 656.14,-396"/>
<text text-anchor="middle" x="641.14" y="-374.3" font-family="Times,serif" font-size="14.00">Expr</text>
</g>
<!-- ast.If object at 0x7094e7b54fd0&#45;&gt;ast.Expr object at 0x7094e7c98cd0 -->
<g id="edge59" class="edge">
<title>ast.If object at 0x7094e7b54fd0&#45;&gt;ast.Expr object at 0x7094e7c98cd0</title>
<path fill="none" stroke="black" d="M620.07,-431.7C623.22,-423.81 627.02,-414.3 630.53,-405.55"/>
<polygon fill="black" stroke="black" points="633.84,-406.69 634.3,-396.1 627.34,-404.09 633.84,-406.69"/>
</g>
<!-- ast.Assign object at 0x7094e7bfd810 -->
<g id="node53" class="node">
<title>ast.Assign object at 0x7094e7bfd810</title>
<path fill="#66cdaa" stroke="black" d="M425.14,-396C425.14,-396 395.14,-396 395.14,-396 389.14,-396 383.14,-390 383.14,-384 383.14,-384 383.14,-372 383.14,-372 383.14,-366 389.14,-360 395.14,-360 395.14,-360 425.14,-360 425.14,-360 431.14,-360 437.14,-366 437.14,-372 437.14,-372 437.14,-384 437.14,-384 437.14,-390 431.14,-396 425.14,-396"/>
<text text-anchor="middle" x="410.14" y="-374.3" font-family="Times,serif" font-size="14.00">Assign</text>
</g>
<!-- ast.If object at 0x7094e7b54fd0&#45;&gt;ast.Assign object at 0x7094e7bfd810 -->
<g id="edge71" class="edge">
<title>ast.If object at 0x7094e7b54fd0&#45;&gt;ast.Assign object at 0x7094e7bfd810</title>
<path fill="none" stroke="black" d="M585.77,-439.56C549.95,-427.21 487.06,-405.52 447.06,-391.73"/>
<polygon fill="black" stroke="black" points="448.01,-388.35 437.41,-388.4 445.72,-394.97 448.01,-388.35"/>
</g>
<!-- ast.Name object at 0x7094e7cb63d0 -->
<g id="node43" class="node">
<title>ast.Name object at 0x7094e7cb63d0</title>
<path fill="#66cdaa" stroke="black" d="M518.14,-108C518.14,-108 488.14,-108 488.14,-108 482.14,-108 476.14,-102 476.14,-96 476.14,-96 476.14,-84 476.14,-84 476.14,-78 482.14,-72 488.14,-72 488.14,-72 518.14,-72 518.14,-72 524.14,-72 530.14,-78 530.14,-84 530.14,-84 530.14,-96 530.14,-96 530.14,-102 524.14,-108 518.14,-108"/>
<text text-anchor="middle" x="503.14" y="-86.3" font-family="Times,serif" font-size="14.00">Name</text>
</g>
<!-- ast.Compare object at 0x7094e7b568d0&#45;&gt;ast.Name object at 0x7094e7cb63d0 -->
<g id="edge54" class="edge">
<title>ast.Compare object at 0x7094e7b568d0&#45;&gt;ast.Name object at 0x7094e7cb63d0</title>
<path fill="none" stroke="black" d="M515.94,-143.7C514.05,-135.9 511.77,-126.51 509.66,-117.83"/>
<polygon fill="black" stroke="black" points="513.06,-117 507.3,-108.1 506.26,-118.65 513.06,-117"/>
</g>
<!-- ast.In object at 0x7094e93c2b90 -->
<g id="node44" class="node">
<title>ast.In object at 0x7094e93c2b90</title>
<path fill="#66cdaa" stroke="black" d="M590.14,-108C590.14,-108 560.14,-108 560.14,-108 554.14,-108 548.14,-102 548.14,-96 548.14,-96 548.14,-84 548.14,-84 548.14,-78 554.14,-72 560.14,-72 560.14,-72 590.14,-72 590.14,-72 596.14,-72 602.14,-78 602.14,-84 602.14,-84 602.14,-96 602.14,-96 602.14,-102 596.14,-108 590.14,-108"/>
<text text-anchor="middle" x="575.14" y="-86.3" font-family="Times,serif" font-size="14.00">In</text>
</g>
<!-- ast.Compare object at 0x7094e7b568d0&#45;&gt;ast.In object at 0x7094e93c2b90 -->
<g id="edge56" class="edge">
<title>ast.Compare object at 0x7094e7b568d0&#45;&gt;ast.In object at 0x7094e93c2b90</title>
<path fill="none" stroke="black" d="M533.74,-143.7C540.27,-135.39 548.21,-125.28 555.39,-116.14"/>
<polygon fill="black" stroke="black" points="558.28,-118.13 561.7,-108.1 552.77,-113.81 558.28,-118.13"/>
</g>
<!-- ast.Name object at 0x7094e7c9b990 -->
<g id="node45" class="node">
<title>ast.Name object at 0x7094e7c9b990</title>
<path fill="#66cdaa" stroke="black" d="M446.14,-108C446.14,-108 416.14,-108 416.14,-108 410.14,-108 404.14,-102 404.14,-96 404.14,-96 404.14,-84 404.14,-84 404.14,-78 410.14,-72 416.14,-72 416.14,-72 446.14,-72 446.14,-72 452.14,-72 458.14,-78 458.14,-84 458.14,-84 458.14,-96 458.14,-96 458.14,-102 452.14,-108 446.14,-108"/>
<text text-anchor="middle" x="431.14" y="-86.3" font-family="Times,serif" font-size="14.00">Name</text>
</g>
<!-- ast.Compare object at 0x7094e7b568d0&#45;&gt;ast.Name object at 0x7094e7c9b990 -->
<g id="edge57" class="edge">
<title>ast.Compare object at 0x7094e7b568d0&#45;&gt;ast.Name object at 0x7094e7c9b990</title>
<path fill="none" stroke="black" d="M498.14,-143.7C486.94,-134.88 473.14,-124.03 460.99,-114.47"/>
<polygon fill="black" stroke="black" points="462.91,-111.54 452.89,-108.1 458.59,-117.04 462.91,-111.54"/>
</g>
<!-- ast.Name object at 0x7094e7cb63d0&#45;&gt;ast.Load object at 0x7094e93c1790 -->
<g id="edge55" class="edge">
<title>ast.Name object at 0x7094e7cb63d0&#45;&gt;ast.Load object at 0x7094e93c1790</title>
<path fill="none" stroke="black" d="M530.37,-75.28C533.29,-74.07 536.25,-72.95 539.14,-72 621.09,-45.17 721.57,-29.98 774.84,-23.25"/>
<polygon fill="black" stroke="black" points="775.34,-26.71 784.84,-22.01 774.49,-19.76 775.34,-26.71"/>
</g>
<!-- ast.Name object at 0x7094e7c9b990&#45;&gt;ast.Load object at 0x7094e93c1790 -->
<g id="edge58" class="edge">
<title>ast.Name object at 0x7094e7c9b990&#45;&gt;ast.Load object at 0x7094e93c1790</title>
<path fill="none" stroke="black" d="M458.34,-75.16C461.26,-73.98 464.24,-72.89 467.14,-72 575.83,-38.76 710.45,-25.78 774.66,-21.21"/>
<polygon fill="black" stroke="black" points="774.97,-24.7 784.71,-20.53 774.49,-17.71 774.97,-24.7"/>
</g>
<!-- ast.Call object at 0x7094e6e49cd0 -->
<g id="node47" class="node">
<title>ast.Call object at 0x7094e6e49cd0</title>
<path fill="#66cdaa" stroke="black" d="M763.14,-324C763.14,-324 733.14,-324 733.14,-324 727.14,-324 721.14,-318 721.14,-312 721.14,-312 721.14,-300 721.14,-300 721.14,-294 727.14,-288 733.14,-288 733.14,-288 763.14,-288 763.14,-288 769.14,-288 775.14,-294 775.14,-300 775.14,-300 775.14,-312 775.14,-312 775.14,-318 769.14,-324 763.14,-324"/>
<text text-anchor="middle" x="748.14" y="-302.3" font-family="Times,serif" font-size="14.00">Call</text>
</g>
<!-- ast.Expr object at 0x7094e7c98cd0&#45;&gt;ast.Call object at 0x7094e6e49cd0 -->
<g id="edge60" class="edge">
<title>ast.Expr object at 0x7094e7c98cd0&#45;&gt;ast.Call object at 0x7094e6e49cd0</title>
<path fill="none" stroke="black" d="M667.32,-359.88C681.18,-350.81 698.39,-339.55 713.35,-329.76"/>
<polygon fill="black" stroke="black" points="715.42,-332.59 721.87,-324.19 711.58,-326.74 715.42,-332.59"/>
</g>
<!-- ast.Attribute object at 0x7094e6cf59d0 -->
<g id="node48" class="node">
<title>ast.Attribute object at 0x7094e6cf59d0</title>
<path fill="#66cdaa" stroke="black" d="M768.64,-252C768.64,-252 727.64,-252 727.64,-252 721.64,-252 715.64,-246 715.64,-240 715.64,-240 715.64,-228 715.64,-228 715.64,-222 721.64,-216 727.64,-216 727.64,-216 768.64,-216 768.64,-216 774.64,-216 780.64,-222 780.64,-228 780.64,-228 780.64,-240 780.64,-240 780.64,-246 774.64,-252 768.64,-252"/>
<text text-anchor="middle" x="748.14" y="-230.3" font-family="Times,serif" font-size="14.00">Attribute</text>
</g>
<!-- ast.Call object at 0x7094e6e49cd0&#45;&gt;ast.Attribute object at 0x7094e6cf59d0 -->
<g id="edge61" class="edge">
<title>ast.Call object at 0x7094e6e49cd0&#45;&gt;ast.Attribute object at 0x7094e6cf59d0</title>
<path fill="none" stroke="black" d="M748.14,-287.7C748.14,-279.98 748.14,-270.71 748.14,-262.11"/>
<polygon fill="black" stroke="black" points="751.64,-262.1 748.14,-252.1 744.64,-262.1 751.64,-262.1"/>
</g>
<!-- ast.Name object at 0x7094e7b9f250 -->
<g id="node52" class="node">
<title>ast.Name object at 0x7094e7b9f250</title>
<path fill="#66cdaa" stroke="black" d="M852.14,-252C852.14,-252 822.14,-252 822.14,-252 816.14,-252 810.14,-246 810.14,-240 810.14,-240 810.14,-228 810.14,-228 810.14,-222 816.14,-216 822.14,-216 822.14,-216 852.14,-216 852.14,-216 858.14,-216 864.14,-222 864.14,-228 864.14,-228 864.14,-240 864.14,-240 864.14,-246 858.14,-252 852.14,-252"/>
<text text-anchor="middle" x="837.14" y="-230.3" font-family="Times,serif" font-size="14.00">Name</text>
</g>
<!-- ast.Call object at 0x7094e6e49cd0&#45;&gt;ast.Name object at 0x7094e7b9f250 -->
<g id="edge69" class="edge">
<title>ast.Call object at 0x7094e6e49cd0&#45;&gt;ast.Name object at 0x7094e7b9f250</title>
<path fill="none" stroke="black" d="M770.14,-287.7C781.35,-278.88 795.15,-268.03 807.3,-258.47"/>
<polygon fill="black" stroke="black" points="809.7,-261.04 815.4,-252.1 805.37,-255.54 809.7,-261.04"/>
</g>
<!-- ast.Attribute object at 0x7094e6cf59d0&#45;&gt;ast.Load object at 0x7094e93c1790 -->
<g id="edge68" class="edge">
<title>ast.Attribute object at 0x7094e6cf59d0&#45;&gt;ast.Load object at 0x7094e93c1790</title>
<path fill="none" stroke="black" d="M759.55,-215.99C765.86,-205.91 773.36,-192.66 778.14,-180 795.21,-134.87 804.56,-79.2 808.94,-46.55"/>
<polygon fill="black" stroke="black" points="812.44,-46.77 810.24,-36.41 805.5,-45.88 812.44,-46.77"/>
</g>
<!-- ast.Subscript object at 0x7094e6cf7b90 -->
<g id="node49" class="node">
<title>ast.Subscript object at 0x7094e6cf7b90</title>
<path fill="#66cdaa" stroke="black" d="M757.14,-180C757.14,-180 713.14,-180 713.14,-180 707.14,-180 701.14,-174 701.14,-168 701.14,-168 701.14,-156 701.14,-156 701.14,-150 707.14,-144 713.14,-144 713.14,-144 757.14,-144 757.14,-144 763.14,-144 769.14,-150 769.14,-156 769.14,-156 769.14,-168 769.14,-168 769.14,-174 763.14,-180 757.14,-180"/>
<text text-anchor="middle" x="735.14" y="-158.3" font-family="Times,serif" font-size="14.00">Subscript</text>
</g>
<!-- ast.Attribute object at 0x7094e6cf59d0&#45;&gt;ast.Subscript object at 0x7094e6cf7b90 -->
<g id="edge62" class="edge">
<title>ast.Attribute object at 0x7094e6cf59d0&#45;&gt;ast.Subscript object at 0x7094e6cf7b90</title>
<path fill="none" stroke="black" d="M744.93,-215.7C743.5,-207.98 741.78,-198.71 740.18,-190.11"/>
<polygon fill="black" stroke="black" points="743.59,-189.3 738.32,-180.1 736.71,-190.58 743.59,-189.3"/>
</g>
<!-- ast.Subscript object at 0x7094e6cf7b90&#45;&gt;ast.Load object at 0x7094e93c1790 -->
<g id="edge67" class="edge">
<title>ast.Subscript object at 0x7094e6cf7b90&#45;&gt;ast.Load object at 0x7094e93c1790</title>
<path fill="none" stroke="black" d="M744.43,-143.87C757.73,-119.35 782.3,-74.03 797.9,-45.26"/>
<polygon fill="black" stroke="black" points="801.13,-46.65 802.82,-36.19 794.98,-43.31 801.13,-46.65"/>
</g>
<!-- ast.Name object at 0x7094e7b7dad0 -->
<g id="node50" class="node">
<title>ast.Name object at 0x7094e7b7dad0</title>
<path fill="#66cdaa" stroke="black" d="M662.14,-108C662.14,-108 632.14,-108 632.14,-108 626.14,-108 620.14,-102 620.14,-96 620.14,-96 620.14,-84 620.14,-84 620.14,-78 626.14,-72 632.14,-72 632.14,-72 662.14,-72 662.14,-72 668.14,-72 674.14,-78 674.14,-84 674.14,-84 674.14,-96 674.14,-96 674.14,-102 668.14,-108 662.14,-108"/>
<text text-anchor="middle" x="647.14" y="-86.3" font-family="Times,serif" font-size="14.00">Name</text>
</g>
<!-- ast.Subscript object at 0x7094e6cf7b90&#45;&gt;ast.Name object at 0x7094e7b7dad0 -->
<g id="edge63" class="edge">
<title>ast.Subscript object at 0x7094e6cf7b90&#45;&gt;ast.Name object at 0x7094e7b7dad0</title>
<path fill="none" stroke="black" d="M713.39,-143.7C702.31,-134.88 688.67,-124.03 676.65,-114.47"/>
<polygon fill="black" stroke="black" points="678.65,-111.59 668.65,-108.1 674.29,-117.07 678.65,-111.59"/>
</g>
<!-- ast.Name object at 0x7094e7b7f390 -->
<g id="node51" class="node">
<title>ast.Name object at 0x7094e7b7f390</title>
<path fill="#66cdaa" stroke="black" d="M734.14,-108C734.14,-108 704.14,-108 704.14,-108 698.14,-108 692.14,-102 692.14,-96 692.14,-96 692.14,-84 692.14,-84 692.14,-78 698.14,-72 704.14,-72 704.14,-72 734.14,-72 734.14,-72 740.14,-72 746.14,-78 746.14,-84 746.14,-84 746.14,-96 746.14,-96 746.14,-102 740.14,-108 734.14,-108"/>
<text text-anchor="middle" x="719.14" y="-86.3" font-family="Times,serif" font-size="14.00">Name</text>
</g>
<!-- ast.Subscript object at 0x7094e6cf7b90&#45;&gt;ast.Name object at 0x7094e7b7f390 -->
<g id="edge65" class="edge">
<title>ast.Subscript object at 0x7094e6cf7b90&#45;&gt;ast.Name object at 0x7094e7b7f390</title>
<path fill="none" stroke="black" d="M731.19,-143.7C729.43,-135.98 727.31,-126.71 725.34,-118.11"/>
<polygon fill="black" stroke="black" points="728.69,-117.07 723.05,-108.1 721.87,-118.63 728.69,-117.07"/>
</g>
<!-- ast.Name object at 0x7094e7b7dad0&#45;&gt;ast.Load object at 0x7094e93c1790 -->
<g id="edge64" class="edge">
<title>ast.Name object at 0x7094e7b7dad0&#45;&gt;ast.Load object at 0x7094e93c1790</title>
<path fill="none" stroke="black" d="M674.2,-76.04C677.21,-74.65 680.23,-73.28 683.14,-72 713.98,-58.39 749.43,-43.91 775.35,-33.53"/>
<polygon fill="black" stroke="black" points="776.8,-36.72 784.79,-29.76 774.21,-30.22 776.8,-36.72"/>
</g>
<!-- ast.Name object at 0x7094e7b7f390&#45;&gt;ast.Load object at 0x7094e93c1790 -->
<g id="edge66" class="edge">
<title>ast.Name object at 0x7094e7b7f390&#45;&gt;ast.Load object at 0x7094e93c1790</title>
<path fill="none" stroke="black" d="M742.13,-71.7C753.96,-62.8 768.54,-51.82 781.32,-42.2"/>
<polygon fill="black" stroke="black" points="783.53,-44.91 789.42,-36.1 779.33,-39.32 783.53,-44.91"/>
</g>
<!-- ast.Name object at 0x7094e7b9f250&#45;&gt;ast.Load object at 0x7094e93c1790 -->
<g id="edge70" class="edge">
<title>ast.Name object at 0x7094e7b9f250&#45;&gt;ast.Load object at 0x7094e93c1790</title>
<path fill="none" stroke="black" d="M837.04,-215.96C836.62,-186.44 834.7,-123.97 826.14,-72 824.71,-63.32 822.49,-54 820.24,-45.63"/>
<polygon fill="black" stroke="black" points="823.6,-44.68 817.52,-36.01 816.87,-46.58 823.6,-44.68"/>
</g>
<!-- ast.Subscript object at 0x7094e7bfda50 -->
<g id="node54" class="node">
<title>ast.Subscript object at 0x7094e7bfda50</title>
<path fill="#66cdaa" stroke="black" d="M432.14,-324C432.14,-324 388.14,-324 388.14,-324 382.14,-324 376.14,-318 376.14,-312 376.14,-312 376.14,-300 376.14,-300 376.14,-294 382.14,-288 388.14,-288 388.14,-288 432.14,-288 432.14,-288 438.14,-288 444.14,-294 444.14,-300 444.14,-300 444.14,-312 444.14,-312 444.14,-318 438.14,-324 432.14,-324"/>
<text text-anchor="middle" x="410.14" y="-302.3" font-family="Times,serif" font-size="14.00">Subscript</text>
</g>
<!-- ast.Assign object at 0x7094e7bfd810&#45;&gt;ast.Subscript object at 0x7094e7bfda50 -->
<g id="edge72" class="edge">
<title>ast.Assign object at 0x7094e7bfd810&#45;&gt;ast.Subscript object at 0x7094e7bfda50</title>
<path fill="none" stroke="black" d="M410.14,-359.7C410.14,-351.98 410.14,-342.71 410.14,-334.11"/>
<polygon fill="black" stroke="black" points="413.64,-334.1 410.14,-324.1 406.64,-334.1 413.64,-334.1"/>
</g>
<!-- ast.List object at 0x7094e6dae490 -->
<g id="node57" class="node">
<title>ast.List object at 0x7094e6dae490</title>
<path fill="#66cdaa" stroke="black" d="M298.14,-180C298.14,-180 268.14,-180 268.14,-180 262.14,-180 256.14,-174 256.14,-168 256.14,-168 256.14,-156 256.14,-156 256.14,-150 262.14,-144 268.14,-144 268.14,-144 298.14,-144 298.14,-144 304.14,-144 310.14,-150 310.14,-156 310.14,-156 310.14,-168 310.14,-168 310.14,-174 304.14,-180 298.14,-180"/>
<text text-anchor="middle" x="283.14" y="-158.3" font-family="Times,serif" font-size="14.00">List</text>
</g>
<!-- ast.Assign object at 0x7094e7bfd810&#45;&gt;ast.List object at 0x7094e6dae490 -->
<g id="edge78" class="edge">
<title>ast.Assign object at 0x7094e7bfd810&#45;&gt;ast.List object at 0x7094e6dae490</title>
<path fill="none" stroke="black" d="M389.99,-359.72C365.31,-337.41 324.11,-296.17 302.14,-252 292.5,-232.61 287.74,-208.46 285.39,-190.21"/>
<polygon fill="black" stroke="black" points="288.86,-189.78 284.27,-180.23 281.91,-190.56 288.86,-189.78"/>
</g>
<!-- ast.Subscript object at 0x7094e7bfda50&#45;&gt;ast.Store object at 0x7094e93c1810 -->
<g id="edge77" class="edge">
<title>ast.Subscript object at 0x7094e7bfda50&#45;&gt;ast.Store object at 0x7094e93c1810</title>
<path fill="none" stroke="black" d="M444.17,-303.13C574.52,-295.9 1042.19,-269.31 1190.14,-252 1211.76,-249.47 1235.77,-245.53 1255.07,-242.07"/>
<polygon fill="black" stroke="black" points="1255.76,-245.5 1264.97,-240.27 1254.51,-238.62 1255.76,-245.5"/>
</g>
<!-- ast.Name object at 0x7094e7b5b590 -->
<g id="node55" class="node">
<title>ast.Name object at 0x7094e7b5b590</title>
<path fill="#66cdaa" stroke="black" d="M425.14,-252C425.14,-252 395.14,-252 395.14,-252 389.14,-252 383.14,-246 383.14,-240 383.14,-240 383.14,-228 383.14,-228 383.14,-222 389.14,-216 395.14,-216 395.14,-216 425.14,-216 425.14,-216 431.14,-216 437.14,-222 437.14,-228 437.14,-228 437.14,-240 437.14,-240 437.14,-246 431.14,-252 425.14,-252"/>
<text text-anchor="middle" x="410.14" y="-230.3" font-family="Times,serif" font-size="14.00">Name</text>
</g>
<!-- ast.Subscript object at 0x7094e7bfda50&#45;&gt;ast.Name object at 0x7094e7b5b590 -->
<g id="edge73" class="edge">
<title>ast.Subscript object at 0x7094e7bfda50&#45;&gt;ast.Name object at 0x7094e7b5b590</title>
<path fill="none" stroke="black" d="M410.14,-287.7C410.14,-279.98 410.14,-270.71 410.14,-262.11"/>
<polygon fill="black" stroke="black" points="413.64,-262.1 410.14,-252.1 406.64,-262.1 413.64,-262.1"/>
</g>
<!-- ast.Name object at 0x7094e7b58490 -->
<g id="node56" class="node">
<title>ast.Name object at 0x7094e7b58490</title>
<path fill="#66cdaa" stroke="black" d="M353.14,-252C353.14,-252 323.14,-252 323.14,-252 317.14,-252 311.14,-246 311.14,-240 311.14,-240 311.14,-228 311.14,-228 311.14,-222 317.14,-216 323.14,-216 323.14,-216 353.14,-216 353.14,-216 359.14,-216 365.14,-222 365.14,-228 365.14,-228 365.14,-240 365.14,-240 365.14,-246 359.14,-252 353.14,-252"/>
<text text-anchor="middle" x="338.14" y="-230.3" font-family="Times,serif" font-size="14.00">Name</text>
</g>
<!-- ast.Subscript object at 0x7094e7bfda50&#45;&gt;ast.Name object at 0x7094e7b58490 -->
<g id="edge75" class="edge">
<title>ast.Subscript object at 0x7094e7bfda50&#45;&gt;ast.Name object at 0x7094e7b58490</title>
<path fill="none" stroke="black" d="M392.35,-287.7C383.54,-279.14 372.76,-268.66 363.14,-259.3"/>
<polygon fill="black" stroke="black" points="365.35,-256.57 355.74,-252.1 360.47,-261.58 365.35,-256.57"/>
</g>
<!-- ast.Name object at 0x7094e7b5b590&#45;&gt;ast.Load object at 0x7094e93c1790 -->
<g id="edge74" class="edge">
<title>ast.Name object at 0x7094e7b5b590&#45;&gt;ast.Load object at 0x7094e93c1790</title>
<path fill="none" stroke="black" d="M401.36,-215.93C386.04,-183.52 359.33,-112.65 395.14,-72 420.1,-43.67 677.24,-26.51 774.85,-20.97"/>
<polygon fill="black" stroke="black" points="775.07,-24.46 784.86,-20.41 774.68,-17.47 775.07,-24.46"/>
</g>
<!-- ast.Name object at 0x7094e7b58490&#45;&gt;ast.Load object at 0x7094e93c1790 -->
<g id="edge76" class="edge">
<title>ast.Name object at 0x7094e7b58490&#45;&gt;ast.Load object at 0x7094e93c1790</title>
<path fill="none" stroke="black" d="M336.33,-215.79C333.86,-182.49 333.79,-109.22 375.14,-72 433.53,-19.45 679.95,-17.12 774.76,-18.24"/>
<polygon fill="black" stroke="black" points="774.98,-21.75 785.02,-18.38 775.07,-14.75 774.98,-21.75"/>
</g>
<!-- ast.List object at 0x7094e6dae490&#45;&gt;ast.Load object at 0x7094e93c1790 -->
<g id="edge81" class="edge">
<title>ast.List object at 0x7094e6dae490&#45;&gt;ast.Load object at 0x7094e93c1790</title>
<path fill="none" stroke="black" d="M285.89,-143.7C290.17,-122.99 300.53,-88.99 324.14,-72 396.14,-20.21 673.64,-17.6 774.89,-18.43"/>
<polygon fill="black" stroke="black" points="774.93,-21.93 784.96,-18.53 775,-14.93 774.93,-21.93"/>
</g>
<!-- ast.Name object at 0x7094e6dac590 -->
<g id="node58" class="node">
<title>ast.Name object at 0x7094e6dac590</title>
<path fill="#66cdaa" stroke="black" d="M260.14,-108C260.14,-108 230.14,-108 230.14,-108 224.14,-108 218.14,-102 218.14,-96 218.14,-96 218.14,-84 218.14,-84 218.14,-78 224.14,-72 230.14,-72 230.14,-72 260.14,-72 260.14,-72 266.14,-72 272.14,-78 272.14,-84 272.14,-84 272.14,-96 272.14,-96 272.14,-102 266.14,-108 260.14,-108"/>
<text text-anchor="middle" x="245.14" y="-86.3" font-family="Times,serif" font-size="14.00">Name</text>
</g>
<!-- ast.List object at 0x7094e6dae490&#45;&gt;ast.Name object at 0x7094e6dac590 -->
<g id="edge79" class="edge">
<title>ast.List object at 0x7094e6dae490&#45;&gt;ast.Name object at 0x7094e6dac590</title>
<path fill="none" stroke="black" d="M273.75,-143.7C269.38,-135.64 264.09,-125.89 259.25,-116.98"/>
<polygon fill="black" stroke="black" points="262.28,-115.22 254.43,-108.1 256.12,-118.56 262.28,-115.22"/>
</g>
<!-- ast.Name object at 0x7094e6dac590&#45;&gt;ast.Load object at 0x7094e93c1790 -->
<g id="edge80" class="edge">
<title>ast.Name object at 0x7094e6dac590&#45;&gt;ast.Load object at 0x7094e93c1790</title>
<path fill="none" stroke="black" d="M272.56,-76.35C277.03,-74.66 281.66,-73.13 286.14,-72 465.35,-26.86 688.05,-19.94 774.97,-19.04"/>
<polygon fill="black" stroke="black" points="775.15,-22.54 785.12,-18.96 775.09,-15.54 775.15,-22.54"/>
</g>
<!-- ast.Name object at 0x7094e7673150 -->
<g id="node60" class="node">
<title>ast.Name object at 0x7094e7673150</title>
<path fill="#66cdaa" stroke="black" d="M1363.14,-324C1363.14,-324 1333.14,-324 1333.14,-324 1327.14,-324 1321.14,-318 1321.14,-312 1321.14,-312 1321.14,-300 1321.14,-300 1321.14,-294 1327.14,-288 1333.14,-288 1333.14,-288 1363.14,-288 1363.14,-288 1369.14,-288 1375.14,-294 1375.14,-300 1375.14,-300 1375.14,-312 1375.14,-312 1375.14,-318 1369.14,-324 1363.14,-324"/>
<text text-anchor="middle" x="1348.14" y="-302.3" font-family="Times,serif" font-size="14.00">Name</text>
</g>
<!-- ast.For object at 0x7094e7bb7550&#45;&gt;ast.Name object at 0x7094e7673150 -->
<g id="edge83" class="edge">
<title>ast.For object at 0x7094e7bb7550&#45;&gt;ast.Name object at 0x7094e7673150</title>
<path fill="none" stroke="black" d="M1409.87,-359.7C1399.65,-350.97 1387.08,-340.24 1375.97,-330.75"/>
<polygon fill="black" stroke="black" points="1378.06,-327.94 1368.18,-324.1 1373.51,-333.26 1378.06,-327.94"/>
</g>
<!-- ast.Call object at 0x7094e7672490 -->
<g id="node61" class="node">
<title>ast.Call object at 0x7094e7672490</title>
<path fill="#66cdaa" stroke="black" d="M1437.14,-324C1437.14,-324 1407.14,-324 1407.14,-324 1401.14,-324 1395.14,-318 1395.14,-312 1395.14,-312 1395.14,-300 1395.14,-300 1395.14,-294 1401.14,-288 1407.14,-288 1407.14,-288 1437.14,-288 1437.14,-288 1443.14,-288 1449.14,-294 1449.14,-300 1449.14,-300 1449.14,-312 1449.14,-312 1449.14,-318 1443.14,-324 1437.14,-324"/>
<text text-anchor="middle" x="1422.14" y="-302.3" font-family="Times,serif" font-size="14.00">Call</text>
</g>
<!-- ast.For object at 0x7094e7bb7550&#45;&gt;ast.Call object at 0x7094e7672490 -->
<g id="edge85" class="edge">
<title>ast.For object at 0x7094e7bb7550&#45;&gt;ast.Call object at 0x7094e7672490</title>
<path fill="none" stroke="black" d="M1428.17,-359.7C1427.28,-351.98 1426.23,-342.71 1425.24,-334.11"/>
<polygon fill="black" stroke="black" points="1428.71,-333.64 1424.1,-324.1 1421.76,-334.44 1428.71,-333.64"/>
</g>
<!-- ast.If object at 0x7094e7671450 -->
<g id="node64" class="node">
<title>ast.If object at 0x7094e7671450</title>
<path fill="#66cdaa" stroke="black" d="M1510.14,-324C1510.14,-324 1480.14,-324 1480.14,-324 1474.14,-324 1468.14,-318 1468.14,-312 1468.14,-312 1468.14,-300 1468.14,-300 1468.14,-294 1474.14,-288 1480.14,-288 1480.14,-288 1510.14,-288 1510.14,-288 1516.14,-288 1522.14,-294 1522.14,-300 1522.14,-300 1522.14,-312 1522.14,-312 1522.14,-318 1516.14,-324 1510.14,-324"/>
<text text-anchor="middle" x="1495.14" y="-302.3" font-family="Times,serif" font-size="14.00">If</text>
</g>
<!-- ast.For object at 0x7094e7bb7550&#45;&gt;ast.If object at 0x7094e7671450 -->
<g id="edge90" class="edge">
<title>ast.For object at 0x7094e7bb7550&#45;&gt;ast.If object at 0x7094e7671450</title>
<path fill="none" stroke="black" d="M1446.21,-359.7C1454.08,-351.22 1463.7,-340.86 1472.32,-331.58"/>
<polygon fill="black" stroke="black" points="1475.02,-333.81 1479.26,-324.1 1469.89,-329.05 1475.02,-333.81"/>
</g>
<!-- ast.Name object at 0x7094e7673150&#45;&gt;ast.Store object at 0x7094e93c1810 -->
<g id="edge84" class="edge">
<title>ast.Name object at 0x7094e7673150&#45;&gt;ast.Store object at 0x7094e93c1810</title>
<path fill="none" stroke="black" d="M1334.3,-287.7C1327.66,-279.39 1319.57,-269.28 1312.26,-260.14"/>
<polygon fill="black" stroke="black" points="1314.81,-257.73 1305.83,-252.1 1309.34,-262.1 1314.81,-257.73"/>
</g>
<!-- ast.Attribute object at 0x7094e76720d0 -->
<g id="node62" class="node">
<title>ast.Attribute object at 0x7094e76720d0</title>
<path fill="#66cdaa" stroke="black" d="M1432.64,-180C1432.64,-180 1391.64,-180 1391.64,-180 1385.64,-180 1379.64,-174 1379.64,-168 1379.64,-168 1379.64,-156 1379.64,-156 1379.64,-150 1385.64,-144 1391.64,-144 1391.64,-144 1432.64,-144 1432.64,-144 1438.64,-144 1444.64,-150 1444.64,-156 1444.64,-156 1444.64,-168 1444.64,-168 1444.64,-174 1438.64,-180 1432.64,-180"/>
<text text-anchor="middle" x="1412.14" y="-158.3" font-family="Times,serif" font-size="14.00">Attribute</text>
</g>
<!-- ast.Call object at 0x7094e7672490&#45;&gt;ast.Attribute object at 0x7094e76720d0 -->
<g id="edge86" class="edge">
<title>ast.Call object at 0x7094e7672490&#45;&gt;ast.Attribute object at 0x7094e76720d0</title>
<path fill="none" stroke="black" d="M1420.94,-287.87C1419.23,-263.67 1416.1,-219.21 1414.07,-190.39"/>
<polygon fill="black" stroke="black" points="1417.55,-189.92 1413.35,-180.19 1410.57,-190.41 1417.55,-189.92"/>
</g>
<!-- ast.Attribute object at 0x7094e76720d0&#45;&gt;ast.Load object at 0x7094e93c1790 -->
<g id="edge89" class="edge">
<title>ast.Attribute object at 0x7094e76720d0&#45;&gt;ast.Load object at 0x7094e93c1790</title>
<path fill="none" stroke="black" d="M1405.52,-143.83C1396.47,-122.93 1378.09,-88.38 1350.14,-72 1265.03,-22.1 956.84,-18.41 849.4,-18.69"/>
<polygon fill="black" stroke="black" points="849.33,-15.19 839.35,-18.73 849.36,-22.19 849.33,-15.19"/>
</g>
<!-- ast.Name object at 0x7094e7671310 -->
<g id="node63" class="node">
<title>ast.Name object at 0x7094e7671310</title>
<path fill="#66cdaa" stroke="black" d="M1444.14,-108C1444.14,-108 1414.14,-108 1414.14,-108 1408.14,-108 1402.14,-102 1402.14,-96 1402.14,-96 1402.14,-84 1402.14,-84 1402.14,-78 1408.14,-72 1414.14,-72 1414.14,-72 1444.14,-72 1444.14,-72 1450.14,-72 1456.14,-78 1456.14,-84 1456.14,-84 1456.14,-96 1456.14,-96 1456.14,-102 1450.14,-108 1444.14,-108"/>
<text text-anchor="middle" x="1429.14" y="-86.3" font-family="Times,serif" font-size="14.00">Name</text>
</g>
<!-- ast.Attribute object at 0x7094e76720d0&#45;&gt;ast.Name object at 0x7094e7671310 -->
<g id="edge87" class="edge">
<title>ast.Attribute object at 0x7094e76720d0&#45;&gt;ast.Name object at 0x7094e7671310</title>
<path fill="none" stroke="black" d="M1416.35,-143.7C1418.24,-135.9 1420.52,-126.51 1422.63,-117.83"/>
<polygon fill="black" stroke="black" points="1426.03,-118.65 1424.99,-108.1 1419.23,-117 1426.03,-118.65"/>
</g>
<!-- ast.Name object at 0x7094e7671310&#45;&gt;ast.Load object at 0x7094e93c1790 -->
<g id="edge88" class="edge">
<title>ast.Name object at 0x7094e7671310&#45;&gt;ast.Load object at 0x7094e93c1790</title>
<path fill="none" stroke="black" d="M1401.74,-76.32C1397.27,-74.63 1392.63,-73.11 1388.14,-72 1189.58,-22.9 942.35,-18.38 849.6,-18.58"/>
<polygon fill="black" stroke="black" points="849.31,-15.09 839.32,-18.63 849.34,-22.09 849.31,-15.09"/>
</g>
<!-- ast.Compare object at 0x7094e7671790 -->
<g id="node65" class="node">
<title>ast.Compare object at 0x7094e7671790</title>
<path fill="#66cdaa" stroke="black" d="M1630.64,-252C1630.64,-252 1587.64,-252 1587.64,-252 1581.64,-252 1575.64,-246 1575.64,-240 1575.64,-240 1575.64,-228 1575.64,-228 1575.64,-222 1581.64,-216 1587.64,-216 1587.64,-216 1630.64,-216 1630.64,-216 1636.64,-216 1642.64,-222 1642.64,-228 1642.64,-228 1642.64,-240 1642.64,-240 1642.64,-246 1636.64,-252 1630.64,-252"/>
<text text-anchor="middle" x="1609.14" y="-230.3" font-family="Times,serif" font-size="14.00">Compare</text>
</g>
<!-- ast.If object at 0x7094e7671450&#45;&gt;ast.Compare object at 0x7094e7671790 -->
<g id="edge91" class="edge">
<title>ast.If object at 0x7094e7671450&#45;&gt;ast.Compare object at 0x7094e7671790</title>
<path fill="none" stroke="black" d="M1522.16,-288.41C1537.16,-279.2 1556.03,-267.61 1572.36,-257.59"/>
<polygon fill="black" stroke="black" points="1574.44,-260.42 1581.13,-252.2 1570.78,-254.45 1574.44,-260.42"/>
</g>
<!-- ast.Return object at 0x7094e7672a10 -->
<g id="node71" class="node">
<title>ast.Return object at 0x7094e7672a10</title>
<path fill="#66cdaa" stroke="black" d="M1510.14,-252C1510.14,-252 1480.14,-252 1480.14,-252 1474.14,-252 1468.14,-246 1468.14,-240 1468.14,-240 1468.14,-228 1468.14,-228 1468.14,-222 1474.14,-216 1480.14,-216 1480.14,-216 1510.14,-216 1510.14,-216 1516.14,-216 1522.14,-222 1522.14,-228 1522.14,-228 1522.14,-240 1522.14,-240 1522.14,-246 1516.14,-252 1510.14,-252"/>
<text text-anchor="middle" x="1495.14" y="-230.3" font-family="Times,serif" font-size="14.00">Return</text>
</g>
<!-- ast.If object at 0x7094e7671450&#45;&gt;ast.Return object at 0x7094e7672a10 -->
<g id="edge99" class="edge">
<title>ast.If object at 0x7094e7671450&#45;&gt;ast.Return object at 0x7094e7672a10</title>
<path fill="none" stroke="black" d="M1495.14,-287.7C1495.14,-279.98 1495.14,-270.71 1495.14,-262.11"/>
<polygon fill="black" stroke="black" points="1498.64,-262.1 1495.14,-252.1 1491.64,-262.1 1498.64,-262.1"/>
</g>
<!-- ast.Call object at 0x7094e7671e90 -->
<g id="node66" class="node">
<title>ast.Call object at 0x7094e7671e90</title>
<path fill="#66cdaa" stroke="black" d="M1588.14,-180C1588.14,-180 1558.14,-180 1558.14,-180 1552.14,-180 1546.14,-174 1546.14,-168 1546.14,-168 1546.14,-156 1546.14,-156 1546.14,-150 1552.14,-144 1558.14,-144 1558.14,-144 1588.14,-144 1588.14,-144 1594.14,-144 1600.14,-150 1600.14,-156 1600.14,-156 1600.14,-168 1600.14,-168 1600.14,-174 1594.14,-180 1588.14,-180"/>
<text text-anchor="middle" x="1573.14" y="-158.3" font-family="Times,serif" font-size="14.00">Call</text>
</g>
<!-- ast.Compare object at 0x7094e7671790&#45;&gt;ast.Call object at 0x7094e7671e90 -->
<g id="edge92" class="edge">
<title>ast.Compare object at 0x7094e7671790&#45;&gt;ast.Call object at 0x7094e7671e90</title>
<path fill="none" stroke="black" d="M1600.25,-215.7C1596.15,-207.73 1591.2,-198.1 1586.65,-189.26"/>
<polygon fill="black" stroke="black" points="1589.63,-187.4 1581.94,-180.1 1583.4,-190.6 1589.63,-187.4"/>
</g>
<!-- ast.GtE object at 0x7094e93c2a10 -->
<g id="node69" class="node">
<title>ast.GtE object at 0x7094e93c2a10</title>
<path fill="#66cdaa" stroke="black" d="M1660.14,-180C1660.14,-180 1630.14,-180 1630.14,-180 1624.14,-180 1618.14,-174 1618.14,-168 1618.14,-168 1618.14,-156 1618.14,-156 1618.14,-150 1624.14,-144 1630.14,-144 1630.14,-144 1660.14,-144 1660.14,-144 1666.14,-144 1672.14,-150 1672.14,-156 1672.14,-156 1672.14,-168 1672.14,-168 1672.14,-174 1666.14,-180 1660.14,-180"/>
<text text-anchor="middle" x="1645.14" y="-158.3" font-family="Times,serif" font-size="14.00">GtE</text>
</g>
<!-- ast.Compare object at 0x7094e7671790&#45;&gt;ast.GtE object at 0x7094e93c2a10 -->
<g id="edge97" class="edge">
<title>ast.Compare object at 0x7094e7671790&#45;&gt;ast.GtE object at 0x7094e93c2a10</title>
<path fill="none" stroke="black" d="M1618.04,-215.7C1622.14,-207.73 1627.09,-198.1 1631.64,-189.26"/>
<polygon fill="black" stroke="black" points="1634.89,-190.6 1636.35,-180.1 1628.66,-187.4 1634.89,-190.6"/>
</g>
<!-- ast.Constant object at 0x7094e7671850 -->
<g id="node70" class="node">
<title>ast.Constant object at 0x7094e7671850</title>
<path fill="#66cdaa" stroke="black" d="M1743.64,-180C1743.64,-180 1702.64,-180 1702.64,-180 1696.64,-180 1690.64,-174 1690.64,-168 1690.64,-168 1690.64,-156 1690.64,-156 1690.64,-150 1696.64,-144 1702.64,-144 1702.64,-144 1743.64,-144 1743.64,-144 1749.64,-144 1755.64,-150 1755.64,-156 1755.64,-156 1755.64,-168 1755.64,-168 1755.64,-174 1749.64,-180 1743.64,-180"/>
<text text-anchor="middle" x="1723.14" y="-158.3" font-family="Times,serif" font-size="14.00">Constant</text>
</g>
<!-- ast.Compare object at 0x7094e7671790&#45;&gt;ast.Constant object at 0x7094e7671850 -->
<g id="edge98" class="edge">
<title>ast.Compare object at 0x7094e7671790&#45;&gt;ast.Constant object at 0x7094e7671850</title>
<path fill="none" stroke="black" d="M1637.03,-215.88C1651.94,-206.72 1670.47,-195.34 1686.53,-185.48"/>
<polygon fill="black" stroke="black" points="1688.46,-188.41 1695.15,-180.19 1684.8,-182.44 1688.46,-188.41"/>
</g>
<!-- ast.Name object at 0x7094e7670210 -->
<g id="node67" class="node">
<title>ast.Name object at 0x7094e7670210</title>
<path fill="#66cdaa" stroke="black" d="M1516.14,-108C1516.14,-108 1486.14,-108 1486.14,-108 1480.14,-108 1474.14,-102 1474.14,-96 1474.14,-96 1474.14,-84 1474.14,-84 1474.14,-78 1480.14,-72 1486.14,-72 1486.14,-72 1516.14,-72 1516.14,-72 1522.14,-72 1528.14,-78 1528.14,-84 1528.14,-84 1528.14,-96 1528.14,-96 1528.14,-102 1522.14,-108 1516.14,-108"/>
<text text-anchor="middle" x="1501.14" y="-86.3" font-family="Times,serif" font-size="14.00">Name</text>
</g>
<!-- ast.Call object at 0x7094e7671e90&#45;&gt;ast.Name object at 0x7094e7670210 -->
<g id="edge93" class="edge">
<title>ast.Call object at 0x7094e7671e90&#45;&gt;ast.Name object at 0x7094e7670210</title>
<path fill="none" stroke="black" d="M1555.35,-143.7C1546.54,-135.14 1535.76,-124.66 1526.14,-115.3"/>
<polygon fill="black" stroke="black" points="1528.35,-112.57 1518.74,-108.1 1523.47,-117.58 1528.35,-112.57"/>
</g>
<!-- ast.Name object at 0x7094e7672090 -->
<g id="node68" class="node">
<title>ast.Name object at 0x7094e7672090</title>
<path fill="#66cdaa" stroke="black" d="M1588.14,-108C1588.14,-108 1558.14,-108 1558.14,-108 1552.14,-108 1546.14,-102 1546.14,-96 1546.14,-96 1546.14,-84 1546.14,-84 1546.14,-78 1552.14,-72 1558.14,-72 1558.14,-72 1588.14,-72 1588.14,-72 1594.14,-72 1600.14,-78 1600.14,-84 1600.14,-84 1600.14,-96 1600.14,-96 1600.14,-102 1594.14,-108 1588.14,-108"/>
<text text-anchor="middle" x="1573.14" y="-86.3" font-family="Times,serif" font-size="14.00">Name</text>
</g>
<!-- ast.Call object at 0x7094e7671e90&#45;&gt;ast.Name object at 0x7094e7672090 -->
<g id="edge95" class="edge">
<title>ast.Call object at 0x7094e7671e90&#45;&gt;ast.Name object at 0x7094e7672090</title>
<path fill="none" stroke="black" d="M1573.14,-143.7C1573.14,-135.98 1573.14,-126.71 1573.14,-118.11"/>
<polygon fill="black" stroke="black" points="1576.64,-118.1 1573.14,-108.1 1569.64,-118.1 1576.64,-118.1"/>
</g>
<!-- ast.Name object at 0x7094e7670210&#45;&gt;ast.Load object at 0x7094e93c1790 -->
<g id="edge94" class="edge">
<title>ast.Name object at 0x7094e7670210&#45;&gt;ast.Load object at 0x7094e93c1790</title>
<path fill="none" stroke="black" d="M1474.01,-74.95C1471.07,-73.8 1468.08,-72.79 1465.14,-72 1347.54,-40.58 970.11,-24.65 849.54,-20.27"/>
<polygon fill="black" stroke="black" points="849.46,-16.77 839.34,-19.91 849.21,-23.76 849.46,-16.77"/>
</g>
<!-- ast.Name object at 0x7094e7672090&#45;&gt;ast.Load object at 0x7094e93c1790 -->
<g id="edge96" class="edge">
<title>ast.Name object at 0x7094e7672090&#45;&gt;ast.Load object at 0x7094e93c1790</title>
<path fill="none" stroke="black" d="M1546.02,-74.92C1543.08,-73.78 1540.09,-72.77 1537.14,-72 1405.07,-37.28 978.17,-23.39 849.31,-19.92"/>
<polygon fill="black" stroke="black" points="849.25,-16.42 839.16,-19.65 849.07,-23.41 849.25,-16.42"/>
</g>
<!-- ast.Constant object at 0x7094e7671f10 -->
<g id="node72" class="node">
<title>ast.Constant object at 0x7094e7671f10</title>
<path fill="#66cdaa" stroke="black" d="M1515.64,-180C1515.64,-180 1474.64,-180 1474.64,-180 1468.64,-180 1462.64,-174 1462.64,-168 1462.64,-168 1462.64,-156 1462.64,-156 1462.64,-150 1468.64,-144 1474.64,-144 1474.64,-144 1515.64,-144 1515.64,-144 1521.64,-144 1527.64,-150 1527.64,-156 1527.64,-156 1527.64,-168 1527.64,-168 1527.64,-174 1521.64,-180 1515.64,-180"/>
<text text-anchor="middle" x="1495.14" y="-158.3" font-family="Times,serif" font-size="14.00">Constant</text>
</g>
<!-- ast.Return object at 0x7094e7672a10&#45;&gt;ast.Constant object at 0x7094e7671f10 -->
<g id="edge100" class="edge">
<title>ast.Return object at 0x7094e7672a10&#45;&gt;ast.Constant object at 0x7094e7671f10</title>
<path fill="none" stroke="black" d="M1495.14,-215.7C1495.14,-207.98 1495.14,-198.71 1495.14,-190.11"/>
<polygon fill="black" stroke="black" points="1498.64,-190.1 1495.14,-180.1 1491.64,-190.1 1498.64,-190.1"/>
</g>
<!-- ast.Constant object at 0x7094e7672410 -->
<g id="node74" class="node">
<title>ast.Constant object at 0x7094e7672410</title>
<path fill="#66cdaa" stroke="black" d="M1213.64,-468C1213.64,-468 1172.64,-468 1172.64,-468 1166.64,-468 1160.64,-462 1160.64,-456 1160.64,-456 1160.64,-444 1160.64,-444 1160.64,-438 1166.64,-432 1172.64,-432 1172.64,-432 1213.64,-432 1213.64,-432 1219.64,-432 1225.64,-438 1225.64,-444 1225.64,-444 1225.64,-456 1225.64,-456 1225.64,-462 1219.64,-468 1213.64,-468"/>
<text text-anchor="middle" x="1193.14" y="-446.3" font-family="Times,serif" font-size="14.00">Constant</text>
</g>
<!-- ast.Return object at 0x7094e76700d0&#45;&gt;ast.Constant object at 0x7094e7672410 -->
<g id="edge102" class="edge">
<title>ast.Return object at 0x7094e76700d0&#45;&gt;ast.Constant object at 0x7094e7672410</title>
<path fill="none" stroke="black" d="M1193.14,-503.7C1193.14,-495.98 1193.14,-486.71 1193.14,-478.11"/>
<polygon fill="black" stroke="black" points="1196.64,-478.1 1193.14,-468.1 1189.64,-478.1 1196.64,-478.1"/>
</g>
</g>
</svg>
