<?xml version="1.0" encoding="UTF-8" standalone="no"?>
<!DOCTYPE svg PUBLIC "-//W3C//DTD SVG 1.1//EN"
 "http://www.w3.org/Graphics/SVG/1.1/DTD/svg11.dtd">
<!-- Generated by graphviz version 2.50.0 (0)
 -->
<!-- Pages: 1 -->
<svg width="1856pt" height="764pt"
 viewBox="0.00 0.00 1855.50 764.00" xmlns="http://www.w3.org/2000/svg" xmlns:xlink="http://www.w3.org/1999/xlink">
<g id="graph0" class="graph" transform="scale(1 1) rotate(0) translate(4 760)">
<polygon fill="white" stroke="transparent" points="-4,4 -4,-760 1851.5,-760 1851.5,4 -4,4"/>
<!-- ast.Module object at 0x7aa892f7c410 -->
<g id="node1" class="node">
<title>ast.Module object at 0x7aa892f7c410</title>
<path fill="#66cdaa" stroke="black" d="M1546,-756C1546,-756 1511,-756 1511,-756 1505,-756 1499,-750 1499,-744 1499,-744 1499,-732 1499,-732 1499,-726 1505,-720 1511,-720 1511,-720 1546,-720 1546,-720 1552,-720 1558,-726 1558,-732 1558,-732 1558,-744 1558,-744 1558,-750 1552,-756 1546,-756"/>
<text text-anchor="middle" x="1528.5" y="-734.3" font-family="Times,serif" font-size="14.00">Module</text>
</g>
<!-- ast.FunctionDef object at 0x7aa892f7d710 -->
<g id="node2" class="node">
<title>ast.FunctionDef object at 0x7aa892f7d710</title>
<path fill="#66cdaa" stroke="black" d="M1559,-684C1559,-684 1498,-684 1498,-684 1492,-684 1486,-678 1486,-672 1486,-672 1486,-660 1486,-660 1486,-654 1492,-648 1498,-648 1498,-648 1559,-648 1559,-648 1565,-648 1571,-654 1571,-660 1571,-660 1571,-672 1571,-672 1571,-678 1565,-684 1559,-684"/>
<text text-anchor="middle" x="1528.5" y="-662.3" font-family="Times,serif" font-size="14.00">FunctionDef</text>
</g>
<!-- ast.Module object at 0x7aa892f7c410&#45;&gt;ast.FunctionDef object at 0x7aa892f7d710 -->
<g id="edge1" class="edge">
<title>ast.Module object at 0x7aa892f7c410&#45;&gt;ast.FunctionDef object at 0x7aa892f7d710</title>
<path fill="none" stroke="black" d="M1528.5,-719.7C1528.5,-711.98 1528.5,-702.71 1528.5,-694.11"/>
<polygon fill="black" stroke="black" points="1532,-694.1 1528.5,-684.1 1525,-694.1 1532,-694.1"/>
</g>
<!-- ast.arguments object at 0x7aa892f7c5d0 -->
<g id="node3" class="node">
<title>ast.arguments object at 0x7aa892f7c5d0</title>
<path fill="#66cdaa" stroke="black" d="M791.5,-612C791.5,-612 741.5,-612 741.5,-612 735.5,-612 729.5,-606 729.5,-600 729.5,-600 729.5,-588 729.5,-588 729.5,-582 735.5,-576 741.5,-576 741.5,-576 791.5,-576 791.5,-576 797.5,-576 803.5,-582 803.5,-588 803.5,-588 803.5,-600 803.5,-600 803.5,-606 797.5,-612 791.5,-612"/>
<text text-anchor="middle" x="766.5" y="-590.3" font-family="Times,serif" font-size="14.00">arguments</text>
</g>
<!-- ast.FunctionDef object at 0x7aa892f7d710&#45;&gt;ast.arguments object at 0x7aa892f7c5d0 -->
<g id="edge2" class="edge">
<title>ast.FunctionDef object at 0x7aa892f7d710&#45;&gt;ast.arguments object at 0x7aa892f7c5d0</title>
<path fill="none" stroke="black" d="M1485.65,-663.87C1377.22,-660.52 1083.39,-648.54 841.5,-612 832.39,-610.62 822.74,-608.75 813.5,-606.76"/>
<polygon fill="black" stroke="black" points="814.21,-603.33 803.68,-604.55 812.67,-610.16 814.21,-603.33"/>
</g>
<!-- ast.Assign object at 0x7aa892f7e310 -->
<g id="node5" class="node">
<title>ast.Assign object at 0x7aa892f7e310</title>
<path fill="#66cdaa" stroke="black" d="M1625.5,-396C1625.5,-396 1595.5,-396 1595.5,-396 1589.5,-396 1583.5,-390 1583.5,-384 1583.5,-384 1583.5,-372 1583.5,-372 1583.5,-366 1589.5,-360 1595.5,-360 1595.5,-360 1625.5,-360 1625.5,-360 1631.5,-360 1637.5,-366 1637.5,-372 1637.5,-372 1637.5,-384 1637.5,-384 1637.5,-390 1631.5,-396 1625.5,-396"/>
<text text-anchor="middle" x="1610.5" y="-374.3" font-family="Times,serif" font-size="14.00">Assign</text>
</g>
<!-- ast.FunctionDef object at 0x7aa892f7d710&#45;&gt;ast.Assign object at 0x7aa892f7e310 -->
<g id="edge4" class="edge">
<title>ast.FunctionDef object at 0x7aa892f7d710&#45;&gt;ast.Assign object at 0x7aa892f7e310</title>
<path fill="none" stroke="black" d="M1533.38,-647.97C1547.08,-600.19 1585.95,-464.62 1602.68,-406.27"/>
<polygon fill="black" stroke="black" points="1606.15,-406.88 1605.54,-396.31 1599.42,-404.95 1606.15,-406.88"/>
</g>
<!-- ast.Assign object at 0x7aa892f7c850 -->
<g id="node12" class="node">
<title>ast.Assign object at 0x7aa892f7c850</title>
<path fill="#66cdaa" stroke="black" d="M892.5,-612C892.5,-612 862.5,-612 862.5,-612 856.5,-612 850.5,-606 850.5,-600 850.5,-600 850.5,-588 850.5,-588 850.5,-582 856.5,-576 862.5,-576 862.5,-576 892.5,-576 892.5,-576 898.5,-576 904.5,-582 904.5,-588 904.5,-588 904.5,-600 904.5,-600 904.5,-606 898.5,-612 892.5,-612"/>
<text text-anchor="middle" x="877.5" y="-590.3" font-family="Times,serif" font-size="14.00">Assign</text>
</g>
<!-- ast.FunctionDef object at 0x7aa892f7d710&#45;&gt;ast.Assign object at 0x7aa892f7c850 -->
<g id="edge12" class="edge">
<title>ast.FunctionDef object at 0x7aa892f7d710&#45;&gt;ast.Assign object at 0x7aa892f7c850</title>
<path fill="none" stroke="black" d="M1485.79,-660.41C1365.9,-647.52 1027.67,-611.15 914.74,-599"/>
<polygon fill="black" stroke="black" points="914.85,-595.5 904.53,-597.91 914.1,-602.46 914.85,-595.5"/>
</g>
<!-- ast.Assign object at 0x7aa892f7c0d0 -->
<g id="node17" class="node">
<title>ast.Assign object at 0x7aa892f7c0d0</title>
<path fill="#66cdaa" stroke="black" d="M1697.5,-396C1697.5,-396 1667.5,-396 1667.5,-396 1661.5,-396 1655.5,-390 1655.5,-384 1655.5,-384 1655.5,-372 1655.5,-372 1655.5,-366 1661.5,-360 1667.5,-360 1667.5,-360 1697.5,-360 1697.5,-360 1703.5,-360 1709.5,-366 1709.5,-372 1709.5,-372 1709.5,-384 1709.5,-384 1709.5,-390 1703.5,-396 1697.5,-396"/>
<text text-anchor="middle" x="1682.5" y="-374.3" font-family="Times,serif" font-size="14.00">Assign</text>
</g>
<!-- ast.FunctionDef object at 0x7aa892f7d710&#45;&gt;ast.Assign object at 0x7aa892f7c0d0 -->
<g id="edge18" class="edge">
<title>ast.FunctionDef object at 0x7aa892f7d710&#45;&gt;ast.Assign object at 0x7aa892f7c0d0</title>
<path fill="none" stroke="black" d="M1540.67,-647.64C1547.64,-637.44 1556.39,-624.19 1563.5,-612 1606.15,-538.86 1649.78,-448.7 1670.35,-405.08"/>
<polygon fill="black" stroke="black" points="1673.53,-406.55 1674.61,-396.01 1667.19,-403.57 1673.53,-406.55"/>
</g>
<!-- ast.For object at 0x7aa892f7d110 -->
<g id="node20" class="node">
<title>ast.For object at 0x7aa892f7d110</title>
<path fill="#66cdaa" stroke="black" d="M1455.5,-612C1455.5,-612 1425.5,-612 1425.5,-612 1419.5,-612 1413.5,-606 1413.5,-600 1413.5,-600 1413.5,-588 1413.5,-588 1413.5,-582 1419.5,-576 1425.5,-576 1425.5,-576 1455.5,-576 1455.5,-576 1461.5,-576 1467.5,-582 1467.5,-588 1467.5,-588 1467.5,-600 1467.5,-600 1467.5,-606 1461.5,-612 1455.5,-612"/>
<text text-anchor="middle" x="1440.5" y="-590.3" font-family="Times,serif" font-size="14.00">For</text>
</g>
<!-- ast.FunctionDef object at 0x7aa892f7d710&#45;&gt;ast.For object at 0x7aa892f7d110 -->
<g id="edge23" class="edge">
<title>ast.FunctionDef object at 0x7aa892f7d710&#45;&gt;ast.For object at 0x7aa892f7d110</title>
<path fill="none" stroke="black" d="M1506.75,-647.7C1495.66,-638.88 1482.03,-628.03 1470.01,-618.47"/>
<polygon fill="black" stroke="black" points="1472.01,-615.59 1462,-612.1 1467.65,-621.07 1472.01,-615.59"/>
</g>
<!-- ast.Return object at 0x7aa892e66150 -->
<g id="node76" class="node">
<title>ast.Return object at 0x7aa892e66150</title>
<path fill="#66cdaa" stroke="black" d="M1721.5,-612C1721.5,-612 1691.5,-612 1691.5,-612 1685.5,-612 1679.5,-606 1679.5,-600 1679.5,-600 1679.5,-588 1679.5,-588 1679.5,-582 1685.5,-576 1691.5,-576 1691.5,-576 1721.5,-576 1721.5,-576 1727.5,-576 1733.5,-582 1733.5,-588 1733.5,-588 1733.5,-600 1733.5,-600 1733.5,-606 1727.5,-612 1721.5,-612"/>
<text text-anchor="middle" x="1706.5" y="-590.3" font-family="Times,serif" font-size="14.00">Return</text>
</g>
<!-- ast.FunctionDef object at 0x7aa892f7d710&#45;&gt;ast.Return object at 0x7aa892e66150 -->
<g id="edge111" class="edge">
<title>ast.FunctionDef object at 0x7aa892f7d710&#45;&gt;ast.Return object at 0x7aa892e66150</title>
<path fill="none" stroke="black" d="M1571.18,-648.79C1598.27,-638.43 1634.02,-624.62 1665.5,-612 1666.89,-611.44 1668.3,-610.88 1669.72,-610.3"/>
<polygon fill="black" stroke="black" points="1671.26,-613.45 1679.19,-606.43 1668.61,-606.97 1671.26,-613.45"/>
</g>
<!-- ast.arg object at 0x7aa892f7f350 -->
<g id="node4" class="node">
<title>ast.arg object at 0x7aa892f7f350</title>
<path fill="#66cdaa" stroke="black" d="M751.5,-540C751.5,-540 721.5,-540 721.5,-540 715.5,-540 709.5,-534 709.5,-528 709.5,-528 709.5,-516 709.5,-516 709.5,-510 715.5,-504 721.5,-504 721.5,-504 751.5,-504 751.5,-504 757.5,-504 763.5,-510 763.5,-516 763.5,-516 763.5,-528 763.5,-528 763.5,-534 757.5,-540 751.5,-540"/>
<text text-anchor="middle" x="736.5" y="-518.3" font-family="Times,serif" font-size="14.00">arg</text>
</g>
<!-- ast.arguments object at 0x7aa892f7c5d0&#45;&gt;ast.arg object at 0x7aa892f7f350 -->
<g id="edge3" class="edge">
<title>ast.arguments object at 0x7aa892f7c5d0&#45;&gt;ast.arg object at 0x7aa892f7f350</title>
<path fill="none" stroke="black" d="M759.08,-575.7C755.71,-567.81 751.63,-558.3 747.88,-549.55"/>
<polygon fill="black" stroke="black" points="750.99,-547.92 743.83,-540.1 744.55,-550.67 750.99,-547.92"/>
</g>
<!-- ast.Name object at 0x7aa892f7eb50 -->
<g id="node6" class="node">
<title>ast.Name object at 0x7aa892f7eb50</title>
<path fill="#66cdaa" stroke="black" d="M1587.5,-324C1587.5,-324 1557.5,-324 1557.5,-324 1551.5,-324 1545.5,-318 1545.5,-312 1545.5,-312 1545.5,-300 1545.5,-300 1545.5,-294 1551.5,-288 1557.5,-288 1557.5,-288 1587.5,-288 1587.5,-288 1593.5,-288 1599.5,-294 1599.5,-300 1599.5,-300 1599.5,-312 1599.5,-312 1599.5,-318 1593.5,-324 1587.5,-324"/>
<text text-anchor="middle" x="1572.5" y="-302.3" font-family="Times,serif" font-size="14.00">Name</text>
</g>
<!-- ast.Assign object at 0x7aa892f7e310&#45;&gt;ast.Name object at 0x7aa892f7eb50 -->
<g id="edge5" class="edge">
<title>ast.Assign object at 0x7aa892f7e310&#45;&gt;ast.Name object at 0x7aa892f7eb50</title>
<path fill="none" stroke="black" d="M1601.11,-359.7C1596.74,-351.64 1591.44,-341.89 1586.6,-332.98"/>
<polygon fill="black" stroke="black" points="1589.63,-331.22 1581.79,-324.1 1583.48,-334.56 1589.63,-331.22"/>
</g>
<!-- ast.Call object at 0x7aa892f7c250 -->
<g id="node8" class="node">
<title>ast.Call object at 0x7aa892f7c250</title>
<path fill="#66cdaa" stroke="black" d="M1752.5,-180C1752.5,-180 1722.5,-180 1722.5,-180 1716.5,-180 1710.5,-174 1710.5,-168 1710.5,-168 1710.5,-156 1710.5,-156 1710.5,-150 1716.5,-144 1722.5,-144 1722.5,-144 1752.5,-144 1752.5,-144 1758.5,-144 1764.5,-150 1764.5,-156 1764.5,-156 1764.5,-168 1764.5,-168 1764.5,-174 1758.5,-180 1752.5,-180"/>
<text text-anchor="middle" x="1737.5" y="-158.3" font-family="Times,serif" font-size="14.00">Call</text>
</g>
<!-- ast.Assign object at 0x7aa892f7e310&#45;&gt;ast.Call object at 0x7aa892f7c250 -->
<g id="edge7" class="edge">
<title>ast.Assign object at 0x7aa892f7e310&#45;&gt;ast.Call object at 0x7aa892f7c250</title>
<path fill="none" stroke="black" d="M1637.51,-363.86C1667.19,-349.31 1711.03,-327.44 1713.5,-324 1741.94,-284.31 1742.92,-224.84 1740.56,-190.39"/>
<polygon fill="black" stroke="black" points="1744.02,-189.81 1739.7,-180.13 1737.04,-190.39 1744.02,-189.81"/>
</g>
<!-- ast.Store object at 0x7aa8921cccd0 -->
<g id="node7" class="node">
<title>ast.Store object at 0x7aa8921cccd0</title>
<path fill="#66cdaa" stroke="black" d="M1384.5,-252C1384.5,-252 1354.5,-252 1354.5,-252 1348.5,-252 1342.5,-246 1342.5,-240 1342.5,-240 1342.5,-228 1342.5,-228 1342.5,-222 1348.5,-216 1354.5,-216 1354.5,-216 1384.5,-216 1384.5,-216 1390.5,-216 1396.5,-222 1396.5,-228 1396.5,-228 1396.5,-240 1396.5,-240 1396.5,-246 1390.5,-252 1384.5,-252"/>
<text text-anchor="middle" x="1369.5" y="-230.3" font-family="Times,serif" font-size="14.00">Store</text>
</g>
<!-- ast.Name object at 0x7aa892f7eb50&#45;&gt;ast.Store object at 0x7aa8921cccd0 -->
<g id="edge6" class="edge">
<title>ast.Name object at 0x7aa892f7eb50&#45;&gt;ast.Store object at 0x7aa8921cccd0</title>
<path fill="none" stroke="black" d="M1545.27,-293.37C1540.7,-291.51 1535.98,-289.66 1531.5,-288 1489,-272.26 1439.37,-256.39 1406.35,-246.17"/>
<polygon fill="black" stroke="black" points="1407.25,-242.78 1396.66,-243.19 1405.19,-249.47 1407.25,-242.78"/>
</g>
<!-- ast.Name object at 0x7aa892f7d210 -->
<g id="node9" class="node">
<title>ast.Name object at 0x7aa892f7d210</title>
<path fill="#66cdaa" stroke="black" d="M1695.5,-108C1695.5,-108 1665.5,-108 1665.5,-108 1659.5,-108 1653.5,-102 1653.5,-96 1653.5,-96 1653.5,-84 1653.5,-84 1653.5,-78 1659.5,-72 1665.5,-72 1665.5,-72 1695.5,-72 1695.5,-72 1701.5,-72 1707.5,-78 1707.5,-84 1707.5,-84 1707.5,-96 1707.5,-96 1707.5,-102 1701.5,-108 1695.5,-108"/>
<text text-anchor="middle" x="1680.5" y="-86.3" font-family="Times,serif" font-size="14.00">Name</text>
</g>
<!-- ast.Call object at 0x7aa892f7c250&#45;&gt;ast.Name object at 0x7aa892f7d210 -->
<g id="edge8" class="edge">
<title>ast.Call object at 0x7aa892f7c250&#45;&gt;ast.Name object at 0x7aa892f7d210</title>
<path fill="none" stroke="black" d="M1723.41,-143.7C1716.58,-135.3 1708.24,-125.07 1700.74,-115.86"/>
<polygon fill="black" stroke="black" points="1703.46,-113.65 1694.43,-108.1 1698.03,-118.07 1703.46,-113.65"/>
</g>
<!-- ast.Name object at 0x7aa892f7cb90 -->
<g id="node11" class="node">
<title>ast.Name object at 0x7aa892f7cb90</title>
<path fill="#66cdaa" stroke="black" d="M1767.5,-108C1767.5,-108 1737.5,-108 1737.5,-108 1731.5,-108 1725.5,-102 1725.5,-96 1725.5,-96 1725.5,-84 1725.5,-84 1725.5,-78 1731.5,-72 1737.5,-72 1737.5,-72 1767.5,-72 1767.5,-72 1773.5,-72 1779.5,-78 1779.5,-84 1779.5,-84 1779.5,-96 1779.5,-96 1779.5,-102 1773.5,-108 1767.5,-108"/>
<text text-anchor="middle" x="1752.5" y="-86.3" font-family="Times,serif" font-size="14.00">Name</text>
</g>
<!-- ast.Call object at 0x7aa892f7c250&#45;&gt;ast.Name object at 0x7aa892f7cb90 -->
<g id="edge10" class="edge">
<title>ast.Call object at 0x7aa892f7c250&#45;&gt;ast.Name object at 0x7aa892f7cb90</title>
<path fill="none" stroke="black" d="M1741.21,-143.7C1742.86,-135.98 1744.85,-126.71 1746.69,-118.11"/>
<polygon fill="black" stroke="black" points="1750.16,-118.62 1748.83,-108.1 1743.32,-117.15 1750.16,-118.62"/>
</g>
<!-- ast.Load object at 0x7aa8921ccc50 -->
<g id="node10" class="node">
<title>ast.Load object at 0x7aa8921ccc50</title>
<path fill="#66cdaa" stroke="black" d="M994.5,-36C994.5,-36 964.5,-36 964.5,-36 958.5,-36 952.5,-30 952.5,-24 952.5,-24 952.5,-12 952.5,-12 952.5,-6 958.5,0 964.5,0 964.5,0 994.5,0 994.5,0 1000.5,0 1006.5,-6 1006.5,-12 1006.5,-12 1006.5,-24 1006.5,-24 1006.5,-30 1000.5,-36 994.5,-36"/>
<text text-anchor="middle" x="979.5" y="-14.3" font-family="Times,serif" font-size="14.00">Load</text>
</g>
<!-- ast.Name object at 0x7aa892f7d210&#45;&gt;ast.Load object at 0x7aa8921ccc50 -->
<g id="edge9" class="edge">
<title>ast.Name object at 0x7aa892f7d210&#45;&gt;ast.Load object at 0x7aa8921ccc50</title>
<path fill="none" stroke="black" d="M1653.37,-74.94C1650.43,-73.8 1647.44,-72.78 1644.5,-72 1524.59,-40.06 1139.5,-24.46 1017.17,-20.22"/>
<polygon fill="black" stroke="black" points="1016.94,-16.71 1006.83,-19.87 1016.7,-23.7 1016.94,-16.71"/>
</g>
<!-- ast.Name object at 0x7aa892f7cb90&#45;&gt;ast.Load object at 0x7aa8921ccc50 -->
<g id="edge11" class="edge">
<title>ast.Name object at 0x7aa892f7cb90&#45;&gt;ast.Load object at 0x7aa8921ccc50</title>
<path fill="none" stroke="black" d="M1725.38,-74.92C1722.44,-73.78 1719.44,-72.77 1716.5,-72 1582.08,-36.75 1147.3,-23.2 1016.84,-19.87"/>
<polygon fill="black" stroke="black" points="1016.66,-16.37 1006.57,-19.62 1016.48,-23.36 1016.66,-16.37"/>
</g>
<!-- ast.Name object at 0x7aa892f7c290 -->
<g id="node13" class="node">
<title>ast.Name object at 0x7aa892f7c290</title>
<path fill="#66cdaa" stroke="black" d="M1220.5,-468C1220.5,-468 1190.5,-468 1190.5,-468 1184.5,-468 1178.5,-462 1178.5,-456 1178.5,-456 1178.5,-444 1178.5,-444 1178.5,-438 1184.5,-432 1190.5,-432 1190.5,-432 1220.5,-432 1220.5,-432 1226.5,-432 1232.5,-438 1232.5,-444 1232.5,-444 1232.5,-456 1232.5,-456 1232.5,-462 1226.5,-468 1220.5,-468"/>
<text text-anchor="middle" x="1205.5" y="-446.3" font-family="Times,serif" font-size="14.00">Name</text>
</g>
<!-- ast.Assign object at 0x7aa892f7c850&#45;&gt;ast.Name object at 0x7aa892f7c290 -->
<g id="edge13" class="edge">
<title>ast.Assign object at 0x7aa892f7c850&#45;&gt;ast.Name object at 0x7aa892f7c290</title>
<path fill="none" stroke="black" d="M904.62,-581.26C963.43,-555.8 1102.72,-495.5 1169.1,-466.76"/>
<polygon fill="black" stroke="black" points="1170.56,-469.94 1178.35,-462.75 1167.78,-463.52 1170.56,-469.94"/>
</g>
<!-- ast.UnaryOp object at 0x7aa892f7c7d0 -->
<g id="node14" class="node">
<title>ast.UnaryOp object at 0x7aa892f7c7d0</title>
<path fill="#66cdaa" stroke="black" d="M837,-540C837,-540 794,-540 794,-540 788,-540 782,-534 782,-528 782,-528 782,-516 782,-516 782,-510 788,-504 794,-504 794,-504 837,-504 837,-504 843,-504 849,-510 849,-516 849,-516 849,-528 849,-528 849,-534 843,-540 837,-540"/>
<text text-anchor="middle" x="815.5" y="-518.3" font-family="Times,serif" font-size="14.00">UnaryOp</text>
</g>
<!-- ast.Assign object at 0x7aa892f7c850&#45;&gt;ast.UnaryOp object at 0x7aa892f7c7d0 -->
<g id="edge15" class="edge">
<title>ast.Assign object at 0x7aa892f7c850&#45;&gt;ast.UnaryOp object at 0x7aa892f7c7d0</title>
<path fill="none" stroke="black" d="M862.17,-575.7C854.74,-567.3 845.68,-557.07 837.52,-547.86"/>
<polygon fill="black" stroke="black" points="839.9,-545.27 830.65,-540.1 834.66,-549.91 839.9,-545.27"/>
</g>
<!-- ast.Name object at 0x7aa892f7c290&#45;&gt;ast.Store object at 0x7aa8921cccd0 -->
<g id="edge14" class="edge">
<title>ast.Name object at 0x7aa892f7c290&#45;&gt;ast.Store object at 0x7aa8921cccd0</title>
<path fill="none" stroke="black" d="M1207.92,-431.8C1211.18,-412.99 1218.28,-382.53 1232.5,-360 1259.2,-317.69 1303.96,-280.69 1335.02,-258.14"/>
<polygon fill="black" stroke="black" points="1337.28,-260.83 1343.39,-252.17 1333.22,-255.13 1337.28,-260.83"/>
</g>
<!-- ast.USub object at 0x7aa8921cdad0 -->
<g id="node15" class="node">
<title>ast.USub object at 0x7aa8921cdad0</title>
<path fill="#66cdaa" stroke="black" d="M841.5,-468C841.5,-468 811.5,-468 811.5,-468 805.5,-468 799.5,-462 799.5,-456 799.5,-456 799.5,-444 799.5,-444 799.5,-438 805.5,-432 811.5,-432 811.5,-432 841.5,-432 841.5,-432 847.5,-432 853.5,-438 853.5,-444 853.5,-444 853.5,-456 853.5,-456 853.5,-462 847.5,-468 841.5,-468"/>
<text text-anchor="middle" x="826.5" y="-446.3" font-family="Times,serif" font-size="14.00">USub</text>
</g>
<!-- ast.UnaryOp object at 0x7aa892f7c7d0&#45;&gt;ast.USub object at 0x7aa8921cdad0 -->
<g id="edge16" class="edge">
<title>ast.UnaryOp object at 0x7aa892f7c7d0&#45;&gt;ast.USub object at 0x7aa8921cdad0</title>
<path fill="none" stroke="black" d="M818.22,-503.7C819.43,-495.98 820.89,-486.71 822.24,-478.11"/>
<polygon fill="black" stroke="black" points="825.72,-478.53 823.81,-468.1 818.8,-477.44 825.72,-478.53"/>
</g>
<!-- ast.Constant object at 0x7aa892f7da50 -->
<g id="node16" class="node">
<title>ast.Constant object at 0x7aa892f7da50</title>
<path fill="#66cdaa" stroke="black" d="M769,-468C769,-468 728,-468 728,-468 722,-468 716,-462 716,-456 716,-456 716,-444 716,-444 716,-438 722,-432 728,-432 728,-432 769,-432 769,-432 775,-432 781,-438 781,-444 781,-444 781,-456 781,-456 781,-462 775,-468 769,-468"/>
<text text-anchor="middle" x="748.5" y="-446.3" font-family="Times,serif" font-size="14.00">Constant</text>
</g>
<!-- ast.UnaryOp object at 0x7aa892f7c7d0&#45;&gt;ast.Constant object at 0x7aa892f7da50 -->
<g id="edge17" class="edge">
<title>ast.UnaryOp object at 0x7aa892f7c7d0&#45;&gt;ast.Constant object at 0x7aa892f7da50</title>
<path fill="none" stroke="black" d="M798.94,-503.7C790.82,-495.22 780.91,-484.86 772.03,-475.58"/>
<polygon fill="black" stroke="black" points="774.31,-472.91 764.87,-468.1 769.26,-477.75 774.31,-472.91"/>
</g>
<!-- ast.Name object at 0x7aa892f7c610 -->
<g id="node18" class="node">
<title>ast.Name object at 0x7aa892f7c610</title>
<path fill="#66cdaa" stroke="black" d="M1659.5,-324C1659.5,-324 1629.5,-324 1629.5,-324 1623.5,-324 1617.5,-318 1617.5,-312 1617.5,-312 1617.5,-300 1617.5,-300 1617.5,-294 1623.5,-288 1629.5,-288 1629.5,-288 1659.5,-288 1659.5,-288 1665.5,-288 1671.5,-294 1671.5,-300 1671.5,-300 1671.5,-312 1671.5,-312 1671.5,-318 1665.5,-324 1659.5,-324"/>
<text text-anchor="middle" x="1644.5" y="-302.3" font-family="Times,serif" font-size="14.00">Name</text>
</g>
<!-- ast.Assign object at 0x7aa892f7c0d0&#45;&gt;ast.Name object at 0x7aa892f7c610 -->
<g id="edge19" class="edge">
<title>ast.Assign object at 0x7aa892f7c0d0&#45;&gt;ast.Name object at 0x7aa892f7c610</title>
<path fill="none" stroke="black" d="M1673.11,-359.7C1668.74,-351.64 1663.44,-341.89 1658.6,-332.98"/>
<polygon fill="black" stroke="black" points="1661.63,-331.22 1653.79,-324.1 1655.48,-334.56 1661.63,-331.22"/>
</g>
<!-- ast.List object at 0x7aa892f7c090 -->
<g id="node19" class="node">
<title>ast.List object at 0x7aa892f7c090</title>
<path fill="#66cdaa" stroke="black" d="M1807.5,-252C1807.5,-252 1777.5,-252 1777.5,-252 1771.5,-252 1765.5,-246 1765.5,-240 1765.5,-240 1765.5,-228 1765.5,-228 1765.5,-222 1771.5,-216 1777.5,-216 1777.5,-216 1807.5,-216 1807.5,-216 1813.5,-216 1819.5,-222 1819.5,-228 1819.5,-228 1819.5,-240 1819.5,-240 1819.5,-246 1813.5,-252 1807.5,-252"/>
<text text-anchor="middle" x="1792.5" y="-230.3" font-family="Times,serif" font-size="14.00">List</text>
</g>
<!-- ast.Assign object at 0x7aa892f7c0d0&#45;&gt;ast.List object at 0x7aa892f7c090 -->
<g id="edge21" class="edge">
<title>ast.Assign object at 0x7aa892f7c0d0&#45;&gt;ast.List object at 0x7aa892f7c090</title>
<path fill="none" stroke="black" d="M1709.63,-360.71C1723.53,-351.32 1739.91,-338.52 1751.5,-324 1766.37,-305.38 1777.24,-280.49 1784.04,-261.77"/>
<polygon fill="black" stroke="black" points="1787.43,-262.68 1787.39,-252.08 1780.81,-260.39 1787.43,-262.68"/>
</g>
<!-- ast.Name object at 0x7aa892f7c610&#45;&gt;ast.Store object at 0x7aa8921cccd0 -->
<g id="edge20" class="edge">
<title>ast.Name object at 0x7aa892f7c610&#45;&gt;ast.Store object at 0x7aa8921cccd0</title>
<path fill="none" stroke="black" d="M1617.25,-291.35C1614.33,-290.13 1611.38,-288.98 1608.5,-288 1537.87,-263.92 1517.33,-268.25 1444.5,-252 1432.08,-249.23 1418.51,-246.17 1406.37,-243.41"/>
<polygon fill="black" stroke="black" points="1407.09,-239.99 1396.57,-241.18 1405.54,-246.81 1407.09,-239.99"/>
</g>
<!-- ast.List object at 0x7aa892f7c090&#45;&gt;ast.Load object at 0x7aa8921ccc50 -->
<g id="edge22" class="edge">
<title>ast.List object at 0x7aa892f7c090&#45;&gt;ast.Load object at 0x7aa8921ccc50</title>
<path fill="none" stroke="black" d="M1798.6,-215.87C1809.08,-183.04 1825.97,-111.02 1788.5,-72 1734.53,-15.8 1168.64,-17.17 1016.81,-18.56"/>
<polygon fill="black" stroke="black" points="1016.57,-15.07 1006.61,-18.66 1016.64,-22.07 1016.57,-15.07"/>
</g>
<!-- ast.Name object at 0x7aa892f7c750 -->
<g id="node21" class="node">
<title>ast.Name object at 0x7aa892f7c750</title>
<path fill="#66cdaa" stroke="black" d="M1508.5,-540C1508.5,-540 1478.5,-540 1478.5,-540 1472.5,-540 1466.5,-534 1466.5,-528 1466.5,-528 1466.5,-516 1466.5,-516 1466.5,-510 1472.5,-504 1478.5,-504 1478.5,-504 1508.5,-504 1508.5,-504 1514.5,-504 1520.5,-510 1520.5,-516 1520.5,-516 1520.5,-528 1520.5,-528 1520.5,-534 1514.5,-540 1508.5,-540"/>
<text text-anchor="middle" x="1493.5" y="-518.3" font-family="Times,serif" font-size="14.00">Name</text>
</g>
<!-- ast.For object at 0x7aa892f7d110&#45;&gt;ast.Name object at 0x7aa892f7c750 -->
<g id="edge24" class="edge">
<title>ast.For object at 0x7aa892f7d110&#45;&gt;ast.Name object at 0x7aa892f7c750</title>
<path fill="none" stroke="black" d="M1453.6,-575.7C1459.89,-567.39 1467.55,-557.28 1474.46,-548.14"/>
<polygon fill="black" stroke="black" points="1477.3,-550.19 1480.55,-540.1 1471.72,-545.96 1477.3,-550.19"/>
</g>
<!-- ast.Call object at 0x7aa892f7c510 -->
<g id="node22" class="node">
<title>ast.Call object at 0x7aa892f7c510</title>
<path fill="#66cdaa" stroke="black" d="M216.5,-252C216.5,-252 186.5,-252 186.5,-252 180.5,-252 174.5,-246 174.5,-240 174.5,-240 174.5,-228 174.5,-228 174.5,-222 180.5,-216 186.5,-216 186.5,-216 216.5,-216 216.5,-216 222.5,-216 228.5,-222 228.5,-228 228.5,-228 228.5,-240 228.5,-240 228.5,-246 222.5,-252 216.5,-252"/>
<text text-anchor="middle" x="201.5" y="-230.3" font-family="Times,serif" font-size="14.00">Call</text>
</g>
<!-- ast.For object at 0x7aa892f7d110&#45;&gt;ast.Call object at 0x7aa892f7c510 -->
<g id="edge26" class="edge">
<title>ast.For object at 0x7aa892f7d110&#45;&gt;ast.Call object at 0x7aa892f7c510</title>
<path fill="none" stroke="black" d="M1413.47,-585.19C1252.83,-538.77 424.43,-299.41 238.55,-245.71"/>
<polygon fill="black" stroke="black" points="239.28,-242.27 228.7,-242.86 237.34,-249 239.28,-242.27"/>
</g>
<!-- ast.For object at 0x7aa892f7d190 -->
<g id="node29" class="node">
<title>ast.For object at 0x7aa892f7d190</title>
<path fill="#66cdaa" stroke="black" d="M1411.5,-540C1411.5,-540 1381.5,-540 1381.5,-540 1375.5,-540 1369.5,-534 1369.5,-528 1369.5,-528 1369.5,-516 1369.5,-516 1369.5,-510 1375.5,-504 1381.5,-504 1381.5,-504 1411.5,-504 1411.5,-504 1417.5,-504 1423.5,-510 1423.5,-516 1423.5,-516 1423.5,-528 1423.5,-528 1423.5,-534 1417.5,-540 1411.5,-540"/>
<text text-anchor="middle" x="1396.5" y="-518.3" font-family="Times,serif" font-size="14.00">For</text>
</g>
<!-- ast.For object at 0x7aa892f7d110&#45;&gt;ast.For object at 0x7aa892f7d190 -->
<g id="edge35" class="edge">
<title>ast.For object at 0x7aa892f7d110&#45;&gt;ast.For object at 0x7aa892f7d190</title>
<path fill="none" stroke="black" d="M1429.62,-575.7C1424.51,-567.56 1418.3,-557.69 1412.66,-548.7"/>
<polygon fill="black" stroke="black" points="1415.54,-546.71 1407.25,-540.1 1409.61,-550.43 1415.54,-546.71"/>
</g>
<!-- ast.Name object at 0x7aa892f7c750&#45;&gt;ast.Store object at 0x7aa8921cccd0 -->
<g id="edge25" class="edge">
<title>ast.Name object at 0x7aa892f7c750&#45;&gt;ast.Store object at 0x7aa8921cccd0</title>
<path fill="none" stroke="black" d="M1497.05,-503.76C1502.52,-473.94 1511.14,-411.03 1498.5,-360 1489.8,-324.88 1485.55,-314.11 1460.5,-288 1445.2,-272.04 1424.05,-259.34 1405.99,-250.37"/>
<polygon fill="black" stroke="black" points="1407.41,-247.17 1396.87,-246.02 1404.39,-253.49 1407.41,-247.17"/>
</g>
<!-- ast.Name object at 0x7aa892f7f2d0 -->
<g id="node23" class="node">
<title>ast.Name object at 0x7aa892f7f2d0</title>
<path fill="#66cdaa" stroke="black" d="M252.5,-180C252.5,-180 222.5,-180 222.5,-180 216.5,-180 210.5,-174 210.5,-168 210.5,-168 210.5,-156 210.5,-156 210.5,-150 216.5,-144 222.5,-144 222.5,-144 252.5,-144 252.5,-144 258.5,-144 264.5,-150 264.5,-156 264.5,-156 264.5,-168 264.5,-168 264.5,-174 258.5,-180 252.5,-180"/>
<text text-anchor="middle" x="237.5" y="-158.3" font-family="Times,serif" font-size="14.00">Name</text>
</g>
<!-- ast.Call object at 0x7aa892f7c510&#45;&gt;ast.Name object at 0x7aa892f7f2d0 -->
<g id="edge27" class="edge">
<title>ast.Call object at 0x7aa892f7c510&#45;&gt;ast.Name object at 0x7aa892f7f2d0</title>
<path fill="none" stroke="black" d="M210.4,-215.7C214.5,-207.73 219.45,-198.1 223.99,-189.26"/>
<polygon fill="black" stroke="black" points="227.24,-190.6 228.7,-180.1 221.02,-187.4 227.24,-190.6"/>
</g>
<!-- ast.Constant object at 0x7aa892f7ed10 -->
<g id="node24" class="node">
<title>ast.Constant object at 0x7aa892f7ed10</title>
<path fill="#66cdaa" stroke="black" d="M108,-180C108,-180 67,-180 67,-180 61,-180 55,-174 55,-168 55,-168 55,-156 55,-156 55,-150 61,-144 67,-144 67,-144 108,-144 108,-144 114,-144 120,-150 120,-156 120,-156 120,-168 120,-168 120,-174 114,-180 108,-180"/>
<text text-anchor="middle" x="87.5" y="-158.3" font-family="Times,serif" font-size="14.00">Constant</text>
</g>
<!-- ast.Call object at 0x7aa892f7c510&#45;&gt;ast.Constant object at 0x7aa892f7ed10 -->
<g id="edge29" class="edge">
<title>ast.Call object at 0x7aa892f7c510&#45;&gt;ast.Constant object at 0x7aa892f7ed10</title>
<path fill="none" stroke="black" d="M174.48,-216.41C159.48,-207.2 140.61,-195.61 124.28,-185.59"/>
<polygon fill="black" stroke="black" points="125.87,-182.45 115.51,-180.2 122.2,-188.42 125.87,-182.45"/>
</g>
<!-- ast.BinOp object at 0x7aa892f7c950 -->
<g id="node25" class="node">
<title>ast.BinOp object at 0x7aa892f7c950</title>
<path fill="#66cdaa" stroke="black" d="M180.5,-180C180.5,-180 150.5,-180 150.5,-180 144.5,-180 138.5,-174 138.5,-168 138.5,-168 138.5,-156 138.5,-156 138.5,-150 144.5,-144 150.5,-144 150.5,-144 180.5,-144 180.5,-144 186.5,-144 192.5,-150 192.5,-156 192.5,-156 192.5,-168 192.5,-168 192.5,-174 186.5,-180 180.5,-180"/>
<text text-anchor="middle" x="165.5" y="-158.3" font-family="Times,serif" font-size="14.00">BinOp</text>
</g>
<!-- ast.Call object at 0x7aa892f7c510&#45;&gt;ast.BinOp object at 0x7aa892f7c950 -->
<g id="edge30" class="edge">
<title>ast.Call object at 0x7aa892f7c510&#45;&gt;ast.BinOp object at 0x7aa892f7c950</title>
<path fill="none" stroke="black" d="M192.6,-215.7C188.5,-207.73 183.55,-198.1 179.01,-189.26"/>
<polygon fill="black" stroke="black" points="181.98,-187.4 174.3,-180.1 175.76,-190.6 181.98,-187.4"/>
</g>
<!-- ast.Name object at 0x7aa892f7f2d0&#45;&gt;ast.Load object at 0x7aa8921ccc50 -->
<g id="edge28" class="edge">
<title>ast.Name object at 0x7aa892f7f2d0&#45;&gt;ast.Load object at 0x7aa8921ccc50</title>
<path fill="none" stroke="black" d="M240.67,-143.9C245.51,-123.06 256.93,-88.59 281.5,-72 336.48,-34.89 805.3,-22.53 942.15,-19.7"/>
<polygon fill="black" stroke="black" points="942.22,-23.19 952.15,-19.49 942.08,-16.2 942.22,-23.19"/>
</g>
<!-- ast.Name object at 0x7aa892f7c190 -->
<g id="node26" class="node">
<title>ast.Name object at 0x7aa892f7c190</title>
<path fill="#66cdaa" stroke="black" d="M125.5,-108C125.5,-108 95.5,-108 95.5,-108 89.5,-108 83.5,-102 83.5,-96 83.5,-96 83.5,-84 83.5,-84 83.5,-78 89.5,-72 95.5,-72 95.5,-72 125.5,-72 125.5,-72 131.5,-72 137.5,-78 137.5,-84 137.5,-84 137.5,-96 137.5,-96 137.5,-102 131.5,-108 125.5,-108"/>
<text text-anchor="middle" x="110.5" y="-86.3" font-family="Times,serif" font-size="14.00">Name</text>
</g>
<!-- ast.BinOp object at 0x7aa892f7c950&#45;&gt;ast.Name object at 0x7aa892f7c190 -->
<g id="edge31" class="edge">
<title>ast.BinOp object at 0x7aa892f7c950&#45;&gt;ast.Name object at 0x7aa892f7c190</title>
<path fill="none" stroke="black" d="M151.9,-143.7C145.38,-135.39 137.43,-125.28 130.25,-116.14"/>
<polygon fill="black" stroke="black" points="132.87,-113.81 123.94,-108.1 127.37,-118.13 132.87,-113.81"/>
</g>
<!-- ast.Add object at 0x7aa8921cd150 -->
<g id="node27" class="node">
<title>ast.Add object at 0x7aa8921cd150</title>
<path fill="#66cdaa" stroke="black" d="M197.5,-108C197.5,-108 167.5,-108 167.5,-108 161.5,-108 155.5,-102 155.5,-96 155.5,-96 155.5,-84 155.5,-84 155.5,-78 161.5,-72 167.5,-72 167.5,-72 197.5,-72 197.5,-72 203.5,-72 209.5,-78 209.5,-84 209.5,-84 209.5,-96 209.5,-96 209.5,-102 203.5,-108 197.5,-108"/>
<text text-anchor="middle" x="182.5" y="-86.3" font-family="Times,serif" font-size="14.00">Add</text>
</g>
<!-- ast.BinOp object at 0x7aa892f7c950&#45;&gt;ast.Add object at 0x7aa8921cd150 -->
<g id="edge33" class="edge">
<title>ast.BinOp object at 0x7aa892f7c950&#45;&gt;ast.Add object at 0x7aa8921cd150</title>
<path fill="none" stroke="black" d="M169.7,-143.7C171.6,-135.9 173.88,-126.51 175.98,-117.83"/>
<polygon fill="black" stroke="black" points="179.39,-118.65 178.35,-108.1 172.58,-117 179.39,-118.65"/>
</g>
<!-- ast.Constant object at 0x7aa892f7c790 -->
<g id="node28" class="node">
<title>ast.Constant object at 0x7aa892f7c790</title>
<path fill="#66cdaa" stroke="black" d="M53,-108C53,-108 12,-108 12,-108 6,-108 0,-102 0,-96 0,-96 0,-84 0,-84 0,-78 6,-72 12,-72 12,-72 53,-72 53,-72 59,-72 65,-78 65,-84 65,-84 65,-96 65,-96 65,-102 59,-108 53,-108"/>
<text text-anchor="middle" x="32.5" y="-86.3" font-family="Times,serif" font-size="14.00">Constant</text>
</g>
<!-- ast.BinOp object at 0x7aa892f7c950&#45;&gt;ast.Constant object at 0x7aa892f7c790 -->
<g id="edge34" class="edge">
<title>ast.BinOp object at 0x7aa892f7c950&#45;&gt;ast.Constant object at 0x7aa892f7c790</title>
<path fill="none" stroke="black" d="M138.26,-146.67C119.73,-136.91 94.85,-123.82 73.88,-112.78"/>
<polygon fill="black" stroke="black" points="75.34,-109.59 64.86,-108.03 72.08,-115.79 75.34,-109.59"/>
</g>
<!-- ast.Name object at 0x7aa892f7c190&#45;&gt;ast.Load object at 0x7aa8921ccc50 -->
<g id="edge32" class="edge">
<title>ast.Name object at 0x7aa892f7c190&#45;&gt;ast.Load object at 0x7aa8921ccc50</title>
<path fill="none" stroke="black" d="M137.62,-74.9C140.56,-73.76 143.56,-72.76 146.5,-72 300.18,-32.37 800.73,-21.76 942.04,-19.52"/>
<polygon fill="black" stroke="black" points="942.4,-23.01 952.34,-19.36 942.29,-16.01 942.4,-23.01"/>
</g>
<!-- ast.Name object at 0x7aa892f7d9d0 -->
<g id="node30" class="node">
<title>ast.Name object at 0x7aa892f7d9d0</title>
<path fill="#66cdaa" stroke="black" d="M1411.5,-468C1411.5,-468 1381.5,-468 1381.5,-468 1375.5,-468 1369.5,-462 1369.5,-456 1369.5,-456 1369.5,-444 1369.5,-444 1369.5,-438 1375.5,-432 1381.5,-432 1381.5,-432 1411.5,-432 1411.5,-432 1417.5,-432 1423.5,-438 1423.5,-444 1423.5,-444 1423.5,-456 1423.5,-456 1423.5,-462 1417.5,-468 1411.5,-468"/>
<text text-anchor="middle" x="1396.5" y="-446.3" font-family="Times,serif" font-size="14.00">Name</text>
</g>
<!-- ast.For object at 0x7aa892f7d190&#45;&gt;ast.Name object at 0x7aa892f7d9d0 -->
<g id="edge36" class="edge">
<title>ast.For object at 0x7aa892f7d190&#45;&gt;ast.Name object at 0x7aa892f7d9d0</title>
<path fill="none" stroke="black" d="M1396.5,-503.7C1396.5,-495.98 1396.5,-486.71 1396.5,-478.11"/>
<polygon fill="black" stroke="black" points="1400,-478.1 1396.5,-468.1 1393,-478.1 1400,-478.1"/>
</g>
<!-- ast.Call object at 0x7aa892f7f750 -->
<g id="node31" class="node">
<title>ast.Call object at 0x7aa892f7f750</title>
<path fill="#66cdaa" stroke="black" d="M1623.5,-180C1623.5,-180 1593.5,-180 1593.5,-180 1587.5,-180 1581.5,-174 1581.5,-168 1581.5,-168 1581.5,-156 1581.5,-156 1581.5,-150 1587.5,-144 1593.5,-144 1593.5,-144 1623.5,-144 1623.5,-144 1629.5,-144 1635.5,-150 1635.5,-156 1635.5,-156 1635.5,-168 1635.5,-168 1635.5,-174 1629.5,-180 1623.5,-180"/>
<text text-anchor="middle" x="1608.5" y="-158.3" font-family="Times,serif" font-size="14.00">Call</text>
</g>
<!-- ast.For object at 0x7aa892f7d190&#45;&gt;ast.Call object at 0x7aa892f7f750 -->
<g id="edge38" class="edge">
<title>ast.For object at 0x7aa892f7d190&#45;&gt;ast.Call object at 0x7aa892f7f750</title>
<path fill="none" stroke="black" d="M1415.31,-503.8C1460.15,-462.84 1569.93,-362.69 1574.5,-360 1617.39,-334.79 1651.52,-364.44 1680.5,-324 1711.87,-280.22 1666.14,-220.59 1634.45,-187.56"/>
<polygon fill="black" stroke="black" points="1636.66,-184.82 1627.15,-180.16 1631.67,-189.73 1636.66,-184.82"/>
</g>
<!-- ast.Assign object at 0x7aa892e75190 -->
<g id="node34" class="node">
<title>ast.Assign object at 0x7aa892e75190</title>
<path fill="#66cdaa" stroke="black" d="M1339.5,-468C1339.5,-468 1309.5,-468 1309.5,-468 1303.5,-468 1297.5,-462 1297.5,-456 1297.5,-456 1297.5,-444 1297.5,-444 1297.5,-438 1303.5,-432 1309.5,-432 1309.5,-432 1339.5,-432 1339.5,-432 1345.5,-432 1351.5,-438 1351.5,-444 1351.5,-444 1351.5,-456 1351.5,-456 1351.5,-462 1345.5,-468 1339.5,-468"/>
<text text-anchor="middle" x="1324.5" y="-446.3" font-family="Times,serif" font-size="14.00">Assign</text>
</g>
<!-- ast.For object at 0x7aa892f7d190&#45;&gt;ast.Assign object at 0x7aa892e75190 -->
<g id="edge43" class="edge">
<title>ast.For object at 0x7aa892f7d190&#45;&gt;ast.Assign object at 0x7aa892e75190</title>
<path fill="none" stroke="black" d="M1378.7,-503.7C1369.9,-495.14 1359.12,-484.66 1349.5,-475.3"/>
<polygon fill="black" stroke="black" points="1351.7,-472.57 1342.09,-468.1 1346.82,-477.58 1351.7,-472.57"/>
</g>
<!-- ast.Assign object at 0x7aa892e773d0 -->
<g id="node37" class="node">
<title>ast.Assign object at 0x7aa892e773d0</title>
<path fill="#66cdaa" stroke="black" d="M1477.5,-396C1477.5,-396 1447.5,-396 1447.5,-396 1441.5,-396 1435.5,-390 1435.5,-384 1435.5,-384 1435.5,-372 1435.5,-372 1435.5,-366 1441.5,-360 1447.5,-360 1447.5,-360 1477.5,-360 1477.5,-360 1483.5,-360 1489.5,-366 1489.5,-372 1489.5,-372 1489.5,-384 1489.5,-384 1489.5,-390 1483.5,-396 1477.5,-396"/>
<text text-anchor="middle" x="1462.5" y="-374.3" font-family="Times,serif" font-size="14.00">Assign</text>
</g>
<!-- ast.For object at 0x7aa892f7d190&#45;&gt;ast.Assign object at 0x7aa892e773d0 -->
<g id="edge47" class="edge">
<title>ast.For object at 0x7aa892f7d190&#45;&gt;ast.Assign object at 0x7aa892e773d0</title>
<path fill="none" stroke="black" d="M1410.1,-503.59C1417.45,-493.59 1426.27,-480.55 1432.5,-468 1442.38,-448.1 1450.24,-424.17 1455.44,-406.14"/>
<polygon fill="black" stroke="black" points="1458.87,-406.85 1458.18,-396.28 1452.13,-404.97 1458.87,-406.85"/>
</g>
<!-- ast.For object at 0x7aa892e77b50 -->
<g id="node40" class="node">
<title>ast.For object at 0x7aa892e77b50</title>
<path fill="#66cdaa" stroke="black" d="M1089.5,-468C1089.5,-468 1059.5,-468 1059.5,-468 1053.5,-468 1047.5,-462 1047.5,-456 1047.5,-456 1047.5,-444 1047.5,-444 1047.5,-438 1053.5,-432 1059.5,-432 1059.5,-432 1089.5,-432 1089.5,-432 1095.5,-432 1101.5,-438 1101.5,-444 1101.5,-444 1101.5,-456 1101.5,-456 1101.5,-462 1095.5,-468 1089.5,-468"/>
<text text-anchor="middle" x="1074.5" y="-446.3" font-family="Times,serif" font-size="14.00">For</text>
</g>
<!-- ast.For object at 0x7aa892f7d190&#45;&gt;ast.For object at 0x7aa892e77b50 -->
<g id="edge52" class="edge">
<title>ast.For object at 0x7aa892f7d190&#45;&gt;ast.For object at 0x7aa892e77b50</title>
<path fill="none" stroke="black" d="M1369.39,-516.58C1320.91,-508.46 1216.32,-489.97 1129.5,-468 1123.67,-466.52 1117.53,-464.8 1111.56,-463.03"/>
<polygon fill="black" stroke="black" points="1112.34,-459.61 1101.76,-460.04 1110.3,-466.3 1112.34,-459.61"/>
</g>
<!-- ast.If object at 0x7aa892e64d50 -->
<g id="node66" class="node">
<title>ast.If object at 0x7aa892e64d50</title>
<path fill="#66cdaa" stroke="black" d="M1005.5,-396C1005.5,-396 975.5,-396 975.5,-396 969.5,-396 963.5,-390 963.5,-384 963.5,-384 963.5,-372 963.5,-372 963.5,-366 969.5,-360 975.5,-360 975.5,-360 1005.5,-360 1005.5,-360 1011.5,-360 1017.5,-366 1017.5,-372 1017.5,-372 1017.5,-384 1017.5,-384 1017.5,-390 1011.5,-396 1005.5,-396"/>
<text text-anchor="middle" x="990.5" y="-374.3" font-family="Times,serif" font-size="14.00">If</text>
</g>
<!-- ast.For object at 0x7aa892f7d190&#45;&gt;ast.If object at 0x7aa892e64d50 -->
<g id="edge96" class="edge">
<title>ast.For object at 0x7aa892f7d190&#45;&gt;ast.If object at 0x7aa892e64d50</title>
<path fill="none" stroke="black" d="M1369.44,-517.53C1326,-511.33 1238.6,-496.29 1169.5,-468 1141.07,-456.36 1137.8,-446.09 1110.5,-432 1076.94,-414.68 1065.19,-412.86 1026.77,-396.01"/>
<polygon fill="black" stroke="black" points="1028.14,-392.79 1017.58,-391.92 1025.29,-399.18 1028.14,-392.79"/>
</g>
<!-- ast.Name object at 0x7aa892f7d9d0&#45;&gt;ast.Store object at 0x7aa8921cccd0 -->
<g id="edge37" class="edge">
<title>ast.Name object at 0x7aa892f7d9d0&#45;&gt;ast.Store object at 0x7aa8921cccd0</title>
<path fill="none" stroke="black" d="M1395.28,-431.91C1393.92,-413.96 1391.51,-384.95 1388.5,-360 1384.42,-326.25 1378.32,-287.59 1374.14,-262.31"/>
<polygon fill="black" stroke="black" points="1377.58,-261.63 1372.48,-252.34 1370.67,-262.78 1377.58,-261.63"/>
</g>
<!-- ast.Name object at 0x7aa892f7f190 -->
<g id="node32" class="node">
<title>ast.Name object at 0x7aa892f7f190</title>
<path fill="#66cdaa" stroke="black" d="M1551.5,-108C1551.5,-108 1521.5,-108 1521.5,-108 1515.5,-108 1509.5,-102 1509.5,-96 1509.5,-96 1509.5,-84 1509.5,-84 1509.5,-78 1515.5,-72 1521.5,-72 1521.5,-72 1551.5,-72 1551.5,-72 1557.5,-72 1563.5,-78 1563.5,-84 1563.5,-84 1563.5,-96 1563.5,-96 1563.5,-102 1557.5,-108 1551.5,-108"/>
<text text-anchor="middle" x="1536.5" y="-86.3" font-family="Times,serif" font-size="14.00">Name</text>
</g>
<!-- ast.Call object at 0x7aa892f7f750&#45;&gt;ast.Name object at 0x7aa892f7f190 -->
<g id="edge39" class="edge">
<title>ast.Call object at 0x7aa892f7f750&#45;&gt;ast.Name object at 0x7aa892f7f190</title>
<path fill="none" stroke="black" d="M1590.7,-143.7C1581.9,-135.14 1571.12,-124.66 1561.5,-115.3"/>
<polygon fill="black" stroke="black" points="1563.7,-112.57 1554.09,-108.1 1558.82,-117.58 1563.7,-112.57"/>
</g>
<!-- ast.Name object at 0x7aa892f7c6d0 -->
<g id="node33" class="node">
<title>ast.Name object at 0x7aa892f7c6d0</title>
<path fill="#66cdaa" stroke="black" d="M1623.5,-108C1623.5,-108 1593.5,-108 1593.5,-108 1587.5,-108 1581.5,-102 1581.5,-96 1581.5,-96 1581.5,-84 1581.5,-84 1581.5,-78 1587.5,-72 1593.5,-72 1593.5,-72 1623.5,-72 1623.5,-72 1629.5,-72 1635.5,-78 1635.5,-84 1635.5,-84 1635.5,-96 1635.5,-96 1635.5,-102 1629.5,-108 1623.5,-108"/>
<text text-anchor="middle" x="1608.5" y="-86.3" font-family="Times,serif" font-size="14.00">Name</text>
</g>
<!-- ast.Call object at 0x7aa892f7f750&#45;&gt;ast.Name object at 0x7aa892f7c6d0 -->
<g id="edge41" class="edge">
<title>ast.Call object at 0x7aa892f7f750&#45;&gt;ast.Name object at 0x7aa892f7c6d0</title>
<path fill="none" stroke="black" d="M1608.5,-143.7C1608.5,-135.98 1608.5,-126.71 1608.5,-118.11"/>
<polygon fill="black" stroke="black" points="1612,-118.1 1608.5,-108.1 1605,-118.1 1612,-118.1"/>
</g>
<!-- ast.Name object at 0x7aa892f7f190&#45;&gt;ast.Load object at 0x7aa8921ccc50 -->
<g id="edge40" class="edge">
<title>ast.Name object at 0x7aa892f7f190&#45;&gt;ast.Load object at 0x7aa8921ccc50</title>
<path fill="none" stroke="black" d="M1509.08,-76.36C1504.62,-74.67 1499.98,-73.13 1495.5,-72 1320.13,-27.65 1102.28,-20.27 1016.58,-19.14"/>
<polygon fill="black" stroke="black" points="1016.6,-15.64 1006.56,-19.03 1016.52,-22.64 1016.6,-15.64"/>
</g>
<!-- ast.Name object at 0x7aa892f7c6d0&#45;&gt;ast.Load object at 0x7aa8921ccc50 -->
<g id="edge42" class="edge">
<title>ast.Name object at 0x7aa892f7c6d0&#45;&gt;ast.Load object at 0x7aa8921ccc50</title>
<path fill="none" stroke="black" d="M1581.36,-74.97C1578.42,-73.82 1575.43,-72.8 1572.5,-72 1466.81,-43.3 1129.75,-25.8 1016.8,-20.62"/>
<polygon fill="black" stroke="black" points="1016.73,-17.11 1006.58,-20.16 1016.41,-24.11 1016.73,-17.11"/>
</g>
<!-- ast.Name object at 0x7aa892e765d0 -->
<g id="node35" class="node">
<title>ast.Name object at 0x7aa892e765d0</title>
<path fill="#66cdaa" stroke="black" d="M1367.5,-396C1367.5,-396 1337.5,-396 1337.5,-396 1331.5,-396 1325.5,-390 1325.5,-384 1325.5,-384 1325.5,-372 1325.5,-372 1325.5,-366 1331.5,-360 1337.5,-360 1337.5,-360 1367.5,-360 1367.5,-360 1373.5,-360 1379.5,-366 1379.5,-372 1379.5,-372 1379.5,-384 1379.5,-384 1379.5,-390 1373.5,-396 1367.5,-396"/>
<text text-anchor="middle" x="1352.5" y="-374.3" font-family="Times,serif" font-size="14.00">Name</text>
</g>
<!-- ast.Assign object at 0x7aa892e75190&#45;&gt;ast.Name object at 0x7aa892e765d0 -->
<g id="edge44" class="edge">
<title>ast.Assign object at 0x7aa892e75190&#45;&gt;ast.Name object at 0x7aa892e765d0</title>
<path fill="none" stroke="black" d="M1331.42,-431.7C1334.57,-423.81 1338.38,-414.3 1341.88,-405.55"/>
<polygon fill="black" stroke="black" points="1345.19,-406.69 1345.66,-396.1 1338.69,-404.09 1345.19,-406.69"/>
</g>
<!-- ast.Constant object at 0x7aa892e75610 -->
<g id="node36" class="node">
<title>ast.Constant object at 0x7aa892e75610</title>
<path fill="#66cdaa" stroke="black" d="M1295,-396C1295,-396 1254,-396 1254,-396 1248,-396 1242,-390 1242,-384 1242,-384 1242,-372 1242,-372 1242,-366 1248,-360 1254,-360 1254,-360 1295,-360 1295,-360 1301,-360 1307,-366 1307,-372 1307,-372 1307,-384 1307,-384 1307,-390 1301,-396 1295,-396"/>
<text text-anchor="middle" x="1274.5" y="-374.3" font-family="Times,serif" font-size="14.00">Constant</text>
</g>
<!-- ast.Assign object at 0x7aa892e75190&#45;&gt;ast.Constant object at 0x7aa892e75610 -->
<g id="edge46" class="edge">
<title>ast.Assign object at 0x7aa892e75190&#45;&gt;ast.Constant object at 0x7aa892e75610</title>
<path fill="none" stroke="black" d="M1312.14,-431.7C1306.27,-423.47 1299.13,-413.48 1292.66,-404.42"/>
<polygon fill="black" stroke="black" points="1295.38,-402.21 1286.72,-396.1 1289.68,-406.28 1295.38,-402.21"/>
</g>
<!-- ast.Name object at 0x7aa892e765d0&#45;&gt;ast.Store object at 0x7aa8921cccd0 -->
<g id="edge45" class="edge">
<title>ast.Name object at 0x7aa892e765d0&#45;&gt;ast.Store object at 0x7aa8921cccd0</title>
<path fill="none" stroke="black" d="M1351.94,-359.84C1351.62,-341.84 1351.86,-312.78 1355.5,-288 1356.75,-279.53 1358.85,-270.46 1361.05,-262.26"/>
<polygon fill="black" stroke="black" points="1364.47,-263.04 1363.83,-252.46 1357.73,-261.12 1364.47,-263.04"/>
</g>
<!-- ast.Name object at 0x7aa892e75750 -->
<g id="node38" class="node">
<title>ast.Name object at 0x7aa892e75750</title>
<path fill="#66cdaa" stroke="black" d="M1439.5,-324C1439.5,-324 1409.5,-324 1409.5,-324 1403.5,-324 1397.5,-318 1397.5,-312 1397.5,-312 1397.5,-300 1397.5,-300 1397.5,-294 1403.5,-288 1409.5,-288 1409.5,-288 1439.5,-288 1439.5,-288 1445.5,-288 1451.5,-294 1451.5,-300 1451.5,-300 1451.5,-312 1451.5,-312 1451.5,-318 1445.5,-324 1439.5,-324"/>
<text text-anchor="middle" x="1424.5" y="-302.3" font-family="Times,serif" font-size="14.00">Name</text>
</g>
<!-- ast.Assign object at 0x7aa892e773d0&#45;&gt;ast.Name object at 0x7aa892e75750 -->
<g id="edge48" class="edge">
<title>ast.Assign object at 0x7aa892e773d0&#45;&gt;ast.Name object at 0x7aa892e75750</title>
<path fill="none" stroke="black" d="M1453.11,-359.7C1448.74,-351.64 1443.44,-341.89 1438.6,-332.98"/>
<polygon fill="black" stroke="black" points="1441.63,-331.22 1433.79,-324.1 1435.48,-334.56 1441.63,-331.22"/>
</g>
<!-- ast.List object at 0x7aa892e77ad0 -->
<g id="node39" class="node">
<title>ast.List object at 0x7aa892e77ad0</title>
<path fill="#66cdaa" stroke="black" d="M1495.5,-252C1495.5,-252 1465.5,-252 1465.5,-252 1459.5,-252 1453.5,-246 1453.5,-240 1453.5,-240 1453.5,-228 1453.5,-228 1453.5,-222 1459.5,-216 1465.5,-216 1465.5,-216 1495.5,-216 1495.5,-216 1501.5,-216 1507.5,-222 1507.5,-228 1507.5,-228 1507.5,-240 1507.5,-240 1507.5,-246 1501.5,-252 1495.5,-252"/>
<text text-anchor="middle" x="1480.5" y="-230.3" font-family="Times,serif" font-size="14.00">List</text>
</g>
<!-- ast.Assign object at 0x7aa892e773d0&#45;&gt;ast.List object at 0x7aa892e77ad0 -->
<g id="edge50" class="edge">
<title>ast.Assign object at 0x7aa892e773d0&#45;&gt;ast.List object at 0x7aa892e77ad0</title>
<path fill="none" stroke="black" d="M1464.67,-359.87C1467.74,-335.67 1473.37,-291.21 1477.03,-262.39"/>
<polygon fill="black" stroke="black" points="1480.54,-262.55 1478.32,-252.19 1473.59,-261.67 1480.54,-262.55"/>
</g>
<!-- ast.Name object at 0x7aa892e75750&#45;&gt;ast.Store object at 0x7aa8921cccd0 -->
<g id="edge49" class="edge">
<title>ast.Name object at 0x7aa892e75750&#45;&gt;ast.Store object at 0x7aa8921cccd0</title>
<path fill="none" stroke="black" d="M1410.9,-287.7C1404.38,-279.39 1396.43,-269.28 1389.25,-260.14"/>
<polygon fill="black" stroke="black" points="1391.87,-257.81 1382.94,-252.1 1386.37,-262.13 1391.87,-257.81"/>
</g>
<!-- ast.List object at 0x7aa892e77ad0&#45;&gt;ast.Load object at 0x7aa8921ccc50 -->
<g id="edge51" class="edge">
<title>ast.List object at 0x7aa892e77ad0&#45;&gt;ast.Load object at 0x7aa8921ccc50</title>
<path fill="none" stroke="black" d="M1484.69,-215.77C1491.59,-182.75 1501.02,-110.44 1462.5,-72 1431.08,-40.64 1124.79,-25.02 1016.89,-20.46"/>
<polygon fill="black" stroke="black" points="1016.92,-16.95 1006.78,-20.04 1016.63,-23.95 1016.92,-16.95"/>
</g>
<!-- ast.Name object at 0x7aa892e76850 -->
<g id="node41" class="node">
<title>ast.Name object at 0x7aa892e76850</title>
<path fill="#66cdaa" stroke="black" d="M1173.5,-396C1173.5,-396 1143.5,-396 1143.5,-396 1137.5,-396 1131.5,-390 1131.5,-384 1131.5,-384 1131.5,-372 1131.5,-372 1131.5,-366 1137.5,-360 1143.5,-360 1143.5,-360 1173.5,-360 1173.5,-360 1179.5,-360 1185.5,-366 1185.5,-372 1185.5,-372 1185.5,-384 1185.5,-384 1185.5,-390 1179.5,-396 1173.5,-396"/>
<text text-anchor="middle" x="1158.5" y="-374.3" font-family="Times,serif" font-size="14.00">Name</text>
</g>
<!-- ast.For object at 0x7aa892e77b50&#45;&gt;ast.Name object at 0x7aa892e76850 -->
<g id="edge53" class="edge">
<title>ast.For object at 0x7aa892e77b50&#45;&gt;ast.Name object at 0x7aa892e76850</title>
<path fill="none" stroke="black" d="M1095.26,-431.7C1105.74,-422.97 1118.61,-412.24 1130,-402.75"/>
<polygon fill="black" stroke="black" points="1132.53,-405.19 1137.97,-396.1 1128.05,-399.82 1132.53,-405.19"/>
</g>
<!-- ast.Call object at 0x7aa892e76c50 -->
<g id="node42" class="node">
<title>ast.Call object at 0x7aa892e76c50</title>
<path fill="#66cdaa" stroke="black" d="M434.5,-252C434.5,-252 404.5,-252 404.5,-252 398.5,-252 392.5,-246 392.5,-240 392.5,-240 392.5,-228 392.5,-228 392.5,-222 398.5,-216 404.5,-216 404.5,-216 434.5,-216 434.5,-216 440.5,-216 446.5,-222 446.5,-228 446.5,-228 446.5,-240 446.5,-240 446.5,-246 440.5,-252 434.5,-252"/>
<text text-anchor="middle" x="419.5" y="-230.3" font-family="Times,serif" font-size="14.00">Call</text>
</g>
<!-- ast.For object at 0x7aa892e77b50&#45;&gt;ast.Call object at 0x7aa892e76c50 -->
<g id="edge55" class="edge">
<title>ast.For object at 0x7aa892e77b50&#45;&gt;ast.Call object at 0x7aa892e76c50</title>
<path fill="none" stroke="black" d="M1047.38,-447.03C1007.96,-443.02 933.93,-431.06 882.5,-396 832.92,-362.2 853.19,-318.47 801.5,-288 772.09,-270.67 547.14,-247.32 456.84,-238.54"/>
<polygon fill="black" stroke="black" points="457.06,-235.04 446.77,-237.56 456.38,-242.01 457.06,-235.04"/>
</g>
<!-- ast.Expr object at 0x7aa892e77f10 -->
<g id="node48" class="node">
<title>ast.Expr object at 0x7aa892e77f10</title>
<path fill="#66cdaa" stroke="black" d="M933.5,-396C933.5,-396 903.5,-396 903.5,-396 897.5,-396 891.5,-390 891.5,-384 891.5,-384 891.5,-372 891.5,-372 891.5,-366 897.5,-360 903.5,-360 903.5,-360 933.5,-360 933.5,-360 939.5,-360 945.5,-366 945.5,-372 945.5,-372 945.5,-384 945.5,-384 945.5,-390 939.5,-396 933.5,-396"/>
<text text-anchor="middle" x="918.5" y="-374.3" font-family="Times,serif" font-size="14.00">Expr</text>
</g>
<!-- ast.For object at 0x7aa892e77b50&#45;&gt;ast.Expr object at 0x7aa892e77f10 -->
<g id="edge66" class="edge">
<title>ast.For object at 0x7aa892e77b50&#45;&gt;ast.Expr object at 0x7aa892e77f10</title>
<path fill="none" stroke="black" d="M1047.25,-437.2C1024.77,-427.41 991.85,-412.96 955.03,-396.19"/>
<polygon fill="black" stroke="black" points="956.14,-392.85 945.59,-391.88 953.23,-399.22 956.14,-392.85"/>
</g>
<!-- ast.AugAssign object at 0x7aa892e76490 -->
<g id="node58" class="node">
<title>ast.AugAssign object at 0x7aa892e76490</title>
<path fill="#66cdaa" stroke="black" d="M1101,-396C1101,-396 1048,-396 1048,-396 1042,-396 1036,-390 1036,-384 1036,-384 1036,-372 1036,-372 1036,-366 1042,-360 1048,-360 1048,-360 1101,-360 1101,-360 1107,-360 1113,-366 1113,-372 1113,-372 1113,-384 1113,-384 1113,-390 1107,-396 1101,-396"/>
<text text-anchor="middle" x="1074.5" y="-374.3" font-family="Times,serif" font-size="14.00">AugAssign</text>
</g>
<!-- ast.For object at 0x7aa892e77b50&#45;&gt;ast.AugAssign object at 0x7aa892e76490 -->
<g id="edge82" class="edge">
<title>ast.For object at 0x7aa892e77b50&#45;&gt;ast.AugAssign object at 0x7aa892e76490</title>
<path fill="none" stroke="black" d="M1074.5,-431.7C1074.5,-423.98 1074.5,-414.71 1074.5,-406.11"/>
<polygon fill="black" stroke="black" points="1078,-406.1 1074.5,-396.1 1071,-406.1 1078,-406.1"/>
</g>
<!-- ast.Name object at 0x7aa892e76850&#45;&gt;ast.Store object at 0x7aa8921cccd0 -->
<g id="edge54" class="edge">
<title>ast.Name object at 0x7aa892e76850&#45;&gt;ast.Store object at 0x7aa8921cccd0</title>
<path fill="none" stroke="black" d="M1174.92,-359.96C1196.92,-337.37 1235.1,-299.05 1251.5,-288 1276.87,-270.91 1308.66,-257 1332.84,-247.72"/>
<polygon fill="black" stroke="black" points="1334.23,-250.94 1342.37,-244.16 1331.78,-244.39 1334.23,-250.94"/>
</g>
<!-- ast.Name object at 0x7aa892e77050 -->
<g id="node43" class="node">
<title>ast.Name object at 0x7aa892e77050</title>
<path fill="#66cdaa" stroke="black" d="M470.5,-180C470.5,-180 440.5,-180 440.5,-180 434.5,-180 428.5,-174 428.5,-168 428.5,-168 428.5,-156 428.5,-156 428.5,-150 434.5,-144 440.5,-144 440.5,-144 470.5,-144 470.5,-144 476.5,-144 482.5,-150 482.5,-156 482.5,-156 482.5,-168 482.5,-168 482.5,-174 476.5,-180 470.5,-180"/>
<text text-anchor="middle" x="455.5" y="-158.3" font-family="Times,serif" font-size="14.00">Name</text>
</g>
<!-- ast.Call object at 0x7aa892e76c50&#45;&gt;ast.Name object at 0x7aa892e77050 -->
<g id="edge56" class="edge">
<title>ast.Call object at 0x7aa892e76c50&#45;&gt;ast.Name object at 0x7aa892e77050</title>
<path fill="none" stroke="black" d="M428.4,-215.7C432.5,-207.73 437.45,-198.1 441.99,-189.26"/>
<polygon fill="black" stroke="black" points="445.24,-190.6 446.7,-180.1 439.02,-187.4 445.24,-190.6"/>
</g>
<!-- ast.Name object at 0x7aa892e76d50 -->
<g id="node44" class="node">
<title>ast.Name object at 0x7aa892e76d50</title>
<path fill="#66cdaa" stroke="black" d="M325.5,-180C325.5,-180 295.5,-180 295.5,-180 289.5,-180 283.5,-174 283.5,-168 283.5,-168 283.5,-156 283.5,-156 283.5,-150 289.5,-144 295.5,-144 295.5,-144 325.5,-144 325.5,-144 331.5,-144 337.5,-150 337.5,-156 337.5,-156 337.5,-168 337.5,-168 337.5,-174 331.5,-180 325.5,-180"/>
<text text-anchor="middle" x="310.5" y="-158.3" font-family="Times,serif" font-size="14.00">Name</text>
</g>
<!-- ast.Call object at 0x7aa892e76c50&#45;&gt;ast.Name object at 0x7aa892e76d50 -->
<g id="edge58" class="edge">
<title>ast.Call object at 0x7aa892e76c50&#45;&gt;ast.Name object at 0x7aa892e76d50</title>
<path fill="none" stroke="black" d="M392.84,-215.88C378.72,-206.81 361.19,-195.55 345.94,-185.76"/>
<polygon fill="black" stroke="black" points="347.57,-182.65 337.27,-180.19 343.79,-188.54 347.57,-182.65"/>
</g>
<!-- ast.BinOp object at 0x7aa892e77650 -->
<g id="node45" class="node">
<title>ast.BinOp object at 0x7aa892e77650</title>
<path fill="#66cdaa" stroke="black" d="M398.5,-180C398.5,-180 368.5,-180 368.5,-180 362.5,-180 356.5,-174 356.5,-168 356.5,-168 356.5,-156 356.5,-156 356.5,-150 362.5,-144 368.5,-144 368.5,-144 398.5,-144 398.5,-144 404.5,-144 410.5,-150 410.5,-156 410.5,-156 410.5,-168 410.5,-168 410.5,-174 404.5,-180 398.5,-180"/>
<text text-anchor="middle" x="383.5" y="-158.3" font-family="Times,serif" font-size="14.00">BinOp</text>
</g>
<!-- ast.Call object at 0x7aa892e76c50&#45;&gt;ast.BinOp object at 0x7aa892e77650 -->
<g id="edge60" class="edge">
<title>ast.Call object at 0x7aa892e76c50&#45;&gt;ast.BinOp object at 0x7aa892e77650</title>
<path fill="none" stroke="black" d="M410.6,-215.7C406.5,-207.73 401.55,-198.1 397.01,-189.26"/>
<polygon fill="black" stroke="black" points="399.98,-187.4 392.3,-180.1 393.76,-190.6 399.98,-187.4"/>
</g>
<!-- ast.Name object at 0x7aa892e77050&#45;&gt;ast.Load object at 0x7aa8921ccc50 -->
<g id="edge57" class="edge">
<title>ast.Name object at 0x7aa892e77050&#45;&gt;ast.Load object at 0x7aa8921ccc50</title>
<path fill="none" stroke="black" d="M459.53,-144C465.41,-123.26 478.47,-88.89 503.5,-72 574.99,-23.76 843.17,-18.9 942.34,-18.79"/>
<polygon fill="black" stroke="black" points="942.48,-22.29 952.48,-18.8 942.49,-15.29 942.48,-22.29"/>
</g>
<!-- ast.Name object at 0x7aa892e76d50&#45;&gt;ast.Load object at 0x7aa8921ccc50 -->
<g id="edge59" class="edge">
<title>ast.Name object at 0x7aa892e76d50&#45;&gt;ast.Load object at 0x7aa8921ccc50</title>
<path fill="none" stroke="black" d="M299.97,-143.9C289.22,-124.02 276.48,-91.47 294.5,-72 338.68,-24.27 804.74,-19.4 941.8,-19"/>
<polygon fill="black" stroke="black" points="942.2,-22.5 952.19,-18.98 942.19,-15.5 942.2,-22.5"/>
</g>
<!-- ast.BinOp object at 0x7aa892e77650&#45;&gt;ast.Add object at 0x7aa8921cd150 -->
<g id="edge63" class="edge">
<title>ast.BinOp object at 0x7aa892e77650&#45;&gt;ast.Add object at 0x7aa8921cd150</title>
<path fill="none" stroke="black" d="M356.18,-148.01C352.94,-146.6 349.66,-145.23 346.5,-144 303.55,-127.26 252.9,-111.47 219.37,-101.56"/>
<polygon fill="black" stroke="black" points="220.12,-98.13 209.54,-98.67 218.15,-104.85 220.12,-98.13"/>
</g>
<!-- ast.Name object at 0x7aa892e76010 -->
<g id="node46" class="node">
<title>ast.Name object at 0x7aa892e76010</title>
<path fill="#66cdaa" stroke="black" d="M345.5,-108C345.5,-108 315.5,-108 315.5,-108 309.5,-108 303.5,-102 303.5,-96 303.5,-96 303.5,-84 303.5,-84 303.5,-78 309.5,-72 315.5,-72 315.5,-72 345.5,-72 345.5,-72 351.5,-72 357.5,-78 357.5,-84 357.5,-84 357.5,-96 357.5,-96 357.5,-102 351.5,-108 345.5,-108"/>
<text text-anchor="middle" x="330.5" y="-86.3" font-family="Times,serif" font-size="14.00">Name</text>
</g>
<!-- ast.BinOp object at 0x7aa892e77650&#45;&gt;ast.Name object at 0x7aa892e76010 -->
<g id="edge61" class="edge">
<title>ast.BinOp object at 0x7aa892e77650&#45;&gt;ast.Name object at 0x7aa892e76010</title>
<path fill="none" stroke="black" d="M370.4,-143.7C364.11,-135.39 356.45,-125.28 349.54,-116.14"/>
<polygon fill="black" stroke="black" points="352.28,-113.96 343.45,-108.1 346.7,-118.19 352.28,-113.96"/>
</g>
<!-- ast.Name object at 0x7aa892e76390 -->
<g id="node47" class="node">
<title>ast.Name object at 0x7aa892e76390</title>
<path fill="#66cdaa" stroke="black" d="M417.5,-108C417.5,-108 387.5,-108 387.5,-108 381.5,-108 375.5,-102 375.5,-96 375.5,-96 375.5,-84 375.5,-84 375.5,-78 381.5,-72 387.5,-72 387.5,-72 417.5,-72 417.5,-72 423.5,-72 429.5,-78 429.5,-84 429.5,-84 429.5,-96 429.5,-96 429.5,-102 423.5,-108 417.5,-108"/>
<text text-anchor="middle" x="402.5" y="-86.3" font-family="Times,serif" font-size="14.00">Name</text>
</g>
<!-- ast.BinOp object at 0x7aa892e77650&#45;&gt;ast.Name object at 0x7aa892e76390 -->
<g id="edge64" class="edge">
<title>ast.BinOp object at 0x7aa892e77650&#45;&gt;ast.Name object at 0x7aa892e76390</title>
<path fill="none" stroke="black" d="M388.2,-143.7C390.31,-135.9 392.86,-126.51 395.22,-117.83"/>
<polygon fill="black" stroke="black" points="398.62,-118.67 397.86,-108.1 391.86,-116.84 398.62,-118.67"/>
</g>
<!-- ast.Name object at 0x7aa892e76010&#45;&gt;ast.Load object at 0x7aa8921ccc50 -->
<g id="edge62" class="edge">
<title>ast.Name object at 0x7aa892e76010&#45;&gt;ast.Load object at 0x7aa8921ccc50</title>
<path fill="none" stroke="black" d="M357.63,-74.96C360.57,-73.82 363.56,-72.79 366.5,-72 476.13,-42.4 826.48,-25.41 942.09,-20.5"/>
<polygon fill="black" stroke="black" points="942.37,-23.99 952.22,-20.08 942.08,-17 942.37,-23.99"/>
</g>
<!-- ast.Name object at 0x7aa892e76390&#45;&gt;ast.Load object at 0x7aa8921ccc50 -->
<g id="edge65" class="edge">
<title>ast.Name object at 0x7aa892e76390&#45;&gt;ast.Load object at 0x7aa8921ccc50</title>
<path fill="none" stroke="black" d="M429.91,-76.34C434.38,-74.66 439.02,-73.13 443.5,-72 626.53,-26.08 854.06,-19.62 942.2,-18.95"/>
<polygon fill="black" stroke="black" points="942.27,-22.45 952.25,-18.89 942.23,-15.45 942.27,-22.45"/>
</g>
<!-- ast.Call object at 0x7aa892e77450 -->
<g id="node49" class="node">
<title>ast.Call object at 0x7aa892e77450</title>
<path fill="#66cdaa" stroke="black" d="M933.5,-324C933.5,-324 903.5,-324 903.5,-324 897.5,-324 891.5,-318 891.5,-312 891.5,-312 891.5,-300 891.5,-300 891.5,-294 897.5,-288 903.5,-288 903.5,-288 933.5,-288 933.5,-288 939.5,-288 945.5,-294 945.5,-300 945.5,-300 945.5,-312 945.5,-312 945.5,-318 939.5,-324 933.5,-324"/>
<text text-anchor="middle" x="918.5" y="-302.3" font-family="Times,serif" font-size="14.00">Call</text>
</g>
<!-- ast.Expr object at 0x7aa892e77f10&#45;&gt;ast.Call object at 0x7aa892e77450 -->
<g id="edge67" class="edge">
<title>ast.Expr object at 0x7aa892e77f10&#45;&gt;ast.Call object at 0x7aa892e77450</title>
<path fill="none" stroke="black" d="M918.5,-359.7C918.5,-351.98 918.5,-342.71 918.5,-334.11"/>
<polygon fill="black" stroke="black" points="922,-334.1 918.5,-324.1 915,-334.1 922,-334.1"/>
</g>
<!-- ast.Attribute object at 0x7aa892e76650 -->
<g id="node50" class="node">
<title>ast.Attribute object at 0x7aa892e76650</title>
<path fill="#66cdaa" stroke="black" d="M1024,-180C1024,-180 983,-180 983,-180 977,-180 971,-174 971,-168 971,-168 971,-156 971,-156 971,-150 977,-144 983,-144 983,-144 1024,-144 1024,-144 1030,-144 1036,-150 1036,-156 1036,-156 1036,-168 1036,-168 1036,-174 1030,-180 1024,-180"/>
<text text-anchor="middle" x="1003.5" y="-158.3" font-family="Times,serif" font-size="14.00">Attribute</text>
</g>
<!-- ast.Call object at 0x7aa892e77450&#45;&gt;ast.Attribute object at 0x7aa892e76650 -->
<g id="edge68" class="edge">
<title>ast.Call object at 0x7aa892e77450&#45;&gt;ast.Attribute object at 0x7aa892e76650</title>
<path fill="none" stroke="black" d="M923.43,-287.72C929.2,-269.12 939.86,-239.08 954.5,-216 960.87,-205.95 969.26,-196.07 977.29,-187.61"/>
<polygon fill="black" stroke="black" points="979.98,-189.86 984.49,-180.28 974.99,-184.96 979.98,-189.86"/>
</g>
<!-- ast.Subscript object at 0x7aa892e77e10 -->
<g id="node52" class="node">
<title>ast.Subscript object at 0x7aa892e77e10</title>
<path fill="#66cdaa" stroke="black" d="M866.5,-252C866.5,-252 822.5,-252 822.5,-252 816.5,-252 810.5,-246 810.5,-240 810.5,-240 810.5,-228 810.5,-228 810.5,-222 816.5,-216 822.5,-216 822.5,-216 866.5,-216 866.5,-216 872.5,-216 878.5,-222 878.5,-228 878.5,-228 878.5,-240 878.5,-240 878.5,-246 872.5,-252 866.5,-252"/>
<text text-anchor="middle" x="844.5" y="-230.3" font-family="Times,serif" font-size="14.00">Subscript</text>
</g>
<!-- ast.Call object at 0x7aa892e77450&#45;&gt;ast.Subscript object at 0x7aa892e77e10 -->
<g id="edge72" class="edge">
<title>ast.Call object at 0x7aa892e77450&#45;&gt;ast.Subscript object at 0x7aa892e77e10</title>
<path fill="none" stroke="black" d="M900.21,-287.7C891.07,-279.05 879.86,-268.45 869.9,-259.03"/>
<polygon fill="black" stroke="black" points="872.25,-256.43 862.58,-252.1 867.44,-261.52 872.25,-256.43"/>
</g>
<!-- ast.Attribute object at 0x7aa892e76650&#45;&gt;ast.Load object at 0x7aa8921ccc50 -->
<g id="edge71" class="edge">
<title>ast.Attribute object at 0x7aa892e76650&#45;&gt;ast.Load object at 0x7aa8921ccc50</title>
<path fill="none" stroke="black" d="M1000.63,-143.94C997.62,-126.02 992.73,-97.03 988.5,-72 987.08,-63.59 985.52,-54.43 984.11,-46.12"/>
<polygon fill="black" stroke="black" points="987.55,-45.46 982.42,-36.18 980.65,-46.63 987.55,-45.46"/>
</g>
<!-- ast.Name object at 0x7aa892e75d90 -->
<g id="node51" class="node">
<title>ast.Name object at 0x7aa892e75d90</title>
<path fill="#66cdaa" stroke="black" d="M1077.5,-108C1077.5,-108 1047.5,-108 1047.5,-108 1041.5,-108 1035.5,-102 1035.5,-96 1035.5,-96 1035.5,-84 1035.5,-84 1035.5,-78 1041.5,-72 1047.5,-72 1047.5,-72 1077.5,-72 1077.5,-72 1083.5,-72 1089.5,-78 1089.5,-84 1089.5,-84 1089.5,-96 1089.5,-96 1089.5,-102 1083.5,-108 1077.5,-108"/>
<text text-anchor="middle" x="1062.5" y="-86.3" font-family="Times,serif" font-size="14.00">Name</text>
</g>
<!-- ast.Attribute object at 0x7aa892e76650&#45;&gt;ast.Name object at 0x7aa892e75d90 -->
<g id="edge69" class="edge">
<title>ast.Attribute object at 0x7aa892e76650&#45;&gt;ast.Name object at 0x7aa892e75d90</title>
<path fill="none" stroke="black" d="M1018.08,-143.7C1025.16,-135.3 1033.78,-125.07 1041.55,-115.86"/>
<polygon fill="black" stroke="black" points="1044.31,-118.01 1048.08,-108.1 1038.96,-113.49 1044.31,-118.01"/>
</g>
<!-- ast.Name object at 0x7aa892e75d90&#45;&gt;ast.Load object at 0x7aa8921ccc50 -->
<g id="edge70" class="edge">
<title>ast.Name object at 0x7aa892e75d90&#45;&gt;ast.Load object at 0x7aa8921ccc50</title>
<path fill="none" stroke="black" d="M1041.98,-71.7C1031.63,-62.97 1018.91,-52.24 1007.66,-42.75"/>
<polygon fill="black" stroke="black" points="1009.68,-39.88 999.78,-36.1 1005.17,-45.23 1009.68,-39.88"/>
</g>
<!-- ast.Subscript object at 0x7aa892e77e10&#45;&gt;ast.Load object at 0x7aa8921ccc50 -->
<g id="edge81" class="edge">
<title>ast.Subscript object at 0x7aa892e77e10&#45;&gt;ast.Load object at 0x7aa8921ccc50</title>
<path fill="none" stroke="black" d="M817.58,-215.92C773.43,-185.82 694.33,-121.8 734.5,-72 760.14,-40.22 879.82,-26.55 941.91,-21.52"/>
<polygon fill="black" stroke="black" points="942.38,-25 952.08,-20.73 941.84,-18.02 942.38,-25"/>
</g>
<!-- ast.Name object at 0x7aa892e76a90 -->
<g id="node53" class="node">
<title>ast.Name object at 0x7aa892e76a90</title>
<path fill="#66cdaa" stroke="black" d="M831.5,-180C831.5,-180 801.5,-180 801.5,-180 795.5,-180 789.5,-174 789.5,-168 789.5,-168 789.5,-156 789.5,-156 789.5,-150 795.5,-144 801.5,-144 801.5,-144 831.5,-144 831.5,-144 837.5,-144 843.5,-150 843.5,-156 843.5,-156 843.5,-168 843.5,-168 843.5,-174 837.5,-180 831.5,-180"/>
<text text-anchor="middle" x="816.5" y="-158.3" font-family="Times,serif" font-size="14.00">Name</text>
</g>
<!-- ast.Subscript object at 0x7aa892e77e10&#45;&gt;ast.Name object at 0x7aa892e76a90 -->
<g id="edge73" class="edge">
<title>ast.Subscript object at 0x7aa892e77e10&#45;&gt;ast.Name object at 0x7aa892e76a90</title>
<path fill="none" stroke="black" d="M837.58,-215.7C834.43,-207.81 830.62,-198.3 827.12,-189.55"/>
<polygon fill="black" stroke="black" points="830.31,-188.09 823.34,-180.1 823.81,-190.69 830.31,-188.09"/>
</g>
<!-- ast.BinOp object at 0x7aa892e77c50 -->
<g id="node54" class="node">
<title>ast.BinOp object at 0x7aa892e77c50</title>
<path fill="#66cdaa" stroke="black" d="M903.5,-180C903.5,-180 873.5,-180 873.5,-180 867.5,-180 861.5,-174 861.5,-168 861.5,-168 861.5,-156 861.5,-156 861.5,-150 867.5,-144 873.5,-144 873.5,-144 903.5,-144 903.5,-144 909.5,-144 915.5,-150 915.5,-156 915.5,-156 915.5,-168 915.5,-168 915.5,-174 909.5,-180 903.5,-180"/>
<text text-anchor="middle" x="888.5" y="-158.3" font-family="Times,serif" font-size="14.00">BinOp</text>
</g>
<!-- ast.Subscript object at 0x7aa892e77e10&#45;&gt;ast.BinOp object at 0x7aa892e77c50 -->
<g id="edge75" class="edge">
<title>ast.Subscript object at 0x7aa892e77e10&#45;&gt;ast.BinOp object at 0x7aa892e77c50</title>
<path fill="none" stroke="black" d="M855.38,-215.7C860.49,-207.56 866.7,-197.69 872.34,-188.7"/>
<polygon fill="black" stroke="black" points="875.39,-190.43 877.75,-180.1 869.46,-186.71 875.39,-190.43"/>
</g>
<!-- ast.Name object at 0x7aa892e76a90&#45;&gt;ast.Load object at 0x7aa8921ccc50 -->
<g id="edge74" class="edge">
<title>ast.Name object at 0x7aa892e76a90&#45;&gt;ast.Load object at 0x7aa8921ccc50</title>
<path fill="none" stroke="black" d="M817.57,-143.73C819.68,-124.01 825.94,-91.9 844.5,-72 870.16,-44.5 911.84,-31.04 942.11,-24.61"/>
<polygon fill="black" stroke="black" points="943.16,-27.97 952.3,-22.62 941.81,-21.1 943.16,-27.97"/>
</g>
<!-- ast.Name object at 0x7aa892e75050 -->
<g id="node55" class="node">
<title>ast.Name object at 0x7aa892e75050</title>
<path fill="#66cdaa" stroke="black" d="M967.5,-108C967.5,-108 937.5,-108 937.5,-108 931.5,-108 925.5,-102 925.5,-96 925.5,-96 925.5,-84 925.5,-84 925.5,-78 931.5,-72 937.5,-72 937.5,-72 967.5,-72 967.5,-72 973.5,-72 979.5,-78 979.5,-84 979.5,-84 979.5,-96 979.5,-96 979.5,-102 973.5,-108 967.5,-108"/>
<text text-anchor="middle" x="952.5" y="-86.3" font-family="Times,serif" font-size="14.00">Name</text>
</g>
<!-- ast.BinOp object at 0x7aa892e77c50&#45;&gt;ast.Name object at 0x7aa892e75050 -->
<g id="edge76" class="edge">
<title>ast.BinOp object at 0x7aa892e77c50&#45;&gt;ast.Name object at 0x7aa892e75050</title>
<path fill="none" stroke="black" d="M904.32,-143.7C912.07,-135.22 921.54,-124.86 930.02,-115.58"/>
<polygon fill="black" stroke="black" points="932.7,-117.85 936.86,-108.1 927.53,-113.12 932.7,-117.85"/>
</g>
<!-- ast.Mod object at 0x7aa8921cd3d0 -->
<g id="node56" class="node">
<title>ast.Mod object at 0x7aa8921cd3d0</title>
<path fill="#66cdaa" stroke="black" d="M785.5,-108C785.5,-108 755.5,-108 755.5,-108 749.5,-108 743.5,-102 743.5,-96 743.5,-96 743.5,-84 743.5,-84 743.5,-78 749.5,-72 755.5,-72 755.5,-72 785.5,-72 785.5,-72 791.5,-72 797.5,-78 797.5,-84 797.5,-84 797.5,-96 797.5,-96 797.5,-102 791.5,-108 785.5,-108"/>
<text text-anchor="middle" x="770.5" y="-86.3" font-family="Times,serif" font-size="14.00">Mod</text>
</g>
<!-- ast.BinOp object at 0x7aa892e77c50&#45;&gt;ast.Mod object at 0x7aa8921cd3d0 -->
<g id="edge78" class="edge">
<title>ast.BinOp object at 0x7aa892e77c50&#45;&gt;ast.Mod object at 0x7aa8921cd3d0</title>
<path fill="none" stroke="black" d="M861.43,-144.94C845.2,-135.32 824.37,-122.96 806.74,-112.5"/>
<polygon fill="black" stroke="black" points="808.24,-109.32 797.85,-107.23 804.67,-115.34 808.24,-109.32"/>
</g>
<!-- ast.Name object at 0x7aa892e76a10 -->
<g id="node57" class="node">
<title>ast.Name object at 0x7aa892e76a10</title>
<path fill="#66cdaa" stroke="black" d="M895.5,-108C895.5,-108 865.5,-108 865.5,-108 859.5,-108 853.5,-102 853.5,-96 853.5,-96 853.5,-84 853.5,-84 853.5,-78 859.5,-72 865.5,-72 865.5,-72 895.5,-72 895.5,-72 901.5,-72 907.5,-78 907.5,-84 907.5,-84 907.5,-96 907.5,-96 907.5,-102 901.5,-108 895.5,-108"/>
<text text-anchor="middle" x="880.5" y="-86.3" font-family="Times,serif" font-size="14.00">Name</text>
</g>
<!-- ast.BinOp object at 0x7aa892e77c50&#45;&gt;ast.Name object at 0x7aa892e76a10 -->
<g id="edge79" class="edge">
<title>ast.BinOp object at 0x7aa892e77c50&#45;&gt;ast.Name object at 0x7aa892e76a10</title>
<path fill="none" stroke="black" d="M886.52,-143.7C885.64,-135.98 884.58,-126.71 883.6,-118.11"/>
<polygon fill="black" stroke="black" points="887.07,-117.64 882.45,-108.1 880.11,-118.44 887.07,-117.64"/>
</g>
<!-- ast.Name object at 0x7aa892e75050&#45;&gt;ast.Load object at 0x7aa8921ccc50 -->
<g id="edge77" class="edge">
<title>ast.Name object at 0x7aa892e75050&#45;&gt;ast.Load object at 0x7aa8921ccc50</title>
<path fill="none" stroke="black" d="M959.17,-71.7C962.21,-63.81 965.88,-54.3 969.26,-45.55"/>
<polygon fill="black" stroke="black" points="972.57,-46.69 972.9,-36.1 966.04,-44.17 972.57,-46.69"/>
</g>
<!-- ast.Name object at 0x7aa892e76a10&#45;&gt;ast.Load object at 0x7aa8921ccc50 -->
<g id="edge80" class="edge">
<title>ast.Name object at 0x7aa892e76a10&#45;&gt;ast.Load object at 0x7aa8921ccc50</title>
<path fill="none" stroke="black" d="M904.72,-71.88C917.42,-62.89 933.16,-51.76 946.92,-42.03"/>
<polygon fill="black" stroke="black" points="949.04,-44.82 955.19,-36.19 945,-39.11 949.04,-44.82"/>
</g>
<!-- ast.Name object at 0x7aa892e74490 -->
<g id="node59" class="node">
<title>ast.Name object at 0x7aa892e74490</title>
<path fill="#66cdaa" stroke="black" d="M1187.5,-324C1187.5,-324 1157.5,-324 1157.5,-324 1151.5,-324 1145.5,-318 1145.5,-312 1145.5,-312 1145.5,-300 1145.5,-300 1145.5,-294 1151.5,-288 1157.5,-288 1157.5,-288 1187.5,-288 1187.5,-288 1193.5,-288 1199.5,-294 1199.5,-300 1199.5,-300 1199.5,-312 1199.5,-312 1199.5,-318 1193.5,-324 1187.5,-324"/>
<text text-anchor="middle" x="1172.5" y="-302.3" font-family="Times,serif" font-size="14.00">Name</text>
</g>
<!-- ast.AugAssign object at 0x7aa892e76490&#45;&gt;ast.Name object at 0x7aa892e74490 -->
<g id="edge83" class="edge">
<title>ast.AugAssign object at 0x7aa892e76490&#45;&gt;ast.Name object at 0x7aa892e74490</title>
<path fill="none" stroke="black" d="M1098.47,-359.88C1111.05,-350.89 1126.63,-339.76 1140.25,-330.03"/>
<polygon fill="black" stroke="black" points="1142.33,-332.85 1148.43,-324.19 1138.26,-327.15 1142.33,-332.85"/>
</g>
<!-- ast.Mult object at 0x7aa8921cd250 -->
<g id="node60" class="node">
<title>ast.Mult object at 0x7aa8921cd250</title>
<path fill="#66cdaa" stroke="black" d="M1115.5,-324C1115.5,-324 1085.5,-324 1085.5,-324 1079.5,-324 1073.5,-318 1073.5,-312 1073.5,-312 1073.5,-300 1073.5,-300 1073.5,-294 1079.5,-288 1085.5,-288 1085.5,-288 1115.5,-288 1115.5,-288 1121.5,-288 1127.5,-294 1127.5,-300 1127.5,-300 1127.5,-312 1127.5,-312 1127.5,-318 1121.5,-324 1115.5,-324"/>
<text text-anchor="middle" x="1100.5" y="-302.3" font-family="Times,serif" font-size="14.00">Mult</text>
</g>
<!-- ast.AugAssign object at 0x7aa892e76490&#45;&gt;ast.Mult object at 0x7aa8921cd250 -->
<g id="edge85" class="edge">
<title>ast.AugAssign object at 0x7aa892e76490&#45;&gt;ast.Mult object at 0x7aa8921cd250</title>
<path fill="none" stroke="black" d="M1080.93,-359.7C1083.86,-351.81 1087.39,-342.3 1090.64,-333.55"/>
<polygon fill="black" stroke="black" points="1093.95,-334.7 1094.15,-324.1 1087.38,-332.26 1093.95,-334.7"/>
</g>
<!-- ast.Subscript object at 0x7aa892e76cd0 -->
<g id="node61" class="node">
<title>ast.Subscript object at 0x7aa892e76cd0</title>
<path fill="#66cdaa" stroke="black" d="M672.5,-252C672.5,-252 628.5,-252 628.5,-252 622.5,-252 616.5,-246 616.5,-240 616.5,-240 616.5,-228 616.5,-228 616.5,-222 622.5,-216 628.5,-216 628.5,-216 672.5,-216 672.5,-216 678.5,-216 684.5,-222 684.5,-228 684.5,-228 684.5,-240 684.5,-240 684.5,-246 678.5,-252 672.5,-252"/>
<text text-anchor="middle" x="650.5" y="-230.3" font-family="Times,serif" font-size="14.00">Subscript</text>
</g>
<!-- ast.AugAssign object at 0x7aa892e76490&#45;&gt;ast.Subscript object at 0x7aa892e76cd0 -->
<g id="edge86" class="edge">
<title>ast.AugAssign object at 0x7aa892e76490&#45;&gt;ast.Subscript object at 0x7aa892e76cd0</title>
<path fill="none" stroke="black" d="M1035.83,-362.95C1032.69,-361.91 1029.55,-360.92 1026.5,-360 963.34,-340.97 941.29,-353.94 882.5,-324 860.29,-312.69 861.55,-299.62 839.5,-288 793.05,-263.51 734.05,-249.3 694.43,-241.87"/>
<polygon fill="black" stroke="black" points="695.01,-238.42 684.54,-240.08 693.76,-245.3 695.01,-238.42"/>
</g>
<!-- ast.Name object at 0x7aa892e74490&#45;&gt;ast.Store object at 0x7aa8921cccd0 -->
<g id="edge84" class="edge">
<title>ast.Name object at 0x7aa892e74490&#45;&gt;ast.Store object at 0x7aa8921cccd0</title>
<path fill="none" stroke="black" d="M1199.75,-293.41C1204.32,-291.55 1209.03,-289.68 1213.5,-288 1253.84,-272.8 1300.74,-257.13 1332.5,-246.81"/>
<polygon fill="black" stroke="black" points="1333.82,-250.07 1342.25,-243.66 1331.66,-243.41 1333.82,-250.07"/>
</g>
<!-- ast.Subscript object at 0x7aa892e76cd0&#45;&gt;ast.Load object at 0x7aa8921ccc50 -->
<g id="edge95" class="edge">
<title>ast.Subscript object at 0x7aa892e76cd0&#45;&gt;ast.Load object at 0x7aa8921ccc50</title>
<path fill="none" stroke="black" d="M652.63,-215.8C657.72,-182.51 673.76,-109.26 719.5,-72 753.25,-44.51 878.86,-28.73 942.31,-22.34"/>
<polygon fill="black" stroke="black" points="942.69,-25.82 952.3,-21.36 942.01,-18.86 942.69,-25.82"/>
</g>
<!-- ast.Name object at 0x7aa892e775d0 -->
<g id="node62" class="node">
<title>ast.Name object at 0x7aa892e775d0</title>
<path fill="#66cdaa" stroke="black" d="M554.5,-180C554.5,-180 524.5,-180 524.5,-180 518.5,-180 512.5,-174 512.5,-168 512.5,-168 512.5,-156 512.5,-156 512.5,-150 518.5,-144 524.5,-144 524.5,-144 554.5,-144 554.5,-144 560.5,-144 566.5,-150 566.5,-156 566.5,-156 566.5,-168 566.5,-168 566.5,-174 560.5,-180 554.5,-180"/>
<text text-anchor="middle" x="539.5" y="-158.3" font-family="Times,serif" font-size="14.00">Name</text>
</g>
<!-- ast.Subscript object at 0x7aa892e76cd0&#45;&gt;ast.Name object at 0x7aa892e775d0 -->
<g id="edge87" class="edge">
<title>ast.Subscript object at 0x7aa892e76cd0&#45;&gt;ast.Name object at 0x7aa892e775d0</title>
<path fill="none" stroke="black" d="M623.35,-215.88C608.97,-206.81 591.12,-195.55 575.59,-185.76"/>
<polygon fill="black" stroke="black" points="577.08,-182.56 566.76,-180.19 573.35,-188.48 577.08,-182.56"/>
</g>
<!-- ast.BinOp object at 0x7aa892e652d0 -->
<g id="node63" class="node">
<title>ast.BinOp object at 0x7aa892e652d0</title>
<path fill="#66cdaa" stroke="black" d="M637.5,-180C637.5,-180 607.5,-180 607.5,-180 601.5,-180 595.5,-174 595.5,-168 595.5,-168 595.5,-156 595.5,-156 595.5,-150 601.5,-144 607.5,-144 607.5,-144 637.5,-144 637.5,-144 643.5,-144 649.5,-150 649.5,-156 649.5,-156 649.5,-168 649.5,-168 649.5,-174 643.5,-180 637.5,-180"/>
<text text-anchor="middle" x="622.5" y="-158.3" font-family="Times,serif" font-size="14.00">BinOp</text>
</g>
<!-- ast.Subscript object at 0x7aa892e76cd0&#45;&gt;ast.BinOp object at 0x7aa892e652d0 -->
<g id="edge89" class="edge">
<title>ast.Subscript object at 0x7aa892e76cd0&#45;&gt;ast.BinOp object at 0x7aa892e652d0</title>
<path fill="none" stroke="black" d="M643.58,-215.7C640.43,-207.81 636.62,-198.3 633.12,-189.55"/>
<polygon fill="black" stroke="black" points="636.31,-188.09 629.34,-180.1 629.81,-190.69 636.31,-188.09"/>
</g>
<!-- ast.Name object at 0x7aa892e775d0&#45;&gt;ast.Load object at 0x7aa8921ccc50 -->
<g id="edge88" class="edge">
<title>ast.Name object at 0x7aa892e775d0&#45;&gt;ast.Load object at 0x7aa8921ccc50</title>
<path fill="none" stroke="black" d="M526.3,-143.81C512.92,-124.16 496.55,-92.12 514.5,-72 542.88,-40.21 837.04,-24.93 942.3,-20.45"/>
<polygon fill="black" stroke="black" points="942.61,-23.94 952.46,-20.03 942.32,-16.95 942.61,-23.94"/>
</g>
<!-- ast.BinOp object at 0x7aa892e652d0&#45;&gt;ast.Mod object at 0x7aa8921cd3d0 -->
<g id="edge92" class="edge">
<title>ast.BinOp object at 0x7aa892e652d0&#45;&gt;ast.Mod object at 0x7aa8921cd3d0</title>
<path fill="none" stroke="black" d="M649.65,-148.16C673.35,-136.95 707.96,-120.58 734.08,-108.23"/>
<polygon fill="black" stroke="black" points="735.73,-111.32 743.28,-103.88 732.74,-104.99 735.73,-111.32"/>
</g>
<!-- ast.Name object at 0x7aa892e64790 -->
<g id="node64" class="node">
<title>ast.Name object at 0x7aa892e64790</title>
<path fill="#66cdaa" stroke="black" d="M637.5,-108C637.5,-108 607.5,-108 607.5,-108 601.5,-108 595.5,-102 595.5,-96 595.5,-96 595.5,-84 595.5,-84 595.5,-78 601.5,-72 607.5,-72 607.5,-72 637.5,-72 637.5,-72 643.5,-72 649.5,-78 649.5,-84 649.5,-84 649.5,-96 649.5,-96 649.5,-102 643.5,-108 637.5,-108"/>
<text text-anchor="middle" x="622.5" y="-86.3" font-family="Times,serif" font-size="14.00">Name</text>
</g>
<!-- ast.BinOp object at 0x7aa892e652d0&#45;&gt;ast.Name object at 0x7aa892e64790 -->
<g id="edge90" class="edge">
<title>ast.BinOp object at 0x7aa892e652d0&#45;&gt;ast.Name object at 0x7aa892e64790</title>
<path fill="none" stroke="black" d="M622.5,-143.7C622.5,-135.98 622.5,-126.71 622.5,-118.11"/>
<polygon fill="black" stroke="black" points="626,-118.1 622.5,-108.1 619,-118.1 626,-118.1"/>
</g>
<!-- ast.Name object at 0x7aa892e64190 -->
<g id="node65" class="node">
<title>ast.Name object at 0x7aa892e64190</title>
<path fill="#66cdaa" stroke="black" d="M565.5,-108C565.5,-108 535.5,-108 535.5,-108 529.5,-108 523.5,-102 523.5,-96 523.5,-96 523.5,-84 523.5,-84 523.5,-78 529.5,-72 535.5,-72 535.5,-72 565.5,-72 565.5,-72 571.5,-72 577.5,-78 577.5,-84 577.5,-84 577.5,-96 577.5,-96 577.5,-102 571.5,-108 565.5,-108"/>
<text text-anchor="middle" x="550.5" y="-86.3" font-family="Times,serif" font-size="14.00">Name</text>
</g>
<!-- ast.BinOp object at 0x7aa892e652d0&#45;&gt;ast.Name object at 0x7aa892e64190 -->
<g id="edge93" class="edge">
<title>ast.BinOp object at 0x7aa892e652d0&#45;&gt;ast.Name object at 0x7aa892e64190</title>
<path fill="none" stroke="black" d="M604.7,-143.7C595.9,-135.14 585.12,-124.66 575.5,-115.3"/>
<polygon fill="black" stroke="black" points="577.7,-112.57 568.09,-108.1 572.82,-117.58 577.7,-112.57"/>
</g>
<!-- ast.Name object at 0x7aa892e64790&#45;&gt;ast.Load object at 0x7aa8921ccc50 -->
<g id="edge91" class="edge">
<title>ast.Name object at 0x7aa892e64790&#45;&gt;ast.Load object at 0x7aa8921ccc50</title>
<path fill="none" stroke="black" d="M649.54,-76.78C654.14,-75 658.91,-73.32 663.5,-72 762.11,-43.69 882.64,-28.66 942.33,-22.47"/>
<polygon fill="black" stroke="black" points="942.81,-25.94 952.41,-21.45 942.11,-18.98 942.81,-25.94"/>
</g>
<!-- ast.Name object at 0x7aa892e64190&#45;&gt;ast.Load object at 0x7aa8921ccc50 -->
<g id="edge94" class="edge">
<title>ast.Name object at 0x7aa892e64190&#45;&gt;ast.Load object at 0x7aa8921ccc50</title>
<path fill="none" stroke="black" d="M577.68,-75.11C580.61,-73.93 583.58,-72.86 586.5,-72 713.35,-34.48 871.17,-23.42 942.01,-20.24"/>
<polygon fill="black" stroke="black" points="942.38,-23.73 952.22,-19.81 942.08,-16.74 942.38,-23.73"/>
</g>
<!-- ast.Compare object at 0x7aa892e65a50 -->
<g id="node67" class="node">
<title>ast.Compare object at 0x7aa892e65a50</title>
<path fill="#66cdaa" stroke="black" d="M1340,-180C1340,-180 1297,-180 1297,-180 1291,-180 1285,-174 1285,-168 1285,-168 1285,-156 1285,-156 1285,-150 1291,-144 1297,-144 1297,-144 1340,-144 1340,-144 1346,-144 1352,-150 1352,-156 1352,-156 1352,-168 1352,-168 1352,-174 1346,-180 1340,-180"/>
<text text-anchor="middle" x="1318.5" y="-158.3" font-family="Times,serif" font-size="14.00">Compare</text>
</g>
<!-- ast.If object at 0x7aa892e64d50&#45;&gt;ast.Compare object at 0x7aa892e65a50 -->
<g id="edge97" class="edge">
<title>ast.If object at 0x7aa892e64d50&#45;&gt;ast.Compare object at 0x7aa892e65a50</title>
<path fill="none" stroke="black" d="M1001.55,-359.74C1014.68,-340.31 1038.14,-308.77 1064.5,-288 1130.65,-235.89 1222.03,-197.54 1275.24,-177.87"/>
<polygon fill="black" stroke="black" points="1276.52,-181.13 1284.71,-174.42 1274.12,-174.56 1276.52,-181.13"/>
</g>
<!-- ast.Expr object at 0x7aa892e65e10 -->
<g id="node71" class="node">
<title>ast.Expr object at 0x7aa892e65e10</title>
<path fill="#66cdaa" stroke="black" d="M1005.5,-324C1005.5,-324 975.5,-324 975.5,-324 969.5,-324 963.5,-318 963.5,-312 963.5,-312 963.5,-300 963.5,-300 963.5,-294 969.5,-288 975.5,-288 975.5,-288 1005.5,-288 1005.5,-288 1011.5,-288 1017.5,-294 1017.5,-300 1017.5,-300 1017.5,-312 1017.5,-312 1017.5,-318 1011.5,-324 1005.5,-324"/>
<text text-anchor="middle" x="990.5" y="-302.3" font-family="Times,serif" font-size="14.00">Expr</text>
</g>
<!-- ast.If object at 0x7aa892e64d50&#45;&gt;ast.Expr object at 0x7aa892e65e10 -->
<g id="edge103" class="edge">
<title>ast.If object at 0x7aa892e64d50&#45;&gt;ast.Expr object at 0x7aa892e65e10</title>
<path fill="none" stroke="black" d="M990.5,-359.7C990.5,-351.98 990.5,-342.71 990.5,-334.11"/>
<polygon fill="black" stroke="black" points="994,-334.1 990.5,-324.1 987,-334.1 994,-334.1"/>
</g>
<!-- ast.Name object at 0x7aa892e65850 -->
<g id="node68" class="node">
<title>ast.Name object at 0x7aa892e65850</title>
<path fill="#66cdaa" stroke="black" d="M1369.5,-108C1369.5,-108 1339.5,-108 1339.5,-108 1333.5,-108 1327.5,-102 1327.5,-96 1327.5,-96 1327.5,-84 1327.5,-84 1327.5,-78 1333.5,-72 1339.5,-72 1339.5,-72 1369.5,-72 1369.5,-72 1375.5,-72 1381.5,-78 1381.5,-84 1381.5,-84 1381.5,-96 1381.5,-96 1381.5,-102 1375.5,-108 1369.5,-108"/>
<text text-anchor="middle" x="1354.5" y="-86.3" font-family="Times,serif" font-size="14.00">Name</text>
</g>
<!-- ast.Compare object at 0x7aa892e65a50&#45;&gt;ast.Name object at 0x7aa892e65850 -->
<g id="edge98" class="edge">
<title>ast.Compare object at 0x7aa892e65a50&#45;&gt;ast.Name object at 0x7aa892e65850</title>
<path fill="none" stroke="black" d="M1327.4,-143.7C1331.5,-135.73 1336.45,-126.1 1340.99,-117.26"/>
<polygon fill="black" stroke="black" points="1344.24,-118.6 1345.7,-108.1 1338.02,-115.4 1344.24,-118.6"/>
</g>
<!-- ast.Eq object at 0x7aa8921cdc50 -->
<g id="node69" class="node">
<title>ast.Eq object at 0x7aa8921cdc50</title>
<path fill="#66cdaa" stroke="black" d="M1441.5,-108C1441.5,-108 1411.5,-108 1411.5,-108 1405.5,-108 1399.5,-102 1399.5,-96 1399.5,-96 1399.5,-84 1399.5,-84 1399.5,-78 1405.5,-72 1411.5,-72 1411.5,-72 1441.5,-72 1441.5,-72 1447.5,-72 1453.5,-78 1453.5,-84 1453.5,-84 1453.5,-96 1453.5,-96 1453.5,-102 1447.5,-108 1441.5,-108"/>
<text text-anchor="middle" x="1426.5" y="-86.3" font-family="Times,serif" font-size="14.00">Eq</text>
</g>
<!-- ast.Compare object at 0x7aa892e65a50&#45;&gt;ast.Eq object at 0x7aa8921cdc50 -->
<g id="edge100" class="edge">
<title>ast.Compare object at 0x7aa892e65a50&#45;&gt;ast.Eq object at 0x7aa8921cdc50</title>
<path fill="none" stroke="black" d="M1344.92,-143.88C1358.91,-134.81 1376.28,-123.55 1391.39,-113.76"/>
<polygon fill="black" stroke="black" points="1393.49,-116.57 1399.98,-108.19 1389.68,-110.69 1393.49,-116.57"/>
</g>
<!-- ast.Name object at 0x7aa892e663d0 -->
<g id="node70" class="node">
<title>ast.Name object at 0x7aa892e663d0</title>
<path fill="#66cdaa" stroke="black" d="M1297.5,-108C1297.5,-108 1267.5,-108 1267.5,-108 1261.5,-108 1255.5,-102 1255.5,-96 1255.5,-96 1255.5,-84 1255.5,-84 1255.5,-78 1261.5,-72 1267.5,-72 1267.5,-72 1297.5,-72 1297.5,-72 1303.5,-72 1309.5,-78 1309.5,-84 1309.5,-84 1309.5,-96 1309.5,-96 1309.5,-102 1303.5,-108 1297.5,-108"/>
<text text-anchor="middle" x="1282.5" y="-86.3" font-family="Times,serif" font-size="14.00">Name</text>
</g>
<!-- ast.Compare object at 0x7aa892e65a50&#45;&gt;ast.Name object at 0x7aa892e663d0 -->
<g id="edge101" class="edge">
<title>ast.Compare object at 0x7aa892e65a50&#45;&gt;ast.Name object at 0x7aa892e663d0</title>
<path fill="none" stroke="black" d="M1309.6,-143.7C1305.5,-135.73 1300.55,-126.1 1296.01,-117.26"/>
<polygon fill="black" stroke="black" points="1298.98,-115.4 1291.3,-108.1 1292.76,-118.6 1298.98,-115.4"/>
</g>
<!-- ast.Name object at 0x7aa892e65850&#45;&gt;ast.Load object at 0x7aa8921ccc50 -->
<g id="edge99" class="edge">
<title>ast.Name object at 0x7aa892e65850&#45;&gt;ast.Load object at 0x7aa8921ccc50</title>
<path fill="none" stroke="black" d="M1327.31,-75.17C1324.38,-73.98 1321.41,-72.89 1318.5,-72 1212.19,-39.33 1080.64,-26.12 1017.21,-21.37"/>
<polygon fill="black" stroke="black" points="1017.12,-17.85 1006.9,-20.62 1016.62,-24.83 1017.12,-17.85"/>
</g>
<!-- ast.Name object at 0x7aa892e663d0&#45;&gt;ast.Load object at 0x7aa8921ccc50 -->
<g id="edge102" class="edge">
<title>ast.Name object at 0x7aa892e663d0&#45;&gt;ast.Load object at 0x7aa8921ccc50</title>
<path fill="none" stroke="black" d="M1255.27,-75.29C1252.35,-74.08 1249.39,-72.95 1246.5,-72 1166.72,-45.69 1069.01,-30.36 1016.72,-23.45"/>
<polygon fill="black" stroke="black" points="1016.95,-19.95 1006.59,-22.14 1016.06,-26.9 1016.95,-19.95"/>
</g>
<!-- ast.Call object at 0x7aa892e66710 -->
<g id="node72" class="node">
<title>ast.Call object at 0x7aa892e66710</title>
<path fill="#66cdaa" stroke="black" d="M1005.5,-252C1005.5,-252 975.5,-252 975.5,-252 969.5,-252 963.5,-246 963.5,-240 963.5,-240 963.5,-228 963.5,-228 963.5,-222 969.5,-216 975.5,-216 975.5,-216 1005.5,-216 1005.5,-216 1011.5,-216 1017.5,-222 1017.5,-228 1017.5,-228 1017.5,-240 1017.5,-240 1017.5,-246 1011.5,-252 1005.5,-252"/>
<text text-anchor="middle" x="990.5" y="-230.3" font-family="Times,serif" font-size="14.00">Call</text>
</g>
<!-- ast.Expr object at 0x7aa892e65e10&#45;&gt;ast.Call object at 0x7aa892e66710 -->
<g id="edge104" class="edge">
<title>ast.Expr object at 0x7aa892e65e10&#45;&gt;ast.Call object at 0x7aa892e66710</title>
<path fill="none" stroke="black" d="M990.5,-287.7C990.5,-279.98 990.5,-270.71 990.5,-262.11"/>
<polygon fill="black" stroke="black" points="994,-262.1 990.5,-252.1 987,-262.1 994,-262.1"/>
</g>
<!-- ast.Attribute object at 0x7aa892e656d0 -->
<g id="node73" class="node">
<title>ast.Attribute object at 0x7aa892e656d0</title>
<path fill="#66cdaa" stroke="black" d="M1180,-180C1180,-180 1139,-180 1139,-180 1133,-180 1127,-174 1127,-168 1127,-168 1127,-156 1127,-156 1127,-150 1133,-144 1139,-144 1139,-144 1180,-144 1180,-144 1186,-144 1192,-150 1192,-156 1192,-156 1192,-168 1192,-168 1192,-174 1186,-180 1180,-180"/>
<text text-anchor="middle" x="1159.5" y="-158.3" font-family="Times,serif" font-size="14.00">Attribute</text>
</g>
<!-- ast.Call object at 0x7aa892e66710&#45;&gt;ast.Attribute object at 0x7aa892e656d0 -->
<g id="edge105" class="edge">
<title>ast.Call object at 0x7aa892e66710&#45;&gt;ast.Attribute object at 0x7aa892e656d0</title>
<path fill="none" stroke="black" d="M1017.85,-221.66C1022.41,-219.77 1027.09,-217.83 1031.5,-216 1060.14,-204.13 1092.39,-190.78 1117.35,-180.45"/>
<polygon fill="black" stroke="black" points="1118.98,-183.56 1126.88,-176.5 1116.3,-177.09 1118.98,-183.56"/>
</g>
<!-- ast.Name object at 0x7aa892e65750 -->
<g id="node75" class="node">
<title>ast.Name object at 0x7aa892e65750</title>
<path fill="#66cdaa" stroke="black" d="M1096.5,-180C1096.5,-180 1066.5,-180 1066.5,-180 1060.5,-180 1054.5,-174 1054.5,-168 1054.5,-168 1054.5,-156 1054.5,-156 1054.5,-150 1060.5,-144 1066.5,-144 1066.5,-144 1096.5,-144 1096.5,-144 1102.5,-144 1108.5,-150 1108.5,-156 1108.5,-156 1108.5,-168 1108.5,-168 1108.5,-174 1102.5,-180 1096.5,-180"/>
<text text-anchor="middle" x="1081.5" y="-158.3" font-family="Times,serif" font-size="14.00">Name</text>
</g>
<!-- ast.Call object at 0x7aa892e66710&#45;&gt;ast.Name object at 0x7aa892e65750 -->
<g id="edge109" class="edge">
<title>ast.Call object at 0x7aa892e66710&#45;&gt;ast.Name object at 0x7aa892e65750</title>
<path fill="none" stroke="black" d="M1012.99,-215.7C1024.46,-206.88 1038.56,-196.03 1050.98,-186.47"/>
<polygon fill="black" stroke="black" points="1053.47,-188.98 1059.26,-180.1 1049.2,-183.43 1053.47,-188.98"/>
</g>
<!-- ast.Attribute object at 0x7aa892e656d0&#45;&gt;ast.Load object at 0x7aa8921ccc50 -->
<g id="edge108" class="edge">
<title>ast.Attribute object at 0x7aa892e656d0&#45;&gt;ast.Load object at 0x7aa8921ccc50</title>
<path fill="none" stroke="black" d="M1155.36,-143.96C1149.73,-124.15 1137.82,-91.66 1116.5,-72 1088.58,-46.25 1046.77,-32.52 1016.69,-25.54"/>
<polygon fill="black" stroke="black" points="1017.1,-22.05 1006.58,-23.35 1015.61,-28.89 1017.1,-22.05"/>
</g>
<!-- ast.Name object at 0x7aa892e65910 -->
<g id="node74" class="node">
<title>ast.Name object at 0x7aa892e65910</title>
<path fill="#66cdaa" stroke="black" d="M1225.5,-108C1225.5,-108 1195.5,-108 1195.5,-108 1189.5,-108 1183.5,-102 1183.5,-96 1183.5,-96 1183.5,-84 1183.5,-84 1183.5,-78 1189.5,-72 1195.5,-72 1195.5,-72 1225.5,-72 1225.5,-72 1231.5,-72 1237.5,-78 1237.5,-84 1237.5,-84 1237.5,-96 1237.5,-96 1237.5,-102 1231.5,-108 1225.5,-108"/>
<text text-anchor="middle" x="1210.5" y="-86.3" font-family="Times,serif" font-size="14.00">Name</text>
</g>
<!-- ast.Attribute object at 0x7aa892e656d0&#45;&gt;ast.Name object at 0x7aa892e65910 -->
<g id="edge106" class="edge">
<title>ast.Attribute object at 0x7aa892e656d0&#45;&gt;ast.Name object at 0x7aa892e65910</title>
<path fill="none" stroke="black" d="M1172.11,-143.7C1178.1,-135.47 1185.38,-125.48 1191.98,-116.42"/>
<polygon fill="black" stroke="black" points="1194.98,-118.25 1198.04,-108.1 1189.32,-114.13 1194.98,-118.25"/>
</g>
<!-- ast.Name object at 0x7aa892e65910&#45;&gt;ast.Load object at 0x7aa8921ccc50 -->
<g id="edge107" class="edge">
<title>ast.Name object at 0x7aa892e65910&#45;&gt;ast.Load object at 0x7aa8921ccc50</title>
<path fill="none" stroke="black" d="M1183.33,-77.2C1178.75,-75.36 1174.02,-73.56 1169.5,-72 1117.05,-53.89 1054.89,-37.47 1016.31,-27.86"/>
<polygon fill="black" stroke="black" points="1017.11,-24.45 1006.56,-25.45 1015.43,-31.25 1017.11,-24.45"/>
</g>
<!-- ast.Name object at 0x7aa892e65750&#45;&gt;ast.Load object at 0x7aa8921ccc50 -->
<g id="edge110" class="edge">
<title>ast.Name object at 0x7aa892e65750&#45;&gt;ast.Load object at 0x7aa8921ccc50</title>
<path fill="none" stroke="black" d="M1091.6,-143.85C1101.35,-124.82 1112.72,-93.9 1098.5,-72 1080.51,-44.29 1044.31,-30.95 1016.54,-24.6"/>
<polygon fill="black" stroke="black" points="1017.24,-21.17 1006.73,-22.56 1015.81,-28.02 1017.24,-21.17"/>
</g>
<!-- ast.Name object at 0x7aa892e66250 -->
<g id="node77" class="node">
<title>ast.Name object at 0x7aa892e66250</title>
<path fill="#66cdaa" stroke="black" d="M1796.5,-540C1796.5,-540 1766.5,-540 1766.5,-540 1760.5,-540 1754.5,-534 1754.5,-528 1754.5,-528 1754.5,-516 1754.5,-516 1754.5,-510 1760.5,-504 1766.5,-504 1766.5,-504 1796.5,-504 1796.5,-504 1802.5,-504 1808.5,-510 1808.5,-516 1808.5,-516 1808.5,-528 1808.5,-528 1808.5,-534 1802.5,-540 1796.5,-540"/>
<text text-anchor="middle" x="1781.5" y="-518.3" font-family="Times,serif" font-size="14.00">Name</text>
</g>
<!-- ast.Return object at 0x7aa892e66150&#45;&gt;ast.Name object at 0x7aa892e66250 -->
<g id="edge112" class="edge">
<title>ast.Return object at 0x7aa892e66150&#45;&gt;ast.Name object at 0x7aa892e66250</title>
<path fill="none" stroke="black" d="M1725.04,-575.7C1734.3,-567.05 1745.66,-556.45 1755.76,-547.03"/>
<polygon fill="black" stroke="black" points="1758.25,-549.49 1763.17,-540.1 1753.48,-544.37 1758.25,-549.49"/>
</g>
<!-- ast.Name object at 0x7aa892e66250&#45;&gt;ast.Load object at 0x7aa8921ccc50 -->
<g id="edge113" class="edge">
<title>ast.Name object at 0x7aa892e66250&#45;&gt;ast.Load object at 0x7aa8921ccc50</title>
<path fill="none" stroke="black" d="M1795.5,-503.82C1814.87,-478.26 1847.5,-427.93 1847.5,-379 1847.5,-379 1847.5,-379 1847.5,-161 1847.5,-118.5 1846.85,-97.04 1812.5,-72 1747.6,-24.7 1170.48,-19.58 1016.9,-19.05"/>
<polygon fill="black" stroke="black" points="1016.6,-15.55 1006.59,-19.02 1016.58,-22.55 1016.6,-15.55"/>
</g>
</g>
</svg>
