<?xml version="1.0" encoding="UTF-8" standalone="no"?>
<!DOCTYPE svg PUBLIC "-//W3C//DTD SVG 1.1//EN"
 "http://www.w3.org/Graphics/SVG/1.1/DTD/svg11.dtd">
<!-- Generated by graphviz version 2.50.0 (0)
 -->
<!-- Pages: 1 -->
<svg width="926pt" height="620pt"
 viewBox="0.00 0.00 925.50 620.00" xmlns="http://www.w3.org/2000/svg" xmlns:xlink="http://www.w3.org/1999/xlink">
<g id="graph0" class="graph" transform="scale(1 1) rotate(0) translate(4 616)">
<polygon fill="white" stroke="transparent" points="-4,4 -4,-616 921.5,-616 921.5,4 -4,4"/>
<!-- ast.Module object at 0x7cace23a4310 -->
<g id="node1" class="node">
<title>ast.Module object at 0x7cace23a4310</title>
<path fill="#66cdaa" stroke="black" d="M191.5,-612C191.5,-612 156.5,-612 156.5,-612 150.5,-612 144.5,-606 144.5,-600 144.5,-600 144.5,-588 144.5,-588 144.5,-582 150.5,-576 156.5,-576 156.5,-576 191.5,-576 191.5,-576 197.5,-576 203.5,-582 203.5,-588 203.5,-588 203.5,-600 203.5,-600 203.5,-606 197.5,-612 191.5,-612"/>
<text text-anchor="middle" x="174" y="-590.3" font-family="Times,serif" font-size="14.00">Module</text>
</g>
<!-- ast.FunctionDef object at 0x7cace23a7090 -->
<g id="node2" class="node">
<title>ast.FunctionDef object at 0x7cace23a7090</title>
<path fill="#66cdaa" stroke="black" d="M204.5,-540C204.5,-540 143.5,-540 143.5,-540 137.5,-540 131.5,-534 131.5,-528 131.5,-528 131.5,-516 131.5,-516 131.5,-510 137.5,-504 143.5,-504 143.5,-504 204.5,-504 204.5,-504 210.5,-504 216.5,-510 216.5,-516 216.5,-516 216.5,-528 216.5,-528 216.5,-534 210.5,-540 204.5,-540"/>
<text text-anchor="middle" x="174" y="-518.3" font-family="Times,serif" font-size="14.00">FunctionDef</text>
</g>
<!-- ast.Module object at 0x7cace23a4310&#45;&gt;ast.FunctionDef object at 0x7cace23a7090 -->
<g id="edge1" class="edge">
<title>ast.Module object at 0x7cace23a4310&#45;&gt;ast.FunctionDef object at 0x7cace23a7090</title>
<path fill="none" stroke="black" d="M174,-575.7C174,-567.98 174,-558.71 174,-550.11"/>
<polygon fill="black" stroke="black" points="177.5,-550.1 174,-540.1 170.5,-550.1 177.5,-550.1"/>
</g>
<!-- ast.arguments object at 0x7cacfade49d0 -->
<g id="node3" class="node">
<title>ast.arguments object at 0x7cacfade49d0</title>
<path fill="#66cdaa" stroke="black" d="M85,-468C85,-468 35,-468 35,-468 29,-468 23,-462 23,-456 23,-456 23,-444 23,-444 23,-438 29,-432 35,-432 35,-432 85,-432 85,-432 91,-432 97,-438 97,-444 97,-444 97,-456 97,-456 97,-462 91,-468 85,-468"/>
<text text-anchor="middle" x="60" y="-446.3" font-family="Times,serif" font-size="14.00">arguments</text>
</g>
<!-- ast.FunctionDef object at 0x7cace23a7090&#45;&gt;ast.arguments object at 0x7cacfade49d0 -->
<g id="edge2" class="edge">
<title>ast.FunctionDef object at 0x7cace23a7090&#45;&gt;ast.arguments object at 0x7cacfade49d0</title>
<path fill="none" stroke="black" d="M146.11,-503.88C131.21,-494.72 112.67,-483.34 96.62,-473.48"/>
<polygon fill="black" stroke="black" points="98.35,-470.44 87.99,-468.19 94.69,-476.41 98.35,-470.44"/>
</g>
<!-- ast.FunctionDef object at 0x7cace2296290 -->
<g id="node5" class="node">
<title>ast.FunctionDef object at 0x7cace2296290</title>
<path fill="#66cdaa" stroke="black" d="M204.5,-468C204.5,-468 143.5,-468 143.5,-468 137.5,-468 131.5,-462 131.5,-456 131.5,-456 131.5,-444 131.5,-444 131.5,-438 137.5,-432 143.5,-432 143.5,-432 204.5,-432 204.5,-432 210.5,-432 216.5,-438 216.5,-444 216.5,-444 216.5,-456 216.5,-456 216.5,-462 210.5,-468 204.5,-468"/>
<text text-anchor="middle" x="174" y="-446.3" font-family="Times,serif" font-size="14.00">FunctionDef</text>
</g>
<!-- ast.FunctionDef object at 0x7cace23a7090&#45;&gt;ast.FunctionDef object at 0x7cace2296290 -->
<g id="edge4" class="edge">
<title>ast.FunctionDef object at 0x7cace23a7090&#45;&gt;ast.FunctionDef object at 0x7cace2296290</title>
<path fill="none" stroke="black" d="M174,-503.7C174,-495.98 174,-486.71 174,-478.11"/>
<polygon fill="black" stroke="black" points="177.5,-478.1 174,-468.1 170.5,-478.1 177.5,-478.1"/>
</g>
<!-- ast.Return object at 0x7cacfaf8e650 -->
<g id="node14" class="node">
<title>ast.Return object at 0x7cacfaf8e650</title>
<path fill="#66cdaa" stroke="black" d="M307,-468C307,-468 277,-468 277,-468 271,-468 265,-462 265,-456 265,-456 265,-444 265,-444 265,-438 271,-432 277,-432 277,-432 307,-432 307,-432 313,-432 319,-438 319,-444 319,-444 319,-456 319,-456 319,-462 313,-468 307,-468"/>
<text text-anchor="middle" x="292" y="-446.3" font-family="Times,serif" font-size="14.00">Return</text>
</g>
<!-- ast.FunctionDef object at 0x7cace23a7090&#45;&gt;ast.Return object at 0x7cacfaf8e650 -->
<g id="edge13" class="edge">
<title>ast.FunctionDef object at 0x7cace23a7090&#45;&gt;ast.Return object at 0x7cacfaf8e650</title>
<path fill="none" stroke="black" d="M202.87,-503.88C218.76,-494.45 238.63,-482.66 255.58,-472.61"/>
<polygon fill="black" stroke="black" points="257.83,-475.34 264.65,-467.23 254.26,-469.32 257.83,-475.34"/>
</g>
<!-- ast.arg object at 0x7cace24bcbd0 -->
<g id="node4" class="node">
<title>ast.arg object at 0x7cace24bcbd0</title>
<path fill="#66cdaa" stroke="black" d="M42,-396C42,-396 12,-396 12,-396 6,-396 0,-390 0,-384 0,-384 0,-372 0,-372 0,-366 6,-360 12,-360 12,-360 42,-360 42,-360 48,-360 54,-366 54,-372 54,-372 54,-384 54,-384 54,-390 48,-396 42,-396"/>
<text text-anchor="middle" x="27" y="-374.3" font-family="Times,serif" font-size="14.00">arg</text>
</g>
<!-- ast.arguments object at 0x7cacfade49d0&#45;&gt;ast.arg object at 0x7cace24bcbd0 -->
<g id="edge3" class="edge">
<title>ast.arguments object at 0x7cacfade49d0&#45;&gt;ast.arg object at 0x7cace24bcbd0</title>
<path fill="none" stroke="black" d="M51.84,-431.7C48.09,-423.73 43.55,-414.1 39.38,-405.26"/>
<polygon fill="black" stroke="black" points="42.49,-403.66 35.06,-396.1 36.16,-406.64 42.49,-403.66"/>
</g>
<!-- ast.arguments object at 0x7cace2295910 -->
<g id="node6" class="node">
<title>ast.arguments object at 0x7cace2295910</title>
<path fill="#66cdaa" stroke="black" d="M134,-396C134,-396 84,-396 84,-396 78,-396 72,-390 72,-384 72,-384 72,-372 72,-372 72,-366 78,-360 84,-360 84,-360 134,-360 134,-360 140,-360 146,-366 146,-372 146,-372 146,-384 146,-384 146,-390 140,-396 134,-396"/>
<text text-anchor="middle" x="109" y="-374.3" font-family="Times,serif" font-size="14.00">arguments</text>
</g>
<!-- ast.FunctionDef object at 0x7cace2296290&#45;&gt;ast.arguments object at 0x7cace2295910 -->
<g id="edge5" class="edge">
<title>ast.FunctionDef object at 0x7cace2296290&#45;&gt;ast.arguments object at 0x7cace2295910</title>
<path fill="none" stroke="black" d="M157.93,-431.7C150.06,-423.22 140.44,-412.86 131.83,-403.58"/>
<polygon fill="black" stroke="black" points="134.25,-401.05 124.88,-396.1 129.12,-405.81 134.25,-401.05"/>
</g>
<!-- ast.Return object at 0x7cace2295790 -->
<g id="node8" class="node">
<title>ast.Return object at 0x7cace2295790</title>
<path fill="#66cdaa" stroke="black" d="M206,-396C206,-396 176,-396 176,-396 170,-396 164,-390 164,-384 164,-384 164,-372 164,-372 164,-366 170,-360 176,-360 176,-360 206,-360 206,-360 212,-360 218,-366 218,-372 218,-372 218,-384 218,-384 218,-390 212,-396 206,-396"/>
<text text-anchor="middle" x="191" y="-374.3" font-family="Times,serif" font-size="14.00">Return</text>
</g>
<!-- ast.FunctionDef object at 0x7cace2296290&#45;&gt;ast.Return object at 0x7cace2295790 -->
<g id="edge7" class="edge">
<title>ast.FunctionDef object at 0x7cace2296290&#45;&gt;ast.Return object at 0x7cace2295790</title>
<path fill="none" stroke="black" d="M178.2,-431.7C180.1,-423.9 182.38,-414.51 184.48,-405.83"/>
<polygon fill="black" stroke="black" points="187.89,-406.65 186.85,-396.1 181.08,-405 187.89,-406.65"/>
</g>
<!-- ast.arg object at 0x7cace2296c10 -->
<g id="node7" class="node">
<title>ast.arg object at 0x7cace2296c10</title>
<path fill="#66cdaa" stroke="black" d="M124,-324C124,-324 94,-324 94,-324 88,-324 82,-318 82,-312 82,-312 82,-300 82,-300 82,-294 88,-288 94,-288 94,-288 124,-288 124,-288 130,-288 136,-294 136,-300 136,-300 136,-312 136,-312 136,-318 130,-324 124,-324"/>
<text text-anchor="middle" x="109" y="-302.3" font-family="Times,serif" font-size="14.00">arg</text>
</g>
<!-- ast.arguments object at 0x7cace2295910&#45;&gt;ast.arg object at 0x7cace2296c10 -->
<g id="edge6" class="edge">
<title>ast.arguments object at 0x7cace2295910&#45;&gt;ast.arg object at 0x7cace2296c10</title>
<path fill="none" stroke="black" d="M109,-359.7C109,-351.98 109,-342.71 109,-334.11"/>
<polygon fill="black" stroke="black" points="112.5,-334.1 109,-324.1 105.5,-334.1 112.5,-334.1"/>
</g>
<!-- ast.Compare object at 0x7cace2295bd0 -->
<g id="node9" class="node">
<title>ast.Compare object at 0x7cace2295bd0</title>
<path fill="#66cdaa" stroke="black" d="M210.5,-324C210.5,-324 167.5,-324 167.5,-324 161.5,-324 155.5,-318 155.5,-312 155.5,-312 155.5,-300 155.5,-300 155.5,-294 161.5,-288 167.5,-288 167.5,-288 210.5,-288 210.5,-288 216.5,-288 222.5,-294 222.5,-300 222.5,-300 222.5,-312 222.5,-312 222.5,-318 216.5,-324 210.5,-324"/>
<text text-anchor="middle" x="189" y="-302.3" font-family="Times,serif" font-size="14.00">Compare</text>
</g>
<!-- ast.Return object at 0x7cace2295790&#45;&gt;ast.Compare object at 0x7cace2295bd0 -->
<g id="edge8" class="edge">
<title>ast.Return object at 0x7cace2295790&#45;&gt;ast.Compare object at 0x7cace2295bd0</title>
<path fill="none" stroke="black" d="M190.51,-359.7C190.29,-351.98 190.02,-342.71 189.77,-334.11"/>
<polygon fill="black" stroke="black" points="193.27,-334 189.49,-324.1 186.28,-334.2 193.27,-334"/>
</g>
<!-- ast.Name object at 0x7cacfaca62d0 -->
<g id="node10" class="node">
<title>ast.Name object at 0x7cacfaca62d0</title>
<path fill="#66cdaa" stroke="black" d="M267,-252C267,-252 237,-252 237,-252 231,-252 225,-246 225,-240 225,-240 225,-228 225,-228 225,-222 231,-216 237,-216 237,-216 267,-216 267,-216 273,-216 279,-222 279,-228 279,-228 279,-240 279,-240 279,-246 273,-252 267,-252"/>
<text text-anchor="middle" x="252" y="-230.3" font-family="Times,serif" font-size="14.00">Name</text>
</g>
<!-- ast.Compare object at 0x7cace2295bd0&#45;&gt;ast.Name object at 0x7cacfaca62d0 -->
<g id="edge9" class="edge">
<title>ast.Compare object at 0x7cace2295bd0&#45;&gt;ast.Name object at 0x7cacfaca62d0</title>
<path fill="none" stroke="black" d="M204.57,-287.7C212.2,-279.22 221.52,-268.86 229.88,-259.58"/>
<polygon fill="black" stroke="black" points="232.52,-261.88 236.61,-252.1 227.31,-257.2 232.52,-261.88"/>
</g>
<!-- ast.In object at 0x7cad0cfaaf10 -->
<g id="node12" class="node">
<title>ast.In object at 0x7cad0cfaaf10</title>
<path fill="#66cdaa" stroke="black" d="M111,-252C111,-252 81,-252 81,-252 75,-252 69,-246 69,-240 69,-240 69,-228 69,-228 69,-222 75,-216 81,-216 81,-216 111,-216 111,-216 117,-216 123,-222 123,-228 123,-228 123,-240 123,-240 123,-246 117,-252 111,-252"/>
<text text-anchor="middle" x="96" y="-230.3" font-family="Times,serif" font-size="14.00">In</text>
</g>
<!-- ast.Compare object at 0x7cace2295bd0&#45;&gt;ast.In object at 0x7cad0cfaaf10 -->
<g id="edge11" class="edge">
<title>ast.Compare object at 0x7cace2295bd0&#45;&gt;ast.In object at 0x7cad0cfaaf10</title>
<path fill="none" stroke="black" d="M166.01,-287.7C154.19,-278.8 139.61,-267.82 126.82,-258.2"/>
<polygon fill="black" stroke="black" points="128.82,-255.32 118.72,-252.1 124.61,-260.91 128.82,-255.32"/>
</g>
<!-- ast.Constant object at 0x7cacfa866310 -->
<g id="node13" class="node">
<title>ast.Constant object at 0x7cacfa866310</title>
<path fill="#66cdaa" stroke="black" d="M194.5,-252C194.5,-252 153.5,-252 153.5,-252 147.5,-252 141.5,-246 141.5,-240 141.5,-240 141.5,-228 141.5,-228 141.5,-222 147.5,-216 153.5,-216 153.5,-216 194.5,-216 194.5,-216 200.5,-216 206.5,-222 206.5,-228 206.5,-228 206.5,-240 206.5,-240 206.5,-246 200.5,-252 194.5,-252"/>
<text text-anchor="middle" x="174" y="-230.3" font-family="Times,serif" font-size="14.00">Constant</text>
</g>
<!-- ast.Compare object at 0x7cace2295bd0&#45;&gt;ast.Constant object at 0x7cacfa866310 -->
<g id="edge12" class="edge">
<title>ast.Compare object at 0x7cace2295bd0&#45;&gt;ast.Constant object at 0x7cacfa866310</title>
<path fill="none" stroke="black" d="M185.29,-287.7C183.64,-279.98 181.65,-270.71 179.81,-262.11"/>
<polygon fill="black" stroke="black" points="183.18,-261.15 177.67,-252.1 176.34,-262.62 183.18,-261.15"/>
</g>
<!-- ast.Load object at 0x7cad0cfa9b10 -->
<g id="node11" class="node">
<title>ast.Load object at 0x7cad0cfa9b10</title>
<path fill="#66cdaa" stroke="black" d="M449,-36C449,-36 419,-36 419,-36 413,-36 407,-30 407,-24 407,-24 407,-12 407,-12 407,-6 413,0 419,0 419,0 449,0 449,0 455,0 461,-6 461,-12 461,-12 461,-24 461,-24 461,-30 455,-36 449,-36"/>
<text text-anchor="middle" x="434" y="-14.3" font-family="Times,serif" font-size="14.00">Load</text>
</g>
<!-- ast.Name object at 0x7cacfaca62d0&#45;&gt;ast.Load object at 0x7cad0cfa9b10 -->
<g id="edge10" class="edge">
<title>ast.Name object at 0x7cacfaca62d0&#45;&gt;ast.Load object at 0x7cad0cfa9b10</title>
<path fill="none" stroke="black" d="M251.48,-215.58C251.47,-183.19 256.06,-113.26 293,-72 319.76,-42.11 365.08,-29.01 397.1,-23.31"/>
<polygon fill="black" stroke="black" points="397.68,-26.77 406.99,-21.71 396.56,-19.86 397.68,-26.77"/>
</g>
<!-- ast.ListComp object at 0x7cace259e710 -->
<g id="node15" class="node">
<title>ast.ListComp object at 0x7cace259e710</title>
<path fill="#66cdaa" stroke="black" d="M330.5,-396C330.5,-396 283.5,-396 283.5,-396 277.5,-396 271.5,-390 271.5,-384 271.5,-384 271.5,-372 271.5,-372 271.5,-366 277.5,-360 283.5,-360 283.5,-360 330.5,-360 330.5,-360 336.5,-360 342.5,-366 342.5,-372 342.5,-372 342.5,-384 342.5,-384 342.5,-390 336.5,-396 330.5,-396"/>
<text text-anchor="middle" x="307" y="-374.3" font-family="Times,serif" font-size="14.00">ListComp</text>
</g>
<!-- ast.Return object at 0x7cacfaf8e650&#45;&gt;ast.ListComp object at 0x7cace259e710 -->
<g id="edge14" class="edge">
<title>ast.Return object at 0x7cacfaf8e650&#45;&gt;ast.ListComp object at 0x7cace259e710</title>
<path fill="none" stroke="black" d="M295.71,-431.7C297.36,-423.98 299.35,-414.71 301.19,-406.11"/>
<polygon fill="black" stroke="black" points="304.66,-406.62 303.33,-396.1 297.82,-405.15 304.66,-406.62"/>
</g>
<!-- ast.Name object at 0x7cace259d450 -->
<g id="node16" class="node">
<title>ast.Name object at 0x7cace259d450</title>
<path fill="#66cdaa" stroke="black" d="M322,-324C322,-324 292,-324 292,-324 286,-324 280,-318 280,-312 280,-312 280,-300 280,-300 280,-294 286,-288 292,-288 292,-288 322,-288 322,-288 328,-288 334,-294 334,-300 334,-300 334,-312 334,-312 334,-318 328,-324 322,-324"/>
<text text-anchor="middle" x="307" y="-302.3" font-family="Times,serif" font-size="14.00">Name</text>
</g>
<!-- ast.ListComp object at 0x7cace259e710&#45;&gt;ast.Name object at 0x7cace259d450 -->
<g id="edge15" class="edge">
<title>ast.ListComp object at 0x7cace259e710&#45;&gt;ast.Name object at 0x7cace259d450</title>
<path fill="none" stroke="black" d="M307,-359.7C307,-351.98 307,-342.71 307,-334.11"/>
<polygon fill="black" stroke="black" points="310.5,-334.1 307,-324.1 303.5,-334.1 310.5,-334.1"/>
</g>
<!-- ast.comprehension object at 0x7cace2216790 -->
<g id="node17" class="node">
<title>ast.comprehension object at 0x7cace2216790</title>
<path fill="#66cdaa" stroke="black" d="M648,-324C648,-324 572,-324 572,-324 566,-324 560,-318 560,-312 560,-312 560,-300 560,-300 560,-294 566,-288 572,-288 572,-288 648,-288 648,-288 654,-288 660,-294 660,-300 660,-300 660,-312 660,-312 660,-318 654,-324 648,-324"/>
<text text-anchor="middle" x="610" y="-302.3" font-family="Times,serif" font-size="14.00">comprehension</text>
</g>
<!-- ast.ListComp object at 0x7cace259e710&#45;&gt;ast.comprehension object at 0x7cace2216790 -->
<g id="edge17" class="edge">
<title>ast.ListComp object at 0x7cace259e710&#45;&gt;ast.comprehension object at 0x7cace2216790</title>
<path fill="none" stroke="black" d="M342.65,-368.76C393.63,-356.99 488.01,-335.18 549.9,-320.89"/>
<polygon fill="black" stroke="black" points="550.96,-324.23 559.92,-318.57 549.39,-317.41 550.96,-324.23"/>
</g>
<!-- ast.Name object at 0x7cace259d450&#45;&gt;ast.Load object at 0x7cad0cfa9b10 -->
<g id="edge16" class="edge">
<title>ast.Name object at 0x7cace259d450&#45;&gt;ast.Load object at 0x7cad0cfa9b10</title>
<path fill="none" stroke="black" d="M303.14,-287.93C294.85,-246.7 279.62,-140.09 326,-72 342.33,-48.03 372.72,-34.47 397.12,-27.08"/>
<polygon fill="black" stroke="black" points="398.12,-30.43 406.8,-24.36 396.23,-23.69 398.12,-30.43"/>
</g>
<!-- ast.Name object at 0x7cace22bffd0 -->
<g id="node18" class="node">
<title>ast.Name object at 0x7cace22bffd0</title>
<path fill="#66cdaa" stroke="black" d="M682,-252C682,-252 652,-252 652,-252 646,-252 640,-246 640,-240 640,-240 640,-228 640,-228 640,-222 646,-216 652,-216 652,-216 682,-216 682,-216 688,-216 694,-222 694,-228 694,-228 694,-240 694,-240 694,-246 688,-252 682,-252"/>
<text text-anchor="middle" x="667" y="-230.3" font-family="Times,serif" font-size="14.00">Name</text>
</g>
<!-- ast.comprehension object at 0x7cace2216790&#45;&gt;ast.Name object at 0x7cace22bffd0 -->
<g id="edge18" class="edge">
<title>ast.comprehension object at 0x7cace2216790&#45;&gt;ast.Name object at 0x7cace22bffd0</title>
<path fill="none" stroke="black" d="M624.09,-287.7C630.92,-279.3 639.26,-269.07 646.76,-259.86"/>
<polygon fill="black" stroke="black" points="649.47,-262.07 653.07,-252.1 644.04,-257.65 649.47,-262.07"/>
</g>
<!-- ast.Subscript object at 0x7cace22be710 -->
<g id="node20" class="node">
<title>ast.Subscript object at 0x7cace22be710</title>
<path fill="#66cdaa" stroke="black" d="M799,-180C799,-180 755,-180 755,-180 749,-180 743,-174 743,-168 743,-168 743,-156 743,-156 743,-150 749,-144 755,-144 755,-144 799,-144 799,-144 805,-144 811,-150 811,-156 811,-156 811,-168 811,-168 811,-174 805,-180 799,-180"/>
<text text-anchor="middle" x="777" y="-158.3" font-family="Times,serif" font-size="14.00">Subscript</text>
</g>
<!-- ast.comprehension object at 0x7cace2216790&#45;&gt;ast.Subscript object at 0x7cace22be710 -->
<g id="edge20" class="edge">
<title>ast.comprehension object at 0x7cace2216790&#45;&gt;ast.Subscript object at 0x7cace22be710</title>
<path fill="none" stroke="black" d="M646.83,-287.91C664.76,-278.66 686.05,-266.21 703,-252 725.17,-233.42 745.81,-207.59 759.62,-188.54"/>
<polygon fill="black" stroke="black" points="762.53,-190.5 765.47,-180.32 756.82,-186.44 762.53,-190.5"/>
</g>
<!-- ast.BoolOp object at 0x7cace2205e90 -->
<g id="node25" class="node">
<title>ast.BoolOp object at 0x7cace2205e90</title>
<path fill="#66cdaa" stroke="black" d="M571.5,-252C571.5,-252 536.5,-252 536.5,-252 530.5,-252 524.5,-246 524.5,-240 524.5,-240 524.5,-228 524.5,-228 524.5,-222 530.5,-216 536.5,-216 536.5,-216 571.5,-216 571.5,-216 577.5,-216 583.5,-222 583.5,-228 583.5,-228 583.5,-240 583.5,-240 583.5,-246 577.5,-252 571.5,-252"/>
<text text-anchor="middle" x="554" y="-230.3" font-family="Times,serif" font-size="14.00">BoolOp</text>
</g>
<!-- ast.comprehension object at 0x7cace2216790&#45;&gt;ast.BoolOp object at 0x7cace2205e90 -->
<g id="edge27" class="edge">
<title>ast.comprehension object at 0x7cace2216790&#45;&gt;ast.BoolOp object at 0x7cace2205e90</title>
<path fill="none" stroke="black" d="M596.16,-287.7C589.51,-279.39 581.42,-269.28 574.11,-260.14"/>
<polygon fill="black" stroke="black" points="576.66,-257.73 567.68,-252.1 571.2,-262.1 576.66,-257.73"/>
</g>
<!-- ast.Store object at 0x7cad0cfa9b90 -->
<g id="node19" class="node">
<title>ast.Store object at 0x7cad0cfa9b90</title>
<path fill="#66cdaa" stroke="black" d="M702,-180C702,-180 672,-180 672,-180 666,-180 660,-174 660,-168 660,-168 660,-156 660,-156 660,-150 666,-144 672,-144 672,-144 702,-144 702,-144 708,-144 714,-150 714,-156 714,-156 714,-168 714,-168 714,-174 708,-180 702,-180"/>
<text text-anchor="middle" x="687" y="-158.3" font-family="Times,serif" font-size="14.00">Store</text>
</g>
<!-- ast.Name object at 0x7cace22bffd0&#45;&gt;ast.Store object at 0x7cad0cfa9b90 -->
<g id="edge19" class="edge">
<title>ast.Name object at 0x7cace22bffd0&#45;&gt;ast.Store object at 0x7cad0cfa9b90</title>
<path fill="none" stroke="black" d="M671.94,-215.7C674.17,-207.9 676.85,-198.51 679.33,-189.83"/>
<polygon fill="black" stroke="black" points="682.73,-190.68 682.11,-180.1 676,-188.76 682.73,-190.68"/>
</g>
<!-- ast.Subscript object at 0x7cace22be710&#45;&gt;ast.Load object at 0x7cad0cfa9b10 -->
<g id="edge26" class="edge">
<title>ast.Subscript object at 0x7cace22be710&#45;&gt;ast.Load object at 0x7cad0cfa9b10</title>
<path fill="none" stroke="black" d="M781.29,-143.81C785.14,-123.86 787.79,-91.23 770,-72 730.27,-29.04 550.69,-20.83 471.6,-19.32"/>
<polygon fill="black" stroke="black" points="471.19,-15.81 461.13,-19.14 471.07,-22.81 471.19,-15.81"/>
</g>
<!-- ast.Name object at 0x7cace22bf990 -->
<g id="node21" class="node">
<title>ast.Name object at 0x7cace22bf990</title>
<path fill="#66cdaa" stroke="black" d="M749,-108C749,-108 719,-108 719,-108 713,-108 707,-102 707,-96 707,-96 707,-84 707,-84 707,-78 713,-72 719,-72 719,-72 749,-72 749,-72 755,-72 761,-78 761,-84 761,-84 761,-96 761,-96 761,-102 755,-108 749,-108"/>
<text text-anchor="middle" x="734" y="-86.3" font-family="Times,serif" font-size="14.00">Name</text>
</g>
<!-- ast.Subscript object at 0x7cace22be710&#45;&gt;ast.Name object at 0x7cace22bf990 -->
<g id="edge21" class="edge">
<title>ast.Subscript object at 0x7cace22be710&#45;&gt;ast.Name object at 0x7cace22bf990</title>
<path fill="none" stroke="black" d="M766.37,-143.7C761.37,-135.56 755.31,-125.69 749.79,-116.7"/>
<polygon fill="black" stroke="black" points="752.72,-114.79 744.51,-108.1 746.76,-118.46 752.72,-114.79"/>
</g>
<!-- ast.Slice object at 0x7cace22a3e90 -->
<g id="node22" class="node">
<title>ast.Slice object at 0x7cace22a3e90</title>
<path fill="#66cdaa" stroke="black" d="M859,-108C859,-108 829,-108 829,-108 823,-108 817,-102 817,-96 817,-96 817,-84 817,-84 817,-78 823,-72 829,-72 829,-72 859,-72 859,-72 865,-72 871,-78 871,-84 871,-84 871,-96 871,-96 871,-102 865,-108 859,-108"/>
<text text-anchor="middle" x="844" y="-86.3" font-family="Times,serif" font-size="14.00">Slice</text>
</g>
<!-- ast.Subscript object at 0x7cace22be710&#45;&gt;ast.Slice object at 0x7cace22a3e90 -->
<g id="edge23" class="edge">
<title>ast.Subscript object at 0x7cace22be710&#45;&gt;ast.Slice object at 0x7cace22a3e90</title>
<path fill="none" stroke="black" d="M793.56,-143.7C801.68,-135.22 811.59,-124.86 820.47,-115.58"/>
<polygon fill="black" stroke="black" points="823.24,-117.75 827.63,-108.1 818.19,-112.91 823.24,-117.75"/>
</g>
<!-- ast.Name object at 0x7cace22bf990&#45;&gt;ast.Load object at 0x7cad0cfa9b10 -->
<g id="edge22" class="edge">
<title>ast.Name object at 0x7cace22bf990&#45;&gt;ast.Load object at 0x7cad0cfa9b10</title>
<path fill="none" stroke="black" d="M706.76,-75.3C703.85,-74.08 700.89,-72.96 698,-72 619.32,-45.96 523,-30.57 471.21,-23.56"/>
<polygon fill="black" stroke="black" points="471.54,-20.08 461.16,-22.24 470.62,-27.02 471.54,-20.08"/>
</g>
<!-- ast.Constant object at 0x7cace22a2a90 -->
<g id="node23" class="node">
<title>ast.Constant object at 0x7cace22a2a90</title>
<path fill="#66cdaa" stroke="black" d="M905.5,-36C905.5,-36 864.5,-36 864.5,-36 858.5,-36 852.5,-30 852.5,-24 852.5,-24 852.5,-12 852.5,-12 852.5,-6 858.5,0 864.5,0 864.5,0 905.5,0 905.5,0 911.5,0 917.5,-6 917.5,-12 917.5,-12 917.5,-24 917.5,-24 917.5,-30 911.5,-36 905.5,-36"/>
<text text-anchor="middle" x="885" y="-14.3" font-family="Times,serif" font-size="14.00">Constant</text>
</g>
<!-- ast.Slice object at 0x7cace22a3e90&#45;&gt;ast.Constant object at 0x7cace22a2a90 -->
<g id="edge24" class="edge">
<title>ast.Slice object at 0x7cace22a3e90&#45;&gt;ast.Constant object at 0x7cace22a2a90</title>
<path fill="none" stroke="black" d="M854.13,-71.7C858.85,-63.64 864.56,-53.89 869.78,-44.98"/>
<polygon fill="black" stroke="black" points="872.95,-46.5 874.98,-36.1 866.91,-42.96 872.95,-46.5"/>
</g>
<!-- ast.Constant object at 0x7cace22a1c90 -->
<g id="node24" class="node">
<title>ast.Constant object at 0x7cace22a1c90</title>
<path fill="#66cdaa" stroke="black" d="M822.5,-36C822.5,-36 781.5,-36 781.5,-36 775.5,-36 769.5,-30 769.5,-24 769.5,-24 769.5,-12 769.5,-12 769.5,-6 775.5,0 781.5,0 781.5,0 822.5,0 822.5,0 828.5,0 834.5,-6 834.5,-12 834.5,-12 834.5,-24 834.5,-24 834.5,-30 828.5,-36 822.5,-36"/>
<text text-anchor="middle" x="802" y="-14.3" font-family="Times,serif" font-size="14.00">Constant</text>
</g>
<!-- ast.Slice object at 0x7cace22a3e90&#45;&gt;ast.Constant object at 0x7cace22a1c90 -->
<g id="edge25" class="edge">
<title>ast.Slice object at 0x7cace22a3e90&#45;&gt;ast.Constant object at 0x7cace22a1c90</title>
<path fill="none" stroke="black" d="M833.62,-71.7C828.74,-63.56 822.81,-53.69 817.42,-44.7"/>
<polygon fill="black" stroke="black" points="820.41,-42.88 812.26,-36.1 814.41,-46.48 820.41,-42.88"/>
</g>
<!-- ast.And object at 0x7cad0cfa9dd0 -->
<g id="node26" class="node">
<title>ast.And object at 0x7cad0cfa9dd0</title>
<path fill="#66cdaa" stroke="black" d="M630,-180C630,-180 600,-180 600,-180 594,-180 588,-174 588,-168 588,-168 588,-156 588,-156 588,-150 594,-144 600,-144 600,-144 630,-144 630,-144 636,-144 642,-150 642,-156 642,-156 642,-168 642,-168 642,-174 636,-180 630,-180"/>
<text text-anchor="middle" x="615" y="-158.3" font-family="Times,serif" font-size="14.00">And</text>
</g>
<!-- ast.BoolOp object at 0x7cace2205e90&#45;&gt;ast.And object at 0x7cad0cfa9dd0 -->
<g id="edge28" class="edge">
<title>ast.BoolOp object at 0x7cace2205e90&#45;&gt;ast.And object at 0x7cad0cfa9dd0</title>
<path fill="none" stroke="black" d="M569.08,-215.7C576.39,-207.3 585.31,-197.07 593.34,-187.86"/>
<polygon fill="black" stroke="black" points="596.16,-189.94 600.09,-180.1 590.89,-185.34 596.16,-189.94"/>
</g>
<!-- ast.Call object at 0x7cace22a29d0 -->
<g id="node27" class="node">
<title>ast.Call object at 0x7cace22a29d0</title>
<path fill="#66cdaa" stroke="black" d="M449,-180C449,-180 419,-180 419,-180 413,-180 407,-174 407,-168 407,-168 407,-156 407,-156 407,-150 413,-144 419,-144 419,-144 449,-144 449,-144 455,-144 461,-150 461,-156 461,-156 461,-168 461,-168 461,-174 455,-180 449,-180"/>
<text text-anchor="middle" x="434" y="-158.3" font-family="Times,serif" font-size="14.00">Call</text>
</g>
<!-- ast.BoolOp object at 0x7cace2205e90&#45;&gt;ast.Call object at 0x7cace22a29d0 -->
<g id="edge29" class="edge">
<title>ast.BoolOp object at 0x7cace2205e90&#45;&gt;ast.Call object at 0x7cace22a29d0</title>
<path fill="none" stroke="black" d="M524.64,-215.88C508.1,-206.23 487.31,-194.1 469.81,-183.89"/>
<polygon fill="black" stroke="black" points="471.4,-180.77 461,-178.75 467.87,-186.81 471.4,-180.77"/>
</g>
<!-- ast.Compare object at 0x7cace22a3610 -->
<g id="node30" class="node">
<title>ast.Compare object at 0x7cace22a3610</title>
<path fill="#66cdaa" stroke="black" d="M557.5,-180C557.5,-180 514.5,-180 514.5,-180 508.5,-180 502.5,-174 502.5,-168 502.5,-168 502.5,-156 502.5,-156 502.5,-150 508.5,-144 514.5,-144 514.5,-144 557.5,-144 557.5,-144 563.5,-144 569.5,-150 569.5,-156 569.5,-156 569.5,-168 569.5,-168 569.5,-174 563.5,-180 557.5,-180"/>
<text text-anchor="middle" x="536" y="-158.3" font-family="Times,serif" font-size="14.00">Compare</text>
</g>
<!-- ast.BoolOp object at 0x7cace2205e90&#45;&gt;ast.Compare object at 0x7cace22a3610 -->
<g id="edge34" class="edge">
<title>ast.BoolOp object at 0x7cace2205e90&#45;&gt;ast.Compare object at 0x7cace22a3610</title>
<path fill="none" stroke="black" d="M549.55,-215.7C547.55,-207.9 545.13,-198.51 542.9,-189.83"/>
<polygon fill="black" stroke="black" points="546.28,-188.92 540.4,-180.1 539.5,-190.66 546.28,-188.92"/>
</g>
<!-- ast.Name object at 0x7cace22a0e10 -->
<g id="node28" class="node">
<title>ast.Name object at 0x7cace22a0e10</title>
<path fill="#66cdaa" stroke="black" d="M377,-108C377,-108 347,-108 347,-108 341,-108 335,-102 335,-96 335,-96 335,-84 335,-84 335,-78 341,-72 347,-72 347,-72 377,-72 377,-72 383,-72 389,-78 389,-84 389,-84 389,-96 389,-96 389,-102 383,-108 377,-108"/>
<text text-anchor="middle" x="362" y="-86.3" font-family="Times,serif" font-size="14.00">Name</text>
</g>
<!-- ast.Call object at 0x7cace22a29d0&#45;&gt;ast.Name object at 0x7cace22a0e10 -->
<g id="edge30" class="edge">
<title>ast.Call object at 0x7cace22a29d0&#45;&gt;ast.Name object at 0x7cace22a0e10</title>
<path fill="none" stroke="black" d="M416.2,-143.7C407.4,-135.14 396.62,-124.66 387,-115.3"/>
<polygon fill="black" stroke="black" points="389.2,-112.57 379.59,-108.1 384.32,-117.58 389.2,-112.57"/>
</g>
<!-- ast.Name object at 0x7cace22a2850 -->
<g id="node29" class="node">
<title>ast.Name object at 0x7cace22a2850</title>
<path fill="#66cdaa" stroke="black" d="M449,-108C449,-108 419,-108 419,-108 413,-108 407,-102 407,-96 407,-96 407,-84 407,-84 407,-78 413,-72 419,-72 419,-72 449,-72 449,-72 455,-72 461,-78 461,-84 461,-84 461,-96 461,-96 461,-102 455,-108 449,-108"/>
<text text-anchor="middle" x="434" y="-86.3" font-family="Times,serif" font-size="14.00">Name</text>
</g>
<!-- ast.Call object at 0x7cace22a29d0&#45;&gt;ast.Name object at 0x7cace22a2850 -->
<g id="edge32" class="edge">
<title>ast.Call object at 0x7cace22a29d0&#45;&gt;ast.Name object at 0x7cace22a2850</title>
<path fill="none" stroke="black" d="M434,-143.7C434,-135.98 434,-126.71 434,-118.11"/>
<polygon fill="black" stroke="black" points="437.5,-118.1 434,-108.1 430.5,-118.1 437.5,-118.1"/>
</g>
<!-- ast.Name object at 0x7cace22a0e10&#45;&gt;ast.Load object at 0x7cad0cfa9b10 -->
<g id="edge31" class="edge">
<title>ast.Name object at 0x7cace22a0e10&#45;&gt;ast.Load object at 0x7cad0cfa9b10</title>
<path fill="none" stroke="black" d="M379.8,-71.7C388.6,-63.14 399.38,-52.66 409,-43.3"/>
<polygon fill="black" stroke="black" points="411.68,-45.58 416.41,-36.1 406.8,-40.57 411.68,-45.58"/>
</g>
<!-- ast.Name object at 0x7cace22a2850&#45;&gt;ast.Load object at 0x7cad0cfa9b10 -->
<g id="edge33" class="edge">
<title>ast.Name object at 0x7cace22a2850&#45;&gt;ast.Load object at 0x7cad0cfa9b10</title>
<path fill="none" stroke="black" d="M434,-71.7C434,-63.98 434,-54.71 434,-46.11"/>
<polygon fill="black" stroke="black" points="437.5,-46.1 434,-36.1 430.5,-46.1 437.5,-46.1"/>
</g>
<!-- ast.Name object at 0x7cace22a2bd0 -->
<g id="node31" class="node">
<title>ast.Name object at 0x7cace22a2bd0</title>
<path fill="#66cdaa" stroke="black" d="M677,-108C677,-108 647,-108 647,-108 641,-108 635,-102 635,-96 635,-96 635,-84 635,-84 635,-78 641,-72 647,-72 647,-72 677,-72 677,-72 683,-72 689,-78 689,-84 689,-84 689,-96 689,-96 689,-102 683,-108 677,-108"/>
<text text-anchor="middle" x="662" y="-86.3" font-family="Times,serif" font-size="14.00">Name</text>
</g>
<!-- ast.Compare object at 0x7cace22a3610&#45;&gt;ast.Name object at 0x7cace22a2bd0 -->
<g id="edge35" class="edge">
<title>ast.Compare object at 0x7cace22a3610&#45;&gt;ast.Name object at 0x7cace22a2bd0</title>
<path fill="none" stroke="black" d="M566.82,-143.88C584.73,-133.93 607.38,-121.35 626.09,-110.95"/>
<polygon fill="black" stroke="black" points="627.88,-113.96 634.92,-106.05 624.48,-107.84 627.88,-113.96"/>
</g>
<!-- ast.Gt object at 0x7cad0cfaad10 -->
<g id="node32" class="node">
<title>ast.Gt object at 0x7cad0cfaad10</title>
<path fill="#66cdaa" stroke="black" d="M521,-108C521,-108 491,-108 491,-108 485,-108 479,-102 479,-96 479,-96 479,-84 479,-84 479,-78 485,-72 491,-72 491,-72 521,-72 521,-72 527,-72 533,-78 533,-84 533,-84 533,-96 533,-96 533,-102 527,-108 521,-108"/>
<text text-anchor="middle" x="506" y="-86.3" font-family="Times,serif" font-size="14.00">Gt</text>
</g>
<!-- ast.Compare object at 0x7cace22a3610&#45;&gt;ast.Gt object at 0x7cad0cfaad10 -->
<g id="edge37" class="edge">
<title>ast.Compare object at 0x7cace22a3610&#45;&gt;ast.Gt object at 0x7cad0cfaad10</title>
<path fill="none" stroke="black" d="M528.58,-143.7C525.21,-135.81 521.13,-126.3 517.38,-117.55"/>
<polygon fill="black" stroke="black" points="520.49,-115.92 513.33,-108.1 514.05,-118.67 520.49,-115.92"/>
</g>
<!-- ast.Constant object at 0x7cace22a2d50 -->
<g id="node33" class="node">
<title>ast.Constant object at 0x7cace22a2d50</title>
<path fill="#66cdaa" stroke="black" d="M604.5,-108C604.5,-108 563.5,-108 563.5,-108 557.5,-108 551.5,-102 551.5,-96 551.5,-96 551.5,-84 551.5,-84 551.5,-78 557.5,-72 563.5,-72 563.5,-72 604.5,-72 604.5,-72 610.5,-72 616.5,-78 616.5,-84 616.5,-84 616.5,-96 616.5,-96 616.5,-102 610.5,-108 604.5,-108"/>
<text text-anchor="middle" x="584" y="-86.3" font-family="Times,serif" font-size="14.00">Constant</text>
</g>
<!-- ast.Compare object at 0x7cace22a3610&#45;&gt;ast.Constant object at 0x7cace22a2d50 -->
<g id="edge38" class="edge">
<title>ast.Compare object at 0x7cace22a3610&#45;&gt;ast.Constant object at 0x7cace22a2d50</title>
<path fill="none" stroke="black" d="M547.87,-143.7C553.5,-135.47 560.35,-125.48 566.57,-116.42"/>
<polygon fill="black" stroke="black" points="569.5,-118.33 572.27,-108.1 563.73,-114.37 569.5,-118.33"/>
</g>
<!-- ast.Name object at 0x7cace22a2bd0&#45;&gt;ast.Load object at 0x7cad0cfa9b10 -->
<g id="edge36" class="edge">
<title>ast.Name object at 0x7cace22a2bd0&#45;&gt;ast.Load object at 0x7cad0cfa9b10</title>
<path fill="none" stroke="black" d="M634.69,-75.51C631.79,-74.25 628.85,-73.06 626,-72 573.32,-52.46 510.17,-36.37 471.06,-27.23"/>
<polygon fill="black" stroke="black" points="471.7,-23.78 461.17,-24.94 470.13,-30.6 471.7,-23.78"/>
</g>
</g>
</svg>
