<?xml version="1.0" encoding="UTF-8" standalone="no"?>
<!DOCTYPE svg PUBLIC "-//W3C//DTD SVG 1.1//EN"
 "http://www.w3.org/Graphics/SVG/1.1/DTD/svg11.dtd">
<!-- Generated by graphviz version 2.50.0 (0)
 -->
<!-- Pages: 1 -->
<svg width="1087pt" height="620pt"
 viewBox="0.00 0.00 1087.35 620.00" xmlns="http://www.w3.org/2000/svg" xmlns:xlink="http://www.w3.org/1999/xlink">
<g id="graph0" class="graph" transform="scale(1 1) rotate(0) translate(4 616)">
<polygon fill="white" stroke="transparent" points="-4,4 -4,-616 1083.35,-616 1083.35,4 -4,4"/>
<!-- ast.Module object at 0x71b872b59410 -->
<g id="node1" class="node">
<title>ast.Module object at 0x71b872b59410</title>
<path fill="#66cdaa" stroke="black" d="M205.5,-612C205.5,-612 170.5,-612 170.5,-612 164.5,-612 158.5,-606 158.5,-600 158.5,-600 158.5,-588 158.5,-588 158.5,-582 164.5,-576 170.5,-576 170.5,-576 205.5,-576 205.5,-576 211.5,-576 217.5,-582 217.5,-588 217.5,-588 217.5,-600 217.5,-600 217.5,-606 211.5,-612 205.5,-612"/>
<text text-anchor="middle" x="188" y="-590.3" font-family="Times,serif" font-size="14.00">Module</text>
</g>
<!-- ast.FunctionDef object at 0x71b872b5ad50 -->
<g id="node2" class="node">
<title>ast.FunctionDef object at 0x71b872b5ad50</title>
<path fill="#66cdaa" stroke="black" d="M218.5,-540C218.5,-540 157.5,-540 157.5,-540 151.5,-540 145.5,-534 145.5,-528 145.5,-528 145.5,-516 145.5,-516 145.5,-510 151.5,-504 157.5,-504 157.5,-504 218.5,-504 218.5,-504 224.5,-504 230.5,-510 230.5,-516 230.5,-516 230.5,-528 230.5,-528 230.5,-534 224.5,-540 218.5,-540"/>
<text text-anchor="middle" x="188" y="-518.3" font-family="Times,serif" font-size="14.00">FunctionDef</text>
</g>
<!-- ast.Module object at 0x71b872b59410&#45;&gt;ast.FunctionDef object at 0x71b872b5ad50 -->
<g id="edge1" class="edge">
<title>ast.Module object at 0x71b872b59410&#45;&gt;ast.FunctionDef object at 0x71b872b5ad50</title>
<path fill="none" stroke="black" d="M188,-575.7C188,-567.98 188,-558.71 188,-550.11"/>
<polygon fill="black" stroke="black" points="191.5,-550.1 188,-540.1 184.5,-550.1 191.5,-550.1"/>
</g>
<!-- ast.arguments object at 0x71b872b5a150 -->
<g id="node3" class="node">
<title>ast.arguments object at 0x71b872b5a150</title>
<path fill="#66cdaa" stroke="black" d="M62,-468C62,-468 12,-468 12,-468 6,-468 0,-462 0,-456 0,-456 0,-444 0,-444 0,-438 6,-432 12,-432 12,-432 62,-432 62,-432 68,-432 74,-438 74,-444 74,-444 74,-456 74,-456 74,-462 68,-468 62,-468"/>
<text text-anchor="middle" x="37" y="-446.3" font-family="Times,serif" font-size="14.00">arguments</text>
</g>
<!-- ast.FunctionDef object at 0x71b872b5ad50&#45;&gt;ast.arguments object at 0x71b872b5a150 -->
<g id="edge2" class="edge">
<title>ast.FunctionDef object at 0x71b872b5ad50&#45;&gt;ast.arguments object at 0x71b872b5a150</title>
<path fill="none" stroke="black" d="M151.06,-503.88C130.51,-494.35 104.75,-482.41 82.91,-472.28"/>
<polygon fill="black" stroke="black" points="84.36,-469.1 73.82,-468.07 81.42,-475.45 84.36,-469.1"/>
</g>
<!-- ast.Expr object at 0x71b872b596d0 -->
<g id="node5" class="node">
<title>ast.Expr object at 0x71b872b596d0</title>
<path fill="#66cdaa" stroke="black" d="M143,-468C143,-468 113,-468 113,-468 107,-468 101,-462 101,-456 101,-456 101,-444 101,-444 101,-438 107,-432 113,-432 113,-432 143,-432 143,-432 149,-432 155,-438 155,-444 155,-444 155,-456 155,-456 155,-462 149,-468 143,-468"/>
<text text-anchor="middle" x="128" y="-446.3" font-family="Times,serif" font-size="14.00">Expr</text>
</g>
<!-- ast.FunctionDef object at 0x71b872b5ad50&#45;&gt;ast.Expr object at 0x71b872b596d0 -->
<g id="edge4" class="edge">
<title>ast.FunctionDef object at 0x71b872b5ad50&#45;&gt;ast.Expr object at 0x71b872b596d0</title>
<path fill="none" stroke="black" d="M173.17,-503.7C165.98,-495.3 157.2,-485.07 149.31,-475.86"/>
<polygon fill="black" stroke="black" points="151.83,-473.42 142.66,-468.1 146.51,-477.97 151.83,-473.42"/>
</g>
<!-- ast.Assign object at 0x71b872b59810 -->
<g id="node7" class="node">
<title>ast.Assign object at 0x71b872b59810</title>
<path fill="#66cdaa" stroke="black" d="M203,-396C203,-396 173,-396 173,-396 167,-396 161,-390 161,-384 161,-384 161,-372 161,-372 161,-366 167,-360 173,-360 173,-360 203,-360 203,-360 209,-360 215,-366 215,-372 215,-372 215,-384 215,-384 215,-390 209,-396 203,-396"/>
<text text-anchor="middle" x="188" y="-374.3" font-family="Times,serif" font-size="14.00">Assign</text>
</g>
<!-- ast.FunctionDef object at 0x71b872b5ad50&#45;&gt;ast.Assign object at 0x71b872b59810 -->
<g id="edge6" class="edge">
<title>ast.FunctionDef object at 0x71b872b5ad50&#45;&gt;ast.Assign object at 0x71b872b59810</title>
<path fill="none" stroke="black" d="M188,-503.87C188,-479.67 188,-435.21 188,-406.39"/>
<polygon fill="black" stroke="black" points="191.5,-406.19 188,-396.19 184.5,-406.19 191.5,-406.19"/>
</g>
<!-- ast.For object at 0x71b872b59950 -->
<g id="node12" class="node">
<title>ast.For object at 0x71b872b59950</title>
<path fill="#66cdaa" stroke="black" d="M339,-468C339,-468 309,-468 309,-468 303,-468 297,-462 297,-456 297,-456 297,-444 297,-444 297,-438 303,-432 309,-432 309,-432 339,-432 339,-432 345,-432 351,-438 351,-444 351,-444 351,-456 351,-456 351,-462 345,-468 339,-468"/>
<text text-anchor="middle" x="324" y="-446.3" font-family="Times,serif" font-size="14.00">For</text>
</g>
<!-- ast.FunctionDef object at 0x71b872b5ad50&#45;&gt;ast.For object at 0x71b872b59950 -->
<g id="edge11" class="edge">
<title>ast.FunctionDef object at 0x71b872b5ad50&#45;&gt;ast.For object at 0x71b872b59950</title>
<path fill="none" stroke="black" d="M221.27,-503.88C241.32,-493.56 266.87,-480.4 287.48,-469.8"/>
<polygon fill="black" stroke="black" points="289.27,-472.81 296.56,-465.12 286.07,-466.59 289.27,-472.81"/>
</g>
<!-- ast.Return object at 0x71b872b5a8d0 -->
<g id="node42" class="node">
<title>ast.Return object at 0x71b872b5a8d0</title>
<path fill="#66cdaa" stroke="black" d="M584,-468C584,-468 554,-468 554,-468 548,-468 542,-462 542,-456 542,-456 542,-444 542,-444 542,-438 548,-432 554,-432 554,-432 584,-432 584,-432 590,-432 596,-438 596,-444 596,-444 596,-456 596,-456 596,-462 590,-468 584,-468"/>
<text text-anchor="middle" x="569" y="-446.3" font-family="Times,serif" font-size="14.00">Return</text>
</g>
<!-- ast.FunctionDef object at 0x71b872b5ad50&#45;&gt;ast.Return object at 0x71b872b5a8d0 -->
<g id="edge52" class="edge">
<title>ast.FunctionDef object at 0x71b872b5ad50&#45;&gt;ast.Return object at 0x71b872b5a8d0</title>
<path fill="none" stroke="black" d="M230.6,-513.17C305.74,-499.37 460.6,-470.92 531.76,-457.84"/>
<polygon fill="black" stroke="black" points="532.43,-461.28 541.63,-456.03 531.16,-454.39 532.43,-461.28"/>
</g>
<!-- ast.arg object at 0x71b872b5a210 -->
<g id="node4" class="node">
<title>ast.arg object at 0x71b872b5a210</title>
<path fill="#66cdaa" stroke="black" d="M47,-396C47,-396 17,-396 17,-396 11,-396 5,-390 5,-384 5,-384 5,-372 5,-372 5,-366 11,-360 17,-360 17,-360 47,-360 47,-360 53,-360 59,-366 59,-372 59,-372 59,-384 59,-384 59,-390 53,-396 47,-396"/>
<text text-anchor="middle" x="32" y="-374.3" font-family="Times,serif" font-size="14.00">arg</text>
</g>
<!-- ast.arguments object at 0x71b872b5a150&#45;&gt;ast.arg object at 0x71b872b5a210 -->
<g id="edge3" class="edge">
<title>ast.arguments object at 0x71b872b5a150&#45;&gt;ast.arg object at 0x71b872b5a210</title>
<path fill="none" stroke="black" d="M35.76,-431.7C35.21,-423.98 34.55,-414.71 33.94,-406.11"/>
<polygon fill="black" stroke="black" points="37.43,-405.83 33.22,-396.1 30.44,-406.33 37.43,-405.83"/>
</g>
<!-- ast.Constant object at 0x71b872b59750 -->
<g id="node6" class="node">
<title>ast.Constant object at 0x71b872b59750</title>
<path fill="#66cdaa" stroke="black" d="M130.5,-396C130.5,-396 89.5,-396 89.5,-396 83.5,-396 77.5,-390 77.5,-384 77.5,-384 77.5,-372 77.5,-372 77.5,-366 83.5,-360 89.5,-360 89.5,-360 130.5,-360 130.5,-360 136.5,-360 142.5,-366 142.5,-372 142.5,-372 142.5,-384 142.5,-384 142.5,-390 136.5,-396 130.5,-396"/>
<text text-anchor="middle" x="110" y="-374.3" font-family="Times,serif" font-size="14.00">Constant</text>
</g>
<!-- ast.Expr object at 0x71b872b596d0&#45;&gt;ast.Constant object at 0x71b872b59750 -->
<g id="edge5" class="edge">
<title>ast.Expr object at 0x71b872b596d0&#45;&gt;ast.Constant object at 0x71b872b59750</title>
<path fill="none" stroke="black" d="M123.55,-431.7C121.55,-423.9 119.13,-414.51 116.9,-405.83"/>
<polygon fill="black" stroke="black" points="120.28,-404.92 114.4,-396.1 113.5,-406.66 120.28,-404.92"/>
</g>
<!-- ast.Name object at 0x71b872b598d0 -->
<g id="node8" class="node">
<title>ast.Name object at 0x71b872b598d0</title>
<path fill="#66cdaa" stroke="black" d="M148,-324C148,-324 118,-324 118,-324 112,-324 106,-318 106,-312 106,-312 106,-300 106,-300 106,-294 112,-288 118,-288 118,-288 148,-288 148,-288 154,-288 160,-294 160,-300 160,-300 160,-312 160,-312 160,-318 154,-324 148,-324"/>
<text text-anchor="middle" x="133" y="-302.3" font-family="Times,serif" font-size="14.00">Name</text>
</g>
<!-- ast.Assign object at 0x71b872b59810&#45;&gt;ast.Name object at 0x71b872b598d0 -->
<g id="edge7" class="edge">
<title>ast.Assign object at 0x71b872b59810&#45;&gt;ast.Name object at 0x71b872b598d0</title>
<path fill="none" stroke="black" d="M174.4,-359.7C167.88,-351.39 159.93,-341.28 152.75,-332.14"/>
<polygon fill="black" stroke="black" points="155.37,-329.81 146.44,-324.1 149.87,-334.13 155.37,-329.81"/>
</g>
<!-- ast.List object at 0x71b872b59910 -->
<g id="node10" class="node">
<title>ast.List object at 0x71b872b59910</title>
<path fill="#66cdaa" stroke="black" d="M76,-324C76,-324 46,-324 46,-324 40,-324 34,-318 34,-312 34,-312 34,-300 34,-300 34,-294 40,-288 46,-288 46,-288 76,-288 76,-288 82,-288 88,-294 88,-300 88,-300 88,-312 88,-312 88,-318 82,-324 76,-324"/>
<text text-anchor="middle" x="61" y="-302.3" font-family="Times,serif" font-size="14.00">List</text>
</g>
<!-- ast.Assign object at 0x71b872b59810&#45;&gt;ast.List object at 0x71b872b59910 -->
<g id="edge9" class="edge">
<title>ast.Assign object at 0x71b872b59810&#45;&gt;ast.List object at 0x71b872b59910</title>
<path fill="none" stroke="black" d="M160.76,-361.98C142.17,-351.74 117.36,-338.07 97.13,-326.92"/>
<polygon fill="black" stroke="black" points="98.65,-323.75 88.2,-321.99 95.27,-329.88 98.65,-323.75"/>
</g>
<!-- ast.Store object at 0x71b8727c1510 -->
<g id="node9" class="node">
<title>ast.Store object at 0x71b8727c1510</title>
<path fill="#66cdaa" stroke="black" d="M231,-252C231,-252 201,-252 201,-252 195,-252 189,-246 189,-240 189,-240 189,-228 189,-228 189,-222 195,-216 201,-216 201,-216 231,-216 231,-216 237,-216 243,-222 243,-228 243,-228 243,-240 243,-240 243,-246 237,-252 231,-252"/>
<text text-anchor="middle" x="216" y="-230.3" font-family="Times,serif" font-size="14.00">Store</text>
</g>
<!-- ast.Name object at 0x71b872b598d0&#45;&gt;ast.Store object at 0x71b8727c1510 -->
<g id="edge8" class="edge">
<title>ast.Name object at 0x71b872b598d0&#45;&gt;ast.Store object at 0x71b8727c1510</title>
<path fill="none" stroke="black" d="M153.52,-287.7C163.87,-278.97 176.59,-268.24 187.84,-258.75"/>
<polygon fill="black" stroke="black" points="190.33,-261.23 195.72,-252.1 185.82,-255.88 190.33,-261.23"/>
</g>
<!-- ast.Load object at 0x71b8727c1490 -->
<g id="node11" class="node">
<title>ast.Load object at 0x71b8727c1490</title>
<path fill="#66cdaa" stroke="black" d="M603,-36C603,-36 573,-36 573,-36 567,-36 561,-30 561,-24 561,-24 561,-12 561,-12 561,-6 567,0 573,0 573,0 603,0 603,0 609,0 615,-6 615,-12 615,-12 615,-24 615,-24 615,-30 609,-36 603,-36"/>
<text text-anchor="middle" x="588" y="-14.3" font-family="Times,serif" font-size="14.00">Load</text>
</g>
<!-- ast.List object at 0x71b872b59910&#45;&gt;ast.Load object at 0x71b8727c1490 -->
<g id="edge10" class="edge">
<title>ast.List object at 0x71b872b59910&#45;&gt;ast.Load object at 0x71b8727c1490</title>
<path fill="none" stroke="black" d="M69.59,-287.94C92.82,-243.82 161.49,-125.63 256,-72 305.94,-43.66 475.21,-27.58 550.9,-21.65"/>
<polygon fill="black" stroke="black" points="551.23,-25.13 560.94,-20.88 550.7,-18.15 551.23,-25.13"/>
</g>
<!-- ast.Tuple object at 0x71b872b59990 -->
<g id="node13" class="node">
<title>ast.Tuple object at 0x71b872b59990</title>
<path fill="#66cdaa" stroke="black" d="M294,-396C294,-396 264,-396 264,-396 258,-396 252,-390 252,-384 252,-384 252,-372 252,-372 252,-366 258,-360 264,-360 264,-360 294,-360 294,-360 300,-360 306,-366 306,-372 306,-372 306,-384 306,-384 306,-390 300,-396 294,-396"/>
<text text-anchor="middle" x="279" y="-374.3" font-family="Times,serif" font-size="14.00">Tuple</text>
</g>
<!-- ast.For object at 0x71b872b59950&#45;&gt;ast.Tuple object at 0x71b872b59990 -->
<g id="edge12" class="edge">
<title>ast.For object at 0x71b872b59950&#45;&gt;ast.Tuple object at 0x71b872b59990</title>
<path fill="none" stroke="black" d="M312.88,-431.7C307.64,-423.56 301.3,-413.69 295.52,-404.7"/>
<polygon fill="black" stroke="black" points="298.35,-402.62 290,-396.1 292.46,-406.41 298.35,-402.62"/>
</g>
<!-- ast.Call object at 0x71b872b59a90 -->
<g id="node16" class="node">
<title>ast.Call object at 0x71b872b59a90</title>
<path fill="#66cdaa" stroke="black" d="M300,-180C300,-180 270,-180 270,-180 264,-180 258,-174 258,-168 258,-168 258,-156 258,-156 258,-150 264,-144 270,-144 270,-144 300,-144 300,-144 306,-144 312,-150 312,-156 312,-156 312,-168 312,-168 312,-174 306,-180 300,-180"/>
<text text-anchor="middle" x="285" y="-158.3" font-family="Times,serif" font-size="14.00">Call</text>
</g>
<!-- ast.For object at 0x71b872b59950&#45;&gt;ast.Call object at 0x71b872b59a90 -->
<g id="edge18" class="edge">
<title>ast.For object at 0x71b872b59950&#45;&gt;ast.Call object at 0x71b872b59a90</title>
<path fill="none" stroke="black" d="M331.42,-431.9C343.25,-402.3 363.82,-339.72 351,-288 341.8,-250.87 319.34,-212.62 303.17,-188.37"/>
<polygon fill="black" stroke="black" points="306.06,-186.4 297.54,-180.1 300.28,-190.34 306.06,-186.4"/>
</g>
<!-- ast.If object at 0x71b872b5b610 -->
<g id="node19" class="node">
<title>ast.If object at 0x71b872b5b610</title>
<path fill="#66cdaa" stroke="black" d="M562,-396C562,-396 532,-396 532,-396 526,-396 520,-390 520,-384 520,-384 520,-372 520,-372 520,-366 526,-360 532,-360 532,-360 562,-360 562,-360 568,-360 574,-366 574,-372 574,-372 574,-384 574,-384 574,-390 568,-396 562,-396"/>
<text text-anchor="middle" x="547" y="-374.3" font-family="Times,serif" font-size="14.00">If</text>
</g>
<!-- ast.For object at 0x71b872b59950&#45;&gt;ast.If object at 0x71b872b5b610 -->
<g id="edge23" class="edge">
<title>ast.For object at 0x71b872b59950&#45;&gt;ast.If object at 0x71b872b5b610</title>
<path fill="none" stroke="black" d="M351.34,-440.42C391.24,-427.89 465.51,-404.58 510.18,-390.56"/>
<polygon fill="black" stroke="black" points="511.29,-393.88 519.78,-387.54 509.19,-387.2 511.29,-393.88"/>
</g>
<!-- ast.Tuple object at 0x71b872b59990&#45;&gt;ast.Store object at 0x71b8727c1510 -->
<g id="edge17" class="edge">
<title>ast.Tuple object at 0x71b872b59990&#45;&gt;ast.Store object at 0x71b8727c1510</title>
<path fill="none" stroke="black" d="M251.92,-365.01C235.67,-356.21 216.38,-342.56 207,-324 197.24,-304.71 200.76,-280.08 206,-261.62"/>
<polygon fill="black" stroke="black" points="209.34,-262.66 209.01,-252.07 202.67,-260.56 209.34,-262.66"/>
</g>
<!-- ast.Name object at 0x71b872b599d0 -->
<g id="node14" class="node">
<title>ast.Name object at 0x71b872b599d0</title>
<path fill="#66cdaa" stroke="black" d="M258,-324C258,-324 228,-324 228,-324 222,-324 216,-318 216,-312 216,-312 216,-300 216,-300 216,-294 222,-288 228,-288 228,-288 258,-288 258,-288 264,-288 270,-294 270,-300 270,-300 270,-312 270,-312 270,-318 264,-324 258,-324"/>
<text text-anchor="middle" x="243" y="-302.3" font-family="Times,serif" font-size="14.00">Name</text>
</g>
<!-- ast.Tuple object at 0x71b872b59990&#45;&gt;ast.Name object at 0x71b872b599d0 -->
<g id="edge13" class="edge">
<title>ast.Tuple object at 0x71b872b59990&#45;&gt;ast.Name object at 0x71b872b599d0</title>
<path fill="none" stroke="black" d="M270.1,-359.7C266,-351.73 261.05,-342.1 256.51,-333.26"/>
<polygon fill="black" stroke="black" points="259.48,-331.4 251.8,-324.1 253.26,-334.6 259.48,-331.4"/>
</g>
<!-- ast.Name object at 0x71b872b59a50 -->
<g id="node15" class="node">
<title>ast.Name object at 0x71b872b59a50</title>
<path fill="#66cdaa" stroke="black" d="M330,-324C330,-324 300,-324 300,-324 294,-324 288,-318 288,-312 288,-312 288,-300 288,-300 288,-294 294,-288 300,-288 300,-288 330,-288 330,-288 336,-288 342,-294 342,-300 342,-300 342,-312 342,-312 342,-318 336,-324 330,-324"/>
<text text-anchor="middle" x="315" y="-302.3" font-family="Times,serif" font-size="14.00">Name</text>
</g>
<!-- ast.Tuple object at 0x71b872b59990&#45;&gt;ast.Name object at 0x71b872b59a50 -->
<g id="edge15" class="edge">
<title>ast.Tuple object at 0x71b872b59990&#45;&gt;ast.Name object at 0x71b872b59a50</title>
<path fill="none" stroke="black" d="M287.9,-359.7C292,-351.73 296.95,-342.1 301.49,-333.26"/>
<polygon fill="black" stroke="black" points="304.74,-334.6 306.2,-324.1 298.52,-331.4 304.74,-334.6"/>
</g>
<!-- ast.Name object at 0x71b872b599d0&#45;&gt;ast.Store object at 0x71b8727c1510 -->
<g id="edge14" class="edge">
<title>ast.Name object at 0x71b872b599d0&#45;&gt;ast.Store object at 0x71b8727c1510</title>
<path fill="none" stroke="black" d="M236.33,-287.7C233.29,-279.81 229.62,-270.3 226.24,-261.55"/>
<polygon fill="black" stroke="black" points="229.46,-260.17 222.6,-252.1 222.93,-262.69 229.46,-260.17"/>
</g>
<!-- ast.Name object at 0x71b872b59a50&#45;&gt;ast.Store object at 0x71b8727c1510 -->
<g id="edge16" class="edge">
<title>ast.Name object at 0x71b872b59a50&#45;&gt;ast.Store object at 0x71b8727c1510</title>
<path fill="none" stroke="black" d="M290.78,-287.88C278.08,-278.89 262.34,-267.76 248.58,-258.03"/>
<polygon fill="black" stroke="black" points="250.5,-255.11 240.31,-252.19 246.46,-260.82 250.5,-255.11"/>
</g>
<!-- ast.Name object at 0x71b872b59b10 -->
<g id="node17" class="node">
<title>ast.Name object at 0x71b872b59b10</title>
<path fill="#66cdaa" stroke="black" d="M307,-108C307,-108 277,-108 277,-108 271,-108 265,-102 265,-96 265,-96 265,-84 265,-84 265,-78 271,-72 277,-72 277,-72 307,-72 307,-72 313,-72 319,-78 319,-84 319,-84 319,-96 319,-96 319,-102 313,-108 307,-108"/>
<text text-anchor="middle" x="292" y="-86.3" font-family="Times,serif" font-size="14.00">Name</text>
</g>
<!-- ast.Call object at 0x71b872b59a90&#45;&gt;ast.Name object at 0x71b872b59b10 -->
<g id="edge19" class="edge">
<title>ast.Call object at 0x71b872b59a90&#45;&gt;ast.Name object at 0x71b872b59b10</title>
<path fill="none" stroke="black" d="M286.73,-143.7C287.5,-135.98 288.43,-126.71 289.29,-118.11"/>
<polygon fill="black" stroke="black" points="292.78,-118.4 290.29,-108.1 285.81,-117.71 292.78,-118.4"/>
</g>
<!-- ast.Name object at 0x71b872b5a450 -->
<g id="node18" class="node">
<title>ast.Name object at 0x71b872b5a450</title>
<path fill="#66cdaa" stroke="black" d="M395,-108C395,-108 365,-108 365,-108 359,-108 353,-102 353,-96 353,-96 353,-84 353,-84 353,-78 359,-72 365,-72 365,-72 395,-72 395,-72 401,-72 407,-78 407,-84 407,-84 407,-96 407,-96 407,-102 401,-108 395,-108"/>
<text text-anchor="middle" x="380" y="-86.3" font-family="Times,serif" font-size="14.00">Name</text>
</g>
<!-- ast.Call object at 0x71b872b59a90&#45;&gt;ast.Name object at 0x71b872b5a450 -->
<g id="edge21" class="edge">
<title>ast.Call object at 0x71b872b59a90&#45;&gt;ast.Name object at 0x71b872b5a450</title>
<path fill="none" stroke="black" d="M308.48,-143.7C320.56,-134.8 335.45,-123.82 348.52,-114.2"/>
<polygon fill="black" stroke="black" points="350.81,-116.85 356.79,-108.1 346.66,-111.22 350.81,-116.85"/>
</g>
<!-- ast.Name object at 0x71b872b59b10&#45;&gt;ast.Load object at 0x71b8727c1490 -->
<g id="edge20" class="edge">
<title>ast.Name object at 0x71b872b59b10&#45;&gt;ast.Load object at 0x71b8727c1490</title>
<path fill="none" stroke="black" d="M319.1,-79.56C327.07,-76.94 335.84,-74.21 344,-72 416.5,-52.33 502.65,-35.01 550.75,-25.86"/>
<polygon fill="black" stroke="black" points="551.52,-29.28 560.7,-23.99 550.23,-22.4 551.52,-29.28"/>
</g>
<!-- ast.Name object at 0x71b872b5a450&#45;&gt;ast.Load object at 0x71b8727c1490 -->
<g id="edge22" class="edge">
<title>ast.Name object at 0x71b872b5a450&#45;&gt;ast.Load object at 0x71b8727c1490</title>
<path fill="none" stroke="black" d="M407.37,-78.15C412.86,-76.05 418.6,-73.92 424,-72 467.32,-56.64 517.7,-40.63 551.07,-30.28"/>
<polygon fill="black" stroke="black" points="552.33,-33.56 560.85,-27.26 550.27,-26.87 552.33,-33.56"/>
</g>
<!-- ast.BoolOp object at 0x71b872b59c90 -->
<g id="node20" class="node">
<title>ast.BoolOp object at 0x71b872b59c90</title>
<path fill="#66cdaa" stroke="black" d="M564.5,-324C564.5,-324 529.5,-324 529.5,-324 523.5,-324 517.5,-318 517.5,-312 517.5,-312 517.5,-300 517.5,-300 517.5,-294 523.5,-288 529.5,-288 529.5,-288 564.5,-288 564.5,-288 570.5,-288 576.5,-294 576.5,-300 576.5,-300 576.5,-312 576.5,-312 576.5,-318 570.5,-324 564.5,-324"/>
<text text-anchor="middle" x="547" y="-302.3" font-family="Times,serif" font-size="14.00">BoolOp</text>
</g>
<!-- ast.If object at 0x71b872b5b610&#45;&gt;ast.BoolOp object at 0x71b872b59c90 -->
<g id="edge24" class="edge">
<title>ast.If object at 0x71b872b5b610&#45;&gt;ast.BoolOp object at 0x71b872b59c90</title>
<path fill="none" stroke="black" d="M547,-359.7C547,-351.98 547,-342.71 547,-334.11"/>
<polygon fill="black" stroke="black" points="550.5,-334.1 547,-324.1 543.5,-334.1 550.5,-334.1"/>
</g>
<!-- ast.Expr object at 0x71b872b5a650 -->
<g id="node37" class="node">
<title>ast.Expr object at 0x71b872b5a650</title>
<path fill="#66cdaa" stroke="black" d="M836,-324C836,-324 806,-324 806,-324 800,-324 794,-318 794,-312 794,-312 794,-300 794,-300 794,-294 800,-288 806,-288 806,-288 836,-288 836,-288 842,-288 848,-294 848,-300 848,-300 848,-312 848,-312 848,-318 842,-324 836,-324"/>
<text text-anchor="middle" x="821" y="-302.3" font-family="Times,serif" font-size="14.00">Expr</text>
</g>
<!-- ast.If object at 0x71b872b5b610&#45;&gt;ast.Expr object at 0x71b872b5a650 -->
<g id="edge44" class="edge">
<title>ast.If object at 0x71b872b5b610&#45;&gt;ast.Expr object at 0x71b872b5a650</title>
<path fill="none" stroke="black" d="M574.27,-370.03C623.72,-357.4 728.19,-330.71 784,-316.45"/>
<polygon fill="black" stroke="black" points="785.01,-319.81 793.84,-313.94 783.28,-313.02 785.01,-319.81"/>
</g>
<!-- ast.And object at 0x71b8727c1750 -->
<g id="node21" class="node">
<title>ast.And object at 0x71b8727c1750</title>
<path fill="#66cdaa" stroke="black" d="M440,-252C440,-252 410,-252 410,-252 404,-252 398,-246 398,-240 398,-240 398,-228 398,-228 398,-222 404,-216 410,-216 410,-216 440,-216 440,-216 446,-216 452,-222 452,-228 452,-228 452,-240 452,-240 452,-246 446,-252 440,-252"/>
<text text-anchor="middle" x="425" y="-230.3" font-family="Times,serif" font-size="14.00">And</text>
</g>
<!-- ast.BoolOp object at 0x71b872b59c90&#45;&gt;ast.And object at 0x71b8727c1750 -->
<g id="edge25" class="edge">
<title>ast.BoolOp object at 0x71b872b59c90&#45;&gt;ast.And object at 0x71b8727c1750</title>
<path fill="none" stroke="black" d="M517.47,-288.05C500.53,-278.34 479.14,-266.07 461.2,-255.77"/>
<polygon fill="black" stroke="black" points="462.59,-252.53 452.18,-250.59 459.11,-258.6 462.59,-252.53"/>
</g>
<!-- ast.Compare object at 0x71b872b59d10 -->
<g id="node22" class="node">
<title>ast.Compare object at 0x71b872b59d10</title>
<path fill="#66cdaa" stroke="black" d="M525.5,-252C525.5,-252 482.5,-252 482.5,-252 476.5,-252 470.5,-246 470.5,-240 470.5,-240 470.5,-228 470.5,-228 470.5,-222 476.5,-216 482.5,-216 482.5,-216 525.5,-216 525.5,-216 531.5,-216 537.5,-222 537.5,-228 537.5,-228 537.5,-240 537.5,-240 537.5,-246 531.5,-252 525.5,-252"/>
<text text-anchor="middle" x="504" y="-230.3" font-family="Times,serif" font-size="14.00">Compare</text>
</g>
<!-- ast.BoolOp object at 0x71b872b59c90&#45;&gt;ast.Compare object at 0x71b872b59d10 -->
<g id="edge26" class="edge">
<title>ast.BoolOp object at 0x71b872b59c90&#45;&gt;ast.Compare object at 0x71b872b59d10</title>
<path fill="none" stroke="black" d="M536.37,-287.7C531.37,-279.56 525.31,-269.69 519.79,-260.7"/>
<polygon fill="black" stroke="black" points="522.72,-258.79 514.51,-252.1 516.76,-262.46 522.72,-258.79"/>
</g>
<!-- ast.Compare object at 0x71b872b59ed0 -->
<g id="node26" class="node">
<title>ast.Compare object at 0x71b872b59ed0</title>
<path fill="#66cdaa" stroke="black" d="M610.5,-252C610.5,-252 567.5,-252 567.5,-252 561.5,-252 555.5,-246 555.5,-240 555.5,-240 555.5,-228 555.5,-228 555.5,-222 561.5,-216 567.5,-216 567.5,-216 610.5,-216 610.5,-216 616.5,-216 622.5,-222 622.5,-228 622.5,-228 622.5,-240 622.5,-240 622.5,-246 616.5,-252 610.5,-252"/>
<text text-anchor="middle" x="589" y="-230.3" font-family="Times,serif" font-size="14.00">Compare</text>
</g>
<!-- ast.BoolOp object at 0x71b872b59c90&#45;&gt;ast.Compare object at 0x71b872b59ed0 -->
<g id="edge31" class="edge">
<title>ast.BoolOp object at 0x71b872b59c90&#45;&gt;ast.Compare object at 0x71b872b59ed0</title>
<path fill="none" stroke="black" d="M557.38,-287.7C562.26,-279.56 568.19,-269.69 573.58,-260.7"/>
<polygon fill="black" stroke="black" points="576.59,-262.48 578.74,-252.1 570.59,-258.88 576.59,-262.48"/>
</g>
<!-- ast.Compare object at 0x71b872b59fd0 -->
<g id="node30" class="node">
<title>ast.Compare object at 0x71b872b59fd0</title>
<path fill="#66cdaa" stroke="black" d="M802.5,-252C802.5,-252 759.5,-252 759.5,-252 753.5,-252 747.5,-246 747.5,-240 747.5,-240 747.5,-228 747.5,-228 747.5,-222 753.5,-216 759.5,-216 759.5,-216 802.5,-216 802.5,-216 808.5,-216 814.5,-222 814.5,-228 814.5,-228 814.5,-240 814.5,-240 814.5,-246 808.5,-252 802.5,-252"/>
<text text-anchor="middle" x="781" y="-230.3" font-family="Times,serif" font-size="14.00">Compare</text>
</g>
<!-- ast.BoolOp object at 0x71b872b59c90&#45;&gt;ast.Compare object at 0x71b872b59fd0 -->
<g id="edge36" class="edge">
<title>ast.BoolOp object at 0x71b872b59c90&#45;&gt;ast.Compare object at 0x71b872b59fd0</title>
<path fill="none" stroke="black" d="M576.64,-296.13C617.31,-283.97 690.71,-262.01 737.59,-247.99"/>
<polygon fill="black" stroke="black" points="738.87,-251.25 747.45,-245.04 736.87,-244.55 738.87,-251.25"/>
</g>
<!-- ast.Name object at 0x71b872b59d50 -->
<g id="node23" class="node">
<title>ast.Name object at 0x71b872b59d50</title>
<path fill="#66cdaa" stroke="black" d="M475,-108C475,-108 445,-108 445,-108 439,-108 433,-102 433,-96 433,-96 433,-84 433,-84 433,-78 439,-72 445,-72 445,-72 475,-72 475,-72 481,-72 487,-78 487,-84 487,-84 487,-96 487,-96 487,-102 481,-108 475,-108"/>
<text text-anchor="middle" x="460" y="-86.3" font-family="Times,serif" font-size="14.00">Name</text>
</g>
<!-- ast.Compare object at 0x71b872b59d10&#45;&gt;ast.Name object at 0x71b872b59d50 -->
<g id="edge27" class="edge">
<title>ast.Compare object at 0x71b872b59d10&#45;&gt;ast.Name object at 0x71b872b59d50</title>
<path fill="none" stroke="black" d="M470.24,-219.52C467.13,-218.31 464.01,-217.12 461,-216 415.97,-199.16 386.77,-219.24 359,-180 349.76,-166.94 350.72,-157.69 359,-144 366.36,-131.83 397.26,-116.63 422.97,-105.63"/>
<polygon fill="black" stroke="black" points="424.63,-108.73 432.5,-101.64 421.93,-102.27 424.63,-108.73"/>
</g>
<!-- ast.GtE object at 0x71b8727c2710 -->
<g id="node24" class="node">
<title>ast.GtE object at 0x71b8727c2710</title>
<path fill="#66cdaa" stroke="black" d="M410,-180C410,-180 380,-180 380,-180 374,-180 368,-174 368,-168 368,-168 368,-156 368,-156 368,-150 374,-144 380,-144 380,-144 410,-144 410,-144 416,-144 422,-150 422,-156 422,-156 422,-168 422,-168 422,-174 416,-180 410,-180"/>
<text text-anchor="middle" x="395" y="-158.3" font-family="Times,serif" font-size="14.00">GtE</text>
</g>
<!-- ast.Compare object at 0x71b872b59d10&#45;&gt;ast.GtE object at 0x71b8727c2710 -->
<g id="edge29" class="edge">
<title>ast.Compare object at 0x71b872b59d10&#45;&gt;ast.GtE object at 0x71b8727c2710</title>
<path fill="none" stroke="black" d="M477.34,-215.88C463.22,-206.81 445.69,-195.55 430.44,-185.76"/>
<polygon fill="black" stroke="black" points="432.07,-182.65 421.77,-180.19 428.29,-188.54 432.07,-182.65"/>
</g>
<!-- ast.Constant object at 0x71b872b59e90 -->
<g id="node25" class="node">
<title>ast.Constant object at 0x71b872b59e90</title>
<path fill="#66cdaa" stroke="black" d="M493.5,-180C493.5,-180 452.5,-180 452.5,-180 446.5,-180 440.5,-174 440.5,-168 440.5,-168 440.5,-156 440.5,-156 440.5,-150 446.5,-144 452.5,-144 452.5,-144 493.5,-144 493.5,-144 499.5,-144 505.5,-150 505.5,-156 505.5,-156 505.5,-168 505.5,-168 505.5,-174 499.5,-180 493.5,-180"/>
<text text-anchor="middle" x="473" y="-158.3" font-family="Times,serif" font-size="14.00">Constant</text>
</g>
<!-- ast.Compare object at 0x71b872b59d10&#45;&gt;ast.Constant object at 0x71b872b59e90 -->
<g id="edge30" class="edge">
<title>ast.Compare object at 0x71b872b59d10&#45;&gt;ast.Constant object at 0x71b872b59e90</title>
<path fill="none" stroke="black" d="M496.34,-215.7C492.81,-207.73 488.54,-198.1 484.63,-189.26"/>
<polygon fill="black" stroke="black" points="487.82,-187.83 480.57,-180.1 481.42,-190.67 487.82,-187.83"/>
</g>
<!-- ast.Name object at 0x71b872b59d50&#45;&gt;ast.Load object at 0x71b8727c1490 -->
<g id="edge28" class="edge">
<title>ast.Name object at 0x71b872b59d50&#45;&gt;ast.Load object at 0x71b8727c1490</title>
<path fill="none" stroke="black" d="M487.15,-74.15C506.07,-63.81 531.51,-49.89 552.11,-38.63"/>
<polygon fill="black" stroke="black" points="553.8,-41.69 560.89,-33.82 550.44,-35.55 553.8,-41.69"/>
</g>
<!-- ast.Name object at 0x71b872b5b690 -->
<g id="node27" class="node">
<title>ast.Name object at 0x71b872b5b690</title>
<path fill="#66cdaa" stroke="black" d="M551,-108C551,-108 521,-108 521,-108 515,-108 509,-102 509,-96 509,-96 509,-84 509,-84 509,-78 515,-72 521,-72 521,-72 551,-72 551,-72 557,-72 563,-78 563,-84 563,-84 563,-96 563,-96 563,-102 557,-108 551,-108"/>
<text text-anchor="middle" x="536" y="-86.3" font-family="Times,serif" font-size="14.00">Name</text>
</g>
<!-- ast.Compare object at 0x71b872b59ed0&#45;&gt;ast.Name object at 0x71b872b5b690 -->
<g id="edge32" class="edge">
<title>ast.Compare object at 0x71b872b59ed0&#45;&gt;ast.Name object at 0x71b872b5b690</title>
<path fill="none" stroke="black" d="M574.73,-215.9C567.17,-205.99 558.36,-192.95 553,-180 544.84,-160.29 540.55,-136.48 538.33,-118.46"/>
<polygon fill="black" stroke="black" points="541.78,-117.88 537.22,-108.32 534.83,-118.65 541.78,-117.88"/>
</g>
<!-- ast.LtE object at 0x71b8727c2610 -->
<g id="node28" class="node">
<title>ast.LtE object at 0x71b8727c2610</title>
<path fill="#66cdaa" stroke="black" d="M604,-180C604,-180 574,-180 574,-180 568,-180 562,-174 562,-168 562,-168 562,-156 562,-156 562,-150 568,-144 574,-144 574,-144 604,-144 604,-144 610,-144 616,-150 616,-156 616,-156 616,-168 616,-168 616,-174 610,-180 604,-180"/>
<text text-anchor="middle" x="589" y="-158.3" font-family="Times,serif" font-size="14.00">LtE</text>
</g>
<!-- ast.Compare object at 0x71b872b59ed0&#45;&gt;ast.LtE object at 0x71b8727c2610 -->
<g id="edge34" class="edge">
<title>ast.Compare object at 0x71b872b59ed0&#45;&gt;ast.LtE object at 0x71b8727c2610</title>
<path fill="none" stroke="black" d="M589,-215.7C589,-207.98 589,-198.71 589,-190.11"/>
<polygon fill="black" stroke="black" points="592.5,-190.1 589,-180.1 585.5,-190.1 592.5,-190.1"/>
</g>
<!-- ast.Constant object at 0x71b872b59f50 -->
<g id="node29" class="node">
<title>ast.Constant object at 0x71b872b59f50</title>
<path fill="#66cdaa" stroke="black" d="M687.5,-180C687.5,-180 646.5,-180 646.5,-180 640.5,-180 634.5,-174 634.5,-168 634.5,-168 634.5,-156 634.5,-156 634.5,-150 640.5,-144 646.5,-144 646.5,-144 687.5,-144 687.5,-144 693.5,-144 699.5,-150 699.5,-156 699.5,-156 699.5,-168 699.5,-168 699.5,-174 693.5,-180 687.5,-180"/>
<text text-anchor="middle" x="667" y="-158.3" font-family="Times,serif" font-size="14.00">Constant</text>
</g>
<!-- ast.Compare object at 0x71b872b59ed0&#45;&gt;ast.Constant object at 0x71b872b59f50 -->
<g id="edge35" class="edge">
<title>ast.Compare object at 0x71b872b59ed0&#45;&gt;ast.Constant object at 0x71b872b59f50</title>
<path fill="none" stroke="black" d="M608.28,-215.7C617.92,-207.05 629.73,-196.45 640.23,-187.03"/>
<polygon fill="black" stroke="black" points="642.84,-189.39 647.94,-180.1 638.16,-184.18 642.84,-189.39"/>
</g>
<!-- ast.Name object at 0x71b872b5b690&#45;&gt;ast.Load object at 0x71b8727c1490 -->
<g id="edge33" class="edge">
<title>ast.Name object at 0x71b872b5b690&#45;&gt;ast.Load object at 0x71b8727c1490</title>
<path fill="none" stroke="black" d="M548.85,-71.7C555.03,-63.39 562.54,-53.28 569.32,-44.14"/>
<polygon fill="black" stroke="black" points="572.14,-46.22 575.29,-36.1 566.52,-42.04 572.14,-46.22"/>
</g>
<!-- ast.BinOp object at 0x71b872b5b6d0 -->
<g id="node31" class="node">
<title>ast.BinOp object at 0x71b872b5b6d0</title>
<path fill="#66cdaa" stroke="black" d="M760,-180C760,-180 730,-180 730,-180 724,-180 718,-174 718,-168 718,-168 718,-156 718,-156 718,-150 724,-144 730,-144 730,-144 760,-144 760,-144 766,-144 772,-150 772,-156 772,-156 772,-168 772,-168 772,-174 766,-180 760,-180"/>
<text text-anchor="middle" x="745" y="-158.3" font-family="Times,serif" font-size="14.00">BinOp</text>
</g>
<!-- ast.Compare object at 0x71b872b59fd0&#45;&gt;ast.BinOp object at 0x71b872b5b6d0 -->
<g id="edge37" class="edge">
<title>ast.Compare object at 0x71b872b59fd0&#45;&gt;ast.BinOp object at 0x71b872b5b6d0</title>
<path fill="none" stroke="black" d="M772.1,-215.7C768,-207.73 763.05,-198.1 758.51,-189.26"/>
<polygon fill="black" stroke="black" points="761.48,-187.4 753.8,-180.1 755.26,-190.6 761.48,-187.4"/>
</g>
<!-- ast.Eq object at 0x71b8727c2490 -->
<g id="node35" class="node">
<title>ast.Eq object at 0x71b8727c2490</title>
<path fill="#66cdaa" stroke="black" d="M832,-180C832,-180 802,-180 802,-180 796,-180 790,-174 790,-168 790,-168 790,-156 790,-156 790,-150 796,-144 802,-144 802,-144 832,-144 832,-144 838,-144 844,-150 844,-156 844,-156 844,-168 844,-168 844,-174 838,-180 832,-180"/>
<text text-anchor="middle" x="817" y="-158.3" font-family="Times,serif" font-size="14.00">Eq</text>
</g>
<!-- ast.Compare object at 0x71b872b59fd0&#45;&gt;ast.Eq object at 0x71b8727c2490 -->
<g id="edge42" class="edge">
<title>ast.Compare object at 0x71b872b59fd0&#45;&gt;ast.Eq object at 0x71b8727c2490</title>
<path fill="none" stroke="black" d="M789.9,-215.7C794,-207.73 798.95,-198.1 803.49,-189.26"/>
<polygon fill="black" stroke="black" points="806.74,-190.6 808.2,-180.1 800.52,-187.4 806.74,-190.6"/>
</g>
<!-- ast.Constant object at 0x71b872b5a590 -->
<g id="node36" class="node">
<title>ast.Constant object at 0x71b872b5a590</title>
<path fill="#66cdaa" stroke="black" d="M915.5,-180C915.5,-180 874.5,-180 874.5,-180 868.5,-180 862.5,-174 862.5,-168 862.5,-168 862.5,-156 862.5,-156 862.5,-150 868.5,-144 874.5,-144 874.5,-144 915.5,-144 915.5,-144 921.5,-144 927.5,-150 927.5,-156 927.5,-156 927.5,-168 927.5,-168 927.5,-174 921.5,-180 915.5,-180"/>
<text text-anchor="middle" x="895" y="-158.3" font-family="Times,serif" font-size="14.00">Constant</text>
</g>
<!-- ast.Compare object at 0x71b872b59fd0&#45;&gt;ast.Constant object at 0x71b872b5a590 -->
<g id="edge43" class="edge">
<title>ast.Compare object at 0x71b872b59fd0&#45;&gt;ast.Constant object at 0x71b872b5a590</title>
<path fill="none" stroke="black" d="M808.89,-215.88C823.79,-206.72 842.33,-195.34 858.38,-185.48"/>
<polygon fill="black" stroke="black" points="860.31,-188.41 867.01,-180.19 856.65,-182.44 860.31,-188.41"/>
</g>
<!-- ast.Name object at 0x71b872b5a010 -->
<g id="node32" class="node">
<title>ast.Name object at 0x71b872b5a010</title>
<path fill="#66cdaa" stroke="black" d="M656,-108C656,-108 626,-108 626,-108 620,-108 614,-102 614,-96 614,-96 614,-84 614,-84 614,-78 620,-72 626,-72 626,-72 656,-72 656,-72 662,-72 668,-78 668,-84 668,-84 668,-96 668,-96 668,-102 662,-108 656,-108"/>
<text text-anchor="middle" x="641" y="-86.3" font-family="Times,serif" font-size="14.00">Name</text>
</g>
<!-- ast.BinOp object at 0x71b872b5b6d0&#45;&gt;ast.Name object at 0x71b872b5a010 -->
<g id="edge38" class="edge">
<title>ast.BinOp object at 0x71b872b5b6d0&#45;&gt;ast.Name object at 0x71b872b5a010</title>
<path fill="none" stroke="black" d="M719.56,-143.88C706.21,-134.89 689.68,-123.76 675.22,-114.03"/>
<polygon fill="black" stroke="black" points="676.79,-110.87 666.54,-108.19 672.88,-116.68 676.79,-110.87"/>
</g>
<!-- ast.Mod object at 0x71b8727c1c10 -->
<g id="node33" class="node">
<title>ast.Mod object at 0x71b8727c1c10</title>
<path fill="#66cdaa" stroke="black" d="M745,-108C745,-108 715,-108 715,-108 709,-108 703,-102 703,-96 703,-96 703,-84 703,-84 703,-78 709,-72 715,-72 715,-72 745,-72 745,-72 751,-72 757,-78 757,-84 757,-84 757,-96 757,-96 757,-102 751,-108 745,-108"/>
<text text-anchor="middle" x="730" y="-86.3" font-family="Times,serif" font-size="14.00">Mod</text>
</g>
<!-- ast.BinOp object at 0x71b872b5b6d0&#45;&gt;ast.Mod object at 0x71b8727c1c10 -->
<g id="edge40" class="edge">
<title>ast.BinOp object at 0x71b872b5b6d0&#45;&gt;ast.Mod object at 0x71b8727c1c10</title>
<path fill="none" stroke="black" d="M741.29,-143.7C739.64,-135.98 737.65,-126.71 735.81,-118.11"/>
<polygon fill="black" stroke="black" points="739.18,-117.15 733.67,-108.1 732.34,-118.62 739.18,-117.15"/>
</g>
<!-- ast.Constant object at 0x71b872b5a050 -->
<g id="node34" class="node">
<title>ast.Constant object at 0x71b872b5a050</title>
<path fill="#66cdaa" stroke="black" d="M828.5,-108C828.5,-108 787.5,-108 787.5,-108 781.5,-108 775.5,-102 775.5,-96 775.5,-96 775.5,-84 775.5,-84 775.5,-78 781.5,-72 787.5,-72 787.5,-72 828.5,-72 828.5,-72 834.5,-72 840.5,-78 840.5,-84 840.5,-84 840.5,-96 840.5,-96 840.5,-102 834.5,-108 828.5,-108"/>
<text text-anchor="middle" x="808" y="-86.3" font-family="Times,serif" font-size="14.00">Constant</text>
</g>
<!-- ast.BinOp object at 0x71b872b5b6d0&#45;&gt;ast.Constant object at 0x71b872b5a050 -->
<g id="edge41" class="edge">
<title>ast.BinOp object at 0x71b872b5b6d0&#45;&gt;ast.Constant object at 0x71b872b5a050</title>
<path fill="none" stroke="black" d="M760.57,-143.7C768.2,-135.22 777.52,-124.86 785.88,-115.58"/>
<polygon fill="black" stroke="black" points="788.52,-117.88 792.61,-108.1 783.31,-113.2 788.52,-117.88"/>
</g>
<!-- ast.Name object at 0x71b872b5a010&#45;&gt;ast.Load object at 0x71b8727c1490 -->
<g id="edge39" class="edge">
<title>ast.Name object at 0x71b872b5a010&#45;&gt;ast.Load object at 0x71b8727c1490</title>
<path fill="none" stroke="black" d="M627.9,-71.7C621.61,-63.39 613.95,-53.28 607.04,-44.14"/>
<polygon fill="black" stroke="black" points="609.78,-41.96 600.95,-36.1 604.2,-46.19 609.78,-41.96"/>
</g>
<!-- ast.Call object at 0x71b872b5a710 -->
<g id="node38" class="node">
<title>ast.Call object at 0x71b872b5a710</title>
<path fill="#66cdaa" stroke="black" d="M993,-252C993,-252 963,-252 963,-252 957,-252 951,-246 951,-240 951,-240 951,-228 951,-228 951,-222 957,-216 963,-216 963,-216 993,-216 993,-216 999,-216 1005,-222 1005,-228 1005,-228 1005,-240 1005,-240 1005,-246 999,-252 993,-252"/>
<text text-anchor="middle" x="978" y="-230.3" font-family="Times,serif" font-size="14.00">Call</text>
</g>
<!-- ast.Expr object at 0x71b872b5a650&#45;&gt;ast.Call object at 0x71b872b5a710 -->
<g id="edge45" class="edge">
<title>ast.Expr object at 0x71b872b5a650&#45;&gt;ast.Call object at 0x71b872b5a710</title>
<path fill="none" stroke="black" d="M848.35,-292.81C874.24,-281.26 913.27,-263.86 941.75,-251.16"/>
<polygon fill="black" stroke="black" points="943.26,-254.32 950.97,-247.05 940.41,-247.93 943.26,-254.32"/>
</g>
<!-- ast.Attribute object at 0x71b872b5a790 -->
<g id="node39" class="node">
<title>ast.Attribute object at 0x71b872b5a790</title>
<path fill="#66cdaa" stroke="black" d="M998.5,-180C998.5,-180 957.5,-180 957.5,-180 951.5,-180 945.5,-174 945.5,-168 945.5,-168 945.5,-156 945.5,-156 945.5,-150 951.5,-144 957.5,-144 957.5,-144 998.5,-144 998.5,-144 1004.5,-144 1010.5,-150 1010.5,-156 1010.5,-156 1010.5,-168 1010.5,-168 1010.5,-174 1004.5,-180 998.5,-180"/>
<text text-anchor="middle" x="978" y="-158.3" font-family="Times,serif" font-size="14.00">Attribute</text>
</g>
<!-- ast.Call object at 0x71b872b5a710&#45;&gt;ast.Attribute object at 0x71b872b5a790 -->
<g id="edge46" class="edge">
<title>ast.Call object at 0x71b872b5a710&#45;&gt;ast.Attribute object at 0x71b872b5a790</title>
<path fill="none" stroke="black" d="M978,-215.7C978,-207.98 978,-198.71 978,-190.11"/>
<polygon fill="black" stroke="black" points="981.5,-190.1 978,-180.1 974.5,-190.1 981.5,-190.1"/>
</g>
<!-- ast.Name object at 0x71b872b5a9d0 -->
<g id="node41" class="node">
<title>ast.Name object at 0x71b872b5a9d0</title>
<path fill="#66cdaa" stroke="black" d="M1035,-108C1035,-108 1005,-108 1005,-108 999,-108 993,-102 993,-96 993,-96 993,-84 993,-84 993,-78 999,-72 1005,-72 1005,-72 1035,-72 1035,-72 1041,-72 1047,-78 1047,-84 1047,-84 1047,-96 1047,-96 1047,-102 1041,-108 1035,-108"/>
<text text-anchor="middle" x="1020" y="-86.3" font-family="Times,serif" font-size="14.00">Name</text>
</g>
<!-- ast.Call object at 0x71b872b5a710&#45;&gt;ast.Name object at 0x71b872b5a9d0 -->
<g id="edge50" class="edge">
<title>ast.Call object at 0x71b872b5a710&#45;&gt;ast.Name object at 0x71b872b5a9d0</title>
<path fill="none" stroke="black" d="M996.6,-215.76C1005.53,-206.2 1015.29,-193.53 1020,-180 1026.89,-160.21 1026.48,-136.41 1024.57,-118.4"/>
<polygon fill="black" stroke="black" points="1028.02,-117.76 1023.28,-108.29 1021.07,-118.65 1028.02,-117.76"/>
</g>
<!-- ast.Attribute object at 0x71b872b5a790&#45;&gt;ast.Load object at 0x71b8727c1490 -->
<g id="edge49" class="edge">
<title>ast.Attribute object at 0x71b872b5a790&#45;&gt;ast.Load object at 0x71b8727c1490</title>
<path fill="none" stroke="black" d="M955.76,-143.88C925.38,-120.79 872.15,-81.46 850,-72 774.14,-39.6 677.31,-26.64 625.2,-21.75"/>
<polygon fill="black" stroke="black" points="625.37,-18.25 615.09,-20.85 624.74,-25.22 625.37,-18.25"/>
</g>
<!-- ast.Name object at 0x71b872b5a7d0 -->
<g id="node40" class="node">
<title>ast.Name object at 0x71b872b5a7d0</title>
<path fill="#66cdaa" stroke="black" d="M960,-108C960,-108 930,-108 930,-108 924,-108 918,-102 918,-96 918,-96 918,-84 918,-84 918,-78 924,-72 930,-72 930,-72 960,-72 960,-72 966,-72 972,-78 972,-84 972,-84 972,-96 972,-96 972,-102 966,-108 960,-108"/>
<text text-anchor="middle" x="945" y="-86.3" font-family="Times,serif" font-size="14.00">Name</text>
</g>
<!-- ast.Attribute object at 0x71b872b5a790&#45;&gt;ast.Name object at 0x71b872b5a7d0 -->
<g id="edge47" class="edge">
<title>ast.Attribute object at 0x71b872b5a790&#45;&gt;ast.Name object at 0x71b872b5a7d0</title>
<path fill="none" stroke="black" d="M969.84,-143.7C966.09,-135.73 961.55,-126.1 957.38,-117.26"/>
<polygon fill="black" stroke="black" points="960.49,-115.66 953.06,-108.1 954.16,-118.64 960.49,-115.66"/>
</g>
<!-- ast.Name object at 0x71b872b5a7d0&#45;&gt;ast.Load object at 0x71b8727c1490 -->
<g id="edge48" class="edge">
<title>ast.Name object at 0x71b872b5a7d0&#45;&gt;ast.Load object at 0x71b8727c1490</title>
<path fill="none" stroke="black" d="M917.84,-78.47C911.1,-76.11 903.84,-73.78 897,-72 800.56,-46.85 684,-30.56 625.44,-23.33"/>
<polygon fill="black" stroke="black" points="625.54,-19.81 615.2,-22.08 624.7,-26.76 625.54,-19.81"/>
</g>
<!-- ast.Name object at 0x71b872b5a9d0&#45;&gt;ast.Load object at 0x71b8727c1490 -->
<g id="edge51" class="edge">
<title>ast.Name object at 0x71b872b5a9d0&#45;&gt;ast.Load object at 0x71b8727c1490</title>
<path fill="none" stroke="black" d="M992.65,-75.96C988.8,-74.45 984.84,-73.07 981,-72 853.6,-36.39 696.06,-24.38 625.39,-20.6"/>
<polygon fill="black" stroke="black" points="625.37,-17.1 615.2,-20.08 625.01,-24.09 625.37,-17.1"/>
</g>
<!-- ast.Name object at 0x71b872b5a910 -->
<g id="node43" class="node">
<title>ast.Name object at 0x71b872b5a910</title>
<path fill="#66cdaa" stroke="black" d="M842,-396C842,-396 812,-396 812,-396 806,-396 800,-390 800,-384 800,-384 800,-372 800,-372 800,-366 806,-360 812,-360 812,-360 842,-360 842,-360 848,-360 854,-366 854,-372 854,-372 854,-384 854,-384 854,-390 848,-396 842,-396"/>
<text text-anchor="middle" x="827" y="-374.3" font-family="Times,serif" font-size="14.00">Name</text>
</g>
<!-- ast.Return object at 0x71b872b5a8d0&#45;&gt;ast.Name object at 0x71b872b5a910 -->
<g id="edge53" class="edge">
<title>ast.Return object at 0x71b872b5a8d0&#45;&gt;ast.Name object at 0x71b872b5a910</title>
<path fill="none" stroke="black" d="M596.12,-441.64C642.58,-429.04 737.42,-403.3 789.94,-389.05"/>
<polygon fill="black" stroke="black" points="791.12,-392.36 799.85,-386.37 789.29,-385.61 791.12,-392.36"/>
</g>
<!-- ast.Name object at 0x71b872b5a910&#45;&gt;ast.Load object at 0x71b8727c1490 -->
<g id="edge54" class="edge">
<title>ast.Name object at 0x71b872b5a910&#45;&gt;ast.Load object at 0x71b8727c1490</title>
<path fill="none" stroke="black" d="M854.23,-374.35C919.02,-366.39 1077,-336.58 1077,-235 1077,-235 1077,-235 1077,-161 1077,-120.36 1086.4,-98.98 1056,-72 1023.96,-43.56 730.79,-26.17 625.46,-20.79"/>
<polygon fill="black" stroke="black" points="625.46,-17.29 615.29,-20.28 625.11,-24.28 625.46,-17.29"/>
</g>
</g>
</svg>
