<?xml version="1.0" encoding="UTF-8" standalone="no"?>
<!DOCTYPE svg PUBLIC "-//W3C//DTD SVG 1.1//EN"
 "http://www.w3.org/Graphics/SVG/1.1/DTD/svg11.dtd">
<!-- Generated by graphviz version 2.50.0 (0)
 -->
<!-- Pages: 1 -->
<svg width="708pt" height="548pt"
 viewBox="0.00 0.00 708.00 548.00" xmlns="http://www.w3.org/2000/svg" xmlns:xlink="http://www.w3.org/1999/xlink">
<g id="graph0" class="graph" transform="scale(1 1) rotate(0) translate(4 544)">
<polygon fill="white" stroke="transparent" points="-4,4 -4,-544 704,-544 704,4 -4,4"/>
<!-- ast.Module object at 0x71446a3652d0 -->
<g id="node1" class="node">
<title>ast.Module object at 0x71446a3652d0</title>
<path fill="#66cdaa" stroke="black" d="M233,-540C233,-540 198,-540 198,-540 192,-540 186,-534 186,-528 186,-528 186,-516 186,-516 186,-510 192,-504 198,-504 198,-504 233,-504 233,-504 239,-504 245,-510 245,-516 245,-516 245,-528 245,-528 245,-534 239,-540 233,-540"/>
<text text-anchor="middle" x="215.5" y="-518.3" font-family="Times,serif" font-size="14.00">Module</text>
</g>
<!-- ast.FunctionDef object at 0x71446a365050 -->
<g id="node2" class="node">
<title>ast.FunctionDef object at 0x71446a365050</title>
<path fill="#66cdaa" stroke="black" d="M246,-468C246,-468 185,-468 185,-468 179,-468 173,-462 173,-456 173,-456 173,-444 173,-444 173,-438 179,-432 185,-432 185,-432 246,-432 246,-432 252,-432 258,-438 258,-444 258,-444 258,-456 258,-456 258,-462 252,-468 246,-468"/>
<text text-anchor="middle" x="215.5" y="-446.3" font-family="Times,serif" font-size="14.00">FunctionDef</text>
</g>
<!-- ast.Module object at 0x71446a3652d0&#45;&gt;ast.FunctionDef object at 0x71446a365050 -->
<g id="edge1" class="edge">
<title>ast.Module object at 0x71446a3652d0&#45;&gt;ast.FunctionDef object at 0x71446a365050</title>
<path fill="none" stroke="black" d="M215.5,-503.7C215.5,-495.98 215.5,-486.71 215.5,-478.11"/>
<polygon fill="black" stroke="black" points="219,-478.1 215.5,-468.1 212,-478.1 219,-478.1"/>
</g>
<!-- ast.arguments object at 0x71446a365190 -->
<g id="node3" class="node">
<title>ast.arguments object at 0x71446a365190</title>
<path fill="#66cdaa" stroke="black" d="M91.5,-396C91.5,-396 41.5,-396 41.5,-396 35.5,-396 29.5,-390 29.5,-384 29.5,-384 29.5,-372 29.5,-372 29.5,-366 35.5,-360 41.5,-360 41.5,-360 91.5,-360 91.5,-360 97.5,-360 103.5,-366 103.5,-372 103.5,-372 103.5,-384 103.5,-384 103.5,-390 97.5,-396 91.5,-396"/>
<text text-anchor="middle" x="66.5" y="-374.3" font-family="Times,serif" font-size="14.00">arguments</text>
</g>
<!-- ast.FunctionDef object at 0x71446a365050&#45;&gt;ast.arguments object at 0x71446a365190 -->
<g id="edge2" class="edge">
<title>ast.FunctionDef object at 0x71446a365050&#45;&gt;ast.arguments object at 0x71446a365190</title>
<path fill="none" stroke="black" d="M179.05,-431.88C158.86,-422.39 133.58,-410.51 112.09,-400.42"/>
<polygon fill="black" stroke="black" points="113.37,-397.15 102.83,-396.07 110.39,-403.49 113.37,-397.15"/>
</g>
<!-- ast.If object at 0x7144e6675990 -->
<g id="node5" class="node">
<title>ast.If object at 0x7144e6675990</title>
<path fill="#66cdaa" stroke="black" d="M266.5,-396C266.5,-396 236.5,-396 236.5,-396 230.5,-396 224.5,-390 224.5,-384 224.5,-384 224.5,-372 224.5,-372 224.5,-366 230.5,-360 236.5,-360 236.5,-360 266.5,-360 266.5,-360 272.5,-360 278.5,-366 278.5,-372 278.5,-372 278.5,-384 278.5,-384 278.5,-390 272.5,-396 266.5,-396"/>
<text text-anchor="middle" x="251.5" y="-374.3" font-family="Times,serif" font-size="14.00">If</text>
</g>
<!-- ast.FunctionDef object at 0x71446a365050&#45;&gt;ast.If object at 0x7144e6675990 -->
<g id="edge4" class="edge">
<title>ast.FunctionDef object at 0x71446a365050&#45;&gt;ast.If object at 0x7144e6675990</title>
<path fill="none" stroke="black" d="M224.4,-431.7C228.5,-423.73 233.45,-414.1 237.99,-405.26"/>
<polygon fill="black" stroke="black" points="241.24,-406.6 242.7,-396.1 235.02,-403.4 241.24,-406.6"/>
</g>
<!-- ast.Assign object at 0x7144e6820890 -->
<g id="node19" class="node">
<title>ast.Assign object at 0x7144e6820890</title>
<path fill="#66cdaa" stroke="black" d="M194.5,-396C194.5,-396 164.5,-396 164.5,-396 158.5,-396 152.5,-390 152.5,-384 152.5,-384 152.5,-372 152.5,-372 152.5,-366 158.5,-360 164.5,-360 164.5,-360 194.5,-360 194.5,-360 200.5,-360 206.5,-366 206.5,-372 206.5,-372 206.5,-384 206.5,-384 206.5,-390 200.5,-396 194.5,-396"/>
<text text-anchor="middle" x="179.5" y="-374.3" font-family="Times,serif" font-size="14.00">Assign</text>
</g>
<!-- ast.FunctionDef object at 0x71446a365050&#45;&gt;ast.Assign object at 0x7144e6820890 -->
<g id="edge20" class="edge">
<title>ast.FunctionDef object at 0x71446a365050&#45;&gt;ast.Assign object at 0x7144e6820890</title>
<path fill="none" stroke="black" d="M206.6,-431.7C202.5,-423.73 197.55,-414.1 193.01,-405.26"/>
<polygon fill="black" stroke="black" points="195.98,-403.4 188.3,-396.1 189.76,-406.6 195.98,-403.4"/>
</g>
<!-- ast.Return object at 0x71446a987650 -->
<g id="node31" class="node">
<title>ast.Return object at 0x71446a987650</title>
<path fill="#66cdaa" stroke="black" d="M446.5,-396C446.5,-396 416.5,-396 416.5,-396 410.5,-396 404.5,-390 404.5,-384 404.5,-384 404.5,-372 404.5,-372 404.5,-366 410.5,-360 416.5,-360 416.5,-360 446.5,-360 446.5,-360 452.5,-360 458.5,-366 458.5,-372 458.5,-372 458.5,-384 458.5,-384 458.5,-390 452.5,-396 446.5,-396"/>
<text text-anchor="middle" x="431.5" y="-374.3" font-family="Times,serif" font-size="14.00">Return</text>
</g>
<!-- ast.FunctionDef object at 0x71446a365050&#45;&gt;ast.Return object at 0x71446a987650 -->
<g id="edge36" class="edge">
<title>ast.FunctionDef object at 0x71446a365050&#45;&gt;ast.Return object at 0x71446a987650</title>
<path fill="none" stroke="black" d="M258.17,-435.17C298.01,-422.26 356.85,-403.19 394.68,-390.93"/>
<polygon fill="black" stroke="black" points="395.86,-394.23 404.29,-387.82 393.7,-387.57 395.86,-394.23"/>
</g>
<!-- ast.arg object at 0x7144e6677a10 -->
<g id="node4" class="node">
<title>ast.arg object at 0x7144e6677a10</title>
<path fill="#66cdaa" stroke="black" d="M50.5,-324C50.5,-324 20.5,-324 20.5,-324 14.5,-324 8.5,-318 8.5,-312 8.5,-312 8.5,-300 8.5,-300 8.5,-294 14.5,-288 20.5,-288 20.5,-288 50.5,-288 50.5,-288 56.5,-288 62.5,-294 62.5,-300 62.5,-300 62.5,-312 62.5,-312 62.5,-318 56.5,-324 50.5,-324"/>
<text text-anchor="middle" x="35.5" y="-302.3" font-family="Times,serif" font-size="14.00">arg</text>
</g>
<!-- ast.arguments object at 0x71446a365190&#45;&gt;ast.arg object at 0x7144e6677a10 -->
<g id="edge3" class="edge">
<title>ast.arguments object at 0x71446a365190&#45;&gt;ast.arg object at 0x7144e6677a10</title>
<path fill="none" stroke="black" d="M58.84,-359.7C55.31,-351.73 51.04,-342.1 47.13,-333.26"/>
<polygon fill="black" stroke="black" points="50.32,-331.83 43.07,-324.1 43.92,-334.67 50.32,-331.83"/>
</g>
<!-- ast.Compare object at 0x7144e66777d0 -->
<g id="node6" class="node">
<title>ast.Compare object at 0x7144e66777d0</title>
<path fill="#66cdaa" stroke="black" d="M386,-324C386,-324 343,-324 343,-324 337,-324 331,-318 331,-312 331,-312 331,-300 331,-300 331,-294 337,-288 343,-288 343,-288 386,-288 386,-288 392,-288 398,-294 398,-300 398,-300 398,-312 398,-312 398,-318 392,-324 386,-324"/>
<text text-anchor="middle" x="364.5" y="-302.3" font-family="Times,serif" font-size="14.00">Compare</text>
</g>
<!-- ast.If object at 0x7144e6675990&#45;&gt;ast.Compare object at 0x7144e66777d0 -->
<g id="edge5" class="edge">
<title>ast.If object at 0x7144e6675990&#45;&gt;ast.Compare object at 0x7144e66777d0</title>
<path fill="none" stroke="black" d="M278.57,-360.23C293.44,-351.02 312.09,-339.47 328.21,-329.48"/>
<polygon fill="black" stroke="black" points="330.21,-332.36 336.87,-324.12 326.53,-326.41 330.21,-332.36"/>
</g>
<!-- ast.Return object at 0x7144e68236d0 -->
<g id="node17" class="node">
<title>ast.Return object at 0x7144e68236d0</title>
<path fill="#66cdaa" stroke="black" d="M266.5,-324C266.5,-324 236.5,-324 236.5,-324 230.5,-324 224.5,-318 224.5,-312 224.5,-312 224.5,-300 224.5,-300 224.5,-294 230.5,-288 236.5,-288 236.5,-288 266.5,-288 266.5,-288 272.5,-288 278.5,-294 278.5,-300 278.5,-300 278.5,-312 278.5,-312 278.5,-318 272.5,-324 266.5,-324"/>
<text text-anchor="middle" x="251.5" y="-302.3" font-family="Times,serif" font-size="14.00">Return</text>
</g>
<!-- ast.If object at 0x7144e6675990&#45;&gt;ast.Return object at 0x7144e68236d0 -->
<g id="edge18" class="edge">
<title>ast.If object at 0x7144e6675990&#45;&gt;ast.Return object at 0x7144e68236d0</title>
<path fill="none" stroke="black" d="M251.5,-359.7C251.5,-351.98 251.5,-342.71 251.5,-334.11"/>
<polygon fill="black" stroke="black" points="255,-334.1 251.5,-324.1 248,-334.1 255,-334.1"/>
</g>
<!-- ast.Call object at 0x7144e6674cd0 -->
<g id="node7" class="node">
<title>ast.Call object at 0x7144e6674cd0</title>
<path fill="#66cdaa" stroke="black" d="M495.5,-252C495.5,-252 465.5,-252 465.5,-252 459.5,-252 453.5,-246 453.5,-240 453.5,-240 453.5,-228 453.5,-228 453.5,-222 459.5,-216 465.5,-216 465.5,-216 495.5,-216 495.5,-216 501.5,-216 507.5,-222 507.5,-228 507.5,-228 507.5,-240 507.5,-240 507.5,-246 501.5,-252 495.5,-252"/>
<text text-anchor="middle" x="480.5" y="-230.3" font-family="Times,serif" font-size="14.00">Call</text>
</g>
<!-- ast.Compare object at 0x7144e66777d0&#45;&gt;ast.Call object at 0x7144e6674cd0 -->
<g id="edge6" class="edge">
<title>ast.Compare object at 0x7144e66777d0&#45;&gt;ast.Call object at 0x7144e6674cd0</title>
<path fill="none" stroke="black" d="M392.88,-287.88C408.38,-278.52 427.75,-266.83 444.33,-256.83"/>
<polygon fill="black" stroke="black" points="446.46,-259.63 453.21,-251.47 442.84,-253.64 446.46,-259.63"/>
</g>
<!-- ast.Lt object at 0x71451b0c7c90 -->
<g id="node15" class="node">
<title>ast.Lt object at 0x71451b0c7c90</title>
<path fill="#66cdaa" stroke="black" d="M339.5,-252C339.5,-252 309.5,-252 309.5,-252 303.5,-252 297.5,-246 297.5,-240 297.5,-240 297.5,-228 297.5,-228 297.5,-222 303.5,-216 309.5,-216 309.5,-216 339.5,-216 339.5,-216 345.5,-216 351.5,-222 351.5,-228 351.5,-228 351.5,-240 351.5,-240 351.5,-246 345.5,-252 339.5,-252"/>
<text text-anchor="middle" x="324.5" y="-230.3" font-family="Times,serif" font-size="14.00">Lt</text>
</g>
<!-- ast.Compare object at 0x7144e66777d0&#45;&gt;ast.Lt object at 0x71451b0c7c90 -->
<g id="edge16" class="edge">
<title>ast.Compare object at 0x7144e66777d0&#45;&gt;ast.Lt object at 0x71451b0c7c90</title>
<path fill="none" stroke="black" d="M354.61,-287.7C350.01,-279.64 344.44,-269.89 339.35,-260.98"/>
<polygon fill="black" stroke="black" points="342.27,-259.05 334.27,-252.1 336.2,-262.52 342.27,-259.05"/>
</g>
<!-- ast.Constant object at 0x71446a364f90 -->
<g id="node16" class="node">
<title>ast.Constant object at 0x71446a364f90</title>
<path fill="#66cdaa" stroke="black" d="M423,-252C423,-252 382,-252 382,-252 376,-252 370,-246 370,-240 370,-240 370,-228 370,-228 370,-222 376,-216 382,-216 382,-216 423,-216 423,-216 429,-216 435,-222 435,-228 435,-228 435,-240 435,-240 435,-246 429,-252 423,-252"/>
<text text-anchor="middle" x="402.5" y="-230.3" font-family="Times,serif" font-size="14.00">Constant</text>
</g>
<!-- ast.Compare object at 0x7144e66777d0&#45;&gt;ast.Constant object at 0x71446a364f90 -->
<g id="edge17" class="edge">
<title>ast.Compare object at 0x7144e66777d0&#45;&gt;ast.Constant object at 0x71446a364f90</title>
<path fill="none" stroke="black" d="M373.89,-287.7C378.26,-279.64 383.56,-269.89 388.4,-260.98"/>
<polygon fill="black" stroke="black" points="391.52,-262.56 393.21,-252.1 385.37,-259.22 391.52,-262.56"/>
</g>
<!-- ast.Name object at 0x7144e66761d0 -->
<g id="node8" class="node">
<title>ast.Name object at 0x7144e66761d0</title>
<path fill="#66cdaa" stroke="black" d="M336.5,-180C336.5,-180 306.5,-180 306.5,-180 300.5,-180 294.5,-174 294.5,-168 294.5,-168 294.5,-156 294.5,-156 294.5,-150 300.5,-144 306.5,-144 306.5,-144 336.5,-144 336.5,-144 342.5,-144 348.5,-150 348.5,-156 348.5,-156 348.5,-168 348.5,-168 348.5,-174 342.5,-180 336.5,-180"/>
<text text-anchor="middle" x="321.5" y="-158.3" font-family="Times,serif" font-size="14.00">Name</text>
</g>
<!-- ast.Call object at 0x7144e6674cd0&#45;&gt;ast.Name object at 0x7144e66761d0 -->
<g id="edge7" class="edge">
<title>ast.Call object at 0x7144e6674cd0&#45;&gt;ast.Name object at 0x7144e66761d0</title>
<path fill="none" stroke="black" d="M453.42,-220.09C450.42,-218.69 447.4,-217.31 444.5,-216 415.69,-202.99 382.79,-188.85 358.27,-178.45"/>
<polygon fill="black" stroke="black" points="359.55,-175.2 348.98,-174.52 356.82,-181.64 359.55,-175.2"/>
</g>
<!-- ast.Subscript object at 0x7144e6674f90 -->
<g id="node10" class="node">
<title>ast.Subscript object at 0x7144e6674f90</title>
<path fill="#66cdaa" stroke="black" d="M441.5,-180C441.5,-180 397.5,-180 397.5,-180 391.5,-180 385.5,-174 385.5,-168 385.5,-168 385.5,-156 385.5,-156 385.5,-150 391.5,-144 397.5,-144 397.5,-144 441.5,-144 441.5,-144 447.5,-144 453.5,-150 453.5,-156 453.5,-156 453.5,-168 453.5,-168 453.5,-174 447.5,-180 441.5,-180"/>
<text text-anchor="middle" x="419.5" y="-158.3" font-family="Times,serif" font-size="14.00">Subscript</text>
</g>
<!-- ast.Call object at 0x7144e6674cd0&#45;&gt;ast.Subscript object at 0x7144e6674f90 -->
<g id="edge9" class="edge">
<title>ast.Call object at 0x7144e6674cd0&#45;&gt;ast.Subscript object at 0x7144e6674f90</title>
<path fill="none" stroke="black" d="M465.42,-215.7C458.11,-207.3 449.19,-197.07 441.16,-187.86"/>
<polygon fill="black" stroke="black" points="443.61,-185.34 434.41,-180.1 438.34,-189.94 443.61,-185.34"/>
</g>
<!-- ast.Load object at 0x71451b0c6b90 -->
<g id="node9" class="node">
<title>ast.Load object at 0x71451b0c6b90</title>
<path fill="#66cdaa" stroke="black" d="M329.5,-36C329.5,-36 299.5,-36 299.5,-36 293.5,-36 287.5,-30 287.5,-24 287.5,-24 287.5,-12 287.5,-12 287.5,-6 293.5,0 299.5,0 299.5,0 329.5,0 329.5,0 335.5,0 341.5,-6 341.5,-12 341.5,-12 341.5,-24 341.5,-24 341.5,-30 335.5,-36 329.5,-36"/>
<text text-anchor="middle" x="314.5" y="-14.3" font-family="Times,serif" font-size="14.00">Load</text>
</g>
<!-- ast.Name object at 0x7144e66761d0&#45;&gt;ast.Load object at 0x71451b0c6b90 -->
<g id="edge8" class="edge">
<title>ast.Name object at 0x7144e66761d0&#45;&gt;ast.Load object at 0x71451b0c6b90</title>
<path fill="none" stroke="black" d="M320.66,-143.87C319.46,-119.67 317.27,-75.21 315.85,-46.39"/>
<polygon fill="black" stroke="black" points="319.34,-46 315.35,-36.19 312.34,-46.35 319.34,-46"/>
</g>
<!-- ast.Subscript object at 0x7144e6674f90&#45;&gt;ast.Load object at 0x71451b0c6b90 -->
<g id="edge15" class="edge">
<title>ast.Subscript object at 0x7144e6674f90&#45;&gt;ast.Load object at 0x71451b0c6b90</title>
<path fill="none" stroke="black" d="M402.74,-143.97C393.15,-133.87 381.15,-120.62 371.5,-108 356.03,-87.77 340.58,-63.31 329.67,-45.16"/>
<polygon fill="black" stroke="black" points="332.53,-43.11 324.41,-36.3 326.51,-46.68 332.53,-43.11"/>
</g>
<!-- ast.Name object at 0x7144e6821c10 -->
<g id="node11" class="node">
<title>ast.Name object at 0x7144e6821c10</title>
<path fill="#66cdaa" stroke="black" d="M422.5,-108C422.5,-108 392.5,-108 392.5,-108 386.5,-108 380.5,-102 380.5,-96 380.5,-96 380.5,-84 380.5,-84 380.5,-78 386.5,-72 392.5,-72 392.5,-72 422.5,-72 422.5,-72 428.5,-72 434.5,-78 434.5,-84 434.5,-84 434.5,-96 434.5,-96 434.5,-102 428.5,-108 422.5,-108"/>
<text text-anchor="middle" x="407.5" y="-86.3" font-family="Times,serif" font-size="14.00">Name</text>
</g>
<!-- ast.Subscript object at 0x7144e6674f90&#45;&gt;ast.Name object at 0x7144e6821c10 -->
<g id="edge10" class="edge">
<title>ast.Subscript object at 0x7144e6674f90&#45;&gt;ast.Name object at 0x7144e6821c10</title>
<path fill="none" stroke="black" d="M416.53,-143.7C415.21,-135.98 413.62,-126.71 412.15,-118.11"/>
<polygon fill="black" stroke="black" points="415.57,-117.37 410.43,-108.1 408.67,-118.55 415.57,-117.37"/>
</g>
<!-- ast.Slice object at 0x7144e6821e90 -->
<g id="node12" class="node">
<title>ast.Slice object at 0x7144e6821e90</title>
<path fill="#66cdaa" stroke="black" d="M604.5,-108C604.5,-108 574.5,-108 574.5,-108 568.5,-108 562.5,-102 562.5,-96 562.5,-96 562.5,-84 562.5,-84 562.5,-78 568.5,-72 574.5,-72 574.5,-72 604.5,-72 604.5,-72 610.5,-72 616.5,-78 616.5,-84 616.5,-84 616.5,-96 616.5,-96 616.5,-102 610.5,-108 604.5,-108"/>
<text text-anchor="middle" x="589.5" y="-86.3" font-family="Times,serif" font-size="14.00">Slice</text>
</g>
<!-- ast.Subscript object at 0x7144e6674f90&#45;&gt;ast.Slice object at 0x7144e6821e90 -->
<g id="edge12" class="edge">
<title>ast.Subscript object at 0x7144e6674f90&#45;&gt;ast.Slice object at 0x7144e6821e90</title>
<path fill="none" stroke="black" d="M453.62,-148.2C478.83,-138.59 514.14,-124.81 553.04,-108.08"/>
<polygon fill="black" stroke="black" points="554.67,-111.18 562.46,-104 551.89,-104.76 554.67,-111.18"/>
</g>
<!-- ast.Name object at 0x7144e6821c10&#45;&gt;ast.Load object at 0x71451b0c6b90 -->
<g id="edge11" class="edge">
<title>ast.Name object at 0x7144e6821c10&#45;&gt;ast.Load object at 0x71451b0c6b90</title>
<path fill="none" stroke="black" d="M384.51,-71.7C372.69,-62.8 358.11,-51.82 345.32,-42.2"/>
<polygon fill="black" stroke="black" points="347.32,-39.32 337.22,-36.1 343.11,-44.91 347.32,-39.32"/>
</g>
<!-- ast.Constant object at 0x7144e6822c10 -->
<g id="node13" class="node">
<title>ast.Constant object at 0x7144e6822c10</title>
<path fill="#66cdaa" stroke="black" d="M568,-36C568,-36 527,-36 527,-36 521,-36 515,-30 515,-24 515,-24 515,-12 515,-12 515,-6 521,0 527,0 527,0 568,0 568,0 574,0 580,-6 580,-12 580,-12 580,-24 580,-24 580,-30 574,-36 568,-36"/>
<text text-anchor="middle" x="547.5" y="-14.3" font-family="Times,serif" font-size="14.00">Constant</text>
</g>
<!-- ast.Slice object at 0x7144e6821e90&#45;&gt;ast.Constant object at 0x7144e6822c10 -->
<g id="edge13" class="edge">
<title>ast.Slice object at 0x7144e6821e90&#45;&gt;ast.Constant object at 0x7144e6822c10</title>
<path fill="none" stroke="black" d="M579.12,-71.7C574.24,-63.56 568.31,-53.69 562.92,-44.7"/>
<polygon fill="black" stroke="black" points="565.91,-42.88 557.76,-36.1 559.91,-46.48 565.91,-42.88"/>
</g>
<!-- ast.Constant object at 0x7144e68220d0 -->
<g id="node14" class="node">
<title>ast.Constant object at 0x7144e68220d0</title>
<path fill="#66cdaa" stroke="black" d="M651,-36C651,-36 610,-36 610,-36 604,-36 598,-30 598,-24 598,-24 598,-12 598,-12 598,-6 604,0 610,0 610,0 651,0 651,0 657,0 663,-6 663,-12 663,-12 663,-24 663,-24 663,-30 657,-36 651,-36"/>
<text text-anchor="middle" x="630.5" y="-14.3" font-family="Times,serif" font-size="14.00">Constant</text>
</g>
<!-- ast.Slice object at 0x7144e6821e90&#45;&gt;ast.Constant object at 0x7144e68220d0 -->
<g id="edge14" class="edge">
<title>ast.Slice object at 0x7144e6821e90&#45;&gt;ast.Constant object at 0x7144e68220d0</title>
<path fill="none" stroke="black" d="M599.63,-71.7C604.35,-63.64 610.06,-53.89 615.28,-44.98"/>
<polygon fill="black" stroke="black" points="618.45,-46.5 620.48,-36.1 612.41,-42.96 618.45,-46.5"/>
</g>
<!-- ast.Constant object at 0x7144e68224d0 -->
<g id="node18" class="node">
<title>ast.Constant object at 0x7144e68224d0</title>
<path fill="#66cdaa" stroke="black" d="M267,-252C267,-252 226,-252 226,-252 220,-252 214,-246 214,-240 214,-240 214,-228 214,-228 214,-222 220,-216 226,-216 226,-216 267,-216 267,-216 273,-216 279,-222 279,-228 279,-228 279,-240 279,-240 279,-246 273,-252 267,-252"/>
<text text-anchor="middle" x="246.5" y="-230.3" font-family="Times,serif" font-size="14.00">Constant</text>
</g>
<!-- ast.Return object at 0x7144e68236d0&#45;&gt;ast.Constant object at 0x7144e68224d0 -->
<g id="edge19" class="edge">
<title>ast.Return object at 0x7144e68236d0&#45;&gt;ast.Constant object at 0x7144e68224d0</title>
<path fill="none" stroke="black" d="M250.26,-287.7C249.71,-279.98 249.05,-270.71 248.44,-262.11"/>
<polygon fill="black" stroke="black" points="251.93,-261.83 247.72,-252.1 244.94,-262.33 251.93,-261.83"/>
</g>
<!-- ast.Name object at 0x7144e6823c90 -->
<g id="node20" class="node">
<title>ast.Name object at 0x7144e6823c90</title>
<path fill="#66cdaa" stroke="black" d="M194.5,-324C194.5,-324 164.5,-324 164.5,-324 158.5,-324 152.5,-318 152.5,-312 152.5,-312 152.5,-300 152.5,-300 152.5,-294 158.5,-288 164.5,-288 164.5,-288 194.5,-288 194.5,-288 200.5,-288 206.5,-294 206.5,-300 206.5,-300 206.5,-312 206.5,-312 206.5,-318 200.5,-324 194.5,-324"/>
<text text-anchor="middle" x="179.5" y="-302.3" font-family="Times,serif" font-size="14.00">Name</text>
</g>
<!-- ast.Assign object at 0x7144e6820890&#45;&gt;ast.Name object at 0x7144e6823c90 -->
<g id="edge21" class="edge">
<title>ast.Assign object at 0x7144e6820890&#45;&gt;ast.Name object at 0x7144e6823c90</title>
<path fill="none" stroke="black" d="M179.5,-359.7C179.5,-351.98 179.5,-342.71 179.5,-334.11"/>
<polygon fill="black" stroke="black" points="183,-334.1 179.5,-324.1 176,-334.1 183,-334.1"/>
</g>
<!-- ast.Call object at 0x7144e68207d0 -->
<g id="node22" class="node">
<title>ast.Call object at 0x7144e68207d0</title>
<path fill="#66cdaa" stroke="black" d="M122.5,-324C122.5,-324 92.5,-324 92.5,-324 86.5,-324 80.5,-318 80.5,-312 80.5,-312 80.5,-300 80.5,-300 80.5,-294 86.5,-288 92.5,-288 92.5,-288 122.5,-288 122.5,-288 128.5,-288 134.5,-294 134.5,-300 134.5,-300 134.5,-312 134.5,-312 134.5,-318 128.5,-324 122.5,-324"/>
<text text-anchor="middle" x="107.5" y="-302.3" font-family="Times,serif" font-size="14.00">Call</text>
</g>
<!-- ast.Assign object at 0x7144e6820890&#45;&gt;ast.Call object at 0x7144e68207d0 -->
<g id="edge23" class="edge">
<title>ast.Assign object at 0x7144e6820890&#45;&gt;ast.Call object at 0x7144e68207d0</title>
<path fill="none" stroke="black" d="M161.7,-359.7C152.9,-351.14 142.12,-340.66 132.5,-331.3"/>
<polygon fill="black" stroke="black" points="134.7,-328.57 125.09,-324.1 129.82,-333.58 134.7,-328.57"/>
</g>
<!-- ast.Store object at 0x71451b0c6c10 -->
<g id="node21" class="node">
<title>ast.Store object at 0x71451b0c6c10</title>
<path fill="#66cdaa" stroke="black" d="M183.5,-252C183.5,-252 153.5,-252 153.5,-252 147.5,-252 141.5,-246 141.5,-240 141.5,-240 141.5,-228 141.5,-228 141.5,-222 147.5,-216 153.5,-216 153.5,-216 183.5,-216 183.5,-216 189.5,-216 195.5,-222 195.5,-228 195.5,-228 195.5,-240 195.5,-240 195.5,-246 189.5,-252 183.5,-252"/>
<text text-anchor="middle" x="168.5" y="-230.3" font-family="Times,serif" font-size="14.00">Store</text>
</g>
<!-- ast.Name object at 0x7144e6823c90&#45;&gt;ast.Store object at 0x71451b0c6c10 -->
<g id="edge22" class="edge">
<title>ast.Name object at 0x7144e6823c90&#45;&gt;ast.Store object at 0x71451b0c6c10</title>
<path fill="none" stroke="black" d="M176.78,-287.7C175.57,-279.98 174.11,-270.71 172.76,-262.11"/>
<polygon fill="black" stroke="black" points="176.2,-261.44 171.19,-252.1 169.28,-262.53 176.2,-261.44"/>
</g>
<!-- ast.Name object at 0x7144e68210d0 -->
<g id="node23" class="node">
<title>ast.Name object at 0x7144e68210d0</title>
<path fill="#66cdaa" stroke="black" d="M262.5,-180C262.5,-180 232.5,-180 232.5,-180 226.5,-180 220.5,-174 220.5,-168 220.5,-168 220.5,-156 220.5,-156 220.5,-150 226.5,-144 232.5,-144 232.5,-144 262.5,-144 262.5,-144 268.5,-144 274.5,-150 274.5,-156 274.5,-156 274.5,-168 274.5,-168 274.5,-174 268.5,-180 262.5,-180"/>
<text text-anchor="middle" x="247.5" y="-158.3" font-family="Times,serif" font-size="14.00">Name</text>
</g>
<!-- ast.Call object at 0x7144e68207d0&#45;&gt;ast.Name object at 0x7144e68210d0 -->
<g id="edge24" class="edge">
<title>ast.Call object at 0x7144e68207d0&#45;&gt;ast.Name object at 0x7144e68210d0</title>
<path fill="none" stroke="black" d="M108.13,-287.95C109.7,-268.43 115,-236.51 132.5,-216 135.32,-212.7 178.42,-193.3 211.03,-178.93"/>
<polygon fill="black" stroke="black" points="212.59,-182.06 220.33,-174.84 209.77,-175.66 212.59,-182.06"/>
</g>
<!-- ast.Call object at 0x71446a987e90 -->
<g id="node24" class="node">
<title>ast.Call object at 0x71446a987e90</title>
<path fill="#66cdaa" stroke="black" d="M73.5,-252C73.5,-252 43.5,-252 43.5,-252 37.5,-252 31.5,-246 31.5,-240 31.5,-240 31.5,-228 31.5,-228 31.5,-222 37.5,-216 43.5,-216 43.5,-216 73.5,-216 73.5,-216 79.5,-216 85.5,-222 85.5,-228 85.5,-228 85.5,-240 85.5,-240 85.5,-246 79.5,-252 73.5,-252"/>
<text text-anchor="middle" x="58.5" y="-230.3" font-family="Times,serif" font-size="14.00">Call</text>
</g>
<!-- ast.Call object at 0x7144e68207d0&#45;&gt;ast.Call object at 0x71446a987e90 -->
<g id="edge26" class="edge">
<title>ast.Call object at 0x7144e68207d0&#45;&gt;ast.Call object at 0x71446a987e90</title>
<path fill="none" stroke="black" d="M95.39,-287.7C89.63,-279.47 82.64,-269.48 76.29,-260.42"/>
<polygon fill="black" stroke="black" points="79.08,-258.29 70.47,-252.1 73.34,-262.3 79.08,-258.29"/>
</g>
<!-- ast.Name object at 0x7144e68210d0&#45;&gt;ast.Load object at 0x71451b0c6b90 -->
<g id="edge25" class="edge">
<title>ast.Name object at 0x7144e68210d0&#45;&gt;ast.Load object at 0x71451b0c6b90</title>
<path fill="none" stroke="black" d="M255.58,-143.87C267.15,-119.35 288.53,-74.03 302.11,-45.26"/>
<polygon fill="black" stroke="black" points="305.29,-46.73 306.39,-36.19 298.96,-43.74 305.29,-46.73"/>
</g>
<!-- ast.Name object at 0x71446a987850 -->
<g id="node25" class="node">
<title>ast.Name object at 0x71446a987850</title>
<path fill="#66cdaa" stroke="black" d="M186.5,-180C186.5,-180 156.5,-180 156.5,-180 150.5,-180 144.5,-174 144.5,-168 144.5,-168 144.5,-156 144.5,-156 144.5,-150 150.5,-144 156.5,-144 156.5,-144 186.5,-144 186.5,-144 192.5,-144 198.5,-150 198.5,-156 198.5,-156 198.5,-168 198.5,-168 198.5,-174 192.5,-180 186.5,-180"/>
<text text-anchor="middle" x="171.5" y="-158.3" font-family="Times,serif" font-size="14.00">Name</text>
</g>
<!-- ast.Call object at 0x71446a987e90&#45;&gt;ast.Name object at 0x71446a987850 -->
<g id="edge27" class="edge">
<title>ast.Call object at 0x71446a987e90&#45;&gt;ast.Name object at 0x71446a987850</title>
<path fill="none" stroke="black" d="M85.57,-216.23C100.55,-206.95 119.37,-195.29 135.57,-185.26"/>
<polygon fill="black" stroke="black" points="137.6,-188.11 144.26,-179.87 133.92,-182.16 137.6,-188.11"/>
</g>
<!-- ast.Subscript object at 0x71446a987490 -->
<g id="node26" class="node">
<title>ast.Subscript object at 0x71446a987490</title>
<path fill="#66cdaa" stroke="black" d="M105.5,-180C105.5,-180 61.5,-180 61.5,-180 55.5,-180 49.5,-174 49.5,-168 49.5,-168 49.5,-156 49.5,-156 49.5,-150 55.5,-144 61.5,-144 61.5,-144 105.5,-144 105.5,-144 111.5,-144 117.5,-150 117.5,-156 117.5,-156 117.5,-168 117.5,-168 117.5,-174 111.5,-180 105.5,-180"/>
<text text-anchor="middle" x="83.5" y="-158.3" font-family="Times,serif" font-size="14.00">Subscript</text>
</g>
<!-- ast.Call object at 0x71446a987e90&#45;&gt;ast.Subscript object at 0x71446a987490 -->
<g id="edge29" class="edge">
<title>ast.Call object at 0x71446a987e90&#45;&gt;ast.Subscript object at 0x71446a987490</title>
<path fill="none" stroke="black" d="M64.68,-215.7C67.5,-207.81 70.89,-198.3 74.02,-189.55"/>
<polygon fill="black" stroke="black" points="77.32,-190.7 77.39,-180.1 70.73,-188.34 77.32,-190.7"/>
</g>
<!-- ast.Name object at 0x71446a987850&#45;&gt;ast.Load object at 0x71451b0c6b90 -->
<g id="edge28" class="edge">
<title>ast.Name object at 0x71446a987850&#45;&gt;ast.Load object at 0x71451b0c6b90</title>
<path fill="none" stroke="black" d="M188.75,-143.87C213.98,-118.82 261.07,-72.05 289.92,-43.41"/>
<polygon fill="black" stroke="black" points="292.56,-45.72 297.19,-36.19 287.63,-40.75 292.56,-45.72"/>
</g>
<!-- ast.Subscript object at 0x71446a987490&#45;&gt;ast.Load object at 0x71451b0c6b90 -->
<g id="edge35" class="edge">
<title>ast.Subscript object at 0x71446a987490&#45;&gt;ast.Load object at 0x71451b0c6b90</title>
<path fill="none" stroke="black" d="M91.63,-143.69C101.91,-123.62 121.46,-90.88 147.5,-72 186.5,-43.72 241.16,-30.15 277.17,-23.91"/>
<polygon fill="black" stroke="black" points="277.95,-27.33 287.26,-22.27 276.83,-20.42 277.95,-27.33"/>
</g>
<!-- ast.Name object at 0x71446a987fd0 -->
<g id="node27" class="node">
<title>ast.Name object at 0x71446a987fd0</title>
<path fill="#66cdaa" stroke="black" d="M198.5,-108C198.5,-108 168.5,-108 168.5,-108 162.5,-108 156.5,-102 156.5,-96 156.5,-96 156.5,-84 156.5,-84 156.5,-78 162.5,-72 168.5,-72 168.5,-72 198.5,-72 198.5,-72 204.5,-72 210.5,-78 210.5,-84 210.5,-84 210.5,-96 210.5,-96 210.5,-102 204.5,-108 198.5,-108"/>
<text text-anchor="middle" x="183.5" y="-86.3" font-family="Times,serif" font-size="14.00">Name</text>
</g>
<!-- ast.Subscript object at 0x71446a987490&#45;&gt;ast.Name object at 0x71446a987fd0 -->
<g id="edge30" class="edge">
<title>ast.Subscript object at 0x71446a987490&#45;&gt;ast.Name object at 0x71446a987fd0</title>
<path fill="none" stroke="black" d="M107.96,-143.88C120.8,-134.89 136.7,-123.76 150.59,-114.03"/>
<polygon fill="black" stroke="black" points="152.76,-116.79 158.94,-108.19 148.74,-111.06 152.76,-116.79"/>
</g>
<!-- ast.Slice object at 0x71446a987990 -->
<g id="node28" class="node">
<title>ast.Slice object at 0x71446a987990</title>
<path fill="#66cdaa" stroke="black" d="M88.5,-108C88.5,-108 58.5,-108 58.5,-108 52.5,-108 46.5,-102 46.5,-96 46.5,-96 46.5,-84 46.5,-84 46.5,-78 52.5,-72 58.5,-72 58.5,-72 88.5,-72 88.5,-72 94.5,-72 100.5,-78 100.5,-84 100.5,-84 100.5,-96 100.5,-96 100.5,-102 94.5,-108 88.5,-108"/>
<text text-anchor="middle" x="73.5" y="-86.3" font-family="Times,serif" font-size="14.00">Slice</text>
</g>
<!-- ast.Subscript object at 0x71446a987490&#45;&gt;ast.Slice object at 0x71446a987990 -->
<g id="edge32" class="edge">
<title>ast.Subscript object at 0x71446a987490&#45;&gt;ast.Slice object at 0x71446a987990</title>
<path fill="none" stroke="black" d="M81.03,-143.7C79.93,-135.98 78.6,-126.71 77.37,-118.11"/>
<polygon fill="black" stroke="black" points="80.82,-117.51 75.94,-108.1 73.89,-118.5 80.82,-117.51"/>
</g>
<!-- ast.Name object at 0x71446a987fd0&#45;&gt;ast.Load object at 0x71451b0c6b90 -->
<g id="edge31" class="edge">
<title>ast.Name object at 0x71446a987fd0&#45;&gt;ast.Load object at 0x71451b0c6b90</title>
<path fill="none" stroke="black" d="M210.64,-74.5C230.32,-63.98 257.12,-49.66 278.56,-38.2"/>
<polygon fill="black" stroke="black" points="280.22,-41.29 287.39,-33.49 276.92,-35.11 280.22,-41.29"/>
</g>
<!-- ast.Constant object at 0x71446a987690 -->
<g id="node29" class="node">
<title>ast.Constant object at 0x71446a987690</title>
<path fill="#66cdaa" stroke="black" d="M136,-36C136,-36 95,-36 95,-36 89,-36 83,-30 83,-24 83,-24 83,-12 83,-12 83,-6 89,0 95,0 95,0 136,0 136,0 142,0 148,-6 148,-12 148,-12 148,-24 148,-24 148,-30 142,-36 136,-36"/>
<text text-anchor="middle" x="115.5" y="-14.3" font-family="Times,serif" font-size="14.00">Constant</text>
</g>
<!-- ast.Slice object at 0x71446a987990&#45;&gt;ast.Constant object at 0x71446a987690 -->
<g id="edge33" class="edge">
<title>ast.Slice object at 0x71446a987990&#45;&gt;ast.Constant object at 0x71446a987690</title>
<path fill="none" stroke="black" d="M83.88,-71.7C88.76,-63.56 94.69,-53.69 100.08,-44.7"/>
<polygon fill="black" stroke="black" points="103.09,-46.48 105.24,-36.1 97.09,-42.88 103.09,-46.48"/>
</g>
<!-- ast.Constant object at 0x71446a987710 -->
<g id="node30" class="node">
<title>ast.Constant object at 0x71446a987710</title>
<path fill="#66cdaa" stroke="black" d="M53,-36C53,-36 12,-36 12,-36 6,-36 0,-30 0,-24 0,-24 0,-12 0,-12 0,-6 6,0 12,0 12,0 53,0 53,0 59,0 65,-6 65,-12 65,-12 65,-24 65,-24 65,-30 59,-36 53,-36"/>
<text text-anchor="middle" x="32.5" y="-14.3" font-family="Times,serif" font-size="14.00">Constant</text>
</g>
<!-- ast.Slice object at 0x71446a987990&#45;&gt;ast.Constant object at 0x71446a987710 -->
<g id="edge34" class="edge">
<title>ast.Slice object at 0x71446a987990&#45;&gt;ast.Constant object at 0x71446a987710</title>
<path fill="none" stroke="black" d="M63.37,-71.7C58.65,-63.64 52.94,-53.89 47.72,-44.98"/>
<polygon fill="black" stroke="black" points="50.59,-42.96 42.52,-36.1 44.55,-46.5 50.59,-42.96"/>
</g>
<!-- ast.Subscript object at 0x71446a987510 -->
<g id="node32" class="node">
<title>ast.Subscript object at 0x71446a987510</title>
<path fill="#66cdaa" stroke="black" d="M548.5,-180C548.5,-180 504.5,-180 504.5,-180 498.5,-180 492.5,-174 492.5,-168 492.5,-168 492.5,-156 492.5,-156 492.5,-150 498.5,-144 504.5,-144 504.5,-144 548.5,-144 548.5,-144 554.5,-144 560.5,-150 560.5,-156 560.5,-156 560.5,-168 560.5,-168 560.5,-174 554.5,-180 548.5,-180"/>
<text text-anchor="middle" x="526.5" y="-158.3" font-family="Times,serif" font-size="14.00">Subscript</text>
</g>
<!-- ast.Return object at 0x71446a987650&#45;&gt;ast.Subscript object at 0x71446a987510 -->
<g id="edge37" class="edge">
<title>ast.Return object at 0x71446a987650&#45;&gt;ast.Subscript object at 0x71446a987510</title>
<path fill="none" stroke="black" d="M447.2,-359.92C467.08,-337.18 500.65,-294.82 516.5,-252 523.82,-232.22 526.19,-208.42 526.8,-190.41"/>
<polygon fill="black" stroke="black" points="530.3,-190.35 526.98,-180.29 523.3,-190.23 530.3,-190.35"/>
</g>
<!-- ast.Subscript object at 0x71446a987510&#45;&gt;ast.Load object at 0x71451b0c6b90 -->
<g id="edge41" class="edge">
<title>ast.Subscript object at 0x71446a987510&#45;&gt;ast.Load object at 0x71451b0c6b90</title>
<path fill="none" stroke="black" d="M512.06,-143.84C492.67,-121.11 458.88,-82.64 443.5,-72 415.16,-52.4 378.46,-38.21 351.46,-29.48"/>
<polygon fill="black" stroke="black" points="352.21,-26.04 341.62,-26.4 350.12,-32.72 352.21,-26.04"/>
</g>
<!-- ast.Name object at 0x71446a987750 -->
<g id="node33" class="node">
<title>ast.Name object at 0x71446a987750</title>
<path fill="#66cdaa" stroke="black" d="M532.5,-108C532.5,-108 502.5,-108 502.5,-108 496.5,-108 490.5,-102 490.5,-96 490.5,-96 490.5,-84 490.5,-84 490.5,-78 496.5,-72 502.5,-72 502.5,-72 532.5,-72 532.5,-72 538.5,-72 544.5,-78 544.5,-84 544.5,-84 544.5,-96 544.5,-96 544.5,-102 538.5,-108 532.5,-108"/>
<text text-anchor="middle" x="517.5" y="-86.3" font-family="Times,serif" font-size="14.00">Name</text>
</g>
<!-- ast.Subscript object at 0x71446a987510&#45;&gt;ast.Name object at 0x71446a987750 -->
<g id="edge38" class="edge">
<title>ast.Subscript object at 0x71446a987510&#45;&gt;ast.Name object at 0x71446a987750</title>
<path fill="none" stroke="black" d="M524.28,-143.7C523.28,-135.98 522.09,-126.71 520.99,-118.11"/>
<polygon fill="black" stroke="black" points="524.45,-117.58 519.7,-108.1 517.5,-118.47 524.45,-117.58"/>
</g>
<!-- ast.Constant object at 0x71446a987e10 -->
<g id="node34" class="node">
<title>ast.Constant object at 0x71446a987e10</title>
<path fill="#66cdaa" stroke="black" d="M688,-108C688,-108 647,-108 647,-108 641,-108 635,-102 635,-96 635,-96 635,-84 635,-84 635,-78 641,-72 647,-72 647,-72 688,-72 688,-72 694,-72 700,-78 700,-84 700,-84 700,-96 700,-96 700,-102 694,-108 688,-108"/>
<text text-anchor="middle" x="667.5" y="-86.3" font-family="Times,serif" font-size="14.00">Constant</text>
</g>
<!-- ast.Subscript object at 0x71446a987510&#45;&gt;ast.Constant object at 0x71446a987e10 -->
<g id="edge40" class="edge">
<title>ast.Subscript object at 0x71446a987510&#45;&gt;ast.Constant object at 0x71446a987e10</title>
<path fill="none" stroke="black" d="M560.63,-144.05C580.14,-134.37 604.76,-122.15 625.45,-111.87"/>
<polygon fill="black" stroke="black" points="627.25,-114.89 634.65,-107.31 624.14,-108.62 627.25,-114.89"/>
</g>
<!-- ast.Name object at 0x71446a987750&#45;&gt;ast.Load object at 0x71451b0c6b90 -->
<g id="edge39" class="edge">
<title>ast.Name object at 0x71446a987750&#45;&gt;ast.Load object at 0x71451b0c6b90</title>
<path fill="none" stroke="black" d="M490.27,-77.37C485.7,-75.51 480.98,-73.66 476.5,-72 434,-56.26 384.37,-40.39 351.35,-30.17"/>
<polygon fill="black" stroke="black" points="352.25,-26.78 341.66,-27.19 350.19,-33.47 352.25,-26.78"/>
</g>
</g>
</svg>
