<?xml version="1.0" encoding="UTF-8" standalone="no"?>
<!DOCTYPE svg PUBLIC "-//W3C//DTD SVG 1.1//EN"
 "http://www.w3.org/Graphics/SVG/1.1/DTD/svg11.dtd">
<!-- Generated by graphviz version 2.50.0 (0)
 -->
<!-- Pages: 1 -->
<svg width="997pt" height="548pt"
 viewBox="0.00 0.00 996.73 548.00" xmlns="http://www.w3.org/2000/svg" xmlns:xlink="http://www.w3.org/1999/xlink">
<g id="graph0" class="graph" transform="scale(1 1) rotate(0) translate(4 544)">
<polygon fill="white" stroke="transparent" points="-4,4 -4,-544 992.73,-544 992.73,4 -4,4"/>
<!-- ast.Module object at 0x766fed279650 -->
<g id="node1" class="node">
<title>ast.Module object at 0x766fed279650</title>
<path fill="#66cdaa" stroke="black" d="M329.73,-540C329.73,-540 294.73,-540 294.73,-540 288.73,-540 282.73,-534 282.73,-528 282.73,-528 282.73,-516 282.73,-516 282.73,-510 288.73,-504 294.73,-504 294.73,-504 329.73,-504 329.73,-504 335.73,-504 341.73,-510 341.73,-516 341.73,-516 341.73,-528 341.73,-528 341.73,-534 335.73,-540 329.73,-540"/>
<text text-anchor="middle" x="312.23" y="-518.3" font-family="Times,serif" font-size="14.00">Module</text>
</g>
<!-- ast.ImportFrom object at 0x766fed27b450 -->
<g id="node2" class="node">
<title>ast.ImportFrom object at 0x766fed27b450</title>
<path fill="#66cdaa" stroke="black" d="M291.23,-468C291.23,-468 231.23,-468 231.23,-468 225.23,-468 219.23,-462 219.23,-456 219.23,-456 219.23,-444 219.23,-444 219.23,-438 225.23,-432 231.23,-432 231.23,-432 291.23,-432 291.23,-432 297.23,-432 303.23,-438 303.23,-444 303.23,-444 303.23,-456 303.23,-456 303.23,-462 297.23,-468 291.23,-468"/>
<text text-anchor="middle" x="261.23" y="-446.3" font-family="Times,serif" font-size="14.00">ImportFrom</text>
</g>
<!-- ast.Module object at 0x766fed279650&#45;&gt;ast.ImportFrom object at 0x766fed27b450 -->
<g id="edge1" class="edge">
<title>ast.Module object at 0x766fed279650&#45;&gt;ast.ImportFrom object at 0x766fed27b450</title>
<path fill="none" stroke="black" d="M299.63,-503.7C293.64,-495.47 286.36,-485.48 279.75,-476.42"/>
<polygon fill="black" stroke="black" points="282.41,-474.13 273.69,-468.1 276.75,-478.25 282.41,-474.13"/>
</g>
<!-- ast.FunctionDef object at 0x766fe2f39c50 -->
<g id="node4" class="node">
<title>ast.FunctionDef object at 0x766fe2f39c50</title>
<path fill="#66cdaa" stroke="black" d="M414.73,-468C414.73,-468 353.73,-468 353.73,-468 347.73,-468 341.73,-462 341.73,-456 341.73,-456 341.73,-444 341.73,-444 341.73,-438 347.73,-432 353.73,-432 353.73,-432 414.73,-432 414.73,-432 420.73,-432 426.73,-438 426.73,-444 426.73,-444 426.73,-456 426.73,-456 426.73,-462 420.73,-468 414.73,-468"/>
<text text-anchor="middle" x="384.23" y="-446.3" font-family="Times,serif" font-size="14.00">FunctionDef</text>
</g>
<!-- ast.Module object at 0x766fed279650&#45;&gt;ast.FunctionDef object at 0x766fe2f39c50 -->
<g id="edge3" class="edge">
<title>ast.Module object at 0x766fed279650&#45;&gt;ast.FunctionDef object at 0x766fe2f39c50</title>
<path fill="none" stroke="black" d="M330.03,-503.7C338.84,-495.14 349.62,-484.66 359.23,-475.3"/>
<polygon fill="black" stroke="black" points="361.91,-477.58 366.64,-468.1 357.03,-472.57 361.91,-477.58"/>
</g>
<!-- ast.alias object at 0x766fed278450 -->
<g id="node3" class="node">
<title>ast.alias object at 0x766fed278450</title>
<path fill="#66cdaa" stroke="black" d="M173.23,-396C173.23,-396 143.23,-396 143.23,-396 137.23,-396 131.23,-390 131.23,-384 131.23,-384 131.23,-372 131.23,-372 131.23,-366 137.23,-360 143.23,-360 143.23,-360 173.23,-360 173.23,-360 179.23,-360 185.23,-366 185.23,-372 185.23,-372 185.23,-384 185.23,-384 185.23,-390 179.23,-396 173.23,-396"/>
<text text-anchor="middle" x="158.23" y="-374.3" font-family="Times,serif" font-size="14.00">alias</text>
</g>
<!-- ast.ImportFrom object at 0x766fed27b450&#45;&gt;ast.alias object at 0x766fed278450 -->
<g id="edge2" class="edge">
<title>ast.ImportFrom object at 0x766fed27b450&#45;&gt;ast.alias object at 0x766fed278450</title>
<path fill="none" stroke="black" d="M236.04,-431.88C222.82,-422.89 206.44,-411.76 192.13,-402.03"/>
<polygon fill="black" stroke="black" points="193.76,-398.92 183.53,-396.19 189.83,-404.71 193.76,-398.92"/>
</g>
<!-- ast.arguments object at 0x766fed278590 -->
<g id="node5" class="node">
<title>ast.arguments object at 0x766fed278590</title>
<path fill="#66cdaa" stroke="black" d="M786.23,-396C786.23,-396 736.23,-396 736.23,-396 730.23,-396 724.23,-390 724.23,-384 724.23,-384 724.23,-372 724.23,-372 724.23,-366 730.23,-360 736.23,-360 736.23,-360 786.23,-360 786.23,-360 792.23,-360 798.23,-366 798.23,-372 798.23,-372 798.23,-384 798.23,-384 798.23,-390 792.23,-396 786.23,-396"/>
<text text-anchor="middle" x="761.23" y="-374.3" font-family="Times,serif" font-size="14.00">arguments</text>
</g>
<!-- ast.FunctionDef object at 0x766fe2f39c50&#45;&gt;ast.arguments object at 0x766fed278590 -->
<g id="edge4" class="edge">
<title>ast.FunctionDef object at 0x766fe2f39c50&#45;&gt;ast.arguments object at 0x766fed278590</title>
<path fill="none" stroke="black" d="M426.75,-441.11C497.83,-427.91 640.28,-401.46 714.24,-387.72"/>
<polygon fill="black" stroke="black" points="715.02,-391.14 724.21,-385.87 713.74,-384.26 715.02,-391.14"/>
</g>
<!-- ast.Assign object at 0x766fed278d50 -->
<g id="node7" class="node">
<title>ast.Assign object at 0x766fed278d50</title>
<path fill="#66cdaa" stroke="black" d="M427.23,-252C427.23,-252 397.23,-252 397.23,-252 391.23,-252 385.23,-246 385.23,-240 385.23,-240 385.23,-228 385.23,-228 385.23,-222 391.23,-216 397.23,-216 397.23,-216 427.23,-216 427.23,-216 433.23,-216 439.23,-222 439.23,-228 439.23,-228 439.23,-240 439.23,-240 439.23,-246 433.23,-252 427.23,-252"/>
<text text-anchor="middle" x="412.23" y="-230.3" font-family="Times,serif" font-size="14.00">Assign</text>
</g>
<!-- ast.FunctionDef object at 0x766fe2f39c50&#45;&gt;ast.Assign object at 0x766fed278d50 -->
<g id="edge6" class="edge">
<title>ast.FunctionDef object at 0x766fe2f39c50&#45;&gt;ast.Assign object at 0x766fed278d50</title>
<path fill="none" stroke="black" d="M386.48,-431.85C391.32,-394.83 402.79,-307.18 408.65,-262.39"/>
<polygon fill="black" stroke="black" points="412.15,-262.6 409.98,-252.23 405.21,-261.69 412.15,-262.6"/>
</g>
<!-- ast.Assign object at 0x766fed2797d0 -->
<g id="node14" class="node">
<title>ast.Assign object at 0x766fed2797d0</title>
<path fill="#66cdaa" stroke="black" d="M245.23,-396C245.23,-396 215.23,-396 215.23,-396 209.23,-396 203.23,-390 203.23,-384 203.23,-384 203.23,-372 203.23,-372 203.23,-366 209.23,-360 215.23,-360 215.23,-360 245.23,-360 245.23,-360 251.23,-360 257.23,-366 257.23,-372 257.23,-372 257.23,-384 257.23,-384 257.23,-390 251.23,-396 245.23,-396"/>
<text text-anchor="middle" x="230.23" y="-374.3" font-family="Times,serif" font-size="14.00">Assign</text>
</g>
<!-- ast.FunctionDef object at 0x766fe2f39c50&#45;&gt;ast.Assign object at 0x766fed2797d0 -->
<g id="edge14" class="edge">
<title>ast.FunctionDef object at 0x766fe2f39c50&#45;&gt;ast.Assign object at 0x766fed2797d0</title>
<path fill="none" stroke="black" d="M346.56,-431.88C322.19,-420.8 290.64,-406.46 266.54,-395.5"/>
<polygon fill="black" stroke="black" points="267.93,-392.29 257.38,-391.34 265.03,-398.66 267.93,-392.29"/>
</g>
<!-- ast.For object at 0x766fed278750 -->
<g id="node17" class="node">
<title>ast.For object at 0x766fed278750</title>
<path fill="#66cdaa" stroke="black" d="M344.23,-396C344.23,-396 314.23,-396 314.23,-396 308.23,-396 302.23,-390 302.23,-384 302.23,-384 302.23,-372 302.23,-372 302.23,-366 308.23,-360 314.23,-360 314.23,-360 344.23,-360 344.23,-360 350.23,-360 356.23,-366 356.23,-372 356.23,-372 356.23,-384 356.23,-384 356.23,-390 350.23,-396 344.23,-396"/>
<text text-anchor="middle" x="329.23" y="-374.3" font-family="Times,serif" font-size="14.00">For</text>
</g>
<!-- ast.FunctionDef object at 0x766fe2f39c50&#45;&gt;ast.For object at 0x766fed278750 -->
<g id="edge18" class="edge">
<title>ast.FunctionDef object at 0x766fe2f39c50&#45;&gt;ast.For object at 0x766fed278750</title>
<path fill="none" stroke="black" d="M370.64,-431.7C364.11,-423.39 356.17,-413.28 348.99,-404.14"/>
<polygon fill="black" stroke="black" points="351.6,-401.81 342.67,-396.1 346.1,-406.13 351.6,-401.81"/>
</g>
<!-- ast.If object at 0x766fed278bd0 -->
<g id="node35" class="node">
<title>ast.If object at 0x766fed278bd0</title>
<path fill="#66cdaa" stroke="black" d="M789.23,-324C789.23,-324 759.23,-324 759.23,-324 753.23,-324 747.23,-318 747.23,-312 747.23,-312 747.23,-300 747.23,-300 747.23,-294 753.23,-288 759.23,-288 759.23,-288 789.23,-288 789.23,-288 795.23,-288 801.23,-294 801.23,-300 801.23,-300 801.23,-312 801.23,-312 801.23,-318 795.23,-324 789.23,-324"/>
<text text-anchor="middle" x="774.23" y="-302.3" font-family="Times,serif" font-size="14.00">If</text>
</g>
<!-- ast.FunctionDef object at 0x766fe2f39c50&#45;&gt;ast.If object at 0x766fed278bd0 -->
<g id="edge43" class="edge">
<title>ast.FunctionDef object at 0x766fe2f39c50&#45;&gt;ast.If object at 0x766fed278bd0</title>
<path fill="none" stroke="black" d="M427.09,-433.4C504.19,-405.32 665.01,-346.77 737.46,-320.39"/>
<polygon fill="black" stroke="black" points="738.88,-323.6 747.08,-316.89 736.48,-317.02 738.88,-323.6"/>
</g>
<!-- ast.arg object at 0x766fed27a210 -->
<g id="node6" class="node">
<title>ast.arg object at 0x766fed27a210</title>
<path fill="#66cdaa" stroke="black" d="M861.23,-324C861.23,-324 831.23,-324 831.23,-324 825.23,-324 819.23,-318 819.23,-312 819.23,-312 819.23,-300 819.23,-300 819.23,-294 825.23,-288 831.23,-288 831.23,-288 861.23,-288 861.23,-288 867.23,-288 873.23,-294 873.23,-300 873.23,-300 873.23,-312 873.23,-312 873.23,-318 867.23,-324 861.23,-324"/>
<text text-anchor="middle" x="846.23" y="-302.3" font-family="Times,serif" font-size="14.00">arg</text>
</g>
<!-- ast.arguments object at 0x766fed278590&#45;&gt;ast.arg object at 0x766fed27a210 -->
<g id="edge5" class="edge">
<title>ast.arguments object at 0x766fed278590&#45;&gt;ast.arg object at 0x766fed27a210</title>
<path fill="none" stroke="black" d="M782.24,-359.7C792.95,-350.88 806.12,-340.03 817.73,-330.47"/>
<polygon fill="black" stroke="black" points="819.97,-333.16 825.46,-324.1 815.52,-327.76 819.97,-333.16"/>
</g>
<!-- ast.Name object at 0x766fed278b90 -->
<g id="node8" class="node">
<title>ast.Name object at 0x766fed278b90</title>
<path fill="#66cdaa" stroke="black" d="M245.23,-180C245.23,-180 215.23,-180 215.23,-180 209.23,-180 203.23,-174 203.23,-168 203.23,-168 203.23,-156 203.23,-156 203.23,-150 209.23,-144 215.23,-144 215.23,-144 245.23,-144 245.23,-144 251.23,-144 257.23,-150 257.23,-156 257.23,-156 257.23,-168 257.23,-168 257.23,-174 251.23,-180 245.23,-180"/>
<text text-anchor="middle" x="230.23" y="-158.3" font-family="Times,serif" font-size="14.00">Name</text>
</g>
<!-- ast.Assign object at 0x766fed278d50&#45;&gt;ast.Name object at 0x766fed278b90 -->
<g id="edge7" class="edge">
<title>ast.Assign object at 0x766fed278d50&#45;&gt;ast.Name object at 0x766fed278b90</title>
<path fill="none" stroke="black" d="M385.04,-223.97C357.34,-214.6 313.04,-199.1 266.56,-179.96"/>
<polygon fill="black" stroke="black" points="267.82,-176.69 257.24,-176.08 265.13,-183.15 267.82,-176.69"/>
</g>
<!-- ast.Subscript object at 0x766fed2799d0 -->
<g id="node10" class="node">
<title>ast.Subscript object at 0x766fed2799d0</title>
<path fill="#66cdaa" stroke="black" d="M662.23,-180C662.23,-180 618.23,-180 618.23,-180 612.23,-180 606.23,-174 606.23,-168 606.23,-168 606.23,-156 606.23,-156 606.23,-150 612.23,-144 618.23,-144 618.23,-144 662.23,-144 662.23,-144 668.23,-144 674.23,-150 674.23,-156 674.23,-156 674.23,-168 674.23,-168 674.23,-174 668.23,-180 662.23,-180"/>
<text text-anchor="middle" x="640.23" y="-158.3" font-family="Times,serif" font-size="14.00">Subscript</text>
</g>
<!-- ast.Assign object at 0x766fed278d50&#45;&gt;ast.Subscript object at 0x766fed2799d0 -->
<g id="edge9" class="edge">
<title>ast.Assign object at 0x766fed278d50&#45;&gt;ast.Subscript object at 0x766fed2799d0</title>
<path fill="none" stroke="black" d="M439.28,-224.7C478.08,-212.79 549.94,-190.72 596.39,-176.46"/>
<polygon fill="black" stroke="black" points="597.65,-179.74 606.18,-173.46 595.59,-173.04 597.65,-179.74"/>
</g>
<!-- ast.Store object at 0x7670a7337c90 -->
<g id="node9" class="node">
<title>ast.Store object at 0x7670a7337c90</title>
<path fill="#66cdaa" stroke="black" d="M71.23,-108C71.23,-108 41.23,-108 41.23,-108 35.23,-108 29.23,-102 29.23,-96 29.23,-96 29.23,-84 29.23,-84 29.23,-78 35.23,-72 41.23,-72 41.23,-72 71.23,-72 71.23,-72 77.23,-72 83.23,-78 83.23,-84 83.23,-84 83.23,-96 83.23,-96 83.23,-102 77.23,-108 71.23,-108"/>
<text text-anchor="middle" x="56.23" y="-86.3" font-family="Times,serif" font-size="14.00">Store</text>
</g>
<!-- ast.Name object at 0x766fed278b90&#45;&gt;ast.Store object at 0x7670a7337c90 -->
<g id="edge8" class="edge">
<title>ast.Name object at 0x766fed278b90&#45;&gt;ast.Store object at 0x7670a7337c90</title>
<path fill="none" stroke="black" d="M203.2,-147.97C200.19,-146.6 197.16,-145.25 194.23,-144 160.25,-129.47 120.82,-114.52 92.84,-104.21"/>
<polygon fill="black" stroke="black" points="94.04,-100.92 83.44,-100.77 91.63,-107.5 94.04,-100.92"/>
</g>
<!-- ast.Name object at 0x766fed27a650 -->
<g id="node11" class="node">
<title>ast.Name object at 0x766fed27a650</title>
<path fill="#66cdaa" stroke="black" d="M771.23,-108C771.23,-108 741.23,-108 741.23,-108 735.23,-108 729.23,-102 729.23,-96 729.23,-96 729.23,-84 729.23,-84 729.23,-78 735.23,-72 741.23,-72 741.23,-72 771.23,-72 771.23,-72 777.23,-72 783.23,-78 783.23,-84 783.23,-84 783.23,-96 783.23,-96 783.23,-102 777.23,-108 771.23,-108"/>
<text text-anchor="middle" x="756.23" y="-86.3" font-family="Times,serif" font-size="14.00">Name</text>
</g>
<!-- ast.Subscript object at 0x766fed2799d0&#45;&gt;ast.Name object at 0x766fed27a650 -->
<g id="edge10" class="edge">
<title>ast.Subscript object at 0x766fed2799d0&#45;&gt;ast.Name object at 0x766fed27a650</title>
<path fill="none" stroke="black" d="M668.61,-143.88C684.12,-134.52 703.48,-122.83 720.07,-112.83"/>
<polygon fill="black" stroke="black" points="722.19,-115.63 728.95,-107.47 718.58,-109.64 722.19,-115.63"/>
</g>
<!-- ast.Load object at 0x7670a7337c10 -->
<g id="node12" class="node">
<title>ast.Load object at 0x7670a7337c10</title>
<path fill="#66cdaa" stroke="black" d="M577.23,-36C577.23,-36 547.23,-36 547.23,-36 541.23,-36 535.23,-30 535.23,-24 535.23,-24 535.23,-12 535.23,-12 535.23,-6 541.23,0 547.23,0 547.23,0 577.23,0 577.23,0 583.23,0 589.23,-6 589.23,-12 589.23,-12 589.23,-24 589.23,-24 589.23,-30 583.23,-36 577.23,-36"/>
<text text-anchor="middle" x="562.23" y="-14.3" font-family="Times,serif" font-size="14.00">Load</text>
</g>
<!-- ast.Subscript object at 0x766fed2799d0&#45;&gt;ast.Load object at 0x7670a7337c10 -->
<g id="edge13" class="edge">
<title>ast.Subscript object at 0x766fed2799d0&#45;&gt;ast.Load object at 0x7670a7337c10</title>
<path fill="none" stroke="black" d="M658.53,-143.87C675.99,-125.4 697.53,-95.48 682.23,-72 664.02,-44.04 627.35,-30.73 599.31,-24.45"/>
<polygon fill="black" stroke="black" points="599.92,-21 589.43,-22.44 598.53,-27.86 599.92,-21"/>
</g>
<!-- ast.Constant object at 0x766fed27ad50 -->
<g id="node13" class="node">
<title>ast.Constant object at 0x766fed27ad50</title>
<path fill="#66cdaa" stroke="black" d="M660.73,-108C660.73,-108 619.73,-108 619.73,-108 613.73,-108 607.73,-102 607.73,-96 607.73,-96 607.73,-84 607.73,-84 607.73,-78 613.73,-72 619.73,-72 619.73,-72 660.73,-72 660.73,-72 666.73,-72 672.73,-78 672.73,-84 672.73,-84 672.73,-96 672.73,-96 672.73,-102 666.73,-108 660.73,-108"/>
<text text-anchor="middle" x="640.23" y="-86.3" font-family="Times,serif" font-size="14.00">Constant</text>
</g>
<!-- ast.Subscript object at 0x766fed2799d0&#45;&gt;ast.Constant object at 0x766fed27ad50 -->
<g id="edge12" class="edge">
<title>ast.Subscript object at 0x766fed2799d0&#45;&gt;ast.Constant object at 0x766fed27ad50</title>
<path fill="none" stroke="black" d="M640.23,-143.7C640.23,-135.98 640.23,-126.71 640.23,-118.11"/>
<polygon fill="black" stroke="black" points="643.73,-118.1 640.23,-108.1 636.73,-118.1 643.73,-118.1"/>
</g>
<!-- ast.Name object at 0x766fed27a650&#45;&gt;ast.Load object at 0x7670a7337c10 -->
<g id="edge11" class="edge">
<title>ast.Name object at 0x766fed27a650&#45;&gt;ast.Load object at 0x7670a7337c10</title>
<path fill="none" stroke="black" d="M728.98,-77.43C724.41,-75.57 719.7,-73.7 715.23,-72 675.87,-57.04 630.19,-41.44 599.06,-31.07"/>
<polygon fill="black" stroke="black" points="600.09,-27.72 589.49,-27.9 597.88,-34.37 600.09,-27.72"/>
</g>
<!-- ast.Name object at 0x766fed27ba10 -->
<g id="node15" class="node">
<title>ast.Name object at 0x766fed27ba10</title>
<path fill="#66cdaa" stroke="black" d="M190.23,-324C190.23,-324 160.23,-324 160.23,-324 154.23,-324 148.23,-318 148.23,-312 148.23,-312 148.23,-300 148.23,-300 148.23,-294 154.23,-288 160.23,-288 160.23,-288 190.23,-288 190.23,-288 196.23,-288 202.23,-294 202.23,-300 202.23,-300 202.23,-312 202.23,-312 202.23,-318 196.23,-324 190.23,-324"/>
<text text-anchor="middle" x="175.23" y="-302.3" font-family="Times,serif" font-size="14.00">Name</text>
</g>
<!-- ast.Assign object at 0x766fed2797d0&#45;&gt;ast.Name object at 0x766fed27ba10 -->
<g id="edge15" class="edge">
<title>ast.Assign object at 0x766fed2797d0&#45;&gt;ast.Name object at 0x766fed27ba10</title>
<path fill="none" stroke="black" d="M216.64,-359.7C210.11,-351.39 202.17,-341.28 194.99,-332.14"/>
<polygon fill="black" stroke="black" points="197.6,-329.81 188.67,-324.1 192.1,-334.13 197.6,-329.81"/>
</g>
<!-- ast.Constant object at 0x766fed278550 -->
<g id="node16" class="node">
<title>ast.Constant object at 0x766fed278550</title>
<path fill="#66cdaa" stroke="black" d="M117.73,-324C117.73,-324 76.73,-324 76.73,-324 70.73,-324 64.73,-318 64.73,-312 64.73,-312 64.73,-300 64.73,-300 64.73,-294 70.73,-288 76.73,-288 76.73,-288 117.73,-288 117.73,-288 123.73,-288 129.73,-294 129.73,-300 129.73,-300 129.73,-312 129.73,-312 129.73,-318 123.73,-324 117.73,-324"/>
<text text-anchor="middle" x="97.23" y="-302.3" font-family="Times,serif" font-size="14.00">Constant</text>
</g>
<!-- ast.Assign object at 0x766fed2797d0&#45;&gt;ast.Constant object at 0x766fed278550 -->
<g id="edge17" class="edge">
<title>ast.Assign object at 0x766fed2797d0&#45;&gt;ast.Constant object at 0x766fed278550</title>
<path fill="none" stroke="black" d="M203,-362.67C184.46,-352.91 159.58,-339.82 138.61,-328.78"/>
<polygon fill="black" stroke="black" points="140.07,-325.59 129.59,-324.03 136.81,-331.79 140.07,-325.59"/>
</g>
<!-- ast.Name object at 0x766fed27ba10&#45;&gt;ast.Store object at 0x7670a7337c90 -->
<g id="edge16" class="edge">
<title>ast.Name object at 0x766fed27ba10&#45;&gt;ast.Store object at 0x7670a7337c90</title>
<path fill="none" stroke="black" d="M147.94,-291.94C144.69,-290.54 141.41,-289.2 138.23,-288 85.72,-268.24 50.78,-296.98 17.23,-252 -11.46,-213.52 2.26,-189.61 17.23,-144 20.55,-133.91 26.6,-124.15 32.96,-115.82"/>
<polygon fill="black" stroke="black" points="35.73,-117.97 39.34,-108.01 30.31,-113.54 35.73,-117.97"/>
</g>
<!-- ast.Name object at 0x766fed27b190 -->
<g id="node18" class="node">
<title>ast.Name object at 0x766fed27b190</title>
<path fill="#66cdaa" stroke="black" d="M262.23,-324C262.23,-324 232.23,-324 232.23,-324 226.23,-324 220.23,-318 220.23,-312 220.23,-312 220.23,-300 220.23,-300 220.23,-294 226.23,-288 232.23,-288 232.23,-288 262.23,-288 262.23,-288 268.23,-288 274.23,-294 274.23,-300 274.23,-300 274.23,-312 274.23,-312 274.23,-318 268.23,-324 262.23,-324"/>
<text text-anchor="middle" x="247.23" y="-302.3" font-family="Times,serif" font-size="14.00">Name</text>
</g>
<!-- ast.For object at 0x766fed278750&#45;&gt;ast.Name object at 0x766fed27b190 -->
<g id="edge19" class="edge">
<title>ast.For object at 0x766fed278750&#45;&gt;ast.Name object at 0x766fed27b190</title>
<path fill="none" stroke="black" d="M308.96,-359.7C298.74,-350.97 286.17,-340.24 275.05,-330.75"/>
<polygon fill="black" stroke="black" points="277.15,-327.94 267.27,-324.1 272.6,-333.26 277.15,-327.94"/>
</g>
<!-- ast.Call object at 0x766fed27a7d0 -->
<g id="node19" class="node">
<title>ast.Call object at 0x766fed27a7d0</title>
<path fill="#66cdaa" stroke="black" d="M317.23,-180C317.23,-180 287.23,-180 287.23,-180 281.23,-180 275.23,-174 275.23,-168 275.23,-168 275.23,-156 275.23,-156 275.23,-150 281.23,-144 287.23,-144 287.23,-144 317.23,-144 317.23,-144 323.23,-144 329.23,-150 329.23,-156 329.23,-156 329.23,-168 329.23,-168 329.23,-174 323.23,-180 317.23,-180"/>
<text text-anchor="middle" x="302.23" y="-158.3" font-family="Times,serif" font-size="14.00">Call</text>
</g>
<!-- ast.For object at 0x766fed278750&#45;&gt;ast.Call object at 0x766fed27a7d0 -->
<g id="edge21" class="edge">
<title>ast.For object at 0x766fed278750&#45;&gt;ast.Call object at 0x766fed27a7d0</title>
<path fill="none" stroke="black" d="M326.5,-359.83C324.88,-349.47 322.85,-335.99 321.23,-324 314.93,-277.14 308.72,-222.44 305.19,-190.38"/>
<polygon fill="black" stroke="black" points="308.67,-189.98 304.1,-180.42 301.71,-190.74 308.67,-189.98"/>
</g>
<!-- ast.If object at 0x766fed278950 -->
<g id="node23" class="node">
<title>ast.If object at 0x766fed278950</title>
<path fill="#66cdaa" stroke="black" d="M372.23,-324C372.23,-324 342.23,-324 342.23,-324 336.23,-324 330.23,-318 330.23,-312 330.23,-312 330.23,-300 330.23,-300 330.23,-294 336.23,-288 342.23,-288 342.23,-288 372.23,-288 372.23,-288 378.23,-288 384.23,-294 384.23,-300 384.23,-300 384.23,-312 384.23,-312 384.23,-318 378.23,-324 372.23,-324"/>
<text text-anchor="middle" x="357.23" y="-302.3" font-family="Times,serif" font-size="14.00">If</text>
</g>
<!-- ast.For object at 0x766fed278750&#45;&gt;ast.If object at 0x766fed278950 -->
<g id="edge27" class="edge">
<title>ast.For object at 0x766fed278750&#45;&gt;ast.If object at 0x766fed278950</title>
<path fill="none" stroke="black" d="M336.15,-359.7C339.31,-351.81 343.11,-342.3 346.61,-333.55"/>
<polygon fill="black" stroke="black" points="349.93,-334.69 350.39,-324.1 343.43,-332.09 349.93,-334.69"/>
</g>
<!-- ast.Name object at 0x766fed27b190&#45;&gt;ast.Store object at 0x7670a7337c90 -->
<g id="edge20" class="edge">
<title>ast.Name object at 0x766fed27b190&#45;&gt;ast.Store object at 0x7670a7337c90</title>
<path fill="none" stroke="black" d="M220.13,-292.16C170.36,-267.94 67.84,-214.78 50.23,-180 40.54,-160.85 43.1,-136.36 47.49,-117.91"/>
<polygon fill="black" stroke="black" points="50.91,-118.67 50.12,-108.1 44.15,-116.85 50.91,-118.67"/>
</g>
<!-- ast.Name object at 0x766fed27ab90 -->
<g id="node20" class="node">
<title>ast.Name object at 0x766fed27ab90</title>
<path fill="#66cdaa" stroke="black" d="M239.23,-108C239.23,-108 209.23,-108 209.23,-108 203.23,-108 197.23,-102 197.23,-96 197.23,-96 197.23,-84 197.23,-84 197.23,-78 203.23,-72 209.23,-72 209.23,-72 239.23,-72 239.23,-72 245.23,-72 251.23,-78 251.23,-84 251.23,-84 251.23,-96 251.23,-96 251.23,-102 245.23,-108 239.23,-108"/>
<text text-anchor="middle" x="224.23" y="-86.3" font-family="Times,serif" font-size="14.00">Name</text>
</g>
<!-- ast.Call object at 0x766fed27a7d0&#45;&gt;ast.Name object at 0x766fed27ab90 -->
<g id="edge22" class="edge">
<title>ast.Call object at 0x766fed27a7d0&#45;&gt;ast.Name object at 0x766fed27ab90</title>
<path fill="none" stroke="black" d="M282.95,-143.7C273.32,-135.05 261.5,-124.45 251.01,-115.03"/>
<polygon fill="black" stroke="black" points="253.07,-112.18 243.29,-108.1 248.4,-117.39 253.07,-112.18"/>
</g>
<!-- ast.Constant object at 0x766fed279f50 -->
<g id="node21" class="node">
<title>ast.Constant object at 0x766fed279f50</title>
<path fill="#66cdaa" stroke="black" d="M322.73,-108C322.73,-108 281.73,-108 281.73,-108 275.73,-108 269.73,-102 269.73,-96 269.73,-96 269.73,-84 269.73,-84 269.73,-78 275.73,-72 281.73,-72 281.73,-72 322.73,-72 322.73,-72 328.73,-72 334.73,-78 334.73,-84 334.73,-84 334.73,-96 334.73,-96 334.73,-102 328.73,-108 322.73,-108"/>
<text text-anchor="middle" x="302.23" y="-86.3" font-family="Times,serif" font-size="14.00">Constant</text>
</g>
<!-- ast.Call object at 0x766fed27a7d0&#45;&gt;ast.Constant object at 0x766fed279f50 -->
<g id="edge24" class="edge">
<title>ast.Call object at 0x766fed27a7d0&#45;&gt;ast.Constant object at 0x766fed279f50</title>
<path fill="none" stroke="black" d="M302.23,-143.7C302.23,-135.98 302.23,-126.71 302.23,-118.11"/>
<polygon fill="black" stroke="black" points="305.73,-118.1 302.23,-108.1 298.73,-118.1 305.73,-118.1"/>
</g>
<!-- ast.Name object at 0x766fed27b510 -->
<g id="node22" class="node">
<title>ast.Name object at 0x766fed27b510</title>
<path fill="#66cdaa" stroke="black" d="M167.23,-108C167.23,-108 137.23,-108 137.23,-108 131.23,-108 125.23,-102 125.23,-96 125.23,-96 125.23,-84 125.23,-84 125.23,-78 131.23,-72 137.23,-72 137.23,-72 167.23,-72 167.23,-72 173.23,-72 179.23,-78 179.23,-84 179.23,-84 179.23,-96 179.23,-96 179.23,-102 173.23,-108 167.23,-108"/>
<text text-anchor="middle" x="152.23" y="-86.3" font-family="Times,serif" font-size="14.00">Name</text>
</g>
<!-- ast.Call object at 0x766fed27a7d0&#45;&gt;ast.Name object at 0x766fed27b510 -->
<g id="edge25" class="edge">
<title>ast.Call object at 0x766fed27a7d0&#45;&gt;ast.Name object at 0x766fed27b510</title>
<path fill="none" stroke="black" d="M275.12,-148.16C272.12,-146.76 269.11,-145.35 266.23,-144 234.2,-129.05 224.28,-124.77 188.48,-108.1"/>
<polygon fill="black" stroke="black" points="189.89,-104.89 179.35,-103.84 186.93,-111.24 189.89,-104.89"/>
</g>
<!-- ast.Name object at 0x766fed27ab90&#45;&gt;ast.Load object at 0x7670a7337c10 -->
<g id="edge23" class="edge">
<title>ast.Name object at 0x766fed27ab90&#45;&gt;ast.Load object at 0x7670a7337c10</title>
<path fill="none" stroke="black" d="M251.44,-75.23C254.37,-74.03 257.33,-72.92 260.23,-72 352.89,-42.58 467.05,-28.16 524.87,-22.31"/>
<polygon fill="black" stroke="black" points="525.38,-25.78 534.99,-21.32 524.7,-18.81 525.38,-25.78"/>
</g>
<!-- ast.Name object at 0x766fed27b510&#45;&gt;ast.Load object at 0x7670a7337c10 -->
<g id="edge26" class="edge">
<title>ast.Name object at 0x766fed27b510&#45;&gt;ast.Load object at 0x7670a7337c10</title>
<path fill="none" stroke="black" d="M179.41,-75.13C182.34,-73.95 185.32,-72.87 188.23,-72 307.8,-36.19 456.29,-24.33 524.62,-20.61"/>
<polygon fill="black" stroke="black" points="525.07,-24.09 534.88,-20.07 524.71,-17.1 525.07,-24.09"/>
</g>
<!-- ast.Compare object at 0x766fed279610 -->
<g id="node24" class="node">
<title>ast.Compare object at 0x766fed279610</title>
<path fill="#66cdaa" stroke="black" d="M532.73,-252C532.73,-252 489.73,-252 489.73,-252 483.73,-252 477.73,-246 477.73,-240 477.73,-240 477.73,-228 477.73,-228 477.73,-222 483.73,-216 489.73,-216 489.73,-216 532.73,-216 532.73,-216 538.73,-216 544.73,-222 544.73,-228 544.73,-228 544.73,-240 544.73,-240 544.73,-246 538.73,-252 532.73,-252"/>
<text text-anchor="middle" x="511.23" y="-230.3" font-family="Times,serif" font-size="14.00">Compare</text>
</g>
<!-- ast.If object at 0x766fed278950&#45;&gt;ast.Compare object at 0x766fed279610 -->
<g id="edge28" class="edge">
<title>ast.If object at 0x766fed278950&#45;&gt;ast.Compare object at 0x766fed279610</title>
<path fill="none" stroke="black" d="M384.41,-292.65C407.66,-282.08 441.53,-266.68 468.42,-254.46"/>
<polygon fill="black" stroke="black" points="469.96,-257.61 477.61,-250.28 467.06,-251.23 469.96,-257.61"/>
</g>
<!-- ast.AugAssign object at 0x766fed278ed0 -->
<g id="node31" class="node">
<title>ast.AugAssign object at 0x766fed278ed0</title>
<path fill="#66cdaa" stroke="black" d="M222.73,-252C222.73,-252 169.73,-252 169.73,-252 163.73,-252 157.73,-246 157.73,-240 157.73,-240 157.73,-228 157.73,-228 157.73,-222 163.73,-216 169.73,-216 169.73,-216 222.73,-216 222.73,-216 228.73,-216 234.73,-222 234.73,-228 234.73,-228 234.73,-240 234.73,-240 234.73,-246 228.73,-252 222.73,-252"/>
<text text-anchor="middle" x="196.23" y="-230.3" font-family="Times,serif" font-size="14.00">AugAssign</text>
</g>
<!-- ast.If object at 0x766fed278950&#45;&gt;ast.AugAssign object at 0x766fed278ed0 -->
<g id="edge37" class="edge">
<title>ast.If object at 0x766fed278950&#45;&gt;ast.AugAssign object at 0x766fed278ed0</title>
<path fill="none" stroke="black" d="M329.92,-293.13C306.47,-282.93 272.11,-267.99 244.09,-255.81"/>
<polygon fill="black" stroke="black" points="245.43,-252.57 234.86,-251.8 242.64,-258.99 245.43,-252.57"/>
</g>
<!-- ast.BinOp object at 0x766fed278a10 -->
<g id="node25" class="node">
<title>ast.BinOp object at 0x766fed278a10</title>
<path fill="#66cdaa" stroke="black" d="M545.23,-180C545.23,-180 515.23,-180 515.23,-180 509.23,-180 503.23,-174 503.23,-168 503.23,-168 503.23,-156 503.23,-156 503.23,-150 509.23,-144 515.23,-144 515.23,-144 545.23,-144 545.23,-144 551.23,-144 557.23,-150 557.23,-156 557.23,-156 557.23,-168 557.23,-168 557.23,-174 551.23,-180 545.23,-180"/>
<text text-anchor="middle" x="530.23" y="-158.3" font-family="Times,serif" font-size="14.00">BinOp</text>
</g>
<!-- ast.Compare object at 0x766fed279610&#45;&gt;ast.BinOp object at 0x766fed278a10 -->
<g id="edge29" class="edge">
<title>ast.Compare object at 0x766fed279610&#45;&gt;ast.BinOp object at 0x766fed278a10</title>
<path fill="none" stroke="black" d="M515.93,-215.7C518.05,-207.9 520.6,-198.51 522.95,-189.83"/>
<polygon fill="black" stroke="black" points="526.35,-190.67 525.59,-180.1 519.59,-188.84 526.35,-190.67"/>
</g>
<!-- ast.Eq object at 0x7670a734cc50 -->
<g id="node29" class="node">
<title>ast.Eq object at 0x7670a734cc50</title>
<path fill="#66cdaa" stroke="black" d="M734.23,-180C734.23,-180 704.23,-180 704.23,-180 698.23,-180 692.23,-174 692.23,-168 692.23,-168 692.23,-156 692.23,-156 692.23,-150 698.23,-144 704.23,-144 704.23,-144 734.23,-144 734.23,-144 740.23,-144 746.23,-150 746.23,-156 746.23,-156 746.23,-168 746.23,-168 746.23,-174 740.23,-180 734.23,-180"/>
<text text-anchor="middle" x="719.23" y="-158.3" font-family="Times,serif" font-size="14.00">Eq</text>
</g>
<!-- ast.Compare object at 0x766fed279610&#45;&gt;ast.Eq object at 0x7670a734cc50 -->
<g id="edge35" class="edge">
<title>ast.Compare object at 0x766fed279610&#45;&gt;ast.Eq object at 0x7670a734cc50</title>
<path fill="none" stroke="black" d="M545.01,-224.13C578.06,-215.11 629.89,-200.08 682.43,-180.06"/>
<polygon fill="black" stroke="black" points="683.83,-183.27 691.89,-176.4 681.3,-176.74 683.83,-183.27"/>
</g>
<!-- ast.Constant object at 0x766fed27a3d0 -->
<g id="node30" class="node">
<title>ast.Constant object at 0x766fed27a3d0</title>
<path fill="#66cdaa" stroke="black" d="M472.73,-180C472.73,-180 431.73,-180 431.73,-180 425.73,-180 419.73,-174 419.73,-168 419.73,-168 419.73,-156 419.73,-156 419.73,-150 425.73,-144 431.73,-144 431.73,-144 472.73,-144 472.73,-144 478.73,-144 484.73,-150 484.73,-156 484.73,-156 484.73,-168 484.73,-168 484.73,-174 478.73,-180 472.73,-180"/>
<text text-anchor="middle" x="452.23" y="-158.3" font-family="Times,serif" font-size="14.00">Constant</text>
</g>
<!-- ast.Compare object at 0x766fed279610&#45;&gt;ast.Constant object at 0x766fed27a3d0 -->
<g id="edge36" class="edge">
<title>ast.Compare object at 0x766fed279610&#45;&gt;ast.Constant object at 0x766fed27a3d0</title>
<path fill="none" stroke="black" d="M496.65,-215.7C489.58,-207.3 480.95,-197.07 473.19,-187.86"/>
<polygon fill="black" stroke="black" points="475.77,-185.49 466.65,-180.1 470.42,-190.01 475.77,-185.49"/>
</g>
<!-- ast.Name object at 0x766fed2793d0 -->
<g id="node26" class="node">
<title>ast.Name object at 0x766fed2793d0</title>
<path fill="#66cdaa" stroke="black" d="M433.23,-108C433.23,-108 403.23,-108 403.23,-108 397.23,-108 391.23,-102 391.23,-96 391.23,-96 391.23,-84 391.23,-84 391.23,-78 397.23,-72 403.23,-72 403.23,-72 433.23,-72 433.23,-72 439.23,-72 445.23,-78 445.23,-84 445.23,-84 445.23,-96 445.23,-96 445.23,-102 439.23,-108 433.23,-108"/>
<text text-anchor="middle" x="418.23" y="-86.3" font-family="Times,serif" font-size="14.00">Name</text>
</g>
<!-- ast.BinOp object at 0x766fed278a10&#45;&gt;ast.Name object at 0x766fed2793d0 -->
<g id="edge30" class="edge">
<title>ast.BinOp object at 0x766fed278a10&#45;&gt;ast.Name object at 0x766fed2793d0</title>
<path fill="none" stroke="black" d="M503.12,-144.05C488.37,-134.84 469.94,-123.32 454.03,-113.37"/>
<polygon fill="black" stroke="black" points="455.82,-110.36 445.48,-108.03 452.11,-116.3 455.82,-110.36"/>
</g>
<!-- ast.Mod object at 0x7670a734c3d0 -->
<g id="node27" class="node">
<title>ast.Mod object at 0x7670a734c3d0</title>
<path fill="#66cdaa" stroke="black" d="M505.23,-108C505.23,-108 475.23,-108 475.23,-108 469.23,-108 463.23,-102 463.23,-96 463.23,-96 463.23,-84 463.23,-84 463.23,-78 469.23,-72 475.23,-72 475.23,-72 505.23,-72 505.23,-72 511.23,-72 517.23,-78 517.23,-84 517.23,-84 517.23,-96 517.23,-96 517.23,-102 511.23,-108 505.23,-108"/>
<text text-anchor="middle" x="490.23" y="-86.3" font-family="Times,serif" font-size="14.00">Mod</text>
</g>
<!-- ast.BinOp object at 0x766fed278a10&#45;&gt;ast.Mod object at 0x7670a734c3d0 -->
<g id="edge32" class="edge">
<title>ast.BinOp object at 0x766fed278a10&#45;&gt;ast.Mod object at 0x7670a734c3d0</title>
<path fill="none" stroke="black" d="M520.35,-143.7C515.74,-135.64 510.17,-125.89 505.08,-116.98"/>
<polygon fill="black" stroke="black" points="508.01,-115.05 500.01,-108.1 501.93,-118.52 508.01,-115.05"/>
</g>
<!-- ast.Name object at 0x766fed279390 -->
<g id="node28" class="node">
<title>ast.Name object at 0x766fed279390</title>
<path fill="#66cdaa" stroke="black" d="M577.23,-108C577.23,-108 547.23,-108 547.23,-108 541.23,-108 535.23,-102 535.23,-96 535.23,-96 535.23,-84 535.23,-84 535.23,-78 541.23,-72 547.23,-72 547.23,-72 577.23,-72 577.23,-72 583.23,-72 589.23,-78 589.23,-84 589.23,-84 589.23,-96 589.23,-96 589.23,-102 583.23,-108 577.23,-108"/>
<text text-anchor="middle" x="562.23" y="-86.3" font-family="Times,serif" font-size="14.00">Name</text>
</g>
<!-- ast.BinOp object at 0x766fed278a10&#45;&gt;ast.Name object at 0x766fed279390 -->
<g id="edge33" class="edge">
<title>ast.BinOp object at 0x766fed278a10&#45;&gt;ast.Name object at 0x766fed279390</title>
<path fill="none" stroke="black" d="M538.14,-143.7C541.79,-135.73 546.19,-126.1 550.23,-117.26"/>
<polygon fill="black" stroke="black" points="553.44,-118.65 554.41,-108.1 547.07,-115.74 553.44,-118.65"/>
</g>
<!-- ast.Name object at 0x766fed2793d0&#45;&gt;ast.Load object at 0x7670a7337c10 -->
<g id="edge31" class="edge">
<title>ast.Name object at 0x766fed2793d0&#45;&gt;ast.Load object at 0x7670a7337c10</title>
<path fill="none" stroke="black" d="M445.32,-75.83C468,-64.81 500.59,-48.97 525.6,-36.81"/>
<polygon fill="black" stroke="black" points="527.32,-39.87 534.78,-32.35 524.26,-33.57 527.32,-39.87"/>
</g>
<!-- ast.Name object at 0x766fed279390&#45;&gt;ast.Load object at 0x7670a7337c10 -->
<g id="edge34" class="edge">
<title>ast.Name object at 0x766fed279390&#45;&gt;ast.Load object at 0x7670a7337c10</title>
<path fill="none" stroke="black" d="M562.23,-71.7C562.23,-63.98 562.23,-54.71 562.23,-46.11"/>
<polygon fill="black" stroke="black" points="565.73,-46.1 562.23,-36.1 558.73,-46.1 565.73,-46.1"/>
</g>
<!-- ast.Name object at 0x766fed27af90 -->
<g id="node32" class="node">
<title>ast.Name object at 0x766fed27af90</title>
<path fill="#66cdaa" stroke="black" d="M101.23,-180C101.23,-180 71.23,-180 71.23,-180 65.23,-180 59.23,-174 59.23,-168 59.23,-168 59.23,-156 59.23,-156 59.23,-150 65.23,-144 71.23,-144 71.23,-144 101.23,-144 101.23,-144 107.23,-144 113.23,-150 113.23,-156 113.23,-156 113.23,-168 113.23,-168 113.23,-174 107.23,-180 101.23,-180"/>
<text text-anchor="middle" x="86.23" y="-158.3" font-family="Times,serif" font-size="14.00">Name</text>
</g>
<!-- ast.AugAssign object at 0x766fed278ed0&#45;&gt;ast.Name object at 0x766fed27af90 -->
<g id="edge38" class="edge">
<title>ast.AugAssign object at 0x766fed278ed0&#45;&gt;ast.Name object at 0x766fed27af90</title>
<path fill="none" stroke="black" d="M169.32,-215.88C155.07,-206.81 137.39,-195.55 122,-185.76"/>
<polygon fill="black" stroke="black" points="123.56,-182.61 113.25,-180.19 119.8,-188.51 123.56,-182.61"/>
</g>
<!-- ast.Add object at 0x7670a734c150 -->
<g id="node33" class="node">
<title>ast.Add object at 0x7670a734c150</title>
<path fill="#66cdaa" stroke="black" d="M173.23,-180C173.23,-180 143.23,-180 143.23,-180 137.23,-180 131.23,-174 131.23,-168 131.23,-168 131.23,-156 131.23,-156 131.23,-150 137.23,-144 143.23,-144 143.23,-144 173.23,-144 173.23,-144 179.23,-144 185.23,-150 185.23,-156 185.23,-156 185.23,-168 185.23,-168 185.23,-174 179.23,-180 173.23,-180"/>
<text text-anchor="middle" x="158.23" y="-158.3" font-family="Times,serif" font-size="14.00">Add</text>
</g>
<!-- ast.AugAssign object at 0x766fed278ed0&#45;&gt;ast.Add object at 0x7670a734c150 -->
<g id="edge40" class="edge">
<title>ast.AugAssign object at 0x766fed278ed0&#45;&gt;ast.Add object at 0x7670a734c150</title>
<path fill="none" stroke="black" d="M186.84,-215.7C182.47,-207.64 177.18,-197.89 172.34,-188.98"/>
<polygon fill="black" stroke="black" points="175.37,-187.22 167.52,-180.1 169.21,-190.56 175.37,-187.22"/>
</g>
<!-- ast.Name object at 0x766fed27ae10 -->
<g id="node34" class="node">
<title>ast.Name object at 0x766fed27ae10</title>
<path fill="#66cdaa" stroke="black" d="M389.23,-180C389.23,-180 359.23,-180 359.23,-180 353.23,-180 347.23,-174 347.23,-168 347.23,-168 347.23,-156 347.23,-156 347.23,-150 353.23,-144 359.23,-144 359.23,-144 389.23,-144 389.23,-144 395.23,-144 401.23,-150 401.23,-156 401.23,-156 401.23,-168 401.23,-168 401.23,-174 395.23,-180 389.23,-180"/>
<text text-anchor="middle" x="374.23" y="-158.3" font-family="Times,serif" font-size="14.00">Name</text>
</g>
<!-- ast.AugAssign object at 0x766fed278ed0&#45;&gt;ast.Name object at 0x766fed27ae10 -->
<g id="edge41" class="edge">
<title>ast.AugAssign object at 0x766fed278ed0&#45;&gt;ast.Name object at 0x766fed27ae10</title>
<path fill="none" stroke="black" d="M234.85,-219.58C261.52,-210.09 297.95,-196.69 337.84,-180.01"/>
<polygon fill="black" stroke="black" points="339.36,-183.17 347.22,-176.06 336.64,-176.72 339.36,-183.17"/>
</g>
<!-- ast.Name object at 0x766fed27af90&#45;&gt;ast.Store object at 0x7670a7337c90 -->
<g id="edge39" class="edge">
<title>ast.Name object at 0x766fed27af90&#45;&gt;ast.Store object at 0x7670a7337c90</title>
<path fill="none" stroke="black" d="M78.82,-143.7C75.44,-135.81 71.36,-126.3 67.61,-117.55"/>
<polygon fill="black" stroke="black" points="70.72,-115.92 63.56,-108.1 64.29,-118.67 70.72,-115.92"/>
</g>
<!-- ast.Name object at 0x766fed27ae10&#45;&gt;ast.Load object at 0x7670a7337c10 -->
<g id="edge42" class="edge">
<title>ast.Name object at 0x766fed27ae10&#45;&gt;ast.Load object at 0x7670a7337c10</title>
<path fill="none" stroke="black" d="M370.56,-143.82C367.42,-124.18 365.7,-92.15 382.23,-72 416.8,-29.86 483.08,-20.16 524.84,-18.5"/>
<polygon fill="black" stroke="black" points="525,-22 534.9,-18.24 524.81,-15 525,-22"/>
</g>
<!-- ast.Compare object at 0x766fed27b290 -->
<g id="node36" class="node">
<title>ast.Compare object at 0x766fed27b290</title>
<path fill="#66cdaa" stroke="black" d="M795.73,-252C795.73,-252 752.73,-252 752.73,-252 746.73,-252 740.73,-246 740.73,-240 740.73,-240 740.73,-228 740.73,-228 740.73,-222 746.73,-216 752.73,-216 752.73,-216 795.73,-216 795.73,-216 801.73,-216 807.73,-222 807.73,-228 807.73,-228 807.73,-240 807.73,-240 807.73,-246 801.73,-252 795.73,-252"/>
<text text-anchor="middle" x="774.23" y="-230.3" font-family="Times,serif" font-size="14.00">Compare</text>
</g>
<!-- ast.If object at 0x766fed278bd0&#45;&gt;ast.Compare object at 0x766fed27b290 -->
<g id="edge44" class="edge">
<title>ast.If object at 0x766fed278bd0&#45;&gt;ast.Compare object at 0x766fed27b290</title>
<path fill="none" stroke="black" d="M774.23,-287.7C774.23,-279.98 774.23,-270.71 774.23,-262.11"/>
<polygon fill="black" stroke="black" points="777.73,-262.1 774.23,-252.1 770.73,-262.1 777.73,-262.1"/>
</g>
<!-- ast.Return object at 0x766fed278f10 -->
<g id="node39" class="node">
<title>ast.Return object at 0x766fed278f10</title>
<path fill="#66cdaa" stroke="black" d="M878.23,-252C878.23,-252 848.23,-252 848.23,-252 842.23,-252 836.23,-246 836.23,-240 836.23,-240 836.23,-228 836.23,-228 836.23,-222 842.23,-216 848.23,-216 848.23,-216 878.23,-216 878.23,-216 884.23,-216 890.23,-222 890.23,-228 890.23,-228 890.23,-240 890.23,-240 890.23,-246 884.23,-252 878.23,-252"/>
<text text-anchor="middle" x="863.23" y="-230.3" font-family="Times,serif" font-size="14.00">Return</text>
</g>
<!-- ast.If object at 0x766fed278bd0&#45;&gt;ast.Return object at 0x766fed278f10 -->
<g id="edge50" class="edge">
<title>ast.If object at 0x766fed278bd0&#45;&gt;ast.Return object at 0x766fed278f10</title>
<path fill="none" stroke="black" d="M796.23,-287.7C807.44,-278.88 821.24,-268.03 833.39,-258.47"/>
<polygon fill="black" stroke="black" points="835.79,-261.04 841.49,-252.1 831.46,-255.54 835.79,-261.04"/>
</g>
<!-- ast.Return object at 0x766fed27b1d0 -->
<g id="node41" class="node">
<title>ast.Return object at 0x766fed27b1d0</title>
<path fill="#66cdaa" stroke="black" d="M960.23,-252C960.23,-252 930.23,-252 930.23,-252 924.23,-252 918.23,-246 918.23,-240 918.23,-240 918.23,-228 918.23,-228 918.23,-222 924.23,-216 930.23,-216 930.23,-216 960.23,-216 960.23,-216 966.23,-216 972.23,-222 972.23,-228 972.23,-228 972.23,-240 972.23,-240 972.23,-246 966.23,-252 960.23,-252"/>
<text text-anchor="middle" x="945.23" y="-230.3" font-family="Times,serif" font-size="14.00">Return</text>
</g>
<!-- ast.If object at 0x766fed278bd0&#45;&gt;ast.Return object at 0x766fed27b1d0 -->
<g id="edge52" class="edge">
<title>ast.If object at 0x766fed278bd0&#45;&gt;ast.Return object at 0x766fed27b1d0</title>
<path fill="none" stroke="black" d="M801.27,-291.99C804.28,-290.62 807.31,-289.26 810.23,-288 843.17,-273.78 881.27,-258.96 908.58,-248.63"/>
<polygon fill="black" stroke="black" points="910,-251.83 918.12,-245.03 907.53,-245.28 910,-251.83"/>
</g>
<!-- ast.Compare object at 0x766fed27b290&#45;&gt;ast.Eq object at 0x7670a734cc50 -->
<g id="edge47" class="edge">
<title>ast.Compare object at 0x766fed27b290&#45;&gt;ast.Eq object at 0x7670a734cc50</title>
<path fill="none" stroke="black" d="M760.64,-215.7C754.11,-207.39 746.17,-197.28 738.99,-188.14"/>
<polygon fill="black" stroke="black" points="741.6,-185.81 732.67,-180.1 736.1,-190.13 741.6,-185.81"/>
</g>
<!-- ast.Name object at 0x766fed279950 -->
<g id="node37" class="node">
<title>ast.Name object at 0x766fed279950</title>
<path fill="#66cdaa" stroke="black" d="M915.23,-108C915.23,-108 885.23,-108 885.23,-108 879.23,-108 873.23,-102 873.23,-96 873.23,-96 873.23,-84 873.23,-84 873.23,-78 879.23,-72 885.23,-72 885.23,-72 915.23,-72 915.23,-72 921.23,-72 927.23,-78 927.23,-84 927.23,-84 927.23,-96 927.23,-96 927.23,-102 921.23,-108 915.23,-108"/>
<text text-anchor="middle" x="900.23" y="-86.3" font-family="Times,serif" font-size="14.00">Name</text>
</g>
<!-- ast.Compare object at 0x766fed27b290&#45;&gt;ast.Name object at 0x766fed279950 -->
<g id="edge45" class="edge">
<title>ast.Compare object at 0x766fed27b290&#45;&gt;ast.Name object at 0x766fed279950</title>
<path fill="none" stroke="black" d="M783.2,-215.75C793.5,-196.9 811.64,-166.41 832.23,-144 842.26,-133.09 854.69,-122.7 866.18,-114.05"/>
<polygon fill="black" stroke="black" points="868.33,-116.81 874.33,-108.07 864.19,-111.16 868.33,-116.81"/>
</g>
<!-- ast.Name object at 0x766fed27bc50 -->
<g id="node38" class="node">
<title>ast.Name object at 0x766fed27bc50</title>
<path fill="#66cdaa" stroke="black" d="M843.23,-108C843.23,-108 813.23,-108 813.23,-108 807.23,-108 801.23,-102 801.23,-96 801.23,-96 801.23,-84 801.23,-84 801.23,-78 807.23,-72 813.23,-72 813.23,-72 843.23,-72 843.23,-72 849.23,-72 855.23,-78 855.23,-84 855.23,-84 855.23,-96 855.23,-96 855.23,-102 849.23,-108 843.23,-108"/>
<text text-anchor="middle" x="828.23" y="-86.3" font-family="Times,serif" font-size="14.00">Name</text>
</g>
<!-- ast.Compare object at 0x766fed27b290&#45;&gt;ast.Name object at 0x766fed27bc50 -->
<g id="edge48" class="edge">
<title>ast.Compare object at 0x766fed27b290&#45;&gt;ast.Name object at 0x766fed27bc50</title>
<path fill="none" stroke="black" d="M777.51,-215.85C781.31,-197.62 788.33,-168.13 798.23,-144 802,-134.8 807.05,-125.22 811.93,-116.76"/>
<polygon fill="black" stroke="black" points="814.97,-118.49 817.09,-108.11 808.96,-114.91 814.97,-118.49"/>
</g>
<!-- ast.Name object at 0x766fed279950&#45;&gt;ast.Load object at 0x7670a7337c10 -->
<g id="edge46" class="edge">
<title>ast.Name object at 0x766fed279950&#45;&gt;ast.Load object at 0x7670a7337c10</title>
<path fill="none" stroke="black" d="M873.02,-75.23C870.1,-74.03 867.13,-72.92 864.23,-72 771.57,-42.58 657.42,-28.16 599.6,-22.31"/>
<polygon fill="black" stroke="black" points="599.77,-18.81 589.47,-21.32 599.08,-25.78 599.77,-18.81"/>
</g>
<!-- ast.Name object at 0x766fed27bc50&#45;&gt;ast.Load object at 0x7670a7337c10 -->
<g id="edge49" class="edge">
<title>ast.Name object at 0x766fed27bc50&#45;&gt;ast.Load object at 0x7670a7337c10</title>
<path fill="none" stroke="black" d="M800.97,-75.38C798.06,-74.15 795.11,-73 792.23,-72 725.97,-49.02 645.49,-33.07 599.43,-25.03"/>
<polygon fill="black" stroke="black" points="599.77,-21.54 589.32,-23.3 598.58,-28.44 599.77,-21.54"/>
</g>
<!-- ast.Constant object at 0x766fed279490 -->
<g id="node40" class="node">
<title>ast.Constant object at 0x766fed279490</title>
<path fill="#66cdaa" stroke="black" d="M893.73,-180C893.73,-180 852.73,-180 852.73,-180 846.73,-180 840.73,-174 840.73,-168 840.73,-168 840.73,-156 840.73,-156 840.73,-150 846.73,-144 852.73,-144 852.73,-144 893.73,-144 893.73,-144 899.73,-144 905.73,-150 905.73,-156 905.73,-156 905.73,-168 905.73,-168 905.73,-174 899.73,-180 893.73,-180"/>
<text text-anchor="middle" x="873.23" y="-158.3" font-family="Times,serif" font-size="14.00">Constant</text>
</g>
<!-- ast.Return object at 0x766fed278f10&#45;&gt;ast.Constant object at 0x766fed279490 -->
<g id="edge51" class="edge">
<title>ast.Return object at 0x766fed278f10&#45;&gt;ast.Constant object at 0x766fed279490</title>
<path fill="none" stroke="black" d="M865.71,-215.7C866.81,-207.98 868.13,-198.71 869.36,-190.11"/>
<polygon fill="black" stroke="black" points="872.84,-190.5 870.79,-180.1 865.91,-189.51 872.84,-190.5"/>
</g>
<!-- ast.Constant object at 0x766fed279c90 -->
<g id="node42" class="node">
<title>ast.Constant object at 0x766fed279c90</title>
<path fill="#66cdaa" stroke="black" d="M976.73,-180C976.73,-180 935.73,-180 935.73,-180 929.73,-180 923.73,-174 923.73,-168 923.73,-168 923.73,-156 923.73,-156 923.73,-150 929.73,-144 935.73,-144 935.73,-144 976.73,-144 976.73,-144 982.73,-144 988.73,-150 988.73,-156 988.73,-156 988.73,-168 988.73,-168 988.73,-174 982.73,-180 976.73,-180"/>
<text text-anchor="middle" x="956.23" y="-158.3" font-family="Times,serif" font-size="14.00">Constant</text>
</g>
<!-- ast.Return object at 0x766fed27b1d0&#45;&gt;ast.Constant object at 0x766fed279c90 -->
<g id="edge53" class="edge">
<title>ast.Return object at 0x766fed27b1d0&#45;&gt;ast.Constant object at 0x766fed279c90</title>
<path fill="none" stroke="black" d="M947.95,-215.7C949.16,-207.98 950.62,-198.71 951.97,-190.11"/>
<polygon fill="black" stroke="black" points="955.45,-190.53 953.55,-180.1 948.54,-189.44 955.45,-190.53"/>
</g>
</g>
</svg>
