<?xml version="1.0" encoding="UTF-8" standalone="no"?>
<!DOCTYPE svg PUBLIC "-//W3C//DTD SVG 1.1//EN"
 "http://www.w3.org/Graphics/SVG/1.1/DTD/svg11.dtd">
<!-- Generated by graphviz version 2.50.0 (0)
 -->
<!-- Pages: 1 -->
<svg width="1245pt" height="620pt"
 viewBox="0.00 0.00 1244.50 620.00" xmlns="http://www.w3.org/2000/svg" xmlns:xlink="http://www.w3.org/1999/xlink">
<g id="graph0" class="graph" transform="scale(1 1) rotate(0) translate(4 616)">
<polygon fill="white" stroke="transparent" points="-4,4 -4,-616 1240.5,-616 1240.5,4 -4,4"/>
<!-- ast.Module object at 0x714461625e90 -->
<g id="node1" class="node">
<title>ast.Module object at 0x714461625e90</title>
<path fill="#66cdaa" stroke="black" d="M826.5,-612C826.5,-612 791.5,-612 791.5,-612 785.5,-612 779.5,-606 779.5,-600 779.5,-600 779.5,-588 779.5,-588 779.5,-582 785.5,-576 791.5,-576 791.5,-576 826.5,-576 826.5,-576 832.5,-576 838.5,-582 838.5,-588 838.5,-588 838.5,-600 838.5,-600 838.5,-606 832.5,-612 826.5,-612"/>
<text text-anchor="middle" x="809" y="-590.3" font-family="Times,serif" font-size="14.00">Module</text>
</g>
<!-- ast.FunctionDef object at 0x7144617985d0 -->
<g id="node2" class="node">
<title>ast.FunctionDef object at 0x7144617985d0</title>
<path fill="#66cdaa" stroke="black" d="M839.5,-540C839.5,-540 778.5,-540 778.5,-540 772.5,-540 766.5,-534 766.5,-528 766.5,-528 766.5,-516 766.5,-516 766.5,-510 772.5,-504 778.5,-504 778.5,-504 839.5,-504 839.5,-504 845.5,-504 851.5,-510 851.5,-516 851.5,-516 851.5,-528 851.5,-528 851.5,-534 845.5,-540 839.5,-540"/>
<text text-anchor="middle" x="809" y="-518.3" font-family="Times,serif" font-size="14.00">FunctionDef</text>
</g>
<!-- ast.Module object at 0x714461625e90&#45;&gt;ast.FunctionDef object at 0x7144617985d0 -->
<g id="edge1" class="edge">
<title>ast.Module object at 0x714461625e90&#45;&gt;ast.FunctionDef object at 0x7144617985d0</title>
<path fill="none" stroke="black" d="M809,-575.7C809,-567.98 809,-558.71 809,-550.11"/>
<polygon fill="black" stroke="black" points="812.5,-550.1 809,-540.1 805.5,-550.1 812.5,-550.1"/>
</g>
<!-- ast.arguments object at 0x714461799290 -->
<g id="node3" class="node">
<title>ast.arguments object at 0x714461799290</title>
<path fill="#66cdaa" stroke="black" d="M730,-468C730,-468 680,-468 680,-468 674,-468 668,-462 668,-456 668,-456 668,-444 668,-444 668,-438 674,-432 680,-432 680,-432 730,-432 730,-432 736,-432 742,-438 742,-444 742,-444 742,-456 742,-456 742,-462 736,-468 730,-468"/>
<text text-anchor="middle" x="705" y="-446.3" font-family="Times,serif" font-size="14.00">arguments</text>
</g>
<!-- ast.FunctionDef object at 0x7144617985d0&#45;&gt;ast.arguments object at 0x714461799290 -->
<g id="edge2" class="edge">
<title>ast.FunctionDef object at 0x7144617985d0&#45;&gt;ast.arguments object at 0x714461799290</title>
<path fill="none" stroke="black" d="M783.56,-503.88C770.21,-494.89 753.68,-483.76 739.22,-474.03"/>
<polygon fill="black" stroke="black" points="740.79,-470.87 730.54,-468.19 736.88,-476.68 740.79,-470.87"/>
</g>
<!-- ast.If object at 0x71446179b410 -->
<g id="node5" class="node">
<title>ast.If object at 0x71446179b410</title>
<path fill="#66cdaa" stroke="black" d="M824,-468C824,-468 794,-468 794,-468 788,-468 782,-462 782,-456 782,-456 782,-444 782,-444 782,-438 788,-432 794,-432 794,-432 824,-432 824,-432 830,-432 836,-438 836,-444 836,-444 836,-456 836,-456 836,-462 830,-468 824,-468"/>
<text text-anchor="middle" x="809" y="-446.3" font-family="Times,serif" font-size="14.00">If</text>
</g>
<!-- ast.FunctionDef object at 0x7144617985d0&#45;&gt;ast.If object at 0x71446179b410 -->
<g id="edge4" class="edge">
<title>ast.FunctionDef object at 0x7144617985d0&#45;&gt;ast.If object at 0x71446179b410</title>
<path fill="none" stroke="black" d="M809,-503.7C809,-495.98 809,-486.71 809,-478.11"/>
<polygon fill="black" stroke="black" points="812.5,-478.1 809,-468.1 805.5,-478.1 812.5,-478.1"/>
</g>
<!-- ast.Return object at 0x7144616940d0 -->
<g id="node44" class="node">
<title>ast.Return object at 0x7144616940d0</title>
<path fill="#66cdaa" stroke="black" d="M909,-468C909,-468 879,-468 879,-468 873,-468 867,-462 867,-456 867,-456 867,-444 867,-444 867,-438 873,-432 879,-432 879,-432 909,-432 909,-432 915,-432 921,-438 921,-444 921,-444 921,-456 921,-456 921,-462 915,-468 909,-468"/>
<text text-anchor="middle" x="894" y="-446.3" font-family="Times,serif" font-size="14.00">Return</text>
</g>
<!-- ast.FunctionDef object at 0x7144617985d0&#45;&gt;ast.Return object at 0x7144616940d0 -->
<g id="edge55" class="edge">
<title>ast.FunctionDef object at 0x7144617985d0&#45;&gt;ast.Return object at 0x7144616940d0</title>
<path fill="none" stroke="black" d="M830.01,-503.7C840.72,-494.88 853.89,-484.03 865.5,-474.47"/>
<polygon fill="black" stroke="black" points="867.74,-477.16 873.23,-468.1 863.29,-471.76 867.74,-477.16"/>
</g>
<!-- ast.arg object at 0x71446179bed0 -->
<g id="node4" class="node">
<title>ast.arg object at 0x71446179bed0</title>
<path fill="#66cdaa" stroke="black" d="M685,-396C685,-396 655,-396 655,-396 649,-396 643,-390 643,-384 643,-384 643,-372 643,-372 643,-366 649,-360 655,-360 655,-360 685,-360 685,-360 691,-360 697,-366 697,-372 697,-372 697,-384 697,-384 697,-390 691,-396 685,-396"/>
<text text-anchor="middle" x="670" y="-374.3" font-family="Times,serif" font-size="14.00">arg</text>
</g>
<!-- ast.arguments object at 0x714461799290&#45;&gt;ast.arg object at 0x71446179bed0 -->
<g id="edge3" class="edge">
<title>ast.arguments object at 0x714461799290&#45;&gt;ast.arg object at 0x71446179bed0</title>
<path fill="none" stroke="black" d="M696.35,-431.7C692.36,-423.73 687.55,-414.1 683.13,-405.26"/>
<polygon fill="black" stroke="black" points="686.15,-403.48 678.55,-396.1 679.89,-406.61 686.15,-403.48"/>
</g>
<!-- ast.Compare object at 0x71446179b950 -->
<g id="node6" class="node">
<title>ast.Compare object at 0x71446179b950</title>
<path fill="#66cdaa" stroke="black" d="M836.5,-252C836.5,-252 793.5,-252 793.5,-252 787.5,-252 781.5,-246 781.5,-240 781.5,-240 781.5,-228 781.5,-228 781.5,-222 787.5,-216 793.5,-216 793.5,-216 836.5,-216 836.5,-216 842.5,-216 848.5,-222 848.5,-228 848.5,-228 848.5,-240 848.5,-240 848.5,-246 842.5,-252 836.5,-252"/>
<text text-anchor="middle" x="815" y="-230.3" font-family="Times,serif" font-size="14.00">Compare</text>
</g>
<!-- ast.If object at 0x71446179b410&#45;&gt;ast.Compare object at 0x71446179b950 -->
<g id="edge5" class="edge">
<title>ast.If object at 0x71446179b410&#45;&gt;ast.Compare object at 0x71446179b950</title>
<path fill="none" stroke="black" d="M809.48,-431.85C810.52,-394.83 812.98,-307.18 814.23,-262.39"/>
<polygon fill="black" stroke="black" points="817.74,-262.33 814.52,-252.23 810.74,-262.13 817.74,-262.33"/>
</g>
<!-- ast.Assign object at 0x71446179ac90 -->
<g id="node13" class="node">
<title>ast.Assign object at 0x71446179ac90</title>
<path fill="#66cdaa" stroke="black" d="M1022,-324C1022,-324 992,-324 992,-324 986,-324 980,-318 980,-312 980,-312 980,-300 980,-300 980,-294 986,-288 992,-288 992,-288 1022,-288 1022,-288 1028,-288 1034,-294 1034,-300 1034,-300 1034,-312 1034,-312 1034,-318 1028,-324 1022,-324"/>
<text text-anchor="middle" x="1007" y="-302.3" font-family="Times,serif" font-size="14.00">Assign</text>
</g>
<!-- ast.If object at 0x71446179b410&#45;&gt;ast.Assign object at 0x71446179ac90 -->
<g id="edge13" class="edge">
<title>ast.If object at 0x71446179b410&#45;&gt;ast.Assign object at 0x71446179ac90</title>
<path fill="none" stroke="black" d="M816.13,-431.92C825.22,-412.07 842.72,-379.54 867,-360 897.29,-335.63 939.98,-321.64 970.24,-314.23"/>
<polygon fill="black" stroke="black" points="971.04,-317.63 979.99,-311.96 969.46,-310.82 971.04,-317.63"/>
</g>
<!-- ast.If object at 0x714461799cd0 -->
<g id="node23" class="node">
<title>ast.If object at 0x714461799cd0</title>
<path fill="#66cdaa" stroke="black" d="M757,-396C757,-396 727,-396 727,-396 721,-396 715,-390 715,-384 715,-384 715,-372 715,-372 715,-366 721,-360 727,-360 727,-360 757,-360 757,-360 763,-360 769,-366 769,-372 769,-372 769,-384 769,-384 769,-390 763,-396 757,-396"/>
<text text-anchor="middle" x="742" y="-374.3" font-family="Times,serif" font-size="14.00">If</text>
</g>
<!-- ast.If object at 0x71446179b410&#45;&gt;ast.If object at 0x714461799cd0 -->
<g id="edge26" class="edge">
<title>ast.If object at 0x71446179b410&#45;&gt;ast.If object at 0x714461799cd0</title>
<path fill="none" stroke="black" d="M792.44,-431.7C784.32,-423.22 774.41,-412.86 765.53,-403.58"/>
<polygon fill="black" stroke="black" points="767.81,-400.91 758.37,-396.1 762.76,-405.75 767.81,-400.91"/>
</g>
<!-- ast.Constant object at 0x71446179b3d0 -->
<g id="node7" class="node">
<title>ast.Constant object at 0x71446179b3d0</title>
<path fill="#66cdaa" stroke="black" d="M949.5,-180C949.5,-180 908.5,-180 908.5,-180 902.5,-180 896.5,-174 896.5,-168 896.5,-168 896.5,-156 896.5,-156 896.5,-150 902.5,-144 908.5,-144 908.5,-144 949.5,-144 949.5,-144 955.5,-144 961.5,-150 961.5,-156 961.5,-156 961.5,-168 961.5,-168 961.5,-174 955.5,-180 949.5,-180"/>
<text text-anchor="middle" x="929" y="-158.3" font-family="Times,serif" font-size="14.00">Constant</text>
</g>
<!-- ast.Compare object at 0x71446179b950&#45;&gt;ast.Constant object at 0x71446179b3d0 -->
<g id="edge6" class="edge">
<title>ast.Compare object at 0x71446179b950&#45;&gt;ast.Constant object at 0x71446179b3d0</title>
<path fill="none" stroke="black" d="M842.89,-215.88C857.79,-206.72 876.33,-195.34 892.38,-185.48"/>
<polygon fill="black" stroke="black" points="894.31,-188.41 901.01,-180.19 890.65,-182.44 894.31,-188.41"/>
</g>
<!-- ast.Lt object at 0x71451b0c7c90 -->
<g id="node8" class="node">
<title>ast.Lt object at 0x71451b0c7c90</title>
<path fill="#66cdaa" stroke="black" d="M794,-180C794,-180 764,-180 764,-180 758,-180 752,-174 752,-168 752,-168 752,-156 752,-156 752,-150 758,-144 764,-144 764,-144 794,-144 794,-144 800,-144 806,-150 806,-156 806,-156 806,-168 806,-168 806,-174 800,-180 794,-180"/>
<text text-anchor="middle" x="779" y="-158.3" font-family="Times,serif" font-size="14.00">Lt</text>
</g>
<!-- ast.Compare object at 0x71446179b950&#45;&gt;ast.Lt object at 0x71451b0c7c90 -->
<g id="edge7" class="edge">
<title>ast.Compare object at 0x71446179b950&#45;&gt;ast.Lt object at 0x71451b0c7c90</title>
<path fill="none" stroke="black" d="M806.1,-215.7C802,-207.73 797.05,-198.1 792.51,-189.26"/>
<polygon fill="black" stroke="black" points="795.48,-187.4 787.8,-180.1 789.26,-190.6 795.48,-187.4"/>
</g>
<!-- ast.Call object at 0x7144617980d0 -->
<g id="node9" class="node">
<title>ast.Call object at 0x7144617980d0</title>
<path fill="#66cdaa" stroke="black" d="M866,-180C866,-180 836,-180 836,-180 830,-180 824,-174 824,-168 824,-168 824,-156 824,-156 824,-150 830,-144 836,-144 836,-144 866,-144 866,-144 872,-144 878,-150 878,-156 878,-156 878,-168 878,-168 878,-174 872,-180 866,-180"/>
<text text-anchor="middle" x="851" y="-158.3" font-family="Times,serif" font-size="14.00">Call</text>
</g>
<!-- ast.Compare object at 0x71446179b950&#45;&gt;ast.Call object at 0x7144617980d0 -->
<g id="edge8" class="edge">
<title>ast.Compare object at 0x71446179b950&#45;&gt;ast.Call object at 0x7144617980d0</title>
<path fill="none" stroke="black" d="M823.9,-215.7C828,-207.73 832.95,-198.1 837.49,-189.26"/>
<polygon fill="black" stroke="black" points="840.74,-190.6 842.2,-180.1 834.52,-187.4 840.74,-190.6"/>
</g>
<!-- ast.Name object at 0x714461798dd0 -->
<g id="node10" class="node">
<title>ast.Name object at 0x714461798dd0</title>
<path fill="#66cdaa" stroke="black" d="M924,-108C924,-108 894,-108 894,-108 888,-108 882,-102 882,-96 882,-96 882,-84 882,-84 882,-78 888,-72 894,-72 894,-72 924,-72 924,-72 930,-72 936,-78 936,-84 936,-84 936,-96 936,-96 936,-102 930,-108 924,-108"/>
<text text-anchor="middle" x="909" y="-86.3" font-family="Times,serif" font-size="14.00">Name</text>
</g>
<!-- ast.Call object at 0x7144617980d0&#45;&gt;ast.Name object at 0x714461798dd0 -->
<g id="edge9" class="edge">
<title>ast.Call object at 0x7144617980d0&#45;&gt;ast.Name object at 0x714461798dd0</title>
<path fill="none" stroke="black" d="M865.34,-143.7C872.29,-135.3 880.77,-125.07 888.4,-115.86"/>
<polygon fill="black" stroke="black" points="891.14,-118.04 894.83,-108.1 885.75,-113.57 891.14,-118.04"/>
</g>
<!-- ast.Name object at 0x71446179a590 -->
<g id="node12" class="node">
<title>ast.Name object at 0x71446179a590</title>
<path fill="#66cdaa" stroke="black" d="M852,-108C852,-108 822,-108 822,-108 816,-108 810,-102 810,-96 810,-96 810,-84 810,-84 810,-78 816,-72 822,-72 822,-72 852,-72 852,-72 858,-72 864,-78 864,-84 864,-84 864,-96 864,-96 864,-102 858,-108 852,-108"/>
<text text-anchor="middle" x="837" y="-86.3" font-family="Times,serif" font-size="14.00">Name</text>
</g>
<!-- ast.Call object at 0x7144617980d0&#45;&gt;ast.Name object at 0x71446179a590 -->
<g id="edge11" class="edge">
<title>ast.Call object at 0x7144617980d0&#45;&gt;ast.Name object at 0x71446179a590</title>
<path fill="none" stroke="black" d="M847.54,-143.7C846,-135.98 844.14,-126.71 842.42,-118.11"/>
<polygon fill="black" stroke="black" points="845.81,-117.22 840.42,-108.1 838.95,-118.6 845.81,-117.22"/>
</g>
<!-- ast.Load object at 0x71451b0c6b90 -->
<g id="node11" class="node">
<title>ast.Load object at 0x71451b0c6b90</title>
<path fill="#66cdaa" stroke="black" d="M725,-36C725,-36 695,-36 695,-36 689,-36 683,-30 683,-24 683,-24 683,-12 683,-12 683,-6 689,0 695,0 695,0 725,0 725,0 731,0 737,-6 737,-12 737,-12 737,-24 737,-24 737,-30 731,-36 725,-36"/>
<text text-anchor="middle" x="710" y="-14.3" font-family="Times,serif" font-size="14.00">Load</text>
</g>
<!-- ast.Name object at 0x714461798dd0&#45;&gt;ast.Load object at 0x71451b0c6b90 -->
<g id="edge10" class="edge">
<title>ast.Name object at 0x714461798dd0&#45;&gt;ast.Load object at 0x71451b0c6b90</title>
<path fill="none" stroke="black" d="M881.64,-75.64C878.75,-74.36 875.83,-73.12 873,-72 830.51,-55.14 780.33,-39.43 746.98,-29.56"/>
<polygon fill="black" stroke="black" points="747.78,-26.15 737.2,-26.69 745.81,-32.87 747.78,-26.15"/>
</g>
<!-- ast.Name object at 0x71446179a590&#45;&gt;ast.Load object at 0x71451b0c6b90 -->
<g id="edge12" class="edge">
<title>ast.Name object at 0x71446179a590&#45;&gt;ast.Load object at 0x71451b0c6b90</title>
<path fill="none" stroke="black" d="M809.76,-73.98C791.17,-63.74 766.36,-50.07 746.13,-38.92"/>
<polygon fill="black" stroke="black" points="747.65,-35.75 737.2,-33.99 744.27,-41.88 747.65,-35.75"/>
</g>
<!-- ast.Name object at 0x714461799010 -->
<g id="node14" class="node">
<title>ast.Name object at 0x714461799010</title>
<path fill="#66cdaa" stroke="black" d="M1128,-252C1128,-252 1098,-252 1098,-252 1092,-252 1086,-246 1086,-240 1086,-240 1086,-228 1086,-228 1086,-222 1092,-216 1098,-216 1098,-216 1128,-216 1128,-216 1134,-216 1140,-222 1140,-228 1140,-228 1140,-240 1140,-240 1140,-246 1134,-252 1128,-252"/>
<text text-anchor="middle" x="1113" y="-230.3" font-family="Times,serif" font-size="14.00">Name</text>
</g>
<!-- ast.Assign object at 0x71446179ac90&#45;&gt;ast.Name object at 0x714461799010 -->
<g id="edge14" class="edge">
<title>ast.Assign object at 0x71446179ac90&#45;&gt;ast.Name object at 0x714461799010</title>
<path fill="none" stroke="black" d="M1032.93,-287.88C1046.66,-278.81 1063.71,-267.55 1078.54,-257.76"/>
<polygon fill="black" stroke="black" points="1080.55,-260.62 1086.97,-252.19 1076.7,-254.78 1080.55,-260.62"/>
</g>
<!-- ast.Call object at 0x71446179bc50 -->
<g id="node16" class="node">
<title>ast.Call object at 0x71446179bc50</title>
<path fill="#66cdaa" stroke="black" d="M1022,-252C1022,-252 992,-252 992,-252 986,-252 980,-246 980,-240 980,-240 980,-228 980,-228 980,-222 986,-216 992,-216 992,-216 1022,-216 1022,-216 1028,-216 1034,-222 1034,-228 1034,-228 1034,-240 1034,-240 1034,-246 1028,-252 1022,-252"/>
<text text-anchor="middle" x="1007" y="-230.3" font-family="Times,serif" font-size="14.00">Call</text>
</g>
<!-- ast.Assign object at 0x71446179ac90&#45;&gt;ast.Call object at 0x71446179bc50 -->
<g id="edge16" class="edge">
<title>ast.Assign object at 0x71446179ac90&#45;&gt;ast.Call object at 0x71446179bc50</title>
<path fill="none" stroke="black" d="M1007,-287.7C1007,-279.98 1007,-270.71 1007,-262.11"/>
<polygon fill="black" stroke="black" points="1010.5,-262.1 1007,-252.1 1003.5,-262.1 1010.5,-262.1"/>
</g>
<!-- ast.Store object at 0x71451b0c6c10 -->
<g id="node15" class="node">
<title>ast.Store object at 0x71451b0c6c10</title>
<path fill="#66cdaa" stroke="black" d="M1146,-180C1146,-180 1116,-180 1116,-180 1110,-180 1104,-174 1104,-168 1104,-168 1104,-156 1104,-156 1104,-150 1110,-144 1116,-144 1116,-144 1146,-144 1146,-144 1152,-144 1158,-150 1158,-156 1158,-156 1158,-168 1158,-168 1158,-174 1152,-180 1146,-180"/>
<text text-anchor="middle" x="1131" y="-158.3" font-family="Times,serif" font-size="14.00">Store</text>
</g>
<!-- ast.Name object at 0x714461799010&#45;&gt;ast.Store object at 0x71451b0c6c10 -->
<g id="edge15" class="edge">
<title>ast.Name object at 0x714461799010&#45;&gt;ast.Store object at 0x71451b0c6c10</title>
<path fill="none" stroke="black" d="M1117.45,-215.7C1119.45,-207.9 1121.87,-198.51 1124.1,-189.83"/>
<polygon fill="black" stroke="black" points="1127.5,-190.66 1126.6,-180.1 1120.72,-188.92 1127.5,-190.66"/>
</g>
<!-- ast.Name object at 0x71446179a290 -->
<g id="node17" class="node">
<title>ast.Name object at 0x71446179a290</title>
<path fill="#66cdaa" stroke="black" d="M996,-108C996,-108 966,-108 966,-108 960,-108 954,-102 954,-96 954,-96 954,-84 954,-84 954,-78 960,-72 966,-72 966,-72 996,-72 996,-72 1002,-72 1008,-78 1008,-84 1008,-84 1008,-96 1008,-96 1008,-102 1002,-108 996,-108"/>
<text text-anchor="middle" x="981" y="-86.3" font-family="Times,serif" font-size="14.00">Name</text>
</g>
<!-- ast.Call object at 0x71446179bc50&#45;&gt;ast.Name object at 0x71446179a290 -->
<g id="edge17" class="edge">
<title>ast.Call object at 0x71446179bc50&#45;&gt;ast.Name object at 0x71446179a290</title>
<path fill="none" stroke="black" d="M1003.86,-215.87C999.43,-191.67 991.29,-147.21 986.02,-118.39"/>
<polygon fill="black" stroke="black" points="989.39,-117.4 984.15,-108.19 982.51,-118.66 989.39,-117.4"/>
</g>
<!-- ast.Subscript object at 0x71446179b290 -->
<g id="node18" class="node">
<title>ast.Subscript object at 0x71446179b290</title>
<path fill="#66cdaa" stroke="black" d="M1074,-180C1074,-180 1030,-180 1030,-180 1024,-180 1018,-174 1018,-168 1018,-168 1018,-156 1018,-156 1018,-150 1024,-144 1030,-144 1030,-144 1074,-144 1074,-144 1080,-144 1086,-150 1086,-156 1086,-156 1086,-168 1086,-168 1086,-174 1080,-180 1074,-180"/>
<text text-anchor="middle" x="1052" y="-158.3" font-family="Times,serif" font-size="14.00">Subscript</text>
</g>
<!-- ast.Call object at 0x71446179bc50&#45;&gt;ast.Subscript object at 0x71446179b290 -->
<g id="edge19" class="edge">
<title>ast.Call object at 0x71446179bc50&#45;&gt;ast.Subscript object at 0x71446179b290</title>
<path fill="none" stroke="black" d="M1018.12,-215.7C1023.36,-207.56 1029.7,-197.69 1035.48,-188.7"/>
<polygon fill="black" stroke="black" points="1038.54,-190.41 1041,-180.1 1032.65,-186.62 1038.54,-190.41"/>
</g>
<!-- ast.Name object at 0x71446179a290&#45;&gt;ast.Load object at 0x71451b0c6b90 -->
<g id="edge18" class="edge">
<title>ast.Name object at 0x71446179a290&#45;&gt;ast.Load object at 0x71451b0c6b90</title>
<path fill="none" stroke="black" d="M953.74,-75.37C950.83,-74.14 947.88,-72.99 945,-72 876.98,-48.59 794.29,-32.71 747.34,-24.81"/>
<polygon fill="black" stroke="black" points="747.76,-21.33 737.32,-23.16 746.61,-28.24 747.76,-21.33"/>
</g>
<!-- ast.Subscript object at 0x71446179b290&#45;&gt;ast.Load object at 0x71451b0c6b90 -->
<g id="edge25" class="edge">
<title>ast.Subscript object at 0x71446179b290&#45;&gt;ast.Load object at 0x71451b0c6b90</title>
<path fill="none" stroke="black" d="M1050.21,-143.65C1047.14,-123.22 1038.88,-89.83 1017,-72 976.13,-38.71 819.53,-25.39 747.12,-20.93"/>
<polygon fill="black" stroke="black" points="747.26,-17.43 737.07,-20.33 746.84,-24.42 747.26,-17.43"/>
</g>
<!-- ast.Name object at 0x714461799a50 -->
<g id="node19" class="node">
<title>ast.Name object at 0x714461799a50</title>
<path fill="#66cdaa" stroke="black" d="M1106,-108C1106,-108 1076,-108 1076,-108 1070,-108 1064,-102 1064,-96 1064,-96 1064,-84 1064,-84 1064,-78 1070,-72 1076,-72 1076,-72 1106,-72 1106,-72 1112,-72 1118,-78 1118,-84 1118,-84 1118,-96 1118,-96 1118,-102 1112,-108 1106,-108"/>
<text text-anchor="middle" x="1091" y="-86.3" font-family="Times,serif" font-size="14.00">Name</text>
</g>
<!-- ast.Subscript object at 0x71446179b290&#45;&gt;ast.Name object at 0x714461799a50 -->
<g id="edge20" class="edge">
<title>ast.Subscript object at 0x71446179b290&#45;&gt;ast.Name object at 0x714461799a50</title>
<path fill="none" stroke="black" d="M1061.64,-143.7C1066.13,-135.64 1071.56,-125.89 1076.52,-116.98"/>
<polygon fill="black" stroke="black" points="1079.66,-118.54 1081.47,-108.1 1073.55,-115.14 1079.66,-118.54"/>
</g>
<!-- ast.Slice object at 0x714461799fd0 -->
<g id="node20" class="node">
<title>ast.Slice object at 0x714461799fd0</title>
<path fill="#66cdaa" stroke="black" d="M1178,-108C1178,-108 1148,-108 1148,-108 1142,-108 1136,-102 1136,-96 1136,-96 1136,-84 1136,-84 1136,-78 1142,-72 1148,-72 1148,-72 1178,-72 1178,-72 1184,-72 1190,-78 1190,-84 1190,-84 1190,-96 1190,-96 1190,-102 1184,-108 1178,-108"/>
<text text-anchor="middle" x="1163" y="-86.3" font-family="Times,serif" font-size="14.00">Slice</text>
</g>
<!-- ast.Subscript object at 0x71446179b290&#45;&gt;ast.Slice object at 0x714461799fd0 -->
<g id="edge22" class="edge">
<title>ast.Subscript object at 0x71446179b290&#45;&gt;ast.Slice object at 0x714461799fd0</title>
<path fill="none" stroke="black" d="M1079.15,-143.88C1093.53,-134.81 1111.38,-123.55 1126.91,-113.76"/>
<polygon fill="black" stroke="black" points="1129.15,-116.48 1135.74,-108.19 1125.42,-110.56 1129.15,-116.48"/>
</g>
<!-- ast.Name object at 0x714461799a50&#45;&gt;ast.Load object at 0x71451b0c6b90 -->
<g id="edge21" class="edge">
<title>ast.Name object at 0x714461799a50&#45;&gt;ast.Load object at 0x71451b0c6b90</title>
<path fill="none" stroke="black" d="M1063.97,-76.73C1059.38,-74.96 1054.6,-73.29 1050,-72 942.62,-41.84 811.03,-27.48 747.65,-21.92"/>
<polygon fill="black" stroke="black" points="747.62,-18.4 737.35,-21.04 747.02,-25.38 747.62,-18.4"/>
</g>
<!-- ast.Constant object at 0x714461798410 -->
<g id="node21" class="node">
<title>ast.Constant object at 0x714461798410</title>
<path fill="#66cdaa" stroke="black" d="M1224.5,-36C1224.5,-36 1183.5,-36 1183.5,-36 1177.5,-36 1171.5,-30 1171.5,-24 1171.5,-24 1171.5,-12 1171.5,-12 1171.5,-6 1177.5,0 1183.5,0 1183.5,0 1224.5,0 1224.5,0 1230.5,0 1236.5,-6 1236.5,-12 1236.5,-12 1236.5,-24 1236.5,-24 1236.5,-30 1230.5,-36 1224.5,-36"/>
<text text-anchor="middle" x="1204" y="-14.3" font-family="Times,serif" font-size="14.00">Constant</text>
</g>
<!-- ast.Slice object at 0x714461799fd0&#45;&gt;ast.Constant object at 0x714461798410 -->
<g id="edge23" class="edge">
<title>ast.Slice object at 0x714461799fd0&#45;&gt;ast.Constant object at 0x714461798410</title>
<path fill="none" stroke="black" d="M1173.13,-71.7C1177.85,-63.64 1183.56,-53.89 1188.78,-44.98"/>
<polygon fill="black" stroke="black" points="1191.95,-46.5 1193.98,-36.1 1185.91,-42.96 1191.95,-46.5"/>
</g>
<!-- ast.Constant object at 0x714461799850 -->
<g id="node22" class="node">
<title>ast.Constant object at 0x714461799850</title>
<path fill="#66cdaa" stroke="black" d="M1141.5,-36C1141.5,-36 1100.5,-36 1100.5,-36 1094.5,-36 1088.5,-30 1088.5,-24 1088.5,-24 1088.5,-12 1088.5,-12 1088.5,-6 1094.5,0 1100.5,0 1100.5,0 1141.5,0 1141.5,0 1147.5,0 1153.5,-6 1153.5,-12 1153.5,-12 1153.5,-24 1153.5,-24 1153.5,-30 1147.5,-36 1141.5,-36"/>
<text text-anchor="middle" x="1121" y="-14.3" font-family="Times,serif" font-size="14.00">Constant</text>
</g>
<!-- ast.Slice object at 0x714461799fd0&#45;&gt;ast.Constant object at 0x714461799850 -->
<g id="edge24" class="edge">
<title>ast.Slice object at 0x714461799fd0&#45;&gt;ast.Constant object at 0x714461799850</title>
<path fill="none" stroke="black" d="M1152.62,-71.7C1147.74,-63.56 1141.81,-53.69 1136.42,-44.7"/>
<polygon fill="black" stroke="black" points="1139.41,-42.88 1131.26,-36.1 1133.41,-46.48 1139.41,-42.88"/>
</g>
<!-- ast.BoolOp object at 0x71446179b490 -->
<g id="node24" class="node">
<title>ast.BoolOp object at 0x71446179b490</title>
<path fill="#66cdaa" stroke="black" d="M413.5,-324C413.5,-324 378.5,-324 378.5,-324 372.5,-324 366.5,-318 366.5,-312 366.5,-312 366.5,-300 366.5,-300 366.5,-294 372.5,-288 378.5,-288 378.5,-288 413.5,-288 413.5,-288 419.5,-288 425.5,-294 425.5,-300 425.5,-300 425.5,-312 425.5,-312 425.5,-318 419.5,-324 413.5,-324"/>
<text text-anchor="middle" x="396" y="-302.3" font-family="Times,serif" font-size="14.00">BoolOp</text>
</g>
<!-- ast.If object at 0x714461799cd0&#45;&gt;ast.BoolOp object at 0x71446179b490 -->
<g id="edge27" class="edge">
<title>ast.If object at 0x714461799cd0&#45;&gt;ast.BoolOp object at 0x71446179b490</title>
<path fill="none" stroke="black" d="M714.79,-363.21C711.87,-362.02 708.9,-360.91 706,-360 611.68,-330.28 495.64,-316.08 435.84,-310.32"/>
<polygon fill="black" stroke="black" points="435.97,-306.82 425.69,-309.37 435.32,-313.79 435.97,-306.82"/>
</g>
<!-- ast.Return object at 0x7144615dadd0 -->
<g id="node40" class="node">
<title>ast.Return object at 0x7144615dadd0</title>
<path fill="#66cdaa" stroke="black" d="M733,-324C733,-324 703,-324 703,-324 697,-324 691,-318 691,-312 691,-312 691,-300 691,-300 691,-294 697,-288 703,-288 703,-288 733,-288 733,-288 739,-288 745,-294 745,-300 745,-300 745,-312 745,-312 745,-318 739,-324 733,-324"/>
<text text-anchor="middle" x="718" y="-302.3" font-family="Times,serif" font-size="14.00">Return</text>
</g>
<!-- ast.If object at 0x714461799cd0&#45;&gt;ast.Return object at 0x7144615dadd0 -->
<g id="edge49" class="edge">
<title>ast.If object at 0x714461799cd0&#45;&gt;ast.Return object at 0x7144615dadd0</title>
<path fill="none" stroke="black" d="M736.07,-359.7C733.39,-351.9 730.17,-342.51 727.2,-333.83"/>
<polygon fill="black" stroke="black" points="730.42,-332.43 723.86,-324.1 723.8,-334.7 730.42,-332.43"/>
</g>
<!-- ast.And object at 0x71451b0c6e50 -->
<g id="node25" class="node">
<title>ast.And object at 0x71451b0c6e50</title>
<path fill="#66cdaa" stroke="black" d="M450,-252C450,-252 420,-252 420,-252 414,-252 408,-246 408,-240 408,-240 408,-228 408,-228 408,-222 414,-216 420,-216 420,-216 450,-216 450,-216 456,-216 462,-222 462,-228 462,-228 462,-240 462,-240 462,-246 456,-252 450,-252"/>
<text text-anchor="middle" x="435" y="-230.3" font-family="Times,serif" font-size="14.00">And</text>
</g>
<!-- ast.BoolOp object at 0x71446179b490&#45;&gt;ast.And object at 0x71451b0c6e50 -->
<g id="edge28" class="edge">
<title>ast.BoolOp object at 0x71446179b490&#45;&gt;ast.And object at 0x71451b0c6e50</title>
<path fill="none" stroke="black" d="M405.64,-287.7C410.13,-279.64 415.56,-269.89 420.52,-260.98"/>
<polygon fill="black" stroke="black" points="423.66,-262.54 425.47,-252.1 417.55,-259.14 423.66,-262.54"/>
</g>
<!-- ast.Compare object at 0x714461799ed0 -->
<g id="node26" class="node">
<title>ast.Compare object at 0x714461799ed0</title>
<path fill="#66cdaa" stroke="black" d="M165.5,-252C165.5,-252 122.5,-252 122.5,-252 116.5,-252 110.5,-246 110.5,-240 110.5,-240 110.5,-228 110.5,-228 110.5,-222 116.5,-216 122.5,-216 122.5,-216 165.5,-216 165.5,-216 171.5,-216 177.5,-222 177.5,-228 177.5,-228 177.5,-240 177.5,-240 177.5,-246 171.5,-252 165.5,-252"/>
<text text-anchor="middle" x="144" y="-230.3" font-family="Times,serif" font-size="14.00">Compare</text>
</g>
<!-- ast.BoolOp object at 0x71446179b490&#45;&gt;ast.Compare object at 0x714461799ed0 -->
<g id="edge29" class="edge">
<title>ast.BoolOp object at 0x71446179b490&#45;&gt;ast.Compare object at 0x714461799ed0</title>
<path fill="none" stroke="black" d="M366.1,-296.7C321.86,-284.4 238.68,-261.3 187.63,-247.12"/>
<polygon fill="black" stroke="black" points="188.44,-243.71 177.87,-244.41 186.57,-250.46 188.44,-243.71"/>
</g>
<!-- ast.Compare object at 0x71446179b310 -->
<g id="node32" class="node">
<title>ast.Compare object at 0x71446179b310</title>
<path fill="#66cdaa" stroke="black" d="M377.5,-252C377.5,-252 334.5,-252 334.5,-252 328.5,-252 322.5,-246 322.5,-240 322.5,-240 322.5,-228 322.5,-228 322.5,-222 328.5,-216 334.5,-216 334.5,-216 377.5,-216 377.5,-216 383.5,-216 389.5,-222 389.5,-228 389.5,-228 389.5,-240 389.5,-240 389.5,-246 383.5,-252 377.5,-252"/>
<text text-anchor="middle" x="356" y="-230.3" font-family="Times,serif" font-size="14.00">Compare</text>
</g>
<!-- ast.BoolOp object at 0x71446179b490&#45;&gt;ast.Compare object at 0x71446179b310 -->
<g id="edge37" class="edge">
<title>ast.BoolOp object at 0x71446179b490&#45;&gt;ast.Compare object at 0x71446179b310</title>
<path fill="none" stroke="black" d="M386.11,-287.7C381.51,-279.64 375.94,-269.89 370.85,-260.98"/>
<polygon fill="black" stroke="black" points="373.77,-259.05 365.77,-252.1 367.7,-262.52 373.77,-259.05"/>
</g>
<!-- ast.Call object at 0x714461799350 -->
<g id="node27" class="node">
<title>ast.Call object at 0x714461799350</title>
<path fill="#66cdaa" stroke="black" d="M198,-180C198,-180 168,-180 168,-180 162,-180 156,-174 156,-168 156,-168 156,-156 156,-156 156,-150 162,-144 168,-144 168,-144 198,-144 198,-144 204,-144 210,-150 210,-156 210,-156 210,-168 210,-168 210,-174 204,-180 198,-180"/>
<text text-anchor="middle" x="183" y="-158.3" font-family="Times,serif" font-size="14.00">Call</text>
</g>
<!-- ast.Compare object at 0x714461799ed0&#45;&gt;ast.Call object at 0x714461799350 -->
<g id="edge30" class="edge">
<title>ast.Compare object at 0x714461799ed0&#45;&gt;ast.Call object at 0x714461799350</title>
<path fill="none" stroke="black" d="M153.64,-215.7C158.13,-207.64 163.56,-197.89 168.52,-188.98"/>
<polygon fill="black" stroke="black" points="171.66,-190.54 173.47,-180.1 165.55,-187.14 171.66,-190.54"/>
</g>
<!-- ast.Gt object at 0x71451b0c7d90 -->
<g id="node30" class="node">
<title>ast.Gt object at 0x71451b0c7d90</title>
<path fill="#66cdaa" stroke="black" d="M42,-180C42,-180 12,-180 12,-180 6,-180 0,-174 0,-168 0,-168 0,-156 0,-156 0,-150 6,-144 12,-144 12,-144 42,-144 42,-144 48,-144 54,-150 54,-156 54,-156 54,-168 54,-168 54,-174 48,-180 42,-180"/>
<text text-anchor="middle" x="27" y="-158.3" font-family="Times,serif" font-size="14.00">Gt</text>
</g>
<!-- ast.Compare object at 0x714461799ed0&#45;&gt;ast.Gt object at 0x71451b0c7d90 -->
<g id="edge35" class="edge">
<title>ast.Compare object at 0x714461799ed0&#45;&gt;ast.Gt object at 0x71451b0c7d90</title>
<path fill="none" stroke="black" d="M115.38,-215.88C99.62,-206.45 79.92,-194.66 63.11,-184.61"/>
<polygon fill="black" stroke="black" points="64.5,-181.36 54.12,-179.23 60.9,-187.36 64.5,-181.36"/>
</g>
<!-- ast.Constant object at 0x71446179a050 -->
<g id="node31" class="node">
<title>ast.Constant object at 0x71446179a050</title>
<path fill="#66cdaa" stroke="black" d="M125.5,-180C125.5,-180 84.5,-180 84.5,-180 78.5,-180 72.5,-174 72.5,-168 72.5,-168 72.5,-156 72.5,-156 72.5,-150 78.5,-144 84.5,-144 84.5,-144 125.5,-144 125.5,-144 131.5,-144 137.5,-150 137.5,-156 137.5,-156 137.5,-168 137.5,-168 137.5,-174 131.5,-180 125.5,-180"/>
<text text-anchor="middle" x="105" y="-158.3" font-family="Times,serif" font-size="14.00">Constant</text>
</g>
<!-- ast.Compare object at 0x714461799ed0&#45;&gt;ast.Constant object at 0x71446179a050 -->
<g id="edge36" class="edge">
<title>ast.Compare object at 0x714461799ed0&#45;&gt;ast.Constant object at 0x71446179a050</title>
<path fill="none" stroke="black" d="M134.36,-215.7C129.87,-207.64 124.44,-197.89 119.48,-188.98"/>
<polygon fill="black" stroke="black" points="122.45,-187.14 114.53,-180.1 116.34,-190.54 122.45,-187.14"/>
</g>
<!-- ast.Name object at 0x7144617996d0 -->
<g id="node28" class="node">
<title>ast.Name object at 0x7144617996d0</title>
<path fill="#66cdaa" stroke="black" d="M126,-108C126,-108 96,-108 96,-108 90,-108 84,-102 84,-96 84,-96 84,-84 84,-84 84,-78 90,-72 96,-72 96,-72 126,-72 126,-72 132,-72 138,-78 138,-84 138,-84 138,-96 138,-96 138,-102 132,-108 126,-108"/>
<text text-anchor="middle" x="111" y="-86.3" font-family="Times,serif" font-size="14.00">Name</text>
</g>
<!-- ast.Call object at 0x714461799350&#45;&gt;ast.Name object at 0x7144617996d0 -->
<g id="edge31" class="edge">
<title>ast.Call object at 0x714461799350&#45;&gt;ast.Name object at 0x7144617996d0</title>
<path fill="none" stroke="black" d="M165.2,-143.7C156.4,-135.14 145.62,-124.66 136,-115.3"/>
<polygon fill="black" stroke="black" points="138.2,-112.57 128.59,-108.1 133.32,-117.58 138.2,-112.57"/>
</g>
<!-- ast.Name object at 0x71446179a490 -->
<g id="node29" class="node">
<title>ast.Name object at 0x71446179a490</title>
<path fill="#66cdaa" stroke="black" d="M198,-108C198,-108 168,-108 168,-108 162,-108 156,-102 156,-96 156,-96 156,-84 156,-84 156,-78 162,-72 168,-72 168,-72 198,-72 198,-72 204,-72 210,-78 210,-84 210,-84 210,-96 210,-96 210,-102 204,-108 198,-108"/>
<text text-anchor="middle" x="183" y="-86.3" font-family="Times,serif" font-size="14.00">Name</text>
</g>
<!-- ast.Call object at 0x714461799350&#45;&gt;ast.Name object at 0x71446179a490 -->
<g id="edge33" class="edge">
<title>ast.Call object at 0x714461799350&#45;&gt;ast.Name object at 0x71446179a490</title>
<path fill="none" stroke="black" d="M183,-143.7C183,-135.98 183,-126.71 183,-118.11"/>
<polygon fill="black" stroke="black" points="186.5,-118.1 183,-108.1 179.5,-118.1 186.5,-118.1"/>
</g>
<!-- ast.Name object at 0x7144617996d0&#45;&gt;ast.Load object at 0x71451b0c6b90 -->
<g id="edge32" class="edge">
<title>ast.Name object at 0x7144617996d0&#45;&gt;ast.Load object at 0x71451b0c6b90</title>
<path fill="none" stroke="black" d="M138.14,-74.99C141.08,-73.83 144.07,-72.8 147,-72 246.76,-44.66 563.78,-26.42 672.77,-20.82"/>
<polygon fill="black" stroke="black" points="673.14,-24.31 682.95,-20.3 672.79,-17.32 673.14,-24.31"/>
</g>
<!-- ast.Name object at 0x71446179a490&#45;&gt;ast.Load object at 0x71451b0c6b90 -->
<g id="edge34" class="edge">
<title>ast.Name object at 0x71446179a490&#45;&gt;ast.Load object at 0x71451b0c6b90</title>
<path fill="none" stroke="black" d="M210.15,-75.03C213.09,-73.87 216.07,-72.82 219,-72 383.46,-25.71 589.38,-19.37 672.57,-18.84"/>
<polygon fill="black" stroke="black" points="672.81,-22.33 682.79,-18.8 672.78,-15.33 672.81,-22.33"/>
</g>
<!-- ast.Subscript object at 0x714461799550 -->
<g id="node33" class="node">
<title>ast.Subscript object at 0x714461799550</title>
<path fill="#66cdaa" stroke="black" d="M499,-180C499,-180 455,-180 455,-180 449,-180 443,-174 443,-168 443,-168 443,-156 443,-156 443,-150 449,-144 455,-144 455,-144 499,-144 499,-144 505,-144 511,-150 511,-156 511,-156 511,-168 511,-168 511,-174 505,-180 499,-180"/>
<text text-anchor="middle" x="477" y="-158.3" font-family="Times,serif" font-size="14.00">Subscript</text>
</g>
<!-- ast.Compare object at 0x71446179b310&#45;&gt;ast.Subscript object at 0x714461799550 -->
<g id="edge38" class="edge">
<title>ast.Compare object at 0x71446179b310&#45;&gt;ast.Subscript object at 0x714461799550</title>
<path fill="none" stroke="black" d="M385.6,-215.88C401.57,-206.64 421.46,-195.13 438.61,-185.21"/>
<polygon fill="black" stroke="black" points="440.38,-188.23 447.29,-180.19 436.88,-182.17 440.38,-188.23"/>
</g>
<!-- ast.NotEq object at 0x71451b0c7c10 -->
<g id="node36" class="node">
<title>ast.NotEq object at 0x71451b0c7c10</title>
<path fill="#66cdaa" stroke="black" d="M292,-180C292,-180 262,-180 262,-180 256,-180 250,-174 250,-168 250,-168 250,-156 250,-156 250,-150 256,-144 262,-144 262,-144 292,-144 292,-144 298,-144 304,-150 304,-156 304,-156 304,-168 304,-168 304,-174 298,-180 292,-180"/>
<text text-anchor="middle" x="277" y="-158.3" font-family="Times,serif" font-size="14.00">NotEq</text>
</g>
<!-- ast.Compare object at 0x71446179b310&#45;&gt;ast.NotEq object at 0x71451b0c7c10 -->
<g id="edge43" class="edge">
<title>ast.Compare object at 0x71446179b310&#45;&gt;ast.NotEq object at 0x71451b0c7c10</title>
<path fill="none" stroke="black" d="M336.47,-215.7C326.62,-206.97 314.51,-196.24 303.8,-186.75"/>
<polygon fill="black" stroke="black" points="306.11,-184.12 296.3,-180.1 301.47,-189.36 306.11,-184.12"/>
</g>
<!-- ast.Subscript object at 0x7144615dae90 -->
<g id="node37" class="node">
<title>ast.Subscript object at 0x7144615dae90</title>
<path fill="#66cdaa" stroke="black" d="M378,-180C378,-180 334,-180 334,-180 328,-180 322,-174 322,-168 322,-168 322,-156 322,-156 322,-150 328,-144 334,-144 334,-144 378,-144 378,-144 384,-144 390,-150 390,-156 390,-156 390,-168 390,-168 390,-174 384,-180 378,-180"/>
<text text-anchor="middle" x="356" y="-158.3" font-family="Times,serif" font-size="14.00">Subscript</text>
</g>
<!-- ast.Compare object at 0x71446179b310&#45;&gt;ast.Subscript object at 0x7144615dae90 -->
<g id="edge44" class="edge">
<title>ast.Compare object at 0x71446179b310&#45;&gt;ast.Subscript object at 0x7144615dae90</title>
<path fill="none" stroke="black" d="M356,-215.7C356,-207.98 356,-198.71 356,-190.11"/>
<polygon fill="black" stroke="black" points="359.5,-190.1 356,-180.1 352.5,-190.1 359.5,-190.1"/>
</g>
<!-- ast.Subscript object at 0x714461799550&#45;&gt;ast.Load object at 0x71451b0c6b90 -->
<g id="edge42" class="edge">
<title>ast.Subscript object at 0x714461799550&#45;&gt;ast.Load object at 0x71451b0c6b90</title>
<path fill="none" stroke="black" d="M510.97,-143.92C528.87,-134.31 550.82,-121.55 569,-108 587.65,-94.1 588.02,-85.46 607,-72 627.82,-57.24 653.31,-44.09 673.72,-34.58"/>
<polygon fill="black" stroke="black" points="675.35,-37.68 683,-30.34 672.45,-31.31 675.35,-37.68"/>
</g>
<!-- ast.Name object at 0x71446179a250 -->
<g id="node34" class="node">
<title>ast.Name object at 0x71446179a250</title>
<path fill="#66cdaa" stroke="black" d="M548,-108C548,-108 518,-108 518,-108 512,-108 506,-102 506,-96 506,-96 506,-84 506,-84 506,-78 512,-72 518,-72 518,-72 548,-72 548,-72 554,-72 560,-78 560,-84 560,-84 560,-96 560,-96 560,-102 554,-108 548,-108"/>
<text text-anchor="middle" x="533" y="-86.3" font-family="Times,serif" font-size="14.00">Name</text>
</g>
<!-- ast.Subscript object at 0x714461799550&#45;&gt;ast.Name object at 0x71446179a250 -->
<g id="edge39" class="edge">
<title>ast.Subscript object at 0x714461799550&#45;&gt;ast.Name object at 0x71446179a250</title>
<path fill="none" stroke="black" d="M490.84,-143.7C497.49,-135.39 505.58,-125.28 512.89,-116.14"/>
<polygon fill="black" stroke="black" points="515.8,-118.1 519.32,-108.1 510.34,-113.73 515.8,-118.1"/>
</g>
<!-- ast.Constant object at 0x71446179b090 -->
<g id="node35" class="node">
<title>ast.Constant object at 0x71446179b090</title>
<path fill="#66cdaa" stroke="black" d="M475.5,-108C475.5,-108 434.5,-108 434.5,-108 428.5,-108 422.5,-102 422.5,-96 422.5,-96 422.5,-84 422.5,-84 422.5,-78 428.5,-72 434.5,-72 434.5,-72 475.5,-72 475.5,-72 481.5,-72 487.5,-78 487.5,-84 487.5,-84 487.5,-96 487.5,-96 487.5,-102 481.5,-108 475.5,-108"/>
<text text-anchor="middle" x="455" y="-86.3" font-family="Times,serif" font-size="14.00">Constant</text>
</g>
<!-- ast.Subscript object at 0x714461799550&#45;&gt;ast.Constant object at 0x71446179b090 -->
<g id="edge41" class="edge">
<title>ast.Subscript object at 0x714461799550&#45;&gt;ast.Constant object at 0x71446179b090</title>
<path fill="none" stroke="black" d="M471.56,-143.7C469.11,-135.9 466.16,-126.51 463.43,-117.83"/>
<polygon fill="black" stroke="black" points="466.71,-116.59 460.38,-108.1 460.04,-118.69 466.71,-116.59"/>
</g>
<!-- ast.Name object at 0x71446179a250&#45;&gt;ast.Load object at 0x71451b0c6b90 -->
<g id="edge40" class="edge">
<title>ast.Name object at 0x71446179a250&#45;&gt;ast.Load object at 0x71451b0c6b90</title>
<path fill="none" stroke="black" d="M560.31,-77.58C564.88,-75.7 569.57,-73.78 574,-72 607.5,-58.53 645.85,-43.63 673.26,-33.07"/>
<polygon fill="black" stroke="black" points="674.76,-36.24 682.84,-29.39 672.25,-29.71 674.76,-36.24"/>
</g>
<!-- ast.Subscript object at 0x7144615dae90&#45;&gt;ast.Load object at 0x71451b0c6b90 -->
<g id="edge48" class="edge">
<title>ast.Subscript object at 0x7144615dae90&#45;&gt;ast.Load object at 0x71451b0c6b90</title>
<path fill="none" stroke="black" d="M345.79,-143.73C335.61,-124.01 323.76,-91.89 341,-72 383.68,-22.75 587.56,-18.19 672.61,-18.48"/>
<polygon fill="black" stroke="black" points="672.83,-21.98 682.85,-18.54 672.87,-14.98 672.83,-21.98"/>
</g>
<!-- ast.Name object at 0x7144615da250 -->
<g id="node38" class="node">
<title>ast.Name object at 0x7144615da250</title>
<path fill="#66cdaa" stroke="black" d="M392,-108C392,-108 362,-108 362,-108 356,-108 350,-102 350,-96 350,-96 350,-84 350,-84 350,-78 356,-72 362,-72 362,-72 392,-72 392,-72 398,-72 404,-78 404,-84 404,-84 404,-96 404,-96 404,-102 398,-108 392,-108"/>
<text text-anchor="middle" x="377" y="-86.3" font-family="Times,serif" font-size="14.00">Name</text>
</g>
<!-- ast.Subscript object at 0x7144615dae90&#45;&gt;ast.Name object at 0x7144615da250 -->
<g id="edge45" class="edge">
<title>ast.Subscript object at 0x7144615dae90&#45;&gt;ast.Name object at 0x7144615da250</title>
<path fill="none" stroke="black" d="M361.19,-143.7C363.53,-135.9 366.35,-126.51 368.95,-117.83"/>
<polygon fill="black" stroke="black" points="372.35,-118.69 371.87,-108.1 365.64,-116.68 372.35,-118.69"/>
</g>
<!-- ast.Constant object at 0x7144615d8190 -->
<g id="node39" class="node">
<title>ast.Constant object at 0x7144615d8190</title>
<path fill="#66cdaa" stroke="black" d="M281.5,-108C281.5,-108 240.5,-108 240.5,-108 234.5,-108 228.5,-102 228.5,-96 228.5,-96 228.5,-84 228.5,-84 228.5,-78 234.5,-72 240.5,-72 240.5,-72 281.5,-72 281.5,-72 287.5,-72 293.5,-78 293.5,-84 293.5,-84 293.5,-96 293.5,-96 293.5,-102 287.5,-108 281.5,-108"/>
<text text-anchor="middle" x="261" y="-86.3" font-family="Times,serif" font-size="14.00">Constant</text>
</g>
<!-- ast.Subscript object at 0x7144615dae90&#45;&gt;ast.Constant object at 0x7144615d8190 -->
<g id="edge47" class="edge">
<title>ast.Subscript object at 0x7144615dae90&#45;&gt;ast.Constant object at 0x7144615d8190</title>
<path fill="none" stroke="black" d="M332.52,-143.7C320.44,-134.8 305.55,-123.82 292.48,-114.2"/>
<polygon fill="black" stroke="black" points="294.34,-111.22 284.21,-108.1 290.19,-116.85 294.34,-111.22"/>
</g>
<!-- ast.Name object at 0x7144615da250&#45;&gt;ast.Load object at 0x71451b0c6b90 -->
<g id="edge46" class="edge">
<title>ast.Name object at 0x7144615da250&#45;&gt;ast.Load object at 0x71451b0c6b90</title>
<path fill="none" stroke="black" d="M404.21,-75.24C407.14,-74.03 410.1,-72.92 413,-72 503.9,-43 615.81,-28.43 672.81,-22.45"/>
<polygon fill="black" stroke="black" points="673.21,-25.92 682.8,-21.43 672.5,-18.96 673.21,-25.92"/>
</g>
<!-- ast.Subscript object at 0x7144615d9ad0 -->
<g id="node41" class="node">
<title>ast.Subscript object at 0x7144615d9ad0</title>
<path fill="#66cdaa" stroke="black" d="M722,-180C722,-180 678,-180 678,-180 672,-180 666,-174 666,-168 666,-168 666,-156 666,-156 666,-150 672,-144 678,-144 678,-144 722,-144 722,-144 728,-144 734,-150 734,-156 734,-156 734,-168 734,-168 734,-174 728,-180 722,-180"/>
<text text-anchor="middle" x="700" y="-158.3" font-family="Times,serif" font-size="14.00">Subscript</text>
</g>
<!-- ast.Return object at 0x7144615dadd0&#45;&gt;ast.Subscript object at 0x7144615d9ad0 -->
<g id="edge50" class="edge">
<title>ast.Return object at 0x7144615dadd0&#45;&gt;ast.Subscript object at 0x7144615d9ad0</title>
<path fill="none" stroke="black" d="M715.83,-287.87C712.76,-263.67 707.13,-219.21 703.47,-190.39"/>
<polygon fill="black" stroke="black" points="706.91,-189.67 702.18,-180.19 699.96,-190.55 706.91,-189.67"/>
</g>
<!-- ast.Subscript object at 0x7144615d9ad0&#45;&gt;ast.Load object at 0x71451b0c6b90 -->
<g id="edge54" class="edge">
<title>ast.Subscript object at 0x7144615d9ad0&#45;&gt;ast.Load object at 0x71451b0c6b90</title>
<path fill="none" stroke="black" d="M701.21,-143.87C702.91,-119.67 706.04,-75.21 708.07,-46.39"/>
<polygon fill="black" stroke="black" points="711.58,-46.41 708.79,-36.19 704.6,-45.92 711.58,-46.41"/>
</g>
<!-- ast.Name object at 0x714461694050 -->
<g id="node42" class="node">
<title>ast.Name object at 0x714461694050</title>
<path fill="#66cdaa" stroke="black" d="M780,-108C780,-108 750,-108 750,-108 744,-108 738,-102 738,-96 738,-96 738,-84 738,-84 738,-78 744,-72 750,-72 750,-72 780,-72 780,-72 786,-72 792,-78 792,-84 792,-84 792,-96 792,-96 792,-102 786,-108 780,-108"/>
<text text-anchor="middle" x="765" y="-86.3" font-family="Times,serif" font-size="14.00">Name</text>
</g>
<!-- ast.Subscript object at 0x7144615d9ad0&#45;&gt;ast.Name object at 0x714461694050 -->
<g id="edge51" class="edge">
<title>ast.Subscript object at 0x7144615d9ad0&#45;&gt;ast.Name object at 0x714461694050</title>
<path fill="none" stroke="black" d="M716.07,-143.7C723.94,-135.22 733.56,-124.86 742.17,-115.58"/>
<polygon fill="black" stroke="black" points="744.88,-117.81 749.12,-108.1 739.75,-113.05 744.88,-117.81"/>
</g>
<!-- ast.Constant object at 0x714461694150 -->
<g id="node43" class="node">
<title>ast.Constant object at 0x714461694150</title>
<path fill="#66cdaa" stroke="black" d="M669.5,-108C669.5,-108 628.5,-108 628.5,-108 622.5,-108 616.5,-102 616.5,-96 616.5,-96 616.5,-84 616.5,-84 616.5,-78 622.5,-72 628.5,-72 628.5,-72 669.5,-72 669.5,-72 675.5,-72 681.5,-78 681.5,-84 681.5,-84 681.5,-96 681.5,-96 681.5,-102 675.5,-108 669.5,-108"/>
<text text-anchor="middle" x="649" y="-86.3" font-family="Times,serif" font-size="14.00">Constant</text>
</g>
<!-- ast.Subscript object at 0x7144615d9ad0&#45;&gt;ast.Constant object at 0x714461694150 -->
<g id="edge53" class="edge">
<title>ast.Subscript object at 0x7144615d9ad0&#45;&gt;ast.Constant object at 0x714461694150</title>
<path fill="none" stroke="black" d="M687.39,-143.7C681.4,-135.47 674.12,-125.48 667.52,-116.42"/>
<polygon fill="black" stroke="black" points="670.18,-114.13 661.46,-108.1 664.52,-118.25 670.18,-114.13"/>
</g>
<!-- ast.Name object at 0x714461694050&#45;&gt;ast.Load object at 0x71451b0c6b90 -->
<g id="edge52" class="edge">
<title>ast.Name object at 0x714461694050&#45;&gt;ast.Load object at 0x71451b0c6b90</title>
<path fill="none" stroke="black" d="M751.4,-71.7C744.88,-63.39 736.93,-53.28 729.75,-44.14"/>
<polygon fill="black" stroke="black" points="732.37,-41.81 723.44,-36.1 726.87,-46.13 732.37,-41.81"/>
</g>
<!-- ast.Constant object at 0x7144616948d0 -->
<g id="node45" class="node">
<title>ast.Constant object at 0x7144616948d0</title>
<path fill="#66cdaa" stroke="black" d="M928.5,-396C928.5,-396 887.5,-396 887.5,-396 881.5,-396 875.5,-390 875.5,-384 875.5,-384 875.5,-372 875.5,-372 875.5,-366 881.5,-360 887.5,-360 887.5,-360 928.5,-360 928.5,-360 934.5,-360 940.5,-366 940.5,-372 940.5,-372 940.5,-384 940.5,-384 940.5,-390 934.5,-396 928.5,-396"/>
<text text-anchor="middle" x="908" y="-374.3" font-family="Times,serif" font-size="14.00">Constant</text>
</g>
<!-- ast.Return object at 0x7144616940d0&#45;&gt;ast.Constant object at 0x7144616948d0 -->
<g id="edge56" class="edge">
<title>ast.Return object at 0x7144616940d0&#45;&gt;ast.Constant object at 0x7144616948d0</title>
<path fill="none" stroke="black" d="M897.46,-431.7C899,-423.98 900.86,-414.71 902.58,-406.11"/>
<polygon fill="black" stroke="black" points="906.05,-406.6 904.58,-396.1 899.19,-405.22 906.05,-406.6"/>
</g>
</g>
</svg>
