<?xml version="1.0" encoding="UTF-8" standalone="no"?>
<!DOCTYPE svg PUBLIC "-//W3C//DTD SVG 1.1//EN"
 "http://www.w3.org/Graphics/SVG/1.1/DTD/svg11.dtd">
<!-- Generated by graphviz version 2.50.0 (0)
 -->
<!-- Pages: 1 -->
<svg width="690pt" height="620pt"
 viewBox="0.00 0.00 689.50 620.00" xmlns="http://www.w3.org/2000/svg" xmlns:xlink="http://www.w3.org/1999/xlink">
<g id="graph0" class="graph" transform="scale(1 1) rotate(0) translate(4 616)">
<polygon fill="white" stroke="transparent" points="-4,4 -4,-616 685.5,-616 685.5,4 -4,4"/>
<!-- ast.Module object at 0x73d77fe73d50 -->
<g id="node1" class="node">
<title>ast.Module object at 0x73d77fe73d50</title>
<path fill="#66cdaa" stroke="black" d="M166.5,-612C166.5,-612 131.5,-612 131.5,-612 125.5,-612 119.5,-606 119.5,-600 119.5,-600 119.5,-588 119.5,-588 119.5,-582 125.5,-576 131.5,-576 131.5,-576 166.5,-576 166.5,-576 172.5,-576 178.5,-582 178.5,-588 178.5,-588 178.5,-600 178.5,-600 178.5,-606 172.5,-612 166.5,-612"/>
<text text-anchor="middle" x="149" y="-590.3" font-family="Times,serif" font-size="14.00">Module</text>
</g>
<!-- ast.FunctionDef object at 0x73d77ef84b10 -->
<g id="node2" class="node">
<title>ast.FunctionDef object at 0x73d77ef84b10</title>
<path fill="#66cdaa" stroke="black" d="M179.5,-540C179.5,-540 118.5,-540 118.5,-540 112.5,-540 106.5,-534 106.5,-528 106.5,-528 106.5,-516 106.5,-516 106.5,-510 112.5,-504 118.5,-504 118.5,-504 179.5,-504 179.5,-504 185.5,-504 191.5,-510 191.5,-516 191.5,-516 191.5,-528 191.5,-528 191.5,-534 185.5,-540 179.5,-540"/>
<text text-anchor="middle" x="149" y="-518.3" font-family="Times,serif" font-size="14.00">FunctionDef</text>
</g>
<!-- ast.Module object at 0x73d77fe73d50&#45;&gt;ast.FunctionDef object at 0x73d77ef84b10 -->
<g id="edge1" class="edge">
<title>ast.Module object at 0x73d77fe73d50&#45;&gt;ast.FunctionDef object at 0x73d77ef84b10</title>
<path fill="none" stroke="black" d="M149,-575.7C149,-567.98 149,-558.71 149,-550.11"/>
<polygon fill="black" stroke="black" points="152.5,-550.1 149,-540.1 145.5,-550.1 152.5,-550.1"/>
</g>
<!-- ast.arguments object at 0x73d77ee3e550 -->
<g id="node3" class="node">
<title>ast.arguments object at 0x73d77ee3e550</title>
<path fill="#66cdaa" stroke="black" d="M133,-468C133,-468 83,-468 83,-468 77,-468 71,-462 71,-456 71,-456 71,-444 71,-444 71,-438 77,-432 83,-432 83,-432 133,-432 133,-432 139,-432 145,-438 145,-444 145,-444 145,-456 145,-456 145,-462 139,-468 133,-468"/>
<text text-anchor="middle" x="108" y="-446.3" font-family="Times,serif" font-size="14.00">arguments</text>
</g>
<!-- ast.FunctionDef object at 0x73d77ef84b10&#45;&gt;ast.arguments object at 0x73d77ee3e550 -->
<g id="edge2" class="edge">
<title>ast.FunctionDef object at 0x73d77ef84b10&#45;&gt;ast.arguments object at 0x73d77ee3e550</title>
<path fill="none" stroke="black" d="M138.87,-503.7C134.15,-495.64 128.44,-485.89 123.22,-476.98"/>
<polygon fill="black" stroke="black" points="126.09,-474.96 118.02,-468.1 120.05,-478.5 126.09,-474.96"/>
</g>
<!-- ast.If object at 0x73d77ed9f050 -->
<g id="node5" class="node">
<title>ast.If object at 0x73d77ed9f050</title>
<path fill="#66cdaa" stroke="black" d="M216,-468C216,-468 186,-468 186,-468 180,-468 174,-462 174,-456 174,-456 174,-444 174,-444 174,-438 180,-432 186,-432 186,-432 216,-432 216,-432 222,-432 228,-438 228,-444 228,-444 228,-456 228,-456 228,-462 222,-468 216,-468"/>
<text text-anchor="middle" x="201" y="-446.3" font-family="Times,serif" font-size="14.00">If</text>
</g>
<!-- ast.FunctionDef object at 0x73d77ef84b10&#45;&gt;ast.If object at 0x73d77ed9f050 -->
<g id="edge4" class="edge">
<title>ast.FunctionDef object at 0x73d77ef84b10&#45;&gt;ast.If object at 0x73d77ed9f050</title>
<path fill="none" stroke="black" d="M161.85,-503.7C168.03,-495.39 175.54,-485.28 182.32,-476.14"/>
<polygon fill="black" stroke="black" points="185.14,-478.22 188.29,-468.1 179.52,-474.04 185.14,-478.22"/>
</g>
<!-- ast.arg object at 0x73d77ed2f4d0 -->
<g id="node4" class="node">
<title>ast.arg object at 0x73d77ed2f4d0</title>
<path fill="#66cdaa" stroke="black" d="M101,-396C101,-396 71,-396 71,-396 65,-396 59,-390 59,-384 59,-384 59,-372 59,-372 59,-366 65,-360 71,-360 71,-360 101,-360 101,-360 107,-360 113,-366 113,-372 113,-372 113,-384 113,-384 113,-390 107,-396 101,-396"/>
<text text-anchor="middle" x="86" y="-374.3" font-family="Times,serif" font-size="14.00">arg</text>
</g>
<!-- ast.arguments object at 0x73d77ee3e550&#45;&gt;ast.arg object at 0x73d77ed2f4d0 -->
<g id="edge3" class="edge">
<title>ast.arguments object at 0x73d77ee3e550&#45;&gt;ast.arg object at 0x73d77ed2f4d0</title>
<path fill="none" stroke="black" d="M102.56,-431.7C100.11,-423.9 97.16,-414.51 94.43,-405.83"/>
<polygon fill="black" stroke="black" points="97.71,-404.59 91.38,-396.1 91.04,-406.69 97.71,-404.59"/>
</g>
<!-- ast.Compare object at 0x73d77ed9fb50 -->
<g id="node6" class="node">
<title>ast.Compare object at 0x73d77ed9fb50</title>
<path fill="#66cdaa" stroke="black" d="M234.5,-324C234.5,-324 191.5,-324 191.5,-324 185.5,-324 179.5,-318 179.5,-312 179.5,-312 179.5,-300 179.5,-300 179.5,-294 185.5,-288 191.5,-288 191.5,-288 234.5,-288 234.5,-288 240.5,-288 246.5,-294 246.5,-300 246.5,-300 246.5,-312 246.5,-312 246.5,-318 240.5,-324 234.5,-324"/>
<text text-anchor="middle" x="213" y="-302.3" font-family="Times,serif" font-size="14.00">Compare</text>
</g>
<!-- ast.If object at 0x73d77ed9f050&#45;&gt;ast.Compare object at 0x73d77ed9fb50 -->
<g id="edge5" class="edge">
<title>ast.If object at 0x73d77ed9f050&#45;&gt;ast.Compare object at 0x73d77ed9fb50</title>
<path fill="none" stroke="black" d="M202.45,-431.87C204.49,-407.67 208.25,-363.21 210.69,-334.39"/>
<polygon fill="black" stroke="black" points="214.19,-334.45 211.55,-324.19 207.22,-333.86 214.19,-334.45"/>
</g>
<!-- ast.Return object at 0x73d77ed9e590 -->
<g id="node18" class="node">
<title>ast.Return object at 0x73d77ed9e590</title>
<path fill="#66cdaa" stroke="black" d="M173,-396C173,-396 143,-396 143,-396 137,-396 131,-390 131,-384 131,-384 131,-372 131,-372 131,-366 137,-360 143,-360 143,-360 173,-360 173,-360 179,-360 185,-366 185,-372 185,-372 185,-384 185,-384 185,-390 179,-396 173,-396"/>
<text text-anchor="middle" x="158" y="-374.3" font-family="Times,serif" font-size="14.00">Return</text>
</g>
<!-- ast.If object at 0x73d77ed9f050&#45;&gt;ast.Return object at 0x73d77ed9e590 -->
<g id="edge20" class="edge">
<title>ast.If object at 0x73d77ed9f050&#45;&gt;ast.Return object at 0x73d77ed9e590</title>
<path fill="none" stroke="black" d="M190.37,-431.7C185.37,-423.56 179.31,-413.69 173.79,-404.7"/>
<polygon fill="black" stroke="black" points="176.72,-402.79 168.51,-396.1 170.76,-406.46 176.72,-402.79"/>
</g>
<!-- ast.Return object at 0x73d77ed9e510 -->
<g id="node20" class="node">
<title>ast.Return object at 0x73d77ed9e510</title>
<path fill="#66cdaa" stroke="black" d="M333,-396C333,-396 303,-396 303,-396 297,-396 291,-390 291,-384 291,-384 291,-372 291,-372 291,-366 297,-360 303,-360 303,-360 333,-360 333,-360 339,-360 345,-366 345,-372 345,-372 345,-384 345,-384 345,-390 339,-396 333,-396"/>
<text text-anchor="middle" x="318" y="-374.3" font-family="Times,serif" font-size="14.00">Return</text>
</g>
<!-- ast.If object at 0x73d77ed9f050&#45;&gt;ast.Return object at 0x73d77ed9e510 -->
<g id="edge22" class="edge">
<title>ast.If object at 0x73d77ed9f050&#45;&gt;ast.Return object at 0x73d77ed9e510</title>
<path fill="none" stroke="black" d="M228.14,-432.76C244.12,-423.2 264.53,-410.99 281.86,-400.62"/>
<polygon fill="black" stroke="black" points="283.82,-403.53 290.61,-395.39 280.23,-397.52 283.82,-403.53"/>
</g>
<!-- ast.Constant object at 0x73d77ed9f9d0 -->
<g id="node7" class="node">
<title>ast.Constant object at 0x73d77ed9f9d0</title>
<path fill="#66cdaa" stroke="black" d="M208.5,-252C208.5,-252 167.5,-252 167.5,-252 161.5,-252 155.5,-246 155.5,-240 155.5,-240 155.5,-228 155.5,-228 155.5,-222 161.5,-216 167.5,-216 167.5,-216 208.5,-216 208.5,-216 214.5,-216 220.5,-222 220.5,-228 220.5,-228 220.5,-240 220.5,-240 220.5,-246 214.5,-252 208.5,-252"/>
<text text-anchor="middle" x="188" y="-230.3" font-family="Times,serif" font-size="14.00">Constant</text>
</g>
<!-- ast.Compare object at 0x73d77ed9fb50&#45;&gt;ast.Constant object at 0x73d77ed9f9d0 -->
<g id="edge6" class="edge">
<title>ast.Compare object at 0x73d77ed9fb50&#45;&gt;ast.Constant object at 0x73d77ed9f9d0</title>
<path fill="none" stroke="black" d="M206.82,-287.7C204,-279.81 200.61,-270.3 197.48,-261.55"/>
<polygon fill="black" stroke="black" points="200.77,-260.34 194.11,-252.1 194.18,-262.7 200.77,-260.34"/>
</g>
<!-- ast.Lt object at 0x73d867a48bd0 -->
<g id="node8" class="node">
<title>ast.Lt object at 0x73d867a48bd0</title>
<path fill="#66cdaa" stroke="black" d="M281,-252C281,-252 251,-252 251,-252 245,-252 239,-246 239,-240 239,-240 239,-228 239,-228 239,-222 245,-216 251,-216 251,-216 281,-216 281,-216 287,-216 293,-222 293,-228 293,-228 293,-240 293,-240 293,-246 287,-252 281,-252"/>
<text text-anchor="middle" x="266" y="-230.3" font-family="Times,serif" font-size="14.00">Lt</text>
</g>
<!-- ast.Compare object at 0x73d77ed9fb50&#45;&gt;ast.Lt object at 0x73d867a48bd0 -->
<g id="edge7" class="edge">
<title>ast.Compare object at 0x73d77ed9fb50&#45;&gt;ast.Lt object at 0x73d867a48bd0</title>
<path fill="none" stroke="black" d="M220.19,-287.7C225.67,-279.3 233.23,-269.07 240.68,-259.86"/>
<polygon fill="black" stroke="black" points="243.44,-262.03 247.15,-252.1 238.06,-257.54 243.44,-262.03"/>
</g>
<!-- ast.Compare object at 0x73d77ed9fb50&#45;&gt;ast.Lt object at 0x73d867a48bd0 -->
<g id="edge8" class="edge">
<title>ast.Compare object at 0x73d77ed9fb50&#45;&gt;ast.Lt object at 0x73d867a48bd0</title>
<path fill="none" stroke="black" d="M232.02,-287.7C239.09,-279.47 246.86,-269.48 253.27,-260.42"/>
<polygon fill="black" stroke="black" points="256.2,-262.34 258.94,-252.1 250.42,-258.39 256.2,-262.34"/>
</g>
<!-- ast.Call object at 0x73d77ed9fa90 -->
<g id="node9" class="node">
<title>ast.Call object at 0x73d77ed9fa90</title>
<path fill="#66cdaa" stroke="black" d="M42,-252C42,-252 12,-252 12,-252 6,-252 0,-246 0,-240 0,-240 0,-228 0,-228 0,-222 6,-216 12,-216 12,-216 42,-216 42,-216 48,-216 54,-222 54,-228 54,-228 54,-240 54,-240 54,-246 48,-252 42,-252"/>
<text text-anchor="middle" x="27" y="-230.3" font-family="Times,serif" font-size="14.00">Call</text>
</g>
<!-- ast.Compare object at 0x73d77ed9fb50&#45;&gt;ast.Call object at 0x73d77ed9fa90 -->
<g id="edge9" class="edge">
<title>ast.Compare object at 0x73d77ed9fb50&#45;&gt;ast.Call object at 0x73d77ed9fa90</title>
<path fill="none" stroke="black" d="M179.26,-291.47C176.14,-290.28 173.02,-289.1 170,-288 125.73,-271.81 111.28,-270.81 63.95,-252.16"/>
<polygon fill="black" stroke="black" points="64.96,-248.8 54.37,-248.33 62.35,-255.29 64.96,-248.8"/>
</g>
<!-- ast.Constant object at 0x73d77ee3db90 -->
<g id="node17" class="node">
<title>ast.Constant object at 0x73d77ee3db90</title>
<path fill="#66cdaa" stroke="black" d="M125.5,-252C125.5,-252 84.5,-252 84.5,-252 78.5,-252 72.5,-246 72.5,-240 72.5,-240 72.5,-228 72.5,-228 72.5,-222 78.5,-216 84.5,-216 84.5,-216 125.5,-216 125.5,-216 131.5,-216 137.5,-222 137.5,-228 137.5,-228 137.5,-240 137.5,-240 137.5,-246 131.5,-252 125.5,-252"/>
<text text-anchor="middle" x="105" y="-230.3" font-family="Times,serif" font-size="14.00">Constant</text>
</g>
<!-- ast.Compare object at 0x73d77ed9fb50&#45;&gt;ast.Constant object at 0x73d77ee3db90 -->
<g id="edge19" class="edge">
<title>ast.Compare object at 0x73d77ed9fb50&#45;&gt;ast.Constant object at 0x73d77ee3db90</title>
<path fill="none" stroke="black" d="M186.58,-287.88C172.59,-278.81 155.22,-267.55 140.11,-257.76"/>
<polygon fill="black" stroke="black" points="141.82,-254.69 131.52,-252.19 138.01,-260.57 141.82,-254.69"/>
</g>
<!-- ast.Name object at 0x73d77ed9fc90 -->
<g id="node10" class="node">
<title>ast.Name object at 0x73d77ed9fc90</title>
<path fill="#66cdaa" stroke="black" d="M348,-180C348,-180 318,-180 318,-180 312,-180 306,-174 306,-168 306,-168 306,-156 306,-156 306,-150 312,-144 318,-144 318,-144 348,-144 348,-144 354,-144 360,-150 360,-156 360,-156 360,-168 360,-168 360,-174 354,-180 348,-180"/>
<text text-anchor="middle" x="333" y="-158.3" font-family="Times,serif" font-size="14.00">Name</text>
</g>
<!-- ast.Call object at 0x73d77ed9fa90&#45;&gt;ast.Name object at 0x73d77ed9fc90 -->
<g id="edge10" class="edge">
<title>ast.Call object at 0x73d77ed9fa90&#45;&gt;ast.Name object at 0x73d77ed9fc90</title>
<path fill="none" stroke="black" d="M54.2,-219.2C57.13,-218.01 60.1,-216.91 63,-216 155.89,-186.94 184.35,-202.67 279,-180 284.5,-178.68 290.25,-177.1 295.86,-175.44"/>
<polygon fill="black" stroke="black" points="297.21,-178.69 305.74,-172.4 295.15,-172 297.21,-178.69"/>
</g>
<!-- ast.Subscript object at 0x73d77ed9fb90 -->
<g id="node12" class="node">
<title>ast.Subscript object at 0x73d77ed9fb90</title>
<path fill="#66cdaa" stroke="black" d="M258,-180C258,-180 214,-180 214,-180 208,-180 202,-174 202,-168 202,-168 202,-156 202,-156 202,-150 208,-144 214,-144 214,-144 258,-144 258,-144 264,-144 270,-150 270,-156 270,-156 270,-168 270,-168 270,-174 264,-180 258,-180"/>
<text text-anchor="middle" x="236" y="-158.3" font-family="Times,serif" font-size="14.00">Subscript</text>
</g>
<!-- ast.Call object at 0x73d77ed9fa90&#45;&gt;ast.Subscript object at 0x73d77ed9fb90 -->
<g id="edge12" class="edge">
<title>ast.Call object at 0x73d77ed9fa90&#45;&gt;ast.Subscript object at 0x73d77ed9fb90</title>
<path fill="none" stroke="black" d="M54.34,-219.59C57.24,-218.32 60.16,-217.1 63,-216 105.93,-199.39 156.39,-184.43 191.7,-174.67"/>
<polygon fill="black" stroke="black" points="192.97,-177.95 201.7,-171.94 191.13,-171.2 192.97,-177.95"/>
</g>
<!-- ast.Load object at 0x73d867a3ba90 -->
<g id="node11" class="node">
<title>ast.Load object at 0x73d867a3ba90</title>
<path fill="#66cdaa" stroke="black" d="M420,-36C420,-36 390,-36 390,-36 384,-36 378,-30 378,-24 378,-24 378,-12 378,-12 378,-6 384,0 390,0 390,0 420,0 420,0 426,0 432,-6 432,-12 432,-12 432,-24 432,-24 432,-30 426,-36 420,-36"/>
<text text-anchor="middle" x="405" y="-14.3" font-family="Times,serif" font-size="14.00">Load</text>
</g>
<!-- ast.Name object at 0x73d77ed9fc90&#45;&gt;ast.Load object at 0x73d867a3ba90 -->
<g id="edge11" class="edge">
<title>ast.Name object at 0x73d77ed9fc90&#45;&gt;ast.Load object at 0x73d867a3ba90</title>
<path fill="none" stroke="black" d="M341.68,-143.87C354.12,-119.35 377.1,-74.03 391.69,-45.26"/>
<polygon fill="black" stroke="black" points="394.88,-46.69 396.28,-36.19 388.64,-43.53 394.88,-46.69"/>
</g>
<!-- ast.Subscript object at 0x73d77ed9fb90&#45;&gt;ast.Load object at 0x73d867a3ba90 -->
<g id="edge18" class="edge">
<title>ast.Subscript object at 0x73d77ed9fb90&#45;&gt;ast.Load object at 0x73d867a3ba90</title>
<path fill="none" stroke="black" d="M261.62,-143.89C276.15,-133.87 294.49,-120.73 310,-108 335.07,-87.43 361.89,-61.95 380.61,-43.54"/>
<polygon fill="black" stroke="black" points="383.47,-45.63 388.11,-36.11 378.54,-40.66 383.47,-45.63"/>
</g>
<!-- ast.Name object at 0x73d77ed9f190 -->
<g id="node13" class="node">
<title>ast.Name object at 0x73d77ed9f190</title>
<path fill="#66cdaa" stroke="black" d="M289,-108C289,-108 259,-108 259,-108 253,-108 247,-102 247,-96 247,-96 247,-84 247,-84 247,-78 253,-72 259,-72 259,-72 289,-72 289,-72 295,-72 301,-78 301,-84 301,-84 301,-96 301,-96 301,-102 295,-108 289,-108"/>
<text text-anchor="middle" x="274" y="-86.3" font-family="Times,serif" font-size="14.00">Name</text>
</g>
<!-- ast.Subscript object at 0x73d77ed9fb90&#45;&gt;ast.Name object at 0x73d77ed9f190 -->
<g id="edge13" class="edge">
<title>ast.Subscript object at 0x73d77ed9fb90&#45;&gt;ast.Name object at 0x73d77ed9f190</title>
<path fill="none" stroke="black" d="M245.39,-143.7C249.76,-135.64 255.06,-125.89 259.9,-116.98"/>
<polygon fill="black" stroke="black" points="263.02,-118.56 264.71,-108.1 256.87,-115.22 263.02,-118.56"/>
</g>
<!-- ast.Slice object at 0x73d77ed9f1d0 -->
<g id="node14" class="node">
<title>ast.Slice object at 0x73d77ed9f1d0</title>
<path fill="#66cdaa" stroke="black" d="M217,-108C217,-108 187,-108 187,-108 181,-108 175,-102 175,-96 175,-96 175,-84 175,-84 175,-78 181,-72 187,-72 187,-72 217,-72 217,-72 223,-72 229,-78 229,-84 229,-84 229,-96 229,-96 229,-102 223,-108 217,-108"/>
<text text-anchor="middle" x="202" y="-86.3" font-family="Times,serif" font-size="14.00">Slice</text>
</g>
<!-- ast.Subscript object at 0x73d77ed9fb90&#45;&gt;ast.Slice object at 0x73d77ed9f1d0 -->
<g id="edge15" class="edge">
<title>ast.Subscript object at 0x73d77ed9fb90&#45;&gt;ast.Slice object at 0x73d77ed9f1d0</title>
<path fill="none" stroke="black" d="M227.6,-143.7C223.73,-135.73 219.05,-126.1 214.76,-117.26"/>
<polygon fill="black" stroke="black" points="217.83,-115.57 210.31,-108.1 211.53,-118.63 217.83,-115.57"/>
</g>
<!-- ast.Name object at 0x73d77ed9f190&#45;&gt;ast.Load object at 0x73d867a3ba90 -->
<g id="edge14" class="edge">
<title>ast.Name object at 0x73d77ed9f190&#45;&gt;ast.Load object at 0x73d867a3ba90</title>
<path fill="none" stroke="black" d="M301.14,-74.5C320.82,-63.98 347.62,-49.66 369.06,-38.2"/>
<polygon fill="black" stroke="black" points="370.72,-41.29 377.89,-33.49 367.42,-35.11 370.72,-41.29"/>
</g>
<!-- ast.Constant object at 0x73d77ed9dfd0 -->
<g id="node15" class="node">
<title>ast.Constant object at 0x73d77ed9dfd0</title>
<path fill="#66cdaa" stroke="black" d="M264.5,-36C264.5,-36 223.5,-36 223.5,-36 217.5,-36 211.5,-30 211.5,-24 211.5,-24 211.5,-12 211.5,-12 211.5,-6 217.5,0 223.5,0 223.5,0 264.5,0 264.5,0 270.5,0 276.5,-6 276.5,-12 276.5,-12 276.5,-24 276.5,-24 276.5,-30 270.5,-36 264.5,-36"/>
<text text-anchor="middle" x="244" y="-14.3" font-family="Times,serif" font-size="14.00">Constant</text>
</g>
<!-- ast.Slice object at 0x73d77ed9f1d0&#45;&gt;ast.Constant object at 0x73d77ed9dfd0 -->
<g id="edge16" class="edge">
<title>ast.Slice object at 0x73d77ed9f1d0&#45;&gt;ast.Constant object at 0x73d77ed9dfd0</title>
<path fill="none" stroke="black" d="M212.38,-71.7C217.26,-63.56 223.19,-53.69 228.58,-44.7"/>
<polygon fill="black" stroke="black" points="231.59,-46.48 233.74,-36.1 225.59,-42.88 231.59,-46.48"/>
</g>
<!-- ast.Constant object at 0x73d77ed9df10 -->
<g id="node16" class="node">
<title>ast.Constant object at 0x73d77ed9df10</title>
<path fill="#66cdaa" stroke="black" d="M181.5,-36C181.5,-36 140.5,-36 140.5,-36 134.5,-36 128.5,-30 128.5,-24 128.5,-24 128.5,-12 128.5,-12 128.5,-6 134.5,0 140.5,0 140.5,0 181.5,0 181.5,0 187.5,0 193.5,-6 193.5,-12 193.5,-12 193.5,-24 193.5,-24 193.5,-30 187.5,-36 181.5,-36"/>
<text text-anchor="middle" x="161" y="-14.3" font-family="Times,serif" font-size="14.00">Constant</text>
</g>
<!-- ast.Slice object at 0x73d77ed9f1d0&#45;&gt;ast.Constant object at 0x73d77ed9df10 -->
<g id="edge17" class="edge">
<title>ast.Slice object at 0x73d77ed9f1d0&#45;&gt;ast.Constant object at 0x73d77ed9df10</title>
<path fill="none" stroke="black" d="M191.87,-71.7C187.15,-63.64 181.44,-53.89 176.22,-44.98"/>
<polygon fill="black" stroke="black" points="179.09,-42.96 171.02,-36.1 173.05,-46.5 179.09,-42.96"/>
</g>
<!-- ast.Constant object at 0x73d77ed9df50 -->
<g id="node19" class="node">
<title>ast.Constant object at 0x73d77ed9df50</title>
<path fill="#66cdaa" stroke="black" d="M149.5,-324C149.5,-324 108.5,-324 108.5,-324 102.5,-324 96.5,-318 96.5,-312 96.5,-312 96.5,-300 96.5,-300 96.5,-294 102.5,-288 108.5,-288 108.5,-288 149.5,-288 149.5,-288 155.5,-288 161.5,-294 161.5,-300 161.5,-300 161.5,-312 161.5,-312 161.5,-318 155.5,-324 149.5,-324"/>
<text text-anchor="middle" x="129" y="-302.3" font-family="Times,serif" font-size="14.00">Constant</text>
</g>
<!-- ast.Return object at 0x73d77ed9e590&#45;&gt;ast.Constant object at 0x73d77ed9df50 -->
<g id="edge21" class="edge">
<title>ast.Return object at 0x73d77ed9e590&#45;&gt;ast.Constant object at 0x73d77ed9df50</title>
<path fill="none" stroke="black" d="M150.83,-359.7C147.57,-351.81 143.63,-342.3 140,-333.55"/>
<polygon fill="black" stroke="black" points="143.15,-332 136.09,-324.1 136.68,-334.68 143.15,-332"/>
</g>
<!-- ast.Subscript object at 0x73d77ed9db90 -->
<g id="node21" class="node">
<title>ast.Subscript object at 0x73d77ed9db90</title>
<path fill="#66cdaa" stroke="black" d="M396,-324C396,-324 352,-324 352,-324 346,-324 340,-318 340,-312 340,-312 340,-300 340,-300 340,-294 346,-288 352,-288 352,-288 396,-288 396,-288 402,-288 408,-294 408,-300 408,-300 408,-312 408,-312 408,-318 402,-324 396,-324"/>
<text text-anchor="middle" x="374" y="-302.3" font-family="Times,serif" font-size="14.00">Subscript</text>
</g>
<!-- ast.Return object at 0x73d77ed9e510&#45;&gt;ast.Subscript object at 0x73d77ed9db90 -->
<g id="edge23" class="edge">
<title>ast.Return object at 0x73d77ed9e510&#45;&gt;ast.Subscript object at 0x73d77ed9db90</title>
<path fill="none" stroke="black" d="M331.84,-359.7C338.49,-351.39 346.58,-341.28 353.89,-332.14"/>
<polygon fill="black" stroke="black" points="356.8,-334.1 360.32,-324.1 351.34,-329.73 356.8,-334.1"/>
</g>
<!-- ast.Subscript object at 0x73d77ed9db90&#45;&gt;ast.Load object at 0x73d867a3ba90 -->
<g id="edge35" class="edge">
<title>ast.Subscript object at 0x73d77ed9db90&#45;&gt;ast.Load object at 0x73d867a3ba90</title>
<path fill="none" stroke="black" d="M378.51,-287.93C381.08,-277.6 384.14,-264.12 386,-252 397.33,-178.03 402.2,-89.75 404.03,-46.14"/>
<polygon fill="black" stroke="black" points="407.53,-46.18 404.43,-36.05 400.54,-45.9 407.53,-46.18"/>
</g>
<!-- ast.Call object at 0x73d77ed9df90 -->
<g id="node22" class="node">
<title>ast.Call object at 0x73d77ed9df90</title>
<path fill="#66cdaa" stroke="black" d="M475,-252C475,-252 445,-252 445,-252 439,-252 433,-246 433,-240 433,-240 433,-228 433,-228 433,-222 439,-216 445,-216 445,-216 475,-216 475,-216 481,-216 487,-222 487,-228 487,-228 487,-240 487,-240 487,-246 481,-252 475,-252"/>
<text text-anchor="middle" x="460" y="-230.3" font-family="Times,serif" font-size="14.00">Call</text>
</g>
<!-- ast.Subscript object at 0x73d77ed9db90&#45;&gt;ast.Call object at 0x73d77ed9df90 -->
<g id="edge24" class="edge">
<title>ast.Subscript object at 0x73d77ed9db90&#45;&gt;ast.Call object at 0x73d77ed9df90</title>
<path fill="none" stroke="black" d="M395.26,-287.7C406.09,-278.88 419.42,-268.03 431.16,-258.47"/>
<polygon fill="black" stroke="black" points="433.44,-261.13 438.99,-252.1 429.02,-255.7 433.44,-261.13"/>
</g>
<!-- ast.Constant object at 0x73d77ed9e090 -->
<g id="node29" class="node">
<title>ast.Constant object at 0x73d77ed9e090</title>
<path fill="#66cdaa" stroke="black" d="M364.5,-252C364.5,-252 323.5,-252 323.5,-252 317.5,-252 311.5,-246 311.5,-240 311.5,-240 311.5,-228 311.5,-228 311.5,-222 317.5,-216 323.5,-216 323.5,-216 364.5,-216 364.5,-216 370.5,-216 376.5,-222 376.5,-228 376.5,-228 376.5,-240 376.5,-240 376.5,-246 370.5,-252 364.5,-252"/>
<text text-anchor="middle" x="344" y="-230.3" font-family="Times,serif" font-size="14.00">Constant</text>
</g>
<!-- ast.Subscript object at 0x73d77ed9db90&#45;&gt;ast.Constant object at 0x73d77ed9e090 -->
<g id="edge34" class="edge">
<title>ast.Subscript object at 0x73d77ed9db90&#45;&gt;ast.Constant object at 0x73d77ed9e090</title>
<path fill="none" stroke="black" d="M366.58,-287.7C363.21,-279.81 359.13,-270.3 355.38,-261.55"/>
<polygon fill="black" stroke="black" points="358.49,-259.92 351.33,-252.1 352.05,-262.67 358.49,-259.92"/>
</g>
<!-- ast.Name object at 0x73d77ed9e4d0 -->
<g id="node23" class="node">
<title>ast.Name object at 0x73d77ed9e4d0</title>
<path fill="#66cdaa" stroke="black" d="M475,-180C475,-180 445,-180 445,-180 439,-180 433,-174 433,-168 433,-168 433,-156 433,-156 433,-150 439,-144 445,-144 445,-144 475,-144 475,-144 481,-144 487,-150 487,-156 487,-156 487,-168 487,-168 487,-174 481,-180 475,-180"/>
<text text-anchor="middle" x="460" y="-158.3" font-family="Times,serif" font-size="14.00">Name</text>
</g>
<!-- ast.Call object at 0x73d77ed9df90&#45;&gt;ast.Name object at 0x73d77ed9e4d0 -->
<g id="edge25" class="edge">
<title>ast.Call object at 0x73d77ed9df90&#45;&gt;ast.Name object at 0x73d77ed9e4d0</title>
<path fill="none" stroke="black" d="M460,-215.7C460,-207.98 460,-198.71 460,-190.11"/>
<polygon fill="black" stroke="black" points="463.5,-190.1 460,-180.1 456.5,-190.1 463.5,-190.1"/>
</g>
<!-- ast.Subscript object at 0x73d77ed9e310 -->
<g id="node24" class="node">
<title>ast.Subscript object at 0x73d77ed9e310</title>
<path fill="#66cdaa" stroke="black" d="M568,-180C568,-180 524,-180 524,-180 518,-180 512,-174 512,-168 512,-168 512,-156 512,-156 512,-150 518,-144 524,-144 524,-144 568,-144 568,-144 574,-144 580,-150 580,-156 580,-156 580,-168 580,-168 580,-174 574,-180 568,-180"/>
<text text-anchor="middle" x="546" y="-158.3" font-family="Times,serif" font-size="14.00">Subscript</text>
</g>
<!-- ast.Call object at 0x73d77ed9df90&#45;&gt;ast.Subscript object at 0x73d77ed9e310 -->
<g id="edge27" class="edge">
<title>ast.Call object at 0x73d77ed9df90&#45;&gt;ast.Subscript object at 0x73d77ed9e310</title>
<path fill="none" stroke="black" d="M481.26,-215.7C492.09,-206.88 505.42,-196.03 517.16,-186.47"/>
<polygon fill="black" stroke="black" points="519.44,-189.13 524.99,-180.1 515.02,-183.7 519.44,-189.13"/>
</g>
<!-- ast.Name object at 0x73d77ed9e4d0&#45;&gt;ast.Load object at 0x73d867a3ba90 -->
<g id="edge26" class="edge">
<title>ast.Name object at 0x73d77ed9e4d0&#45;&gt;ast.Load object at 0x73d867a3ba90</title>
<path fill="none" stroke="black" d="M453.37,-143.87C443.91,-119.46 426.47,-74.43 415.32,-45.64"/>
<polygon fill="black" stroke="black" points="418.53,-44.25 411.66,-36.19 412.01,-46.78 418.53,-44.25"/>
</g>
<!-- ast.Subscript object at 0x73d77ed9e310&#45;&gt;ast.Load object at 0x73d867a3ba90 -->
<g id="edge33" class="edge">
<title>ast.Subscript object at 0x73d77ed9e310&#45;&gt;ast.Load object at 0x73d867a3ba90</title>
<path fill="none" stroke="black" d="M548.43,-143.68C550.17,-124.2 549.91,-92.61 534,-72 511.96,-43.46 471.9,-30.19 442.25,-24.08"/>
<polygon fill="black" stroke="black" points="442.72,-20.61 432.24,-22.2 441.43,-27.49 442.72,-20.61"/>
</g>
<!-- ast.Name object at 0x73d77ed9e650 -->
<g id="node25" class="node">
<title>ast.Name object at 0x73d77ed9e650</title>
<path fill="#66cdaa" stroke="black" d="M513,-108C513,-108 483,-108 483,-108 477,-108 471,-102 471,-96 471,-96 471,-84 471,-84 471,-78 477,-72 483,-72 483,-72 513,-72 513,-72 519,-72 525,-78 525,-84 525,-84 525,-96 525,-96 525,-102 519,-108 513,-108"/>
<text text-anchor="middle" x="498" y="-86.3" font-family="Times,serif" font-size="14.00">Name</text>
</g>
<!-- ast.Subscript object at 0x73d77ed9e310&#45;&gt;ast.Name object at 0x73d77ed9e650 -->
<g id="edge28" class="edge">
<title>ast.Subscript object at 0x73d77ed9e310&#45;&gt;ast.Name object at 0x73d77ed9e650</title>
<path fill="none" stroke="black" d="M534.13,-143.7C528.5,-135.47 521.65,-125.48 515.43,-116.42"/>
<polygon fill="black" stroke="black" points="518.27,-114.37 509.73,-108.1 512.5,-118.33 518.27,-114.37"/>
</g>
<!-- ast.Slice object at 0x73d77ed9e010 -->
<g id="node26" class="node">
<title>ast.Slice object at 0x73d77ed9e010</title>
<path fill="#66cdaa" stroke="black" d="M623,-108C623,-108 593,-108 593,-108 587,-108 581,-102 581,-96 581,-96 581,-84 581,-84 581,-78 587,-72 593,-72 593,-72 623,-72 623,-72 629,-72 635,-78 635,-84 635,-84 635,-96 635,-96 635,-102 629,-108 623,-108"/>
<text text-anchor="middle" x="608" y="-86.3" font-family="Times,serif" font-size="14.00">Slice</text>
</g>
<!-- ast.Subscript object at 0x73d77ed9e310&#45;&gt;ast.Slice object at 0x73d77ed9e010 -->
<g id="edge30" class="edge">
<title>ast.Subscript object at 0x73d77ed9e310&#45;&gt;ast.Slice object at 0x73d77ed9e010</title>
<path fill="none" stroke="black" d="M561.33,-143.7C568.76,-135.3 577.82,-125.07 585.98,-115.86"/>
<polygon fill="black" stroke="black" points="588.84,-117.91 592.85,-108.1 583.6,-113.27 588.84,-117.91"/>
</g>
<!-- ast.Name object at 0x73d77ed9e650&#45;&gt;ast.Load object at 0x73d867a3ba90 -->
<g id="edge29" class="edge">
<title>ast.Name object at 0x73d77ed9e650&#45;&gt;ast.Load object at 0x73d867a3ba90</title>
<path fill="none" stroke="black" d="M475.01,-71.7C463.19,-62.8 448.61,-51.82 435.82,-42.2"/>
<polygon fill="black" stroke="black" points="437.82,-39.32 427.72,-36.1 433.61,-44.91 437.82,-39.32"/>
</g>
<!-- ast.Constant object at 0x73d77ed9e490 -->
<g id="node27" class="node">
<title>ast.Constant object at 0x73d77ed9e490</title>
<path fill="#66cdaa" stroke="black" d="M669.5,-36C669.5,-36 628.5,-36 628.5,-36 622.5,-36 616.5,-30 616.5,-24 616.5,-24 616.5,-12 616.5,-12 616.5,-6 622.5,0 628.5,0 628.5,0 669.5,0 669.5,0 675.5,0 681.5,-6 681.5,-12 681.5,-12 681.5,-24 681.5,-24 681.5,-30 675.5,-36 669.5,-36"/>
<text text-anchor="middle" x="649" y="-14.3" font-family="Times,serif" font-size="14.00">Constant</text>
</g>
<!-- ast.Slice object at 0x73d77ed9e010&#45;&gt;ast.Constant object at 0x73d77ed9e490 -->
<g id="edge31" class="edge">
<title>ast.Slice object at 0x73d77ed9e010&#45;&gt;ast.Constant object at 0x73d77ed9e490</title>
<path fill="none" stroke="black" d="M618.13,-71.7C622.85,-63.64 628.56,-53.89 633.78,-44.98"/>
<polygon fill="black" stroke="black" points="636.95,-46.5 638.98,-36.1 630.91,-42.96 636.95,-46.5"/>
</g>
<!-- ast.Constant object at 0x73d77ed9e710 -->
<g id="node28" class="node">
<title>ast.Constant object at 0x73d77ed9e710</title>
<path fill="#66cdaa" stroke="black" d="M586.5,-36C586.5,-36 545.5,-36 545.5,-36 539.5,-36 533.5,-30 533.5,-24 533.5,-24 533.5,-12 533.5,-12 533.5,-6 539.5,0 545.5,0 545.5,0 586.5,0 586.5,0 592.5,0 598.5,-6 598.5,-12 598.5,-12 598.5,-24 598.5,-24 598.5,-30 592.5,-36 586.5,-36"/>
<text text-anchor="middle" x="566" y="-14.3" font-family="Times,serif" font-size="14.00">Constant</text>
</g>
<!-- ast.Slice object at 0x73d77ed9e010&#45;&gt;ast.Constant object at 0x73d77ed9e710 -->
<g id="edge32" class="edge">
<title>ast.Slice object at 0x73d77ed9e010&#45;&gt;ast.Constant object at 0x73d77ed9e710</title>
<path fill="none" stroke="black" d="M597.62,-71.7C592.74,-63.56 586.81,-53.69 581.42,-44.7"/>
<polygon fill="black" stroke="black" points="584.41,-42.88 576.26,-36.1 578.41,-46.48 584.41,-42.88"/>
</g>
</g>
</svg>
