<?xml version="1.0" encoding="UTF-8" standalone="no"?>
<!DOCTYPE svg PUBLIC "-//W3C//DTD SVG 1.1//EN"
 "http://www.w3.org/Graphics/SVG/1.1/DTD/svg11.dtd">
<!-- Generated by graphviz version 2.50.0 (0)
 -->
<!-- Pages: 1 -->
<svg width="878pt" height="476pt"
 viewBox="0.00 0.00 878.28 476.00" xmlns="http://www.w3.org/2000/svg" xmlns:xlink="http://www.w3.org/1999/xlink">
<g id="graph0" class="graph" transform="scale(1 1) rotate(0) translate(4 472)">
<polygon fill="white" stroke="transparent" points="-4,4 -4,-472 874.28,-472 874.28,4 -4,4"/>
<!-- ast.Module object at 0x703104c017d0 -->
<g id="node1" class="node">
<title>ast.Module object at 0x703104c017d0</title>
<path fill="#66cdaa" stroke="black" d="M447,-468C447,-468 412,-468 412,-468 406,-468 400,-462 400,-456 400,-456 400,-444 400,-444 400,-438 406,-432 412,-432 412,-432 447,-432 447,-432 453,-432 459,-438 459,-444 459,-444 459,-456 459,-456 459,-462 453,-468 447,-468"/>
<text text-anchor="middle" x="429.5" y="-446.3" font-family="Times,serif" font-size="14.00">Module</text>
</g>
<!-- ast.FunctionDef object at 0x703104d11710 -->
<g id="node2" class="node">
<title>ast.FunctionDef object at 0x703104d11710</title>
<path fill="#66cdaa" stroke="black" d="M460,-396C460,-396 399,-396 399,-396 393,-396 387,-390 387,-384 387,-384 387,-372 387,-372 387,-366 393,-360 399,-360 399,-360 460,-360 460,-360 466,-360 472,-366 472,-372 472,-372 472,-384 472,-384 472,-390 466,-396 460,-396"/>
<text text-anchor="middle" x="429.5" y="-374.3" font-family="Times,serif" font-size="14.00">FunctionDef</text>
</g>
<!-- ast.Module object at 0x703104c017d0&#45;&gt;ast.FunctionDef object at 0x703104d11710 -->
<g id="edge1" class="edge">
<title>ast.Module object at 0x703104c017d0&#45;&gt;ast.FunctionDef object at 0x703104d11710</title>
<path fill="none" stroke="black" d="M429.5,-431.7C429.5,-423.98 429.5,-414.71 429.5,-406.11"/>
<polygon fill="black" stroke="black" points="433,-406.1 429.5,-396.1 426,-406.1 433,-406.1"/>
</g>
<!-- ast.arguments object at 0x703104b25750 -->
<g id="node3" class="node">
<title>ast.arguments object at 0x703104b25750</title>
<path fill="#66cdaa" stroke="black" d="M285.5,-324C285.5,-324 235.5,-324 235.5,-324 229.5,-324 223.5,-318 223.5,-312 223.5,-312 223.5,-300 223.5,-300 223.5,-294 229.5,-288 235.5,-288 235.5,-288 285.5,-288 285.5,-288 291.5,-288 297.5,-294 297.5,-300 297.5,-300 297.5,-312 297.5,-312 297.5,-318 291.5,-324 285.5,-324"/>
<text text-anchor="middle" x="260.5" y="-302.3" font-family="Times,serif" font-size="14.00">arguments</text>
</g>
<!-- ast.FunctionDef object at 0x703104d11710&#45;&gt;ast.arguments object at 0x703104b25750 -->
<g id="edge2" class="edge">
<title>ast.FunctionDef object at 0x703104d11710&#45;&gt;ast.arguments object at 0x703104b25750</title>
<path fill="none" stroke="black" d="M388.16,-359.88C363.64,-349.72 332.49,-336.82 307.1,-326.3"/>
<polygon fill="black" stroke="black" points="308.25,-322.99 297.67,-322.4 305.57,-329.46 308.25,-322.99"/>
</g>
<!-- ast.Assign object at 0x703104b27150 -->
<g id="node5" class="node">
<title>ast.Assign object at 0x703104b27150</title>
<path fill="#66cdaa" stroke="black" d="M256.5,-252C256.5,-252 226.5,-252 226.5,-252 220.5,-252 214.5,-246 214.5,-240 214.5,-240 214.5,-228 214.5,-228 214.5,-222 220.5,-216 226.5,-216 226.5,-216 256.5,-216 256.5,-216 262.5,-216 268.5,-222 268.5,-228 268.5,-228 268.5,-240 268.5,-240 268.5,-246 262.5,-252 256.5,-252"/>
<text text-anchor="middle" x="241.5" y="-230.3" font-family="Times,serif" font-size="14.00">Assign</text>
</g>
<!-- ast.FunctionDef object at 0x703104d11710&#45;&gt;ast.Assign object at 0x703104b27150 -->
<g id="edge4" class="edge">
<title>ast.FunctionDef object at 0x703104d11710&#45;&gt;ast.Assign object at 0x703104b27150</title>
<path fill="none" stroke="black" d="M406.82,-359.87C373.23,-334.5 310.15,-286.85 272.37,-258.32"/>
<polygon fill="black" stroke="black" points="274.35,-255.42 264.26,-252.19 270.13,-261.01 274.35,-255.42"/>
</g>
<!-- ast.If object at 0x703104b27290 -->
<g id="node14" class="node">
<title>ast.If object at 0x703104b27290</title>
<path fill="#66cdaa" stroke="black" d="M600.5,-324C600.5,-324 570.5,-324 570.5,-324 564.5,-324 558.5,-318 558.5,-312 558.5,-312 558.5,-300 558.5,-300 558.5,-294 564.5,-288 570.5,-288 570.5,-288 600.5,-288 600.5,-288 606.5,-288 612.5,-294 612.5,-300 612.5,-300 612.5,-312 612.5,-312 612.5,-318 606.5,-324 600.5,-324"/>
<text text-anchor="middle" x="585.5" y="-302.3" font-family="Times,serif" font-size="14.00">If</text>
</g>
<!-- ast.FunctionDef object at 0x703104d11710&#45;&gt;ast.If object at 0x703104b27290 -->
<g id="edge14" class="edge">
<title>ast.FunctionDef object at 0x703104d11710&#45;&gt;ast.If object at 0x703104b27290</title>
<path fill="none" stroke="black" d="M467.66,-359.88C492.51,-348.73 524.72,-334.27 549.19,-323.29"/>
<polygon fill="black" stroke="black" points="550.8,-326.41 558.49,-319.12 547.93,-320.02 550.8,-326.41"/>
</g>
<!-- ast.Assign object at 0x703104b24e90 -->
<g id="node23" class="node">
<title>ast.Assign object at 0x703104b24e90</title>
<path fill="#66cdaa" stroke="black" d="M400.5,-252C400.5,-252 370.5,-252 370.5,-252 364.5,-252 358.5,-246 358.5,-240 358.5,-240 358.5,-228 358.5,-228 358.5,-222 364.5,-216 370.5,-216 370.5,-216 400.5,-216 400.5,-216 406.5,-216 412.5,-222 412.5,-228 412.5,-228 412.5,-240 412.5,-240 412.5,-246 406.5,-252 400.5,-252"/>
<text text-anchor="middle" x="385.5" y="-230.3" font-family="Times,serif" font-size="14.00">Assign</text>
</g>
<!-- ast.FunctionDef object at 0x703104d11710&#45;&gt;ast.Assign object at 0x703104b24e90 -->
<g id="edge25" class="edge">
<title>ast.FunctionDef object at 0x703104d11710&#45;&gt;ast.Assign object at 0x703104b24e90</title>
<path fill="none" stroke="black" d="M424.19,-359.87C416.66,-335.56 402.8,-290.82 393.87,-262.01"/>
<polygon fill="black" stroke="black" points="397.13,-260.71 390.83,-252.19 390.44,-262.78 397.13,-260.71"/>
</g>
<!-- ast.Assign object at 0x703104b24f90 -->
<g id="node30" class="node">
<title>ast.Assign object at 0x703104b24f90</title>
<path fill="#66cdaa" stroke="black" d="M472.5,-252C472.5,-252 442.5,-252 442.5,-252 436.5,-252 430.5,-246 430.5,-240 430.5,-240 430.5,-228 430.5,-228 430.5,-222 436.5,-216 442.5,-216 442.5,-216 472.5,-216 472.5,-216 478.5,-216 484.5,-222 484.5,-228 484.5,-228 484.5,-240 484.5,-240 484.5,-246 478.5,-252 472.5,-252"/>
<text text-anchor="middle" x="457.5" y="-230.3" font-family="Times,serif" font-size="14.00">Assign</text>
</g>
<!-- ast.FunctionDef object at 0x703104d11710&#45;&gt;ast.Assign object at 0x703104b24f90 -->
<g id="edge35" class="edge">
<title>ast.FunctionDef object at 0x703104d11710&#45;&gt;ast.Assign object at 0x703104b24f90</title>
<path fill="none" stroke="black" d="M432.88,-359.87C437.67,-335.56 446.49,-290.82 452.17,-262.01"/>
<polygon fill="black" stroke="black" points="455.61,-262.68 454.11,-252.19 448.74,-261.32 455.61,-262.68"/>
</g>
<!-- ast.Return object at 0x703104b26290 -->
<g id="node35" class="node">
<title>ast.Return object at 0x703104b26290</title>
<path fill="#66cdaa" stroke="black" d="M715.5,-324C715.5,-324 685.5,-324 685.5,-324 679.5,-324 673.5,-318 673.5,-312 673.5,-312 673.5,-300 673.5,-300 673.5,-294 679.5,-288 685.5,-288 685.5,-288 715.5,-288 715.5,-288 721.5,-288 727.5,-294 727.5,-300 727.5,-300 727.5,-312 727.5,-312 727.5,-318 721.5,-324 715.5,-324"/>
<text text-anchor="middle" x="700.5" y="-302.3" font-family="Times,serif" font-size="14.00">Return</text>
</g>
<!-- ast.FunctionDef object at 0x703104d11710&#45;&gt;ast.Return object at 0x703104b26290 -->
<g id="edge43" class="edge">
<title>ast.FunctionDef object at 0x703104d11710&#45;&gt;ast.Return object at 0x703104b26290</title>
<path fill="none" stroke="black" d="M472.14,-365.99C524.85,-352.37 613.69,-329.42 663.6,-316.53"/>
<polygon fill="black" stroke="black" points="664.53,-319.91 673.34,-314.02 662.78,-313.13 664.53,-319.91"/>
</g>
<!-- ast.arg object at 0x703104b27dd0 -->
<g id="node4" class="node">
<title>ast.arg object at 0x703104b27dd0</title>
<path fill="#66cdaa" stroke="black" d="M184.5,-252C184.5,-252 154.5,-252 154.5,-252 148.5,-252 142.5,-246 142.5,-240 142.5,-240 142.5,-228 142.5,-228 142.5,-222 148.5,-216 154.5,-216 154.5,-216 184.5,-216 184.5,-216 190.5,-216 196.5,-222 196.5,-228 196.5,-228 196.5,-240 196.5,-240 196.5,-246 190.5,-252 184.5,-252"/>
<text text-anchor="middle" x="169.5" y="-230.3" font-family="Times,serif" font-size="14.00">arg</text>
</g>
<!-- ast.arguments object at 0x703104b25750&#45;&gt;ast.arg object at 0x703104b27dd0 -->
<g id="edge3" class="edge">
<title>ast.arguments object at 0x703104b25750&#45;&gt;ast.arg object at 0x703104b27dd0</title>
<path fill="none" stroke="black" d="M238.01,-287.7C226.54,-278.88 212.44,-268.03 200.02,-258.47"/>
<polygon fill="black" stroke="black" points="201.8,-255.43 191.74,-252.1 197.53,-260.98 201.8,-255.43"/>
</g>
<!-- ast.Name object at 0x703104b261d0 -->
<g id="node6" class="node">
<title>ast.Name object at 0x703104b261d0</title>
<path fill="#66cdaa" stroke="black" d="M220.5,-180C220.5,-180 190.5,-180 190.5,-180 184.5,-180 178.5,-174 178.5,-168 178.5,-168 178.5,-156 178.5,-156 178.5,-150 184.5,-144 190.5,-144 190.5,-144 220.5,-144 220.5,-144 226.5,-144 232.5,-150 232.5,-156 232.5,-156 232.5,-168 232.5,-168 232.5,-174 226.5,-180 220.5,-180"/>
<text text-anchor="middle" x="205.5" y="-158.3" font-family="Times,serif" font-size="14.00">Name</text>
</g>
<!-- ast.Assign object at 0x703104b27150&#45;&gt;ast.Name object at 0x703104b261d0 -->
<g id="edge5" class="edge">
<title>ast.Assign object at 0x703104b27150&#45;&gt;ast.Name object at 0x703104b261d0</title>
<path fill="none" stroke="black" d="M232.6,-215.7C228.5,-207.73 223.55,-198.1 219.01,-189.26"/>
<polygon fill="black" stroke="black" points="221.98,-187.4 214.3,-180.1 215.76,-190.6 221.98,-187.4"/>
</g>
<!-- ast.Subscript object at 0x703104b25250 -->
<g id="node8" class="node">
<title>ast.Subscript object at 0x703104b25250</title>
<path fill="#66cdaa" stroke="black" d="M148.5,-180C148.5,-180 104.5,-180 104.5,-180 98.5,-180 92.5,-174 92.5,-168 92.5,-168 92.5,-156 92.5,-156 92.5,-150 98.5,-144 104.5,-144 104.5,-144 148.5,-144 148.5,-144 154.5,-144 160.5,-150 160.5,-156 160.5,-156 160.5,-168 160.5,-168 160.5,-174 154.5,-180 148.5,-180"/>
<text text-anchor="middle" x="126.5" y="-158.3" font-family="Times,serif" font-size="14.00">Subscript</text>
</g>
<!-- ast.Assign object at 0x703104b27150&#45;&gt;ast.Subscript object at 0x703104b25250 -->
<g id="edge7" class="edge">
<title>ast.Assign object at 0x703104b27150&#45;&gt;ast.Subscript object at 0x703104b25250</title>
<path fill="none" stroke="black" d="M214.25,-216.41C199.12,-207.2 180.08,-195.61 163.61,-185.59"/>
<polygon fill="black" stroke="black" points="165.12,-182.41 154.76,-180.2 161.48,-188.39 165.12,-182.41"/>
</g>
<!-- ast.Store object at 0x7031ebab6a90 -->
<g id="node7" class="node">
<title>ast.Store object at 0x7031ebab6a90</title>
<path fill="#66cdaa" stroke="black" d="M270.5,-108C270.5,-108 240.5,-108 240.5,-108 234.5,-108 228.5,-102 228.5,-96 228.5,-96 228.5,-84 228.5,-84 228.5,-78 234.5,-72 240.5,-72 240.5,-72 270.5,-72 270.5,-72 276.5,-72 282.5,-78 282.5,-84 282.5,-84 282.5,-96 282.5,-96 282.5,-102 276.5,-108 270.5,-108"/>
<text text-anchor="middle" x="255.5" y="-86.3" font-family="Times,serif" font-size="14.00">Store</text>
</g>
<!-- ast.Name object at 0x703104b261d0&#45;&gt;ast.Store object at 0x7031ebab6a90 -->
<g id="edge6" class="edge">
<title>ast.Name object at 0x703104b261d0&#45;&gt;ast.Store object at 0x7031ebab6a90</title>
<path fill="none" stroke="black" d="M217.86,-143.7C223.73,-135.47 230.87,-125.48 237.34,-116.42"/>
<polygon fill="black" stroke="black" points="240.32,-118.28 243.28,-108.1 234.62,-114.21 240.32,-118.28"/>
</g>
<!-- ast.Name object at 0x703104b26ed0 -->
<g id="node9" class="node">
<title>ast.Name object at 0x703104b26ed0</title>
<path fill="#66cdaa" stroke="black" d="M160.5,-108C160.5,-108 130.5,-108 130.5,-108 124.5,-108 118.5,-102 118.5,-96 118.5,-96 118.5,-84 118.5,-84 118.5,-78 124.5,-72 130.5,-72 130.5,-72 160.5,-72 160.5,-72 166.5,-72 172.5,-78 172.5,-84 172.5,-84 172.5,-96 172.5,-96 172.5,-102 166.5,-108 160.5,-108"/>
<text text-anchor="middle" x="145.5" y="-86.3" font-family="Times,serif" font-size="14.00">Name</text>
</g>
<!-- ast.Subscript object at 0x703104b25250&#45;&gt;ast.Name object at 0x703104b26ed0 -->
<g id="edge8" class="edge">
<title>ast.Subscript object at 0x703104b25250&#45;&gt;ast.Name object at 0x703104b26ed0</title>
<path fill="none" stroke="black" d="M131.2,-143.7C133.31,-135.9 135.86,-126.51 138.22,-117.83"/>
<polygon fill="black" stroke="black" points="141.62,-118.67 140.86,-108.1 134.86,-116.84 141.62,-118.67"/>
</g>
<!-- ast.Load object at 0x7031ebab6a10 -->
<g id="node10" class="node">
<title>ast.Load object at 0x7031ebab6a10</title>
<path fill="#66cdaa" stroke="black" d="M652.5,-36C652.5,-36 622.5,-36 622.5,-36 616.5,-36 610.5,-30 610.5,-24 610.5,-24 610.5,-12 610.5,-12 610.5,-6 616.5,0 622.5,0 622.5,0 652.5,0 652.5,0 658.5,0 664.5,-6 664.5,-12 664.5,-12 664.5,-24 664.5,-24 664.5,-30 658.5,-36 652.5,-36"/>
<text text-anchor="middle" x="637.5" y="-14.3" font-family="Times,serif" font-size="14.00">Load</text>
</g>
<!-- ast.Subscript object at 0x703104b25250&#45;&gt;ast.Load object at 0x7031ebab6a10 -->
<g id="edge13" class="edge">
<title>ast.Subscript object at 0x703104b25250&#45;&gt;ast.Load object at 0x7031ebab6a10</title>
<path fill="none" stroke="black" d="M144.16,-143.97C170.8,-118.29 218.34,-72.55 219.5,-72 286.6,-40.02 510.62,-25.41 600.1,-20.75"/>
<polygon fill="black" stroke="black" points="600.52,-24.23 610.33,-20.23 600.17,-17.24 600.52,-24.23"/>
</g>
<!-- ast.Slice object at 0x703104b27250 -->
<g id="node11" class="node">
<title>ast.Slice object at 0x703104b27250</title>
<path fill="#66cdaa" stroke="black" d="M88.5,-108C88.5,-108 58.5,-108 58.5,-108 52.5,-108 46.5,-102 46.5,-96 46.5,-96 46.5,-84 46.5,-84 46.5,-78 52.5,-72 58.5,-72 58.5,-72 88.5,-72 88.5,-72 94.5,-72 100.5,-78 100.5,-84 100.5,-84 100.5,-96 100.5,-96 100.5,-102 94.5,-108 88.5,-108"/>
<text text-anchor="middle" x="73.5" y="-86.3" font-family="Times,serif" font-size="14.00">Slice</text>
</g>
<!-- ast.Subscript object at 0x703104b25250&#45;&gt;ast.Slice object at 0x703104b27250 -->
<g id="edge10" class="edge">
<title>ast.Subscript object at 0x703104b25250&#45;&gt;ast.Slice object at 0x703104b27250</title>
<path fill="none" stroke="black" d="M113.4,-143.7C107.11,-135.39 99.45,-125.28 92.54,-116.14"/>
<polygon fill="black" stroke="black" points="95.28,-113.96 86.45,-108.1 89.7,-118.19 95.28,-113.96"/>
</g>
<!-- ast.Name object at 0x703104b26ed0&#45;&gt;ast.Load object at 0x7031ebab6a10 -->
<g id="edge9" class="edge">
<title>ast.Name object at 0x703104b26ed0&#45;&gt;ast.Load object at 0x7031ebab6a10</title>
<path fill="none" stroke="black" d="M172.93,-76.41C177.4,-74.72 182.03,-73.17 186.5,-72 336.41,-32.92 521.91,-22.61 600.04,-19.92"/>
<polygon fill="black" stroke="black" points="600.45,-23.41 610.33,-19.59 600.23,-16.42 600.45,-23.41"/>
</g>
<!-- ast.Constant object at 0x703104b26050 -->
<g id="node12" class="node">
<title>ast.Constant object at 0x703104b26050</title>
<path fill="#66cdaa" stroke="black" d="M136,-36C136,-36 95,-36 95,-36 89,-36 83,-30 83,-24 83,-24 83,-12 83,-12 83,-6 89,0 95,0 95,0 136,0 136,0 142,0 148,-6 148,-12 148,-12 148,-24 148,-24 148,-30 142,-36 136,-36"/>
<text text-anchor="middle" x="115.5" y="-14.3" font-family="Times,serif" font-size="14.00">Constant</text>
</g>
<!-- ast.Slice object at 0x703104b27250&#45;&gt;ast.Constant object at 0x703104b26050 -->
<g id="edge11" class="edge">
<title>ast.Slice object at 0x703104b27250&#45;&gt;ast.Constant object at 0x703104b26050</title>
<path fill="none" stroke="black" d="M83.88,-71.7C88.76,-63.56 94.69,-53.69 100.08,-44.7"/>
<polygon fill="black" stroke="black" points="103.09,-46.48 105.24,-36.1 97.09,-42.88 103.09,-46.48"/>
</g>
<!-- ast.Constant object at 0x703104b24490 -->
<g id="node13" class="node">
<title>ast.Constant object at 0x703104b24490</title>
<path fill="#66cdaa" stroke="black" d="M53,-36C53,-36 12,-36 12,-36 6,-36 0,-30 0,-24 0,-24 0,-12 0,-12 0,-6 6,0 12,0 12,0 53,0 53,0 59,0 65,-6 65,-12 65,-12 65,-24 65,-24 65,-30 59,-36 53,-36"/>
<text text-anchor="middle" x="32.5" y="-14.3" font-family="Times,serif" font-size="14.00">Constant</text>
</g>
<!-- ast.Slice object at 0x703104b27250&#45;&gt;ast.Constant object at 0x703104b24490 -->
<g id="edge12" class="edge">
<title>ast.Slice object at 0x703104b27250&#45;&gt;ast.Constant object at 0x703104b24490</title>
<path fill="none" stroke="black" d="M63.37,-71.7C58.65,-63.64 52.94,-53.89 47.72,-44.98"/>
<polygon fill="black" stroke="black" points="50.59,-42.96 42.52,-36.1 44.55,-46.5 50.59,-42.96"/>
</g>
<!-- ast.Compare object at 0x703104b26d90 -->
<g id="node15" class="node">
<title>ast.Compare object at 0x703104b26d90</title>
<path fill="#66cdaa" stroke="black" d="M724,-252C724,-252 681,-252 681,-252 675,-252 669,-246 669,-240 669,-240 669,-228 669,-228 669,-222 675,-216 681,-216 681,-216 724,-216 724,-216 730,-216 736,-222 736,-228 736,-228 736,-240 736,-240 736,-246 730,-252 724,-252"/>
<text text-anchor="middle" x="702.5" y="-230.3" font-family="Times,serif" font-size="14.00">Compare</text>
</g>
<!-- ast.If object at 0x703104b27290&#45;&gt;ast.Compare object at 0x703104b26d90 -->
<g id="edge15" class="edge">
<title>ast.If object at 0x703104b27290&#45;&gt;ast.Compare object at 0x703104b26d90</title>
<path fill="none" stroke="black" d="M612.64,-288.76C628.27,-279.41 648.15,-267.52 665.24,-257.29"/>
<polygon fill="black" stroke="black" points="667.09,-260.26 673.88,-252.12 663.5,-254.25 667.09,-260.26"/>
</g>
<!-- ast.Return object at 0x703104b25950 -->
<g id="node21" class="node">
<title>ast.Return object at 0x703104b25950</title>
<path fill="#66cdaa" stroke="black" d="M600.5,-252C600.5,-252 570.5,-252 570.5,-252 564.5,-252 558.5,-246 558.5,-240 558.5,-240 558.5,-228 558.5,-228 558.5,-222 564.5,-216 570.5,-216 570.5,-216 600.5,-216 600.5,-216 606.5,-216 612.5,-222 612.5,-228 612.5,-228 612.5,-240 612.5,-240 612.5,-246 606.5,-252 600.5,-252"/>
<text text-anchor="middle" x="585.5" y="-230.3" font-family="Times,serif" font-size="14.00">Return</text>
</g>
<!-- ast.If object at 0x703104b27290&#45;&gt;ast.Return object at 0x703104b25950 -->
<g id="edge23" class="edge">
<title>ast.If object at 0x703104b27290&#45;&gt;ast.Return object at 0x703104b25950</title>
<path fill="none" stroke="black" d="M585.5,-287.7C585.5,-279.98 585.5,-270.71 585.5,-262.11"/>
<polygon fill="black" stroke="black" points="589,-262.1 585.5,-252.1 582,-262.1 589,-262.1"/>
</g>
<!-- ast.Call object at 0x703104b27e10 -->
<g id="node16" class="node">
<title>ast.Call object at 0x703104b27e10</title>
<path fill="#66cdaa" stroke="black" d="M834.5,-180C834.5,-180 804.5,-180 804.5,-180 798.5,-180 792.5,-174 792.5,-168 792.5,-168 792.5,-156 792.5,-156 792.5,-150 798.5,-144 804.5,-144 804.5,-144 834.5,-144 834.5,-144 840.5,-144 846.5,-150 846.5,-156 846.5,-156 846.5,-168 846.5,-168 846.5,-174 840.5,-180 834.5,-180"/>
<text text-anchor="middle" x="819.5" y="-158.3" font-family="Times,serif" font-size="14.00">Call</text>
</g>
<!-- ast.Compare object at 0x703104b26d90&#45;&gt;ast.Call object at 0x703104b27e10 -->
<g id="edge16" class="edge">
<title>ast.Compare object at 0x703104b26d90&#45;&gt;ast.Call object at 0x703104b27e10</title>
<path fill="none" stroke="black" d="M731.12,-215.88C746.88,-206.45 766.58,-194.66 783.39,-184.61"/>
<polygon fill="black" stroke="black" points="785.6,-187.36 792.38,-179.23 782,-181.36 785.6,-187.36"/>
</g>
<!-- ast.Lt object at 0x7031ebab7b10 -->
<g id="node19" class="node">
<title>ast.Lt object at 0x7031ebab7b10</title>
<path fill="#66cdaa" stroke="black" d="M678.5,-180C678.5,-180 648.5,-180 648.5,-180 642.5,-180 636.5,-174 636.5,-168 636.5,-168 636.5,-156 636.5,-156 636.5,-150 642.5,-144 648.5,-144 648.5,-144 678.5,-144 678.5,-144 684.5,-144 690.5,-150 690.5,-156 690.5,-156 690.5,-168 690.5,-168 690.5,-174 684.5,-180 678.5,-180"/>
<text text-anchor="middle" x="663.5" y="-158.3" font-family="Times,serif" font-size="14.00">Lt</text>
</g>
<!-- ast.Compare object at 0x703104b26d90&#45;&gt;ast.Lt object at 0x7031ebab7b10 -->
<g id="edge21" class="edge">
<title>ast.Compare object at 0x703104b26d90&#45;&gt;ast.Lt object at 0x7031ebab7b10</title>
<path fill="none" stroke="black" d="M692.86,-215.7C688.37,-207.64 682.94,-197.89 677.98,-188.98"/>
<polygon fill="black" stroke="black" points="680.95,-187.14 673.03,-180.1 674.84,-190.54 680.95,-187.14"/>
</g>
<!-- ast.Constant object at 0x703104b27f10 -->
<g id="node20" class="node">
<title>ast.Constant object at 0x703104b27f10</title>
<path fill="#66cdaa" stroke="black" d="M762,-180C762,-180 721,-180 721,-180 715,-180 709,-174 709,-168 709,-168 709,-156 709,-156 709,-150 715,-144 721,-144 721,-144 762,-144 762,-144 768,-144 774,-150 774,-156 774,-156 774,-168 774,-168 774,-174 768,-180 762,-180"/>
<text text-anchor="middle" x="741.5" y="-158.3" font-family="Times,serif" font-size="14.00">Constant</text>
</g>
<!-- ast.Compare object at 0x703104b26d90&#45;&gt;ast.Constant object at 0x703104b27f10 -->
<g id="edge22" class="edge">
<title>ast.Compare object at 0x703104b26d90&#45;&gt;ast.Constant object at 0x703104b27f10</title>
<path fill="none" stroke="black" d="M712.14,-215.7C716.63,-207.64 722.06,-197.89 727.02,-188.98"/>
<polygon fill="black" stroke="black" points="730.16,-190.54 731.97,-180.1 724.05,-187.14 730.16,-190.54"/>
</g>
<!-- ast.Name object at 0x703104b27e90 -->
<g id="node17" class="node">
<title>ast.Name object at 0x703104b27e90</title>
<path fill="#66cdaa" stroke="black" d="M762.5,-108C762.5,-108 732.5,-108 732.5,-108 726.5,-108 720.5,-102 720.5,-96 720.5,-96 720.5,-84 720.5,-84 720.5,-78 726.5,-72 732.5,-72 732.5,-72 762.5,-72 762.5,-72 768.5,-72 774.5,-78 774.5,-84 774.5,-84 774.5,-96 774.5,-96 774.5,-102 768.5,-108 762.5,-108"/>
<text text-anchor="middle" x="747.5" y="-86.3" font-family="Times,serif" font-size="14.00">Name</text>
</g>
<!-- ast.Call object at 0x703104b27e10&#45;&gt;ast.Name object at 0x703104b27e90 -->
<g id="edge17" class="edge">
<title>ast.Call object at 0x703104b27e10&#45;&gt;ast.Name object at 0x703104b27e90</title>
<path fill="none" stroke="black" d="M801.7,-143.7C792.9,-135.14 782.12,-124.66 772.5,-115.3"/>
<polygon fill="black" stroke="black" points="774.7,-112.57 765.09,-108.1 769.82,-117.58 774.7,-112.57"/>
</g>
<!-- ast.Name object at 0x703104b26710 -->
<g id="node18" class="node">
<title>ast.Name object at 0x703104b26710</title>
<path fill="#66cdaa" stroke="black" d="M834.5,-108C834.5,-108 804.5,-108 804.5,-108 798.5,-108 792.5,-102 792.5,-96 792.5,-96 792.5,-84 792.5,-84 792.5,-78 798.5,-72 804.5,-72 804.5,-72 834.5,-72 834.5,-72 840.5,-72 846.5,-78 846.5,-84 846.5,-84 846.5,-96 846.5,-96 846.5,-102 840.5,-108 834.5,-108"/>
<text text-anchor="middle" x="819.5" y="-86.3" font-family="Times,serif" font-size="14.00">Name</text>
</g>
<!-- ast.Call object at 0x703104b27e10&#45;&gt;ast.Name object at 0x703104b26710 -->
<g id="edge19" class="edge">
<title>ast.Call object at 0x703104b27e10&#45;&gt;ast.Name object at 0x703104b26710</title>
<path fill="none" stroke="black" d="M819.5,-143.7C819.5,-135.98 819.5,-126.71 819.5,-118.11"/>
<polygon fill="black" stroke="black" points="823,-118.1 819.5,-108.1 816,-118.1 823,-118.1"/>
</g>
<!-- ast.Name object at 0x703104b27e90&#45;&gt;ast.Load object at 0x7031ebab6a10 -->
<g id="edge18" class="edge">
<title>ast.Name object at 0x703104b27e90&#45;&gt;ast.Load object at 0x7031ebab6a10</title>
<path fill="none" stroke="black" d="M720.59,-71.88C706.34,-62.81 688.65,-51.55 673.26,-41.76"/>
<polygon fill="black" stroke="black" points="674.83,-38.61 664.51,-36.19 671.07,-44.51 674.83,-38.61"/>
</g>
<!-- ast.Name object at 0x703104b26710&#45;&gt;ast.Load object at 0x7031ebab6a10 -->
<g id="edge20" class="edge">
<title>ast.Name object at 0x703104b26710&#45;&gt;ast.Load object at 0x7031ebab6a10</title>
<path fill="none" stroke="black" d="M792.49,-75.92C789.48,-74.55 786.43,-73.22 783.5,-72 746.82,-56.72 704,-41.47 674.26,-31.28"/>
<polygon fill="black" stroke="black" points="675.29,-27.94 664.7,-28.03 673.04,-34.56 675.29,-27.94"/>
</g>
<!-- ast.Constant object at 0x703104b26790 -->
<g id="node22" class="node">
<title>ast.Constant object at 0x703104b26790</title>
<path fill="#66cdaa" stroke="black" d="M606,-180C606,-180 565,-180 565,-180 559,-180 553,-174 553,-168 553,-168 553,-156 553,-156 553,-150 559,-144 565,-144 565,-144 606,-144 606,-144 612,-144 618,-150 618,-156 618,-156 618,-168 618,-168 618,-174 612,-180 606,-180"/>
<text text-anchor="middle" x="585.5" y="-158.3" font-family="Times,serif" font-size="14.00">Constant</text>
</g>
<!-- ast.Return object at 0x703104b25950&#45;&gt;ast.Constant object at 0x703104b26790 -->
<g id="edge24" class="edge">
<title>ast.Return object at 0x703104b25950&#45;&gt;ast.Constant object at 0x703104b26790</title>
<path fill="none" stroke="black" d="M585.5,-215.7C585.5,-207.98 585.5,-198.71 585.5,-190.11"/>
<polygon fill="black" stroke="black" points="589,-190.1 585.5,-180.1 582,-190.1 589,-190.1"/>
</g>
<!-- ast.Name object at 0x703104b26150 -->
<g id="node24" class="node">
<title>ast.Name object at 0x703104b26150</title>
<path fill="#66cdaa" stroke="black" d="M292.5,-180C292.5,-180 262.5,-180 262.5,-180 256.5,-180 250.5,-174 250.5,-168 250.5,-168 250.5,-156 250.5,-156 250.5,-150 256.5,-144 262.5,-144 262.5,-144 292.5,-144 292.5,-144 298.5,-144 304.5,-150 304.5,-156 304.5,-156 304.5,-168 304.5,-168 304.5,-174 298.5,-180 292.5,-180"/>
<text text-anchor="middle" x="277.5" y="-158.3" font-family="Times,serif" font-size="14.00">Name</text>
</g>
<!-- ast.Assign object at 0x703104b24e90&#45;&gt;ast.Name object at 0x703104b26150 -->
<g id="edge26" class="edge">
<title>ast.Assign object at 0x703104b24e90&#45;&gt;ast.Name object at 0x703104b26150</title>
<path fill="none" stroke="black" d="M359.08,-215.88C345.09,-206.81 327.72,-195.55 312.61,-185.76"/>
<polygon fill="black" stroke="black" points="314.32,-182.69 304.02,-180.19 310.51,-188.57 314.32,-182.69"/>
</g>
<!-- ast.Call object at 0x703104b24ed0 -->
<g id="node25" class="node">
<title>ast.Call object at 0x703104b24ed0</title>
<path fill="#66cdaa" stroke="black" d="M436.5,-180C436.5,-180 406.5,-180 406.5,-180 400.5,-180 394.5,-174 394.5,-168 394.5,-168 394.5,-156 394.5,-156 394.5,-150 400.5,-144 406.5,-144 406.5,-144 436.5,-144 436.5,-144 442.5,-144 448.5,-150 448.5,-156 448.5,-156 448.5,-168 448.5,-168 448.5,-174 442.5,-180 436.5,-180"/>
<text text-anchor="middle" x="421.5" y="-158.3" font-family="Times,serif" font-size="14.00">Call</text>
</g>
<!-- ast.Assign object at 0x703104b24e90&#45;&gt;ast.Call object at 0x703104b24ed0 -->
<g id="edge28" class="edge">
<title>ast.Assign object at 0x703104b24e90&#45;&gt;ast.Call object at 0x703104b24ed0</title>
<path fill="none" stroke="black" d="M394.4,-215.7C398.5,-207.73 403.45,-198.1 407.99,-189.26"/>
<polygon fill="black" stroke="black" points="411.24,-190.6 412.7,-180.1 405.02,-187.4 411.24,-190.6"/>
</g>
<!-- ast.Name object at 0x703104b26150&#45;&gt;ast.Store object at 0x7031ebab6a90 -->
<g id="edge27" class="edge">
<title>ast.Name object at 0x703104b26150&#45;&gt;ast.Store object at 0x7031ebab6a90</title>
<path fill="none" stroke="black" d="M272.06,-143.7C269.61,-135.9 266.66,-126.51 263.93,-117.83"/>
<polygon fill="black" stroke="black" points="267.21,-116.59 260.88,-108.1 260.54,-118.69 267.21,-116.59"/>
</g>
<!-- ast.Name object at 0x703104b245d0 -->
<g id="node26" class="node">
<title>ast.Name object at 0x703104b245d0</title>
<path fill="#66cdaa" stroke="black" d="M424.5,-108C424.5,-108 394.5,-108 394.5,-108 388.5,-108 382.5,-102 382.5,-96 382.5,-96 382.5,-84 382.5,-84 382.5,-78 388.5,-72 394.5,-72 394.5,-72 424.5,-72 424.5,-72 430.5,-72 436.5,-78 436.5,-84 436.5,-84 436.5,-96 436.5,-96 436.5,-102 430.5,-108 424.5,-108"/>
<text text-anchor="middle" x="409.5" y="-86.3" font-family="Times,serif" font-size="14.00">Name</text>
</g>
<!-- ast.Call object at 0x703104b24ed0&#45;&gt;ast.Name object at 0x703104b245d0 -->
<g id="edge29" class="edge">
<title>ast.Call object at 0x703104b24ed0&#45;&gt;ast.Name object at 0x703104b245d0</title>
<path fill="none" stroke="black" d="M418.53,-143.7C417.21,-135.98 415.62,-126.71 414.15,-118.11"/>
<polygon fill="black" stroke="black" points="417.57,-117.37 412.43,-108.1 410.67,-118.55 417.57,-117.37"/>
</g>
<!-- ast.Name object at 0x703104b246d0 -->
<g id="node27" class="node">
<title>ast.Name object at 0x703104b246d0</title>
<path fill="#66cdaa" stroke="black" d="M496.5,-108C496.5,-108 466.5,-108 466.5,-108 460.5,-108 454.5,-102 454.5,-96 454.5,-96 454.5,-84 454.5,-84 454.5,-78 460.5,-72 466.5,-72 466.5,-72 496.5,-72 496.5,-72 502.5,-72 508.5,-78 508.5,-84 508.5,-84 508.5,-96 508.5,-96 508.5,-102 502.5,-108 496.5,-108"/>
<text text-anchor="middle" x="481.5" y="-86.3" font-family="Times,serif" font-size="14.00">Name</text>
</g>
<!-- ast.Call object at 0x703104b24ed0&#45;&gt;ast.Name object at 0x703104b246d0 -->
<g id="edge31" class="edge">
<title>ast.Call object at 0x703104b24ed0&#45;&gt;ast.Name object at 0x703104b246d0</title>
<path fill="none" stroke="black" d="M436.33,-143.7C443.52,-135.3 452.3,-125.07 460.19,-115.86"/>
<polygon fill="black" stroke="black" points="462.99,-117.97 466.84,-108.1 457.67,-113.42 462.99,-117.97"/>
</g>
<!-- ast.keyword object at 0x703104b24f10 -->
<g id="node28" class="node">
<title>ast.keyword object at 0x703104b24f10</title>
<path fill="#66cdaa" stroke="black" d="M352.5,-108C352.5,-108 312.5,-108 312.5,-108 306.5,-108 300.5,-102 300.5,-96 300.5,-96 300.5,-84 300.5,-84 300.5,-78 306.5,-72 312.5,-72 312.5,-72 352.5,-72 352.5,-72 358.5,-72 364.5,-78 364.5,-84 364.5,-84 364.5,-96 364.5,-96 364.5,-102 358.5,-108 352.5,-108"/>
<text text-anchor="middle" x="332.5" y="-86.3" font-family="Times,serif" font-size="14.00">keyword</text>
</g>
<!-- ast.Call object at 0x703104b24ed0&#45;&gt;ast.keyword object at 0x703104b24f10 -->
<g id="edge33" class="edge">
<title>ast.Call object at 0x703104b24ed0&#45;&gt;ast.keyword object at 0x703104b24f10</title>
<path fill="none" stroke="black" d="M399.5,-143.7C388.29,-134.88 374.5,-124.03 362.35,-114.47"/>
<polygon fill="black" stroke="black" points="364.27,-111.54 354.25,-108.1 359.94,-117.04 364.27,-111.54"/>
</g>
<!-- ast.Name object at 0x703104b245d0&#45;&gt;ast.Load object at 0x7031ebab6a10 -->
<g id="edge30" class="edge">
<title>ast.Name object at 0x703104b245d0&#45;&gt;ast.Load object at 0x7031ebab6a10</title>
<path fill="none" stroke="black" d="M436.81,-75.51C439.71,-74.25 442.65,-73.06 445.5,-72 498.18,-52.46 561.33,-36.37 600.44,-27.23"/>
<polygon fill="black" stroke="black" points="601.37,-30.6 610.33,-24.94 599.8,-23.78 601.37,-30.6"/>
</g>
<!-- ast.Name object at 0x703104b246d0&#45;&gt;ast.Load object at 0x7031ebab6a10 -->
<g id="edge32" class="edge">
<title>ast.Name object at 0x703104b246d0&#45;&gt;ast.Load object at 0x7031ebab6a10</title>
<path fill="none" stroke="black" d="M508.59,-76.12C511.59,-74.72 514.61,-73.32 517.5,-72 545.36,-59.27 577.06,-45.29 600.88,-34.89"/>
<polygon fill="black" stroke="black" points="602.48,-38.01 610.25,-30.8 599.68,-31.59 602.48,-38.01"/>
</g>
<!-- ast.Constant object at 0x703104b26210 -->
<g id="node29" class="node">
<title>ast.Constant object at 0x703104b26210</title>
<path fill="#66cdaa" stroke="black" d="M353,-36C353,-36 312,-36 312,-36 306,-36 300,-30 300,-24 300,-24 300,-12 300,-12 300,-6 306,0 312,0 312,0 353,0 353,0 359,0 365,-6 365,-12 365,-12 365,-24 365,-24 365,-30 359,-36 353,-36"/>
<text text-anchor="middle" x="332.5" y="-14.3" font-family="Times,serif" font-size="14.00">Constant</text>
</g>
<!-- ast.keyword object at 0x703104b24f10&#45;&gt;ast.Constant object at 0x703104b26210 -->
<g id="edge34" class="edge">
<title>ast.keyword object at 0x703104b24f10&#45;&gt;ast.Constant object at 0x703104b26210</title>
<path fill="none" stroke="black" d="M332.5,-71.7C332.5,-63.98 332.5,-54.71 332.5,-46.11"/>
<polygon fill="black" stroke="black" points="336,-46.1 332.5,-36.1 329,-46.1 336,-46.1"/>
</g>
<!-- ast.Name object at 0x703104b24910 -->
<g id="node31" class="node">
<title>ast.Name object at 0x703104b24910</title>
<path fill="#66cdaa" stroke="black" d="M364.5,-180C364.5,-180 334.5,-180 334.5,-180 328.5,-180 322.5,-174 322.5,-168 322.5,-168 322.5,-156 322.5,-156 322.5,-150 328.5,-144 334.5,-144 334.5,-144 364.5,-144 364.5,-144 370.5,-144 376.5,-150 376.5,-156 376.5,-156 376.5,-168 376.5,-168 376.5,-174 370.5,-180 364.5,-180"/>
<text text-anchor="middle" x="349.5" y="-158.3" font-family="Times,serif" font-size="14.00">Name</text>
</g>
<!-- ast.Assign object at 0x703104b24f90&#45;&gt;ast.Name object at 0x703104b24910 -->
<g id="edge36" class="edge">
<title>ast.Assign object at 0x703104b24f90&#45;&gt;ast.Name object at 0x703104b24910</title>
<path fill="none" stroke="black" d="M431.08,-215.88C417.09,-206.81 399.72,-195.55 384.61,-185.76"/>
<polygon fill="black" stroke="black" points="386.32,-182.69 376.02,-180.19 382.51,-188.57 386.32,-182.69"/>
</g>
<!-- ast.Subscript object at 0x703104b24750 -->
<g id="node32" class="node">
<title>ast.Subscript object at 0x703104b24750</title>
<path fill="#66cdaa" stroke="black" d="M522.5,-180C522.5,-180 478.5,-180 478.5,-180 472.5,-180 466.5,-174 466.5,-168 466.5,-168 466.5,-156 466.5,-156 466.5,-150 472.5,-144 478.5,-144 478.5,-144 522.5,-144 522.5,-144 528.5,-144 534.5,-150 534.5,-156 534.5,-156 534.5,-168 534.5,-168 534.5,-174 528.5,-180 522.5,-180"/>
<text text-anchor="middle" x="500.5" y="-158.3" font-family="Times,serif" font-size="14.00">Subscript</text>
</g>
<!-- ast.Assign object at 0x703104b24f90&#45;&gt;ast.Subscript object at 0x703104b24750 -->
<g id="edge38" class="edge">
<title>ast.Assign object at 0x703104b24f90&#45;&gt;ast.Subscript object at 0x703104b24750</title>
<path fill="none" stroke="black" d="M468.13,-215.7C473.13,-207.56 479.19,-197.69 484.71,-188.7"/>
<polygon fill="black" stroke="black" points="487.74,-190.46 489.99,-180.1 481.78,-186.79 487.74,-190.46"/>
</g>
<!-- ast.Name object at 0x703104b24910&#45;&gt;ast.Store object at 0x7031ebab6a90 -->
<g id="edge37" class="edge">
<title>ast.Name object at 0x703104b24910&#45;&gt;ast.Store object at 0x7031ebab6a90</title>
<path fill="none" stroke="black" d="M326.26,-143.7C314.31,-134.8 299.58,-123.82 286.65,-114.2"/>
<polygon fill="black" stroke="black" points="288.58,-111.27 278.47,-108.1 284.4,-116.88 288.58,-111.27"/>
</g>
<!-- ast.Subscript object at 0x703104b24750&#45;&gt;ast.Load object at 0x7031ebab6a10 -->
<g id="edge42" class="edge">
<title>ast.Subscript object at 0x703104b24750&#45;&gt;ast.Load object at 0x7031ebab6a10</title>
<path fill="none" stroke="black" d="M534.97,-147.32C538.18,-146.16 541.39,-145.03 544.5,-144 600.99,-125.25 637.51,-155.41 673.5,-108 688.07,-88.8 674.7,-62.9 660.3,-43.99"/>
<polygon fill="black" stroke="black" points="662.93,-41.68 653.92,-36.09 657.48,-46.07 662.93,-41.68"/>
</g>
<!-- ast.Name object at 0x703104b24fd0 -->
<g id="node33" class="node">
<title>ast.Name object at 0x703104b24fd0</title>
<path fill="#66cdaa" stroke="black" d="M652.5,-108C652.5,-108 622.5,-108 622.5,-108 616.5,-108 610.5,-102 610.5,-96 610.5,-96 610.5,-84 610.5,-84 610.5,-78 616.5,-72 622.5,-72 622.5,-72 652.5,-72 652.5,-72 658.5,-72 664.5,-78 664.5,-84 664.5,-84 664.5,-96 664.5,-96 664.5,-102 658.5,-108 652.5,-108"/>
<text text-anchor="middle" x="637.5" y="-86.3" font-family="Times,serif" font-size="14.00">Name</text>
</g>
<!-- ast.Subscript object at 0x703104b24750&#45;&gt;ast.Name object at 0x703104b24fd0 -->
<g id="edge39" class="edge">
<title>ast.Subscript object at 0x703104b24750&#45;&gt;ast.Name object at 0x703104b24fd0</title>
<path fill="none" stroke="black" d="M534.01,-143.88C554.35,-133.49 580.3,-120.22 601.13,-109.58"/>
<polygon fill="black" stroke="black" points="602.99,-112.56 610.31,-104.9 599.81,-106.33 602.99,-112.56"/>
</g>
<!-- ast.Constant object at 0x703104b27310 -->
<g id="node34" class="node">
<title>ast.Constant object at 0x703104b27310</title>
<path fill="#66cdaa" stroke="black" d="M580,-108C580,-108 539,-108 539,-108 533,-108 527,-102 527,-96 527,-96 527,-84 527,-84 527,-78 533,-72 539,-72 539,-72 580,-72 580,-72 586,-72 592,-78 592,-84 592,-84 592,-96 592,-96 592,-102 586,-108 580,-108"/>
<text text-anchor="middle" x="559.5" y="-86.3" font-family="Times,serif" font-size="14.00">Constant</text>
</g>
<!-- ast.Subscript object at 0x703104b24750&#45;&gt;ast.Constant object at 0x703104b27310 -->
<g id="edge41" class="edge">
<title>ast.Subscript object at 0x703104b24750&#45;&gt;ast.Constant object at 0x703104b27310</title>
<path fill="none" stroke="black" d="M515.08,-143.7C522.16,-135.3 530.78,-125.07 538.55,-115.86"/>
<polygon fill="black" stroke="black" points="541.31,-118.01 545.08,-108.1 535.96,-113.49 541.31,-118.01"/>
</g>
<!-- ast.Name object at 0x703104b24fd0&#45;&gt;ast.Load object at 0x7031ebab6a10 -->
<g id="edge40" class="edge">
<title>ast.Name object at 0x703104b24fd0&#45;&gt;ast.Load object at 0x7031ebab6a10</title>
<path fill="none" stroke="black" d="M637.5,-71.7C637.5,-63.98 637.5,-54.71 637.5,-46.11"/>
<polygon fill="black" stroke="black" points="641,-46.1 637.5,-36.1 634,-46.1 641,-46.1"/>
</g>
<!-- ast.Name object at 0x703104b26450 -->
<g id="node36" class="node">
<title>ast.Name object at 0x703104b26450</title>
<path fill="#66cdaa" stroke="black" d="M842.5,-252C842.5,-252 812.5,-252 812.5,-252 806.5,-252 800.5,-246 800.5,-240 800.5,-240 800.5,-228 800.5,-228 800.5,-222 806.5,-216 812.5,-216 812.5,-216 842.5,-216 842.5,-216 848.5,-216 854.5,-222 854.5,-228 854.5,-228 854.5,-240 854.5,-240 854.5,-246 848.5,-252 842.5,-252"/>
<text text-anchor="middle" x="827.5" y="-230.3" font-family="Times,serif" font-size="14.00">Name</text>
</g>
<!-- ast.Return object at 0x703104b26290&#45;&gt;ast.Name object at 0x703104b26450 -->
<g id="edge44" class="edge">
<title>ast.Return object at 0x703104b26290&#45;&gt;ast.Name object at 0x703104b26450</title>
<path fill="none" stroke="black" d="M727.74,-289.98C746.33,-279.74 771.14,-266.07 791.37,-254.92"/>
<polygon fill="black" stroke="black" points="793.23,-257.88 800.3,-249.99 789.85,-251.75 793.23,-257.88"/>
</g>
<!-- ast.Name object at 0x703104b26450&#45;&gt;ast.Load object at 0x7031ebab6a10 -->
<g id="edge45" class="edge">
<title>ast.Name object at 0x703104b26450&#45;&gt;ast.Load object at 0x7031ebab6a10</title>
<path fill="none" stroke="black" d="M838.19,-215.87C856.58,-183.98 889.16,-114.83 855.5,-72 833.45,-43.95 731.33,-28.91 675.02,-22.62"/>
<polygon fill="black" stroke="black" points="675.05,-19.1 664.74,-21.51 674.3,-26.06 675.05,-19.1"/>
</g>
</g>
</svg>
