<?xml version="1.0" encoding="UTF-8" standalone="no"?>
<!DOCTYPE svg PUBLIC "-//W3C//DTD SVG 1.1//EN"
 "http://www.w3.org/Graphics/SVG/1.1/DTD/svg11.dtd">
<!-- Generated by graphviz version 2.50.0 (0)
 -->
<!-- Pages: 1 -->
<svg width="1285pt" height="548pt"
 viewBox="0.00 0.00 1284.50 548.00" xmlns="http://www.w3.org/2000/svg" xmlns:xlink="http://www.w3.org/1999/xlink">
<g id="graph0" class="graph" transform="scale(1 1) rotate(0) translate(4 544)">
<polygon fill="white" stroke="transparent" points="-4,4 -4,-544 1280.5,-544 1280.5,4 -4,4"/>
<!-- ast.Module object at 0x7453743d69d0 -->
<g id="node1" class="node">
<title>ast.Module object at 0x7453743d69d0</title>
<path fill="#66cdaa" stroke="black" d="M312.5,-540C312.5,-540 277.5,-540 277.5,-540 271.5,-540 265.5,-534 265.5,-528 265.5,-528 265.5,-516 265.5,-516 265.5,-510 271.5,-504 277.5,-504 277.5,-504 312.5,-504 312.5,-504 318.5,-504 324.5,-510 324.5,-516 324.5,-516 324.5,-528 324.5,-528 324.5,-534 318.5,-540 312.5,-540"/>
<text text-anchor="middle" x="295" y="-518.3" font-family="Times,serif" font-size="14.00">Module</text>
</g>
<!-- ast.FunctionDef object at 0x7453743d6c50 -->
<g id="node2" class="node">
<title>ast.FunctionDef object at 0x7453743d6c50</title>
<path fill="#66cdaa" stroke="black" d="M325.5,-468C325.5,-468 264.5,-468 264.5,-468 258.5,-468 252.5,-462 252.5,-456 252.5,-456 252.5,-444 252.5,-444 252.5,-438 258.5,-432 264.5,-432 264.5,-432 325.5,-432 325.5,-432 331.5,-432 337.5,-438 337.5,-444 337.5,-444 337.5,-456 337.5,-456 337.5,-462 331.5,-468 325.5,-468"/>
<text text-anchor="middle" x="295" y="-446.3" font-family="Times,serif" font-size="14.00">FunctionDef</text>
</g>
<!-- ast.Module object at 0x7453743d69d0&#45;&gt;ast.FunctionDef object at 0x7453743d6c50 -->
<g id="edge1" class="edge">
<title>ast.Module object at 0x7453743d69d0&#45;&gt;ast.FunctionDef object at 0x7453743d6c50</title>
<path fill="none" stroke="black" d="M295,-503.7C295,-495.98 295,-486.71 295,-478.11"/>
<polygon fill="black" stroke="black" points="298.5,-478.1 295,-468.1 291.5,-478.1 298.5,-478.1"/>
</g>
<!-- ast.arguments object at 0x74537419da50 -->
<g id="node3" class="node">
<title>ast.arguments object at 0x74537419da50</title>
<path fill="#66cdaa" stroke="black" d="M147,-396C147,-396 97,-396 97,-396 91,-396 85,-390 85,-384 85,-384 85,-372 85,-372 85,-366 91,-360 97,-360 97,-360 147,-360 147,-360 153,-360 159,-366 159,-372 159,-372 159,-384 159,-384 159,-390 153,-396 147,-396"/>
<text text-anchor="middle" x="122" y="-374.3" font-family="Times,serif" font-size="14.00">arguments</text>
</g>
<!-- ast.FunctionDef object at 0x7453743d6c50&#45;&gt;ast.arguments object at 0x74537419da50 -->
<g id="edge2" class="edge">
<title>ast.FunctionDef object at 0x7453743d6c50&#45;&gt;ast.arguments object at 0x74537419da50</title>
<path fill="none" stroke="black" d="M252.68,-431.88C227.2,-421.57 194.73,-408.43 168.53,-397.83"/>
<polygon fill="black" stroke="black" points="169.77,-394.55 159.18,-394.05 167.14,-401.04 169.77,-394.55"/>
</g>
<!-- ast.Assign object at 0x74537404fc50 -->
<g id="node5" class="node">
<title>ast.Assign object at 0x74537404fc50</title>
<path fill="#66cdaa" stroke="black" d="M247,-396C247,-396 217,-396 217,-396 211,-396 205,-390 205,-384 205,-384 205,-372 205,-372 205,-366 211,-360 217,-360 217,-360 247,-360 247,-360 253,-360 259,-366 259,-372 259,-372 259,-384 259,-384 259,-390 253,-396 247,-396"/>
<text text-anchor="middle" x="232" y="-374.3" font-family="Times,serif" font-size="14.00">Assign</text>
</g>
<!-- ast.FunctionDef object at 0x7453743d6c50&#45;&gt;ast.Assign object at 0x74537404fc50 -->
<g id="edge4" class="edge">
<title>ast.FunctionDef object at 0x7453743d6c50&#45;&gt;ast.Assign object at 0x74537404fc50</title>
<path fill="none" stroke="black" d="M279.43,-431.7C271.8,-423.22 262.48,-412.86 254.12,-403.58"/>
<polygon fill="black" stroke="black" points="256.69,-401.2 247.39,-396.1 251.48,-405.88 256.69,-401.2"/>
</g>
<!-- ast.For object at 0x74537404e010 -->
<g id="node9" class="node">
<title>ast.For object at 0x74537404e010</title>
<path fill="#66cdaa" stroke="black" d="M347,-396C347,-396 317,-396 317,-396 311,-396 305,-390 305,-384 305,-384 305,-372 305,-372 305,-366 311,-360 317,-360 317,-360 347,-360 347,-360 353,-360 359,-366 359,-372 359,-372 359,-384 359,-384 359,-390 353,-396 347,-396"/>
<text text-anchor="middle" x="332" y="-374.3" font-family="Times,serif" font-size="14.00">For</text>
</g>
<!-- ast.FunctionDef object at 0x7453743d6c50&#45;&gt;ast.For object at 0x74537404e010 -->
<g id="edge8" class="edge">
<title>ast.FunctionDef object at 0x7453743d6c50&#45;&gt;ast.For object at 0x74537404e010</title>
<path fill="none" stroke="black" d="M304.15,-431.7C308.4,-423.64 313.56,-413.89 318.27,-404.98"/>
<polygon fill="black" stroke="black" points="321.38,-406.58 322.96,-396.1 315.19,-403.31 321.38,-406.58"/>
</g>
<!-- ast.If object at 0x745374072f90 -->
<g id="node34" class="node">
<title>ast.If object at 0x745374072f90</title>
<path fill="#66cdaa" stroke="black" d="M1098,-252C1098,-252 1068,-252 1068,-252 1062,-252 1056,-246 1056,-240 1056,-240 1056,-228 1056,-228 1056,-222 1062,-216 1068,-216 1068,-216 1098,-216 1098,-216 1104,-216 1110,-222 1110,-228 1110,-228 1110,-240 1110,-240 1110,-246 1104,-252 1098,-252"/>
<text text-anchor="middle" x="1083" y="-230.3" font-family="Times,serif" font-size="14.00">If</text>
</g>
<!-- ast.FunctionDef object at 0x7453743d6c50&#45;&gt;ast.If object at 0x745374072f90 -->
<g id="edge42" class="edge">
<title>ast.FunctionDef object at 0x7453743d6c50&#45;&gt;ast.If object at 0x745374072f90</title>
<path fill="none" stroke="black" d="M337.65,-437.42C476.63,-399.67 915.07,-280.61 1045.83,-245.09"/>
<polygon fill="black" stroke="black" points="1047.04,-248.39 1055.77,-242.4 1045.2,-241.64 1047.04,-248.39"/>
</g>
<!-- ast.arg object at 0x74537405e950 -->
<g id="node4" class="node">
<title>ast.arg object at 0x74537405e950</title>
<path fill="#66cdaa" stroke="black" d="M108,-324C108,-324 78,-324 78,-324 72,-324 66,-318 66,-312 66,-312 66,-300 66,-300 66,-294 72,-288 78,-288 78,-288 108,-288 108,-288 114,-288 120,-294 120,-300 120,-300 120,-312 120,-312 120,-318 114,-324 108,-324"/>
<text text-anchor="middle" x="93" y="-302.3" font-family="Times,serif" font-size="14.00">arg</text>
</g>
<!-- ast.arguments object at 0x74537419da50&#45;&gt;ast.arg object at 0x74537405e950 -->
<g id="edge3" class="edge">
<title>ast.arguments object at 0x74537419da50&#45;&gt;ast.arg object at 0x74537405e950</title>
<path fill="none" stroke="black" d="M114.83,-359.7C111.57,-351.81 107.63,-342.3 104,-333.55"/>
<polygon fill="black" stroke="black" points="107.15,-332 100.09,-324.1 100.68,-334.68 107.15,-332"/>
</g>
<!-- ast.Name object at 0x74537404d8d0 -->
<g id="node6" class="node">
<title>ast.Name object at 0x74537404d8d0</title>
<path fill="#66cdaa" stroke="black" d="M42,-252C42,-252 12,-252 12,-252 6,-252 0,-246 0,-240 0,-240 0,-228 0,-228 0,-222 6,-216 12,-216 12,-216 42,-216 42,-216 48,-216 54,-222 54,-228 54,-228 54,-240 54,-240 54,-246 48,-252 42,-252"/>
<text text-anchor="middle" x="27" y="-230.3" font-family="Times,serif" font-size="14.00">Name</text>
</g>
<!-- ast.Assign object at 0x74537404fc50&#45;&gt;ast.Name object at 0x74537404d8d0 -->
<g id="edge5" class="edge">
<title>ast.Assign object at 0x74537404fc50&#45;&gt;ast.Name object at 0x74537404d8d0</title>
<path fill="none" stroke="black" d="M233.12,-359.78C233.42,-339.8 230.7,-307.15 212,-288 165.91,-240.8 130.64,-272.69 68,-252 66.58,-251.53 65.14,-251.04 63.7,-250.52"/>
<polygon fill="black" stroke="black" points="64.73,-247.17 54.13,-246.91 62.25,-253.72 64.73,-247.17"/>
</g>
<!-- ast.Constant object at 0x74537404d1d0 -->
<g id="node8" class="node">
<title>ast.Constant object at 0x74537404d1d0</title>
<path fill="#66cdaa" stroke="black" d="M191.5,-324C191.5,-324 150.5,-324 150.5,-324 144.5,-324 138.5,-318 138.5,-312 138.5,-312 138.5,-300 138.5,-300 138.5,-294 144.5,-288 150.5,-288 150.5,-288 191.5,-288 191.5,-288 197.5,-288 203.5,-294 203.5,-300 203.5,-300 203.5,-312 203.5,-312 203.5,-318 197.5,-324 191.5,-324"/>
<text text-anchor="middle" x="171" y="-302.3" font-family="Times,serif" font-size="14.00">Constant</text>
</g>
<!-- ast.Assign object at 0x74537404fc50&#45;&gt;ast.Constant object at 0x74537404d1d0 -->
<g id="edge7" class="edge">
<title>ast.Assign object at 0x74537404fc50&#45;&gt;ast.Constant object at 0x74537404d1d0</title>
<path fill="none" stroke="black" d="M216.92,-359.7C209.61,-351.3 200.69,-341.07 192.66,-331.86"/>
<polygon fill="black" stroke="black" points="195.11,-329.34 185.91,-324.1 189.84,-333.94 195.11,-329.34"/>
</g>
<!-- ast.Store object at 0x7454617ffbd0 -->
<g id="node7" class="node">
<title>ast.Store object at 0x7454617ffbd0</title>
<path fill="#66cdaa" stroke="black" d="M97,-108C97,-108 67,-108 67,-108 61,-108 55,-102 55,-96 55,-96 55,-84 55,-84 55,-78 61,-72 67,-72 67,-72 97,-72 97,-72 103,-72 109,-78 109,-84 109,-84 109,-96 109,-96 109,-102 103,-108 97,-108"/>
<text text-anchor="middle" x="82" y="-86.3" font-family="Times,serif" font-size="14.00">Store</text>
</g>
<!-- ast.Name object at 0x74537404d8d0&#45;&gt;ast.Store object at 0x7454617ffbd0 -->
<g id="edge6" class="edge">
<title>ast.Name object at 0x74537404d8d0&#45;&gt;ast.Store object at 0x7454617ffbd0</title>
<path fill="none" stroke="black" d="M33.63,-215.87C43.09,-191.46 60.53,-146.43 71.68,-117.64"/>
<polygon fill="black" stroke="black" points="74.99,-118.78 75.34,-108.19 68.47,-116.25 74.99,-118.78"/>
</g>
<!-- ast.Name object at 0x74537404f790 -->
<g id="node10" class="node">
<title>ast.Name object at 0x74537404f790</title>
<path fill="#66cdaa" stroke="black" d="M302,-324C302,-324 272,-324 272,-324 266,-324 260,-318 260,-312 260,-312 260,-300 260,-300 260,-294 266,-288 272,-288 272,-288 302,-288 302,-288 308,-288 314,-294 314,-300 314,-300 314,-312 314,-312 314,-318 308,-324 302,-324"/>
<text text-anchor="middle" x="287" y="-302.3" font-family="Times,serif" font-size="14.00">Name</text>
</g>
<!-- ast.For object at 0x74537404e010&#45;&gt;ast.Name object at 0x74537404f790 -->
<g id="edge9" class="edge">
<title>ast.For object at 0x74537404e010&#45;&gt;ast.Name object at 0x74537404f790</title>
<path fill="none" stroke="black" d="M320.88,-359.7C315.64,-351.56 309.3,-341.69 303.52,-332.7"/>
<polygon fill="black" stroke="black" points="306.35,-330.62 298,-324.1 300.46,-334.41 306.35,-330.62"/>
</g>
<!-- ast.Call object at 0x74537404c750 -->
<g id="node11" class="node">
<title>ast.Call object at 0x74537404c750</title>
<path fill="#66cdaa" stroke="black" d="M688,-324C688,-324 658,-324 658,-324 652,-324 646,-318 646,-312 646,-312 646,-300 646,-300 646,-294 652,-288 658,-288 658,-288 688,-288 688,-288 694,-288 700,-294 700,-300 700,-300 700,-312 700,-312 700,-318 694,-324 688,-324"/>
<text text-anchor="middle" x="673" y="-302.3" font-family="Times,serif" font-size="14.00">Call</text>
</g>
<!-- ast.For object at 0x74537404e010&#45;&gt;ast.Call object at 0x74537404c750 -->
<g id="edge11" class="edge">
<title>ast.For object at 0x74537404e010&#45;&gt;ast.Call object at 0x74537404c750</title>
<path fill="none" stroke="black" d="M359.04,-371.45C419.73,-358.99 566.82,-328.8 635.95,-314.61"/>
<polygon fill="black" stroke="black" points="636.86,-317.99 645.95,-312.55 635.45,-311.13 636.86,-317.99"/>
</g>
<!-- ast.If object at 0x745374073350 -->
<g id="node23" class="node">
<title>ast.If object at 0x745374073350</title>
<path fill="#66cdaa" stroke="black" d="M374,-324C374,-324 344,-324 344,-324 338,-324 332,-318 332,-312 332,-312 332,-300 332,-300 332,-294 338,-288 344,-288 344,-288 374,-288 374,-288 380,-288 386,-294 386,-300 386,-300 386,-312 386,-312 386,-318 380,-324 374,-324"/>
<text text-anchor="middle" x="359" y="-302.3" font-family="Times,serif" font-size="14.00">If</text>
</g>
<!-- ast.For object at 0x74537404e010&#45;&gt;ast.If object at 0x745374073350 -->
<g id="edge27" class="edge">
<title>ast.For object at 0x74537404e010&#45;&gt;ast.If object at 0x745374073350</title>
<path fill="none" stroke="black" d="M338.67,-359.7C341.71,-351.81 345.38,-342.3 348.76,-333.55"/>
<polygon fill="black" stroke="black" points="352.07,-334.69 352.4,-324.1 345.54,-332.17 352.07,-334.69"/>
</g>
<!-- ast.Name object at 0x74537404f790&#45;&gt;ast.Store object at 0x7454617ffbd0 -->
<g id="edge10" class="edge">
<title>ast.Name object at 0x74537404f790&#45;&gt;ast.Store object at 0x7454617ffbd0</title>
<path fill="none" stroke="black" d="M259.88,-294.76C218.56,-277.67 140.48,-239.25 101,-180 88.79,-161.67 84.24,-136.91 82.63,-118.16"/>
<polygon fill="black" stroke="black" points="86.13,-117.93 82,-108.17 79.14,-118.37 86.13,-117.93"/>
</g>
<!-- ast.Name object at 0x74537404f9d0 -->
<g id="node12" class="node">
<title>ast.Name object at 0x74537404f9d0</title>
<path fill="#66cdaa" stroke="black" d="M847,-252C847,-252 817,-252 817,-252 811,-252 805,-246 805,-240 805,-240 805,-228 805,-228 805,-222 811,-216 817,-216 817,-216 847,-216 847,-216 853,-216 859,-222 859,-228 859,-228 859,-240 859,-240 859,-246 853,-252 847,-252"/>
<text text-anchor="middle" x="832" y="-230.3" font-family="Times,serif" font-size="14.00">Name</text>
</g>
<!-- ast.Call object at 0x74537404c750&#45;&gt;ast.Name object at 0x74537404f9d0 -->
<g id="edge12" class="edge">
<title>ast.Call object at 0x74537404c750&#45;&gt;ast.Name object at 0x74537404f9d0</title>
<path fill="none" stroke="black" d="M700.33,-292.97C726.58,-281.41 766.4,-263.88 795.38,-251.12"/>
<polygon fill="black" stroke="black" points="797.02,-254.23 804.76,-246.99 794.2,-247.82 797.02,-254.23"/>
</g>
<!-- ast.Subscript object at 0x74537404f690 -->
<g id="node14" class="node">
<title>ast.Subscript object at 0x74537404f690</title>
<path fill="#66cdaa" stroke="black" d="M806,-180C806,-180 762,-180 762,-180 756,-180 750,-174 750,-168 750,-168 750,-156 750,-156 750,-150 756,-144 762,-144 762,-144 806,-144 806,-144 812,-144 818,-150 818,-156 818,-156 818,-168 818,-168 818,-174 812,-180 806,-180"/>
<text text-anchor="middle" x="784" y="-158.3" font-family="Times,serif" font-size="14.00">Subscript</text>
</g>
<!-- ast.Call object at 0x74537404c750&#45;&gt;ast.Subscript object at 0x74537404f690 -->
<g id="edge14" class="edge">
<title>ast.Call object at 0x74537404c750&#45;&gt;ast.Subscript object at 0x74537404f690</title>
<path fill="none" stroke="black" d="M686.39,-287.87C705.81,-263.03 741.91,-216.85 764.35,-188.14"/>
<polygon fill="black" stroke="black" points="767.16,-190.22 770.56,-180.19 761.65,-185.91 767.16,-190.22"/>
</g>
<!-- ast.BinOp object at 0x745374073150 -->
<g id="node17" class="node">
<title>ast.BinOp object at 0x745374073150</title>
<path fill="#66cdaa" stroke="black" d="M629,-252C629,-252 599,-252 599,-252 593,-252 587,-246 587,-240 587,-240 587,-228 587,-228 587,-222 593,-216 599,-216 599,-216 629,-216 629,-216 635,-216 641,-222 641,-228 641,-228 641,-240 641,-240 641,-246 635,-252 629,-252"/>
<text text-anchor="middle" x="614" y="-230.3" font-family="Times,serif" font-size="14.00">BinOp</text>
</g>
<!-- ast.Call object at 0x74537404c750&#45;&gt;ast.BinOp object at 0x745374073150 -->
<g id="edge19" class="edge">
<title>ast.Call object at 0x74537404c750&#45;&gt;ast.BinOp object at 0x745374073150</title>
<path fill="none" stroke="black" d="M658.42,-287.7C651.34,-279.3 642.72,-269.07 634.95,-259.86"/>
<polygon fill="black" stroke="black" points="637.54,-257.49 628.42,-252.1 632.19,-262.01 637.54,-257.49"/>
</g>
<!-- ast.Load object at 0x7454617ffb50 -->
<g id="node13" class="node">
<title>ast.Load object at 0x7454617ffb50</title>
<path fill="#66cdaa" stroke="black" d="M805,-36C805,-36 775,-36 775,-36 769,-36 763,-30 763,-24 763,-24 763,-12 763,-12 763,-6 769,0 775,0 775,0 805,0 805,0 811,0 817,-6 817,-12 817,-12 817,-24 817,-24 817,-30 811,-36 805,-36"/>
<text text-anchor="middle" x="790" y="-14.3" font-family="Times,serif" font-size="14.00">Load</text>
</g>
<!-- ast.Name object at 0x74537404f9d0&#45;&gt;ast.Load object at 0x7454617ffb50 -->
<g id="edge13" class="edge">
<title>ast.Name object at 0x74537404f9d0&#45;&gt;ast.Load object at 0x7454617ffb50</title>
<path fill="none" stroke="black" d="M837.81,-215.76C847.03,-185.4 862.02,-121 842,-72 837.51,-61.02 829.53,-51.08 821.15,-42.86"/>
<polygon fill="black" stroke="black" points="823.49,-40.26 813.75,-36.09 818.76,-45.42 823.49,-40.26"/>
</g>
<!-- ast.Subscript object at 0x74537404f690&#45;&gt;ast.Load object at 0x7454617ffb50 -->
<g id="edge18" class="edge">
<title>ast.Subscript object at 0x74537404f690&#45;&gt;ast.Load object at 0x7454617ffb50</title>
<path fill="none" stroke="black" d="M802.6,-143.76C811.53,-134.2 821.29,-121.53 826,-108 831.26,-92.89 830.7,-87.29 826,-72 822.99,-62.22 817.49,-52.62 811.68,-44.33"/>
<polygon fill="black" stroke="black" points="814.41,-42.13 805.61,-36.23 808.81,-46.33 814.41,-42.13"/>
</g>
<!-- ast.Name object at 0x74537404da90 -->
<g id="node15" class="node">
<title>ast.Name object at 0x74537404da90</title>
<path fill="#66cdaa" stroke="black" d="M805,-108C805,-108 775,-108 775,-108 769,-108 763,-102 763,-96 763,-96 763,-84 763,-84 763,-78 769,-72 775,-72 775,-72 805,-72 805,-72 811,-72 817,-78 817,-84 817,-84 817,-96 817,-96 817,-102 811,-108 805,-108"/>
<text text-anchor="middle" x="790" y="-86.3" font-family="Times,serif" font-size="14.00">Name</text>
</g>
<!-- ast.Subscript object at 0x74537404f690&#45;&gt;ast.Name object at 0x74537404da90 -->
<g id="edge15" class="edge">
<title>ast.Subscript object at 0x74537404f690&#45;&gt;ast.Name object at 0x74537404da90</title>
<path fill="none" stroke="black" d="M785.48,-143.7C786.14,-135.98 786.94,-126.71 787.68,-118.11"/>
<polygon fill="black" stroke="black" points="791.17,-118.37 788.53,-108.1 784.19,-117.77 791.17,-118.37"/>
</g>
<!-- ast.Constant object at 0x745374073790 -->
<g id="node16" class="node">
<title>ast.Constant object at 0x745374073790</title>
<path fill="#66cdaa" stroke="black" d="M732.5,-108C732.5,-108 691.5,-108 691.5,-108 685.5,-108 679.5,-102 679.5,-96 679.5,-96 679.5,-84 679.5,-84 679.5,-78 685.5,-72 691.5,-72 691.5,-72 732.5,-72 732.5,-72 738.5,-72 744.5,-78 744.5,-84 744.5,-84 744.5,-96 744.5,-96 744.5,-102 738.5,-108 732.5,-108"/>
<text text-anchor="middle" x="712" y="-86.3" font-family="Times,serif" font-size="14.00">Constant</text>
</g>
<!-- ast.Subscript object at 0x74537404f690&#45;&gt;ast.Constant object at 0x745374073790 -->
<g id="edge17" class="edge">
<title>ast.Subscript object at 0x74537404f690&#45;&gt;ast.Constant object at 0x745374073790</title>
<path fill="none" stroke="black" d="M766.2,-143.7C757.4,-135.14 746.62,-124.66 737,-115.3"/>
<polygon fill="black" stroke="black" points="739.2,-112.57 729.59,-108.1 734.32,-117.58 739.2,-112.57"/>
</g>
<!-- ast.Name object at 0x74537404da90&#45;&gt;ast.Load object at 0x7454617ffb50 -->
<g id="edge16" class="edge">
<title>ast.Name object at 0x74537404da90&#45;&gt;ast.Load object at 0x7454617ffb50</title>
<path fill="none" stroke="black" d="M790,-71.7C790,-63.98 790,-54.71 790,-46.11"/>
<polygon fill="black" stroke="black" points="793.5,-46.1 790,-36.1 786.5,-46.1 793.5,-46.1"/>
</g>
<!-- ast.Subscript object at 0x745374073110 -->
<g id="node18" class="node">
<title>ast.Subscript object at 0x745374073110</title>
<path fill="#66cdaa" stroke="black" d="M694,-180C694,-180 650,-180 650,-180 644,-180 638,-174 638,-168 638,-168 638,-156 638,-156 638,-150 644,-144 650,-144 650,-144 694,-144 694,-144 700,-144 706,-150 706,-156 706,-156 706,-168 706,-168 706,-174 700,-180 694,-180"/>
<text text-anchor="middle" x="672" y="-158.3" font-family="Times,serif" font-size="14.00">Subscript</text>
</g>
<!-- ast.BinOp object at 0x745374073150&#45;&gt;ast.Subscript object at 0x745374073110 -->
<g id="edge20" class="edge">
<title>ast.BinOp object at 0x745374073150&#45;&gt;ast.Subscript object at 0x745374073110</title>
<path fill="none" stroke="black" d="M628.34,-215.7C635.29,-207.3 643.77,-197.07 651.4,-187.86"/>
<polygon fill="black" stroke="black" points="654.14,-190.04 657.83,-180.1 648.75,-185.57 654.14,-190.04"/>
</g>
<!-- ast.Add object at 0x74546180c090 -->
<g id="node21" class="node">
<title>ast.Add object at 0x74546180c090</title>
<path fill="#66cdaa" stroke="black" d="M524,-180C524,-180 494,-180 494,-180 488,-180 482,-174 482,-168 482,-168 482,-156 482,-156 482,-150 488,-144 494,-144 494,-144 524,-144 524,-144 530,-144 536,-150 536,-156 536,-156 536,-168 536,-168 536,-174 530,-180 524,-180"/>
<text text-anchor="middle" x="509" y="-158.3" font-family="Times,serif" font-size="14.00">Add</text>
</g>
<!-- ast.BinOp object at 0x745374073150&#45;&gt;ast.Add object at 0x74546180c090 -->
<g id="edge25" class="edge">
<title>ast.BinOp object at 0x745374073150&#45;&gt;ast.Add object at 0x74546180c090</title>
<path fill="none" stroke="black" d="M588.31,-215.88C574.71,-206.81 557.83,-195.55 543.14,-185.76"/>
<polygon fill="black" stroke="black" points="545.05,-182.82 534.78,-180.19 541.16,-188.65 545.05,-182.82"/>
</g>
<!-- ast.Constant object at 0x745374073190 -->
<g id="node22" class="node">
<title>ast.Constant object at 0x745374073190</title>
<path fill="#66cdaa" stroke="black" d="M607.5,-180C607.5,-180 566.5,-180 566.5,-180 560.5,-180 554.5,-174 554.5,-168 554.5,-168 554.5,-156 554.5,-156 554.5,-150 560.5,-144 566.5,-144 566.5,-144 607.5,-144 607.5,-144 613.5,-144 619.5,-150 619.5,-156 619.5,-156 619.5,-168 619.5,-168 619.5,-174 613.5,-180 607.5,-180"/>
<text text-anchor="middle" x="587" y="-158.3" font-family="Times,serif" font-size="14.00">Constant</text>
</g>
<!-- ast.BinOp object at 0x745374073150&#45;&gt;ast.Constant object at 0x745374073190 -->
<g id="edge26" class="edge">
<title>ast.BinOp object at 0x745374073150&#45;&gt;ast.Constant object at 0x745374073190</title>
<path fill="none" stroke="black" d="M607.33,-215.7C604.29,-207.81 600.62,-198.3 597.24,-189.55"/>
<polygon fill="black" stroke="black" points="600.46,-188.17 593.6,-180.1 593.93,-190.69 600.46,-188.17"/>
</g>
<!-- ast.Subscript object at 0x745374073110&#45;&gt;ast.Load object at 0x7454617ffb50 -->
<g id="edge24" class="edge">
<title>ast.Subscript object at 0x745374073110&#45;&gt;ast.Load object at 0x7454617ffb50</title>
<path fill="none" stroke="black" d="M666.24,-143.7C660.99,-124.54 655.99,-93.5 670,-72 688.21,-44.04 724.88,-30.73 752.92,-24.45"/>
<polygon fill="black" stroke="black" points="753.7,-27.86 762.81,-22.44 752.31,-21 753.7,-27.86"/>
</g>
<!-- ast.Name object at 0x7453740733d0 -->
<g id="node19" class="node">
<title>ast.Name object at 0x7453740733d0</title>
<path fill="#66cdaa" stroke="black" d="M611,-108C611,-108 581,-108 581,-108 575,-108 569,-102 569,-96 569,-96 569,-84 569,-84 569,-78 575,-72 581,-72 581,-72 611,-72 611,-72 617,-72 623,-78 623,-84 623,-84 623,-96 623,-96 623,-102 617,-108 611,-108"/>
<text text-anchor="middle" x="596" y="-86.3" font-family="Times,serif" font-size="14.00">Name</text>
</g>
<!-- ast.Subscript object at 0x745374073110&#45;&gt;ast.Name object at 0x7453740733d0 -->
<g id="edge21" class="edge">
<title>ast.Subscript object at 0x745374073110&#45;&gt;ast.Name object at 0x7453740733d0</title>
<path fill="none" stroke="black" d="M653.21,-143.7C643.83,-135.05 632.32,-124.45 622.09,-115.03"/>
<polygon fill="black" stroke="black" points="624.3,-112.3 614.57,-108.1 619.55,-117.45 624.3,-112.3"/>
</g>
<!-- ast.Constant object at 0x7453740731d0 -->
<g id="node20" class="node">
<title>ast.Constant object at 0x7453740731d0</title>
<path fill="#66cdaa" stroke="black" d="M538.5,-108C538.5,-108 497.5,-108 497.5,-108 491.5,-108 485.5,-102 485.5,-96 485.5,-96 485.5,-84 485.5,-84 485.5,-78 491.5,-72 497.5,-72 497.5,-72 538.5,-72 538.5,-72 544.5,-72 550.5,-78 550.5,-84 550.5,-84 550.5,-96 550.5,-96 550.5,-102 544.5,-108 538.5,-108"/>
<text text-anchor="middle" x="518" y="-86.3" font-family="Times,serif" font-size="14.00">Constant</text>
</g>
<!-- ast.Subscript object at 0x745374073110&#45;&gt;ast.Constant object at 0x7453740731d0 -->
<g id="edge23" class="edge">
<title>ast.Subscript object at 0x745374073110&#45;&gt;ast.Constant object at 0x7453740731d0</title>
<path fill="none" stroke="black" d="M637.82,-145.46C614.82,-135.01 584.35,-121.16 559.89,-110.04"/>
<polygon fill="black" stroke="black" points="561.05,-106.72 550.5,-105.77 558.16,-113.1 561.05,-106.72"/>
</g>
<!-- ast.Name object at 0x7453740733d0&#45;&gt;ast.Load object at 0x7454617ffb50 -->
<g id="edge22" class="edge">
<title>ast.Name object at 0x7453740733d0&#45;&gt;ast.Load object at 0x7454617ffb50</title>
<path fill="none" stroke="black" d="M623.26,-77.43C627.83,-75.57 632.53,-73.7 637,-72 676.36,-57.04 722.04,-41.44 753.17,-31.07"/>
<polygon fill="black" stroke="black" points="754.35,-34.37 762.74,-27.9 752.15,-27.72 754.35,-34.37"/>
</g>
<!-- ast.Compare object at 0x745374073590 -->
<g id="node24" class="node">
<title>ast.Compare object at 0x745374073590</title>
<path fill="#66cdaa" stroke="black" d="M269.5,-252C269.5,-252 226.5,-252 226.5,-252 220.5,-252 214.5,-246 214.5,-240 214.5,-240 214.5,-228 214.5,-228 214.5,-222 220.5,-216 226.5,-216 226.5,-216 269.5,-216 269.5,-216 275.5,-216 281.5,-222 281.5,-228 281.5,-228 281.5,-240 281.5,-240 281.5,-246 275.5,-252 269.5,-252"/>
<text text-anchor="middle" x="248" y="-230.3" font-family="Times,serif" font-size="14.00">Compare</text>
</g>
<!-- ast.If object at 0x745374073350&#45;&gt;ast.Compare object at 0x745374073590 -->
<g id="edge28" class="edge">
<title>ast.If object at 0x745374073350&#45;&gt;ast.Compare object at 0x745374073590</title>
<path fill="none" stroke="black" d="M331.85,-287.88C317.47,-278.81 299.62,-267.55 284.09,-257.76"/>
<polygon fill="black" stroke="black" points="285.58,-254.56 275.26,-252.19 281.85,-260.48 285.58,-254.56"/>
</g>
<!-- ast.AugAssign object at 0x7453740737d0 -->
<g id="node31" class="node">
<title>ast.AugAssign object at 0x7453740737d0</title>
<path fill="#66cdaa" stroke="black" d="M430.5,-252C430.5,-252 377.5,-252 377.5,-252 371.5,-252 365.5,-246 365.5,-240 365.5,-240 365.5,-228 365.5,-228 365.5,-222 371.5,-216 377.5,-216 377.5,-216 430.5,-216 430.5,-216 436.5,-216 442.5,-222 442.5,-228 442.5,-228 442.5,-240 442.5,-240 442.5,-246 436.5,-252 430.5,-252"/>
<text text-anchor="middle" x="404" y="-230.3" font-family="Times,serif" font-size="14.00">AugAssign</text>
</g>
<!-- ast.If object at 0x745374073350&#45;&gt;ast.AugAssign object at 0x7453740737d0 -->
<g id="edge36" class="edge">
<title>ast.If object at 0x745374073350&#45;&gt;ast.AugAssign object at 0x7453740737d0</title>
<path fill="none" stroke="black" d="M370.12,-287.7C375.36,-279.56 381.7,-269.69 387.48,-260.7"/>
<polygon fill="black" stroke="black" points="390.54,-262.41 393,-252.1 384.65,-258.62 390.54,-262.41"/>
</g>
<!-- ast.BinOp object at 0x745374073910 -->
<g id="node25" class="node">
<title>ast.BinOp object at 0x745374073910</title>
<path fill="#66cdaa" stroke="black" d="M380,-180C380,-180 350,-180 350,-180 344,-180 338,-174 338,-168 338,-168 338,-156 338,-156 338,-150 344,-144 350,-144 350,-144 380,-144 380,-144 386,-144 392,-150 392,-156 392,-156 392,-168 392,-168 392,-174 386,-180 380,-180"/>
<text text-anchor="middle" x="365" y="-158.3" font-family="Times,serif" font-size="14.00">BinOp</text>
</g>
<!-- ast.Compare object at 0x745374073590&#45;&gt;ast.BinOp object at 0x745374073910 -->
<g id="edge29" class="edge">
<title>ast.Compare object at 0x745374073590&#45;&gt;ast.BinOp object at 0x745374073910</title>
<path fill="none" stroke="black" d="M276.62,-215.88C292.38,-206.45 312.08,-194.66 328.89,-184.61"/>
<polygon fill="black" stroke="black" points="331.1,-187.36 337.88,-179.23 327.5,-181.36 331.1,-187.36"/>
</g>
<!-- ast.NotEq object at 0x74546180cc10 -->
<g id="node29" class="node">
<title>ast.NotEq object at 0x74546180cc10</title>
<path fill="#66cdaa" stroke="black" d="M152,-180C152,-180 122,-180 122,-180 116,-180 110,-174 110,-168 110,-168 110,-156 110,-156 110,-150 116,-144 122,-144 122,-144 152,-144 152,-144 158,-144 164,-150 164,-156 164,-156 164,-168 164,-168 164,-174 158,-180 152,-180"/>
<text text-anchor="middle" x="137" y="-158.3" font-family="Times,serif" font-size="14.00">NotEq</text>
</g>
<!-- ast.Compare object at 0x745374073590&#45;&gt;ast.NotEq object at 0x74546180cc10 -->
<g id="edge34" class="edge">
<title>ast.Compare object at 0x745374073590&#45;&gt;ast.NotEq object at 0x74546180cc10</title>
<path fill="none" stroke="black" d="M220.85,-215.88C206.47,-206.81 188.62,-195.55 173.09,-185.76"/>
<polygon fill="black" stroke="black" points="174.58,-182.56 164.26,-180.19 170.85,-188.48 174.58,-182.56"/>
</g>
<!-- ast.Constant object at 0x745374073650 -->
<g id="node30" class="node">
<title>ast.Constant object at 0x745374073650</title>
<path fill="#66cdaa" stroke="black" d="M235.5,-180C235.5,-180 194.5,-180 194.5,-180 188.5,-180 182.5,-174 182.5,-168 182.5,-168 182.5,-156 182.5,-156 182.5,-150 188.5,-144 194.5,-144 194.5,-144 235.5,-144 235.5,-144 241.5,-144 247.5,-150 247.5,-156 247.5,-156 247.5,-168 247.5,-168 247.5,-174 241.5,-180 235.5,-180"/>
<text text-anchor="middle" x="215" y="-158.3" font-family="Times,serif" font-size="14.00">Constant</text>
</g>
<!-- ast.Compare object at 0x745374073590&#45;&gt;ast.Constant object at 0x745374073650 -->
<g id="edge35" class="edge">
<title>ast.Compare object at 0x745374073590&#45;&gt;ast.Constant object at 0x745374073650</title>
<path fill="none" stroke="black" d="M239.84,-215.7C236.09,-207.73 231.55,-198.1 227.38,-189.26"/>
<polygon fill="black" stroke="black" points="230.49,-187.66 223.06,-180.1 224.16,-190.64 230.49,-187.66"/>
</g>
<!-- ast.Name object at 0x745374073450 -->
<g id="node26" class="node">
<title>ast.Name object at 0x745374073450</title>
<path fill="#66cdaa" stroke="black" d="M417,-108C417,-108 387,-108 387,-108 381,-108 375,-102 375,-96 375,-96 375,-84 375,-84 375,-78 381,-72 387,-72 387,-72 417,-72 417,-72 423,-72 429,-78 429,-84 429,-84 429,-96 429,-96 429,-102 423,-108 417,-108"/>
<text text-anchor="middle" x="402" y="-86.3" font-family="Times,serif" font-size="14.00">Name</text>
</g>
<!-- ast.BinOp object at 0x745374073910&#45;&gt;ast.Name object at 0x745374073450 -->
<g id="edge30" class="edge">
<title>ast.BinOp object at 0x745374073910&#45;&gt;ast.Name object at 0x745374073450</title>
<path fill="none" stroke="black" d="M374.15,-143.7C378.4,-135.64 383.56,-125.89 388.27,-116.98"/>
<polygon fill="black" stroke="black" points="391.38,-118.58 392.96,-108.1 385.19,-115.31 391.38,-118.58"/>
</g>
<!-- ast.Mod object at 0x74546180c310 -->
<g id="node27" class="node">
<title>ast.Mod object at 0x74546180c310</title>
<path fill="#66cdaa" stroke="black" d="M261,-108C261,-108 231,-108 231,-108 225,-108 219,-102 219,-96 219,-96 219,-84 219,-84 219,-78 225,-72 231,-72 231,-72 261,-72 261,-72 267,-72 273,-78 273,-84 273,-84 273,-96 273,-96 273,-102 267,-108 261,-108"/>
<text text-anchor="middle" x="246" y="-86.3" font-family="Times,serif" font-size="14.00">Mod</text>
</g>
<!-- ast.BinOp object at 0x745374073910&#45;&gt;ast.Mod object at 0x74546180c310 -->
<g id="edge32" class="edge">
<title>ast.BinOp object at 0x745374073910&#45;&gt;ast.Mod object at 0x74546180c310</title>
<path fill="none" stroke="black" d="M338,-145.12C321.53,-135.43 300.27,-122.92 282.34,-112.38"/>
<polygon fill="black" stroke="black" points="283.7,-109.12 273.31,-107.06 280.15,-115.15 283.7,-109.12"/>
</g>
<!-- ast.Constant object at 0x7453740734d0 -->
<g id="node28" class="node">
<title>ast.Constant object at 0x7453740734d0</title>
<path fill="#66cdaa" stroke="black" d="M344.5,-108C344.5,-108 303.5,-108 303.5,-108 297.5,-108 291.5,-102 291.5,-96 291.5,-96 291.5,-84 291.5,-84 291.5,-78 297.5,-72 303.5,-72 303.5,-72 344.5,-72 344.5,-72 350.5,-72 356.5,-78 356.5,-84 356.5,-84 356.5,-96 356.5,-96 356.5,-102 350.5,-108 344.5,-108"/>
<text text-anchor="middle" x="324" y="-86.3" font-family="Times,serif" font-size="14.00">Constant</text>
</g>
<!-- ast.BinOp object at 0x745374073910&#45;&gt;ast.Constant object at 0x7453740734d0 -->
<g id="edge33" class="edge">
<title>ast.BinOp object at 0x745374073910&#45;&gt;ast.Constant object at 0x7453740734d0</title>
<path fill="none" stroke="black" d="M354.87,-143.7C350.15,-135.64 344.44,-125.89 339.22,-116.98"/>
<polygon fill="black" stroke="black" points="342.09,-114.96 334.02,-108.1 336.05,-118.5 342.09,-114.96"/>
</g>
<!-- ast.Name object at 0x745374073450&#45;&gt;ast.Load object at 0x7454617ffb50 -->
<g id="edge31" class="edge">
<title>ast.Name object at 0x745374073450&#45;&gt;ast.Load object at 0x7454617ffb50</title>
<path fill="none" stroke="black" d="M429.02,-76.72C433.62,-74.94 438.4,-73.28 443,-72 553.37,-41.18 688.81,-27.04 752.95,-21.71"/>
<polygon fill="black" stroke="black" points="753.29,-25.19 762.98,-20.9 752.73,-18.21 753.29,-25.19"/>
</g>
<!-- ast.AugAssign object at 0x7453740737d0&#45;&gt;ast.Add object at 0x74546180c090 -->
<g id="edge39" class="edge">
<title>ast.AugAssign object at 0x7453740737d0&#45;&gt;ast.Add object at 0x74546180c090</title>
<path fill="none" stroke="black" d="M429.69,-215.88C443.29,-206.81 460.17,-195.55 474.86,-185.76"/>
<polygon fill="black" stroke="black" points="476.84,-188.65 483.22,-180.19 472.95,-182.82 476.84,-188.65"/>
</g>
<!-- ast.Name object at 0x745374073950 -->
<g id="node32" class="node">
<title>ast.Name object at 0x745374073950</title>
<path fill="#66cdaa" stroke="black" d="M308,-180C308,-180 278,-180 278,-180 272,-180 266,-174 266,-168 266,-168 266,-156 266,-156 266,-150 272,-144 278,-144 278,-144 308,-144 308,-144 314,-144 320,-150 320,-156 320,-156 320,-168 320,-168 320,-174 314,-180 308,-180"/>
<text text-anchor="middle" x="293" y="-158.3" font-family="Times,serif" font-size="14.00">Name</text>
</g>
<!-- ast.AugAssign object at 0x7453740737d0&#45;&gt;ast.Name object at 0x745374073950 -->
<g id="edge37" class="edge">
<title>ast.AugAssign object at 0x7453740737d0&#45;&gt;ast.Name object at 0x745374073950</title>
<path fill="none" stroke="black" d="M376.85,-215.88C362.47,-206.81 344.62,-195.55 329.09,-185.76"/>
<polygon fill="black" stroke="black" points="330.58,-182.56 320.26,-180.19 326.85,-188.48 330.58,-182.56"/>
</g>
<!-- ast.Name object at 0x745374073890 -->
<g id="node33" class="node">
<title>ast.Name object at 0x745374073890</title>
<path fill="#66cdaa" stroke="black" d="M452,-180C452,-180 422,-180 422,-180 416,-180 410,-174 410,-168 410,-168 410,-156 410,-156 410,-150 416,-144 422,-144 422,-144 452,-144 452,-144 458,-144 464,-150 464,-156 464,-156 464,-168 464,-168 464,-174 458,-180 452,-180"/>
<text text-anchor="middle" x="437" y="-158.3" font-family="Times,serif" font-size="14.00">Name</text>
</g>
<!-- ast.AugAssign object at 0x7453740737d0&#45;&gt;ast.Name object at 0x745374073890 -->
<g id="edge40" class="edge">
<title>ast.AugAssign object at 0x7453740737d0&#45;&gt;ast.Name object at 0x745374073890</title>
<path fill="none" stroke="black" d="M412.16,-215.7C415.91,-207.73 420.45,-198.1 424.62,-189.26"/>
<polygon fill="black" stroke="black" points="427.84,-190.64 428.94,-180.1 421.51,-187.66 427.84,-190.64"/>
</g>
<!-- ast.Name object at 0x745374073950&#45;&gt;ast.Store object at 0x7454617ffbd0 -->
<g id="edge38" class="edge">
<title>ast.Name object at 0x745374073950&#45;&gt;ast.Store object at 0x7454617ffbd0</title>
<path fill="none" stroke="black" d="M265.7,-147.96C262.46,-146.56 259.17,-145.21 256,-144 209.65,-126.39 154.71,-110.44 119.15,-100.75"/>
<polygon fill="black" stroke="black" points="119.77,-97.29 109.21,-98.06 117.95,-104.05 119.77,-97.29"/>
</g>
<!-- ast.Name object at 0x745374073890&#45;&gt;ast.Load object at 0x7454617ffb50 -->
<g id="edge41" class="edge">
<title>ast.Name object at 0x745374073890&#45;&gt;ast.Load object at 0x7454617ffb50</title>
<path fill="none" stroke="black" d="M439.52,-143.95C443.49,-123.49 453.26,-89.74 476,-72 518.59,-38.78 679.08,-25.39 752.69,-20.92"/>
<polygon fill="black" stroke="black" points="753.12,-24.4 762.9,-20.32 752.71,-17.41 753.12,-24.4"/>
</g>
<!-- ast.Compare object at 0x745374072fd0 -->
<g id="node35" class="node">
<title>ast.Compare object at 0x745374072fd0</title>
<path fill="#66cdaa" stroke="black" d="M1047.5,-180C1047.5,-180 1004.5,-180 1004.5,-180 998.5,-180 992.5,-174 992.5,-168 992.5,-168 992.5,-156 992.5,-156 992.5,-150 998.5,-144 1004.5,-144 1004.5,-144 1047.5,-144 1047.5,-144 1053.5,-144 1059.5,-150 1059.5,-156 1059.5,-156 1059.5,-168 1059.5,-168 1059.5,-174 1053.5,-180 1047.5,-180"/>
<text text-anchor="middle" x="1026" y="-158.3" font-family="Times,serif" font-size="14.00">Compare</text>
</g>
<!-- ast.If object at 0x745374072f90&#45;&gt;ast.Compare object at 0x745374072fd0 -->
<g id="edge43" class="edge">
<title>ast.If object at 0x745374072f90&#45;&gt;ast.Compare object at 0x745374072fd0</title>
<path fill="none" stroke="black" d="M1068.91,-215.7C1062.08,-207.3 1053.74,-197.07 1046.24,-187.86"/>
<polygon fill="black" stroke="black" points="1048.96,-185.65 1039.93,-180.1 1043.53,-190.07 1048.96,-185.65"/>
</g>
<!-- ast.Return object at 0x745374079650 -->
<g id="node39" class="node">
<title>ast.Return object at 0x745374079650</title>
<path fill="#66cdaa" stroke="black" d="M1248,-180C1248,-180 1218,-180 1218,-180 1212,-180 1206,-174 1206,-168 1206,-168 1206,-156 1206,-156 1206,-150 1212,-144 1218,-144 1218,-144 1248,-144 1248,-144 1254,-144 1260,-150 1260,-156 1260,-156 1260,-168 1260,-168 1260,-174 1254,-180 1248,-180"/>
<text text-anchor="middle" x="1233" y="-158.3" font-family="Times,serif" font-size="14.00">Return</text>
</g>
<!-- ast.If object at 0x745374072f90&#45;&gt;ast.Return object at 0x745374079650 -->
<g id="edge48" class="edge">
<title>ast.If object at 0x745374072f90&#45;&gt;ast.Return object at 0x745374079650</title>
<path fill="none" stroke="black" d="M1110.16,-220.32C1134.3,-209.06 1169.78,-192.5 1196.41,-180.07"/>
<polygon fill="black" stroke="black" points="1198.2,-183.1 1205.79,-175.7 1195.24,-176.76 1198.2,-183.1"/>
</g>
<!-- ast.Return object at 0x74537407a690 -->
<g id="node41" class="node">
<title>ast.Return object at 0x74537407a690</title>
<path fill="#66cdaa" stroke="black" d="M1155,-180C1155,-180 1125,-180 1125,-180 1119,-180 1113,-174 1113,-168 1113,-168 1113,-156 1113,-156 1113,-150 1119,-144 1125,-144 1125,-144 1155,-144 1155,-144 1161,-144 1167,-150 1167,-156 1167,-156 1167,-168 1167,-168 1167,-174 1161,-180 1155,-180"/>
<text text-anchor="middle" x="1140" y="-158.3" font-family="Times,serif" font-size="14.00">Return</text>
</g>
<!-- ast.If object at 0x745374072f90&#45;&gt;ast.Return object at 0x74537407a690 -->
<g id="edge50" class="edge">
<title>ast.If object at 0x745374072f90&#45;&gt;ast.Return object at 0x74537407a690</title>
<path fill="none" stroke="black" d="M1097.09,-215.7C1103.92,-207.3 1112.26,-197.07 1119.76,-187.86"/>
<polygon fill="black" stroke="black" points="1122.47,-190.07 1126.07,-180.1 1117.04,-185.65 1122.47,-190.07"/>
</g>
<!-- ast.Name object at 0x74537407a590 -->
<g id="node36" class="node">
<title>ast.Name object at 0x74537407a590</title>
<path fill="#66cdaa" stroke="black" d="M953,-108C953,-108 923,-108 923,-108 917,-108 911,-102 911,-96 911,-96 911,-84 911,-84 911,-78 917,-72 923,-72 923,-72 953,-72 953,-72 959,-72 965,-78 965,-84 965,-84 965,-96 965,-96 965,-102 959,-108 953,-108"/>
<text text-anchor="middle" x="938" y="-86.3" font-family="Times,serif" font-size="14.00">Name</text>
</g>
<!-- ast.Compare object at 0x745374072fd0&#45;&gt;ast.Name object at 0x74537407a590 -->
<g id="edge44" class="edge">
<title>ast.Compare object at 0x745374072fd0&#45;&gt;ast.Name object at 0x74537407a590</title>
<path fill="none" stroke="black" d="M1004.25,-143.7C993.16,-134.88 979.53,-124.03 967.51,-114.47"/>
<polygon fill="black" stroke="black" points="969.51,-111.59 959.5,-108.1 965.15,-117.07 969.51,-111.59"/>
</g>
<!-- ast.Eq object at 0x74546180cb90 -->
<g id="node37" class="node">
<title>ast.Eq object at 0x74546180cb90</title>
<path fill="#66cdaa" stroke="black" d="M1109,-108C1109,-108 1079,-108 1079,-108 1073,-108 1067,-102 1067,-96 1067,-96 1067,-84 1067,-84 1067,-78 1073,-72 1079,-72 1079,-72 1109,-72 1109,-72 1115,-72 1121,-78 1121,-84 1121,-84 1121,-96 1121,-96 1121,-102 1115,-108 1109,-108"/>
<text text-anchor="middle" x="1094" y="-86.3" font-family="Times,serif" font-size="14.00">Eq</text>
</g>
<!-- ast.Compare object at 0x745374072fd0&#45;&gt;ast.Eq object at 0x74546180cb90 -->
<g id="edge46" class="edge">
<title>ast.Compare object at 0x745374072fd0&#45;&gt;ast.Eq object at 0x74546180cb90</title>
<path fill="none" stroke="black" d="M1042.81,-143.7C1051.13,-135.14 1061.31,-124.66 1070.39,-115.3"/>
<polygon fill="black" stroke="black" points="1072.93,-117.72 1077.38,-108.1 1067.91,-112.84 1072.93,-117.72"/>
</g>
<!-- ast.Constant object at 0x74537407a3d0 -->
<g id="node38" class="node">
<title>ast.Constant object at 0x74537407a3d0</title>
<path fill="#66cdaa" stroke="black" d="M1036.5,-108C1036.5,-108 995.5,-108 995.5,-108 989.5,-108 983.5,-102 983.5,-96 983.5,-96 983.5,-84 983.5,-84 983.5,-78 989.5,-72 995.5,-72 995.5,-72 1036.5,-72 1036.5,-72 1042.5,-72 1048.5,-78 1048.5,-84 1048.5,-84 1048.5,-96 1048.5,-96 1048.5,-102 1042.5,-108 1036.5,-108"/>
<text text-anchor="middle" x="1016" y="-86.3" font-family="Times,serif" font-size="14.00">Constant</text>
</g>
<!-- ast.Compare object at 0x745374072fd0&#45;&gt;ast.Constant object at 0x74537407a3d0 -->
<g id="edge47" class="edge">
<title>ast.Compare object at 0x745374072fd0&#45;&gt;ast.Constant object at 0x74537407a3d0</title>
<path fill="none" stroke="black" d="M1023.53,-143.7C1022.43,-135.98 1021.1,-126.71 1019.87,-118.11"/>
<polygon fill="black" stroke="black" points="1023.32,-117.51 1018.44,-108.1 1016.39,-118.5 1023.32,-117.51"/>
</g>
<!-- ast.Name object at 0x74537407a590&#45;&gt;ast.Load object at 0x7454617ffb50 -->
<g id="edge45" class="edge">
<title>ast.Name object at 0x74537407a590&#45;&gt;ast.Load object at 0x7454617ffb50</title>
<path fill="none" stroke="black" d="M910.85,-76.16C887.15,-64.95 852.54,-48.58 826.42,-36.23"/>
<polygon fill="black" stroke="black" points="827.76,-32.99 817.22,-31.88 824.77,-39.32 827.76,-32.99"/>
</g>
<!-- ast.Constant object at 0x74537407b710 -->
<g id="node40" class="node">
<title>ast.Constant object at 0x74537407b710</title>
<path fill="#66cdaa" stroke="black" d="M1264.5,-108C1264.5,-108 1223.5,-108 1223.5,-108 1217.5,-108 1211.5,-102 1211.5,-96 1211.5,-96 1211.5,-84 1211.5,-84 1211.5,-78 1217.5,-72 1223.5,-72 1223.5,-72 1264.5,-72 1264.5,-72 1270.5,-72 1276.5,-78 1276.5,-84 1276.5,-84 1276.5,-96 1276.5,-96 1276.5,-102 1270.5,-108 1264.5,-108"/>
<text text-anchor="middle" x="1244" y="-86.3" font-family="Times,serif" font-size="14.00">Constant</text>
</g>
<!-- ast.Return object at 0x745374079650&#45;&gt;ast.Constant object at 0x74537407b710 -->
<g id="edge49" class="edge">
<title>ast.Return object at 0x745374079650&#45;&gt;ast.Constant object at 0x74537407b710</title>
<path fill="none" stroke="black" d="M1235.72,-143.7C1236.93,-135.98 1238.39,-126.71 1239.74,-118.11"/>
<polygon fill="black" stroke="black" points="1243.22,-118.53 1241.31,-108.1 1236.3,-117.44 1243.22,-118.53"/>
</g>
<!-- ast.Name object at 0x74537407b290 -->
<g id="node42" class="node">
<title>ast.Name object at 0x74537407b290</title>
<path fill="#66cdaa" stroke="black" d="M1181,-108C1181,-108 1151,-108 1151,-108 1145,-108 1139,-102 1139,-96 1139,-96 1139,-84 1139,-84 1139,-78 1145,-72 1151,-72 1151,-72 1181,-72 1181,-72 1187,-72 1193,-78 1193,-84 1193,-84 1193,-96 1193,-96 1193,-102 1187,-108 1181,-108"/>
<text text-anchor="middle" x="1166" y="-86.3" font-family="Times,serif" font-size="14.00">Name</text>
</g>
<!-- ast.Return object at 0x74537407a690&#45;&gt;ast.Name object at 0x74537407b290 -->
<g id="edge51" class="edge">
<title>ast.Return object at 0x74537407a690&#45;&gt;ast.Name object at 0x74537407b290</title>
<path fill="none" stroke="black" d="M1146.43,-143.7C1149.36,-135.81 1152.89,-126.3 1156.14,-117.55"/>
<polygon fill="black" stroke="black" points="1159.45,-118.7 1159.65,-108.1 1152.88,-116.26 1159.45,-118.7"/>
</g>
<!-- ast.Name object at 0x74537407b290&#45;&gt;ast.Load object at 0x7454617ffb50 -->
<g id="edge52" class="edge">
<title>ast.Name object at 0x74537407b290&#45;&gt;ast.Load object at 0x7454617ffb50</title>
<path fill="none" stroke="black" d="M1138.81,-75.17C1135.88,-73.98 1132.91,-72.89 1130,-72 1023.11,-39.18 890.77,-26.02 827.34,-21.32"/>
<polygon fill="black" stroke="black" points="827.26,-17.8 817.04,-20.58 826.76,-24.78 827.26,-17.8"/>
</g>
</g>
</svg>
