<?xml version="1.0" encoding="UTF-8" standalone="no"?>
<!DOCTYPE svg PUBLIC "-//W3C//DTD SVG 1.1//EN"
 "http://www.w3.org/Graphics/SVG/1.1/DTD/svg11.dtd">
<!-- Generated by graphviz version 2.50.0 (0)
 -->
<!-- Pages: 1 -->
<svg width="1028pt" height="548pt"
 viewBox="0.00 0.00 1027.50 548.00" xmlns="http://www.w3.org/2000/svg" xmlns:xlink="http://www.w3.org/1999/xlink">
<g id="graph0" class="graph" transform="scale(1 1) rotate(0) translate(4 544)">
<polygon fill="white" stroke="transparent" points="-4,4 -4,-544 1023.5,-544 1023.5,4 -4,4"/>
<!-- ast.Module object at 0x731d1b06fb50 -->
<g id="node1" class="node">
<title>ast.Module object at 0x731d1b06fb50</title>
<path fill="#66cdaa" stroke="black" d="M686,-540C686,-540 651,-540 651,-540 645,-540 639,-534 639,-528 639,-528 639,-516 639,-516 639,-510 645,-504 651,-504 651,-504 686,-504 686,-504 692,-504 698,-510 698,-516 698,-516 698,-528 698,-528 698,-534 692,-540 686,-540"/>
<text text-anchor="middle" x="668.5" y="-518.3" font-family="Times,serif" font-size="14.00">Module</text>
</g>
<!-- ast.FunctionDef object at 0x731d1b06dcd0 -->
<g id="node2" class="node">
<title>ast.FunctionDef object at 0x731d1b06dcd0</title>
<path fill="#66cdaa" stroke="black" d="M699,-468C699,-468 638,-468 638,-468 632,-468 626,-462 626,-456 626,-456 626,-444 626,-444 626,-438 632,-432 638,-432 638,-432 699,-432 699,-432 705,-432 711,-438 711,-444 711,-444 711,-456 711,-456 711,-462 705,-468 699,-468"/>
<text text-anchor="middle" x="668.5" y="-446.3" font-family="Times,serif" font-size="14.00">FunctionDef</text>
</g>
<!-- ast.Module object at 0x731d1b06fb50&#45;&gt;ast.FunctionDef object at 0x731d1b06dcd0 -->
<g id="edge1" class="edge">
<title>ast.Module object at 0x731d1b06fb50&#45;&gt;ast.FunctionDef object at 0x731d1b06dcd0</title>
<path fill="none" stroke="black" d="M668.5,-503.7C668.5,-495.98 668.5,-486.71 668.5,-478.11"/>
<polygon fill="black" stroke="black" points="672,-478.1 668.5,-468.1 665,-478.1 672,-478.1"/>
</g>
<!-- ast.arguments object at 0x731d1b06d910 -->
<g id="node3" class="node">
<title>ast.arguments object at 0x731d1b06d910</title>
<path fill="#66cdaa" stroke="black" d="M977.5,-396C977.5,-396 927.5,-396 927.5,-396 921.5,-396 915.5,-390 915.5,-384 915.5,-384 915.5,-372 915.5,-372 915.5,-366 921.5,-360 927.5,-360 927.5,-360 977.5,-360 977.5,-360 983.5,-360 989.5,-366 989.5,-372 989.5,-372 989.5,-384 989.5,-384 989.5,-390 983.5,-396 977.5,-396"/>
<text text-anchor="middle" x="952.5" y="-374.3" font-family="Times,serif" font-size="14.00">arguments</text>
</g>
<!-- ast.FunctionDef object at 0x731d1b06dcd0&#45;&gt;ast.arguments object at 0x731d1b06d910 -->
<g id="edge2" class="edge">
<title>ast.FunctionDef object at 0x731d1b06dcd0&#45;&gt;ast.arguments object at 0x731d1b06d910</title>
<path fill="none" stroke="black" d="M711.02,-438.52C763.06,-425.69 850.93,-404.03 905.1,-390.68"/>
<polygon fill="black" stroke="black" points="906.27,-394 915.14,-388.21 904.59,-387.2 906.27,-394"/>
</g>
<!-- ast.Assign object at 0x731d1b06ef10 -->
<g id="node7" class="node">
<title>ast.Assign object at 0x731d1b06ef10</title>
<path fill="#66cdaa" stroke="black" d="M202.5,-252C202.5,-252 172.5,-252 172.5,-252 166.5,-252 160.5,-246 160.5,-240 160.5,-240 160.5,-228 160.5,-228 160.5,-222 166.5,-216 172.5,-216 172.5,-216 202.5,-216 202.5,-216 208.5,-216 214.5,-222 214.5,-228 214.5,-228 214.5,-240 214.5,-240 214.5,-246 208.5,-252 202.5,-252"/>
<text text-anchor="middle" x="187.5" y="-230.3" font-family="Times,serif" font-size="14.00">Assign</text>
</g>
<!-- ast.FunctionDef object at 0x731d1b06dcd0&#45;&gt;ast.Assign object at 0x731d1b06ef10 -->
<g id="edge6" class="edge">
<title>ast.FunctionDef object at 0x731d1b06dcd0&#45;&gt;ast.Assign object at 0x731d1b06ef10</title>
<path fill="none" stroke="black" d="M625.95,-447.13C566.65,-443.27 456.74,-431.53 370.5,-396 299.2,-366.63 236.69,-297.5 206.57,-260.09"/>
<polygon fill="black" stroke="black" points="209.26,-257.85 200.31,-252.18 203.77,-262.19 209.26,-257.85"/>
</g>
<!-- ast.Assign object at 0x731d02dba910 -->
<g id="node14" class="node">
<title>ast.Assign object at 0x731d02dba910</title>
<path fill="#66cdaa" stroke="black" d="M421.5,-396C421.5,-396 391.5,-396 391.5,-396 385.5,-396 379.5,-390 379.5,-384 379.5,-384 379.5,-372 379.5,-372 379.5,-366 385.5,-360 391.5,-360 391.5,-360 421.5,-360 421.5,-360 427.5,-360 433.5,-366 433.5,-372 433.5,-372 433.5,-384 433.5,-384 433.5,-390 427.5,-396 421.5,-396"/>
<text text-anchor="middle" x="406.5" y="-374.3" font-family="Times,serif" font-size="14.00">Assign</text>
</g>
<!-- ast.FunctionDef object at 0x731d1b06dcd0&#45;&gt;ast.Assign object at 0x731d02dba910 -->
<g id="edge14" class="edge">
<title>ast.FunctionDef object at 0x731d1b06dcd0&#45;&gt;ast.Assign object at 0x731d02dba910</title>
<path fill="none" stroke="black" d="M625.82,-437.6C575.06,-424.03 491.17,-401.62 443.19,-388.8"/>
<polygon fill="black" stroke="black" points="444.09,-385.42 433.53,-386.22 442.28,-392.18 444.09,-385.42"/>
</g>
<!-- ast.Expr object at 0x731d0216bad0 -->
<g id="node25" class="node">
<title>ast.Expr object at 0x731d0216bad0</title>
<path fill="#66cdaa" stroke="black" d="M647.5,-396C647.5,-396 617.5,-396 617.5,-396 611.5,-396 605.5,-390 605.5,-384 605.5,-384 605.5,-372 605.5,-372 605.5,-366 611.5,-360 617.5,-360 617.5,-360 647.5,-360 647.5,-360 653.5,-360 659.5,-366 659.5,-372 659.5,-372 659.5,-384 659.5,-384 659.5,-390 653.5,-396 647.5,-396"/>
<text text-anchor="middle" x="632.5" y="-374.3" font-family="Times,serif" font-size="14.00">Expr</text>
</g>
<!-- ast.FunctionDef object at 0x731d1b06dcd0&#45;&gt;ast.Expr object at 0x731d0216bad0 -->
<g id="edge32" class="edge">
<title>ast.FunctionDef object at 0x731d1b06dcd0&#45;&gt;ast.Expr object at 0x731d0216bad0</title>
<path fill="none" stroke="black" d="M659.6,-431.7C655.5,-423.73 650.55,-414.1 646.01,-405.26"/>
<polygon fill="black" stroke="black" points="648.98,-403.4 641.3,-396.1 642.76,-406.6 648.98,-403.4"/>
</g>
<!-- ast.Return object at 0x731d0216a690 -->
<g id="node29" class="node">
<title>ast.Return object at 0x731d0216a690</title>
<path fill="#66cdaa" stroke="black" d="M722.5,-396C722.5,-396 692.5,-396 692.5,-396 686.5,-396 680.5,-390 680.5,-384 680.5,-384 680.5,-372 680.5,-372 680.5,-366 686.5,-360 692.5,-360 692.5,-360 722.5,-360 722.5,-360 728.5,-360 734.5,-366 734.5,-372 734.5,-372 734.5,-384 734.5,-384 734.5,-390 728.5,-396 722.5,-396"/>
<text text-anchor="middle" x="707.5" y="-374.3" font-family="Times,serif" font-size="14.00">Return</text>
</g>
<!-- ast.FunctionDef object at 0x731d1b06dcd0&#45;&gt;ast.Return object at 0x731d0216a690 -->
<g id="edge38" class="edge">
<title>ast.FunctionDef object at 0x731d1b06dcd0&#45;&gt;ast.Return object at 0x731d0216a690</title>
<path fill="none" stroke="black" d="M678.14,-431.7C682.63,-423.64 688.06,-413.89 693.02,-404.98"/>
<polygon fill="black" stroke="black" points="696.16,-406.54 697.97,-396.1 690.05,-403.14 696.16,-406.54"/>
</g>
<!-- ast.Name object at 0x731d021690d0 -->
<g id="node35" class="node">
<title>ast.Name object at 0x731d021690d0</title>
<path fill="#66cdaa" stroke="black" d="M855.5,-396C855.5,-396 825.5,-396 825.5,-396 819.5,-396 813.5,-390 813.5,-384 813.5,-384 813.5,-372 813.5,-372 813.5,-366 819.5,-360 825.5,-360 825.5,-360 855.5,-360 855.5,-360 861.5,-360 867.5,-366 867.5,-372 867.5,-372 867.5,-384 867.5,-384 867.5,-390 861.5,-396 855.5,-396"/>
<text text-anchor="middle" x="840.5" y="-374.3" font-family="Times,serif" font-size="14.00">Name</text>
</g>
<!-- ast.FunctionDef object at 0x731d1b06dcd0&#45;&gt;ast.Name object at 0x731d021690d0 -->
<g id="edge47" class="edge">
<title>ast.FunctionDef object at 0x731d1b06dcd0&#45;&gt;ast.Name object at 0x731d021690d0</title>
<path fill="none" stroke="black" d="M710.58,-431.88C739.1,-420.27 776.43,-405.08 803.75,-393.95"/>
<polygon fill="black" stroke="black" points="805.39,-397.07 813.33,-390.06 802.75,-390.58 805.39,-397.07"/>
</g>
<!-- ast.arg object at 0x731d1b06e090 -->
<g id="node4" class="node">
<title>ast.arg object at 0x731d1b06e090</title>
<path fill="#66cdaa" stroke="black" d="M1007.5,-324C1007.5,-324 977.5,-324 977.5,-324 971.5,-324 965.5,-318 965.5,-312 965.5,-312 965.5,-300 965.5,-300 965.5,-294 971.5,-288 977.5,-288 977.5,-288 1007.5,-288 1007.5,-288 1013.5,-288 1019.5,-294 1019.5,-300 1019.5,-300 1019.5,-312 1019.5,-312 1019.5,-318 1013.5,-324 1007.5,-324"/>
<text text-anchor="middle" x="992.5" y="-302.3" font-family="Times,serif" font-size="14.00">arg</text>
</g>
<!-- ast.arguments object at 0x731d1b06d910&#45;&gt;ast.arg object at 0x731d1b06e090 -->
<g id="edge3" class="edge">
<title>ast.arguments object at 0x731d1b06d910&#45;&gt;ast.arg object at 0x731d1b06e090</title>
<path fill="none" stroke="black" d="M962.39,-359.7C966.99,-351.64 972.56,-341.89 977.65,-332.98"/>
<polygon fill="black" stroke="black" points="980.8,-334.52 982.73,-324.1 974.73,-331.05 980.8,-334.52"/>
</g>
<!-- ast.Name object at 0x731d1b06e850 -->
<g id="node5" class="node">
<title>ast.Name object at 0x731d1b06e850</title>
<path fill="#66cdaa" stroke="black" d="M1007.5,-252C1007.5,-252 977.5,-252 977.5,-252 971.5,-252 965.5,-246 965.5,-240 965.5,-240 965.5,-228 965.5,-228 965.5,-222 971.5,-216 977.5,-216 977.5,-216 1007.5,-216 1007.5,-216 1013.5,-216 1019.5,-222 1019.5,-228 1019.5,-228 1019.5,-240 1019.5,-240 1019.5,-246 1013.5,-252 1007.5,-252"/>
<text text-anchor="middle" x="992.5" y="-230.3" font-family="Times,serif" font-size="14.00">Name</text>
</g>
<!-- ast.arg object at 0x731d1b06e090&#45;&gt;ast.Name object at 0x731d1b06e850 -->
<g id="edge4" class="edge">
<title>ast.arg object at 0x731d1b06e090&#45;&gt;ast.Name object at 0x731d1b06e850</title>
<path fill="none" stroke="black" d="M992.5,-287.7C992.5,-279.98 992.5,-270.71 992.5,-262.11"/>
<polygon fill="black" stroke="black" points="996,-262.1 992.5,-252.1 989,-262.1 996,-262.1"/>
</g>
<!-- ast.Load object at 0x731df7a5ab10 -->
<g id="node6" class="node">
<title>ast.Load object at 0x731df7a5ab10</title>
<path fill="#66cdaa" stroke="black" d="M610.5,-36C610.5,-36 580.5,-36 580.5,-36 574.5,-36 568.5,-30 568.5,-24 568.5,-24 568.5,-12 568.5,-12 568.5,-6 574.5,0 580.5,0 580.5,0 610.5,0 610.5,0 616.5,0 622.5,-6 622.5,-12 622.5,-12 622.5,-24 622.5,-24 622.5,-30 616.5,-36 610.5,-36"/>
<text text-anchor="middle" x="595.5" y="-14.3" font-family="Times,serif" font-size="14.00">Load</text>
</g>
<!-- ast.Name object at 0x731d1b06e850&#45;&gt;ast.Load object at 0x731df7a5ab10 -->
<g id="edge5" class="edge">
<title>ast.Name object at 0x731d1b06e850&#45;&gt;ast.Load object at 0x731df7a5ab10</title>
<path fill="none" stroke="black" d="M993.76,-215.84C995.16,-182.63 993.02,-109.51 951.5,-72 905.24,-30.21 714.8,-21.37 633.06,-19.5"/>
<polygon fill="black" stroke="black" points="632.8,-15.99 622.73,-19.29 632.65,-22.99 632.8,-15.99"/>
</g>
<!-- ast.Name object at 0x731d1b06c910 -->
<g id="node8" class="node">
<title>ast.Name object at 0x731d1b06c910</title>
<path fill="#66cdaa" stroke="black" d="M202.5,-180C202.5,-180 172.5,-180 172.5,-180 166.5,-180 160.5,-174 160.5,-168 160.5,-168 160.5,-156 160.5,-156 160.5,-150 166.5,-144 172.5,-144 172.5,-144 202.5,-144 202.5,-144 208.5,-144 214.5,-150 214.5,-156 214.5,-156 214.5,-168 214.5,-168 214.5,-174 208.5,-180 202.5,-180"/>
<text text-anchor="middle" x="187.5" y="-158.3" font-family="Times,serif" font-size="14.00">Name</text>
</g>
<!-- ast.Assign object at 0x731d1b06ef10&#45;&gt;ast.Name object at 0x731d1b06c910 -->
<g id="edge7" class="edge">
<title>ast.Assign object at 0x731d1b06ef10&#45;&gt;ast.Name object at 0x731d1b06c910</title>
<path fill="none" stroke="black" d="M187.5,-215.7C187.5,-207.98 187.5,-198.71 187.5,-190.11"/>
<polygon fill="black" stroke="black" points="191,-190.1 187.5,-180.1 184,-190.1 191,-190.1"/>
</g>
<!-- ast.Call object at 0x731d1b06d490 -->
<g id="node10" class="node">
<title>ast.Call object at 0x731d1b06d490</title>
<path fill="#66cdaa" stroke="black" d="M130.5,-180C130.5,-180 100.5,-180 100.5,-180 94.5,-180 88.5,-174 88.5,-168 88.5,-168 88.5,-156 88.5,-156 88.5,-150 94.5,-144 100.5,-144 100.5,-144 130.5,-144 130.5,-144 136.5,-144 142.5,-150 142.5,-156 142.5,-156 142.5,-168 142.5,-168 142.5,-174 136.5,-180 130.5,-180"/>
<text text-anchor="middle" x="115.5" y="-158.3" font-family="Times,serif" font-size="14.00">Call</text>
</g>
<!-- ast.Assign object at 0x731d1b06ef10&#45;&gt;ast.Call object at 0x731d1b06d490 -->
<g id="edge9" class="edge">
<title>ast.Assign object at 0x731d1b06ef10&#45;&gt;ast.Call object at 0x731d1b06d490</title>
<path fill="none" stroke="black" d="M169.7,-215.7C160.9,-207.14 150.12,-196.66 140.5,-187.3"/>
<polygon fill="black" stroke="black" points="142.7,-184.57 133.09,-180.1 137.82,-189.58 142.7,-184.57"/>
</g>
<!-- ast.Store object at 0x731df7a5ab90 -->
<g id="node9" class="node">
<title>ast.Store object at 0x731df7a5ab90</title>
<path fill="#66cdaa" stroke="black" d="M280.5,-108C280.5,-108 250.5,-108 250.5,-108 244.5,-108 238.5,-102 238.5,-96 238.5,-96 238.5,-84 238.5,-84 238.5,-78 244.5,-72 250.5,-72 250.5,-72 280.5,-72 280.5,-72 286.5,-72 292.5,-78 292.5,-84 292.5,-84 292.5,-96 292.5,-96 292.5,-102 286.5,-108 280.5,-108"/>
<text text-anchor="middle" x="265.5" y="-86.3" font-family="Times,serif" font-size="14.00">Store</text>
</g>
<!-- ast.Name object at 0x731d1b06c910&#45;&gt;ast.Store object at 0x731df7a5ab90 -->
<g id="edge8" class="edge">
<title>ast.Name object at 0x731d1b06c910&#45;&gt;ast.Store object at 0x731df7a5ab90</title>
<path fill="none" stroke="black" d="M206.78,-143.7C216.42,-135.05 228.23,-124.45 238.73,-115.03"/>
<polygon fill="black" stroke="black" points="241.34,-117.39 246.44,-108.1 236.66,-112.18 241.34,-117.39"/>
</g>
<!-- ast.Name object at 0x731d021697d0 -->
<g id="node11" class="node">
<title>ast.Name object at 0x731d021697d0</title>
<path fill="#66cdaa" stroke="black" d="M208.5,-108C208.5,-108 178.5,-108 178.5,-108 172.5,-108 166.5,-102 166.5,-96 166.5,-96 166.5,-84 166.5,-84 166.5,-78 172.5,-72 178.5,-72 178.5,-72 208.5,-72 208.5,-72 214.5,-72 220.5,-78 220.5,-84 220.5,-84 220.5,-96 220.5,-96 220.5,-102 214.5,-108 208.5,-108"/>
<text text-anchor="middle" x="193.5" y="-86.3" font-family="Times,serif" font-size="14.00">Name</text>
</g>
<!-- ast.Call object at 0x731d1b06d490&#45;&gt;ast.Name object at 0x731d021697d0 -->
<g id="edge10" class="edge">
<title>ast.Call object at 0x731d1b06d490&#45;&gt;ast.Name object at 0x731d021697d0</title>
<path fill="none" stroke="black" d="M134.78,-143.7C144.42,-135.05 156.23,-124.45 166.73,-115.03"/>
<polygon fill="black" stroke="black" points="169.34,-117.39 174.44,-108.1 164.66,-112.18 169.34,-117.39"/>
</g>
<!-- ast.Constant object at 0x731d0216b0d0 -->
<g id="node12" class="node">
<title>ast.Constant object at 0x731d0216b0d0</title>
<path fill="#66cdaa" stroke="black" d="M53,-108C53,-108 12,-108 12,-108 6,-108 0,-102 0,-96 0,-96 0,-84 0,-84 0,-78 6,-72 12,-72 12,-72 53,-72 53,-72 59,-72 65,-78 65,-84 65,-84 65,-96 65,-96 65,-102 59,-108 53,-108"/>
<text text-anchor="middle" x="32.5" y="-86.3" font-family="Times,serif" font-size="14.00">Constant</text>
</g>
<!-- ast.Call object at 0x731d1b06d490&#45;&gt;ast.Constant object at 0x731d0216b0d0 -->
<g id="edge12" class="edge">
<title>ast.Call object at 0x731d1b06d490&#45;&gt;ast.Constant object at 0x731d0216b0d0</title>
<path fill="none" stroke="black" d="M94.98,-143.7C84.63,-134.97 71.91,-124.24 60.66,-114.75"/>
<polygon fill="black" stroke="black" points="62.68,-111.88 52.78,-108.1 58.17,-117.23 62.68,-111.88"/>
</g>
<!-- ast.Constant object at 0x731d021688d0 -->
<g id="node13" class="node">
<title>ast.Constant object at 0x731d021688d0</title>
<path fill="#66cdaa" stroke="black" d="M136,-108C136,-108 95,-108 95,-108 89,-108 83,-102 83,-96 83,-96 83,-84 83,-84 83,-78 89,-72 95,-72 95,-72 136,-72 136,-72 142,-72 148,-78 148,-84 148,-84 148,-96 148,-96 148,-102 142,-108 136,-108"/>
<text text-anchor="middle" x="115.5" y="-86.3" font-family="Times,serif" font-size="14.00">Constant</text>
</g>
<!-- ast.Call object at 0x731d1b06d490&#45;&gt;ast.Constant object at 0x731d021688d0 -->
<g id="edge13" class="edge">
<title>ast.Call object at 0x731d1b06d490&#45;&gt;ast.Constant object at 0x731d021688d0</title>
<path fill="none" stroke="black" d="M115.5,-143.7C115.5,-135.98 115.5,-126.71 115.5,-118.11"/>
<polygon fill="black" stroke="black" points="119,-118.1 115.5,-108.1 112,-118.1 119,-118.1"/>
</g>
<!-- ast.Name object at 0x731d021697d0&#45;&gt;ast.Load object at 0x731df7a5ab10 -->
<g id="edge11" class="edge">
<title>ast.Name object at 0x731d021697d0&#45;&gt;ast.Load object at 0x731df7a5ab10</title>
<path fill="none" stroke="black" d="M220.68,-75.14C223.61,-73.95 226.59,-72.88 229.5,-72 346.21,-36.85 491.1,-24.69 558.19,-20.75"/>
<polygon fill="black" stroke="black" points="558.48,-24.24 568.27,-20.18 558.09,-17.25 558.48,-24.24"/>
</g>
<!-- ast.Name object at 0x731d02168cd0 -->
<g id="node15" class="node">
<title>ast.Name object at 0x731d02168cd0</title>
<path fill="#66cdaa" stroke="black" d="M317.5,-324C317.5,-324 287.5,-324 287.5,-324 281.5,-324 275.5,-318 275.5,-312 275.5,-312 275.5,-300 275.5,-300 275.5,-294 281.5,-288 287.5,-288 287.5,-288 317.5,-288 317.5,-288 323.5,-288 329.5,-294 329.5,-300 329.5,-300 329.5,-312 329.5,-312 329.5,-318 323.5,-324 317.5,-324"/>
<text text-anchor="middle" x="302.5" y="-302.3" font-family="Times,serif" font-size="14.00">Name</text>
</g>
<!-- ast.Assign object at 0x731d02dba910&#45;&gt;ast.Name object at 0x731d02168cd0 -->
<g id="edge15" class="edge">
<title>ast.Assign object at 0x731d02dba910&#45;&gt;ast.Name object at 0x731d02168cd0</title>
<path fill="none" stroke="black" d="M381.06,-359.88C367.71,-350.89 351.18,-339.76 336.72,-330.03"/>
<polygon fill="black" stroke="black" points="338.29,-326.87 328.04,-324.19 334.38,-332.68 338.29,-326.87"/>
</g>
<!-- ast.ListComp object at 0x731d0216bf10 -->
<g id="node16" class="node">
<title>ast.ListComp object at 0x731d0216bf10</title>
<path fill="#66cdaa" stroke="black" d="M430,-324C430,-324 383,-324 383,-324 377,-324 371,-318 371,-312 371,-312 371,-300 371,-300 371,-294 377,-288 383,-288 383,-288 430,-288 430,-288 436,-288 442,-294 442,-300 442,-300 442,-312 442,-312 442,-318 436,-324 430,-324"/>
<text text-anchor="middle" x="406.5" y="-302.3" font-family="Times,serif" font-size="14.00">ListComp</text>
</g>
<!-- ast.Assign object at 0x731d02dba910&#45;&gt;ast.ListComp object at 0x731d0216bf10 -->
<g id="edge17" class="edge">
<title>ast.Assign object at 0x731d02dba910&#45;&gt;ast.ListComp object at 0x731d0216bf10</title>
<path fill="none" stroke="black" d="M406.5,-359.7C406.5,-351.98 406.5,-342.71 406.5,-334.11"/>
<polygon fill="black" stroke="black" points="410,-334.1 406.5,-324.1 403,-334.1 410,-334.1"/>
</g>
<!-- ast.Name object at 0x731d02168cd0&#45;&gt;ast.Store object at 0x731df7a5ab90 -->
<g id="edge16" class="edge">
<title>ast.Name object at 0x731d02168cd0&#45;&gt;ast.Store object at 0x731df7a5ab90</title>
<path fill="none" stroke="black" d="M294.85,-287.64C284.84,-263.89 267.84,-219.69 261.5,-180 258.98,-164.2 260.9,-159.99 261.5,-144 261.81,-135.67 262.41,-126.61 263.04,-118.38"/>
<polygon fill="black" stroke="black" points="266.55,-118.42 263.88,-108.17 259.57,-117.85 266.55,-118.42"/>
</g>
<!-- ast.Call object at 0x731d0216a610 -->
<g id="node17" class="node">
<title>ast.Call object at 0x731d0216a610</title>
<path fill="#66cdaa" stroke="black" d="M468.5,-252C468.5,-252 438.5,-252 438.5,-252 432.5,-252 426.5,-246 426.5,-240 426.5,-240 426.5,-228 426.5,-228 426.5,-222 432.5,-216 438.5,-216 438.5,-216 468.5,-216 468.5,-216 474.5,-216 480.5,-222 480.5,-228 480.5,-228 480.5,-240 480.5,-240 480.5,-246 474.5,-252 468.5,-252"/>
<text text-anchor="middle" x="453.5" y="-230.3" font-family="Times,serif" font-size="14.00">Call</text>
</g>
<!-- ast.ListComp object at 0x731d0216bf10&#45;&gt;ast.Call object at 0x731d0216a610 -->
<g id="edge18" class="edge">
<title>ast.ListComp object at 0x731d0216bf10&#45;&gt;ast.Call object at 0x731d0216a610</title>
<path fill="none" stroke="black" d="M418.12,-287.7C423.64,-279.47 430.35,-269.48 436.43,-260.42"/>
<polygon fill="black" stroke="black" points="439.35,-262.36 442.02,-252.1 433.54,-258.46 439.35,-262.36"/>
</g>
<!-- ast.comprehension object at 0x731d02168310 -->
<g id="node22" class="node">
<title>ast.comprehension object at 0x731d02168310</title>
<path fill="#66cdaa" stroke="black" d="M396.5,-252C396.5,-252 320.5,-252 320.5,-252 314.5,-252 308.5,-246 308.5,-240 308.5,-240 308.5,-228 308.5,-228 308.5,-222 314.5,-216 320.5,-216 320.5,-216 396.5,-216 396.5,-216 402.5,-216 408.5,-222 408.5,-228 408.5,-228 408.5,-240 408.5,-240 408.5,-246 402.5,-252 396.5,-252"/>
<text text-anchor="middle" x="358.5" y="-230.3" font-family="Times,serif" font-size="14.00">comprehension</text>
</g>
<!-- ast.ListComp object at 0x731d0216bf10&#45;&gt;ast.comprehension object at 0x731d02168310 -->
<g id="edge27" class="edge">
<title>ast.ListComp object at 0x731d0216bf10&#45;&gt;ast.comprehension object at 0x731d02168310</title>
<path fill="none" stroke="black" d="M394.63,-287.7C389,-279.47 382.15,-269.48 375.93,-260.42"/>
<polygon fill="black" stroke="black" points="378.77,-258.37 370.23,-252.1 373,-262.33 378.77,-258.37"/>
</g>
<!-- ast.Name object at 0x731d0216b190 -->
<g id="node18" class="node">
<title>ast.Name object at 0x731d0216b190</title>
<path fill="#66cdaa" stroke="black" d="M456.5,-180C456.5,-180 426.5,-180 426.5,-180 420.5,-180 414.5,-174 414.5,-168 414.5,-168 414.5,-156 414.5,-156 414.5,-150 420.5,-144 426.5,-144 426.5,-144 456.5,-144 456.5,-144 462.5,-144 468.5,-150 468.5,-156 468.5,-156 468.5,-168 468.5,-168 468.5,-174 462.5,-180 456.5,-180"/>
<text text-anchor="middle" x="441.5" y="-158.3" font-family="Times,serif" font-size="14.00">Name</text>
</g>
<!-- ast.Call object at 0x731d0216a610&#45;&gt;ast.Name object at 0x731d0216b190 -->
<g id="edge19" class="edge">
<title>ast.Call object at 0x731d0216a610&#45;&gt;ast.Name object at 0x731d0216b190</title>
<path fill="none" stroke="black" d="M450.53,-215.7C449.21,-207.98 447.62,-198.71 446.15,-190.11"/>
<polygon fill="black" stroke="black" points="449.57,-189.37 444.43,-180.1 442.67,-190.55 449.57,-189.37"/>
</g>
<!-- ast.Subscript object at 0x731d0216ac10 -->
<g id="node19" class="node">
<title>ast.Subscript object at 0x731d0216ac10</title>
<path fill="#66cdaa" stroke="black" d="M542.5,-180C542.5,-180 498.5,-180 498.5,-180 492.5,-180 486.5,-174 486.5,-168 486.5,-168 486.5,-156 486.5,-156 486.5,-150 492.5,-144 498.5,-144 498.5,-144 542.5,-144 542.5,-144 548.5,-144 554.5,-150 554.5,-156 554.5,-156 554.5,-168 554.5,-168 554.5,-174 548.5,-180 542.5,-180"/>
<text text-anchor="middle" x="520.5" y="-158.3" font-family="Times,serif" font-size="14.00">Subscript</text>
</g>
<!-- ast.Call object at 0x731d0216a610&#45;&gt;ast.Subscript object at 0x731d0216ac10 -->
<g id="edge21" class="edge">
<title>ast.Call object at 0x731d0216a610&#45;&gt;ast.Subscript object at 0x731d0216ac10</title>
<path fill="none" stroke="black" d="M470.06,-215.7C478.18,-207.22 488.09,-196.86 496.97,-187.58"/>
<polygon fill="black" stroke="black" points="499.74,-189.75 504.13,-180.1 494.69,-184.91 499.74,-189.75"/>
</g>
<!-- ast.Name object at 0x731d0216b190&#45;&gt;ast.Load object at 0x731df7a5ab10 -->
<g id="edge20" class="edge">
<title>ast.Name object at 0x731d0216b190&#45;&gt;ast.Load object at 0x731df7a5ab10</title>
<path fill="none" stroke="black" d="M421.24,-143.91C401.51,-125.21 376.9,-94.84 394.5,-72 414.38,-46.2 506.12,-30.44 558.52,-23.38"/>
<polygon fill="black" stroke="black" points="558.98,-26.85 568.45,-22.09 558.08,-19.91 558.98,-26.85"/>
</g>
<!-- ast.Subscript object at 0x731d0216ac10&#45;&gt;ast.Load object at 0x731df7a5ab10 -->
<g id="edge26" class="edge">
<title>ast.Subscript object at 0x731d0216ac10&#45;&gt;ast.Load object at 0x731df7a5ab10</title>
<path fill="none" stroke="black" d="M529.55,-143.87C542.5,-119.35 566.43,-74.03 581.63,-45.26"/>
<polygon fill="black" stroke="black" points="584.85,-46.67 586.42,-36.19 578.66,-43.4 584.85,-46.67"/>
</g>
<!-- ast.Name object at 0x731d021693d0 -->
<g id="node20" class="node">
<title>ast.Name object at 0x731d021693d0</title>
<path fill="#66cdaa" stroke="black" d="M445.5,-108C445.5,-108 415.5,-108 415.5,-108 409.5,-108 403.5,-102 403.5,-96 403.5,-96 403.5,-84 403.5,-84 403.5,-78 409.5,-72 415.5,-72 415.5,-72 445.5,-72 445.5,-72 451.5,-72 457.5,-78 457.5,-84 457.5,-84 457.5,-96 457.5,-96 457.5,-102 451.5,-108 445.5,-108"/>
<text text-anchor="middle" x="430.5" y="-86.3" font-family="Times,serif" font-size="14.00">Name</text>
</g>
<!-- ast.Subscript object at 0x731d0216ac10&#45;&gt;ast.Name object at 0x731d021693d0 -->
<g id="edge22" class="edge">
<title>ast.Subscript object at 0x731d0216ac10&#45;&gt;ast.Name object at 0x731d021693d0</title>
<path fill="none" stroke="black" d="M498.25,-143.7C486.92,-134.88 472.97,-124.03 460.68,-114.47"/>
<polygon fill="black" stroke="black" points="462.53,-111.48 452.49,-108.1 458.24,-117.01 462.53,-111.48"/>
</g>
<!-- ast.Name object at 0x731d0216a110 -->
<g id="node21" class="node">
<title>ast.Name object at 0x731d0216a110</title>
<path fill="#66cdaa" stroke="black" d="M517.5,-108C517.5,-108 487.5,-108 487.5,-108 481.5,-108 475.5,-102 475.5,-96 475.5,-96 475.5,-84 475.5,-84 475.5,-78 481.5,-72 487.5,-72 487.5,-72 517.5,-72 517.5,-72 523.5,-72 529.5,-78 529.5,-84 529.5,-84 529.5,-96 529.5,-96 529.5,-102 523.5,-108 517.5,-108"/>
<text text-anchor="middle" x="502.5" y="-86.3" font-family="Times,serif" font-size="14.00">Name</text>
</g>
<!-- ast.Subscript object at 0x731d0216ac10&#45;&gt;ast.Name object at 0x731d0216a110 -->
<g id="edge24" class="edge">
<title>ast.Subscript object at 0x731d0216ac10&#45;&gt;ast.Name object at 0x731d0216a110</title>
<path fill="none" stroke="black" d="M516.05,-143.7C514.05,-135.9 511.63,-126.51 509.4,-117.83"/>
<polygon fill="black" stroke="black" points="512.78,-116.92 506.9,-108.1 506,-118.66 512.78,-116.92"/>
</g>
<!-- ast.Name object at 0x731d021693d0&#45;&gt;ast.Load object at 0x731df7a5ab10 -->
<g id="edge23" class="edge">
<title>ast.Name object at 0x731d021693d0&#45;&gt;ast.Load object at 0x731df7a5ab10</title>
<path fill="none" stroke="black" d="M457.56,-76.04C460.57,-74.65 463.59,-73.28 466.5,-72 497.34,-58.39 532.79,-43.91 558.71,-33.53"/>
<polygon fill="black" stroke="black" points="560.16,-36.72 568.15,-29.76 557.56,-30.22 560.16,-36.72"/>
</g>
<!-- ast.Name object at 0x731d0216a110&#45;&gt;ast.Load object at 0x731df7a5ab10 -->
<g id="edge25" class="edge">
<title>ast.Name object at 0x731d0216a110&#45;&gt;ast.Load object at 0x731df7a5ab10</title>
<path fill="none" stroke="black" d="M525.49,-71.7C537.31,-62.8 551.89,-51.82 564.68,-42.2"/>
<polygon fill="black" stroke="black" points="566.89,-44.91 572.78,-36.1 562.68,-39.32 566.89,-44.91"/>
</g>
<!-- ast.Name object at 0x731d0216b510 -->
<g id="node23" class="node">
<title>ast.Name object at 0x731d0216b510</title>
<path fill="#66cdaa" stroke="black" d="M312.5,-180C312.5,-180 282.5,-180 282.5,-180 276.5,-180 270.5,-174 270.5,-168 270.5,-168 270.5,-156 270.5,-156 270.5,-150 276.5,-144 282.5,-144 282.5,-144 312.5,-144 312.5,-144 318.5,-144 324.5,-150 324.5,-156 324.5,-156 324.5,-168 324.5,-168 324.5,-174 318.5,-180 312.5,-180"/>
<text text-anchor="middle" x="297.5" y="-158.3" font-family="Times,serif" font-size="14.00">Name</text>
</g>
<!-- ast.comprehension object at 0x731d02168310&#45;&gt;ast.Name object at 0x731d0216b510 -->
<g id="edge28" class="edge">
<title>ast.comprehension object at 0x731d02168310&#45;&gt;ast.Name object at 0x731d0216b510</title>
<path fill="none" stroke="black" d="M343.42,-215.7C336.11,-207.3 327.19,-197.07 319.16,-187.86"/>
<polygon fill="black" stroke="black" points="321.61,-185.34 312.41,-180.1 316.34,-189.94 321.61,-185.34"/>
</g>
<!-- ast.Name object at 0x731d021684d0 -->
<g id="node24" class="node">
<title>ast.Name object at 0x731d021684d0</title>
<path fill="#66cdaa" stroke="black" d="M384.5,-180C384.5,-180 354.5,-180 354.5,-180 348.5,-180 342.5,-174 342.5,-168 342.5,-168 342.5,-156 342.5,-156 342.5,-150 348.5,-144 354.5,-144 354.5,-144 384.5,-144 384.5,-144 390.5,-144 396.5,-150 396.5,-156 396.5,-156 396.5,-168 396.5,-168 396.5,-174 390.5,-180 384.5,-180"/>
<text text-anchor="middle" x="369.5" y="-158.3" font-family="Times,serif" font-size="14.00">Name</text>
</g>
<!-- ast.comprehension object at 0x731d02168310&#45;&gt;ast.Name object at 0x731d021684d0 -->
<g id="edge30" class="edge">
<title>ast.comprehension object at 0x731d02168310&#45;&gt;ast.Name object at 0x731d021684d0</title>
<path fill="none" stroke="black" d="M361.22,-215.7C362.43,-207.98 363.89,-198.71 365.24,-190.11"/>
<polygon fill="black" stroke="black" points="368.72,-190.53 366.81,-180.1 361.8,-189.44 368.72,-190.53"/>
</g>
<!-- ast.Name object at 0x731d0216b510&#45;&gt;ast.Store object at 0x731df7a5ab90 -->
<g id="edge29" class="edge">
<title>ast.Name object at 0x731d0216b510&#45;&gt;ast.Store object at 0x731df7a5ab90</title>
<path fill="none" stroke="black" d="M289.59,-143.7C285.95,-135.73 281.55,-126.1 277.51,-117.26"/>
<polygon fill="black" stroke="black" points="280.66,-115.74 273.32,-108.1 274.29,-118.65 280.66,-115.74"/>
</g>
<!-- ast.Name object at 0x731d021684d0&#45;&gt;ast.Load object at 0x731df7a5ab10 -->
<g id="edge31" class="edge">
<title>ast.Name object at 0x731d021684d0&#45;&gt;ast.Load object at 0x731df7a5ab10</title>
<path fill="none" stroke="black" d="M367.29,-143.89C365.75,-124.01 366.53,-91.45 384.5,-72 407.75,-46.84 504,-30.72 558.12,-23.47"/>
<polygon fill="black" stroke="black" points="558.88,-26.9 568.35,-22.14 557.98,-19.96 558.88,-26.9"/>
</g>
<!-- ast.Call object at 0x731d0216b6d0 -->
<g id="node26" class="node">
<title>ast.Call object at 0x731d0216b6d0</title>
<path fill="#66cdaa" stroke="black" d="M646.5,-324C646.5,-324 616.5,-324 616.5,-324 610.5,-324 604.5,-318 604.5,-312 604.5,-312 604.5,-300 604.5,-300 604.5,-294 610.5,-288 616.5,-288 616.5,-288 646.5,-288 646.5,-288 652.5,-288 658.5,-294 658.5,-300 658.5,-300 658.5,-312 658.5,-312 658.5,-318 652.5,-324 646.5,-324"/>
<text text-anchor="middle" x="631.5" y="-302.3" font-family="Times,serif" font-size="14.00">Call</text>
</g>
<!-- ast.Expr object at 0x731d0216bad0&#45;&gt;ast.Call object at 0x731d0216b6d0 -->
<g id="edge33" class="edge">
<title>ast.Expr object at 0x731d0216bad0&#45;&gt;ast.Call object at 0x731d0216b6d0</title>
<path fill="none" stroke="black" d="M632.25,-359.7C632.14,-351.98 632.01,-342.71 631.89,-334.11"/>
<polygon fill="black" stroke="black" points="635.39,-334.05 631.74,-324.1 628.39,-334.15 635.39,-334.05"/>
</g>
<!-- ast.Attribute object at 0x731d02169790 -->
<g id="node27" class="node">
<title>ast.Attribute object at 0x731d02169790</title>
<path fill="#66cdaa" stroke="black" d="M652,-180C652,-180 611,-180 611,-180 605,-180 599,-174 599,-168 599,-168 599,-156 599,-156 599,-150 605,-144 611,-144 611,-144 652,-144 652,-144 658,-144 664,-150 664,-156 664,-156 664,-168 664,-168 664,-174 658,-180 652,-180"/>
<text text-anchor="middle" x="631.5" y="-158.3" font-family="Times,serif" font-size="14.00">Attribute</text>
</g>
<!-- ast.Call object at 0x731d0216b6d0&#45;&gt;ast.Attribute object at 0x731d02169790 -->
<g id="edge34" class="edge">
<title>ast.Call object at 0x731d0216b6d0&#45;&gt;ast.Attribute object at 0x731d02169790</title>
<path fill="none" stroke="black" d="M631.5,-287.87C631.5,-263.67 631.5,-219.21 631.5,-190.39"/>
<polygon fill="black" stroke="black" points="635,-190.19 631.5,-180.19 628,-190.19 635,-190.19"/>
</g>
<!-- ast.Attribute object at 0x731d02169790&#45;&gt;ast.Load object at 0x731df7a5ab10 -->
<g id="edge37" class="edge">
<title>ast.Attribute object at 0x731d02169790&#45;&gt;ast.Load object at 0x731df7a5ab10</title>
<path fill="none" stroke="black" d="M625.55,-143.94C622.07,-133.62 617.73,-120.14 614.5,-108 609.04,-87.52 604.09,-64.06 600.61,-46.37"/>
<polygon fill="black" stroke="black" points="603.97,-45.34 598.64,-36.18 597.1,-46.66 603.97,-45.34"/>
</g>
<!-- ast.Name object at 0x731d0216bfd0 -->
<g id="node28" class="node">
<title>ast.Name object at 0x731d0216bfd0</title>
<path fill="#66cdaa" stroke="black" d="M665.5,-108C665.5,-108 635.5,-108 635.5,-108 629.5,-108 623.5,-102 623.5,-96 623.5,-96 623.5,-84 623.5,-84 623.5,-78 629.5,-72 635.5,-72 635.5,-72 665.5,-72 665.5,-72 671.5,-72 677.5,-78 677.5,-84 677.5,-84 677.5,-96 677.5,-96 677.5,-102 671.5,-108 665.5,-108"/>
<text text-anchor="middle" x="650.5" y="-86.3" font-family="Times,serif" font-size="14.00">Name</text>
</g>
<!-- ast.Attribute object at 0x731d02169790&#45;&gt;ast.Name object at 0x731d0216bfd0 -->
<g id="edge35" class="edge">
<title>ast.Attribute object at 0x731d02169790&#45;&gt;ast.Name object at 0x731d0216bfd0</title>
<path fill="none" stroke="black" d="M636.2,-143.7C638.31,-135.9 640.86,-126.51 643.22,-117.83"/>
<polygon fill="black" stroke="black" points="646.62,-118.67 645.86,-108.1 639.86,-116.84 646.62,-118.67"/>
</g>
<!-- ast.Name object at 0x731d0216bfd0&#45;&gt;ast.Load object at 0x731df7a5ab10 -->
<g id="edge36" class="edge">
<title>ast.Name object at 0x731d0216bfd0&#45;&gt;ast.Load object at 0x731df7a5ab10</title>
<path fill="none" stroke="black" d="M636.9,-71.7C630.38,-63.39 622.43,-53.28 615.25,-44.14"/>
<polygon fill="black" stroke="black" points="617.87,-41.81 608.94,-36.1 612.37,-46.13 617.87,-41.81"/>
</g>
<!-- ast.Call object at 0x731d0216b450 -->
<g id="node30" class="node">
<title>ast.Call object at 0x731d0216b450</title>
<path fill="#66cdaa" stroke="black" d="M724.5,-252C724.5,-252 694.5,-252 694.5,-252 688.5,-252 682.5,-246 682.5,-240 682.5,-240 682.5,-228 682.5,-228 682.5,-222 688.5,-216 694.5,-216 694.5,-216 724.5,-216 724.5,-216 730.5,-216 736.5,-222 736.5,-228 736.5,-228 736.5,-240 736.5,-240 736.5,-246 730.5,-252 724.5,-252"/>
<text text-anchor="middle" x="709.5" y="-230.3" font-family="Times,serif" font-size="14.00">Call</text>
</g>
<!-- ast.Return object at 0x731d0216a690&#45;&gt;ast.Call object at 0x731d0216b450 -->
<g id="edge39" class="edge">
<title>ast.Return object at 0x731d0216a690&#45;&gt;ast.Call object at 0x731d0216b450</title>
<path fill="none" stroke="black" d="M707.74,-359.87C708.08,-335.67 708.71,-291.21 709.11,-262.39"/>
<polygon fill="black" stroke="black" points="712.62,-262.24 709.26,-252.19 705.62,-262.14 712.62,-262.24"/>
</g>
<!-- ast.Name object at 0x731d021685d0 -->
<g id="node31" class="node">
<title>ast.Name object at 0x731d021685d0</title>
<path fill="#66cdaa" stroke="black" d="M724.5,-180C724.5,-180 694.5,-180 694.5,-180 688.5,-180 682.5,-174 682.5,-168 682.5,-168 682.5,-156 682.5,-156 682.5,-150 688.5,-144 694.5,-144 694.5,-144 724.5,-144 724.5,-144 730.5,-144 736.5,-150 736.5,-156 736.5,-156 736.5,-168 736.5,-168 736.5,-174 730.5,-180 724.5,-180"/>
<text text-anchor="middle" x="709.5" y="-158.3" font-family="Times,serif" font-size="14.00">Name</text>
</g>
<!-- ast.Call object at 0x731d0216b450&#45;&gt;ast.Name object at 0x731d021685d0 -->
<g id="edge40" class="edge">
<title>ast.Call object at 0x731d0216b450&#45;&gt;ast.Name object at 0x731d021685d0</title>
<path fill="none" stroke="black" d="M709.5,-215.7C709.5,-207.98 709.5,-198.71 709.5,-190.11"/>
<polygon fill="black" stroke="black" points="713,-190.1 709.5,-180.1 706,-190.1 713,-190.1"/>
</g>
<!-- ast.Subscript object at 0x731d02168690 -->
<g id="node32" class="node">
<title>ast.Subscript object at 0x731d02168690</title>
<path fill="#66cdaa" stroke="black" d="M817.5,-180C817.5,-180 773.5,-180 773.5,-180 767.5,-180 761.5,-174 761.5,-168 761.5,-168 761.5,-156 761.5,-156 761.5,-150 767.5,-144 773.5,-144 773.5,-144 817.5,-144 817.5,-144 823.5,-144 829.5,-150 829.5,-156 829.5,-156 829.5,-168 829.5,-168 829.5,-174 823.5,-180 817.5,-180"/>
<text text-anchor="middle" x="795.5" y="-158.3" font-family="Times,serif" font-size="14.00">Subscript</text>
</g>
<!-- ast.Call object at 0x731d0216b450&#45;&gt;ast.Subscript object at 0x731d02168690 -->
<g id="edge42" class="edge">
<title>ast.Call object at 0x731d0216b450&#45;&gt;ast.Subscript object at 0x731d02168690</title>
<path fill="none" stroke="black" d="M730.76,-215.7C741.59,-206.88 754.92,-196.03 766.66,-186.47"/>
<polygon fill="black" stroke="black" points="768.94,-189.13 774.49,-180.1 764.52,-183.7 768.94,-189.13"/>
</g>
<!-- ast.Name object at 0x731d021685d0&#45;&gt;ast.Load object at 0x731df7a5ab10 -->
<g id="edge41" class="edge">
<title>ast.Name object at 0x731d021685d0&#45;&gt;ast.Load object at 0x731df7a5ab10</title>
<path fill="none" stroke="black" d="M708.93,-143.91C707.48,-124.65 702.59,-93.25 686.5,-72 672.71,-53.8 650.72,-40.74 631.81,-32.14"/>
<polygon fill="black" stroke="black" points="633.11,-28.89 622.54,-28.16 630.35,-35.32 633.11,-28.89"/>
</g>
<!-- ast.Subscript object at 0x731d02168690&#45;&gt;ast.Load object at 0x731df7a5ab10 -->
<g id="edge46" class="edge">
<title>ast.Subscript object at 0x731d02168690&#45;&gt;ast.Load object at 0x731df7a5ab10</title>
<path fill="none" stroke="black" d="M782.14,-143.76C766.42,-124.35 738.73,-92.82 709.5,-72 685.7,-55.05 655.62,-41.33 632.33,-32.1"/>
<polygon fill="black" stroke="black" points="633.39,-28.76 622.8,-28.43 630.87,-35.29 633.39,-28.76"/>
</g>
<!-- ast.Name object at 0x731d02169bd0 -->
<g id="node33" class="node">
<title>ast.Name object at 0x731d02169bd0</title>
<path fill="#66cdaa" stroke="black" d="M813.5,-108C813.5,-108 783.5,-108 783.5,-108 777.5,-108 771.5,-102 771.5,-96 771.5,-96 771.5,-84 771.5,-84 771.5,-78 777.5,-72 783.5,-72 783.5,-72 813.5,-72 813.5,-72 819.5,-72 825.5,-78 825.5,-84 825.5,-84 825.5,-96 825.5,-96 825.5,-102 819.5,-108 813.5,-108"/>
<text text-anchor="middle" x="798.5" y="-86.3" font-family="Times,serif" font-size="14.00">Name</text>
</g>
<!-- ast.Subscript object at 0x731d02168690&#45;&gt;ast.Name object at 0x731d02169bd0 -->
<g id="edge43" class="edge">
<title>ast.Subscript object at 0x731d02168690&#45;&gt;ast.Name object at 0x731d02169bd0</title>
<path fill="none" stroke="black" d="M796.24,-143.7C796.57,-135.98 796.97,-126.71 797.34,-118.11"/>
<polygon fill="black" stroke="black" points="800.84,-118.25 797.77,-108.1 793.84,-117.95 800.84,-118.25"/>
</g>
<!-- ast.Constant object at 0x731d02168350 -->
<g id="node34" class="node">
<title>ast.Constant object at 0x731d02168350</title>
<path fill="#66cdaa" stroke="black" d="M897,-108C897,-108 856,-108 856,-108 850,-108 844,-102 844,-96 844,-96 844,-84 844,-84 844,-78 850,-72 856,-72 856,-72 897,-72 897,-72 903,-72 909,-78 909,-84 909,-84 909,-96 909,-96 909,-102 903,-108 897,-108"/>
<text text-anchor="middle" x="876.5" y="-86.3" font-family="Times,serif" font-size="14.00">Constant</text>
</g>
<!-- ast.Subscript object at 0x731d02168690&#45;&gt;ast.Constant object at 0x731d02168350 -->
<g id="edge45" class="edge">
<title>ast.Subscript object at 0x731d02168690&#45;&gt;ast.Constant object at 0x731d02168350</title>
<path fill="none" stroke="black" d="M815.52,-143.7C825.63,-134.97 838.04,-124.24 849.02,-114.75"/>
<polygon fill="black" stroke="black" points="851.43,-117.29 856.71,-108.1 846.85,-111.99 851.43,-117.29"/>
</g>
<!-- ast.Name object at 0x731d02169bd0&#45;&gt;ast.Load object at 0x731df7a5ab10 -->
<g id="edge44" class="edge">
<title>ast.Name object at 0x731d02169bd0&#45;&gt;ast.Load object at 0x731df7a5ab10</title>
<path fill="none" stroke="black" d="M771.27,-77.37C766.7,-75.51 761.98,-73.66 757.5,-72 715,-56.26 665.37,-40.39 632.35,-30.17"/>
<polygon fill="black" stroke="black" points="633.25,-26.78 622.66,-27.19 631.19,-33.47 633.25,-26.78"/>
</g>
<!-- ast.Name object at 0x731d021690d0&#45;&gt;ast.Load object at 0x731df7a5ab10 -->
<g id="edge48" class="edge">
<title>ast.Name object at 0x731d021690d0&#45;&gt;ast.Load object at 0x731df7a5ab10</title>
<path fill="none" stroke="black" d="M862.51,-359.88C891.13,-335.5 937.5,-287.84 937.5,-235 937.5,-235 937.5,-235 937.5,-161 937.5,-120.55 947.77,-99.91 918.5,-72 877.99,-33.38 708.58,-22.81 632.62,-19.99"/>
<polygon fill="black" stroke="black" points="632.66,-16.49 622.55,-19.65 632.42,-23.49 632.66,-16.49"/>
</g>
</g>
</svg>
