<?xml version="1.0" encoding="UTF-8" standalone="no"?>
<!DOCTYPE svg PUBLIC "-//W3C//DTD SVG 1.1//EN"
 "http://www.w3.org/Graphics/SVG/1.1/DTD/svg11.dtd">
<!-- Generated by graphviz version 2.50.0 (0)
 -->
<!-- Pages: 1 -->
<svg width="2258pt" height="692pt"
 viewBox="0.00 0.00 2257.50 692.00" xmlns="http://www.w3.org/2000/svg" xmlns:xlink="http://www.w3.org/1999/xlink">
<g id="graph0" class="graph" transform="scale(1 1) rotate(0) translate(4 688)">
<polygon fill="white" stroke="transparent" points="-4,4 -4,-688 2253.5,-688 2253.5,4 -4,4"/>
<!-- ast.Module object at 0x740761e71890 -->
<g id="node1" class="node">
<title>ast.Module object at 0x740761e71890</title>
<path fill="#66cdaa" stroke="black" d="M963,-684C963,-684 928,-684 928,-684 922,-684 916,-678 916,-672 916,-672 916,-660 916,-660 916,-654 922,-648 928,-648 928,-648 963,-648 963,-648 969,-648 975,-654 975,-660 975,-660 975,-672 975,-672 975,-678 969,-684 963,-684"/>
<text text-anchor="middle" x="945.5" y="-662.3" font-family="Times,serif" font-size="14.00">Module</text>
</g>
<!-- ast.FunctionDef object at 0x740762e1aa50 -->
<g id="node2" class="node">
<title>ast.FunctionDef object at 0x740762e1aa50</title>
<path fill="#66cdaa" stroke="black" d="M976,-612C976,-612 915,-612 915,-612 909,-612 903,-606 903,-600 903,-600 903,-588 903,-588 903,-582 909,-576 915,-576 915,-576 976,-576 976,-576 982,-576 988,-582 988,-588 988,-588 988,-600 988,-600 988,-606 982,-612 976,-612"/>
<text text-anchor="middle" x="945.5" y="-590.3" font-family="Times,serif" font-size="14.00">FunctionDef</text>
</g>
<!-- ast.Module object at 0x740761e71890&#45;&gt;ast.FunctionDef object at 0x740762e1aa50 -->
<g id="edge1" class="edge">
<title>ast.Module object at 0x740761e71890&#45;&gt;ast.FunctionDef object at 0x740762e1aa50</title>
<path fill="none" stroke="black" d="M945.5,-647.7C945.5,-639.98 945.5,-630.71 945.5,-622.11"/>
<polygon fill="black" stroke="black" points="949,-622.1 945.5,-612.1 942,-622.1 949,-622.1"/>
</g>
<!-- ast.arguments object at 0x740763759a90 -->
<g id="node3" class="node">
<title>ast.arguments object at 0x740763759a90</title>
<path fill="#66cdaa" stroke="black" d="M624.5,-540C624.5,-540 574.5,-540 574.5,-540 568.5,-540 562.5,-534 562.5,-528 562.5,-528 562.5,-516 562.5,-516 562.5,-510 568.5,-504 574.5,-504 574.5,-504 624.5,-504 624.5,-504 630.5,-504 636.5,-510 636.5,-516 636.5,-516 636.5,-528 636.5,-528 636.5,-534 630.5,-540 624.5,-540"/>
<text text-anchor="middle" x="599.5" y="-518.3" font-family="Times,serif" font-size="14.00">arguments</text>
</g>
<!-- ast.FunctionDef object at 0x740762e1aa50&#45;&gt;ast.arguments object at 0x740763759a90 -->
<g id="edge2" class="edge">
<title>ast.FunctionDef object at 0x740762e1aa50&#45;&gt;ast.arguments object at 0x740763759a90</title>
<path fill="none" stroke="black" d="M902.59,-587.27C844.79,-579.1 738.99,-562.57 650.5,-540 649.23,-539.68 647.94,-539.34 646.65,-538.98"/>
<polygon fill="black" stroke="black" points="647.22,-535.5 636.64,-536.07 645.26,-542.22 647.22,-535.5"/>
</g>
<!-- ast.Assign object at 0x740763db7190 -->
<g id="node5" class="node">
<title>ast.Assign object at 0x740763db7190</title>
<path fill="#66cdaa" stroke="black" d="M1060.5,-396C1060.5,-396 1030.5,-396 1030.5,-396 1024.5,-396 1018.5,-390 1018.5,-384 1018.5,-384 1018.5,-372 1018.5,-372 1018.5,-366 1024.5,-360 1030.5,-360 1030.5,-360 1060.5,-360 1060.5,-360 1066.5,-360 1072.5,-366 1072.5,-372 1072.5,-372 1072.5,-384 1072.5,-384 1072.5,-390 1066.5,-396 1060.5,-396"/>
<text text-anchor="middle" x="1045.5" y="-374.3" font-family="Times,serif" font-size="14.00">Assign</text>
</g>
<!-- ast.FunctionDef object at 0x740762e1aa50&#45;&gt;ast.Assign object at 0x740763db7190 -->
<g id="edge4" class="edge">
<title>ast.FunctionDef object at 0x740762e1aa50&#45;&gt;ast.Assign object at 0x740763db7190</title>
<path fill="none" stroke="black" d="M953.51,-575.85C970.92,-538.6 1012.29,-450.07 1033.1,-405.54"/>
<polygon fill="black" stroke="black" points="1036.38,-406.77 1037.45,-396.23 1030.04,-403.81 1036.38,-406.77"/>
</g>
<!-- ast.Assign object at 0x74076227b150 -->
<g id="node12" class="node">
<title>ast.Assign object at 0x74076227b150</title>
<path fill="#66cdaa" stroke="black" d="M1352.5,-396C1352.5,-396 1322.5,-396 1322.5,-396 1316.5,-396 1310.5,-390 1310.5,-384 1310.5,-384 1310.5,-372 1310.5,-372 1310.5,-366 1316.5,-360 1322.5,-360 1322.5,-360 1352.5,-360 1352.5,-360 1358.5,-360 1364.5,-366 1364.5,-372 1364.5,-372 1364.5,-384 1364.5,-384 1364.5,-390 1358.5,-396 1352.5,-396"/>
<text text-anchor="middle" x="1337.5" y="-374.3" font-family="Times,serif" font-size="14.00">Assign</text>
</g>
<!-- ast.FunctionDef object at 0x740762e1aa50&#45;&gt;ast.Assign object at 0x74076227b150 -->
<g id="edge12" class="edge">
<title>ast.FunctionDef object at 0x740762e1aa50&#45;&gt;ast.Assign object at 0x74076227b150</title>
<path fill="none" stroke="black" d="M988.06,-588.34C1033.97,-582.08 1108.3,-568.28 1166.5,-540 1232.71,-507.83 1290.57,-440.97 1318.94,-404.34"/>
<polygon fill="black" stroke="black" points="1321.9,-406.22 1325.18,-396.15 1316.34,-401.98 1321.9,-406.22"/>
</g>
<!-- ast.If object at 0x740762fa3710 -->
<g id="node17" class="node">
<title>ast.If object at 0x740762fa3710</title>
<path fill="#66cdaa" stroke="black" d="M245.5,-324C245.5,-324 215.5,-324 215.5,-324 209.5,-324 203.5,-318 203.5,-312 203.5,-312 203.5,-300 203.5,-300 203.5,-294 209.5,-288 215.5,-288 215.5,-288 245.5,-288 245.5,-288 251.5,-288 257.5,-294 257.5,-300 257.5,-300 257.5,-312 257.5,-312 257.5,-318 251.5,-324 245.5,-324"/>
<text text-anchor="middle" x="230.5" y="-302.3" font-family="Times,serif" font-size="14.00">If</text>
</g>
<!-- ast.FunctionDef object at 0x740762e1aa50&#45;&gt;ast.If object at 0x740762fa3710 -->
<g id="edge20" class="edge">
<title>ast.FunctionDef object at 0x740762e1aa50&#45;&gt;ast.If object at 0x740762fa3710</title>
<path fill="none" stroke="black" d="M914.29,-575.88C847.29,-539.27 691.26,-454.87 635.5,-432 503.77,-377.98 339.81,-334.21 267.59,-316.06"/>
<polygon fill="black" stroke="black" points="268.17,-312.59 257.62,-313.57 266.47,-319.38 268.17,-312.59"/>
</g>
<!-- ast.Assign object at 0x740763f97a10 -->
<g id="node30" class="node">
<title>ast.Assign object at 0x740763f97a10</title>
<path fill="#66cdaa" stroke="black" d="M988.5,-396C988.5,-396 958.5,-396 958.5,-396 952.5,-396 946.5,-390 946.5,-384 946.5,-384 946.5,-372 946.5,-372 946.5,-366 952.5,-360 958.5,-360 958.5,-360 988.5,-360 988.5,-360 994.5,-360 1000.5,-366 1000.5,-372 1000.5,-372 1000.5,-384 1000.5,-384 1000.5,-390 994.5,-396 988.5,-396"/>
<text text-anchor="middle" x="973.5" y="-374.3" font-family="Times,serif" font-size="14.00">Assign</text>
</g>
<!-- ast.FunctionDef object at 0x740762e1aa50&#45;&gt;ast.Assign object at 0x740763f97a10 -->
<g id="edge35" class="edge">
<title>ast.FunctionDef object at 0x740762e1aa50&#45;&gt;ast.Assign object at 0x740763f97a10</title>
<path fill="none" stroke="black" d="M947.74,-575.85C952.59,-538.83 964.06,-451.18 969.92,-406.39"/>
<polygon fill="black" stroke="black" points="973.42,-406.6 971.25,-396.23 966.48,-405.69 973.42,-406.6"/>
</g>
<!-- ast.Assign object at 0x740763f979d0 -->
<g id="node40" class="node">
<title>ast.Assign object at 0x740763f979d0</title>
<path fill="#66cdaa" stroke="black" d="M734.5,-396C734.5,-396 704.5,-396 704.5,-396 698.5,-396 692.5,-390 692.5,-384 692.5,-384 692.5,-372 692.5,-372 692.5,-366 698.5,-360 704.5,-360 704.5,-360 734.5,-360 734.5,-360 740.5,-360 746.5,-366 746.5,-372 746.5,-372 746.5,-384 746.5,-384 746.5,-390 740.5,-396 734.5,-396"/>
<text text-anchor="middle" x="719.5" y="-374.3" font-family="Times,serif" font-size="14.00">Assign</text>
</g>
<!-- ast.FunctionDef object at 0x740762e1aa50&#45;&gt;ast.Assign object at 0x740763f979d0 -->
<g id="edge51" class="edge">
<title>ast.FunctionDef object at 0x740762e1aa50&#45;&gt;ast.Assign object at 0x740763f979d0</title>
<path fill="none" stroke="black" d="M927.39,-575.85C887.39,-537.97 791.39,-447.08 745.2,-403.33"/>
<polygon fill="black" stroke="black" points="747.37,-400.57 737.7,-396.23 742.55,-405.65 747.37,-400.57"/>
</g>
<!-- ast.Assign object at 0x740763f94e50 -->
<g id="node49" class="node">
<title>ast.Assign object at 0x740763f94e50</title>
<path fill="#66cdaa" stroke="black" d="M844.5,-396C844.5,-396 814.5,-396 814.5,-396 808.5,-396 802.5,-390 802.5,-384 802.5,-384 802.5,-372 802.5,-372 802.5,-366 808.5,-360 814.5,-360 814.5,-360 844.5,-360 844.5,-360 850.5,-360 856.5,-366 856.5,-372 856.5,-372 856.5,-384 856.5,-384 856.5,-390 850.5,-396 844.5,-396"/>
<text text-anchor="middle" x="829.5" y="-374.3" font-family="Times,serif" font-size="14.00">Assign</text>
</g>
<!-- ast.FunctionDef object at 0x740762e1aa50&#45;&gt;ast.Assign object at 0x740763f94e50 -->
<g id="edge64" class="edge">
<title>ast.FunctionDef object at 0x740762e1aa50&#45;&gt;ast.Assign object at 0x740763f94e50</title>
<path fill="none" stroke="black" d="M936.2,-575.85C915.97,-538.52 867.82,-449.69 843.73,-405.26"/>
<polygon fill="black" stroke="black" points="846.68,-403.36 838.84,-396.23 840.53,-406.69 846.68,-403.36"/>
</g>
<!-- ast.If object at 0x740763f97090 -->
<g id="node54" class="node">
<title>ast.If object at 0x740763f97090</title>
<path fill="#66cdaa" stroke="black" d="M1145.5,-540C1145.5,-540 1115.5,-540 1115.5,-540 1109.5,-540 1103.5,-534 1103.5,-528 1103.5,-528 1103.5,-516 1103.5,-516 1103.5,-510 1109.5,-504 1115.5,-504 1115.5,-504 1145.5,-504 1145.5,-504 1151.5,-504 1157.5,-510 1157.5,-516 1157.5,-516 1157.5,-528 1157.5,-528 1157.5,-534 1151.5,-540 1145.5,-540"/>
<text text-anchor="middle" x="1130.5" y="-518.3" font-family="Times,serif" font-size="14.00">If</text>
</g>
<!-- ast.FunctionDef object at 0x740762e1aa50&#45;&gt;ast.If object at 0x740763f97090 -->
<g id="edge73" class="edge">
<title>ast.FunctionDef object at 0x740762e1aa50&#45;&gt;ast.If object at 0x740763f97090</title>
<path fill="none" stroke="black" d="M988.41,-576.76C1020.38,-564.67 1063.59,-548.32 1093.93,-536.84"/>
<polygon fill="black" stroke="black" points="1095.19,-540.1 1103.3,-533.29 1092.71,-533.56 1095.19,-540.1"/>
</g>
<!-- ast.Assign object at 0x740762f0d0d0 -->
<g id="node60" class="node">
<title>ast.Assign object at 0x740762f0d0d0</title>
<path fill="#66cdaa" stroke="black" d="M916.5,-396C916.5,-396 886.5,-396 886.5,-396 880.5,-396 874.5,-390 874.5,-384 874.5,-384 874.5,-372 874.5,-372 874.5,-366 880.5,-360 886.5,-360 886.5,-360 916.5,-360 916.5,-360 922.5,-360 928.5,-366 928.5,-372 928.5,-372 928.5,-384 928.5,-384 928.5,-390 922.5,-396 916.5,-396"/>
<text text-anchor="middle" x="901.5" y="-374.3" font-family="Times,serif" font-size="14.00">Assign</text>
</g>
<!-- ast.FunctionDef object at 0x740762e1aa50&#45;&gt;ast.Assign object at 0x740762f0d0d0 -->
<g id="edge80" class="edge">
<title>ast.FunctionDef object at 0x740762e1aa50&#45;&gt;ast.Assign object at 0x740762f0d0d0</title>
<path fill="none" stroke="black" d="M941.97,-575.85C934.35,-538.75 916.26,-450.81 907.07,-406.1"/>
<polygon fill="black" stroke="black" points="910.49,-405.32 905.04,-396.23 903.63,-406.73 910.49,-405.32"/>
</g>
<!-- ast.If object at 0x740763f9aad0 -->
<g id="node65" class="node">
<title>ast.If object at 0x740763f9aad0</title>
<path fill="#66cdaa" stroke="black" d="M1700.5,-540C1700.5,-540 1670.5,-540 1670.5,-540 1664.5,-540 1658.5,-534 1658.5,-528 1658.5,-528 1658.5,-516 1658.5,-516 1658.5,-510 1664.5,-504 1670.5,-504 1670.5,-504 1700.5,-504 1700.5,-504 1706.5,-504 1712.5,-510 1712.5,-516 1712.5,-516 1712.5,-528 1712.5,-528 1712.5,-534 1706.5,-540 1700.5,-540"/>
<text text-anchor="middle" x="1685.5" y="-518.3" font-family="Times,serif" font-size="14.00">If</text>
</g>
<!-- ast.FunctionDef object at 0x740762e1aa50&#45;&gt;ast.If object at 0x740763f9aad0 -->
<g id="edge88" class="edge">
<title>ast.FunctionDef object at 0x740762e1aa50&#45;&gt;ast.If object at 0x740763f9aad0</title>
<path fill="none" stroke="black" d="M988.21,-588.96C1120.7,-576.43 1523.28,-538.35 1648.15,-526.53"/>
<polygon fill="black" stroke="black" points="1648.72,-529.99 1658.35,-525.57 1648.07,-523.03 1648.72,-529.99"/>
</g>
<!-- ast.arg object at 0x740762b39750 -->
<g id="node4" class="node">
<title>ast.arg object at 0x740762b39750</title>
<path fill="#66cdaa" stroke="black" d="M614.5,-468C614.5,-468 584.5,-468 584.5,-468 578.5,-468 572.5,-462 572.5,-456 572.5,-456 572.5,-444 572.5,-444 572.5,-438 578.5,-432 584.5,-432 584.5,-432 614.5,-432 614.5,-432 620.5,-432 626.5,-438 626.5,-444 626.5,-444 626.5,-456 626.5,-456 626.5,-462 620.5,-468 614.5,-468"/>
<text text-anchor="middle" x="599.5" y="-446.3" font-family="Times,serif" font-size="14.00">arg</text>
</g>
<!-- ast.arguments object at 0x740763759a90&#45;&gt;ast.arg object at 0x740762b39750 -->
<g id="edge3" class="edge">
<title>ast.arguments object at 0x740763759a90&#45;&gt;ast.arg object at 0x740762b39750</title>
<path fill="none" stroke="black" d="M599.5,-503.7C599.5,-495.98 599.5,-486.71 599.5,-478.11"/>
<polygon fill="black" stroke="black" points="603,-478.1 599.5,-468.1 596,-478.1 603,-478.1"/>
</g>
<!-- ast.Name object at 0x740763db6e50 -->
<g id="node6" class="node">
<title>ast.Name object at 0x740763db6e50</title>
<path fill="#66cdaa" stroke="black" d="M1060.5,-324C1060.5,-324 1030.5,-324 1030.5,-324 1024.5,-324 1018.5,-318 1018.5,-312 1018.5,-312 1018.5,-300 1018.5,-300 1018.5,-294 1024.5,-288 1030.5,-288 1030.5,-288 1060.5,-288 1060.5,-288 1066.5,-288 1072.5,-294 1072.5,-300 1072.5,-300 1072.5,-312 1072.5,-312 1072.5,-318 1066.5,-324 1060.5,-324"/>
<text text-anchor="middle" x="1045.5" y="-302.3" font-family="Times,serif" font-size="14.00">Name</text>
</g>
<!-- ast.Assign object at 0x740763db7190&#45;&gt;ast.Name object at 0x740763db6e50 -->
<g id="edge5" class="edge">
<title>ast.Assign object at 0x740763db7190&#45;&gt;ast.Name object at 0x740763db6e50</title>
<path fill="none" stroke="black" d="M1045.5,-359.7C1045.5,-351.98 1045.5,-342.71 1045.5,-334.11"/>
<polygon fill="black" stroke="black" points="1049,-334.1 1045.5,-324.1 1042,-334.1 1049,-334.1"/>
</g>
<!-- ast.Subscript object at 0x74075e3ff0d0 -->
<g id="node8" class="node">
<title>ast.Subscript object at 0x74075e3ff0d0</title>
<path fill="#66cdaa" stroke="black" d="M1365.5,-180C1365.5,-180 1321.5,-180 1321.5,-180 1315.5,-180 1309.5,-174 1309.5,-168 1309.5,-168 1309.5,-156 1309.5,-156 1309.5,-150 1315.5,-144 1321.5,-144 1321.5,-144 1365.5,-144 1365.5,-144 1371.5,-144 1377.5,-150 1377.5,-156 1377.5,-156 1377.5,-168 1377.5,-168 1377.5,-174 1371.5,-180 1365.5,-180"/>
<text text-anchor="middle" x="1343.5" y="-158.3" font-family="Times,serif" font-size="14.00">Subscript</text>
</g>
<!-- ast.Assign object at 0x740763db7190&#45;&gt;ast.Subscript object at 0x74075e3ff0d0 -->
<g id="edge7" class="edge">
<title>ast.Assign object at 0x740763db7190&#45;&gt;ast.Subscript object at 0x74075e3ff0d0</title>
<path fill="none" stroke="black" d="M1072.62,-365.71C1077.85,-363.7 1083.31,-361.7 1088.5,-360 1148.32,-340.39 1173.46,-359.42 1225.5,-324 1276.3,-289.42 1313.34,-225.5 1331.31,-189.47"/>
<polygon fill="black" stroke="black" points="1334.64,-190.62 1335.87,-180.1 1328.35,-187.56 1334.64,-190.62"/>
</g>
<!-- ast.Store object at 0x7408da337a90 -->
<g id="node7" class="node">
<title>ast.Store object at 0x7408da337a90</title>
<path fill="#66cdaa" stroke="black" d="M934.5,-252C934.5,-252 904.5,-252 904.5,-252 898.5,-252 892.5,-246 892.5,-240 892.5,-240 892.5,-228 892.5,-228 892.5,-222 898.5,-216 904.5,-216 904.5,-216 934.5,-216 934.5,-216 940.5,-216 946.5,-222 946.5,-228 946.5,-228 946.5,-240 946.5,-240 946.5,-246 940.5,-252 934.5,-252"/>
<text text-anchor="middle" x="919.5" y="-230.3" font-family="Times,serif" font-size="14.00">Store</text>
</g>
<!-- ast.Name object at 0x740763db6e50&#45;&gt;ast.Store object at 0x7408da337a90 -->
<g id="edge6" class="edge">
<title>ast.Name object at 0x740763db6e50&#45;&gt;ast.Store object at 0x7408da337a90</title>
<path fill="none" stroke="black" d="M1018.47,-289.98C1000.16,-279.81 975.75,-266.25 955.76,-255.14"/>
<polygon fill="black" stroke="black" points="957.36,-252.03 946.92,-250.23 953.96,-258.15 957.36,-252.03"/>
</g>
<!-- ast.Name object at 0x740763938750 -->
<g id="node9" class="node">
<title>ast.Name object at 0x740763938750</title>
<path fill="#66cdaa" stroke="black" d="M1397.5,-108C1397.5,-108 1367.5,-108 1367.5,-108 1361.5,-108 1355.5,-102 1355.5,-96 1355.5,-96 1355.5,-84 1355.5,-84 1355.5,-78 1361.5,-72 1367.5,-72 1367.5,-72 1397.5,-72 1397.5,-72 1403.5,-72 1409.5,-78 1409.5,-84 1409.5,-84 1409.5,-96 1409.5,-96 1409.5,-102 1403.5,-108 1397.5,-108"/>
<text text-anchor="middle" x="1382.5" y="-86.3" font-family="Times,serif" font-size="14.00">Name</text>
</g>
<!-- ast.Subscript object at 0x74075e3ff0d0&#45;&gt;ast.Name object at 0x740763938750 -->
<g id="edge8" class="edge">
<title>ast.Subscript object at 0x74075e3ff0d0&#45;&gt;ast.Name object at 0x740763938750</title>
<path fill="none" stroke="black" d="M1353.14,-143.7C1357.63,-135.64 1363.06,-125.89 1368.02,-116.98"/>
<polygon fill="black" stroke="black" points="1371.16,-118.54 1372.97,-108.1 1365.05,-115.14 1371.16,-118.54"/>
</g>
<!-- ast.Load object at 0x7408da337a10 -->
<g id="node10" class="node">
<title>ast.Load object at 0x7408da337a10</title>
<path fill="#66cdaa" stroke="black" d="M1239.5,-36C1239.5,-36 1209.5,-36 1209.5,-36 1203.5,-36 1197.5,-30 1197.5,-24 1197.5,-24 1197.5,-12 1197.5,-12 1197.5,-6 1203.5,0 1209.5,0 1209.5,0 1239.5,0 1239.5,0 1245.5,0 1251.5,-6 1251.5,-12 1251.5,-12 1251.5,-24 1251.5,-24 1251.5,-30 1245.5,-36 1239.5,-36"/>
<text text-anchor="middle" x="1224.5" y="-14.3" font-family="Times,serif" font-size="14.00">Load</text>
</g>
<!-- ast.Subscript object at 0x74075e3ff0d0&#45;&gt;ast.Load object at 0x7408da337a10 -->
<g id="edge11" class="edge">
<title>ast.Subscript object at 0x74075e3ff0d0&#45;&gt;ast.Load object at 0x7408da337a10</title>
<path fill="none" stroke="black" d="M1377.84,-145.97C1393.24,-137.27 1409.85,-124.71 1418.5,-108 1425.86,-93.79 1428.21,-84.72 1418.5,-72 1399.57,-47.21 1312.55,-31.2 1261.71,-23.8"/>
<polygon fill="black" stroke="black" points="1262.15,-20.32 1251.76,-22.39 1261.17,-27.26 1262.15,-20.32"/>
</g>
<!-- ast.Constant object at 0x74075d7ef850 -->
<g id="node11" class="node">
<title>ast.Constant object at 0x74075d7ef850</title>
<path fill="#66cdaa" stroke="black" d="M1325,-108C1325,-108 1284,-108 1284,-108 1278,-108 1272,-102 1272,-96 1272,-96 1272,-84 1272,-84 1272,-78 1278,-72 1284,-72 1284,-72 1325,-72 1325,-72 1331,-72 1337,-78 1337,-84 1337,-84 1337,-96 1337,-96 1337,-102 1331,-108 1325,-108"/>
<text text-anchor="middle" x="1304.5" y="-86.3" font-family="Times,serif" font-size="14.00">Constant</text>
</g>
<!-- ast.Subscript object at 0x74075e3ff0d0&#45;&gt;ast.Constant object at 0x74075d7ef850 -->
<g id="edge10" class="edge">
<title>ast.Subscript object at 0x74075e3ff0d0&#45;&gt;ast.Constant object at 0x74075d7ef850</title>
<path fill="none" stroke="black" d="M1333.86,-143.7C1329.37,-135.64 1323.94,-125.89 1318.98,-116.98"/>
<polygon fill="black" stroke="black" points="1321.95,-115.14 1314.03,-108.1 1315.84,-118.54 1321.95,-115.14"/>
</g>
<!-- ast.Name object at 0x740763938750&#45;&gt;ast.Load object at 0x7408da337a10 -->
<g id="edge9" class="edge">
<title>ast.Name object at 0x740763938750&#45;&gt;ast.Load object at 0x7408da337a10</title>
<path fill="none" stroke="black" d="M1355.45,-76.5C1352.1,-74.98 1348.72,-73.45 1345.5,-72 1317.36,-59.38 1285.4,-45.39 1261.39,-34.96"/>
<polygon fill="black" stroke="black" points="1262.52,-31.63 1251.95,-30.86 1259.73,-38.05 1262.52,-31.63"/>
</g>
<!-- ast.Name object at 0x740763986a50 -->
<g id="node13" class="node">
<title>ast.Name object at 0x740763986a50</title>
<path fill="#66cdaa" stroke="black" d="M1132.5,-324C1132.5,-324 1102.5,-324 1102.5,-324 1096.5,-324 1090.5,-318 1090.5,-312 1090.5,-312 1090.5,-300 1090.5,-300 1090.5,-294 1096.5,-288 1102.5,-288 1102.5,-288 1132.5,-288 1132.5,-288 1138.5,-288 1144.5,-294 1144.5,-300 1144.5,-300 1144.5,-312 1144.5,-312 1144.5,-318 1138.5,-324 1132.5,-324"/>
<text text-anchor="middle" x="1117.5" y="-302.3" font-family="Times,serif" font-size="14.00">Name</text>
</g>
<!-- ast.Assign object at 0x74076227b150&#45;&gt;ast.Name object at 0x740763986a50 -->
<g id="edge13" class="edge">
<title>ast.Assign object at 0x74076227b150&#45;&gt;ast.Name object at 0x740763986a50</title>
<path fill="none" stroke="black" d="M1310.24,-370.61C1275.77,-362.21 1214.56,-346.27 1154.45,-324.07"/>
<polygon fill="black" stroke="black" points="1155.41,-320.69 1144.82,-320.46 1152.95,-327.25 1155.41,-320.69"/>
</g>
<!-- ast.Subscript object at 0x740763bf2a90 -->
<g id="node14" class="node">
<title>ast.Subscript object at 0x740763bf2a90</title>
<path fill="#66cdaa" stroke="black" d="M2159.5,-180C2159.5,-180 2115.5,-180 2115.5,-180 2109.5,-180 2103.5,-174 2103.5,-168 2103.5,-168 2103.5,-156 2103.5,-156 2103.5,-150 2109.5,-144 2115.5,-144 2115.5,-144 2159.5,-144 2159.5,-144 2165.5,-144 2171.5,-150 2171.5,-156 2171.5,-156 2171.5,-168 2171.5,-168 2171.5,-174 2165.5,-180 2159.5,-180"/>
<text text-anchor="middle" x="2137.5" y="-158.3" font-family="Times,serif" font-size="14.00">Subscript</text>
</g>
<!-- ast.Assign object at 0x74076227b150&#45;&gt;ast.Subscript object at 0x740763bf2a90 -->
<g id="edge15" class="edge">
<title>ast.Assign object at 0x74076227b150&#45;&gt;ast.Subscript object at 0x740763bf2a90</title>
<path fill="none" stroke="black" d="M1364.63,-374.92C1480.8,-365.65 1935.84,-325.17 2056.5,-252 2082.95,-235.96 2105.91,-208.69 2120.56,-188.56"/>
<polygon fill="black" stroke="black" points="2123.59,-190.34 2126.5,-180.15 2117.87,-186.3 2123.59,-190.34"/>
</g>
<!-- ast.Name object at 0x740763986a50&#45;&gt;ast.Store object at 0x7408da337a90 -->
<g id="edge14" class="edge">
<title>ast.Name object at 0x740763986a50&#45;&gt;ast.Store object at 0x7408da337a90</title>
<path fill="none" stroke="black" d="M1090.14,-291.65C1087.24,-290.36 1084.33,-289.12 1081.5,-288 1069.67,-283.29 1000.54,-260.96 956.49,-246.83"/>
<polygon fill="black" stroke="black" points="957.28,-243.41 946.69,-243.69 955.14,-250.08 957.28,-243.41"/>
</g>
<!-- ast.Subscript object at 0x740763bf2a90&#45;&gt;ast.Load object at 0x7408da337a10 -->
<g id="edge19" class="edge">
<title>ast.Subscript object at 0x740763bf2a90&#45;&gt;ast.Load object at 0x7408da337a10</title>
<path fill="none" stroke="black" d="M2146.71,-143.78C2155.98,-123.79 2166.56,-91.13 2148.5,-72 2117.55,-39.22 1430.67,-23.18 1261.76,-19.72"/>
<polygon fill="black" stroke="black" points="1261.69,-16.22 1251.62,-19.52 1261.55,-23.22 1261.69,-16.22"/>
</g>
<!-- ast.Name object at 0x74075e336e50 -->
<g id="node15" class="node">
<title>ast.Name object at 0x74075e336e50</title>
<path fill="#66cdaa" stroke="black" d="M2237.5,-108C2237.5,-108 2207.5,-108 2207.5,-108 2201.5,-108 2195.5,-102 2195.5,-96 2195.5,-96 2195.5,-84 2195.5,-84 2195.5,-78 2201.5,-72 2207.5,-72 2207.5,-72 2237.5,-72 2237.5,-72 2243.5,-72 2249.5,-78 2249.5,-84 2249.5,-84 2249.5,-96 2249.5,-96 2249.5,-102 2243.5,-108 2237.5,-108"/>
<text text-anchor="middle" x="2222.5" y="-86.3" font-family="Times,serif" font-size="14.00">Name</text>
</g>
<!-- ast.Subscript object at 0x740763bf2a90&#45;&gt;ast.Name object at 0x74075e336e50 -->
<g id="edge16" class="edge">
<title>ast.Subscript object at 0x740763bf2a90&#45;&gt;ast.Name object at 0x74075e336e50</title>
<path fill="none" stroke="black" d="M2158.51,-143.7C2169.22,-134.88 2182.39,-124.03 2194,-114.47"/>
<polygon fill="black" stroke="black" points="2196.24,-117.16 2201.73,-108.1 2191.79,-111.76 2196.24,-117.16"/>
</g>
<!-- ast.Constant object at 0x740762e27890 -->
<g id="node16" class="node">
<title>ast.Constant object at 0x740762e27890</title>
<path fill="#66cdaa" stroke="black" d="M2127,-108C2127,-108 2086,-108 2086,-108 2080,-108 2074,-102 2074,-96 2074,-96 2074,-84 2074,-84 2074,-78 2080,-72 2086,-72 2086,-72 2127,-72 2127,-72 2133,-72 2139,-78 2139,-84 2139,-84 2139,-96 2139,-96 2139,-102 2133,-108 2127,-108"/>
<text text-anchor="middle" x="2106.5" y="-86.3" font-family="Times,serif" font-size="14.00">Constant</text>
</g>
<!-- ast.Subscript object at 0x740763bf2a90&#45;&gt;ast.Constant object at 0x740762e27890 -->
<g id="edge18" class="edge">
<title>ast.Subscript object at 0x740763bf2a90&#45;&gt;ast.Constant object at 0x740762e27890</title>
<path fill="none" stroke="black" d="M2129.84,-143.7C2126.31,-135.73 2122.04,-126.1 2118.13,-117.26"/>
<polygon fill="black" stroke="black" points="2121.32,-115.83 2114.07,-108.1 2114.92,-118.67 2121.32,-115.83"/>
</g>
<!-- ast.Name object at 0x74075e336e50&#45;&gt;ast.Load object at 0x7408da337a10 -->
<g id="edge17" class="edge">
<title>ast.Name object at 0x74075e336e50&#45;&gt;ast.Load object at 0x7408da337a10</title>
<path fill="none" stroke="black" d="M2195.13,-76.17C2190.65,-74.51 2186.01,-73.03 2181.5,-72 2001.88,-31.04 1416.97,-21.29 1262.3,-19.4"/>
<polygon fill="black" stroke="black" points="1261.96,-15.89 1251.92,-19.27 1261.88,-22.89 1261.96,-15.89"/>
</g>
<!-- ast.Compare object at 0x74076194d490 -->
<g id="node18" class="node">
<title>ast.Compare object at 0x74076194d490</title>
<path fill="#66cdaa" stroke="black" d="M252,-252C252,-252 209,-252 209,-252 203,-252 197,-246 197,-240 197,-240 197,-228 197,-228 197,-222 203,-216 209,-216 209,-216 252,-216 252,-216 258,-216 264,-222 264,-228 264,-228 264,-240 264,-240 264,-246 258,-252 252,-252"/>
<text text-anchor="middle" x="230.5" y="-230.3" font-family="Times,serif" font-size="14.00">Compare</text>
</g>
<!-- ast.If object at 0x740762fa3710&#45;&gt;ast.Compare object at 0x74076194d490 -->
<g id="edge21" class="edge">
<title>ast.If object at 0x740762fa3710&#45;&gt;ast.Compare object at 0x74076194d490</title>
<path fill="none" stroke="black" d="M230.5,-287.7C230.5,-279.98 230.5,-270.71 230.5,-262.11"/>
<polygon fill="black" stroke="black" points="234,-262.1 230.5,-252.1 227,-262.1 234,-262.1"/>
</g>
<!-- ast.Return object at 0x740763f97250 -->
<g id="node28" class="node">
<title>ast.Return object at 0x740763f97250</title>
<path fill="#66cdaa" stroke="black" d="M130.5,-252C130.5,-252 100.5,-252 100.5,-252 94.5,-252 88.5,-246 88.5,-240 88.5,-240 88.5,-228 88.5,-228 88.5,-222 94.5,-216 100.5,-216 100.5,-216 130.5,-216 130.5,-216 136.5,-216 142.5,-222 142.5,-228 142.5,-228 142.5,-240 142.5,-240 142.5,-246 136.5,-252 130.5,-252"/>
<text text-anchor="middle" x="115.5" y="-230.3" font-family="Times,serif" font-size="14.00">Return</text>
</g>
<!-- ast.If object at 0x740762fa3710&#45;&gt;ast.Return object at 0x740763f97250 -->
<g id="edge33" class="edge">
<title>ast.If object at 0x740762fa3710&#45;&gt;ast.Return object at 0x740763f97250</title>
<path fill="none" stroke="black" d="M203.25,-288.41C187.78,-279 168.23,-267.1 151.51,-256.92"/>
<polygon fill="black" stroke="black" points="152.92,-253.68 142.56,-251.47 149.28,-259.66 152.92,-253.68"/>
</g>
<!-- ast.BinOp object at 0x740763c22610 -->
<g id="node19" class="node">
<title>ast.BinOp object at 0x740763c22610</title>
<path fill="#66cdaa" stroke="black" d="M424.5,-180C424.5,-180 394.5,-180 394.5,-180 388.5,-180 382.5,-174 382.5,-168 382.5,-168 382.5,-156 382.5,-156 382.5,-150 388.5,-144 394.5,-144 394.5,-144 424.5,-144 424.5,-144 430.5,-144 436.5,-150 436.5,-156 436.5,-156 436.5,-168 436.5,-168 436.5,-174 430.5,-180 424.5,-180"/>
<text text-anchor="middle" x="409.5" y="-158.3" font-family="Times,serif" font-size="14.00">BinOp</text>
</g>
<!-- ast.Compare object at 0x74076194d490&#45;&gt;ast.BinOp object at 0x740763c22610 -->
<g id="edge22" class="edge">
<title>ast.Compare object at 0x74076194d490&#45;&gt;ast.BinOp object at 0x740763c22610</title>
<path fill="none" stroke="black" d="M264.17,-219.83C295.19,-207.7 341.11,-189.74 373,-177.27"/>
<polygon fill="black" stroke="black" points="374.38,-180.49 382.41,-173.59 371.83,-173.97 374.38,-180.49"/>
</g>
<!-- ast.Gt object at 0x7408da348c50 -->
<g id="node23" class="node">
<title>ast.Gt object at 0x7408da348c50</title>
<path fill="#66cdaa" stroke="black" d="M173.5,-180C173.5,-180 143.5,-180 143.5,-180 137.5,-180 131.5,-174 131.5,-168 131.5,-168 131.5,-156 131.5,-156 131.5,-150 137.5,-144 143.5,-144 143.5,-144 173.5,-144 173.5,-144 179.5,-144 185.5,-150 185.5,-156 185.5,-156 185.5,-168 185.5,-168 185.5,-174 179.5,-180 173.5,-180"/>
<text text-anchor="middle" x="158.5" y="-158.3" font-family="Times,serif" font-size="14.00">Gt</text>
</g>
<!-- ast.Compare object at 0x74076194d490&#45;&gt;ast.Gt object at 0x7408da348c50 -->
<g id="edge27" class="edge">
<title>ast.Compare object at 0x74076194d490&#45;&gt;ast.Gt object at 0x7408da348c50</title>
<path fill="none" stroke="black" d="M212.7,-215.7C203.9,-207.14 193.12,-196.66 183.5,-187.3"/>
<polygon fill="black" stroke="black" points="185.7,-184.57 176.09,-180.1 180.82,-189.58 185.7,-184.57"/>
</g>
<!-- ast.BinOp object at 0x740763764f10 -->
<g id="node24" class="node">
<title>ast.BinOp object at 0x740763764f10</title>
<path fill="#66cdaa" stroke="black" d="M245.5,-180C245.5,-180 215.5,-180 215.5,-180 209.5,-180 203.5,-174 203.5,-168 203.5,-168 203.5,-156 203.5,-156 203.5,-150 209.5,-144 215.5,-144 215.5,-144 245.5,-144 245.5,-144 251.5,-144 257.5,-150 257.5,-156 257.5,-156 257.5,-168 257.5,-168 257.5,-174 251.5,-180 245.5,-180"/>
<text text-anchor="middle" x="230.5" y="-158.3" font-family="Times,serif" font-size="14.00">BinOp</text>
</g>
<!-- ast.Compare object at 0x74076194d490&#45;&gt;ast.BinOp object at 0x740763764f10 -->
<g id="edge28" class="edge">
<title>ast.Compare object at 0x74076194d490&#45;&gt;ast.BinOp object at 0x740763764f10</title>
<path fill="none" stroke="black" d="M230.5,-215.7C230.5,-207.98 230.5,-198.71 230.5,-190.11"/>
<polygon fill="black" stroke="black" points="234,-190.1 230.5,-180.1 227,-190.1 234,-190.1"/>
</g>
<!-- ast.Name object at 0x74076375f590 -->
<g id="node20" class="node">
<title>ast.Name object at 0x74076375f590</title>
<path fill="#66cdaa" stroke="black" d="M463.5,-108C463.5,-108 433.5,-108 433.5,-108 427.5,-108 421.5,-102 421.5,-96 421.5,-96 421.5,-84 421.5,-84 421.5,-78 427.5,-72 433.5,-72 433.5,-72 463.5,-72 463.5,-72 469.5,-72 475.5,-78 475.5,-84 475.5,-84 475.5,-96 475.5,-96 475.5,-102 469.5,-108 463.5,-108"/>
<text text-anchor="middle" x="448.5" y="-86.3" font-family="Times,serif" font-size="14.00">Name</text>
</g>
<!-- ast.BinOp object at 0x740763c22610&#45;&gt;ast.Name object at 0x74076375f590 -->
<g id="edge23" class="edge">
<title>ast.BinOp object at 0x740763c22610&#45;&gt;ast.Name object at 0x74076375f590</title>
<path fill="none" stroke="black" d="M419.14,-143.7C423.63,-135.64 429.06,-125.89 434.02,-116.98"/>
<polygon fill="black" stroke="black" points="437.16,-118.54 438.97,-108.1 431.05,-115.14 437.16,-118.54"/>
</g>
<!-- ast.Add object at 0x7408da337f10 -->
<g id="node21" class="node">
<title>ast.Add object at 0x7408da337f10</title>
<path fill="#66cdaa" stroke="black" d="M933.5,-108C933.5,-108 903.5,-108 903.5,-108 897.5,-108 891.5,-102 891.5,-96 891.5,-96 891.5,-84 891.5,-84 891.5,-78 897.5,-72 903.5,-72 903.5,-72 933.5,-72 933.5,-72 939.5,-72 945.5,-78 945.5,-84 945.5,-84 945.5,-96 945.5,-96 945.5,-102 939.5,-108 933.5,-108"/>
<text text-anchor="middle" x="918.5" y="-86.3" font-family="Times,serif" font-size="14.00">Add</text>
</g>
<!-- ast.BinOp object at 0x740763c22610&#45;&gt;ast.Add object at 0x7408da337f10 -->
<g id="edge25" class="edge">
<title>ast.BinOp object at 0x740763c22610&#45;&gt;ast.Add object at 0x7408da337f10</title>
<path fill="none" stroke="black" d="M436.67,-151.83C446.3,-148.9 457.29,-145.92 467.5,-144 646.25,-110.4 701.82,-154.68 881.59,-107.65"/>
<polygon fill="black" stroke="black" points="882.61,-111 891.37,-105.03 880.8,-104.24 882.61,-111"/>
</g>
<!-- ast.Constant object at 0x740762de2390 -->
<g id="node22" class="node">
<title>ast.Constant object at 0x740762de2390</title>
<path fill="#66cdaa" stroke="black" d="M391,-108C391,-108 350,-108 350,-108 344,-108 338,-102 338,-96 338,-96 338,-84 338,-84 338,-78 344,-72 350,-72 350,-72 391,-72 391,-72 397,-72 403,-78 403,-84 403,-84 403,-96 403,-96 403,-102 397,-108 391,-108"/>
<text text-anchor="middle" x="370.5" y="-86.3" font-family="Times,serif" font-size="14.00">Constant</text>
</g>
<!-- ast.BinOp object at 0x740763c22610&#45;&gt;ast.Constant object at 0x740762de2390 -->
<g id="edge26" class="edge">
<title>ast.BinOp object at 0x740763c22610&#45;&gt;ast.Constant object at 0x740762de2390</title>
<path fill="none" stroke="black" d="M399.86,-143.7C395.37,-135.64 389.94,-125.89 384.98,-116.98"/>
<polygon fill="black" stroke="black" points="387.95,-115.14 380.03,-108.1 381.84,-118.54 387.95,-115.14"/>
</g>
<!-- ast.Name object at 0x74076375f590&#45;&gt;ast.Load object at 0x7408da337a10 -->
<g id="edge24" class="edge">
<title>ast.Name object at 0x74076375f590&#45;&gt;ast.Load object at 0x7408da337a10</title>
<path fill="none" stroke="black" d="M475.89,-76.24C480.36,-74.57 485,-73.07 489.5,-72 624.21,-40.1 1056.43,-24.26 1186.88,-20.12"/>
<polygon fill="black" stroke="black" points="1187.26,-23.61 1197.15,-19.8 1187.05,-16.61 1187.26,-23.61"/>
</g>
<!-- ast.Name object at 0x740763f96390 -->
<g id="node25" class="node">
<title>ast.Name object at 0x740763f96390</title>
<path fill="#66cdaa" stroke="black" d="M197.5,-108C197.5,-108 167.5,-108 167.5,-108 161.5,-108 155.5,-102 155.5,-96 155.5,-96 155.5,-84 155.5,-84 155.5,-78 161.5,-72 167.5,-72 167.5,-72 197.5,-72 197.5,-72 203.5,-72 209.5,-78 209.5,-84 209.5,-84 209.5,-96 209.5,-96 209.5,-102 203.5,-108 197.5,-108"/>
<text text-anchor="middle" x="182.5" y="-86.3" font-family="Times,serif" font-size="14.00">Name</text>
</g>
<!-- ast.BinOp object at 0x740763764f10&#45;&gt;ast.Name object at 0x740763f96390 -->
<g id="edge29" class="edge">
<title>ast.BinOp object at 0x740763764f10&#45;&gt;ast.Name object at 0x740763f96390</title>
<path fill="none" stroke="black" d="M218.63,-143.7C213,-135.47 206.15,-125.48 199.93,-116.42"/>
<polygon fill="black" stroke="black" points="202.77,-114.37 194.23,-108.1 197,-118.33 202.77,-114.37"/>
</g>
<!-- ast.Sub object at 0x7408da337f90 -->
<g id="node26" class="node">
<title>ast.Sub object at 0x7408da337f90</title>
<path fill="#66cdaa" stroke="black" d="M573.5,-108C573.5,-108 543.5,-108 543.5,-108 537.5,-108 531.5,-102 531.5,-96 531.5,-96 531.5,-84 531.5,-84 531.5,-78 537.5,-72 543.5,-72 543.5,-72 573.5,-72 573.5,-72 579.5,-72 585.5,-78 585.5,-84 585.5,-84 585.5,-96 585.5,-96 585.5,-102 579.5,-108 573.5,-108"/>
<text text-anchor="middle" x="558.5" y="-86.3" font-family="Times,serif" font-size="14.00">Sub</text>
</g>
<!-- ast.BinOp object at 0x740763764f10&#45;&gt;ast.Sub object at 0x7408da337f90 -->
<g id="edge31" class="edge">
<title>ast.BinOp object at 0x740763764f10&#45;&gt;ast.Sub object at 0x7408da337f90</title>
<path fill="none" stroke="black" d="M257.7,-147.2C260.63,-146 263.6,-144.91 266.5,-144 360.24,-114.75 388.16,-127 484.5,-108 496.5,-105.63 509.53,-102.75 521.26,-100.03"/>
<polygon fill="black" stroke="black" points="522.24,-103.4 531.18,-97.7 520.64,-96.58 522.24,-103.4"/>
</g>
<!-- ast.Constant object at 0x740763f94c90 -->
<g id="node27" class="node">
<title>ast.Constant object at 0x740763f94c90</title>
<path fill="#66cdaa" stroke="black" d="M53,-108C53,-108 12,-108 12,-108 6,-108 0,-102 0,-96 0,-96 0,-84 0,-84 0,-78 6,-72 12,-72 12,-72 53,-72 53,-72 59,-72 65,-78 65,-84 65,-84 65,-96 65,-96 65,-102 59,-108 53,-108"/>
<text text-anchor="middle" x="32.5" y="-86.3" font-family="Times,serif" font-size="14.00">Constant</text>
</g>
<!-- ast.BinOp object at 0x740763764f10&#45;&gt;ast.Constant object at 0x740763f94c90 -->
<g id="edge32" class="edge">
<title>ast.BinOp object at 0x740763764f10&#45;&gt;ast.Constant object at 0x740763f94c90</title>
<path fill="none" stroke="black" d="M203.17,-147.58C200.27,-146.31 197.34,-145.09 194.5,-144 145.36,-125.15 128.83,-126.27 75.11,-108.02"/>
<polygon fill="black" stroke="black" points="76,-104.63 65.4,-104.66 73.7,-111.24 76,-104.63"/>
</g>
<!-- ast.Name object at 0x740763f96390&#45;&gt;ast.Load object at 0x7408da337a10 -->
<g id="edge30" class="edge">
<title>ast.Name object at 0x740763f96390&#45;&gt;ast.Load object at 0x7408da337a10</title>
<path fill="none" stroke="black" d="M209.61,-74.86C212.55,-73.73 215.55,-72.74 218.5,-72 407.08,-24.47 1027.2,-19.52 1186.78,-19.04"/>
<polygon fill="black" stroke="black" points="1187.05,-22.54 1197.04,-19.02 1187.03,-15.54 1187.05,-22.54"/>
</g>
<!-- ast.Constant object at 0x740763f942d0 -->
<g id="node29" class="node">
<title>ast.Constant object at 0x740763f942d0</title>
<path fill="#66cdaa" stroke="black" d="M101,-180C101,-180 60,-180 60,-180 54,-180 48,-174 48,-168 48,-168 48,-156 48,-156 48,-150 54,-144 60,-144 60,-144 101,-144 101,-144 107,-144 113,-150 113,-156 113,-156 113,-168 113,-168 113,-174 107,-180 101,-180"/>
<text text-anchor="middle" x="80.5" y="-158.3" font-family="Times,serif" font-size="14.00">Constant</text>
</g>
<!-- ast.Return object at 0x740763f97250&#45;&gt;ast.Constant object at 0x740763f942d0 -->
<g id="edge34" class="edge">
<title>ast.Return object at 0x740763f97250&#45;&gt;ast.Constant object at 0x740763f942d0</title>
<path fill="none" stroke="black" d="M106.85,-215.7C102.86,-207.73 98.05,-198.1 93.63,-189.26"/>
<polygon fill="black" stroke="black" points="96.65,-187.48 89.05,-180.1 90.39,-190.61 96.65,-187.48"/>
</g>
<!-- ast.Name object at 0x740763f97950 -->
<g id="node31" class="node">
<title>ast.Name object at 0x740763f97950</title>
<path fill="#66cdaa" stroke="black" d="M988.5,-324C988.5,-324 958.5,-324 958.5,-324 952.5,-324 946.5,-318 946.5,-312 946.5,-312 946.5,-300 946.5,-300 946.5,-294 952.5,-288 958.5,-288 958.5,-288 988.5,-288 988.5,-288 994.5,-288 1000.5,-294 1000.5,-300 1000.5,-300 1000.5,-312 1000.5,-312 1000.5,-318 994.5,-324 988.5,-324"/>
<text text-anchor="middle" x="973.5" y="-302.3" font-family="Times,serif" font-size="14.00">Name</text>
</g>
<!-- ast.Assign object at 0x740763f97a10&#45;&gt;ast.Name object at 0x740763f97950 -->
<g id="edge36" class="edge">
<title>ast.Assign object at 0x740763f97a10&#45;&gt;ast.Name object at 0x740763f97950</title>
<path fill="none" stroke="black" d="M973.5,-359.7C973.5,-351.98 973.5,-342.71 973.5,-334.11"/>
<polygon fill="black" stroke="black" points="977,-334.1 973.5,-324.1 970,-334.1 977,-334.1"/>
</g>
<!-- ast.Call object at 0x740763f96610 -->
<g id="node32" class="node">
<title>ast.Call object at 0x740763f96610</title>
<path fill="#66cdaa" stroke="black" d="M1204.5,-324C1204.5,-324 1174.5,-324 1174.5,-324 1168.5,-324 1162.5,-318 1162.5,-312 1162.5,-312 1162.5,-300 1162.5,-300 1162.5,-294 1168.5,-288 1174.5,-288 1174.5,-288 1204.5,-288 1204.5,-288 1210.5,-288 1216.5,-294 1216.5,-300 1216.5,-300 1216.5,-312 1216.5,-312 1216.5,-318 1210.5,-324 1204.5,-324"/>
<text text-anchor="middle" x="1189.5" y="-302.3" font-family="Times,serif" font-size="14.00">Call</text>
</g>
<!-- ast.Assign object at 0x740763f97a10&#45;&gt;ast.Call object at 0x740763f96610 -->
<g id="edge38" class="edge">
<title>ast.Assign object at 0x740763f97a10&#45;&gt;ast.Call object at 0x740763f96610</title>
<path fill="none" stroke="black" d="M1000.78,-363.44C1003.69,-362.2 1006.64,-361.02 1009.5,-360 1068.71,-338.85 1089.43,-345.47 1152.58,-323.95"/>
<polygon fill="black" stroke="black" points="1153.94,-327.18 1162.22,-320.56 1151.62,-320.58 1153.94,-327.18"/>
</g>
<!-- ast.Name object at 0x740763f97950&#45;&gt;ast.Store object at 0x7408da337a90 -->
<g id="edge37" class="edge">
<title>ast.Name object at 0x740763f97950&#45;&gt;ast.Store object at 0x7408da337a90</title>
<path fill="none" stroke="black" d="M960.15,-287.7C953.74,-279.39 945.94,-269.28 938.89,-260.14"/>
<polygon fill="black" stroke="black" points="941.57,-257.88 932.69,-252.1 936.03,-262.16 941.57,-257.88"/>
</g>
<!-- ast.Name object at 0x740763f96f90 -->
<g id="node33" class="node">
<title>ast.Name object at 0x740763f96f90</title>
<path fill="#66cdaa" stroke="black" d="M1024.5,-252C1024.5,-252 994.5,-252 994.5,-252 988.5,-252 982.5,-246 982.5,-240 982.5,-240 982.5,-228 982.5,-228 982.5,-222 988.5,-216 994.5,-216 994.5,-216 1024.5,-216 1024.5,-216 1030.5,-216 1036.5,-222 1036.5,-228 1036.5,-228 1036.5,-240 1036.5,-240 1036.5,-246 1030.5,-252 1024.5,-252"/>
<text text-anchor="middle" x="1009.5" y="-230.3" font-family="Times,serif" font-size="14.00">Name</text>
</g>
<!-- ast.Call object at 0x740763f96610&#45;&gt;ast.Name object at 0x740763f96f90 -->
<g id="edge39" class="edge">
<title>ast.Call object at 0x740763f96610&#45;&gt;ast.Name object at 0x740763f96f90</title>
<path fill="none" stroke="black" d="M1162.49,-291.93C1159.47,-290.57 1156.43,-289.23 1153.5,-288 1117.57,-272.94 1075.69,-257.79 1046.39,-247.57"/>
<polygon fill="black" stroke="black" points="1047.18,-244.13 1036.58,-244.16 1044.88,-250.75 1047.18,-244.13"/>
</g>
<!-- ast.Call object at 0x740763f97a90 -->
<g id="node34" class="node">
<title>ast.Call object at 0x740763f97a90</title>
<path fill="#66cdaa" stroke="black" d="M1132.5,-252C1132.5,-252 1102.5,-252 1102.5,-252 1096.5,-252 1090.5,-246 1090.5,-240 1090.5,-240 1090.5,-228 1090.5,-228 1090.5,-222 1096.5,-216 1102.5,-216 1102.5,-216 1132.5,-216 1132.5,-216 1138.5,-216 1144.5,-222 1144.5,-228 1144.5,-228 1144.5,-240 1144.5,-240 1144.5,-246 1138.5,-252 1132.5,-252"/>
<text text-anchor="middle" x="1117.5" y="-230.3" font-family="Times,serif" font-size="14.00">Call</text>
</g>
<!-- ast.Call object at 0x740763f96610&#45;&gt;ast.Call object at 0x740763f97a90 -->
<g id="edge41" class="edge">
<title>ast.Call object at 0x740763f96610&#45;&gt;ast.Call object at 0x740763f97a90</title>
<path fill="none" stroke="black" d="M1171.7,-287.7C1162.9,-279.14 1152.12,-268.66 1142.5,-259.3"/>
<polygon fill="black" stroke="black" points="1144.7,-256.57 1135.09,-252.1 1139.82,-261.58 1144.7,-256.57"/>
</g>
<!-- ast.Name object at 0x740763f96f90&#45;&gt;ast.Load object at 0x7408da337a10 -->
<g id="edge40" class="edge">
<title>ast.Name object at 0x740763f96f90&#45;&gt;ast.Load object at 0x7408da337a10</title>
<path fill="none" stroke="black" d="M1000.54,-215.76C985.24,-183.66 958.86,-114.19 992.5,-72 1016.43,-41.98 1127.88,-27.62 1187.17,-22"/>
<polygon fill="black" stroke="black" points="1187.61,-25.47 1197.25,-21.08 1186.98,-18.5 1187.61,-25.47"/>
</g>
<!-- ast.Name object at 0x740763f97e10 -->
<g id="node35" class="node">
<title>ast.Name object at 0x740763f97e10</title>
<path fill="#66cdaa" stroke="black" d="M1203.5,-180C1203.5,-180 1173.5,-180 1173.5,-180 1167.5,-180 1161.5,-174 1161.5,-168 1161.5,-168 1161.5,-156 1161.5,-156 1161.5,-150 1167.5,-144 1173.5,-144 1173.5,-144 1203.5,-144 1203.5,-144 1209.5,-144 1215.5,-150 1215.5,-156 1215.5,-156 1215.5,-168 1215.5,-168 1215.5,-174 1209.5,-180 1203.5,-180"/>
<text text-anchor="middle" x="1188.5" y="-158.3" font-family="Times,serif" font-size="14.00">Name</text>
</g>
<!-- ast.Call object at 0x740763f97a90&#45;&gt;ast.Name object at 0x740763f97e10 -->
<g id="edge42" class="edge">
<title>ast.Call object at 0x740763f97a90&#45;&gt;ast.Name object at 0x740763f97e10</title>
<path fill="none" stroke="black" d="M1135.05,-215.7C1143.73,-207.14 1154.36,-196.66 1163.85,-187.3"/>
<polygon fill="black" stroke="black" points="1166.49,-189.62 1171.15,-180.1 1161.57,-184.63 1166.49,-189.62"/>
</g>
<!-- ast.BinOp object at 0x740763f97990 -->
<g id="node36" class="node">
<title>ast.BinOp object at 0x740763f97990</title>
<path fill="#66cdaa" stroke="black" d="M1054.5,-180C1054.5,-180 1024.5,-180 1024.5,-180 1018.5,-180 1012.5,-174 1012.5,-168 1012.5,-168 1012.5,-156 1012.5,-156 1012.5,-150 1018.5,-144 1024.5,-144 1024.5,-144 1054.5,-144 1054.5,-144 1060.5,-144 1066.5,-150 1066.5,-156 1066.5,-156 1066.5,-168 1066.5,-168 1066.5,-174 1060.5,-180 1054.5,-180"/>
<text text-anchor="middle" x="1039.5" y="-158.3" font-family="Times,serif" font-size="14.00">BinOp</text>
</g>
<!-- ast.Call object at 0x740763f97a90&#45;&gt;ast.BinOp object at 0x740763f97990 -->
<g id="edge44" class="edge">
<title>ast.Call object at 0x740763f97a90&#45;&gt;ast.BinOp object at 0x740763f97990</title>
<path fill="none" stroke="black" d="M1098.22,-215.7C1088.58,-207.05 1076.77,-196.45 1066.27,-187.03"/>
<polygon fill="black" stroke="black" points="1068.34,-184.18 1058.56,-180.1 1063.66,-189.39 1068.34,-184.18"/>
</g>
<!-- ast.Name object at 0x740763f97d50 -->
<g id="node39" class="node">
<title>ast.Name object at 0x740763f97d50</title>
<path fill="#66cdaa" stroke="black" d="M1131.5,-180C1131.5,-180 1101.5,-180 1101.5,-180 1095.5,-180 1089.5,-174 1089.5,-168 1089.5,-168 1089.5,-156 1089.5,-156 1089.5,-150 1095.5,-144 1101.5,-144 1101.5,-144 1131.5,-144 1131.5,-144 1137.5,-144 1143.5,-150 1143.5,-156 1143.5,-156 1143.5,-168 1143.5,-168 1143.5,-174 1137.5,-180 1131.5,-180"/>
<text text-anchor="middle" x="1116.5" y="-158.3" font-family="Times,serif" font-size="14.00">Name</text>
</g>
<!-- ast.Call object at 0x740763f97a90&#45;&gt;ast.Name object at 0x740763f97d50 -->
<g id="edge49" class="edge">
<title>ast.Call object at 0x740763f97a90&#45;&gt;ast.Name object at 0x740763f97d50</title>
<path fill="none" stroke="black" d="M1117.25,-215.7C1117.14,-207.98 1117.01,-198.71 1116.89,-190.11"/>
<polygon fill="black" stroke="black" points="1120.39,-190.05 1116.74,-180.1 1113.39,-190.15 1120.39,-190.05"/>
</g>
<!-- ast.Name object at 0x740763f97e10&#45;&gt;ast.Load object at 0x7408da337a10 -->
<g id="edge43" class="edge">
<title>ast.Name object at 0x740763f97e10&#45;&gt;ast.Load object at 0x7408da337a10</title>
<path fill="none" stroke="black" d="M1192.84,-143.87C1199,-119.56 1210.35,-74.82 1217.65,-46.01"/>
<polygon fill="black" stroke="black" points="1221.08,-46.74 1220.14,-36.19 1214.29,-45.02 1221.08,-46.74"/>
</g>
<!-- ast.BinOp object at 0x740763f97990&#45;&gt;ast.Add object at 0x7408da337f10 -->
<g id="edge47" class="edge">
<title>ast.BinOp object at 0x740763f97990&#45;&gt;ast.Add object at 0x7408da337f10</title>
<path fill="none" stroke="black" d="M1012.35,-145.29C995.22,-135.38 972.91,-122.48 954.34,-111.73"/>
<polygon fill="black" stroke="black" points="955.97,-108.63 945.56,-106.66 952.47,-114.69 955.97,-108.63"/>
</g>
<!-- ast.Name object at 0x740763f97fd0 -->
<g id="node37" class="node">
<title>ast.Name object at 0x740763f97fd0</title>
<path fill="#66cdaa" stroke="black" d="M1127.5,-108C1127.5,-108 1097.5,-108 1097.5,-108 1091.5,-108 1085.5,-102 1085.5,-96 1085.5,-96 1085.5,-84 1085.5,-84 1085.5,-78 1091.5,-72 1097.5,-72 1097.5,-72 1127.5,-72 1127.5,-72 1133.5,-72 1139.5,-78 1139.5,-84 1139.5,-84 1139.5,-96 1139.5,-96 1139.5,-102 1133.5,-108 1127.5,-108"/>
<text text-anchor="middle" x="1112.5" y="-86.3" font-family="Times,serif" font-size="14.00">Name</text>
</g>
<!-- ast.BinOp object at 0x740763f97990&#45;&gt;ast.Name object at 0x740763f97fd0 -->
<g id="edge45" class="edge">
<title>ast.BinOp object at 0x740763f97990&#45;&gt;ast.Name object at 0x740763f97fd0</title>
<path fill="none" stroke="black" d="M1057.54,-143.7C1066.56,-135.05 1077.62,-124.45 1087.44,-115.03"/>
<polygon fill="black" stroke="black" points="1089.87,-117.55 1094.66,-108.1 1085.02,-112.5 1089.87,-117.55"/>
</g>
<!-- ast.Constant object at 0x740763f965d0 -->
<g id="node38" class="node">
<title>ast.Constant object at 0x740763f965d0</title>
<path fill="#66cdaa" stroke="black" d="M1055,-108C1055,-108 1014,-108 1014,-108 1008,-108 1002,-102 1002,-96 1002,-96 1002,-84 1002,-84 1002,-78 1008,-72 1014,-72 1014,-72 1055,-72 1055,-72 1061,-72 1067,-78 1067,-84 1067,-84 1067,-96 1067,-96 1067,-102 1061,-108 1055,-108"/>
<text text-anchor="middle" x="1034.5" y="-86.3" font-family="Times,serif" font-size="14.00">Constant</text>
</g>
<!-- ast.BinOp object at 0x740763f97990&#45;&gt;ast.Constant object at 0x740763f965d0 -->
<g id="edge48" class="edge">
<title>ast.BinOp object at 0x740763f97990&#45;&gt;ast.Constant object at 0x740763f965d0</title>
<path fill="none" stroke="black" d="M1038.26,-143.7C1037.71,-135.98 1037.05,-126.71 1036.44,-118.11"/>
<polygon fill="black" stroke="black" points="1039.93,-117.83 1035.72,-108.1 1032.94,-118.33 1039.93,-117.83"/>
</g>
<!-- ast.Name object at 0x740763f97fd0&#45;&gt;ast.Load object at 0x7408da337a10 -->
<g id="edge46" class="edge">
<title>ast.Name object at 0x740763f97fd0&#45;&gt;ast.Load object at 0x7408da337a10</title>
<path fill="none" stroke="black" d="M1139.61,-72.05C1154.36,-62.84 1172.79,-51.32 1188.71,-41.37"/>
<polygon fill="black" stroke="black" points="1190.62,-44.3 1197.25,-36.03 1186.91,-38.36 1190.62,-44.3"/>
</g>
<!-- ast.Name object at 0x740763f97d50&#45;&gt;ast.Load object at 0x7408da337a10 -->
<g id="edge50" class="edge">
<title>ast.Name object at 0x740763f97d50&#45;&gt;ast.Load object at 0x7408da337a10</title>
<path fill="none" stroke="black" d="M1129.53,-143.87C1148.34,-119.14 1183.25,-73.24 1205.1,-44.51"/>
<polygon fill="black" stroke="black" points="1208.16,-46.27 1211.43,-36.19 1202.59,-42.03 1208.16,-46.27"/>
</g>
<!-- ast.Name object at 0x740763f97e90 -->
<g id="node41" class="node">
<title>ast.Name object at 0x740763f97e90</title>
<path fill="#66cdaa" stroke="black" d="M696.5,-324C696.5,-324 666.5,-324 666.5,-324 660.5,-324 654.5,-318 654.5,-312 654.5,-312 654.5,-300 654.5,-300 654.5,-294 660.5,-288 666.5,-288 666.5,-288 696.5,-288 696.5,-288 702.5,-288 708.5,-294 708.5,-300 708.5,-300 708.5,-312 708.5,-312 708.5,-318 702.5,-324 696.5,-324"/>
<text text-anchor="middle" x="681.5" y="-302.3" font-family="Times,serif" font-size="14.00">Name</text>
</g>
<!-- ast.Assign object at 0x740763f979d0&#45;&gt;ast.Name object at 0x740763f97e90 -->
<g id="edge52" class="edge">
<title>ast.Assign object at 0x740763f979d0&#45;&gt;ast.Name object at 0x740763f97e90</title>
<path fill="none" stroke="black" d="M710.11,-359.7C705.74,-351.64 700.44,-341.89 695.6,-332.98"/>
<polygon fill="black" stroke="black" points="698.63,-331.22 690.79,-324.1 692.48,-334.56 698.63,-331.22"/>
</g>
<!-- ast.Call object at 0x740763f96810 -->
<g id="node42" class="node">
<title>ast.Call object at 0x740763f96810</title>
<path fill="#66cdaa" stroke="black" d="M518.5,-252C518.5,-252 488.5,-252 488.5,-252 482.5,-252 476.5,-246 476.5,-240 476.5,-240 476.5,-228 476.5,-228 476.5,-222 482.5,-216 488.5,-216 488.5,-216 518.5,-216 518.5,-216 524.5,-216 530.5,-222 530.5,-228 530.5,-228 530.5,-240 530.5,-240 530.5,-246 524.5,-252 518.5,-252"/>
<text text-anchor="middle" x="503.5" y="-230.3" font-family="Times,serif" font-size="14.00">Call</text>
</g>
<!-- ast.Assign object at 0x740763f979d0&#45;&gt;ast.Call object at 0x740763f96810 -->
<g id="edge54" class="edge">
<title>ast.Assign object at 0x740763f979d0&#45;&gt;ast.Call object at 0x740763f96810</title>
<path fill="none" stroke="black" d="M693.45,-359.87C654.61,-334.34 581.46,-286.25 538.15,-257.78"/>
<polygon fill="black" stroke="black" points="539.93,-254.76 529.65,-252.19 536.08,-260.61 539.93,-254.76"/>
</g>
<!-- ast.Name object at 0x740763f97e90&#45;&gt;ast.Store object at 0x7408da337a90 -->
<g id="edge53" class="edge">
<title>ast.Name object at 0x740763f97e90&#45;&gt;ast.Store object at 0x7408da337a90</title>
<path fill="none" stroke="black" d="M708.8,-296.97C751.55,-284.4 834.35,-260.04 882.44,-245.9"/>
<polygon fill="black" stroke="black" points="883.55,-249.22 892.15,-243.04 881.57,-242.51 883.55,-249.22"/>
</g>
<!-- ast.Name object at 0x740763f963d0 -->
<g id="node43" class="node">
<title>ast.Name object at 0x740763f963d0</title>
<path fill="#66cdaa" stroke="black" d="M518.5,-180C518.5,-180 488.5,-180 488.5,-180 482.5,-180 476.5,-174 476.5,-168 476.5,-168 476.5,-156 476.5,-156 476.5,-150 482.5,-144 488.5,-144 488.5,-144 518.5,-144 518.5,-144 524.5,-144 530.5,-150 530.5,-156 530.5,-156 530.5,-168 530.5,-168 530.5,-174 524.5,-180 518.5,-180"/>
<text text-anchor="middle" x="503.5" y="-158.3" font-family="Times,serif" font-size="14.00">Name</text>
</g>
<!-- ast.Call object at 0x740763f96810&#45;&gt;ast.Name object at 0x740763f963d0 -->
<g id="edge55" class="edge">
<title>ast.Call object at 0x740763f96810&#45;&gt;ast.Name object at 0x740763f963d0</title>
<path fill="none" stroke="black" d="M503.5,-215.7C503.5,-207.98 503.5,-198.71 503.5,-190.11"/>
<polygon fill="black" stroke="black" points="507,-190.1 503.5,-180.1 500,-190.1 507,-190.1"/>
</g>
<!-- ast.Subscript object at 0x740763f96e90 -->
<g id="node44" class="node">
<title>ast.Subscript object at 0x740763f96e90</title>
<path fill="#66cdaa" stroke="black" d="M331.5,-180C331.5,-180 287.5,-180 287.5,-180 281.5,-180 275.5,-174 275.5,-168 275.5,-168 275.5,-156 275.5,-156 275.5,-150 281.5,-144 287.5,-144 287.5,-144 331.5,-144 331.5,-144 337.5,-144 343.5,-150 343.5,-156 343.5,-156 343.5,-168 343.5,-168 343.5,-174 337.5,-180 331.5,-180"/>
<text text-anchor="middle" x="309.5" y="-158.3" font-family="Times,serif" font-size="14.00">Subscript</text>
</g>
<!-- ast.Call object at 0x740763f96810&#45;&gt;ast.Subscript object at 0x740763f96e90 -->
<g id="edge57" class="edge">
<title>ast.Call object at 0x740763f96810&#45;&gt;ast.Subscript object at 0x740763f96e90</title>
<path fill="none" stroke="black" d="M476.12,-223.12C444.19,-211.6 390.99,-192.41 353.31,-178.81"/>
<polygon fill="black" stroke="black" points="354.2,-175.41 343.6,-175.3 351.82,-181.99 354.2,-175.41"/>
</g>
<!-- ast.Name object at 0x740763f963d0&#45;&gt;ast.Load object at 0x7408da337a10 -->
<g id="edge56" class="edge">
<title>ast.Name object at 0x740763f963d0&#45;&gt;ast.Load object at 0x7408da337a10</title>
<path fill="none" stroke="black" d="M501.66,-143.96C500.51,-123.51 502.15,-89.77 522.5,-72 572.8,-28.07 1048.88,-20.52 1187.07,-19.25"/>
<polygon fill="black" stroke="black" points="1187.2,-22.75 1197.17,-19.16 1187.14,-15.75 1187.2,-22.75"/>
</g>
<!-- ast.Subscript object at 0x740763f96e90&#45;&gt;ast.Load object at 0x7408da337a10 -->
<g id="edge63" class="edge">
<title>ast.Subscript object at 0x740763f96e90&#45;&gt;ast.Load object at 0x7408da337a10</title>
<path fill="none" stroke="black" d="M307.62,-143.9C306.41,-123.4 308.01,-89.61 328.5,-72 394.36,-15.42 1024.69,-17.19 1186.69,-18.59"/>
<polygon fill="black" stroke="black" points="1187.07,-22.09 1197.11,-18.69 1187.14,-15.09 1187.07,-22.09"/>
</g>
<!-- ast.Name object at 0x740763f97790 -->
<g id="node45" class="node">
<title>ast.Name object at 0x740763f97790</title>
<path fill="#66cdaa" stroke="black" d="M269.5,-108C269.5,-108 239.5,-108 239.5,-108 233.5,-108 227.5,-102 227.5,-96 227.5,-96 227.5,-84 227.5,-84 227.5,-78 233.5,-72 239.5,-72 239.5,-72 269.5,-72 269.5,-72 275.5,-72 281.5,-78 281.5,-84 281.5,-84 281.5,-96 281.5,-96 281.5,-102 275.5,-108 269.5,-108"/>
<text text-anchor="middle" x="254.5" y="-86.3" font-family="Times,serif" font-size="14.00">Name</text>
</g>
<!-- ast.Subscript object at 0x740763f96e90&#45;&gt;ast.Name object at 0x740763f97790 -->
<g id="edge58" class="edge">
<title>ast.Subscript object at 0x740763f96e90&#45;&gt;ast.Name object at 0x740763f97790</title>
<path fill="none" stroke="black" d="M295.9,-143.7C289.38,-135.39 281.43,-125.28 274.25,-116.14"/>
<polygon fill="black" stroke="black" points="276.87,-113.81 267.94,-108.1 271.37,-118.13 276.87,-113.81"/>
</g>
<!-- ast.Slice object at 0x740763f96b50 -->
<g id="node46" class="node">
<title>ast.Slice object at 0x740763f96b50</title>
<path fill="#66cdaa" stroke="black" d="M125.5,-108C125.5,-108 95.5,-108 95.5,-108 89.5,-108 83.5,-102 83.5,-96 83.5,-96 83.5,-84 83.5,-84 83.5,-78 89.5,-72 95.5,-72 95.5,-72 125.5,-72 125.5,-72 131.5,-72 137.5,-78 137.5,-84 137.5,-84 137.5,-96 137.5,-96 137.5,-102 131.5,-108 125.5,-108"/>
<text text-anchor="middle" x="110.5" y="-86.3" font-family="Times,serif" font-size="14.00">Slice</text>
</g>
<!-- ast.Subscript object at 0x740763f96e90&#45;&gt;ast.Slice object at 0x740763f96b50 -->
<g id="edge60" class="edge">
<title>ast.Subscript object at 0x740763f96e90&#45;&gt;ast.Slice object at 0x740763f96b50</title>
<path fill="none" stroke="black" d="M275.33,-147.19C272.36,-146.08 269.38,-145 266.5,-144 216.77,-126.75 200.28,-127.76 147.39,-108.06"/>
<polygon fill="black" stroke="black" points="148.42,-104.71 137.83,-104.42 145.94,-111.25 148.42,-104.71"/>
</g>
<!-- ast.Name object at 0x740763f97790&#45;&gt;ast.Load object at 0x7408da337a10 -->
<g id="edge59" class="edge">
<title>ast.Name object at 0x740763f97790&#45;&gt;ast.Load object at 0x7408da337a10</title>
<path fill="none" stroke="black" d="M281.87,-76.18C286.35,-74.51 290.99,-73.03 295.5,-72 469.66,-32.13 1036.4,-21.59 1187.3,-19.46"/>
<polygon fill="black" stroke="black" points="1187.49,-22.96 1197.44,-19.32 1187.39,-15.96 1187.49,-22.96"/>
</g>
<!-- ast.Constant object at 0x740763f97490 -->
<g id="node47" class="node">
<title>ast.Constant object at 0x740763f97490</title>
<path fill="#66cdaa" stroke="black" d="M90,-36C90,-36 49,-36 49,-36 43,-36 37,-30 37,-24 37,-24 37,-12 37,-12 37,-6 43,0 49,0 49,0 90,0 90,0 96,0 102,-6 102,-12 102,-12 102,-24 102,-24 102,-30 96,-36 90,-36"/>
<text text-anchor="middle" x="69.5" y="-14.3" font-family="Times,serif" font-size="14.00">Constant</text>
</g>
<!-- ast.Slice object at 0x740763f96b50&#45;&gt;ast.Constant object at 0x740763f97490 -->
<g id="edge61" class="edge">
<title>ast.Slice object at 0x740763f96b50&#45;&gt;ast.Constant object at 0x740763f97490</title>
<path fill="none" stroke="black" d="M100.37,-71.7C95.65,-63.64 89.94,-53.89 84.72,-44.98"/>
<polygon fill="black" stroke="black" points="87.59,-42.96 79.52,-36.1 81.55,-46.5 87.59,-42.96"/>
</g>
<!-- ast.Constant object at 0x740763f970d0 -->
<g id="node48" class="node">
<title>ast.Constant object at 0x740763f970d0</title>
<path fill="#66cdaa" stroke="black" d="M173,-36C173,-36 132,-36 132,-36 126,-36 120,-30 120,-24 120,-24 120,-12 120,-12 120,-6 126,0 132,0 132,0 173,0 173,0 179,0 185,-6 185,-12 185,-12 185,-24 185,-24 185,-30 179,-36 173,-36"/>
<text text-anchor="middle" x="152.5" y="-14.3" font-family="Times,serif" font-size="14.00">Constant</text>
</g>
<!-- ast.Slice object at 0x740763f96b50&#45;&gt;ast.Constant object at 0x740763f970d0 -->
<g id="edge62" class="edge">
<title>ast.Slice object at 0x740763f96b50&#45;&gt;ast.Constant object at 0x740763f970d0</title>
<path fill="none" stroke="black" d="M120.88,-71.7C125.76,-63.56 131.69,-53.69 137.08,-44.7"/>
<polygon fill="black" stroke="black" points="140.09,-46.48 142.24,-36.1 134.09,-42.88 140.09,-46.48"/>
</g>
<!-- ast.Name object at 0x740763f94350 -->
<g id="node50" class="node">
<title>ast.Name object at 0x740763f94350</title>
<path fill="#66cdaa" stroke="black" d="M844.5,-324C844.5,-324 814.5,-324 814.5,-324 808.5,-324 802.5,-318 802.5,-312 802.5,-312 802.5,-300 802.5,-300 802.5,-294 808.5,-288 814.5,-288 814.5,-288 844.5,-288 844.5,-288 850.5,-288 856.5,-294 856.5,-300 856.5,-300 856.5,-312 856.5,-312 856.5,-318 850.5,-324 844.5,-324"/>
<text text-anchor="middle" x="829.5" y="-302.3" font-family="Times,serif" font-size="14.00">Name</text>
</g>
<!-- ast.Assign object at 0x740763f94e50&#45;&gt;ast.Name object at 0x740763f94350 -->
<g id="edge65" class="edge">
<title>ast.Assign object at 0x740763f94e50&#45;&gt;ast.Name object at 0x740763f94350</title>
<path fill="none" stroke="black" d="M829.5,-359.7C829.5,-351.98 829.5,-342.71 829.5,-334.11"/>
<polygon fill="black" stroke="black" points="833,-334.1 829.5,-324.1 826,-334.1 833,-334.1"/>
</g>
<!-- ast.BinOp object at 0x740763f978d0 -->
<g id="node51" class="node">
<title>ast.BinOp object at 0x740763f978d0</title>
<path fill="#66cdaa" stroke="black" d="M681.5,-180C681.5,-180 651.5,-180 651.5,-180 645.5,-180 639.5,-174 639.5,-168 639.5,-168 639.5,-156 639.5,-156 639.5,-150 645.5,-144 651.5,-144 651.5,-144 681.5,-144 681.5,-144 687.5,-144 693.5,-150 693.5,-156 693.5,-156 693.5,-168 693.5,-168 693.5,-174 687.5,-180 681.5,-180"/>
<text text-anchor="middle" x="666.5" y="-158.3" font-family="Times,serif" font-size="14.00">BinOp</text>
</g>
<!-- ast.Assign object at 0x740763f94e50&#45;&gt;ast.BinOp object at 0x740763f978d0 -->
<g id="edge67" class="edge">
<title>ast.Assign object at 0x740763f94e50&#45;&gt;ast.BinOp object at 0x740763f978d0</title>
<path fill="none" stroke="black" d="M809.25,-359.86C798.1,-349.94 784.36,-336.9 773.5,-324 736.32,-279.83 700.79,-222.33 681.49,-189.35"/>
<polygon fill="black" stroke="black" points="684.3,-187.23 676.26,-180.34 678.25,-190.75 684.3,-187.23"/>
</g>
<!-- ast.Name object at 0x740763f94350&#45;&gt;ast.Store object at 0x7408da337a90 -->
<g id="edge66" class="edge">
<title>ast.Name object at 0x740763f94350&#45;&gt;ast.Store object at 0x7408da337a90</title>
<path fill="none" stroke="black" d="M851.75,-287.7C863.08,-278.88 877.03,-268.03 889.32,-258.47"/>
<polygon fill="black" stroke="black" points="891.76,-261.01 897.51,-252.1 887.47,-255.48 891.76,-261.01"/>
</g>
<!-- ast.BinOp object at 0x740763f978d0&#45;&gt;ast.Sub object at 0x7408da337f90 -->
<g id="edge70" class="edge">
<title>ast.BinOp object at 0x740763f978d0&#45;&gt;ast.Sub object at 0x7408da337f90</title>
<path fill="none" stroke="black" d="M640.08,-143.88C626.09,-134.81 608.72,-123.55 593.61,-113.76"/>
<polygon fill="black" stroke="black" points="595.32,-110.69 585.02,-108.19 591.51,-116.57 595.32,-110.69"/>
</g>
<!-- ast.Name object at 0x740763f94e90 -->
<g id="node52" class="node">
<title>ast.Name object at 0x740763f94e90</title>
<path fill="#66cdaa" stroke="black" d="M645.5,-108C645.5,-108 615.5,-108 615.5,-108 609.5,-108 603.5,-102 603.5,-96 603.5,-96 603.5,-84 603.5,-84 603.5,-78 609.5,-72 615.5,-72 615.5,-72 645.5,-72 645.5,-72 651.5,-72 657.5,-78 657.5,-84 657.5,-84 657.5,-96 657.5,-96 657.5,-102 651.5,-108 645.5,-108"/>
<text text-anchor="middle" x="630.5" y="-86.3" font-family="Times,serif" font-size="14.00">Name</text>
</g>
<!-- ast.BinOp object at 0x740763f978d0&#45;&gt;ast.Name object at 0x740763f94e90 -->
<g id="edge68" class="edge">
<title>ast.BinOp object at 0x740763f978d0&#45;&gt;ast.Name object at 0x740763f94e90</title>
<path fill="none" stroke="black" d="M657.6,-143.7C653.5,-135.73 648.55,-126.1 644.01,-117.26"/>
<polygon fill="black" stroke="black" points="646.98,-115.4 639.3,-108.1 640.76,-118.6 646.98,-115.4"/>
</g>
<!-- ast.Name object at 0x740763f94510 -->
<g id="node53" class="node">
<title>ast.Name object at 0x740763f94510</title>
<path fill="#66cdaa" stroke="black" d="M717.5,-108C717.5,-108 687.5,-108 687.5,-108 681.5,-108 675.5,-102 675.5,-96 675.5,-96 675.5,-84 675.5,-84 675.5,-78 681.5,-72 687.5,-72 687.5,-72 717.5,-72 717.5,-72 723.5,-72 729.5,-78 729.5,-84 729.5,-84 729.5,-96 729.5,-96 729.5,-102 723.5,-108 717.5,-108"/>
<text text-anchor="middle" x="702.5" y="-86.3" font-family="Times,serif" font-size="14.00">Name</text>
</g>
<!-- ast.BinOp object at 0x740763f978d0&#45;&gt;ast.Name object at 0x740763f94510 -->
<g id="edge71" class="edge">
<title>ast.BinOp object at 0x740763f978d0&#45;&gt;ast.Name object at 0x740763f94510</title>
<path fill="none" stroke="black" d="M675.4,-143.7C679.5,-135.73 684.45,-126.1 688.99,-117.26"/>
<polygon fill="black" stroke="black" points="692.24,-118.6 693.7,-108.1 686.02,-115.4 692.24,-118.6"/>
</g>
<!-- ast.Name object at 0x740763f94e90&#45;&gt;ast.Load object at 0x7408da337a10 -->
<g id="edge69" class="edge">
<title>ast.Name object at 0x740763f94e90&#45;&gt;ast.Load object at 0x7408da337a10</title>
<path fill="none" stroke="black" d="M657.64,-74.99C660.58,-73.84 663.57,-72.81 666.5,-72 765.26,-44.89 1078.86,-26.53 1187.23,-20.86"/>
<polygon fill="black" stroke="black" points="1187.55,-24.35 1197.36,-20.33 1187.19,-17.36 1187.55,-24.35"/>
</g>
<!-- ast.Name object at 0x740763f94510&#45;&gt;ast.Load object at 0x7408da337a10 -->
<g id="edge72" class="edge">
<title>ast.Name object at 0x740763f94510&#45;&gt;ast.Load object at 0x7408da337a10</title>
<path fill="none" stroke="black" d="M729.65,-75.03C732.59,-73.87 735.57,-72.83 738.5,-72 901.08,-26.15 1104.62,-19.56 1187.16,-18.89"/>
<polygon fill="black" stroke="black" points="1187.32,-22.39 1197.3,-18.84 1187.28,-15.39 1187.32,-22.39"/>
</g>
<!-- ast.UnaryOp object at 0x740763f97ad0 -->
<g id="node55" class="node">
<title>ast.UnaryOp object at 0x740763f97ad0</title>
<path fill="#66cdaa" stroke="black" d="M1237,-468C1237,-468 1194,-468 1194,-468 1188,-468 1182,-462 1182,-456 1182,-456 1182,-444 1182,-444 1182,-438 1188,-432 1194,-432 1194,-432 1237,-432 1237,-432 1243,-432 1249,-438 1249,-444 1249,-444 1249,-456 1249,-456 1249,-462 1243,-468 1237,-468"/>
<text text-anchor="middle" x="1215.5" y="-446.3" font-family="Times,serif" font-size="14.00">UnaryOp</text>
</g>
<!-- ast.If object at 0x740763f97090&#45;&gt;ast.UnaryOp object at 0x740763f97ad0 -->
<g id="edge74" class="edge">
<title>ast.If object at 0x740763f97090&#45;&gt;ast.UnaryOp object at 0x740763f97ad0</title>
<path fill="none" stroke="black" d="M1151.51,-503.7C1162.22,-494.88 1175.39,-484.03 1187,-474.47"/>
<polygon fill="black" stroke="black" points="1189.24,-477.16 1194.73,-468.1 1184.79,-471.76 1189.24,-477.16"/>
</g>
<!-- ast.Return object at 0x7407633e8450 -->
<g id="node58" class="node">
<title>ast.Return object at 0x7407633e8450</title>
<path fill="#66cdaa" stroke="black" d="M1145.5,-468C1145.5,-468 1115.5,-468 1115.5,-468 1109.5,-468 1103.5,-462 1103.5,-456 1103.5,-456 1103.5,-444 1103.5,-444 1103.5,-438 1109.5,-432 1115.5,-432 1115.5,-432 1145.5,-432 1145.5,-432 1151.5,-432 1157.5,-438 1157.5,-444 1157.5,-444 1157.5,-456 1157.5,-456 1157.5,-462 1151.5,-468 1145.5,-468"/>
<text text-anchor="middle" x="1130.5" y="-446.3" font-family="Times,serif" font-size="14.00">Return</text>
</g>
<!-- ast.If object at 0x740763f97090&#45;&gt;ast.Return object at 0x7407633e8450 -->
<g id="edge78" class="edge">
<title>ast.If object at 0x740763f97090&#45;&gt;ast.Return object at 0x7407633e8450</title>
<path fill="none" stroke="black" d="M1130.5,-503.7C1130.5,-495.98 1130.5,-486.71 1130.5,-478.11"/>
<polygon fill="black" stroke="black" points="1134,-478.1 1130.5,-468.1 1127,-478.1 1134,-478.1"/>
</g>
<!-- ast.Not object at 0x7408da3487d0 -->
<g id="node56" class="node">
<title>ast.Not object at 0x7408da3487d0</title>
<path fill="#66cdaa" stroke="black" d="M1230.5,-396C1230.5,-396 1200.5,-396 1200.5,-396 1194.5,-396 1188.5,-390 1188.5,-384 1188.5,-384 1188.5,-372 1188.5,-372 1188.5,-366 1194.5,-360 1200.5,-360 1200.5,-360 1230.5,-360 1230.5,-360 1236.5,-360 1242.5,-366 1242.5,-372 1242.5,-372 1242.5,-384 1242.5,-384 1242.5,-390 1236.5,-396 1230.5,-396"/>
<text text-anchor="middle" x="1215.5" y="-374.3" font-family="Times,serif" font-size="14.00">Not</text>
</g>
<!-- ast.UnaryOp object at 0x740763f97ad0&#45;&gt;ast.Not object at 0x7408da3487d0 -->
<g id="edge75" class="edge">
<title>ast.UnaryOp object at 0x740763f97ad0&#45;&gt;ast.Not object at 0x7408da3487d0</title>
<path fill="none" stroke="black" d="M1215.5,-431.7C1215.5,-423.98 1215.5,-414.71 1215.5,-406.11"/>
<polygon fill="black" stroke="black" points="1219,-406.1 1215.5,-396.1 1212,-406.1 1219,-406.1"/>
</g>
<!-- ast.Name object at 0x74076290c410 -->
<g id="node57" class="node">
<title>ast.Name object at 0x74076290c410</title>
<path fill="#66cdaa" stroke="black" d="M1204.5,-252C1204.5,-252 1174.5,-252 1174.5,-252 1168.5,-252 1162.5,-246 1162.5,-240 1162.5,-240 1162.5,-228 1162.5,-228 1162.5,-222 1168.5,-216 1174.5,-216 1174.5,-216 1204.5,-216 1204.5,-216 1210.5,-216 1216.5,-222 1216.5,-228 1216.5,-228 1216.5,-240 1216.5,-240 1216.5,-246 1210.5,-252 1204.5,-252"/>
<text text-anchor="middle" x="1189.5" y="-230.3" font-family="Times,serif" font-size="14.00">Name</text>
</g>
<!-- ast.UnaryOp object at 0x740763f97ad0&#45;&gt;ast.Name object at 0x74076290c410 -->
<g id="edge76" class="edge">
<title>ast.UnaryOp object at 0x740763f97ad0&#45;&gt;ast.Name object at 0x74076290c410</title>
<path fill="none" stroke="black" d="M1231.11,-431.77C1238.87,-422.03 1247.45,-409.18 1251.5,-396 1256.2,-380.71 1254.26,-375.76 1251.5,-360 1245.63,-326.49 1240.96,-318.31 1225.5,-288 1220.77,-278.73 1214.7,-269.16 1208.89,-260.75"/>
<polygon fill="black" stroke="black" points="1211.64,-258.59 1203,-252.46 1205.94,-262.64 1211.64,-258.59"/>
</g>
<!-- ast.Name object at 0x74076290c410&#45;&gt;ast.Load object at 0x7408da337a10 -->
<g id="edge77" class="edge">
<title>ast.Name object at 0x74076290c410&#45;&gt;ast.Load object at 0x7408da337a10</title>
<path fill="none" stroke="black" d="M1204.68,-215.7C1212.23,-205.94 1220.57,-193.1 1224.5,-180 1238.08,-134.78 1233.74,-79.15 1229.22,-46.52"/>
<polygon fill="black" stroke="black" points="1232.64,-45.76 1227.7,-36.39 1225.72,-46.8 1232.64,-45.76"/>
</g>
<!-- ast.Constant object at 0x74076342be90 -->
<g id="node59" class="node">
<title>ast.Constant object at 0x74076342be90</title>
<path fill="#66cdaa" stroke="black" d="M1151,-396C1151,-396 1110,-396 1110,-396 1104,-396 1098,-390 1098,-384 1098,-384 1098,-372 1098,-372 1098,-366 1104,-360 1110,-360 1110,-360 1151,-360 1151,-360 1157,-360 1163,-366 1163,-372 1163,-372 1163,-384 1163,-384 1163,-390 1157,-396 1151,-396"/>
<text text-anchor="middle" x="1130.5" y="-374.3" font-family="Times,serif" font-size="14.00">Constant</text>
</g>
<!-- ast.Return object at 0x7407633e8450&#45;&gt;ast.Constant object at 0x74076342be90 -->
<g id="edge79" class="edge">
<title>ast.Return object at 0x7407633e8450&#45;&gt;ast.Constant object at 0x74076342be90</title>
<path fill="none" stroke="black" d="M1130.5,-431.7C1130.5,-423.98 1130.5,-414.71 1130.5,-406.11"/>
<polygon fill="black" stroke="black" points="1134,-406.1 1130.5,-396.1 1127,-406.1 1134,-406.1"/>
</g>
<!-- ast.Name object at 0x740763f9a690 -->
<g id="node61" class="node">
<title>ast.Name object at 0x740763f9a690</title>
<path fill="#66cdaa" stroke="black" d="M916.5,-324C916.5,-324 886.5,-324 886.5,-324 880.5,-324 874.5,-318 874.5,-312 874.5,-312 874.5,-300 874.5,-300 874.5,-294 880.5,-288 886.5,-288 886.5,-288 916.5,-288 916.5,-288 922.5,-288 928.5,-294 928.5,-300 928.5,-300 928.5,-312 928.5,-312 928.5,-318 922.5,-324 916.5,-324"/>
<text text-anchor="middle" x="901.5" y="-302.3" font-family="Times,serif" font-size="14.00">Name</text>
</g>
<!-- ast.Assign object at 0x740762f0d0d0&#45;&gt;ast.Name object at 0x740763f9a690 -->
<g id="edge81" class="edge">
<title>ast.Assign object at 0x740762f0d0d0&#45;&gt;ast.Name object at 0x740763f9a690</title>
<path fill="none" stroke="black" d="M901.5,-359.7C901.5,-351.98 901.5,-342.71 901.5,-334.11"/>
<polygon fill="black" stroke="black" points="905,-334.1 901.5,-324.1 898,-334.1 905,-334.1"/>
</g>
<!-- ast.Call object at 0x740763f9abd0 -->
<g id="node62" class="node">
<title>ast.Call object at 0x740763f9abd0</title>
<path fill="#66cdaa" stroke="black" d="M789.5,-180C789.5,-180 759.5,-180 759.5,-180 753.5,-180 747.5,-174 747.5,-168 747.5,-168 747.5,-156 747.5,-156 747.5,-150 753.5,-144 759.5,-144 759.5,-144 789.5,-144 789.5,-144 795.5,-144 801.5,-150 801.5,-156 801.5,-156 801.5,-168 801.5,-168 801.5,-174 795.5,-180 789.5,-180"/>
<text text-anchor="middle" x="774.5" y="-158.3" font-family="Times,serif" font-size="14.00">Call</text>
</g>
<!-- ast.Assign object at 0x740762f0d0d0&#45;&gt;ast.Call object at 0x740763f9abd0 -->
<g id="edge83" class="edge">
<title>ast.Assign object at 0x740762f0d0d0&#45;&gt;ast.Call object at 0x740763f9abd0</title>
<path fill="none" stroke="black" d="M874.39,-364.09C842.82,-348.99 794.79,-325.83 793.5,-324 765.4,-284.31 766.58,-224.84 770.31,-190.39"/>
<polygon fill="black" stroke="black" points="773.83,-190.49 771.58,-180.13 766.88,-189.63 773.83,-190.49"/>
</g>
<!-- ast.Name object at 0x740763f9a690&#45;&gt;ast.Store object at 0x7408da337a90 -->
<g id="edge82" class="edge">
<title>ast.Name object at 0x740763f9a690&#45;&gt;ast.Store object at 0x7408da337a90</title>
<path fill="none" stroke="black" d="M905.95,-287.7C907.95,-279.9 910.37,-270.51 912.6,-261.83"/>
<polygon fill="black" stroke="black" points="916,-262.66 915.1,-252.1 909.22,-260.92 916,-262.66"/>
</g>
<!-- ast.Name object at 0x740763f9bc90 -->
<g id="node63" class="node">
<title>ast.Name object at 0x740763f9bc90</title>
<path fill="#66cdaa" stroke="black" d="M789.5,-108C789.5,-108 759.5,-108 759.5,-108 753.5,-108 747.5,-102 747.5,-96 747.5,-96 747.5,-84 747.5,-84 747.5,-78 753.5,-72 759.5,-72 759.5,-72 789.5,-72 789.5,-72 795.5,-72 801.5,-78 801.5,-84 801.5,-84 801.5,-96 801.5,-96 801.5,-102 795.5,-108 789.5,-108"/>
<text text-anchor="middle" x="774.5" y="-86.3" font-family="Times,serif" font-size="14.00">Name</text>
</g>
<!-- ast.Call object at 0x740763f9abd0&#45;&gt;ast.Name object at 0x740763f9bc90 -->
<g id="edge84" class="edge">
<title>ast.Call object at 0x740763f9abd0&#45;&gt;ast.Name object at 0x740763f9bc90</title>
<path fill="none" stroke="black" d="M774.5,-143.7C774.5,-135.98 774.5,-126.71 774.5,-118.11"/>
<polygon fill="black" stroke="black" points="778,-118.1 774.5,-108.1 771,-118.1 778,-118.1"/>
</g>
<!-- ast.Name object at 0x740763f9a6d0 -->
<g id="node64" class="node">
<title>ast.Name object at 0x740763f9a6d0</title>
<path fill="#66cdaa" stroke="black" d="M861.5,-108C861.5,-108 831.5,-108 831.5,-108 825.5,-108 819.5,-102 819.5,-96 819.5,-96 819.5,-84 819.5,-84 819.5,-78 825.5,-72 831.5,-72 831.5,-72 861.5,-72 861.5,-72 867.5,-72 873.5,-78 873.5,-84 873.5,-84 873.5,-96 873.5,-96 873.5,-102 867.5,-108 861.5,-108"/>
<text text-anchor="middle" x="846.5" y="-86.3" font-family="Times,serif" font-size="14.00">Name</text>
</g>
<!-- ast.Call object at 0x740763f9abd0&#45;&gt;ast.Name object at 0x740763f9a6d0 -->
<g id="edge86" class="edge">
<title>ast.Call object at 0x740763f9abd0&#45;&gt;ast.Name object at 0x740763f9a6d0</title>
<path fill="none" stroke="black" d="M792.3,-143.7C801.1,-135.14 811.88,-124.66 821.5,-115.3"/>
<polygon fill="black" stroke="black" points="824.18,-117.58 828.91,-108.1 819.3,-112.57 824.18,-117.58"/>
</g>
<!-- ast.Name object at 0x740763f9bc90&#45;&gt;ast.Load object at 0x7408da337a10 -->
<g id="edge85" class="edge">
<title>ast.Name object at 0x740763f9bc90&#45;&gt;ast.Load object at 0x7408da337a10</title>
<path fill="none" stroke="black" d="M801.67,-75.09C804.6,-73.91 807.58,-72.85 810.5,-72 945.41,-32.58 1113.54,-22.47 1187.11,-19.88"/>
<polygon fill="black" stroke="black" points="1187.38,-23.38 1197.27,-19.56 1187.16,-16.38 1187.38,-23.38"/>
</g>
<!-- ast.Name object at 0x740763f9a6d0&#45;&gt;ast.Load object at 0x7408da337a10 -->
<g id="edge87" class="edge">
<title>ast.Name object at 0x740763f9a6d0&#45;&gt;ast.Load object at 0x7408da337a10</title>
<path fill="none" stroke="black" d="M873.69,-75.17C876.62,-73.98 879.59,-72.89 882.5,-72 990.02,-39.04 1123.14,-25.94 1186.94,-21.29"/>
<polygon fill="black" stroke="black" points="1187.57,-24.75 1197.3,-20.56 1187.08,-17.77 1187.57,-24.75"/>
</g>
<!-- ast.BinOp object at 0x740763f9ba10 -->
<g id="node66" class="node">
<title>ast.BinOp object at 0x740763f9ba10</title>
<path fill="#66cdaa" stroke="black" d="M1954.5,-468C1954.5,-468 1924.5,-468 1924.5,-468 1918.5,-468 1912.5,-462 1912.5,-456 1912.5,-456 1912.5,-444 1912.5,-444 1912.5,-438 1918.5,-432 1924.5,-432 1924.5,-432 1954.5,-432 1954.5,-432 1960.5,-432 1966.5,-438 1966.5,-444 1966.5,-444 1966.5,-456 1966.5,-456 1966.5,-462 1960.5,-468 1954.5,-468"/>
<text text-anchor="middle" x="1939.5" y="-446.3" font-family="Times,serif" font-size="14.00">BinOp</text>
</g>
<!-- ast.If object at 0x740763f9aad0&#45;&gt;ast.BinOp object at 0x740763f9ba10 -->
<g id="edge89" class="edge">
<title>ast.If object at 0x740763f9aad0&#45;&gt;ast.BinOp object at 0x740763f9ba10</title>
<path fill="none" stroke="black" d="M1712.68,-513.51C1758.39,-500.91 1850.72,-475.47 1902.37,-461.23"/>
<polygon fill="black" stroke="black" points="1903.42,-464.57 1912.13,-458.54 1901.56,-457.83 1903.42,-464.57"/>
</g>
<!-- ast.Return object at 0x740763f9bdd0 -->
<g id="node70" class="node">
<title>ast.Return object at 0x740763f9bdd0</title>
<path fill="#66cdaa" stroke="black" d="M1663.5,-468C1663.5,-468 1633.5,-468 1633.5,-468 1627.5,-468 1621.5,-462 1621.5,-456 1621.5,-456 1621.5,-444 1621.5,-444 1621.5,-438 1627.5,-432 1633.5,-432 1633.5,-432 1663.5,-432 1663.5,-432 1669.5,-432 1675.5,-438 1675.5,-444 1675.5,-444 1675.5,-456 1675.5,-456 1675.5,-462 1669.5,-468 1663.5,-468"/>
<text text-anchor="middle" x="1648.5" y="-446.3" font-family="Times,serif" font-size="14.00">Return</text>
</g>
<!-- ast.If object at 0x740763f9aad0&#45;&gt;ast.Return object at 0x740763f9bdd0 -->
<g id="edge94" class="edge">
<title>ast.If object at 0x740763f9aad0&#45;&gt;ast.Return object at 0x740763f9bdd0</title>
<path fill="none" stroke="black" d="M1676.35,-503.7C1672.1,-495.64 1666.94,-485.89 1662.23,-476.98"/>
<polygon fill="black" stroke="black" points="1665.31,-475.31 1657.54,-468.1 1659.12,-478.58 1665.31,-475.31"/>
</g>
<!-- ast.Return object at 0x740763f9b990 -->
<g id="node77" class="node">
<title>ast.Return object at 0x740763f9b990</title>
<path fill="#66cdaa" stroke="black" d="M1738.5,-468C1738.5,-468 1708.5,-468 1708.5,-468 1702.5,-468 1696.5,-462 1696.5,-456 1696.5,-456 1696.5,-444 1696.5,-444 1696.5,-438 1702.5,-432 1708.5,-432 1708.5,-432 1738.5,-432 1738.5,-432 1744.5,-432 1750.5,-438 1750.5,-444 1750.5,-444 1750.5,-456 1750.5,-456 1750.5,-462 1744.5,-468 1738.5,-468"/>
<text text-anchor="middle" x="1723.5" y="-446.3" font-family="Times,serif" font-size="14.00">Return</text>
</g>
<!-- ast.If object at 0x740763f9aad0&#45;&gt;ast.Return object at 0x740763f9b990 -->
<g id="edge104" class="edge">
<title>ast.If object at 0x740763f9aad0&#45;&gt;ast.Return object at 0x740763f9b990</title>
<path fill="none" stroke="black" d="M1694.89,-503.7C1699.26,-495.64 1704.56,-485.89 1709.4,-476.98"/>
<polygon fill="black" stroke="black" points="1712.52,-478.56 1714.21,-468.1 1706.37,-475.22 1712.52,-478.56"/>
</g>
<!-- ast.Name object at 0x740763f986d0 -->
<g id="node67" class="node">
<title>ast.Name object at 0x740763f986d0</title>
<path fill="#66cdaa" stroke="black" d="M2035.5,-252C2035.5,-252 2005.5,-252 2005.5,-252 1999.5,-252 1993.5,-246 1993.5,-240 1993.5,-240 1993.5,-228 1993.5,-228 1993.5,-222 1999.5,-216 2005.5,-216 2005.5,-216 2035.5,-216 2035.5,-216 2041.5,-216 2047.5,-222 2047.5,-228 2047.5,-228 2047.5,-240 2047.5,-240 2047.5,-246 2041.5,-252 2035.5,-252"/>
<text text-anchor="middle" x="2020.5" y="-230.3" font-family="Times,serif" font-size="14.00">Name</text>
</g>
<!-- ast.BinOp object at 0x740763f9ba10&#45;&gt;ast.Name object at 0x740763f986d0 -->
<g id="edge90" class="edge">
<title>ast.BinOp object at 0x740763f9ba10&#45;&gt;ast.Name object at 0x740763f986d0</title>
<path fill="none" stroke="black" d="M1966.63,-439.32C1985.47,-431 2009.15,-416.99 2020.5,-396 2043.29,-353.85 2035.56,-295.94 2027.96,-262.29"/>
<polygon fill="black" stroke="black" points="2031.29,-261.17 2025.54,-252.27 2024.48,-262.81 2031.29,-261.17"/>
</g>
<!-- ast.Mod object at 0x7408da3481d0 -->
<g id="node68" class="node">
<title>ast.Mod object at 0x7408da3481d0</title>
<path fill="#66cdaa" stroke="black" d="M1915.5,-396C1915.5,-396 1885.5,-396 1885.5,-396 1879.5,-396 1873.5,-390 1873.5,-384 1873.5,-384 1873.5,-372 1873.5,-372 1873.5,-366 1879.5,-360 1885.5,-360 1885.5,-360 1915.5,-360 1915.5,-360 1921.5,-360 1927.5,-366 1927.5,-372 1927.5,-372 1927.5,-384 1927.5,-384 1927.5,-390 1921.5,-396 1915.5,-396"/>
<text text-anchor="middle" x="1900.5" y="-374.3" font-family="Times,serif" font-size="14.00">Mod</text>
</g>
<!-- ast.BinOp object at 0x740763f9ba10&#45;&gt;ast.Mod object at 0x7408da3481d0 -->
<g id="edge92" class="edge">
<title>ast.BinOp object at 0x740763f9ba10&#45;&gt;ast.Mod object at 0x7408da3481d0</title>
<path fill="none" stroke="black" d="M1929.86,-431.7C1925.37,-423.64 1919.94,-413.89 1914.98,-404.98"/>
<polygon fill="black" stroke="black" points="1917.95,-403.14 1910.03,-396.1 1911.84,-406.54 1917.95,-403.14"/>
</g>
<!-- ast.Constant object at 0x740763f980d0 -->
<g id="node69" class="node">
<title>ast.Constant object at 0x740763f980d0</title>
<path fill="#66cdaa" stroke="black" d="M1999,-396C1999,-396 1958,-396 1958,-396 1952,-396 1946,-390 1946,-384 1946,-384 1946,-372 1946,-372 1946,-366 1952,-360 1958,-360 1958,-360 1999,-360 1999,-360 2005,-360 2011,-366 2011,-372 2011,-372 2011,-384 2011,-384 2011,-390 2005,-396 1999,-396"/>
<text text-anchor="middle" x="1978.5" y="-374.3" font-family="Times,serif" font-size="14.00">Constant</text>
</g>
<!-- ast.BinOp object at 0x740763f9ba10&#45;&gt;ast.Constant object at 0x740763f980d0 -->
<g id="edge93" class="edge">
<title>ast.BinOp object at 0x740763f9ba10&#45;&gt;ast.Constant object at 0x740763f980d0</title>
<path fill="none" stroke="black" d="M1949.14,-431.7C1953.63,-423.64 1959.06,-413.89 1964.02,-404.98"/>
<polygon fill="black" stroke="black" points="1967.16,-406.54 1968.97,-396.1 1961.05,-403.14 1967.16,-406.54"/>
</g>
<!-- ast.Name object at 0x740763f986d0&#45;&gt;ast.Load object at 0x7408da337a10 -->
<g id="edge91" class="edge">
<title>ast.Name object at 0x740763f986d0&#45;&gt;ast.Load object at 0x7408da337a10</title>
<path fill="none" stroke="black" d="M2028.01,-215.96C2041.13,-183.28 2063.49,-111.51 2026.5,-72 1973.77,-15.67 1413.43,-17.11 1262.03,-18.55"/>
<polygon fill="black" stroke="black" points="1261.81,-15.05 1251.84,-18.65 1261.88,-22.05 1261.81,-15.05"/>
</g>
<!-- ast.Subscript object at 0x740763f9b9d0 -->
<g id="node71" class="node">
<title>ast.Subscript object at 0x740763f9b9d0</title>
<path fill="#66cdaa" stroke="black" d="M1643.5,-252C1643.5,-252 1599.5,-252 1599.5,-252 1593.5,-252 1587.5,-246 1587.5,-240 1587.5,-240 1587.5,-228 1587.5,-228 1587.5,-222 1593.5,-216 1599.5,-216 1599.5,-216 1643.5,-216 1643.5,-216 1649.5,-216 1655.5,-222 1655.5,-228 1655.5,-228 1655.5,-240 1655.5,-240 1655.5,-246 1649.5,-252 1643.5,-252"/>
<text text-anchor="middle" x="1621.5" y="-230.3" font-family="Times,serif" font-size="14.00">Subscript</text>
</g>
<!-- ast.Return object at 0x740763f9bdd0&#45;&gt;ast.Subscript object at 0x740763f9b9d0 -->
<g id="edge95" class="edge">
<title>ast.Return object at 0x740763f9bdd0&#45;&gt;ast.Subscript object at 0x740763f9b9d0</title>
<path fill="none" stroke="black" d="M1646.34,-431.85C1641.67,-394.83 1630.61,-307.18 1624.96,-262.39"/>
<polygon fill="black" stroke="black" points="1628.4,-261.72 1623.67,-252.23 1621.45,-262.59 1628.4,-261.72"/>
</g>
<!-- ast.Subscript object at 0x740763f9b9d0&#45;&gt;ast.Load object at 0x7408da337a10 -->
<g id="edge103" class="edge">
<title>ast.Subscript object at 0x740763f9b9d0&#45;&gt;ast.Load object at 0x7408da337a10</title>
<path fill="none" stroke="black" d="M1625.22,-215.83C1631.23,-182.91 1638.87,-110.77 1600.5,-72 1553.7,-24.72 1346.98,-19.05 1261.59,-18.76"/>
<polygon fill="black" stroke="black" points="1261.57,-15.26 1251.56,-18.75 1261.56,-22.26 1261.57,-15.26"/>
</g>
<!-- ast.Call object at 0x740763f9bbd0 -->
<g id="node72" class="node">
<title>ast.Call object at 0x740763f9bbd0</title>
<path fill="#66cdaa" stroke="black" d="M1579.5,-180C1579.5,-180 1549.5,-180 1549.5,-180 1543.5,-180 1537.5,-174 1537.5,-168 1537.5,-168 1537.5,-156 1537.5,-156 1537.5,-150 1543.5,-144 1549.5,-144 1549.5,-144 1579.5,-144 1579.5,-144 1585.5,-144 1591.5,-150 1591.5,-156 1591.5,-156 1591.5,-168 1591.5,-168 1591.5,-174 1585.5,-180 1579.5,-180"/>
<text text-anchor="middle" x="1564.5" y="-158.3" font-family="Times,serif" font-size="14.00">Call</text>
</g>
<!-- ast.Subscript object at 0x740763f9b9d0&#45;&gt;ast.Call object at 0x740763f9bbd0 -->
<g id="edge96" class="edge">
<title>ast.Subscript object at 0x740763f9b9d0&#45;&gt;ast.Call object at 0x740763f9bbd0</title>
<path fill="none" stroke="black" d="M1607.41,-215.7C1600.58,-207.3 1592.24,-197.07 1584.74,-187.86"/>
<polygon fill="black" stroke="black" points="1587.46,-185.65 1578.43,-180.1 1582.03,-190.07 1587.46,-185.65"/>
</g>
<!-- ast.Slice object at 0x740763f9ab50 -->
<g id="node75" class="node">
<title>ast.Slice object at 0x740763f9ab50</title>
<path fill="#66cdaa" stroke="black" d="M1692.5,-180C1692.5,-180 1662.5,-180 1662.5,-180 1656.5,-180 1650.5,-174 1650.5,-168 1650.5,-168 1650.5,-156 1650.5,-156 1650.5,-150 1656.5,-144 1662.5,-144 1662.5,-144 1692.5,-144 1692.5,-144 1698.5,-144 1704.5,-150 1704.5,-156 1704.5,-156 1704.5,-168 1704.5,-168 1704.5,-174 1698.5,-180 1692.5,-180"/>
<text text-anchor="middle" x="1677.5" y="-158.3" font-family="Times,serif" font-size="14.00">Slice</text>
</g>
<!-- ast.Subscript object at 0x740763f9b9d0&#45;&gt;ast.Slice object at 0x740763f9ab50 -->
<g id="edge101" class="edge">
<title>ast.Subscript object at 0x740763f9b9d0&#45;&gt;ast.Slice object at 0x740763f9ab50</title>
<path fill="none" stroke="black" d="M1635.34,-215.7C1641.99,-207.39 1650.08,-197.28 1657.39,-188.14"/>
<polygon fill="black" stroke="black" points="1660.3,-190.1 1663.82,-180.1 1654.84,-185.73 1660.3,-190.1"/>
</g>
<!-- ast.Name object at 0x740763f98f90 -->
<g id="node73" class="node">
<title>ast.Name object at 0x740763f98f90</title>
<path fill="#66cdaa" stroke="black" d="M1507.5,-108C1507.5,-108 1477.5,-108 1477.5,-108 1471.5,-108 1465.5,-102 1465.5,-96 1465.5,-96 1465.5,-84 1465.5,-84 1465.5,-78 1471.5,-72 1477.5,-72 1477.5,-72 1507.5,-72 1507.5,-72 1513.5,-72 1519.5,-78 1519.5,-84 1519.5,-84 1519.5,-96 1519.5,-96 1519.5,-102 1513.5,-108 1507.5,-108"/>
<text text-anchor="middle" x="1492.5" y="-86.3" font-family="Times,serif" font-size="14.00">Name</text>
</g>
<!-- ast.Call object at 0x740763f9bbd0&#45;&gt;ast.Name object at 0x740763f98f90 -->
<g id="edge97" class="edge">
<title>ast.Call object at 0x740763f9bbd0&#45;&gt;ast.Name object at 0x740763f98f90</title>
<path fill="none" stroke="black" d="M1546.7,-143.7C1537.9,-135.14 1527.12,-124.66 1517.5,-115.3"/>
<polygon fill="black" stroke="black" points="1519.7,-112.57 1510.09,-108.1 1514.82,-117.58 1519.7,-112.57"/>
</g>
<!-- ast.Name object at 0x740763f9b890 -->
<g id="node74" class="node">
<title>ast.Name object at 0x740763f9b890</title>
<path fill="#66cdaa" stroke="black" d="M1579.5,-108C1579.5,-108 1549.5,-108 1549.5,-108 1543.5,-108 1537.5,-102 1537.5,-96 1537.5,-96 1537.5,-84 1537.5,-84 1537.5,-78 1543.5,-72 1549.5,-72 1549.5,-72 1579.5,-72 1579.5,-72 1585.5,-72 1591.5,-78 1591.5,-84 1591.5,-84 1591.5,-96 1591.5,-96 1591.5,-102 1585.5,-108 1579.5,-108"/>
<text text-anchor="middle" x="1564.5" y="-86.3" font-family="Times,serif" font-size="14.00">Name</text>
</g>
<!-- ast.Call object at 0x740763f9bbd0&#45;&gt;ast.Name object at 0x740763f9b890 -->
<g id="edge99" class="edge">
<title>ast.Call object at 0x740763f9bbd0&#45;&gt;ast.Name object at 0x740763f9b890</title>
<path fill="none" stroke="black" d="M1564.5,-143.7C1564.5,-135.98 1564.5,-126.71 1564.5,-118.11"/>
<polygon fill="black" stroke="black" points="1568,-118.1 1564.5,-108.1 1561,-118.1 1568,-118.1"/>
</g>
<!-- ast.Name object at 0x740763f98f90&#45;&gt;ast.Load object at 0x7408da337a10 -->
<g id="edge98" class="edge">
<title>ast.Name object at 0x740763f98f90&#45;&gt;ast.Load object at 0x7408da337a10</title>
<path fill="none" stroke="black" d="M1465.39,-77.03C1460.8,-75.21 1456.05,-73.46 1451.5,-72 1385.91,-50.9 1307.17,-34.43 1261.78,-25.76"/>
<polygon fill="black" stroke="black" points="1262.27,-22.29 1251.8,-23.87 1260.97,-29.17 1262.27,-22.29"/>
</g>
<!-- ast.Name object at 0x740763f9b890&#45;&gt;ast.Load object at 0x7408da337a10 -->
<g id="edge100" class="edge">
<title>ast.Name object at 0x740763f9b890&#45;&gt;ast.Load object at 0x7408da337a10</title>
<path fill="none" stroke="black" d="M1537.29,-75.22C1534.37,-74.02 1531.4,-72.92 1528.5,-72 1434.99,-42.37 1319.72,-28.01 1261.66,-22.24"/>
<polygon fill="black" stroke="black" points="1261.8,-18.73 1251.51,-21.26 1261.12,-25.7 1261.8,-18.73"/>
</g>
<!-- ast.Constant object at 0x740763f9ba90 -->
<g id="node76" class="node">
<title>ast.Constant object at 0x740763f9ba90</title>
<path fill="#66cdaa" stroke="black" d="M1701,-108C1701,-108 1660,-108 1660,-108 1654,-108 1648,-102 1648,-96 1648,-96 1648,-84 1648,-84 1648,-78 1654,-72 1660,-72 1660,-72 1701,-72 1701,-72 1707,-72 1713,-78 1713,-84 1713,-84 1713,-96 1713,-96 1713,-102 1707,-108 1701,-108"/>
<text text-anchor="middle" x="1680.5" y="-86.3" font-family="Times,serif" font-size="14.00">Constant</text>
</g>
<!-- ast.Slice object at 0x740763f9ab50&#45;&gt;ast.Constant object at 0x740763f9ba90 -->
<g id="edge102" class="edge">
<title>ast.Slice object at 0x740763f9ab50&#45;&gt;ast.Constant object at 0x740763f9ba90</title>
<path fill="none" stroke="black" d="M1678.24,-143.7C1678.57,-135.98 1678.97,-126.71 1679.34,-118.11"/>
<polygon fill="black" stroke="black" points="1682.84,-118.25 1679.77,-108.1 1675.84,-117.95 1682.84,-118.25"/>
</g>
<!-- ast.Call object at 0x740763f9b950 -->
<g id="node78" class="node">
<title>ast.Call object at 0x740763f9b950</title>
<path fill="#66cdaa" stroke="black" d="M1744.5,-396C1744.5,-396 1714.5,-396 1714.5,-396 1708.5,-396 1702.5,-390 1702.5,-384 1702.5,-384 1702.5,-372 1702.5,-372 1702.5,-366 1708.5,-360 1714.5,-360 1714.5,-360 1744.5,-360 1744.5,-360 1750.5,-360 1756.5,-366 1756.5,-372 1756.5,-372 1756.5,-384 1756.5,-384 1756.5,-390 1750.5,-396 1744.5,-396"/>
<text text-anchor="middle" x="1729.5" y="-374.3" font-family="Times,serif" font-size="14.00">Call</text>
</g>
<!-- ast.Return object at 0x740763f9b990&#45;&gt;ast.Call object at 0x740763f9b950 -->
<g id="edge105" class="edge">
<title>ast.Return object at 0x740763f9b990&#45;&gt;ast.Call object at 0x740763f9b950</title>
<path fill="none" stroke="black" d="M1724.98,-431.7C1725.64,-423.98 1726.44,-414.71 1727.18,-406.11"/>
<polygon fill="black" stroke="black" points="1730.67,-406.37 1728.03,-396.1 1723.69,-405.77 1730.67,-406.37"/>
</g>
<!-- ast.Attribute object at 0x740763f9ba50 -->
<g id="node79" class="node">
<title>ast.Attribute object at 0x740763f9ba50</title>
<path fill="#66cdaa" stroke="black" d="M1762,-324C1762,-324 1721,-324 1721,-324 1715,-324 1709,-318 1709,-312 1709,-312 1709,-300 1709,-300 1709,-294 1715,-288 1721,-288 1721,-288 1762,-288 1762,-288 1768,-288 1774,-294 1774,-300 1774,-300 1774,-312 1774,-312 1774,-318 1768,-324 1762,-324"/>
<text text-anchor="middle" x="1741.5" y="-302.3" font-family="Times,serif" font-size="14.00">Attribute</text>
</g>
<!-- ast.Call object at 0x740763f9b950&#45;&gt;ast.Attribute object at 0x740763f9ba50 -->
<g id="edge106" class="edge">
<title>ast.Call object at 0x740763f9b950&#45;&gt;ast.Attribute object at 0x740763f9ba50</title>
<path fill="none" stroke="black" d="M1732.47,-359.7C1733.79,-351.98 1735.38,-342.71 1736.85,-334.11"/>
<polygon fill="black" stroke="black" points="1740.33,-334.55 1738.57,-324.1 1733.43,-333.37 1740.33,-334.55"/>
</g>
<!-- ast.Attribute object at 0x740763f9ba50&#45;&gt;ast.Load object at 0x7408da337a10 -->
<g id="edge116" class="edge">
<title>ast.Attribute object at 0x740763f9ba50&#45;&gt;ast.Load object at 0x7408da337a10</title>
<path fill="none" stroke="black" d="M1746.54,-287.72C1757.94,-244.59 1780.46,-131.41 1722.5,-72 1690.44,-39.14 1372.28,-24.42 1261.94,-20.28"/>
<polygon fill="black" stroke="black" points="1261.75,-16.77 1251.63,-19.9 1261.5,-23.77 1261.75,-16.77"/>
</g>
<!-- ast.Subscript object at 0x740763f9b5d0 -->
<g id="node80" class="node">
<title>ast.Subscript object at 0x740763f9b5d0</title>
<path fill="#66cdaa" stroke="black" d="M1914.5,-252C1914.5,-252 1870.5,-252 1870.5,-252 1864.5,-252 1858.5,-246 1858.5,-240 1858.5,-240 1858.5,-228 1858.5,-228 1858.5,-222 1864.5,-216 1870.5,-216 1870.5,-216 1914.5,-216 1914.5,-216 1920.5,-216 1926.5,-222 1926.5,-228 1926.5,-228 1926.5,-240 1926.5,-240 1926.5,-246 1920.5,-252 1914.5,-252"/>
<text text-anchor="middle" x="1892.5" y="-230.3" font-family="Times,serif" font-size="14.00">Subscript</text>
</g>
<!-- ast.Attribute object at 0x740763f9ba50&#45;&gt;ast.Subscript object at 0x740763f9b5d0 -->
<g id="edge107" class="edge">
<title>ast.Attribute object at 0x740763f9ba50&#45;&gt;ast.Subscript object at 0x740763f9b5d0</title>
<path fill="none" stroke="black" d="M1774.26,-289.81C1796.24,-279.62 1825.42,-266.1 1849.29,-255.03"/>
<polygon fill="black" stroke="black" points="1850.89,-258.15 1858.49,-250.77 1847.95,-251.8 1850.89,-258.15"/>
</g>
<!-- ast.Subscript object at 0x740763f9b5d0&#45;&gt;ast.Load object at 0x7408da337a10 -->
<g id="edge115" class="edge">
<title>ast.Subscript object at 0x740763f9b5d0&#45;&gt;ast.Load object at 0x7408da337a10</title>
<path fill="none" stroke="black" d="M1901,-215.76C1915.76,-183.05 1941.24,-111.71 1904.5,-72 1860.66,-24.61 1397.98,-19.5 1261.93,-19.02"/>
<polygon fill="black" stroke="black" points="1261.62,-15.52 1251.61,-19 1261.6,-22.52 1261.62,-15.52"/>
</g>
<!-- ast.Call object at 0x740763f99590 -->
<g id="node81" class="node">
<title>ast.Call object at 0x740763f99590</title>
<path fill="#66cdaa" stroke="black" d="M1883.5,-180C1883.5,-180 1853.5,-180 1853.5,-180 1847.5,-180 1841.5,-174 1841.5,-168 1841.5,-168 1841.5,-156 1841.5,-156 1841.5,-150 1847.5,-144 1853.5,-144 1853.5,-144 1883.5,-144 1883.5,-144 1889.5,-144 1895.5,-150 1895.5,-156 1895.5,-156 1895.5,-168 1895.5,-168 1895.5,-174 1889.5,-180 1883.5,-180"/>
<text text-anchor="middle" x="1868.5" y="-158.3" font-family="Times,serif" font-size="14.00">Call</text>
</g>
<!-- ast.Subscript object at 0x740763f9b5d0&#45;&gt;ast.Call object at 0x740763f99590 -->
<g id="edge108" class="edge">
<title>ast.Subscript object at 0x740763f9b5d0&#45;&gt;ast.Call object at 0x740763f99590</title>
<path fill="none" stroke="black" d="M1886.57,-215.7C1883.89,-207.9 1880.67,-198.51 1877.7,-189.83"/>
<polygon fill="black" stroke="black" points="1880.92,-188.43 1874.36,-180.1 1874.3,-190.7 1880.92,-188.43"/>
</g>
<!-- ast.Slice object at 0x74076366c510 -->
<g id="node84" class="node">
<title>ast.Slice object at 0x74076366c510</title>
<path fill="#66cdaa" stroke="black" d="M1996.5,-180C1996.5,-180 1966.5,-180 1966.5,-180 1960.5,-180 1954.5,-174 1954.5,-168 1954.5,-168 1954.5,-156 1954.5,-156 1954.5,-150 1960.5,-144 1966.5,-144 1966.5,-144 1996.5,-144 1996.5,-144 2002.5,-144 2008.5,-150 2008.5,-156 2008.5,-156 2008.5,-168 2008.5,-168 2008.5,-174 2002.5,-180 1996.5,-180"/>
<text text-anchor="middle" x="1981.5" y="-158.3" font-family="Times,serif" font-size="14.00">Slice</text>
</g>
<!-- ast.Subscript object at 0x740763f9b5d0&#45;&gt;ast.Slice object at 0x74076366c510 -->
<g id="edge113" class="edge">
<title>ast.Subscript object at 0x740763f9b5d0&#45;&gt;ast.Slice object at 0x74076366c510</title>
<path fill="none" stroke="black" d="M1914.5,-215.7C1925.71,-206.88 1939.5,-196.03 1951.65,-186.47"/>
<polygon fill="black" stroke="black" points="1954.06,-189.04 1959.75,-180.1 1949.73,-183.54 1954.06,-189.04"/>
</g>
<!-- ast.Name object at 0x740763f99790 -->
<g id="node82" class="node">
<title>ast.Name object at 0x740763f99790</title>
<path fill="#66cdaa" stroke="black" d="M1811.5,-108C1811.5,-108 1781.5,-108 1781.5,-108 1775.5,-108 1769.5,-102 1769.5,-96 1769.5,-96 1769.5,-84 1769.5,-84 1769.5,-78 1775.5,-72 1781.5,-72 1781.5,-72 1811.5,-72 1811.5,-72 1817.5,-72 1823.5,-78 1823.5,-84 1823.5,-84 1823.5,-96 1823.5,-96 1823.5,-102 1817.5,-108 1811.5,-108"/>
<text text-anchor="middle" x="1796.5" y="-86.3" font-family="Times,serif" font-size="14.00">Name</text>
</g>
<!-- ast.Call object at 0x740763f99590&#45;&gt;ast.Name object at 0x740763f99790 -->
<g id="edge109" class="edge">
<title>ast.Call object at 0x740763f99590&#45;&gt;ast.Name object at 0x740763f99790</title>
<path fill="none" stroke="black" d="M1850.7,-143.7C1841.9,-135.14 1831.12,-124.66 1821.5,-115.3"/>
<polygon fill="black" stroke="black" points="1823.7,-112.57 1814.09,-108.1 1818.82,-117.58 1823.7,-112.57"/>
</g>
<!-- ast.Name object at 0x740763f99b90 -->
<g id="node83" class="node">
<title>ast.Name object at 0x740763f99b90</title>
<path fill="#66cdaa" stroke="black" d="M1883.5,-108C1883.5,-108 1853.5,-108 1853.5,-108 1847.5,-108 1841.5,-102 1841.5,-96 1841.5,-96 1841.5,-84 1841.5,-84 1841.5,-78 1847.5,-72 1853.5,-72 1853.5,-72 1883.5,-72 1883.5,-72 1889.5,-72 1895.5,-78 1895.5,-84 1895.5,-84 1895.5,-96 1895.5,-96 1895.5,-102 1889.5,-108 1883.5,-108"/>
<text text-anchor="middle" x="1868.5" y="-86.3" font-family="Times,serif" font-size="14.00">Name</text>
</g>
<!-- ast.Call object at 0x740763f99590&#45;&gt;ast.Name object at 0x740763f99b90 -->
<g id="edge111" class="edge">
<title>ast.Call object at 0x740763f99590&#45;&gt;ast.Name object at 0x740763f99b90</title>
<path fill="none" stroke="black" d="M1868.5,-143.7C1868.5,-135.98 1868.5,-126.71 1868.5,-118.11"/>
<polygon fill="black" stroke="black" points="1872,-118.1 1868.5,-108.1 1865,-118.1 1872,-118.1"/>
</g>
<!-- ast.Name object at 0x740763f99790&#45;&gt;ast.Load object at 0x7408da337a10 -->
<g id="edge110" class="edge">
<title>ast.Name object at 0x740763f99790&#45;&gt;ast.Load object at 0x7408da337a10</title>
<path fill="none" stroke="black" d="M1769.09,-76.35C1764.62,-74.66 1759.98,-73.13 1755.5,-72 1574.58,-26.52 1349.77,-19.8 1262.03,-19"/>
<polygon fill="black" stroke="black" points="1261.8,-15.5 1251.78,-18.93 1261.75,-22.5 1261.8,-15.5"/>
</g>
<!-- ast.Name object at 0x740763f99b90&#45;&gt;ast.Load object at 0x7408da337a10 -->
<g id="edge112" class="edge">
<title>ast.Name object at 0x740763f99b90&#45;&gt;ast.Load object at 0x7408da337a10</title>
<path fill="none" stroke="black" d="M1841.36,-74.97C1838.43,-73.82 1835.44,-72.79 1832.5,-72 1723.77,-42.6 1376.27,-25.48 1261.6,-20.52"/>
<polygon fill="black" stroke="black" points="1261.7,-17.02 1251.56,-20.09 1261.4,-24.01 1261.7,-17.02"/>
</g>
<!-- ast.Constant object at 0x74076388d490 -->
<g id="node85" class="node">
<title>ast.Constant object at 0x74076388d490</title>
<path fill="#66cdaa" stroke="black" d="M2005,-108C2005,-108 1964,-108 1964,-108 1958,-108 1952,-102 1952,-96 1952,-96 1952,-84 1952,-84 1952,-78 1958,-72 1964,-72 1964,-72 2005,-72 2005,-72 2011,-72 2017,-78 2017,-84 2017,-84 2017,-96 2017,-96 2017,-102 2011,-108 2005,-108"/>
<text text-anchor="middle" x="1984.5" y="-86.3" font-family="Times,serif" font-size="14.00">Constant</text>
</g>
<!-- ast.Slice object at 0x74076366c510&#45;&gt;ast.Constant object at 0x74076388d490 -->
<g id="edge114" class="edge">
<title>ast.Slice object at 0x74076366c510&#45;&gt;ast.Constant object at 0x74076388d490</title>
<path fill="none" stroke="black" d="M1982.24,-143.7C1982.57,-135.98 1982.97,-126.71 1983.34,-118.11"/>
<polygon fill="black" stroke="black" points="1986.84,-118.25 1983.77,-108.1 1979.84,-117.95 1986.84,-118.25"/>
</g>
</g>
</svg>
