<?xml version="1.0" encoding="UTF-8" standalone="no"?>
<!DOCTYPE svg PUBLIC "-//W3C//DTD SVG 1.1//EN"
 "http://www.w3.org/Graphics/SVG/1.1/DTD/svg11.dtd">
<!-- Generated by graphviz version 2.50.0 (0)
 -->
<!-- Pages: 1 -->
<svg width="573pt" height="620pt"
 viewBox="0.00 0.00 573.00 620.00" xmlns="http://www.w3.org/2000/svg" xmlns:xlink="http://www.w3.org/1999/xlink">
<g id="graph0" class="graph" transform="scale(1 1) rotate(0) translate(4 616)">
<polygon fill="white" stroke="transparent" points="-4,4 -4,-616 569,-616 569,4 -4,4"/>
<!-- ast.Module object at 0x7e7fc348d690 -->
<g id="node1" class="node">
<title>ast.Module object at 0x7e7fc348d690</title>
<path fill="#66cdaa" stroke="black" d="M192.5,-612C192.5,-612 157.5,-612 157.5,-612 151.5,-612 145.5,-606 145.5,-600 145.5,-600 145.5,-588 145.5,-588 145.5,-582 151.5,-576 157.5,-576 157.5,-576 192.5,-576 192.5,-576 198.5,-576 204.5,-582 204.5,-588 204.5,-588 204.5,-600 204.5,-600 204.5,-606 198.5,-612 192.5,-612"/>
<text text-anchor="middle" x="175" y="-590.3" font-family="Times,serif" font-size="14.00">Module</text>
</g>
<!-- ast.Import object at 0x7e7fc348e810 -->
<g id="node2" class="node">
<title>ast.Import object at 0x7e7fc348e810</title>
<path fill="#66cdaa" stroke="black" d="M146,-540C146,-540 116,-540 116,-540 110,-540 104,-534 104,-528 104,-528 104,-516 104,-516 104,-510 110,-504 116,-504 116,-504 146,-504 146,-504 152,-504 158,-510 158,-516 158,-516 158,-528 158,-528 158,-534 152,-540 146,-540"/>
<text text-anchor="middle" x="131" y="-518.3" font-family="Times,serif" font-size="14.00">Import</text>
</g>
<!-- ast.Module object at 0x7e7fc348d690&#45;&gt;ast.Import object at 0x7e7fc348e810 -->
<g id="edge1" class="edge">
<title>ast.Module object at 0x7e7fc348d690&#45;&gt;ast.Import object at 0x7e7fc348e810</title>
<path fill="none" stroke="black" d="M164.12,-575.7C159.01,-567.56 152.8,-557.69 147.16,-548.7"/>
<polygon fill="black" stroke="black" points="150.04,-546.71 141.75,-540.1 144.11,-550.43 150.04,-546.71"/>
</g>
<!-- ast.FunctionDef object at 0x7e7fc348df50 -->
<g id="node4" class="node">
<title>ast.FunctionDef object at 0x7e7fc348df50</title>
<path fill="#66cdaa" stroke="black" d="M277.5,-540C277.5,-540 216.5,-540 216.5,-540 210.5,-540 204.5,-534 204.5,-528 204.5,-528 204.5,-516 204.5,-516 204.5,-510 210.5,-504 216.5,-504 216.5,-504 277.5,-504 277.5,-504 283.5,-504 289.5,-510 289.5,-516 289.5,-516 289.5,-528 289.5,-528 289.5,-534 283.5,-540 277.5,-540"/>
<text text-anchor="middle" x="247" y="-518.3" font-family="Times,serif" font-size="14.00">FunctionDef</text>
</g>
<!-- ast.Module object at 0x7e7fc348d690&#45;&gt;ast.FunctionDef object at 0x7e7fc348df50 -->
<g id="edge3" class="edge">
<title>ast.Module object at 0x7e7fc348d690&#45;&gt;ast.FunctionDef object at 0x7e7fc348df50</title>
<path fill="none" stroke="black" d="M192.8,-575.7C201.6,-567.14 212.38,-556.66 222,-547.3"/>
<polygon fill="black" stroke="black" points="224.68,-549.58 229.41,-540.1 219.8,-544.57 224.68,-549.58"/>
</g>
<!-- ast.alias object at 0x7e7fc348fa90 -->
<g id="node3" class="node">
<title>ast.alias object at 0x7e7fc348fa90</title>
<path fill="#66cdaa" stroke="black" d="M82,-468C82,-468 52,-468 52,-468 46,-468 40,-462 40,-456 40,-456 40,-444 40,-444 40,-438 46,-432 52,-432 52,-432 82,-432 82,-432 88,-432 94,-438 94,-444 94,-444 94,-456 94,-456 94,-462 88,-468 82,-468"/>
<text text-anchor="middle" x="67" y="-446.3" font-family="Times,serif" font-size="14.00">alias</text>
</g>
<!-- ast.Import object at 0x7e7fc348e810&#45;&gt;ast.alias object at 0x7e7fc348fa90 -->
<g id="edge2" class="edge">
<title>ast.Import object at 0x7e7fc348e810&#45;&gt;ast.alias object at 0x7e7fc348fa90</title>
<path fill="none" stroke="black" d="M115.18,-503.7C107.43,-495.22 97.96,-484.86 89.48,-475.58"/>
<polygon fill="black" stroke="black" points="91.97,-473.12 82.64,-468.1 86.8,-477.85 91.97,-473.12"/>
</g>
<!-- ast.arguments object at 0x7e7fc348c290 -->
<g id="node5" class="node">
<title>ast.arguments object at 0x7e7fc348c290</title>
<path fill="#66cdaa" stroke="black" d="M537,-468C537,-468 487,-468 487,-468 481,-468 475,-462 475,-456 475,-456 475,-444 475,-444 475,-438 481,-432 487,-432 487,-432 537,-432 537,-432 543,-432 549,-438 549,-444 549,-444 549,-456 549,-456 549,-462 543,-468 537,-468"/>
<text text-anchor="middle" x="512" y="-446.3" font-family="Times,serif" font-size="14.00">arguments</text>
</g>
<!-- ast.FunctionDef object at 0x7e7fc348df50&#45;&gt;ast.arguments object at 0x7e7fc348c290 -->
<g id="edge4" class="edge">
<title>ast.FunctionDef object at 0x7e7fc348df50&#45;&gt;ast.arguments object at 0x7e7fc348c290</title>
<path fill="none" stroke="black" d="M289.58,-509.75C337.48,-497.1 415.09,-476.6 464.81,-463.47"/>
<polygon fill="black" stroke="black" points="465.89,-466.8 474.67,-460.86 464.11,-460.03 465.89,-466.8"/>
</g>
<!-- ast.Assign object at 0x7e7fc348fd50 -->
<g id="node7" class="node">
<title>ast.Assign object at 0x7e7fc348fd50</title>
<path fill="#66cdaa" stroke="black" d="M154,-468C154,-468 124,-468 124,-468 118,-468 112,-462 112,-456 112,-456 112,-444 112,-444 112,-438 118,-432 124,-432 124,-432 154,-432 154,-432 160,-432 166,-438 166,-444 166,-444 166,-456 166,-456 166,-462 160,-468 154,-468"/>
<text text-anchor="middle" x="139" y="-446.3" font-family="Times,serif" font-size="14.00">Assign</text>
</g>
<!-- ast.FunctionDef object at 0x7e7fc348df50&#45;&gt;ast.Assign object at 0x7e7fc348fd50 -->
<g id="edge6" class="edge">
<title>ast.FunctionDef object at 0x7e7fc348df50&#45;&gt;ast.Assign object at 0x7e7fc348fd50</title>
<path fill="none" stroke="black" d="M220.58,-503.88C206.59,-494.81 189.22,-483.55 174.11,-473.76"/>
<polygon fill="black" stroke="black" points="175.82,-470.69 165.52,-468.19 172.01,-476.57 175.82,-470.69"/>
</g>
<!-- ast.For object at 0x7e7fc348d1d0 -->
<g id="node12" class="node">
<title>ast.For object at 0x7e7fc348d1d0</title>
<path fill="#66cdaa" stroke="black" d="M262,-468C262,-468 232,-468 232,-468 226,-468 220,-462 220,-456 220,-456 220,-444 220,-444 220,-438 226,-432 232,-432 232,-432 262,-432 262,-432 268,-432 274,-438 274,-444 274,-444 274,-456 274,-456 274,-462 268,-468 262,-468"/>
<text text-anchor="middle" x="247" y="-446.3" font-family="Times,serif" font-size="14.00">For</text>
</g>
<!-- ast.FunctionDef object at 0x7e7fc348df50&#45;&gt;ast.For object at 0x7e7fc348d1d0 -->
<g id="edge11" class="edge">
<title>ast.FunctionDef object at 0x7e7fc348df50&#45;&gt;ast.For object at 0x7e7fc348d1d0</title>
<path fill="none" stroke="black" d="M247,-503.7C247,-495.98 247,-486.71 247,-478.11"/>
<polygon fill="black" stroke="black" points="250.5,-478.1 247,-468.1 243.5,-478.1 250.5,-478.1"/>
</g>
<!-- ast.Return object at 0x7e7fc3470650 -->
<g id="node31" class="node">
<title>ast.Return object at 0x7e7fc3470650</title>
<path fill="#66cdaa" stroke="black" d="M408,-468C408,-468 378,-468 378,-468 372,-468 366,-462 366,-456 366,-456 366,-444 366,-444 366,-438 372,-432 378,-432 378,-432 408,-432 408,-432 414,-432 420,-438 420,-444 420,-444 420,-456 420,-456 420,-462 414,-468 408,-468"/>
<text text-anchor="middle" x="393" y="-446.3" font-family="Times,serif" font-size="14.00">Return</text>
</g>
<!-- ast.FunctionDef object at 0x7e7fc348df50&#45;&gt;ast.Return object at 0x7e7fc3470650 -->
<g id="edge37" class="edge">
<title>ast.FunctionDef object at 0x7e7fc348df50&#45;&gt;ast.Return object at 0x7e7fc3470650</title>
<path fill="none" stroke="black" d="M282.72,-503.88C305.17,-493.11 334.06,-479.26 356.64,-468.43"/>
<polygon fill="black" stroke="black" points="358.39,-471.48 365.89,-464 355.36,-465.16 358.39,-471.48"/>
</g>
<!-- ast.arg object at 0x7e7fc348d290 -->
<g id="node6" class="node">
<title>ast.arg object at 0x7e7fc348d290</title>
<path fill="#66cdaa" stroke="black" d="M553,-396C553,-396 523,-396 523,-396 517,-396 511,-390 511,-384 511,-384 511,-372 511,-372 511,-366 517,-360 523,-360 523,-360 553,-360 553,-360 559,-360 565,-366 565,-372 565,-372 565,-384 565,-384 565,-390 559,-396 553,-396"/>
<text text-anchor="middle" x="538" y="-374.3" font-family="Times,serif" font-size="14.00">arg</text>
</g>
<!-- ast.arguments object at 0x7e7fc348c290&#45;&gt;ast.arg object at 0x7e7fc348d290 -->
<g id="edge5" class="edge">
<title>ast.arguments object at 0x7e7fc348c290&#45;&gt;ast.arg object at 0x7e7fc348d290</title>
<path fill="none" stroke="black" d="M518.43,-431.7C521.36,-423.81 524.89,-414.3 528.14,-405.55"/>
<polygon fill="black" stroke="black" points="531.45,-406.7 531.65,-396.1 524.88,-404.26 531.45,-406.7"/>
</g>
<!-- ast.Name object at 0x7e7fc348ff50 -->
<g id="node8" class="node">
<title>ast.Name object at 0x7e7fc348ff50</title>
<path fill="#66cdaa" stroke="black" d="M118,-396C118,-396 88,-396 88,-396 82,-396 76,-390 76,-384 76,-384 76,-372 76,-372 76,-366 82,-360 88,-360 88,-360 118,-360 118,-360 124,-360 130,-366 130,-372 130,-372 130,-384 130,-384 130,-390 124,-396 118,-396"/>
<text text-anchor="middle" x="103" y="-374.3" font-family="Times,serif" font-size="14.00">Name</text>
</g>
<!-- ast.Assign object at 0x7e7fc348fd50&#45;&gt;ast.Name object at 0x7e7fc348ff50 -->
<g id="edge7" class="edge">
<title>ast.Assign object at 0x7e7fc348fd50&#45;&gt;ast.Name object at 0x7e7fc348ff50</title>
<path fill="none" stroke="black" d="M130.1,-431.7C126,-423.73 121.05,-414.1 116.51,-405.26"/>
<polygon fill="black" stroke="black" points="119.48,-403.4 111.8,-396.1 113.26,-406.6 119.48,-403.4"/>
</g>
<!-- ast.List object at 0x7e7fc348fc10 -->
<g id="node10" class="node">
<title>ast.List object at 0x7e7fc348fc10</title>
<path fill="#66cdaa" stroke="black" d="M42,-252C42,-252 12,-252 12,-252 6,-252 0,-246 0,-240 0,-240 0,-228 0,-228 0,-222 6,-216 12,-216 12,-216 42,-216 42,-216 48,-216 54,-222 54,-228 54,-228 54,-240 54,-240 54,-246 48,-252 42,-252"/>
<text text-anchor="middle" x="27" y="-230.3" font-family="Times,serif" font-size="14.00">List</text>
</g>
<!-- ast.Assign object at 0x7e7fc348fd50&#45;&gt;ast.List object at 0x7e7fc348fc10 -->
<g id="edge9" class="edge">
<title>ast.Assign object at 0x7e7fc348fd50&#45;&gt;ast.List object at 0x7e7fc348fc10</title>
<path fill="none" stroke="black" d="M111.65,-435.1C96.33,-425.97 78.14,-412.64 67,-396 39.39,-354.75 30.83,-296.07 28.18,-262.12"/>
<polygon fill="black" stroke="black" points="31.66,-261.77 27.51,-252.03 24.68,-262.24 31.66,-261.77"/>
</g>
<!-- ast.Store object at 0x7e80d76a3b50 -->
<g id="node9" class="node">
<title>ast.Store object at 0x7e80d76a3b50</title>
<path fill="#66cdaa" stroke="black" d="M118,-324C118,-324 88,-324 88,-324 82,-324 76,-318 76,-312 76,-312 76,-300 76,-300 76,-294 82,-288 88,-288 88,-288 118,-288 118,-288 124,-288 130,-294 130,-300 130,-300 130,-312 130,-312 130,-318 124,-324 118,-324"/>
<text text-anchor="middle" x="103" y="-302.3" font-family="Times,serif" font-size="14.00">Store</text>
</g>
<!-- ast.Name object at 0x7e7fc348ff50&#45;&gt;ast.Store object at 0x7e80d76a3b50 -->
<g id="edge8" class="edge">
<title>ast.Name object at 0x7e7fc348ff50&#45;&gt;ast.Store object at 0x7e80d76a3b50</title>
<path fill="none" stroke="black" d="M103,-359.7C103,-351.98 103,-342.71 103,-334.11"/>
<polygon fill="black" stroke="black" points="106.5,-334.1 103,-324.1 99.5,-334.1 106.5,-334.1"/>
</g>
<!-- ast.Load object at 0x7e80d76a3ad0 -->
<g id="node11" class="node">
<title>ast.Load object at 0x7e80d76a3ad0</title>
<path fill="#66cdaa" stroke="black" d="M322,-36C322,-36 292,-36 292,-36 286,-36 280,-30 280,-24 280,-24 280,-12 280,-12 280,-6 286,0 292,0 292,0 322,0 322,0 328,0 334,-6 334,-12 334,-12 334,-24 334,-24 334,-30 328,-36 322,-36"/>
<text text-anchor="middle" x="307" y="-14.3" font-family="Times,serif" font-size="14.00">Load</text>
</g>
<!-- ast.List object at 0x7e7fc348fc10&#45;&gt;ast.Load object at 0x7e80d76a3ad0 -->
<g id="edge10" class="edge">
<title>ast.List object at 0x7e7fc348fc10&#45;&gt;ast.Load object at 0x7e80d76a3ad0</title>
<path fill="none" stroke="black" d="M20.72,-215.57C10.26,-183.18 -6.35,-113.23 28,-72 58.33,-35.59 200.41,-23.98 269.32,-20.45"/>
<polygon fill="black" stroke="black" points="269.9,-23.93 279.72,-19.95 269.57,-16.94 269.9,-23.93"/>
</g>
<!-- ast.Name object at 0x7e7fc348fb50 -->
<g id="node13" class="node">
<title>ast.Name object at 0x7e7fc348fb50</title>
<path fill="#66cdaa" stroke="black" d="M190,-396C190,-396 160,-396 160,-396 154,-396 148,-390 148,-384 148,-384 148,-372 148,-372 148,-366 154,-360 160,-360 160,-360 190,-360 190,-360 196,-360 202,-366 202,-372 202,-372 202,-384 202,-384 202,-390 196,-396 190,-396"/>
<text text-anchor="middle" x="175" y="-374.3" font-family="Times,serif" font-size="14.00">Name</text>
</g>
<!-- ast.For object at 0x7e7fc348d1d0&#45;&gt;ast.Name object at 0x7e7fc348fb50 -->
<g id="edge12" class="edge">
<title>ast.For object at 0x7e7fc348d1d0&#45;&gt;ast.Name object at 0x7e7fc348fb50</title>
<path fill="none" stroke="black" d="M229.2,-431.7C220.4,-423.14 209.62,-412.66 200,-403.3"/>
<polygon fill="black" stroke="black" points="202.2,-400.57 192.59,-396.1 197.32,-405.58 202.2,-400.57"/>
</g>
<!-- ast.Call object at 0x7e7fc348fad0 -->
<g id="node14" class="node">
<title>ast.Call object at 0x7e7fc348fad0</title>
<path fill="#66cdaa" stroke="black" d="M350,-396C350,-396 320,-396 320,-396 314,-396 308,-390 308,-384 308,-384 308,-372 308,-372 308,-366 314,-360 320,-360 320,-360 350,-360 350,-360 356,-360 362,-366 362,-372 362,-372 362,-384 362,-384 362,-390 356,-396 350,-396"/>
<text text-anchor="middle" x="335" y="-374.3" font-family="Times,serif" font-size="14.00">Call</text>
</g>
<!-- ast.For object at 0x7e7fc348d1d0&#45;&gt;ast.Call object at 0x7e7fc348fad0 -->
<g id="edge14" class="edge">
<title>ast.For object at 0x7e7fc348d1d0&#45;&gt;ast.Call object at 0x7e7fc348fad0</title>
<path fill="none" stroke="black" d="M268.75,-431.7C279.84,-422.88 293.47,-412.03 305.49,-402.47"/>
<polygon fill="black" stroke="black" points="307.85,-405.07 313.5,-396.1 303.49,-399.59 307.85,-405.07"/>
</g>
<!-- ast.If object at 0x7e7fc3313b10 -->
<g id="node18" class="node">
<title>ast.If object at 0x7e7fc3313b10</title>
<path fill="#66cdaa" stroke="black" d="M262,-396C262,-396 232,-396 232,-396 226,-396 220,-390 220,-384 220,-384 220,-372 220,-372 220,-366 226,-360 232,-360 232,-360 262,-360 262,-360 268,-360 274,-366 274,-372 274,-372 274,-384 274,-384 274,-390 268,-396 262,-396"/>
<text text-anchor="middle" x="247" y="-374.3" font-family="Times,serif" font-size="14.00">If</text>
</g>
<!-- ast.For object at 0x7e7fc348d1d0&#45;&gt;ast.If object at 0x7e7fc3313b10 -->
<g id="edge19" class="edge">
<title>ast.For object at 0x7e7fc348d1d0&#45;&gt;ast.If object at 0x7e7fc3313b10</title>
<path fill="none" stroke="black" d="M247,-431.7C247,-423.98 247,-414.71 247,-406.11"/>
<polygon fill="black" stroke="black" points="250.5,-406.1 247,-396.1 243.5,-406.1 250.5,-406.1"/>
</g>
<!-- ast.Name object at 0x7e7fc348fb50&#45;&gt;ast.Store object at 0x7e80d76a3b50 -->
<g id="edge13" class="edge">
<title>ast.Name object at 0x7e7fc348fb50&#45;&gt;ast.Store object at 0x7e80d76a3b50</title>
<path fill="none" stroke="black" d="M157.2,-359.7C148.4,-351.14 137.62,-340.66 128,-331.3"/>
<polygon fill="black" stroke="black" points="130.2,-328.57 120.59,-324.1 125.32,-333.58 130.2,-328.57"/>
</g>
<!-- ast.Name object at 0x7e7fc348f7d0 -->
<g id="node15" class="node">
<title>ast.Name object at 0x7e7fc348f7d0</title>
<path fill="#66cdaa" stroke="black" d="M401,-252C401,-252 371,-252 371,-252 365,-252 359,-246 359,-240 359,-240 359,-228 359,-228 359,-222 365,-216 371,-216 371,-216 401,-216 401,-216 407,-216 413,-222 413,-228 413,-228 413,-240 413,-240 413,-246 407,-252 401,-252"/>
<text text-anchor="middle" x="386" y="-230.3" font-family="Times,serif" font-size="14.00">Name</text>
</g>
<!-- ast.Call object at 0x7e7fc348fad0&#45;&gt;ast.Name object at 0x7e7fc348f7d0 -->
<g id="edge15" class="edge">
<title>ast.Call object at 0x7e7fc348fad0&#45;&gt;ast.Name object at 0x7e7fc348f7d0</title>
<path fill="none" stroke="black" d="M341.15,-359.87C349.92,-335.46 366.09,-290.43 376.43,-261.64"/>
<polygon fill="black" stroke="black" points="379.74,-262.78 379.83,-252.19 373.15,-260.42 379.74,-262.78"/>
</g>
<!-- ast.Constant object at 0x7e7fc348f690 -->
<g id="node16" class="node">
<title>ast.Constant object at 0x7e7fc348f690</title>
<path fill="#66cdaa" stroke="black" d="M442.5,-324C442.5,-324 401.5,-324 401.5,-324 395.5,-324 389.5,-318 389.5,-312 389.5,-312 389.5,-300 389.5,-300 389.5,-294 395.5,-288 401.5,-288 401.5,-288 442.5,-288 442.5,-288 448.5,-288 454.5,-294 454.5,-300 454.5,-300 454.5,-312 454.5,-312 454.5,-318 448.5,-324 442.5,-324"/>
<text text-anchor="middle" x="422" y="-302.3" font-family="Times,serif" font-size="14.00">Constant</text>
</g>
<!-- ast.Call object at 0x7e7fc348fad0&#45;&gt;ast.Constant object at 0x7e7fc348f690 -->
<g id="edge17" class="edge">
<title>ast.Call object at 0x7e7fc348fad0&#45;&gt;ast.Constant object at 0x7e7fc348f690</title>
<path fill="none" stroke="black" d="M356.51,-359.7C367.46,-350.88 380.95,-340.03 392.82,-330.47"/>
<polygon fill="black" stroke="black" points="395.14,-333.1 400.74,-324.1 390.76,-327.65 395.14,-333.1"/>
</g>
<!-- ast.Constant object at 0x7e7fc3310690 -->
<g id="node17" class="node">
<title>ast.Constant object at 0x7e7fc3310690</title>
<path fill="#66cdaa" stroke="black" d="M320.5,-324C320.5,-324 279.5,-324 279.5,-324 273.5,-324 267.5,-318 267.5,-312 267.5,-312 267.5,-300 267.5,-300 267.5,-294 273.5,-288 279.5,-288 279.5,-288 320.5,-288 320.5,-288 326.5,-288 332.5,-294 332.5,-300 332.5,-300 332.5,-312 332.5,-312 332.5,-318 326.5,-324 320.5,-324"/>
<text text-anchor="middle" x="300" y="-302.3" font-family="Times,serif" font-size="14.00">Constant</text>
</g>
<!-- ast.Call object at 0x7e7fc348fad0&#45;&gt;ast.Constant object at 0x7e7fc3310690 -->
<g id="edge18" class="edge">
<title>ast.Call object at 0x7e7fc348fad0&#45;&gt;ast.Constant object at 0x7e7fc3310690</title>
<path fill="none" stroke="black" d="M326.35,-359.7C322.36,-351.73 317.55,-342.1 313.13,-333.26"/>
<polygon fill="black" stroke="black" points="316.15,-331.48 308.55,-324.1 309.89,-334.61 316.15,-331.48"/>
</g>
<!-- ast.Name object at 0x7e7fc348f7d0&#45;&gt;ast.Load object at 0x7e80d76a3ad0 -->
<g id="edge16" class="edge">
<title>ast.Name object at 0x7e7fc348f7d0&#45;&gt;ast.Load object at 0x7e80d76a3ad0</title>
<path fill="none" stroke="black" d="M398.55,-215.57C419.33,-184.35 455.8,-117.9 426,-72 408.01,-44.29 371.81,-30.95 344.04,-24.6"/>
<polygon fill="black" stroke="black" points="344.74,-21.17 334.23,-22.56 343.31,-28.02 344.74,-21.17"/>
</g>
<!-- ast.Compare object at 0x7e7fc3313590 -->
<g id="node19" class="node">
<title>ast.Compare object at 0x7e7fc3313590</title>
<path fill="#66cdaa" stroke="black" d="M179.5,-252C179.5,-252 136.5,-252 136.5,-252 130.5,-252 124.5,-246 124.5,-240 124.5,-240 124.5,-228 124.5,-228 124.5,-222 130.5,-216 136.5,-216 136.5,-216 179.5,-216 179.5,-216 185.5,-216 191.5,-222 191.5,-228 191.5,-228 191.5,-240 191.5,-240 191.5,-246 185.5,-252 179.5,-252"/>
<text text-anchor="middle" x="158" y="-230.3" font-family="Times,serif" font-size="14.00">Compare</text>
</g>
<!-- ast.If object at 0x7e7fc3313b10&#45;&gt;ast.Compare object at 0x7e7fc3313590 -->
<g id="edge20" class="edge">
<title>ast.If object at 0x7e7fc3313b10&#45;&gt;ast.Compare object at 0x7e7fc3313590</title>
<path fill="none" stroke="black" d="M221.46,-359.94C209.21,-350.61 195.23,-338.08 186,-324 173.7,-305.23 166.51,-280.7 162.5,-262.15"/>
<polygon fill="black" stroke="black" points="165.92,-261.4 160.55,-252.27 159.06,-262.76 165.92,-261.4"/>
</g>
<!-- ast.Expr object at 0x7e7fc3310950 -->
<g id="node26" class="node">
<title>ast.Expr object at 0x7e7fc3310950</title>
<path fill="#66cdaa" stroke="black" d="M237,-324C237,-324 207,-324 207,-324 201,-324 195,-318 195,-312 195,-312 195,-300 195,-300 195,-294 201,-288 207,-288 207,-288 237,-288 237,-288 243,-288 249,-294 249,-300 249,-300 249,-312 249,-312 249,-318 243,-324 237,-324"/>
<text text-anchor="middle" x="222" y="-302.3" font-family="Times,serif" font-size="14.00">Expr</text>
</g>
<!-- ast.If object at 0x7e7fc3313b10&#45;&gt;ast.Expr object at 0x7e7fc3310950 -->
<g id="edge29" class="edge">
<title>ast.If object at 0x7e7fc3313b10&#45;&gt;ast.Expr object at 0x7e7fc3310950</title>
<path fill="none" stroke="black" d="M240.82,-359.7C238,-351.81 234.61,-342.3 231.48,-333.55"/>
<polygon fill="black" stroke="black" points="234.77,-332.34 228.11,-324.1 228.18,-334.7 234.77,-332.34"/>
</g>
<!-- ast.BinOp object at 0x7e7fc3312a10 -->
<g id="node20" class="node">
<title>ast.BinOp object at 0x7e7fc3312a10</title>
<path fill="#66cdaa" stroke="black" d="M165,-180C165,-180 135,-180 135,-180 129,-180 123,-174 123,-168 123,-168 123,-156 123,-156 123,-150 129,-144 135,-144 135,-144 165,-144 165,-144 171,-144 177,-150 177,-156 177,-156 177,-168 177,-168 177,-174 171,-180 165,-180"/>
<text text-anchor="middle" x="150" y="-158.3" font-family="Times,serif" font-size="14.00">BinOp</text>
</g>
<!-- ast.Compare object at 0x7e7fc3313590&#45;&gt;ast.BinOp object at 0x7e7fc3312a10 -->
<g id="edge21" class="edge">
<title>ast.Compare object at 0x7e7fc3313590&#45;&gt;ast.BinOp object at 0x7e7fc3312a10</title>
<path fill="none" stroke="black" d="M156.02,-215.7C155.14,-207.98 154.08,-198.71 153.1,-190.11"/>
<polygon fill="black" stroke="black" points="156.57,-189.64 151.95,-180.1 149.61,-190.44 156.57,-189.64"/>
</g>
<!-- ast.Eq object at 0x7e80d76b0b10 -->
<g id="node24" class="node">
<title>ast.Eq object at 0x7e80d76b0b10</title>
<path fill="#66cdaa" stroke="black" d="M237,-180C237,-180 207,-180 207,-180 201,-180 195,-174 195,-168 195,-168 195,-156 195,-156 195,-150 201,-144 207,-144 207,-144 237,-144 237,-144 243,-144 249,-150 249,-156 249,-156 249,-168 249,-168 249,-174 243,-180 237,-180"/>
<text text-anchor="middle" x="222" y="-158.3" font-family="Times,serif" font-size="14.00">Eq</text>
</g>
<!-- ast.Compare object at 0x7e7fc3313590&#45;&gt;ast.Eq object at 0x7e80d76b0b10 -->
<g id="edge27" class="edge">
<title>ast.Compare object at 0x7e7fc3313590&#45;&gt;ast.Eq object at 0x7e80d76b0b10</title>
<path fill="none" stroke="black" d="M173.82,-215.7C181.57,-207.22 191.04,-196.86 199.52,-187.58"/>
<polygon fill="black" stroke="black" points="202.2,-189.85 206.36,-180.1 197.03,-185.12 202.2,-189.85"/>
</g>
<!-- ast.Constant object at 0x7e7fc3310d10 -->
<g id="node25" class="node">
<title>ast.Constant object at 0x7e7fc3310d10</title>
<path fill="#66cdaa" stroke="black" d="M92.5,-180C92.5,-180 51.5,-180 51.5,-180 45.5,-180 39.5,-174 39.5,-168 39.5,-168 39.5,-156 39.5,-156 39.5,-150 45.5,-144 51.5,-144 51.5,-144 92.5,-144 92.5,-144 98.5,-144 104.5,-150 104.5,-156 104.5,-156 104.5,-168 104.5,-168 104.5,-174 98.5,-180 92.5,-180"/>
<text text-anchor="middle" x="72" y="-158.3" font-family="Times,serif" font-size="14.00">Constant</text>
</g>
<!-- ast.Compare object at 0x7e7fc3313590&#45;&gt;ast.Constant object at 0x7e7fc3310d10 -->
<g id="edge28" class="edge">
<title>ast.Compare object at 0x7e7fc3313590&#45;&gt;ast.Constant object at 0x7e7fc3310d10</title>
<path fill="none" stroke="black" d="M136.74,-215.7C125.91,-206.88 112.58,-196.03 100.84,-186.47"/>
<polygon fill="black" stroke="black" points="102.98,-183.7 93.01,-180.1 98.56,-189.13 102.98,-183.7"/>
</g>
<!-- ast.Name object at 0x7e7fc3311c10 -->
<g id="node21" class="node">
<title>ast.Name object at 0x7e7fc3311c10</title>
<path fill="#66cdaa" stroke="black" d="M151,-108C151,-108 121,-108 121,-108 115,-108 109,-102 109,-96 109,-96 109,-84 109,-84 109,-78 115,-72 121,-72 121,-72 151,-72 151,-72 157,-72 163,-78 163,-84 163,-84 163,-96 163,-96 163,-102 157,-108 151,-108"/>
<text text-anchor="middle" x="136" y="-86.3" font-family="Times,serif" font-size="14.00">Name</text>
</g>
<!-- ast.BinOp object at 0x7e7fc3312a10&#45;&gt;ast.Name object at 0x7e7fc3311c10 -->
<g id="edge22" class="edge">
<title>ast.BinOp object at 0x7e7fc3312a10&#45;&gt;ast.Name object at 0x7e7fc3311c10</title>
<path fill="none" stroke="black" d="M146.54,-143.7C145,-135.98 143.14,-126.71 141.42,-118.11"/>
<polygon fill="black" stroke="black" points="144.81,-117.22 139.42,-108.1 137.95,-118.6 144.81,-117.22"/>
</g>
<!-- ast.Mod object at 0x7e80d76b0290 -->
<g id="node22" class="node">
<title>ast.Mod object at 0x7e80d76b0290</title>
<path fill="#66cdaa" stroke="black" d="M79,-108C79,-108 49,-108 49,-108 43,-108 37,-102 37,-96 37,-96 37,-84 37,-84 37,-78 43,-72 49,-72 49,-72 79,-72 79,-72 85,-72 91,-78 91,-84 91,-84 91,-96 91,-96 91,-102 85,-108 79,-108"/>
<text text-anchor="middle" x="64" y="-86.3" font-family="Times,serif" font-size="14.00">Mod</text>
</g>
<!-- ast.BinOp object at 0x7e7fc3312a10&#45;&gt;ast.Mod object at 0x7e80d76b0290 -->
<g id="edge24" class="edge">
<title>ast.BinOp object at 0x7e7fc3312a10&#45;&gt;ast.Mod object at 0x7e80d76b0290</title>
<path fill="none" stroke="black" d="M128.74,-143.7C117.91,-134.88 104.58,-124.03 92.84,-114.47"/>
<polygon fill="black" stroke="black" points="94.98,-111.7 85.01,-108.1 90.56,-117.13 94.98,-111.7"/>
</g>
<!-- ast.Name object at 0x7e7fc3311890 -->
<g id="node23" class="node">
<title>ast.Name object at 0x7e7fc3311890</title>
<path fill="#66cdaa" stroke="black" d="M223,-108C223,-108 193,-108 193,-108 187,-108 181,-102 181,-96 181,-96 181,-84 181,-84 181,-78 187,-72 193,-72 193,-72 223,-72 223,-72 229,-72 235,-78 235,-84 235,-84 235,-96 235,-96 235,-102 229,-108 223,-108"/>
<text text-anchor="middle" x="208" y="-86.3" font-family="Times,serif" font-size="14.00">Name</text>
</g>
<!-- ast.BinOp object at 0x7e7fc3312a10&#45;&gt;ast.Name object at 0x7e7fc3311890 -->
<g id="edge25" class="edge">
<title>ast.BinOp object at 0x7e7fc3312a10&#45;&gt;ast.Name object at 0x7e7fc3311890</title>
<path fill="none" stroke="black" d="M164.34,-143.7C171.29,-135.3 179.77,-125.07 187.4,-115.86"/>
<polygon fill="black" stroke="black" points="190.14,-118.04 193.83,-108.1 184.75,-113.57 190.14,-118.04"/>
</g>
<!-- ast.Name object at 0x7e7fc3311c10&#45;&gt;ast.Load object at 0x7e80d76a3ad0 -->
<g id="edge23" class="edge">
<title>ast.Name object at 0x7e7fc3311c10&#45;&gt;ast.Load object at 0x7e80d76a3ad0</title>
<path fill="none" stroke="black" d="M163.04,-75.99C166.05,-74.62 169.08,-73.26 172,-72 204.94,-57.78 243.04,-42.96 270.35,-32.63"/>
<polygon fill="black" stroke="black" points="271.77,-35.83 279.89,-29.03 269.3,-29.28 271.77,-35.83"/>
</g>
<!-- ast.Name object at 0x7e7fc3311890&#45;&gt;ast.Load object at 0x7e80d76a3ad0 -->
<g id="edge26" class="edge">
<title>ast.Name object at 0x7e7fc3311890&#45;&gt;ast.Load object at 0x7e80d76a3ad0</title>
<path fill="none" stroke="black" d="M232.22,-71.88C244.92,-62.89 260.66,-51.76 274.42,-42.03"/>
<polygon fill="black" stroke="black" points="276.54,-44.82 282.69,-36.19 272.5,-39.11 276.54,-44.82"/>
</g>
<!-- ast.Call object at 0x7e7fc3310650 -->
<g id="node27" class="node">
<title>ast.Call object at 0x7e7fc3310650</title>
<path fill="#66cdaa" stroke="black" d="M293,-252C293,-252 263,-252 263,-252 257,-252 251,-246 251,-240 251,-240 251,-228 251,-228 251,-222 257,-216 263,-216 263,-216 293,-216 293,-216 299,-216 305,-222 305,-228 305,-228 305,-240 305,-240 305,-246 299,-252 293,-252"/>
<text text-anchor="middle" x="278" y="-230.3" font-family="Times,serif" font-size="14.00">Call</text>
</g>
<!-- ast.Expr object at 0x7e7fc3310950&#45;&gt;ast.Call object at 0x7e7fc3310650 -->
<g id="edge30" class="edge">
<title>ast.Expr object at 0x7e7fc3310950&#45;&gt;ast.Call object at 0x7e7fc3310650</title>
<path fill="none" stroke="black" d="M235.84,-287.7C242.49,-279.39 250.58,-269.28 257.89,-260.14"/>
<polygon fill="black" stroke="black" points="260.8,-262.1 264.32,-252.1 255.34,-257.73 260.8,-262.1"/>
</g>
<!-- ast.Attribute object at 0x7e7fc3310710 -->
<g id="node28" class="node">
<title>ast.Attribute object at 0x7e7fc3310710</title>
<path fill="#66cdaa" stroke="black" d="M359.5,-180C359.5,-180 318.5,-180 318.5,-180 312.5,-180 306.5,-174 306.5,-168 306.5,-168 306.5,-156 306.5,-156 306.5,-150 312.5,-144 318.5,-144 318.5,-144 359.5,-144 359.5,-144 365.5,-144 371.5,-150 371.5,-156 371.5,-156 371.5,-168 371.5,-168 371.5,-174 365.5,-180 359.5,-180"/>
<text text-anchor="middle" x="339" y="-158.3" font-family="Times,serif" font-size="14.00">Attribute</text>
</g>
<!-- ast.Call object at 0x7e7fc3310650&#45;&gt;ast.Attribute object at 0x7e7fc3310710 -->
<g id="edge31" class="edge">
<title>ast.Call object at 0x7e7fc3310650&#45;&gt;ast.Attribute object at 0x7e7fc3310710</title>
<path fill="none" stroke="black" d="M293.08,-215.7C300.39,-207.3 309.31,-197.07 317.34,-187.86"/>
<polygon fill="black" stroke="black" points="320.16,-189.94 324.09,-180.1 314.89,-185.34 320.16,-189.94"/>
</g>
<!-- ast.Name object at 0x7e7fc3310b10 -->
<g id="node30" class="node">
<title>ast.Name object at 0x7e7fc3310b10</title>
<path fill="#66cdaa" stroke="black" d="M295,-108C295,-108 265,-108 265,-108 259,-108 253,-102 253,-96 253,-96 253,-84 253,-84 253,-78 259,-72 265,-72 265,-72 295,-72 295,-72 301,-72 307,-78 307,-84 307,-84 307,-96 307,-96 307,-102 301,-108 295,-108"/>
<text text-anchor="middle" x="280" y="-86.3" font-family="Times,serif" font-size="14.00">Name</text>
</g>
<!-- ast.Call object at 0x7e7fc3310650&#45;&gt;ast.Name object at 0x7e7fc3310b10 -->
<g id="edge35" class="edge">
<title>ast.Call object at 0x7e7fc3310650&#45;&gt;ast.Name object at 0x7e7fc3310b10</title>
<path fill="none" stroke="black" d="M278.24,-215.87C278.58,-191.67 279.21,-147.21 279.61,-118.39"/>
<polygon fill="black" stroke="black" points="283.12,-118.24 279.76,-108.19 276.12,-118.14 283.12,-118.24"/>
</g>
<!-- ast.Attribute object at 0x7e7fc3310710&#45;&gt;ast.Load object at 0x7e80d76a3ad0 -->
<g id="edge34" class="edge">
<title>ast.Attribute object at 0x7e7fc3310710&#45;&gt;ast.Load object at 0x7e80d76a3ad0</title>
<path fill="none" stroke="black" d="M335.14,-143.87C329.66,-119.56 319.58,-74.82 313.09,-46.01"/>
<polygon fill="black" stroke="black" points="316.49,-45.18 310.87,-36.19 309.66,-46.71 316.49,-45.18"/>
</g>
<!-- ast.Name object at 0x7e7fc3310750 -->
<g id="node29" class="node">
<title>ast.Name object at 0x7e7fc3310750</title>
<path fill="#66cdaa" stroke="black" d="M405,-108C405,-108 375,-108 375,-108 369,-108 363,-102 363,-96 363,-96 363,-84 363,-84 363,-78 369,-72 375,-72 375,-72 405,-72 405,-72 411,-72 417,-78 417,-84 417,-84 417,-96 417,-96 417,-102 411,-108 405,-108"/>
<text text-anchor="middle" x="390" y="-86.3" font-family="Times,serif" font-size="14.00">Name</text>
</g>
<!-- ast.Attribute object at 0x7e7fc3310710&#45;&gt;ast.Name object at 0x7e7fc3310750 -->
<g id="edge32" class="edge">
<title>ast.Attribute object at 0x7e7fc3310710&#45;&gt;ast.Name object at 0x7e7fc3310750</title>
<path fill="none" stroke="black" d="M351.61,-143.7C357.6,-135.47 364.88,-125.48 371.48,-116.42"/>
<polygon fill="black" stroke="black" points="374.48,-118.25 377.54,-108.1 368.82,-114.13 374.48,-118.25"/>
</g>
<!-- ast.Name object at 0x7e7fc3310750&#45;&gt;ast.Load object at 0x7e80d76a3ad0 -->
<g id="edge33" class="edge">
<title>ast.Name object at 0x7e7fc3310750&#45;&gt;ast.Load object at 0x7e80d76a3ad0</title>
<path fill="none" stroke="black" d="M369.48,-71.7C359.13,-62.97 346.41,-52.24 335.16,-42.75"/>
<polygon fill="black" stroke="black" points="337.18,-39.88 327.28,-36.1 332.67,-45.23 337.18,-39.88"/>
</g>
<!-- ast.Name object at 0x7e7fc3310b10&#45;&gt;ast.Load object at 0x7e80d76a3ad0 -->
<g id="edge36" class="edge">
<title>ast.Name object at 0x7e7fc3310b10&#45;&gt;ast.Load object at 0x7e80d76a3ad0</title>
<path fill="none" stroke="black" d="M286.67,-71.7C289.71,-63.81 293.38,-54.3 296.76,-45.55"/>
<polygon fill="black" stroke="black" points="300.07,-46.69 300.4,-36.1 293.54,-44.17 300.07,-46.69"/>
</g>
<!-- ast.Name object at 0x7e7fc3310890 -->
<g id="node32" class="node">
<title>ast.Name object at 0x7e7fc3310890</title>
<path fill="#66cdaa" stroke="black" d="M498,-252C498,-252 468,-252 468,-252 462,-252 456,-246 456,-240 456,-240 456,-228 456,-228 456,-222 462,-216 468,-216 468,-216 498,-216 498,-216 504,-216 510,-222 510,-228 510,-228 510,-240 510,-240 510,-246 504,-252 498,-252"/>
<text text-anchor="middle" x="483" y="-230.3" font-family="Times,serif" font-size="14.00">Name</text>
</g>
<!-- ast.Return object at 0x7e7fc3470650&#45;&gt;ast.Name object at 0x7e7fc3310890 -->
<g id="edge38" class="edge">
<title>ast.Return object at 0x7e7fc3470650&#45;&gt;ast.Name object at 0x7e7fc3310890</title>
<path fill="none" stroke="black" d="M404.65,-431.98C420.13,-408.63 447.34,-364.88 463,-324 470.68,-303.94 475.84,-280.16 478.99,-262.23"/>
<polygon fill="black" stroke="black" points="482.47,-262.6 480.65,-252.16 475.57,-261.45 482.47,-262.6"/>
</g>
<!-- ast.Name object at 0x7e7fc3310890&#45;&gt;ast.Load object at 0x7e80d76a3ad0 -->
<g id="edge39" class="edge">
<title>ast.Name object at 0x7e7fc3310890&#45;&gt;ast.Load object at 0x7e80d76a3ad0</title>
<path fill="none" stroke="black" d="M484,-215.63C484.89,-183.33 482.15,-113.54 446,-72 420.18,-42.33 375.89,-29.21 344.24,-23.44"/>
<polygon fill="black" stroke="black" points="344.48,-19.93 334.04,-21.75 343.34,-26.84 344.48,-19.93"/>
</g>
</g>
</svg>
