<?xml version="1.0" encoding="UTF-8" standalone="no"?>
<!DOCTYPE svg PUBLIC "-//W3C//DTD SVG 1.1//EN"
 "http://www.w3.org/Graphics/SVG/1.1/DTD/svg11.dtd">
<!-- Generated by graphviz version 2.50.0 (0)
 -->
<!-- Pages: 1 -->
<svg width="1566pt" height="764pt"
 viewBox="0.00 0.00 1566.00 764.00" xmlns="http://www.w3.org/2000/svg" xmlns:xlink="http://www.w3.org/1999/xlink">
<g id="graph0" class="graph" transform="scale(1 1) rotate(0) translate(4 760)">
<polygon fill="white" stroke="transparent" points="-4,4 -4,-760 1562,-760 1562,4 -4,4"/>
<!-- ast.Module object at 0x70df436649d0 -->
<g id="node1" class="node">
<title>ast.Module object at 0x70df436649d0</title>
<path fill="#66cdaa" stroke="black" d="M379,-756C379,-756 344,-756 344,-756 338,-756 332,-750 332,-744 332,-744 332,-732 332,-732 332,-726 338,-720 344,-720 344,-720 379,-720 379,-720 385,-720 391,-726 391,-732 391,-732 391,-744 391,-744 391,-750 385,-756 379,-756"/>
<text text-anchor="middle" x="361.5" y="-734.3" font-family="Times,serif" font-size="14.00">Module</text>
</g>
<!-- ast.FunctionDef object at 0x70df450f67d0 -->
<g id="node2" class="node">
<title>ast.FunctionDef object at 0x70df450f67d0</title>
<path fill="#66cdaa" stroke="black" d="M392,-684C392,-684 331,-684 331,-684 325,-684 319,-678 319,-672 319,-672 319,-660 319,-660 319,-654 325,-648 331,-648 331,-648 392,-648 392,-648 398,-648 404,-654 404,-660 404,-660 404,-672 404,-672 404,-678 398,-684 392,-684"/>
<text text-anchor="middle" x="361.5" y="-662.3" font-family="Times,serif" font-size="14.00">FunctionDef</text>
</g>
<!-- ast.Module object at 0x70df436649d0&#45;&gt;ast.FunctionDef object at 0x70df450f67d0 -->
<g id="edge1" class="edge">
<title>ast.Module object at 0x70df436649d0&#45;&gt;ast.FunctionDef object at 0x70df450f67d0</title>
<path fill="none" stroke="black" d="M361.5,-719.7C361.5,-711.98 361.5,-702.71 361.5,-694.11"/>
<polygon fill="black" stroke="black" points="365,-694.1 361.5,-684.1 358,-694.1 365,-694.1"/>
</g>
<!-- ast.arguments object at 0x70df450f62d0 -->
<g id="node3" class="node">
<title>ast.arguments object at 0x70df450f62d0</title>
<path fill="#66cdaa" stroke="black" d="M264.5,-612C264.5,-612 214.5,-612 214.5,-612 208.5,-612 202.5,-606 202.5,-600 202.5,-600 202.5,-588 202.5,-588 202.5,-582 208.5,-576 214.5,-576 214.5,-576 264.5,-576 264.5,-576 270.5,-576 276.5,-582 276.5,-588 276.5,-588 276.5,-600 276.5,-600 276.5,-606 270.5,-612 264.5,-612"/>
<text text-anchor="middle" x="239.5" y="-590.3" font-family="Times,serif" font-size="14.00">arguments</text>
</g>
<!-- ast.FunctionDef object at 0x70df450f67d0&#45;&gt;ast.arguments object at 0x70df450f62d0 -->
<g id="edge2" class="edge">
<title>ast.FunctionDef object at 0x70df450f67d0&#45;&gt;ast.arguments object at 0x70df450f62d0</title>
<path fill="none" stroke="black" d="M331.66,-647.88C315.56,-638.64 295.5,-627.13 278.21,-617.21"/>
<polygon fill="black" stroke="black" points="279.87,-614.13 269.46,-612.19 276.39,-620.2 279.87,-614.13"/>
</g>
<!-- ast.Assign object at 0x70df450f5d50 -->
<g id="node5" class="node">
<title>ast.Assign object at 0x70df450f5d50</title>
<path fill="#66cdaa" stroke="black" d="M395.5,-468C395.5,-468 365.5,-468 365.5,-468 359.5,-468 353.5,-462 353.5,-456 353.5,-456 353.5,-444 353.5,-444 353.5,-438 359.5,-432 365.5,-432 365.5,-432 395.5,-432 395.5,-432 401.5,-432 407.5,-438 407.5,-444 407.5,-444 407.5,-456 407.5,-456 407.5,-462 401.5,-468 395.5,-468"/>
<text text-anchor="middle" x="380.5" y="-446.3" font-family="Times,serif" font-size="14.00">Assign</text>
</g>
<!-- ast.FunctionDef object at 0x70df450f67d0&#45;&gt;ast.Assign object at 0x70df450f5d50 -->
<g id="edge4" class="edge">
<title>ast.FunctionDef object at 0x70df450f67d0&#45;&gt;ast.Assign object at 0x70df450f5d50</title>
<path fill="none" stroke="black" d="M363.02,-647.85C366.31,-610.83 374.09,-523.18 378.07,-478.39"/>
<polygon fill="black" stroke="black" points="381.57,-478.5 378.97,-468.23 374.6,-477.88 381.57,-478.5"/>
</g>
<!-- ast.Assign object at 0x70df32e69010 -->
<g id="node14" class="node">
<title>ast.Assign object at 0x70df32e69010</title>
<path fill="#66cdaa" stroke="black" d="M232.5,-468C232.5,-468 202.5,-468 202.5,-468 196.5,-468 190.5,-462 190.5,-456 190.5,-456 190.5,-444 190.5,-444 190.5,-438 196.5,-432 202.5,-432 202.5,-432 232.5,-432 232.5,-432 238.5,-432 244.5,-438 244.5,-444 244.5,-444 244.5,-456 244.5,-456 244.5,-462 238.5,-468 232.5,-468"/>
<text text-anchor="middle" x="217.5" y="-446.3" font-family="Times,serif" font-size="14.00">Assign</text>
</g>
<!-- ast.FunctionDef object at 0x70df450f67d0&#45;&gt;ast.Assign object at 0x70df32e69010 -->
<g id="edge14" class="edge">
<title>ast.FunctionDef object at 0x70df450f67d0&#45;&gt;ast.Assign object at 0x70df32e69010</title>
<path fill="none" stroke="black" d="M353.22,-647.77C335.67,-611.54 294.75,-528.77 275.5,-504 267.31,-493.46 256.91,-483.24 247.18,-474.62"/>
<polygon fill="black" stroke="black" points="249.45,-471.95 239.58,-468.09 244.88,-477.26 249.45,-471.95"/>
</g>
<!-- ast.Assign object at 0x70df43a3fa10 -->
<g id="node20" class="node">
<title>ast.Assign object at 0x70df43a3fa10</title>
<path fill="#66cdaa" stroke="black" d="M304.5,-468C304.5,-468 274.5,-468 274.5,-468 268.5,-468 262.5,-462 262.5,-456 262.5,-456 262.5,-444 262.5,-444 262.5,-438 268.5,-432 274.5,-432 274.5,-432 304.5,-432 304.5,-432 310.5,-432 316.5,-438 316.5,-444 316.5,-444 316.5,-456 316.5,-456 316.5,-462 310.5,-468 304.5,-468"/>
<text text-anchor="middle" x="289.5" y="-446.3" font-family="Times,serif" font-size="14.00">Assign</text>
</g>
<!-- ast.FunctionDef object at 0x70df450f67d0&#45;&gt;ast.Assign object at 0x70df43a3fa10 -->
<g id="edge22" class="edge">
<title>ast.FunctionDef object at 0x70df450f67d0&#45;&gt;ast.Assign object at 0x70df43a3fa10</title>
<path fill="none" stroke="black" d="M358.29,-647.64C352.43,-617.65 338.72,-554.49 318.5,-504 314.87,-494.94 310.06,-485.47 305.39,-477.08"/>
<polygon fill="black" stroke="black" points="308.27,-475.08 300.26,-468.15 302.2,-478.57 308.27,-475.08"/>
</g>
<!-- ast.For object at 0x70df44b2a590 -->
<g id="node24" class="node">
<title>ast.For object at 0x70df44b2a590</title>
<path fill="#66cdaa" stroke="black" d="M571.5,-612C571.5,-612 541.5,-612 541.5,-612 535.5,-612 529.5,-606 529.5,-600 529.5,-600 529.5,-588 529.5,-588 529.5,-582 535.5,-576 541.5,-576 541.5,-576 571.5,-576 571.5,-576 577.5,-576 583.5,-582 583.5,-588 583.5,-588 583.5,-600 583.5,-600 583.5,-606 577.5,-612 571.5,-612"/>
<text text-anchor="middle" x="556.5" y="-590.3" font-family="Times,serif" font-size="14.00">For</text>
</g>
<!-- ast.FunctionDef object at 0x70df450f67d0&#45;&gt;ast.For object at 0x70df44b2a590 -->
<g id="edge28" class="edge">
<title>ast.FunctionDef object at 0x70df450f67d0&#45;&gt;ast.For object at 0x70df44b2a590</title>
<path fill="none" stroke="black" d="M404.29,-649.64C438.84,-637.24 486.93,-619.97 519.75,-608.19"/>
<polygon fill="black" stroke="black" points="521.19,-611.4 529.41,-604.72 518.82,-604.81 521.19,-611.4"/>
</g>
<!-- ast.Return object at 0x70df44c3f790 -->
<g id="node69" class="node">
<title>ast.Return object at 0x70df44c3f790</title>
<path fill="#66cdaa" stroke="black" d="M759.5,-612C759.5,-612 729.5,-612 729.5,-612 723.5,-612 717.5,-606 717.5,-600 717.5,-600 717.5,-588 717.5,-588 717.5,-582 723.5,-576 729.5,-576 729.5,-576 759.5,-576 759.5,-576 765.5,-576 771.5,-582 771.5,-588 771.5,-588 771.5,-600 771.5,-600 771.5,-606 765.5,-612 759.5,-612"/>
<text text-anchor="middle" x="744.5" y="-590.3" font-family="Times,serif" font-size="14.00">Return</text>
</g>
<!-- ast.FunctionDef object at 0x70df450f67d0&#45;&gt;ast.Return object at 0x70df44c3f790 -->
<g id="edge95" class="edge">
<title>ast.FunctionDef object at 0x70df450f67d0&#45;&gt;ast.Return object at 0x70df44c3f790</title>
<path fill="none" stroke="black" d="M404.32,-657.17C480.04,-643.33 636.3,-614.78 707.59,-601.75"/>
<polygon fill="black" stroke="black" points="708.26,-605.18 717.47,-599.94 707,-598.3 708.26,-605.18"/>
</g>
<!-- ast.arg object at 0x70df450f4f50 -->
<g id="node4" class="node">
<title>ast.arg object at 0x70df450f4f50</title>
<path fill="#66cdaa" stroke="black" d="M254.5,-540C254.5,-540 224.5,-540 224.5,-540 218.5,-540 212.5,-534 212.5,-528 212.5,-528 212.5,-516 212.5,-516 212.5,-510 218.5,-504 224.5,-504 224.5,-504 254.5,-504 254.5,-504 260.5,-504 266.5,-510 266.5,-516 266.5,-516 266.5,-528 266.5,-528 266.5,-534 260.5,-540 254.5,-540"/>
<text text-anchor="middle" x="239.5" y="-518.3" font-family="Times,serif" font-size="14.00">arg</text>
</g>
<!-- ast.arguments object at 0x70df450f62d0&#45;&gt;ast.arg object at 0x70df450f4f50 -->
<g id="edge3" class="edge">
<title>ast.arguments object at 0x70df450f62d0&#45;&gt;ast.arg object at 0x70df450f4f50</title>
<path fill="none" stroke="black" d="M239.5,-575.7C239.5,-567.98 239.5,-558.71 239.5,-550.11"/>
<polygon fill="black" stroke="black" points="243,-550.1 239.5,-540.1 236,-550.1 243,-550.1"/>
</g>
<!-- ast.Name object at 0x70df450f6d90 -->
<g id="node6" class="node">
<title>ast.Name object at 0x70df450f6d90</title>
<path fill="#66cdaa" stroke="black" d="M414.5,-396C414.5,-396 384.5,-396 384.5,-396 378.5,-396 372.5,-390 372.5,-384 372.5,-384 372.5,-372 372.5,-372 372.5,-366 378.5,-360 384.5,-360 384.5,-360 414.5,-360 414.5,-360 420.5,-360 426.5,-366 426.5,-372 426.5,-372 426.5,-384 426.5,-384 426.5,-390 420.5,-396 414.5,-396"/>
<text text-anchor="middle" x="399.5" y="-374.3" font-family="Times,serif" font-size="14.00">Name</text>
</g>
<!-- ast.Assign object at 0x70df450f5d50&#45;&gt;ast.Name object at 0x70df450f6d90 -->
<g id="edge5" class="edge">
<title>ast.Assign object at 0x70df450f5d50&#45;&gt;ast.Name object at 0x70df450f6d90</title>
<path fill="none" stroke="black" d="M385.2,-431.7C387.31,-423.9 389.86,-414.51 392.22,-405.83"/>
<polygon fill="black" stroke="black" points="395.62,-406.67 394.86,-396.1 388.86,-404.84 395.62,-406.67"/>
</g>
<!-- ast.Subscript object at 0x70df2a988390 -->
<g id="node8" class="node">
<title>ast.Subscript object at 0x70df2a988390</title>
<path fill="#66cdaa" stroke="black" d="M366.5,-252C366.5,-252 322.5,-252 322.5,-252 316.5,-252 310.5,-246 310.5,-240 310.5,-240 310.5,-228 310.5,-228 310.5,-222 316.5,-216 322.5,-216 322.5,-216 366.5,-216 366.5,-216 372.5,-216 378.5,-222 378.5,-228 378.5,-228 378.5,-240 378.5,-240 378.5,-246 372.5,-252 366.5,-252"/>
<text text-anchor="middle" x="344.5" y="-230.3" font-family="Times,serif" font-size="14.00">Subscript</text>
</g>
<!-- ast.Assign object at 0x70df450f5d50&#45;&gt;ast.Subscript object at 0x70df2a988390 -->
<g id="edge7" class="edge">
<title>ast.Assign object at 0x70df450f5d50&#45;&gt;ast.Subscript object at 0x70df2a988390</title>
<path fill="none" stroke="black" d="M373.97,-431.57C370.38,-421.34 366.13,-408.09 363.5,-396 353.41,-349.54 348.36,-294.3 346.1,-262.09"/>
<polygon fill="black" stroke="black" points="349.59,-261.84 345.43,-252.1 342.6,-262.31 349.59,-261.84"/>
</g>
<!-- ast.Store object at 0x70df43fc50d0 -->
<g id="node7" class="node">
<title>ast.Store object at 0x70df43fc50d0</title>
<path fill="#66cdaa" stroke="black" d="M414.5,-324C414.5,-324 384.5,-324 384.5,-324 378.5,-324 372.5,-318 372.5,-312 372.5,-312 372.5,-300 372.5,-300 372.5,-294 378.5,-288 384.5,-288 384.5,-288 414.5,-288 414.5,-288 420.5,-288 426.5,-294 426.5,-300 426.5,-300 426.5,-312 426.5,-312 426.5,-318 420.5,-324 414.5,-324"/>
<text text-anchor="middle" x="399.5" y="-302.3" font-family="Times,serif" font-size="14.00">Store</text>
</g>
<!-- ast.Name object at 0x70df450f6d90&#45;&gt;ast.Store object at 0x70df43fc50d0 -->
<g id="edge6" class="edge">
<title>ast.Name object at 0x70df450f6d90&#45;&gt;ast.Store object at 0x70df43fc50d0</title>
<path fill="none" stroke="black" d="M399.5,-359.7C399.5,-351.98 399.5,-342.71 399.5,-334.11"/>
<polygon fill="black" stroke="black" points="403,-334.1 399.5,-324.1 396,-334.1 403,-334.1"/>
</g>
<!-- ast.Name object at 0x70df437c3e90 -->
<g id="node9" class="node">
<title>ast.Name object at 0x70df437c3e90</title>
<path fill="#66cdaa" stroke="black" d="M414.5,-180C414.5,-180 384.5,-180 384.5,-180 378.5,-180 372.5,-174 372.5,-168 372.5,-168 372.5,-156 372.5,-156 372.5,-150 378.5,-144 384.5,-144 384.5,-144 414.5,-144 414.5,-144 420.5,-144 426.5,-150 426.5,-156 426.5,-156 426.5,-168 426.5,-168 426.5,-174 420.5,-180 414.5,-180"/>
<text text-anchor="middle" x="399.5" y="-158.3" font-family="Times,serif" font-size="14.00">Name</text>
</g>
<!-- ast.Subscript object at 0x70df2a988390&#45;&gt;ast.Name object at 0x70df437c3e90 -->
<g id="edge8" class="edge">
<title>ast.Subscript object at 0x70df2a988390&#45;&gt;ast.Name object at 0x70df437c3e90</title>
<path fill="none" stroke="black" d="M358.1,-215.7C364.62,-207.39 372.57,-197.28 379.75,-188.14"/>
<polygon fill="black" stroke="black" points="382.63,-190.13 386.06,-180.1 377.13,-185.81 382.63,-190.13"/>
</g>
<!-- ast.Load object at 0x70df43fc5050 -->
<g id="node10" class="node">
<title>ast.Load object at 0x70df43fc5050</title>
<path fill="#66cdaa" stroke="black" d="M926.5,-108C926.5,-108 896.5,-108 896.5,-108 890.5,-108 884.5,-102 884.5,-96 884.5,-96 884.5,-84 884.5,-84 884.5,-78 890.5,-72 896.5,-72 896.5,-72 926.5,-72 926.5,-72 932.5,-72 938.5,-78 938.5,-84 938.5,-84 938.5,-96 938.5,-96 938.5,-102 932.5,-108 926.5,-108"/>
<text text-anchor="middle" x="911.5" y="-86.3" font-family="Times,serif" font-size="14.00">Load</text>
</g>
<!-- ast.Subscript object at 0x70df2a988390&#45;&gt;ast.Load object at 0x70df43fc5050 -->
<g id="edge13" class="edge">
<title>ast.Subscript object at 0x70df2a988390&#45;&gt;ast.Load object at 0x70df43fc5050</title>
<path fill="none" stroke="black" d="M342.71,-215.67C341.66,-195.26 343.46,-161.88 363.5,-144 401.54,-110.06 756.76,-95.88 874.09,-92.1"/>
<polygon fill="black" stroke="black" points="874.48,-95.59 884.36,-91.77 874.26,-88.59 874.48,-95.59"/>
</g>
<!-- ast.Slice object at 0x70df43b77fd0 -->
<g id="node11" class="node">
<title>ast.Slice object at 0x70df43b77fd0</title>
<path fill="#66cdaa" stroke="black" d="M170.5,-180C170.5,-180 140.5,-180 140.5,-180 134.5,-180 128.5,-174 128.5,-168 128.5,-168 128.5,-156 128.5,-156 128.5,-150 134.5,-144 140.5,-144 140.5,-144 170.5,-144 170.5,-144 176.5,-144 182.5,-150 182.5,-156 182.5,-156 182.5,-168 182.5,-168 182.5,-174 176.5,-180 170.5,-180"/>
<text text-anchor="middle" x="155.5" y="-158.3" font-family="Times,serif" font-size="14.00">Slice</text>
</g>
<!-- ast.Subscript object at 0x70df2a988390&#45;&gt;ast.Slice object at 0x70df43b77fd0 -->
<g id="edge10" class="edge">
<title>ast.Subscript object at 0x70df2a988390&#45;&gt;ast.Slice object at 0x70df43b77fd0</title>
<path fill="none" stroke="black" d="M310.38,-222.35C281.13,-212.96 237.76,-198.43 192.3,-180.14"/>
<polygon fill="black" stroke="black" points="193.46,-176.83 182.88,-176.3 190.82,-183.31 193.46,-176.83"/>
</g>
<!-- ast.Name object at 0x70df437c3e90&#45;&gt;ast.Load object at 0x70df43fc5050 -->
<g id="edge9" class="edge">
<title>ast.Name object at 0x70df437c3e90&#45;&gt;ast.Load object at 0x70df43fc5050</title>
<path fill="none" stroke="black" d="M426.93,-148.4C431.39,-146.7 436.02,-145.16 440.5,-144 598.34,-103.27 793.95,-93.84 874.35,-91.66"/>
<polygon fill="black" stroke="black" points="874.56,-95.15 884.47,-91.4 874.38,-88.15 874.56,-95.15"/>
</g>
<!-- ast.Constant object at 0x70df437dec10 -->
<g id="node12" class="node">
<title>ast.Constant object at 0x70df437dec10</title>
<path fill="#66cdaa" stroke="black" d="M135,-108C135,-108 94,-108 94,-108 88,-108 82,-102 82,-96 82,-96 82,-84 82,-84 82,-78 88,-72 94,-72 94,-72 135,-72 135,-72 141,-72 147,-78 147,-84 147,-84 147,-96 147,-96 147,-102 141,-108 135,-108"/>
<text text-anchor="middle" x="114.5" y="-86.3" font-family="Times,serif" font-size="14.00">Constant</text>
</g>
<!-- ast.Slice object at 0x70df43b77fd0&#45;&gt;ast.Constant object at 0x70df437dec10 -->
<g id="edge11" class="edge">
<title>ast.Slice object at 0x70df43b77fd0&#45;&gt;ast.Constant object at 0x70df437dec10</title>
<path fill="none" stroke="black" d="M145.37,-143.7C140.65,-135.64 134.94,-125.89 129.72,-116.98"/>
<polygon fill="black" stroke="black" points="132.59,-114.96 124.52,-108.1 126.55,-118.5 132.59,-114.96"/>
</g>
<!-- ast.Constant object at 0x70df3307bd90 -->
<g id="node13" class="node">
<title>ast.Constant object at 0x70df3307bd90</title>
<path fill="#66cdaa" stroke="black" d="M218,-108C218,-108 177,-108 177,-108 171,-108 165,-102 165,-96 165,-96 165,-84 165,-84 165,-78 171,-72 177,-72 177,-72 218,-72 218,-72 224,-72 230,-78 230,-84 230,-84 230,-96 230,-96 230,-102 224,-108 218,-108"/>
<text text-anchor="middle" x="197.5" y="-86.3" font-family="Times,serif" font-size="14.00">Constant</text>
</g>
<!-- ast.Slice object at 0x70df43b77fd0&#45;&gt;ast.Constant object at 0x70df3307bd90 -->
<g id="edge12" class="edge">
<title>ast.Slice object at 0x70df43b77fd0&#45;&gt;ast.Constant object at 0x70df3307bd90</title>
<path fill="none" stroke="black" d="M165.88,-143.7C170.76,-135.56 176.69,-125.69 182.08,-116.7"/>
<polygon fill="black" stroke="black" points="185.09,-118.48 187.24,-108.1 179.09,-114.88 185.09,-118.48"/>
</g>
<!-- ast.Name object at 0x70df439314d0 -->
<g id="node15" class="node">
<title>ast.Name object at 0x70df439314d0</title>
<path fill="#66cdaa" stroke="black" d="M232.5,-396C232.5,-396 202.5,-396 202.5,-396 196.5,-396 190.5,-390 190.5,-384 190.5,-384 190.5,-372 190.5,-372 190.5,-366 196.5,-360 202.5,-360 202.5,-360 232.5,-360 232.5,-360 238.5,-360 244.5,-366 244.5,-372 244.5,-372 244.5,-384 244.5,-384 244.5,-390 238.5,-396 232.5,-396"/>
<text text-anchor="middle" x="217.5" y="-374.3" font-family="Times,serif" font-size="14.00">Name</text>
</g>
<!-- ast.Assign object at 0x70df32e69010&#45;&gt;ast.Name object at 0x70df439314d0 -->
<g id="edge15" class="edge">
<title>ast.Assign object at 0x70df32e69010&#45;&gt;ast.Name object at 0x70df439314d0</title>
<path fill="none" stroke="black" d="M217.5,-431.7C217.5,-423.98 217.5,-414.71 217.5,-406.11"/>
<polygon fill="black" stroke="black" points="221,-406.1 217.5,-396.1 214,-406.1 221,-406.1"/>
</g>
<!-- ast.Call object at 0x70df43931cd0 -->
<g id="node16" class="node">
<title>ast.Call object at 0x70df43931cd0</title>
<path fill="#66cdaa" stroke="black" d="M88.5,-396C88.5,-396 58.5,-396 58.5,-396 52.5,-396 46.5,-390 46.5,-384 46.5,-384 46.5,-372 46.5,-372 46.5,-366 52.5,-360 58.5,-360 58.5,-360 88.5,-360 88.5,-360 94.5,-360 100.5,-366 100.5,-372 100.5,-372 100.5,-384 100.5,-384 100.5,-390 94.5,-396 88.5,-396"/>
<text text-anchor="middle" x="73.5" y="-374.3" font-family="Times,serif" font-size="14.00">Call</text>
</g>
<!-- ast.Assign object at 0x70df32e69010&#45;&gt;ast.Call object at 0x70df43931cd0 -->
<g id="edge17" class="edge">
<title>ast.Assign object at 0x70df32e69010&#45;&gt;ast.Call object at 0x70df43931cd0</title>
<path fill="none" stroke="black" d="M190.41,-435.83C167.73,-424.81 135.14,-408.97 110.13,-396.81"/>
<polygon fill="black" stroke="black" points="111.48,-393.57 100.95,-392.35 108.42,-399.87 111.48,-393.57"/>
</g>
<!-- ast.Name object at 0x70df439314d0&#45;&gt;ast.Store object at 0x70df43fc50d0 -->
<g id="edge16" class="edge">
<title>ast.Name object at 0x70df439314d0&#45;&gt;ast.Store object at 0x70df43fc50d0</title>
<path fill="none" stroke="black" d="M244.51,-363.92C247.52,-362.55 250.57,-361.22 253.5,-360 290.18,-344.72 333,-329.47 362.74,-319.28"/>
<polygon fill="black" stroke="black" points="363.96,-322.56 372.3,-316.03 361.71,-315.94 363.96,-322.56"/>
</g>
<!-- ast.Name object at 0x70df43933350 -->
<g id="node17" class="node">
<title>ast.Name object at 0x70df43933350</title>
<path fill="#66cdaa" stroke="black" d="M242.5,-180C242.5,-180 212.5,-180 212.5,-180 206.5,-180 200.5,-174 200.5,-168 200.5,-168 200.5,-156 200.5,-156 200.5,-150 206.5,-144 212.5,-144 212.5,-144 242.5,-144 242.5,-144 248.5,-144 254.5,-150 254.5,-156 254.5,-156 254.5,-168 254.5,-168 254.5,-174 248.5,-180 242.5,-180"/>
<text text-anchor="middle" x="227.5" y="-158.3" font-family="Times,serif" font-size="14.00">Name</text>
</g>
<!-- ast.Call object at 0x70df43931cd0&#45;&gt;ast.Name object at 0x70df43933350 -->
<g id="edge18" class="edge">
<title>ast.Call object at 0x70df43931cd0&#45;&gt;ast.Name object at 0x70df43933350</title>
<path fill="none" stroke="black" d="M100.53,-362.03C121.45,-350.04 148.21,-333.67 156.5,-324 190.92,-283.86 211.26,-224.4 220.81,-190.09"/>
<polygon fill="black" stroke="black" points="224.23,-190.87 223.44,-180.3 217.47,-189.05 224.23,-190.87"/>
</g>
<!-- ast.Constant object at 0x70df43930a90 -->
<g id="node18" class="node">
<title>ast.Constant object at 0x70df43930a90</title>
<path fill="#66cdaa" stroke="black" d="M53,-324C53,-324 12,-324 12,-324 6,-324 0,-318 0,-312 0,-312 0,-300 0,-300 0,-294 6,-288 12,-288 12,-288 53,-288 53,-288 59,-288 65,-294 65,-300 65,-300 65,-312 65,-312 65,-318 59,-324 53,-324"/>
<text text-anchor="middle" x="32.5" y="-302.3" font-family="Times,serif" font-size="14.00">Constant</text>
</g>
<!-- ast.Call object at 0x70df43931cd0&#45;&gt;ast.Constant object at 0x70df43930a90 -->
<g id="edge20" class="edge">
<title>ast.Call object at 0x70df43931cd0&#45;&gt;ast.Constant object at 0x70df43930a90</title>
<path fill="none" stroke="black" d="M63.37,-359.7C58.65,-351.64 52.94,-341.89 47.72,-332.98"/>
<polygon fill="black" stroke="black" points="50.59,-330.96 42.52,-324.1 44.55,-334.5 50.59,-330.96"/>
</g>
<!-- ast.Constant object at 0x70df43931a90 -->
<g id="node19" class="node">
<title>ast.Constant object at 0x70df43931a90</title>
<path fill="#66cdaa" stroke="black" d="M136,-324C136,-324 95,-324 95,-324 89,-324 83,-318 83,-312 83,-312 83,-300 83,-300 83,-294 89,-288 95,-288 95,-288 136,-288 136,-288 142,-288 148,-294 148,-300 148,-300 148,-312 148,-312 148,-318 142,-324 136,-324"/>
<text text-anchor="middle" x="115.5" y="-302.3" font-family="Times,serif" font-size="14.00">Constant</text>
</g>
<!-- ast.Call object at 0x70df43931cd0&#45;&gt;ast.Constant object at 0x70df43931a90 -->
<g id="edge21" class="edge">
<title>ast.Call object at 0x70df43931cd0&#45;&gt;ast.Constant object at 0x70df43931a90</title>
<path fill="none" stroke="black" d="M83.88,-359.7C88.76,-351.56 94.69,-341.69 100.08,-332.7"/>
<polygon fill="black" stroke="black" points="103.09,-334.48 105.24,-324.1 97.09,-330.88 103.09,-334.48"/>
</g>
<!-- ast.Name object at 0x70df43933350&#45;&gt;ast.Load object at 0x70df43fc5050 -->
<g id="edge19" class="edge">
<title>ast.Name object at 0x70df43933350&#45;&gt;ast.Load object at 0x70df43fc5050</title>
<path fill="none" stroke="black" d="M254.9,-148.28C259.37,-146.6 264.01,-145.09 268.5,-144 384.87,-115.81 755.34,-97.74 874.33,-92.55"/>
<polygon fill="black" stroke="black" points="874.56,-96.04 884.4,-92.11 874.26,-89.05 874.56,-96.04"/>
</g>
<!-- ast.Name object at 0x70df44b28890 -->
<g id="node21" class="node">
<title>ast.Name object at 0x70df44b28890</title>
<path fill="#66cdaa" stroke="black" d="M304.5,-396C304.5,-396 274.5,-396 274.5,-396 268.5,-396 262.5,-390 262.5,-384 262.5,-384 262.5,-372 262.5,-372 262.5,-366 268.5,-360 274.5,-360 274.5,-360 304.5,-360 304.5,-360 310.5,-360 316.5,-366 316.5,-372 316.5,-372 316.5,-384 316.5,-384 316.5,-390 310.5,-396 304.5,-396"/>
<text text-anchor="middle" x="289.5" y="-374.3" font-family="Times,serif" font-size="14.00">Name</text>
</g>
<!-- ast.Assign object at 0x70df43a3fa10&#45;&gt;ast.Name object at 0x70df44b28890 -->
<g id="edge23" class="edge">
<title>ast.Assign object at 0x70df43a3fa10&#45;&gt;ast.Name object at 0x70df44b28890</title>
<path fill="none" stroke="black" d="M289.5,-431.7C289.5,-423.98 289.5,-414.71 289.5,-406.11"/>
<polygon fill="black" stroke="black" points="293,-406.1 289.5,-396.1 286,-406.1 293,-406.1"/>
</g>
<!-- ast.Call object at 0x70df44b28a90 -->
<g id="node22" class="node">
<title>ast.Call object at 0x70df44b28a90</title>
<path fill="#66cdaa" stroke="black" d="M160.5,-396C160.5,-396 130.5,-396 130.5,-396 124.5,-396 118.5,-390 118.5,-384 118.5,-384 118.5,-372 118.5,-372 118.5,-366 124.5,-360 130.5,-360 130.5,-360 160.5,-360 160.5,-360 166.5,-360 172.5,-366 172.5,-372 172.5,-372 172.5,-384 172.5,-384 172.5,-390 166.5,-396 160.5,-396"/>
<text text-anchor="middle" x="145.5" y="-374.3" font-family="Times,serif" font-size="14.00">Call</text>
</g>
<!-- ast.Assign object at 0x70df43a3fa10&#45;&gt;ast.Call object at 0x70df44b28a90 -->
<g id="edge25" class="edge">
<title>ast.Assign object at 0x70df43a3fa10&#45;&gt;ast.Call object at 0x70df44b28a90</title>
<path fill="none" stroke="black" d="M262.41,-435.83C239.73,-424.81 207.14,-408.97 182.13,-396.81"/>
<polygon fill="black" stroke="black" points="183.48,-393.57 172.95,-392.35 180.42,-399.87 183.48,-393.57"/>
</g>
<!-- ast.Name object at 0x70df44b28890&#45;&gt;ast.Store object at 0x70df43fc50d0 -->
<g id="edge24" class="edge">
<title>ast.Name object at 0x70df44b28890&#45;&gt;ast.Store object at 0x70df43fc50d0</title>
<path fill="none" stroke="black" d="M316.41,-359.88C330.66,-350.81 348.35,-339.55 363.74,-329.76"/>
<polygon fill="black" stroke="black" points="365.93,-332.51 372.49,-324.19 362.17,-326.61 365.93,-332.51"/>
</g>
<!-- ast.Name object at 0x70df44b28cd0 -->
<g id="node23" class="node">
<title>ast.Name object at 0x70df44b28cd0</title>
<path fill="#66cdaa" stroke="black" d="M284.5,-324C284.5,-324 254.5,-324 254.5,-324 248.5,-324 242.5,-318 242.5,-312 242.5,-312 242.5,-300 242.5,-300 242.5,-294 248.5,-288 254.5,-288 254.5,-288 284.5,-288 284.5,-288 290.5,-288 296.5,-294 296.5,-300 296.5,-300 296.5,-312 296.5,-312 296.5,-318 290.5,-324 284.5,-324"/>
<text text-anchor="middle" x="269.5" y="-302.3" font-family="Times,serif" font-size="14.00">Name</text>
</g>
<!-- ast.Call object at 0x70df44b28a90&#45;&gt;ast.Name object at 0x70df44b28cd0 -->
<g id="edge26" class="edge">
<title>ast.Call object at 0x70df44b28a90&#45;&gt;ast.Name object at 0x70df44b28cd0</title>
<path fill="none" stroke="black" d="M172.71,-361.64C190.56,-351.56 214.1,-338.28 233.49,-327.33"/>
<polygon fill="black" stroke="black" points="235.36,-330.29 242.35,-322.33 231.92,-324.19 235.36,-330.29"/>
</g>
<!-- ast.Name object at 0x70df44b28cd0&#45;&gt;ast.Load object at 0x70df43fc5050 -->
<g id="edge27" class="edge">
<title>ast.Name object at 0x70df44b28cd0&#45;&gt;ast.Load object at 0x70df43fc5050</title>
<path fill="none" stroke="black" d="M271.17,-287.79C275.54,-253.45 290.66,-176.9 340.5,-144 384.96,-114.65 754.23,-97.33 874.09,-92.44"/>
<polygon fill="black" stroke="black" points="874.4,-95.93 884.25,-92.03 874.11,-88.94 874.4,-95.93"/>
</g>
<!-- ast.Name object at 0x70df44b290d0 -->
<g id="node25" class="node">
<title>ast.Name object at 0x70df44b290d0</title>
<path fill="#66cdaa" stroke="black" d="M513.5,-540C513.5,-540 483.5,-540 483.5,-540 477.5,-540 471.5,-534 471.5,-528 471.5,-528 471.5,-516 471.5,-516 471.5,-510 477.5,-504 483.5,-504 483.5,-504 513.5,-504 513.5,-504 519.5,-504 525.5,-510 525.5,-516 525.5,-516 525.5,-528 525.5,-528 525.5,-534 519.5,-540 513.5,-540"/>
<text text-anchor="middle" x="498.5" y="-518.3" font-family="Times,serif" font-size="14.00">Name</text>
</g>
<!-- ast.For object at 0x70df44b2a590&#45;&gt;ast.Name object at 0x70df44b290d0 -->
<g id="edge29" class="edge">
<title>ast.For object at 0x70df44b2a590&#45;&gt;ast.Name object at 0x70df44b290d0</title>
<path fill="none" stroke="black" d="M542.16,-575.7C535.21,-567.3 526.73,-557.07 519.1,-547.86"/>
<polygon fill="black" stroke="black" points="521.75,-545.57 512.67,-540.1 516.36,-550.04 521.75,-545.57"/>
</g>
<!-- ast.Name object at 0x70df44b29d90 -->
<g id="node26" class="node">
<title>ast.Name object at 0x70df44b29d90</title>
<path fill="#66cdaa" stroke="black" d="M1079.5,-540C1079.5,-540 1049.5,-540 1049.5,-540 1043.5,-540 1037.5,-534 1037.5,-528 1037.5,-528 1037.5,-516 1037.5,-516 1037.5,-510 1043.5,-504 1049.5,-504 1049.5,-504 1079.5,-504 1079.5,-504 1085.5,-504 1091.5,-510 1091.5,-516 1091.5,-516 1091.5,-528 1091.5,-528 1091.5,-534 1085.5,-540 1079.5,-540"/>
<text text-anchor="middle" x="1064.5" y="-518.3" font-family="Times,serif" font-size="14.00">Name</text>
</g>
<!-- ast.For object at 0x70df44b2a590&#45;&gt;ast.Name object at 0x70df44b29d90 -->
<g id="edge31" class="edge">
<title>ast.For object at 0x70df44b2a590&#45;&gt;ast.Name object at 0x70df44b29d90</title>
<path fill="none" stroke="black" d="M583.81,-589.24C669.02,-577.5 930.05,-541.53 1027.39,-528.11"/>
<polygon fill="black" stroke="black" points="1027.93,-531.57 1037.36,-526.74 1026.98,-524.64 1027.93,-531.57"/>
</g>
<!-- ast.For object at 0x70df44b2b050 -->
<g id="node27" class="node">
<title>ast.For object at 0x70df44b2b050</title>
<path fill="#66cdaa" stroke="black" d="M629.5,-540C629.5,-540 599.5,-540 599.5,-540 593.5,-540 587.5,-534 587.5,-528 587.5,-528 587.5,-516 587.5,-516 587.5,-510 593.5,-504 599.5,-504 599.5,-504 629.5,-504 629.5,-504 635.5,-504 641.5,-510 641.5,-516 641.5,-516 641.5,-528 641.5,-528 641.5,-534 635.5,-540 629.5,-540"/>
<text text-anchor="middle" x="614.5" y="-518.3" font-family="Times,serif" font-size="14.00">For</text>
</g>
<!-- ast.For object at 0x70df44b2a590&#45;&gt;ast.For object at 0x70df44b2b050 -->
<g id="edge33" class="edge">
<title>ast.For object at 0x70df44b2a590&#45;&gt;ast.For object at 0x70df44b2b050</title>
<path fill="none" stroke="black" d="M570.84,-575.7C577.79,-567.3 586.27,-557.07 593.9,-547.86"/>
<polygon fill="black" stroke="black" points="596.64,-550.04 600.33,-540.1 591.25,-545.57 596.64,-550.04"/>
</g>
<!-- ast.Name object at 0x70df44b290d0&#45;&gt;ast.Store object at 0x70df43fc50d0 -->
<g id="edge30" class="edge">
<title>ast.Name object at 0x70df44b290d0&#45;&gt;ast.Store object at 0x70df43fc50d0</title>
<path fill="none" stroke="black" d="M493.09,-503.52C483.45,-473.35 461.8,-409.93 435.5,-360 430.58,-350.65 424.35,-340.94 418.46,-332.43"/>
<polygon fill="black" stroke="black" points="421.16,-330.18 412.52,-324.05 415.45,-334.23 421.16,-330.18"/>
</g>
<!-- ast.Name object at 0x70df44b29d90&#45;&gt;ast.Load object at 0x70df43fc5050 -->
<g id="edge32" class="edge">
<title>ast.Name object at 0x70df44b29d90&#45;&gt;ast.Load object at 0x70df43fc5050</title>
<path fill="none" stroke="black" d="M1091.76,-516.86C1178.66,-502.9 1443.5,-454.18 1443.5,-379 1443.5,-379 1443.5,-379 1443.5,-305 1443.5,-228.48 1446.61,-185.77 1382.5,-144 1311.15,-97.52 1047.34,-91.55 948.88,-90.97"/>
<polygon fill="black" stroke="black" points="948.81,-87.47 938.79,-90.93 948.77,-94.47 948.81,-87.47"/>
</g>
<!-- ast.Name object at 0x70df44b2ae50 -->
<g id="node28" class="node">
<title>ast.Name object at 0x70df44b2ae50</title>
<path fill="#66cdaa" stroke="black" d="M546.5,-468C546.5,-468 516.5,-468 516.5,-468 510.5,-468 504.5,-462 504.5,-456 504.5,-456 504.5,-444 504.5,-444 504.5,-438 510.5,-432 516.5,-432 516.5,-432 546.5,-432 546.5,-432 552.5,-432 558.5,-438 558.5,-444 558.5,-444 558.5,-456 558.5,-456 558.5,-462 552.5,-468 546.5,-468"/>
<text text-anchor="middle" x="531.5" y="-446.3" font-family="Times,serif" font-size="14.00">Name</text>
</g>
<!-- ast.For object at 0x70df44b2b050&#45;&gt;ast.Name object at 0x70df44b2ae50 -->
<g id="edge34" class="edge">
<title>ast.For object at 0x70df44b2b050&#45;&gt;ast.Name object at 0x70df44b2ae50</title>
<path fill="none" stroke="black" d="M593.98,-503.7C583.63,-494.97 570.91,-484.24 559.66,-474.75"/>
<polygon fill="black" stroke="black" points="561.68,-471.88 551.78,-468.1 557.17,-477.23 561.68,-471.88"/>
</g>
<!-- ast.Call object at 0x70df44b2ac10 -->
<g id="node29" class="node">
<title>ast.Call object at 0x70df44b2ac10</title>
<path fill="#66cdaa" stroke="black" d="M720.5,-468C720.5,-468 690.5,-468 690.5,-468 684.5,-468 678.5,-462 678.5,-456 678.5,-456 678.5,-444 678.5,-444 678.5,-438 684.5,-432 690.5,-432 690.5,-432 720.5,-432 720.5,-432 726.5,-432 732.5,-438 732.5,-444 732.5,-444 732.5,-456 732.5,-456 732.5,-462 726.5,-468 720.5,-468"/>
<text text-anchor="middle" x="705.5" y="-446.3" font-family="Times,serif" font-size="14.00">Call</text>
</g>
<!-- ast.For object at 0x70df44b2b050&#45;&gt;ast.Call object at 0x70df44b2ac10 -->
<g id="edge36" class="edge">
<title>ast.For object at 0x70df44b2b050&#45;&gt;ast.Call object at 0x70df44b2ac10</title>
<path fill="none" stroke="black" d="M636.99,-503.7C648.46,-494.88 662.56,-484.03 674.98,-474.47"/>
<polygon fill="black" stroke="black" points="677.47,-476.98 683.26,-468.1 673.2,-471.43 677.47,-476.98"/>
</g>
<!-- ast.Assign object at 0x70df45153110 -->
<g id="node40" class="node">
<title>ast.Assign object at 0x70df45153110</title>
<path fill="#66cdaa" stroke="black" d="M629.5,-468C629.5,-468 599.5,-468 599.5,-468 593.5,-468 587.5,-462 587.5,-456 587.5,-456 587.5,-444 587.5,-444 587.5,-438 593.5,-432 599.5,-432 599.5,-432 629.5,-432 629.5,-432 635.5,-432 641.5,-438 641.5,-444 641.5,-444 641.5,-456 641.5,-456 641.5,-462 635.5,-468 629.5,-468"/>
<text text-anchor="middle" x="614.5" y="-446.3" font-family="Times,serif" font-size="14.00">Assign</text>
</g>
<!-- ast.For object at 0x70df44b2b050&#45;&gt;ast.Assign object at 0x70df45153110 -->
<g id="edge51" class="edge">
<title>ast.For object at 0x70df44b2b050&#45;&gt;ast.Assign object at 0x70df45153110</title>
<path fill="none" stroke="black" d="M614.5,-503.7C614.5,-495.98 614.5,-486.71 614.5,-478.11"/>
<polygon fill="black" stroke="black" points="618,-478.1 614.5,-468.1 611,-478.1 618,-478.1"/>
</g>
<!-- ast.If object at 0x70df44b1ad90 -->
<g id="node49" class="node">
<title>ast.If object at 0x70df44b1ad90</title>
<path fill="#66cdaa" stroke="black" d="M1170.5,-468C1170.5,-468 1140.5,-468 1140.5,-468 1134.5,-468 1128.5,-462 1128.5,-456 1128.5,-456 1128.5,-444 1128.5,-444 1128.5,-438 1134.5,-432 1140.5,-432 1140.5,-432 1170.5,-432 1170.5,-432 1176.5,-432 1182.5,-438 1182.5,-444 1182.5,-444 1182.5,-456 1182.5,-456 1182.5,-462 1176.5,-468 1170.5,-468"/>
<text text-anchor="middle" x="1155.5" y="-446.3" font-family="Times,serif" font-size="14.00">If</text>
</g>
<!-- ast.For object at 0x70df44b2b050&#45;&gt;ast.If object at 0x70df44b1ad90 -->
<g id="edge67" class="edge">
<title>ast.For object at 0x70df44b2b050&#45;&gt;ast.If object at 0x70df44b1ad90</title>
<path fill="none" stroke="black" d="M641.7,-517.48C731,-505.93 1015.34,-469.14 1118.04,-455.85"/>
<polygon fill="black" stroke="black" points="1118.78,-459.28 1128.25,-454.53 1117.88,-452.34 1118.78,-459.28"/>
</g>
<!-- ast.Name object at 0x70df44b2ae50&#45;&gt;ast.Store object at 0x70df43fc50d0 -->
<g id="edge35" class="edge">
<title>ast.Name object at 0x70df44b2ae50&#45;&gt;ast.Store object at 0x70df43fc50d0</title>
<path fill="none" stroke="black" d="M521.49,-431.79C510.06,-412.98 490.15,-382.51 468.5,-360 458.14,-349.22 445.47,-338.86 433.84,-330.2"/>
<polygon fill="black" stroke="black" points="435.74,-327.25 425.59,-324.21 431.63,-332.92 435.74,-327.25"/>
</g>
<!-- ast.Name object at 0x70df44b2a110 -->
<g id="node30" class="node">
<title>ast.Name object at 0x70df44b2a110</title>
<path fill="#66cdaa" stroke="black" d="M720.5,-396C720.5,-396 690.5,-396 690.5,-396 684.5,-396 678.5,-390 678.5,-384 678.5,-384 678.5,-372 678.5,-372 678.5,-366 684.5,-360 690.5,-360 690.5,-360 720.5,-360 720.5,-360 726.5,-360 732.5,-366 732.5,-372 732.5,-372 732.5,-384 732.5,-384 732.5,-390 726.5,-396 720.5,-396"/>
<text text-anchor="middle" x="705.5" y="-374.3" font-family="Times,serif" font-size="14.00">Name</text>
</g>
<!-- ast.Call object at 0x70df44b2ac10&#45;&gt;ast.Name object at 0x70df44b2a110 -->
<g id="edge37" class="edge">
<title>ast.Call object at 0x70df44b2ac10&#45;&gt;ast.Name object at 0x70df44b2a110</title>
<path fill="none" stroke="black" d="M705.5,-431.7C705.5,-423.98 705.5,-414.71 705.5,-406.11"/>
<polygon fill="black" stroke="black" points="709,-406.1 705.5,-396.1 702,-406.1 709,-406.1"/>
</g>
<!-- ast.BinOp object at 0x70df44b28110 -->
<g id="node31" class="node">
<title>ast.BinOp object at 0x70df44b28110</title>
<path fill="#66cdaa" stroke="black" d="M793.5,-396C793.5,-396 763.5,-396 763.5,-396 757.5,-396 751.5,-390 751.5,-384 751.5,-384 751.5,-372 751.5,-372 751.5,-366 757.5,-360 763.5,-360 763.5,-360 793.5,-360 793.5,-360 799.5,-360 805.5,-366 805.5,-372 805.5,-372 805.5,-384 805.5,-384 805.5,-390 799.5,-396 793.5,-396"/>
<text text-anchor="middle" x="778.5" y="-374.3" font-family="Times,serif" font-size="14.00">BinOp</text>
</g>
<!-- ast.Call object at 0x70df44b2ac10&#45;&gt;ast.BinOp object at 0x70df44b28110 -->
<g id="edge39" class="edge">
<title>ast.Call object at 0x70df44b2ac10&#45;&gt;ast.BinOp object at 0x70df44b28110</title>
<path fill="none" stroke="black" d="M723.54,-431.7C732.56,-423.05 743.62,-412.45 753.44,-403.03"/>
<polygon fill="black" stroke="black" points="755.87,-405.55 760.66,-396.1 751.02,-400.5 755.87,-405.55"/>
</g>
<!-- ast.Name object at 0x70df44b2a110&#45;&gt;ast.Load object at 0x70df43fc5050 -->
<g id="edge38" class="edge">
<title>ast.Name object at 0x70df44b2a110&#45;&gt;ast.Load object at 0x70df43fc5050</title>
<path fill="none" stroke="black" d="M706.1,-359.58C707.77,-328.94 714.16,-264.12 738.5,-216 748.23,-196.76 786.29,-156.98 803.5,-144 825.29,-127.56 852.97,-114.1 874.85,-104.85"/>
<polygon fill="black" stroke="black" points="876.23,-108.07 884.15,-101.03 873.57,-101.6 876.23,-108.07"/>
</g>
<!-- ast.BinOp object at 0x70df44b29090 -->
<g id="node32" class="node">
<title>ast.BinOp object at 0x70df44b29090</title>
<path fill="#66cdaa" stroke="black" d="M873.5,-324C873.5,-324 843.5,-324 843.5,-324 837.5,-324 831.5,-318 831.5,-312 831.5,-312 831.5,-300 831.5,-300 831.5,-294 837.5,-288 843.5,-288 843.5,-288 873.5,-288 873.5,-288 879.5,-288 885.5,-294 885.5,-300 885.5,-300 885.5,-312 885.5,-312 885.5,-318 879.5,-324 873.5,-324"/>
<text text-anchor="middle" x="858.5" y="-302.3" font-family="Times,serif" font-size="14.00">BinOp</text>
</g>
<!-- ast.BinOp object at 0x70df44b28110&#45;&gt;ast.BinOp object at 0x70df44b29090 -->
<g id="edge40" class="edge">
<title>ast.BinOp object at 0x70df44b28110&#45;&gt;ast.BinOp object at 0x70df44b29090</title>
<path fill="none" stroke="black" d="M798.28,-359.7C808.25,-350.97 820.51,-340.24 831.36,-330.75"/>
<polygon fill="black" stroke="black" points="833.73,-333.32 838.95,-324.1 829.12,-328.06 833.73,-333.32"/>
</g>
<!-- ast.Add object at 0x70df43fc5550 -->
<g id="node38" class="node">
<title>ast.Add object at 0x70df43fc5550</title>
<path fill="#66cdaa" stroke="black" d="M706.5,-180C706.5,-180 676.5,-180 676.5,-180 670.5,-180 664.5,-174 664.5,-168 664.5,-168 664.5,-156 664.5,-156 664.5,-150 670.5,-144 676.5,-144 676.5,-144 706.5,-144 706.5,-144 712.5,-144 718.5,-150 718.5,-156 718.5,-156 718.5,-168 718.5,-168 718.5,-174 712.5,-180 706.5,-180"/>
<text text-anchor="middle" x="691.5" y="-158.3" font-family="Times,serif" font-size="14.00">Add</text>
</g>
<!-- ast.BinOp object at 0x70df44b28110&#45;&gt;ast.Add object at 0x70df43fc5550 -->
<g id="edge49" class="edge">
<title>ast.BinOp object at 0x70df44b28110&#45;&gt;ast.Add object at 0x70df43fc5550</title>
<path fill="none" stroke="black" d="M763.51,-359.85C755.46,-349.93 745.92,-336.88 739.5,-324 717.42,-279.67 703.51,-223.31 696.65,-190.39"/>
<polygon fill="black" stroke="black" points="700,-189.28 694.59,-180.17 693.14,-190.67 700,-189.28"/>
</g>
<!-- ast.Constant object at 0x70df45152610 -->
<g id="node39" class="node">
<title>ast.Constant object at 0x70df45152610</title>
<path fill="#66cdaa" stroke="black" d="M801,-324C801,-324 760,-324 760,-324 754,-324 748,-318 748,-312 748,-312 748,-300 748,-300 748,-294 754,-288 760,-288 760,-288 801,-288 801,-288 807,-288 813,-294 813,-300 813,-300 813,-312 813,-312 813,-318 807,-324 801,-324"/>
<text text-anchor="middle" x="780.5" y="-302.3" font-family="Times,serif" font-size="14.00">Constant</text>
</g>
<!-- ast.BinOp object at 0x70df44b28110&#45;&gt;ast.Constant object at 0x70df45152610 -->
<g id="edge50" class="edge">
<title>ast.BinOp object at 0x70df44b28110&#45;&gt;ast.Constant object at 0x70df45152610</title>
<path fill="none" stroke="black" d="M778.99,-359.7C779.21,-351.98 779.48,-342.71 779.73,-334.11"/>
<polygon fill="black" stroke="black" points="783.22,-334.2 780.01,-324.1 776.23,-334 783.22,-334.2"/>
</g>
<!-- ast.Call object at 0x70df44b28dd0 -->
<g id="node33" class="node">
<title>ast.Call object at 0x70df44b28dd0</title>
<path fill="#66cdaa" stroke="black" d="M789.5,-252C789.5,-252 759.5,-252 759.5,-252 753.5,-252 747.5,-246 747.5,-240 747.5,-240 747.5,-228 747.5,-228 747.5,-222 753.5,-216 759.5,-216 759.5,-216 789.5,-216 789.5,-216 795.5,-216 801.5,-222 801.5,-228 801.5,-228 801.5,-240 801.5,-240 801.5,-246 795.5,-252 789.5,-252"/>
<text text-anchor="middle" x="774.5" y="-230.3" font-family="Times,serif" font-size="14.00">Call</text>
</g>
<!-- ast.BinOp object at 0x70df44b29090&#45;&gt;ast.Call object at 0x70df44b28dd0 -->
<g id="edge41" class="edge">
<title>ast.BinOp object at 0x70df44b29090&#45;&gt;ast.Call object at 0x70df44b28dd0</title>
<path fill="none" stroke="black" d="M837.74,-287.7C827.26,-278.97 814.39,-268.24 803,-258.75"/>
<polygon fill="black" stroke="black" points="804.95,-255.82 795.03,-252.1 800.47,-261.19 804.95,-255.82"/>
</g>
<!-- ast.Sub object at 0x70df43fc55d0 -->
<g id="node36" class="node">
<title>ast.Sub object at 0x70df43fc55d0</title>
<path fill="#66cdaa" stroke="black" d="M861.5,-252C861.5,-252 831.5,-252 831.5,-252 825.5,-252 819.5,-246 819.5,-240 819.5,-240 819.5,-228 819.5,-228 819.5,-222 825.5,-216 831.5,-216 831.5,-216 861.5,-216 861.5,-216 867.5,-216 873.5,-222 873.5,-228 873.5,-228 873.5,-240 873.5,-240 873.5,-246 867.5,-252 861.5,-252"/>
<text text-anchor="middle" x="846.5" y="-230.3" font-family="Times,serif" font-size="14.00">Sub</text>
</g>
<!-- ast.BinOp object at 0x70df44b29090&#45;&gt;ast.Sub object at 0x70df43fc55d0 -->
<g id="edge46" class="edge">
<title>ast.BinOp object at 0x70df44b29090&#45;&gt;ast.Sub object at 0x70df43fc55d0</title>
<path fill="none" stroke="black" d="M855.53,-287.7C854.21,-279.98 852.62,-270.71 851.15,-262.11"/>
<polygon fill="black" stroke="black" points="854.57,-261.37 849.43,-252.1 847.67,-262.55 854.57,-261.37"/>
</g>
<!-- ast.Name object at 0x70df32dd29d0 -->
<g id="node37" class="node">
<title>ast.Name object at 0x70df32dd29d0</title>
<path fill="#66cdaa" stroke="black" d="M933.5,-252C933.5,-252 903.5,-252 903.5,-252 897.5,-252 891.5,-246 891.5,-240 891.5,-240 891.5,-228 891.5,-228 891.5,-222 897.5,-216 903.5,-216 903.5,-216 933.5,-216 933.5,-216 939.5,-216 945.5,-222 945.5,-228 945.5,-228 945.5,-240 945.5,-240 945.5,-246 939.5,-252 933.5,-252"/>
<text text-anchor="middle" x="918.5" y="-230.3" font-family="Times,serif" font-size="14.00">Name</text>
</g>
<!-- ast.BinOp object at 0x70df44b29090&#45;&gt;ast.Name object at 0x70df32dd29d0 -->
<g id="edge47" class="edge">
<title>ast.BinOp object at 0x70df44b29090&#45;&gt;ast.Name object at 0x70df32dd29d0</title>
<path fill="none" stroke="black" d="M873.33,-287.7C880.52,-279.3 889.3,-269.07 897.19,-259.86"/>
<polygon fill="black" stroke="black" points="899.99,-261.97 903.84,-252.1 894.67,-257.42 899.99,-261.97"/>
</g>
<!-- ast.Name object at 0x70df44b29990 -->
<g id="node34" class="node">
<title>ast.Name object at 0x70df44b29990</title>
<path fill="#66cdaa" stroke="black" d="M854.5,-180C854.5,-180 824.5,-180 824.5,-180 818.5,-180 812.5,-174 812.5,-168 812.5,-168 812.5,-156 812.5,-156 812.5,-150 818.5,-144 824.5,-144 824.5,-144 854.5,-144 854.5,-144 860.5,-144 866.5,-150 866.5,-156 866.5,-156 866.5,-168 866.5,-168 866.5,-174 860.5,-180 854.5,-180"/>
<text text-anchor="middle" x="839.5" y="-158.3" font-family="Times,serif" font-size="14.00">Name</text>
</g>
<!-- ast.Call object at 0x70df44b28dd0&#45;&gt;ast.Name object at 0x70df44b29990 -->
<g id="edge42" class="edge">
<title>ast.Call object at 0x70df44b28dd0&#45;&gt;ast.Name object at 0x70df44b29990</title>
<path fill="none" stroke="black" d="M790.57,-215.7C798.44,-207.22 808.06,-196.86 816.67,-187.58"/>
<polygon fill="black" stroke="black" points="819.38,-189.81 823.62,-180.1 814.25,-185.05 819.38,-189.81"/>
</g>
<!-- ast.Name object at 0x70df44b29a50 -->
<g id="node35" class="node">
<title>ast.Name object at 0x70df44b29a50</title>
<path fill="#66cdaa" stroke="black" d="M926.5,-180C926.5,-180 896.5,-180 896.5,-180 890.5,-180 884.5,-174 884.5,-168 884.5,-168 884.5,-156 884.5,-156 884.5,-150 890.5,-144 896.5,-144 896.5,-144 926.5,-144 926.5,-144 932.5,-144 938.5,-150 938.5,-156 938.5,-156 938.5,-168 938.5,-168 938.5,-174 932.5,-180 926.5,-180"/>
<text text-anchor="middle" x="911.5" y="-158.3" font-family="Times,serif" font-size="14.00">Name</text>
</g>
<!-- ast.Call object at 0x70df44b28dd0&#45;&gt;ast.Name object at 0x70df44b29a50 -->
<g id="edge44" class="edge">
<title>ast.Call object at 0x70df44b28dd0&#45;&gt;ast.Name object at 0x70df44b29a50</title>
<path fill="none" stroke="black" d="M801.57,-219.17C822.68,-208.38 852.19,-193.3 875.33,-181.48"/>
<polygon fill="black" stroke="black" points="877.18,-184.47 884.49,-176.8 873.99,-178.23 877.18,-184.47"/>
</g>
<!-- ast.Name object at 0x70df44b29990&#45;&gt;ast.Load object at 0x70df43fc5050 -->
<g id="edge43" class="edge">
<title>ast.Name object at 0x70df44b29990&#45;&gt;ast.Load object at 0x70df43fc5050</title>
<path fill="none" stroke="black" d="M857.3,-143.7C866.1,-135.14 876.88,-124.66 886.5,-115.3"/>
<polygon fill="black" stroke="black" points="889.18,-117.58 893.91,-108.1 884.3,-112.57 889.18,-117.58"/>
</g>
<!-- ast.Name object at 0x70df44b29a50&#45;&gt;ast.Load object at 0x70df43fc5050 -->
<g id="edge45" class="edge">
<title>ast.Name object at 0x70df44b29a50&#45;&gt;ast.Load object at 0x70df43fc5050</title>
<path fill="none" stroke="black" d="M911.5,-143.7C911.5,-135.98 911.5,-126.71 911.5,-118.11"/>
<polygon fill="black" stroke="black" points="915,-118.1 911.5,-108.1 908,-118.1 915,-118.1"/>
</g>
<!-- ast.Name object at 0x70df32dd29d0&#45;&gt;ast.Load object at 0x70df43fc5050 -->
<g id="edge48" class="edge">
<title>ast.Name object at 0x70df32dd29d0&#45;&gt;ast.Load object at 0x70df43fc5050</title>
<path fill="none" stroke="black" d="M930.81,-215.78C937.15,-205.84 944.23,-192.8 947.5,-180 951.46,-164.5 952.2,-159.29 947.5,-144 944.49,-134.22 938.99,-124.62 933.18,-116.33"/>
<polygon fill="black" stroke="black" points="935.91,-114.13 927.11,-108.23 930.31,-118.33 935.91,-114.13"/>
</g>
<!-- ast.Name object at 0x70df45152310 -->
<g id="node41" class="node">
<title>ast.Name object at 0x70df45152310</title>
<path fill="#66cdaa" stroke="black" d="M562.5,-396C562.5,-396 532.5,-396 532.5,-396 526.5,-396 520.5,-390 520.5,-384 520.5,-384 520.5,-372 520.5,-372 520.5,-366 526.5,-360 532.5,-360 532.5,-360 562.5,-360 562.5,-360 568.5,-360 574.5,-366 574.5,-372 574.5,-372 574.5,-384 574.5,-384 574.5,-390 568.5,-396 562.5,-396"/>
<text text-anchor="middle" x="547.5" y="-374.3" font-family="Times,serif" font-size="14.00">Name</text>
</g>
<!-- ast.Assign object at 0x70df45153110&#45;&gt;ast.Name object at 0x70df45152310 -->
<g id="edge52" class="edge">
<title>ast.Assign object at 0x70df45153110&#45;&gt;ast.Name object at 0x70df45152310</title>
<path fill="none" stroke="black" d="M597.94,-431.7C589.82,-423.22 579.91,-412.86 571.03,-403.58"/>
<polygon fill="black" stroke="black" points="573.31,-400.91 563.87,-396.1 568.26,-405.75 573.31,-400.91"/>
</g>
<!-- ast.Subscript object at 0x70df32d78e50 -->
<g id="node42" class="node">
<title>ast.Subscript object at 0x70df32d78e50</title>
<path fill="#66cdaa" stroke="black" d="M648.5,-396C648.5,-396 604.5,-396 604.5,-396 598.5,-396 592.5,-390 592.5,-384 592.5,-384 592.5,-372 592.5,-372 592.5,-366 598.5,-360 604.5,-360 604.5,-360 648.5,-360 648.5,-360 654.5,-360 660.5,-366 660.5,-372 660.5,-372 660.5,-384 660.5,-384 660.5,-390 654.5,-396 648.5,-396"/>
<text text-anchor="middle" x="626.5" y="-374.3" font-family="Times,serif" font-size="14.00">Subscript</text>
</g>
<!-- ast.Assign object at 0x70df45153110&#45;&gt;ast.Subscript object at 0x70df32d78e50 -->
<g id="edge54" class="edge">
<title>ast.Assign object at 0x70df45153110&#45;&gt;ast.Subscript object at 0x70df32d78e50</title>
<path fill="none" stroke="black" d="M617.47,-431.7C618.79,-423.98 620.38,-414.71 621.85,-406.11"/>
<polygon fill="black" stroke="black" points="625.33,-406.55 623.57,-396.1 618.43,-405.37 625.33,-406.55"/>
</g>
<!-- ast.Name object at 0x70df45152310&#45;&gt;ast.Store object at 0x70df43fc50d0 -->
<g id="edge53" class="edge">
<title>ast.Name object at 0x70df45152310&#45;&gt;ast.Store object at 0x70df43fc50d0</title>
<path fill="none" stroke="black" d="M520.35,-364.16C496.65,-352.95 462.04,-336.58 435.92,-324.23"/>
<polygon fill="black" stroke="black" points="437.26,-320.99 426.72,-319.88 434.27,-327.32 437.26,-320.99"/>
</g>
<!-- ast.Subscript object at 0x70df32d78e50&#45;&gt;ast.Load object at 0x70df43fc5050 -->
<g id="edge66" class="edge">
<title>ast.Subscript object at 0x70df32d78e50&#45;&gt;ast.Load object at 0x70df43fc5050</title>
<path fill="none" stroke="black" d="M592.26,-363.3C554,-347.94 497.25,-325.05 496.5,-324 450.03,-258.85 438.57,-204.03 491.5,-144 516.68,-115.44 776.24,-98.39 874.28,-92.93"/>
<polygon fill="black" stroke="black" points="874.54,-96.42 884.33,-92.38 874.16,-89.43 874.54,-96.42"/>
</g>
<!-- ast.Name object at 0x70df4380cb90 -->
<g id="node43" class="node">
<title>ast.Name object at 0x70df4380cb90</title>
<path fill="#66cdaa" stroke="black" d="M547.5,-324C547.5,-324 517.5,-324 517.5,-324 511.5,-324 505.5,-318 505.5,-312 505.5,-312 505.5,-300 505.5,-300 505.5,-294 511.5,-288 517.5,-288 517.5,-288 547.5,-288 547.5,-288 553.5,-288 559.5,-294 559.5,-300 559.5,-300 559.5,-312 559.5,-312 559.5,-318 553.5,-324 547.5,-324"/>
<text text-anchor="middle" x="532.5" y="-302.3" font-family="Times,serif" font-size="14.00">Name</text>
</g>
<!-- ast.Subscript object at 0x70df32d78e50&#45;&gt;ast.Name object at 0x70df4380cb90 -->
<g id="edge55" class="edge">
<title>ast.Subscript object at 0x70df32d78e50&#45;&gt;ast.Name object at 0x70df4380cb90</title>
<path fill="none" stroke="black" d="M603.26,-359.7C591.31,-350.8 576.58,-339.82 563.65,-330.2"/>
<polygon fill="black" stroke="black" points="565.58,-327.27 555.47,-324.1 561.4,-332.88 565.58,-327.27"/>
</g>
<!-- ast.Slice object at 0x70df43842d50 -->
<g id="node44" class="node">
<title>ast.Slice object at 0x70df43842d50</title>
<path fill="#66cdaa" stroke="black" d="M641.5,-324C641.5,-324 611.5,-324 611.5,-324 605.5,-324 599.5,-318 599.5,-312 599.5,-312 599.5,-300 599.5,-300 599.5,-294 605.5,-288 611.5,-288 611.5,-288 641.5,-288 641.5,-288 647.5,-288 653.5,-294 653.5,-300 653.5,-300 653.5,-312 653.5,-312 653.5,-318 647.5,-324 641.5,-324"/>
<text text-anchor="middle" x="626.5" y="-302.3" font-family="Times,serif" font-size="14.00">Slice</text>
</g>
<!-- ast.Subscript object at 0x70df32d78e50&#45;&gt;ast.Slice object at 0x70df43842d50 -->
<g id="edge57" class="edge">
<title>ast.Subscript object at 0x70df32d78e50&#45;&gt;ast.Slice object at 0x70df43842d50</title>
<path fill="none" stroke="black" d="M626.5,-359.7C626.5,-351.98 626.5,-342.71 626.5,-334.11"/>
<polygon fill="black" stroke="black" points="630,-334.1 626.5,-324.1 623,-334.1 630,-334.1"/>
</g>
<!-- ast.Name object at 0x70df4380cb90&#45;&gt;ast.Load object at 0x70df43fc5050 -->
<g id="edge56" class="edge">
<title>ast.Name object at 0x70df4380cb90&#45;&gt;ast.Load object at 0x70df43fc5050</title>
<path fill="none" stroke="black" d="M522.8,-287.98C505.79,-255.65 475.65,-184.92 511.5,-144 535.28,-116.86 779.86,-99.08 874.44,-93.17"/>
<polygon fill="black" stroke="black" points="874.66,-96.66 884.43,-92.55 874.23,-89.67 874.66,-96.66"/>
</g>
<!-- ast.Name object at 0x70df44b1bf50 -->
<g id="node45" class="node">
<title>ast.Name object at 0x70df44b1bf50</title>
<path fill="#66cdaa" stroke="black" d="M641.5,-252C641.5,-252 611.5,-252 611.5,-252 605.5,-252 599.5,-246 599.5,-240 599.5,-240 599.5,-228 599.5,-228 599.5,-222 605.5,-216 611.5,-216 611.5,-216 641.5,-216 641.5,-216 647.5,-216 653.5,-222 653.5,-228 653.5,-228 653.5,-240 653.5,-240 653.5,-246 647.5,-252 641.5,-252"/>
<text text-anchor="middle" x="626.5" y="-230.3" font-family="Times,serif" font-size="14.00">Name</text>
</g>
<!-- ast.Slice object at 0x70df43842d50&#45;&gt;ast.Name object at 0x70df44b1bf50 -->
<g id="edge58" class="edge">
<title>ast.Slice object at 0x70df43842d50&#45;&gt;ast.Name object at 0x70df44b1bf50</title>
<path fill="none" stroke="black" d="M626.5,-287.7C626.5,-279.98 626.5,-270.71 626.5,-262.11"/>
<polygon fill="black" stroke="black" points="630,-262.1 626.5,-252.1 623,-262.1 630,-262.1"/>
</g>
<!-- ast.BinOp object at 0x70df44b1b710 -->
<g id="node46" class="node">
<title>ast.BinOp object at 0x70df44b1b710</title>
<path fill="#66cdaa" stroke="black" d="M569.5,-252C569.5,-252 539.5,-252 539.5,-252 533.5,-252 527.5,-246 527.5,-240 527.5,-240 527.5,-228 527.5,-228 527.5,-222 533.5,-216 539.5,-216 539.5,-216 569.5,-216 569.5,-216 575.5,-216 581.5,-222 581.5,-228 581.5,-228 581.5,-240 581.5,-240 581.5,-246 575.5,-252 569.5,-252"/>
<text text-anchor="middle" x="554.5" y="-230.3" font-family="Times,serif" font-size="14.00">BinOp</text>
</g>
<!-- ast.Slice object at 0x70df43842d50&#45;&gt;ast.BinOp object at 0x70df44b1b710 -->
<g id="edge60" class="edge">
<title>ast.Slice object at 0x70df43842d50&#45;&gt;ast.BinOp object at 0x70df44b1b710</title>
<path fill="none" stroke="black" d="M608.7,-287.7C599.9,-279.14 589.12,-268.66 579.5,-259.3"/>
<polygon fill="black" stroke="black" points="581.7,-256.57 572.09,-252.1 576.82,-261.58 581.7,-256.57"/>
</g>
<!-- ast.Name object at 0x70df44b1bf50&#45;&gt;ast.Load object at 0x70df43fc5050 -->
<g id="edge59" class="edge">
<title>ast.Name object at 0x70df44b1bf50&#45;&gt;ast.Load object at 0x70df43fc5050</title>
<path fill="none" stroke="black" d="M653.54,-220.76C674.41,-210.86 703.64,-195.98 727.5,-180 748.21,-166.13 748.97,-156.56 770.5,-144 803.63,-124.66 845.1,-110.08 874.46,-101.16"/>
<polygon fill="black" stroke="black" points="875.72,-104.44 884.31,-98.24 873.73,-97.73 875.72,-104.44"/>
</g>
<!-- ast.BinOp object at 0x70df44b1b710&#45;&gt;ast.Add object at 0x70df43fc5550 -->
<g id="edge63" class="edge">
<title>ast.BinOp object at 0x70df44b1b710&#45;&gt;ast.Add object at 0x70df43fc5550</title>
<path fill="none" stroke="black" d="M581.57,-219.17C602.68,-208.38 632.19,-193.3 655.33,-181.48"/>
<polygon fill="black" stroke="black" points="657.18,-184.47 664.49,-176.8 653.99,-178.23 657.18,-184.47"/>
</g>
<!-- ast.Name object at 0x70df44b1b550 -->
<g id="node47" class="node">
<title>ast.Name object at 0x70df44b1b550</title>
<path fill="#66cdaa" stroke="black" d="M562.5,-180C562.5,-180 532.5,-180 532.5,-180 526.5,-180 520.5,-174 520.5,-168 520.5,-168 520.5,-156 520.5,-156 520.5,-150 526.5,-144 532.5,-144 532.5,-144 562.5,-144 562.5,-144 568.5,-144 574.5,-150 574.5,-156 574.5,-156 574.5,-168 574.5,-168 574.5,-174 568.5,-180 562.5,-180"/>
<text text-anchor="middle" x="547.5" y="-158.3" font-family="Times,serif" font-size="14.00">Name</text>
</g>
<!-- ast.BinOp object at 0x70df44b1b710&#45;&gt;ast.Name object at 0x70df44b1b550 -->
<g id="edge61" class="edge">
<title>ast.BinOp object at 0x70df44b1b710&#45;&gt;ast.Name object at 0x70df44b1b550</title>
<path fill="none" stroke="black" d="M552.77,-215.7C552,-207.98 551.07,-198.71 550.21,-190.11"/>
<polygon fill="black" stroke="black" points="553.69,-189.71 549.21,-180.1 546.72,-190.4 553.69,-189.71"/>
</g>
<!-- ast.Name object at 0x70df44b1ad50 -->
<g id="node48" class="node">
<title>ast.Name object at 0x70df44b1ad50</title>
<path fill="#66cdaa" stroke="black" d="M634.5,-180C634.5,-180 604.5,-180 604.5,-180 598.5,-180 592.5,-174 592.5,-168 592.5,-168 592.5,-156 592.5,-156 592.5,-150 598.5,-144 604.5,-144 604.5,-144 634.5,-144 634.5,-144 640.5,-144 646.5,-150 646.5,-156 646.5,-156 646.5,-168 646.5,-168 646.5,-174 640.5,-180 634.5,-180"/>
<text text-anchor="middle" x="619.5" y="-158.3" font-family="Times,serif" font-size="14.00">Name</text>
</g>
<!-- ast.BinOp object at 0x70df44b1b710&#45;&gt;ast.Name object at 0x70df44b1ad50 -->
<g id="edge64" class="edge">
<title>ast.BinOp object at 0x70df44b1b710&#45;&gt;ast.Name object at 0x70df44b1ad50</title>
<path fill="none" stroke="black" d="M570.57,-215.7C578.44,-207.22 588.06,-196.86 596.67,-187.58"/>
<polygon fill="black" stroke="black" points="599.38,-189.81 603.62,-180.1 594.25,-185.05 599.38,-189.81"/>
</g>
<!-- ast.Name object at 0x70df44b1b550&#45;&gt;ast.Load object at 0x70df43fc5050 -->
<g id="edge62" class="edge">
<title>ast.Name object at 0x70df44b1b550&#45;&gt;ast.Load object at 0x70df43fc5050</title>
<path fill="none" stroke="black" d="M574.7,-147.19C577.63,-145.99 580.6,-144.9 583.5,-144 685.84,-112.26 812.36,-98.68 874.08,-93.61"/>
<polygon fill="black" stroke="black" points="874.43,-97.1 884.13,-92.82 873.88,-90.12 874.43,-97.1"/>
</g>
<!-- ast.Name object at 0x70df44b1ad50&#45;&gt;ast.Load object at 0x70df43fc5050 -->
<g id="edge65" class="edge">
<title>ast.Name object at 0x70df44b1ad50&#45;&gt;ast.Load object at 0x70df43fc5050</title>
<path fill="none" stroke="black" d="M646.74,-147.32C649.66,-146.1 652.62,-144.96 655.5,-144 731.25,-118.67 823.83,-103.12 874.3,-95.87"/>
<polygon fill="black" stroke="black" points="875,-99.31 884.42,-94.45 874.03,-92.38 875,-99.31"/>
</g>
<!-- ast.BoolOp object at 0x70df44b1b290 -->
<g id="node50" class="node">
<title>ast.BoolOp object at 0x70df44b1b290</title>
<path fill="#66cdaa" stroke="black" d="M1173,-396C1173,-396 1138,-396 1138,-396 1132,-396 1126,-390 1126,-384 1126,-384 1126,-372 1126,-372 1126,-366 1132,-360 1138,-360 1138,-360 1173,-360 1173,-360 1179,-360 1185,-366 1185,-372 1185,-372 1185,-384 1185,-384 1185,-390 1179,-396 1173,-396"/>
<text text-anchor="middle" x="1155.5" y="-374.3" font-family="Times,serif" font-size="14.00">BoolOp</text>
</g>
<!-- ast.If object at 0x70df44b1ad90&#45;&gt;ast.BoolOp object at 0x70df44b1b290 -->
<g id="edge68" class="edge">
<title>ast.If object at 0x70df44b1ad90&#45;&gt;ast.BoolOp object at 0x70df44b1b290</title>
<path fill="none" stroke="black" d="M1155.5,-431.7C1155.5,-423.98 1155.5,-414.71 1155.5,-406.11"/>
<polygon fill="black" stroke="black" points="1159,-406.1 1155.5,-396.1 1152,-406.1 1159,-406.1"/>
</g>
<!-- ast.Expr object at 0x70df44b1b890 -->
<g id="node64" class="node">
<title>ast.Expr object at 0x70df44b1b890</title>
<path fill="#66cdaa" stroke="black" d="M1282.5,-396C1282.5,-396 1252.5,-396 1252.5,-396 1246.5,-396 1240.5,-390 1240.5,-384 1240.5,-384 1240.5,-372 1240.5,-372 1240.5,-366 1246.5,-360 1252.5,-360 1252.5,-360 1282.5,-360 1282.5,-360 1288.5,-360 1294.5,-366 1294.5,-372 1294.5,-372 1294.5,-384 1294.5,-384 1294.5,-390 1288.5,-396 1282.5,-396"/>
<text text-anchor="middle" x="1267.5" y="-374.3" font-family="Times,serif" font-size="14.00">Expr</text>
</g>
<!-- ast.If object at 0x70df44b1ad90&#45;&gt;ast.Expr object at 0x70df44b1b890 -->
<g id="edge87" class="edge">
<title>ast.If object at 0x70df44b1ad90&#45;&gt;ast.Expr object at 0x70df44b1b890</title>
<path fill="none" stroke="black" d="M1182.61,-432.05C1197.36,-422.84 1215.79,-411.32 1231.71,-401.37"/>
<polygon fill="black" stroke="black" points="1233.62,-404.3 1240.25,-396.03 1229.91,-398.36 1233.62,-404.3"/>
</g>
<!-- ast.And object at 0x70df43fc5310 -->
<g id="node51" class="node">
<title>ast.And object at 0x70df43fc5310</title>
<path fill="#66cdaa" stroke="black" d="M1170.5,-324C1170.5,-324 1140.5,-324 1140.5,-324 1134.5,-324 1128.5,-318 1128.5,-312 1128.5,-312 1128.5,-300 1128.5,-300 1128.5,-294 1134.5,-288 1140.5,-288 1140.5,-288 1170.5,-288 1170.5,-288 1176.5,-288 1182.5,-294 1182.5,-300 1182.5,-300 1182.5,-312 1182.5,-312 1182.5,-318 1176.5,-324 1170.5,-324"/>
<text text-anchor="middle" x="1155.5" y="-302.3" font-family="Times,serif" font-size="14.00">And</text>
</g>
<!-- ast.BoolOp object at 0x70df44b1b290&#45;&gt;ast.And object at 0x70df43fc5310 -->
<g id="edge69" class="edge">
<title>ast.BoolOp object at 0x70df44b1b290&#45;&gt;ast.And object at 0x70df43fc5310</title>
<path fill="none" stroke="black" d="M1155.5,-359.7C1155.5,-351.98 1155.5,-342.71 1155.5,-334.11"/>
<polygon fill="black" stroke="black" points="1159,-334.1 1155.5,-324.1 1152,-334.1 1159,-334.1"/>
</g>
<!-- ast.Compare object at 0x70df44b1bc90 -->
<g id="node52" class="node">
<title>ast.Compare object at 0x70df44b1bc90</title>
<path fill="#66cdaa" stroke="black" d="M1098,-324C1098,-324 1055,-324 1055,-324 1049,-324 1043,-318 1043,-312 1043,-312 1043,-300 1043,-300 1043,-294 1049,-288 1055,-288 1055,-288 1098,-288 1098,-288 1104,-288 1110,-294 1110,-300 1110,-300 1110,-312 1110,-312 1110,-318 1104,-324 1098,-324"/>
<text text-anchor="middle" x="1076.5" y="-302.3" font-family="Times,serif" font-size="14.00">Compare</text>
</g>
<!-- ast.BoolOp object at 0x70df44b1b290&#45;&gt;ast.Compare object at 0x70df44b1bc90 -->
<g id="edge70" class="edge">
<title>ast.BoolOp object at 0x70df44b1b290&#45;&gt;ast.Compare object at 0x70df44b1bc90</title>
<path fill="none" stroke="black" d="M1135.97,-359.7C1126.12,-350.97 1114.01,-340.24 1103.3,-330.75"/>
<polygon fill="black" stroke="black" points="1105.61,-328.12 1095.8,-324.1 1100.97,-333.36 1105.61,-328.12"/>
</g>
<!-- ast.Call object at 0x70df44b1b050 -->
<g id="node61" class="node">
<title>ast.Call object at 0x70df44b1b050</title>
<path fill="#66cdaa" stroke="black" d="M1242.5,-324C1242.5,-324 1212.5,-324 1212.5,-324 1206.5,-324 1200.5,-318 1200.5,-312 1200.5,-312 1200.5,-300 1200.5,-300 1200.5,-294 1206.5,-288 1212.5,-288 1212.5,-288 1242.5,-288 1242.5,-288 1248.5,-288 1254.5,-294 1254.5,-300 1254.5,-300 1254.5,-312 1254.5,-312 1254.5,-318 1248.5,-324 1242.5,-324"/>
<text text-anchor="middle" x="1227.5" y="-302.3" font-family="Times,serif" font-size="14.00">Call</text>
</g>
<!-- ast.BoolOp object at 0x70df44b1b290&#45;&gt;ast.Call object at 0x70df44b1b050 -->
<g id="edge82" class="edge">
<title>ast.BoolOp object at 0x70df44b1b290&#45;&gt;ast.Call object at 0x70df44b1b050</title>
<path fill="none" stroke="black" d="M1173.3,-359.7C1182.1,-351.14 1192.88,-340.66 1202.5,-331.3"/>
<polygon fill="black" stroke="black" points="1205.18,-333.58 1209.91,-324.1 1200.3,-328.57 1205.18,-333.58"/>
</g>
<!-- ast.Name object at 0x70df44b1ac10 -->
<g id="node53" class="node">
<title>ast.Name object at 0x70df44b1ac10</title>
<path fill="#66cdaa" stroke="black" d="M1163.5,-252C1163.5,-252 1133.5,-252 1133.5,-252 1127.5,-252 1121.5,-246 1121.5,-240 1121.5,-240 1121.5,-228 1121.5,-228 1121.5,-222 1127.5,-216 1133.5,-216 1133.5,-216 1163.5,-216 1163.5,-216 1169.5,-216 1175.5,-222 1175.5,-228 1175.5,-228 1175.5,-240 1175.5,-240 1175.5,-246 1169.5,-252 1163.5,-252"/>
<text text-anchor="middle" x="1148.5" y="-230.3" font-family="Times,serif" font-size="14.00">Name</text>
</g>
<!-- ast.Compare object at 0x70df44b1bc90&#45;&gt;ast.Name object at 0x70df44b1ac10 -->
<g id="edge71" class="edge">
<title>ast.Compare object at 0x70df44b1bc90&#45;&gt;ast.Name object at 0x70df44b1ac10</title>
<path fill="none" stroke="black" d="M1094.3,-287.7C1103.1,-279.14 1113.88,-268.66 1123.5,-259.3"/>
<polygon fill="black" stroke="black" points="1126.18,-261.58 1130.91,-252.1 1121.3,-256.57 1126.18,-261.58"/>
</g>
<!-- ast.Eq object at 0x70df43fc6050 -->
<g id="node54" class="node">
<title>ast.Eq object at 0x70df43fc6050</title>
<path fill="#66cdaa" stroke="black" d="M1091.5,-252C1091.5,-252 1061.5,-252 1061.5,-252 1055.5,-252 1049.5,-246 1049.5,-240 1049.5,-240 1049.5,-228 1049.5,-228 1049.5,-222 1055.5,-216 1061.5,-216 1061.5,-216 1091.5,-216 1091.5,-216 1097.5,-216 1103.5,-222 1103.5,-228 1103.5,-228 1103.5,-240 1103.5,-240 1103.5,-246 1097.5,-252 1091.5,-252"/>
<text text-anchor="middle" x="1076.5" y="-230.3" font-family="Times,serif" font-size="14.00">Eq</text>
</g>
<!-- ast.Compare object at 0x70df44b1bc90&#45;&gt;ast.Eq object at 0x70df43fc6050 -->
<g id="edge73" class="edge">
<title>ast.Compare object at 0x70df44b1bc90&#45;&gt;ast.Eq object at 0x70df43fc6050</title>
<path fill="none" stroke="black" d="M1076.5,-287.7C1076.5,-279.98 1076.5,-270.71 1076.5,-262.11"/>
<polygon fill="black" stroke="black" points="1080,-262.1 1076.5,-252.1 1073,-262.1 1080,-262.1"/>
</g>
<!-- ast.Subscript object at 0x70df44b1add0 -->
<g id="node55" class="node">
<title>ast.Subscript object at 0x70df44b1add0</title>
<path fill="#66cdaa" stroke="black" d="M1019.5,-252C1019.5,-252 975.5,-252 975.5,-252 969.5,-252 963.5,-246 963.5,-240 963.5,-240 963.5,-228 963.5,-228 963.5,-222 969.5,-216 975.5,-216 975.5,-216 1019.5,-216 1019.5,-216 1025.5,-216 1031.5,-222 1031.5,-228 1031.5,-228 1031.5,-240 1031.5,-240 1031.5,-246 1025.5,-252 1019.5,-252"/>
<text text-anchor="middle" x="997.5" y="-230.3" font-family="Times,serif" font-size="14.00">Subscript</text>
</g>
<!-- ast.Compare object at 0x70df44b1bc90&#45;&gt;ast.Subscript object at 0x70df44b1add0 -->
<g id="edge74" class="edge">
<title>ast.Compare object at 0x70df44b1bc90&#45;&gt;ast.Subscript object at 0x70df44b1add0</title>
<path fill="none" stroke="black" d="M1056.97,-287.7C1047.12,-278.97 1035.01,-268.24 1024.3,-258.75"/>
<polygon fill="black" stroke="black" points="1026.61,-256.12 1016.8,-252.1 1021.97,-261.36 1026.61,-256.12"/>
</g>
<!-- ast.Name object at 0x70df44b1ac10&#45;&gt;ast.Load object at 0x70df43fc5050 -->
<g id="edge72" class="edge">
<title>ast.Name object at 0x70df44b1ac10&#45;&gt;ast.Load object at 0x70df43fc5050</title>
<path fill="none" stroke="black" d="M1142.77,-215.94C1135.14,-195.79 1119.71,-162.67 1095.5,-144 1052.25,-110.64 988.72,-98.27 948.75,-93.69"/>
<polygon fill="black" stroke="black" points="948.95,-90.19 938.64,-92.64 948.22,-97.15 948.95,-90.19"/>
</g>
<!-- ast.Subscript object at 0x70df44b1add0&#45;&gt;ast.Load object at 0x70df43fc5050 -->
<g id="edge81" class="edge">
<title>ast.Subscript object at 0x70df44b1add0&#45;&gt;ast.Load object at 0x70df43fc5050</title>
<path fill="none" stroke="black" d="M992.98,-216C987.56,-197.37 977.29,-167.06 962.5,-144 955.89,-133.69 947.07,-123.67 938.63,-115.16"/>
<polygon fill="black" stroke="black" points="940.99,-112.57 931.38,-108.11 936.11,-117.59 940.99,-112.57"/>
</g>
<!-- ast.Name object at 0x70df44b1ae50 -->
<g id="node56" class="node">
<title>ast.Name object at 0x70df44b1ae50</title>
<path fill="#66cdaa" stroke="black" d="M1074.5,-180C1074.5,-180 1044.5,-180 1044.5,-180 1038.5,-180 1032.5,-174 1032.5,-168 1032.5,-168 1032.5,-156 1032.5,-156 1032.5,-150 1038.5,-144 1044.5,-144 1044.5,-144 1074.5,-144 1074.5,-144 1080.5,-144 1086.5,-150 1086.5,-156 1086.5,-156 1086.5,-168 1086.5,-168 1086.5,-174 1080.5,-180 1074.5,-180"/>
<text text-anchor="middle" x="1059.5" y="-158.3" font-family="Times,serif" font-size="14.00">Name</text>
</g>
<!-- ast.Subscript object at 0x70df44b1add0&#45;&gt;ast.Name object at 0x70df44b1ae50 -->
<g id="edge75" class="edge">
<title>ast.Subscript object at 0x70df44b1add0&#45;&gt;ast.Name object at 0x70df44b1ae50</title>
<path fill="none" stroke="black" d="M1012.83,-215.7C1020.26,-207.3 1029.32,-197.07 1037.48,-187.86"/>
<polygon fill="black" stroke="black" points="1040.34,-189.91 1044.35,-180.1 1035.1,-185.27 1040.34,-189.91"/>
</g>
<!-- ast.Slice object at 0x70df44b1bf90 -->
<g id="node57" class="node">
<title>ast.Slice object at 0x70df44b1bf90</title>
<path fill="#66cdaa" stroke="black" d="M1501.5,-180C1501.5,-180 1471.5,-180 1471.5,-180 1465.5,-180 1459.5,-174 1459.5,-168 1459.5,-168 1459.5,-156 1459.5,-156 1459.5,-150 1465.5,-144 1471.5,-144 1471.5,-144 1501.5,-144 1501.5,-144 1507.5,-144 1513.5,-150 1513.5,-156 1513.5,-156 1513.5,-168 1513.5,-168 1513.5,-174 1507.5,-180 1501.5,-180"/>
<text text-anchor="middle" x="1486.5" y="-158.3" font-family="Times,serif" font-size="14.00">Slice</text>
</g>
<!-- ast.Subscript object at 0x70df44b1add0&#45;&gt;ast.Slice object at 0x70df44b1bf90 -->
<g id="edge77" class="edge">
<title>ast.Subscript object at 0x70df44b1add0&#45;&gt;ast.Slice object at 0x70df44b1bf90</title>
<path fill="none" stroke="black" d="M1031.98,-218.46C1034.83,-217.54 1037.7,-216.7 1040.5,-216 1178.94,-181.47 1217.9,-197.47 1359.5,-180 1389.77,-176.27 1424.05,-171.66 1449.35,-168.18"/>
<polygon fill="black" stroke="black" points="1449.84,-171.64 1459.27,-166.81 1448.89,-164.71 1449.84,-171.64"/>
</g>
<!-- ast.Name object at 0x70df44b1ae50&#45;&gt;ast.Load object at 0x70df43fc5050 -->
<g id="edge76" class="edge">
<title>ast.Name object at 0x70df44b1ae50&#45;&gt;ast.Load object at 0x70df43fc5050</title>
<path fill="none" stroke="black" d="M1032.35,-148.16C1008.65,-136.95 974.04,-120.58 947.92,-108.23"/>
<polygon fill="black" stroke="black" points="949.26,-104.99 938.72,-103.88 946.27,-111.32 949.26,-104.99"/>
</g>
<!-- ast.UnaryOp object at 0x70df44b1bbd0 -->
<g id="node58" class="node">
<title>ast.UnaryOp object at 0x70df44b1bbd0</title>
<path fill="#66cdaa" stroke="black" d="M1508,-108C1508,-108 1465,-108 1465,-108 1459,-108 1453,-102 1453,-96 1453,-96 1453,-84 1453,-84 1453,-78 1459,-72 1465,-72 1465,-72 1508,-72 1508,-72 1514,-72 1520,-78 1520,-84 1520,-84 1520,-96 1520,-96 1520,-102 1514,-108 1508,-108"/>
<text text-anchor="middle" x="1486.5" y="-86.3" font-family="Times,serif" font-size="14.00">UnaryOp</text>
</g>
<!-- ast.Slice object at 0x70df44b1bf90&#45;&gt;ast.UnaryOp object at 0x70df44b1bbd0 -->
<g id="edge78" class="edge">
<title>ast.Slice object at 0x70df44b1bf90&#45;&gt;ast.UnaryOp object at 0x70df44b1bbd0</title>
<path fill="none" stroke="black" d="M1486.5,-143.7C1486.5,-135.98 1486.5,-126.71 1486.5,-118.11"/>
<polygon fill="black" stroke="black" points="1490,-118.1 1486.5,-108.1 1483,-118.1 1490,-118.1"/>
</g>
<!-- ast.USub object at 0x70df43fc5ed0 -->
<g id="node59" class="node">
<title>ast.USub object at 0x70df43fc5ed0</title>
<path fill="#66cdaa" stroke="black" d="M1462.5,-36C1462.5,-36 1432.5,-36 1432.5,-36 1426.5,-36 1420.5,-30 1420.5,-24 1420.5,-24 1420.5,-12 1420.5,-12 1420.5,-6 1426.5,0 1432.5,0 1432.5,0 1462.5,0 1462.5,0 1468.5,0 1474.5,-6 1474.5,-12 1474.5,-12 1474.5,-24 1474.5,-24 1474.5,-30 1468.5,-36 1462.5,-36"/>
<text text-anchor="middle" x="1447.5" y="-14.3" font-family="Times,serif" font-size="14.00">USub</text>
</g>
<!-- ast.UnaryOp object at 0x70df44b1bbd0&#45;&gt;ast.USub object at 0x70df43fc5ed0 -->
<g id="edge79" class="edge">
<title>ast.UnaryOp object at 0x70df44b1bbd0&#45;&gt;ast.USub object at 0x70df43fc5ed0</title>
<path fill="none" stroke="black" d="M1476.86,-71.7C1472.37,-63.64 1466.94,-53.89 1461.98,-44.98"/>
<polygon fill="black" stroke="black" points="1464.95,-43.14 1457.03,-36.1 1458.84,-46.54 1464.95,-43.14"/>
</g>
<!-- ast.Constant object at 0x70df44b1ba50 -->
<g id="node60" class="node">
<title>ast.Constant object at 0x70df44b1ba50</title>
<path fill="#66cdaa" stroke="black" d="M1546,-36C1546,-36 1505,-36 1505,-36 1499,-36 1493,-30 1493,-24 1493,-24 1493,-12 1493,-12 1493,-6 1499,0 1505,0 1505,0 1546,0 1546,0 1552,0 1558,-6 1558,-12 1558,-12 1558,-24 1558,-24 1558,-30 1552,-36 1546,-36"/>
<text text-anchor="middle" x="1525.5" y="-14.3" font-family="Times,serif" font-size="14.00">Constant</text>
</g>
<!-- ast.UnaryOp object at 0x70df44b1bbd0&#45;&gt;ast.Constant object at 0x70df44b1ba50 -->
<g id="edge80" class="edge">
<title>ast.UnaryOp object at 0x70df44b1bbd0&#45;&gt;ast.Constant object at 0x70df44b1ba50</title>
<path fill="none" stroke="black" d="M1496.14,-71.7C1500.63,-63.64 1506.06,-53.89 1511.02,-44.98"/>
<polygon fill="black" stroke="black" points="1514.16,-46.54 1515.97,-36.1 1508.05,-43.14 1514.16,-46.54"/>
</g>
<!-- ast.Attribute object at 0x70df44b1b010 -->
<g id="node62" class="node">
<title>ast.Attribute object at 0x70df44b1b010</title>
<path fill="#66cdaa" stroke="black" d="M1247,-252C1247,-252 1206,-252 1206,-252 1200,-252 1194,-246 1194,-240 1194,-240 1194,-228 1194,-228 1194,-222 1200,-216 1206,-216 1206,-216 1247,-216 1247,-216 1253,-216 1259,-222 1259,-228 1259,-228 1259,-240 1259,-240 1259,-246 1253,-252 1247,-252"/>
<text text-anchor="middle" x="1226.5" y="-230.3" font-family="Times,serif" font-size="14.00">Attribute</text>
</g>
<!-- ast.Call object at 0x70df44b1b050&#45;&gt;ast.Attribute object at 0x70df44b1b010 -->
<g id="edge83" class="edge">
<title>ast.Call object at 0x70df44b1b050&#45;&gt;ast.Attribute object at 0x70df44b1b010</title>
<path fill="none" stroke="black" d="M1227.25,-287.7C1227.14,-279.98 1227.01,-270.71 1226.89,-262.11"/>
<polygon fill="black" stroke="black" points="1230.39,-262.05 1226.74,-252.1 1223.39,-262.15 1230.39,-262.05"/>
</g>
<!-- ast.Attribute object at 0x70df44b1b010&#45;&gt;ast.Load object at 0x70df43fc5050 -->
<g id="edge86" class="edge">
<title>ast.Attribute object at 0x70df44b1b010&#45;&gt;ast.Load object at 0x70df43fc5050</title>
<path fill="none" stroke="black" d="M1227.83,-215.92C1228.38,-195.76 1225.94,-162.62 1206.5,-144 1170.13,-109.17 1020.11,-96.71 949.09,-92.7"/>
<polygon fill="black" stroke="black" points="948.98,-89.19 938.81,-92.15 948.61,-96.18 948.98,-89.19"/>
</g>
<!-- ast.Name object at 0x70df44b1ac90 -->
<g id="node63" class="node">
<title>ast.Name object at 0x70df44b1ac90</title>
<path fill="#66cdaa" stroke="black" d="M1185.5,-180C1185.5,-180 1155.5,-180 1155.5,-180 1149.5,-180 1143.5,-174 1143.5,-168 1143.5,-168 1143.5,-156 1143.5,-156 1143.5,-150 1149.5,-144 1155.5,-144 1155.5,-144 1185.5,-144 1185.5,-144 1191.5,-144 1197.5,-150 1197.5,-156 1197.5,-156 1197.5,-168 1197.5,-168 1197.5,-174 1191.5,-180 1185.5,-180"/>
<text text-anchor="middle" x="1170.5" y="-158.3" font-family="Times,serif" font-size="14.00">Name</text>
</g>
<!-- ast.Attribute object at 0x70df44b1b010&#45;&gt;ast.Name object at 0x70df44b1ac90 -->
<g id="edge84" class="edge">
<title>ast.Attribute object at 0x70df44b1b010&#45;&gt;ast.Name object at 0x70df44b1ac90</title>
<path fill="none" stroke="black" d="M1212.66,-215.7C1206.01,-207.39 1197.92,-197.28 1190.61,-188.14"/>
<polygon fill="black" stroke="black" points="1193.16,-185.73 1184.18,-180.1 1187.7,-190.1 1193.16,-185.73"/>
</g>
<!-- ast.Name object at 0x70df44b1ac90&#45;&gt;ast.Load object at 0x70df43fc5050 -->
<g id="edge85" class="edge">
<title>ast.Name object at 0x70df44b1ac90&#45;&gt;ast.Load object at 0x70df43fc5050</title>
<path fill="none" stroke="black" d="M1143.15,-149.26C1138.31,-147.38 1133.29,-145.55 1128.5,-144 1066.31,-123.94 991.98,-107.32 948.43,-98.31"/>
<polygon fill="black" stroke="black" points="949.07,-94.87 938.58,-96.29 947.67,-101.73 949.07,-94.87"/>
</g>
<!-- ast.Call object at 0x70df44b749d0 -->
<g id="node65" class="node">
<title>ast.Call object at 0x70df44b749d0</title>
<path fill="#66cdaa" stroke="black" d="M1319.5,-324C1319.5,-324 1289.5,-324 1289.5,-324 1283.5,-324 1277.5,-318 1277.5,-312 1277.5,-312 1277.5,-300 1277.5,-300 1277.5,-294 1283.5,-288 1289.5,-288 1289.5,-288 1319.5,-288 1319.5,-288 1325.5,-288 1331.5,-294 1331.5,-300 1331.5,-300 1331.5,-312 1331.5,-312 1331.5,-318 1325.5,-324 1319.5,-324"/>
<text text-anchor="middle" x="1304.5" y="-302.3" font-family="Times,serif" font-size="14.00">Call</text>
</g>
<!-- ast.Expr object at 0x70df44b1b890&#45;&gt;ast.Call object at 0x70df44b749d0 -->
<g id="edge88" class="edge">
<title>ast.Expr object at 0x70df44b1b890&#45;&gt;ast.Call object at 0x70df44b749d0</title>
<path fill="none" stroke="black" d="M1276.65,-359.7C1280.9,-351.64 1286.06,-341.89 1290.77,-332.98"/>
<polygon fill="black" stroke="black" points="1293.88,-334.58 1295.46,-324.1 1287.69,-331.31 1293.88,-334.58"/>
</g>
<!-- ast.Attribute object at 0x70df44c3cb50 -->
<g id="node66" class="node">
<title>ast.Attribute object at 0x70df44c3cb50</title>
<path fill="#66cdaa" stroke="black" d="M1403,-252C1403,-252 1362,-252 1362,-252 1356,-252 1350,-246 1350,-240 1350,-240 1350,-228 1350,-228 1350,-222 1356,-216 1362,-216 1362,-216 1403,-216 1403,-216 1409,-216 1415,-222 1415,-228 1415,-228 1415,-240 1415,-240 1415,-246 1409,-252 1403,-252"/>
<text text-anchor="middle" x="1382.5" y="-230.3" font-family="Times,serif" font-size="14.00">Attribute</text>
</g>
<!-- ast.Call object at 0x70df44b749d0&#45;&gt;ast.Attribute object at 0x70df44c3cb50 -->
<g id="edge89" class="edge">
<title>ast.Call object at 0x70df44b749d0&#45;&gt;ast.Attribute object at 0x70df44c3cb50</title>
<path fill="none" stroke="black" d="M1323.78,-287.7C1333.42,-279.05 1345.23,-268.45 1355.73,-259.03"/>
<polygon fill="black" stroke="black" points="1358.34,-261.39 1363.44,-252.1 1353.66,-256.18 1358.34,-261.39"/>
</g>
<!-- ast.Name object at 0x70df44c3fd50 -->
<g id="node68" class="node">
<title>ast.Name object at 0x70df44c3fd50</title>
<path fill="#66cdaa" stroke="black" d="M1319.5,-252C1319.5,-252 1289.5,-252 1289.5,-252 1283.5,-252 1277.5,-246 1277.5,-240 1277.5,-240 1277.5,-228 1277.5,-228 1277.5,-222 1283.5,-216 1289.5,-216 1289.5,-216 1319.5,-216 1319.5,-216 1325.5,-216 1331.5,-222 1331.5,-228 1331.5,-228 1331.5,-240 1331.5,-240 1331.5,-246 1325.5,-252 1319.5,-252"/>
<text text-anchor="middle" x="1304.5" y="-230.3" font-family="Times,serif" font-size="14.00">Name</text>
</g>
<!-- ast.Call object at 0x70df44b749d0&#45;&gt;ast.Name object at 0x70df44c3fd50 -->
<g id="edge93" class="edge">
<title>ast.Call object at 0x70df44b749d0&#45;&gt;ast.Name object at 0x70df44c3fd50</title>
<path fill="none" stroke="black" d="M1304.5,-287.7C1304.5,-279.98 1304.5,-270.71 1304.5,-262.11"/>
<polygon fill="black" stroke="black" points="1308,-262.1 1304.5,-252.1 1301,-262.1 1308,-262.1"/>
</g>
<!-- ast.Attribute object at 0x70df44c3cb50&#45;&gt;ast.Load object at 0x70df43fc5050 -->
<g id="edge92" class="edge">
<title>ast.Attribute object at 0x70df44c3cb50&#45;&gt;ast.Load object at 0x70df43fc5050</title>
<path fill="none" stroke="black" d="M1383.38,-215.66C1383.37,-195.24 1379.94,-161.84 1359.5,-144 1328.73,-117.13 1050.6,-98.86 948.7,-93.01"/>
<polygon fill="black" stroke="black" points="948.74,-89.51 938.56,-92.44 948.35,-96.5 948.74,-89.51"/>
</g>
<!-- ast.Name object at 0x70df44c3f6d0 -->
<g id="node67" class="node">
<title>ast.Name object at 0x70df44c3f6d0</title>
<path fill="#66cdaa" stroke="black" d="M1338.5,-180C1338.5,-180 1308.5,-180 1308.5,-180 1302.5,-180 1296.5,-174 1296.5,-168 1296.5,-168 1296.5,-156 1296.5,-156 1296.5,-150 1302.5,-144 1308.5,-144 1308.5,-144 1338.5,-144 1338.5,-144 1344.5,-144 1350.5,-150 1350.5,-156 1350.5,-156 1350.5,-168 1350.5,-168 1350.5,-174 1344.5,-180 1338.5,-180"/>
<text text-anchor="middle" x="1323.5" y="-158.3" font-family="Times,serif" font-size="14.00">Name</text>
</g>
<!-- ast.Attribute object at 0x70df44c3cb50&#45;&gt;ast.Name object at 0x70df44c3f6d0 -->
<g id="edge90" class="edge">
<title>ast.Attribute object at 0x70df44c3cb50&#45;&gt;ast.Name object at 0x70df44c3f6d0</title>
<path fill="none" stroke="black" d="M1367.92,-215.7C1360.84,-207.3 1352.22,-197.07 1344.45,-187.86"/>
<polygon fill="black" stroke="black" points="1347.04,-185.49 1337.92,-180.1 1341.69,-190.01 1347.04,-185.49"/>
</g>
<!-- ast.Name object at 0x70df44c3f6d0&#45;&gt;ast.Load object at 0x70df43fc5050 -->
<g id="edge91" class="edge">
<title>ast.Name object at 0x70df44c3f6d0&#45;&gt;ast.Load object at 0x70df43fc5050</title>
<path fill="none" stroke="black" d="M1296.2,-149.6C1290.43,-147.5 1284.32,-145.5 1278.5,-144 1160.16,-113.49 1015.51,-99.08 948.65,-93.68"/>
<polygon fill="black" stroke="black" points="948.85,-90.18 938.6,-92.88 948.3,-97.16 948.85,-90.18"/>
</g>
<!-- ast.Name object at 0x70df44c3fd50&#45;&gt;ast.Load object at 0x70df43fc5050 -->
<g id="edge94" class="edge">
<title>ast.Name object at 0x70df44c3fd50&#45;&gt;ast.Load object at 0x70df43fc5050</title>
<path fill="none" stroke="black" d="M1294.93,-215.74C1282.49,-195.07 1258.74,-161.11 1228.5,-144 1181.17,-117.22 1022.15,-100.5 948.95,-94.04"/>
<polygon fill="black" stroke="black" points="949.06,-90.54 938.8,-93.16 948.46,-97.51 949.06,-90.54"/>
</g>
<!-- ast.Name object at 0x70df44c3f910 -->
<g id="node70" class="node">
<title>ast.Name object at 0x70df44c3f910</title>
<path fill="#66cdaa" stroke="black" d="M1353.5,-540C1353.5,-540 1323.5,-540 1323.5,-540 1317.5,-540 1311.5,-534 1311.5,-528 1311.5,-528 1311.5,-516 1311.5,-516 1311.5,-510 1317.5,-504 1323.5,-504 1323.5,-504 1353.5,-504 1353.5,-504 1359.5,-504 1365.5,-510 1365.5,-516 1365.5,-516 1365.5,-528 1365.5,-528 1365.5,-534 1359.5,-540 1353.5,-540"/>
<text text-anchor="middle" x="1338.5" y="-518.3" font-family="Times,serif" font-size="14.00">Name</text>
</g>
<!-- ast.Return object at 0x70df44c3f790&#45;&gt;ast.Name object at 0x70df44c3f910 -->
<g id="edge96" class="edge">
<title>ast.Return object at 0x70df44c3f790&#45;&gt;ast.Name object at 0x70df44c3f910</title>
<path fill="none" stroke="black" d="M771.57,-589.81C867.43,-578.51 1190.95,-540.39 1301.28,-527.39"/>
<polygon fill="black" stroke="black" points="1301.75,-530.85 1311.27,-526.21 1300.93,-523.9 1301.75,-530.85"/>
</g>
<!-- ast.Name object at 0x70df44c3f910&#45;&gt;ast.Load object at 0x70df43fc5050 -->
<g id="edge97" class="edge">
<title>ast.Name object at 0x70df44c3f910&#45;&gt;ast.Load object at 0x70df43fc5050</title>
<path fill="none" stroke="black" d="M1365.88,-515.35C1421.29,-502.14 1541.5,-463.73 1541.5,-379 1541.5,-379 1541.5,-379 1541.5,-233 1541.5,-192.55 1552.81,-170.78 1522.5,-144 1479.46,-105.99 1075.13,-94.4 948.94,-91.7"/>
<polygon fill="black" stroke="black" points="948.7,-88.19 938.63,-91.49 948.55,-95.19 948.7,-88.19"/>
</g>
</g>
</svg>
