<?xml version="1.0" encoding="UTF-8" standalone="no"?>
<!DOCTYPE svg PUBLIC "-//W3C//DTD SVG 1.1//EN"
 "http://www.w3.org/Graphics/SVG/1.1/DTD/svg11.dtd">
<!-- Generated by graphviz version 2.50.0 (0)
 -->
<!-- Pages: 1 -->
<svg width="1669pt" height="548pt"
 viewBox="0.00 0.00 1669.34 548.00" xmlns="http://www.w3.org/2000/svg" xmlns:xlink="http://www.w3.org/1999/xlink">
<g id="graph0" class="graph" transform="scale(1 1) rotate(0) translate(4 544)">
<polygon fill="white" stroke="transparent" points="-4,4 -4,-544 1665.34,-544 1665.34,4 -4,4"/>
<!-- ast.Module object at 0x78122e2850d0 -->
<g id="node1" class="node">
<title>ast.Module object at 0x78122e2850d0</title>
<path fill="#66cdaa" stroke="black" d="M462.98,-540C462.98,-540 427.98,-540 427.98,-540 421.98,-540 415.98,-534 415.98,-528 415.98,-528 415.98,-516 415.98,-516 415.98,-510 421.98,-504 427.98,-504 427.98,-504 462.98,-504 462.98,-504 468.98,-504 474.98,-510 474.98,-516 474.98,-516 474.98,-528 474.98,-528 474.98,-534 468.98,-540 462.98,-540"/>
<text text-anchor="middle" x="445.48" y="-518.3" font-family="Times,serif" font-size="14.00">Module</text>
</g>
<!-- ast.FunctionDef object at 0x78122e284490 -->
<g id="node2" class="node">
<title>ast.FunctionDef object at 0x78122e284490</title>
<path fill="#66cdaa" stroke="black" d="M475.98,-468C475.98,-468 414.98,-468 414.98,-468 408.98,-468 402.98,-462 402.98,-456 402.98,-456 402.98,-444 402.98,-444 402.98,-438 408.98,-432 414.98,-432 414.98,-432 475.98,-432 475.98,-432 481.98,-432 487.98,-438 487.98,-444 487.98,-444 487.98,-456 487.98,-456 487.98,-462 481.98,-468 475.98,-468"/>
<text text-anchor="middle" x="445.48" y="-446.3" font-family="Times,serif" font-size="14.00">FunctionDef</text>
</g>
<!-- ast.Module object at 0x78122e2850d0&#45;&gt;ast.FunctionDef object at 0x78122e284490 -->
<g id="edge1" class="edge">
<title>ast.Module object at 0x78122e2850d0&#45;&gt;ast.FunctionDef object at 0x78122e284490</title>
<path fill="none" stroke="black" d="M445.48,-503.7C445.48,-495.98 445.48,-486.71 445.48,-478.11"/>
<polygon fill="black" stroke="black" points="448.98,-478.1 445.48,-468.1 441.98,-478.1 448.98,-478.1"/>
</g>
<!-- ast.arguments object at 0x78122e4b0650 -->
<g id="node3" class="node">
<title>ast.arguments object at 0x78122e4b0650</title>
<path fill="#66cdaa" stroke="black" d="M276.48,-396C276.48,-396 226.48,-396 226.48,-396 220.48,-396 214.48,-390 214.48,-384 214.48,-384 214.48,-372 214.48,-372 214.48,-366 220.48,-360 226.48,-360 226.48,-360 276.48,-360 276.48,-360 282.48,-360 288.48,-366 288.48,-372 288.48,-372 288.48,-384 288.48,-384 288.48,-390 282.48,-396 276.48,-396"/>
<text text-anchor="middle" x="251.48" y="-374.3" font-family="Times,serif" font-size="14.00">arguments</text>
</g>
<!-- ast.FunctionDef object at 0x78122e284490&#45;&gt;ast.arguments object at 0x78122e4b0650 -->
<g id="edge2" class="edge">
<title>ast.FunctionDef object at 0x78122e284490&#45;&gt;ast.arguments object at 0x78122e4b0650</title>
<path fill="none" stroke="black" d="M402.69,-433.81C375.25,-424.03 338.63,-410.94 298.15,-396.23"/>
<polygon fill="black" stroke="black" points="299.22,-392.89 288.63,-392.76 296.83,-399.47 299.22,-392.89"/>
</g>
<!-- ast.Assign object at 0x78122e4b04d0 -->
<g id="node5" class="node">
<title>ast.Assign object at 0x78122e4b04d0</title>
<path fill="#66cdaa" stroke="black" d="M479.48,-252C479.48,-252 449.48,-252 449.48,-252 443.48,-252 437.48,-246 437.48,-240 437.48,-240 437.48,-228 437.48,-228 437.48,-222 443.48,-216 449.48,-216 449.48,-216 479.48,-216 479.48,-216 485.48,-216 491.48,-222 491.48,-228 491.48,-228 491.48,-240 491.48,-240 491.48,-246 485.48,-252 479.48,-252"/>
<text text-anchor="middle" x="464.48" y="-230.3" font-family="Times,serif" font-size="14.00">Assign</text>
</g>
<!-- ast.FunctionDef object at 0x78122e284490&#45;&gt;ast.Assign object at 0x78122e4b04d0 -->
<g id="edge4" class="edge">
<title>ast.FunctionDef object at 0x78122e284490&#45;&gt;ast.Assign object at 0x78122e4b04d0</title>
<path fill="none" stroke="black" d="M447,-431.85C450.29,-394.83 458.07,-307.18 462.05,-262.39"/>
<polygon fill="black" stroke="black" points="465.55,-262.5 462.95,-252.23 458.58,-261.88 465.55,-262.5"/>
</g>
<!-- ast.Assign object at 0x78122e2ba190 -->
<g id="node12" class="node">
<title>ast.Assign object at 0x78122e2ba190</title>
<path fill="#66cdaa" stroke="black" d="M407.48,-252C407.48,-252 377.48,-252 377.48,-252 371.48,-252 365.48,-246 365.48,-240 365.48,-240 365.48,-228 365.48,-228 365.48,-222 371.48,-216 377.48,-216 377.48,-216 407.48,-216 407.48,-216 413.48,-216 419.48,-222 419.48,-228 419.48,-228 419.48,-240 419.48,-240 419.48,-246 413.48,-252 407.48,-252"/>
<text text-anchor="middle" x="392.48" y="-230.3" font-family="Times,serif" font-size="14.00">Assign</text>
</g>
<!-- ast.FunctionDef object at 0x78122e284490&#45;&gt;ast.Assign object at 0x78122e2ba190 -->
<g id="edge12" class="edge">
<title>ast.FunctionDef object at 0x78122e284490&#45;&gt;ast.Assign object at 0x78122e2ba190</title>
<path fill="none" stroke="black" d="M441.23,-431.85C432.05,-394.75 410.26,-306.81 399.19,-262.1"/>
<polygon fill="black" stroke="black" points="402.55,-261.1 396.75,-252.23 395.75,-262.78 402.55,-261.1"/>
</g>
<!-- ast.Assign object at 0x78122e2ba250 -->
<g id="node17" class="node">
<title>ast.Assign object at 0x78122e2ba250</title>
<path fill="#66cdaa" stroke="black" d="M335.48,-252C335.48,-252 305.48,-252 305.48,-252 299.48,-252 293.48,-246 293.48,-240 293.48,-240 293.48,-228 293.48,-228 293.48,-222 299.48,-216 305.48,-216 305.48,-216 335.48,-216 335.48,-216 341.48,-216 347.48,-222 347.48,-228 347.48,-228 347.48,-240 347.48,-240 347.48,-246 341.48,-252 335.48,-252"/>
<text text-anchor="middle" x="320.48" y="-230.3" font-family="Times,serif" font-size="14.00">Assign</text>
</g>
<!-- ast.FunctionDef object at 0x78122e284490&#45;&gt;ast.Assign object at 0x78122e2ba250 -->
<g id="edge20" class="edge">
<title>ast.FunctionDef object at 0x78122e284490&#45;&gt;ast.Assign object at 0x78122e2ba250</title>
<path fill="none" stroke="black" d="M437.5,-431.94C420.62,-396.06 381.44,-313.92 364.48,-288 358.23,-278.45 350.52,-268.64 343.31,-260.11"/>
<polygon fill="black" stroke="black" points="345.8,-257.64 336.61,-252.37 340.5,-262.22 345.8,-257.64"/>
</g>
<!-- ast.FunctionDef object at 0x78122e2b9a10 -->
<g id="node22" class="node">
<title>ast.FunctionDef object at 0x78122e2b9a10</title>
<path fill="#66cdaa" stroke="black" d="M1393.98,-396C1393.98,-396 1332.98,-396 1332.98,-396 1326.98,-396 1320.98,-390 1320.98,-384 1320.98,-384 1320.98,-372 1320.98,-372 1320.98,-366 1326.98,-360 1332.98,-360 1332.98,-360 1393.98,-360 1393.98,-360 1399.98,-360 1405.98,-366 1405.98,-372 1405.98,-372 1405.98,-384 1405.98,-384 1405.98,-390 1399.98,-396 1393.98,-396"/>
<text text-anchor="middle" x="1363.48" y="-374.3" font-family="Times,serif" font-size="14.00">FunctionDef</text>
</g>
<!-- ast.FunctionDef object at 0x78122e284490&#45;&gt;ast.FunctionDef object at 0x78122e2b9a10 -->
<g id="edge28" class="edge">
<title>ast.FunctionDef object at 0x78122e284490&#45;&gt;ast.FunctionDef object at 0x78122e2b9a10</title>
<path fill="none" stroke="black" d="M488.22,-445.74C638.8,-434.26 1144.5,-395.7 1310.32,-383.05"/>
<polygon fill="black" stroke="black" points="1311.04,-386.51 1320.75,-382.26 1310.51,-379.53 1311.04,-386.51"/>
</g>
<!-- ast.Assign object at 0x78122e2b86d0 -->
<g id="node41" class="node">
<title>ast.Assign object at 0x78122e2b86d0</title>
<path fill="#66cdaa" stroke="black" d="M623.48,-252C623.48,-252 593.48,-252 593.48,-252 587.48,-252 581.48,-246 581.48,-240 581.48,-240 581.48,-228 581.48,-228 581.48,-222 587.48,-216 593.48,-216 593.48,-216 623.48,-216 623.48,-216 629.48,-216 635.48,-222 635.48,-228 635.48,-228 635.48,-240 635.48,-240 635.48,-246 629.48,-252 623.48,-252"/>
<text text-anchor="middle" x="608.48" y="-230.3" font-family="Times,serif" font-size="14.00">Assign</text>
</g>
<!-- ast.FunctionDef object at 0x78122e284490&#45;&gt;ast.Assign object at 0x78122e2b86d0 -->
<g id="edge53" class="edge">
<title>ast.FunctionDef object at 0x78122e284490&#45;&gt;ast.Assign object at 0x78122e2b86d0</title>
<path fill="none" stroke="black" d="M460.4,-431.54C469.04,-421.3 480.04,-408.05 489.48,-396 526.32,-348.99 567.32,-292.54 590.3,-260.52"/>
<polygon fill="black" stroke="black" points="593.31,-262.33 596.28,-252.16 587.62,-258.25 593.31,-262.33"/>
</g>
<!-- ast.Assign object at 0x78122e2b9790 -->
<g id="node47" class="node">
<title>ast.Assign object at 0x78122e2b9790</title>
<path fill="#66cdaa" stroke="black" d="M551.48,-252C551.48,-252 521.48,-252 521.48,-252 515.48,-252 509.48,-246 509.48,-240 509.48,-240 509.48,-228 509.48,-228 509.48,-222 515.48,-216 521.48,-216 521.48,-216 551.48,-216 551.48,-216 557.48,-216 563.48,-222 563.48,-228 563.48,-228 563.48,-240 563.48,-240 563.48,-246 557.48,-252 551.48,-252"/>
<text text-anchor="middle" x="536.48" y="-230.3" font-family="Times,serif" font-size="14.00">Assign</text>
</g>
<!-- ast.FunctionDef object at 0x78122e284490&#45;&gt;ast.Assign object at 0x78122e2b9790 -->
<g id="edge63" class="edge">
<title>ast.FunctionDef object at 0x78122e284490&#45;&gt;ast.Assign object at 0x78122e2b9790</title>
<path fill="none" stroke="black" d="M452.77,-431.85C468.61,-394.6 506.26,-306.07 525.19,-261.54"/>
<polygon fill="black" stroke="black" points="528.46,-262.8 529.15,-252.23 522.02,-260.07 528.46,-262.8"/>
</g>
<!-- ast.Return object at 0x78122e2b8a90 -->
<g id="node53" class="node">
<title>ast.Return object at 0x78122e2b8a90</title>
<path fill="#66cdaa" stroke="black" d="M348.48,-396C348.48,-396 318.48,-396 318.48,-396 312.48,-396 306.48,-390 306.48,-384 306.48,-384 306.48,-372 306.48,-372 306.48,-366 312.48,-360 318.48,-360 318.48,-360 348.48,-360 348.48,-360 354.48,-360 360.48,-366 360.48,-372 360.48,-372 360.48,-384 360.48,-384 360.48,-390 354.48,-396 348.48,-396"/>
<text text-anchor="middle" x="333.48" y="-374.3" font-family="Times,serif" font-size="14.00">Return</text>
</g>
<!-- ast.FunctionDef object at 0x78122e284490&#45;&gt;ast.Return object at 0x78122e2b8a90 -->
<g id="edge73" class="edge">
<title>ast.FunctionDef object at 0x78122e284490&#45;&gt;ast.Return object at 0x78122e2b8a90</title>
<path fill="none" stroke="black" d="M418.08,-431.88C403.33,-422.66 384.96,-411.17 369.1,-401.26"/>
<polygon fill="black" stroke="black" points="370.93,-398.28 360.6,-395.95 367.22,-404.22 370.93,-398.28"/>
</g>
<!-- ast.arg object at 0x78122e4b3750 -->
<g id="node4" class="node">
<title>ast.arg object at 0x78122e4b3750</title>
<path fill="#66cdaa" stroke="black" d="M266.48,-324C266.48,-324 236.48,-324 236.48,-324 230.48,-324 224.48,-318 224.48,-312 224.48,-312 224.48,-300 224.48,-300 224.48,-294 230.48,-288 236.48,-288 236.48,-288 266.48,-288 266.48,-288 272.48,-288 278.48,-294 278.48,-300 278.48,-300 278.48,-312 278.48,-312 278.48,-318 272.48,-324 266.48,-324"/>
<text text-anchor="middle" x="251.48" y="-302.3" font-family="Times,serif" font-size="14.00">arg</text>
</g>
<!-- ast.arguments object at 0x78122e4b0650&#45;&gt;ast.arg object at 0x78122e4b3750 -->
<g id="edge3" class="edge">
<title>ast.arguments object at 0x78122e4b0650&#45;&gt;ast.arg object at 0x78122e4b3750</title>
<path fill="none" stroke="black" d="M251.48,-359.7C251.48,-351.98 251.48,-342.71 251.48,-334.11"/>
<polygon fill="black" stroke="black" points="254.98,-334.1 251.48,-324.1 247.98,-334.1 254.98,-334.1"/>
</g>
<!-- ast.Name object at 0x78122e2b9bd0 -->
<g id="node6" class="node">
<title>ast.Name object at 0x78122e2b9bd0</title>
<path fill="#66cdaa" stroke="black" d="M479.48,-180C479.48,-180 449.48,-180 449.48,-180 443.48,-180 437.48,-174 437.48,-168 437.48,-168 437.48,-156 437.48,-156 437.48,-150 443.48,-144 449.48,-144 449.48,-144 479.48,-144 479.48,-144 485.48,-144 491.48,-150 491.48,-156 491.48,-156 491.48,-168 491.48,-168 491.48,-174 485.48,-180 479.48,-180"/>
<text text-anchor="middle" x="464.48" y="-158.3" font-family="Times,serif" font-size="14.00">Name</text>
</g>
<!-- ast.Assign object at 0x78122e4b04d0&#45;&gt;ast.Name object at 0x78122e2b9bd0 -->
<g id="edge5" class="edge">
<title>ast.Assign object at 0x78122e4b04d0&#45;&gt;ast.Name object at 0x78122e2b9bd0</title>
<path fill="none" stroke="black" d="M464.48,-215.7C464.48,-207.98 464.48,-198.71 464.48,-190.11"/>
<polygon fill="black" stroke="black" points="467.98,-190.1 464.48,-180.1 460.98,-190.1 467.98,-190.1"/>
</g>
<!-- ast.Subscript object at 0x78122e2b9b90 -->
<g id="node8" class="node">
<title>ast.Subscript object at 0x78122e2b9b90</title>
<path fill="#66cdaa" stroke="black" d="M709.48,-180C709.48,-180 665.48,-180 665.48,-180 659.48,-180 653.48,-174 653.48,-168 653.48,-168 653.48,-156 653.48,-156 653.48,-150 659.48,-144 665.48,-144 665.48,-144 709.48,-144 709.48,-144 715.48,-144 721.48,-150 721.48,-156 721.48,-156 721.48,-168 721.48,-168 721.48,-174 715.48,-180 709.48,-180"/>
<text text-anchor="middle" x="687.48" y="-158.3" font-family="Times,serif" font-size="14.00">Subscript</text>
</g>
<!-- ast.Assign object at 0x78122e4b04d0&#45;&gt;ast.Subscript object at 0x78122e2b9b90 -->
<g id="edge7" class="edge">
<title>ast.Assign object at 0x78122e4b04d0&#45;&gt;ast.Subscript object at 0x78122e2b9b90</title>
<path fill="none" stroke="black" d="M491.76,-219.44C494.67,-218.2 497.62,-217.02 500.48,-216 559.69,-194.85 579.79,-199.64 643.62,-180.03"/>
<polygon fill="black" stroke="black" points="644.88,-183.31 653.36,-176.96 642.77,-176.63 644.88,-183.31"/>
</g>
<!-- ast.Store object at 0x78131643bb10 -->
<g id="node7" class="node">
<title>ast.Store object at 0x78131643bb10</title>
<path fill="#66cdaa" stroke="black" d="M451.48,-108C451.48,-108 421.48,-108 421.48,-108 415.48,-108 409.48,-102 409.48,-96 409.48,-96 409.48,-84 409.48,-84 409.48,-78 415.48,-72 421.48,-72 421.48,-72 451.48,-72 451.48,-72 457.48,-72 463.48,-78 463.48,-84 463.48,-84 463.48,-96 463.48,-96 463.48,-102 457.48,-108 451.48,-108"/>
<text text-anchor="middle" x="436.48" y="-86.3" font-family="Times,serif" font-size="14.00">Store</text>
</g>
<!-- ast.Name object at 0x78122e2b9bd0&#45;&gt;ast.Store object at 0x78131643bb10 -->
<g id="edge6" class="edge">
<title>ast.Name object at 0x78122e2b9bd0&#45;&gt;ast.Store object at 0x78131643bb10</title>
<path fill="none" stroke="black" d="M457.56,-143.7C454.41,-135.81 450.6,-126.3 447.1,-117.55"/>
<polygon fill="black" stroke="black" points="450.29,-116.09 443.32,-108.1 443.79,-118.69 450.29,-116.09"/>
</g>
<!-- ast.Name object at 0x78122e2b9c90 -->
<g id="node9" class="node">
<title>ast.Name object at 0x78122e2b9c90</title>
<path fill="#66cdaa" stroke="black" d="M561.48,-108C561.48,-108 531.48,-108 531.48,-108 525.48,-108 519.48,-102 519.48,-96 519.48,-96 519.48,-84 519.48,-84 519.48,-78 525.48,-72 531.48,-72 531.48,-72 561.48,-72 561.48,-72 567.48,-72 573.48,-78 573.48,-84 573.48,-84 573.48,-96 573.48,-96 573.48,-102 567.48,-108 561.48,-108"/>
<text text-anchor="middle" x="546.48" y="-86.3" font-family="Times,serif" font-size="14.00">Name</text>
</g>
<!-- ast.Subscript object at 0x78122e2b9b90&#45;&gt;ast.Name object at 0x78122e2b9c90 -->
<g id="edge8" class="edge">
<title>ast.Subscript object at 0x78122e2b9b90&#45;&gt;ast.Name object at 0x78122e2b9c90</title>
<path fill="none" stroke="black" d="M653.35,-144.05C632.05,-133.48 604.65,-119.88 582.93,-109.1"/>
<polygon fill="black" stroke="black" points="584.21,-105.82 573.7,-104.51 581.1,-112.09 584.21,-105.82"/>
</g>
<!-- ast.Load object at 0x78131643ba90 -->
<g id="node10" class="node">
<title>ast.Load object at 0x78131643ba90</title>
<path fill="#66cdaa" stroke="black" d="M861.48,-36C861.48,-36 831.48,-36 831.48,-36 825.48,-36 819.48,-30 819.48,-24 819.48,-24 819.48,-12 819.48,-12 819.48,-6 825.48,0 831.48,0 831.48,0 861.48,0 861.48,0 867.48,0 873.48,-6 873.48,-12 873.48,-12 873.48,-24 873.48,-24 873.48,-30 867.48,-36 861.48,-36"/>
<text text-anchor="middle" x="846.48" y="-14.3" font-family="Times,serif" font-size="14.00">Load</text>
</g>
<!-- ast.Subscript object at 0x78122e2b9b90&#45;&gt;ast.Load object at 0x78131643ba90 -->
<g id="edge11" class="edge">
<title>ast.Subscript object at 0x78122e2b9b90&#45;&gt;ast.Load object at 0x78131643ba90</title>
<path fill="none" stroke="black" d="M653.34,-147.1C650.36,-146.01 647.38,-144.96 644.48,-144 585.93,-124.63 548,-156.94 510.48,-108 500.74,-95.3 500.09,-84.16 510.48,-72 548.62,-27.37 730.19,-20.1 809.39,-19.07"/>
<polygon fill="black" stroke="black" points="809.46,-22.57 819.42,-18.97 809.38,-15.57 809.46,-22.57"/>
</g>
<!-- ast.Constant object at 0x78122e2b9c10 -->
<g id="node11" class="node">
<title>ast.Constant object at 0x78122e2b9c10</title>
<path fill="#66cdaa" stroke="black" d="M644.98,-108C644.98,-108 603.98,-108 603.98,-108 597.98,-108 591.98,-102 591.98,-96 591.98,-96 591.98,-84 591.98,-84 591.98,-78 597.98,-72 603.98,-72 603.98,-72 644.98,-72 644.98,-72 650.98,-72 656.98,-78 656.98,-84 656.98,-84 656.98,-96 656.98,-96 656.98,-102 650.98,-108 644.98,-108"/>
<text text-anchor="middle" x="624.48" y="-86.3" font-family="Times,serif" font-size="14.00">Constant</text>
</g>
<!-- ast.Subscript object at 0x78122e2b9b90&#45;&gt;ast.Constant object at 0x78122e2b9c10 -->
<g id="edge10" class="edge">
<title>ast.Subscript object at 0x78122e2b9b90&#45;&gt;ast.Constant object at 0x78122e2b9c10</title>
<path fill="none" stroke="black" d="M671.91,-143.7C664.28,-135.22 654.96,-124.86 646.6,-115.58"/>
<polygon fill="black" stroke="black" points="649.17,-113.2 639.87,-108.1 643.96,-117.88 649.17,-113.2"/>
</g>
<!-- ast.Name object at 0x78122e2b9c90&#45;&gt;ast.Load object at 0x78131643ba90 -->
<g id="edge9" class="edge">
<title>ast.Name object at 0x78122e2b9c90&#45;&gt;ast.Load object at 0x78131643ba90</title>
<path fill="none" stroke="black" d="M573.68,-75.65C576.94,-74.3 580.25,-73.05 583.48,-72 662,-46.43 757.9,-30.86 809.45,-23.7"/>
<polygon fill="black" stroke="black" points="810.01,-27.16 819.45,-22.34 809.07,-20.22 810.01,-27.16"/>
</g>
<!-- ast.Name object at 0x78122e2ba4d0 -->
<g id="node13" class="node">
<title>ast.Name object at 0x78122e2ba4d0</title>
<path fill="#66cdaa" stroke="black" d="M407.48,-180C407.48,-180 377.48,-180 377.48,-180 371.48,-180 365.48,-174 365.48,-168 365.48,-168 365.48,-156 365.48,-156 365.48,-150 371.48,-144 377.48,-144 377.48,-144 407.48,-144 407.48,-144 413.48,-144 419.48,-150 419.48,-156 419.48,-156 419.48,-168 419.48,-168 419.48,-174 413.48,-180 407.48,-180"/>
<text text-anchor="middle" x="392.48" y="-158.3" font-family="Times,serif" font-size="14.00">Name</text>
</g>
<!-- ast.Assign object at 0x78122e2ba190&#45;&gt;ast.Name object at 0x78122e2ba4d0 -->
<g id="edge13" class="edge">
<title>ast.Assign object at 0x78122e2ba190&#45;&gt;ast.Name object at 0x78122e2ba4d0</title>
<path fill="none" stroke="black" d="M392.48,-215.7C392.48,-207.98 392.48,-198.71 392.48,-190.11"/>
<polygon fill="black" stroke="black" points="395.98,-190.1 392.48,-180.1 388.98,-190.1 395.98,-190.1"/>
</g>
<!-- ast.Subscript object at 0x78122e2ba150 -->
<g id="node14" class="node">
<title>ast.Subscript object at 0x78122e2ba150</title>
<path fill="#66cdaa" stroke="black" d="M263.48,-180C263.48,-180 219.48,-180 219.48,-180 213.48,-180 207.48,-174 207.48,-168 207.48,-168 207.48,-156 207.48,-156 207.48,-150 213.48,-144 219.48,-144 219.48,-144 263.48,-144 263.48,-144 269.48,-144 275.48,-150 275.48,-156 275.48,-156 275.48,-168 275.48,-168 275.48,-174 269.48,-180 263.48,-180"/>
<text text-anchor="middle" x="241.48" y="-158.3" font-family="Times,serif" font-size="14.00">Subscript</text>
</g>
<!-- ast.Assign object at 0x78122e2ba190&#45;&gt;ast.Subscript object at 0x78122e2ba150 -->
<g id="edge15" class="edge">
<title>ast.Assign object at 0x78122e2ba190&#45;&gt;ast.Subscript object at 0x78122e2ba150</title>
<path fill="none" stroke="black" d="M365.37,-220.16C362.37,-218.75 359.36,-217.34 356.48,-216 332.79,-204.95 306.3,-192.73 284.72,-182.81"/>
<polygon fill="black" stroke="black" points="286.03,-179.56 275.48,-178.57 283.11,-185.93 286.03,-179.56"/>
</g>
<!-- ast.Name object at 0x78122e2ba4d0&#45;&gt;ast.Store object at 0x78131643bb10 -->
<g id="edge14" class="edge">
<title>ast.Name object at 0x78122e2ba4d0&#45;&gt;ast.Store object at 0x78131643bb10</title>
<path fill="none" stroke="black" d="M403.36,-143.7C408.47,-135.56 414.68,-125.69 420.33,-116.7"/>
<polygon fill="black" stroke="black" points="423.37,-118.43 425.73,-108.1 417.44,-114.71 423.37,-118.43"/>
</g>
<!-- ast.Subscript object at 0x78122e2ba150&#45;&gt;ast.Load object at 0x78131643ba90 -->
<g id="edge19" class="edge">
<title>ast.Subscript object at 0x78122e2ba150&#45;&gt;ast.Load object at 0x78131643ba90</title>
<path fill="none" stroke="black" d="M257.24,-143.65C279.83,-118.98 319.67,-76.25 328.48,-72 413.6,-30.95 705.18,-21.6 809.22,-19.55"/>
<polygon fill="black" stroke="black" points="809.33,-23.05 819.26,-19.37 809.2,-16.05 809.33,-23.05"/>
</g>
<!-- ast.Name object at 0x78122e2ba2d0 -->
<g id="node15" class="node">
<title>ast.Name object at 0x78122e2ba2d0</title>
<path fill="#66cdaa" stroke="black" d="M379.48,-108C379.48,-108 349.48,-108 349.48,-108 343.48,-108 337.48,-102 337.48,-96 337.48,-96 337.48,-84 337.48,-84 337.48,-78 343.48,-72 349.48,-72 349.48,-72 379.48,-72 379.48,-72 385.48,-72 391.48,-78 391.48,-84 391.48,-84 391.48,-96 391.48,-96 391.48,-102 385.48,-108 379.48,-108"/>
<text text-anchor="middle" x="364.48" y="-86.3" font-family="Times,serif" font-size="14.00">Name</text>
</g>
<!-- ast.Subscript object at 0x78122e2ba150&#45;&gt;ast.Name object at 0x78122e2ba2d0 -->
<g id="edge16" class="edge">
<title>ast.Subscript object at 0x78122e2ba150&#45;&gt;ast.Name object at 0x78122e2ba2d0</title>
<path fill="none" stroke="black" d="M271.57,-143.88C288.65,-134.16 310.15,-121.92 328.16,-111.67"/>
<polygon fill="black" stroke="black" points="330.26,-114.5 337.22,-106.51 326.8,-108.42 330.26,-114.5"/>
</g>
<!-- ast.Constant object at 0x78122e2ba110 -->
<g id="node16" class="node">
<title>ast.Constant object at 0x78122e2ba110</title>
<path fill="#66cdaa" stroke="black" d="M268.98,-108C268.98,-108 227.98,-108 227.98,-108 221.98,-108 215.98,-102 215.98,-96 215.98,-96 215.98,-84 215.98,-84 215.98,-78 221.98,-72 227.98,-72 227.98,-72 268.98,-72 268.98,-72 274.98,-72 280.98,-78 280.98,-84 280.98,-84 280.98,-96 280.98,-96 280.98,-102 274.98,-108 268.98,-108"/>
<text text-anchor="middle" x="248.48" y="-86.3" font-family="Times,serif" font-size="14.00">Constant</text>
</g>
<!-- ast.Subscript object at 0x78122e2ba150&#45;&gt;ast.Constant object at 0x78122e2ba110 -->
<g id="edge18" class="edge">
<title>ast.Subscript object at 0x78122e2ba150&#45;&gt;ast.Constant object at 0x78122e2ba110</title>
<path fill="none" stroke="black" d="M243.21,-143.7C243.98,-135.98 244.91,-126.71 245.77,-118.11"/>
<polygon fill="black" stroke="black" points="249.26,-118.4 246.77,-108.1 242.29,-117.71 249.26,-118.4"/>
</g>
<!-- ast.Name object at 0x78122e2ba2d0&#45;&gt;ast.Load object at 0x78131643ba90 -->
<g id="edge17" class="edge">
<title>ast.Name object at 0x78122e2ba2d0&#45;&gt;ast.Load object at 0x78131643ba90</title>
<path fill="none" stroke="black" d="M391.64,-75.06C394.58,-73.89 397.56,-72.84 400.48,-72 547.57,-29.75 731.28,-21.13 808.99,-19.41"/>
<polygon fill="black" stroke="black" points="809.31,-22.9 819.24,-19.21 809.17,-15.9 809.31,-22.9"/>
</g>
<!-- ast.Name object at 0x78122e2ba510 -->
<g id="node18" class="node">
<title>ast.Name object at 0x78122e2ba510</title>
<path fill="#66cdaa" stroke="black" d="M335.48,-180C335.48,-180 305.48,-180 305.48,-180 299.48,-180 293.48,-174 293.48,-168 293.48,-168 293.48,-156 293.48,-156 293.48,-150 299.48,-144 305.48,-144 305.48,-144 335.48,-144 335.48,-144 341.48,-144 347.48,-150 347.48,-156 347.48,-156 347.48,-168 347.48,-168 347.48,-174 341.48,-180 335.48,-180"/>
<text text-anchor="middle" x="320.48" y="-158.3" font-family="Times,serif" font-size="14.00">Name</text>
</g>
<!-- ast.Assign object at 0x78122e2ba250&#45;&gt;ast.Name object at 0x78122e2ba510 -->
<g id="edge21" class="edge">
<title>ast.Assign object at 0x78122e2ba250&#45;&gt;ast.Name object at 0x78122e2ba510</title>
<path fill="none" stroke="black" d="M320.48,-215.7C320.48,-207.98 320.48,-198.71 320.48,-190.11"/>
<polygon fill="black" stroke="black" points="323.98,-190.1 320.48,-180.1 316.98,-190.1 323.98,-190.1"/>
</g>
<!-- ast.Subscript object at 0x78122e2b9b10 -->
<g id="node19" class="node">
<title>ast.Subscript object at 0x78122e2b9b10</title>
<path fill="#66cdaa" stroke="black" d="M162.48,-180C162.48,-180 118.48,-180 118.48,-180 112.48,-180 106.48,-174 106.48,-168 106.48,-168 106.48,-156 106.48,-156 106.48,-150 112.48,-144 118.48,-144 118.48,-144 162.48,-144 162.48,-144 168.48,-144 174.48,-150 174.48,-156 174.48,-156 174.48,-168 174.48,-168 174.48,-174 168.48,-180 162.48,-180"/>
<text text-anchor="middle" x="140.48" y="-158.3" font-family="Times,serif" font-size="14.00">Subscript</text>
</g>
<!-- ast.Assign object at 0x78122e2ba250&#45;&gt;ast.Subscript object at 0x78122e2b9b10 -->
<g id="edge23" class="edge">
<title>ast.Assign object at 0x78122e2ba250&#45;&gt;ast.Subscript object at 0x78122e2b9b10</title>
<path fill="none" stroke="black" d="M293.14,-222.37C264.23,-211.12 218.19,-193.22 184.22,-180.01"/>
<polygon fill="black" stroke="black" points="185.13,-176.61 174.54,-176.25 182.59,-183.13 185.13,-176.61"/>
</g>
<!-- ast.Name object at 0x78122e2ba510&#45;&gt;ast.Store object at 0x78131643bb10 -->
<g id="edge22" class="edge">
<title>ast.Name object at 0x78122e2ba510&#45;&gt;ast.Store object at 0x78131643bb10</title>
<path fill="none" stroke="black" d="M347.68,-144.59C363.53,-135.02 383.71,-122.85 400.82,-112.52"/>
<polygon fill="black" stroke="black" points="402.7,-115.47 409.45,-107.31 399.08,-109.48 402.7,-115.47"/>
</g>
<!-- ast.Subscript object at 0x78122e2b9b10&#45;&gt;ast.Load object at 0x78131643ba90 -->
<g id="edge27" class="edge">
<title>ast.Subscript object at 0x78122e2b9b10&#45;&gt;ast.Load object at 0x78131643ba90</title>
<path fill="none" stroke="black" d="M147.8,-143.74C157.71,-122.73 177.57,-88.08 206.48,-72 259.19,-42.68 680.16,-25.05 809.09,-20.31"/>
<polygon fill="black" stroke="black" points="809.39,-23.8 819.25,-19.94 809.13,-16.8 809.39,-23.8"/>
</g>
<!-- ast.Name object at 0x78122e2b8890 -->
<g id="node20" class="node">
<title>ast.Name object at 0x78122e2b8890</title>
<path fill="#66cdaa" stroke="black" d="M147.48,-108C147.48,-108 117.48,-108 117.48,-108 111.48,-108 105.48,-102 105.48,-96 105.48,-96 105.48,-84 105.48,-84 105.48,-78 111.48,-72 117.48,-72 117.48,-72 147.48,-72 147.48,-72 153.48,-72 159.48,-78 159.48,-84 159.48,-84 159.48,-96 159.48,-96 159.48,-102 153.48,-108 147.48,-108"/>
<text text-anchor="middle" x="132.48" y="-86.3" font-family="Times,serif" font-size="14.00">Name</text>
</g>
<!-- ast.Subscript object at 0x78122e2b9b10&#45;&gt;ast.Name object at 0x78122e2b8890 -->
<g id="edge24" class="edge">
<title>ast.Subscript object at 0x78122e2b9b10&#45;&gt;ast.Name object at 0x78122e2b8890</title>
<path fill="none" stroke="black" d="M138.5,-143.7C137.62,-135.98 136.56,-126.71 135.58,-118.11"/>
<polygon fill="black" stroke="black" points="139.05,-117.64 134.44,-108.1 132.09,-118.44 139.05,-117.64"/>
</g>
<!-- ast.Constant object at 0x78122e2b9ad0 -->
<g id="node21" class="node">
<title>ast.Constant object at 0x78122e2b9ad0</title>
<path fill="#66cdaa" stroke="black" d="M74.98,-108C74.98,-108 33.98,-108 33.98,-108 27.98,-108 21.98,-102 21.98,-96 21.98,-96 21.98,-84 21.98,-84 21.98,-78 27.98,-72 33.98,-72 33.98,-72 74.98,-72 74.98,-72 80.98,-72 86.98,-78 86.98,-84 86.98,-84 86.98,-96 86.98,-96 86.98,-102 80.98,-108 74.98,-108"/>
<text text-anchor="middle" x="54.48" y="-86.3" font-family="Times,serif" font-size="14.00">Constant</text>
</g>
<!-- ast.Subscript object at 0x78122e2b9b10&#45;&gt;ast.Constant object at 0x78122e2b9ad0 -->
<g id="edge26" class="edge">
<title>ast.Subscript object at 0x78122e2b9b10&#45;&gt;ast.Constant object at 0x78122e2b9ad0</title>
<path fill="none" stroke="black" d="M119.22,-143.7C108.39,-134.88 95.06,-124.03 83.32,-114.47"/>
<polygon fill="black" stroke="black" points="85.46,-111.7 75.49,-108.1 81.04,-117.13 85.46,-111.7"/>
</g>
<!-- ast.Name object at 0x78122e2b8890&#45;&gt;ast.Load object at 0x78131643ba90 -->
<g id="edge25" class="edge">
<title>ast.Name object at 0x78122e2b8890&#45;&gt;ast.Load object at 0x78131643ba90</title>
<path fill="none" stroke="black" d="M159.87,-76.26C164.34,-74.59 168.98,-73.08 173.48,-72 295.84,-42.6 686.47,-25.23 809.21,-20.4"/>
<polygon fill="black" stroke="black" points="809.39,-23.89 819.24,-20 809.11,-16.9 809.39,-23.89"/>
</g>
<!-- ast.arguments object at 0x78122e2b9a90 -->
<g id="node23" class="node">
<title>ast.arguments object at 0x78122e2b9a90</title>
<path fill="#66cdaa" stroke="black" d="M1514.48,-324C1514.48,-324 1464.48,-324 1464.48,-324 1458.48,-324 1452.48,-318 1452.48,-312 1452.48,-312 1452.48,-300 1452.48,-300 1452.48,-294 1458.48,-288 1464.48,-288 1464.48,-288 1514.48,-288 1514.48,-288 1520.48,-288 1526.48,-294 1526.48,-300 1526.48,-300 1526.48,-312 1526.48,-312 1526.48,-318 1520.48,-324 1514.48,-324"/>
<text text-anchor="middle" x="1489.48" y="-302.3" font-family="Times,serif" font-size="14.00">arguments</text>
</g>
<!-- ast.FunctionDef object at 0x78122e2b9a10&#45;&gt;ast.arguments object at 0x78122e2b9a90 -->
<g id="edge29" class="edge">
<title>ast.FunctionDef object at 0x78122e2b9a10&#45;&gt;ast.arguments object at 0x78122e2b9a90</title>
<path fill="none" stroke="black" d="M1394.3,-359.88C1410.93,-350.64 1431.64,-339.13 1449.5,-329.21"/>
<polygon fill="black" stroke="black" points="1451.5,-332.11 1458.54,-324.19 1448.1,-325.99 1451.5,-332.11"/>
</g>
<!-- ast.If object at 0x78122e2ba210 -->
<g id="node26" class="node">
<title>ast.If object at 0x78122e2ba210</title>
<path fill="#66cdaa" stroke="black" d="M1305.48,-252C1305.48,-252 1275.48,-252 1275.48,-252 1269.48,-252 1263.48,-246 1263.48,-240 1263.48,-240 1263.48,-228 1263.48,-228 1263.48,-222 1269.48,-216 1275.48,-216 1275.48,-216 1305.48,-216 1305.48,-216 1311.48,-216 1317.48,-222 1317.48,-228 1317.48,-228 1317.48,-240 1317.48,-240 1317.48,-246 1311.48,-252 1305.48,-252"/>
<text text-anchor="middle" x="1290.48" y="-230.3" font-family="Times,serif" font-size="14.00">If</text>
</g>
<!-- ast.FunctionDef object at 0x78122e2b9a10&#45;&gt;ast.If object at 0x78122e2ba210 -->
<g id="edge32" class="edge">
<title>ast.FunctionDef object at 0x78122e2b9a10&#45;&gt;ast.If object at 0x78122e2ba210</title>
<path fill="none" stroke="black" d="M1354.67,-359.87C1342.07,-335.35 1318.77,-290.03 1303.98,-261.26"/>
<polygon fill="black" stroke="black" points="1307,-259.48 1299.32,-252.19 1300.78,-262.68 1307,-259.48"/>
</g>
<!-- ast.Return object at 0x78122e2b9850 -->
<g id="node33" class="node">
<title>ast.Return object at 0x78122e2b9850</title>
<path fill="#66cdaa" stroke="black" d="M1393.48,-324C1393.48,-324 1363.48,-324 1363.48,-324 1357.48,-324 1351.48,-318 1351.48,-312 1351.48,-312 1351.48,-300 1351.48,-300 1351.48,-294 1357.48,-288 1363.48,-288 1363.48,-288 1393.48,-288 1393.48,-288 1399.48,-288 1405.48,-294 1405.48,-300 1405.48,-300 1405.48,-312 1405.48,-312 1405.48,-318 1399.48,-324 1393.48,-324"/>
<text text-anchor="middle" x="1378.48" y="-302.3" font-family="Times,serif" font-size="14.00">Return</text>
</g>
<!-- ast.FunctionDef object at 0x78122e2b9a10&#45;&gt;ast.Return object at 0x78122e2b9850 -->
<g id="edge41" class="edge">
<title>ast.FunctionDef object at 0x78122e2b9a10&#45;&gt;ast.Return object at 0x78122e2b9850</title>
<path fill="none" stroke="black" d="M1367.19,-359.7C1368.84,-351.98 1370.83,-342.71 1372.67,-334.11"/>
<polygon fill="black" stroke="black" points="1376.14,-334.62 1374.82,-324.1 1369.3,-333.15 1376.14,-334.62"/>
</g>
<!-- ast.arg object at 0x78122e2b99d0 -->
<g id="node24" class="node">
<title>ast.arg object at 0x78122e2b99d0</title>
<path fill="#66cdaa" stroke="black" d="M1504.48,-252C1504.48,-252 1474.48,-252 1474.48,-252 1468.48,-252 1462.48,-246 1462.48,-240 1462.48,-240 1462.48,-228 1462.48,-228 1462.48,-222 1468.48,-216 1474.48,-216 1474.48,-216 1504.48,-216 1504.48,-216 1510.48,-216 1516.48,-222 1516.48,-228 1516.48,-228 1516.48,-240 1516.48,-240 1516.48,-246 1510.48,-252 1504.48,-252"/>
<text text-anchor="middle" x="1489.48" y="-230.3" font-family="Times,serif" font-size="14.00">arg</text>
</g>
<!-- ast.arguments object at 0x78122e2b9a90&#45;&gt;ast.arg object at 0x78122e2b99d0 -->
<g id="edge30" class="edge">
<title>ast.arguments object at 0x78122e2b9a90&#45;&gt;ast.arg object at 0x78122e2b99d0</title>
<path fill="none" stroke="black" d="M1489.48,-287.7C1489.48,-279.98 1489.48,-270.71 1489.48,-262.11"/>
<polygon fill="black" stroke="black" points="1492.98,-262.1 1489.48,-252.1 1485.98,-262.1 1492.98,-262.1"/>
</g>
<!-- ast.arg object at 0x78122e2b9910 -->
<g id="node25" class="node">
<title>ast.arg object at 0x78122e2b9910</title>
<path fill="#66cdaa" stroke="black" d="M1576.48,-252C1576.48,-252 1546.48,-252 1546.48,-252 1540.48,-252 1534.48,-246 1534.48,-240 1534.48,-240 1534.48,-228 1534.48,-228 1534.48,-222 1540.48,-216 1546.48,-216 1546.48,-216 1576.48,-216 1576.48,-216 1582.48,-216 1588.48,-222 1588.48,-228 1588.48,-228 1588.48,-240 1588.48,-240 1588.48,-246 1582.48,-252 1576.48,-252"/>
<text text-anchor="middle" x="1561.48" y="-230.3" font-family="Times,serif" font-size="14.00">arg</text>
</g>
<!-- ast.arguments object at 0x78122e2b9a90&#45;&gt;ast.arg object at 0x78122e2b9910 -->
<g id="edge31" class="edge">
<title>ast.arguments object at 0x78122e2b9a90&#45;&gt;ast.arg object at 0x78122e2b9910</title>
<path fill="none" stroke="black" d="M1507.28,-287.7C1516.08,-279.14 1526.86,-268.66 1536.48,-259.3"/>
<polygon fill="black" stroke="black" points="1539.16,-261.58 1543.89,-252.1 1534.28,-256.57 1539.16,-261.58"/>
</g>
<!-- ast.Compare object at 0x78122e2b9990 -->
<g id="node27" class="node">
<title>ast.Compare object at 0x78122e2b9990</title>
<path fill="#66cdaa" stroke="black" d="M1311.98,-180C1311.98,-180 1268.98,-180 1268.98,-180 1262.98,-180 1256.98,-174 1256.98,-168 1256.98,-168 1256.98,-156 1256.98,-156 1256.98,-150 1262.98,-144 1268.98,-144 1268.98,-144 1311.98,-144 1311.98,-144 1317.98,-144 1323.98,-150 1323.98,-156 1323.98,-156 1323.98,-168 1323.98,-168 1323.98,-174 1317.98,-180 1311.98,-180"/>
<text text-anchor="middle" x="1290.48" y="-158.3" font-family="Times,serif" font-size="14.00">Compare</text>
</g>
<!-- ast.If object at 0x78122e2ba210&#45;&gt;ast.Compare object at 0x78122e2b9990 -->
<g id="edge33" class="edge">
<title>ast.If object at 0x78122e2ba210&#45;&gt;ast.Compare object at 0x78122e2b9990</title>
<path fill="none" stroke="black" d="M1290.48,-215.7C1290.48,-207.98 1290.48,-198.71 1290.48,-190.11"/>
<polygon fill="black" stroke="black" points="1293.98,-190.1 1290.48,-180.1 1286.98,-190.1 1293.98,-190.1"/>
</g>
<!-- ast.Return object at 0x78122e2b9b50 -->
<g id="node31" class="node">
<title>ast.Return object at 0x78122e2b9b50</title>
<path fill="#66cdaa" stroke="black" d="M1188.48,-180C1188.48,-180 1158.48,-180 1158.48,-180 1152.48,-180 1146.48,-174 1146.48,-168 1146.48,-168 1146.48,-156 1146.48,-156 1146.48,-150 1152.48,-144 1158.48,-144 1158.48,-144 1188.48,-144 1188.48,-144 1194.48,-144 1200.48,-150 1200.48,-156 1200.48,-156 1200.48,-168 1200.48,-168 1200.48,-174 1194.48,-180 1188.48,-180"/>
<text text-anchor="middle" x="1173.48" y="-158.3" font-family="Times,serif" font-size="14.00">Return</text>
</g>
<!-- ast.If object at 0x78122e2ba210&#45;&gt;ast.Return object at 0x78122e2b9b50 -->
<g id="edge38" class="edge">
<title>ast.If object at 0x78122e2ba210&#45;&gt;ast.Return object at 0x78122e2b9b50</title>
<path fill="none" stroke="black" d="M1263.34,-216.76C1247.36,-207.2 1226.95,-194.99 1209.62,-184.62"/>
<polygon fill="black" stroke="black" points="1211.25,-181.52 1200.87,-179.39 1207.66,-187.53 1211.25,-181.52"/>
</g>
<!-- ast.Name object at 0x78122e2b9890 -->
<g id="node28" class="node">
<title>ast.Name object at 0x78122e2b9890</title>
<path fill="#66cdaa" stroke="black" d="M1305.48,-108C1305.48,-108 1275.48,-108 1275.48,-108 1269.48,-108 1263.48,-102 1263.48,-96 1263.48,-96 1263.48,-84 1263.48,-84 1263.48,-78 1269.48,-72 1275.48,-72 1275.48,-72 1305.48,-72 1305.48,-72 1311.48,-72 1317.48,-78 1317.48,-84 1317.48,-84 1317.48,-96 1317.48,-96 1317.48,-102 1311.48,-108 1305.48,-108"/>
<text text-anchor="middle" x="1290.48" y="-86.3" font-family="Times,serif" font-size="14.00">Name</text>
</g>
<!-- ast.Compare object at 0x78122e2b9990&#45;&gt;ast.Name object at 0x78122e2b9890 -->
<g id="edge34" class="edge">
<title>ast.Compare object at 0x78122e2b9990&#45;&gt;ast.Name object at 0x78122e2b9890</title>
<path fill="none" stroke="black" d="M1290.48,-143.7C1290.48,-135.98 1290.48,-126.71 1290.48,-118.11"/>
<polygon fill="black" stroke="black" points="1293.98,-118.1 1290.48,-108.1 1286.98,-118.1 1293.98,-118.1"/>
</g>
<!-- ast.Eq object at 0x781316448ad0 -->
<g id="node29" class="node">
<title>ast.Eq object at 0x781316448ad0</title>
<path fill="#66cdaa" stroke="black" d="M1377.48,-108C1377.48,-108 1347.48,-108 1347.48,-108 1341.48,-108 1335.48,-102 1335.48,-96 1335.48,-96 1335.48,-84 1335.48,-84 1335.48,-78 1341.48,-72 1347.48,-72 1347.48,-72 1377.48,-72 1377.48,-72 1383.48,-72 1389.48,-78 1389.48,-84 1389.48,-84 1389.48,-96 1389.48,-96 1389.48,-102 1383.48,-108 1377.48,-108"/>
<text text-anchor="middle" x="1362.48" y="-86.3" font-family="Times,serif" font-size="14.00">Eq</text>
</g>
<!-- ast.Compare object at 0x78122e2b9990&#45;&gt;ast.Eq object at 0x781316448ad0 -->
<g id="edge36" class="edge">
<title>ast.Compare object at 0x78122e2b9990&#45;&gt;ast.Eq object at 0x781316448ad0</title>
<path fill="none" stroke="black" d="M1308.28,-143.7C1317.08,-135.14 1327.86,-124.66 1337.48,-115.3"/>
<polygon fill="black" stroke="black" points="1340.16,-117.58 1344.89,-108.1 1335.28,-112.57 1340.16,-117.58"/>
</g>
<!-- ast.Constant object at 0x78122e2b9810 -->
<g id="node30" class="node">
<title>ast.Constant object at 0x78122e2b9810</title>
<path fill="#66cdaa" stroke="black" d="M1232.98,-108C1232.98,-108 1191.98,-108 1191.98,-108 1185.98,-108 1179.98,-102 1179.98,-96 1179.98,-96 1179.98,-84 1179.98,-84 1179.98,-78 1185.98,-72 1191.98,-72 1191.98,-72 1232.98,-72 1232.98,-72 1238.98,-72 1244.98,-78 1244.98,-84 1244.98,-84 1244.98,-96 1244.98,-96 1244.98,-102 1238.98,-108 1232.98,-108"/>
<text text-anchor="middle" x="1212.48" y="-86.3" font-family="Times,serif" font-size="14.00">Constant</text>
</g>
<!-- ast.Compare object at 0x78122e2b9990&#45;&gt;ast.Constant object at 0x78122e2b9810 -->
<g id="edge37" class="edge">
<title>ast.Compare object at 0x78122e2b9990&#45;&gt;ast.Constant object at 0x78122e2b9810</title>
<path fill="none" stroke="black" d="M1271.2,-143.7C1261.56,-135.05 1249.75,-124.45 1239.25,-115.03"/>
<polygon fill="black" stroke="black" points="1241.32,-112.18 1231.54,-108.1 1236.64,-117.39 1241.32,-112.18"/>
</g>
<!-- ast.Name object at 0x78122e2b9890&#45;&gt;ast.Load object at 0x78131643ba90 -->
<g id="edge35" class="edge">
<title>ast.Name object at 0x78122e2b9890&#45;&gt;ast.Load object at 0x78131643ba90</title>
<path fill="none" stroke="black" d="M1263.31,-75.09C1260.38,-73.92 1257.4,-72.86 1254.48,-72 1121.86,-33.12 956.65,-22.74 883.86,-19.98"/>
<polygon fill="black" stroke="black" points="883.93,-16.48 873.81,-19.63 883.68,-23.48 883.93,-16.48"/>
</g>
<!-- ast.Name object at 0x78122e2ba0d0 -->
<g id="node32" class="node">
<title>ast.Name object at 0x78122e2ba0d0</title>
<path fill="#66cdaa" stroke="black" d="M1149.48,-108C1149.48,-108 1119.48,-108 1119.48,-108 1113.48,-108 1107.48,-102 1107.48,-96 1107.48,-96 1107.48,-84 1107.48,-84 1107.48,-78 1113.48,-72 1119.48,-72 1119.48,-72 1149.48,-72 1149.48,-72 1155.48,-72 1161.48,-78 1161.48,-84 1161.48,-84 1161.48,-96 1161.48,-96 1161.48,-102 1155.48,-108 1149.48,-108"/>
<text text-anchor="middle" x="1134.48" y="-86.3" font-family="Times,serif" font-size="14.00">Name</text>
</g>
<!-- ast.Return object at 0x78122e2b9b50&#45;&gt;ast.Name object at 0x78122e2ba0d0 -->
<g id="edge39" class="edge">
<title>ast.Return object at 0x78122e2b9b50&#45;&gt;ast.Name object at 0x78122e2ba0d0</title>
<path fill="none" stroke="black" d="M1163.84,-143.7C1159.35,-135.64 1153.92,-125.89 1148.96,-116.98"/>
<polygon fill="black" stroke="black" points="1151.93,-115.14 1144.01,-108.1 1145.82,-118.54 1151.93,-115.14"/>
</g>
<!-- ast.Name object at 0x78122e2ba0d0&#45;&gt;ast.Load object at 0x78131643ba90 -->
<g id="edge40" class="edge">
<title>ast.Name object at 0x78122e2ba0d0&#45;&gt;ast.Load object at 0x78131643ba90</title>
<path fill="none" stroke="black" d="M1107.24,-75.33C1104.32,-74.11 1101.36,-72.97 1098.48,-72 1024.1,-47 933.26,-31.37 883.49,-24.01"/>
<polygon fill="black" stroke="black" points="883.91,-20.53 873.51,-22.56 882.91,-27.46 883.91,-20.53"/>
</g>
<!-- ast.Call object at 0x78122e2b9750 -->
<g id="node34" class="node">
<title>ast.Call object at 0x78122e2b9750</title>
<path fill="#66cdaa" stroke="black" d="M1432.48,-252C1432.48,-252 1402.48,-252 1402.48,-252 1396.48,-252 1390.48,-246 1390.48,-240 1390.48,-240 1390.48,-228 1390.48,-228 1390.48,-222 1396.48,-216 1402.48,-216 1402.48,-216 1432.48,-216 1432.48,-216 1438.48,-216 1444.48,-222 1444.48,-228 1444.48,-228 1444.48,-240 1444.48,-240 1444.48,-246 1438.48,-252 1432.48,-252"/>
<text text-anchor="middle" x="1417.48" y="-230.3" font-family="Times,serif" font-size="14.00">Call</text>
</g>
<!-- ast.Return object at 0x78122e2b9850&#45;&gt;ast.Call object at 0x78122e2b9750 -->
<g id="edge42" class="edge">
<title>ast.Return object at 0x78122e2b9850&#45;&gt;ast.Call object at 0x78122e2b9750</title>
<path fill="none" stroke="black" d="M1388.12,-287.7C1392.61,-279.64 1398.04,-269.89 1403,-260.98"/>
<polygon fill="black" stroke="black" points="1406.14,-262.54 1407.95,-252.1 1400.03,-259.14 1406.14,-262.54"/>
</g>
<!-- ast.Name object at 0x78122e2b9a50 -->
<g id="node35" class="node">
<title>ast.Name object at 0x78122e2b9a50</title>
<path fill="#66cdaa" stroke="black" d="M1644.48,-180C1644.48,-180 1614.48,-180 1614.48,-180 1608.48,-180 1602.48,-174 1602.48,-168 1602.48,-168 1602.48,-156 1602.48,-156 1602.48,-150 1608.48,-144 1614.48,-144 1614.48,-144 1644.48,-144 1644.48,-144 1650.48,-144 1656.48,-150 1656.48,-156 1656.48,-156 1656.48,-168 1656.48,-168 1656.48,-174 1650.48,-180 1644.48,-180"/>
<text text-anchor="middle" x="1629.48" y="-158.3" font-family="Times,serif" font-size="14.00">Name</text>
</g>
<!-- ast.Call object at 0x78122e2b9750&#45;&gt;ast.Name object at 0x78122e2b9a50 -->
<g id="edge43" class="edge">
<title>ast.Call object at 0x78122e2b9750&#45;&gt;ast.Name object at 0x78122e2b9a50</title>
<path fill="none" stroke="black" d="M1444.81,-219.58C1447.71,-218.31 1450.64,-217.09 1453.48,-216 1500.38,-197.98 1556.17,-182.08 1592.17,-172.5"/>
<polygon fill="black" stroke="black" points="1593.45,-175.79 1602.23,-169.86 1591.66,-169.02 1593.45,-175.79"/>
</g>
<!-- ast.Name object at 0x78122e2b97d0 -->
<g id="node36" class="node">
<title>ast.Name object at 0x78122e2b97d0</title>
<path fill="#66cdaa" stroke="black" d="M1432.48,-180C1432.48,-180 1402.48,-180 1402.48,-180 1396.48,-180 1390.48,-174 1390.48,-168 1390.48,-168 1390.48,-156 1390.48,-156 1390.48,-150 1396.48,-144 1402.48,-144 1402.48,-144 1432.48,-144 1432.48,-144 1438.48,-144 1444.48,-150 1444.48,-156 1444.48,-156 1444.48,-168 1444.48,-168 1444.48,-174 1438.48,-180 1432.48,-180"/>
<text text-anchor="middle" x="1417.48" y="-158.3" font-family="Times,serif" font-size="14.00">Name</text>
</g>
<!-- ast.Call object at 0x78122e2b9750&#45;&gt;ast.Name object at 0x78122e2b97d0 -->
<g id="edge45" class="edge">
<title>ast.Call object at 0x78122e2b9750&#45;&gt;ast.Name object at 0x78122e2b97d0</title>
<path fill="none" stroke="black" d="M1417.48,-215.7C1417.48,-207.98 1417.48,-198.71 1417.48,-190.11"/>
<polygon fill="black" stroke="black" points="1420.98,-190.1 1417.48,-180.1 1413.98,-190.1 1420.98,-190.1"/>
</g>
<!-- ast.BinOp object at 0x78122e2b96d0 -->
<g id="node37" class="node">
<title>ast.BinOp object at 0x78122e2b96d0</title>
<path fill="#66cdaa" stroke="black" d="M1531.48,-180C1531.48,-180 1501.48,-180 1501.48,-180 1495.48,-180 1489.48,-174 1489.48,-168 1489.48,-168 1489.48,-156 1489.48,-156 1489.48,-150 1495.48,-144 1501.48,-144 1501.48,-144 1531.48,-144 1531.48,-144 1537.48,-144 1543.48,-150 1543.48,-156 1543.48,-156 1543.48,-168 1543.48,-168 1543.48,-174 1537.48,-180 1531.48,-180"/>
<text text-anchor="middle" x="1516.48" y="-158.3" font-family="Times,serif" font-size="14.00">BinOp</text>
</g>
<!-- ast.Call object at 0x78122e2b9750&#45;&gt;ast.BinOp object at 0x78122e2b96d0 -->
<g id="edge47" class="edge">
<title>ast.Call object at 0x78122e2b9750&#45;&gt;ast.BinOp object at 0x78122e2b96d0</title>
<path fill="none" stroke="black" d="M1441.7,-215.88C1454.4,-206.89 1470.14,-195.76 1483.9,-186.03"/>
<polygon fill="black" stroke="black" points="1486.02,-188.82 1492.17,-180.19 1481.98,-183.11 1486.02,-188.82"/>
</g>
<!-- ast.Name object at 0x78122e2b9a50&#45;&gt;ast.Load object at 0x78131643ba90 -->
<g id="edge44" class="edge">
<title>ast.Name object at 0x78122e2b9a50&#45;&gt;ast.Load object at 0x78131643ba90</title>
<path fill="none" stroke="black" d="M1642.03,-143.97C1654.99,-124.17 1670.92,-91.69 1652.48,-72 1599.42,-15.33 1035.11,-17.04 883.69,-18.54"/>
<polygon fill="black" stroke="black" points="883.48,-15.04 873.51,-18.65 883.55,-22.04 883.48,-15.04"/>
</g>
<!-- ast.Name object at 0x78122e2b97d0&#45;&gt;ast.Load object at 0x78131643ba90 -->
<g id="edge46" class="edge">
<title>ast.Name object at 0x78122e2b97d0&#45;&gt;ast.Load object at 0x78131643ba90</title>
<path fill="none" stroke="black" d="M1419.28,-143.67C1420.33,-123.26 1418.53,-89.87 1398.48,-72 1360.15,-37.83 1002.35,-23.8 884.16,-20.08"/>
<polygon fill="black" stroke="black" points="883.92,-16.57 873.81,-19.76 883.7,-23.57 883.92,-16.57"/>
</g>
<!-- ast.Name object at 0x78122e2b9690 -->
<g id="node38" class="node">
<title>ast.Name object at 0x78122e2b9690</title>
<path fill="#66cdaa" stroke="black" d="M1631.48,-108C1631.48,-108 1601.48,-108 1601.48,-108 1595.48,-108 1589.48,-102 1589.48,-96 1589.48,-96 1589.48,-84 1589.48,-84 1589.48,-78 1595.48,-72 1601.48,-72 1601.48,-72 1631.48,-72 1631.48,-72 1637.48,-72 1643.48,-78 1643.48,-84 1643.48,-84 1643.48,-96 1643.48,-96 1643.48,-102 1637.48,-108 1631.48,-108"/>
<text text-anchor="middle" x="1616.48" y="-86.3" font-family="Times,serif" font-size="14.00">Name</text>
</g>
<!-- ast.BinOp object at 0x78122e2b96d0&#45;&gt;ast.Name object at 0x78122e2b9690 -->
<g id="edge48" class="edge">
<title>ast.BinOp object at 0x78122e2b96d0&#45;&gt;ast.Name object at 0x78122e2b9690</title>
<path fill="none" stroke="black" d="M1540.94,-143.88C1553.78,-134.89 1569.68,-123.76 1583.57,-114.03"/>
<polygon fill="black" stroke="black" points="1585.74,-116.79 1591.92,-108.19 1581.72,-111.06 1585.74,-116.79"/>
</g>
<!-- ast.Mod object at 0x781316448250 -->
<g id="node39" class="node">
<title>ast.Mod object at 0x781316448250</title>
<path fill="#66cdaa" stroke="black" d="M1559.48,-108C1559.48,-108 1529.48,-108 1529.48,-108 1523.48,-108 1517.48,-102 1517.48,-96 1517.48,-96 1517.48,-84 1517.48,-84 1517.48,-78 1523.48,-72 1529.48,-72 1529.48,-72 1559.48,-72 1559.48,-72 1565.48,-72 1571.48,-78 1571.48,-84 1571.48,-84 1571.48,-96 1571.48,-96 1571.48,-102 1565.48,-108 1559.48,-108"/>
<text text-anchor="middle" x="1544.48" y="-86.3" font-family="Times,serif" font-size="14.00">Mod</text>
</g>
<!-- ast.BinOp object at 0x78122e2b96d0&#45;&gt;ast.Mod object at 0x781316448250 -->
<g id="edge50" class="edge">
<title>ast.BinOp object at 0x78122e2b96d0&#45;&gt;ast.Mod object at 0x781316448250</title>
<path fill="none" stroke="black" d="M1523.4,-143.7C1526.55,-135.81 1530.36,-126.3 1533.86,-117.55"/>
<polygon fill="black" stroke="black" points="1537.17,-118.69 1537.64,-108.1 1530.67,-116.09 1537.17,-118.69"/>
</g>
<!-- ast.Name object at 0x78122e2b9950 -->
<g id="node40" class="node">
<title>ast.Name object at 0x78122e2b9950</title>
<path fill="#66cdaa" stroke="black" d="M1487.48,-108C1487.48,-108 1457.48,-108 1457.48,-108 1451.48,-108 1445.48,-102 1445.48,-96 1445.48,-96 1445.48,-84 1445.48,-84 1445.48,-78 1451.48,-72 1457.48,-72 1457.48,-72 1487.48,-72 1487.48,-72 1493.48,-72 1499.48,-78 1499.48,-84 1499.48,-84 1499.48,-96 1499.48,-96 1499.48,-102 1493.48,-108 1487.48,-108"/>
<text text-anchor="middle" x="1472.48" y="-86.3" font-family="Times,serif" font-size="14.00">Name</text>
</g>
<!-- ast.BinOp object at 0x78122e2b96d0&#45;&gt;ast.Name object at 0x78122e2b9950 -->
<g id="edge51" class="edge">
<title>ast.BinOp object at 0x78122e2b96d0&#45;&gt;ast.Name object at 0x78122e2b9950</title>
<path fill="none" stroke="black" d="M1505.6,-143.7C1500.49,-135.56 1494.28,-125.69 1488.64,-116.7"/>
<polygon fill="black" stroke="black" points="1491.52,-114.71 1483.23,-108.1 1485.59,-118.43 1491.52,-114.71"/>
</g>
<!-- ast.Name object at 0x78122e2b9690&#45;&gt;ast.Load object at 0x78131643ba90 -->
<g id="edge49" class="edge">
<title>ast.Name object at 0x78122e2b9690&#45;&gt;ast.Load object at 0x78131643ba90</title>
<path fill="none" stroke="black" d="M1589.36,-74.92C1586.42,-73.78 1583.42,-72.77 1580.48,-72 1446.76,-36.91 1014.57,-23.27 884.11,-19.89"/>
<polygon fill="black" stroke="black" points="883.92,-16.39 873.84,-19.63 883.74,-23.38 883.92,-16.39"/>
</g>
<!-- ast.Name object at 0x78122e2b9950&#45;&gt;ast.Load object at 0x78131643ba90 -->
<g id="edge52" class="edge">
<title>ast.Name object at 0x78122e2b9950&#45;&gt;ast.Load object at 0x78131643ba90</title>
<path fill="none" stroke="black" d="M1445.08,-76.31C1440.61,-74.63 1435.97,-73.11 1431.48,-72 1229.12,-22.11 977.02,-18.1 883.57,-18.51"/>
<polygon fill="black" stroke="black" points="883.46,-15.01 873.48,-18.58 883.51,-22.01 883.46,-15.01"/>
</g>
<!-- ast.Name object at 0x78122e2b95d0 -->
<g id="node42" class="node">
<title>ast.Name object at 0x78122e2b95d0</title>
<path fill="#66cdaa" stroke="black" d="M623.48,-180C623.48,-180 593.48,-180 593.48,-180 587.48,-180 581.48,-174 581.48,-168 581.48,-168 581.48,-156 581.48,-156 581.48,-150 587.48,-144 593.48,-144 593.48,-144 623.48,-144 623.48,-144 629.48,-144 635.48,-150 635.48,-156 635.48,-156 635.48,-168 635.48,-168 635.48,-174 629.48,-180 623.48,-180"/>
<text text-anchor="middle" x="608.48" y="-158.3" font-family="Times,serif" font-size="14.00">Name</text>
</g>
<!-- ast.Assign object at 0x78122e2b86d0&#45;&gt;ast.Name object at 0x78122e2b95d0 -->
<g id="edge54" class="edge">
<title>ast.Assign object at 0x78122e2b86d0&#45;&gt;ast.Name object at 0x78122e2b95d0</title>
<path fill="none" stroke="black" d="M608.48,-215.7C608.48,-207.98 608.48,-198.71 608.48,-190.11"/>
<polygon fill="black" stroke="black" points="611.98,-190.1 608.48,-180.1 604.98,-190.1 611.98,-190.1"/>
</g>
<!-- ast.Call object at 0x78122e2b9590 -->
<g id="node43" class="node">
<title>ast.Call object at 0x78122e2b9590</title>
<path fill="#66cdaa" stroke="black" d="M969.48,-180C969.48,-180 939.48,-180 939.48,-180 933.48,-180 927.48,-174 927.48,-168 927.48,-168 927.48,-156 927.48,-156 927.48,-150 933.48,-144 939.48,-144 939.48,-144 969.48,-144 969.48,-144 975.48,-144 981.48,-150 981.48,-156 981.48,-156 981.48,-168 981.48,-168 981.48,-174 975.48,-180 969.48,-180"/>
<text text-anchor="middle" x="954.48" y="-158.3" font-family="Times,serif" font-size="14.00">Call</text>
</g>
<!-- ast.Assign object at 0x78122e2b86d0&#45;&gt;ast.Call object at 0x78122e2b9590 -->
<g id="edge56" class="edge">
<title>ast.Assign object at 0x78122e2b86d0&#45;&gt;ast.Call object at 0x78122e2b9590</title>
<path fill="none" stroke="black" d="M635.63,-227.51C697.15,-215.06 847.26,-184.69 917.32,-170.52"/>
<polygon fill="black" stroke="black" points="918.35,-173.88 927.46,-168.47 916.96,-167.02 918.35,-173.88"/>
</g>
<!-- ast.Name object at 0x78122e2b95d0&#45;&gt;ast.Store object at 0x78131643bb10 -->
<g id="edge55" class="edge">
<title>ast.Name object at 0x78122e2b95d0&#45;&gt;ast.Store object at 0x78131643bb10</title>
<path fill="none" stroke="black" d="M581.46,-147.96C578.44,-146.59 575.41,-145.24 572.48,-144 530.92,-126.35 519.45,-124.65 477.48,-108 476.09,-107.45 474.68,-106.88 473.25,-106.31"/>
<polygon fill="black" stroke="black" points="474.36,-102.98 463.78,-102.46 471.72,-109.47 474.36,-102.98"/>
</g>
<!-- ast.Name object at 0x78122e2b9610 -->
<g id="node44" class="node">
<title>ast.Name object at 0x78122e2b9610</title>
<path fill="#66cdaa" stroke="black" d="M1077.48,-108C1077.48,-108 1047.48,-108 1047.48,-108 1041.48,-108 1035.48,-102 1035.48,-96 1035.48,-96 1035.48,-84 1035.48,-84 1035.48,-78 1041.48,-72 1047.48,-72 1047.48,-72 1077.48,-72 1077.48,-72 1083.48,-72 1089.48,-78 1089.48,-84 1089.48,-84 1089.48,-96 1089.48,-96 1089.48,-102 1083.48,-108 1077.48,-108"/>
<text text-anchor="middle" x="1062.48" y="-86.3" font-family="Times,serif" font-size="14.00">Name</text>
</g>
<!-- ast.Call object at 0x78122e2b9590&#45;&gt;ast.Name object at 0x78122e2b9610 -->
<g id="edge57" class="edge">
<title>ast.Call object at 0x78122e2b9590&#45;&gt;ast.Name object at 0x78122e2b9610</title>
<path fill="none" stroke="black" d="M980.9,-143.88C994.89,-134.81 1012.26,-123.55 1027.37,-113.76"/>
<polygon fill="black" stroke="black" points="1029.47,-116.57 1035.96,-108.19 1025.66,-110.69 1029.47,-116.57"/>
</g>
<!-- ast.Name object at 0x78122e2b9550 -->
<g id="node45" class="node">
<title>ast.Name object at 0x78122e2b9550</title>
<path fill="#66cdaa" stroke="black" d="M933.48,-108C933.48,-108 903.48,-108 903.48,-108 897.48,-108 891.48,-102 891.48,-96 891.48,-96 891.48,-84 891.48,-84 891.48,-78 897.48,-72 903.48,-72 903.48,-72 933.48,-72 933.48,-72 939.48,-72 945.48,-78 945.48,-84 945.48,-84 945.48,-96 945.48,-96 945.48,-102 939.48,-108 933.48,-108"/>
<text text-anchor="middle" x="918.48" y="-86.3" font-family="Times,serif" font-size="14.00">Name</text>
</g>
<!-- ast.Call object at 0x78122e2b9590&#45;&gt;ast.Name object at 0x78122e2b9550 -->
<g id="edge59" class="edge">
<title>ast.Call object at 0x78122e2b9590&#45;&gt;ast.Name object at 0x78122e2b9550</title>
<path fill="none" stroke="black" d="M945.58,-143.7C941.48,-135.73 936.53,-126.1 931.99,-117.26"/>
<polygon fill="black" stroke="black" points="934.96,-115.4 927.28,-108.1 928.74,-118.6 934.96,-115.4"/>
</g>
<!-- ast.Name object at 0x78122e2b94d0 -->
<g id="node46" class="node">
<title>ast.Name object at 0x78122e2b94d0</title>
<path fill="#66cdaa" stroke="black" d="M1005.48,-108C1005.48,-108 975.48,-108 975.48,-108 969.48,-108 963.48,-102 963.48,-96 963.48,-96 963.48,-84 963.48,-84 963.48,-78 969.48,-72 975.48,-72 975.48,-72 1005.48,-72 1005.48,-72 1011.48,-72 1017.48,-78 1017.48,-84 1017.48,-84 1017.48,-96 1017.48,-96 1017.48,-102 1011.48,-108 1005.48,-108"/>
<text text-anchor="middle" x="990.48" y="-86.3" font-family="Times,serif" font-size="14.00">Name</text>
</g>
<!-- ast.Call object at 0x78122e2b9590&#45;&gt;ast.Name object at 0x78122e2b94d0 -->
<g id="edge61" class="edge">
<title>ast.Call object at 0x78122e2b9590&#45;&gt;ast.Name object at 0x78122e2b94d0</title>
<path fill="none" stroke="black" d="M963.38,-143.7C967.48,-135.73 972.43,-126.1 976.97,-117.26"/>
<polygon fill="black" stroke="black" points="980.22,-118.6 981.68,-108.1 974,-115.4 980.22,-118.6"/>
</g>
<!-- ast.Name object at 0x78122e2b9610&#45;&gt;ast.Load object at 0x78131643ba90 -->
<g id="edge58" class="edge">
<title>ast.Name object at 0x78122e2b9610&#45;&gt;ast.Load object at 0x78131643ba90</title>
<path fill="none" stroke="black" d="M1035.15,-75.56C1032.25,-74.29 1029.32,-73.08 1026.48,-72 978.06,-53.57 920.33,-37.58 883.54,-28.12"/>
<polygon fill="black" stroke="black" points="884.3,-24.7 873.75,-25.62 882.58,-31.48 884.3,-24.7"/>
</g>
<!-- ast.Name object at 0x78122e2b9550&#45;&gt;ast.Load object at 0x78131643ba90 -->
<g id="edge60" class="edge">
<title>ast.Name object at 0x78122e2b9550&#45;&gt;ast.Load object at 0x78131643ba90</title>
<path fill="none" stroke="black" d="M900.68,-71.7C891.88,-63.14 881.1,-52.66 871.48,-43.3"/>
<polygon fill="black" stroke="black" points="873.68,-40.57 864.07,-36.1 868.8,-45.58 873.68,-40.57"/>
</g>
<!-- ast.Name object at 0x78122e2b94d0&#45;&gt;ast.Load object at 0x78131643ba90 -->
<g id="edge62" class="edge">
<title>ast.Name object at 0x78122e2b94d0&#45;&gt;ast.Load object at 0x78131643ba90</title>
<path fill="none" stroke="black" d="M963.39,-75.83C940.71,-64.81 908.12,-48.97 883.11,-36.81"/>
<polygon fill="black" stroke="black" points="884.46,-33.57 873.93,-32.35 881.4,-39.87 884.46,-33.57"/>
</g>
<!-- ast.Name object at 0x78122e2b9410 -->
<g id="node48" class="node">
<title>ast.Name object at 0x78122e2b9410</title>
<path fill="#66cdaa" stroke="black" d="M551.48,-180C551.48,-180 521.48,-180 521.48,-180 515.48,-180 509.48,-174 509.48,-168 509.48,-168 509.48,-156 509.48,-156 509.48,-150 515.48,-144 521.48,-144 521.48,-144 551.48,-144 551.48,-144 557.48,-144 563.48,-150 563.48,-156 563.48,-156 563.48,-168 563.48,-168 563.48,-174 557.48,-180 551.48,-180"/>
<text text-anchor="middle" x="536.48" y="-158.3" font-family="Times,serif" font-size="14.00">Name</text>
</g>
<!-- ast.Assign object at 0x78122e2b9790&#45;&gt;ast.Name object at 0x78122e2b9410 -->
<g id="edge64" class="edge">
<title>ast.Assign object at 0x78122e2b9790&#45;&gt;ast.Name object at 0x78122e2b9410</title>
<path fill="none" stroke="black" d="M536.48,-215.7C536.48,-207.98 536.48,-198.71 536.48,-190.11"/>
<polygon fill="black" stroke="black" points="539.98,-190.1 536.48,-180.1 532.98,-190.1 539.98,-190.1"/>
</g>
<!-- ast.Call object at 0x78122e2b9450 -->
<g id="node49" class="node">
<title>ast.Call object at 0x78122e2b9450</title>
<path fill="#66cdaa" stroke="black" d="M781.48,-180C781.48,-180 751.48,-180 751.48,-180 745.48,-180 739.48,-174 739.48,-168 739.48,-168 739.48,-156 739.48,-156 739.48,-150 745.48,-144 751.48,-144 751.48,-144 781.48,-144 781.48,-144 787.48,-144 793.48,-150 793.48,-156 793.48,-156 793.48,-168 793.48,-168 793.48,-174 787.48,-180 781.48,-180"/>
<text text-anchor="middle" x="766.48" y="-158.3" font-family="Times,serif" font-size="14.00">Call</text>
</g>
<!-- ast.Assign object at 0x78122e2b9790&#45;&gt;ast.Call object at 0x78122e2b9450 -->
<g id="edge66" class="edge">
<title>ast.Assign object at 0x78122e2b9790&#45;&gt;ast.Call object at 0x78122e2b9450</title>
<path fill="none" stroke="black" d="M563.74,-219.38C566.66,-218.15 569.61,-216.99 572.48,-216 637.63,-193.5 660.44,-202.63 729.61,-179.89"/>
<polygon fill="black" stroke="black" points="730.88,-183.15 739.22,-176.62 728.62,-176.53 730.88,-183.15"/>
</g>
<!-- ast.Name object at 0x78122e2b9410&#45;&gt;ast.Store object at 0x78131643bb10 -->
<g id="edge65" class="edge">
<title>ast.Name object at 0x78122e2b9410&#45;&gt;ast.Store object at 0x78131643bb10</title>
<path fill="none" stroke="black" d="M512.02,-143.88C499.18,-134.89 483.28,-123.76 469.39,-114.03"/>
<polygon fill="black" stroke="black" points="471.24,-111.06 461.04,-108.19 467.22,-116.79 471.24,-111.06"/>
</g>
<!-- ast.Name object at 0x78122e2b8450 -->
<g id="node50" class="node">
<title>ast.Name object at 0x78122e2b8450</title>
<path fill="#66cdaa" stroke="black" d="M717.48,-108C717.48,-108 687.48,-108 687.48,-108 681.48,-108 675.48,-102 675.48,-96 675.48,-96 675.48,-84 675.48,-84 675.48,-78 681.48,-72 687.48,-72 687.48,-72 717.48,-72 717.48,-72 723.48,-72 729.48,-78 729.48,-84 729.48,-84 729.48,-96 729.48,-96 729.48,-102 723.48,-108 717.48,-108"/>
<text text-anchor="middle" x="702.48" y="-86.3" font-family="Times,serif" font-size="14.00">Name</text>
</g>
<!-- ast.Call object at 0x78122e2b9450&#45;&gt;ast.Name object at 0x78122e2b8450 -->
<g id="edge67" class="edge">
<title>ast.Call object at 0x78122e2b9450&#45;&gt;ast.Name object at 0x78122e2b8450</title>
<path fill="none" stroke="black" d="M750.66,-143.7C742.91,-135.22 733.44,-124.86 724.96,-115.58"/>
<polygon fill="black" stroke="black" points="727.45,-113.12 718.12,-108.1 722.28,-117.85 727.45,-113.12"/>
</g>
<!-- ast.Name object at 0x78122e2b8d50 -->
<g id="node51" class="node">
<title>ast.Name object at 0x78122e2b8d50</title>
<path fill="#66cdaa" stroke="black" d="M789.48,-108C789.48,-108 759.48,-108 759.48,-108 753.48,-108 747.48,-102 747.48,-96 747.48,-96 747.48,-84 747.48,-84 747.48,-78 753.48,-72 759.48,-72 759.48,-72 789.48,-72 789.48,-72 795.48,-72 801.48,-78 801.48,-84 801.48,-84 801.48,-96 801.48,-96 801.48,-102 795.48,-108 789.48,-108"/>
<text text-anchor="middle" x="774.48" y="-86.3" font-family="Times,serif" font-size="14.00">Name</text>
</g>
<!-- ast.Call object at 0x78122e2b9450&#45;&gt;ast.Name object at 0x78122e2b8d50 -->
<g id="edge69" class="edge">
<title>ast.Call object at 0x78122e2b9450&#45;&gt;ast.Name object at 0x78122e2b8d50</title>
<path fill="none" stroke="black" d="M768.46,-143.7C769.34,-135.98 770.4,-126.71 771.38,-118.11"/>
<polygon fill="black" stroke="black" points="774.87,-118.44 772.53,-108.1 767.91,-117.64 774.87,-118.44"/>
</g>
<!-- ast.Name object at 0x78122e2b93d0 -->
<g id="node52" class="node">
<title>ast.Name object at 0x78122e2b93d0</title>
<path fill="#66cdaa" stroke="black" d="M861.48,-108C861.48,-108 831.48,-108 831.48,-108 825.48,-108 819.48,-102 819.48,-96 819.48,-96 819.48,-84 819.48,-84 819.48,-78 825.48,-72 831.48,-72 831.48,-72 861.48,-72 861.48,-72 867.48,-72 873.48,-78 873.48,-84 873.48,-84 873.48,-96 873.48,-96 873.48,-102 867.48,-108 861.48,-108"/>
<text text-anchor="middle" x="846.48" y="-86.3" font-family="Times,serif" font-size="14.00">Name</text>
</g>
<!-- ast.Call object at 0x78122e2b9450&#45;&gt;ast.Name object at 0x78122e2b93d0 -->
<g id="edge71" class="edge">
<title>ast.Call object at 0x78122e2b9450&#45;&gt;ast.Name object at 0x78122e2b93d0</title>
<path fill="none" stroke="black" d="M786.26,-143.7C796.23,-134.97 808.49,-124.24 819.34,-114.75"/>
<polygon fill="black" stroke="black" points="821.71,-117.32 826.93,-108.1 817.1,-112.06 821.71,-117.32"/>
</g>
<!-- ast.Name object at 0x78122e2b8450&#45;&gt;ast.Load object at 0x78131643ba90 -->
<g id="edge68" class="edge">
<title>ast.Name object at 0x78122e2b8450&#45;&gt;ast.Load object at 0x78131643ba90</title>
<path fill="none" stroke="black" d="M729.57,-75.83C752.25,-64.81 784.84,-48.97 809.85,-36.81"/>
<polygon fill="black" stroke="black" points="811.56,-39.87 819.03,-32.35 808.5,-33.57 811.56,-39.87"/>
</g>
<!-- ast.Name object at 0x78122e2b8d50&#45;&gt;ast.Load object at 0x78131643ba90 -->
<g id="edge70" class="edge">
<title>ast.Name object at 0x78122e2b8d50&#45;&gt;ast.Load object at 0x78131643ba90</title>
<path fill="none" stroke="black" d="M792.28,-71.7C801.08,-63.14 811.86,-52.66 821.48,-43.3"/>
<polygon fill="black" stroke="black" points="824.16,-45.58 828.89,-36.1 819.28,-40.57 824.16,-45.58"/>
</g>
<!-- ast.Name object at 0x78122e2b93d0&#45;&gt;ast.Load object at 0x78131643ba90 -->
<g id="edge72" class="edge">
<title>ast.Name object at 0x78122e2b93d0&#45;&gt;ast.Load object at 0x78131643ba90</title>
<path fill="none" stroke="black" d="M846.48,-71.7C846.48,-63.98 846.48,-54.71 846.48,-46.11"/>
<polygon fill="black" stroke="black" points="849.98,-46.1 846.48,-36.1 842.98,-46.1 849.98,-46.1"/>
</g>
<!-- ast.Name object at 0x78122e2b8b50 -->
<g id="node54" class="node">
<title>ast.Name object at 0x78122e2b8b50</title>
<path fill="#66cdaa" stroke="black" d="M343.48,-324C343.48,-324 313.48,-324 313.48,-324 307.48,-324 301.48,-318 301.48,-312 301.48,-312 301.48,-300 301.48,-300 301.48,-294 307.48,-288 313.48,-288 313.48,-288 343.48,-288 343.48,-288 349.48,-288 355.48,-294 355.48,-300 355.48,-300 355.48,-312 355.48,-312 355.48,-318 349.48,-324 343.48,-324"/>
<text text-anchor="middle" x="328.48" y="-302.3" font-family="Times,serif" font-size="14.00">Name</text>
</g>
<!-- ast.Return object at 0x78122e2b8a90&#45;&gt;ast.Name object at 0x78122e2b8b50 -->
<g id="edge74" class="edge">
<title>ast.Return object at 0x78122e2b8a90&#45;&gt;ast.Name object at 0x78122e2b8b50</title>
<path fill="none" stroke="black" d="M332.24,-359.7C331.69,-351.98 331.03,-342.71 330.42,-334.11"/>
<polygon fill="black" stroke="black" points="333.91,-333.83 329.7,-324.1 326.92,-334.33 333.91,-333.83"/>
</g>
<!-- ast.Name object at 0x78122e2b8b50&#45;&gt;ast.Load object at 0x78131643ba90 -->
<g id="edge75" class="edge">
<title>ast.Name object at 0x78122e2b8b50&#45;&gt;ast.Load object at 0x78131643ba90</title>
<path fill="none" stroke="black" d="M301.46,-292.64C257.24,-271.92 167.32,-227.72 97.48,-180 47.05,-145.54 -29.32,-116.54 12.48,-72 40.11,-42.56 650.45,-24.24 809.08,-19.97"/>
<polygon fill="black" stroke="black" points="809.38,-23.46 819.29,-19.69 809.2,-16.46 809.38,-23.46"/>
</g>
</g>
</svg>
