<?xml version="1.0" encoding="UTF-8" standalone="no"?>
<!DOCTYPE svg PUBLIC "-//W3C//DTD SVG 1.1//EN"
 "http://www.w3.org/Graphics/SVG/1.1/DTD/svg11.dtd">
<!-- Generated by graphviz version 2.50.0 (0)
 -->
<!-- Pages: 1 -->
<svg width="992pt" height="620pt"
 viewBox="0.00 0.00 992.00 620.00" xmlns="http://www.w3.org/2000/svg" xmlns:xlink="http://www.w3.org/1999/xlink">
<g id="graph0" class="graph" transform="scale(1 1) rotate(0) translate(4 616)">
<polygon fill="white" stroke="transparent" points="-4,4 -4,-616 988,-616 988,4 -4,4"/>
<!-- ast.Module object at 0x73d73ecd5dd0 -->
<g id="node1" class="node">
<title>ast.Module object at 0x73d73ecd5dd0</title>
<path fill="#66cdaa" stroke="black" d="M259,-612C259,-612 224,-612 224,-612 218,-612 212,-606 212,-600 212,-600 212,-588 212,-588 212,-582 218,-576 224,-576 224,-576 259,-576 259,-576 265,-576 271,-582 271,-588 271,-588 271,-600 271,-600 271,-606 265,-612 259,-612"/>
<text text-anchor="middle" x="241.5" y="-590.3" font-family="Times,serif" font-size="14.00">Module</text>
</g>
<!-- ast.FunctionDef object at 0x73d73ecd4210 -->
<g id="node2" class="node">
<title>ast.FunctionDef object at 0x73d73ecd4210</title>
<path fill="#66cdaa" stroke="black" d="M272,-540C272,-540 211,-540 211,-540 205,-540 199,-534 199,-528 199,-528 199,-516 199,-516 199,-510 205,-504 211,-504 211,-504 272,-504 272,-504 278,-504 284,-510 284,-516 284,-516 284,-528 284,-528 284,-534 278,-540 272,-540"/>
<text text-anchor="middle" x="241.5" y="-518.3" font-family="Times,serif" font-size="14.00">FunctionDef</text>
</g>
<!-- ast.Module object at 0x73d73ecd5dd0&#45;&gt;ast.FunctionDef object at 0x73d73ecd4210 -->
<g id="edge1" class="edge">
<title>ast.Module object at 0x73d73ecd5dd0&#45;&gt;ast.FunctionDef object at 0x73d73ecd4210</title>
<path fill="none" stroke="black" d="M241.5,-575.7C241.5,-567.98 241.5,-558.71 241.5,-550.11"/>
<polygon fill="black" stroke="black" points="245,-550.1 241.5,-540.1 238,-550.1 245,-550.1"/>
</g>
<!-- ast.arguments object at 0x73d73ecd4110 -->
<g id="node3" class="node">
<title>ast.arguments object at 0x73d73ecd4110</title>
<path fill="#66cdaa" stroke="black" d="M134.5,-468C134.5,-468 84.5,-468 84.5,-468 78.5,-468 72.5,-462 72.5,-456 72.5,-456 72.5,-444 72.5,-444 72.5,-438 78.5,-432 84.5,-432 84.5,-432 134.5,-432 134.5,-432 140.5,-432 146.5,-438 146.5,-444 146.5,-444 146.5,-456 146.5,-456 146.5,-462 140.5,-468 134.5,-468"/>
<text text-anchor="middle" x="109.5" y="-446.3" font-family="Times,serif" font-size="14.00">arguments</text>
</g>
<!-- ast.FunctionDef object at 0x73d73ecd4210&#45;&gt;ast.arguments object at 0x73d73ecd4110 -->
<g id="edge2" class="edge">
<title>ast.FunctionDef object at 0x73d73ecd4210&#45;&gt;ast.arguments object at 0x73d73ecd4110</title>
<path fill="none" stroke="black" d="M209.21,-503.88C191.63,-494.55 169.69,-482.92 150.87,-472.94"/>
<polygon fill="black" stroke="black" points="152.39,-469.78 141.91,-468.19 149.11,-475.97 152.39,-469.78"/>
</g>
<!-- ast.Assign object at 0x73d73ecd5e10 -->
<g id="node5" class="node">
<title>ast.Assign object at 0x73d73ecd5e10</title>
<path fill="#66cdaa" stroke="black" d="M220.5,-468C220.5,-468 190.5,-468 190.5,-468 184.5,-468 178.5,-462 178.5,-456 178.5,-456 178.5,-444 178.5,-444 178.5,-438 184.5,-432 190.5,-432 190.5,-432 220.5,-432 220.5,-432 226.5,-432 232.5,-438 232.5,-444 232.5,-444 232.5,-456 232.5,-456 232.5,-462 226.5,-468 220.5,-468"/>
<text text-anchor="middle" x="205.5" y="-446.3" font-family="Times,serif" font-size="14.00">Assign</text>
</g>
<!-- ast.FunctionDef object at 0x73d73ecd4210&#45;&gt;ast.Assign object at 0x73d73ecd5e10 -->
<g id="edge4" class="edge">
<title>ast.FunctionDef object at 0x73d73ecd4210&#45;&gt;ast.Assign object at 0x73d73ecd5e10</title>
<path fill="none" stroke="black" d="M232.6,-503.7C228.5,-495.73 223.55,-486.1 219.01,-477.26"/>
<polygon fill="black" stroke="black" points="221.98,-475.4 214.3,-468.1 215.76,-478.6 221.98,-475.4"/>
</g>
<!-- ast.Assign object at 0x73d73ecd7c50 -->
<g id="node14" class="node">
<title>ast.Assign object at 0x73d73ecd7c50</title>
<path fill="#66cdaa" stroke="black" d="M292.5,-468C292.5,-468 262.5,-468 262.5,-468 256.5,-468 250.5,-462 250.5,-456 250.5,-456 250.5,-444 250.5,-444 250.5,-438 256.5,-432 262.5,-432 262.5,-432 292.5,-432 292.5,-432 298.5,-432 304.5,-438 304.5,-444 304.5,-444 304.5,-456 304.5,-456 304.5,-462 298.5,-468 292.5,-468"/>
<text text-anchor="middle" x="277.5" y="-446.3" font-family="Times,serif" font-size="14.00">Assign</text>
</g>
<!-- ast.FunctionDef object at 0x73d73ecd4210&#45;&gt;ast.Assign object at 0x73d73ecd7c50 -->
<g id="edge14" class="edge">
<title>ast.FunctionDef object at 0x73d73ecd4210&#45;&gt;ast.Assign object at 0x73d73ecd7c50</title>
<path fill="none" stroke="black" d="M250.4,-503.7C254.5,-495.73 259.45,-486.1 263.99,-477.26"/>
<polygon fill="black" stroke="black" points="267.24,-478.6 268.7,-468.1 261.02,-475.4 267.24,-478.6"/>
</g>
<!-- ast.If object at 0x73d73eb23950 -->
<g id="node30" class="node">
<title>ast.If object at 0x73d73eb23950</title>
<path fill="#66cdaa" stroke="black" d="M771.5,-324C771.5,-324 741.5,-324 741.5,-324 735.5,-324 729.5,-318 729.5,-312 729.5,-312 729.5,-300 729.5,-300 729.5,-294 735.5,-288 741.5,-288 741.5,-288 771.5,-288 771.5,-288 777.5,-288 783.5,-294 783.5,-300 783.5,-300 783.5,-312 783.5,-312 783.5,-318 777.5,-324 771.5,-324"/>
<text text-anchor="middle" x="756.5" y="-302.3" font-family="Times,serif" font-size="14.00">If</text>
</g>
<!-- ast.FunctionDef object at 0x73d73ecd4210&#45;&gt;ast.If object at 0x73d73eb23950 -->
<g id="edge37" class="edge">
<title>ast.FunctionDef object at 0x73d73ecd4210&#45;&gt;ast.If object at 0x73d73eb23950</title>
<path fill="none" stroke="black" d="M282.77,-503.85C380.98,-463.04 627.26,-360.7 720.22,-322.08"/>
<polygon fill="black" stroke="black" points="721.61,-325.29 729.5,-318.22 718.92,-318.82 721.61,-325.29"/>
</g>
<!-- ast.arg object at 0x73d73ecd50d0 -->
<g id="node4" class="node">
<title>ast.arg object at 0x73d73ecd50d0</title>
<path fill="#66cdaa" stroke="black" d="M110.5,-396C110.5,-396 80.5,-396 80.5,-396 74.5,-396 68.5,-390 68.5,-384 68.5,-384 68.5,-372 68.5,-372 68.5,-366 74.5,-360 80.5,-360 80.5,-360 110.5,-360 110.5,-360 116.5,-360 122.5,-366 122.5,-372 122.5,-372 122.5,-384 122.5,-384 122.5,-390 116.5,-396 110.5,-396"/>
<text text-anchor="middle" x="95.5" y="-374.3" font-family="Times,serif" font-size="14.00">arg</text>
</g>
<!-- ast.arguments object at 0x73d73ecd4110&#45;&gt;ast.arg object at 0x73d73ecd50d0 -->
<g id="edge3" class="edge">
<title>ast.arguments object at 0x73d73ecd4110&#45;&gt;ast.arg object at 0x73d73ecd50d0</title>
<path fill="none" stroke="black" d="M106.04,-431.7C104.5,-423.98 102.64,-414.71 100.92,-406.11"/>
<polygon fill="black" stroke="black" points="104.31,-405.22 98.92,-396.1 97.45,-406.6 104.31,-405.22"/>
</g>
<!-- ast.Name object at 0x73d73ecd48d0 -->
<g id="node6" class="node">
<title>ast.Name object at 0x73d73ecd48d0</title>
<path fill="#66cdaa" stroke="black" d="M220.5,-396C220.5,-396 190.5,-396 190.5,-396 184.5,-396 178.5,-390 178.5,-384 178.5,-384 178.5,-372 178.5,-372 178.5,-366 184.5,-360 190.5,-360 190.5,-360 220.5,-360 220.5,-360 226.5,-360 232.5,-366 232.5,-372 232.5,-372 232.5,-384 232.5,-384 232.5,-390 226.5,-396 220.5,-396"/>
<text text-anchor="middle" x="205.5" y="-374.3" font-family="Times,serif" font-size="14.00">Name</text>
</g>
<!-- ast.Assign object at 0x73d73ecd5e10&#45;&gt;ast.Name object at 0x73d73ecd48d0 -->
<g id="edge5" class="edge">
<title>ast.Assign object at 0x73d73ecd5e10&#45;&gt;ast.Name object at 0x73d73ecd48d0</title>
<path fill="none" stroke="black" d="M205.5,-431.7C205.5,-423.98 205.5,-414.71 205.5,-406.11"/>
<polygon fill="black" stroke="black" points="209,-406.1 205.5,-396.1 202,-406.1 209,-406.1"/>
</g>
<!-- ast.Subscript object at 0x73d73ecd5ed0 -->
<g id="node8" class="node">
<title>ast.Subscript object at 0x73d73ecd5ed0</title>
<path fill="#66cdaa" stroke="black" d="M161.5,-180C161.5,-180 117.5,-180 117.5,-180 111.5,-180 105.5,-174 105.5,-168 105.5,-168 105.5,-156 105.5,-156 105.5,-150 111.5,-144 117.5,-144 117.5,-144 161.5,-144 161.5,-144 167.5,-144 173.5,-150 173.5,-156 173.5,-156 173.5,-168 173.5,-168 173.5,-174 167.5,-180 161.5,-180"/>
<text text-anchor="middle" x="139.5" y="-158.3" font-family="Times,serif" font-size="14.00">Subscript</text>
</g>
<!-- ast.Assign object at 0x73d73ecd5e10&#45;&gt;ast.Subscript object at 0x73d73ecd5ed0 -->
<g id="edge7" class="edge">
<title>ast.Assign object at 0x73d73ecd5e10&#45;&gt;ast.Subscript object at 0x73d73ecd5ed0</title>
<path fill="none" stroke="black" d="M190.56,-431.55C182.99,-421.74 174.39,-408.9 169.5,-396 142.65,-325.18 138.97,-234.51 138.97,-190.05"/>
<polygon fill="black" stroke="black" points="142.47,-190.05 139.04,-180.03 135.47,-190.01 142.47,-190.05"/>
</g>
<!-- ast.Store object at 0x73d867a3bb10 -->
<g id="node7" class="node">
<title>ast.Store object at 0x73d867a3bb10</title>
<path fill="#66cdaa" stroke="black" d="M225.5,-324C225.5,-324 195.5,-324 195.5,-324 189.5,-324 183.5,-318 183.5,-312 183.5,-312 183.5,-300 183.5,-300 183.5,-294 189.5,-288 195.5,-288 195.5,-288 225.5,-288 225.5,-288 231.5,-288 237.5,-294 237.5,-300 237.5,-300 237.5,-312 237.5,-312 237.5,-318 231.5,-324 225.5,-324"/>
<text text-anchor="middle" x="210.5" y="-302.3" font-family="Times,serif" font-size="14.00">Store</text>
</g>
<!-- ast.Name object at 0x73d73ecd48d0&#45;&gt;ast.Store object at 0x73d867a3bb10 -->
<g id="edge6" class="edge">
<title>ast.Name object at 0x73d73ecd48d0&#45;&gt;ast.Store object at 0x73d867a3bb10</title>
<path fill="none" stroke="black" d="M206.74,-359.7C207.29,-351.98 207.95,-342.71 208.56,-334.11"/>
<polygon fill="black" stroke="black" points="212.06,-334.33 209.28,-324.1 205.07,-333.83 212.06,-334.33"/>
</g>
<!-- ast.Name object at 0x73d73ecd4990 -->
<g id="node9" class="node">
<title>ast.Name object at 0x73d73ecd4990</title>
<path fill="#66cdaa" stroke="black" d="M198.5,-108C198.5,-108 168.5,-108 168.5,-108 162.5,-108 156.5,-102 156.5,-96 156.5,-96 156.5,-84 156.5,-84 156.5,-78 162.5,-72 168.5,-72 168.5,-72 198.5,-72 198.5,-72 204.5,-72 210.5,-78 210.5,-84 210.5,-84 210.5,-96 210.5,-96 210.5,-102 204.5,-108 198.5,-108"/>
<text text-anchor="middle" x="183.5" y="-86.3" font-family="Times,serif" font-size="14.00">Name</text>
</g>
<!-- ast.Subscript object at 0x73d73ecd5ed0&#45;&gt;ast.Name object at 0x73d73ecd4990 -->
<g id="edge8" class="edge">
<title>ast.Subscript object at 0x73d73ecd5ed0&#45;&gt;ast.Name object at 0x73d73ecd4990</title>
<path fill="none" stroke="black" d="M150.38,-143.7C155.49,-135.56 161.7,-125.69 167.34,-116.7"/>
<polygon fill="black" stroke="black" points="170.39,-118.43 172.75,-108.1 164.46,-114.71 170.39,-118.43"/>
</g>
<!-- ast.Load object at 0x73d867a3ba90 -->
<g id="node10" class="node">
<title>ast.Load object at 0x73d867a3ba90</title>
<path fill="#66cdaa" stroke="black" d="M498.5,-36C498.5,-36 468.5,-36 468.5,-36 462.5,-36 456.5,-30 456.5,-24 456.5,-24 456.5,-12 456.5,-12 456.5,-6 462.5,0 468.5,0 468.5,0 498.5,0 498.5,0 504.5,0 510.5,-6 510.5,-12 510.5,-12 510.5,-24 510.5,-24 510.5,-30 504.5,-36 498.5,-36"/>
<text text-anchor="middle" x="483.5" y="-14.3" font-family="Times,serif" font-size="14.00">Load</text>
</g>
<!-- ast.Subscript object at 0x73d73ecd5ed0&#45;&gt;ast.Load object at 0x73d867a3ba90 -->
<g id="edge13" class="edge">
<title>ast.Subscript object at 0x73d73ecd5ed0&#45;&gt;ast.Load object at 0x73d867a3ba90</title>
<path fill="none" stroke="black" d="M135.44,-143.78C131.84,-123.8 129.59,-91.15 147.5,-72 187.47,-29.26 366.92,-20.93 445.94,-19.35"/>
<polygon fill="black" stroke="black" points="446.46,-22.84 456.4,-19.17 446.34,-15.84 446.46,-22.84"/>
</g>
<!-- ast.Slice object at 0x73d73ecd5fd0 -->
<g id="node11" class="node">
<title>ast.Slice object at 0x73d73ecd5fd0</title>
<path fill="#66cdaa" stroke="black" d="M88.5,-108C88.5,-108 58.5,-108 58.5,-108 52.5,-108 46.5,-102 46.5,-96 46.5,-96 46.5,-84 46.5,-84 46.5,-78 52.5,-72 58.5,-72 58.5,-72 88.5,-72 88.5,-72 94.5,-72 100.5,-78 100.5,-84 100.5,-84 100.5,-96 100.5,-96 100.5,-102 94.5,-108 88.5,-108"/>
<text text-anchor="middle" x="73.5" y="-86.3" font-family="Times,serif" font-size="14.00">Slice</text>
</g>
<!-- ast.Subscript object at 0x73d73ecd5ed0&#45;&gt;ast.Slice object at 0x73d73ecd5fd0 -->
<g id="edge10" class="edge">
<title>ast.Subscript object at 0x73d73ecd5ed0&#45;&gt;ast.Slice object at 0x73d73ecd5fd0</title>
<path fill="none" stroke="black" d="M123.19,-143.7C115.19,-135.22 105.43,-124.86 96.68,-115.58"/>
<polygon fill="black" stroke="black" points="99.03,-112.98 89.63,-108.1 93.94,-117.78 99.03,-112.98"/>
</g>
<!-- ast.Name object at 0x73d73ecd4990&#45;&gt;ast.Load object at 0x73d867a3ba90 -->
<g id="edge9" class="edge">
<title>ast.Name object at 0x73d73ecd4990&#45;&gt;ast.Load object at 0x73d867a3ba90</title>
<path fill="none" stroke="black" d="M210.58,-76.92C215.17,-75.12 219.93,-73.4 224.5,-72 301.72,-48.33 395.17,-32.16 446.04,-24.36"/>
<polygon fill="black" stroke="black" points="446.86,-27.77 456.23,-22.82 445.82,-20.85 446.86,-27.77"/>
</g>
<!-- ast.Constant object at 0x73d73ecd61d0 -->
<g id="node12" class="node">
<title>ast.Constant object at 0x73d73ecd61d0</title>
<path fill="#66cdaa" stroke="black" d="M53,-36C53,-36 12,-36 12,-36 6,-36 0,-30 0,-24 0,-24 0,-12 0,-12 0,-6 6,0 12,0 12,0 53,0 53,0 59,0 65,-6 65,-12 65,-12 65,-24 65,-24 65,-30 59,-36 53,-36"/>
<text text-anchor="middle" x="32.5" y="-14.3" font-family="Times,serif" font-size="14.00">Constant</text>
</g>
<!-- ast.Slice object at 0x73d73ecd5fd0&#45;&gt;ast.Constant object at 0x73d73ecd61d0 -->
<g id="edge11" class="edge">
<title>ast.Slice object at 0x73d73ecd5fd0&#45;&gt;ast.Constant object at 0x73d73ecd61d0</title>
<path fill="none" stroke="black" d="M63.37,-71.7C58.65,-63.64 52.94,-53.89 47.72,-44.98"/>
<polygon fill="black" stroke="black" points="50.59,-42.96 42.52,-36.1 44.55,-46.5 50.59,-42.96"/>
</g>
<!-- ast.Constant object at 0x73d73ecd5f50 -->
<g id="node13" class="node">
<title>ast.Constant object at 0x73d73ecd5f50</title>
<path fill="#66cdaa" stroke="black" d="M136,-36C136,-36 95,-36 95,-36 89,-36 83,-30 83,-24 83,-24 83,-12 83,-12 83,-6 89,0 95,0 95,0 136,0 136,0 142,0 148,-6 148,-12 148,-12 148,-24 148,-24 148,-30 142,-36 136,-36"/>
<text text-anchor="middle" x="115.5" y="-14.3" font-family="Times,serif" font-size="14.00">Constant</text>
</g>
<!-- ast.Slice object at 0x73d73ecd5fd0&#45;&gt;ast.Constant object at 0x73d73ecd5f50 -->
<g id="edge12" class="edge">
<title>ast.Slice object at 0x73d73ecd5fd0&#45;&gt;ast.Constant object at 0x73d73ecd5f50</title>
<path fill="none" stroke="black" d="M83.88,-71.7C88.76,-63.56 94.69,-53.69 100.08,-44.7"/>
<polygon fill="black" stroke="black" points="103.09,-46.48 105.24,-36.1 97.09,-42.88 103.09,-46.48"/>
</g>
<!-- ast.Name object at 0x73d73eb20dd0 -->
<g id="node15" class="node">
<title>ast.Name object at 0x73d73eb20dd0</title>
<path fill="#66cdaa" stroke="black" d="M292.5,-396C292.5,-396 262.5,-396 262.5,-396 256.5,-396 250.5,-390 250.5,-384 250.5,-384 250.5,-372 250.5,-372 250.5,-366 256.5,-360 262.5,-360 262.5,-360 292.5,-360 292.5,-360 298.5,-360 304.5,-366 304.5,-372 304.5,-372 304.5,-384 304.5,-384 304.5,-390 298.5,-396 292.5,-396"/>
<text text-anchor="middle" x="277.5" y="-374.3" font-family="Times,serif" font-size="14.00">Name</text>
</g>
<!-- ast.Assign object at 0x73d73ecd7c50&#45;&gt;ast.Name object at 0x73d73eb20dd0 -->
<g id="edge15" class="edge">
<title>ast.Assign object at 0x73d73ecd7c50&#45;&gt;ast.Name object at 0x73d73eb20dd0</title>
<path fill="none" stroke="black" d="M277.5,-431.7C277.5,-423.98 277.5,-414.71 277.5,-406.11"/>
<polygon fill="black" stroke="black" points="281,-406.1 277.5,-396.1 274,-406.1 281,-406.1"/>
</g>
<!-- ast.Call object at 0x73d73eb23c90 -->
<g id="node16" class="node">
<title>ast.Call object at 0x73d73eb23c90</title>
<path fill="#66cdaa" stroke="black" d="M364.5,-396C364.5,-396 334.5,-396 334.5,-396 328.5,-396 322.5,-390 322.5,-384 322.5,-384 322.5,-372 322.5,-372 322.5,-366 328.5,-360 334.5,-360 334.5,-360 364.5,-360 364.5,-360 370.5,-360 376.5,-366 376.5,-372 376.5,-372 376.5,-384 376.5,-384 376.5,-390 370.5,-396 364.5,-396"/>
<text text-anchor="middle" x="349.5" y="-374.3" font-family="Times,serif" font-size="14.00">Call</text>
</g>
<!-- ast.Assign object at 0x73d73ecd7c50&#45;&gt;ast.Call object at 0x73d73eb23c90 -->
<g id="edge17" class="edge">
<title>ast.Assign object at 0x73d73ecd7c50&#45;&gt;ast.Call object at 0x73d73eb23c90</title>
<path fill="none" stroke="black" d="M295.3,-431.7C304.1,-423.14 314.88,-412.66 324.5,-403.3"/>
<polygon fill="black" stroke="black" points="327.18,-405.58 331.91,-396.1 322.3,-400.57 327.18,-405.58"/>
</g>
<!-- ast.Name object at 0x73d73eb20dd0&#45;&gt;ast.Store object at 0x73d867a3bb10 -->
<g id="edge16" class="edge">
<title>ast.Name object at 0x73d73eb20dd0&#45;&gt;ast.Store object at 0x73d867a3bb10</title>
<path fill="none" stroke="black" d="M260.94,-359.7C252.82,-351.22 242.91,-340.86 234.03,-331.58"/>
<polygon fill="black" stroke="black" points="236.31,-328.91 226.87,-324.1 231.26,-333.75 236.31,-328.91"/>
</g>
<!-- ast.Name object at 0x73d73eb21f10 -->
<g id="node17" class="node">
<title>ast.Name object at 0x73d73eb21f10</title>
<path fill="#66cdaa" stroke="black" d="M305.5,-324C305.5,-324 275.5,-324 275.5,-324 269.5,-324 263.5,-318 263.5,-312 263.5,-312 263.5,-300 263.5,-300 263.5,-294 269.5,-288 275.5,-288 275.5,-288 305.5,-288 305.5,-288 311.5,-288 317.5,-294 317.5,-300 317.5,-300 317.5,-312 317.5,-312 317.5,-318 311.5,-324 305.5,-324"/>
<text text-anchor="middle" x="290.5" y="-302.3" font-family="Times,serif" font-size="14.00">Name</text>
</g>
<!-- ast.Call object at 0x73d73eb23c90&#45;&gt;ast.Name object at 0x73d73eb21f10 -->
<g id="edge18" class="edge">
<title>ast.Call object at 0x73d73eb23c90&#45;&gt;ast.Name object at 0x73d73eb21f10</title>
<path fill="none" stroke="black" d="M334.92,-359.7C327.84,-351.3 319.22,-341.07 311.45,-331.86"/>
<polygon fill="black" stroke="black" points="314.04,-329.49 304.92,-324.1 308.69,-334.01 314.04,-329.49"/>
</g>
<!-- ast.Call object at 0x73d73eb23d10 -->
<g id="node18" class="node">
<title>ast.Call object at 0x73d73eb23d10</title>
<path fill="#66cdaa" stroke="black" d="M364.5,-252C364.5,-252 334.5,-252 334.5,-252 328.5,-252 322.5,-246 322.5,-240 322.5,-240 322.5,-228 322.5,-228 322.5,-222 328.5,-216 334.5,-216 334.5,-216 364.5,-216 364.5,-216 370.5,-216 376.5,-222 376.5,-228 376.5,-228 376.5,-240 376.5,-240 376.5,-246 370.5,-252 364.5,-252"/>
<text text-anchor="middle" x="349.5" y="-230.3" font-family="Times,serif" font-size="14.00">Call</text>
</g>
<!-- ast.Call object at 0x73d73eb23c90&#45;&gt;ast.Call object at 0x73d73eb23d10 -->
<g id="edge20" class="edge">
<title>ast.Call object at 0x73d73eb23c90&#45;&gt;ast.Call object at 0x73d73eb23d10</title>
<path fill="none" stroke="black" d="M349.5,-359.87C349.5,-335.67 349.5,-291.21 349.5,-262.39"/>
<polygon fill="black" stroke="black" points="353,-262.19 349.5,-252.19 346,-262.19 353,-262.19"/>
</g>
<!-- ast.keyword object at 0x73d73eb22a90 -->
<g id="node23" class="node">
<title>ast.keyword object at 0x73d73eb22a90</title>
<path fill="#66cdaa" stroke="black" d="M451.5,-324C451.5,-324 411.5,-324 411.5,-324 405.5,-324 399.5,-318 399.5,-312 399.5,-312 399.5,-300 399.5,-300 399.5,-294 405.5,-288 411.5,-288 411.5,-288 451.5,-288 451.5,-288 457.5,-288 463.5,-294 463.5,-300 463.5,-300 463.5,-312 463.5,-312 463.5,-318 457.5,-324 451.5,-324"/>
<text text-anchor="middle" x="431.5" y="-302.3" font-family="Times,serif" font-size="14.00">keyword</text>
</g>
<!-- ast.Call object at 0x73d73eb23c90&#45;&gt;ast.keyword object at 0x73d73eb22a90 -->
<g id="edge28" class="edge">
<title>ast.Call object at 0x73d73eb23c90&#45;&gt;ast.keyword object at 0x73d73eb22a90</title>
<path fill="none" stroke="black" d="M369.77,-359.7C380,-350.97 392.56,-340.24 403.68,-330.75"/>
<polygon fill="black" stroke="black" points="406.13,-333.26 411.46,-324.1 401.59,-327.94 406.13,-333.26"/>
</g>
<!-- ast.Name object at 0x73d73eb21f10&#45;&gt;ast.Load object at 0x73d867a3ba90 -->
<g id="edge19" class="edge">
<title>ast.Name object at 0x73d73eb21f10&#45;&gt;ast.Load object at 0x73d867a3ba90</title>
<path fill="none" stroke="black" d="M280.39,-287.84C257.17,-245.96 205.86,-137.16 257.5,-72 280.6,-42.86 387.81,-28.19 445.88,-22.27"/>
<polygon fill="black" stroke="black" points="446.51,-25.73 456.12,-21.27 445.82,-18.76 446.51,-25.73"/>
</g>
<!-- ast.Name object at 0x73d73eb22a10 -->
<g id="node19" class="node">
<title>ast.Name object at 0x73d73eb22a10</title>
<path fill="#66cdaa" stroke="black" d="M386.5,-180C386.5,-180 356.5,-180 356.5,-180 350.5,-180 344.5,-174 344.5,-168 344.5,-168 344.5,-156 344.5,-156 344.5,-150 350.5,-144 356.5,-144 356.5,-144 386.5,-144 386.5,-144 392.5,-144 398.5,-150 398.5,-156 398.5,-156 398.5,-168 398.5,-168 398.5,-174 392.5,-180 386.5,-180"/>
<text text-anchor="middle" x="371.5" y="-158.3" font-family="Times,serif" font-size="14.00">Name</text>
</g>
<!-- ast.Call object at 0x73d73eb23d10&#45;&gt;ast.Name object at 0x73d73eb22a10 -->
<g id="edge21" class="edge">
<title>ast.Call object at 0x73d73eb23d10&#45;&gt;ast.Name object at 0x73d73eb22a10</title>
<path fill="none" stroke="black" d="M354.94,-215.7C357.39,-207.9 360.34,-198.51 363.07,-189.83"/>
<polygon fill="black" stroke="black" points="366.46,-190.69 366.12,-180.1 359.79,-188.59 366.46,-190.69"/>
</g>
<!-- ast.Call object at 0x73d73eb22810 -->
<g id="node20" class="node">
<title>ast.Call object at 0x73d73eb22810</title>
<path fill="#66cdaa" stroke="black" d="M314.5,-180C314.5,-180 284.5,-180 284.5,-180 278.5,-180 272.5,-174 272.5,-168 272.5,-168 272.5,-156 272.5,-156 272.5,-150 278.5,-144 284.5,-144 284.5,-144 314.5,-144 314.5,-144 320.5,-144 326.5,-150 326.5,-156 326.5,-156 326.5,-168 326.5,-168 326.5,-174 320.5,-180 314.5,-180"/>
<text text-anchor="middle" x="299.5" y="-158.3" font-family="Times,serif" font-size="14.00">Call</text>
</g>
<!-- ast.Call object at 0x73d73eb23d10&#45;&gt;ast.Call object at 0x73d73eb22810 -->
<g id="edge23" class="edge">
<title>ast.Call object at 0x73d73eb23d10&#45;&gt;ast.Call object at 0x73d73eb22810</title>
<path fill="none" stroke="black" d="M337.14,-215.7C331.27,-207.47 324.13,-197.48 317.66,-188.42"/>
<polygon fill="black" stroke="black" points="320.38,-186.21 311.72,-180.1 314.68,-190.28 320.38,-186.21"/>
</g>
<!-- ast.Name object at 0x73d73eb22a10&#45;&gt;ast.Load object at 0x73d867a3ba90 -->
<g id="edge22" class="edge">
<title>ast.Name object at 0x73d73eb22a10&#45;&gt;ast.Load object at 0x73d867a3ba90</title>
<path fill="none" stroke="black" d="M384.33,-143.78C397.86,-125.73 419.87,-96.64 439.5,-72 446.92,-62.69 455.22,-52.61 462.59,-43.76"/>
<polygon fill="black" stroke="black" points="465.32,-45.96 469.06,-36.04 459.95,-41.46 465.32,-45.96"/>
</g>
<!-- ast.Name object at 0x73d73eb22210 -->
<g id="node21" class="node">
<title>ast.Name object at 0x73d73eb22210</title>
<path fill="#66cdaa" stroke="black" d="M308.5,-108C308.5,-108 278.5,-108 278.5,-108 272.5,-108 266.5,-102 266.5,-96 266.5,-96 266.5,-84 266.5,-84 266.5,-78 272.5,-72 278.5,-72 278.5,-72 308.5,-72 308.5,-72 314.5,-72 320.5,-78 320.5,-84 320.5,-84 320.5,-96 320.5,-96 320.5,-102 314.5,-108 308.5,-108"/>
<text text-anchor="middle" x="293.5" y="-86.3" font-family="Times,serif" font-size="14.00">Name</text>
</g>
<!-- ast.Call object at 0x73d73eb22810&#45;&gt;ast.Name object at 0x73d73eb22210 -->
<g id="edge24" class="edge">
<title>ast.Call object at 0x73d73eb22810&#45;&gt;ast.Name object at 0x73d73eb22210</title>
<path fill="none" stroke="black" d="M298.02,-143.7C297.36,-135.98 296.56,-126.71 295.82,-118.11"/>
<polygon fill="black" stroke="black" points="299.31,-117.77 294.97,-108.1 292.33,-118.37 299.31,-117.77"/>
</g>
<!-- ast.Name object at 0x73d73eb23c50 -->
<g id="node22" class="node">
<title>ast.Name object at 0x73d73eb23c50</title>
<path fill="#66cdaa" stroke="black" d="M380.5,-108C380.5,-108 350.5,-108 350.5,-108 344.5,-108 338.5,-102 338.5,-96 338.5,-96 338.5,-84 338.5,-84 338.5,-78 344.5,-72 350.5,-72 350.5,-72 380.5,-72 380.5,-72 386.5,-72 392.5,-78 392.5,-84 392.5,-84 392.5,-96 392.5,-96 392.5,-102 386.5,-108 380.5,-108"/>
<text text-anchor="middle" x="365.5" y="-86.3" font-family="Times,serif" font-size="14.00">Name</text>
</g>
<!-- ast.Call object at 0x73d73eb22810&#45;&gt;ast.Name object at 0x73d73eb23c50 -->
<g id="edge26" class="edge">
<title>ast.Call object at 0x73d73eb22810&#45;&gt;ast.Name object at 0x73d73eb23c50</title>
<path fill="none" stroke="black" d="M315.81,-143.7C323.81,-135.22 333.57,-124.86 342.32,-115.58"/>
<polygon fill="black" stroke="black" points="345.06,-117.78 349.37,-108.1 339.97,-112.98 345.06,-117.78"/>
</g>
<!-- ast.Name object at 0x73d73eb22210&#45;&gt;ast.Load object at 0x73d867a3ba90 -->
<g id="edge25" class="edge">
<title>ast.Name object at 0x73d73eb22210&#45;&gt;ast.Load object at 0x73d867a3ba90</title>
<path fill="none" stroke="black" d="M320.88,-75.69C323.77,-74.4 326.68,-73.15 329.5,-72 368.97,-55.95 415.33,-40.43 446.8,-30.38"/>
<polygon fill="black" stroke="black" points="447.99,-33.67 456.46,-27.31 445.87,-27 447.99,-33.67"/>
</g>
<!-- ast.Name object at 0x73d73eb23c50&#45;&gt;ast.Load object at 0x73d867a3ba90 -->
<g id="edge27" class="edge">
<title>ast.Name object at 0x73d73eb23c50&#45;&gt;ast.Load object at 0x73d867a3ba90</title>
<path fill="none" stroke="black" d="M392.57,-72.94C408.8,-63.32 429.63,-50.96 447.26,-40.5"/>
<polygon fill="black" stroke="black" points="449.33,-43.34 456.15,-35.23 445.76,-37.32 449.33,-43.34"/>
</g>
<!-- ast.Lambda object at 0x73d73eb21510 -->
<g id="node24" class="node">
<title>ast.Lambda object at 0x73d73eb21510</title>
<path fill="#66cdaa" stroke="black" d="M472.5,-252C472.5,-252 434.5,-252 434.5,-252 428.5,-252 422.5,-246 422.5,-240 422.5,-240 422.5,-228 422.5,-228 422.5,-222 428.5,-216 434.5,-216 434.5,-216 472.5,-216 472.5,-216 478.5,-216 484.5,-222 484.5,-228 484.5,-228 484.5,-240 484.5,-240 484.5,-246 478.5,-252 472.5,-252"/>
<text text-anchor="middle" x="453.5" y="-230.3" font-family="Times,serif" font-size="14.00">Lambda</text>
</g>
<!-- ast.keyword object at 0x73d73eb22a90&#45;&gt;ast.Lambda object at 0x73d73eb21510 -->
<g id="edge29" class="edge">
<title>ast.keyword object at 0x73d73eb22a90&#45;&gt;ast.Lambda object at 0x73d73eb21510</title>
<path fill="none" stroke="black" d="M436.94,-287.7C439.39,-279.9 442.34,-270.51 445.07,-261.83"/>
<polygon fill="black" stroke="black" points="448.46,-262.69 448.12,-252.1 441.79,-260.59 448.46,-262.69"/>
</g>
<!-- ast.arguments object at 0x73d73eb21690 -->
<g id="node25" class="node">
<title>ast.arguments object at 0x73d73eb21690</title>
<path fill="#66cdaa" stroke="black" d="M478.5,-180C478.5,-180 428.5,-180 428.5,-180 422.5,-180 416.5,-174 416.5,-168 416.5,-168 416.5,-156 416.5,-156 416.5,-150 422.5,-144 428.5,-144 428.5,-144 478.5,-144 478.5,-144 484.5,-144 490.5,-150 490.5,-156 490.5,-156 490.5,-168 490.5,-168 490.5,-174 484.5,-180 478.5,-180"/>
<text text-anchor="middle" x="453.5" y="-158.3" font-family="Times,serif" font-size="14.00">arguments</text>
</g>
<!-- ast.Lambda object at 0x73d73eb21510&#45;&gt;ast.arguments object at 0x73d73eb21690 -->
<g id="edge30" class="edge">
<title>ast.Lambda object at 0x73d73eb21510&#45;&gt;ast.arguments object at 0x73d73eb21690</title>
<path fill="none" stroke="black" d="M453.5,-215.7C453.5,-207.98 453.5,-198.71 453.5,-190.11"/>
<polygon fill="black" stroke="black" points="457,-190.1 453.5,-180.1 450,-190.1 457,-190.1"/>
</g>
<!-- ast.Call object at 0x73d73eb23dd0 -->
<g id="node27" class="node">
<title>ast.Call object at 0x73d73eb23dd0</title>
<path fill="#66cdaa" stroke="black" d="M550.5,-180C550.5,-180 520.5,-180 520.5,-180 514.5,-180 508.5,-174 508.5,-168 508.5,-168 508.5,-156 508.5,-156 508.5,-150 514.5,-144 520.5,-144 520.5,-144 550.5,-144 550.5,-144 556.5,-144 562.5,-150 562.5,-156 562.5,-156 562.5,-168 562.5,-168 562.5,-174 556.5,-180 550.5,-180"/>
<text text-anchor="middle" x="535.5" y="-158.3" font-family="Times,serif" font-size="14.00">Call</text>
</g>
<!-- ast.Lambda object at 0x73d73eb21510&#45;&gt;ast.Call object at 0x73d73eb23dd0 -->
<g id="edge32" class="edge">
<title>ast.Lambda object at 0x73d73eb21510&#45;&gt;ast.Call object at 0x73d73eb23dd0</title>
<path fill="none" stroke="black" d="M473.77,-215.7C484,-206.97 496.56,-196.24 507.68,-186.75"/>
<polygon fill="black" stroke="black" points="510.13,-189.26 515.46,-180.1 505.59,-183.94 510.13,-189.26"/>
</g>
<!-- ast.arg object at 0x73d73eb22150 -->
<g id="node26" class="node">
<title>ast.arg object at 0x73d73eb22150</title>
<path fill="#66cdaa" stroke="black" d="M490.5,-108C490.5,-108 460.5,-108 460.5,-108 454.5,-108 448.5,-102 448.5,-96 448.5,-96 448.5,-84 448.5,-84 448.5,-78 454.5,-72 460.5,-72 460.5,-72 490.5,-72 490.5,-72 496.5,-72 502.5,-78 502.5,-84 502.5,-84 502.5,-96 502.5,-96 502.5,-102 496.5,-108 490.5,-108"/>
<text text-anchor="middle" x="475.5" y="-86.3" font-family="Times,serif" font-size="14.00">arg</text>
</g>
<!-- ast.arguments object at 0x73d73eb21690&#45;&gt;ast.arg object at 0x73d73eb22150 -->
<g id="edge31" class="edge">
<title>ast.arguments object at 0x73d73eb21690&#45;&gt;ast.arg object at 0x73d73eb22150</title>
<path fill="none" stroke="black" d="M458.94,-143.7C461.39,-135.9 464.34,-126.51 467.07,-117.83"/>
<polygon fill="black" stroke="black" points="470.46,-118.69 470.12,-108.1 463.79,-116.59 470.46,-118.69"/>
</g>
<!-- ast.Name object at 0x73d73eb23ad0 -->
<g id="node28" class="node">
<title>ast.Name object at 0x73d73eb23ad0</title>
<path fill="#66cdaa" stroke="black" d="M634.5,-108C634.5,-108 604.5,-108 604.5,-108 598.5,-108 592.5,-102 592.5,-96 592.5,-96 592.5,-84 592.5,-84 592.5,-78 598.5,-72 604.5,-72 604.5,-72 634.5,-72 634.5,-72 640.5,-72 646.5,-78 646.5,-84 646.5,-84 646.5,-96 646.5,-96 646.5,-102 640.5,-108 634.5,-108"/>
<text text-anchor="middle" x="619.5" y="-86.3" font-family="Times,serif" font-size="14.00">Name</text>
</g>
<!-- ast.Call object at 0x73d73eb23dd0&#45;&gt;ast.Name object at 0x73d73eb23ad0 -->
<g id="edge33" class="edge">
<title>ast.Call object at 0x73d73eb23dd0&#45;&gt;ast.Name object at 0x73d73eb23ad0</title>
<path fill="none" stroke="black" d="M556.26,-143.7C566.74,-134.97 579.61,-124.24 591,-114.75"/>
<polygon fill="black" stroke="black" points="593.53,-117.19 598.97,-108.1 589.05,-111.82 593.53,-117.19"/>
</g>
<!-- ast.Name object at 0x73d73eb23850 -->
<g id="node29" class="node">
<title>ast.Name object at 0x73d73eb23850</title>
<path fill="#66cdaa" stroke="black" d="M562.5,-108C562.5,-108 532.5,-108 532.5,-108 526.5,-108 520.5,-102 520.5,-96 520.5,-96 520.5,-84 520.5,-84 520.5,-78 526.5,-72 532.5,-72 532.5,-72 562.5,-72 562.5,-72 568.5,-72 574.5,-78 574.5,-84 574.5,-84 574.5,-96 574.5,-96 574.5,-102 568.5,-108 562.5,-108"/>
<text text-anchor="middle" x="547.5" y="-86.3" font-family="Times,serif" font-size="14.00">Name</text>
</g>
<!-- ast.Call object at 0x73d73eb23dd0&#45;&gt;ast.Name object at 0x73d73eb23850 -->
<g id="edge35" class="edge">
<title>ast.Call object at 0x73d73eb23dd0&#45;&gt;ast.Name object at 0x73d73eb23850</title>
<path fill="none" stroke="black" d="M538.47,-143.7C539.79,-135.98 541.38,-126.71 542.85,-118.11"/>
<polygon fill="black" stroke="black" points="546.33,-118.55 544.57,-108.1 539.43,-117.37 546.33,-118.55"/>
</g>
<!-- ast.Name object at 0x73d73eb23ad0&#45;&gt;ast.Load object at 0x73d867a3ba90 -->
<g id="edge34" class="edge">
<title>ast.Name object at 0x73d73eb23ad0&#45;&gt;ast.Load object at 0x73d867a3ba90</title>
<path fill="none" stroke="black" d="M592.31,-75C571.46,-64.27 542.49,-49.36 519.69,-37.62"/>
<polygon fill="black" stroke="black" points="521.14,-34.44 510.65,-32.97 517.94,-40.66 521.14,-34.44"/>
</g>
<!-- ast.Name object at 0x73d73eb23850&#45;&gt;ast.Load object at 0x73d867a3ba90 -->
<g id="edge36" class="edge">
<title>ast.Name object at 0x73d73eb23850&#45;&gt;ast.Load object at 0x73d867a3ba90</title>
<path fill="none" stroke="black" d="M531.68,-71.7C523.93,-63.22 514.46,-52.86 505.98,-43.58"/>
<polygon fill="black" stroke="black" points="508.47,-41.12 499.14,-36.1 503.3,-45.85 508.47,-41.12"/>
</g>
<!-- ast.Compare object at 0x73d73eb22390 -->
<g id="node31" class="node">
<title>ast.Compare object at 0x73d73eb22390</title>
<path fill="#66cdaa" stroke="black" d="M720,-252C720,-252 677,-252 677,-252 671,-252 665,-246 665,-240 665,-240 665,-228 665,-228 665,-222 671,-216 677,-216 677,-216 720,-216 720,-216 726,-216 732,-222 732,-228 732,-228 732,-240 732,-240 732,-246 726,-252 720,-252"/>
<text text-anchor="middle" x="698.5" y="-230.3" font-family="Times,serif" font-size="14.00">Compare</text>
</g>
<!-- ast.If object at 0x73d73eb23950&#45;&gt;ast.Compare object at 0x73d73eb22390 -->
<g id="edge38" class="edge">
<title>ast.If object at 0x73d73eb23950&#45;&gt;ast.Compare object at 0x73d73eb22390</title>
<path fill="none" stroke="black" d="M742.16,-287.7C735.21,-279.3 726.73,-269.07 719.1,-259.86"/>
<polygon fill="black" stroke="black" points="721.75,-257.57 712.67,-252.1 716.36,-262.04 721.75,-257.57"/>
</g>
<!-- ast.Return object at 0x73d73eb21750 -->
<g id="node37" class="node">
<title>ast.Return object at 0x73d73eb21750</title>
<path fill="#66cdaa" stroke="black" d="M928.5,-252C928.5,-252 898.5,-252 898.5,-252 892.5,-252 886.5,-246 886.5,-240 886.5,-240 886.5,-228 886.5,-228 886.5,-222 892.5,-216 898.5,-216 898.5,-216 928.5,-216 928.5,-216 934.5,-216 940.5,-222 940.5,-228 940.5,-228 940.5,-240 940.5,-240 940.5,-246 934.5,-252 928.5,-252"/>
<text text-anchor="middle" x="913.5" y="-230.3" font-family="Times,serif" font-size="14.00">Return</text>
</g>
<!-- ast.If object at 0x73d73eb23950&#45;&gt;ast.Return object at 0x73d73eb21750 -->
<g id="edge46" class="edge">
<title>ast.If object at 0x73d73eb23950&#45;&gt;ast.Return object at 0x73d73eb21750</title>
<path fill="none" stroke="black" d="M783.85,-292.81C809.74,-281.26 848.77,-263.86 877.25,-251.16"/>
<polygon fill="black" stroke="black" points="878.76,-254.32 886.47,-247.05 875.91,-247.93 878.76,-254.32"/>
</g>
<!-- ast.Return object at 0x73d73eb21d10 -->
<g id="node41" class="node">
<title>ast.Return object at 0x73d73eb21d10</title>
<path fill="#66cdaa" stroke="black" d="M830.5,-252C830.5,-252 800.5,-252 800.5,-252 794.5,-252 788.5,-246 788.5,-240 788.5,-240 788.5,-228 788.5,-228 788.5,-222 794.5,-216 800.5,-216 800.5,-216 830.5,-216 830.5,-216 836.5,-216 842.5,-222 842.5,-228 842.5,-228 842.5,-240 842.5,-240 842.5,-246 836.5,-252 830.5,-252"/>
<text text-anchor="middle" x="815.5" y="-230.3" font-family="Times,serif" font-size="14.00">Return</text>
</g>
<!-- ast.If object at 0x73d73eb23950&#45;&gt;ast.Return object at 0x73d73eb21d10 -->
<g id="edge52" class="edge">
<title>ast.If object at 0x73d73eb23950&#45;&gt;ast.Return object at 0x73d73eb21d10</title>
<path fill="none" stroke="black" d="M771.08,-287.7C778.16,-279.3 786.78,-269.07 794.55,-259.86"/>
<polygon fill="black" stroke="black" points="797.31,-262.01 801.08,-252.1 791.96,-257.49 797.31,-262.01"/>
</g>
<!-- ast.Call object at 0x73d73eb22890 -->
<g id="node32" class="node">
<title>ast.Call object at 0x73d73eb22890</title>
<path fill="#66cdaa" stroke="black" d="M778.5,-180C778.5,-180 748.5,-180 748.5,-180 742.5,-180 736.5,-174 736.5,-168 736.5,-168 736.5,-156 736.5,-156 736.5,-150 742.5,-144 748.5,-144 748.5,-144 778.5,-144 778.5,-144 784.5,-144 790.5,-150 790.5,-156 790.5,-156 790.5,-168 790.5,-168 790.5,-174 784.5,-180 778.5,-180"/>
<text text-anchor="middle" x="763.5" y="-158.3" font-family="Times,serif" font-size="14.00">Call</text>
</g>
<!-- ast.Compare object at 0x73d73eb22390&#45;&gt;ast.Call object at 0x73d73eb22890 -->
<g id="edge39" class="edge">
<title>ast.Compare object at 0x73d73eb22390&#45;&gt;ast.Call object at 0x73d73eb22890</title>
<path fill="none" stroke="black" d="M714.57,-215.7C722.44,-207.22 732.06,-196.86 740.67,-187.58"/>
<polygon fill="black" stroke="black" points="743.38,-189.81 747.62,-180.1 738.25,-185.05 743.38,-189.81"/>
</g>
<!-- ast.GtE object at 0x73d867a48d50 -->
<g id="node35" class="node">
<title>ast.GtE object at 0x73d867a48d50</title>
<path fill="#66cdaa" stroke="black" d="M622.5,-180C622.5,-180 592.5,-180 592.5,-180 586.5,-180 580.5,-174 580.5,-168 580.5,-168 580.5,-156 580.5,-156 580.5,-150 586.5,-144 592.5,-144 592.5,-144 622.5,-144 622.5,-144 628.5,-144 634.5,-150 634.5,-156 634.5,-156 634.5,-168 634.5,-168 634.5,-174 628.5,-180 622.5,-180"/>
<text text-anchor="middle" x="607.5" y="-158.3" font-family="Times,serif" font-size="14.00">GtE</text>
</g>
<!-- ast.Compare object at 0x73d73eb22390&#45;&gt;ast.GtE object at 0x73d867a48d50 -->
<g id="edge44" class="edge">
<title>ast.Compare object at 0x73d73eb22390&#45;&gt;ast.GtE object at 0x73d867a48d50</title>
<path fill="none" stroke="black" d="M676.01,-215.7C664.54,-206.88 650.44,-196.03 638.02,-186.47"/>
<polygon fill="black" stroke="black" points="639.8,-183.43 629.74,-180.1 635.53,-188.98 639.8,-183.43"/>
</g>
<!-- ast.Constant object at 0x73d73eb23cd0 -->
<g id="node36" class="node">
<title>ast.Constant object at 0x73d73eb23cd0</title>
<path fill="#66cdaa" stroke="black" d="M706,-180C706,-180 665,-180 665,-180 659,-180 653,-174 653,-168 653,-168 653,-156 653,-156 653,-150 659,-144 665,-144 665,-144 706,-144 706,-144 712,-144 718,-150 718,-156 718,-156 718,-168 718,-168 718,-174 712,-180 706,-180"/>
<text text-anchor="middle" x="685.5" y="-158.3" font-family="Times,serif" font-size="14.00">Constant</text>
</g>
<!-- ast.Compare object at 0x73d73eb22390&#45;&gt;ast.Constant object at 0x73d73eb23cd0 -->
<g id="edge45" class="edge">
<title>ast.Compare object at 0x73d73eb22390&#45;&gt;ast.Constant object at 0x73d73eb23cd0</title>
<path fill="none" stroke="black" d="M695.29,-215.7C693.85,-207.98 692.13,-198.71 690.54,-190.11"/>
<polygon fill="black" stroke="black" points="693.94,-189.3 688.68,-180.1 687.06,-190.58 693.94,-189.3"/>
</g>
<!-- ast.Name object at 0x73d73eb22d90 -->
<g id="node33" class="node">
<title>ast.Name object at 0x73d73eb22d90</title>
<path fill="#66cdaa" stroke="black" d="M778.5,-108C778.5,-108 748.5,-108 748.5,-108 742.5,-108 736.5,-102 736.5,-96 736.5,-96 736.5,-84 736.5,-84 736.5,-78 742.5,-72 748.5,-72 748.5,-72 778.5,-72 778.5,-72 784.5,-72 790.5,-78 790.5,-84 790.5,-84 790.5,-96 790.5,-96 790.5,-102 784.5,-108 778.5,-108"/>
<text text-anchor="middle" x="763.5" y="-86.3" font-family="Times,serif" font-size="14.00">Name</text>
</g>
<!-- ast.Call object at 0x73d73eb22890&#45;&gt;ast.Name object at 0x73d73eb22d90 -->
<g id="edge40" class="edge">
<title>ast.Call object at 0x73d73eb22890&#45;&gt;ast.Name object at 0x73d73eb22d90</title>
<path fill="none" stroke="black" d="M763.5,-143.7C763.5,-135.98 763.5,-126.71 763.5,-118.11"/>
<polygon fill="black" stroke="black" points="767,-118.1 763.5,-108.1 760,-118.1 767,-118.1"/>
</g>
<!-- ast.Name object at 0x73d73eb23f50 -->
<g id="node34" class="node">
<title>ast.Name object at 0x73d73eb23f50</title>
<path fill="#66cdaa" stroke="black" d="M706.5,-108C706.5,-108 676.5,-108 676.5,-108 670.5,-108 664.5,-102 664.5,-96 664.5,-96 664.5,-84 664.5,-84 664.5,-78 670.5,-72 676.5,-72 676.5,-72 706.5,-72 706.5,-72 712.5,-72 718.5,-78 718.5,-84 718.5,-84 718.5,-96 718.5,-96 718.5,-102 712.5,-108 706.5,-108"/>
<text text-anchor="middle" x="691.5" y="-86.3" font-family="Times,serif" font-size="14.00">Name</text>
</g>
<!-- ast.Call object at 0x73d73eb22890&#45;&gt;ast.Name object at 0x73d73eb23f50 -->
<g id="edge42" class="edge">
<title>ast.Call object at 0x73d73eb22890&#45;&gt;ast.Name object at 0x73d73eb23f50</title>
<path fill="none" stroke="black" d="M745.7,-143.7C736.9,-135.14 726.12,-124.66 716.5,-115.3"/>
<polygon fill="black" stroke="black" points="718.7,-112.57 709.09,-108.1 713.82,-117.58 718.7,-112.57"/>
</g>
<!-- ast.Name object at 0x73d73eb22d90&#45;&gt;ast.Load object at 0x73d867a3ba90 -->
<g id="edge41" class="edge">
<title>ast.Name object at 0x73d73eb22d90&#45;&gt;ast.Load object at 0x73d867a3ba90</title>
<path fill="none" stroke="black" d="M736.25,-75.35C733.33,-74.12 730.38,-72.98 727.5,-72 656.18,-47.77 569.28,-32.02 520.79,-24.39"/>
<polygon fill="black" stroke="black" points="521.18,-20.91 510.76,-22.85 520.11,-27.83 521.18,-20.91"/>
</g>
<!-- ast.Name object at 0x73d73eb23f50&#45;&gt;ast.Load object at 0x73d867a3ba90 -->
<g id="edge43" class="edge">
<title>ast.Name object at 0x73d73eb23f50&#45;&gt;ast.Load object at 0x73d867a3ba90</title>
<path fill="none" stroke="black" d="M664.16,-75.6C661.26,-74.32 658.34,-73.1 655.5,-72 609.9,-54.31 555.75,-38.44 520.56,-28.77"/>
<polygon fill="black" stroke="black" points="521.29,-25.34 510.72,-26.1 519.45,-32.1 521.29,-25.34"/>
</g>
<!-- ast.Subscript object at 0x73d73eb22c10 -->
<g id="node38" class="node">
<title>ast.Subscript object at 0x73d73eb22c10</title>
<path fill="#66cdaa" stroke="black" d="M948.5,-180C948.5,-180 904.5,-180 904.5,-180 898.5,-180 892.5,-174 892.5,-168 892.5,-168 892.5,-156 892.5,-156 892.5,-150 898.5,-144 904.5,-144 904.5,-144 948.5,-144 948.5,-144 954.5,-144 960.5,-150 960.5,-156 960.5,-156 960.5,-168 960.5,-168 960.5,-174 954.5,-180 948.5,-180"/>
<text text-anchor="middle" x="926.5" y="-158.3" font-family="Times,serif" font-size="14.00">Subscript</text>
</g>
<!-- ast.Return object at 0x73d73eb21750&#45;&gt;ast.Subscript object at 0x73d73eb22c10 -->
<g id="edge47" class="edge">
<title>ast.Return object at 0x73d73eb21750&#45;&gt;ast.Subscript object at 0x73d73eb22c10</title>
<path fill="none" stroke="black" d="M916.71,-215.7C918.15,-207.98 919.87,-198.71 921.46,-190.11"/>
<polygon fill="black" stroke="black" points="924.94,-190.58 923.32,-180.1 918.06,-189.3 924.94,-190.58"/>
</g>
<!-- ast.Subscript object at 0x73d73eb22c10&#45;&gt;ast.Load object at 0x73d867a3ba90 -->
<g id="edge51" class="edge">
<title>ast.Subscript object at 0x73d73eb22c10&#45;&gt;ast.Load object at 0x73d867a3ba90</title>
<path fill="none" stroke="black" d="M894.1,-143.99C876.72,-134.31 855.28,-121.46 837.5,-108 818.95,-93.96 820.32,-82.38 799.5,-72 707.02,-25.92 582.37,-18.8 520.93,-18.37"/>
<polygon fill="black" stroke="black" points="520.93,-14.87 510.92,-18.36 520.92,-21.87 520.93,-14.87"/>
</g>
<!-- ast.Name object at 0x73d73eb22c50 -->
<g id="node39" class="node">
<title>ast.Name object at 0x73d73eb22c50</title>
<path fill="#66cdaa" stroke="black" d="M888.5,-108C888.5,-108 858.5,-108 858.5,-108 852.5,-108 846.5,-102 846.5,-96 846.5,-96 846.5,-84 846.5,-84 846.5,-78 852.5,-72 858.5,-72 858.5,-72 888.5,-72 888.5,-72 894.5,-72 900.5,-78 900.5,-84 900.5,-84 900.5,-96 900.5,-96 900.5,-102 894.5,-108 888.5,-108"/>
<text text-anchor="middle" x="873.5" y="-86.3" font-family="Times,serif" font-size="14.00">Name</text>
</g>
<!-- ast.Subscript object at 0x73d73eb22c10&#45;&gt;ast.Name object at 0x73d73eb22c50 -->
<g id="edge48" class="edge">
<title>ast.Subscript object at 0x73d73eb22c10&#45;&gt;ast.Name object at 0x73d73eb22c50</title>
<path fill="none" stroke="black" d="M913.4,-143.7C907.11,-135.39 899.45,-125.28 892.54,-116.14"/>
<polygon fill="black" stroke="black" points="895.28,-113.96 886.45,-108.1 889.7,-118.19 895.28,-113.96"/>
</g>
<!-- ast.Constant object at 0x73d73eb216d0 -->
<g id="node40" class="node">
<title>ast.Constant object at 0x73d73eb216d0</title>
<path fill="#66cdaa" stroke="black" d="M972,-108C972,-108 931,-108 931,-108 925,-108 919,-102 919,-96 919,-96 919,-84 919,-84 919,-78 925,-72 931,-72 931,-72 972,-72 972,-72 978,-72 984,-78 984,-84 984,-84 984,-96 984,-96 984,-102 978,-108 972,-108"/>
<text text-anchor="middle" x="951.5" y="-86.3" font-family="Times,serif" font-size="14.00">Constant</text>
</g>
<!-- ast.Subscript object at 0x73d73eb22c10&#45;&gt;ast.Constant object at 0x73d73eb216d0 -->
<g id="edge50" class="edge">
<title>ast.Subscript object at 0x73d73eb22c10&#45;&gt;ast.Constant object at 0x73d73eb216d0</title>
<path fill="none" stroke="black" d="M932.68,-143.7C935.5,-135.81 938.89,-126.3 942.02,-117.55"/>
<polygon fill="black" stroke="black" points="945.32,-118.7 945.39,-108.1 938.73,-116.34 945.32,-118.7"/>
</g>
<!-- ast.Name object at 0x73d73eb22c50&#45;&gt;ast.Load object at 0x73d867a3ba90 -->
<g id="edge49" class="edge">
<title>ast.Name object at 0x73d73eb22c50&#45;&gt;ast.Load object at 0x73d867a3ba90</title>
<path fill="none" stroke="black" d="M846.48,-76.72C841.88,-74.94 837.1,-73.28 832.5,-72 721.5,-41.05 585.28,-26.97 520.77,-21.68"/>
<polygon fill="black" stroke="black" points="520.92,-18.18 510.68,-20.88 520.37,-25.16 520.92,-18.18"/>
</g>
<!-- ast.Constant object at 0x73d73eb21fd0 -->
<g id="node42" class="node">
<title>ast.Constant object at 0x73d73eb21fd0</title>
<path fill="#66cdaa" stroke="black" d="M862,-180C862,-180 821,-180 821,-180 815,-180 809,-174 809,-168 809,-168 809,-156 809,-156 809,-150 815,-144 821,-144 821,-144 862,-144 862,-144 868,-144 874,-150 874,-156 874,-156 874,-168 874,-168 874,-174 868,-180 862,-180"/>
<text text-anchor="middle" x="841.5" y="-158.3" font-family="Times,serif" font-size="14.00">Constant</text>
</g>
<!-- ast.Return object at 0x73d73eb21d10&#45;&gt;ast.Constant object at 0x73d73eb21fd0 -->
<g id="edge53" class="edge">
<title>ast.Return object at 0x73d73eb21d10&#45;&gt;ast.Constant object at 0x73d73eb21fd0</title>
<path fill="none" stroke="black" d="M821.93,-215.7C824.86,-207.81 828.39,-198.3 831.64,-189.55"/>
<polygon fill="black" stroke="black" points="834.95,-190.7 835.15,-180.1 828.38,-188.26 834.95,-190.7"/>
</g>
</g>
</svg>
