<?xml version="1.0" encoding="UTF-8" standalone="no"?>
<!DOCTYPE svg PUBLIC "-//W3C//DTD SVG 1.1//EN"
 "http://www.w3.org/Graphics/SVG/1.1/DTD/svg11.dtd">
<!-- Generated by graphviz version 2.50.0 (0)
 -->
<!-- Pages: 1 -->
<svg width="1012pt" height="620pt"
 viewBox="0.00 0.00 1011.89 620.00" xmlns="http://www.w3.org/2000/svg" xmlns:xlink="http://www.w3.org/1999/xlink">
<g id="graph0" class="graph" transform="scale(1 1) rotate(0) translate(4 616)">
<polygon fill="white" stroke="transparent" points="-4,4 -4,-616 1007.89,-616 1007.89,4 -4,4"/>
<!-- ast.Module object at 0x74a085eb4390 -->
<g id="node1" class="node">
<title>ast.Module object at 0x74a085eb4390</title>
<path fill="#66cdaa" stroke="black" d="M351.39,-612C351.39,-612 316.39,-612 316.39,-612 310.39,-612 304.39,-606 304.39,-600 304.39,-600 304.39,-588 304.39,-588 304.39,-582 310.39,-576 316.39,-576 316.39,-576 351.39,-576 351.39,-576 357.39,-576 363.39,-582 363.39,-588 363.39,-588 363.39,-600 363.39,-600 363.39,-606 357.39,-612 351.39,-612"/>
<text text-anchor="middle" x="333.89" y="-590.3" font-family="Times,serif" font-size="14.00">Module</text>
</g>
<!-- ast.FunctionDef object at 0x74a085eb6e50 -->
<g id="node2" class="node">
<title>ast.FunctionDef object at 0x74a085eb6e50</title>
<path fill="#66cdaa" stroke="black" d="M364.39,-540C364.39,-540 303.39,-540 303.39,-540 297.39,-540 291.39,-534 291.39,-528 291.39,-528 291.39,-516 291.39,-516 291.39,-510 297.39,-504 303.39,-504 303.39,-504 364.39,-504 364.39,-504 370.39,-504 376.39,-510 376.39,-516 376.39,-516 376.39,-528 376.39,-528 376.39,-534 370.39,-540 364.39,-540"/>
<text text-anchor="middle" x="333.89" y="-518.3" font-family="Times,serif" font-size="14.00">FunctionDef</text>
</g>
<!-- ast.Module object at 0x74a085eb4390&#45;&gt;ast.FunctionDef object at 0x74a085eb6e50 -->
<g id="edge1" class="edge">
<title>ast.Module object at 0x74a085eb4390&#45;&gt;ast.FunctionDef object at 0x74a085eb6e50</title>
<path fill="none" stroke="black" d="M333.89,-575.7C333.89,-567.98 333.89,-558.71 333.89,-550.11"/>
<polygon fill="black" stroke="black" points="337.39,-550.1 333.89,-540.1 330.39,-550.1 337.39,-550.1"/>
</g>
<!-- ast.arguments object at 0x74a085eb5cd0 -->
<g id="node3" class="node">
<title>ast.arguments object at 0x74a085eb5cd0</title>
<path fill="#66cdaa" stroke="black" d="M255.89,-468C255.89,-468 205.89,-468 205.89,-468 199.89,-468 193.89,-462 193.89,-456 193.89,-456 193.89,-444 193.89,-444 193.89,-438 199.89,-432 205.89,-432 205.89,-432 255.89,-432 255.89,-432 261.89,-432 267.89,-438 267.89,-444 267.89,-444 267.89,-456 267.89,-456 267.89,-462 261.89,-468 255.89,-468"/>
<text text-anchor="middle" x="230.89" y="-446.3" font-family="Times,serif" font-size="14.00">arguments</text>
</g>
<!-- ast.FunctionDef object at 0x74a085eb6e50&#45;&gt;ast.arguments object at 0x74a085eb5cd0 -->
<g id="edge2" class="edge">
<title>ast.FunctionDef object at 0x74a085eb6e50&#45;&gt;ast.arguments object at 0x74a085eb5cd0</title>
<path fill="none" stroke="black" d="M308.69,-503.88C295.47,-494.89 279.09,-483.76 264.78,-474.03"/>
<polygon fill="black" stroke="black" points="266.42,-470.92 256.18,-468.19 262.48,-476.71 266.42,-470.92"/>
</g>
<!-- ast.Assign object at 0x74a085d9ded0 -->
<g id="node5" class="node">
<title>ast.Assign object at 0x74a085d9ded0</title>
<path fill="#66cdaa" stroke="black" d="M263.89,-252C263.89,-252 233.89,-252 233.89,-252 227.89,-252 221.89,-246 221.89,-240 221.89,-240 221.89,-228 221.89,-228 221.89,-222 227.89,-216 233.89,-216 233.89,-216 263.89,-216 263.89,-216 269.89,-216 275.89,-222 275.89,-228 275.89,-228 275.89,-240 275.89,-240 275.89,-246 269.89,-252 263.89,-252"/>
<text text-anchor="middle" x="248.89" y="-230.3" font-family="Times,serif" font-size="14.00">Assign</text>
</g>
<!-- ast.FunctionDef object at 0x74a085eb6e50&#45;&gt;ast.Assign object at 0x74a085d9ded0 -->
<g id="edge4" class="edge">
<title>ast.FunctionDef object at 0x74a085eb6e50&#45;&gt;ast.Assign object at 0x74a085d9ded0</title>
<path fill="none" stroke="black" d="M328.82,-503.97C314.6,-456.09 274.17,-320.06 256.88,-261.9"/>
<polygon fill="black" stroke="black" points="260.23,-260.89 254.03,-252.31 253.52,-262.89 260.23,-260.89"/>
</g>
<!-- ast.Assign object at 0x74a085d9d250 -->
<g id="node12" class="node">
<title>ast.Assign object at 0x74a085d9d250</title>
<path fill="#66cdaa" stroke="black" d="M335.89,-252C335.89,-252 305.89,-252 305.89,-252 299.89,-252 293.89,-246 293.89,-240 293.89,-240 293.89,-228 293.89,-228 293.89,-222 299.89,-216 305.89,-216 305.89,-216 335.89,-216 335.89,-216 341.89,-216 347.89,-222 347.89,-228 347.89,-228 347.89,-240 347.89,-240 347.89,-246 341.89,-252 335.89,-252"/>
<text text-anchor="middle" x="320.89" y="-230.3" font-family="Times,serif" font-size="14.00">Assign</text>
</g>
<!-- ast.FunctionDef object at 0x74a085eb6e50&#45;&gt;ast.Assign object at 0x74a085d9d250 -->
<g id="edge12" class="edge">
<title>ast.FunctionDef object at 0x74a085eb6e50&#45;&gt;ast.Assign object at 0x74a085d9d250</title>
<path fill="none" stroke="black" d="M333.11,-503.97C330.95,-456.29 324.8,-321.18 322.14,-262.63"/>
<polygon fill="black" stroke="black" points="325.62,-262.14 321.67,-252.31 318.63,-262.46 325.62,-262.14"/>
</g>
<!-- ast.FunctionDef object at 0x74a085d9de10 -->
<g id="node17" class="node">
<title>ast.FunctionDef object at 0x74a085d9de10</title>
<path fill="#66cdaa" stroke="black" d="M569.39,-468C569.39,-468 508.39,-468 508.39,-468 502.39,-468 496.39,-462 496.39,-456 496.39,-456 496.39,-444 496.39,-444 496.39,-438 502.39,-432 508.39,-432 508.39,-432 569.39,-432 569.39,-432 575.39,-432 581.39,-438 581.39,-444 581.39,-444 581.39,-456 581.39,-456 581.39,-462 575.39,-468 569.39,-468"/>
<text text-anchor="middle" x="538.89" y="-446.3" font-family="Times,serif" font-size="14.00">FunctionDef</text>
</g>
<!-- ast.FunctionDef object at 0x74a085eb6e50&#45;&gt;ast.FunctionDef object at 0x74a085d9de10 -->
<g id="edge20" class="edge">
<title>ast.FunctionDef object at 0x74a085eb6e50&#45;&gt;ast.FunctionDef object at 0x74a085d9de10</title>
<path fill="none" stroke="black" d="M376.86,-506.33C408.81,-495.42 452.57,-480.47 486.56,-468.87"/>
<polygon fill="black" stroke="black" points="487.99,-472.08 496.32,-465.53 485.73,-465.45 487.99,-472.08"/>
</g>
<!-- ast.Return object at 0x74a085d9d910 -->
<g id="node35" class="node">
<title>ast.Return object at 0x74a085d9d910</title>
<path fill="#66cdaa" stroke="black" d="M760.89,-468C760.89,-468 730.89,-468 730.89,-468 724.89,-468 718.89,-462 718.89,-456 718.89,-456 718.89,-444 718.89,-444 718.89,-438 724.89,-432 730.89,-432 730.89,-432 760.89,-432 760.89,-432 766.89,-432 772.89,-438 772.89,-444 772.89,-444 772.89,-456 772.89,-456 772.89,-462 766.89,-468 760.89,-468"/>
<text text-anchor="middle" x="745.89" y="-446.3" font-family="Times,serif" font-size="14.00">Return</text>
</g>
<!-- ast.FunctionDef object at 0x74a085eb6e50&#45;&gt;ast.Return object at 0x74a085d9d910 -->
<g id="edge47" class="edge">
<title>ast.FunctionDef object at 0x74a085eb6e50&#45;&gt;ast.Return object at 0x74a085d9d910</title>
<path fill="none" stroke="black" d="M376.43,-513.77C457.33,-500.03 632.1,-470.33 708.67,-457.32"/>
<polygon fill="black" stroke="black" points="709.53,-460.73 718.8,-455.6 708.36,-453.83 709.53,-460.73"/>
</g>
<!-- ast.arg object at 0x74a085eb4310 -->
<g id="node4" class="node">
<title>ast.arg object at 0x74a085eb4310</title>
<path fill="#66cdaa" stroke="black" d="M245.89,-396C245.89,-396 215.89,-396 215.89,-396 209.89,-396 203.89,-390 203.89,-384 203.89,-384 203.89,-372 203.89,-372 203.89,-366 209.89,-360 215.89,-360 215.89,-360 245.89,-360 245.89,-360 251.89,-360 257.89,-366 257.89,-372 257.89,-372 257.89,-384 257.89,-384 257.89,-390 251.89,-396 245.89,-396"/>
<text text-anchor="middle" x="230.89" y="-374.3" font-family="Times,serif" font-size="14.00">arg</text>
</g>
<!-- ast.arguments object at 0x74a085eb5cd0&#45;&gt;ast.arg object at 0x74a085eb4310 -->
<g id="edge3" class="edge">
<title>ast.arguments object at 0x74a085eb5cd0&#45;&gt;ast.arg object at 0x74a085eb4310</title>
<path fill="none" stroke="black" d="M230.89,-431.7C230.89,-423.98 230.89,-414.71 230.89,-406.11"/>
<polygon fill="black" stroke="black" points="234.39,-406.1 230.89,-396.1 227.39,-406.1 234.39,-406.1"/>
</g>
<!-- ast.Name object at 0x74a085d9cf50 -->
<g id="node6" class="node">
<title>ast.Name object at 0x74a085d9cf50</title>
<path fill="#66cdaa" stroke="black" d="M263.89,-180C263.89,-180 233.89,-180 233.89,-180 227.89,-180 221.89,-174 221.89,-168 221.89,-168 221.89,-156 221.89,-156 221.89,-150 227.89,-144 233.89,-144 233.89,-144 263.89,-144 263.89,-144 269.89,-144 275.89,-150 275.89,-156 275.89,-156 275.89,-168 275.89,-168 275.89,-174 269.89,-180 263.89,-180"/>
<text text-anchor="middle" x="248.89" y="-158.3" font-family="Times,serif" font-size="14.00">Name</text>
</g>
<!-- ast.Assign object at 0x74a085d9ded0&#45;&gt;ast.Name object at 0x74a085d9cf50 -->
<g id="edge5" class="edge">
<title>ast.Assign object at 0x74a085d9ded0&#45;&gt;ast.Name object at 0x74a085d9cf50</title>
<path fill="none" stroke="black" d="M248.89,-215.7C248.89,-207.98 248.89,-198.71 248.89,-190.11"/>
<polygon fill="black" stroke="black" points="252.39,-190.1 248.89,-180.1 245.39,-190.1 252.39,-190.1"/>
</g>
<!-- ast.Subscript object at 0x74a085d9d650 -->
<g id="node8" class="node">
<title>ast.Subscript object at 0x74a085d9d650</title>
<path fill="#66cdaa" stroke="black" d="M85.89,-180C85.89,-180 41.89,-180 41.89,-180 35.89,-180 29.89,-174 29.89,-168 29.89,-168 29.89,-156 29.89,-156 29.89,-150 35.89,-144 41.89,-144 41.89,-144 85.89,-144 85.89,-144 91.89,-144 97.89,-150 97.89,-156 97.89,-156 97.89,-168 97.89,-168 97.89,-174 91.89,-180 85.89,-180"/>
<text text-anchor="middle" x="63.89" y="-158.3" font-family="Times,serif" font-size="14.00">Subscript</text>
</g>
<!-- ast.Assign object at 0x74a085d9ded0&#45;&gt;ast.Subscript object at 0x74a085d9d650 -->
<g id="edge7" class="edge">
<title>ast.Assign object at 0x74a085d9ded0&#45;&gt;ast.Subscript object at 0x74a085d9d650</title>
<path fill="none" stroke="black" d="M221.59,-222.67C191.55,-211.3 142.84,-192.87 107.49,-179.5"/>
<polygon fill="black" stroke="black" points="108.49,-176.14 97.9,-175.87 106.02,-182.68 108.49,-176.14"/>
</g>
<!-- ast.Store object at 0x74a0c1dc1d10 -->
<g id="node7" class="node">
<title>ast.Store object at 0x74a0c1dc1d10</title>
<path fill="#66cdaa" stroke="black" d="M445.89,-108C445.89,-108 415.89,-108 415.89,-108 409.89,-108 403.89,-102 403.89,-96 403.89,-96 403.89,-84 403.89,-84 403.89,-78 409.89,-72 415.89,-72 415.89,-72 445.89,-72 445.89,-72 451.89,-72 457.89,-78 457.89,-84 457.89,-84 457.89,-96 457.89,-96 457.89,-102 451.89,-108 445.89,-108"/>
<text text-anchor="middle" x="430.89" y="-86.3" font-family="Times,serif" font-size="14.00">Store</text>
</g>
<!-- ast.Name object at 0x74a085d9cf50&#45;&gt;ast.Store object at 0x74a0c1dc1d10 -->
<g id="edge6" class="edge">
<title>ast.Name object at 0x74a085d9cf50&#45;&gt;ast.Store object at 0x74a0c1dc1d10</title>
<path fill="none" stroke="black" d="M275.89,-147.92C278.91,-146.55 281.95,-145.22 284.89,-144 321.56,-128.72 364.39,-113.47 394.13,-103.28"/>
<polygon fill="black" stroke="black" points="395.35,-106.56 403.69,-100.03 393.09,-99.94 395.35,-106.56"/>
</g>
<!-- ast.Name object at 0x74a085d9d150 -->
<g id="node9" class="node">
<title>ast.Name object at 0x74a085d9d150</title>
<path fill="#66cdaa" stroke="black" d="M57.89,-108C57.89,-108 27.89,-108 27.89,-108 21.89,-108 15.89,-102 15.89,-96 15.89,-96 15.89,-84 15.89,-84 15.89,-78 21.89,-72 27.89,-72 27.89,-72 57.89,-72 57.89,-72 63.89,-72 69.89,-78 69.89,-84 69.89,-84 69.89,-96 69.89,-96 69.89,-102 63.89,-108 57.89,-108"/>
<text text-anchor="middle" x="42.89" y="-86.3" font-family="Times,serif" font-size="14.00">Name</text>
</g>
<!-- ast.Subscript object at 0x74a085d9d650&#45;&gt;ast.Name object at 0x74a085d9d150 -->
<g id="edge8" class="edge">
<title>ast.Subscript object at 0x74a085d9d650&#45;&gt;ast.Name object at 0x74a085d9d150</title>
<path fill="none" stroke="black" d="M58.7,-143.7C56.36,-135.9 53.54,-126.51 50.94,-117.83"/>
<polygon fill="black" stroke="black" points="54.24,-116.68 48.02,-108.1 47.54,-118.69 54.24,-116.68"/>
</g>
<!-- ast.Load object at 0x74a0c1dc1c90 -->
<g id="node10" class="node">
<title>ast.Load object at 0x74a0c1dc1c90</title>
<path fill="#66cdaa" stroke="black" d="M538.89,-36C538.89,-36 508.89,-36 508.89,-36 502.89,-36 496.89,-30 496.89,-24 496.89,-24 496.89,-12 496.89,-12 496.89,-6 502.89,0 508.89,0 508.89,0 538.89,0 538.89,0 544.89,0 550.89,-6 550.89,-12 550.89,-12 550.89,-24 550.89,-24 550.89,-30 544.89,-36 538.89,-36"/>
<text text-anchor="middle" x="523.89" y="-14.3" font-family="Times,serif" font-size="14.00">Load</text>
</g>
<!-- ast.Subscript object at 0x74a085d9d650&#45;&gt;ast.Load object at 0x74a0c1dc1c90 -->
<g id="edge11" class="edge">
<title>ast.Subscript object at 0x74a085d9d650&#45;&gt;ast.Load object at 0x74a0c1dc1c90</title>
<path fill="none" stroke="black" d="M39.71,-143.78C16.14,-124.95 -13.4,-94.47 6.89,-72 38.95,-36.48 372.95,-23.43 486.41,-20.01"/>
<polygon fill="black" stroke="black" points="486.79,-23.5 496.68,-19.7 486.58,-16.5 486.79,-23.5"/>
</g>
<!-- ast.Constant object at 0x74a085d9df90 -->
<g id="node11" class="node">
<title>ast.Constant object at 0x74a085d9df90</title>
<path fill="#66cdaa" stroke="black" d="M141.39,-108C141.39,-108 100.39,-108 100.39,-108 94.39,-108 88.39,-102 88.39,-96 88.39,-96 88.39,-84 88.39,-84 88.39,-78 94.39,-72 100.39,-72 100.39,-72 141.39,-72 141.39,-72 147.39,-72 153.39,-78 153.39,-84 153.39,-84 153.39,-96 153.39,-96 153.39,-102 147.39,-108 141.39,-108"/>
<text text-anchor="middle" x="120.89" y="-86.3" font-family="Times,serif" font-size="14.00">Constant</text>
</g>
<!-- ast.Subscript object at 0x74a085d9d650&#45;&gt;ast.Constant object at 0x74a085d9df90 -->
<g id="edge10" class="edge">
<title>ast.Subscript object at 0x74a085d9d650&#45;&gt;ast.Constant object at 0x74a085d9df90</title>
<path fill="none" stroke="black" d="M77.98,-143.7C84.81,-135.3 93.14,-125.07 100.64,-115.86"/>
<polygon fill="black" stroke="black" points="103.36,-118.07 106.96,-108.1 97.93,-113.65 103.36,-118.07"/>
</g>
<!-- ast.Name object at 0x74a085d9d150&#45;&gt;ast.Load object at 0x74a0c1dc1c90 -->
<g id="edge9" class="edge">
<title>ast.Name object at 0x74a085d9d150&#45;&gt;ast.Load object at 0x74a0c1dc1c90</title>
<path fill="none" stroke="black" d="M70.05,-75.06C72.98,-73.89 75.96,-72.84 78.89,-72 225.65,-29.82 408.94,-21.16 486.48,-19.42"/>
<polygon fill="black" stroke="black" points="486.78,-22.92 496.71,-19.22 486.64,-15.92 486.78,-22.92"/>
</g>
<!-- ast.Name object at 0x74a085d9f450 -->
<g id="node13" class="node">
<title>ast.Name object at 0x74a085d9f450</title>
<path fill="#66cdaa" stroke="black" d="M335.89,-180C335.89,-180 305.89,-180 305.89,-180 299.89,-180 293.89,-174 293.89,-168 293.89,-168 293.89,-156 293.89,-156 293.89,-150 299.89,-144 305.89,-144 305.89,-144 335.89,-144 335.89,-144 341.89,-144 347.89,-150 347.89,-156 347.89,-156 347.89,-168 347.89,-168 347.89,-174 341.89,-180 335.89,-180"/>
<text text-anchor="middle" x="320.89" y="-158.3" font-family="Times,serif" font-size="14.00">Name</text>
</g>
<!-- ast.Assign object at 0x74a085d9d250&#45;&gt;ast.Name object at 0x74a085d9f450 -->
<g id="edge13" class="edge">
<title>ast.Assign object at 0x74a085d9d250&#45;&gt;ast.Name object at 0x74a085d9f450</title>
<path fill="none" stroke="black" d="M320.89,-215.7C320.89,-207.98 320.89,-198.71 320.89,-190.11"/>
<polygon fill="black" stroke="black" points="324.39,-190.1 320.89,-180.1 317.39,-190.1 324.39,-190.1"/>
</g>
<!-- ast.Subscript object at 0x74a085d9cb10 -->
<g id="node14" class="node">
<title>ast.Subscript object at 0x74a085d9cb10</title>
<path fill="#66cdaa" stroke="black" d="M191.89,-180C191.89,-180 147.89,-180 147.89,-180 141.89,-180 135.89,-174 135.89,-168 135.89,-168 135.89,-156 135.89,-156 135.89,-150 141.89,-144 147.89,-144 147.89,-144 191.89,-144 191.89,-144 197.89,-144 203.89,-150 203.89,-156 203.89,-156 203.89,-168 203.89,-168 203.89,-174 197.89,-180 191.89,-180"/>
<text text-anchor="middle" x="169.89" y="-158.3" font-family="Times,serif" font-size="14.00">Subscript</text>
</g>
<!-- ast.Assign object at 0x74a085d9d250&#45;&gt;ast.Subscript object at 0x74a085d9cb10 -->
<g id="edge15" class="edge">
<title>ast.Assign object at 0x74a085d9d250&#45;&gt;ast.Subscript object at 0x74a085d9cb10</title>
<path fill="none" stroke="black" d="M293.77,-220.16C290.78,-218.75 287.77,-217.34 284.89,-216 261.2,-204.95 234.71,-192.73 213.12,-182.81"/>
<polygon fill="black" stroke="black" points="214.44,-179.56 203.89,-178.57 211.52,-185.93 214.44,-179.56"/>
</g>
<!-- ast.Name object at 0x74a085d9f450&#45;&gt;ast.Store object at 0x74a0c1dc1d10 -->
<g id="edge14" class="edge">
<title>ast.Name object at 0x74a085d9f450&#45;&gt;ast.Store object at 0x74a0c1dc1d10</title>
<path fill="none" stroke="black" d="M347.8,-143.88C362.04,-134.81 379.73,-123.55 395.12,-113.76"/>
<polygon fill="black" stroke="black" points="397.32,-116.51 403.87,-108.19 393.56,-110.61 397.32,-116.51"/>
</g>
<!-- ast.Subscript object at 0x74a085d9cb10&#45;&gt;ast.Load object at 0x74a0c1dc1c90 -->
<g id="edge19" class="edge">
<title>ast.Subscript object at 0x74a085d9cb10&#45;&gt;ast.Load object at 0x74a0c1dc1c90</title>
<path fill="none" stroke="black" d="M170.82,-143.68C172.91,-123.27 179.6,-89.9 200.89,-72 243.67,-36.02 411.47,-24.04 486.86,-20.42"/>
<polygon fill="black" stroke="black" points="487.03,-23.92 496.86,-19.96 486.71,-16.92 487.03,-23.92"/>
</g>
<!-- ast.Name object at 0x74a085d9e0d0 -->
<g id="node15" class="node">
<title>ast.Name object at 0x74a085d9e0d0</title>
<path fill="#66cdaa" stroke="black" d="M251.89,-108C251.89,-108 221.89,-108 221.89,-108 215.89,-108 209.89,-102 209.89,-96 209.89,-96 209.89,-84 209.89,-84 209.89,-78 215.89,-72 221.89,-72 221.89,-72 251.89,-72 251.89,-72 257.89,-72 263.89,-78 263.89,-84 263.89,-84 263.89,-96 263.89,-96 263.89,-102 257.89,-108 251.89,-108"/>
<text text-anchor="middle" x="236.89" y="-86.3" font-family="Times,serif" font-size="14.00">Name</text>
</g>
<!-- ast.Subscript object at 0x74a085d9cb10&#45;&gt;ast.Name object at 0x74a085d9e0d0 -->
<g id="edge16" class="edge">
<title>ast.Subscript object at 0x74a085d9cb10&#45;&gt;ast.Name object at 0x74a085d9e0d0</title>
<path fill="none" stroke="black" d="M186.45,-143.7C194.56,-135.22 204.47,-124.86 213.36,-115.58"/>
<polygon fill="black" stroke="black" points="216.13,-117.75 220.52,-108.1 211.07,-112.91 216.13,-117.75"/>
</g>
<!-- ast.Constant object at 0x74a085d9de50 -->
<g id="node16" class="node">
<title>ast.Constant object at 0x74a085d9de50</title>
<path fill="#66cdaa" stroke="black" d="M335.39,-108C335.39,-108 294.39,-108 294.39,-108 288.39,-108 282.39,-102 282.39,-96 282.39,-96 282.39,-84 282.39,-84 282.39,-78 288.39,-72 294.39,-72 294.39,-72 335.39,-72 335.39,-72 341.39,-72 347.39,-78 347.39,-84 347.39,-84 347.39,-96 347.39,-96 347.39,-102 341.39,-108 335.39,-108"/>
<text text-anchor="middle" x="314.89" y="-86.3" font-family="Times,serif" font-size="14.00">Constant</text>
</g>
<!-- ast.Subscript object at 0x74a085d9cb10&#45;&gt;ast.Constant object at 0x74a085d9de50 -->
<g id="edge18" class="edge">
<title>ast.Subscript object at 0x74a085d9cb10&#45;&gt;ast.Constant object at 0x74a085d9de50</title>
<path fill="none" stroke="black" d="M204.25,-144.41C224.91,-134.43 251.36,-121.67 273.21,-111.12"/>
<polygon fill="black" stroke="black" points="274.78,-114.25 282.26,-106.75 271.74,-107.94 274.78,-114.25"/>
</g>
<!-- ast.Name object at 0x74a085d9e0d0&#45;&gt;ast.Load object at 0x74a0c1dc1c90 -->
<g id="edge17" class="edge">
<title>ast.Name object at 0x74a085d9e0d0&#45;&gt;ast.Load object at 0x74a0c1dc1c90</title>
<path fill="none" stroke="black" d="M264.13,-75.33C267.05,-74.11 270,-72.97 272.89,-72 346.78,-47.13 436.97,-31.49 486.63,-24.09"/>
<polygon fill="black" stroke="black" points="487.2,-27.54 496.59,-22.63 486.19,-20.61 487.2,-27.54"/>
</g>
<!-- ast.arguments object at 0x74a085d9e010 -->
<g id="node18" class="node">
<title>ast.arguments object at 0x74a085d9e010</title>
<path fill="#66cdaa" stroke="black" d="M604.89,-396C604.89,-396 554.89,-396 554.89,-396 548.89,-396 542.89,-390 542.89,-384 542.89,-384 542.89,-372 542.89,-372 542.89,-366 548.89,-360 554.89,-360 554.89,-360 604.89,-360 604.89,-360 610.89,-360 616.89,-366 616.89,-372 616.89,-372 616.89,-384 616.89,-384 616.89,-390 610.89,-396 604.89,-396"/>
<text text-anchor="middle" x="579.89" y="-374.3" font-family="Times,serif" font-size="14.00">arguments</text>
</g>
<!-- ast.FunctionDef object at 0x74a085d9de10&#45;&gt;ast.arguments object at 0x74a085d9e010 -->
<g id="edge21" class="edge">
<title>ast.FunctionDef object at 0x74a085d9de10&#45;&gt;ast.arguments object at 0x74a085d9e010</title>
<path fill="none" stroke="black" d="M549.02,-431.7C553.74,-423.64 559.45,-413.89 564.67,-404.98"/>
<polygon fill="black" stroke="black" points="567.83,-406.5 569.87,-396.1 561.79,-402.96 567.83,-406.5"/>
</g>
<!-- ast.While object at 0x74a085d9dd50 -->
<g id="node21" class="node">
<title>ast.While object at 0x74a085d9dd50</title>
<path fill="#66cdaa" stroke="black" d="M512.89,-396C512.89,-396 482.89,-396 482.89,-396 476.89,-396 470.89,-390 470.89,-384 470.89,-384 470.89,-372 470.89,-372 470.89,-366 476.89,-360 482.89,-360 482.89,-360 512.89,-360 512.89,-360 518.89,-360 524.89,-366 524.89,-372 524.89,-372 524.89,-384 524.89,-384 524.89,-390 518.89,-396 512.89,-396"/>
<text text-anchor="middle" x="497.89" y="-374.3" font-family="Times,serif" font-size="14.00">While</text>
</g>
<!-- ast.FunctionDef object at 0x74a085d9de10&#45;&gt;ast.While object at 0x74a085d9dd50 -->
<g id="edge24" class="edge">
<title>ast.FunctionDef object at 0x74a085d9de10&#45;&gt;ast.While object at 0x74a085d9dd50</title>
<path fill="none" stroke="black" d="M528.75,-431.7C524.03,-423.64 518.32,-413.89 513.1,-404.98"/>
<polygon fill="black" stroke="black" points="515.98,-402.96 507.9,-396.1 509.94,-406.5 515.98,-402.96"/>
</g>
<!-- ast.Return object at 0x74a085d9cf10 -->
<g id="node33" class="node">
<title>ast.Return object at 0x74a085d9cf10</title>
<path fill="#66cdaa" stroke="black" d="M730.89,-396C730.89,-396 700.89,-396 700.89,-396 694.89,-396 688.89,-390 688.89,-384 688.89,-384 688.89,-372 688.89,-372 688.89,-366 694.89,-360 700.89,-360 700.89,-360 730.89,-360 730.89,-360 736.89,-360 742.89,-366 742.89,-372 742.89,-372 742.89,-384 742.89,-384 742.89,-390 736.89,-396 730.89,-396"/>
<text text-anchor="middle" x="715.89" y="-374.3" font-family="Times,serif" font-size="14.00">Return</text>
</g>
<!-- ast.FunctionDef object at 0x74a085d9de10&#45;&gt;ast.Return object at 0x74a085d9cf10 -->
<g id="edge44" class="edge">
<title>ast.FunctionDef object at 0x74a085d9de10&#45;&gt;ast.Return object at 0x74a085d9cf10</title>
<path fill="none" stroke="black" d="M581.73,-432.05C611.57,-420.26 650.94,-404.69 679.3,-393.47"/>
<polygon fill="black" stroke="black" points="680.83,-396.63 688.84,-389.7 678.26,-390.12 680.83,-396.63"/>
</g>
<!-- ast.arg object at 0x74a085d9fed0 -->
<g id="node19" class="node">
<title>ast.arg object at 0x74a085d9fed0</title>
<path fill="#66cdaa" stroke="black" d="M592.89,-324C592.89,-324 562.89,-324 562.89,-324 556.89,-324 550.89,-318 550.89,-312 550.89,-312 550.89,-300 550.89,-300 550.89,-294 556.89,-288 562.89,-288 562.89,-288 592.89,-288 592.89,-288 598.89,-288 604.89,-294 604.89,-300 604.89,-300 604.89,-312 604.89,-312 604.89,-318 598.89,-324 592.89,-324"/>
<text text-anchor="middle" x="577.89" y="-302.3" font-family="Times,serif" font-size="14.00">arg</text>
</g>
<!-- ast.arguments object at 0x74a085d9e010&#45;&gt;ast.arg object at 0x74a085d9fed0 -->
<g id="edge22" class="edge">
<title>ast.arguments object at 0x74a085d9e010&#45;&gt;ast.arg object at 0x74a085d9fed0</title>
<path fill="none" stroke="black" d="M579.39,-359.7C579.17,-351.98 578.91,-342.71 578.66,-334.11"/>
<polygon fill="black" stroke="black" points="582.16,-334 578.38,-324.1 575.16,-334.2 582.16,-334"/>
</g>
<!-- ast.arg object at 0x74a085d9dd90 -->
<g id="node20" class="node">
<title>ast.arg object at 0x74a085d9dd90</title>
<path fill="#66cdaa" stroke="black" d="M664.89,-324C664.89,-324 634.89,-324 634.89,-324 628.89,-324 622.89,-318 622.89,-312 622.89,-312 622.89,-300 622.89,-300 622.89,-294 628.89,-288 634.89,-288 634.89,-288 664.89,-288 664.89,-288 670.89,-288 676.89,-294 676.89,-300 676.89,-300 676.89,-312 676.89,-312 676.89,-318 670.89,-324 664.89,-324"/>
<text text-anchor="middle" x="649.89" y="-302.3" font-family="Times,serif" font-size="14.00">arg</text>
</g>
<!-- ast.arguments object at 0x74a085d9e010&#45;&gt;ast.arg object at 0x74a085d9dd90 -->
<g id="edge23" class="edge">
<title>ast.arguments object at 0x74a085d9e010&#45;&gt;ast.arg object at 0x74a085d9dd90</title>
<path fill="none" stroke="black" d="M597.19,-359.7C605.75,-351.14 616.23,-340.66 625.58,-331.3"/>
<polygon fill="black" stroke="black" points="628.19,-333.65 632.78,-324.1 623.24,-328.7 628.19,-333.65"/>
</g>
<!-- ast.Name object at 0x74a085d9ca10 -->
<g id="node22" class="node">
<title>ast.Name object at 0x74a085d9ca10</title>
<path fill="#66cdaa" stroke="black" d="M417.89,-324C417.89,-324 387.89,-324 387.89,-324 381.89,-324 375.89,-318 375.89,-312 375.89,-312 375.89,-300 375.89,-300 375.89,-294 381.89,-288 387.89,-288 387.89,-288 417.89,-288 417.89,-288 423.89,-288 429.89,-294 429.89,-300 429.89,-300 429.89,-312 429.89,-312 429.89,-318 423.89,-324 417.89,-324"/>
<text text-anchor="middle" x="402.89" y="-302.3" font-family="Times,serif" font-size="14.00">Name</text>
</g>
<!-- ast.While object at 0x74a085d9dd50&#45;&gt;ast.Name object at 0x74a085d9ca10 -->
<g id="edge25" class="edge">
<title>ast.While object at 0x74a085d9dd50&#45;&gt;ast.Name object at 0x74a085d9ca10</title>
<path fill="none" stroke="black" d="M474.4,-359.7C462.32,-350.8 447.43,-339.82 434.37,-330.2"/>
<polygon fill="black" stroke="black" points="436.23,-327.22 426.1,-324.1 432.07,-332.85 436.23,-327.22"/>
</g>
<!-- ast.Assign object at 0x74a085d9df50 -->
<g id="node23" class="node">
<title>ast.Assign object at 0x74a085d9df50</title>
<path fill="#66cdaa" stroke="black" d="M517.89,-324C517.89,-324 487.89,-324 487.89,-324 481.89,-324 475.89,-318 475.89,-312 475.89,-312 475.89,-300 475.89,-300 475.89,-294 481.89,-288 487.89,-288 487.89,-288 517.89,-288 517.89,-288 523.89,-288 529.89,-294 529.89,-300 529.89,-300 529.89,-312 529.89,-312 529.89,-318 523.89,-324 517.89,-324"/>
<text text-anchor="middle" x="502.89" y="-302.3" font-family="Times,serif" font-size="14.00">Assign</text>
</g>
<!-- ast.While object at 0x74a085d9dd50&#45;&gt;ast.Assign object at 0x74a085d9df50 -->
<g id="edge27" class="edge">
<title>ast.While object at 0x74a085d9dd50&#45;&gt;ast.Assign object at 0x74a085d9df50</title>
<path fill="none" stroke="black" d="M499.12,-359.7C499.67,-351.98 500.34,-342.71 500.95,-334.11"/>
<polygon fill="black" stroke="black" points="504.44,-334.33 501.66,-324.1 497.46,-333.83 504.44,-334.33"/>
</g>
<!-- ast.Name object at 0x74a085d9ca10&#45;&gt;ast.Load object at 0x74a0c1dc1c90 -->
<g id="edge26" class="edge">
<title>ast.Name object at 0x74a085d9ca10&#45;&gt;ast.Load object at 0x74a0c1dc1c90</title>
<path fill="none" stroke="black" d="M396.12,-287.95C380.98,-246.77 349.14,-140.25 394.89,-72 415.15,-41.77 456.07,-28.77 486.42,-23.19"/>
<polygon fill="black" stroke="black" points="487.36,-26.58 496.67,-21.5 486.23,-19.67 487.36,-26.58"/>
</g>
<!-- ast.Tuple object at 0x74a085d9dcd0 -->
<g id="node24" class="node">
<title>ast.Tuple object at 0x74a085d9dcd0</title>
<path fill="#66cdaa" stroke="black" d="M517.89,-252C517.89,-252 487.89,-252 487.89,-252 481.89,-252 475.89,-246 475.89,-240 475.89,-240 475.89,-228 475.89,-228 475.89,-222 481.89,-216 487.89,-216 487.89,-216 517.89,-216 517.89,-216 523.89,-216 529.89,-222 529.89,-228 529.89,-228 529.89,-240 529.89,-240 529.89,-246 523.89,-252 517.89,-252"/>
<text text-anchor="middle" x="502.89" y="-230.3" font-family="Times,serif" font-size="14.00">Tuple</text>
</g>
<!-- ast.Assign object at 0x74a085d9df50&#45;&gt;ast.Tuple object at 0x74a085d9dcd0 -->
<g id="edge28" class="edge">
<title>ast.Assign object at 0x74a085d9df50&#45;&gt;ast.Tuple object at 0x74a085d9dcd0</title>
<path fill="none" stroke="black" d="M502.89,-287.7C502.89,-279.98 502.89,-270.71 502.89,-262.11"/>
<polygon fill="black" stroke="black" points="506.39,-262.1 502.89,-252.1 499.39,-262.1 506.39,-262.1"/>
</g>
<!-- ast.Tuple object at 0x74a085d9e4d0 -->
<g id="node27" class="node">
<title>ast.Tuple object at 0x74a085d9e4d0</title>
<path fill="#66cdaa" stroke="black" d="M637.89,-252C637.89,-252 607.89,-252 607.89,-252 601.89,-252 595.89,-246 595.89,-240 595.89,-240 595.89,-228 595.89,-228 595.89,-222 601.89,-216 607.89,-216 607.89,-216 637.89,-216 637.89,-216 643.89,-216 649.89,-222 649.89,-228 649.89,-228 649.89,-240 649.89,-240 649.89,-246 643.89,-252 637.89,-252"/>
<text text-anchor="middle" x="622.89" y="-230.3" font-family="Times,serif" font-size="14.00">Tuple</text>
</g>
<!-- ast.Assign object at 0x74a085d9df50&#45;&gt;ast.Tuple object at 0x74a085d9e4d0 -->
<g id="edge34" class="edge">
<title>ast.Assign object at 0x74a085d9df50&#45;&gt;ast.Tuple object at 0x74a085d9e4d0</title>
<path fill="none" stroke="black" d="M530.12,-289.12C546.99,-279.27 568.86,-266.52 587.13,-255.86"/>
<polygon fill="black" stroke="black" points="588.89,-258.88 595.76,-250.82 585.36,-252.84 588.89,-258.88"/>
</g>
<!-- ast.Tuple object at 0x74a085d9dcd0&#45;&gt;ast.Store object at 0x74a0c1dc1d10 -->
<g id="edge33" class="edge">
<title>ast.Tuple object at 0x74a085d9dcd0&#45;&gt;ast.Store object at 0x74a0c1dc1d10</title>
<path fill="none" stroke="black" d="M519.09,-215.77C534.5,-197.2 553.34,-167.2 538.89,-144 534.66,-137.22 496.94,-119.63 467.25,-106.56"/>
<polygon fill="black" stroke="black" points="468.51,-103.29 457.94,-102.49 465.7,-109.7 468.51,-103.29"/>
</g>
<!-- ast.Name object at 0x74a085d9cb50 -->
<g id="node25" class="node">
<title>ast.Name object at 0x74a085d9cb50</title>
<path fill="#66cdaa" stroke="black" d="M445.89,-180C445.89,-180 415.89,-180 415.89,-180 409.89,-180 403.89,-174 403.89,-168 403.89,-168 403.89,-156 403.89,-156 403.89,-150 409.89,-144 415.89,-144 415.89,-144 445.89,-144 445.89,-144 451.89,-144 457.89,-150 457.89,-156 457.89,-156 457.89,-168 457.89,-168 457.89,-174 451.89,-180 445.89,-180"/>
<text text-anchor="middle" x="430.89" y="-158.3" font-family="Times,serif" font-size="14.00">Name</text>
</g>
<!-- ast.Tuple object at 0x74a085d9dcd0&#45;&gt;ast.Name object at 0x74a085d9cb50 -->
<g id="edge29" class="edge">
<title>ast.Tuple object at 0x74a085d9dcd0&#45;&gt;ast.Name object at 0x74a085d9cb50</title>
<path fill="none" stroke="black" d="M485.09,-215.7C476.28,-207.14 465.5,-196.66 455.89,-187.3"/>
<polygon fill="black" stroke="black" points="458.09,-184.57 448.48,-180.1 453.21,-189.58 458.09,-184.57"/>
</g>
<!-- ast.Name object at 0x74a085d9dc90 -->
<g id="node26" class="node">
<title>ast.Name object at 0x74a085d9dc90</title>
<path fill="#66cdaa" stroke="black" d="M517.89,-180C517.89,-180 487.89,-180 487.89,-180 481.89,-180 475.89,-174 475.89,-168 475.89,-168 475.89,-156 475.89,-156 475.89,-150 481.89,-144 487.89,-144 487.89,-144 517.89,-144 517.89,-144 523.89,-144 529.89,-150 529.89,-156 529.89,-156 529.89,-168 529.89,-168 529.89,-174 523.89,-180 517.89,-180"/>
<text text-anchor="middle" x="502.89" y="-158.3" font-family="Times,serif" font-size="14.00">Name</text>
</g>
<!-- ast.Tuple object at 0x74a085d9dcd0&#45;&gt;ast.Name object at 0x74a085d9dc90 -->
<g id="edge31" class="edge">
<title>ast.Tuple object at 0x74a085d9dcd0&#45;&gt;ast.Name object at 0x74a085d9dc90</title>
<path fill="none" stroke="black" d="M502.89,-215.7C502.89,-207.98 502.89,-198.71 502.89,-190.11"/>
<polygon fill="black" stroke="black" points="506.39,-190.1 502.89,-180.1 499.39,-190.1 506.39,-190.1"/>
</g>
<!-- ast.Name object at 0x74a085d9cb50&#45;&gt;ast.Store object at 0x74a0c1dc1d10 -->
<g id="edge30" class="edge">
<title>ast.Name object at 0x74a085d9cb50&#45;&gt;ast.Store object at 0x74a0c1dc1d10</title>
<path fill="none" stroke="black" d="M430.89,-143.7C430.89,-135.98 430.89,-126.71 430.89,-118.11"/>
<polygon fill="black" stroke="black" points="434.39,-118.1 430.89,-108.1 427.39,-118.1 434.39,-118.1"/>
</g>
<!-- ast.Name object at 0x74a085d9dc90&#45;&gt;ast.Store object at 0x74a0c1dc1d10 -->
<g id="edge32" class="edge">
<title>ast.Name object at 0x74a085d9dc90&#45;&gt;ast.Store object at 0x74a0c1dc1d10</title>
<path fill="none" stroke="black" d="M485.09,-143.7C476.28,-135.14 465.5,-124.66 455.89,-115.3"/>
<polygon fill="black" stroke="black" points="458.09,-112.57 448.48,-108.1 453.21,-117.58 458.09,-112.57"/>
</g>
<!-- ast.Tuple object at 0x74a085d9e4d0&#45;&gt;ast.Load object at 0x74a0c1dc1c90 -->
<g id="edge43" class="edge">
<title>ast.Tuple object at 0x74a085d9e4d0&#45;&gt;ast.Load object at 0x74a0c1dc1c90</title>
<path fill="none" stroke="black" d="M610.47,-215.98C597.1,-197.85 575.05,-168.45 554.89,-144 541.27,-127.48 530.49,-128.01 522.89,-108 515.36,-88.2 516.18,-64.08 518.57,-45.95"/>
<polygon fill="black" stroke="black" points="522.03,-46.46 520.1,-36.04 515.11,-45.39 522.03,-46.46"/>
</g>
<!-- ast.Name object at 0x74a085d9e810 -->
<g id="node28" class="node">
<title>ast.Name object at 0x74a085d9e810</title>
<path fill="#66cdaa" stroke="black" d="M665.89,-180C665.89,-180 635.89,-180 635.89,-180 629.89,-180 623.89,-174 623.89,-168 623.89,-168 623.89,-156 623.89,-156 623.89,-150 629.89,-144 635.89,-144 635.89,-144 665.89,-144 665.89,-144 671.89,-144 677.89,-150 677.89,-156 677.89,-156 677.89,-168 677.89,-168 677.89,-174 671.89,-180 665.89,-180"/>
<text text-anchor="middle" x="650.89" y="-158.3" font-family="Times,serif" font-size="14.00">Name</text>
</g>
<!-- ast.Tuple object at 0x74a085d9e4d0&#45;&gt;ast.Name object at 0x74a085d9e810 -->
<g id="edge35" class="edge">
<title>ast.Tuple object at 0x74a085d9e4d0&#45;&gt;ast.Name object at 0x74a085d9e810</title>
<path fill="none" stroke="black" d="M629.81,-215.7C632.96,-207.81 636.76,-198.3 640.27,-189.55"/>
<polygon fill="black" stroke="black" points="643.58,-190.69 644.04,-180.1 637.08,-188.09 643.58,-190.69"/>
</g>
<!-- ast.BinOp object at 0x74a085d9d990 -->
<g id="node29" class="node">
<title>ast.BinOp object at 0x74a085d9d990</title>
<path fill="#66cdaa" stroke="black" d="M737.89,-180C737.89,-180 707.89,-180 707.89,-180 701.89,-180 695.89,-174 695.89,-168 695.89,-168 695.89,-156 695.89,-156 695.89,-150 701.89,-144 707.89,-144 707.89,-144 737.89,-144 737.89,-144 743.89,-144 749.89,-150 749.89,-156 749.89,-156 749.89,-168 749.89,-168 749.89,-174 743.89,-180 737.89,-180"/>
<text text-anchor="middle" x="722.89" y="-158.3" font-family="Times,serif" font-size="14.00">BinOp</text>
</g>
<!-- ast.Tuple object at 0x74a085d9e4d0&#45;&gt;ast.BinOp object at 0x74a085d9d990 -->
<g id="edge37" class="edge">
<title>ast.Tuple object at 0x74a085d9e4d0&#45;&gt;ast.BinOp object at 0x74a085d9d990</title>
<path fill="none" stroke="black" d="M647.35,-215.88C660.18,-206.89 676.08,-195.76 689.98,-186.03"/>
<polygon fill="black" stroke="black" points="692.14,-188.79 698.33,-180.19 688.13,-183.06 692.14,-188.79"/>
</g>
<!-- ast.Name object at 0x74a085d9e810&#45;&gt;ast.Load object at 0x74a0c1dc1c90 -->
<g id="edge36" class="edge">
<title>ast.Name object at 0x74a085d9e810&#45;&gt;ast.Load object at 0x74a0c1dc1c90</title>
<path fill="none" stroke="black" d="M623.83,-149.21C593.64,-135.83 548.31,-114.96 542.89,-108 529.26,-90.53 524.86,-65.49 523.67,-46.41"/>
<polygon fill="black" stroke="black" points="527.16,-46.11 523.29,-36.25 520.16,-46.37 527.16,-46.11"/>
</g>
<!-- ast.Name object at 0x74a085d9db50 -->
<g id="node30" class="node">
<title>ast.Name object at 0x74a085d9db50</title>
<path fill="#66cdaa" stroke="black" d="M665.89,-108C665.89,-108 635.89,-108 635.89,-108 629.89,-108 623.89,-102 623.89,-96 623.89,-96 623.89,-84 623.89,-84 623.89,-78 629.89,-72 635.89,-72 635.89,-72 665.89,-72 665.89,-72 671.89,-72 677.89,-78 677.89,-84 677.89,-84 677.89,-96 677.89,-96 677.89,-102 671.89,-108 665.89,-108"/>
<text text-anchor="middle" x="650.89" y="-86.3" font-family="Times,serif" font-size="14.00">Name</text>
</g>
<!-- ast.BinOp object at 0x74a085d9d990&#45;&gt;ast.Name object at 0x74a085d9db50 -->
<g id="edge38" class="edge">
<title>ast.BinOp object at 0x74a085d9d990&#45;&gt;ast.Name object at 0x74a085d9db50</title>
<path fill="none" stroke="black" d="M705.09,-143.7C696.28,-135.14 685.5,-124.66 675.89,-115.3"/>
<polygon fill="black" stroke="black" points="678.09,-112.57 668.48,-108.1 673.21,-117.58 678.09,-112.57"/>
</g>
<!-- ast.Mod object at 0x74a0c1dc2410 -->
<g id="node31" class="node">
<title>ast.Mod object at 0x74a0c1dc2410</title>
<path fill="#66cdaa" stroke="black" d="M593.89,-108C593.89,-108 563.89,-108 563.89,-108 557.89,-108 551.89,-102 551.89,-96 551.89,-96 551.89,-84 551.89,-84 551.89,-78 557.89,-72 563.89,-72 563.89,-72 593.89,-72 593.89,-72 599.89,-72 605.89,-78 605.89,-84 605.89,-84 605.89,-96 605.89,-96 605.89,-102 599.89,-108 593.89,-108"/>
<text text-anchor="middle" x="578.89" y="-86.3" font-family="Times,serif" font-size="14.00">Mod</text>
</g>
<!-- ast.BinOp object at 0x74a085d9d990&#45;&gt;ast.Mod object at 0x74a0c1dc2410 -->
<g id="edge40" class="edge">
<title>ast.BinOp object at 0x74a085d9d990&#45;&gt;ast.Mod object at 0x74a0c1dc2410</title>
<path fill="none" stroke="black" d="M695.8,-147.83C673.12,-136.81 640.53,-120.97 615.52,-108.81"/>
<polygon fill="black" stroke="black" points="616.86,-105.57 606.34,-104.35 613.8,-111.87 616.86,-105.57"/>
</g>
<!-- ast.Name object at 0x74a085d9eb90 -->
<g id="node32" class="node">
<title>ast.Name object at 0x74a085d9eb90</title>
<path fill="#66cdaa" stroke="black" d="M737.89,-108C737.89,-108 707.89,-108 707.89,-108 701.89,-108 695.89,-102 695.89,-96 695.89,-96 695.89,-84 695.89,-84 695.89,-78 701.89,-72 707.89,-72 707.89,-72 737.89,-72 737.89,-72 743.89,-72 749.89,-78 749.89,-84 749.89,-84 749.89,-96 749.89,-96 749.89,-102 743.89,-108 737.89,-108"/>
<text text-anchor="middle" x="722.89" y="-86.3" font-family="Times,serif" font-size="14.00">Name</text>
</g>
<!-- ast.BinOp object at 0x74a085d9d990&#45;&gt;ast.Name object at 0x74a085d9eb90 -->
<g id="edge41" class="edge">
<title>ast.BinOp object at 0x74a085d9d990&#45;&gt;ast.Name object at 0x74a085d9eb90</title>
<path fill="none" stroke="black" d="M722.89,-143.7C722.89,-135.98 722.89,-126.71 722.89,-118.11"/>
<polygon fill="black" stroke="black" points="726.39,-118.1 722.89,-108.1 719.39,-118.1 726.39,-118.1"/>
</g>
<!-- ast.Name object at 0x74a085d9db50&#45;&gt;ast.Load object at 0x74a0c1dc1c90 -->
<g id="edge39" class="edge">
<title>ast.Name object at 0x74a085d9db50&#45;&gt;ast.Load object at 0x74a0c1dc1c90</title>
<path fill="none" stroke="black" d="M623.64,-73.98C605.06,-63.74 580.25,-50.07 560.02,-38.92"/>
<polygon fill="black" stroke="black" points="561.53,-35.75 551.09,-33.99 558.15,-41.88 561.53,-35.75"/>
</g>
<!-- ast.Name object at 0x74a085d9eb90&#45;&gt;ast.Load object at 0x74a0c1dc1c90 -->
<g id="edge42" class="edge">
<title>ast.Name object at 0x74a085d9eb90&#45;&gt;ast.Load object at 0x74a0c1dc1c90</title>
<path fill="none" stroke="black" d="M695.53,-75.64C692.63,-74.36 689.71,-73.12 686.89,-72 644.4,-55.14 594.21,-39.43 560.86,-29.56"/>
<polygon fill="black" stroke="black" points="561.66,-26.15 551.08,-26.69 559.69,-32.87 561.66,-26.15"/>
</g>
<!-- ast.Name object at 0x74a085d9eb10 -->
<g id="node34" class="node">
<title>ast.Name object at 0x74a085d9eb10</title>
<path fill="#66cdaa" stroke="black" d="M783.89,-324C783.89,-324 753.89,-324 753.89,-324 747.89,-324 741.89,-318 741.89,-312 741.89,-312 741.89,-300 741.89,-300 741.89,-294 747.89,-288 753.89,-288 753.89,-288 783.89,-288 783.89,-288 789.89,-288 795.89,-294 795.89,-300 795.89,-300 795.89,-312 795.89,-312 795.89,-318 789.89,-324 783.89,-324"/>
<text text-anchor="middle" x="768.89" y="-302.3" font-family="Times,serif" font-size="14.00">Name</text>
</g>
<!-- ast.Return object at 0x74a085d9cf10&#45;&gt;ast.Name object at 0x74a085d9eb10 -->
<g id="edge45" class="edge">
<title>ast.Return object at 0x74a085d9cf10&#45;&gt;ast.Name object at 0x74a085d9eb10</title>
<path fill="none" stroke="black" d="M728.99,-359.7C735.28,-351.39 742.93,-341.28 749.85,-332.14"/>
<polygon fill="black" stroke="black" points="752.69,-334.19 755.94,-324.1 747.11,-329.96 752.69,-334.19"/>
</g>
<!-- ast.Name object at 0x74a085d9eb10&#45;&gt;ast.Load object at 0x74a0c1dc1c90 -->
<g id="edge46" class="edge">
<title>ast.Name object at 0x74a085d9eb10&#45;&gt;ast.Load object at 0x74a0c1dc1c90</title>
<path fill="none" stroke="black" d="M774.37,-287.91C786.75,-245.71 811.84,-135.39 758.89,-72 733.91,-42.1 620.81,-27.65 561.09,-22"/>
<polygon fill="black" stroke="black" points="561.22,-18.49 550.94,-21.07 560.59,-25.47 561.22,-18.49"/>
</g>
<!-- ast.Call object at 0x74a085d9dad0 -->
<g id="node36" class="node">
<title>ast.Call object at 0x74a085d9dad0</title>
<path fill="#66cdaa" stroke="black" d="M883.89,-180C883.89,-180 853.89,-180 853.89,-180 847.89,-180 841.89,-174 841.89,-168 841.89,-168 841.89,-156 841.89,-156 841.89,-150 847.89,-144 853.89,-144 853.89,-144 883.89,-144 883.89,-144 889.89,-144 895.89,-150 895.89,-156 895.89,-156 895.89,-168 895.89,-168 895.89,-174 889.89,-180 883.89,-180"/>
<text text-anchor="middle" x="868.89" y="-158.3" font-family="Times,serif" font-size="14.00">Call</text>
</g>
<!-- ast.Return object at 0x74a085d9d910&#45;&gt;ast.Call object at 0x74a085d9dad0 -->
<g id="edge48" class="edge">
<title>ast.Return object at 0x74a085d9d910&#45;&gt;ast.Call object at 0x74a085d9dad0</title>
<path fill="none" stroke="black" d="M754.44,-431.77C766.24,-407.8 787.97,-362.96 804.89,-324 825.21,-277.2 846.7,-221.72 858.89,-189.63"/>
<polygon fill="black" stroke="black" points="862.24,-190.66 862.51,-180.07 855.69,-188.18 862.24,-190.66"/>
</g>
<!-- ast.Name object at 0x74a085d9e950 -->
<g id="node37" class="node">
<title>ast.Name object at 0x74a085d9e950</title>
<path fill="#66cdaa" stroke="black" d="M991.89,-108C991.89,-108 961.89,-108 961.89,-108 955.89,-108 949.89,-102 949.89,-96 949.89,-96 949.89,-84 949.89,-84 949.89,-78 955.89,-72 961.89,-72 961.89,-72 991.89,-72 991.89,-72 997.89,-72 1003.89,-78 1003.89,-84 1003.89,-84 1003.89,-96 1003.89,-96 1003.89,-102 997.89,-108 991.89,-108"/>
<text text-anchor="middle" x="976.89" y="-86.3" font-family="Times,serif" font-size="14.00">Name</text>
</g>
<!-- ast.Call object at 0x74a085d9dad0&#45;&gt;ast.Name object at 0x74a085d9e950 -->
<g id="edge49" class="edge">
<title>ast.Call object at 0x74a085d9dad0&#45;&gt;ast.Name object at 0x74a085d9e950</title>
<path fill="none" stroke="black" d="M895.31,-143.88C909.3,-134.81 926.66,-123.55 941.77,-113.76"/>
<polygon fill="black" stroke="black" points="943.88,-116.57 950.37,-108.19 940.07,-110.69 943.88,-116.57"/>
</g>
<!-- ast.Name object at 0x74a085d9e350 -->
<g id="node38" class="node">
<title>ast.Name object at 0x74a085d9e350</title>
<path fill="#66cdaa" stroke="black" d="M847.89,-108C847.89,-108 817.89,-108 817.89,-108 811.89,-108 805.89,-102 805.89,-96 805.89,-96 805.89,-84 805.89,-84 805.89,-78 811.89,-72 817.89,-72 817.89,-72 847.89,-72 847.89,-72 853.89,-72 859.89,-78 859.89,-84 859.89,-84 859.89,-96 859.89,-96 859.89,-102 853.89,-108 847.89,-108"/>
<text text-anchor="middle" x="832.89" y="-86.3" font-family="Times,serif" font-size="14.00">Name</text>
</g>
<!-- ast.Call object at 0x74a085d9dad0&#45;&gt;ast.Name object at 0x74a085d9e350 -->
<g id="edge51" class="edge">
<title>ast.Call object at 0x74a085d9dad0&#45;&gt;ast.Name object at 0x74a085d9e350</title>
<path fill="none" stroke="black" d="M859.99,-143.7C855.89,-135.73 850.94,-126.1 846.39,-117.26"/>
<polygon fill="black" stroke="black" points="849.37,-115.4 841.68,-108.1 843.14,-118.6 849.37,-115.4"/>
</g>
<!-- ast.Name object at 0x74a085d9d310 -->
<g id="node39" class="node">
<title>ast.Name object at 0x74a085d9d310</title>
<path fill="#66cdaa" stroke="black" d="M919.89,-108C919.89,-108 889.89,-108 889.89,-108 883.89,-108 877.89,-102 877.89,-96 877.89,-96 877.89,-84 877.89,-84 877.89,-78 883.89,-72 889.89,-72 889.89,-72 919.89,-72 919.89,-72 925.89,-72 931.89,-78 931.89,-84 931.89,-84 931.89,-96 931.89,-96 931.89,-102 925.89,-108 919.89,-108"/>
<text text-anchor="middle" x="904.89" y="-86.3" font-family="Times,serif" font-size="14.00">Name</text>
</g>
<!-- ast.Call object at 0x74a085d9dad0&#45;&gt;ast.Name object at 0x74a085d9d310 -->
<g id="edge53" class="edge">
<title>ast.Call object at 0x74a085d9dad0&#45;&gt;ast.Name object at 0x74a085d9d310</title>
<path fill="none" stroke="black" d="M877.79,-143.7C881.88,-135.73 886.84,-126.1 891.38,-117.26"/>
<polygon fill="black" stroke="black" points="894.63,-118.6 896.09,-108.1 888.4,-115.4 894.63,-118.6"/>
</g>
<!-- ast.Name object at 0x74a085d9e950&#45;&gt;ast.Load object at 0x74a0c1dc1c90 -->
<g id="edge50" class="edge">
<title>ast.Name object at 0x74a085d9e950&#45;&gt;ast.Load object at 0x74a0c1dc1c90</title>
<path fill="none" stroke="black" d="M949.72,-75.09C946.79,-73.91 943.81,-72.85 940.89,-72 804.83,-32.32 635.23,-22.34 561.27,-19.84"/>
<polygon fill="black" stroke="black" points="561.17,-16.33 551.07,-19.52 560.96,-23.33 561.17,-16.33"/>
</g>
<!-- ast.Name object at 0x74a085d9e350&#45;&gt;ast.Load object at 0x74a0c1dc1c90 -->
<g id="edge52" class="edge">
<title>ast.Name object at 0x74a085d9e350&#45;&gt;ast.Load object at 0x74a0c1dc1c90</title>
<path fill="none" stroke="black" d="M805.81,-76.89C801.22,-75.1 796.46,-73.39 791.89,-72 711.2,-47.56 613.35,-31.51 561.08,-23.98"/>
<polygon fill="black" stroke="black" points="561.34,-20.48 550.94,-22.54 560.35,-27.41 561.34,-20.48"/>
</g>
<!-- ast.Name object at 0x74a085d9d310&#45;&gt;ast.Load object at 0x74a0c1dc1c90 -->
<g id="edge54" class="edge">
<title>ast.Name object at 0x74a085d9d310&#45;&gt;ast.Load object at 0x74a0c1dc1c90</title>
<path fill="none" stroke="black" d="M877.69,-75.16C874.77,-73.98 871.79,-72.89 868.89,-72 760.2,-38.76 625.58,-25.78 561.37,-21.21"/>
<polygon fill="black" stroke="black" points="561.54,-17.71 551.32,-20.53 561.06,-24.7 561.54,-17.71"/>
</g>
</g>
</svg>
