<?xml version="1.0" encoding="UTF-8" standalone="no"?>
<!DOCTYPE svg PUBLIC "-//W3C//DTD SVG 1.1//EN"
 "http://www.w3.org/Graphics/SVG/1.1/DTD/svg11.dtd">
<!-- Generated by graphviz version 2.50.0 (0)
 -->
<!-- Pages: 1 -->
<svg width="972pt" height="548pt"
 viewBox="0.00 0.00 972.00 548.00" xmlns="http://www.w3.org/2000/svg" xmlns:xlink="http://www.w3.org/1999/xlink">
<g id="graph0" class="graph" transform="scale(1 1) rotate(0) translate(4 544)">
<polygon fill="white" stroke="transparent" points="-4,4 -4,-544 968,-544 968,4 -4,4"/>
<!-- ast.Module object at 0x781310571d50 -->
<g id="node1" class="node">
<title>ast.Module object at 0x781310571d50</title>
<path fill="#66cdaa" stroke="black" d="M550.5,-540C550.5,-540 515.5,-540 515.5,-540 509.5,-540 503.5,-534 503.5,-528 503.5,-528 503.5,-516 503.5,-516 503.5,-510 509.5,-504 515.5,-504 515.5,-504 550.5,-504 550.5,-504 556.5,-504 562.5,-510 562.5,-516 562.5,-516 562.5,-528 562.5,-528 562.5,-534 556.5,-540 550.5,-540"/>
<text text-anchor="middle" x="533" y="-518.3" font-family="Times,serif" font-size="14.00">Module</text>
</g>
<!-- ast.FunctionDef object at 0x781310573410 -->
<g id="node2" class="node">
<title>ast.FunctionDef object at 0x781310573410</title>
<path fill="#66cdaa" stroke="black" d="M563.5,-468C563.5,-468 502.5,-468 502.5,-468 496.5,-468 490.5,-462 490.5,-456 490.5,-456 490.5,-444 490.5,-444 490.5,-438 496.5,-432 502.5,-432 502.5,-432 563.5,-432 563.5,-432 569.5,-432 575.5,-438 575.5,-444 575.5,-444 575.5,-456 575.5,-456 575.5,-462 569.5,-468 563.5,-468"/>
<text text-anchor="middle" x="533" y="-446.3" font-family="Times,serif" font-size="14.00">FunctionDef</text>
</g>
<!-- ast.Module object at 0x781310571d50&#45;&gt;ast.FunctionDef object at 0x781310573410 -->
<g id="edge1" class="edge">
<title>ast.Module object at 0x781310571d50&#45;&gt;ast.FunctionDef object at 0x781310573410</title>
<path fill="none" stroke="black" d="M533,-503.7C533,-495.98 533,-486.71 533,-478.11"/>
<polygon fill="black" stroke="black" points="536.5,-478.1 533,-468.1 529.5,-478.1 536.5,-478.1"/>
</g>
<!-- ast.arguments object at 0x781310570d90 -->
<g id="node3" class="node">
<title>ast.arguments object at 0x781310570d90</title>
<path fill="#66cdaa" stroke="black" d="M160,-396C160,-396 110,-396 110,-396 104,-396 98,-390 98,-384 98,-384 98,-372 98,-372 98,-366 104,-360 110,-360 110,-360 160,-360 160,-360 166,-360 172,-366 172,-372 172,-372 172,-384 172,-384 172,-390 166,-396 160,-396"/>
<text text-anchor="middle" x="135" y="-374.3" font-family="Times,serif" font-size="14.00">arguments</text>
</g>
<!-- ast.FunctionDef object at 0x781310573410&#45;&gt;ast.arguments object at 0x781310570d90 -->
<g id="edge2" class="edge">
<title>ast.FunctionDef object at 0x781310573410&#45;&gt;ast.arguments object at 0x781310570d90</title>
<path fill="none" stroke="black" d="M490.41,-441.51C415.37,-428.31 260.17,-401.02 182.07,-387.28"/>
<polygon fill="black" stroke="black" points="182.48,-383.8 172.03,-385.51 181.27,-390.69 182.48,-383.8"/>
</g>
<!-- ast.Assign object at 0x781310572050 -->
<g id="node7" class="node">
<title>ast.Assign object at 0x781310572050</title>
<path fill="#66cdaa" stroke="black" d="M440,-396C440,-396 410,-396 410,-396 404,-396 398,-390 398,-384 398,-384 398,-372 398,-372 398,-366 404,-360 410,-360 410,-360 440,-360 440,-360 446,-360 452,-366 452,-372 452,-372 452,-384 452,-384 452,-390 446,-396 440,-396"/>
<text text-anchor="middle" x="425" y="-374.3" font-family="Times,serif" font-size="14.00">Assign</text>
</g>
<!-- ast.FunctionDef object at 0x781310573410&#45;&gt;ast.Assign object at 0x781310572050 -->
<g id="edge6" class="edge">
<title>ast.FunctionDef object at 0x781310573410&#45;&gt;ast.Assign object at 0x781310572050</title>
<path fill="none" stroke="black" d="M506.58,-431.88C492.59,-422.81 475.22,-411.55 460.11,-401.76"/>
<polygon fill="black" stroke="black" points="461.82,-398.69 451.52,-396.19 458.01,-404.57 461.82,-398.69"/>
</g>
<!-- ast.For object at 0x7813105a1b90 -->
<g id="node13" class="node">
<title>ast.For object at 0x7813105a1b90</title>
<path fill="#66cdaa" stroke="black" d="M512,-396C512,-396 482,-396 482,-396 476,-396 470,-390 470,-384 470,-384 470,-372 470,-372 470,-366 476,-360 482,-360 482,-360 512,-360 512,-360 518,-360 524,-366 524,-372 524,-372 524,-384 524,-384 524,-390 518,-396 512,-396"/>
<text text-anchor="middle" x="497" y="-374.3" font-family="Times,serif" font-size="14.00">For</text>
</g>
<!-- ast.FunctionDef object at 0x781310573410&#45;&gt;ast.For object at 0x7813105a1b90 -->
<g id="edge12" class="edge">
<title>ast.FunctionDef object at 0x781310573410&#45;&gt;ast.For object at 0x7813105a1b90</title>
<path fill="none" stroke="black" d="M524.1,-431.7C520,-423.73 515.05,-414.1 510.51,-405.26"/>
<polygon fill="black" stroke="black" points="513.48,-403.4 505.8,-396.1 507.26,-406.6 513.48,-403.4"/>
</g>
<!-- ast.For object at 0x7813105a1e50 -->
<g id="node21" class="node">
<title>ast.For object at 0x7813105a1e50</title>
<path fill="#66cdaa" stroke="black" d="M620,-396C620,-396 590,-396 590,-396 584,-396 578,-390 578,-384 578,-384 578,-372 578,-372 578,-366 584,-360 590,-360 590,-360 620,-360 620,-360 626,-360 632,-366 632,-372 632,-372 632,-384 632,-384 632,-390 626,-396 620,-396"/>
<text text-anchor="middle" x="605" y="-374.3" font-family="Times,serif" font-size="14.00">For</text>
</g>
<!-- ast.FunctionDef object at 0x781310573410&#45;&gt;ast.For object at 0x7813105a1e50 -->
<g id="edge25" class="edge">
<title>ast.FunctionDef object at 0x781310573410&#45;&gt;ast.For object at 0x7813105a1e50</title>
<path fill="none" stroke="black" d="M550.8,-431.7C559.6,-423.14 570.38,-412.66 580,-403.3"/>
<polygon fill="black" stroke="black" points="582.68,-405.58 587.41,-396.1 577.8,-400.57 582.68,-405.58"/>
</g>
<!-- ast.For object at 0x7813105a1910 -->
<g id="node29" class="node">
<title>ast.For object at 0x7813105a1910</title>
<path fill="#66cdaa" stroke="black" d="M793,-396C793,-396 763,-396 763,-396 757,-396 751,-390 751,-384 751,-384 751,-372 751,-372 751,-366 757,-360 763,-360 763,-360 793,-360 793,-360 799,-360 805,-366 805,-372 805,-372 805,-384 805,-384 805,-390 799,-396 793,-396"/>
<text text-anchor="middle" x="778" y="-374.3" font-family="Times,serif" font-size="14.00">For</text>
</g>
<!-- ast.FunctionDef object at 0x781310573410&#45;&gt;ast.For object at 0x7813105a1910 -->
<g id="edge38" class="edge">
<title>ast.FunctionDef object at 0x781310573410&#45;&gt;ast.For object at 0x7813105a1910</title>
<path fill="none" stroke="black" d="M575.68,-436.81C622.48,-423.43 696.83,-402.19 741.17,-389.52"/>
<polygon fill="black" stroke="black" points="742.31,-392.84 750.96,-386.73 740.39,-386.11 742.31,-392.84"/>
</g>
<!-- ast.Return object at 0x7813105a3a90 -->
<g id="node37" class="node">
<title>ast.Return object at 0x7813105a3a90</title>
<path fill="#66cdaa" stroke="black" d="M919,-396C919,-396 889,-396 889,-396 883,-396 877,-390 877,-384 877,-384 877,-372 877,-372 877,-366 883,-360 889,-360 889,-360 919,-360 919,-360 925,-360 931,-366 931,-372 931,-372 931,-384 931,-384 931,-390 925,-396 919,-396"/>
<text text-anchor="middle" x="904" y="-374.3" font-family="Times,serif" font-size="14.00">Return</text>
</g>
<!-- ast.FunctionDef object at 0x781310573410&#45;&gt;ast.Return object at 0x7813105a3a90 -->
<g id="edge51" class="edge">
<title>ast.FunctionDef object at 0x781310573410&#45;&gt;ast.Return object at 0x7813105a3a90</title>
<path fill="none" stroke="black" d="M575.85,-440.92C630.95,-430.53 729.6,-411.93 814,-396 831.3,-392.73 850.48,-389.11 866.67,-386.05"/>
<polygon fill="black" stroke="black" points="867.65,-389.43 876.83,-384.13 866.35,-382.55 867.65,-389.43"/>
</g>
<!-- ast.arg object at 0x781310571f90 -->
<g id="node4" class="node">
<title>ast.arg object at 0x781310571f90</title>
<path fill="#66cdaa" stroke="black" d="M42,-324C42,-324 12,-324 12,-324 6,-324 0,-318 0,-312 0,-312 0,-300 0,-300 0,-294 6,-288 12,-288 12,-288 42,-288 42,-288 48,-288 54,-294 54,-300 54,-300 54,-312 54,-312 54,-318 48,-324 42,-324"/>
<text text-anchor="middle" x="27" y="-302.3" font-family="Times,serif" font-size="14.00">arg</text>
</g>
<!-- ast.arguments object at 0x781310570d90&#45;&gt;ast.arg object at 0x781310571f90 -->
<g id="edge3" class="edge">
<title>ast.arguments object at 0x781310570d90&#45;&gt;ast.arg object at 0x781310571f90</title>
<path fill="none" stroke="black" d="M108.58,-359.88C94.59,-350.81 77.22,-339.55 62.11,-329.76"/>
<polygon fill="black" stroke="black" points="63.82,-326.69 53.52,-324.19 60.01,-332.57 63.82,-326.69"/>
</g>
<!-- ast.arg object at 0x781310572c50 -->
<g id="node5" class="node">
<title>ast.arg object at 0x781310572c50</title>
<path fill="#66cdaa" stroke="black" d="M114,-324C114,-324 84,-324 84,-324 78,-324 72,-318 72,-312 72,-312 72,-300 72,-300 72,-294 78,-288 84,-288 84,-288 114,-288 114,-288 120,-288 126,-294 126,-300 126,-300 126,-312 126,-312 126,-318 120,-324 114,-324"/>
<text text-anchor="middle" x="99" y="-302.3" font-family="Times,serif" font-size="14.00">arg</text>
</g>
<!-- ast.arguments object at 0x781310570d90&#45;&gt;ast.arg object at 0x781310572c50 -->
<g id="edge4" class="edge">
<title>ast.arguments object at 0x781310570d90&#45;&gt;ast.arg object at 0x781310572c50</title>
<path fill="none" stroke="black" d="M126.1,-359.7C122,-351.73 117.05,-342.1 112.51,-333.26"/>
<polygon fill="black" stroke="black" points="115.48,-331.4 107.8,-324.1 109.26,-334.6 115.48,-331.4"/>
</g>
<!-- ast.arg object at 0x781310571210 -->
<g id="node6" class="node">
<title>ast.arg object at 0x781310571210</title>
<path fill="#66cdaa" stroke="black" d="M186,-324C186,-324 156,-324 156,-324 150,-324 144,-318 144,-312 144,-312 144,-300 144,-300 144,-294 150,-288 156,-288 156,-288 186,-288 186,-288 192,-288 198,-294 198,-300 198,-300 198,-312 198,-312 198,-318 192,-324 186,-324"/>
<text text-anchor="middle" x="171" y="-302.3" font-family="Times,serif" font-size="14.00">arg</text>
</g>
<!-- ast.arguments object at 0x781310570d90&#45;&gt;ast.arg object at 0x781310571210 -->
<g id="edge5" class="edge">
<title>ast.arguments object at 0x781310570d90&#45;&gt;ast.arg object at 0x781310571210</title>
<path fill="none" stroke="black" d="M143.9,-359.7C148,-351.73 152.95,-342.1 157.49,-333.26"/>
<polygon fill="black" stroke="black" points="160.74,-334.6 162.2,-324.1 154.52,-331.4 160.74,-334.6"/>
</g>
<!-- ast.Name object at 0x7813105a3850 -->
<g id="node8" class="node">
<title>ast.Name object at 0x7813105a3850</title>
<path fill="#66cdaa" stroke="black" d="M440,-324C440,-324 410,-324 410,-324 404,-324 398,-318 398,-312 398,-312 398,-300 398,-300 398,-294 404,-288 410,-288 410,-288 440,-288 440,-288 446,-288 452,-294 452,-300 452,-300 452,-312 452,-312 452,-318 446,-324 440,-324"/>
<text text-anchor="middle" x="425" y="-302.3" font-family="Times,serif" font-size="14.00">Name</text>
</g>
<!-- ast.Assign object at 0x781310572050&#45;&gt;ast.Name object at 0x7813105a3850 -->
<g id="edge7" class="edge">
<title>ast.Assign object at 0x781310572050&#45;&gt;ast.Name object at 0x7813105a3850</title>
<path fill="none" stroke="black" d="M425,-359.7C425,-351.98 425,-342.71 425,-334.11"/>
<polygon fill="black" stroke="black" points="428.5,-334.1 425,-324.1 421.5,-334.1 428.5,-334.1"/>
</g>
<!-- ast.Call object at 0x7813105a2810 -->
<g id="node10" class="node">
<title>ast.Call object at 0x7813105a2810</title>
<path fill="#66cdaa" stroke="black" d="M258,-324C258,-324 228,-324 228,-324 222,-324 216,-318 216,-312 216,-312 216,-300 216,-300 216,-294 222,-288 228,-288 228,-288 258,-288 258,-288 264,-288 270,-294 270,-300 270,-300 270,-312 270,-312 270,-318 264,-324 258,-324"/>
<text text-anchor="middle" x="243" y="-302.3" font-family="Times,serif" font-size="14.00">Call</text>
</g>
<!-- ast.Assign object at 0x781310572050&#45;&gt;ast.Call object at 0x7813105a2810 -->
<g id="edge9" class="edge">
<title>ast.Assign object at 0x781310572050&#45;&gt;ast.Call object at 0x7813105a2810</title>
<path fill="none" stroke="black" d="M397.87,-367.11C369.4,-356.66 323.4,-339.57 284,-324 282.61,-323.45 281.2,-322.89 279.77,-322.32"/>
<polygon fill="black" stroke="black" points="280.88,-318.99 270.3,-318.47 278.24,-325.47 280.88,-318.99"/>
</g>
<!-- ast.Store object at 0x78131643bb10 -->
<g id="node9" class="node">
<title>ast.Store object at 0x78131643bb10</title>
<path fill="#66cdaa" stroke="black" d="M539,-252C539,-252 509,-252 509,-252 503,-252 497,-246 497,-240 497,-240 497,-228 497,-228 497,-222 503,-216 509,-216 509,-216 539,-216 539,-216 545,-216 551,-222 551,-228 551,-228 551,-240 551,-240 551,-246 545,-252 539,-252"/>
<text text-anchor="middle" x="524" y="-230.3" font-family="Times,serif" font-size="14.00">Store</text>
</g>
<!-- ast.Name object at 0x7813105a3850&#45;&gt;ast.Store object at 0x78131643bb10 -->
<g id="edge8" class="edge">
<title>ast.Name object at 0x7813105a3850&#45;&gt;ast.Store object at 0x78131643bb10</title>
<path fill="none" stroke="black" d="M449.22,-287.88C461.92,-278.89 477.66,-267.76 491.42,-258.03"/>
<polygon fill="black" stroke="black" points="493.54,-260.82 499.69,-252.19 489.5,-255.11 493.54,-260.82"/>
</g>
<!-- ast.Name object at 0x7813105a1d50 -->
<g id="node11" class="node">
<title>ast.Name object at 0x7813105a1d50</title>
<path fill="#66cdaa" stroke="black" d="M258,-252C258,-252 228,-252 228,-252 222,-252 216,-246 216,-240 216,-240 216,-228 216,-228 216,-222 222,-216 228,-216 228,-216 258,-216 258,-216 264,-216 270,-222 270,-228 270,-228 270,-240 270,-240 270,-246 264,-252 258,-252"/>
<text text-anchor="middle" x="243" y="-230.3" font-family="Times,serif" font-size="14.00">Name</text>
</g>
<!-- ast.Call object at 0x7813105a2810&#45;&gt;ast.Name object at 0x7813105a1d50 -->
<g id="edge10" class="edge">
<title>ast.Call object at 0x7813105a2810&#45;&gt;ast.Name object at 0x7813105a1d50</title>
<path fill="none" stroke="black" d="M243,-287.7C243,-279.98 243,-270.71 243,-262.11"/>
<polygon fill="black" stroke="black" points="246.5,-262.1 243,-252.1 239.5,-262.1 246.5,-262.1"/>
</g>
<!-- ast.Load object at 0x78131643ba90 -->
<g id="node12" class="node">
<title>ast.Load object at 0x78131643ba90</title>
<path fill="#66cdaa" stroke="black" d="M611,-36C611,-36 581,-36 581,-36 575,-36 569,-30 569,-24 569,-24 569,-12 569,-12 569,-6 575,0 581,0 581,0 611,0 611,0 617,0 623,-6 623,-12 623,-12 623,-24 623,-24 623,-30 617,-36 611,-36"/>
<text text-anchor="middle" x="596" y="-14.3" font-family="Times,serif" font-size="14.00">Load</text>
</g>
<!-- ast.Name object at 0x7813105a1d50&#45;&gt;ast.Load object at 0x78131643ba90 -->
<g id="edge11" class="edge">
<title>ast.Name object at 0x7813105a1d50&#45;&gt;ast.Load object at 0x78131643ba90</title>
<path fill="none" stroke="black" d="M239.72,-215.85C234.52,-182.97 228.56,-110.89 267,-72 307.15,-31.37 481.11,-21.89 558.56,-19.67"/>
<polygon fill="black" stroke="black" points="558.92,-23.17 568.82,-19.41 558.74,-16.17 558.92,-23.17"/>
</g>
<!-- ast.Name object at 0x7813105a1d10 -->
<g id="node14" class="node">
<title>ast.Name object at 0x7813105a1d10</title>
<path fill="#66cdaa" stroke="black" d="M512,-324C512,-324 482,-324 482,-324 476,-324 470,-318 470,-312 470,-312 470,-300 470,-300 470,-294 476,-288 482,-288 482,-288 512,-288 512,-288 518,-288 524,-294 524,-300 524,-300 524,-312 524,-312 524,-318 518,-324 512,-324"/>
<text text-anchor="middle" x="497" y="-302.3" font-family="Times,serif" font-size="14.00">Name</text>
</g>
<!-- ast.For object at 0x7813105a1b90&#45;&gt;ast.Name object at 0x7813105a1d10 -->
<g id="edge13" class="edge">
<title>ast.For object at 0x7813105a1b90&#45;&gt;ast.Name object at 0x7813105a1d10</title>
<path fill="none" stroke="black" d="M497,-359.7C497,-351.98 497,-342.71 497,-334.11"/>
<polygon fill="black" stroke="black" points="500.5,-334.1 497,-324.1 493.5,-334.1 500.5,-334.1"/>
</g>
<!-- ast.Name object at 0x7813105a0e10 -->
<g id="node15" class="node">
<title>ast.Name object at 0x7813105a0e10</title>
<path fill="#66cdaa" stroke="black" d="M318,-108C318,-108 288,-108 288,-108 282,-108 276,-102 276,-96 276,-96 276,-84 276,-84 276,-78 282,-72 288,-72 288,-72 318,-72 318,-72 324,-72 330,-78 330,-84 330,-84 330,-96 330,-96 330,-102 324,-108 318,-108"/>
<text text-anchor="middle" x="303" y="-86.3" font-family="Times,serif" font-size="14.00">Name</text>
</g>
<!-- ast.For object at 0x7813105a1b90&#45;&gt;ast.Name object at 0x7813105a0e10 -->
<g id="edge15" class="edge">
<title>ast.For object at 0x7813105a1b90&#45;&gt;ast.Name object at 0x7813105a0e10</title>
<path fill="none" stroke="black" d="M469.72,-363.44C466.81,-362.2 463.86,-361.02 461,-360 398.87,-337.81 359.14,-374.76 317,-324 267.91,-264.87 283.87,-165.47 295.44,-117.92"/>
<polygon fill="black" stroke="black" points="298.88,-118.62 297.96,-108.06 292.09,-116.88 298.88,-118.62"/>
</g>
<!-- ast.Expr object at 0x7813105a1090 -->
<g id="node16" class="node">
<title>ast.Expr object at 0x7813105a1090</title>
<path fill="#66cdaa" stroke="black" d="M368,-324C368,-324 338,-324 338,-324 332,-324 326,-318 326,-312 326,-312 326,-300 326,-300 326,-294 332,-288 338,-288 338,-288 368,-288 368,-288 374,-288 380,-294 380,-300 380,-300 380,-312 380,-312 380,-318 374,-324 368,-324"/>
<text text-anchor="middle" x="353" y="-302.3" font-family="Times,serif" font-size="14.00">Expr</text>
</g>
<!-- ast.For object at 0x7813105a1b90&#45;&gt;ast.Expr object at 0x7813105a1090 -->
<g id="edge17" class="edge">
<title>ast.For object at 0x7813105a1b90&#45;&gt;ast.Expr object at 0x7813105a1090</title>
<path fill="none" stroke="black" d="M469.91,-363.83C447.23,-352.81 414.64,-336.97 389.63,-324.81"/>
<polygon fill="black" stroke="black" points="390.98,-321.57 380.45,-320.35 387.92,-327.87 390.98,-321.57"/>
</g>
<!-- ast.Name object at 0x7813105a1d10&#45;&gt;ast.Store object at 0x78131643bb10 -->
<g id="edge14" class="edge">
<title>ast.Name object at 0x7813105a1d10&#45;&gt;ast.Store object at 0x78131643bb10</title>
<path fill="none" stroke="black" d="M503.67,-287.7C506.71,-279.81 510.38,-270.3 513.76,-261.55"/>
<polygon fill="black" stroke="black" points="517.07,-262.69 517.4,-252.1 510.54,-260.17 517.07,-262.69"/>
</g>
<!-- ast.Name object at 0x7813105a0e10&#45;&gt;ast.Load object at 0x78131643ba90 -->
<g id="edge16" class="edge">
<title>ast.Name object at 0x7813105a0e10&#45;&gt;ast.Load object at 0x78131643ba90</title>
<path fill="none" stroke="black" d="M330.03,-78.28C336.21,-76.04 342.79,-73.8 349,-72 422.18,-50.74 509.8,-33.93 558.56,-25.31"/>
<polygon fill="black" stroke="black" points="559.39,-28.72 568.64,-23.55 558.18,-21.83 559.39,-28.72"/>
</g>
<!-- ast.Call object at 0x7813105a3cd0 -->
<g id="node17" class="node">
<title>ast.Call object at 0x7813105a3cd0</title>
<path fill="#66cdaa" stroke="black" d="M374,-252C374,-252 344,-252 344,-252 338,-252 332,-246 332,-240 332,-240 332,-228 332,-228 332,-222 338,-216 344,-216 344,-216 374,-216 374,-216 380,-216 386,-222 386,-228 386,-228 386,-240 386,-240 386,-246 380,-252 374,-252"/>
<text text-anchor="middle" x="359" y="-230.3" font-family="Times,serif" font-size="14.00">Call</text>
</g>
<!-- ast.Expr object at 0x7813105a1090&#45;&gt;ast.Call object at 0x7813105a3cd0 -->
<g id="edge18" class="edge">
<title>ast.Expr object at 0x7813105a1090&#45;&gt;ast.Call object at 0x7813105a3cd0</title>
<path fill="none" stroke="black" d="M354.48,-287.7C355.14,-279.98 355.94,-270.71 356.68,-262.11"/>
<polygon fill="black" stroke="black" points="360.17,-262.37 357.53,-252.1 353.19,-261.77 360.17,-262.37"/>
</g>
<!-- ast.Attribute object at 0x7813105a3010 -->
<g id="node18" class="node">
<title>ast.Attribute object at 0x7813105a3010</title>
<path fill="#66cdaa" stroke="black" d="M457.5,-180C457.5,-180 416.5,-180 416.5,-180 410.5,-180 404.5,-174 404.5,-168 404.5,-168 404.5,-156 404.5,-156 404.5,-150 410.5,-144 416.5,-144 416.5,-144 457.5,-144 457.5,-144 463.5,-144 469.5,-150 469.5,-156 469.5,-156 469.5,-168 469.5,-168 469.5,-174 463.5,-180 457.5,-180"/>
<text text-anchor="middle" x="437" y="-158.3" font-family="Times,serif" font-size="14.00">Attribute</text>
</g>
<!-- ast.Call object at 0x7813105a3cd0&#45;&gt;ast.Attribute object at 0x7813105a3010 -->
<g id="edge19" class="edge">
<title>ast.Call object at 0x7813105a3cd0&#45;&gt;ast.Attribute object at 0x7813105a3010</title>
<path fill="none" stroke="black" d="M378.28,-215.7C387.92,-207.05 399.73,-196.45 410.23,-187.03"/>
<polygon fill="black" stroke="black" points="412.84,-189.39 417.94,-180.1 408.16,-184.18 412.84,-189.39"/>
</g>
<!-- ast.Name object at 0x7813105a2a10 -->
<g id="node20" class="node">
<title>ast.Name object at 0x7813105a2a10</title>
<path fill="#66cdaa" stroke="black" d="M374,-180C374,-180 344,-180 344,-180 338,-180 332,-174 332,-168 332,-168 332,-156 332,-156 332,-150 338,-144 344,-144 344,-144 374,-144 374,-144 380,-144 386,-150 386,-156 386,-156 386,-168 386,-168 386,-174 380,-180 374,-180"/>
<text text-anchor="middle" x="359" y="-158.3" font-family="Times,serif" font-size="14.00">Name</text>
</g>
<!-- ast.Call object at 0x7813105a3cd0&#45;&gt;ast.Name object at 0x7813105a2a10 -->
<g id="edge23" class="edge">
<title>ast.Call object at 0x7813105a3cd0&#45;&gt;ast.Name object at 0x7813105a2a10</title>
<path fill="none" stroke="black" d="M359,-215.7C359,-207.98 359,-198.71 359,-190.11"/>
<polygon fill="black" stroke="black" points="362.5,-190.1 359,-180.1 355.5,-190.1 362.5,-190.1"/>
</g>
<!-- ast.Attribute object at 0x7813105a3010&#45;&gt;ast.Load object at 0x78131643ba90 -->
<g id="edge22" class="edge">
<title>ast.Attribute object at 0x7813105a3010&#45;&gt;ast.Load object at 0x78131643ba90</title>
<path fill="none" stroke="black" d="M452.51,-143.84C469.56,-125.34 498.12,-95.39 525,-72 536.97,-61.58 550.83,-50.95 563.11,-41.97"/>
<polygon fill="black" stroke="black" points="565.25,-44.74 571.31,-36.04 561.15,-39.06 565.25,-44.74"/>
</g>
<!-- ast.Name object at 0x7813105a2e10 -->
<g id="node19" class="node">
<title>ast.Name object at 0x7813105a2e10</title>
<path fill="#66cdaa" stroke="black" d="M436,-108C436,-108 406,-108 406,-108 400,-108 394,-102 394,-96 394,-96 394,-84 394,-84 394,-78 400,-72 406,-72 406,-72 436,-72 436,-72 442,-72 448,-78 448,-84 448,-84 448,-96 448,-96 448,-102 442,-108 436,-108"/>
<text text-anchor="middle" x="421" y="-86.3" font-family="Times,serif" font-size="14.00">Name</text>
</g>
<!-- ast.Attribute object at 0x7813105a3010&#45;&gt;ast.Name object at 0x7813105a2e10 -->
<g id="edge20" class="edge">
<title>ast.Attribute object at 0x7813105a3010&#45;&gt;ast.Name object at 0x7813105a2e10</title>
<path fill="none" stroke="black" d="M433.04,-143.7C431.28,-135.98 429.16,-126.71 427.2,-118.11"/>
<polygon fill="black" stroke="black" points="430.55,-117.07 424.91,-108.1 423.73,-118.63 430.55,-117.07"/>
</g>
<!-- ast.Name object at 0x7813105a2e10&#45;&gt;ast.Load object at 0x78131643ba90 -->
<g id="edge21" class="edge">
<title>ast.Name object at 0x7813105a2e10&#45;&gt;ast.Load object at 0x78131643ba90</title>
<path fill="none" stroke="black" d="M448.32,-77.6C452.88,-75.72 457.57,-73.79 462,-72 494.94,-58.66 532.58,-43.8 559.57,-33.22"/>
<polygon fill="black" stroke="black" points="560.96,-36.44 569,-29.53 558.41,-29.92 560.96,-36.44"/>
</g>
<!-- ast.Name object at 0x7813105a2a10&#45;&gt;ast.Load object at 0x78131643ba90 -->
<g id="edge24" class="edge">
<title>ast.Name object at 0x7813105a2a10&#45;&gt;ast.Load object at 0x78131643ba90</title>
<path fill="none" stroke="black" d="M359.18,-143.69C360.35,-123.61 365.4,-90.87 385,-72 409.62,-48.3 504.84,-31.63 558.57,-23.89"/>
<polygon fill="black" stroke="black" points="559.31,-27.32 568.72,-22.46 558.33,-20.38 559.31,-27.32"/>
</g>
<!-- ast.Name object at 0x7813105a1c50 -->
<g id="node22" class="node">
<title>ast.Name object at 0x7813105a1c50</title>
<path fill="#66cdaa" stroke="black" d="M584,-324C584,-324 554,-324 554,-324 548,-324 542,-318 542,-312 542,-312 542,-300 542,-300 542,-294 548,-288 554,-288 554,-288 584,-288 584,-288 590,-288 596,-294 596,-300 596,-300 596,-312 596,-312 596,-318 590,-324 584,-324"/>
<text text-anchor="middle" x="569" y="-302.3" font-family="Times,serif" font-size="14.00">Name</text>
</g>
<!-- ast.For object at 0x7813105a1e50&#45;&gt;ast.Name object at 0x7813105a1c50 -->
<g id="edge26" class="edge">
<title>ast.For object at 0x7813105a1e50&#45;&gt;ast.Name object at 0x7813105a1c50</title>
<path fill="none" stroke="black" d="M596.1,-359.7C592,-351.73 587.05,-342.1 582.51,-333.26"/>
<polygon fill="black" stroke="black" points="585.48,-331.4 577.8,-324.1 579.26,-334.6 585.48,-331.4"/>
</g>
<!-- ast.Name object at 0x7813105a1610 -->
<g id="node23" class="node">
<title>ast.Name object at 0x7813105a1610</title>
<path fill="#66cdaa" stroke="black" d="M694,-108C694,-108 664,-108 664,-108 658,-108 652,-102 652,-96 652,-96 652,-84 652,-84 652,-78 658,-72 664,-72 664,-72 694,-72 694,-72 700,-72 706,-78 706,-84 706,-84 706,-96 706,-96 706,-102 700,-108 694,-108"/>
<text text-anchor="middle" x="679" y="-86.3" font-family="Times,serif" font-size="14.00">Name</text>
</g>
<!-- ast.For object at 0x7813105a1e50&#45;&gt;ast.Name object at 0x7813105a1610 -->
<g id="edge28" class="edge">
<title>ast.For object at 0x7813105a1e50&#45;&gt;ast.Name object at 0x7813105a1610</title>
<path fill="none" stroke="black" d="M632.02,-364.98C648.25,-356.17 667.54,-342.52 677,-324 711.42,-256.64 696.62,-163.35 686.14,-117.97"/>
<polygon fill="black" stroke="black" points="689.49,-116.91 683.73,-108.02 682.68,-118.56 689.49,-116.91"/>
</g>
<!-- ast.Expr object at 0x7813105a3b10 -->
<g id="node24" class="node">
<title>ast.Expr object at 0x7813105a3b10</title>
<path fill="#66cdaa" stroke="black" d="M656,-324C656,-324 626,-324 626,-324 620,-324 614,-318 614,-312 614,-312 614,-300 614,-300 614,-294 620,-288 626,-288 626,-288 656,-288 656,-288 662,-288 668,-294 668,-300 668,-300 668,-312 668,-312 668,-318 662,-324 656,-324"/>
<text text-anchor="middle" x="641" y="-302.3" font-family="Times,serif" font-size="14.00">Expr</text>
</g>
<!-- ast.For object at 0x7813105a1e50&#45;&gt;ast.Expr object at 0x7813105a3b10 -->
<g id="edge30" class="edge">
<title>ast.For object at 0x7813105a1e50&#45;&gt;ast.Expr object at 0x7813105a3b10</title>
<path fill="none" stroke="black" d="M613.9,-359.7C618,-351.73 622.95,-342.1 627.49,-333.26"/>
<polygon fill="black" stroke="black" points="630.74,-334.6 632.2,-324.1 624.52,-331.4 630.74,-334.6"/>
</g>
<!-- ast.Name object at 0x7813105a1c50&#45;&gt;ast.Store object at 0x78131643bb10 -->
<g id="edge27" class="edge">
<title>ast.Name object at 0x7813105a1c50&#45;&gt;ast.Store object at 0x78131643bb10</title>
<path fill="none" stroke="black" d="M557.88,-287.7C552.64,-279.56 546.3,-269.69 540.52,-260.7"/>
<polygon fill="black" stroke="black" points="543.35,-258.62 535,-252.1 537.46,-262.41 543.35,-258.62"/>
</g>
<!-- ast.Name object at 0x7813105a1610&#45;&gt;ast.Load object at 0x78131643ba90 -->
<g id="edge29" class="edge">
<title>ast.Name object at 0x7813105a1610&#45;&gt;ast.Load object at 0x78131643ba90</title>
<path fill="none" stroke="black" d="M658.48,-71.7C648.13,-62.97 635.41,-52.24 624.16,-42.75"/>
<polygon fill="black" stroke="black" points="626.18,-39.88 616.28,-36.1 621.67,-45.23 626.18,-39.88"/>
</g>
<!-- ast.Call object at 0x7813105a1e10 -->
<g id="node25" class="node">
<title>ast.Call object at 0x7813105a1e10</title>
<path fill="#66cdaa" stroke="black" d="M647,-252C647,-252 617,-252 617,-252 611,-252 605,-246 605,-240 605,-240 605,-228 605,-228 605,-222 611,-216 617,-216 617,-216 647,-216 647,-216 653,-216 659,-222 659,-228 659,-228 659,-240 659,-240 659,-246 653,-252 647,-252"/>
<text text-anchor="middle" x="632" y="-230.3" font-family="Times,serif" font-size="14.00">Call</text>
</g>
<!-- ast.Expr object at 0x7813105a3b10&#45;&gt;ast.Call object at 0x7813105a1e10 -->
<g id="edge31" class="edge">
<title>ast.Expr object at 0x7813105a3b10&#45;&gt;ast.Call object at 0x7813105a1e10</title>
<path fill="none" stroke="black" d="M638.78,-287.7C637.78,-279.98 636.59,-270.71 635.49,-262.11"/>
<polygon fill="black" stroke="black" points="638.95,-261.58 634.2,-252.1 632,-262.47 638.95,-261.58"/>
</g>
<!-- ast.Attribute object at 0x7813105a1390 -->
<g id="node26" class="node">
<title>ast.Attribute object at 0x7813105a1390</title>
<path fill="#66cdaa" stroke="black" d="M574.5,-180C574.5,-180 533.5,-180 533.5,-180 527.5,-180 521.5,-174 521.5,-168 521.5,-168 521.5,-156 521.5,-156 521.5,-150 527.5,-144 533.5,-144 533.5,-144 574.5,-144 574.5,-144 580.5,-144 586.5,-150 586.5,-156 586.5,-156 586.5,-168 586.5,-168 586.5,-174 580.5,-180 574.5,-180"/>
<text text-anchor="middle" x="554" y="-158.3" font-family="Times,serif" font-size="14.00">Attribute</text>
</g>
<!-- ast.Call object at 0x7813105a1e10&#45;&gt;ast.Attribute object at 0x7813105a1390 -->
<g id="edge32" class="edge">
<title>ast.Call object at 0x7813105a1e10&#45;&gt;ast.Attribute object at 0x7813105a1390</title>
<path fill="none" stroke="black" d="M612.72,-215.7C603.08,-207.05 591.27,-196.45 580.77,-187.03"/>
<polygon fill="black" stroke="black" points="582.84,-184.18 573.06,-180.1 578.16,-189.39 582.84,-184.18"/>
</g>
<!-- ast.Name object at 0x7813105a2010 -->
<g id="node28" class="node">
<title>ast.Name object at 0x7813105a2010</title>
<path fill="#66cdaa" stroke="black" d="M647,-180C647,-180 617,-180 617,-180 611,-180 605,-174 605,-168 605,-168 605,-156 605,-156 605,-150 611,-144 617,-144 617,-144 647,-144 647,-144 653,-144 659,-150 659,-156 659,-156 659,-168 659,-168 659,-174 653,-180 647,-180"/>
<text text-anchor="middle" x="632" y="-158.3" font-family="Times,serif" font-size="14.00">Name</text>
</g>
<!-- ast.Call object at 0x7813105a1e10&#45;&gt;ast.Name object at 0x7813105a2010 -->
<g id="edge36" class="edge">
<title>ast.Call object at 0x7813105a1e10&#45;&gt;ast.Name object at 0x7813105a2010</title>
<path fill="none" stroke="black" d="M632,-215.7C632,-207.98 632,-198.71 632,-190.11"/>
<polygon fill="black" stroke="black" points="635.5,-190.1 632,-180.1 628.5,-190.1 635.5,-190.1"/>
</g>
<!-- ast.Attribute object at 0x7813105a1390&#45;&gt;ast.Load object at 0x78131643ba90 -->
<g id="edge35" class="edge">
<title>ast.Attribute object at 0x7813105a1390&#45;&gt;ast.Load object at 0x78131643ba90</title>
<path fill="none" stroke="black" d="M543.56,-143.92C533.72,-125.49 522.01,-95.6 533,-72 538.96,-59.2 549.71,-48.38 560.65,-39.93"/>
<polygon fill="black" stroke="black" points="562.92,-42.61 568.99,-33.93 558.83,-36.93 562.92,-42.61"/>
</g>
<!-- ast.Name object at 0x7813105a2e50 -->
<g id="node27" class="node">
<title>ast.Name object at 0x7813105a2e50</title>
<path fill="#66cdaa" stroke="black" d="M584,-108C584,-108 554,-108 554,-108 548,-108 542,-102 542,-96 542,-96 542,-84 542,-84 542,-78 548,-72 554,-72 554,-72 584,-72 584,-72 590,-72 596,-78 596,-84 596,-84 596,-96 596,-96 596,-102 590,-108 584,-108"/>
<text text-anchor="middle" x="569" y="-86.3" font-family="Times,serif" font-size="14.00">Name</text>
</g>
<!-- ast.Attribute object at 0x7813105a1390&#45;&gt;ast.Name object at 0x7813105a2e50 -->
<g id="edge33" class="edge">
<title>ast.Attribute object at 0x7813105a1390&#45;&gt;ast.Name object at 0x7813105a2e50</title>
<path fill="none" stroke="black" d="M557.71,-143.7C559.36,-135.98 561.35,-126.71 563.19,-118.11"/>
<polygon fill="black" stroke="black" points="566.66,-118.62 565.33,-108.1 559.82,-117.15 566.66,-118.62"/>
</g>
<!-- ast.Name object at 0x7813105a2e50&#45;&gt;ast.Load object at 0x78131643ba90 -->
<g id="edge34" class="edge">
<title>ast.Name object at 0x7813105a2e50&#45;&gt;ast.Load object at 0x78131643ba90</title>
<path fill="none" stroke="black" d="M575.67,-71.7C578.71,-63.81 582.38,-54.3 585.76,-45.55"/>
<polygon fill="black" stroke="black" points="589.07,-46.69 589.4,-36.1 582.54,-44.17 589.07,-46.69"/>
</g>
<!-- ast.Name object at 0x7813105a2010&#45;&gt;ast.Load object at 0x78131643ba90 -->
<g id="edge37" class="edge">
<title>ast.Name object at 0x7813105a2010&#45;&gt;ast.Load object at 0x78131643ba90</title>
<path fill="none" stroke="black" d="M627.66,-143.87C621.5,-119.56 610.15,-74.82 602.85,-46.01"/>
<polygon fill="black" stroke="black" points="606.21,-45.02 600.36,-36.19 599.42,-46.74 606.21,-45.02"/>
</g>
<!-- ast.Name object at 0x7813105a1790 -->
<g id="node30" class="node">
<title>ast.Name object at 0x7813105a1790</title>
<path fill="#66cdaa" stroke="black" d="M766,-324C766,-324 736,-324 736,-324 730,-324 724,-318 724,-312 724,-312 724,-300 724,-300 724,-294 730,-288 736,-288 736,-288 766,-288 766,-288 772,-288 778,-294 778,-300 778,-300 778,-312 778,-312 778,-318 772,-324 766,-324"/>
<text text-anchor="middle" x="751" y="-302.3" font-family="Times,serif" font-size="14.00">Name</text>
</g>
<!-- ast.For object at 0x7813105a1910&#45;&gt;ast.Name object at 0x7813105a1790 -->
<g id="edge39" class="edge">
<title>ast.For object at 0x7813105a1910&#45;&gt;ast.Name object at 0x7813105a1790</title>
<path fill="none" stroke="black" d="M771.33,-359.7C768.29,-351.81 764.62,-342.3 761.24,-333.55"/>
<polygon fill="black" stroke="black" points="764.46,-332.17 757.6,-324.1 757.93,-334.69 764.46,-332.17"/>
</g>
<!-- ast.Name object at 0x7813105a1cd0 -->
<g id="node31" class="node">
<title>ast.Name object at 0x7813105a1cd0</title>
<path fill="#66cdaa" stroke="black" d="M785,-252C785,-252 755,-252 755,-252 749,-252 743,-246 743,-240 743,-240 743,-228 743,-228 743,-222 749,-216 755,-216 755,-216 785,-216 785,-216 791,-216 797,-222 797,-228 797,-228 797,-240 797,-240 797,-246 791,-252 785,-252"/>
<text text-anchor="middle" x="770" y="-230.3" font-family="Times,serif" font-size="14.00">Name</text>
</g>
<!-- ast.For object at 0x7813105a1910&#45;&gt;ast.Name object at 0x7813105a1cd0 -->
<g id="edge41" class="edge">
<title>ast.For object at 0x7813105a1910&#45;&gt;ast.Name object at 0x7813105a1cd0</title>
<path fill="none" stroke="black" d="M782.32,-359.87C786.25,-341.89 790.89,-312.86 787,-288 785.64,-279.31 783.1,-270.1 780.39,-261.84"/>
<polygon fill="black" stroke="black" points="783.67,-260.62 777.07,-252.33 777.06,-262.93 783.67,-260.62"/>
</g>
<!-- ast.Expr object at 0x7813105a2fd0 -->
<g id="node32" class="node">
<title>ast.Expr object at 0x7813105a2fd0</title>
<path fill="#66cdaa" stroke="black" d="M876,-324C876,-324 846,-324 846,-324 840,-324 834,-318 834,-312 834,-312 834,-300 834,-300 834,-294 840,-288 846,-288 846,-288 876,-288 876,-288 882,-288 888,-294 888,-300 888,-300 888,-312 888,-312 888,-318 882,-324 876,-324"/>
<text text-anchor="middle" x="861" y="-302.3" font-family="Times,serif" font-size="14.00">Expr</text>
</g>
<!-- ast.For object at 0x7813105a1910&#45;&gt;ast.Expr object at 0x7813105a2fd0 -->
<g id="edge43" class="edge">
<title>ast.For object at 0x7813105a1910&#45;&gt;ast.Expr object at 0x7813105a2fd0</title>
<path fill="none" stroke="black" d="M798.52,-359.7C808.87,-350.97 821.59,-340.24 832.84,-330.75"/>
<polygon fill="black" stroke="black" points="835.33,-333.23 840.72,-324.1 830.82,-327.88 835.33,-333.23"/>
</g>
<!-- ast.Name object at 0x7813105a1790&#45;&gt;ast.Store object at 0x78131643bb10 -->
<g id="edge40" class="edge">
<title>ast.Name object at 0x7813105a1790&#45;&gt;ast.Store object at 0x78131643bb10</title>
<path fill="none" stroke="black" d="M723.62,-296.56C682.95,-284.01 606.48,-260.43 560.91,-246.38"/>
<polygon fill="black" stroke="black" points="561.71,-242.97 551.13,-243.36 559.65,-249.66 561.71,-242.97"/>
</g>
<!-- ast.Name object at 0x7813105a1cd0&#45;&gt;ast.Load object at 0x78131643ba90 -->
<g id="edge42" class="edge">
<title>ast.Name object at 0x7813105a1cd0&#45;&gt;ast.Load object at 0x78131643ba90</title>
<path fill="none" stroke="black" d="M764.33,-215.81C750.79,-174.87 717.53,-74.77 715,-72 693.45,-48.42 659.45,-34.73 633.3,-27.19"/>
<polygon fill="black" stroke="black" points="633.92,-23.73 623.35,-24.5 632.1,-30.49 633.92,-23.73"/>
</g>
<!-- ast.Call object at 0x7813105a2610 -->
<g id="node33" class="node">
<title>ast.Call object at 0x7813105a2610</title>
<path fill="#66cdaa" stroke="black" d="M876,-252C876,-252 846,-252 846,-252 840,-252 834,-246 834,-240 834,-240 834,-228 834,-228 834,-222 840,-216 846,-216 846,-216 876,-216 876,-216 882,-216 888,-222 888,-228 888,-228 888,-240 888,-240 888,-246 882,-252 876,-252"/>
<text text-anchor="middle" x="861" y="-230.3" font-family="Times,serif" font-size="14.00">Call</text>
</g>
<!-- ast.Expr object at 0x7813105a2fd0&#45;&gt;ast.Call object at 0x7813105a2610 -->
<g id="edge44" class="edge">
<title>ast.Expr object at 0x7813105a2fd0&#45;&gt;ast.Call object at 0x7813105a2610</title>
<path fill="none" stroke="black" d="M861,-287.7C861,-279.98 861,-270.71 861,-262.11"/>
<polygon fill="black" stroke="black" points="864.5,-262.1 861,-252.1 857.5,-262.1 864.5,-262.1"/>
</g>
<!-- ast.Attribute object at 0x7813105a15d0 -->
<g id="node34" class="node">
<title>ast.Attribute object at 0x7813105a15d0</title>
<path fill="#66cdaa" stroke="black" d="M887.5,-180C887.5,-180 846.5,-180 846.5,-180 840.5,-180 834.5,-174 834.5,-168 834.5,-168 834.5,-156 834.5,-156 834.5,-150 840.5,-144 846.5,-144 846.5,-144 887.5,-144 887.5,-144 893.5,-144 899.5,-150 899.5,-156 899.5,-156 899.5,-168 899.5,-168 899.5,-174 893.5,-180 887.5,-180"/>
<text text-anchor="middle" x="867" y="-158.3" font-family="Times,serif" font-size="14.00">Attribute</text>
</g>
<!-- ast.Call object at 0x7813105a2610&#45;&gt;ast.Attribute object at 0x7813105a15d0 -->
<g id="edge45" class="edge">
<title>ast.Call object at 0x7813105a2610&#45;&gt;ast.Attribute object at 0x7813105a15d0</title>
<path fill="none" stroke="black" d="M862.48,-215.7C863.14,-207.98 863.94,-198.71 864.68,-190.11"/>
<polygon fill="black" stroke="black" points="868.17,-190.37 865.53,-180.1 861.19,-189.77 868.17,-190.37"/>
</g>
<!-- ast.Name object at 0x7813105a3e10 -->
<g id="node36" class="node">
<title>ast.Name object at 0x7813105a3e10</title>
<path fill="#66cdaa" stroke="black" d="M804,-180C804,-180 774,-180 774,-180 768,-180 762,-174 762,-168 762,-168 762,-156 762,-156 762,-150 768,-144 774,-144 774,-144 804,-144 804,-144 810,-144 816,-150 816,-156 816,-156 816,-168 816,-168 816,-174 810,-180 804,-180"/>
<text text-anchor="middle" x="789" y="-158.3" font-family="Times,serif" font-size="14.00">Name</text>
</g>
<!-- ast.Call object at 0x7813105a2610&#45;&gt;ast.Name object at 0x7813105a3e10 -->
<g id="edge49" class="edge">
<title>ast.Call object at 0x7813105a2610&#45;&gt;ast.Name object at 0x7813105a3e10</title>
<path fill="none" stroke="black" d="M843.2,-215.7C834.4,-207.14 823.62,-196.66 814,-187.3"/>
<polygon fill="black" stroke="black" points="816.2,-184.57 806.59,-180.1 811.32,-189.58 816.2,-184.57"/>
</g>
<!-- ast.Attribute object at 0x7813105a15d0&#45;&gt;ast.Load object at 0x78131643ba90 -->
<g id="edge48" class="edge">
<title>ast.Attribute object at 0x7813105a15d0&#45;&gt;ast.Load object at 0x78131643ba90</title>
<path fill="none" stroke="black" d="M871.91,-143.67C876.37,-123.88 879.94,-91.71 863,-72 833.62,-37.81 699.73,-25.14 633.42,-20.91"/>
<polygon fill="black" stroke="black" points="633.58,-17.41 623.39,-20.3 633.16,-24.4 633.58,-17.41"/>
</g>
<!-- ast.Name object at 0x7813105a11d0 -->
<g id="node35" class="node">
<title>ast.Name object at 0x7813105a11d0</title>
<path fill="#66cdaa" stroke="black" d="M842,-108C842,-108 812,-108 812,-108 806,-108 800,-102 800,-96 800,-96 800,-84 800,-84 800,-78 806,-72 812,-72 812,-72 842,-72 842,-72 848,-72 854,-78 854,-84 854,-84 854,-96 854,-96 854,-102 848,-108 842,-108"/>
<text text-anchor="middle" x="827" y="-86.3" font-family="Times,serif" font-size="14.00">Name</text>
</g>
<!-- ast.Attribute object at 0x7813105a15d0&#45;&gt;ast.Name object at 0x7813105a11d0 -->
<g id="edge46" class="edge">
<title>ast.Attribute object at 0x7813105a15d0&#45;&gt;ast.Name object at 0x7813105a11d0</title>
<path fill="none" stroke="black" d="M857.11,-143.7C852.51,-135.64 846.94,-125.89 841.85,-116.98"/>
<polygon fill="black" stroke="black" points="844.77,-115.05 836.77,-108.1 838.7,-118.52 844.77,-115.05"/>
</g>
<!-- ast.Name object at 0x7813105a11d0&#45;&gt;ast.Load object at 0x78131643ba90 -->
<g id="edge47" class="edge">
<title>ast.Name object at 0x7813105a11d0&#45;&gt;ast.Load object at 0x78131643ba90</title>
<path fill="none" stroke="black" d="M799.83,-77.2C795.25,-75.36 790.52,-73.56 786,-72 733.55,-53.89 671.39,-37.47 632.81,-27.86"/>
<polygon fill="black" stroke="black" points="633.61,-24.45 623.06,-25.45 631.93,-31.25 633.61,-24.45"/>
</g>
<!-- ast.Name object at 0x7813105a3e10&#45;&gt;ast.Load object at 0x78131643ba90 -->
<g id="edge50" class="edge">
<title>ast.Name object at 0x7813105a3e10&#45;&gt;ast.Load object at 0x78131643ba90</title>
<path fill="none" stroke="black" d="M785.39,-143.85C780.33,-123.92 769.28,-91.33 748,-72 715.85,-42.8 666.71,-29.52 633.06,-23.59"/>
<polygon fill="black" stroke="black" points="633.58,-20.13 623.15,-21.98 632.46,-27.04 633.58,-20.13"/>
</g>
<!-- ast.Name object at 0x7813105a3590 -->
<g id="node38" class="node">
<title>ast.Name object at 0x7813105a3590</title>
<path fill="#66cdaa" stroke="black" d="M952,-108C952,-108 922,-108 922,-108 916,-108 910,-102 910,-96 910,-96 910,-84 910,-84 910,-78 916,-72 922,-72 922,-72 952,-72 952,-72 958,-72 964,-78 964,-84 964,-84 964,-96 964,-96 964,-102 958,-108 952,-108"/>
<text text-anchor="middle" x="937" y="-86.3" font-family="Times,serif" font-size="14.00">Name</text>
</g>
<!-- ast.Return object at 0x7813105a3a90&#45;&gt;ast.Name object at 0x7813105a3590 -->
<g id="edge52" class="edge">
<title>ast.Return object at 0x7813105a3a90&#45;&gt;ast.Name object at 0x7813105a3590</title>
<path fill="none" stroke="black" d="M905.97,-359.97C911.48,-312.19 927.12,-176.62 933.85,-118.27"/>
<polygon fill="black" stroke="black" points="937.33,-118.64 935,-108.31 930.38,-117.84 937.33,-118.64"/>
</g>
<!-- ast.Name object at 0x7813105a3590&#45;&gt;ast.Load object at 0x78131643ba90 -->
<g id="edge53" class="edge">
<title>ast.Name object at 0x7813105a3590&#45;&gt;ast.Load object at 0x78131643ba90</title>
<path fill="none" stroke="black" d="M909.95,-76.81C905.36,-75.03 900.59,-73.34 896,-72 803.51,-45.01 690.75,-29.59 633.39,-22.95"/>
<polygon fill="black" stroke="black" points="633.68,-19.46 623.35,-21.81 632.89,-26.41 633.68,-19.46"/>
</g>
</g>
</svg>
