<?xml version="1.0" encoding="UTF-8" standalone="no"?>
<!DOCTYPE svg PUBLIC "-//W3C//DTD SVG 1.1//EN"
 "http://www.w3.org/Graphics/SVG/1.1/DTD/svg11.dtd">
<!-- Generated by graphviz version 2.50.0 (0)
 -->
<!-- Pages: 1 -->
<svg width="1300pt" height="620pt"
 viewBox="0.00 0.00 1299.50 620.00" xmlns="http://www.w3.org/2000/svg" xmlns:xlink="http://www.w3.org/1999/xlink">
<g id="graph0" class="graph" transform="scale(1 1) rotate(0) translate(4 616)">
<polygon fill="white" stroke="transparent" points="-4,4 -4,-616 1295.5,-616 1295.5,4 -4,4"/>
<!-- ast.Module object at 0x7d2db24c2790 -->
<g id="node1" class="node">
<title>ast.Module object at 0x7d2db24c2790</title>
<path fill="#66cdaa" stroke="black" d="M229.5,-612C229.5,-612 194.5,-612 194.5,-612 188.5,-612 182.5,-606 182.5,-600 182.5,-600 182.5,-588 182.5,-588 182.5,-582 188.5,-576 194.5,-576 194.5,-576 229.5,-576 229.5,-576 235.5,-576 241.5,-582 241.5,-588 241.5,-588 241.5,-600 241.5,-600 241.5,-606 235.5,-612 229.5,-612"/>
<text text-anchor="middle" x="212" y="-590.3" font-family="Times,serif" font-size="14.00">Module</text>
</g>
<!-- ast.FunctionDef object at 0x7d2db24c3090 -->
<g id="node2" class="node">
<title>ast.FunctionDef object at 0x7d2db24c3090</title>
<path fill="#66cdaa" stroke="black" d="M242.5,-540C242.5,-540 181.5,-540 181.5,-540 175.5,-540 169.5,-534 169.5,-528 169.5,-528 169.5,-516 169.5,-516 169.5,-510 175.5,-504 181.5,-504 181.5,-504 242.5,-504 242.5,-504 248.5,-504 254.5,-510 254.5,-516 254.5,-516 254.5,-528 254.5,-528 254.5,-534 248.5,-540 242.5,-540"/>
<text text-anchor="middle" x="212" y="-518.3" font-family="Times,serif" font-size="14.00">FunctionDef</text>
</g>
<!-- ast.Module object at 0x7d2db24c2790&#45;&gt;ast.FunctionDef object at 0x7d2db24c3090 -->
<g id="edge1" class="edge">
<title>ast.Module object at 0x7d2db24c2790&#45;&gt;ast.FunctionDef object at 0x7d2db24c3090</title>
<path fill="none" stroke="black" d="M212,-575.7C212,-567.98 212,-558.71 212,-550.11"/>
<polygon fill="black" stroke="black" points="215.5,-550.1 212,-540.1 208.5,-550.1 215.5,-550.1"/>
</g>
<!-- ast.arguments object at 0x7d2db24c2e10 -->
<g id="node3" class="node">
<title>ast.arguments object at 0x7d2db24c2e10</title>
<path fill="#66cdaa" stroke="black" d="M72,-468C72,-468 22,-468 22,-468 16,-468 10,-462 10,-456 10,-456 10,-444 10,-444 10,-438 16,-432 22,-432 22,-432 72,-432 72,-432 78,-432 84,-438 84,-444 84,-444 84,-456 84,-456 84,-462 78,-468 72,-468"/>
<text text-anchor="middle" x="47" y="-446.3" font-family="Times,serif" font-size="14.00">arguments</text>
</g>
<!-- ast.FunctionDef object at 0x7d2db24c3090&#45;&gt;ast.arguments object at 0x7d2db24c2e10 -->
<g id="edge2" class="edge">
<title>ast.FunctionDef object at 0x7d2db24c3090&#45;&gt;ast.arguments object at 0x7d2db24c2e10</title>
<path fill="none" stroke="black" d="M171.64,-503.88C148.05,-493.87 118.19,-481.2 93.61,-470.77"/>
<polygon fill="black" stroke="black" points="94.7,-467.43 84.13,-466.75 91.96,-473.88 94.7,-467.43"/>
</g>
<!-- ast.Expr object at 0x7d2db24c0650 -->
<g id="node5" class="node">
<title>ast.Expr object at 0x7d2db24c0650</title>
<path fill="#66cdaa" stroke="black" d="M183,-468C183,-468 153,-468 153,-468 147,-468 141,-462 141,-456 141,-456 141,-444 141,-444 141,-438 147,-432 153,-432 153,-432 183,-432 183,-432 189,-432 195,-438 195,-444 195,-444 195,-456 195,-456 195,-462 189,-468 183,-468"/>
<text text-anchor="middle" x="168" y="-446.3" font-family="Times,serif" font-size="14.00">Expr</text>
</g>
<!-- ast.FunctionDef object at 0x7d2db24c3090&#45;&gt;ast.Expr object at 0x7d2db24c0650 -->
<g id="edge4" class="edge">
<title>ast.FunctionDef object at 0x7d2db24c3090&#45;&gt;ast.Expr object at 0x7d2db24c0650</title>
<path fill="none" stroke="black" d="M201.12,-503.7C196.01,-495.56 189.8,-485.69 184.16,-476.7"/>
<polygon fill="black" stroke="black" points="187.04,-474.71 178.75,-468.1 181.11,-478.43 187.04,-474.71"/>
</g>
<!-- ast.FunctionDef object at 0x7d2db24c31d0 -->
<g id="node7" class="node">
<title>ast.FunctionDef object at 0x7d2db24c31d0</title>
<path fill="#66cdaa" stroke="black" d="M305.5,-468C305.5,-468 244.5,-468 244.5,-468 238.5,-468 232.5,-462 232.5,-456 232.5,-456 232.5,-444 232.5,-444 232.5,-438 238.5,-432 244.5,-432 244.5,-432 305.5,-432 305.5,-432 311.5,-432 317.5,-438 317.5,-444 317.5,-444 317.5,-456 317.5,-456 317.5,-462 311.5,-468 305.5,-468"/>
<text text-anchor="middle" x="275" y="-446.3" font-family="Times,serif" font-size="14.00">FunctionDef</text>
</g>
<!-- ast.FunctionDef object at 0x7d2db24c3090&#45;&gt;ast.FunctionDef object at 0x7d2db24c31d0 -->
<g id="edge6" class="edge">
<title>ast.FunctionDef object at 0x7d2db24c3090&#45;&gt;ast.FunctionDef object at 0x7d2db24c31d0</title>
<path fill="none" stroke="black" d="M227.57,-503.7C235.2,-495.22 244.52,-484.86 252.88,-475.58"/>
<polygon fill="black" stroke="black" points="255.52,-477.88 259.61,-468.1 250.31,-473.2 255.52,-477.88"/>
</g>
<!-- ast.Return object at 0x7d2db24c1c90 -->
<g id="node29" class="node">
<title>ast.Return object at 0x7d2db24c1c90</title>
<path fill="#66cdaa" stroke="black" d="M433,-468C433,-468 403,-468 403,-468 397,-468 391,-462 391,-456 391,-456 391,-444 391,-444 391,-438 397,-432 403,-432 403,-432 433,-432 433,-432 439,-432 445,-438 445,-444 445,-444 445,-456 445,-456 445,-462 439,-468 433,-468"/>
<text text-anchor="middle" x="418" y="-446.3" font-family="Times,serif" font-size="14.00">Return</text>
</g>
<!-- ast.FunctionDef object at 0x7d2db24c3090&#45;&gt;ast.Return object at 0x7d2db24c1c90 -->
<g id="edge35" class="edge">
<title>ast.FunctionDef object at 0x7d2db24c3090&#45;&gt;ast.Return object at 0x7d2db24c1c90</title>
<path fill="none" stroke="black" d="M254.68,-506.5C292.06,-493.79 345.81,-475.53 381.29,-463.47"/>
<polygon fill="black" stroke="black" points="382.45,-466.78 390.79,-460.25 380.19,-460.15 382.45,-466.78"/>
</g>
<!-- ast.arg object at 0x7d2db24c22d0 -->
<g id="node4" class="node">
<title>ast.arg object at 0x7d2db24c22d0</title>
<path fill="#66cdaa" stroke="black" d="M42,-396C42,-396 12,-396 12,-396 6,-396 0,-390 0,-384 0,-384 0,-372 0,-372 0,-366 6,-360 12,-360 12,-360 42,-360 42,-360 48,-360 54,-366 54,-372 54,-372 54,-384 54,-384 54,-390 48,-396 42,-396"/>
<text text-anchor="middle" x="27" y="-374.3" font-family="Times,serif" font-size="14.00">arg</text>
</g>
<!-- ast.arguments object at 0x7d2db24c2e10&#45;&gt;ast.arg object at 0x7d2db24c22d0 -->
<g id="edge3" class="edge">
<title>ast.arguments object at 0x7d2db24c2e10&#45;&gt;ast.arg object at 0x7d2db24c22d0</title>
<path fill="none" stroke="black" d="M42.06,-431.7C39.83,-423.9 37.15,-414.51 34.67,-405.83"/>
<polygon fill="black" stroke="black" points="38,-404.76 31.89,-396.1 31.27,-406.68 38,-404.76"/>
</g>
<!-- ast.Constant object at 0x7d2db24c2910 -->
<g id="node6" class="node">
<title>ast.Constant object at 0x7d2db24c2910</title>
<path fill="#66cdaa" stroke="black" d="M125.5,-396C125.5,-396 84.5,-396 84.5,-396 78.5,-396 72.5,-390 72.5,-384 72.5,-384 72.5,-372 72.5,-372 72.5,-366 78.5,-360 84.5,-360 84.5,-360 125.5,-360 125.5,-360 131.5,-360 137.5,-366 137.5,-372 137.5,-372 137.5,-384 137.5,-384 137.5,-390 131.5,-396 125.5,-396"/>
<text text-anchor="middle" x="105" y="-374.3" font-family="Times,serif" font-size="14.00">Constant</text>
</g>
<!-- ast.Expr object at 0x7d2db24c0650&#45;&gt;ast.Constant object at 0x7d2db24c2910 -->
<g id="edge5" class="edge">
<title>ast.Expr object at 0x7d2db24c0650&#45;&gt;ast.Constant object at 0x7d2db24c2910</title>
<path fill="none" stroke="black" d="M152.43,-431.7C144.8,-423.22 135.48,-412.86 127.12,-403.58"/>
<polygon fill="black" stroke="black" points="129.69,-401.2 120.39,-396.1 124.48,-405.88 129.69,-401.2"/>
</g>
<!-- ast.arguments object at 0x7d2db24c1dd0 -->
<g id="node8" class="node">
<title>ast.arguments object at 0x7d2db24c1dd0</title>
<path fill="#66cdaa" stroke="black" d="M218,-396C218,-396 168,-396 168,-396 162,-396 156,-390 156,-384 156,-384 156,-372 156,-372 156,-366 162,-360 168,-360 168,-360 218,-360 218,-360 224,-360 230,-366 230,-372 230,-372 230,-384 230,-384 230,-390 224,-396 218,-396"/>
<text text-anchor="middle" x="193" y="-374.3" font-family="Times,serif" font-size="14.00">arguments</text>
</g>
<!-- ast.FunctionDef object at 0x7d2db24c31d0&#45;&gt;ast.arguments object at 0x7d2db24c1dd0 -->
<g id="edge7" class="edge">
<title>ast.FunctionDef object at 0x7d2db24c31d0&#45;&gt;ast.arguments object at 0x7d2db24c1dd0</title>
<path fill="none" stroke="black" d="M254.73,-431.7C244.5,-422.97 231.94,-412.24 220.82,-402.75"/>
<polygon fill="black" stroke="black" points="222.91,-399.94 213.04,-396.1 218.37,-405.26 222.91,-399.94"/>
</g>
<!-- ast.Expr object at 0x7d2db24c3390 -->
<g id="node11" class="node">
<title>ast.Expr object at 0x7d2db24c3390</title>
<path fill="#66cdaa" stroke="black" d="M290,-396C290,-396 260,-396 260,-396 254,-396 248,-390 248,-384 248,-384 248,-372 248,-372 248,-366 254,-360 260,-360 260,-360 290,-360 290,-360 296,-360 302,-366 302,-372 302,-372 302,-384 302,-384 302,-390 296,-396 290,-396"/>
<text text-anchor="middle" x="275" y="-374.3" font-family="Times,serif" font-size="14.00">Expr</text>
</g>
<!-- ast.FunctionDef object at 0x7d2db24c31d0&#45;&gt;ast.Expr object at 0x7d2db24c3390 -->
<g id="edge10" class="edge">
<title>ast.FunctionDef object at 0x7d2db24c31d0&#45;&gt;ast.Expr object at 0x7d2db24c3390</title>
<path fill="none" stroke="black" d="M275,-431.7C275,-423.98 275,-414.71 275,-406.11"/>
<polygon fill="black" stroke="black" points="278.5,-406.1 275,-396.1 271.5,-406.1 278.5,-406.1"/>
</g>
<!-- ast.While object at 0x7d2db24c3410 -->
<g id="node13" class="node">
<title>ast.While object at 0x7d2db24c3410</title>
<path fill="#66cdaa" stroke="black" d="M362,-396C362,-396 332,-396 332,-396 326,-396 320,-390 320,-384 320,-384 320,-372 320,-372 320,-366 326,-360 332,-360 332,-360 362,-360 362,-360 368,-360 374,-366 374,-372 374,-372 374,-384 374,-384 374,-390 368,-396 362,-396"/>
<text text-anchor="middle" x="347" y="-374.3" font-family="Times,serif" font-size="14.00">While</text>
</g>
<!-- ast.FunctionDef object at 0x7d2db24c31d0&#45;&gt;ast.While object at 0x7d2db24c3410 -->
<g id="edge12" class="edge">
<title>ast.FunctionDef object at 0x7d2db24c31d0&#45;&gt;ast.While object at 0x7d2db24c3410</title>
<path fill="none" stroke="black" d="M292.8,-431.7C301.6,-423.14 312.38,-412.66 322,-403.3"/>
<polygon fill="black" stroke="black" points="324.68,-405.58 329.41,-396.1 319.8,-400.57 324.68,-405.58"/>
</g>
<!-- ast.Return object at 0x7d2db24c38d0 -->
<g id="node27" class="node">
<title>ast.Return object at 0x7d2db24c38d0</title>
<path fill="#66cdaa" stroke="black" d="M466,-396C466,-396 436,-396 436,-396 430,-396 424,-390 424,-384 424,-384 424,-372 424,-372 424,-366 430,-360 436,-360 436,-360 466,-360 466,-360 472,-360 478,-366 478,-372 478,-372 478,-384 478,-384 478,-390 472,-396 466,-396"/>
<text text-anchor="middle" x="451" y="-374.3" font-family="Times,serif" font-size="14.00">Return</text>
</g>
<!-- ast.FunctionDef object at 0x7d2db24c31d0&#45;&gt;ast.Return object at 0x7d2db24c38d0 -->
<g id="edge32" class="edge">
<title>ast.FunctionDef object at 0x7d2db24c31d0&#45;&gt;ast.Return object at 0x7d2db24c38d0</title>
<path fill="none" stroke="black" d="M317.6,-432.05C347.18,-420.29 386.18,-404.78 414.36,-393.57"/>
<polygon fill="black" stroke="black" points="415.85,-396.75 423.85,-389.8 413.26,-390.24 415.85,-396.75"/>
</g>
<!-- ast.arg object at 0x7d2db24c3050 -->
<g id="node9" class="node">
<title>ast.arg object at 0x7d2db24c3050</title>
<path fill="#66cdaa" stroke="black" d="M136,-324C136,-324 106,-324 106,-324 100,-324 94,-318 94,-312 94,-312 94,-300 94,-300 94,-294 100,-288 106,-288 106,-288 136,-288 136,-288 142,-288 148,-294 148,-300 148,-300 148,-312 148,-312 148,-318 142,-324 136,-324"/>
<text text-anchor="middle" x="121" y="-302.3" font-family="Times,serif" font-size="14.00">arg</text>
</g>
<!-- ast.arguments object at 0x7d2db24c1dd0&#45;&gt;ast.arg object at 0x7d2db24c3050 -->
<g id="edge8" class="edge">
<title>ast.arguments object at 0x7d2db24c1dd0&#45;&gt;ast.arg object at 0x7d2db24c3050</title>
<path fill="none" stroke="black" d="M175.2,-359.7C166.4,-351.14 155.62,-340.66 146,-331.3"/>
<polygon fill="black" stroke="black" points="148.2,-328.57 138.59,-324.1 143.32,-333.58 148.2,-328.57"/>
</g>
<!-- ast.arg object at 0x7d2db24c11d0 -->
<g id="node10" class="node">
<title>ast.arg object at 0x7d2db24c11d0</title>
<path fill="#66cdaa" stroke="black" d="M208,-324C208,-324 178,-324 178,-324 172,-324 166,-318 166,-312 166,-312 166,-300 166,-300 166,-294 172,-288 178,-288 178,-288 208,-288 208,-288 214,-288 220,-294 220,-300 220,-300 220,-312 220,-312 220,-318 214,-324 208,-324"/>
<text text-anchor="middle" x="193" y="-302.3" font-family="Times,serif" font-size="14.00">arg</text>
</g>
<!-- ast.arguments object at 0x7d2db24c1dd0&#45;&gt;ast.arg object at 0x7d2db24c11d0 -->
<g id="edge9" class="edge">
<title>ast.arguments object at 0x7d2db24c1dd0&#45;&gt;ast.arg object at 0x7d2db24c11d0</title>
<path fill="none" stroke="black" d="M193,-359.7C193,-351.98 193,-342.71 193,-334.11"/>
<polygon fill="black" stroke="black" points="196.5,-334.1 193,-324.1 189.5,-334.1 196.5,-334.1"/>
</g>
<!-- ast.Constant object at 0x7d2db24c3b90 -->
<g id="node12" class="node">
<title>ast.Constant object at 0x7d2db24c3b90</title>
<path fill="#66cdaa" stroke="black" d="M291.5,-324C291.5,-324 250.5,-324 250.5,-324 244.5,-324 238.5,-318 238.5,-312 238.5,-312 238.5,-300 238.5,-300 238.5,-294 244.5,-288 250.5,-288 250.5,-288 291.5,-288 291.5,-288 297.5,-288 303.5,-294 303.5,-300 303.5,-300 303.5,-312 303.5,-312 303.5,-318 297.5,-324 291.5,-324"/>
<text text-anchor="middle" x="271" y="-302.3" font-family="Times,serif" font-size="14.00">Constant</text>
</g>
<!-- ast.Expr object at 0x7d2db24c3390&#45;&gt;ast.Constant object at 0x7d2db24c3b90 -->
<g id="edge11" class="edge">
<title>ast.Expr object at 0x7d2db24c3390&#45;&gt;ast.Constant object at 0x7d2db24c3b90</title>
<path fill="none" stroke="black" d="M274.01,-359.7C273.57,-351.98 273.04,-342.71 272.55,-334.11"/>
<polygon fill="black" stroke="black" points="276.04,-333.89 271.98,-324.1 269.05,-334.29 276.04,-333.89"/>
</g>
<!-- ast.Name object at 0x7d2db24c3a90 -->
<g id="node14" class="node">
<title>ast.Name object at 0x7d2db24c3a90</title>
<path fill="#66cdaa" stroke="black" d="M151,-252C151,-252 121,-252 121,-252 115,-252 109,-246 109,-240 109,-240 109,-228 109,-228 109,-222 115,-216 121,-216 121,-216 151,-216 151,-216 157,-216 163,-222 163,-228 163,-228 163,-240 163,-240 163,-246 157,-252 151,-252"/>
<text text-anchor="middle" x="136" y="-230.3" font-family="Times,serif" font-size="14.00">Name</text>
</g>
<!-- ast.While object at 0x7d2db24c3410&#45;&gt;ast.Name object at 0x7d2db24c3a90 -->
<g id="edge13" class="edge">
<title>ast.While object at 0x7d2db24c3410&#45;&gt;ast.Name object at 0x7d2db24c3a90</title>
<path fill="none" stroke="black" d="M344.77,-359.74C341.28,-339.71 332.64,-307.01 312,-288 291.69,-269.3 218.44,-251.67 173.09,-242.2"/>
<polygon fill="black" stroke="black" points="173.53,-238.72 163.03,-240.14 172.13,-245.58 173.53,-238.72"/>
</g>
<!-- ast.Assign object at 0x7d2db24c3c90 -->
<g id="node16" class="node">
<title>ast.Assign object at 0x7d2db24c3c90</title>
<path fill="#66cdaa" stroke="black" d="M402,-324C402,-324 372,-324 372,-324 366,-324 360,-318 360,-312 360,-312 360,-300 360,-300 360,-294 366,-288 372,-288 372,-288 402,-288 402,-288 408,-288 414,-294 414,-300 414,-300 414,-312 414,-312 414,-318 408,-324 402,-324"/>
<text text-anchor="middle" x="387" y="-302.3" font-family="Times,serif" font-size="14.00">Assign</text>
</g>
<!-- ast.While object at 0x7d2db24c3410&#45;&gt;ast.Assign object at 0x7d2db24c3c90 -->
<g id="edge15" class="edge">
<title>ast.While object at 0x7d2db24c3410&#45;&gt;ast.Assign object at 0x7d2db24c3c90</title>
<path fill="none" stroke="black" d="M356.89,-359.7C361.49,-351.64 367.06,-341.89 372.15,-332.98"/>
<polygon fill="black" stroke="black" points="375.3,-334.52 377.23,-324.1 369.23,-331.05 375.3,-334.52"/>
</g>
<!-- ast.Load object at 0x7d2dc0b02b50 -->
<g id="node15" class="node">
<title>ast.Load object at 0x7d2dc0b02b50</title>
<path fill="#66cdaa" stroke="black" d="M696,-36C696,-36 666,-36 666,-36 660,-36 654,-30 654,-24 654,-24 654,-12 654,-12 654,-6 660,0 666,0 666,0 696,0 696,0 702,0 708,-6 708,-12 708,-12 708,-24 708,-24 708,-30 702,-36 696,-36"/>
<text text-anchor="middle" x="681" y="-14.3" font-family="Times,serif" font-size="14.00">Load</text>
</g>
<!-- ast.Name object at 0x7d2db24c3a90&#45;&gt;ast.Load object at 0x7d2dc0b02b50 -->
<g id="edge14" class="edge">
<title>ast.Name object at 0x7d2db24c3a90&#45;&gt;ast.Load object at 0x7d2dc0b02b50</title>
<path fill="none" stroke="black" d="M131.3,-215.76C127.15,-197.44 122.92,-167.9 131,-144 143.9,-105.85 150.91,-91.75 186,-72 264.39,-27.89 542.51,-20.47 643.78,-19.24"/>
<polygon fill="black" stroke="black" points="643.89,-22.74 653.85,-19.13 643.81,-15.74 643.89,-22.74"/>
</g>
<!-- ast.Tuple object at 0x7d2db24c3250 -->
<g id="node17" class="node">
<title>ast.Tuple object at 0x7d2db24c3250</title>
<path fill="#66cdaa" stroke="black" d="M269,-252C269,-252 239,-252 239,-252 233,-252 227,-246 227,-240 227,-240 227,-228 227,-228 227,-222 233,-216 239,-216 239,-216 269,-216 269,-216 275,-216 281,-222 281,-228 281,-228 281,-240 281,-240 281,-246 275,-252 269,-252"/>
<text text-anchor="middle" x="254" y="-230.3" font-family="Times,serif" font-size="14.00">Tuple</text>
</g>
<!-- ast.Assign object at 0x7d2db24c3c90&#45;&gt;ast.Tuple object at 0x7d2db24c3250 -->
<g id="edge16" class="edge">
<title>ast.Assign object at 0x7d2db24c3c90&#45;&gt;ast.Tuple object at 0x7d2db24c3250</title>
<path fill="none" stroke="black" d="M359.76,-290.67C339.68,-280.1 312.16,-265.61 290.22,-254.06"/>
<polygon fill="black" stroke="black" points="291.68,-250.88 281.2,-249.32 288.42,-257.07 291.68,-250.88"/>
</g>
<!-- ast.Tuple object at 0x7d2db24c1c50 -->
<g id="node21" class="node">
<title>ast.Tuple object at 0x7d2db24c1c50</title>
<path fill="#66cdaa" stroke="black" d="M402,-252C402,-252 372,-252 372,-252 366,-252 360,-246 360,-240 360,-240 360,-228 360,-228 360,-222 366,-216 372,-216 372,-216 402,-216 402,-216 408,-216 414,-222 414,-228 414,-228 414,-240 414,-240 414,-246 408,-252 402,-252"/>
<text text-anchor="middle" x="387" y="-230.3" font-family="Times,serif" font-size="14.00">Tuple</text>
</g>
<!-- ast.Assign object at 0x7d2db24c3c90&#45;&gt;ast.Tuple object at 0x7d2db24c1c50 -->
<g id="edge22" class="edge">
<title>ast.Assign object at 0x7d2db24c3c90&#45;&gt;ast.Tuple object at 0x7d2db24c1c50</title>
<path fill="none" stroke="black" d="M387,-287.7C387,-279.98 387,-270.71 387,-262.11"/>
<polygon fill="black" stroke="black" points="390.5,-262.1 387,-252.1 383.5,-262.1 390.5,-262.1"/>
</g>
<!-- ast.Name object at 0x7d2db24c2850 -->
<g id="node18" class="node">
<title>ast.Name object at 0x7d2db24c2850</title>
<path fill="#66cdaa" stroke="black" d="M182,-180C182,-180 152,-180 152,-180 146,-180 140,-174 140,-168 140,-168 140,-156 140,-156 140,-150 146,-144 152,-144 152,-144 182,-144 182,-144 188,-144 194,-150 194,-156 194,-156 194,-168 194,-168 194,-174 188,-180 182,-180"/>
<text text-anchor="middle" x="167" y="-158.3" font-family="Times,serif" font-size="14.00">Name</text>
</g>
<!-- ast.Tuple object at 0x7d2db24c3250&#45;&gt;ast.Name object at 0x7d2db24c2850 -->
<g id="edge17" class="edge">
<title>ast.Tuple object at 0x7d2db24c3250&#45;&gt;ast.Name object at 0x7d2db24c2850</title>
<path fill="none" stroke="black" d="M232.49,-215.7C221.54,-206.88 208.05,-196.03 196.18,-186.47"/>
<polygon fill="black" stroke="black" points="198.24,-183.65 188.26,-180.1 193.86,-189.1 198.24,-183.65"/>
</g>
<!-- ast.Store object at 0x7d2dc0b02bd0 -->
<g id="node19" class="node">
<title>ast.Store object at 0x7d2dc0b02bd0</title>
<path fill="#66cdaa" stroke="black" d="M237,-108C237,-108 207,-108 207,-108 201,-108 195,-102 195,-96 195,-96 195,-84 195,-84 195,-78 201,-72 207,-72 207,-72 237,-72 237,-72 243,-72 249,-78 249,-84 249,-84 249,-96 249,-96 249,-102 243,-108 237,-108"/>
<text text-anchor="middle" x="222" y="-86.3" font-family="Times,serif" font-size="14.00">Store</text>
</g>
<!-- ast.Tuple object at 0x7d2db24c3250&#45;&gt;ast.Store object at 0x7d2dc0b02bd0 -->
<g id="edge21" class="edge">
<title>ast.Tuple object at 0x7d2db24c3250&#45;&gt;ast.Store object at 0x7d2dc0b02bd0</title>
<path fill="none" stroke="black" d="M249.65,-215.85C247.06,-205.48 243.75,-192 241,-180 236.26,-159.34 231.27,-135.89 227.6,-118.25"/>
<polygon fill="black" stroke="black" points="230.95,-117.18 225.49,-108.1 224.09,-118.6 230.95,-117.18"/>
</g>
<!-- ast.Name object at 0x7d2db24c2450 -->
<g id="node20" class="node">
<title>ast.Name object at 0x7d2db24c2450</title>
<path fill="#66cdaa" stroke="black" d="M292,-180C292,-180 262,-180 262,-180 256,-180 250,-174 250,-168 250,-168 250,-156 250,-156 250,-150 256,-144 262,-144 262,-144 292,-144 292,-144 298,-144 304,-150 304,-156 304,-156 304,-168 304,-168 304,-174 298,-180 292,-180"/>
<text text-anchor="middle" x="277" y="-158.3" font-family="Times,serif" font-size="14.00">Name</text>
</g>
<!-- ast.Tuple object at 0x7d2db24c3250&#45;&gt;ast.Name object at 0x7d2db24c2450 -->
<g id="edge19" class="edge">
<title>ast.Tuple object at 0x7d2db24c3250&#45;&gt;ast.Name object at 0x7d2db24c2450</title>
<path fill="none" stroke="black" d="M259.69,-215.7C262.25,-207.9 265.33,-198.51 268.18,-189.83"/>
<polygon fill="black" stroke="black" points="271.58,-190.7 271.38,-180.1 264.93,-188.51 271.58,-190.7"/>
</g>
<!-- ast.Name object at 0x7d2db24c2850&#45;&gt;ast.Store object at 0x7d2dc0b02bd0 -->
<g id="edge18" class="edge">
<title>ast.Name object at 0x7d2db24c2850&#45;&gt;ast.Store object at 0x7d2dc0b02bd0</title>
<path fill="none" stroke="black" d="M180.6,-143.7C187.12,-135.39 195.07,-125.28 202.25,-116.14"/>
<polygon fill="black" stroke="black" points="205.13,-118.13 208.56,-108.1 199.63,-113.81 205.13,-118.13"/>
</g>
<!-- ast.Name object at 0x7d2db24c2450&#45;&gt;ast.Store object at 0x7d2dc0b02bd0 -->
<g id="edge20" class="edge">
<title>ast.Name object at 0x7d2db24c2450&#45;&gt;ast.Store object at 0x7d2dc0b02bd0</title>
<path fill="none" stroke="black" d="M263.4,-143.7C256.88,-135.39 248.93,-125.28 241.75,-116.14"/>
<polygon fill="black" stroke="black" points="244.37,-113.81 235.44,-108.1 238.87,-118.13 244.37,-113.81"/>
</g>
<!-- ast.Tuple object at 0x7d2db24c1c50&#45;&gt;ast.Load object at 0x7d2dc0b02b50 -->
<g id="edge31" class="edge">
<title>ast.Tuple object at 0x7d2db24c1c50&#45;&gt;ast.Load object at 0x7d2dc0b02b50</title>
<path fill="none" stroke="black" d="M371.39,-215.77C363.63,-206.03 355.05,-193.18 351,-180 336.58,-133.09 336.98,-104.22 374,-72 413.76,-37.39 570.94,-24.76 643.69,-20.7"/>
<polygon fill="black" stroke="black" points="643.99,-24.19 653.79,-20.16 643.62,-17.2 643.99,-24.19"/>
</g>
<!-- ast.Name object at 0x7d2db24c2dd0 -->
<g id="node22" class="node">
<title>ast.Name object at 0x7d2db24c2dd0</title>
<path fill="#66cdaa" stroke="black" d="M402,-180C402,-180 372,-180 372,-180 366,-180 360,-174 360,-168 360,-168 360,-156 360,-156 360,-150 366,-144 372,-144 372,-144 402,-144 402,-144 408,-144 414,-150 414,-156 414,-156 414,-168 414,-168 414,-174 408,-180 402,-180"/>
<text text-anchor="middle" x="387" y="-158.3" font-family="Times,serif" font-size="14.00">Name</text>
</g>
<!-- ast.Tuple object at 0x7d2db24c1c50&#45;&gt;ast.Name object at 0x7d2db24c2dd0 -->
<g id="edge23" class="edge">
<title>ast.Tuple object at 0x7d2db24c1c50&#45;&gt;ast.Name object at 0x7d2db24c2dd0</title>
<path fill="none" stroke="black" d="M387,-215.7C387,-207.98 387,-198.71 387,-190.11"/>
<polygon fill="black" stroke="black" points="390.5,-190.1 387,-180.1 383.5,-190.1 390.5,-190.1"/>
</g>
<!-- ast.BinOp object at 0x7d2db24c2c90 -->
<g id="node23" class="node">
<title>ast.BinOp object at 0x7d2db24c2c90</title>
<path fill="#66cdaa" stroke="black" d="M493,-180C493,-180 463,-180 463,-180 457,-180 451,-174 451,-168 451,-168 451,-156 451,-156 451,-150 457,-144 463,-144 463,-144 493,-144 493,-144 499,-144 505,-150 505,-156 505,-156 505,-168 505,-168 505,-174 499,-180 493,-180"/>
<text text-anchor="middle" x="478" y="-158.3" font-family="Times,serif" font-size="14.00">BinOp</text>
</g>
<!-- ast.Tuple object at 0x7d2db24c1c50&#45;&gt;ast.BinOp object at 0x7d2db24c2c90 -->
<g id="edge25" class="edge">
<title>ast.Tuple object at 0x7d2db24c1c50&#45;&gt;ast.BinOp object at 0x7d2db24c2c90</title>
<path fill="none" stroke="black" d="M409.49,-215.7C420.96,-206.88 435.06,-196.03 447.48,-186.47"/>
<polygon fill="black" stroke="black" points="449.97,-188.98 455.76,-180.1 445.7,-183.43 449.97,-188.98"/>
</g>
<!-- ast.Name object at 0x7d2db24c2dd0&#45;&gt;ast.Load object at 0x7d2dc0b02b50 -->
<g id="edge24" class="edge">
<title>ast.Name object at 0x7d2db24c2dd0&#45;&gt;ast.Load object at 0x7d2dc0b02b50</title>
<path fill="none" stroke="black" d="M381.57,-143.68C376.55,-123.9 372.14,-91.74 389,-72 421.46,-33.99 572.47,-23.15 643.67,-20.13"/>
<polygon fill="black" stroke="black" points="644.12,-23.62 653.98,-19.73 643.85,-16.62 644.12,-23.62"/>
</g>
<!-- ast.Name object at 0x7d2db24c32d0 -->
<g id="node24" class="node">
<title>ast.Name object at 0x7d2db24c32d0</title>
<path fill="#66cdaa" stroke="black" d="M440,-108C440,-108 410,-108 410,-108 404,-108 398,-102 398,-96 398,-96 398,-84 398,-84 398,-78 404,-72 410,-72 410,-72 440,-72 440,-72 446,-72 452,-78 452,-84 452,-84 452,-96 452,-96 452,-102 446,-108 440,-108"/>
<text text-anchor="middle" x="425" y="-86.3" font-family="Times,serif" font-size="14.00">Name</text>
</g>
<!-- ast.BinOp object at 0x7d2db24c2c90&#45;&gt;ast.Name object at 0x7d2db24c32d0 -->
<g id="edge26" class="edge">
<title>ast.BinOp object at 0x7d2db24c2c90&#45;&gt;ast.Name object at 0x7d2db24c32d0</title>
<path fill="none" stroke="black" d="M464.9,-143.7C458.61,-135.39 450.95,-125.28 444.04,-116.14"/>
<polygon fill="black" stroke="black" points="446.78,-113.96 437.95,-108.1 441.2,-118.19 446.78,-113.96"/>
</g>
<!-- ast.Mod object at 0x7d2dc0b032d0 -->
<g id="node25" class="node">
<title>ast.Mod object at 0x7d2dc0b032d0</title>
<path fill="#66cdaa" stroke="black" d="M512,-108C512,-108 482,-108 482,-108 476,-108 470,-102 470,-96 470,-96 470,-84 470,-84 470,-78 476,-72 482,-72 482,-72 512,-72 512,-72 518,-72 524,-78 524,-84 524,-84 524,-96 524,-96 524,-102 518,-108 512,-108"/>
<text text-anchor="middle" x="497" y="-86.3" font-family="Times,serif" font-size="14.00">Mod</text>
</g>
<!-- ast.BinOp object at 0x7d2db24c2c90&#45;&gt;ast.Mod object at 0x7d2dc0b032d0 -->
<g id="edge28" class="edge">
<title>ast.BinOp object at 0x7d2db24c2c90&#45;&gt;ast.Mod object at 0x7d2dc0b032d0</title>
<path fill="none" stroke="black" d="M482.7,-143.7C484.81,-135.9 487.36,-126.51 489.72,-117.83"/>
<polygon fill="black" stroke="black" points="493.12,-118.67 492.36,-108.1 486.36,-116.84 493.12,-118.67"/>
</g>
<!-- ast.Name object at 0x7d2db24c3010 -->
<g id="node26" class="node">
<title>ast.Name object at 0x7d2db24c3010</title>
<path fill="#66cdaa" stroke="black" d="M584,-108C584,-108 554,-108 554,-108 548,-108 542,-102 542,-96 542,-96 542,-84 542,-84 542,-78 548,-72 554,-72 554,-72 584,-72 584,-72 590,-72 596,-78 596,-84 596,-84 596,-96 596,-96 596,-102 590,-108 584,-108"/>
<text text-anchor="middle" x="569" y="-86.3" font-family="Times,serif" font-size="14.00">Name</text>
</g>
<!-- ast.BinOp object at 0x7d2db24c2c90&#45;&gt;ast.Name object at 0x7d2db24c3010 -->
<g id="edge29" class="edge">
<title>ast.BinOp object at 0x7d2db24c2c90&#45;&gt;ast.Name object at 0x7d2db24c3010</title>
<path fill="none" stroke="black" d="M500.49,-143.7C511.96,-134.88 526.06,-124.03 538.48,-114.47"/>
<polygon fill="black" stroke="black" points="540.97,-116.98 546.76,-108.1 536.7,-111.43 540.97,-116.98"/>
</g>
<!-- ast.Name object at 0x7d2db24c32d0&#45;&gt;ast.Load object at 0x7d2dc0b02b50 -->
<g id="edge27" class="edge">
<title>ast.Name object at 0x7d2db24c32d0&#45;&gt;ast.Load object at 0x7d2dc0b02b50</title>
<path fill="none" stroke="black" d="M452.27,-75.41C455.19,-74.18 458.13,-73.01 461,-72 523.6,-49.94 599.4,-33.91 643.71,-25.56"/>
<polygon fill="black" stroke="black" points="644.54,-28.97 653.73,-23.71 643.26,-22.09 644.54,-28.97"/>
</g>
<!-- ast.Name object at 0x7d2db24c3010&#45;&gt;ast.Load object at 0x7d2dc0b02b50 -->
<g id="edge30" class="edge">
<title>ast.Name object at 0x7d2db24c3010&#45;&gt;ast.Load object at 0x7d2dc0b02b50</title>
<path fill="none" stroke="black" d="M596.11,-72.05C610.86,-62.84 629.29,-51.32 645.21,-41.37"/>
<polygon fill="black" stroke="black" points="647.12,-44.3 653.75,-36.03 643.41,-38.36 647.12,-44.3"/>
</g>
<!-- ast.Name object at 0x7d2db24c3950 -->
<g id="node28" class="node">
<title>ast.Name object at 0x7d2db24c3950</title>
<path fill="#66cdaa" stroke="black" d="M555,-252C555,-252 525,-252 525,-252 519,-252 513,-246 513,-240 513,-240 513,-228 513,-228 513,-222 519,-216 525,-216 525,-216 555,-216 555,-216 561,-216 567,-222 567,-228 567,-228 567,-240 567,-240 567,-246 561,-252 555,-252"/>
<text text-anchor="middle" x="540" y="-230.3" font-family="Times,serif" font-size="14.00">Name</text>
</g>
<!-- ast.Return object at 0x7d2db24c38d0&#45;&gt;ast.Name object at 0x7d2db24c3950 -->
<g id="edge33" class="edge">
<title>ast.Return object at 0x7d2db24c38d0&#45;&gt;ast.Name object at 0x7d2db24c3950</title>
<path fill="none" stroke="black" d="M461.74,-359.87C477.17,-335.24 505.76,-289.64 523.78,-260.88"/>
<polygon fill="black" stroke="black" points="526.88,-262.52 529.23,-252.19 520.95,-258.8 526.88,-262.52"/>
</g>
<!-- ast.Name object at 0x7d2db24c3950&#45;&gt;ast.Load object at 0x7d2dc0b02b50 -->
<g id="edge34" class="edge">
<title>ast.Name object at 0x7d2db24c3950&#45;&gt;ast.Load object at 0x7d2dc0b02b50</title>
<path fill="none" stroke="black" d="M551.3,-215.85C576,-178.36 634.91,-88.95 664.07,-44.7"/>
<polygon fill="black" stroke="black" points="667.07,-46.51 669.65,-36.23 661.22,-42.66 667.07,-46.51"/>
</g>
<!-- ast.Call object at 0x7d2db24c2150 -->
<g id="node30" class="node">
<title>ast.Call object at 0x7d2db24c2150</title>
<path fill="#66cdaa" stroke="black" d="M743,-324C743,-324 713,-324 713,-324 707,-324 701,-318 701,-312 701,-312 701,-300 701,-300 701,-294 707,-288 713,-288 713,-288 743,-288 743,-288 749,-288 755,-294 755,-300 755,-300 755,-312 755,-312 755,-318 749,-324 743,-324"/>
<text text-anchor="middle" x="728" y="-302.3" font-family="Times,serif" font-size="14.00">Call</text>
</g>
<!-- ast.Return object at 0x7d2db24c1c90&#45;&gt;ast.Call object at 0x7d2db24c2150 -->
<g id="edge36" class="edge">
<title>ast.Return object at 0x7d2db24c1c90&#45;&gt;ast.Call object at 0x7d2db24c2150</title>
<path fill="none" stroke="black" d="M445.24,-436.52C501.17,-410.9 628.98,-352.36 691.79,-323.59"/>
<polygon fill="black" stroke="black" points="693.3,-326.74 700.93,-319.4 690.38,-320.38 693.3,-326.74"/>
</g>
<!-- ast.Name object at 0x7d2db24c2e90 -->
<g id="node31" class="node">
<title>ast.Name object at 0x7d2db24c2e90</title>
<path fill="#66cdaa" stroke="black" d="M692,-252C692,-252 662,-252 662,-252 656,-252 650,-246 650,-240 650,-240 650,-228 650,-228 650,-222 656,-216 662,-216 662,-216 692,-216 692,-216 698,-216 704,-222 704,-228 704,-228 704,-240 704,-240 704,-246 698,-252 692,-252"/>
<text text-anchor="middle" x="677" y="-230.3" font-family="Times,serif" font-size="14.00">Name</text>
</g>
<!-- ast.Call object at 0x7d2db24c2150&#45;&gt;ast.Name object at 0x7d2db24c2e90 -->
<g id="edge37" class="edge">
<title>ast.Call object at 0x7d2db24c2150&#45;&gt;ast.Name object at 0x7d2db24c2e90</title>
<path fill="none" stroke="black" d="M715.39,-287.7C709.4,-279.47 702.12,-269.48 695.52,-260.42"/>
<polygon fill="black" stroke="black" points="698.18,-258.13 689.46,-252.1 692.52,-262.25 698.18,-258.13"/>
</g>
<!-- ast.Call object at 0x7d2db24c1cd0 -->
<g id="node32" class="node">
<title>ast.Call object at 0x7d2db24c1cd0</title>
<path fill="#66cdaa" stroke="black" d="M795,-252C795,-252 765,-252 765,-252 759,-252 753,-246 753,-240 753,-240 753,-228 753,-228 753,-222 759,-216 765,-216 765,-216 795,-216 795,-216 801,-216 807,-222 807,-228 807,-228 807,-240 807,-240 807,-246 801,-252 795,-252"/>
<text text-anchor="middle" x="780" y="-230.3" font-family="Times,serif" font-size="14.00">Call</text>
</g>
<!-- ast.Call object at 0x7d2db24c2150&#45;&gt;ast.Call object at 0x7d2db24c1cd0 -->
<g id="edge39" class="edge">
<title>ast.Call object at 0x7d2db24c2150&#45;&gt;ast.Call object at 0x7d2db24c1cd0</title>
<path fill="none" stroke="black" d="M740.85,-287.7C747.03,-279.39 754.54,-269.28 761.32,-260.14"/>
<polygon fill="black" stroke="black" points="764.14,-262.22 767.29,-252.1 758.52,-258.04 764.14,-262.22"/>
</g>
<!-- ast.Subscript object at 0x7d2db24c1190 -->
<g id="node40" class="node">
<title>ast.Subscript object at 0x7d2db24c1190</title>
<path fill="#66cdaa" stroke="black" d="M1175,-180C1175,-180 1131,-180 1131,-180 1125,-180 1119,-174 1119,-168 1119,-168 1119,-156 1119,-156 1119,-150 1125,-144 1131,-144 1131,-144 1175,-144 1175,-144 1181,-144 1187,-150 1187,-156 1187,-156 1187,-168 1187,-168 1187,-174 1181,-180 1175,-180"/>
<text text-anchor="middle" x="1153" y="-158.3" font-family="Times,serif" font-size="14.00">Subscript</text>
</g>
<!-- ast.Call object at 0x7d2db24c2150&#45;&gt;ast.Subscript object at 0x7d2db24c1190 -->
<g id="edge52" class="edge">
<title>ast.Call object at 0x7d2db24c2150&#45;&gt;ast.Subscript object at 0x7d2db24c1190</title>
<path fill="none" stroke="black" d="M755.23,-295.9C826.94,-271.94 1021.48,-206.94 1109.13,-177.66"/>
<polygon fill="black" stroke="black" points="1110.4,-180.92 1118.78,-174.43 1108.19,-174.28 1110.4,-180.92"/>
</g>
<!-- ast.Name object at 0x7d2db24c2e90&#45;&gt;ast.Load object at 0x7d2dc0b02b50 -->
<g id="edge38" class="edge">
<title>ast.Name object at 0x7d2db24c2e90&#45;&gt;ast.Load object at 0x7d2dc0b02b50</title>
<path fill="none" stroke="black" d="M677.32,-215.85C678.01,-178.83 679.65,-91.18 680.49,-46.39"/>
<polygon fill="black" stroke="black" points="683.99,-46.3 680.68,-36.23 676.99,-46.17 683.99,-46.3"/>
</g>
<!-- ast.Name object at 0x7d2db24c21d0 -->
<g id="node33" class="node">
<title>ast.Name object at 0x7d2db24c21d0</title>
<path fill="#66cdaa" stroke="black" d="M732,-180C732,-180 702,-180 702,-180 696,-180 690,-174 690,-168 690,-168 690,-156 690,-156 690,-150 696,-144 702,-144 702,-144 732,-144 732,-144 738,-144 744,-150 744,-156 744,-156 744,-168 744,-168 744,-174 738,-180 732,-180"/>
<text text-anchor="middle" x="717" y="-158.3" font-family="Times,serif" font-size="14.00">Name</text>
</g>
<!-- ast.Call object at 0x7d2db24c1cd0&#45;&gt;ast.Name object at 0x7d2db24c21d0 -->
<g id="edge40" class="edge">
<title>ast.Call object at 0x7d2db24c1cd0&#45;&gt;ast.Name object at 0x7d2db24c21d0</title>
<path fill="none" stroke="black" d="M764.43,-215.7C756.8,-207.22 747.48,-196.86 739.12,-187.58"/>
<polygon fill="black" stroke="black" points="741.69,-185.2 732.39,-180.1 736.48,-189.88 741.69,-185.2"/>
</g>
<!-- ast.Subscript object at 0x7d2db24c2f50 -->
<g id="node34" class="node">
<title>ast.Subscript object at 0x7d2db24c2f50</title>
<path fill="#66cdaa" stroke="black" d="M818,-180C818,-180 774,-180 774,-180 768,-180 762,-174 762,-168 762,-168 762,-156 762,-156 762,-150 768,-144 774,-144 774,-144 818,-144 818,-144 824,-144 830,-150 830,-156 830,-156 830,-168 830,-168 830,-174 824,-180 818,-180"/>
<text text-anchor="middle" x="796" y="-158.3" font-family="Times,serif" font-size="14.00">Subscript</text>
</g>
<!-- ast.Call object at 0x7d2db24c1cd0&#45;&gt;ast.Subscript object at 0x7d2db24c2f50 -->
<g id="edge42" class="edge">
<title>ast.Call object at 0x7d2db24c1cd0&#45;&gt;ast.Subscript object at 0x7d2db24c2f50</title>
<path fill="none" stroke="black" d="M783.96,-215.7C785.72,-207.98 787.84,-198.71 789.8,-190.11"/>
<polygon fill="black" stroke="black" points="793.27,-190.63 792.09,-180.1 786.45,-189.07 793.27,-190.63"/>
</g>
<!-- ast.Subscript object at 0x7d2db24c2810 -->
<g id="node37" class="node">
<title>ast.Subscript object at 0x7d2db24c2810</title>
<path fill="#66cdaa" stroke="black" d="M981,-180C981,-180 937,-180 937,-180 931,-180 925,-174 925,-168 925,-168 925,-156 925,-156 925,-150 931,-144 937,-144 937,-144 981,-144 981,-144 987,-144 993,-150 993,-156 993,-156 993,-168 993,-168 993,-174 987,-180 981,-180"/>
<text text-anchor="middle" x="959" y="-158.3" font-family="Times,serif" font-size="14.00">Subscript</text>
</g>
<!-- ast.Call object at 0x7d2db24c1cd0&#45;&gt;ast.Subscript object at 0x7d2db24c2810 -->
<g id="edge47" class="edge">
<title>ast.Call object at 0x7d2db24c1cd0&#45;&gt;ast.Subscript object at 0x7d2db24c2810</title>
<path fill="none" stroke="black" d="M807.19,-222.37C835.85,-211.16 881.44,-193.33 915.19,-180.13"/>
<polygon fill="black" stroke="black" points="916.77,-183.27 924.81,-176.37 914.22,-176.75 916.77,-183.27"/>
</g>
<!-- ast.Name object at 0x7d2db24c21d0&#45;&gt;ast.Load object at 0x7d2dc0b02b50 -->
<g id="edge41" class="edge">
<title>ast.Name object at 0x7d2db24c21d0&#45;&gt;ast.Load object at 0x7d2dc0b02b50</title>
<path fill="none" stroke="black" d="M712.66,-143.87C706.5,-119.56 695.15,-74.82 687.85,-46.01"/>
<polygon fill="black" stroke="black" points="691.21,-45.02 685.36,-36.19 684.42,-46.74 691.21,-45.02"/>
</g>
<!-- ast.Subscript object at 0x7d2db24c2f50&#45;&gt;ast.Load object at 0x7d2dc0b02b50 -->
<g id="edge46" class="edge">
<title>ast.Subscript object at 0x7d2db24c2f50&#45;&gt;ast.Load object at 0x7d2dc0b02b50</title>
<path fill="none" stroke="black" d="M782.13,-143.87C762.01,-119.03 724.61,-72.85 701.36,-44.14"/>
<polygon fill="black" stroke="black" points="703.93,-41.76 694.92,-36.19 698.49,-46.16 703.93,-41.76"/>
</g>
<!-- ast.Name object at 0x7d2db24c1d50 -->
<g id="node35" class="node">
<title>ast.Name object at 0x7d2db24c1d50</title>
<path fill="#66cdaa" stroke="black" d="M808,-108C808,-108 778,-108 778,-108 772,-108 766,-102 766,-96 766,-96 766,-84 766,-84 766,-78 772,-72 778,-72 778,-72 808,-72 808,-72 814,-72 820,-78 820,-84 820,-84 820,-96 820,-96 820,-102 814,-108 808,-108"/>
<text text-anchor="middle" x="793" y="-86.3" font-family="Times,serif" font-size="14.00">Name</text>
</g>
<!-- ast.Subscript object at 0x7d2db24c2f50&#45;&gt;ast.Name object at 0x7d2db24c1d50 -->
<g id="edge43" class="edge">
<title>ast.Subscript object at 0x7d2db24c2f50&#45;&gt;ast.Name object at 0x7d2db24c1d50</title>
<path fill="none" stroke="black" d="M795.26,-143.7C794.93,-135.98 794.53,-126.71 794.16,-118.11"/>
<polygon fill="black" stroke="black" points="797.66,-117.95 793.73,-108.1 790.66,-118.25 797.66,-117.95"/>
</g>
<!-- ast.Constant object at 0x7d2db24c3e90 -->
<g id="node36" class="node">
<title>ast.Constant object at 0x7d2db24c3e90</title>
<path fill="#66cdaa" stroke="black" d="M891.5,-108C891.5,-108 850.5,-108 850.5,-108 844.5,-108 838.5,-102 838.5,-96 838.5,-96 838.5,-84 838.5,-84 838.5,-78 844.5,-72 850.5,-72 850.5,-72 891.5,-72 891.5,-72 897.5,-72 903.5,-78 903.5,-84 903.5,-84 903.5,-96 903.5,-96 903.5,-102 897.5,-108 891.5,-108"/>
<text text-anchor="middle" x="871" y="-86.3" font-family="Times,serif" font-size="14.00">Constant</text>
</g>
<!-- ast.Subscript object at 0x7d2db24c2f50&#45;&gt;ast.Constant object at 0x7d2db24c3e90 -->
<g id="edge45" class="edge">
<title>ast.Subscript object at 0x7d2db24c2f50&#45;&gt;ast.Constant object at 0x7d2db24c3e90</title>
<path fill="none" stroke="black" d="M814.54,-143.7C823.8,-135.05 835.16,-124.45 845.26,-115.03"/>
<polygon fill="black" stroke="black" points="847.75,-117.49 852.67,-108.1 842.98,-112.37 847.75,-117.49"/>
</g>
<!-- ast.Name object at 0x7d2db24c1d50&#45;&gt;ast.Load object at 0x7d2dc0b02b50 -->
<g id="edge44" class="edge">
<title>ast.Name object at 0x7d2db24c1d50&#45;&gt;ast.Load object at 0x7d2dc0b02b50</title>
<path fill="none" stroke="black" d="M765.89,-72.05C751.14,-62.84 732.71,-51.32 716.79,-41.37"/>
<polygon fill="black" stroke="black" points="718.59,-38.36 708.25,-36.03 714.88,-44.3 718.59,-38.36"/>
</g>
<!-- ast.Subscript object at 0x7d2db24c2810&#45;&gt;ast.Load object at 0x7d2dc0b02b50 -->
<g id="edge51" class="edge">
<title>ast.Subscript object at 0x7d2db24c2810&#45;&gt;ast.Load object at 0x7d2dc0b02b50</title>
<path fill="none" stroke="black" d="M954.83,-143.75C948.99,-123.41 936.37,-90.11 913,-72 855.64,-27.56 767.8,-19.15 718.29,-18.25"/>
<polygon fill="black" stroke="black" points="718.07,-14.75 708.04,-18.16 718.01,-21.75 718.07,-14.75"/>
</g>
<!-- ast.Name object at 0x7d2db24c1d90 -->
<g id="node38" class="node">
<title>ast.Name object at 0x7d2db24c1d90</title>
<path fill="#66cdaa" stroke="black" d="M1002,-108C1002,-108 972,-108 972,-108 966,-108 960,-102 960,-96 960,-96 960,-84 960,-84 960,-78 966,-72 972,-72 972,-72 1002,-72 1002,-72 1008,-72 1014,-78 1014,-84 1014,-84 1014,-96 1014,-96 1014,-102 1008,-108 1002,-108"/>
<text text-anchor="middle" x="987" y="-86.3" font-family="Times,serif" font-size="14.00">Name</text>
</g>
<!-- ast.Subscript object at 0x7d2db24c2810&#45;&gt;ast.Name object at 0x7d2db24c1d90 -->
<g id="edge48" class="edge">
<title>ast.Subscript object at 0x7d2db24c2810&#45;&gt;ast.Name object at 0x7d2db24c1d90</title>
<path fill="none" stroke="black" d="M965.92,-143.7C969.07,-135.81 972.88,-126.3 976.38,-117.55"/>
<polygon fill="black" stroke="black" points="979.69,-118.69 980.16,-108.1 973.19,-116.09 979.69,-118.69"/>
</g>
<!-- ast.Constant object at 0x7d2db24c3a50 -->
<g id="node39" class="node">
<title>ast.Constant object at 0x7d2db24c3a50</title>
<path fill="#66cdaa" stroke="black" d="M1085.5,-108C1085.5,-108 1044.5,-108 1044.5,-108 1038.5,-108 1032.5,-102 1032.5,-96 1032.5,-96 1032.5,-84 1032.5,-84 1032.5,-78 1038.5,-72 1044.5,-72 1044.5,-72 1085.5,-72 1085.5,-72 1091.5,-72 1097.5,-78 1097.5,-84 1097.5,-84 1097.5,-96 1097.5,-96 1097.5,-102 1091.5,-108 1085.5,-108"/>
<text text-anchor="middle" x="1065" y="-86.3" font-family="Times,serif" font-size="14.00">Constant</text>
</g>
<!-- ast.Subscript object at 0x7d2db24c2810&#45;&gt;ast.Constant object at 0x7d2db24c3a50 -->
<g id="edge50" class="edge">
<title>ast.Subscript object at 0x7d2db24c2810&#45;&gt;ast.Constant object at 0x7d2db24c3a50</title>
<path fill="none" stroke="black" d="M984.93,-143.88C998.66,-134.81 1015.71,-123.55 1030.54,-113.76"/>
<polygon fill="black" stroke="black" points="1032.55,-116.62 1038.97,-108.19 1028.7,-110.78 1032.55,-116.62"/>
</g>
<!-- ast.Name object at 0x7d2db24c1d90&#45;&gt;ast.Load object at 0x7d2dc0b02b50 -->
<g id="edge49" class="edge">
<title>ast.Name object at 0x7d2db24c1d90&#45;&gt;ast.Load object at 0x7d2dc0b02b50</title>
<path fill="none" stroke="black" d="M959.92,-76.9C955.33,-75.1 950.57,-73.39 946,-72 866.42,-47.8 769.97,-31.7 718.18,-24.09"/>
<polygon fill="black" stroke="black" points="718.53,-20.6 708.14,-22.63 717.53,-27.53 718.53,-20.6"/>
</g>
<!-- ast.Subscript object at 0x7d2db24c1190&#45;&gt;ast.Load object at 0x7d2dc0b02b50 -->
<g id="edge56" class="edge">
<title>ast.Subscript object at 0x7d2db24c1190&#45;&gt;ast.Load object at 0x7d2dc0b02b50</title>
<path fill="none" stroke="black" d="M1149.22,-143.71C1143.73,-123 1131.4,-89.01 1107,-72 1044.51,-28.44 810.22,-20.65 718.32,-19.28"/>
<polygon fill="black" stroke="black" points="718.14,-15.78 708.09,-19.15 718.05,-22.78 718.14,-15.78"/>
</g>
<!-- ast.Name object at 0x7d2db24c1010 -->
<g id="node41" class="node">
<title>ast.Name object at 0x7d2db24c1010</title>
<path fill="#66cdaa" stroke="black" d="M1196,-108C1196,-108 1166,-108 1166,-108 1160,-108 1154,-102 1154,-96 1154,-96 1154,-84 1154,-84 1154,-78 1160,-72 1166,-72 1166,-72 1196,-72 1196,-72 1202,-72 1208,-78 1208,-84 1208,-84 1208,-96 1208,-96 1208,-102 1202,-108 1196,-108"/>
<text text-anchor="middle" x="1181" y="-86.3" font-family="Times,serif" font-size="14.00">Name</text>
</g>
<!-- ast.Subscript object at 0x7d2db24c1190&#45;&gt;ast.Name object at 0x7d2db24c1010 -->
<g id="edge53" class="edge">
<title>ast.Subscript object at 0x7d2db24c1190&#45;&gt;ast.Name object at 0x7d2db24c1010</title>
<path fill="none" stroke="black" d="M1159.92,-143.7C1163.07,-135.81 1166.88,-126.3 1170.38,-117.55"/>
<polygon fill="black" stroke="black" points="1173.69,-118.69 1174.16,-108.1 1167.19,-116.09 1173.69,-118.69"/>
</g>
<!-- ast.Constant object at 0x7d2db24c1090 -->
<g id="node42" class="node">
<title>ast.Constant object at 0x7d2db24c1090</title>
<path fill="#66cdaa" stroke="black" d="M1279.5,-108C1279.5,-108 1238.5,-108 1238.5,-108 1232.5,-108 1226.5,-102 1226.5,-96 1226.5,-96 1226.5,-84 1226.5,-84 1226.5,-78 1232.5,-72 1238.5,-72 1238.5,-72 1279.5,-72 1279.5,-72 1285.5,-72 1291.5,-78 1291.5,-84 1291.5,-84 1291.5,-96 1291.5,-96 1291.5,-102 1285.5,-108 1279.5,-108"/>
<text text-anchor="middle" x="1259" y="-86.3" font-family="Times,serif" font-size="14.00">Constant</text>
</g>
<!-- ast.Subscript object at 0x7d2db24c1190&#45;&gt;ast.Constant object at 0x7d2db24c1090 -->
<g id="edge55" class="edge">
<title>ast.Subscript object at 0x7d2db24c1190&#45;&gt;ast.Constant object at 0x7d2db24c1090</title>
<path fill="none" stroke="black" d="M1178.93,-143.88C1192.66,-134.81 1209.71,-123.55 1224.54,-113.76"/>
<polygon fill="black" stroke="black" points="1226.55,-116.62 1232.97,-108.19 1222.7,-110.78 1226.55,-116.62"/>
</g>
<!-- ast.Name object at 0x7d2db24c1010&#45;&gt;ast.Load object at 0x7d2dc0b02b50 -->
<g id="edge54" class="edge">
<title>ast.Name object at 0x7d2db24c1010&#45;&gt;ast.Load object at 0x7d2dc0b02b50</title>
<path fill="none" stroke="black" d="M1153.57,-76.41C1149.1,-74.71 1144.48,-73.16 1140,-72 987.05,-32.29 797.72,-22.31 718.55,-19.82"/>
<polygon fill="black" stroke="black" points="718.22,-16.31 708.12,-19.52 718.02,-23.31 718.22,-16.31"/>
</g>
</g>
</svg>
