<?xml version="1.0" encoding="UTF-8" standalone="no"?>
<!DOCTYPE svg PUBLIC "-//W3C//DTD SVG 1.1//EN"
 "http://www.w3.org/Graphics/SVG/1.1/DTD/svg11.dtd">
<!-- Generated by graphviz version 2.50.0 (0)
 -->
<!-- Pages: 1 -->
<svg width="769pt" height="692pt"
 viewBox="0.00 0.00 768.61 692.00" xmlns="http://www.w3.org/2000/svg" xmlns:xlink="http://www.w3.org/1999/xlink">
<g id="graph0" class="graph" transform="scale(1 1) rotate(0) translate(4 688)">
<polygon fill="white" stroke="transparent" points="-4,4 -4,-688 764.61,-688 764.61,4 -4,4"/>
<!-- ast.Module object at 0x73d79300bf10 -->
<g id="node1" class="node">
<title>ast.Module object at 0x73d79300bf10</title>
<path fill="#66cdaa" stroke="black" d="M585.11,-684C585.11,-684 550.11,-684 550.11,-684 544.11,-684 538.11,-678 538.11,-672 538.11,-672 538.11,-660 538.11,-660 538.11,-654 544.11,-648 550.11,-648 550.11,-648 585.11,-648 585.11,-648 591.11,-648 597.11,-654 597.11,-660 597.11,-660 597.11,-672 597.11,-672 597.11,-678 591.11,-684 585.11,-684"/>
<text text-anchor="middle" x="567.61" y="-662.3" font-family="Times,serif" font-size="14.00">Module</text>
</g>
<!-- ast.FunctionDef object at 0x73d79285d790 -->
<g id="node2" class="node">
<title>ast.FunctionDef object at 0x73d79285d790</title>
<path fill="#66cdaa" stroke="black" d="M598.11,-612C598.11,-612 537.11,-612 537.11,-612 531.11,-612 525.11,-606 525.11,-600 525.11,-600 525.11,-588 525.11,-588 525.11,-582 531.11,-576 537.11,-576 537.11,-576 598.11,-576 598.11,-576 604.11,-576 610.11,-582 610.11,-588 610.11,-588 610.11,-600 610.11,-600 610.11,-606 604.11,-612 598.11,-612"/>
<text text-anchor="middle" x="567.61" y="-590.3" font-family="Times,serif" font-size="14.00">FunctionDef</text>
</g>
<!-- ast.Module object at 0x73d79300bf10&#45;&gt;ast.FunctionDef object at 0x73d79285d790 -->
<g id="edge1" class="edge">
<title>ast.Module object at 0x73d79300bf10&#45;&gt;ast.FunctionDef object at 0x73d79285d790</title>
<path fill="none" stroke="black" d="M567.61,-647.7C567.61,-639.98 567.61,-630.71 567.61,-622.11"/>
<polygon fill="black" stroke="black" points="571.11,-622.1 567.61,-612.1 564.11,-622.1 571.11,-622.1"/>
</g>
<!-- ast.arguments object at 0x73d7927f4790 -->
<g id="node3" class="node">
<title>ast.arguments object at 0x73d7927f4790</title>
<path fill="#66cdaa" stroke="black" d="M458.61,-540C458.61,-540 408.61,-540 408.61,-540 402.61,-540 396.61,-534 396.61,-528 396.61,-528 396.61,-516 396.61,-516 396.61,-510 402.61,-504 408.61,-504 408.61,-504 458.61,-504 458.61,-504 464.61,-504 470.61,-510 470.61,-516 470.61,-516 470.61,-528 470.61,-528 470.61,-534 464.61,-540 458.61,-540"/>
<text text-anchor="middle" x="433.61" y="-518.3" font-family="Times,serif" font-size="14.00">arguments</text>
</g>
<!-- ast.FunctionDef object at 0x73d79285d790&#45;&gt;ast.arguments object at 0x73d7927f4790 -->
<g id="edge2" class="edge">
<title>ast.FunctionDef object at 0x73d79285d790&#45;&gt;ast.arguments object at 0x73d7927f4790</title>
<path fill="none" stroke="black" d="M534.83,-575.88C516.98,-566.55 494.71,-554.92 475.6,-544.94"/>
<polygon fill="black" stroke="black" points="477,-541.72 466.51,-540.19 473.76,-547.92 477,-541.72"/>
</g>
<!-- ast.Assign object at 0x73d7927f4090 -->
<g id="node5" class="node">
<title>ast.Assign object at 0x73d7927f4090</title>
<path fill="#66cdaa" stroke="black" d="M582.61,-540C582.61,-540 552.61,-540 552.61,-540 546.61,-540 540.61,-534 540.61,-528 540.61,-528 540.61,-516 540.61,-516 540.61,-510 546.61,-504 552.61,-504 552.61,-504 582.61,-504 582.61,-504 588.61,-504 594.61,-510 594.61,-516 594.61,-516 594.61,-528 594.61,-528 594.61,-534 588.61,-540 582.61,-540"/>
<text text-anchor="middle" x="567.61" y="-518.3" font-family="Times,serif" font-size="14.00">Assign</text>
</g>
<!-- ast.FunctionDef object at 0x73d79285d790&#45;&gt;ast.Assign object at 0x73d7927f4090 -->
<g id="edge4" class="edge">
<title>ast.FunctionDef object at 0x73d79285d790&#45;&gt;ast.Assign object at 0x73d7927f4090</title>
<path fill="none" stroke="black" d="M567.61,-575.7C567.61,-567.98 567.61,-558.71 567.61,-550.11"/>
<polygon fill="black" stroke="black" points="571.11,-550.1 567.61,-540.1 564.11,-550.1 571.11,-550.1"/>
</g>
<!-- ast.Return object at 0x73d792601a50 -->
<g id="node34" class="node">
<title>ast.Return object at 0x73d792601a50</title>
<path fill="#66cdaa" stroke="black" d="M700.61,-540C700.61,-540 670.61,-540 670.61,-540 664.61,-540 658.61,-534 658.61,-528 658.61,-528 658.61,-516 658.61,-516 658.61,-510 664.61,-504 670.61,-504 670.61,-504 700.61,-504 700.61,-504 706.61,-504 712.61,-510 712.61,-516 712.61,-516 712.61,-528 712.61,-528 712.61,-534 706.61,-540 700.61,-540"/>
<text text-anchor="middle" x="685.61" y="-518.3" font-family="Times,serif" font-size="14.00">Return</text>
</g>
<!-- ast.FunctionDef object at 0x73d79285d790&#45;&gt;ast.Return object at 0x73d792601a50 -->
<g id="edge41" class="edge">
<title>ast.FunctionDef object at 0x73d79285d790&#45;&gt;ast.Return object at 0x73d792601a50</title>
<path fill="none" stroke="black" d="M596.47,-575.88C612.36,-566.45 632.24,-554.66 649.18,-544.61"/>
<polygon fill="black" stroke="black" points="651.44,-547.34 658.26,-539.23 647.87,-541.32 651.44,-547.34"/>
</g>
<!-- ast.arg object at 0x73d7927f6050 -->
<g id="node4" class="node">
<title>ast.arg object at 0x73d7927f6050</title>
<path fill="#66cdaa" stroke="black" d="M344.61,-468C344.61,-468 314.61,-468 314.61,-468 308.61,-468 302.61,-462 302.61,-456 302.61,-456 302.61,-444 302.61,-444 302.61,-438 308.61,-432 314.61,-432 314.61,-432 344.61,-432 344.61,-432 350.61,-432 356.61,-438 356.61,-444 356.61,-444 356.61,-456 356.61,-456 356.61,-462 350.61,-468 344.61,-468"/>
<text text-anchor="middle" x="329.61" y="-446.3" font-family="Times,serif" font-size="14.00">arg</text>
</g>
<!-- ast.arguments object at 0x73d7927f4790&#45;&gt;ast.arg object at 0x73d7927f6050 -->
<g id="edge3" class="edge">
<title>ast.arguments object at 0x73d7927f4790&#45;&gt;ast.arg object at 0x73d7927f6050</title>
<path fill="none" stroke="black" d="M408.17,-503.88C394.82,-494.89 378.28,-483.76 363.83,-474.03"/>
<polygon fill="black" stroke="black" points="365.4,-470.87 355.15,-468.19 361.49,-476.68 365.4,-470.87"/>
</g>
<!-- ast.Name object at 0x73d7927f6dd0 -->
<g id="node6" class="node">
<title>ast.Name object at 0x73d7927f6dd0</title>
<path fill="#66cdaa" stroke="black" d="M621.61,-396C621.61,-396 591.61,-396 591.61,-396 585.61,-396 579.61,-390 579.61,-384 579.61,-384 579.61,-372 579.61,-372 579.61,-366 585.61,-360 591.61,-360 591.61,-360 621.61,-360 621.61,-360 627.61,-360 633.61,-366 633.61,-372 633.61,-372 633.61,-384 633.61,-384 633.61,-390 627.61,-396 621.61,-396"/>
<text text-anchor="middle" x="606.61" y="-374.3" font-family="Times,serif" font-size="14.00">Name</text>
</g>
<!-- ast.Assign object at 0x73d7927f4090&#45;&gt;ast.Name object at 0x73d7927f6dd0 -->
<g id="edge5" class="edge">
<title>ast.Assign object at 0x73d7927f4090&#45;&gt;ast.Name object at 0x73d7927f6dd0</title>
<path fill="none" stroke="black" d="M572.31,-503.87C578.99,-479.56 591.28,-434.82 599.19,-406.01"/>
<polygon fill="black" stroke="black" points="602.61,-406.76 601.89,-396.19 595.86,-404.91 602.61,-406.76"/>
</g>
<!-- ast.ListComp object at 0x73d7927f6750 -->
<g id="node8" class="node">
<title>ast.ListComp object at 0x73d7927f6750</title>
<path fill="#66cdaa" stroke="black" d="M434.11,-468C434.11,-468 387.11,-468 387.11,-468 381.11,-468 375.11,-462 375.11,-456 375.11,-456 375.11,-444 375.11,-444 375.11,-438 381.11,-432 387.11,-432 387.11,-432 434.11,-432 434.11,-432 440.11,-432 446.11,-438 446.11,-444 446.11,-444 446.11,-456 446.11,-456 446.11,-462 440.11,-468 434.11,-468"/>
<text text-anchor="middle" x="410.61" y="-446.3" font-family="Times,serif" font-size="14.00">ListComp</text>
</g>
<!-- ast.Assign object at 0x73d7927f4090&#45;&gt;ast.ListComp object at 0x73d7927f6750 -->
<g id="edge7" class="edge">
<title>ast.Assign object at 0x73d7927f4090&#45;&gt;ast.ListComp object at 0x73d7927f6750</title>
<path fill="none" stroke="black" d="M540.26,-508.81C516.92,-498.4 482.89,-483.23 455.55,-471.04"/>
<polygon fill="black" stroke="black" points="456.75,-467.74 446.19,-466.86 453.9,-474.13 456.75,-467.74"/>
</g>
<!-- ast.Store object at 0x73d867a3bb10 -->
<g id="node7" class="node">
<title>ast.Store object at 0x73d867a3bb10</title>
<path fill="#66cdaa" stroke="black" d="M663.61,-180C663.61,-180 633.61,-180 633.61,-180 627.61,-180 621.61,-174 621.61,-168 621.61,-168 621.61,-156 621.61,-156 621.61,-150 627.61,-144 633.61,-144 633.61,-144 663.61,-144 663.61,-144 669.61,-144 675.61,-150 675.61,-156 675.61,-156 675.61,-168 675.61,-168 675.61,-174 669.61,-180 663.61,-180"/>
<text text-anchor="middle" x="648.61" y="-158.3" font-family="Times,serif" font-size="14.00">Store</text>
</g>
<!-- ast.Name object at 0x73d7927f6dd0&#45;&gt;ast.Store object at 0x73d867a3bb10 -->
<g id="edge6" class="edge">
<title>ast.Name object at 0x73d7927f6dd0&#45;&gt;ast.Store object at 0x73d867a3bb10</title>
<path fill="none" stroke="black" d="M616.48,-359.92C629.39,-336.49 651.34,-292.65 659.61,-252 663.77,-231.53 660.55,-208.07 656.54,-190.38"/>
<polygon fill="black" stroke="black" points="659.81,-189.05 654,-180.19 653.02,-190.74 659.81,-189.05"/>
</g>
<!-- ast.Name object at 0x73d7927f6190 -->
<g id="node9" class="node">
<title>ast.Name object at 0x73d7927f6190</title>
<path fill="#66cdaa" stroke="black" d="M190.61,-396C190.61,-396 160.61,-396 160.61,-396 154.61,-396 148.61,-390 148.61,-384 148.61,-384 148.61,-372 148.61,-372 148.61,-366 154.61,-360 160.61,-360 160.61,-360 190.61,-360 190.61,-360 196.61,-360 202.61,-366 202.61,-372 202.61,-372 202.61,-384 202.61,-384 202.61,-390 196.61,-396 190.61,-396"/>
<text text-anchor="middle" x="175.61" y="-374.3" font-family="Times,serif" font-size="14.00">Name</text>
</g>
<!-- ast.ListComp object at 0x73d7927f6750&#45;&gt;ast.Name object at 0x73d7927f6190 -->
<g id="edge8" class="edge">
<title>ast.ListComp object at 0x73d7927f6750&#45;&gt;ast.Name object at 0x73d7927f6190</title>
<path fill="none" stroke="black" d="M374.85,-435.16C371.73,-434.06 368.62,-432.99 365.61,-432 313.03,-414.77 251.14,-398.18 212.63,-388.28"/>
<polygon fill="black" stroke="black" points="213.45,-384.88 202.89,-385.79 211.72,-391.66 213.45,-384.88"/>
</g>
<!-- ast.comprehension object at 0x73d7927f4fd0 -->
<g id="node11" class="node">
<title>ast.comprehension object at 0x73d7927f4fd0</title>
<path fill="#66cdaa" stroke="black" d="M435.61,-396C435.61,-396 359.61,-396 359.61,-396 353.61,-396 347.61,-390 347.61,-384 347.61,-384 347.61,-372 347.61,-372 347.61,-366 353.61,-360 359.61,-360 359.61,-360 435.61,-360 435.61,-360 441.61,-360 447.61,-366 447.61,-372 447.61,-372 447.61,-384 447.61,-384 447.61,-390 441.61,-396 435.61,-396"/>
<text text-anchor="middle" x="397.61" y="-374.3" font-family="Times,serif" font-size="14.00">comprehension</text>
</g>
<!-- ast.ListComp object at 0x73d7927f6750&#45;&gt;ast.comprehension object at 0x73d7927f4fd0 -->
<g id="edge10" class="edge">
<title>ast.ListComp object at 0x73d7927f6750&#45;&gt;ast.comprehension object at 0x73d7927f4fd0</title>
<path fill="none" stroke="black" d="M407.39,-431.7C405.96,-423.98 404.24,-414.71 402.64,-406.11"/>
<polygon fill="black" stroke="black" points="406.05,-405.3 400.78,-396.1 399.17,-406.58 406.05,-405.3"/>
</g>
<!-- ast.Load object at 0x73d867a3ba90 -->
<g id="node10" class="node">
<title>ast.Load object at 0x73d867a3ba90</title>
<path fill="#66cdaa" stroke="black" d="M383.61,-36C383.61,-36 353.61,-36 353.61,-36 347.61,-36 341.61,-30 341.61,-24 341.61,-24 341.61,-12 341.61,-12 341.61,-6 347.61,0 353.61,0 353.61,0 383.61,0 383.61,0 389.61,0 395.61,-6 395.61,-12 395.61,-12 395.61,-24 395.61,-24 395.61,-30 389.61,-36 383.61,-36"/>
<text text-anchor="middle" x="368.61" y="-14.3" font-family="Times,serif" font-size="14.00">Load</text>
</g>
<!-- ast.Name object at 0x73d7927f6190&#45;&gt;ast.Load object at 0x73d867a3ba90 -->
<g id="edge9" class="edge">
<title>ast.Name object at 0x73d7927f6190&#45;&gt;ast.Load object at 0x73d867a3ba90</title>
<path fill="none" stroke="black" d="M148.58,-368.8C99.92,-352.18 2.61,-309.6 2.61,-235 2.61,-235 2.61,-235 2.61,-161 2.61,-120.55 -7.82,-99.75 21.61,-72 65.74,-30.39 251.05,-21.44 331.3,-19.52"/>
<polygon fill="black" stroke="black" points="331.53,-23.02 341.45,-19.31 331.37,-16.02 331.53,-23.02"/>
</g>
<!-- ast.Tuple object at 0x73d7927f4410 -->
<g id="node12" class="node">
<title>ast.Tuple object at 0x73d7927f4410</title>
<path fill="#66cdaa" stroke="black" d="M555.61,-324C555.61,-324 525.61,-324 525.61,-324 519.61,-324 513.61,-318 513.61,-312 513.61,-312 513.61,-300 513.61,-300 513.61,-294 519.61,-288 525.61,-288 525.61,-288 555.61,-288 555.61,-288 561.61,-288 567.61,-294 567.61,-300 567.61,-300 567.61,-312 567.61,-312 567.61,-318 561.61,-324 555.61,-324"/>
<text text-anchor="middle" x="540.61" y="-302.3" font-family="Times,serif" font-size="14.00">Tuple</text>
</g>
<!-- ast.comprehension object at 0x73d7927f4fd0&#45;&gt;ast.Tuple object at 0x73d7927f4410 -->
<g id="edge11" class="edge">
<title>ast.comprehension object at 0x73d7927f4fd0&#45;&gt;ast.Tuple object at 0x73d7927f4410</title>
<path fill="none" stroke="black" d="M432.59,-359.88C454.44,-349.18 482.51,-335.44 504.56,-324.65"/>
<polygon fill="black" stroke="black" points="506.16,-327.76 513.6,-320.22 503.08,-321.47 506.16,-327.76"/>
</g>
<!-- ast.Call object at 0x73d7927f7150 -->
<g id="node15" class="node">
<title>ast.Call object at 0x73d7927f7150</title>
<path fill="#66cdaa" stroke="black" d="M144.61,-180C144.61,-180 114.61,-180 114.61,-180 108.61,-180 102.61,-174 102.61,-168 102.61,-168 102.61,-156 102.61,-156 102.61,-150 108.61,-144 114.61,-144 114.61,-144 144.61,-144 144.61,-144 150.61,-144 156.61,-150 156.61,-156 156.61,-156 156.61,-168 156.61,-168 156.61,-174 150.61,-180 144.61,-180"/>
<text text-anchor="middle" x="129.61" y="-158.3" font-family="Times,serif" font-size="14.00">Call</text>
</g>
<!-- ast.comprehension object at 0x73d7927f4fd0&#45;&gt;ast.Call object at 0x73d7927f7150 -->
<g id="edge17" class="edge">
<title>ast.comprehension object at 0x73d7927f4fd0&#45;&gt;ast.Call object at 0x73d7927f7150</title>
<path fill="none" stroke="black" d="M374.2,-359.81C342.09,-336.08 282.76,-291.71 233.61,-252 207.01,-230.51 177.45,-205.06 156.67,-186.89"/>
<polygon fill="black" stroke="black" points="158.71,-184.02 148.88,-180.06 154.09,-189.29 158.71,-184.02"/>
</g>
<!-- ast.BoolOp object at 0x73d7927f4390 -->
<g id="node18" class="node">
<title>ast.BoolOp object at 0x73d7927f4390</title>
<path fill="#66cdaa" stroke="black" d="M387.11,-324C387.11,-324 352.11,-324 352.11,-324 346.11,-324 340.11,-318 340.11,-312 340.11,-312 340.11,-300 340.11,-300 340.11,-294 346.11,-288 352.11,-288 352.11,-288 387.11,-288 387.11,-288 393.11,-288 399.11,-294 399.11,-300 399.11,-300 399.11,-312 399.11,-312 399.11,-318 393.11,-324 387.11,-324"/>
<text text-anchor="middle" x="369.61" y="-302.3" font-family="Times,serif" font-size="14.00">BoolOp</text>
</g>
<!-- ast.comprehension object at 0x73d7927f4fd0&#45;&gt;ast.BoolOp object at 0x73d7927f4390 -->
<g id="edge22" class="edge">
<title>ast.comprehension object at 0x73d7927f4fd0&#45;&gt;ast.BoolOp object at 0x73d7927f4390</title>
<path fill="none" stroke="black" d="M390.69,-359.7C387.53,-351.81 383.73,-342.3 380.23,-333.55"/>
<polygon fill="black" stroke="black" points="383.41,-332.09 376.45,-324.1 376.91,-334.69 383.41,-332.09"/>
</g>
<!-- ast.Tuple object at 0x73d7927f4410&#45;&gt;ast.Store object at 0x73d867a3bb10 -->
<g id="edge16" class="edge">
<title>ast.Tuple object at 0x73d7927f4410&#45;&gt;ast.Store object at 0x73d867a3bb10</title>
<path fill="none" stroke="black" d="M547.41,-287.82C555.34,-269.03 569.69,-238.59 587.61,-216 596.07,-205.33 606.88,-195.14 617.05,-186.59"/>
<polygon fill="black" stroke="black" points="619.46,-189.13 625,-180.11 615.04,-183.71 619.46,-189.13"/>
</g>
<!-- ast.Name object at 0x73d7927f4110 -->
<g id="node13" class="node">
<title>ast.Name object at 0x73d7927f4110</title>
<path fill="#66cdaa" stroke="black" d="M638.61,-252C638.61,-252 608.61,-252 608.61,-252 602.61,-252 596.61,-246 596.61,-240 596.61,-240 596.61,-228 596.61,-228 596.61,-222 602.61,-216 608.61,-216 608.61,-216 638.61,-216 638.61,-216 644.61,-216 650.61,-222 650.61,-228 650.61,-228 650.61,-240 650.61,-240 650.61,-246 644.61,-252 638.61,-252"/>
<text text-anchor="middle" x="623.61" y="-230.3" font-family="Times,serif" font-size="14.00">Name</text>
</g>
<!-- ast.Tuple object at 0x73d7927f4410&#45;&gt;ast.Name object at 0x73d7927f4110 -->
<g id="edge12" class="edge">
<title>ast.Tuple object at 0x73d7927f4410&#45;&gt;ast.Name object at 0x73d7927f4110</title>
<path fill="none" stroke="black" d="M561.12,-287.7C571.48,-278.97 584.19,-268.24 595.45,-258.75"/>
<polygon fill="black" stroke="black" points="597.94,-261.23 603.33,-252.1 593.43,-255.88 597.94,-261.23"/>
</g>
<!-- ast.Name object at 0x73d7927f42d0 -->
<g id="node14" class="node">
<title>ast.Name object at 0x73d7927f42d0</title>
<path fill="#66cdaa" stroke="black" d="M528.61,-252C528.61,-252 498.61,-252 498.61,-252 492.61,-252 486.61,-246 486.61,-240 486.61,-240 486.61,-228 486.61,-228 486.61,-222 492.61,-216 498.61,-216 498.61,-216 528.61,-216 528.61,-216 534.61,-216 540.61,-222 540.61,-228 540.61,-228 540.61,-240 540.61,-240 540.61,-246 534.61,-252 528.61,-252"/>
<text text-anchor="middle" x="513.61" y="-230.3" font-family="Times,serif" font-size="14.00">Name</text>
</g>
<!-- ast.Tuple object at 0x73d7927f4410&#45;&gt;ast.Name object at 0x73d7927f42d0 -->
<g id="edge14" class="edge">
<title>ast.Tuple object at 0x73d7927f4410&#45;&gt;ast.Name object at 0x73d7927f42d0</title>
<path fill="none" stroke="black" d="M533.93,-287.7C530.89,-279.81 527.22,-270.3 523.85,-261.55"/>
<polygon fill="black" stroke="black" points="527.07,-260.17 520.2,-252.1 520.54,-262.69 527.07,-260.17"/>
</g>
<!-- ast.Name object at 0x73d7927f4110&#45;&gt;ast.Store object at 0x73d867a3bb10 -->
<g id="edge13" class="edge">
<title>ast.Name object at 0x73d7927f4110&#45;&gt;ast.Store object at 0x73d867a3bb10</title>
<path fill="none" stroke="black" d="M629.79,-215.7C632.6,-207.81 636,-198.3 639.13,-189.55"/>
<polygon fill="black" stroke="black" points="642.43,-190.7 642.5,-180.1 635.84,-188.34 642.43,-190.7"/>
</g>
<!-- ast.Name object at 0x73d7927f42d0&#45;&gt;ast.Store object at 0x73d867a3bb10 -->
<g id="edge15" class="edge">
<title>ast.Name object at 0x73d7927f42d0&#45;&gt;ast.Store object at 0x73d867a3bb10</title>
<path fill="none" stroke="black" d="M540.93,-218.83C561.51,-208.16 589.94,-193.42 612.41,-181.77"/>
<polygon fill="black" stroke="black" points="614.06,-184.85 621.33,-177.14 610.84,-178.64 614.06,-184.85"/>
</g>
<!-- ast.Name object at 0x73d7927f6cd0 -->
<g id="node16" class="node">
<title>ast.Name object at 0x73d7927f6cd0</title>
<path fill="#66cdaa" stroke="black" d="M144.61,-108C144.61,-108 114.61,-108 114.61,-108 108.61,-108 102.61,-102 102.61,-96 102.61,-96 102.61,-84 102.61,-84 102.61,-78 108.61,-72 114.61,-72 114.61,-72 144.61,-72 144.61,-72 150.61,-72 156.61,-78 156.61,-84 156.61,-84 156.61,-96 156.61,-96 156.61,-102 150.61,-108 144.61,-108"/>
<text text-anchor="middle" x="129.61" y="-86.3" font-family="Times,serif" font-size="14.00">Name</text>
</g>
<!-- ast.Call object at 0x73d7927f7150&#45;&gt;ast.Name object at 0x73d7927f6cd0 -->
<g id="edge18" class="edge">
<title>ast.Call object at 0x73d7927f7150&#45;&gt;ast.Name object at 0x73d7927f6cd0</title>
<path fill="none" stroke="black" d="M129.61,-143.7C129.61,-135.98 129.61,-126.71 129.61,-118.11"/>
<polygon fill="black" stroke="black" points="133.11,-118.1 129.61,-108.1 126.11,-118.1 133.11,-118.1"/>
</g>
<!-- ast.Name object at 0x73d7927f5490 -->
<g id="node17" class="node">
<title>ast.Name object at 0x73d7927f5490</title>
<path fill="#66cdaa" stroke="black" d="M72.61,-108C72.61,-108 42.61,-108 42.61,-108 36.61,-108 30.61,-102 30.61,-96 30.61,-96 30.61,-84 30.61,-84 30.61,-78 36.61,-72 42.61,-72 42.61,-72 72.61,-72 72.61,-72 78.61,-72 84.61,-78 84.61,-84 84.61,-84 84.61,-96 84.61,-96 84.61,-102 78.61,-108 72.61,-108"/>
<text text-anchor="middle" x="57.61" y="-86.3" font-family="Times,serif" font-size="14.00">Name</text>
</g>
<!-- ast.Call object at 0x73d7927f7150&#45;&gt;ast.Name object at 0x73d7927f5490 -->
<g id="edge20" class="edge">
<title>ast.Call object at 0x73d7927f7150&#45;&gt;ast.Name object at 0x73d7927f5490</title>
<path fill="none" stroke="black" d="M111.81,-143.7C103,-135.14 92.22,-124.66 82.61,-115.3"/>
<polygon fill="black" stroke="black" points="84.81,-112.57 75.2,-108.1 79.93,-117.58 84.81,-112.57"/>
</g>
<!-- ast.Name object at 0x73d7927f6cd0&#45;&gt;ast.Load object at 0x73d867a3ba90 -->
<g id="edge19" class="edge">
<title>ast.Name object at 0x73d7927f6cd0&#45;&gt;ast.Load object at 0x73d867a3ba90</title>
<path fill="none" stroke="black" d="M156.9,-75.47C159.81,-74.22 162.75,-73.04 165.61,-72 222.26,-51.43 290.49,-35.31 331.66,-26.48"/>
<polygon fill="black" stroke="black" points="332.46,-29.89 341.52,-24.39 331.01,-23.04 332.46,-29.89"/>
</g>
<!-- ast.Name object at 0x73d7927f5490&#45;&gt;ast.Load object at 0x73d867a3ba90 -->
<g id="edge21" class="edge">
<title>ast.Name object at 0x73d7927f5490&#45;&gt;ast.Load object at 0x73d867a3ba90</title>
<path fill="none" stroke="black" d="M84.83,-75.28C87.76,-74.07 90.72,-72.94 93.61,-72 176.37,-44.96 277.89,-29.82 331.45,-23.16"/>
<polygon fill="black" stroke="black" points="331.99,-26.62 341.5,-21.94 331.15,-19.67 331.99,-26.62"/>
</g>
<!-- ast.And object at 0x73d867a3bd50 -->
<g id="node19" class="node">
<title>ast.And object at 0x73d867a3bd50</title>
<path fill="#66cdaa" stroke="black" d="M370.61,-252C370.61,-252 340.61,-252 340.61,-252 334.61,-252 328.61,-246 328.61,-240 328.61,-240 328.61,-228 328.61,-228 328.61,-222 334.61,-216 340.61,-216 340.61,-216 370.61,-216 370.61,-216 376.61,-216 382.61,-222 382.61,-228 382.61,-228 382.61,-240 382.61,-240 382.61,-246 376.61,-252 370.61,-252"/>
<text text-anchor="middle" x="355.61" y="-230.3" font-family="Times,serif" font-size="14.00">And</text>
</g>
<!-- ast.BoolOp object at 0x73d7927f4390&#45;&gt;ast.And object at 0x73d867a3bd50 -->
<g id="edge23" class="edge">
<title>ast.BoolOp object at 0x73d7927f4390&#45;&gt;ast.And object at 0x73d867a3bd50</title>
<path fill="none" stroke="black" d="M366.15,-287.7C364.6,-279.98 362.75,-270.71 361.03,-262.11"/>
<polygon fill="black" stroke="black" points="364.42,-261.22 359.03,-252.1 357.56,-262.6 364.42,-261.22"/>
</g>
<!-- ast.Compare object at 0x73d7927f5010 -->
<g id="node20" class="node">
<title>ast.Compare object at 0x73d7927f5010</title>
<path fill="#66cdaa" stroke="black" d="M298.11,-252C298.11,-252 255.11,-252 255.11,-252 249.11,-252 243.11,-246 243.11,-240 243.11,-240 243.11,-228 243.11,-228 243.11,-222 249.11,-216 255.11,-216 255.11,-216 298.11,-216 298.11,-216 304.11,-216 310.11,-222 310.11,-228 310.11,-228 310.11,-240 310.11,-240 310.11,-246 304.11,-252 298.11,-252"/>
<text text-anchor="middle" x="276.61" y="-230.3" font-family="Times,serif" font-size="14.00">Compare</text>
</g>
<!-- ast.BoolOp object at 0x73d7927f4390&#45;&gt;ast.Compare object at 0x73d7927f5010 -->
<g id="edge24" class="edge">
<title>ast.BoolOp object at 0x73d7927f4390&#45;&gt;ast.Compare object at 0x73d7927f5010</title>
<path fill="none" stroke="black" d="M346.62,-287.7C334.79,-278.8 320.22,-267.82 307.43,-258.2"/>
<polygon fill="black" stroke="black" points="309.43,-255.32 299.33,-252.1 305.22,-260.91 309.43,-255.32"/>
</g>
<!-- ast.Compare object at 0x73d7927f5710 -->
<g id="node27" class="node">
<title>ast.Compare object at 0x73d7927f5710</title>
<path fill="#66cdaa" stroke="black" d="M456.11,-252C456.11,-252 413.11,-252 413.11,-252 407.11,-252 401.11,-246 401.11,-240 401.11,-240 401.11,-228 401.11,-228 401.11,-222 407.11,-216 413.11,-216 413.11,-216 456.11,-216 456.11,-216 462.11,-216 468.11,-222 468.11,-228 468.11,-228 468.11,-240 468.11,-240 468.11,-246 462.11,-252 456.11,-252"/>
<text text-anchor="middle" x="434.61" y="-230.3" font-family="Times,serif" font-size="14.00">Compare</text>
</g>
<!-- ast.BoolOp object at 0x73d7927f4390&#45;&gt;ast.Compare object at 0x73d7927f5710 -->
<g id="edge33" class="edge">
<title>ast.BoolOp object at 0x73d7927f4390&#45;&gt;ast.Compare object at 0x73d7927f5710</title>
<path fill="none" stroke="black" d="M385.67,-287.7C393.55,-279.22 403.16,-268.86 411.78,-259.58"/>
<polygon fill="black" stroke="black" points="414.48,-261.81 418.72,-252.1 409.36,-257.05 414.48,-261.81"/>
</g>
<!-- ast.Name object at 0x73d7927f4e50 -->
<g id="node21" class="node">
<title>ast.Name object at 0x73d7927f4e50</title>
<path fill="#66cdaa" stroke="black" d="M363.61,-180C363.61,-180 333.61,-180 333.61,-180 327.61,-180 321.61,-174 321.61,-168 321.61,-168 321.61,-156 321.61,-156 321.61,-150 327.61,-144 333.61,-144 333.61,-144 363.61,-144 363.61,-144 369.61,-144 375.61,-150 375.61,-156 375.61,-156 375.61,-168 375.61,-168 375.61,-174 369.61,-180 363.61,-180"/>
<text text-anchor="middle" x="348.61" y="-158.3" font-family="Times,serif" font-size="14.00">Name</text>
</g>
<!-- ast.Compare object at 0x73d7927f5010&#45;&gt;ast.Name object at 0x73d7927f4e50 -->
<g id="edge25" class="edge">
<title>ast.Compare object at 0x73d7927f5010&#45;&gt;ast.Name object at 0x73d7927f4e50</title>
<path fill="none" stroke="black" d="M294.4,-215.7C303.21,-207.14 313.99,-196.66 323.61,-187.3"/>
<polygon fill="black" stroke="black" points="326.28,-189.58 331.01,-180.1 321.4,-184.57 326.28,-189.58"/>
</g>
<!-- ast.In object at 0x73d867a48ed0 -->
<g id="node22" class="node">
<title>ast.In object at 0x73d867a48ed0</title>
<path fill="#66cdaa" stroke="black" d="M291.61,-180C291.61,-180 261.61,-180 261.61,-180 255.61,-180 249.61,-174 249.61,-168 249.61,-168 249.61,-156 249.61,-156 249.61,-150 255.61,-144 261.61,-144 261.61,-144 291.61,-144 291.61,-144 297.61,-144 303.61,-150 303.61,-156 303.61,-156 303.61,-168 303.61,-168 303.61,-174 297.61,-180 291.61,-180"/>
<text text-anchor="middle" x="276.61" y="-158.3" font-family="Times,serif" font-size="14.00">In</text>
</g>
<!-- ast.Compare object at 0x73d7927f5010&#45;&gt;ast.In object at 0x73d867a48ed0 -->
<g id="edge27" class="edge">
<title>ast.Compare object at 0x73d7927f5010&#45;&gt;ast.In object at 0x73d867a48ed0</title>
<path fill="none" stroke="black" d="M276.61,-215.7C276.61,-207.98 276.61,-198.71 276.61,-190.11"/>
<polygon fill="black" stroke="black" points="280.11,-190.1 276.61,-180.1 273.11,-190.1 280.11,-190.1"/>
</g>
<!-- ast.Call object at 0x73d7927f44d0 -->
<g id="node23" class="node">
<title>ast.Call object at 0x73d7927f44d0</title>
<path fill="#66cdaa" stroke="black" d="M219.61,-180C219.61,-180 189.61,-180 189.61,-180 183.61,-180 177.61,-174 177.61,-168 177.61,-168 177.61,-156 177.61,-156 177.61,-150 183.61,-144 189.61,-144 189.61,-144 219.61,-144 219.61,-144 225.61,-144 231.61,-150 231.61,-156 231.61,-156 231.61,-168 231.61,-168 231.61,-174 225.61,-180 219.61,-180"/>
<text text-anchor="middle" x="204.61" y="-158.3" font-family="Times,serif" font-size="14.00">Call</text>
</g>
<!-- ast.Compare object at 0x73d7927f5010&#45;&gt;ast.Call object at 0x73d7927f44d0 -->
<g id="edge28" class="edge">
<title>ast.Compare object at 0x73d7927f5010&#45;&gt;ast.Call object at 0x73d7927f44d0</title>
<path fill="none" stroke="black" d="M258.81,-215.7C250,-207.14 239.22,-196.66 229.61,-187.3"/>
<polygon fill="black" stroke="black" points="231.81,-184.57 222.2,-180.1 226.93,-189.58 231.81,-184.57"/>
</g>
<!-- ast.Name object at 0x73d7927f4e50&#45;&gt;ast.Load object at 0x73d867a3ba90 -->
<g id="edge26" class="edge">
<title>ast.Name object at 0x73d7927f4e50&#45;&gt;ast.Load object at 0x73d867a3ba90</title>
<path fill="none" stroke="black" d="M374.73,-143.82C386.19,-134.69 398.42,-122.39 404.61,-108 410.93,-93.3 409.31,-87.29 404.61,-72 401.6,-62.22 396.1,-52.62 390.29,-44.33"/>
<polygon fill="black" stroke="black" points="393.01,-42.13 384.22,-36.23 387.41,-46.33 393.01,-42.13"/>
</g>
<!-- ast.Name object at 0x73d7927f4dd0 -->
<g id="node24" class="node">
<title>ast.Name object at 0x73d7927f4dd0</title>
<path fill="#66cdaa" stroke="black" d="M383.61,-108C383.61,-108 353.61,-108 353.61,-108 347.61,-108 341.61,-102 341.61,-96 341.61,-96 341.61,-84 341.61,-84 341.61,-78 347.61,-72 353.61,-72 353.61,-72 383.61,-72 383.61,-72 389.61,-72 395.61,-78 395.61,-84 395.61,-84 395.61,-96 395.61,-96 395.61,-102 389.61,-108 383.61,-108"/>
<text text-anchor="middle" x="368.61" y="-86.3" font-family="Times,serif" font-size="14.00">Name</text>
</g>
<!-- ast.Call object at 0x73d7927f44d0&#45;&gt;ast.Name object at 0x73d7927f4dd0 -->
<g id="edge29" class="edge">
<title>ast.Call object at 0x73d7927f44d0&#45;&gt;ast.Name object at 0x73d7927f4dd0</title>
<path fill="none" stroke="black" d="M231.65,-148C234.66,-146.62 237.69,-145.26 240.61,-144 280.51,-126.7 291.61,-125.09 331.61,-108 331.81,-107.91 332.01,-107.83 332.22,-107.74"/>
<polygon fill="black" stroke="black" points="333.86,-110.84 341.6,-103.61 331.04,-104.43 333.86,-110.84"/>
</g>
<!-- ast.Constant object at 0x73d7927f5090 -->
<g id="node25" class="node">
<title>ast.Constant object at 0x73d7927f5090</title>
<path fill="#66cdaa" stroke="black" d="M228.11,-108C228.11,-108 187.11,-108 187.11,-108 181.11,-108 175.11,-102 175.11,-96 175.11,-96 175.11,-84 175.11,-84 175.11,-78 181.11,-72 187.11,-72 187.11,-72 228.11,-72 228.11,-72 234.11,-72 240.11,-78 240.11,-84 240.11,-84 240.11,-96 240.11,-96 240.11,-102 234.11,-108 228.11,-108"/>
<text text-anchor="middle" x="207.61" y="-86.3" font-family="Times,serif" font-size="14.00">Constant</text>
</g>
<!-- ast.Call object at 0x73d7927f44d0&#45;&gt;ast.Constant object at 0x73d7927f5090 -->
<g id="edge31" class="edge">
<title>ast.Call object at 0x73d7927f44d0&#45;&gt;ast.Constant object at 0x73d7927f5090</title>
<path fill="none" stroke="black" d="M205.35,-143.7C205.68,-135.98 206.08,-126.71 206.45,-118.11"/>
<polygon fill="black" stroke="black" points="209.94,-118.25 206.87,-108.1 202.95,-117.95 209.94,-118.25"/>
</g>
<!-- ast.Constant object at 0x73d7927f50d0 -->
<g id="node26" class="node">
<title>ast.Constant object at 0x73d7927f50d0</title>
<path fill="#66cdaa" stroke="black" d="M311.11,-108C311.11,-108 270.11,-108 270.11,-108 264.11,-108 258.11,-102 258.11,-96 258.11,-96 258.11,-84 258.11,-84 258.11,-78 264.11,-72 270.11,-72 270.11,-72 311.11,-72 311.11,-72 317.11,-72 323.11,-78 323.11,-84 323.11,-84 323.11,-96 323.11,-96 323.11,-102 317.11,-108 311.11,-108"/>
<text text-anchor="middle" x="290.61" y="-86.3" font-family="Times,serif" font-size="14.00">Constant</text>
</g>
<!-- ast.Call object at 0x73d7927f44d0&#45;&gt;ast.Constant object at 0x73d7927f50d0 -->
<g id="edge32" class="edge">
<title>ast.Call object at 0x73d7927f44d0&#45;&gt;ast.Constant object at 0x73d7927f50d0</title>
<path fill="none" stroke="black" d="M225.87,-143.7C236.7,-134.88 250.02,-124.03 261.77,-114.47"/>
<polygon fill="black" stroke="black" points="264.05,-117.13 269.59,-108.1 259.63,-111.7 264.05,-117.13"/>
</g>
<!-- ast.Name object at 0x73d7927f4dd0&#45;&gt;ast.Load object at 0x73d867a3ba90 -->
<g id="edge30" class="edge">
<title>ast.Name object at 0x73d7927f4dd0&#45;&gt;ast.Load object at 0x73d867a3ba90</title>
<path fill="none" stroke="black" d="M368.61,-71.7C368.61,-63.98 368.61,-54.71 368.61,-46.11"/>
<polygon fill="black" stroke="black" points="372.11,-46.1 368.61,-36.1 365.11,-46.1 372.11,-46.1"/>
</g>
<!-- ast.BinOp object at 0x73d7926017d0 -->
<g id="node28" class="node">
<title>ast.BinOp object at 0x73d7926017d0</title>
<path fill="#66cdaa" stroke="black" d="M591.61,-180C591.61,-180 561.61,-180 561.61,-180 555.61,-180 549.61,-174 549.61,-168 549.61,-168 549.61,-156 549.61,-156 549.61,-150 555.61,-144 561.61,-144 561.61,-144 591.61,-144 591.61,-144 597.61,-144 603.61,-150 603.61,-156 603.61,-156 603.61,-168 603.61,-168 603.61,-174 597.61,-180 591.61,-180"/>
<text text-anchor="middle" x="576.61" y="-158.3" font-family="Times,serif" font-size="14.00">BinOp</text>
</g>
<!-- ast.Compare object at 0x73d7927f5710&#45;&gt;ast.BinOp object at 0x73d7926017d0 -->
<g id="edge34" class="edge">
<title>ast.Compare object at 0x73d7927f5710&#45;&gt;ast.BinOp object at 0x73d7926017d0</title>
<path fill="none" stroke="black" d="M468.26,-216.41C489.93,-205.73 518.09,-191.84 540.27,-180.91"/>
<polygon fill="black" stroke="black" points="541.96,-183.98 549.38,-176.42 538.86,-177.71 541.96,-183.98"/>
</g>
<!-- ast.NotEq object at 0x73d867a48b50 -->
<g id="node32" class="node">
<title>ast.NotEq object at 0x73d867a48b50</title>
<path fill="#66cdaa" stroke="black" d="M435.61,-180C435.61,-180 405.61,-180 405.61,-180 399.61,-180 393.61,-174 393.61,-168 393.61,-168 393.61,-156 393.61,-156 393.61,-150 399.61,-144 405.61,-144 405.61,-144 435.61,-144 435.61,-144 441.61,-144 447.61,-150 447.61,-156 447.61,-156 447.61,-168 447.61,-168 447.61,-174 441.61,-180 435.61,-180"/>
<text text-anchor="middle" x="420.61" y="-158.3" font-family="Times,serif" font-size="14.00">NotEq</text>
</g>
<!-- ast.Compare object at 0x73d7927f5710&#45;&gt;ast.NotEq object at 0x73d867a48b50 -->
<g id="edge39" class="edge">
<title>ast.Compare object at 0x73d7927f5710&#45;&gt;ast.NotEq object at 0x73d867a48b50</title>
<path fill="none" stroke="black" d="M431.15,-215.7C429.6,-207.98 427.75,-198.71 426.03,-190.11"/>
<polygon fill="black" stroke="black" points="429.42,-189.22 424.03,-180.1 422.56,-190.6 429.42,-189.22"/>
</g>
<!-- ast.Constant object at 0x73d792601a10 -->
<g id="node33" class="node">
<title>ast.Constant object at 0x73d792601a10</title>
<path fill="#66cdaa" stroke="black" d="M519.11,-180C519.11,-180 478.11,-180 478.11,-180 472.11,-180 466.11,-174 466.11,-168 466.11,-168 466.11,-156 466.11,-156 466.11,-150 472.11,-144 478.11,-144 478.11,-144 519.11,-144 519.11,-144 525.11,-144 531.11,-150 531.11,-156 531.11,-156 531.11,-168 531.11,-168 531.11,-174 525.11,-180 519.11,-180"/>
<text text-anchor="middle" x="498.61" y="-158.3" font-family="Times,serif" font-size="14.00">Constant</text>
</g>
<!-- ast.Compare object at 0x73d7927f5710&#45;&gt;ast.Constant object at 0x73d792601a10 -->
<g id="edge40" class="edge">
<title>ast.Compare object at 0x73d7927f5710&#45;&gt;ast.Constant object at 0x73d792601a10</title>
<path fill="none" stroke="black" d="M450.43,-215.7C458.18,-207.22 467.65,-196.86 476.13,-187.58"/>
<polygon fill="black" stroke="black" points="478.8,-189.85 482.97,-180.1 473.64,-185.12 478.8,-189.85"/>
</g>
<!-- ast.Name object at 0x73d792601810 -->
<g id="node29" class="node">
<title>ast.Name object at 0x73d792601810</title>
<path fill="#66cdaa" stroke="black" d="M656.61,-108C656.61,-108 626.61,-108 626.61,-108 620.61,-108 614.61,-102 614.61,-96 614.61,-96 614.61,-84 614.61,-84 614.61,-78 620.61,-72 626.61,-72 626.61,-72 656.61,-72 656.61,-72 662.61,-72 668.61,-78 668.61,-84 668.61,-84 668.61,-96 668.61,-96 668.61,-102 662.61,-108 656.61,-108"/>
<text text-anchor="middle" x="641.61" y="-86.3" font-family="Times,serif" font-size="14.00">Name</text>
</g>
<!-- ast.BinOp object at 0x73d7926017d0&#45;&gt;ast.Name object at 0x73d792601810 -->
<g id="edge35" class="edge">
<title>ast.BinOp object at 0x73d7926017d0&#45;&gt;ast.Name object at 0x73d792601810</title>
<path fill="none" stroke="black" d="M592.67,-143.7C600.55,-135.22 610.16,-124.86 618.78,-115.58"/>
<polygon fill="black" stroke="black" points="621.48,-117.81 625.72,-108.1 616.36,-113.05 621.48,-117.81"/>
</g>
<!-- ast.Mod object at 0x73d867a48250 -->
<g id="node30" class="node">
<title>ast.Mod object at 0x73d867a48250</title>
<path fill="#66cdaa" stroke="black" d="M584.61,-108C584.61,-108 554.61,-108 554.61,-108 548.61,-108 542.61,-102 542.61,-96 542.61,-96 542.61,-84 542.61,-84 542.61,-78 548.61,-72 554.61,-72 554.61,-72 584.61,-72 584.61,-72 590.61,-72 596.61,-78 596.61,-84 596.61,-84 596.61,-96 596.61,-96 596.61,-102 590.61,-108 584.61,-108"/>
<text text-anchor="middle" x="569.61" y="-86.3" font-family="Times,serif" font-size="14.00">Mod</text>
</g>
<!-- ast.BinOp object at 0x73d7926017d0&#45;&gt;ast.Mod object at 0x73d867a48250 -->
<g id="edge37" class="edge">
<title>ast.BinOp object at 0x73d7926017d0&#45;&gt;ast.Mod object at 0x73d867a48250</title>
<path fill="none" stroke="black" d="M574.88,-143.7C574.11,-135.98 573.18,-126.71 572.32,-118.11"/>
<polygon fill="black" stroke="black" points="575.8,-117.71 571.32,-108.1 568.83,-118.4 575.8,-117.71"/>
</g>
<!-- ast.Constant object at 0x73d792601950 -->
<g id="node31" class="node">
<title>ast.Constant object at 0x73d792601950</title>
<path fill="#66cdaa" stroke="black" d="M512.11,-108C512.11,-108 471.11,-108 471.11,-108 465.11,-108 459.11,-102 459.11,-96 459.11,-96 459.11,-84 459.11,-84 459.11,-78 465.11,-72 471.11,-72 471.11,-72 512.11,-72 512.11,-72 518.11,-72 524.11,-78 524.11,-84 524.11,-84 524.11,-96 524.11,-96 524.11,-102 518.11,-108 512.11,-108"/>
<text text-anchor="middle" x="491.61" y="-86.3" font-family="Times,serif" font-size="14.00">Constant</text>
</g>
<!-- ast.BinOp object at 0x73d7926017d0&#45;&gt;ast.Constant object at 0x73d792601950 -->
<g id="edge38" class="edge">
<title>ast.BinOp object at 0x73d7926017d0&#45;&gt;ast.Constant object at 0x73d792601950</title>
<path fill="none" stroke="black" d="M555.6,-143.7C544.89,-134.88 531.72,-124.03 520.11,-114.47"/>
<polygon fill="black" stroke="black" points="522.32,-111.76 512.38,-108.1 517.87,-117.16 522.32,-111.76"/>
</g>
<!-- ast.Name object at 0x73d792601810&#45;&gt;ast.Load object at 0x73d867a3ba90 -->
<g id="edge36" class="edge">
<title>ast.Name object at 0x73d792601810&#45;&gt;ast.Load object at 0x73d867a3ba90</title>
<path fill="none" stroke="black" d="M614.35,-75.36C611.43,-74.14 608.48,-72.99 605.61,-72 536.83,-48.4 453.16,-32.54 405.88,-24.71"/>
<polygon fill="black" stroke="black" points="406.23,-21.22 395.8,-23.07 405.11,-28.13 406.23,-21.22"/>
</g>
<!-- ast.Name object at 0x73d792601a90 -->
<g id="node35" class="node">
<title>ast.Name object at 0x73d792601a90</title>
<path fill="#66cdaa" stroke="black" d="M748.61,-324C748.61,-324 718.61,-324 718.61,-324 712.61,-324 706.61,-318 706.61,-312 706.61,-312 706.61,-300 706.61,-300 706.61,-294 712.61,-288 718.61,-288 718.61,-288 748.61,-288 748.61,-288 754.61,-288 760.61,-294 760.61,-300 760.61,-300 760.61,-312 760.61,-312 760.61,-318 754.61,-324 748.61,-324"/>
<text text-anchor="middle" x="733.61" y="-302.3" font-family="Times,serif" font-size="14.00">Name</text>
</g>
<!-- ast.Return object at 0x73d792601a50&#45;&gt;ast.Name object at 0x73d792601a90 -->
<g id="edge42" class="edge">
<title>ast.Return object at 0x73d792601a50&#45;&gt;ast.Name object at 0x73d792601a90</title>
<path fill="none" stroke="black" d="M689.45,-503.85C697.77,-466.75 717.5,-378.81 727.53,-334.1"/>
<polygon fill="black" stroke="black" points="730.97,-334.76 729.74,-324.23 724.14,-333.22 730.97,-334.76"/>
</g>
<!-- ast.Name object at 0x73d792601a90&#45;&gt;ast.Load object at 0x73d867a3ba90 -->
<g id="edge43" class="edge">
<title>ast.Name object at 0x73d792601a90&#45;&gt;ast.Load object at 0x73d867a3ba90</title>
<path fill="none" stroke="black" d="M735.24,-287.88C738.33,-244.63 739.87,-130.28 677.61,-72 638.79,-35.66 479.22,-23.92 405.84,-20.39"/>
<polygon fill="black" stroke="black" points="405.81,-16.89 395.66,-19.93 405.49,-23.88 405.81,-16.89"/>
</g>
</g>
</svg>
