<?xml version="1.0" encoding="UTF-8" standalone="no"?>
<!DOCTYPE svg PUBLIC "-//W3C//DTD SVG 1.1//EN"
 "http://www.w3.org/Graphics/SVG/1.1/DTD/svg11.dtd">
<!-- Generated by graphviz version 2.50.0 (0)
 -->
<!-- Pages: 1 -->
<svg width="824pt" height="548pt"
 viewBox="0.00 0.00 824.31 548.00" xmlns="http://www.w3.org/2000/svg" xmlns:xlink="http://www.w3.org/1999/xlink">
<g id="graph0" class="graph" transform="scale(1 1) rotate(0) translate(4 544)">
<polygon fill="white" stroke="transparent" points="-4,4 -4,-544 820.31,-544 820.31,4 -4,4"/>
<!-- ast.Module object at 0x7319bb0f1cd0 -->
<g id="node1" class="node">
<title>ast.Module object at 0x7319bb0f1cd0</title>
<path fill="#66cdaa" stroke="black" d="M314.5,-540C314.5,-540 279.5,-540 279.5,-540 273.5,-540 267.5,-534 267.5,-528 267.5,-528 267.5,-516 267.5,-516 267.5,-510 273.5,-504 279.5,-504 279.5,-504 314.5,-504 314.5,-504 320.5,-504 326.5,-510 326.5,-516 326.5,-516 326.5,-528 326.5,-528 326.5,-534 320.5,-540 314.5,-540"/>
<text text-anchor="middle" x="297" y="-518.3" font-family="Times,serif" font-size="14.00">Module</text>
</g>
<!-- ast.FunctionDef object at 0x7319bb0f3e90 -->
<g id="node2" class="node">
<title>ast.FunctionDef object at 0x7319bb0f3e90</title>
<path fill="#66cdaa" stroke="black" d="M197.5,-396C197.5,-396 136.5,-396 136.5,-396 130.5,-396 124.5,-390 124.5,-384 124.5,-384 124.5,-372 124.5,-372 124.5,-366 130.5,-360 136.5,-360 136.5,-360 197.5,-360 197.5,-360 203.5,-360 209.5,-366 209.5,-372 209.5,-372 209.5,-384 209.5,-384 209.5,-390 203.5,-396 197.5,-396"/>
<text text-anchor="middle" x="167" y="-374.3" font-family="Times,serif" font-size="14.00">FunctionDef</text>
</g>
<!-- ast.Module object at 0x7319bb0f1cd0&#45;&gt;ast.FunctionDef object at 0x7319bb0f3e90 -->
<g id="edge1" class="edge">
<title>ast.Module object at 0x7319bb0f1cd0&#45;&gt;ast.FunctionDef object at 0x7319bb0f3e90</title>
<path fill="none" stroke="black" d="M281.32,-503.87C258.48,-478.92 215.93,-432.45 189.68,-403.77"/>
<polygon fill="black" stroke="black" points="192.07,-401.2 182.74,-396.19 186.91,-405.93 192.07,-401.2"/>
</g>
<!-- ast.FunctionDef object at 0x7319bb0f2b10 -->
<g id="node15" class="node">
<title>ast.FunctionDef object at 0x7319bb0f2b10</title>
<path fill="#66cdaa" stroke="black" d="M386.5,-468C386.5,-468 325.5,-468 325.5,-468 319.5,-468 313.5,-462 313.5,-456 313.5,-456 313.5,-444 313.5,-444 313.5,-438 319.5,-432 325.5,-432 325.5,-432 386.5,-432 386.5,-432 392.5,-432 398.5,-438 398.5,-444 398.5,-444 398.5,-456 398.5,-456 398.5,-462 392.5,-468 386.5,-468"/>
<text text-anchor="middle" x="356" y="-446.3" font-family="Times,serif" font-size="14.00">FunctionDef</text>
</g>
<!-- ast.Module object at 0x7319bb0f1cd0&#45;&gt;ast.FunctionDef object at 0x7319bb0f2b10 -->
<g id="edge18" class="edge">
<title>ast.Module object at 0x7319bb0f1cd0&#45;&gt;ast.FunctionDef object at 0x7319bb0f2b10</title>
<path fill="none" stroke="black" d="M311.58,-503.7C318.66,-495.3 327.28,-485.07 335.05,-475.86"/>
<polygon fill="black" stroke="black" points="337.81,-478.01 341.58,-468.1 332.46,-473.49 337.81,-478.01"/>
</g>
<!-- ast.arguments object at 0x7319bb0f0f10 -->
<g id="node3" class="node">
<title>ast.arguments object at 0x7319bb0f0f10</title>
<path fill="#66cdaa" stroke="black" d="M110,-324C110,-324 60,-324 60,-324 54,-324 48,-318 48,-312 48,-312 48,-300 48,-300 48,-294 54,-288 60,-288 60,-288 110,-288 110,-288 116,-288 122,-294 122,-300 122,-300 122,-312 122,-312 122,-318 116,-324 110,-324"/>
<text text-anchor="middle" x="85" y="-302.3" font-family="Times,serif" font-size="14.00">arguments</text>
</g>
<!-- ast.FunctionDef object at 0x7319bb0f3e90&#45;&gt;ast.arguments object at 0x7319bb0f0f10 -->
<g id="edge2" class="edge">
<title>ast.FunctionDef object at 0x7319bb0f3e90&#45;&gt;ast.arguments object at 0x7319bb0f0f10</title>
<path fill="none" stroke="black" d="M146.73,-359.7C136.5,-350.97 123.94,-340.24 112.82,-330.75"/>
<polygon fill="black" stroke="black" points="114.91,-327.94 105.04,-324.1 110.37,-333.26 114.91,-327.94"/>
</g>
<!-- ast.Return object at 0x7319bb0f0150 -->
<g id="node5" class="node">
<title>ast.Return object at 0x7319bb0f0150</title>
<path fill="#66cdaa" stroke="black" d="M182,-324C182,-324 152,-324 152,-324 146,-324 140,-318 140,-312 140,-312 140,-300 140,-300 140,-294 146,-288 152,-288 152,-288 182,-288 182,-288 188,-288 194,-294 194,-300 194,-300 194,-312 194,-312 194,-318 188,-324 182,-324"/>
<text text-anchor="middle" x="167" y="-302.3" font-family="Times,serif" font-size="14.00">Return</text>
</g>
<!-- ast.FunctionDef object at 0x7319bb0f3e90&#45;&gt;ast.Return object at 0x7319bb0f0150 -->
<g id="edge4" class="edge">
<title>ast.FunctionDef object at 0x7319bb0f3e90&#45;&gt;ast.Return object at 0x7319bb0f0150</title>
<path fill="none" stroke="black" d="M167,-359.7C167,-351.98 167,-342.71 167,-334.11"/>
<polygon fill="black" stroke="black" points="170.5,-334.1 167,-324.1 163.5,-334.1 170.5,-334.1"/>
</g>
<!-- ast.arg object at 0x7319bb0f2850 -->
<g id="node4" class="node">
<title>ast.arg object at 0x7319bb0f2850</title>
<path fill="#66cdaa" stroke="black" d="M100,-252C100,-252 70,-252 70,-252 64,-252 58,-246 58,-240 58,-240 58,-228 58,-228 58,-222 64,-216 70,-216 70,-216 100,-216 100,-216 106,-216 112,-222 112,-228 112,-228 112,-240 112,-240 112,-246 106,-252 100,-252"/>
<text text-anchor="middle" x="85" y="-230.3" font-family="Times,serif" font-size="14.00">arg</text>
</g>
<!-- ast.arguments object at 0x7319bb0f0f10&#45;&gt;ast.arg object at 0x7319bb0f2850 -->
<g id="edge3" class="edge">
<title>ast.arguments object at 0x7319bb0f0f10&#45;&gt;ast.arg object at 0x7319bb0f2850</title>
<path fill="none" stroke="black" d="M85,-287.7C85,-279.98 85,-270.71 85,-262.11"/>
<polygon fill="black" stroke="black" points="88.5,-262.1 85,-252.1 81.5,-262.1 88.5,-262.1"/>
</g>
<!-- ast.Call object at 0x7319bb0f1f90 -->
<g id="node6" class="node">
<title>ast.Call object at 0x7319bb0f1f90</title>
<path fill="#66cdaa" stroke="black" d="M177,-252C177,-252 147,-252 147,-252 141,-252 135,-246 135,-240 135,-240 135,-228 135,-228 135,-222 141,-216 147,-216 147,-216 177,-216 177,-216 183,-216 189,-222 189,-228 189,-228 189,-240 189,-240 189,-246 183,-252 177,-252"/>
<text text-anchor="middle" x="162" y="-230.3" font-family="Times,serif" font-size="14.00">Call</text>
</g>
<!-- ast.Return object at 0x7319bb0f0150&#45;&gt;ast.Call object at 0x7319bb0f1f90 -->
<g id="edge5" class="edge">
<title>ast.Return object at 0x7319bb0f0150&#45;&gt;ast.Call object at 0x7319bb0f1f90</title>
<path fill="none" stroke="black" d="M165.76,-287.7C165.21,-279.98 164.55,-270.71 163.94,-262.11"/>
<polygon fill="black" stroke="black" points="167.43,-261.83 163.22,-252.1 160.44,-262.33 167.43,-261.83"/>
</g>
<!-- ast.Name object at 0x7319bb0f1d50 -->
<g id="node7" class="node">
<title>ast.Name object at 0x7319bb0f1d50</title>
<path fill="#66cdaa" stroke="black" d="M42,-180C42,-180 12,-180 12,-180 6,-180 0,-174 0,-168 0,-168 0,-156 0,-156 0,-150 6,-144 12,-144 12,-144 42,-144 42,-144 48,-144 54,-150 54,-156 54,-156 54,-168 54,-168 54,-174 48,-180 42,-180"/>
<text text-anchor="middle" x="27" y="-158.3" font-family="Times,serif" font-size="14.00">Name</text>
</g>
<!-- ast.Call object at 0x7319bb0f1f90&#45;&gt;ast.Name object at 0x7319bb0f1d50 -->
<g id="edge6" class="edge">
<title>ast.Call object at 0x7319bb0f1f90&#45;&gt;ast.Name object at 0x7319bb0f1d50</title>
<path fill="none" stroke="black" d="M134.68,-218.83C114.1,-208.16 85.67,-193.42 63.19,-181.77"/>
<polygon fill="black" stroke="black" points="64.77,-178.64 54.28,-177.14 61.55,-184.85 64.77,-178.64"/>
</g>
<!-- ast.Subscript object at 0x7319bb0f2a90 -->
<g id="node9" class="node">
<title>ast.Subscript object at 0x7319bb0f2a90</title>
<path fill="#66cdaa" stroke="black" d="M174,-180C174,-180 130,-180 130,-180 124,-180 118,-174 118,-168 118,-168 118,-156 118,-156 118,-150 124,-144 130,-144 130,-144 174,-144 174,-144 180,-144 186,-150 186,-156 186,-156 186,-168 186,-168 186,-174 180,-180 174,-180"/>
<text text-anchor="middle" x="152" y="-158.3" font-family="Times,serif" font-size="14.00">Subscript</text>
</g>
<!-- ast.Call object at 0x7319bb0f1f90&#45;&gt;ast.Subscript object at 0x7319bb0f2a90 -->
<g id="edge8" class="edge">
<title>ast.Call object at 0x7319bb0f1f90&#45;&gt;ast.Subscript object at 0x7319bb0f2a90</title>
<path fill="none" stroke="black" d="M159.53,-215.7C158.43,-207.98 157.1,-198.71 155.87,-190.11"/>
<polygon fill="black" stroke="black" points="159.32,-189.51 154.44,-180.1 152.39,-190.5 159.32,-189.51"/>
</g>
<!-- ast.Subscript object at 0x7319bb0f23d0 -->
<g id="node12" class="node">
<title>ast.Subscript object at 0x7319bb0f23d0</title>
<path fill="#66cdaa" stroke="black" d="M287,-180C287,-180 243,-180 243,-180 237,-180 231,-174 231,-168 231,-168 231,-156 231,-156 231,-150 237,-144 243,-144 243,-144 287,-144 287,-144 293,-144 299,-150 299,-156 299,-156 299,-168 299,-168 299,-174 293,-180 287,-180"/>
<text text-anchor="middle" x="265" y="-158.3" font-family="Times,serif" font-size="14.00">Subscript</text>
</g>
<!-- ast.Call object at 0x7319bb0f1f90&#45;&gt;ast.Subscript object at 0x7319bb0f23d0 -->
<g id="edge13" class="edge">
<title>ast.Call object at 0x7319bb0f1f90&#45;&gt;ast.Subscript object at 0x7319bb0f23d0</title>
<path fill="none" stroke="black" d="M187.2,-215.88C200.41,-206.89 216.79,-195.76 231.11,-186.03"/>
<polygon fill="black" stroke="black" points="233.4,-188.71 239.71,-180.19 229.47,-182.92 233.4,-188.71"/>
</g>
<!-- ast.Load object at 0x731ae923bc10 -->
<g id="node8" class="node">
<title>ast.Load object at 0x731ae923bc10</title>
<path fill="#66cdaa" stroke="black" d="M434,-36C434,-36 404,-36 404,-36 398,-36 392,-30 392,-24 392,-24 392,-12 392,-12 392,-6 398,0 404,0 404,0 434,0 434,0 440,0 446,-6 446,-12 446,-12 446,-24 446,-24 446,-30 440,-36 434,-36"/>
<text text-anchor="middle" x="419" y="-14.3" font-family="Times,serif" font-size="14.00">Load</text>
</g>
<!-- ast.Name object at 0x7319bb0f1d50&#45;&gt;ast.Load object at 0x731ae923bc10 -->
<g id="edge7" class="edge">
<title>ast.Name object at 0x7319bb0f1d50&#45;&gt;ast.Load object at 0x731ae923bc10</title>
<path fill="none" stroke="black" d="M23.82,-143.98C21.14,-123.87 20.3,-90.78 39,-72 86.48,-24.3 295.77,-18.88 381.84,-18.72"/>
<polygon fill="black" stroke="black" points="381.94,-22.21 391.94,-18.72 381.94,-15.21 381.94,-22.21"/>
</g>
<!-- ast.Subscript object at 0x7319bb0f2a90&#45;&gt;ast.Load object at 0x731ae923bc10 -->
<g id="edge12" class="edge">
<title>ast.Subscript object at 0x7319bb0f2a90&#45;&gt;ast.Load object at 0x731ae923bc10</title>
<path fill="none" stroke="black" d="M117.59,-153.08C94.07,-145.69 64.61,-132.05 50,-108 41.69,-94.32 39.52,-84.09 50,-72 92.68,-22.75 296.56,-18.19 381.61,-18.48"/>
<polygon fill="black" stroke="black" points="381.83,-21.98 391.85,-18.54 381.87,-14.98 381.83,-21.98"/>
</g>
<!-- ast.Name object at 0x7319bb0f3050 -->
<g id="node10" class="node">
<title>ast.Name object at 0x7319bb0f3050</title>
<path fill="#66cdaa" stroke="black" d="M101,-108C101,-108 71,-108 71,-108 65,-108 59,-102 59,-96 59,-96 59,-84 59,-84 59,-78 65,-72 71,-72 71,-72 101,-72 101,-72 107,-72 113,-78 113,-84 113,-84 113,-96 113,-96 113,-102 107,-108 101,-108"/>
<text text-anchor="middle" x="86" y="-86.3" font-family="Times,serif" font-size="14.00">Name</text>
</g>
<!-- ast.Subscript object at 0x7319bb0f2a90&#45;&gt;ast.Name object at 0x7319bb0f3050 -->
<g id="edge9" class="edge">
<title>ast.Subscript object at 0x7319bb0f2a90&#45;&gt;ast.Name object at 0x7319bb0f3050</title>
<path fill="none" stroke="black" d="M135.69,-143.7C127.69,-135.22 117.93,-124.86 109.18,-115.58"/>
<polygon fill="black" stroke="black" points="111.53,-112.98 102.13,-108.1 106.44,-117.78 111.53,-112.98"/>
</g>
<!-- ast.Constant object at 0x7319bb0f2f10 -->
<g id="node11" class="node">
<title>ast.Constant object at 0x7319bb0f2f10</title>
<path fill="#66cdaa" stroke="black" d="M184.5,-108C184.5,-108 143.5,-108 143.5,-108 137.5,-108 131.5,-102 131.5,-96 131.5,-96 131.5,-84 131.5,-84 131.5,-78 137.5,-72 143.5,-72 143.5,-72 184.5,-72 184.5,-72 190.5,-72 196.5,-78 196.5,-84 196.5,-84 196.5,-96 196.5,-96 196.5,-102 190.5,-108 184.5,-108"/>
<text text-anchor="middle" x="164" y="-86.3" font-family="Times,serif" font-size="14.00">Constant</text>
</g>
<!-- ast.Subscript object at 0x7319bb0f2a90&#45;&gt;ast.Constant object at 0x7319bb0f2f10 -->
<g id="edge11" class="edge">
<title>ast.Subscript object at 0x7319bb0f2a90&#45;&gt;ast.Constant object at 0x7319bb0f2f10</title>
<path fill="none" stroke="black" d="M154.97,-143.7C156.29,-135.98 157.88,-126.71 159.35,-118.11"/>
<polygon fill="black" stroke="black" points="162.83,-118.55 161.07,-108.1 155.93,-117.37 162.83,-118.55"/>
</g>
<!-- ast.Name object at 0x7319bb0f3050&#45;&gt;ast.Load object at 0x731ae923bc10 -->
<g id="edge10" class="edge">
<title>ast.Name object at 0x7319bb0f3050&#45;&gt;ast.Load object at 0x731ae923bc10</title>
<path fill="none" stroke="black" d="M113.21,-75.24C116.14,-74.03 119.1,-72.92 122,-72 212.9,-43 324.81,-28.43 381.81,-22.45"/>
<polygon fill="black" stroke="black" points="382.21,-25.92 391.8,-21.43 381.5,-18.96 382.21,-25.92"/>
</g>
<!-- ast.Subscript object at 0x7319bb0f23d0&#45;&gt;ast.Load object at 0x731ae923bc10 -->
<g id="edge17" class="edge">
<title>ast.Subscript object at 0x7319bb0f23d0&#45;&gt;ast.Load object at 0x731ae923bc10</title>
<path fill="none" stroke="black" d="M253.42,-143.93C241.95,-124.68 228.2,-93.29 244,-72 275.58,-29.43 340.41,-19.85 381.68,-18.33"/>
<polygon fill="black" stroke="black" points="381.97,-21.82 391.89,-18.1 381.81,-14.82 381.97,-21.82"/>
</g>
<!-- ast.Name object at 0x7319bb0f2d90 -->
<g id="node13" class="node">
<title>ast.Name object at 0x7319bb0f2d90</title>
<path fill="#66cdaa" stroke="black" d="M295,-108C295,-108 265,-108 265,-108 259,-108 253,-102 253,-96 253,-96 253,-84 253,-84 253,-78 259,-72 265,-72 265,-72 295,-72 295,-72 301,-72 307,-78 307,-84 307,-84 307,-96 307,-96 307,-102 301,-108 295,-108"/>
<text text-anchor="middle" x="280" y="-86.3" font-family="Times,serif" font-size="14.00">Name</text>
</g>
<!-- ast.Subscript object at 0x7319bb0f23d0&#45;&gt;ast.Name object at 0x7319bb0f2d90 -->
<g id="edge14" class="edge">
<title>ast.Subscript object at 0x7319bb0f23d0&#45;&gt;ast.Name object at 0x7319bb0f2d90</title>
<path fill="none" stroke="black" d="M268.71,-143.7C270.36,-135.98 272.35,-126.71 274.19,-118.11"/>
<polygon fill="black" stroke="black" points="277.66,-118.62 276.33,-108.1 270.82,-117.15 277.66,-118.62"/>
</g>
<!-- ast.Constant object at 0x7319bb0f29d0 -->
<g id="node14" class="node">
<title>ast.Constant object at 0x7319bb0f29d0</title>
<path fill="#66cdaa" stroke="black" d="M378.5,-108C378.5,-108 337.5,-108 337.5,-108 331.5,-108 325.5,-102 325.5,-96 325.5,-96 325.5,-84 325.5,-84 325.5,-78 331.5,-72 337.5,-72 337.5,-72 378.5,-72 378.5,-72 384.5,-72 390.5,-78 390.5,-84 390.5,-84 390.5,-96 390.5,-96 390.5,-102 384.5,-108 378.5,-108"/>
<text text-anchor="middle" x="358" y="-86.3" font-family="Times,serif" font-size="14.00">Constant</text>
</g>
<!-- ast.Subscript object at 0x7319bb0f23d0&#45;&gt;ast.Constant object at 0x7319bb0f29d0 -->
<g id="edge16" class="edge">
<title>ast.Subscript object at 0x7319bb0f23d0&#45;&gt;ast.Constant object at 0x7319bb0f29d0</title>
<path fill="none" stroke="black" d="M287.99,-143.7C299.81,-134.8 314.39,-123.82 327.18,-114.2"/>
<polygon fill="black" stroke="black" points="329.39,-116.91 335.28,-108.1 325.18,-111.32 329.39,-116.91"/>
</g>
<!-- ast.Name object at 0x7319bb0f2d90&#45;&gt;ast.Load object at 0x731ae923bc10 -->
<g id="edge15" class="edge">
<title>ast.Name object at 0x7319bb0f2d90&#45;&gt;ast.Load object at 0x731ae923bc10</title>
<path fill="none" stroke="black" d="M307.13,-75.34C328.75,-64.45 359.22,-49.1 382.9,-37.18"/>
<polygon fill="black" stroke="black" points="384.58,-40.25 391.94,-32.63 381.43,-34 384.58,-40.25"/>
</g>
<!-- ast.arguments object at 0x7319bb0f3910 -->
<g id="node16" class="node">
<title>ast.arguments object at 0x7319bb0f3910</title>
<path fill="#66cdaa" stroke="black" d="M340,-396C340,-396 290,-396 290,-396 284,-396 278,-390 278,-384 278,-384 278,-372 278,-372 278,-366 284,-360 290,-360 290,-360 340,-360 340,-360 346,-360 352,-366 352,-372 352,-372 352,-384 352,-384 352,-390 346,-396 340,-396"/>
<text text-anchor="middle" x="315" y="-374.3" font-family="Times,serif" font-size="14.00">arguments</text>
</g>
<!-- ast.FunctionDef object at 0x7319bb0f2b10&#45;&gt;ast.arguments object at 0x7319bb0f3910 -->
<g id="edge19" class="edge">
<title>ast.FunctionDef object at 0x7319bb0f2b10&#45;&gt;ast.arguments object at 0x7319bb0f3910</title>
<path fill="none" stroke="black" d="M345.87,-431.7C341.15,-423.64 335.44,-413.89 330.22,-404.98"/>
<polygon fill="black" stroke="black" points="333.09,-402.96 325.02,-396.1 327.05,-406.5 333.09,-402.96"/>
</g>
<!-- ast.While object at 0x7319bb0a5650 -->
<g id="node19" class="node">
<title>ast.While object at 0x7319bb0a5650</title>
<path fill="#66cdaa" stroke="black" d="M412,-396C412,-396 382,-396 382,-396 376,-396 370,-390 370,-384 370,-384 370,-372 370,-372 370,-366 376,-360 382,-360 382,-360 412,-360 412,-360 418,-360 424,-366 424,-372 424,-372 424,-384 424,-384 424,-390 418,-396 412,-396"/>
<text text-anchor="middle" x="397" y="-374.3" font-family="Times,serif" font-size="14.00">While</text>
</g>
<!-- ast.FunctionDef object at 0x7319bb0f2b10&#45;&gt;ast.While object at 0x7319bb0a5650 -->
<g id="edge22" class="edge">
<title>ast.FunctionDef object at 0x7319bb0f2b10&#45;&gt;ast.While object at 0x7319bb0a5650</title>
<path fill="none" stroke="black" d="M366.13,-431.7C370.85,-423.64 376.56,-413.89 381.78,-404.98"/>
<polygon fill="black" stroke="black" points="384.95,-406.5 386.98,-396.1 378.91,-402.96 384.95,-406.5"/>
</g>
<!-- ast.Return object at 0x7319bafba690 -->
<g id="node32" class="node">
<title>ast.Return object at 0x7319bafba690</title>
<path fill="#66cdaa" stroke="black" d="M581,-396C581,-396 551,-396 551,-396 545,-396 539,-390 539,-384 539,-384 539,-372 539,-372 539,-366 545,-360 551,-360 551,-360 581,-360 581,-360 587,-360 593,-366 593,-372 593,-372 593,-384 593,-384 593,-390 587,-396 581,-396"/>
<text text-anchor="middle" x="566" y="-374.3" font-family="Times,serif" font-size="14.00">Return</text>
</g>
<!-- ast.FunctionDef object at 0x7319bb0f2b10&#45;&gt;ast.Return object at 0x7319bafba690 -->
<g id="edge42" class="edge">
<title>ast.FunctionDef object at 0x7319bb0f2b10&#45;&gt;ast.Return object at 0x7319bafba690</title>
<path fill="none" stroke="black" d="M398.75,-434.75C437.12,-421.96 492.84,-403.39 529.24,-391.25"/>
<polygon fill="black" stroke="black" points="530.59,-394.49 538.97,-388.01 528.38,-387.85 530.59,-394.49"/>
</g>
<!-- ast.arg object at 0x7319bafbeb90 -->
<g id="node17" class="node">
<title>ast.arg object at 0x7319bafbeb90</title>
<path fill="#66cdaa" stroke="black" d="M265,-324C265,-324 235,-324 235,-324 229,-324 223,-318 223,-312 223,-312 223,-300 223,-300 223,-294 229,-288 235,-288 235,-288 265,-288 265,-288 271,-288 277,-294 277,-300 277,-300 277,-312 277,-312 277,-318 271,-324 265,-324"/>
<text text-anchor="middle" x="250" y="-302.3" font-family="Times,serif" font-size="14.00">arg</text>
</g>
<!-- ast.arguments object at 0x7319bb0f3910&#45;&gt;ast.arg object at 0x7319bafbeb90 -->
<g id="edge20" class="edge">
<title>ast.arguments object at 0x7319bb0f3910&#45;&gt;ast.arg object at 0x7319bafbeb90</title>
<path fill="none" stroke="black" d="M298.93,-359.7C291.06,-351.22 281.44,-340.86 272.83,-331.58"/>
<polygon fill="black" stroke="black" points="275.25,-329.05 265.88,-324.1 270.12,-333.81 275.25,-329.05"/>
</g>
<!-- ast.arg object at 0x7319bb30c150 -->
<g id="node18" class="node">
<title>ast.arg object at 0x7319bb30c150</title>
<path fill="#66cdaa" stroke="black" d="M337,-324C337,-324 307,-324 307,-324 301,-324 295,-318 295,-312 295,-312 295,-300 295,-300 295,-294 301,-288 307,-288 307,-288 337,-288 337,-288 343,-288 349,-294 349,-300 349,-300 349,-312 349,-312 349,-318 343,-324 337,-324"/>
<text text-anchor="middle" x="322" y="-302.3" font-family="Times,serif" font-size="14.00">arg</text>
</g>
<!-- ast.arguments object at 0x7319bb0f3910&#45;&gt;ast.arg object at 0x7319bb30c150 -->
<g id="edge21" class="edge">
<title>ast.arguments object at 0x7319bb0f3910&#45;&gt;ast.arg object at 0x7319bb30c150</title>
<path fill="none" stroke="black" d="M316.73,-359.7C317.5,-351.98 318.43,-342.71 319.29,-334.11"/>
<polygon fill="black" stroke="black" points="322.78,-334.4 320.29,-324.1 315.81,-333.71 322.78,-334.4"/>
</g>
<!-- ast.Name object at 0x7319bb0a7f90 -->
<g id="node20" class="node">
<title>ast.Name object at 0x7319bb0a7f90</title>
<path fill="#66cdaa" stroke="black" d="M381,-252C381,-252 351,-252 351,-252 345,-252 339,-246 339,-240 339,-240 339,-228 339,-228 339,-222 345,-216 351,-216 351,-216 381,-216 381,-216 387,-216 393,-222 393,-228 393,-228 393,-240 393,-240 393,-246 387,-252 381,-252"/>
<text text-anchor="middle" x="366" y="-230.3" font-family="Times,serif" font-size="14.00">Name</text>
</g>
<!-- ast.While object at 0x7319bb0a5650&#45;&gt;ast.Name object at 0x7319bb0a7f90 -->
<g id="edge23" class="edge">
<title>ast.While object at 0x7319bb0a5650&#45;&gt;ast.Name object at 0x7319bb0a7f90</title>
<path fill="none" stroke="black" d="M393.26,-359.87C387.95,-335.56 378.19,-290.82 371.9,-262.01"/>
<polygon fill="black" stroke="black" points="375.3,-261.21 369.75,-252.19 368.47,-262.71 375.3,-261.21"/>
</g>
<!-- ast.Assign object at 0x7319bb0a6590 -->
<g id="node21" class="node">
<title>ast.Assign object at 0x7319bb0a6590</title>
<path fill="#66cdaa" stroke="black" d="M472,-324C472,-324 442,-324 442,-324 436,-324 430,-318 430,-312 430,-312 430,-300 430,-300 430,-294 436,-288 442,-288 442,-288 472,-288 472,-288 478,-288 484,-294 484,-300 484,-300 484,-312 484,-312 484,-318 478,-324 472,-324"/>
<text text-anchor="middle" x="457" y="-302.3" font-family="Times,serif" font-size="14.00">Assign</text>
</g>
<!-- ast.While object at 0x7319bb0a5650&#45;&gt;ast.Assign object at 0x7319bb0a6590 -->
<g id="edge25" class="edge">
<title>ast.While object at 0x7319bb0a5650&#45;&gt;ast.Assign object at 0x7319bb0a6590</title>
<path fill="none" stroke="black" d="M411.83,-359.7C419.02,-351.3 427.8,-341.07 435.69,-331.86"/>
<polygon fill="black" stroke="black" points="438.49,-333.97 442.34,-324.1 433.17,-329.42 438.49,-333.97"/>
</g>
<!-- ast.Name object at 0x7319bb0a7f90&#45;&gt;ast.Load object at 0x731ae923bc10 -->
<g id="edge24" class="edge">
<title>ast.Name object at 0x7319bb0a7f90&#45;&gt;ast.Load object at 0x731ae923bc10</title>
<path fill="none" stroke="black" d="M362.44,-215.93C359.4,-197.5 356.81,-167.62 366,-144 373.87,-123.77 388.95,-127.24 399,-108 409.05,-88.76 414.08,-64.6 416.57,-46.31"/>
<polygon fill="black" stroke="black" points="420.06,-46.65 417.77,-36.3 413.11,-45.82 420.06,-46.65"/>
</g>
<!-- ast.Tuple object at 0x7319bb0a66d0 -->
<g id="node22" class="node">
<title>ast.Tuple object at 0x7319bb0a66d0</title>
<path fill="#66cdaa" stroke="black" d="M472,-252C472,-252 442,-252 442,-252 436,-252 430,-246 430,-240 430,-240 430,-228 430,-228 430,-222 436,-216 442,-216 442,-216 472,-216 472,-216 478,-216 484,-222 484,-228 484,-228 484,-240 484,-240 484,-246 478,-252 472,-252"/>
<text text-anchor="middle" x="457" y="-230.3" font-family="Times,serif" font-size="14.00">Tuple</text>
</g>
<!-- ast.Assign object at 0x7319bb0a6590&#45;&gt;ast.Tuple object at 0x7319bb0a66d0 -->
<g id="edge26" class="edge">
<title>ast.Assign object at 0x7319bb0a6590&#45;&gt;ast.Tuple object at 0x7319bb0a66d0</title>
<path fill="none" stroke="black" d="M457,-287.7C457,-279.98 457,-270.71 457,-262.11"/>
<polygon fill="black" stroke="black" points="460.5,-262.1 457,-252.1 453.5,-262.1 460.5,-262.1"/>
</g>
<!-- ast.Tuple object at 0x7319bc38b610 -->
<g id="node26" class="node">
<title>ast.Tuple object at 0x7319bc38b610</title>
<path fill="#66cdaa" stroke="black" d="M609,-252C609,-252 579,-252 579,-252 573,-252 567,-246 567,-240 567,-240 567,-228 567,-228 567,-222 573,-216 579,-216 579,-216 609,-216 609,-216 615,-216 621,-222 621,-228 621,-228 621,-240 621,-240 621,-246 615,-252 609,-252"/>
<text text-anchor="middle" x="594" y="-230.3" font-family="Times,serif" font-size="14.00">Tuple</text>
</g>
<!-- ast.Assign object at 0x7319bb0a6590&#45;&gt;ast.Tuple object at 0x7319bc38b610 -->
<g id="edge32" class="edge">
<title>ast.Assign object at 0x7319bb0a6590&#45;&gt;ast.Tuple object at 0x7319bc38b610</title>
<path fill="none" stroke="black" d="M484.07,-291.17C505.18,-280.38 534.69,-265.3 557.83,-253.48"/>
<polygon fill="black" stroke="black" points="559.68,-256.47 566.99,-248.8 556.49,-250.23 559.68,-256.47"/>
</g>
<!-- ast.Name object at 0x7319bb0a4950 -->
<g id="node23" class="node">
<title>ast.Name object at 0x7319bb0a4950</title>
<path fill="#66cdaa" stroke="black" d="M417,-180C417,-180 387,-180 387,-180 381,-180 375,-174 375,-168 375,-168 375,-156 375,-156 375,-150 381,-144 387,-144 387,-144 417,-144 417,-144 423,-144 429,-150 429,-156 429,-156 429,-168 429,-168 429,-174 423,-180 417,-180"/>
<text text-anchor="middle" x="402" y="-158.3" font-family="Times,serif" font-size="14.00">Name</text>
</g>
<!-- ast.Tuple object at 0x7319bb0a66d0&#45;&gt;ast.Name object at 0x7319bb0a4950 -->
<g id="edge27" class="edge">
<title>ast.Tuple object at 0x7319bb0a66d0&#45;&gt;ast.Name object at 0x7319bb0a4950</title>
<path fill="none" stroke="black" d="M443.4,-215.7C436.88,-207.39 428.93,-197.28 421.75,-188.14"/>
<polygon fill="black" stroke="black" points="424.37,-185.81 415.44,-180.1 418.87,-190.13 424.37,-185.81"/>
</g>
<!-- ast.Store object at 0x731ae923bc90 -->
<g id="node24" class="node">
<title>ast.Store object at 0x731ae923bc90</title>
<path fill="#66cdaa" stroke="black" d="M489,-108C489,-108 459,-108 459,-108 453,-108 447,-102 447,-96 447,-96 447,-84 447,-84 447,-78 453,-72 459,-72 459,-72 489,-72 489,-72 495,-72 501,-78 501,-84 501,-84 501,-96 501,-96 501,-102 495,-108 489,-108"/>
<text text-anchor="middle" x="474" y="-86.3" font-family="Times,serif" font-size="14.00">Store</text>
</g>
<!-- ast.Tuple object at 0x7319bb0a66d0&#45;&gt;ast.Store object at 0x731ae923bc90 -->
<g id="edge31" class="edge">
<title>ast.Tuple object at 0x7319bb0a66d0&#45;&gt;ast.Store object at 0x731ae923bc90</title>
<path fill="none" stroke="black" d="M459.05,-215.87C461.95,-191.67 467.27,-147.21 470.72,-118.39"/>
<polygon fill="black" stroke="black" points="474.23,-118.53 471.94,-108.19 467.28,-117.7 474.23,-118.53"/>
</g>
<!-- ast.Name object at 0x7319baf4f8d0 -->
<g id="node25" class="node">
<title>ast.Name object at 0x7319baf4f8d0</title>
<path fill="#66cdaa" stroke="black" d="M527,-180C527,-180 497,-180 497,-180 491,-180 485,-174 485,-168 485,-168 485,-156 485,-156 485,-150 491,-144 497,-144 497,-144 527,-144 527,-144 533,-144 539,-150 539,-156 539,-156 539,-168 539,-168 539,-174 533,-180 527,-180"/>
<text text-anchor="middle" x="512" y="-158.3" font-family="Times,serif" font-size="14.00">Name</text>
</g>
<!-- ast.Tuple object at 0x7319bb0a66d0&#45;&gt;ast.Name object at 0x7319baf4f8d0 -->
<g id="edge29" class="edge">
<title>ast.Tuple object at 0x7319bb0a66d0&#45;&gt;ast.Name object at 0x7319baf4f8d0</title>
<path fill="none" stroke="black" d="M470.6,-215.7C477.12,-207.39 485.07,-197.28 492.25,-188.14"/>
<polygon fill="black" stroke="black" points="495.13,-190.13 498.56,-180.1 489.63,-185.81 495.13,-190.13"/>
</g>
<!-- ast.Name object at 0x7319bb0a4950&#45;&gt;ast.Store object at 0x731ae923bc90 -->
<g id="edge28" class="edge">
<title>ast.Name object at 0x7319bb0a4950&#45;&gt;ast.Store object at 0x731ae923bc90</title>
<path fill="none" stroke="black" d="M419.8,-143.7C428.6,-135.14 439.38,-124.66 449,-115.3"/>
<polygon fill="black" stroke="black" points="451.68,-117.58 456.41,-108.1 446.8,-112.57 451.68,-117.58"/>
</g>
<!-- ast.Name object at 0x7319baf4f8d0&#45;&gt;ast.Store object at 0x731ae923bc90 -->
<g id="edge30" class="edge">
<title>ast.Name object at 0x7319baf4f8d0&#45;&gt;ast.Store object at 0x731ae923bc90</title>
<path fill="none" stroke="black" d="M502.61,-143.7C498.24,-135.64 492.94,-125.89 488.1,-116.98"/>
<polygon fill="black" stroke="black" points="491.13,-115.22 483.29,-108.1 484.98,-118.56 491.13,-115.22"/>
</g>
<!-- ast.Tuple object at 0x7319bc38b610&#45;&gt;ast.Load object at 0x731ae923bc10 -->
<g id="edge41" class="edge">
<title>ast.Tuple object at 0x7319bc38b610&#45;&gt;ast.Load object at 0x731ae923bc10</title>
<path fill="none" stroke="black" d="M588.65,-215.79C578.06,-184.05 551.79,-115.57 510,-72 494.7,-56.04 473.55,-43.34 455.49,-34.37"/>
<polygon fill="black" stroke="black" points="456.91,-31.17 446.37,-30.02 453.89,-37.49 456.91,-31.17"/>
</g>
<!-- ast.Name object at 0x7319bafba090 -->
<g id="node27" class="node">
<title>ast.Name object at 0x7319bafba090</title>
<path fill="#66cdaa" stroke="black" d="M637,-180C637,-180 607,-180 607,-180 601,-180 595,-174 595,-168 595,-168 595,-156 595,-156 595,-150 601,-144 607,-144 607,-144 637,-144 637,-144 643,-144 649,-150 649,-156 649,-156 649,-168 649,-168 649,-174 643,-180 637,-180"/>
<text text-anchor="middle" x="622" y="-158.3" font-family="Times,serif" font-size="14.00">Name</text>
</g>
<!-- ast.Tuple object at 0x7319bc38b610&#45;&gt;ast.Name object at 0x7319bafba090 -->
<g id="edge33" class="edge">
<title>ast.Tuple object at 0x7319bc38b610&#45;&gt;ast.Name object at 0x7319bafba090</title>
<path fill="none" stroke="black" d="M600.92,-215.7C604.07,-207.81 607.88,-198.3 611.38,-189.55"/>
<polygon fill="black" stroke="black" points="614.69,-190.69 615.16,-180.1 608.19,-188.09 614.69,-190.69"/>
</g>
<!-- ast.BinOp object at 0x7319bafba810 -->
<g id="node28" class="node">
<title>ast.BinOp object at 0x7319bafba810</title>
<path fill="#66cdaa" stroke="black" d="M709,-180C709,-180 679,-180 679,-180 673,-180 667,-174 667,-168 667,-168 667,-156 667,-156 667,-150 673,-144 679,-144 679,-144 709,-144 709,-144 715,-144 721,-150 721,-156 721,-156 721,-168 721,-168 721,-174 715,-180 709,-180"/>
<text text-anchor="middle" x="694" y="-158.3" font-family="Times,serif" font-size="14.00">BinOp</text>
</g>
<!-- ast.Tuple object at 0x7319bc38b610&#45;&gt;ast.BinOp object at 0x7319bafba810 -->
<g id="edge35" class="edge">
<title>ast.Tuple object at 0x7319bc38b610&#45;&gt;ast.BinOp object at 0x7319bafba810</title>
<path fill="none" stroke="black" d="M618.46,-215.88C631.3,-206.89 647.2,-195.76 661.09,-186.03"/>
<polygon fill="black" stroke="black" points="663.26,-188.79 669.44,-180.19 659.24,-183.06 663.26,-188.79"/>
</g>
<!-- ast.Name object at 0x7319bafba090&#45;&gt;ast.Load object at 0x731ae923bc10 -->
<g id="edge34" class="edge">
<title>ast.Name object at 0x7319bafba090&#45;&gt;ast.Load object at 0x731ae923bc10</title>
<path fill="none" stroke="black" d="M610.4,-143.87C596.38,-124.28 571.16,-92.29 543,-72 516.51,-52.91 482.07,-38.89 456.21,-30.08"/>
<polygon fill="black" stroke="black" points="457,-26.65 446.41,-26.85 454.81,-33.3 457,-26.65"/>
</g>
<!-- ast.Name object at 0x7319bafbbc90 -->
<g id="node29" class="node">
<title>ast.Name object at 0x7319bafbbc90</title>
<path fill="#66cdaa" stroke="black" d="M637,-108C637,-108 607,-108 607,-108 601,-108 595,-102 595,-96 595,-96 595,-84 595,-84 595,-78 601,-72 607,-72 607,-72 637,-72 637,-72 643,-72 649,-78 649,-84 649,-84 649,-96 649,-96 649,-102 643,-108 637,-108"/>
<text text-anchor="middle" x="622" y="-86.3" font-family="Times,serif" font-size="14.00">Name</text>
</g>
<!-- ast.BinOp object at 0x7319bafba810&#45;&gt;ast.Name object at 0x7319bafbbc90 -->
<g id="edge36" class="edge">
<title>ast.BinOp object at 0x7319bafba810&#45;&gt;ast.Name object at 0x7319bafbbc90</title>
<path fill="none" stroke="black" d="M676.2,-143.7C667.4,-135.14 656.62,-124.66 647,-115.3"/>
<polygon fill="black" stroke="black" points="649.2,-112.57 639.59,-108.1 644.32,-117.58 649.2,-112.57"/>
</g>
<!-- ast.Mod object at 0x731ae92483d0 -->
<g id="node30" class="node">
<title>ast.Mod object at 0x731ae92483d0</title>
<path fill="#66cdaa" stroke="black" d="M709,-108C709,-108 679,-108 679,-108 673,-108 667,-102 667,-96 667,-96 667,-84 667,-84 667,-78 673,-72 679,-72 679,-72 709,-72 709,-72 715,-72 721,-78 721,-84 721,-84 721,-96 721,-96 721,-102 715,-108 709,-108"/>
<text text-anchor="middle" x="694" y="-86.3" font-family="Times,serif" font-size="14.00">Mod</text>
</g>
<!-- ast.BinOp object at 0x7319bafba810&#45;&gt;ast.Mod object at 0x731ae92483d0 -->
<g id="edge38" class="edge">
<title>ast.BinOp object at 0x7319bafba810&#45;&gt;ast.Mod object at 0x731ae92483d0</title>
<path fill="none" stroke="black" d="M694,-143.7C694,-135.98 694,-126.71 694,-118.11"/>
<polygon fill="black" stroke="black" points="697.5,-118.1 694,-108.1 690.5,-118.1 697.5,-118.1"/>
</g>
<!-- ast.Name object at 0x7319bafbbe90 -->
<g id="node31" class="node">
<title>ast.Name object at 0x7319bafbbe90</title>
<path fill="#66cdaa" stroke="black" d="M781,-108C781,-108 751,-108 751,-108 745,-108 739,-102 739,-96 739,-96 739,-84 739,-84 739,-78 745,-72 751,-72 751,-72 781,-72 781,-72 787,-72 793,-78 793,-84 793,-84 793,-96 793,-96 793,-102 787,-108 781,-108"/>
<text text-anchor="middle" x="766" y="-86.3" font-family="Times,serif" font-size="14.00">Name</text>
</g>
<!-- ast.BinOp object at 0x7319bafba810&#45;&gt;ast.Name object at 0x7319bafbbe90 -->
<g id="edge39" class="edge">
<title>ast.BinOp object at 0x7319bafba810&#45;&gt;ast.Name object at 0x7319bafbbe90</title>
<path fill="none" stroke="black" d="M711.8,-143.7C720.6,-135.14 731.38,-124.66 741,-115.3"/>
<polygon fill="black" stroke="black" points="743.68,-117.58 748.41,-108.1 738.8,-112.57 743.68,-117.58"/>
</g>
<!-- ast.Name object at 0x7319bafbbc90&#45;&gt;ast.Load object at 0x731ae923bc10 -->
<g id="edge37" class="edge">
<title>ast.Name object at 0x7319bafbbc90&#45;&gt;ast.Load object at 0x731ae923bc10</title>
<path fill="none" stroke="black" d="M594.77,-77.37C590.2,-75.51 585.48,-73.66 581,-72 538.5,-56.26 488.87,-40.39 455.85,-30.17"/>
<polygon fill="black" stroke="black" points="456.75,-26.78 446.16,-27.19 454.69,-33.47 456.75,-26.78"/>
</g>
<!-- ast.Name object at 0x7319bafbbe90&#45;&gt;ast.Load object at 0x731ae923bc10 -->
<g id="edge40" class="edge">
<title>ast.Name object at 0x7319bafbbe90&#45;&gt;ast.Load object at 0x731ae923bc10</title>
<path fill="none" stroke="black" d="M738.79,-75.21C735.87,-74.01 732.9,-72.91 730,-72 633.89,-41.75 515.32,-27.6 456.2,-22.04"/>
<polygon fill="black" stroke="black" points="456.48,-18.55 446.21,-21.13 455.85,-25.52 456.48,-18.55"/>
</g>
<!-- ast.Name object at 0x7319bafba010 -->
<g id="node33" class="node">
<title>ast.Name object at 0x7319bafba010</title>
<path fill="#66cdaa" stroke="black" d="M772,-252C772,-252 742,-252 742,-252 736,-252 730,-246 730,-240 730,-240 730,-228 730,-228 730,-222 736,-216 742,-216 742,-216 772,-216 772,-216 778,-216 784,-222 784,-228 784,-228 784,-240 784,-240 784,-246 778,-252 772,-252"/>
<text text-anchor="middle" x="757" y="-230.3" font-family="Times,serif" font-size="14.00">Name</text>
</g>
<!-- ast.Return object at 0x7319bafba690&#45;&gt;ast.Name object at 0x7319bafba010 -->
<g id="edge43" class="edge">
<title>ast.Return object at 0x7319bafba690&#45;&gt;ast.Name object at 0x7319bafba010</title>
<path fill="none" stroke="black" d="M589.04,-359.87C623.17,-334.5 687.25,-286.85 725.64,-258.32"/>
<polygon fill="black" stroke="black" points="727.94,-260.96 733.88,-252.19 723.77,-255.35 727.94,-260.96"/>
</g>
<!-- ast.Name object at 0x7319bafba010&#45;&gt;ast.Load object at 0x731ae923bc10 -->
<g id="edge44" class="edge">
<title>ast.Name object at 0x7319bafba010&#45;&gt;ast.Load object at 0x731ae923bc10</title>
<path fill="none" stroke="black" d="M770.89,-215.72C794.99,-183.57 838.6,-114.02 802,-72 757.34,-20.74 543.59,-17.42 456.27,-18.26"/>
<polygon fill="black" stroke="black" points="455.99,-14.77 446.03,-18.39 456.07,-21.77 455.99,-14.77"/>
</g>
</g>
</svg>
