<?xml version="1.0" encoding="UTF-8" standalone="no"?>
<!DOCTYPE svg PUBLIC "-//W3C//DTD SVG 1.1//EN"
 "http://www.w3.org/Graphics/SVG/1.1/DTD/svg11.dtd">
<!-- Generated by graphviz version 2.50.0 (0)
 -->
<!-- Pages: 1 -->
<svg width="1785pt" height="836pt"
 viewBox="0.00 0.00 1784.50 836.00" xmlns="http://www.w3.org/2000/svg" xmlns:xlink="http://www.w3.org/1999/xlink">
<g id="graph0" class="graph" transform="scale(1 1) rotate(0) translate(4 832)">
<polygon fill="white" stroke="transparent" points="-4,4 -4,-832 1780.5,-832 1780.5,4 -4,4"/>
<!-- ast.Module object at 0x74f96cb338d0 -->
<g id="node1" class="node">
<title>ast.Module object at 0x74f96cb338d0</title>
<path fill="#66cdaa" stroke="black" d="M1558,-828C1558,-828 1523,-828 1523,-828 1517,-828 1511,-822 1511,-816 1511,-816 1511,-804 1511,-804 1511,-798 1517,-792 1523,-792 1523,-792 1558,-792 1558,-792 1564,-792 1570,-798 1570,-804 1570,-804 1570,-816 1570,-816 1570,-822 1564,-828 1558,-828"/>
<text text-anchor="middle" x="1540.5" y="-806.3" font-family="Times,serif" font-size="14.00">Module</text>
</g>
<!-- ast.FunctionDef object at 0x74f96cb33d10 -->
<g id="node2" class="node">
<title>ast.FunctionDef object at 0x74f96cb33d10</title>
<path fill="#66cdaa" stroke="black" d="M1571,-756C1571,-756 1510,-756 1510,-756 1504,-756 1498,-750 1498,-744 1498,-744 1498,-732 1498,-732 1498,-726 1504,-720 1510,-720 1510,-720 1571,-720 1571,-720 1577,-720 1583,-726 1583,-732 1583,-732 1583,-744 1583,-744 1583,-750 1577,-756 1571,-756"/>
<text text-anchor="middle" x="1540.5" y="-734.3" font-family="Times,serif" font-size="14.00">FunctionDef</text>
</g>
<!-- ast.Module object at 0x74f96cb338d0&#45;&gt;ast.FunctionDef object at 0x74f96cb33d10 -->
<g id="edge1" class="edge">
<title>ast.Module object at 0x74f96cb338d0&#45;&gt;ast.FunctionDef object at 0x74f96cb33d10</title>
<path fill="none" stroke="black" d="M1540.5,-791.7C1540.5,-783.98 1540.5,-774.71 1540.5,-766.11"/>
<polygon fill="black" stroke="black" points="1544,-766.1 1540.5,-756.1 1537,-766.1 1544,-766.1"/>
</g>
<!-- ast.arguments object at 0x74f96437df50 -->
<g id="node3" class="node">
<title>ast.arguments object at 0x74f96437df50</title>
<path fill="#66cdaa" stroke="black" d="M813.5,-684C813.5,-684 763.5,-684 763.5,-684 757.5,-684 751.5,-678 751.5,-672 751.5,-672 751.5,-660 751.5,-660 751.5,-654 757.5,-648 763.5,-648 763.5,-648 813.5,-648 813.5,-648 819.5,-648 825.5,-654 825.5,-660 825.5,-660 825.5,-672 825.5,-672 825.5,-678 819.5,-684 813.5,-684"/>
<text text-anchor="middle" x="788.5" y="-662.3" font-family="Times,serif" font-size="14.00">arguments</text>
</g>
<!-- ast.FunctionDef object at 0x74f96cb33d10&#45;&gt;ast.arguments object at 0x74f96437df50 -->
<g id="edge2" class="edge">
<title>ast.FunctionDef object at 0x74f96cb33d10&#45;&gt;ast.arguments object at 0x74f96437df50</title>
<path fill="none" stroke="black" d="M1497.91,-733.04C1367.25,-720.87 972.62,-684.14 835.81,-671.4"/>
<polygon fill="black" stroke="black" points="835.93,-667.9 825.65,-670.46 835.29,-674.87 835.93,-667.9"/>
</g>
<!-- ast.Assign object at 0x74f96437c850 -->
<g id="node5" class="node">
<title>ast.Assign object at 0x74f96437c850</title>
<path fill="#66cdaa" stroke="black" d="M1528.5,-684C1528.5,-684 1498.5,-684 1498.5,-684 1492.5,-684 1486.5,-678 1486.5,-672 1486.5,-672 1486.5,-660 1486.5,-660 1486.5,-654 1492.5,-648 1498.5,-648 1498.5,-648 1528.5,-648 1528.5,-648 1534.5,-648 1540.5,-654 1540.5,-660 1540.5,-660 1540.5,-672 1540.5,-672 1540.5,-678 1534.5,-684 1528.5,-684"/>
<text text-anchor="middle" x="1513.5" y="-662.3" font-family="Times,serif" font-size="14.00">Assign</text>
</g>
<!-- ast.FunctionDef object at 0x74f96cb33d10&#45;&gt;ast.Assign object at 0x74f96437c850 -->
<g id="edge4" class="edge">
<title>ast.FunctionDef object at 0x74f96cb33d10&#45;&gt;ast.Assign object at 0x74f96437c850</title>
<path fill="none" stroke="black" d="M1533.83,-719.7C1530.79,-711.81 1527.12,-702.3 1523.74,-693.55"/>
<polygon fill="black" stroke="black" points="1526.96,-692.17 1520.1,-684.1 1520.43,-694.69 1526.96,-692.17"/>
</g>
<!-- ast.Assign object at 0x74f96437c690 -->
<g id="node9" class="node">
<title>ast.Assign object at 0x74f96437c690</title>
<path fill="#66cdaa" stroke="black" d="M1583.5,-468C1583.5,-468 1553.5,-468 1553.5,-468 1547.5,-468 1541.5,-462 1541.5,-456 1541.5,-456 1541.5,-444 1541.5,-444 1541.5,-438 1547.5,-432 1553.5,-432 1553.5,-432 1583.5,-432 1583.5,-432 1589.5,-432 1595.5,-438 1595.5,-444 1595.5,-444 1595.5,-456 1595.5,-456 1595.5,-462 1589.5,-468 1583.5,-468"/>
<text text-anchor="middle" x="1568.5" y="-446.3" font-family="Times,serif" font-size="14.00">Assign</text>
</g>
<!-- ast.FunctionDef object at 0x74f96cb33d10&#45;&gt;ast.Assign object at 0x74f96437c690 -->
<g id="edge8" class="edge">
<title>ast.FunctionDef object at 0x74f96cb33d10&#45;&gt;ast.Assign object at 0x74f96437c690</title>
<path fill="none" stroke="black" d="M1543.8,-719.87C1545.69,-709.52 1547.99,-696.04 1549.5,-684 1558.81,-609.75 1564.57,-521.59 1567.06,-478.08"/>
<polygon fill="black" stroke="black" points="1570.56,-478.19 1567.62,-468.01 1563.57,-477.8 1570.56,-478.19"/>
</g>
<!-- ast.Assign object at 0x74f96437c490 -->
<g id="node13" class="node">
<title>ast.Assign object at 0x74f96437c490</title>
<path fill="#66cdaa" stroke="black" d="M1655.5,-468C1655.5,-468 1625.5,-468 1625.5,-468 1619.5,-468 1613.5,-462 1613.5,-456 1613.5,-456 1613.5,-444 1613.5,-444 1613.5,-438 1619.5,-432 1625.5,-432 1625.5,-432 1655.5,-432 1655.5,-432 1661.5,-432 1667.5,-438 1667.5,-444 1667.5,-444 1667.5,-456 1667.5,-456 1667.5,-462 1661.5,-468 1655.5,-468"/>
<text text-anchor="middle" x="1640.5" y="-446.3" font-family="Times,serif" font-size="14.00">Assign</text>
</g>
<!-- ast.FunctionDef object at 0x74f96cb33d10&#45;&gt;ast.Assign object at 0x74f96437c490 -->
<g id="edge13" class="edge">
<title>ast.FunctionDef object at 0x74f96cb33d10&#45;&gt;ast.Assign object at 0x74f96437c490</title>
<path fill="none" stroke="black" d="M1549.83,-719.63C1555.11,-709.42 1561.61,-696.17 1566.5,-684 1595.72,-611.23 1621.31,-522.13 1633.29,-478.18"/>
<polygon fill="black" stroke="black" points="1636.74,-478.83 1635.97,-468.26 1629.98,-477 1636.74,-478.83"/>
</g>
<!-- ast.For object at 0x74f96437f3d0 -->
<g id="node18" class="node">
<title>ast.For object at 0x74f96437f3d0</title>
<path fill="#66cdaa" stroke="black" d="M1296.5,-684C1296.5,-684 1266.5,-684 1266.5,-684 1260.5,-684 1254.5,-678 1254.5,-672 1254.5,-672 1254.5,-660 1254.5,-660 1254.5,-654 1260.5,-648 1266.5,-648 1266.5,-648 1296.5,-648 1296.5,-648 1302.5,-648 1308.5,-654 1308.5,-660 1308.5,-660 1308.5,-672 1308.5,-672 1308.5,-678 1302.5,-684 1296.5,-684"/>
<text text-anchor="middle" x="1281.5" y="-662.3" font-family="Times,serif" font-size="14.00">For</text>
</g>
<!-- ast.FunctionDef object at 0x74f96cb33d10&#45;&gt;ast.For object at 0x74f96437f3d0 -->
<g id="edge21" class="edge">
<title>ast.FunctionDef object at 0x74f96cb33d10&#45;&gt;ast.For object at 0x74f96437f3d0</title>
<path fill="none" stroke="black" d="M1497.73,-725.44C1447.8,-711.95 1366.04,-689.85 1318.66,-677.04"/>
<polygon fill="black" stroke="black" points="1319.37,-673.61 1308.81,-674.38 1317.55,-680.37 1319.37,-673.61"/>
</g>
<!-- ast.Return object at 0x74f9643aae10 -->
<g id="node75" class="node">
<title>ast.Return object at 0x74f9643aae10</title>
<path fill="#66cdaa" stroke="black" d="M1740.5,-684C1740.5,-684 1710.5,-684 1710.5,-684 1704.5,-684 1698.5,-678 1698.5,-672 1698.5,-672 1698.5,-660 1698.5,-660 1698.5,-654 1704.5,-648 1710.5,-648 1710.5,-648 1740.5,-648 1740.5,-648 1746.5,-648 1752.5,-654 1752.5,-660 1752.5,-660 1752.5,-672 1752.5,-672 1752.5,-678 1746.5,-684 1740.5,-684"/>
<text text-anchor="middle" x="1725.5" y="-662.3" font-family="Times,serif" font-size="14.00">Return</text>
</g>
<!-- ast.FunctionDef object at 0x74f96cb33d10&#45;&gt;ast.Return object at 0x74f9643aae10 -->
<g id="edge111" class="edge">
<title>ast.FunctionDef object at 0x74f96cb33d10&#45;&gt;ast.Return object at 0x74f9643aae10</title>
<path fill="none" stroke="black" d="M1583.41,-720.76C1615.38,-708.67 1658.59,-692.32 1688.93,-680.84"/>
<polygon fill="black" stroke="black" points="1690.19,-684.1 1698.3,-677.29 1687.71,-677.56 1690.19,-684.1"/>
</g>
<!-- ast.arg object at 0x74f96437df10 -->
<g id="node4" class="node">
<title>ast.arg object at 0x74f96437df10</title>
<path fill="#66cdaa" stroke="black" d="M506.5,-612C506.5,-612 476.5,-612 476.5,-612 470.5,-612 464.5,-606 464.5,-600 464.5,-600 464.5,-588 464.5,-588 464.5,-582 470.5,-576 476.5,-576 476.5,-576 506.5,-576 506.5,-576 512.5,-576 518.5,-582 518.5,-588 518.5,-588 518.5,-600 518.5,-600 518.5,-606 512.5,-612 506.5,-612"/>
<text text-anchor="middle" x="491.5" y="-590.3" font-family="Times,serif" font-size="14.00">arg</text>
</g>
<!-- ast.arguments object at 0x74f96437df50&#45;&gt;ast.arg object at 0x74f96437df10 -->
<g id="edge3" class="edge">
<title>ast.arguments object at 0x74f96437df50&#45;&gt;ast.arg object at 0x74f96437df10</title>
<path fill="none" stroke="black" d="M751.49,-659.59C701.22,-651.74 608.85,-635.5 532.5,-612 531.07,-611.56 529.63,-611.09 528.17,-610.6"/>
<polygon fill="black" stroke="black" points="529.18,-607.24 518.58,-607.07 526.76,-613.81 529.18,-607.24"/>
</g>
<!-- ast.Name object at 0x74f96437c810 -->
<g id="node6" class="node">
<title>ast.Name object at 0x74f96437c810</title>
<path fill="#66cdaa" stroke="black" d="M1528.5,-540C1528.5,-540 1498.5,-540 1498.5,-540 1492.5,-540 1486.5,-534 1486.5,-528 1486.5,-528 1486.5,-516 1486.5,-516 1486.5,-510 1492.5,-504 1498.5,-504 1498.5,-504 1528.5,-504 1528.5,-504 1534.5,-504 1540.5,-510 1540.5,-516 1540.5,-516 1540.5,-528 1540.5,-528 1540.5,-534 1534.5,-540 1528.5,-540"/>
<text text-anchor="middle" x="1513.5" y="-518.3" font-family="Times,serif" font-size="14.00">Name</text>
</g>
<!-- ast.Assign object at 0x74f96437c850&#45;&gt;ast.Name object at 0x74f96437c810 -->
<g id="edge5" class="edge">
<title>ast.Assign object at 0x74f96437c850&#45;&gt;ast.Name object at 0x74f96437c810</title>
<path fill="none" stroke="black" d="M1513.5,-647.87C1513.5,-623.67 1513.5,-579.21 1513.5,-550.39"/>
<polygon fill="black" stroke="black" points="1517,-550.19 1513.5,-540.19 1510,-550.19 1517,-550.19"/>
</g>
<!-- ast.Constant object at 0x74f96437f010 -->
<g id="node8" class="node">
<title>ast.Constant object at 0x74f96437f010</title>
<path fill="#66cdaa" stroke="black" d="M1473,-612C1473,-612 1432,-612 1432,-612 1426,-612 1420,-606 1420,-600 1420,-600 1420,-588 1420,-588 1420,-582 1426,-576 1432,-576 1432,-576 1473,-576 1473,-576 1479,-576 1485,-582 1485,-588 1485,-588 1485,-600 1485,-600 1485,-606 1479,-612 1473,-612"/>
<text text-anchor="middle" x="1452.5" y="-590.3" font-family="Times,serif" font-size="14.00">Constant</text>
</g>
<!-- ast.Assign object at 0x74f96437c850&#45;&gt;ast.Constant object at 0x74f96437f010 -->
<g id="edge7" class="edge">
<title>ast.Assign object at 0x74f96437c850&#45;&gt;ast.Constant object at 0x74f96437f010</title>
<path fill="none" stroke="black" d="M1498.42,-647.7C1491.11,-639.3 1482.19,-629.07 1474.16,-619.86"/>
<polygon fill="black" stroke="black" points="1476.61,-617.34 1467.41,-612.1 1471.34,-621.94 1476.61,-617.34"/>
</g>
<!-- ast.Store object at 0x74f9c33c9890 -->
<g id="node7" class="node">
<title>ast.Store object at 0x74f9c33c9890</title>
<path fill="#66cdaa" stroke="black" d="M1478.5,-324C1478.5,-324 1448.5,-324 1448.5,-324 1442.5,-324 1436.5,-318 1436.5,-312 1436.5,-312 1436.5,-300 1436.5,-300 1436.5,-294 1442.5,-288 1448.5,-288 1448.5,-288 1478.5,-288 1478.5,-288 1484.5,-288 1490.5,-294 1490.5,-300 1490.5,-300 1490.5,-312 1490.5,-312 1490.5,-318 1484.5,-324 1478.5,-324"/>
<text text-anchor="middle" x="1463.5" y="-302.3" font-family="Times,serif" font-size="14.00">Store</text>
</g>
<!-- ast.Name object at 0x74f96437c810&#45;&gt;ast.Store object at 0x74f9c33c9890 -->
<g id="edge6" class="edge">
<title>ast.Name object at 0x74f96437c810&#45;&gt;ast.Store object at 0x74f9c33c9890</title>
<path fill="none" stroke="black" d="M1509.49,-503.85C1500.83,-466.75 1480.28,-378.81 1469.83,-334.1"/>
<polygon fill="black" stroke="black" points="1473.21,-333.17 1467.53,-324.23 1466.39,-334.77 1473.21,-333.17"/>
</g>
<!-- ast.Name object at 0x74f96437c890 -->
<g id="node10" class="node">
<title>ast.Name object at 0x74f96437c890</title>
<path fill="#66cdaa" stroke="black" d="M1583.5,-396C1583.5,-396 1553.5,-396 1553.5,-396 1547.5,-396 1541.5,-390 1541.5,-384 1541.5,-384 1541.5,-372 1541.5,-372 1541.5,-366 1547.5,-360 1553.5,-360 1553.5,-360 1583.5,-360 1583.5,-360 1589.5,-360 1595.5,-366 1595.5,-372 1595.5,-372 1595.5,-384 1595.5,-384 1595.5,-390 1589.5,-396 1583.5,-396"/>
<text text-anchor="middle" x="1568.5" y="-374.3" font-family="Times,serif" font-size="14.00">Name</text>
</g>
<!-- ast.Assign object at 0x74f96437c690&#45;&gt;ast.Name object at 0x74f96437c890 -->
<g id="edge9" class="edge">
<title>ast.Assign object at 0x74f96437c690&#45;&gt;ast.Name object at 0x74f96437c890</title>
<path fill="none" stroke="black" d="M1568.5,-431.7C1568.5,-423.98 1568.5,-414.71 1568.5,-406.11"/>
<polygon fill="black" stroke="black" points="1572,-406.1 1568.5,-396.1 1565,-406.1 1572,-406.1"/>
</g>
<!-- ast.List object at 0x74f96437ced0 -->
<g id="node11" class="node">
<title>ast.List object at 0x74f96437ced0</title>
<path fill="#66cdaa" stroke="black" d="M1649.5,-324C1649.5,-324 1619.5,-324 1619.5,-324 1613.5,-324 1607.5,-318 1607.5,-312 1607.5,-312 1607.5,-300 1607.5,-300 1607.5,-294 1613.5,-288 1619.5,-288 1619.5,-288 1649.5,-288 1649.5,-288 1655.5,-288 1661.5,-294 1661.5,-300 1661.5,-300 1661.5,-312 1661.5,-312 1661.5,-318 1655.5,-324 1649.5,-324"/>
<text text-anchor="middle" x="1634.5" y="-302.3" font-family="Times,serif" font-size="14.00">List</text>
</g>
<!-- ast.Assign object at 0x74f96437c690&#45;&gt;ast.List object at 0x74f96437ced0 -->
<g id="edge11" class="edge">
<title>ast.Assign object at 0x74f96437c690&#45;&gt;ast.List object at 0x74f96437ced0</title>
<path fill="none" stroke="black" d="M1595.65,-436.11C1627.25,-421.04 1675.32,-397.9 1676.5,-396 1689.35,-375.38 1674.96,-350.2 1659.63,-331.89"/>
<polygon fill="black" stroke="black" points="1661.88,-329.15 1652.62,-324.01 1656.65,-333.81 1661.88,-329.15"/>
</g>
<!-- ast.Name object at 0x74f96437c890&#45;&gt;ast.Store object at 0x74f9c33c9890 -->
<g id="edge10" class="edge">
<title>ast.Name object at 0x74f96437c890&#45;&gt;ast.Store object at 0x74f9c33c9890</title>
<path fill="none" stroke="black" d="M1542.81,-359.88C1529.21,-350.81 1512.33,-339.55 1497.64,-329.76"/>
<polygon fill="black" stroke="black" points="1499.55,-326.82 1489.28,-324.19 1495.66,-332.65 1499.55,-326.82"/>
</g>
<!-- ast.Load object at 0x74f9c33c9810 -->
<g id="node12" class="node">
<title>ast.Load object at 0x74f9c33c9810</title>
<path fill="#66cdaa" stroke="black" d="M939.5,-36C939.5,-36 909.5,-36 909.5,-36 903.5,-36 897.5,-30 897.5,-24 897.5,-24 897.5,-12 897.5,-12 897.5,-6 903.5,0 909.5,0 909.5,0 939.5,0 939.5,0 945.5,0 951.5,-6 951.5,-12 951.5,-12 951.5,-24 951.5,-24 951.5,-30 945.5,-36 939.5,-36"/>
<text text-anchor="middle" x="924.5" y="-14.3" font-family="Times,serif" font-size="14.00">Load</text>
</g>
<!-- ast.List object at 0x74f96437ced0&#45;&gt;ast.Load object at 0x74f9c33c9810 -->
<g id="edge12" class="edge">
<title>ast.List object at 0x74f96437ced0&#45;&gt;ast.Load object at 0x74f9c33c9810</title>
<path fill="none" stroke="black" d="M1633.96,-287.73C1631.51,-243.09 1618.16,-123.75 1545.5,-72 1497.92,-38.12 1088.79,-23.69 961.88,-20"/>
<polygon fill="black" stroke="black" points="961.96,-16.5 951.86,-19.71 961.76,-23.5 961.96,-16.5"/>
</g>
<!-- ast.Name object at 0x74f96437c750 -->
<g id="node14" class="node">
<title>ast.Name object at 0x74f96437c750</title>
<path fill="#66cdaa" stroke="black" d="M1655.5,-396C1655.5,-396 1625.5,-396 1625.5,-396 1619.5,-396 1613.5,-390 1613.5,-384 1613.5,-384 1613.5,-372 1613.5,-372 1613.5,-366 1619.5,-360 1625.5,-360 1625.5,-360 1655.5,-360 1655.5,-360 1661.5,-360 1667.5,-366 1667.5,-372 1667.5,-372 1667.5,-384 1667.5,-384 1667.5,-390 1661.5,-396 1655.5,-396"/>
<text text-anchor="middle" x="1640.5" y="-374.3" font-family="Times,serif" font-size="14.00">Name</text>
</g>
<!-- ast.Assign object at 0x74f96437c490&#45;&gt;ast.Name object at 0x74f96437c750 -->
<g id="edge14" class="edge">
<title>ast.Assign object at 0x74f96437c490&#45;&gt;ast.Name object at 0x74f96437c750</title>
<path fill="none" stroke="black" d="M1640.5,-431.7C1640.5,-423.98 1640.5,-414.71 1640.5,-406.11"/>
<polygon fill="black" stroke="black" points="1644,-406.1 1640.5,-396.1 1637,-406.1 1644,-406.1"/>
</g>
<!-- ast.Call object at 0x74f96437c710 -->
<g id="node15" class="node">
<title>ast.Call object at 0x74f96437c710</title>
<path fill="#66cdaa" stroke="black" d="M1733.5,-180C1733.5,-180 1703.5,-180 1703.5,-180 1697.5,-180 1691.5,-174 1691.5,-168 1691.5,-168 1691.5,-156 1691.5,-156 1691.5,-150 1697.5,-144 1703.5,-144 1703.5,-144 1733.5,-144 1733.5,-144 1739.5,-144 1745.5,-150 1745.5,-156 1745.5,-156 1745.5,-168 1745.5,-168 1745.5,-174 1739.5,-180 1733.5,-180"/>
<text text-anchor="middle" x="1718.5" y="-158.3" font-family="Times,serif" font-size="14.00">Call</text>
</g>
<!-- ast.Assign object at 0x74f96437c490&#45;&gt;ast.Call object at 0x74f96437c710 -->
<g id="edge16" class="edge">
<title>ast.Assign object at 0x74f96437c490&#45;&gt;ast.Call object at 0x74f96437c710</title>
<path fill="none" stroke="black" d="M1663.78,-431.95C1674.7,-422.61 1686.76,-410.09 1693.5,-396 1726.18,-327.68 1724.55,-235.52 1721.23,-190.31"/>
<polygon fill="black" stroke="black" points="1724.7,-189.81 1720.39,-180.13 1717.72,-190.38 1724.7,-189.81"/>
</g>
<!-- ast.Name object at 0x74f96437c750&#45;&gt;ast.Store object at 0x74f9c33c9890 -->
<g id="edge15" class="edge">
<title>ast.Name object at 0x74f96437c750&#45;&gt;ast.Store object at 0x74f9c33c9890</title>
<path fill="none" stroke="black" d="M1613.48,-363.95C1610.47,-362.58 1607.43,-361.24 1604.5,-360 1569.49,-345.18 1528.78,-330.11 1500.13,-319.84"/>
<polygon fill="black" stroke="black" points="1501.12,-316.48 1490.53,-316.42 1498.77,-323.07 1501.12,-316.48"/>
</g>
<!-- ast.Name object at 0x74f96437c6d0 -->
<g id="node16" class="node">
<title>ast.Name object at 0x74f96437c6d0</title>
<path fill="#66cdaa" stroke="black" d="M1661.5,-108C1661.5,-108 1631.5,-108 1631.5,-108 1625.5,-108 1619.5,-102 1619.5,-96 1619.5,-96 1619.5,-84 1619.5,-84 1619.5,-78 1625.5,-72 1631.5,-72 1631.5,-72 1661.5,-72 1661.5,-72 1667.5,-72 1673.5,-78 1673.5,-84 1673.5,-84 1673.5,-96 1673.5,-96 1673.5,-102 1667.5,-108 1661.5,-108"/>
<text text-anchor="middle" x="1646.5" y="-86.3" font-family="Times,serif" font-size="14.00">Name</text>
</g>
<!-- ast.Call object at 0x74f96437c710&#45;&gt;ast.Name object at 0x74f96437c6d0 -->
<g id="edge17" class="edge">
<title>ast.Call object at 0x74f96437c710&#45;&gt;ast.Name object at 0x74f96437c6d0</title>
<path fill="none" stroke="black" d="M1700.7,-143.7C1691.9,-135.14 1681.12,-124.66 1671.5,-115.3"/>
<polygon fill="black" stroke="black" points="1673.7,-112.57 1664.09,-108.1 1668.82,-117.58 1673.7,-112.57"/>
</g>
<!-- ast.Name object at 0x74f96437ce50 -->
<g id="node17" class="node">
<title>ast.Name object at 0x74f96437ce50</title>
<path fill="#66cdaa" stroke="black" d="M1733.5,-108C1733.5,-108 1703.5,-108 1703.5,-108 1697.5,-108 1691.5,-102 1691.5,-96 1691.5,-96 1691.5,-84 1691.5,-84 1691.5,-78 1697.5,-72 1703.5,-72 1703.5,-72 1733.5,-72 1733.5,-72 1739.5,-72 1745.5,-78 1745.5,-84 1745.5,-84 1745.5,-96 1745.5,-96 1745.5,-102 1739.5,-108 1733.5,-108"/>
<text text-anchor="middle" x="1718.5" y="-86.3" font-family="Times,serif" font-size="14.00">Name</text>
</g>
<!-- ast.Call object at 0x74f96437c710&#45;&gt;ast.Name object at 0x74f96437ce50 -->
<g id="edge19" class="edge">
<title>ast.Call object at 0x74f96437c710&#45;&gt;ast.Name object at 0x74f96437ce50</title>
<path fill="none" stroke="black" d="M1718.5,-143.7C1718.5,-135.98 1718.5,-126.71 1718.5,-118.11"/>
<polygon fill="black" stroke="black" points="1722,-118.1 1718.5,-108.1 1715,-118.1 1722,-118.1"/>
</g>
<!-- ast.Name object at 0x74f96437c6d0&#45;&gt;ast.Load object at 0x74f9c33c9810 -->
<g id="edge18" class="edge">
<title>ast.Name object at 0x74f96437c6d0&#45;&gt;ast.Load object at 0x74f9c33c9810</title>
<path fill="none" stroke="black" d="M1619.11,-76.26C1614.64,-74.58 1610,-73.08 1605.5,-72 1481.54,-42.27 1085.52,-25.1 961.8,-20.36"/>
<polygon fill="black" stroke="black" points="961.81,-16.85 951.69,-19.97 961.55,-23.85 961.81,-16.85"/>
</g>
<!-- ast.Name object at 0x74f96437ce50&#45;&gt;ast.Load object at 0x74f9c33c9810 -->
<g id="edge20" class="edge">
<title>ast.Name object at 0x74f96437ce50&#45;&gt;ast.Load object at 0x74f9c33c9810</title>
<path fill="none" stroke="black" d="M1691.38,-74.92C1688.44,-73.78 1685.44,-72.77 1682.5,-72 1543.78,-35.77 1094.16,-22.85 961.61,-19.78"/>
<polygon fill="black" stroke="black" points="961.62,-16.28 951.55,-19.55 961.47,-23.28 961.62,-16.28"/>
</g>
<!-- ast.Name object at 0x74f96437c790 -->
<g id="node19" class="node">
<title>ast.Name object at 0x74f96437c790</title>
<path fill="#66cdaa" stroke="black" d="M1456.5,-540C1456.5,-540 1426.5,-540 1426.5,-540 1420.5,-540 1414.5,-534 1414.5,-528 1414.5,-528 1414.5,-516 1414.5,-516 1414.5,-510 1420.5,-504 1426.5,-504 1426.5,-504 1456.5,-504 1456.5,-504 1462.5,-504 1468.5,-510 1468.5,-516 1468.5,-516 1468.5,-528 1468.5,-528 1468.5,-534 1462.5,-540 1456.5,-540"/>
<text text-anchor="middle" x="1441.5" y="-518.3" font-family="Times,serif" font-size="14.00">Name</text>
</g>
<!-- ast.For object at 0x74f96437f3d0&#45;&gt;ast.Name object at 0x74f96437c790 -->
<g id="edge22" class="edge">
<title>ast.For object at 0x74f96437f3d0&#45;&gt;ast.Name object at 0x74f96437c790</title>
<path fill="none" stroke="black" d="M1300.8,-647.87C1329.15,-622.71 1382.17,-575.65 1414.41,-547.04"/>
<polygon fill="black" stroke="black" points="1416.98,-549.44 1422.13,-540.19 1412.33,-544.21 1416.98,-549.44"/>
</g>
<!-- ast.Call object at 0x74f96437fcd0 -->
<g id="node20" class="node">
<title>ast.Call object at 0x74f96437fcd0</title>
<path fill="#66cdaa" stroke="black" d="M161.5,-252C161.5,-252 131.5,-252 131.5,-252 125.5,-252 119.5,-246 119.5,-240 119.5,-240 119.5,-228 119.5,-228 119.5,-222 125.5,-216 131.5,-216 131.5,-216 161.5,-216 161.5,-216 167.5,-216 173.5,-222 173.5,-228 173.5,-228 173.5,-240 173.5,-240 173.5,-246 167.5,-252 161.5,-252"/>
<text text-anchor="middle" x="146.5" y="-230.3" font-family="Times,serif" font-size="14.00">Call</text>
</g>
<!-- ast.For object at 0x74f96437f3d0&#45;&gt;ast.Call object at 0x74f96437fcd0 -->
<g id="edge24" class="edge">
<title>ast.For object at 0x74f96437f3d0&#45;&gt;ast.Call object at 0x74f96437fcd0</title>
<path fill="none" stroke="black" d="M1254.47,-662.71C1121.87,-651.12 546.5,-596.59 546.5,-523 546.5,-523 546.5,-523 546.5,-377 546.5,-300.48 283.24,-254.66 183.87,-240.09"/>
<polygon fill="black" stroke="black" points="184.08,-236.58 173.68,-238.62 183.08,-243.51 184.08,-236.58"/>
</g>
<!-- ast.For object at 0x74f96c6dd650 -->
<g id="node27" class="node">
<title>ast.For object at 0x74f96c6dd650</title>
<path fill="#66cdaa" stroke="black" d="M1241.5,-612C1241.5,-612 1211.5,-612 1211.5,-612 1205.5,-612 1199.5,-606 1199.5,-600 1199.5,-600 1199.5,-588 1199.5,-588 1199.5,-582 1205.5,-576 1211.5,-576 1211.5,-576 1241.5,-576 1241.5,-576 1247.5,-576 1253.5,-582 1253.5,-588 1253.5,-588 1253.5,-600 1253.5,-600 1253.5,-606 1247.5,-612 1241.5,-612"/>
<text text-anchor="middle" x="1226.5" y="-590.3" font-family="Times,serif" font-size="14.00">For</text>
</g>
<!-- ast.For object at 0x74f96437f3d0&#45;&gt;ast.For object at 0x74f96c6dd650 -->
<g id="edge33" class="edge">
<title>ast.For object at 0x74f96437f3d0&#45;&gt;ast.For object at 0x74f96c6dd650</title>
<path fill="none" stroke="black" d="M1267.9,-647.7C1261.38,-639.39 1253.43,-629.28 1246.25,-620.14"/>
<polygon fill="black" stroke="black" points="1248.87,-617.81 1239.94,-612.1 1243.37,-622.13 1248.87,-617.81"/>
</g>
<!-- ast.Name object at 0x74f96437c790&#45;&gt;ast.Store object at 0x74f9c33c9890 -->
<g id="edge23" class="edge">
<title>ast.Name object at 0x74f96437c790&#45;&gt;ast.Store object at 0x74f9c33c9890</title>
<path fill="none" stroke="black" d="M1445.23,-503.89C1447.36,-493.55 1449.92,-480.07 1451.5,-468 1457.6,-421.51 1460.85,-367.04 1462.37,-334.86"/>
<polygon fill="black" stroke="black" points="1465.89,-334.6 1462.84,-324.46 1458.89,-334.29 1465.89,-334.6"/>
</g>
<!-- ast.Name object at 0x74f96437c7d0 -->
<g id="node21" class="node">
<title>ast.Name object at 0x74f96437c7d0</title>
<path fill="#66cdaa" stroke="black" d="M197.5,-180C197.5,-180 167.5,-180 167.5,-180 161.5,-180 155.5,-174 155.5,-168 155.5,-168 155.5,-156 155.5,-156 155.5,-150 161.5,-144 167.5,-144 167.5,-144 197.5,-144 197.5,-144 203.5,-144 209.5,-150 209.5,-156 209.5,-156 209.5,-168 209.5,-168 209.5,-174 203.5,-180 197.5,-180"/>
<text text-anchor="middle" x="182.5" y="-158.3" font-family="Times,serif" font-size="14.00">Name</text>
</g>
<!-- ast.Call object at 0x74f96437fcd0&#45;&gt;ast.Name object at 0x74f96437c7d0 -->
<g id="edge25" class="edge">
<title>ast.Call object at 0x74f96437fcd0&#45;&gt;ast.Name object at 0x74f96437c7d0</title>
<path fill="none" stroke="black" d="M155.4,-215.7C159.5,-207.73 164.45,-198.1 168.99,-189.26"/>
<polygon fill="black" stroke="black" points="172.24,-190.6 173.7,-180.1 166.02,-187.4 172.24,-190.6"/>
</g>
<!-- ast.Constant object at 0x74f96437f2d0 -->
<g id="node22" class="node">
<title>ast.Constant object at 0x74f96437f2d0</title>
<path fill="#66cdaa" stroke="black" d="M53,-180C53,-180 12,-180 12,-180 6,-180 0,-174 0,-168 0,-168 0,-156 0,-156 0,-150 6,-144 12,-144 12,-144 53,-144 53,-144 59,-144 65,-150 65,-156 65,-156 65,-168 65,-168 65,-174 59,-180 53,-180"/>
<text text-anchor="middle" x="32.5" y="-158.3" font-family="Times,serif" font-size="14.00">Constant</text>
</g>
<!-- ast.Call object at 0x74f96437fcd0&#45;&gt;ast.Constant object at 0x74f96437f2d0 -->
<g id="edge27" class="edge">
<title>ast.Call object at 0x74f96437fcd0&#45;&gt;ast.Constant object at 0x74f96437f2d0</title>
<path fill="none" stroke="black" d="M119.48,-216.41C104.48,-207.2 85.61,-195.61 69.28,-185.59"/>
<polygon fill="black" stroke="black" points="70.87,-182.45 60.51,-180.2 67.2,-188.42 70.87,-182.45"/>
</g>
<!-- ast.BinOp object at 0x74f96c637950 -->
<g id="node23" class="node">
<title>ast.BinOp object at 0x74f96c637950</title>
<path fill="#66cdaa" stroke="black" d="M125.5,-180C125.5,-180 95.5,-180 95.5,-180 89.5,-180 83.5,-174 83.5,-168 83.5,-168 83.5,-156 83.5,-156 83.5,-150 89.5,-144 95.5,-144 95.5,-144 125.5,-144 125.5,-144 131.5,-144 137.5,-150 137.5,-156 137.5,-156 137.5,-168 137.5,-168 137.5,-174 131.5,-180 125.5,-180"/>
<text text-anchor="middle" x="110.5" y="-158.3" font-family="Times,serif" font-size="14.00">BinOp</text>
</g>
<!-- ast.Call object at 0x74f96437fcd0&#45;&gt;ast.BinOp object at 0x74f96c637950 -->
<g id="edge28" class="edge">
<title>ast.Call object at 0x74f96437fcd0&#45;&gt;ast.BinOp object at 0x74f96c637950</title>
<path fill="none" stroke="black" d="M137.6,-215.7C133.5,-207.73 128.55,-198.1 124.01,-189.26"/>
<polygon fill="black" stroke="black" points="126.98,-187.4 119.3,-180.1 120.76,-190.6 126.98,-187.4"/>
</g>
<!-- ast.Name object at 0x74f96437c7d0&#45;&gt;ast.Load object at 0x74f9c33c9810 -->
<g id="edge26" class="edge">
<title>ast.Name object at 0x74f96437c7d0&#45;&gt;ast.Load object at 0x74f9c33c9810</title>
<path fill="none" stroke="black" d="M176.8,-143.7C171.39,-123.64 166.49,-90.92 184.5,-72 233.29,-20.75 743.59,-18.43 887.13,-18.8"/>
<polygon fill="black" stroke="black" points="887.19,-22.3 897.2,-18.84 887.21,-15.3 887.19,-22.3"/>
</g>
<!-- ast.Name object at 0x74f96c634610 -->
<g id="node24" class="node">
<title>ast.Name object at 0x74f96c634610</title>
<path fill="#66cdaa" stroke="black" d="M125.5,-108C125.5,-108 95.5,-108 95.5,-108 89.5,-108 83.5,-102 83.5,-96 83.5,-96 83.5,-84 83.5,-84 83.5,-78 89.5,-72 95.5,-72 95.5,-72 125.5,-72 125.5,-72 131.5,-72 137.5,-78 137.5,-84 137.5,-84 137.5,-96 137.5,-96 137.5,-102 131.5,-108 125.5,-108"/>
<text text-anchor="middle" x="110.5" y="-86.3" font-family="Times,serif" font-size="14.00">Name</text>
</g>
<!-- ast.BinOp object at 0x74f96c637950&#45;&gt;ast.Name object at 0x74f96c634610 -->
<g id="edge29" class="edge">
<title>ast.BinOp object at 0x74f96c637950&#45;&gt;ast.Name object at 0x74f96c634610</title>
<path fill="none" stroke="black" d="M110.5,-143.7C110.5,-135.98 110.5,-126.71 110.5,-118.11"/>
<polygon fill="black" stroke="black" points="114,-118.1 110.5,-108.1 107,-118.1 114,-118.1"/>
</g>
<!-- ast.Add object at 0x74f9c33c9d10 -->
<g id="node25" class="node">
<title>ast.Add object at 0x74f9c33c9d10</title>
<path fill="#66cdaa" stroke="black" d="M1111.5,-108C1111.5,-108 1081.5,-108 1081.5,-108 1075.5,-108 1069.5,-102 1069.5,-96 1069.5,-96 1069.5,-84 1069.5,-84 1069.5,-78 1075.5,-72 1081.5,-72 1081.5,-72 1111.5,-72 1111.5,-72 1117.5,-72 1123.5,-78 1123.5,-84 1123.5,-84 1123.5,-96 1123.5,-96 1123.5,-102 1117.5,-108 1111.5,-108"/>
<text text-anchor="middle" x="1096.5" y="-86.3" font-family="Times,serif" font-size="14.00">Add</text>
</g>
<!-- ast.BinOp object at 0x74f96c637950&#45;&gt;ast.Add object at 0x74f9c33c9d10 -->
<g id="edge31" class="edge">
<title>ast.BinOp object at 0x74f96c637950&#45;&gt;ast.Add object at 0x74f9c33c9d10</title>
<path fill="none" stroke="black" d="M137.6,-146.82C140.54,-145.7 143.55,-144.72 146.5,-144 538.08,-48.06 663.56,-202.15 1059.4,-107.6"/>
<polygon fill="black" stroke="black" points="1060.51,-110.94 1069.4,-105.18 1058.86,-104.13 1060.51,-110.94"/>
</g>
<!-- ast.Constant object at 0x74f96c6df290 -->
<g id="node26" class="node">
<title>ast.Constant object at 0x74f96c6df290</title>
<path fill="#66cdaa" stroke="black" d="M53,-108C53,-108 12,-108 12,-108 6,-108 0,-102 0,-96 0,-96 0,-84 0,-84 0,-78 6,-72 12,-72 12,-72 53,-72 53,-72 59,-72 65,-78 65,-84 65,-84 65,-96 65,-96 65,-102 59,-108 53,-108"/>
<text text-anchor="middle" x="32.5" y="-86.3" font-family="Times,serif" font-size="14.00">Constant</text>
</g>
<!-- ast.BinOp object at 0x74f96c637950&#45;&gt;ast.Constant object at 0x74f96c6df290 -->
<g id="edge32" class="edge">
<title>ast.BinOp object at 0x74f96c637950&#45;&gt;ast.Constant object at 0x74f96c6df290</title>
<path fill="none" stroke="black" d="M91.22,-143.7C81.58,-135.05 69.77,-124.45 59.27,-115.03"/>
<polygon fill="black" stroke="black" points="61.34,-112.18 51.56,-108.1 56.66,-117.39 61.34,-112.18"/>
</g>
<!-- ast.Name object at 0x74f96c634610&#45;&gt;ast.Load object at 0x74f9c33c9810 -->
<g id="edge30" class="edge">
<title>ast.Name object at 0x74f96c634610&#45;&gt;ast.Load object at 0x74f9c33c9810</title>
<path fill="none" stroke="black" d="M137.88,-76.22C142.36,-74.55 147,-73.06 151.5,-72 293.98,-38.53 752.76,-23.66 887.17,-19.96"/>
<polygon fill="black" stroke="black" points="887.46,-23.45 897.36,-19.68 887.27,-16.46 887.46,-23.45"/>
</g>
<!-- ast.Name object at 0x74f9755bdb10 -->
<g id="node28" class="node">
<title>ast.Name object at 0x74f9755bdb10</title>
<path fill="#66cdaa" stroke="black" d="M1384.5,-540C1384.5,-540 1354.5,-540 1354.5,-540 1348.5,-540 1342.5,-534 1342.5,-528 1342.5,-528 1342.5,-516 1342.5,-516 1342.5,-510 1348.5,-504 1354.5,-504 1354.5,-504 1384.5,-504 1384.5,-504 1390.5,-504 1396.5,-510 1396.5,-516 1396.5,-516 1396.5,-528 1396.5,-528 1396.5,-534 1390.5,-540 1384.5,-540"/>
<text text-anchor="middle" x="1369.5" y="-518.3" font-family="Times,serif" font-size="14.00">Name</text>
</g>
<!-- ast.For object at 0x74f96c6dd650&#45;&gt;ast.Name object at 0x74f9755bdb10 -->
<g id="edge34" class="edge">
<title>ast.For object at 0x74f96c6dd650&#45;&gt;ast.Name object at 0x74f9755bdb10</title>
<path fill="none" stroke="black" d="M1253.73,-579.67C1276.3,-568.62 1308.55,-552.83 1333.29,-540.72"/>
<polygon fill="black" stroke="black" points="1334.92,-543.82 1342.37,-536.28 1331.85,-537.53 1334.92,-543.82"/>
</g>
<!-- ast.Call object at 0x74f96c6312d0 -->
<g id="node29" class="node">
<title>ast.Call object at 0x74f96c6312d0</title>
<path fill="#66cdaa" stroke="black" d="M307.5,-180C307.5,-180 277.5,-180 277.5,-180 271.5,-180 265.5,-174 265.5,-168 265.5,-168 265.5,-156 265.5,-156 265.5,-150 271.5,-144 277.5,-144 277.5,-144 307.5,-144 307.5,-144 313.5,-144 319.5,-150 319.5,-156 319.5,-156 319.5,-168 319.5,-168 319.5,-174 313.5,-180 307.5,-180"/>
<text text-anchor="middle" x="292.5" y="-158.3" font-family="Times,serif" font-size="14.00">Call</text>
</g>
<!-- ast.For object at 0x74f96c6dd650&#45;&gt;ast.Call object at 0x74f96c6312d0 -->
<g id="edge36" class="edge">
<title>ast.For object at 0x74f96c6dd650&#45;&gt;ast.Call object at 0x74f96c6312d0</title>
<path fill="none" stroke="black" d="M1199.32,-592.9C1077.13,-591.71 584.5,-578.99 584.5,-451 584.5,-451 584.5,-451 584.5,-305 584.5,-248.96 408.37,-194.31 329.69,-172.7"/>
<polygon fill="black" stroke="black" points="330.28,-169.23 319.71,-169.99 328.44,-175.99 330.28,-169.23"/>
</g>
<!-- ast.Assign object at 0x74f9643aea90 -->
<g id="node32" class="node">
<title>ast.Assign object at 0x74f9643aea90</title>
<path fill="#66cdaa" stroke="black" d="M1312.5,-540C1312.5,-540 1282.5,-540 1282.5,-540 1276.5,-540 1270.5,-534 1270.5,-528 1270.5,-528 1270.5,-516 1270.5,-516 1270.5,-510 1276.5,-504 1282.5,-504 1282.5,-504 1312.5,-504 1312.5,-504 1318.5,-504 1324.5,-510 1324.5,-516 1324.5,-516 1324.5,-528 1324.5,-528 1324.5,-534 1318.5,-540 1312.5,-540"/>
<text text-anchor="middle" x="1297.5" y="-518.3" font-family="Times,serif" font-size="14.00">Assign</text>
</g>
<!-- ast.For object at 0x74f96c6dd650&#45;&gt;ast.Assign object at 0x74f9643aea90 -->
<g id="edge41" class="edge">
<title>ast.For object at 0x74f96c6dd650&#45;&gt;ast.Assign object at 0x74f9643aea90</title>
<path fill="none" stroke="black" d="M1244.05,-575.7C1252.73,-567.14 1263.36,-556.66 1272.85,-547.3"/>
<polygon fill="black" stroke="black" points="1275.49,-549.62 1280.15,-540.1 1270.57,-544.63 1275.49,-549.62"/>
</g>
<!-- ast.Assign object at 0x74f9643ad910 -->
<g id="node35" class="node">
<title>ast.Assign object at 0x74f9643ad910</title>
<path fill="#66cdaa" stroke="black" d="M1241.5,-468C1241.5,-468 1211.5,-468 1211.5,-468 1205.5,-468 1199.5,-462 1199.5,-456 1199.5,-456 1199.5,-444 1199.5,-444 1199.5,-438 1205.5,-432 1211.5,-432 1211.5,-432 1241.5,-432 1241.5,-432 1247.5,-432 1253.5,-438 1253.5,-444 1253.5,-444 1253.5,-456 1253.5,-456 1253.5,-462 1247.5,-468 1241.5,-468"/>
<text text-anchor="middle" x="1226.5" y="-446.3" font-family="Times,serif" font-size="14.00">Assign</text>
</g>
<!-- ast.For object at 0x74f96c6dd650&#45;&gt;ast.Assign object at 0x74f9643ad910 -->
<g id="edge45" class="edge">
<title>ast.For object at 0x74f96c6dd650&#45;&gt;ast.Assign object at 0x74f9643ad910</title>
<path fill="none" stroke="black" d="M1226.5,-575.87C1226.5,-551.67 1226.5,-507.21 1226.5,-478.39"/>
<polygon fill="black" stroke="black" points="1230,-478.19 1226.5,-468.19 1223,-478.19 1230,-478.19"/>
</g>
<!-- ast.For object at 0x74f9643af550 -->
<g id="node38" class="node">
<title>ast.For object at 0x74f9643af550</title>
<path fill="#66cdaa" stroke="black" d="M1085.5,-540C1085.5,-540 1055.5,-540 1055.5,-540 1049.5,-540 1043.5,-534 1043.5,-528 1043.5,-528 1043.5,-516 1043.5,-516 1043.5,-510 1049.5,-504 1055.5,-504 1055.5,-504 1085.5,-504 1085.5,-504 1091.5,-504 1097.5,-510 1097.5,-516 1097.5,-516 1097.5,-528 1097.5,-528 1097.5,-534 1091.5,-540 1085.5,-540"/>
<text text-anchor="middle" x="1070.5" y="-518.3" font-family="Times,serif" font-size="14.00">For</text>
</g>
<!-- ast.For object at 0x74f96c6dd650&#45;&gt;ast.For object at 0x74f9643af550 -->
<g id="edge50" class="edge">
<title>ast.For object at 0x74f96c6dd650&#45;&gt;ast.For object at 0x74f9643af550</title>
<path fill="none" stroke="black" d="M1199.33,-580.81C1173.68,-569.3 1135.05,-551.96 1106.78,-539.28"/>
<polygon fill="black" stroke="black" points="1108.18,-536.07 1097.62,-535.17 1105.31,-542.46 1108.18,-536.07"/>
</g>
<!-- ast.If object at 0x74f97db16790 -->
<g id="node65" class="node">
<title>ast.If object at 0x74f97db16790</title>
<path fill="#66cdaa" stroke="black" d="M692.5,-396C692.5,-396 662.5,-396 662.5,-396 656.5,-396 650.5,-390 650.5,-384 650.5,-384 650.5,-372 650.5,-372 650.5,-366 656.5,-360 662.5,-360 662.5,-360 692.5,-360 692.5,-360 698.5,-360 704.5,-366 704.5,-372 704.5,-372 704.5,-384 704.5,-384 704.5,-390 698.5,-396 692.5,-396"/>
<text text-anchor="middle" x="677.5" y="-374.3" font-family="Times,serif" font-size="14.00">If</text>
</g>
<!-- ast.For object at 0x74f96c6dd650&#45;&gt;ast.If object at 0x74f97db16790 -->
<g id="edge96" class="edge">
<title>ast.For object at 0x74f96c6dd650&#45;&gt;ast.If object at 0x74f97db16790</title>
<path fill="none" stroke="black" d="M1199.38,-586.91C1161.81,-578.17 1092.07,-560.79 1034.5,-540 914.06,-496.51 777.62,-429.88 713.9,-397.68"/>
<polygon fill="black" stroke="black" points="715.17,-394.41 704.67,-393.01 712.01,-400.65 715.17,-394.41"/>
</g>
<!-- ast.Name object at 0x74f9755bdb10&#45;&gt;ast.Store object at 0x74f9c33c9890 -->
<g id="edge35" class="edge">
<title>ast.Name object at 0x74f9755bdb10&#45;&gt;ast.Store object at 0x74f9c33c9890</title>
<path fill="none" stroke="black" d="M1388.66,-503.99C1398.53,-494.31 1410.02,-481.46 1417.5,-468 1441.58,-424.66 1453.99,-367.61 1459.59,-334.36"/>
<polygon fill="black" stroke="black" points="1463.06,-334.87 1461.18,-324.44 1456.14,-333.76 1463.06,-334.87"/>
</g>
<!-- ast.Name object at 0x74f9643adfd0 -->
<g id="node30" class="node">
<title>ast.Name object at 0x74f9643adfd0</title>
<path fill="#66cdaa" stroke="black" d="M235.5,-108C235.5,-108 205.5,-108 205.5,-108 199.5,-108 193.5,-102 193.5,-96 193.5,-96 193.5,-84 193.5,-84 193.5,-78 199.5,-72 205.5,-72 205.5,-72 235.5,-72 235.5,-72 241.5,-72 247.5,-78 247.5,-84 247.5,-84 247.5,-96 247.5,-96 247.5,-102 241.5,-108 235.5,-108"/>
<text text-anchor="middle" x="220.5" y="-86.3" font-family="Times,serif" font-size="14.00">Name</text>
</g>
<!-- ast.Call object at 0x74f96c6312d0&#45;&gt;ast.Name object at 0x74f9643adfd0 -->
<g id="edge37" class="edge">
<title>ast.Call object at 0x74f96c6312d0&#45;&gt;ast.Name object at 0x74f9643adfd0</title>
<path fill="none" stroke="black" d="M274.7,-143.7C265.9,-135.14 255.12,-124.66 245.5,-115.3"/>
<polygon fill="black" stroke="black" points="247.7,-112.57 238.09,-108.1 242.82,-117.58 247.7,-112.57"/>
</g>
<!-- ast.Name object at 0x74f9643afcd0 -->
<g id="node31" class="node">
<title>ast.Name object at 0x74f9643afcd0</title>
<path fill="#66cdaa" stroke="black" d="M307.5,-108C307.5,-108 277.5,-108 277.5,-108 271.5,-108 265.5,-102 265.5,-96 265.5,-96 265.5,-84 265.5,-84 265.5,-78 271.5,-72 277.5,-72 277.5,-72 307.5,-72 307.5,-72 313.5,-72 319.5,-78 319.5,-84 319.5,-84 319.5,-96 319.5,-96 319.5,-102 313.5,-108 307.5,-108"/>
<text text-anchor="middle" x="292.5" y="-86.3" font-family="Times,serif" font-size="14.00">Name</text>
</g>
<!-- ast.Call object at 0x74f96c6312d0&#45;&gt;ast.Name object at 0x74f9643afcd0 -->
<g id="edge39" class="edge">
<title>ast.Call object at 0x74f96c6312d0&#45;&gt;ast.Name object at 0x74f9643afcd0</title>
<path fill="none" stroke="black" d="M292.5,-143.7C292.5,-135.98 292.5,-126.71 292.5,-118.11"/>
<polygon fill="black" stroke="black" points="296,-118.1 292.5,-108.1 289,-118.1 296,-118.1"/>
</g>
<!-- ast.Name object at 0x74f9643adfd0&#45;&gt;ast.Load object at 0x74f9c33c9810 -->
<g id="edge38" class="edge">
<title>ast.Name object at 0x74f9643adfd0&#45;&gt;ast.Load object at 0x74f9c33c9810</title>
<path fill="none" stroke="black" d="M247.63,-74.94C250.57,-73.8 253.56,-72.78 256.5,-72 377.09,-39.9 764.66,-24.38 887.08,-20.19"/>
<polygon fill="black" stroke="black" points="887.54,-23.68 897.42,-19.85 887.31,-16.69 887.54,-23.68"/>
</g>
<!-- ast.Name object at 0x74f9643afcd0&#45;&gt;ast.Load object at 0x74f9c33c9810 -->
<g id="edge40" class="edge">
<title>ast.Name object at 0x74f9643afcd0&#45;&gt;ast.Load object at 0x74f9c33c9810</title>
<path fill="none" stroke="black" d="M319.64,-74.97C322.58,-73.82 325.56,-72.8 328.5,-72 434.73,-43.18 773.49,-25.76 887.01,-20.61"/>
<polygon fill="black" stroke="black" points="887.45,-24.09 897.28,-20.15 887.13,-17.1 887.45,-24.09"/>
</g>
<!-- ast.Name object at 0x74f9643adcd0 -->
<g id="node33" class="node">
<title>ast.Name object at 0x74f9643adcd0</title>
<path fill="#66cdaa" stroke="black" d="M1313.5,-468C1313.5,-468 1283.5,-468 1283.5,-468 1277.5,-468 1271.5,-462 1271.5,-456 1271.5,-456 1271.5,-444 1271.5,-444 1271.5,-438 1277.5,-432 1283.5,-432 1283.5,-432 1313.5,-432 1313.5,-432 1319.5,-432 1325.5,-438 1325.5,-444 1325.5,-444 1325.5,-456 1325.5,-456 1325.5,-462 1319.5,-468 1313.5,-468"/>
<text text-anchor="middle" x="1298.5" y="-446.3" font-family="Times,serif" font-size="14.00">Name</text>
</g>
<!-- ast.Assign object at 0x74f9643aea90&#45;&gt;ast.Name object at 0x74f9643adcd0 -->
<g id="edge42" class="edge">
<title>ast.Assign object at 0x74f9643aea90&#45;&gt;ast.Name object at 0x74f9643adcd0</title>
<path fill="none" stroke="black" d="M1297.75,-503.7C1297.86,-495.98 1297.99,-486.71 1298.11,-478.11"/>
<polygon fill="black" stroke="black" points="1301.61,-478.15 1298.26,-468.1 1294.61,-478.05 1301.61,-478.15"/>
</g>
<!-- ast.Constant object at 0x74f9643afd90 -->
<g id="node34" class="node">
<title>ast.Constant object at 0x74f9643afd90</title>
<path fill="#66cdaa" stroke="black" d="M1397,-468C1397,-468 1356,-468 1356,-468 1350,-468 1344,-462 1344,-456 1344,-456 1344,-444 1344,-444 1344,-438 1350,-432 1356,-432 1356,-432 1397,-432 1397,-432 1403,-432 1409,-438 1409,-444 1409,-444 1409,-456 1409,-456 1409,-462 1403,-468 1397,-468"/>
<text text-anchor="middle" x="1376.5" y="-446.3" font-family="Times,serif" font-size="14.00">Constant</text>
</g>
<!-- ast.Assign object at 0x74f9643aea90&#45;&gt;ast.Constant object at 0x74f9643afd90 -->
<g id="edge44" class="edge">
<title>ast.Assign object at 0x74f9643aea90&#45;&gt;ast.Constant object at 0x74f9643afd90</title>
<path fill="none" stroke="black" d="M1317.03,-503.7C1326.88,-494.97 1338.99,-484.24 1349.7,-474.75"/>
<polygon fill="black" stroke="black" points="1352.03,-477.36 1357.2,-468.1 1347.39,-472.12 1352.03,-477.36"/>
</g>
<!-- ast.Name object at 0x74f9643adcd0&#45;&gt;ast.Store object at 0x74f9c33c9890 -->
<g id="edge43" class="edge">
<title>ast.Name object at 0x74f9643adcd0&#45;&gt;ast.Store object at 0x74f9c33c9890</title>
<path fill="none" stroke="black" d="M1325.5,-433.85C1342.08,-424.01 1363.34,-410.36 1380.5,-396 1403.78,-376.51 1427.09,-350.85 1443.05,-332.09"/>
<polygon fill="black" stroke="black" points="1445.87,-334.17 1449.63,-324.26 1440.51,-329.66 1445.87,-334.17"/>
</g>
<!-- ast.Name object at 0x74f9643ae810 -->
<g id="node36" class="node">
<title>ast.Name object at 0x74f9643ae810</title>
<path fill="#66cdaa" stroke="black" d="M1359.5,-396C1359.5,-396 1329.5,-396 1329.5,-396 1323.5,-396 1317.5,-390 1317.5,-384 1317.5,-384 1317.5,-372 1317.5,-372 1317.5,-366 1323.5,-360 1329.5,-360 1329.5,-360 1359.5,-360 1359.5,-360 1365.5,-360 1371.5,-366 1371.5,-372 1371.5,-372 1371.5,-384 1371.5,-384 1371.5,-390 1365.5,-396 1359.5,-396"/>
<text text-anchor="middle" x="1344.5" y="-374.3" font-family="Times,serif" font-size="14.00">Name</text>
</g>
<!-- ast.Assign object at 0x74f9643ad910&#45;&gt;ast.Name object at 0x74f9643ae810 -->
<g id="edge46" class="edge">
<title>ast.Assign object at 0x74f9643ad910&#45;&gt;ast.Name object at 0x74f9643ae810</title>
<path fill="none" stroke="black" d="M1253.57,-432.94C1269.8,-423.32 1290.63,-410.96 1308.26,-400.5"/>
<polygon fill="black" stroke="black" points="1310.33,-403.34 1317.15,-395.23 1306.76,-397.32 1310.33,-403.34"/>
</g>
<!-- ast.List object at 0x74f9643ae750 -->
<g id="node37" class="node">
<title>ast.List object at 0x74f9643ae750</title>
<path fill="#66cdaa" stroke="black" d="M1406.5,-324C1406.5,-324 1376.5,-324 1376.5,-324 1370.5,-324 1364.5,-318 1364.5,-312 1364.5,-312 1364.5,-300 1364.5,-300 1364.5,-294 1370.5,-288 1376.5,-288 1376.5,-288 1406.5,-288 1406.5,-288 1412.5,-288 1418.5,-294 1418.5,-300 1418.5,-300 1418.5,-312 1418.5,-312 1418.5,-318 1412.5,-324 1406.5,-324"/>
<text text-anchor="middle" x="1391.5" y="-302.3" font-family="Times,serif" font-size="14.00">List</text>
</g>
<!-- ast.Assign object at 0x74f9643ad910&#45;&gt;ast.List object at 0x74f9643ae750 -->
<g id="edge48" class="edge">
<title>ast.Assign object at 0x74f9643ad910&#45;&gt;ast.List object at 0x74f9643ae750</title>
<path fill="none" stroke="black" d="M1240.14,-431.7C1255.54,-412.8 1281.93,-382.26 1308.5,-360 1322.96,-347.89 1340.38,-336.37 1355.51,-327.18"/>
<polygon fill="black" stroke="black" points="1357.32,-330.18 1364.12,-322.06 1353.74,-324.17 1357.32,-330.18"/>
</g>
<!-- ast.Name object at 0x74f9643ae810&#45;&gt;ast.Store object at 0x74f9c33c9890 -->
<g id="edge47" class="edge">
<title>ast.Name object at 0x74f9643ae810&#45;&gt;ast.Store object at 0x74f9c33c9890</title>
<path fill="none" stroke="black" d="M1371.5,-361.12C1387.97,-351.43 1409.23,-338.92 1427.16,-328.38"/>
<polygon fill="black" stroke="black" points="1429.35,-331.15 1436.19,-323.06 1425.8,-325.12 1429.35,-331.15"/>
</g>
<!-- ast.List object at 0x74f9643ae750&#45;&gt;ast.Load object at 0x74f9c33c9810 -->
<g id="edge49" class="edge">
<title>ast.List object at 0x74f9643ae750&#45;&gt;ast.Load object at 0x74f9c33c9810</title>
<path fill="none" stroke="black" d="M1418.87,-291.67C1421.76,-290.38 1424.68,-289.14 1427.5,-288 1474.04,-269.26 1505.22,-292.75 1534.5,-252 1581.45,-186.67 1574.86,-126.29 1515.5,-72 1474.6,-34.59 1084.74,-22.62 961.59,-19.76"/>
<polygon fill="black" stroke="black" points="961.59,-16.26 951.51,-19.53 961.43,-23.26 961.59,-16.26"/>
</g>
<!-- ast.Name object at 0x74f9643af110 -->
<g id="node39" class="node">
<title>ast.Name object at 0x74f9643af110</title>
<path fill="#66cdaa" stroke="black" d="M1169.5,-468C1169.5,-468 1139.5,-468 1139.5,-468 1133.5,-468 1127.5,-462 1127.5,-456 1127.5,-456 1127.5,-444 1127.5,-444 1127.5,-438 1133.5,-432 1139.5,-432 1139.5,-432 1169.5,-432 1169.5,-432 1175.5,-432 1181.5,-438 1181.5,-444 1181.5,-444 1181.5,-456 1181.5,-456 1181.5,-462 1175.5,-468 1169.5,-468"/>
<text text-anchor="middle" x="1154.5" y="-446.3" font-family="Times,serif" font-size="14.00">Name</text>
</g>
<!-- ast.For object at 0x74f9643af550&#45;&gt;ast.Name object at 0x74f9643af110 -->
<g id="edge51" class="edge">
<title>ast.For object at 0x74f9643af550&#45;&gt;ast.Name object at 0x74f9643af110</title>
<path fill="none" stroke="black" d="M1091.26,-503.7C1101.74,-494.97 1114.61,-484.24 1126,-474.75"/>
<polygon fill="black" stroke="black" points="1128.53,-477.19 1133.97,-468.1 1124.05,-471.82 1128.53,-477.19"/>
</g>
<!-- ast.Call object at 0x74f9643af810 -->
<g id="node40" class="node">
<title>ast.Call object at 0x74f9643af810</title>
<path fill="#66cdaa" stroke="black" d="M1183.5,-180C1183.5,-180 1153.5,-180 1153.5,-180 1147.5,-180 1141.5,-174 1141.5,-168 1141.5,-168 1141.5,-156 1141.5,-156 1141.5,-150 1147.5,-144 1153.5,-144 1153.5,-144 1183.5,-144 1183.5,-144 1189.5,-144 1195.5,-150 1195.5,-156 1195.5,-156 1195.5,-168 1195.5,-168 1195.5,-174 1189.5,-180 1183.5,-180"/>
<text text-anchor="middle" x="1168.5" y="-158.3" font-family="Times,serif" font-size="14.00">Call</text>
</g>
<!-- ast.For object at 0x74f9643af550&#45;&gt;ast.Call object at 0x74f9643af810 -->
<g id="edge53" class="edge">
<title>ast.For object at 0x74f9643af550&#45;&gt;ast.Call object at 0x74f9643af810</title>
<path fill="none" stroke="black" d="M1050.49,-503.72C1040.63,-494.15 1029.4,-481.48 1022.5,-468 1004.07,-432 1003.5,-419.45 1003.5,-379 1003.5,-379 1003.5,-379 1003.5,-305 1003.5,-271.2 1084.05,-215.31 1132.59,-184.7"/>
<polygon fill="black" stroke="black" points="1134.63,-187.55 1141.25,-179.29 1130.92,-181.62 1134.63,-187.55"/>
</g>
<!-- ast.AugAssign object at 0x74f9643ade90 -->
<g id="node43" class="node">
<title>ast.AugAssign object at 0x74f9643ade90</title>
<path fill="#66cdaa" stroke="black" d="M1097,-468C1097,-468 1044,-468 1044,-468 1038,-468 1032,-462 1032,-456 1032,-456 1032,-444 1032,-444 1032,-438 1038,-432 1044,-432 1044,-432 1097,-432 1097,-432 1103,-432 1109,-438 1109,-444 1109,-444 1109,-456 1109,-456 1109,-462 1103,-468 1097,-468"/>
<text text-anchor="middle" x="1070.5" y="-446.3" font-family="Times,serif" font-size="14.00">AugAssign</text>
</g>
<!-- ast.For object at 0x74f9643af550&#45;&gt;ast.AugAssign object at 0x74f9643ade90 -->
<g id="edge58" class="edge">
<title>ast.For object at 0x74f9643af550&#45;&gt;ast.AugAssign object at 0x74f9643ade90</title>
<path fill="none" stroke="black" d="M1070.5,-503.7C1070.5,-495.98 1070.5,-486.71 1070.5,-478.11"/>
<polygon fill="black" stroke="black" points="1074,-478.1 1070.5,-468.1 1067,-478.1 1074,-478.1"/>
</g>
<!-- ast.Expr object at 0x74f96c7cc4d0 -->
<g id="node54" class="node">
<title>ast.Expr object at 0x74f96c7cc4d0</title>
<path fill="#66cdaa" stroke="black" d="M927.5,-468C927.5,-468 897.5,-468 897.5,-468 891.5,-468 885.5,-462 885.5,-456 885.5,-456 885.5,-444 885.5,-444 885.5,-438 891.5,-432 897.5,-432 897.5,-432 927.5,-432 927.5,-432 933.5,-432 939.5,-438 939.5,-444 939.5,-444 939.5,-456 939.5,-456 939.5,-462 933.5,-468 927.5,-468"/>
<text text-anchor="middle" x="912.5" y="-446.3" font-family="Times,serif" font-size="14.00">Expr</text>
</g>
<!-- ast.For object at 0x74f9643af550&#45;&gt;ast.Expr object at 0x74f96c7cc4d0 -->
<g id="edge76" class="edge">
<title>ast.For object at 0x74f9643af550&#45;&gt;ast.Expr object at 0x74f96c7cc4d0</title>
<path fill="none" stroke="black" d="M1043.34,-508.97C1017.26,-497.41 977.68,-479.88 948.89,-467.12"/>
<polygon fill="black" stroke="black" points="950.13,-463.84 939.57,-462.99 947.3,-470.24 950.13,-463.84"/>
</g>
<!-- ast.Name object at 0x74f9643af110&#45;&gt;ast.Store object at 0x74f9c33c9890 -->
<g id="edge52" class="edge">
<title>ast.Name object at 0x74f9643af110&#45;&gt;ast.Store object at 0x74f9c33c9890</title>
<path fill="none" stroke="black" d="M1179.71,-431.99C1209.45,-412.51 1260.9,-380.63 1308.5,-360 1356.43,-339.23 1374,-343.3 1426.66,-324.01"/>
<polygon fill="black" stroke="black" points="1428.05,-327.23 1436.16,-320.42 1425.57,-320.68 1428.05,-327.23"/>
</g>
<!-- ast.Name object at 0x74f9643adf50 -->
<g id="node41" class="node">
<title>ast.Name object at 0x74f9643adf50</title>
<path fill="#66cdaa" stroke="black" d="M1255.5,-108C1255.5,-108 1225.5,-108 1225.5,-108 1219.5,-108 1213.5,-102 1213.5,-96 1213.5,-96 1213.5,-84 1213.5,-84 1213.5,-78 1219.5,-72 1225.5,-72 1225.5,-72 1255.5,-72 1255.5,-72 1261.5,-72 1267.5,-78 1267.5,-84 1267.5,-84 1267.5,-96 1267.5,-96 1267.5,-102 1261.5,-108 1255.5,-108"/>
<text text-anchor="middle" x="1240.5" y="-86.3" font-family="Times,serif" font-size="14.00">Name</text>
</g>
<!-- ast.Call object at 0x74f9643af810&#45;&gt;ast.Name object at 0x74f9643adf50 -->
<g id="edge54" class="edge">
<title>ast.Call object at 0x74f9643af810&#45;&gt;ast.Name object at 0x74f9643adf50</title>
<path fill="none" stroke="black" d="M1186.3,-143.7C1195.1,-135.14 1205.88,-124.66 1215.5,-115.3"/>
<polygon fill="black" stroke="black" points="1218.18,-117.58 1222.91,-108.1 1213.3,-112.57 1218.18,-117.58"/>
</g>
<!-- ast.Name object at 0x74f9643adc90 -->
<g id="node42" class="node">
<title>ast.Name object at 0x74f9643adc90</title>
<path fill="#66cdaa" stroke="black" d="M1183.5,-108C1183.5,-108 1153.5,-108 1153.5,-108 1147.5,-108 1141.5,-102 1141.5,-96 1141.5,-96 1141.5,-84 1141.5,-84 1141.5,-78 1147.5,-72 1153.5,-72 1153.5,-72 1183.5,-72 1183.5,-72 1189.5,-72 1195.5,-78 1195.5,-84 1195.5,-84 1195.5,-96 1195.5,-96 1195.5,-102 1189.5,-108 1183.5,-108"/>
<text text-anchor="middle" x="1168.5" y="-86.3" font-family="Times,serif" font-size="14.00">Name</text>
</g>
<!-- ast.Call object at 0x74f9643af810&#45;&gt;ast.Name object at 0x74f9643adc90 -->
<g id="edge56" class="edge">
<title>ast.Call object at 0x74f9643af810&#45;&gt;ast.Name object at 0x74f9643adc90</title>
<path fill="none" stroke="black" d="M1168.5,-143.7C1168.5,-135.98 1168.5,-126.71 1168.5,-118.11"/>
<polygon fill="black" stroke="black" points="1172,-118.1 1168.5,-108.1 1165,-118.1 1172,-118.1"/>
</g>
<!-- ast.Name object at 0x74f9643adf50&#45;&gt;ast.Load object at 0x74f9c33c9810 -->
<g id="edge55" class="edge">
<title>ast.Name object at 0x74f9643adf50&#45;&gt;ast.Load object at 0x74f9c33c9810</title>
<path fill="none" stroke="black" d="M1213.28,-75.27C1210.35,-74.06 1207.39,-72.94 1204.5,-72 1120.02,-44.56 1016.33,-29.54 961.91,-23.02"/>
<polygon fill="black" stroke="black" points="962.05,-19.51 951.71,-21.82 961.23,-26.46 962.05,-19.51"/>
</g>
<!-- ast.Name object at 0x74f9643adc90&#45;&gt;ast.Load object at 0x74f9c33c9810 -->
<g id="edge57" class="edge">
<title>ast.Name object at 0x74f9643adc90&#45;&gt;ast.Load object at 0x74f9c33c9810</title>
<path fill="none" stroke="black" d="M1141.21,-75.45C1138.3,-74.21 1135.36,-73.03 1132.5,-72 1074.03,-50.96 1003.48,-34.85 961.4,-26.16"/>
<polygon fill="black" stroke="black" points="962.09,-22.73 951.59,-24.17 960.69,-29.59 962.09,-22.73"/>
</g>
<!-- ast.Name object at 0x74f9643afe90 -->
<g id="node44" class="node">
<title>ast.Name object at 0x74f9643afe90</title>
<path fill="#66cdaa" stroke="black" d="M1211.5,-396C1211.5,-396 1181.5,-396 1181.5,-396 1175.5,-396 1169.5,-390 1169.5,-384 1169.5,-384 1169.5,-372 1169.5,-372 1169.5,-366 1175.5,-360 1181.5,-360 1181.5,-360 1211.5,-360 1211.5,-360 1217.5,-360 1223.5,-366 1223.5,-372 1223.5,-372 1223.5,-384 1223.5,-384 1223.5,-390 1217.5,-396 1211.5,-396"/>
<text text-anchor="middle" x="1196.5" y="-374.3" font-family="Times,serif" font-size="14.00">Name</text>
</g>
<!-- ast.AugAssign object at 0x74f9643ade90&#45;&gt;ast.Name object at 0x74f9643afe90 -->
<g id="edge59" class="edge">
<title>ast.AugAssign object at 0x74f9643ade90&#45;&gt;ast.Name object at 0x74f9643afe90</title>
<path fill="none" stroke="black" d="M1101.32,-431.88C1119.23,-421.93 1141.88,-409.35 1160.59,-398.95"/>
<polygon fill="black" stroke="black" points="1162.38,-401.96 1169.42,-394.05 1158.98,-395.84 1162.38,-401.96"/>
</g>
<!-- ast.Mult object at 0x74f9c33c9e10 -->
<g id="node45" class="node">
<title>ast.Mult object at 0x74f9c33c9e10</title>
<path fill="#66cdaa" stroke="black" d="M1139.5,-396C1139.5,-396 1109.5,-396 1109.5,-396 1103.5,-396 1097.5,-390 1097.5,-384 1097.5,-384 1097.5,-372 1097.5,-372 1097.5,-366 1103.5,-360 1109.5,-360 1109.5,-360 1139.5,-360 1139.5,-360 1145.5,-360 1151.5,-366 1151.5,-372 1151.5,-372 1151.5,-384 1151.5,-384 1151.5,-390 1145.5,-396 1139.5,-396"/>
<text text-anchor="middle" x="1124.5" y="-374.3" font-family="Times,serif" font-size="14.00">Mult</text>
</g>
<!-- ast.AugAssign object at 0x74f9643ade90&#45;&gt;ast.Mult object at 0x74f9c33c9e10 -->
<g id="edge61" class="edge">
<title>ast.AugAssign object at 0x74f9643ade90&#45;&gt;ast.Mult object at 0x74f9c33c9e10</title>
<path fill="none" stroke="black" d="M1083.85,-431.7C1090.26,-423.39 1098.06,-413.28 1105.11,-404.14"/>
<polygon fill="black" stroke="black" points="1107.97,-406.16 1111.31,-396.1 1102.43,-401.88 1107.97,-406.16"/>
</g>
<!-- ast.Subscript object at 0x74f9643aec10 -->
<g id="node46" class="node">
<title>ast.Subscript object at 0x74f9643aec10</title>
<path fill="#66cdaa" stroke="black" d="M1334.5,-324C1334.5,-324 1290.5,-324 1290.5,-324 1284.5,-324 1278.5,-318 1278.5,-312 1278.5,-312 1278.5,-300 1278.5,-300 1278.5,-294 1284.5,-288 1290.5,-288 1290.5,-288 1334.5,-288 1334.5,-288 1340.5,-288 1346.5,-294 1346.5,-300 1346.5,-300 1346.5,-312 1346.5,-312 1346.5,-318 1340.5,-324 1334.5,-324"/>
<text text-anchor="middle" x="1312.5" y="-302.3" font-family="Times,serif" font-size="14.00">Subscript</text>
</g>
<!-- ast.AugAssign object at 0x74f9643ade90&#45;&gt;ast.Subscript object at 0x74f9643aec10 -->
<g id="edge62" class="edge">
<title>ast.AugAssign object at 0x74f9643ade90&#45;&gt;ast.Subscript object at 0x74f9643aec10</title>
<path fill="none" stroke="black" d="M1068.9,-431.78C1068.06,-411.8 1069.97,-379.14 1088.5,-360 1113.01,-334.67 1210.11,-319.08 1268.12,-311.84"/>
<polygon fill="black" stroke="black" points="1268.61,-315.3 1278.12,-310.62 1267.77,-308.36 1268.61,-315.3"/>
</g>
<!-- ast.Name object at 0x74f9643afe90&#45;&gt;ast.Store object at 0x74f9c33c9890 -->
<g id="edge60" class="edge">
<title>ast.Name object at 0x74f9643afe90&#45;&gt;ast.Store object at 0x74f9c33c9890</title>
<path fill="none" stroke="black" d="M1223.74,-371.1C1275.6,-359.81 1386.36,-335.48 1426.66,-323.66"/>
<polygon fill="black" stroke="black" points="1427.77,-326.98 1436.24,-320.62 1425.65,-320.31 1427.77,-326.98"/>
</g>
<!-- ast.Subscript object at 0x74f9643aec10&#45;&gt;ast.Load object at 0x74f9c33c9810 -->
<g id="edge75" class="edge">
<title>ast.Subscript object at 0x74f9643aec10&#45;&gt;ast.Load object at 0x74f9c33c9810</title>
<path fill="none" stroke="black" d="M1334.88,-287.78C1385.73,-246.69 1500.88,-141.14 1438.5,-72 1406.63,-36.67 1074.57,-23.5 961.76,-20.02"/>
<polygon fill="black" stroke="black" points="961.65,-16.52 951.55,-19.72 961.44,-23.51 961.65,-16.52"/>
</g>
<!-- ast.Name object at 0x74f9643afa90 -->
<g id="node47" class="node">
<title>ast.Name object at 0x74f9643afa90</title>
<path fill="#66cdaa" stroke="black" d="M1513.5,-252C1513.5,-252 1483.5,-252 1483.5,-252 1477.5,-252 1471.5,-246 1471.5,-240 1471.5,-240 1471.5,-228 1471.5,-228 1471.5,-222 1477.5,-216 1483.5,-216 1483.5,-216 1513.5,-216 1513.5,-216 1519.5,-216 1525.5,-222 1525.5,-228 1525.5,-228 1525.5,-240 1525.5,-240 1525.5,-246 1519.5,-252 1513.5,-252"/>
<text text-anchor="middle" x="1498.5" y="-230.3" font-family="Times,serif" font-size="14.00">Name</text>
</g>
<!-- ast.Subscript object at 0x74f9643aec10&#45;&gt;ast.Name object at 0x74f9643afa90 -->
<g id="edge63" class="edge">
<title>ast.Subscript object at 0x74f9643aec10&#45;&gt;ast.Name object at 0x74f9643afa90</title>
<path fill="none" stroke="black" d="M1346.72,-291.34C1349.69,-290.19 1352.64,-289.07 1355.5,-288 1400.53,-271.16 1412.61,-269.21 1457.5,-252 1458.89,-251.47 1460.31,-250.91 1461.74,-250.35"/>
<polygon fill="black" stroke="black" points="1463.26,-253.52 1471.23,-246.54 1460.65,-247.02 1463.26,-253.52"/>
</g>
<!-- ast.BinOp object at 0x74f9643ad8d0 -->
<g id="node48" class="node">
<title>ast.BinOp object at 0x74f9643ad8d0</title>
<path fill="#66cdaa" stroke="black" d="M1327.5,-252C1327.5,-252 1297.5,-252 1297.5,-252 1291.5,-252 1285.5,-246 1285.5,-240 1285.5,-240 1285.5,-228 1285.5,-228 1285.5,-222 1291.5,-216 1297.5,-216 1297.5,-216 1327.5,-216 1327.5,-216 1333.5,-216 1339.5,-222 1339.5,-228 1339.5,-228 1339.5,-240 1339.5,-240 1339.5,-246 1333.5,-252 1327.5,-252"/>
<text text-anchor="middle" x="1312.5" y="-230.3" font-family="Times,serif" font-size="14.00">BinOp</text>
</g>
<!-- ast.Subscript object at 0x74f9643aec10&#45;&gt;ast.BinOp object at 0x74f9643ad8d0 -->
<g id="edge65" class="edge">
<title>ast.Subscript object at 0x74f9643aec10&#45;&gt;ast.BinOp object at 0x74f9643ad8d0</title>
<path fill="none" stroke="black" d="M1312.5,-287.7C1312.5,-279.98 1312.5,-270.71 1312.5,-262.11"/>
<polygon fill="black" stroke="black" points="1316,-262.1 1312.5,-252.1 1309,-262.1 1316,-262.1"/>
</g>
<!-- ast.Name object at 0x74f9643afa90&#45;&gt;ast.Load object at 0x74f9c33c9810 -->
<g id="edge64" class="edge">
<title>ast.Name object at 0x74f9643afa90&#45;&gt;ast.Load object at 0x74f9c33c9810</title>
<path fill="none" stroke="black" d="M1504.12,-215.91C1513.72,-183.13 1528.82,-111.22 1491.5,-72 1454.99,-33.63 1082.34,-22.36 961.85,-19.71"/>
<polygon fill="black" stroke="black" points="961.72,-16.2 951.65,-19.49 961.57,-23.2 961.72,-16.2"/>
</g>
<!-- ast.BinOp object at 0x74f97deb3590 -->
<g id="node49" class="node">
<title>ast.BinOp object at 0x74f97deb3590</title>
<path fill="#66cdaa" stroke="black" d="M1327.5,-180C1327.5,-180 1297.5,-180 1297.5,-180 1291.5,-180 1285.5,-174 1285.5,-168 1285.5,-168 1285.5,-156 1285.5,-156 1285.5,-150 1291.5,-144 1297.5,-144 1297.5,-144 1327.5,-144 1327.5,-144 1333.5,-144 1339.5,-150 1339.5,-156 1339.5,-156 1339.5,-168 1339.5,-168 1339.5,-174 1333.5,-180 1327.5,-180"/>
<text text-anchor="middle" x="1312.5" y="-158.3" font-family="Times,serif" font-size="14.00">BinOp</text>
</g>
<!-- ast.BinOp object at 0x74f9643ad8d0&#45;&gt;ast.BinOp object at 0x74f97deb3590 -->
<g id="edge66" class="edge">
<title>ast.BinOp object at 0x74f9643ad8d0&#45;&gt;ast.BinOp object at 0x74f97deb3590</title>
<path fill="none" stroke="black" d="M1312.5,-215.7C1312.5,-207.98 1312.5,-198.71 1312.5,-190.11"/>
<polygon fill="black" stroke="black" points="1316,-190.1 1312.5,-180.1 1309,-190.1 1316,-190.1"/>
</g>
<!-- ast.Mod object at 0x74f9c33c9f90 -->
<g id="node52" class="node">
<title>ast.Mod object at 0x74f9c33c9f90</title>
<path fill="#66cdaa" stroke="black" d="M1101.5,-180C1101.5,-180 1071.5,-180 1071.5,-180 1065.5,-180 1059.5,-174 1059.5,-168 1059.5,-168 1059.5,-156 1059.5,-156 1059.5,-150 1065.5,-144 1071.5,-144 1071.5,-144 1101.5,-144 1101.5,-144 1107.5,-144 1113.5,-150 1113.5,-156 1113.5,-156 1113.5,-168 1113.5,-168 1113.5,-174 1107.5,-180 1101.5,-180"/>
<text text-anchor="middle" x="1086.5" y="-158.3" font-family="Times,serif" font-size="14.00">Mod</text>
</g>
<!-- ast.BinOp object at 0x74f9643ad8d0&#45;&gt;ast.Mod object at 0x74f9c33c9f90 -->
<g id="edge72" class="edge">
<title>ast.BinOp object at 0x74f9643ad8d0&#45;&gt;ast.Mod object at 0x74f9c33c9f90</title>
<path fill="none" stroke="black" d="M1285.49,-225.66C1250.12,-215.91 1186.3,-197.84 1132.5,-180 1129.43,-178.98 1126.26,-177.89 1123.08,-176.77"/>
<polygon fill="black" stroke="black" points="1124.23,-173.47 1113.64,-173.37 1121.86,-180.05 1124.23,-173.47"/>
</g>
<!-- ast.Name object at 0x74f96c7cef50 -->
<g id="node53" class="node">
<title>ast.Name object at 0x74f96c7cef50</title>
<path fill="#66cdaa" stroke="black" d="M1409.5,-180C1409.5,-180 1379.5,-180 1379.5,-180 1373.5,-180 1367.5,-174 1367.5,-168 1367.5,-168 1367.5,-156 1367.5,-156 1367.5,-150 1373.5,-144 1379.5,-144 1379.5,-144 1409.5,-144 1409.5,-144 1415.5,-144 1421.5,-150 1421.5,-156 1421.5,-156 1421.5,-168 1421.5,-168 1421.5,-174 1415.5,-180 1409.5,-180"/>
<text text-anchor="middle" x="1394.5" y="-158.3" font-family="Times,serif" font-size="14.00">Name</text>
</g>
<!-- ast.BinOp object at 0x74f9643ad8d0&#45;&gt;ast.Name object at 0x74f96c7cef50 -->
<g id="edge73" class="edge">
<title>ast.BinOp object at 0x74f9643ad8d0&#45;&gt;ast.Name object at 0x74f96c7cef50</title>
<path fill="none" stroke="black" d="M1332.77,-215.7C1343,-206.97 1355.56,-196.24 1366.68,-186.75"/>
<polygon fill="black" stroke="black" points="1369.13,-189.26 1374.46,-180.1 1364.59,-183.94 1369.13,-189.26"/>
</g>
<!-- ast.BinOp object at 0x74f97deb3590&#45;&gt;ast.Add object at 0x74f9c33c9d10 -->
<g id="edge69" class="edge">
<title>ast.BinOp object at 0x74f97deb3590&#45;&gt;ast.Add object at 0x74f9c33c9d10</title>
<path fill="none" stroke="black" d="M1285.23,-154.38C1251.4,-145.86 1191.91,-129.9 1133.23,-108"/>
<polygon fill="black" stroke="black" points="1134.42,-104.71 1123.83,-104.44 1131.94,-111.26 1134.42,-104.71"/>
</g>
<!-- ast.Name object at 0x74f9752373d0 -->
<g id="node50" class="node">
<title>ast.Name object at 0x74f9752373d0</title>
<path fill="#66cdaa" stroke="black" d="M1327.5,-108C1327.5,-108 1297.5,-108 1297.5,-108 1291.5,-108 1285.5,-102 1285.5,-96 1285.5,-96 1285.5,-84 1285.5,-84 1285.5,-78 1291.5,-72 1297.5,-72 1297.5,-72 1327.5,-72 1327.5,-72 1333.5,-72 1339.5,-78 1339.5,-84 1339.5,-84 1339.5,-96 1339.5,-96 1339.5,-102 1333.5,-108 1327.5,-108"/>
<text text-anchor="middle" x="1312.5" y="-86.3" font-family="Times,serif" font-size="14.00">Name</text>
</g>
<!-- ast.BinOp object at 0x74f97deb3590&#45;&gt;ast.Name object at 0x74f9752373d0 -->
<g id="edge67" class="edge">
<title>ast.BinOp object at 0x74f97deb3590&#45;&gt;ast.Name object at 0x74f9752373d0</title>
<path fill="none" stroke="black" d="M1312.5,-143.7C1312.5,-135.98 1312.5,-126.71 1312.5,-118.11"/>
<polygon fill="black" stroke="black" points="1316,-118.1 1312.5,-108.1 1309,-118.1 1316,-118.1"/>
</g>
<!-- ast.Name object at 0x74f96c7ce750 -->
<g id="node51" class="node">
<title>ast.Name object at 0x74f96c7ce750</title>
<path fill="#66cdaa" stroke="black" d="M1399.5,-108C1399.5,-108 1369.5,-108 1369.5,-108 1363.5,-108 1357.5,-102 1357.5,-96 1357.5,-96 1357.5,-84 1357.5,-84 1357.5,-78 1363.5,-72 1369.5,-72 1369.5,-72 1399.5,-72 1399.5,-72 1405.5,-72 1411.5,-78 1411.5,-84 1411.5,-84 1411.5,-96 1411.5,-96 1411.5,-102 1405.5,-108 1399.5,-108"/>
<text text-anchor="middle" x="1384.5" y="-86.3" font-family="Times,serif" font-size="14.00">Name</text>
</g>
<!-- ast.BinOp object at 0x74f97deb3590&#45;&gt;ast.Name object at 0x74f96c7ce750 -->
<g id="edge70" class="edge">
<title>ast.BinOp object at 0x74f97deb3590&#45;&gt;ast.Name object at 0x74f96c7ce750</title>
<path fill="none" stroke="black" d="M1330.3,-143.7C1339.1,-135.14 1349.88,-124.66 1359.5,-115.3"/>
<polygon fill="black" stroke="black" points="1362.18,-117.58 1366.91,-108.1 1357.3,-112.57 1362.18,-117.58"/>
</g>
<!-- ast.Name object at 0x74f9752373d0&#45;&gt;ast.Load object at 0x74f9c33c9810 -->
<g id="edge68" class="edge">
<title>ast.Name object at 0x74f9752373d0&#45;&gt;ast.Load object at 0x74f9c33c9810</title>
<path fill="none" stroke="black" d="M1285.31,-75.15C1282.38,-73.97 1279.41,-72.89 1276.5,-72 1165.05,-38.09 1026.87,-25.38 961.76,-21.04"/>
<polygon fill="black" stroke="black" points="961.78,-17.53 951.58,-20.39 961.34,-24.52 961.78,-17.53"/>
</g>
<!-- ast.Name object at 0x74f96c7ce750&#45;&gt;ast.Load object at 0x74f9c33c9810 -->
<g id="edge71" class="edge">
<title>ast.Name object at 0x74f96c7ce750&#45;&gt;ast.Load object at 0x74f9c33c9810</title>
<path fill="none" stroke="black" d="M1357.33,-75.08C1354.4,-73.91 1351.42,-72.85 1348.5,-72 1209.99,-31.75 1037.29,-22.07 962.24,-19.74"/>
<polygon fill="black" stroke="black" points="961.98,-16.23 951.89,-19.45 961.78,-23.23 961.98,-16.23"/>
</g>
<!-- ast.Name object at 0x74f96c7cef50&#45;&gt;ast.Load object at 0x74f9c33c9810 -->
<g id="edge74" class="edge">
<title>ast.Name object at 0x74f96c7cef50&#45;&gt;ast.Load object at 0x74f9c33c9810</title>
<path fill="none" stroke="black" d="M1408.01,-143.81C1421.73,-124.16 1438.58,-92.11 1420.5,-72 1389.93,-37.99 1072.16,-24.02 961.92,-20.18"/>
<polygon fill="black" stroke="black" points="961.73,-16.67 951.61,-19.83 961.49,-23.66 961.73,-16.67"/>
</g>
<!-- ast.Call object at 0x74f96c7ccf90 -->
<g id="node55" class="node">
<title>ast.Call object at 0x74f96c7ccf90</title>
<path fill="#66cdaa" stroke="black" d="M891.5,-396C891.5,-396 861.5,-396 861.5,-396 855.5,-396 849.5,-390 849.5,-384 849.5,-384 849.5,-372 849.5,-372 849.5,-366 855.5,-360 861.5,-360 861.5,-360 891.5,-360 891.5,-360 897.5,-360 903.5,-366 903.5,-372 903.5,-372 903.5,-384 903.5,-384 903.5,-390 897.5,-396 891.5,-396"/>
<text text-anchor="middle" x="876.5" y="-374.3" font-family="Times,serif" font-size="14.00">Call</text>
</g>
<!-- ast.Expr object at 0x74f96c7cc4d0&#45;&gt;ast.Call object at 0x74f96c7ccf90 -->
<g id="edge77" class="edge">
<title>ast.Expr object at 0x74f96c7cc4d0&#45;&gt;ast.Call object at 0x74f96c7ccf90</title>
<path fill="none" stroke="black" d="M903.6,-431.7C899.5,-423.73 894.55,-414.1 890.01,-405.26"/>
<polygon fill="black" stroke="black" points="892.98,-403.4 885.3,-396.1 886.76,-406.6 892.98,-403.4"/>
</g>
<!-- ast.Attribute object at 0x74f96c649bd0 -->
<g id="node56" class="node">
<title>ast.Attribute object at 0x74f96c649bd0</title>
<path fill="#66cdaa" stroke="black" d="M781,-180C781,-180 740,-180 740,-180 734,-180 728,-174 728,-168 728,-168 728,-156 728,-156 728,-150 734,-144 740,-144 740,-144 781,-144 781,-144 787,-144 793,-150 793,-156 793,-156 793,-168 793,-168 793,-174 787,-180 781,-180"/>
<text text-anchor="middle" x="760.5" y="-158.3" font-family="Times,serif" font-size="14.00">Attribute</text>
</g>
<!-- ast.Call object at 0x74f96c7ccf90&#45;&gt;ast.Attribute object at 0x74f96c649bd0 -->
<g id="edge78" class="edge">
<title>ast.Call object at 0x74f96c7ccf90&#45;&gt;ast.Attribute object at 0x74f96c649bd0</title>
<path fill="none" stroke="black" d="M860.57,-359.7C851.89,-349.74 841.35,-336.7 833.5,-324 805.98,-279.48 782.73,-222.82 770.27,-189.96"/>
<polygon fill="black" stroke="black" points="773.39,-188.32 766.62,-180.17 766.84,-190.77 773.39,-188.32"/>
</g>
<!-- ast.Subscript object at 0x74f96c64ae10 -->
<g id="node58" class="node">
<title>ast.Subscript object at 0x74f96c64ae10</title>
<path fill="#66cdaa" stroke="black" d="M898.5,-324C898.5,-324 854.5,-324 854.5,-324 848.5,-324 842.5,-318 842.5,-312 842.5,-312 842.5,-300 842.5,-300 842.5,-294 848.5,-288 854.5,-288 854.5,-288 898.5,-288 898.5,-288 904.5,-288 910.5,-294 910.5,-300 910.5,-300 910.5,-312 910.5,-312 910.5,-318 904.5,-324 898.5,-324"/>
<text text-anchor="middle" x="876.5" y="-302.3" font-family="Times,serif" font-size="14.00">Subscript</text>
</g>
<!-- ast.Call object at 0x74f96c7ccf90&#45;&gt;ast.Subscript object at 0x74f96c64ae10 -->
<g id="edge82" class="edge">
<title>ast.Call object at 0x74f96c7ccf90&#45;&gt;ast.Subscript object at 0x74f96c64ae10</title>
<path fill="none" stroke="black" d="M876.5,-359.7C876.5,-351.98 876.5,-342.71 876.5,-334.11"/>
<polygon fill="black" stroke="black" points="880,-334.1 876.5,-324.1 873,-334.1 880,-334.1"/>
</g>
<!-- ast.Attribute object at 0x74f96c649bd0&#45;&gt;ast.Load object at 0x74f9c33c9810 -->
<g id="edge81" class="edge">
<title>ast.Attribute object at 0x74f96c649bd0&#45;&gt;ast.Load object at 0x74f9c33c9810</title>
<path fill="none" stroke="black" d="M765.77,-143.81C772.56,-124.16 786.12,-92.12 807.5,-72 830.05,-50.78 862.56,-36.98 887.59,-28.8"/>
<polygon fill="black" stroke="black" points="888.96,-32.05 897.47,-25.74 886.88,-25.36 888.96,-32.05"/>
</g>
<!-- ast.Name object at 0x74f96c648c50 -->
<g id="node57" class="node">
<title>ast.Name object at 0x74f96c648c50</title>
<path fill="#66cdaa" stroke="black" d="M743.5,-108C743.5,-108 713.5,-108 713.5,-108 707.5,-108 701.5,-102 701.5,-96 701.5,-96 701.5,-84 701.5,-84 701.5,-78 707.5,-72 713.5,-72 713.5,-72 743.5,-72 743.5,-72 749.5,-72 755.5,-78 755.5,-84 755.5,-84 755.5,-96 755.5,-96 755.5,-102 749.5,-108 743.5,-108"/>
<text text-anchor="middle" x="728.5" y="-86.3" font-family="Times,serif" font-size="14.00">Name</text>
</g>
<!-- ast.Attribute object at 0x74f96c649bd0&#45;&gt;ast.Name object at 0x74f96c648c50 -->
<g id="edge79" class="edge">
<title>ast.Attribute object at 0x74f96c649bd0&#45;&gt;ast.Name object at 0x74f96c648c50</title>
<path fill="none" stroke="black" d="M752.59,-143.7C748.95,-135.73 744.55,-126.1 740.51,-117.26"/>
<polygon fill="black" stroke="black" points="743.66,-115.74 736.32,-108.1 737.29,-118.65 743.66,-115.74"/>
</g>
<!-- ast.Name object at 0x74f96c648c50&#45;&gt;ast.Load object at 0x74f9c33c9810 -->
<g id="edge80" class="edge">
<title>ast.Name object at 0x74f96c648c50&#45;&gt;ast.Load object at 0x74f9c33c9810</title>
<path fill="none" stroke="black" d="M755.75,-77.42C760.32,-75.56 765.03,-73.69 769.5,-72 809.59,-56.85 856.19,-41.17 887.74,-30.84"/>
<polygon fill="black" stroke="black" points="889.01,-34.11 897.43,-27.68 886.84,-27.45 889.01,-34.11"/>
</g>
<!-- ast.Subscript object at 0x74f96c64ae10&#45;&gt;ast.Load object at 0x74f9c33c9810 -->
<g id="edge95" class="edge">
<title>ast.Subscript object at 0x74f96c64ae10&#45;&gt;ast.Load object at 0x74f9c33c9810</title>
<path fill="none" stroke="black" d="M860.89,-287.77C853.13,-278.03 844.55,-265.18 840.5,-252 835.8,-236.71 837.36,-231.69 840.5,-216 853.42,-151.41 888.69,-81.87 909.18,-45.16"/>
<polygon fill="black" stroke="black" points="912.41,-46.56 914.3,-36.14 906.32,-43.11 912.41,-46.56"/>
</g>
<!-- ast.Name object at 0x74f96c64a4d0 -->
<g id="node59" class="node">
<title>ast.Name object at 0x74f96c64a4d0</title>
<path fill="#66cdaa" stroke="black" d="M891.5,-252C891.5,-252 861.5,-252 861.5,-252 855.5,-252 849.5,-246 849.5,-240 849.5,-240 849.5,-228 849.5,-228 849.5,-222 855.5,-216 861.5,-216 861.5,-216 891.5,-216 891.5,-216 897.5,-216 903.5,-222 903.5,-228 903.5,-228 903.5,-240 903.5,-240 903.5,-246 897.5,-252 891.5,-252"/>
<text text-anchor="middle" x="876.5" y="-230.3" font-family="Times,serif" font-size="14.00">Name</text>
</g>
<!-- ast.Subscript object at 0x74f96c64ae10&#45;&gt;ast.Name object at 0x74f96c64a4d0 -->
<g id="edge83" class="edge">
<title>ast.Subscript object at 0x74f96c64ae10&#45;&gt;ast.Name object at 0x74f96c64a4d0</title>
<path fill="none" stroke="black" d="M876.5,-287.7C876.5,-279.98 876.5,-270.71 876.5,-262.11"/>
<polygon fill="black" stroke="black" points="880,-262.1 876.5,-252.1 873,-262.1 880,-262.1"/>
</g>
<!-- ast.BinOp object at 0x74f96ca34e50 -->
<g id="node60" class="node">
<title>ast.BinOp object at 0x74f96ca34e50</title>
<path fill="#66cdaa" stroke="black" d="M963.5,-252C963.5,-252 933.5,-252 933.5,-252 927.5,-252 921.5,-246 921.5,-240 921.5,-240 921.5,-228 921.5,-228 921.5,-222 927.5,-216 933.5,-216 933.5,-216 963.5,-216 963.5,-216 969.5,-216 975.5,-222 975.5,-228 975.5,-228 975.5,-240 975.5,-240 975.5,-246 969.5,-252 963.5,-252"/>
<text text-anchor="middle" x="948.5" y="-230.3" font-family="Times,serif" font-size="14.00">BinOp</text>
</g>
<!-- ast.Subscript object at 0x74f96c64ae10&#45;&gt;ast.BinOp object at 0x74f96ca34e50 -->
<g id="edge85" class="edge">
<title>ast.Subscript object at 0x74f96c64ae10&#45;&gt;ast.BinOp object at 0x74f96ca34e50</title>
<path fill="none" stroke="black" d="M894.3,-287.7C903.1,-279.14 913.88,-268.66 923.5,-259.3"/>
<polygon fill="black" stroke="black" points="926.18,-261.58 930.91,-252.1 921.3,-256.57 926.18,-261.58"/>
</g>
<!-- ast.Name object at 0x74f96c64a4d0&#45;&gt;ast.Load object at 0x74f9c33c9810 -->
<g id="edge84" class="edge">
<title>ast.Name object at 0x74f96c64a4d0&#45;&gt;ast.Load object at 0x74f9c33c9810</title>
<path fill="none" stroke="black" d="M880.1,-215.57C886.26,-185.98 899.33,-124.09 911.5,-72 913.47,-63.57 915.69,-54.4 917.73,-46.1"/>
<polygon fill="black" stroke="black" points="921.19,-46.71 920.19,-36.16 914.39,-45.03 921.19,-46.71"/>
</g>
<!-- ast.BinOp object at 0x74f96ca34e50&#45;&gt;ast.Mod object at 0x74f9c33c9f90 -->
<g id="edge92" class="edge">
<title>ast.BinOp object at 0x74f96ca34e50&#45;&gt;ast.Mod object at 0x74f9c33c9f90</title>
<path fill="none" stroke="black" d="M975.76,-219.17C997.03,-208.38 1026.76,-193.3 1050.07,-181.48"/>
<polygon fill="black" stroke="black" points="1051.96,-184.45 1059.29,-176.8 1048.79,-178.2 1051.96,-184.45"/>
</g>
<!-- ast.BinOp object at 0x74f96c6ed3d0 -->
<g id="node61" class="node">
<title>ast.BinOp object at 0x74f96c6ed3d0</title>
<path fill="#66cdaa" stroke="black" d="M1024.5,-180C1024.5,-180 994.5,-180 994.5,-180 988.5,-180 982.5,-174 982.5,-168 982.5,-168 982.5,-156 982.5,-156 982.5,-150 988.5,-144 994.5,-144 994.5,-144 1024.5,-144 1024.5,-144 1030.5,-144 1036.5,-150 1036.5,-156 1036.5,-156 1036.5,-168 1036.5,-168 1036.5,-174 1030.5,-180 1024.5,-180"/>
<text text-anchor="middle" x="1009.5" y="-158.3" font-family="Times,serif" font-size="14.00">BinOp</text>
</g>
<!-- ast.BinOp object at 0x74f96ca34e50&#45;&gt;ast.BinOp object at 0x74f96c6ed3d0 -->
<g id="edge86" class="edge">
<title>ast.BinOp object at 0x74f96ca34e50&#45;&gt;ast.BinOp object at 0x74f96c6ed3d0</title>
<path fill="none" stroke="black" d="M963.58,-215.7C970.89,-207.3 979.81,-197.07 987.84,-187.86"/>
<polygon fill="black" stroke="black" points="990.66,-189.94 994.59,-180.1 985.39,-185.34 990.66,-189.94"/>
</g>
<!-- ast.Name object at 0x74f97532b090 -->
<g id="node64" class="node">
<title>ast.Name object at 0x74f97532b090</title>
<path fill="#66cdaa" stroke="black" d="M946.5,-180C946.5,-180 916.5,-180 916.5,-180 910.5,-180 904.5,-174 904.5,-168 904.5,-168 904.5,-156 904.5,-156 904.5,-150 910.5,-144 916.5,-144 916.5,-144 946.5,-144 946.5,-144 952.5,-144 958.5,-150 958.5,-156 958.5,-156 958.5,-168 958.5,-168 958.5,-174 952.5,-180 946.5,-180"/>
<text text-anchor="middle" x="931.5" y="-158.3" font-family="Times,serif" font-size="14.00">Name</text>
</g>
<!-- ast.BinOp object at 0x74f96ca34e50&#45;&gt;ast.Name object at 0x74f97532b090 -->
<g id="edge93" class="edge">
<title>ast.BinOp object at 0x74f96ca34e50&#45;&gt;ast.Name object at 0x74f97532b090</title>
<path fill="none" stroke="black" d="M944.3,-215.7C942.4,-207.9 940.12,-198.51 938.02,-189.83"/>
<polygon fill="black" stroke="black" points="941.42,-189 935.65,-180.1 934.61,-190.65 941.42,-189"/>
</g>
<!-- ast.BinOp object at 0x74f96c6ed3d0&#45;&gt;ast.Add object at 0x74f9c33c9d10 -->
<g id="edge89" class="edge">
<title>ast.BinOp object at 0x74f96c6ed3d0&#45;&gt;ast.Add object at 0x74f9c33c9d10</title>
<path fill="none" stroke="black" d="M1031.01,-143.7C1041.96,-134.88 1055.45,-124.03 1067.32,-114.47"/>
<polygon fill="black" stroke="black" points="1069.64,-117.1 1075.24,-108.1 1065.26,-111.65 1069.64,-117.1"/>
</g>
<!-- ast.Name object at 0x74f97da63bd0 -->
<g id="node62" class="node">
<title>ast.Name object at 0x74f97da63bd0</title>
<path fill="#66cdaa" stroke="black" d="M967.5,-108C967.5,-108 937.5,-108 937.5,-108 931.5,-108 925.5,-102 925.5,-96 925.5,-96 925.5,-84 925.5,-84 925.5,-78 931.5,-72 937.5,-72 937.5,-72 967.5,-72 967.5,-72 973.5,-72 979.5,-78 979.5,-84 979.5,-84 979.5,-96 979.5,-96 979.5,-102 973.5,-108 967.5,-108"/>
<text text-anchor="middle" x="952.5" y="-86.3" font-family="Times,serif" font-size="14.00">Name</text>
</g>
<!-- ast.BinOp object at 0x74f96c6ed3d0&#45;&gt;ast.Name object at 0x74f97da63bd0 -->
<g id="edge87" class="edge">
<title>ast.BinOp object at 0x74f96c6ed3d0&#45;&gt;ast.Name object at 0x74f97da63bd0</title>
<path fill="none" stroke="black" d="M995.41,-143.7C988.58,-135.3 980.24,-125.07 972.74,-115.86"/>
<polygon fill="black" stroke="black" points="975.46,-113.65 966.43,-108.1 970.03,-118.07 975.46,-113.65"/>
</g>
<!-- ast.Name object at 0x74f97da636d0 -->
<g id="node63" class="node">
<title>ast.Name object at 0x74f97da636d0</title>
<path fill="#66cdaa" stroke="black" d="M1039.5,-108C1039.5,-108 1009.5,-108 1009.5,-108 1003.5,-108 997.5,-102 997.5,-96 997.5,-96 997.5,-84 997.5,-84 997.5,-78 1003.5,-72 1009.5,-72 1009.5,-72 1039.5,-72 1039.5,-72 1045.5,-72 1051.5,-78 1051.5,-84 1051.5,-84 1051.5,-96 1051.5,-96 1051.5,-102 1045.5,-108 1039.5,-108"/>
<text text-anchor="middle" x="1024.5" y="-86.3" font-family="Times,serif" font-size="14.00">Name</text>
</g>
<!-- ast.BinOp object at 0x74f96c6ed3d0&#45;&gt;ast.Name object at 0x74f97da636d0 -->
<g id="edge90" class="edge">
<title>ast.BinOp object at 0x74f96c6ed3d0&#45;&gt;ast.Name object at 0x74f97da636d0</title>
<path fill="none" stroke="black" d="M1013.21,-143.7C1014.86,-135.98 1016.85,-126.71 1018.69,-118.11"/>
<polygon fill="black" stroke="black" points="1022.16,-118.62 1020.83,-108.1 1015.32,-117.15 1022.16,-118.62"/>
</g>
<!-- ast.Name object at 0x74f97da63bd0&#45;&gt;ast.Load object at 0x74f9c33c9810 -->
<g id="edge88" class="edge">
<title>ast.Name object at 0x74f97da63bd0&#45;&gt;ast.Load object at 0x74f9c33c9810</title>
<path fill="none" stroke="black" d="M945.58,-71.7C942.43,-63.81 938.62,-54.3 935.12,-45.55"/>
<polygon fill="black" stroke="black" points="938.31,-44.09 931.34,-36.1 931.81,-46.69 938.31,-44.09"/>
</g>
<!-- ast.Name object at 0x74f97da636d0&#45;&gt;ast.Load object at 0x74f9c33c9810 -->
<g id="edge91" class="edge">
<title>ast.Name object at 0x74f97da636d0&#45;&gt;ast.Load object at 0x74f9c33c9810</title>
<path fill="none" stroke="black" d="M1000.04,-71.88C987.2,-62.89 971.3,-51.76 957.41,-42.03"/>
<polygon fill="black" stroke="black" points="959.26,-39.06 949.06,-36.19 955.24,-44.79 959.26,-39.06"/>
</g>
<!-- ast.Name object at 0x74f97532b090&#45;&gt;ast.Load object at 0x74f9c33c9810 -->
<g id="edge94" class="edge">
<title>ast.Name object at 0x74f97532b090&#45;&gt;ast.Load object at 0x74f9c33c9810</title>
<path fill="none" stroke="black" d="M925.26,-143.59C921.93,-133.37 918.18,-120.12 916.5,-108 913.64,-87.39 915.97,-63.93 918.84,-46.28"/>
<polygon fill="black" stroke="black" points="922.35,-46.58 920.66,-36.12 915.46,-45.35 922.35,-46.58"/>
</g>
<!-- ast.Compare object at 0x74f9643aad10 -->
<g id="node66" class="node">
<title>ast.Compare object at 0x74f9643aad10</title>
<path fill="#66cdaa" stroke="black" d="M494,-180C494,-180 451,-180 451,-180 445,-180 439,-174 439,-168 439,-168 439,-156 439,-156 439,-150 445,-144 451,-144 451,-144 494,-144 494,-144 500,-144 506,-150 506,-156 506,-156 506,-168 506,-168 506,-174 500,-180 494,-180"/>
<text text-anchor="middle" x="472.5" y="-158.3" font-family="Times,serif" font-size="14.00">Compare</text>
</g>
<!-- ast.If object at 0x74f97db16790&#45;&gt;ast.Compare object at 0x74f9643aad10 -->
<g id="edge97" class="edge">
<title>ast.If object at 0x74f97db16790&#45;&gt;ast.Compare object at 0x74f9643aad10</title>
<path fill="none" stroke="black" d="M664.5,-359.93C657.17,-349.83 648.17,-336.58 641.5,-324 617.29,-278.36 634.68,-252.88 598.5,-216 576.25,-193.32 542.81,-179.86 515.96,-172.19"/>
<polygon fill="black" stroke="black" points="516.6,-168.74 506.04,-169.52 514.79,-175.5 516.6,-168.74"/>
</g>
<!-- ast.Expr object at 0x74f9643aa550 -->
<g id="node70" class="node">
<title>ast.Expr object at 0x74f9643aa550</title>
<path fill="#66cdaa" stroke="black" d="M692.5,-324C692.5,-324 662.5,-324 662.5,-324 656.5,-324 650.5,-318 650.5,-312 650.5,-312 650.5,-300 650.5,-300 650.5,-294 656.5,-288 662.5,-288 662.5,-288 692.5,-288 692.5,-288 698.5,-288 704.5,-294 704.5,-300 704.5,-300 704.5,-312 704.5,-312 704.5,-318 698.5,-324 692.5,-324"/>
<text text-anchor="middle" x="677.5" y="-302.3" font-family="Times,serif" font-size="14.00">Expr</text>
</g>
<!-- ast.If object at 0x74f97db16790&#45;&gt;ast.Expr object at 0x74f9643aa550 -->
<g id="edge103" class="edge">
<title>ast.If object at 0x74f97db16790&#45;&gt;ast.Expr object at 0x74f9643aa550</title>
<path fill="none" stroke="black" d="M677.5,-359.7C677.5,-351.98 677.5,-342.71 677.5,-334.11"/>
<polygon fill="black" stroke="black" points="681,-334.1 677.5,-324.1 674,-334.1 681,-334.1"/>
</g>
<!-- ast.Name object at 0x74f9643a8790 -->
<g id="node67" class="node">
<title>ast.Name object at 0x74f9643a8790</title>
<path fill="#66cdaa" stroke="black" d="M451.5,-108C451.5,-108 421.5,-108 421.5,-108 415.5,-108 409.5,-102 409.5,-96 409.5,-96 409.5,-84 409.5,-84 409.5,-78 415.5,-72 421.5,-72 421.5,-72 451.5,-72 451.5,-72 457.5,-72 463.5,-78 463.5,-84 463.5,-84 463.5,-96 463.5,-96 463.5,-102 457.5,-108 451.5,-108"/>
<text text-anchor="middle" x="436.5" y="-86.3" font-family="Times,serif" font-size="14.00">Name</text>
</g>
<!-- ast.Compare object at 0x74f9643aad10&#45;&gt;ast.Name object at 0x74f9643a8790 -->
<g id="edge98" class="edge">
<title>ast.Compare object at 0x74f9643aad10&#45;&gt;ast.Name object at 0x74f9643a8790</title>
<path fill="none" stroke="black" d="M463.6,-143.7C459.5,-135.73 454.55,-126.1 450.01,-117.26"/>
<polygon fill="black" stroke="black" points="452.98,-115.4 445.3,-108.1 446.76,-118.6 452.98,-115.4"/>
</g>
<!-- ast.Eq object at 0x74f9c33ca810 -->
<g id="node68" class="node">
<title>ast.Eq object at 0x74f9c33ca810</title>
<path fill="#66cdaa" stroke="black" d="M523.5,-108C523.5,-108 493.5,-108 493.5,-108 487.5,-108 481.5,-102 481.5,-96 481.5,-96 481.5,-84 481.5,-84 481.5,-78 487.5,-72 493.5,-72 493.5,-72 523.5,-72 523.5,-72 529.5,-72 535.5,-78 535.5,-84 535.5,-84 535.5,-96 535.5,-96 535.5,-102 529.5,-108 523.5,-108"/>
<text text-anchor="middle" x="508.5" y="-86.3" font-family="Times,serif" font-size="14.00">Eq</text>
</g>
<!-- ast.Compare object at 0x74f9643aad10&#45;&gt;ast.Eq object at 0x74f9c33ca810 -->
<g id="edge100" class="edge">
<title>ast.Compare object at 0x74f9643aad10&#45;&gt;ast.Eq object at 0x74f9c33ca810</title>
<path fill="none" stroke="black" d="M481.4,-143.7C485.5,-135.73 490.45,-126.1 494.99,-117.26"/>
<polygon fill="black" stroke="black" points="498.24,-118.6 499.7,-108.1 492.02,-115.4 498.24,-118.6"/>
</g>
<!-- ast.Name object at 0x74f9643ab6d0 -->
<g id="node69" class="node">
<title>ast.Name object at 0x74f9643ab6d0</title>
<path fill="#66cdaa" stroke="black" d="M379.5,-108C379.5,-108 349.5,-108 349.5,-108 343.5,-108 337.5,-102 337.5,-96 337.5,-96 337.5,-84 337.5,-84 337.5,-78 343.5,-72 349.5,-72 349.5,-72 379.5,-72 379.5,-72 385.5,-72 391.5,-78 391.5,-84 391.5,-84 391.5,-96 391.5,-96 391.5,-102 385.5,-108 379.5,-108"/>
<text text-anchor="middle" x="364.5" y="-86.3" font-family="Times,serif" font-size="14.00">Name</text>
</g>
<!-- ast.Compare object at 0x74f9643aad10&#45;&gt;ast.Name object at 0x74f9643ab6d0 -->
<g id="edge101" class="edge">
<title>ast.Compare object at 0x74f9643aad10&#45;&gt;ast.Name object at 0x74f9643ab6d0</title>
<path fill="none" stroke="black" d="M446.08,-143.88C432.09,-134.81 414.72,-123.55 399.61,-113.76"/>
<polygon fill="black" stroke="black" points="401.32,-110.69 391.02,-108.19 397.51,-116.57 401.32,-110.69"/>
</g>
<!-- ast.Name object at 0x74f9643a8790&#45;&gt;ast.Load object at 0x74f9c33c9810 -->
<g id="edge99" class="edge">
<title>ast.Name object at 0x74f9643a8790&#45;&gt;ast.Load object at 0x74f9c33c9810</title>
<path fill="none" stroke="black" d="M463.66,-75.06C466.59,-73.89 469.58,-72.84 472.5,-72 621.94,-29.2 808.65,-20.88 887.08,-19.32"/>
<polygon fill="black" stroke="black" points="887.48,-22.82 897.41,-19.15 887.36,-15.82 887.48,-22.82"/>
</g>
<!-- ast.Name object at 0x74f9643ab6d0&#45;&gt;ast.Load object at 0x74f9c33c9810 -->
<g id="edge102" class="edge">
<title>ast.Name object at 0x74f9643ab6d0&#45;&gt;ast.Load object at 0x74f9c33c9810</title>
<path fill="none" stroke="black" d="M391.65,-75.01C394.58,-73.85 397.57,-72.81 400.5,-72 577.89,-22.72 800.4,-18.17 887.31,-18.48"/>
<polygon fill="black" stroke="black" points="887.44,-21.98 897.46,-18.54 887.49,-14.98 887.44,-21.98"/>
</g>
<!-- ast.Call object at 0x74f9643a9e90 -->
<g id="node71" class="node">
<title>ast.Call object at 0x74f9643a9e90</title>
<path fill="#66cdaa" stroke="black" d="M692.5,-252C692.5,-252 662.5,-252 662.5,-252 656.5,-252 650.5,-246 650.5,-240 650.5,-240 650.5,-228 650.5,-228 650.5,-222 656.5,-216 662.5,-216 662.5,-216 692.5,-216 692.5,-216 698.5,-216 704.5,-222 704.5,-228 704.5,-228 704.5,-240 704.5,-240 704.5,-246 698.5,-252 692.5,-252"/>
<text text-anchor="middle" x="677.5" y="-230.3" font-family="Times,serif" font-size="14.00">Call</text>
</g>
<!-- ast.Expr object at 0x74f9643aa550&#45;&gt;ast.Call object at 0x74f9643a9e90 -->
<g id="edge104" class="edge">
<title>ast.Expr object at 0x74f9643aa550&#45;&gt;ast.Call object at 0x74f9643a9e90</title>
<path fill="none" stroke="black" d="M677.5,-287.7C677.5,-279.98 677.5,-270.71 677.5,-262.11"/>
<polygon fill="black" stroke="black" points="681,-262.1 677.5,-252.1 674,-262.1 681,-262.1"/>
</g>
<!-- ast.Attribute object at 0x74f9643aaf10 -->
<g id="node72" class="node">
<title>ast.Attribute object at 0x74f9643aaf10</title>
<path fill="#66cdaa" stroke="black" d="M620,-180C620,-180 579,-180 579,-180 573,-180 567,-174 567,-168 567,-168 567,-156 567,-156 567,-150 573,-144 579,-144 579,-144 620,-144 620,-144 626,-144 632,-150 632,-156 632,-156 632,-168 632,-168 632,-174 626,-180 620,-180"/>
<text text-anchor="middle" x="599.5" y="-158.3" font-family="Times,serif" font-size="14.00">Attribute</text>
</g>
<!-- ast.Call object at 0x74f9643a9e90&#45;&gt;ast.Attribute object at 0x74f9643aaf10 -->
<g id="edge105" class="edge">
<title>ast.Call object at 0x74f9643a9e90&#45;&gt;ast.Attribute object at 0x74f9643aaf10</title>
<path fill="none" stroke="black" d="M658.22,-215.7C648.58,-207.05 636.77,-196.45 626.27,-187.03"/>
<polygon fill="black" stroke="black" points="628.34,-184.18 618.56,-180.1 623.66,-189.39 628.34,-184.18"/>
</g>
<!-- ast.Name object at 0x74f9643aac90 -->
<g id="node74" class="node">
<title>ast.Name object at 0x74f9643aac90</title>
<path fill="#66cdaa" stroke="black" d="M692.5,-180C692.5,-180 662.5,-180 662.5,-180 656.5,-180 650.5,-174 650.5,-168 650.5,-168 650.5,-156 650.5,-156 650.5,-150 656.5,-144 662.5,-144 662.5,-144 692.5,-144 692.5,-144 698.5,-144 704.5,-150 704.5,-156 704.5,-156 704.5,-168 704.5,-168 704.5,-174 698.5,-180 692.5,-180"/>
<text text-anchor="middle" x="677.5" y="-158.3" font-family="Times,serif" font-size="14.00">Name</text>
</g>
<!-- ast.Call object at 0x74f9643a9e90&#45;&gt;ast.Name object at 0x74f9643aac90 -->
<g id="edge109" class="edge">
<title>ast.Call object at 0x74f9643a9e90&#45;&gt;ast.Name object at 0x74f9643aac90</title>
<path fill="none" stroke="black" d="M677.5,-215.7C677.5,-207.98 677.5,-198.71 677.5,-190.11"/>
<polygon fill="black" stroke="black" points="681,-190.1 677.5,-180.1 674,-190.1 681,-190.1"/>
</g>
<!-- ast.Attribute object at 0x74f9643aaf10&#45;&gt;ast.Load object at 0x74f9c33c9810 -->
<g id="edge108" class="edge">
<title>ast.Attribute object at 0x74f9643aaf10&#45;&gt;ast.Load object at 0x74f9c33c9810</title>
<path fill="none" stroke="black" d="M608.82,-143.95C620.94,-123.49 644.07,-89.74 673.5,-72 741.12,-31.23 835.46,-21.51 887.08,-19.39"/>
<polygon fill="black" stroke="black" points="887.24,-22.88 897.12,-19.05 887.01,-15.89 887.24,-22.88"/>
</g>
<!-- ast.Name object at 0x74f9643aa7d0 -->
<g id="node73" class="node">
<title>ast.Name object at 0x74f9643aa7d0</title>
<path fill="#66cdaa" stroke="black" d="M595.5,-108C595.5,-108 565.5,-108 565.5,-108 559.5,-108 553.5,-102 553.5,-96 553.5,-96 553.5,-84 553.5,-84 553.5,-78 559.5,-72 565.5,-72 565.5,-72 595.5,-72 595.5,-72 601.5,-72 607.5,-78 607.5,-84 607.5,-84 607.5,-96 607.5,-96 607.5,-102 601.5,-108 595.5,-108"/>
<text text-anchor="middle" x="580.5" y="-86.3" font-family="Times,serif" font-size="14.00">Name</text>
</g>
<!-- ast.Attribute object at 0x74f9643aaf10&#45;&gt;ast.Name object at 0x74f9643aa7d0 -->
<g id="edge106" class="edge">
<title>ast.Attribute object at 0x74f9643aaf10&#45;&gt;ast.Name object at 0x74f9643aa7d0</title>
<path fill="none" stroke="black" d="M594.8,-143.7C592.69,-135.9 590.14,-126.51 587.78,-117.83"/>
<polygon fill="black" stroke="black" points="591.14,-116.84 585.14,-108.1 584.38,-118.67 591.14,-116.84"/>
</g>
<!-- ast.Name object at 0x74f9643aa7d0&#45;&gt;ast.Load object at 0x74f9c33c9810 -->
<g id="edge107" class="edge">
<title>ast.Name object at 0x74f9643aa7d0&#45;&gt;ast.Load object at 0x74f9c33c9810</title>
<path fill="none" stroke="black" d="M607.55,-76.81C612.14,-75.02 616.91,-73.33 621.5,-72 715.15,-44.76 829.39,-29.41 887.18,-22.85"/>
<polygon fill="black" stroke="black" points="887.74,-26.31 897.3,-21.73 886.97,-19.35 887.74,-26.31"/>
</g>
<!-- ast.Name object at 0x74f9643aac90&#45;&gt;ast.Load object at 0x74f9c33c9810 -->
<g id="edge110" class="edge">
<title>ast.Name object at 0x74f9643aac90&#45;&gt;ast.Load object at 0x74f9c33c9810</title>
<path fill="none" stroke="black" d="M675.22,-143.82C673.61,-123.88 674.32,-91.26 692.5,-72 718.79,-44.15 828.65,-28.85 887.27,-22.52"/>
<polygon fill="black" stroke="black" points="887.66,-26 897.24,-21.47 886.93,-19.03 887.66,-26"/>
</g>
<!-- ast.Name object at 0x74f9643aa750 -->
<g id="node76" class="node">
<title>ast.Name object at 0x74f9643aa750</title>
<path fill="#66cdaa" stroke="black" d="M1764.5,-612C1764.5,-612 1734.5,-612 1734.5,-612 1728.5,-612 1722.5,-606 1722.5,-600 1722.5,-600 1722.5,-588 1722.5,-588 1722.5,-582 1728.5,-576 1734.5,-576 1734.5,-576 1764.5,-576 1764.5,-576 1770.5,-576 1776.5,-582 1776.5,-588 1776.5,-588 1776.5,-600 1776.5,-600 1776.5,-606 1770.5,-612 1764.5,-612"/>
<text text-anchor="middle" x="1749.5" y="-590.3" font-family="Times,serif" font-size="14.00">Name</text>
</g>
<!-- ast.Return object at 0x74f9643aae10&#45;&gt;ast.Name object at 0x74f9643aa750 -->
<g id="edge112" class="edge">
<title>ast.Return object at 0x74f9643aae10&#45;&gt;ast.Name object at 0x74f9643aa750</title>
<path fill="none" stroke="black" d="M1731.43,-647.7C1734.11,-639.9 1737.33,-630.51 1740.3,-621.83"/>
<polygon fill="black" stroke="black" points="1743.7,-622.7 1743.64,-612.1 1737.08,-620.43 1743.7,-622.7"/>
</g>
<!-- ast.Name object at 0x74f9643aa750&#45;&gt;ast.Load object at 0x74f9c33c9810 -->
<g id="edge113" class="edge">
<title>ast.Name object at 0x74f9643aa750&#45;&gt;ast.Load object at 0x74f9c33c9810</title>
<path fill="none" stroke="black" d="M1754.36,-575.67C1761.37,-549.08 1773.5,-496.5 1773.5,-451 1773.5,-451 1773.5,-451 1773.5,-161 1773.5,-120.55 1785.12,-98.43 1754.5,-72 1693.93,-19.71 1115.89,-18.24 961.99,-18.78"/>
<polygon fill="black" stroke="black" points="961.64,-15.28 951.65,-18.82 961.67,-22.28 961.64,-15.28"/>
</g>
</g>
</svg>
