<?xml version="1.0" encoding="UTF-8" standalone="no"?>
<!DOCTYPE svg PUBLIC "-//W3C//DTD SVG 1.1//EN"
 "http://www.w3.org/Graphics/SVG/1.1/DTD/svg11.dtd">
<!-- Generated by graphviz version 2.50.0 (0)
 -->
<!-- Pages: 1 -->
<svg width="595pt" height="548pt"
 viewBox="0.00 0.00 595.26 548.00" xmlns="http://www.w3.org/2000/svg" xmlns:xlink="http://www.w3.org/1999/xlink">
<g id="graph0" class="graph" transform="scale(1 1) rotate(0) translate(4 544)">
<polygon fill="white" stroke="transparent" points="-4,4 -4,-544 591.26,-544 591.26,4 -4,4"/>
<!-- ast.Module object at 0x74531df929d0 -->
<g id="node1" class="node">
<title>ast.Module object at 0x74531df929d0</title>
<path fill="#66cdaa" stroke="black" d="M273.5,-540C273.5,-540 238.5,-540 238.5,-540 232.5,-540 226.5,-534 226.5,-528 226.5,-528 226.5,-516 226.5,-516 226.5,-510 232.5,-504 238.5,-504 238.5,-504 273.5,-504 273.5,-504 279.5,-504 285.5,-510 285.5,-516 285.5,-516 285.5,-528 285.5,-528 285.5,-534 279.5,-540 273.5,-540"/>
<text text-anchor="middle" x="256" y="-518.3" font-family="Times,serif" font-size="14.00">Module</text>
</g>
<!-- ast.FunctionDef object at 0x74531df90c50 -->
<g id="node2" class="node">
<title>ast.FunctionDef object at 0x74531df90c50</title>
<path fill="#66cdaa" stroke="black" d="M286.5,-468C286.5,-468 225.5,-468 225.5,-468 219.5,-468 213.5,-462 213.5,-456 213.5,-456 213.5,-444 213.5,-444 213.5,-438 219.5,-432 225.5,-432 225.5,-432 286.5,-432 286.5,-432 292.5,-432 298.5,-438 298.5,-444 298.5,-444 298.5,-456 298.5,-456 298.5,-462 292.5,-468 286.5,-468"/>
<text text-anchor="middle" x="256" y="-446.3" font-family="Times,serif" font-size="14.00">FunctionDef</text>
</g>
<!-- ast.Module object at 0x74531df929d0&#45;&gt;ast.FunctionDef object at 0x74531df90c50 -->
<g id="edge1" class="edge">
<title>ast.Module object at 0x74531df929d0&#45;&gt;ast.FunctionDef object at 0x74531df90c50</title>
<path fill="none" stroke="black" d="M256,-503.7C256,-495.98 256,-486.71 256,-478.11"/>
<polygon fill="black" stroke="black" points="259.5,-478.1 256,-468.1 252.5,-478.1 259.5,-478.1"/>
</g>
<!-- ast.arguments object at 0x74531df92390 -->
<g id="node3" class="node">
<title>ast.arguments object at 0x74531df92390</title>
<path fill="#66cdaa" stroke="black" d="M189,-396C189,-396 139,-396 139,-396 133,-396 127,-390 127,-384 127,-384 127,-372 127,-372 127,-366 133,-360 139,-360 139,-360 189,-360 189,-360 195,-360 201,-366 201,-372 201,-372 201,-384 201,-384 201,-390 195,-396 189,-396"/>
<text text-anchor="middle" x="164" y="-374.3" font-family="Times,serif" font-size="14.00">arguments</text>
</g>
<!-- ast.FunctionDef object at 0x74531df90c50&#45;&gt;ast.arguments object at 0x74531df92390 -->
<g id="edge2" class="edge">
<title>ast.FunctionDef object at 0x74531df90c50&#45;&gt;ast.arguments object at 0x74531df92390</title>
<path fill="none" stroke="black" d="M233.26,-431.7C221.56,-422.8 207.14,-411.82 194.49,-402.2"/>
<polygon fill="black" stroke="black" points="196.56,-399.37 186.48,-396.1 192.32,-404.94 196.56,-399.37"/>
</g>
<!-- ast.Assign object at 0x74531df92bd0 -->
<g id="node5" class="node">
<title>ast.Assign object at 0x74531df92bd0</title>
<path fill="#66cdaa" stroke="black" d="M114,-252C114,-252 84,-252 84,-252 78,-252 72,-246 72,-240 72,-240 72,-228 72,-228 72,-222 78,-216 84,-216 84,-216 114,-216 114,-216 120,-216 126,-222 126,-228 126,-228 126,-240 126,-240 126,-246 120,-252 114,-252"/>
<text text-anchor="middle" x="99" y="-230.3" font-family="Times,serif" font-size="14.00">Assign</text>
</g>
<!-- ast.FunctionDef object at 0x74531df90c50&#45;&gt;ast.Assign object at 0x74531df92bd0 -->
<g id="edge4" class="edge">
<title>ast.FunctionDef object at 0x74531df90c50&#45;&gt;ast.Assign object at 0x74531df92bd0</title>
<path fill="none" stroke="black" d="M254.2,-431.92C250.04,-400.09 237.09,-331.05 200,-288 183.08,-268.35 157.04,-254.94 135.64,-246.52"/>
<polygon fill="black" stroke="black" points="136.78,-243.21 126.19,-243 134.34,-249.77 136.78,-243.21"/>
</g>
<!-- ast.For object at 0x74531df90ad0 -->
<g id="node11" class="node">
<title>ast.For object at 0x74531df90ad0</title>
<path fill="#66cdaa" stroke="black" d="M318,-396C318,-396 288,-396 288,-396 282,-396 276,-390 276,-384 276,-384 276,-372 276,-372 276,-366 282,-360 288,-360 288,-360 318,-360 318,-360 324,-360 330,-366 330,-372 330,-372 330,-384 330,-384 330,-390 324,-396 318,-396"/>
<text text-anchor="middle" x="303" y="-374.3" font-family="Times,serif" font-size="14.00">For</text>
</g>
<!-- ast.FunctionDef object at 0x74531df90c50&#45;&gt;ast.For object at 0x74531df90ad0 -->
<g id="edge10" class="edge">
<title>ast.FunctionDef object at 0x74531df90c50&#45;&gt;ast.For object at 0x74531df90ad0</title>
<path fill="none" stroke="black" d="M267.62,-431.7C273.14,-423.47 279.85,-413.48 285.93,-404.42"/>
<polygon fill="black" stroke="black" points="288.85,-406.36 291.52,-396.1 283.04,-402.46 288.85,-406.36"/>
</g>
<!-- ast.Return object at 0x74531dfcf710 -->
<g id="node26" class="node">
<title>ast.Return object at 0x74531dfcf710</title>
<path fill="#66cdaa" stroke="black" d="M468,-396C468,-396 438,-396 438,-396 432,-396 426,-390 426,-384 426,-384 426,-372 426,-372 426,-366 432,-360 438,-360 438,-360 468,-360 468,-360 474,-360 480,-366 480,-372 480,-372 480,-384 480,-384 480,-390 474,-396 468,-396"/>
<text text-anchor="middle" x="453" y="-374.3" font-family="Times,serif" font-size="14.00">Return</text>
</g>
<!-- ast.FunctionDef object at 0x74531df90c50&#45;&gt;ast.Return object at 0x74531dfcf710 -->
<g id="edge34" class="edge">
<title>ast.FunctionDef object at 0x74531df90c50&#45;&gt;ast.Return object at 0x74531dfcf710</title>
<path fill="none" stroke="black" d="M298.75,-433.81C333.72,-421.38 382.67,-403.99 415.98,-392.15"/>
<polygon fill="black" stroke="black" points="417.54,-395.32 425.79,-388.67 415.19,-388.72 417.54,-395.32"/>
</g>
<!-- ast.arg object at 0x74531df92990 -->
<g id="node4" class="node">
<title>ast.arg object at 0x74531df92990</title>
<path fill="#66cdaa" stroke="black" d="M179,-324C179,-324 149,-324 149,-324 143,-324 137,-318 137,-312 137,-312 137,-300 137,-300 137,-294 143,-288 149,-288 149,-288 179,-288 179,-288 185,-288 191,-294 191,-300 191,-300 191,-312 191,-312 191,-318 185,-324 179,-324"/>
<text text-anchor="middle" x="164" y="-302.3" font-family="Times,serif" font-size="14.00">arg</text>
</g>
<!-- ast.arguments object at 0x74531df92390&#45;&gt;ast.arg object at 0x74531df92990 -->
<g id="edge3" class="edge">
<title>ast.arguments object at 0x74531df92390&#45;&gt;ast.arg object at 0x74531df92990</title>
<path fill="none" stroke="black" d="M164,-359.7C164,-351.98 164,-342.71 164,-334.11"/>
<polygon fill="black" stroke="black" points="167.5,-334.1 164,-324.1 160.5,-334.1 167.5,-334.1"/>
</g>
<!-- ast.Name object at 0x74531df91f50 -->
<g id="node6" class="node">
<title>ast.Name object at 0x74531df91f50</title>
<path fill="#66cdaa" stroke="black" d="M114,-180C114,-180 84,-180 84,-180 78,-180 72,-174 72,-168 72,-168 72,-156 72,-156 72,-150 78,-144 84,-144 84,-144 114,-144 114,-144 120,-144 126,-150 126,-156 126,-156 126,-168 126,-168 126,-174 120,-180 114,-180"/>
<text text-anchor="middle" x="99" y="-158.3" font-family="Times,serif" font-size="14.00">Name</text>
</g>
<!-- ast.Assign object at 0x74531df92bd0&#45;&gt;ast.Name object at 0x74531df91f50 -->
<g id="edge5" class="edge">
<title>ast.Assign object at 0x74531df92bd0&#45;&gt;ast.Name object at 0x74531df91f50</title>
<path fill="none" stroke="black" d="M99,-215.7C99,-207.98 99,-198.71 99,-190.11"/>
<polygon fill="black" stroke="black" points="102.5,-190.1 99,-180.1 95.5,-190.1 102.5,-190.1"/>
</g>
<!-- ast.Call object at 0x74531df93250 -->
<g id="node8" class="node">
<title>ast.Call object at 0x74531df93250</title>
<path fill="#66cdaa" stroke="black" d="M42,-180C42,-180 12,-180 12,-180 6,-180 0,-174 0,-168 0,-168 0,-156 0,-156 0,-150 6,-144 12,-144 12,-144 42,-144 42,-144 48,-144 54,-150 54,-156 54,-156 54,-168 54,-168 54,-174 48,-180 42,-180"/>
<text text-anchor="middle" x="27" y="-158.3" font-family="Times,serif" font-size="14.00">Call</text>
</g>
<!-- ast.Assign object at 0x74531df92bd0&#45;&gt;ast.Call object at 0x74531df93250 -->
<g id="edge7" class="edge">
<title>ast.Assign object at 0x74531df92bd0&#45;&gt;ast.Call object at 0x74531df93250</title>
<path fill="none" stroke="black" d="M81.2,-215.7C72.4,-207.14 61.62,-196.66 52,-187.3"/>
<polygon fill="black" stroke="black" points="54.2,-184.57 44.59,-180.1 49.32,-189.58 54.2,-184.57"/>
</g>
<!-- ast.Store object at 0x7454617ffbd0 -->
<g id="node7" class="node">
<title>ast.Store object at 0x7454617ffbd0</title>
<path fill="#66cdaa" stroke="black" d="M145,-108C145,-108 115,-108 115,-108 109,-108 103,-102 103,-96 103,-96 103,-84 103,-84 103,-78 109,-72 115,-72 115,-72 145,-72 145,-72 151,-72 157,-78 157,-84 157,-84 157,-96 157,-96 157,-102 151,-108 145,-108"/>
<text text-anchor="middle" x="130" y="-86.3" font-family="Times,serif" font-size="14.00">Store</text>
</g>
<!-- ast.Name object at 0x74531df91f50&#45;&gt;ast.Store object at 0x7454617ffbd0 -->
<g id="edge6" class="edge">
<title>ast.Name object at 0x74531df91f50&#45;&gt;ast.Store object at 0x7454617ffbd0</title>
<path fill="none" stroke="black" d="M106.66,-143.7C110.19,-135.73 114.46,-126.1 118.37,-117.26"/>
<polygon fill="black" stroke="black" points="121.58,-118.67 122.43,-108.1 115.18,-115.83 121.58,-118.67"/>
</g>
<!-- ast.Name object at 0x74531df90350 -->
<g id="node9" class="node">
<title>ast.Name object at 0x74531df90350</title>
<path fill="#66cdaa" stroke="black" d="M70,-108C70,-108 40,-108 40,-108 34,-108 28,-102 28,-96 28,-96 28,-84 28,-84 28,-78 34,-72 40,-72 40,-72 70,-72 70,-72 76,-72 82,-78 82,-84 82,-84 82,-96 82,-96 82,-102 76,-108 70,-108"/>
<text text-anchor="middle" x="55" y="-86.3" font-family="Times,serif" font-size="14.00">Name</text>
</g>
<!-- ast.Call object at 0x74531df93250&#45;&gt;ast.Name object at 0x74531df90350 -->
<g id="edge8" class="edge">
<title>ast.Call object at 0x74531df93250&#45;&gt;ast.Name object at 0x74531df90350</title>
<path fill="none" stroke="black" d="M33.92,-143.7C37.07,-135.81 40.88,-126.3 44.38,-117.55"/>
<polygon fill="black" stroke="black" points="47.69,-118.69 48.16,-108.1 41.19,-116.09 47.69,-118.69"/>
</g>
<!-- ast.Load object at 0x7454617ffb50 -->
<g id="node10" class="node">
<title>ast.Load object at 0x7454617ffb50</title>
<path fill="#66cdaa" stroke="black" d="M382,-36C382,-36 352,-36 352,-36 346,-36 340,-30 340,-24 340,-24 340,-12 340,-12 340,-6 346,0 352,0 352,0 382,0 382,0 388,0 394,-6 394,-12 394,-12 394,-24 394,-24 394,-30 388,-36 382,-36"/>
<text text-anchor="middle" x="367" y="-14.3" font-family="Times,serif" font-size="14.00">Load</text>
</g>
<!-- ast.Name object at 0x74531df90350&#45;&gt;ast.Load object at 0x7454617ffb50 -->
<g id="edge9" class="edge">
<title>ast.Name object at 0x74531df90350&#45;&gt;ast.Load object at 0x7454617ffb50</title>
<path fill="none" stroke="black" d="M82.41,-76.16C86.25,-74.62 90.19,-73.18 94,-72 176.34,-46.4 276.66,-30.73 329.8,-23.59"/>
<polygon fill="black" stroke="black" points="330.32,-27.05 339.78,-22.27 329.41,-20.11 330.32,-27.05"/>
</g>
<!-- ast.Name object at 0x74531df90f90 -->
<g id="node12" class="node">
<title>ast.Name object at 0x74531df90f90</title>
<path fill="#66cdaa" stroke="black" d="M204,-252C204,-252 174,-252 174,-252 168,-252 162,-246 162,-240 162,-240 162,-228 162,-228 162,-222 168,-216 174,-216 174,-216 204,-216 204,-216 210,-216 216,-222 216,-228 216,-228 216,-240 216,-240 216,-246 210,-252 204,-252"/>
<text text-anchor="middle" x="189" y="-230.3" font-family="Times,serif" font-size="14.00">Name</text>
</g>
<!-- ast.For object at 0x74531df90ad0&#45;&gt;ast.Name object at 0x74531df90f90 -->
<g id="edge11" class="edge">
<title>ast.For object at 0x74531df90ad0&#45;&gt;ast.Name object at 0x74531df90f90</title>
<path fill="none" stroke="black" d="M292.9,-359.88C281.67,-341.41 262.55,-311.49 243,-288 234.66,-277.98 224.68,-267.77 215.57,-259.01"/>
<polygon fill="black" stroke="black" points="217.86,-256.36 208.19,-252.04 213.06,-261.45 217.86,-256.36"/>
</g>
<!-- ast.Call object at 0x74531df91710 -->
<g id="node13" class="node">
<title>ast.Call object at 0x74531df91710</title>
<path fill="#66cdaa" stroke="black" d="M442,-324C442,-324 412,-324 412,-324 406,-324 400,-318 400,-312 400,-312 400,-300 400,-300 400,-294 406,-288 412,-288 412,-288 442,-288 442,-288 448,-288 454,-294 454,-300 454,-300 454,-312 454,-312 454,-318 448,-324 442,-324"/>
<text text-anchor="middle" x="427" y="-302.3" font-family="Times,serif" font-size="14.00">Call</text>
</g>
<!-- ast.For object at 0x74531df90ad0&#45;&gt;ast.Call object at 0x74531df91710 -->
<g id="edge13" class="edge">
<title>ast.For object at 0x74531df90ad0&#45;&gt;ast.Call object at 0x74531df91710</title>
<path fill="none" stroke="black" d="M330.21,-361.64C348.06,-351.56 371.6,-338.28 390.99,-327.33"/>
<polygon fill="black" stroke="black" points="392.86,-330.29 399.85,-322.33 389.42,-324.19 392.86,-330.29"/>
</g>
<!-- ast.If object at 0x74531df91e10 -->
<g id="node16" class="node">
<title>ast.If object at 0x74531df91e10</title>
<path fill="#66cdaa" stroke="black" d="M337,-324C337,-324 307,-324 307,-324 301,-324 295,-318 295,-312 295,-312 295,-300 295,-300 295,-294 301,-288 307,-288 307,-288 337,-288 337,-288 343,-288 349,-294 349,-300 349,-300 349,-312 349,-312 349,-318 343,-324 337,-324"/>
<text text-anchor="middle" x="322" y="-302.3" font-family="Times,serif" font-size="14.00">If</text>
</g>
<!-- ast.For object at 0x74531df90ad0&#45;&gt;ast.If object at 0x74531df91e10 -->
<g id="edge17" class="edge">
<title>ast.For object at 0x74531df90ad0&#45;&gt;ast.If object at 0x74531df91e10</title>
<path fill="none" stroke="black" d="M307.7,-359.7C309.81,-351.9 312.36,-342.51 314.72,-333.83"/>
<polygon fill="black" stroke="black" points="318.12,-334.67 317.36,-324.1 311.36,-332.84 318.12,-334.67"/>
</g>
<!-- ast.Name object at 0x74531df90f90&#45;&gt;ast.Store object at 0x7454617ffbd0 -->
<g id="edge12" class="edge">
<title>ast.Name object at 0x74531df90f90&#45;&gt;ast.Store object at 0x7454617ffbd0</title>
<path fill="none" stroke="black" d="M181.88,-215.87C171.74,-191.46 153.03,-146.43 141.07,-117.64"/>
<polygon fill="black" stroke="black" points="144.21,-116.08 137.14,-108.19 137.75,-118.77 144.21,-116.08"/>
</g>
<!-- ast.Name object at 0x74531df912d0 -->
<g id="node14" class="node">
<title>ast.Name object at 0x74531df912d0</title>
<path fill="#66cdaa" stroke="black" d="M545,-252C545,-252 515,-252 515,-252 509,-252 503,-246 503,-240 503,-240 503,-228 503,-228 503,-222 509,-216 515,-216 515,-216 545,-216 545,-216 551,-216 557,-222 557,-228 557,-228 557,-240 557,-240 557,-246 551,-252 545,-252"/>
<text text-anchor="middle" x="530" y="-230.3" font-family="Times,serif" font-size="14.00">Name</text>
</g>
<!-- ast.Call object at 0x74531df91710&#45;&gt;ast.Name object at 0x74531df912d0 -->
<g id="edge14" class="edge">
<title>ast.Call object at 0x74531df91710&#45;&gt;ast.Name object at 0x74531df912d0</title>
<path fill="none" stroke="black" d="M452.2,-287.88C465.41,-278.89 481.79,-267.76 496.11,-258.03"/>
<polygon fill="black" stroke="black" points="498.4,-260.71 504.71,-252.19 494.47,-254.92 498.4,-260.71"/>
</g>
<!-- ast.Constant object at 0x74531df92090 -->
<g id="node15" class="node">
<title>ast.Constant object at 0x74531df92090</title>
<path fill="#66cdaa" stroke="black" d="M447.5,-252C447.5,-252 406.5,-252 406.5,-252 400.5,-252 394.5,-246 394.5,-240 394.5,-240 394.5,-228 394.5,-228 394.5,-222 400.5,-216 406.5,-216 406.5,-216 447.5,-216 447.5,-216 453.5,-216 459.5,-222 459.5,-228 459.5,-228 459.5,-240 459.5,-240 459.5,-246 453.5,-252 447.5,-252"/>
<text text-anchor="middle" x="427" y="-230.3" font-family="Times,serif" font-size="14.00">Constant</text>
</g>
<!-- ast.Call object at 0x74531df91710&#45;&gt;ast.Constant object at 0x74531df92090 -->
<g id="edge16" class="edge">
<title>ast.Call object at 0x74531df91710&#45;&gt;ast.Constant object at 0x74531df92090</title>
<path fill="none" stroke="black" d="M427,-287.7C427,-279.98 427,-270.71 427,-262.11"/>
<polygon fill="black" stroke="black" points="430.5,-262.1 427,-252.1 423.5,-262.1 430.5,-262.1"/>
</g>
<!-- ast.Name object at 0x74531df912d0&#45;&gt;ast.Load object at 0x7454617ffb50 -->
<g id="edge15" class="edge">
<title>ast.Name object at 0x74531df912d0&#45;&gt;ast.Load object at 0x7454617ffb50</title>
<path fill="none" stroke="black" d="M535.91,-215.99C545.77,-184.27 561.54,-115.42 530,-72 501.47,-32.72 443.09,-21.98 404.51,-19.36"/>
<polygon fill="black" stroke="black" points="404.36,-15.84 394.19,-18.82 403.99,-22.83 404.36,-15.84"/>
</g>
<!-- ast.Subscript object at 0x74531df90990 -->
<g id="node17" class="node">
<title>ast.Subscript object at 0x74531df90990</title>
<path fill="#66cdaa" stroke="black" d="M468,-180C468,-180 424,-180 424,-180 418,-180 412,-174 412,-168 412,-168 412,-156 412,-156 412,-150 418,-144 424,-144 424,-144 468,-144 468,-144 474,-144 480,-150 480,-156 480,-156 480,-168 480,-168 480,-174 474,-180 468,-180"/>
<text text-anchor="middle" x="446" y="-158.3" font-family="Times,serif" font-size="14.00">Subscript</text>
</g>
<!-- ast.If object at 0x74531df91e10&#45;&gt;ast.Subscript object at 0x74531df90990 -->
<g id="edge18" class="edge">
<title>ast.If object at 0x74531df91e10&#45;&gt;ast.Subscript object at 0x74531df90990</title>
<path fill="none" stroke="black" d="M332.49,-287.7C344.17,-269.07 364.16,-239.02 385,-216 394.29,-205.74 405.47,-195.52 415.72,-186.83"/>
<polygon fill="black" stroke="black" points="418.22,-189.3 423.67,-180.22 413.75,-183.92 418.22,-189.3"/>
</g>
<!-- ast.AugAssign object at 0x74531df93c10 -->
<g id="node20" class="node">
<title>ast.AugAssign object at 0x74531df93c10</title>
<path fill="#66cdaa" stroke="black" d="M315.5,-252C315.5,-252 262.5,-252 262.5,-252 256.5,-252 250.5,-246 250.5,-240 250.5,-240 250.5,-228 250.5,-228 250.5,-222 256.5,-216 262.5,-216 262.5,-216 315.5,-216 315.5,-216 321.5,-216 327.5,-222 327.5,-228 327.5,-228 327.5,-240 327.5,-240 327.5,-246 321.5,-252 315.5,-252"/>
<text text-anchor="middle" x="289" y="-230.3" font-family="Times,serif" font-size="14.00">AugAssign</text>
</g>
<!-- ast.If object at 0x74531df91e10&#45;&gt;ast.AugAssign object at 0x74531df93c10 -->
<g id="edge24" class="edge">
<title>ast.If object at 0x74531df91e10&#45;&gt;ast.AugAssign object at 0x74531df93c10</title>
<path fill="none" stroke="black" d="M313.84,-287.7C310.09,-279.73 305.55,-270.1 301.38,-261.26"/>
<polygon fill="black" stroke="black" points="304.49,-259.66 297.06,-252.1 298.16,-262.64 304.49,-259.66"/>
</g>
<!-- ast.Subscript object at 0x74531df90990&#45;&gt;ast.Load object at 0x7454617ffb50 -->
<g id="edge23" class="edge">
<title>ast.Subscript object at 0x74531df90990&#45;&gt;ast.Load object at 0x7454617ffb50</title>
<path fill="none" stroke="black" d="M420.01,-143.98C407.9,-134.74 394.34,-122.28 386,-108 375.01,-89.18 370.34,-64.81 368.38,-46.32"/>
<polygon fill="black" stroke="black" points="371.86,-45.87 367.51,-36.21 364.88,-46.47 371.86,-45.87"/>
</g>
<!-- ast.Name object at 0x74531df93e50 -->
<g id="node18" class="node">
<title>ast.Name object at 0x74531df93e50</title>
<path fill="#66cdaa" stroke="black" d="M437,-108C437,-108 407,-108 407,-108 401,-108 395,-102 395,-96 395,-96 395,-84 395,-84 395,-78 401,-72 407,-72 407,-72 437,-72 437,-72 443,-72 449,-78 449,-84 449,-84 449,-96 449,-96 449,-102 443,-108 437,-108"/>
<text text-anchor="middle" x="422" y="-86.3" font-family="Times,serif" font-size="14.00">Name</text>
</g>
<!-- ast.Subscript object at 0x74531df90990&#45;&gt;ast.Name object at 0x74531df93e50 -->
<g id="edge19" class="edge">
<title>ast.Subscript object at 0x74531df90990&#45;&gt;ast.Name object at 0x74531df93e50</title>
<path fill="none" stroke="black" d="M440.07,-143.7C437.39,-135.9 434.17,-126.51 431.2,-117.83"/>
<polygon fill="black" stroke="black" points="434.42,-116.43 427.86,-108.1 427.8,-118.7 434.42,-116.43"/>
</g>
<!-- ast.Name object at 0x74531df92cd0 -->
<g id="node19" class="node">
<title>ast.Name object at 0x74531df92cd0</title>
<path fill="#66cdaa" stroke="black" d="M509,-108C509,-108 479,-108 479,-108 473,-108 467,-102 467,-96 467,-96 467,-84 467,-84 467,-78 473,-72 479,-72 479,-72 509,-72 509,-72 515,-72 521,-78 521,-84 521,-84 521,-96 521,-96 521,-102 515,-108 509,-108"/>
<text text-anchor="middle" x="494" y="-86.3" font-family="Times,serif" font-size="14.00">Name</text>
</g>
<!-- ast.Subscript object at 0x74531df90990&#45;&gt;ast.Name object at 0x74531df92cd0 -->
<g id="edge21" class="edge">
<title>ast.Subscript object at 0x74531df90990&#45;&gt;ast.Name object at 0x74531df92cd0</title>
<path fill="none" stroke="black" d="M457.87,-143.7C463.5,-135.47 470.35,-125.48 476.57,-116.42"/>
<polygon fill="black" stroke="black" points="479.5,-118.33 482.27,-108.1 473.73,-114.37 479.5,-118.33"/>
</g>
<!-- ast.Name object at 0x74531df93e50&#45;&gt;ast.Load object at 0x7454617ffb50 -->
<g id="edge20" class="edge">
<title>ast.Name object at 0x74531df93e50&#45;&gt;ast.Load object at 0x7454617ffb50</title>
<path fill="none" stroke="black" d="M408.4,-71.7C401.88,-63.39 393.93,-53.28 386.75,-44.14"/>
<polygon fill="black" stroke="black" points="389.37,-41.81 380.44,-36.1 383.87,-46.13 389.37,-41.81"/>
</g>
<!-- ast.Name object at 0x74531df92cd0&#45;&gt;ast.Load object at 0x7454617ffb50 -->
<g id="edge22" class="edge">
<title>ast.Name object at 0x74531df92cd0&#45;&gt;ast.Load object at 0x7454617ffb50</title>
<path fill="none" stroke="black" d="M466.76,-73.98C448.17,-63.74 423.36,-50.07 403.13,-38.92"/>
<polygon fill="black" stroke="black" points="404.65,-35.75 394.2,-33.99 401.27,-41.88 404.65,-35.75"/>
</g>
<!-- ast.Name object at 0x74531df932d0 -->
<g id="node21" class="node">
<title>ast.Name object at 0x74531df932d0</title>
<path fill="#66cdaa" stroke="black" d="M224,-180C224,-180 194,-180 194,-180 188,-180 182,-174 182,-168 182,-168 182,-156 182,-156 182,-150 188,-144 194,-144 194,-144 224,-144 224,-144 230,-144 236,-150 236,-156 236,-156 236,-168 236,-168 236,-174 230,-180 224,-180"/>
<text text-anchor="middle" x="209" y="-158.3" font-family="Times,serif" font-size="14.00">Name</text>
</g>
<!-- ast.AugAssign object at 0x74531df93c10&#45;&gt;ast.Name object at 0x74531df932d0 -->
<g id="edge25" class="edge">
<title>ast.AugAssign object at 0x74531df93c10&#45;&gt;ast.Name object at 0x74531df932d0</title>
<path fill="none" stroke="black" d="M269.22,-215.7C259.25,-206.97 246.99,-196.24 236.14,-186.75"/>
<polygon fill="black" stroke="black" points="238.38,-184.06 228.55,-180.1 233.77,-189.32 238.38,-184.06"/>
</g>
<!-- ast.BitOr object at 0x74546180c510 -->
<g id="node22" class="node">
<title>ast.BitOr object at 0x74546180c510</title>
<path fill="#66cdaa" stroke="black" d="M382,-180C382,-180 352,-180 352,-180 346,-180 340,-174 340,-168 340,-168 340,-156 340,-156 340,-150 346,-144 352,-144 352,-144 382,-144 382,-144 388,-144 394,-150 394,-156 394,-156 394,-168 394,-168 394,-174 388,-180 382,-180"/>
<text text-anchor="middle" x="367" y="-158.3" font-family="Times,serif" font-size="14.00">BitOr</text>
</g>
<!-- ast.AugAssign object at 0x74531df93c10&#45;&gt;ast.BitOr object at 0x74546180c510 -->
<g id="edge27" class="edge">
<title>ast.AugAssign object at 0x74531df93c10&#45;&gt;ast.BitOr object at 0x74546180c510</title>
<path fill="none" stroke="black" d="M308.28,-215.7C317.92,-207.05 329.73,-196.45 340.23,-187.03"/>
<polygon fill="black" stroke="black" points="342.84,-189.39 347.94,-180.1 338.16,-184.18 342.84,-189.39"/>
</g>
<!-- ast.Subscript object at 0x74531df937d0 -->
<g id="node23" class="node">
<title>ast.Subscript object at 0x74531df937d0</title>
<path fill="#66cdaa" stroke="black" d="M310,-180C310,-180 266,-180 266,-180 260,-180 254,-174 254,-168 254,-168 254,-156 254,-156 254,-150 260,-144 266,-144 266,-144 310,-144 310,-144 316,-144 322,-150 322,-156 322,-156 322,-168 322,-168 322,-174 316,-180 310,-180"/>
<text text-anchor="middle" x="288" y="-158.3" font-family="Times,serif" font-size="14.00">Subscript</text>
</g>
<!-- ast.AugAssign object at 0x74531df93c10&#45;&gt;ast.Subscript object at 0x74531df937d0 -->
<g id="edge28" class="edge">
<title>ast.AugAssign object at 0x74531df93c10&#45;&gt;ast.Subscript object at 0x74531df937d0</title>
<path fill="none" stroke="black" d="M288.75,-215.7C288.64,-207.98 288.51,-198.71 288.39,-190.11"/>
<polygon fill="black" stroke="black" points="291.89,-190.05 288.24,-180.1 284.89,-190.15 291.89,-190.05"/>
</g>
<!-- ast.Name object at 0x74531df932d0&#45;&gt;ast.Store object at 0x7454617ffbd0 -->
<g id="edge26" class="edge">
<title>ast.Name object at 0x74531df932d0&#45;&gt;ast.Store object at 0x7454617ffbd0</title>
<path fill="none" stroke="black" d="M189.47,-143.7C179.62,-134.97 167.51,-124.24 156.8,-114.75"/>
<polygon fill="black" stroke="black" points="159.11,-112.12 149.3,-108.1 154.47,-117.36 159.11,-112.12"/>
</g>
<!-- ast.Subscript object at 0x74531df937d0&#45;&gt;ast.Load object at 0x7454617ffb50 -->
<g id="edge33" class="edge">
<title>ast.Subscript object at 0x74531df937d0&#45;&gt;ast.Load object at 0x7454617ffb50</title>
<path fill="none" stroke="black" d="M254.12,-144C233.36,-132.79 209.7,-118.34 204,-108 196.27,-93.99 194.6,-84.95 204,-72 232.53,-32.72 290.91,-21.98 329.49,-19.36"/>
<polygon fill="black" stroke="black" points="330.01,-22.83 339.81,-18.82 329.64,-15.84 330.01,-22.83"/>
</g>
<!-- ast.Name object at 0x74531df91650 -->
<g id="node24" class="node">
<title>ast.Name object at 0x74531df91650</title>
<path fill="#66cdaa" stroke="black" d="M255,-108C255,-108 225,-108 225,-108 219,-108 213,-102 213,-96 213,-96 213,-84 213,-84 213,-78 219,-72 225,-72 225,-72 255,-72 255,-72 261,-72 267,-78 267,-84 267,-84 267,-96 267,-96 267,-102 261,-108 255,-108"/>
<text text-anchor="middle" x="240" y="-86.3" font-family="Times,serif" font-size="14.00">Name</text>
</g>
<!-- ast.Subscript object at 0x74531df937d0&#45;&gt;ast.Name object at 0x74531df91650 -->
<g id="edge29" class="edge">
<title>ast.Subscript object at 0x74531df937d0&#45;&gt;ast.Name object at 0x74531df91650</title>
<path fill="none" stroke="black" d="M276.13,-143.7C270.5,-135.47 263.65,-125.48 257.43,-116.42"/>
<polygon fill="black" stroke="black" points="260.27,-114.37 251.73,-108.1 254.5,-118.33 260.27,-114.37"/>
</g>
<!-- ast.Name object at 0x74531df93950 -->
<g id="node25" class="node">
<title>ast.Name object at 0x74531df93950</title>
<path fill="#66cdaa" stroke="black" d="M327,-108C327,-108 297,-108 297,-108 291,-108 285,-102 285,-96 285,-96 285,-84 285,-84 285,-78 291,-72 297,-72 297,-72 327,-72 327,-72 333,-72 339,-78 339,-84 339,-84 339,-96 339,-96 339,-102 333,-108 327,-108"/>
<text text-anchor="middle" x="312" y="-86.3" font-family="Times,serif" font-size="14.00">Name</text>
</g>
<!-- ast.Subscript object at 0x74531df937d0&#45;&gt;ast.Name object at 0x74531df93950 -->
<g id="edge31" class="edge">
<title>ast.Subscript object at 0x74531df937d0&#45;&gt;ast.Name object at 0x74531df93950</title>
<path fill="none" stroke="black" d="M293.93,-143.7C296.61,-135.9 299.83,-126.51 302.8,-117.83"/>
<polygon fill="black" stroke="black" points="306.2,-118.7 306.14,-108.1 299.58,-116.43 306.2,-118.7"/>
</g>
<!-- ast.Name object at 0x74531df91650&#45;&gt;ast.Load object at 0x7454617ffb50 -->
<g id="edge30" class="edge">
<title>ast.Name object at 0x74531df91650&#45;&gt;ast.Load object at 0x7454617ffb50</title>
<path fill="none" stroke="black" d="M267.24,-73.98C285.83,-63.74 310.64,-50.07 330.87,-38.92"/>
<polygon fill="black" stroke="black" points="332.73,-41.88 339.8,-33.99 329.35,-35.75 332.73,-41.88"/>
</g>
<!-- ast.Name object at 0x74531df93950&#45;&gt;ast.Load object at 0x7454617ffb50 -->
<g id="edge32" class="edge">
<title>ast.Name object at 0x74531df93950&#45;&gt;ast.Load object at 0x7454617ffb50</title>
<path fill="none" stroke="black" d="M325.6,-71.7C332.12,-63.39 340.07,-53.28 347.25,-44.14"/>
<polygon fill="black" stroke="black" points="350.13,-46.13 353.56,-36.1 344.63,-41.81 350.13,-46.13"/>
</g>
<!-- ast.Name object at 0x74531df93c50 -->
<g id="node27" class="node">
<title>ast.Name object at 0x74531df93c50</title>
<path fill="#66cdaa" stroke="black" d="M546,-324C546,-324 516,-324 516,-324 510,-324 504,-318 504,-312 504,-312 504,-300 504,-300 504,-294 510,-288 516,-288 516,-288 546,-288 546,-288 552,-288 558,-294 558,-300 558,-300 558,-312 558,-312 558,-318 552,-324 546,-324"/>
<text text-anchor="middle" x="531" y="-302.3" font-family="Times,serif" font-size="14.00">Name</text>
</g>
<!-- ast.Return object at 0x74531dfcf710&#45;&gt;ast.Name object at 0x74531df93c50 -->
<g id="edge35" class="edge">
<title>ast.Return object at 0x74531dfcf710&#45;&gt;ast.Name object at 0x74531df93c50</title>
<path fill="none" stroke="black" d="M472.28,-359.7C481.92,-351.05 493.73,-340.45 504.23,-331.03"/>
<polygon fill="black" stroke="black" points="506.84,-333.39 511.94,-324.1 502.16,-328.18 506.84,-333.39"/>
</g>
<!-- ast.Name object at 0x74531df93c50&#45;&gt;ast.Load object at 0x7454617ffb50 -->
<g id="edge36" class="edge">
<title>ast.Name object at 0x74531df93c50&#45;&gt;ast.Load object at 0x7454617ffb50</title>
<path fill="none" stroke="black" d="M546.18,-287.7C553.73,-277.94 562.07,-265.1 566,-252 589.09,-175.15 604.19,-132.95 552,-72 515.44,-29.3 447.03,-19.83 404.43,-18.36"/>
<polygon fill="black" stroke="black" points="404.26,-14.86 394.19,-18.14 404.11,-21.86 404.26,-14.86"/>
</g>
</g>
</svg>
