<?xml version="1.0" encoding="UTF-8" standalone="no"?>
<!DOCTYPE svg PUBLIC "-//W3C//DTD SVG 1.1//EN"
 "http://www.w3.org/Graphics/SVG/1.1/DTD/svg11.dtd">
<!-- Generated by graphviz version 2.50.0 (0)
 -->
<!-- Pages: 1 -->
<svg width="1001pt" height="620pt"
 viewBox="0.00 0.00 1000.73 620.00" xmlns="http://www.w3.org/2000/svg" xmlns:xlink="http://www.w3.org/1999/xlink">
<g id="graph0" class="graph" transform="scale(1 1) rotate(0) translate(4 616)">
<polygon fill="white" stroke="transparent" points="-4,4 -4,-616 996.73,-616 996.73,4 -4,4"/>
<!-- ast.Module object at 0x732050848e50 -->
<g id="node1" class="node">
<title>ast.Module object at 0x732050848e50</title>
<path fill="#66cdaa" stroke="black" d="M278.5,-612C278.5,-612 243.5,-612 243.5,-612 237.5,-612 231.5,-606 231.5,-600 231.5,-600 231.5,-588 231.5,-588 231.5,-582 237.5,-576 243.5,-576 243.5,-576 278.5,-576 278.5,-576 284.5,-576 290.5,-582 290.5,-588 290.5,-588 290.5,-600 290.5,-600 290.5,-606 284.5,-612 278.5,-612"/>
<text text-anchor="middle" x="261" y="-590.3" font-family="Times,serif" font-size="14.00">Module</text>
</g>
<!-- ast.FunctionDef object at 0x732050848410 -->
<g id="node2" class="node">
<title>ast.FunctionDef object at 0x732050848410</title>
<path fill="#66cdaa" stroke="black" d="M291.5,-540C291.5,-540 230.5,-540 230.5,-540 224.5,-540 218.5,-534 218.5,-528 218.5,-528 218.5,-516 218.5,-516 218.5,-510 224.5,-504 230.5,-504 230.5,-504 291.5,-504 291.5,-504 297.5,-504 303.5,-510 303.5,-516 303.5,-516 303.5,-528 303.5,-528 303.5,-534 297.5,-540 291.5,-540"/>
<text text-anchor="middle" x="261" y="-518.3" font-family="Times,serif" font-size="14.00">FunctionDef</text>
</g>
<!-- ast.Module object at 0x732050848e50&#45;&gt;ast.FunctionDef object at 0x732050848410 -->
<g id="edge1" class="edge">
<title>ast.Module object at 0x732050848e50&#45;&gt;ast.FunctionDef object at 0x732050848410</title>
<path fill="none" stroke="black" d="M261,-575.7C261,-567.98 261,-558.71 261,-550.11"/>
<polygon fill="black" stroke="black" points="264.5,-550.1 261,-540.1 257.5,-550.1 264.5,-550.1"/>
</g>
<!-- ast.arguments object at 0x73205084b890 -->
<g id="node3" class="node">
<title>ast.arguments object at 0x73205084b890</title>
<path fill="#66cdaa" stroke="black" d="M183,-468C183,-468 133,-468 133,-468 127,-468 121,-462 121,-456 121,-456 121,-444 121,-444 121,-438 127,-432 133,-432 133,-432 183,-432 183,-432 189,-432 195,-438 195,-444 195,-444 195,-456 195,-456 195,-462 189,-468 183,-468"/>
<text text-anchor="middle" x="158" y="-446.3" font-family="Times,serif" font-size="14.00">arguments</text>
</g>
<!-- ast.FunctionDef object at 0x732050848410&#45;&gt;ast.arguments object at 0x73205084b890 -->
<g id="edge2" class="edge">
<title>ast.FunctionDef object at 0x732050848410&#45;&gt;ast.arguments object at 0x73205084b890</title>
<path fill="none" stroke="black" d="M235.8,-503.88C222.59,-494.89 206.21,-483.76 191.89,-474.03"/>
<polygon fill="black" stroke="black" points="193.53,-470.92 183.29,-468.19 189.6,-476.71 193.53,-470.92"/>
</g>
<!-- ast.Assign object at 0x732050849c10 -->
<g id="node5" class="node">
<title>ast.Assign object at 0x732050849c10</title>
<path fill="#66cdaa" stroke="black" d="M114,-324C114,-324 84,-324 84,-324 78,-324 72,-318 72,-312 72,-312 72,-300 72,-300 72,-294 78,-288 84,-288 84,-288 114,-288 114,-288 120,-288 126,-294 126,-300 126,-300 126,-312 126,-312 126,-318 120,-324 114,-324"/>
<text text-anchor="middle" x="99" y="-302.3" font-family="Times,serif" font-size="14.00">Assign</text>
</g>
<!-- ast.FunctionDef object at 0x732050848410&#45;&gt;ast.Assign object at 0x732050849c10 -->
<g id="edge4" class="edge">
<title>ast.FunctionDef object at 0x732050848410&#45;&gt;ast.Assign object at 0x732050849c10</title>
<path fill="none" stroke="black" d="M257.78,-503.98C251.03,-472.26 232.68,-403.39 194,-360 178.23,-342.31 155.1,-329.23 135.61,-320.49"/>
<polygon fill="black" stroke="black" points="136.95,-317.26 126.38,-316.55 134.2,-323.7 136.95,-317.26"/>
</g>
<!-- ast.Assign object at 0x7320508494d0 -->
<g id="node11" class="node">
<title>ast.Assign object at 0x7320508494d0</title>
<path fill="#66cdaa" stroke="black" d="M224,-324C224,-324 194,-324 194,-324 188,-324 182,-318 182,-312 182,-312 182,-300 182,-300 182,-294 188,-288 194,-288 194,-288 224,-288 224,-288 230,-288 236,-294 236,-300 236,-300 236,-312 236,-312 236,-318 230,-324 224,-324"/>
<text text-anchor="middle" x="209" y="-302.3" font-family="Times,serif" font-size="14.00">Assign</text>
</g>
<!-- ast.FunctionDef object at 0x732050848410&#45;&gt;ast.Assign object at 0x7320508494d0 -->
<g id="edge10" class="edge">
<title>ast.FunctionDef object at 0x732050848410&#45;&gt;ast.Assign object at 0x7320508494d0</title>
<path fill="none" stroke="black" d="M260.33,-503.64C258.74,-473.65 253.56,-410.48 237,-360 233.98,-350.8 229.46,-341.3 224.93,-332.91"/>
<polygon fill="black" stroke="black" points="227.86,-330.98 219.89,-324.01 221.77,-334.43 227.86,-330.98"/>
</g>
<!-- ast.For object at 0x732050849b10 -->
<g id="node16" class="node">
<title>ast.For object at 0x732050849b10</title>
<path fill="#66cdaa" stroke="black" d="M419,-468C419,-468 389,-468 389,-468 383,-468 377,-462 377,-456 377,-456 377,-444 377,-444 377,-438 383,-432 389,-432 389,-432 419,-432 419,-432 425,-432 431,-438 431,-444 431,-444 431,-456 431,-456 431,-462 425,-468 419,-468"/>
<text text-anchor="middle" x="404" y="-446.3" font-family="Times,serif" font-size="14.00">For</text>
</g>
<!-- ast.FunctionDef object at 0x732050848410&#45;&gt;ast.For object at 0x732050849b10 -->
<g id="edge18" class="edge">
<title>ast.FunctionDef object at 0x732050848410&#45;&gt;ast.For object at 0x732050849b10</title>
<path fill="none" stroke="black" d="M295.98,-503.88C317.83,-493.18 345.9,-479.44 367.95,-468.65"/>
<polygon fill="black" stroke="black" points="369.55,-471.76 376.99,-464.22 366.47,-465.47 369.55,-471.76"/>
</g>
<!-- ast.Return object at 0x732050aec6d0 -->
<g id="node42" class="node">
<title>ast.Return object at 0x732050aec6d0</title>
<path fill="#66cdaa" stroke="black" d="M665,-468C665,-468 635,-468 635,-468 629,-468 623,-462 623,-456 623,-456 623,-444 623,-444 623,-438 629,-432 635,-432 635,-432 665,-432 665,-432 671,-432 677,-438 677,-444 677,-444 677,-456 677,-456 677,-462 671,-468 665,-468"/>
<text text-anchor="middle" x="650" y="-446.3" font-family="Times,serif" font-size="14.00">Return</text>
</g>
<!-- ast.FunctionDef object at 0x732050848410&#45;&gt;ast.Return object at 0x732050aec6d0 -->
<g id="edge54" class="edge">
<title>ast.FunctionDef object at 0x732050848410&#45;&gt;ast.Return object at 0x732050aec6d0</title>
<path fill="none" stroke="black" d="M303.74,-513.31C380.49,-499.5 540.4,-470.72 612.87,-457.68"/>
<polygon fill="black" stroke="black" points="613.69,-461.09 622.91,-455.87 612.45,-454.2 613.69,-461.09"/>
</g>
<!-- ast.arg object at 0x732050849410 -->
<g id="node4" class="node">
<title>ast.arg object at 0x732050849410</title>
<path fill="#66cdaa" stroke="black" d="M173,-396C173,-396 143,-396 143,-396 137,-396 131,-390 131,-384 131,-384 131,-372 131,-372 131,-366 137,-360 143,-360 143,-360 173,-360 173,-360 179,-360 185,-366 185,-372 185,-372 185,-384 185,-384 185,-390 179,-396 173,-396"/>
<text text-anchor="middle" x="158" y="-374.3" font-family="Times,serif" font-size="14.00">arg</text>
</g>
<!-- ast.arguments object at 0x73205084b890&#45;&gt;ast.arg object at 0x732050849410 -->
<g id="edge3" class="edge">
<title>ast.arguments object at 0x73205084b890&#45;&gt;ast.arg object at 0x732050849410</title>
<path fill="none" stroke="black" d="M158,-431.7C158,-423.98 158,-414.71 158,-406.11"/>
<polygon fill="black" stroke="black" points="161.5,-406.1 158,-396.1 154.5,-406.1 161.5,-406.1"/>
</g>
<!-- ast.Name object at 0x73205084a790 -->
<g id="node6" class="node">
<title>ast.Name object at 0x73205084a790</title>
<path fill="#66cdaa" stroke="black" d="M114,-252C114,-252 84,-252 84,-252 78,-252 72,-246 72,-240 72,-240 72,-228 72,-228 72,-222 78,-216 84,-216 84,-216 114,-216 114,-216 120,-216 126,-222 126,-228 126,-228 126,-240 126,-240 126,-246 120,-252 114,-252"/>
<text text-anchor="middle" x="99" y="-230.3" font-family="Times,serif" font-size="14.00">Name</text>
</g>
<!-- ast.Assign object at 0x732050849c10&#45;&gt;ast.Name object at 0x73205084a790 -->
<g id="edge5" class="edge">
<title>ast.Assign object at 0x732050849c10&#45;&gt;ast.Name object at 0x73205084a790</title>
<path fill="none" stroke="black" d="M99,-287.7C99,-279.98 99,-270.71 99,-262.11"/>
<polygon fill="black" stroke="black" points="102.5,-262.1 99,-252.1 95.5,-262.1 102.5,-262.1"/>
</g>
<!-- ast.Call object at 0x732050849310 -->
<g id="node8" class="node">
<title>ast.Call object at 0x732050849310</title>
<path fill="#66cdaa" stroke="black" d="M42,-252C42,-252 12,-252 12,-252 6,-252 0,-246 0,-240 0,-240 0,-228 0,-228 0,-222 6,-216 12,-216 12,-216 42,-216 42,-216 48,-216 54,-222 54,-228 54,-228 54,-240 54,-240 54,-246 48,-252 42,-252"/>
<text text-anchor="middle" x="27" y="-230.3" font-family="Times,serif" font-size="14.00">Call</text>
</g>
<!-- ast.Assign object at 0x732050849c10&#45;&gt;ast.Call object at 0x732050849310 -->
<g id="edge7" class="edge">
<title>ast.Assign object at 0x732050849c10&#45;&gt;ast.Call object at 0x732050849310</title>
<path fill="none" stroke="black" d="M81.2,-287.7C72.4,-279.14 61.62,-268.66 52,-259.3"/>
<polygon fill="black" stroke="black" points="54.2,-256.57 44.59,-252.1 49.32,-261.58 54.2,-256.57"/>
</g>
<!-- ast.Store object at 0x732101db6c90 -->
<g id="node7" class="node">
<title>ast.Store object at 0x732101db6c90</title>
<path fill="#66cdaa" stroke="black" d="M271,-180C271,-180 241,-180 241,-180 235,-180 229,-174 229,-168 229,-168 229,-156 229,-156 229,-150 235,-144 241,-144 241,-144 271,-144 271,-144 277,-144 283,-150 283,-156 283,-156 283,-168 283,-168 283,-174 277,-180 271,-180"/>
<text text-anchor="middle" x="256" y="-158.3" font-family="Times,serif" font-size="14.00">Store</text>
</g>
<!-- ast.Name object at 0x73205084a790&#45;&gt;ast.Store object at 0x732101db6c90 -->
<g id="edge6" class="edge">
<title>ast.Name object at 0x73205084a790&#45;&gt;ast.Store object at 0x732101db6c90</title>
<path fill="none" stroke="black" d="M126.35,-220.81C152.24,-209.26 191.27,-191.86 219.75,-179.16"/>
<polygon fill="black" stroke="black" points="221.26,-182.32 228.97,-175.05 218.41,-175.93 221.26,-182.32"/>
</g>
<!-- ast.Name object at 0x73205084b4d0 -->
<g id="node9" class="node">
<title>ast.Name object at 0x73205084b4d0</title>
<path fill="#66cdaa" stroke="black" d="M72,-108C72,-108 42,-108 42,-108 36,-108 30,-102 30,-96 30,-96 30,-84 30,-84 30,-78 36,-72 42,-72 42,-72 72,-72 72,-72 78,-72 84,-78 84,-84 84,-84 84,-96 84,-96 84,-102 78,-108 72,-108"/>
<text text-anchor="middle" x="57" y="-86.3" font-family="Times,serif" font-size="14.00">Name</text>
</g>
<!-- ast.Call object at 0x732050849310&#45;&gt;ast.Name object at 0x73205084b4d0 -->
<g id="edge8" class="edge">
<title>ast.Call object at 0x732050849310&#45;&gt;ast.Name object at 0x73205084b4d0</title>
<path fill="none" stroke="black" d="M30.62,-215.87C35.75,-191.56 45.21,-146.82 51.29,-118.01"/>
<polygon fill="black" stroke="black" points="54.73,-118.7 53.37,-108.19 47.88,-117.25 54.73,-118.7"/>
</g>
<!-- ast.Load object at 0x732101db6c10 -->
<g id="node10" class="node">
<title>ast.Load object at 0x732101db6c10</title>
<path fill="#66cdaa" stroke="black" d="M527,-36C527,-36 497,-36 497,-36 491,-36 485,-30 485,-24 485,-24 485,-12 485,-12 485,-6 491,0 497,0 497,0 527,0 527,0 533,0 539,-6 539,-12 539,-12 539,-24 539,-24 539,-30 533,-36 527,-36"/>
<text text-anchor="middle" x="512" y="-14.3" font-family="Times,serif" font-size="14.00">Load</text>
</g>
<!-- ast.Name object at 0x73205084b4d0&#45;&gt;ast.Load object at 0x732101db6c10 -->
<g id="edge9" class="edge">
<title>ast.Name object at 0x73205084b4d0&#45;&gt;ast.Load object at 0x732101db6c10</title>
<path fill="none" stroke="black" d="M84.26,-79.04C92.16,-76.44 100.85,-73.85 109,-72 241.55,-41.89 402.77,-27.09 474.49,-21.6"/>
<polygon fill="black" stroke="black" points="475.1,-25.07 484.81,-20.83 474.58,-18.08 475.1,-25.07"/>
</g>
<!-- ast.Name object at 0x73205084abd0 -->
<g id="node12" class="node">
<title>ast.Name object at 0x73205084abd0</title>
<path fill="#66cdaa" stroke="black" d="M224,-252C224,-252 194,-252 194,-252 188,-252 182,-246 182,-240 182,-240 182,-228 182,-228 182,-222 188,-216 194,-216 194,-216 224,-216 224,-216 230,-216 236,-222 236,-228 236,-228 236,-240 236,-240 236,-246 230,-252 224,-252"/>
<text text-anchor="middle" x="209" y="-230.3" font-family="Times,serif" font-size="14.00">Name</text>
</g>
<!-- ast.Assign object at 0x7320508494d0&#45;&gt;ast.Name object at 0x73205084abd0 -->
<g id="edge11" class="edge">
<title>ast.Assign object at 0x7320508494d0&#45;&gt;ast.Name object at 0x73205084abd0</title>
<path fill="none" stroke="black" d="M209,-287.7C209,-279.98 209,-270.71 209,-262.11"/>
<polygon fill="black" stroke="black" points="212.5,-262.1 209,-252.1 205.5,-262.1 212.5,-262.1"/>
</g>
<!-- ast.Subscript object at 0x73205084b350 -->
<g id="node13" class="node">
<title>ast.Subscript object at 0x73205084b350</title>
<path fill="#66cdaa" stroke="black" d="M184,-180C184,-180 140,-180 140,-180 134,-180 128,-174 128,-168 128,-168 128,-156 128,-156 128,-150 134,-144 140,-144 140,-144 184,-144 184,-144 190,-144 196,-150 196,-156 196,-156 196,-168 196,-168 196,-174 190,-180 184,-180"/>
<text text-anchor="middle" x="162" y="-158.3" font-family="Times,serif" font-size="14.00">Subscript</text>
</g>
<!-- ast.Assign object at 0x7320508494d0&#45;&gt;ast.Subscript object at 0x73205084b350 -->
<g id="edge13" class="edge">
<title>ast.Assign object at 0x7320508494d0&#45;&gt;ast.Subscript object at 0x73205084b350</title>
<path fill="none" stroke="black" d="M194.03,-287.56C186.45,-277.75 177.86,-264.91 173,-252 165.57,-232.24 162.92,-208.44 162.08,-190.42"/>
<polygon fill="black" stroke="black" points="165.57,-190.19 161.76,-180.3 158.58,-190.4 165.57,-190.19"/>
</g>
<!-- ast.Name object at 0x73205084abd0&#45;&gt;ast.Store object at 0x732101db6c90 -->
<g id="edge12" class="edge">
<title>ast.Name object at 0x73205084abd0&#45;&gt;ast.Store object at 0x732101db6c90</title>
<path fill="none" stroke="black" d="M220.62,-215.7C226.14,-207.47 232.85,-197.48 238.93,-188.42"/>
<polygon fill="black" stroke="black" points="241.85,-190.36 244.52,-180.1 236.04,-186.46 241.85,-190.36"/>
</g>
<!-- ast.Subscript object at 0x73205084b350&#45;&gt;ast.Load object at 0x732101db6c10 -->
<g id="edge17" class="edge">
<title>ast.Subscript object at 0x73205084b350&#45;&gt;ast.Load object at 0x732101db6c10</title>
<path fill="none" stroke="black" d="M170.34,-143.85C181.27,-123.29 202.48,-89.44 231,-72 271.4,-47.29 407.66,-29.97 474.46,-22.75"/>
<polygon fill="black" stroke="black" points="474.98,-26.22 484.56,-21.68 474.24,-19.26 474.98,-26.22"/>
</g>
<!-- ast.Name object at 0x73205084b250 -->
<g id="node14" class="node">
<title>ast.Name object at 0x73205084b250</title>
<path fill="#66cdaa" stroke="black" d="M282,-108C282,-108 252,-108 252,-108 246,-108 240,-102 240,-96 240,-96 240,-84 240,-84 240,-78 246,-72 252,-72 252,-72 282,-72 282,-72 288,-72 294,-78 294,-84 294,-84 294,-96 294,-96 294,-102 288,-108 282,-108"/>
<text text-anchor="middle" x="267" y="-86.3" font-family="Times,serif" font-size="14.00">Name</text>
</g>
<!-- ast.Subscript object at 0x73205084b350&#45;&gt;ast.Name object at 0x73205084b250 -->
<g id="edge14" class="edge">
<title>ast.Subscript object at 0x73205084b350&#45;&gt;ast.Name object at 0x73205084b250</title>
<path fill="none" stroke="black" d="M187.69,-143.88C201.29,-134.81 218.17,-123.55 232.86,-113.76"/>
<polygon fill="black" stroke="black" points="234.84,-116.65 241.22,-108.19 230.95,-110.82 234.84,-116.65"/>
</g>
<!-- ast.Constant object at 0x73205084a990 -->
<g id="node15" class="node">
<title>ast.Constant object at 0x73205084a990</title>
<path fill="#66cdaa" stroke="black" d="M171.5,-108C171.5,-108 130.5,-108 130.5,-108 124.5,-108 118.5,-102 118.5,-96 118.5,-96 118.5,-84 118.5,-84 118.5,-78 124.5,-72 130.5,-72 130.5,-72 171.5,-72 171.5,-72 177.5,-72 183.5,-78 183.5,-84 183.5,-84 183.5,-96 183.5,-96 183.5,-102 177.5,-108 171.5,-108"/>
<text text-anchor="middle" x="151" y="-86.3" font-family="Times,serif" font-size="14.00">Constant</text>
</g>
<!-- ast.Subscript object at 0x73205084b350&#45;&gt;ast.Constant object at 0x73205084a990 -->
<g id="edge16" class="edge">
<title>ast.Subscript object at 0x73205084b350&#45;&gt;ast.Constant object at 0x73205084a990</title>
<path fill="none" stroke="black" d="M159.28,-143.7C158.07,-135.98 156.61,-126.71 155.26,-118.11"/>
<polygon fill="black" stroke="black" points="158.7,-117.44 153.69,-108.1 151.78,-118.53 158.7,-117.44"/>
</g>
<!-- ast.Name object at 0x73205084b250&#45;&gt;ast.Load object at 0x732101db6c10 -->
<g id="edge15" class="edge">
<title>ast.Name object at 0x73205084b250&#45;&gt;ast.Load object at 0x732101db6c10</title>
<path fill="none" stroke="black" d="M294.15,-77.13C298.73,-75.3 303.47,-73.52 308,-72 365.41,-52.74 433.84,-36.24 475.05,-26.97"/>
<polygon fill="black" stroke="black" points="475.92,-30.36 484.92,-24.77 474.4,-23.53 475.92,-30.36"/>
</g>
<!-- ast.Name object at 0x732050848990 -->
<g id="node17" class="node">
<title>ast.Name object at 0x732050848990</title>
<path fill="#66cdaa" stroke="black" d="M383,-396C383,-396 353,-396 353,-396 347,-396 341,-390 341,-384 341,-384 341,-372 341,-372 341,-366 347,-360 353,-360 353,-360 383,-360 383,-360 389,-360 395,-366 395,-372 395,-372 395,-384 395,-384 395,-390 389,-396 383,-396"/>
<text text-anchor="middle" x="368" y="-374.3" font-family="Times,serif" font-size="14.00">Name</text>
</g>
<!-- ast.For object at 0x732050849b10&#45;&gt;ast.Name object at 0x732050848990 -->
<g id="edge19" class="edge">
<title>ast.For object at 0x732050849b10&#45;&gt;ast.Name object at 0x732050848990</title>
<path fill="none" stroke="black" d="M395.1,-431.7C391,-423.73 386.05,-414.1 381.51,-405.26"/>
<polygon fill="black" stroke="black" points="384.48,-403.4 376.8,-396.1 378.26,-406.6 384.48,-403.4"/>
</g>
<!-- ast.Call object at 0x73205084aa90 -->
<g id="node18" class="node">
<title>ast.Call object at 0x73205084aa90</title>
<path fill="#66cdaa" stroke="black" d="M821,-252C821,-252 791,-252 791,-252 785,-252 779,-246 779,-240 779,-240 779,-228 779,-228 779,-222 785,-216 791,-216 791,-216 821,-216 821,-216 827,-216 833,-222 833,-228 833,-228 833,-240 833,-240 833,-246 827,-252 821,-252"/>
<text text-anchor="middle" x="806" y="-230.3" font-family="Times,serif" font-size="14.00">Call</text>
</g>
<!-- ast.For object at 0x732050849b10&#45;&gt;ast.Call object at 0x73205084aa90 -->
<g id="edge21" class="edge">
<title>ast.For object at 0x732050849b10&#45;&gt;ast.Call object at 0x73205084aa90</title>
<path fill="none" stroke="black" d="M431.29,-435.78C477.08,-413.45 572.12,-366.57 651,-324 692.26,-301.74 738.81,-274.75 770.03,-256.37"/>
<polygon fill="black" stroke="black" points="771.97,-259.29 778.81,-251.2 768.41,-253.26 771.97,-259.29"/>
</g>
<!-- ast.While object at 0x7320954af310 -->
<g id="node25" class="node">
<title>ast.While object at 0x7320954af310</title>
<path fill="#66cdaa" stroke="black" d="M485,-396C485,-396 455,-396 455,-396 449,-396 443,-390 443,-384 443,-384 443,-372 443,-372 443,-366 449,-360 455,-360 455,-360 485,-360 485,-360 491,-360 497,-366 497,-372 497,-372 497,-384 497,-384 497,-390 491,-396 485,-396"/>
<text text-anchor="middle" x="470" y="-374.3" font-family="Times,serif" font-size="14.00">While</text>
</g>
<!-- ast.For object at 0x732050849b10&#45;&gt;ast.While object at 0x7320954af310 -->
<g id="edge30" class="edge">
<title>ast.For object at 0x732050849b10&#45;&gt;ast.While object at 0x7320954af310</title>
<path fill="none" stroke="black" d="M420.31,-431.7C428.31,-423.22 438.07,-412.86 446.82,-403.58"/>
<polygon fill="black" stroke="black" points="449.56,-405.78 453.87,-396.1 444.47,-400.98 449.56,-405.78"/>
</g>
<!-- ast.Name object at 0x732050848990&#45;&gt;ast.Store object at 0x732101db6c90 -->
<g id="edge20" class="edge">
<title>ast.Name object at 0x732050848990&#45;&gt;ast.Store object at 0x732101db6c90</title>
<path fill="none" stroke="black" d="M353.8,-359.82C335.25,-336.63 302.8,-293.44 283,-252 273.51,-232.15 266.48,-208.22 261.97,-190.17"/>
<polygon fill="black" stroke="black" points="265.34,-189.21 259.61,-180.3 258.53,-190.84 265.34,-189.21"/>
</g>
<!-- ast.Name object at 0x73205084a010 -->
<g id="node19" class="node">
<title>ast.Name object at 0x73205084a010</title>
<path fill="#66cdaa" stroke="black" d="M782,-180C782,-180 752,-180 752,-180 746,-180 740,-174 740,-168 740,-168 740,-156 740,-156 740,-150 746,-144 752,-144 752,-144 782,-144 782,-144 788,-144 794,-150 794,-156 794,-156 794,-168 794,-168 794,-174 788,-180 782,-180"/>
<text text-anchor="middle" x="767" y="-158.3" font-family="Times,serif" font-size="14.00">Name</text>
</g>
<!-- ast.Call object at 0x73205084aa90&#45;&gt;ast.Name object at 0x73205084a010 -->
<g id="edge22" class="edge">
<title>ast.Call object at 0x73205084aa90&#45;&gt;ast.Name object at 0x73205084a010</title>
<path fill="none" stroke="black" d="M796.36,-215.7C791.87,-207.64 786.44,-197.89 781.48,-188.98"/>
<polygon fill="black" stroke="black" points="784.45,-187.14 776.53,-180.1 778.34,-190.54 784.45,-187.14"/>
</g>
<!-- ast.Constant object at 0x73205084ac90 -->
<g id="node20" class="node">
<title>ast.Constant object at 0x73205084ac90</title>
<path fill="#66cdaa" stroke="black" d="M865.5,-180C865.5,-180 824.5,-180 824.5,-180 818.5,-180 812.5,-174 812.5,-168 812.5,-168 812.5,-156 812.5,-156 812.5,-150 818.5,-144 824.5,-144 824.5,-144 865.5,-144 865.5,-144 871.5,-144 877.5,-150 877.5,-156 877.5,-156 877.5,-168 877.5,-168 877.5,-174 871.5,-180 865.5,-180"/>
<text text-anchor="middle" x="845" y="-158.3" font-family="Times,serif" font-size="14.00">Constant</text>
</g>
<!-- ast.Call object at 0x73205084aa90&#45;&gt;ast.Constant object at 0x73205084ac90 -->
<g id="edge24" class="edge">
<title>ast.Call object at 0x73205084aa90&#45;&gt;ast.Constant object at 0x73205084ac90</title>
<path fill="none" stroke="black" d="M815.64,-215.7C820.13,-207.64 825.56,-197.89 830.52,-188.98"/>
<polygon fill="black" stroke="black" points="833.66,-190.54 835.47,-180.1 827.55,-187.14 833.66,-190.54"/>
</g>
<!-- ast.BinOp object at 0x73205084b210 -->
<g id="node21" class="node">
<title>ast.BinOp object at 0x73205084b210</title>
<path fill="#66cdaa" stroke="black" d="M938,-180C938,-180 908,-180 908,-180 902,-180 896,-174 896,-168 896,-168 896,-156 896,-156 896,-150 902,-144 908,-144 908,-144 938,-144 938,-144 944,-144 950,-150 950,-156 950,-156 950,-168 950,-168 950,-174 944,-180 938,-180"/>
<text text-anchor="middle" x="923" y="-158.3" font-family="Times,serif" font-size="14.00">BinOp</text>
</g>
<!-- ast.Call object at 0x73205084aa90&#45;&gt;ast.BinOp object at 0x73205084b210 -->
<g id="edge25" class="edge">
<title>ast.Call object at 0x73205084aa90&#45;&gt;ast.BinOp object at 0x73205084b210</title>
<path fill="none" stroke="black" d="M833.14,-216.76C849.12,-207.2 869.53,-194.99 886.86,-184.62"/>
<polygon fill="black" stroke="black" points="888.82,-187.53 895.61,-179.39 885.23,-181.52 888.82,-187.53"/>
</g>
<!-- ast.Name object at 0x73205084a010&#45;&gt;ast.Load object at 0x732101db6c10 -->
<g id="edge23" class="edge">
<title>ast.Name object at 0x73205084a010&#45;&gt;ast.Load object at 0x732101db6c10</title>
<path fill="none" stroke="black" d="M756.65,-144C743.56,-123.91 719.18,-90.85 690,-72 646.3,-43.78 586.99,-30.08 549.09,-23.8"/>
<polygon fill="black" stroke="black" points="549.43,-20.31 539.01,-22.23 548.34,-27.23 549.43,-20.31"/>
</g>
<!-- ast.Name object at 0x73204b583150 -->
<g id="node22" class="node">
<title>ast.Name object at 0x73204b583150</title>
<path fill="#66cdaa" stroke="black" d="M794,-108C794,-108 764,-108 764,-108 758,-108 752,-102 752,-96 752,-96 752,-84 752,-84 752,-78 758,-72 764,-72 764,-72 794,-72 794,-72 800,-72 806,-78 806,-84 806,-84 806,-96 806,-96 806,-102 800,-108 794,-108"/>
<text text-anchor="middle" x="779" y="-86.3" font-family="Times,serif" font-size="14.00">Name</text>
</g>
<!-- ast.BinOp object at 0x73205084b210&#45;&gt;ast.Name object at 0x73204b583150 -->
<g id="edge26" class="edge">
<title>ast.BinOp object at 0x73205084b210&#45;&gt;ast.Name object at 0x73204b583150</title>
<path fill="none" stroke="black" d="M895.91,-147.83C873.23,-136.81 840.64,-120.97 815.63,-108.81"/>
<polygon fill="black" stroke="black" points="816.98,-105.57 806.45,-104.35 813.92,-111.87 816.98,-105.57"/>
</g>
<!-- ast.Add object at 0x732101db7110 -->
<g id="node23" class="node">
<title>ast.Add object at 0x732101db7110</title>
<path fill="#66cdaa" stroke="black" d="M866,-108C866,-108 836,-108 836,-108 830,-108 824,-102 824,-96 824,-96 824,-84 824,-84 824,-78 830,-72 836,-72 836,-72 866,-72 866,-72 872,-72 878,-78 878,-84 878,-84 878,-96 878,-96 878,-102 872,-108 866,-108"/>
<text text-anchor="middle" x="851" y="-86.3" font-family="Times,serif" font-size="14.00">Add</text>
</g>
<!-- ast.BinOp object at 0x73205084b210&#45;&gt;ast.Add object at 0x732101db7110 -->
<g id="edge28" class="edge">
<title>ast.BinOp object at 0x73205084b210&#45;&gt;ast.Add object at 0x732101db7110</title>
<path fill="none" stroke="black" d="M905.2,-143.7C896.4,-135.14 885.62,-124.66 876,-115.3"/>
<polygon fill="black" stroke="black" points="878.2,-112.57 868.59,-108.1 873.32,-117.58 878.2,-112.57"/>
</g>
<!-- ast.Constant object at 0x732050ca3ad0 -->
<g id="node24" class="node">
<title>ast.Constant object at 0x732050ca3ad0</title>
<path fill="#66cdaa" stroke="black" d="M949.5,-108C949.5,-108 908.5,-108 908.5,-108 902.5,-108 896.5,-102 896.5,-96 896.5,-96 896.5,-84 896.5,-84 896.5,-78 902.5,-72 908.5,-72 908.5,-72 949.5,-72 949.5,-72 955.5,-72 961.5,-78 961.5,-84 961.5,-84 961.5,-96 961.5,-96 961.5,-102 955.5,-108 949.5,-108"/>
<text text-anchor="middle" x="929" y="-86.3" font-family="Times,serif" font-size="14.00">Constant</text>
</g>
<!-- ast.BinOp object at 0x73205084b210&#45;&gt;ast.Constant object at 0x732050ca3ad0 -->
<g id="edge29" class="edge">
<title>ast.BinOp object at 0x73205084b210&#45;&gt;ast.Constant object at 0x732050ca3ad0</title>
<path fill="none" stroke="black" d="M924.48,-143.7C925.14,-135.98 925.94,-126.71 926.68,-118.11"/>
<polygon fill="black" stroke="black" points="930.17,-118.37 927.53,-108.1 923.19,-117.77 930.17,-118.37"/>
</g>
<!-- ast.Name object at 0x73204b583150&#45;&gt;ast.Load object at 0x732101db6c10 -->
<g id="edge27" class="edge">
<title>ast.Name object at 0x73204b583150&#45;&gt;ast.Load object at 0x732101db6c10</title>
<path fill="none" stroke="black" d="M751.88,-77.03C747.3,-75.22 742.55,-73.47 738,-72 672.7,-50.96 594.31,-34.46 549.11,-25.77"/>
<polygon fill="black" stroke="black" points="549.65,-22.32 539.18,-23.89 548.35,-29.19 549.65,-22.32"/>
</g>
<!-- ast.Compare object at 0x732050df8050 -->
<g id="node26" class="node">
<title>ast.Compare object at 0x732050df8050</title>
<path fill="#66cdaa" stroke="black" d="M575.5,-252C575.5,-252 532.5,-252 532.5,-252 526.5,-252 520.5,-246 520.5,-240 520.5,-240 520.5,-228 520.5,-228 520.5,-222 526.5,-216 532.5,-216 532.5,-216 575.5,-216 575.5,-216 581.5,-216 587.5,-222 587.5,-228 587.5,-228 587.5,-240 587.5,-240 587.5,-246 581.5,-252 575.5,-252"/>
<text text-anchor="middle" x="554" y="-230.3" font-family="Times,serif" font-size="14.00">Compare</text>
</g>
<!-- ast.While object at 0x7320954af310&#45;&gt;ast.Compare object at 0x732050df8050 -->
<g id="edge31" class="edge">
<title>ast.While object at 0x7320954af310&#45;&gt;ast.Compare object at 0x732050df8050</title>
<path fill="none" stroke="black" d="M480.13,-359.87C494.7,-335.24 521.68,-289.64 538.69,-260.88"/>
<polygon fill="black" stroke="black" points="541.75,-262.58 543.83,-252.19 535.73,-259.01 541.75,-262.58"/>
</g>
<!-- ast.Expr object at 0x7320954adf50 -->
<g id="node33" class="node">
<title>ast.Expr object at 0x7320954adf50</title>
<path fill="#66cdaa" stroke="black" d="M630,-324C630,-324 600,-324 600,-324 594,-324 588,-318 588,-312 588,-312 588,-300 588,-300 588,-294 594,-288 600,-288 600,-288 630,-288 630,-288 636,-288 642,-294 642,-300 642,-300 642,-312 642,-312 642,-318 636,-324 630,-324"/>
<text text-anchor="middle" x="615" y="-302.3" font-family="Times,serif" font-size="14.00">Expr</text>
</g>
<!-- ast.While object at 0x7320954af310&#45;&gt;ast.Expr object at 0x7320954adf50 -->
<g id="edge40" class="edge">
<title>ast.While object at 0x7320954af310&#45;&gt;ast.Expr object at 0x7320954adf50</title>
<path fill="none" stroke="black" d="M497.27,-363.83C520.26,-352.74 553.35,-336.76 578.59,-324.58"/>
<polygon fill="black" stroke="black" points="580.37,-327.61 587.85,-320.11 577.32,-321.3 580.37,-327.61"/>
</g>
<!-- ast.AugAssign object at 0x732050df9710 -->
<g id="node38" class="node">
<title>ast.AugAssign object at 0x732050df9710</title>
<path fill="#66cdaa" stroke="black" d="M440.5,-324C440.5,-324 387.5,-324 387.5,-324 381.5,-324 375.5,-318 375.5,-312 375.5,-312 375.5,-300 375.5,-300 375.5,-294 381.5,-288 387.5,-288 387.5,-288 440.5,-288 440.5,-288 446.5,-288 452.5,-294 452.5,-300 452.5,-300 452.5,-312 452.5,-312 452.5,-318 446.5,-324 440.5,-324"/>
<text text-anchor="middle" x="414" y="-302.3" font-family="Times,serif" font-size="14.00">AugAssign</text>
</g>
<!-- ast.While object at 0x7320954af310&#45;&gt;ast.AugAssign object at 0x732050df9710 -->
<g id="edge48" class="edge">
<title>ast.While object at 0x7320954af310&#45;&gt;ast.AugAssign object at 0x732050df9710</title>
<path fill="none" stroke="black" d="M456.16,-359.7C449.51,-351.39 441.42,-341.28 434.11,-332.14"/>
<polygon fill="black" stroke="black" points="436.66,-329.73 427.68,-324.1 431.2,-334.1 436.66,-329.73"/>
</g>
<!-- ast.BinOp object at 0x732050dfb050 -->
<g id="node27" class="node">
<title>ast.BinOp object at 0x732050dfb050</title>
<path fill="#66cdaa" stroke="black" d="M398,-180C398,-180 368,-180 368,-180 362,-180 356,-174 356,-168 356,-168 356,-156 356,-156 356,-150 362,-144 368,-144 368,-144 398,-144 398,-144 404,-144 410,-150 410,-156 410,-156 410,-168 410,-168 410,-174 404,-180 398,-180"/>
<text text-anchor="middle" x="383" y="-158.3" font-family="Times,serif" font-size="14.00">BinOp</text>
</g>
<!-- ast.Compare object at 0x732050df8050&#45;&gt;ast.BinOp object at 0x732050dfb050 -->
<g id="edge32" class="edge">
<title>ast.Compare object at 0x732050df8050&#45;&gt;ast.BinOp object at 0x732050dfb050</title>
<path fill="none" stroke="black" d="M520.24,-219.66C480.95,-204.13 421.23,-180.53 420,-180 419.8,-179.91 419.59,-179.83 419.39,-179.74"/>
<polygon fill="black" stroke="black" points="420.57,-176.43 410,-175.61 417.75,-182.84 420.57,-176.43"/>
</g>
<!-- ast.Eq object at 0x732101db7c10 -->
<g id="node31" class="node">
<title>ast.Eq object at 0x732101db7c10</title>
<path fill="#66cdaa" stroke="black" d="M554,-180C554,-180 524,-180 524,-180 518,-180 512,-174 512,-168 512,-168 512,-156 512,-156 512,-150 518,-144 524,-144 524,-144 554,-144 554,-144 560,-144 566,-150 566,-156 566,-156 566,-168 566,-168 566,-174 560,-180 554,-180"/>
<text text-anchor="middle" x="539" y="-158.3" font-family="Times,serif" font-size="14.00">Eq</text>
</g>
<!-- ast.Compare object at 0x732050df8050&#45;&gt;ast.Eq object at 0x732101db7c10 -->
<g id="edge38" class="edge">
<title>ast.Compare object at 0x732050df8050&#45;&gt;ast.Eq object at 0x732101db7c10</title>
<path fill="none" stroke="black" d="M550.29,-215.7C548.64,-207.98 546.65,-198.71 544.81,-190.11"/>
<polygon fill="black" stroke="black" points="548.18,-189.15 542.67,-180.1 541.34,-190.62 548.18,-189.15"/>
</g>
<!-- ast.Constant object at 0x732050df8750 -->
<g id="node32" class="node">
<title>ast.Constant object at 0x732050df8750</title>
<path fill="#66cdaa" stroke="black" d="M481.5,-180C481.5,-180 440.5,-180 440.5,-180 434.5,-180 428.5,-174 428.5,-168 428.5,-168 428.5,-156 428.5,-156 428.5,-150 434.5,-144 440.5,-144 440.5,-144 481.5,-144 481.5,-144 487.5,-144 493.5,-150 493.5,-156 493.5,-156 493.5,-168 493.5,-168 493.5,-174 487.5,-180 481.5,-180"/>
<text text-anchor="middle" x="461" y="-158.3" font-family="Times,serif" font-size="14.00">Constant</text>
</g>
<!-- ast.Compare object at 0x732050df8050&#45;&gt;ast.Constant object at 0x732050df8750 -->
<g id="edge39" class="edge">
<title>ast.Compare object at 0x732050df8050&#45;&gt;ast.Constant object at 0x732050df8750</title>
<path fill="none" stroke="black" d="M531.01,-215.7C519.19,-206.8 504.61,-195.82 491.82,-186.2"/>
<polygon fill="black" stroke="black" points="493.82,-183.32 483.72,-180.1 489.61,-188.91 493.82,-183.32"/>
</g>
<!-- ast.Name object at 0x732050dfbd90 -->
<g id="node28" class="node">
<title>ast.Name object at 0x732050dfbd90</title>
<path fill="#66cdaa" stroke="black" d="M464,-108C464,-108 434,-108 434,-108 428,-108 422,-102 422,-96 422,-96 422,-84 422,-84 422,-78 428,-72 434,-72 434,-72 464,-72 464,-72 470,-72 476,-78 476,-84 476,-84 476,-96 476,-96 476,-102 470,-108 464,-108"/>
<text text-anchor="middle" x="449" y="-86.3" font-family="Times,serif" font-size="14.00">Name</text>
</g>
<!-- ast.BinOp object at 0x732050dfb050&#45;&gt;ast.Name object at 0x732050dfbd90 -->
<g id="edge33" class="edge">
<title>ast.BinOp object at 0x732050dfb050&#45;&gt;ast.Name object at 0x732050dfbd90</title>
<path fill="none" stroke="black" d="M399.31,-143.7C407.31,-135.22 417.07,-124.86 425.82,-115.58"/>
<polygon fill="black" stroke="black" points="428.56,-117.78 432.87,-108.1 423.47,-112.98 428.56,-117.78"/>
</g>
<!-- ast.Mod object at 0x732101db7390 -->
<g id="node29" class="node">
<title>ast.Mod object at 0x732101db7390</title>
<path fill="#66cdaa" stroke="black" d="M536,-108C536,-108 506,-108 506,-108 500,-108 494,-102 494,-96 494,-96 494,-84 494,-84 494,-78 500,-72 506,-72 506,-72 536,-72 536,-72 542,-72 548,-78 548,-84 548,-84 548,-96 548,-96 548,-102 542,-108 536,-108"/>
<text text-anchor="middle" x="521" y="-86.3" font-family="Times,serif" font-size="14.00">Mod</text>
</g>
<!-- ast.BinOp object at 0x732050dfb050&#45;&gt;ast.Mod object at 0x732101db7390 -->
<g id="edge35" class="edge">
<title>ast.BinOp object at 0x732050dfb050&#45;&gt;ast.Mod object at 0x732101db7390</title>
<path fill="none" stroke="black" d="M410.26,-147.17C431.53,-136.38 461.26,-121.3 484.57,-109.48"/>
<polygon fill="black" stroke="black" points="486.46,-112.45 493.79,-104.8 483.29,-106.2 486.46,-112.45"/>
</g>
<!-- ast.Name object at 0x732050df9650 -->
<g id="node30" class="node">
<title>ast.Name object at 0x732050df9650</title>
<path fill="#66cdaa" stroke="black" d="M392,-108C392,-108 362,-108 362,-108 356,-108 350,-102 350,-96 350,-96 350,-84 350,-84 350,-78 356,-72 362,-72 362,-72 392,-72 392,-72 398,-72 404,-78 404,-84 404,-84 404,-96 404,-96 404,-102 398,-108 392,-108"/>
<text text-anchor="middle" x="377" y="-86.3" font-family="Times,serif" font-size="14.00">Name</text>
</g>
<!-- ast.BinOp object at 0x732050dfb050&#45;&gt;ast.Name object at 0x732050df9650 -->
<g id="edge36" class="edge">
<title>ast.BinOp object at 0x732050dfb050&#45;&gt;ast.Name object at 0x732050df9650</title>
<path fill="none" stroke="black" d="M381.52,-143.7C380.86,-135.98 380.06,-126.71 379.32,-118.11"/>
<polygon fill="black" stroke="black" points="382.81,-117.77 378.47,-108.1 375.83,-118.37 382.81,-117.77"/>
</g>
<!-- ast.Name object at 0x732050dfbd90&#45;&gt;ast.Load object at 0x732101db6c10 -->
<g id="edge34" class="edge">
<title>ast.Name object at 0x732050dfbd90&#45;&gt;ast.Load object at 0x732101db6c10</title>
<path fill="none" stroke="black" d="M464.57,-71.7C472.2,-63.22 481.52,-52.86 489.88,-43.58"/>
<polygon fill="black" stroke="black" points="492.52,-45.88 496.61,-36.1 487.31,-41.2 492.52,-45.88"/>
</g>
<!-- ast.Name object at 0x732050df9650&#45;&gt;ast.Load object at 0x732101db6c10 -->
<g id="edge37" class="edge">
<title>ast.Name object at 0x732050df9650&#45;&gt;ast.Load object at 0x732101db6c10</title>
<path fill="none" stroke="black" d="M404.32,-74.83C424.9,-64.16 453.33,-49.42 475.81,-37.77"/>
<polygon fill="black" stroke="black" points="477.45,-40.85 484.72,-33.14 474.23,-34.64 477.45,-40.85"/>
</g>
<!-- ast.Call object at 0x732050dfa410 -->
<g id="node34" class="node">
<title>ast.Call object at 0x732050dfa410</title>
<path fill="#66cdaa" stroke="black" d="M648,-252C648,-252 618,-252 618,-252 612,-252 606,-246 606,-240 606,-240 606,-228 606,-228 606,-222 612,-216 618,-216 618,-216 648,-216 648,-216 654,-216 660,-222 660,-228 660,-228 660,-240 660,-240 660,-246 654,-252 648,-252"/>
<text text-anchor="middle" x="633" y="-230.3" font-family="Times,serif" font-size="14.00">Call</text>
</g>
<!-- ast.Expr object at 0x7320954adf50&#45;&gt;ast.Call object at 0x732050dfa410 -->
<g id="edge41" class="edge">
<title>ast.Expr object at 0x7320954adf50&#45;&gt;ast.Call object at 0x732050dfa410</title>
<path fill="none" stroke="black" d="M619.45,-287.7C621.45,-279.9 623.87,-270.51 626.1,-261.83"/>
<polygon fill="black" stroke="black" points="629.5,-262.66 628.6,-252.1 622.72,-260.92 629.5,-262.66"/>
</g>
<!-- ast.Attribute object at 0x732050df8a10 -->
<g id="node35" class="node">
<title>ast.Attribute object at 0x732050df8a10</title>
<path fill="#66cdaa" stroke="black" d="M637.5,-180C637.5,-180 596.5,-180 596.5,-180 590.5,-180 584.5,-174 584.5,-168 584.5,-168 584.5,-156 584.5,-156 584.5,-150 590.5,-144 596.5,-144 596.5,-144 637.5,-144 637.5,-144 643.5,-144 649.5,-150 649.5,-156 649.5,-156 649.5,-168 649.5,-168 649.5,-174 643.5,-180 637.5,-180"/>
<text text-anchor="middle" x="617" y="-158.3" font-family="Times,serif" font-size="14.00">Attribute</text>
</g>
<!-- ast.Call object at 0x732050dfa410&#45;&gt;ast.Attribute object at 0x732050df8a10 -->
<g id="edge42" class="edge">
<title>ast.Call object at 0x732050dfa410&#45;&gt;ast.Attribute object at 0x732050df8a10</title>
<path fill="none" stroke="black" d="M629.04,-215.7C627.28,-207.98 625.16,-198.71 623.2,-190.11"/>
<polygon fill="black" stroke="black" points="626.55,-189.07 620.91,-180.1 619.73,-190.63 626.55,-189.07"/>
</g>
<!-- ast.Name object at 0x732050dfb810 -->
<g id="node37" class="node">
<title>ast.Name object at 0x732050dfb810</title>
<path fill="#66cdaa" stroke="black" d="M710,-180C710,-180 680,-180 680,-180 674,-180 668,-174 668,-168 668,-168 668,-156 668,-156 668,-150 674,-144 680,-144 680,-144 710,-144 710,-144 716,-144 722,-150 722,-156 722,-156 722,-168 722,-168 722,-174 716,-180 710,-180"/>
<text text-anchor="middle" x="695" y="-158.3" font-family="Times,serif" font-size="14.00">Name</text>
</g>
<!-- ast.Call object at 0x732050dfa410&#45;&gt;ast.Name object at 0x732050dfb810 -->
<g id="edge46" class="edge">
<title>ast.Call object at 0x732050dfa410&#45;&gt;ast.Name object at 0x732050dfb810</title>
<path fill="none" stroke="black" d="M648.33,-215.7C655.76,-207.3 664.82,-197.07 672.98,-187.86"/>
<polygon fill="black" stroke="black" points="675.84,-189.91 679.85,-180.1 670.6,-185.27 675.84,-189.91"/>
</g>
<!-- ast.Attribute object at 0x732050df8a10&#45;&gt;ast.Load object at 0x732101db6c10 -->
<g id="edge45" class="edge">
<title>ast.Attribute object at 0x732050df8a10&#45;&gt;ast.Load object at 0x732101db6c10</title>
<path fill="none" stroke="black" d="M606.26,-143.88C594.66,-125.67 575.35,-96.21 557,-72 549.85,-62.57 541.59,-52.6 534.1,-43.87"/>
<polygon fill="black" stroke="black" points="536.7,-41.53 527.5,-36.27 531.41,-46.11 536.7,-41.53"/>
</g>
<!-- ast.Name object at 0x732050df8ed0 -->
<g id="node36" class="node">
<title>ast.Name object at 0x732050df8ed0</title>
<path fill="#66cdaa" stroke="black" d="M646,-108C646,-108 616,-108 616,-108 610,-108 604,-102 604,-96 604,-96 604,-84 604,-84 604,-78 610,-72 616,-72 616,-72 646,-72 646,-72 652,-72 658,-78 658,-84 658,-84 658,-96 658,-96 658,-102 652,-108 646,-108"/>
<text text-anchor="middle" x="631" y="-86.3" font-family="Times,serif" font-size="14.00">Name</text>
</g>
<!-- ast.Attribute object at 0x732050df8a10&#45;&gt;ast.Name object at 0x732050df8ed0 -->
<g id="edge43" class="edge">
<title>ast.Attribute object at 0x732050df8a10&#45;&gt;ast.Name object at 0x732050df8ed0</title>
<path fill="none" stroke="black" d="M620.46,-143.7C622,-135.98 623.86,-126.71 625.58,-118.11"/>
<polygon fill="black" stroke="black" points="629.05,-118.6 627.58,-108.1 622.19,-117.22 629.05,-118.6"/>
</g>
<!-- ast.Name object at 0x732050df8ed0&#45;&gt;ast.Load object at 0x732101db6c10 -->
<g id="edge44" class="edge">
<title>ast.Name object at 0x732050df8ed0&#45;&gt;ast.Load object at 0x732101db6c10</title>
<path fill="none" stroke="black" d="M604,-73.12C587.53,-63.43 566.27,-50.92 548.34,-40.38"/>
<polygon fill="black" stroke="black" points="549.7,-37.12 539.31,-35.06 546.15,-43.15 549.7,-37.12"/>
</g>
<!-- ast.Name object at 0x732050dfb810&#45;&gt;ast.Load object at 0x732101db6c10 -->
<g id="edge47" class="edge">
<title>ast.Name object at 0x732050dfb810&#45;&gt;ast.Load object at 0x732101db6c10</title>
<path fill="none" stroke="black" d="M694.12,-143.94C692.2,-124.1 686.12,-91.59 667,-72 635.77,-39.99 584.43,-27.31 549.47,-22.29"/>
<polygon fill="black" stroke="black" points="549.55,-18.77 539.18,-20.96 548.65,-25.71 549.55,-18.77"/>
</g>
<!-- ast.Name object at 0x732050dfb190 -->
<g id="node39" class="node">
<title>ast.Name object at 0x732050dfb190</title>
<path fill="#66cdaa" stroke="black" d="M334,-252C334,-252 304,-252 304,-252 298,-252 292,-246 292,-240 292,-240 292,-228 292,-228 292,-222 298,-216 304,-216 304,-216 334,-216 334,-216 340,-216 346,-222 346,-228 346,-228 346,-240 346,-240 346,-246 340,-252 334,-252"/>
<text text-anchor="middle" x="319" y="-230.3" font-family="Times,serif" font-size="14.00">Name</text>
</g>
<!-- ast.AugAssign object at 0x732050df9710&#45;&gt;ast.Name object at 0x732050dfb190 -->
<g id="edge49" class="edge">
<title>ast.AugAssign object at 0x732050df9710&#45;&gt;ast.Name object at 0x732050dfb190</title>
<path fill="none" stroke="black" d="M390.52,-287.7C378.44,-278.8 363.55,-267.82 350.48,-258.2"/>
<polygon fill="black" stroke="black" points="352.34,-255.22 342.21,-252.1 348.19,-260.85 352.34,-255.22"/>
</g>
<!-- ast.FloorDiv object at 0x732101db7790 -->
<g id="node40" class="node">
<title>ast.FloorDiv object at 0x732101db7790</title>
<path fill="#66cdaa" stroke="black" d="M418,-252C418,-252 376,-252 376,-252 370,-252 364,-246 364,-240 364,-240 364,-228 364,-228 364,-222 370,-216 376,-216 376,-216 418,-216 418,-216 424,-216 430,-222 430,-228 430,-228 430,-240 430,-240 430,-246 424,-252 418,-252"/>
<text text-anchor="middle" x="397" y="-230.3" font-family="Times,serif" font-size="14.00">FloorDiv</text>
</g>
<!-- ast.AugAssign object at 0x732050df9710&#45;&gt;ast.FloorDiv object at 0x732101db7790 -->
<g id="edge51" class="edge">
<title>ast.AugAssign object at 0x732050df9710&#45;&gt;ast.FloorDiv object at 0x732101db7790</title>
<path fill="none" stroke="black" d="M409.8,-287.7C407.9,-279.9 405.62,-270.51 403.52,-261.83"/>
<polygon fill="black" stroke="black" points="406.92,-261 401.15,-252.1 400.11,-262.65 406.92,-261"/>
</g>
<!-- ast.Name object at 0x732050dfa290 -->
<g id="node41" class="node">
<title>ast.Name object at 0x732050dfa290</title>
<path fill="#66cdaa" stroke="black" d="M490,-252C490,-252 460,-252 460,-252 454,-252 448,-246 448,-240 448,-240 448,-228 448,-228 448,-222 454,-216 460,-216 460,-216 490,-216 490,-216 496,-216 502,-222 502,-228 502,-228 502,-240 502,-240 502,-246 496,-252 490,-252"/>
<text text-anchor="middle" x="475" y="-230.3" font-family="Times,serif" font-size="14.00">Name</text>
</g>
<!-- ast.AugAssign object at 0x732050df9710&#45;&gt;ast.Name object at 0x732050dfa290 -->
<g id="edge52" class="edge">
<title>ast.AugAssign object at 0x732050df9710&#45;&gt;ast.Name object at 0x732050dfa290</title>
<path fill="none" stroke="black" d="M429.08,-287.7C436.39,-279.3 445.31,-269.07 453.34,-259.86"/>
<polygon fill="black" stroke="black" points="456.16,-261.94 460.09,-252.1 450.89,-257.34 456.16,-261.94"/>
</g>
<!-- ast.Name object at 0x732050dfb190&#45;&gt;ast.Store object at 0x732101db6c90 -->
<g id="edge50" class="edge">
<title>ast.Name object at 0x732050dfb190&#45;&gt;ast.Store object at 0x732101db6c90</title>
<path fill="none" stroke="black" d="M303.43,-215.7C295.8,-207.22 286.48,-196.86 278.12,-187.58"/>
<polygon fill="black" stroke="black" points="280.69,-185.2 271.39,-180.1 275.48,-189.88 280.69,-185.2"/>
</g>
<!-- ast.Name object at 0x732050dfa290&#45;&gt;ast.Load object at 0x732101db6c10 -->
<g id="edge53" class="edge">
<title>ast.Name object at 0x732050dfa290&#45;&gt;ast.Load object at 0x732101db6c10</title>
<path fill="none" stroke="black" d="M447.96,-219.99C444.95,-218.61 441.92,-217.26 439,-216 398.68,-198.62 373.24,-215.21 347,-180 318.27,-141.45 312.48,-110.7 341,-72 371.62,-30.46 434.46,-20.51 474.84,-18.64"/>
<polygon fill="black" stroke="black" points="474.95,-22.14 484.84,-18.33 474.73,-15.15 474.95,-22.14"/>
</g>
<!-- ast.Name object at 0x732050df8f50 -->
<g id="node43" class="node">
<title>ast.Name object at 0x732050df8f50</title>
<path fill="#66cdaa" stroke="black" d="M895,-396C895,-396 865,-396 865,-396 859,-396 853,-390 853,-384 853,-384 853,-372 853,-372 853,-366 859,-360 865,-360 865,-360 895,-360 895,-360 901,-360 907,-366 907,-372 907,-372 907,-384 907,-384 907,-390 901,-396 895,-396"/>
<text text-anchor="middle" x="880" y="-374.3" font-family="Times,serif" font-size="14.00">Name</text>
</g>
<!-- ast.Return object at 0x732050aec6d0&#45;&gt;ast.Name object at 0x732050df8f50 -->
<g id="edge55" class="edge">
<title>ast.Return object at 0x732050aec6d0&#45;&gt;ast.Name object at 0x732050df8f50</title>
<path fill="none" stroke="black" d="M677.29,-440.7C718.53,-428.14 796.82,-404.32 843.1,-390.23"/>
<polygon fill="black" stroke="black" points="844.2,-393.55 852.75,-387.29 842.16,-386.86 844.2,-393.55"/>
</g>
<!-- ast.Name object at 0x732050df8f50&#45;&gt;ast.Load object at 0x732101db6c10 -->
<g id="edge56" class="edge">
<title>ast.Name object at 0x732050df8f50&#45;&gt;ast.Load object at 0x732101db6c10</title>
<path fill="none" stroke="black" d="M905.79,-359.94C938.3,-336.16 990,-289.73 990,-235 990,-235 990,-235 990,-161 990,-120.55 1000.93,-99.2 971,-72 939.94,-43.77 652.82,-26.27 549.13,-20.83"/>
<polygon fill="black" stroke="black" points="549.28,-17.33 539.12,-20.31 548.92,-24.32 549.28,-17.33"/>
</g>
</g>
</svg>
