<?xml version="1.0" encoding="UTF-8" standalone="no"?>
<!DOCTYPE svg PUBLIC "-//W3C//DTD SVG 1.1//EN"
 "http://www.w3.org/Graphics/SVG/1.1/DTD/svg11.dtd">
<!-- Generated by graphviz version 2.50.0 (0)
 -->
<!-- Pages: 1 -->
<svg width="669pt" height="692pt"
 viewBox="0.00 0.00 668.50 692.00" xmlns="http://www.w3.org/2000/svg" xmlns:xlink="http://www.w3.org/1999/xlink">
<g id="graph0" class="graph" transform="scale(1 1) rotate(0) translate(4 688)">
<polygon fill="white" stroke="transparent" points="-4,4 -4,-688 664.5,-688 664.5,4 -4,4"/>
<!-- ast.Module object at 0x7f1e67487450 -->
<g id="node1" class="node">
<title>ast.Module object at 0x7f1e67487450</title>
<path fill="#66cdaa" stroke="black" d="M380.5,-684C380.5,-684 345.5,-684 345.5,-684 339.5,-684 333.5,-678 333.5,-672 333.5,-672 333.5,-660 333.5,-660 333.5,-654 339.5,-648 345.5,-648 345.5,-648 380.5,-648 380.5,-648 386.5,-648 392.5,-654 392.5,-660 392.5,-660 392.5,-672 392.5,-672 392.5,-678 386.5,-684 380.5,-684"/>
<text text-anchor="middle" x="363" y="-662.3" font-family="Times,serif" font-size="14.00">Module</text>
</g>
<!-- ast.FunctionDef object at 0x7f1e67487d90 -->
<g id="node2" class="node">
<title>ast.FunctionDef object at 0x7f1e67487d90</title>
<path fill="#66cdaa" stroke="black" d="M393.5,-612C393.5,-612 332.5,-612 332.5,-612 326.5,-612 320.5,-606 320.5,-600 320.5,-600 320.5,-588 320.5,-588 320.5,-582 326.5,-576 332.5,-576 332.5,-576 393.5,-576 393.5,-576 399.5,-576 405.5,-582 405.5,-588 405.5,-588 405.5,-600 405.5,-600 405.5,-606 399.5,-612 393.5,-612"/>
<text text-anchor="middle" x="363" y="-590.3" font-family="Times,serif" font-size="14.00">FunctionDef</text>
</g>
<!-- ast.Module object at 0x7f1e67487450&#45;&gt;ast.FunctionDef object at 0x7f1e67487d90 -->
<g id="edge1" class="edge">
<title>ast.Module object at 0x7f1e67487450&#45;&gt;ast.FunctionDef object at 0x7f1e67487d90</title>
<path fill="none" stroke="black" d="M363,-647.7C363,-639.98 363,-630.71 363,-622.11"/>
<polygon fill="black" stroke="black" points="366.5,-622.1 363,-612.1 359.5,-622.1 366.5,-622.1"/>
</g>
<!-- ast.arguments object at 0x7f1e674cb690 -->
<g id="node3" class="node">
<title>ast.arguments object at 0x7f1e674cb690</title>
<path fill="#66cdaa" stroke="black" d="M273,-540C273,-540 223,-540 223,-540 217,-540 211,-534 211,-528 211,-528 211,-516 211,-516 211,-510 217,-504 223,-504 223,-504 273,-504 273,-504 279,-504 285,-510 285,-516 285,-516 285,-528 285,-528 285,-534 279,-540 273,-540"/>
<text text-anchor="middle" x="248" y="-518.3" font-family="Times,serif" font-size="14.00">arguments</text>
</g>
<!-- ast.FunctionDef object at 0x7f1e67487d90&#45;&gt;ast.arguments object at 0x7f1e674cb690 -->
<g id="edge2" class="edge">
<title>ast.FunctionDef object at 0x7f1e67487d90&#45;&gt;ast.arguments object at 0x7f1e674cb690</title>
<path fill="none" stroke="black" d="M334.87,-575.88C319.83,-566.72 301.13,-555.34 284.94,-545.48"/>
<polygon fill="black" stroke="black" points="286.6,-542.4 276.24,-540.19 282.96,-548.38 286.6,-542.4"/>
</g>
<!-- ast.Assign object at 0x7f1e674fd4d0 -->
<g id="node5" class="node">
<title>ast.Assign object at 0x7f1e674fd4d0</title>
<path fill="#66cdaa" stroke="black" d="M378,-540C378,-540 348,-540 348,-540 342,-540 336,-534 336,-528 336,-528 336,-516 336,-516 336,-510 342,-504 348,-504 348,-504 378,-504 378,-504 384,-504 390,-510 390,-516 390,-516 390,-528 390,-528 390,-534 384,-540 378,-540"/>
<text text-anchor="middle" x="363" y="-518.3" font-family="Times,serif" font-size="14.00">Assign</text>
</g>
<!-- ast.FunctionDef object at 0x7f1e67487d90&#45;&gt;ast.Assign object at 0x7f1e674fd4d0 -->
<g id="edge4" class="edge">
<title>ast.FunctionDef object at 0x7f1e67487d90&#45;&gt;ast.Assign object at 0x7f1e674fd4d0</title>
<path fill="none" stroke="black" d="M363,-575.7C363,-567.98 363,-558.71 363,-550.11"/>
<polygon fill="black" stroke="black" points="366.5,-550.1 363,-540.1 359.5,-550.1 366.5,-550.1"/>
</g>
<!-- ast.Return object at 0x7f1e674c9d50 -->
<g id="node28" class="node">
<title>ast.Return object at 0x7f1e674c9d50</title>
<path fill="#66cdaa" stroke="black" d="M474,-540C474,-540 444,-540 444,-540 438,-540 432,-534 432,-528 432,-528 432,-516 432,-516 432,-510 438,-504 444,-504 444,-504 474,-504 474,-504 480,-504 486,-510 486,-516 486,-516 486,-528 486,-528 486,-534 480,-540 474,-540"/>
<text text-anchor="middle" x="459" y="-518.3" font-family="Times,serif" font-size="14.00">Return</text>
</g>
<!-- ast.FunctionDef object at 0x7f1e67487d90&#45;&gt;ast.Return object at 0x7f1e674c9d50 -->
<g id="edge33" class="edge">
<title>ast.FunctionDef object at 0x7f1e67487d90&#45;&gt;ast.Return object at 0x7f1e674c9d50</title>
<path fill="none" stroke="black" d="M386.73,-575.7C398.94,-566.8 413.99,-555.82 427.18,-546.2"/>
<polygon fill="black" stroke="black" points="429.52,-548.82 435.54,-540.1 425.4,-543.17 429.52,-548.82"/>
</g>
<!-- ast.arg object at 0x7f1e674c9990 -->
<g id="node4" class="node">
<title>ast.arg object at 0x7f1e674c9990</title>
<path fill="#66cdaa" stroke="black" d="M196,-468C196,-468 166,-468 166,-468 160,-468 154,-462 154,-456 154,-456 154,-444 154,-444 154,-438 160,-432 166,-432 166,-432 196,-432 196,-432 202,-432 208,-438 208,-444 208,-444 208,-456 208,-456 208,-462 202,-468 196,-468"/>
<text text-anchor="middle" x="181" y="-446.3" font-family="Times,serif" font-size="14.00">arg</text>
</g>
<!-- ast.arguments object at 0x7f1e674cb690&#45;&gt;ast.arg object at 0x7f1e674c9990 -->
<g id="edge3" class="edge">
<title>ast.arguments object at 0x7f1e674cb690&#45;&gt;ast.arg object at 0x7f1e674c9990</title>
<path fill="none" stroke="black" d="M231.44,-503.7C223.32,-495.22 213.41,-484.86 204.53,-475.58"/>
<polygon fill="black" stroke="black" points="206.81,-472.91 197.37,-468.1 201.76,-477.75 206.81,-472.91"/>
</g>
<!-- ast.Name object at 0x7f1e674fd7d0 -->
<g id="node6" class="node">
<title>ast.Name object at 0x7f1e674fd7d0</title>
<path fill="#66cdaa" stroke="black" d="M398,-396C398,-396 368,-396 368,-396 362,-396 356,-390 356,-384 356,-384 356,-372 356,-372 356,-366 362,-360 368,-360 368,-360 398,-360 398,-360 404,-360 410,-366 410,-372 410,-372 410,-384 410,-384 410,-390 404,-396 398,-396"/>
<text text-anchor="middle" x="383" y="-374.3" font-family="Times,serif" font-size="14.00">Name</text>
</g>
<!-- ast.Assign object at 0x7f1e674fd4d0&#45;&gt;ast.Name object at 0x7f1e674fd7d0 -->
<g id="edge5" class="edge">
<title>ast.Assign object at 0x7f1e674fd4d0&#45;&gt;ast.Name object at 0x7f1e674fd7d0</title>
<path fill="none" stroke="black" d="M365.41,-503.87C368.82,-479.67 375.08,-435.21 379.14,-406.39"/>
<polygon fill="black" stroke="black" points="382.65,-406.58 380.58,-396.19 375.72,-405.6 382.65,-406.58"/>
</g>
<!-- ast.ListComp object at 0x7f1e674fd2d0 -->
<g id="node8" class="node">
<title>ast.ListComp object at 0x7f1e674fd2d0</title>
<path fill="#66cdaa" stroke="black" d="M285.5,-468C285.5,-468 238.5,-468 238.5,-468 232.5,-468 226.5,-462 226.5,-456 226.5,-456 226.5,-444 226.5,-444 226.5,-438 232.5,-432 238.5,-432 238.5,-432 285.5,-432 285.5,-432 291.5,-432 297.5,-438 297.5,-444 297.5,-444 297.5,-456 297.5,-456 297.5,-462 291.5,-468 285.5,-468"/>
<text text-anchor="middle" x="262" y="-446.3" font-family="Times,serif" font-size="14.00">ListComp</text>
</g>
<!-- ast.Assign object at 0x7f1e674fd4d0&#45;&gt;ast.ListComp object at 0x7f1e674fd2d0 -->
<g id="edge7" class="edge">
<title>ast.Assign object at 0x7f1e674fd4d0&#45;&gt;ast.ListComp object at 0x7f1e674fd2d0</title>
<path fill="none" stroke="black" d="M338.29,-503.88C325.33,-494.89 309.27,-483.76 295.23,-474.03"/>
<polygon fill="black" stroke="black" points="297.02,-471.01 286.8,-468.19 293.03,-476.76 297.02,-471.01"/>
</g>
<!-- ast.Store object at 0x7f1e66db1d10 -->
<g id="node7" class="node">
<title>ast.Store object at 0x7f1e66db1d10</title>
<path fill="#66cdaa" stroke="black" d="M421,-252C421,-252 391,-252 391,-252 385,-252 379,-246 379,-240 379,-240 379,-228 379,-228 379,-222 385,-216 391,-216 391,-216 421,-216 421,-216 427,-216 433,-222 433,-228 433,-228 433,-240 433,-240 433,-246 427,-252 421,-252"/>
<text text-anchor="middle" x="406" y="-230.3" font-family="Times,serif" font-size="14.00">Store</text>
</g>
<!-- ast.Name object at 0x7f1e674fd7d0&#45;&gt;ast.Store object at 0x7f1e66db1d10 -->
<g id="edge6" class="edge">
<title>ast.Name object at 0x7f1e674fd7d0&#45;&gt;ast.Store object at 0x7f1e66db1d10</title>
<path fill="none" stroke="black" d="M385.77,-359.87C389.69,-335.67 396.9,-291.21 401.56,-262.39"/>
<polygon fill="black" stroke="black" points="405.07,-262.62 403.22,-252.19 398.16,-261.5 405.07,-262.62"/>
</g>
<!-- ast.Name object at 0x7f1e674fdf10 -->
<g id="node9" class="node">
<title>ast.Name object at 0x7f1e674fdf10</title>
<path fill="#66cdaa" stroke="black" d="M102,-396C102,-396 72,-396 72,-396 66,-396 60,-390 60,-384 60,-384 60,-372 60,-372 60,-366 66,-360 72,-360 72,-360 102,-360 102,-360 108,-360 114,-366 114,-372 114,-372 114,-384 114,-384 114,-390 108,-396 102,-396"/>
<text text-anchor="middle" x="87" y="-374.3" font-family="Times,serif" font-size="14.00">Name</text>
</g>
<!-- ast.ListComp object at 0x7f1e674fd2d0&#45;&gt;ast.Name object at 0x7f1e674fdf10 -->
<g id="edge8" class="edge">
<title>ast.ListComp object at 0x7f1e674fd2d0&#45;&gt;ast.Name object at 0x7f1e674fdf10</title>
<path fill="none" stroke="black" d="M226.16,-434.67C196.21,-422.68 153.66,-405.67 123.52,-393.61"/>
<polygon fill="black" stroke="black" points="124.78,-390.34 114.2,-389.88 122.18,-396.84 124.78,-390.34"/>
</g>
<!-- ast.comprehension object at 0x7f1e674fcf90 -->
<g id="node11" class="node">
<title>ast.comprehension object at 0x7f1e674fcf90</title>
<path fill="#66cdaa" stroke="black" d="M296,-396C296,-396 220,-396 220,-396 214,-396 208,-390 208,-384 208,-384 208,-372 208,-372 208,-366 214,-360 220,-360 220,-360 296,-360 296,-360 302,-360 308,-366 308,-372 308,-372 308,-384 308,-384 308,-390 302,-396 296,-396"/>
<text text-anchor="middle" x="258" y="-374.3" font-family="Times,serif" font-size="14.00">comprehension</text>
</g>
<!-- ast.ListComp object at 0x7f1e674fd2d0&#45;&gt;ast.comprehension object at 0x7f1e674fcf90 -->
<g id="edge10" class="edge">
<title>ast.ListComp object at 0x7f1e674fd2d0&#45;&gt;ast.comprehension object at 0x7f1e674fcf90</title>
<path fill="none" stroke="black" d="M261.01,-431.7C260.57,-423.98 260.04,-414.71 259.55,-406.11"/>
<polygon fill="black" stroke="black" points="263.04,-405.89 258.98,-396.1 256.05,-406.29 263.04,-405.89"/>
</g>
<!-- ast.Load object at 0x7f1e66db1c90 -->
<g id="node10" class="node">
<title>ast.Load object at 0x7f1e66db1c90</title>
<path fill="#66cdaa" stroke="black" d="M306,-36C306,-36 276,-36 276,-36 270,-36 264,-30 264,-24 264,-24 264,-12 264,-12 264,-6 270,0 276,0 276,0 306,0 306,0 312,0 318,-6 318,-12 318,-12 318,-24 318,-24 318,-30 312,-36 306,-36"/>
<text text-anchor="middle" x="291" y="-14.3" font-family="Times,serif" font-size="14.00">Load</text>
</g>
<!-- ast.Name object at 0x7f1e674fdf10&#45;&gt;ast.Load object at 0x7f1e66db1c90 -->
<g id="edge9" class="edge">
<title>ast.Name object at 0x7f1e674fdf10&#45;&gt;ast.Load object at 0x7f1e66db1c90</title>
<path fill="none" stroke="black" d="M67.69,-359.82C42.06,-335.01 0,-286.46 0,-235 0,-235 0,-235 0,-161 0,-118.16 4,-99.31 37,-72 69.64,-44.99 191.47,-29.06 253.78,-22.51"/>
<polygon fill="black" stroke="black" points="254.38,-25.96 263.97,-21.46 253.66,-19 254.38,-25.96"/>
</g>
<!-- ast.Name object at 0x7f1e674fd390 -->
<g id="node12" class="node">
<title>ast.Name object at 0x7f1e674fd390</title>
<path fill="#66cdaa" stroke="black" d="M345,-324C345,-324 315,-324 315,-324 309,-324 303,-318 303,-312 303,-312 303,-300 303,-300 303,-294 309,-288 315,-288 315,-288 345,-288 345,-288 351,-288 357,-294 357,-300 357,-300 357,-312 357,-312 357,-318 351,-324 345,-324"/>
<text text-anchor="middle" x="330" y="-302.3" font-family="Times,serif" font-size="14.00">Name</text>
</g>
<!-- ast.comprehension object at 0x7f1e674fcf90&#45;&gt;ast.Name object at 0x7f1e674fd390 -->
<g id="edge11" class="edge">
<title>ast.comprehension object at 0x7f1e674fcf90&#45;&gt;ast.Name object at 0x7f1e674fd390</title>
<path fill="none" stroke="black" d="M275.8,-359.7C284.6,-351.14 295.38,-340.66 305,-331.3"/>
<polygon fill="black" stroke="black" points="307.68,-333.58 312.41,-324.1 302.8,-328.57 307.68,-333.58"/>
</g>
<!-- ast.Name object at 0x7f1e674fd790 -->
<g id="node13" class="node">
<title>ast.Name object at 0x7f1e674fd790</title>
<path fill="#66cdaa" stroke="black" d="M131,-324C131,-324 101,-324 101,-324 95,-324 89,-318 89,-312 89,-312 89,-300 89,-300 89,-294 95,-288 101,-288 101,-288 131,-288 131,-288 137,-288 143,-294 143,-300 143,-300 143,-312 143,-312 143,-318 137,-324 131,-324"/>
<text text-anchor="middle" x="116" y="-302.3" font-family="Times,serif" font-size="14.00">Name</text>
</g>
<!-- ast.comprehension object at 0x7f1e674fcf90&#45;&gt;ast.Name object at 0x7f1e674fd790 -->
<g id="edge13" class="edge">
<title>ast.comprehension object at 0x7f1e674fcf90&#45;&gt;ast.Name object at 0x7f1e674fd790</title>
<path fill="none" stroke="black" d="M223.26,-359.88C201.81,-349.3 174.31,-335.74 152.53,-325.01"/>
<polygon fill="black" stroke="black" points="153.79,-321.73 143.27,-320.44 150.69,-328 153.79,-321.73"/>
</g>
<!-- ast.BoolOp object at 0x7f1e674fdad0 -->
<g id="node14" class="node">
<title>ast.BoolOp object at 0x7f1e674fdad0</title>
<path fill="#66cdaa" stroke="black" d="M267.5,-324C267.5,-324 232.5,-324 232.5,-324 226.5,-324 220.5,-318 220.5,-312 220.5,-312 220.5,-300 220.5,-300 220.5,-294 226.5,-288 232.5,-288 232.5,-288 267.5,-288 267.5,-288 273.5,-288 279.5,-294 279.5,-300 279.5,-300 279.5,-312 279.5,-312 279.5,-318 273.5,-324 267.5,-324"/>
<text text-anchor="middle" x="250" y="-302.3" font-family="Times,serif" font-size="14.00">BoolOp</text>
</g>
<!-- ast.comprehension object at 0x7f1e674fcf90&#45;&gt;ast.BoolOp object at 0x7f1e674fdad0 -->
<g id="edge15" class="edge">
<title>ast.comprehension object at 0x7f1e674fcf90&#45;&gt;ast.BoolOp object at 0x7f1e674fdad0</title>
<path fill="none" stroke="black" d="M256.02,-359.7C255.14,-351.98 254.08,-342.71 253.1,-334.11"/>
<polygon fill="black" stroke="black" points="256.57,-333.64 251.95,-324.1 249.61,-334.44 256.57,-333.64"/>
</g>
<!-- ast.Name object at 0x7f1e674fd390&#45;&gt;ast.Store object at 0x7f1e66db1d10 -->
<g id="edge12" class="edge">
<title>ast.Name object at 0x7f1e674fd390&#45;&gt;ast.Store object at 0x7f1e66db1d10</title>
<path fill="none" stroke="black" d="M348.79,-287.7C358.17,-279.05 369.68,-268.45 379.91,-259.03"/>
<polygon fill="black" stroke="black" points="382.45,-261.45 387.43,-252.1 377.7,-256.3 382.45,-261.45"/>
</g>
<!-- ast.Name object at 0x7f1e674fd790&#45;&gt;ast.Load object at 0x7f1e66db1c90 -->
<g id="edge14" class="edge">
<title>ast.Name object at 0x7f1e674fd790&#45;&gt;ast.Load object at 0x7f1e66db1c90</title>
<path fill="none" stroke="black" d="M102.89,-287.99C72.54,-246.45 4,-138.35 57,-72 81.22,-41.68 194.13,-27.42 253.81,-21.9"/>
<polygon fill="black" stroke="black" points="254.3,-25.37 263.95,-21 253.68,-18.4 254.3,-25.37"/>
</g>
<!-- ast.And object at 0x7f1e66db1f50 -->
<g id="node15" class="node">
<title>ast.And object at 0x7f1e66db1f50</title>
<path fill="#66cdaa" stroke="black" d="M263,-252C263,-252 233,-252 233,-252 227,-252 221,-246 221,-240 221,-240 221,-228 221,-228 221,-222 227,-216 233,-216 233,-216 263,-216 263,-216 269,-216 275,-222 275,-228 275,-228 275,-240 275,-240 275,-246 269,-252 263,-252"/>
<text text-anchor="middle" x="248" y="-230.3" font-family="Times,serif" font-size="14.00">And</text>
</g>
<!-- ast.BoolOp object at 0x7f1e674fdad0&#45;&gt;ast.And object at 0x7f1e66db1f50 -->
<g id="edge16" class="edge">
<title>ast.BoolOp object at 0x7f1e674fdad0&#45;&gt;ast.And object at 0x7f1e66db1f50</title>
<path fill="none" stroke="black" d="M249.51,-287.7C249.29,-279.98 249.02,-270.71 248.77,-262.11"/>
<polygon fill="black" stroke="black" points="252.27,-262 248.49,-252.1 245.28,-262.2 252.27,-262"/>
</g>
<!-- ast.Compare object at 0x7f1e674fd690 -->
<g id="node16" class="node">
<title>ast.Compare object at 0x7f1e674fd690</title>
<path fill="#66cdaa" stroke="black" d="M190.5,-252C190.5,-252 147.5,-252 147.5,-252 141.5,-252 135.5,-246 135.5,-240 135.5,-240 135.5,-228 135.5,-228 135.5,-222 141.5,-216 147.5,-216 147.5,-216 190.5,-216 190.5,-216 196.5,-216 202.5,-222 202.5,-228 202.5,-228 202.5,-240 202.5,-240 202.5,-246 196.5,-252 190.5,-252"/>
<text text-anchor="middle" x="169" y="-230.3" font-family="Times,serif" font-size="14.00">Compare</text>
</g>
<!-- ast.BoolOp object at 0x7f1e674fdad0&#45;&gt;ast.Compare object at 0x7f1e674fd690 -->
<g id="edge17" class="edge">
<title>ast.BoolOp object at 0x7f1e674fdad0&#45;&gt;ast.Compare object at 0x7f1e674fd690</title>
<path fill="none" stroke="black" d="M229.98,-287.7C219.87,-278.97 207.46,-268.24 196.48,-258.75"/>
<polygon fill="black" stroke="black" points="198.65,-255.99 188.79,-252.1 194.07,-261.29 198.65,-255.99"/>
</g>
<!-- ast.Compare object at 0x7f1e674ff450 -->
<g id="node23" class="node">
<title>ast.Compare object at 0x7f1e674ff450</title>
<path fill="#66cdaa" stroke="black" d="M348.5,-252C348.5,-252 305.5,-252 305.5,-252 299.5,-252 293.5,-246 293.5,-240 293.5,-240 293.5,-228 293.5,-228 293.5,-222 299.5,-216 305.5,-216 305.5,-216 348.5,-216 348.5,-216 354.5,-216 360.5,-222 360.5,-228 360.5,-228 360.5,-240 360.5,-240 360.5,-246 354.5,-252 348.5,-252"/>
<text text-anchor="middle" x="327" y="-230.3" font-family="Times,serif" font-size="14.00">Compare</text>
</g>
<!-- ast.BoolOp object at 0x7f1e674fdad0&#45;&gt;ast.Compare object at 0x7f1e674ff450 -->
<g id="edge25" class="edge">
<title>ast.BoolOp object at 0x7f1e674fdad0&#45;&gt;ast.Compare object at 0x7f1e674ff450</title>
<path fill="none" stroke="black" d="M269.03,-287.7C278.54,-279.05 290.21,-268.45 300.57,-259.03"/>
<polygon fill="black" stroke="black" points="303.14,-261.42 308.19,-252.1 298.43,-256.24 303.14,-261.42"/>
</g>
<!-- ast.BinOp object at 0x7f1e674fd210 -->
<g id="node17" class="node">
<title>ast.BinOp object at 0x7f1e674fd210</title>
<path fill="#66cdaa" stroke="black" d="M192,-180C192,-180 162,-180 162,-180 156,-180 150,-174 150,-168 150,-168 150,-156 150,-156 150,-150 156,-144 162,-144 162,-144 192,-144 192,-144 198,-144 204,-150 204,-156 204,-156 204,-168 204,-168 204,-174 198,-180 192,-180"/>
<text text-anchor="middle" x="177" y="-158.3" font-family="Times,serif" font-size="14.00">BinOp</text>
</g>
<!-- ast.Compare object at 0x7f1e674fd690&#45;&gt;ast.BinOp object at 0x7f1e674fd210 -->
<g id="edge18" class="edge">
<title>ast.Compare object at 0x7f1e674fd690&#45;&gt;ast.BinOp object at 0x7f1e674fd210</title>
<path fill="none" stroke="black" d="M170.98,-215.7C171.86,-207.98 172.92,-198.71 173.9,-190.11"/>
<polygon fill="black" stroke="black" points="177.39,-190.44 175.05,-180.1 170.43,-189.64 177.39,-190.44"/>
</g>
<!-- ast.Eq object at 0x7f1e66db2c90 -->
<g id="node21" class="node">
<title>ast.Eq object at 0x7f1e66db2c90</title>
<path fill="#66cdaa" stroke="black" d="M264,-180C264,-180 234,-180 234,-180 228,-180 222,-174 222,-168 222,-168 222,-156 222,-156 222,-150 228,-144 234,-144 234,-144 264,-144 264,-144 270,-144 276,-150 276,-156 276,-156 276,-168 276,-168 276,-174 270,-180 264,-180"/>
<text text-anchor="middle" x="249" y="-158.3" font-family="Times,serif" font-size="14.00">Eq</text>
</g>
<!-- ast.Compare object at 0x7f1e674fd690&#45;&gt;ast.Eq object at 0x7f1e66db2c90 -->
<g id="edge23" class="edge">
<title>ast.Compare object at 0x7f1e674fd690&#45;&gt;ast.Eq object at 0x7f1e66db2c90</title>
<path fill="none" stroke="black" d="M188.78,-215.7C198.75,-206.97 211.01,-196.24 221.86,-186.75"/>
<polygon fill="black" stroke="black" points="224.23,-189.32 229.45,-180.1 219.62,-184.06 224.23,-189.32"/>
</g>
<!-- ast.Constant object at 0x7f1e674fd050 -->
<g id="node22" class="node">
<title>ast.Constant object at 0x7f1e674fd050</title>
<path fill="#66cdaa" stroke="black" d="M119.5,-180C119.5,-180 78.5,-180 78.5,-180 72.5,-180 66.5,-174 66.5,-168 66.5,-168 66.5,-156 66.5,-156 66.5,-150 72.5,-144 78.5,-144 78.5,-144 119.5,-144 119.5,-144 125.5,-144 131.5,-150 131.5,-156 131.5,-156 131.5,-168 131.5,-168 131.5,-174 125.5,-180 119.5,-180"/>
<text text-anchor="middle" x="99" y="-158.3" font-family="Times,serif" font-size="14.00">Constant</text>
</g>
<!-- ast.Compare object at 0x7f1e674fd690&#45;&gt;ast.Constant object at 0x7f1e674fd050 -->
<g id="edge24" class="edge">
<title>ast.Compare object at 0x7f1e674fd690&#45;&gt;ast.Constant object at 0x7f1e674fd050</title>
<path fill="none" stroke="black" d="M151.7,-215.7C143.14,-207.14 132.66,-196.66 123.3,-187.3"/>
<polygon fill="black" stroke="black" points="125.65,-184.7 116.1,-180.1 120.7,-189.65 125.65,-184.7"/>
</g>
<!-- ast.Name object at 0x7f1e674fd150 -->
<g id="node18" class="node">
<title>ast.Name object at 0x7f1e674fd150</title>
<path fill="#66cdaa" stroke="black" d="M192,-108C192,-108 162,-108 162,-108 156,-108 150,-102 150,-96 150,-96 150,-84 150,-84 150,-78 156,-72 162,-72 162,-72 192,-72 192,-72 198,-72 204,-78 204,-84 204,-84 204,-96 204,-96 204,-102 198,-108 192,-108"/>
<text text-anchor="middle" x="177" y="-86.3" font-family="Times,serif" font-size="14.00">Name</text>
</g>
<!-- ast.BinOp object at 0x7f1e674fd210&#45;&gt;ast.Name object at 0x7f1e674fd150 -->
<g id="edge19" class="edge">
<title>ast.BinOp object at 0x7f1e674fd210&#45;&gt;ast.Name object at 0x7f1e674fd150</title>
<path fill="none" stroke="black" d="M177,-143.7C177,-135.98 177,-126.71 177,-118.11"/>
<polygon fill="black" stroke="black" points="180.5,-118.1 177,-108.1 173.5,-118.1 180.5,-118.1"/>
</g>
<!-- ast.Mod object at 0x7f1e66db2410 -->
<g id="node19" class="node">
<title>ast.Mod object at 0x7f1e66db2410</title>
<path fill="#66cdaa" stroke="black" d="M264,-108C264,-108 234,-108 234,-108 228,-108 222,-102 222,-96 222,-96 222,-84 222,-84 222,-78 228,-72 234,-72 234,-72 264,-72 264,-72 270,-72 276,-78 276,-84 276,-84 276,-96 276,-96 276,-102 270,-108 264,-108"/>
<text text-anchor="middle" x="249" y="-86.3" font-family="Times,serif" font-size="14.00">Mod</text>
</g>
<!-- ast.BinOp object at 0x7f1e674fd210&#45;&gt;ast.Mod object at 0x7f1e66db2410 -->
<g id="edge21" class="edge">
<title>ast.BinOp object at 0x7f1e674fd210&#45;&gt;ast.Mod object at 0x7f1e66db2410</title>
<path fill="none" stroke="black" d="M194.8,-143.7C203.6,-135.14 214.38,-124.66 224,-115.3"/>
<polygon fill="black" stroke="black" points="226.68,-117.58 231.41,-108.1 221.8,-112.57 226.68,-117.58"/>
</g>
<!-- ast.Constant object at 0x7f1e674fd0d0 -->
<g id="node20" class="node">
<title>ast.Constant object at 0x7f1e674fd0d0</title>
<path fill="#66cdaa" stroke="black" d="M119.5,-108C119.5,-108 78.5,-108 78.5,-108 72.5,-108 66.5,-102 66.5,-96 66.5,-96 66.5,-84 66.5,-84 66.5,-78 72.5,-72 78.5,-72 78.5,-72 119.5,-72 119.5,-72 125.5,-72 131.5,-78 131.5,-84 131.5,-84 131.5,-96 131.5,-96 131.5,-102 125.5,-108 119.5,-108"/>
<text text-anchor="middle" x="99" y="-86.3" font-family="Times,serif" font-size="14.00">Constant</text>
</g>
<!-- ast.BinOp object at 0x7f1e674fd210&#45;&gt;ast.Constant object at 0x7f1e674fd0d0 -->
<g id="edge22" class="edge">
<title>ast.BinOp object at 0x7f1e674fd210&#45;&gt;ast.Constant object at 0x7f1e674fd0d0</title>
<path fill="none" stroke="black" d="M157.72,-143.7C148.08,-135.05 136.27,-124.45 125.77,-115.03"/>
<polygon fill="black" stroke="black" points="127.84,-112.18 118.06,-108.1 123.16,-117.39 127.84,-112.18"/>
</g>
<!-- ast.Name object at 0x7f1e674fd150&#45;&gt;ast.Load object at 0x7f1e66db1c90 -->
<g id="edge20" class="edge">
<title>ast.Name object at 0x7f1e674fd150&#45;&gt;ast.Load object at 0x7f1e66db1c90</title>
<path fill="none" stroke="black" d="M204.02,-72.41C219.24,-63.06 238.45,-51.27 254.94,-41.14"/>
<polygon fill="black" stroke="black" points="257.09,-43.93 263.78,-35.71 253.43,-37.96 257.09,-43.93"/>
</g>
<!-- ast.Compare object at 0x7f1e674ff450&#45;&gt;ast.Eq object at 0x7f1e66db2c90 -->
<g id="edge31" class="edge">
<title>ast.Compare object at 0x7f1e674ff450&#45;&gt;ast.Eq object at 0x7f1e66db2c90</title>
<path fill="none" stroke="black" d="M307.72,-215.7C298.08,-207.05 286.27,-196.45 275.77,-187.03"/>
<polygon fill="black" stroke="black" points="277.84,-184.18 268.06,-180.1 273.16,-189.39 277.84,-184.18"/>
</g>
<!-- ast.BinOp object at 0x7f1e674fcc50 -->
<g id="node24" class="node">
<title>ast.BinOp object at 0x7f1e674fcc50</title>
<path fill="#66cdaa" stroke="black" d="M420,-180C420,-180 390,-180 390,-180 384,-180 378,-174 378,-168 378,-168 378,-156 378,-156 378,-150 384,-144 390,-144 390,-144 420,-144 420,-144 426,-144 432,-150 432,-156 432,-156 432,-168 432,-168 432,-174 426,-180 420,-180"/>
<text text-anchor="middle" x="405" y="-158.3" font-family="Times,serif" font-size="14.00">BinOp</text>
</g>
<!-- ast.Compare object at 0x7f1e674ff450&#45;&gt;ast.BinOp object at 0x7f1e674fcc50 -->
<g id="edge26" class="edge">
<title>ast.Compare object at 0x7f1e674ff450&#45;&gt;ast.BinOp object at 0x7f1e674fcc50</title>
<path fill="none" stroke="black" d="M346.28,-215.7C355.92,-207.05 367.73,-196.45 378.23,-187.03"/>
<polygon fill="black" stroke="black" points="380.84,-189.39 385.94,-180.1 376.16,-184.18 380.84,-189.39"/>
</g>
<!-- ast.Constant object at 0x7f1e674fca10 -->
<g id="node27" class="node">
<title>ast.Constant object at 0x7f1e674fca10</title>
<path fill="#66cdaa" stroke="black" d="M347.5,-180C347.5,-180 306.5,-180 306.5,-180 300.5,-180 294.5,-174 294.5,-168 294.5,-168 294.5,-156 294.5,-156 294.5,-150 300.5,-144 306.5,-144 306.5,-144 347.5,-144 347.5,-144 353.5,-144 359.5,-150 359.5,-156 359.5,-156 359.5,-168 359.5,-168 359.5,-174 353.5,-180 347.5,-180"/>
<text text-anchor="middle" x="327" y="-158.3" font-family="Times,serif" font-size="14.00">Constant</text>
</g>
<!-- ast.Compare object at 0x7f1e674ff450&#45;&gt;ast.Constant object at 0x7f1e674fca10 -->
<g id="edge32" class="edge">
<title>ast.Compare object at 0x7f1e674ff450&#45;&gt;ast.Constant object at 0x7f1e674fca10</title>
<path fill="none" stroke="black" d="M327,-215.7C327,-207.98 327,-198.71 327,-190.11"/>
<polygon fill="black" stroke="black" points="330.5,-190.1 327,-180.1 323.5,-190.1 330.5,-190.1"/>
</g>
<!-- ast.BinOp object at 0x7f1e674fcc50&#45;&gt;ast.Mod object at 0x7f1e66db2410 -->
<g id="edge29" class="edge">
<title>ast.BinOp object at 0x7f1e674fcc50&#45;&gt;ast.Mod object at 0x7f1e66db2410</title>
<path fill="none" stroke="black" d="M377.95,-148.49C374.61,-146.97 371.23,-145.44 368,-144 334.01,-128.82 323.21,-125.11 285.66,-108.23"/>
<polygon fill="black" stroke="black" points="286.64,-104.83 276.08,-103.9 283.76,-111.21 286.64,-104.83"/>
</g>
<!-- ast.Name object at 0x7f1e674fce10 -->
<g id="node25" class="node">
<title>ast.Name object at 0x7f1e674fce10</title>
<path fill="#66cdaa" stroke="black" d="M420,-108C420,-108 390,-108 390,-108 384,-108 378,-102 378,-96 378,-96 378,-84 378,-84 378,-78 384,-72 390,-72 390,-72 420,-72 420,-72 426,-72 432,-78 432,-84 432,-84 432,-96 432,-96 432,-102 426,-108 420,-108"/>
<text text-anchor="middle" x="405" y="-86.3" font-family="Times,serif" font-size="14.00">Name</text>
</g>
<!-- ast.BinOp object at 0x7f1e674fcc50&#45;&gt;ast.Name object at 0x7f1e674fce10 -->
<g id="edge27" class="edge">
<title>ast.BinOp object at 0x7f1e674fcc50&#45;&gt;ast.Name object at 0x7f1e674fce10</title>
<path fill="none" stroke="black" d="M405,-143.7C405,-135.98 405,-126.71 405,-118.11"/>
<polygon fill="black" stroke="black" points="408.5,-118.1 405,-108.1 401.5,-118.1 408.5,-118.1"/>
</g>
<!-- ast.Constant object at 0x7f1e674fed90 -->
<g id="node26" class="node">
<title>ast.Constant object at 0x7f1e674fed90</title>
<path fill="#66cdaa" stroke="black" d="M347.5,-108C347.5,-108 306.5,-108 306.5,-108 300.5,-108 294.5,-102 294.5,-96 294.5,-96 294.5,-84 294.5,-84 294.5,-78 300.5,-72 306.5,-72 306.5,-72 347.5,-72 347.5,-72 353.5,-72 359.5,-78 359.5,-84 359.5,-84 359.5,-96 359.5,-96 359.5,-102 353.5,-108 347.5,-108"/>
<text text-anchor="middle" x="327" y="-86.3" font-family="Times,serif" font-size="14.00">Constant</text>
</g>
<!-- ast.BinOp object at 0x7f1e674fcc50&#45;&gt;ast.Constant object at 0x7f1e674fed90 -->
<g id="edge30" class="edge">
<title>ast.BinOp object at 0x7f1e674fcc50&#45;&gt;ast.Constant object at 0x7f1e674fed90</title>
<path fill="none" stroke="black" d="M385.72,-143.7C376.08,-135.05 364.27,-124.45 353.77,-115.03"/>
<polygon fill="black" stroke="black" points="355.84,-112.18 346.06,-108.1 351.16,-117.39 355.84,-112.18"/>
</g>
<!-- ast.Name object at 0x7f1e674fce10&#45;&gt;ast.Load object at 0x7f1e66db1c90 -->
<g id="edge28" class="edge">
<title>ast.Name object at 0x7f1e674fce10&#45;&gt;ast.Load object at 0x7f1e66db1c90</title>
<path fill="none" stroke="black" d="M377.98,-72.41C362.76,-63.06 343.55,-51.27 327.06,-41.14"/>
<polygon fill="black" stroke="black" points="328.57,-37.96 318.22,-35.71 324.91,-43.93 328.57,-37.96"/>
</g>
<!-- ast.Subscript object at 0x7f1e674fcb90 -->
<g id="node29" class="node">
<title>ast.Subscript object at 0x7f1e674fcb90</title>
<path fill="#66cdaa" stroke="black" d="M530,-180C530,-180 486,-180 486,-180 480,-180 474,-174 474,-168 474,-168 474,-156 474,-156 474,-150 480,-144 486,-144 486,-144 530,-144 530,-144 536,-144 542,-150 542,-156 542,-156 542,-168 542,-168 542,-174 536,-180 530,-180"/>
<text text-anchor="middle" x="508" y="-158.3" font-family="Times,serif" font-size="14.00">Subscript</text>
</g>
<!-- ast.Return object at 0x7f1e674c9d50&#45;&gt;ast.Subscript object at 0x7f1e674fcb90 -->
<g id="edge34" class="edge">
<title>ast.Return object at 0x7f1e674c9d50&#45;&gt;ast.Subscript object at 0x7f1e674fcb90</title>
<path fill="none" stroke="black" d="M460.98,-503.98C463.89,-477.36 469,-424.23 469,-379 469,-379 469,-379 469,-305 469,-263.56 484.64,-217.67 496.11,-189.58"/>
<polygon fill="black" stroke="black" points="499.45,-190.65 500.11,-180.07 493,-187.93 499.45,-190.65"/>
</g>
<!-- ast.Subscript object at 0x7f1e674fcb90&#45;&gt;ast.Load object at 0x7f1e66db1c90 -->
<g id="edge40" class="edge">
<title>ast.Subscript object at 0x7f1e674fcb90&#45;&gt;ast.Load object at 0x7f1e66db1c90</title>
<path fill="none" stroke="black" d="M515.08,-143.91C521.92,-124.36 529.11,-92.41 513,-72 490.41,-43.38 385.56,-28.52 328.4,-22.42"/>
<polygon fill="black" stroke="black" points="328.62,-18.93 318.32,-21.39 327.9,-25.89 328.62,-18.93"/>
</g>
<!-- ast.Name object at 0x7f1e674fca90 -->
<g id="node30" class="node">
<title>ast.Name object at 0x7f1e674fca90</title>
<path fill="#66cdaa" stroke="black" d="M492,-108C492,-108 462,-108 462,-108 456,-108 450,-102 450,-96 450,-96 450,-84 450,-84 450,-78 456,-72 462,-72 462,-72 492,-72 492,-72 498,-72 504,-78 504,-84 504,-84 504,-96 504,-96 504,-102 498,-108 492,-108"/>
<text text-anchor="middle" x="477" y="-86.3" font-family="Times,serif" font-size="14.00">Name</text>
</g>
<!-- ast.Subscript object at 0x7f1e674fcb90&#45;&gt;ast.Name object at 0x7f1e674fca90 -->
<g id="edge35" class="edge">
<title>ast.Subscript object at 0x7f1e674fcb90&#45;&gt;ast.Name object at 0x7f1e674fca90</title>
<path fill="none" stroke="black" d="M500.34,-143.7C496.81,-135.73 492.54,-126.1 488.63,-117.26"/>
<polygon fill="black" stroke="black" points="491.82,-115.83 484.57,-108.1 485.42,-118.67 491.82,-115.83"/>
</g>
<!-- ast.Slice object at 0x7f1e674fc090 -->
<g id="node31" class="node">
<title>ast.Slice object at 0x7f1e674fc090</title>
<path fill="#66cdaa" stroke="black" d="M602,-108C602,-108 572,-108 572,-108 566,-108 560,-102 560,-96 560,-96 560,-84 560,-84 560,-78 566,-72 572,-72 572,-72 602,-72 602,-72 608,-72 614,-78 614,-84 614,-84 614,-96 614,-96 614,-102 608,-108 602,-108"/>
<text text-anchor="middle" x="587" y="-86.3" font-family="Times,serif" font-size="14.00">Slice</text>
</g>
<!-- ast.Subscript object at 0x7f1e674fcb90&#45;&gt;ast.Slice object at 0x7f1e674fc090 -->
<g id="edge37" class="edge">
<title>ast.Subscript object at 0x7f1e674fcb90&#45;&gt;ast.Slice object at 0x7f1e674fc090</title>
<path fill="none" stroke="black" d="M527.53,-143.7C537.38,-134.97 549.49,-124.24 560.2,-114.75"/>
<polygon fill="black" stroke="black" points="562.53,-117.36 567.7,-108.1 557.89,-112.12 562.53,-117.36"/>
</g>
<!-- ast.Name object at 0x7f1e674fca90&#45;&gt;ast.Load object at 0x7f1e66db1c90 -->
<g id="edge36" class="edge">
<title>ast.Name object at 0x7f1e674fca90&#45;&gt;ast.Load object at 0x7f1e66db1c90</title>
<path fill="none" stroke="black" d="M449.61,-75.72C446.72,-74.42 443.81,-73.16 441,-72 403.02,-56.37 358.56,-41.02 327.95,-30.89"/>
<polygon fill="black" stroke="black" points="328.73,-27.46 318.14,-27.67 326.54,-34.11 328.73,-27.46"/>
</g>
<!-- ast.Constant object at 0x7f1e674fc210 -->
<g id="node32" class="node">
<title>ast.Constant object at 0x7f1e674fc210</title>
<path fill="#66cdaa" stroke="black" d="M565.5,-36C565.5,-36 524.5,-36 524.5,-36 518.5,-36 512.5,-30 512.5,-24 512.5,-24 512.5,-12 512.5,-12 512.5,-6 518.5,0 524.5,0 524.5,0 565.5,0 565.5,0 571.5,0 577.5,-6 577.5,-12 577.5,-12 577.5,-24 577.5,-24 577.5,-30 571.5,-36 565.5,-36"/>
<text text-anchor="middle" x="545" y="-14.3" font-family="Times,serif" font-size="14.00">Constant</text>
</g>
<!-- ast.Slice object at 0x7f1e674fc090&#45;&gt;ast.Constant object at 0x7f1e674fc210 -->
<g id="edge38" class="edge">
<title>ast.Slice object at 0x7f1e674fc090&#45;&gt;ast.Constant object at 0x7f1e674fc210</title>
<path fill="none" stroke="black" d="M576.62,-71.7C571.74,-63.56 565.81,-53.69 560.42,-44.7"/>
<polygon fill="black" stroke="black" points="563.41,-42.88 555.26,-36.1 557.41,-46.48 563.41,-42.88"/>
</g>
<!-- ast.Constant object at 0x7f1e674fc1d0 -->
<g id="node33" class="node">
<title>ast.Constant object at 0x7f1e674fc1d0</title>
<path fill="#66cdaa" stroke="black" d="M648.5,-36C648.5,-36 607.5,-36 607.5,-36 601.5,-36 595.5,-30 595.5,-24 595.5,-24 595.5,-12 595.5,-12 595.5,-6 601.5,0 607.5,0 607.5,0 648.5,0 648.5,0 654.5,0 660.5,-6 660.5,-12 660.5,-12 660.5,-24 660.5,-24 660.5,-30 654.5,-36 648.5,-36"/>
<text text-anchor="middle" x="628" y="-14.3" font-family="Times,serif" font-size="14.00">Constant</text>
</g>
<!-- ast.Slice object at 0x7f1e674fc090&#45;&gt;ast.Constant object at 0x7f1e674fc1d0 -->
<g id="edge39" class="edge">
<title>ast.Slice object at 0x7f1e674fc090&#45;&gt;ast.Constant object at 0x7f1e674fc1d0</title>
<path fill="none" stroke="black" d="M597.13,-71.7C601.85,-63.64 607.56,-53.89 612.78,-44.98"/>
<polygon fill="black" stroke="black" points="615.95,-46.5 617.98,-36.1 609.91,-42.96 615.95,-46.5"/>
</g>
</g>
</svg>
