<?xml version="1.0" encoding="UTF-8" standalone="no"?>
<!DOCTYPE svg PUBLIC "-//W3C//DTD SVG 1.1//EN"
 "http://www.w3.org/Graphics/SVG/1.1/DTD/svg11.dtd">
<!-- Generated by graphviz version 2.50.0 (0)
 -->
<!-- Pages: 1 -->
<svg width="1862pt" height="620pt"
 viewBox="0.00 0.00 1862.00 620.00" xmlns="http://www.w3.org/2000/svg" xmlns:xlink="http://www.w3.org/1999/xlink">
<g id="graph0" class="graph" transform="scale(1 1) rotate(0) translate(4 616)">
<polygon fill="white" stroke="transparent" points="-4,4 -4,-616 1858,-616 1858,4 -4,4"/>
<!-- ast.Module object at 0x7727f8b080d0 -->
<g id="node1" class="node">
<title>ast.Module object at 0x7727f8b080d0</title>
<path fill="#66cdaa" stroke="black" d="M932,-612C932,-612 897,-612 897,-612 891,-612 885,-606 885,-600 885,-600 885,-588 885,-588 885,-582 891,-576 897,-576 897,-576 932,-576 932,-576 938,-576 944,-582 944,-588 944,-588 944,-600 944,-600 944,-606 938,-612 932,-612"/>
<text text-anchor="middle" x="914.5" y="-590.3" font-family="Times,serif" font-size="14.00">Module</text>
</g>
<!-- ast.FunctionDef object at 0x7727ed4cbdd0 -->
<g id="node2" class="node">
<title>ast.FunctionDef object at 0x7727ed4cbdd0</title>
<path fill="#66cdaa" stroke="black" d="M945,-540C945,-540 884,-540 884,-540 878,-540 872,-534 872,-528 872,-528 872,-516 872,-516 872,-510 878,-504 884,-504 884,-504 945,-504 945,-504 951,-504 957,-510 957,-516 957,-516 957,-528 957,-528 957,-534 951,-540 945,-540"/>
<text text-anchor="middle" x="914.5" y="-518.3" font-family="Times,serif" font-size="14.00">FunctionDef</text>
</g>
<!-- ast.Module object at 0x7727f8b080d0&#45;&gt;ast.FunctionDef object at 0x7727ed4cbdd0 -->
<g id="edge1" class="edge">
<title>ast.Module object at 0x7727f8b080d0&#45;&gt;ast.FunctionDef object at 0x7727ed4cbdd0</title>
<path fill="none" stroke="black" d="M914.5,-575.7C914.5,-567.98 914.5,-558.71 914.5,-550.11"/>
<polygon fill="black" stroke="black" points="918,-550.1 914.5,-540.1 911,-550.1 918,-550.1"/>
</g>
<!-- ast.arguments object at 0x7727ed4c9d50 -->
<g id="node3" class="node">
<title>ast.arguments object at 0x7727ed4c9d50</title>
<path fill="#66cdaa" stroke="black" d="M836.5,-468C836.5,-468 786.5,-468 786.5,-468 780.5,-468 774.5,-462 774.5,-456 774.5,-456 774.5,-444 774.5,-444 774.5,-438 780.5,-432 786.5,-432 786.5,-432 836.5,-432 836.5,-432 842.5,-432 848.5,-438 848.5,-444 848.5,-444 848.5,-456 848.5,-456 848.5,-462 842.5,-468 836.5,-468"/>
<text text-anchor="middle" x="811.5" y="-446.3" font-family="Times,serif" font-size="14.00">arguments</text>
</g>
<!-- ast.FunctionDef object at 0x7727ed4cbdd0&#45;&gt;ast.arguments object at 0x7727ed4c9d50 -->
<g id="edge2" class="edge">
<title>ast.FunctionDef object at 0x7727ed4cbdd0&#45;&gt;ast.arguments object at 0x7727ed4c9d50</title>
<path fill="none" stroke="black" d="M889.3,-503.88C876.09,-494.89 859.71,-483.76 845.39,-474.03"/>
<polygon fill="black" stroke="black" points="847.03,-470.92 836.79,-468.19 843.1,-476.71 847.03,-470.92"/>
</g>
<!-- ast.If object at 0x7727ed4c8550 -->
<g id="node5" class="node">
<title>ast.If object at 0x7727ed4c8550</title>
<path fill="#66cdaa" stroke="black" d="M208.5,-324C208.5,-324 178.5,-324 178.5,-324 172.5,-324 166.5,-318 166.5,-312 166.5,-312 166.5,-300 166.5,-300 166.5,-294 172.5,-288 178.5,-288 178.5,-288 208.5,-288 208.5,-288 214.5,-288 220.5,-294 220.5,-300 220.5,-300 220.5,-312 220.5,-312 220.5,-318 214.5,-324 208.5,-324"/>
<text text-anchor="middle" x="193.5" y="-302.3" font-family="Times,serif" font-size="14.00">If</text>
</g>
<!-- ast.FunctionDef object at 0x7727ed4cbdd0&#45;&gt;ast.If object at 0x7727ed4c8550 -->
<g id="edge4" class="edge">
<title>ast.FunctionDef object at 0x7727ed4cbdd0&#45;&gt;ast.If object at 0x7727ed4c8550</title>
<path fill="none" stroke="black" d="M913.03,-503.85C909.13,-469.96 895.25,-394.72 847.5,-360 797.54,-323.68 362.75,-310.86 231.11,-307.79"/>
<polygon fill="black" stroke="black" points="230.82,-304.28 220.74,-307.55 230.66,-311.28 230.82,-304.28"/>
</g>
<!-- ast.Assign object at 0x7727ed4ca490 -->
<g id="node15" class="node">
<title>ast.Assign object at 0x7727ed4ca490</title>
<path fill="#66cdaa" stroke="black" d="M765.5,-324C765.5,-324 735.5,-324 735.5,-324 729.5,-324 723.5,-318 723.5,-312 723.5,-312 723.5,-300 723.5,-300 723.5,-294 729.5,-288 735.5,-288 735.5,-288 765.5,-288 765.5,-288 771.5,-288 777.5,-294 777.5,-300 777.5,-300 777.5,-312 777.5,-312 777.5,-318 771.5,-324 765.5,-324"/>
<text text-anchor="middle" x="750.5" y="-302.3" font-family="Times,serif" font-size="14.00">Assign</text>
</g>
<!-- ast.FunctionDef object at 0x7727ed4cbdd0&#45;&gt;ast.Assign object at 0x7727ed4ca490 -->
<g id="edge15" class="edge">
<title>ast.FunctionDef object at 0x7727ed4cbdd0&#45;&gt;ast.Assign object at 0x7727ed4ca490</title>
<path fill="none" stroke="black" d="M917.19,-503.72C921.16,-471.57 924.83,-402.02 890.5,-360 860.88,-323.74 835.13,-340.97 791.5,-324 790.11,-323.46 788.69,-322.9 787.26,-322.34"/>
<polygon fill="black" stroke="black" points="788.36,-319 777.78,-318.51 785.74,-325.5 788.36,-319"/>
</g>
<!-- ast.For object at 0x7727eb91f850 -->
<g id="node27" class="node">
<title>ast.For object at 0x7727eb91f850</title>
<path fill="#66cdaa" stroke="black" d="M1299.5,-468C1299.5,-468 1269.5,-468 1269.5,-468 1263.5,-468 1257.5,-462 1257.5,-456 1257.5,-456 1257.5,-444 1257.5,-444 1257.5,-438 1263.5,-432 1269.5,-432 1269.5,-432 1299.5,-432 1299.5,-432 1305.5,-432 1311.5,-438 1311.5,-444 1311.5,-444 1311.5,-456 1311.5,-456 1311.5,-462 1305.5,-468 1299.5,-468"/>
<text text-anchor="middle" x="1284.5" y="-446.3" font-family="Times,serif" font-size="14.00">For</text>
</g>
<!-- ast.FunctionDef object at 0x7727ed4cbdd0&#45;&gt;ast.For object at 0x7727eb91f850 -->
<g id="edge32" class="edge">
<title>ast.FunctionDef object at 0x7727ed4cbdd0&#45;&gt;ast.For object at 0x7727eb91f850</title>
<path fill="none" stroke="black" d="M957.31,-512.9C1030.4,-499.07 1178.09,-471.13 1247.22,-458.05"/>
<polygon fill="black" stroke="black" points="1248.05,-461.46 1257.22,-456.16 1246.75,-454.58 1248.05,-461.46"/>
</g>
<!-- ast.Return object at 0x7727eb91e710 -->
<g id="node57" class="node">
<title>ast.Return object at 0x7727eb91e710</title>
<path fill="#66cdaa" stroke="black" d="M1554.5,-468C1554.5,-468 1524.5,-468 1524.5,-468 1518.5,-468 1512.5,-462 1512.5,-456 1512.5,-456 1512.5,-444 1512.5,-444 1512.5,-438 1518.5,-432 1524.5,-432 1524.5,-432 1554.5,-432 1554.5,-432 1560.5,-432 1566.5,-438 1566.5,-444 1566.5,-444 1566.5,-456 1566.5,-456 1566.5,-462 1560.5,-468 1554.5,-468"/>
<text text-anchor="middle" x="1539.5" y="-446.3" font-family="Times,serif" font-size="14.00">Return</text>
</g>
<!-- ast.FunctionDef object at 0x7727ed4cbdd0&#45;&gt;ast.Return object at 0x7727eb91e710 -->
<g id="edge81" class="edge">
<title>ast.FunctionDef object at 0x7727ed4cbdd0&#45;&gt;ast.Return object at 0x7727eb91e710</title>
<path fill="none" stroke="black" d="M957.46,-516.19C1073.7,-503.17 1392.97,-467.41 1502.24,-455.17"/>
<polygon fill="black" stroke="black" points="1502.9,-458.62 1512.45,-454.03 1502.12,-451.66 1502.9,-458.62"/>
</g>
<!-- ast.arg object at 0x7727ed4c9610 -->
<g id="node4" class="node">
<title>ast.arg object at 0x7727ed4c9610</title>
<path fill="#66cdaa" stroke="black" d="M826.5,-396C826.5,-396 796.5,-396 796.5,-396 790.5,-396 784.5,-390 784.5,-384 784.5,-384 784.5,-372 784.5,-372 784.5,-366 790.5,-360 796.5,-360 796.5,-360 826.5,-360 826.5,-360 832.5,-360 838.5,-366 838.5,-372 838.5,-372 838.5,-384 838.5,-384 838.5,-390 832.5,-396 826.5,-396"/>
<text text-anchor="middle" x="811.5" y="-374.3" font-family="Times,serif" font-size="14.00">arg</text>
</g>
<!-- ast.arguments object at 0x7727ed4c9d50&#45;&gt;ast.arg object at 0x7727ed4c9610 -->
<g id="edge3" class="edge">
<title>ast.arguments object at 0x7727ed4c9d50&#45;&gt;ast.arg object at 0x7727ed4c9610</title>
<path fill="none" stroke="black" d="M811.5,-431.7C811.5,-423.98 811.5,-414.71 811.5,-406.11"/>
<polygon fill="black" stroke="black" points="815,-406.1 811.5,-396.1 808,-406.1 815,-406.1"/>
</g>
<!-- ast.Compare object at 0x7727ed4c9650 -->
<g id="node6" class="node">
<title>ast.Compare object at 0x7727ed4c9650</title>
<path fill="#66cdaa" stroke="black" d="M215,-252C215,-252 172,-252 172,-252 166,-252 160,-246 160,-240 160,-240 160,-228 160,-228 160,-222 166,-216 172,-216 172,-216 215,-216 215,-216 221,-216 227,-222 227,-228 227,-228 227,-240 227,-240 227,-246 221,-252 215,-252"/>
<text text-anchor="middle" x="193.5" y="-230.3" font-family="Times,serif" font-size="14.00">Compare</text>
</g>
<!-- ast.If object at 0x7727ed4c8550&#45;&gt;ast.Compare object at 0x7727ed4c9650 -->
<g id="edge5" class="edge">
<title>ast.If object at 0x7727ed4c8550&#45;&gt;ast.Compare object at 0x7727ed4c9650</title>
<path fill="none" stroke="black" d="M193.5,-287.7C193.5,-279.98 193.5,-270.71 193.5,-262.11"/>
<polygon fill="black" stroke="black" points="197,-262.1 193.5,-252.1 190,-262.1 197,-262.1"/>
</g>
<!-- ast.Return object at 0x7727ed4cbf50 -->
<g id="node13" class="node">
<title>ast.Return object at 0x7727ed4cbf50</title>
<path fill="#66cdaa" stroke="black" d="M88.5,-252C88.5,-252 58.5,-252 58.5,-252 52.5,-252 46.5,-246 46.5,-240 46.5,-240 46.5,-228 46.5,-228 46.5,-222 52.5,-216 58.5,-216 58.5,-216 88.5,-216 88.5,-216 94.5,-216 100.5,-222 100.5,-228 100.5,-228 100.5,-240 100.5,-240 100.5,-246 94.5,-252 88.5,-252"/>
<text text-anchor="middle" x="73.5" y="-230.3" font-family="Times,serif" font-size="14.00">Return</text>
</g>
<!-- ast.If object at 0x7727ed4c8550&#45;&gt;ast.Return object at 0x7727ed4cbf50 -->
<g id="edge13" class="edge">
<title>ast.If object at 0x7727ed4c8550&#45;&gt;ast.Return object at 0x7727ed4cbf50</title>
<path fill="none" stroke="black" d="M166.27,-289.12C149.39,-279.27 127.53,-266.52 109.26,-255.86"/>
<polygon fill="black" stroke="black" points="111.02,-252.84 100.62,-250.82 107.5,-258.88 111.02,-252.84"/>
</g>
<!-- ast.Call object at 0x7727ed4cafd0 -->
<g id="node7" class="node">
<title>ast.Call object at 0x7727ed4cafd0</title>
<path fill="#66cdaa" stroke="black" d="M208.5,-180C208.5,-180 178.5,-180 178.5,-180 172.5,-180 166.5,-174 166.5,-168 166.5,-168 166.5,-156 166.5,-156 166.5,-150 172.5,-144 178.5,-144 178.5,-144 208.5,-144 208.5,-144 214.5,-144 220.5,-150 220.5,-156 220.5,-156 220.5,-168 220.5,-168 220.5,-174 214.5,-180 208.5,-180"/>
<text text-anchor="middle" x="193.5" y="-158.3" font-family="Times,serif" font-size="14.00">Call</text>
</g>
<!-- ast.Compare object at 0x7727ed4c9650&#45;&gt;ast.Call object at 0x7727ed4cafd0 -->
<g id="edge6" class="edge">
<title>ast.Compare object at 0x7727ed4c9650&#45;&gt;ast.Call object at 0x7727ed4cafd0</title>
<path fill="none" stroke="black" d="M193.5,-215.7C193.5,-207.98 193.5,-198.71 193.5,-190.11"/>
<polygon fill="black" stroke="black" points="197,-190.1 193.5,-180.1 190,-190.1 197,-190.1"/>
</g>
<!-- ast.Lt object at 0x77290126fcd0 -->
<g id="node11" class="node">
<title>ast.Lt object at 0x77290126fcd0</title>
<path fill="#66cdaa" stroke="black" d="M630.5,-108C630.5,-108 600.5,-108 600.5,-108 594.5,-108 588.5,-102 588.5,-96 588.5,-96 588.5,-84 588.5,-84 588.5,-78 594.5,-72 600.5,-72 600.5,-72 630.5,-72 630.5,-72 636.5,-72 642.5,-78 642.5,-84 642.5,-84 642.5,-96 642.5,-96 642.5,-102 636.5,-108 630.5,-108"/>
<text text-anchor="middle" x="615.5" y="-86.3" font-family="Times,serif" font-size="14.00">Lt</text>
</g>
<!-- ast.Compare object at 0x7727ed4c9650&#45;&gt;ast.Lt object at 0x77290126fcd0 -->
<g id="edge11" class="edge">
<title>ast.Compare object at 0x7727ed4c9650&#45;&gt;ast.Lt object at 0x77290126fcd0</title>
<path fill="none" stroke="black" d="M227.1,-232.11C284.42,-229.52 403.8,-219.41 495.5,-180 531.95,-164.33 567.69,-135.61 590.55,-115.03"/>
<polygon fill="black" stroke="black" points="593.07,-117.47 598.07,-108.13 588.34,-112.31 593.07,-117.47"/>
</g>
<!-- ast.Constant object at 0x7727ed4c8dd0 -->
<g id="node12" class="node">
<title>ast.Constant object at 0x7727ed4c8dd0</title>
<path fill="#66cdaa" stroke="black" d="M136,-180C136,-180 95,-180 95,-180 89,-180 83,-174 83,-168 83,-168 83,-156 83,-156 83,-150 89,-144 95,-144 95,-144 136,-144 136,-144 142,-144 148,-150 148,-156 148,-156 148,-168 148,-168 148,-174 142,-180 136,-180"/>
<text text-anchor="middle" x="115.5" y="-158.3" font-family="Times,serif" font-size="14.00">Constant</text>
</g>
<!-- ast.Compare object at 0x7727ed4c9650&#45;&gt;ast.Constant object at 0x7727ed4c8dd0 -->
<g id="edge12" class="edge">
<title>ast.Compare object at 0x7727ed4c9650&#45;&gt;ast.Constant object at 0x7727ed4c8dd0</title>
<path fill="none" stroke="black" d="M174.22,-215.7C164.58,-207.05 152.77,-196.45 142.27,-187.03"/>
<polygon fill="black" stroke="black" points="144.34,-184.18 134.56,-180.1 139.66,-189.39 144.34,-184.18"/>
</g>
<!-- ast.Name object at 0x7727ed4cbe50 -->
<g id="node8" class="node">
<title>ast.Name object at 0x7727ed4cbe50</title>
<path fill="#66cdaa" stroke="black" d="M136.5,-108C136.5,-108 106.5,-108 106.5,-108 100.5,-108 94.5,-102 94.5,-96 94.5,-96 94.5,-84 94.5,-84 94.5,-78 100.5,-72 106.5,-72 106.5,-72 136.5,-72 136.5,-72 142.5,-72 148.5,-78 148.5,-84 148.5,-84 148.5,-96 148.5,-96 148.5,-102 142.5,-108 136.5,-108"/>
<text text-anchor="middle" x="121.5" y="-86.3" font-family="Times,serif" font-size="14.00">Name</text>
</g>
<!-- ast.Call object at 0x7727ed4cafd0&#45;&gt;ast.Name object at 0x7727ed4cbe50 -->
<g id="edge7" class="edge">
<title>ast.Call object at 0x7727ed4cafd0&#45;&gt;ast.Name object at 0x7727ed4cbe50</title>
<path fill="none" stroke="black" d="M175.7,-143.7C166.9,-135.14 156.12,-124.66 146.5,-115.3"/>
<polygon fill="black" stroke="black" points="148.7,-112.57 139.09,-108.1 143.82,-117.58 148.7,-112.57"/>
</g>
<!-- ast.Name object at 0x7727ed4cb950 -->
<g id="node10" class="node">
<title>ast.Name object at 0x7727ed4cb950</title>
<path fill="#66cdaa" stroke="black" d="M208.5,-108C208.5,-108 178.5,-108 178.5,-108 172.5,-108 166.5,-102 166.5,-96 166.5,-96 166.5,-84 166.5,-84 166.5,-78 172.5,-72 178.5,-72 178.5,-72 208.5,-72 208.5,-72 214.5,-72 220.5,-78 220.5,-84 220.5,-84 220.5,-96 220.5,-96 220.5,-102 214.5,-108 208.5,-108"/>
<text text-anchor="middle" x="193.5" y="-86.3" font-family="Times,serif" font-size="14.00">Name</text>
</g>
<!-- ast.Call object at 0x7727ed4cafd0&#45;&gt;ast.Name object at 0x7727ed4cb950 -->
<g id="edge9" class="edge">
<title>ast.Call object at 0x7727ed4cafd0&#45;&gt;ast.Name object at 0x7727ed4cb950</title>
<path fill="none" stroke="black" d="M193.5,-143.7C193.5,-135.98 193.5,-126.71 193.5,-118.11"/>
<polygon fill="black" stroke="black" points="197,-118.1 193.5,-108.1 190,-118.1 197,-118.1"/>
</g>
<!-- ast.Load object at 0x77290126ebd0 -->
<g id="node9" class="node">
<title>ast.Load object at 0x77290126ebd0</title>
<path fill="#66cdaa" stroke="black" d="M1098.5,-36C1098.5,-36 1068.5,-36 1068.5,-36 1062.5,-36 1056.5,-30 1056.5,-24 1056.5,-24 1056.5,-12 1056.5,-12 1056.5,-6 1062.5,0 1068.5,0 1068.5,0 1098.5,0 1098.5,0 1104.5,0 1110.5,-6 1110.5,-12 1110.5,-12 1110.5,-24 1110.5,-24 1110.5,-30 1104.5,-36 1098.5,-36"/>
<text text-anchor="middle" x="1083.5" y="-14.3" font-family="Times,serif" font-size="14.00">Load</text>
</g>
<!-- ast.Name object at 0x7727ed4cbe50&#45;&gt;ast.Load object at 0x77290126ebd0 -->
<g id="edge8" class="edge">
<title>ast.Name object at 0x7727ed4cbe50&#45;&gt;ast.Load object at 0x77290126ebd0</title>
<path fill="none" stroke="black" d="M148.61,-74.88C151.56,-73.74 154.55,-72.75 157.5,-72 330.09,-28.08 895.74,-20.49 1046.37,-19.24"/>
<polygon fill="black" stroke="black" points="1046.51,-22.74 1056.49,-19.16 1046.46,-15.74 1046.51,-22.74"/>
</g>
<!-- ast.Name object at 0x7727ed4cb950&#45;&gt;ast.Load object at 0x77290126ebd0 -->
<g id="edge10" class="edge">
<title>ast.Name object at 0x7727ed4cb950&#45;&gt;ast.Load object at 0x77290126ebd0</title>
<path fill="none" stroke="black" d="M220.88,-76.2C225.35,-74.53 230,-73.04 234.5,-72 392.4,-35.41 903.72,-22.6 1046.29,-19.69"/>
<polygon fill="black" stroke="black" points="1046.36,-23.19 1056.29,-19.49 1046.22,-16.19 1046.36,-23.19"/>
</g>
<!-- ast.Constant object at 0x7727ed4cb250 -->
<g id="node14" class="node">
<title>ast.Constant object at 0x7727ed4cb250</title>
<path fill="#66cdaa" stroke="black" d="M53,-180C53,-180 12,-180 12,-180 6,-180 0,-174 0,-168 0,-168 0,-156 0,-156 0,-150 6,-144 12,-144 12,-144 53,-144 53,-144 59,-144 65,-150 65,-156 65,-156 65,-168 65,-168 65,-174 59,-180 53,-180"/>
<text text-anchor="middle" x="32.5" y="-158.3" font-family="Times,serif" font-size="14.00">Constant</text>
</g>
<!-- ast.Return object at 0x7727ed4cbf50&#45;&gt;ast.Constant object at 0x7727ed4cb250 -->
<g id="edge14" class="edge">
<title>ast.Return object at 0x7727ed4cbf50&#45;&gt;ast.Constant object at 0x7727ed4cb250</title>
<path fill="none" stroke="black" d="M63.37,-215.7C58.65,-207.64 52.94,-197.89 47.72,-188.98"/>
<polygon fill="black" stroke="black" points="50.59,-186.96 42.52,-180.1 44.55,-190.5 50.59,-186.96"/>
</g>
<!-- ast.Tuple object at 0x7727ed4cbb50 -->
<g id="node16" class="node">
<title>ast.Tuple object at 0x7727ed4cbb50</title>
<path fill="#66cdaa" stroke="black" d="M988.5,-252C988.5,-252 958.5,-252 958.5,-252 952.5,-252 946.5,-246 946.5,-240 946.5,-240 946.5,-228 946.5,-228 946.5,-222 952.5,-216 958.5,-216 958.5,-216 988.5,-216 988.5,-216 994.5,-216 1000.5,-222 1000.5,-228 1000.5,-228 1000.5,-240 1000.5,-240 1000.5,-246 994.5,-252 988.5,-252"/>
<text text-anchor="middle" x="973.5" y="-230.3" font-family="Times,serif" font-size="14.00">Tuple</text>
</g>
<!-- ast.Assign object at 0x7727ed4ca490&#45;&gt;ast.Tuple object at 0x7727ed4cbb50 -->
<g id="edge16" class="edge">
<title>ast.Assign object at 0x7727ed4ca490&#45;&gt;ast.Tuple object at 0x7727ed4cbb50</title>
<path fill="none" stroke="black" d="M777.84,-296.42C817.74,-283.89 892.01,-260.58 936.68,-246.56"/>
<polygon fill="black" stroke="black" points="937.79,-249.88 946.28,-243.54 935.69,-243.2 937.79,-249.88"/>
</g>
<!-- ast.Tuple object at 0x7727ed4c87d0 -->
<g id="node20" class="node">
<title>ast.Tuple object at 0x7727ed4c87d0</title>
<path fill="#66cdaa" stroke="black" d="M435.5,-252C435.5,-252 405.5,-252 405.5,-252 399.5,-252 393.5,-246 393.5,-240 393.5,-240 393.5,-228 393.5,-228 393.5,-222 399.5,-216 405.5,-216 405.5,-216 435.5,-216 435.5,-216 441.5,-216 447.5,-222 447.5,-228 447.5,-228 447.5,-240 447.5,-240 447.5,-246 441.5,-252 435.5,-252"/>
<text text-anchor="middle" x="420.5" y="-230.3" font-family="Times,serif" font-size="14.00">Tuple</text>
</g>
<!-- ast.Assign object at 0x7727ed4ca490&#45;&gt;ast.Tuple object at 0x7727ed4c87d0 -->
<g id="edge22" class="edge">
<title>ast.Assign object at 0x7727ed4ca490&#45;&gt;ast.Tuple object at 0x7727ed4c87d0</title>
<path fill="none" stroke="black" d="M723.49,-299.27C664.76,-286.81 525.27,-257.22 458.03,-242.96"/>
<polygon fill="black" stroke="black" points="458.39,-239.46 447.88,-240.81 456.93,-246.31 458.39,-239.46"/>
</g>
<!-- ast.Name object at 0x7727ed4c98d0 -->
<g id="node17" class="node">
<title>ast.Name object at 0x7727ed4c98d0</title>
<path fill="#66cdaa" stroke="black" d="M950.5,-180C950.5,-180 920.5,-180 920.5,-180 914.5,-180 908.5,-174 908.5,-168 908.5,-168 908.5,-156 908.5,-156 908.5,-150 914.5,-144 920.5,-144 920.5,-144 950.5,-144 950.5,-144 956.5,-144 962.5,-150 962.5,-156 962.5,-156 962.5,-168 962.5,-168 962.5,-174 956.5,-180 950.5,-180"/>
<text text-anchor="middle" x="935.5" y="-158.3" font-family="Times,serif" font-size="14.00">Name</text>
</g>
<!-- ast.Tuple object at 0x7727ed4cbb50&#45;&gt;ast.Name object at 0x7727ed4c98d0 -->
<g id="edge17" class="edge">
<title>ast.Tuple object at 0x7727ed4cbb50&#45;&gt;ast.Name object at 0x7727ed4c98d0</title>
<path fill="none" stroke="black" d="M964.11,-215.7C959.74,-207.64 954.44,-197.89 949.6,-188.98"/>
<polygon fill="black" stroke="black" points="952.63,-187.22 944.79,-180.1 946.48,-190.56 952.63,-187.22"/>
</g>
<!-- ast.Store object at 0x77290126ec50 -->
<g id="node18" class="node">
<title>ast.Store object at 0x77290126ec50</title>
<path fill="#66cdaa" stroke="black" d="M1245.5,-108C1245.5,-108 1215.5,-108 1215.5,-108 1209.5,-108 1203.5,-102 1203.5,-96 1203.5,-96 1203.5,-84 1203.5,-84 1203.5,-78 1209.5,-72 1215.5,-72 1215.5,-72 1245.5,-72 1245.5,-72 1251.5,-72 1257.5,-78 1257.5,-84 1257.5,-84 1257.5,-96 1257.5,-96 1257.5,-102 1251.5,-108 1245.5,-108"/>
<text text-anchor="middle" x="1230.5" y="-86.3" font-family="Times,serif" font-size="14.00">Store</text>
</g>
<!-- ast.Tuple object at 0x7727ed4cbb50&#45;&gt;ast.Store object at 0x77290126ec50 -->
<g id="edge21" class="edge">
<title>ast.Tuple object at 0x7727ed4cbb50&#45;&gt;ast.Store object at 0x77290126ec50</title>
<path fill="none" stroke="black" d="M1000.61,-226.38C1030.32,-218.36 1078.66,-202.98 1115.5,-180 1135.24,-167.69 1135.42,-158.64 1153.5,-144 1166.54,-133.44 1181.6,-122.77 1194.92,-113.8"/>
<polygon fill="black" stroke="black" points="1197,-116.62 1203.39,-108.17 1193.13,-110.79 1197,-116.62"/>
</g>
<!-- ast.Name object at 0x7727ed4ca310 -->
<g id="node19" class="node">
<title>ast.Name object at 0x7727ed4ca310</title>
<path fill="#66cdaa" stroke="black" d="M1022.5,-180C1022.5,-180 992.5,-180 992.5,-180 986.5,-180 980.5,-174 980.5,-168 980.5,-168 980.5,-156 980.5,-156 980.5,-150 986.5,-144 992.5,-144 992.5,-144 1022.5,-144 1022.5,-144 1028.5,-144 1034.5,-150 1034.5,-156 1034.5,-156 1034.5,-168 1034.5,-168 1034.5,-174 1028.5,-180 1022.5,-180"/>
<text text-anchor="middle" x="1007.5" y="-158.3" font-family="Times,serif" font-size="14.00">Name</text>
</g>
<!-- ast.Tuple object at 0x7727ed4cbb50&#45;&gt;ast.Name object at 0x7727ed4ca310 -->
<g id="edge19" class="edge">
<title>ast.Tuple object at 0x7727ed4cbb50&#45;&gt;ast.Name object at 0x7727ed4ca310</title>
<path fill="none" stroke="black" d="M981.9,-215.7C985.77,-207.73 990.45,-198.1 994.74,-189.26"/>
<polygon fill="black" stroke="black" points="997.97,-190.63 999.19,-180.1 991.67,-187.57 997.97,-190.63"/>
</g>
<!-- ast.Name object at 0x7727ed4c98d0&#45;&gt;ast.Store object at 0x77290126ec50 -->
<g id="edge18" class="edge">
<title>ast.Name object at 0x7727ed4c98d0&#45;&gt;ast.Store object at 0x77290126ec50</title>
<path fill="none" stroke="black" d="M962.73,-147.29C965.65,-146.07 968.61,-144.95 971.5,-144 1050.67,-118.01 1073.97,-125.21 1155.5,-108 1167.95,-105.37 1181.53,-102.34 1193.66,-99.58"/>
<polygon fill="black" stroke="black" points="1194.5,-102.98 1203.46,-97.33 1192.94,-96.15 1194.5,-102.98"/>
</g>
<!-- ast.Name object at 0x7727ed4ca310&#45;&gt;ast.Store object at 0x77290126ec50 -->
<g id="edge20" class="edge">
<title>ast.Name object at 0x7727ed4ca310&#45;&gt;ast.Store object at 0x77290126ec50</title>
<path fill="none" stroke="black" d="M1034.82,-147.53C1037.72,-146.27 1040.65,-145.07 1043.5,-144 1094.33,-124.94 1155.12,-108.91 1193.28,-99.62"/>
<polygon fill="black" stroke="black" points="1194.52,-102.93 1203.42,-97.18 1192.88,-96.12 1194.52,-102.93"/>
</g>
<!-- ast.Tuple object at 0x7727ed4c87d0&#45;&gt;ast.Load object at 0x77290126ebd0 -->
<g id="edge31" class="edge">
<title>ast.Tuple object at 0x7727ed4c87d0&#45;&gt;ast.Load object at 0x77290126ebd0</title>
<path fill="none" stroke="black" d="M393.32,-220.94C336.59,-194.22 215.03,-127.99 267.5,-72 294.49,-43.2 890.39,-24.44 1046.39,-20.01"/>
<polygon fill="black" stroke="black" points="1046.54,-23.51 1056.44,-19.73 1046.34,-16.51 1046.54,-23.51"/>
</g>
<!-- ast.Call object at 0x7727ed4ca090 -->
<g id="node21" class="node">
<title>ast.Call object at 0x7727ed4ca090</title>
<path fill="#66cdaa" stroke="black" d="M396.5,-180C396.5,-180 366.5,-180 366.5,-180 360.5,-180 354.5,-174 354.5,-168 354.5,-168 354.5,-156 354.5,-156 354.5,-150 360.5,-144 366.5,-144 366.5,-144 396.5,-144 396.5,-144 402.5,-144 408.5,-150 408.5,-156 408.5,-156 408.5,-168 408.5,-168 408.5,-174 402.5,-180 396.5,-180"/>
<text text-anchor="middle" x="381.5" y="-158.3" font-family="Times,serif" font-size="14.00">Call</text>
</g>
<!-- ast.Tuple object at 0x7727ed4c87d0&#45;&gt;ast.Call object at 0x7727ed4ca090 -->
<g id="edge23" class="edge">
<title>ast.Tuple object at 0x7727ed4c87d0&#45;&gt;ast.Call object at 0x7727ed4ca090</title>
<path fill="none" stroke="black" d="M410.86,-215.7C406.37,-207.64 400.94,-197.89 395.98,-188.98"/>
<polygon fill="black" stroke="black" points="398.95,-187.14 391.03,-180.1 392.84,-190.54 398.95,-187.14"/>
</g>
<!-- ast.Call object at 0x7727eb91d410 -->
<g id="node24" class="node">
<title>ast.Call object at 0x7727eb91d410</title>
<path fill="#66cdaa" stroke="black" d="M474.5,-180C474.5,-180 444.5,-180 444.5,-180 438.5,-180 432.5,-174 432.5,-168 432.5,-168 432.5,-156 432.5,-156 432.5,-150 438.5,-144 444.5,-144 444.5,-144 474.5,-144 474.5,-144 480.5,-144 486.5,-150 486.5,-156 486.5,-156 486.5,-168 486.5,-168 486.5,-174 480.5,-180 474.5,-180"/>
<text text-anchor="middle" x="459.5" y="-158.3" font-family="Times,serif" font-size="14.00">Call</text>
</g>
<!-- ast.Tuple object at 0x7727ed4c87d0&#45;&gt;ast.Call object at 0x7727eb91d410 -->
<g id="edge27" class="edge">
<title>ast.Tuple object at 0x7727ed4c87d0&#45;&gt;ast.Call object at 0x7727eb91d410</title>
<path fill="none" stroke="black" d="M430.14,-215.7C434.63,-207.64 440.06,-197.89 445.02,-188.98"/>
<polygon fill="black" stroke="black" points="448.16,-190.54 449.97,-180.1 442.05,-187.14 448.16,-190.54"/>
</g>
<!-- ast.Name object at 0x7727eb91dd50 -->
<g id="node22" class="node">
<title>ast.Name object at 0x7727eb91dd50</title>
<path fill="#66cdaa" stroke="black" d="M318.5,-108C318.5,-108 288.5,-108 288.5,-108 282.5,-108 276.5,-102 276.5,-96 276.5,-96 276.5,-84 276.5,-84 276.5,-78 282.5,-72 288.5,-72 288.5,-72 318.5,-72 318.5,-72 324.5,-72 330.5,-78 330.5,-84 330.5,-84 330.5,-96 330.5,-96 330.5,-102 324.5,-108 318.5,-108"/>
<text text-anchor="middle" x="303.5" y="-86.3" font-family="Times,serif" font-size="14.00">Name</text>
</g>
<!-- ast.Call object at 0x7727ed4ca090&#45;&gt;ast.Name object at 0x7727eb91dd50 -->
<g id="edge24" class="edge">
<title>ast.Call object at 0x7727ed4ca090&#45;&gt;ast.Name object at 0x7727eb91dd50</title>
<path fill="none" stroke="black" d="M362.22,-143.7C352.58,-135.05 340.77,-124.45 330.27,-115.03"/>
<polygon fill="black" stroke="black" points="332.34,-112.18 322.56,-108.1 327.66,-117.39 332.34,-112.18"/>
</g>
<!-- ast.Constant object at 0x7727eb91e490 -->
<g id="node23" class="node">
<title>ast.Constant object at 0x7727eb91e490</title>
<path fill="#66cdaa" stroke="black" d="M402,-108C402,-108 361,-108 361,-108 355,-108 349,-102 349,-96 349,-96 349,-84 349,-84 349,-78 355,-72 361,-72 361,-72 402,-72 402,-72 408,-72 414,-78 414,-84 414,-84 414,-96 414,-96 414,-102 408,-108 402,-108"/>
<text text-anchor="middle" x="381.5" y="-86.3" font-family="Times,serif" font-size="14.00">Constant</text>
</g>
<!-- ast.Call object at 0x7727ed4ca090&#45;&gt;ast.Constant object at 0x7727eb91e490 -->
<g id="edge26" class="edge">
<title>ast.Call object at 0x7727ed4ca090&#45;&gt;ast.Constant object at 0x7727eb91e490</title>
<path fill="none" stroke="black" d="M381.5,-143.7C381.5,-135.98 381.5,-126.71 381.5,-118.11"/>
<polygon fill="black" stroke="black" points="385,-118.1 381.5,-108.1 378,-118.1 385,-118.1"/>
</g>
<!-- ast.Name object at 0x7727eb91dd50&#45;&gt;ast.Load object at 0x77290126ebd0 -->
<g id="edge25" class="edge">
<title>ast.Name object at 0x7727eb91dd50&#45;&gt;ast.Load object at 0x77290126ebd0</title>
<path fill="none" stroke="black" d="M330.58,-75.24C333.86,-73.97 337.21,-72.84 340.5,-72 476.2,-37.21 914.39,-23.35 1045.87,-19.91"/>
<polygon fill="black" stroke="black" points="1046.31,-23.4 1056.21,-19.64 1046.13,-16.4 1046.31,-23.4"/>
</g>
<!-- ast.Name object at 0x7727eb91dd10 -->
<g id="node25" class="node">
<title>ast.Name object at 0x7727eb91dd10</title>
<path fill="#66cdaa" stroke="black" d="M474.5,-108C474.5,-108 444.5,-108 444.5,-108 438.5,-108 432.5,-102 432.5,-96 432.5,-96 432.5,-84 432.5,-84 432.5,-78 438.5,-72 444.5,-72 444.5,-72 474.5,-72 474.5,-72 480.5,-72 486.5,-78 486.5,-84 486.5,-84 486.5,-96 486.5,-96 486.5,-102 480.5,-108 474.5,-108"/>
<text text-anchor="middle" x="459.5" y="-86.3" font-family="Times,serif" font-size="14.00">Name</text>
</g>
<!-- ast.Call object at 0x7727eb91d410&#45;&gt;ast.Name object at 0x7727eb91dd10 -->
<g id="edge28" class="edge">
<title>ast.Call object at 0x7727eb91d410&#45;&gt;ast.Name object at 0x7727eb91dd10</title>
<path fill="none" stroke="black" d="M459.5,-143.7C459.5,-135.98 459.5,-126.71 459.5,-118.11"/>
<polygon fill="black" stroke="black" points="463,-118.1 459.5,-108.1 456,-118.1 463,-118.1"/>
</g>
<!-- ast.Constant object at 0x7727eb91f090 -->
<g id="node26" class="node">
<title>ast.Constant object at 0x7727eb91f090</title>
<path fill="#66cdaa" stroke="black" d="M558,-108C558,-108 517,-108 517,-108 511,-108 505,-102 505,-96 505,-96 505,-84 505,-84 505,-78 511,-72 517,-72 517,-72 558,-72 558,-72 564,-72 570,-78 570,-84 570,-84 570,-96 570,-96 570,-102 564,-108 558,-108"/>
<text text-anchor="middle" x="537.5" y="-86.3" font-family="Times,serif" font-size="14.00">Constant</text>
</g>
<!-- ast.Call object at 0x7727eb91d410&#45;&gt;ast.Constant object at 0x7727eb91f090 -->
<g id="edge30" class="edge">
<title>ast.Call object at 0x7727eb91d410&#45;&gt;ast.Constant object at 0x7727eb91f090</title>
<path fill="none" stroke="black" d="M478.78,-143.7C488.42,-135.05 500.23,-124.45 510.73,-115.03"/>
<polygon fill="black" stroke="black" points="513.34,-117.39 518.44,-108.1 508.66,-112.18 513.34,-117.39"/>
</g>
<!-- ast.Name object at 0x7727eb91dd10&#45;&gt;ast.Load object at 0x77290126ebd0 -->
<g id="edge29" class="edge">
<title>ast.Name object at 0x7727eb91dd10&#45;&gt;ast.Load object at 0x77290126ebd0</title>
<path fill="none" stroke="black" d="M486.59,-75.3C489.87,-74.02 493.22,-72.87 496.5,-72 601.15,-44.12 934.05,-26.11 1046.21,-20.71"/>
<polygon fill="black" stroke="black" points="1046.53,-24.2 1056.36,-20.23 1046.2,-17.21 1046.53,-24.2"/>
</g>
<!-- ast.Name object at 0x7727eb91e250 -->
<g id="node28" class="node">
<title>ast.Name object at 0x7727eb91e250</title>
<path fill="#66cdaa" stroke="black" d="M1359.5,-396C1359.5,-396 1329.5,-396 1329.5,-396 1323.5,-396 1317.5,-390 1317.5,-384 1317.5,-384 1317.5,-372 1317.5,-372 1317.5,-366 1323.5,-360 1329.5,-360 1329.5,-360 1359.5,-360 1359.5,-360 1365.5,-360 1371.5,-366 1371.5,-372 1371.5,-372 1371.5,-384 1371.5,-384 1371.5,-390 1365.5,-396 1359.5,-396"/>
<text text-anchor="middle" x="1344.5" y="-374.3" font-family="Times,serif" font-size="14.00">Name</text>
</g>
<!-- ast.For object at 0x7727eb91f850&#45;&gt;ast.Name object at 0x7727eb91e250 -->
<g id="edge33" class="edge">
<title>ast.For object at 0x7727eb91f850&#45;&gt;ast.Name object at 0x7727eb91e250</title>
<path fill="none" stroke="black" d="M1299.33,-431.7C1306.52,-423.3 1315.3,-413.07 1323.19,-403.86"/>
<polygon fill="black" stroke="black" points="1325.99,-405.97 1329.84,-396.1 1320.67,-401.42 1325.99,-405.97"/>
</g>
<!-- ast.Subscript object at 0x7727eb91d910 -->
<g id="node29" class="node">
<title>ast.Subscript object at 0x7727eb91d910</title>
<path fill="#66cdaa" stroke="black" d="M1582.5,-180C1582.5,-180 1538.5,-180 1538.5,-180 1532.5,-180 1526.5,-174 1526.5,-168 1526.5,-168 1526.5,-156 1526.5,-156 1526.5,-150 1532.5,-144 1538.5,-144 1538.5,-144 1582.5,-144 1582.5,-144 1588.5,-144 1594.5,-150 1594.5,-156 1594.5,-156 1594.5,-168 1594.5,-168 1594.5,-174 1588.5,-180 1582.5,-180"/>
<text text-anchor="middle" x="1560.5" y="-158.3" font-family="Times,serif" font-size="14.00">Subscript</text>
</g>
<!-- ast.For object at 0x7727eb91f850&#45;&gt;ast.Subscript object at 0x7727eb91d910 -->
<g id="edge35" class="edge">
<title>ast.For object at 0x7727eb91f850&#45;&gt;ast.Subscript object at 0x7727eb91d910</title>
<path fill="none" stroke="black" d="M1311.6,-437.69C1331.91,-428.38 1359.69,-413.84 1380.5,-396 1454.2,-332.81 1517.61,-235.15 1545.44,-188.93"/>
<polygon fill="black" stroke="black" points="1548.57,-190.52 1550.68,-180.14 1542.55,-186.94 1548.57,-190.52"/>
</g>
<!-- ast.If object at 0x7727eb91cfd0 -->
<g id="node33" class="node">
<title>ast.If object at 0x7727eb91cfd0</title>
<path fill="#66cdaa" stroke="black" d="M1207.5,-396C1207.5,-396 1177.5,-396 1177.5,-396 1171.5,-396 1165.5,-390 1165.5,-384 1165.5,-384 1165.5,-372 1165.5,-372 1165.5,-366 1171.5,-360 1177.5,-360 1177.5,-360 1207.5,-360 1207.5,-360 1213.5,-360 1219.5,-366 1219.5,-372 1219.5,-372 1219.5,-384 1219.5,-384 1219.5,-390 1213.5,-396 1207.5,-396"/>
<text text-anchor="middle" x="1192.5" y="-374.3" font-family="Times,serif" font-size="14.00">If</text>
</g>
<!-- ast.For object at 0x7727eb91f850&#45;&gt;ast.If object at 0x7727eb91cfd0 -->
<g id="edge41" class="edge">
<title>ast.For object at 0x7727eb91f850&#45;&gt;ast.If object at 0x7727eb91cfd0</title>
<path fill="none" stroke="black" d="M1261.76,-431.7C1250.06,-422.8 1235.64,-411.82 1222.99,-402.2"/>
<polygon fill="black" stroke="black" points="1225.06,-399.37 1214.98,-396.1 1220.82,-404.94 1225.06,-399.37"/>
</g>
<!-- ast.Name object at 0x7727eb91e250&#45;&gt;ast.Store object at 0x77290126ec50 -->
<g id="edge34" class="edge">
<title>ast.Name object at 0x7727eb91e250&#45;&gt;ast.Store object at 0x77290126ec50</title>
<path fill="none" stroke="black" d="M1355.42,-359.79C1380.26,-318.26 1435.11,-211.01 1385.5,-144 1352.87,-99.93 1318.75,-127.49 1267.5,-108 1267.4,-107.96 1267.3,-107.92 1267.2,-107.89"/>
<polygon fill="black" stroke="black" points="1268.38,-104.59 1257.8,-104.04 1265.73,-111.07 1268.38,-104.59"/>
</g>
<!-- ast.Subscript object at 0x7727eb91d910&#45;&gt;ast.Load object at 0x77290126ebd0 -->
<g id="edge40" class="edge">
<title>ast.Subscript object at 0x7727eb91d910&#45;&gt;ast.Load object at 0x77290126ebd0</title>
<path fill="none" stroke="black" d="M1558.11,-143.77C1554.28,-123.14 1544.65,-89.21 1521.5,-72 1458.38,-25.09 1214.73,-19.34 1120.76,-18.89"/>
<polygon fill="black" stroke="black" points="1120.59,-15.39 1110.58,-18.86 1120.57,-22.39 1120.59,-15.39"/>
</g>
<!-- ast.Name object at 0x7727eb91d650 -->
<g id="node30" class="node">
<title>ast.Name object at 0x7727eb91d650</title>
<path fill="#66cdaa" stroke="black" d="M1500.5,-108C1500.5,-108 1470.5,-108 1470.5,-108 1464.5,-108 1458.5,-102 1458.5,-96 1458.5,-96 1458.5,-84 1458.5,-84 1458.5,-78 1464.5,-72 1470.5,-72 1470.5,-72 1500.5,-72 1500.5,-72 1506.5,-72 1512.5,-78 1512.5,-84 1512.5,-84 1512.5,-96 1512.5,-96 1512.5,-102 1506.5,-108 1500.5,-108"/>
<text text-anchor="middle" x="1485.5" y="-86.3" font-family="Times,serif" font-size="14.00">Name</text>
</g>
<!-- ast.Subscript object at 0x7727eb91d910&#45;&gt;ast.Name object at 0x7727eb91d650 -->
<g id="edge36" class="edge">
<title>ast.Subscript object at 0x7727eb91d910&#45;&gt;ast.Name object at 0x7727eb91d650</title>
<path fill="none" stroke="black" d="M1541.96,-143.7C1532.7,-135.05 1521.34,-124.45 1511.24,-115.03"/>
<polygon fill="black" stroke="black" points="1513.52,-112.37 1503.83,-108.1 1508.75,-117.49 1513.52,-112.37"/>
</g>
<!-- ast.Slice object at 0x7727eb91c290 -->
<g id="node31" class="node">
<title>ast.Slice object at 0x7727eb91c290</title>
<path fill="#66cdaa" stroke="black" d="M1648.5,-108C1648.5,-108 1618.5,-108 1618.5,-108 1612.5,-108 1606.5,-102 1606.5,-96 1606.5,-96 1606.5,-84 1606.5,-84 1606.5,-78 1612.5,-72 1618.5,-72 1618.5,-72 1648.5,-72 1648.5,-72 1654.5,-72 1660.5,-78 1660.5,-84 1660.5,-84 1660.5,-96 1660.5,-96 1660.5,-102 1654.5,-108 1648.5,-108"/>
<text text-anchor="middle" x="1633.5" y="-86.3" font-family="Times,serif" font-size="14.00">Slice</text>
</g>
<!-- ast.Subscript object at 0x7727eb91d910&#45;&gt;ast.Slice object at 0x7727eb91c290 -->
<g id="edge38" class="edge">
<title>ast.Subscript object at 0x7727eb91d910&#45;&gt;ast.Slice object at 0x7727eb91c290</title>
<path fill="none" stroke="black" d="M1578.54,-143.7C1587.56,-135.05 1598.62,-124.45 1608.44,-115.03"/>
<polygon fill="black" stroke="black" points="1610.87,-117.55 1615.66,-108.1 1606.02,-112.5 1610.87,-117.55"/>
</g>
<!-- ast.Name object at 0x7727eb91d650&#45;&gt;ast.Load object at 0x77290126ebd0 -->
<g id="edge37" class="edge">
<title>ast.Name object at 0x7727eb91d650&#45;&gt;ast.Load object at 0x77290126ebd0</title>
<path fill="none" stroke="black" d="M1458.32,-75.14C1455.39,-73.95 1452.41,-72.88 1449.5,-72 1332.79,-36.85 1187.9,-24.69 1120.81,-20.75"/>
<polygon fill="black" stroke="black" points="1120.91,-17.25 1110.73,-20.18 1120.52,-24.24 1120.91,-17.25"/>
</g>
<!-- ast.Constant object at 0x7727eb91d090 -->
<g id="node32" class="node">
<title>ast.Constant object at 0x7727eb91d090</title>
<path fill="#66cdaa" stroke="black" d="M1654,-36C1654,-36 1613,-36 1613,-36 1607,-36 1601,-30 1601,-24 1601,-24 1601,-12 1601,-12 1601,-6 1607,0 1613,0 1613,0 1654,0 1654,0 1660,0 1666,-6 1666,-12 1666,-12 1666,-24 1666,-24 1666,-30 1660,-36 1654,-36"/>
<text text-anchor="middle" x="1633.5" y="-14.3" font-family="Times,serif" font-size="14.00">Constant</text>
</g>
<!-- ast.Slice object at 0x7727eb91c290&#45;&gt;ast.Constant object at 0x7727eb91d090 -->
<g id="edge39" class="edge">
<title>ast.Slice object at 0x7727eb91c290&#45;&gt;ast.Constant object at 0x7727eb91d090</title>
<path fill="none" stroke="black" d="M1633.5,-71.7C1633.5,-63.98 1633.5,-54.71 1633.5,-46.11"/>
<polygon fill="black" stroke="black" points="1637,-46.1 1633.5,-36.1 1630,-46.1 1637,-46.1"/>
</g>
<!-- ast.Compare object at 0x7727eb91ce50 -->
<g id="node34" class="node">
<title>ast.Compare object at 0x7727eb91ce50</title>
<path fill="#66cdaa" stroke="black" d="M721,-180C721,-180 678,-180 678,-180 672,-180 666,-174 666,-168 666,-168 666,-156 666,-156 666,-150 672,-144 678,-144 678,-144 721,-144 721,-144 727,-144 733,-150 733,-156 733,-156 733,-168 733,-168 733,-174 727,-180 721,-180"/>
<text text-anchor="middle" x="699.5" y="-158.3" font-family="Times,serif" font-size="14.00">Compare</text>
</g>
<!-- ast.If object at 0x7727eb91cfd0&#45;&gt;ast.Compare object at 0x7727eb91ce50 -->
<g id="edge42" class="edge">
<title>ast.If object at 0x7727eb91cfd0&#45;&gt;ast.Compare object at 0x7727eb91ce50</title>
<path fill="none" stroke="black" d="M1165.18,-370.57C1102.75,-355.26 945.72,-313.32 825.5,-252 789.49,-233.63 752.14,-205.99 727.55,-186.39"/>
<polygon fill="black" stroke="black" points="729.7,-183.63 719.72,-180.07 725.31,-189.07 729.7,-183.63"/>
</g>
<!-- ast.Assign object at 0x7727eb91c690 -->
<g id="node38" class="node">
<title>ast.Assign object at 0x7727eb91c690</title>
<path fill="#66cdaa" stroke="black" d="M1348.5,-324C1348.5,-324 1318.5,-324 1318.5,-324 1312.5,-324 1306.5,-318 1306.5,-312 1306.5,-312 1306.5,-300 1306.5,-300 1306.5,-294 1312.5,-288 1318.5,-288 1318.5,-288 1348.5,-288 1348.5,-288 1354.5,-288 1360.5,-294 1360.5,-300 1360.5,-300 1360.5,-312 1360.5,-312 1360.5,-318 1354.5,-324 1348.5,-324"/>
<text text-anchor="middle" x="1333.5" y="-302.3" font-family="Times,serif" font-size="14.00">Assign</text>
</g>
<!-- ast.If object at 0x7727eb91cfd0&#45;&gt;ast.Assign object at 0x7727eb91c690 -->
<g id="edge48" class="edge">
<title>ast.If object at 0x7727eb91cfd0&#45;&gt;ast.Assign object at 0x7727eb91c690</title>
<path fill="none" stroke="black" d="M1219.69,-363.5C1241.73,-352.56 1272.99,-337.04 1297.18,-325.03"/>
<polygon fill="black" stroke="black" points="1299,-328.04 1306.4,-320.46 1295.88,-321.77 1299,-328.04"/>
</g>
<!-- ast.If object at 0x7727eb91e310 -->
<g id="node45" class="node">
<title>ast.If object at 0x7727eb91e310</title>
<path fill="#66cdaa" stroke="black" d="M1149.5,-324C1149.5,-324 1119.5,-324 1119.5,-324 1113.5,-324 1107.5,-318 1107.5,-312 1107.5,-312 1107.5,-300 1107.5,-300 1107.5,-294 1113.5,-288 1119.5,-288 1119.5,-288 1149.5,-288 1149.5,-288 1155.5,-288 1161.5,-294 1161.5,-300 1161.5,-300 1161.5,-312 1161.5,-312 1161.5,-318 1155.5,-324 1149.5,-324"/>
<text text-anchor="middle" x="1134.5" y="-302.3" font-family="Times,serif" font-size="14.00">If</text>
</g>
<!-- ast.If object at 0x7727eb91cfd0&#45;&gt;ast.If object at 0x7727eb91e310 -->
<g id="edge61" class="edge">
<title>ast.If object at 0x7727eb91cfd0&#45;&gt;ast.If object at 0x7727eb91e310</title>
<path fill="none" stroke="black" d="M1178.16,-359.7C1171.21,-351.3 1162.73,-341.07 1155.1,-331.86"/>
<polygon fill="black" stroke="black" points="1157.75,-329.57 1148.67,-324.1 1152.36,-334.04 1157.75,-329.57"/>
</g>
<!-- ast.Name object at 0x7727eb91c190 -->
<g id="node35" class="node">
<title>ast.Name object at 0x7727eb91c190</title>
<path fill="#66cdaa" stroke="black" d="M846.5,-108C846.5,-108 816.5,-108 816.5,-108 810.5,-108 804.5,-102 804.5,-96 804.5,-96 804.5,-84 804.5,-84 804.5,-78 810.5,-72 816.5,-72 816.5,-72 846.5,-72 846.5,-72 852.5,-72 858.5,-78 858.5,-84 858.5,-84 858.5,-96 858.5,-96 858.5,-102 852.5,-108 846.5,-108"/>
<text text-anchor="middle" x="831.5" y="-86.3" font-family="Times,serif" font-size="14.00">Name</text>
</g>
<!-- ast.Compare object at 0x7727eb91ce50&#45;&gt;ast.Name object at 0x7727eb91c190 -->
<g id="edge43" class="edge">
<title>ast.Compare object at 0x7727eb91ce50&#45;&gt;ast.Name object at 0x7727eb91c190</title>
<path fill="none" stroke="black" d="M731.79,-143.88C751.03,-133.67 775.49,-120.7 795.38,-110.16"/>
<polygon fill="black" stroke="black" points="797.24,-113.13 804.44,-105.35 793.96,-106.94 797.24,-113.13"/>
</g>
<!-- ast.Gt object at 0x77290126fdd0 -->
<g id="node36" class="node">
<title>ast.Gt object at 0x77290126fdd0</title>
<path fill="#66cdaa" stroke="black" d="M990.5,-108C990.5,-108 960.5,-108 960.5,-108 954.5,-108 948.5,-102 948.5,-96 948.5,-96 948.5,-84 948.5,-84 948.5,-78 954.5,-72 960.5,-72 960.5,-72 990.5,-72 990.5,-72 996.5,-72 1002.5,-78 1002.5,-84 1002.5,-84 1002.5,-96 1002.5,-96 1002.5,-102 996.5,-108 990.5,-108"/>
<text text-anchor="middle" x="975.5" y="-86.3" font-family="Times,serif" font-size="14.00">Gt</text>
</g>
<!-- ast.Compare object at 0x7727eb91ce50&#45;&gt;ast.Gt object at 0x77290126fdd0 -->
<g id="edge45" class="edge">
<title>ast.Compare object at 0x7727eb91ce50&#45;&gt;ast.Gt object at 0x77290126fdd0</title>
<path fill="none" stroke="black" d="M733.09,-147C736.24,-145.91 739.41,-144.88 742.5,-144 825.06,-120.38 852.81,-134.18 938.66,-107.8"/>
<polygon fill="black" stroke="black" points="939.81,-111.11 948.28,-104.75 937.69,-104.43 939.81,-111.11"/>
</g>
<!-- ast.Name object at 0x7727eb91f550 -->
<g id="node37" class="node">
<title>ast.Name object at 0x7727eb91f550</title>
<path fill="#66cdaa" stroke="black" d="M918.5,-108C918.5,-108 888.5,-108 888.5,-108 882.5,-108 876.5,-102 876.5,-96 876.5,-96 876.5,-84 876.5,-84 876.5,-78 882.5,-72 888.5,-72 888.5,-72 918.5,-72 918.5,-72 924.5,-72 930.5,-78 930.5,-84 930.5,-84 930.5,-96 930.5,-96 930.5,-102 924.5,-108 918.5,-108"/>
<text text-anchor="middle" x="903.5" y="-86.3" font-family="Times,serif" font-size="14.00">Name</text>
</g>
<!-- ast.Compare object at 0x7727eb91ce50&#45;&gt;ast.Name object at 0x7727eb91f550 -->
<g id="edge46" class="edge">
<title>ast.Compare object at 0x7727eb91ce50&#45;&gt;ast.Name object at 0x7727eb91f550</title>
<path fill="none" stroke="black" d="M733.19,-147.33C736.32,-146.16 739.46,-145.04 742.5,-144 794.34,-126.33 811.59,-128.15 866.62,-108.03"/>
<polygon fill="black" stroke="black" points="868.04,-111.24 876.18,-104.46 865.59,-104.68 868.04,-111.24"/>
</g>
<!-- ast.Name object at 0x7727eb91c190&#45;&gt;ast.Load object at 0x77290126ebd0 -->
<g id="edge44" class="edge">
<title>ast.Name object at 0x7727eb91c190&#45;&gt;ast.Load object at 0x77290126ebd0</title>
<path fill="none" stroke="black" d="M858.78,-75.43C861.69,-74.19 864.63,-73.02 867.5,-72 928.82,-50.25 1002.99,-34.17 1046.53,-25.72"/>
<polygon fill="black" stroke="black" points="1047.23,-29.15 1056.39,-23.84 1045.91,-22.28 1047.23,-29.15"/>
</g>
<!-- ast.Name object at 0x7727eb91f550&#45;&gt;ast.Load object at 0x77290126ebd0 -->
<g id="edge47" class="edge">
<title>ast.Name object at 0x7727eb91f550&#45;&gt;ast.Load object at 0x77290126ebd0</title>
<path fill="none" stroke="black" d="M930.51,-75.93C933.53,-74.57 936.57,-73.23 939.5,-72 975.43,-56.94 1017.31,-41.79 1046.61,-31.57"/>
<polygon fill="black" stroke="black" points="1048.12,-34.75 1056.42,-28.16 1045.82,-28.13 1048.12,-34.75"/>
</g>
<!-- ast.Tuple object at 0x7727eb91db50 -->
<g id="node39" class="node">
<title>ast.Tuple object at 0x7727eb91db50</title>
<path fill="#66cdaa" stroke="black" d="M1348.5,-252C1348.5,-252 1318.5,-252 1318.5,-252 1312.5,-252 1306.5,-246 1306.5,-240 1306.5,-240 1306.5,-228 1306.5,-228 1306.5,-222 1312.5,-216 1318.5,-216 1318.5,-216 1348.5,-216 1348.5,-216 1354.5,-216 1360.5,-222 1360.5,-228 1360.5,-228 1360.5,-240 1360.5,-240 1360.5,-246 1354.5,-252 1348.5,-252"/>
<text text-anchor="middle" x="1333.5" y="-230.3" font-family="Times,serif" font-size="14.00">Tuple</text>
</g>
<!-- ast.Assign object at 0x7727eb91c690&#45;&gt;ast.Tuple object at 0x7727eb91db50 -->
<g id="edge49" class="edge">
<title>ast.Assign object at 0x7727eb91c690&#45;&gt;ast.Tuple object at 0x7727eb91db50</title>
<path fill="none" stroke="black" d="M1333.5,-287.7C1333.5,-279.98 1333.5,-270.71 1333.5,-262.11"/>
<polygon fill="black" stroke="black" points="1337,-262.1 1333.5,-252.1 1330,-262.1 1337,-262.1"/>
</g>
<!-- ast.Tuple object at 0x7727eb91cd90 -->
<g id="node42" class="node">
<title>ast.Tuple object at 0x7727eb91cd90</title>
<path fill="#66cdaa" stroke="black" d="M1496.5,-180C1496.5,-180 1466.5,-180 1466.5,-180 1460.5,-180 1454.5,-174 1454.5,-168 1454.5,-168 1454.5,-156 1454.5,-156 1454.5,-150 1460.5,-144 1466.5,-144 1466.5,-144 1496.5,-144 1496.5,-144 1502.5,-144 1508.5,-150 1508.5,-156 1508.5,-156 1508.5,-168 1508.5,-168 1508.5,-174 1502.5,-180 1496.5,-180"/>
<text text-anchor="middle" x="1481.5" y="-158.3" font-family="Times,serif" font-size="14.00">Tuple</text>
</g>
<!-- ast.Assign object at 0x7727eb91c690&#45;&gt;ast.Tuple object at 0x7727eb91cd90 -->
<g id="edge55" class="edge">
<title>ast.Assign object at 0x7727eb91c690&#45;&gt;ast.Tuple object at 0x7727eb91cd90</title>
<path fill="none" stroke="black" d="M1351.35,-287.87C1377.47,-262.82 1426.21,-216.05 1456.06,-187.41"/>
<polygon fill="black" stroke="black" points="1458.79,-189.64 1463.58,-180.19 1453.95,-184.59 1458.79,-189.64"/>
</g>
<!-- ast.Tuple object at 0x7727eb91db50&#45;&gt;ast.Store object at 0x77290126ec50 -->
<g id="edge54" class="edge">
<title>ast.Tuple object at 0x7727eb91db50&#45;&gt;ast.Store object at 0x77290126ec50</title>
<path fill="none" stroke="black" d="M1349.93,-215.77C1365.84,-196.93 1385.38,-166.45 1369.5,-144 1341.73,-104.76 1312.06,-126.05 1267.5,-108 1267.4,-107.96 1267.3,-107.92 1267.2,-107.88"/>
<polygon fill="black" stroke="black" points="1268.43,-104.6 1257.86,-103.91 1265.69,-111.04 1268.43,-104.6"/>
</g>
<!-- ast.Name object at 0x7727eb91d5d0 -->
<g id="node40" class="node">
<title>ast.Name object at 0x7727eb91d5d0</title>
<path fill="#66cdaa" stroke="black" d="M1276.5,-180C1276.5,-180 1246.5,-180 1246.5,-180 1240.5,-180 1234.5,-174 1234.5,-168 1234.5,-168 1234.5,-156 1234.5,-156 1234.5,-150 1240.5,-144 1246.5,-144 1246.5,-144 1276.5,-144 1276.5,-144 1282.5,-144 1288.5,-150 1288.5,-156 1288.5,-156 1288.5,-168 1288.5,-168 1288.5,-174 1282.5,-180 1276.5,-180"/>
<text text-anchor="middle" x="1261.5" y="-158.3" font-family="Times,serif" font-size="14.00">Name</text>
</g>
<!-- ast.Tuple object at 0x7727eb91db50&#45;&gt;ast.Name object at 0x7727eb91d5d0 -->
<g id="edge50" class="edge">
<title>ast.Tuple object at 0x7727eb91db50&#45;&gt;ast.Name object at 0x7727eb91d5d0</title>
<path fill="none" stroke="black" d="M1315.7,-215.7C1306.9,-207.14 1296.12,-196.66 1286.5,-187.3"/>
<polygon fill="black" stroke="black" points="1288.7,-184.57 1279.09,-180.1 1283.82,-189.58 1288.7,-184.57"/>
</g>
<!-- ast.Name object at 0x7727eb91d7d0 -->
<g id="node41" class="node">
<title>ast.Name object at 0x7727eb91d7d0</title>
<path fill="#66cdaa" stroke="black" d="M1348.5,-180C1348.5,-180 1318.5,-180 1318.5,-180 1312.5,-180 1306.5,-174 1306.5,-168 1306.5,-168 1306.5,-156 1306.5,-156 1306.5,-150 1312.5,-144 1318.5,-144 1318.5,-144 1348.5,-144 1348.5,-144 1354.5,-144 1360.5,-150 1360.5,-156 1360.5,-156 1360.5,-168 1360.5,-168 1360.5,-174 1354.5,-180 1348.5,-180"/>
<text text-anchor="middle" x="1333.5" y="-158.3" font-family="Times,serif" font-size="14.00">Name</text>
</g>
<!-- ast.Tuple object at 0x7727eb91db50&#45;&gt;ast.Name object at 0x7727eb91d7d0 -->
<g id="edge52" class="edge">
<title>ast.Tuple object at 0x7727eb91db50&#45;&gt;ast.Name object at 0x7727eb91d7d0</title>
<path fill="none" stroke="black" d="M1333.5,-215.7C1333.5,-207.98 1333.5,-198.71 1333.5,-190.11"/>
<polygon fill="black" stroke="black" points="1337,-190.1 1333.5,-180.1 1330,-190.1 1337,-190.1"/>
</g>
<!-- ast.Name object at 0x7727eb91d5d0&#45;&gt;ast.Store object at 0x77290126ec50 -->
<g id="edge51" class="edge">
<title>ast.Name object at 0x7727eb91d5d0&#45;&gt;ast.Store object at 0x77290126ec50</title>
<path fill="none" stroke="black" d="M1253.84,-143.7C1250.31,-135.73 1246.04,-126.1 1242.13,-117.26"/>
<polygon fill="black" stroke="black" points="1245.32,-115.83 1238.07,-108.1 1238.92,-118.67 1245.32,-115.83"/>
</g>
<!-- ast.Name object at 0x7727eb91d7d0&#45;&gt;ast.Store object at 0x77290126ec50 -->
<g id="edge53" class="edge">
<title>ast.Name object at 0x7727eb91d7d0&#45;&gt;ast.Store object at 0x77290126ec50</title>
<path fill="none" stroke="black" d="M1308.3,-143.88C1295.09,-134.89 1278.71,-123.76 1264.39,-114.03"/>
<polygon fill="black" stroke="black" points="1266.03,-110.92 1255.79,-108.19 1262.1,-116.71 1266.03,-110.92"/>
</g>
<!-- ast.Tuple object at 0x7727eb91cd90&#45;&gt;ast.Load object at 0x77290126ebd0 -->
<g id="edge60" class="edge">
<title>ast.Tuple object at 0x7727eb91cd90&#45;&gt;ast.Load object at 0x77290126ebd0</title>
<path fill="none" stroke="black" d="M1454.23,-149.7C1432.51,-140.11 1401.83,-125.18 1377.5,-108 1358.5,-94.58 1360.12,-82.77 1339.5,-72 1267.99,-34.65 1172.36,-23.62 1120.59,-20.36"/>
<polygon fill="black" stroke="black" points="1120.71,-16.86 1110.53,-19.79 1120.32,-23.85 1120.71,-16.86"/>
</g>
<!-- ast.Name object at 0x7727eb91f190 -->
<g id="node43" class="node">
<title>ast.Name object at 0x7727eb91f190</title>
<path fill="#66cdaa" stroke="black" d="M1428.5,-108C1428.5,-108 1398.5,-108 1398.5,-108 1392.5,-108 1386.5,-102 1386.5,-96 1386.5,-96 1386.5,-84 1386.5,-84 1386.5,-78 1392.5,-72 1398.5,-72 1398.5,-72 1428.5,-72 1428.5,-72 1434.5,-72 1440.5,-78 1440.5,-84 1440.5,-84 1440.5,-96 1440.5,-96 1440.5,-102 1434.5,-108 1428.5,-108"/>
<text text-anchor="middle" x="1413.5" y="-86.3" font-family="Times,serif" font-size="14.00">Name</text>
</g>
<!-- ast.Tuple object at 0x7727eb91cd90&#45;&gt;ast.Name object at 0x7727eb91f190 -->
<g id="edge56" class="edge">
<title>ast.Tuple object at 0x7727eb91cd90&#45;&gt;ast.Name object at 0x7727eb91f190</title>
<path fill="none" stroke="black" d="M1464.69,-143.7C1456.37,-135.14 1446.19,-124.66 1437.11,-115.3"/>
<polygon fill="black" stroke="black" points="1439.59,-112.84 1430.12,-108.1 1434.57,-117.72 1439.59,-112.84"/>
</g>
<!-- ast.Name object at 0x7727eb91c510 -->
<g id="node44" class="node">
<title>ast.Name object at 0x7727eb91c510</title>
<path fill="#66cdaa" stroke="black" d="M1318.5,-108C1318.5,-108 1288.5,-108 1288.5,-108 1282.5,-108 1276.5,-102 1276.5,-96 1276.5,-96 1276.5,-84 1276.5,-84 1276.5,-78 1282.5,-72 1288.5,-72 1288.5,-72 1318.5,-72 1318.5,-72 1324.5,-72 1330.5,-78 1330.5,-84 1330.5,-84 1330.5,-96 1330.5,-96 1330.5,-102 1324.5,-108 1318.5,-108"/>
<text text-anchor="middle" x="1303.5" y="-86.3" font-family="Times,serif" font-size="14.00">Name</text>
</g>
<!-- ast.Tuple object at 0x7727eb91cd90&#45;&gt;ast.Name object at 0x7727eb91c510 -->
<g id="edge58" class="edge">
<title>ast.Tuple object at 0x7727eb91cd90&#45;&gt;ast.Name object at 0x7727eb91c510</title>
<path fill="none" stroke="black" d="M1454.21,-149.53C1449.64,-147.66 1444.94,-145.75 1440.5,-144 1398.11,-127.27 1386.89,-124.73 1344.5,-108 1343.11,-107.45 1341.7,-106.89 1340.27,-106.32"/>
<polygon fill="black" stroke="black" points="1341.38,-102.99 1330.79,-102.47 1338.74,-109.47 1341.38,-102.99"/>
</g>
<!-- ast.Name object at 0x7727eb91f190&#45;&gt;ast.Load object at 0x77290126ebd0 -->
<g id="edge57" class="edge">
<title>ast.Name object at 0x7727eb91f190&#45;&gt;ast.Load object at 0x77290126ebd0</title>
<path fill="none" stroke="black" d="M1386.44,-76.84C1381.85,-75.05 1377.08,-73.35 1372.5,-72 1284.03,-45.87 1176.33,-30.21 1120.72,-23.26"/>
<polygon fill="black" stroke="black" points="1120.99,-19.77 1110.64,-22.03 1120.14,-26.72 1120.99,-19.77"/>
</g>
<!-- ast.Name object at 0x7727eb91c510&#45;&gt;ast.Load object at 0x77290126ebd0 -->
<g id="edge59" class="edge">
<title>ast.Name object at 0x7727eb91c510&#45;&gt;ast.Load object at 0x77290126ebd0</title>
<path fill="none" stroke="black" d="M1276.21,-75.91C1272.97,-74.52 1269.68,-73.18 1266.5,-72 1216.91,-53.54 1157.85,-37.46 1120.51,-27.99"/>
<polygon fill="black" stroke="black" points="1121.13,-24.54 1110.58,-25.5 1119.42,-31.33 1121.13,-24.54"/>
</g>
<!-- ast.BoolOp object at 0x7727eb91f910 -->
<g id="node46" class="node">
<title>ast.BoolOp object at 0x7727eb91f910</title>
<path fill="#66cdaa" stroke="black" d="M881,-252C881,-252 846,-252 846,-252 840,-252 834,-246 834,-240 834,-240 834,-228 834,-228 834,-222 840,-216 846,-216 846,-216 881,-216 881,-216 887,-216 893,-222 893,-228 893,-228 893,-240 893,-240 893,-246 887,-252 881,-252"/>
<text text-anchor="middle" x="863.5" y="-230.3" font-family="Times,serif" font-size="14.00">BoolOp</text>
</g>
<!-- ast.If object at 0x7727eb91e310&#45;&gt;ast.BoolOp object at 0x7727eb91f910 -->
<g id="edge62" class="edge">
<title>ast.If object at 0x7727eb91e310&#45;&gt;ast.BoolOp object at 0x7727eb91f910</title>
<path fill="none" stroke="black" d="M1107.27,-297.97C1059.13,-285.53 958.81,-259.62 903.04,-245.21"/>
<polygon fill="black" stroke="black" points="903.72,-241.78 893.17,-242.66 901.97,-248.55 903.72,-241.78"/>
</g>
<!-- ast.Assign object at 0x7727eb91f8d0 -->
<g id="node54" class="node">
<title>ast.Assign object at 0x7727eb91f8d0</title>
<path fill="#66cdaa" stroke="black" d="M1149.5,-252C1149.5,-252 1119.5,-252 1119.5,-252 1113.5,-252 1107.5,-246 1107.5,-240 1107.5,-240 1107.5,-228 1107.5,-228 1107.5,-222 1113.5,-216 1119.5,-216 1119.5,-216 1149.5,-216 1149.5,-216 1155.5,-216 1161.5,-222 1161.5,-228 1161.5,-228 1161.5,-240 1161.5,-240 1161.5,-246 1155.5,-252 1149.5,-252"/>
<text text-anchor="middle" x="1134.5" y="-230.3" font-family="Times,serif" font-size="14.00">Assign</text>
</g>
<!-- ast.If object at 0x7727eb91e310&#45;&gt;ast.Assign object at 0x7727eb91f8d0 -->
<g id="edge76" class="edge">
<title>ast.If object at 0x7727eb91e310&#45;&gt;ast.Assign object at 0x7727eb91f8d0</title>
<path fill="none" stroke="black" d="M1134.5,-287.7C1134.5,-279.98 1134.5,-270.71 1134.5,-262.11"/>
<polygon fill="black" stroke="black" points="1138,-262.1 1134.5,-252.1 1131,-262.1 1138,-262.1"/>
</g>
<!-- ast.And object at 0x77290126ee90 -->
<g id="node47" class="node">
<title>ast.And object at 0x77290126ee90</title>
<path fill="#66cdaa" stroke="black" d="M878.5,-180C878.5,-180 848.5,-180 848.5,-180 842.5,-180 836.5,-174 836.5,-168 836.5,-168 836.5,-156 836.5,-156 836.5,-150 842.5,-144 848.5,-144 848.5,-144 878.5,-144 878.5,-144 884.5,-144 890.5,-150 890.5,-156 890.5,-156 890.5,-168 890.5,-168 890.5,-174 884.5,-180 878.5,-180"/>
<text text-anchor="middle" x="863.5" y="-158.3" font-family="Times,serif" font-size="14.00">And</text>
</g>
<!-- ast.BoolOp object at 0x7727eb91f910&#45;&gt;ast.And object at 0x77290126ee90 -->
<g id="edge63" class="edge">
<title>ast.BoolOp object at 0x7727eb91f910&#45;&gt;ast.And object at 0x77290126ee90</title>
<path fill="none" stroke="black" d="M863.5,-215.7C863.5,-207.98 863.5,-198.71 863.5,-190.11"/>
<polygon fill="black" stroke="black" points="867,-190.1 863.5,-180.1 860,-190.1 867,-190.1"/>
</g>
<!-- ast.Compare object at 0x7727eb91d310 -->
<g id="node48" class="node">
<title>ast.Compare object at 0x7727eb91d310</title>
<path fill="#66cdaa" stroke="black" d="M806,-180C806,-180 763,-180 763,-180 757,-180 751,-174 751,-168 751,-168 751,-156 751,-156 751,-150 757,-144 763,-144 763,-144 806,-144 806,-144 812,-144 818,-150 818,-156 818,-156 818,-168 818,-168 818,-174 812,-180 806,-180"/>
<text text-anchor="middle" x="784.5" y="-158.3" font-family="Times,serif" font-size="14.00">Compare</text>
</g>
<!-- ast.BoolOp object at 0x7727eb91f910&#45;&gt;ast.Compare object at 0x7727eb91d310 -->
<g id="edge64" class="edge">
<title>ast.BoolOp object at 0x7727eb91f910&#45;&gt;ast.Compare object at 0x7727eb91d310</title>
<path fill="none" stroke="black" d="M843.97,-215.7C834.12,-206.97 822.01,-196.24 811.3,-186.75"/>
<polygon fill="black" stroke="black" points="813.61,-184.12 803.8,-180.1 808.97,-189.36 813.61,-184.12"/>
</g>
<!-- ast.Compare object at 0x7727eb91c550 -->
<g id="node51" class="node">
<title>ast.Compare object at 0x7727eb91c550</title>
<path fill="#66cdaa" stroke="black" d="M636,-180C636,-180 593,-180 593,-180 587,-180 581,-174 581,-168 581,-168 581,-156 581,-156 581,-150 587,-144 593,-144 593,-144 636,-144 636,-144 642,-144 648,-150 648,-156 648,-156 648,-168 648,-168 648,-174 642,-180 636,-180"/>
<text text-anchor="middle" x="614.5" y="-158.3" font-family="Times,serif" font-size="14.00">Compare</text>
</g>
<!-- ast.BoolOp object at 0x7727eb91f910&#45;&gt;ast.Compare object at 0x7727eb91c550 -->
<g id="edge70" class="edge">
<title>ast.BoolOp object at 0x7727eb91f910&#45;&gt;ast.Compare object at 0x7727eb91c550</title>
<path fill="none" stroke="black" d="M833.83,-226.59C795.31,-218.01 725.91,-201.64 657.76,-179.87"/>
<polygon fill="black" stroke="black" points="658.75,-176.51 648.16,-176.77 656.59,-183.17 658.75,-176.51"/>
</g>
<!-- ast.Compare object at 0x7727eb91d310&#45;&gt;ast.Gt object at 0x77290126fdd0 -->
<g id="edge67" class="edge">
<title>ast.Compare object at 0x7727eb91d310&#45;&gt;ast.Gt object at 0x77290126fdd0</title>
<path fill="none" stroke="black" d="M818.22,-147.43C821.35,-146.24 824.48,-145.08 827.5,-144 873.94,-127.38 889.15,-127.17 938.81,-108.03"/>
<polygon fill="black" stroke="black" points="940.11,-111.28 948.14,-104.37 937.56,-104.76 940.11,-111.28"/>
</g>
<!-- ast.Name object at 0x7727eb91e150 -->
<g id="node49" class="node">
<title>ast.Name object at 0x7727eb91e150</title>
<path fill="#66cdaa" stroke="black" d="M1062.5,-108C1062.5,-108 1032.5,-108 1032.5,-108 1026.5,-108 1020.5,-102 1020.5,-96 1020.5,-96 1020.5,-84 1020.5,-84 1020.5,-78 1026.5,-72 1032.5,-72 1032.5,-72 1062.5,-72 1062.5,-72 1068.5,-72 1074.5,-78 1074.5,-84 1074.5,-84 1074.5,-96 1074.5,-96 1074.5,-102 1068.5,-108 1062.5,-108"/>
<text text-anchor="middle" x="1047.5" y="-86.3" font-family="Times,serif" font-size="14.00">Name</text>
</g>
<!-- ast.Compare object at 0x7727eb91d310&#45;&gt;ast.Name object at 0x7727eb91e150 -->
<g id="edge65" class="edge">
<title>ast.Compare object at 0x7727eb91d310&#45;&gt;ast.Name object at 0x7727eb91e150</title>
<path fill="none" stroke="black" d="M818.1,-147.04C821.25,-145.94 824.42,-144.9 827.5,-144 904.5,-121.45 930.41,-133.05 1010.73,-107.8"/>
<polygon fill="black" stroke="black" points="1011.83,-111.12 1020.27,-104.71 1009.68,-104.46 1011.83,-111.12"/>
</g>
<!-- ast.Name object at 0x7727eb91fe90 -->
<g id="node50" class="node">
<title>ast.Name object at 0x7727eb91fe90</title>
<path fill="#66cdaa" stroke="black" d="M1134.5,-108C1134.5,-108 1104.5,-108 1104.5,-108 1098.5,-108 1092.5,-102 1092.5,-96 1092.5,-96 1092.5,-84 1092.5,-84 1092.5,-78 1098.5,-72 1104.5,-72 1104.5,-72 1134.5,-72 1134.5,-72 1140.5,-72 1146.5,-78 1146.5,-84 1146.5,-84 1146.5,-96 1146.5,-96 1146.5,-102 1140.5,-108 1134.5,-108"/>
<text text-anchor="middle" x="1119.5" y="-86.3" font-family="Times,serif" font-size="14.00">Name</text>
</g>
<!-- ast.Compare object at 0x7727eb91d310&#45;&gt;ast.Name object at 0x7727eb91fe90 -->
<g id="edge68" class="edge">
<title>ast.Compare object at 0x7727eb91d310&#45;&gt;ast.Name object at 0x7727eb91fe90</title>
<path fill="none" stroke="black" d="M818.05,-146.87C821.21,-145.8 824.4,-144.82 827.5,-144 935.45,-115.5 971.38,-139.46 1082.42,-107.79"/>
<polygon fill="black" stroke="black" points="1083.71,-111.05 1092.32,-104.87 1081.74,-104.34 1083.71,-111.05"/>
</g>
<!-- ast.Name object at 0x7727eb91e150&#45;&gt;ast.Load object at 0x77290126ebd0 -->
<g id="edge66" class="edge">
<title>ast.Name object at 0x7727eb91e150&#45;&gt;ast.Load object at 0x77290126ebd0</title>
<path fill="none" stroke="black" d="M1056.4,-71.7C1060.5,-63.73 1065.45,-54.1 1069.99,-45.26"/>
<polygon fill="black" stroke="black" points="1073.24,-46.6 1074.7,-36.1 1067.02,-43.4 1073.24,-46.6"/>
</g>
<!-- ast.Name object at 0x7727eb91fe90&#45;&gt;ast.Load object at 0x77290126ebd0 -->
<g id="edge69" class="edge">
<title>ast.Name object at 0x7727eb91fe90&#45;&gt;ast.Load object at 0x77290126ebd0</title>
<path fill="none" stroke="black" d="M1110.6,-71.7C1106.5,-63.73 1101.55,-54.1 1097.01,-45.26"/>
<polygon fill="black" stroke="black" points="1099.98,-43.4 1092.3,-36.1 1093.76,-46.6 1099.98,-43.4"/>
</g>
<!-- ast.Compare object at 0x7727eb91c550&#45;&gt;ast.Lt object at 0x77290126fcd0 -->
<g id="edge73" class="edge">
<title>ast.Compare object at 0x7727eb91c550&#45;&gt;ast.Lt object at 0x77290126fcd0</title>
<path fill="none" stroke="black" d="M614.75,-143.7C614.86,-135.98 614.99,-126.71 615.11,-118.11"/>
<polygon fill="black" stroke="black" points="618.61,-118.15 615.26,-108.1 611.61,-118.05 618.61,-118.15"/>
</g>
<!-- ast.Name object at 0x7727eb91cc10 -->
<g id="node52" class="node">
<title>ast.Name object at 0x7727eb91cc10</title>
<path fill="#66cdaa" stroke="black" d="M702.5,-108C702.5,-108 672.5,-108 672.5,-108 666.5,-108 660.5,-102 660.5,-96 660.5,-96 660.5,-84 660.5,-84 660.5,-78 666.5,-72 672.5,-72 672.5,-72 702.5,-72 702.5,-72 708.5,-72 714.5,-78 714.5,-84 714.5,-84 714.5,-96 714.5,-96 714.5,-102 708.5,-108 702.5,-108"/>
<text text-anchor="middle" x="687.5" y="-86.3" font-family="Times,serif" font-size="14.00">Name</text>
</g>
<!-- ast.Compare object at 0x7727eb91c550&#45;&gt;ast.Name object at 0x7727eb91cc10 -->
<g id="edge71" class="edge">
<title>ast.Compare object at 0x7727eb91c550&#45;&gt;ast.Name object at 0x7727eb91cc10</title>
<path fill="none" stroke="black" d="M632.54,-143.7C641.56,-135.05 652.62,-124.45 662.44,-115.03"/>
<polygon fill="black" stroke="black" points="664.87,-117.55 669.66,-108.1 660.02,-112.5 664.87,-117.55"/>
</g>
<!-- ast.Name object at 0x7727eb91c910 -->
<g id="node53" class="node">
<title>ast.Name object at 0x7727eb91c910</title>
<path fill="#66cdaa" stroke="black" d="M774.5,-108C774.5,-108 744.5,-108 744.5,-108 738.5,-108 732.5,-102 732.5,-96 732.5,-96 732.5,-84 732.5,-84 732.5,-78 738.5,-72 744.5,-72 744.5,-72 774.5,-72 774.5,-72 780.5,-72 786.5,-78 786.5,-84 786.5,-84 786.5,-96 786.5,-96 786.5,-102 780.5,-108 774.5,-108"/>
<text text-anchor="middle" x="759.5" y="-86.3" font-family="Times,serif" font-size="14.00">Name</text>
</g>
<!-- ast.Compare object at 0x7727eb91c550&#45;&gt;ast.Name object at 0x7727eb91c910 -->
<g id="edge74" class="edge">
<title>ast.Compare object at 0x7727eb91c550&#45;&gt;ast.Name object at 0x7727eb91c910</title>
<path fill="none" stroke="black" d="M648.13,-144.76C670.63,-133.9 700.22,-119.62 723.25,-108.5"/>
<polygon fill="black" stroke="black" points="724.87,-111.6 732.35,-104.1 721.83,-105.3 724.87,-111.6"/>
</g>
<!-- ast.Name object at 0x7727eb91cc10&#45;&gt;ast.Load object at 0x77290126ebd0 -->
<g id="edge72" class="edge">
<title>ast.Name object at 0x7727eb91cc10&#45;&gt;ast.Load object at 0x77290126ebd0</title>
<path fill="none" stroke="black" d="M714.69,-75.15C717.62,-73.96 720.59,-72.88 723.5,-72 837.77,-37.44 979.51,-25.02 1045.89,-20.89"/>
<polygon fill="black" stroke="black" points="1046.49,-24.36 1056.26,-20.27 1046.07,-17.37 1046.49,-24.36"/>
</g>
<!-- ast.Name object at 0x7727eb91c910&#45;&gt;ast.Load object at 0x77290126ebd0 -->
<g id="edge75" class="edge">
<title>ast.Name object at 0x7727eb91c910&#45;&gt;ast.Load object at 0x77290126ebd0</title>
<path fill="none" stroke="black" d="M786.72,-75.25C789.64,-74.05 792.61,-72.93 795.5,-72 883.01,-43.81 990.61,-29 1046.24,-22.73"/>
<polygon fill="black" stroke="black" points="1046.77,-26.2 1056.33,-21.63 1046,-19.24 1046.77,-26.2"/>
</g>
<!-- ast.Name object at 0x7727eb91e450 -->
<g id="node55" class="node">
<title>ast.Name object at 0x7727eb91e450</title>
<path fill="#66cdaa" stroke="black" d="M1204.5,-180C1204.5,-180 1174.5,-180 1174.5,-180 1168.5,-180 1162.5,-174 1162.5,-168 1162.5,-168 1162.5,-156 1162.5,-156 1162.5,-150 1168.5,-144 1174.5,-144 1174.5,-144 1204.5,-144 1204.5,-144 1210.5,-144 1216.5,-150 1216.5,-156 1216.5,-156 1216.5,-168 1216.5,-168 1216.5,-174 1210.5,-180 1204.5,-180"/>
<text text-anchor="middle" x="1189.5" y="-158.3" font-family="Times,serif" font-size="14.00">Name</text>
</g>
<!-- ast.Assign object at 0x7727eb91f8d0&#45;&gt;ast.Name object at 0x7727eb91e450 -->
<g id="edge77" class="edge">
<title>ast.Assign object at 0x7727eb91f8d0&#45;&gt;ast.Name object at 0x7727eb91e450</title>
<path fill="none" stroke="black" d="M1148.1,-215.7C1154.62,-207.39 1162.57,-197.28 1169.75,-188.14"/>
<polygon fill="black" stroke="black" points="1172.63,-190.13 1176.06,-180.1 1167.13,-185.81 1172.63,-190.13"/>
</g>
<!-- ast.Name object at 0x7727eb91ee90 -->
<g id="node56" class="node">
<title>ast.Name object at 0x7727eb91ee90</title>
<path fill="#66cdaa" stroke="black" d="M1094.5,-180C1094.5,-180 1064.5,-180 1064.5,-180 1058.5,-180 1052.5,-174 1052.5,-168 1052.5,-168 1052.5,-156 1052.5,-156 1052.5,-150 1058.5,-144 1064.5,-144 1064.5,-144 1094.5,-144 1094.5,-144 1100.5,-144 1106.5,-150 1106.5,-156 1106.5,-156 1106.5,-168 1106.5,-168 1106.5,-174 1100.5,-180 1094.5,-180"/>
<text text-anchor="middle" x="1079.5" y="-158.3" font-family="Times,serif" font-size="14.00">Name</text>
</g>
<!-- ast.Assign object at 0x7727eb91f8d0&#45;&gt;ast.Name object at 0x7727eb91ee90 -->
<g id="edge79" class="edge">
<title>ast.Assign object at 0x7727eb91f8d0&#45;&gt;ast.Name object at 0x7727eb91ee90</title>
<path fill="none" stroke="black" d="M1120.9,-215.7C1114.38,-207.39 1106.43,-197.28 1099.25,-188.14"/>
<polygon fill="black" stroke="black" points="1101.87,-185.81 1092.94,-180.1 1096.37,-190.13 1101.87,-185.81"/>
</g>
<!-- ast.Name object at 0x7727eb91e450&#45;&gt;ast.Store object at 0x77290126ec50 -->
<g id="edge78" class="edge">
<title>ast.Name object at 0x7727eb91e450&#45;&gt;ast.Store object at 0x77290126ec50</title>
<path fill="none" stroke="black" d="M1199.63,-143.7C1204.35,-135.64 1210.06,-125.89 1215.28,-116.98"/>
<polygon fill="black" stroke="black" points="1218.45,-118.5 1220.48,-108.1 1212.41,-114.96 1218.45,-118.5"/>
</g>
<!-- ast.Name object at 0x7727eb91ee90&#45;&gt;ast.Load object at 0x77290126ebd0 -->
<g id="edge80" class="edge">
<title>ast.Name object at 0x7727eb91ee90&#45;&gt;ast.Load object at 0x77290126ebd0</title>
<path fill="none" stroke="black" d="M1106.51,-150.14C1123.95,-141.54 1145.23,-127.68 1155.5,-108 1162.9,-93.81 1162.72,-86.28 1155.5,-72 1147.8,-56.77 1133.44,-44.85 1119.56,-36.2"/>
<polygon fill="black" stroke="black" points="1120.98,-32.98 1110.58,-30.99 1117.47,-39.04 1120.98,-32.98"/>
</g>
<!-- ast.IfExp object at 0x7727eb91c9d0 -->
<g id="node58" class="node">
<title>ast.IfExp object at 0x7727eb91c9d0</title>
<path fill="#66cdaa" stroke="black" d="M1676.5,-324C1676.5,-324 1646.5,-324 1646.5,-324 1640.5,-324 1634.5,-318 1634.5,-312 1634.5,-312 1634.5,-300 1634.5,-300 1634.5,-294 1640.5,-288 1646.5,-288 1646.5,-288 1676.5,-288 1676.5,-288 1682.5,-288 1688.5,-294 1688.5,-300 1688.5,-300 1688.5,-312 1688.5,-312 1688.5,-318 1682.5,-324 1676.5,-324"/>
<text text-anchor="middle" x="1661.5" y="-302.3" font-family="Times,serif" font-size="14.00">IfExp</text>
</g>
<!-- ast.Return object at 0x7727eb91e710&#45;&gt;ast.IfExp object at 0x7727eb91c9d0 -->
<g id="edge82" class="edge">
<title>ast.Return object at 0x7727eb91e710&#45;&gt;ast.IfExp object at 0x7727eb91c9d0</title>
<path fill="none" stroke="black" d="M1554.22,-431.87C1575.56,-407.03 1615.24,-360.85 1639.9,-332.14"/>
<polygon fill="black" stroke="black" points="1642.87,-334.06 1646.73,-324.19 1637.56,-329.49 1642.87,-334.06"/>
</g>
<!-- ast.Compare object at 0x7727eb91c450 -->
<g id="node59" class="node">
<title>ast.Compare object at 0x7727eb91c450</title>
<path fill="#66cdaa" stroke="black" d="M1723,-252C1723,-252 1680,-252 1680,-252 1674,-252 1668,-246 1668,-240 1668,-240 1668,-228 1668,-228 1668,-222 1674,-216 1680,-216 1680,-216 1723,-216 1723,-216 1729,-216 1735,-222 1735,-228 1735,-228 1735,-240 1735,-240 1735,-246 1729,-252 1723,-252"/>
<text text-anchor="middle" x="1701.5" y="-230.3" font-family="Times,serif" font-size="14.00">Compare</text>
</g>
<!-- ast.IfExp object at 0x7727eb91c9d0&#45;&gt;ast.Compare object at 0x7727eb91c450 -->
<g id="edge83" class="edge">
<title>ast.IfExp object at 0x7727eb91c9d0&#45;&gt;ast.Compare object at 0x7727eb91c450</title>
<path fill="none" stroke="black" d="M1671.39,-287.7C1675.99,-279.64 1681.56,-269.89 1686.65,-260.98"/>
<polygon fill="black" stroke="black" points="1689.8,-262.52 1691.73,-252.1 1683.73,-259.05 1689.8,-262.52"/>
</g>
<!-- ast.Constant object at 0x7727eb91ef50 -->
<g id="node65" class="node">
<title>ast.Constant object at 0x7727eb91ef50</title>
<path fill="#66cdaa" stroke="black" d="M1806,-252C1806,-252 1765,-252 1765,-252 1759,-252 1753,-246 1753,-240 1753,-240 1753,-228 1753,-228 1753,-222 1759,-216 1765,-216 1765,-216 1806,-216 1806,-216 1812,-216 1818,-222 1818,-228 1818,-228 1818,-240 1818,-240 1818,-246 1812,-252 1806,-252"/>
<text text-anchor="middle" x="1785.5" y="-230.3" font-family="Times,serif" font-size="14.00">Constant</text>
</g>
<!-- ast.IfExp object at 0x7727eb91c9d0&#45;&gt;ast.Constant object at 0x7727eb91ef50 -->
<g id="edge91" class="edge">
<title>ast.IfExp object at 0x7727eb91c9d0&#45;&gt;ast.Constant object at 0x7727eb91ef50</title>
<path fill="none" stroke="black" d="M1688.71,-289.64C1705.62,-280.09 1727.64,-267.67 1746.4,-257.07"/>
<polygon fill="black" stroke="black" points="1748.32,-260.01 1755.31,-252.04 1744.88,-253.91 1748.32,-260.01"/>
</g>
<!-- ast.Name object at 0x7727eb91eb50 -->
<g id="node66" class="node">
<title>ast.Name object at 0x7727eb91eb50</title>
<path fill="#66cdaa" stroke="black" d="M1637.5,-252C1637.5,-252 1607.5,-252 1607.5,-252 1601.5,-252 1595.5,-246 1595.5,-240 1595.5,-240 1595.5,-228 1595.5,-228 1595.5,-222 1601.5,-216 1607.5,-216 1607.5,-216 1637.5,-216 1637.5,-216 1643.5,-216 1649.5,-222 1649.5,-228 1649.5,-228 1649.5,-240 1649.5,-240 1649.5,-246 1643.5,-252 1637.5,-252"/>
<text text-anchor="middle" x="1622.5" y="-230.3" font-family="Times,serif" font-size="14.00">Name</text>
</g>
<!-- ast.IfExp object at 0x7727eb91c9d0&#45;&gt;ast.Name object at 0x7727eb91eb50 -->
<g id="edge92" class="edge">
<title>ast.IfExp object at 0x7727eb91c9d0&#45;&gt;ast.Name object at 0x7727eb91eb50</title>
<path fill="none" stroke="black" d="M1651.86,-287.7C1647.37,-279.64 1641.94,-269.89 1636.98,-260.98"/>
<polygon fill="black" stroke="black" points="1639.95,-259.14 1632.03,-252.1 1633.84,-262.54 1639.95,-259.14"/>
</g>
<!-- ast.Name object at 0x7727eb91c990 -->
<g id="node60" class="node">
<title>ast.Name object at 0x7727eb91c990</title>
<path fill="#66cdaa" stroke="black" d="M1692.5,-180C1692.5,-180 1662.5,-180 1662.5,-180 1656.5,-180 1650.5,-174 1650.5,-168 1650.5,-168 1650.5,-156 1650.5,-156 1650.5,-150 1656.5,-144 1662.5,-144 1662.5,-144 1692.5,-144 1692.5,-144 1698.5,-144 1704.5,-150 1704.5,-156 1704.5,-156 1704.5,-168 1704.5,-168 1704.5,-174 1698.5,-180 1692.5,-180"/>
<text text-anchor="middle" x="1677.5" y="-158.3" font-family="Times,serif" font-size="14.00">Name</text>
</g>
<!-- ast.Compare object at 0x7727eb91c450&#45;&gt;ast.Name object at 0x7727eb91c990 -->
<g id="edge84" class="edge">
<title>ast.Compare object at 0x7727eb91c450&#45;&gt;ast.Name object at 0x7727eb91c990</title>
<path fill="none" stroke="black" d="M1695.57,-215.7C1692.89,-207.9 1689.67,-198.51 1686.7,-189.83"/>
<polygon fill="black" stroke="black" points="1689.92,-188.43 1683.36,-180.1 1683.3,-190.7 1689.92,-188.43"/>
</g>
<!-- ast.Eq object at 0x77290126fbd0 -->
<g id="node61" class="node">
<title>ast.Eq object at 0x77290126fbd0</title>
<path fill="#66cdaa" stroke="black" d="M1764.5,-180C1764.5,-180 1734.5,-180 1734.5,-180 1728.5,-180 1722.5,-174 1722.5,-168 1722.5,-168 1722.5,-156 1722.5,-156 1722.5,-150 1728.5,-144 1734.5,-144 1734.5,-144 1764.5,-144 1764.5,-144 1770.5,-144 1776.5,-150 1776.5,-156 1776.5,-156 1776.5,-168 1776.5,-168 1776.5,-174 1770.5,-180 1764.5,-180"/>
<text text-anchor="middle" x="1749.5" y="-158.3" font-family="Times,serif" font-size="14.00">Eq</text>
</g>
<!-- ast.Compare object at 0x7727eb91c450&#45;&gt;ast.Eq object at 0x77290126fbd0 -->
<g id="edge86" class="edge">
<title>ast.Compare object at 0x7727eb91c450&#45;&gt;ast.Eq object at 0x77290126fbd0</title>
<path fill="none" stroke="black" d="M1713.37,-215.7C1719,-207.47 1725.85,-197.48 1732.07,-188.42"/>
<polygon fill="black" stroke="black" points="1735,-190.33 1737.77,-180.1 1729.23,-186.37 1735,-190.33"/>
</g>
<!-- ast.Call object at 0x7727eb91f2d0 -->
<g id="node62" class="node">
<title>ast.Call object at 0x7727eb91f2d0</title>
<path fill="#66cdaa" stroke="black" d="M1836.5,-180C1836.5,-180 1806.5,-180 1806.5,-180 1800.5,-180 1794.5,-174 1794.5,-168 1794.5,-168 1794.5,-156 1794.5,-156 1794.5,-150 1800.5,-144 1806.5,-144 1806.5,-144 1836.5,-144 1836.5,-144 1842.5,-144 1848.5,-150 1848.5,-156 1848.5,-156 1848.5,-168 1848.5,-168 1848.5,-174 1842.5,-180 1836.5,-180"/>
<text text-anchor="middle" x="1821.5" y="-158.3" font-family="Times,serif" font-size="14.00">Call</text>
</g>
<!-- ast.Compare object at 0x7727eb91c450&#45;&gt;ast.Call object at 0x7727eb91f2d0 -->
<g id="edge87" class="edge">
<title>ast.Compare object at 0x7727eb91c450&#45;&gt;ast.Call object at 0x7727eb91f2d0</title>
<path fill="none" stroke="black" d="M1730.86,-215.88C1747.4,-206.23 1768.19,-194.1 1785.69,-183.89"/>
<polygon fill="black" stroke="black" points="1787.63,-186.81 1794.5,-178.75 1784.1,-180.77 1787.63,-186.81"/>
</g>
<!-- ast.Name object at 0x7727eb91c990&#45;&gt;ast.Load object at 0x77290126ebd0 -->
<g id="edge85" class="edge">
<title>ast.Name object at 0x7727eb91c990&#45;&gt;ast.Load object at 0x77290126ebd0</title>
<path fill="none" stroke="black" d="M1681.71,-143.93C1685.55,-123.78 1688.14,-90.65 1669.5,-72 1630.69,-33.17 1243.8,-22.18 1120.82,-19.66"/>
<polygon fill="black" stroke="black" points="1120.82,-16.15 1110.75,-19.46 1120.68,-23.15 1120.82,-16.15"/>
</g>
<!-- ast.Name object at 0x7727eb91f7d0 -->
<g id="node63" class="node">
<title>ast.Name object at 0x7727eb91f7d0</title>
<path fill="#66cdaa" stroke="black" d="M1758.5,-108C1758.5,-108 1728.5,-108 1728.5,-108 1722.5,-108 1716.5,-102 1716.5,-96 1716.5,-96 1716.5,-84 1716.5,-84 1716.5,-78 1722.5,-72 1728.5,-72 1728.5,-72 1758.5,-72 1758.5,-72 1764.5,-72 1770.5,-78 1770.5,-84 1770.5,-84 1770.5,-96 1770.5,-96 1770.5,-102 1764.5,-108 1758.5,-108"/>
<text text-anchor="middle" x="1743.5" y="-86.3" font-family="Times,serif" font-size="14.00">Name</text>
</g>
<!-- ast.Call object at 0x7727eb91f2d0&#45;&gt;ast.Name object at 0x7727eb91f7d0 -->
<g id="edge88" class="edge">
<title>ast.Call object at 0x7727eb91f2d0&#45;&gt;ast.Name object at 0x7727eb91f7d0</title>
<path fill="none" stroke="black" d="M1802.22,-143.7C1792.58,-135.05 1780.77,-124.45 1770.27,-115.03"/>
<polygon fill="black" stroke="black" points="1772.34,-112.18 1762.56,-108.1 1767.66,-117.39 1772.34,-112.18"/>
</g>
<!-- ast.Constant object at 0x7727eb91ca90 -->
<g id="node64" class="node">
<title>ast.Constant object at 0x7727eb91ca90</title>
<path fill="#66cdaa" stroke="black" d="M1842,-108C1842,-108 1801,-108 1801,-108 1795,-108 1789,-102 1789,-96 1789,-96 1789,-84 1789,-84 1789,-78 1795,-72 1801,-72 1801,-72 1842,-72 1842,-72 1848,-72 1854,-78 1854,-84 1854,-84 1854,-96 1854,-96 1854,-102 1848,-108 1842,-108"/>
<text text-anchor="middle" x="1821.5" y="-86.3" font-family="Times,serif" font-size="14.00">Constant</text>
</g>
<!-- ast.Call object at 0x7727eb91f2d0&#45;&gt;ast.Constant object at 0x7727eb91ca90 -->
<g id="edge90" class="edge">
<title>ast.Call object at 0x7727eb91f2d0&#45;&gt;ast.Constant object at 0x7727eb91ca90</title>
<path fill="none" stroke="black" d="M1821.5,-143.7C1821.5,-135.98 1821.5,-126.71 1821.5,-118.11"/>
<polygon fill="black" stroke="black" points="1825,-118.1 1821.5,-108.1 1818,-118.1 1825,-118.1"/>
</g>
<!-- ast.Name object at 0x7727eb91f7d0&#45;&gt;ast.Load object at 0x77290126ebd0 -->
<g id="edge89" class="edge">
<title>ast.Name object at 0x7727eb91f7d0&#45;&gt;ast.Load object at 0x77290126ebd0</title>
<path fill="none" stroke="black" d="M1716.1,-76.29C1711.63,-74.61 1706.99,-73.1 1702.5,-72 1486.86,-19.4 1217.92,-17.12 1120.72,-18.25"/>
<polygon fill="black" stroke="black" points="1120.47,-14.75 1110.52,-18.39 1120.57,-21.75 1120.47,-14.75"/>
</g>
<!-- ast.Name object at 0x7727eb91eb50&#45;&gt;ast.Load object at 0x77290126ebd0 -->
<g id="edge93" class="edge">
<title>ast.Name object at 0x7727eb91eb50&#45;&gt;ast.Load object at 0x77290126ebd0</title>
<path fill="none" stroke="black" d="M1621.14,-215.88C1619.16,-197.41 1614.44,-167.49 1603.5,-144 1586.39,-107.25 1582.85,-91.85 1547.5,-72 1474.59,-31.05 1217.94,-21.68 1120.98,-19.59"/>
<polygon fill="black" stroke="black" points="1120.83,-16.08 1110.76,-19.38 1120.69,-23.08 1120.83,-16.08"/>
</g>
</g>
</svg>
