<?xml version="1.0" encoding="UTF-8" standalone="no"?>
<!DOCTYPE svg PUBLIC "-//W3C//DTD SVG 1.1//EN"
 "http://www.w3.org/Graphics/SVG/1.1/DTD/svg11.dtd">
<!-- Generated by graphviz version 2.50.0 (0)
 -->
<!-- Pages: 1 -->
<svg width="1341pt" height="836pt"
 viewBox="0.00 0.00 1340.50 836.00" xmlns="http://www.w3.org/2000/svg" xmlns:xlink="http://www.w3.org/1999/xlink">
<g id="graph0" class="graph" transform="scale(1 1) rotate(0) translate(4 832)">
<polygon fill="white" stroke="transparent" points="-4,4 -4,-832 1336.5,-832 1336.5,4 -4,4"/>
<!-- ast.Module object at 0x766fc9023a10 -->
<g id="node1" class="node">
<title>ast.Module object at 0x766fc9023a10</title>
<path fill="#66cdaa" stroke="black" d="M511,-828C511,-828 476,-828 476,-828 470,-828 464,-822 464,-816 464,-816 464,-804 464,-804 464,-798 470,-792 476,-792 476,-792 511,-792 511,-792 517,-792 523,-798 523,-804 523,-804 523,-816 523,-816 523,-822 517,-828 511,-828"/>
<text text-anchor="middle" x="493.5" y="-806.3" font-family="Times,serif" font-size="14.00">Module</text>
</g>
<!-- ast.FunctionDef object at 0x766fc9021850 -->
<g id="node2" class="node">
<title>ast.FunctionDef object at 0x766fc9021850</title>
<path fill="#66cdaa" stroke="black" d="M524,-756C524,-756 463,-756 463,-756 457,-756 451,-750 451,-744 451,-744 451,-732 451,-732 451,-726 457,-720 463,-720 463,-720 524,-720 524,-720 530,-720 536,-726 536,-732 536,-732 536,-744 536,-744 536,-750 530,-756 524,-756"/>
<text text-anchor="middle" x="493.5" y="-734.3" font-family="Times,serif" font-size="14.00">FunctionDef</text>
</g>
<!-- ast.Module object at 0x766fc9023a10&#45;&gt;ast.FunctionDef object at 0x766fc9021850 -->
<g id="edge1" class="edge">
<title>ast.Module object at 0x766fc9023a10&#45;&gt;ast.FunctionDef object at 0x766fc9021850</title>
<path fill="none" stroke="black" d="M493.5,-791.7C493.5,-783.98 493.5,-774.71 493.5,-766.11"/>
<polygon fill="black" stroke="black" points="497,-766.1 493.5,-756.1 490,-766.1 497,-766.1"/>
</g>
<!-- ast.arguments object at 0x766fc9021a90 -->
<g id="node3" class="node">
<title>ast.arguments object at 0x766fc9021a90</title>
<path fill="#66cdaa" stroke="black" d="M453.5,-684C453.5,-684 403.5,-684 403.5,-684 397.5,-684 391.5,-678 391.5,-672 391.5,-672 391.5,-660 391.5,-660 391.5,-654 397.5,-648 403.5,-648 403.5,-648 453.5,-648 453.5,-648 459.5,-648 465.5,-654 465.5,-660 465.5,-660 465.5,-672 465.5,-672 465.5,-678 459.5,-684 453.5,-684"/>
<text text-anchor="middle" x="428.5" y="-662.3" font-family="Times,serif" font-size="14.00">arguments</text>
</g>
<!-- ast.FunctionDef object at 0x766fc9021850&#45;&gt;ast.arguments object at 0x766fc9021a90 -->
<g id="edge2" class="edge">
<title>ast.FunctionDef object at 0x766fc9021850&#45;&gt;ast.arguments object at 0x766fc9021a90</title>
<path fill="none" stroke="black" d="M477.43,-719.7C469.56,-711.22 459.94,-700.86 451.33,-691.58"/>
<polygon fill="black" stroke="black" points="453.75,-689.05 444.38,-684.1 448.62,-693.81 453.75,-689.05"/>
</g>
<!-- ast.Assign object at 0x766fc9023910 -->
<g id="node5" class="node">
<title>ast.Assign object at 0x766fc9023910</title>
<path fill="#66cdaa" stroke="black" d="M493.5,-468C493.5,-468 463.5,-468 463.5,-468 457.5,-468 451.5,-462 451.5,-456 451.5,-456 451.5,-444 451.5,-444 451.5,-438 457.5,-432 463.5,-432 463.5,-432 493.5,-432 493.5,-432 499.5,-432 505.5,-438 505.5,-444 505.5,-444 505.5,-456 505.5,-456 505.5,-462 499.5,-468 493.5,-468"/>
<text text-anchor="middle" x="478.5" y="-446.3" font-family="Times,serif" font-size="14.00">Assign</text>
</g>
<!-- ast.FunctionDef object at 0x766fc9021850&#45;&gt;ast.Assign object at 0x766fc9023910 -->
<g id="edge4" class="edge">
<title>ast.FunctionDef object at 0x766fc9021850&#45;&gt;ast.Assign object at 0x766fc9023910</title>
<path fill="none" stroke="black" d="M492.61,-719.97C490.11,-672.29 483.02,-537.18 479.95,-478.63"/>
<polygon fill="black" stroke="black" points="483.43,-478.11 479.41,-468.31 476.44,-478.48 483.43,-478.11"/>
</g>
<!-- ast.Return object at 0x766fc9020090 -->
<g id="node15" class="node">
<title>ast.Return object at 0x766fc9020090</title>
<path fill="#66cdaa" stroke="black" d="M584.5,-684C584.5,-684 554.5,-684 554.5,-684 548.5,-684 542.5,-678 542.5,-672 542.5,-672 542.5,-660 542.5,-660 542.5,-654 548.5,-648 554.5,-648 554.5,-648 584.5,-648 584.5,-648 590.5,-648 596.5,-654 596.5,-660 596.5,-660 596.5,-672 596.5,-672 596.5,-678 590.5,-684 584.5,-684"/>
<text text-anchor="middle" x="569.5" y="-662.3" font-family="Times,serif" font-size="14.00">Return</text>
</g>
<!-- ast.FunctionDef object at 0x766fc9021850&#45;&gt;ast.Return object at 0x766fc9020090 -->
<g id="edge14" class="edge">
<title>ast.FunctionDef object at 0x766fc9021850&#45;&gt;ast.Return object at 0x766fc9020090</title>
<path fill="none" stroke="black" d="M512.29,-719.7C521.67,-711.05 533.18,-700.45 543.41,-691.03"/>
<polygon fill="black" stroke="black" points="545.95,-693.45 550.93,-684.1 541.2,-688.3 545.95,-693.45"/>
</g>
<!-- ast.arg object at 0x766fc9022f90 -->
<g id="node4" class="node">
<title>ast.arg object at 0x766fc9022f90</title>
<path fill="#66cdaa" stroke="black" d="M443.5,-612C443.5,-612 413.5,-612 413.5,-612 407.5,-612 401.5,-606 401.5,-600 401.5,-600 401.5,-588 401.5,-588 401.5,-582 407.5,-576 413.5,-576 413.5,-576 443.5,-576 443.5,-576 449.5,-576 455.5,-582 455.5,-588 455.5,-588 455.5,-600 455.5,-600 455.5,-606 449.5,-612 443.5,-612"/>
<text text-anchor="middle" x="428.5" y="-590.3" font-family="Times,serif" font-size="14.00">arg</text>
</g>
<!-- ast.arguments object at 0x766fc9021a90&#45;&gt;ast.arg object at 0x766fc9022f90 -->
<g id="edge3" class="edge">
<title>ast.arguments object at 0x766fc9021a90&#45;&gt;ast.arg object at 0x766fc9022f90</title>
<path fill="none" stroke="black" d="M428.5,-647.7C428.5,-639.98 428.5,-630.71 428.5,-622.11"/>
<polygon fill="black" stroke="black" points="432,-622.1 428.5,-612.1 425,-622.1 432,-622.1"/>
</g>
<!-- ast.Name object at 0x766fc9021dd0 -->
<g id="node6" class="node">
<title>ast.Name object at 0x766fc9021dd0</title>
<path fill="#66cdaa" stroke="black" d="M533.5,-396C533.5,-396 503.5,-396 503.5,-396 497.5,-396 491.5,-390 491.5,-384 491.5,-384 491.5,-372 491.5,-372 491.5,-366 497.5,-360 503.5,-360 503.5,-360 533.5,-360 533.5,-360 539.5,-360 545.5,-366 545.5,-372 545.5,-372 545.5,-384 545.5,-384 545.5,-390 539.5,-396 533.5,-396"/>
<text text-anchor="middle" x="518.5" y="-374.3" font-family="Times,serif" font-size="14.00">Name</text>
</g>
<!-- ast.Assign object at 0x766fc9023910&#45;&gt;ast.Name object at 0x766fc9021dd0 -->
<g id="edge5" class="edge">
<title>ast.Assign object at 0x766fc9023910&#45;&gt;ast.Name object at 0x766fc9021dd0</title>
<path fill="none" stroke="black" d="M488.39,-431.7C492.99,-423.64 498.56,-413.89 503.65,-404.98"/>
<polygon fill="black" stroke="black" points="506.8,-406.52 508.73,-396.1 500.73,-403.05 506.8,-406.52"/>
</g>
<!-- ast.List object at 0x766fc9022210 -->
<g id="node8" class="node">
<title>ast.List object at 0x766fc9022210</title>
<path fill="#66cdaa" stroke="black" d="M296.5,-396C296.5,-396 266.5,-396 266.5,-396 260.5,-396 254.5,-390 254.5,-384 254.5,-384 254.5,-372 254.5,-372 254.5,-366 260.5,-360 266.5,-360 266.5,-360 296.5,-360 296.5,-360 302.5,-360 308.5,-366 308.5,-372 308.5,-372 308.5,-384 308.5,-384 308.5,-390 302.5,-396 296.5,-396"/>
<text text-anchor="middle" x="281.5" y="-374.3" font-family="Times,serif" font-size="14.00">List</text>
</g>
<!-- ast.Assign object at 0x766fc9023910&#45;&gt;ast.List object at 0x766fc9022210 -->
<g id="edge7" class="edge">
<title>ast.Assign object at 0x766fc9023910&#45;&gt;ast.List object at 0x766fc9022210</title>
<path fill="none" stroke="black" d="M451.11,-439.27C416.56,-426.99 357.02,-405.83 318.46,-392.13"/>
<polygon fill="black" stroke="black" points="319.25,-388.7 308.66,-388.65 316.91,-395.3 319.25,-388.7"/>
</g>
<!-- ast.Store object at 0x7670a7337c90 -->
<g id="node7" class="node">
<title>ast.Store object at 0x7670a7337c90</title>
<path fill="#66cdaa" stroke="black" d="M561.5,-324C561.5,-324 531.5,-324 531.5,-324 525.5,-324 519.5,-318 519.5,-312 519.5,-312 519.5,-300 519.5,-300 519.5,-294 525.5,-288 531.5,-288 531.5,-288 561.5,-288 561.5,-288 567.5,-288 573.5,-294 573.5,-300 573.5,-300 573.5,-312 573.5,-312 573.5,-318 567.5,-324 561.5,-324"/>
<text text-anchor="middle" x="546.5" y="-302.3" font-family="Times,serif" font-size="14.00">Store</text>
</g>
<!-- ast.Name object at 0x766fc9021dd0&#45;&gt;ast.Store object at 0x7670a7337c90 -->
<g id="edge6" class="edge">
<title>ast.Name object at 0x766fc9021dd0&#45;&gt;ast.Store object at 0x7670a7337c90</title>
<path fill="none" stroke="black" d="M525.42,-359.7C528.57,-351.81 532.38,-342.3 535.88,-333.55"/>
<polygon fill="black" stroke="black" points="539.19,-334.69 539.66,-324.1 532.69,-332.09 539.19,-334.69"/>
</g>
<!-- ast.Constant object at 0x766fc9023390 -->
<g id="node9" class="node">
<title>ast.Constant object at 0x766fc9023390</title>
<path fill="#66cdaa" stroke="black" d="M302,-324C302,-324 261,-324 261,-324 255,-324 249,-318 249,-312 249,-312 249,-300 249,-300 249,-294 255,-288 261,-288 261,-288 302,-288 302,-288 308,-288 314,-294 314,-300 314,-300 314,-312 314,-312 314,-318 308,-324 302,-324"/>
<text text-anchor="middle" x="281.5" y="-302.3" font-family="Times,serif" font-size="14.00">Constant</text>
</g>
<!-- ast.List object at 0x766fc9022210&#45;&gt;ast.Constant object at 0x766fc9023390 -->
<g id="edge8" class="edge">
<title>ast.List object at 0x766fc9022210&#45;&gt;ast.Constant object at 0x766fc9023390</title>
<path fill="none" stroke="black" d="M281.5,-359.7C281.5,-351.98 281.5,-342.71 281.5,-334.11"/>
<polygon fill="black" stroke="black" points="285,-334.1 281.5,-324.1 278,-334.1 285,-334.1"/>
</g>
<!-- ast.Constant object at 0x766fc9021190 -->
<g id="node10" class="node">
<title>ast.Constant object at 0x766fc9021190</title>
<path fill="#66cdaa" stroke="black" d="M385,-324C385,-324 344,-324 344,-324 338,-324 332,-318 332,-312 332,-312 332,-300 332,-300 332,-294 338,-288 344,-288 344,-288 385,-288 385,-288 391,-288 397,-294 397,-300 397,-300 397,-312 397,-312 397,-318 391,-324 385,-324"/>
<text text-anchor="middle" x="364.5" y="-302.3" font-family="Times,serif" font-size="14.00">Constant</text>
</g>
<!-- ast.List object at 0x766fc9022210&#45;&gt;ast.Constant object at 0x766fc9021190 -->
<g id="edge9" class="edge">
<title>ast.List object at 0x766fc9022210&#45;&gt;ast.Constant object at 0x766fc9021190</title>
<path fill="none" stroke="black" d="M302.02,-359.7C312.37,-350.97 325.09,-340.24 336.34,-330.75"/>
<polygon fill="black" stroke="black" points="338.83,-333.23 344.22,-324.1 334.32,-327.88 338.83,-333.23"/>
</g>
<!-- ast.Constant object at 0x766fc9022290 -->
<g id="node11" class="node">
<title>ast.Constant object at 0x766fc9022290</title>
<path fill="#66cdaa" stroke="black" d="M53,-324C53,-324 12,-324 12,-324 6,-324 0,-318 0,-312 0,-312 0,-300 0,-300 0,-294 6,-288 12,-288 12,-288 53,-288 53,-288 59,-288 65,-294 65,-300 65,-300 65,-312 65,-312 65,-318 59,-324 53,-324"/>
<text text-anchor="middle" x="32.5" y="-302.3" font-family="Times,serif" font-size="14.00">Constant</text>
</g>
<!-- ast.List object at 0x766fc9022210&#45;&gt;ast.Constant object at 0x766fc9022290 -->
<g id="edge10" class="edge">
<title>ast.List object at 0x766fc9022210&#45;&gt;ast.Constant object at 0x766fc9022290</title>
<path fill="none" stroke="black" d="M254.22,-371.36C215.92,-363.16 143.99,-346.74 74.76,-324.2"/>
<polygon fill="black" stroke="black" points="75.61,-320.79 65.01,-320.98 73.41,-327.44 75.61,-320.79"/>
</g>
<!-- ast.Constant object at 0x766fc9021a50 -->
<g id="node12" class="node">
<title>ast.Constant object at 0x766fc9021a50</title>
<path fill="#66cdaa" stroke="black" d="M136,-324C136,-324 95,-324 95,-324 89,-324 83,-318 83,-312 83,-312 83,-300 83,-300 83,-294 89,-288 95,-288 95,-288 136,-288 136,-288 142,-288 148,-294 148,-300 148,-300 148,-312 148,-312 148,-318 142,-324 136,-324"/>
<text text-anchor="middle" x="115.5" y="-302.3" font-family="Times,serif" font-size="14.00">Constant</text>
</g>
<!-- ast.List object at 0x766fc9022210&#45;&gt;ast.Constant object at 0x766fc9021a50 -->
<g id="edge11" class="edge">
<title>ast.List object at 0x766fc9022210&#45;&gt;ast.Constant object at 0x766fc9021a50</title>
<path fill="none" stroke="black" d="M254.46,-365.6C228.26,-354.55 188.15,-337.63 157.74,-324.81"/>
<polygon fill="black" stroke="black" points="158.81,-321.47 148.24,-320.8 156.09,-327.92 158.81,-321.47"/>
</g>
<!-- ast.Constant object at 0x766fc9022690 -->
<g id="node13" class="node">
<title>ast.Constant object at 0x766fc9022690</title>
<path fill="#66cdaa" stroke="black" d="M219,-324C219,-324 178,-324 178,-324 172,-324 166,-318 166,-312 166,-312 166,-300 166,-300 166,-294 172,-288 178,-288 178,-288 219,-288 219,-288 225,-288 231,-294 231,-300 231,-300 231,-312 231,-312 231,-318 225,-324 219,-324"/>
<text text-anchor="middle" x="198.5" y="-302.3" font-family="Times,serif" font-size="14.00">Constant</text>
</g>
<!-- ast.List object at 0x766fc9022210&#45;&gt;ast.Constant object at 0x766fc9022690 -->
<g id="edge12" class="edge">
<title>ast.List object at 0x766fc9022210&#45;&gt;ast.Constant object at 0x766fc9022690</title>
<path fill="none" stroke="black" d="M260.98,-359.7C250.63,-350.97 237.91,-340.24 226.66,-330.75"/>
<polygon fill="black" stroke="black" points="228.68,-327.88 218.78,-324.1 224.17,-333.23 228.68,-327.88"/>
</g>
<!-- ast.Load object at 0x7670a7337c10 -->
<g id="node14" class="node">
<title>ast.Load object at 0x7670a7337c10</title>
<path fill="#66cdaa" stroke="black" d="M802.5,-36C802.5,-36 772.5,-36 772.5,-36 766.5,-36 760.5,-30 760.5,-24 760.5,-24 760.5,-12 760.5,-12 760.5,-6 766.5,0 772.5,0 772.5,0 802.5,0 802.5,0 808.5,0 814.5,-6 814.5,-12 814.5,-12 814.5,-24 814.5,-24 814.5,-30 808.5,-36 802.5,-36"/>
<text text-anchor="middle" x="787.5" y="-14.3" font-family="Times,serif" font-size="14.00">Load</text>
</g>
<!-- ast.List object at 0x766fc9022210&#45;&gt;ast.Load object at 0x7670a7337c10 -->
<g id="edge13" class="edge">
<title>ast.List object at 0x766fc9022210&#45;&gt;ast.Load object at 0x7670a7337c10</title>
<path fill="none" stroke="black" d="M308.52,-372.82C336.96,-366.97 380.94,-353.52 405.5,-324 431.43,-292.83 425.5,-275.54 425.5,-235 425.5,-235 425.5,-235 425.5,-161 425.5,-120.03 419.01,-99.37 449.5,-72 493.25,-32.73 671.41,-22.5 749.98,-19.88"/>
<polygon fill="black" stroke="black" points="750.49,-23.37 760.38,-19.56 750.28,-16.37 750.49,-23.37"/>
</g>
<!-- ast.BoolOp object at 0x766fc9023310 -->
<g id="node16" class="node">
<title>ast.BoolOp object at 0x766fc9023310</title>
<path fill="#66cdaa" stroke="black" d="M608,-612C608,-612 573,-612 573,-612 567,-612 561,-606 561,-600 561,-600 561,-588 561,-588 561,-582 567,-576 573,-576 573,-576 608,-576 608,-576 614,-576 620,-582 620,-588 620,-588 620,-600 620,-600 620,-606 614,-612 608,-612"/>
<text text-anchor="middle" x="590.5" y="-590.3" font-family="Times,serif" font-size="14.00">BoolOp</text>
</g>
<!-- ast.Return object at 0x766fc9020090&#45;&gt;ast.BoolOp object at 0x766fc9023310 -->
<g id="edge15" class="edge">
<title>ast.Return object at 0x766fc9020090&#45;&gt;ast.BoolOp object at 0x766fc9023310</title>
<path fill="none" stroke="black" d="M574.69,-647.7C577.03,-639.9 579.85,-630.51 582.45,-621.83"/>
<polygon fill="black" stroke="black" points="585.85,-622.69 585.37,-612.1 579.14,-620.68 585.85,-622.69"/>
</g>
<!-- ast.Or object at 0x7670a7337f50 -->
<g id="node17" class="node">
<title>ast.Or object at 0x7670a7337f50</title>
<path fill="#66cdaa" stroke="black" d="M564.5,-540C564.5,-540 534.5,-540 534.5,-540 528.5,-540 522.5,-534 522.5,-528 522.5,-528 522.5,-516 522.5,-516 522.5,-510 528.5,-504 534.5,-504 534.5,-504 564.5,-504 564.5,-504 570.5,-504 576.5,-510 576.5,-516 576.5,-516 576.5,-528 576.5,-528 576.5,-534 570.5,-540 564.5,-540"/>
<text text-anchor="middle" x="549.5" y="-518.3" font-family="Times,serif" font-size="14.00">Or</text>
</g>
<!-- ast.BoolOp object at 0x766fc9023310&#45;&gt;ast.Or object at 0x7670a7337f50 -->
<g id="edge16" class="edge">
<title>ast.BoolOp object at 0x766fc9023310&#45;&gt;ast.Or object at 0x7670a7337f50</title>
<path fill="none" stroke="black" d="M580.37,-575.7C575.65,-567.64 569.94,-557.89 564.72,-548.98"/>
<polygon fill="black" stroke="black" points="567.59,-546.96 559.52,-540.1 561.55,-550.5 567.59,-546.96"/>
</g>
<!-- ast.ListComp object at 0x766fc9022410 -->
<g id="node18" class="node">
<title>ast.ListComp object at 0x766fc9022410</title>
<path fill="#66cdaa" stroke="black" d="M654,-540C654,-540 607,-540 607,-540 601,-540 595,-534 595,-528 595,-528 595,-516 595,-516 595,-510 601,-504 607,-504 607,-504 654,-504 654,-504 660,-504 666,-510 666,-516 666,-516 666,-528 666,-528 666,-534 660,-540 654,-540"/>
<text text-anchor="middle" x="630.5" y="-518.3" font-family="Times,serif" font-size="14.00">ListComp</text>
</g>
<!-- ast.BoolOp object at 0x766fc9023310&#45;&gt;ast.ListComp object at 0x766fc9022410 -->
<g id="edge17" class="edge">
<title>ast.BoolOp object at 0x766fc9023310&#45;&gt;ast.ListComp object at 0x766fc9022410</title>
<path fill="none" stroke="black" d="M600.39,-575.7C604.99,-567.64 610.56,-557.89 615.65,-548.98"/>
<polygon fill="black" stroke="black" points="618.8,-550.52 620.73,-540.1 612.73,-547.05 618.8,-550.52"/>
</g>
<!-- ast.List object at 0x766fc9020d90 -->
<g id="node44" class="node">
<title>ast.List object at 0x766fc9020d90</title>
<path fill="#66cdaa" stroke="black" d="M1036.5,-540C1036.5,-540 1006.5,-540 1006.5,-540 1000.5,-540 994.5,-534 994.5,-528 994.5,-528 994.5,-516 994.5,-516 994.5,-510 1000.5,-504 1006.5,-504 1006.5,-504 1036.5,-504 1036.5,-504 1042.5,-504 1048.5,-510 1048.5,-516 1048.5,-516 1048.5,-528 1048.5,-528 1048.5,-534 1042.5,-540 1036.5,-540"/>
<text text-anchor="middle" x="1021.5" y="-518.3" font-family="Times,serif" font-size="14.00">List</text>
</g>
<!-- ast.BoolOp object at 0x766fc9023310&#45;&gt;ast.List object at 0x766fc9020d90 -->
<g id="edge55" class="edge">
<title>ast.BoolOp object at 0x766fc9023310&#45;&gt;ast.List object at 0x766fc9020d90</title>
<path fill="none" stroke="black" d="M620.12,-588.19C696.54,-575.78 900.22,-542.7 984.35,-529.03"/>
<polygon fill="black" stroke="black" points="985.16,-532.45 994.47,-527.39 984.04,-525.54 985.16,-532.45"/>
</g>
<!-- ast.Name object at 0x766fc9021bd0 -->
<g id="node19" class="node">
<title>ast.Name object at 0x766fc9021bd0</title>
<path fill="#66cdaa" stroke="black" d="M565.5,-468C565.5,-468 535.5,-468 535.5,-468 529.5,-468 523.5,-462 523.5,-456 523.5,-456 523.5,-444 523.5,-444 523.5,-438 529.5,-432 535.5,-432 535.5,-432 565.5,-432 565.5,-432 571.5,-432 577.5,-438 577.5,-444 577.5,-444 577.5,-456 577.5,-456 577.5,-462 571.5,-468 565.5,-468"/>
<text text-anchor="middle" x="550.5" y="-446.3" font-family="Times,serif" font-size="14.00">Name</text>
</g>
<!-- ast.ListComp object at 0x766fc9022410&#45;&gt;ast.Name object at 0x766fc9021bd0 -->
<g id="edge18" class="edge">
<title>ast.ListComp object at 0x766fc9022410&#45;&gt;ast.Name object at 0x766fc9021bd0</title>
<path fill="none" stroke="black" d="M610.72,-503.7C600.75,-494.97 588.49,-484.24 577.64,-474.75"/>
<polygon fill="black" stroke="black" points="579.88,-472.06 570.05,-468.1 575.27,-477.32 579.88,-472.06"/>
</g>
<!-- ast.comprehension object at 0x766fc9022110 -->
<g id="node20" class="node">
<title>ast.comprehension object at 0x766fc9022110</title>
<path fill="#66cdaa" stroke="black" d="M683.5,-468C683.5,-468 607.5,-468 607.5,-468 601.5,-468 595.5,-462 595.5,-456 595.5,-456 595.5,-444 595.5,-444 595.5,-438 601.5,-432 607.5,-432 607.5,-432 683.5,-432 683.5,-432 689.5,-432 695.5,-438 695.5,-444 695.5,-444 695.5,-456 695.5,-456 695.5,-462 689.5,-468 683.5,-468"/>
<text text-anchor="middle" x="645.5" y="-446.3" font-family="Times,serif" font-size="14.00">comprehension</text>
</g>
<!-- ast.ListComp object at 0x766fc9022410&#45;&gt;ast.comprehension object at 0x766fc9022110 -->
<g id="edge20" class="edge">
<title>ast.ListComp object at 0x766fc9022410&#45;&gt;ast.comprehension object at 0x766fc9022110</title>
<path fill="none" stroke="black" d="M634.21,-503.7C635.86,-495.98 637.85,-486.71 639.69,-478.11"/>
<polygon fill="black" stroke="black" points="643.16,-478.62 641.83,-468.1 636.32,-477.15 643.16,-478.62"/>
</g>
<!-- ast.Name object at 0x766fc9021bd0&#45;&gt;ast.Load object at 0x7670a7337c10 -->
<g id="edge19" class="edge">
<title>ast.Name object at 0x766fc9021bd0&#45;&gt;ast.Load object at 0x7670a7337c10</title>
<path fill="none" stroke="black" d="M523.45,-434.24C509.14,-425.07 492.51,-411.98 482.5,-396 461.03,-361.72 463.5,-347.45 463.5,-307 463.5,-307 463.5,-307 463.5,-161 463.5,-36.9 665.37,-20.24 750.42,-18.73"/>
<polygon fill="black" stroke="black" points="750.47,-22.23 760.43,-18.61 750.39,-15.23 750.47,-22.23"/>
</g>
<!-- ast.Name object at 0x766fc90235d0 -->
<g id="node21" class="node">
<title>ast.Name object at 0x766fc90235d0</title>
<path fill="#66cdaa" stroke="black" d="M605.5,-396C605.5,-396 575.5,-396 575.5,-396 569.5,-396 563.5,-390 563.5,-384 563.5,-384 563.5,-372 563.5,-372 563.5,-366 569.5,-360 575.5,-360 575.5,-360 605.5,-360 605.5,-360 611.5,-360 617.5,-366 617.5,-372 617.5,-372 617.5,-384 617.5,-384 617.5,-390 611.5,-396 605.5,-396"/>
<text text-anchor="middle" x="590.5" y="-374.3" font-family="Times,serif" font-size="14.00">Name</text>
</g>
<!-- ast.comprehension object at 0x766fc9022110&#45;&gt;ast.Name object at 0x766fc90235d0 -->
<g id="edge21" class="edge">
<title>ast.comprehension object at 0x766fc9022110&#45;&gt;ast.Name object at 0x766fc90235d0</title>
<path fill="none" stroke="black" d="M631.9,-431.7C625.38,-423.39 617.43,-413.28 610.25,-404.14"/>
<polygon fill="black" stroke="black" points="612.87,-401.81 603.94,-396.1 607.37,-406.13 612.87,-401.81"/>
</g>
<!-- ast.Name object at 0x766fc9023bd0 -->
<g id="node22" class="node">
<title>ast.Name object at 0x766fc9023bd0</title>
<path fill="#66cdaa" stroke="black" d="M564.5,-180C564.5,-180 534.5,-180 534.5,-180 528.5,-180 522.5,-174 522.5,-168 522.5,-168 522.5,-156 522.5,-156 522.5,-150 528.5,-144 534.5,-144 534.5,-144 564.5,-144 564.5,-144 570.5,-144 576.5,-150 576.5,-156 576.5,-156 576.5,-168 576.5,-168 576.5,-174 570.5,-180 564.5,-180"/>
<text text-anchor="middle" x="549.5" y="-158.3" font-family="Times,serif" font-size="14.00">Name</text>
</g>
<!-- ast.comprehension object at 0x766fc9022110&#45;&gt;ast.Name object at 0x766fc9023bd0 -->
<g id="edge23" class="edge">
<title>ast.comprehension object at 0x766fc9022110&#45;&gt;ast.Name object at 0x766fc9023bd0</title>
<path fill="none" stroke="black" d="M642.67,-431.73C639.51,-413.64 633.85,-384.52 626.5,-360 607.71,-297.36 577.8,-226.54 561.33,-189.23"/>
<polygon fill="black" stroke="black" points="564.52,-187.78 557.26,-180.06 558.12,-190.62 564.52,-187.78"/>
</g>
<!-- ast.BoolOp object at 0x766fc9023690 -->
<g id="node23" class="node">
<title>ast.BoolOp object at 0x766fc9023690</title>
<path fill="#66cdaa" stroke="black" d="M917,-396C917,-396 882,-396 882,-396 876,-396 870,-390 870,-384 870,-384 870,-372 870,-372 870,-366 876,-360 882,-360 882,-360 917,-360 917,-360 923,-360 929,-366 929,-372 929,-372 929,-384 929,-384 929,-390 923,-396 917,-396"/>
<text text-anchor="middle" x="899.5" y="-374.3" font-family="Times,serif" font-size="14.00">BoolOp</text>
</g>
<!-- ast.comprehension object at 0x766fc9022110&#45;&gt;ast.BoolOp object at 0x766fc9023690 -->
<g id="edge25" class="edge">
<title>ast.comprehension object at 0x766fc9022110&#45;&gt;ast.BoolOp object at 0x766fc9023690</title>
<path fill="none" stroke="black" d="M695.68,-435.17C743.83,-421.9 815.59,-402.13 859.86,-389.92"/>
<polygon fill="black" stroke="black" points="860.97,-393.25 869.68,-387.22 859.11,-386.5 860.97,-393.25"/>
</g>
<!-- ast.Name object at 0x766fc90235d0&#45;&gt;ast.Store object at 0x7670a7337c90 -->
<g id="edge22" class="edge">
<title>ast.Name object at 0x766fc90235d0&#45;&gt;ast.Store object at 0x7670a7337c90</title>
<path fill="none" stroke="black" d="M579.62,-359.7C574.51,-351.56 568.3,-341.69 562.66,-332.7"/>
<polygon fill="black" stroke="black" points="565.54,-330.71 557.25,-324.1 559.61,-334.43 565.54,-330.71"/>
</g>
<!-- ast.Name object at 0x766fc9023bd0&#45;&gt;ast.Load object at 0x7670a7337c10 -->
<g id="edge24" class="edge">
<title>ast.Name object at 0x766fc9023bd0&#45;&gt;ast.Load object at 0x7670a7337c10</title>
<path fill="none" stroke="black" d="M539.8,-143.91C530.15,-124.36 518.94,-92.4 535.5,-72 562.12,-39.2 686.76,-25.94 750.2,-21.25"/>
<polygon fill="black" stroke="black" points="750.47,-24.74 760.2,-20.55 749.98,-17.76 750.47,-24.74"/>
</g>
<!-- ast.And object at 0x7670a7337ed0 -->
<g id="node24" class="node">
<title>ast.And object at 0x7670a7337ed0</title>
<path fill="#66cdaa" stroke="black" d="M1249.5,-324C1249.5,-324 1219.5,-324 1219.5,-324 1213.5,-324 1207.5,-318 1207.5,-312 1207.5,-312 1207.5,-300 1207.5,-300 1207.5,-294 1213.5,-288 1219.5,-288 1219.5,-288 1249.5,-288 1249.5,-288 1255.5,-288 1261.5,-294 1261.5,-300 1261.5,-300 1261.5,-312 1261.5,-312 1261.5,-318 1255.5,-324 1249.5,-324"/>
<text text-anchor="middle" x="1234.5" y="-302.3" font-family="Times,serif" font-size="14.00">And</text>
</g>
<!-- ast.BoolOp object at 0x766fc9023690&#45;&gt;ast.And object at 0x7670a7337ed0 -->
<g id="edge26" class="edge">
<title>ast.BoolOp object at 0x766fc9023690&#45;&gt;ast.And object at 0x7670a7337ed0</title>
<path fill="none" stroke="black" d="M929.41,-374.35C982.26,-369.11 1095.44,-355.37 1197.45,-323.87"/>
<polygon fill="black" stroke="black" points="1198.8,-327.12 1207.29,-320.77 1196.7,-320.44 1198.8,-327.12"/>
</g>
<!-- ast.Compare object at 0x766fc9021790 -->
<g id="node25" class="node">
<title>ast.Compare object at 0x766fc9021790</title>
<path fill="#66cdaa" stroke="black" d="M665,-180C665,-180 622,-180 622,-180 616,-180 610,-174 610,-168 610,-168 610,-156 610,-156 610,-150 616,-144 622,-144 622,-144 665,-144 665,-144 671,-144 677,-150 677,-156 677,-156 677,-168 677,-168 677,-174 671,-180 665,-180"/>
<text text-anchor="middle" x="643.5" y="-158.3" font-family="Times,serif" font-size="14.00">Compare</text>
</g>
<!-- ast.BoolOp object at 0x766fc9023690&#45;&gt;ast.Compare object at 0x766fc9021790 -->
<g id="edge27" class="edge">
<title>ast.BoolOp object at 0x766fc9023690&#45;&gt;ast.Compare object at 0x766fc9021790</title>
<path fill="none" stroke="black" d="M869.84,-370.67C840.35,-363.27 794.94,-348.75 762.5,-324 713.75,-286.81 675.68,-224.42 656.72,-189.22"/>
<polygon fill="black" stroke="black" points="659.65,-187.27 651.88,-180.06 653.45,-190.54 659.65,-187.27"/>
</g>
<!-- ast.Compare object at 0x766fc9022950 -->
<g id="node29" class="node">
<title>ast.Compare object at 0x766fc9022950</title>
<path fill="#66cdaa" stroke="black" d="M1054,-324C1054,-324 1011,-324 1011,-324 1005,-324 999,-318 999,-312 999,-312 999,-300 999,-300 999,-294 1005,-288 1011,-288 1011,-288 1054,-288 1054,-288 1060,-288 1066,-294 1066,-300 1066,-300 1066,-312 1066,-312 1066,-318 1060,-324 1054,-324"/>
<text text-anchor="middle" x="1032.5" y="-302.3" font-family="Times,serif" font-size="14.00">Compare</text>
</g>
<!-- ast.BoolOp object at 0x766fc9023690&#45;&gt;ast.Compare object at 0x766fc9022950 -->
<g id="edge33" class="edge">
<title>ast.BoolOp object at 0x766fc9023690&#45;&gt;ast.Compare object at 0x766fc9022950</title>
<path fill="none" stroke="black" d="M929.02,-361.46C947.2,-351.89 970.79,-339.48 990.86,-328.92"/>
<polygon fill="black" stroke="black" points="992.58,-331.97 999.8,-324.21 989.32,-325.77 992.58,-331.97"/>
</g>
<!-- ast.Compare object at 0x766fc9023290 -->
<g id="node37" class="node">
<title>ast.Compare object at 0x766fc9023290</title>
<path fill="#66cdaa" stroke="black" d="M827,-324C827,-324 784,-324 784,-324 778,-324 772,-318 772,-312 772,-312 772,-300 772,-300 772,-294 778,-288 784,-288 784,-288 827,-288 827,-288 833,-288 839,-294 839,-300 839,-300 839,-312 839,-312 839,-318 833,-324 827,-324"/>
<text text-anchor="middle" x="805.5" y="-302.3" font-family="Times,serif" font-size="14.00">Compare</text>
</g>
<!-- ast.BoolOp object at 0x766fc9023690&#45;&gt;ast.Compare object at 0x766fc9023290 -->
<g id="edge45" class="edge">
<title>ast.BoolOp object at 0x766fc9023690&#45;&gt;ast.Compare object at 0x766fc9023290</title>
<path fill="none" stroke="black" d="M876.26,-359.7C864.31,-350.8 849.58,-339.82 836.65,-330.2"/>
<polygon fill="black" stroke="black" points="838.58,-327.27 828.47,-324.1 834.4,-332.88 838.58,-327.27"/>
</g>
<!-- ast.Compare object at 0x766fc90223d0 -->
<g id="node41" class="node">
<title>ast.Compare object at 0x766fc90223d0</title>
<path fill="#66cdaa" stroke="black" d="M1177,-324C1177,-324 1134,-324 1134,-324 1128,-324 1122,-318 1122,-312 1122,-312 1122,-300 1122,-300 1122,-294 1128,-288 1134,-288 1134,-288 1177,-288 1177,-288 1183,-288 1189,-294 1189,-300 1189,-300 1189,-312 1189,-312 1189,-318 1183,-324 1177,-324"/>
<text text-anchor="middle" x="1155.5" y="-302.3" font-family="Times,serif" font-size="14.00">Compare</text>
</g>
<!-- ast.BoolOp object at 0x766fc9023690&#45;&gt;ast.Compare object at 0x766fc90223d0 -->
<g id="edge50" class="edge">
<title>ast.BoolOp object at 0x766fc9023690&#45;&gt;ast.Compare object at 0x766fc90223d0</title>
<path fill="none" stroke="black" d="M929.12,-368.9C974.03,-356.62 1059.64,-333.21 1111.74,-318.96"/>
<polygon fill="black" stroke="black" points="1112.97,-322.26 1121.7,-316.24 1111.13,-315.5 1112.97,-322.26"/>
</g>
<!-- ast.Name object at 0x766fc9023150 -->
<g id="node26" class="node">
<title>ast.Name object at 0x766fc9023150</title>
<path fill="#66cdaa" stroke="black" d="M586.5,-108C586.5,-108 556.5,-108 556.5,-108 550.5,-108 544.5,-102 544.5,-96 544.5,-96 544.5,-84 544.5,-84 544.5,-78 550.5,-72 556.5,-72 556.5,-72 586.5,-72 586.5,-72 592.5,-72 598.5,-78 598.5,-84 598.5,-84 598.5,-96 598.5,-96 598.5,-102 592.5,-108 586.5,-108"/>
<text text-anchor="middle" x="571.5" y="-86.3" font-family="Times,serif" font-size="14.00">Name</text>
</g>
<!-- ast.Compare object at 0x766fc9021790&#45;&gt;ast.Name object at 0x766fc9023150 -->
<g id="edge28" class="edge">
<title>ast.Compare object at 0x766fc9021790&#45;&gt;ast.Name object at 0x766fc9023150</title>
<path fill="none" stroke="black" d="M625.7,-143.7C616.9,-135.14 606.12,-124.66 596.5,-115.3"/>
<polygon fill="black" stroke="black" points="598.7,-112.57 589.09,-108.1 593.82,-117.58 598.7,-112.57"/>
</g>
<!-- ast.In object at 0x7670a734d050 -->
<g id="node27" class="node">
<title>ast.In object at 0x7670a734d050</title>
<path fill="#66cdaa" stroke="black" d="M730.5,-108C730.5,-108 700.5,-108 700.5,-108 694.5,-108 688.5,-102 688.5,-96 688.5,-96 688.5,-84 688.5,-84 688.5,-78 694.5,-72 700.5,-72 700.5,-72 730.5,-72 730.5,-72 736.5,-72 742.5,-78 742.5,-84 742.5,-84 742.5,-96 742.5,-96 742.5,-102 736.5,-108 730.5,-108"/>
<text text-anchor="middle" x="715.5" y="-86.3" font-family="Times,serif" font-size="14.00">In</text>
</g>
<!-- ast.Compare object at 0x766fc9021790&#45;&gt;ast.In object at 0x7670a734d050 -->
<g id="edge30" class="edge">
<title>ast.Compare object at 0x766fc9021790&#45;&gt;ast.In object at 0x7670a734d050</title>
<path fill="none" stroke="black" d="M661.3,-143.7C670.1,-135.14 680.88,-124.66 690.5,-115.3"/>
<polygon fill="black" stroke="black" points="693.18,-117.58 697.91,-108.1 688.3,-112.57 693.18,-117.58"/>
</g>
<!-- ast.Name object at 0x766fc9023110 -->
<g id="node28" class="node">
<title>ast.Name object at 0x766fc9023110</title>
<path fill="#66cdaa" stroke="black" d="M658.5,-108C658.5,-108 628.5,-108 628.5,-108 622.5,-108 616.5,-102 616.5,-96 616.5,-96 616.5,-84 616.5,-84 616.5,-78 622.5,-72 628.5,-72 628.5,-72 658.5,-72 658.5,-72 664.5,-72 670.5,-78 670.5,-84 670.5,-84 670.5,-96 670.5,-96 670.5,-102 664.5,-108 658.5,-108"/>
<text text-anchor="middle" x="643.5" y="-86.3" font-family="Times,serif" font-size="14.00">Name</text>
</g>
<!-- ast.Compare object at 0x766fc9021790&#45;&gt;ast.Name object at 0x766fc9023110 -->
<g id="edge31" class="edge">
<title>ast.Compare object at 0x766fc9021790&#45;&gt;ast.Name object at 0x766fc9023110</title>
<path fill="none" stroke="black" d="M643.5,-143.7C643.5,-135.98 643.5,-126.71 643.5,-118.11"/>
<polygon fill="black" stroke="black" points="647,-118.1 643.5,-108.1 640,-118.1 647,-118.1"/>
</g>
<!-- ast.Name object at 0x766fc9023150&#45;&gt;ast.Load object at 0x7670a7337c10 -->
<g id="edge29" class="edge">
<title>ast.Name object at 0x766fc9023150&#45;&gt;ast.Load object at 0x7670a7337c10</title>
<path fill="none" stroke="black" d="M598.83,-75.56C601.73,-74.29 604.66,-73.08 607.5,-72 655.92,-53.57 713.65,-37.58 750.44,-28.12"/>
<polygon fill="black" stroke="black" points="751.4,-31.48 760.23,-25.62 749.68,-24.7 751.4,-31.48"/>
</g>
<!-- ast.Name object at 0x766fc9023110&#45;&gt;ast.Load object at 0x7670a7337c10 -->
<g id="edge32" class="edge">
<title>ast.Name object at 0x766fc9023110&#45;&gt;ast.Load object at 0x7670a7337c10</title>
<path fill="none" stroke="black" d="M670.59,-75.83C693.27,-64.81 725.86,-48.97 750.87,-36.81"/>
<polygon fill="black" stroke="black" points="752.58,-39.87 760.05,-32.35 749.52,-33.57 752.58,-39.87"/>
</g>
<!-- ast.Constant object at 0x766fc9020650 -->
<g id="node30" class="node">
<title>ast.Constant object at 0x766fc9020650</title>
<path fill="#66cdaa" stroke="black" d="M1098,-252C1098,-252 1057,-252 1057,-252 1051,-252 1045,-246 1045,-240 1045,-240 1045,-228 1045,-228 1045,-222 1051,-216 1057,-216 1057,-216 1098,-216 1098,-216 1104,-216 1110,-222 1110,-228 1110,-228 1110,-240 1110,-240 1110,-246 1104,-252 1098,-252"/>
<text text-anchor="middle" x="1077.5" y="-230.3" font-family="Times,serif" font-size="14.00">Constant</text>
</g>
<!-- ast.Compare object at 0x766fc9022950&#45;&gt;ast.Constant object at 0x766fc9020650 -->
<g id="edge34" class="edge">
<title>ast.Compare object at 0x766fc9022950&#45;&gt;ast.Constant object at 0x766fc9020650</title>
<path fill="none" stroke="black" d="M1043.62,-287.7C1048.86,-279.56 1055.2,-269.69 1060.98,-260.7"/>
<polygon fill="black" stroke="black" points="1064.04,-262.41 1066.5,-252.1 1058.15,-258.62 1064.04,-262.41"/>
</g>
<!-- ast.LtE object at 0x7670a734cdd0 -->
<g id="node31" class="node">
<title>ast.LtE object at 0x7670a734cdd0</title>
<path fill="#66cdaa" stroke="black" d="M1170.5,-252C1170.5,-252 1140.5,-252 1140.5,-252 1134.5,-252 1128.5,-246 1128.5,-240 1128.5,-240 1128.5,-228 1128.5,-228 1128.5,-222 1134.5,-216 1140.5,-216 1140.5,-216 1170.5,-216 1170.5,-216 1176.5,-216 1182.5,-222 1182.5,-228 1182.5,-228 1182.5,-240 1182.5,-240 1182.5,-246 1176.5,-252 1170.5,-252"/>
<text text-anchor="middle" x="1155.5" y="-230.3" font-family="Times,serif" font-size="14.00">LtE</text>
</g>
<!-- ast.Compare object at 0x766fc9022950&#45;&gt;ast.LtE object at 0x7670a734cdd0 -->
<g id="edge35" class="edge">
<title>ast.Compare object at 0x766fc9022950&#45;&gt;ast.LtE object at 0x7670a734cdd0</title>
<path fill="none" stroke="black" d="M1056.69,-287.88C1074.56,-277.07 1099.01,-263.14 1119.19,-252.3"/>
<polygon fill="black" stroke="black" points="1120.93,-255.34 1128.11,-247.56 1117.64,-249.16 1120.93,-255.34"/>
</g>
<!-- ast.Compare object at 0x766fc9022950&#45;&gt;ast.LtE object at 0x7670a734cdd0 -->
<g id="edge36" class="edge">
<title>ast.Compare object at 0x766fc9022950&#45;&gt;ast.LtE object at 0x7670a734cdd0</title>
<path fill="none" stroke="black" d="M1066.17,-289.12C1083.8,-279.7 1105.2,-267.63 1122.69,-257.28"/>
<polygon fill="black" stroke="black" points="1124.66,-260.18 1131.44,-252.04 1121.06,-254.17 1124.66,-260.18"/>
</g>
<!-- ast.Call object at 0x766fc9023f10 -->
<g id="node32" class="node">
<title>ast.Call object at 0x766fc9023f10</title>
<path fill="#66cdaa" stroke="black" d="M931.5,-252C931.5,-252 901.5,-252 901.5,-252 895.5,-252 889.5,-246 889.5,-240 889.5,-240 889.5,-228 889.5,-228 889.5,-222 895.5,-216 901.5,-216 901.5,-216 931.5,-216 931.5,-216 937.5,-216 943.5,-222 943.5,-228 943.5,-228 943.5,-240 943.5,-240 943.5,-246 937.5,-252 931.5,-252"/>
<text text-anchor="middle" x="916.5" y="-230.3" font-family="Times,serif" font-size="14.00">Call</text>
</g>
<!-- ast.Compare object at 0x766fc9022950&#45;&gt;ast.Call object at 0x766fc9023f10 -->
<g id="edge37" class="edge">
<title>ast.Compare object at 0x766fc9022950&#45;&gt;ast.Call object at 0x766fc9023f10</title>
<path fill="none" stroke="black" d="M1004.12,-287.88C988.62,-278.52 969.25,-266.83 952.67,-256.83"/>
<polygon fill="black" stroke="black" points="954.16,-253.64 943.79,-251.47 950.54,-259.63 954.16,-253.64"/>
</g>
<!-- ast.Constant object at 0x766fc90218d0 -->
<g id="node36" class="node">
<title>ast.Constant object at 0x766fc90218d0</title>
<path fill="#66cdaa" stroke="black" d="M1015,-252C1015,-252 974,-252 974,-252 968,-252 962,-246 962,-240 962,-240 962,-228 962,-228 962,-222 968,-216 974,-216 974,-216 1015,-216 1015,-216 1021,-216 1027,-222 1027,-228 1027,-228 1027,-240 1027,-240 1027,-246 1021,-252 1015,-252"/>
<text text-anchor="middle" x="994.5" y="-230.3" font-family="Times,serif" font-size="14.00">Constant</text>
</g>
<!-- ast.Compare object at 0x766fc9022950&#45;&gt;ast.Constant object at 0x766fc90218d0 -->
<g id="edge44" class="edge">
<title>ast.Compare object at 0x766fc9022950&#45;&gt;ast.Constant object at 0x766fc90218d0</title>
<path fill="none" stroke="black" d="M1023.11,-287.7C1018.74,-279.64 1013.44,-269.89 1008.6,-260.98"/>
<polygon fill="black" stroke="black" points="1011.63,-259.22 1003.79,-252.1 1005.48,-262.56 1011.63,-259.22"/>
</g>
<!-- ast.Attribute object at 0x766fc9023450 -->
<g id="node33" class="node">
<title>ast.Attribute object at 0x766fc9023450</title>
<path fill="#66cdaa" stroke="black" d="M941,-180C941,-180 900,-180 900,-180 894,-180 888,-174 888,-168 888,-168 888,-156 888,-156 888,-150 894,-144 900,-144 900,-144 941,-144 941,-144 947,-144 953,-150 953,-156 953,-156 953,-168 953,-168 953,-174 947,-180 941,-180"/>
<text text-anchor="middle" x="920.5" y="-158.3" font-family="Times,serif" font-size="14.00">Attribute</text>
</g>
<!-- ast.Call object at 0x766fc9023f10&#45;&gt;ast.Attribute object at 0x766fc9023450 -->
<g id="edge38" class="edge">
<title>ast.Call object at 0x766fc9023f10&#45;&gt;ast.Attribute object at 0x766fc9023450</title>
<path fill="none" stroke="black" d="M917.49,-215.7C917.93,-207.98 918.46,-198.71 918.95,-190.11"/>
<polygon fill="black" stroke="black" points="922.45,-190.29 919.52,-180.1 915.46,-189.89 922.45,-190.29"/>
</g>
<!-- ast.Name object at 0x766fc90222d0 -->
<g id="node35" class="node">
<title>ast.Name object at 0x766fc90222d0</title>
<path fill="#66cdaa" stroke="black" d="M857.5,-180C857.5,-180 827.5,-180 827.5,-180 821.5,-180 815.5,-174 815.5,-168 815.5,-168 815.5,-156 815.5,-156 815.5,-150 821.5,-144 827.5,-144 827.5,-144 857.5,-144 857.5,-144 863.5,-144 869.5,-150 869.5,-156 869.5,-156 869.5,-168 869.5,-168 869.5,-174 863.5,-180 857.5,-180"/>
<text text-anchor="middle" x="842.5" y="-158.3" font-family="Times,serif" font-size="14.00">Name</text>
</g>
<!-- ast.Call object at 0x766fc9023f10&#45;&gt;ast.Name object at 0x766fc90222d0 -->
<g id="edge42" class="edge">
<title>ast.Call object at 0x766fc9023f10&#45;&gt;ast.Name object at 0x766fc90222d0</title>
<path fill="none" stroke="black" d="M898.21,-215.7C889.07,-207.05 877.86,-196.45 867.9,-187.03"/>
<polygon fill="black" stroke="black" points="870.25,-184.43 860.58,-180.1 865.44,-189.52 870.25,-184.43"/>
</g>
<!-- ast.Attribute object at 0x766fc9023450&#45;&gt;ast.Load object at 0x7670a7337c10 -->
<g id="edge41" class="edge">
<title>ast.Attribute object at 0x766fc9023450&#45;&gt;ast.Load object at 0x7670a7337c10</title>
<path fill="none" stroke="black" d="M929.55,-143.95C938.37,-124.72 948.47,-93.36 933.5,-72 909.1,-37.18 859.36,-25.15 824.76,-21.04"/>
<polygon fill="black" stroke="black" points="824.86,-17.53 814.55,-20 824.15,-24.5 824.86,-17.53"/>
</g>
<!-- ast.Name object at 0x766fc9020210 -->
<g id="node34" class="node">
<title>ast.Name object at 0x766fc9020210</title>
<path fill="#66cdaa" stroke="black" d="M912.5,-108C912.5,-108 882.5,-108 882.5,-108 876.5,-108 870.5,-102 870.5,-96 870.5,-96 870.5,-84 870.5,-84 870.5,-78 876.5,-72 882.5,-72 882.5,-72 912.5,-72 912.5,-72 918.5,-72 924.5,-78 924.5,-84 924.5,-84 924.5,-96 924.5,-96 924.5,-102 918.5,-108 912.5,-108"/>
<text text-anchor="middle" x="897.5" y="-86.3" font-family="Times,serif" font-size="14.00">Name</text>
</g>
<!-- ast.Attribute object at 0x766fc9023450&#45;&gt;ast.Name object at 0x766fc9020210 -->
<g id="edge39" class="edge">
<title>ast.Attribute object at 0x766fc9023450&#45;&gt;ast.Name object at 0x766fc9020210</title>
<path fill="none" stroke="black" d="M914.81,-143.7C912.25,-135.9 909.17,-126.51 906.32,-117.83"/>
<polygon fill="black" stroke="black" points="909.57,-116.51 903.12,-108.1 902.92,-118.7 909.57,-116.51"/>
</g>
<!-- ast.Name object at 0x766fc9020210&#45;&gt;ast.Load object at 0x7670a7337c10 -->
<g id="edge40" class="edge">
<title>ast.Name object at 0x766fc9020210&#45;&gt;ast.Load object at 0x7670a7337c10</title>
<path fill="none" stroke="black" d="M870.59,-71.88C856.34,-62.81 838.65,-51.55 823.26,-41.76"/>
<polygon fill="black" stroke="black" points="824.83,-38.61 814.51,-36.19 821.07,-44.51 824.83,-38.61"/>
</g>
<!-- ast.Name object at 0x766fc90222d0&#45;&gt;ast.Load object at 0x7670a7337c10 -->
<g id="edge43" class="edge">
<title>ast.Name object at 0x766fc90222d0&#45;&gt;ast.Load object at 0x7670a7337c10</title>
<path fill="none" stroke="black" d="M840.8,-143.67C838.55,-125.29 833.61,-95.69 823.5,-72 819.42,-62.43 813.51,-52.78 807.66,-44.39"/>
<polygon fill="black" stroke="black" points="810.38,-42.17 801.66,-36.15 804.72,-46.29 810.38,-42.17"/>
</g>
<!-- ast.Name object at 0x766fc9021310 -->
<g id="node38" class="node">
<title>ast.Name object at 0x766fc9021310</title>
<path fill="#66cdaa" stroke="black" d="M802.5,-108C802.5,-108 772.5,-108 772.5,-108 766.5,-108 760.5,-102 760.5,-96 760.5,-96 760.5,-84 760.5,-84 760.5,-78 766.5,-72 772.5,-72 772.5,-72 802.5,-72 802.5,-72 808.5,-72 814.5,-78 814.5,-84 814.5,-84 814.5,-96 814.5,-96 814.5,-102 808.5,-108 802.5,-108"/>
<text text-anchor="middle" x="787.5" y="-86.3" font-family="Times,serif" font-size="14.00">Name</text>
</g>
<!-- ast.Compare object at 0x766fc9023290&#45;&gt;ast.Name object at 0x766fc9021310 -->
<g id="edge46" class="edge">
<title>ast.Compare object at 0x766fc9023290&#45;&gt;ast.Name object at 0x766fc9021310</title>
<path fill="none" stroke="black" d="M771.84,-292.29C754.35,-283.76 734.57,-270.63 724.5,-252 699.63,-206 737.79,-148.04 764.71,-115.7"/>
<polygon fill="black" stroke="black" points="767.42,-117.93 771.27,-108.06 762.1,-113.37 767.42,-117.93"/>
</g>
<!-- ast.Gt object at 0x7670a734ce50 -->
<g id="node39" class="node">
<title>ast.Gt object at 0x7670a734ce50</title>
<path fill="#66cdaa" stroke="black" d="M859.5,-252C859.5,-252 829.5,-252 829.5,-252 823.5,-252 817.5,-246 817.5,-240 817.5,-240 817.5,-228 817.5,-228 817.5,-222 823.5,-216 829.5,-216 829.5,-216 859.5,-216 859.5,-216 865.5,-216 871.5,-222 871.5,-228 871.5,-228 871.5,-240 871.5,-240 871.5,-246 865.5,-252 859.5,-252"/>
<text text-anchor="middle" x="844.5" y="-230.3" font-family="Times,serif" font-size="14.00">Gt</text>
</g>
<!-- ast.Compare object at 0x766fc9023290&#45;&gt;ast.Gt object at 0x7670a734ce50 -->
<g id="edge48" class="edge">
<title>ast.Compare object at 0x766fc9023290&#45;&gt;ast.Gt object at 0x7670a734ce50</title>
<path fill="none" stroke="black" d="M815.14,-287.7C819.63,-279.64 825.06,-269.89 830.02,-260.98"/>
<polygon fill="black" stroke="black" points="833.16,-262.54 834.97,-252.1 827.05,-259.14 833.16,-262.54"/>
</g>
<!-- ast.Constant object at 0x766fc9022b50 -->
<g id="node40" class="node">
<title>ast.Constant object at 0x766fc9022b50</title>
<path fill="#66cdaa" stroke="black" d="M787,-252C787,-252 746,-252 746,-252 740,-252 734,-246 734,-240 734,-240 734,-228 734,-228 734,-222 740,-216 746,-216 746,-216 787,-216 787,-216 793,-216 799,-222 799,-228 799,-228 799,-240 799,-240 799,-246 793,-252 787,-252"/>
<text text-anchor="middle" x="766.5" y="-230.3" font-family="Times,serif" font-size="14.00">Constant</text>
</g>
<!-- ast.Compare object at 0x766fc9023290&#45;&gt;ast.Constant object at 0x766fc9022b50 -->
<g id="edge49" class="edge">
<title>ast.Compare object at 0x766fc9023290&#45;&gt;ast.Constant object at 0x766fc9022b50</title>
<path fill="none" stroke="black" d="M795.86,-287.7C791.37,-279.64 785.94,-269.89 780.98,-260.98"/>
<polygon fill="black" stroke="black" points="783.95,-259.14 776.03,-252.1 777.84,-262.54 783.95,-259.14"/>
</g>
<!-- ast.Name object at 0x766fc9021310&#45;&gt;ast.Load object at 0x7670a7337c10 -->
<g id="edge47" class="edge">
<title>ast.Name object at 0x766fc9021310&#45;&gt;ast.Load object at 0x7670a7337c10</title>
<path fill="none" stroke="black" d="M787.5,-71.7C787.5,-63.98 787.5,-54.71 787.5,-46.11"/>
<polygon fill="black" stroke="black" points="791,-46.1 787.5,-36.1 784,-46.1 791,-46.1"/>
</g>
<!-- ast.Compare object at 0x766fc90223d0&#45;&gt;ast.LtE object at 0x7670a734cdd0 -->
<g id="edge53" class="edge">
<title>ast.Compare object at 0x766fc90223d0&#45;&gt;ast.LtE object at 0x7670a734cdd0</title>
<path fill="none" stroke="black" d="M1155.5,-287.7C1155.5,-279.98 1155.5,-270.71 1155.5,-262.11"/>
<polygon fill="black" stroke="black" points="1159,-262.1 1155.5,-252.1 1152,-262.1 1159,-262.1"/>
</g>
<!-- ast.Name object at 0x766fc9022e90 -->
<g id="node42" class="node">
<title>ast.Name object at 0x766fc9022e90</title>
<path fill="#66cdaa" stroke="black" d="M1119.5,-180C1119.5,-180 1089.5,-180 1089.5,-180 1083.5,-180 1077.5,-174 1077.5,-168 1077.5,-168 1077.5,-156 1077.5,-156 1077.5,-150 1083.5,-144 1089.5,-144 1089.5,-144 1119.5,-144 1119.5,-144 1125.5,-144 1131.5,-150 1131.5,-156 1131.5,-156 1131.5,-168 1131.5,-168 1131.5,-174 1125.5,-180 1119.5,-180"/>
<text text-anchor="middle" x="1104.5" y="-158.3" font-family="Times,serif" font-size="14.00">Name</text>
</g>
<!-- ast.Compare object at 0x766fc90223d0&#45;&gt;ast.Name object at 0x766fc9022e90 -->
<g id="edge51" class="edge">
<title>ast.Compare object at 0x766fc90223d0&#45;&gt;ast.Name object at 0x766fc9022e90</title>
<path fill="none" stroke="black" d="M1171.57,-287.68C1186.57,-269.29 1204.81,-239.69 1191.5,-216 1180.73,-196.83 1159.9,-183.78 1141.32,-175.42"/>
<polygon fill="black" stroke="black" points="1142.46,-172.1 1131.88,-171.48 1139.76,-178.56 1142.46,-172.1"/>
</g>
<!-- ast.Constant object at 0x766fc90230d0 -->
<g id="node43" class="node">
<title>ast.Constant object at 0x766fc90230d0</title>
<path fill="#66cdaa" stroke="black" d="M1292,-252C1292,-252 1251,-252 1251,-252 1245,-252 1239,-246 1239,-240 1239,-240 1239,-228 1239,-228 1239,-222 1245,-216 1251,-216 1251,-216 1292,-216 1292,-216 1298,-216 1304,-222 1304,-228 1304,-228 1304,-240 1304,-240 1304,-246 1298,-252 1292,-252"/>
<text text-anchor="middle" x="1271.5" y="-230.3" font-family="Times,serif" font-size="14.00">Constant</text>
</g>
<!-- ast.Compare object at 0x766fc90223d0&#45;&gt;ast.Constant object at 0x766fc90230d0 -->
<g id="edge54" class="edge">
<title>ast.Compare object at 0x766fc90223d0&#45;&gt;ast.Constant object at 0x766fc90230d0</title>
<path fill="none" stroke="black" d="M1183.88,-287.88C1199.04,-278.72 1217.91,-267.34 1234.24,-257.48"/>
<polygon fill="black" stroke="black" points="1236.26,-260.35 1243.01,-252.19 1232.64,-254.36 1236.26,-260.35"/>
</g>
<!-- ast.Name object at 0x766fc9022e90&#45;&gt;ast.Load object at 0x7670a7337c10 -->
<g id="edge52" class="edge">
<title>ast.Name object at 0x766fc9022e90&#45;&gt;ast.Load object at 0x7670a7337c10</title>
<path fill="none" stroke="black" d="M1079.14,-143.96C1049.5,-124.6 998.5,-92.97 951.5,-72 909.28,-53.16 858.28,-37.75 824.48,-28.5"/>
<polygon fill="black" stroke="black" points="825.14,-25.05 814.57,-25.83 823.31,-31.81 825.14,-25.05"/>
</g>
<!-- ast.List object at 0x766fc9020d90&#45;&gt;ast.Load object at 0x7670a7337c10 -->
<g id="edge56" class="edge">
<title>ast.List object at 0x766fc9020d90&#45;&gt;ast.Load object at 0x7670a7337c10</title>
<path fill="none" stroke="black" d="M1048.56,-520.95C1124.22,-519.27 1332.5,-503.35 1332.5,-379 1332.5,-379 1332.5,-379 1332.5,-161 1332.5,-55.78 947.28,-27.11 824.57,-20.65"/>
<polygon fill="black" stroke="black" points="824.69,-17.15 814.53,-20.14 824.34,-24.14 824.69,-17.15"/>
</g>
</g>
</svg>
