<?xml version="1.0" encoding="UTF-8" standalone="no"?>
<!DOCTYPE svg PUBLIC "-//W3C//DTD SVG 1.1//EN"
 "http://www.w3.org/Graphics/SVG/1.1/DTD/svg11.dtd">
<!-- Generated by graphviz version 2.50.0 (0)
 -->
<!-- Pages: 1 -->
<svg width="984pt" height="548pt"
 viewBox="0.00 0.00 983.50 548.00" xmlns="http://www.w3.org/2000/svg" xmlns:xlink="http://www.w3.org/1999/xlink">
<g id="graph0" class="graph" transform="scale(1 1) rotate(0) translate(4 544)">
<polygon fill="white" stroke="transparent" points="-4,4 -4,-544 979.5,-544 979.5,4 -4,4"/>
<!-- ast.Module object at 0x73b1284b9610 -->
<g id="node1" class="node">
<title>ast.Module object at 0x73b1284b9610</title>
<path fill="#66cdaa" stroke="black" d="M613.5,-540C613.5,-540 578.5,-540 578.5,-540 572.5,-540 566.5,-534 566.5,-528 566.5,-528 566.5,-516 566.5,-516 566.5,-510 572.5,-504 578.5,-504 578.5,-504 613.5,-504 613.5,-504 619.5,-504 625.5,-510 625.5,-516 625.5,-516 625.5,-528 625.5,-528 625.5,-534 619.5,-540 613.5,-540"/>
<text text-anchor="middle" x="596" y="-518.3" font-family="Times,serif" font-size="14.00">Module</text>
</g>
<!-- ast.FunctionDef object at 0x73b1284b9690 -->
<g id="node2" class="node">
<title>ast.FunctionDef object at 0x73b1284b9690</title>
<path fill="#66cdaa" stroke="black" d="M626.5,-468C626.5,-468 565.5,-468 565.5,-468 559.5,-468 553.5,-462 553.5,-456 553.5,-456 553.5,-444 553.5,-444 553.5,-438 559.5,-432 565.5,-432 565.5,-432 626.5,-432 626.5,-432 632.5,-432 638.5,-438 638.5,-444 638.5,-444 638.5,-456 638.5,-456 638.5,-462 632.5,-468 626.5,-468"/>
<text text-anchor="middle" x="596" y="-446.3" font-family="Times,serif" font-size="14.00">FunctionDef</text>
</g>
<!-- ast.Module object at 0x73b1284b9610&#45;&gt;ast.FunctionDef object at 0x73b1284b9690 -->
<g id="edge1" class="edge">
<title>ast.Module object at 0x73b1284b9610&#45;&gt;ast.FunctionDef object at 0x73b1284b9690</title>
<path fill="none" stroke="black" d="M596,-503.7C596,-495.98 596,-486.71 596,-478.11"/>
<polygon fill="black" stroke="black" points="599.5,-478.1 596,-468.1 592.5,-478.1 599.5,-478.1"/>
</g>
<!-- ast.arguments object at 0x73b1284b9750 -->
<g id="node3" class="node">
<title>ast.arguments object at 0x73b1284b9750</title>
<path fill="#66cdaa" stroke="black" d="M329,-396C329,-396 279,-396 279,-396 273,-396 267,-390 267,-384 267,-384 267,-372 267,-372 267,-366 273,-360 279,-360 279,-360 329,-360 329,-360 335,-360 341,-366 341,-372 341,-372 341,-384 341,-384 341,-390 335,-396 329,-396"/>
<text text-anchor="middle" x="304" y="-374.3" font-family="Times,serif" font-size="14.00">arguments</text>
</g>
<!-- ast.FunctionDef object at 0x73b1284b9690&#45;&gt;ast.arguments object at 0x73b1284b9750 -->
<g id="edge2" class="edge">
<title>ast.FunctionDef object at 0x73b1284b9690&#45;&gt;ast.arguments object at 0x73b1284b9750</title>
<path fill="none" stroke="black" d="M553.23,-438.75C499.39,-425.84 407.22,-403.74 351.32,-390.34"/>
<polygon fill="black" stroke="black" points="351.86,-386.88 341.32,-387.95 350.23,-393.68 351.86,-386.88"/>
</g>
<!-- ast.Assign object at 0x73b1284ba150 -->
<g id="node5" class="node">
<title>ast.Assign object at 0x73b1284ba150</title>
<path fill="#66cdaa" stroke="black" d="M575,-396C575,-396 545,-396 545,-396 539,-396 533,-390 533,-384 533,-384 533,-372 533,-372 533,-366 539,-360 545,-360 545,-360 575,-360 575,-360 581,-360 587,-366 587,-372 587,-372 587,-384 587,-384 587,-390 581,-396 575,-396"/>
<text text-anchor="middle" x="560" y="-374.3" font-family="Times,serif" font-size="14.00">Assign</text>
</g>
<!-- ast.FunctionDef object at 0x73b1284b9690&#45;&gt;ast.Assign object at 0x73b1284ba150 -->
<g id="edge4" class="edge">
<title>ast.FunctionDef object at 0x73b1284b9690&#45;&gt;ast.Assign object at 0x73b1284ba150</title>
<path fill="none" stroke="black" d="M587.1,-431.7C583,-423.73 578.05,-414.1 573.51,-405.26"/>
<polygon fill="black" stroke="black" points="576.48,-403.4 568.8,-396.1 570.26,-406.6 576.48,-403.4"/>
</g>
<!-- ast.Assign object at 0x73b1284ba390 -->
<g id="node16" class="node">
<title>ast.Assign object at 0x73b1284ba390</title>
<path fill="#66cdaa" stroke="black" d="M715,-324C715,-324 685,-324 685,-324 679,-324 673,-318 673,-312 673,-312 673,-300 673,-300 673,-294 679,-288 685,-288 685,-288 715,-288 715,-288 721,-288 727,-294 727,-300 727,-300 727,-312 727,-312 727,-318 721,-324 715,-324"/>
<text text-anchor="middle" x="700" y="-302.3" font-family="Times,serif" font-size="14.00">Assign</text>
</g>
<!-- ast.FunctionDef object at 0x73b1284b9690&#45;&gt;ast.Assign object at 0x73b1284ba390 -->
<g id="edge18" class="edge">
<title>ast.FunctionDef object at 0x73b1284b9690&#45;&gt;ast.Assign object at 0x73b1284ba390</title>
<path fill="none" stroke="black" d="M627.03,-431.97C641.17,-422.88 657.14,-410.56 668,-396 681.68,-377.65 689.95,-352.89 694.65,-334.15"/>
<polygon fill="black" stroke="black" points="698.11,-334.7 696.96,-324.16 691.29,-333.12 698.11,-334.7"/>
</g>
<!-- ast.Expr object at 0x73b1284b9d50 -->
<g id="node23" class="node">
<title>ast.Expr object at 0x73b1284b9d50</title>
<path fill="#66cdaa" stroke="black" d="M769,-396C769,-396 739,-396 739,-396 733,-396 727,-390 727,-384 727,-384 727,-372 727,-372 727,-366 733,-360 739,-360 739,-360 769,-360 769,-360 775,-360 781,-366 781,-372 781,-372 781,-384 781,-384 781,-390 775,-396 769,-396"/>
<text text-anchor="middle" x="754" y="-374.3" font-family="Times,serif" font-size="14.00">Expr</text>
</g>
<!-- ast.FunctionDef object at 0x73b1284b9690&#45;&gt;ast.Expr object at 0x73b1284b9d50 -->
<g id="edge29" class="edge">
<title>ast.FunctionDef object at 0x73b1284b9690&#45;&gt;ast.Expr object at 0x73b1284b9d50</title>
<path fill="none" stroke="black" d="M634.65,-431.88C659.81,-420.73 692.44,-406.27 717.22,-395.29"/>
<polygon fill="black" stroke="black" points="718.92,-398.37 726.64,-391.12 716.08,-391.97 718.92,-398.37"/>
</g>
<!-- ast.Assign object at 0x73b1284b3cd0 -->
<g id="node29" class="node">
<title>ast.Assign object at 0x73b1284b3cd0</title>
<path fill="#66cdaa" stroke="black" d="M503,-396C503,-396 473,-396 473,-396 467,-396 461,-390 461,-384 461,-384 461,-372 461,-372 461,-366 467,-360 473,-360 473,-360 503,-360 503,-360 509,-360 515,-366 515,-372 515,-372 515,-384 515,-384 515,-390 509,-396 503,-396"/>
<text text-anchor="middle" x="488" y="-374.3" font-family="Times,serif" font-size="14.00">Assign</text>
</g>
<!-- ast.FunctionDef object at 0x73b1284b9690&#45;&gt;ast.Assign object at 0x73b1284b3cd0 -->
<g id="edge37" class="edge">
<title>ast.FunctionDef object at 0x73b1284b9690&#45;&gt;ast.Assign object at 0x73b1284b3cd0</title>
<path fill="none" stroke="black" d="M569.58,-431.88C555.59,-422.81 538.22,-411.55 523.11,-401.76"/>
<polygon fill="black" stroke="black" points="524.82,-398.69 514.52,-396.19 521.01,-404.57 524.82,-398.69"/>
</g>
<!-- ast.Return object at 0x73b1284bab50 -->
<g id="node41" class="node">
<title>ast.Return object at 0x73b1284bab50</title>
<path fill="#66cdaa" stroke="black" d="M647,-396C647,-396 617,-396 617,-396 611,-396 605,-390 605,-384 605,-384 605,-372 605,-372 605,-366 611,-360 617,-360 617,-360 647,-360 647,-360 653,-360 659,-366 659,-372 659,-372 659,-384 659,-384 659,-390 653,-396 647,-396"/>
<text text-anchor="middle" x="632" y="-374.3" font-family="Times,serif" font-size="14.00">Return</text>
</g>
<!-- ast.FunctionDef object at 0x73b1284b9690&#45;&gt;ast.Return object at 0x73b1284bab50 -->
<g id="edge55" class="edge">
<title>ast.FunctionDef object at 0x73b1284b9690&#45;&gt;ast.Return object at 0x73b1284bab50</title>
<path fill="none" stroke="black" d="M604.9,-431.7C609,-423.73 613.95,-414.1 618.49,-405.26"/>
<polygon fill="black" stroke="black" points="621.74,-406.6 623.2,-396.1 615.52,-403.4 621.74,-406.6"/>
</g>
<!-- ast.arg object at 0x73b1284bb210 -->
<g id="node4" class="node">
<title>ast.arg object at 0x73b1284bb210</title>
<path fill="#66cdaa" stroke="black" d="M245,-324C245,-324 215,-324 215,-324 209,-324 203,-318 203,-312 203,-312 203,-300 203,-300 203,-294 209,-288 215,-288 215,-288 245,-288 245,-288 251,-288 257,-294 257,-300 257,-300 257,-312 257,-312 257,-318 251,-324 245,-324"/>
<text text-anchor="middle" x="230" y="-302.3" font-family="Times,serif" font-size="14.00">arg</text>
</g>
<!-- ast.arguments object at 0x73b1284b9750&#45;&gt;ast.arg object at 0x73b1284bb210 -->
<g id="edge3" class="edge">
<title>ast.arguments object at 0x73b1284b9750&#45;&gt;ast.arg object at 0x73b1284bb210</title>
<path fill="none" stroke="black" d="M285.71,-359.7C276.57,-351.05 265.36,-340.45 255.4,-331.03"/>
<polygon fill="black" stroke="black" points="257.75,-328.43 248.08,-324.1 252.94,-333.52 257.75,-328.43"/>
</g>
<!-- ast.Name object at 0x73b1284b9810 -->
<g id="node6" class="node">
<title>ast.Name object at 0x73b1284b9810</title>
<path fill="#66cdaa" stroke="black" d="M584,-252C584,-252 554,-252 554,-252 548,-252 542,-246 542,-240 542,-240 542,-228 542,-228 542,-222 548,-216 554,-216 554,-216 584,-216 584,-216 590,-216 596,-222 596,-228 596,-228 596,-240 596,-240 596,-246 590,-252 584,-252"/>
<text text-anchor="middle" x="569" y="-230.3" font-family="Times,serif" font-size="14.00">Name</text>
</g>
<!-- ast.Assign object at 0x73b1284ba150&#45;&gt;ast.Name object at 0x73b1284b9810 -->
<g id="edge5" class="edge">
<title>ast.Assign object at 0x73b1284ba150&#45;&gt;ast.Name object at 0x73b1284b9810</title>
<path fill="none" stroke="black" d="M561.09,-359.87C562.62,-335.67 565.44,-291.21 567.26,-262.39"/>
<polygon fill="black" stroke="black" points="570.77,-262.39 567.91,-252.19 563.78,-261.95 570.77,-262.39"/>
</g>
<!-- ast.ListComp object at 0x73b1284bb2d0 -->
<g id="node8" class="node">
<title>ast.ListComp object at 0x73b1284bb2d0</title>
<path fill="#66cdaa" stroke="black" d="M456.5,-324C456.5,-324 409.5,-324 409.5,-324 403.5,-324 397.5,-318 397.5,-312 397.5,-312 397.5,-300 397.5,-300 397.5,-294 403.5,-288 409.5,-288 409.5,-288 456.5,-288 456.5,-288 462.5,-288 468.5,-294 468.5,-300 468.5,-300 468.5,-312 468.5,-312 468.5,-318 462.5,-324 456.5,-324"/>
<text text-anchor="middle" x="433" y="-302.3" font-family="Times,serif" font-size="14.00">ListComp</text>
</g>
<!-- ast.Assign object at 0x73b1284ba150&#45;&gt;ast.ListComp object at 0x73b1284bb2d0 -->
<g id="edge7" class="edge">
<title>ast.Assign object at 0x73b1284ba150&#45;&gt;ast.ListComp object at 0x73b1284bb2d0</title>
<path fill="none" stroke="black" d="M532.76,-361.98C515.39,-352.41 492.58,-339.84 473.16,-329.14"/>
<polygon fill="black" stroke="black" points="474.67,-325.97 464.22,-324.21 471.29,-332.1 474.67,-325.97"/>
</g>
<!-- ast.Store object at 0x73b1333c1a10 -->
<g id="node7" class="node">
<title>ast.Store object at 0x73b1333c1a10</title>
<path fill="#66cdaa" stroke="black" d="M550,-108C550,-108 520,-108 520,-108 514,-108 508,-102 508,-96 508,-96 508,-84 508,-84 508,-78 514,-72 520,-72 520,-72 550,-72 550,-72 556,-72 562,-78 562,-84 562,-84 562,-96 562,-96 562,-102 556,-108 550,-108"/>
<text text-anchor="middle" x="535" y="-86.3" font-family="Times,serif" font-size="14.00">Store</text>
</g>
<!-- ast.Name object at 0x73b1284b9810&#45;&gt;ast.Store object at 0x73b1333c1a10 -->
<g id="edge6" class="edge">
<title>ast.Name object at 0x73b1284b9810&#45;&gt;ast.Store object at 0x73b1333c1a10</title>
<path fill="none" stroke="black" d="M564.9,-215.87C559.08,-191.56 548.37,-146.82 541.47,-118.01"/>
<polygon fill="black" stroke="black" points="544.85,-117.1 539.12,-108.19 538.04,-118.73 544.85,-117.1"/>
</g>
<!-- ast.Call object at 0x73b1284b9950 -->
<g id="node9" class="node">
<title>ast.Call object at 0x73b1284b9950</title>
<path fill="#66cdaa" stroke="black" d="M258,-180C258,-180 228,-180 228,-180 222,-180 216,-174 216,-168 216,-168 216,-156 216,-156 216,-150 222,-144 228,-144 228,-144 258,-144 258,-144 264,-144 270,-150 270,-156 270,-156 270,-168 270,-168 270,-174 264,-180 258,-180"/>
<text text-anchor="middle" x="243" y="-158.3" font-family="Times,serif" font-size="14.00">Call</text>
</g>
<!-- ast.ListComp object at 0x73b1284bb2d0&#45;&gt;ast.Call object at 0x73b1284b9950 -->
<g id="edge8" class="edge">
<title>ast.ListComp object at 0x73b1284bb2d0&#45;&gt;ast.Call object at 0x73b1284b9950</title>
<path fill="none" stroke="black" d="M414.48,-287.86C403.31,-277.5 388.81,-264.02 376,-252 359.04,-236.08 356.75,-229.77 338,-216 319.73,-202.57 297.69,-190.08 279.45,-180.6"/>
<polygon fill="black" stroke="black" points="280.79,-177.36 270.3,-175.93 277.61,-183.59 280.79,-177.36"/>
</g>
<!-- ast.comprehension object at 0x73b1284b9b50 -->
<g id="node13" class="node">
<title>ast.comprehension object at 0x73b1284b9b50</title>
<path fill="#66cdaa" stroke="black" d="M473,-252C473,-252 397,-252 397,-252 391,-252 385,-246 385,-240 385,-240 385,-228 385,-228 385,-222 391,-216 397,-216 397,-216 473,-216 473,-216 479,-216 485,-222 485,-228 485,-228 485,-240 485,-240 485,-246 479,-252 473,-252"/>
<text text-anchor="middle" x="435" y="-230.3" font-family="Times,serif" font-size="14.00">comprehension</text>
</g>
<!-- ast.ListComp object at 0x73b1284bb2d0&#45;&gt;ast.comprehension object at 0x73b1284b9b50 -->
<g id="edge13" class="edge">
<title>ast.ListComp object at 0x73b1284bb2d0&#45;&gt;ast.comprehension object at 0x73b1284b9b50</title>
<path fill="none" stroke="black" d="M433.49,-287.7C433.71,-279.98 433.98,-270.71 434.23,-262.11"/>
<polygon fill="black" stroke="black" points="437.72,-262.2 434.51,-252.1 430.73,-262 437.72,-262.2"/>
</g>
<!-- ast.Name object at 0x73b1284b99d0 -->
<g id="node10" class="node">
<title>ast.Name object at 0x73b1284b99d0</title>
<path fill="#66cdaa" stroke="black" d="M368,-108C368,-108 338,-108 338,-108 332,-108 326,-102 326,-96 326,-96 326,-84 326,-84 326,-78 332,-72 338,-72 338,-72 368,-72 368,-72 374,-72 380,-78 380,-84 380,-84 380,-96 380,-96 380,-102 374,-108 368,-108"/>
<text text-anchor="middle" x="353" y="-86.3" font-family="Times,serif" font-size="14.00">Name</text>
</g>
<!-- ast.Call object at 0x73b1284b9950&#45;&gt;ast.Name object at 0x73b1284b99d0 -->
<g id="edge9" class="edge">
<title>ast.Call object at 0x73b1284b9950&#45;&gt;ast.Name object at 0x73b1284b99d0</title>
<path fill="none" stroke="black" d="M269.91,-143.88C284.16,-134.81 301.85,-123.55 317.24,-113.76"/>
<polygon fill="black" stroke="black" points="319.43,-116.51 325.99,-108.19 315.67,-110.61 319.43,-116.51"/>
</g>
<!-- ast.Name object at 0x73b1284b9a50 -->
<g id="node12" class="node">
<title>ast.Name object at 0x73b1284b9a50</title>
<path fill="#66cdaa" stroke="black" d="M440,-108C440,-108 410,-108 410,-108 404,-108 398,-102 398,-96 398,-96 398,-84 398,-84 398,-78 404,-72 410,-72 410,-72 440,-72 440,-72 446,-72 452,-78 452,-84 452,-84 452,-96 452,-96 452,-102 446,-108 440,-108"/>
<text text-anchor="middle" x="425" y="-86.3" font-family="Times,serif" font-size="14.00">Name</text>
</g>
<!-- ast.Call object at 0x73b1284b9950&#45;&gt;ast.Name object at 0x73b1284b9a50 -->
<g id="edge11" class="edge">
<title>ast.Call object at 0x73b1284b9950&#45;&gt;ast.Name object at 0x73b1284b9a50</title>
<path fill="none" stroke="black" d="M270.36,-147.65C273.26,-146.36 276.17,-145.12 279,-144 323.99,-126.09 339.4,-126.85 388.14,-108.09"/>
<polygon fill="black" stroke="black" points="389.61,-111.27 397.64,-104.35 387.05,-104.76 389.61,-111.27"/>
</g>
<!-- ast.Load object at 0x73b1333c1990 -->
<g id="node11" class="node">
<title>ast.Load object at 0x73b1333c1990</title>
<path fill="#66cdaa" stroke="black" d="M495,-36C495,-36 465,-36 465,-36 459,-36 453,-30 453,-24 453,-24 453,-12 453,-12 453,-6 459,0 465,0 465,0 495,0 495,0 501,0 507,-6 507,-12 507,-12 507,-24 507,-24 507,-30 501,-36 495,-36"/>
<text text-anchor="middle" x="480" y="-14.3" font-family="Times,serif" font-size="14.00">Load</text>
</g>
<!-- ast.Name object at 0x73b1284b99d0&#45;&gt;ast.Load object at 0x73b1333c1990 -->
<g id="edge10" class="edge">
<title>ast.Name object at 0x73b1284b99d0&#45;&gt;ast.Load object at 0x73b1333c1990</title>
<path fill="none" stroke="black" d="M380.24,-73.98C398.83,-63.74 423.64,-50.07 443.87,-38.92"/>
<polygon fill="black" stroke="black" points="445.73,-41.88 452.8,-33.99 442.35,-35.75 445.73,-41.88"/>
</g>
<!-- ast.Name object at 0x73b1284b9a50&#45;&gt;ast.Load object at 0x73b1333c1990 -->
<g id="edge12" class="edge">
<title>ast.Name object at 0x73b1284b9a50&#45;&gt;ast.Load object at 0x73b1333c1990</title>
<path fill="none" stroke="black" d="M438.6,-71.7C445.12,-63.39 453.07,-53.28 460.25,-44.14"/>
<polygon fill="black" stroke="black" points="463.13,-46.13 466.56,-36.1 457.63,-41.81 463.13,-46.13"/>
</g>
<!-- ast.Name object at 0x73b1284b9b90 -->
<g id="node14" class="node">
<title>ast.Name object at 0x73b1284b9b90</title>
<path fill="#66cdaa" stroke="black" d="M474,-180C474,-180 444,-180 444,-180 438,-180 432,-174 432,-168 432,-168 432,-156 432,-156 432,-150 438,-144 444,-144 444,-144 474,-144 474,-144 480,-144 486,-150 486,-156 486,-156 486,-168 486,-168 486,-174 480,-180 474,-180"/>
<text text-anchor="middle" x="459" y="-158.3" font-family="Times,serif" font-size="14.00">Name</text>
</g>
<!-- ast.comprehension object at 0x73b1284b9b50&#45;&gt;ast.Name object at 0x73b1284b9b90 -->
<g id="edge14" class="edge">
<title>ast.comprehension object at 0x73b1284b9b50&#45;&gt;ast.Name object at 0x73b1284b9b90</title>
<path fill="none" stroke="black" d="M440.93,-215.7C443.61,-207.9 446.83,-198.51 449.8,-189.83"/>
<polygon fill="black" stroke="black" points="453.2,-190.7 453.14,-180.1 446.58,-188.43 453.2,-190.7"/>
</g>
<!-- ast.Name object at 0x73b1284bb350 -->
<g id="node15" class="node">
<title>ast.Name object at 0x73b1284bb350</title>
<path fill="#66cdaa" stroke="black" d="M330,-180C330,-180 300,-180 300,-180 294,-180 288,-174 288,-168 288,-168 288,-156 288,-156 288,-150 294,-144 300,-144 300,-144 330,-144 330,-144 336,-144 342,-150 342,-156 342,-156 342,-168 342,-168 342,-174 336,-180 330,-180"/>
<text text-anchor="middle" x="315" y="-158.3" font-family="Times,serif" font-size="14.00">Name</text>
</g>
<!-- ast.comprehension object at 0x73b1284b9b50&#45;&gt;ast.Name object at 0x73b1284bb350 -->
<g id="edge16" class="edge">
<title>ast.comprehension object at 0x73b1284b9b50&#45;&gt;ast.Name object at 0x73b1284bb350</title>
<path fill="none" stroke="black" d="M405.64,-215.88C389.1,-206.23 368.31,-194.1 350.81,-183.89"/>
<polygon fill="black" stroke="black" points="352.4,-180.77 342,-178.75 348.87,-186.81 352.4,-180.77"/>
</g>
<!-- ast.Name object at 0x73b1284b9b90&#45;&gt;ast.Store object at 0x73b1333c1a10 -->
<g id="edge15" class="edge">
<title>ast.Name object at 0x73b1284b9b90&#45;&gt;ast.Store object at 0x73b1333c1a10</title>
<path fill="none" stroke="black" d="M477.79,-143.7C487.17,-135.05 498.68,-124.45 508.91,-115.03"/>
<polygon fill="black" stroke="black" points="511.45,-117.45 516.43,-108.1 506.7,-112.3 511.45,-117.45"/>
</g>
<!-- ast.Name object at 0x73b1284bb350&#45;&gt;ast.Load object at 0x73b1333c1990 -->
<g id="edge17" class="edge">
<title>ast.Name object at 0x73b1284bb350&#45;&gt;ast.Load object at 0x73b1333c1990</title>
<path fill="none" stroke="black" d="M342.36,-147.65C345.26,-146.36 348.17,-145.12 351,-144 398.8,-124.98 426.6,-146.25 461,-108 475.98,-91.35 480.19,-65.85 480.97,-46.41"/>
<polygon fill="black" stroke="black" points="484.47,-46.37 481.1,-36.32 477.47,-46.28 484.47,-46.37"/>
</g>
<!-- ast.Name object at 0x73b1284b9bd0 -->
<g id="node17" class="node">
<title>ast.Name object at 0x73b1284b9bd0</title>
<path fill="#66cdaa" stroke="black" d="M698,-252C698,-252 668,-252 668,-252 662,-252 656,-246 656,-240 656,-240 656,-228 656,-228 656,-222 662,-216 668,-216 668,-216 698,-216 698,-216 704,-216 710,-222 710,-228 710,-228 710,-240 710,-240 710,-246 704,-252 698,-252"/>
<text text-anchor="middle" x="683" y="-230.3" font-family="Times,serif" font-size="14.00">Name</text>
</g>
<!-- ast.Assign object at 0x73b1284ba390&#45;&gt;ast.Name object at 0x73b1284b9bd0 -->
<g id="edge19" class="edge">
<title>ast.Assign object at 0x73b1284ba390&#45;&gt;ast.Name object at 0x73b1284b9bd0</title>
<path fill="none" stroke="black" d="M695.8,-287.7C693.9,-279.9 691.62,-270.51 689.52,-261.83"/>
<polygon fill="black" stroke="black" points="692.92,-261 687.15,-252.1 686.11,-262.65 692.92,-261"/>
</g>
<!-- ast.Call object at 0x73b1284b9c10 -->
<g id="node18" class="node">
<title>ast.Call object at 0x73b1284b9c10</title>
<path fill="#66cdaa" stroke="black" d="M770,-252C770,-252 740,-252 740,-252 734,-252 728,-246 728,-240 728,-240 728,-228 728,-228 728,-222 734,-216 740,-216 740,-216 770,-216 770,-216 776,-216 782,-222 782,-228 782,-228 782,-240 782,-240 782,-246 776,-252 770,-252"/>
<text text-anchor="middle" x="755" y="-230.3" font-family="Times,serif" font-size="14.00">Call</text>
</g>
<!-- ast.Assign object at 0x73b1284ba390&#45;&gt;ast.Call object at 0x73b1284b9c10 -->
<g id="edge21" class="edge">
<title>ast.Assign object at 0x73b1284ba390&#45;&gt;ast.Call object at 0x73b1284b9c10</title>
<path fill="none" stroke="black" d="M713.6,-287.7C720.12,-279.39 728.07,-269.28 735.25,-260.14"/>
<polygon fill="black" stroke="black" points="738.13,-262.13 741.56,-252.1 732.63,-257.81 738.13,-262.13"/>
</g>
<!-- ast.Name object at 0x73b1284b9bd0&#45;&gt;ast.Store object at 0x73b1333c1a10 -->
<g id="edge20" class="edge">
<title>ast.Name object at 0x73b1284b9bd0&#45;&gt;ast.Store object at 0x73b1333c1a10</title>
<path fill="none" stroke="black" d="M665.15,-215.87C639.03,-190.82 590.29,-144.05 560.44,-115.41"/>
<polygon fill="black" stroke="black" points="562.55,-112.59 552.92,-108.19 557.71,-117.64 562.55,-112.59"/>
</g>
<!-- ast.Name object at 0x73b1284b9c50 -->
<g id="node19" class="node">
<title>ast.Name object at 0x73b1284b9c50</title>
<path fill="#66cdaa" stroke="black" d="M698,-180C698,-180 668,-180 668,-180 662,-180 656,-174 656,-168 656,-168 656,-156 656,-156 656,-150 662,-144 668,-144 668,-144 698,-144 698,-144 704,-144 710,-150 710,-156 710,-156 710,-168 710,-168 710,-174 704,-180 698,-180"/>
<text text-anchor="middle" x="683" y="-158.3" font-family="Times,serif" font-size="14.00">Name</text>
</g>
<!-- ast.Call object at 0x73b1284b9c10&#45;&gt;ast.Name object at 0x73b1284b9c50 -->
<g id="edge22" class="edge">
<title>ast.Call object at 0x73b1284b9c10&#45;&gt;ast.Name object at 0x73b1284b9c50</title>
<path fill="none" stroke="black" d="M737.2,-215.7C728.4,-207.14 717.62,-196.66 708,-187.3"/>
<polygon fill="black" stroke="black" points="710.2,-184.57 700.59,-180.1 705.32,-189.58 710.2,-184.57"/>
</g>
<!-- ast.Call object at 0x73b1284b9cd0 -->
<g id="node20" class="node">
<title>ast.Call object at 0x73b1284b9cd0</title>
<path fill="#66cdaa" stroke="black" d="M770,-180C770,-180 740,-180 740,-180 734,-180 728,-174 728,-168 728,-168 728,-156 728,-156 728,-150 734,-144 740,-144 740,-144 770,-144 770,-144 776,-144 782,-150 782,-156 782,-156 782,-168 782,-168 782,-174 776,-180 770,-180"/>
<text text-anchor="middle" x="755" y="-158.3" font-family="Times,serif" font-size="14.00">Call</text>
</g>
<!-- ast.Call object at 0x73b1284b9c10&#45;&gt;ast.Call object at 0x73b1284b9cd0 -->
<g id="edge24" class="edge">
<title>ast.Call object at 0x73b1284b9c10&#45;&gt;ast.Call object at 0x73b1284b9cd0</title>
<path fill="none" stroke="black" d="M755,-215.7C755,-207.98 755,-198.71 755,-190.11"/>
<polygon fill="black" stroke="black" points="758.5,-190.1 755,-180.1 751.5,-190.1 758.5,-190.1"/>
</g>
<!-- ast.Name object at 0x73b1284b9c50&#45;&gt;ast.Load object at 0x73b1333c1990 -->
<g id="edge23" class="edge">
<title>ast.Name object at 0x73b1284b9c50&#45;&gt;ast.Load object at 0x73b1333c1990</title>
<path fill="none" stroke="black" d="M671.4,-143.87C657.38,-124.28 632.16,-92.29 604,-72 577.51,-52.91 543.07,-38.89 517.21,-30.08"/>
<polygon fill="black" stroke="black" points="518,-26.65 507.41,-26.85 515.81,-33.3 518,-26.65"/>
</g>
<!-- ast.Name object at 0x73b1284bb390 -->
<g id="node21" class="node">
<title>ast.Name object at 0x73b1284bb390</title>
<path fill="#66cdaa" stroke="black" d="M698,-108C698,-108 668,-108 668,-108 662,-108 656,-102 656,-96 656,-96 656,-84 656,-84 656,-78 662,-72 668,-72 668,-72 698,-72 698,-72 704,-72 710,-78 710,-84 710,-84 710,-96 710,-96 710,-102 704,-108 698,-108"/>
<text text-anchor="middle" x="683" y="-86.3" font-family="Times,serif" font-size="14.00">Name</text>
</g>
<!-- ast.Call object at 0x73b1284b9cd0&#45;&gt;ast.Name object at 0x73b1284bb390 -->
<g id="edge25" class="edge">
<title>ast.Call object at 0x73b1284b9cd0&#45;&gt;ast.Name object at 0x73b1284bb390</title>
<path fill="none" stroke="black" d="M737.2,-143.7C728.4,-135.14 717.62,-124.66 708,-115.3"/>
<polygon fill="black" stroke="black" points="710.2,-112.57 700.59,-108.1 705.32,-117.58 710.2,-112.57"/>
</g>
<!-- ast.Name object at 0x73b1284b9d10 -->
<g id="node22" class="node">
<title>ast.Name object at 0x73b1284b9d10</title>
<path fill="#66cdaa" stroke="black" d="M770,-108C770,-108 740,-108 740,-108 734,-108 728,-102 728,-96 728,-96 728,-84 728,-84 728,-78 734,-72 740,-72 740,-72 770,-72 770,-72 776,-72 782,-78 782,-84 782,-84 782,-96 782,-96 782,-102 776,-108 770,-108"/>
<text text-anchor="middle" x="755" y="-86.3" font-family="Times,serif" font-size="14.00">Name</text>
</g>
<!-- ast.Call object at 0x73b1284b9cd0&#45;&gt;ast.Name object at 0x73b1284b9d10 -->
<g id="edge27" class="edge">
<title>ast.Call object at 0x73b1284b9cd0&#45;&gt;ast.Name object at 0x73b1284b9d10</title>
<path fill="none" stroke="black" d="M755,-143.7C755,-135.98 755,-126.71 755,-118.11"/>
<polygon fill="black" stroke="black" points="758.5,-118.1 755,-108.1 751.5,-118.1 758.5,-118.1"/>
</g>
<!-- ast.Name object at 0x73b1284bb390&#45;&gt;ast.Load object at 0x73b1333c1990 -->
<g id="edge26" class="edge">
<title>ast.Name object at 0x73b1284bb390&#45;&gt;ast.Load object at 0x73b1333c1990</title>
<path fill="none" stroke="black" d="M655.77,-77.37C651.2,-75.51 646.48,-73.66 642,-72 599.5,-56.26 549.87,-40.39 516.85,-30.17"/>
<polygon fill="black" stroke="black" points="517.75,-26.78 507.16,-27.19 515.69,-33.47 517.75,-26.78"/>
</g>
<!-- ast.Name object at 0x73b1284b9d10&#45;&gt;ast.Load object at 0x73b1333c1990 -->
<g id="edge28" class="edge">
<title>ast.Name object at 0x73b1284b9d10&#45;&gt;ast.Load object at 0x73b1333c1990</title>
<path fill="none" stroke="black" d="M727.74,-75.36C724.83,-74.13 721.88,-72.98 719,-72 649.46,-48.21 564.82,-32.37 517.21,-24.6"/>
<polygon fill="black" stroke="black" points="517.49,-21.11 507.06,-22.98 516.38,-28.02 517.49,-21.11"/>
</g>
<!-- ast.Call object at 0x73b1284b9d90 -->
<g id="node24" class="node">
<title>ast.Call object at 0x73b1284b9d90</title>
<path fill="#66cdaa" stroke="black" d="M861,-252C861,-252 831,-252 831,-252 825,-252 819,-246 819,-240 819,-240 819,-228 819,-228 819,-222 825,-216 831,-216 831,-216 861,-216 861,-216 867,-216 873,-222 873,-228 873,-228 873,-240 873,-240 873,-246 867,-252 861,-252"/>
<text text-anchor="middle" x="846" y="-230.3" font-family="Times,serif" font-size="14.00">Call</text>
</g>
<!-- ast.Expr object at 0x73b1284b9d50&#45;&gt;ast.Call object at 0x73b1284b9d90 -->
<g id="edge30" class="edge">
<title>ast.Expr object at 0x73b1284b9d50&#45;&gt;ast.Call object at 0x73b1284b9d90</title>
<path fill="none" stroke="black" d="M765.1,-359.87C781.05,-335.24 810.6,-289.64 829.23,-260.88"/>
<polygon fill="black" stroke="black" points="832.36,-262.48 834.86,-252.19 826.49,-258.68 832.36,-262.48"/>
</g>
<!-- ast.Attribute object at 0x73b1284b9e10 -->
<g id="node25" class="node">
<title>ast.Attribute object at 0x73b1284b9e10</title>
<path fill="#66cdaa" stroke="black" d="M866.5,-180C866.5,-180 825.5,-180 825.5,-180 819.5,-180 813.5,-174 813.5,-168 813.5,-168 813.5,-156 813.5,-156 813.5,-150 819.5,-144 825.5,-144 825.5,-144 866.5,-144 866.5,-144 872.5,-144 878.5,-150 878.5,-156 878.5,-156 878.5,-168 878.5,-168 878.5,-174 872.5,-180 866.5,-180"/>
<text text-anchor="middle" x="846" y="-158.3" font-family="Times,serif" font-size="14.00">Attribute</text>
</g>
<!-- ast.Call object at 0x73b1284b9d90&#45;&gt;ast.Attribute object at 0x73b1284b9e10 -->
<g id="edge31" class="edge">
<title>ast.Call object at 0x73b1284b9d90&#45;&gt;ast.Attribute object at 0x73b1284b9e10</title>
<path fill="none" stroke="black" d="M846,-215.7C846,-207.98 846,-198.71 846,-190.11"/>
<polygon fill="black" stroke="black" points="849.5,-190.1 846,-180.1 842.5,-190.1 849.5,-190.1"/>
</g>
<!-- ast.keyword object at 0x73b1284ba2d0 -->
<g id="node27" class="node">
<title>ast.keyword object at 0x73b1284ba2d0</title>
<path fill="#66cdaa" stroke="black" d="M956,-180C956,-180 916,-180 916,-180 910,-180 904,-174 904,-168 904,-168 904,-156 904,-156 904,-150 910,-144 916,-144 916,-144 956,-144 956,-144 962,-144 968,-150 968,-156 968,-156 968,-168 968,-168 968,-174 962,-180 956,-180"/>
<text text-anchor="middle" x="936" y="-158.3" font-family="Times,serif" font-size="14.00">keyword</text>
</g>
<!-- ast.Call object at 0x73b1284b9d90&#45;&gt;ast.keyword object at 0x73b1284ba2d0 -->
<g id="edge35" class="edge">
<title>ast.Call object at 0x73b1284b9d90&#45;&gt;ast.keyword object at 0x73b1284ba2d0</title>
<path fill="none" stroke="black" d="M868.25,-215.7C879.58,-206.88 893.53,-196.03 905.82,-186.47"/>
<polygon fill="black" stroke="black" points="908.26,-189.01 914.01,-180.1 903.97,-183.48 908.26,-189.01"/>
</g>
<!-- ast.Attribute object at 0x73b1284b9e10&#45;&gt;ast.Load object at 0x73b1333c1990 -->
<g id="edge34" class="edge">
<title>ast.Attribute object at 0x73b1284b9e10&#45;&gt;ast.Load object at 0x73b1333c1990</title>
<path fill="none" stroke="black" d="M840.35,-143.82C832.64,-123.24 816.76,-89.36 791,-72 746.74,-42.17 589.59,-27.04 517.11,-21.52"/>
<polygon fill="black" stroke="black" points="517.29,-18.02 507.06,-20.77 516.77,-25 517.29,-18.02"/>
</g>
<!-- ast.Name object at 0x73b1284ba290 -->
<g id="node26" class="node">
<title>ast.Name object at 0x73b1284ba290</title>
<path fill="#66cdaa" stroke="black" d="M880,-108C880,-108 850,-108 850,-108 844,-108 838,-102 838,-96 838,-96 838,-84 838,-84 838,-78 844,-72 850,-72 850,-72 880,-72 880,-72 886,-72 892,-78 892,-84 892,-84 892,-96 892,-96 892,-102 886,-108 880,-108"/>
<text text-anchor="middle" x="865" y="-86.3" font-family="Times,serif" font-size="14.00">Name</text>
</g>
<!-- ast.Attribute object at 0x73b1284b9e10&#45;&gt;ast.Name object at 0x73b1284ba290 -->
<g id="edge32" class="edge">
<title>ast.Attribute object at 0x73b1284b9e10&#45;&gt;ast.Name object at 0x73b1284ba290</title>
<path fill="none" stroke="black" d="M850.7,-143.7C852.81,-135.9 855.36,-126.51 857.72,-117.83"/>
<polygon fill="black" stroke="black" points="861.12,-118.67 860.36,-108.1 854.36,-116.84 861.12,-118.67"/>
</g>
<!-- ast.Name object at 0x73b1284ba290&#45;&gt;ast.Load object at 0x73b1333c1990 -->
<g id="edge33" class="edge">
<title>ast.Name object at 0x73b1284ba290&#45;&gt;ast.Load object at 0x73b1333c1990</title>
<path fill="none" stroke="black" d="M837.98,-76.73C833.38,-74.95 828.6,-73.29 824,-72 714.86,-41.45 580.99,-27.21 517.21,-21.79"/>
<polygon fill="black" stroke="black" points="517.48,-18.3 507.23,-20.96 516.91,-25.27 517.48,-18.3"/>
</g>
<!-- ast.Constant object at 0x73b1284ba350 -->
<g id="node28" class="node">
<title>ast.Constant object at 0x73b1284ba350</title>
<path fill="#66cdaa" stroke="black" d="M963.5,-108C963.5,-108 922.5,-108 922.5,-108 916.5,-108 910.5,-102 910.5,-96 910.5,-96 910.5,-84 910.5,-84 910.5,-78 916.5,-72 922.5,-72 922.5,-72 963.5,-72 963.5,-72 969.5,-72 975.5,-78 975.5,-84 975.5,-84 975.5,-96 975.5,-96 975.5,-102 969.5,-108 963.5,-108"/>
<text text-anchor="middle" x="943" y="-86.3" font-family="Times,serif" font-size="14.00">Constant</text>
</g>
<!-- ast.keyword object at 0x73b1284ba2d0&#45;&gt;ast.Constant object at 0x73b1284ba350 -->
<g id="edge36" class="edge">
<title>ast.keyword object at 0x73b1284ba2d0&#45;&gt;ast.Constant object at 0x73b1284ba350</title>
<path fill="none" stroke="black" d="M937.73,-143.7C938.5,-135.98 939.43,-126.71 940.29,-118.11"/>
<polygon fill="black" stroke="black" points="943.78,-118.4 941.29,-108.1 936.81,-117.71 943.78,-118.4"/>
</g>
<!-- ast.Name object at 0x73b1284ba410 -->
<g id="node30" class="node">
<title>ast.Name object at 0x73b1284ba410</title>
<path fill="#66cdaa" stroke="black" d="M529,-324C529,-324 499,-324 499,-324 493,-324 487,-318 487,-312 487,-312 487,-300 487,-300 487,-294 493,-288 499,-288 499,-288 529,-288 529,-288 535,-288 541,-294 541,-300 541,-300 541,-312 541,-312 541,-318 535,-324 529,-324"/>
<text text-anchor="middle" x="514" y="-302.3" font-family="Times,serif" font-size="14.00">Name</text>
</g>
<!-- ast.Assign object at 0x73b1284b3cd0&#45;&gt;ast.Name object at 0x73b1284ba410 -->
<g id="edge38" class="edge">
<title>ast.Assign object at 0x73b1284b3cd0&#45;&gt;ast.Name object at 0x73b1284ba410</title>
<path fill="none" stroke="black" d="M494.43,-359.7C497.36,-351.81 500.89,-342.3 504.14,-333.55"/>
<polygon fill="black" stroke="black" points="507.45,-334.7 507.65,-324.1 500.88,-332.26 507.45,-334.7"/>
</g>
<!-- ast.ListComp object at 0x73b1284ba490 -->
<g id="node31" class="node">
<title>ast.ListComp object at 0x73b1284ba490</title>
<path fill="#66cdaa" stroke="black" d="M334.5,-324C334.5,-324 287.5,-324 287.5,-324 281.5,-324 275.5,-318 275.5,-312 275.5,-312 275.5,-300 275.5,-300 275.5,-294 281.5,-288 287.5,-288 287.5,-288 334.5,-288 334.5,-288 340.5,-288 346.5,-294 346.5,-300 346.5,-300 346.5,-312 346.5,-312 346.5,-318 340.5,-324 334.5,-324"/>
<text text-anchor="middle" x="311" y="-302.3" font-family="Times,serif" font-size="14.00">ListComp</text>
</g>
<!-- ast.Assign object at 0x73b1284b3cd0&#45;&gt;ast.ListComp object at 0x73b1284ba490 -->
<g id="edge40" class="edge">
<title>ast.Assign object at 0x73b1284b3cd0&#45;&gt;ast.ListComp object at 0x73b1284ba490</title>
<path fill="none" stroke="black" d="M460.73,-366.22C432.84,-355.19 389.04,-337.86 356,-324.8"/>
<polygon fill="black" stroke="black" points="357.14,-321.48 346.56,-321.06 354.57,-327.99 357.14,-321.48"/>
</g>
<!-- ast.Name object at 0x73b1284ba410&#45;&gt;ast.Store object at 0x73b1333c1a10 -->
<g id="edge39" class="edge">
<title>ast.Name object at 0x73b1284ba410&#45;&gt;ast.Store object at 0x73b1333c1a10</title>
<path fill="none" stroke="black" d="M515.68,-287.85C519.32,-250.83 527.92,-163.18 532.31,-118.39"/>
<polygon fill="black" stroke="black" points="535.82,-118.53 533.31,-108.23 528.85,-117.84 535.82,-118.53"/>
</g>
<!-- ast.Call object at 0x73b1284ba4d0 -->
<g id="node32" class="node">
<title>ast.Call object at 0x73b1284ba4d0</title>
<path fill="#66cdaa" stroke="black" d="M100,-180C100,-180 70,-180 70,-180 64,-180 58,-174 58,-168 58,-168 58,-156 58,-156 58,-150 64,-144 70,-144 70,-144 100,-144 100,-144 106,-144 112,-150 112,-156 112,-156 112,-168 112,-168 112,-174 106,-180 100,-180"/>
<text text-anchor="middle" x="85" y="-158.3" font-family="Times,serif" font-size="14.00">Call</text>
</g>
<!-- ast.ListComp object at 0x73b1284ba490&#45;&gt;ast.Call object at 0x73b1284ba4d0 -->
<g id="edge41" class="edge">
<title>ast.ListComp object at 0x73b1284ba490&#45;&gt;ast.Call object at 0x73b1284ba4d0</title>
<path fill="none" stroke="black" d="M280.83,-287.99C262.99,-277.79 240.04,-264.43 220,-252 184.91,-230.24 145.58,-204.1 118.46,-185.81"/>
<polygon fill="black" stroke="black" points="120.35,-182.86 110.11,-180.15 116.43,-188.66 120.35,-182.86"/>
</g>
<!-- ast.comprehension object at 0x73b1284ba590 -->
<g id="node35" class="node">
<title>ast.comprehension object at 0x73b1284ba590</title>
<path fill="#66cdaa" stroke="black" d="M317,-252C317,-252 241,-252 241,-252 235,-252 229,-246 229,-240 229,-240 229,-228 229,-228 229,-222 235,-216 241,-216 241,-216 317,-216 317,-216 323,-216 329,-222 329,-228 329,-228 329,-240 329,-240 329,-246 323,-252 317,-252"/>
<text text-anchor="middle" x="279" y="-230.3" font-family="Times,serif" font-size="14.00">comprehension</text>
</g>
<!-- ast.ListComp object at 0x73b1284ba490&#45;&gt;ast.comprehension object at 0x73b1284ba590 -->
<g id="edge46" class="edge">
<title>ast.ListComp object at 0x73b1284ba490&#45;&gt;ast.comprehension object at 0x73b1284ba590</title>
<path fill="none" stroke="black" d="M303.09,-287.7C299.45,-279.73 295.05,-270.1 291.01,-261.26"/>
<polygon fill="black" stroke="black" points="294.16,-259.74 286.82,-252.1 287.79,-262.65 294.16,-259.74"/>
</g>
<!-- ast.Name object at 0x73b1284ba550 -->
<g id="node33" class="node">
<title>ast.Name object at 0x73b1284ba550</title>
<path fill="#66cdaa" stroke="black" d="M186,-108C186,-108 156,-108 156,-108 150,-108 144,-102 144,-96 144,-96 144,-84 144,-84 144,-78 150,-72 156,-72 156,-72 186,-72 186,-72 192,-72 198,-78 198,-84 198,-84 198,-96 198,-96 198,-102 192,-108 186,-108"/>
<text text-anchor="middle" x="171" y="-86.3" font-family="Times,serif" font-size="14.00">Name</text>
</g>
<!-- ast.Call object at 0x73b1284ba4d0&#45;&gt;ast.Name object at 0x73b1284ba550 -->
<g id="edge42" class="edge">
<title>ast.Call object at 0x73b1284ba4d0&#45;&gt;ast.Name object at 0x73b1284ba550</title>
<path fill="none" stroke="black" d="M106.26,-143.7C117.09,-134.88 130.42,-124.03 142.16,-114.47"/>
<polygon fill="black" stroke="black" points="144.44,-117.13 149.99,-108.1 140.02,-111.7 144.44,-117.13"/>
</g>
<!-- ast.Name object at 0x73b1284bb3d0 -->
<g id="node34" class="node">
<title>ast.Name object at 0x73b1284bb3d0</title>
<path fill="#66cdaa" stroke="black" d="M42,-108C42,-108 12,-108 12,-108 6,-108 0,-102 0,-96 0,-96 0,-84 0,-84 0,-78 6,-72 12,-72 12,-72 42,-72 42,-72 48,-72 54,-78 54,-84 54,-84 54,-96 54,-96 54,-102 48,-108 42,-108"/>
<text text-anchor="middle" x="27" y="-86.3" font-family="Times,serif" font-size="14.00">Name</text>
</g>
<!-- ast.Call object at 0x73b1284ba4d0&#45;&gt;ast.Name object at 0x73b1284bb3d0 -->
<g id="edge44" class="edge">
<title>ast.Call object at 0x73b1284ba4d0&#45;&gt;ast.Name object at 0x73b1284bb3d0</title>
<path fill="none" stroke="black" d="M70.66,-143.7C63.71,-135.3 55.23,-125.07 47.6,-115.86"/>
<polygon fill="black" stroke="black" points="50.25,-113.57 41.17,-108.1 44.86,-118.04 50.25,-113.57"/>
</g>
<!-- ast.Name object at 0x73b1284ba550&#45;&gt;ast.Load object at 0x73b1333c1990 -->
<g id="edge43" class="edge">
<title>ast.Name object at 0x73b1284ba550&#45;&gt;ast.Load object at 0x73b1333c1990</title>
<path fill="none" stroke="black" d="M198.23,-75.28C201.15,-74.07 204.11,-72.95 207,-72 288.94,-45.17 389.42,-29.98 442.69,-23.25"/>
<polygon fill="black" stroke="black" points="443.2,-26.71 452.7,-22.01 442.34,-19.76 443.2,-26.71"/>
</g>
<!-- ast.Name object at 0x73b1284bb3d0&#45;&gt;ast.Load object at 0x73b1333c1990 -->
<g id="edge45" class="edge">
<title>ast.Name object at 0x73b1284bb3d0&#45;&gt;ast.Load object at 0x73b1333c1990</title>
<path fill="none" stroke="black" d="M54.17,-75.09C57.1,-73.91 60.08,-72.85 63,-72 199.05,-32.32 368.66,-22.34 442.61,-19.84"/>
<polygon fill="black" stroke="black" points="442.93,-23.33 452.82,-19.52 442.71,-16.33 442.93,-23.33"/>
</g>
<!-- ast.Name object at 0x73b1284ba690 -->
<g id="node36" class="node">
<title>ast.Name object at 0x73b1284ba690</title>
<path fill="#66cdaa" stroke="black" d="M402,-180C402,-180 372,-180 372,-180 366,-180 360,-174 360,-168 360,-168 360,-156 360,-156 360,-150 366,-144 372,-144 372,-144 402,-144 402,-144 408,-144 414,-150 414,-156 414,-156 414,-168 414,-168 414,-174 408,-180 402,-180"/>
<text text-anchor="middle" x="387" y="-158.3" font-family="Times,serif" font-size="14.00">Name</text>
</g>
<!-- ast.comprehension object at 0x73b1284ba590&#45;&gt;ast.Name object at 0x73b1284ba690 -->
<g id="edge47" class="edge">
<title>ast.comprehension object at 0x73b1284ba590&#45;&gt;ast.Name object at 0x73b1284ba690</title>
<path fill="none" stroke="black" d="M305.42,-215.88C319.41,-206.81 336.78,-195.55 351.89,-185.76"/>
<polygon fill="black" stroke="black" points="353.99,-188.57 360.48,-180.19 350.18,-182.69 353.99,-188.57"/>
</g>
<!-- ast.Subscript object at 0x73b1284ba710 -->
<g id="node37" class="node">
<title>ast.Subscript object at 0x73b1284ba710</title>
<path fill="#66cdaa" stroke="black" d="M186,-180C186,-180 142,-180 142,-180 136,-180 130,-174 130,-168 130,-168 130,-156 130,-156 130,-150 136,-144 142,-144 142,-144 186,-144 186,-144 192,-144 198,-150 198,-156 198,-156 198,-168 198,-168 198,-174 192,-180 186,-180"/>
<text text-anchor="middle" x="164" y="-158.3" font-family="Times,serif" font-size="14.00">Subscript</text>
</g>
<!-- ast.comprehension object at 0x73b1284ba590&#45;&gt;ast.Subscript object at 0x73b1284ba710 -->
<g id="edge49" class="edge">
<title>ast.comprehension object at 0x73b1284ba590&#45;&gt;ast.Subscript object at 0x73b1284ba710</title>
<path fill="none" stroke="black" d="M250.87,-215.88C235.83,-206.72 217.13,-195.34 200.94,-185.48"/>
<polygon fill="black" stroke="black" points="202.6,-182.4 192.24,-180.19 198.96,-188.38 202.6,-182.4"/>
</g>
<!-- ast.Name object at 0x73b1284ba690&#45;&gt;ast.Store object at 0x73b1333c1a10 -->
<g id="edge48" class="edge">
<title>ast.Name object at 0x73b1284ba690&#45;&gt;ast.Store object at 0x73b1333c1a10</title>
<path fill="none" stroke="black" d="M414.15,-148.16C437.85,-136.95 472.46,-120.58 498.58,-108.23"/>
<polygon fill="black" stroke="black" points="500.23,-111.32 507.78,-103.88 497.24,-104.99 500.23,-111.32"/>
</g>
<!-- ast.Subscript object at 0x73b1284ba710&#45;&gt;ast.Load object at 0x73b1333c1990 -->
<g id="edge54" class="edge">
<title>ast.Subscript object at 0x73b1284ba710&#45;&gt;ast.Load object at 0x73b1333c1990</title>
<path fill="none" stroke="black" d="M198.11,-146.74C226.72,-134.52 265.07,-117.43 279,-108 298.26,-94.96 297,-83.89 317,-72 356.75,-48.37 408.32,-33.89 442.7,-26.17"/>
<polygon fill="black" stroke="black" points="443.75,-29.52 452.78,-23.99 442.27,-22.68 443.75,-29.52"/>
</g>
<!-- ast.Name object at 0x73b1284ba750 -->
<g id="node38" class="node">
<title>ast.Name object at 0x73b1284ba750</title>
<path fill="#66cdaa" stroke="black" d="M258,-108C258,-108 228,-108 228,-108 222,-108 216,-102 216,-96 216,-96 216,-84 216,-84 216,-78 222,-72 228,-72 228,-72 258,-72 258,-72 264,-72 270,-78 270,-84 270,-84 270,-96 270,-96 270,-102 264,-108 258,-108"/>
<text text-anchor="middle" x="243" y="-86.3" font-family="Times,serif" font-size="14.00">Name</text>
</g>
<!-- ast.Subscript object at 0x73b1284ba710&#45;&gt;ast.Name object at 0x73b1284ba750 -->
<g id="edge50" class="edge">
<title>ast.Subscript object at 0x73b1284ba710&#45;&gt;ast.Name object at 0x73b1284ba750</title>
<path fill="none" stroke="black" d="M183.53,-143.7C193.38,-134.97 205.49,-124.24 216.2,-114.75"/>
<polygon fill="black" stroke="black" points="218.53,-117.36 223.7,-108.1 213.89,-112.12 218.53,-117.36"/>
</g>
<!-- ast.Slice object at 0x73b1284baa90 -->
<g id="node39" class="node">
<title>ast.Slice object at 0x73b1284baa90</title>
<path fill="#66cdaa" stroke="black" d="M114,-108C114,-108 84,-108 84,-108 78,-108 72,-102 72,-96 72,-96 72,-84 72,-84 72,-78 78,-72 84,-72 84,-72 114,-72 114,-72 120,-72 126,-78 126,-84 126,-84 126,-96 126,-96 126,-102 120,-108 114,-108"/>
<text text-anchor="middle" x="99" y="-86.3" font-family="Times,serif" font-size="14.00">Slice</text>
</g>
<!-- ast.Subscript object at 0x73b1284ba710&#45;&gt;ast.Slice object at 0x73b1284baa90 -->
<g id="edge52" class="edge">
<title>ast.Subscript object at 0x73b1284ba710&#45;&gt;ast.Slice object at 0x73b1284baa90</title>
<path fill="none" stroke="black" d="M147.93,-143.7C140.06,-135.22 130.44,-124.86 121.83,-115.58"/>
<polygon fill="black" stroke="black" points="124.25,-113.05 114.88,-108.1 119.12,-117.81 124.25,-113.05"/>
</g>
<!-- ast.Name object at 0x73b1284ba750&#45;&gt;ast.Load object at 0x73b1333c1990 -->
<g id="edge51" class="edge">
<title>ast.Name object at 0x73b1284ba750&#45;&gt;ast.Load object at 0x73b1333c1990</title>
<path fill="none" stroke="black" d="M270.16,-77.16C274.74,-75.33 279.48,-73.54 284,-72 338.48,-53.43 403.2,-36.98 442.93,-27.51"/>
<polygon fill="black" stroke="black" points="443.79,-30.9 452.72,-25.2 442.18,-24.09 443.79,-30.9"/>
</g>
<!-- ast.Constant object at 0x73b1284baad0 -->
<g id="node40" class="node">
<title>ast.Constant object at 0x73b1284baad0</title>
<path fill="#66cdaa" stroke="black" d="M119.5,-36C119.5,-36 78.5,-36 78.5,-36 72.5,-36 66.5,-30 66.5,-24 66.5,-24 66.5,-12 66.5,-12 66.5,-6 72.5,0 78.5,0 78.5,0 119.5,0 119.5,0 125.5,0 131.5,-6 131.5,-12 131.5,-12 131.5,-24 131.5,-24 131.5,-30 125.5,-36 119.5,-36"/>
<text text-anchor="middle" x="99" y="-14.3" font-family="Times,serif" font-size="14.00">Constant</text>
</g>
<!-- ast.Slice object at 0x73b1284baa90&#45;&gt;ast.Constant object at 0x73b1284baad0 -->
<g id="edge53" class="edge">
<title>ast.Slice object at 0x73b1284baa90&#45;&gt;ast.Constant object at 0x73b1284baad0</title>
<path fill="none" stroke="black" d="M99,-71.7C99,-63.98 99,-54.71 99,-46.11"/>
<polygon fill="black" stroke="black" points="102.5,-46.1 99,-36.1 95.5,-46.1 102.5,-46.1"/>
</g>
<!-- ast.Name object at 0x73b1284bac10 -->
<g id="node42" class="node">
<title>ast.Name object at 0x73b1284bac10</title>
<path fill="#66cdaa" stroke="black" d="M643,-324C643,-324 613,-324 613,-324 607,-324 601,-318 601,-312 601,-312 601,-300 601,-300 601,-294 607,-288 613,-288 613,-288 643,-288 643,-288 649,-288 655,-294 655,-300 655,-300 655,-312 655,-312 655,-318 649,-324 643,-324"/>
<text text-anchor="middle" x="628" y="-302.3" font-family="Times,serif" font-size="14.00">Name</text>
</g>
<!-- ast.Return object at 0x73b1284bab50&#45;&gt;ast.Name object at 0x73b1284bac10 -->
<g id="edge56" class="edge">
<title>ast.Return object at 0x73b1284bab50&#45;&gt;ast.Name object at 0x73b1284bac10</title>
<path fill="none" stroke="black" d="M631.01,-359.7C630.57,-351.98 630.04,-342.71 629.55,-334.11"/>
<polygon fill="black" stroke="black" points="633.04,-333.89 628.98,-324.1 626.05,-334.29 633.04,-333.89"/>
</g>
<!-- ast.Name object at 0x73b1284bac10&#45;&gt;ast.Load object at 0x73b1333c1990 -->
<g id="edge57" class="edge">
<title>ast.Name object at 0x73b1284bac10&#45;&gt;ast.Load object at 0x73b1333c1990</title>
<path fill="none" stroke="black" d="M628.19,-287.88C627.79,-246.55 621.6,-139.72 571,-72 557.33,-53.71 535.34,-40.65 516.4,-32.07"/>
<polygon fill="black" stroke="black" points="517.69,-28.81 507.12,-28.1 514.94,-35.25 517.69,-28.81"/>
</g>
</g>
</svg>
