<?xml version="1.0" encoding="UTF-8" standalone="no"?>
<!DOCTYPE svg PUBLIC "-//W3C//DTD SVG 1.1//EN"
 "http://www.w3.org/Graphics/SVG/1.1/DTD/svg11.dtd">
<!-- Generated by graphviz version 2.50.0 (0)
 -->
<!-- Pages: 1 -->
<svg width="888pt" height="692pt"
 viewBox="0.00 0.00 888.00 692.00" xmlns="http://www.w3.org/2000/svg" xmlns:xlink="http://www.w3.org/1999/xlink">
<g id="graph0" class="graph" transform="scale(1 1) rotate(0) translate(4 688)">
<polygon fill="white" stroke="transparent" points="-4,4 -4,-688 884,-688 884,4 -4,4"/>
<!-- ast.Module object at 0x745396b0b890 -->
<g id="node1" class="node">
<title>ast.Module object at 0x745396b0b890</title>
<path fill="#66cdaa" stroke="black" d="M295,-684C295,-684 260,-684 260,-684 254,-684 248,-678 248,-672 248,-672 248,-660 248,-660 248,-654 254,-648 260,-648 260,-648 295,-648 295,-648 301,-648 307,-654 307,-660 307,-660 307,-672 307,-672 307,-678 301,-684 295,-684"/>
<text text-anchor="middle" x="277.5" y="-662.3" font-family="Times,serif" font-size="14.00">Module</text>
</g>
<!-- ast.FunctionDef object at 0x745396fbdd50 -->
<g id="node2" class="node">
<title>ast.FunctionDef object at 0x745396fbdd50</title>
<path fill="#66cdaa" stroke="black" d="M308,-612C308,-612 247,-612 247,-612 241,-612 235,-606 235,-600 235,-600 235,-588 235,-588 235,-582 241,-576 247,-576 247,-576 308,-576 308,-576 314,-576 320,-582 320,-588 320,-588 320,-600 320,-600 320,-606 314,-612 308,-612"/>
<text text-anchor="middle" x="277.5" y="-590.3" font-family="Times,serif" font-size="14.00">FunctionDef</text>
</g>
<!-- ast.Module object at 0x745396b0b890&#45;&gt;ast.FunctionDef object at 0x745396fbdd50 -->
<g id="edge1" class="edge">
<title>ast.Module object at 0x745396b0b890&#45;&gt;ast.FunctionDef object at 0x745396fbdd50</title>
<path fill="none" stroke="black" d="M277.5,-647.7C277.5,-639.98 277.5,-630.71 277.5,-622.11"/>
<polygon fill="black" stroke="black" points="281,-622.1 277.5,-612.1 274,-622.1 281,-622.1"/>
</g>
<!-- ast.arguments object at 0x745396b65950 -->
<g id="node3" class="node">
<title>ast.arguments object at 0x745396b65950</title>
<path fill="#66cdaa" stroke="black" d="M237.5,-540C237.5,-540 187.5,-540 187.5,-540 181.5,-540 175.5,-534 175.5,-528 175.5,-528 175.5,-516 175.5,-516 175.5,-510 181.5,-504 187.5,-504 187.5,-504 237.5,-504 237.5,-504 243.5,-504 249.5,-510 249.5,-516 249.5,-516 249.5,-528 249.5,-528 249.5,-534 243.5,-540 237.5,-540"/>
<text text-anchor="middle" x="212.5" y="-518.3" font-family="Times,serif" font-size="14.00">arguments</text>
</g>
<!-- ast.FunctionDef object at 0x745396fbdd50&#45;&gt;ast.arguments object at 0x745396b65950 -->
<g id="edge2" class="edge">
<title>ast.FunctionDef object at 0x745396fbdd50&#45;&gt;ast.arguments object at 0x745396b65950</title>
<path fill="none" stroke="black" d="M261.43,-575.7C253.56,-567.22 243.94,-556.86 235.33,-547.58"/>
<polygon fill="black" stroke="black" points="237.75,-545.05 228.38,-540.1 232.62,-549.81 237.75,-545.05"/>
</g>
<!-- ast.If object at 0x745396b67790 -->
<g id="node5" class="node">
<title>ast.If object at 0x745396b67790</title>
<path fill="#66cdaa" stroke="black" d="M269.5,-324C269.5,-324 239.5,-324 239.5,-324 233.5,-324 227.5,-318 227.5,-312 227.5,-312 227.5,-300 227.5,-300 227.5,-294 233.5,-288 239.5,-288 239.5,-288 269.5,-288 269.5,-288 275.5,-288 281.5,-294 281.5,-300 281.5,-300 281.5,-312 281.5,-312 281.5,-318 275.5,-324 269.5,-324"/>
<text text-anchor="middle" x="254.5" y="-302.3" font-family="Times,serif" font-size="14.00">If</text>
</g>
<!-- ast.FunctionDef object at 0x745396fbdd50&#45;&gt;ast.If object at 0x745396b67790 -->
<g id="edge4" class="edge">
<title>ast.FunctionDef object at 0x745396fbdd50&#45;&gt;ast.If object at 0x745396b67790</title>
<path fill="none" stroke="black" d="M276.13,-575.97C272.3,-528.29 261.43,-393.18 256.72,-334.63"/>
<polygon fill="black" stroke="black" points="260.18,-333.99 255.89,-324.31 253.2,-334.55 260.18,-333.99"/>
</g>
<!-- ast.Return object at 0x745396b66b90 -->
<g id="node15" class="node">
<title>ast.Return object at 0x745396b66b90</title>
<path fill="#66cdaa" stroke="black" d="M363.5,-540C363.5,-540 333.5,-540 333.5,-540 327.5,-540 321.5,-534 321.5,-528 321.5,-528 321.5,-516 321.5,-516 321.5,-510 327.5,-504 333.5,-504 333.5,-504 363.5,-504 363.5,-504 369.5,-504 375.5,-510 375.5,-516 375.5,-516 375.5,-528 375.5,-528 375.5,-534 369.5,-540 363.5,-540"/>
<text text-anchor="middle" x="348.5" y="-518.3" font-family="Times,serif" font-size="14.00">Return</text>
</g>
<!-- ast.FunctionDef object at 0x745396fbdd50&#45;&gt;ast.Return object at 0x745396b66b90 -->
<g id="edge16" class="edge">
<title>ast.FunctionDef object at 0x745396fbdd50&#45;&gt;ast.Return object at 0x745396b66b90</title>
<path fill="none" stroke="black" d="M295.05,-575.7C303.73,-567.14 314.36,-556.66 323.85,-547.3"/>
<polygon fill="black" stroke="black" points="326.49,-549.62 331.15,-540.1 321.57,-544.63 326.49,-549.62"/>
</g>
<!-- ast.arg object at 0x745396b67490 -->
<g id="node4" class="node">
<title>ast.arg object at 0x745396b67490</title>
<path fill="#66cdaa" stroke="black" d="M227.5,-468C227.5,-468 197.5,-468 197.5,-468 191.5,-468 185.5,-462 185.5,-456 185.5,-456 185.5,-444 185.5,-444 185.5,-438 191.5,-432 197.5,-432 197.5,-432 227.5,-432 227.5,-432 233.5,-432 239.5,-438 239.5,-444 239.5,-444 239.5,-456 239.5,-456 239.5,-462 233.5,-468 227.5,-468"/>
<text text-anchor="middle" x="212.5" y="-446.3" font-family="Times,serif" font-size="14.00">arg</text>
</g>
<!-- ast.arguments object at 0x745396b65950&#45;&gt;ast.arg object at 0x745396b67490 -->
<g id="edge3" class="edge">
<title>ast.arguments object at 0x745396b65950&#45;&gt;ast.arg object at 0x745396b67490</title>
<path fill="none" stroke="black" d="M212.5,-503.7C212.5,-495.98 212.5,-486.71 212.5,-478.11"/>
<polygon fill="black" stroke="black" points="216,-478.1 212.5,-468.1 209,-478.1 216,-478.1"/>
</g>
<!-- ast.Compare object at 0x745396b66810 -->
<g id="node6" class="node">
<title>ast.Compare object at 0x745396b66810</title>
<path fill="#66cdaa" stroke="black" d="M165,-252C165,-252 122,-252 122,-252 116,-252 110,-246 110,-240 110,-240 110,-228 110,-228 110,-222 116,-216 122,-216 122,-216 165,-216 165,-216 171,-216 177,-222 177,-228 177,-228 177,-240 177,-240 177,-246 171,-252 165,-252"/>
<text text-anchor="middle" x="143.5" y="-230.3" font-family="Times,serif" font-size="14.00">Compare</text>
</g>
<!-- ast.If object at 0x745396b67790&#45;&gt;ast.Compare object at 0x745396b66810 -->
<g id="edge5" class="edge">
<title>ast.If object at 0x745396b67790&#45;&gt;ast.Compare object at 0x745396b66810</title>
<path fill="none" stroke="black" d="M227.35,-287.88C212.97,-278.81 195.12,-267.55 179.59,-257.76"/>
<polygon fill="black" stroke="black" points="181.08,-254.56 170.76,-252.19 177.35,-260.48 181.08,-254.56"/>
</g>
<!-- ast.Return object at 0x745396b64250 -->
<g id="node13" class="node">
<title>ast.Return object at 0x745396b64250</title>
<path fill="#66cdaa" stroke="black" d="M269.5,-252C269.5,-252 239.5,-252 239.5,-252 233.5,-252 227.5,-246 227.5,-240 227.5,-240 227.5,-228 227.5,-228 227.5,-222 233.5,-216 239.5,-216 239.5,-216 269.5,-216 269.5,-216 275.5,-216 281.5,-222 281.5,-228 281.5,-228 281.5,-240 281.5,-240 281.5,-246 275.5,-252 269.5,-252"/>
<text text-anchor="middle" x="254.5" y="-230.3" font-family="Times,serif" font-size="14.00">Return</text>
</g>
<!-- ast.If object at 0x745396b67790&#45;&gt;ast.Return object at 0x745396b64250 -->
<g id="edge13" class="edge">
<title>ast.If object at 0x745396b67790&#45;&gt;ast.Return object at 0x745396b64250</title>
<path fill="none" stroke="black" d="M254.5,-287.7C254.5,-279.98 254.5,-270.71 254.5,-262.11"/>
<polygon fill="black" stroke="black" points="258,-262.1 254.5,-252.1 251,-262.1 258,-262.1"/>
</g>
<!-- ast.Constant object at 0x745396b674d0 -->
<g id="node7" class="node">
<title>ast.Constant object at 0x745396b674d0</title>
<path fill="#66cdaa" stroke="black" d="M53,-180C53,-180 12,-180 12,-180 6,-180 0,-174 0,-168 0,-168 0,-156 0,-156 0,-150 6,-144 12,-144 12,-144 53,-144 53,-144 59,-144 65,-150 65,-156 65,-156 65,-168 65,-168 65,-174 59,-180 53,-180"/>
<text text-anchor="middle" x="32.5" y="-158.3" font-family="Times,serif" font-size="14.00">Constant</text>
</g>
<!-- ast.Compare object at 0x745396b66810&#45;&gt;ast.Constant object at 0x745396b674d0 -->
<g id="edge6" class="edge">
<title>ast.Compare object at 0x745396b66810&#45;&gt;ast.Constant object at 0x745396b674d0</title>
<path fill="none" stroke="black" d="M116.35,-215.88C101.97,-206.81 84.12,-195.55 68.59,-185.76"/>
<polygon fill="black" stroke="black" points="70.08,-182.56 59.76,-180.19 66.35,-188.48 70.08,-182.56"/>
</g>
<!-- ast.GtE object at 0x74546180ce10 -->
<g id="node8" class="node">
<title>ast.GtE object at 0x74546180ce10</title>
<path fill="#66cdaa" stroke="black" d="M125.5,-180C125.5,-180 95.5,-180 95.5,-180 89.5,-180 83.5,-174 83.5,-168 83.5,-168 83.5,-156 83.5,-156 83.5,-150 89.5,-144 95.5,-144 95.5,-144 125.5,-144 125.5,-144 131.5,-144 137.5,-150 137.5,-156 137.5,-156 137.5,-168 137.5,-168 137.5,-174 131.5,-180 125.5,-180"/>
<text text-anchor="middle" x="110.5" y="-158.3" font-family="Times,serif" font-size="14.00">GtE</text>
</g>
<!-- ast.Compare object at 0x745396b66810&#45;&gt;ast.GtE object at 0x74546180ce10 -->
<g id="edge7" class="edge">
<title>ast.Compare object at 0x745396b66810&#45;&gt;ast.GtE object at 0x74546180ce10</title>
<path fill="none" stroke="black" d="M135.34,-215.7C131.59,-207.73 127.05,-198.1 122.88,-189.26"/>
<polygon fill="black" stroke="black" points="125.99,-187.66 118.56,-180.1 119.66,-190.64 125.99,-187.66"/>
</g>
<!-- ast.Call object at 0x745396b64750 -->
<g id="node9" class="node">
<title>ast.Call object at 0x745396b64750</title>
<path fill="#66cdaa" stroke="black" d="M197.5,-180C197.5,-180 167.5,-180 167.5,-180 161.5,-180 155.5,-174 155.5,-168 155.5,-168 155.5,-156 155.5,-156 155.5,-150 161.5,-144 167.5,-144 167.5,-144 197.5,-144 197.5,-144 203.5,-144 209.5,-150 209.5,-156 209.5,-156 209.5,-168 209.5,-168 209.5,-174 203.5,-180 197.5,-180"/>
<text text-anchor="middle" x="182.5" y="-158.3" font-family="Times,serif" font-size="14.00">Call</text>
</g>
<!-- ast.Compare object at 0x745396b66810&#45;&gt;ast.Call object at 0x745396b64750 -->
<g id="edge8" class="edge">
<title>ast.Compare object at 0x745396b66810&#45;&gt;ast.Call object at 0x745396b64750</title>
<path fill="none" stroke="black" d="M153.14,-215.7C157.63,-207.64 163.06,-197.89 168.02,-188.98"/>
<polygon fill="black" stroke="black" points="171.16,-190.54 172.97,-180.1 165.05,-187.14 171.16,-190.54"/>
</g>
<!-- ast.Name object at 0x745396b65b50 -->
<g id="node10" class="node">
<title>ast.Name object at 0x745396b65b50</title>
<path fill="#66cdaa" stroke="black" d="M125.5,-108C125.5,-108 95.5,-108 95.5,-108 89.5,-108 83.5,-102 83.5,-96 83.5,-96 83.5,-84 83.5,-84 83.5,-78 89.5,-72 95.5,-72 95.5,-72 125.5,-72 125.5,-72 131.5,-72 137.5,-78 137.5,-84 137.5,-84 137.5,-96 137.5,-96 137.5,-102 131.5,-108 125.5,-108"/>
<text text-anchor="middle" x="110.5" y="-86.3" font-family="Times,serif" font-size="14.00">Name</text>
</g>
<!-- ast.Call object at 0x745396b64750&#45;&gt;ast.Name object at 0x745396b65b50 -->
<g id="edge9" class="edge">
<title>ast.Call object at 0x745396b64750&#45;&gt;ast.Name object at 0x745396b65b50</title>
<path fill="none" stroke="black" d="M164.7,-143.7C155.9,-135.14 145.12,-124.66 135.5,-115.3"/>
<polygon fill="black" stroke="black" points="137.7,-112.57 128.09,-108.1 132.82,-117.58 137.7,-112.57"/>
</g>
<!-- ast.Name object at 0x745396b646d0 -->
<g id="node12" class="node">
<title>ast.Name object at 0x745396b646d0</title>
<path fill="#66cdaa" stroke="black" d="M197.5,-108C197.5,-108 167.5,-108 167.5,-108 161.5,-108 155.5,-102 155.5,-96 155.5,-96 155.5,-84 155.5,-84 155.5,-78 161.5,-72 167.5,-72 167.5,-72 197.5,-72 197.5,-72 203.5,-72 209.5,-78 209.5,-84 209.5,-84 209.5,-96 209.5,-96 209.5,-102 203.5,-108 197.5,-108"/>
<text text-anchor="middle" x="182.5" y="-86.3" font-family="Times,serif" font-size="14.00">Name</text>
</g>
<!-- ast.Call object at 0x745396b64750&#45;&gt;ast.Name object at 0x745396b646d0 -->
<g id="edge11" class="edge">
<title>ast.Call object at 0x745396b64750&#45;&gt;ast.Name object at 0x745396b646d0</title>
<path fill="none" stroke="black" d="M182.5,-143.7C182.5,-135.98 182.5,-126.71 182.5,-118.11"/>
<polygon fill="black" stroke="black" points="186,-118.1 182.5,-108.1 179,-118.1 186,-118.1"/>
</g>
<!-- ast.Load object at 0x7454617ffb50 -->
<g id="node11" class="node">
<title>ast.Load object at 0x7454617ffb50</title>
<path fill="#66cdaa" stroke="black" d="M415.5,-36C415.5,-36 385.5,-36 385.5,-36 379.5,-36 373.5,-30 373.5,-24 373.5,-24 373.5,-12 373.5,-12 373.5,-6 379.5,0 385.5,0 385.5,0 415.5,0 415.5,0 421.5,0 427.5,-6 427.5,-12 427.5,-12 427.5,-24 427.5,-24 427.5,-30 421.5,-36 415.5,-36"/>
<text text-anchor="middle" x="400.5" y="-14.3" font-family="Times,serif" font-size="14.00">Load</text>
</g>
<!-- ast.Name object at 0x745396b65b50&#45;&gt;ast.Load object at 0x7454617ffb50 -->
<g id="edge10" class="edge">
<title>ast.Name object at 0x745396b65b50&#45;&gt;ast.Load object at 0x7454617ffb50</title>
<path fill="none" stroke="black" d="M137.74,-75.32C140.66,-74.1 143.62,-72.97 146.5,-72 221.46,-46.87 313.03,-31.29 363.2,-23.97"/>
<polygon fill="black" stroke="black" points="363.85,-27.41 373.25,-22.53 362.86,-20.48 363.85,-27.41"/>
</g>
<!-- ast.Name object at 0x745396b646d0&#45;&gt;ast.Load object at 0x7454617ffb50 -->
<g id="edge12" class="edge">
<title>ast.Name object at 0x745396b646d0&#45;&gt;ast.Load object at 0x7454617ffb50</title>
<path fill="none" stroke="black" d="M209.82,-75.55C212.73,-74.29 215.66,-73.08 218.5,-72 267.59,-53.4 326.16,-37.4 363.34,-27.98"/>
<polygon fill="black" stroke="black" points="364.38,-31.33 373.23,-25.51 362.68,-24.54 364.38,-31.33"/>
</g>
<!-- ast.List object at 0x745396b65850 -->
<g id="node14" class="node">
<title>ast.List object at 0x745396b65850</title>
<path fill="#66cdaa" stroke="black" d="M269.5,-108C269.5,-108 239.5,-108 239.5,-108 233.5,-108 227.5,-102 227.5,-96 227.5,-96 227.5,-84 227.5,-84 227.5,-78 233.5,-72 239.5,-72 239.5,-72 269.5,-72 269.5,-72 275.5,-72 281.5,-78 281.5,-84 281.5,-84 281.5,-96 281.5,-96 281.5,-102 275.5,-108 269.5,-108"/>
<text text-anchor="middle" x="254.5" y="-86.3" font-family="Times,serif" font-size="14.00">List</text>
</g>
<!-- ast.Return object at 0x745396b64250&#45;&gt;ast.List object at 0x745396b65850 -->
<g id="edge14" class="edge">
<title>ast.Return object at 0x745396b64250&#45;&gt;ast.List object at 0x745396b65850</title>
<path fill="none" stroke="black" d="M254.5,-215.87C254.5,-191.67 254.5,-147.21 254.5,-118.39"/>
<polygon fill="black" stroke="black" points="258,-118.19 254.5,-108.19 251,-118.19 258,-118.19"/>
</g>
<!-- ast.List object at 0x745396b65850&#45;&gt;ast.Load object at 0x7454617ffb50 -->
<g id="edge15" class="edge">
<title>ast.List object at 0x745396b65850&#45;&gt;ast.Load object at 0x7454617ffb50</title>
<path fill="none" stroke="black" d="M281.62,-76C304.83,-64.87 338.44,-48.75 364.01,-36.5"/>
<polygon fill="black" stroke="black" points="365.53,-39.65 373.03,-32.17 362.5,-33.34 365.53,-39.65"/>
</g>
<!-- ast.ListComp object at 0x745396b65890 -->
<g id="node16" class="node">
<title>ast.ListComp object at 0x745396b65890</title>
<path fill="#66cdaa" stroke="black" d="M388,-468C388,-468 341,-468 341,-468 335,-468 329,-462 329,-456 329,-456 329,-444 329,-444 329,-438 335,-432 341,-432 341,-432 388,-432 388,-432 394,-432 400,-438 400,-444 400,-444 400,-456 400,-456 400,-462 394,-468 388,-468"/>
<text text-anchor="middle" x="364.5" y="-446.3" font-family="Times,serif" font-size="14.00">ListComp</text>
</g>
<!-- ast.Return object at 0x745396b66b90&#45;&gt;ast.ListComp object at 0x745396b65890 -->
<g id="edge17" class="edge">
<title>ast.Return object at 0x745396b66b90&#45;&gt;ast.ListComp object at 0x745396b65890</title>
<path fill="none" stroke="black" d="M352.46,-503.7C354.22,-495.98 356.34,-486.71 358.3,-478.11"/>
<polygon fill="black" stroke="black" points="361.77,-478.63 360.59,-468.1 354.95,-477.07 361.77,-478.63"/>
</g>
<!-- ast.Subscript object at 0x745396b64050 -->
<g id="node17" class="node">
<title>ast.Subscript object at 0x745396b64050</title>
<path fill="#66cdaa" stroke="black" d="M386.5,-180C386.5,-180 342.5,-180 342.5,-180 336.5,-180 330.5,-174 330.5,-168 330.5,-168 330.5,-156 330.5,-156 330.5,-150 336.5,-144 342.5,-144 342.5,-144 386.5,-144 386.5,-144 392.5,-144 398.5,-150 398.5,-156 398.5,-156 398.5,-168 398.5,-168 398.5,-174 392.5,-180 386.5,-180"/>
<text text-anchor="middle" x="364.5" y="-158.3" font-family="Times,serif" font-size="14.00">Subscript</text>
</g>
<!-- ast.ListComp object at 0x745396b65890&#45;&gt;ast.Subscript object at 0x745396b64050 -->
<g id="edge18" class="edge">
<title>ast.ListComp object at 0x745396b65890&#45;&gt;ast.Subscript object at 0x745396b64050</title>
<path fill="none" stroke="black" d="M364.5,-431.97C364.5,-384.29 364.5,-249.18 364.5,-190.63"/>
<polygon fill="black" stroke="black" points="368,-190.31 364.5,-180.31 361,-190.31 368,-190.31"/>
</g>
<!-- ast.comprehension object at 0x745396b64a10 -->
<g id="node20" class="node">
<title>ast.comprehension object at 0x745396b64a10</title>
<path fill="#66cdaa" stroke="black" d="M527.5,-396C527.5,-396 451.5,-396 451.5,-396 445.5,-396 439.5,-390 439.5,-384 439.5,-384 439.5,-372 439.5,-372 439.5,-366 445.5,-360 451.5,-360 451.5,-360 527.5,-360 527.5,-360 533.5,-360 539.5,-366 539.5,-372 539.5,-372 539.5,-384 539.5,-384 539.5,-390 533.5,-396 527.5,-396"/>
<text text-anchor="middle" x="489.5" y="-374.3" font-family="Times,serif" font-size="14.00">comprehension</text>
</g>
<!-- ast.ListComp object at 0x745396b65890&#45;&gt;ast.comprehension object at 0x745396b64a10 -->
<g id="edge24" class="edge">
<title>ast.ListComp object at 0x745396b65890&#45;&gt;ast.comprehension object at 0x745396b64a10</title>
<path fill="none" stroke="black" d="M395.08,-431.88C411.57,-422.64 432.12,-411.13 449.84,-401.21"/>
<polygon fill="black" stroke="black" points="451.79,-404.13 458.8,-396.19 448.37,-398.02 451.79,-404.13"/>
</g>
<!-- ast.Subscript object at 0x745396b64050&#45;&gt;ast.Load object at 0x7454617ffb50 -->
<g id="edge23" class="edge">
<title>ast.Subscript object at 0x745396b64050&#45;&gt;ast.Load object at 0x7454617ffb50</title>
<path fill="none" stroke="black" d="M348.85,-143.9C334.19,-125.7 316.24,-96.25 328.5,-72 336.2,-56.77 350.56,-44.85 364.44,-36.2"/>
<polygon fill="black" stroke="black" points="366.53,-39.04 373.42,-30.99 363.02,-32.98 366.53,-39.04"/>
</g>
<!-- ast.Name object at 0x745396b64f10 -->
<g id="node18" class="node">
<title>ast.Name object at 0x745396b64f10</title>
<path fill="#66cdaa" stroke="black" d="M379.5,-108C379.5,-108 349.5,-108 349.5,-108 343.5,-108 337.5,-102 337.5,-96 337.5,-96 337.5,-84 337.5,-84 337.5,-78 343.5,-72 349.5,-72 349.5,-72 379.5,-72 379.5,-72 385.5,-72 391.5,-78 391.5,-84 391.5,-84 391.5,-96 391.5,-96 391.5,-102 385.5,-108 379.5,-108"/>
<text text-anchor="middle" x="364.5" y="-86.3" font-family="Times,serif" font-size="14.00">Name</text>
</g>
<!-- ast.Subscript object at 0x745396b64050&#45;&gt;ast.Name object at 0x745396b64f10 -->
<g id="edge19" class="edge">
<title>ast.Subscript object at 0x745396b64050&#45;&gt;ast.Name object at 0x745396b64f10</title>
<path fill="none" stroke="black" d="M364.5,-143.7C364.5,-135.98 364.5,-126.71 364.5,-118.11"/>
<polygon fill="black" stroke="black" points="368,-118.1 364.5,-108.1 361,-118.1 368,-118.1"/>
</g>
<!-- ast.Name object at 0x745396b64c10 -->
<g id="node19" class="node">
<title>ast.Name object at 0x745396b64c10</title>
<path fill="#66cdaa" stroke="black" d="M451.5,-108C451.5,-108 421.5,-108 421.5,-108 415.5,-108 409.5,-102 409.5,-96 409.5,-96 409.5,-84 409.5,-84 409.5,-78 415.5,-72 421.5,-72 421.5,-72 451.5,-72 451.5,-72 457.5,-72 463.5,-78 463.5,-84 463.5,-84 463.5,-96 463.5,-96 463.5,-102 457.5,-108 451.5,-108"/>
<text text-anchor="middle" x="436.5" y="-86.3" font-family="Times,serif" font-size="14.00">Name</text>
</g>
<!-- ast.Subscript object at 0x745396b64050&#45;&gt;ast.Name object at 0x745396b64c10 -->
<g id="edge21" class="edge">
<title>ast.Subscript object at 0x745396b64050&#45;&gt;ast.Name object at 0x745396b64c10</title>
<path fill="none" stroke="black" d="M382.3,-143.7C391.1,-135.14 401.88,-124.66 411.5,-115.3"/>
<polygon fill="black" stroke="black" points="414.18,-117.58 418.91,-108.1 409.3,-112.57 414.18,-117.58"/>
</g>
<!-- ast.Name object at 0x745396b64f10&#45;&gt;ast.Load object at 0x7454617ffb50 -->
<g id="edge20" class="edge">
<title>ast.Name object at 0x745396b64f10&#45;&gt;ast.Load object at 0x7454617ffb50</title>
<path fill="none" stroke="black" d="M373.4,-71.7C377.5,-63.73 382.45,-54.1 386.99,-45.26"/>
<polygon fill="black" stroke="black" points="390.24,-46.6 391.7,-36.1 384.02,-43.4 390.24,-46.6"/>
</g>
<!-- ast.Name object at 0x745396b64c10&#45;&gt;ast.Load object at 0x7454617ffb50 -->
<g id="edge22" class="edge">
<title>ast.Name object at 0x745396b64c10&#45;&gt;ast.Load object at 0x7454617ffb50</title>
<path fill="none" stroke="black" d="M427.6,-71.7C423.5,-63.73 418.55,-54.1 414.01,-45.26"/>
<polygon fill="black" stroke="black" points="416.98,-43.4 409.3,-36.1 410.76,-46.6 416.98,-43.4"/>
</g>
<!-- ast.Name object at 0x745396b676d0 -->
<g id="node21" class="node">
<title>ast.Name object at 0x745396b676d0</title>
<path fill="#66cdaa" stroke="black" d="M446.5,-324C446.5,-324 416.5,-324 416.5,-324 410.5,-324 404.5,-318 404.5,-312 404.5,-312 404.5,-300 404.5,-300 404.5,-294 410.5,-288 416.5,-288 416.5,-288 446.5,-288 446.5,-288 452.5,-288 458.5,-294 458.5,-300 458.5,-300 458.5,-312 458.5,-312 458.5,-318 452.5,-324 446.5,-324"/>
<text text-anchor="middle" x="431.5" y="-302.3" font-family="Times,serif" font-size="14.00">Name</text>
</g>
<!-- ast.comprehension object at 0x745396b64a10&#45;&gt;ast.Name object at 0x745396b676d0 -->
<g id="edge25" class="edge">
<title>ast.comprehension object at 0x745396b64a10&#45;&gt;ast.Name object at 0x745396b676d0</title>
<path fill="none" stroke="black" d="M475.16,-359.7C468.21,-351.3 459.73,-341.07 452.1,-331.86"/>
<polygon fill="black" stroke="black" points="454.75,-329.57 445.67,-324.1 449.36,-334.04 454.75,-329.57"/>
</g>
<!-- ast.Call object at 0x745396cd6750 -->
<g id="node23" class="node">
<title>ast.Call object at 0x745396cd6750</title>
<path fill="#66cdaa" stroke="black" d="M529.5,-324C529.5,-324 499.5,-324 499.5,-324 493.5,-324 487.5,-318 487.5,-312 487.5,-312 487.5,-300 487.5,-300 487.5,-294 493.5,-288 499.5,-288 499.5,-288 529.5,-288 529.5,-288 535.5,-288 541.5,-294 541.5,-300 541.5,-300 541.5,-312 541.5,-312 541.5,-318 535.5,-324 529.5,-324"/>
<text text-anchor="middle" x="514.5" y="-302.3" font-family="Times,serif" font-size="14.00">Call</text>
</g>
<!-- ast.comprehension object at 0x745396b64a10&#45;&gt;ast.Call object at 0x745396cd6750 -->
<g id="edge27" class="edge">
<title>ast.comprehension object at 0x745396b64a10&#45;&gt;ast.Call object at 0x745396cd6750</title>
<path fill="none" stroke="black" d="M495.68,-359.7C498.5,-351.81 501.89,-342.3 505.02,-333.55"/>
<polygon fill="black" stroke="black" points="508.32,-334.7 508.39,-324.1 501.73,-332.34 508.32,-334.7"/>
</g>
<!-- ast.Compare object at 0x745396cd7610 -->
<g id="node27" class="node">
<title>ast.Compare object at 0x745396cd7610</title>
<path fill="#66cdaa" stroke="black" d="M755,-324C755,-324 712,-324 712,-324 706,-324 700,-318 700,-312 700,-312 700,-300 700,-300 700,-294 706,-288 712,-288 712,-288 755,-288 755,-288 761,-288 767,-294 767,-300 767,-300 767,-312 767,-312 767,-318 761,-324 755,-324"/>
<text text-anchor="middle" x="733.5" y="-302.3" font-family="Times,serif" font-size="14.00">Compare</text>
</g>
<!-- ast.comprehension object at 0x745396b64a10&#45;&gt;ast.Compare object at 0x745396cd7610 -->
<g id="edge32" class="edge">
<title>ast.comprehension object at 0x745396b64a10&#45;&gt;ast.Compare object at 0x745396cd7610</title>
<path fill="none" stroke="black" d="M539.76,-362.58C584.06,-349.87 647.93,-331.55 690.06,-319.46"/>
<polygon fill="black" stroke="black" points="691.1,-322.8 699.75,-316.68 689.17,-316.08 691.1,-322.8"/>
</g>
<!-- ast.Store object at 0x7454617ffbd0 -->
<g id="node22" class="node">
<title>ast.Store object at 0x7454617ffbd0</title>
<path fill="#66cdaa" stroke="black" d="M435.5,-252C435.5,-252 405.5,-252 405.5,-252 399.5,-252 393.5,-246 393.5,-240 393.5,-240 393.5,-228 393.5,-228 393.5,-222 399.5,-216 405.5,-216 405.5,-216 435.5,-216 435.5,-216 441.5,-216 447.5,-222 447.5,-228 447.5,-228 447.5,-240 447.5,-240 447.5,-246 441.5,-252 435.5,-252"/>
<text text-anchor="middle" x="420.5" y="-230.3" font-family="Times,serif" font-size="14.00">Store</text>
</g>
<!-- ast.Name object at 0x745396b676d0&#45;&gt;ast.Store object at 0x7454617ffbd0 -->
<g id="edge26" class="edge">
<title>ast.Name object at 0x745396b676d0&#45;&gt;ast.Store object at 0x7454617ffbd0</title>
<path fill="none" stroke="black" d="M428.78,-287.7C427.57,-279.98 426.11,-270.71 424.76,-262.11"/>
<polygon fill="black" stroke="black" points="428.2,-261.44 423.19,-252.1 421.28,-262.53 428.2,-261.44"/>
</g>
<!-- ast.Name object at 0x745396cd6590 -->
<g id="node24" class="node">
<title>ast.Name object at 0x745396cd6590</title>
<path fill="#66cdaa" stroke="black" d="M523.5,-108C523.5,-108 493.5,-108 493.5,-108 487.5,-108 481.5,-102 481.5,-96 481.5,-96 481.5,-84 481.5,-84 481.5,-78 487.5,-72 493.5,-72 493.5,-72 523.5,-72 523.5,-72 529.5,-72 535.5,-78 535.5,-84 535.5,-84 535.5,-96 535.5,-96 535.5,-102 529.5,-108 523.5,-108"/>
<text text-anchor="middle" x="508.5" y="-86.3" font-family="Times,serif" font-size="14.00">Name</text>
</g>
<!-- ast.Call object at 0x745396cd6750&#45;&gt;ast.Name object at 0x745396cd6590 -->
<g id="edge28" class="edge">
<title>ast.Call object at 0x745396cd6750&#45;&gt;ast.Name object at 0x745396cd6590</title>
<path fill="none" stroke="black" d="M506.61,-287.75C502.39,-277.58 497.64,-264.33 495.5,-252 487.39,-205.33 495.64,-150.16 502.19,-118.02"/>
<polygon fill="black" stroke="black" points="505.66,-118.56 504.32,-108.05 498.81,-117.1 505.66,-118.56"/>
</g>
<!-- ast.Constant object at 0x745396cd5190 -->
<g id="node25" class="node">
<title>ast.Constant object at 0x745396cd5190</title>
<path fill="#66cdaa" stroke="black" d="M557,-252C557,-252 516,-252 516,-252 510,-252 504,-246 504,-240 504,-240 504,-228 504,-228 504,-222 510,-216 516,-216 516,-216 557,-216 557,-216 563,-216 569,-222 569,-228 569,-228 569,-240 569,-240 569,-246 563,-252 557,-252"/>
<text text-anchor="middle" x="536.5" y="-230.3" font-family="Times,serif" font-size="14.00">Constant</text>
</g>
<!-- ast.Call object at 0x745396cd6750&#45;&gt;ast.Constant object at 0x745396cd5190 -->
<g id="edge30" class="edge">
<title>ast.Call object at 0x745396cd6750&#45;&gt;ast.Constant object at 0x745396cd5190</title>
<path fill="none" stroke="black" d="M519.94,-287.7C522.39,-279.9 525.34,-270.51 528.07,-261.83"/>
<polygon fill="black" stroke="black" points="531.46,-262.69 531.12,-252.1 524.79,-260.59 531.46,-262.69"/>
</g>
<!-- ast.Constant object at 0x745396cd7550 -->
<g id="node26" class="node">
<title>ast.Constant object at 0x745396cd7550</title>
<path fill="#66cdaa" stroke="black" d="M640,-252C640,-252 599,-252 599,-252 593,-252 587,-246 587,-240 587,-240 587,-228 587,-228 587,-222 593,-216 599,-216 599,-216 640,-216 640,-216 646,-216 652,-222 652,-228 652,-228 652,-240 652,-240 652,-246 646,-252 640,-252"/>
<text text-anchor="middle" x="619.5" y="-230.3" font-family="Times,serif" font-size="14.00">Constant</text>
</g>
<!-- ast.Call object at 0x745396cd6750&#45;&gt;ast.Constant object at 0x745396cd7550 -->
<g id="edge31" class="edge">
<title>ast.Call object at 0x745396cd6750&#45;&gt;ast.Constant object at 0x745396cd7550</title>
<path fill="none" stroke="black" d="M540.19,-287.88C553.79,-278.81 570.67,-267.55 585.36,-257.76"/>
<polygon fill="black" stroke="black" points="587.34,-260.65 593.72,-252.19 583.45,-254.82 587.34,-260.65"/>
</g>
<!-- ast.Name object at 0x745396cd6590&#45;&gt;ast.Load object at 0x7454617ffb50 -->
<g id="edge29" class="edge">
<title>ast.Name object at 0x745396cd6590&#45;&gt;ast.Load object at 0x7454617ffb50</title>
<path fill="none" stroke="black" d="M482.08,-71.88C468.09,-62.81 450.72,-51.55 435.61,-41.76"/>
<polygon fill="black" stroke="black" points="437.32,-38.69 427.02,-36.19 433.51,-44.57 437.32,-38.69"/>
</g>
<!-- ast.BinOp object at 0x745396b3bb50 -->
<g id="node28" class="node">
<title>ast.BinOp object at 0x745396b3bb50</title>
<path fill="#66cdaa" stroke="black" d="M712.5,-252C712.5,-252 682.5,-252 682.5,-252 676.5,-252 670.5,-246 670.5,-240 670.5,-240 670.5,-228 670.5,-228 670.5,-222 676.5,-216 682.5,-216 682.5,-216 712.5,-216 712.5,-216 718.5,-216 724.5,-222 724.5,-228 724.5,-228 724.5,-240 724.5,-240 724.5,-246 718.5,-252 712.5,-252"/>
<text text-anchor="middle" x="697.5" y="-230.3" font-family="Times,serif" font-size="14.00">BinOp</text>
</g>
<!-- ast.Compare object at 0x745396cd7610&#45;&gt;ast.BinOp object at 0x745396b3bb50 -->
<g id="edge33" class="edge">
<title>ast.Compare object at 0x745396cd7610&#45;&gt;ast.BinOp object at 0x745396b3bb50</title>
<path fill="none" stroke="black" d="M724.6,-287.7C720.5,-279.73 715.55,-270.1 711.01,-261.26"/>
<polygon fill="black" stroke="black" points="713.98,-259.4 706.3,-252.1 707.76,-262.6 713.98,-259.4"/>
</g>
<!-- ast.Eq object at 0x74546180cb90 -->
<g id="node34" class="node">
<title>ast.Eq object at 0x74546180cb90</title>
<path fill="#66cdaa" stroke="black" d="M784.5,-252C784.5,-252 754.5,-252 754.5,-252 748.5,-252 742.5,-246 742.5,-240 742.5,-240 742.5,-228 742.5,-228 742.5,-222 748.5,-216 754.5,-216 754.5,-216 784.5,-216 784.5,-216 790.5,-216 796.5,-222 796.5,-228 796.5,-228 796.5,-240 796.5,-240 796.5,-246 790.5,-252 784.5,-252"/>
<text text-anchor="middle" x="769.5" y="-230.3" font-family="Times,serif" font-size="14.00">Eq</text>
</g>
<!-- ast.Compare object at 0x745396cd7610&#45;&gt;ast.Eq object at 0x74546180cb90 -->
<g id="edge42" class="edge">
<title>ast.Compare object at 0x745396cd7610&#45;&gt;ast.Eq object at 0x74546180cb90</title>
<path fill="none" stroke="black" d="M742.4,-287.7C746.5,-279.73 751.45,-270.1 755.99,-261.26"/>
<polygon fill="black" stroke="black" points="759.24,-262.6 760.7,-252.1 753.02,-259.4 759.24,-262.6"/>
</g>
<!-- ast.Constant object at 0x745396b38a10 -->
<g id="node35" class="node">
<title>ast.Constant object at 0x745396b38a10</title>
<path fill="#66cdaa" stroke="black" d="M868,-252C868,-252 827,-252 827,-252 821,-252 815,-246 815,-240 815,-240 815,-228 815,-228 815,-222 821,-216 827,-216 827,-216 868,-216 868,-216 874,-216 880,-222 880,-228 880,-228 880,-240 880,-240 880,-246 874,-252 868,-252"/>
<text text-anchor="middle" x="847.5" y="-230.3" font-family="Times,serif" font-size="14.00">Constant</text>
</g>
<!-- ast.Compare object at 0x745396cd7610&#45;&gt;ast.Constant object at 0x745396b38a10 -->
<g id="edge43" class="edge">
<title>ast.Compare object at 0x745396cd7610&#45;&gt;ast.Constant object at 0x745396b38a10</title>
<path fill="none" stroke="black" d="M761.39,-287.88C776.29,-278.72 794.83,-267.34 810.88,-257.48"/>
<polygon fill="black" stroke="black" points="812.81,-260.41 819.51,-252.19 809.15,-254.44 812.81,-260.41"/>
</g>
<!-- ast.Subscript object at 0x745396b3ac10 -->
<g id="node29" class="node">
<title>ast.Subscript object at 0x745396b3ac10</title>
<path fill="#66cdaa" stroke="black" d="M640.5,-180C640.5,-180 596.5,-180 596.5,-180 590.5,-180 584.5,-174 584.5,-168 584.5,-168 584.5,-156 584.5,-156 584.5,-150 590.5,-144 596.5,-144 596.5,-144 640.5,-144 640.5,-144 646.5,-144 652.5,-150 652.5,-156 652.5,-156 652.5,-168 652.5,-168 652.5,-174 646.5,-180 640.5,-180"/>
<text text-anchor="middle" x="618.5" y="-158.3" font-family="Times,serif" font-size="14.00">Subscript</text>
</g>
<!-- ast.BinOp object at 0x745396b3bb50&#45;&gt;ast.Subscript object at 0x745396b3ac10 -->
<g id="edge34" class="edge">
<title>ast.BinOp object at 0x745396b3bb50&#45;&gt;ast.Subscript object at 0x745396b3ac10</title>
<path fill="none" stroke="black" d="M677.97,-215.7C668.12,-206.97 656.01,-196.24 645.3,-186.75"/>
<polygon fill="black" stroke="black" points="647.61,-184.12 637.8,-180.1 642.97,-189.36 647.61,-184.12"/>
</g>
<!-- ast.Mod object at 0x74546180c310 -->
<g id="node32" class="node">
<title>ast.Mod object at 0x74546180c310</title>
<path fill="#66cdaa" stroke="black" d="M712.5,-180C712.5,-180 682.5,-180 682.5,-180 676.5,-180 670.5,-174 670.5,-168 670.5,-168 670.5,-156 670.5,-156 670.5,-150 676.5,-144 682.5,-144 682.5,-144 712.5,-144 712.5,-144 718.5,-144 724.5,-150 724.5,-156 724.5,-156 724.5,-168 724.5,-168 724.5,-174 718.5,-180 712.5,-180"/>
<text text-anchor="middle" x="697.5" y="-158.3" font-family="Times,serif" font-size="14.00">Mod</text>
</g>
<!-- ast.BinOp object at 0x745396b3bb50&#45;&gt;ast.Mod object at 0x74546180c310 -->
<g id="edge40" class="edge">
<title>ast.BinOp object at 0x745396b3bb50&#45;&gt;ast.Mod object at 0x74546180c310</title>
<path fill="none" stroke="black" d="M697.5,-215.7C697.5,-207.98 697.5,-198.71 697.5,-190.11"/>
<polygon fill="black" stroke="black" points="701,-190.1 697.5,-180.1 694,-190.1 701,-190.1"/>
</g>
<!-- ast.Constant object at 0x745396b3bbd0 -->
<g id="node33" class="node">
<title>ast.Constant object at 0x745396b3bbd0</title>
<path fill="#66cdaa" stroke="black" d="M796,-180C796,-180 755,-180 755,-180 749,-180 743,-174 743,-168 743,-168 743,-156 743,-156 743,-150 749,-144 755,-144 755,-144 796,-144 796,-144 802,-144 808,-150 808,-156 808,-156 808,-168 808,-168 808,-174 802,-180 796,-180"/>
<text text-anchor="middle" x="775.5" y="-158.3" font-family="Times,serif" font-size="14.00">Constant</text>
</g>
<!-- ast.BinOp object at 0x745396b3bb50&#45;&gt;ast.Constant object at 0x745396b3bbd0 -->
<g id="edge41" class="edge">
<title>ast.BinOp object at 0x745396b3bb50&#45;&gt;ast.Constant object at 0x745396b3bbd0</title>
<path fill="none" stroke="black" d="M716.78,-215.7C726.42,-207.05 738.23,-196.45 748.73,-187.03"/>
<polygon fill="black" stroke="black" points="751.34,-189.39 756.44,-180.1 746.66,-184.18 751.34,-189.39"/>
</g>
<!-- ast.Subscript object at 0x745396b3ac10&#45;&gt;ast.Load object at 0x7454617ffb50 -->
<g id="edge39" class="edge">
<title>ast.Subscript object at 0x745396b3ac10&#45;&gt;ast.Load object at 0x7454617ffb50</title>
<path fill="none" stroke="black" d="M608.28,-143.94C595.6,-124.1 572.24,-91.59 544.5,-72 511.95,-49.01 468.27,-34.79 437.58,-26.94"/>
<polygon fill="black" stroke="black" points="438.26,-23.5 427.71,-24.52 436.59,-30.3 438.26,-23.5"/>
</g>
<!-- ast.Name object at 0x745396b3a350 -->
<g id="node30" class="node">
<title>ast.Name object at 0x745396b3a350</title>
<path fill="#66cdaa" stroke="black" d="M633.5,-108C633.5,-108 603.5,-108 603.5,-108 597.5,-108 591.5,-102 591.5,-96 591.5,-96 591.5,-84 591.5,-84 591.5,-78 597.5,-72 603.5,-72 603.5,-72 633.5,-72 633.5,-72 639.5,-72 645.5,-78 645.5,-84 645.5,-84 645.5,-96 645.5,-96 645.5,-102 639.5,-108 633.5,-108"/>
<text text-anchor="middle" x="618.5" y="-86.3" font-family="Times,serif" font-size="14.00">Name</text>
</g>
<!-- ast.Subscript object at 0x745396b3ac10&#45;&gt;ast.Name object at 0x745396b3a350 -->
<g id="edge35" class="edge">
<title>ast.Subscript object at 0x745396b3ac10&#45;&gt;ast.Name object at 0x745396b3a350</title>
<path fill="none" stroke="black" d="M618.5,-143.7C618.5,-135.98 618.5,-126.71 618.5,-118.11"/>
<polygon fill="black" stroke="black" points="622,-118.1 618.5,-108.1 615,-118.1 622,-118.1"/>
</g>
<!-- ast.Name object at 0x745396b3ad50 -->
<g id="node31" class="node">
<title>ast.Name object at 0x745396b3ad50</title>
<path fill="#66cdaa" stroke="black" d="M705.5,-108C705.5,-108 675.5,-108 675.5,-108 669.5,-108 663.5,-102 663.5,-96 663.5,-96 663.5,-84 663.5,-84 663.5,-78 669.5,-72 675.5,-72 675.5,-72 705.5,-72 705.5,-72 711.5,-72 717.5,-78 717.5,-84 717.5,-84 717.5,-96 717.5,-96 717.5,-102 711.5,-108 705.5,-108"/>
<text text-anchor="middle" x="690.5" y="-86.3" font-family="Times,serif" font-size="14.00">Name</text>
</g>
<!-- ast.Subscript object at 0x745396b3ac10&#45;&gt;ast.Name object at 0x745396b3ad50 -->
<g id="edge37" class="edge">
<title>ast.Subscript object at 0x745396b3ac10&#45;&gt;ast.Name object at 0x745396b3ad50</title>
<path fill="none" stroke="black" d="M636.3,-143.7C645.1,-135.14 655.88,-124.66 665.5,-115.3"/>
<polygon fill="black" stroke="black" points="668.18,-117.58 672.91,-108.1 663.3,-112.57 668.18,-117.58"/>
</g>
<!-- ast.Name object at 0x745396b3a350&#45;&gt;ast.Load object at 0x7454617ffb50 -->
<g id="edge36" class="edge">
<title>ast.Name object at 0x745396b3a350&#45;&gt;ast.Load object at 0x7454617ffb50</title>
<path fill="none" stroke="black" d="M591.3,-77.27C586.73,-75.43 582,-73.6 577.5,-72 529.92,-55.06 473.91,-38.91 437.84,-28.98"/>
<polygon fill="black" stroke="black" points="438.34,-25.49 427.77,-26.23 436.49,-32.24 438.34,-25.49"/>
</g>
<!-- ast.Name object at 0x745396b3ad50&#45;&gt;ast.Load object at 0x7454617ffb50 -->
<g id="edge38" class="edge">
<title>ast.Name object at 0x745396b3ad50&#45;&gt;ast.Load object at 0x7454617ffb50</title>
<path fill="none" stroke="black" d="M663.26,-75.32C660.34,-74.1 657.38,-72.97 654.5,-72 579.54,-46.87 487.97,-31.29 437.8,-23.97"/>
<polygon fill="black" stroke="black" points="438.14,-20.48 427.75,-22.53 437.15,-27.41 438.14,-20.48"/>
</g>
</g>
</svg>
