<?xml version="1.0" encoding="UTF-8" standalone="no"?>
<!DOCTYPE svg PUBLIC "-//W3C//DTD SVG 1.1//EN"
 "http://www.w3.org/Graphics/SVG/1.1/DTD/svg11.dtd">
<!-- Generated by graphviz version 2.50.0 (0)
 -->
<!-- Pages: 1 -->
<svg width="1457pt" height="692pt"
 viewBox="0.00 0.00 1456.99 692.00" xmlns="http://www.w3.org/2000/svg" xmlns:xlink="http://www.w3.org/1999/xlink">
<g id="graph0" class="graph" transform="scale(1 1) rotate(0) translate(4 688)">
<polygon fill="white" stroke="transparent" points="-4,4 -4,-688 1452.99,-688 1452.99,4 -4,4"/>
<!-- ast.Module object at 0x7e115452af90 -->
<g id="node1" class="node">
<title>ast.Module object at 0x7e115452af90</title>
<path fill="#66cdaa" stroke="black" d="M647.99,-684C647.99,-684 612.99,-684 612.99,-684 606.99,-684 600.99,-678 600.99,-672 600.99,-672 600.99,-660 600.99,-660 600.99,-654 606.99,-648 612.99,-648 612.99,-648 647.99,-648 647.99,-648 653.99,-648 659.99,-654 659.99,-660 659.99,-660 659.99,-672 659.99,-672 659.99,-678 653.99,-684 647.99,-684"/>
<text text-anchor="middle" x="630.49" y="-662.3" font-family="Times,serif" font-size="14.00">Module</text>
</g>
<!-- ast.ImportFrom object at 0x7e115452b590 -->
<g id="node2" class="node">
<title>ast.ImportFrom object at 0x7e115452b590</title>
<path fill="#66cdaa" stroke="black" d="M609.49,-612C609.49,-612 549.49,-612 549.49,-612 543.49,-612 537.49,-606 537.49,-600 537.49,-600 537.49,-588 537.49,-588 537.49,-582 543.49,-576 549.49,-576 549.49,-576 609.49,-576 609.49,-576 615.49,-576 621.49,-582 621.49,-588 621.49,-588 621.49,-600 621.49,-600 621.49,-606 615.49,-612 609.49,-612"/>
<text text-anchor="middle" x="579.49" y="-590.3" font-family="Times,serif" font-size="14.00">ImportFrom</text>
</g>
<!-- ast.Module object at 0x7e115452af90&#45;&gt;ast.ImportFrom object at 0x7e115452b590 -->
<g id="edge1" class="edge">
<title>ast.Module object at 0x7e115452af90&#45;&gt;ast.ImportFrom object at 0x7e115452b590</title>
<path fill="none" stroke="black" d="M617.88,-647.7C611.89,-639.47 604.61,-629.48 598.01,-620.42"/>
<polygon fill="black" stroke="black" points="600.67,-618.13 591.95,-612.1 595.01,-622.25 600.67,-618.13"/>
</g>
<!-- ast.FunctionDef object at 0x7e11546d6e50 -->
<g id="node4" class="node">
<title>ast.FunctionDef object at 0x7e11546d6e50</title>
<path fill="#66cdaa" stroke="black" d="M763.99,-612C763.99,-612 702.99,-612 702.99,-612 696.99,-612 690.99,-606 690.99,-600 690.99,-600 690.99,-588 690.99,-588 690.99,-582 696.99,-576 702.99,-576 702.99,-576 763.99,-576 763.99,-576 769.99,-576 775.99,-582 775.99,-588 775.99,-588 775.99,-600 775.99,-600 775.99,-606 769.99,-612 763.99,-612"/>
<text text-anchor="middle" x="733.49" y="-590.3" font-family="Times,serif" font-size="14.00">FunctionDef</text>
</g>
<!-- ast.Module object at 0x7e115452af90&#45;&gt;ast.FunctionDef object at 0x7e11546d6e50 -->
<g id="edge3" class="edge">
<title>ast.Module object at 0x7e115452af90&#45;&gt;ast.FunctionDef object at 0x7e11546d6e50</title>
<path fill="none" stroke="black" d="M655.68,-647.88C668.9,-638.89 685.28,-627.76 699.59,-618.03"/>
<polygon fill="black" stroke="black" points="701.89,-620.71 708.19,-612.19 697.95,-614.92 701.89,-620.71"/>
</g>
<!-- ast.alias object at 0x7e115452b250 -->
<g id="node3" class="node">
<title>ast.alias object at 0x7e115452b250</title>
<path fill="#66cdaa" stroke="black" d="M477.49,-540C477.49,-540 447.49,-540 447.49,-540 441.49,-540 435.49,-534 435.49,-528 435.49,-528 435.49,-516 435.49,-516 435.49,-510 441.49,-504 447.49,-504 447.49,-504 477.49,-504 477.49,-504 483.49,-504 489.49,-510 489.49,-516 489.49,-516 489.49,-528 489.49,-528 489.49,-534 483.49,-540 477.49,-540"/>
<text text-anchor="middle" x="462.49" y="-518.3" font-family="Times,serif" font-size="14.00">alias</text>
</g>
<!-- ast.ImportFrom object at 0x7e115452b590&#45;&gt;ast.alias object at 0x7e115452b250 -->
<g id="edge2" class="edge">
<title>ast.ImportFrom object at 0x7e115452b590&#45;&gt;ast.alias object at 0x7e115452b250</title>
<path fill="none" stroke="black" d="M550.86,-575.88C535.11,-566.45 515.4,-554.66 498.6,-544.61"/>
<polygon fill="black" stroke="black" points="499.98,-541.36 489.61,-539.23 496.39,-547.36 499.98,-541.36"/>
</g>
<!-- ast.arguments object at 0x7e115452af50 -->
<g id="node5" class="node">
<title>ast.arguments object at 0x7e115452af50</title>
<path fill="#66cdaa" stroke="black" d="M1222.49,-540C1222.49,-540 1172.49,-540 1172.49,-540 1166.49,-540 1160.49,-534 1160.49,-528 1160.49,-528 1160.49,-516 1160.49,-516 1160.49,-510 1166.49,-504 1172.49,-504 1172.49,-504 1222.49,-504 1222.49,-504 1228.49,-504 1234.49,-510 1234.49,-516 1234.49,-516 1234.49,-528 1234.49,-528 1234.49,-534 1228.49,-540 1222.49,-540"/>
<text text-anchor="middle" x="1197.49" y="-518.3" font-family="Times,serif" font-size="14.00">arguments</text>
</g>
<!-- ast.FunctionDef object at 0x7e11546d6e50&#45;&gt;ast.arguments object at 0x7e115452af50 -->
<g id="edge4" class="edge">
<title>ast.FunctionDef object at 0x7e11546d6e50&#45;&gt;ast.arguments object at 0x7e115452af50</title>
<path fill="none" stroke="black" d="M776.17,-587.7C846.02,-578.87 989.03,-560.11 1109.49,-540 1122.82,-537.77 1137.23,-535.1 1150.46,-532.54"/>
<polygon fill="black" stroke="black" points="1151.17,-535.97 1160.31,-530.62 1149.82,-529.1 1151.17,-535.97"/>
</g>
<!-- ast.Assign object at 0x7e115452b010 -->
<g id="node7" class="node">
<title>ast.Assign object at 0x7e115452b010</title>
<path fill="#66cdaa" stroke="black" d="M631.49,-468C631.49,-468 601.49,-468 601.49,-468 595.49,-468 589.49,-462 589.49,-456 589.49,-456 589.49,-444 589.49,-444 589.49,-438 595.49,-432 601.49,-432 601.49,-432 631.49,-432 631.49,-432 637.49,-432 643.49,-438 643.49,-444 643.49,-444 643.49,-456 643.49,-456 643.49,-462 637.49,-468 631.49,-468"/>
<text text-anchor="middle" x="616.49" y="-446.3" font-family="Times,serif" font-size="14.00">Assign</text>
</g>
<!-- ast.FunctionDef object at 0x7e11546d6e50&#45;&gt;ast.Assign object at 0x7e115452b010 -->
<g id="edge6" class="edge">
<title>ast.FunctionDef object at 0x7e11546d6e50&#45;&gt;ast.Assign object at 0x7e115452b010</title>
<path fill="none" stroke="black" d="M719.37,-575.87C698.91,-551.03 660.85,-504.85 637.2,-476.14"/>
<polygon fill="black" stroke="black" points="639.71,-473.68 630.65,-468.19 634.31,-478.13 639.71,-473.68"/>
</g>
<!-- ast.For object at 0x7e115452b1d0 -->
<g id="node14" class="node">
<title>ast.For object at 0x7e115452b1d0</title>
<path fill="#66cdaa" stroke="black" d="M549.49,-540C549.49,-540 519.49,-540 519.49,-540 513.49,-540 507.49,-534 507.49,-528 507.49,-528 507.49,-516 507.49,-516 507.49,-510 513.49,-504 519.49,-504 519.49,-504 549.49,-504 549.49,-504 555.49,-504 561.49,-510 561.49,-516 561.49,-516 561.49,-528 561.49,-528 561.49,-534 555.49,-540 549.49,-540"/>
<text text-anchor="middle" x="534.49" y="-518.3" font-family="Times,serif" font-size="14.00">For</text>
</g>
<!-- ast.FunctionDef object at 0x7e11546d6e50&#45;&gt;ast.For object at 0x7e115452b1d0 -->
<g id="edge14" class="edge">
<title>ast.FunctionDef object at 0x7e11546d6e50&#45;&gt;ast.For object at 0x7e115452b1d0</title>
<path fill="none" stroke="black" d="M690.8,-577.98C655.14,-565.44 604.86,-547.75 571.03,-535.86"/>
<polygon fill="black" stroke="black" points="572.13,-532.53 561.53,-532.51 569.8,-539.13 572.13,-532.53"/>
</g>
<!-- ast.Assign object at 0x7e11548c6590 -->
<g id="node41" class="node">
<title>ast.Assign object at 0x7e11548c6590</title>
<path fill="#66cdaa" stroke="black" d="M748.49,-540C748.49,-540 718.49,-540 718.49,-540 712.49,-540 706.49,-534 706.49,-528 706.49,-528 706.49,-516 706.49,-516 706.49,-510 712.49,-504 718.49,-504 718.49,-504 748.49,-504 748.49,-504 754.49,-504 760.49,-510 760.49,-516 760.49,-516 760.49,-528 760.49,-528 760.49,-534 754.49,-540 748.49,-540"/>
<text text-anchor="middle" x="733.49" y="-518.3" font-family="Times,serif" font-size="14.00">Assign</text>
</g>
<!-- ast.FunctionDef object at 0x7e11546d6e50&#45;&gt;ast.Assign object at 0x7e11548c6590 -->
<g id="edge55" class="edge">
<title>ast.FunctionDef object at 0x7e11546d6e50&#45;&gt;ast.Assign object at 0x7e11548c6590</title>
<path fill="none" stroke="black" d="M733.49,-575.7C733.49,-567.98 733.49,-558.71 733.49,-550.11"/>
<polygon fill="black" stroke="black" points="736.99,-550.1 733.49,-540.1 729.99,-550.1 736.99,-550.1"/>
</g>
<!-- ast.For object at 0x7e1154528490 -->
<g id="node44" class="node">
<title>ast.For object at 0x7e1154528490</title>
<path fill="#66cdaa" stroke="black" d="M931.49,-540C931.49,-540 901.49,-540 901.49,-540 895.49,-540 889.49,-534 889.49,-528 889.49,-528 889.49,-516 889.49,-516 889.49,-510 895.49,-504 901.49,-504 901.49,-504 931.49,-504 931.49,-504 937.49,-504 943.49,-510 943.49,-516 943.49,-516 943.49,-528 943.49,-528 943.49,-534 937.49,-540 931.49,-540"/>
<text text-anchor="middle" x="916.49" y="-518.3" font-family="Times,serif" font-size="14.00">For</text>
</g>
<!-- ast.FunctionDef object at 0x7e11546d6e50&#45;&gt;ast.For object at 0x7e1154528490 -->
<g id="edge59" class="edge">
<title>ast.FunctionDef object at 0x7e11546d6e50&#45;&gt;ast.For object at 0x7e1154528490</title>
<path fill="none" stroke="black" d="M776.39,-576.59C807.81,-564.57 849.99,-548.44 879.84,-537.02"/>
<polygon fill="black" stroke="black" points="881.36,-540.18 889.45,-533.34 878.86,-533.65 881.36,-540.18"/>
</g>
<!-- ast.Return object at 0x7e1154543150 -->
<g id="node73" class="node">
<title>ast.Return object at 0x7e1154543150</title>
<path fill="#66cdaa" stroke="black" d="M1088.49,-540C1088.49,-540 1058.49,-540 1058.49,-540 1052.49,-540 1046.49,-534 1046.49,-528 1046.49,-528 1046.49,-516 1046.49,-516 1046.49,-510 1052.49,-504 1058.49,-504 1058.49,-504 1088.49,-504 1088.49,-504 1094.49,-504 1100.49,-510 1100.49,-516 1100.49,-516 1100.49,-528 1100.49,-528 1100.49,-534 1094.49,-540 1088.49,-540"/>
<text text-anchor="middle" x="1073.49" y="-518.3" font-family="Times,serif" font-size="14.00">Return</text>
</g>
<!-- ast.FunctionDef object at 0x7e11546d6e50&#45;&gt;ast.Return object at 0x7e1154543150 -->
<g id="edge97" class="edge">
<title>ast.FunctionDef object at 0x7e11546d6e50&#45;&gt;ast.Return object at 0x7e1154543150</title>
<path fill="none" stroke="black" d="M776.2,-584.21C843.44,-570.36 972.85,-543.72 1036.41,-530.63"/>
<polygon fill="black" stroke="black" points="1037.3,-534.02 1046.39,-528.58 1035.89,-527.17 1037.3,-534.02"/>
</g>
<!-- ast.arg object at 0x7e115452afd0 -->
<g id="node6" class="node">
<title>ast.arg object at 0x7e115452afd0</title>
<path fill="#66cdaa" stroke="black" d="M1255.49,-468C1255.49,-468 1225.49,-468 1225.49,-468 1219.49,-468 1213.49,-462 1213.49,-456 1213.49,-456 1213.49,-444 1213.49,-444 1213.49,-438 1219.49,-432 1225.49,-432 1225.49,-432 1255.49,-432 1255.49,-432 1261.49,-432 1267.49,-438 1267.49,-444 1267.49,-444 1267.49,-456 1267.49,-456 1267.49,-462 1261.49,-468 1255.49,-468"/>
<text text-anchor="middle" x="1240.49" y="-446.3" font-family="Times,serif" font-size="14.00">arg</text>
</g>
<!-- ast.arguments object at 0x7e115452af50&#45;&gt;ast.arg object at 0x7e115452afd0 -->
<g id="edge5" class="edge">
<title>ast.arguments object at 0x7e115452af50&#45;&gt;ast.arg object at 0x7e115452afd0</title>
<path fill="none" stroke="black" d="M1208.12,-503.7C1213.11,-495.56 1219.18,-485.69 1224.7,-476.7"/>
<polygon fill="black" stroke="black" points="1227.73,-478.46 1229.98,-468.1 1221.76,-474.79 1227.73,-478.46"/>
</g>
<!-- ast.Name object at 0x7e115452b050 -->
<g id="node8" class="node">
<title>ast.Name object at 0x7e115452b050</title>
<path fill="#66cdaa" stroke="black" d="M732.49,-396C732.49,-396 702.49,-396 702.49,-396 696.49,-396 690.49,-390 690.49,-384 690.49,-384 690.49,-372 690.49,-372 690.49,-366 696.49,-360 702.49,-360 702.49,-360 732.49,-360 732.49,-360 738.49,-360 744.49,-366 744.49,-372 744.49,-372 744.49,-384 744.49,-384 744.49,-390 738.49,-396 732.49,-396"/>
<text text-anchor="middle" x="717.49" y="-374.3" font-family="Times,serif" font-size="14.00">Name</text>
</g>
<!-- ast.Assign object at 0x7e115452b010&#45;&gt;ast.Name object at 0x7e115452b050 -->
<g id="edge7" class="edge">
<title>ast.Assign object at 0x7e115452b010&#45;&gt;ast.Name object at 0x7e115452b050</title>
<path fill="none" stroke="black" d="M641.19,-431.88C654.15,-422.89 670.21,-411.76 684.25,-402.03"/>
<polygon fill="black" stroke="black" points="686.46,-404.76 692.68,-396.19 682.47,-399.01 686.46,-404.76"/>
</g>
<!-- ast.Call object at 0x7e115452b0d0 -->
<g id="node10" class="node">
<title>ast.Call object at 0x7e115452b0d0</title>
<path fill="#66cdaa" stroke="black" d="M682.49,-180C682.49,-180 652.49,-180 652.49,-180 646.49,-180 640.49,-174 640.49,-168 640.49,-168 640.49,-156 640.49,-156 640.49,-150 646.49,-144 652.49,-144 652.49,-144 682.49,-144 682.49,-144 688.49,-144 694.49,-150 694.49,-156 694.49,-156 694.49,-168 694.49,-168 694.49,-174 688.49,-180 682.49,-180"/>
<text text-anchor="middle" x="667.49" y="-158.3" font-family="Times,serif" font-size="14.00">Call</text>
</g>
<!-- ast.Assign object at 0x7e115452b010&#45;&gt;ast.Call object at 0x7e115452b0d0 -->
<g id="edge9" class="edge">
<title>ast.Assign object at 0x7e115452b010&#45;&gt;ast.Call object at 0x7e115452b0d0</title>
<path fill="none" stroke="black" d="M612.85,-431.86C609.57,-413.88 605.78,-384.83 609.49,-360 616.9,-310.36 628.37,-300.16 642.49,-252 648.6,-231.14 655.24,-207.45 660.14,-189.75"/>
<polygon fill="black" stroke="black" points="663.52,-190.67 662.81,-180.09 656.77,-188.8 663.52,-190.67"/>
</g>
<!-- ast.Store object at 0x7e1154dbd690 -->
<g id="node9" class="node">
<title>ast.Store object at 0x7e1154dbd690</title>
<path fill="#66cdaa" stroke="black" d="M740.49,-324C740.49,-324 710.49,-324 710.49,-324 704.49,-324 698.49,-318 698.49,-312 698.49,-312 698.49,-300 698.49,-300 698.49,-294 704.49,-288 710.49,-288 710.49,-288 740.49,-288 740.49,-288 746.49,-288 752.49,-294 752.49,-300 752.49,-300 752.49,-312 752.49,-312 752.49,-318 746.49,-324 740.49,-324"/>
<text text-anchor="middle" x="725.49" y="-302.3" font-family="Times,serif" font-size="14.00">Store</text>
</g>
<!-- ast.Name object at 0x7e115452b050&#45;&gt;ast.Store object at 0x7e1154dbd690 -->
<g id="edge8" class="edge">
<title>ast.Name object at 0x7e115452b050&#45;&gt;ast.Store object at 0x7e1154dbd690</title>
<path fill="none" stroke="black" d="M719.46,-359.7C720.35,-351.98 721.4,-342.71 722.39,-334.11"/>
<polygon fill="black" stroke="black" points="725.87,-334.44 723.53,-324.1 718.92,-333.64 725.87,-334.44"/>
</g>
<!-- ast.Name object at 0x7e115452b3d0 -->
<g id="node11" class="node">
<title>ast.Name object at 0x7e115452b3d0</title>
<path fill="#66cdaa" stroke="black" d="M733.49,-108C733.49,-108 703.49,-108 703.49,-108 697.49,-108 691.49,-102 691.49,-96 691.49,-96 691.49,-84 691.49,-84 691.49,-78 697.49,-72 703.49,-72 703.49,-72 733.49,-72 733.49,-72 739.49,-72 745.49,-78 745.49,-84 745.49,-84 745.49,-96 745.49,-96 745.49,-102 739.49,-108 733.49,-108"/>
<text text-anchor="middle" x="718.49" y="-86.3" font-family="Times,serif" font-size="14.00">Name</text>
</g>
<!-- ast.Call object at 0x7e115452b0d0&#45;&gt;ast.Name object at 0x7e115452b3d0 -->
<g id="edge10" class="edge">
<title>ast.Call object at 0x7e115452b0d0&#45;&gt;ast.Name object at 0x7e115452b3d0</title>
<path fill="none" stroke="black" d="M680.09,-143.7C686.08,-135.47 693.36,-125.48 699.97,-116.42"/>
<polygon fill="black" stroke="black" points="702.96,-118.25 706.02,-108.1 697.31,-114.13 702.96,-118.25"/>
</g>
<!-- ast.Name object at 0x7e115452b190 -->
<g id="node13" class="node">
<title>ast.Name object at 0x7e115452b190</title>
<path fill="#66cdaa" stroke="black" d="M661.49,-108C661.49,-108 631.49,-108 631.49,-108 625.49,-108 619.49,-102 619.49,-96 619.49,-96 619.49,-84 619.49,-84 619.49,-78 625.49,-72 631.49,-72 631.49,-72 661.49,-72 661.49,-72 667.49,-72 673.49,-78 673.49,-84 673.49,-84 673.49,-96 673.49,-96 673.49,-102 667.49,-108 661.49,-108"/>
<text text-anchor="middle" x="646.49" y="-86.3" font-family="Times,serif" font-size="14.00">Name</text>
</g>
<!-- ast.Call object at 0x7e115452b0d0&#45;&gt;ast.Name object at 0x7e115452b190 -->
<g id="edge12" class="edge">
<title>ast.Call object at 0x7e115452b0d0&#45;&gt;ast.Name object at 0x7e115452b190</title>
<path fill="none" stroke="black" d="M662.3,-143.7C659.96,-135.9 657.14,-126.51 654.54,-117.83"/>
<polygon fill="black" stroke="black" points="657.84,-116.68 651.62,-108.1 651.14,-118.69 657.84,-116.68"/>
</g>
<!-- ast.Load object at 0x7e1154dbd610 -->
<g id="node12" class="node">
<title>ast.Load object at 0x7e1154dbd610</title>
<path fill="#66cdaa" stroke="black" d="M551.49,-36C551.49,-36 521.49,-36 521.49,-36 515.49,-36 509.49,-30 509.49,-24 509.49,-24 509.49,-12 509.49,-12 509.49,-6 515.49,0 521.49,0 521.49,0 551.49,0 551.49,0 557.49,0 563.49,-6 563.49,-12 563.49,-12 563.49,-24 563.49,-24 563.49,-30 557.49,-36 551.49,-36"/>
<text text-anchor="middle" x="536.49" y="-14.3" font-family="Times,serif" font-size="14.00">Load</text>
</g>
<!-- ast.Name object at 0x7e115452b3d0&#45;&gt;ast.Load object at 0x7e1154dbd610 -->
<g id="edge11" class="edge">
<title>ast.Name object at 0x7e115452b3d0&#45;&gt;ast.Load object at 0x7e1154dbd610</title>
<path fill="none" stroke="black" d="M691.48,-75.92C688.46,-74.55 685.42,-73.22 682.49,-72 645.81,-56.72 602.99,-41.47 573.24,-31.28"/>
<polygon fill="black" stroke="black" points="574.28,-27.94 563.68,-28.03 572.02,-34.56 574.28,-27.94"/>
</g>
<!-- ast.Name object at 0x7e115452b190&#45;&gt;ast.Load object at 0x7e1154dbd610 -->
<g id="edge13" class="edge">
<title>ast.Name object at 0x7e115452b190&#45;&gt;ast.Load object at 0x7e1154dbd610</title>
<path fill="none" stroke="black" d="M619.58,-71.88C605.33,-62.81 587.64,-51.55 572.25,-41.76"/>
<polygon fill="black" stroke="black" points="573.81,-38.61 563.5,-36.19 570.06,-44.51 573.81,-38.61"/>
</g>
<!-- ast.Name object at 0x7e115452b2d0 -->
<g id="node15" class="node">
<title>ast.Name object at 0x7e115452b2d0</title>
<path fill="#66cdaa" stroke="black" d="M660.49,-396C660.49,-396 630.49,-396 630.49,-396 624.49,-396 618.49,-390 618.49,-384 618.49,-384 618.49,-372 618.49,-372 618.49,-366 624.49,-360 630.49,-360 630.49,-360 660.49,-360 660.49,-360 666.49,-360 672.49,-366 672.49,-372 672.49,-372 672.49,-384 672.49,-384 672.49,-390 666.49,-396 660.49,-396"/>
<text text-anchor="middle" x="645.49" y="-374.3" font-family="Times,serif" font-size="14.00">Name</text>
</g>
<!-- ast.For object at 0x7e115452b1d0&#45;&gt;ast.Name object at 0x7e115452b2d0 -->
<g id="edge15" class="edge">
<title>ast.For object at 0x7e115452b1d0&#45;&gt;ast.Name object at 0x7e115452b2d0</title>
<path fill="none" stroke="black" d="M540.93,-503.7C548.52,-484.81 562.4,-454.28 580.49,-432 589.41,-421.01 600.93,-410.72 611.79,-402.19"/>
<polygon fill="black" stroke="black" points="614.06,-404.86 619.91,-396.03 609.82,-399.29 614.06,-404.86"/>
</g>
<!-- ast.Name object at 0x7e115452b710 -->
<g id="node16" class="node">
<title>ast.Name object at 0x7e115452b710</title>
<path fill="#66cdaa" stroke="black" d="M50.49,-252C50.49,-252 20.49,-252 20.49,-252 14.49,-252 8.49,-246 8.49,-240 8.49,-240 8.49,-228 8.49,-228 8.49,-222 14.49,-216 20.49,-216 20.49,-216 50.49,-216 50.49,-216 56.49,-216 62.49,-222 62.49,-228 62.49,-228 62.49,-240 62.49,-240 62.49,-246 56.49,-252 50.49,-252"/>
<text text-anchor="middle" x="35.49" y="-230.3" font-family="Times,serif" font-size="14.00">Name</text>
</g>
<!-- ast.For object at 0x7e115452b1d0&#45;&gt;ast.Name object at 0x7e115452b710 -->
<g id="edge17" class="edge">
<title>ast.For object at 0x7e115452b1d0&#45;&gt;ast.Name object at 0x7e115452b710</title>
<path fill="none" stroke="black" d="M507.29,-507.17C504.37,-505.98 501.39,-504.89 498.49,-504 398.3,-473.31 358.79,-515.7 265.49,-468 167.34,-417.82 85.9,-309.96 52.18,-260.6"/>
<polygon fill="black" stroke="black" points="54.94,-258.43 46.45,-252.09 49.14,-262.34 54.94,-258.43"/>
</g>
<!-- ast.Assign object at 0x7e115452b310 -->
<g id="node17" class="node">
<title>ast.Assign object at 0x7e115452b310</title>
<path fill="#66cdaa" stroke="black" d="M521.49,-468C521.49,-468 491.49,-468 491.49,-468 485.49,-468 479.49,-462 479.49,-456 479.49,-456 479.49,-444 479.49,-444 479.49,-438 485.49,-432 491.49,-432 491.49,-432 521.49,-432 521.49,-432 527.49,-432 533.49,-438 533.49,-444 533.49,-444 533.49,-456 533.49,-456 533.49,-462 527.49,-468 521.49,-468"/>
<text text-anchor="middle" x="506.49" y="-446.3" font-family="Times,serif" font-size="14.00">Assign</text>
</g>
<!-- ast.For object at 0x7e115452b1d0&#45;&gt;ast.Assign object at 0x7e115452b310 -->
<g id="edge19" class="edge">
<title>ast.For object at 0x7e115452b1d0&#45;&gt;ast.Assign object at 0x7e115452b310</title>
<path fill="none" stroke="black" d="M527.56,-503.7C524.41,-495.81 520.61,-486.3 517.1,-477.55"/>
<polygon fill="black" stroke="black" points="520.29,-476.09 513.33,-468.1 513.79,-478.69 520.29,-476.09"/>
</g>
<!-- ast.If object at 0x7e115452bfd0 -->
<g id="node27" class="node">
<title>ast.If object at 0x7e115452bfd0</title>
<path fill="#66cdaa" stroke="black" d="M316.49,-468C316.49,-468 286.49,-468 286.49,-468 280.49,-468 274.49,-462 274.49,-456 274.49,-456 274.49,-444 274.49,-444 274.49,-438 280.49,-432 286.49,-432 286.49,-432 316.49,-432 316.49,-432 322.49,-432 328.49,-438 328.49,-444 328.49,-444 328.49,-456 328.49,-456 328.49,-462 322.49,-468 316.49,-468"/>
<text text-anchor="middle" x="301.49" y="-446.3" font-family="Times,serif" font-size="14.00">If</text>
</g>
<!-- ast.For object at 0x7e115452b1d0&#45;&gt;ast.If object at 0x7e115452bfd0 -->
<g id="edge34" class="edge">
<title>ast.For object at 0x7e115452b1d0&#45;&gt;ast.If object at 0x7e115452bfd0</title>
<path fill="none" stroke="black" d="M507.18,-507.49C504.28,-506.24 501.34,-505.05 498.49,-504 444.05,-484.01 378.65,-467.91 338.59,-458.9"/>
<polygon fill="black" stroke="black" points="339.25,-455.46 328.73,-456.71 337.73,-462.29 339.25,-455.46"/>
</g>
<!-- ast.Name object at 0x7e115452b2d0&#45;&gt;ast.Store object at 0x7e1154dbd690 -->
<g id="edge16" class="edge">
<title>ast.Name object at 0x7e115452b2d0&#45;&gt;ast.Store object at 0x7e1154dbd690</title>
<path fill="none" stroke="black" d="M665.26,-359.7C675.24,-350.97 687.5,-340.24 698.34,-330.75"/>
<polygon fill="black" stroke="black" points="700.72,-333.32 705.94,-324.1 696.11,-328.06 700.72,-333.32"/>
</g>
<!-- ast.Name object at 0x7e115452b710&#45;&gt;ast.Load object at 0x7e1154dbd610 -->
<g id="edge18" class="edge">
<title>ast.Name object at 0x7e115452b710&#45;&gt;ast.Load object at 0x7e1154dbd610</title>
<path fill="none" stroke="black" d="M21.92,-215.97C14.93,-206.09 7.12,-193.05 3.49,-180 -2.22,-159.5 -0.28,-79.17 6.49,-72 40.26,-36.21 384.28,-23.3 499.28,-19.96"/>
<polygon fill="black" stroke="black" points="499.46,-23.46 509.36,-19.67 499.27,-16.46 499.46,-23.46"/>
</g>
<!-- ast.Name object at 0x7e115452b350 -->
<g id="node18" class="node">
<title>ast.Name object at 0x7e115452b350</title>
<path fill="#66cdaa" stroke="black" d="M550.49,-396C550.49,-396 520.49,-396 520.49,-396 514.49,-396 508.49,-390 508.49,-384 508.49,-384 508.49,-372 508.49,-372 508.49,-366 514.49,-360 520.49,-360 520.49,-360 550.49,-360 550.49,-360 556.49,-360 562.49,-366 562.49,-372 562.49,-372 562.49,-384 562.49,-384 562.49,-390 556.49,-396 550.49,-396"/>
<text text-anchor="middle" x="535.49" y="-374.3" font-family="Times,serif" font-size="14.00">Name</text>
</g>
<!-- ast.Assign object at 0x7e115452b310&#45;&gt;ast.Name object at 0x7e115452b350 -->
<g id="edge20" class="edge">
<title>ast.Assign object at 0x7e115452b310&#45;&gt;ast.Name object at 0x7e115452b350</title>
<path fill="none" stroke="black" d="M513.65,-431.7C516.92,-423.81 520.86,-414.3 524.49,-405.55"/>
<polygon fill="black" stroke="black" points="527.81,-406.68 528.4,-396.1 521.34,-404 527.81,-406.68"/>
</g>
<!-- ast.Call object at 0x7e115452b490 -->
<g id="node19" class="node">
<title>ast.Call object at 0x7e115452b490</title>
<path fill="#66cdaa" stroke="black" d="M478.49,-396C478.49,-396 448.49,-396 448.49,-396 442.49,-396 436.49,-390 436.49,-384 436.49,-384 436.49,-372 436.49,-372 436.49,-366 442.49,-360 448.49,-360 448.49,-360 478.49,-360 478.49,-360 484.49,-360 490.49,-366 490.49,-372 490.49,-372 490.49,-384 490.49,-384 490.49,-390 484.49,-396 478.49,-396"/>
<text text-anchor="middle" x="463.49" y="-374.3" font-family="Times,serif" font-size="14.00">Call</text>
</g>
<!-- ast.Assign object at 0x7e115452b310&#45;&gt;ast.Call object at 0x7e115452b490 -->
<g id="edge22" class="edge">
<title>ast.Assign object at 0x7e115452b310&#45;&gt;ast.Call object at 0x7e115452b490</title>
<path fill="none" stroke="black" d="M495.86,-431.7C490.86,-423.56 484.8,-413.69 479.27,-404.7"/>
<polygon fill="black" stroke="black" points="482.21,-402.79 473.99,-396.1 476.25,-406.46 482.21,-402.79"/>
</g>
<!-- ast.Name object at 0x7e115452b350&#45;&gt;ast.Store object at 0x7e1154dbd690 -->
<g id="edge21" class="edge">
<title>ast.Name object at 0x7e115452b350&#45;&gt;ast.Store object at 0x7e1154dbd690</title>
<path fill="none" stroke="black" d="M562.71,-366.97C595.86,-354.76 652,-334.07 688.91,-320.48"/>
<polygon fill="black" stroke="black" points="690.14,-323.75 698.31,-317.01 687.72,-317.18 690.14,-323.75"/>
</g>
<!-- ast.Attribute object at 0x7e115452b450 -->
<g id="node20" class="node">
<title>ast.Attribute object at 0x7e115452b450</title>
<path fill="#66cdaa" stroke="black" d="M476.99,-324C476.99,-324 435.99,-324 435.99,-324 429.99,-324 423.99,-318 423.99,-312 423.99,-312 423.99,-300 423.99,-300 423.99,-294 429.99,-288 435.99,-288 435.99,-288 476.99,-288 476.99,-288 482.99,-288 488.99,-294 488.99,-300 488.99,-300 488.99,-312 488.99,-312 488.99,-318 482.99,-324 476.99,-324"/>
<text text-anchor="middle" x="456.49" y="-302.3" font-family="Times,serif" font-size="14.00">Attribute</text>
</g>
<!-- ast.Call object at 0x7e115452b490&#45;&gt;ast.Attribute object at 0x7e115452b450 -->
<g id="edge23" class="edge">
<title>ast.Call object at 0x7e115452b490&#45;&gt;ast.Attribute object at 0x7e115452b450</title>
<path fill="none" stroke="black" d="M461.76,-359.7C460.98,-351.98 460.06,-342.71 459.2,-334.11"/>
<polygon fill="black" stroke="black" points="462.67,-333.71 458.2,-324.1 455.71,-334.4 462.67,-333.71"/>
</g>
<!-- ast.Call object at 0x7e115452b610 -->
<g id="node22" class="node">
<title>ast.Call object at 0x7e115452b610</title>
<path fill="#66cdaa" stroke="black" d="M549.49,-324C549.49,-324 519.49,-324 519.49,-324 513.49,-324 507.49,-318 507.49,-312 507.49,-312 507.49,-300 507.49,-300 507.49,-294 513.49,-288 519.49,-288 519.49,-288 549.49,-288 549.49,-288 555.49,-288 561.49,-294 561.49,-300 561.49,-300 561.49,-312 561.49,-312 561.49,-318 555.49,-324 549.49,-324"/>
<text text-anchor="middle" x="534.49" y="-302.3" font-family="Times,serif" font-size="14.00">Call</text>
</g>
<!-- ast.Call object at 0x7e115452b490&#45;&gt;ast.Call object at 0x7e115452b610 -->
<g id="edge26" class="edge">
<title>ast.Call object at 0x7e115452b490&#45;&gt;ast.Call object at 0x7e115452b610</title>
<path fill="none" stroke="black" d="M481.04,-359.7C489.72,-351.14 500.35,-340.66 509.83,-331.3"/>
<polygon fill="black" stroke="black" points="512.47,-333.62 517.14,-324.1 507.56,-328.63 512.47,-333.62"/>
</g>
<!-- ast.Attribute object at 0x7e115452b450&#45;&gt;ast.Load object at 0x7e1154dbd610 -->
<g id="edge25" class="edge">
<title>ast.Attribute object at 0x7e115452b450&#45;&gt;ast.Load object at 0x7e1154dbd610</title>
<path fill="none" stroke="black" d="M437.88,-287.76C428.96,-278.2 419.2,-265.53 414.49,-252 409.23,-236.89 410.56,-231.51 414.49,-216 431.96,-147.05 483.5,-79.36 513.71,-44.09"/>
<polygon fill="black" stroke="black" points="516.61,-46.09 520.54,-36.25 511.33,-41.49 516.61,-46.09"/>
</g>
<!-- ast.Constant object at 0x7e115452b5d0 -->
<g id="node21" class="node">
<title>ast.Constant object at 0x7e115452b5d0</title>
<path fill="#66cdaa" stroke="black" d="M476.99,-252C476.99,-252 435.99,-252 435.99,-252 429.99,-252 423.99,-246 423.99,-240 423.99,-240 423.99,-228 423.99,-228 423.99,-222 429.99,-216 435.99,-216 435.99,-216 476.99,-216 476.99,-216 482.99,-216 488.99,-222 488.99,-228 488.99,-228 488.99,-240 488.99,-240 488.99,-246 482.99,-252 476.99,-252"/>
<text text-anchor="middle" x="456.49" y="-230.3" font-family="Times,serif" font-size="14.00">Constant</text>
</g>
<!-- ast.Attribute object at 0x7e115452b450&#45;&gt;ast.Constant object at 0x7e115452b5d0 -->
<g id="edge24" class="edge">
<title>ast.Attribute object at 0x7e115452b450&#45;&gt;ast.Constant object at 0x7e115452b5d0</title>
<path fill="none" stroke="black" d="M456.49,-287.7C456.49,-279.98 456.49,-270.71 456.49,-262.11"/>
<polygon fill="black" stroke="black" points="459.99,-262.1 456.49,-252.1 452.99,-262.1 459.99,-262.1"/>
</g>
<!-- ast.Name object at 0x7e115452b690 -->
<g id="node23" class="node">
<title>ast.Name object at 0x7e115452b690</title>
<path fill="#66cdaa" stroke="black" d="M549.49,-252C549.49,-252 519.49,-252 519.49,-252 513.49,-252 507.49,-246 507.49,-240 507.49,-240 507.49,-228 507.49,-228 507.49,-222 513.49,-216 519.49,-216 519.49,-216 549.49,-216 549.49,-216 555.49,-216 561.49,-222 561.49,-228 561.49,-228 561.49,-240 561.49,-240 561.49,-246 555.49,-252 549.49,-252"/>
<text text-anchor="middle" x="534.49" y="-230.3" font-family="Times,serif" font-size="14.00">Name</text>
</g>
<!-- ast.Call object at 0x7e115452b610&#45;&gt;ast.Name object at 0x7e115452b690 -->
<g id="edge27" class="edge">
<title>ast.Call object at 0x7e115452b610&#45;&gt;ast.Name object at 0x7e115452b690</title>
<path fill="none" stroke="black" d="M534.49,-287.7C534.49,-279.98 534.49,-270.71 534.49,-262.11"/>
<polygon fill="black" stroke="black" points="537.99,-262.1 534.49,-252.1 530.99,-262.1 537.99,-262.1"/>
</g>
<!-- ast.Call object at 0x7e115452b750 -->
<g id="node24" class="node">
<title>ast.Call object at 0x7e115452b750</title>
<path fill="#66cdaa" stroke="black" d="M621.49,-252C621.49,-252 591.49,-252 591.49,-252 585.49,-252 579.49,-246 579.49,-240 579.49,-240 579.49,-228 579.49,-228 579.49,-222 585.49,-216 591.49,-216 591.49,-216 621.49,-216 621.49,-216 627.49,-216 633.49,-222 633.49,-228 633.49,-228 633.49,-240 633.49,-240 633.49,-246 627.49,-252 621.49,-252"/>
<text text-anchor="middle" x="606.49" y="-230.3" font-family="Times,serif" font-size="14.00">Call</text>
</g>
<!-- ast.Call object at 0x7e115452b610&#45;&gt;ast.Call object at 0x7e115452b750 -->
<g id="edge29" class="edge">
<title>ast.Call object at 0x7e115452b610&#45;&gt;ast.Call object at 0x7e115452b750</title>
<path fill="none" stroke="black" d="M552.28,-287.7C561.09,-279.14 571.87,-268.66 581.49,-259.3"/>
<polygon fill="black" stroke="black" points="584.16,-261.58 588.89,-252.1 579.28,-256.57 584.16,-261.58"/>
</g>
<!-- ast.Name object at 0x7e115452b690&#45;&gt;ast.Load object at 0x7e1154dbd610 -->
<g id="edge28" class="edge">
<title>ast.Name object at 0x7e115452b690&#45;&gt;ast.Load object at 0x7e1154dbd610</title>
<path fill="none" stroke="black" d="M525.22,-215.82C510.44,-186.1 484.7,-123.34 500.49,-72 503.5,-62.22 508.99,-52.62 514.8,-44.33"/>
<polygon fill="black" stroke="black" points="517.68,-46.33 520.88,-36.23 512.08,-42.13 517.68,-46.33"/>
</g>
<!-- ast.Attribute object at 0x7e115452b7d0 -->
<g id="node25" class="node">
<title>ast.Attribute object at 0x7e115452b7d0</title>
<path fill="#66cdaa" stroke="black" d="M609.99,-180C609.99,-180 568.99,-180 568.99,-180 562.99,-180 556.99,-174 556.99,-168 556.99,-168 556.99,-156 556.99,-156 556.99,-150 562.99,-144 568.99,-144 568.99,-144 609.99,-144 609.99,-144 615.99,-144 621.99,-150 621.99,-156 621.99,-156 621.99,-168 621.99,-168 621.99,-174 615.99,-180 609.99,-180"/>
<text text-anchor="middle" x="589.49" y="-158.3" font-family="Times,serif" font-size="14.00">Attribute</text>
</g>
<!-- ast.Call object at 0x7e115452b750&#45;&gt;ast.Attribute object at 0x7e115452b7d0 -->
<g id="edge30" class="edge">
<title>ast.Call object at 0x7e115452b750&#45;&gt;ast.Attribute object at 0x7e115452b7d0</title>
<path fill="none" stroke="black" d="M602.28,-215.7C600.39,-207.9 598.11,-198.51 596,-189.83"/>
<polygon fill="black" stroke="black" points="599.4,-189 593.64,-180.1 592.6,-190.65 599.4,-189"/>
</g>
<!-- ast.Attribute object at 0x7e115452b7d0&#45;&gt;ast.Load object at 0x7e1154dbd610 -->
<g id="edge33" class="edge">
<title>ast.Attribute object at 0x7e115452b7d0&#45;&gt;ast.Load object at 0x7e1154dbd610</title>
<path fill="none" stroke="black" d="M588.27,-143.68C586.51,-125.29 582.3,-95.69 572.49,-72 568.51,-62.39 562.63,-52.73 556.77,-44.34"/>
<polygon fill="black" stroke="black" points="559.48,-42.11 550.76,-36.1 553.83,-46.24 559.48,-42.11"/>
</g>
<!-- ast.Name object at 0x7e115452bf90 -->
<g id="node26" class="node">
<title>ast.Name object at 0x7e115452bf90</title>
<path fill="#66cdaa" stroke="black" d="M551.49,-108C551.49,-108 521.49,-108 521.49,-108 515.49,-108 509.49,-102 509.49,-96 509.49,-96 509.49,-84 509.49,-84 509.49,-78 515.49,-72 521.49,-72 521.49,-72 551.49,-72 551.49,-72 557.49,-72 563.49,-78 563.49,-84 563.49,-84 563.49,-96 563.49,-96 563.49,-102 557.49,-108 551.49,-108"/>
<text text-anchor="middle" x="536.49" y="-86.3" font-family="Times,serif" font-size="14.00">Name</text>
</g>
<!-- ast.Attribute object at 0x7e115452b7d0&#45;&gt;ast.Name object at 0x7e115452bf90 -->
<g id="edge31" class="edge">
<title>ast.Attribute object at 0x7e115452b7d0&#45;&gt;ast.Name object at 0x7e115452bf90</title>
<path fill="none" stroke="black" d="M576.39,-143.7C570.1,-135.39 562.44,-125.28 555.52,-116.14"/>
<polygon fill="black" stroke="black" points="558.26,-113.96 549.44,-108.1 552.68,-118.19 558.26,-113.96"/>
</g>
<!-- ast.Name object at 0x7e115452bf90&#45;&gt;ast.Load object at 0x7e1154dbd610 -->
<g id="edge32" class="edge">
<title>ast.Name object at 0x7e115452bf90&#45;&gt;ast.Load object at 0x7e1154dbd610</title>
<path fill="none" stroke="black" d="M536.49,-71.7C536.49,-63.98 536.49,-54.71 536.49,-46.11"/>
<polygon fill="black" stroke="black" points="539.99,-46.1 536.49,-36.1 532.99,-46.1 539.99,-46.1"/>
</g>
<!-- ast.Compare object at 0x7e115452add0 -->
<g id="node28" class="node">
<title>ast.Compare object at 0x7e115452add0</title>
<path fill="#66cdaa" stroke="black" d="M173.99,-252C173.99,-252 130.99,-252 130.99,-252 124.99,-252 118.99,-246 118.99,-240 118.99,-240 118.99,-228 118.99,-228 118.99,-222 124.99,-216 130.99,-216 130.99,-216 173.99,-216 173.99,-216 179.99,-216 185.99,-222 185.99,-228 185.99,-228 185.99,-240 185.99,-240 185.99,-246 179.99,-252 173.99,-252"/>
<text text-anchor="middle" x="152.49" y="-230.3" font-family="Times,serif" font-size="14.00">Compare</text>
</g>
<!-- ast.If object at 0x7e115452bfd0&#45;&gt;ast.Compare object at 0x7e115452add0 -->
<g id="edge35" class="edge">
<title>ast.If object at 0x7e115452bfd0&#45;&gt;ast.Compare object at 0x7e115452add0</title>
<path fill="none" stroke="black" d="M289.54,-431.85C263.44,-394.36 201.19,-304.95 170.38,-260.7"/>
<polygon fill="black" stroke="black" points="173.07,-258.44 164.48,-252.23 167.33,-262.44 173.07,-258.44"/>
</g>
<!-- ast.Expr object at 0x7e1154528350 -->
<g id="node34" class="node">
<title>ast.Expr object at 0x7e1154528350</title>
<path fill="#66cdaa" stroke="black" d="M316.49,-396C316.49,-396 286.49,-396 286.49,-396 280.49,-396 274.49,-390 274.49,-384 274.49,-384 274.49,-372 274.49,-372 274.49,-366 280.49,-360 286.49,-360 286.49,-360 316.49,-360 316.49,-360 322.49,-360 328.49,-366 328.49,-372 328.49,-372 328.49,-384 328.49,-384 328.49,-390 322.49,-396 316.49,-396"/>
<text text-anchor="middle" x="301.49" y="-374.3" font-family="Times,serif" font-size="14.00">Expr</text>
</g>
<!-- ast.If object at 0x7e115452bfd0&#45;&gt;ast.Expr object at 0x7e1154528350 -->
<g id="edge43" class="edge">
<title>ast.If object at 0x7e115452bfd0&#45;&gt;ast.Expr object at 0x7e1154528350</title>
<path fill="none" stroke="black" d="M301.49,-431.7C301.49,-423.98 301.49,-414.71 301.49,-406.11"/>
<polygon fill="black" stroke="black" points="304.99,-406.1 301.49,-396.1 297.99,-406.1 304.99,-406.1"/>
</g>
<!-- ast.Call object at 0x7e115452ae50 -->
<g id="node29" class="node">
<title>ast.Call object at 0x7e115452ae50</title>
<path fill="#66cdaa" stroke="black" d="M54.49,-180C54.49,-180 24.49,-180 24.49,-180 18.49,-180 12.49,-174 12.49,-168 12.49,-168 12.49,-156 12.49,-156 12.49,-150 18.49,-144 24.49,-144 24.49,-144 54.49,-144 54.49,-144 60.49,-144 66.49,-150 66.49,-156 66.49,-156 66.49,-168 66.49,-168 66.49,-174 60.49,-180 54.49,-180"/>
<text text-anchor="middle" x="39.49" y="-158.3" font-family="Times,serif" font-size="14.00">Call</text>
</g>
<!-- ast.Compare object at 0x7e115452add0&#45;&gt;ast.Call object at 0x7e115452ae50 -->
<g id="edge36" class="edge">
<title>ast.Compare object at 0x7e115452add0&#45;&gt;ast.Call object at 0x7e115452ae50</title>
<path fill="none" stroke="black" d="M124.84,-215.88C109.96,-206.66 91.42,-195.17 75.43,-185.26"/>
<polygon fill="black" stroke="black" points="77.19,-182.24 66.84,-179.95 73.5,-188.19 77.19,-182.24"/>
</g>
<!-- ast.GtE object at 0x7e1154dbe890 -->
<g id="node32" class="node">
<title>ast.GtE object at 0x7e1154dbe890</title>
<path fill="#66cdaa" stroke="black" d="M126.49,-180C126.49,-180 96.49,-180 96.49,-180 90.49,-180 84.49,-174 84.49,-168 84.49,-168 84.49,-156 84.49,-156 84.49,-150 90.49,-144 96.49,-144 96.49,-144 126.49,-144 126.49,-144 132.49,-144 138.49,-150 138.49,-156 138.49,-156 138.49,-168 138.49,-168 138.49,-174 132.49,-180 126.49,-180"/>
<text text-anchor="middle" x="111.49" y="-158.3" font-family="Times,serif" font-size="14.00">GtE</text>
</g>
<!-- ast.Compare object at 0x7e115452add0&#45;&gt;ast.GtE object at 0x7e1154dbe890 -->
<g id="edge41" class="edge">
<title>ast.Compare object at 0x7e115452add0&#45;&gt;ast.GtE object at 0x7e1154dbe890</title>
<path fill="none" stroke="black" d="M142.35,-215.7C137.63,-207.64 131.92,-197.89 126.7,-188.98"/>
<polygon fill="black" stroke="black" points="129.58,-186.96 121.5,-180.1 123.54,-190.5 129.58,-186.96"/>
</g>
<!-- ast.Constant object at 0x7e11545281d0 -->
<g id="node33" class="node">
<title>ast.Constant object at 0x7e11545281d0</title>
<path fill="#66cdaa" stroke="black" d="M209.99,-180C209.99,-180 168.99,-180 168.99,-180 162.99,-180 156.99,-174 156.99,-168 156.99,-168 156.99,-156 156.99,-156 156.99,-150 162.99,-144 168.99,-144 168.99,-144 209.99,-144 209.99,-144 215.99,-144 221.99,-150 221.99,-156 221.99,-156 221.99,-168 221.99,-168 221.99,-174 215.99,-180 209.99,-180"/>
<text text-anchor="middle" x="189.49" y="-158.3" font-family="Times,serif" font-size="14.00">Constant</text>
</g>
<!-- ast.Compare object at 0x7e115452add0&#45;&gt;ast.Constant object at 0x7e11545281d0 -->
<g id="edge42" class="edge">
<title>ast.Compare object at 0x7e115452add0&#45;&gt;ast.Constant object at 0x7e11545281d0</title>
<path fill="none" stroke="black" d="M161.63,-215.7C165.89,-207.64 171.04,-197.89 175.75,-188.98"/>
<polygon fill="black" stroke="black" points="178.87,-190.58 180.45,-180.1 172.68,-187.31 178.87,-190.58"/>
</g>
<!-- ast.Name object at 0x7e115452ae10 -->
<g id="node30" class="node">
<title>ast.Name object at 0x7e115452ae10</title>
<path fill="#66cdaa" stroke="black" d="M144.49,-108C144.49,-108 114.49,-108 114.49,-108 108.49,-108 102.49,-102 102.49,-96 102.49,-96 102.49,-84 102.49,-84 102.49,-78 108.49,-72 114.49,-72 114.49,-72 144.49,-72 144.49,-72 150.49,-72 156.49,-78 156.49,-84 156.49,-84 156.49,-96 156.49,-96 156.49,-102 150.49,-108 144.49,-108"/>
<text text-anchor="middle" x="129.49" y="-86.3" font-family="Times,serif" font-size="14.00">Name</text>
</g>
<!-- ast.Call object at 0x7e115452ae50&#45;&gt;ast.Name object at 0x7e115452ae10 -->
<g id="edge37" class="edge">
<title>ast.Call object at 0x7e115452ae50&#45;&gt;ast.Name object at 0x7e115452ae10</title>
<path fill="none" stroke="black" d="M61.73,-143.7C73.07,-134.88 87.02,-124.03 99.31,-114.47"/>
<polygon fill="black" stroke="black" points="101.75,-117.01 107.5,-108.1 97.45,-111.48 101.75,-117.01"/>
</g>
<!-- ast.Name object at 0x7e115452bad0 -->
<g id="node31" class="node">
<title>ast.Name object at 0x7e115452bad0</title>
<path fill="#66cdaa" stroke="black" d="M57.49,-108C57.49,-108 27.49,-108 27.49,-108 21.49,-108 15.49,-102 15.49,-96 15.49,-96 15.49,-84 15.49,-84 15.49,-78 21.49,-72 27.49,-72 27.49,-72 57.49,-72 57.49,-72 63.49,-72 69.49,-78 69.49,-84 69.49,-84 69.49,-96 69.49,-96 69.49,-102 63.49,-108 57.49,-108"/>
<text text-anchor="middle" x="42.49" y="-86.3" font-family="Times,serif" font-size="14.00">Name</text>
</g>
<!-- ast.Call object at 0x7e115452ae50&#45;&gt;ast.Name object at 0x7e115452bad0 -->
<g id="edge39" class="edge">
<title>ast.Call object at 0x7e115452ae50&#45;&gt;ast.Name object at 0x7e115452bad0</title>
<path fill="none" stroke="black" d="M40.23,-143.7C40.56,-135.98 40.96,-126.71 41.32,-118.11"/>
<polygon fill="black" stroke="black" points="44.82,-118.25 41.75,-108.1 37.83,-117.95 44.82,-118.25"/>
</g>
<!-- ast.Name object at 0x7e115452ae10&#45;&gt;ast.Load object at 0x7e1154dbd610 -->
<g id="edge38" class="edge">
<title>ast.Name object at 0x7e115452ae10&#45;&gt;ast.Load object at 0x7e1154dbd610</title>
<path fill="none" stroke="black" d="M156.72,-76.88C161.57,-75.04 166.63,-73.32 171.49,-72 288.82,-40.23 432.86,-26.43 499.47,-21.42"/>
<polygon fill="black" stroke="black" points="499.76,-24.91 509.48,-20.69 499.25,-17.93 499.76,-24.91"/>
</g>
<!-- ast.Name object at 0x7e115452bad0&#45;&gt;ast.Load object at 0x7e1154dbd610 -->
<g id="edge40" class="edge">
<title>ast.Name object at 0x7e115452bad0&#45;&gt;ast.Load object at 0x7e1154dbd610</title>
<path fill="none" stroke="black" d="M69.73,-78.79C77.33,-76.25 85.65,-73.75 93.49,-72 241.65,-38.8 422.66,-25.37 499.34,-20.9"/>
<polygon fill="black" stroke="black" points="499.66,-24.38 509.45,-20.32 499.27,-17.4 499.66,-24.38"/>
</g>
<!-- ast.Call object at 0x7e11545283d0 -->
<g id="node35" class="node">
<title>ast.Call object at 0x7e11545283d0</title>
<path fill="#66cdaa" stroke="black" d="M316.49,-324C316.49,-324 286.49,-324 286.49,-324 280.49,-324 274.49,-318 274.49,-312 274.49,-312 274.49,-300 274.49,-300 274.49,-294 280.49,-288 286.49,-288 286.49,-288 316.49,-288 316.49,-288 322.49,-288 328.49,-294 328.49,-300 328.49,-300 328.49,-312 328.49,-312 328.49,-318 322.49,-324 316.49,-324"/>
<text text-anchor="middle" x="301.49" y="-302.3" font-family="Times,serif" font-size="14.00">Call</text>
</g>
<!-- ast.Expr object at 0x7e1154528350&#45;&gt;ast.Call object at 0x7e11545283d0 -->
<g id="edge44" class="edge">
<title>ast.Expr object at 0x7e1154528350&#45;&gt;ast.Call object at 0x7e11545283d0</title>
<path fill="none" stroke="black" d="M301.49,-359.7C301.49,-351.98 301.49,-342.71 301.49,-334.11"/>
<polygon fill="black" stroke="black" points="304.99,-334.1 301.49,-324.1 297.99,-334.1 304.99,-334.1"/>
</g>
<!-- ast.Attribute object at 0x7e1154528090 -->
<g id="node36" class="node">
<title>ast.Attribute object at 0x7e1154528090</title>
<path fill="#66cdaa" stroke="black" d="M282.99,-252C282.99,-252 241.99,-252 241.99,-252 235.99,-252 229.99,-246 229.99,-240 229.99,-240 229.99,-228 229.99,-228 229.99,-222 235.99,-216 241.99,-216 241.99,-216 282.99,-216 282.99,-216 288.99,-216 294.99,-222 294.99,-228 294.99,-228 294.99,-240 294.99,-240 294.99,-246 288.99,-252 282.99,-252"/>
<text text-anchor="middle" x="262.49" y="-230.3" font-family="Times,serif" font-size="14.00">Attribute</text>
</g>
<!-- ast.Call object at 0x7e11545283d0&#45;&gt;ast.Attribute object at 0x7e1154528090 -->
<g id="edge45" class="edge">
<title>ast.Call object at 0x7e11545283d0&#45;&gt;ast.Attribute object at 0x7e1154528090</title>
<path fill="none" stroke="black" d="M291.85,-287.7C287.36,-279.64 281.93,-269.89 276.96,-260.98"/>
<polygon fill="black" stroke="black" points="279.94,-259.14 272.02,-252.1 273.83,-262.54 279.94,-259.14"/>
</g>
<!-- ast.Name object at 0x7e1154528290 -->
<g id="node40" class="node">
<title>ast.Name object at 0x7e1154528290</title>
<path fill="#66cdaa" stroke="black" d="M355.49,-252C355.49,-252 325.49,-252 325.49,-252 319.49,-252 313.49,-246 313.49,-240 313.49,-240 313.49,-228 313.49,-228 313.49,-222 319.49,-216 325.49,-216 325.49,-216 355.49,-216 355.49,-216 361.49,-216 367.49,-222 367.49,-228 367.49,-228 367.49,-240 367.49,-240 367.49,-246 361.49,-252 355.49,-252"/>
<text text-anchor="middle" x="340.49" y="-230.3" font-family="Times,serif" font-size="14.00">Name</text>
</g>
<!-- ast.Call object at 0x7e11545283d0&#45;&gt;ast.Name object at 0x7e1154528290 -->
<g id="edge53" class="edge">
<title>ast.Call object at 0x7e11545283d0&#45;&gt;ast.Name object at 0x7e1154528290</title>
<path fill="none" stroke="black" d="M311.13,-287.7C315.61,-279.64 321.05,-269.89 326.01,-260.98"/>
<polygon fill="black" stroke="black" points="329.15,-262.54 330.96,-252.1 323.03,-259.14 329.15,-262.54"/>
</g>
<!-- ast.Attribute object at 0x7e1154528090&#45;&gt;ast.Load object at 0x7e1154dbd610 -->
<g id="edge52" class="edge">
<title>ast.Attribute object at 0x7e1154528090&#45;&gt;ast.Load object at 0x7e1154dbd610</title>
<path fill="none" stroke="black" d="M257.83,-215.67C252.53,-197.28 242.97,-167.67 230.49,-144 221.28,-126.54 210.56,-126.78 204.49,-108 199.56,-92.78 194.1,-84.17 204.49,-72 242.02,-28 420.41,-20.36 499.07,-19.16"/>
<polygon fill="black" stroke="black" points="499.53,-22.65 509.48,-19.03 499.44,-15.65 499.53,-22.65"/>
</g>
<!-- ast.Subscript object at 0x7e1154528110 -->
<g id="node37" class="node">
<title>ast.Subscript object at 0x7e1154528110</title>
<path fill="#66cdaa" stroke="black" d="M334.49,-180C334.49,-180 290.49,-180 290.49,-180 284.49,-180 278.49,-174 278.49,-168 278.49,-168 278.49,-156 278.49,-156 278.49,-150 284.49,-144 290.49,-144 290.49,-144 334.49,-144 334.49,-144 340.49,-144 346.49,-150 346.49,-156 346.49,-156 346.49,-168 346.49,-168 346.49,-174 340.49,-180 334.49,-180"/>
<text text-anchor="middle" x="312.49" y="-158.3" font-family="Times,serif" font-size="14.00">Subscript</text>
</g>
<!-- ast.Attribute object at 0x7e1154528090&#45;&gt;ast.Subscript object at 0x7e1154528110 -->
<g id="edge46" class="edge">
<title>ast.Attribute object at 0x7e1154528090&#45;&gt;ast.Subscript object at 0x7e1154528110</title>
<path fill="none" stroke="black" d="M274.85,-215.7C280.72,-207.47 287.86,-197.48 294.33,-188.42"/>
<polygon fill="black" stroke="black" points="297.3,-190.28 300.27,-180.1 291.61,-186.21 297.3,-190.28"/>
</g>
<!-- ast.Subscript object at 0x7e1154528110&#45;&gt;ast.Load object at 0x7e1154dbd610 -->
<g id="edge51" class="edge">
<title>ast.Subscript object at 0x7e1154528110&#45;&gt;ast.Load object at 0x7e1154dbd610</title>
<path fill="none" stroke="black" d="M307.25,-143.84C302.41,-124.22 298.17,-92.2 314.49,-72 337.4,-43.63 442.11,-28.66 499.16,-22.48"/>
<polygon fill="black" stroke="black" points="499.65,-25.95 509.23,-21.43 498.92,-18.99 499.65,-25.95"/>
</g>
<!-- ast.Name object at 0x7e1154528150 -->
<g id="node38" class="node">
<title>ast.Name object at 0x7e1154528150</title>
<path fill="#66cdaa" stroke="black" d="M365.49,-108C365.49,-108 335.49,-108 335.49,-108 329.49,-108 323.49,-102 323.49,-96 323.49,-96 323.49,-84 323.49,-84 323.49,-78 329.49,-72 335.49,-72 335.49,-72 365.49,-72 365.49,-72 371.49,-72 377.49,-78 377.49,-84 377.49,-84 377.49,-96 377.49,-96 377.49,-102 371.49,-108 365.49,-108"/>
<text text-anchor="middle" x="350.49" y="-86.3" font-family="Times,serif" font-size="14.00">Name</text>
</g>
<!-- ast.Subscript object at 0x7e1154528110&#45;&gt;ast.Name object at 0x7e1154528150 -->
<g id="edge47" class="edge">
<title>ast.Subscript object at 0x7e1154528110&#45;&gt;ast.Name object at 0x7e1154528150</title>
<path fill="none" stroke="black" d="M321.88,-143.7C326.25,-135.64 331.54,-125.89 336.38,-116.98"/>
<polygon fill="black" stroke="black" points="339.51,-118.56 341.2,-108.1 333.35,-115.22 339.51,-118.56"/>
</g>
<!-- ast.Name object at 0x7e11545280d0 -->
<g id="node39" class="node">
<title>ast.Name object at 0x7e11545280d0</title>
<path fill="#66cdaa" stroke="black" d="M255.49,-108C255.49,-108 225.49,-108 225.49,-108 219.49,-108 213.49,-102 213.49,-96 213.49,-96 213.49,-84 213.49,-84 213.49,-78 219.49,-72 225.49,-72 225.49,-72 255.49,-72 255.49,-72 261.49,-72 267.49,-78 267.49,-84 267.49,-84 267.49,-96 267.49,-96 267.49,-102 261.49,-108 255.49,-108"/>
<text text-anchor="middle" x="240.49" y="-86.3" font-family="Times,serif" font-size="14.00">Name</text>
</g>
<!-- ast.Subscript object at 0x7e1154528110&#45;&gt;ast.Name object at 0x7e11545280d0 -->
<g id="edge49" class="edge">
<title>ast.Subscript object at 0x7e1154528110&#45;&gt;ast.Name object at 0x7e11545280d0</title>
<path fill="none" stroke="black" d="M294.69,-143.7C285.88,-135.14 275.1,-124.66 265.49,-115.3"/>
<polygon fill="black" stroke="black" points="267.69,-112.57 258.08,-108.1 262.81,-117.58 267.69,-112.57"/>
</g>
<!-- ast.Name object at 0x7e1154528150&#45;&gt;ast.Load object at 0x7e1154dbd610 -->
<g id="edge48" class="edge">
<title>ast.Name object at 0x7e1154528150&#45;&gt;ast.Load object at 0x7e1154dbd610</title>
<path fill="none" stroke="black" d="M377.77,-77.5C382.34,-75.63 387.04,-73.74 391.49,-72 428.17,-57.7 470.5,-42.36 499.91,-31.88"/>
<polygon fill="black" stroke="black" points="501.11,-35.17 509.37,-28.52 498.77,-28.57 501.11,-35.17"/>
</g>
<!-- ast.Name object at 0x7e11545280d0&#45;&gt;ast.Load object at 0x7e1154dbd610 -->
<g id="edge50" class="edge">
<title>ast.Name object at 0x7e11545280d0&#45;&gt;ast.Load object at 0x7e1154dbd610</title>
<path fill="none" stroke="black" d="M267.57,-76.93C272.16,-75.13 276.92,-73.41 281.49,-72 357.33,-48.62 449.04,-32.39 499.21,-24.49"/>
<polygon fill="black" stroke="black" points="499.92,-27.92 509.26,-22.93 498.85,-21 499.92,-27.92"/>
</g>
<!-- ast.Name object at 0x7e1154528290&#45;&gt;ast.Load object at 0x7e1154dbd610 -->
<g id="edge54" class="edge">
<title>ast.Name object at 0x7e1154528290&#45;&gt;ast.Load object at 0x7e1154dbd610</title>
<path fill="none" stroke="black" d="M346.08,-215.79C357.26,-183.75 385.16,-114.37 429.49,-72 449.33,-53.03 477.27,-39.51 499.62,-30.87"/>
<polygon fill="black" stroke="black" points="500.97,-34.1 509.13,-27.35 498.54,-27.54 500.97,-34.1"/>
</g>
<!-- ast.Name object at 0x7e1154528410 -->
<g id="node42" class="node">
<title>ast.Name object at 0x7e1154528410</title>
<path fill="#66cdaa" stroke="black" d="M787.49,-468C787.49,-468 757.49,-468 757.49,-468 751.49,-468 745.49,-462 745.49,-456 745.49,-456 745.49,-444 745.49,-444 745.49,-438 751.49,-432 757.49,-432 757.49,-432 787.49,-432 787.49,-432 793.49,-432 799.49,-438 799.49,-444 799.49,-444 799.49,-456 799.49,-456 799.49,-462 793.49,-468 787.49,-468"/>
<text text-anchor="middle" x="772.49" y="-446.3" font-family="Times,serif" font-size="14.00">Name</text>
</g>
<!-- ast.Assign object at 0x7e11548c6590&#45;&gt;ast.Name object at 0x7e1154528410 -->
<g id="edge56" class="edge">
<title>ast.Assign object at 0x7e11548c6590&#45;&gt;ast.Name object at 0x7e1154528410</title>
<path fill="none" stroke="black" d="M743.13,-503.7C747.61,-495.64 753.05,-485.89 758.01,-476.98"/>
<polygon fill="black" stroke="black" points="761.15,-478.54 762.96,-468.1 755.03,-475.14 761.15,-478.54"/>
</g>
<!-- ast.Constant object at 0x7e1154528510 -->
<g id="node43" class="node">
<title>ast.Constant object at 0x7e1154528510</title>
<path fill="#66cdaa" stroke="black" d="M714.99,-468C714.99,-468 673.99,-468 673.99,-468 667.99,-468 661.99,-462 661.99,-456 661.99,-456 661.99,-444 661.99,-444 661.99,-438 667.99,-432 673.99,-432 673.99,-432 714.99,-432 714.99,-432 720.99,-432 726.99,-438 726.99,-444 726.99,-444 726.99,-456 726.99,-456 726.99,-462 720.99,-468 714.99,-468"/>
<text text-anchor="middle" x="694.49" y="-446.3" font-family="Times,serif" font-size="14.00">Constant</text>
</g>
<!-- ast.Assign object at 0x7e11548c6590&#45;&gt;ast.Constant object at 0x7e1154528510 -->
<g id="edge58" class="edge">
<title>ast.Assign object at 0x7e11548c6590&#45;&gt;ast.Constant object at 0x7e1154528510</title>
<path fill="none" stroke="black" d="M723.85,-503.7C719.36,-495.64 713.93,-485.89 708.96,-476.98"/>
<polygon fill="black" stroke="black" points="711.94,-475.14 704.02,-468.1 705.83,-478.54 711.94,-475.14"/>
</g>
<!-- ast.Name object at 0x7e1154528410&#45;&gt;ast.Store object at 0x7e1154dbd690 -->
<g id="edge57" class="edge">
<title>ast.Name object at 0x7e1154528410&#45;&gt;ast.Store object at 0x7e1154dbd690</title>
<path fill="none" stroke="black" d="M770.26,-431.88C767.57,-413.67 762.27,-384.21 753.49,-360 750.18,-350.9 745.59,-341.42 741.07,-333.03"/>
<polygon fill="black" stroke="black" points="744.01,-331.13 736.08,-324.11 737.9,-334.55 744.01,-331.13"/>
</g>
<!-- ast.Name object at 0x7e11545284d0 -->
<g id="node45" class="node">
<title>ast.Name object at 0x7e11545284d0</title>
<path fill="#66cdaa" stroke="black" d="M859.49,-468C859.49,-468 829.49,-468 829.49,-468 823.49,-468 817.49,-462 817.49,-456 817.49,-456 817.49,-444 817.49,-444 817.49,-438 823.49,-432 829.49,-432 829.49,-432 859.49,-432 859.49,-432 865.49,-432 871.49,-438 871.49,-444 871.49,-444 871.49,-456 871.49,-456 871.49,-462 865.49,-468 859.49,-468"/>
<text text-anchor="middle" x="844.49" y="-446.3" font-family="Times,serif" font-size="14.00">Name</text>
</g>
<!-- ast.For object at 0x7e1154528490&#45;&gt;ast.Name object at 0x7e11545284d0 -->
<g id="edge60" class="edge">
<title>ast.For object at 0x7e1154528490&#45;&gt;ast.Name object at 0x7e11545284d0</title>
<path fill="none" stroke="black" d="M898.69,-503.7C889.88,-495.14 879.1,-484.66 869.49,-475.3"/>
<polygon fill="black" stroke="black" points="871.69,-472.57 862.08,-468.1 866.81,-477.58 871.69,-472.57"/>
</g>
<!-- ast.Call object at 0x7e1154528250 -->
<g id="node46" class="node">
<title>ast.Call object at 0x7e1154528250</title>
<path fill="#66cdaa" stroke="black" d="M931.49,-468C931.49,-468 901.49,-468 901.49,-468 895.49,-468 889.49,-462 889.49,-456 889.49,-456 889.49,-444 889.49,-444 889.49,-438 895.49,-432 901.49,-432 901.49,-432 931.49,-432 931.49,-432 937.49,-432 943.49,-438 943.49,-444 943.49,-444 943.49,-456 943.49,-456 943.49,-462 937.49,-468 931.49,-468"/>
<text text-anchor="middle" x="916.49" y="-446.3" font-family="Times,serif" font-size="14.00">Call</text>
</g>
<!-- ast.For object at 0x7e1154528490&#45;&gt;ast.Call object at 0x7e1154528250 -->
<g id="edge62" class="edge">
<title>ast.For object at 0x7e1154528490&#45;&gt;ast.Call object at 0x7e1154528250</title>
<path fill="none" stroke="black" d="M916.49,-503.7C916.49,-495.98 916.49,-486.71 916.49,-478.11"/>
<polygon fill="black" stroke="black" points="919.99,-478.1 916.49,-468.1 912.99,-478.1 919.99,-478.1"/>
</g>
<!-- ast.AugAssign object at 0x7e11545282d0 -->
<g id="node49" class="node">
<title>ast.AugAssign object at 0x7e11545282d0</title>
<path fill="#66cdaa" stroke="black" d="M1026.99,-468C1026.99,-468 973.99,-468 973.99,-468 967.99,-468 961.99,-462 961.99,-456 961.99,-456 961.99,-444 961.99,-444 961.99,-438 967.99,-432 973.99,-432 973.99,-432 1026.99,-432 1026.99,-432 1032.99,-432 1038.99,-438 1038.99,-444 1038.99,-444 1038.99,-456 1038.99,-456 1038.99,-462 1032.99,-468 1026.99,-468"/>
<text text-anchor="middle" x="1000.49" y="-446.3" font-family="Times,serif" font-size="14.00">AugAssign</text>
</g>
<!-- ast.For object at 0x7e1154528490&#45;&gt;ast.AugAssign object at 0x7e11545282d0 -->
<g id="edge67" class="edge">
<title>ast.For object at 0x7e1154528490&#45;&gt;ast.AugAssign object at 0x7e11545282d0</title>
<path fill="none" stroke="black" d="M937.25,-503.7C947.73,-494.97 960.6,-484.24 971.99,-474.75"/>
<polygon fill="black" stroke="black" points="974.52,-477.19 979.96,-468.1 970.04,-471.82 974.52,-477.19"/>
</g>
<!-- ast.If object at 0x7e1154770950 -->
<g id="node66" class="node">
<title>ast.If object at 0x7e1154770950</title>
<path fill="#66cdaa" stroke="black" d="M1099.49,-468C1099.49,-468 1069.49,-468 1069.49,-468 1063.49,-468 1057.49,-462 1057.49,-456 1057.49,-456 1057.49,-444 1057.49,-444 1057.49,-438 1063.49,-432 1069.49,-432 1069.49,-432 1099.49,-432 1099.49,-432 1105.49,-432 1111.49,-438 1111.49,-444 1111.49,-444 1111.49,-456 1111.49,-456 1111.49,-462 1105.49,-468 1099.49,-468"/>
<text text-anchor="middle" x="1084.49" y="-446.3" font-family="Times,serif" font-size="14.00">If</text>
</g>
<!-- ast.For object at 0x7e1154528490&#45;&gt;ast.If object at 0x7e1154770950 -->
<g id="edge89" class="edge">
<title>ast.For object at 0x7e1154528490&#45;&gt;ast.If object at 0x7e1154770950</title>
<path fill="none" stroke="black" d="M943.73,-510.61C968.67,-500.97 1006.77,-485.96 1048.03,-468.09"/>
<polygon fill="black" stroke="black" points="1049.67,-471.19 1057.44,-463.98 1046.87,-464.77 1049.67,-471.19"/>
</g>
<!-- ast.Name object at 0x7e11545284d0&#45;&gt;ast.Store object at 0x7e1154dbd690 -->
<g id="edge61" class="edge">
<title>ast.Name object at 0x7e11545284d0&#45;&gt;ast.Store object at 0x7e1154dbd690</title>
<path fill="none" stroke="black" d="M831.19,-431.68C817.15,-413.55 794.23,-384.39 773.49,-360 765.61,-350.73 756.72,-340.79 748.76,-332.05"/>
<polygon fill="black" stroke="black" points="751.1,-329.43 741.77,-324.42 745.94,-334.16 751.1,-329.43"/>
</g>
<!-- ast.Attribute object at 0x7e1154528210 -->
<g id="node47" class="node">
<title>ast.Attribute object at 0x7e1154528210</title>
<path fill="#66cdaa" stroke="black" d="M865.99,-180C865.99,-180 824.99,-180 824.99,-180 818.99,-180 812.99,-174 812.99,-168 812.99,-168 812.99,-156 812.99,-156 812.99,-150 818.99,-144 824.99,-144 824.99,-144 865.99,-144 865.99,-144 871.99,-144 877.99,-150 877.99,-156 877.99,-156 877.99,-168 877.99,-168 877.99,-174 871.99,-180 865.99,-180"/>
<text text-anchor="middle" x="845.49" y="-158.3" font-family="Times,serif" font-size="14.00">Attribute</text>
</g>
<!-- ast.Call object at 0x7e1154528250&#45;&gt;ast.Attribute object at 0x7e1154528210 -->
<g id="edge63" class="edge">
<title>ast.Call object at 0x7e1154528250&#45;&gt;ast.Attribute object at 0x7e1154528210</title>
<path fill="none" stroke="black" d="M914.16,-431.83C911.6,-413.82 907.07,-384.76 901.49,-360 887.61,-298.5 866.09,-227.67 854.17,-189.95"/>
<polygon fill="black" stroke="black" points="857.44,-188.7 851.08,-180.23 850.77,-190.82 857.44,-188.7"/>
</g>
<!-- ast.Attribute object at 0x7e1154528210&#45;&gt;ast.Load object at 0x7e1154dbd610 -->
<g id="edge66" class="edge">
<title>ast.Attribute object at 0x7e1154528210&#45;&gt;ast.Load object at 0x7e1154dbd610</title>
<path fill="none" stroke="black" d="M847.02,-143.95C847.81,-123.82 845.76,-90.71 826.49,-72 791.03,-37.58 644.08,-24.93 574,-20.79"/>
<polygon fill="black" stroke="black" points="574.02,-17.29 563.84,-20.22 573.62,-24.28 574.02,-17.29"/>
</g>
<!-- ast.Name object at 0x7e1154528050 -->
<g id="node48" class="node">
<title>ast.Name object at 0x7e1154528050</title>
<path fill="#66cdaa" stroke="black" d="M805.49,-108C805.49,-108 775.49,-108 775.49,-108 769.49,-108 763.49,-102 763.49,-96 763.49,-96 763.49,-84 763.49,-84 763.49,-78 769.49,-72 775.49,-72 775.49,-72 805.49,-72 805.49,-72 811.49,-72 817.49,-78 817.49,-84 817.49,-84 817.49,-96 817.49,-96 817.49,-102 811.49,-108 805.49,-108"/>
<text text-anchor="middle" x="790.49" y="-86.3" font-family="Times,serif" font-size="14.00">Name</text>
</g>
<!-- ast.Attribute object at 0x7e1154528210&#45;&gt;ast.Name object at 0x7e1154528050 -->
<g id="edge64" class="edge">
<title>ast.Attribute object at 0x7e1154528210&#45;&gt;ast.Name object at 0x7e1154528050</title>
<path fill="none" stroke="black" d="M831.89,-143.7C825.36,-135.39 817.42,-125.28 810.24,-116.14"/>
<polygon fill="black" stroke="black" points="812.86,-113.81 803.93,-108.1 807.35,-118.13 812.86,-113.81"/>
</g>
<!-- ast.Name object at 0x7e1154528050&#45;&gt;ast.Load object at 0x7e1154dbd610 -->
<g id="edge65" class="edge">
<title>ast.Name object at 0x7e1154528050&#45;&gt;ast.Load object at 0x7e1154dbd610</title>
<path fill="none" stroke="black" d="M763.21,-75.42C760.3,-74.18 757.35,-73.01 754.49,-72 692.44,-50.06 617.34,-34 573.44,-25.61"/>
<polygon fill="black" stroke="black" points="573.98,-22.15 563.5,-23.74 572.69,-29.03 573.98,-22.15"/>
</g>
<!-- ast.Name object at 0x7e11546d0f90 -->
<g id="node50" class="node">
<title>ast.Name object at 0x7e11546d0f90</title>
<path fill="#66cdaa" stroke="black" d="M880.49,-396C880.49,-396 850.49,-396 850.49,-396 844.49,-396 838.49,-390 838.49,-384 838.49,-384 838.49,-372 838.49,-372 838.49,-366 844.49,-360 850.49,-360 850.49,-360 880.49,-360 880.49,-360 886.49,-360 892.49,-366 892.49,-372 892.49,-372 892.49,-384 892.49,-384 892.49,-390 886.49,-396 880.49,-396"/>
<text text-anchor="middle" x="865.49" y="-374.3" font-family="Times,serif" font-size="14.00">Name</text>
</g>
<!-- ast.AugAssign object at 0x7e11545282d0&#45;&gt;ast.Name object at 0x7e11546d0f90 -->
<g id="edge68" class="edge">
<title>ast.AugAssign object at 0x7e11545282d0&#45;&gt;ast.Name object at 0x7e11546d0f90</title>
<path fill="none" stroke="black" d="M967.46,-431.88C947.56,-421.56 922.19,-408.4 901.74,-397.8"/>
<polygon fill="black" stroke="black" points="903.21,-394.62 892.72,-393.12 899.99,-400.83 903.21,-394.62"/>
</g>
<!-- ast.Add object at 0x7e1154dbdb10 -->
<g id="node51" class="node">
<title>ast.Add object at 0x7e1154dbdb10</title>
<path fill="#66cdaa" stroke="black" d="M998.49,-396C998.49,-396 968.49,-396 968.49,-396 962.49,-396 956.49,-390 956.49,-384 956.49,-384 956.49,-372 956.49,-372 956.49,-366 962.49,-360 968.49,-360 968.49,-360 998.49,-360 998.49,-360 1004.49,-360 1010.49,-366 1010.49,-372 1010.49,-372 1010.49,-384 1010.49,-384 1010.49,-390 1004.49,-396 998.49,-396"/>
<text text-anchor="middle" x="983.49" y="-374.3" font-family="Times,serif" font-size="14.00">Add</text>
</g>
<!-- ast.AugAssign object at 0x7e11545282d0&#45;&gt;ast.Add object at 0x7e1154dbdb10 -->
<g id="edge70" class="edge">
<title>ast.AugAssign object at 0x7e11545282d0&#45;&gt;ast.Add object at 0x7e1154dbdb10</title>
<path fill="none" stroke="black" d="M996.28,-431.7C994.39,-423.9 992.11,-414.51 990,-405.83"/>
<polygon fill="black" stroke="black" points="993.4,-405 987.64,-396.1 986.6,-406.65 993.4,-405"/>
</g>
<!-- ast.BinOp object at 0x7e11546d1f50 -->
<g id="node52" class="node">
<title>ast.BinOp object at 0x7e11546d1f50</title>
<path fill="#66cdaa" stroke="black" d="M1070.49,-396C1070.49,-396 1040.49,-396 1040.49,-396 1034.49,-396 1028.49,-390 1028.49,-384 1028.49,-384 1028.49,-372 1028.49,-372 1028.49,-366 1034.49,-360 1040.49,-360 1040.49,-360 1070.49,-360 1070.49,-360 1076.49,-360 1082.49,-366 1082.49,-372 1082.49,-372 1082.49,-384 1082.49,-384 1082.49,-390 1076.49,-396 1070.49,-396"/>
<text text-anchor="middle" x="1055.49" y="-374.3" font-family="Times,serif" font-size="14.00">BinOp</text>
</g>
<!-- ast.AugAssign object at 0x7e11545282d0&#45;&gt;ast.BinOp object at 0x7e11546d1f50 -->
<g id="edge71" class="edge">
<title>ast.AugAssign object at 0x7e11545282d0&#45;&gt;ast.BinOp object at 0x7e11546d1f50</title>
<path fill="none" stroke="black" d="M1014.08,-431.7C1020.61,-423.39 1028.55,-413.28 1035.73,-404.14"/>
<polygon fill="black" stroke="black" points="1038.62,-406.13 1042.05,-396.1 1033.12,-401.81 1038.62,-406.13"/>
</g>
<!-- ast.Name object at 0x7e11546d0f90&#45;&gt;ast.Store object at 0x7e1154dbd690 -->
<g id="edge69" class="edge">
<title>ast.Name object at 0x7e11546d0f90&#45;&gt;ast.Store object at 0x7e1154dbd690</title>
<path fill="none" stroke="black" d="M838.16,-363.34C816.38,-352.45 785.69,-337.1 761.84,-325.18"/>
<polygon fill="black" stroke="black" points="763.25,-321.97 752.74,-320.63 760.12,-328.23 763.25,-321.97"/>
</g>
<!-- ast.BinOp object at 0x7e1154558750 -->
<g id="node53" class="node">
<title>ast.BinOp object at 0x7e1154558750</title>
<path fill="#66cdaa" stroke="black" d="M992.49,-324C992.49,-324 962.49,-324 962.49,-324 956.49,-324 950.49,-318 950.49,-312 950.49,-312 950.49,-300 950.49,-300 950.49,-294 956.49,-288 962.49,-288 962.49,-288 992.49,-288 992.49,-288 998.49,-288 1004.49,-294 1004.49,-300 1004.49,-300 1004.49,-312 1004.49,-312 1004.49,-318 998.49,-324 992.49,-324"/>
<text text-anchor="middle" x="977.49" y="-302.3" font-family="Times,serif" font-size="14.00">BinOp</text>
</g>
<!-- ast.BinOp object at 0x7e11546d1f50&#45;&gt;ast.BinOp object at 0x7e1154558750 -->
<g id="edge72" class="edge">
<title>ast.BinOp object at 0x7e11546d1f50&#45;&gt;ast.BinOp object at 0x7e1154558750</title>
<path fill="none" stroke="black" d="M1036.21,-359.7C1026.57,-351.05 1014.76,-340.45 1004.26,-331.03"/>
<polygon fill="black" stroke="black" points="1006.33,-328.18 996.55,-324.1 1001.65,-333.39 1006.33,-328.18"/>
</g>
<!-- ast.FloorDiv object at 0x7e1154dbe190 -->
<g id="node64" class="node">
<title>ast.FloorDiv object at 0x7e1154dbe190</title>
<path fill="#66cdaa" stroke="black" d="M1076.49,-324C1076.49,-324 1034.49,-324 1034.49,-324 1028.49,-324 1022.49,-318 1022.49,-312 1022.49,-312 1022.49,-300 1022.49,-300 1022.49,-294 1028.49,-288 1034.49,-288 1034.49,-288 1076.49,-288 1076.49,-288 1082.49,-288 1088.49,-294 1088.49,-300 1088.49,-300 1088.49,-312 1088.49,-312 1088.49,-318 1082.49,-324 1076.49,-324"/>
<text text-anchor="middle" x="1055.49" y="-302.3" font-family="Times,serif" font-size="14.00">FloorDiv</text>
</g>
<!-- ast.BinOp object at 0x7e11546d1f50&#45;&gt;ast.FloorDiv object at 0x7e1154dbe190 -->
<g id="edge87" class="edge">
<title>ast.BinOp object at 0x7e11546d1f50&#45;&gt;ast.FloorDiv object at 0x7e1154dbe190</title>
<path fill="none" stroke="black" d="M1055.49,-359.7C1055.49,-351.98 1055.49,-342.71 1055.49,-334.11"/>
<polygon fill="black" stroke="black" points="1058.99,-334.1 1055.49,-324.1 1051.99,-334.1 1058.99,-334.1"/>
</g>
<!-- ast.Constant object at 0x7e11547903d0 -->
<g id="node65" class="node">
<title>ast.Constant object at 0x7e11547903d0</title>
<path fill="#66cdaa" stroke="black" d="M1159.99,-324C1159.99,-324 1118.99,-324 1118.99,-324 1112.99,-324 1106.99,-318 1106.99,-312 1106.99,-312 1106.99,-300 1106.99,-300 1106.99,-294 1112.99,-288 1118.99,-288 1118.99,-288 1159.99,-288 1159.99,-288 1165.99,-288 1171.99,-294 1171.99,-300 1171.99,-300 1171.99,-312 1171.99,-312 1171.99,-318 1165.99,-324 1159.99,-324"/>
<text text-anchor="middle" x="1139.49" y="-302.3" font-family="Times,serif" font-size="14.00">Constant</text>
</g>
<!-- ast.BinOp object at 0x7e11546d1f50&#45;&gt;ast.Constant object at 0x7e11547903d0 -->
<g id="edge88" class="edge">
<title>ast.BinOp object at 0x7e11546d1f50&#45;&gt;ast.Constant object at 0x7e11547903d0</title>
<path fill="none" stroke="black" d="M1076.25,-359.7C1086.73,-350.97 1099.6,-340.24 1110.99,-330.75"/>
<polygon fill="black" stroke="black" points="1113.52,-333.19 1118.96,-324.1 1109.04,-327.82 1113.52,-333.19"/>
</g>
<!-- ast.Call object at 0x7e1154558550 -->
<g id="node54" class="node">
<title>ast.Call object at 0x7e1154558550</title>
<path fill="#66cdaa" stroke="black" d="M940.49,-180C940.49,-180 910.49,-180 910.49,-180 904.49,-180 898.49,-174 898.49,-168 898.49,-168 898.49,-156 898.49,-156 898.49,-150 904.49,-144 910.49,-144 910.49,-144 940.49,-144 940.49,-144 946.49,-144 952.49,-150 952.49,-156 952.49,-156 952.49,-168 952.49,-168 952.49,-174 946.49,-180 940.49,-180"/>
<text text-anchor="middle" x="925.49" y="-158.3" font-family="Times,serif" font-size="14.00">Call</text>
</g>
<!-- ast.BinOp object at 0x7e1154558750&#45;&gt;ast.Call object at 0x7e1154558550 -->
<g id="edge73" class="edge">
<title>ast.BinOp object at 0x7e1154558750&#45;&gt;ast.Call object at 0x7e1154558550</title>
<path fill="none" stroke="black" d="M991.62,-287.9C1005.03,-269.44 1021.38,-239.53 1008.49,-216 1003.11,-206.18 981.52,-192.54 961.7,-181.56"/>
<polygon fill="black" stroke="black" points="963.25,-178.41 952.79,-176.72 959.91,-184.57 963.25,-178.41"/>
</g>
<!-- ast.Mult object at 0x7e1154dbdc10 -->
<g id="node57" class="node">
<title>ast.Mult object at 0x7e1154dbdc10</title>
<path fill="#66cdaa" stroke="black" d="M987.49,-252C987.49,-252 957.49,-252 957.49,-252 951.49,-252 945.49,-246 945.49,-240 945.49,-240 945.49,-228 945.49,-228 945.49,-222 951.49,-216 957.49,-216 957.49,-216 987.49,-216 987.49,-216 993.49,-216 999.49,-222 999.49,-228 999.49,-228 999.49,-240 999.49,-240 999.49,-246 993.49,-252 987.49,-252"/>
<text text-anchor="middle" x="972.49" y="-230.3" font-family="Times,serif" font-size="14.00">Mult</text>
</g>
<!-- ast.BinOp object at 0x7e1154558750&#45;&gt;ast.Mult object at 0x7e1154dbdc10 -->
<g id="edge78" class="edge">
<title>ast.BinOp object at 0x7e1154558750&#45;&gt;ast.Mult object at 0x7e1154dbdc10</title>
<path fill="none" stroke="black" d="M976.25,-287.7C975.7,-279.98 975.04,-270.71 974.42,-262.11"/>
<polygon fill="black" stroke="black" points="977.91,-261.83 973.71,-252.1 970.93,-262.33 977.91,-261.83"/>
</g>
<!-- ast.BinOp object at 0x7e1154558c50 -->
<g id="node58" class="node">
<title>ast.BinOp object at 0x7e1154558c50</title>
<path fill="#66cdaa" stroke="black" d="M1097.49,-252C1097.49,-252 1067.49,-252 1067.49,-252 1061.49,-252 1055.49,-246 1055.49,-240 1055.49,-240 1055.49,-228 1055.49,-228 1055.49,-222 1061.49,-216 1067.49,-216 1067.49,-216 1097.49,-216 1097.49,-216 1103.49,-216 1109.49,-222 1109.49,-228 1109.49,-228 1109.49,-240 1109.49,-240 1109.49,-246 1103.49,-252 1097.49,-252"/>
<text text-anchor="middle" x="1082.49" y="-230.3" font-family="Times,serif" font-size="14.00">BinOp</text>
</g>
<!-- ast.BinOp object at 0x7e1154558750&#45;&gt;ast.BinOp object at 0x7e1154558c50 -->
<g id="edge79" class="edge">
<title>ast.BinOp object at 0x7e1154558750&#45;&gt;ast.BinOp object at 0x7e1154558c50</title>
<path fill="none" stroke="black" d="M1003.17,-287.88C1016.77,-278.81 1033.66,-267.55 1048.35,-257.76"/>
<polygon fill="black" stroke="black" points="1050.32,-260.65 1056.7,-252.19 1046.44,-254.82 1050.32,-260.65"/>
</g>
<!-- ast.Name object at 0x7e1154558410 -->
<g id="node55" class="node">
<title>ast.Name object at 0x7e1154558410</title>
<path fill="#66cdaa" stroke="black" d="M987.49,-108C987.49,-108 957.49,-108 957.49,-108 951.49,-108 945.49,-102 945.49,-96 945.49,-96 945.49,-84 945.49,-84 945.49,-78 951.49,-72 957.49,-72 957.49,-72 987.49,-72 987.49,-72 993.49,-72 999.49,-78 999.49,-84 999.49,-84 999.49,-96 999.49,-96 999.49,-102 993.49,-108 987.49,-108"/>
<text text-anchor="middle" x="972.49" y="-86.3" font-family="Times,serif" font-size="14.00">Name</text>
</g>
<!-- ast.Call object at 0x7e1154558550&#45;&gt;ast.Name object at 0x7e1154558410 -->
<g id="edge74" class="edge">
<title>ast.Call object at 0x7e1154558550&#45;&gt;ast.Name object at 0x7e1154558410</title>
<path fill="none" stroke="black" d="M937.1,-143.7C942.63,-135.47 949.33,-125.48 955.42,-116.42"/>
<polygon fill="black" stroke="black" points="958.33,-118.36 961,-108.1 952.52,-114.46 958.33,-118.36"/>
</g>
<!-- ast.Name object at 0x7e1154558150 -->
<g id="node56" class="node">
<title>ast.Name object at 0x7e1154558150</title>
<path fill="#66cdaa" stroke="black" d="M915.49,-108C915.49,-108 885.49,-108 885.49,-108 879.49,-108 873.49,-102 873.49,-96 873.49,-96 873.49,-84 873.49,-84 873.49,-78 879.49,-72 885.49,-72 885.49,-72 915.49,-72 915.49,-72 921.49,-72 927.49,-78 927.49,-84 927.49,-84 927.49,-96 927.49,-96 927.49,-102 921.49,-108 915.49,-108"/>
<text text-anchor="middle" x="900.49" y="-86.3" font-family="Times,serif" font-size="14.00">Name</text>
</g>
<!-- ast.Call object at 0x7e1154558550&#45;&gt;ast.Name object at 0x7e1154558150 -->
<g id="edge76" class="edge">
<title>ast.Call object at 0x7e1154558550&#45;&gt;ast.Name object at 0x7e1154558150</title>
<path fill="none" stroke="black" d="M919.31,-143.7C916.49,-135.81 913.09,-126.3 909.97,-117.55"/>
<polygon fill="black" stroke="black" points="913.25,-116.34 906.6,-108.1 906.66,-118.7 913.25,-116.34"/>
</g>
<!-- ast.Name object at 0x7e1154558410&#45;&gt;ast.Load object at 0x7e1154dbd610 -->
<g id="edge75" class="edge">
<title>ast.Name object at 0x7e1154558410&#45;&gt;ast.Load object at 0x7e1154dbd610</title>
<path fill="none" stroke="black" d="M945.31,-75.1C942.38,-73.93 939.4,-72.86 936.49,-72 807.06,-33.88 645.95,-23.12 574.11,-20.13"/>
<polygon fill="black" stroke="black" points="573.89,-16.62 563.77,-19.73 573.62,-23.61 573.89,-16.62"/>
</g>
<!-- ast.Name object at 0x7e1154558150&#45;&gt;ast.Load object at 0x7e1154dbd610 -->
<g id="edge77" class="edge">
<title>ast.Name object at 0x7e1154558150&#45;&gt;ast.Load object at 0x7e1154dbd610</title>
<path fill="none" stroke="black" d="M873.45,-76.77C868.85,-74.98 864.08,-73.31 859.49,-72 758.45,-43.18 634.86,-28.34 574.01,-22.32"/>
<polygon fill="black" stroke="black" points="574.04,-18.81 563.75,-21.33 573.37,-25.78 574.04,-18.81"/>
</g>
<!-- ast.Call object at 0x7e1154558c90 -->
<g id="node59" class="node">
<title>ast.Call object at 0x7e1154558c90</title>
<path fill="#66cdaa" stroke="black" d="M1096.49,-180C1096.49,-180 1066.49,-180 1066.49,-180 1060.49,-180 1054.49,-174 1054.49,-168 1054.49,-168 1054.49,-156 1054.49,-156 1054.49,-150 1060.49,-144 1066.49,-144 1066.49,-144 1096.49,-144 1096.49,-144 1102.49,-144 1108.49,-150 1108.49,-156 1108.49,-156 1108.49,-168 1108.49,-168 1108.49,-174 1102.49,-180 1096.49,-180"/>
<text text-anchor="middle" x="1081.49" y="-158.3" font-family="Times,serif" font-size="14.00">Call</text>
</g>
<!-- ast.BinOp object at 0x7e1154558c50&#45;&gt;ast.Call object at 0x7e1154558c90 -->
<g id="edge80" class="edge">
<title>ast.BinOp object at 0x7e1154558c50&#45;&gt;ast.Call object at 0x7e1154558c90</title>
<path fill="none" stroke="black" d="M1082.24,-215.7C1082.13,-207.98 1082,-198.71 1081.87,-190.11"/>
<polygon fill="black" stroke="black" points="1085.37,-190.05 1081.73,-180.1 1078.37,-190.15 1085.37,-190.05"/>
</g>
<!-- ast.Sub object at 0x7e1154dbdb90 -->
<g id="node62" class="node">
<title>ast.Sub object at 0x7e1154dbdb90</title>
<path fill="#66cdaa" stroke="black" d="M1168.49,-180C1168.49,-180 1138.49,-180 1138.49,-180 1132.49,-180 1126.49,-174 1126.49,-168 1126.49,-168 1126.49,-156 1126.49,-156 1126.49,-150 1132.49,-144 1138.49,-144 1138.49,-144 1168.49,-144 1168.49,-144 1174.49,-144 1180.49,-150 1180.49,-156 1180.49,-156 1180.49,-168 1180.49,-168 1180.49,-174 1174.49,-180 1168.49,-180"/>
<text text-anchor="middle" x="1153.49" y="-158.3" font-family="Times,serif" font-size="14.00">Sub</text>
</g>
<!-- ast.BinOp object at 0x7e1154558c50&#45;&gt;ast.Sub object at 0x7e1154dbdb90 -->
<g id="edge85" class="edge">
<title>ast.BinOp object at 0x7e1154558c50&#45;&gt;ast.Sub object at 0x7e1154dbdb90</title>
<path fill="none" stroke="black" d="M1100.04,-215.7C1108.72,-207.14 1119.35,-196.66 1128.83,-187.3"/>
<polygon fill="black" stroke="black" points="1131.47,-189.62 1136.14,-180.1 1126.56,-184.63 1131.47,-189.62"/>
</g>
<!-- ast.Constant object at 0x7e11545592d0 -->
<g id="node63" class="node">
<title>ast.Constant object at 0x7e11545592d0</title>
<path fill="#66cdaa" stroke="black" d="M1023.99,-180C1023.99,-180 982.99,-180 982.99,-180 976.99,-180 970.99,-174 970.99,-168 970.99,-168 970.99,-156 970.99,-156 970.99,-150 976.99,-144 982.99,-144 982.99,-144 1023.99,-144 1023.99,-144 1029.99,-144 1035.99,-150 1035.99,-156 1035.99,-156 1035.99,-168 1035.99,-168 1035.99,-174 1029.99,-180 1023.99,-180"/>
<text text-anchor="middle" x="1003.49" y="-158.3" font-family="Times,serif" font-size="14.00">Constant</text>
</g>
<!-- ast.BinOp object at 0x7e1154558c50&#45;&gt;ast.Constant object at 0x7e11545592d0 -->
<g id="edge86" class="edge">
<title>ast.BinOp object at 0x7e1154558c50&#45;&gt;ast.Constant object at 0x7e11545592d0</title>
<path fill="none" stroke="black" d="M1062.96,-215.7C1053.1,-206.97 1041,-196.24 1030.29,-186.75"/>
<polygon fill="black" stroke="black" points="1032.6,-184.12 1022.79,-180.1 1027.95,-189.36 1032.6,-184.12"/>
</g>
<!-- ast.Name object at 0x7e1154559290 -->
<g id="node60" class="node">
<title>ast.Name object at 0x7e1154559290</title>
<path fill="#66cdaa" stroke="black" d="M1131.49,-108C1131.49,-108 1101.49,-108 1101.49,-108 1095.49,-108 1089.49,-102 1089.49,-96 1089.49,-96 1089.49,-84 1089.49,-84 1089.49,-78 1095.49,-72 1101.49,-72 1101.49,-72 1131.49,-72 1131.49,-72 1137.49,-72 1143.49,-78 1143.49,-84 1143.49,-84 1143.49,-96 1143.49,-96 1143.49,-102 1137.49,-108 1131.49,-108"/>
<text text-anchor="middle" x="1116.49" y="-86.3" font-family="Times,serif" font-size="14.00">Name</text>
</g>
<!-- ast.Call object at 0x7e1154558c90&#45;&gt;ast.Name object at 0x7e1154559290 -->
<g id="edge81" class="edge">
<title>ast.Call object at 0x7e1154558c90&#45;&gt;ast.Name object at 0x7e1154559290</title>
<path fill="none" stroke="black" d="M1090.14,-143.7C1094.12,-135.73 1098.94,-126.1 1103.35,-117.26"/>
<polygon fill="black" stroke="black" points="1106.59,-118.61 1107.93,-108.1 1100.33,-115.48 1106.59,-118.61"/>
</g>
<!-- ast.Name object at 0x7e1154558790 -->
<g id="node61" class="node">
<title>ast.Name object at 0x7e1154558790</title>
<path fill="#66cdaa" stroke="black" d="M1059.49,-108C1059.49,-108 1029.49,-108 1029.49,-108 1023.49,-108 1017.49,-102 1017.49,-96 1017.49,-96 1017.49,-84 1017.49,-84 1017.49,-78 1023.49,-72 1029.49,-72 1029.49,-72 1059.49,-72 1059.49,-72 1065.49,-72 1071.49,-78 1071.49,-84 1071.49,-84 1071.49,-96 1071.49,-96 1071.49,-102 1065.49,-108 1059.49,-108"/>
<text text-anchor="middle" x="1044.49" y="-86.3" font-family="Times,serif" font-size="14.00">Name</text>
</g>
<!-- ast.Call object at 0x7e1154558c90&#45;&gt;ast.Name object at 0x7e1154558790 -->
<g id="edge83" class="edge">
<title>ast.Call object at 0x7e1154558c90&#45;&gt;ast.Name object at 0x7e1154558790</title>
<path fill="none" stroke="black" d="M1072.34,-143.7C1068.08,-135.64 1062.93,-125.89 1058.22,-116.98"/>
<polygon fill="black" stroke="black" points="1061.29,-115.31 1053.53,-108.1 1055.11,-118.58 1061.29,-115.31"/>
</g>
<!-- ast.Name object at 0x7e1154559290&#45;&gt;ast.Load object at 0x7e1154dbd610 -->
<g id="edge82" class="edge">
<title>ast.Name object at 0x7e1154559290&#45;&gt;ast.Load object at 0x7e1154dbd610</title>
<path fill="none" stroke="black" d="M1089.34,-75C1086.41,-73.84 1083.42,-72.81 1080.49,-72 895.45,-20.96 663.19,-17.49 573.86,-18.28"/>
<polygon fill="black" stroke="black" points="573.64,-14.78 563.68,-18.39 573.72,-21.78 573.64,-14.78"/>
</g>
<!-- ast.Name object at 0x7e1154558790&#45;&gt;ast.Load object at 0x7e1154dbd610 -->
<g id="edge84" class="edge">
<title>ast.Name object at 0x7e1154558790&#45;&gt;ast.Load object at 0x7e1154dbd610</title>
<path fill="none" stroke="black" d="M1017.33,-75.04C1014.4,-73.88 1011.41,-72.83 1008.49,-72 851.33,-27.41 654.75,-20.09 573.88,-19.06"/>
<polygon fill="black" stroke="black" points="573.73,-15.56 563.7,-18.96 573.66,-22.56 573.73,-15.56"/>
</g>
<!-- ast.Compare object at 0x7e11546a9010 -->
<g id="node67" class="node">
<title>ast.Compare object at 0x7e11546a9010</title>
<path fill="#66cdaa" stroke="black" d="M1249.99,-396C1249.99,-396 1206.99,-396 1206.99,-396 1200.99,-396 1194.99,-390 1194.99,-384 1194.99,-384 1194.99,-372 1194.99,-372 1194.99,-366 1200.99,-360 1206.99,-360 1206.99,-360 1249.99,-360 1249.99,-360 1255.99,-360 1261.99,-366 1261.99,-372 1261.99,-372 1261.99,-384 1261.99,-384 1261.99,-390 1255.99,-396 1249.99,-396"/>
<text text-anchor="middle" x="1228.49" y="-374.3" font-family="Times,serif" font-size="14.00">Compare</text>
</g>
<!-- ast.If object at 0x7e1154770950&#45;&gt;ast.Compare object at 0x7e11546a9010 -->
<g id="edge90" class="edge">
<title>ast.If object at 0x7e1154770950&#45;&gt;ast.Compare object at 0x7e11546a9010</title>
<path fill="none" stroke="black" d="M1111.57,-435.83C1132.43,-425.69 1161.66,-411.48 1185.68,-399.81"/>
<polygon fill="black" stroke="black" points="1187.47,-402.83 1194.93,-395.31 1184.41,-396.54 1187.47,-402.83"/>
</g>
<!-- ast.Return object at 0x7e1154614d90 -->
<g id="node71" class="node">
<title>ast.Return object at 0x7e1154614d90</title>
<path fill="#66cdaa" stroke="black" d="M1363.49,-396C1363.49,-396 1333.49,-396 1333.49,-396 1327.49,-396 1321.49,-390 1321.49,-384 1321.49,-384 1321.49,-372 1321.49,-372 1321.49,-366 1327.49,-360 1333.49,-360 1333.49,-360 1363.49,-360 1363.49,-360 1369.49,-360 1375.49,-366 1375.49,-372 1375.49,-372 1375.49,-384 1375.49,-384 1375.49,-390 1369.49,-396 1363.49,-396"/>
<text text-anchor="middle" x="1348.49" y="-374.3" font-family="Times,serif" font-size="14.00">Return</text>
</g>
<!-- ast.If object at 0x7e1154770950&#45;&gt;ast.Return object at 0x7e1154614d90 -->
<g id="edge95" class="edge">
<title>ast.If object at 0x7e1154770950&#45;&gt;ast.Return object at 0x7e1154614d90</title>
<path fill="none" stroke="black" d="M1111.71,-435.75C1114.97,-434.38 1118.28,-433.1 1121.49,-432 1139.36,-425.88 1251.9,-400.5 1311.52,-387.2"/>
<polygon fill="black" stroke="black" points="1312.3,-390.61 1321.3,-385.02 1310.78,-383.78 1312.3,-390.61"/>
</g>
<!-- ast.Name object at 0x7e11549f1950 -->
<g id="node68" class="node">
<title>ast.Name object at 0x7e11549f1950</title>
<path fill="#66cdaa" stroke="black" d="M1222.49,-252C1222.49,-252 1192.49,-252 1192.49,-252 1186.49,-252 1180.49,-246 1180.49,-240 1180.49,-240 1180.49,-228 1180.49,-228 1180.49,-222 1186.49,-216 1192.49,-216 1192.49,-216 1222.49,-216 1222.49,-216 1228.49,-216 1234.49,-222 1234.49,-228 1234.49,-228 1234.49,-240 1234.49,-240 1234.49,-246 1228.49,-252 1222.49,-252"/>
<text text-anchor="middle" x="1207.49" y="-230.3" font-family="Times,serif" font-size="14.00">Name</text>
</g>
<!-- ast.Compare object at 0x7e11546a9010&#45;&gt;ast.Name object at 0x7e11549f1950 -->
<g id="edge91" class="edge">
<title>ast.Compare object at 0x7e11546a9010&#45;&gt;ast.Name object at 0x7e11549f1950</title>
<path fill="none" stroke="black" d="M1225.42,-359.84C1223.61,-349.47 1221.31,-335.99 1219.49,-324 1216.34,-303.32 1213.19,-279.87 1210.91,-262.24"/>
<polygon fill="black" stroke="black" points="1214.36,-261.56 1209.61,-252.09 1207.41,-262.45 1214.36,-261.56"/>
</g>
<!-- ast.Gt object at 0x7e1154dbe810 -->
<g id="node69" class="node">
<title>ast.Gt object at 0x7e1154dbe810</title>
<path fill="#66cdaa" stroke="black" d="M1270.49,-324C1270.49,-324 1240.49,-324 1240.49,-324 1234.49,-324 1228.49,-318 1228.49,-312 1228.49,-312 1228.49,-300 1228.49,-300 1228.49,-294 1234.49,-288 1240.49,-288 1240.49,-288 1270.49,-288 1270.49,-288 1276.49,-288 1282.49,-294 1282.49,-300 1282.49,-300 1282.49,-312 1282.49,-312 1282.49,-318 1276.49,-324 1270.49,-324"/>
<text text-anchor="middle" x="1255.49" y="-302.3" font-family="Times,serif" font-size="14.00">Gt</text>
</g>
<!-- ast.Compare object at 0x7e11546a9010&#45;&gt;ast.Gt object at 0x7e1154dbe810 -->
<g id="edge93" class="edge">
<title>ast.Compare object at 0x7e11546a9010&#45;&gt;ast.Gt object at 0x7e1154dbe810</title>
<path fill="none" stroke="black" d="M1235.16,-359.7C1238.2,-351.81 1241.87,-342.3 1245.25,-333.55"/>
<polygon fill="black" stroke="black" points="1248.56,-334.69 1248.89,-324.1 1242.02,-332.17 1248.56,-334.69"/>
</g>
<!-- ast.Constant object at 0x7e1154520c50 -->
<g id="node70" class="node">
<title>ast.Constant object at 0x7e1154520c50</title>
<path fill="#66cdaa" stroke="black" d="M1353.99,-324C1353.99,-324 1312.99,-324 1312.99,-324 1306.99,-324 1300.99,-318 1300.99,-312 1300.99,-312 1300.99,-300 1300.99,-300 1300.99,-294 1306.99,-288 1312.99,-288 1312.99,-288 1353.99,-288 1353.99,-288 1359.99,-288 1365.99,-294 1365.99,-300 1365.99,-300 1365.99,-312 1365.99,-312 1365.99,-318 1359.99,-324 1353.99,-324"/>
<text text-anchor="middle" x="1333.49" y="-302.3" font-family="Times,serif" font-size="14.00">Constant</text>
</g>
<!-- ast.Compare object at 0x7e11546a9010&#45;&gt;ast.Constant object at 0x7e1154520c50 -->
<g id="edge94" class="edge">
<title>ast.Compare object at 0x7e11546a9010&#45;&gt;ast.Constant object at 0x7e1154520c50</title>
<path fill="none" stroke="black" d="M1254.17,-359.88C1267.77,-350.81 1284.66,-339.55 1299.35,-329.76"/>
<polygon fill="black" stroke="black" points="1301.32,-332.65 1307.7,-324.19 1297.44,-326.82 1301.32,-332.65"/>
</g>
<!-- ast.Name object at 0x7e11549f1950&#45;&gt;ast.Load object at 0x7e1154dbd610 -->
<g id="edge92" class="edge">
<title>ast.Name object at 0x7e11549f1950&#45;&gt;ast.Load object at 0x7e1154dbd610</title>
<path fill="none" stroke="black" d="M1207.76,-215.93C1207.26,-181.5 1200.56,-104.26 1152.49,-72 1104.42,-39.75 699.98,-24.22 573.88,-20.13"/>
<polygon fill="black" stroke="black" points="573.69,-16.62 563.58,-19.8 573.46,-23.62 573.69,-16.62"/>
</g>
<!-- ast.Constant object at 0x7e11545430d0 -->
<g id="node72" class="node">
<title>ast.Constant object at 0x7e11545430d0</title>
<path fill="#66cdaa" stroke="black" d="M1436.99,-324C1436.99,-324 1395.99,-324 1395.99,-324 1389.99,-324 1383.99,-318 1383.99,-312 1383.99,-312 1383.99,-300 1383.99,-300 1383.99,-294 1389.99,-288 1395.99,-288 1395.99,-288 1436.99,-288 1436.99,-288 1442.99,-288 1448.99,-294 1448.99,-300 1448.99,-300 1448.99,-312 1448.99,-312 1448.99,-318 1442.99,-324 1436.99,-324"/>
<text text-anchor="middle" x="1416.49" y="-302.3" font-family="Times,serif" font-size="14.00">Constant</text>
</g>
<!-- ast.Return object at 0x7e1154614d90&#45;&gt;ast.Constant object at 0x7e11545430d0 -->
<g id="edge96" class="edge">
<title>ast.Return object at 0x7e1154614d90&#45;&gt;ast.Constant object at 0x7e11545430d0</title>
<path fill="none" stroke="black" d="M1365.3,-359.7C1373.61,-351.14 1383.79,-340.66 1392.88,-331.3"/>
<polygon fill="black" stroke="black" points="1395.41,-333.72 1399.87,-324.1 1390.39,-328.84 1395.41,-333.72"/>
</g>
<!-- ast.Constant object at 0x7e1154543110 -->
<g id="node74" class="node">
<title>ast.Constant object at 0x7e1154543110</title>
<path fill="#66cdaa" stroke="black" d="M1182.99,-468C1182.99,-468 1141.99,-468 1141.99,-468 1135.99,-468 1129.99,-462 1129.99,-456 1129.99,-456 1129.99,-444 1129.99,-444 1129.99,-438 1135.99,-432 1141.99,-432 1141.99,-432 1182.99,-432 1182.99,-432 1188.99,-432 1194.99,-438 1194.99,-444 1194.99,-444 1194.99,-456 1194.99,-456 1194.99,-462 1188.99,-468 1182.99,-468"/>
<text text-anchor="middle" x="1162.49" y="-446.3" font-family="Times,serif" font-size="14.00">Constant</text>
</g>
<!-- ast.Return object at 0x7e1154543150&#45;&gt;ast.Constant object at 0x7e1154543110 -->
<g id="edge98" class="edge">
<title>ast.Return object at 0x7e1154543150&#45;&gt;ast.Constant object at 0x7e1154543110</title>
<path fill="none" stroke="black" d="M1095.49,-503.7C1106.7,-494.88 1120.49,-484.03 1132.64,-474.47"/>
<polygon fill="black" stroke="black" points="1135.04,-477.04 1140.74,-468.1 1130.72,-471.54 1135.04,-477.04"/>
</g>
</g>
</svg>
