<?xml version="1.0" encoding="UTF-8" standalone="no"?>
<!DOCTYPE svg PUBLIC "-//W3C//DTD SVG 1.1//EN"
 "http://www.w3.org/Graphics/SVG/1.1/DTD/svg11.dtd">
<!-- Generated by graphviz version 2.50.0 (0)
 -->
<!-- Pages: 1 -->
<svg width="1464pt" height="692pt"
 viewBox="0.00 0.00 1463.50 692.00" xmlns="http://www.w3.org/2000/svg" xmlns:xlink="http://www.w3.org/1999/xlink">
<g id="graph0" class="graph" transform="scale(1 1) rotate(0) translate(4 688)">
<polygon fill="white" stroke="transparent" points="-4,4 -4,-688 1459.5,-688 1459.5,4 -4,4"/>
<!-- ast.Module object at 0x7d1f88f9ddd0 -->
<g id="node1" class="node">
<title>ast.Module object at 0x7d1f88f9ddd0</title>
<path fill="#66cdaa" stroke="black" d="M1016,-684C1016,-684 981,-684 981,-684 975,-684 969,-678 969,-672 969,-672 969,-660 969,-660 969,-654 975,-648 981,-648 981,-648 1016,-648 1016,-648 1022,-648 1028,-654 1028,-660 1028,-660 1028,-672 1028,-672 1028,-678 1022,-684 1016,-684"/>
<text text-anchor="middle" x="998.5" y="-662.3" font-family="Times,serif" font-size="14.00">Module</text>
</g>
<!-- ast.FunctionDef object at 0x7d1f88f9dc50 -->
<g id="node2" class="node">
<title>ast.FunctionDef object at 0x7d1f88f9dc50</title>
<path fill="#66cdaa" stroke="black" d="M1029,-612C1029,-612 968,-612 968,-612 962,-612 956,-606 956,-600 956,-600 956,-588 956,-588 956,-582 962,-576 968,-576 968,-576 1029,-576 1029,-576 1035,-576 1041,-582 1041,-588 1041,-588 1041,-600 1041,-600 1041,-606 1035,-612 1029,-612"/>
<text text-anchor="middle" x="998.5" y="-590.3" font-family="Times,serif" font-size="14.00">FunctionDef</text>
</g>
<!-- ast.Module object at 0x7d1f88f9ddd0&#45;&gt;ast.FunctionDef object at 0x7d1f88f9dc50 -->
<g id="edge1" class="edge">
<title>ast.Module object at 0x7d1f88f9ddd0&#45;&gt;ast.FunctionDef object at 0x7d1f88f9dc50</title>
<path fill="none" stroke="black" d="M998.5,-647.7C998.5,-639.98 998.5,-630.71 998.5,-622.11"/>
<polygon fill="black" stroke="black" points="1002,-622.1 998.5,-612.1 995,-622.1 1002,-622.1"/>
</g>
<!-- ast.arguments object at 0x7d1f88f9c9d0 -->
<g id="node3" class="node">
<title>ast.arguments object at 0x7d1f88f9c9d0</title>
<path fill="#66cdaa" stroke="black" d="M627.5,-540C627.5,-540 577.5,-540 577.5,-540 571.5,-540 565.5,-534 565.5,-528 565.5,-528 565.5,-516 565.5,-516 565.5,-510 571.5,-504 577.5,-504 577.5,-504 627.5,-504 627.5,-504 633.5,-504 639.5,-510 639.5,-516 639.5,-516 639.5,-528 639.5,-528 639.5,-534 633.5,-540 627.5,-540"/>
<text text-anchor="middle" x="602.5" y="-518.3" font-family="Times,serif" font-size="14.00">arguments</text>
</g>
<!-- ast.FunctionDef object at 0x7d1f88f9dc50&#45;&gt;ast.arguments object at 0x7d1f88f9c9d0 -->
<g id="edge2" class="edge">
<title>ast.FunctionDef object at 0x7d1f88f9dc50&#45;&gt;ast.arguments object at 0x7d1f88f9c9d0</title>
<path fill="none" stroke="black" d="M955.74,-585.44C881,-572.23 727.17,-545.04 649.53,-531.31"/>
<polygon fill="black" stroke="black" points="650,-527.84 639.54,-529.55 648.78,-534.74 650,-527.84"/>
</g>
<!-- ast.Assign object at 0x7d1f88f9d850 -->
<g id="node5" class="node">
<title>ast.Assign object at 0x7d1f88f9d850</title>
<path fill="#66cdaa" stroke="black" d="M1013.5,-468C1013.5,-468 983.5,-468 983.5,-468 977.5,-468 971.5,-462 971.5,-456 971.5,-456 971.5,-444 971.5,-444 971.5,-438 977.5,-432 983.5,-432 983.5,-432 1013.5,-432 1013.5,-432 1019.5,-432 1025.5,-438 1025.5,-444 1025.5,-444 1025.5,-456 1025.5,-456 1025.5,-462 1019.5,-468 1013.5,-468"/>
<text text-anchor="middle" x="998.5" y="-446.3" font-family="Times,serif" font-size="14.00">Assign</text>
</g>
<!-- ast.FunctionDef object at 0x7d1f88f9dc50&#45;&gt;ast.Assign object at 0x7d1f88f9d850 -->
<g id="edge4" class="edge">
<title>ast.FunctionDef object at 0x7d1f88f9dc50&#45;&gt;ast.Assign object at 0x7d1f88f9d850</title>
<path fill="none" stroke="black" d="M998.5,-575.87C998.5,-551.67 998.5,-507.21 998.5,-478.39"/>
<polygon fill="black" stroke="black" points="1002,-478.19 998.5,-468.19 995,-478.19 1002,-478.19"/>
</g>
<!-- ast.If object at 0x7d1f88f9d910 -->
<g id="node10" class="node">
<title>ast.If object at 0x7d1f88f9d910</title>
<path fill="#66cdaa" stroke="black" d="M1105.5,-324C1105.5,-324 1075.5,-324 1075.5,-324 1069.5,-324 1063.5,-318 1063.5,-312 1063.5,-312 1063.5,-300 1063.5,-300 1063.5,-294 1069.5,-288 1075.5,-288 1075.5,-288 1105.5,-288 1105.5,-288 1111.5,-288 1117.5,-294 1117.5,-300 1117.5,-300 1117.5,-312 1117.5,-312 1117.5,-318 1111.5,-324 1105.5,-324"/>
<text text-anchor="middle" x="1090.5" y="-302.3" font-family="Times,serif" font-size="14.00">If</text>
</g>
<!-- ast.FunctionDef object at 0x7d1f88f9dc50&#45;&gt;ast.If object at 0x7d1f88f9d910 -->
<g id="edge9" class="edge">
<title>ast.FunctionDef object at 0x7d1f88f9dc50&#45;&gt;ast.If object at 0x7d1f88f9d910</title>
<path fill="none" stroke="black" d="M1005.62,-575.86C1019.51,-541.96 1050.59,-463.78 1070.5,-396 1076.49,-375.62 1081.69,-352.15 1085.29,-334.44"/>
<polygon fill="black" stroke="black" points="1088.8,-334.72 1087.32,-324.23 1081.94,-333.36 1088.8,-334.72"/>
</g>
<!-- ast.For object at 0x7d1f88f76c50 -->
<g id="node19" class="node">
<title>ast.For object at 0x7d1f88f76c50</title>
<path fill="#66cdaa" stroke="black" d="M803.5,-540C803.5,-540 773.5,-540 773.5,-540 767.5,-540 761.5,-534 761.5,-528 761.5,-528 761.5,-516 761.5,-516 761.5,-510 767.5,-504 773.5,-504 773.5,-504 803.5,-504 803.5,-504 809.5,-504 815.5,-510 815.5,-516 815.5,-516 815.5,-528 815.5,-528 815.5,-534 809.5,-540 803.5,-540"/>
<text text-anchor="middle" x="788.5" y="-518.3" font-family="Times,serif" font-size="14.00">For</text>
</g>
<!-- ast.FunctionDef object at 0x7d1f88f9dc50&#45;&gt;ast.For object at 0x7d1f88f76c50 -->
<g id="edge21" class="edge">
<title>ast.FunctionDef object at 0x7d1f88f9dc50&#45;&gt;ast.For object at 0x7d1f88f76c50</title>
<path fill="none" stroke="black" d="M955.75,-578.75C917.38,-565.96 861.66,-547.39 825.26,-535.25"/>
<polygon fill="black" stroke="black" points="826.12,-531.85 815.53,-532.01 823.91,-538.49 826.12,-531.85"/>
</g>
<!-- ast.Return object at 0x7d1f88fa1490 -->
<g id="node61" class="node">
<title>ast.Return object at 0x7d1f88fa1490</title>
<path fill="#66cdaa" stroke="black" d="M1160.5,-540C1160.5,-540 1130.5,-540 1130.5,-540 1124.5,-540 1118.5,-534 1118.5,-528 1118.5,-528 1118.5,-516 1118.5,-516 1118.5,-510 1124.5,-504 1130.5,-504 1130.5,-504 1160.5,-504 1160.5,-504 1166.5,-504 1172.5,-510 1172.5,-516 1172.5,-516 1172.5,-528 1172.5,-528 1172.5,-534 1166.5,-540 1160.5,-540"/>
<text text-anchor="middle" x="1145.5" y="-518.3" font-family="Times,serif" font-size="14.00">Return</text>
</g>
<!-- ast.FunctionDef object at 0x7d1f88f9dc50&#45;&gt;ast.Return object at 0x7d1f88fa1490 -->
<g id="edge81" class="edge">
<title>ast.FunctionDef object at 0x7d1f88f9dc50&#45;&gt;ast.Return object at 0x7d1f88fa1490</title>
<path fill="none" stroke="black" d="M1034.46,-575.88C1057.07,-565.11 1086.16,-551.26 1108.89,-540.43"/>
<polygon fill="black" stroke="black" points="1110.68,-543.46 1118.21,-536 1107.67,-537.14 1110.68,-543.46"/>
</g>
<!-- ast.arg object at 0x7d1f88f9e490 -->
<g id="node4" class="node">
<title>ast.arg object at 0x7d1f88f9e490</title>
<path fill="#66cdaa" stroke="black" d="M469.5,-468C469.5,-468 439.5,-468 439.5,-468 433.5,-468 427.5,-462 427.5,-456 427.5,-456 427.5,-444 427.5,-444 427.5,-438 433.5,-432 439.5,-432 439.5,-432 469.5,-432 469.5,-432 475.5,-432 481.5,-438 481.5,-444 481.5,-444 481.5,-456 481.5,-456 481.5,-462 475.5,-468 469.5,-468"/>
<text text-anchor="middle" x="454.5" y="-446.3" font-family="Times,serif" font-size="14.00">arg</text>
</g>
<!-- ast.arguments object at 0x7d1f88f9c9d0&#45;&gt;ast.arg object at 0x7d1f88f9e490 -->
<g id="edge3" class="edge">
<title>ast.arguments object at 0x7d1f88f9c9d0&#45;&gt;ast.arg object at 0x7d1f88f9e490</title>
<path fill="none" stroke="black" d="M566.3,-503.88C543.28,-492.99 513.6,-478.95 490.6,-468.07"/>
<polygon fill="black" stroke="black" points="492.05,-464.89 481.51,-463.78 489.06,-471.22 492.05,-464.89"/>
</g>
<!-- ast.Name object at 0x7d1f88f9d990 -->
<g id="node6" class="node">
<title>ast.Name object at 0x7d1f88f9d990</title>
<path fill="#66cdaa" stroke="black" d="M976.5,-396C976.5,-396 946.5,-396 946.5,-396 940.5,-396 934.5,-390 934.5,-384 934.5,-384 934.5,-372 934.5,-372 934.5,-366 940.5,-360 946.5,-360 946.5,-360 976.5,-360 976.5,-360 982.5,-360 988.5,-366 988.5,-372 988.5,-372 988.5,-384 988.5,-384 988.5,-390 982.5,-396 976.5,-396"/>
<text text-anchor="middle" x="961.5" y="-374.3" font-family="Times,serif" font-size="14.00">Name</text>
</g>
<!-- ast.Assign object at 0x7d1f88f9d850&#45;&gt;ast.Name object at 0x7d1f88f9d990 -->
<g id="edge5" class="edge">
<title>ast.Assign object at 0x7d1f88f9d850&#45;&gt;ast.Name object at 0x7d1f88f9d990</title>
<path fill="none" stroke="black" d="M989.35,-431.7C985.1,-423.64 979.94,-413.89 975.23,-404.98"/>
<polygon fill="black" stroke="black" points="978.31,-403.31 970.54,-396.1 972.12,-406.58 978.31,-403.31"/>
</g>
<!-- ast.List object at 0x7d1f88f9cc90 -->
<g id="node8" class="node">
<title>ast.List object at 0x7d1f88f9cc90</title>
<path fill="#66cdaa" stroke="black" d="M1049.5,-396C1049.5,-396 1019.5,-396 1019.5,-396 1013.5,-396 1007.5,-390 1007.5,-384 1007.5,-384 1007.5,-372 1007.5,-372 1007.5,-366 1013.5,-360 1019.5,-360 1019.5,-360 1049.5,-360 1049.5,-360 1055.5,-360 1061.5,-366 1061.5,-372 1061.5,-372 1061.5,-384 1061.5,-384 1061.5,-390 1055.5,-396 1049.5,-396"/>
<text text-anchor="middle" x="1034.5" y="-374.3" font-family="Times,serif" font-size="14.00">List</text>
</g>
<!-- ast.Assign object at 0x7d1f88f9d850&#45;&gt;ast.List object at 0x7d1f88f9cc90 -->
<g id="edge7" class="edge">
<title>ast.Assign object at 0x7d1f88f9d850&#45;&gt;ast.List object at 0x7d1f88f9cc90</title>
<path fill="none" stroke="black" d="M1007.4,-431.7C1011.5,-423.73 1016.45,-414.1 1020.99,-405.26"/>
<polygon fill="black" stroke="black" points="1024.24,-406.6 1025.7,-396.1 1018.02,-403.4 1024.24,-406.6"/>
</g>
<!-- ast.Store object at 0x7d1fa6fa9d90 -->
<g id="node7" class="node">
<title>ast.Store object at 0x7d1fa6fa9d90</title>
<path fill="#66cdaa" stroke="black" d="M902.5,-324C902.5,-324 872.5,-324 872.5,-324 866.5,-324 860.5,-318 860.5,-312 860.5,-312 860.5,-300 860.5,-300 860.5,-294 866.5,-288 872.5,-288 872.5,-288 902.5,-288 902.5,-288 908.5,-288 914.5,-294 914.5,-300 914.5,-300 914.5,-312 914.5,-312 914.5,-318 908.5,-324 902.5,-324"/>
<text text-anchor="middle" x="887.5" y="-302.3" font-family="Times,serif" font-size="14.00">Store</text>
</g>
<!-- ast.Name object at 0x7d1f88f9d990&#45;&gt;ast.Store object at 0x7d1fa6fa9d90 -->
<g id="edge6" class="edge">
<title>ast.Name object at 0x7d1f88f9d990&#45;&gt;ast.Store object at 0x7d1fa6fa9d90</title>
<path fill="none" stroke="black" d="M943.21,-359.7C934.07,-351.05 922.86,-340.45 912.9,-331.03"/>
<polygon fill="black" stroke="black" points="915.25,-328.43 905.58,-324.1 910.44,-333.52 915.25,-328.43"/>
</g>
<!-- ast.Load object at 0x7d1fa6fa9d10 -->
<g id="node9" class="node">
<title>ast.Load object at 0x7d1fa6fa9d10</title>
<path fill="#66cdaa" stroke="black" d="M701.5,-36C701.5,-36 671.5,-36 671.5,-36 665.5,-36 659.5,-30 659.5,-24 659.5,-24 659.5,-12 659.5,-12 659.5,-6 665.5,0 671.5,0 671.5,0 701.5,0 701.5,0 707.5,0 713.5,-6 713.5,-12 713.5,-12 713.5,-24 713.5,-24 713.5,-30 707.5,-36 701.5,-36"/>
<text text-anchor="middle" x="686.5" y="-14.3" font-family="Times,serif" font-size="14.00">Load</text>
</g>
<!-- ast.List object at 0x7d1f88f9cc90&#45;&gt;ast.Load object at 0x7d1fa6fa9d10 -->
<g id="edge8" class="edge">
<title>ast.List object at 0x7d1f88f9cc90&#45;&gt;ast.Load object at 0x7d1fa6fa9d10</title>
<path fill="none" stroke="black" d="M1036.85,-359.74C1044.36,-301.71 1065.12,-114.91 1027.5,-72 988.19,-27.16 803.83,-20.01 723.77,-19.04"/>
<polygon fill="black" stroke="black" points="723.67,-15.54 713.64,-18.95 723.6,-22.54 723.67,-15.54"/>
</g>
<!-- ast.Compare object at 0x7d1f88f9d650 -->
<g id="node11" class="node">
<title>ast.Compare object at 0x7d1f88f9d650</title>
<path fill="#66cdaa" stroke="black" d="M1207,-252C1207,-252 1164,-252 1164,-252 1158,-252 1152,-246 1152,-240 1152,-240 1152,-228 1152,-228 1152,-222 1158,-216 1164,-216 1164,-216 1207,-216 1207,-216 1213,-216 1219,-222 1219,-228 1219,-228 1219,-240 1219,-240 1219,-246 1213,-252 1207,-252"/>
<text text-anchor="middle" x="1185.5" y="-230.3" font-family="Times,serif" font-size="14.00">Compare</text>
</g>
<!-- ast.If object at 0x7d1f88f9d910&#45;&gt;ast.Compare object at 0x7d1f88f9d650 -->
<g id="edge10" class="edge">
<title>ast.If object at 0x7d1f88f9d910&#45;&gt;ast.Compare object at 0x7d1f88f9d650</title>
<path fill="none" stroke="black" d="M1113.98,-287.7C1126.06,-278.8 1140.95,-267.82 1154.02,-258.2"/>
<polygon fill="black" stroke="black" points="1156.31,-260.85 1162.29,-252.1 1152.16,-255.22 1156.31,-260.85"/>
</g>
<!-- ast.Return object at 0x7d1f88f9e410 -->
<g id="node17" class="node">
<title>ast.Return object at 0x7d1f88f9e410</title>
<path fill="#66cdaa" stroke="black" d="M1105.5,-252C1105.5,-252 1075.5,-252 1075.5,-252 1069.5,-252 1063.5,-246 1063.5,-240 1063.5,-240 1063.5,-228 1063.5,-228 1063.5,-222 1069.5,-216 1075.5,-216 1075.5,-216 1105.5,-216 1105.5,-216 1111.5,-216 1117.5,-222 1117.5,-228 1117.5,-228 1117.5,-240 1117.5,-240 1117.5,-246 1111.5,-252 1105.5,-252"/>
<text text-anchor="middle" x="1090.5" y="-230.3" font-family="Times,serif" font-size="14.00">Return</text>
</g>
<!-- ast.If object at 0x7d1f88f9d910&#45;&gt;ast.Return object at 0x7d1f88f9e410 -->
<g id="edge18" class="edge">
<title>ast.If object at 0x7d1f88f9d910&#45;&gt;ast.Return object at 0x7d1f88f9e410</title>
<path fill="none" stroke="black" d="M1090.5,-287.7C1090.5,-279.98 1090.5,-270.71 1090.5,-262.11"/>
<polygon fill="black" stroke="black" points="1094,-262.1 1090.5,-252.1 1087,-262.1 1094,-262.1"/>
</g>
<!-- ast.Call object at 0x7d1f88f9e3d0 -->
<g id="node12" class="node">
<title>ast.Call object at 0x7d1f88f9e3d0</title>
<path fill="#66cdaa" stroke="black" d="M1215.5,-180C1215.5,-180 1185.5,-180 1185.5,-180 1179.5,-180 1173.5,-174 1173.5,-168 1173.5,-168 1173.5,-156 1173.5,-156 1173.5,-150 1179.5,-144 1185.5,-144 1185.5,-144 1215.5,-144 1215.5,-144 1221.5,-144 1227.5,-150 1227.5,-156 1227.5,-156 1227.5,-168 1227.5,-168 1227.5,-174 1221.5,-180 1215.5,-180"/>
<text text-anchor="middle" x="1200.5" y="-158.3" font-family="Times,serif" font-size="14.00">Call</text>
</g>
<!-- ast.Compare object at 0x7d1f88f9d650&#45;&gt;ast.Call object at 0x7d1f88f9e3d0 -->
<g id="edge11" class="edge">
<title>ast.Compare object at 0x7d1f88f9d650&#45;&gt;ast.Call object at 0x7d1f88f9e3d0</title>
<path fill="none" stroke="black" d="M1189.21,-215.7C1190.86,-207.98 1192.85,-198.71 1194.69,-190.11"/>
<polygon fill="black" stroke="black" points="1198.16,-190.62 1196.83,-180.1 1191.32,-189.15 1198.16,-190.62"/>
</g>
<!-- ast.Lt object at 0x7d1fa6faae10 -->
<g id="node15" class="node">
<title>ast.Lt object at 0x7d1fa6faae10</title>
<path fill="#66cdaa" stroke="black" d="M1143.5,-180C1143.5,-180 1113.5,-180 1113.5,-180 1107.5,-180 1101.5,-174 1101.5,-168 1101.5,-168 1101.5,-156 1101.5,-156 1101.5,-150 1107.5,-144 1113.5,-144 1113.5,-144 1143.5,-144 1143.5,-144 1149.5,-144 1155.5,-150 1155.5,-156 1155.5,-156 1155.5,-168 1155.5,-168 1155.5,-174 1149.5,-180 1143.5,-180"/>
<text text-anchor="middle" x="1128.5" y="-158.3" font-family="Times,serif" font-size="14.00">Lt</text>
</g>
<!-- ast.Compare object at 0x7d1f88f9d650&#45;&gt;ast.Lt object at 0x7d1fa6faae10 -->
<g id="edge16" class="edge">
<title>ast.Compare object at 0x7d1f88f9d650&#45;&gt;ast.Lt object at 0x7d1fa6faae10</title>
<path fill="none" stroke="black" d="M1171.41,-215.7C1164.58,-207.3 1156.24,-197.07 1148.74,-187.86"/>
<polygon fill="black" stroke="black" points="1151.46,-185.65 1142.43,-180.1 1146.03,-190.07 1151.46,-185.65"/>
</g>
<!-- ast.Constant object at 0x7d1f88f9c890 -->
<g id="node16" class="node">
<title>ast.Constant object at 0x7d1f88f9c890</title>
<path fill="#66cdaa" stroke="black" d="M1299,-180C1299,-180 1258,-180 1258,-180 1252,-180 1246,-174 1246,-168 1246,-168 1246,-156 1246,-156 1246,-150 1252,-144 1258,-144 1258,-144 1299,-144 1299,-144 1305,-144 1311,-150 1311,-156 1311,-156 1311,-168 1311,-168 1311,-174 1305,-180 1299,-180"/>
<text text-anchor="middle" x="1278.5" y="-158.3" font-family="Times,serif" font-size="14.00">Constant</text>
</g>
<!-- ast.Compare object at 0x7d1f88f9d650&#45;&gt;ast.Constant object at 0x7d1f88f9c890 -->
<g id="edge17" class="edge">
<title>ast.Compare object at 0x7d1f88f9d650&#45;&gt;ast.Constant object at 0x7d1f88f9c890</title>
<path fill="none" stroke="black" d="M1208.49,-215.7C1220.31,-206.8 1234.89,-195.82 1247.68,-186.2"/>
<polygon fill="black" stroke="black" points="1249.89,-188.91 1255.78,-180.1 1245.68,-183.32 1249.89,-188.91"/>
</g>
<!-- ast.Name object at 0x7d1f88f9d950 -->
<g id="node13" class="node">
<title>ast.Name object at 0x7d1f88f9d950</title>
<path fill="#66cdaa" stroke="black" d="M1189.5,-108C1189.5,-108 1159.5,-108 1159.5,-108 1153.5,-108 1147.5,-102 1147.5,-96 1147.5,-96 1147.5,-84 1147.5,-84 1147.5,-78 1153.5,-72 1159.5,-72 1159.5,-72 1189.5,-72 1189.5,-72 1195.5,-72 1201.5,-78 1201.5,-84 1201.5,-84 1201.5,-96 1201.5,-96 1201.5,-102 1195.5,-108 1189.5,-108"/>
<text text-anchor="middle" x="1174.5" y="-86.3" font-family="Times,serif" font-size="14.00">Name</text>
</g>
<!-- ast.Call object at 0x7d1f88f9e3d0&#45;&gt;ast.Name object at 0x7d1f88f9d950 -->
<g id="edge12" class="edge">
<title>ast.Call object at 0x7d1f88f9e3d0&#45;&gt;ast.Name object at 0x7d1f88f9d950</title>
<path fill="none" stroke="black" d="M1194.07,-143.7C1191.14,-135.81 1187.61,-126.3 1184.36,-117.55"/>
<polygon fill="black" stroke="black" points="1187.62,-116.26 1180.85,-108.1 1181.05,-118.7 1187.62,-116.26"/>
</g>
<!-- ast.Name object at 0x7d1f88f9ce90 -->
<g id="node14" class="node">
<title>ast.Name object at 0x7d1f88f9ce90</title>
<path fill="#66cdaa" stroke="black" d="M1261.5,-108C1261.5,-108 1231.5,-108 1231.5,-108 1225.5,-108 1219.5,-102 1219.5,-96 1219.5,-96 1219.5,-84 1219.5,-84 1219.5,-78 1225.5,-72 1231.5,-72 1231.5,-72 1261.5,-72 1261.5,-72 1267.5,-72 1273.5,-78 1273.5,-84 1273.5,-84 1273.5,-96 1273.5,-96 1273.5,-102 1267.5,-108 1261.5,-108"/>
<text text-anchor="middle" x="1246.5" y="-86.3" font-family="Times,serif" font-size="14.00">Name</text>
</g>
<!-- ast.Call object at 0x7d1f88f9e3d0&#45;&gt;ast.Name object at 0x7d1f88f9ce90 -->
<g id="edge14" class="edge">
<title>ast.Call object at 0x7d1f88f9e3d0&#45;&gt;ast.Name object at 0x7d1f88f9ce90</title>
<path fill="none" stroke="black" d="M1211.87,-143.7C1217.22,-135.56 1223.7,-125.69 1229.61,-116.7"/>
<polygon fill="black" stroke="black" points="1232.69,-118.38 1235.26,-108.1 1226.84,-114.54 1232.69,-118.38"/>
</g>
<!-- ast.Name object at 0x7d1f88f9d950&#45;&gt;ast.Load object at 0x7d1fa6fa9d10 -->
<g id="edge13" class="edge">
<title>ast.Name object at 0x7d1f88f9d950&#45;&gt;ast.Load object at 0x7d1fa6fa9d10</title>
<path fill="none" stroke="black" d="M1147.34,-75.06C1144.41,-73.89 1141.42,-72.84 1138.5,-72 989.06,-29.2 802.35,-20.88 723.92,-19.32"/>
<polygon fill="black" stroke="black" points="723.64,-15.82 713.59,-19.15 723.52,-22.82 723.64,-15.82"/>
</g>
<!-- ast.Name object at 0x7d1f88f9ce90&#45;&gt;ast.Load object at 0x7d1fa6fa9d10 -->
<g id="edge15" class="edge">
<title>ast.Name object at 0x7d1f88f9ce90&#45;&gt;ast.Load object at 0x7d1fa6fa9d10</title>
<path fill="none" stroke="black" d="M1219.35,-75.01C1216.42,-73.85 1213.43,-72.81 1210.5,-72 1033.11,-22.72 810.6,-18.17 723.69,-18.48"/>
<polygon fill="black" stroke="black" points="723.51,-14.98 713.54,-18.54 723.56,-21.98 723.51,-14.98"/>
</g>
<!-- ast.Name object at 0x7d1f88f9c110 -->
<g id="node18" class="node">
<title>ast.Name object at 0x7d1f88f9c110</title>
<path fill="#66cdaa" stroke="black" d="M1117.5,-108C1117.5,-108 1087.5,-108 1087.5,-108 1081.5,-108 1075.5,-102 1075.5,-96 1075.5,-96 1075.5,-84 1075.5,-84 1075.5,-78 1081.5,-72 1087.5,-72 1087.5,-72 1117.5,-72 1117.5,-72 1123.5,-72 1129.5,-78 1129.5,-84 1129.5,-84 1129.5,-96 1129.5,-96 1129.5,-102 1123.5,-108 1117.5,-108"/>
<text text-anchor="middle" x="1102.5" y="-86.3" font-family="Times,serif" font-size="14.00">Name</text>
</g>
<!-- ast.Return object at 0x7d1f88f9e410&#45;&gt;ast.Name object at 0x7d1f88f9c110 -->
<g id="edge19" class="edge">
<title>ast.Return object at 0x7d1f88f9e410&#45;&gt;ast.Name object at 0x7d1f88f9c110</title>
<path fill="none" stroke="black" d="M1090.05,-215.89C1089.78,-197.93 1089.89,-168.9 1092.5,-144 1093.39,-135.49 1094.92,-126.3 1096.52,-118"/>
<polygon fill="black" stroke="black" points="1099.97,-118.58 1098.54,-108.08 1093.12,-117.18 1099.97,-118.58"/>
</g>
<!-- ast.Name object at 0x7d1f88f9c110&#45;&gt;ast.Load object at 0x7d1fa6fa9d10 -->
<g id="edge20" class="edge">
<title>ast.Name object at 0x7d1f88f9c110&#45;&gt;ast.Load object at 0x7d1fa6fa9d10</title>
<path fill="none" stroke="black" d="M1075.49,-76.68C1070.89,-74.91 1066.11,-73.26 1061.5,-72 940.79,-39.02 792.3,-25.78 724.05,-21.16"/>
<polygon fill="black" stroke="black" points="724.01,-17.65 713.8,-20.49 723.55,-24.64 724.01,-17.65"/>
</g>
<!-- ast.Name object at 0x7d1f88f9e590 -->
<g id="node20" class="node">
<title>ast.Name object at 0x7d1f88f9e590</title>
<path fill="#66cdaa" stroke="black" d="M902.5,-396C902.5,-396 872.5,-396 872.5,-396 866.5,-396 860.5,-390 860.5,-384 860.5,-384 860.5,-372 860.5,-372 860.5,-366 866.5,-360 872.5,-360 872.5,-360 902.5,-360 902.5,-360 908.5,-360 914.5,-366 914.5,-372 914.5,-372 914.5,-384 914.5,-384 914.5,-390 908.5,-396 902.5,-396"/>
<text text-anchor="middle" x="887.5" y="-374.3" font-family="Times,serif" font-size="14.00">Name</text>
</g>
<!-- ast.For object at 0x7d1f88f76c50&#45;&gt;ast.Name object at 0x7d1f88f9e590 -->
<g id="edge22" class="edge">
<title>ast.For object at 0x7d1f88f76c50&#45;&gt;ast.Name object at 0x7d1f88f9e590</title>
<path fill="none" stroke="black" d="M800.44,-503.87C817.69,-479.14 849.68,-433.24 869.71,-404.51"/>
<polygon fill="black" stroke="black" points="872.67,-406.39 875.52,-396.19 866.93,-402.39 872.67,-406.39"/>
</g>
<!-- ast.Call object at 0x7d1f88f9ed50 -->
<g id="node21" class="node">
<title>ast.Call object at 0x7d1f88f9ed50</title>
<path fill="#66cdaa" stroke="black" d="M629.5,-324C629.5,-324 599.5,-324 599.5,-324 593.5,-324 587.5,-318 587.5,-312 587.5,-312 587.5,-300 587.5,-300 587.5,-294 593.5,-288 599.5,-288 599.5,-288 629.5,-288 629.5,-288 635.5,-288 641.5,-294 641.5,-300 641.5,-300 641.5,-312 641.5,-312 641.5,-318 635.5,-324 629.5,-324"/>
<text text-anchor="middle" x="614.5" y="-302.3" font-family="Times,serif" font-size="14.00">Call</text>
</g>
<!-- ast.For object at 0x7d1f88f76c50&#45;&gt;ast.Call object at 0x7d1f88f9ed50 -->
<g id="edge24" class="edge">
<title>ast.For object at 0x7d1f88f76c50&#45;&gt;ast.Call object at 0x7d1f88f9ed50</title>
<path fill="none" stroke="black" d="M774.55,-503.85C743.95,-466.21 670.77,-376.2 634.95,-332.15"/>
<polygon fill="black" stroke="black" points="637.54,-329.78 628.51,-324.23 632.1,-334.2 637.54,-329.78"/>
</g>
<!-- ast.Assign object at 0x7d1f88f9d150 -->
<g id="node30" class="node">
<title>ast.Assign object at 0x7d1f88f9d150</title>
<path fill="#66cdaa" stroke="black" d="M803.5,-468C803.5,-468 773.5,-468 773.5,-468 767.5,-468 761.5,-462 761.5,-456 761.5,-456 761.5,-444 761.5,-444 761.5,-438 767.5,-432 773.5,-432 773.5,-432 803.5,-432 803.5,-432 809.5,-432 815.5,-438 815.5,-444 815.5,-444 815.5,-456 815.5,-456 815.5,-462 809.5,-468 803.5,-468"/>
<text text-anchor="middle" x="788.5" y="-446.3" font-family="Times,serif" font-size="14.00">Assign</text>
</g>
<!-- ast.For object at 0x7d1f88f76c50&#45;&gt;ast.Assign object at 0x7d1f88f9d150 -->
<g id="edge36" class="edge">
<title>ast.For object at 0x7d1f88f76c50&#45;&gt;ast.Assign object at 0x7d1f88f9d150</title>
<path fill="none" stroke="black" d="M788.5,-503.7C788.5,-495.98 788.5,-486.71 788.5,-478.11"/>
<polygon fill="black" stroke="black" points="792,-478.1 788.5,-468.1 785,-478.1 792,-478.1"/>
</g>
<!-- ast.If object at 0x7d1f88f9c250 -->
<g id="node40" class="node">
<title>ast.If object at 0x7d1f88f9c250</title>
<path fill="#66cdaa" stroke="black" d="M541.5,-468C541.5,-468 511.5,-468 511.5,-468 505.5,-468 499.5,-462 499.5,-456 499.5,-456 499.5,-444 499.5,-444 499.5,-438 505.5,-432 511.5,-432 511.5,-432 541.5,-432 541.5,-432 547.5,-432 553.5,-438 553.5,-444 553.5,-444 553.5,-456 553.5,-456 553.5,-462 547.5,-468 541.5,-468"/>
<text text-anchor="middle" x="526.5" y="-446.3" font-family="Times,serif" font-size="14.00">If</text>
</g>
<!-- ast.For object at 0x7d1f88f76c50&#45;&gt;ast.If object at 0x7d1f88f9c250 -->
<g id="edge51" class="edge">
<title>ast.For object at 0x7d1f88f76c50&#45;&gt;ast.If object at 0x7d1f88f9c250</title>
<path fill="none" stroke="black" d="M761.45,-513.77C714.28,-501.17 616.94,-475.16 563.55,-460.9"/>
<polygon fill="black" stroke="black" points="564.36,-457.49 553.8,-458.29 562.55,-464.26 564.36,-457.49"/>
</g>
<!-- ast.Name object at 0x7d1f88f9e590&#45;&gt;ast.Store object at 0x7d1fa6fa9d90 -->
<g id="edge23" class="edge">
<title>ast.Name object at 0x7d1f88f9e590&#45;&gt;ast.Store object at 0x7d1fa6fa9d90</title>
<path fill="none" stroke="black" d="M887.5,-359.7C887.5,-351.98 887.5,-342.71 887.5,-334.11"/>
<polygon fill="black" stroke="black" points="891,-334.1 887.5,-324.1 884,-334.1 891,-334.1"/>
</g>
<!-- ast.Name object at 0x7d1f88f9e690 -->
<g id="node22" class="node">
<title>ast.Name object at 0x7d1f88f9e690</title>
<path fill="#66cdaa" stroke="black" d="M665.5,-252C665.5,-252 635.5,-252 635.5,-252 629.5,-252 623.5,-246 623.5,-240 623.5,-240 623.5,-228 623.5,-228 623.5,-222 629.5,-216 635.5,-216 635.5,-216 665.5,-216 665.5,-216 671.5,-216 677.5,-222 677.5,-228 677.5,-228 677.5,-240 677.5,-240 677.5,-246 671.5,-252 665.5,-252"/>
<text text-anchor="middle" x="650.5" y="-230.3" font-family="Times,serif" font-size="14.00">Name</text>
</g>
<!-- ast.Call object at 0x7d1f88f9ed50&#45;&gt;ast.Name object at 0x7d1f88f9e690 -->
<g id="edge25" class="edge">
<title>ast.Call object at 0x7d1f88f9ed50&#45;&gt;ast.Name object at 0x7d1f88f9e690</title>
<path fill="none" stroke="black" d="M623.4,-287.7C627.5,-279.73 632.45,-270.1 636.99,-261.26"/>
<polygon fill="black" stroke="black" points="640.24,-262.6 641.7,-252.1 634.02,-259.4 640.24,-262.6"/>
</g>
<!-- ast.Constant object at 0x7d1f88f9dd50 -->
<g id="node23" class="node">
<title>ast.Constant object at 0x7d1f88f9dd50</title>
<path fill="#66cdaa" stroke="black" d="M521,-252C521,-252 480,-252 480,-252 474,-252 468,-246 468,-240 468,-240 468,-228 468,-228 468,-222 474,-216 480,-216 480,-216 521,-216 521,-216 527,-216 533,-222 533,-228 533,-228 533,-240 533,-240 533,-246 527,-252 521,-252"/>
<text text-anchor="middle" x="500.5" y="-230.3" font-family="Times,serif" font-size="14.00">Constant</text>
</g>
<!-- ast.Call object at 0x7d1f88f9ed50&#45;&gt;ast.Constant object at 0x7d1f88f9dd50 -->
<g id="edge27" class="edge">
<title>ast.Call object at 0x7d1f88f9ed50&#45;&gt;ast.Constant object at 0x7d1f88f9dd50</title>
<path fill="none" stroke="black" d="M587.48,-288.41C572.48,-279.2 553.61,-267.61 537.28,-257.59"/>
<polygon fill="black" stroke="black" points="538.87,-254.45 528.51,-252.2 535.2,-260.42 538.87,-254.45"/>
</g>
<!-- ast.BinOp object at 0x7d1f88f9e850 -->
<g id="node24" class="node">
<title>ast.BinOp object at 0x7d1f88f9e850</title>
<path fill="#66cdaa" stroke="black" d="M593.5,-252C593.5,-252 563.5,-252 563.5,-252 557.5,-252 551.5,-246 551.5,-240 551.5,-240 551.5,-228 551.5,-228 551.5,-222 557.5,-216 563.5,-216 563.5,-216 593.5,-216 593.5,-216 599.5,-216 605.5,-222 605.5,-228 605.5,-228 605.5,-240 605.5,-240 605.5,-246 599.5,-252 593.5,-252"/>
<text text-anchor="middle" x="578.5" y="-230.3" font-family="Times,serif" font-size="14.00">BinOp</text>
</g>
<!-- ast.Call object at 0x7d1f88f9ed50&#45;&gt;ast.BinOp object at 0x7d1f88f9e850 -->
<g id="edge28" class="edge">
<title>ast.Call object at 0x7d1f88f9ed50&#45;&gt;ast.BinOp object at 0x7d1f88f9e850</title>
<path fill="none" stroke="black" d="M605.6,-287.7C601.5,-279.73 596.55,-270.1 592.01,-261.26"/>
<polygon fill="black" stroke="black" points="594.98,-259.4 587.3,-252.1 588.76,-262.6 594.98,-259.4"/>
</g>
<!-- ast.Name object at 0x7d1f88f9e690&#45;&gt;ast.Load object at 0x7d1fa6fa9d10 -->
<g id="edge26" class="edge">
<title>ast.Name object at 0x7d1f88f9e690&#45;&gt;ast.Load object at 0x7d1fa6fa9d10</title>
<path fill="none" stroke="black" d="M653.39,-215.85C659.63,-178.75 674.42,-90.81 681.94,-46.1"/>
<polygon fill="black" stroke="black" points="685.39,-46.67 683.6,-36.23 678.49,-45.51 685.39,-46.67"/>
</g>
<!-- ast.Call object at 0x7d1f88f9ca50 -->
<g id="node25" class="node">
<title>ast.Call object at 0x7d1f88f9ca50</title>
<path fill="#66cdaa" stroke="black" d="M471.5,-180C471.5,-180 441.5,-180 441.5,-180 435.5,-180 429.5,-174 429.5,-168 429.5,-168 429.5,-156 429.5,-156 429.5,-150 435.5,-144 441.5,-144 441.5,-144 471.5,-144 471.5,-144 477.5,-144 483.5,-150 483.5,-156 483.5,-156 483.5,-168 483.5,-168 483.5,-174 477.5,-180 471.5,-180"/>
<text text-anchor="middle" x="456.5" y="-158.3" font-family="Times,serif" font-size="14.00">Call</text>
</g>
<!-- ast.BinOp object at 0x7d1f88f9e850&#45;&gt;ast.Call object at 0x7d1f88f9ca50 -->
<g id="edge29" class="edge">
<title>ast.BinOp object at 0x7d1f88f9e850&#45;&gt;ast.Call object at 0x7d1f88f9ca50</title>
<path fill="none" stroke="black" d="M551.42,-217.46C534.05,-207.5 511.29,-194.44 492.41,-183.61"/>
<polygon fill="black" stroke="black" points="493.92,-180.43 483.5,-178.49 490.43,-186.5 493.92,-180.43"/>
</g>
<!-- ast.Sub object at 0x7d1fa6faa290 -->
<g id="node28" class="node">
<title>ast.Sub object at 0x7d1fa6faa290</title>
<path fill="#66cdaa" stroke="black" d="M543.5,-180C543.5,-180 513.5,-180 513.5,-180 507.5,-180 501.5,-174 501.5,-168 501.5,-168 501.5,-156 501.5,-156 501.5,-150 507.5,-144 513.5,-144 513.5,-144 543.5,-144 543.5,-144 549.5,-144 555.5,-150 555.5,-156 555.5,-156 555.5,-168 555.5,-168 555.5,-174 549.5,-180 543.5,-180"/>
<text text-anchor="middle" x="528.5" y="-158.3" font-family="Times,serif" font-size="14.00">Sub</text>
</g>
<!-- ast.BinOp object at 0x7d1f88f9e850&#45;&gt;ast.Sub object at 0x7d1fa6faa290 -->
<g id="edge34" class="edge">
<title>ast.BinOp object at 0x7d1f88f9e850&#45;&gt;ast.Sub object at 0x7d1fa6faa290</title>
<path fill="none" stroke="black" d="M566.14,-215.7C560.27,-207.47 553.13,-197.48 546.66,-188.42"/>
<polygon fill="black" stroke="black" points="549.38,-186.21 540.72,-180.1 543.68,-190.28 549.38,-186.21"/>
</g>
<!-- ast.Constant object at 0x7d1f88f9d1d0 -->
<g id="node29" class="node">
<title>ast.Constant object at 0x7d1f88f9d1d0</title>
<path fill="#66cdaa" stroke="black" d="M627,-180C627,-180 586,-180 586,-180 580,-180 574,-174 574,-168 574,-168 574,-156 574,-156 574,-150 580,-144 586,-144 586,-144 627,-144 627,-144 633,-144 639,-150 639,-156 639,-156 639,-168 639,-168 639,-174 633,-180 627,-180"/>
<text text-anchor="middle" x="606.5" y="-158.3" font-family="Times,serif" font-size="14.00">Constant</text>
</g>
<!-- ast.BinOp object at 0x7d1f88f9e850&#45;&gt;ast.Constant object at 0x7d1f88f9d1d0 -->
<g id="edge35" class="edge">
<title>ast.BinOp object at 0x7d1f88f9e850&#45;&gt;ast.Constant object at 0x7d1f88f9d1d0</title>
<path fill="none" stroke="black" d="M585.42,-215.7C588.57,-207.81 592.38,-198.3 595.88,-189.55"/>
<polygon fill="black" stroke="black" points="599.19,-190.69 599.66,-180.1 592.69,-188.09 599.19,-190.69"/>
</g>
<!-- ast.Name object at 0x7d1f88f9ce10 -->
<g id="node26" class="node">
<title>ast.Name object at 0x7d1f88f9ce10</title>
<path fill="#66cdaa" stroke="black" d="M555.5,-108C555.5,-108 525.5,-108 525.5,-108 519.5,-108 513.5,-102 513.5,-96 513.5,-96 513.5,-84 513.5,-84 513.5,-78 519.5,-72 525.5,-72 525.5,-72 555.5,-72 555.5,-72 561.5,-72 567.5,-78 567.5,-84 567.5,-84 567.5,-96 567.5,-96 567.5,-102 561.5,-108 555.5,-108"/>
<text text-anchor="middle" x="540.5" y="-86.3" font-family="Times,serif" font-size="14.00">Name</text>
</g>
<!-- ast.Call object at 0x7d1f88f9ca50&#45;&gt;ast.Name object at 0x7d1f88f9ce10 -->
<g id="edge30" class="edge">
<title>ast.Call object at 0x7d1f88f9ca50&#45;&gt;ast.Name object at 0x7d1f88f9ce10</title>
<path fill="none" stroke="black" d="M477.26,-143.7C487.74,-134.97 500.61,-124.24 512,-114.75"/>
<polygon fill="black" stroke="black" points="514.53,-117.19 519.97,-108.1 510.05,-111.82 514.53,-117.19"/>
</g>
<!-- ast.Name object at 0x7d1f88f9cf10 -->
<g id="node27" class="node">
<title>ast.Name object at 0x7d1f88f9cf10</title>
<path fill="#66cdaa" stroke="black" d="M627.5,-108C627.5,-108 597.5,-108 597.5,-108 591.5,-108 585.5,-102 585.5,-96 585.5,-96 585.5,-84 585.5,-84 585.5,-78 591.5,-72 597.5,-72 597.5,-72 627.5,-72 627.5,-72 633.5,-72 639.5,-78 639.5,-84 639.5,-84 639.5,-96 639.5,-96 639.5,-102 633.5,-108 627.5,-108"/>
<text text-anchor="middle" x="612.5" y="-86.3" font-family="Times,serif" font-size="14.00">Name</text>
</g>
<!-- ast.Call object at 0x7d1f88f9ca50&#45;&gt;ast.Name object at 0x7d1f88f9cf10 -->
<g id="edge32" class="edge">
<title>ast.Call object at 0x7d1f88f9ca50&#45;&gt;ast.Name object at 0x7d1f88f9cf10</title>
<path fill="none" stroke="black" d="M483.58,-148.08C486.58,-146.69 489.6,-145.31 492.5,-144 526.93,-128.5 537.93,-125.12 576.24,-108.04"/>
<polygon fill="black" stroke="black" points="577.73,-111.2 585.42,-103.92 574.87,-104.82 577.73,-111.2"/>
</g>
<!-- ast.Name object at 0x7d1f88f9ce10&#45;&gt;ast.Load object at 0x7d1fa6fa9d10 -->
<g id="edge31" class="edge">
<title>ast.Name object at 0x7d1f88f9ce10&#45;&gt;ast.Load object at 0x7d1fa6fa9d10</title>
<path fill="none" stroke="black" d="M567.62,-76C590.83,-64.87 624.44,-48.75 650.01,-36.5"/>
<polygon fill="black" stroke="black" points="651.53,-39.65 659.03,-32.17 648.5,-33.34 651.53,-39.65"/>
</g>
<!-- ast.Name object at 0x7d1f88f9cf10&#45;&gt;ast.Load object at 0x7d1fa6fa9d10 -->
<g id="edge33" class="edge">
<title>ast.Name object at 0x7d1f88f9cf10&#45;&gt;ast.Load object at 0x7d1fa6fa9d10</title>
<path fill="none" stroke="black" d="M630.79,-71.7C639.93,-63.05 651.14,-52.45 661.1,-43.03"/>
<polygon fill="black" stroke="black" points="663.56,-45.52 668.42,-36.1 658.75,-40.43 663.56,-45.52"/>
</g>
<!-- ast.Name object at 0x7d1f88f9d290 -->
<g id="node31" class="node">
<title>ast.Name object at 0x7d1f88f9d290</title>
<path fill="#66cdaa" stroke="black" d="M830.5,-396C830.5,-396 800.5,-396 800.5,-396 794.5,-396 788.5,-390 788.5,-384 788.5,-384 788.5,-372 788.5,-372 788.5,-366 794.5,-360 800.5,-360 800.5,-360 830.5,-360 830.5,-360 836.5,-360 842.5,-366 842.5,-372 842.5,-372 842.5,-384 842.5,-384 842.5,-390 836.5,-396 830.5,-396"/>
<text text-anchor="middle" x="815.5" y="-374.3" font-family="Times,serif" font-size="14.00">Name</text>
</g>
<!-- ast.Assign object at 0x7d1f88f9d150&#45;&gt;ast.Name object at 0x7d1f88f9d290 -->
<g id="edge37" class="edge">
<title>ast.Assign object at 0x7d1f88f9d150&#45;&gt;ast.Name object at 0x7d1f88f9d290</title>
<path fill="none" stroke="black" d="M795.17,-431.7C798.21,-423.81 801.88,-414.3 805.26,-405.55"/>
<polygon fill="black" stroke="black" points="808.57,-406.69 808.9,-396.1 802.04,-404.17 808.57,-406.69"/>
</g>
<!-- ast.Subscript object at 0x7d1f88f9ebd0 -->
<g id="node32" class="node">
<title>ast.Subscript object at 0x7d1f88f9ebd0</title>
<path fill="#66cdaa" stroke="black" d="M782.5,-324C782.5,-324 738.5,-324 738.5,-324 732.5,-324 726.5,-318 726.5,-312 726.5,-312 726.5,-300 726.5,-300 726.5,-294 732.5,-288 738.5,-288 738.5,-288 782.5,-288 782.5,-288 788.5,-288 794.5,-294 794.5,-300 794.5,-300 794.5,-312 794.5,-312 794.5,-318 788.5,-324 782.5,-324"/>
<text text-anchor="middle" x="760.5" y="-302.3" font-family="Times,serif" font-size="14.00">Subscript</text>
</g>
<!-- ast.Assign object at 0x7d1f88f9d150&#45;&gt;ast.Subscript object at 0x7d1f88f9ebd0 -->
<g id="edge39" class="edge">
<title>ast.Assign object at 0x7d1f88f9d150&#45;&gt;ast.Subscript object at 0x7d1f88f9ebd0</title>
<path fill="none" stroke="black" d="M785.12,-431.87C780.33,-407.56 771.51,-362.82 765.83,-334.01"/>
<polygon fill="black" stroke="black" points="769.26,-333.32 763.89,-324.19 762.39,-334.68 769.26,-333.32"/>
</g>
<!-- ast.Name object at 0x7d1f88f9d290&#45;&gt;ast.Store object at 0x7d1fa6fa9d90 -->
<g id="edge38" class="edge">
<title>ast.Name object at 0x7d1f88f9d290&#45;&gt;ast.Store object at 0x7d1fa6fa9d90</title>
<path fill="none" stroke="black" d="M833.3,-359.7C842.1,-351.14 852.88,-340.66 862.5,-331.3"/>
<polygon fill="black" stroke="black" points="865.18,-333.58 869.91,-324.1 860.3,-328.57 865.18,-333.58"/>
</g>
<!-- ast.Subscript object at 0x7d1f88f9ebd0&#45;&gt;ast.Load object at 0x7d1fa6fa9d10 -->
<g id="edge50" class="edge">
<title>ast.Subscript object at 0x7d1f88f9ebd0&#45;&gt;ast.Load object at 0x7d1fa6fa9d10</title>
<path fill="none" stroke="black" d="M746.09,-287.95C738.49,-278.06 729.69,-265.02 724.5,-252 696.33,-181.3 689.03,-90.58 687.15,-46.07"/>
<polygon fill="black" stroke="black" points="690.65,-45.91 686.79,-36.05 683.65,-46.17 690.65,-45.91"/>
</g>
<!-- ast.Name object at 0x7d1f88f9ce50 -->
<g id="node33" class="node">
<title>ast.Name object at 0x7d1f88f9ce50</title>
<path fill="#66cdaa" stroke="black" d="M775.5,-252C775.5,-252 745.5,-252 745.5,-252 739.5,-252 733.5,-246 733.5,-240 733.5,-240 733.5,-228 733.5,-228 733.5,-222 739.5,-216 745.5,-216 745.5,-216 775.5,-216 775.5,-216 781.5,-216 787.5,-222 787.5,-228 787.5,-228 787.5,-240 787.5,-240 787.5,-246 781.5,-252 775.5,-252"/>
<text text-anchor="middle" x="760.5" y="-230.3" font-family="Times,serif" font-size="14.00">Name</text>
</g>
<!-- ast.Subscript object at 0x7d1f88f9ebd0&#45;&gt;ast.Name object at 0x7d1f88f9ce50 -->
<g id="edge40" class="edge">
<title>ast.Subscript object at 0x7d1f88f9ebd0&#45;&gt;ast.Name object at 0x7d1f88f9ce50</title>
<path fill="none" stroke="black" d="M760.5,-287.7C760.5,-279.98 760.5,-270.71 760.5,-262.11"/>
<polygon fill="black" stroke="black" points="764,-262.1 760.5,-252.1 757,-262.1 764,-262.1"/>
</g>
<!-- ast.Slice object at 0x7d1f88f9e990 -->
<g id="node34" class="node">
<title>ast.Slice object at 0x7d1f88f9e990</title>
<path fill="#66cdaa" stroke="black" d="M847.5,-252C847.5,-252 817.5,-252 817.5,-252 811.5,-252 805.5,-246 805.5,-240 805.5,-240 805.5,-228 805.5,-228 805.5,-222 811.5,-216 817.5,-216 817.5,-216 847.5,-216 847.5,-216 853.5,-216 859.5,-222 859.5,-228 859.5,-228 859.5,-240 859.5,-240 859.5,-246 853.5,-252 847.5,-252"/>
<text text-anchor="middle" x="832.5" y="-230.3" font-family="Times,serif" font-size="14.00">Slice</text>
</g>
<!-- ast.Subscript object at 0x7d1f88f9ebd0&#45;&gt;ast.Slice object at 0x7d1f88f9e990 -->
<g id="edge42" class="edge">
<title>ast.Subscript object at 0x7d1f88f9ebd0&#45;&gt;ast.Slice object at 0x7d1f88f9e990</title>
<path fill="none" stroke="black" d="M778.3,-287.7C787.1,-279.14 797.88,-268.66 807.5,-259.3"/>
<polygon fill="black" stroke="black" points="810.18,-261.58 814.91,-252.1 805.3,-256.57 810.18,-261.58"/>
</g>
<!-- ast.Name object at 0x7d1f88f9ce50&#45;&gt;ast.Load object at 0x7d1fa6fa9d10 -->
<g id="edge41" class="edge">
<title>ast.Name object at 0x7d1f88f9ce50&#45;&gt;ast.Load object at 0x7d1fa6fa9d10</title>
<path fill="none" stroke="black" d="M757.94,-215.99C753.04,-186 740.89,-122.14 719.5,-72 715.57,-62.77 710.16,-53.29 704.87,-44.95"/>
<polygon fill="black" stroke="black" points="707.67,-42.83 699.24,-36.4 701.82,-46.68 707.67,-42.83"/>
</g>
<!-- ast.Name object at 0x7d1f88f9c850 -->
<g id="node35" class="node">
<title>ast.Name object at 0x7d1f88f9c850</title>
<path fill="#66cdaa" stroke="black" d="M830.5,-180C830.5,-180 800.5,-180 800.5,-180 794.5,-180 788.5,-174 788.5,-168 788.5,-168 788.5,-156 788.5,-156 788.5,-150 794.5,-144 800.5,-144 800.5,-144 830.5,-144 830.5,-144 836.5,-144 842.5,-150 842.5,-156 842.5,-156 842.5,-168 842.5,-168 842.5,-174 836.5,-180 830.5,-180"/>
<text text-anchor="middle" x="815.5" y="-158.3" font-family="Times,serif" font-size="14.00">Name</text>
</g>
<!-- ast.Slice object at 0x7d1f88f9e990&#45;&gt;ast.Name object at 0x7d1f88f9c850 -->
<g id="edge43" class="edge">
<title>ast.Slice object at 0x7d1f88f9e990&#45;&gt;ast.Name object at 0x7d1f88f9c850</title>
<path fill="none" stroke="black" d="M828.3,-215.7C826.4,-207.9 824.12,-198.51 822.02,-189.83"/>
<polygon fill="black" stroke="black" points="825.42,-189 819.65,-180.1 818.61,-190.65 825.42,-189"/>
</g>
<!-- ast.BinOp object at 0x7d1f88f9c450 -->
<g id="node36" class="node">
<title>ast.BinOp object at 0x7d1f88f9c450</title>
<path fill="#66cdaa" stroke="black" d="M921.5,-180C921.5,-180 891.5,-180 891.5,-180 885.5,-180 879.5,-174 879.5,-168 879.5,-168 879.5,-156 879.5,-156 879.5,-150 885.5,-144 891.5,-144 891.5,-144 921.5,-144 921.5,-144 927.5,-144 933.5,-150 933.5,-156 933.5,-156 933.5,-168 933.5,-168 933.5,-174 927.5,-180 921.5,-180"/>
<text text-anchor="middle" x="906.5" y="-158.3" font-family="Times,serif" font-size="14.00">BinOp</text>
</g>
<!-- ast.Slice object at 0x7d1f88f9e990&#45;&gt;ast.BinOp object at 0x7d1f88f9c450 -->
<g id="edge45" class="edge">
<title>ast.Slice object at 0x7d1f88f9e990&#45;&gt;ast.BinOp object at 0x7d1f88f9c450</title>
<path fill="none" stroke="black" d="M850.79,-215.7C859.93,-207.05 871.14,-196.45 881.1,-187.03"/>
<polygon fill="black" stroke="black" points="883.56,-189.52 888.42,-180.1 878.75,-184.43 883.56,-189.52"/>
</g>
<!-- ast.Name object at 0x7d1f88f9c850&#45;&gt;ast.Load object at 0x7d1fa6fa9d10 -->
<g id="edge44" class="edge">
<title>ast.Name object at 0x7d1f88f9c850&#45;&gt;ast.Load object at 0x7d1fa6fa9d10</title>
<path fill="none" stroke="black" d="M806.62,-143.67C796.4,-124.75 778.32,-94.19 757.5,-72 747.08,-60.9 734.11,-50.46 722.11,-41.83"/>
<polygon fill="black" stroke="black" points="723.8,-38.74 713.6,-35.88 719.79,-44.48 723.8,-38.74"/>
</g>
<!-- ast.Name object at 0x7d1f88f9d8d0 -->
<g id="node37" class="node">
<title>ast.Name object at 0x7d1f88f9d8d0</title>
<path fill="#66cdaa" stroke="black" d="M851.5,-108C851.5,-108 821.5,-108 821.5,-108 815.5,-108 809.5,-102 809.5,-96 809.5,-96 809.5,-84 809.5,-84 809.5,-78 815.5,-72 821.5,-72 821.5,-72 851.5,-72 851.5,-72 857.5,-72 863.5,-78 863.5,-84 863.5,-84 863.5,-96 863.5,-96 863.5,-102 857.5,-108 851.5,-108"/>
<text text-anchor="middle" x="836.5" y="-86.3" font-family="Times,serif" font-size="14.00">Name</text>
</g>
<!-- ast.BinOp object at 0x7d1f88f9c450&#45;&gt;ast.Name object at 0x7d1f88f9d8d0 -->
<g id="edge46" class="edge">
<title>ast.BinOp object at 0x7d1f88f9c450&#45;&gt;ast.Name object at 0x7d1f88f9d8d0</title>
<path fill="none" stroke="black" d="M889.2,-143.7C880.64,-135.14 870.16,-124.66 860.8,-115.3"/>
<polygon fill="black" stroke="black" points="863.15,-112.7 853.6,-108.1 858.2,-117.65 863.15,-112.7"/>
</g>
<!-- ast.Add object at 0x7d1fa6faa210 -->
<g id="node38" class="node">
<title>ast.Add object at 0x7d1fa6faa210</title>
<path fill="#66cdaa" stroke="black" d="M923.5,-108C923.5,-108 893.5,-108 893.5,-108 887.5,-108 881.5,-102 881.5,-96 881.5,-96 881.5,-84 881.5,-84 881.5,-78 887.5,-72 893.5,-72 893.5,-72 923.5,-72 923.5,-72 929.5,-72 935.5,-78 935.5,-84 935.5,-84 935.5,-96 935.5,-96 935.5,-102 929.5,-108 923.5,-108"/>
<text text-anchor="middle" x="908.5" y="-86.3" font-family="Times,serif" font-size="14.00">Add</text>
</g>
<!-- ast.BinOp object at 0x7d1f88f9c450&#45;&gt;ast.Add object at 0x7d1fa6faa210 -->
<g id="edge48" class="edge">
<title>ast.BinOp object at 0x7d1f88f9c450&#45;&gt;ast.Add object at 0x7d1fa6faa210</title>
<path fill="none" stroke="black" d="M906.99,-143.7C907.21,-135.98 907.48,-126.71 907.73,-118.11"/>
<polygon fill="black" stroke="black" points="911.22,-118.2 908.01,-108.1 904.23,-118 911.22,-118.2"/>
</g>
<!-- ast.Constant object at 0x7d1f88f9c690 -->
<g id="node39" class="node">
<title>ast.Constant object at 0x7d1f88f9c690</title>
<path fill="#66cdaa" stroke="black" d="M1007,-108C1007,-108 966,-108 966,-108 960,-108 954,-102 954,-96 954,-96 954,-84 954,-84 954,-78 960,-72 966,-72 966,-72 1007,-72 1007,-72 1013,-72 1019,-78 1019,-84 1019,-84 1019,-96 1019,-96 1019,-102 1013,-108 1007,-108"/>
<text text-anchor="middle" x="986.5" y="-86.3" font-family="Times,serif" font-size="14.00">Constant</text>
</g>
<!-- ast.BinOp object at 0x7d1f88f9c450&#45;&gt;ast.Constant object at 0x7d1f88f9c690 -->
<g id="edge49" class="edge">
<title>ast.BinOp object at 0x7d1f88f9c450&#45;&gt;ast.Constant object at 0x7d1f88f9c690</title>
<path fill="none" stroke="black" d="M926.28,-143.7C936.25,-134.97 948.51,-124.24 959.36,-114.75"/>
<polygon fill="black" stroke="black" points="961.73,-117.32 966.95,-108.1 957.12,-112.06 961.73,-117.32"/>
</g>
<!-- ast.Name object at 0x7d1f88f9d8d0&#45;&gt;ast.Load object at 0x7d1fa6fa9d10 -->
<g id="edge47" class="edge">
<title>ast.Name object at 0x7d1f88f9d8d0&#45;&gt;ast.Load object at 0x7d1fa6fa9d10</title>
<path fill="none" stroke="black" d="M809.34,-76.32C785.2,-65.06 749.72,-48.5 723.09,-36.07"/>
<polygon fill="black" stroke="black" points="724.26,-32.76 713.71,-31.7 721.3,-39.1 724.26,-32.76"/>
</g>
<!-- ast.BoolOp object at 0x7d1f88f9e510 -->
<g id="node41" class="node">
<title>ast.BoolOp object at 0x7d1f88f9e510</title>
<path fill="#66cdaa" stroke="black" d="M246,-396C246,-396 211,-396 211,-396 205,-396 199,-390 199,-384 199,-384 199,-372 199,-372 199,-366 205,-360 211,-360 211,-360 246,-360 246,-360 252,-360 258,-366 258,-372 258,-372 258,-384 258,-384 258,-390 252,-396 246,-396"/>
<text text-anchor="middle" x="228.5" y="-374.3" font-family="Times,serif" font-size="14.00">BoolOp</text>
</g>
<!-- ast.If object at 0x7d1f88f9c250&#45;&gt;ast.BoolOp object at 0x7d1f88f9e510 -->
<g id="edge52" class="edge">
<title>ast.If object at 0x7d1f88f9c250&#45;&gt;ast.BoolOp object at 0x7d1f88f9e510</title>
<path fill="none" stroke="black" d="M499.26,-435.3C496.34,-434.09 493.39,-432.96 490.5,-432 413.85,-406.57 320.35,-391.22 268.32,-384"/>
<polygon fill="black" stroke="black" points="268.56,-380.5 258.18,-382.62 267.62,-387.44 268.56,-380.5"/>
</g>
<!-- ast.Expr object at 0x7d1f88f9c410 -->
<g id="node56" class="node">
<title>ast.Expr object at 0x7d1f88f9c410</title>
<path fill="#66cdaa" stroke="black" d="M470.5,-396C470.5,-396 440.5,-396 440.5,-396 434.5,-396 428.5,-390 428.5,-384 428.5,-384 428.5,-372 428.5,-372 428.5,-366 434.5,-360 440.5,-360 440.5,-360 470.5,-360 470.5,-360 476.5,-360 482.5,-366 482.5,-372 482.5,-372 482.5,-384 482.5,-384 482.5,-390 476.5,-396 470.5,-396"/>
<text text-anchor="middle" x="455.5" y="-374.3" font-family="Times,serif" font-size="14.00">Expr</text>
</g>
<!-- ast.If object at 0x7d1f88f9c250&#45;&gt;ast.Expr object at 0x7d1f88f9c410 -->
<g id="edge73" class="edge">
<title>ast.If object at 0x7d1f88f9c250&#45;&gt;ast.Expr object at 0x7d1f88f9c410</title>
<path fill="none" stroke="black" d="M508.95,-431.7C500.27,-423.14 489.64,-412.66 480.15,-403.3"/>
<polygon fill="black" stroke="black" points="482.43,-400.63 472.85,-396.1 477.51,-405.62 482.43,-400.63"/>
</g>
<!-- ast.And object at 0x7d1fa6fa9fd0 -->
<g id="node42" class="node">
<title>ast.And object at 0x7d1fa6fa9fd0</title>
<path fill="#66cdaa" stroke="black" d="M204.5,-324C204.5,-324 174.5,-324 174.5,-324 168.5,-324 162.5,-318 162.5,-312 162.5,-312 162.5,-300 162.5,-300 162.5,-294 168.5,-288 174.5,-288 174.5,-288 204.5,-288 204.5,-288 210.5,-288 216.5,-294 216.5,-300 216.5,-300 216.5,-312 216.5,-312 216.5,-318 210.5,-324 204.5,-324"/>
<text text-anchor="middle" x="189.5" y="-302.3" font-family="Times,serif" font-size="14.00">And</text>
</g>
<!-- ast.BoolOp object at 0x7d1f88f9e510&#45;&gt;ast.And object at 0x7d1fa6fa9fd0 -->
<g id="edge53" class="edge">
<title>ast.BoolOp object at 0x7d1f88f9e510&#45;&gt;ast.And object at 0x7d1fa6fa9fd0</title>
<path fill="none" stroke="black" d="M218.86,-359.7C214.37,-351.64 208.94,-341.89 203.98,-332.98"/>
<polygon fill="black" stroke="black" points="206.95,-331.14 199.03,-324.1 200.84,-334.54 206.95,-331.14"/>
</g>
<!-- ast.Compare object at 0x7d1f88f9ea10 -->
<g id="node43" class="node">
<title>ast.Compare object at 0x7d1f88f9ea10</title>
<path fill="#66cdaa" stroke="black" d="M290,-324C290,-324 247,-324 247,-324 241,-324 235,-318 235,-312 235,-312 235,-300 235,-300 235,-294 241,-288 247,-288 247,-288 290,-288 290,-288 296,-288 302,-294 302,-300 302,-300 302,-312 302,-312 302,-318 296,-324 290,-324"/>
<text text-anchor="middle" x="268.5" y="-302.3" font-family="Times,serif" font-size="14.00">Compare</text>
</g>
<!-- ast.BoolOp object at 0x7d1f88f9e510&#45;&gt;ast.Compare object at 0x7d1f88f9ea10 -->
<g id="edge54" class="edge">
<title>ast.BoolOp object at 0x7d1f88f9e510&#45;&gt;ast.Compare object at 0x7d1f88f9ea10</title>
<path fill="none" stroke="black" d="M238.39,-359.7C242.99,-351.64 248.56,-341.89 253.65,-332.98"/>
<polygon fill="black" stroke="black" points="256.8,-334.52 258.73,-324.1 250.73,-331.05 256.8,-334.52"/>
</g>
<!-- ast.Compare object at 0x7d1f88f9e790 -->
<g id="node49" class="node">
<title>ast.Compare object at 0x7d1f88f9e790</title>
<path fill="#66cdaa" stroke="black" d="M132,-324C132,-324 89,-324 89,-324 83,-324 77,-318 77,-312 77,-312 77,-300 77,-300 77,-294 83,-288 89,-288 89,-288 132,-288 132,-288 138,-288 144,-294 144,-300 144,-300 144,-312 144,-312 144,-318 138,-324 132,-324"/>
<text text-anchor="middle" x="110.5" y="-302.3" font-family="Times,serif" font-size="14.00">Compare</text>
</g>
<!-- ast.BoolOp object at 0x7d1f88f9e510&#45;&gt;ast.Compare object at 0x7d1f88f9e790 -->
<g id="edge62" class="edge">
<title>ast.BoolOp object at 0x7d1f88f9e510&#45;&gt;ast.Compare object at 0x7d1f88f9e790</title>
<path fill="none" stroke="black" d="M199.63,-359.88C184.21,-350.72 165.02,-339.34 148.4,-329.48"/>
<polygon fill="black" stroke="black" points="149.86,-326.28 139.48,-324.19 146.29,-332.3 149.86,-326.28"/>
</g>
<!-- ast.Call object at 0x7d1f88f9ead0 -->
<g id="node44" class="node">
<title>ast.Call object at 0x7d1f88f9ead0</title>
<path fill="#66cdaa" stroke="black" d="M243.5,-180C243.5,-180 213.5,-180 213.5,-180 207.5,-180 201.5,-174 201.5,-168 201.5,-168 201.5,-156 201.5,-156 201.5,-150 207.5,-144 213.5,-144 213.5,-144 243.5,-144 243.5,-144 249.5,-144 255.5,-150 255.5,-156 255.5,-156 255.5,-168 255.5,-168 255.5,-174 249.5,-180 243.5,-180"/>
<text text-anchor="middle" x="228.5" y="-158.3" font-family="Times,serif" font-size="14.00">Call</text>
</g>
<!-- ast.Compare object at 0x7d1f88f9ea10&#45;&gt;ast.Call object at 0x7d1f88f9ead0 -->
<g id="edge55" class="edge">
<title>ast.Compare object at 0x7d1f88f9ea10&#45;&gt;ast.Call object at 0x7d1f88f9ead0</title>
<path fill="none" stroke="black" d="M263.68,-287.87C256.83,-263.56 244.22,-218.82 236.11,-190.01"/>
<polygon fill="black" stroke="black" points="239.42,-188.87 233.34,-180.19 232.68,-190.76 239.42,-188.87"/>
</g>
<!-- ast.Eq object at 0x7d1fa6faad10 -->
<g id="node47" class="node">
<title>ast.Eq object at 0x7d1fa6faad10</title>
<path fill="#66cdaa" stroke="black" d="M197.5,-252C197.5,-252 167.5,-252 167.5,-252 161.5,-252 155.5,-246 155.5,-240 155.5,-240 155.5,-228 155.5,-228 155.5,-222 161.5,-216 167.5,-216 167.5,-216 197.5,-216 197.5,-216 203.5,-216 209.5,-222 209.5,-228 209.5,-228 209.5,-240 209.5,-240 209.5,-246 203.5,-252 197.5,-252"/>
<text text-anchor="middle" x="182.5" y="-230.3" font-family="Times,serif" font-size="14.00">Eq</text>
</g>
<!-- ast.Compare object at 0x7d1f88f9ea10&#45;&gt;ast.Eq object at 0x7d1fa6faad10 -->
<g id="edge60" class="edge">
<title>ast.Compare object at 0x7d1f88f9ea10&#45;&gt;ast.Eq object at 0x7d1fa6faad10</title>
<path fill="none" stroke="black" d="M247.24,-287.7C236.41,-278.88 223.08,-268.03 211.34,-258.47"/>
<polygon fill="black" stroke="black" points="213.48,-255.7 203.51,-252.1 209.06,-261.13 213.48,-255.7"/>
</g>
<!-- ast.Constant object at 0x7d1f88f9d4d0 -->
<g id="node48" class="node">
<title>ast.Constant object at 0x7d1f88f9d4d0</title>
<path fill="#66cdaa" stroke="black" d="M319,-252C319,-252 278,-252 278,-252 272,-252 266,-246 266,-240 266,-240 266,-228 266,-228 266,-222 272,-216 278,-216 278,-216 319,-216 319,-216 325,-216 331,-222 331,-228 331,-228 331,-240 331,-240 331,-246 325,-252 319,-252"/>
<text text-anchor="middle" x="298.5" y="-230.3" font-family="Times,serif" font-size="14.00">Constant</text>
</g>
<!-- ast.Compare object at 0x7d1f88f9ea10&#45;&gt;ast.Constant object at 0x7d1f88f9d4d0 -->
<g id="edge61" class="edge">
<title>ast.Compare object at 0x7d1f88f9ea10&#45;&gt;ast.Constant object at 0x7d1f88f9d4d0</title>
<path fill="none" stroke="black" d="M275.92,-287.7C279.29,-279.81 283.37,-270.3 287.12,-261.55"/>
<polygon fill="black" stroke="black" points="290.45,-262.67 291.17,-252.1 284.01,-259.92 290.45,-262.67"/>
</g>
<!-- ast.Name object at 0x7d1f88f9e9d0 -->
<g id="node45" class="node">
<title>ast.Name object at 0x7d1f88f9e9d0</title>
<path fill="#66cdaa" stroke="black" d="M335.5,-108C335.5,-108 305.5,-108 305.5,-108 299.5,-108 293.5,-102 293.5,-96 293.5,-96 293.5,-84 293.5,-84 293.5,-78 299.5,-72 305.5,-72 305.5,-72 335.5,-72 335.5,-72 341.5,-72 347.5,-78 347.5,-84 347.5,-84 347.5,-96 347.5,-96 347.5,-102 341.5,-108 335.5,-108"/>
<text text-anchor="middle" x="320.5" y="-86.3" font-family="Times,serif" font-size="14.00">Name</text>
</g>
<!-- ast.Call object at 0x7d1f88f9ead0&#45;&gt;ast.Name object at 0x7d1f88f9e9d0 -->
<g id="edge56" class="edge">
<title>ast.Call object at 0x7d1f88f9ead0&#45;&gt;ast.Name object at 0x7d1f88f9e9d0</title>
<path fill="none" stroke="black" d="M251.24,-143.7C262.94,-134.8 277.36,-123.82 290.01,-114.2"/>
<polygon fill="black" stroke="black" points="292.18,-116.94 298.02,-108.1 287.94,-111.37 292.18,-116.94"/>
</g>
<!-- ast.Name object at 0x7d1f88f9cb10 -->
<g id="node46" class="node">
<title>ast.Name object at 0x7d1f88f9cb10</title>
<path fill="#66cdaa" stroke="black" d="M263.5,-108C263.5,-108 233.5,-108 233.5,-108 227.5,-108 221.5,-102 221.5,-96 221.5,-96 221.5,-84 221.5,-84 221.5,-78 227.5,-72 233.5,-72 233.5,-72 263.5,-72 263.5,-72 269.5,-72 275.5,-78 275.5,-84 275.5,-84 275.5,-96 275.5,-96 275.5,-102 269.5,-108 263.5,-108"/>
<text text-anchor="middle" x="248.5" y="-86.3" font-family="Times,serif" font-size="14.00">Name</text>
</g>
<!-- ast.Call object at 0x7d1f88f9ead0&#45;&gt;ast.Name object at 0x7d1f88f9cb10 -->
<g id="edge58" class="edge">
<title>ast.Call object at 0x7d1f88f9ead0&#45;&gt;ast.Name object at 0x7d1f88f9cb10</title>
<path fill="none" stroke="black" d="M233.44,-143.7C235.67,-135.9 238.35,-126.51 240.83,-117.83"/>
<polygon fill="black" stroke="black" points="244.23,-118.68 243.61,-108.1 237.5,-116.76 244.23,-118.68"/>
</g>
<!-- ast.Name object at 0x7d1f88f9e9d0&#45;&gt;ast.Load object at 0x7d1fa6fa9d10 -->
<g id="edge57" class="edge">
<title>ast.Name object at 0x7d1f88f9e9d0&#45;&gt;ast.Load object at 0x7d1fa6fa9d10</title>
<path fill="none" stroke="black" d="M347.7,-75.18C350.62,-73.99 353.59,-72.9 356.5,-72 459.73,-40.04 587.4,-26.53 649.33,-21.54"/>
<polygon fill="black" stroke="black" points="649.7,-25.03 659.4,-20.76 649.15,-18.05 649.7,-25.03"/>
</g>
<!-- ast.Name object at 0x7d1f88f9cb10&#45;&gt;ast.Load object at 0x7d1fa6fa9d10 -->
<g id="edge59" class="edge">
<title>ast.Name object at 0x7d1f88f9cb10&#45;&gt;ast.Load object at 0x7d1fa6fa9d10</title>
<path fill="none" stroke="black" d="M275.67,-75.1C278.6,-73.92 281.58,-72.86 284.5,-72 414.58,-33.73 576.49,-23.05 648.69,-20.1"/>
<polygon fill="black" stroke="black" points="649.23,-23.58 659.09,-19.71 648.96,-16.59 649.23,-23.58"/>
</g>
<!-- ast.Compare object at 0x7d1f88f9e790&#45;&gt;ast.Eq object at 0x7d1fa6faad10 -->
<g id="edge71" class="edge">
<title>ast.Compare object at 0x7d1f88f9e790&#45;&gt;ast.Eq object at 0x7d1fa6faad10</title>
<path fill="none" stroke="black" d="M128.3,-287.7C137.1,-279.14 147.88,-268.66 157.5,-259.3"/>
<polygon fill="black" stroke="black" points="160.18,-261.58 164.91,-252.1 155.3,-256.57 160.18,-261.58"/>
</g>
<!-- ast.Call object at 0x7d1f88f9cfd0 -->
<g id="node50" class="node">
<title>ast.Call object at 0x7d1f88f9cfd0</title>
<path fill="#66cdaa" stroke="black" d="M125.5,-252C125.5,-252 95.5,-252 95.5,-252 89.5,-252 83.5,-246 83.5,-240 83.5,-240 83.5,-228 83.5,-228 83.5,-222 89.5,-216 95.5,-216 95.5,-216 125.5,-216 125.5,-216 131.5,-216 137.5,-222 137.5,-228 137.5,-228 137.5,-240 137.5,-240 137.5,-246 131.5,-252 125.5,-252"/>
<text text-anchor="middle" x="110.5" y="-230.3" font-family="Times,serif" font-size="14.00">Call</text>
</g>
<!-- ast.Compare object at 0x7d1f88f9e790&#45;&gt;ast.Call object at 0x7d1f88f9cfd0 -->
<g id="edge63" class="edge">
<title>ast.Compare object at 0x7d1f88f9e790&#45;&gt;ast.Call object at 0x7d1f88f9cfd0</title>
<path fill="none" stroke="black" d="M110.5,-287.7C110.5,-279.98 110.5,-270.71 110.5,-262.11"/>
<polygon fill="black" stroke="black" points="114,-262.1 110.5,-252.1 107,-262.1 114,-262.1"/>
</g>
<!-- ast.Constant object at 0x7d1f88f9c790 -->
<g id="node55" class="node">
<title>ast.Constant object at 0x7d1f88f9c790</title>
<path fill="#66cdaa" stroke="black" d="M53,-252C53,-252 12,-252 12,-252 6,-252 0,-246 0,-240 0,-240 0,-228 0,-228 0,-222 6,-216 12,-216 12,-216 53,-216 53,-216 59,-216 65,-222 65,-228 65,-228 65,-240 65,-240 65,-246 59,-252 53,-252"/>
<text text-anchor="middle" x="32.5" y="-230.3" font-family="Times,serif" font-size="14.00">Constant</text>
</g>
<!-- ast.Compare object at 0x7d1f88f9e790&#45;&gt;ast.Constant object at 0x7d1f88f9c790 -->
<g id="edge72" class="edge">
<title>ast.Compare object at 0x7d1f88f9e790&#45;&gt;ast.Constant object at 0x7d1f88f9c790</title>
<path fill="none" stroke="black" d="M91.22,-287.7C81.58,-279.05 69.77,-268.45 59.27,-259.03"/>
<polygon fill="black" stroke="black" points="61.34,-256.18 51.56,-252.1 56.66,-261.39 61.34,-256.18"/>
</g>
<!-- ast.Name object at 0x7d1f88f9ec50 -->
<g id="node51" class="node">
<title>ast.Name object at 0x7d1f88f9ec50</title>
<path fill="#66cdaa" stroke="black" d="M171.5,-180C171.5,-180 141.5,-180 141.5,-180 135.5,-180 129.5,-174 129.5,-168 129.5,-168 129.5,-156 129.5,-156 129.5,-150 135.5,-144 141.5,-144 141.5,-144 171.5,-144 171.5,-144 177.5,-144 183.5,-150 183.5,-156 183.5,-156 183.5,-168 183.5,-168 183.5,-174 177.5,-180 171.5,-180"/>
<text text-anchor="middle" x="156.5" y="-158.3" font-family="Times,serif" font-size="14.00">Name</text>
</g>
<!-- ast.Call object at 0x7d1f88f9cfd0&#45;&gt;ast.Name object at 0x7d1f88f9ec50 -->
<g id="edge64" class="edge">
<title>ast.Call object at 0x7d1f88f9cfd0&#45;&gt;ast.Name object at 0x7d1f88f9ec50</title>
<path fill="none" stroke="black" d="M121.87,-215.7C127.22,-207.56 133.7,-197.69 139.61,-188.7"/>
<polygon fill="black" stroke="black" points="142.69,-190.38 145.26,-180.1 136.84,-186.54 142.69,-190.38"/>
</g>
<!-- ast.Call object at 0x7d1f88f9da10 -->
<g id="node52" class="node">
<title>ast.Call object at 0x7d1f88f9da10</title>
<path fill="#66cdaa" stroke="black" d="M99.5,-180C99.5,-180 69.5,-180 69.5,-180 63.5,-180 57.5,-174 57.5,-168 57.5,-168 57.5,-156 57.5,-156 57.5,-150 63.5,-144 69.5,-144 69.5,-144 99.5,-144 99.5,-144 105.5,-144 111.5,-150 111.5,-156 111.5,-156 111.5,-168 111.5,-168 111.5,-174 105.5,-180 99.5,-180"/>
<text text-anchor="middle" x="84.5" y="-158.3" font-family="Times,serif" font-size="14.00">Call</text>
</g>
<!-- ast.Call object at 0x7d1f88f9cfd0&#45;&gt;ast.Call object at 0x7d1f88f9da10 -->
<g id="edge66" class="edge">
<title>ast.Call object at 0x7d1f88f9cfd0&#45;&gt;ast.Call object at 0x7d1f88f9da10</title>
<path fill="none" stroke="black" d="M104.07,-215.7C101.14,-207.81 97.61,-198.3 94.36,-189.55"/>
<polygon fill="black" stroke="black" points="97.62,-188.26 90.85,-180.1 91.05,-190.7 97.62,-188.26"/>
</g>
<!-- ast.Name object at 0x7d1f88f9ec50&#45;&gt;ast.Load object at 0x7d1fa6fa9d10 -->
<g id="edge65" class="edge">
<title>ast.Name object at 0x7d1f88f9ec50&#45;&gt;ast.Load object at 0x7d1fa6fa9d10</title>
<path fill="none" stroke="black" d="M162.04,-143.93C169.77,-123.13 185.9,-88.69 212.5,-72 285.17,-26.41 550.72,-19.9 649.32,-19.07"/>
<polygon fill="black" stroke="black" points="649.44,-22.57 659.41,-19 649.39,-15.57 649.44,-22.57"/>
</g>
<!-- ast.Name object at 0x7d1f88f9d0d0 -->
<g id="node53" class="node">
<title>ast.Name object at 0x7d1f88f9d0d0</title>
<path fill="#66cdaa" stroke="black" d="M153.5,-108C153.5,-108 123.5,-108 123.5,-108 117.5,-108 111.5,-102 111.5,-96 111.5,-96 111.5,-84 111.5,-84 111.5,-78 117.5,-72 123.5,-72 123.5,-72 153.5,-72 153.5,-72 159.5,-72 165.5,-78 165.5,-84 165.5,-84 165.5,-96 165.5,-96 165.5,-102 159.5,-108 153.5,-108"/>
<text text-anchor="middle" x="138.5" y="-86.3" font-family="Times,serif" font-size="14.00">Name</text>
</g>
<!-- ast.Call object at 0x7d1f88f9da10&#45;&gt;ast.Name object at 0x7d1f88f9d0d0 -->
<g id="edge67" class="edge">
<title>ast.Call object at 0x7d1f88f9da10&#45;&gt;ast.Name object at 0x7d1f88f9d0d0</title>
<path fill="none" stroke="black" d="M97.85,-143.7C104.26,-135.39 112.06,-125.28 119.11,-116.14"/>
<polygon fill="black" stroke="black" points="121.97,-118.16 125.31,-108.1 116.43,-113.88 121.97,-118.16"/>
</g>
<!-- ast.Name object at 0x7d1f88f9c990 -->
<g id="node54" class="node">
<title>ast.Name object at 0x7d1f88f9c990</title>
<path fill="#66cdaa" stroke="black" d="M81.5,-108C81.5,-108 51.5,-108 51.5,-108 45.5,-108 39.5,-102 39.5,-96 39.5,-96 39.5,-84 39.5,-84 39.5,-78 45.5,-72 51.5,-72 51.5,-72 81.5,-72 81.5,-72 87.5,-72 93.5,-78 93.5,-84 93.5,-84 93.5,-96 93.5,-96 93.5,-102 87.5,-108 81.5,-108"/>
<text text-anchor="middle" x="66.5" y="-86.3" font-family="Times,serif" font-size="14.00">Name</text>
</g>
<!-- ast.Call object at 0x7d1f88f9da10&#45;&gt;ast.Name object at 0x7d1f88f9c990 -->
<g id="edge69" class="edge">
<title>ast.Call object at 0x7d1f88f9da10&#45;&gt;ast.Name object at 0x7d1f88f9c990</title>
<path fill="none" stroke="black" d="M80.05,-143.7C78.05,-135.9 75.63,-126.51 73.4,-117.83"/>
<polygon fill="black" stroke="black" points="76.78,-116.92 70.9,-108.1 70,-118.66 76.78,-116.92"/>
</g>
<!-- ast.Name object at 0x7d1f88f9d0d0&#45;&gt;ast.Load object at 0x7d1fa6fa9d10 -->
<g id="edge68" class="edge">
<title>ast.Name object at 0x7d1f88f9d0d0&#45;&gt;ast.Load object at 0x7d1fa6fa9d10</title>
<path fill="none" stroke="black" d="M165.92,-76.36C170.39,-74.68 175.02,-73.14 179.5,-72 351.22,-28.41 564.41,-20.58 649.2,-19.24"/>
<polygon fill="black" stroke="black" points="649.41,-22.74 659.36,-19.1 649.31,-15.74 649.41,-22.74"/>
</g>
<!-- ast.Name object at 0x7d1f88f9c990&#45;&gt;ast.Load object at 0x7d1fa6fa9d10 -->
<g id="edge70" class="edge">
<title>ast.Name object at 0x7d1f88f9c990&#45;&gt;ast.Load object at 0x7d1fa6fa9d10</title>
<path fill="none" stroke="black" d="M93.64,-74.98C96.58,-73.83 99.57,-72.8 102.5,-72 206.46,-43.69 537.77,-25.96 649.38,-20.67"/>
<polygon fill="black" stroke="black" points="649.66,-24.16 659.49,-20.2 649.33,-17.17 649.66,-24.16"/>
</g>
<!-- ast.Call object at 0x7d1f88f9c8d0 -->
<g id="node57" class="node">
<title>ast.Call object at 0x7d1f88f9c8d0</title>
<path fill="#66cdaa" stroke="black" d="M399.5,-252C399.5,-252 369.5,-252 369.5,-252 363.5,-252 357.5,-246 357.5,-240 357.5,-240 357.5,-228 357.5,-228 357.5,-222 363.5,-216 369.5,-216 369.5,-216 399.5,-216 399.5,-216 405.5,-216 411.5,-222 411.5,-228 411.5,-228 411.5,-240 411.5,-240 411.5,-246 405.5,-252 399.5,-252"/>
<text text-anchor="middle" x="384.5" y="-230.3" font-family="Times,serif" font-size="14.00">Call</text>
</g>
<!-- ast.Expr object at 0x7d1f88f9c410&#45;&gt;ast.Call object at 0x7d1f88f9c8d0 -->
<g id="edge74" class="edge">
<title>ast.Expr object at 0x7d1f88f9c410&#45;&gt;ast.Call object at 0x7d1f88f9c8d0</title>
<path fill="none" stroke="black" d="M446.94,-359.87C434.68,-335.35 412.02,-290.03 397.63,-261.26"/>
<polygon fill="black" stroke="black" points="400.7,-259.57 393.09,-252.19 394.44,-262.7 400.7,-259.57"/>
</g>
<!-- ast.Attribute object at 0x7d1f88f9ea90 -->
<g id="node58" class="node">
<title>ast.Attribute object at 0x7d1f88f9ea90</title>
<path fill="#66cdaa" stroke="black" d="M327,-180C327,-180 286,-180 286,-180 280,-180 274,-174 274,-168 274,-168 274,-156 274,-156 274,-150 280,-144 286,-144 286,-144 327,-144 327,-144 333,-144 339,-150 339,-156 339,-156 339,-168 339,-168 339,-174 333,-180 327,-180"/>
<text text-anchor="middle" x="306.5" y="-158.3" font-family="Times,serif" font-size="14.00">Attribute</text>
</g>
<!-- ast.Call object at 0x7d1f88f9c8d0&#45;&gt;ast.Attribute object at 0x7d1f88f9ea90 -->
<g id="edge75" class="edge">
<title>ast.Call object at 0x7d1f88f9c8d0&#45;&gt;ast.Attribute object at 0x7d1f88f9ea90</title>
<path fill="none" stroke="black" d="M365.22,-215.7C355.58,-207.05 343.77,-196.45 333.27,-187.03"/>
<polygon fill="black" stroke="black" points="335.34,-184.18 325.56,-180.1 330.66,-189.39 335.34,-184.18"/>
</g>
<!-- ast.Name object at 0x7d1f88fa0f90 -->
<g id="node60" class="node">
<title>ast.Name object at 0x7d1f88fa0f90</title>
<path fill="#66cdaa" stroke="black" d="M399.5,-180C399.5,-180 369.5,-180 369.5,-180 363.5,-180 357.5,-174 357.5,-168 357.5,-168 357.5,-156 357.5,-156 357.5,-150 363.5,-144 369.5,-144 369.5,-144 399.5,-144 399.5,-144 405.5,-144 411.5,-150 411.5,-156 411.5,-156 411.5,-168 411.5,-168 411.5,-174 405.5,-180 399.5,-180"/>
<text text-anchor="middle" x="384.5" y="-158.3" font-family="Times,serif" font-size="14.00">Name</text>
</g>
<!-- ast.Call object at 0x7d1f88f9c8d0&#45;&gt;ast.Name object at 0x7d1f88fa0f90 -->
<g id="edge79" class="edge">
<title>ast.Call object at 0x7d1f88f9c8d0&#45;&gt;ast.Name object at 0x7d1f88fa0f90</title>
<path fill="none" stroke="black" d="M384.5,-215.7C384.5,-207.98 384.5,-198.71 384.5,-190.11"/>
<polygon fill="black" stroke="black" points="388,-190.1 384.5,-180.1 381,-190.1 388,-190.1"/>
</g>
<!-- ast.Attribute object at 0x7d1f88f9ea90&#45;&gt;ast.Load object at 0x7d1fa6fa9d10 -->
<g id="edge78" class="edge">
<title>ast.Attribute object at 0x7d1f88f9ea90&#45;&gt;ast.Load object at 0x7d1fa6fa9d10</title>
<path fill="none" stroke="black" d="M339.15,-147.64C372.6,-133.82 420.77,-113.51 428.5,-108 446.17,-95.4 442.77,-82.97 461.5,-72 521.21,-37.01 602.58,-25.11 649.33,-21.07"/>
<polygon fill="black" stroke="black" points="649.63,-24.56 659.32,-20.28 649.08,-17.58 649.63,-24.56"/>
</g>
<!-- ast.Name object at 0x7d1f88f9e5d0 -->
<g id="node59" class="node">
<title>ast.Name object at 0x7d1f88f9e5d0</title>
<path fill="#66cdaa" stroke="black" d="M407.5,-108C407.5,-108 377.5,-108 377.5,-108 371.5,-108 365.5,-102 365.5,-96 365.5,-96 365.5,-84 365.5,-84 365.5,-78 371.5,-72 377.5,-72 377.5,-72 407.5,-72 407.5,-72 413.5,-72 419.5,-78 419.5,-84 419.5,-84 419.5,-96 419.5,-96 419.5,-102 413.5,-108 407.5,-108"/>
<text text-anchor="middle" x="392.5" y="-86.3" font-family="Times,serif" font-size="14.00">Name</text>
</g>
<!-- ast.Attribute object at 0x7d1f88f9ea90&#45;&gt;ast.Name object at 0x7d1f88f9e5d0 -->
<g id="edge76" class="edge">
<title>ast.Attribute object at 0x7d1f88f9ea90&#45;&gt;ast.Name object at 0x7d1f88f9e5d0</title>
<path fill="none" stroke="black" d="M327.76,-143.7C338.59,-134.88 351.92,-124.03 363.66,-114.47"/>
<polygon fill="black" stroke="black" points="365.94,-117.13 371.49,-108.1 361.52,-111.7 365.94,-117.13"/>
</g>
<!-- ast.Name object at 0x7d1f88f9e5d0&#45;&gt;ast.Load object at 0x7d1fa6fa9d10 -->
<g id="edge77" class="edge">
<title>ast.Name object at 0x7d1f88f9e5d0&#45;&gt;ast.Load object at 0x7d1fa6fa9d10</title>
<path fill="none" stroke="black" d="M419.59,-76.94C424.18,-75.14 428.94,-73.41 433.5,-72 508.75,-48.74 599.74,-32.46 649.52,-24.52"/>
<polygon fill="black" stroke="black" points="650.16,-27.97 659.49,-22.96 649.07,-21.05 650.16,-27.97"/>
</g>
<!-- ast.Name object at 0x7d1f88fa0f90&#45;&gt;ast.Load object at 0x7d1fa6fa9d10 -->
<g id="edge80" class="edge">
<title>ast.Name object at 0x7d1f88fa0f90&#45;&gt;ast.Load object at 0x7d1fa6fa9d10</title>
<path fill="none" stroke="black" d="M410.6,-143.93C425.71,-133.82 444.96,-120.57 461.5,-108 481.34,-92.92 482.51,-83.73 504.5,-72 551.21,-47.07 611.09,-32.55 649.13,-25.19"/>
<polygon fill="black" stroke="black" points="650.07,-28.58 659.26,-23.3 648.79,-21.7 650.07,-28.58"/>
</g>
<!-- ast.Call object at 0x7d1f88fa2a50 -->
<g id="node62" class="node">
<title>ast.Call object at 0x7d1f88fa2a50</title>
<path fill="#66cdaa" stroke="black" d="M1371.5,-252C1371.5,-252 1341.5,-252 1341.5,-252 1335.5,-252 1329.5,-246 1329.5,-240 1329.5,-240 1329.5,-228 1329.5,-228 1329.5,-222 1335.5,-216 1341.5,-216 1341.5,-216 1371.5,-216 1371.5,-216 1377.5,-216 1383.5,-222 1383.5,-228 1383.5,-228 1383.5,-240 1383.5,-240 1383.5,-246 1377.5,-252 1371.5,-252"/>
<text text-anchor="middle" x="1356.5" y="-230.3" font-family="Times,serif" font-size="14.00">Call</text>
</g>
<!-- ast.Return object at 0x7d1f88fa1490&#45;&gt;ast.Call object at 0x7d1f88fa2a50 -->
<g id="edge82" class="edge">
<title>ast.Return object at 0x7d1f88fa1490&#45;&gt;ast.Call object at 0x7d1f88fa2a50</title>
<path fill="none" stroke="black" d="M1158.07,-503.97C1193.68,-455.7 1295.41,-317.8 1337.71,-260.47"/>
<polygon fill="black" stroke="black" points="1340.61,-262.43 1343.73,-252.31 1334.98,-258.28 1340.61,-262.43"/>
</g>
<!-- ast.Name object at 0x7d1f88fa14d0 -->
<g id="node63" class="node">
<title>ast.Name object at 0x7d1f88fa14d0</title>
<path fill="#66cdaa" stroke="black" d="M1371.5,-180C1371.5,-180 1341.5,-180 1341.5,-180 1335.5,-180 1329.5,-174 1329.5,-168 1329.5,-168 1329.5,-156 1329.5,-156 1329.5,-150 1335.5,-144 1341.5,-144 1341.5,-144 1371.5,-144 1371.5,-144 1377.5,-144 1383.5,-150 1383.5,-156 1383.5,-156 1383.5,-168 1383.5,-168 1383.5,-174 1377.5,-180 1371.5,-180"/>
<text text-anchor="middle" x="1356.5" y="-158.3" font-family="Times,serif" font-size="14.00">Name</text>
</g>
<!-- ast.Call object at 0x7d1f88fa2a50&#45;&gt;ast.Name object at 0x7d1f88fa14d0 -->
<g id="edge83" class="edge">
<title>ast.Call object at 0x7d1f88fa2a50&#45;&gt;ast.Name object at 0x7d1f88fa14d0</title>
<path fill="none" stroke="black" d="M1356.5,-215.7C1356.5,-207.98 1356.5,-198.71 1356.5,-190.11"/>
<polygon fill="black" stroke="black" points="1360,-190.1 1356.5,-180.1 1353,-190.1 1360,-190.1"/>
</g>
<!-- ast.Call object at 0x7d1f88fa1150 -->
<g id="node64" class="node">
<title>ast.Call object at 0x7d1f88fa1150</title>
<path fill="#66cdaa" stroke="black" d="M1443.5,-180C1443.5,-180 1413.5,-180 1413.5,-180 1407.5,-180 1401.5,-174 1401.5,-168 1401.5,-168 1401.5,-156 1401.5,-156 1401.5,-150 1407.5,-144 1413.5,-144 1413.5,-144 1443.5,-144 1443.5,-144 1449.5,-144 1455.5,-150 1455.5,-156 1455.5,-156 1455.5,-168 1455.5,-168 1455.5,-174 1449.5,-180 1443.5,-180"/>
<text text-anchor="middle" x="1428.5" y="-158.3" font-family="Times,serif" font-size="14.00">Call</text>
</g>
<!-- ast.Call object at 0x7d1f88fa2a50&#45;&gt;ast.Call object at 0x7d1f88fa1150 -->
<g id="edge85" class="edge">
<title>ast.Call object at 0x7d1f88fa2a50&#45;&gt;ast.Call object at 0x7d1f88fa1150</title>
<path fill="none" stroke="black" d="M1374.3,-215.7C1383.1,-207.14 1393.88,-196.66 1403.5,-187.3"/>
<polygon fill="black" stroke="black" points="1406.18,-189.58 1410.91,-180.1 1401.3,-184.57 1406.18,-189.58"/>
</g>
<!-- ast.Name object at 0x7d1f88fa14d0&#45;&gt;ast.Load object at 0x7d1fa6fa9d10 -->
<g id="edge84" class="edge">
<title>ast.Name object at 0x7d1f88fa14d0&#45;&gt;ast.Load object at 0x7d1fa6fa9d10</title>
<path fill="none" stroke="black" d="M1344.77,-143.96C1328.26,-120.54 1298.43,-80.35 1282.5,-72 1184.7,-20.72 838.25,-18.06 723.63,-18.63"/>
<polygon fill="black" stroke="black" points="723.56,-15.13 713.59,-18.69 723.61,-22.13 723.56,-15.13"/>
</g>
<!-- ast.Name object at 0x7d1f88fa1b50 -->
<g id="node65" class="node">
<title>ast.Name object at 0x7d1f88fa1b50</title>
<path fill="#66cdaa" stroke="black" d="M1371.5,-108C1371.5,-108 1341.5,-108 1341.5,-108 1335.5,-108 1329.5,-102 1329.5,-96 1329.5,-96 1329.5,-84 1329.5,-84 1329.5,-78 1335.5,-72 1341.5,-72 1341.5,-72 1371.5,-72 1371.5,-72 1377.5,-72 1383.5,-78 1383.5,-84 1383.5,-84 1383.5,-96 1383.5,-96 1383.5,-102 1377.5,-108 1371.5,-108"/>
<text text-anchor="middle" x="1356.5" y="-86.3" font-family="Times,serif" font-size="14.00">Name</text>
</g>
<!-- ast.Call object at 0x7d1f88fa1150&#45;&gt;ast.Name object at 0x7d1f88fa1b50 -->
<g id="edge86" class="edge">
<title>ast.Call object at 0x7d1f88fa1150&#45;&gt;ast.Name object at 0x7d1f88fa1b50</title>
<path fill="none" stroke="black" d="M1410.7,-143.7C1401.9,-135.14 1391.12,-124.66 1381.5,-115.3"/>
<polygon fill="black" stroke="black" points="1383.7,-112.57 1374.09,-108.1 1378.82,-117.58 1383.7,-112.57"/>
</g>
<!-- ast.Name object at 0x7d1f88fa3610 -->
<g id="node66" class="node">
<title>ast.Name object at 0x7d1f88fa3610</title>
<path fill="#66cdaa" stroke="black" d="M1443.5,-108C1443.5,-108 1413.5,-108 1413.5,-108 1407.5,-108 1401.5,-102 1401.5,-96 1401.5,-96 1401.5,-84 1401.5,-84 1401.5,-78 1407.5,-72 1413.5,-72 1413.5,-72 1443.5,-72 1443.5,-72 1449.5,-72 1455.5,-78 1455.5,-84 1455.5,-84 1455.5,-96 1455.5,-96 1455.5,-102 1449.5,-108 1443.5,-108"/>
<text text-anchor="middle" x="1428.5" y="-86.3" font-family="Times,serif" font-size="14.00">Name</text>
</g>
<!-- ast.Call object at 0x7d1f88fa1150&#45;&gt;ast.Name object at 0x7d1f88fa3610 -->
<g id="edge88" class="edge">
<title>ast.Call object at 0x7d1f88fa1150&#45;&gt;ast.Name object at 0x7d1f88fa3610</title>
<path fill="none" stroke="black" d="M1428.5,-143.7C1428.5,-135.98 1428.5,-126.71 1428.5,-118.11"/>
<polygon fill="black" stroke="black" points="1432,-118.1 1428.5,-108.1 1425,-118.1 1432,-118.1"/>
</g>
<!-- ast.Name object at 0x7d1f88fa1b50&#45;&gt;ast.Load object at 0x7d1fa6fa9d10 -->
<g id="edge87" class="edge">
<title>ast.Name object at 0x7d1f88fa1b50&#45;&gt;ast.Load object at 0x7d1fa6fa9d10</title>
<path fill="none" stroke="black" d="M1329.1,-76.29C1324.63,-74.61 1319.99,-73.09 1315.5,-72 1202.04,-44.41 841.63,-26.03 724.02,-20.64"/>
<polygon fill="black" stroke="black" points="723.87,-17.13 713.73,-20.18 723.56,-24.12 723.87,-17.13"/>
</g>
<!-- ast.Name object at 0x7d1f88fa3610&#45;&gt;ast.Load object at 0x7d1fa6fa9d10 -->
<g id="edge89" class="edge">
<title>ast.Name object at 0x7d1f88fa3610&#45;&gt;ast.Load object at 0x7d1fa6fa9d10</title>
<path fill="none" stroke="black" d="M1401.37,-74.93C1398.43,-73.79 1395.44,-72.78 1392.5,-72 1264.32,-38.17 850.88,-23.72 723.93,-20.01"/>
<polygon fill="black" stroke="black" points="723.67,-16.5 713.57,-19.71 723.47,-23.5 723.67,-16.5"/>
</g>
</g>
</svg>
