<?xml version="1.0" encoding="UTF-8" standalone="no"?>
<!DOCTYPE svg PUBLIC "-//W3C//DTD SVG 1.1//EN"
 "http://www.w3.org/Graphics/SVG/1.1/DTD/svg11.dtd">
<!-- Generated by graphviz version 2.50.0 (0)
 -->
<!-- Pages: 1 -->
<svg width="1818pt" height="620pt"
 viewBox="0.00 0.00 1818.00 620.00" xmlns="http://www.w3.org/2000/svg" xmlns:xlink="http://www.w3.org/1999/xlink">
<g id="graph0" class="graph" transform="scale(1 1) rotate(0) translate(4 616)">
<polygon fill="white" stroke="transparent" points="-4,4 -4,-616 1814,-616 1814,4 -4,4"/>
<!-- ast.Module object at 0x78c1a4a2d390 -->
<g id="node1" class="node">
<title>ast.Module object at 0x78c1a4a2d390</title>
<path fill="#66cdaa" stroke="black" d="M1224,-612C1224,-612 1189,-612 1189,-612 1183,-612 1177,-606 1177,-600 1177,-600 1177,-588 1177,-588 1177,-582 1183,-576 1189,-576 1189,-576 1224,-576 1224,-576 1230,-576 1236,-582 1236,-588 1236,-588 1236,-600 1236,-600 1236,-606 1230,-612 1224,-612"/>
<text text-anchor="middle" x="1206.5" y="-590.3" font-family="Times,serif" font-size="14.00">Module</text>
</g>
<!-- ast.FunctionDef object at 0x78c1a4a2f190 -->
<g id="node2" class="node">
<title>ast.FunctionDef object at 0x78c1a4a2f190</title>
<path fill="#66cdaa" stroke="black" d="M990,-540C990,-540 929,-540 929,-540 923,-540 917,-534 917,-528 917,-528 917,-516 917,-516 917,-510 923,-504 929,-504 929,-504 990,-504 990,-504 996,-504 1002,-510 1002,-516 1002,-516 1002,-528 1002,-528 1002,-534 996,-540 990,-540"/>
<text text-anchor="middle" x="959.5" y="-518.3" font-family="Times,serif" font-size="14.00">FunctionDef</text>
</g>
<!-- ast.Module object at 0x78c1a4a2d390&#45;&gt;ast.FunctionDef object at 0x78c1a4a2f190 -->
<g id="edge1" class="edge">
<title>ast.Module object at 0x78c1a4a2d390&#45;&gt;ast.FunctionDef object at 0x78c1a4a2f190</title>
<path fill="none" stroke="black" d="M1176.71,-584.56C1135.93,-573 1062.08,-552.07 1011.94,-537.86"/>
<polygon fill="black" stroke="black" points="1012.81,-534.47 1002.24,-535.11 1010.91,-541.21 1012.81,-534.47"/>
</g>
<!-- ast.FunctionDef object at 0x78c1a4aac2d0 -->
<g id="node50" class="node">
<title>ast.FunctionDef object at 0x78c1a4aac2d0</title>
<path fill="#66cdaa" stroke="black" d="M1488,-540C1488,-540 1427,-540 1427,-540 1421,-540 1415,-534 1415,-528 1415,-528 1415,-516 1415,-516 1415,-510 1421,-504 1427,-504 1427,-504 1488,-504 1488,-504 1494,-504 1500,-510 1500,-516 1500,-516 1500,-528 1500,-528 1500,-534 1494,-540 1488,-540"/>
<text text-anchor="middle" x="1457.5" y="-518.3" font-family="Times,serif" font-size="14.00">FunctionDef</text>
</g>
<!-- ast.Module object at 0x78c1a4a2d390&#45;&gt;ast.FunctionDef object at 0x78c1a4aac2d0 -->
<g id="edge66" class="edge">
<title>ast.Module object at 0x78c1a4a2d390&#45;&gt;ast.FunctionDef object at 0x78c1a4aac2d0</title>
<path fill="none" stroke="black" d="M1236.28,-584.7C1277.79,-573.12 1353.71,-551.95 1404.89,-537.67"/>
<polygon fill="black" stroke="black" points="1406.08,-540.97 1414.77,-534.92 1404.2,-534.23 1406.08,-540.97"/>
</g>
<!-- ast.arguments object at 0x78c1a4a2ec10 -->
<g id="node3" class="node">
<title>ast.arguments object at 0x78c1a4a2ec10</title>
<path fill="#66cdaa" stroke="black" d="M1110.5,-468C1110.5,-468 1060.5,-468 1060.5,-468 1054.5,-468 1048.5,-462 1048.5,-456 1048.5,-456 1048.5,-444 1048.5,-444 1048.5,-438 1054.5,-432 1060.5,-432 1060.5,-432 1110.5,-432 1110.5,-432 1116.5,-432 1122.5,-438 1122.5,-444 1122.5,-444 1122.5,-456 1122.5,-456 1122.5,-462 1116.5,-468 1110.5,-468"/>
<text text-anchor="middle" x="1085.5" y="-446.3" font-family="Times,serif" font-size="14.00">arguments</text>
</g>
<!-- ast.FunctionDef object at 0x78c1a4a2f190&#45;&gt;ast.arguments object at 0x78c1a4a2ec10 -->
<g id="edge2" class="edge">
<title>ast.FunctionDef object at 0x78c1a4a2f190&#45;&gt;ast.arguments object at 0x78c1a4a2ec10</title>
<path fill="none" stroke="black" d="M990.32,-503.88C1006.95,-494.64 1027.66,-483.13 1045.52,-473.21"/>
<polygon fill="black" stroke="black" points="1047.52,-476.11 1054.56,-468.19 1044.12,-469.99 1047.52,-476.11"/>
</g>
<!-- ast.If object at 0x78c1a4a2de10 -->
<g id="node5" class="node">
<title>ast.If object at 0x78c1a4a2de10</title>
<path fill="#66cdaa" stroke="black" d="M416.5,-396C416.5,-396 386.5,-396 386.5,-396 380.5,-396 374.5,-390 374.5,-384 374.5,-384 374.5,-372 374.5,-372 374.5,-366 380.5,-360 386.5,-360 386.5,-360 416.5,-360 416.5,-360 422.5,-360 428.5,-366 428.5,-372 428.5,-372 428.5,-384 428.5,-384 428.5,-390 422.5,-396 416.5,-396"/>
<text text-anchor="middle" x="401.5" y="-374.3" font-family="Times,serif" font-size="14.00">If</text>
</g>
<!-- ast.FunctionDef object at 0x78c1a4a2f190&#45;&gt;ast.If object at 0x78c1a4a2de10 -->
<g id="edge4" class="edge">
<title>ast.FunctionDef object at 0x78c1a4a2f190&#45;&gt;ast.If object at 0x78c1a4a2de10</title>
<path fill="none" stroke="black" d="M916.64,-510.09C810.78,-483.15 538.31,-413.81 438.69,-388.46"/>
<polygon fill="black" stroke="black" points="439.33,-385.02 428.78,-385.94 437.61,-391.8 439.33,-385.02"/>
</g>
<!-- ast.Assign object at 0x78c1a5476210 -->
<g id="node20" class="node">
<title>ast.Assign object at 0x78c1a5476210</title>
<path fill="#66cdaa" stroke="black" d="M1054.5,-396C1054.5,-396 1024.5,-396 1024.5,-396 1018.5,-396 1012.5,-390 1012.5,-384 1012.5,-384 1012.5,-372 1012.5,-372 1012.5,-366 1018.5,-360 1024.5,-360 1024.5,-360 1054.5,-360 1054.5,-360 1060.5,-360 1066.5,-366 1066.5,-372 1066.5,-372 1066.5,-384 1066.5,-384 1066.5,-390 1060.5,-396 1054.5,-396"/>
<text text-anchor="middle" x="1039.5" y="-374.3" font-family="Times,serif" font-size="14.00">Assign</text>
</g>
<!-- ast.FunctionDef object at 0x78c1a4a2f190&#45;&gt;ast.Assign object at 0x78c1a5476210 -->
<g id="edge22" class="edge">
<title>ast.FunctionDef object at 0x78c1a4a2f190&#45;&gt;ast.Assign object at 0x78c1a5476210</title>
<path fill="none" stroke="black" d="M969.15,-503.87C982.96,-479.35 1008.5,-434.03 1024.71,-405.26"/>
<polygon fill="black" stroke="black" points="1027.96,-406.62 1029.82,-396.19 1021.86,-403.18 1027.96,-406.62"/>
</g>
<!-- ast.For object at 0x78c1a4aaea90 -->
<g id="node24" class="node">
<title>ast.For object at 0x78c1a4aaea90</title>
<path fill="#66cdaa" stroke="black" d="M902.5,-468C902.5,-468 872.5,-468 872.5,-468 866.5,-468 860.5,-462 860.5,-456 860.5,-456 860.5,-444 860.5,-444 860.5,-438 866.5,-432 872.5,-432 872.5,-432 902.5,-432 902.5,-432 908.5,-432 914.5,-438 914.5,-444 914.5,-444 914.5,-456 914.5,-456 914.5,-462 908.5,-468 902.5,-468"/>
<text text-anchor="middle" x="887.5" y="-446.3" font-family="Times,serif" font-size="14.00">For</text>
</g>
<!-- ast.FunctionDef object at 0x78c1a4a2f190&#45;&gt;ast.For object at 0x78c1a4aaea90 -->
<g id="edge27" class="edge">
<title>ast.FunctionDef object at 0x78c1a4a2f190&#45;&gt;ast.For object at 0x78c1a4aaea90</title>
<path fill="none" stroke="black" d="M941.7,-503.7C932.9,-495.14 922.12,-484.66 912.5,-475.3"/>
<polygon fill="black" stroke="black" points="914.7,-472.57 905.09,-468.1 909.82,-477.58 914.7,-472.57"/>
</g>
<!-- ast.Return object at 0x78c1a4aafed0 -->
<g id="node44" class="node">
<title>ast.Return object at 0x78c1a4aafed0</title>
<path fill="#66cdaa" stroke="black" d="M333.5,-468C333.5,-468 303.5,-468 303.5,-468 297.5,-468 291.5,-462 291.5,-456 291.5,-456 291.5,-444 291.5,-444 291.5,-438 297.5,-432 303.5,-432 303.5,-432 333.5,-432 333.5,-432 339.5,-432 345.5,-438 345.5,-444 345.5,-444 345.5,-456 345.5,-456 345.5,-462 339.5,-468 333.5,-468"/>
<text text-anchor="middle" x="318.5" y="-446.3" font-family="Times,serif" font-size="14.00">Return</text>
</g>
<!-- ast.FunctionDef object at 0x78c1a4a2f190&#45;&gt;ast.Return object at 0x78c1a4aafed0 -->
<g id="edge58" class="edge">
<title>ast.FunctionDef object at 0x78c1a4a2f190&#45;&gt;ast.Return object at 0x78c1a4aafed0</title>
<path fill="none" stroke="black" d="M916.95,-516.35C798.71,-503.44 467.57,-467.28 355.85,-455.08"/>
<polygon fill="black" stroke="black" points="356.06,-451.58 345.74,-453.97 355.3,-458.54 356.06,-451.58"/>
</g>
<!-- ast.arg object at 0x78c1a4a2e790 -->
<g id="node4" class="node">
<title>ast.arg object at 0x78c1a4a2e790</title>
<path fill="#66cdaa" stroke="black" d="M1126.5,-396C1126.5,-396 1096.5,-396 1096.5,-396 1090.5,-396 1084.5,-390 1084.5,-384 1084.5,-384 1084.5,-372 1084.5,-372 1084.5,-366 1090.5,-360 1096.5,-360 1096.5,-360 1126.5,-360 1126.5,-360 1132.5,-360 1138.5,-366 1138.5,-372 1138.5,-372 1138.5,-384 1138.5,-384 1138.5,-390 1132.5,-396 1126.5,-396"/>
<text text-anchor="middle" x="1111.5" y="-374.3" font-family="Times,serif" font-size="14.00">arg</text>
</g>
<!-- ast.arguments object at 0x78c1a4a2ec10&#45;&gt;ast.arg object at 0x78c1a4a2e790 -->
<g id="edge3" class="edge">
<title>ast.arguments object at 0x78c1a4a2ec10&#45;&gt;ast.arg object at 0x78c1a4a2e790</title>
<path fill="none" stroke="black" d="M1091.93,-431.7C1094.86,-423.81 1098.39,-414.3 1101.64,-405.55"/>
<polygon fill="black" stroke="black" points="1104.95,-406.7 1105.15,-396.1 1098.38,-404.26 1104.95,-406.7"/>
</g>
<!-- ast.BoolOp object at 0x78c1a4a2d610 -->
<g id="node6" class="node">
<title>ast.BoolOp object at 0x78c1a4a2d610</title>
<path fill="#66cdaa" stroke="black" d="M419,-324C419,-324 384,-324 384,-324 378,-324 372,-318 372,-312 372,-312 372,-300 372,-300 372,-294 378,-288 384,-288 384,-288 419,-288 419,-288 425,-288 431,-294 431,-300 431,-300 431,-312 431,-312 431,-318 425,-324 419,-324"/>
<text text-anchor="middle" x="401.5" y="-302.3" font-family="Times,serif" font-size="14.00">BoolOp</text>
</g>
<!-- ast.If object at 0x78c1a4a2de10&#45;&gt;ast.BoolOp object at 0x78c1a4a2d610 -->
<g id="edge5" class="edge">
<title>ast.If object at 0x78c1a4a2de10&#45;&gt;ast.BoolOp object at 0x78c1a4a2d610</title>
<path fill="none" stroke="black" d="M401.5,-359.7C401.5,-351.98 401.5,-342.71 401.5,-334.11"/>
<polygon fill="black" stroke="black" points="405,-334.1 401.5,-324.1 398,-334.1 405,-334.1"/>
</g>
<!-- ast.Return object at 0x78c1a4aad910 -->
<g id="node18" class="node">
<title>ast.Return object at 0x78c1a4aad910</title>
<path fill="#66cdaa" stroke="black" d="M294.5,-324C294.5,-324 264.5,-324 264.5,-324 258.5,-324 252.5,-318 252.5,-312 252.5,-312 252.5,-300 252.5,-300 252.5,-294 258.5,-288 264.5,-288 264.5,-288 294.5,-288 294.5,-288 300.5,-288 306.5,-294 306.5,-300 306.5,-300 306.5,-312 306.5,-312 306.5,-318 300.5,-324 294.5,-324"/>
<text text-anchor="middle" x="279.5" y="-302.3" font-family="Times,serif" font-size="14.00">Return</text>
</g>
<!-- ast.If object at 0x78c1a4a2de10&#45;&gt;ast.Return object at 0x78c1a4aad910 -->
<g id="edge19" class="edge">
<title>ast.If object at 0x78c1a4a2de10&#45;&gt;ast.Return object at 0x78c1a4aad910</title>
<path fill="none" stroke="black" d="M374.42,-361.46C357.05,-351.5 334.29,-338.44 315.41,-327.61"/>
<polygon fill="black" stroke="black" points="316.92,-324.43 306.5,-322.49 313.43,-330.5 316.92,-324.43"/>
</g>
<!-- ast.Or object at 0x78c1a51ae050 -->
<g id="node7" class="node">
<title>ast.Or object at 0x78c1a51ae050</title>
<path fill="#66cdaa" stroke="black" d="M495.5,-252C495.5,-252 465.5,-252 465.5,-252 459.5,-252 453.5,-246 453.5,-240 453.5,-240 453.5,-228 453.5,-228 453.5,-222 459.5,-216 465.5,-216 465.5,-216 495.5,-216 495.5,-216 501.5,-216 507.5,-222 507.5,-228 507.5,-228 507.5,-240 507.5,-240 507.5,-246 501.5,-252 495.5,-252"/>
<text text-anchor="middle" x="480.5" y="-230.3" font-family="Times,serif" font-size="14.00">Or</text>
</g>
<!-- ast.BoolOp object at 0x78c1a4a2d610&#45;&gt;ast.Or object at 0x78c1a51ae050 -->
<g id="edge6" class="edge">
<title>ast.BoolOp object at 0x78c1a4a2d610&#45;&gt;ast.Or object at 0x78c1a51ae050</title>
<path fill="none" stroke="black" d="M421.03,-287.7C430.88,-278.97 442.99,-268.24 453.7,-258.75"/>
<polygon fill="black" stroke="black" points="456.03,-261.36 461.2,-252.1 451.39,-256.12 456.03,-261.36"/>
</g>
<!-- ast.UnaryOp object at 0x78c1a4a2d050 -->
<g id="node8" class="node">
<title>ast.UnaryOp object at 0x78c1a4a2d050</title>
<path fill="#66cdaa" stroke="black" d="M338,-252C338,-252 295,-252 295,-252 289,-252 283,-246 283,-240 283,-240 283,-228 283,-228 283,-222 289,-216 295,-216 295,-216 338,-216 338,-216 344,-216 350,-222 350,-228 350,-228 350,-240 350,-240 350,-246 344,-252 338,-252"/>
<text text-anchor="middle" x="316.5" y="-230.3" font-family="Times,serif" font-size="14.00">UnaryOp</text>
</g>
<!-- ast.BoolOp object at 0x78c1a4a2d610&#45;&gt;ast.UnaryOp object at 0x78c1a4a2d050 -->
<g id="edge7" class="edge">
<title>ast.BoolOp object at 0x78c1a4a2d610&#45;&gt;ast.UnaryOp object at 0x78c1a4a2d050</title>
<path fill="none" stroke="black" d="M380.49,-287.7C369.78,-278.88 356.61,-268.03 345,-258.47"/>
<polygon fill="black" stroke="black" points="347.21,-255.76 337.27,-252.1 342.76,-261.16 347.21,-255.76"/>
</g>
<!-- ast.Compare object at 0x78c1a4a2e2d0 -->
<g id="node12" class="node">
<title>ast.Compare object at 0x78c1a4a2e2d0</title>
<path fill="#66cdaa" stroke="black" d="M423,-252C423,-252 380,-252 380,-252 374,-252 368,-246 368,-240 368,-240 368,-228 368,-228 368,-222 374,-216 380,-216 380,-216 423,-216 423,-216 429,-216 435,-222 435,-228 435,-228 435,-240 435,-240 435,-246 429,-252 423,-252"/>
<text text-anchor="middle" x="401.5" y="-230.3" font-family="Times,serif" font-size="14.00">Compare</text>
</g>
<!-- ast.BoolOp object at 0x78c1a4a2d610&#45;&gt;ast.Compare object at 0x78c1a4a2e2d0 -->
<g id="edge11" class="edge">
<title>ast.BoolOp object at 0x78c1a4a2d610&#45;&gt;ast.Compare object at 0x78c1a4a2e2d0</title>
<path fill="none" stroke="black" d="M401.5,-287.7C401.5,-279.98 401.5,-270.71 401.5,-262.11"/>
<polygon fill="black" stroke="black" points="405,-262.1 401.5,-252.1 398,-262.1 405,-262.1"/>
</g>
<!-- ast.Not object at 0x78c1a51aea90 -->
<g id="node9" class="node">
<title>ast.Not object at 0x78c1a51aea90</title>
<path fill="#66cdaa" stroke="black" d="M334.5,-180C334.5,-180 304.5,-180 304.5,-180 298.5,-180 292.5,-174 292.5,-168 292.5,-168 292.5,-156 292.5,-156 292.5,-150 298.5,-144 304.5,-144 304.5,-144 334.5,-144 334.5,-144 340.5,-144 346.5,-150 346.5,-156 346.5,-156 346.5,-168 346.5,-168 346.5,-174 340.5,-180 334.5,-180"/>
<text text-anchor="middle" x="319.5" y="-158.3" font-family="Times,serif" font-size="14.00">Not</text>
</g>
<!-- ast.UnaryOp object at 0x78c1a4a2d050&#45;&gt;ast.Not object at 0x78c1a51aea90 -->
<g id="edge8" class="edge">
<title>ast.UnaryOp object at 0x78c1a4a2d050&#45;&gt;ast.Not object at 0x78c1a51aea90</title>
<path fill="none" stroke="black" d="M317.24,-215.7C317.57,-207.98 317.97,-198.71 318.34,-190.11"/>
<polygon fill="black" stroke="black" points="321.84,-190.25 318.77,-180.1 314.84,-189.95 321.84,-190.25"/>
</g>
<!-- ast.Name object at 0x78c1a4a2d250 -->
<g id="node10" class="node">
<title>ast.Name object at 0x78c1a4a2d250</title>
<path fill="#66cdaa" stroke="black" d="M325.5,-108C325.5,-108 295.5,-108 295.5,-108 289.5,-108 283.5,-102 283.5,-96 283.5,-96 283.5,-84 283.5,-84 283.5,-78 289.5,-72 295.5,-72 295.5,-72 325.5,-72 325.5,-72 331.5,-72 337.5,-78 337.5,-84 337.5,-84 337.5,-96 337.5,-96 337.5,-102 331.5,-108 325.5,-108"/>
<text text-anchor="middle" x="310.5" y="-86.3" font-family="Times,serif" font-size="14.00">Name</text>
</g>
<!-- ast.UnaryOp object at 0x78c1a4a2d050&#45;&gt;ast.Name object at 0x78c1a4a2d250 -->
<g id="edge9" class="edge">
<title>ast.UnaryOp object at 0x78c1a4a2d050&#45;&gt;ast.Name object at 0x78c1a4a2d250</title>
<path fill="none" stroke="black" d="M302.17,-215.57C295.05,-205.76 287.19,-192.92 283.5,-180 279.1,-164.62 279.77,-159.56 283.5,-144 285.71,-134.81 289.79,-125.41 294.12,-117.13"/>
<polygon fill="black" stroke="black" points="297.22,-118.77 299.03,-108.33 291.1,-115.36 297.22,-118.77"/>
</g>
<!-- ast.Load object at 0x78c1a51add10 -->
<g id="node11" class="node">
<title>ast.Load object at 0x78c1a51add10</title>
<path fill="#66cdaa" stroke="black" d="M798.5,-36C798.5,-36 768.5,-36 768.5,-36 762.5,-36 756.5,-30 756.5,-24 756.5,-24 756.5,-12 756.5,-12 756.5,-6 762.5,0 768.5,0 768.5,0 798.5,0 798.5,0 804.5,0 810.5,-6 810.5,-12 810.5,-12 810.5,-24 810.5,-24 810.5,-30 804.5,-36 798.5,-36"/>
<text text-anchor="middle" x="783.5" y="-14.3" font-family="Times,serif" font-size="14.00">Load</text>
</g>
<!-- ast.Name object at 0x78c1a4a2d250&#45;&gt;ast.Load object at 0x78c1a51add10 -->
<g id="edge10" class="edge">
<title>ast.Name object at 0x78c1a4a2d250&#45;&gt;ast.Load object at 0x78c1a51add10</title>
<path fill="none" stroke="black" d="M337.78,-77.51C343.55,-75.42 349.66,-73.44 355.5,-72 496.83,-37.08 670.38,-24.63 745.67,-20.66"/>
<polygon fill="black" stroke="black" points="746.24,-24.14 756.05,-20.14 745.89,-17.15 746.24,-24.14"/>
</g>
<!-- ast.Call object at 0x78c1a4aad0d0 -->
<g id="node13" class="node">
<title>ast.Call object at 0x78c1a4aad0d0</title>
<path fill="#66cdaa" stroke="black" d="M406.5,-180C406.5,-180 376.5,-180 376.5,-180 370.5,-180 364.5,-174 364.5,-168 364.5,-168 364.5,-156 364.5,-156 364.5,-150 370.5,-144 376.5,-144 376.5,-144 406.5,-144 406.5,-144 412.5,-144 418.5,-150 418.5,-156 418.5,-156 418.5,-168 418.5,-168 418.5,-174 412.5,-180 406.5,-180"/>
<text text-anchor="middle" x="391.5" y="-158.3" font-family="Times,serif" font-size="14.00">Call</text>
</g>
<!-- ast.Compare object at 0x78c1a4a2e2d0&#45;&gt;ast.Call object at 0x78c1a4aad0d0 -->
<g id="edge12" class="edge">
<title>ast.Compare object at 0x78c1a4a2e2d0&#45;&gt;ast.Call object at 0x78c1a4aad0d0</title>
<path fill="none" stroke="black" d="M399.03,-215.7C397.93,-207.98 396.6,-198.71 395.37,-190.11"/>
<polygon fill="black" stroke="black" points="398.82,-189.51 393.94,-180.1 391.89,-190.5 398.82,-189.51"/>
</g>
<!-- ast.Lt object at 0x78c1a51aee10 -->
<g id="node16" class="node">
<title>ast.Lt object at 0x78c1a51aee10</title>
<path fill="#66cdaa" stroke="black" d="M717.5,-180C717.5,-180 687.5,-180 687.5,-180 681.5,-180 675.5,-174 675.5,-168 675.5,-168 675.5,-156 675.5,-156 675.5,-150 681.5,-144 687.5,-144 687.5,-144 717.5,-144 717.5,-144 723.5,-144 729.5,-150 729.5,-156 729.5,-156 729.5,-168 729.5,-168 729.5,-174 723.5,-180 717.5,-180"/>
<text text-anchor="middle" x="702.5" y="-158.3" font-family="Times,serif" font-size="14.00">Lt</text>
</g>
<!-- ast.Compare object at 0x78c1a4a2e2d0&#45;&gt;ast.Lt object at 0x78c1a51aee10 -->
<g id="edge17" class="edge">
<title>ast.Compare object at 0x78c1a4a2e2d0&#45;&gt;ast.Lt object at 0x78c1a51aee10</title>
<path fill="none" stroke="black" d="M435.07,-218.94C438.23,-217.85 441.4,-216.85 444.5,-216 537.77,-190.33 569.02,-208.38 665.45,-179.82"/>
<polygon fill="black" stroke="black" points="666.76,-183.08 675.3,-176.81 664.71,-176.39 666.76,-183.08"/>
</g>
<!-- ast.Constant object at 0x78c1a4aae0d0 -->
<g id="node17" class="node">
<title>ast.Constant object at 0x78c1a4aae0d0</title>
<path fill="#66cdaa" stroke="black" d="M490,-180C490,-180 449,-180 449,-180 443,-180 437,-174 437,-168 437,-168 437,-156 437,-156 437,-150 443,-144 449,-144 449,-144 490,-144 490,-144 496,-144 502,-150 502,-156 502,-156 502,-168 502,-168 502,-174 496,-180 490,-180"/>
<text text-anchor="middle" x="469.5" y="-158.3" font-family="Times,serif" font-size="14.00">Constant</text>
</g>
<!-- ast.Compare object at 0x78c1a4a2e2d0&#45;&gt;ast.Constant object at 0x78c1a4aae0d0 -->
<g id="edge18" class="edge">
<title>ast.Compare object at 0x78c1a4a2e2d0&#45;&gt;ast.Constant object at 0x78c1a4aae0d0</title>
<path fill="none" stroke="black" d="M418.31,-215.7C426.63,-207.14 436.81,-196.66 445.89,-187.3"/>
<polygon fill="black" stroke="black" points="448.43,-189.72 452.88,-180.1 443.41,-184.84 448.43,-189.72"/>
</g>
<!-- ast.Name object at 0x78c1a4aae150 -->
<g id="node14" class="node">
<title>ast.Name object at 0x78c1a4aae150</title>
<path fill="#66cdaa" stroke="black" d="M479.5,-108C479.5,-108 449.5,-108 449.5,-108 443.5,-108 437.5,-102 437.5,-96 437.5,-96 437.5,-84 437.5,-84 437.5,-78 443.5,-72 449.5,-72 449.5,-72 479.5,-72 479.5,-72 485.5,-72 491.5,-78 491.5,-84 491.5,-84 491.5,-96 491.5,-96 491.5,-102 485.5,-108 479.5,-108"/>
<text text-anchor="middle" x="464.5" y="-86.3" font-family="Times,serif" font-size="14.00">Name</text>
</g>
<!-- ast.Call object at 0x78c1a4aad0d0&#45;&gt;ast.Name object at 0x78c1a4aae150 -->
<g id="edge13" class="edge">
<title>ast.Call object at 0x78c1a4aad0d0&#45;&gt;ast.Name object at 0x78c1a4aae150</title>
<path fill="none" stroke="black" d="M409.54,-143.7C418.56,-135.05 429.62,-124.45 439.44,-115.03"/>
<polygon fill="black" stroke="black" points="441.87,-117.55 446.66,-108.1 437.02,-112.5 441.87,-117.55"/>
</g>
<!-- ast.Name object at 0x78c1a4aac710 -->
<g id="node15" class="node">
<title>ast.Name object at 0x78c1a4aac710</title>
<path fill="#66cdaa" stroke="black" d="M406.5,-108C406.5,-108 376.5,-108 376.5,-108 370.5,-108 364.5,-102 364.5,-96 364.5,-96 364.5,-84 364.5,-84 364.5,-78 370.5,-72 376.5,-72 376.5,-72 406.5,-72 406.5,-72 412.5,-72 418.5,-78 418.5,-84 418.5,-84 418.5,-96 418.5,-96 418.5,-102 412.5,-108 406.5,-108"/>
<text text-anchor="middle" x="391.5" y="-86.3" font-family="Times,serif" font-size="14.00">Name</text>
</g>
<!-- ast.Call object at 0x78c1a4aad0d0&#45;&gt;ast.Name object at 0x78c1a4aac710 -->
<g id="edge15" class="edge">
<title>ast.Call object at 0x78c1a4aad0d0&#45;&gt;ast.Name object at 0x78c1a4aac710</title>
<path fill="none" stroke="black" d="M391.5,-143.7C391.5,-135.98 391.5,-126.71 391.5,-118.11"/>
<polygon fill="black" stroke="black" points="395,-118.1 391.5,-108.1 388,-118.1 395,-118.1"/>
</g>
<!-- ast.Name object at 0x78c1a4aae150&#45;&gt;ast.Load object at 0x78c1a51add10 -->
<g id="edge14" class="edge">
<title>ast.Name object at 0x78c1a4aae150&#45;&gt;ast.Load object at 0x78c1a51add10</title>
<path fill="none" stroke="black" d="M491.56,-76.87C496.16,-75.07 500.92,-73.37 505.5,-72 589.79,-46.78 692.17,-30.91 746.1,-23.65"/>
<polygon fill="black" stroke="black" points="746.77,-27.09 756.22,-22.31 745.85,-20.15 746.77,-27.09"/>
</g>
<!-- ast.Name object at 0x78c1a4aac710&#45;&gt;ast.Load object at 0x78c1a51add10 -->
<g id="edge16" class="edge">
<title>ast.Name object at 0x78c1a4aac710&#45;&gt;ast.Load object at 0x78c1a51add10</title>
<path fill="none" stroke="black" d="M418.64,-75.49C421.91,-74.17 425.25,-72.97 428.5,-72 541.08,-38.47 680.35,-25.58 745.96,-21.12"/>
<polygon fill="black" stroke="black" points="746.46,-24.59 756.22,-20.45 746.01,-17.61 746.46,-24.59"/>
</g>
<!-- ast.List object at 0x78c1a4aae3d0 -->
<g id="node19" class="node">
<title>ast.List object at 0x78c1a4aae3d0</title>
<path fill="#66cdaa" stroke="black" d="M247.5,-252C247.5,-252 217.5,-252 217.5,-252 211.5,-252 205.5,-246 205.5,-240 205.5,-240 205.5,-228 205.5,-228 205.5,-222 211.5,-216 217.5,-216 217.5,-216 247.5,-216 247.5,-216 253.5,-216 259.5,-222 259.5,-228 259.5,-228 259.5,-240 259.5,-240 259.5,-246 253.5,-252 247.5,-252"/>
<text text-anchor="middle" x="232.5" y="-230.3" font-family="Times,serif" font-size="14.00">List</text>
</g>
<!-- ast.Return object at 0x78c1a4aad910&#45;&gt;ast.List object at 0x78c1a4aae3d0 -->
<g id="edge20" class="edge">
<title>ast.Return object at 0x78c1a4aad910&#45;&gt;ast.List object at 0x78c1a4aae3d0</title>
<path fill="none" stroke="black" d="M267.88,-287.7C262.36,-279.47 255.65,-269.48 249.57,-260.42"/>
<polygon fill="black" stroke="black" points="252.46,-258.46 243.98,-252.1 246.65,-262.36 252.46,-258.46"/>
</g>
<!-- ast.List object at 0x78c1a4aae3d0&#45;&gt;ast.Load object at 0x78c1a51add10 -->
<g id="edge21" class="edge">
<title>ast.List object at 0x78c1a4aae3d0&#45;&gt;ast.Load object at 0x78c1a51add10</title>
<path fill="none" stroke="black" d="M231.23,-215.93C229.78,-182.53 231.88,-108.61 274.5,-72 310.16,-41.37 634.84,-25.16 746.21,-20.46"/>
<polygon fill="black" stroke="black" points="746.46,-23.95 756.3,-20.04 746.17,-16.96 746.46,-23.95"/>
</g>
<!-- ast.Name object at 0x78c1a4aaeb10 -->
<g id="node21" class="node">
<title>ast.Name object at 0x78c1a4aaeb10</title>
<path fill="#66cdaa" stroke="black" d="M1064.5,-324C1064.5,-324 1034.5,-324 1034.5,-324 1028.5,-324 1022.5,-318 1022.5,-312 1022.5,-312 1022.5,-300 1022.5,-300 1022.5,-294 1028.5,-288 1034.5,-288 1034.5,-288 1064.5,-288 1064.5,-288 1070.5,-288 1076.5,-294 1076.5,-300 1076.5,-300 1076.5,-312 1076.5,-312 1076.5,-318 1070.5,-324 1064.5,-324"/>
<text text-anchor="middle" x="1049.5" y="-302.3" font-family="Times,serif" font-size="14.00">Name</text>
</g>
<!-- ast.Assign object at 0x78c1a5476210&#45;&gt;ast.Name object at 0x78c1a4aaeb10 -->
<g id="edge23" class="edge">
<title>ast.Assign object at 0x78c1a5476210&#45;&gt;ast.Name object at 0x78c1a4aaeb10</title>
<path fill="none" stroke="black" d="M1041.97,-359.7C1043.07,-351.98 1044.4,-342.71 1045.63,-334.11"/>
<polygon fill="black" stroke="black" points="1049.11,-334.5 1047.06,-324.1 1042.18,-333.51 1049.11,-334.5"/>
</g>
<!-- ast.List object at 0x78c1a4aaec50 -->
<g id="node23" class="node">
<title>ast.List object at 0x78c1a4aaec50</title>
<path fill="#66cdaa" stroke="black" d="M1174.5,-324C1174.5,-324 1144.5,-324 1144.5,-324 1138.5,-324 1132.5,-318 1132.5,-312 1132.5,-312 1132.5,-300 1132.5,-300 1132.5,-294 1138.5,-288 1144.5,-288 1144.5,-288 1174.5,-288 1174.5,-288 1180.5,-288 1186.5,-294 1186.5,-300 1186.5,-300 1186.5,-312 1186.5,-312 1186.5,-318 1180.5,-324 1174.5,-324"/>
<text text-anchor="middle" x="1159.5" y="-302.3" font-family="Times,serif" font-size="14.00">List</text>
</g>
<!-- ast.Assign object at 0x78c1a5476210&#45;&gt;ast.List object at 0x78c1a4aaec50 -->
<g id="edge25" class="edge">
<title>ast.Assign object at 0x78c1a5476210&#45;&gt;ast.List object at 0x78c1a4aaec50</title>
<path fill="none" stroke="black" d="M1066.73,-361.12C1083.61,-351.27 1105.47,-338.52 1123.74,-327.86"/>
<polygon fill="black" stroke="black" points="1125.5,-330.88 1132.38,-322.82 1121.98,-324.84 1125.5,-330.88"/>
</g>
<!-- ast.Store object at 0x78c1a51add90 -->
<g id="node22" class="node">
<title>ast.Store object at 0x78c1a51add90</title>
<path fill="#66cdaa" stroke="black" d="M991.5,-252C991.5,-252 961.5,-252 961.5,-252 955.5,-252 949.5,-246 949.5,-240 949.5,-240 949.5,-228 949.5,-228 949.5,-222 955.5,-216 961.5,-216 961.5,-216 991.5,-216 991.5,-216 997.5,-216 1003.5,-222 1003.5,-228 1003.5,-228 1003.5,-240 1003.5,-240 1003.5,-246 997.5,-252 991.5,-252"/>
<text text-anchor="middle" x="976.5" y="-230.3" font-family="Times,serif" font-size="14.00">Store</text>
</g>
<!-- ast.Name object at 0x78c1a4aaeb10&#45;&gt;ast.Store object at 0x78c1a51add90 -->
<g id="edge24" class="edge">
<title>ast.Name object at 0x78c1a4aaeb10&#45;&gt;ast.Store object at 0x78c1a51add90</title>
<path fill="none" stroke="black" d="M1031.46,-287.7C1022.44,-279.05 1011.38,-268.45 1001.56,-259.03"/>
<polygon fill="black" stroke="black" points="1003.98,-256.5 994.34,-252.1 999.13,-261.55 1003.98,-256.5"/>
</g>
<!-- ast.List object at 0x78c1a4aaec50&#45;&gt;ast.Load object at 0x78c1a51add10 -->
<g id="edge26" class="edge">
<title>ast.List object at 0x78c1a4aaec50&#45;&gt;ast.Load object at 0x78c1a51add10</title>
<path fill="none" stroke="black" d="M1142.32,-287.79C1119.66,-264.57 1079.31,-221.34 1050.5,-180 1019.23,-135.12 1034.7,-105.54 991.5,-72 941.36,-33.07 865.85,-22.48 820.94,-19.76"/>
<polygon fill="black" stroke="black" points="820.92,-16.25 810.75,-19.24 820.56,-23.24 820.92,-16.25"/>
</g>
<!-- ast.Name object at 0x78c1a4aaeb90 -->
<g id="node25" class="node">
<title>ast.Name object at 0x78c1a4aaeb90</title>
<path fill="#66cdaa" stroke="black" d="M979.5,-396C979.5,-396 949.5,-396 949.5,-396 943.5,-396 937.5,-390 937.5,-384 937.5,-384 937.5,-372 937.5,-372 937.5,-366 943.5,-360 949.5,-360 949.5,-360 979.5,-360 979.5,-360 985.5,-360 991.5,-366 991.5,-372 991.5,-372 991.5,-384 991.5,-384 991.5,-390 985.5,-396 979.5,-396"/>
<text text-anchor="middle" x="964.5" y="-374.3" font-family="Times,serif" font-size="14.00">Name</text>
</g>
<!-- ast.For object at 0x78c1a4aaea90&#45;&gt;ast.Name object at 0x78c1a4aaeb90 -->
<g id="edge28" class="edge">
<title>ast.For object at 0x78c1a4aaea90&#45;&gt;ast.Name object at 0x78c1a4aaeb90</title>
<path fill="none" stroke="black" d="M906.53,-431.7C916.04,-423.05 927.71,-412.45 938.07,-403.03"/>
<polygon fill="black" stroke="black" points="940.64,-405.42 945.69,-396.1 935.93,-400.24 940.64,-405.42"/>
</g>
<!-- ast.Call object at 0x78c1a4aae810 -->
<g id="node26" class="node">
<title>ast.Call object at 0x78c1a4aae810</title>
<path fill="#66cdaa" stroke="black" d="M798.5,-396C798.5,-396 768.5,-396 768.5,-396 762.5,-396 756.5,-390 756.5,-384 756.5,-384 756.5,-372 756.5,-372 756.5,-366 762.5,-360 768.5,-360 768.5,-360 798.5,-360 798.5,-360 804.5,-360 810.5,-366 810.5,-372 810.5,-372 810.5,-384 810.5,-384 810.5,-390 804.5,-396 798.5,-396"/>
<text text-anchor="middle" x="783.5" y="-374.3" font-family="Times,serif" font-size="14.00">Call</text>
</g>
<!-- ast.For object at 0x78c1a4aaea90&#45;&gt;ast.Call object at 0x78c1a4aae810 -->
<g id="edge30" class="edge">
<title>ast.For object at 0x78c1a4aaea90&#45;&gt;ast.Call object at 0x78c1a4aae810</title>
<path fill="none" stroke="black" d="M862.06,-431.88C848.71,-422.89 832.18,-411.76 817.72,-402.03"/>
<polygon fill="black" stroke="black" points="819.29,-398.87 809.04,-396.19 815.38,-404.68 819.29,-398.87"/>
</g>
<!-- ast.Assign object at 0x78c1a4aaef50 -->
<g id="node30" class="node">
<title>ast.Assign object at 0x78c1a4aaef50</title>
<path fill="#66cdaa" stroke="black" d="M902.5,-396C902.5,-396 872.5,-396 872.5,-396 866.5,-396 860.5,-390 860.5,-384 860.5,-384 860.5,-372 860.5,-372 860.5,-366 866.5,-360 872.5,-360 872.5,-360 902.5,-360 902.5,-360 908.5,-360 914.5,-366 914.5,-372 914.5,-372 914.5,-384 914.5,-384 914.5,-390 908.5,-396 902.5,-396"/>
<text text-anchor="middle" x="887.5" y="-374.3" font-family="Times,serif" font-size="14.00">Assign</text>
</g>
<!-- ast.For object at 0x78c1a4aaea90&#45;&gt;ast.Assign object at 0x78c1a4aaef50 -->
<g id="edge35" class="edge">
<title>ast.For object at 0x78c1a4aaea90&#45;&gt;ast.Assign object at 0x78c1a4aaef50</title>
<path fill="none" stroke="black" d="M887.5,-431.7C887.5,-423.98 887.5,-414.71 887.5,-406.11"/>
<polygon fill="black" stroke="black" points="891,-406.1 887.5,-396.1 884,-406.1 891,-406.1"/>
</g>
<!-- ast.If object at 0x78c1a4aafa90 -->
<g id="node35" class="node">
<title>ast.If object at 0x78c1a4aafa90</title>
<path fill="#66cdaa" stroke="black" d="M622.5,-396C622.5,-396 592.5,-396 592.5,-396 586.5,-396 580.5,-390 580.5,-384 580.5,-384 580.5,-372 580.5,-372 580.5,-366 586.5,-360 592.5,-360 592.5,-360 622.5,-360 622.5,-360 628.5,-360 634.5,-366 634.5,-372 634.5,-372 634.5,-384 634.5,-384 634.5,-390 628.5,-396 622.5,-396"/>
<text text-anchor="middle" x="607.5" y="-374.3" font-family="Times,serif" font-size="14.00">If</text>
</g>
<!-- ast.For object at 0x78c1a4aaea90&#45;&gt;ast.If object at 0x78c1a4aafa90 -->
<g id="edge44" class="edge">
<title>ast.For object at 0x78c1a4aaea90&#45;&gt;ast.If object at 0x78c1a4aafa90</title>
<path fill="none" stroke="black" d="M860.4,-442.22C810.01,-429.63 701.84,-402.59 644.67,-388.29"/>
<polygon fill="black" stroke="black" points="645.17,-384.81 634.62,-385.78 643.47,-391.6 645.17,-384.81"/>
</g>
<!-- ast.Name object at 0x78c1a4aaeb90&#45;&gt;ast.Store object at 0x78c1a51add90 -->
<g id="edge29" class="edge">
<title>ast.Name object at 0x78c1a4aaeb90&#45;&gt;ast.Store object at 0x78c1a51add90</title>
<path fill="none" stroke="black" d="M968.91,-359.95C971.37,-349.62 974.18,-336.15 975.5,-324 977.73,-303.39 977.9,-279.94 977.55,-262.29"/>
<polygon fill="black" stroke="black" points="981.05,-262.02 977.29,-252.12 974.05,-262.21 981.05,-262.02"/>
</g>
<!-- ast.Name object at 0x78c1a4aae690 -->
<g id="node27" class="node">
<title>ast.Name object at 0x78c1a4aae690</title>
<path fill="#66cdaa" stroke="black" d="M844.5,-324C844.5,-324 814.5,-324 814.5,-324 808.5,-324 802.5,-318 802.5,-312 802.5,-312 802.5,-300 802.5,-300 802.5,-294 808.5,-288 814.5,-288 814.5,-288 844.5,-288 844.5,-288 850.5,-288 856.5,-294 856.5,-300 856.5,-300 856.5,-312 856.5,-312 856.5,-318 850.5,-324 844.5,-324"/>
<text text-anchor="middle" x="829.5" y="-302.3" font-family="Times,serif" font-size="14.00">Name</text>
</g>
<!-- ast.Call object at 0x78c1a4aae810&#45;&gt;ast.Name object at 0x78c1a4aae690 -->
<g id="edge31" class="edge">
<title>ast.Call object at 0x78c1a4aae810&#45;&gt;ast.Name object at 0x78c1a4aae690</title>
<path fill="none" stroke="black" d="M794.87,-359.7C800.22,-351.56 806.7,-341.69 812.61,-332.7"/>
<polygon fill="black" stroke="black" points="815.69,-334.38 818.26,-324.1 809.84,-330.54 815.69,-334.38"/>
</g>
<!-- ast.Constant object at 0x78c1a4aae590 -->
<g id="node28" class="node">
<title>ast.Constant object at 0x78c1a4aae590</title>
<path fill="#66cdaa" stroke="black" d="M772,-324C772,-324 731,-324 731,-324 725,-324 719,-318 719,-312 719,-312 719,-300 719,-300 719,-294 725,-288 731,-288 731,-288 772,-288 772,-288 778,-288 784,-294 784,-300 784,-300 784,-312 784,-312 784,-318 778,-324 772,-324"/>
<text text-anchor="middle" x="751.5" y="-302.3" font-family="Times,serif" font-size="14.00">Constant</text>
</g>
<!-- ast.Call object at 0x78c1a4aae810&#45;&gt;ast.Constant object at 0x78c1a4aae590 -->
<g id="edge33" class="edge">
<title>ast.Call object at 0x78c1a4aae810&#45;&gt;ast.Constant object at 0x78c1a4aae590</title>
<path fill="none" stroke="black" d="M775.59,-359.7C771.95,-351.73 767.55,-342.1 763.51,-333.26"/>
<polygon fill="black" stroke="black" points="766.66,-331.74 759.32,-324.1 760.29,-334.65 766.66,-331.74"/>
</g>
<!-- ast.Constant object at 0x78c1a4aaef10 -->
<g id="node29" class="node">
<title>ast.Constant object at 0x78c1a4aaef10</title>
<path fill="#66cdaa" stroke="black" d="M689,-324C689,-324 648,-324 648,-324 642,-324 636,-318 636,-312 636,-312 636,-300 636,-300 636,-294 642,-288 648,-288 648,-288 689,-288 689,-288 695,-288 701,-294 701,-300 701,-300 701,-312 701,-312 701,-318 695,-324 689,-324"/>
<text text-anchor="middle" x="668.5" y="-302.3" font-family="Times,serif" font-size="14.00">Constant</text>
</g>
<!-- ast.Call object at 0x78c1a4aae810&#45;&gt;ast.Constant object at 0x78c1a4aaef10 -->
<g id="edge34" class="edge">
<title>ast.Call object at 0x78c1a4aae810&#45;&gt;ast.Constant object at 0x78c1a4aaef10</title>
<path fill="none" stroke="black" d="M756.25,-360.41C741.12,-351.2 722.08,-339.61 705.61,-329.59"/>
<polygon fill="black" stroke="black" points="707.12,-326.41 696.76,-324.2 703.48,-332.39 707.12,-326.41"/>
</g>
<!-- ast.Name object at 0x78c1a4aae690&#45;&gt;ast.Load object at 0x78c1a51add10 -->
<g id="edge32" class="edge">
<title>ast.Name object at 0x78c1a4aae690&#45;&gt;ast.Load object at 0x78c1a51add10</title>
<path fill="none" stroke="black" d="M827.99,-287.53C825.3,-257.89 819.15,-195.92 810.5,-144 804.85,-110.08 796.15,-71.45 790.17,-46.23"/>
<polygon fill="black" stroke="black" points="793.52,-45.2 787.78,-36.29 786.71,-46.83 793.52,-45.2"/>
</g>
<!-- ast.Name object at 0x78c1a4aaf1d0 -->
<g id="node31" class="node">
<title>ast.Name object at 0x78c1a4aaf1d0</title>
<path fill="#66cdaa" stroke="black" d="M954.5,-324C954.5,-324 924.5,-324 924.5,-324 918.5,-324 912.5,-318 912.5,-312 912.5,-312 912.5,-300 912.5,-300 912.5,-294 918.5,-288 924.5,-288 924.5,-288 954.5,-288 954.5,-288 960.5,-288 966.5,-294 966.5,-300 966.5,-300 966.5,-312 966.5,-312 966.5,-318 960.5,-324 954.5,-324"/>
<text text-anchor="middle" x="939.5" y="-302.3" font-family="Times,serif" font-size="14.00">Name</text>
</g>
<!-- ast.Assign object at 0x78c1a4aaef50&#45;&gt;ast.Name object at 0x78c1a4aaf1d0 -->
<g id="edge36" class="edge">
<title>ast.Assign object at 0x78c1a4aaef50&#45;&gt;ast.Name object at 0x78c1a4aaf1d0</title>
<path fill="none" stroke="black" d="M900.35,-359.7C906.53,-351.39 914.04,-341.28 920.82,-332.14"/>
<polygon fill="black" stroke="black" points="923.64,-334.22 926.79,-324.1 918.02,-330.04 923.64,-334.22"/>
</g>
<!-- ast.Subscript object at 0x78c1a4aaf3d0 -->
<g id="node32" class="node">
<title>ast.Subscript object at 0x78c1a4aaf3d0</title>
<path fill="#66cdaa" stroke="black" d="M937.5,-180C937.5,-180 893.5,-180 893.5,-180 887.5,-180 881.5,-174 881.5,-168 881.5,-168 881.5,-156 881.5,-156 881.5,-150 887.5,-144 893.5,-144 893.5,-144 937.5,-144 937.5,-144 943.5,-144 949.5,-150 949.5,-156 949.5,-156 949.5,-168 949.5,-168 949.5,-174 943.5,-180 937.5,-180"/>
<text text-anchor="middle" x="915.5" y="-158.3" font-family="Times,serif" font-size="14.00">Subscript</text>
</g>
<!-- ast.Assign object at 0x78c1a4aaef50&#45;&gt;ast.Subscript object at 0x78c1a4aaf3d0 -->
<g id="edge38" class="edge">
<title>ast.Assign object at 0x78c1a4aaef50&#45;&gt;ast.Subscript object at 0x78c1a4aaf3d0</title>
<path fill="none" stroke="black" d="M889.74,-359.85C894.59,-322.83 906.06,-235.18 911.92,-190.39"/>
<polygon fill="black" stroke="black" points="915.42,-190.6 913.25,-180.23 908.48,-189.69 915.42,-190.6"/>
</g>
<!-- ast.Name object at 0x78c1a4aaf1d0&#45;&gt;ast.Store object at 0x78c1a51add90 -->
<g id="edge37" class="edge">
<title>ast.Name object at 0x78c1a4aaf1d0&#45;&gt;ast.Store object at 0x78c1a51add90</title>
<path fill="none" stroke="black" d="M948.65,-287.7C952.9,-279.64 958.06,-269.89 962.77,-260.98"/>
<polygon fill="black" stroke="black" points="965.88,-262.58 967.46,-252.1 959.69,-259.31 965.88,-262.58"/>
</g>
<!-- ast.Subscript object at 0x78c1a4aaf3d0&#45;&gt;ast.Load object at 0x78c1a51add10 -->
<g id="edge43" class="edge">
<title>ast.Subscript object at 0x78c1a4aaf3d0&#45;&gt;ast.Load object at 0x78c1a51add10</title>
<path fill="none" stroke="black" d="M943.3,-143.87C955.27,-134.84 968,-122.59 974.5,-108 981.02,-93.39 984.18,-84.74 974.5,-72 955.98,-47.64 871.01,-31.55 820.85,-23.99"/>
<polygon fill="black" stroke="black" points="821.12,-20.49 810.72,-22.51 820.1,-27.42 821.12,-20.49"/>
</g>
<!-- ast.Name object at 0x78c1a4aaf2d0 -->
<g id="node33" class="node">
<title>ast.Name object at 0x78c1a4aaf2d0</title>
<path fill="#66cdaa" stroke="black" d="M881.5,-108C881.5,-108 851.5,-108 851.5,-108 845.5,-108 839.5,-102 839.5,-96 839.5,-96 839.5,-84 839.5,-84 839.5,-78 845.5,-72 851.5,-72 851.5,-72 881.5,-72 881.5,-72 887.5,-72 893.5,-78 893.5,-84 893.5,-84 893.5,-96 893.5,-96 893.5,-102 887.5,-108 881.5,-108"/>
<text text-anchor="middle" x="866.5" y="-86.3" font-family="Times,serif" font-size="14.00">Name</text>
</g>
<!-- ast.Subscript object at 0x78c1a4aaf3d0&#45;&gt;ast.Name object at 0x78c1a4aaf2d0 -->
<g id="edge39" class="edge">
<title>ast.Subscript object at 0x78c1a4aaf3d0&#45;&gt;ast.Name object at 0x78c1a4aaf2d0</title>
<path fill="none" stroke="black" d="M903.39,-143.7C897.63,-135.47 890.64,-125.48 884.29,-116.42"/>
<polygon fill="black" stroke="black" points="887.08,-114.29 878.47,-108.1 881.34,-118.3 887.08,-114.29"/>
</g>
<!-- ast.Name object at 0x78c1a4aafb50 -->
<g id="node34" class="node">
<title>ast.Name object at 0x78c1a4aafb50</title>
<path fill="#66cdaa" stroke="black" d="M953.5,-108C953.5,-108 923.5,-108 923.5,-108 917.5,-108 911.5,-102 911.5,-96 911.5,-96 911.5,-84 911.5,-84 911.5,-78 917.5,-72 923.5,-72 923.5,-72 953.5,-72 953.5,-72 959.5,-72 965.5,-78 965.5,-84 965.5,-84 965.5,-96 965.5,-96 965.5,-102 959.5,-108 953.5,-108"/>
<text text-anchor="middle" x="938.5" y="-86.3" font-family="Times,serif" font-size="14.00">Name</text>
</g>
<!-- ast.Subscript object at 0x78c1a4aaf3d0&#45;&gt;ast.Name object at 0x78c1a4aafb50 -->
<g id="edge41" class="edge">
<title>ast.Subscript object at 0x78c1a4aaf3d0&#45;&gt;ast.Name object at 0x78c1a4aafb50</title>
<path fill="none" stroke="black" d="M921.19,-143.7C923.75,-135.9 926.83,-126.51 929.68,-117.83"/>
<polygon fill="black" stroke="black" points="933.08,-118.7 932.88,-108.1 926.43,-116.51 933.08,-118.7"/>
</g>
<!-- ast.Name object at 0x78c1a4aaf2d0&#45;&gt;ast.Load object at 0x78c1a51add10 -->
<g id="edge40" class="edge">
<title>ast.Name object at 0x78c1a4aaf2d0&#45;&gt;ast.Load object at 0x78c1a51add10</title>
<path fill="none" stroke="black" d="M845.98,-71.7C835.63,-62.97 822.91,-52.24 811.66,-42.75"/>
<polygon fill="black" stroke="black" points="813.68,-39.88 803.78,-36.1 809.17,-45.23 813.68,-39.88"/>
</g>
<!-- ast.Name object at 0x78c1a4aafb50&#45;&gt;ast.Load object at 0x78c1a51add10 -->
<g id="edge42" class="edge">
<title>ast.Name object at 0x78c1a4aafb50&#45;&gt;ast.Load object at 0x78c1a51add10</title>
<path fill="none" stroke="black" d="M911.4,-76.13C908.4,-74.72 905.39,-73.33 902.5,-72 874.86,-59.32 843.42,-45.34 819.8,-34.92"/>
<polygon fill="black" stroke="black" points="821.08,-31.66 810.52,-30.83 818.26,-38.06 821.08,-31.66"/>
</g>
<!-- ast.Call object at 0x78c1a4aaf710 -->
<g id="node36" class="node">
<title>ast.Call object at 0x78c1a4aaf710</title>
<path fill="#66cdaa" stroke="black" d="M789.5,-180C789.5,-180 759.5,-180 759.5,-180 753.5,-180 747.5,-174 747.5,-168 747.5,-168 747.5,-156 747.5,-156 747.5,-150 753.5,-144 759.5,-144 759.5,-144 789.5,-144 789.5,-144 795.5,-144 801.5,-150 801.5,-156 801.5,-156 801.5,-168 801.5,-168 801.5,-174 795.5,-180 789.5,-180"/>
<text text-anchor="middle" x="774.5" y="-158.3" font-family="Times,serif" font-size="14.00">Call</text>
</g>
<!-- ast.If object at 0x78c1a4aafa90&#45;&gt;ast.Call object at 0x78c1a4aaf710 -->
<g id="edge45" class="edge">
<title>ast.If object at 0x78c1a4aafa90&#45;&gt;ast.Call object at 0x78c1a4aaf710</title>
<path fill="none" stroke="black" d="M608.16,-359.74C609.58,-340.87 613.99,-310.36 627.5,-288 654.94,-242.6 704.67,-205.54 738.63,-183.87"/>
<polygon fill="black" stroke="black" points="740.7,-186.7 747.32,-178.43 736.99,-180.77 740.7,-186.7"/>
</g>
<!-- ast.Expr object at 0x78c1a4aafd90 -->
<g id="node39" class="node">
<title>ast.Expr object at 0x78c1a4aafd90</title>
<path fill="#66cdaa" stroke="black" d="M567.5,-324C567.5,-324 537.5,-324 537.5,-324 531.5,-324 525.5,-318 525.5,-312 525.5,-312 525.5,-300 525.5,-300 525.5,-294 531.5,-288 537.5,-288 537.5,-288 567.5,-288 567.5,-288 573.5,-288 579.5,-294 579.5,-300 579.5,-300 579.5,-312 579.5,-312 579.5,-318 573.5,-324 567.5,-324"/>
<text text-anchor="middle" x="552.5" y="-302.3" font-family="Times,serif" font-size="14.00">Expr</text>
</g>
<!-- ast.If object at 0x78c1a4aafa90&#45;&gt;ast.Expr object at 0x78c1a4aafd90 -->
<g id="edge50" class="edge">
<title>ast.If object at 0x78c1a4aafa90&#45;&gt;ast.Expr object at 0x78c1a4aafd90</title>
<path fill="none" stroke="black" d="M593.9,-359.7C587.38,-351.39 579.43,-341.28 572.25,-332.14"/>
<polygon fill="black" stroke="black" points="574.87,-329.81 565.94,-324.1 569.37,-334.13 574.87,-329.81"/>
</g>
<!-- ast.Name object at 0x78c1a4aaf7d0 -->
<g id="node37" class="node">
<title>ast.Name object at 0x78c1a4aaf7d0</title>
<path fill="#66cdaa" stroke="black" d="M771.5,-108C771.5,-108 741.5,-108 741.5,-108 735.5,-108 729.5,-102 729.5,-96 729.5,-96 729.5,-84 729.5,-84 729.5,-78 735.5,-72 741.5,-72 741.5,-72 771.5,-72 771.5,-72 777.5,-72 783.5,-78 783.5,-84 783.5,-84 783.5,-96 783.5,-96 783.5,-102 777.5,-108 771.5,-108"/>
<text text-anchor="middle" x="756.5" y="-86.3" font-family="Times,serif" font-size="14.00">Name</text>
</g>
<!-- ast.Call object at 0x78c1a4aaf710&#45;&gt;ast.Name object at 0x78c1a4aaf7d0 -->
<g id="edge46" class="edge">
<title>ast.Call object at 0x78c1a4aaf710&#45;&gt;ast.Name object at 0x78c1a4aaf7d0</title>
<path fill="none" stroke="black" d="M770.05,-143.7C768.05,-135.9 765.63,-126.51 763.4,-117.83"/>
<polygon fill="black" stroke="black" points="766.78,-116.92 760.9,-108.1 760,-118.66 766.78,-116.92"/>
</g>
<!-- ast.Name object at 0x78c1a4aaf650 -->
<g id="node38" class="node">
<title>ast.Name object at 0x78c1a4aaf650</title>
<path fill="#66cdaa" stroke="black" d="M699.5,-108C699.5,-108 669.5,-108 669.5,-108 663.5,-108 657.5,-102 657.5,-96 657.5,-96 657.5,-84 657.5,-84 657.5,-78 663.5,-72 669.5,-72 669.5,-72 699.5,-72 699.5,-72 705.5,-72 711.5,-78 711.5,-84 711.5,-84 711.5,-96 711.5,-96 711.5,-102 705.5,-108 699.5,-108"/>
<text text-anchor="middle" x="684.5" y="-86.3" font-family="Times,serif" font-size="14.00">Name</text>
</g>
<!-- ast.Call object at 0x78c1a4aaf710&#45;&gt;ast.Name object at 0x78c1a4aaf650 -->
<g id="edge48" class="edge">
<title>ast.Call object at 0x78c1a4aaf710&#45;&gt;ast.Name object at 0x78c1a4aaf650</title>
<path fill="none" stroke="black" d="M752.25,-143.7C740.92,-134.88 726.97,-124.03 714.68,-114.47"/>
<polygon fill="black" stroke="black" points="716.53,-111.48 706.49,-108.1 712.24,-117.01 716.53,-111.48"/>
</g>
<!-- ast.Name object at 0x78c1a4aaf7d0&#45;&gt;ast.Load object at 0x78c1a51add10 -->
<g id="edge47" class="edge">
<title>ast.Name object at 0x78c1a4aaf7d0&#45;&gt;ast.Load object at 0x78c1a51add10</title>
<path fill="none" stroke="black" d="M763.17,-71.7C766.21,-63.81 769.88,-54.3 773.26,-45.55"/>
<polygon fill="black" stroke="black" points="776.57,-46.69 776.9,-36.1 770.04,-44.17 776.57,-46.69"/>
</g>
<!-- ast.Name object at 0x78c1a4aaf650&#45;&gt;ast.Load object at 0x78c1a51add10 -->
<g id="edge49" class="edge">
<title>ast.Name object at 0x78c1a4aaf650&#45;&gt;ast.Load object at 0x78c1a51add10</title>
<path fill="none" stroke="black" d="M708.72,-71.88C721.42,-62.89 737.16,-51.76 750.92,-42.03"/>
<polygon fill="black" stroke="black" points="753.04,-44.82 759.19,-36.19 749,-39.11 753.04,-44.82"/>
</g>
<!-- ast.Call object at 0x78c1a4aafcd0 -->
<g id="node40" class="node">
<title>ast.Call object at 0x78c1a4aafcd0</title>
<path fill="#66cdaa" stroke="black" d="M567.5,-252C567.5,-252 537.5,-252 537.5,-252 531.5,-252 525.5,-246 525.5,-240 525.5,-240 525.5,-228 525.5,-228 525.5,-222 531.5,-216 537.5,-216 537.5,-216 567.5,-216 567.5,-216 573.5,-216 579.5,-222 579.5,-228 579.5,-228 579.5,-240 579.5,-240 579.5,-246 573.5,-252 567.5,-252"/>
<text text-anchor="middle" x="552.5" y="-230.3" font-family="Times,serif" font-size="14.00">Call</text>
</g>
<!-- ast.Expr object at 0x78c1a4aafd90&#45;&gt;ast.Call object at 0x78c1a4aafcd0 -->
<g id="edge51" class="edge">
<title>ast.Expr object at 0x78c1a4aafd90&#45;&gt;ast.Call object at 0x78c1a4aafcd0</title>
<path fill="none" stroke="black" d="M552.5,-287.7C552.5,-279.98 552.5,-270.71 552.5,-262.11"/>
<polygon fill="black" stroke="black" points="556,-262.1 552.5,-252.1 549,-262.1 556,-262.1"/>
</g>
<!-- ast.Attribute object at 0x78c1a4aafdd0 -->
<g id="node41" class="node">
<title>ast.Attribute object at 0x78c1a4aafdd0</title>
<path fill="#66cdaa" stroke="black" d="M573,-180C573,-180 532,-180 532,-180 526,-180 520,-174 520,-168 520,-168 520,-156 520,-156 520,-150 526,-144 532,-144 532,-144 573,-144 573,-144 579,-144 585,-150 585,-156 585,-156 585,-168 585,-168 585,-174 579,-180 573,-180"/>
<text text-anchor="middle" x="552.5" y="-158.3" font-family="Times,serif" font-size="14.00">Attribute</text>
</g>
<!-- ast.Call object at 0x78c1a4aafcd0&#45;&gt;ast.Attribute object at 0x78c1a4aafdd0 -->
<g id="edge52" class="edge">
<title>ast.Call object at 0x78c1a4aafcd0&#45;&gt;ast.Attribute object at 0x78c1a4aafdd0</title>
<path fill="none" stroke="black" d="M552.5,-215.7C552.5,-207.98 552.5,-198.71 552.5,-190.11"/>
<polygon fill="black" stroke="black" points="556,-190.1 552.5,-180.1 549,-190.1 556,-190.1"/>
</g>
<!-- ast.Name object at 0x78c1a4aafe90 -->
<g id="node43" class="node">
<title>ast.Name object at 0x78c1a4aafe90</title>
<path fill="#66cdaa" stroke="black" d="M645.5,-180C645.5,-180 615.5,-180 615.5,-180 609.5,-180 603.5,-174 603.5,-168 603.5,-168 603.5,-156 603.5,-156 603.5,-150 609.5,-144 615.5,-144 615.5,-144 645.5,-144 645.5,-144 651.5,-144 657.5,-150 657.5,-156 657.5,-156 657.5,-168 657.5,-168 657.5,-174 651.5,-180 645.5,-180"/>
<text text-anchor="middle" x="630.5" y="-158.3" font-family="Times,serif" font-size="14.00">Name</text>
</g>
<!-- ast.Call object at 0x78c1a4aafcd0&#45;&gt;ast.Name object at 0x78c1a4aafe90 -->
<g id="edge56" class="edge">
<title>ast.Call object at 0x78c1a4aafcd0&#45;&gt;ast.Name object at 0x78c1a4aafe90</title>
<path fill="none" stroke="black" d="M571.78,-215.7C581.42,-207.05 593.23,-196.45 603.73,-187.03"/>
<polygon fill="black" stroke="black" points="606.34,-189.39 611.44,-180.1 601.66,-184.18 606.34,-189.39"/>
</g>
<!-- ast.Attribute object at 0x78c1a4aafdd0&#45;&gt;ast.Load object at 0x78c1a51add10 -->
<g id="edge55" class="edge">
<title>ast.Attribute object at 0x78c1a4aafdd0&#45;&gt;ast.Load object at 0x78c1a51add10</title>
<path fill="none" stroke="black" d="M542.83,-143.93C533.19,-124.39 522,-92.45 538.5,-72 564.14,-40.22 683.82,-26.55 745.91,-21.52"/>
<polygon fill="black" stroke="black" points="746.38,-25 756.08,-20.73 745.84,-18.02 746.38,-25"/>
</g>
<!-- ast.Name object at 0x78c1a4aafe10 -->
<g id="node42" class="node">
<title>ast.Name object at 0x78c1a4aafe10</title>
<path fill="#66cdaa" stroke="black" d="M589.5,-108C589.5,-108 559.5,-108 559.5,-108 553.5,-108 547.5,-102 547.5,-96 547.5,-96 547.5,-84 547.5,-84 547.5,-78 553.5,-72 559.5,-72 559.5,-72 589.5,-72 589.5,-72 595.5,-72 601.5,-78 601.5,-84 601.5,-84 601.5,-96 601.5,-96 601.5,-102 595.5,-108 589.5,-108"/>
<text text-anchor="middle" x="574.5" y="-86.3" font-family="Times,serif" font-size="14.00">Name</text>
</g>
<!-- ast.Attribute object at 0x78c1a4aafdd0&#45;&gt;ast.Name object at 0x78c1a4aafe10 -->
<g id="edge53" class="edge">
<title>ast.Attribute object at 0x78c1a4aafdd0&#45;&gt;ast.Name object at 0x78c1a4aafe10</title>
<path fill="none" stroke="black" d="M557.94,-143.7C560.39,-135.9 563.34,-126.51 566.07,-117.83"/>
<polygon fill="black" stroke="black" points="569.46,-118.69 569.12,-108.1 562.79,-116.59 569.46,-118.69"/>
</g>
<!-- ast.Name object at 0x78c1a4aafe10&#45;&gt;ast.Load object at 0x78c1a51add10 -->
<g id="edge54" class="edge">
<title>ast.Name object at 0x78c1a4aafe10&#45;&gt;ast.Load object at 0x78c1a51add10</title>
<path fill="none" stroke="black" d="M601.72,-77.33C606.29,-75.48 611.01,-73.64 615.5,-72 660.03,-55.78 712.21,-39.77 746.46,-29.67"/>
<polygon fill="black" stroke="black" points="747.88,-32.9 756.49,-26.73 745.91,-26.18 747.88,-32.9"/>
</g>
<!-- ast.Name object at 0x78c1a4aafe90&#45;&gt;ast.Load object at 0x78c1a51add10 -->
<g id="edge57" class="edge">
<title>ast.Name object at 0x78c1a4aafe90&#45;&gt;ast.Load object at 0x78c1a51add10</title>
<path fill="none" stroke="black" d="M629.38,-143.87C629.04,-124.28 631.48,-92.29 648.5,-72 672.93,-42.89 715.48,-29.68 746.29,-23.74"/>
<polygon fill="black" stroke="black" points="747,-27.17 756.25,-22 745.79,-20.28 747,-27.17"/>
</g>
<!-- ast.Call object at 0x78c1a4aac4d0 -->
<g id="node45" class="node">
<title>ast.Call object at 0x78c1a4aac4d0</title>
<path fill="#66cdaa" stroke="black" d="M155.5,-180C155.5,-180 125.5,-180 125.5,-180 119.5,-180 113.5,-174 113.5,-168 113.5,-168 113.5,-156 113.5,-156 113.5,-150 119.5,-144 125.5,-144 125.5,-144 155.5,-144 155.5,-144 161.5,-144 167.5,-150 167.5,-156 167.5,-156 167.5,-168 167.5,-168 167.5,-174 161.5,-180 155.5,-180"/>
<text text-anchor="middle" x="140.5" y="-158.3" font-family="Times,serif" font-size="14.00">Call</text>
</g>
<!-- ast.Return object at 0x78c1a4aafed0&#45;&gt;ast.Call object at 0x78c1a4aac4d0 -->
<g id="edge59" class="edge">
<title>ast.Return object at 0x78c1a4aafed0&#45;&gt;ast.Call object at 0x78c1a4aac4d0</title>
<path fill="none" stroke="black" d="M307.9,-431.97C277.92,-383.8 192.39,-246.37 156.58,-188.83"/>
<polygon fill="black" stroke="black" points="159.53,-186.95 151.27,-180.31 153.58,-190.65 159.53,-186.95"/>
</g>
<!-- ast.Name object at 0x78c1a4aad6d0 -->
<g id="node46" class="node">
<title>ast.Name object at 0x78c1a4aad6d0</title>
<path fill="#66cdaa" stroke="black" d="M196.5,-108C196.5,-108 166.5,-108 166.5,-108 160.5,-108 154.5,-102 154.5,-96 154.5,-96 154.5,-84 154.5,-84 154.5,-78 160.5,-72 166.5,-72 166.5,-72 196.5,-72 196.5,-72 202.5,-72 208.5,-78 208.5,-84 208.5,-84 208.5,-96 208.5,-96 208.5,-102 202.5,-108 196.5,-108"/>
<text text-anchor="middle" x="181.5" y="-86.3" font-family="Times,serif" font-size="14.00">Name</text>
</g>
<!-- ast.Call object at 0x78c1a4aac4d0&#45;&gt;ast.Name object at 0x78c1a4aad6d0 -->
<g id="edge60" class="edge">
<title>ast.Call object at 0x78c1a4aac4d0&#45;&gt;ast.Name object at 0x78c1a4aad6d0</title>
<path fill="none" stroke="black" d="M150.63,-143.7C155.35,-135.64 161.06,-125.89 166.28,-116.98"/>
<polygon fill="black" stroke="black" points="169.45,-118.5 171.48,-108.1 163.41,-114.96 169.45,-118.5"/>
</g>
<!-- ast.Name object at 0x78c1a4aac310 -->
<g id="node47" class="node">
<title>ast.Name object at 0x78c1a4aac310</title>
<path fill="#66cdaa" stroke="black" d="M124.5,-108C124.5,-108 94.5,-108 94.5,-108 88.5,-108 82.5,-102 82.5,-96 82.5,-96 82.5,-84 82.5,-84 82.5,-78 88.5,-72 94.5,-72 94.5,-72 124.5,-72 124.5,-72 130.5,-72 136.5,-78 136.5,-84 136.5,-84 136.5,-96 136.5,-96 136.5,-102 130.5,-108 124.5,-108"/>
<text text-anchor="middle" x="109.5" y="-86.3" font-family="Times,serif" font-size="14.00">Name</text>
</g>
<!-- ast.Call object at 0x78c1a4aac4d0&#45;&gt;ast.Name object at 0x78c1a4aac310 -->
<g id="edge62" class="edge">
<title>ast.Call object at 0x78c1a4aac4d0&#45;&gt;ast.Name object at 0x78c1a4aac310</title>
<path fill="none" stroke="black" d="M132.84,-143.7C129.31,-135.73 125.04,-126.1 121.13,-117.26"/>
<polygon fill="black" stroke="black" points="124.32,-115.83 117.07,-108.1 117.92,-118.67 124.32,-115.83"/>
</g>
<!-- ast.keyword object at 0x78c1a4aac090 -->
<g id="node48" class="node">
<title>ast.keyword object at 0x78c1a4aac090</title>
<path fill="#66cdaa" stroke="black" d="M52.5,-108C52.5,-108 12.5,-108 12.5,-108 6.5,-108 0.5,-102 0.5,-96 0.5,-96 0.5,-84 0.5,-84 0.5,-78 6.5,-72 12.5,-72 12.5,-72 52.5,-72 52.5,-72 58.5,-72 64.5,-78 64.5,-84 64.5,-84 64.5,-96 64.5,-96 64.5,-102 58.5,-108 52.5,-108"/>
<text text-anchor="middle" x="32.5" y="-86.3" font-family="Times,serif" font-size="14.00">keyword</text>
</g>
<!-- ast.Call object at 0x78c1a4aac4d0&#45;&gt;ast.keyword object at 0x78c1a4aac090 -->
<g id="edge64" class="edge">
<title>ast.Call object at 0x78c1a4aac4d0&#45;&gt;ast.keyword object at 0x78c1a4aac090</title>
<path fill="none" stroke="black" d="M114.08,-143.88C100.09,-134.81 82.72,-123.55 67.61,-113.76"/>
<polygon fill="black" stroke="black" points="69.32,-110.69 59.02,-108.19 65.51,-116.57 69.32,-110.69"/>
</g>
<!-- ast.Name object at 0x78c1a4aad6d0&#45;&gt;ast.Load object at 0x78c1a51add10 -->
<g id="edge61" class="edge">
<title>ast.Name object at 0x78c1a4aad6d0&#45;&gt;ast.Load object at 0x78c1a51add10</title>
<path fill="none" stroke="black" d="M208.91,-76.33C213.38,-74.64 218.01,-73.12 222.5,-72 415.42,-24.05 655.54,-18.83 746.38,-18.71"/>
<polygon fill="black" stroke="black" points="746.45,-22.21 756.45,-18.72 746.45,-15.21 746.45,-22.21"/>
</g>
<!-- ast.Name object at 0x78c1a4aac310&#45;&gt;ast.Load object at 0x78c1a51add10 -->
<g id="edge63" class="edge">
<title>ast.Name object at 0x78c1a4aac310&#45;&gt;ast.Load object at 0x78c1a51add10</title>
<path fill="none" stroke="black" d="M136.63,-74.95C139.57,-73.81 142.56,-72.79 145.5,-72 260.13,-41.26 627.49,-24.92 746.15,-20.35"/>
<polygon fill="black" stroke="black" points="746.34,-23.85 756.2,-19.97 746.08,-16.85 746.34,-23.85"/>
</g>
<!-- ast.Constant object at 0x78c1a4aac0d0 -->
<g id="node49" class="node">
<title>ast.Constant object at 0x78c1a4aac0d0</title>
<path fill="#66cdaa" stroke="black" d="M53,-36C53,-36 12,-36 12,-36 6,-36 0,-30 0,-24 0,-24 0,-12 0,-12 0,-6 6,0 12,0 12,0 53,0 53,0 59,0 65,-6 65,-12 65,-12 65,-24 65,-24 65,-30 59,-36 53,-36"/>
<text text-anchor="middle" x="32.5" y="-14.3" font-family="Times,serif" font-size="14.00">Constant</text>
</g>
<!-- ast.keyword object at 0x78c1a4aac090&#45;&gt;ast.Constant object at 0x78c1a4aac0d0 -->
<g id="edge65" class="edge">
<title>ast.keyword object at 0x78c1a4aac090&#45;&gt;ast.Constant object at 0x78c1a4aac0d0</title>
<path fill="none" stroke="black" d="M32.5,-71.7C32.5,-63.98 32.5,-54.71 32.5,-46.11"/>
<polygon fill="black" stroke="black" points="36,-46.1 32.5,-36.1 29,-46.1 36,-46.1"/>
</g>
<!-- ast.arguments object at 0x78c1a4aac350 -->
<g id="node51" class="node">
<title>ast.arguments object at 0x78c1a4aac350</title>
<path fill="#66cdaa" stroke="black" d="M1564.5,-468C1564.5,-468 1514.5,-468 1514.5,-468 1508.5,-468 1502.5,-462 1502.5,-456 1502.5,-456 1502.5,-444 1502.5,-444 1502.5,-438 1508.5,-432 1514.5,-432 1514.5,-432 1564.5,-432 1564.5,-432 1570.5,-432 1576.5,-438 1576.5,-444 1576.5,-444 1576.5,-456 1576.5,-456 1576.5,-462 1570.5,-468 1564.5,-468"/>
<text text-anchor="middle" x="1539.5" y="-446.3" font-family="Times,serif" font-size="14.00">arguments</text>
</g>
<!-- ast.FunctionDef object at 0x78c1a4aac2d0&#45;&gt;ast.arguments object at 0x78c1a4aac350 -->
<g id="edge67" class="edge">
<title>ast.FunctionDef object at 0x78c1a4aac2d0&#45;&gt;ast.arguments object at 0x78c1a4aac350</title>
<path fill="none" stroke="black" d="M1477.77,-503.7C1488,-494.97 1500.56,-484.24 1511.68,-474.75"/>
<polygon fill="black" stroke="black" points="1514.13,-477.26 1519.46,-468.1 1509.59,-471.94 1514.13,-477.26"/>
</g>
<!-- ast.If object at 0x78c1a4a33590 -->
<g id="node53" class="node">
<title>ast.If object at 0x78c1a4a33590</title>
<path fill="#66cdaa" stroke="black" d="M1685.5,-324C1685.5,-324 1655.5,-324 1655.5,-324 1649.5,-324 1643.5,-318 1643.5,-312 1643.5,-312 1643.5,-300 1643.5,-300 1643.5,-294 1649.5,-288 1655.5,-288 1655.5,-288 1685.5,-288 1685.5,-288 1691.5,-288 1697.5,-294 1697.5,-300 1697.5,-300 1697.5,-312 1697.5,-312 1697.5,-318 1691.5,-324 1685.5,-324"/>
<text text-anchor="middle" x="1670.5" y="-302.3" font-family="Times,serif" font-size="14.00">If</text>
</g>
<!-- ast.FunctionDef object at 0x78c1a4aac2d0&#45;&gt;ast.If object at 0x78c1a4a33590 -->
<g id="edge69" class="edge">
<title>ast.FunctionDef object at 0x78c1a4aac2d0&#45;&gt;ast.If object at 0x78c1a4a33590</title>
<path fill="none" stroke="black" d="M1500.17,-511.33C1527.21,-503.41 1561.5,-489.87 1585.5,-468 1626.33,-430.8 1651.03,-369.37 1662.59,-334.12"/>
<polygon fill="black" stroke="black" points="1665.95,-335.08 1665.63,-324.49 1659.28,-332.97 1665.95,-335.08"/>
</g>
<!-- ast.For object at 0x78c1a4a33250 -->
<g id="node59" class="node">
<title>ast.For object at 0x78c1a4a33250</title>
<path fill="#66cdaa" stroke="black" d="M1360.5,-468C1360.5,-468 1330.5,-468 1330.5,-468 1324.5,-468 1318.5,-462 1318.5,-456 1318.5,-456 1318.5,-444 1318.5,-444 1318.5,-438 1324.5,-432 1330.5,-432 1330.5,-432 1360.5,-432 1360.5,-432 1366.5,-432 1372.5,-438 1372.5,-444 1372.5,-444 1372.5,-456 1372.5,-456 1372.5,-462 1366.5,-468 1360.5,-468"/>
<text text-anchor="middle" x="1345.5" y="-446.3" font-family="Times,serif" font-size="14.00">For</text>
</g>
<!-- ast.FunctionDef object at 0x78c1a4aac2d0&#45;&gt;ast.For object at 0x78c1a4a33250 -->
<g id="edge77" class="edge">
<title>ast.FunctionDef object at 0x78c1a4aac2d0&#45;&gt;ast.For object at 0x78c1a4a33250</title>
<path fill="none" stroke="black" d="M1430.1,-503.88C1415.35,-494.66 1396.97,-483.17 1381.12,-473.26"/>
<polygon fill="black" stroke="black" points="1382.95,-470.28 1372.62,-467.95 1379.24,-476.22 1382.95,-470.28"/>
</g>
<!-- ast.Return object at 0x78c1a4a318d0 -->
<g id="node83" class="node">
<title>ast.Return object at 0x78c1a4a318d0</title>
<path fill="#66cdaa" stroke="black" d="M1472.5,-468C1472.5,-468 1442.5,-468 1442.5,-468 1436.5,-468 1430.5,-462 1430.5,-456 1430.5,-456 1430.5,-444 1430.5,-444 1430.5,-438 1436.5,-432 1442.5,-432 1442.5,-432 1472.5,-432 1472.5,-432 1478.5,-432 1484.5,-438 1484.5,-444 1484.5,-444 1484.5,-456 1484.5,-456 1484.5,-462 1478.5,-468 1472.5,-468"/>
<text text-anchor="middle" x="1457.5" y="-446.3" font-family="Times,serif" font-size="14.00">Return</text>
</g>
<!-- ast.FunctionDef object at 0x78c1a4aac2d0&#45;&gt;ast.Return object at 0x78c1a4a318d0 -->
<g id="edge107" class="edge">
<title>ast.FunctionDef object at 0x78c1a4aac2d0&#45;&gt;ast.Return object at 0x78c1a4a318d0</title>
<path fill="none" stroke="black" d="M1457.5,-503.7C1457.5,-495.98 1457.5,-486.71 1457.5,-478.11"/>
<polygon fill="black" stroke="black" points="1461,-478.1 1457.5,-468.1 1454,-478.1 1461,-478.1"/>
</g>
<!-- ast.arg object at 0x78c1a4c7bc50 -->
<g id="node52" class="node">
<title>ast.arg object at 0x78c1a4c7bc50</title>
<path fill="#66cdaa" stroke="black" d="M1554.5,-396C1554.5,-396 1524.5,-396 1524.5,-396 1518.5,-396 1512.5,-390 1512.5,-384 1512.5,-384 1512.5,-372 1512.5,-372 1512.5,-366 1518.5,-360 1524.5,-360 1524.5,-360 1554.5,-360 1554.5,-360 1560.5,-360 1566.5,-366 1566.5,-372 1566.5,-372 1566.5,-384 1566.5,-384 1566.5,-390 1560.5,-396 1554.5,-396"/>
<text text-anchor="middle" x="1539.5" y="-374.3" font-family="Times,serif" font-size="14.00">arg</text>
</g>
<!-- ast.arguments object at 0x78c1a4aac350&#45;&gt;ast.arg object at 0x78c1a4c7bc50 -->
<g id="edge68" class="edge">
<title>ast.arguments object at 0x78c1a4aac350&#45;&gt;ast.arg object at 0x78c1a4c7bc50</title>
<path fill="none" stroke="black" d="M1539.5,-431.7C1539.5,-423.98 1539.5,-414.71 1539.5,-406.11"/>
<polygon fill="black" stroke="black" points="1543,-406.1 1539.5,-396.1 1536,-406.1 1543,-406.1"/>
</g>
<!-- ast.Compare object at 0x78c1a4a30450 -->
<g id="node54" class="node">
<title>ast.Compare object at 0x78c1a4a30450</title>
<path fill="#66cdaa" stroke="black" d="M1692,-252C1692,-252 1649,-252 1649,-252 1643,-252 1637,-246 1637,-240 1637,-240 1637,-228 1637,-228 1637,-222 1643,-216 1649,-216 1649,-216 1692,-216 1692,-216 1698,-216 1704,-222 1704,-228 1704,-228 1704,-240 1704,-240 1704,-246 1698,-252 1692,-252"/>
<text text-anchor="middle" x="1670.5" y="-230.3" font-family="Times,serif" font-size="14.00">Compare</text>
</g>
<!-- ast.If object at 0x78c1a4a33590&#45;&gt;ast.Compare object at 0x78c1a4a30450 -->
<g id="edge70" class="edge">
<title>ast.If object at 0x78c1a4a33590&#45;&gt;ast.Compare object at 0x78c1a4a30450</title>
<path fill="none" stroke="black" d="M1670.5,-287.7C1670.5,-279.98 1670.5,-270.71 1670.5,-262.11"/>
<polygon fill="black" stroke="black" points="1674,-262.1 1670.5,-252.1 1667,-262.1 1674,-262.1"/>
</g>
<!-- ast.Return object at 0x78c1a4a33910 -->
<g id="node57" class="node">
<title>ast.Return object at 0x78c1a4a33910</title>
<path fill="#66cdaa" stroke="black" d="M1766.5,-252C1766.5,-252 1736.5,-252 1736.5,-252 1730.5,-252 1724.5,-246 1724.5,-240 1724.5,-240 1724.5,-228 1724.5,-228 1724.5,-222 1730.5,-216 1736.5,-216 1736.5,-216 1766.5,-216 1766.5,-216 1772.5,-216 1778.5,-222 1778.5,-228 1778.5,-228 1778.5,-240 1778.5,-240 1778.5,-246 1772.5,-252 1766.5,-252"/>
<text text-anchor="middle" x="1751.5" y="-230.3" font-family="Times,serif" font-size="14.00">Return</text>
</g>
<!-- ast.If object at 0x78c1a4a33590&#45;&gt;ast.Return object at 0x78c1a4a33910 -->
<g id="edge75" class="edge">
<title>ast.If object at 0x78c1a4a33590&#45;&gt;ast.Return object at 0x78c1a4a33910</title>
<path fill="none" stroke="black" d="M1690.52,-287.7C1700.63,-278.97 1713.04,-268.24 1724.02,-258.75"/>
<polygon fill="black" stroke="black" points="1726.43,-261.29 1731.71,-252.1 1721.85,-255.99 1726.43,-261.29"/>
</g>
<!-- ast.Compare object at 0x78c1a4a30450&#45;&gt;ast.Lt object at 0x78c1a51aee10 -->
<g id="edge73" class="edge">
<title>ast.Compare object at 0x78c1a4a30450&#45;&gt;ast.Lt object at 0x78c1a51aee10</title>
<path fill="none" stroke="black" d="M1636.89,-218.24C1634.09,-217.36 1631.27,-216.6 1628.5,-216 1244.74,-133.19 1124.94,-272.07 739.34,-179.55"/>
<polygon fill="black" stroke="black" points="740.14,-176.14 729.6,-177.17 738.49,-182.94 740.14,-176.14"/>
</g>
<!-- ast.Name object at 0x78c1a4a32bd0 -->
<g id="node55" class="node">
<title>ast.Name object at 0x78c1a4a32bd0</title>
<path fill="#66cdaa" stroke="black" d="M1673.5,-108C1673.5,-108 1643.5,-108 1643.5,-108 1637.5,-108 1631.5,-102 1631.5,-96 1631.5,-96 1631.5,-84 1631.5,-84 1631.5,-78 1637.5,-72 1643.5,-72 1643.5,-72 1673.5,-72 1673.5,-72 1679.5,-72 1685.5,-78 1685.5,-84 1685.5,-84 1685.5,-96 1685.5,-96 1685.5,-102 1679.5,-108 1673.5,-108"/>
<text text-anchor="middle" x="1658.5" y="-86.3" font-family="Times,serif" font-size="14.00">Name</text>
</g>
<!-- ast.Compare object at 0x78c1a4a30450&#45;&gt;ast.Name object at 0x78c1a4a32bd0 -->
<g id="edge71" class="edge">
<title>ast.Compare object at 0x78c1a4a30450&#45;&gt;ast.Name object at 0x78c1a4a32bd0</title>
<path fill="none" stroke="black" d="M1663.43,-215.67C1659.66,-205.47 1655.41,-192.22 1653.5,-180 1650.29,-159.49 1651.82,-136.03 1654,-118.35"/>
<polygon fill="black" stroke="black" points="1657.5,-118.55 1655.41,-108.17 1650.57,-117.6 1657.5,-118.55"/>
</g>
<!-- ast.Constant object at 0x78c1a4a31190 -->
<g id="node56" class="node">
<title>ast.Constant object at 0x78c1a4a31190</title>
<path fill="#66cdaa" stroke="black" d="M1715,-180C1715,-180 1674,-180 1674,-180 1668,-180 1662,-174 1662,-168 1662,-168 1662,-156 1662,-156 1662,-150 1668,-144 1674,-144 1674,-144 1715,-144 1715,-144 1721,-144 1727,-150 1727,-156 1727,-156 1727,-168 1727,-168 1727,-174 1721,-180 1715,-180"/>
<text text-anchor="middle" x="1694.5" y="-158.3" font-family="Times,serif" font-size="14.00">Constant</text>
</g>
<!-- ast.Compare object at 0x78c1a4a30450&#45;&gt;ast.Constant object at 0x78c1a4a31190 -->
<g id="edge74" class="edge">
<title>ast.Compare object at 0x78c1a4a30450&#45;&gt;ast.Constant object at 0x78c1a4a31190</title>
<path fill="none" stroke="black" d="M1676.43,-215.7C1679.11,-207.9 1682.33,-198.51 1685.3,-189.83"/>
<polygon fill="black" stroke="black" points="1688.7,-190.7 1688.64,-180.1 1682.08,-188.43 1688.7,-190.7"/>
</g>
<!-- ast.Name object at 0x78c1a4a32bd0&#45;&gt;ast.Load object at 0x78c1a51add10 -->
<g id="edge72" class="edge">
<title>ast.Name object at 0x78c1a4a32bd0&#45;&gt;ast.Load object at 0x78c1a51add10</title>
<path fill="none" stroke="black" d="M1631.38,-74.89C1628.44,-73.76 1625.45,-72.76 1622.5,-72 1467.71,-32.12 963.56,-21.68 821.23,-19.5"/>
<polygon fill="black" stroke="black" points="820.9,-16 810.85,-19.35 820.8,-23 820.9,-16"/>
</g>
<!-- ast.Constant object at 0x78c1a4a31d90 -->
<g id="node58" class="node">
<title>ast.Constant object at 0x78c1a4a31d90</title>
<path fill="#66cdaa" stroke="black" d="M1798,-180C1798,-180 1757,-180 1757,-180 1751,-180 1745,-174 1745,-168 1745,-168 1745,-156 1745,-156 1745,-150 1751,-144 1757,-144 1757,-144 1798,-144 1798,-144 1804,-144 1810,-150 1810,-156 1810,-156 1810,-168 1810,-168 1810,-174 1804,-180 1798,-180"/>
<text text-anchor="middle" x="1777.5" y="-158.3" font-family="Times,serif" font-size="14.00">Constant</text>
</g>
<!-- ast.Return object at 0x78c1a4a33910&#45;&gt;ast.Constant object at 0x78c1a4a31d90 -->
<g id="edge76" class="edge">
<title>ast.Return object at 0x78c1a4a33910&#45;&gt;ast.Constant object at 0x78c1a4a31d90</title>
<path fill="none" stroke="black" d="M1757.93,-215.7C1760.86,-207.81 1764.39,-198.3 1767.64,-189.55"/>
<polygon fill="black" stroke="black" points="1770.95,-190.7 1771.15,-180.1 1764.38,-188.26 1770.95,-190.7"/>
</g>
<!-- ast.Name object at 0x78c1a4a31210 -->
<g id="node60" class="node">
<title>ast.Name object at 0x78c1a4a31210</title>
<path fill="#66cdaa" stroke="black" d="M1242.5,-396C1242.5,-396 1212.5,-396 1212.5,-396 1206.5,-396 1200.5,-390 1200.5,-384 1200.5,-384 1200.5,-372 1200.5,-372 1200.5,-366 1206.5,-360 1212.5,-360 1212.5,-360 1242.5,-360 1242.5,-360 1248.5,-360 1254.5,-366 1254.5,-372 1254.5,-372 1254.5,-384 1254.5,-384 1254.5,-390 1248.5,-396 1242.5,-396"/>
<text text-anchor="middle" x="1227.5" y="-374.3" font-family="Times,serif" font-size="14.00">Name</text>
</g>
<!-- ast.For object at 0x78c1a4a33250&#45;&gt;ast.Name object at 0x78c1a4a31210 -->
<g id="edge78" class="edge">
<title>ast.For object at 0x78c1a4a33250&#45;&gt;ast.Name object at 0x78c1a4a31210</title>
<path fill="none" stroke="black" d="M1318.43,-432.94C1302.2,-423.32 1281.37,-410.96 1263.74,-400.5"/>
<polygon fill="black" stroke="black" points="1265.24,-397.32 1254.85,-395.23 1261.67,-403.34 1265.24,-397.32"/>
</g>
<!-- ast.Call object at 0x78c1a4a33c90 -->
<g id="node61" class="node">
<title>ast.Call object at 0x78c1a4a33c90</title>
<path fill="#66cdaa" stroke="black" d="M1396.5,-396C1396.5,-396 1366.5,-396 1366.5,-396 1360.5,-396 1354.5,-390 1354.5,-384 1354.5,-384 1354.5,-372 1354.5,-372 1354.5,-366 1360.5,-360 1366.5,-360 1366.5,-360 1396.5,-360 1396.5,-360 1402.5,-360 1408.5,-366 1408.5,-372 1408.5,-372 1408.5,-384 1408.5,-384 1408.5,-390 1402.5,-396 1396.5,-396"/>
<text text-anchor="middle" x="1381.5" y="-374.3" font-family="Times,serif" font-size="14.00">Call</text>
</g>
<!-- ast.For object at 0x78c1a4a33250&#45;&gt;ast.Call object at 0x78c1a4a33c90 -->
<g id="edge80" class="edge">
<title>ast.For object at 0x78c1a4a33250&#45;&gt;ast.Call object at 0x78c1a4a33c90</title>
<path fill="none" stroke="black" d="M1354.4,-431.7C1358.5,-423.73 1363.45,-414.1 1367.99,-405.26"/>
<polygon fill="black" stroke="black" points="1371.24,-406.6 1372.7,-396.1 1365.02,-403.4 1371.24,-406.6"/>
</g>
<!-- ast.If object at 0x78c1a4a313d0 -->
<g id="node73" class="node">
<title>ast.If object at 0x78c1a4a313d0</title>
<path fill="#66cdaa" stroke="black" d="M1324.5,-324C1324.5,-324 1294.5,-324 1294.5,-324 1288.5,-324 1282.5,-318 1282.5,-312 1282.5,-312 1282.5,-300 1282.5,-300 1282.5,-294 1288.5,-288 1294.5,-288 1294.5,-288 1324.5,-288 1324.5,-288 1330.5,-288 1336.5,-294 1336.5,-300 1336.5,-300 1336.5,-312 1336.5,-312 1336.5,-318 1330.5,-324 1324.5,-324"/>
<text text-anchor="middle" x="1309.5" y="-302.3" font-family="Times,serif" font-size="14.00">If</text>
</g>
<!-- ast.For object at 0x78c1a4a33250&#45;&gt;ast.If object at 0x78c1a4a313d0 -->
<g id="edge95" class="edge">
<title>ast.For object at 0x78c1a4a33250&#45;&gt;ast.If object at 0x78c1a4a313d0</title>
<path fill="none" stroke="black" d="M1341.16,-431.87C1335,-407.56 1323.65,-362.82 1316.35,-334.01"/>
<polygon fill="black" stroke="black" points="1319.71,-333.02 1313.86,-324.19 1312.92,-334.74 1319.71,-333.02"/>
</g>
<!-- ast.Name object at 0x78c1a4a31210&#45;&gt;ast.Store object at 0x78c1a51add90 -->
<g id="edge79" class="edge">
<title>ast.Name object at 0x78c1a4a31210&#45;&gt;ast.Store object at 0x78c1a51add90</title>
<path fill="none" stroke="black" d="M1200.23,-365.7C1178.51,-356.11 1147.83,-341.18 1123.5,-324 1104.5,-310.58 1104.63,-301.24 1085.5,-288 1072.94,-279.31 1039.57,-263.43 1013.04,-251.31"/>
<polygon fill="black" stroke="black" points="1014.17,-247.98 1003.62,-247.04 1011.28,-254.36 1014.17,-247.98"/>
</g>
<!-- ast.Name object at 0x78c1a4a31510 -->
<g id="node62" class="node">
<title>ast.Name object at 0x78c1a4a31510</title>
<path fill="#66cdaa" stroke="black" d="M1396.5,-324C1396.5,-324 1366.5,-324 1366.5,-324 1360.5,-324 1354.5,-318 1354.5,-312 1354.5,-312 1354.5,-300 1354.5,-300 1354.5,-294 1360.5,-288 1366.5,-288 1366.5,-288 1396.5,-288 1396.5,-288 1402.5,-288 1408.5,-294 1408.5,-300 1408.5,-300 1408.5,-312 1408.5,-312 1408.5,-318 1402.5,-324 1396.5,-324"/>
<text text-anchor="middle" x="1381.5" y="-302.3" font-family="Times,serif" font-size="14.00">Name</text>
</g>
<!-- ast.Call object at 0x78c1a4a33c90&#45;&gt;ast.Name object at 0x78c1a4a31510 -->
<g id="edge81" class="edge">
<title>ast.Call object at 0x78c1a4a33c90&#45;&gt;ast.Name object at 0x78c1a4a31510</title>
<path fill="none" stroke="black" d="M1381.5,-359.7C1381.5,-351.98 1381.5,-342.71 1381.5,-334.11"/>
<polygon fill="black" stroke="black" points="1385,-334.1 1381.5,-324.1 1378,-334.1 1385,-334.1"/>
</g>
<!-- ast.Constant object at 0x78c1a4a31610 -->
<g id="node63" class="node">
<title>ast.Constant object at 0x78c1a4a31610</title>
<path fill="#66cdaa" stroke="black" d="M1552,-324C1552,-324 1511,-324 1511,-324 1505,-324 1499,-318 1499,-312 1499,-312 1499,-300 1499,-300 1499,-294 1505,-288 1511,-288 1511,-288 1552,-288 1552,-288 1558,-288 1564,-294 1564,-300 1564,-300 1564,-312 1564,-312 1564,-318 1558,-324 1552,-324"/>
<text text-anchor="middle" x="1531.5" y="-302.3" font-family="Times,serif" font-size="14.00">Constant</text>
</g>
<!-- ast.Call object at 0x78c1a4a33c90&#45;&gt;ast.Constant object at 0x78c1a4a31610 -->
<g id="edge83" class="edge">
<title>ast.Call object at 0x78c1a4a33c90&#45;&gt;ast.Constant object at 0x78c1a4a31610</title>
<path fill="none" stroke="black" d="M1408.66,-364.32C1431.22,-353.8 1463.69,-338.65 1489.58,-326.56"/>
<polygon fill="black" stroke="black" points="1491.21,-329.67 1498.79,-322.27 1488.25,-323.32 1491.21,-329.67"/>
</g>
<!-- ast.BinOp object at 0x78c1a4a31750 -->
<g id="node64" class="node">
<title>ast.BinOp object at 0x78c1a4a31750</title>
<path fill="#66cdaa" stroke="black" d="M1468.5,-324C1468.5,-324 1438.5,-324 1438.5,-324 1432.5,-324 1426.5,-318 1426.5,-312 1426.5,-312 1426.5,-300 1426.5,-300 1426.5,-294 1432.5,-288 1438.5,-288 1438.5,-288 1468.5,-288 1468.5,-288 1474.5,-288 1480.5,-294 1480.5,-300 1480.5,-300 1480.5,-312 1480.5,-312 1480.5,-318 1474.5,-324 1468.5,-324"/>
<text text-anchor="middle" x="1453.5" y="-302.3" font-family="Times,serif" font-size="14.00">BinOp</text>
</g>
<!-- ast.Call object at 0x78c1a4a33c90&#45;&gt;ast.BinOp object at 0x78c1a4a31750 -->
<g id="edge84" class="edge">
<title>ast.Call object at 0x78c1a4a33c90&#45;&gt;ast.BinOp object at 0x78c1a4a31750</title>
<path fill="none" stroke="black" d="M1399.3,-359.7C1408.1,-351.14 1418.88,-340.66 1428.5,-331.3"/>
<polygon fill="black" stroke="black" points="1431.18,-333.58 1435.91,-324.1 1426.3,-328.57 1431.18,-333.58"/>
</g>
<!-- ast.Name object at 0x78c1a4a31510&#45;&gt;ast.Load object at 0x78c1a51add10 -->
<g id="edge82" class="edge">
<title>ast.Name object at 0x78c1a4a31510&#45;&gt;ast.Load object at 0x78c1a51add10</title>
<path fill="none" stroke="black" d="M1383.68,-287.66C1386.72,-256.58 1389.18,-190.34 1362.5,-144 1335.89,-97.78 1316.1,-91.6 1266.5,-72 1185.22,-39.88 919.11,-25.03 820.6,-20.54"/>
<polygon fill="black" stroke="black" points="820.66,-17.04 810.52,-20.09 820.35,-24.03 820.66,-17.04"/>
</g>
<!-- ast.Call object at 0x78c1a4a319d0 -->
<g id="node65" class="node">
<title>ast.Call object at 0x78c1a4a319d0</title>
<path fill="#66cdaa" stroke="black" d="M1451.5,-252C1451.5,-252 1421.5,-252 1421.5,-252 1415.5,-252 1409.5,-246 1409.5,-240 1409.5,-240 1409.5,-228 1409.5,-228 1409.5,-222 1415.5,-216 1421.5,-216 1421.5,-216 1451.5,-216 1451.5,-216 1457.5,-216 1463.5,-222 1463.5,-228 1463.5,-228 1463.5,-240 1463.5,-240 1463.5,-246 1457.5,-252 1451.5,-252"/>
<text text-anchor="middle" x="1436.5" y="-230.3" font-family="Times,serif" font-size="14.00">Call</text>
</g>
<!-- ast.BinOp object at 0x78c1a4a31750&#45;&gt;ast.Call object at 0x78c1a4a319d0 -->
<g id="edge85" class="edge">
<title>ast.BinOp object at 0x78c1a4a31750&#45;&gt;ast.Call object at 0x78c1a4a319d0</title>
<path fill="none" stroke="black" d="M1449.3,-287.7C1447.4,-279.9 1445.12,-270.51 1443.02,-261.83"/>
<polygon fill="black" stroke="black" points="1446.42,-261 1440.65,-252.1 1439.61,-262.65 1446.42,-261"/>
</g>
<!-- ast.Add object at 0x78c1a51ae210 -->
<g id="node71" class="node">
<title>ast.Add object at 0x78c1a51ae210</title>
<path fill="#66cdaa" stroke="black" d="M1523.5,-252C1523.5,-252 1493.5,-252 1493.5,-252 1487.5,-252 1481.5,-246 1481.5,-240 1481.5,-240 1481.5,-228 1481.5,-228 1481.5,-222 1487.5,-216 1493.5,-216 1493.5,-216 1523.5,-216 1523.5,-216 1529.5,-216 1535.5,-222 1535.5,-228 1535.5,-228 1535.5,-240 1535.5,-240 1535.5,-246 1529.5,-252 1523.5,-252"/>
<text text-anchor="middle" x="1508.5" y="-230.3" font-family="Times,serif" font-size="14.00">Add</text>
</g>
<!-- ast.BinOp object at 0x78c1a4a31750&#45;&gt;ast.Add object at 0x78c1a51ae210 -->
<g id="edge93" class="edge">
<title>ast.BinOp object at 0x78c1a4a31750&#45;&gt;ast.Add object at 0x78c1a51ae210</title>
<path fill="none" stroke="black" d="M1467.1,-287.7C1473.62,-279.39 1481.57,-269.28 1488.75,-260.14"/>
<polygon fill="black" stroke="black" points="1491.63,-262.13 1495.06,-252.1 1486.13,-257.81 1491.63,-262.13"/>
</g>
<!-- ast.Constant object at 0x78c1a4a31650 -->
<g id="node72" class="node">
<title>ast.Constant object at 0x78c1a4a31650</title>
<path fill="#66cdaa" stroke="black" d="M1607,-252C1607,-252 1566,-252 1566,-252 1560,-252 1554,-246 1554,-240 1554,-240 1554,-228 1554,-228 1554,-222 1560,-216 1566,-216 1566,-216 1607,-216 1607,-216 1613,-216 1619,-222 1619,-228 1619,-228 1619,-240 1619,-240 1619,-246 1613,-252 1607,-252"/>
<text text-anchor="middle" x="1586.5" y="-230.3" font-family="Times,serif" font-size="14.00">Constant</text>
</g>
<!-- ast.BinOp object at 0x78c1a4a31750&#45;&gt;ast.Constant object at 0x78c1a4a31650 -->
<g id="edge94" class="edge">
<title>ast.BinOp object at 0x78c1a4a31750&#45;&gt;ast.Constant object at 0x78c1a4a31650</title>
<path fill="none" stroke="black" d="M1480.74,-290.67C1499.27,-280.91 1524.15,-267.82 1545.12,-256.78"/>
<polygon fill="black" stroke="black" points="1546.92,-259.79 1554.14,-252.03 1543.66,-253.59 1546.92,-259.79"/>
</g>
<!-- ast.Name object at 0x78c1a4a31790 -->
<g id="node66" class="node">
<title>ast.Name object at 0x78c1a4a31790</title>
<path fill="#66cdaa" stroke="black" d="M1451.5,-180C1451.5,-180 1421.5,-180 1421.5,-180 1415.5,-180 1409.5,-174 1409.5,-168 1409.5,-168 1409.5,-156 1409.5,-156 1409.5,-150 1415.5,-144 1421.5,-144 1421.5,-144 1451.5,-144 1451.5,-144 1457.5,-144 1463.5,-150 1463.5,-156 1463.5,-156 1463.5,-168 1463.5,-168 1463.5,-174 1457.5,-180 1451.5,-180"/>
<text text-anchor="middle" x="1436.5" y="-158.3" font-family="Times,serif" font-size="14.00">Name</text>
</g>
<!-- ast.Call object at 0x78c1a4a319d0&#45;&gt;ast.Name object at 0x78c1a4a31790 -->
<g id="edge86" class="edge">
<title>ast.Call object at 0x78c1a4a319d0&#45;&gt;ast.Name object at 0x78c1a4a31790</title>
<path fill="none" stroke="black" d="M1436.5,-215.7C1436.5,-207.98 1436.5,-198.71 1436.5,-190.11"/>
<polygon fill="black" stroke="black" points="1440,-190.1 1436.5,-180.1 1433,-190.1 1440,-190.1"/>
</g>
<!-- ast.BinOp object at 0x78c1a4a31810 -->
<g id="node67" class="node">
<title>ast.BinOp object at 0x78c1a4a31810</title>
<path fill="#66cdaa" stroke="black" d="M1523.5,-180C1523.5,-180 1493.5,-180 1493.5,-180 1487.5,-180 1481.5,-174 1481.5,-168 1481.5,-168 1481.5,-156 1481.5,-156 1481.5,-150 1487.5,-144 1493.5,-144 1493.5,-144 1523.5,-144 1523.5,-144 1529.5,-144 1535.5,-150 1535.5,-156 1535.5,-156 1535.5,-168 1535.5,-168 1535.5,-174 1529.5,-180 1523.5,-180"/>
<text text-anchor="middle" x="1508.5" y="-158.3" font-family="Times,serif" font-size="14.00">BinOp</text>
</g>
<!-- ast.Call object at 0x78c1a4a319d0&#45;&gt;ast.BinOp object at 0x78c1a4a31810 -->
<g id="edge88" class="edge">
<title>ast.Call object at 0x78c1a4a319d0&#45;&gt;ast.BinOp object at 0x78c1a4a31810</title>
<path fill="none" stroke="black" d="M1454.3,-215.7C1463.1,-207.14 1473.88,-196.66 1483.5,-187.3"/>
<polygon fill="black" stroke="black" points="1486.18,-189.58 1490.91,-180.1 1481.3,-184.57 1486.18,-189.58"/>
</g>
<!-- ast.Name object at 0x78c1a4a31790&#45;&gt;ast.Load object at 0x78c1a51add10 -->
<g id="edge87" class="edge">
<title>ast.Name object at 0x78c1a4a31790&#45;&gt;ast.Load object at 0x78c1a51add10</title>
<path fill="none" stroke="black" d="M1422.73,-143.95C1403.41,-120.52 1368.71,-80.33 1351.5,-72 1257.26,-26.39 931.25,-19.97 820.59,-19.11"/>
<polygon fill="black" stroke="black" points="820.59,-15.61 810.56,-19.05 820.54,-22.61 820.59,-15.61"/>
</g>
<!-- ast.Name object at 0x78c1a4a333d0 -->
<g id="node68" class="node">
<title>ast.Name object at 0x78c1a4a333d0</title>
<path fill="#66cdaa" stroke="black" d="M1445.5,-108C1445.5,-108 1415.5,-108 1415.5,-108 1409.5,-108 1403.5,-102 1403.5,-96 1403.5,-96 1403.5,-84 1403.5,-84 1403.5,-78 1409.5,-72 1415.5,-72 1415.5,-72 1445.5,-72 1445.5,-72 1451.5,-72 1457.5,-78 1457.5,-84 1457.5,-84 1457.5,-96 1457.5,-96 1457.5,-102 1451.5,-108 1445.5,-108"/>
<text text-anchor="middle" x="1430.5" y="-86.3" font-family="Times,serif" font-size="14.00">Name</text>
</g>
<!-- ast.BinOp object at 0x78c1a4a31810&#45;&gt;ast.Name object at 0x78c1a4a333d0 -->
<g id="edge89" class="edge">
<title>ast.BinOp object at 0x78c1a4a31810&#45;&gt;ast.Name object at 0x78c1a4a333d0</title>
<path fill="none" stroke="black" d="M1489.22,-143.7C1479.58,-135.05 1467.77,-124.45 1457.27,-115.03"/>
<polygon fill="black" stroke="black" points="1459.34,-112.18 1449.56,-108.1 1454.66,-117.39 1459.34,-112.18"/>
</g>
<!-- ast.Pow object at 0x78c1a51ae510 -->
<g id="node69" class="node">
<title>ast.Pow object at 0x78c1a51ae510</title>
<path fill="#66cdaa" stroke="black" d="M1601.5,-108C1601.5,-108 1571.5,-108 1571.5,-108 1565.5,-108 1559.5,-102 1559.5,-96 1559.5,-96 1559.5,-84 1559.5,-84 1559.5,-78 1565.5,-72 1571.5,-72 1571.5,-72 1601.5,-72 1601.5,-72 1607.5,-72 1613.5,-78 1613.5,-84 1613.5,-84 1613.5,-96 1613.5,-96 1613.5,-102 1607.5,-108 1601.5,-108"/>
<text text-anchor="middle" x="1586.5" y="-86.3" font-family="Times,serif" font-size="14.00">Pow</text>
</g>
<!-- ast.BinOp object at 0x78c1a4a31810&#45;&gt;ast.Pow object at 0x78c1a51ae510 -->
<g id="edge91" class="edge">
<title>ast.BinOp object at 0x78c1a4a31810&#45;&gt;ast.Pow object at 0x78c1a51ae510</title>
<path fill="none" stroke="black" d="M1527.78,-143.7C1537.42,-135.05 1549.23,-124.45 1559.73,-115.03"/>
<polygon fill="black" stroke="black" points="1562.34,-117.39 1567.44,-108.1 1557.66,-112.18 1562.34,-117.39"/>
</g>
<!-- ast.Constant object at 0x78c1a4a316d0 -->
<g id="node70" class="node">
<title>ast.Constant object at 0x78c1a4a316d0</title>
<path fill="#66cdaa" stroke="black" d="M1529,-108C1529,-108 1488,-108 1488,-108 1482,-108 1476,-102 1476,-96 1476,-96 1476,-84 1476,-84 1476,-78 1482,-72 1488,-72 1488,-72 1529,-72 1529,-72 1535,-72 1541,-78 1541,-84 1541,-84 1541,-96 1541,-96 1541,-102 1535,-108 1529,-108"/>
<text text-anchor="middle" x="1508.5" y="-86.3" font-family="Times,serif" font-size="14.00">Constant</text>
</g>
<!-- ast.BinOp object at 0x78c1a4a31810&#45;&gt;ast.Constant object at 0x78c1a4a316d0 -->
<g id="edge92" class="edge">
<title>ast.BinOp object at 0x78c1a4a31810&#45;&gt;ast.Constant object at 0x78c1a4a316d0</title>
<path fill="none" stroke="black" d="M1508.5,-143.7C1508.5,-135.98 1508.5,-126.71 1508.5,-118.11"/>
<polygon fill="black" stroke="black" points="1512,-118.1 1508.5,-108.1 1505,-118.1 1512,-118.1"/>
</g>
<!-- ast.Name object at 0x78c1a4a333d0&#45;&gt;ast.Load object at 0x78c1a51add10 -->
<g id="edge90" class="edge">
<title>ast.Name object at 0x78c1a4a333d0&#45;&gt;ast.Load object at 0x78c1a51add10</title>
<path fill="none" stroke="black" d="M1403.1,-76.3C1398.63,-74.62 1393.99,-73.1 1389.5,-72 1178.9,-20.43 916.34,-17.49 820.61,-18.35"/>
<polygon fill="black" stroke="black" points="820.52,-14.85 810.56,-18.46 820.59,-21.85 820.52,-14.85"/>
</g>
<!-- ast.Compare object at 0x78c1a4a31390 -->
<g id="node74" class="node">
<title>ast.Compare object at 0x78c1a4a31390</title>
<path fill="#66cdaa" stroke="black" d="M1220,-252C1220,-252 1177,-252 1177,-252 1171,-252 1165,-246 1165,-240 1165,-240 1165,-228 1165,-228 1165,-222 1171,-216 1177,-216 1177,-216 1220,-216 1220,-216 1226,-216 1232,-222 1232,-228 1232,-228 1232,-240 1232,-240 1232,-246 1226,-252 1220,-252"/>
<text text-anchor="middle" x="1198.5" y="-230.3" font-family="Times,serif" font-size="14.00">Compare</text>
</g>
<!-- ast.If object at 0x78c1a4a313d0&#45;&gt;ast.Compare object at 0x78c1a4a31390 -->
<g id="edge96" class="edge">
<title>ast.If object at 0x78c1a4a313d0&#45;&gt;ast.Compare object at 0x78c1a4a31390</title>
<path fill="none" stroke="black" d="M1282.35,-287.88C1267.97,-278.81 1250.12,-267.55 1234.59,-257.76"/>
<polygon fill="black" stroke="black" points="1236.08,-254.56 1225.76,-252.19 1232.35,-260.48 1236.08,-254.56"/>
</g>
<!-- ast.Return object at 0x78c1a4a31a50 -->
<g id="node81" class="node">
<title>ast.Return object at 0x78c1a4a31a50</title>
<path fill="#66cdaa" stroke="black" d="M1330.5,-252C1330.5,-252 1300.5,-252 1300.5,-252 1294.5,-252 1288.5,-246 1288.5,-240 1288.5,-240 1288.5,-228 1288.5,-228 1288.5,-222 1294.5,-216 1300.5,-216 1300.5,-216 1330.5,-216 1330.5,-216 1336.5,-216 1342.5,-222 1342.5,-228 1342.5,-228 1342.5,-240 1342.5,-240 1342.5,-246 1336.5,-252 1330.5,-252"/>
<text text-anchor="middle" x="1315.5" y="-230.3" font-family="Times,serif" font-size="14.00">Return</text>
</g>
<!-- ast.If object at 0x78c1a4a313d0&#45;&gt;ast.Return object at 0x78c1a4a31a50 -->
<g id="edge105" class="edge">
<title>ast.If object at 0x78c1a4a313d0&#45;&gt;ast.Return object at 0x78c1a4a31a50</title>
<path fill="none" stroke="black" d="M1310.98,-287.7C1311.64,-279.98 1312.44,-270.71 1313.18,-262.11"/>
<polygon fill="black" stroke="black" points="1316.67,-262.37 1314.03,-252.1 1309.69,-261.77 1316.67,-262.37"/>
</g>
<!-- ast.BinOp object at 0x78c1a4a31350 -->
<g id="node75" class="node">
<title>ast.BinOp object at 0x78c1a4a31350</title>
<path fill="#66cdaa" stroke="black" d="M1101.5,-180C1101.5,-180 1071.5,-180 1071.5,-180 1065.5,-180 1059.5,-174 1059.5,-168 1059.5,-168 1059.5,-156 1059.5,-156 1059.5,-150 1065.5,-144 1071.5,-144 1071.5,-144 1101.5,-144 1101.5,-144 1107.5,-144 1113.5,-150 1113.5,-156 1113.5,-156 1113.5,-168 1113.5,-168 1113.5,-174 1107.5,-180 1101.5,-180"/>
<text text-anchor="middle" x="1086.5" y="-158.3" font-family="Times,serif" font-size="14.00">BinOp</text>
</g>
<!-- ast.Compare object at 0x78c1a4a31390&#45;&gt;ast.BinOp object at 0x78c1a4a31350 -->
<g id="edge97" class="edge">
<title>ast.Compare object at 0x78c1a4a31390&#45;&gt;ast.BinOp object at 0x78c1a4a31350</title>
<path fill="none" stroke="black" d="M1171.1,-215.88C1156.35,-206.66 1137.97,-195.17 1122.12,-185.26"/>
<polygon fill="black" stroke="black" points="1123.95,-182.28 1113.62,-179.95 1120.24,-188.22 1123.95,-182.28"/>
</g>
<!-- ast.Eq object at 0x78c1a51aed10 -->
<g id="node79" class="node">
<title>ast.Eq object at 0x78c1a51aed10</title>
<path fill="#66cdaa" stroke="black" d="M1257.5,-180C1257.5,-180 1227.5,-180 1227.5,-180 1221.5,-180 1215.5,-174 1215.5,-168 1215.5,-168 1215.5,-156 1215.5,-156 1215.5,-150 1221.5,-144 1227.5,-144 1227.5,-144 1257.5,-144 1257.5,-144 1263.5,-144 1269.5,-150 1269.5,-156 1269.5,-156 1269.5,-168 1269.5,-168 1269.5,-174 1263.5,-180 1257.5,-180"/>
<text text-anchor="middle" x="1242.5" y="-158.3" font-family="Times,serif" font-size="14.00">Eq</text>
</g>
<!-- ast.Compare object at 0x78c1a4a31390&#45;&gt;ast.Eq object at 0x78c1a51aed10 -->
<g id="edge103" class="edge">
<title>ast.Compare object at 0x78c1a4a31390&#45;&gt;ast.Eq object at 0x78c1a51aed10</title>
<path fill="none" stroke="black" d="M1209.38,-215.7C1214.49,-207.56 1220.7,-197.69 1226.34,-188.7"/>
<polygon fill="black" stroke="black" points="1229.39,-190.43 1231.75,-180.1 1223.46,-186.71 1229.39,-190.43"/>
</g>
<!-- ast.Constant object at 0x78c1a4a31d50 -->
<g id="node80" class="node">
<title>ast.Constant object at 0x78c1a4a31d50</title>
<path fill="#66cdaa" stroke="black" d="M1185,-180C1185,-180 1144,-180 1144,-180 1138,-180 1132,-174 1132,-168 1132,-168 1132,-156 1132,-156 1132,-150 1138,-144 1144,-144 1144,-144 1185,-144 1185,-144 1191,-144 1197,-150 1197,-156 1197,-156 1197,-168 1197,-168 1197,-174 1191,-180 1185,-180"/>
<text text-anchor="middle" x="1164.5" y="-158.3" font-family="Times,serif" font-size="14.00">Constant</text>
</g>
<!-- ast.Compare object at 0x78c1a4a31390&#45;&gt;ast.Constant object at 0x78c1a4a31d50 -->
<g id="edge104" class="edge">
<title>ast.Compare object at 0x78c1a4a31390&#45;&gt;ast.Constant object at 0x78c1a4a31d50</title>
<path fill="none" stroke="black" d="M1190.1,-215.7C1186.23,-207.73 1181.55,-198.1 1177.26,-189.26"/>
<polygon fill="black" stroke="black" points="1180.33,-187.57 1172.81,-180.1 1174.03,-190.63 1180.33,-187.57"/>
</g>
<!-- ast.Name object at 0x78c1a4a31490 -->
<g id="node76" class="node">
<title>ast.Name object at 0x78c1a4a31490</title>
<path fill="#66cdaa" stroke="black" d="M1173.5,-108C1173.5,-108 1143.5,-108 1143.5,-108 1137.5,-108 1131.5,-102 1131.5,-96 1131.5,-96 1131.5,-84 1131.5,-84 1131.5,-78 1137.5,-72 1143.5,-72 1143.5,-72 1173.5,-72 1173.5,-72 1179.5,-72 1185.5,-78 1185.5,-84 1185.5,-84 1185.5,-96 1185.5,-96 1185.5,-102 1179.5,-108 1173.5,-108"/>
<text text-anchor="middle" x="1158.5" y="-86.3" font-family="Times,serif" font-size="14.00">Name</text>
</g>
<!-- ast.BinOp object at 0x78c1a4a31350&#45;&gt;ast.Name object at 0x78c1a4a31490 -->
<g id="edge98" class="edge">
<title>ast.BinOp object at 0x78c1a4a31350&#45;&gt;ast.Name object at 0x78c1a4a31490</title>
<path fill="none" stroke="black" d="M1104.3,-143.7C1113.1,-135.14 1123.88,-124.66 1133.5,-115.3"/>
<polygon fill="black" stroke="black" points="1136.18,-117.58 1140.91,-108.1 1131.3,-112.57 1136.18,-117.58"/>
</g>
<!-- ast.Mod object at 0x78c1a51ae490 -->
<g id="node77" class="node">
<title>ast.Mod object at 0x78c1a51ae490</title>
<path fill="#66cdaa" stroke="black" d="M1245.5,-108C1245.5,-108 1215.5,-108 1215.5,-108 1209.5,-108 1203.5,-102 1203.5,-96 1203.5,-96 1203.5,-84 1203.5,-84 1203.5,-78 1209.5,-72 1215.5,-72 1215.5,-72 1245.5,-72 1245.5,-72 1251.5,-72 1257.5,-78 1257.5,-84 1257.5,-84 1257.5,-96 1257.5,-96 1257.5,-102 1251.5,-108 1245.5,-108"/>
<text text-anchor="middle" x="1230.5" y="-86.3" font-family="Times,serif" font-size="14.00">Mod</text>
</g>
<!-- ast.BinOp object at 0x78c1a4a31350&#45;&gt;ast.Mod object at 0x78c1a51ae490 -->
<g id="edge100" class="edge">
<title>ast.BinOp object at 0x78c1a4a31350&#45;&gt;ast.Mod object at 0x78c1a51ae490</title>
<path fill="none" stroke="black" d="M1113.59,-147.83C1136.27,-136.81 1168.86,-120.97 1193.87,-108.81"/>
<polygon fill="black" stroke="black" points="1195.58,-111.87 1203.05,-104.35 1192.52,-105.57 1195.58,-111.87"/>
</g>
<!-- ast.Name object at 0x78c1a4a33dd0 -->
<g id="node78" class="node">
<title>ast.Name object at 0x78c1a4a33dd0</title>
<path fill="#66cdaa" stroke="black" d="M1101.5,-108C1101.5,-108 1071.5,-108 1071.5,-108 1065.5,-108 1059.5,-102 1059.5,-96 1059.5,-96 1059.5,-84 1059.5,-84 1059.5,-78 1065.5,-72 1071.5,-72 1071.5,-72 1101.5,-72 1101.5,-72 1107.5,-72 1113.5,-78 1113.5,-84 1113.5,-84 1113.5,-96 1113.5,-96 1113.5,-102 1107.5,-108 1101.5,-108"/>
<text text-anchor="middle" x="1086.5" y="-86.3" font-family="Times,serif" font-size="14.00">Name</text>
</g>
<!-- ast.BinOp object at 0x78c1a4a31350&#45;&gt;ast.Name object at 0x78c1a4a33dd0 -->
<g id="edge101" class="edge">
<title>ast.BinOp object at 0x78c1a4a31350&#45;&gt;ast.Name object at 0x78c1a4a33dd0</title>
<path fill="none" stroke="black" d="M1086.5,-143.7C1086.5,-135.98 1086.5,-126.71 1086.5,-118.11"/>
<polygon fill="black" stroke="black" points="1090,-118.1 1086.5,-108.1 1083,-118.1 1090,-118.1"/>
</g>
<!-- ast.Name object at 0x78c1a4a31490&#45;&gt;ast.Load object at 0x78c1a51add10 -->
<g id="edge99" class="edge">
<title>ast.Name object at 0x78c1a4a31490&#45;&gt;ast.Load object at 0x78c1a51add10</title>
<path fill="none" stroke="black" d="M1131.31,-75.17C1128.38,-73.98 1125.41,-72.89 1122.5,-72 1016.19,-39.33 884.64,-26.12 821.21,-21.37"/>
<polygon fill="black" stroke="black" points="821.12,-17.85 810.9,-20.62 820.62,-24.83 821.12,-17.85"/>
</g>
<!-- ast.Name object at 0x78c1a4a33dd0&#45;&gt;ast.Load object at 0x78c1a51add10 -->
<g id="edge102" class="edge">
<title>ast.Name object at 0x78c1a4a33dd0&#45;&gt;ast.Load object at 0x78c1a51add10</title>
<path fill="none" stroke="black" d="M1059.42,-76.91C1054.83,-75.11 1050.07,-73.4 1045.5,-72 967.02,-48.04 871.96,-31.89 820.67,-24.2"/>
<polygon fill="black" stroke="black" points="821.11,-20.73 810.71,-22.73 820.09,-27.65 821.11,-20.73"/>
</g>
<!-- ast.Constant object at 0x78c1a4a31890 -->
<g id="node82" class="node">
<title>ast.Constant object at 0x78c1a4a31890</title>
<path fill="#66cdaa" stroke="black" d="M1341,-180C1341,-180 1300,-180 1300,-180 1294,-180 1288,-174 1288,-168 1288,-168 1288,-156 1288,-156 1288,-150 1294,-144 1300,-144 1300,-144 1341,-144 1341,-144 1347,-144 1353,-150 1353,-156 1353,-156 1353,-168 1353,-168 1353,-174 1347,-180 1341,-180"/>
<text text-anchor="middle" x="1320.5" y="-158.3" font-family="Times,serif" font-size="14.00">Constant</text>
</g>
<!-- ast.Return object at 0x78c1a4a31a50&#45;&gt;ast.Constant object at 0x78c1a4a31890 -->
<g id="edge106" class="edge">
<title>ast.Return object at 0x78c1a4a31a50&#45;&gt;ast.Constant object at 0x78c1a4a31890</title>
<path fill="none" stroke="black" d="M1316.74,-215.7C1317.29,-207.98 1317.95,-198.71 1318.56,-190.11"/>
<polygon fill="black" stroke="black" points="1322.06,-190.33 1319.28,-180.1 1315.07,-189.83 1322.06,-190.33"/>
</g>
<!-- ast.Constant object at 0x78c1a4a31ad0 -->
<g id="node84" class="node">
<title>ast.Constant object at 0x78c1a4a31ad0</title>
<path fill="#66cdaa" stroke="black" d="M1480,-396C1480,-396 1439,-396 1439,-396 1433,-396 1427,-390 1427,-384 1427,-384 1427,-372 1427,-372 1427,-366 1433,-360 1439,-360 1439,-360 1480,-360 1480,-360 1486,-360 1492,-366 1492,-372 1492,-372 1492,-384 1492,-384 1492,-390 1486,-396 1480,-396"/>
<text text-anchor="middle" x="1459.5" y="-374.3" font-family="Times,serif" font-size="14.00">Constant</text>
</g>
<!-- ast.Return object at 0x78c1a4a318d0&#45;&gt;ast.Constant object at 0x78c1a4a31ad0 -->
<g id="edge108" class="edge">
<title>ast.Return object at 0x78c1a4a318d0&#45;&gt;ast.Constant object at 0x78c1a4a31ad0</title>
<path fill="none" stroke="black" d="M1457.99,-431.7C1458.21,-423.98 1458.48,-414.71 1458.73,-406.11"/>
<polygon fill="black" stroke="black" points="1462.22,-406.2 1459.01,-396.1 1455.23,-406 1462.22,-406.2"/>
</g>
</g>
</svg>
