<?xml version="1.0" encoding="UTF-8" standalone="no"?>
<!DOCTYPE svg PUBLIC "-//W3C//DTD SVG 1.1//EN"
 "http://www.w3.org/Graphics/SVG/1.1/DTD/svg11.dtd">
<!-- Generated by graphviz version 2.50.0 (0)
 -->
<!-- Pages: 1 -->
<svg width="988pt" height="908pt"
 viewBox="0.00 0.00 987.50 908.00" xmlns="http://www.w3.org/2000/svg" xmlns:xlink="http://www.w3.org/1999/xlink">
<g id="graph0" class="graph" transform="scale(1 1) rotate(0) translate(4 904)">
<polygon fill="white" stroke="transparent" points="-4,4 -4,-904 983.5,-904 983.5,4 -4,4"/>
<!-- ast.Module object at 0x70478f8b5c50 -->
<g id="node1" class="node">
<title>ast.Module object at 0x70478f8b5c50</title>
<path fill="#66cdaa" stroke="black" d="M399.5,-900C399.5,-900 364.5,-900 364.5,-900 358.5,-900 352.5,-894 352.5,-888 352.5,-888 352.5,-876 352.5,-876 352.5,-870 358.5,-864 364.5,-864 364.5,-864 399.5,-864 399.5,-864 405.5,-864 411.5,-870 411.5,-876 411.5,-876 411.5,-888 411.5,-888 411.5,-894 405.5,-900 399.5,-900"/>
<text text-anchor="middle" x="382" y="-878.3" font-family="Times,serif" font-size="14.00">Module</text>
</g>
<!-- ast.FunctionDef object at 0x70478f8b6190 -->
<g id="node2" class="node">
<title>ast.FunctionDef object at 0x70478f8b6190</title>
<path fill="#66cdaa" stroke="black" d="M412.5,-828C412.5,-828 351.5,-828 351.5,-828 345.5,-828 339.5,-822 339.5,-816 339.5,-816 339.5,-804 339.5,-804 339.5,-798 345.5,-792 351.5,-792 351.5,-792 412.5,-792 412.5,-792 418.5,-792 424.5,-798 424.5,-804 424.5,-804 424.5,-816 424.5,-816 424.5,-822 418.5,-828 412.5,-828"/>
<text text-anchor="middle" x="382" y="-806.3" font-family="Times,serif" font-size="14.00">FunctionDef</text>
</g>
<!-- ast.Module object at 0x70478f8b5c50&#45;&gt;ast.FunctionDef object at 0x70478f8b6190 -->
<g id="edge1" class="edge">
<title>ast.Module object at 0x70478f8b5c50&#45;&gt;ast.FunctionDef object at 0x70478f8b6190</title>
<path fill="none" stroke="black" d="M382,-863.7C382,-855.98 382,-846.71 382,-838.11"/>
<polygon fill="black" stroke="black" points="385.5,-838.1 382,-828.1 378.5,-838.1 385.5,-838.1"/>
</g>
<!-- ast.arguments object at 0x70478f7a5950 -->
<g id="node3" class="node">
<title>ast.arguments object at 0x70478f7a5950</title>
<path fill="#66cdaa" stroke="black" d="M325,-756C325,-756 275,-756 275,-756 269,-756 263,-750 263,-744 263,-744 263,-732 263,-732 263,-726 269,-720 275,-720 275,-720 325,-720 325,-720 331,-720 337,-726 337,-732 337,-732 337,-744 337,-744 337,-750 331,-756 325,-756"/>
<text text-anchor="middle" x="300" y="-734.3" font-family="Times,serif" font-size="14.00">arguments</text>
</g>
<!-- ast.FunctionDef object at 0x70478f8b6190&#45;&gt;ast.arguments object at 0x70478f7a5950 -->
<g id="edge2" class="edge">
<title>ast.FunctionDef object at 0x70478f8b6190&#45;&gt;ast.arguments object at 0x70478f7a5950</title>
<path fill="none" stroke="black" d="M361.73,-791.7C351.5,-782.97 338.94,-772.24 327.82,-762.75"/>
<polygon fill="black" stroke="black" points="329.91,-759.94 320.04,-756.1 325.37,-765.26 329.91,-759.94"/>
</g>
<!-- ast.Assign object at 0x70478f7a5b90 -->
<g id="node5" class="node">
<title>ast.Assign object at 0x70478f7a5b90</title>
<path fill="#66cdaa" stroke="black" d="M666,-252C666,-252 636,-252 636,-252 630,-252 624,-246 624,-240 624,-240 624,-228 624,-228 624,-222 630,-216 636,-216 636,-216 666,-216 666,-216 672,-216 678,-222 678,-228 678,-228 678,-240 678,-240 678,-246 672,-252 666,-252"/>
<text text-anchor="middle" x="651" y="-230.3" font-family="Times,serif" font-size="14.00">Assign</text>
</g>
<!-- ast.FunctionDef object at 0x70478f8b6190&#45;&gt;ast.Assign object at 0x70478f7a5b90 -->
<g id="edge4" class="edge">
<title>ast.FunctionDef object at 0x70478f8b6190&#45;&gt;ast.Assign object at 0x70478f7a5b90</title>
<path fill="none" stroke="black" d="M424.64,-805.07C498.4,-795.69 642,-764.85 642,-667 642,-667 642,-667 642,-377 642,-336.92 645.62,-290.59 648.26,-262.05"/>
<polygon fill="black" stroke="black" points="651.75,-262.31 649.22,-252.03 644.79,-261.65 651.75,-262.31"/>
</g>
<!-- ast.Return object at 0x70478f7ec610 -->
<g id="node15" class="node">
<title>ast.Return object at 0x70478f7ec610</title>
<path fill="#66cdaa" stroke="black" d="M397,-756C397,-756 367,-756 367,-756 361,-756 355,-750 355,-744 355,-744 355,-732 355,-732 355,-726 361,-720 367,-720 367,-720 397,-720 397,-720 403,-720 409,-726 409,-732 409,-732 409,-744 409,-744 409,-750 403,-756 397,-756"/>
<text text-anchor="middle" x="382" y="-734.3" font-family="Times,serif" font-size="14.00">Return</text>
</g>
<!-- ast.FunctionDef object at 0x70478f8b6190&#45;&gt;ast.Return object at 0x70478f7ec610 -->
<g id="edge15" class="edge">
<title>ast.FunctionDef object at 0x70478f8b6190&#45;&gt;ast.Return object at 0x70478f7ec610</title>
<path fill="none" stroke="black" d="M382,-791.7C382,-783.98 382,-774.71 382,-766.11"/>
<polygon fill="black" stroke="black" points="385.5,-766.1 382,-756.1 378.5,-766.1 385.5,-766.1"/>
</g>
<!-- ast.arg object at 0x70478f7a5810 -->
<g id="node4" class="node">
<title>ast.arg object at 0x70478f7a5810</title>
<path fill="#66cdaa" stroke="black" d="M315,-684C315,-684 285,-684 285,-684 279,-684 273,-678 273,-672 273,-672 273,-660 273,-660 273,-654 279,-648 285,-648 285,-648 315,-648 315,-648 321,-648 327,-654 327,-660 327,-660 327,-672 327,-672 327,-678 321,-684 315,-684"/>
<text text-anchor="middle" x="300" y="-662.3" font-family="Times,serif" font-size="14.00">arg</text>
</g>
<!-- ast.arguments object at 0x70478f7a5950&#45;&gt;ast.arg object at 0x70478f7a5810 -->
<g id="edge3" class="edge">
<title>ast.arguments object at 0x70478f7a5950&#45;&gt;ast.arg object at 0x70478f7a5810</title>
<path fill="none" stroke="black" d="M300,-719.7C300,-711.98 300,-702.71 300,-694.11"/>
<polygon fill="black" stroke="black" points="303.5,-694.1 300,-684.1 296.5,-694.1 303.5,-694.1"/>
</g>
<!-- ast.Name object at 0x70478f7a79d0 -->
<g id="node6" class="node">
<title>ast.Name object at 0x70478f7a79d0</title>
<path fill="#66cdaa" stroke="black" d="M518,-180C518,-180 488,-180 488,-180 482,-180 476,-174 476,-168 476,-168 476,-156 476,-156 476,-150 482,-144 488,-144 488,-144 518,-144 518,-144 524,-144 530,-150 530,-156 530,-156 530,-168 530,-168 530,-174 524,-180 518,-180"/>
<text text-anchor="middle" x="503" y="-158.3" font-family="Times,serif" font-size="14.00">Name</text>
</g>
<!-- ast.Assign object at 0x70478f7a5b90&#45;&gt;ast.Name object at 0x70478f7a79d0 -->
<g id="edge5" class="edge">
<title>ast.Assign object at 0x70478f7a5b90&#45;&gt;ast.Name object at 0x70478f7a79d0</title>
<path fill="none" stroke="black" d="M623.85,-220.16C600.15,-208.95 565.54,-192.58 539.42,-180.23"/>
<polygon fill="black" stroke="black" points="540.76,-176.99 530.22,-175.88 537.77,-183.32 540.76,-176.99"/>
</g>
<!-- ast.List object at 0x70478f7a7b10 -->
<g id="node8" class="node">
<title>ast.List object at 0x70478f7a7b10</title>
<path fill="#66cdaa" stroke="black" d="M760,-180C760,-180 730,-180 730,-180 724,-180 718,-174 718,-168 718,-168 718,-156 718,-156 718,-150 724,-144 730,-144 730,-144 760,-144 760,-144 766,-144 772,-150 772,-156 772,-156 772,-168 772,-168 772,-174 766,-180 760,-180"/>
<text text-anchor="middle" x="745" y="-158.3" font-family="Times,serif" font-size="14.00">List</text>
</g>
<!-- ast.Assign object at 0x70478f7a5b90&#45;&gt;ast.List object at 0x70478f7a7b10 -->
<g id="edge7" class="edge">
<title>ast.Assign object at 0x70478f7a5b90&#45;&gt;ast.List object at 0x70478f7a7b10</title>
<path fill="none" stroke="black" d="M674.24,-215.7C686.19,-206.8 700.92,-195.82 713.85,-186.2"/>
<polygon fill="black" stroke="black" points="716.1,-188.88 722.03,-180.1 711.92,-183.27 716.1,-188.88"/>
</g>
<!-- ast.Store object at 0x7047913a9b90 -->
<g id="node7" class="node">
<title>ast.Store object at 0x7047913a9b90</title>
<path fill="#66cdaa" stroke="black" d="M446,-108C446,-108 416,-108 416,-108 410,-108 404,-102 404,-96 404,-96 404,-84 404,-84 404,-78 410,-72 416,-72 416,-72 446,-72 446,-72 452,-72 458,-78 458,-84 458,-84 458,-96 458,-96 458,-102 452,-108 446,-108"/>
<text text-anchor="middle" x="431" y="-86.3" font-family="Times,serif" font-size="14.00">Store</text>
</g>
<!-- ast.Name object at 0x70478f7a79d0&#45;&gt;ast.Store object at 0x7047913a9b90 -->
<g id="edge6" class="edge">
<title>ast.Name object at 0x70478f7a79d0&#45;&gt;ast.Store object at 0x7047913a9b90</title>
<path fill="none" stroke="black" d="M485.2,-143.7C476.4,-135.14 465.62,-124.66 456,-115.3"/>
<polygon fill="black" stroke="black" points="458.2,-112.57 448.59,-108.1 453.32,-117.58 458.2,-112.57"/>
</g>
<!-- ast.UnaryOp object at 0x70478f7ed890 -->
<g id="node9" class="node">
<title>ast.UnaryOp object at 0x70478f7ed890</title>
<path fill="#66cdaa" stroke="black" d="M811.5,-108C811.5,-108 768.5,-108 768.5,-108 762.5,-108 756.5,-102 756.5,-96 756.5,-96 756.5,-84 756.5,-84 756.5,-78 762.5,-72 768.5,-72 768.5,-72 811.5,-72 811.5,-72 817.5,-72 823.5,-78 823.5,-84 823.5,-84 823.5,-96 823.5,-96 823.5,-102 817.5,-108 811.5,-108"/>
<text text-anchor="middle" x="790" y="-86.3" font-family="Times,serif" font-size="14.00">UnaryOp</text>
</g>
<!-- ast.List object at 0x70478f7a7b10&#45;&gt;ast.UnaryOp object at 0x70478f7ed890 -->
<g id="edge8" class="edge">
<title>ast.List object at 0x70478f7a7b10&#45;&gt;ast.UnaryOp object at 0x70478f7ed890</title>
<path fill="none" stroke="black" d="M756.12,-143.7C761.36,-135.56 767.7,-125.69 773.48,-116.7"/>
<polygon fill="black" stroke="black" points="776.54,-118.41 779,-108.1 770.65,-114.62 776.54,-118.41"/>
</g>
<!-- ast.UnaryOp object at 0x70478f7ece90 -->
<g id="node12" class="node">
<title>ast.UnaryOp object at 0x70478f7ece90</title>
<path fill="#66cdaa" stroke="black" d="M896.5,-108C896.5,-108 853.5,-108 853.5,-108 847.5,-108 841.5,-102 841.5,-96 841.5,-96 841.5,-84 841.5,-84 841.5,-78 847.5,-72 853.5,-72 853.5,-72 896.5,-72 896.5,-72 902.5,-72 908.5,-78 908.5,-84 908.5,-84 908.5,-96 908.5,-96 908.5,-102 902.5,-108 896.5,-108"/>
<text text-anchor="middle" x="875" y="-86.3" font-family="Times,serif" font-size="14.00">UnaryOp</text>
</g>
<!-- ast.List object at 0x70478f7a7b10&#45;&gt;ast.UnaryOp object at 0x70478f7ece90 -->
<g id="edge11" class="edge">
<title>ast.List object at 0x70478f7a7b10&#45;&gt;ast.UnaryOp object at 0x70478f7ece90</title>
<path fill="none" stroke="black" d="M772.25,-146.33C790.2,-136.66 814.03,-123.83 834.22,-112.96"/>
<polygon fill="black" stroke="black" points="836.06,-115.94 843.2,-108.12 832.74,-109.78 836.06,-115.94"/>
</g>
<!-- ast.Load object at 0x7047913a9b10 -->
<g id="node14" class="node">
<title>ast.Load object at 0x7047913a9b10</title>
<path fill="#66cdaa" stroke="black" d="M336,-36C336,-36 306,-36 306,-36 300,-36 294,-30 294,-24 294,-24 294,-12 294,-12 294,-6 300,0 306,0 306,0 336,0 336,0 342,0 348,-6 348,-12 348,-12 348,-24 348,-24 348,-30 342,-36 336,-36"/>
<text text-anchor="middle" x="321" y="-14.3" font-family="Times,serif" font-size="14.00">Load</text>
</g>
<!-- ast.List object at 0x70478f7a7b10&#45;&gt;ast.Load object at 0x7047913a9b10 -->
<g id="edge14" class="edge">
<title>ast.List object at 0x70478f7a7b10&#45;&gt;ast.Load object at 0x7047913a9b10</title>
<path fill="none" stroke="black" d="M720.1,-143.82C705.96,-133.79 688.12,-120.65 673,-108 655.15,-93.08 655.82,-82.39 635,-72 543.3,-26.25 419.76,-18.96 358.58,-18.43"/>
<polygon fill="black" stroke="black" points="358.26,-14.93 348.25,-18.4 358.24,-21.93 358.26,-14.93"/>
</g>
<!-- ast.USub object at 0x7047913aa990 -->
<g id="node10" class="node">
<title>ast.USub object at 0x7047913aa990</title>
<path fill="#66cdaa" stroke="black" d="M884,-36C884,-36 854,-36 854,-36 848,-36 842,-30 842,-24 842,-24 842,-12 842,-12 842,-6 848,0 854,0 854,0 884,0 884,0 890,0 896,-6 896,-12 896,-12 896,-24 896,-24 896,-30 890,-36 884,-36"/>
<text text-anchor="middle" x="869" y="-14.3" font-family="Times,serif" font-size="14.00">USub</text>
</g>
<!-- ast.UnaryOp object at 0x70478f7ed890&#45;&gt;ast.USub object at 0x7047913aa990 -->
<g id="edge9" class="edge">
<title>ast.UnaryOp object at 0x70478f7ed890&#45;&gt;ast.USub object at 0x7047913aa990</title>
<path fill="none" stroke="black" d="M809.53,-71.7C819.38,-62.97 831.49,-52.24 842.2,-42.75"/>
<polygon fill="black" stroke="black" points="844.53,-45.36 849.7,-36.1 839.89,-40.12 844.53,-45.36"/>
</g>
<!-- ast.Constant object at 0x70478f7ed550 -->
<g id="node11" class="node">
<title>ast.Constant object at 0x70478f7ed550</title>
<path fill="#66cdaa" stroke="black" d="M811.5,-36C811.5,-36 770.5,-36 770.5,-36 764.5,-36 758.5,-30 758.5,-24 758.5,-24 758.5,-12 758.5,-12 758.5,-6 764.5,0 770.5,0 770.5,0 811.5,0 811.5,0 817.5,0 823.5,-6 823.5,-12 823.5,-12 823.5,-24 823.5,-24 823.5,-30 817.5,-36 811.5,-36"/>
<text text-anchor="middle" x="791" y="-14.3" font-family="Times,serif" font-size="14.00">Constant</text>
</g>
<!-- ast.UnaryOp object at 0x70478f7ed890&#45;&gt;ast.Constant object at 0x70478f7ed550 -->
<g id="edge10" class="edge">
<title>ast.UnaryOp object at 0x70478f7ed890&#45;&gt;ast.Constant object at 0x70478f7ed550</title>
<path fill="none" stroke="black" d="M790.25,-71.7C790.36,-63.98 790.49,-54.71 790.61,-46.11"/>
<polygon fill="black" stroke="black" points="794.11,-46.15 790.76,-36.1 787.11,-46.05 794.11,-46.15"/>
</g>
<!-- ast.UnaryOp object at 0x70478f7ece90&#45;&gt;ast.USub object at 0x7047913aa990 -->
<g id="edge12" class="edge">
<title>ast.UnaryOp object at 0x70478f7ece90&#45;&gt;ast.USub object at 0x7047913aa990</title>
<path fill="none" stroke="black" d="M873.52,-71.7C872.86,-63.98 872.06,-54.71 871.32,-46.11"/>
<polygon fill="black" stroke="black" points="874.81,-45.77 870.47,-36.1 867.83,-46.37 874.81,-45.77"/>
</g>
<!-- ast.Constant object at 0x70478f7ee590 -->
<g id="node13" class="node">
<title>ast.Constant object at 0x70478f7ee590</title>
<path fill="#66cdaa" stroke="black" d="M967.5,-36C967.5,-36 926.5,-36 926.5,-36 920.5,-36 914.5,-30 914.5,-24 914.5,-24 914.5,-12 914.5,-12 914.5,-6 920.5,0 926.5,0 926.5,0 967.5,0 967.5,0 973.5,0 979.5,-6 979.5,-12 979.5,-12 979.5,-24 979.5,-24 979.5,-30 973.5,-36 967.5,-36"/>
<text text-anchor="middle" x="947" y="-14.3" font-family="Times,serif" font-size="14.00">Constant</text>
</g>
<!-- ast.UnaryOp object at 0x70478f7ece90&#45;&gt;ast.Constant object at 0x70478f7ee590 -->
<g id="edge13" class="edge">
<title>ast.UnaryOp object at 0x70478f7ece90&#45;&gt;ast.Constant object at 0x70478f7ee590</title>
<path fill="none" stroke="black" d="M892.8,-71.7C901.6,-63.14 912.38,-52.66 922,-43.3"/>
<polygon fill="black" stroke="black" points="924.68,-45.58 929.41,-36.1 919.8,-40.57 924.68,-45.58"/>
</g>
<!-- ast.BoolOp object at 0x70478f876450 -->
<g id="node16" class="node">
<title>ast.BoolOp object at 0x70478f876450</title>
<path fill="#66cdaa" stroke="black" d="M395.5,-684C395.5,-684 360.5,-684 360.5,-684 354.5,-684 348.5,-678 348.5,-672 348.5,-672 348.5,-660 348.5,-660 348.5,-654 354.5,-648 360.5,-648 360.5,-648 395.5,-648 395.5,-648 401.5,-648 407.5,-654 407.5,-660 407.5,-660 407.5,-672 407.5,-672 407.5,-678 401.5,-684 395.5,-684"/>
<text text-anchor="middle" x="378" y="-662.3" font-family="Times,serif" font-size="14.00">BoolOp</text>
</g>
<!-- ast.Return object at 0x70478f7ec610&#45;&gt;ast.BoolOp object at 0x70478f876450 -->
<g id="edge16" class="edge">
<title>ast.Return object at 0x70478f7ec610&#45;&gt;ast.BoolOp object at 0x70478f876450</title>
<path fill="none" stroke="black" d="M381.01,-719.7C380.57,-711.98 380.04,-702.71 379.55,-694.11"/>
<polygon fill="black" stroke="black" points="383.04,-693.89 378.98,-684.1 376.05,-694.29 383.04,-693.89"/>
</g>
<!-- ast.Or object at 0x7047913a9e50 -->
<g id="node17" class="node">
<title>ast.Or object at 0x7047913a9e50</title>
<path fill="#66cdaa" stroke="black" d="M429,-612C429,-612 399,-612 399,-612 393,-612 387,-606 387,-600 387,-600 387,-588 387,-588 387,-582 393,-576 399,-576 399,-576 429,-576 429,-576 435,-576 441,-582 441,-588 441,-588 441,-600 441,-600 441,-606 435,-612 429,-612"/>
<text text-anchor="middle" x="414" y="-590.3" font-family="Times,serif" font-size="14.00">Or</text>
</g>
<!-- ast.BoolOp object at 0x70478f876450&#45;&gt;ast.Or object at 0x7047913a9e50 -->
<g id="edge17" class="edge">
<title>ast.BoolOp object at 0x70478f876450&#45;&gt;ast.Or object at 0x7047913a9e50</title>
<path fill="none" stroke="black" d="M386.9,-647.7C391,-639.73 395.95,-630.1 400.49,-621.26"/>
<polygon fill="black" stroke="black" points="403.74,-622.6 405.2,-612.1 397.52,-619.4 403.74,-622.6"/>
</g>
<!-- ast.Call object at 0x70478f747050 -->
<g id="node18" class="node">
<title>ast.Call object at 0x70478f747050</title>
<path fill="#66cdaa" stroke="black" d="M357,-612C357,-612 327,-612 327,-612 321,-612 315,-606 315,-600 315,-600 315,-588 315,-588 315,-582 321,-576 327,-576 327,-576 357,-576 357,-576 363,-576 369,-582 369,-588 369,-588 369,-600 369,-600 369,-606 363,-612 357,-612"/>
<text text-anchor="middle" x="342" y="-590.3" font-family="Times,serif" font-size="14.00">Call</text>
</g>
<!-- ast.BoolOp object at 0x70478f876450&#45;&gt;ast.Call object at 0x70478f747050 -->
<g id="edge18" class="edge">
<title>ast.BoolOp object at 0x70478f876450&#45;&gt;ast.Call object at 0x70478f747050</title>
<path fill="none" stroke="black" d="M369.1,-647.7C365,-639.73 360.05,-630.1 355.51,-621.26"/>
<polygon fill="black" stroke="black" points="358.48,-619.4 350.8,-612.1 352.26,-622.6 358.48,-619.4"/>
</g>
<!-- ast.Constant object at 0x70478f6262d0 -->
<g id="node42" class="node">
<title>ast.Constant object at 0x70478f6262d0</title>
<path fill="#66cdaa" stroke="black" d="M284.5,-612C284.5,-612 243.5,-612 243.5,-612 237.5,-612 231.5,-606 231.5,-600 231.5,-600 231.5,-588 231.5,-588 231.5,-582 237.5,-576 243.5,-576 243.5,-576 284.5,-576 284.5,-576 290.5,-576 296.5,-582 296.5,-588 296.5,-588 296.5,-600 296.5,-600 296.5,-606 290.5,-612 284.5,-612"/>
<text text-anchor="middle" x="264" y="-590.3" font-family="Times,serif" font-size="14.00">Constant</text>
</g>
<!-- ast.BoolOp object at 0x70478f876450&#45;&gt;ast.Constant object at 0x70478f6262d0 -->
<g id="edge52" class="edge">
<title>ast.BoolOp object at 0x70478f876450&#45;&gt;ast.Constant object at 0x70478f6262d0</title>
<path fill="none" stroke="black" d="M350.11,-647.88C335.21,-638.72 316.67,-627.34 300.62,-617.48"/>
<polygon fill="black" stroke="black" points="302.35,-614.44 291.99,-612.19 298.69,-620.41 302.35,-614.44"/>
</g>
<!-- ast.Name object at 0x70478f747f50 -->
<g id="node19" class="node">
<title>ast.Name object at 0x70478f747f50</title>
<path fill="#66cdaa" stroke="black" d="M194,-540C194,-540 164,-540 164,-540 158,-540 152,-534 152,-528 152,-528 152,-516 152,-516 152,-510 158,-504 164,-504 164,-504 194,-504 194,-504 200,-504 206,-510 206,-516 206,-516 206,-528 206,-528 206,-534 200,-540 194,-540"/>
<text text-anchor="middle" x="179" y="-518.3" font-family="Times,serif" font-size="14.00">Name</text>
</g>
<!-- ast.Call object at 0x70478f747050&#45;&gt;ast.Name object at 0x70478f747f50 -->
<g id="edge19" class="edge">
<title>ast.Call object at 0x70478f747050&#45;&gt;ast.Name object at 0x70478f747f50</title>
<path fill="none" stroke="black" d="M314.97,-580.46C311.62,-578.94 308.24,-577.42 305,-576 275.08,-562.84 240.89,-548.5 215.68,-538.06"/>
<polygon fill="black" stroke="black" points="216.72,-534.7 206.15,-534.12 214.05,-541.17 216.72,-534.7"/>
</g>
<!-- ast.GeneratorExp object at 0x70478f747d90 -->
<g id="node20" class="node">
<title>ast.GeneratorExp object at 0x70478f747d90</title>
<path fill="#66cdaa" stroke="black" d="M376,-540C376,-540 308,-540 308,-540 302,-540 296,-534 296,-528 296,-528 296,-516 296,-516 296,-510 302,-504 308,-504 308,-504 376,-504 376,-504 382,-504 388,-510 388,-516 388,-516 388,-528 388,-528 388,-534 382,-540 376,-540"/>
<text text-anchor="middle" x="342" y="-518.3" font-family="Times,serif" font-size="14.00">GeneratorExp</text>
</g>
<!-- ast.Call object at 0x70478f747050&#45;&gt;ast.GeneratorExp object at 0x70478f747d90 -->
<g id="edge21" class="edge">
<title>ast.Call object at 0x70478f747050&#45;&gt;ast.GeneratorExp object at 0x70478f747d90</title>
<path fill="none" stroke="black" d="M342,-575.7C342,-567.98 342,-558.71 342,-550.11"/>
<polygon fill="black" stroke="black" points="345.5,-550.1 342,-540.1 338.5,-550.1 345.5,-550.1"/>
</g>
<!-- ast.Name object at 0x70478f747f50&#45;&gt;ast.Load object at 0x7047913a9b10 -->
<g id="edge20" class="edge">
<title>ast.Name object at 0x70478f747f50&#45;&gt;ast.Load object at 0x7047913a9b10</title>
<path fill="none" stroke="black" d="M151.81,-513.34C101.74,-497.39 0,-455.56 0,-379 0,-379 0,-379 0,-161 0,-118.66 1.46,-99.09 34,-72 71.5,-40.78 215.04,-26.54 283.82,-21.4"/>
<polygon fill="black" stroke="black" points="284.08,-24.89 293.8,-20.68 283.58,-17.91 284.08,-24.89"/>
</g>
<!-- ast.Name object at 0x70478f87fed0 -->
<g id="node21" class="node">
<title>ast.Name object at 0x70478f87fed0</title>
<path fill="#66cdaa" stroke="black" d="M202,-468C202,-468 172,-468 172,-468 166,-468 160,-462 160,-456 160,-456 160,-444 160,-444 160,-438 166,-432 172,-432 172,-432 202,-432 202,-432 208,-432 214,-438 214,-444 214,-444 214,-456 214,-456 214,-462 208,-468 202,-468"/>
<text text-anchor="middle" x="187" y="-446.3" font-family="Times,serif" font-size="14.00">Name</text>
</g>
<!-- ast.GeneratorExp object at 0x70478f747d90&#45;&gt;ast.Name object at 0x70478f87fed0 -->
<g id="edge22" class="edge">
<title>ast.GeneratorExp object at 0x70478f747d90&#45;&gt;ast.Name object at 0x70478f87fed0</title>
<path fill="none" stroke="black" d="M304.08,-503.88C279.56,-492.8 247.8,-478.46 223.55,-467.5"/>
<polygon fill="black" stroke="black" points="224.87,-464.26 214.32,-463.34 221.99,-470.64 224.87,-464.26"/>
</g>
<!-- ast.comprehension object at 0x70478f87ea90 -->
<g id="node22" class="node">
<title>ast.comprehension object at 0x70478f87ea90</title>
<path fill="#66cdaa" stroke="black" d="M452,-468C452,-468 376,-468 376,-468 370,-468 364,-462 364,-456 364,-456 364,-444 364,-444 364,-438 370,-432 376,-432 376,-432 452,-432 452,-432 458,-432 464,-438 464,-444 464,-444 464,-456 464,-456 464,-462 458,-468 452,-468"/>
<text text-anchor="middle" x="414" y="-446.3" font-family="Times,serif" font-size="14.00">comprehension</text>
</g>
<!-- ast.GeneratorExp object at 0x70478f747d90&#45;&gt;ast.comprehension object at 0x70478f87ea90 -->
<g id="edge24" class="edge">
<title>ast.GeneratorExp object at 0x70478f747d90&#45;&gt;ast.comprehension object at 0x70478f87ea90</title>
<path fill="none" stroke="black" d="M359.8,-503.7C368.6,-495.14 379.38,-484.66 389,-475.3"/>
<polygon fill="black" stroke="black" points="391.68,-477.58 396.41,-468.1 386.8,-472.57 391.68,-477.58"/>
</g>
<!-- ast.Name object at 0x70478f87fed0&#45;&gt;ast.Load object at 0x7047913a9b10 -->
<g id="edge23" class="edge">
<title>ast.Name object at 0x70478f87fed0&#45;&gt;ast.Load object at 0x7047913a9b10</title>
<path fill="none" stroke="black" d="M159.67,-437.86C116.66,-418.31 38,-373.47 38,-307 38,-307 38,-307 38,-161 38,-120.55 28.23,-100.43 57,-72 88.58,-40.8 218.61,-26.72 283.63,-21.53"/>
<polygon fill="black" stroke="black" points="284.15,-25 293.86,-20.75 283.62,-18.03 284.15,-25"/>
</g>
<!-- ast.Name object at 0x70478f7a98d0 -->
<g id="node23" class="node">
<title>ast.Name object at 0x70478f7a98d0</title>
<path fill="#66cdaa" stroke="black" d="M392,-396C392,-396 362,-396 362,-396 356,-396 350,-390 350,-384 350,-384 350,-372 350,-372 350,-366 356,-360 362,-360 362,-360 392,-360 392,-360 398,-360 404,-366 404,-372 404,-372 404,-384 404,-384 404,-390 398,-396 392,-396"/>
<text text-anchor="middle" x="377" y="-374.3" font-family="Times,serif" font-size="14.00">Name</text>
</g>
<!-- ast.comprehension object at 0x70478f87ea90&#45;&gt;ast.Name object at 0x70478f7a98d0 -->
<g id="edge25" class="edge">
<title>ast.comprehension object at 0x70478f87ea90&#45;&gt;ast.Name object at 0x70478f7a98d0</title>
<path fill="none" stroke="black" d="M404.85,-431.7C400.6,-423.64 395.44,-413.89 390.73,-404.98"/>
<polygon fill="black" stroke="black" points="393.81,-403.31 386.04,-396.1 387.62,-406.58 393.81,-403.31"/>
</g>
<!-- ast.Subscript object at 0x70478f7a88d0 -->
<g id="node24" class="node">
<title>ast.Subscript object at 0x70478f7a88d0</title>
<path fill="#66cdaa" stroke="black" d="M642,-180C642,-180 598,-180 598,-180 592,-180 586,-174 586,-168 586,-168 586,-156 586,-156 586,-150 592,-144 598,-144 598,-144 642,-144 642,-144 648,-144 654,-150 654,-156 654,-156 654,-168 654,-168 654,-174 648,-180 642,-180"/>
<text text-anchor="middle" x="620" y="-158.3" font-family="Times,serif" font-size="14.00">Subscript</text>
</g>
<!-- ast.comprehension object at 0x70478f87ea90&#45;&gt;ast.Subscript object at 0x70478f7a88d0 -->
<g id="edge27" class="edge">
<title>ast.comprehension object at 0x70478f87ea90&#45;&gt;ast.Subscript object at 0x70478f7a88d0</title>
<path fill="none" stroke="black" d="M448.22,-431.86C485.61,-411.35 544.5,-373.48 577,-324 604.23,-282.54 614.28,-224.4 617.94,-190.52"/>
<polygon fill="black" stroke="black" points="621.44,-190.72 618.92,-180.42 614.47,-190.04 621.44,-190.72"/>
</g>
<!-- ast.Call object at 0x70478f6259d0 -->
<g id="node29" class="node">
<title>ast.Call object at 0x70478f6259d0</title>
<path fill="#66cdaa" stroke="black" d="M465,-396C465,-396 435,-396 435,-396 429,-396 423,-390 423,-384 423,-384 423,-372 423,-372 423,-366 429,-360 435,-360 435,-360 465,-360 465,-360 471,-360 477,-366 477,-372 477,-372 477,-384 477,-384 477,-390 471,-396 465,-396"/>
<text text-anchor="middle" x="450" y="-374.3" font-family="Times,serif" font-size="14.00">Call</text>
</g>
<!-- ast.comprehension object at 0x70478f87ea90&#45;&gt;ast.Call object at 0x70478f6259d0 -->
<g id="edge34" class="edge">
<title>ast.comprehension object at 0x70478f87ea90&#45;&gt;ast.Call object at 0x70478f6259d0</title>
<path fill="none" stroke="black" d="M422.9,-431.7C427,-423.73 431.95,-414.1 436.49,-405.26"/>
<polygon fill="black" stroke="black" points="439.74,-406.6 441.2,-396.1 433.52,-403.4 439.74,-406.6"/>
</g>
<!-- ast.Name object at 0x70478f7a98d0&#45;&gt;ast.Store object at 0x7047913a9b90 -->
<g id="edge26" class="edge">
<title>ast.Name object at 0x70478f7a98d0&#45;&gt;ast.Store object at 0x7047913a9b90</title>
<path fill="none" stroke="black" d="M375.38,-359.72C372.3,-320.21 368.11,-220.77 395,-144 398.38,-134.34 403.99,-124.77 409.78,-116.49"/>
<polygon fill="black" stroke="black" points="412.66,-118.48 415.79,-108.36 407.03,-114.31 412.66,-118.48"/>
</g>
<!-- ast.Subscript object at 0x70478f7a88d0&#45;&gt;ast.Load object at 0x7047913a9b10 -->
<g id="edge33" class="edge">
<title>ast.Subscript object at 0x70478f7a88d0&#45;&gt;ast.Load object at 0x7047913a9b10</title>
<path fill="none" stroke="black" d="M601.66,-143.84C575.42,-119.41 529.26,-76.98 520,-72 467.76,-43.88 399.63,-29.95 358.16,-23.62"/>
<polygon fill="black" stroke="black" points="358.62,-20.15 348.22,-22.18 357.61,-27.08 358.62,-20.15"/>
</g>
<!-- ast.Name object at 0x70478f625e50 -->
<g id="node25" class="node">
<title>ast.Name object at 0x70478f625e50</title>
<path fill="#66cdaa" stroke="black" d="M614,-108C614,-108 584,-108 584,-108 578,-108 572,-102 572,-96 572,-96 572,-84 572,-84 572,-78 578,-72 584,-72 584,-72 614,-72 614,-72 620,-72 626,-78 626,-84 626,-84 626,-96 626,-96 626,-102 620,-108 614,-108"/>
<text text-anchor="middle" x="599" y="-86.3" font-family="Times,serif" font-size="14.00">Name</text>
</g>
<!-- ast.Subscript object at 0x70478f7a88d0&#45;&gt;ast.Name object at 0x70478f625e50 -->
<g id="edge28" class="edge">
<title>ast.Subscript object at 0x70478f7a88d0&#45;&gt;ast.Name object at 0x70478f625e50</title>
<path fill="none" stroke="black" d="M614.81,-143.7C612.47,-135.9 609.65,-126.51 607.05,-117.83"/>
<polygon fill="black" stroke="black" points="610.36,-116.68 604.13,-108.1 603.65,-118.69 610.36,-116.68"/>
</g>
<!-- ast.Slice object at 0x70478f625990 -->
<g id="node26" class="node">
<title>ast.Slice object at 0x70478f625990</title>
<path fill="#66cdaa" stroke="black" d="M724,-108C724,-108 694,-108 694,-108 688,-108 682,-102 682,-96 682,-96 682,-84 682,-84 682,-78 688,-72 694,-72 694,-72 724,-72 724,-72 730,-72 736,-78 736,-84 736,-84 736,-96 736,-96 736,-102 730,-108 724,-108"/>
<text text-anchor="middle" x="709" y="-86.3" font-family="Times,serif" font-size="14.00">Slice</text>
</g>
<!-- ast.Subscript object at 0x70478f7a88d0&#45;&gt;ast.Slice object at 0x70478f625990 -->
<g id="edge30" class="edge">
<title>ast.Subscript object at 0x70478f7a88d0&#45;&gt;ast.Slice object at 0x70478f625990</title>
<path fill="none" stroke="black" d="M642,-143.7C653.21,-134.88 667,-124.03 679.15,-114.47"/>
<polygon fill="black" stroke="black" points="681.56,-117.04 687.25,-108.1 677.23,-111.54 681.56,-117.04"/>
</g>
<!-- ast.Name object at 0x70478f625e50&#45;&gt;ast.Load object at 0x7047913a9b10 -->
<g id="edge29" class="edge">
<title>ast.Name object at 0x70478f625e50&#45;&gt;ast.Load object at 0x7047913a9b10</title>
<path fill="none" stroke="black" d="M571.9,-76.99C567.31,-75.18 562.55,-73.44 558,-72 488.68,-50.06 405.2,-33.63 358.1,-25.24"/>
<polygon fill="black" stroke="black" points="358.51,-21.76 348.06,-23.48 357.3,-28.65 358.51,-21.76"/>
</g>
<!-- ast.Constant object at 0x70478f625950 -->
<g id="node27" class="node">
<title>ast.Constant object at 0x70478f625950</title>
<path fill="#66cdaa" stroke="black" d="M728.5,-36C728.5,-36 687.5,-36 687.5,-36 681.5,-36 675.5,-30 675.5,-24 675.5,-24 675.5,-12 675.5,-12 675.5,-6 681.5,0 687.5,0 687.5,0 728.5,0 728.5,0 734.5,0 740.5,-6 740.5,-12 740.5,-12 740.5,-24 740.5,-24 740.5,-30 734.5,-36 728.5,-36"/>
<text text-anchor="middle" x="708" y="-14.3" font-family="Times,serif" font-size="14.00">Constant</text>
</g>
<!-- ast.Slice object at 0x70478f625990&#45;&gt;ast.Constant object at 0x70478f625950 -->
<g id="edge31" class="edge">
<title>ast.Slice object at 0x70478f625990&#45;&gt;ast.Constant object at 0x70478f625950</title>
<path fill="none" stroke="black" d="M708.75,-71.7C708.64,-63.98 708.51,-54.71 708.39,-46.11"/>
<polygon fill="black" stroke="black" points="711.89,-46.05 708.24,-36.1 704.89,-46.15 711.89,-46.05"/>
</g>
<!-- ast.Constant object at 0x70478f625a10 -->
<g id="node28" class="node">
<title>ast.Constant object at 0x70478f625a10</title>
<path fill="#66cdaa" stroke="black" d="M645.5,-36C645.5,-36 604.5,-36 604.5,-36 598.5,-36 592.5,-30 592.5,-24 592.5,-24 592.5,-12 592.5,-12 592.5,-6 598.5,0 604.5,0 604.5,0 645.5,0 645.5,0 651.5,0 657.5,-6 657.5,-12 657.5,-12 657.5,-24 657.5,-24 657.5,-30 651.5,-36 645.5,-36"/>
<text text-anchor="middle" x="625" y="-14.3" font-family="Times,serif" font-size="14.00">Constant</text>
</g>
<!-- ast.Slice object at 0x70478f625990&#45;&gt;ast.Constant object at 0x70478f625a10 -->
<g id="edge32" class="edge">
<title>ast.Slice object at 0x70478f625990&#45;&gt;ast.Constant object at 0x70478f625a10</title>
<path fill="none" stroke="black" d="M688.24,-71.7C677.76,-62.97 664.89,-52.24 653.5,-42.75"/>
<polygon fill="black" stroke="black" points="655.45,-39.82 645.53,-36.1 650.97,-45.19 655.45,-39.82"/>
</g>
<!-- ast.Name object at 0x70478f625590 -->
<g id="node30" class="node">
<title>ast.Name object at 0x70478f625590</title>
<path fill="#66cdaa" stroke="black" d="M556,-324C556,-324 526,-324 526,-324 520,-324 514,-318 514,-312 514,-312 514,-300 514,-300 514,-294 520,-288 526,-288 526,-288 556,-288 556,-288 562,-288 568,-294 568,-300 568,-300 568,-312 568,-312 568,-318 562,-324 556,-324"/>
<text text-anchor="middle" x="541" y="-302.3" font-family="Times,serif" font-size="14.00">Name</text>
</g>
<!-- ast.Call object at 0x70478f6259d0&#45;&gt;ast.Name object at 0x70478f625590 -->
<g id="edge35" class="edge">
<title>ast.Call object at 0x70478f6259d0&#45;&gt;ast.Name object at 0x70478f625590</title>
<path fill="none" stroke="black" d="M472.49,-359.7C483.96,-350.88 498.06,-340.03 510.48,-330.47"/>
<polygon fill="black" stroke="black" points="512.97,-332.98 518.76,-324.1 508.7,-327.43 512.97,-332.98"/>
</g>
<!-- ast.GeneratorExp object at 0x70478f6256d0 -->
<g id="node31" class="node">
<title>ast.GeneratorExp object at 0x70478f6256d0</title>
<path fill="#66cdaa" stroke="black" d="M484,-324C484,-324 416,-324 416,-324 410,-324 404,-318 404,-312 404,-312 404,-300 404,-300 404,-294 410,-288 416,-288 416,-288 484,-288 484,-288 490,-288 496,-294 496,-300 496,-300 496,-312 496,-312 496,-318 490,-324 484,-324"/>
<text text-anchor="middle" x="450" y="-302.3" font-family="Times,serif" font-size="14.00">GeneratorExp</text>
</g>
<!-- ast.Call object at 0x70478f6259d0&#45;&gt;ast.GeneratorExp object at 0x70478f6256d0 -->
<g id="edge37" class="edge">
<title>ast.Call object at 0x70478f6259d0&#45;&gt;ast.GeneratorExp object at 0x70478f6256d0</title>
<path fill="none" stroke="black" d="M450,-359.7C450,-351.98 450,-342.71 450,-334.11"/>
<polygon fill="black" stroke="black" points="453.5,-334.1 450,-324.1 446.5,-334.1 453.5,-334.1"/>
</g>
<!-- ast.Name object at 0x70478f625590&#45;&gt;ast.Load object at 0x7047913a9b10 -->
<g id="edge36" class="edge">
<title>ast.Name object at 0x70478f625590&#45;&gt;ast.Load object at 0x7047913a9b10</title>
<path fill="none" stroke="black" d="M544.88,-287.69C550.83,-257.24 559.52,-192.68 539,-144 508.28,-71.11 411.72,-38.76 357.99,-26.1"/>
<polygon fill="black" stroke="black" points="358.69,-22.67 348.17,-23.89 357.16,-29.5 358.69,-22.67"/>
</g>
<!-- ast.Compare object at 0x70478f625850 -->
<g id="node32" class="node">
<title>ast.Compare object at 0x70478f625850</title>
<path fill="#66cdaa" stroke="black" d="M231.5,-252C231.5,-252 188.5,-252 188.5,-252 182.5,-252 176.5,-246 176.5,-240 176.5,-240 176.5,-228 176.5,-228 176.5,-222 182.5,-216 188.5,-216 188.5,-216 231.5,-216 231.5,-216 237.5,-216 243.5,-222 243.5,-228 243.5,-228 243.5,-240 243.5,-240 243.5,-246 237.5,-252 231.5,-252"/>
<text text-anchor="middle" x="210" y="-230.3" font-family="Times,serif" font-size="14.00">Compare</text>
</g>
<!-- ast.GeneratorExp object at 0x70478f6256d0&#45;&gt;ast.Compare object at 0x70478f625850 -->
<g id="edge38" class="edge">
<title>ast.GeneratorExp object at 0x70478f6256d0&#45;&gt;ast.Compare object at 0x70478f625850</title>
<path fill="none" stroke="black" d="M403.73,-291.5C360.35,-278.85 295.98,-260.08 253.52,-247.69"/>
<polygon fill="black" stroke="black" points="254.33,-244.28 243.75,-244.84 252.37,-251 254.33,-244.28"/>
</g>
<!-- ast.comprehension object at 0x70478f625810 -->
<g id="node39" class="node">
<title>ast.comprehension object at 0x70478f625810</title>
<path fill="#66cdaa" stroke="black" d="M492,-252C492,-252 416,-252 416,-252 410,-252 404,-246 404,-240 404,-240 404,-228 404,-228 404,-222 410,-216 416,-216 416,-216 492,-216 492,-216 498,-216 504,-222 504,-228 504,-228 504,-240 504,-240 504,-246 498,-252 492,-252"/>
<text text-anchor="middle" x="454" y="-230.3" font-family="Times,serif" font-size="14.00">comprehension</text>
</g>
<!-- ast.GeneratorExp object at 0x70478f6256d0&#45;&gt;ast.comprehension object at 0x70478f625810 -->
<g id="edge47" class="edge">
<title>ast.GeneratorExp object at 0x70478f6256d0&#45;&gt;ast.comprehension object at 0x70478f625810</title>
<path fill="none" stroke="black" d="M450.99,-287.7C451.43,-279.98 451.96,-270.71 452.45,-262.11"/>
<polygon fill="black" stroke="black" points="455.95,-262.29 453.02,-252.1 448.96,-261.89 455.95,-262.29"/>
</g>
<!-- ast.BinOp object at 0x70478f625ad0 -->
<g id="node33" class="node">
<title>ast.BinOp object at 0x70478f625ad0</title>
<path fill="#66cdaa" stroke="black" d="M108,-180C108,-180 78,-180 78,-180 72,-180 66,-174 66,-168 66,-168 66,-156 66,-156 66,-150 72,-144 78,-144 78,-144 108,-144 108,-144 114,-144 120,-150 120,-156 120,-156 120,-168 120,-168 120,-174 114,-180 108,-180"/>
<text text-anchor="middle" x="93" y="-158.3" font-family="Times,serif" font-size="14.00">BinOp</text>
</g>
<!-- ast.Compare object at 0x70478f625850&#45;&gt;ast.BinOp object at 0x70478f625ad0 -->
<g id="edge39" class="edge">
<title>ast.Compare object at 0x70478f625850&#45;&gt;ast.BinOp object at 0x70478f625ad0</title>
<path fill="none" stroke="black" d="M181.38,-215.88C165.62,-206.45 145.92,-194.66 129.11,-184.61"/>
<polygon fill="black" stroke="black" points="130.5,-181.36 120.12,-179.23 126.9,-187.36 130.5,-181.36"/>
</g>
<!-- ast.Eq object at 0x7047913aab10 -->
<g id="node37" class="node">
<title>ast.Eq object at 0x7047913aab10</title>
<path fill="#66cdaa" stroke="black" d="M264,-180C264,-180 234,-180 234,-180 228,-180 222,-174 222,-168 222,-168 222,-156 222,-156 222,-150 228,-144 234,-144 234,-144 264,-144 264,-144 270,-144 276,-150 276,-156 276,-156 276,-168 276,-168 276,-174 270,-180 264,-180"/>
<text text-anchor="middle" x="249" y="-158.3" font-family="Times,serif" font-size="14.00">Eq</text>
</g>
<!-- ast.Compare object at 0x70478f625850&#45;&gt;ast.Eq object at 0x7047913aab10 -->
<g id="edge45" class="edge">
<title>ast.Compare object at 0x70478f625850&#45;&gt;ast.Eq object at 0x7047913aab10</title>
<path fill="none" stroke="black" d="M219.64,-215.7C224.13,-207.64 229.56,-197.89 234.52,-188.98"/>
<polygon fill="black" stroke="black" points="237.66,-190.54 239.47,-180.1 231.55,-187.14 237.66,-190.54"/>
</g>
<!-- ast.Constant object at 0x70478f6258d0 -->
<g id="node38" class="node">
<title>ast.Constant object at 0x70478f6258d0</title>
<path fill="#66cdaa" stroke="black" d="M191.5,-180C191.5,-180 150.5,-180 150.5,-180 144.5,-180 138.5,-174 138.5,-168 138.5,-168 138.5,-156 138.5,-156 138.5,-150 144.5,-144 150.5,-144 150.5,-144 191.5,-144 191.5,-144 197.5,-144 203.5,-150 203.5,-156 203.5,-156 203.5,-168 203.5,-168 203.5,-174 197.5,-180 191.5,-180"/>
<text text-anchor="middle" x="171" y="-158.3" font-family="Times,serif" font-size="14.00">Constant</text>
</g>
<!-- ast.Compare object at 0x70478f625850&#45;&gt;ast.Constant object at 0x70478f6258d0 -->
<g id="edge46" class="edge">
<title>ast.Compare object at 0x70478f625850&#45;&gt;ast.Constant object at 0x70478f6258d0</title>
<path fill="none" stroke="black" d="M200.36,-215.7C195.87,-207.64 190.44,-197.89 185.48,-188.98"/>
<polygon fill="black" stroke="black" points="188.45,-187.14 180.53,-180.1 182.34,-190.54 188.45,-187.14"/>
</g>
<!-- ast.Name object at 0x70478f625610 -->
<g id="node34" class="node">
<title>ast.Name object at 0x70478f625610</title>
<path fill="#66cdaa" stroke="black" d="M188,-108C188,-108 158,-108 158,-108 152,-108 146,-102 146,-96 146,-96 146,-84 146,-84 146,-78 152,-72 158,-72 158,-72 188,-72 188,-72 194,-72 200,-78 200,-84 200,-84 200,-96 200,-96 200,-102 194,-108 188,-108"/>
<text text-anchor="middle" x="173" y="-86.3" font-family="Times,serif" font-size="14.00">Name</text>
</g>
<!-- ast.BinOp object at 0x70478f625ad0&#45;&gt;ast.Name object at 0x70478f625610 -->
<g id="edge40" class="edge">
<title>ast.BinOp object at 0x70478f625ad0&#45;&gt;ast.Name object at 0x70478f625610</title>
<path fill="none" stroke="black" d="M112.78,-143.7C122.75,-134.97 135.01,-124.24 145.86,-114.75"/>
<polygon fill="black" stroke="black" points="148.23,-117.32 153.45,-108.1 143.62,-112.06 148.23,-117.32"/>
</g>
<!-- ast.Mod object at 0x7047913aa290 -->
<g id="node35" class="node">
<title>ast.Mod object at 0x7047913aa290</title>
<path fill="#66cdaa" stroke="black" d="M108,-108C108,-108 78,-108 78,-108 72,-108 66,-102 66,-96 66,-96 66,-84 66,-84 66,-78 72,-72 78,-72 78,-72 108,-72 108,-72 114,-72 120,-78 120,-84 120,-84 120,-96 120,-96 120,-102 114,-108 108,-108"/>
<text text-anchor="middle" x="93" y="-86.3" font-family="Times,serif" font-size="14.00">Mod</text>
</g>
<!-- ast.BinOp object at 0x70478f625ad0&#45;&gt;ast.Mod object at 0x7047913aa290 -->
<g id="edge42" class="edge">
<title>ast.BinOp object at 0x70478f625ad0&#45;&gt;ast.Mod object at 0x7047913aa290</title>
<path fill="none" stroke="black" d="M93,-143.7C93,-135.98 93,-126.71 93,-118.11"/>
<polygon fill="black" stroke="black" points="96.5,-118.1 93,-108.1 89.5,-118.1 96.5,-118.1"/>
</g>
<!-- ast.Name object at 0x70478f625f10 -->
<g id="node36" class="node">
<title>ast.Name object at 0x70478f625f10</title>
<path fill="#66cdaa" stroke="black" d="M274,-108C274,-108 244,-108 244,-108 238,-108 232,-102 232,-96 232,-96 232,-84 232,-84 232,-78 238,-72 244,-72 244,-72 274,-72 274,-72 280,-72 286,-78 286,-84 286,-84 286,-96 286,-96 286,-102 280,-108 274,-108"/>
<text text-anchor="middle" x="259" y="-86.3" font-family="Times,serif" font-size="14.00">Name</text>
</g>
<!-- ast.BinOp object at 0x70478f625ad0&#45;&gt;ast.Name object at 0x70478f625f10 -->
<g id="edge43" class="edge">
<title>ast.BinOp object at 0x70478f625ad0&#45;&gt;ast.Name object at 0x70478f625f10</title>
<path fill="none" stroke="black" d="M120.05,-148.03C123.06,-146.65 126.09,-145.28 129,-144 160.26,-130.26 196.24,-115.68 222.41,-105.3"/>
<polygon fill="black" stroke="black" points="223.92,-108.47 231.93,-101.54 221.35,-101.96 223.92,-108.47"/>
</g>
<!-- ast.Name object at 0x70478f625610&#45;&gt;ast.Load object at 0x7047913a9b10 -->
<g id="edge41" class="edge">
<title>ast.Name object at 0x70478f625610&#45;&gt;ast.Load object at 0x7047913a9b10</title>
<path fill="none" stroke="black" d="M200.15,-76.16C223.85,-64.95 258.46,-48.58 284.58,-36.23"/>
<polygon fill="black" stroke="black" points="286.23,-39.32 293.78,-31.88 283.24,-32.99 286.23,-39.32"/>
</g>
<!-- ast.Name object at 0x70478f625f10&#45;&gt;ast.Load object at 0x7047913a9b10 -->
<g id="edge44" class="edge">
<title>ast.Name object at 0x70478f625f10&#45;&gt;ast.Load object at 0x7047913a9b10</title>
<path fill="none" stroke="black" d="M274.33,-71.7C281.76,-63.3 290.82,-53.07 298.98,-43.86"/>
<polygon fill="black" stroke="black" points="301.84,-45.91 305.85,-36.1 296.6,-41.27 301.84,-45.91"/>
</g>
<!-- ast.Name object at 0x70478f625d50 -->
<g id="node40" class="node">
<title>ast.Name object at 0x70478f625d50</title>
<path fill="#66cdaa" stroke="black" d="M446,-180C446,-180 416,-180 416,-180 410,-180 404,-174 404,-168 404,-168 404,-156 404,-156 404,-150 410,-144 416,-144 416,-144 446,-144 446,-144 452,-144 458,-150 458,-156 458,-156 458,-168 458,-168 458,-174 452,-180 446,-180"/>
<text text-anchor="middle" x="431" y="-158.3" font-family="Times,serif" font-size="14.00">Name</text>
</g>
<!-- ast.comprehension object at 0x70478f625810&#45;&gt;ast.Name object at 0x70478f625d50 -->
<g id="edge48" class="edge">
<title>ast.comprehension object at 0x70478f625810&#45;&gt;ast.Name object at 0x70478f625d50</title>
<path fill="none" stroke="black" d="M448.31,-215.7C445.75,-207.9 442.67,-198.51 439.82,-189.83"/>
<polygon fill="black" stroke="black" points="443.07,-188.51 436.62,-180.1 436.42,-190.7 443.07,-188.51"/>
</g>
<!-- ast.Name object at 0x70478f625650 -->
<g id="node41" class="node">
<title>ast.Name object at 0x70478f625650</title>
<path fill="#66cdaa" stroke="black" d="M336,-180C336,-180 306,-180 306,-180 300,-180 294,-174 294,-168 294,-168 294,-156 294,-156 294,-150 300,-144 306,-144 306,-144 336,-144 336,-144 342,-144 348,-150 348,-156 348,-156 348,-168 348,-168 348,-174 342,-180 336,-180"/>
<text text-anchor="middle" x="321" y="-158.3" font-family="Times,serif" font-size="14.00">Name</text>
</g>
<!-- ast.comprehension object at 0x70478f625810&#45;&gt;ast.Name object at 0x70478f625650 -->
<g id="edge50" class="edge">
<title>ast.comprehension object at 0x70478f625810&#45;&gt;ast.Name object at 0x70478f625650</title>
<path fill="none" stroke="black" d="M421.46,-215.88C401.99,-205.63 377.21,-192.58 357.13,-182.01"/>
<polygon fill="black" stroke="black" points="358.75,-178.91 348.27,-177.35 355.49,-185.11 358.75,-178.91"/>
</g>
<!-- ast.Name object at 0x70478f625d50&#45;&gt;ast.Store object at 0x7047913a9b90 -->
<g id="edge49" class="edge">
<title>ast.Name object at 0x70478f625d50&#45;&gt;ast.Store object at 0x7047913a9b90</title>
<path fill="none" stroke="black" d="M431,-143.7C431,-135.98 431,-126.71 431,-118.11"/>
<polygon fill="black" stroke="black" points="434.5,-118.1 431,-108.1 427.5,-118.1 434.5,-118.1"/>
</g>
<!-- ast.Name object at 0x70478f625650&#45;&gt;ast.Load object at 0x7047913a9b10 -->
<g id="edge51" class="edge">
<title>ast.Name object at 0x70478f625650&#45;&gt;ast.Load object at 0x7047913a9b10</title>
<path fill="none" stroke="black" d="M321,-143.87C321,-119.67 321,-75.21 321,-46.39"/>
<polygon fill="black" stroke="black" points="324.5,-46.19 321,-36.19 317.5,-46.19 324.5,-46.19"/>
</g>
</g>
</svg>
