<?xml version="1.0" encoding="UTF-8" standalone="no"?>
<!DOCTYPE svg PUBLIC "-//W3C//DTD SVG 1.1//EN"
 "http://www.w3.org/Graphics/SVG/1.1/DTD/svg11.dtd">
<!-- Generated by graphviz version 2.50.0 (0)
 -->
<!-- Pages: 1 -->
<svg width="1012pt" height="620pt"
 viewBox="0.00 0.00 1011.51 620.00" xmlns="http://www.w3.org/2000/svg" xmlns:xlink="http://www.w3.org/1999/xlink">
<g id="graph0" class="graph" transform="scale(1 1) rotate(0) translate(4 616)">
<polygon fill="white" stroke="transparent" points="-4,4 -4,-616 1007.51,-616 1007.51,4 -4,4"/>
<!-- ast.Module object at 0x7a3b06131750 -->
<g id="node1" class="node">
<title>ast.Module object at 0x7a3b06131750</title>
<path fill="#66cdaa" stroke="black" d="M794.5,-612C794.5,-612 759.5,-612 759.5,-612 753.5,-612 747.5,-606 747.5,-600 747.5,-600 747.5,-588 747.5,-588 747.5,-582 753.5,-576 759.5,-576 759.5,-576 794.5,-576 794.5,-576 800.5,-576 806.5,-582 806.5,-588 806.5,-588 806.5,-600 806.5,-600 806.5,-606 800.5,-612 794.5,-612"/>
<text text-anchor="middle" x="777" y="-590.3" font-family="Times,serif" font-size="14.00">Module</text>
</g>
<!-- ast.FunctionDef object at 0x7a3b06132a10 -->
<g id="node2" class="node">
<title>ast.FunctionDef object at 0x7a3b06132a10</title>
<path fill="#66cdaa" stroke="black" d="M807.5,-540C807.5,-540 746.5,-540 746.5,-540 740.5,-540 734.5,-534 734.5,-528 734.5,-528 734.5,-516 734.5,-516 734.5,-510 740.5,-504 746.5,-504 746.5,-504 807.5,-504 807.5,-504 813.5,-504 819.5,-510 819.5,-516 819.5,-516 819.5,-528 819.5,-528 819.5,-534 813.5,-540 807.5,-540"/>
<text text-anchor="middle" x="777" y="-518.3" font-family="Times,serif" font-size="14.00">FunctionDef</text>
</g>
<!-- ast.Module object at 0x7a3b06131750&#45;&gt;ast.FunctionDef object at 0x7a3b06132a10 -->
<g id="edge1" class="edge">
<title>ast.Module object at 0x7a3b06131750&#45;&gt;ast.FunctionDef object at 0x7a3b06132a10</title>
<path fill="none" stroke="black" d="M777,-575.7C777,-567.98 777,-558.71 777,-550.11"/>
<polygon fill="black" stroke="black" points="780.5,-550.1 777,-540.1 773.5,-550.1 780.5,-550.1"/>
</g>
<!-- ast.arguments object at 0x7a3b06130b10 -->
<g id="node3" class="node">
<title>ast.arguments object at 0x7a3b06130b10</title>
<path fill="#66cdaa" stroke="black" d="M530,-468C530,-468 480,-468 480,-468 474,-468 468,-462 468,-456 468,-456 468,-444 468,-444 468,-438 474,-432 480,-432 480,-432 530,-432 530,-432 536,-432 542,-438 542,-444 542,-444 542,-456 542,-456 542,-462 536,-468 530,-468"/>
<text text-anchor="middle" x="505" y="-446.3" font-family="Times,serif" font-size="14.00">arguments</text>
</g>
<!-- ast.FunctionDef object at 0x7a3b06132a10&#45;&gt;ast.arguments object at 0x7a3b06130b10 -->
<g id="edge2" class="edge">
<title>ast.FunctionDef object at 0x7a3b06132a10&#45;&gt;ast.arguments object at 0x7a3b06130b10</title>
<path fill="none" stroke="black" d="M734.2,-509.99C684.69,-497.24 603.43,-476.33 552.14,-463.13"/>
<polygon fill="black" stroke="black" points="552.86,-459.7 542.3,-460.6 551.12,-466.48 552.86,-459.7"/>
</g>
<!-- ast.Assign object at 0x7a3b06132d10 -->
<g id="node5" class="node">
<title>ast.Assign object at 0x7a3b06132d10</title>
<path fill="#66cdaa" stroke="black" d="M829,-468C829,-468 799,-468 799,-468 793,-468 787,-462 787,-456 787,-456 787,-444 787,-444 787,-438 793,-432 799,-432 799,-432 829,-432 829,-432 835,-432 841,-438 841,-444 841,-444 841,-456 841,-456 841,-462 835,-468 829,-468"/>
<text text-anchor="middle" x="814" y="-446.3" font-family="Times,serif" font-size="14.00">Assign</text>
</g>
<!-- ast.FunctionDef object at 0x7a3b06132a10&#45;&gt;ast.Assign object at 0x7a3b06132d10 -->
<g id="edge4" class="edge">
<title>ast.FunctionDef object at 0x7a3b06132a10&#45;&gt;ast.Assign object at 0x7a3b06132d10</title>
<path fill="none" stroke="black" d="M786.15,-503.7C790.4,-495.64 795.56,-485.89 800.27,-476.98"/>
<polygon fill="black" stroke="black" points="803.38,-478.58 804.96,-468.1 797.19,-475.31 803.38,-478.58"/>
</g>
<!-- ast.For object at 0x7a3b06130c10 -->
<g id="node12" class="node">
<title>ast.For object at 0x7a3b06130c10</title>
<path fill="#66cdaa" stroke="black" d="M729,-468C729,-468 699,-468 699,-468 693,-468 687,-462 687,-456 687,-456 687,-444 687,-444 687,-438 693,-432 699,-432 699,-432 729,-432 729,-432 735,-432 741,-438 741,-444 741,-444 741,-456 741,-456 741,-462 735,-468 729,-468"/>
<text text-anchor="middle" x="714" y="-446.3" font-family="Times,serif" font-size="14.00">For</text>
</g>
<!-- ast.FunctionDef object at 0x7a3b06132a10&#45;&gt;ast.For object at 0x7a3b06130c10 -->
<g id="edge12" class="edge">
<title>ast.FunctionDef object at 0x7a3b06132a10&#45;&gt;ast.For object at 0x7a3b06130c10</title>
<path fill="none" stroke="black" d="M761.43,-503.7C753.8,-495.22 744.48,-484.86 736.12,-475.58"/>
<polygon fill="black" stroke="black" points="738.69,-473.2 729.39,-468.1 733.48,-477.88 738.69,-473.2"/>
</g>
<!-- ast.Return object at 0x7a3b06131050 -->
<g id="node37" class="node">
<title>ast.Return object at 0x7a3b06131050</title>
<path fill="#66cdaa" stroke="black" d="M911,-468C911,-468 881,-468 881,-468 875,-468 869,-462 869,-456 869,-456 869,-444 869,-444 869,-438 875,-432 881,-432 881,-432 911,-432 911,-432 917,-432 923,-438 923,-444 923,-444 923,-456 923,-456 923,-462 917,-468 911,-468"/>
<text text-anchor="middle" x="896" y="-446.3" font-family="Times,serif" font-size="14.00">Return</text>
</g>
<!-- ast.FunctionDef object at 0x7a3b06132a10&#45;&gt;ast.Return object at 0x7a3b06131050 -->
<g id="edge47" class="edge">
<title>ast.FunctionDef object at 0x7a3b06132a10&#45;&gt;ast.Return object at 0x7a3b06131050</title>
<path fill="none" stroke="black" d="M806.11,-503.88C822.4,-494.29 842.84,-482.27 860.12,-472.11"/>
<polygon fill="black" stroke="black" points="861.98,-475.07 868.82,-466.99 858.43,-469.04 861.98,-475.07"/>
</g>
<!-- ast.arg object at 0x7a3b06130910 -->
<g id="node4" class="node">
<title>ast.arg object at 0x7a3b06130910</title>
<path fill="#66cdaa" stroke="black" d="M366,-396C366,-396 336,-396 336,-396 330,-396 324,-390 324,-384 324,-384 324,-372 324,-372 324,-366 330,-360 336,-360 336,-360 366,-360 366,-360 372,-360 378,-366 378,-372 378,-372 378,-384 378,-384 378,-390 372,-396 366,-396"/>
<text text-anchor="middle" x="351" y="-374.3" font-family="Times,serif" font-size="14.00">arg</text>
</g>
<!-- ast.arguments object at 0x7a3b06130b10&#45;&gt;ast.arg object at 0x7a3b06130910 -->
<g id="edge3" class="edge">
<title>ast.arguments object at 0x7a3b06130b10&#45;&gt;ast.arg object at 0x7a3b06130910</title>
<path fill="none" stroke="black" d="M467.98,-432.59C446.69,-423.1 419.24,-410.79 387.25,-396.08"/>
<polygon fill="black" stroke="black" points="388.65,-392.87 378.1,-391.87 385.72,-399.23 388.65,-392.87"/>
</g>
<!-- ast.Name object at 0x7a3b06132650 -->
<g id="node6" class="node">
<title>ast.Name object at 0x7a3b06132650</title>
<path fill="#66cdaa" stroke="black" d="M829,-396C829,-396 799,-396 799,-396 793,-396 787,-390 787,-384 787,-384 787,-372 787,-372 787,-366 793,-360 799,-360 799,-360 829,-360 829,-360 835,-360 841,-366 841,-372 841,-372 841,-384 841,-384 841,-390 835,-396 829,-396"/>
<text text-anchor="middle" x="814" y="-374.3" font-family="Times,serif" font-size="14.00">Name</text>
</g>
<!-- ast.Assign object at 0x7a3b06132d10&#45;&gt;ast.Name object at 0x7a3b06132650 -->
<g id="edge5" class="edge">
<title>ast.Assign object at 0x7a3b06132d10&#45;&gt;ast.Name object at 0x7a3b06132650</title>
<path fill="none" stroke="black" d="M814,-431.7C814,-423.98 814,-414.71 814,-406.11"/>
<polygon fill="black" stroke="black" points="817.5,-406.1 814,-396.1 810.5,-406.1 817.5,-406.1"/>
</g>
<!-- ast.Subscript object at 0x7a3b06132690 -->
<g id="node8" class="node">
<title>ast.Subscript object at 0x7a3b06132690</title>
<path fill="#66cdaa" stroke="black" d="M891,-180C891,-180 847,-180 847,-180 841,-180 835,-174 835,-168 835,-168 835,-156 835,-156 835,-150 841,-144 847,-144 847,-144 891,-144 891,-144 897,-144 903,-150 903,-156 903,-156 903,-168 903,-168 903,-174 897,-180 891,-180"/>
<text text-anchor="middle" x="869" y="-158.3" font-family="Times,serif" font-size="14.00">Subscript</text>
</g>
<!-- ast.Assign object at 0x7a3b06132d10&#45;&gt;ast.Subscript object at 0x7a3b06132690 -->
<g id="edge7" class="edge">
<title>ast.Assign object at 0x7a3b06132d10&#45;&gt;ast.Subscript object at 0x7a3b06132690</title>
<path fill="none" stroke="black" d="M829.18,-431.63C836.82,-421.85 845.41,-409.01 850,-396 875,-325.1 873.77,-234.82 871.18,-190.32"/>
<polygon fill="black" stroke="black" points="874.67,-190.04 870.52,-180.28 867.68,-190.49 874.67,-190.04"/>
</g>
<!-- ast.Store object at 0x7a3b1afb1c10 -->
<g id="node7" class="node">
<title>ast.Store object at 0x7a3b1afb1c10</title>
<path fill="#66cdaa" stroke="black" d="M793,-324C793,-324 763,-324 763,-324 757,-324 751,-318 751,-312 751,-312 751,-300 751,-300 751,-294 757,-288 763,-288 763,-288 793,-288 793,-288 799,-288 805,-294 805,-300 805,-300 805,-312 805,-312 805,-318 799,-324 793,-324"/>
<text text-anchor="middle" x="778" y="-302.3" font-family="Times,serif" font-size="14.00">Store</text>
</g>
<!-- ast.Name object at 0x7a3b06132650&#45;&gt;ast.Store object at 0x7a3b1afb1c10 -->
<g id="edge6" class="edge">
<title>ast.Name object at 0x7a3b06132650&#45;&gt;ast.Store object at 0x7a3b1afb1c10</title>
<path fill="none" stroke="black" d="M805.1,-359.7C801,-351.73 796.05,-342.1 791.51,-333.26"/>
<polygon fill="black" stroke="black" points="794.48,-331.4 786.8,-324.1 788.26,-334.6 794.48,-331.4"/>
</g>
<!-- ast.Name object at 0x7a3b06132590 -->
<g id="node9" class="node">
<title>ast.Name object at 0x7a3b06132590</title>
<path fill="#66cdaa" stroke="black" d="M884,-108C884,-108 854,-108 854,-108 848,-108 842,-102 842,-96 842,-96 842,-84 842,-84 842,-78 848,-72 854,-72 854,-72 884,-72 884,-72 890,-72 896,-78 896,-84 896,-84 896,-96 896,-96 896,-102 890,-108 884,-108"/>
<text text-anchor="middle" x="869" y="-86.3" font-family="Times,serif" font-size="14.00">Name</text>
</g>
<!-- ast.Subscript object at 0x7a3b06132690&#45;&gt;ast.Name object at 0x7a3b06132590 -->
<g id="edge8" class="edge">
<title>ast.Subscript object at 0x7a3b06132690&#45;&gt;ast.Name object at 0x7a3b06132590</title>
<path fill="none" stroke="black" d="M869,-143.7C869,-135.98 869,-126.71 869,-118.11"/>
<polygon fill="black" stroke="black" points="872.5,-118.1 869,-108.1 865.5,-118.1 872.5,-118.1"/>
</g>
<!-- ast.Load object at 0x7a3b1afb1b90 -->
<g id="node10" class="node">
<title>ast.Load object at 0x7a3b1afb1b90</title>
<path fill="#66cdaa" stroke="black" d="M628,-36C628,-36 598,-36 598,-36 592,-36 586,-30 586,-24 586,-24 586,-12 586,-12 586,-6 592,0 598,0 598,0 628,0 628,0 634,0 640,-6 640,-12 640,-12 640,-24 640,-24 640,-30 634,-36 628,-36"/>
<text text-anchor="middle" x="613" y="-14.3" font-family="Times,serif" font-size="14.00">Load</text>
</g>
<!-- ast.Subscript object at 0x7a3b06132690&#45;&gt;ast.Load object at 0x7a3b1afb1b90 -->
<g id="edge11" class="edge">
<title>ast.Subscript object at 0x7a3b06132690&#45;&gt;ast.Load object at 0x7a3b1afb1b90</title>
<path fill="none" stroke="black" d="M855.89,-143.81C839.81,-123.86 810.77,-91.23 779,-72 738.37,-47.4 685.14,-33.04 650.05,-25.61"/>
<polygon fill="black" stroke="black" points="650.71,-22.17 640.21,-23.61 649.31,-29.03 650.71,-22.17"/>
</g>
<!-- ast.Slice object at 0x7a3b06131110 -->
<g id="node11" class="node">
<title>ast.Slice object at 0x7a3b06131110</title>
<path fill="#66cdaa" stroke="black" d="M956,-108C956,-108 926,-108 926,-108 920,-108 914,-102 914,-96 914,-96 914,-84 914,-84 914,-78 920,-72 926,-72 926,-72 956,-72 956,-72 962,-72 968,-78 968,-84 968,-84 968,-96 968,-96 968,-102 962,-108 956,-108"/>
<text text-anchor="middle" x="941" y="-86.3" font-family="Times,serif" font-size="14.00">Slice</text>
</g>
<!-- ast.Subscript object at 0x7a3b06132690&#45;&gt;ast.Slice object at 0x7a3b06131110 -->
<g id="edge10" class="edge">
<title>ast.Subscript object at 0x7a3b06132690&#45;&gt;ast.Slice object at 0x7a3b06131110</title>
<path fill="none" stroke="black" d="M886.8,-143.7C895.6,-135.14 906.38,-124.66 916,-115.3"/>
<polygon fill="black" stroke="black" points="918.68,-117.58 923.41,-108.1 913.8,-112.57 918.68,-117.58"/>
</g>
<!-- ast.Name object at 0x7a3b06132590&#45;&gt;ast.Load object at 0x7a3b1afb1b90 -->
<g id="edge9" class="edge">
<title>ast.Name object at 0x7a3b06132590&#45;&gt;ast.Load object at 0x7a3b1afb1b90</title>
<path fill="none" stroke="black" d="M841.87,-77.08C837.28,-75.26 832.54,-73.49 828,-72 766.76,-51.88 693.51,-35.38 650.25,-26.39"/>
<polygon fill="black" stroke="black" points="650.68,-22.91 640.18,-24.32 649.28,-29.76 650.68,-22.91"/>
</g>
<!-- ast.Name object at 0x7a3b061300d0 -->
<g id="node13" class="node">
<title>ast.Name object at 0x7a3b061300d0</title>
<path fill="#66cdaa" stroke="black" d="M757,-396C757,-396 727,-396 727,-396 721,-396 715,-390 715,-384 715,-384 715,-372 715,-372 715,-366 721,-360 727,-360 727,-360 757,-360 757,-360 763,-360 769,-366 769,-372 769,-372 769,-384 769,-384 769,-390 763,-396 757,-396"/>
<text text-anchor="middle" x="742" y="-374.3" font-family="Times,serif" font-size="14.00">Name</text>
</g>
<!-- ast.For object at 0x7a3b06130c10&#45;&gt;ast.Name object at 0x7a3b061300d0 -->
<g id="edge13" class="edge">
<title>ast.For object at 0x7a3b06130c10&#45;&gt;ast.Name object at 0x7a3b061300d0</title>
<path fill="none" stroke="black" d="M720.92,-431.7C724.07,-423.81 727.88,-414.3 731.38,-405.55"/>
<polygon fill="black" stroke="black" points="734.69,-406.69 735.16,-396.1 728.19,-404.09 734.69,-406.69"/>
</g>
<!-- ast.Call object at 0x7a3b06131910 -->
<g id="node14" class="node">
<title>ast.Call object at 0x7a3b06131910</title>
<path fill="#66cdaa" stroke="black" d="M710,-252C710,-252 680,-252 680,-252 674,-252 668,-246 668,-240 668,-240 668,-228 668,-228 668,-222 674,-216 680,-216 680,-216 710,-216 710,-216 716,-216 722,-222 722,-228 722,-228 722,-240 722,-240 722,-246 716,-252 710,-252"/>
<text text-anchor="middle" x="695" y="-230.3" font-family="Times,serif" font-size="14.00">Call</text>
</g>
<!-- ast.For object at 0x7a3b06130c10&#45;&gt;ast.Call object at 0x7a3b06131910 -->
<g id="edge15" class="edge">
<title>ast.For object at 0x7a3b06130c10&#45;&gt;ast.Call object at 0x7a3b06131910</title>
<path fill="none" stroke="black" d="M711.05,-431.86C709.36,-421.5 707.32,-408.03 706,-396 700.9,-349.41 697.77,-294.97 696.21,-262.82"/>
<polygon fill="black" stroke="black" points="699.69,-262.26 695.72,-252.43 692.7,-262.59 699.69,-262.26"/>
</g>
<!-- ast.If object at 0x7a3b06131190 -->
<g id="node19" class="node">
<title>ast.If object at 0x7a3b06131190</title>
<path fill="#66cdaa" stroke="black" d="M438,-396C438,-396 408,-396 408,-396 402,-396 396,-390 396,-384 396,-384 396,-372 396,-372 396,-366 402,-360 408,-360 408,-360 438,-360 438,-360 444,-360 450,-366 450,-372 450,-372 450,-384 450,-384 450,-390 444,-396 438,-396"/>
<text text-anchor="middle" x="423" y="-374.3" font-family="Times,serif" font-size="14.00">If</text>
</g>
<!-- ast.For object at 0x7a3b06130c10&#45;&gt;ast.If object at 0x7a3b06131190 -->
<g id="edge23" class="edge">
<title>ast.For object at 0x7a3b06130c10&#45;&gt;ast.If object at 0x7a3b06131190</title>
<path fill="none" stroke="black" d="M686.88,-442.48C634.58,-429.89 519.66,-402.25 460.23,-387.96"/>
<polygon fill="black" stroke="black" points="460.69,-384.47 450.15,-385.53 459.06,-391.27 460.69,-384.47"/>
</g>
<!-- ast.Name object at 0x7a3b061300d0&#45;&gt;ast.Store object at 0x7a3b1afb1c10 -->
<g id="edge14" class="edge">
<title>ast.Name object at 0x7a3b061300d0&#45;&gt;ast.Store object at 0x7a3b1afb1c10</title>
<path fill="none" stroke="black" d="M750.9,-359.7C755,-351.73 759.95,-342.1 764.49,-333.26"/>
<polygon fill="black" stroke="black" points="767.74,-334.6 769.2,-324.1 761.52,-331.4 767.74,-334.6"/>
</g>
<!-- ast.Name object at 0x7a3b06131650 -->
<g id="node15" class="node">
<title>ast.Name object at 0x7a3b06131650</title>
<path fill="#66cdaa" stroke="black" d="M787,-180C787,-180 757,-180 757,-180 751,-180 745,-174 745,-168 745,-168 745,-156 745,-156 745,-150 751,-144 757,-144 757,-144 787,-144 787,-144 793,-144 799,-150 799,-156 799,-156 799,-168 799,-168 799,-174 793,-180 787,-180"/>
<text text-anchor="middle" x="772" y="-158.3" font-family="Times,serif" font-size="14.00">Name</text>
</g>
<!-- ast.Call object at 0x7a3b06131910&#45;&gt;ast.Name object at 0x7a3b06131650 -->
<g id="edge16" class="edge">
<title>ast.Call object at 0x7a3b06131910&#45;&gt;ast.Name object at 0x7a3b06131650</title>
<path fill="none" stroke="black" d="M714.03,-215.7C723.54,-207.05 735.21,-196.45 745.57,-187.03"/>
<polygon fill="black" stroke="black" points="748.14,-189.42 753.19,-180.1 743.43,-184.24 748.14,-189.42"/>
</g>
<!-- ast.Call object at 0x7a3b06130dd0 -->
<g id="node16" class="node">
<title>ast.Call object at 0x7a3b06130dd0</title>
<path fill="#66cdaa" stroke="black" d="M710,-180C710,-180 680,-180 680,-180 674,-180 668,-174 668,-168 668,-168 668,-156 668,-156 668,-150 674,-144 680,-144 680,-144 710,-144 710,-144 716,-144 722,-150 722,-156 722,-156 722,-168 722,-168 722,-174 716,-180 710,-180"/>
<text text-anchor="middle" x="695" y="-158.3" font-family="Times,serif" font-size="14.00">Call</text>
</g>
<!-- ast.Call object at 0x7a3b06131910&#45;&gt;ast.Call object at 0x7a3b06130dd0 -->
<g id="edge18" class="edge">
<title>ast.Call object at 0x7a3b06131910&#45;&gt;ast.Call object at 0x7a3b06130dd0</title>
<path fill="none" stroke="black" d="M695,-215.7C695,-207.98 695,-198.71 695,-190.11"/>
<polygon fill="black" stroke="black" points="698.5,-190.1 695,-180.1 691.5,-190.1 698.5,-190.1"/>
</g>
<!-- ast.Name object at 0x7a3b06131650&#45;&gt;ast.Load object at 0x7a3b1afb1b90 -->
<g id="edge17" class="edge">
<title>ast.Name object at 0x7a3b06131650&#45;&gt;ast.Load object at 0x7a3b1afb1b90</title>
<path fill="none" stroke="black" d="M773.86,-143.86C775.02,-124.26 773.81,-92.26 757,-72 730.68,-40.27 683.56,-27.54 650.4,-22.42"/>
<polygon fill="black" stroke="black" points="650.56,-18.91 640.18,-21.02 649.61,-25.85 650.56,-18.91"/>
</g>
<!-- ast.Name object at 0x7a3b06130a10 -->
<g id="node17" class="node">
<title>ast.Name object at 0x7a3b06130a10</title>
<path fill="#66cdaa" stroke="black" d="M736,-108C736,-108 706,-108 706,-108 700,-108 694,-102 694,-96 694,-96 694,-84 694,-84 694,-78 700,-72 706,-72 706,-72 736,-72 736,-72 742,-72 748,-78 748,-84 748,-84 748,-96 748,-96 748,-102 742,-108 736,-108"/>
<text text-anchor="middle" x="721" y="-86.3" font-family="Times,serif" font-size="14.00">Name</text>
</g>
<!-- ast.Call object at 0x7a3b06130dd0&#45;&gt;ast.Name object at 0x7a3b06130a10 -->
<g id="edge19" class="edge">
<title>ast.Call object at 0x7a3b06130dd0&#45;&gt;ast.Name object at 0x7a3b06130a10</title>
<path fill="none" stroke="black" d="M701.43,-143.7C704.36,-135.81 707.89,-126.3 711.14,-117.55"/>
<polygon fill="black" stroke="black" points="714.45,-118.7 714.65,-108.1 707.88,-116.26 714.45,-118.7"/>
</g>
<!-- ast.Name object at 0x7a3b06130310 -->
<g id="node18" class="node">
<title>ast.Name object at 0x7a3b06130310</title>
<path fill="#66cdaa" stroke="black" d="M664,-108C664,-108 634,-108 634,-108 628,-108 622,-102 622,-96 622,-96 622,-84 622,-84 622,-78 628,-72 634,-72 634,-72 664,-72 664,-72 670,-72 676,-78 676,-84 676,-84 676,-96 676,-96 676,-102 670,-108 664,-108"/>
<text text-anchor="middle" x="649" y="-86.3" font-family="Times,serif" font-size="14.00">Name</text>
</g>
<!-- ast.Call object at 0x7a3b06130dd0&#45;&gt;ast.Name object at 0x7a3b06130310 -->
<g id="edge21" class="edge">
<title>ast.Call object at 0x7a3b06130dd0&#45;&gt;ast.Name object at 0x7a3b06130310</title>
<path fill="none" stroke="black" d="M683.63,-143.7C678.28,-135.56 671.8,-125.69 665.89,-116.7"/>
<polygon fill="black" stroke="black" points="668.66,-114.54 660.24,-108.1 662.81,-118.38 668.66,-114.54"/>
</g>
<!-- ast.Name object at 0x7a3b06130a10&#45;&gt;ast.Load object at 0x7a3b1afb1b90 -->
<g id="edge20" class="edge">
<title>ast.Name object at 0x7a3b06130a10&#45;&gt;ast.Load object at 0x7a3b1afb1b90</title>
<path fill="none" stroke="black" d="M694.58,-71.88C680.59,-62.81 663.22,-51.55 648.11,-41.76"/>
<polygon fill="black" stroke="black" points="649.82,-38.69 639.52,-36.19 646.01,-44.57 649.82,-38.69"/>
</g>
<!-- ast.Name object at 0x7a3b06130310&#45;&gt;ast.Load object at 0x7a3b1afb1b90 -->
<g id="edge22" class="edge">
<title>ast.Name object at 0x7a3b06130310&#45;&gt;ast.Load object at 0x7a3b1afb1b90</title>
<path fill="none" stroke="black" d="M640.1,-71.7C636,-63.73 631.05,-54.1 626.51,-45.26"/>
<polygon fill="black" stroke="black" points="629.48,-43.4 621.8,-36.1 623.26,-46.6 629.48,-43.4"/>
</g>
<!-- ast.Compare object at 0x7a3b06130450 -->
<g id="node20" class="node">
<title>ast.Compare object at 0x7a3b06130450</title>
<path fill="#66cdaa" stroke="black" d="M313.5,-324C313.5,-324 270.5,-324 270.5,-324 264.5,-324 258.5,-318 258.5,-312 258.5,-312 258.5,-300 258.5,-300 258.5,-294 264.5,-288 270.5,-288 270.5,-288 313.5,-288 313.5,-288 319.5,-288 325.5,-294 325.5,-300 325.5,-300 325.5,-312 325.5,-312 325.5,-318 319.5,-324 313.5,-324"/>
<text text-anchor="middle" x="292" y="-302.3" font-family="Times,serif" font-size="14.00">Compare</text>
</g>
<!-- ast.If object at 0x7a3b06131190&#45;&gt;ast.Compare object at 0x7a3b06130450 -->
<g id="edge24" class="edge">
<title>ast.If object at 0x7a3b06131190&#45;&gt;ast.Compare object at 0x7a3b06130450</title>
<path fill="none" stroke="black" d="M395.86,-362.5C377.79,-352.84 353.71,-339.98 333.29,-329.06"/>
<polygon fill="black" stroke="black" points="334.66,-325.83 324.2,-324.2 331.37,-332 334.66,-325.83"/>
</g>
<!-- ast.Expr object at 0x7a3b06130650 -->
<g id="node24" class="node">
<title>ast.Expr object at 0x7a3b06130650</title>
<path fill="#66cdaa" stroke="black" d="M438,-324C438,-324 408,-324 408,-324 402,-324 396,-318 396,-312 396,-312 396,-300 396,-300 396,-294 402,-288 408,-288 408,-288 438,-288 438,-288 444,-288 450,-294 450,-300 450,-300 450,-312 450,-312 450,-318 444,-324 438,-324"/>
<text text-anchor="middle" x="423" y="-302.3" font-family="Times,serif" font-size="14.00">Expr</text>
</g>
<!-- ast.If object at 0x7a3b06131190&#45;&gt;ast.Expr object at 0x7a3b06130650 -->
<g id="edge29" class="edge">
<title>ast.If object at 0x7a3b06131190&#45;&gt;ast.Expr object at 0x7a3b06130650</title>
<path fill="none" stroke="black" d="M423,-359.7C423,-351.98 423,-342.71 423,-334.11"/>
<polygon fill="black" stroke="black" points="426.5,-334.1 423,-324.1 419.5,-334.1 426.5,-334.1"/>
</g>
<!-- ast.Return object at 0x7a3b06130790 -->
<g id="node35" class="node">
<title>ast.Return object at 0x7a3b06130790</title>
<path fill="#66cdaa" stroke="black" d="M196,-324C196,-324 166,-324 166,-324 160,-324 154,-318 154,-312 154,-312 154,-300 154,-300 154,-294 160,-288 166,-288 166,-288 196,-288 196,-288 202,-288 208,-294 208,-300 208,-300 208,-312 208,-312 208,-318 202,-324 196,-324"/>
<text text-anchor="middle" x="181" y="-302.3" font-family="Times,serif" font-size="14.00">Return</text>
</g>
<!-- ast.If object at 0x7a3b06131190&#45;&gt;ast.Return object at 0x7a3b06130790 -->
<g id="edge44" class="edge">
<title>ast.If object at 0x7a3b06131190&#45;&gt;ast.Return object at 0x7a3b06130790</title>
<path fill="none" stroke="black" d="M395.71,-363.46C392.8,-362.21 389.86,-361.03 387,-360 378.97,-357.1 275.08,-330.74 217.99,-316.32"/>
<polygon fill="black" stroke="black" points="218.79,-312.92 208.24,-313.86 217.08,-319.7 218.79,-312.92"/>
</g>
<!-- ast.Name object at 0x7a3b06130510 -->
<g id="node21" class="node">
<title>ast.Name object at 0x7a3b06130510</title>
<path fill="#66cdaa" stroke="black" d="M169,-252C169,-252 139,-252 139,-252 133,-252 127,-246 127,-240 127,-240 127,-228 127,-228 127,-222 133,-216 139,-216 139,-216 169,-216 169,-216 175,-216 181,-222 181,-228 181,-228 181,-240 181,-240 181,-246 175,-252 169,-252"/>
<text text-anchor="middle" x="154" y="-230.3" font-family="Times,serif" font-size="14.00">Name</text>
</g>
<!-- ast.Compare object at 0x7a3b06130450&#45;&gt;ast.Name object at 0x7a3b06130510 -->
<g id="edge25" class="edge">
<title>ast.Compare object at 0x7a3b06130450&#45;&gt;ast.Name object at 0x7a3b06130510</title>
<path fill="none" stroke="black" d="M258.24,-287.88C237.67,-277.44 211.38,-264.1 190.35,-253.44"/>
<polygon fill="black" stroke="black" points="191.89,-250.3 181.39,-248.9 188.73,-256.54 191.89,-250.3"/>
</g>
<!-- ast.Eq object at 0x7a3b1afb2b90 -->
<g id="node22" class="node">
<title>ast.Eq object at 0x7a3b1afb2b90</title>
<path fill="#66cdaa" stroke="black" d="M268,-252C268,-252 238,-252 238,-252 232,-252 226,-246 226,-240 226,-240 226,-228 226,-228 226,-222 232,-216 238,-216 238,-216 268,-216 268,-216 274,-216 280,-222 280,-228 280,-228 280,-240 280,-240 280,-246 274,-252 268,-252"/>
<text text-anchor="middle" x="253" y="-230.3" font-family="Times,serif" font-size="14.00">Eq</text>
</g>
<!-- ast.Compare object at 0x7a3b06130450&#45;&gt;ast.Eq object at 0x7a3b1afb2b90 -->
<g id="edge27" class="edge">
<title>ast.Compare object at 0x7a3b06130450&#45;&gt;ast.Eq object at 0x7a3b1afb2b90</title>
<path fill="none" stroke="black" d="M282.36,-287.7C277.87,-279.64 272.44,-269.89 267.48,-260.98"/>
<polygon fill="black" stroke="black" points="270.45,-259.14 262.53,-252.1 264.34,-262.54 270.45,-259.14"/>
</g>
<!-- ast.Constant object at 0x7a3b06130610 -->
<g id="node23" class="node">
<title>ast.Constant object at 0x7a3b06130610</title>
<path fill="#66cdaa" stroke="black" d="M351.5,-252C351.5,-252 310.5,-252 310.5,-252 304.5,-252 298.5,-246 298.5,-240 298.5,-240 298.5,-228 298.5,-228 298.5,-222 304.5,-216 310.5,-216 310.5,-216 351.5,-216 351.5,-216 357.5,-216 363.5,-222 363.5,-228 363.5,-228 363.5,-240 363.5,-240 363.5,-246 357.5,-252 351.5,-252"/>
<text text-anchor="middle" x="331" y="-230.3" font-family="Times,serif" font-size="14.00">Constant</text>
</g>
<!-- ast.Compare object at 0x7a3b06130450&#45;&gt;ast.Constant object at 0x7a3b06130610 -->
<g id="edge28" class="edge">
<title>ast.Compare object at 0x7a3b06130450&#45;&gt;ast.Constant object at 0x7a3b06130610</title>
<path fill="none" stroke="black" d="M301.64,-287.7C306.13,-279.64 311.56,-269.89 316.52,-260.98"/>
<polygon fill="black" stroke="black" points="319.66,-262.54 321.47,-252.1 313.55,-259.14 319.66,-262.54"/>
</g>
<!-- ast.Name object at 0x7a3b06130510&#45;&gt;ast.Load object at 0x7a3b1afb1b90 -->
<g id="edge26" class="edge">
<title>ast.Name object at 0x7a3b06130510&#45;&gt;ast.Load object at 0x7a3b1afb1b90</title>
<path fill="none" stroke="black" d="M132.68,-215.76C96.21,-184.27 29.54,-116.6 70,-72 103.94,-34.58 458.42,-22.72 575.62,-19.81"/>
<polygon fill="black" stroke="black" points="575.97,-23.3 585.88,-19.56 575.8,-16.3 575.97,-23.3"/>
</g>
<!-- ast.Call object at 0x7a3b06130690 -->
<g id="node25" class="node">
<title>ast.Call object at 0x7a3b06130690</title>
<path fill="#66cdaa" stroke="black" d="M438,-252C438,-252 408,-252 408,-252 402,-252 396,-246 396,-240 396,-240 396,-228 396,-228 396,-222 402,-216 408,-216 408,-216 438,-216 438,-216 444,-216 450,-222 450,-228 450,-228 450,-240 450,-240 450,-246 444,-252 438,-252"/>
<text text-anchor="middle" x="423" y="-230.3" font-family="Times,serif" font-size="14.00">Call</text>
</g>
<!-- ast.Expr object at 0x7a3b06130650&#45;&gt;ast.Call object at 0x7a3b06130690 -->
<g id="edge30" class="edge">
<title>ast.Expr object at 0x7a3b06130650&#45;&gt;ast.Call object at 0x7a3b06130690</title>
<path fill="none" stroke="black" d="M423,-287.7C423,-279.98 423,-270.71 423,-262.11"/>
<polygon fill="black" stroke="black" points="426.5,-262.1 423,-252.1 419.5,-262.1 426.5,-262.1"/>
</g>
<!-- ast.Attribute object at 0x7a3b061306d0 -->
<g id="node26" class="node">
<title>ast.Attribute object at 0x7a3b061306d0</title>
<path fill="#66cdaa" stroke="black" d="M542.5,-180C542.5,-180 501.5,-180 501.5,-180 495.5,-180 489.5,-174 489.5,-168 489.5,-168 489.5,-156 489.5,-156 489.5,-150 495.5,-144 501.5,-144 501.5,-144 542.5,-144 542.5,-144 548.5,-144 554.5,-150 554.5,-156 554.5,-156 554.5,-168 554.5,-168 554.5,-174 548.5,-180 542.5,-180"/>
<text text-anchor="middle" x="522" y="-158.3" font-family="Times,serif" font-size="14.00">Attribute</text>
</g>
<!-- ast.Call object at 0x7a3b06130690&#45;&gt;ast.Attribute object at 0x7a3b061306d0 -->
<g id="edge31" class="edge">
<title>ast.Call object at 0x7a3b06130690&#45;&gt;ast.Attribute object at 0x7a3b061306d0</title>
<path fill="none" stroke="black" d="M447.22,-215.88C459.92,-206.89 475.66,-195.76 489.42,-186.03"/>
<polygon fill="black" stroke="black" points="491.54,-188.82 497.69,-180.19 487.5,-183.11 491.54,-188.82"/>
</g>
<!-- ast.BinOp object at 0x7a3b06130d10 -->
<g id="node28" class="node">
<title>ast.BinOp object at 0x7a3b06130d10</title>
<path fill="#66cdaa" stroke="black" d="M238,-180C238,-180 208,-180 208,-180 202,-180 196,-174 196,-168 196,-168 196,-156 196,-156 196,-150 202,-144 208,-144 208,-144 238,-144 238,-144 244,-144 250,-150 250,-156 250,-156 250,-168 250,-168 250,-174 244,-180 238,-180"/>
<text text-anchor="middle" x="223" y="-158.3" font-family="Times,serif" font-size="14.00">BinOp</text>
</g>
<!-- ast.Call object at 0x7a3b06130690&#45;&gt;ast.BinOp object at 0x7a3b06130d10 -->
<g id="edge35" class="edge">
<title>ast.Call object at 0x7a3b06130690&#45;&gt;ast.BinOp object at 0x7a3b06130d10</title>
<path fill="none" stroke="black" d="M395.61,-223.41C360.3,-211.06 298.79,-189.53 259.53,-175.79"/>
<polygon fill="black" stroke="black" points="260.65,-172.47 250.06,-172.47 258.34,-179.08 260.65,-172.47"/>
</g>
<!-- ast.List object at 0x7a3b06131ad0 -->
<g id="node32" class="node">
<title>ast.List object at 0x7a3b06131ad0</title>
<path fill="#66cdaa" stroke="black" d="M438,-180C438,-180 408,-180 408,-180 402,-180 396,-174 396,-168 396,-168 396,-156 396,-156 396,-150 402,-144 408,-144 408,-144 438,-144 438,-144 444,-144 450,-150 450,-156 450,-156 450,-168 450,-168 450,-174 444,-180 438,-180"/>
<text text-anchor="middle" x="423" y="-158.3" font-family="Times,serif" font-size="14.00">List</text>
</g>
<!-- ast.Call object at 0x7a3b06130690&#45;&gt;ast.List object at 0x7a3b06131ad0 -->
<g id="edge40" class="edge">
<title>ast.Call object at 0x7a3b06130690&#45;&gt;ast.List object at 0x7a3b06131ad0</title>
<path fill="none" stroke="black" d="M423,-215.7C423,-207.98 423,-198.71 423,-190.11"/>
<polygon fill="black" stroke="black" points="426.5,-190.1 423,-180.1 419.5,-190.1 426.5,-190.1"/>
</g>
<!-- ast.Attribute object at 0x7a3b061306d0&#45;&gt;ast.Load object at 0x7a3b1afb1b90 -->
<g id="edge34" class="edge">
<title>ast.Attribute object at 0x7a3b061306d0&#45;&gt;ast.Load object at 0x7a3b1afb1b90</title>
<path fill="none" stroke="black" d="M522.12,-143.9C523.01,-124.91 526.77,-94.03 541,-72 549.98,-58.09 563.97,-46.58 577.24,-37.87"/>
<polygon fill="black" stroke="black" points="579.15,-40.81 585.8,-32.56 575.46,-34.86 579.15,-40.81"/>
</g>
<!-- ast.Name object at 0x7a3b06130710 -->
<g id="node27" class="node">
<title>ast.Name object at 0x7a3b06130710</title>
<path fill="#66cdaa" stroke="black" d="M592,-108C592,-108 562,-108 562,-108 556,-108 550,-102 550,-96 550,-96 550,-84 550,-84 550,-78 556,-72 562,-72 562,-72 592,-72 592,-72 598,-72 604,-78 604,-84 604,-84 604,-96 604,-96 604,-102 598,-108 592,-108"/>
<text text-anchor="middle" x="577" y="-86.3" font-family="Times,serif" font-size="14.00">Name</text>
</g>
<!-- ast.Attribute object at 0x7a3b061306d0&#45;&gt;ast.Name object at 0x7a3b06130710 -->
<g id="edge32" class="edge">
<title>ast.Attribute object at 0x7a3b061306d0&#45;&gt;ast.Name object at 0x7a3b06130710</title>
<path fill="none" stroke="black" d="M535.6,-143.7C542.12,-135.39 550.07,-125.28 557.25,-116.14"/>
<polygon fill="black" stroke="black" points="560.13,-118.13 563.56,-108.1 554.63,-113.81 560.13,-118.13"/>
</g>
<!-- ast.Name object at 0x7a3b06130710&#45;&gt;ast.Load object at 0x7a3b1afb1b90 -->
<g id="edge33" class="edge">
<title>ast.Name object at 0x7a3b06130710&#45;&gt;ast.Load object at 0x7a3b1afb1b90</title>
<path fill="none" stroke="black" d="M585.9,-71.7C590,-63.73 594.95,-54.1 599.49,-45.26"/>
<polygon fill="black" stroke="black" points="602.74,-46.6 604.2,-36.1 596.52,-43.4 602.74,-46.6"/>
</g>
<!-- ast.Name object at 0x7a3b06131990 -->
<g id="node29" class="node">
<title>ast.Name object at 0x7a3b06131990</title>
<path fill="#66cdaa" stroke="black" d="M277,-108C277,-108 247,-108 247,-108 241,-108 235,-102 235,-96 235,-96 235,-84 235,-84 235,-78 241,-72 247,-72 247,-72 277,-72 277,-72 283,-72 289,-78 289,-84 289,-84 289,-96 289,-96 289,-102 283,-108 277,-108"/>
<text text-anchor="middle" x="262" y="-86.3" font-family="Times,serif" font-size="14.00">Name</text>
</g>
<!-- ast.BinOp object at 0x7a3b06130d10&#45;&gt;ast.Name object at 0x7a3b06131990 -->
<g id="edge36" class="edge">
<title>ast.BinOp object at 0x7a3b06130d10&#45;&gt;ast.Name object at 0x7a3b06131990</title>
<path fill="none" stroke="black" d="M232.64,-143.7C237.13,-135.64 242.56,-125.89 247.52,-116.98"/>
<polygon fill="black" stroke="black" points="250.66,-118.54 252.47,-108.1 244.55,-115.14 250.66,-118.54"/>
</g>
<!-- ast.Add object at 0x7a3b1afb2090 -->
<g id="node30" class="node">
<title>ast.Add object at 0x7a3b1afb2090</title>
<path fill="#66cdaa" stroke="black" d="M121,-108C121,-108 91,-108 91,-108 85,-108 79,-102 79,-96 79,-96 79,-84 79,-84 79,-78 85,-72 91,-72 91,-72 121,-72 121,-72 127,-72 133,-78 133,-84 133,-84 133,-96 133,-96 133,-102 127,-108 121,-108"/>
<text text-anchor="middle" x="106" y="-86.3" font-family="Times,serif" font-size="14.00">Add</text>
</g>
<!-- ast.BinOp object at 0x7a3b06130d10&#45;&gt;ast.Add object at 0x7a3b1afb2090 -->
<g id="edge38" class="edge">
<title>ast.BinOp object at 0x7a3b06130d10&#45;&gt;ast.Add object at 0x7a3b1afb2090</title>
<path fill="none" stroke="black" d="M195.86,-144.76C179.88,-135.2 159.47,-122.99 142.14,-112.62"/>
<polygon fill="black" stroke="black" points="143.77,-109.52 133.39,-107.39 140.18,-115.53 143.77,-109.52"/>
</g>
<!-- ast.Constant object at 0x7a3b06130750 -->
<g id="node31" class="node">
<title>ast.Constant object at 0x7a3b06130750</title>
<path fill="#66cdaa" stroke="black" d="M204.5,-108C204.5,-108 163.5,-108 163.5,-108 157.5,-108 151.5,-102 151.5,-96 151.5,-96 151.5,-84 151.5,-84 151.5,-78 157.5,-72 163.5,-72 163.5,-72 204.5,-72 204.5,-72 210.5,-72 216.5,-78 216.5,-84 216.5,-84 216.5,-96 216.5,-96 216.5,-102 210.5,-108 204.5,-108"/>
<text text-anchor="middle" x="184" y="-86.3" font-family="Times,serif" font-size="14.00">Constant</text>
</g>
<!-- ast.BinOp object at 0x7a3b06130d10&#45;&gt;ast.Constant object at 0x7a3b06130750 -->
<g id="edge39" class="edge">
<title>ast.BinOp object at 0x7a3b06130d10&#45;&gt;ast.Constant object at 0x7a3b06130750</title>
<path fill="none" stroke="black" d="M213.36,-143.7C208.87,-135.64 203.44,-125.89 198.48,-116.98"/>
<polygon fill="black" stroke="black" points="201.45,-115.14 193.53,-108.1 195.34,-118.54 201.45,-115.14"/>
</g>
<!-- ast.Name object at 0x7a3b06131990&#45;&gt;ast.Load object at 0x7a3b1afb1b90 -->
<g id="edge37" class="edge">
<title>ast.Name object at 0x7a3b06131990&#45;&gt;ast.Load object at 0x7a3b1afb1b90</title>
<path fill="none" stroke="black" d="M289.21,-75.21C292.13,-74.01 295.1,-72.91 298,-72 395.59,-41.39 516.05,-27.38 575.79,-21.93"/>
<polygon fill="black" stroke="black" points="576.22,-25.41 585.87,-21.04 575.6,-18.44 576.22,-25.41"/>
</g>
<!-- ast.List object at 0x7a3b06131ad0&#45;&gt;ast.Load object at 0x7a3b1afb1b90 -->
<g id="edge43" class="edge">
<title>ast.List object at 0x7a3b06131ad0&#45;&gt;ast.Load object at 0x7a3b1afb1b90</title>
<path fill="none" stroke="black" d="M440.4,-143.87C459.89,-125.12 492.83,-94.71 524,-72 540.68,-59.85 560.29,-47.94 576.85,-38.5"/>
<polygon fill="black" stroke="black" points="578.7,-41.48 585.7,-33.52 575.26,-35.38 578.7,-41.48"/>
</g>
<!-- ast.Constant object at 0x7a3b06130810 -->
<g id="node33" class="node">
<title>ast.Constant object at 0x7a3b06130810</title>
<path fill="#66cdaa" stroke="black" d="M360.5,-108C360.5,-108 319.5,-108 319.5,-108 313.5,-108 307.5,-102 307.5,-96 307.5,-96 307.5,-84 307.5,-84 307.5,-78 313.5,-72 319.5,-72 319.5,-72 360.5,-72 360.5,-72 366.5,-72 372.5,-78 372.5,-84 372.5,-84 372.5,-96 372.5,-96 372.5,-102 366.5,-108 360.5,-108"/>
<text text-anchor="middle" x="340" y="-86.3" font-family="Times,serif" font-size="14.00">Constant</text>
</g>
<!-- ast.List object at 0x7a3b06131ad0&#45;&gt;ast.Constant object at 0x7a3b06130810 -->
<g id="edge41" class="edge">
<title>ast.List object at 0x7a3b06131ad0&#45;&gt;ast.Constant object at 0x7a3b06130810</title>
<path fill="none" stroke="black" d="M402.48,-143.7C392.13,-134.97 379.41,-124.24 368.16,-114.75"/>
<polygon fill="black" stroke="black" points="370.18,-111.88 360.28,-108.1 365.67,-117.23 370.18,-111.88"/>
</g>
<!-- ast.Constant object at 0x7a3b06130f50 -->
<g id="node34" class="node">
<title>ast.Constant object at 0x7a3b06130f50</title>
<path fill="#66cdaa" stroke="black" d="M443.5,-108C443.5,-108 402.5,-108 402.5,-108 396.5,-108 390.5,-102 390.5,-96 390.5,-96 390.5,-84 390.5,-84 390.5,-78 396.5,-72 402.5,-72 402.5,-72 443.5,-72 443.5,-72 449.5,-72 455.5,-78 455.5,-84 455.5,-84 455.5,-96 455.5,-96 455.5,-102 449.5,-108 443.5,-108"/>
<text text-anchor="middle" x="423" y="-86.3" font-family="Times,serif" font-size="14.00">Constant</text>
</g>
<!-- ast.List object at 0x7a3b06131ad0&#45;&gt;ast.Constant object at 0x7a3b06130f50 -->
<g id="edge42" class="edge">
<title>ast.List object at 0x7a3b06131ad0&#45;&gt;ast.Constant object at 0x7a3b06130f50</title>
<path fill="none" stroke="black" d="M423,-143.7C423,-135.98 423,-126.71 423,-118.11"/>
<polygon fill="black" stroke="black" points="426.5,-118.1 423,-108.1 419.5,-118.1 426.5,-118.1"/>
</g>
<!-- ast.Name object at 0x7a3b061307d0 -->
<g id="node36" class="node">
<title>ast.Name object at 0x7a3b061307d0</title>
<path fill="#66cdaa" stroke="black" d="M42,-252C42,-252 12,-252 12,-252 6,-252 0,-246 0,-240 0,-240 0,-228 0,-228 0,-222 6,-216 12,-216 12,-216 42,-216 42,-216 48,-216 54,-222 54,-228 54,-228 54,-240 54,-240 54,-246 48,-252 42,-252"/>
<text text-anchor="middle" x="27" y="-230.3" font-family="Times,serif" font-size="14.00">Name</text>
</g>
<!-- ast.Return object at 0x7a3b06130790&#45;&gt;ast.Name object at 0x7a3b061307d0 -->
<g id="edge45" class="edge">
<title>ast.Return object at 0x7a3b06130790&#45;&gt;ast.Name object at 0x7a3b061307d0</title>
<path fill="none" stroke="black" d="M153.82,-292.65C128.72,-281.24 91.23,-264.2 63.52,-251.6"/>
<polygon fill="black" stroke="black" points="64.72,-248.3 54.16,-247.35 61.82,-254.67 64.72,-248.3"/>
</g>
<!-- ast.Name object at 0x7a3b061307d0&#45;&gt;ast.Load object at 0x7a3b1afb1b90 -->
<g id="edge46" class="edge">
<title>ast.Name object at 0x7a3b061307d0&#45;&gt;ast.Load object at 0x7a3b1afb1b90</title>
<path fill="none" stroke="black" d="M23.9,-215.84C19,-182.6 13.75,-109.46 54,-72 92.14,-36.5 456.46,-23.33 575.54,-19.95"/>
<polygon fill="black" stroke="black" points="575.74,-23.45 585.64,-19.67 575.55,-16.45 575.74,-23.45"/>
</g>
<!-- ast.Name object at 0x7a3b06131350 -->
<g id="node38" class="node">
<title>ast.Name object at 0x7a3b06131350</title>
<path fill="#66cdaa" stroke="black" d="M975,-324C975,-324 945,-324 945,-324 939,-324 933,-318 933,-312 933,-312 933,-300 933,-300 933,-294 939,-288 945,-288 945,-288 975,-288 975,-288 981,-288 987,-294 987,-300 987,-300 987,-312 987,-312 987,-318 981,-324 975,-324"/>
<text text-anchor="middle" x="960" y="-302.3" font-family="Times,serif" font-size="14.00">Name</text>
</g>
<!-- ast.Return object at 0x7a3b06131050&#45;&gt;ast.Name object at 0x7a3b06131350 -->
<g id="edge48" class="edge">
<title>ast.Return object at 0x7a3b06131050&#45;&gt;ast.Name object at 0x7a3b06131350</title>
<path fill="none" stroke="black" d="M903.72,-431.87C914.72,-407.46 935.02,-362.43 948,-333.64"/>
<polygon fill="black" stroke="black" points="951.33,-334.74 952.25,-324.19 944.95,-331.87 951.33,-334.74"/>
</g>
<!-- ast.Name object at 0x7a3b06131350&#45;&gt;ast.Load object at 0x7a3b1afb1b90 -->
<g id="edge49" class="edge">
<title>ast.Name object at 0x7a3b06131350&#45;&gt;ast.Load object at 0x7a3b1afb1b90</title>
<path fill="none" stroke="black" d="M968.52,-287.81C988.19,-245.38 1031.13,-134.58 977,-72 934.98,-23.42 734.27,-18.46 650.19,-18.57"/>
<polygon fill="black" stroke="black" points="650.05,-15.07 640.06,-18.6 650.07,-22.07 650.05,-15.07"/>
</g>
</g>
</svg>
