<?xml version="1.0" encoding="UTF-8" standalone="no"?>
<!DOCTYPE svg PUBLIC "-//W3C//DTD SVG 1.1//EN"
 "http://www.w3.org/Graphics/SVG/1.1/DTD/svg11.dtd">
<!-- Generated by graphviz version 2.50.0 (0)
 -->
<!-- Pages: 1 -->
<svg width="1634pt" height="620pt"
 viewBox="0.00 0.00 1634.00 620.00" xmlns="http://www.w3.org/2000/svg" xmlns:xlink="http://www.w3.org/1999/xlink">
<g id="graph0" class="graph" transform="scale(1 1) rotate(0) translate(4 616)">
<polygon fill="white" stroke="transparent" points="-4,4 -4,-616 1630,-616 1630,4 -4,4"/>
<!-- ast.Module object at 0x73d77bd5f790 -->
<g id="node1" class="node">
<title>ast.Module object at 0x73d77bd5f790</title>
<path fill="#66cdaa" stroke="black" d="M608,-612C608,-612 573,-612 573,-612 567,-612 561,-606 561,-600 561,-600 561,-588 561,-588 561,-582 567,-576 573,-576 573,-576 608,-576 608,-576 614,-576 620,-582 620,-588 620,-588 620,-600 620,-600 620,-606 614,-612 608,-612"/>
<text text-anchor="middle" x="590.5" y="-590.3" font-family="Times,serif" font-size="14.00">Module</text>
</g>
<!-- ast.FunctionDef object at 0x73d77bd5f550 -->
<g id="node2" class="node">
<title>ast.FunctionDef object at 0x73d77bd5f550</title>
<path fill="#66cdaa" stroke="black" d="M621,-540C621,-540 560,-540 560,-540 554,-540 548,-534 548,-528 548,-528 548,-516 548,-516 548,-510 554,-504 560,-504 560,-504 621,-504 621,-504 627,-504 633,-510 633,-516 633,-516 633,-528 633,-528 633,-534 627,-540 621,-540"/>
<text text-anchor="middle" x="590.5" y="-518.3" font-family="Times,serif" font-size="14.00">FunctionDef</text>
</g>
<!-- ast.Module object at 0x73d77bd5f790&#45;&gt;ast.FunctionDef object at 0x73d77bd5f550 -->
<g id="edge1" class="edge">
<title>ast.Module object at 0x73d77bd5f790&#45;&gt;ast.FunctionDef object at 0x73d77bd5f550</title>
<path fill="none" stroke="black" d="M590.5,-575.7C590.5,-567.98 590.5,-558.71 590.5,-550.11"/>
<polygon fill="black" stroke="black" points="594,-550.1 590.5,-540.1 587,-550.1 594,-550.1"/>
</g>
<!-- ast.arguments object at 0x73d77bd5e390 -->
<g id="node3" class="node">
<title>ast.arguments object at 0x73d77bd5e390</title>
<path fill="#66cdaa" stroke="black" d="M404.5,-468C404.5,-468 354.5,-468 354.5,-468 348.5,-468 342.5,-462 342.5,-456 342.5,-456 342.5,-444 342.5,-444 342.5,-438 348.5,-432 354.5,-432 354.5,-432 404.5,-432 404.5,-432 410.5,-432 416.5,-438 416.5,-444 416.5,-444 416.5,-456 416.5,-456 416.5,-462 410.5,-468 404.5,-468"/>
<text text-anchor="middle" x="379.5" y="-446.3" font-family="Times,serif" font-size="14.00">arguments</text>
</g>
<!-- ast.FunctionDef object at 0x73d77bd5f550&#45;&gt;ast.arguments object at 0x73d77bd5e390 -->
<g id="edge2" class="edge">
<title>ast.FunctionDef object at 0x73d77bd5f550&#45;&gt;ast.arguments object at 0x73d77bd5e390</title>
<path fill="none" stroke="black" d="M547.71,-506.85C515.48,-496.19 470.21,-481.2 430.5,-468 429.09,-467.53 427.65,-467.05 426.21,-466.57"/>
<polygon fill="black" stroke="black" points="427.14,-463.19 416.54,-463.36 424.93,-469.84 427.14,-463.19"/>
</g>
<!-- ast.Assign object at 0x73d77bd365d0 -->
<g id="node5" class="node">
<title>ast.Assign object at 0x73d77bd365d0</title>
<path fill="#66cdaa" stroke="black" d="M442.5,-252C442.5,-252 412.5,-252 412.5,-252 406.5,-252 400.5,-246 400.5,-240 400.5,-240 400.5,-228 400.5,-228 400.5,-222 406.5,-216 412.5,-216 412.5,-216 442.5,-216 442.5,-216 448.5,-216 454.5,-222 454.5,-228 454.5,-228 454.5,-240 454.5,-240 454.5,-246 448.5,-252 442.5,-252"/>
<text text-anchor="middle" x="427.5" y="-230.3" font-family="Times,serif" font-size="14.00">Assign</text>
</g>
<!-- ast.FunctionDef object at 0x73d77bd5f550&#45;&gt;ast.Assign object at 0x73d77bd365d0 -->
<g id="edge4" class="edge">
<title>ast.FunctionDef object at 0x73d77bd5f550&#45;&gt;ast.Assign object at 0x73d77bd365d0</title>
<path fill="none" stroke="black" d="M567.47,-503.77C539.78,-481.8 493.87,-441.22 468.5,-396 444.41,-353.06 434.22,-295.8 430.1,-262.41"/>
<polygon fill="black" stroke="black" points="433.53,-261.6 428.92,-252.06 426.57,-262.39 433.53,-261.6"/>
</g>
<!-- ast.Assign object at 0x73d77bd77d90 -->
<g id="node12" class="node">
<title>ast.Assign object at 0x73d77bd77d90</title>
<path fill="#66cdaa" stroke="black" d="M1049.5,-252C1049.5,-252 1019.5,-252 1019.5,-252 1013.5,-252 1007.5,-246 1007.5,-240 1007.5,-240 1007.5,-228 1007.5,-228 1007.5,-222 1013.5,-216 1019.5,-216 1019.5,-216 1049.5,-216 1049.5,-216 1055.5,-216 1061.5,-222 1061.5,-228 1061.5,-228 1061.5,-240 1061.5,-240 1061.5,-246 1055.5,-252 1049.5,-252"/>
<text text-anchor="middle" x="1034.5" y="-230.3" font-family="Times,serif" font-size="14.00">Assign</text>
</g>
<!-- ast.FunctionDef object at 0x73d77bd5f550&#45;&gt;ast.Assign object at 0x73d77bd77d90 -->
<g id="edge11" class="edge">
<title>ast.FunctionDef object at 0x73d77bd5f550&#45;&gt;ast.Assign object at 0x73d77bd77d90</title>
<path fill="none" stroke="black" d="M616.94,-503.97C693.12,-454.89 913.1,-313.2 999.28,-257.69"/>
<polygon fill="black" stroke="black" points="1001.4,-260.48 1007.91,-252.13 997.61,-254.6 1001.4,-260.48"/>
</g>
<!-- ast.For object at 0x73d77bd77b90 -->
<g id="node17" class="node">
<title>ast.For object at 0x73d77bd77b90</title>
<path fill="#66cdaa" stroke="black" d="M605.5,-468C605.5,-468 575.5,-468 575.5,-468 569.5,-468 563.5,-462 563.5,-456 563.5,-456 563.5,-444 563.5,-444 563.5,-438 569.5,-432 575.5,-432 575.5,-432 605.5,-432 605.5,-432 611.5,-432 617.5,-438 617.5,-444 617.5,-444 617.5,-456 617.5,-456 617.5,-462 611.5,-468 605.5,-468"/>
<text text-anchor="middle" x="590.5" y="-446.3" font-family="Times,serif" font-size="14.00">For</text>
</g>
<!-- ast.FunctionDef object at 0x73d77bd5f550&#45;&gt;ast.For object at 0x73d77bd77b90 -->
<g id="edge18" class="edge">
<title>ast.FunctionDef object at 0x73d77bd5f550&#45;&gt;ast.For object at 0x73d77bd77b90</title>
<path fill="none" stroke="black" d="M590.5,-503.7C590.5,-495.98 590.5,-486.71 590.5,-478.11"/>
<polygon fill="black" stroke="black" points="594,-478.1 590.5,-468.1 587,-478.1 594,-478.1"/>
</g>
<!-- ast.If object at 0x73d77bd7c2d0 -->
<g id="node48" class="node">
<title>ast.If object at 0x73d77bd7c2d0</title>
<path fill="#66cdaa" stroke="black" d="M1385.5,-324C1385.5,-324 1355.5,-324 1355.5,-324 1349.5,-324 1343.5,-318 1343.5,-312 1343.5,-312 1343.5,-300 1343.5,-300 1343.5,-294 1349.5,-288 1355.5,-288 1355.5,-288 1385.5,-288 1385.5,-288 1391.5,-288 1397.5,-294 1397.5,-300 1397.5,-300 1397.5,-312 1397.5,-312 1397.5,-318 1391.5,-324 1385.5,-324"/>
<text text-anchor="middle" x="1370.5" y="-302.3" font-family="Times,serif" font-size="14.00">If</text>
</g>
<!-- ast.FunctionDef object at 0x73d77bd5f550&#45;&gt;ast.If object at 0x73d77bd7c2d0 -->
<g id="edge65" class="edge">
<title>ast.FunctionDef object at 0x73d77bd5f550&#45;&gt;ast.If object at 0x73d77bd7c2d0</title>
<path fill="none" stroke="black" d="M633.07,-517.5C699.85,-511.37 832.9,-496.52 942.5,-468 1091.76,-429.15 1260.97,-356.54 1333.89,-323.79"/>
<polygon fill="black" stroke="black" points="1335.44,-326.93 1343.12,-319.63 1332.56,-320.55 1335.44,-326.93"/>
</g>
<!-- ast.arg object at 0x73d77bd36f90 -->
<g id="node4" class="node">
<title>ast.arg object at 0x73d77bd36f90</title>
<path fill="#66cdaa" stroke="black" d="M394.5,-396C394.5,-396 364.5,-396 364.5,-396 358.5,-396 352.5,-390 352.5,-384 352.5,-384 352.5,-372 352.5,-372 352.5,-366 358.5,-360 364.5,-360 364.5,-360 394.5,-360 394.5,-360 400.5,-360 406.5,-366 406.5,-372 406.5,-372 406.5,-384 406.5,-384 406.5,-390 400.5,-396 394.5,-396"/>
<text text-anchor="middle" x="379.5" y="-374.3" font-family="Times,serif" font-size="14.00">arg</text>
</g>
<!-- ast.arguments object at 0x73d77bd5e390&#45;&gt;ast.arg object at 0x73d77bd36f90 -->
<g id="edge3" class="edge">
<title>ast.arguments object at 0x73d77bd5e390&#45;&gt;ast.arg object at 0x73d77bd36f90</title>
<path fill="none" stroke="black" d="M379.5,-431.7C379.5,-423.98 379.5,-414.71 379.5,-406.11"/>
<polygon fill="black" stroke="black" points="383,-406.1 379.5,-396.1 376,-406.1 383,-406.1"/>
</g>
<!-- ast.Name object at 0x73d77bd36ad0 -->
<g id="node6" class="node">
<title>ast.Name object at 0x73d77bd36ad0</title>
<path fill="#66cdaa" stroke="black" d="M455.5,-180C455.5,-180 425.5,-180 425.5,-180 419.5,-180 413.5,-174 413.5,-168 413.5,-168 413.5,-156 413.5,-156 413.5,-150 419.5,-144 425.5,-144 425.5,-144 455.5,-144 455.5,-144 461.5,-144 467.5,-150 467.5,-156 467.5,-156 467.5,-168 467.5,-168 467.5,-174 461.5,-180 455.5,-180"/>
<text text-anchor="middle" x="440.5" y="-158.3" font-family="Times,serif" font-size="14.00">Name</text>
</g>
<!-- ast.Assign object at 0x73d77bd365d0&#45;&gt;ast.Name object at 0x73d77bd36ad0 -->
<g id="edge5" class="edge">
<title>ast.Assign object at 0x73d77bd365d0&#45;&gt;ast.Name object at 0x73d77bd36ad0</title>
<path fill="none" stroke="black" d="M430.71,-215.7C432.15,-207.98 433.87,-198.71 435.46,-190.11"/>
<polygon fill="black" stroke="black" points="438.94,-190.58 437.32,-180.1 432.06,-189.3 438.94,-190.58"/>
</g>
<!-- ast.Call object at 0x73d77bd36850 -->
<g id="node8" class="node">
<title>ast.Call object at 0x73d77bd36850</title>
<path fill="#66cdaa" stroke="black" d="M173.5,-180C173.5,-180 143.5,-180 143.5,-180 137.5,-180 131.5,-174 131.5,-168 131.5,-168 131.5,-156 131.5,-156 131.5,-150 137.5,-144 143.5,-144 143.5,-144 173.5,-144 173.5,-144 179.5,-144 185.5,-150 185.5,-156 185.5,-156 185.5,-168 185.5,-168 185.5,-174 179.5,-180 173.5,-180"/>
<text text-anchor="middle" x="158.5" y="-158.3" font-family="Times,serif" font-size="14.00">Call</text>
</g>
<!-- ast.Assign object at 0x73d77bd365d0&#45;&gt;ast.Call object at 0x73d77bd36850 -->
<g id="edge7" class="edge">
<title>ast.Assign object at 0x73d77bd365d0&#45;&gt;ast.Call object at 0x73d77bd36850</title>
<path fill="none" stroke="black" d="M400.41,-228.81C358.14,-221.85 273.96,-206.32 195.32,-179.9"/>
<polygon fill="black" stroke="black" points="196.36,-176.56 185.76,-176.62 194.09,-183.18 196.36,-176.56"/>
</g>
<!-- ast.Store object at 0x73d867a3bb10 -->
<g id="node7" class="node">
<title>ast.Store object at 0x73d867a3bb10</title>
<path fill="#66cdaa" stroke="black" d="M705.5,-108C705.5,-108 675.5,-108 675.5,-108 669.5,-108 663.5,-102 663.5,-96 663.5,-96 663.5,-84 663.5,-84 663.5,-78 669.5,-72 675.5,-72 675.5,-72 705.5,-72 705.5,-72 711.5,-72 717.5,-78 717.5,-84 717.5,-84 717.5,-96 717.5,-96 717.5,-102 711.5,-108 705.5,-108"/>
<text text-anchor="middle" x="690.5" y="-86.3" font-family="Times,serif" font-size="14.00">Store</text>
</g>
<!-- ast.Name object at 0x73d77bd36ad0&#45;&gt;ast.Store object at 0x73d867a3bb10 -->
<g id="edge6" class="edge">
<title>ast.Name object at 0x73d77bd36ad0&#45;&gt;ast.Store object at 0x73d867a3bb10</title>
<path fill="none" stroke="black" d="M467.74,-147.3C470.66,-146.09 473.61,-144.96 476.5,-144 550.11,-119.58 575.88,-132.32 653.53,-107.87"/>
<polygon fill="black" stroke="black" points="654.84,-111.12 663.26,-104.7 652.67,-104.47 654.84,-111.12"/>
</g>
<!-- ast.Name object at 0x73d77bd77d10 -->
<g id="node9" class="node">
<title>ast.Name object at 0x73d77bd77d10</title>
<path fill="#66cdaa" stroke="black" d="M197.5,-108C197.5,-108 167.5,-108 167.5,-108 161.5,-108 155.5,-102 155.5,-96 155.5,-96 155.5,-84 155.5,-84 155.5,-78 161.5,-72 167.5,-72 167.5,-72 197.5,-72 197.5,-72 203.5,-72 209.5,-78 209.5,-84 209.5,-84 209.5,-96 209.5,-96 209.5,-102 203.5,-108 197.5,-108"/>
<text text-anchor="middle" x="182.5" y="-86.3" font-family="Times,serif" font-size="14.00">Name</text>
</g>
<!-- ast.Call object at 0x73d77bd36850&#45;&gt;ast.Name object at 0x73d77bd77d10 -->
<g id="edge8" class="edge">
<title>ast.Call object at 0x73d77bd36850&#45;&gt;ast.Name object at 0x73d77bd77d10</title>
<path fill="none" stroke="black" d="M164.43,-143.7C167.11,-135.9 170.33,-126.51 173.3,-117.83"/>
<polygon fill="black" stroke="black" points="176.7,-118.7 176.64,-108.1 170.08,-116.43 176.7,-118.7"/>
</g>
<!-- ast.Constant object at 0x73d77bd77cd0 -->
<g id="node11" class="node">
<title>ast.Constant object at 0x73d77bd77cd0</title>
<path fill="#66cdaa" stroke="black" d="M53,-108C53,-108 12,-108 12,-108 6,-108 0,-102 0,-96 0,-96 0,-84 0,-84 0,-78 6,-72 12,-72 12,-72 53,-72 53,-72 59,-72 65,-78 65,-84 65,-84 65,-96 65,-96 65,-102 59,-108 53,-108"/>
<text text-anchor="middle" x="32.5" y="-86.3" font-family="Times,serif" font-size="14.00">Constant</text>
</g>
<!-- ast.Call object at 0x73d77bd36850&#45;&gt;ast.Constant object at 0x73d77bd77cd0 -->
<g id="edge10" class="edge">
<title>ast.Call object at 0x73d77bd36850&#45;&gt;ast.Constant object at 0x73d77bd77cd0</title>
<path fill="none" stroke="black" d="M131.47,-145.98C114.24,-136.41 91.61,-123.84 72.34,-113.14"/>
<polygon fill="black" stroke="black" points="73.92,-110.01 63.48,-108.21 70.52,-116.13 73.92,-110.01"/>
</g>
<!-- ast.Load object at 0x73d867a3ba90 -->
<g id="node10" class="node">
<title>ast.Load object at 0x73d867a3ba90</title>
<path fill="#66cdaa" stroke="black" d="M813.5,-36C813.5,-36 783.5,-36 783.5,-36 777.5,-36 771.5,-30 771.5,-24 771.5,-24 771.5,-12 771.5,-12 771.5,-6 777.5,0 783.5,0 783.5,0 813.5,0 813.5,0 819.5,0 825.5,-6 825.5,-12 825.5,-12 825.5,-24 825.5,-24 825.5,-30 819.5,-36 813.5,-36"/>
<text text-anchor="middle" x="798.5" y="-14.3" font-family="Times,serif" font-size="14.00">Load</text>
</g>
<!-- ast.Name object at 0x73d77bd77d10&#45;&gt;ast.Load object at 0x73d867a3ba90 -->
<g id="edge9" class="edge">
<title>ast.Name object at 0x73d77bd77d10&#45;&gt;ast.Load object at 0x73d867a3ba90</title>
<path fill="none" stroke="black" d="M209.91,-76.32C214.38,-74.63 219.01,-73.11 223.5,-72 421.72,-22.97 668.52,-18.41 761.11,-18.59"/>
<polygon fill="black" stroke="black" points="761.36,-22.09 771.37,-18.63 761.38,-15.09 761.36,-22.09"/>
</g>
<!-- ast.Name object at 0x73d77bd77dd0 -->
<g id="node13" class="node">
<title>ast.Name object at 0x73d77bd77dd0</title>
<path fill="#66cdaa" stroke="black" d="M1049.5,-180C1049.5,-180 1019.5,-180 1019.5,-180 1013.5,-180 1007.5,-174 1007.5,-168 1007.5,-168 1007.5,-156 1007.5,-156 1007.5,-150 1013.5,-144 1019.5,-144 1019.5,-144 1049.5,-144 1049.5,-144 1055.5,-144 1061.5,-150 1061.5,-156 1061.5,-156 1061.5,-168 1061.5,-168 1061.5,-174 1055.5,-180 1049.5,-180"/>
<text text-anchor="middle" x="1034.5" y="-158.3" font-family="Times,serif" font-size="14.00">Name</text>
</g>
<!-- ast.Assign object at 0x73d77bd77d90&#45;&gt;ast.Name object at 0x73d77bd77dd0 -->
<g id="edge12" class="edge">
<title>ast.Assign object at 0x73d77bd77d90&#45;&gt;ast.Name object at 0x73d77bd77dd0</title>
<path fill="none" stroke="black" d="M1034.5,-215.7C1034.5,-207.98 1034.5,-198.71 1034.5,-190.11"/>
<polygon fill="black" stroke="black" points="1038,-190.1 1034.5,-180.1 1031,-190.1 1038,-190.1"/>
</g>
<!-- ast.Call object at 0x73d77bd77f10 -->
<g id="node14" class="node">
<title>ast.Call object at 0x73d77bd77f10</title>
<path fill="#66cdaa" stroke="black" d="M1215.5,-180C1215.5,-180 1185.5,-180 1185.5,-180 1179.5,-180 1173.5,-174 1173.5,-168 1173.5,-168 1173.5,-156 1173.5,-156 1173.5,-150 1179.5,-144 1185.5,-144 1185.5,-144 1215.5,-144 1215.5,-144 1221.5,-144 1227.5,-150 1227.5,-156 1227.5,-156 1227.5,-168 1227.5,-168 1227.5,-174 1221.5,-180 1215.5,-180"/>
<text text-anchor="middle" x="1200.5" y="-158.3" font-family="Times,serif" font-size="14.00">Call</text>
</g>
<!-- ast.Assign object at 0x73d77bd77d90&#45;&gt;ast.Call object at 0x73d77bd77f10 -->
<g id="edge14" class="edge">
<title>ast.Assign object at 0x73d77bd77d90&#45;&gt;ast.Call object at 0x73d77bd77f10</title>
<path fill="none" stroke="black" d="M1061.54,-221.6C1089.39,-209.85 1132.99,-191.47 1163.91,-178.43"/>
<polygon fill="black" stroke="black" points="1165.62,-181.51 1173.47,-174.4 1162.9,-175.06 1165.62,-181.51"/>
</g>
<!-- ast.Name object at 0x73d77bd77dd0&#45;&gt;ast.Store object at 0x73d867a3bb10 -->
<g id="edge13" class="edge">
<title>ast.Name object at 0x73d77bd77dd0&#45;&gt;ast.Store object at 0x73d867a3bb10</title>
<path fill="none" stroke="black" d="M1007.33,-147.1C1004.4,-145.93 1001.42,-144.86 998.5,-144 884.61,-110.46 845.54,-140.76 727.44,-107.72"/>
<polygon fill="black" stroke="black" points="728.25,-104.31 717.67,-104.9 726.31,-111.04 728.25,-104.31"/>
</g>
<!-- ast.Name object at 0x73d77bd77b50 -->
<g id="node15" class="node">
<title>ast.Name object at 0x73d77bd77b50</title>
<path fill="#66cdaa" stroke="black" d="M1293.5,-108C1293.5,-108 1263.5,-108 1263.5,-108 1257.5,-108 1251.5,-102 1251.5,-96 1251.5,-96 1251.5,-84 1251.5,-84 1251.5,-78 1257.5,-72 1263.5,-72 1263.5,-72 1293.5,-72 1293.5,-72 1299.5,-72 1305.5,-78 1305.5,-84 1305.5,-84 1305.5,-96 1305.5,-96 1305.5,-102 1299.5,-108 1293.5,-108"/>
<text text-anchor="middle" x="1278.5" y="-86.3" font-family="Times,serif" font-size="14.00">Name</text>
</g>
<!-- ast.Call object at 0x73d77bd77f10&#45;&gt;ast.Name object at 0x73d77bd77b50 -->
<g id="edge15" class="edge">
<title>ast.Call object at 0x73d77bd77f10&#45;&gt;ast.Name object at 0x73d77bd77b50</title>
<path fill="none" stroke="black" d="M1219.78,-143.7C1229.42,-135.05 1241.23,-124.45 1251.73,-115.03"/>
<polygon fill="black" stroke="black" points="1254.34,-117.39 1259.44,-108.1 1249.66,-112.18 1254.34,-117.39"/>
</g>
<!-- ast.Constant object at 0x73d77bd77bd0 -->
<g id="node16" class="node">
<title>ast.Constant object at 0x73d77bd77bd0</title>
<path fill="#66cdaa" stroke="black" d="M1221,-108C1221,-108 1180,-108 1180,-108 1174,-108 1168,-102 1168,-96 1168,-96 1168,-84 1168,-84 1168,-78 1174,-72 1180,-72 1180,-72 1221,-72 1221,-72 1227,-72 1233,-78 1233,-84 1233,-84 1233,-96 1233,-96 1233,-102 1227,-108 1221,-108"/>
<text text-anchor="middle" x="1200.5" y="-86.3" font-family="Times,serif" font-size="14.00">Constant</text>
</g>
<!-- ast.Call object at 0x73d77bd77f10&#45;&gt;ast.Constant object at 0x73d77bd77bd0 -->
<g id="edge17" class="edge">
<title>ast.Call object at 0x73d77bd77f10&#45;&gt;ast.Constant object at 0x73d77bd77bd0</title>
<path fill="none" stroke="black" d="M1200.5,-143.7C1200.5,-135.98 1200.5,-126.71 1200.5,-118.11"/>
<polygon fill="black" stroke="black" points="1204,-118.1 1200.5,-108.1 1197,-118.1 1204,-118.1"/>
</g>
<!-- ast.Name object at 0x73d77bd77b50&#45;&gt;ast.Load object at 0x73d867a3ba90 -->
<g id="edge16" class="edge">
<title>ast.Name object at 0x73d77bd77b50&#45;&gt;ast.Load object at 0x73d867a3ba90</title>
<path fill="none" stroke="black" d="M1251.34,-75.06C1248.4,-73.89 1245.42,-72.84 1242.5,-72 1096.07,-29.89 913.19,-21.2 835.82,-19.43"/>
<polygon fill="black" stroke="black" points="835.69,-15.93 825.62,-19.23 835.55,-22.93 835.69,-15.93"/>
</g>
<!-- ast.Name object at 0x73d77bd7f3d0 -->
<g id="node18" class="node">
<title>ast.Name object at 0x73d77bd7f3d0</title>
<path fill="#66cdaa" stroke="black" d="M715.5,-324C715.5,-324 685.5,-324 685.5,-324 679.5,-324 673.5,-318 673.5,-312 673.5,-312 673.5,-300 673.5,-300 673.5,-294 679.5,-288 685.5,-288 685.5,-288 715.5,-288 715.5,-288 721.5,-288 727.5,-294 727.5,-300 727.5,-300 727.5,-312 727.5,-312 727.5,-318 721.5,-324 715.5,-324"/>
<text text-anchor="middle" x="700.5" y="-302.3" font-family="Times,serif" font-size="14.00">Name</text>
</g>
<!-- ast.For object at 0x73d77bd77b90&#45;&gt;ast.Name object at 0x73d77bd7f3d0 -->
<g id="edge19" class="edge">
<title>ast.For object at 0x73d77bd77b90&#45;&gt;ast.Name object at 0x73d77bd7f3d0</title>
<path fill="none" stroke="black" d="M603.77,-431.87C623.01,-407.03 658.79,-360.85 681.02,-332.14"/>
<polygon fill="black" stroke="black" points="683.83,-334.24 687.18,-324.19 678.29,-329.95 683.83,-334.24"/>
</g>
<!-- ast.Subscript object at 0x73d77bd7e790 -->
<g id="node19" class="node">
<title>ast.Subscript object at 0x73d77bd7e790</title>
<path fill="#66cdaa" stroke="black" d="M259.5,-180C259.5,-180 215.5,-180 215.5,-180 209.5,-180 203.5,-174 203.5,-168 203.5,-168 203.5,-156 203.5,-156 203.5,-150 209.5,-144 215.5,-144 215.5,-144 259.5,-144 259.5,-144 265.5,-144 271.5,-150 271.5,-156 271.5,-156 271.5,-168 271.5,-168 271.5,-174 265.5,-180 259.5,-180"/>
<text text-anchor="middle" x="237.5" y="-158.3" font-family="Times,serif" font-size="14.00">Subscript</text>
</g>
<!-- ast.For object at 0x73d77bd77b90&#45;&gt;ast.Subscript object at 0x73d77bd7e790 -->
<g id="edge21" class="edge">
<title>ast.For object at 0x73d77bd77b90&#45;&gt;ast.Subscript object at 0x73d77bd7e790</title>
<path fill="none" stroke="black" d="M577.92,-431.7C570.73,-421.52 561.73,-408.27 554.5,-396 531.75,-357.38 499.22,-243.07 463.5,-216 399.89,-167.79 362.85,-200.68 281.21,-179.78"/>
<polygon fill="black" stroke="black" points="282.14,-176.41 271.57,-177.12 280.28,-183.16 282.14,-176.41"/>
</g>
<!-- ast.If object at 0x73d77bd7fa50 -->
<g id="node24" class="node">
<title>ast.If object at 0x73d77bd7fa50</title>
<path fill="#66cdaa" stroke="black" d="M605.5,-396C605.5,-396 575.5,-396 575.5,-396 569.5,-396 563.5,-390 563.5,-384 563.5,-384 563.5,-372 563.5,-372 563.5,-366 569.5,-360 575.5,-360 575.5,-360 605.5,-360 605.5,-360 611.5,-360 617.5,-366 617.5,-372 617.5,-372 617.5,-384 617.5,-384 617.5,-390 611.5,-396 605.5,-396"/>
<text text-anchor="middle" x="590.5" y="-374.3" font-family="Times,serif" font-size="14.00">If</text>
</g>
<!-- ast.For object at 0x73d77bd77b90&#45;&gt;ast.If object at 0x73d77bd7fa50 -->
<g id="edge28" class="edge">
<title>ast.For object at 0x73d77bd77b90&#45;&gt;ast.If object at 0x73d77bd7fa50</title>
<path fill="none" stroke="black" d="M590.5,-431.7C590.5,-423.98 590.5,-414.71 590.5,-406.11"/>
<polygon fill="black" stroke="black" points="594,-406.1 590.5,-396.1 587,-406.1 594,-406.1"/>
</g>
<!-- ast.Name object at 0x73d77bd7f3d0&#45;&gt;ast.Store object at 0x73d867a3bb10 -->
<g id="edge20" class="edge">
<title>ast.Name object at 0x73d77bd7f3d0&#45;&gt;ast.Store object at 0x73d867a3bb10</title>
<path fill="none" stroke="black" d="M699.7,-287.85C697.97,-250.83 693.87,-163.18 691.78,-118.39"/>
<polygon fill="black" stroke="black" points="695.27,-118.06 691.31,-108.23 688.28,-118.38 695.27,-118.06"/>
</g>
<!-- ast.Subscript object at 0x73d77bd7e790&#45;&gt;ast.Load object at 0x73d867a3ba90 -->
<g id="edge27" class="edge">
<title>ast.Subscript object at 0x73d77bd7e790&#45;&gt;ast.Load object at 0x73d867a3ba90</title>
<path fill="none" stroke="black" d="M235.71,-143.67C234.66,-123.27 236.47,-89.89 256.5,-72 294.07,-38.45 644.65,-24.03 761.1,-20.14"/>
<polygon fill="black" stroke="black" points="761.43,-23.63 771.31,-19.81 761.2,-16.63 761.43,-23.63"/>
</g>
<!-- ast.Name object at 0x73d77bd7e5d0 -->
<g id="node20" class="node">
<title>ast.Name object at 0x73d77bd7e5d0</title>
<path fill="#66cdaa" stroke="black" d="M307.5,-108C307.5,-108 277.5,-108 277.5,-108 271.5,-108 265.5,-102 265.5,-96 265.5,-96 265.5,-84 265.5,-84 265.5,-78 271.5,-72 277.5,-72 277.5,-72 307.5,-72 307.5,-72 313.5,-72 319.5,-78 319.5,-84 319.5,-84 319.5,-96 319.5,-96 319.5,-102 313.5,-108 307.5,-108"/>
<text text-anchor="middle" x="292.5" y="-86.3" font-family="Times,serif" font-size="14.00">Name</text>
</g>
<!-- ast.Subscript object at 0x73d77bd7e790&#45;&gt;ast.Name object at 0x73d77bd7e5d0 -->
<g id="edge22" class="edge">
<title>ast.Subscript object at 0x73d77bd7e790&#45;&gt;ast.Name object at 0x73d77bd7e5d0</title>
<path fill="none" stroke="black" d="M251.1,-143.7C257.62,-135.39 265.57,-125.28 272.75,-116.14"/>
<polygon fill="black" stroke="black" points="275.63,-118.13 279.06,-108.1 270.13,-113.81 275.63,-118.13"/>
</g>
<!-- ast.Slice object at 0x73d77bd7e750 -->
<g id="node21" class="node">
<title>ast.Slice object at 0x73d77bd7e750</title>
<path fill="#66cdaa" stroke="black" d="M125.5,-108C125.5,-108 95.5,-108 95.5,-108 89.5,-108 83.5,-102 83.5,-96 83.5,-96 83.5,-84 83.5,-84 83.5,-78 89.5,-72 95.5,-72 95.5,-72 125.5,-72 125.5,-72 131.5,-72 137.5,-78 137.5,-84 137.5,-84 137.5,-96 137.5,-96 137.5,-102 131.5,-108 125.5,-108"/>
<text text-anchor="middle" x="110.5" y="-86.3" font-family="Times,serif" font-size="14.00">Slice</text>
</g>
<!-- ast.Subscript object at 0x73d77bd7e790&#45;&gt;ast.Slice object at 0x73d77bd7e750 -->
<g id="edge24" class="edge">
<title>ast.Subscript object at 0x73d77bd7e790&#45;&gt;ast.Slice object at 0x73d77bd7e750</title>
<path fill="none" stroke="black" d="M206.43,-143.88C188.38,-133.93 165.56,-121.35 146.7,-110.95"/>
<polygon fill="black" stroke="black" points="148.24,-107.81 137.8,-106.05 144.87,-113.94 148.24,-107.81"/>
</g>
<!-- ast.Name object at 0x73d77bd7e5d0&#45;&gt;ast.Load object at 0x73d867a3ba90 -->
<g id="edge23" class="edge">
<title>ast.Name object at 0x73d77bd7e5d0&#45;&gt;ast.Load object at 0x73d867a3ba90</title>
<path fill="none" stroke="black" d="M319.66,-75.04C322.59,-73.88 325.57,-72.83 328.5,-72 484.98,-27.55 680.73,-20.16 761.27,-19.09"/>
<polygon fill="black" stroke="black" points="761.44,-22.59 771.41,-18.98 761.37,-15.59 761.44,-22.59"/>
</g>
<!-- ast.Constant object at 0x73d77bd7d850 -->
<g id="node22" class="node">
<title>ast.Constant object at 0x73d77bd7d850</title>
<path fill="#66cdaa" stroke="black" d="M89,-36C89,-36 48,-36 48,-36 42,-36 36,-30 36,-24 36,-24 36,-12 36,-12 36,-6 42,0 48,0 48,0 89,0 89,0 95,0 101,-6 101,-12 101,-12 101,-24 101,-24 101,-30 95,-36 89,-36"/>
<text text-anchor="middle" x="68.5" y="-14.3" font-family="Times,serif" font-size="14.00">Constant</text>
</g>
<!-- ast.Slice object at 0x73d77bd7e750&#45;&gt;ast.Constant object at 0x73d77bd7d850 -->
<g id="edge25" class="edge">
<title>ast.Slice object at 0x73d77bd7e750&#45;&gt;ast.Constant object at 0x73d77bd7d850</title>
<path fill="none" stroke="black" d="M100.12,-71.7C95.24,-63.56 89.31,-53.69 83.92,-44.7"/>
<polygon fill="black" stroke="black" points="86.91,-42.88 78.76,-36.1 80.91,-46.48 86.91,-42.88"/>
</g>
<!-- ast.Constant object at 0x73d77bd7dad0 -->
<g id="node23" class="node">
<title>ast.Constant object at 0x73d77bd7dad0</title>
<path fill="#66cdaa" stroke="black" d="M172,-36C172,-36 131,-36 131,-36 125,-36 119,-30 119,-24 119,-24 119,-12 119,-12 119,-6 125,0 131,0 131,0 172,0 172,0 178,0 184,-6 184,-12 184,-12 184,-24 184,-24 184,-30 178,-36 172,-36"/>
<text text-anchor="middle" x="151.5" y="-14.3" font-family="Times,serif" font-size="14.00">Constant</text>
</g>
<!-- ast.Slice object at 0x73d77bd7e750&#45;&gt;ast.Constant object at 0x73d77bd7dad0 -->
<g id="edge26" class="edge">
<title>ast.Slice object at 0x73d77bd7e750&#45;&gt;ast.Constant object at 0x73d77bd7dad0</title>
<path fill="none" stroke="black" d="M120.63,-71.7C125.35,-63.64 131.06,-53.89 136.28,-44.98"/>
<polygon fill="black" stroke="black" points="139.45,-46.5 141.48,-36.1 133.41,-42.96 139.45,-46.5"/>
</g>
<!-- ast.Compare object at 0x73d77bd7f850 -->
<g id="node25" class="node">
<title>ast.Compare object at 0x73d77bd7f850</title>
<path fill="#66cdaa" stroke="black" d="M345,-180C345,-180 302,-180 302,-180 296,-180 290,-174 290,-168 290,-168 290,-156 290,-156 290,-150 296,-144 302,-144 302,-144 345,-144 345,-144 351,-144 357,-150 357,-156 357,-156 357,-168 357,-168 357,-174 351,-180 345,-180"/>
<text text-anchor="middle" x="323.5" y="-158.3" font-family="Times,serif" font-size="14.00">Compare</text>
</g>
<!-- ast.If object at 0x73d77bd7fa50&#45;&gt;ast.Compare object at 0x73d77bd7f850 -->
<g id="edge29" class="edge">
<title>ast.If object at 0x73d77bd7fa50&#45;&gt;ast.Compare object at 0x73d77bd7f850</title>
<path fill="none" stroke="black" d="M585.21,-359.85C574.18,-326.97 545.6,-254.88 496.5,-216 486.15,-207.81 414.84,-187.53 367.07,-174.57"/>
<polygon fill="black" stroke="black" points="367.83,-171.15 357.26,-171.92 366,-177.91 367.83,-171.15"/>
</g>
<!-- ast.Assign object at 0x73d77bd7e690 -->
<g id="node29" class="node">
<title>ast.Assign object at 0x73d77bd7e690</title>
<path fill="#66cdaa" stroke="black" d="M590.5,-252C590.5,-252 560.5,-252 560.5,-252 554.5,-252 548.5,-246 548.5,-240 548.5,-240 548.5,-228 548.5,-228 548.5,-222 554.5,-216 560.5,-216 560.5,-216 590.5,-216 590.5,-216 596.5,-216 602.5,-222 602.5,-228 602.5,-228 602.5,-240 602.5,-240 602.5,-246 596.5,-252 590.5,-252"/>
<text text-anchor="middle" x="575.5" y="-230.3" font-family="Times,serif" font-size="14.00">Assign</text>
</g>
<!-- ast.If object at 0x73d77bd7fa50&#45;&gt;ast.Assign object at 0x73d77bd7e690 -->
<g id="edge35" class="edge">
<title>ast.If object at 0x73d77bd7fa50&#45;&gt;ast.Assign object at 0x73d77bd7e690</title>
<path fill="none" stroke="black" d="M588.69,-359.87C586.13,-335.67 581.44,-291.21 578.39,-262.39"/>
<polygon fill="black" stroke="black" points="581.85,-261.77 577.32,-252.19 574.89,-262.5 581.85,-261.77"/>
</g>
<!-- ast.Assign object at 0x73d77bd7c850 -->
<g id="node32" class="node">
<title>ast.Assign object at 0x73d77bd7c850</title>
<path fill="#66cdaa" stroke="black" d="M662.5,-252C662.5,-252 632.5,-252 632.5,-252 626.5,-252 620.5,-246 620.5,-240 620.5,-240 620.5,-228 620.5,-228 620.5,-222 626.5,-216 632.5,-216 632.5,-216 662.5,-216 662.5,-216 668.5,-216 674.5,-222 674.5,-228 674.5,-228 674.5,-240 674.5,-240 674.5,-246 668.5,-252 662.5,-252"/>
<text text-anchor="middle" x="647.5" y="-230.3" font-family="Times,serif" font-size="14.00">Assign</text>
</g>
<!-- ast.If object at 0x73d77bd7fa50&#45;&gt;ast.Assign object at 0x73d77bd7c850 -->
<g id="edge40" class="edge">
<title>ast.If object at 0x73d77bd7fa50&#45;&gt;ast.Assign object at 0x73d77bd7c850</title>
<path fill="none" stroke="black" d="M597.38,-359.87C607.18,-335.46 625.25,-290.43 636.81,-261.64"/>
<polygon fill="black" stroke="black" points="640.12,-262.77 640.6,-252.19 633.63,-260.17 640.12,-262.77"/>
</g>
<!-- ast.If object at 0x73d77bd7c790 -->
<g id="node35" class="node">
<title>ast.If object at 0x73d77bd7c790</title>
<path fill="#66cdaa" stroke="black" d="M791.5,-324C791.5,-324 761.5,-324 761.5,-324 755.5,-324 749.5,-318 749.5,-312 749.5,-312 749.5,-300 749.5,-300 749.5,-294 755.5,-288 761.5,-288 761.5,-288 791.5,-288 791.5,-288 797.5,-288 803.5,-294 803.5,-300 803.5,-300 803.5,-312 803.5,-312 803.5,-318 797.5,-324 791.5,-324"/>
<text text-anchor="middle" x="776.5" y="-302.3" font-family="Times,serif" font-size="14.00">If</text>
</g>
<!-- ast.If object at 0x73d77bd7fa50&#45;&gt;ast.If object at 0x73d77bd7c790 -->
<g id="edge45" class="edge">
<title>ast.If object at 0x73d77bd7fa50&#45;&gt;ast.If object at 0x73d77bd7c790</title>
<path fill="none" stroke="black" d="M617.57,-367.66C647.01,-357.39 695.35,-340.2 736.5,-324 737.68,-323.53 738.89,-323.05 740.1,-322.57"/>
<polygon fill="black" stroke="black" points="741.55,-325.76 749.47,-318.72 738.89,-319.28 741.55,-325.76"/>
</g>
<!-- ast.Name object at 0x73d77bd7e890 -->
<g id="node26" class="node">
<title>ast.Name object at 0x73d77bd7e890</title>
<path fill="#66cdaa" stroke="black" d="M379.5,-108C379.5,-108 349.5,-108 349.5,-108 343.5,-108 337.5,-102 337.5,-96 337.5,-96 337.5,-84 337.5,-84 337.5,-78 343.5,-72 349.5,-72 349.5,-72 379.5,-72 379.5,-72 385.5,-72 391.5,-78 391.5,-84 391.5,-84 391.5,-96 391.5,-96 391.5,-102 385.5,-108 379.5,-108"/>
<text text-anchor="middle" x="364.5" y="-86.3" font-family="Times,serif" font-size="14.00">Name</text>
</g>
<!-- ast.Compare object at 0x73d77bd7f850&#45;&gt;ast.Name object at 0x73d77bd7e890 -->
<g id="edge30" class="edge">
<title>ast.Compare object at 0x73d77bd7f850&#45;&gt;ast.Name object at 0x73d77bd7e890</title>
<path fill="none" stroke="black" d="M333.63,-143.7C338.35,-135.64 344.06,-125.89 349.28,-116.98"/>
<polygon fill="black" stroke="black" points="352.45,-118.5 354.48,-108.1 346.41,-114.96 352.45,-118.5"/>
</g>
<!-- ast.Lt object at 0x73d867a48bd0 -->
<g id="node27" class="node">
<title>ast.Lt object at 0x73d867a48bd0</title>
<path fill="#66cdaa" stroke="black" d="M633.5,-108C633.5,-108 603.5,-108 603.5,-108 597.5,-108 591.5,-102 591.5,-96 591.5,-96 591.5,-84 591.5,-84 591.5,-78 597.5,-72 603.5,-72 603.5,-72 633.5,-72 633.5,-72 639.5,-72 645.5,-78 645.5,-84 645.5,-84 645.5,-96 645.5,-96 645.5,-102 639.5,-108 633.5,-108"/>
<text text-anchor="middle" x="618.5" y="-86.3" font-family="Times,serif" font-size="14.00">Lt</text>
</g>
<!-- ast.Compare object at 0x73d77bd7f850&#45;&gt;ast.Lt object at 0x73d867a48bd0 -->
<g id="edge32" class="edge">
<title>ast.Compare object at 0x73d77bd7f850&#45;&gt;ast.Lt object at 0x73d867a48bd0</title>
<path fill="none" stroke="black" d="M357.05,-153.04C412.76,-139.82 523.89,-113.45 581.68,-99.74"/>
<polygon fill="black" stroke="black" points="582.57,-103.12 591.49,-97.41 580.95,-96.31 582.57,-103.12"/>
</g>
<!-- ast.Name object at 0x73d77bd7f7d0 -->
<g id="node28" class="node">
<title>ast.Name object at 0x73d77bd7f7d0</title>
<path fill="#66cdaa" stroke="black" d="M451.5,-108C451.5,-108 421.5,-108 421.5,-108 415.5,-108 409.5,-102 409.5,-96 409.5,-96 409.5,-84 409.5,-84 409.5,-78 415.5,-72 421.5,-72 421.5,-72 451.5,-72 451.5,-72 457.5,-72 463.5,-78 463.5,-84 463.5,-84 463.5,-96 463.5,-96 463.5,-102 457.5,-108 451.5,-108"/>
<text text-anchor="middle" x="436.5" y="-86.3" font-family="Times,serif" font-size="14.00">Name</text>
</g>
<!-- ast.Compare object at 0x73d77bd7f850&#45;&gt;ast.Name object at 0x73d77bd7f7d0 -->
<g id="edge33" class="edge">
<title>ast.Compare object at 0x73d77bd7f850&#45;&gt;ast.Name object at 0x73d77bd7f7d0</title>
<path fill="none" stroke="black" d="M351.14,-143.88C366.03,-134.66 384.57,-123.17 400.56,-113.26"/>
<polygon fill="black" stroke="black" points="402.48,-116.19 409.14,-107.95 398.8,-110.24 402.48,-116.19"/>
</g>
<!-- ast.Name object at 0x73d77bd7e890&#45;&gt;ast.Load object at 0x73d867a3ba90 -->
<g id="edge31" class="edge">
<title>ast.Name object at 0x73d77bd7e890&#45;&gt;ast.Load object at 0x73d867a3ba90</title>
<path fill="none" stroke="black" d="M391.67,-75.1C394.61,-73.93 397.58,-72.86 400.5,-72 529.28,-34.02 689.58,-23.19 761.07,-20.15"/>
<polygon fill="black" stroke="black" points="761.5,-23.64 771.36,-19.75 761.23,-16.64 761.5,-23.64"/>
</g>
<!-- ast.Name object at 0x73d77bd7f7d0&#45;&gt;ast.Load object at 0x73d867a3ba90 -->
<g id="edge34" class="edge">
<title>ast.Name object at 0x73d77bd7f7d0&#45;&gt;ast.Load object at 0x73d867a3ba90</title>
<path fill="none" stroke="black" d="M463.7,-75.19C466.63,-74 469.6,-72.9 472.5,-72 574.22,-40.4 699.96,-26.76 761.31,-21.64"/>
<polygon fill="black" stroke="black" points="761.61,-25.13 771.29,-20.84 761.04,-18.15 761.61,-25.13"/>
</g>
<!-- ast.Name object at 0x73d77bd7ddd0 -->
<g id="node30" class="node">
<title>ast.Name object at 0x73d77bd7ddd0</title>
<path fill="#66cdaa" stroke="black" d="M527.5,-180C527.5,-180 497.5,-180 497.5,-180 491.5,-180 485.5,-174 485.5,-168 485.5,-168 485.5,-156 485.5,-156 485.5,-150 491.5,-144 497.5,-144 497.5,-144 527.5,-144 527.5,-144 533.5,-144 539.5,-150 539.5,-156 539.5,-156 539.5,-168 539.5,-168 539.5,-174 533.5,-180 527.5,-180"/>
<text text-anchor="middle" x="512.5" y="-158.3" font-family="Times,serif" font-size="14.00">Name</text>
</g>
<!-- ast.Assign object at 0x73d77bd7e690&#45;&gt;ast.Name object at 0x73d77bd7ddd0 -->
<g id="edge36" class="edge">
<title>ast.Assign object at 0x73d77bd7e690&#45;&gt;ast.Name object at 0x73d77bd7ddd0</title>
<path fill="none" stroke="black" d="M559.93,-215.7C552.3,-207.22 542.98,-196.86 534.62,-187.58"/>
<polygon fill="black" stroke="black" points="537.19,-185.2 527.89,-180.1 531.98,-189.88 537.19,-185.2"/>
</g>
<!-- ast.Name object at 0x73d77bd7c810 -->
<g id="node31" class="node">
<title>ast.Name object at 0x73d77bd7c810</title>
<path fill="#66cdaa" stroke="black" d="M523.5,-108C523.5,-108 493.5,-108 493.5,-108 487.5,-108 481.5,-102 481.5,-96 481.5,-96 481.5,-84 481.5,-84 481.5,-78 487.5,-72 493.5,-72 493.5,-72 523.5,-72 523.5,-72 529.5,-72 535.5,-78 535.5,-84 535.5,-84 535.5,-96 535.5,-96 535.5,-102 529.5,-108 523.5,-108"/>
<text text-anchor="middle" x="508.5" y="-86.3" font-family="Times,serif" font-size="14.00">Name</text>
</g>
<!-- ast.Assign object at 0x73d77bd7e690&#45;&gt;ast.Name object at 0x73d77bd7c810 -->
<g id="edge38" class="edge">
<title>ast.Assign object at 0x73d77bd7e690&#45;&gt;ast.Name object at 0x73d77bd7c810</title>
<path fill="none" stroke="black" d="M548.33,-221.19C543.75,-219.35 539.02,-217.56 534.5,-216 477.81,-196.48 440.8,-227.72 404.5,-180 394.81,-167.27 396.14,-157.64 404.5,-144 406.52,-140.71 443.04,-122.53 472.23,-108.37"/>
<polygon fill="black" stroke="black" points="473.92,-111.44 481.4,-103.94 470.88,-105.14 473.92,-111.44"/>
</g>
<!-- ast.Name object at 0x73d77bd7ddd0&#45;&gt;ast.Store object at 0x73d867a3bb10 -->
<g id="edge37" class="edge">
<title>ast.Name object at 0x73d77bd7ddd0&#45;&gt;ast.Store object at 0x73d867a3bb10</title>
<path fill="none" stroke="black" d="M539.87,-147.68C542.77,-146.39 545.68,-145.14 548.5,-144 591.83,-126.48 606.59,-126.57 653.62,-108.13"/>
<polygon fill="black" stroke="black" points="655.14,-111.29 663.13,-104.32 652.54,-104.79 655.14,-111.29"/>
</g>
<!-- ast.Name object at 0x73d77bd7c810&#45;&gt;ast.Load object at 0x73d867a3ba90 -->
<g id="edge39" class="edge">
<title>ast.Name object at 0x73d77bd7c810&#45;&gt;ast.Load object at 0x73d867a3ba90</title>
<path fill="none" stroke="black" d="M535.59,-76.95C540.18,-75.15 544.94,-73.42 549.5,-72 623.03,-49.14 711.8,-32.85 761.01,-24.77"/>
<polygon fill="black" stroke="black" points="761.87,-28.18 771.18,-23.13 760.75,-21.27 761.87,-28.18"/>
</g>
<!-- ast.Name object at 0x73d77bd7c8d0 -->
<g id="node33" class="node">
<title>ast.Name object at 0x73d77bd7c8d0</title>
<path fill="#66cdaa" stroke="black" d="M671.5,-180C671.5,-180 641.5,-180 641.5,-180 635.5,-180 629.5,-174 629.5,-168 629.5,-168 629.5,-156 629.5,-156 629.5,-150 635.5,-144 641.5,-144 641.5,-144 671.5,-144 671.5,-144 677.5,-144 683.5,-150 683.5,-156 683.5,-156 683.5,-168 683.5,-168 683.5,-174 677.5,-180 671.5,-180"/>
<text text-anchor="middle" x="656.5" y="-158.3" font-family="Times,serif" font-size="14.00">Name</text>
</g>
<!-- ast.Assign object at 0x73d77bd7c850&#45;&gt;ast.Name object at 0x73d77bd7c8d0 -->
<g id="edge41" class="edge">
<title>ast.Assign object at 0x73d77bd7c850&#45;&gt;ast.Name object at 0x73d77bd7c8d0</title>
<path fill="none" stroke="black" d="M649.72,-215.7C650.72,-207.98 651.91,-198.71 653.01,-190.11"/>
<polygon fill="black" stroke="black" points="656.5,-190.47 654.3,-180.1 649.55,-189.58 656.5,-190.47"/>
</g>
<!-- ast.Name object at 0x73d77bd7c6d0 -->
<g id="node34" class="node">
<title>ast.Name object at 0x73d77bd7c6d0</title>
<path fill="#66cdaa" stroke="black" d="M599.5,-180C599.5,-180 569.5,-180 569.5,-180 563.5,-180 557.5,-174 557.5,-168 557.5,-168 557.5,-156 557.5,-156 557.5,-150 563.5,-144 569.5,-144 569.5,-144 599.5,-144 599.5,-144 605.5,-144 611.5,-150 611.5,-156 611.5,-156 611.5,-168 611.5,-168 611.5,-174 605.5,-180 599.5,-180"/>
<text text-anchor="middle" x="584.5" y="-158.3" font-family="Times,serif" font-size="14.00">Name</text>
</g>
<!-- ast.Assign object at 0x73d77bd7c850&#45;&gt;ast.Name object at 0x73d77bd7c6d0 -->
<g id="edge43" class="edge">
<title>ast.Assign object at 0x73d77bd7c850&#45;&gt;ast.Name object at 0x73d77bd7c6d0</title>
<path fill="none" stroke="black" d="M631.93,-215.7C624.3,-207.22 614.98,-196.86 606.62,-187.58"/>
<polygon fill="black" stroke="black" points="609.19,-185.2 599.89,-180.1 603.98,-189.88 609.19,-185.2"/>
</g>
<!-- ast.Name object at 0x73d77bd7c8d0&#45;&gt;ast.Store object at 0x73d867a3bb10 -->
<g id="edge42" class="edge">
<title>ast.Name object at 0x73d77bd7c8d0&#45;&gt;ast.Store object at 0x73d867a3bb10</title>
<path fill="none" stroke="black" d="M664.9,-143.7C668.77,-135.73 673.45,-126.1 677.74,-117.26"/>
<polygon fill="black" stroke="black" points="680.97,-118.63 682.19,-108.1 674.67,-115.57 680.97,-118.63"/>
</g>
<!-- ast.Name object at 0x73d77bd7c6d0&#45;&gt;ast.Load object at 0x73d867a3ba90 -->
<g id="edge44" class="edge">
<title>ast.Name object at 0x73d77bd7c6d0&#45;&gt;ast.Load object at 0x73d867a3ba90</title>
<path fill="none" stroke="black" d="M578.27,-143.92C572.35,-124.38 566.48,-92.43 582.5,-72 604.27,-44.24 705.01,-29.11 760.89,-22.72"/>
<polygon fill="black" stroke="black" points="761.55,-26.17 771.1,-21.59 760.78,-19.21 761.55,-26.17"/>
</g>
<!-- ast.BoolOp object at 0x73d77bd7dbd0 -->
<g id="node36" class="node">
<title>ast.BoolOp object at 0x73d77bd7dbd0</title>
<path fill="#66cdaa" stroke="black" d="M933,-252C933,-252 898,-252 898,-252 892,-252 886,-246 886,-240 886,-240 886,-228 886,-228 886,-222 892,-216 898,-216 898,-216 933,-216 933,-216 939,-216 945,-222 945,-228 945,-228 945,-240 945,-240 945,-246 939,-252 933,-252"/>
<text text-anchor="middle" x="915.5" y="-230.3" font-family="Times,serif" font-size="14.00">BoolOp</text>
</g>
<!-- ast.If object at 0x73d77bd7c790&#45;&gt;ast.BoolOp object at 0x73d77bd7dbd0 -->
<g id="edge46" class="edge">
<title>ast.If object at 0x73d77bd7c790&#45;&gt;ast.BoolOp object at 0x73d77bd7dbd0</title>
<path fill="none" stroke="black" d="M803.63,-291.34C824.32,-280.92 853.12,-266.41 876.31,-254.73"/>
<polygon fill="black" stroke="black" points="878.19,-257.71 885.55,-250.08 875.04,-251.46 878.19,-257.71"/>
</g>
<!-- ast.Assign object at 0x73d77bd7ef50 -->
<g id="node45" class="node">
<title>ast.Assign object at 0x73d77bd7ef50</title>
<path fill="#66cdaa" stroke="black" d="M791.5,-252C791.5,-252 761.5,-252 761.5,-252 755.5,-252 749.5,-246 749.5,-240 749.5,-240 749.5,-228 749.5,-228 749.5,-222 755.5,-216 761.5,-216 761.5,-216 791.5,-216 791.5,-216 797.5,-216 803.5,-222 803.5,-228 803.5,-228 803.5,-240 803.5,-240 803.5,-246 797.5,-252 791.5,-252"/>
<text text-anchor="middle" x="776.5" y="-230.3" font-family="Times,serif" font-size="14.00">Assign</text>
</g>
<!-- ast.If object at 0x73d77bd7c790&#45;&gt;ast.Assign object at 0x73d77bd7ef50 -->
<g id="edge60" class="edge">
<title>ast.If object at 0x73d77bd7c790&#45;&gt;ast.Assign object at 0x73d77bd7ef50</title>
<path fill="none" stroke="black" d="M776.5,-287.7C776.5,-279.98 776.5,-270.71 776.5,-262.11"/>
<polygon fill="black" stroke="black" points="780,-262.1 776.5,-252.1 773,-262.1 780,-262.1"/>
</g>
<!-- ast.And object at 0x73d867a3bd50 -->
<g id="node37" class="node">
<title>ast.And object at 0x73d867a3bd50</title>
<path fill="#66cdaa" stroke="black" d="M891.5,-180C891.5,-180 861.5,-180 861.5,-180 855.5,-180 849.5,-174 849.5,-168 849.5,-168 849.5,-156 849.5,-156 849.5,-150 855.5,-144 861.5,-144 861.5,-144 891.5,-144 891.5,-144 897.5,-144 903.5,-150 903.5,-156 903.5,-156 903.5,-168 903.5,-168 903.5,-174 897.5,-180 891.5,-180"/>
<text text-anchor="middle" x="876.5" y="-158.3" font-family="Times,serif" font-size="14.00">And</text>
</g>
<!-- ast.BoolOp object at 0x73d77bd7dbd0&#45;&gt;ast.And object at 0x73d867a3bd50 -->
<g id="edge47" class="edge">
<title>ast.BoolOp object at 0x73d77bd7dbd0&#45;&gt;ast.And object at 0x73d867a3bd50</title>
<path fill="none" stroke="black" d="M905.86,-215.7C901.37,-207.64 895.94,-197.89 890.98,-188.98"/>
<polygon fill="black" stroke="black" points="893.95,-187.14 886.03,-180.1 887.84,-190.54 893.95,-187.14"/>
</g>
<!-- ast.Compare object at 0x73d77bd7c590 -->
<g id="node38" class="node">
<title>ast.Compare object at 0x73d77bd7c590</title>
<path fill="#66cdaa" stroke="black" d="M977,-180C977,-180 934,-180 934,-180 928,-180 922,-174 922,-168 922,-168 922,-156 922,-156 922,-150 928,-144 934,-144 934,-144 977,-144 977,-144 983,-144 989,-150 989,-156 989,-156 989,-168 989,-168 989,-174 983,-180 977,-180"/>
<text text-anchor="middle" x="955.5" y="-158.3" font-family="Times,serif" font-size="14.00">Compare</text>
</g>
<!-- ast.BoolOp object at 0x73d77bd7dbd0&#45;&gt;ast.Compare object at 0x73d77bd7c590 -->
<g id="edge48" class="edge">
<title>ast.BoolOp object at 0x73d77bd7dbd0&#45;&gt;ast.Compare object at 0x73d77bd7c590</title>
<path fill="none" stroke="black" d="M925.39,-215.7C929.99,-207.64 935.56,-197.89 940.65,-188.98"/>
<polygon fill="black" stroke="black" points="943.8,-190.52 945.73,-180.1 937.73,-187.05 943.8,-190.52"/>
</g>
<!-- ast.Compare object at 0x73d77bd7c690 -->
<g id="node41" class="node">
<title>ast.Compare object at 0x73d77bd7c690</title>
<path fill="#66cdaa" stroke="black" d="M1135,-180C1135,-180 1092,-180 1092,-180 1086,-180 1080,-174 1080,-168 1080,-168 1080,-156 1080,-156 1080,-150 1086,-144 1092,-144 1092,-144 1135,-144 1135,-144 1141,-144 1147,-150 1147,-156 1147,-156 1147,-168 1147,-168 1147,-174 1141,-180 1135,-180"/>
<text text-anchor="middle" x="1113.5" y="-158.3" font-family="Times,serif" font-size="14.00">Compare</text>
</g>
<!-- ast.BoolOp object at 0x73d77bd7dbd0&#45;&gt;ast.Compare object at 0x73d77bd7c690 -->
<g id="edge54" class="edge">
<title>ast.BoolOp object at 0x73d77bd7dbd0&#45;&gt;ast.Compare object at 0x73d77bd7c690</title>
<path fill="none" stroke="black" d="M945.07,-223.35C974.47,-213.65 1021.06,-198.02 1070.22,-180.02"/>
<polygon fill="black" stroke="black" points="1071.58,-183.25 1079.76,-176.51 1069.16,-176.68 1071.58,-183.25"/>
</g>
<!-- ast.Compare object at 0x73d77bd7c590&#45;&gt;ast.Lt object at 0x73d867a48bd0 -->
<g id="edge51" class="edge">
<title>ast.Compare object at 0x73d77bd7c590&#45;&gt;ast.Lt object at 0x73d867a48bd0</title>
<path fill="none" stroke="black" d="M921.95,-146.86C918.79,-145.8 915.61,-144.82 912.5,-144 803.6,-115.31 767.42,-139.68 655.32,-107.71"/>
<polygon fill="black" stroke="black" points="656.26,-104.34 645.68,-104.88 654.29,-111.06 656.26,-104.34"/>
</g>
<!-- ast.Name object at 0x73d77bd7de90 -->
<g id="node39" class="node">
<title>ast.Name object at 0x73d77bd7de90</title>
<path fill="#66cdaa" stroke="black" d="M921.5,-108C921.5,-108 891.5,-108 891.5,-108 885.5,-108 879.5,-102 879.5,-96 879.5,-96 879.5,-84 879.5,-84 879.5,-78 885.5,-72 891.5,-72 891.5,-72 921.5,-72 921.5,-72 927.5,-72 933.5,-78 933.5,-84 933.5,-84 933.5,-96 933.5,-96 933.5,-102 927.5,-108 921.5,-108"/>
<text text-anchor="middle" x="906.5" y="-86.3" font-family="Times,serif" font-size="14.00">Name</text>
</g>
<!-- ast.Compare object at 0x73d77bd7c590&#45;&gt;ast.Name object at 0x73d77bd7de90 -->
<g id="edge49" class="edge">
<title>ast.Compare object at 0x73d77bd7c590&#45;&gt;ast.Name object at 0x73d77bd7de90</title>
<path fill="none" stroke="black" d="M943.39,-143.7C937.63,-135.47 930.64,-125.48 924.29,-116.42"/>
<polygon fill="black" stroke="black" points="927.08,-114.29 918.47,-108.1 921.34,-118.3 927.08,-114.29"/>
</g>
<!-- ast.Name object at 0x73d77bd7da50 -->
<g id="node40" class="node">
<title>ast.Name object at 0x73d77bd7da50</title>
<path fill="#66cdaa" stroke="black" d="M849.5,-108C849.5,-108 819.5,-108 819.5,-108 813.5,-108 807.5,-102 807.5,-96 807.5,-96 807.5,-84 807.5,-84 807.5,-78 813.5,-72 819.5,-72 819.5,-72 849.5,-72 849.5,-72 855.5,-72 861.5,-78 861.5,-84 861.5,-84 861.5,-96 861.5,-96 861.5,-102 855.5,-108 849.5,-108"/>
<text text-anchor="middle" x="834.5" y="-86.3" font-family="Times,serif" font-size="14.00">Name</text>
</g>
<!-- ast.Compare object at 0x73d77bd7c590&#45;&gt;ast.Name object at 0x73d77bd7da50 -->
<g id="edge52" class="edge">
<title>ast.Compare object at 0x73d77bd7c590&#45;&gt;ast.Name object at 0x73d77bd7da50</title>
<path fill="none" stroke="black" d="M925.9,-143.88C909.22,-134.23 888.25,-122.1 870.61,-111.89"/>
<polygon fill="black" stroke="black" points="872.13,-108.73 861.73,-106.75 868.63,-114.79 872.13,-108.73"/>
</g>
<!-- ast.Name object at 0x73d77bd7de90&#45;&gt;ast.Load object at 0x73d867a3ba90 -->
<g id="edge50" class="edge">
<title>ast.Name object at 0x73d77bd7de90&#45;&gt;ast.Load object at 0x73d867a3ba90</title>
<path fill="none" stroke="black" d="M880.08,-71.88C866.09,-62.81 848.72,-51.55 833.61,-41.76"/>
<polygon fill="black" stroke="black" points="835.32,-38.69 825.02,-36.19 831.51,-44.57 835.32,-38.69"/>
</g>
<!-- ast.Name object at 0x73d77bd7da50&#45;&gt;ast.Load object at 0x73d867a3ba90 -->
<g id="edge53" class="edge">
<title>ast.Name object at 0x73d77bd7da50&#45;&gt;ast.Load object at 0x73d867a3ba90</title>
<path fill="none" stroke="black" d="M825.6,-71.7C821.5,-63.73 816.55,-54.1 812.01,-45.26"/>
<polygon fill="black" stroke="black" points="814.98,-43.4 807.3,-36.1 808.76,-46.6 814.98,-43.4"/>
</g>
<!-- ast.Name object at 0x73d77bd7c550 -->
<g id="node42" class="node">
<title>ast.Name object at 0x73d77bd7c550</title>
<path fill="#66cdaa" stroke="black" d="M1065.5,-108C1065.5,-108 1035.5,-108 1035.5,-108 1029.5,-108 1023.5,-102 1023.5,-96 1023.5,-96 1023.5,-84 1023.5,-84 1023.5,-78 1029.5,-72 1035.5,-72 1035.5,-72 1065.5,-72 1065.5,-72 1071.5,-72 1077.5,-78 1077.5,-84 1077.5,-84 1077.5,-96 1077.5,-96 1077.5,-102 1071.5,-108 1065.5,-108"/>
<text text-anchor="middle" x="1050.5" y="-86.3" font-family="Times,serif" font-size="14.00">Name</text>
</g>
<!-- ast.Compare object at 0x73d77bd7c690&#45;&gt;ast.Name object at 0x73d77bd7c550 -->
<g id="edge55" class="edge">
<title>ast.Compare object at 0x73d77bd7c690&#45;&gt;ast.Name object at 0x73d77bd7c550</title>
<path fill="none" stroke="black" d="M1097.93,-143.7C1090.3,-135.22 1080.98,-124.86 1072.62,-115.58"/>
<polygon fill="black" stroke="black" points="1075.19,-113.2 1065.89,-108.1 1069.98,-117.88 1075.19,-113.2"/>
</g>
<!-- ast.NotEq object at 0x73d867a48b50 -->
<g id="node43" class="node">
<title>ast.NotEq object at 0x73d867a48b50</title>
<path fill="#66cdaa" stroke="black" d="M993.5,-108C993.5,-108 963.5,-108 963.5,-108 957.5,-108 951.5,-102 951.5,-96 951.5,-96 951.5,-84 951.5,-84 951.5,-78 957.5,-72 963.5,-72 963.5,-72 993.5,-72 993.5,-72 999.5,-72 1005.5,-78 1005.5,-84 1005.5,-84 1005.5,-96 1005.5,-96 1005.5,-102 999.5,-108 993.5,-108"/>
<text text-anchor="middle" x="978.5" y="-86.3" font-family="Times,serif" font-size="14.00">NotEq</text>
</g>
<!-- ast.Compare object at 0x73d77bd7c690&#45;&gt;ast.NotEq object at 0x73d867a48b50 -->
<g id="edge57" class="edge">
<title>ast.Compare object at 0x73d77bd7c690&#45;&gt;ast.NotEq object at 0x73d867a48b50</title>
<path fill="none" stroke="black" d="M1080.48,-143.88C1060.57,-133.56 1035.21,-120.4 1014.75,-109.8"/>
<polygon fill="black" stroke="black" points="1016.23,-106.62 1005.74,-105.12 1013,-112.83 1016.23,-106.62"/>
</g>
<!-- ast.Name object at 0x73d77bd7c410 -->
<g id="node44" class="node">
<title>ast.Name object at 0x73d77bd7c410</title>
<path fill="#66cdaa" stroke="black" d="M1137.5,-108C1137.5,-108 1107.5,-108 1107.5,-108 1101.5,-108 1095.5,-102 1095.5,-96 1095.5,-96 1095.5,-84 1095.5,-84 1095.5,-78 1101.5,-72 1107.5,-72 1107.5,-72 1137.5,-72 1137.5,-72 1143.5,-72 1149.5,-78 1149.5,-84 1149.5,-84 1149.5,-96 1149.5,-96 1149.5,-102 1143.5,-108 1137.5,-108"/>
<text text-anchor="middle" x="1122.5" y="-86.3" font-family="Times,serif" font-size="14.00">Name</text>
</g>
<!-- ast.Compare object at 0x73d77bd7c690&#45;&gt;ast.Name object at 0x73d77bd7c410 -->
<g id="edge58" class="edge">
<title>ast.Compare object at 0x73d77bd7c690&#45;&gt;ast.Name object at 0x73d77bd7c410</title>
<path fill="none" stroke="black" d="M1115.72,-143.7C1116.72,-135.98 1117.91,-126.71 1119.01,-118.11"/>
<polygon fill="black" stroke="black" points="1122.5,-118.47 1120.3,-108.1 1115.55,-117.58 1122.5,-118.47"/>
</g>
<!-- ast.Name object at 0x73d77bd7c550&#45;&gt;ast.Load object at 0x73d867a3ba90 -->
<g id="edge56" class="edge">
<title>ast.Name object at 0x73d77bd7c550&#45;&gt;ast.Load object at 0x73d867a3ba90</title>
<path fill="none" stroke="black" d="M1023.22,-75.43C1020.31,-74.19 1017.37,-73.02 1014.5,-72 953.18,-50.25 879.01,-34.17 835.47,-25.72"/>
<polygon fill="black" stroke="black" points="836.09,-22.28 825.61,-23.84 834.77,-29.15 836.09,-22.28"/>
</g>
<!-- ast.Name object at 0x73d77bd7c410&#45;&gt;ast.Load object at 0x73d867a3ba90 -->
<g id="edge59" class="edge">
<title>ast.Name object at 0x73d77bd7c410&#45;&gt;ast.Load object at 0x73d867a3ba90</title>
<path fill="none" stroke="black" d="M1095.28,-75.25C1092.36,-74.05 1089.39,-72.93 1086.5,-72 998.99,-43.81 891.39,-29 835.76,-22.73"/>
<polygon fill="black" stroke="black" points="836,-19.24 825.67,-21.63 835.23,-26.2 836,-19.24"/>
</g>
<!-- ast.Name object at 0x73d77bd7c4d0 -->
<g id="node46" class="node">
<title>ast.Name object at 0x73d77bd7c4d0</title>
<path fill="#66cdaa" stroke="black" d="M781.5,-180C781.5,-180 751.5,-180 751.5,-180 745.5,-180 739.5,-174 739.5,-168 739.5,-168 739.5,-156 739.5,-156 739.5,-150 745.5,-144 751.5,-144 751.5,-144 781.5,-144 781.5,-144 787.5,-144 793.5,-150 793.5,-156 793.5,-156 793.5,-168 793.5,-168 793.5,-174 787.5,-180 781.5,-180"/>
<text text-anchor="middle" x="766.5" y="-158.3" font-family="Times,serif" font-size="14.00">Name</text>
</g>
<!-- ast.Assign object at 0x73d77bd7ef50&#45;&gt;ast.Name object at 0x73d77bd7c4d0 -->
<g id="edge61" class="edge">
<title>ast.Assign object at 0x73d77bd7ef50&#45;&gt;ast.Name object at 0x73d77bd7c4d0</title>
<path fill="none" stroke="black" d="M774.03,-215.7C772.93,-207.98 771.6,-198.71 770.37,-190.11"/>
<polygon fill="black" stroke="black" points="773.82,-189.51 768.94,-180.1 766.89,-190.5 773.82,-189.51"/>
</g>
<!-- ast.Name object at 0x73d77bd7c450 -->
<g id="node47" class="node">
<title>ast.Name object at 0x73d77bd7c450</title>
<path fill="#66cdaa" stroke="black" d="M777.5,-108C777.5,-108 747.5,-108 747.5,-108 741.5,-108 735.5,-102 735.5,-96 735.5,-96 735.5,-84 735.5,-84 735.5,-78 741.5,-72 747.5,-72 747.5,-72 777.5,-72 777.5,-72 783.5,-72 789.5,-78 789.5,-84 789.5,-84 789.5,-96 789.5,-96 789.5,-102 783.5,-108 777.5,-108"/>
<text text-anchor="middle" x="762.5" y="-86.3" font-family="Times,serif" font-size="14.00">Name</text>
</g>
<!-- ast.Assign object at 0x73d77bd7ef50&#45;&gt;ast.Name object at 0x73d77bd7c450 -->
<g id="edge63" class="edge">
<title>ast.Assign object at 0x73d77bd7ef50&#45;&gt;ast.Name object at 0x73d77bd7c450</title>
<path fill="none" stroke="black" d="M787.79,-215.81C798.17,-197.8 810.78,-168.73 802.5,-144 799.15,-134 793.08,-124.38 786.67,-116.14"/>
<polygon fill="black" stroke="black" points="789.32,-113.85 780.23,-108.4 783.94,-118.33 789.32,-113.85"/>
</g>
<!-- ast.Name object at 0x73d77bd7c4d0&#45;&gt;ast.Store object at 0x73d867a3bb10 -->
<g id="edge62" class="edge">
<title>ast.Name object at 0x73d77bd7c4d0&#45;&gt;ast.Store object at 0x73d867a3bb10</title>
<path fill="none" stroke="black" d="M747.71,-143.7C738.33,-135.05 726.82,-124.45 716.59,-115.03"/>
<polygon fill="black" stroke="black" points="718.8,-112.3 709.07,-108.1 714.05,-117.45 718.8,-112.3"/>
</g>
<!-- ast.Name object at 0x73d77bd7c450&#45;&gt;ast.Load object at 0x73d867a3ba90 -->
<g id="edge64" class="edge">
<title>ast.Name object at 0x73d77bd7c450&#45;&gt;ast.Load object at 0x73d867a3ba90</title>
<path fill="none" stroke="black" d="M771.4,-71.7C775.5,-63.73 780.45,-54.1 784.99,-45.26"/>
<polygon fill="black" stroke="black" points="788.24,-46.6 789.7,-36.1 782.02,-43.4 788.24,-46.6"/>
</g>
<!-- ast.Compare object at 0x73d77bd7c750 -->
<g id="node49" class="node">
<title>ast.Compare object at 0x73d77bd7c750</title>
<path fill="#66cdaa" stroke="black" d="M1448,-252C1448,-252 1405,-252 1405,-252 1399,-252 1393,-246 1393,-240 1393,-240 1393,-228 1393,-228 1393,-222 1399,-216 1405,-216 1405,-216 1448,-216 1448,-216 1454,-216 1460,-222 1460,-228 1460,-228 1460,-240 1460,-240 1460,-246 1454,-252 1448,-252"/>
<text text-anchor="middle" x="1426.5" y="-230.3" font-family="Times,serif" font-size="14.00">Compare</text>
</g>
<!-- ast.If object at 0x73d77bd7c2d0&#45;&gt;ast.Compare object at 0x73d77bd7c750 -->
<g id="edge66" class="edge">
<title>ast.If object at 0x73d77bd7c2d0&#45;&gt;ast.Compare object at 0x73d77bd7c750</title>
<path fill="none" stroke="black" d="M1384.34,-287.7C1390.99,-279.39 1399.08,-269.28 1406.39,-260.14"/>
<polygon fill="black" stroke="black" points="1409.3,-262.1 1412.82,-252.1 1403.84,-257.73 1409.3,-262.1"/>
</g>
<!-- ast.Return object at 0x73d77bd7c250 -->
<g id="node55" class="node">
<title>ast.Return object at 0x73d77bd7c250</title>
<path fill="#66cdaa" stroke="black" d="M1572.5,-252C1572.5,-252 1542.5,-252 1542.5,-252 1536.5,-252 1530.5,-246 1530.5,-240 1530.5,-240 1530.5,-228 1530.5,-228 1530.5,-222 1536.5,-216 1542.5,-216 1542.5,-216 1572.5,-216 1572.5,-216 1578.5,-216 1584.5,-222 1584.5,-228 1584.5,-228 1584.5,-240 1584.5,-240 1584.5,-246 1578.5,-252 1572.5,-252"/>
<text text-anchor="middle" x="1557.5" y="-230.3" font-family="Times,serif" font-size="14.00">Return</text>
</g>
<!-- ast.If object at 0x73d77bd7c2d0&#45;&gt;ast.Return object at 0x73d77bd7c250 -->
<g id="edge74" class="edge">
<title>ast.If object at 0x73d77bd7c2d0&#45;&gt;ast.Return object at 0x73d77bd7c250</title>
<path fill="none" stroke="black" d="M1397.69,-294.82C1430.1,-282.69 1484.4,-262.36 1520.58,-248.82"/>
<polygon fill="black" stroke="black" points="1522.14,-251.97 1530.28,-245.19 1519.68,-245.42 1522.14,-251.97"/>
</g>
<!-- ast.Return object at 0x73d77bd7fc10 -->
<g id="node57" class="node">
<title>ast.Return object at 0x73d77bd7fc10</title>
<path fill="#66cdaa" stroke="black" d="M1330.5,-252C1330.5,-252 1300.5,-252 1300.5,-252 1294.5,-252 1288.5,-246 1288.5,-240 1288.5,-240 1288.5,-228 1288.5,-228 1288.5,-222 1294.5,-216 1300.5,-216 1300.5,-216 1330.5,-216 1330.5,-216 1336.5,-216 1342.5,-222 1342.5,-228 1342.5,-228 1342.5,-240 1342.5,-240 1342.5,-246 1336.5,-252 1330.5,-252"/>
<text text-anchor="middle" x="1315.5" y="-230.3" font-family="Times,serif" font-size="14.00">Return</text>
</g>
<!-- ast.If object at 0x73d77bd7c2d0&#45;&gt;ast.Return object at 0x73d77bd7fc10 -->
<g id="edge76" class="edge">
<title>ast.If object at 0x73d77bd7c2d0&#45;&gt;ast.Return object at 0x73d77bd7fc10</title>
<path fill="none" stroke="black" d="M1356.9,-287.7C1350.38,-279.39 1342.43,-269.28 1335.25,-260.14"/>
<polygon fill="black" stroke="black" points="1337.87,-257.81 1328.94,-252.1 1332.37,-262.13 1337.87,-257.81"/>
</g>
<!-- ast.Name object at 0x73d77bd7c390 -->
<g id="node50" class="node">
<title>ast.Name object at 0x73d77bd7c390</title>
<path fill="#66cdaa" stroke="black" d="M1386.5,-180C1386.5,-180 1356.5,-180 1356.5,-180 1350.5,-180 1344.5,-174 1344.5,-168 1344.5,-168 1344.5,-156 1344.5,-156 1344.5,-150 1350.5,-144 1356.5,-144 1356.5,-144 1386.5,-144 1386.5,-144 1392.5,-144 1398.5,-150 1398.5,-156 1398.5,-156 1398.5,-168 1398.5,-168 1398.5,-174 1392.5,-180 1386.5,-180"/>
<text text-anchor="middle" x="1371.5" y="-158.3" font-family="Times,serif" font-size="14.00">Name</text>
</g>
<!-- ast.Compare object at 0x73d77bd7c750&#45;&gt;ast.Name object at 0x73d77bd7c390 -->
<g id="edge67" class="edge">
<title>ast.Compare object at 0x73d77bd7c750&#45;&gt;ast.Name object at 0x73d77bd7c390</title>
<path fill="none" stroke="black" d="M1412.9,-215.7C1406.38,-207.39 1398.43,-197.28 1391.25,-188.14"/>
<polygon fill="black" stroke="black" points="1393.87,-185.81 1384.94,-180.1 1388.37,-190.13 1393.87,-185.81"/>
</g>
<!-- ast.Eq object at 0x73d867a48ad0 -->
<g id="node51" class="node">
<title>ast.Eq object at 0x73d867a48ad0</title>
<path fill="#66cdaa" stroke="black" d="M1530.5,-180C1530.5,-180 1500.5,-180 1500.5,-180 1494.5,-180 1488.5,-174 1488.5,-168 1488.5,-168 1488.5,-156 1488.5,-156 1488.5,-150 1494.5,-144 1500.5,-144 1500.5,-144 1530.5,-144 1530.5,-144 1536.5,-144 1542.5,-150 1542.5,-156 1542.5,-156 1542.5,-168 1542.5,-168 1542.5,-174 1536.5,-180 1530.5,-180"/>
<text text-anchor="middle" x="1515.5" y="-158.3" font-family="Times,serif" font-size="14.00">Eq</text>
</g>
<!-- ast.Compare object at 0x73d77bd7c750&#45;&gt;ast.Eq object at 0x73d867a48ad0 -->
<g id="edge69" class="edge">
<title>ast.Compare object at 0x73d77bd7c750&#45;&gt;ast.Eq object at 0x73d867a48ad0</title>
<path fill="none" stroke="black" d="M1448.5,-215.7C1459.71,-206.88 1473.5,-196.03 1485.65,-186.47"/>
<polygon fill="black" stroke="black" points="1488.06,-189.04 1493.75,-180.1 1483.73,-183.54 1488.06,-189.04"/>
</g>
<!-- ast.Call object at 0x73d77bd7c310 -->
<g id="node52" class="node">
<title>ast.Call object at 0x73d77bd7c310</title>
<path fill="#66cdaa" stroke="black" d="M1458.5,-180C1458.5,-180 1428.5,-180 1428.5,-180 1422.5,-180 1416.5,-174 1416.5,-168 1416.5,-168 1416.5,-156 1416.5,-156 1416.5,-150 1422.5,-144 1428.5,-144 1428.5,-144 1458.5,-144 1458.5,-144 1464.5,-144 1470.5,-150 1470.5,-156 1470.5,-156 1470.5,-168 1470.5,-168 1470.5,-174 1464.5,-180 1458.5,-180"/>
<text text-anchor="middle" x="1443.5" y="-158.3" font-family="Times,serif" font-size="14.00">Call</text>
</g>
<!-- ast.Compare object at 0x73d77bd7c750&#45;&gt;ast.Call object at 0x73d77bd7c310 -->
<g id="edge70" class="edge">
<title>ast.Compare object at 0x73d77bd7c750&#45;&gt;ast.Call object at 0x73d77bd7c310</title>
<path fill="none" stroke="black" d="M1430.7,-215.7C1432.6,-207.9 1434.88,-198.51 1436.98,-189.83"/>
<polygon fill="black" stroke="black" points="1440.39,-190.65 1439.35,-180.1 1433.58,-189 1440.39,-190.65"/>
</g>
<!-- ast.Name object at 0x73d77bd7c390&#45;&gt;ast.Load object at 0x73d867a3ba90 -->
<g id="edge68" class="edge">
<title>ast.Name object at 0x73d77bd7c390&#45;&gt;ast.Load object at 0x73d867a3ba90</title>
<path fill="none" stroke="black" d="M1369.17,-143.69C1365.4,-122.97 1355.84,-88.96 1332.5,-72 1292.44,-42.89 950.59,-25.58 835.86,-20.54"/>
<polygon fill="black" stroke="black" points="835.94,-17.04 825.8,-20.11 835.64,-24.04 835.94,-17.04"/>
</g>
<!-- ast.Name object at 0x73d77bd7c190 -->
<g id="node53" class="node">
<title>ast.Name object at 0x73d77bd7c190</title>
<path fill="#66cdaa" stroke="black" d="M1441.5,-108C1441.5,-108 1411.5,-108 1411.5,-108 1405.5,-108 1399.5,-102 1399.5,-96 1399.5,-96 1399.5,-84 1399.5,-84 1399.5,-78 1405.5,-72 1411.5,-72 1411.5,-72 1441.5,-72 1441.5,-72 1447.5,-72 1453.5,-78 1453.5,-84 1453.5,-84 1453.5,-96 1453.5,-96 1453.5,-102 1447.5,-108 1441.5,-108"/>
<text text-anchor="middle" x="1426.5" y="-86.3" font-family="Times,serif" font-size="14.00">Name</text>
</g>
<!-- ast.Call object at 0x73d77bd7c310&#45;&gt;ast.Name object at 0x73d77bd7c190 -->
<g id="edge71" class="edge">
<title>ast.Call object at 0x73d77bd7c310&#45;&gt;ast.Name object at 0x73d77bd7c190</title>
<path fill="none" stroke="black" d="M1439.3,-143.7C1437.4,-135.9 1435.12,-126.51 1433.02,-117.83"/>
<polygon fill="black" stroke="black" points="1436.42,-117 1430.65,-108.1 1429.61,-118.65 1436.42,-117"/>
</g>
<!-- ast.Constant object at 0x73d77bd7c5d0 -->
<g id="node54" class="node">
<title>ast.Constant object at 0x73d77bd7c5d0</title>
<path fill="#66cdaa" stroke="black" d="M1525,-108C1525,-108 1484,-108 1484,-108 1478,-108 1472,-102 1472,-96 1472,-96 1472,-84 1472,-84 1472,-78 1478,-72 1484,-72 1484,-72 1525,-72 1525,-72 1531,-72 1537,-78 1537,-84 1537,-84 1537,-96 1537,-96 1537,-102 1531,-108 1525,-108"/>
<text text-anchor="middle" x="1504.5" y="-86.3" font-family="Times,serif" font-size="14.00">Constant</text>
</g>
<!-- ast.Call object at 0x73d77bd7c310&#45;&gt;ast.Constant object at 0x73d77bd7c5d0 -->
<g id="edge73" class="edge">
<title>ast.Call object at 0x73d77bd7c310&#45;&gt;ast.Constant object at 0x73d77bd7c5d0</title>
<path fill="none" stroke="black" d="M1458.58,-143.7C1465.89,-135.3 1474.81,-125.07 1482.84,-115.86"/>
<polygon fill="black" stroke="black" points="1485.66,-117.94 1489.59,-108.1 1480.39,-113.34 1485.66,-117.94"/>
</g>
<!-- ast.Name object at 0x73d77bd7c190&#45;&gt;ast.Load object at 0x73d867a3ba90 -->
<g id="edge72" class="edge">
<title>ast.Name object at 0x73d77bd7c190&#45;&gt;ast.Load object at 0x73d867a3ba90</title>
<path fill="none" stroke="black" d="M1399.1,-76.31C1394.63,-74.63 1389.99,-73.11 1385.5,-72 1182.45,-21.98 929.49,-18.04 835.72,-18.49"/>
<polygon fill="black" stroke="black" points="835.57,-14.99 825.6,-18.56 835.62,-21.99 835.57,-14.99"/>
</g>
<!-- ast.Constant object at 0x73d77bd7c0d0 -->
<g id="node56" class="node">
<title>ast.Constant object at 0x73d77bd7c0d0</title>
<path fill="#66cdaa" stroke="black" d="M1614,-180C1614,-180 1573,-180 1573,-180 1567,-180 1561,-174 1561,-168 1561,-168 1561,-156 1561,-156 1561,-150 1567,-144 1573,-144 1573,-144 1614,-144 1614,-144 1620,-144 1626,-150 1626,-156 1626,-156 1626,-168 1626,-168 1626,-174 1620,-180 1614,-180"/>
<text text-anchor="middle" x="1593.5" y="-158.3" font-family="Times,serif" font-size="14.00">Constant</text>
</g>
<!-- ast.Return object at 0x73d77bd7c250&#45;&gt;ast.Constant object at 0x73d77bd7c0d0 -->
<g id="edge75" class="edge">
<title>ast.Return object at 0x73d77bd7c250&#45;&gt;ast.Constant object at 0x73d77bd7c0d0</title>
<path fill="none" stroke="black" d="M1566.4,-215.7C1570.5,-207.73 1575.45,-198.1 1579.99,-189.26"/>
<polygon fill="black" stroke="black" points="1583.24,-190.6 1584.7,-180.1 1577.02,-187.4 1583.24,-190.6"/>
</g>
<!-- ast.Name object at 0x73d77bd7c490 -->
<g id="node58" class="node">
<title>ast.Name object at 0x73d77bd7c490</title>
<path fill="#66cdaa" stroke="black" d="M1314.5,-180C1314.5,-180 1284.5,-180 1284.5,-180 1278.5,-180 1272.5,-174 1272.5,-168 1272.5,-168 1272.5,-156 1272.5,-156 1272.5,-150 1278.5,-144 1284.5,-144 1284.5,-144 1314.5,-144 1314.5,-144 1320.5,-144 1326.5,-150 1326.5,-156 1326.5,-156 1326.5,-168 1326.5,-168 1326.5,-174 1320.5,-180 1314.5,-180"/>
<text text-anchor="middle" x="1299.5" y="-158.3" font-family="Times,serif" font-size="14.00">Name</text>
</g>
<!-- ast.Return object at 0x73d77bd7fc10&#45;&gt;ast.Name object at 0x73d77bd7c490 -->
<g id="edge77" class="edge">
<title>ast.Return object at 0x73d77bd7fc10&#45;&gt;ast.Name object at 0x73d77bd7c490</title>
<path fill="none" stroke="black" d="M1311.54,-215.7C1309.78,-207.98 1307.66,-198.71 1305.7,-190.11"/>
<polygon fill="black" stroke="black" points="1309.05,-189.07 1303.41,-180.1 1302.23,-190.63 1309.05,-189.07"/>
</g>
<!-- ast.Name object at 0x73d77bd7c490&#45;&gt;ast.Load object at 0x73d867a3ba90 -->
<g id="edge78" class="edge">
<title>ast.Name object at 0x73d77bd7c490&#45;&gt;ast.Load object at 0x73d867a3ba90</title>
<path fill="none" stroke="black" d="M1309.67,-143.96C1320.02,-124.15 1332.24,-91.66 1314.5,-72 1282.5,-36.54 949.15,-23.45 835.91,-20.01"/>
<polygon fill="black" stroke="black" points="835.75,-16.51 825.65,-19.71 835.54,-23.5 835.75,-16.51"/>
</g>
</g>
</svg>
