<?xml version="1.0" encoding="UTF-8" standalone="no"?>
<!DOCTYPE svg PUBLIC "-//W3C//DTD SVG 1.1//EN"
 "http://www.w3.org/Graphics/SVG/1.1/DTD/svg11.dtd">
<!-- Generated by graphviz version 2.50.0 (0)
 -->
<!-- Pages: 1 -->
<svg width="1575pt" height="548pt"
 viewBox="0.00 0.00 1574.50 548.00" xmlns="http://www.w3.org/2000/svg" xmlns:xlink="http://www.w3.org/1999/xlink">
<g id="graph0" class="graph" transform="scale(1 1) rotate(0) translate(4 544)">
<polygon fill="white" stroke="transparent" points="-4,4 -4,-544 1570.5,-544 1570.5,4 -4,4"/>
<!-- ast.Module object at 0x7dbe1a518150 -->
<g id="node1" class="node">
<title>ast.Module object at 0x7dbe1a518150</title>
<path fill="#66cdaa" stroke="black" d="M504,-540C504,-540 469,-540 469,-540 463,-540 457,-534 457,-528 457,-528 457,-516 457,-516 457,-510 463,-504 469,-504 469,-504 504,-504 504,-504 510,-504 516,-510 516,-516 516,-516 516,-528 516,-528 516,-534 510,-540 504,-540"/>
<text text-anchor="middle" x="486.5" y="-518.3" font-family="Times,serif" font-size="14.00">Module</text>
</g>
<!-- ast.FunctionDef object at 0x7dbe1a518090 -->
<g id="node2" class="node">
<title>ast.FunctionDef object at 0x7dbe1a518090</title>
<path fill="#66cdaa" stroke="black" d="M517,-468C517,-468 456,-468 456,-468 450,-468 444,-462 444,-456 444,-456 444,-444 444,-444 444,-438 450,-432 456,-432 456,-432 517,-432 517,-432 523,-432 529,-438 529,-444 529,-444 529,-456 529,-456 529,-462 523,-468 517,-468"/>
<text text-anchor="middle" x="486.5" y="-446.3" font-family="Times,serif" font-size="14.00">FunctionDef</text>
</g>
<!-- ast.Module object at 0x7dbe1a518150&#45;&gt;ast.FunctionDef object at 0x7dbe1a518090 -->
<g id="edge1" class="edge">
<title>ast.Module object at 0x7dbe1a518150&#45;&gt;ast.FunctionDef object at 0x7dbe1a518090</title>
<path fill="none" stroke="black" d="M486.5,-503.7C486.5,-495.98 486.5,-486.71 486.5,-478.11"/>
<polygon fill="black" stroke="black" points="490,-478.1 486.5,-468.1 483,-478.1 490,-478.1"/>
</g>
<!-- ast.arguments object at 0x7dbe1a51aa90 -->
<g id="node3" class="node">
<title>ast.arguments object at 0x7dbe1a51aa90</title>
<path fill="#66cdaa" stroke="black" d="M230.5,-396C230.5,-396 180.5,-396 180.5,-396 174.5,-396 168.5,-390 168.5,-384 168.5,-384 168.5,-372 168.5,-372 168.5,-366 174.5,-360 180.5,-360 180.5,-360 230.5,-360 230.5,-360 236.5,-360 242.5,-366 242.5,-372 242.5,-372 242.5,-384 242.5,-384 242.5,-390 236.5,-396 230.5,-396"/>
<text text-anchor="middle" x="205.5" y="-374.3" font-family="Times,serif" font-size="14.00">arguments</text>
</g>
<!-- ast.FunctionDef object at 0x7dbe1a518090&#45;&gt;ast.arguments object at 0x7dbe1a51aa90 -->
<g id="edge2" class="edge">
<title>ast.FunctionDef object at 0x7dbe1a518090&#45;&gt;ast.arguments object at 0x7dbe1a51aa90</title>
<path fill="none" stroke="black" d="M443.82,-438.37C392.33,-425.54 306.04,-404.04 252.63,-390.74"/>
<polygon fill="black" stroke="black" points="253.28,-387.3 242.73,-388.27 251.59,-394.09 253.28,-387.3"/>
</g>
<!-- ast.Assign object at 0x7dbe1a518250 -->
<g id="node5" class="node">
<title>ast.Assign object at 0x7dbe1a518250</title>
<path fill="#66cdaa" stroke="black" d="M330.5,-396C330.5,-396 300.5,-396 300.5,-396 294.5,-396 288.5,-390 288.5,-384 288.5,-384 288.5,-372 288.5,-372 288.5,-366 294.5,-360 300.5,-360 300.5,-360 330.5,-360 330.5,-360 336.5,-360 342.5,-366 342.5,-372 342.5,-372 342.5,-384 342.5,-384 342.5,-390 336.5,-396 330.5,-396"/>
<text text-anchor="middle" x="315.5" y="-374.3" font-family="Times,serif" font-size="14.00">Assign</text>
</g>
<!-- ast.FunctionDef object at 0x7dbe1a518090&#45;&gt;ast.Assign object at 0x7dbe1a518250 -->
<g id="edge4" class="edge">
<title>ast.FunctionDef object at 0x7dbe1a518090&#45;&gt;ast.Assign object at 0x7dbe1a518250</title>
<path fill="none" stroke="black" d="M444.67,-431.88C416.31,-420.27 379.2,-405.08 352.03,-393.95"/>
<polygon fill="black" stroke="black" points="353.09,-390.61 342.51,-390.06 350.44,-397.08 353.09,-390.61"/>
</g>
<!-- ast.Assign object at 0x7dbe1a5a2410 -->
<g id="node9" class="node">
<title>ast.Assign object at 0x7dbe1a5a2410</title>
<path fill="#66cdaa" stroke="black" d="M501.5,-396C501.5,-396 471.5,-396 471.5,-396 465.5,-396 459.5,-390 459.5,-384 459.5,-384 459.5,-372 459.5,-372 459.5,-366 465.5,-360 471.5,-360 471.5,-360 501.5,-360 501.5,-360 507.5,-360 513.5,-366 513.5,-372 513.5,-372 513.5,-384 513.5,-384 513.5,-390 507.5,-396 501.5,-396"/>
<text text-anchor="middle" x="486.5" y="-374.3" font-family="Times,serif" font-size="14.00">Assign</text>
</g>
<!-- ast.FunctionDef object at 0x7dbe1a518090&#45;&gt;ast.Assign object at 0x7dbe1a5a2410 -->
<g id="edge8" class="edge">
<title>ast.FunctionDef object at 0x7dbe1a518090&#45;&gt;ast.Assign object at 0x7dbe1a5a2410</title>
<path fill="none" stroke="black" d="M486.5,-431.7C486.5,-423.98 486.5,-414.71 486.5,-406.11"/>
<polygon fill="black" stroke="black" points="490,-406.1 486.5,-396.1 483,-406.1 490,-406.1"/>
</g>
<!-- ast.For object at 0x7dbe1f0ffe90 -->
<g id="node12" class="node">
<title>ast.For object at 0x7dbe1f0ffe90</title>
<path fill="#66cdaa" stroke="black" d="M745.5,-396C745.5,-396 715.5,-396 715.5,-396 709.5,-396 703.5,-390 703.5,-384 703.5,-384 703.5,-372 703.5,-372 703.5,-366 709.5,-360 715.5,-360 715.5,-360 745.5,-360 745.5,-360 751.5,-360 757.5,-366 757.5,-372 757.5,-372 757.5,-384 757.5,-384 757.5,-390 751.5,-396 745.5,-396"/>
<text text-anchor="middle" x="730.5" y="-374.3" font-family="Times,serif" font-size="14.00">For</text>
</g>
<!-- ast.FunctionDef object at 0x7dbe1a518090&#45;&gt;ast.For object at 0x7dbe1f0ffe90 -->
<g id="edge12" class="edge">
<title>ast.FunctionDef object at 0x7dbe1a518090&#45;&gt;ast.For object at 0x7dbe1f0ffe90</title>
<path fill="none" stroke="black" d="M529,-436.81C575.49,-423.47 649.26,-402.31 693.46,-389.63"/>
<polygon fill="black" stroke="black" points="694.58,-392.95 703.23,-386.82 692.65,-386.22 694.58,-392.95"/>
</g>
<!-- ast.Return object at 0x7dbe1a519d90 -->
<g id="node61" class="node">
<title>ast.Return object at 0x7dbe1a519d90</title>
<path fill="#66cdaa" stroke="black" d="M1107.5,-396C1107.5,-396 1077.5,-396 1077.5,-396 1071.5,-396 1065.5,-390 1065.5,-384 1065.5,-384 1065.5,-372 1065.5,-372 1065.5,-366 1071.5,-360 1077.5,-360 1077.5,-360 1107.5,-360 1107.5,-360 1113.5,-360 1119.5,-366 1119.5,-372 1119.5,-372 1119.5,-384 1119.5,-384 1119.5,-390 1113.5,-396 1107.5,-396"/>
<text text-anchor="middle" x="1092.5" y="-374.3" font-family="Times,serif" font-size="14.00">Return</text>
</g>
<!-- ast.FunctionDef object at 0x7dbe1a518090&#45;&gt;ast.Return object at 0x7dbe1a519d90 -->
<g id="edge84" class="edge">
<title>ast.FunctionDef object at 0x7dbe1a518090&#45;&gt;ast.Return object at 0x7dbe1a519d90</title>
<path fill="none" stroke="black" d="M529.11,-444.08C642.27,-431.01 948.91,-395.59 1055.44,-383.28"/>
<polygon fill="black" stroke="black" points="1055.87,-386.75 1065.4,-382.13 1055.06,-379.8 1055.87,-386.75"/>
</g>
<!-- ast.arg object at 0x7dbe1a518110 -->
<g id="node4" class="node">
<title>ast.arg object at 0x7dbe1a518110</title>
<path fill="#66cdaa" stroke="black" d="M191.5,-324C191.5,-324 161.5,-324 161.5,-324 155.5,-324 149.5,-318 149.5,-312 149.5,-312 149.5,-300 149.5,-300 149.5,-294 155.5,-288 161.5,-288 161.5,-288 191.5,-288 191.5,-288 197.5,-288 203.5,-294 203.5,-300 203.5,-300 203.5,-312 203.5,-312 203.5,-318 197.5,-324 191.5,-324"/>
<text text-anchor="middle" x="176.5" y="-302.3" font-family="Times,serif" font-size="14.00">arg</text>
</g>
<!-- ast.arguments object at 0x7dbe1a51aa90&#45;&gt;ast.arg object at 0x7dbe1a518110 -->
<g id="edge3" class="edge">
<title>ast.arguments object at 0x7dbe1a51aa90&#45;&gt;ast.arg object at 0x7dbe1a518110</title>
<path fill="none" stroke="black" d="M198.33,-359.7C195.07,-351.81 191.13,-342.3 187.5,-333.55"/>
<polygon fill="black" stroke="black" points="190.65,-332 183.59,-324.1 184.18,-334.68 190.65,-332"/>
</g>
<!-- ast.Name object at 0x7dbe1a51b9d0 -->
<g id="node6" class="node">
<title>ast.Name object at 0x7dbe1a51b9d0</title>
<path fill="#66cdaa" stroke="black" d="M509.5,-180C509.5,-180 479.5,-180 479.5,-180 473.5,-180 467.5,-174 467.5,-168 467.5,-168 467.5,-156 467.5,-156 467.5,-150 473.5,-144 479.5,-144 479.5,-144 509.5,-144 509.5,-144 515.5,-144 521.5,-150 521.5,-156 521.5,-156 521.5,-168 521.5,-168 521.5,-174 515.5,-180 509.5,-180"/>
<text text-anchor="middle" x="494.5" y="-158.3" font-family="Times,serif" font-size="14.00">Name</text>
</g>
<!-- ast.Assign object at 0x7dbe1a518250&#45;&gt;ast.Name object at 0x7dbe1a51b9d0 -->
<g id="edge5" class="edge">
<title>ast.Assign object at 0x7dbe1a518250&#45;&gt;ast.Name object at 0x7dbe1a51b9d0</title>
<path fill="none" stroke="black" d="M316.5,-359.7C318.17,-341.08 322.62,-311.03 334.5,-288 361.09,-236.45 419.6,-199.52 458.02,-179.72"/>
<polygon fill="black" stroke="black" points="459.95,-182.67 467.32,-175.06 456.81,-176.41 459.95,-182.67"/>
</g>
<!-- ast.Constant object at 0x7dbe1a51a250 -->
<g id="node8" class="node">
<title>ast.Constant object at 0x7dbe1a51a250</title>
<path fill="#66cdaa" stroke="black" d="M275,-324C275,-324 234,-324 234,-324 228,-324 222,-318 222,-312 222,-312 222,-300 222,-300 222,-294 228,-288 234,-288 234,-288 275,-288 275,-288 281,-288 287,-294 287,-300 287,-300 287,-312 287,-312 287,-318 281,-324 275,-324"/>
<text text-anchor="middle" x="254.5" y="-302.3" font-family="Times,serif" font-size="14.00">Constant</text>
</g>
<!-- ast.Assign object at 0x7dbe1a518250&#45;&gt;ast.Constant object at 0x7dbe1a51a250 -->
<g id="edge7" class="edge">
<title>ast.Assign object at 0x7dbe1a518250&#45;&gt;ast.Constant object at 0x7dbe1a51a250</title>
<path fill="none" stroke="black" d="M300.42,-359.7C293.11,-351.3 284.19,-341.07 276.16,-331.86"/>
<polygon fill="black" stroke="black" points="278.61,-329.34 269.41,-324.1 273.34,-333.94 278.61,-329.34"/>
</g>
<!-- ast.Store object at 0x7dbf54602c90 -->
<g id="node7" class="node">
<title>ast.Store object at 0x7dbf54602c90</title>
<path fill="#66cdaa" stroke="black" d="M602.5,-108C602.5,-108 572.5,-108 572.5,-108 566.5,-108 560.5,-102 560.5,-96 560.5,-96 560.5,-84 560.5,-84 560.5,-78 566.5,-72 572.5,-72 572.5,-72 602.5,-72 602.5,-72 608.5,-72 614.5,-78 614.5,-84 614.5,-84 614.5,-96 614.5,-96 614.5,-102 608.5,-108 602.5,-108"/>
<text text-anchor="middle" x="587.5" y="-86.3" font-family="Times,serif" font-size="14.00">Store</text>
</g>
<!-- ast.Name object at 0x7dbe1a51b9d0&#45;&gt;ast.Store object at 0x7dbf54602c90 -->
<g id="edge6" class="edge">
<title>ast.Name object at 0x7dbe1a51b9d0&#45;&gt;ast.Store object at 0x7dbf54602c90</title>
<path fill="none" stroke="black" d="M517.49,-143.7C529.31,-134.8 543.89,-123.82 556.68,-114.2"/>
<polygon fill="black" stroke="black" points="558.89,-116.91 564.78,-108.1 554.68,-111.32 558.89,-116.91"/>
</g>
<!-- ast.Name object at 0x7dbe3bad2f50 -->
<g id="node10" class="node">
<title>ast.Name object at 0x7dbe3bad2f50</title>
<path fill="#66cdaa" stroke="black" d="M601.5,-324C601.5,-324 571.5,-324 571.5,-324 565.5,-324 559.5,-318 559.5,-312 559.5,-312 559.5,-300 559.5,-300 559.5,-294 565.5,-288 571.5,-288 571.5,-288 601.5,-288 601.5,-288 607.5,-288 613.5,-294 613.5,-300 613.5,-300 613.5,-312 613.5,-312 613.5,-318 607.5,-324 601.5,-324"/>
<text text-anchor="middle" x="586.5" y="-302.3" font-family="Times,serif" font-size="14.00">Name</text>
</g>
<!-- ast.Assign object at 0x7dbe1a5a2410&#45;&gt;ast.Name object at 0x7dbe3bad2f50 -->
<g id="edge9" class="edge">
<title>ast.Assign object at 0x7dbe1a5a2410&#45;&gt;ast.Name object at 0x7dbe3bad2f50</title>
<path fill="none" stroke="black" d="M510.96,-359.88C523.8,-350.89 539.7,-339.76 553.59,-330.03"/>
<polygon fill="black" stroke="black" points="555.76,-332.79 561.94,-324.19 551.74,-327.06 555.76,-332.79"/>
</g>
<!-- ast.Dict object at 0x7dbe15468d90 -->
<g id="node11" class="node">
<title>ast.Dict object at 0x7dbe15468d90</title>
<path fill="#66cdaa" stroke="black" d="M385.5,-324C385.5,-324 355.5,-324 355.5,-324 349.5,-324 343.5,-318 343.5,-312 343.5,-312 343.5,-300 343.5,-300 343.5,-294 349.5,-288 355.5,-288 355.5,-288 385.5,-288 385.5,-288 391.5,-288 397.5,-294 397.5,-300 397.5,-300 397.5,-312 397.5,-312 397.5,-318 391.5,-324 385.5,-324"/>
<text text-anchor="middle" x="370.5" y="-302.3" font-family="Times,serif" font-size="14.00">Dict</text>
</g>
<!-- ast.Assign object at 0x7dbe1a5a2410&#45;&gt;ast.Dict object at 0x7dbe15468d90 -->
<g id="edge11" class="edge">
<title>ast.Assign object at 0x7dbe1a5a2410&#45;&gt;ast.Dict object at 0x7dbe15468d90</title>
<path fill="none" stroke="black" d="M459.3,-360.59C443.45,-351.02 423.27,-338.85 406.16,-328.52"/>
<polygon fill="black" stroke="black" points="407.9,-325.48 397.53,-323.31 404.28,-331.47 407.9,-325.48"/>
</g>
<!-- ast.Name object at 0x7dbe3bad2f50&#45;&gt;ast.Store object at 0x7dbf54602c90 -->
<g id="edge10" class="edge">
<title>ast.Name object at 0x7dbe3bad2f50&#45;&gt;ast.Store object at 0x7dbf54602c90</title>
<path fill="none" stroke="black" d="M586.58,-287.85C586.75,-250.83 587.16,-163.18 587.37,-118.39"/>
<polygon fill="black" stroke="black" points="590.87,-118.25 587.42,-108.23 583.87,-118.22 590.87,-118.25"/>
</g>
<!-- ast.Name object at 0x7dbe1e77de10 -->
<g id="node13" class="node">
<title>ast.Name object at 0x7dbe1e77de10</title>
<path fill="#66cdaa" stroke="black" d="M745.5,-324C745.5,-324 715.5,-324 715.5,-324 709.5,-324 703.5,-318 703.5,-312 703.5,-312 703.5,-300 703.5,-300 703.5,-294 709.5,-288 715.5,-288 715.5,-288 745.5,-288 745.5,-288 751.5,-288 757.5,-294 757.5,-300 757.5,-300 757.5,-312 757.5,-312 757.5,-318 751.5,-324 745.5,-324"/>
<text text-anchor="middle" x="730.5" y="-302.3" font-family="Times,serif" font-size="14.00">Name</text>
</g>
<!-- ast.For object at 0x7dbe1f0ffe90&#45;&gt;ast.Name object at 0x7dbe1e77de10 -->
<g id="edge13" class="edge">
<title>ast.For object at 0x7dbe1f0ffe90&#45;&gt;ast.Name object at 0x7dbe1e77de10</title>
<path fill="none" stroke="black" d="M730.5,-359.7C730.5,-351.98 730.5,-342.71 730.5,-334.11"/>
<polygon fill="black" stroke="black" points="734,-334.1 730.5,-324.1 727,-334.1 734,-334.1"/>
</g>
<!-- ast.Name object at 0x7dbe1e77c750 -->
<g id="node14" class="node">
<title>ast.Name object at 0x7dbe1e77c750</title>
<path fill="#66cdaa" stroke="black" d="M1288.5,-324C1288.5,-324 1258.5,-324 1258.5,-324 1252.5,-324 1246.5,-318 1246.5,-312 1246.5,-312 1246.5,-300 1246.5,-300 1246.5,-294 1252.5,-288 1258.5,-288 1258.5,-288 1288.5,-288 1288.5,-288 1294.5,-288 1300.5,-294 1300.5,-300 1300.5,-300 1300.5,-312 1300.5,-312 1300.5,-318 1294.5,-324 1288.5,-324"/>
<text text-anchor="middle" x="1273.5" y="-302.3" font-family="Times,serif" font-size="14.00">Name</text>
</g>
<!-- ast.For object at 0x7dbe1f0ffe90&#45;&gt;ast.Name object at 0x7dbe1e77c750 -->
<g id="edge15" class="edge">
<title>ast.For object at 0x7dbe1f0ffe90&#45;&gt;ast.Name object at 0x7dbe1e77c750</title>
<path fill="none" stroke="black" d="M757.62,-373.8C824.99,-365.81 1005.35,-344.18 1155.5,-324 1182.54,-320.37 1213.02,-315.97 1236.22,-312.56"/>
<polygon fill="black" stroke="black" points="1236.96,-315.99 1246.34,-311.06 1235.93,-309.06 1236.96,-315.99"/>
</g>
<!-- ast.If object at 0x7dbe1e77e750 -->
<g id="node16" class="node">
<title>ast.If object at 0x7dbe1e77e750</title>
<path fill="#66cdaa" stroke="black" d="M529.5,-324C529.5,-324 499.5,-324 499.5,-324 493.5,-324 487.5,-318 487.5,-312 487.5,-312 487.5,-300 487.5,-300 487.5,-294 493.5,-288 499.5,-288 499.5,-288 529.5,-288 529.5,-288 535.5,-288 541.5,-294 541.5,-300 541.5,-300 541.5,-312 541.5,-312 541.5,-318 535.5,-324 529.5,-324"/>
<text text-anchor="middle" x="514.5" y="-302.3" font-family="Times,serif" font-size="14.00">If</text>
</g>
<!-- ast.For object at 0x7dbe1f0ffe90&#45;&gt;ast.If object at 0x7dbe1e77e750 -->
<g id="edge17" class="edge">
<title>ast.For object at 0x7dbe1f0ffe90&#45;&gt;ast.If object at 0x7dbe1e77e750</title>
<path fill="none" stroke="black" d="M703.23,-370.38C669.4,-361.86 609.91,-345.9 551.23,-324"/>
<polygon fill="black" stroke="black" points="552.42,-320.71 541.83,-320.44 549.94,-327.26 552.42,-320.71"/>
</g>
<!-- ast.Assign object at 0x7dbe1a51b610 -->
<g id="node24" class="node">
<title>ast.Assign object at 0x7dbe1a51b610</title>
<path fill="#66cdaa" stroke="black" d="M457.5,-324C457.5,-324 427.5,-324 427.5,-324 421.5,-324 415.5,-318 415.5,-312 415.5,-312 415.5,-300 415.5,-300 415.5,-294 421.5,-288 427.5,-288 427.5,-288 457.5,-288 457.5,-288 463.5,-288 469.5,-294 469.5,-300 469.5,-300 469.5,-312 469.5,-312 469.5,-318 463.5,-324 457.5,-324"/>
<text text-anchor="middle" x="442.5" y="-302.3" font-family="Times,serif" font-size="14.00">Assign</text>
</g>
<!-- ast.For object at 0x7dbe1f0ffe90&#45;&gt;ast.Assign object at 0x7dbe1a51b610 -->
<g id="edge27" class="edge">
<title>ast.For object at 0x7dbe1f0ffe90&#45;&gt;ast.Assign object at 0x7dbe1a51b610</title>
<path fill="none" stroke="black" d="M703.47,-373.44C658.42,-367.05 565.22,-351.92 479.37,-323.88"/>
<polygon fill="black" stroke="black" points="480.34,-320.52 469.74,-320.67 478.12,-327.16 480.34,-320.52"/>
</g>
<!-- ast.Assign object at 0x7dbe1e77cc90 -->
<g id="node29" class="node">
<title>ast.Assign object at 0x7dbe1e77cc90</title>
<path fill="#66cdaa" stroke="black" d="M673.5,-324C673.5,-324 643.5,-324 643.5,-324 637.5,-324 631.5,-318 631.5,-312 631.5,-312 631.5,-300 631.5,-300 631.5,-294 637.5,-288 643.5,-288 643.5,-288 673.5,-288 673.5,-288 679.5,-288 685.5,-294 685.5,-300 685.5,-300 685.5,-312 685.5,-312 685.5,-318 679.5,-324 673.5,-324"/>
<text text-anchor="middle" x="658.5" y="-302.3" font-family="Times,serif" font-size="14.00">Assign</text>
</g>
<!-- ast.For object at 0x7dbe1f0ffe90&#45;&gt;ast.Assign object at 0x7dbe1e77cc90 -->
<g id="edge35" class="edge">
<title>ast.For object at 0x7dbe1f0ffe90&#45;&gt;ast.Assign object at 0x7dbe1e77cc90</title>
<path fill="none" stroke="black" d="M712.7,-359.7C703.9,-351.14 693.12,-340.66 683.5,-331.3"/>
<polygon fill="black" stroke="black" points="685.7,-328.57 676.09,-324.1 680.82,-333.58 685.7,-328.57"/>
</g>
<!-- ast.If object at 0x7dbe17c2eb10 -->
<g id="node37" class="node">
<title>ast.If object at 0x7dbe17c2eb10</title>
<path fill="#66cdaa" stroke="black" d="M1134.5,-324C1134.5,-324 1104.5,-324 1104.5,-324 1098.5,-324 1092.5,-318 1092.5,-312 1092.5,-312 1092.5,-300 1092.5,-300 1092.5,-294 1098.5,-288 1104.5,-288 1104.5,-288 1134.5,-288 1134.5,-288 1140.5,-288 1146.5,-294 1146.5,-300 1146.5,-300 1146.5,-312 1146.5,-312 1146.5,-318 1140.5,-324 1134.5,-324"/>
<text text-anchor="middle" x="1119.5" y="-302.3" font-family="Times,serif" font-size="14.00">If</text>
</g>
<!-- ast.For object at 0x7dbe1f0ffe90&#45;&gt;ast.If object at 0x7dbe17c2eb10 -->
<g id="edge47" class="edge">
<title>ast.For object at 0x7dbe1f0ffe90&#45;&gt;ast.If object at 0x7dbe17c2eb10</title>
<path fill="none" stroke="black" d="M757.54,-372.13C825.73,-359.86 1004.74,-327.65 1082.53,-313.65"/>
<polygon fill="black" stroke="black" points="1083.15,-317.1 1092.38,-311.88 1081.91,-310.21 1083.15,-317.1"/>
</g>
<!-- ast.AugAssign object at 0x7dbe1a5a7310 -->
<g id="node47" class="node">
<title>ast.AugAssign object at 0x7dbe1a5a7310</title>
<path fill="#66cdaa" stroke="black" d="M841,-324C841,-324 788,-324 788,-324 782,-324 776,-318 776,-312 776,-312 776,-300 776,-300 776,-294 782,-288 788,-288 788,-288 841,-288 841,-288 847,-288 853,-294 853,-300 853,-300 853,-312 853,-312 853,-318 847,-324 841,-324"/>
<text text-anchor="middle" x="814.5" y="-302.3" font-family="Times,serif" font-size="14.00">AugAssign</text>
</g>
<!-- ast.For object at 0x7dbe1f0ffe90&#45;&gt;ast.AugAssign object at 0x7dbe1a5a7310 -->
<g id="edge62" class="edge">
<title>ast.For object at 0x7dbe1f0ffe90&#45;&gt;ast.AugAssign object at 0x7dbe1a5a7310</title>
<path fill="none" stroke="black" d="M751.26,-359.7C761.74,-350.97 774.61,-340.24 786,-330.75"/>
<polygon fill="black" stroke="black" points="788.53,-333.19 793.97,-324.1 784.05,-327.82 788.53,-333.19"/>
</g>
<!-- ast.AugAssign object at 0x7dbe1a5a7250 -->
<g id="node53" class="node">
<title>ast.AugAssign object at 0x7dbe1a5a7250</title>
<path fill="#66cdaa" stroke="black" d="M949,-324C949,-324 896,-324 896,-324 890,-324 884,-318 884,-312 884,-312 884,-300 884,-300 884,-294 890,-288 896,-288 896,-288 949,-288 949,-288 955,-288 961,-294 961,-300 961,-300 961,-312 961,-312 961,-318 955,-324 949,-324"/>
<text text-anchor="middle" x="922.5" y="-302.3" font-family="Times,serif" font-size="14.00">AugAssign</text>
</g>
<!-- ast.For object at 0x7dbe1f0ffe90&#45;&gt;ast.AugAssign object at 0x7dbe1a5a7250 -->
<g id="edge71" class="edge">
<title>ast.For object at 0x7dbe1f0ffe90&#45;&gt;ast.AugAssign object at 0x7dbe1a5a7250</title>
<path fill="none" stroke="black" d="M757.6,-367.12C787.87,-356.08 837.46,-338.01 874.36,-324.55"/>
<polygon fill="black" stroke="black" points="875.73,-327.78 883.93,-321.06 873.33,-321.2 875.73,-327.78"/>
</g>
<!-- ast.Name object at 0x7dbe1e77de10&#45;&gt;ast.Store object at 0x7dbf54602c90 -->
<g id="edge14" class="edge">
<title>ast.Name object at 0x7dbe1e77de10&#45;&gt;ast.Store object at 0x7dbf54602c90</title>
<path fill="none" stroke="black" d="M719,-287.57C699.46,-257.99 658.5,-196.09 623.5,-144 617.45,-135 610.79,-125.17 604.86,-116.44"/>
<polygon fill="black" stroke="black" points="607.74,-114.45 599.22,-108.16 601.95,-118.39 607.74,-114.45"/>
</g>
<!-- ast.Load object at 0x7dbf54602c10 -->
<g id="node15" class="node">
<title>ast.Load object at 0x7dbf54602c10</title>
<path fill="#66cdaa" stroke="black" d="M773.5,-36C773.5,-36 743.5,-36 743.5,-36 737.5,-36 731.5,-30 731.5,-24 731.5,-24 731.5,-12 731.5,-12 731.5,-6 737.5,0 743.5,0 743.5,0 773.5,0 773.5,0 779.5,0 785.5,-6 785.5,-12 785.5,-12 785.5,-24 785.5,-24 785.5,-30 779.5,-36 773.5,-36"/>
<text text-anchor="middle" x="758.5" y="-14.3" font-family="Times,serif" font-size="14.00">Load</text>
</g>
<!-- ast.Name object at 0x7dbe1e77c750&#45;&gt;ast.Load object at 0x7dbf54602c10 -->
<g id="edge16" class="edge">
<title>ast.Name object at 0x7dbe1e77c750&#45;&gt;ast.Load object at 0x7dbf54602c10</title>
<path fill="none" stroke="black" d="M1284.3,-287.72C1309.45,-245.07 1365.65,-133.81 1309.5,-72 1274.96,-33.98 913.81,-22.5 795.67,-19.75"/>
<polygon fill="black" stroke="black" points="795.73,-16.25 785.65,-19.52 795.57,-23.25 795.73,-16.25"/>
</g>
<!-- ast.Compare object at 0x7dbe1e77de90 -->
<g id="node17" class="node">
<title>ast.Compare object at 0x7dbe1e77de90</title>
<path fill="#66cdaa" stroke="black" d="M312,-252C312,-252 269,-252 269,-252 263,-252 257,-246 257,-240 257,-240 257,-228 257,-228 257,-222 263,-216 269,-216 269,-216 312,-216 312,-216 318,-216 324,-222 324,-228 324,-228 324,-240 324,-240 324,-246 318,-252 312,-252"/>
<text text-anchor="middle" x="290.5" y="-230.3" font-family="Times,serif" font-size="14.00">Compare</text>
</g>
<!-- ast.If object at 0x7dbe1e77e750&#45;&gt;ast.Compare object at 0x7dbe1e77de90 -->
<g id="edge18" class="edge">
<title>ast.If object at 0x7dbe1e77e750&#45;&gt;ast.Compare object at 0x7dbe1e77de90</title>
<path fill="none" stroke="black" d="M487.19,-291.53C484.28,-290.27 481.35,-289.07 478.5,-288 430.1,-269.89 372.71,-254.56 334.18,-245.12"/>
<polygon fill="black" stroke="black" points="334.86,-241.69 324.32,-242.73 333.22,-248.49 334.86,-241.69"/>
</g>
<!-- ast.Continue object at 0x7dbe18970d50 -->
<g id="node23" class="node">
<title>ast.Continue object at 0x7dbe18970d50</title>
<path fill="#66cdaa" stroke="black" d="M535.5,-252C535.5,-252 493.5,-252 493.5,-252 487.5,-252 481.5,-246 481.5,-240 481.5,-240 481.5,-228 481.5,-228 481.5,-222 487.5,-216 493.5,-216 493.5,-216 535.5,-216 535.5,-216 541.5,-216 547.5,-222 547.5,-228 547.5,-228 547.5,-240 547.5,-240 547.5,-246 541.5,-252 535.5,-252"/>
<text text-anchor="middle" x="514.5" y="-230.3" font-family="Times,serif" font-size="14.00">Continue</text>
</g>
<!-- ast.If object at 0x7dbe1e77e750&#45;&gt;ast.Continue object at 0x7dbe18970d50 -->
<g id="edge26" class="edge">
<title>ast.If object at 0x7dbe1e77e750&#45;&gt;ast.Continue object at 0x7dbe18970d50</title>
<path fill="none" stroke="black" d="M514.5,-287.7C514.5,-279.98 514.5,-270.71 514.5,-262.11"/>
<polygon fill="black" stroke="black" points="518,-262.1 514.5,-252.1 511,-262.1 518,-262.1"/>
</g>
<!-- ast.Call object at 0x7dbe1e77e9d0 -->
<g id="node18" class="node">
<title>ast.Call object at 0x7dbe1e77e9d0</title>
<path fill="#66cdaa" stroke="black" d="M125.5,-180C125.5,-180 95.5,-180 95.5,-180 89.5,-180 83.5,-174 83.5,-168 83.5,-168 83.5,-156 83.5,-156 83.5,-150 89.5,-144 95.5,-144 95.5,-144 125.5,-144 125.5,-144 131.5,-144 137.5,-150 137.5,-156 137.5,-156 137.5,-168 137.5,-168 137.5,-174 131.5,-180 125.5,-180"/>
<text text-anchor="middle" x="110.5" y="-158.3" font-family="Times,serif" font-size="14.00">Call</text>
</g>
<!-- ast.Compare object at 0x7dbe1e77de90&#45;&gt;ast.Call object at 0x7dbe1e77e9d0 -->
<g id="edge19" class="edge">
<title>ast.Compare object at 0x7dbe1e77de90&#45;&gt;ast.Call object at 0x7dbe1e77e9d0</title>
<path fill="none" stroke="black" d="M256.74,-219.53C253.62,-218.32 250.51,-217.13 247.5,-216 205.68,-200.28 192.21,-198.39 147.31,-180.15"/>
<polygon fill="black" stroke="black" points="148.47,-176.84 137.89,-176.28 145.81,-183.32 148.47,-176.84"/>
</g>
<!-- ast.Lt object at 0x7dbf54603d10 -->
<g id="node21" class="node">
<title>ast.Lt object at 0x7dbf54603d10</title>
<path fill="#66cdaa" stroke="black" d="M353.5,-180C353.5,-180 323.5,-180 323.5,-180 317.5,-180 311.5,-174 311.5,-168 311.5,-168 311.5,-156 311.5,-156 311.5,-150 317.5,-144 323.5,-144 323.5,-144 353.5,-144 353.5,-144 359.5,-144 365.5,-150 365.5,-156 365.5,-156 365.5,-168 365.5,-168 365.5,-174 359.5,-180 353.5,-180"/>
<text text-anchor="middle" x="338.5" y="-158.3" font-family="Times,serif" font-size="14.00">Lt</text>
</g>
<!-- ast.Compare object at 0x7dbe1e77de90&#45;&gt;ast.Lt object at 0x7dbf54603d10 -->
<g id="edge24" class="edge">
<title>ast.Compare object at 0x7dbe1e77de90&#45;&gt;ast.Lt object at 0x7dbf54603d10</title>
<path fill="none" stroke="black" d="M302.37,-215.7C308,-207.47 314.85,-197.48 321.07,-188.42"/>
<polygon fill="black" stroke="black" points="324,-190.33 326.77,-180.1 318.23,-186.37 324,-190.33"/>
</g>
<!-- ast.Constant object at 0x7dbe1e77ebd0 -->
<g id="node22" class="node">
<title>ast.Constant object at 0x7dbe1e77ebd0</title>
<path fill="#66cdaa" stroke="black" d="M437,-180C437,-180 396,-180 396,-180 390,-180 384,-174 384,-168 384,-168 384,-156 384,-156 384,-150 390,-144 396,-144 396,-144 437,-144 437,-144 443,-144 449,-150 449,-156 449,-156 449,-168 449,-168 449,-174 443,-180 437,-180"/>
<text text-anchor="middle" x="416.5" y="-158.3" font-family="Times,serif" font-size="14.00">Constant</text>
</g>
<!-- ast.Compare object at 0x7dbe1e77de90&#45;&gt;ast.Constant object at 0x7dbe1e77ebd0 -->
<g id="edge25" class="edge">
<title>ast.Compare object at 0x7dbe1e77de90&#45;&gt;ast.Constant object at 0x7dbe1e77ebd0</title>
<path fill="none" stroke="black" d="M321.32,-215.88C337.95,-206.64 358.66,-195.13 376.52,-185.21"/>
<polygon fill="black" stroke="black" points="378.52,-188.11 385.56,-180.19 375.12,-181.99 378.52,-188.11"/>
</g>
<!-- ast.Name object at 0x7dbe1e77c590 -->
<g id="node19" class="node">
<title>ast.Name object at 0x7dbe1e77c590</title>
<path fill="#66cdaa" stroke="black" d="M246.5,-108C246.5,-108 216.5,-108 216.5,-108 210.5,-108 204.5,-102 204.5,-96 204.5,-96 204.5,-84 204.5,-84 204.5,-78 210.5,-72 216.5,-72 216.5,-72 246.5,-72 246.5,-72 252.5,-72 258.5,-78 258.5,-84 258.5,-84 258.5,-96 258.5,-96 258.5,-102 252.5,-108 246.5,-108"/>
<text text-anchor="middle" x="231.5" y="-86.3" font-family="Times,serif" font-size="14.00">Name</text>
</g>
<!-- ast.Call object at 0x7dbe1e77e9d0&#45;&gt;ast.Name object at 0x7dbe1e77c590 -->
<g id="edge20" class="edge">
<title>ast.Call object at 0x7dbe1e77e9d0&#45;&gt;ast.Name object at 0x7dbe1e77c590</title>
<path fill="none" stroke="black" d="M137.65,-145.29C154.78,-135.38 177.09,-122.48 195.66,-111.73"/>
<polygon fill="black" stroke="black" points="197.53,-114.69 204.44,-106.66 194.03,-108.63 197.53,-114.69"/>
</g>
<!-- ast.Name object at 0x7dbe1e77f290 -->
<g id="node20" class="node">
<title>ast.Name object at 0x7dbe1e77f290</title>
<path fill="#66cdaa" stroke="black" d="M174.5,-108C174.5,-108 144.5,-108 144.5,-108 138.5,-108 132.5,-102 132.5,-96 132.5,-96 132.5,-84 132.5,-84 132.5,-78 138.5,-72 144.5,-72 144.5,-72 174.5,-72 174.5,-72 180.5,-72 186.5,-78 186.5,-84 186.5,-84 186.5,-96 186.5,-96 186.5,-102 180.5,-108 174.5,-108"/>
<text text-anchor="middle" x="159.5" y="-86.3" font-family="Times,serif" font-size="14.00">Name</text>
</g>
<!-- ast.Call object at 0x7dbe1e77e9d0&#45;&gt;ast.Name object at 0x7dbe1e77f290 -->
<g id="edge22" class="edge">
<title>ast.Call object at 0x7dbe1e77e9d0&#45;&gt;ast.Name object at 0x7dbe1e77f290</title>
<path fill="none" stroke="black" d="M122.61,-143.7C128.37,-135.47 135.36,-125.48 141.71,-116.42"/>
<polygon fill="black" stroke="black" points="144.66,-118.3 147.53,-108.1 138.92,-114.29 144.66,-118.3"/>
</g>
<!-- ast.Name object at 0x7dbe1e77c590&#45;&gt;ast.Load object at 0x7dbf54602c10 -->
<g id="edge21" class="edge">
<title>ast.Name object at 0x7dbe1e77c590&#45;&gt;ast.Load object at 0x7dbf54602c10</title>
<path fill="none" stroke="black" d="M258.65,-75.03C261.59,-73.87 264.57,-72.82 267.5,-72 431.96,-25.71 637.88,-19.37 721.07,-18.84"/>
<polygon fill="black" stroke="black" points="721.31,-22.33 731.29,-18.8 721.28,-15.33 721.31,-22.33"/>
</g>
<!-- ast.Name object at 0x7dbe1e77f290&#45;&gt;ast.Load object at 0x7dbf54602c10 -->
<g id="edge23" class="edge">
<title>ast.Name object at 0x7dbe1e77f290&#45;&gt;ast.Load object at 0x7dbf54602c10</title>
<path fill="none" stroke="black" d="M186.64,-74.99C189.58,-73.83 192.57,-72.8 195.5,-72 295.26,-44.66 612.28,-26.42 721.27,-20.82"/>
<polygon fill="black" stroke="black" points="721.64,-24.31 731.45,-20.3 721.29,-17.32 721.64,-24.31"/>
</g>
<!-- ast.Name object at 0x7dbe1e77f210 -->
<g id="node25" class="node">
<title>ast.Name object at 0x7dbe1e77f210</title>
<path fill="#66cdaa" stroke="black" d="M451.5,-252C451.5,-252 421.5,-252 421.5,-252 415.5,-252 409.5,-246 409.5,-240 409.5,-240 409.5,-228 409.5,-228 409.5,-222 415.5,-216 421.5,-216 421.5,-216 451.5,-216 451.5,-216 457.5,-216 463.5,-222 463.5,-228 463.5,-228 463.5,-240 463.5,-240 463.5,-246 457.5,-252 451.5,-252"/>
<text text-anchor="middle" x="436.5" y="-230.3" font-family="Times,serif" font-size="14.00">Name</text>
</g>
<!-- ast.Assign object at 0x7dbe1a51b610&#45;&gt;ast.Name object at 0x7dbe1e77f210 -->
<g id="edge28" class="edge">
<title>ast.Assign object at 0x7dbe1a51b610&#45;&gt;ast.Name object at 0x7dbe1e77f210</title>
<path fill="none" stroke="black" d="M441.02,-287.7C440.36,-279.98 439.56,-270.71 438.82,-262.11"/>
<polygon fill="black" stroke="black" points="442.31,-261.77 437.97,-252.1 435.33,-262.37 442.31,-261.77"/>
</g>
<!-- ast.Call object at 0x7dbe1e77d1d0 -->
<g id="node26" class="node">
<title>ast.Call object at 0x7dbe1e77d1d0</title>
<path fill="#66cdaa" stroke="black" d="M86.5,-252C86.5,-252 56.5,-252 56.5,-252 50.5,-252 44.5,-246 44.5,-240 44.5,-240 44.5,-228 44.5,-228 44.5,-222 50.5,-216 56.5,-216 56.5,-216 86.5,-216 86.5,-216 92.5,-216 98.5,-222 98.5,-228 98.5,-228 98.5,-240 98.5,-240 98.5,-246 92.5,-252 86.5,-252"/>
<text text-anchor="middle" x="71.5" y="-230.3" font-family="Times,serif" font-size="14.00">Call</text>
</g>
<!-- ast.Assign object at 0x7dbe1a51b610&#45;&gt;ast.Call object at 0x7dbe1e77d1d0 -->
<g id="edge30" class="edge">
<title>ast.Assign object at 0x7dbe1a51b610&#45;&gt;ast.Call object at 0x7dbe1e77d1d0</title>
<path fill="none" stroke="black" d="M415.31,-291.17C412.38,-289.98 409.41,-288.89 406.5,-288 307.17,-257.5 278.11,-268.38 175.5,-252 153.35,-248.46 128.55,-244.41 108.73,-241.15"/>
<polygon fill="black" stroke="black" points="109.3,-237.7 98.86,-239.53 108.16,-244.61 109.3,-237.7"/>
</g>
<!-- ast.Name object at 0x7dbe1e77f210&#45;&gt;ast.Store object at 0x7dbf54602c90 -->
<g id="edge29" class="edge">
<title>ast.Name object at 0x7dbe1e77f210&#45;&gt;ast.Store object at 0x7dbf54602c90</title>
<path fill="none" stroke="black" d="M463.92,-219.42C487.71,-207.3 519.95,-189.97 530.5,-180 549.55,-161.99 565.09,-136.37 575.1,-117.23"/>
<polygon fill="black" stroke="black" points="578.3,-118.66 579.7,-108.16 572.06,-115.5 578.3,-118.66"/>
</g>
<!-- ast.Attribute object at 0x7dbe1e77f4d0 -->
<g id="node27" class="node">
<title>ast.Attribute object at 0x7dbe1e77f4d0</title>
<path fill="#66cdaa" stroke="black" d="M53,-180C53,-180 12,-180 12,-180 6,-180 0,-174 0,-168 0,-168 0,-156 0,-156 0,-150 6,-144 12,-144 12,-144 53,-144 53,-144 59,-144 65,-150 65,-156 65,-156 65,-168 65,-168 65,-174 59,-180 53,-180"/>
<text text-anchor="middle" x="32.5" y="-158.3" font-family="Times,serif" font-size="14.00">Attribute</text>
</g>
<!-- ast.Call object at 0x7dbe1e77d1d0&#45;&gt;ast.Attribute object at 0x7dbe1e77f4d0 -->
<g id="edge31" class="edge">
<title>ast.Call object at 0x7dbe1e77d1d0&#45;&gt;ast.Attribute object at 0x7dbe1e77f4d0</title>
<path fill="none" stroke="black" d="M61.86,-215.7C57.37,-207.64 51.94,-197.89 46.98,-188.98"/>
<polygon fill="black" stroke="black" points="49.95,-187.14 42.03,-180.1 43.84,-190.54 49.95,-187.14"/>
</g>
<!-- ast.Attribute object at 0x7dbe1e77f4d0&#45;&gt;ast.Load object at 0x7dbf54602c10 -->
<g id="edge34" class="edge">
<title>ast.Attribute object at 0x7dbe1e77f4d0&#45;&gt;ast.Load object at 0x7dbf54602c10</title>
<path fill="none" stroke="black" d="M30.66,-143.96C29.51,-123.51 31.15,-89.77 51.5,-72 102.22,-27.72 582.7,-20.42 721.26,-19.23"/>
<polygon fill="black" stroke="black" points="721.41,-22.73 731.39,-19.15 721.36,-15.73 721.41,-22.73"/>
</g>
<!-- ast.Name object at 0x7dbe1e77ead0 -->
<g id="node28" class="node">
<title>ast.Name object at 0x7dbe1e77ead0</title>
<path fill="#66cdaa" stroke="black" d="M102.5,-108C102.5,-108 72.5,-108 72.5,-108 66.5,-108 60.5,-102 60.5,-96 60.5,-96 60.5,-84 60.5,-84 60.5,-78 66.5,-72 72.5,-72 72.5,-72 102.5,-72 102.5,-72 108.5,-72 114.5,-78 114.5,-84 114.5,-84 114.5,-96 114.5,-96 114.5,-102 108.5,-108 102.5,-108"/>
<text text-anchor="middle" x="87.5" y="-86.3" font-family="Times,serif" font-size="14.00">Name</text>
</g>
<!-- ast.Attribute object at 0x7dbe1e77f4d0&#45;&gt;ast.Name object at 0x7dbe1e77ead0 -->
<g id="edge32" class="edge">
<title>ast.Attribute object at 0x7dbe1e77f4d0&#45;&gt;ast.Name object at 0x7dbe1e77ead0</title>
<path fill="none" stroke="black" d="M46.1,-143.7C52.62,-135.39 60.57,-125.28 67.75,-116.14"/>
<polygon fill="black" stroke="black" points="70.63,-118.13 74.06,-108.1 65.13,-113.81 70.63,-118.13"/>
</g>
<!-- ast.Name object at 0x7dbe1e77ead0&#45;&gt;ast.Load object at 0x7dbf54602c10 -->
<g id="edge33" class="edge">
<title>ast.Name object at 0x7dbe1e77ead0&#45;&gt;ast.Load object at 0x7dbf54602c10</title>
<path fill="none" stroke="black" d="M114.63,-74.96C117.57,-73.81 120.56,-72.79 123.5,-72 237.59,-41.38 603.22,-24.96 721.33,-20.36"/>
<polygon fill="black" stroke="black" points="721.47,-23.86 731.33,-19.98 721.21,-16.86 721.47,-23.86"/>
</g>
<!-- ast.Name object at 0x7dbe1e77c550 -->
<g id="node30" class="node">
<title>ast.Name object at 0x7dbe1e77c550</title>
<path fill="#66cdaa" stroke="black" d="M645.5,-252C645.5,-252 615.5,-252 615.5,-252 609.5,-252 603.5,-246 603.5,-240 603.5,-240 603.5,-228 603.5,-228 603.5,-222 609.5,-216 615.5,-216 615.5,-216 645.5,-216 645.5,-216 651.5,-216 657.5,-222 657.5,-228 657.5,-228 657.5,-240 657.5,-240 657.5,-246 651.5,-252 645.5,-252"/>
<text text-anchor="middle" x="630.5" y="-230.3" font-family="Times,serif" font-size="14.00">Name</text>
</g>
<!-- ast.Assign object at 0x7dbe1e77cc90&#45;&gt;ast.Name object at 0x7dbe1e77c550 -->
<g id="edge36" class="edge">
<title>ast.Assign object at 0x7dbe1e77cc90&#45;&gt;ast.Name object at 0x7dbe1e77c550</title>
<path fill="none" stroke="black" d="M651.58,-287.7C648.43,-279.81 644.62,-270.3 641.12,-261.55"/>
<polygon fill="black" stroke="black" points="644.31,-260.09 637.34,-252.1 637.81,-262.69 644.31,-260.09"/>
</g>
<!-- ast.Call object at 0x7dbe1e77ca10 -->
<g id="node31" class="node">
<title>ast.Call object at 0x7dbe1e77ca10</title>
<path fill="#66cdaa" stroke="black" d="M226.5,-252C226.5,-252 196.5,-252 196.5,-252 190.5,-252 184.5,-246 184.5,-240 184.5,-240 184.5,-228 184.5,-228 184.5,-222 190.5,-216 196.5,-216 196.5,-216 226.5,-216 226.5,-216 232.5,-216 238.5,-222 238.5,-228 238.5,-228 238.5,-240 238.5,-240 238.5,-246 232.5,-252 226.5,-252"/>
<text text-anchor="middle" x="211.5" y="-230.3" font-family="Times,serif" font-size="14.00">Call</text>
</g>
<!-- ast.Assign object at 0x7dbe1e77cc90&#45;&gt;ast.Call object at 0x7dbe1e77ca10 -->
<g id="edge38" class="edge">
<title>ast.Assign object at 0x7dbe1e77cc90&#45;&gt;ast.Call object at 0x7dbe1e77ca10</title>
<path fill="none" stroke="black" d="M631.36,-290.99C628.42,-289.84 625.43,-288.81 622.5,-288 464.22,-244.46 411.01,-294.38 248.49,-251.67"/>
<polygon fill="black" stroke="black" points="249.21,-248.24 238.64,-249.01 247.38,-255 249.21,-248.24"/>
</g>
<!-- ast.Name object at 0x7dbe1e77c550&#45;&gt;ast.Store object at 0x7dbf54602c90 -->
<g id="edge37" class="edge">
<title>ast.Name object at 0x7dbe1e77c550&#45;&gt;ast.Store object at 0x7dbf54602c90</title>
<path fill="none" stroke="black" d="M625.31,-215.87C617.95,-191.56 604.4,-146.82 595.68,-118.01"/>
<polygon fill="black" stroke="black" points="598.95,-116.75 592.71,-108.19 592.25,-118.77 598.95,-116.75"/>
</g>
<!-- ast.Attribute object at 0x7dbe2835b150 -->
<g id="node32" class="node">
<title>ast.Attribute object at 0x7dbe2835b150</title>
<path fill="#66cdaa" stroke="black" d="M281,-180C281,-180 240,-180 240,-180 234,-180 228,-174 228,-168 228,-168 228,-156 228,-156 228,-150 234,-144 240,-144 240,-144 281,-144 281,-144 287,-144 293,-150 293,-156 293,-156 293,-168 293,-168 293,-174 287,-180 281,-180"/>
<text text-anchor="middle" x="260.5" y="-158.3" font-family="Times,serif" font-size="14.00">Attribute</text>
</g>
<!-- ast.Call object at 0x7dbe1e77ca10&#45;&gt;ast.Attribute object at 0x7dbe2835b150 -->
<g id="edge39" class="edge">
<title>ast.Call object at 0x7dbe1e77ca10&#45;&gt;ast.Attribute object at 0x7dbe2835b150</title>
<path fill="none" stroke="black" d="M223.61,-215.7C229.37,-207.47 236.36,-197.48 242.71,-188.42"/>
<polygon fill="black" stroke="black" points="245.66,-190.3 248.53,-180.1 239.92,-186.29 245.66,-190.3"/>
</g>
<!-- ast.Call object at 0x7dbe2675e090 -->
<g id="node34" class="node">
<title>ast.Call object at 0x7dbe2675e090</title>
<path fill="#66cdaa" stroke="black" d="M197.5,-180C197.5,-180 167.5,-180 167.5,-180 161.5,-180 155.5,-174 155.5,-168 155.5,-168 155.5,-156 155.5,-156 155.5,-150 161.5,-144 167.5,-144 167.5,-144 197.5,-144 197.5,-144 203.5,-144 209.5,-150 209.5,-156 209.5,-156 209.5,-168 209.5,-168 209.5,-174 203.5,-180 197.5,-180"/>
<text text-anchor="middle" x="182.5" y="-158.3" font-family="Times,serif" font-size="14.00">Call</text>
</g>
<!-- ast.Call object at 0x7dbe1e77ca10&#45;&gt;ast.Call object at 0x7dbe2675e090 -->
<g id="edge42" class="edge">
<title>ast.Call object at 0x7dbe1e77ca10&#45;&gt;ast.Call object at 0x7dbe2675e090</title>
<path fill="none" stroke="black" d="M204.33,-215.7C201.07,-207.81 197.13,-198.3 193.5,-189.55"/>
<polygon fill="black" stroke="black" points="196.65,-188 189.59,-180.1 190.18,-190.68 196.65,-188"/>
</g>
<!-- ast.Attribute object at 0x7dbe2835b150&#45;&gt;ast.Load object at 0x7dbf54602c10 -->
<g id="edge41" class="edge">
<title>ast.Attribute object at 0x7dbe2835b150&#45;&gt;ast.Load object at 0x7dbf54602c10</title>
<path fill="none" stroke="black" d="M293.44,-147.43C296.49,-146.24 299.55,-145.08 302.5,-144 350.39,-126.42 367.71,-134.17 411.5,-108 431.47,-96.07 428.7,-82.41 449.5,-72 539.49,-26.95 660.68,-19.33 721.06,-18.57"/>
<polygon fill="black" stroke="black" points="721.28,-22.07 731.26,-18.5 721.23,-15.07 721.28,-22.07"/>
</g>
<!-- ast.Constant object at 0x7dbe17605510 -->
<g id="node33" class="node">
<title>ast.Constant object at 0x7dbe17605510</title>
<path fill="#66cdaa" stroke="black" d="M512,-108C512,-108 471,-108 471,-108 465,-108 459,-102 459,-96 459,-96 459,-84 459,-84 459,-78 465,-72 471,-72 471,-72 512,-72 512,-72 518,-72 524,-78 524,-84 524,-84 524,-96 524,-96 524,-102 518,-108 512,-108"/>
<text text-anchor="middle" x="491.5" y="-86.3" font-family="Times,serif" font-size="14.00">Constant</text>
</g>
<!-- ast.Attribute object at 0x7dbe2835b150&#45;&gt;ast.Constant object at 0x7dbe17605510 -->
<g id="edge40" class="edge">
<title>ast.Attribute object at 0x7dbe2835b150&#45;&gt;ast.Constant object at 0x7dbe17605510</title>
<path fill="none" stroke="black" d="M293.36,-147.21C296.43,-146.07 299.51,-144.98 302.5,-144 364.37,-123.74 382.26,-127.1 444.5,-108 445.95,-107.55 447.42,-107.09 448.91,-106.61"/>
<polygon fill="black" stroke="black" points="450.4,-109.8 458.77,-103.31 448.18,-103.17 450.4,-109.8"/>
</g>
<!-- ast.Name object at 0x7dbe17c2d490 -->
<g id="node35" class="node">
<title>ast.Name object at 0x7dbe17c2d490</title>
<path fill="#66cdaa" stroke="black" d="M318.5,-108C318.5,-108 288.5,-108 288.5,-108 282.5,-108 276.5,-102 276.5,-96 276.5,-96 276.5,-84 276.5,-84 276.5,-78 282.5,-72 288.5,-72 288.5,-72 318.5,-72 318.5,-72 324.5,-72 330.5,-78 330.5,-84 330.5,-84 330.5,-96 330.5,-96 330.5,-102 324.5,-108 318.5,-108"/>
<text text-anchor="middle" x="303.5" y="-86.3" font-family="Times,serif" font-size="14.00">Name</text>
</g>
<!-- ast.Call object at 0x7dbe2675e090&#45;&gt;ast.Name object at 0x7dbe17c2d490 -->
<g id="edge43" class="edge">
<title>ast.Call object at 0x7dbe2675e090&#45;&gt;ast.Name object at 0x7dbe17c2d490</title>
<path fill="none" stroke="black" d="M209.65,-145.29C226.78,-135.38 249.09,-122.48 267.66,-111.73"/>
<polygon fill="black" stroke="black" points="269.53,-114.69 276.44,-106.66 266.03,-108.63 269.53,-114.69"/>
</g>
<!-- ast.Name object at 0x7dbe17c2cbd0 -->
<g id="node36" class="node">
<title>ast.Name object at 0x7dbe17c2cbd0</title>
<path fill="#66cdaa" stroke="black" d="M390.5,-108C390.5,-108 360.5,-108 360.5,-108 354.5,-108 348.5,-102 348.5,-96 348.5,-96 348.5,-84 348.5,-84 348.5,-78 354.5,-72 360.5,-72 360.5,-72 390.5,-72 390.5,-72 396.5,-72 402.5,-78 402.5,-84 402.5,-84 402.5,-96 402.5,-96 402.5,-102 396.5,-108 390.5,-108"/>
<text text-anchor="middle" x="375.5" y="-86.3" font-family="Times,serif" font-size="14.00">Name</text>
</g>
<!-- ast.Call object at 0x7dbe2675e090&#45;&gt;ast.Name object at 0x7dbe17c2cbd0 -->
<g id="edge45" class="edge">
<title>ast.Call object at 0x7dbe2675e090&#45;&gt;ast.Name object at 0x7dbe17c2cbd0</title>
<path fill="none" stroke="black" d="M209.83,-147.57C212.73,-146.3 215.66,-145.09 218.5,-144 268.04,-125.06 285.21,-127.66 338.54,-108.06"/>
<polygon fill="black" stroke="black" points="340.05,-111.24 348.17,-104.43 337.58,-104.69 340.05,-111.24"/>
</g>
<!-- ast.Name object at 0x7dbe17c2d490&#45;&gt;ast.Load object at 0x7dbf54602c10 -->
<g id="edge44" class="edge">
<title>ast.Name object at 0x7dbe17c2d490&#45;&gt;ast.Load object at 0x7dbf54602c10</title>
<path fill="none" stroke="black" d="M330.67,-75.08C333.6,-73.91 336.58,-72.85 339.5,-72 476.38,-32.12 647.04,-22.25 721.21,-19.8"/>
<polygon fill="black" stroke="black" points="721.55,-23.29 731.44,-19.49 721.33,-16.3 721.55,-23.29"/>
</g>
<!-- ast.Name object at 0x7dbe17c2cbd0&#45;&gt;ast.Load object at 0x7dbf54602c10 -->
<g id="edge46" class="edge">
<title>ast.Name object at 0x7dbe17c2cbd0&#45;&gt;ast.Load object at 0x7dbf54602c10</title>
<path fill="none" stroke="black" d="M402.53,-76.73C407.12,-74.95 411.9,-73.29 416.5,-72 524.78,-41.63 657.55,-27.34 721.11,-21.85"/>
<polygon fill="black" stroke="black" points="721.76,-25.31 731.43,-20.98 721.17,-18.33 721.76,-25.31"/>
</g>
<!-- ast.Compare object at 0x7dbe21269210 -->
<g id="node38" class="node">
<title>ast.Compare object at 0x7dbe21269210</title>
<path fill="#66cdaa" stroke="black" d="M1282,-180C1282,-180 1239,-180 1239,-180 1233,-180 1227,-174 1227,-168 1227,-168 1227,-156 1227,-156 1227,-150 1233,-144 1239,-144 1239,-144 1282,-144 1282,-144 1288,-144 1294,-150 1294,-156 1294,-156 1294,-168 1294,-168 1294,-174 1288,-180 1282,-180"/>
<text text-anchor="middle" x="1260.5" y="-158.3" font-family="Times,serif" font-size="14.00">Compare</text>
</g>
<!-- ast.If object at 0x7dbe17c2eb10&#45;&gt;ast.Compare object at 0x7dbe21269210 -->
<g id="edge48" class="edge">
<title>ast.If object at 0x7dbe17c2eb10&#45;&gt;ast.Compare object at 0x7dbe21269210</title>
<path fill="none" stroke="black" d="M1136.51,-287.87C1161.39,-262.82 1207.82,-216.05 1236.27,-187.41"/>
<polygon fill="black" stroke="black" points="1238.87,-189.75 1243.43,-180.19 1233.9,-184.82 1238.87,-189.75"/>
</g>
<!-- ast.Assign object at 0x7dbe1a5a67d0 -->
<g id="node42" class="node">
<title>ast.Assign object at 0x7dbe1a5a67d0</title>
<path fill="#66cdaa" stroke="black" d="M1134.5,-252C1134.5,-252 1104.5,-252 1104.5,-252 1098.5,-252 1092.5,-246 1092.5,-240 1092.5,-240 1092.5,-228 1092.5,-228 1092.5,-222 1098.5,-216 1104.5,-216 1104.5,-216 1134.5,-216 1134.5,-216 1140.5,-216 1146.5,-222 1146.5,-228 1146.5,-228 1146.5,-240 1146.5,-240 1146.5,-246 1140.5,-252 1134.5,-252"/>
<text text-anchor="middle" x="1119.5" y="-230.3" font-family="Times,serif" font-size="14.00">Assign</text>
</g>
<!-- ast.If object at 0x7dbe17c2eb10&#45;&gt;ast.Assign object at 0x7dbe1a5a67d0 -->
<g id="edge54" class="edge">
<title>ast.If object at 0x7dbe17c2eb10&#45;&gt;ast.Assign object at 0x7dbe1a5a67d0</title>
<path fill="none" stroke="black" d="M1119.5,-287.7C1119.5,-279.98 1119.5,-270.71 1119.5,-262.11"/>
<polygon fill="black" stroke="black" points="1123,-262.1 1119.5,-252.1 1116,-262.1 1123,-262.1"/>
</g>
<!-- ast.Name object at 0x7dbe212690d0 -->
<g id="node39" class="node">
<title>ast.Name object at 0x7dbe212690d0</title>
<path fill="#66cdaa" stroke="black" d="M1144.5,-108C1144.5,-108 1114.5,-108 1114.5,-108 1108.5,-108 1102.5,-102 1102.5,-96 1102.5,-96 1102.5,-84 1102.5,-84 1102.5,-78 1108.5,-72 1114.5,-72 1114.5,-72 1144.5,-72 1144.5,-72 1150.5,-72 1156.5,-78 1156.5,-84 1156.5,-84 1156.5,-96 1156.5,-96 1156.5,-102 1150.5,-108 1144.5,-108"/>
<text text-anchor="middle" x="1129.5" y="-86.3" font-family="Times,serif" font-size="14.00">Name</text>
</g>
<!-- ast.Compare object at 0x7dbe21269210&#45;&gt;ast.Name object at 0x7dbe212690d0 -->
<g id="edge49" class="edge">
<title>ast.Compare object at 0x7dbe21269210&#45;&gt;ast.Name object at 0x7dbe212690d0</title>
<path fill="none" stroke="black" d="M1228.45,-143.88C1209.49,-133.74 1185.41,-120.88 1165.76,-110.37"/>
<polygon fill="black" stroke="black" points="1167.26,-107.21 1156.79,-105.58 1163.96,-113.38 1167.26,-107.21"/>
</g>
<!-- ast.NotIn object at 0x7dbf546100d0 -->
<g id="node40" class="node">
<title>ast.NotIn object at 0x7dbf546100d0</title>
<path fill="#66cdaa" stroke="black" d="M1288.5,-108C1288.5,-108 1258.5,-108 1258.5,-108 1252.5,-108 1246.5,-102 1246.5,-96 1246.5,-96 1246.5,-84 1246.5,-84 1246.5,-78 1252.5,-72 1258.5,-72 1258.5,-72 1288.5,-72 1288.5,-72 1294.5,-72 1300.5,-78 1300.5,-84 1300.5,-84 1300.5,-96 1300.5,-96 1300.5,-102 1294.5,-108 1288.5,-108"/>
<text text-anchor="middle" x="1273.5" y="-86.3" font-family="Times,serif" font-size="14.00">NotIn</text>
</g>
<!-- ast.Compare object at 0x7dbe21269210&#45;&gt;ast.NotIn object at 0x7dbf546100d0 -->
<g id="edge51" class="edge">
<title>ast.Compare object at 0x7dbe21269210&#45;&gt;ast.NotIn object at 0x7dbf546100d0</title>
<path fill="none" stroke="black" d="M1263.71,-143.7C1265.15,-135.98 1266.87,-126.71 1268.46,-118.11"/>
<polygon fill="black" stroke="black" points="1271.94,-118.58 1270.32,-108.1 1265.06,-117.3 1271.94,-118.58"/>
</g>
<!-- ast.Name object at 0x7dbe1a5a6090 -->
<g id="node41" class="node">
<title>ast.Name object at 0x7dbe1a5a6090</title>
<path fill="#66cdaa" stroke="black" d="M1216.5,-108C1216.5,-108 1186.5,-108 1186.5,-108 1180.5,-108 1174.5,-102 1174.5,-96 1174.5,-96 1174.5,-84 1174.5,-84 1174.5,-78 1180.5,-72 1186.5,-72 1186.5,-72 1216.5,-72 1216.5,-72 1222.5,-72 1228.5,-78 1228.5,-84 1228.5,-84 1228.5,-96 1228.5,-96 1228.5,-102 1222.5,-108 1216.5,-108"/>
<text text-anchor="middle" x="1201.5" y="-86.3" font-family="Times,serif" font-size="14.00">Name</text>
</g>
<!-- ast.Compare object at 0x7dbe21269210&#45;&gt;ast.Name object at 0x7dbe1a5a6090 -->
<g id="edge52" class="edge">
<title>ast.Compare object at 0x7dbe21269210&#45;&gt;ast.Name object at 0x7dbe1a5a6090</title>
<path fill="none" stroke="black" d="M1245.92,-143.7C1238.84,-135.3 1230.22,-125.07 1222.45,-115.86"/>
<polygon fill="black" stroke="black" points="1225.04,-113.49 1215.92,-108.1 1219.69,-118.01 1225.04,-113.49"/>
</g>
<!-- ast.Name object at 0x7dbe212690d0&#45;&gt;ast.Load object at 0x7dbf54602c10 -->
<g id="edge50" class="edge">
<title>ast.Name object at 0x7dbe212690d0&#45;&gt;ast.Load object at 0x7dbf54602c10</title>
<path fill="none" stroke="black" d="M1102.3,-75.18C1099.38,-73.99 1096.41,-72.9 1093.5,-72 988.44,-39.61 858.45,-26.28 795.76,-21.43"/>
<polygon fill="black" stroke="black" points="795.81,-17.92 785.58,-20.67 795.29,-24.9 795.81,-17.92"/>
</g>
<!-- ast.Name object at 0x7dbe1a5a6090&#45;&gt;ast.Load object at 0x7dbf54602c10 -->
<g id="edge53" class="edge">
<title>ast.Name object at 0x7dbe1a5a6090&#45;&gt;ast.Load object at 0x7dbf54602c10</title>
<path fill="none" stroke="black" d="M1174.33,-75.1C1171.4,-73.92 1168.42,-72.86 1165.5,-72 1033.2,-33.19 868.4,-22.77 795.79,-20"/>
<polygon fill="black" stroke="black" points="795.88,-16.5 785.76,-19.64 795.63,-23.49 795.88,-16.5"/>
</g>
<!-- ast.Subscript object at 0x7dbe1a5a5f90 -->
<g id="node43" class="node">
<title>ast.Subscript object at 0x7dbe1a5a5f90</title>
<path fill="#66cdaa" stroke="black" d="M1113.5,-180C1113.5,-180 1069.5,-180 1069.5,-180 1063.5,-180 1057.5,-174 1057.5,-168 1057.5,-168 1057.5,-156 1057.5,-156 1057.5,-150 1063.5,-144 1069.5,-144 1069.5,-144 1113.5,-144 1113.5,-144 1119.5,-144 1125.5,-150 1125.5,-156 1125.5,-156 1125.5,-168 1125.5,-168 1125.5,-174 1119.5,-180 1113.5,-180"/>
<text text-anchor="middle" x="1091.5" y="-158.3" font-family="Times,serif" font-size="14.00">Subscript</text>
</g>
<!-- ast.Assign object at 0x7dbe1a5a67d0&#45;&gt;ast.Subscript object at 0x7dbe1a5a5f90 -->
<g id="edge55" class="edge">
<title>ast.Assign object at 0x7dbe1a5a67d0&#45;&gt;ast.Subscript object at 0x7dbe1a5a5f90</title>
<path fill="none" stroke="black" d="M1112.58,-215.7C1109.43,-207.81 1105.62,-198.3 1102.12,-189.55"/>
<polygon fill="black" stroke="black" points="1105.31,-188.09 1098.34,-180.1 1098.81,-190.69 1105.31,-188.09"/>
</g>
<!-- ast.Constant object at 0x7dbe1a5a6690 -->
<g id="node46" class="node">
<title>ast.Constant object at 0x7dbe1a5a6690</title>
<path fill="#66cdaa" stroke="black" d="M1197,-180C1197,-180 1156,-180 1156,-180 1150,-180 1144,-174 1144,-168 1144,-168 1144,-156 1144,-156 1144,-150 1150,-144 1156,-144 1156,-144 1197,-144 1197,-144 1203,-144 1209,-150 1209,-156 1209,-156 1209,-168 1209,-168 1209,-174 1203,-180 1197,-180"/>
<text text-anchor="middle" x="1176.5" y="-158.3" font-family="Times,serif" font-size="14.00">Constant</text>
</g>
<!-- ast.Assign object at 0x7dbe1a5a67d0&#45;&gt;ast.Constant object at 0x7dbe1a5a6690 -->
<g id="edge61" class="edge">
<title>ast.Assign object at 0x7dbe1a5a67d0&#45;&gt;ast.Constant object at 0x7dbe1a5a6690</title>
<path fill="none" stroke="black" d="M1133.59,-215.7C1140.42,-207.3 1148.76,-197.07 1156.26,-187.86"/>
<polygon fill="black" stroke="black" points="1158.97,-190.07 1162.57,-180.1 1153.54,-185.65 1158.97,-190.07"/>
</g>
<!-- ast.Subscript object at 0x7dbe1a5a5f90&#45;&gt;ast.Store object at 0x7dbf54602c90 -->
<g id="edge60" class="edge">
<title>ast.Subscript object at 0x7dbe1a5a5f90&#45;&gt;ast.Store object at 0x7dbf54602c90</title>
<path fill="none" stroke="black" d="M1057.2,-146.69C1053.96,-145.66 1050.69,-144.74 1047.5,-144 866.37,-102.22 808.11,-155.28 624.33,-107.62"/>
<polygon fill="black" stroke="black" points="625.2,-104.23 614.63,-105.04 623.4,-110.99 625.2,-104.23"/>
</g>
<!-- ast.Name object at 0x7dbe1a5a6110 -->
<g id="node44" class="node">
<title>ast.Name object at 0x7dbe1a5a6110</title>
<path fill="#66cdaa" stroke="black" d="M1072.5,-108C1072.5,-108 1042.5,-108 1042.5,-108 1036.5,-108 1030.5,-102 1030.5,-96 1030.5,-96 1030.5,-84 1030.5,-84 1030.5,-78 1036.5,-72 1042.5,-72 1042.5,-72 1072.5,-72 1072.5,-72 1078.5,-72 1084.5,-78 1084.5,-84 1084.5,-84 1084.5,-96 1084.5,-96 1084.5,-102 1078.5,-108 1072.5,-108"/>
<text text-anchor="middle" x="1057.5" y="-86.3" font-family="Times,serif" font-size="14.00">Name</text>
</g>
<!-- ast.Subscript object at 0x7dbe1a5a5f90&#45;&gt;ast.Name object at 0x7dbe1a5a6110 -->
<g id="edge56" class="edge">
<title>ast.Subscript object at 0x7dbe1a5a5f90&#45;&gt;ast.Name object at 0x7dbe1a5a6110</title>
<path fill="none" stroke="black" d="M1083.1,-143.7C1079.23,-135.73 1074.55,-126.1 1070.26,-117.26"/>
<polygon fill="black" stroke="black" points="1073.33,-115.57 1065.81,-108.1 1067.03,-118.63 1073.33,-115.57"/>
</g>
<!-- ast.Name object at 0x7dbe1a5a63d0 -->
<g id="node45" class="node">
<title>ast.Name object at 0x7dbe1a5a63d0</title>
<path fill="#66cdaa" stroke="black" d="M1000.5,-108C1000.5,-108 970.5,-108 970.5,-108 964.5,-108 958.5,-102 958.5,-96 958.5,-96 958.5,-84 958.5,-84 958.5,-78 964.5,-72 970.5,-72 970.5,-72 1000.5,-72 1000.5,-72 1006.5,-72 1012.5,-78 1012.5,-84 1012.5,-84 1012.5,-96 1012.5,-96 1012.5,-102 1006.5,-108 1000.5,-108"/>
<text text-anchor="middle" x="985.5" y="-86.3" font-family="Times,serif" font-size="14.00">Name</text>
</g>
<!-- ast.Subscript object at 0x7dbe1a5a5f90&#45;&gt;ast.Name object at 0x7dbe1a5a63d0 -->
<g id="edge58" class="edge">
<title>ast.Subscript object at 0x7dbe1a5a5f90&#45;&gt;ast.Name object at 0x7dbe1a5a63d0</title>
<path fill="none" stroke="black" d="M1065.57,-143.88C1051.84,-134.81 1034.79,-123.55 1019.96,-113.76"/>
<polygon fill="black" stroke="black" points="1021.8,-110.78 1011.53,-108.19 1017.95,-116.62 1021.8,-110.78"/>
</g>
<!-- ast.Name object at 0x7dbe1a5a6110&#45;&gt;ast.Load object at 0x7dbf54602c10 -->
<g id="edge57" class="edge">
<title>ast.Name object at 0x7dbe1a5a6110&#45;&gt;ast.Load object at 0x7dbf54602c10</title>
<path fill="none" stroke="black" d="M1030.26,-75.3C1027.34,-74.09 1024.39,-72.96 1021.5,-72 943.12,-46.02 847.17,-30.61 795.57,-23.58"/>
<polygon fill="black" stroke="black" points="795.93,-20.1 785.56,-22.25 795.01,-27.04 795.93,-20.1"/>
</g>
<!-- ast.Name object at 0x7dbe1a5a63d0&#45;&gt;ast.Load object at 0x7dbf54602c10 -->
<g id="edge59" class="edge">
<title>ast.Name object at 0x7dbe1a5a63d0&#45;&gt;ast.Load object at 0x7dbf54602c10</title>
<path fill="none" stroke="black" d="M958.19,-75.51C955.28,-74.26 952.35,-73.06 949.5,-72 897.09,-52.52 834.27,-36.41 795.36,-27.25"/>
<polygon fill="black" stroke="black" points="796.06,-23.82 785.53,-24.96 794.48,-30.64 796.06,-23.82"/>
</g>
<!-- ast.Subscript object at 0x7dbe1a5a6050 -->
<g id="node48" class="node">
<title>ast.Subscript object at 0x7dbe1a5a6050</title>
<path fill="#66cdaa" stroke="black" d="M785.5,-180C785.5,-180 741.5,-180 741.5,-180 735.5,-180 729.5,-174 729.5,-168 729.5,-168 729.5,-156 729.5,-156 729.5,-150 735.5,-144 741.5,-144 741.5,-144 785.5,-144 785.5,-144 791.5,-144 797.5,-150 797.5,-156 797.5,-156 797.5,-168 797.5,-168 797.5,-174 791.5,-180 785.5,-180"/>
<text text-anchor="middle" x="763.5" y="-158.3" font-family="Times,serif" font-size="14.00">Subscript</text>
</g>
<!-- ast.AugAssign object at 0x7dbe1a5a7310&#45;&gt;ast.Subscript object at 0x7dbe1a5a6050 -->
<g id="edge63" class="edge">
<title>ast.AugAssign object at 0x7dbe1a5a7310&#45;&gt;ast.Subscript object at 0x7dbe1a5a6050</title>
<path fill="none" stroke="black" d="M809.98,-287.72C805.08,-269.62 796.71,-240.48 787.5,-216 784.23,-207.3 780.21,-198.01 776.4,-189.68"/>
<polygon fill="black" stroke="black" points="779.48,-188.01 772.09,-180.42 773.14,-190.97 779.48,-188.01"/>
</g>
<!-- ast.Add object at 0x7dbf54603110 -->
<g id="node51" class="node">
<title>ast.Add object at 0x7dbf54603110</title>
<path fill="#66cdaa" stroke="black" d="M877.5,-252C877.5,-252 847.5,-252 847.5,-252 841.5,-252 835.5,-246 835.5,-240 835.5,-240 835.5,-228 835.5,-228 835.5,-222 841.5,-216 847.5,-216 847.5,-216 877.5,-216 877.5,-216 883.5,-216 889.5,-222 889.5,-228 889.5,-228 889.5,-240 889.5,-240 889.5,-246 883.5,-252 877.5,-252"/>
<text text-anchor="middle" x="862.5" y="-230.3" font-family="Times,serif" font-size="14.00">Add</text>
</g>
<!-- ast.AugAssign object at 0x7dbe1a5a7310&#45;&gt;ast.Add object at 0x7dbf54603110 -->
<g id="edge69" class="edge">
<title>ast.AugAssign object at 0x7dbe1a5a7310&#45;&gt;ast.Add object at 0x7dbf54603110</title>
<path fill="none" stroke="black" d="M826.37,-287.7C832,-279.47 838.85,-269.48 845.07,-260.42"/>
<polygon fill="black" stroke="black" points="848,-262.33 850.77,-252.1 842.23,-258.37 848,-262.33"/>
</g>
<!-- ast.Constant object at 0x7dbe1a5a6310 -->
<g id="node52" class="node">
<title>ast.Constant object at 0x7dbe1a5a6310</title>
<path fill="#66cdaa" stroke="black" d="M767,-252C767,-252 726,-252 726,-252 720,-252 714,-246 714,-240 714,-240 714,-228 714,-228 714,-222 720,-216 726,-216 726,-216 767,-216 767,-216 773,-216 779,-222 779,-228 779,-228 779,-240 779,-240 779,-246 773,-252 767,-252"/>
<text text-anchor="middle" x="746.5" y="-230.3" font-family="Times,serif" font-size="14.00">Constant</text>
</g>
<!-- ast.AugAssign object at 0x7dbe1a5a7310&#45;&gt;ast.Constant object at 0x7dbe1a5a6310 -->
<g id="edge70" class="edge">
<title>ast.AugAssign object at 0x7dbe1a5a7310&#45;&gt;ast.Constant object at 0x7dbe1a5a6310</title>
<path fill="none" stroke="black" d="M797.69,-287.7C789.37,-279.14 779.19,-268.66 770.11,-259.3"/>
<polygon fill="black" stroke="black" points="772.59,-256.84 763.12,-252.1 767.57,-261.72 772.59,-256.84"/>
</g>
<!-- ast.Subscript object at 0x7dbe1a5a6050&#45;&gt;ast.Store object at 0x7dbf54602c90 -->
<g id="edge68" class="edge">
<title>ast.Subscript object at 0x7dbe1a5a6050&#45;&gt;ast.Store object at 0x7dbf54602c90</title>
<path fill="none" stroke="black" d="M729.25,-148.89C702.73,-139.33 664.93,-125.28 623.89,-108.02"/>
<polygon fill="black" stroke="black" points="625.1,-104.73 614.52,-104.04 622.36,-111.17 625.1,-104.73"/>
</g>
<!-- ast.Name object at 0x7dbe1a5a6e90 -->
<g id="node49" class="node">
<title>ast.Name object at 0x7dbe1a5a6e90</title>
<path fill="#66cdaa" stroke="black" d="M746.5,-108C746.5,-108 716.5,-108 716.5,-108 710.5,-108 704.5,-102 704.5,-96 704.5,-96 704.5,-84 704.5,-84 704.5,-78 710.5,-72 716.5,-72 716.5,-72 746.5,-72 746.5,-72 752.5,-72 758.5,-78 758.5,-84 758.5,-84 758.5,-96 758.5,-96 758.5,-102 752.5,-108 746.5,-108"/>
<text text-anchor="middle" x="731.5" y="-86.3" font-family="Times,serif" font-size="14.00">Name</text>
</g>
<!-- ast.Subscript object at 0x7dbe1a5a6050&#45;&gt;ast.Name object at 0x7dbe1a5a6e90 -->
<g id="edge64" class="edge">
<title>ast.Subscript object at 0x7dbe1a5a6050&#45;&gt;ast.Name object at 0x7dbe1a5a6e90</title>
<path fill="none" stroke="black" d="M755.59,-143.7C751.95,-135.73 747.55,-126.1 743.51,-117.26"/>
<polygon fill="black" stroke="black" points="746.66,-115.74 739.32,-108.1 740.29,-118.65 746.66,-115.74"/>
</g>
<!-- ast.Name object at 0x7dbe1a5a7110 -->
<g id="node50" class="node">
<title>ast.Name object at 0x7dbe1a5a7110</title>
<path fill="#66cdaa" stroke="black" d="M674.5,-108C674.5,-108 644.5,-108 644.5,-108 638.5,-108 632.5,-102 632.5,-96 632.5,-96 632.5,-84 632.5,-84 632.5,-78 638.5,-72 644.5,-72 644.5,-72 674.5,-72 674.5,-72 680.5,-72 686.5,-78 686.5,-84 686.5,-84 686.5,-96 686.5,-96 686.5,-102 680.5,-108 674.5,-108"/>
<text text-anchor="middle" x="659.5" y="-86.3" font-family="Times,serif" font-size="14.00">Name</text>
</g>
<!-- ast.Subscript object at 0x7dbe1a5a6050&#45;&gt;ast.Name object at 0x7dbe1a5a7110 -->
<g id="edge66" class="edge">
<title>ast.Subscript object at 0x7dbe1a5a6050&#45;&gt;ast.Name object at 0x7dbe1a5a7110</title>
<path fill="none" stroke="black" d="M738.06,-143.88C724.71,-134.89 708.18,-123.76 693.72,-114.03"/>
<polygon fill="black" stroke="black" points="695.29,-110.87 685.04,-108.19 691.38,-116.68 695.29,-110.87"/>
</g>
<!-- ast.Name object at 0x7dbe1a5a6e90&#45;&gt;ast.Load object at 0x7dbf54602c10 -->
<g id="edge65" class="edge">
<title>ast.Name object at 0x7dbe1a5a6e90&#45;&gt;ast.Load object at 0x7dbf54602c10</title>
<path fill="none" stroke="black" d="M738.17,-71.7C741.21,-63.81 744.88,-54.3 748.26,-45.55"/>
<polygon fill="black" stroke="black" points="751.57,-46.69 751.9,-36.1 745.04,-44.17 751.57,-46.69"/>
</g>
<!-- ast.Name object at 0x7dbe1a5a7110&#45;&gt;ast.Load object at 0x7dbf54602c10 -->
<g id="edge67" class="edge">
<title>ast.Name object at 0x7dbe1a5a7110&#45;&gt;ast.Load object at 0x7dbf54602c10</title>
<path fill="none" stroke="black" d="M683.72,-71.88C696.42,-62.89 712.16,-51.76 725.92,-42.03"/>
<polygon fill="black" stroke="black" points="728.04,-44.82 734.19,-36.19 724,-39.11 728.04,-44.82"/>
</g>
<!-- ast.AugAssign object at 0x7dbe1a5a7250&#45;&gt;ast.Add object at 0x7dbf54603110 -->
<g id="edge74" class="edge">
<title>ast.AugAssign object at 0x7dbe1a5a7250&#45;&gt;ast.Add object at 0x7dbf54603110</title>
<path fill="none" stroke="black" d="M907.67,-287.7C900.48,-279.3 891.7,-269.07 883.81,-259.86"/>
<polygon fill="black" stroke="black" points="886.33,-257.42 877.16,-252.1 881.01,-261.97 886.33,-257.42"/>
</g>
<!-- ast.Name object at 0x7dbe1a5a6f10 -->
<g id="node54" class="node">
<title>ast.Name object at 0x7dbe1a5a6f10</title>
<path fill="#66cdaa" stroke="black" d="M949.5,-252C949.5,-252 919.5,-252 919.5,-252 913.5,-252 907.5,-246 907.5,-240 907.5,-240 907.5,-228 907.5,-228 907.5,-222 913.5,-216 919.5,-216 919.5,-216 949.5,-216 949.5,-216 955.5,-216 961.5,-222 961.5,-228 961.5,-228 961.5,-240 961.5,-240 961.5,-246 955.5,-252 949.5,-252"/>
<text text-anchor="middle" x="934.5" y="-230.3" font-family="Times,serif" font-size="14.00">Name</text>
</g>
<!-- ast.AugAssign object at 0x7dbe1a5a7250&#45;&gt;ast.Name object at 0x7dbe1a5a6f10 -->
<g id="edge72" class="edge">
<title>ast.AugAssign object at 0x7dbe1a5a7250&#45;&gt;ast.Name object at 0x7dbe1a5a6f10</title>
<path fill="none" stroke="black" d="M925.47,-287.7C926.79,-279.98 928.38,-270.71 929.85,-262.11"/>
<polygon fill="black" stroke="black" points="933.33,-262.55 931.57,-252.1 926.43,-261.37 933.33,-262.55"/>
</g>
<!-- ast.BinOp object at 0x7dbe1a5a6590 -->
<g id="node55" class="node">
<title>ast.BinOp object at 0x7dbe1a5a6590</title>
<path fill="#66cdaa" stroke="black" d="M1021.5,-252C1021.5,-252 991.5,-252 991.5,-252 985.5,-252 979.5,-246 979.5,-240 979.5,-240 979.5,-228 979.5,-228 979.5,-222 985.5,-216 991.5,-216 991.5,-216 1021.5,-216 1021.5,-216 1027.5,-216 1033.5,-222 1033.5,-228 1033.5,-228 1033.5,-240 1033.5,-240 1033.5,-246 1027.5,-252 1021.5,-252"/>
<text text-anchor="middle" x="1006.5" y="-230.3" font-family="Times,serif" font-size="14.00">BinOp</text>
</g>
<!-- ast.AugAssign object at 0x7dbe1a5a7250&#45;&gt;ast.BinOp object at 0x7dbe1a5a6590 -->
<g id="edge75" class="edge">
<title>ast.AugAssign object at 0x7dbe1a5a7250&#45;&gt;ast.BinOp object at 0x7dbe1a5a6590</title>
<path fill="none" stroke="black" d="M943.26,-287.7C953.74,-278.97 966.61,-268.24 978,-258.75"/>
<polygon fill="black" stroke="black" points="980.53,-261.19 985.97,-252.1 976.05,-255.82 980.53,-261.19"/>
</g>
<!-- ast.Name object at 0x7dbe1a5a6f10&#45;&gt;ast.Store object at 0x7dbf54602c90 -->
<g id="edge73" class="edge">
<title>ast.Name object at 0x7dbe1a5a6f10&#45;&gt;ast.Store object at 0x7dbf54602c90</title>
<path fill="none" stroke="black" d="M907.26,-219.3C904.34,-218.09 901.39,-216.96 898.5,-216 821.89,-190.58 793.24,-214.98 720.5,-180 698.04,-169.2 697.86,-158.37 677.5,-144 660.38,-131.91 640.37,-119.94 623.57,-110.43"/>
<polygon fill="black" stroke="black" points="625.04,-107.25 614.61,-105.42 621.63,-113.36 625.04,-107.25"/>
</g>
<!-- ast.Subscript object at 0x7dbe1a5a7190 -->
<g id="node56" class="node">
<title>ast.Subscript object at 0x7dbe1a5a7190</title>
<path fill="#66cdaa" stroke="black" d="M871.5,-180C871.5,-180 827.5,-180 827.5,-180 821.5,-180 815.5,-174 815.5,-168 815.5,-168 815.5,-156 815.5,-156 815.5,-150 821.5,-144 827.5,-144 827.5,-144 871.5,-144 871.5,-144 877.5,-144 883.5,-150 883.5,-156 883.5,-156 883.5,-168 883.5,-168 883.5,-174 877.5,-180 871.5,-180"/>
<text text-anchor="middle" x="849.5" y="-158.3" font-family="Times,serif" font-size="14.00">Subscript</text>
</g>
<!-- ast.BinOp object at 0x7dbe1a5a6590&#45;&gt;ast.Subscript object at 0x7dbe1a5a7190 -->
<g id="edge76" class="edge">
<title>ast.BinOp object at 0x7dbe1a5a6590&#45;&gt;ast.Subscript object at 0x7dbe1a5a7190</title>
<path fill="none" stroke="black" d="M979.41,-220.11C976.41,-218.71 973.39,-217.32 970.5,-216 944.81,-204.31 915.87,-191.62 892.73,-181.58"/>
<polygon fill="black" stroke="black" points="894.08,-178.35 883.52,-177.59 891.3,-184.78 894.08,-178.35"/>
</g>
<!-- ast.Sub object at 0x7dbf54603190 -->
<g id="node59" class="node">
<title>ast.Sub object at 0x7dbf54603190</title>
<path fill="#66cdaa" stroke="black" d="M943.5,-180C943.5,-180 913.5,-180 913.5,-180 907.5,-180 901.5,-174 901.5,-168 901.5,-168 901.5,-156 901.5,-156 901.5,-150 907.5,-144 913.5,-144 913.5,-144 943.5,-144 943.5,-144 949.5,-144 955.5,-150 955.5,-156 955.5,-156 955.5,-168 955.5,-168 955.5,-174 949.5,-180 943.5,-180"/>
<text text-anchor="middle" x="928.5" y="-158.3" font-family="Times,serif" font-size="14.00">Sub</text>
</g>
<!-- ast.BinOp object at 0x7dbe1a5a6590&#45;&gt;ast.Sub object at 0x7dbf54603190 -->
<g id="edge82" class="edge">
<title>ast.BinOp object at 0x7dbe1a5a6590&#45;&gt;ast.Sub object at 0x7dbf54603190</title>
<path fill="none" stroke="black" d="M987.22,-215.7C977.58,-207.05 965.77,-196.45 955.27,-187.03"/>
<polygon fill="black" stroke="black" points="957.34,-184.18 947.56,-180.1 952.66,-189.39 957.34,-184.18"/>
</g>
<!-- ast.Constant object at 0x7dbe1a5a7450 -->
<g id="node60" class="node">
<title>ast.Constant object at 0x7dbe1a5a7450</title>
<path fill="#66cdaa" stroke="black" d="M1027,-180C1027,-180 986,-180 986,-180 980,-180 974,-174 974,-168 974,-168 974,-156 974,-156 974,-150 980,-144 986,-144 986,-144 1027,-144 1027,-144 1033,-144 1039,-150 1039,-156 1039,-156 1039,-168 1039,-168 1039,-174 1033,-180 1027,-180"/>
<text text-anchor="middle" x="1006.5" y="-158.3" font-family="Times,serif" font-size="14.00">Constant</text>
</g>
<!-- ast.BinOp object at 0x7dbe1a5a6590&#45;&gt;ast.Constant object at 0x7dbe1a5a7450 -->
<g id="edge83" class="edge">
<title>ast.BinOp object at 0x7dbe1a5a6590&#45;&gt;ast.Constant object at 0x7dbe1a5a7450</title>
<path fill="none" stroke="black" d="M1006.5,-215.7C1006.5,-207.98 1006.5,-198.71 1006.5,-190.11"/>
<polygon fill="black" stroke="black" points="1010,-190.1 1006.5,-180.1 1003,-190.1 1010,-190.1"/>
</g>
<!-- ast.Subscript object at 0x7dbe1a5a7190&#45;&gt;ast.Load object at 0x7dbf54602c10 -->
<g id="edge81" class="edge">
<title>ast.Subscript object at 0x7dbe1a5a7190&#45;&gt;ast.Load object at 0x7dbf54602c10</title>
<path fill="none" stroke="black" d="M833.46,-143.57C824.67,-133.56 813.88,-120.53 805.5,-108 792.14,-88.02 779.57,-63.82 770.8,-45.7"/>
<polygon fill="black" stroke="black" points="773.79,-43.85 766.33,-36.33 767.47,-46.86 773.79,-43.85"/>
</g>
<!-- ast.Name object at 0x7dbe1a5a75d0 -->
<g id="node57" class="node">
<title>ast.Name object at 0x7dbe1a5a75d0</title>
<path fill="#66cdaa" stroke="black" d="M856.5,-108C856.5,-108 826.5,-108 826.5,-108 820.5,-108 814.5,-102 814.5,-96 814.5,-96 814.5,-84 814.5,-84 814.5,-78 820.5,-72 826.5,-72 826.5,-72 856.5,-72 856.5,-72 862.5,-72 868.5,-78 868.5,-84 868.5,-84 868.5,-96 868.5,-96 868.5,-102 862.5,-108 856.5,-108"/>
<text text-anchor="middle" x="841.5" y="-86.3" font-family="Times,serif" font-size="14.00">Name</text>
</g>
<!-- ast.Subscript object at 0x7dbe1a5a7190&#45;&gt;ast.Name object at 0x7dbe1a5a75d0 -->
<g id="edge77" class="edge">
<title>ast.Subscript object at 0x7dbe1a5a7190&#45;&gt;ast.Name object at 0x7dbe1a5a75d0</title>
<path fill="none" stroke="black" d="M847.52,-143.7C846.64,-135.98 845.58,-126.71 844.6,-118.11"/>
<polygon fill="black" stroke="black" points="848.07,-117.64 843.45,-108.1 841.11,-118.44 848.07,-117.64"/>
</g>
<!-- ast.Name object at 0x7dbe1a5a6910 -->
<g id="node58" class="node">
<title>ast.Name object at 0x7dbe1a5a6910</title>
<path fill="#66cdaa" stroke="black" d="M928.5,-108C928.5,-108 898.5,-108 898.5,-108 892.5,-108 886.5,-102 886.5,-96 886.5,-96 886.5,-84 886.5,-84 886.5,-78 892.5,-72 898.5,-72 898.5,-72 928.5,-72 928.5,-72 934.5,-72 940.5,-78 940.5,-84 940.5,-84 940.5,-96 940.5,-96 940.5,-102 934.5,-108 928.5,-108"/>
<text text-anchor="middle" x="913.5" y="-86.3" font-family="Times,serif" font-size="14.00">Name</text>
</g>
<!-- ast.Subscript object at 0x7dbe1a5a7190&#45;&gt;ast.Name object at 0x7dbe1a5a6910 -->
<g id="edge79" class="edge">
<title>ast.Subscript object at 0x7dbe1a5a7190&#45;&gt;ast.Name object at 0x7dbe1a5a6910</title>
<path fill="none" stroke="black" d="M865.32,-143.7C873.07,-135.22 882.54,-124.86 891.02,-115.58"/>
<polygon fill="black" stroke="black" points="893.7,-117.85 897.86,-108.1 888.53,-113.12 893.7,-117.85"/>
</g>
<!-- ast.Name object at 0x7dbe1a5a75d0&#45;&gt;ast.Load object at 0x7dbf54602c10 -->
<g id="edge78" class="edge">
<title>ast.Name object at 0x7dbe1a5a75d0&#45;&gt;ast.Load object at 0x7dbf54602c10</title>
<path fill="none" stroke="black" d="M820.98,-71.7C810.63,-62.97 797.91,-52.24 786.66,-42.75"/>
<polygon fill="black" stroke="black" points="788.68,-39.88 778.78,-36.1 784.17,-45.23 788.68,-39.88"/>
</g>
<!-- ast.Name object at 0x7dbe1a5a6910&#45;&gt;ast.Load object at 0x7dbf54602c10 -->
<g id="edge80" class="edge">
<title>ast.Name object at 0x7dbe1a5a6910&#45;&gt;ast.Load object at 0x7dbf54602c10</title>
<path fill="none" stroke="black" d="M886.4,-76.13C883.4,-74.72 880.39,-73.33 877.5,-72 849.86,-59.32 818.42,-45.34 794.8,-34.92"/>
<polygon fill="black" stroke="black" points="796.08,-31.66 785.52,-30.83 793.26,-38.06 796.08,-31.66"/>
</g>
<!-- ast.Compare object at 0x7dbe151fa910 -->
<g id="node62" class="node">
<title>ast.Compare object at 0x7dbe151fa910</title>
<path fill="#66cdaa" stroke="black" d="M1444,-324C1444,-324 1401,-324 1401,-324 1395,-324 1389,-318 1389,-312 1389,-312 1389,-300 1389,-300 1389,-294 1395,-288 1401,-288 1401,-288 1444,-288 1444,-288 1450,-288 1456,-294 1456,-300 1456,-300 1456,-312 1456,-312 1456,-318 1450,-324 1444,-324"/>
<text text-anchor="middle" x="1422.5" y="-302.3" font-family="Times,serif" font-size="14.00">Compare</text>
</g>
<!-- ast.Return object at 0x7dbe1a519d90&#45;&gt;ast.Compare object at 0x7dbe151fa910 -->
<g id="edge85" class="edge">
<title>ast.Return object at 0x7dbe1a519d90&#45;&gt;ast.Compare object at 0x7dbe151fa910</title>
<path fill="none" stroke="black" d="M1119.51,-371.27C1176.46,-359.19 1309.34,-331 1378.66,-316.3"/>
<polygon fill="black" stroke="black" points="1379.75,-319.65 1388.81,-314.15 1378.3,-312.8 1379.75,-319.65"/>
</g>
<!-- ast.Name object at 0x7dbe1a5a7810 -->
<g id="node63" class="node">
<title>ast.Name object at 0x7dbe1a5a7810</title>
<path fill="#66cdaa" stroke="black" d="M1398.5,-252C1398.5,-252 1368.5,-252 1368.5,-252 1362.5,-252 1356.5,-246 1356.5,-240 1356.5,-240 1356.5,-228 1356.5,-228 1356.5,-222 1362.5,-216 1368.5,-216 1368.5,-216 1398.5,-216 1398.5,-216 1404.5,-216 1410.5,-222 1410.5,-228 1410.5,-228 1410.5,-240 1410.5,-240 1410.5,-246 1404.5,-252 1398.5,-252"/>
<text text-anchor="middle" x="1383.5" y="-230.3" font-family="Times,serif" font-size="14.00">Name</text>
</g>
<!-- ast.Compare object at 0x7dbe151fa910&#45;&gt;ast.Name object at 0x7dbe1a5a7810 -->
<g id="edge86" class="edge">
<title>ast.Compare object at 0x7dbe151fa910&#45;&gt;ast.Name object at 0x7dbe1a5a7810</title>
<path fill="none" stroke="black" d="M1412.86,-287.7C1408.37,-279.64 1402.94,-269.89 1397.98,-260.98"/>
<polygon fill="black" stroke="black" points="1400.95,-259.14 1393.03,-252.1 1394.84,-262.54 1400.95,-259.14"/>
</g>
<!-- ast.LtE object at 0x7dbf54603d90 -->
<g id="node64" class="node">
<title>ast.LtE object at 0x7dbf54603d90</title>
<path fill="#66cdaa" stroke="black" d="M1554.5,-252C1554.5,-252 1524.5,-252 1524.5,-252 1518.5,-252 1512.5,-246 1512.5,-240 1512.5,-240 1512.5,-228 1512.5,-228 1512.5,-222 1518.5,-216 1524.5,-216 1524.5,-216 1554.5,-216 1554.5,-216 1560.5,-216 1566.5,-222 1566.5,-228 1566.5,-228 1566.5,-240 1566.5,-240 1566.5,-246 1560.5,-252 1554.5,-252"/>
<text text-anchor="middle" x="1539.5" y="-230.3" font-family="Times,serif" font-size="14.00">LtE</text>
</g>
<!-- ast.Compare object at 0x7dbe151fa910&#45;&gt;ast.LtE object at 0x7dbf54603d90 -->
<g id="edge88" class="edge">
<title>ast.Compare object at 0x7dbe151fa910&#45;&gt;ast.LtE object at 0x7dbf54603d90</title>
<path fill="none" stroke="black" d="M1451.12,-287.88C1466.88,-278.45 1486.58,-266.66 1503.39,-256.61"/>
<polygon fill="black" stroke="black" points="1505.6,-259.36 1512.38,-251.23 1502,-253.36 1505.6,-259.36"/>
</g>
<!-- ast.Constant object at 0x7dbe1a5a6ed0 -->
<g id="node65" class="node">
<title>ast.Constant object at 0x7dbe1a5a6ed0</title>
<path fill="#66cdaa" stroke="black" d="M1482,-252C1482,-252 1441,-252 1441,-252 1435,-252 1429,-246 1429,-240 1429,-240 1429,-228 1429,-228 1429,-222 1435,-216 1441,-216 1441,-216 1482,-216 1482,-216 1488,-216 1494,-222 1494,-228 1494,-228 1494,-240 1494,-240 1494,-246 1488,-252 1482,-252"/>
<text text-anchor="middle" x="1461.5" y="-230.3" font-family="Times,serif" font-size="14.00">Constant</text>
</g>
<!-- ast.Compare object at 0x7dbe151fa910&#45;&gt;ast.Constant object at 0x7dbe1a5a6ed0 -->
<g id="edge89" class="edge">
<title>ast.Compare object at 0x7dbe151fa910&#45;&gt;ast.Constant object at 0x7dbe1a5a6ed0</title>
<path fill="none" stroke="black" d="M1432.14,-287.7C1436.63,-279.64 1442.06,-269.89 1447.02,-260.98"/>
<polygon fill="black" stroke="black" points="1450.16,-262.54 1451.97,-252.1 1444.05,-259.14 1450.16,-262.54"/>
</g>
<!-- ast.Name object at 0x7dbe1a5a7810&#45;&gt;ast.Load object at 0x7dbf54602c10 -->
<g id="edge87" class="edge">
<title>ast.Name object at 0x7dbe1a5a7810&#45;&gt;ast.Load object at 0x7dbf54602c10</title>
<path fill="none" stroke="black" d="M1384.93,-215.89C1386.68,-182.42 1385.19,-108.4 1342.5,-72 1300.91,-36.54 918.17,-23.28 795.88,-19.92"/>
<polygon fill="black" stroke="black" points="795.95,-16.42 785.86,-19.65 795.77,-23.42 795.95,-16.42"/>
</g>
</g>
</svg>
