<?xml version="1.0" encoding="UTF-8" standalone="no"?>
<!DOCTYPE svg PUBLIC "-//W3C//DTD SVG 1.1//EN"
 "http://www.w3.org/Graphics/SVG/1.1/DTD/svg11.dtd">
<!-- Generated by graphviz version 2.50.0 (0)
 -->
<!-- Pages: 1 -->
<svg width="582pt" height="548pt"
 viewBox="0.00 0.00 581.50 548.00" xmlns="http://www.w3.org/2000/svg" xmlns:xlink="http://www.w3.org/1999/xlink">
<g id="graph0" class="graph" transform="scale(1 1) rotate(0) translate(4 544)">
<polygon fill="white" stroke="transparent" points="-4,4 -4,-544 577.5,-544 577.5,4 -4,4"/>
<!-- ast.Module object at 0x74b43bad7750 -->
<g id="node1" class="node">
<title>ast.Module object at 0x74b43bad7750</title>
<path fill="#66cdaa" stroke="black" d="M166,-540C166,-540 131,-540 131,-540 125,-540 119,-534 119,-528 119,-528 119,-516 119,-516 119,-510 125,-504 131,-504 131,-504 166,-504 166,-504 172,-504 178,-510 178,-516 178,-516 178,-528 178,-528 178,-534 172,-540 166,-540"/>
<text text-anchor="middle" x="148.5" y="-518.3" font-family="Times,serif" font-size="14.00">Module</text>
</g>
<!-- ast.FunctionDef object at 0x74b43bad64d0 -->
<g id="node2" class="node">
<title>ast.FunctionDef object at 0x74b43bad64d0</title>
<path fill="#66cdaa" stroke="black" d="M179,-468C179,-468 118,-468 118,-468 112,-468 106,-462 106,-456 106,-456 106,-444 106,-444 106,-438 112,-432 118,-432 118,-432 179,-432 179,-432 185,-432 191,-438 191,-444 191,-444 191,-456 191,-456 191,-462 185,-468 179,-468"/>
<text text-anchor="middle" x="148.5" y="-446.3" font-family="Times,serif" font-size="14.00">FunctionDef</text>
</g>
<!-- ast.Module object at 0x74b43bad7750&#45;&gt;ast.FunctionDef object at 0x74b43bad64d0 -->
<g id="edge1" class="edge">
<title>ast.Module object at 0x74b43bad7750&#45;&gt;ast.FunctionDef object at 0x74b43bad64d0</title>
<path fill="none" stroke="black" d="M148.5,-503.7C148.5,-495.98 148.5,-486.71 148.5,-478.11"/>
<polygon fill="black" stroke="black" points="152,-478.1 148.5,-468.1 145,-478.1 152,-478.1"/>
</g>
<!-- ast.arguments object at 0x74b43bad4090 -->
<g id="node3" class="node">
<title>ast.arguments object at 0x74b43bad4090</title>
<path fill="#66cdaa" stroke="black" d="M69.5,-396C69.5,-396 19.5,-396 19.5,-396 13.5,-396 7.5,-390 7.5,-384 7.5,-384 7.5,-372 7.5,-372 7.5,-366 13.5,-360 19.5,-360 19.5,-360 69.5,-360 69.5,-360 75.5,-360 81.5,-366 81.5,-372 81.5,-372 81.5,-384 81.5,-384 81.5,-390 75.5,-396 69.5,-396"/>
<text text-anchor="middle" x="44.5" y="-374.3" font-family="Times,serif" font-size="14.00">arguments</text>
</g>
<!-- ast.FunctionDef object at 0x74b43bad64d0&#45;&gt;ast.arguments object at 0x74b43bad4090 -->
<g id="edge2" class="edge">
<title>ast.FunctionDef object at 0x74b43bad64d0&#45;&gt;ast.arguments object at 0x74b43bad4090</title>
<path fill="none" stroke="black" d="M123.06,-431.88C109.71,-422.89 93.18,-411.76 78.72,-402.03"/>
<polygon fill="black" stroke="black" points="80.29,-398.87 70.04,-396.19 76.38,-404.68 80.29,-398.87"/>
</g>
<!-- ast.Assign object at 0x74b43bad75d0 -->
<g id="node5" class="node">
<title>ast.Assign object at 0x74b43bad75d0</title>
<path fill="#66cdaa" stroke="black" d="M119.5,-324C119.5,-324 89.5,-324 89.5,-324 83.5,-324 77.5,-318 77.5,-312 77.5,-312 77.5,-300 77.5,-300 77.5,-294 83.5,-288 89.5,-288 89.5,-288 119.5,-288 119.5,-288 125.5,-288 131.5,-294 131.5,-300 131.5,-300 131.5,-312 131.5,-312 131.5,-318 125.5,-324 119.5,-324"/>
<text text-anchor="middle" x="104.5" y="-302.3" font-family="Times,serif" font-size="14.00">Assign</text>
</g>
<!-- ast.FunctionDef object at 0x74b43bad64d0&#45;&gt;ast.Assign object at 0x74b43bad75d0 -->
<g id="edge4" class="edge">
<title>ast.FunctionDef object at 0x74b43bad64d0&#45;&gt;ast.Assign object at 0x74b43bad75d0</title>
<path fill="none" stroke="black" d="M143.19,-431.87C135.66,-407.56 121.8,-362.82 112.87,-334.01"/>
<polygon fill="black" stroke="black" points="116.13,-332.71 109.83,-324.19 109.44,-334.78 116.13,-332.71"/>
</g>
<!-- ast.For object at 0x74b43bad5450 -->
<g id="node12" class="node">
<title>ast.For object at 0x74b43bad5450</title>
<path fill="#66cdaa" stroke="black" d="M227.5,-396C227.5,-396 197.5,-396 197.5,-396 191.5,-396 185.5,-390 185.5,-384 185.5,-384 185.5,-372 185.5,-372 185.5,-366 191.5,-360 197.5,-360 197.5,-360 227.5,-360 227.5,-360 233.5,-360 239.5,-366 239.5,-372 239.5,-372 239.5,-384 239.5,-384 239.5,-390 233.5,-396 227.5,-396"/>
<text text-anchor="middle" x="212.5" y="-374.3" font-family="Times,serif" font-size="14.00">For</text>
</g>
<!-- ast.FunctionDef object at 0x74b43bad64d0&#45;&gt;ast.For object at 0x74b43bad5450 -->
<g id="edge11" class="edge">
<title>ast.FunctionDef object at 0x74b43bad64d0&#45;&gt;ast.For object at 0x74b43bad5450</title>
<path fill="none" stroke="black" d="M164.32,-431.7C172.07,-423.22 181.54,-412.86 190.02,-403.58"/>
<polygon fill="black" stroke="black" points="192.7,-405.85 196.86,-396.1 187.53,-401.12 192.7,-405.85"/>
</g>
<!-- ast.Return object at 0x74b43bad58d0 -->
<g id="node26" class="node">
<title>ast.Return object at 0x74b43bad58d0</title>
<path fill="#66cdaa" stroke="black" d="M448.5,-396C448.5,-396 418.5,-396 418.5,-396 412.5,-396 406.5,-390 406.5,-384 406.5,-384 406.5,-372 406.5,-372 406.5,-366 412.5,-360 418.5,-360 418.5,-360 448.5,-360 448.5,-360 454.5,-360 460.5,-366 460.5,-372 460.5,-372 460.5,-384 460.5,-384 460.5,-390 454.5,-396 448.5,-396"/>
<text text-anchor="middle" x="433.5" y="-374.3" font-family="Times,serif" font-size="14.00">Return</text>
</g>
<!-- ast.FunctionDef object at 0x74b43bad64d0&#45;&gt;ast.Return object at 0x74b43bad58d0 -->
<g id="edge33" class="edge">
<title>ast.FunctionDef object at 0x74b43bad64d0&#45;&gt;ast.Return object at 0x74b43bad58d0</title>
<path fill="none" stroke="black" d="M191.17,-438.52C246.92,-424.83 343.66,-401.07 396.48,-388.09"/>
<polygon fill="black" stroke="black" points="397.55,-391.43 406.43,-385.65 395.88,-384.64 397.55,-391.43"/>
</g>
<!-- ast.arg object at 0x74b43bad56d0 -->
<g id="node4" class="node">
<title>ast.arg object at 0x74b43bad56d0</title>
<path fill="#66cdaa" stroke="black" d="M47.5,-324C47.5,-324 17.5,-324 17.5,-324 11.5,-324 5.5,-318 5.5,-312 5.5,-312 5.5,-300 5.5,-300 5.5,-294 11.5,-288 17.5,-288 17.5,-288 47.5,-288 47.5,-288 53.5,-288 59.5,-294 59.5,-300 59.5,-300 59.5,-312 59.5,-312 59.5,-318 53.5,-324 47.5,-324"/>
<text text-anchor="middle" x="32.5" y="-302.3" font-family="Times,serif" font-size="14.00">arg</text>
</g>
<!-- ast.arguments object at 0x74b43bad4090&#45;&gt;ast.arg object at 0x74b43bad56d0 -->
<g id="edge3" class="edge">
<title>ast.arguments object at 0x74b43bad4090&#45;&gt;ast.arg object at 0x74b43bad56d0</title>
<path fill="none" stroke="black" d="M41.53,-359.7C40.21,-351.98 38.62,-342.71 37.15,-334.11"/>
<polygon fill="black" stroke="black" points="40.57,-333.37 35.43,-324.1 33.67,-334.55 40.57,-333.37"/>
</g>
<!-- ast.Name object at 0x74b43bad5590 -->
<g id="node6" class="node">
<title>ast.Name object at 0x74b43bad5590</title>
<path fill="#66cdaa" stroke="black" d="M119.5,-252C119.5,-252 89.5,-252 89.5,-252 83.5,-252 77.5,-246 77.5,-240 77.5,-240 77.5,-228 77.5,-228 77.5,-222 83.5,-216 89.5,-216 89.5,-216 119.5,-216 119.5,-216 125.5,-216 131.5,-222 131.5,-228 131.5,-228 131.5,-240 131.5,-240 131.5,-246 125.5,-252 119.5,-252"/>
<text text-anchor="middle" x="104.5" y="-230.3" font-family="Times,serif" font-size="14.00">Name</text>
</g>
<!-- ast.Assign object at 0x74b43bad75d0&#45;&gt;ast.Name object at 0x74b43bad5590 -->
<g id="edge5" class="edge">
<title>ast.Assign object at 0x74b43bad75d0&#45;&gt;ast.Name object at 0x74b43bad5590</title>
<path fill="none" stroke="black" d="M104.5,-287.7C104.5,-279.98 104.5,-270.71 104.5,-262.11"/>
<polygon fill="black" stroke="black" points="108,-262.1 104.5,-252.1 101,-262.1 108,-262.1"/>
</g>
<!-- ast.Call object at 0x74b43bad7e50 -->
<g id="node8" class="node">
<title>ast.Call object at 0x74b43bad7e50</title>
<path fill="#66cdaa" stroke="black" d="M47.5,-252C47.5,-252 17.5,-252 17.5,-252 11.5,-252 5.5,-246 5.5,-240 5.5,-240 5.5,-228 5.5,-228 5.5,-222 11.5,-216 17.5,-216 17.5,-216 47.5,-216 47.5,-216 53.5,-216 59.5,-222 59.5,-228 59.5,-228 59.5,-240 59.5,-240 59.5,-246 53.5,-252 47.5,-252"/>
<text text-anchor="middle" x="32.5" y="-230.3" font-family="Times,serif" font-size="14.00">Call</text>
</g>
<!-- ast.Assign object at 0x74b43bad75d0&#45;&gt;ast.Call object at 0x74b43bad7e50 -->
<g id="edge7" class="edge">
<title>ast.Assign object at 0x74b43bad75d0&#45;&gt;ast.Call object at 0x74b43bad7e50</title>
<path fill="none" stroke="black" d="M86.7,-287.7C77.9,-279.14 67.12,-268.66 57.5,-259.3"/>
<polygon fill="black" stroke="black" points="59.7,-256.57 50.09,-252.1 54.82,-261.58 59.7,-256.57"/>
</g>
<!-- ast.Store object at 0x74b53ba56c10 -->
<g id="node7" class="node">
<title>ast.Store object at 0x74b53ba56c10</title>
<path fill="#66cdaa" stroke="black" d="M174.5,-180C174.5,-180 144.5,-180 144.5,-180 138.5,-180 132.5,-174 132.5,-168 132.5,-168 132.5,-156 132.5,-156 132.5,-150 138.5,-144 144.5,-144 144.5,-144 174.5,-144 174.5,-144 180.5,-144 186.5,-150 186.5,-156 186.5,-156 186.5,-168 186.5,-168 186.5,-174 180.5,-180 174.5,-180"/>
<text text-anchor="middle" x="159.5" y="-158.3" font-family="Times,serif" font-size="14.00">Store</text>
</g>
<!-- ast.Name object at 0x74b43bad5590&#45;&gt;ast.Store object at 0x74b53ba56c10 -->
<g id="edge6" class="edge">
<title>ast.Name object at 0x74b43bad5590&#45;&gt;ast.Store object at 0x74b53ba56c10</title>
<path fill="none" stroke="black" d="M118.1,-215.7C124.62,-207.39 132.57,-197.28 139.75,-188.14"/>
<polygon fill="black" stroke="black" points="142.63,-190.13 146.06,-180.1 137.13,-185.81 142.63,-190.13"/>
</g>
<!-- ast.Name object at 0x74b43bad7c90 -->
<g id="node9" class="node">
<title>ast.Name object at 0x74b43bad7c90</title>
<path fill="#66cdaa" stroke="black" d="M138.5,-108C138.5,-108 108.5,-108 108.5,-108 102.5,-108 96.5,-102 96.5,-96 96.5,-96 96.5,-84 96.5,-84 96.5,-78 102.5,-72 108.5,-72 108.5,-72 138.5,-72 138.5,-72 144.5,-72 150.5,-78 150.5,-84 150.5,-84 150.5,-96 150.5,-96 150.5,-102 144.5,-108 138.5,-108"/>
<text text-anchor="middle" x="123.5" y="-86.3" font-family="Times,serif" font-size="14.00">Name</text>
</g>
<!-- ast.Call object at 0x74b43bad7e50&#45;&gt;ast.Name object at 0x74b43bad7c90 -->
<g id="edge8" class="edge">
<title>ast.Call object at 0x74b43bad7e50&#45;&gt;ast.Name object at 0x74b43bad7c90</title>
<path fill="none" stroke="black" d="M46.83,-215.81C55.03,-205.66 65.28,-192.41 73.5,-180 86.96,-159.68 100.39,-135.51 109.94,-117.48"/>
<polygon fill="black" stroke="black" points="113.28,-118.65 114.82,-108.17 107.08,-115.4 113.28,-118.65"/>
</g>
<!-- ast.Constant object at 0x74b43bad6550 -->
<g id="node11" class="node">
<title>ast.Constant object at 0x74b43bad6550</title>
<path fill="#66cdaa" stroke="black" d="M53,-180C53,-180 12,-180 12,-180 6,-180 0,-174 0,-168 0,-168 0,-156 0,-156 0,-150 6,-144 12,-144 12,-144 53,-144 53,-144 59,-144 65,-150 65,-156 65,-156 65,-168 65,-168 65,-174 59,-180 53,-180"/>
<text text-anchor="middle" x="32.5" y="-158.3" font-family="Times,serif" font-size="14.00">Constant</text>
</g>
<!-- ast.Call object at 0x74b43bad7e50&#45;&gt;ast.Constant object at 0x74b43bad6550 -->
<g id="edge10" class="edge">
<title>ast.Call object at 0x74b43bad7e50&#45;&gt;ast.Constant object at 0x74b43bad6550</title>
<path fill="none" stroke="black" d="M32.5,-215.7C32.5,-207.98 32.5,-198.71 32.5,-190.11"/>
<polygon fill="black" stroke="black" points="36,-190.1 32.5,-180.1 29,-190.1 36,-190.1"/>
</g>
<!-- ast.Load object at 0x74b53ba56b90 -->
<g id="node10" class="node">
<title>ast.Load object at 0x74b53ba56b90</title>
<path fill="#66cdaa" stroke="black" d="M352.5,-36C352.5,-36 322.5,-36 322.5,-36 316.5,-36 310.5,-30 310.5,-24 310.5,-24 310.5,-12 310.5,-12 310.5,-6 316.5,0 322.5,0 322.5,0 352.5,0 352.5,0 358.5,0 364.5,-6 364.5,-12 364.5,-12 364.5,-24 364.5,-24 364.5,-30 358.5,-36 352.5,-36"/>
<text text-anchor="middle" x="337.5" y="-14.3" font-family="Times,serif" font-size="14.00">Load</text>
</g>
<!-- ast.Name object at 0x74b43bad7c90&#45;&gt;ast.Load object at 0x74b53ba56b90 -->
<g id="edge9" class="edge">
<title>ast.Name object at 0x74b43bad7c90&#45;&gt;ast.Load object at 0x74b53ba56b90</title>
<path fill="none" stroke="black" d="M150.66,-78.71C156.84,-76.45 163.38,-74.1 169.5,-72 214.21,-56.7 266.15,-40.56 300.31,-30.17"/>
<polygon fill="black" stroke="black" points="301.75,-33.39 310.31,-27.14 299.72,-26.69 301.75,-33.39"/>
</g>
<!-- ast.Name object at 0x74b43bad4c10 -->
<g id="node13" class="node">
<title>ast.Name object at 0x74b43bad4c10</title>
<path fill="#66cdaa" stroke="black" d="M191.5,-324C191.5,-324 161.5,-324 161.5,-324 155.5,-324 149.5,-318 149.5,-312 149.5,-312 149.5,-300 149.5,-300 149.5,-294 155.5,-288 161.5,-288 161.5,-288 191.5,-288 191.5,-288 197.5,-288 203.5,-294 203.5,-300 203.5,-300 203.5,-312 203.5,-312 203.5,-318 197.5,-324 191.5,-324"/>
<text text-anchor="middle" x="176.5" y="-302.3" font-family="Times,serif" font-size="14.00">Name</text>
</g>
<!-- ast.For object at 0x74b43bad5450&#45;&gt;ast.Name object at 0x74b43bad4c10 -->
<g id="edge12" class="edge">
<title>ast.For object at 0x74b43bad5450&#45;&gt;ast.Name object at 0x74b43bad4c10</title>
<path fill="none" stroke="black" d="M203.6,-359.7C199.5,-351.73 194.55,-342.1 190.01,-333.26"/>
<polygon fill="black" stroke="black" points="192.98,-331.4 185.3,-324.1 186.76,-334.6 192.98,-331.4"/>
</g>
<!-- ast.Call object at 0x74b43bad4710 -->
<g id="node14" class="node">
<title>ast.Call object at 0x74b43bad4710</title>
<path fill="#66cdaa" stroke="black" d="M420.5,-324C420.5,-324 390.5,-324 390.5,-324 384.5,-324 378.5,-318 378.5,-312 378.5,-312 378.5,-300 378.5,-300 378.5,-294 384.5,-288 390.5,-288 390.5,-288 420.5,-288 420.5,-288 426.5,-288 432.5,-294 432.5,-300 432.5,-300 432.5,-312 432.5,-312 432.5,-318 426.5,-324 420.5,-324"/>
<text text-anchor="middle" x="405.5" y="-302.3" font-family="Times,serif" font-size="14.00">Call</text>
</g>
<!-- ast.For object at 0x74b43bad5450&#45;&gt;ast.Call object at 0x74b43bad4710 -->
<g id="edge14" class="edge">
<title>ast.For object at 0x74b43bad5450&#45;&gt;ast.Call object at 0x74b43bad4710</title>
<path fill="none" stroke="black" d="M239.74,-367.12C273.51,-354.87 331.18,-333.95 368.82,-320.3"/>
<polygon fill="black" stroke="black" points="370.19,-323.53 378.4,-316.83 367.8,-316.95 370.19,-323.53"/>
</g>
<!-- ast.Assign object at 0x74b43bad7650 -->
<g id="node18" class="node">
<title>ast.Assign object at 0x74b43bad7650</title>
<path fill="#66cdaa" stroke="black" d="M263.5,-324C263.5,-324 233.5,-324 233.5,-324 227.5,-324 221.5,-318 221.5,-312 221.5,-312 221.5,-300 221.5,-300 221.5,-294 227.5,-288 233.5,-288 233.5,-288 263.5,-288 263.5,-288 269.5,-288 275.5,-294 275.5,-300 275.5,-300 275.5,-312 275.5,-312 275.5,-318 269.5,-324 263.5,-324"/>
<text text-anchor="middle" x="248.5" y="-302.3" font-family="Times,serif" font-size="14.00">Assign</text>
</g>
<!-- ast.For object at 0x74b43bad5450&#45;&gt;ast.Assign object at 0x74b43bad7650 -->
<g id="edge19" class="edge">
<title>ast.For object at 0x74b43bad5450&#45;&gt;ast.Assign object at 0x74b43bad7650</title>
<path fill="none" stroke="black" d="M221.4,-359.7C225.5,-351.73 230.45,-342.1 234.99,-333.26"/>
<polygon fill="black" stroke="black" points="238.24,-334.6 239.7,-324.1 232.02,-331.4 238.24,-334.6"/>
</g>
<!-- ast.Name object at 0x74b43bad4c10&#45;&gt;ast.Store object at 0x74b53ba56c10 -->
<g id="edge13" class="edge">
<title>ast.Name object at 0x74b43bad4c10&#45;&gt;ast.Store object at 0x74b53ba56c10</title>
<path fill="none" stroke="black" d="M174.45,-287.87C171.55,-263.67 166.23,-219.21 162.78,-190.39"/>
<polygon fill="black" stroke="black" points="166.22,-189.7 161.56,-180.19 159.27,-190.53 166.22,-189.7"/>
</g>
<!-- ast.Name object at 0x74b43bad6ed0 -->
<g id="node15" class="node">
<title>ast.Name object at 0x74b43bad6ed0</title>
<path fill="#66cdaa" stroke="black" d="M474.5,-108C474.5,-108 444.5,-108 444.5,-108 438.5,-108 432.5,-102 432.5,-96 432.5,-96 432.5,-84 432.5,-84 432.5,-78 438.5,-72 444.5,-72 444.5,-72 474.5,-72 474.5,-72 480.5,-72 486.5,-78 486.5,-84 486.5,-84 486.5,-96 486.5,-96 486.5,-102 480.5,-108 474.5,-108"/>
<text text-anchor="middle" x="459.5" y="-86.3" font-family="Times,serif" font-size="14.00">Name</text>
</g>
<!-- ast.Call object at 0x74b43bad4710&#45;&gt;ast.Name object at 0x74b43bad6ed0 -->
<g id="edge15" class="edge">
<title>ast.Call object at 0x74b43bad4710&#45;&gt;ast.Name object at 0x74b43bad6ed0</title>
<path fill="none" stroke="black" d="M432.87,-295.67C452.23,-287.47 476.75,-273.44 488.5,-252 512.1,-208.93 490.58,-150.58 474.13,-117.25"/>
<polygon fill="black" stroke="black" points="477.14,-115.45 469.46,-108.15 470.92,-118.64 477.14,-115.45"/>
</g>
<!-- ast.Constant object at 0x74b43bad6290 -->
<g id="node16" class="node">
<title>ast.Constant object at 0x74b43bad6290</title>
<path fill="#66cdaa" stroke="black" d="M385,-252C385,-252 344,-252 344,-252 338,-252 332,-246 332,-240 332,-240 332,-228 332,-228 332,-222 338,-216 344,-216 344,-216 385,-216 385,-216 391,-216 397,-222 397,-228 397,-228 397,-240 397,-240 397,-246 391,-252 385,-252"/>
<text text-anchor="middle" x="364.5" y="-230.3" font-family="Times,serif" font-size="14.00">Constant</text>
</g>
<!-- ast.Call object at 0x74b43bad4710&#45;&gt;ast.Constant object at 0x74b43bad6290 -->
<g id="edge17" class="edge">
<title>ast.Call object at 0x74b43bad4710&#45;&gt;ast.Constant object at 0x74b43bad6290</title>
<path fill="none" stroke="black" d="M395.37,-287.7C390.65,-279.64 384.94,-269.89 379.72,-260.98"/>
<polygon fill="black" stroke="black" points="382.59,-258.96 374.52,-252.1 376.55,-262.5 382.59,-258.96"/>
</g>
<!-- ast.Constant object at 0x74b43bad51d0 -->
<g id="node17" class="node">
<title>ast.Constant object at 0x74b43bad51d0</title>
<path fill="#66cdaa" stroke="black" d="M468,-252C468,-252 427,-252 427,-252 421,-252 415,-246 415,-240 415,-240 415,-228 415,-228 415,-222 421,-216 427,-216 427,-216 468,-216 468,-216 474,-216 480,-222 480,-228 480,-228 480,-240 480,-240 480,-246 474,-252 468,-252"/>
<text text-anchor="middle" x="447.5" y="-230.3" font-family="Times,serif" font-size="14.00">Constant</text>
</g>
<!-- ast.Call object at 0x74b43bad4710&#45;&gt;ast.Constant object at 0x74b43bad51d0 -->
<g id="edge18" class="edge">
<title>ast.Call object at 0x74b43bad4710&#45;&gt;ast.Constant object at 0x74b43bad51d0</title>
<path fill="none" stroke="black" d="M415.88,-287.7C420.76,-279.56 426.69,-269.69 432.08,-260.7"/>
<polygon fill="black" stroke="black" points="435.09,-262.48 437.24,-252.1 429.09,-258.88 435.09,-262.48"/>
</g>
<!-- ast.Name object at 0x74b43bad6ed0&#45;&gt;ast.Load object at 0x74b53ba56b90 -->
<g id="edge16" class="edge">
<title>ast.Name object at 0x74b43bad6ed0&#45;&gt;ast.Load object at 0x74b53ba56b90</title>
<path fill="none" stroke="black" d="M432.42,-73.46C415.05,-63.5 392.29,-50.44 373.41,-39.61"/>
<polygon fill="black" stroke="black" points="374.92,-36.43 364.5,-34.49 371.43,-42.5 374.92,-36.43"/>
</g>
<!-- ast.Name object at 0x74b43bad42d0 -->
<g id="node19" class="node">
<title>ast.Name object at 0x74b43bad42d0</title>
<path fill="#66cdaa" stroke="black" d="M229.5,-252C229.5,-252 199.5,-252 199.5,-252 193.5,-252 187.5,-246 187.5,-240 187.5,-240 187.5,-228 187.5,-228 187.5,-222 193.5,-216 199.5,-216 199.5,-216 229.5,-216 229.5,-216 235.5,-216 241.5,-222 241.5,-228 241.5,-228 241.5,-240 241.5,-240 241.5,-246 235.5,-252 229.5,-252"/>
<text text-anchor="middle" x="214.5" y="-230.3" font-family="Times,serif" font-size="14.00">Name</text>
</g>
<!-- ast.Assign object at 0x74b43bad7650&#45;&gt;ast.Name object at 0x74b43bad42d0 -->
<g id="edge20" class="edge">
<title>ast.Assign object at 0x74b43bad7650&#45;&gt;ast.Name object at 0x74b43bad42d0</title>
<path fill="none" stroke="black" d="M240.1,-287.7C236.23,-279.73 231.55,-270.1 227.26,-261.26"/>
<polygon fill="black" stroke="black" points="230.33,-259.57 222.81,-252.1 224.03,-262.63 230.33,-259.57"/>
</g>
<!-- ast.Call object at 0x74b43bad50d0 -->
<g id="node20" class="node">
<title>ast.Call object at 0x74b43bad50d0</title>
<path fill="#66cdaa" stroke="black" d="M301.5,-252C301.5,-252 271.5,-252 271.5,-252 265.5,-252 259.5,-246 259.5,-240 259.5,-240 259.5,-228 259.5,-228 259.5,-222 265.5,-216 271.5,-216 271.5,-216 301.5,-216 301.5,-216 307.5,-216 313.5,-222 313.5,-228 313.5,-228 313.5,-240 313.5,-240 313.5,-246 307.5,-252 301.5,-252"/>
<text text-anchor="middle" x="286.5" y="-230.3" font-family="Times,serif" font-size="14.00">Call</text>
</g>
<!-- ast.Assign object at 0x74b43bad7650&#45;&gt;ast.Call object at 0x74b43bad50d0 -->
<g id="edge22" class="edge">
<title>ast.Assign object at 0x74b43bad7650&#45;&gt;ast.Call object at 0x74b43bad50d0</title>
<path fill="none" stroke="black" d="M257.89,-287.7C262.26,-279.64 267.56,-269.89 272.4,-260.98"/>
<polygon fill="black" stroke="black" points="275.52,-262.56 277.21,-252.1 269.37,-259.22 275.52,-262.56"/>
</g>
<!-- ast.Name object at 0x74b43bad42d0&#45;&gt;ast.Store object at 0x74b53ba56c10 -->
<g id="edge21" class="edge">
<title>ast.Name object at 0x74b43bad42d0&#45;&gt;ast.Store object at 0x74b53ba56c10</title>
<path fill="none" stroke="black" d="M200.9,-215.7C194.38,-207.39 186.43,-197.28 179.25,-188.14"/>
<polygon fill="black" stroke="black" points="181.87,-185.81 172.94,-180.1 176.37,-190.13 181.87,-185.81"/>
</g>
<!-- ast.Name object at 0x74b43bad5a90 -->
<g id="node21" class="node">
<title>ast.Name object at 0x74b43bad5a90</title>
<path fill="#66cdaa" stroke="black" d="M343.5,-180C343.5,-180 313.5,-180 313.5,-180 307.5,-180 301.5,-174 301.5,-168 301.5,-168 301.5,-156 301.5,-156 301.5,-150 307.5,-144 313.5,-144 313.5,-144 343.5,-144 343.5,-144 349.5,-144 355.5,-150 355.5,-156 355.5,-156 355.5,-168 355.5,-168 355.5,-174 349.5,-180 343.5,-180"/>
<text text-anchor="middle" x="328.5" y="-158.3" font-family="Times,serif" font-size="14.00">Name</text>
</g>
<!-- ast.Call object at 0x74b43bad50d0&#45;&gt;ast.Name object at 0x74b43bad5a90 -->
<g id="edge23" class="edge">
<title>ast.Call object at 0x74b43bad50d0&#45;&gt;ast.Name object at 0x74b43bad5a90</title>
<path fill="none" stroke="black" d="M296.88,-215.7C301.76,-207.56 307.69,-197.69 313.08,-188.7"/>
<polygon fill="black" stroke="black" points="316.09,-190.48 318.24,-180.1 310.09,-186.88 316.09,-190.48"/>
</g>
<!-- ast.Name object at 0x74b43bad6950 -->
<g id="node22" class="node">
<title>ast.Name object at 0x74b43bad6950</title>
<path fill="#66cdaa" stroke="black" d="M417.5,-180C417.5,-180 387.5,-180 387.5,-180 381.5,-180 375.5,-174 375.5,-168 375.5,-168 375.5,-156 375.5,-156 375.5,-150 381.5,-144 387.5,-144 387.5,-144 417.5,-144 417.5,-144 423.5,-144 429.5,-150 429.5,-156 429.5,-156 429.5,-168 429.5,-168 429.5,-174 423.5,-180 417.5,-180"/>
<text text-anchor="middle" x="402.5" y="-158.3" font-family="Times,serif" font-size="14.00">Name</text>
</g>
<!-- ast.Call object at 0x74b43bad50d0&#45;&gt;ast.Name object at 0x74b43bad6950 -->
<g id="edge25" class="edge">
<title>ast.Call object at 0x74b43bad50d0&#45;&gt;ast.Name object at 0x74b43bad6950</title>
<path fill="none" stroke="black" d="M313.7,-216.59C329.55,-207.02 349.73,-194.85 366.84,-184.52"/>
<polygon fill="black" stroke="black" points="368.72,-187.47 375.47,-179.31 365.1,-181.48 368.72,-187.47"/>
</g>
<!-- ast.Subscript object at 0x74b43bad7f90 -->
<g id="node23" class="node">
<title>ast.Subscript object at 0x74b43bad7f90</title>
<path fill="#66cdaa" stroke="black" d="M267.5,-180C267.5,-180 223.5,-180 223.5,-180 217.5,-180 211.5,-174 211.5,-168 211.5,-168 211.5,-156 211.5,-156 211.5,-150 217.5,-144 223.5,-144 223.5,-144 267.5,-144 267.5,-144 273.5,-144 279.5,-150 279.5,-156 279.5,-156 279.5,-168 279.5,-168 279.5,-174 273.5,-180 267.5,-180"/>
<text text-anchor="middle" x="245.5" y="-158.3" font-family="Times,serif" font-size="14.00">Subscript</text>
</g>
<!-- ast.Call object at 0x74b43bad50d0&#45;&gt;ast.Subscript object at 0x74b43bad7f90 -->
<g id="edge27" class="edge">
<title>ast.Call object at 0x74b43bad50d0&#45;&gt;ast.Subscript object at 0x74b43bad7f90</title>
<path fill="none" stroke="black" d="M276.37,-215.7C271.65,-207.64 265.94,-197.89 260.72,-188.98"/>
<polygon fill="black" stroke="black" points="263.59,-186.96 255.52,-180.1 257.55,-190.5 263.59,-186.96"/>
</g>
<!-- ast.Name object at 0x74b43bad5a90&#45;&gt;ast.Load object at 0x74b53ba56b90 -->
<g id="edge24" class="edge">
<title>ast.Name object at 0x74b43bad5a90&#45;&gt;ast.Load object at 0x74b53ba56b90</title>
<path fill="none" stroke="black" d="M335.98,-143.7C339.97,-133.52 344.47,-120.27 346.5,-108 349.9,-87.44 347.26,-63.99 343.98,-46.32"/>
<polygon fill="black" stroke="black" points="347.34,-45.25 341.91,-36.15 340.48,-46.64 347.34,-45.25"/>
</g>
<!-- ast.Name object at 0x74b43bad6950&#45;&gt;ast.Load object at 0x74b53ba56b90 -->
<g id="edge26" class="edge">
<title>ast.Name object at 0x74b43bad6950&#45;&gt;ast.Load object at 0x74b53ba56b90</title>
<path fill="none" stroke="black" d="M394.66,-143.87C383.48,-119.46 362.87,-74.43 349.69,-45.64"/>
<polygon fill="black" stroke="black" points="352.71,-43.83 345.37,-36.19 346.35,-46.74 352.71,-43.83"/>
</g>
<!-- ast.Subscript object at 0x74b43bad7f90&#45;&gt;ast.Load object at 0x74b53ba56b90 -->
<g id="edge32" class="edge">
<title>ast.Subscript object at 0x74b43bad7f90&#45;&gt;ast.Load object at 0x74b53ba56b90</title>
<path fill="none" stroke="black" d="M226.69,-143.79C208.75,-125.24 186.65,-95.25 202.5,-72 224.23,-40.13 268.29,-27.42 300.18,-22.36"/>
<polygon fill="black" stroke="black" points="301.06,-25.77 310.47,-20.92 300.09,-18.84 301.06,-25.77"/>
</g>
<!-- ast.Name object at 0x74b43bad7b10 -->
<g id="node24" class="node">
<title>ast.Name object at 0x74b43bad7b10</title>
<path fill="#66cdaa" stroke="black" d="M253.5,-108C253.5,-108 223.5,-108 223.5,-108 217.5,-108 211.5,-102 211.5,-96 211.5,-96 211.5,-84 211.5,-84 211.5,-78 217.5,-72 223.5,-72 223.5,-72 253.5,-72 253.5,-72 259.5,-72 265.5,-78 265.5,-84 265.5,-84 265.5,-96 265.5,-96 265.5,-102 259.5,-108 253.5,-108"/>
<text text-anchor="middle" x="238.5" y="-86.3" font-family="Times,serif" font-size="14.00">Name</text>
</g>
<!-- ast.Subscript object at 0x74b43bad7f90&#45;&gt;ast.Name object at 0x74b43bad7b10 -->
<g id="edge28" class="edge">
<title>ast.Subscript object at 0x74b43bad7f90&#45;&gt;ast.Name object at 0x74b43bad7b10</title>
<path fill="none" stroke="black" d="M243.77,-143.7C243,-135.98 242.07,-126.71 241.21,-118.11"/>
<polygon fill="black" stroke="black" points="244.69,-117.71 240.21,-108.1 237.72,-118.4 244.69,-117.71"/>
</g>
<!-- ast.Name object at 0x74b43bad4290 -->
<g id="node25" class="node">
<title>ast.Name object at 0x74b43bad4290</title>
<path fill="#66cdaa" stroke="black" d="M325.5,-108C325.5,-108 295.5,-108 295.5,-108 289.5,-108 283.5,-102 283.5,-96 283.5,-96 283.5,-84 283.5,-84 283.5,-78 289.5,-72 295.5,-72 295.5,-72 325.5,-72 325.5,-72 331.5,-72 337.5,-78 337.5,-84 337.5,-84 337.5,-96 337.5,-96 337.5,-102 331.5,-108 325.5,-108"/>
<text text-anchor="middle" x="310.5" y="-86.3" font-family="Times,serif" font-size="14.00">Name</text>
</g>
<!-- ast.Subscript object at 0x74b43bad7f90&#45;&gt;ast.Name object at 0x74b43bad4290 -->
<g id="edge30" class="edge">
<title>ast.Subscript object at 0x74b43bad7f90&#45;&gt;ast.Name object at 0x74b43bad4290</title>
<path fill="none" stroke="black" d="M261.57,-143.7C269.44,-135.22 279.06,-124.86 287.67,-115.58"/>
<polygon fill="black" stroke="black" points="290.38,-117.81 294.62,-108.1 285.25,-113.05 290.38,-117.81"/>
</g>
<!-- ast.Name object at 0x74b43bad7b10&#45;&gt;ast.Load object at 0x74b53ba56b90 -->
<g id="edge29" class="edge">
<title>ast.Name object at 0x74b43bad7b10&#45;&gt;ast.Load object at 0x74b53ba56b90</title>
<path fill="none" stroke="black" d="M262.72,-71.88C275.42,-62.89 291.16,-51.76 304.92,-42.03"/>
<polygon fill="black" stroke="black" points="307.04,-44.82 313.19,-36.19 303,-39.11 307.04,-44.82"/>
</g>
<!-- ast.Name object at 0x74b43bad4290&#45;&gt;ast.Load object at 0x74b53ba56b90 -->
<g id="edge31" class="edge">
<title>ast.Name object at 0x74b43bad4290&#45;&gt;ast.Load object at 0x74b53ba56b90</title>
<path fill="none" stroke="black" d="M317.17,-71.7C320.21,-63.81 323.88,-54.3 327.26,-45.55"/>
<polygon fill="black" stroke="black" points="330.57,-46.69 330.9,-36.1 324.04,-44.17 330.57,-46.69"/>
</g>
<!-- ast.Name object at 0x74b43bad72d0 -->
<g id="node27" class="node">
<title>ast.Name object at 0x74b43bad72d0</title>
<path fill="#66cdaa" stroke="black" d="M561.5,-108C561.5,-108 531.5,-108 531.5,-108 525.5,-108 519.5,-102 519.5,-96 519.5,-96 519.5,-84 519.5,-84 519.5,-78 525.5,-72 531.5,-72 531.5,-72 561.5,-72 561.5,-72 567.5,-72 573.5,-78 573.5,-84 573.5,-84 573.5,-96 573.5,-96 573.5,-102 567.5,-108 561.5,-108"/>
<text text-anchor="middle" x="546.5" y="-86.3" font-family="Times,serif" font-size="14.00">Name</text>
</g>
<!-- ast.Return object at 0x74b43bad58d0&#45;&gt;ast.Name object at 0x74b43bad72d0 -->
<g id="edge34" class="edge">
<title>ast.Return object at 0x74b43bad58d0&#45;&gt;ast.Name object at 0x74b43bad72d0</title>
<path fill="none" stroke="black" d="M446.26,-359.7C462.9,-336.38 491.82,-293.03 508.5,-252 526.77,-207.06 537.47,-151.34 542.64,-118.62"/>
<polygon fill="black" stroke="black" points="546.14,-118.87 544.18,-108.46 539.22,-117.82 546.14,-118.87"/>
</g>
<!-- ast.Name object at 0x74b43bad72d0&#45;&gt;ast.Load object at 0x74b53ba56b90 -->
<g id="edge35" class="edge">
<title>ast.Name object at 0x74b43bad72d0&#45;&gt;ast.Load object at 0x74b53ba56b90</title>
<path fill="none" stroke="black" d="M519.18,-79.85C482.17,-67.46 416,-45.29 374.55,-31.41"/>
<polygon fill="black" stroke="black" points="375.42,-28.01 364.83,-28.15 373.2,-34.65 375.42,-28.01"/>
</g>
</g>
</svg>
