<?xml version="1.0" encoding="UTF-8" standalone="no"?>
<!DOCTYPE svg PUBLIC "-//W3C//DTD SVG 1.1//EN"
 "http://www.w3.org/Graphics/SVG/1.1/DTD/svg11.dtd">
<!-- Generated by graphviz version 2.50.0 (0)
 -->
<!-- Pages: 1 -->
<svg width="1745pt" height="548pt"
 viewBox="0.00 0.00 1745.00 548.00" xmlns="http://www.w3.org/2000/svg" xmlns:xlink="http://www.w3.org/1999/xlink">
<g id="graph0" class="graph" transform="scale(1 1) rotate(0) translate(4 544)">
<polygon fill="white" stroke="transparent" points="-4,4 -4,-544 1741,-544 1741,4 -4,4"/>
<!-- ast.Module object at 0x789100346f90 -->
<g id="node1" class="node">
<title>ast.Module object at 0x789100346f90</title>
<path fill="#66cdaa" stroke="black" d="M896,-540C896,-540 861,-540 861,-540 855,-540 849,-534 849,-528 849,-528 849,-516 849,-516 849,-510 855,-504 861,-504 861,-504 896,-504 896,-504 902,-504 908,-510 908,-516 908,-516 908,-528 908,-528 908,-534 902,-540 896,-540"/>
<text text-anchor="middle" x="878.5" y="-518.3" font-family="Times,serif" font-size="14.00">Module</text>
</g>
<!-- ast.FunctionDef object at 0x789100346f50 -->
<g id="node2" class="node">
<title>ast.FunctionDef object at 0x789100346f50</title>
<path fill="#66cdaa" stroke="black" d="M561,-396C561,-396 500,-396 500,-396 494,-396 488,-390 488,-384 488,-384 488,-372 488,-372 488,-366 494,-360 500,-360 500,-360 561,-360 561,-360 567,-360 573,-366 573,-372 573,-372 573,-384 573,-384 573,-390 567,-396 561,-396"/>
<text text-anchor="middle" x="530.5" y="-374.3" font-family="Times,serif" font-size="14.00">FunctionDef</text>
</g>
<!-- ast.Module object at 0x789100346f90&#45;&gt;ast.FunctionDef object at 0x789100346f50 -->
<g id="edge1" class="edge">
<title>ast.Module object at 0x789100346f90&#45;&gt;ast.FunctionDef object at 0x789100346f50</title>
<path fill="none" stroke="black" d="M848.83,-508.89C789.53,-484.69 655.73,-430.1 581.87,-399.96"/>
<polygon fill="black" stroke="black" points="582.88,-396.59 572.3,-396.06 580.24,-403.07 582.88,-396.59"/>
</g>
<!-- ast.FunctionDef object at 0x789100347a10 -->
<g id="node30" class="node">
<title>ast.FunctionDef object at 0x789100347a10</title>
<path fill="#66cdaa" stroke="black" d="M1210,-468C1210,-468 1149,-468 1149,-468 1143,-468 1137,-462 1137,-456 1137,-456 1137,-444 1137,-444 1137,-438 1143,-432 1149,-432 1149,-432 1210,-432 1210,-432 1216,-432 1222,-438 1222,-444 1222,-444 1222,-456 1222,-456 1222,-462 1216,-468 1210,-468"/>
<text text-anchor="middle" x="1179.5" y="-446.3" font-family="Times,serif" font-size="14.00">FunctionDef</text>
</g>
<!-- ast.Module object at 0x789100346f90&#45;&gt;ast.FunctionDef object at 0x789100347a10 -->
<g id="edge34" class="edge">
<title>ast.Module object at 0x789100346f90&#45;&gt;ast.FunctionDef object at 0x789100347a10</title>
<path fill="none" stroke="black" d="M908.18,-514.1C959.08,-502.26 1063.62,-477.95 1127.04,-463.2"/>
<polygon fill="black" stroke="black" points="1127.9,-466.59 1136.85,-460.92 1126.32,-459.77 1127.9,-466.59"/>
</g>
<!-- ast.arguments object at 0x789100346fd0 -->
<g id="node3" class="node">
<title>ast.arguments object at 0x789100346fd0</title>
<path fill="#66cdaa" stroke="black" d="M487.5,-324C487.5,-324 437.5,-324 437.5,-324 431.5,-324 425.5,-318 425.5,-312 425.5,-312 425.5,-300 425.5,-300 425.5,-294 431.5,-288 437.5,-288 437.5,-288 487.5,-288 487.5,-288 493.5,-288 499.5,-294 499.5,-300 499.5,-300 499.5,-312 499.5,-312 499.5,-318 493.5,-324 487.5,-324"/>
<text text-anchor="middle" x="462.5" y="-302.3" font-family="Times,serif" font-size="14.00">arguments</text>
</g>
<!-- ast.FunctionDef object at 0x789100346f50&#45;&gt;ast.arguments object at 0x789100346fd0 -->
<g id="edge2" class="edge">
<title>ast.FunctionDef object at 0x789100346f50&#45;&gt;ast.arguments object at 0x789100346fd0</title>
<path fill="none" stroke="black" d="M513.69,-359.7C505.37,-351.14 495.19,-340.66 486.11,-331.3"/>
<polygon fill="black" stroke="black" points="488.59,-328.84 479.12,-324.1 483.57,-333.72 488.59,-328.84"/>
</g>
<!-- ast.Assign object at 0x789100347090 -->
<g id="node5" class="node">
<title>ast.Assign object at 0x789100347090</title>
<path fill="#66cdaa" stroke="black" d="M617.5,-252C617.5,-252 587.5,-252 587.5,-252 581.5,-252 575.5,-246 575.5,-240 575.5,-240 575.5,-228 575.5,-228 575.5,-222 581.5,-216 587.5,-216 587.5,-216 617.5,-216 617.5,-216 623.5,-216 629.5,-222 629.5,-228 629.5,-228 629.5,-240 629.5,-240 629.5,-246 623.5,-252 617.5,-252"/>
<text text-anchor="middle" x="602.5" y="-230.3" font-family="Times,serif" font-size="14.00">Assign</text>
</g>
<!-- ast.FunctionDef object at 0x789100346f50&#45;&gt;ast.Assign object at 0x789100347090 -->
<g id="edge4" class="edge">
<title>ast.FunctionDef object at 0x789100346f50&#45;&gt;ast.Assign object at 0x789100347090</title>
<path fill="none" stroke="black" d="M539.18,-359.87C551.62,-335.35 574.6,-290.03 589.19,-261.26"/>
<polygon fill="black" stroke="black" points="592.38,-262.69 593.78,-252.19 586.14,-259.53 592.38,-262.69"/>
</g>
<!-- ast.Assign object at 0x7891003474d0 -->
<g id="node13" class="node">
<title>ast.Assign object at 0x7891003474d0</title>
<path fill="#66cdaa" stroke="black" d="M545.5,-252C545.5,-252 515.5,-252 515.5,-252 509.5,-252 503.5,-246 503.5,-240 503.5,-240 503.5,-228 503.5,-228 503.5,-222 509.5,-216 515.5,-216 515.5,-216 545.5,-216 545.5,-216 551.5,-216 557.5,-222 557.5,-228 557.5,-228 557.5,-240 557.5,-240 557.5,-246 551.5,-252 545.5,-252"/>
<text text-anchor="middle" x="530.5" y="-230.3" font-family="Times,serif" font-size="14.00">Assign</text>
</g>
<!-- ast.FunctionDef object at 0x789100346f50&#45;&gt;ast.Assign object at 0x7891003474d0 -->
<g id="edge13" class="edge">
<title>ast.FunctionDef object at 0x789100346f50&#45;&gt;ast.Assign object at 0x7891003474d0</title>
<path fill="none" stroke="black" d="M530.5,-359.87C530.5,-335.67 530.5,-291.21 530.5,-262.39"/>
<polygon fill="black" stroke="black" points="534,-262.19 530.5,-252.19 527,-262.19 534,-262.19"/>
</g>
<!-- ast.If object at 0x789100347f10 -->
<g id="node18" class="node">
<title>ast.If object at 0x789100347f10</title>
<path fill="#66cdaa" stroke="black" d="M316.5,-324C316.5,-324 286.5,-324 286.5,-324 280.5,-324 274.5,-318 274.5,-312 274.5,-312 274.5,-300 274.5,-300 274.5,-294 280.5,-288 286.5,-288 286.5,-288 316.5,-288 316.5,-288 322.5,-288 328.5,-294 328.5,-300 328.5,-300 328.5,-312 328.5,-312 328.5,-318 322.5,-324 316.5,-324"/>
<text text-anchor="middle" x="301.5" y="-302.3" font-family="Times,serif" font-size="14.00">If</text>
</g>
<!-- ast.FunctionDef object at 0x789100346f50&#45;&gt;ast.If object at 0x789100347f10 -->
<g id="edge20" class="edge">
<title>ast.FunctionDef object at 0x789100346f50&#45;&gt;ast.If object at 0x789100347f10</title>
<path fill="none" stroke="black" d="M487.96,-364C444.95,-350.85 379.14,-330.73 338.3,-318.25"/>
<polygon fill="black" stroke="black" points="339.32,-314.9 328.73,-315.32 337.27,-321.59 339.32,-314.9"/>
</g>
<!-- ast.arg object at 0x789100347010 -->
<g id="node4" class="node">
<title>ast.arg object at 0x789100347010</title>
<path fill="#66cdaa" stroke="black" d="M473.5,-252C473.5,-252 443.5,-252 443.5,-252 437.5,-252 431.5,-246 431.5,-240 431.5,-240 431.5,-228 431.5,-228 431.5,-222 437.5,-216 443.5,-216 443.5,-216 473.5,-216 473.5,-216 479.5,-216 485.5,-222 485.5,-228 485.5,-228 485.5,-240 485.5,-240 485.5,-246 479.5,-252 473.5,-252"/>
<text text-anchor="middle" x="458.5" y="-230.3" font-family="Times,serif" font-size="14.00">arg</text>
</g>
<!-- ast.arguments object at 0x789100346fd0&#45;&gt;ast.arg object at 0x789100347010 -->
<g id="edge3" class="edge">
<title>ast.arguments object at 0x789100346fd0&#45;&gt;ast.arg object at 0x789100347010</title>
<path fill="none" stroke="black" d="M461.51,-287.7C461.07,-279.98 460.54,-270.71 460.05,-262.11"/>
<polygon fill="black" stroke="black" points="463.54,-261.89 459.48,-252.1 456.55,-262.29 463.54,-261.89"/>
</g>
<!-- ast.Name object at 0x789100347210 -->
<g id="node6" class="node">
<title>ast.Name object at 0x789100347210</title>
<path fill="#66cdaa" stroke="black" d="M1000.5,-180C1000.5,-180 970.5,-180 970.5,-180 964.5,-180 958.5,-174 958.5,-168 958.5,-168 958.5,-156 958.5,-156 958.5,-150 964.5,-144 970.5,-144 970.5,-144 1000.5,-144 1000.5,-144 1006.5,-144 1012.5,-150 1012.5,-156 1012.5,-156 1012.5,-168 1012.5,-168 1012.5,-174 1006.5,-180 1000.5,-180"/>
<text text-anchor="middle" x="985.5" y="-158.3" font-family="Times,serif" font-size="14.00">Name</text>
</g>
<!-- ast.Assign object at 0x789100347090&#45;&gt;ast.Name object at 0x789100347210 -->
<g id="edge5" class="edge">
<title>ast.Assign object at 0x789100347090&#45;&gt;ast.Name object at 0x789100347210</title>
<path fill="none" stroke="black" d="M629.88,-228.83C683.9,-220.49 807.97,-200.75 911.5,-180 923.5,-177.6 936.52,-174.7 948.25,-171.99"/>
<polygon fill="black" stroke="black" points="949.23,-175.35 958.17,-169.66 947.63,-168.54 949.23,-175.35"/>
</g>
<!-- ast.Call object at 0x789100347490 -->
<g id="node8" class="node">
<title>ast.Call object at 0x789100347490</title>
<path fill="#66cdaa" stroke="black" d="M599.5,-180C599.5,-180 569.5,-180 569.5,-180 563.5,-180 557.5,-174 557.5,-168 557.5,-168 557.5,-156 557.5,-156 557.5,-150 563.5,-144 569.5,-144 569.5,-144 599.5,-144 599.5,-144 605.5,-144 611.5,-150 611.5,-156 611.5,-156 611.5,-168 611.5,-168 611.5,-174 605.5,-180 599.5,-180"/>
<text text-anchor="middle" x="584.5" y="-158.3" font-family="Times,serif" font-size="14.00">Call</text>
</g>
<!-- ast.Assign object at 0x789100347090&#45;&gt;ast.Call object at 0x789100347490 -->
<g id="edge7" class="edge">
<title>ast.Assign object at 0x789100347090&#45;&gt;ast.Call object at 0x789100347490</title>
<path fill="none" stroke="black" d="M598.05,-215.7C596.05,-207.9 593.63,-198.51 591.4,-189.83"/>
<polygon fill="black" stroke="black" points="594.78,-188.92 588.9,-180.1 588,-190.66 594.78,-188.92"/>
</g>
<!-- ast.Store object at 0x7890ff1add90 -->
<g id="node7" class="node">
<title>ast.Store object at 0x7890ff1add90</title>
<path fill="#66cdaa" stroke="black" d="M1182.5,-108C1182.5,-108 1152.5,-108 1152.5,-108 1146.5,-108 1140.5,-102 1140.5,-96 1140.5,-96 1140.5,-84 1140.5,-84 1140.5,-78 1146.5,-72 1152.5,-72 1152.5,-72 1182.5,-72 1182.5,-72 1188.5,-72 1194.5,-78 1194.5,-84 1194.5,-84 1194.5,-96 1194.5,-96 1194.5,-102 1188.5,-108 1182.5,-108"/>
<text text-anchor="middle" x="1167.5" y="-86.3" font-family="Times,serif" font-size="14.00">Store</text>
</g>
<!-- ast.Name object at 0x789100347210&#45;&gt;ast.Store object at 0x7890ff1add90 -->
<g id="edge6" class="edge">
<title>ast.Name object at 0x789100347210&#45;&gt;ast.Store object at 0x7890ff1add90</title>
<path fill="none" stroke="black" d="M1012.51,-147.92C1015.52,-146.55 1018.57,-145.22 1021.5,-144 1058.18,-128.72 1101,-113.47 1130.74,-103.28"/>
<polygon fill="black" stroke="black" points="1131.96,-106.56 1140.3,-100.03 1129.71,-99.94 1131.96,-106.56"/>
</g>
<!-- ast.Name object at 0x7891003475d0 -->
<g id="node9" class="node">
<title>ast.Name object at 0x7891003475d0</title>
<path fill="#66cdaa" stroke="black" d="M653.5,-108C653.5,-108 623.5,-108 623.5,-108 617.5,-108 611.5,-102 611.5,-96 611.5,-96 611.5,-84 611.5,-84 611.5,-78 617.5,-72 623.5,-72 623.5,-72 653.5,-72 653.5,-72 659.5,-72 665.5,-78 665.5,-84 665.5,-84 665.5,-96 665.5,-96 665.5,-102 659.5,-108 653.5,-108"/>
<text text-anchor="middle" x="638.5" y="-86.3" font-family="Times,serif" font-size="14.00">Name</text>
</g>
<!-- ast.Call object at 0x789100347490&#45;&gt;ast.Name object at 0x7891003475d0 -->
<g id="edge8" class="edge">
<title>ast.Call object at 0x789100347490&#45;&gt;ast.Name object at 0x7891003475d0</title>
<path fill="none" stroke="black" d="M597.85,-143.7C604.26,-135.39 612.06,-125.28 619.11,-116.14"/>
<polygon fill="black" stroke="black" points="621.97,-118.16 625.31,-108.1 616.43,-113.88 621.97,-118.16"/>
</g>
<!-- ast.Name object at 0x789100347690 -->
<g id="node11" class="node">
<title>ast.Name object at 0x789100347690</title>
<path fill="#66cdaa" stroke="black" d="M581.5,-108C581.5,-108 551.5,-108 551.5,-108 545.5,-108 539.5,-102 539.5,-96 539.5,-96 539.5,-84 539.5,-84 539.5,-78 545.5,-72 551.5,-72 551.5,-72 581.5,-72 581.5,-72 587.5,-72 593.5,-78 593.5,-84 593.5,-84 593.5,-96 593.5,-96 593.5,-102 587.5,-108 581.5,-108"/>
<text text-anchor="middle" x="566.5" y="-86.3" font-family="Times,serif" font-size="14.00">Name</text>
</g>
<!-- ast.Call object at 0x789100347490&#45;&gt;ast.Name object at 0x789100347690 -->
<g id="edge10" class="edge">
<title>ast.Call object at 0x789100347490&#45;&gt;ast.Name object at 0x789100347690</title>
<path fill="none" stroke="black" d="M580.05,-143.7C578.05,-135.9 575.63,-126.51 573.4,-117.83"/>
<polygon fill="black" stroke="black" points="576.78,-116.92 570.9,-108.1 570,-118.66 576.78,-116.92"/>
</g>
<!-- ast.Constant object at 0x789100347610 -->
<g id="node12" class="node">
<title>ast.Constant object at 0x789100347610</title>
<path fill="#66cdaa" stroke="black" d="M509,-108C509,-108 468,-108 468,-108 462,-108 456,-102 456,-96 456,-96 456,-84 456,-84 456,-78 462,-72 468,-72 468,-72 509,-72 509,-72 515,-72 521,-78 521,-84 521,-84 521,-96 521,-96 521,-102 515,-108 509,-108"/>
<text text-anchor="middle" x="488.5" y="-86.3" font-family="Times,serif" font-size="14.00">Constant</text>
</g>
<!-- ast.Call object at 0x789100347490&#45;&gt;ast.Constant object at 0x789100347610 -->
<g id="edge12" class="edge">
<title>ast.Call object at 0x789100347490&#45;&gt;ast.Constant object at 0x789100347610</title>
<path fill="none" stroke="black" d="M560.77,-143.7C548.56,-134.8 533.51,-123.82 520.32,-114.2"/>
<polygon fill="black" stroke="black" points="522.1,-111.17 511.96,-108.1 517.98,-116.82 522.1,-111.17"/>
</g>
<!-- ast.Load object at 0x7890ff1add10 -->
<g id="node10" class="node">
<title>ast.Load object at 0x7890ff1add10</title>
<path fill="#66cdaa" stroke="black" d="M763.5,-36C763.5,-36 733.5,-36 733.5,-36 727.5,-36 721.5,-30 721.5,-24 721.5,-24 721.5,-12 721.5,-12 721.5,-6 727.5,0 733.5,0 733.5,0 763.5,0 763.5,0 769.5,0 775.5,-6 775.5,-12 775.5,-12 775.5,-24 775.5,-24 775.5,-30 769.5,-36 763.5,-36"/>
<text text-anchor="middle" x="748.5" y="-14.3" font-family="Times,serif" font-size="14.00">Load</text>
</g>
<!-- ast.Name object at 0x7891003475d0&#45;&gt;ast.Load object at 0x7890ff1add10 -->
<g id="edge9" class="edge">
<title>ast.Name object at 0x7891003475d0&#45;&gt;ast.Load object at 0x7890ff1add10</title>
<path fill="none" stroke="black" d="M665.41,-71.88C679.66,-62.81 697.35,-51.55 712.74,-41.76"/>
<polygon fill="black" stroke="black" points="714.93,-44.51 721.49,-36.19 711.17,-38.61 714.93,-44.51"/>
</g>
<!-- ast.Name object at 0x789100347690&#45;&gt;ast.Load object at 0x7890ff1add10 -->
<g id="edge11" class="edge">
<title>ast.Name object at 0x789100347690&#45;&gt;ast.Load object at 0x7890ff1add10</title>
<path fill="none" stroke="black" d="M593.51,-75.92C596.52,-74.55 599.57,-73.22 602.5,-72 639.18,-56.72 682,-41.47 711.74,-31.28"/>
<polygon fill="black" stroke="black" points="712.96,-34.56 721.3,-28.03 710.71,-27.94 712.96,-34.56"/>
</g>
<!-- ast.Name object at 0x789100347510 -->
<g id="node14" class="node">
<title>ast.Name object at 0x789100347510</title>
<path fill="#66cdaa" stroke="black" d="M890.5,-180C890.5,-180 860.5,-180 860.5,-180 854.5,-180 848.5,-174 848.5,-168 848.5,-168 848.5,-156 848.5,-156 848.5,-150 854.5,-144 860.5,-144 860.5,-144 890.5,-144 890.5,-144 896.5,-144 902.5,-150 902.5,-156 902.5,-156 902.5,-168 902.5,-168 902.5,-174 896.5,-180 890.5,-180"/>
<text text-anchor="middle" x="875.5" y="-158.3" font-family="Times,serif" font-size="14.00">Name</text>
</g>
<!-- ast.Assign object at 0x7891003474d0&#45;&gt;ast.Name object at 0x789100347510 -->
<g id="edge14" class="edge">
<title>ast.Assign object at 0x7891003474d0&#45;&gt;ast.Name object at 0x789100347510</title>
<path fill="none" stroke="black" d="M557.67,-219.1C560.6,-217.92 563.58,-216.86 566.5,-216 680.81,-182.37 720.02,-212.85 838.52,-179.73"/>
<polygon fill="black" stroke="black" points="839.69,-183.04 848.33,-176.9 837.75,-176.31 839.69,-183.04"/>
</g>
<!-- ast.Call object at 0x789100347590 -->
<g id="node15" class="node">
<title>ast.Call object at 0x789100347590</title>
<path fill="#66cdaa" stroke="black" d="M436.5,-180C436.5,-180 406.5,-180 406.5,-180 400.5,-180 394.5,-174 394.5,-168 394.5,-168 394.5,-156 394.5,-156 394.5,-150 400.5,-144 406.5,-144 406.5,-144 436.5,-144 436.5,-144 442.5,-144 448.5,-150 448.5,-156 448.5,-156 448.5,-168 448.5,-168 448.5,-174 442.5,-180 436.5,-180"/>
<text text-anchor="middle" x="421.5" y="-158.3" font-family="Times,serif" font-size="14.00">Call</text>
</g>
<!-- ast.Assign object at 0x7891003474d0&#45;&gt;ast.Call object at 0x789100347590 -->
<g id="edge16" class="edge">
<title>ast.Assign object at 0x7891003474d0&#45;&gt;ast.Call object at 0x789100347590</title>
<path fill="none" stroke="black" d="M503.84,-215.88C489.72,-206.81 472.19,-195.55 456.94,-185.76"/>
<polygon fill="black" stroke="black" points="458.57,-182.65 448.27,-180.19 454.79,-188.54 458.57,-182.65"/>
</g>
<!-- ast.Name object at 0x789100347510&#45;&gt;ast.Store object at 0x7890ff1add90 -->
<g id="edge15" class="edge">
<title>ast.Name object at 0x789100347510&#45;&gt;ast.Store object at 0x7890ff1add90</title>
<path fill="none" stroke="black" d="M902.71,-154.48C955.31,-141.87 1070.99,-114.14 1130.51,-99.87"/>
<polygon fill="black" stroke="black" points="1131.35,-103.27 1140.25,-97.53 1129.71,-96.46 1131.35,-103.27"/>
</g>
<!-- ast.Name object at 0x789100347710 -->
<g id="node16" class="node">
<title>ast.Name object at 0x789100347710</title>
<path fill="#66cdaa" stroke="black" d="M425.5,-108C425.5,-108 395.5,-108 395.5,-108 389.5,-108 383.5,-102 383.5,-96 383.5,-96 383.5,-84 383.5,-84 383.5,-78 389.5,-72 395.5,-72 395.5,-72 425.5,-72 425.5,-72 431.5,-72 437.5,-78 437.5,-84 437.5,-84 437.5,-96 437.5,-96 437.5,-102 431.5,-108 425.5,-108"/>
<text text-anchor="middle" x="410.5" y="-86.3" font-family="Times,serif" font-size="14.00">Name</text>
</g>
<!-- ast.Call object at 0x789100347590&#45;&gt;ast.Name object at 0x789100347710 -->
<g id="edge17" class="edge">
<title>ast.Call object at 0x789100347590&#45;&gt;ast.Name object at 0x789100347710</title>
<path fill="none" stroke="black" d="M418.78,-143.7C417.57,-135.98 416.11,-126.71 414.76,-118.11"/>
<polygon fill="black" stroke="black" points="418.2,-117.44 413.19,-108.1 411.28,-118.53 418.2,-117.44"/>
</g>
<!-- ast.Constant object at 0x789100347950 -->
<g id="node17" class="node">
<title>ast.Constant object at 0x789100347950</title>
<path fill="#66cdaa" stroke="black" d="M353,-108C353,-108 312,-108 312,-108 306,-108 300,-102 300,-96 300,-96 300,-84 300,-84 300,-78 306,-72 312,-72 312,-72 353,-72 353,-72 359,-72 365,-78 365,-84 365,-84 365,-96 365,-96 365,-102 359,-108 353,-108"/>
<text text-anchor="middle" x="332.5" y="-86.3" font-family="Times,serif" font-size="14.00">Constant</text>
</g>
<!-- ast.Call object at 0x789100347590&#45;&gt;ast.Constant object at 0x789100347950 -->
<g id="edge19" class="edge">
<title>ast.Call object at 0x789100347590&#45;&gt;ast.Constant object at 0x789100347950</title>
<path fill="none" stroke="black" d="M399.5,-143.7C388.29,-134.88 374.5,-124.03 362.35,-114.47"/>
<polygon fill="black" stroke="black" points="364.27,-111.54 354.25,-108.1 359.94,-117.04 364.27,-111.54"/>
</g>
<!-- ast.Name object at 0x789100347710&#45;&gt;ast.Load object at 0x7890ff1add10 -->
<g id="edge18" class="edge">
<title>ast.Name object at 0x789100347710&#45;&gt;ast.Load object at 0x7890ff1add10</title>
<path fill="none" stroke="black" d="M437.71,-75.23C440.64,-74.03 443.6,-72.92 446.5,-72 539.16,-42.58 653.31,-28.16 711.14,-22.31"/>
<polygon fill="black" stroke="black" points="711.65,-25.78 721.26,-21.32 710.96,-18.81 711.65,-25.78"/>
</g>
<!-- ast.Compare object at 0x789100347f50 -->
<g id="node19" class="node">
<title>ast.Compare object at 0x789100347f50</title>
<path fill="#66cdaa" stroke="black" d="M168,-252C168,-252 125,-252 125,-252 119,-252 113,-246 113,-240 113,-240 113,-228 113,-228 113,-222 119,-216 125,-216 125,-216 168,-216 168,-216 174,-216 180,-222 180,-228 180,-228 180,-240 180,-240 180,-246 174,-252 168,-252"/>
<text text-anchor="middle" x="146.5" y="-230.3" font-family="Times,serif" font-size="14.00">Compare</text>
</g>
<!-- ast.If object at 0x789100347f10&#45;&gt;ast.Compare object at 0x789100347f50 -->
<g id="edge21" class="edge">
<title>ast.If object at 0x789100347f10&#45;&gt;ast.Compare object at 0x789100347f50</title>
<path fill="none" stroke="black" d="M274.15,-292.65C250.67,-282.04 216.43,-266.58 189.32,-254.34"/>
<polygon fill="black" stroke="black" points="190.61,-251.08 180.06,-250.16 187.73,-257.46 190.61,-251.08"/>
</g>
<!-- ast.Return object at 0x789100347bd0 -->
<g id="node26" class="node">
<title>ast.Return object at 0x789100347bd0</title>
<path fill="#66cdaa" stroke="black" d="M279.5,-252C279.5,-252 249.5,-252 249.5,-252 243.5,-252 237.5,-246 237.5,-240 237.5,-240 237.5,-228 237.5,-228 237.5,-222 243.5,-216 249.5,-216 249.5,-216 279.5,-216 279.5,-216 285.5,-216 291.5,-222 291.5,-228 291.5,-228 291.5,-240 291.5,-240 291.5,-246 285.5,-252 279.5,-252"/>
<text text-anchor="middle" x="264.5" y="-230.3" font-family="Times,serif" font-size="14.00">Return</text>
</g>
<!-- ast.If object at 0x789100347f10&#45;&gt;ast.Return object at 0x789100347bd0 -->
<g id="edge30" class="edge">
<title>ast.If object at 0x789100347f10&#45;&gt;ast.Return object at 0x789100347bd0</title>
<path fill="none" stroke="black" d="M292.35,-287.7C288.1,-279.64 282.94,-269.89 278.23,-260.98"/>
<polygon fill="black" stroke="black" points="281.31,-259.31 273.54,-252.1 275.12,-262.58 281.31,-259.31"/>
</g>
<!-- ast.Return object at 0x7891003479d0 -->
<g id="node28" class="node">
<title>ast.Return object at 0x7891003479d0</title>
<path fill="#66cdaa" stroke="black" d="M353.5,-252C353.5,-252 323.5,-252 323.5,-252 317.5,-252 311.5,-246 311.5,-240 311.5,-240 311.5,-228 311.5,-228 311.5,-222 317.5,-216 323.5,-216 323.5,-216 353.5,-216 353.5,-216 359.5,-216 365.5,-222 365.5,-228 365.5,-228 365.5,-240 365.5,-240 365.5,-246 359.5,-252 353.5,-252"/>
<text text-anchor="middle" x="338.5" y="-230.3" font-family="Times,serif" font-size="14.00">Return</text>
</g>
<!-- ast.If object at 0x789100347f10&#45;&gt;ast.Return object at 0x7891003479d0 -->
<g id="edge32" class="edge">
<title>ast.If object at 0x789100347f10&#45;&gt;ast.Return object at 0x7891003479d0</title>
<path fill="none" stroke="black" d="M310.65,-287.7C314.9,-279.64 320.06,-269.89 324.77,-260.98"/>
<polygon fill="black" stroke="black" points="327.88,-262.58 329.46,-252.1 321.69,-259.31 327.88,-262.58"/>
</g>
<!-- ast.BinOp object at 0x789100347b50 -->
<g id="node20" class="node">
<title>ast.BinOp object at 0x789100347b50</title>
<path fill="#66cdaa" stroke="black" d="M197.5,-180C197.5,-180 167.5,-180 167.5,-180 161.5,-180 155.5,-174 155.5,-168 155.5,-168 155.5,-156 155.5,-156 155.5,-150 161.5,-144 167.5,-144 167.5,-144 197.5,-144 197.5,-144 203.5,-144 209.5,-150 209.5,-156 209.5,-156 209.5,-168 209.5,-168 209.5,-174 203.5,-180 197.5,-180"/>
<text text-anchor="middle" x="182.5" y="-158.3" font-family="Times,serif" font-size="14.00">BinOp</text>
</g>
<!-- ast.Compare object at 0x789100347f50&#45;&gt;ast.BinOp object at 0x789100347b50 -->
<g id="edge22" class="edge">
<title>ast.Compare object at 0x789100347f50&#45;&gt;ast.BinOp object at 0x789100347b50</title>
<path fill="none" stroke="black" d="M155.4,-215.7C159.5,-207.73 164.45,-198.1 168.99,-189.26"/>
<polygon fill="black" stroke="black" points="172.24,-190.6 173.7,-180.1 166.02,-187.4 172.24,-190.6"/>
</g>
<!-- ast.Eq object at 0x7890ff1aed10 -->
<g id="node24" class="node">
<title>ast.Eq object at 0x7890ff1aed10</title>
<path fill="#66cdaa" stroke="black" d="M125.5,-180C125.5,-180 95.5,-180 95.5,-180 89.5,-180 83.5,-174 83.5,-168 83.5,-168 83.5,-156 83.5,-156 83.5,-150 89.5,-144 95.5,-144 95.5,-144 125.5,-144 125.5,-144 131.5,-144 137.5,-150 137.5,-156 137.5,-156 137.5,-168 137.5,-168 137.5,-174 131.5,-180 125.5,-180"/>
<text text-anchor="middle" x="110.5" y="-158.3" font-family="Times,serif" font-size="14.00">Eq</text>
</g>
<!-- ast.Compare object at 0x789100347f50&#45;&gt;ast.Eq object at 0x7890ff1aed10 -->
<g id="edge28" class="edge">
<title>ast.Compare object at 0x789100347f50&#45;&gt;ast.Eq object at 0x7890ff1aed10</title>
<path fill="none" stroke="black" d="M137.6,-215.7C133.5,-207.73 128.55,-198.1 124.01,-189.26"/>
<polygon fill="black" stroke="black" points="126.98,-187.4 119.3,-180.1 120.76,-190.6 126.98,-187.4"/>
</g>
<!-- ast.Constant object at 0x789100347ad0 -->
<g id="node25" class="node">
<title>ast.Constant object at 0x789100347ad0</title>
<path fill="#66cdaa" stroke="black" d="M53,-180C53,-180 12,-180 12,-180 6,-180 0,-174 0,-168 0,-168 0,-156 0,-156 0,-150 6,-144 12,-144 12,-144 53,-144 53,-144 59,-144 65,-150 65,-156 65,-156 65,-168 65,-168 65,-174 59,-180 53,-180"/>
<text text-anchor="middle" x="32.5" y="-158.3" font-family="Times,serif" font-size="14.00">Constant</text>
</g>
<!-- ast.Compare object at 0x789100347f50&#45;&gt;ast.Constant object at 0x789100347ad0 -->
<g id="edge29" class="edge">
<title>ast.Compare object at 0x789100347f50&#45;&gt;ast.Constant object at 0x789100347ad0</title>
<path fill="none" stroke="black" d="M118.61,-215.88C103.71,-206.72 85.17,-195.34 69.12,-185.48"/>
<polygon fill="black" stroke="black" points="70.85,-182.44 60.49,-180.19 67.19,-188.41 70.85,-182.44"/>
</g>
<!-- ast.Name object at 0x789100347b90 -->
<g id="node21" class="node">
<title>ast.Name object at 0x789100347b90</title>
<path fill="#66cdaa" stroke="black" d="M197.5,-108C197.5,-108 167.5,-108 167.5,-108 161.5,-108 155.5,-102 155.5,-96 155.5,-96 155.5,-84 155.5,-84 155.5,-78 161.5,-72 167.5,-72 167.5,-72 197.5,-72 197.5,-72 203.5,-72 209.5,-78 209.5,-84 209.5,-84 209.5,-96 209.5,-96 209.5,-102 203.5,-108 197.5,-108"/>
<text text-anchor="middle" x="182.5" y="-86.3" font-family="Times,serif" font-size="14.00">Name</text>
</g>
<!-- ast.BinOp object at 0x789100347b50&#45;&gt;ast.Name object at 0x789100347b90 -->
<g id="edge23" class="edge">
<title>ast.BinOp object at 0x789100347b50&#45;&gt;ast.Name object at 0x789100347b90</title>
<path fill="none" stroke="black" d="M182.5,-143.7C182.5,-135.98 182.5,-126.71 182.5,-118.11"/>
<polygon fill="black" stroke="black" points="186,-118.1 182.5,-108.1 179,-118.1 186,-118.1"/>
</g>
<!-- ast.Mod object at 0x7890ff1ae490 -->
<g id="node22" class="node">
<title>ast.Mod object at 0x7890ff1ae490</title>
<path fill="#66cdaa" stroke="black" d="M125.5,-108C125.5,-108 95.5,-108 95.5,-108 89.5,-108 83.5,-102 83.5,-96 83.5,-96 83.5,-84 83.5,-84 83.5,-78 89.5,-72 95.5,-72 95.5,-72 125.5,-72 125.5,-72 131.5,-72 137.5,-78 137.5,-84 137.5,-84 137.5,-96 137.5,-96 137.5,-102 131.5,-108 125.5,-108"/>
<text text-anchor="middle" x="110.5" y="-86.3" font-family="Times,serif" font-size="14.00">Mod</text>
</g>
<!-- ast.BinOp object at 0x789100347b50&#45;&gt;ast.Mod object at 0x7890ff1ae490 -->
<g id="edge25" class="edge">
<title>ast.BinOp object at 0x789100347b50&#45;&gt;ast.Mod object at 0x7890ff1ae490</title>
<path fill="none" stroke="black" d="M164.7,-143.7C155.9,-135.14 145.12,-124.66 135.5,-115.3"/>
<polygon fill="black" stroke="black" points="137.7,-112.57 128.09,-108.1 132.82,-117.58 137.7,-112.57"/>
</g>
<!-- ast.Name object at 0x789100347b10 -->
<g id="node23" class="node">
<title>ast.Name object at 0x789100347b10</title>
<path fill="#66cdaa" stroke="black" d="M269.5,-108C269.5,-108 239.5,-108 239.5,-108 233.5,-108 227.5,-102 227.5,-96 227.5,-96 227.5,-84 227.5,-84 227.5,-78 233.5,-72 239.5,-72 239.5,-72 269.5,-72 269.5,-72 275.5,-72 281.5,-78 281.5,-84 281.5,-84 281.5,-96 281.5,-96 281.5,-102 275.5,-108 269.5,-108"/>
<text text-anchor="middle" x="254.5" y="-86.3" font-family="Times,serif" font-size="14.00">Name</text>
</g>
<!-- ast.BinOp object at 0x789100347b50&#45;&gt;ast.Name object at 0x789100347b10 -->
<g id="edge26" class="edge">
<title>ast.BinOp object at 0x789100347b50&#45;&gt;ast.Name object at 0x789100347b10</title>
<path fill="none" stroke="black" d="M200.3,-143.7C209.1,-135.14 219.88,-124.66 229.5,-115.3"/>
<polygon fill="black" stroke="black" points="232.18,-117.58 236.91,-108.1 227.3,-112.57 232.18,-117.58"/>
</g>
<!-- ast.Name object at 0x789100347b90&#45;&gt;ast.Load object at 0x7890ff1add10 -->
<g id="edge24" class="edge">
<title>ast.Name object at 0x789100347b90&#45;&gt;ast.Load object at 0x7890ff1add10</title>
<path fill="none" stroke="black" d="M209.65,-75.01C212.58,-73.85 215.57,-72.81 218.5,-72 398.14,-22.2 623.52,-17.97 711.2,-18.42"/>
<polygon fill="black" stroke="black" points="711.41,-21.92 721.44,-18.49 711.47,-14.92 711.41,-21.92"/>
</g>
<!-- ast.Name object at 0x789100347b10&#45;&gt;ast.Load object at 0x7890ff1add10 -->
<g id="edge27" class="edge">
<title>ast.Name object at 0x789100347b10&#45;&gt;ast.Load object at 0x7890ff1add10</title>
<path fill="none" stroke="black" d="M281.66,-75.05C284.59,-73.89 287.58,-72.84 290.5,-72 442.11,-28.7 631.58,-20.66 710.87,-19.25"/>
<polygon fill="black" stroke="black" points="711.37,-22.74 721.32,-19.09 711.27,-15.74 711.37,-22.74"/>
</g>
<!-- ast.Constant object at 0x789100347a50 -->
<g id="node27" class="node">
<title>ast.Constant object at 0x789100347a50</title>
<path fill="#66cdaa" stroke="black" d="M281,-180C281,-180 240,-180 240,-180 234,-180 228,-174 228,-168 228,-168 228,-156 228,-156 228,-150 234,-144 240,-144 240,-144 281,-144 281,-144 287,-144 293,-150 293,-156 293,-156 293,-168 293,-168 293,-174 287,-180 281,-180"/>
<text text-anchor="middle" x="260.5" y="-158.3" font-family="Times,serif" font-size="14.00">Constant</text>
</g>
<!-- ast.Return object at 0x789100347bd0&#45;&gt;ast.Constant object at 0x789100347a50 -->
<g id="edge31" class="edge">
<title>ast.Return object at 0x789100347bd0&#45;&gt;ast.Constant object at 0x789100347a50</title>
<path fill="none" stroke="black" d="M263.51,-215.7C263.07,-207.98 262.54,-198.71 262.05,-190.11"/>
<polygon fill="black" stroke="black" points="265.54,-189.89 261.48,-180.1 258.55,-190.29 265.54,-189.89"/>
</g>
<!-- ast.Constant object at 0x789100347a90 -->
<g id="node29" class="node">
<title>ast.Constant object at 0x789100347a90</title>
<path fill="#66cdaa" stroke="black" d="M364,-180C364,-180 323,-180 323,-180 317,-180 311,-174 311,-168 311,-168 311,-156 311,-156 311,-150 317,-144 323,-144 323,-144 364,-144 364,-144 370,-144 376,-150 376,-156 376,-156 376,-168 376,-168 376,-174 370,-180 364,-180"/>
<text text-anchor="middle" x="343.5" y="-158.3" font-family="Times,serif" font-size="14.00">Constant</text>
</g>
<!-- ast.Return object at 0x7891003479d0&#45;&gt;ast.Constant object at 0x789100347a90 -->
<g id="edge33" class="edge">
<title>ast.Return object at 0x7891003479d0&#45;&gt;ast.Constant object at 0x789100347a90</title>
<path fill="none" stroke="black" d="M339.74,-215.7C340.29,-207.98 340.95,-198.71 341.56,-190.11"/>
<polygon fill="black" stroke="black" points="345.06,-190.33 342.28,-180.1 338.07,-189.83 345.06,-190.33"/>
</g>
<!-- ast.arguments object at 0x789100347c10 -->
<g id="node31" class="node">
<title>ast.arguments object at 0x789100347c10</title>
<path fill="#66cdaa" stroke="black" d="M1300.5,-396C1300.5,-396 1250.5,-396 1250.5,-396 1244.5,-396 1238.5,-390 1238.5,-384 1238.5,-384 1238.5,-372 1238.5,-372 1238.5,-366 1244.5,-360 1250.5,-360 1250.5,-360 1300.5,-360 1300.5,-360 1306.5,-360 1312.5,-366 1312.5,-372 1312.5,-372 1312.5,-384 1312.5,-384 1312.5,-390 1306.5,-396 1300.5,-396"/>
<text text-anchor="middle" x="1275.5" y="-374.3" font-family="Times,serif" font-size="14.00">arguments</text>
</g>
<!-- ast.FunctionDef object at 0x789100347a10&#45;&gt;ast.arguments object at 0x789100347c10 -->
<g id="edge35" class="edge">
<title>ast.FunctionDef object at 0x789100347a10&#45;&gt;ast.arguments object at 0x789100347c10</title>
<path fill="none" stroke="black" d="M1203.23,-431.7C1215.44,-422.8 1230.49,-411.82 1243.68,-402.2"/>
<polygon fill="black" stroke="black" points="1246.02,-404.82 1252.04,-396.1 1241.9,-399.17 1246.02,-404.82"/>
</g>
<!-- ast.Assign object at 0x789100347c90 -->
<g id="node33" class="node">
<title>ast.Assign object at 0x789100347c90</title>
<path fill="#66cdaa" stroke="black" d="M1376.5,-324C1376.5,-324 1346.5,-324 1346.5,-324 1340.5,-324 1334.5,-318 1334.5,-312 1334.5,-312 1334.5,-300 1334.5,-300 1334.5,-294 1340.5,-288 1346.5,-288 1346.5,-288 1376.5,-288 1376.5,-288 1382.5,-288 1388.5,-294 1388.5,-300 1388.5,-300 1388.5,-312 1388.5,-312 1388.5,-318 1382.5,-324 1376.5,-324"/>
<text text-anchor="middle" x="1361.5" y="-302.3" font-family="Times,serif" font-size="14.00">Assign</text>
</g>
<!-- ast.FunctionDef object at 0x789100347a10&#45;&gt;ast.Assign object at 0x789100347c90 -->
<g id="edge37" class="edge">
<title>ast.FunctionDef object at 0x789100347a10&#45;&gt;ast.Assign object at 0x789100347c90</title>
<path fill="none" stroke="black" d="M1222.03,-442.17C1252.95,-435.25 1294.04,-421.73 1321.5,-396 1339.21,-379.41 1349.62,-353.52 1355.36,-333.93"/>
<polygon fill="black" stroke="black" points="1358.8,-334.63 1358.02,-324.07 1352.04,-332.81 1358.8,-334.63"/>
</g>
<!-- ast.For object at 0x789100347ed0 -->
<g id="node40" class="node">
<title>ast.For object at 0x789100347ed0</title>
<path fill="#66cdaa" stroke="black" d="M1194.5,-396C1194.5,-396 1164.5,-396 1164.5,-396 1158.5,-396 1152.5,-390 1152.5,-384 1152.5,-384 1152.5,-372 1152.5,-372 1152.5,-366 1158.5,-360 1164.5,-360 1164.5,-360 1194.5,-360 1194.5,-360 1200.5,-360 1206.5,-366 1206.5,-372 1206.5,-372 1206.5,-384 1206.5,-384 1206.5,-390 1200.5,-396 1194.5,-396"/>
<text text-anchor="middle" x="1179.5" y="-374.3" font-family="Times,serif" font-size="14.00">For</text>
</g>
<!-- ast.FunctionDef object at 0x789100347a10&#45;&gt;ast.For object at 0x789100347ed0 -->
<g id="edge48" class="edge">
<title>ast.FunctionDef object at 0x789100347a10&#45;&gt;ast.For object at 0x789100347ed0</title>
<path fill="none" stroke="black" d="M1179.5,-431.7C1179.5,-423.98 1179.5,-414.71 1179.5,-406.11"/>
<polygon fill="black" stroke="black" points="1183,-406.1 1179.5,-396.1 1176,-406.1 1183,-406.1"/>
</g>
<!-- ast.Return object at 0x789100344dd0 -->
<g id="node58" class="node">
<title>ast.Return object at 0x789100344dd0</title>
<path fill="#66cdaa" stroke="black" d="M921.5,-396C921.5,-396 891.5,-396 891.5,-396 885.5,-396 879.5,-390 879.5,-384 879.5,-384 879.5,-372 879.5,-372 879.5,-366 885.5,-360 891.5,-360 891.5,-360 921.5,-360 921.5,-360 927.5,-360 933.5,-366 933.5,-372 933.5,-372 933.5,-384 933.5,-384 933.5,-390 927.5,-396 921.5,-396"/>
<text text-anchor="middle" x="906.5" y="-374.3" font-family="Times,serif" font-size="14.00">Return</text>
</g>
<!-- ast.FunctionDef object at 0x789100347a10&#45;&gt;ast.Return object at 0x789100344dd0 -->
<g id="edge76" class="edge">
<title>ast.FunctionDef object at 0x789100347a10&#45;&gt;ast.Return object at 0x789100344dd0</title>
<path fill="none" stroke="black" d="M1136.84,-438.06C1083.67,-424.43 993.67,-401.35 943.36,-388.45"/>
<polygon fill="black" stroke="black" points="944.1,-385.03 933.55,-385.94 942.37,-391.81 944.1,-385.03"/>
</g>
<!-- ast.arg object at 0x789100347d10 -->
<g id="node32" class="node">
<title>ast.arg object at 0x789100347d10</title>
<path fill="#66cdaa" stroke="black" d="M1304.5,-324C1304.5,-324 1274.5,-324 1274.5,-324 1268.5,-324 1262.5,-318 1262.5,-312 1262.5,-312 1262.5,-300 1262.5,-300 1262.5,-294 1268.5,-288 1274.5,-288 1274.5,-288 1304.5,-288 1304.5,-288 1310.5,-288 1316.5,-294 1316.5,-300 1316.5,-300 1316.5,-312 1316.5,-312 1316.5,-318 1310.5,-324 1304.5,-324"/>
<text text-anchor="middle" x="1289.5" y="-302.3" font-family="Times,serif" font-size="14.00">arg</text>
</g>
<!-- ast.arguments object at 0x789100347c10&#45;&gt;ast.arg object at 0x789100347d10 -->
<g id="edge36" class="edge">
<title>ast.arguments object at 0x789100347c10&#45;&gt;ast.arg object at 0x789100347d10</title>
<path fill="none" stroke="black" d="M1278.96,-359.7C1280.5,-351.98 1282.36,-342.71 1284.08,-334.11"/>
<polygon fill="black" stroke="black" points="1287.55,-334.6 1286.08,-324.1 1280.69,-333.22 1287.55,-334.6"/>
</g>
<!-- ast.Tuple object at 0x789100347c50 -->
<g id="node34" class="node">
<title>ast.Tuple object at 0x789100347c50</title>
<path fill="#66cdaa" stroke="black" d="M1368.5,-252C1368.5,-252 1338.5,-252 1338.5,-252 1332.5,-252 1326.5,-246 1326.5,-240 1326.5,-240 1326.5,-228 1326.5,-228 1326.5,-222 1332.5,-216 1338.5,-216 1338.5,-216 1368.5,-216 1368.5,-216 1374.5,-216 1380.5,-222 1380.5,-228 1380.5,-228 1380.5,-240 1380.5,-240 1380.5,-246 1374.5,-252 1368.5,-252"/>
<text text-anchor="middle" x="1353.5" y="-230.3" font-family="Times,serif" font-size="14.00">Tuple</text>
</g>
<!-- ast.Assign object at 0x789100347c90&#45;&gt;ast.Tuple object at 0x789100347c50 -->
<g id="edge38" class="edge">
<title>ast.Assign object at 0x789100347c90&#45;&gt;ast.Tuple object at 0x789100347c50</title>
<path fill="none" stroke="black" d="M1359.52,-287.7C1358.64,-279.98 1357.58,-270.71 1356.6,-262.11"/>
<polygon fill="black" stroke="black" points="1360.07,-261.64 1355.45,-252.1 1353.11,-262.44 1360.07,-261.64"/>
</g>
<!-- ast.Tuple object at 0x789100347e10 -->
<g id="node37" class="node">
<title>ast.Tuple object at 0x789100347e10</title>
<path fill="#66cdaa" stroke="black" d="M1605.5,-252C1605.5,-252 1575.5,-252 1575.5,-252 1569.5,-252 1563.5,-246 1563.5,-240 1563.5,-240 1563.5,-228 1563.5,-228 1563.5,-222 1569.5,-216 1575.5,-216 1575.5,-216 1605.5,-216 1605.5,-216 1611.5,-216 1617.5,-222 1617.5,-228 1617.5,-228 1617.5,-240 1617.5,-240 1617.5,-246 1611.5,-252 1605.5,-252"/>
<text text-anchor="middle" x="1590.5" y="-230.3" font-family="Times,serif" font-size="14.00">Tuple</text>
</g>
<!-- ast.Assign object at 0x789100347c90&#45;&gt;ast.Tuple object at 0x789100347e10 -->
<g id="edge44" class="edge">
<title>ast.Assign object at 0x789100347c90&#45;&gt;ast.Tuple object at 0x789100347e10</title>
<path fill="none" stroke="black" d="M1388.67,-296.7C1429.73,-284.14 1507.68,-260.32 1553.76,-246.23"/>
<polygon fill="black" stroke="black" points="1554.83,-249.56 1563.37,-243.29 1552.78,-242.87 1554.83,-249.56"/>
</g>
<!-- ast.Tuple object at 0x789100347c50&#45;&gt;ast.Store object at 0x7890ff1add90 -->
<g id="edge43" class="edge">
<title>ast.Tuple object at 0x789100347c50&#45;&gt;ast.Store object at 0x7890ff1add90</title>
<path fill="none" stroke="black" d="M1368.83,-215.68C1383.89,-196.49 1402.34,-165.43 1385.5,-144 1384.08,-142.2 1266.55,-114.31 1204.67,-99.73"/>
<polygon fill="black" stroke="black" points="1205.42,-96.31 1194.89,-97.43 1203.82,-103.13 1205.42,-96.31"/>
</g>
<!-- ast.Name object at 0x789100347cd0 -->
<g id="node35" class="node">
<title>ast.Name object at 0x789100347cd0</title>
<path fill="#66cdaa" stroke="black" d="M1292.5,-180C1292.5,-180 1262.5,-180 1262.5,-180 1256.5,-180 1250.5,-174 1250.5,-168 1250.5,-168 1250.5,-156 1250.5,-156 1250.5,-150 1256.5,-144 1262.5,-144 1262.5,-144 1292.5,-144 1292.5,-144 1298.5,-144 1304.5,-150 1304.5,-156 1304.5,-156 1304.5,-168 1304.5,-168 1304.5,-174 1298.5,-180 1292.5,-180"/>
<text text-anchor="middle" x="1277.5" y="-158.3" font-family="Times,serif" font-size="14.00">Name</text>
</g>
<!-- ast.Tuple object at 0x789100347c50&#45;&gt;ast.Name object at 0x789100347cd0 -->
<g id="edge39" class="edge">
<title>ast.Tuple object at 0x789100347c50&#45;&gt;ast.Name object at 0x789100347cd0</title>
<path fill="none" stroke="black" d="M1334.71,-215.7C1325.33,-207.05 1313.82,-196.45 1303.59,-187.03"/>
<polygon fill="black" stroke="black" points="1305.8,-184.3 1296.07,-180.1 1301.05,-189.45 1305.8,-184.3"/>
</g>
<!-- ast.Name object at 0x789100347d50 -->
<g id="node36" class="node">
<title>ast.Name object at 0x789100347d50</title>
<path fill="#66cdaa" stroke="black" d="M1364.5,-180C1364.5,-180 1334.5,-180 1334.5,-180 1328.5,-180 1322.5,-174 1322.5,-168 1322.5,-168 1322.5,-156 1322.5,-156 1322.5,-150 1328.5,-144 1334.5,-144 1334.5,-144 1364.5,-144 1364.5,-144 1370.5,-144 1376.5,-150 1376.5,-156 1376.5,-156 1376.5,-168 1376.5,-168 1376.5,-174 1370.5,-180 1364.5,-180"/>
<text text-anchor="middle" x="1349.5" y="-158.3" font-family="Times,serif" font-size="14.00">Name</text>
</g>
<!-- ast.Tuple object at 0x789100347c50&#45;&gt;ast.Name object at 0x789100347d50 -->
<g id="edge41" class="edge">
<title>ast.Tuple object at 0x789100347c50&#45;&gt;ast.Name object at 0x789100347d50</title>
<path fill="none" stroke="black" d="M1352.51,-215.7C1352.07,-207.98 1351.54,-198.71 1351.05,-190.11"/>
<polygon fill="black" stroke="black" points="1354.54,-189.89 1350.48,-180.1 1347.55,-190.29 1354.54,-189.89"/>
</g>
<!-- ast.Name object at 0x789100347cd0&#45;&gt;ast.Store object at 0x7890ff1add90 -->
<g id="edge40" class="edge">
<title>ast.Name object at 0x789100347cd0&#45;&gt;ast.Store object at 0x7890ff1add90</title>
<path fill="none" stroke="black" d="M1250.59,-143.88C1236.34,-134.81 1218.65,-123.55 1203.26,-113.76"/>
<polygon fill="black" stroke="black" points="1204.83,-110.61 1194.51,-108.19 1201.07,-116.51 1204.83,-110.61"/>
</g>
<!-- ast.Name object at 0x789100347d50&#45;&gt;ast.Store object at 0x7890ff1add90 -->
<g id="edge42" class="edge">
<title>ast.Name object at 0x789100347d50&#45;&gt;ast.Store object at 0x7890ff1add90</title>
<path fill="none" stroke="black" d="M1322.49,-147.92C1319.48,-146.55 1316.43,-145.22 1313.5,-144 1276.82,-128.72 1234,-113.47 1204.26,-103.28"/>
<polygon fill="black" stroke="black" points="1205.29,-99.94 1194.7,-100.03 1203.04,-106.56 1205.29,-99.94"/>
</g>
<!-- ast.Tuple object at 0x789100347e10&#45;&gt;ast.Load object at 0x7890ff1add10 -->
<g id="edge47" class="edge">
<title>ast.Tuple object at 0x789100347e10&#45;&gt;ast.Load object at 0x7890ff1add10</title>
<path fill="none" stroke="black" d="M1586.42,-215.76C1576.88,-176.11 1553.06,-81.17 1541.5,-72 1481.81,-24.61 934.45,-19.54 785.67,-19.04"/>
<polygon fill="black" stroke="black" points="785.67,-15.54 775.66,-19.01 785.65,-22.54 785.67,-15.54"/>
</g>
<!-- ast.Constant object at 0x789100347e90 -->
<g id="node38" class="node">
<title>ast.Constant object at 0x789100347e90</title>
<path fill="#66cdaa" stroke="black" d="M1642,-180C1642,-180 1601,-180 1601,-180 1595,-180 1589,-174 1589,-168 1589,-168 1589,-156 1589,-156 1589,-150 1595,-144 1601,-144 1601,-144 1642,-144 1642,-144 1648,-144 1654,-150 1654,-156 1654,-156 1654,-168 1654,-168 1654,-174 1648,-180 1642,-180"/>
<text text-anchor="middle" x="1621.5" y="-158.3" font-family="Times,serif" font-size="14.00">Constant</text>
</g>
<!-- ast.Tuple object at 0x789100347e10&#45;&gt;ast.Constant object at 0x789100347e90 -->
<g id="edge45" class="edge">
<title>ast.Tuple object at 0x789100347e10&#45;&gt;ast.Constant object at 0x789100347e90</title>
<path fill="none" stroke="black" d="M1598.16,-215.7C1601.69,-207.73 1605.96,-198.1 1609.87,-189.26"/>
<polygon fill="black" stroke="black" points="1613.08,-190.67 1613.93,-180.1 1606.68,-187.83 1613.08,-190.67"/>
</g>
<!-- ast.Constant object at 0x789100347d90 -->
<g id="node39" class="node">
<title>ast.Constant object at 0x789100347d90</title>
<path fill="#66cdaa" stroke="black" d="M1725,-180C1725,-180 1684,-180 1684,-180 1678,-180 1672,-174 1672,-168 1672,-168 1672,-156 1672,-156 1672,-150 1678,-144 1684,-144 1684,-144 1725,-144 1725,-144 1731,-144 1737,-150 1737,-156 1737,-156 1737,-168 1737,-168 1737,-174 1731,-180 1725,-180"/>
<text text-anchor="middle" x="1704.5" y="-158.3" font-family="Times,serif" font-size="14.00">Constant</text>
</g>
<!-- ast.Tuple object at 0x789100347e10&#45;&gt;ast.Constant object at 0x789100347d90 -->
<g id="edge46" class="edge">
<title>ast.Tuple object at 0x789100347e10&#45;&gt;ast.Constant object at 0x789100347d90</title>
<path fill="none" stroke="black" d="M1617.52,-216.41C1632.52,-207.2 1651.39,-195.61 1667.72,-185.59"/>
<polygon fill="black" stroke="black" points="1669.8,-188.42 1676.49,-180.2 1666.13,-182.45 1669.8,-188.42"/>
</g>
<!-- ast.Name object at 0x789100347e50 -->
<g id="node41" class="node">
<title>ast.Name object at 0x789100347e50</title>
<path fill="#66cdaa" stroke="black" d="M1194.5,-324C1194.5,-324 1164.5,-324 1164.5,-324 1158.5,-324 1152.5,-318 1152.5,-312 1152.5,-312 1152.5,-300 1152.5,-300 1152.5,-294 1158.5,-288 1164.5,-288 1164.5,-288 1194.5,-288 1194.5,-288 1200.5,-288 1206.5,-294 1206.5,-300 1206.5,-300 1206.5,-312 1206.5,-312 1206.5,-318 1200.5,-324 1194.5,-324"/>
<text text-anchor="middle" x="1179.5" y="-302.3" font-family="Times,serif" font-size="14.00">Name</text>
</g>
<!-- ast.For object at 0x789100347ed0&#45;&gt;ast.Name object at 0x789100347e50 -->
<g id="edge49" class="edge">
<title>ast.For object at 0x789100347ed0&#45;&gt;ast.Name object at 0x789100347e50</title>
<path fill="none" stroke="black" d="M1179.5,-359.7C1179.5,-351.98 1179.5,-342.71 1179.5,-334.11"/>
<polygon fill="black" stroke="black" points="1183,-334.1 1179.5,-324.1 1176,-334.1 1183,-334.1"/>
</g>
<!-- ast.Call object at 0x789100347dd0 -->
<g id="node42" class="node">
<title>ast.Call object at 0x789100347dd0</title>
<path fill="#66cdaa" stroke="black" d="M1474.5,-252C1474.5,-252 1444.5,-252 1444.5,-252 1438.5,-252 1432.5,-246 1432.5,-240 1432.5,-240 1432.5,-228 1432.5,-228 1432.5,-222 1438.5,-216 1444.5,-216 1444.5,-216 1474.5,-216 1474.5,-216 1480.5,-216 1486.5,-222 1486.5,-228 1486.5,-228 1486.5,-240 1486.5,-240 1486.5,-246 1480.5,-252 1474.5,-252"/>
<text text-anchor="middle" x="1459.5" y="-230.3" font-family="Times,serif" font-size="14.00">Call</text>
</g>
<!-- ast.For object at 0x789100347ed0&#45;&gt;ast.Call object at 0x789100347dd0 -->
<g id="edge51" class="edge">
<title>ast.For object at 0x789100347ed0&#45;&gt;ast.Call object at 0x789100347dd0</title>
<path fill="none" stroke="black" d="M1191.71,-359.91C1208.52,-336.86 1238.39,-297.57 1253.5,-288 1257.12,-285.71 1364.05,-258.81 1422.38,-244.24"/>
<polygon fill="black" stroke="black" points="1423.48,-247.58 1432.33,-241.76 1421.78,-240.79 1423.48,-247.58"/>
</g>
<!-- ast.Assign object at 0x789100345e50 -->
<g id="node48" class="node">
<title>ast.Assign object at 0x789100345e50</title>
<path fill="#66cdaa" stroke="black" d="M1122.5,-324C1122.5,-324 1092.5,-324 1092.5,-324 1086.5,-324 1080.5,-318 1080.5,-312 1080.5,-312 1080.5,-300 1080.5,-300 1080.5,-294 1086.5,-288 1092.5,-288 1092.5,-288 1122.5,-288 1122.5,-288 1128.5,-288 1134.5,-294 1134.5,-300 1134.5,-300 1134.5,-312 1134.5,-312 1134.5,-318 1128.5,-324 1122.5,-324"/>
<text text-anchor="middle" x="1107.5" y="-302.3" font-family="Times,serif" font-size="14.00">Assign</text>
</g>
<!-- ast.For object at 0x789100347ed0&#45;&gt;ast.Assign object at 0x789100345e50 -->
<g id="edge59" class="edge">
<title>ast.For object at 0x789100347ed0&#45;&gt;ast.Assign object at 0x789100345e50</title>
<path fill="none" stroke="black" d="M1161.7,-359.7C1152.9,-351.14 1142.12,-340.66 1132.5,-331.3"/>
<polygon fill="black" stroke="black" points="1134.7,-328.57 1125.09,-324.1 1129.82,-333.58 1134.7,-328.57"/>
</g>
<!-- ast.Name object at 0x789100347e50&#45;&gt;ast.Store object at 0x7890ff1add90 -->
<g id="edge50" class="edge">
<title>ast.Name object at 0x789100347e50&#45;&gt;ast.Store object at 0x7890ff1add90</title>
<path fill="none" stroke="black" d="M1186.99,-287.71C1198.85,-257.81 1219.12,-194.78 1203.5,-144 1200.49,-134.22 1194.99,-124.62 1189.18,-116.33"/>
<polygon fill="black" stroke="black" points="1191.91,-114.13 1183.11,-108.23 1186.31,-118.33 1191.91,-114.13"/>
</g>
<!-- ast.Name object at 0x789100347f90 -->
<g id="node43" class="node">
<title>ast.Name object at 0x789100347f90</title>
<path fill="#66cdaa" stroke="black" d="M1520.5,-108C1520.5,-108 1490.5,-108 1490.5,-108 1484.5,-108 1478.5,-102 1478.5,-96 1478.5,-96 1478.5,-84 1478.5,-84 1478.5,-78 1484.5,-72 1490.5,-72 1490.5,-72 1520.5,-72 1520.5,-72 1526.5,-72 1532.5,-78 1532.5,-84 1532.5,-84 1532.5,-96 1532.5,-96 1532.5,-102 1526.5,-108 1520.5,-108"/>
<text text-anchor="middle" x="1505.5" y="-86.3" font-family="Times,serif" font-size="14.00">Name</text>
</g>
<!-- ast.Call object at 0x789100347dd0&#45;&gt;ast.Name object at 0x789100347f90 -->
<g id="edge52" class="edge">
<title>ast.Call object at 0x789100347dd0&#45;&gt;ast.Name object at 0x789100347f90</title>
<path fill="none" stroke="black" d="M1474.53,-215.58C1482.12,-205.78 1490.72,-192.94 1495.5,-180 1502.82,-160.22 1505.19,-136.42 1505.8,-118.41"/>
<polygon fill="black" stroke="black" points="1509.3,-118.35 1505.98,-108.29 1502.3,-118.23 1509.3,-118.35"/>
</g>
<!-- ast.BinOp object at 0x789100346410 -->
<g id="node44" class="node">
<title>ast.BinOp object at 0x789100346410</title>
<path fill="#66cdaa" stroke="black" d="M1474.5,-180C1474.5,-180 1444.5,-180 1444.5,-180 1438.5,-180 1432.5,-174 1432.5,-168 1432.5,-168 1432.5,-156 1432.5,-156 1432.5,-150 1438.5,-144 1444.5,-144 1444.5,-144 1474.5,-144 1474.5,-144 1480.5,-144 1486.5,-150 1486.5,-156 1486.5,-156 1486.5,-168 1486.5,-168 1486.5,-174 1480.5,-180 1474.5,-180"/>
<text text-anchor="middle" x="1459.5" y="-158.3" font-family="Times,serif" font-size="14.00">BinOp</text>
</g>
<!-- ast.Call object at 0x789100347dd0&#45;&gt;ast.BinOp object at 0x789100346410 -->
<g id="edge54" class="edge">
<title>ast.Call object at 0x789100347dd0&#45;&gt;ast.BinOp object at 0x789100346410</title>
<path fill="none" stroke="black" d="M1459.5,-215.7C1459.5,-207.98 1459.5,-198.71 1459.5,-190.11"/>
<polygon fill="black" stroke="black" points="1463,-190.1 1459.5,-180.1 1456,-190.1 1463,-190.1"/>
</g>
<!-- ast.Name object at 0x789100347f90&#45;&gt;ast.Load object at 0x7890ff1add10 -->
<g id="edge53" class="edge">
<title>ast.Name object at 0x789100347f90&#45;&gt;ast.Load object at 0x7890ff1add10</title>
<path fill="none" stroke="black" d="M1478.38,-74.93C1475.43,-73.78 1472.44,-72.77 1469.5,-72 1338.3,-37.48 914.57,-23.47 785.9,-19.94"/>
<polygon fill="black" stroke="black" points="785.85,-16.44 775.76,-19.67 785.66,-23.44 785.85,-16.44"/>
</g>
<!-- ast.Name object at 0x789100346210 -->
<g id="node45" class="node">
<title>ast.Name object at 0x789100346210</title>
<path fill="#66cdaa" stroke="black" d="M1448.5,-108C1448.5,-108 1418.5,-108 1418.5,-108 1412.5,-108 1406.5,-102 1406.5,-96 1406.5,-96 1406.5,-84 1406.5,-84 1406.5,-78 1412.5,-72 1418.5,-72 1418.5,-72 1448.5,-72 1448.5,-72 1454.5,-72 1460.5,-78 1460.5,-84 1460.5,-84 1460.5,-96 1460.5,-96 1460.5,-102 1454.5,-108 1448.5,-108"/>
<text text-anchor="middle" x="1433.5" y="-86.3" font-family="Times,serif" font-size="14.00">Name</text>
</g>
<!-- ast.BinOp object at 0x789100346410&#45;&gt;ast.Name object at 0x789100346210 -->
<g id="edge55" class="edge">
<title>ast.BinOp object at 0x789100346410&#45;&gt;ast.Name object at 0x789100346210</title>
<path fill="none" stroke="black" d="M1453.07,-143.7C1450.14,-135.81 1446.61,-126.3 1443.36,-117.55"/>
<polygon fill="black" stroke="black" points="1446.62,-116.26 1439.85,-108.1 1440.05,-118.7 1446.62,-116.26"/>
</g>
<!-- ast.Sub object at 0x7890ff1ae290 -->
<g id="node46" class="node">
<title>ast.Sub object at 0x7890ff1ae290</title>
<path fill="#66cdaa" stroke="black" d="M1292.5,-108C1292.5,-108 1262.5,-108 1262.5,-108 1256.5,-108 1250.5,-102 1250.5,-96 1250.5,-96 1250.5,-84 1250.5,-84 1250.5,-78 1256.5,-72 1262.5,-72 1262.5,-72 1292.5,-72 1292.5,-72 1298.5,-72 1304.5,-78 1304.5,-84 1304.5,-84 1304.5,-96 1304.5,-96 1304.5,-102 1298.5,-108 1292.5,-108"/>
<text text-anchor="middle" x="1277.5" y="-86.3" font-family="Times,serif" font-size="14.00">Sub</text>
</g>
<!-- ast.BinOp object at 0x789100346410&#45;&gt;ast.Sub object at 0x7890ff1ae290 -->
<g id="edge57" class="edge">
<title>ast.BinOp object at 0x789100346410&#45;&gt;ast.Sub object at 0x7890ff1ae290</title>
<path fill="none" stroke="black" d="M1432.24,-149.43C1427.67,-147.57 1422.97,-145.7 1418.5,-144 1372.78,-126.62 1359.89,-126.23 1314.5,-108 1314.4,-107.96 1314.3,-107.92 1314.2,-107.88"/>
<polygon fill="black" stroke="black" points="1315.42,-104.6 1304.85,-103.93 1312.7,-111.04 1315.42,-104.6"/>
</g>
<!-- ast.Constant object at 0x789100345b50 -->
<g id="node47" class="node">
<title>ast.Constant object at 0x789100345b50</title>
<path fill="#66cdaa" stroke="black" d="M1376,-108C1376,-108 1335,-108 1335,-108 1329,-108 1323,-102 1323,-96 1323,-96 1323,-84 1323,-84 1323,-78 1329,-72 1335,-72 1335,-72 1376,-72 1376,-72 1382,-72 1388,-78 1388,-84 1388,-84 1388,-96 1388,-96 1388,-102 1382,-108 1376,-108"/>
<text text-anchor="middle" x="1355.5" y="-86.3" font-family="Times,serif" font-size="14.00">Constant</text>
</g>
<!-- ast.BinOp object at 0x789100346410&#45;&gt;ast.Constant object at 0x789100345b50 -->
<g id="edge58" class="edge">
<title>ast.BinOp object at 0x789100346410&#45;&gt;ast.Constant object at 0x789100345b50</title>
<path fill="none" stroke="black" d="M1434.06,-143.88C1420.71,-134.89 1404.18,-123.76 1389.72,-114.03"/>
<polygon fill="black" stroke="black" points="1391.29,-110.87 1381.04,-108.19 1387.38,-116.68 1391.29,-110.87"/>
</g>
<!-- ast.Name object at 0x789100346210&#45;&gt;ast.Load object at 0x7890ff1add10 -->
<g id="edge56" class="edge">
<title>ast.Name object at 0x789100346210&#45;&gt;ast.Load object at 0x7890ff1add10</title>
<path fill="none" stroke="black" d="M1406.37,-74.95C1403.43,-73.8 1400.44,-72.79 1397.5,-72 1280.62,-40.74 905.5,-24.7 785.67,-20.29"/>
<polygon fill="black" stroke="black" points="785.65,-16.78 775.53,-19.92 785.4,-23.78 785.65,-16.78"/>
</g>
<!-- ast.Tuple object at 0x789100345bd0 -->
<g id="node49" class="node">
<title>ast.Tuple object at 0x789100345bd0</title>
<path fill="#66cdaa" stroke="black" d="M1125.5,-252C1125.5,-252 1095.5,-252 1095.5,-252 1089.5,-252 1083.5,-246 1083.5,-240 1083.5,-240 1083.5,-228 1083.5,-228 1083.5,-222 1089.5,-216 1095.5,-216 1095.5,-216 1125.5,-216 1125.5,-216 1131.5,-216 1137.5,-222 1137.5,-228 1137.5,-228 1137.5,-240 1137.5,-240 1137.5,-246 1131.5,-252 1125.5,-252"/>
<text text-anchor="middle" x="1110.5" y="-230.3" font-family="Times,serif" font-size="14.00">Tuple</text>
</g>
<!-- ast.Assign object at 0x789100345e50&#45;&gt;ast.Tuple object at 0x789100345bd0 -->
<g id="edge60" class="edge">
<title>ast.Assign object at 0x789100345e50&#45;&gt;ast.Tuple object at 0x789100345bd0</title>
<path fill="none" stroke="black" d="M1108.24,-287.7C1108.57,-279.98 1108.97,-270.71 1109.34,-262.11"/>
<polygon fill="black" stroke="black" points="1112.84,-262.25 1109.77,-252.1 1105.84,-261.95 1112.84,-262.25"/>
</g>
<!-- ast.Tuple object at 0x789100344750 -->
<g id="node52" class="node">
<title>ast.Tuple object at 0x789100344750</title>
<path fill="#66cdaa" stroke="black" d="M881.5,-252C881.5,-252 851.5,-252 851.5,-252 845.5,-252 839.5,-246 839.5,-240 839.5,-240 839.5,-228 839.5,-228 839.5,-222 845.5,-216 851.5,-216 851.5,-216 881.5,-216 881.5,-216 887.5,-216 893.5,-222 893.5,-228 893.5,-228 893.5,-240 893.5,-240 893.5,-246 887.5,-252 881.5,-252"/>
<text text-anchor="middle" x="866.5" y="-230.3" font-family="Times,serif" font-size="14.00">Tuple</text>
</g>
<!-- ast.Assign object at 0x789100345e50&#45;&gt;ast.Tuple object at 0x789100344750 -->
<g id="edge66" class="edge">
<title>ast.Assign object at 0x789100345e50&#45;&gt;ast.Tuple object at 0x789100344750</title>
<path fill="none" stroke="black" d="M1080.32,-297.11C1037,-284.52 952.19,-259.89 903.41,-245.72"/>
<polygon fill="black" stroke="black" points="904.16,-242.29 893.58,-242.86 902.2,-249.02 904.16,-242.29"/>
</g>
<!-- ast.Tuple object at 0x789100345bd0&#45;&gt;ast.Store object at 0x7890ff1add90 -->
<g id="edge65" class="edge">
<title>ast.Tuple object at 0x789100345bd0&#45;&gt;ast.Store object at 0x7890ff1add90</title>
<path fill="none" stroke="black" d="M1112.68,-215.68C1115.42,-197.29 1121.09,-167.69 1131.5,-144 1135.69,-134.48 1141.62,-124.84 1147.46,-116.44"/>
<polygon fill="black" stroke="black" points="1150.4,-118.35 1153.44,-108.2 1144.74,-114.24 1150.4,-118.35"/>
</g>
<!-- ast.Name object at 0x789100346150 -->
<g id="node50" class="node">
<title>ast.Name object at 0x789100346150</title>
<path fill="#66cdaa" stroke="black" d="M1182.5,-180C1182.5,-180 1152.5,-180 1152.5,-180 1146.5,-180 1140.5,-174 1140.5,-168 1140.5,-168 1140.5,-156 1140.5,-156 1140.5,-150 1146.5,-144 1152.5,-144 1152.5,-144 1182.5,-144 1182.5,-144 1188.5,-144 1194.5,-150 1194.5,-156 1194.5,-156 1194.5,-168 1194.5,-168 1194.5,-174 1188.5,-180 1182.5,-180"/>
<text text-anchor="middle" x="1167.5" y="-158.3" font-family="Times,serif" font-size="14.00">Name</text>
</g>
<!-- ast.Tuple object at 0x789100345bd0&#45;&gt;ast.Name object at 0x789100346150 -->
<g id="edge61" class="edge">
<title>ast.Tuple object at 0x789100345bd0&#45;&gt;ast.Name object at 0x789100346150</title>
<path fill="none" stroke="black" d="M1124.59,-215.7C1131.42,-207.3 1139.76,-197.07 1147.26,-187.86"/>
<polygon fill="black" stroke="black" points="1149.97,-190.07 1153.57,-180.1 1144.54,-185.65 1149.97,-190.07"/>
</g>
<!-- ast.Name object at 0x789100345ad0 -->
<g id="node51" class="node">
<title>ast.Name object at 0x789100345ad0</title>
<path fill="#66cdaa" stroke="black" d="M1072.5,-180C1072.5,-180 1042.5,-180 1042.5,-180 1036.5,-180 1030.5,-174 1030.5,-168 1030.5,-168 1030.5,-156 1030.5,-156 1030.5,-150 1036.5,-144 1042.5,-144 1042.5,-144 1072.5,-144 1072.5,-144 1078.5,-144 1084.5,-150 1084.5,-156 1084.5,-156 1084.5,-168 1084.5,-168 1084.5,-174 1078.5,-180 1072.5,-180"/>
<text text-anchor="middle" x="1057.5" y="-158.3" font-family="Times,serif" font-size="14.00">Name</text>
</g>
<!-- ast.Tuple object at 0x789100345bd0&#45;&gt;ast.Name object at 0x789100345ad0 -->
<g id="edge63" class="edge">
<title>ast.Tuple object at 0x789100345bd0&#45;&gt;ast.Name object at 0x789100345ad0</title>
<path fill="none" stroke="black" d="M1097.4,-215.7C1091.11,-207.39 1083.45,-197.28 1076.54,-188.14"/>
<polygon fill="black" stroke="black" points="1079.28,-185.96 1070.45,-180.1 1073.7,-190.19 1079.28,-185.96"/>
</g>
<!-- ast.Name object at 0x789100346150&#45;&gt;ast.Store object at 0x7890ff1add90 -->
<g id="edge62" class="edge">
<title>ast.Name object at 0x789100346150&#45;&gt;ast.Store object at 0x7890ff1add90</title>
<path fill="none" stroke="black" d="M1167.5,-143.7C1167.5,-135.98 1167.5,-126.71 1167.5,-118.11"/>
<polygon fill="black" stroke="black" points="1171,-118.1 1167.5,-108.1 1164,-118.1 1171,-118.1"/>
</g>
<!-- ast.Name object at 0x789100345ad0&#45;&gt;ast.Store object at 0x7890ff1add90 -->
<g id="edge64" class="edge">
<title>ast.Name object at 0x789100345ad0&#45;&gt;ast.Store object at 0x7890ff1add90</title>
<path fill="none" stroke="black" d="M1084.41,-143.88C1098.66,-134.81 1116.35,-123.55 1131.74,-113.76"/>
<polygon fill="black" stroke="black" points="1133.93,-116.51 1140.49,-108.19 1130.17,-110.61 1133.93,-116.51"/>
</g>
<!-- ast.Tuple object at 0x789100344750&#45;&gt;ast.Load object at 0x7890ff1add10 -->
<g id="edge75" class="edge">
<title>ast.Tuple object at 0x789100344750&#45;&gt;ast.Load object at 0x7890ff1add10</title>
<path fill="none" stroke="black" d="M880.55,-215.95C896.35,-197.27 923.23,-166.92 949.5,-144 970.41,-125.76 987.74,-132.63 1000.5,-108 1007.86,-93.79 1010.58,-84.42 1000.5,-72 973.88,-39.2 849.24,-25.94 785.8,-21.25"/>
<polygon fill="black" stroke="black" points="786.02,-17.76 775.8,-20.55 785.53,-24.74 786.02,-17.76"/>
</g>
<!-- ast.Name object at 0x789100344b90 -->
<g id="node53" class="node">
<title>ast.Name object at 0x789100344b90</title>
<path fill="#66cdaa" stroke="black" d="M763.5,-108C763.5,-108 733.5,-108 733.5,-108 727.5,-108 721.5,-102 721.5,-96 721.5,-96 721.5,-84 721.5,-84 721.5,-78 727.5,-72 733.5,-72 733.5,-72 763.5,-72 763.5,-72 769.5,-72 775.5,-78 775.5,-84 775.5,-84 775.5,-96 775.5,-96 775.5,-102 769.5,-108 763.5,-108"/>
<text text-anchor="middle" x="748.5" y="-86.3" font-family="Times,serif" font-size="14.00">Name</text>
</g>
<!-- ast.Tuple object at 0x789100344750&#45;&gt;ast.Name object at 0x789100344b90 -->
<g id="edge67" class="edge">
<title>ast.Tuple object at 0x789100344750&#45;&gt;ast.Name object at 0x789100344b90</title>
<path fill="none" stroke="black" d="M839.13,-225.44C816.46,-217.74 785.19,-203.53 767.5,-180 754.18,-162.29 749.75,-137.27 748.47,-118.27"/>
<polygon fill="black" stroke="black" points="751.96,-117.99 748.04,-108.15 744.97,-118.28 751.96,-117.99"/>
</g>
<!-- ast.BinOp object at 0x789100344610 -->
<g id="node54" class="node">
<title>ast.BinOp object at 0x789100344610</title>
<path fill="#66cdaa" stroke="black" d="M818.5,-180C818.5,-180 788.5,-180 788.5,-180 782.5,-180 776.5,-174 776.5,-168 776.5,-168 776.5,-156 776.5,-156 776.5,-150 782.5,-144 788.5,-144 788.5,-144 818.5,-144 818.5,-144 824.5,-144 830.5,-150 830.5,-156 830.5,-156 830.5,-168 830.5,-168 830.5,-174 824.5,-180 818.5,-180"/>
<text text-anchor="middle" x="803.5" y="-158.3" font-family="Times,serif" font-size="14.00">BinOp</text>
</g>
<!-- ast.Tuple object at 0x789100344750&#45;&gt;ast.BinOp object at 0x789100344610 -->
<g id="edge69" class="edge">
<title>ast.Tuple object at 0x789100344750&#45;&gt;ast.BinOp object at 0x789100344610</title>
<path fill="none" stroke="black" d="M850.93,-215.7C843.3,-207.22 833.98,-196.86 825.62,-187.58"/>
<polygon fill="black" stroke="black" points="828.19,-185.2 818.89,-180.1 822.98,-189.88 828.19,-185.2"/>
</g>
<!-- ast.Name object at 0x789100344b90&#45;&gt;ast.Load object at 0x7890ff1add10 -->
<g id="edge68" class="edge">
<title>ast.Name object at 0x789100344b90&#45;&gt;ast.Load object at 0x7890ff1add10</title>
<path fill="none" stroke="black" d="M748.5,-71.7C748.5,-63.98 748.5,-54.71 748.5,-46.11"/>
<polygon fill="black" stroke="black" points="752,-46.1 748.5,-36.1 745,-46.1 752,-46.1"/>
</g>
<!-- ast.Name object at 0x789100344310 -->
<g id="node55" class="node">
<title>ast.Name object at 0x789100344310</title>
<path fill="#66cdaa" stroke="black" d="M907.5,-108C907.5,-108 877.5,-108 877.5,-108 871.5,-108 865.5,-102 865.5,-96 865.5,-96 865.5,-84 865.5,-84 865.5,-78 871.5,-72 877.5,-72 877.5,-72 907.5,-72 907.5,-72 913.5,-72 919.5,-78 919.5,-84 919.5,-84 919.5,-96 919.5,-96 919.5,-102 913.5,-108 907.5,-108"/>
<text text-anchor="middle" x="892.5" y="-86.3" font-family="Times,serif" font-size="14.00">Name</text>
</g>
<!-- ast.BinOp object at 0x789100344610&#45;&gt;ast.Name object at 0x789100344310 -->
<g id="edge70" class="edge">
<title>ast.BinOp object at 0x789100344610&#45;&gt;ast.Name object at 0x789100344310</title>
<path fill="none" stroke="black" d="M825.5,-143.7C836.71,-134.88 850.5,-124.03 862.65,-114.47"/>
<polygon fill="black" stroke="black" points="865.06,-117.04 870.75,-108.1 860.73,-111.54 865.06,-117.04"/>
</g>
<!-- ast.Add object at 0x7890ff1ae210 -->
<g id="node56" class="node">
<title>ast.Add object at 0x7890ff1ae210</title>
<path fill="#66cdaa" stroke="black" d="M979.5,-108C979.5,-108 949.5,-108 949.5,-108 943.5,-108 937.5,-102 937.5,-96 937.5,-96 937.5,-84 937.5,-84 937.5,-78 943.5,-72 949.5,-72 949.5,-72 979.5,-72 979.5,-72 985.5,-72 991.5,-78 991.5,-84 991.5,-84 991.5,-96 991.5,-96 991.5,-102 985.5,-108 979.5,-108"/>
<text text-anchor="middle" x="964.5" y="-86.3" font-family="Times,serif" font-size="14.00">Add</text>
</g>
<!-- ast.BinOp object at 0x789100344610&#45;&gt;ast.Add object at 0x7890ff1ae210 -->
<g id="edge72" class="edge">
<title>ast.BinOp object at 0x789100344610&#45;&gt;ast.Add object at 0x7890ff1ae210</title>
<path fill="none" stroke="black" d="M830.55,-148.02C833.56,-146.64 836.59,-145.28 839.5,-144 875.91,-128.05 887.8,-125.43 928.1,-108.05"/>
<polygon fill="black" stroke="black" points="929.68,-111.18 937.45,-103.98 926.88,-104.76 929.68,-111.18"/>
</g>
<!-- ast.Name object at 0x789100344d50 -->
<g id="node57" class="node">
<title>ast.Name object at 0x789100344d50</title>
<path fill="#66cdaa" stroke="black" d="M835.5,-108C835.5,-108 805.5,-108 805.5,-108 799.5,-108 793.5,-102 793.5,-96 793.5,-96 793.5,-84 793.5,-84 793.5,-78 799.5,-72 805.5,-72 805.5,-72 835.5,-72 835.5,-72 841.5,-72 847.5,-78 847.5,-84 847.5,-84 847.5,-96 847.5,-96 847.5,-102 841.5,-108 835.5,-108"/>
<text text-anchor="middle" x="820.5" y="-86.3" font-family="Times,serif" font-size="14.00">Name</text>
</g>
<!-- ast.BinOp object at 0x789100344610&#45;&gt;ast.Name object at 0x789100344d50 -->
<g id="edge73" class="edge">
<title>ast.BinOp object at 0x789100344610&#45;&gt;ast.Name object at 0x789100344d50</title>
<path fill="none" stroke="black" d="M807.7,-143.7C809.6,-135.9 811.88,-126.51 813.98,-117.83"/>
<polygon fill="black" stroke="black" points="817.39,-118.65 816.35,-108.1 810.58,-117 817.39,-118.65"/>
</g>
<!-- ast.Name object at 0x789100344310&#45;&gt;ast.Load object at 0x7890ff1add10 -->
<g id="edge71" class="edge">
<title>ast.Name object at 0x789100344310&#45;&gt;ast.Load object at 0x7890ff1add10</title>
<path fill="none" stroke="black" d="M865.41,-75.83C842.73,-64.81 810.14,-48.97 785.13,-36.81"/>
<polygon fill="black" stroke="black" points="786.48,-33.57 775.95,-32.35 783.42,-39.87 786.48,-33.57"/>
</g>
<!-- ast.Name object at 0x789100344d50&#45;&gt;ast.Load object at 0x7890ff1add10 -->
<g id="edge74" class="edge">
<title>ast.Name object at 0x789100344d50&#45;&gt;ast.Load object at 0x7890ff1add10</title>
<path fill="none" stroke="black" d="M802.7,-71.7C793.9,-63.14 783.12,-52.66 773.5,-43.3"/>
<polygon fill="black" stroke="black" points="775.7,-40.57 766.09,-36.1 770.82,-45.58 775.7,-40.57"/>
</g>
<!-- ast.Name object at 0x7891003446d0 -->
<g id="node59" class="node">
<title>ast.Name object at 0x7891003446d0</title>
<path fill="#66cdaa" stroke="black" d="M814.5,-324C814.5,-324 784.5,-324 784.5,-324 778.5,-324 772.5,-318 772.5,-312 772.5,-312 772.5,-300 772.5,-300 772.5,-294 778.5,-288 784.5,-288 784.5,-288 814.5,-288 814.5,-288 820.5,-288 826.5,-294 826.5,-300 826.5,-300 826.5,-312 826.5,-312 826.5,-318 820.5,-324 814.5,-324"/>
<text text-anchor="middle" x="799.5" y="-302.3" font-family="Times,serif" font-size="14.00">Name</text>
</g>
<!-- ast.Return object at 0x789100344dd0&#45;&gt;ast.Name object at 0x7891003446d0 -->
<g id="edge77" class="edge">
<title>ast.Return object at 0x789100344dd0&#45;&gt;ast.Name object at 0x7891003446d0</title>
<path fill="none" stroke="black" d="M880.32,-359.88C866.46,-350.81 849.26,-339.55 834.29,-329.76"/>
<polygon fill="black" stroke="black" points="836.06,-326.74 825.78,-324.19 832.23,-332.59 836.06,-326.74"/>
</g>
<!-- ast.Name object at 0x7891003446d0&#45;&gt;ast.Load object at 0x7890ff1add10 -->
<g id="edge78" class="edge">
<title>ast.Name object at 0x7891003446d0&#45;&gt;ast.Load object at 0x7890ff1add10</title>
<path fill="none" stroke="black" d="M788.99,-287.91C769.28,-254.72 727.4,-178.6 712.5,-108 709.2,-92.34 707.8,-87.29 712.5,-72 715.51,-62.22 721.01,-52.62 726.82,-44.33"/>
<polygon fill="black" stroke="black" points="729.69,-46.33 732.89,-36.23 724.09,-42.13 729.69,-46.33"/>
</g>
</g>
</svg>
