<?xml version="1.0" encoding="UTF-8" standalone="no"?>
<!DOCTYPE svg PUBLIC "-//W3C//DTD SVG 1.1//EN"
 "http://www.w3.org/Graphics/SVG/1.1/DTD/svg11.dtd">
<!-- Generated by graphviz version 2.50.0 (0)
 -->
<!-- Pages: 1 -->
<svg width="1027pt" height="476pt"
 viewBox="0.00 0.00 1027.00 476.00" xmlns="http://www.w3.org/2000/svg" xmlns:xlink="http://www.w3.org/1999/xlink">
<g id="graph0" class="graph" transform="scale(1 1) rotate(0) translate(4 472)">
<polygon fill="white" stroke="transparent" points="-4,4 -4,-472 1023,-472 1023,4 -4,4"/>
<!-- ast.Module object at 0x73d77fd2bf50 -->
<g id="node1" class="node">
<title>ast.Module object at 0x73d77fd2bf50</title>
<path fill="#66cdaa" stroke="black" d="M488,-468C488,-468 453,-468 453,-468 447,-468 441,-462 441,-456 441,-456 441,-444 441,-444 441,-438 447,-432 453,-432 453,-432 488,-432 488,-432 494,-432 500,-438 500,-444 500,-444 500,-456 500,-456 500,-462 494,-468 488,-468"/>
<text text-anchor="middle" x="470.5" y="-446.3" font-family="Times,serif" font-size="14.00">Module</text>
</g>
<!-- ast.FunctionDef object at 0x73d77fd2b990 -->
<g id="node2" class="node">
<title>ast.FunctionDef object at 0x73d77fd2b990</title>
<path fill="#66cdaa" stroke="black" d="M501,-396C501,-396 440,-396 440,-396 434,-396 428,-390 428,-384 428,-384 428,-372 428,-372 428,-366 434,-360 440,-360 440,-360 501,-360 501,-360 507,-360 513,-366 513,-372 513,-372 513,-384 513,-384 513,-390 507,-396 501,-396"/>
<text text-anchor="middle" x="470.5" y="-374.3" font-family="Times,serif" font-size="14.00">FunctionDef</text>
</g>
<!-- ast.Module object at 0x73d77fd2bf50&#45;&gt;ast.FunctionDef object at 0x73d77fd2b990 -->
<g id="edge1" class="edge">
<title>ast.Module object at 0x73d77fd2bf50&#45;&gt;ast.FunctionDef object at 0x73d77fd2b990</title>
<path fill="none" stroke="black" d="M470.5,-431.7C470.5,-423.98 470.5,-414.71 470.5,-406.11"/>
<polygon fill="black" stroke="black" points="474,-406.1 470.5,-396.1 467,-406.1 474,-406.1"/>
</g>
<!-- ast.arguments object at 0x73d77fd2b790 -->
<g id="node3" class="node">
<title>ast.arguments object at 0x73d77fd2b790</title>
<path fill="#66cdaa" stroke="black" d="M352.5,-324C352.5,-324 302.5,-324 302.5,-324 296.5,-324 290.5,-318 290.5,-312 290.5,-312 290.5,-300 290.5,-300 290.5,-294 296.5,-288 302.5,-288 302.5,-288 352.5,-288 352.5,-288 358.5,-288 364.5,-294 364.5,-300 364.5,-300 364.5,-312 364.5,-312 364.5,-318 358.5,-324 352.5,-324"/>
<text text-anchor="middle" x="327.5" y="-302.3" font-family="Times,serif" font-size="14.00">arguments</text>
</g>
<!-- ast.FunctionDef object at 0x73d77fd2b990&#45;&gt;ast.arguments object at 0x73d77fd2b790 -->
<g id="edge2" class="edge">
<title>ast.FunctionDef object at 0x73d77fd2b990&#45;&gt;ast.arguments object at 0x73d77fd2b790</title>
<path fill="none" stroke="black" d="M435.52,-359.88C416.3,-350.47 392.27,-338.71 371.76,-328.67"/>
<polygon fill="black" stroke="black" points="373.14,-325.44 362.62,-324.19 370.06,-331.73 373.14,-325.44"/>
</g>
<!-- ast.If object at 0x73d77fd2bbd0 -->
<g id="node5" class="node">
<title>ast.If object at 0x73d77fd2bbd0</title>
<path fill="#66cdaa" stroke="black" d="M485.5,-324C485.5,-324 455.5,-324 455.5,-324 449.5,-324 443.5,-318 443.5,-312 443.5,-312 443.5,-300 443.5,-300 443.5,-294 449.5,-288 455.5,-288 455.5,-288 485.5,-288 485.5,-288 491.5,-288 497.5,-294 497.5,-300 497.5,-300 497.5,-312 497.5,-312 497.5,-318 491.5,-324 485.5,-324"/>
<text text-anchor="middle" x="470.5" y="-302.3" font-family="Times,serif" font-size="14.00">If</text>
</g>
<!-- ast.FunctionDef object at 0x73d77fd2b990&#45;&gt;ast.If object at 0x73d77fd2bbd0 -->
<g id="edge4" class="edge">
<title>ast.FunctionDef object at 0x73d77fd2b990&#45;&gt;ast.If object at 0x73d77fd2bbd0</title>
<path fill="none" stroke="black" d="M470.5,-359.7C470.5,-351.98 470.5,-342.71 470.5,-334.11"/>
<polygon fill="black" stroke="black" points="474,-334.1 470.5,-324.1 467,-334.1 474,-334.1"/>
</g>
<!-- ast.Assign object at 0x73d77fd28c10 -->
<g id="node16" class="node">
<title>ast.Assign object at 0x73d77fd28c10</title>
<path fill="#66cdaa" stroke="black" d="M297.5,-252C297.5,-252 267.5,-252 267.5,-252 261.5,-252 255.5,-246 255.5,-240 255.5,-240 255.5,-228 255.5,-228 255.5,-222 261.5,-216 267.5,-216 267.5,-216 297.5,-216 297.5,-216 303.5,-216 309.5,-222 309.5,-228 309.5,-228 309.5,-240 309.5,-240 309.5,-246 303.5,-252 297.5,-252"/>
<text text-anchor="middle" x="282.5" y="-230.3" font-family="Times,serif" font-size="14.00">Assign</text>
</g>
<!-- ast.FunctionDef object at 0x73d77fd2b990&#45;&gt;ast.Assign object at 0x73d77fd28c10 -->
<g id="edge17" class="edge">
<title>ast.FunctionDef object at 0x73d77fd2b990&#45;&gt;ast.Assign object at 0x73d77fd28c10</title>
<path fill="none" stroke="black" d="M453.95,-359.74C435.38,-340.87 403.86,-310.37 373.5,-288 356.36,-275.37 335.99,-263.27 318.87,-253.82"/>
<polygon fill="black" stroke="black" points="320.19,-250.56 309.73,-248.86 316.85,-256.71 320.19,-250.56"/>
</g>
<!-- ast.Expr object at 0x73d77fd2a710 -->
<g id="node24" class="node">
<title>ast.Expr object at 0x73d77fd2a710</title>
<path fill="#66cdaa" stroke="black" d="M583.5,-324C583.5,-324 553.5,-324 553.5,-324 547.5,-324 541.5,-318 541.5,-312 541.5,-312 541.5,-300 541.5,-300 541.5,-294 547.5,-288 553.5,-288 553.5,-288 583.5,-288 583.5,-288 589.5,-288 595.5,-294 595.5,-300 595.5,-300 595.5,-312 595.5,-312 595.5,-318 589.5,-324 583.5,-324"/>
<text text-anchor="middle" x="568.5" y="-302.3" font-family="Times,serif" font-size="14.00">Expr</text>
</g>
<!-- ast.FunctionDef object at 0x73d77fd2b990&#45;&gt;ast.Expr object at 0x73d77fd2a710 -->
<g id="edge27" class="edge">
<title>ast.FunctionDef object at 0x73d77fd2b990&#45;&gt;ast.Expr object at 0x73d77fd2a710</title>
<path fill="none" stroke="black" d="M494.47,-359.88C507.05,-350.89 522.63,-339.76 536.25,-330.03"/>
<polygon fill="black" stroke="black" points="538.33,-332.85 544.43,-324.19 534.26,-327.15 538.33,-332.85"/>
</g>
<!-- ast.If object at 0x73d77fd29790 -->
<g id="node28" class="node">
<title>ast.If object at 0x73d77fd29790</title>
<path fill="#66cdaa" stroke="black" d="M824.5,-324C824.5,-324 794.5,-324 794.5,-324 788.5,-324 782.5,-318 782.5,-312 782.5,-312 782.5,-300 782.5,-300 782.5,-294 788.5,-288 794.5,-288 794.5,-288 824.5,-288 824.5,-288 830.5,-288 836.5,-294 836.5,-300 836.5,-300 836.5,-312 836.5,-312 836.5,-318 830.5,-324 824.5,-324"/>
<text text-anchor="middle" x="809.5" y="-302.3" font-family="Times,serif" font-size="14.00">If</text>
</g>
<!-- ast.FunctionDef object at 0x73d77fd2b990&#45;&gt;ast.If object at 0x73d77fd29790 -->
<g id="edge33" class="edge">
<title>ast.FunctionDef object at 0x73d77fd2b990&#45;&gt;ast.If object at 0x73d77fd29790</title>
<path fill="none" stroke="black" d="M513.09,-368.21C580.13,-354.36 709.16,-327.72 772.53,-314.63"/>
<polygon fill="black" stroke="black" points="773.4,-318.03 782.49,-312.58 771.98,-311.17 773.4,-318.03"/>
</g>
<!-- ast.arg object at 0x73d77fd2bad0 -->
<g id="node4" class="node">
<title>ast.arg object at 0x73d77fd2bad0</title>
<path fill="#66cdaa" stroke="black" d="M225.5,-252C225.5,-252 195.5,-252 195.5,-252 189.5,-252 183.5,-246 183.5,-240 183.5,-240 183.5,-228 183.5,-228 183.5,-222 189.5,-216 195.5,-216 195.5,-216 225.5,-216 225.5,-216 231.5,-216 237.5,-222 237.5,-228 237.5,-228 237.5,-240 237.5,-240 237.5,-246 231.5,-252 225.5,-252"/>
<text text-anchor="middle" x="210.5" y="-230.3" font-family="Times,serif" font-size="14.00">arg</text>
</g>
<!-- ast.arguments object at 0x73d77fd2b790&#45;&gt;ast.arg object at 0x73d77fd2bad0 -->
<g id="edge3" class="edge">
<title>ast.arguments object at 0x73d77fd2b790&#45;&gt;ast.arg object at 0x73d77fd2bad0</title>
<path fill="none" stroke="black" d="M298.88,-287.88C283.12,-278.45 263.42,-266.66 246.61,-256.61"/>
<polygon fill="black" stroke="black" points="248,-253.36 237.62,-251.23 244.4,-259.36 248,-253.36"/>
</g>
<!-- ast.Compare object at 0x73d77fd2bc50 -->
<g id="node6" class="node">
<title>ast.Compare object at 0x73d77fd2bc50</title>
<path fill="#66cdaa" stroke="black" d="M463,-252C463,-252 420,-252 420,-252 414,-252 408,-246 408,-240 408,-240 408,-228 408,-228 408,-222 414,-216 420,-216 420,-216 463,-216 463,-216 469,-216 475,-222 475,-228 475,-228 475,-240 475,-240 475,-246 469,-252 463,-252"/>
<text text-anchor="middle" x="441.5" y="-230.3" font-family="Times,serif" font-size="14.00">Compare</text>
</g>
<!-- ast.If object at 0x73d77fd2bbd0&#45;&gt;ast.Compare object at 0x73d77fd2bc50 -->
<g id="edge5" class="edge">
<title>ast.If object at 0x73d77fd2bbd0&#45;&gt;ast.Compare object at 0x73d77fd2bc50</title>
<path fill="none" stroke="black" d="M463.33,-287.7C460.07,-279.81 456.13,-270.3 452.5,-261.55"/>
<polygon fill="black" stroke="black" points="455.65,-260 448.59,-252.1 449.18,-262.68 455.65,-260"/>
</g>
<!-- ast.Return object at 0x73d77fd29850 -->
<g id="node14" class="node">
<title>ast.Return object at 0x73d77fd29850</title>
<path fill="#66cdaa" stroke="black" d="M557.5,-252C557.5,-252 527.5,-252 527.5,-252 521.5,-252 515.5,-246 515.5,-240 515.5,-240 515.5,-228 515.5,-228 515.5,-222 521.5,-216 527.5,-216 527.5,-216 557.5,-216 557.5,-216 563.5,-216 569.5,-222 569.5,-228 569.5,-228 569.5,-240 569.5,-240 569.5,-246 563.5,-252 557.5,-252"/>
<text text-anchor="middle" x="542.5" y="-230.3" font-family="Times,serif" font-size="14.00">Return</text>
</g>
<!-- ast.If object at 0x73d77fd2bbd0&#45;&gt;ast.Return object at 0x73d77fd29850 -->
<g id="edge15" class="edge">
<title>ast.If object at 0x73d77fd2bbd0&#45;&gt;ast.Return object at 0x73d77fd29850</title>
<path fill="none" stroke="black" d="M488.3,-287.7C497.1,-279.14 507.88,-268.66 517.5,-259.3"/>
<polygon fill="black" stroke="black" points="520.18,-261.58 524.91,-252.1 515.3,-256.57 520.18,-261.58"/>
</g>
<!-- ast.Constant object at 0x73d77fd2bcd0 -->
<g id="node7" class="node">
<title>ast.Constant object at 0x73d77fd2bcd0</title>
<path fill="#66cdaa" stroke="black" d="M287,-180C287,-180 246,-180 246,-180 240,-180 234,-174 234,-168 234,-168 234,-156 234,-156 234,-150 240,-144 246,-144 246,-144 287,-144 287,-144 293,-144 299,-150 299,-156 299,-156 299,-168 299,-168 299,-174 293,-180 287,-180"/>
<text text-anchor="middle" x="266.5" y="-158.3" font-family="Times,serif" font-size="14.00">Constant</text>
</g>
<!-- ast.Compare object at 0x73d77fd2bc50&#45;&gt;ast.Constant object at 0x73d77fd2bcd0 -->
<g id="edge6" class="edge">
<title>ast.Compare object at 0x73d77fd2bc50&#45;&gt;ast.Constant object at 0x73d77fd2bcd0</title>
<path fill="none" stroke="black" d="M407.85,-219.87C382.72,-210.02 347.33,-196.07 308.54,-180.4"/>
<polygon fill="black" stroke="black" points="309.74,-177.1 299.15,-176.6 307.11,-183.59 309.74,-177.1"/>
</g>
<!-- ast.Lt object at 0x73d867a48bd0 -->
<g id="node8" class="node">
<title>ast.Lt object at 0x73d867a48bd0</title>
<path fill="#66cdaa" stroke="black" d="M514.5,-180C514.5,-180 484.5,-180 484.5,-180 478.5,-180 472.5,-174 472.5,-168 472.5,-168 472.5,-156 472.5,-156 472.5,-150 478.5,-144 484.5,-144 484.5,-144 514.5,-144 514.5,-144 520.5,-144 526.5,-150 526.5,-156 526.5,-156 526.5,-168 526.5,-168 526.5,-174 520.5,-180 514.5,-180"/>
<text text-anchor="middle" x="499.5" y="-158.3" font-family="Times,serif" font-size="14.00">Lt</text>
</g>
<!-- ast.Compare object at 0x73d77fd2bc50&#45;&gt;ast.Lt object at 0x73d867a48bd0 -->
<g id="edge7" class="edge">
<title>ast.Compare object at 0x73d77fd2bc50&#45;&gt;ast.Lt object at 0x73d867a48bd0</title>
<path fill="none" stroke="black" d="M449.92,-215.7C456.07,-207.22 464.46,-196.86 472.65,-187.58"/>
<polygon fill="black" stroke="black" points="475.31,-189.86 479.43,-180.1 470.12,-185.16 475.31,-189.86"/>
</g>
<!-- ast.Compare object at 0x73d77fd2bc50&#45;&gt;ast.Lt object at 0x73d867a48bd0 -->
<g id="edge8" class="edge">
<title>ast.Compare object at 0x73d77fd2bc50&#45;&gt;ast.Lt object at 0x73d867a48bd0</title>
<path fill="none" stroke="black" d="M461.75,-215.7C469.49,-207.39 478.07,-197.28 485.18,-188.14"/>
<polygon fill="black" stroke="black" points="488.01,-190.2 491.22,-180.1 482.41,-185.99 488.01,-190.2"/>
</g>
<!-- ast.Call object at 0x73d77fd2bd90 -->
<g id="node9" class="node">
<title>ast.Call object at 0x73d77fd2bd90</title>
<path fill="#66cdaa" stroke="black" d="M442.5,-180C442.5,-180 412.5,-180 412.5,-180 406.5,-180 400.5,-174 400.5,-168 400.5,-168 400.5,-156 400.5,-156 400.5,-150 406.5,-144 412.5,-144 412.5,-144 442.5,-144 442.5,-144 448.5,-144 454.5,-150 454.5,-156 454.5,-156 454.5,-168 454.5,-168 454.5,-174 448.5,-180 442.5,-180"/>
<text text-anchor="middle" x="427.5" y="-158.3" font-family="Times,serif" font-size="14.00">Call</text>
</g>
<!-- ast.Compare object at 0x73d77fd2bc50&#45;&gt;ast.Call object at 0x73d77fd2bd90 -->
<g id="edge9" class="edge">
<title>ast.Compare object at 0x73d77fd2bc50&#45;&gt;ast.Call object at 0x73d77fd2bd90</title>
<path fill="none" stroke="black" d="M438.04,-215.7C436.5,-207.98 434.64,-198.71 432.92,-190.11"/>
<polygon fill="black" stroke="black" points="436.31,-189.22 430.92,-180.1 429.45,-190.6 436.31,-189.22"/>
</g>
<!-- ast.Constant object at 0x73d77fd294d0 -->
<g id="node13" class="node">
<title>ast.Constant object at 0x73d77fd294d0</title>
<path fill="#66cdaa" stroke="black" d="M370,-180C370,-180 329,-180 329,-180 323,-180 317,-174 317,-168 317,-168 317,-156 317,-156 317,-150 323,-144 329,-144 329,-144 370,-144 370,-144 376,-144 382,-150 382,-156 382,-156 382,-168 382,-168 382,-174 376,-180 370,-180"/>
<text text-anchor="middle" x="349.5" y="-158.3" font-family="Times,serif" font-size="14.00">Constant</text>
</g>
<!-- ast.Compare object at 0x73d77fd2bc50&#45;&gt;ast.Constant object at 0x73d77fd294d0 -->
<g id="edge14" class="edge">
<title>ast.Compare object at 0x73d77fd2bc50&#45;&gt;ast.Constant object at 0x73d77fd294d0</title>
<path fill="none" stroke="black" d="M418.76,-215.7C407.06,-206.8 392.64,-195.82 379.99,-186.2"/>
<polygon fill="black" stroke="black" points="382.06,-183.37 371.98,-180.1 377.82,-188.94 382.06,-183.37"/>
</g>
<!-- ast.Name object at 0x73d77fd2bdd0 -->
<g id="node10" class="node">
<title>ast.Name object at 0x73d77fd2bdd0</title>
<path fill="#66cdaa" stroke="black" d="M442.5,-108C442.5,-108 412.5,-108 412.5,-108 406.5,-108 400.5,-102 400.5,-96 400.5,-96 400.5,-84 400.5,-84 400.5,-78 406.5,-72 412.5,-72 412.5,-72 442.5,-72 442.5,-72 448.5,-72 454.5,-78 454.5,-84 454.5,-84 454.5,-96 454.5,-96 454.5,-102 448.5,-108 442.5,-108"/>
<text text-anchor="middle" x="427.5" y="-86.3" font-family="Times,serif" font-size="14.00">Name</text>
</g>
<!-- ast.Call object at 0x73d77fd2bd90&#45;&gt;ast.Name object at 0x73d77fd2bdd0 -->
<g id="edge10" class="edge">
<title>ast.Call object at 0x73d77fd2bd90&#45;&gt;ast.Name object at 0x73d77fd2bdd0</title>
<path fill="none" stroke="black" d="M427.5,-143.7C427.5,-135.98 427.5,-126.71 427.5,-118.11"/>
<polygon fill="black" stroke="black" points="431,-118.1 427.5,-108.1 424,-118.1 431,-118.1"/>
</g>
<!-- ast.Name object at 0x73d77fd2ae90 -->
<g id="node12" class="node">
<title>ast.Name object at 0x73d77fd2ae90</title>
<path fill="#66cdaa" stroke="black" d="M514.5,-108C514.5,-108 484.5,-108 484.5,-108 478.5,-108 472.5,-102 472.5,-96 472.5,-96 472.5,-84 472.5,-84 472.5,-78 478.5,-72 484.5,-72 484.5,-72 514.5,-72 514.5,-72 520.5,-72 526.5,-78 526.5,-84 526.5,-84 526.5,-96 526.5,-96 526.5,-102 520.5,-108 514.5,-108"/>
<text text-anchor="middle" x="499.5" y="-86.3" font-family="Times,serif" font-size="14.00">Name</text>
</g>
<!-- ast.Call object at 0x73d77fd2bd90&#45;&gt;ast.Name object at 0x73d77fd2ae90 -->
<g id="edge12" class="edge">
<title>ast.Call object at 0x73d77fd2bd90&#45;&gt;ast.Name object at 0x73d77fd2ae90</title>
<path fill="none" stroke="black" d="M445.3,-143.7C454.1,-135.14 464.88,-124.66 474.5,-115.3"/>
<polygon fill="black" stroke="black" points="477.18,-117.58 481.91,-108.1 472.3,-112.57 477.18,-117.58"/>
</g>
<!-- ast.Load object at 0x73d867a3ba90 -->
<g id="node11" class="node">
<title>ast.Load object at 0x73d867a3ba90</title>
<path fill="#66cdaa" stroke="black" d="M596.5,-36C596.5,-36 566.5,-36 566.5,-36 560.5,-36 554.5,-30 554.5,-24 554.5,-24 554.5,-12 554.5,-12 554.5,-6 560.5,0 566.5,0 566.5,0 596.5,0 596.5,0 602.5,0 608.5,-6 608.5,-12 608.5,-12 608.5,-24 608.5,-24 608.5,-30 602.5,-36 596.5,-36"/>
<text text-anchor="middle" x="581.5" y="-14.3" font-family="Times,serif" font-size="14.00">Load</text>
</g>
<!-- ast.Name object at 0x73d77fd2bdd0&#45;&gt;ast.Load object at 0x73d867a3ba90 -->
<g id="edge11" class="edge">
<title>ast.Name object at 0x73d77fd2bdd0&#45;&gt;ast.Load object at 0x73d867a3ba90</title>
<path fill="none" stroke="black" d="M454.6,-76.13C457.6,-74.73 460.61,-73.33 463.5,-72 490.75,-59.45 521.69,-45.56 545.06,-35.15"/>
<polygon fill="black" stroke="black" points="546.54,-38.33 554.25,-31.06 543.69,-31.93 546.54,-38.33"/>
</g>
<!-- ast.Name object at 0x73d77fd2ae90&#45;&gt;ast.Load object at 0x73d867a3ba90 -->
<g id="edge13" class="edge">
<title>ast.Name object at 0x73d77fd2ae90&#45;&gt;ast.Load object at 0x73d867a3ba90</title>
<path fill="none" stroke="black" d="M519.77,-71.7C530,-62.97 542.56,-52.24 553.68,-42.75"/>
<polygon fill="black" stroke="black" points="556.13,-45.26 561.46,-36.1 551.59,-39.94 556.13,-45.26"/>
</g>
<!-- ast.Constant object at 0x73d77fd2aad0 -->
<g id="node15" class="node">
<title>ast.Constant object at 0x73d77fd2aad0</title>
<path fill="#66cdaa" stroke="black" d="M598,-180C598,-180 557,-180 557,-180 551,-180 545,-174 545,-168 545,-168 545,-156 545,-156 545,-150 551,-144 557,-144 557,-144 598,-144 598,-144 604,-144 610,-150 610,-156 610,-156 610,-168 610,-168 610,-174 604,-180 598,-180"/>
<text text-anchor="middle" x="577.5" y="-158.3" font-family="Times,serif" font-size="14.00">Constant</text>
</g>
<!-- ast.Return object at 0x73d77fd29850&#45;&gt;ast.Constant object at 0x73d77fd2aad0 -->
<g id="edge16" class="edge">
<title>ast.Return object at 0x73d77fd29850&#45;&gt;ast.Constant object at 0x73d77fd2aad0</title>
<path fill="none" stroke="black" d="M551.15,-215.7C555.14,-207.73 559.95,-198.1 564.37,-189.26"/>
<polygon fill="black" stroke="black" points="567.61,-190.61 568.95,-180.1 561.35,-187.48 567.61,-190.61"/>
</g>
<!-- ast.Name object at 0x73d77fd28590 -->
<g id="node17" class="node">
<title>ast.Name object at 0x73d77fd28590</title>
<path fill="#66cdaa" stroke="black" d="M203.5,-180C203.5,-180 173.5,-180 173.5,-180 167.5,-180 161.5,-174 161.5,-168 161.5,-168 161.5,-156 161.5,-156 161.5,-150 167.5,-144 173.5,-144 173.5,-144 203.5,-144 203.5,-144 209.5,-144 215.5,-150 215.5,-156 215.5,-156 215.5,-168 215.5,-168 215.5,-174 209.5,-180 203.5,-180"/>
<text text-anchor="middle" x="188.5" y="-158.3" font-family="Times,serif" font-size="14.00">Name</text>
</g>
<!-- ast.Assign object at 0x73d77fd28c10&#45;&gt;ast.Name object at 0x73d77fd28590 -->
<g id="edge18" class="edge">
<title>ast.Assign object at 0x73d77fd28c10&#45;&gt;ast.Name object at 0x73d77fd28590</title>
<path fill="none" stroke="black" d="M259.26,-215.7C247.31,-206.8 232.58,-195.82 219.65,-186.2"/>
<polygon fill="black" stroke="black" points="221.58,-183.27 211.47,-180.1 217.4,-188.88 221.58,-183.27"/>
</g>
<!-- ast.Subscript object at 0x73d77fd2a850 -->
<g id="node19" class="node">
<title>ast.Subscript object at 0x73d77fd2a850</title>
<path fill="#66cdaa" stroke="black" d="M131.5,-180C131.5,-180 87.5,-180 87.5,-180 81.5,-180 75.5,-174 75.5,-168 75.5,-168 75.5,-156 75.5,-156 75.5,-150 81.5,-144 87.5,-144 87.5,-144 131.5,-144 131.5,-144 137.5,-144 143.5,-150 143.5,-156 143.5,-156 143.5,-168 143.5,-168 143.5,-174 137.5,-180 131.5,-180"/>
<text text-anchor="middle" x="109.5" y="-158.3" font-family="Times,serif" font-size="14.00">Subscript</text>
</g>
<!-- ast.Assign object at 0x73d77fd28c10&#45;&gt;ast.Subscript object at 0x73d77fd2a850 -->
<g id="edge20" class="edge">
<title>ast.Assign object at 0x73d77fd28c10&#45;&gt;ast.Subscript object at 0x73d77fd2a850</title>
<path fill="none" stroke="black" d="M255.47,-219.97C252.46,-218.6 249.42,-217.25 246.5,-216 208.09,-199.6 195.81,-196.59 153.3,-180.27"/>
<polygon fill="black" stroke="black" points="154.34,-176.92 143.75,-176.58 151.82,-183.45 154.34,-176.92"/>
</g>
<!-- ast.Store object at 0x73d867a3bb10 -->
<g id="node18" class="node">
<title>ast.Store object at 0x73d867a3bb10</title>
<path fill="#66cdaa" stroke="black" d="M270.5,-108C270.5,-108 240.5,-108 240.5,-108 234.5,-108 228.5,-102 228.5,-96 228.5,-96 228.5,-84 228.5,-84 228.5,-78 234.5,-72 240.5,-72 240.5,-72 270.5,-72 270.5,-72 276.5,-72 282.5,-78 282.5,-84 282.5,-84 282.5,-96 282.5,-96 282.5,-102 276.5,-108 270.5,-108"/>
<text text-anchor="middle" x="255.5" y="-86.3" font-family="Times,serif" font-size="14.00">Store</text>
</g>
<!-- ast.Name object at 0x73d77fd28590&#45;&gt;ast.Store object at 0x73d867a3bb10 -->
<g id="edge19" class="edge">
<title>ast.Name object at 0x73d77fd28590&#45;&gt;ast.Store object at 0x73d867a3bb10</title>
<path fill="none" stroke="black" d="M205.06,-143.7C213.18,-135.22 223.09,-124.86 231.97,-115.58"/>
<polygon fill="black" stroke="black" points="234.74,-117.75 239.13,-108.1 229.69,-112.91 234.74,-117.75"/>
</g>
<!-- ast.Subscript object at 0x73d77fd2a850&#45;&gt;ast.Load object at 0x73d867a3ba90 -->
<g id="edge26" class="edge">
<title>ast.Subscript object at 0x73d77fd2a850&#45;&gt;ast.Load object at 0x73d867a3ba90</title>
<path fill="none" stroke="black" d="M134.4,-143.82C148.54,-133.79 166.38,-120.65 181.5,-108 199.35,-93.08 198.57,-82.16 219.5,-72 276.37,-44.39 463.68,-27.67 544.18,-21.6"/>
<polygon fill="black" stroke="black" points="544.65,-25.08 554.36,-20.85 544.13,-18.1 544.65,-25.08"/>
</g>
<!-- ast.Name object at 0x73d77fd297d0 -->
<g id="node20" class="node">
<title>ast.Name object at 0x73d77fd297d0</title>
<path fill="#66cdaa" stroke="black" d="M160.5,-108C160.5,-108 130.5,-108 130.5,-108 124.5,-108 118.5,-102 118.5,-96 118.5,-96 118.5,-84 118.5,-84 118.5,-78 124.5,-72 130.5,-72 130.5,-72 160.5,-72 160.5,-72 166.5,-72 172.5,-78 172.5,-84 172.5,-84 172.5,-96 172.5,-96 172.5,-102 166.5,-108 160.5,-108"/>
<text text-anchor="middle" x="145.5" y="-86.3" font-family="Times,serif" font-size="14.00">Name</text>
</g>
<!-- ast.Subscript object at 0x73d77fd2a850&#45;&gt;ast.Name object at 0x73d77fd297d0 -->
<g id="edge21" class="edge">
<title>ast.Subscript object at 0x73d77fd2a850&#45;&gt;ast.Name object at 0x73d77fd297d0</title>
<path fill="none" stroke="black" d="M118.4,-143.7C122.5,-135.73 127.45,-126.1 131.99,-117.26"/>
<polygon fill="black" stroke="black" points="135.24,-118.6 136.7,-108.1 129.02,-115.4 135.24,-118.6"/>
</g>
<!-- ast.Slice object at 0x73d77fd28990 -->
<g id="node21" class="node">
<title>ast.Slice object at 0x73d77fd28990</title>
<path fill="#66cdaa" stroke="black" d="M88.5,-108C88.5,-108 58.5,-108 58.5,-108 52.5,-108 46.5,-102 46.5,-96 46.5,-96 46.5,-84 46.5,-84 46.5,-78 52.5,-72 58.5,-72 58.5,-72 88.5,-72 88.5,-72 94.5,-72 100.5,-78 100.5,-84 100.5,-84 100.5,-96 100.5,-96 100.5,-102 94.5,-108 88.5,-108"/>
<text text-anchor="middle" x="73.5" y="-86.3" font-family="Times,serif" font-size="14.00">Slice</text>
</g>
<!-- ast.Subscript object at 0x73d77fd2a850&#45;&gt;ast.Slice object at 0x73d77fd28990 -->
<g id="edge23" class="edge">
<title>ast.Subscript object at 0x73d77fd2a850&#45;&gt;ast.Slice object at 0x73d77fd28990</title>
<path fill="none" stroke="black" d="M100.6,-143.7C96.5,-135.73 91.55,-126.1 87.01,-117.26"/>
<polygon fill="black" stroke="black" points="89.98,-115.4 82.3,-108.1 83.76,-118.6 89.98,-115.4"/>
</g>
<!-- ast.Name object at 0x73d77fd297d0&#45;&gt;ast.Load object at 0x73d867a3ba90 -->
<g id="edge22" class="edge">
<title>ast.Name object at 0x73d77fd297d0&#45;&gt;ast.Load object at 0x73d867a3ba90</title>
<path fill="none" stroke="black" d="M172.5,-76.65C177.1,-74.88 181.89,-73.24 186.5,-72 314.86,-37.41 473.05,-24.89 543.98,-20.79"/>
<polygon fill="black" stroke="black" points="544.41,-24.27 554.2,-20.23 544.02,-17.28 544.41,-24.27"/>
</g>
<!-- ast.Constant object at 0x73d77fd2add0 -->
<g id="node22" class="node">
<title>ast.Constant object at 0x73d77fd2add0</title>
<path fill="#66cdaa" stroke="black" d="M53,-36C53,-36 12,-36 12,-36 6,-36 0,-30 0,-24 0,-24 0,-12 0,-12 0,-6 6,0 12,0 12,0 53,0 53,0 59,0 65,-6 65,-12 65,-12 65,-24 65,-24 65,-30 59,-36 53,-36"/>
<text text-anchor="middle" x="32.5" y="-14.3" font-family="Times,serif" font-size="14.00">Constant</text>
</g>
<!-- ast.Slice object at 0x73d77fd28990&#45;&gt;ast.Constant object at 0x73d77fd2add0 -->
<g id="edge24" class="edge">
<title>ast.Slice object at 0x73d77fd28990&#45;&gt;ast.Constant object at 0x73d77fd2add0</title>
<path fill="none" stroke="black" d="M63.37,-71.7C58.65,-63.64 52.94,-53.89 47.72,-44.98"/>
<polygon fill="black" stroke="black" points="50.59,-42.96 42.52,-36.1 44.55,-46.5 50.59,-42.96"/>
</g>
<!-- ast.Constant object at 0x73d77fd28a50 -->
<g id="node23" class="node">
<title>ast.Constant object at 0x73d77fd28a50</title>
<path fill="#66cdaa" stroke="black" d="M136,-36C136,-36 95,-36 95,-36 89,-36 83,-30 83,-24 83,-24 83,-12 83,-12 83,-6 89,0 95,0 95,0 136,0 136,0 142,0 148,-6 148,-12 148,-12 148,-24 148,-24 148,-30 142,-36 136,-36"/>
<text text-anchor="middle" x="115.5" y="-14.3" font-family="Times,serif" font-size="14.00">Constant</text>
</g>
<!-- ast.Slice object at 0x73d77fd28990&#45;&gt;ast.Constant object at 0x73d77fd28a50 -->
<g id="edge25" class="edge">
<title>ast.Slice object at 0x73d77fd28990&#45;&gt;ast.Constant object at 0x73d77fd28a50</title>
<path fill="none" stroke="black" d="M83.88,-71.7C88.76,-63.56 94.69,-53.69 100.08,-44.7"/>
<polygon fill="black" stroke="black" points="103.09,-46.48 105.24,-36.1 97.09,-42.88 103.09,-46.48"/>
</g>
<!-- ast.Call object at 0x73d77fd2a750 -->
<g id="node25" class="node">
<title>ast.Call object at 0x73d77fd2a750</title>
<path fill="#66cdaa" stroke="black" d="M663.5,-252C663.5,-252 633.5,-252 633.5,-252 627.5,-252 621.5,-246 621.5,-240 621.5,-240 621.5,-228 621.5,-228 621.5,-222 627.5,-216 633.5,-216 633.5,-216 663.5,-216 663.5,-216 669.5,-216 675.5,-222 675.5,-228 675.5,-228 675.5,-240 675.5,-240 675.5,-246 669.5,-252 663.5,-252"/>
<text text-anchor="middle" x="648.5" y="-230.3" font-family="Times,serif" font-size="14.00">Call</text>
</g>
<!-- ast.Expr object at 0x73d77fd2a710&#45;&gt;ast.Call object at 0x73d77fd2a750 -->
<g id="edge28" class="edge">
<title>ast.Expr object at 0x73d77fd2a710&#45;&gt;ast.Call object at 0x73d77fd2a750</title>
<path fill="none" stroke="black" d="M588.28,-287.7C598.25,-278.97 610.51,-268.24 621.36,-258.75"/>
<polygon fill="black" stroke="black" points="623.73,-261.32 628.95,-252.1 619.12,-256.06 623.73,-261.32"/>
</g>
<!-- ast.Attribute object at 0x73d77fd2a650 -->
<g id="node26" class="node">
<title>ast.Attribute object at 0x73d77fd2a650</title>
<path fill="#66cdaa" stroke="black" d="M681,-180C681,-180 640,-180 640,-180 634,-180 628,-174 628,-168 628,-168 628,-156 628,-156 628,-150 634,-144 640,-144 640,-144 681,-144 681,-144 687,-144 693,-150 693,-156 693,-156 693,-168 693,-168 693,-174 687,-180 681,-180"/>
<text text-anchor="middle" x="660.5" y="-158.3" font-family="Times,serif" font-size="14.00">Attribute</text>
</g>
<!-- ast.Call object at 0x73d77fd2a750&#45;&gt;ast.Attribute object at 0x73d77fd2a650 -->
<g id="edge29" class="edge">
<title>ast.Call object at 0x73d77fd2a750&#45;&gt;ast.Attribute object at 0x73d77fd2a650</title>
<path fill="none" stroke="black" d="M651.47,-215.7C652.79,-207.98 654.38,-198.71 655.85,-190.11"/>
<polygon fill="black" stroke="black" points="659.33,-190.55 657.57,-180.1 652.43,-189.37 659.33,-190.55"/>
</g>
<!-- ast.Attribute object at 0x73d77fd2a650&#45;&gt;ast.Load object at 0x73d867a3ba90 -->
<g id="edge32" class="edge">
<title>ast.Attribute object at 0x73d77fd2a650&#45;&gt;ast.Load object at 0x73d867a3ba90</title>
<path fill="none" stroke="black" d="M627.77,-145.34C605.75,-134.06 579.65,-118.95 573.5,-108 562.92,-89.17 566.22,-64.5 571.42,-45.91"/>
<polygon fill="black" stroke="black" points="574.79,-46.87 574.43,-36.28 568.11,-44.78 574.79,-46.87"/>
</g>
<!-- ast.Name object at 0x73d77fd29350 -->
<g id="node27" class="node">
<title>ast.Name object at 0x73d77fd29350</title>
<path fill="#66cdaa" stroke="black" d="M624.5,-108C624.5,-108 594.5,-108 594.5,-108 588.5,-108 582.5,-102 582.5,-96 582.5,-96 582.5,-84 582.5,-84 582.5,-78 588.5,-72 594.5,-72 594.5,-72 624.5,-72 624.5,-72 630.5,-72 636.5,-78 636.5,-84 636.5,-84 636.5,-96 636.5,-96 636.5,-102 630.5,-108 624.5,-108"/>
<text text-anchor="middle" x="609.5" y="-86.3" font-family="Times,serif" font-size="14.00">Name</text>
</g>
<!-- ast.Attribute object at 0x73d77fd2a650&#45;&gt;ast.Name object at 0x73d77fd29350 -->
<g id="edge30" class="edge">
<title>ast.Attribute object at 0x73d77fd2a650&#45;&gt;ast.Name object at 0x73d77fd29350</title>
<path fill="none" stroke="black" d="M647.89,-143.7C641.9,-135.47 634.62,-125.48 628.02,-116.42"/>
<polygon fill="black" stroke="black" points="630.68,-114.13 621.96,-108.1 625.02,-118.25 630.68,-114.13"/>
</g>
<!-- ast.Name object at 0x73d77fd29350&#45;&gt;ast.Load object at 0x73d867a3ba90 -->
<g id="edge31" class="edge">
<title>ast.Name object at 0x73d77fd29350&#45;&gt;ast.Load object at 0x73d867a3ba90</title>
<path fill="none" stroke="black" d="M602.58,-71.7C599.43,-63.81 595.62,-54.3 592.12,-45.55"/>
<polygon fill="black" stroke="black" points="595.31,-44.09 588.34,-36.1 588.81,-46.69 595.31,-44.09"/>
</g>
<!-- ast.Compare object at 0x73d77fd29750 -->
<g id="node29" class="node">
<title>ast.Compare object at 0x73d77fd29750</title>
<path fill="#66cdaa" stroke="black" d="M771,-252C771,-252 728,-252 728,-252 722,-252 716,-246 716,-240 716,-240 716,-228 716,-228 716,-222 722,-216 728,-216 728,-216 771,-216 771,-216 777,-216 783,-222 783,-228 783,-228 783,-240 783,-240 783,-246 777,-252 771,-252"/>
<text text-anchor="middle" x="749.5" y="-230.3" font-family="Times,serif" font-size="14.00">Compare</text>
</g>
<!-- ast.If object at 0x73d77fd29790&#45;&gt;ast.Compare object at 0x73d77fd29750 -->
<g id="edge34" class="edge">
<title>ast.If object at 0x73d77fd29790&#45;&gt;ast.Compare object at 0x73d77fd29750</title>
<path fill="none" stroke="black" d="M794.67,-287.7C787.48,-279.3 778.7,-269.07 770.81,-259.86"/>
<polygon fill="black" stroke="black" points="773.33,-257.42 764.16,-252.1 768.01,-261.97 773.33,-257.42"/>
</g>
<!-- ast.Return object at 0x73d77fd2ad10 -->
<g id="node34" class="node">
<title>ast.Return object at 0x73d77fd2ad10</title>
<path fill="#66cdaa" stroke="black" d="M984.5,-252C984.5,-252 954.5,-252 954.5,-252 948.5,-252 942.5,-246 942.5,-240 942.5,-240 942.5,-228 942.5,-228 942.5,-222 948.5,-216 954.5,-216 954.5,-216 984.5,-216 984.5,-216 990.5,-216 996.5,-222 996.5,-228 996.5,-228 996.5,-240 996.5,-240 996.5,-246 990.5,-252 984.5,-252"/>
<text text-anchor="middle" x="969.5" y="-230.3" font-family="Times,serif" font-size="14.00">Return</text>
</g>
<!-- ast.If object at 0x73d77fd29790&#45;&gt;ast.Return object at 0x73d77fd2ad10 -->
<g id="edge42" class="edge">
<title>ast.If object at 0x73d77fd29790&#45;&gt;ast.Return object at 0x73d77fd2ad10</title>
<path fill="none" stroke="black" d="M836.64,-293.13C863.16,-281.53 903.69,-263.79 933.01,-250.96"/>
<polygon fill="black" stroke="black" points="934.73,-254.03 942.49,-246.82 931.93,-247.62 934.73,-254.03"/>
</g>
<!-- ast.Return object at 0x73d77fd1af90 -->
<g id="node36" class="node">
<title>ast.Return object at 0x73d77fd1af90</title>
<path fill="#66cdaa" stroke="black" d="M885.5,-252C885.5,-252 855.5,-252 855.5,-252 849.5,-252 843.5,-246 843.5,-240 843.5,-240 843.5,-228 843.5,-228 843.5,-222 849.5,-216 855.5,-216 855.5,-216 885.5,-216 885.5,-216 891.5,-216 897.5,-222 897.5,-228 897.5,-228 897.5,-240 897.5,-240 897.5,-246 891.5,-252 885.5,-252"/>
<text text-anchor="middle" x="870.5" y="-230.3" font-family="Times,serif" font-size="14.00">Return</text>
</g>
<!-- ast.If object at 0x73d77fd29790&#45;&gt;ast.Return object at 0x73d77fd1af90 -->
<g id="edge44" class="edge">
<title>ast.If object at 0x73d77fd29790&#45;&gt;ast.Return object at 0x73d77fd1af90</title>
<path fill="none" stroke="black" d="M824.58,-287.7C831.89,-279.3 840.81,-269.07 848.84,-259.86"/>
<polygon fill="black" stroke="black" points="851.66,-261.94 855.59,-252.1 846.39,-257.34 851.66,-261.94"/>
</g>
<!-- ast.Compare object at 0x73d77fd29750&#45;&gt;ast.Lt object at 0x73d867a48bd0 -->
<g id="edge40" class="edge">
<title>ast.Compare object at 0x73d77fd29750&#45;&gt;ast.Lt object at 0x73d867a48bd0</title>
<path fill="none" stroke="black" d="M715.79,-224.06C705.74,-221.42 694.68,-218.56 684.5,-216 621.4,-200.13 601.52,-202.41 536.29,-179.93"/>
<polygon fill="black" stroke="black" points="537.37,-176.6 526.77,-176.58 535.05,-183.2 537.37,-176.6"/>
</g>
<!-- ast.Call object at 0x73d77fd29910 -->
<g id="node30" class="node">
<title>ast.Call object at 0x73d77fd29910</title>
<path fill="#66cdaa" stroke="black" d="M753.5,-180C753.5,-180 723.5,-180 723.5,-180 717.5,-180 711.5,-174 711.5,-168 711.5,-168 711.5,-156 711.5,-156 711.5,-150 717.5,-144 723.5,-144 723.5,-144 753.5,-144 753.5,-144 759.5,-144 765.5,-150 765.5,-156 765.5,-156 765.5,-168 765.5,-168 765.5,-174 759.5,-180 753.5,-180"/>
<text text-anchor="middle" x="738.5" y="-158.3" font-family="Times,serif" font-size="14.00">Call</text>
</g>
<!-- ast.Compare object at 0x73d77fd29750&#45;&gt;ast.Call object at 0x73d77fd29910 -->
<g id="edge35" class="edge">
<title>ast.Compare object at 0x73d77fd29750&#45;&gt;ast.Call object at 0x73d77fd29910</title>
<path fill="none" stroke="black" d="M746.78,-215.7C745.57,-207.98 744.11,-198.71 742.76,-190.11"/>
<polygon fill="black" stroke="black" points="746.2,-189.44 741.19,-180.1 739.28,-190.53 746.2,-189.44"/>
</g>
<!-- ast.Constant object at 0x73d77fd29990 -->
<g id="node33" class="node">
<title>ast.Constant object at 0x73d77fd29990</title>
<path fill="#66cdaa" stroke="black" d="M837,-180C837,-180 796,-180 796,-180 790,-180 784,-174 784,-168 784,-168 784,-156 784,-156 784,-150 790,-144 796,-144 796,-144 837,-144 837,-144 843,-144 849,-150 849,-156 849,-156 849,-168 849,-168 849,-174 843,-180 837,-180"/>
<text text-anchor="middle" x="816.5" y="-158.3" font-family="Times,serif" font-size="14.00">Constant</text>
</g>
<!-- ast.Compare object at 0x73d77fd29750&#45;&gt;ast.Constant object at 0x73d77fd29990 -->
<g id="edge41" class="edge">
<title>ast.Compare object at 0x73d77fd29750&#45;&gt;ast.Constant object at 0x73d77fd29990</title>
<path fill="none" stroke="black" d="M766.06,-215.7C774.18,-207.22 784.09,-196.86 792.97,-187.58"/>
<polygon fill="black" stroke="black" points="795.74,-189.75 800.13,-180.1 790.69,-184.91 795.74,-189.75"/>
</g>
<!-- ast.Name object at 0x73d77fd283d0 -->
<g id="node31" class="node">
<title>ast.Name object at 0x73d77fd283d0</title>
<path fill="#66cdaa" stroke="black" d="M696.5,-108C696.5,-108 666.5,-108 666.5,-108 660.5,-108 654.5,-102 654.5,-96 654.5,-96 654.5,-84 654.5,-84 654.5,-78 660.5,-72 666.5,-72 666.5,-72 696.5,-72 696.5,-72 702.5,-72 708.5,-78 708.5,-84 708.5,-84 708.5,-96 708.5,-96 708.5,-102 702.5,-108 696.5,-108"/>
<text text-anchor="middle" x="681.5" y="-86.3" font-family="Times,serif" font-size="14.00">Name</text>
</g>
<!-- ast.Call object at 0x73d77fd29910&#45;&gt;ast.Name object at 0x73d77fd283d0 -->
<g id="edge36" class="edge">
<title>ast.Call object at 0x73d77fd29910&#45;&gt;ast.Name object at 0x73d77fd283d0</title>
<path fill="none" stroke="black" d="M724.41,-143.7C717.58,-135.3 709.24,-125.07 701.74,-115.86"/>
<polygon fill="black" stroke="black" points="704.46,-113.65 695.43,-108.1 699.03,-118.07 704.46,-113.65"/>
</g>
<!-- ast.Name object at 0x73d77fd28f10 -->
<g id="node32" class="node">
<title>ast.Name object at 0x73d77fd28f10</title>
<path fill="#66cdaa" stroke="black" d="M768.5,-108C768.5,-108 738.5,-108 738.5,-108 732.5,-108 726.5,-102 726.5,-96 726.5,-96 726.5,-84 726.5,-84 726.5,-78 732.5,-72 738.5,-72 738.5,-72 768.5,-72 768.5,-72 774.5,-72 780.5,-78 780.5,-84 780.5,-84 780.5,-96 780.5,-96 780.5,-102 774.5,-108 768.5,-108"/>
<text text-anchor="middle" x="753.5" y="-86.3" font-family="Times,serif" font-size="14.00">Name</text>
</g>
<!-- ast.Call object at 0x73d77fd29910&#45;&gt;ast.Name object at 0x73d77fd28f10 -->
<g id="edge38" class="edge">
<title>ast.Call object at 0x73d77fd29910&#45;&gt;ast.Name object at 0x73d77fd28f10</title>
<path fill="none" stroke="black" d="M742.21,-143.7C743.86,-135.98 745.85,-126.71 747.69,-118.11"/>
<polygon fill="black" stroke="black" points="751.16,-118.62 749.83,-108.1 744.32,-117.15 751.16,-118.62"/>
</g>
<!-- ast.Name object at 0x73d77fd283d0&#45;&gt;ast.Load object at 0x73d867a3ba90 -->
<g id="edge37" class="edge">
<title>ast.Name object at 0x73d77fd283d0&#45;&gt;ast.Load object at 0x73d867a3ba90</title>
<path fill="none" stroke="black" d="M657.04,-71.88C644.2,-62.89 628.3,-51.76 614.41,-42.03"/>
<polygon fill="black" stroke="black" points="616.26,-39.06 606.06,-36.19 612.24,-44.79 616.26,-39.06"/>
</g>
<!-- ast.Name object at 0x73d77fd28f10&#45;&gt;ast.Load object at 0x73d867a3ba90 -->
<g id="edge39" class="edge">
<title>ast.Name object at 0x73d77fd28f10&#45;&gt;ast.Load object at 0x73d867a3ba90</title>
<path fill="none" stroke="black" d="M726.47,-75.99C723.45,-74.61 720.42,-73.26 717.5,-72 684.23,-57.68 645.71,-42.83 618.18,-32.5"/>
<polygon fill="black" stroke="black" points="619.15,-29.13 608.56,-28.91 616.71,-35.69 619.15,-29.13"/>
</g>
<!-- ast.Constant object at 0x73d77fd18990 -->
<g id="node35" class="node">
<title>ast.Constant object at 0x73d77fd18990</title>
<path fill="#66cdaa" stroke="black" d="M1007,-180C1007,-180 966,-180 966,-180 960,-180 954,-174 954,-168 954,-168 954,-156 954,-156 954,-150 960,-144 966,-144 966,-144 1007,-144 1007,-144 1013,-144 1019,-150 1019,-156 1019,-156 1019,-168 1019,-168 1019,-174 1013,-180 1007,-180"/>
<text text-anchor="middle" x="986.5" y="-158.3" font-family="Times,serif" font-size="14.00">Constant</text>
</g>
<!-- ast.Return object at 0x73d77fd2ad10&#45;&gt;ast.Constant object at 0x73d77fd18990 -->
<g id="edge43" class="edge">
<title>ast.Return object at 0x73d77fd2ad10&#45;&gt;ast.Constant object at 0x73d77fd18990</title>
<path fill="none" stroke="black" d="M973.7,-215.7C975.6,-207.9 977.88,-198.51 979.98,-189.83"/>
<polygon fill="black" stroke="black" points="983.39,-190.65 982.35,-180.1 976.58,-189 983.39,-190.65"/>
</g>
<!-- ast.Subscript object at 0x73d77fd18750 -->
<g id="node37" class="node">
<title>ast.Subscript object at 0x73d77fd18750</title>
<path fill="#66cdaa" stroke="black" d="M923.5,-180C923.5,-180 879.5,-180 879.5,-180 873.5,-180 867.5,-174 867.5,-168 867.5,-168 867.5,-156 867.5,-156 867.5,-150 873.5,-144 879.5,-144 879.5,-144 923.5,-144 923.5,-144 929.5,-144 935.5,-150 935.5,-156 935.5,-156 935.5,-168 935.5,-168 935.5,-174 929.5,-180 923.5,-180"/>
<text text-anchor="middle" x="901.5" y="-158.3" font-family="Times,serif" font-size="14.00">Subscript</text>
</g>
<!-- ast.Return object at 0x73d77fd1af90&#45;&gt;ast.Subscript object at 0x73d77fd18750 -->
<g id="edge45" class="edge">
<title>ast.Return object at 0x73d77fd1af90&#45;&gt;ast.Subscript object at 0x73d77fd18750</title>
<path fill="none" stroke="black" d="M878.16,-215.7C881.69,-207.73 885.96,-198.1 889.87,-189.26"/>
<polygon fill="black" stroke="black" points="893.08,-190.67 893.93,-180.1 886.68,-187.83 893.08,-190.67"/>
</g>
<!-- ast.Subscript object at 0x73d77fd18750&#45;&gt;ast.Load object at 0x73d867a3ba90 -->
<g id="edge49" class="edge">
<title>ast.Subscript object at 0x73d77fd18750&#45;&gt;ast.Load object at 0x73d867a3ba90</title>
<path fill="none" stroke="black" d="M875.86,-143.92C861.31,-133.92 842.98,-120.77 827.5,-108 809.56,-93.19 809.87,-83.23 789.5,-72 734.63,-41.74 662.11,-28.37 618.8,-22.75"/>
<polygon fill="black" stroke="black" points="619.06,-19.26 608.7,-21.52 618.2,-26.21 619.06,-19.26"/>
</g>
<!-- ast.Name object at 0x73d77fd18610 -->
<g id="node38" class="node">
<title>ast.Name object at 0x73d77fd18610</title>
<path fill="#66cdaa" stroke="black" d="M878.5,-108C878.5,-108 848.5,-108 848.5,-108 842.5,-108 836.5,-102 836.5,-96 836.5,-96 836.5,-84 836.5,-84 836.5,-78 842.5,-72 848.5,-72 848.5,-72 878.5,-72 878.5,-72 884.5,-72 890.5,-78 890.5,-84 890.5,-84 890.5,-96 890.5,-96 890.5,-102 884.5,-108 878.5,-108"/>
<text text-anchor="middle" x="863.5" y="-86.3" font-family="Times,serif" font-size="14.00">Name</text>
</g>
<!-- ast.Subscript object at 0x73d77fd18750&#45;&gt;ast.Name object at 0x73d77fd18610 -->
<g id="edge46" class="edge">
<title>ast.Subscript object at 0x73d77fd18750&#45;&gt;ast.Name object at 0x73d77fd18610</title>
<path fill="none" stroke="black" d="M892.11,-143.7C887.74,-135.64 882.44,-125.89 877.6,-116.98"/>
<polygon fill="black" stroke="black" points="880.63,-115.22 872.79,-108.1 874.48,-118.56 880.63,-115.22"/>
</g>
<!-- ast.Constant object at 0x73d77fd1bd90 -->
<g id="node39" class="node">
<title>ast.Constant object at 0x73d77fd1bd90</title>
<path fill="#66cdaa" stroke="black" d="M962,-108C962,-108 921,-108 921,-108 915,-108 909,-102 909,-96 909,-96 909,-84 909,-84 909,-78 915,-72 921,-72 921,-72 962,-72 962,-72 968,-72 974,-78 974,-84 974,-84 974,-96 974,-96 974,-102 968,-108 962,-108"/>
<text text-anchor="middle" x="941.5" y="-86.3" font-family="Times,serif" font-size="14.00">Constant</text>
</g>
<!-- ast.Subscript object at 0x73d77fd18750&#45;&gt;ast.Constant object at 0x73d77fd1bd90 -->
<g id="edge48" class="edge">
<title>ast.Subscript object at 0x73d77fd18750&#45;&gt;ast.Constant object at 0x73d77fd1bd90</title>
<path fill="none" stroke="black" d="M911.39,-143.7C915.99,-135.64 921.56,-125.89 926.65,-116.98"/>
<polygon fill="black" stroke="black" points="929.8,-118.52 931.73,-108.1 923.73,-115.05 929.8,-118.52"/>
</g>
<!-- ast.Name object at 0x73d77fd18610&#45;&gt;ast.Load object at 0x73d867a3ba90 -->
<g id="edge47" class="edge">
<title>ast.Name object at 0x73d77fd18610&#45;&gt;ast.Load object at 0x73d867a3ba90</title>
<path fill="none" stroke="black" d="M836.4,-76.98C831.81,-75.17 827.06,-73.43 822.5,-72 751.69,-49.72 666.32,-33.32 618.54,-25.05"/>
<polygon fill="black" stroke="black" points="619.1,-21.59 608.65,-23.36 617.92,-28.49 619.1,-21.59"/>
</g>
</g>
</svg>
