<?xml version="1.0" encoding="UTF-8" standalone="no"?>
<!DOCTYPE svg PUBLIC "-//W3C//DTD SVG 1.1//EN"
 "http://www.w3.org/Graphics/SVG/1.1/DTD/svg11.dtd">
<!-- Generated by graphviz version 2.50.0 (0)
 -->
<!-- Pages: 1 -->
<svg width="703pt" height="548pt"
 viewBox="0.00 0.00 702.50 548.00" xmlns="http://www.w3.org/2000/svg" xmlns:xlink="http://www.w3.org/1999/xlink">
<g id="graph0" class="graph" transform="scale(1 1) rotate(0) translate(4 544)">
<polygon fill="white" stroke="transparent" points="-4,4 -4,-544 698.5,-544 698.5,4 -4,4"/>
<!-- ast.Module object at 0x7a77cf403090 -->
<g id="node1" class="node">
<title>ast.Module object at 0x7a77cf403090</title>
<path fill="#66cdaa" stroke="black" d="M95.5,-540C95.5,-540 60.5,-540 60.5,-540 54.5,-540 48.5,-534 48.5,-528 48.5,-528 48.5,-516 48.5,-516 48.5,-510 54.5,-504 60.5,-504 60.5,-504 95.5,-504 95.5,-504 101.5,-504 107.5,-510 107.5,-516 107.5,-516 107.5,-528 107.5,-528 107.5,-534 101.5,-540 95.5,-540"/>
<text text-anchor="middle" x="78" y="-518.3" font-family="Times,serif" font-size="14.00">Module</text>
</g>
<!-- ast.FunctionDef object at 0x7a77cf403d10 -->
<g id="node2" class="node">
<title>ast.FunctionDef object at 0x7a77cf403d10</title>
<path fill="#66cdaa" stroke="black" d="M108.5,-468C108.5,-468 47.5,-468 47.5,-468 41.5,-468 35.5,-462 35.5,-456 35.5,-456 35.5,-444 35.5,-444 35.5,-438 41.5,-432 47.5,-432 47.5,-432 108.5,-432 108.5,-432 114.5,-432 120.5,-438 120.5,-444 120.5,-444 120.5,-456 120.5,-456 120.5,-462 114.5,-468 108.5,-468"/>
<text text-anchor="middle" x="78" y="-446.3" font-family="Times,serif" font-size="14.00">FunctionDef</text>
</g>
<!-- ast.Module object at 0x7a77cf403090&#45;&gt;ast.FunctionDef object at 0x7a77cf403d10 -->
<g id="edge1" class="edge">
<title>ast.Module object at 0x7a77cf403090&#45;&gt;ast.FunctionDef object at 0x7a77cf403d10</title>
<path fill="none" stroke="black" d="M78,-503.7C78,-495.98 78,-486.71 78,-478.11"/>
<polygon fill="black" stroke="black" points="81.5,-478.1 78,-468.1 74.5,-478.1 81.5,-478.1"/>
</g>
<!-- ast.arguments object at 0x7a77cf401910 -->
<g id="node3" class="node">
<title>ast.arguments object at 0x7a77cf401910</title>
<path fill="#66cdaa" stroke="black" d="M62,-396C62,-396 12,-396 12,-396 6,-396 0,-390 0,-384 0,-384 0,-372 0,-372 0,-366 6,-360 12,-360 12,-360 62,-360 62,-360 68,-360 74,-366 74,-372 74,-372 74,-384 74,-384 74,-390 68,-396 62,-396"/>
<text text-anchor="middle" x="37" y="-374.3" font-family="Times,serif" font-size="14.00">arguments</text>
</g>
<!-- ast.FunctionDef object at 0x7a77cf403d10&#45;&gt;ast.arguments object at 0x7a77cf401910 -->
<g id="edge2" class="edge">
<title>ast.FunctionDef object at 0x7a77cf403d10&#45;&gt;ast.arguments object at 0x7a77cf401910</title>
<path fill="none" stroke="black" d="M67.87,-431.7C63.15,-423.64 57.44,-413.89 52.22,-404.98"/>
<polygon fill="black" stroke="black" points="55.09,-402.96 47.02,-396.1 49.05,-406.5 55.09,-402.96"/>
</g>
<!-- ast.Return object at 0x7a77cf403ed0 -->
<g id="node5" class="node">
<title>ast.Return object at 0x7a77cf403ed0</title>
<path fill="#66cdaa" stroke="black" d="M134,-396C134,-396 104,-396 104,-396 98,-396 92,-390 92,-384 92,-384 92,-372 92,-372 92,-366 98,-360 104,-360 104,-360 134,-360 134,-360 140,-360 146,-366 146,-372 146,-372 146,-384 146,-384 146,-390 140,-396 134,-396"/>
<text text-anchor="middle" x="119" y="-374.3" font-family="Times,serif" font-size="14.00">Return</text>
</g>
<!-- ast.FunctionDef object at 0x7a77cf403d10&#45;&gt;ast.Return object at 0x7a77cf403ed0 -->
<g id="edge4" class="edge">
<title>ast.FunctionDef object at 0x7a77cf403d10&#45;&gt;ast.Return object at 0x7a77cf403ed0</title>
<path fill="none" stroke="black" d="M88.13,-431.7C92.85,-423.64 98.56,-413.89 103.78,-404.98"/>
<polygon fill="black" stroke="black" points="106.95,-406.5 108.98,-396.1 100.91,-402.96 106.95,-406.5"/>
</g>
<!-- ast.arg object at 0x7a77cf4020d0 -->
<g id="node4" class="node">
<title>ast.arg object at 0x7a77cf4020d0</title>
<path fill="#66cdaa" stroke="black" d="M52,-324C52,-324 22,-324 22,-324 16,-324 10,-318 10,-312 10,-312 10,-300 10,-300 10,-294 16,-288 22,-288 22,-288 52,-288 52,-288 58,-288 64,-294 64,-300 64,-300 64,-312 64,-312 64,-318 58,-324 52,-324"/>
<text text-anchor="middle" x="37" y="-302.3" font-family="Times,serif" font-size="14.00">arg</text>
</g>
<!-- ast.arguments object at 0x7a77cf401910&#45;&gt;ast.arg object at 0x7a77cf4020d0 -->
<g id="edge3" class="edge">
<title>ast.arguments object at 0x7a77cf401910&#45;&gt;ast.arg object at 0x7a77cf4020d0</title>
<path fill="none" stroke="black" d="M37,-359.7C37,-351.98 37,-342.71 37,-334.11"/>
<polygon fill="black" stroke="black" points="40.5,-334.1 37,-324.1 33.5,-334.1 40.5,-334.1"/>
</g>
<!-- ast.ListComp object at 0x7a77cf401e90 -->
<g id="node6" class="node">
<title>ast.ListComp object at 0x7a77cf401e90</title>
<path fill="#66cdaa" stroke="black" d="M142.5,-324C142.5,-324 95.5,-324 95.5,-324 89.5,-324 83.5,-318 83.5,-312 83.5,-312 83.5,-300 83.5,-300 83.5,-294 89.5,-288 95.5,-288 95.5,-288 142.5,-288 142.5,-288 148.5,-288 154.5,-294 154.5,-300 154.5,-300 154.5,-312 154.5,-312 154.5,-318 148.5,-324 142.5,-324"/>
<text text-anchor="middle" x="119" y="-302.3" font-family="Times,serif" font-size="14.00">ListComp</text>
</g>
<!-- ast.Return object at 0x7a77cf403ed0&#45;&gt;ast.ListComp object at 0x7a77cf401e90 -->
<g id="edge5" class="edge">
<title>ast.Return object at 0x7a77cf403ed0&#45;&gt;ast.ListComp object at 0x7a77cf401e90</title>
<path fill="none" stroke="black" d="M119,-359.7C119,-351.98 119,-342.71 119,-334.11"/>
<polygon fill="black" stroke="black" points="122.5,-334.1 119,-324.1 115.5,-334.1 122.5,-334.1"/>
</g>
<!-- ast.Name object at 0x7a77cf513e50 -->
<g id="node7" class="node">
<title>ast.Name object at 0x7a77cf513e50</title>
<path fill="#66cdaa" stroke="black" d="M80,-252C80,-252 50,-252 50,-252 44,-252 38,-246 38,-240 38,-240 38,-228 38,-228 38,-222 44,-216 50,-216 50,-216 80,-216 80,-216 86,-216 92,-222 92,-228 92,-228 92,-240 92,-240 92,-246 86,-252 80,-252"/>
<text text-anchor="middle" x="65" y="-230.3" font-family="Times,serif" font-size="14.00">Name</text>
</g>
<!-- ast.ListComp object at 0x7a77cf401e90&#45;&gt;ast.Name object at 0x7a77cf513e50 -->
<g id="edge6" class="edge">
<title>ast.ListComp object at 0x7a77cf401e90&#45;&gt;ast.Name object at 0x7a77cf513e50</title>
<path fill="none" stroke="black" d="M105.65,-287.7C99.24,-279.39 91.44,-269.28 84.39,-260.14"/>
<polygon fill="black" stroke="black" points="87.07,-257.88 78.19,-252.1 81.53,-262.16 87.07,-257.88"/>
</g>
<!-- ast.comprehension object at 0x7a77cf43cf10 -->
<g id="node9" class="node">
<title>ast.comprehension object at 0x7a77cf43cf10</title>
<path fill="#66cdaa" stroke="black" d="M210,-252C210,-252 134,-252 134,-252 128,-252 122,-246 122,-240 122,-240 122,-228 122,-228 122,-222 128,-216 134,-216 134,-216 210,-216 210,-216 216,-216 222,-222 222,-228 222,-228 222,-240 222,-240 222,-246 216,-252 210,-252"/>
<text text-anchor="middle" x="172" y="-230.3" font-family="Times,serif" font-size="14.00">comprehension</text>
</g>
<!-- ast.ListComp object at 0x7a77cf401e90&#45;&gt;ast.comprehension object at 0x7a77cf43cf10 -->
<g id="edge8" class="edge">
<title>ast.ListComp object at 0x7a77cf401e90&#45;&gt;ast.comprehension object at 0x7a77cf43cf10</title>
<path fill="none" stroke="black" d="M132.1,-287.7C138.39,-279.39 146.05,-269.28 152.96,-260.14"/>
<polygon fill="black" stroke="black" points="155.8,-262.19 159.05,-252.1 150.22,-257.96 155.8,-262.19"/>
</g>
<!-- ast.Load object at 0x7a791443bb50 -->
<g id="node8" class="node">
<title>ast.Load object at 0x7a791443bb50</title>
<path fill="#66cdaa" stroke="black" d="M464,-36C464,-36 434,-36 434,-36 428,-36 422,-30 422,-24 422,-24 422,-12 422,-12 422,-6 428,0 434,0 434,0 464,0 464,0 470,0 476,-6 476,-12 476,-12 476,-24 476,-24 476,-30 470,-36 464,-36"/>
<text text-anchor="middle" x="449" y="-14.3" font-family="Times,serif" font-size="14.00">Load</text>
</g>
<!-- ast.Name object at 0x7a77cf513e50&#45;&gt;ast.Load object at 0x7a791443bb50 -->
<g id="edge7" class="edge">
<title>ast.Name object at 0x7a77cf513e50&#45;&gt;ast.Load object at 0x7a791443bb50</title>
<path fill="none" stroke="black" d="M50.88,-215.68C26.39,-183.47 -17.97,-113.81 19,-72 44.87,-42.74 311.77,-26.08 411.59,-20.82"/>
<polygon fill="black" stroke="black" points="412.01,-24.31 421.82,-20.3 411.65,-17.32 412.01,-24.31"/>
</g>
<!-- ast.Name object at 0x7a77cf43d150 -->
<g id="node10" class="node">
<title>ast.Name object at 0x7a77cf43d150</title>
<path fill="#66cdaa" stroke="black" d="M148,-180C148,-180 118,-180 118,-180 112,-180 106,-174 106,-168 106,-168 106,-156 106,-156 106,-150 112,-144 118,-144 118,-144 148,-144 148,-144 154,-144 160,-150 160,-156 160,-156 160,-168 160,-168 160,-174 154,-180 148,-180"/>
<text text-anchor="middle" x="133" y="-158.3" font-family="Times,serif" font-size="14.00">Name</text>
</g>
<!-- ast.comprehension object at 0x7a77cf43cf10&#45;&gt;ast.Name object at 0x7a77cf43d150 -->
<g id="edge9" class="edge">
<title>ast.comprehension object at 0x7a77cf43cf10&#45;&gt;ast.Name object at 0x7a77cf43d150</title>
<path fill="none" stroke="black" d="M162.36,-215.7C157.87,-207.64 152.44,-197.89 147.48,-188.98"/>
<polygon fill="black" stroke="black" points="150.45,-187.14 142.53,-180.1 144.34,-190.54 150.45,-187.14"/>
</g>
<!-- ast.Subscript object at 0x7a77cf43d090 -->
<g id="node12" class="node">
<title>ast.Subscript object at 0x7a77cf43d090</title>
<path fill="#66cdaa" stroke="black" d="M560,-180C560,-180 516,-180 516,-180 510,-180 504,-174 504,-168 504,-168 504,-156 504,-156 504,-150 510,-144 516,-144 516,-144 560,-144 560,-144 566,-144 572,-150 572,-156 572,-156 572,-168 572,-168 572,-174 566,-180 560,-180"/>
<text text-anchor="middle" x="538" y="-158.3" font-family="Times,serif" font-size="14.00">Subscript</text>
</g>
<!-- ast.comprehension object at 0x7a77cf43cf10&#45;&gt;ast.Subscript object at 0x7a77cf43d090 -->
<g id="edge11" class="edge">
<title>ast.comprehension object at 0x7a77cf43cf10&#45;&gt;ast.Subscript object at 0x7a77cf43d090</title>
<path fill="none" stroke="black" d="M222.12,-223.41C294,-209.67 425.23,-184.57 493.72,-171.47"/>
<polygon fill="black" stroke="black" points="494.59,-174.87 503.76,-169.55 493.28,-167.99 494.59,-174.87"/>
</g>
<!-- ast.Compare object at 0x7a77cf43d210 -->
<g id="node17" class="node">
<title>ast.Compare object at 0x7a77cf43d210</title>
<path fill="#66cdaa" stroke="black" d="M259.5,-180C259.5,-180 216.5,-180 216.5,-180 210.5,-180 204.5,-174 204.5,-168 204.5,-168 204.5,-156 204.5,-156 204.5,-150 210.5,-144 216.5,-144 216.5,-144 259.5,-144 259.5,-144 265.5,-144 271.5,-150 271.5,-156 271.5,-156 271.5,-168 271.5,-168 271.5,-174 265.5,-180 259.5,-180"/>
<text text-anchor="middle" x="238" y="-158.3" font-family="Times,serif" font-size="14.00">Compare</text>
</g>
<!-- ast.comprehension object at 0x7a77cf43cf10&#45;&gt;ast.Compare object at 0x7a77cf43d210 -->
<g id="edge18" class="edge">
<title>ast.comprehension object at 0x7a77cf43cf10&#45;&gt;ast.Compare object at 0x7a77cf43d210</title>
<path fill="none" stroke="black" d="M188.31,-215.7C196.31,-207.22 206.07,-196.86 214.82,-187.58"/>
<polygon fill="black" stroke="black" points="217.56,-189.78 221.87,-180.1 212.47,-184.98 217.56,-189.78"/>
</g>
<!-- ast.Store object at 0x7a791443bbd0 -->
<g id="node11" class="node">
<title>ast.Store object at 0x7a791443bbd0</title>
<path fill="#66cdaa" stroke="black" d="M70,-108C70,-108 40,-108 40,-108 34,-108 28,-102 28,-96 28,-96 28,-84 28,-84 28,-78 34,-72 40,-72 40,-72 70,-72 70,-72 76,-72 82,-78 82,-84 82,-84 82,-96 82,-96 82,-102 76,-108 70,-108"/>
<text text-anchor="middle" x="55" y="-86.3" font-family="Times,serif" font-size="14.00">Store</text>
</g>
<!-- ast.Name object at 0x7a77cf43d150&#45;&gt;ast.Store object at 0x7a791443bbd0 -->
<g id="edge10" class="edge">
<title>ast.Name object at 0x7a77cf43d150&#45;&gt;ast.Store object at 0x7a791443bbd0</title>
<path fill="none" stroke="black" d="M113.72,-143.7C104.08,-135.05 92.27,-124.45 81.77,-115.03"/>
<polygon fill="black" stroke="black" points="83.84,-112.18 74.06,-108.1 79.16,-117.39 83.84,-112.18"/>
</g>
<!-- ast.Subscript object at 0x7a77cf43d090&#45;&gt;ast.Load object at 0x7a791443bb50 -->
<g id="edge17" class="edge">
<title>ast.Subscript object at 0x7a77cf43d090&#45;&gt;ast.Load object at 0x7a791443bb50</title>
<path fill="none" stroke="black" d="M545.45,-143.95C552.5,-124.99 560.2,-94.14 547,-72 533.77,-49.81 507.68,-36.35 485.74,-28.55"/>
<polygon fill="black" stroke="black" points="486.6,-25.15 476.01,-25.35 484.42,-31.8 486.6,-25.15"/>
</g>
<!-- ast.Name object at 0x7a77cf43d0d0 -->
<g id="node13" class="node">
<title>ast.Name object at 0x7a77cf43d0d0</title>
<path fill="#66cdaa" stroke="black" d="M526,-108C526,-108 496,-108 496,-108 490,-108 484,-102 484,-96 484,-96 484,-84 484,-84 484,-78 490,-72 496,-72 496,-72 526,-72 526,-72 532,-72 538,-78 538,-84 538,-84 538,-96 538,-96 538,-102 532,-108 526,-108"/>
<text text-anchor="middle" x="511" y="-86.3" font-family="Times,serif" font-size="14.00">Name</text>
</g>
<!-- ast.Subscript object at 0x7a77cf43d090&#45;&gt;ast.Name object at 0x7a77cf43d0d0 -->
<g id="edge12" class="edge">
<title>ast.Subscript object at 0x7a77cf43d090&#45;&gt;ast.Name object at 0x7a77cf43d0d0</title>
<path fill="none" stroke="black" d="M531.33,-143.7C528.29,-135.81 524.62,-126.3 521.24,-117.55"/>
<polygon fill="black" stroke="black" points="524.46,-116.17 517.6,-108.1 517.93,-118.69 524.46,-116.17"/>
</g>
<!-- ast.Slice object at 0x7a77cf43d1d0 -->
<g id="node14" class="node">
<title>ast.Slice object at 0x7a77cf43d1d0</title>
<path fill="#66cdaa" stroke="black" d="M636,-108C636,-108 606,-108 606,-108 600,-108 594,-102 594,-96 594,-96 594,-84 594,-84 594,-78 600,-72 606,-72 606,-72 636,-72 636,-72 642,-72 648,-78 648,-84 648,-84 648,-96 648,-96 648,-102 642,-108 636,-108"/>
<text text-anchor="middle" x="621" y="-86.3" font-family="Times,serif" font-size="14.00">Slice</text>
</g>
<!-- ast.Subscript object at 0x7a77cf43d090&#45;&gt;ast.Slice object at 0x7a77cf43d1d0 -->
<g id="edge14" class="edge">
<title>ast.Subscript object at 0x7a77cf43d090&#45;&gt;ast.Slice object at 0x7a77cf43d1d0</title>
<path fill="none" stroke="black" d="M558.52,-143.7C568.87,-134.97 581.59,-124.24 592.84,-114.75"/>
<polygon fill="black" stroke="black" points="595.33,-117.23 600.72,-108.1 590.82,-111.88 595.33,-117.23"/>
</g>
<!-- ast.Name object at 0x7a77cf43d0d0&#45;&gt;ast.Load object at 0x7a791443bb50 -->
<g id="edge13" class="edge">
<title>ast.Name object at 0x7a77cf43d0d0&#45;&gt;ast.Load object at 0x7a791443bb50</title>
<path fill="none" stroke="black" d="M495.67,-71.7C488.24,-63.3 479.18,-53.07 471.02,-43.86"/>
<polygon fill="black" stroke="black" points="473.4,-41.27 464.15,-36.1 468.16,-45.91 473.4,-41.27"/>
</g>
<!-- ast.Constant object at 0x7a77cf43d250 -->
<g id="node15" class="node">
<title>ast.Constant object at 0x7a77cf43d250</title>
<path fill="#66cdaa" stroke="black" d="M682.5,-36C682.5,-36 641.5,-36 641.5,-36 635.5,-36 629.5,-30 629.5,-24 629.5,-24 629.5,-12 629.5,-12 629.5,-6 635.5,0 641.5,0 641.5,0 682.5,0 682.5,0 688.5,0 694.5,-6 694.5,-12 694.5,-12 694.5,-24 694.5,-24 694.5,-30 688.5,-36 682.5,-36"/>
<text text-anchor="middle" x="662" y="-14.3" font-family="Times,serif" font-size="14.00">Constant</text>
</g>
<!-- ast.Slice object at 0x7a77cf43d1d0&#45;&gt;ast.Constant object at 0x7a77cf43d250 -->
<g id="edge15" class="edge">
<title>ast.Slice object at 0x7a77cf43d1d0&#45;&gt;ast.Constant object at 0x7a77cf43d250</title>
<path fill="none" stroke="black" d="M631.13,-71.7C635.85,-63.64 641.56,-53.89 646.78,-44.98"/>
<polygon fill="black" stroke="black" points="649.95,-46.5 651.98,-36.1 643.91,-42.96 649.95,-46.5"/>
</g>
<!-- ast.Constant object at 0x7a77cf43d110 -->
<g id="node16" class="node">
<title>ast.Constant object at 0x7a77cf43d110</title>
<path fill="#66cdaa" stroke="black" d="M599.5,-36C599.5,-36 558.5,-36 558.5,-36 552.5,-36 546.5,-30 546.5,-24 546.5,-24 546.5,-12 546.5,-12 546.5,-6 552.5,0 558.5,0 558.5,0 599.5,0 599.5,0 605.5,0 611.5,-6 611.5,-12 611.5,-12 611.5,-24 611.5,-24 611.5,-30 605.5,-36 599.5,-36"/>
<text text-anchor="middle" x="579" y="-14.3" font-family="Times,serif" font-size="14.00">Constant</text>
</g>
<!-- ast.Slice object at 0x7a77cf43d1d0&#45;&gt;ast.Constant object at 0x7a77cf43d110 -->
<g id="edge16" class="edge">
<title>ast.Slice object at 0x7a77cf43d1d0&#45;&gt;ast.Constant object at 0x7a77cf43d110</title>
<path fill="none" stroke="black" d="M610.62,-71.7C605.74,-63.56 599.81,-53.69 594.42,-44.7"/>
<polygon fill="black" stroke="black" points="597.41,-42.88 589.26,-36.1 591.41,-46.48 597.41,-42.88"/>
</g>
<!-- ast.Constant object at 0x7a77cf43fbd0 -->
<g id="node18" class="node">
<title>ast.Constant object at 0x7a77cf43fbd0</title>
<path fill="#66cdaa" stroke="black" d="M453.5,-108C453.5,-108 412.5,-108 412.5,-108 406.5,-108 400.5,-102 400.5,-96 400.5,-96 400.5,-84 400.5,-84 400.5,-78 406.5,-72 412.5,-72 412.5,-72 453.5,-72 453.5,-72 459.5,-72 465.5,-78 465.5,-84 465.5,-84 465.5,-96 465.5,-96 465.5,-102 459.5,-108 453.5,-108"/>
<text text-anchor="middle" x="433" y="-86.3" font-family="Times,serif" font-size="14.00">Constant</text>
</g>
<!-- ast.Compare object at 0x7a77cf43d210&#45;&gt;ast.Constant object at 0x7a77cf43fbd0 -->
<g id="edge19" class="edge">
<title>ast.Compare object at 0x7a77cf43d210&#45;&gt;ast.Constant object at 0x7a77cf43fbd0</title>
<path fill="none" stroke="black" d="M271.6,-149.91C300.72,-140.18 344.15,-125.37 390.44,-108.12"/>
<polygon fill="black" stroke="black" points="391.91,-111.31 400.05,-104.52 389.46,-104.76 391.91,-111.31"/>
</g>
<!-- ast.Lt object at 0x7a7914448c90 -->
<g id="node19" class="node">
<title>ast.Lt object at 0x7a7914448c90</title>
<path fill="#66cdaa" stroke="black" d="M142,-108C142,-108 112,-108 112,-108 106,-108 100,-102 100,-96 100,-96 100,-84 100,-84 100,-78 106,-72 112,-72 112,-72 142,-72 142,-72 148,-72 154,-78 154,-84 154,-84 154,-96 154,-96 154,-102 148,-108 142,-108"/>
<text text-anchor="middle" x="127" y="-86.3" font-family="Times,serif" font-size="14.00">Lt</text>
</g>
<!-- ast.Compare object at 0x7a77cf43d210&#45;&gt;ast.Lt object at 0x7a7914448c90 -->
<g id="edge20" class="edge">
<title>ast.Compare object at 0x7a77cf43d210&#45;&gt;ast.Lt object at 0x7a7914448c90</title>
<path fill="none" stroke="black" d="M210.85,-143.88C196.47,-134.81 178.62,-123.55 163.09,-113.76"/>
<polygon fill="black" stroke="black" points="164.58,-110.56 154.26,-108.19 160.85,-116.48 164.58,-110.56"/>
</g>
<!-- ast.LtE object at 0x7a7914448d10 -->
<g id="node20" class="node">
<title>ast.LtE object at 0x7a7914448d10</title>
<path fill="#66cdaa" stroke="black" d="M214,-108C214,-108 184,-108 184,-108 178,-108 172,-102 172,-96 172,-96 172,-84 172,-84 172,-78 178,-72 184,-72 184,-72 214,-72 214,-72 220,-72 226,-78 226,-84 226,-84 226,-96 226,-96 226,-102 220,-108 214,-108"/>
<text text-anchor="middle" x="199" y="-86.3" font-family="Times,serif" font-size="14.00">LtE</text>
</g>
<!-- ast.Compare object at 0x7a77cf43d210&#45;&gt;ast.LtE object at 0x7a7914448d10 -->
<g id="edge21" class="edge">
<title>ast.Compare object at 0x7a77cf43d210&#45;&gt;ast.LtE object at 0x7a7914448d10</title>
<path fill="none" stroke="black" d="M228.36,-143.7C223.87,-135.64 218.44,-125.89 213.48,-116.98"/>
<polygon fill="black" stroke="black" points="216.45,-115.14 208.53,-108.1 210.34,-118.54 216.45,-115.14"/>
</g>
<!-- ast.Name object at 0x7a77cf43f610 -->
<g id="node21" class="node">
<title>ast.Name object at 0x7a77cf43f610</title>
<path fill="#66cdaa" stroke="black" d="M370,-108C370,-108 340,-108 340,-108 334,-108 328,-102 328,-96 328,-96 328,-84 328,-84 328,-78 334,-72 340,-72 340,-72 370,-72 370,-72 376,-72 382,-78 382,-84 382,-84 382,-96 382,-96 382,-102 376,-108 370,-108"/>
<text text-anchor="middle" x="355" y="-86.3" font-family="Times,serif" font-size="14.00">Name</text>
</g>
<!-- ast.Compare object at 0x7a77cf43d210&#45;&gt;ast.Name object at 0x7a77cf43f610 -->
<g id="edge22" class="edge">
<title>ast.Compare object at 0x7a77cf43d210&#45;&gt;ast.Name object at 0x7a77cf43f610</title>
<path fill="none" stroke="black" d="M266.62,-143.88C282.38,-134.45 302.08,-122.66 318.89,-112.61"/>
<polygon fill="black" stroke="black" points="321.1,-115.36 327.88,-107.23 317.5,-109.36 321.1,-115.36"/>
</g>
<!-- ast.Constant object at 0x7a77cf43cc90 -->
<g id="node22" class="node">
<title>ast.Constant object at 0x7a77cf43cc90</title>
<path fill="#66cdaa" stroke="black" d="M297.5,-108C297.5,-108 256.5,-108 256.5,-108 250.5,-108 244.5,-102 244.5,-96 244.5,-96 244.5,-84 244.5,-84 244.5,-78 250.5,-72 256.5,-72 256.5,-72 297.5,-72 297.5,-72 303.5,-72 309.5,-78 309.5,-84 309.5,-84 309.5,-96 309.5,-96 309.5,-102 303.5,-108 297.5,-108"/>
<text text-anchor="middle" x="277" y="-86.3" font-family="Times,serif" font-size="14.00">Constant</text>
</g>
<!-- ast.Compare object at 0x7a77cf43d210&#45;&gt;ast.Constant object at 0x7a77cf43cc90 -->
<g id="edge24" class="edge">
<title>ast.Compare object at 0x7a77cf43d210&#45;&gt;ast.Constant object at 0x7a77cf43cc90</title>
<path fill="none" stroke="black" d="M247.64,-143.7C252.13,-135.64 257.56,-125.89 262.52,-116.98"/>
<polygon fill="black" stroke="black" points="265.66,-118.54 267.47,-108.1 259.55,-115.14 265.66,-118.54"/>
</g>
<!-- ast.Name object at 0x7a77cf43f610&#45;&gt;ast.Load object at 0x7a791443bb50 -->
<g id="edge23" class="edge">
<title>ast.Name object at 0x7a77cf43f610&#45;&gt;ast.Load object at 0x7a791443bb50</title>
<path fill="none" stroke="black" d="M378.24,-71.7C390.19,-62.8 404.92,-51.82 417.85,-42.2"/>
<polygon fill="black" stroke="black" points="420.1,-44.88 426.03,-36.1 415.92,-39.27 420.1,-44.88"/>
</g>
</g>
</svg>
