<?xml version="1.0" encoding="UTF-8" standalone="no"?>
<!DOCTYPE svg PUBLIC "-//W3C//DTD SVG 1.1//EN"
 "http://www.w3.org/Graphics/SVG/1.1/DTD/svg11.dtd">
<!-- Generated by graphviz version 2.50.0 (0)
 -->
<!-- Pages: 1 -->
<svg width="608pt" height="476pt"
 viewBox="0.00 0.00 608.00 476.00" xmlns="http://www.w3.org/2000/svg" xmlns:xlink="http://www.w3.org/1999/xlink">
<g id="graph0" class="graph" transform="scale(1 1) rotate(0) translate(4 472)">
<polygon fill="white" stroke="transparent" points="-4,4 -4,-472 604,-472 604,4 -4,4"/>
<!-- ast.Module object at 0x74b423883090 -->
<g id="node1" class="node">
<title>ast.Module object at 0x74b423883090</title>
<path fill="#66cdaa" stroke="black" d="M176.5,-468C176.5,-468 141.5,-468 141.5,-468 135.5,-468 129.5,-462 129.5,-456 129.5,-456 129.5,-444 129.5,-444 129.5,-438 135.5,-432 141.5,-432 141.5,-432 176.5,-432 176.5,-432 182.5,-432 188.5,-438 188.5,-444 188.5,-444 188.5,-456 188.5,-456 188.5,-462 182.5,-468 176.5,-468"/>
<text text-anchor="middle" x="159" y="-446.3" font-family="Times,serif" font-size="14.00">Module</text>
</g>
<!-- ast.FunctionDef object at 0x74b423883dd0 -->
<g id="node2" class="node">
<title>ast.FunctionDef object at 0x74b423883dd0</title>
<path fill="#66cdaa" stroke="black" d="M189.5,-396C189.5,-396 128.5,-396 128.5,-396 122.5,-396 116.5,-390 116.5,-384 116.5,-384 116.5,-372 116.5,-372 116.5,-366 122.5,-360 128.5,-360 128.5,-360 189.5,-360 189.5,-360 195.5,-360 201.5,-366 201.5,-372 201.5,-372 201.5,-384 201.5,-384 201.5,-390 195.5,-396 189.5,-396"/>
<text text-anchor="middle" x="159" y="-374.3" font-family="Times,serif" font-size="14.00">FunctionDef</text>
</g>
<!-- ast.Module object at 0x74b423883090&#45;&gt;ast.FunctionDef object at 0x74b423883dd0 -->
<g id="edge1" class="edge">
<title>ast.Module object at 0x74b423883090&#45;&gt;ast.FunctionDef object at 0x74b423883dd0</title>
<path fill="none" stroke="black" d="M159,-431.7C159,-423.98 159,-414.71 159,-406.11"/>
<polygon fill="black" stroke="black" points="162.5,-406.1 159,-396.1 155.5,-406.1 162.5,-406.1"/>
</g>
<!-- ast.arguments object at 0x74b4238805d0 -->
<g id="node3" class="node">
<title>ast.arguments object at 0x74b4238805d0</title>
<path fill="#66cdaa" stroke="black" d="M80,-324C80,-324 30,-324 30,-324 24,-324 18,-318 18,-312 18,-312 18,-300 18,-300 18,-294 24,-288 30,-288 30,-288 80,-288 80,-288 86,-288 92,-294 92,-300 92,-300 92,-312 92,-312 92,-318 86,-324 80,-324"/>
<text text-anchor="middle" x="55" y="-302.3" font-family="Times,serif" font-size="14.00">arguments</text>
</g>
<!-- ast.FunctionDef object at 0x74b423883dd0&#45;&gt;ast.arguments object at 0x74b4238805d0 -->
<g id="edge2" class="edge">
<title>ast.FunctionDef object at 0x74b423883dd0&#45;&gt;ast.arguments object at 0x74b4238805d0</title>
<path fill="none" stroke="black" d="M133.56,-359.88C120.21,-350.89 103.68,-339.76 89.22,-330.03"/>
<polygon fill="black" stroke="black" points="90.79,-326.87 80.54,-324.19 86.88,-332.68 90.79,-326.87"/>
</g>
<!-- ast.Assign object at 0x74b423880e10 -->
<g id="node5" class="node">
<title>ast.Assign object at 0x74b423880e10</title>
<path fill="#66cdaa" stroke="black" d="M127,-252C127,-252 97,-252 97,-252 91,-252 85,-246 85,-240 85,-240 85,-228 85,-228 85,-222 91,-216 97,-216 97,-216 127,-216 127,-216 133,-216 139,-222 139,-228 139,-228 139,-240 139,-240 139,-246 133,-252 127,-252"/>
<text text-anchor="middle" x="112" y="-230.3" font-family="Times,serif" font-size="14.00">Assign</text>
</g>
<!-- ast.FunctionDef object at 0x74b423883dd0&#45;&gt;ast.Assign object at 0x74b423880e10 -->
<g id="edge4" class="edge">
<title>ast.FunctionDef object at 0x74b423883dd0&#45;&gt;ast.Assign object at 0x74b423880e10</title>
<path fill="none" stroke="black" d="M153.33,-359.87C145.29,-335.56 130.48,-290.82 120.94,-262.01"/>
<polygon fill="black" stroke="black" points="124.15,-260.58 117.69,-252.19 117.51,-262.78 124.15,-260.58"/>
</g>
<!-- ast.If object at 0x74b423883590 -->
<g id="node14" class="node">
<title>ast.If object at 0x74b423883590</title>
<path fill="#66cdaa" stroke="black" d="M205,-324C205,-324 175,-324 175,-324 169,-324 163,-318 163,-312 163,-312 163,-300 163,-300 163,-294 169,-288 175,-288 175,-288 205,-288 205,-288 211,-288 217,-294 217,-300 217,-300 217,-312 217,-312 217,-318 211,-324 205,-324"/>
<text text-anchor="middle" x="190" y="-302.3" font-family="Times,serif" font-size="14.00">If</text>
</g>
<!-- ast.FunctionDef object at 0x74b423883dd0&#45;&gt;ast.If object at 0x74b423883590 -->
<g id="edge14" class="edge">
<title>ast.FunctionDef object at 0x74b423883dd0&#45;&gt;ast.If object at 0x74b423883590</title>
<path fill="none" stroke="black" d="M166.66,-359.7C170.19,-351.73 174.46,-342.1 178.37,-333.26"/>
<polygon fill="black" stroke="black" points="181.58,-334.67 182.43,-324.1 175.18,-331.83 181.58,-334.67"/>
</g>
<!-- ast.Return object at 0x74b423883190 -->
<g id="node20" class="node">
<title>ast.Return object at 0x74b423883190</title>
<path fill="#66cdaa" stroke="black" d="M338,-324C338,-324 308,-324 308,-324 302,-324 296,-318 296,-312 296,-312 296,-300 296,-300 296,-294 302,-288 308,-288 308,-288 338,-288 338,-288 344,-288 350,-294 350,-300 350,-300 350,-312 350,-312 350,-318 344,-324 338,-324"/>
<text text-anchor="middle" x="323" y="-302.3" font-family="Times,serif" font-size="14.00">Return</text>
</g>
<!-- ast.FunctionDef object at 0x74b423883dd0&#45;&gt;ast.Return object at 0x74b423883190 -->
<g id="edge21" class="edge">
<title>ast.FunctionDef object at 0x74b423883dd0&#45;&gt;ast.Return object at 0x74b423883190</title>
<path fill="none" stroke="black" d="M199.12,-359.88C225.69,-348.53 260.28,-333.77 286.16,-322.73"/>
<polygon fill="black" stroke="black" points="287.79,-325.84 295.61,-318.69 285.04,-319.4 287.79,-325.84"/>
</g>
<!-- ast.arg object at 0x74b423880a10 -->
<g id="node4" class="node">
<title>ast.arg object at 0x74b423880a10</title>
<path fill="#66cdaa" stroke="black" d="M55,-252C55,-252 25,-252 25,-252 19,-252 13,-246 13,-240 13,-240 13,-228 13,-228 13,-222 19,-216 25,-216 25,-216 55,-216 55,-216 61,-216 67,-222 67,-228 67,-228 67,-240 67,-240 67,-246 61,-252 55,-252"/>
<text text-anchor="middle" x="40" y="-230.3" font-family="Times,serif" font-size="14.00">arg</text>
</g>
<!-- ast.arguments object at 0x74b4238805d0&#45;&gt;ast.arg object at 0x74b423880a10 -->
<g id="edge3" class="edge">
<title>ast.arguments object at 0x74b4238805d0&#45;&gt;ast.arg object at 0x74b423880a10</title>
<path fill="none" stroke="black" d="M51.29,-287.7C49.64,-279.98 47.65,-270.71 45.81,-262.11"/>
<polygon fill="black" stroke="black" points="49.18,-261.15 43.67,-252.1 42.34,-262.62 49.18,-261.15"/>
</g>
<!-- ast.Name object at 0x74b423880a90 -->
<g id="node6" class="node">
<title>ast.Name object at 0x74b423880a90</title>
<path fill="#66cdaa" stroke="black" d="M42,-180C42,-180 12,-180 12,-180 6,-180 0,-174 0,-168 0,-168 0,-156 0,-156 0,-150 6,-144 12,-144 12,-144 42,-144 42,-144 48,-144 54,-150 54,-156 54,-156 54,-168 54,-168 54,-174 48,-180 42,-180"/>
<text text-anchor="middle" x="27" y="-158.3" font-family="Times,serif" font-size="14.00">Name</text>
</g>
<!-- ast.Assign object at 0x74b423880e10&#45;&gt;ast.Name object at 0x74b423880a90 -->
<g id="edge5" class="edge">
<title>ast.Assign object at 0x74b423880e10&#45;&gt;ast.Name object at 0x74b423880a90</title>
<path fill="none" stroke="black" d="M90.99,-215.7C80.28,-206.88 67.11,-196.03 55.5,-186.47"/>
<polygon fill="black" stroke="black" points="57.71,-183.76 47.77,-180.1 53.26,-189.16 57.71,-183.76"/>
</g>
<!-- ast.Subscript object at 0x74b423882f50 -->
<g id="node8" class="node">
<title>ast.Subscript object at 0x74b423882f50</title>
<path fill="#66cdaa" stroke="black" d="M128,-180C128,-180 84,-180 84,-180 78,-180 72,-174 72,-168 72,-168 72,-156 72,-156 72,-150 78,-144 84,-144 84,-144 128,-144 128,-144 134,-144 140,-150 140,-156 140,-156 140,-168 140,-168 140,-174 134,-180 128,-180"/>
<text text-anchor="middle" x="106" y="-158.3" font-family="Times,serif" font-size="14.00">Subscript</text>
</g>
<!-- ast.Assign object at 0x74b423880e10&#45;&gt;ast.Subscript object at 0x74b423882f50 -->
<g id="edge7" class="edge">
<title>ast.Assign object at 0x74b423880e10&#45;&gt;ast.Subscript object at 0x74b423882f50</title>
<path fill="none" stroke="black" d="M110.52,-215.7C109.86,-207.98 109.06,-198.71 108.32,-190.11"/>
<polygon fill="black" stroke="black" points="111.81,-189.77 107.47,-180.1 104.83,-190.37 111.81,-189.77"/>
</g>
<!-- ast.Store object at 0x74b53ba56c10 -->
<g id="node7" class="node">
<title>ast.Store object at 0x74b53ba56c10</title>
<path fill="#66cdaa" stroke="black" d="M42,-108C42,-108 12,-108 12,-108 6,-108 0,-102 0,-96 0,-96 0,-84 0,-84 0,-78 6,-72 12,-72 12,-72 42,-72 42,-72 48,-72 54,-78 54,-84 54,-84 54,-96 54,-96 54,-102 48,-108 42,-108"/>
<text text-anchor="middle" x="27" y="-86.3" font-family="Times,serif" font-size="14.00">Store</text>
</g>
<!-- ast.Name object at 0x74b423880a90&#45;&gt;ast.Store object at 0x74b53ba56c10 -->
<g id="edge6" class="edge">
<title>ast.Name object at 0x74b423880a90&#45;&gt;ast.Store object at 0x74b53ba56c10</title>
<path fill="none" stroke="black" d="M27,-143.7C27,-135.98 27,-126.71 27,-118.11"/>
<polygon fill="black" stroke="black" points="30.5,-118.1 27,-108.1 23.5,-118.1 30.5,-118.1"/>
</g>
<!-- ast.Name object at 0x74b423881250 -->
<g id="node9" class="node">
<title>ast.Name object at 0x74b423881250</title>
<path fill="#66cdaa" stroke="black" d="M288,-108C288,-108 258,-108 258,-108 252,-108 246,-102 246,-96 246,-96 246,-84 246,-84 246,-78 252,-72 258,-72 258,-72 288,-72 288,-72 294,-72 300,-78 300,-84 300,-84 300,-96 300,-96 300,-102 294,-108 288,-108"/>
<text text-anchor="middle" x="273" y="-86.3" font-family="Times,serif" font-size="14.00">Name</text>
</g>
<!-- ast.Subscript object at 0x74b423882f50&#45;&gt;ast.Name object at 0x74b423881250 -->
<g id="edge8" class="edge">
<title>ast.Subscript object at 0x74b423882f50&#45;&gt;ast.Name object at 0x74b423881250</title>
<path fill="none" stroke="black" d="M140.2,-146.67C168.23,-134.91 207.82,-118.32 236.47,-106.31"/>
<polygon fill="black" stroke="black" points="237.87,-109.52 245.74,-102.43 235.16,-103.07 237.87,-109.52"/>
</g>
<!-- ast.Load object at 0x74b53ba56b90 -->
<g id="node10" class="node">
<title>ast.Load object at 0x74b53ba56b90</title>
<path fill="#66cdaa" stroke="black" d="M430,-36C430,-36 400,-36 400,-36 394,-36 388,-30 388,-24 388,-24 388,-12 388,-12 388,-6 394,0 400,0 400,0 430,0 430,0 436,0 442,-6 442,-12 442,-12 442,-24 442,-24 442,-30 436,-36 430,-36"/>
<text text-anchor="middle" x="415" y="-14.3" font-family="Times,serif" font-size="14.00">Load</text>
</g>
<!-- ast.Subscript object at 0x74b423882f50&#45;&gt;ast.Load object at 0x74b53ba56b90 -->
<g id="edge13" class="edge">
<title>ast.Subscript object at 0x74b423882f50&#45;&gt;ast.Load object at 0x74b53ba56b90</title>
<path fill="none" stroke="black" d="M127,-143.7C151.89,-123.94 195.27,-91.8 237,-72 283.46,-49.95 341.13,-34.8 378,-26.52"/>
<polygon fill="black" stroke="black" points="378.8,-29.92 387.82,-24.36 377.3,-23.09 378.8,-29.92"/>
</g>
<!-- ast.Slice object at 0x74b423883410 -->
<g id="node11" class="node">
<title>ast.Slice object at 0x74b423883410</title>
<path fill="#66cdaa" stroke="black" d="M121,-108C121,-108 91,-108 91,-108 85,-108 79,-102 79,-96 79,-96 79,-84 79,-84 79,-78 85,-72 91,-72 91,-72 121,-72 121,-72 127,-72 133,-78 133,-84 133,-84 133,-96 133,-96 133,-102 127,-108 121,-108"/>
<text text-anchor="middle" x="106" y="-86.3" font-family="Times,serif" font-size="14.00">Slice</text>
</g>
<!-- ast.Subscript object at 0x74b423882f50&#45;&gt;ast.Slice object at 0x74b423883410 -->
<g id="edge10" class="edge">
<title>ast.Subscript object at 0x74b423882f50&#45;&gt;ast.Slice object at 0x74b423883410</title>
<path fill="none" stroke="black" d="M106,-143.7C106,-135.98 106,-126.71 106,-118.11"/>
<polygon fill="black" stroke="black" points="109.5,-118.1 106,-108.1 102.5,-118.1 109.5,-118.1"/>
</g>
<!-- ast.Name object at 0x74b423881250&#45;&gt;ast.Load object at 0x74b53ba56b90 -->
<g id="edge9" class="edge">
<title>ast.Name object at 0x74b423881250&#45;&gt;ast.Load object at 0x74b53ba56b90</title>
<path fill="none" stroke="black" d="M300.04,-75.67C322.31,-64.69 354.07,-49.03 378.57,-36.96"/>
<polygon fill="black" stroke="black" points="380.15,-40.08 387.57,-32.52 377.06,-33.8 380.15,-40.08"/>
</g>
<!-- ast.Constant object at 0x74b423882c90 -->
<g id="node12" class="node">
<title>ast.Constant object at 0x74b423882c90</title>
<path fill="#66cdaa" stroke="black" d="M85.5,-36C85.5,-36 44.5,-36 44.5,-36 38.5,-36 32.5,-30 32.5,-24 32.5,-24 32.5,-12 32.5,-12 32.5,-6 38.5,0 44.5,0 44.5,0 85.5,0 85.5,0 91.5,0 97.5,-6 97.5,-12 97.5,-12 97.5,-24 97.5,-24 97.5,-30 91.5,-36 85.5,-36"/>
<text text-anchor="middle" x="65" y="-14.3" font-family="Times,serif" font-size="14.00">Constant</text>
</g>
<!-- ast.Slice object at 0x74b423883410&#45;&gt;ast.Constant object at 0x74b423882c90 -->
<g id="edge11" class="edge">
<title>ast.Slice object at 0x74b423883410&#45;&gt;ast.Constant object at 0x74b423882c90</title>
<path fill="none" stroke="black" d="M95.87,-71.7C91.15,-63.64 85.44,-53.89 80.22,-44.98"/>
<polygon fill="black" stroke="black" points="83.09,-42.96 75.02,-36.1 77.05,-46.5 83.09,-42.96"/>
</g>
<!-- ast.Constant object at 0x74b423882510 -->
<g id="node13" class="node">
<title>ast.Constant object at 0x74b423882510</title>
<path fill="#66cdaa" stroke="black" d="M168.5,-36C168.5,-36 127.5,-36 127.5,-36 121.5,-36 115.5,-30 115.5,-24 115.5,-24 115.5,-12 115.5,-12 115.5,-6 121.5,0 127.5,0 127.5,0 168.5,0 168.5,0 174.5,0 180.5,-6 180.5,-12 180.5,-12 180.5,-24 180.5,-24 180.5,-30 174.5,-36 168.5,-36"/>
<text text-anchor="middle" x="148" y="-14.3" font-family="Times,serif" font-size="14.00">Constant</text>
</g>
<!-- ast.Slice object at 0x74b423883410&#45;&gt;ast.Constant object at 0x74b423882510 -->
<g id="edge12" class="edge">
<title>ast.Slice object at 0x74b423883410&#45;&gt;ast.Constant object at 0x74b423882510</title>
<path fill="none" stroke="black" d="M116.38,-71.7C121.26,-63.56 127.19,-53.69 132.58,-44.7"/>
<polygon fill="black" stroke="black" points="135.59,-46.48 137.74,-36.1 129.59,-42.88 135.59,-46.48"/>
</g>
<!-- ast.UnaryOp object at 0x74b423882710 -->
<g id="node15" class="node">
<title>ast.UnaryOp object at 0x74b423882710</title>
<path fill="#66cdaa" stroke="black" d="M290.5,-252C290.5,-252 247.5,-252 247.5,-252 241.5,-252 235.5,-246 235.5,-240 235.5,-240 235.5,-228 235.5,-228 235.5,-222 241.5,-216 247.5,-216 247.5,-216 290.5,-216 290.5,-216 296.5,-216 302.5,-222 302.5,-228 302.5,-228 302.5,-240 302.5,-240 302.5,-246 296.5,-252 290.5,-252"/>
<text text-anchor="middle" x="269" y="-230.3" font-family="Times,serif" font-size="14.00">UnaryOp</text>
</g>
<!-- ast.If object at 0x74b423883590&#45;&gt;ast.UnaryOp object at 0x74b423882710 -->
<g id="edge15" class="edge">
<title>ast.If object at 0x74b423883590&#45;&gt;ast.UnaryOp object at 0x74b423882710</title>
<path fill="none" stroke="black" d="M209.53,-287.7C219.38,-278.97 231.49,-268.24 242.2,-258.75"/>
<polygon fill="black" stroke="black" points="244.53,-261.36 249.7,-252.1 239.89,-256.12 244.53,-261.36"/>
</g>
<!-- ast.Return object at 0x74b423882190 -->
<g id="node18" class="node">
<title>ast.Return object at 0x74b423882190</title>
<path fill="#66cdaa" stroke="black" d="M205,-252C205,-252 175,-252 175,-252 169,-252 163,-246 163,-240 163,-240 163,-228 163,-228 163,-222 169,-216 175,-216 175,-216 205,-216 205,-216 211,-216 217,-222 217,-228 217,-228 217,-240 217,-240 217,-246 211,-252 205,-252"/>
<text text-anchor="middle" x="190" y="-230.3" font-family="Times,serif" font-size="14.00">Return</text>
</g>
<!-- ast.If object at 0x74b423883590&#45;&gt;ast.Return object at 0x74b423882190 -->
<g id="edge19" class="edge">
<title>ast.If object at 0x74b423883590&#45;&gt;ast.Return object at 0x74b423882190</title>
<path fill="none" stroke="black" d="M190,-287.7C190,-279.98 190,-270.71 190,-262.11"/>
<polygon fill="black" stroke="black" points="193.5,-262.1 190,-252.1 186.5,-262.1 193.5,-262.1"/>
</g>
<!-- ast.Not object at 0x74b53ba57910 -->
<g id="node16" class="node">
<title>ast.Not object at 0x74b53ba57910</title>
<path fill="#66cdaa" stroke="black" d="M284,-180C284,-180 254,-180 254,-180 248,-180 242,-174 242,-168 242,-168 242,-156 242,-156 242,-150 248,-144 254,-144 254,-144 284,-144 284,-144 290,-144 296,-150 296,-156 296,-156 296,-168 296,-168 296,-174 290,-180 284,-180"/>
<text text-anchor="middle" x="269" y="-158.3" font-family="Times,serif" font-size="14.00">Not</text>
</g>
<!-- ast.UnaryOp object at 0x74b423882710&#45;&gt;ast.Not object at 0x74b53ba57910 -->
<g id="edge16" class="edge">
<title>ast.UnaryOp object at 0x74b423882710&#45;&gt;ast.Not object at 0x74b53ba57910</title>
<path fill="none" stroke="black" d="M269,-215.7C269,-207.98 269,-198.71 269,-190.11"/>
<polygon fill="black" stroke="black" points="272.5,-190.1 269,-180.1 265.5,-190.1 272.5,-190.1"/>
</g>
<!-- ast.Name object at 0x74b423880b10 -->
<g id="node17" class="node">
<title>ast.Name object at 0x74b423880b10</title>
<path fill="#66cdaa" stroke="black" d="M369,-108C369,-108 339,-108 339,-108 333,-108 327,-102 327,-96 327,-96 327,-84 327,-84 327,-78 333,-72 339,-72 339,-72 369,-72 369,-72 375,-72 381,-78 381,-84 381,-84 381,-96 381,-96 381,-102 375,-108 369,-108"/>
<text text-anchor="middle" x="354" y="-86.3" font-family="Times,serif" font-size="14.00">Name</text>
</g>
<!-- ast.UnaryOp object at 0x74b423882710&#45;&gt;ast.Name object at 0x74b423880b10 -->
<g id="edge17" class="edge">
<title>ast.UnaryOp object at 0x74b423882710&#45;&gt;ast.Name object at 0x74b423880b10</title>
<path fill="none" stroke="black" d="M281.42,-215.6C288.56,-205.39 297.56,-192.14 305,-180 317.6,-159.45 330.72,-135.47 340.2,-117.58"/>
<polygon fill="black" stroke="black" points="343.51,-118.81 345.07,-108.33 337.32,-115.55 343.51,-118.81"/>
</g>
<!-- ast.Name object at 0x74b423880b10&#45;&gt;ast.Load object at 0x74b53ba56b90 -->
<g id="edge18" class="edge">
<title>ast.Name object at 0x74b423880b10&#45;&gt;ast.Load object at 0x74b53ba56b90</title>
<path fill="none" stroke="black" d="M369.08,-71.7C376.39,-63.3 385.31,-53.07 393.34,-43.86"/>
<polygon fill="black" stroke="black" points="396.16,-45.94 400.09,-36.1 390.89,-41.34 396.16,-45.94"/>
</g>
<!-- ast.Constant object at 0x74b423881a10 -->
<g id="node19" class="node">
<title>ast.Constant object at 0x74b423881a10</title>
<path fill="#66cdaa" stroke="black" d="M211.5,-180C211.5,-180 170.5,-180 170.5,-180 164.5,-180 158.5,-174 158.5,-168 158.5,-168 158.5,-156 158.5,-156 158.5,-150 164.5,-144 170.5,-144 170.5,-144 211.5,-144 211.5,-144 217.5,-144 223.5,-150 223.5,-156 223.5,-156 223.5,-168 223.5,-168 223.5,-174 217.5,-180 211.5,-180"/>
<text text-anchor="middle" x="191" y="-158.3" font-family="Times,serif" font-size="14.00">Constant</text>
</g>
<!-- ast.Return object at 0x74b423882190&#45;&gt;ast.Constant object at 0x74b423881a10 -->
<g id="edge20" class="edge">
<title>ast.Return object at 0x74b423882190&#45;&gt;ast.Constant object at 0x74b423881a10</title>
<path fill="none" stroke="black" d="M190.25,-215.7C190.36,-207.98 190.49,-198.71 190.61,-190.11"/>
<polygon fill="black" stroke="black" points="194.11,-190.15 190.76,-180.1 187.11,-190.05 194.11,-190.15"/>
</g>
<!-- ast.Subscript object at 0x74b423880790 -->
<g id="node21" class="node">
<title>ast.Subscript object at 0x74b423880790</title>
<path fill="#66cdaa" stroke="black" d="M437,-252C437,-252 393,-252 393,-252 387,-252 381,-246 381,-240 381,-240 381,-228 381,-228 381,-222 387,-216 393,-216 393,-216 437,-216 437,-216 443,-216 449,-222 449,-228 449,-228 449,-240 449,-240 449,-246 443,-252 437,-252"/>
<text text-anchor="middle" x="415" y="-230.3" font-family="Times,serif" font-size="14.00">Subscript</text>
</g>
<!-- ast.Return object at 0x74b423883190&#45;&gt;ast.Subscript object at 0x74b423880790 -->
<g id="edge22" class="edge">
<title>ast.Return object at 0x74b423883190&#45;&gt;ast.Subscript object at 0x74b423880790</title>
<path fill="none" stroke="black" d="M345.74,-287.7C357.44,-278.8 371.86,-267.82 384.51,-258.2"/>
<polygon fill="black" stroke="black" points="386.68,-260.94 392.52,-252.1 382.44,-255.37 386.68,-260.94"/>
</g>
<!-- ast.Subscript object at 0x74b423880790&#45;&gt;ast.Load object at 0x74b53ba56b90 -->
<g id="edge29" class="edge">
<title>ast.Subscript object at 0x74b423880790&#45;&gt;ast.Load object at 0x74b53ba56b90</title>
<path fill="none" stroke="black" d="M419.87,-215.98C422.56,-205.67 425.64,-192.19 427,-180 432.23,-133.2 425.43,-78.49 420.13,-46.4"/>
<polygon fill="black" stroke="black" points="423.56,-45.69 418.41,-36.43 416.66,-46.88 423.56,-45.69"/>
</g>
<!-- ast.Call object at 0x74b423880ed0 -->
<g id="node22" class="node">
<title>ast.Call object at 0x74b423880ed0</title>
<path fill="#66cdaa" stroke="black" d="M516,-180C516,-180 486,-180 486,-180 480,-180 474,-174 474,-168 474,-168 474,-156 474,-156 474,-150 480,-144 486,-144 486,-144 516,-144 516,-144 522,-144 528,-150 528,-156 528,-156 528,-168 528,-168 528,-174 522,-180 516,-180"/>
<text text-anchor="middle" x="501" y="-158.3" font-family="Times,serif" font-size="14.00">Call</text>
</g>
<!-- ast.Subscript object at 0x74b423880790&#45;&gt;ast.Call object at 0x74b423880ed0 -->
<g id="edge23" class="edge">
<title>ast.Subscript object at 0x74b423880790&#45;&gt;ast.Call object at 0x74b423880ed0</title>
<path fill="none" stroke="black" d="M436.26,-215.7C447.09,-206.88 460.42,-196.03 472.16,-186.47"/>
<polygon fill="black" stroke="black" points="474.44,-189.13 479.99,-180.1 470.02,-183.7 474.44,-189.13"/>
</g>
<!-- ast.Constant object at 0x74b423880b90 -->
<g id="node25" class="node">
<title>ast.Constant object at 0x74b423880b90</title>
<path fill="#66cdaa" stroke="black" d="M405.5,-180C405.5,-180 364.5,-180 364.5,-180 358.5,-180 352.5,-174 352.5,-168 352.5,-168 352.5,-156 352.5,-156 352.5,-150 358.5,-144 364.5,-144 364.5,-144 405.5,-144 405.5,-144 411.5,-144 417.5,-150 417.5,-156 417.5,-156 417.5,-168 417.5,-168 417.5,-174 411.5,-180 405.5,-180"/>
<text text-anchor="middle" x="385" y="-158.3" font-family="Times,serif" font-size="14.00">Constant</text>
</g>
<!-- ast.Subscript object at 0x74b423880790&#45;&gt;ast.Constant object at 0x74b423880b90 -->
<g id="edge28" class="edge">
<title>ast.Subscript object at 0x74b423880790&#45;&gt;ast.Constant object at 0x74b423880b90</title>
<path fill="none" stroke="black" d="M407.58,-215.7C404.21,-207.81 400.13,-198.3 396.38,-189.55"/>
<polygon fill="black" stroke="black" points="399.49,-187.92 392.33,-180.1 393.05,-190.67 399.49,-187.92"/>
</g>
<!-- ast.Name object at 0x74b423882550 -->
<g id="node23" class="node">
<title>ast.Name object at 0x74b423882550</title>
<path fill="#66cdaa" stroke="black" d="M516,-108C516,-108 486,-108 486,-108 480,-108 474,-102 474,-96 474,-96 474,-84 474,-84 474,-78 480,-72 486,-72 486,-72 516,-72 516,-72 522,-72 528,-78 528,-84 528,-84 528,-96 528,-96 528,-102 522,-108 516,-108"/>
<text text-anchor="middle" x="501" y="-86.3" font-family="Times,serif" font-size="14.00">Name</text>
</g>
<!-- ast.Call object at 0x74b423880ed0&#45;&gt;ast.Name object at 0x74b423882550 -->
<g id="edge24" class="edge">
<title>ast.Call object at 0x74b423880ed0&#45;&gt;ast.Name object at 0x74b423882550</title>
<path fill="none" stroke="black" d="M501,-143.7C501,-135.98 501,-126.71 501,-118.11"/>
<polygon fill="black" stroke="black" points="504.5,-118.1 501,-108.1 497.5,-118.1 504.5,-118.1"/>
</g>
<!-- ast.Name object at 0x74b423883a90 -->
<g id="node24" class="node">
<title>ast.Name object at 0x74b423883a90</title>
<path fill="#66cdaa" stroke="black" d="M588,-108C588,-108 558,-108 558,-108 552,-108 546,-102 546,-96 546,-96 546,-84 546,-84 546,-78 552,-72 558,-72 558,-72 588,-72 588,-72 594,-72 600,-78 600,-84 600,-84 600,-96 600,-96 600,-102 594,-108 588,-108"/>
<text text-anchor="middle" x="573" y="-86.3" font-family="Times,serif" font-size="14.00">Name</text>
</g>
<!-- ast.Call object at 0x74b423880ed0&#45;&gt;ast.Name object at 0x74b423883a90 -->
<g id="edge26" class="edge">
<title>ast.Call object at 0x74b423880ed0&#45;&gt;ast.Name object at 0x74b423883a90</title>
<path fill="none" stroke="black" d="M518.8,-143.7C527.6,-135.14 538.38,-124.66 548,-115.3"/>
<polygon fill="black" stroke="black" points="550.68,-117.58 555.41,-108.1 545.8,-112.57 550.68,-117.58"/>
</g>
<!-- ast.Name object at 0x74b423882550&#45;&gt;ast.Load object at 0x74b53ba56b90 -->
<g id="edge25" class="edge">
<title>ast.Name object at 0x74b423882550&#45;&gt;ast.Load object at 0x74b53ba56b90</title>
<path fill="none" stroke="black" d="M479.74,-71.7C468.91,-62.88 455.58,-52.03 443.84,-42.47"/>
<polygon fill="black" stroke="black" points="445.98,-39.7 436.01,-36.1 441.56,-45.13 445.98,-39.7"/>
</g>
<!-- ast.Name object at 0x74b423883a90&#45;&gt;ast.Load object at 0x74b53ba56b90 -->
<g id="edge27" class="edge">
<title>ast.Name object at 0x74b423883a90&#45;&gt;ast.Load object at 0x74b53ba56b90</title>
<path fill="none" stroke="black" d="M545.92,-76.1C542.91,-74.7 539.9,-73.31 537,-72 508.4,-59.04 475.77,-44.9 451.46,-34.48"/>
<polygon fill="black" stroke="black" points="452.81,-31.26 442.24,-30.55 450.06,-37.69 452.81,-31.26"/>
</g>
</g>
</svg>
