<?xml version="1.0" encoding="UTF-8" standalone="no"?>
<!DOCTYPE svg PUBLIC "-//W3C//DTD SVG 1.1//EN"
 "http://www.w3.org/Graphics/SVG/1.1/DTD/svg11.dtd">
<!-- Generated by graphviz version 2.50.0 (0)
 -->
<!-- Pages: 1 -->
<svg width="1890pt" height="548pt"
 viewBox="0.00 0.00 1890.00 548.00" xmlns="http://www.w3.org/2000/svg" xmlns:xlink="http://www.w3.org/1999/xlink">
<g id="graph0" class="graph" transform="scale(1 1) rotate(0) translate(4 544)">
<polygon fill="white" stroke="transparent" points="-4,4 -4,-544 1886,-544 1886,4 -4,4"/>
<!-- ast.Module object at 0x7031004fd750 -->
<g id="node1" class="node">
<title>ast.Module object at 0x7031004fd750</title>
<path fill="#66cdaa" stroke="black" d="M382,-540C382,-540 347,-540 347,-540 341,-540 335,-534 335,-528 335,-528 335,-516 335,-516 335,-510 341,-504 347,-504 347,-504 382,-504 382,-504 388,-504 394,-510 394,-516 394,-516 394,-528 394,-528 394,-534 388,-540 382,-540"/>
<text text-anchor="middle" x="364.5" y="-518.3" font-family="Times,serif" font-size="14.00">Module</text>
</g>
<!-- ast.FunctionDef object at 0x70310099bed0 -->
<g id="node2" class="node">
<title>ast.FunctionDef object at 0x70310099bed0</title>
<path fill="#66cdaa" stroke="black" d="M395,-468C395,-468 334,-468 334,-468 328,-468 322,-462 322,-456 322,-456 322,-444 322,-444 322,-438 328,-432 334,-432 334,-432 395,-432 395,-432 401,-432 407,-438 407,-444 407,-444 407,-456 407,-456 407,-462 401,-468 395,-468"/>
<text text-anchor="middle" x="364.5" y="-446.3" font-family="Times,serif" font-size="14.00">FunctionDef</text>
</g>
<!-- ast.Module object at 0x7031004fd750&#45;&gt;ast.FunctionDef object at 0x70310099bed0 -->
<g id="edge1" class="edge">
<title>ast.Module object at 0x7031004fd750&#45;&gt;ast.FunctionDef object at 0x70310099bed0</title>
<path fill="none" stroke="black" d="M364.5,-503.7C364.5,-495.98 364.5,-486.71 364.5,-478.11"/>
<polygon fill="black" stroke="black" points="368,-478.1 364.5,-468.1 361,-478.1 368,-478.1"/>
</g>
<!-- ast.arguments object at 0x7031003e1190 -->
<g id="node3" class="node">
<title>ast.arguments object at 0x7031003e1190</title>
<path fill="#66cdaa" stroke="black" d="M248.5,-396C248.5,-396 198.5,-396 198.5,-396 192.5,-396 186.5,-390 186.5,-384 186.5,-384 186.5,-372 186.5,-372 186.5,-366 192.5,-360 198.5,-360 198.5,-360 248.5,-360 248.5,-360 254.5,-360 260.5,-366 260.5,-372 260.5,-372 260.5,-384 260.5,-384 260.5,-390 254.5,-396 248.5,-396"/>
<text text-anchor="middle" x="223.5" y="-374.3" font-family="Times,serif" font-size="14.00">arguments</text>
</g>
<!-- ast.FunctionDef object at 0x70310099bed0&#45;&gt;ast.arguments object at 0x7031003e1190 -->
<g id="edge2" class="edge">
<title>ast.FunctionDef object at 0x70310099bed0&#45;&gt;ast.arguments object at 0x7031003e1190</title>
<path fill="none" stroke="black" d="M330.01,-431.88C311.06,-422.47 287.37,-410.71 267.14,-400.67"/>
<polygon fill="black" stroke="black" points="268.64,-397.5 258.13,-396.19 265.53,-403.77 268.64,-397.5"/>
</g>
<!-- ast.Assign object at 0x7031003e2810 -->
<g id="node5" class="node">
<title>ast.Assign object at 0x7031003e2810</title>
<path fill="#66cdaa" stroke="black" d="M163.5,-252C163.5,-252 133.5,-252 133.5,-252 127.5,-252 121.5,-246 121.5,-240 121.5,-240 121.5,-228 121.5,-228 121.5,-222 127.5,-216 133.5,-216 133.5,-216 163.5,-216 163.5,-216 169.5,-216 175.5,-222 175.5,-228 175.5,-228 175.5,-240 175.5,-240 175.5,-246 169.5,-252 163.5,-252"/>
<text text-anchor="middle" x="148.5" y="-230.3" font-family="Times,serif" font-size="14.00">Assign</text>
</g>
<!-- ast.FunctionDef object at 0x70310099bed0&#45;&gt;ast.Assign object at 0x7031003e2810 -->
<g id="edge4" class="edge">
<title>ast.FunctionDef object at 0x70310099bed0&#45;&gt;ast.Assign object at 0x7031003e2810</title>
<path fill="none" stroke="black" d="M353.47,-431.82C327.16,-390.88 262.69,-290.8 259.5,-288 237.85,-269.04 208.24,-255.36 185.04,-246.65"/>
<polygon fill="black" stroke="black" points="186.13,-243.32 175.54,-243.22 183.76,-249.9 186.13,-243.32"/>
</g>
<!-- ast.Assign object at 0x703100317410 -->
<g id="node12" class="node">
<title>ast.Assign object at 0x703100317410</title>
<path fill="#66cdaa" stroke="black" d="M307.5,-252C307.5,-252 277.5,-252 277.5,-252 271.5,-252 265.5,-246 265.5,-240 265.5,-240 265.5,-228 265.5,-228 265.5,-222 271.5,-216 277.5,-216 277.5,-216 307.5,-216 307.5,-216 313.5,-216 319.5,-222 319.5,-228 319.5,-228 319.5,-240 319.5,-240 319.5,-246 313.5,-252 307.5,-252"/>
<text text-anchor="middle" x="292.5" y="-230.3" font-family="Times,serif" font-size="14.00">Assign</text>
</g>
<!-- ast.FunctionDef object at 0x70310099bed0&#45;&gt;ast.Assign object at 0x703100317410 -->
<g id="edge11" class="edge">
<title>ast.FunctionDef object at 0x70310099bed0&#45;&gt;ast.Assign object at 0x703100317410</title>
<path fill="none" stroke="black" d="M358.73,-431.85C346.22,-394.68 316.54,-306.44 301.52,-261.82"/>
<polygon fill="black" stroke="black" points="304.8,-260.59 298.3,-252.23 298.17,-262.83 304.8,-260.59"/>
</g>
<!-- ast.Assign object at 0x7031002f2b50 -->
<g id="node17" class="node">
<title>ast.Assign object at 0x7031002f2b50</title>
<path fill="#66cdaa" stroke="black" d="M379.5,-252C379.5,-252 349.5,-252 349.5,-252 343.5,-252 337.5,-246 337.5,-240 337.5,-240 337.5,-228 337.5,-228 337.5,-222 343.5,-216 349.5,-216 349.5,-216 379.5,-216 379.5,-216 385.5,-216 391.5,-222 391.5,-228 391.5,-228 391.5,-240 391.5,-240 391.5,-246 385.5,-252 379.5,-252"/>
<text text-anchor="middle" x="364.5" y="-230.3" font-family="Times,serif" font-size="14.00">Assign</text>
</g>
<!-- ast.FunctionDef object at 0x70310099bed0&#45;&gt;ast.Assign object at 0x7031002f2b50 -->
<g id="edge18" class="edge">
<title>ast.FunctionDef object at 0x70310099bed0&#45;&gt;ast.Assign object at 0x7031002f2b50</title>
<path fill="none" stroke="black" d="M364.5,-431.85C364.5,-394.83 364.5,-307.18 364.5,-262.39"/>
<polygon fill="black" stroke="black" points="368,-262.23 364.5,-252.23 361,-262.23 368,-262.23"/>
</g>
<!-- ast.If object at 0x703100296090 -->
<g id="node24" class="node">
<title>ast.If object at 0x703100296090</title>
<path fill="#66cdaa" stroke="black" d="M1710.5,-324C1710.5,-324 1680.5,-324 1680.5,-324 1674.5,-324 1668.5,-318 1668.5,-312 1668.5,-312 1668.5,-300 1668.5,-300 1668.5,-294 1674.5,-288 1680.5,-288 1680.5,-288 1710.5,-288 1710.5,-288 1716.5,-288 1722.5,-294 1722.5,-300 1722.5,-300 1722.5,-312 1722.5,-312 1722.5,-318 1716.5,-324 1710.5,-324"/>
<text text-anchor="middle" x="1695.5" y="-302.3" font-family="Times,serif" font-size="14.00">If</text>
</g>
<!-- ast.FunctionDef object at 0x70310099bed0&#45;&gt;ast.If object at 0x703100296090 -->
<g id="edge28" class="edge">
<title>ast.FunctionDef object at 0x70310099bed0&#45;&gt;ast.If object at 0x703100296090</title>
<path fill="none" stroke="black" d="M407,-449.04C539.38,-448.62 955.79,-443.37 1296.5,-396 1431.51,-377.23 1588.51,-336.53 1658.52,-317.37"/>
<polygon fill="black" stroke="black" points="1659.5,-320.73 1668.21,-314.71 1657.64,-313.99 1659.5,-320.73"/>
</g>
<!-- ast.For object at 0x70310038c810 -->
<g id="node33" class="node">
<title>ast.For object at 0x70310038c810</title>
<path fill="#66cdaa" stroke="black" d="M646.5,-396C646.5,-396 616.5,-396 616.5,-396 610.5,-396 604.5,-390 604.5,-384 604.5,-384 604.5,-372 604.5,-372 604.5,-366 610.5,-360 616.5,-360 616.5,-360 646.5,-360 646.5,-360 652.5,-360 658.5,-366 658.5,-372 658.5,-372 658.5,-384 658.5,-384 658.5,-390 652.5,-396 646.5,-396"/>
<text text-anchor="middle" x="631.5" y="-374.3" font-family="Times,serif" font-size="14.00">For</text>
</g>
<!-- ast.FunctionDef object at 0x70310099bed0&#45;&gt;ast.For object at 0x70310038c810 -->
<g id="edge39" class="edge">
<title>ast.FunctionDef object at 0x70310099bed0&#45;&gt;ast.For object at 0x70310038c810</title>
<path fill="none" stroke="black" d="M407.1,-437.83C458.78,-424.28 545.08,-401.66 594.23,-388.77"/>
<polygon fill="black" stroke="black" points="595.35,-392.1 604.13,-386.18 593.57,-385.33 595.35,-392.1"/>
</g>
<!-- ast.Return object at 0x703100716e90 -->
<g id="node55" class="node">
<title>ast.Return object at 0x703100716e90</title>
<path fill="#66cdaa" stroke="black" d="M1275.5,-396C1275.5,-396 1245.5,-396 1245.5,-396 1239.5,-396 1233.5,-390 1233.5,-384 1233.5,-384 1233.5,-372 1233.5,-372 1233.5,-366 1239.5,-360 1245.5,-360 1245.5,-360 1275.5,-360 1275.5,-360 1281.5,-360 1287.5,-366 1287.5,-372 1287.5,-372 1287.5,-384 1287.5,-384 1287.5,-390 1281.5,-396 1275.5,-396"/>
<text text-anchor="middle" x="1260.5" y="-374.3" font-family="Times,serif" font-size="14.00">Return</text>
</g>
<!-- ast.FunctionDef object at 0x70310099bed0&#45;&gt;ast.Return object at 0x703100716e90 -->
<g id="edge79" class="edge">
<title>ast.FunctionDef object at 0x70310099bed0&#45;&gt;ast.Return object at 0x703100716e90</title>
<path fill="none" stroke="black" d="M407.11,-445.67C559.96,-433.73 1079.22,-393.16 1223.21,-381.91"/>
<polygon fill="black" stroke="black" points="1223.6,-385.39 1233.3,-381.12 1223.06,-378.41 1223.6,-385.39"/>
</g>
<!-- ast.arg object at 0x7031003e2790 -->
<g id="node4" class="node">
<title>ast.arg object at 0x7031003e2790</title>
<path fill="#66cdaa" stroke="black" d="M238.5,-324C238.5,-324 208.5,-324 208.5,-324 202.5,-324 196.5,-318 196.5,-312 196.5,-312 196.5,-300 196.5,-300 196.5,-294 202.5,-288 208.5,-288 208.5,-288 238.5,-288 238.5,-288 244.5,-288 250.5,-294 250.5,-300 250.5,-300 250.5,-312 250.5,-312 250.5,-318 244.5,-324 238.5,-324"/>
<text text-anchor="middle" x="223.5" y="-302.3" font-family="Times,serif" font-size="14.00">arg</text>
</g>
<!-- ast.arguments object at 0x7031003e1190&#45;&gt;ast.arg object at 0x7031003e2790 -->
<g id="edge3" class="edge">
<title>ast.arguments object at 0x7031003e1190&#45;&gt;ast.arg object at 0x7031003e2790</title>
<path fill="none" stroke="black" d="M223.5,-359.7C223.5,-351.98 223.5,-342.71 223.5,-334.11"/>
<polygon fill="black" stroke="black" points="227,-334.1 223.5,-324.1 220,-334.1 227,-334.1"/>
</g>
<!-- ast.Name object at 0x7031003e2450 -->
<g id="node6" class="node">
<title>ast.Name object at 0x7031003e2450</title>
<path fill="#66cdaa" stroke="black" d="M163.5,-180C163.5,-180 133.5,-180 133.5,-180 127.5,-180 121.5,-174 121.5,-168 121.5,-168 121.5,-156 121.5,-156 121.5,-150 127.5,-144 133.5,-144 133.5,-144 163.5,-144 163.5,-144 169.5,-144 175.5,-150 175.5,-156 175.5,-156 175.5,-168 175.5,-168 175.5,-174 169.5,-180 163.5,-180"/>
<text text-anchor="middle" x="148.5" y="-158.3" font-family="Times,serif" font-size="14.00">Name</text>
</g>
<!-- ast.Assign object at 0x7031003e2810&#45;&gt;ast.Name object at 0x7031003e2450 -->
<g id="edge5" class="edge">
<title>ast.Assign object at 0x7031003e2810&#45;&gt;ast.Name object at 0x7031003e2450</title>
<path fill="none" stroke="black" d="M148.5,-215.7C148.5,-207.98 148.5,-198.71 148.5,-190.11"/>
<polygon fill="black" stroke="black" points="152,-190.1 148.5,-180.1 145,-190.1 152,-190.1"/>
</g>
<!-- ast.Call object at 0x7031004e0350 -->
<g id="node8" class="node">
<title>ast.Call object at 0x7031004e0350</title>
<path fill="#66cdaa" stroke="black" d="M91.5,-180C91.5,-180 61.5,-180 61.5,-180 55.5,-180 49.5,-174 49.5,-168 49.5,-168 49.5,-156 49.5,-156 49.5,-150 55.5,-144 61.5,-144 61.5,-144 91.5,-144 91.5,-144 97.5,-144 103.5,-150 103.5,-156 103.5,-156 103.5,-168 103.5,-168 103.5,-174 97.5,-180 91.5,-180"/>
<text text-anchor="middle" x="76.5" y="-158.3" font-family="Times,serif" font-size="14.00">Call</text>
</g>
<!-- ast.Assign object at 0x7031003e2810&#45;&gt;ast.Call object at 0x7031004e0350 -->
<g id="edge7" class="edge">
<title>ast.Assign object at 0x7031003e2810&#45;&gt;ast.Call object at 0x7031004e0350</title>
<path fill="none" stroke="black" d="M130.7,-215.7C121.9,-207.14 111.12,-196.66 101.5,-187.3"/>
<polygon fill="black" stroke="black" points="103.7,-184.57 94.09,-180.1 98.82,-189.58 103.7,-184.57"/>
</g>
<!-- ast.Store object at 0x7031ebab6a90 -->
<g id="node7" class="node">
<title>ast.Store object at 0x7031ebab6a90</title>
<path fill="#66cdaa" stroke="black" d="M406.5,-36C406.5,-36 376.5,-36 376.5,-36 370.5,-36 364.5,-30 364.5,-24 364.5,-24 364.5,-12 364.5,-12 364.5,-6 370.5,0 376.5,0 376.5,0 406.5,0 406.5,0 412.5,0 418.5,-6 418.5,-12 418.5,-12 418.5,-24 418.5,-24 418.5,-30 412.5,-36 406.5,-36"/>
<text text-anchor="middle" x="391.5" y="-14.3" font-family="Times,serif" font-size="14.00">Store</text>
</g>
<!-- ast.Name object at 0x7031003e2450&#45;&gt;ast.Store object at 0x7031ebab6a90 -->
<g id="edge6" class="edge">
<title>ast.Name object at 0x7031003e2450&#45;&gt;ast.Store object at 0x7031ebab6a90</title>
<path fill="none" stroke="black" d="M159.54,-143.77C173.2,-123.77 198.27,-91.1 227.5,-72 266.66,-46.42 319.15,-32.31 354.09,-25.21"/>
<polygon fill="black" stroke="black" points="355.18,-28.57 364.33,-23.23 353.85,-21.69 355.18,-28.57"/>
</g>
<!-- ast.Name object at 0x7031007b2010 -->
<g id="node9" class="node">
<title>ast.Name object at 0x7031007b2010</title>
<path fill="#66cdaa" stroke="black" d="M505.5,-108C505.5,-108 475.5,-108 475.5,-108 469.5,-108 463.5,-102 463.5,-96 463.5,-96 463.5,-84 463.5,-84 463.5,-78 469.5,-72 475.5,-72 475.5,-72 505.5,-72 505.5,-72 511.5,-72 517.5,-78 517.5,-84 517.5,-84 517.5,-96 517.5,-96 517.5,-102 511.5,-108 505.5,-108"/>
<text text-anchor="middle" x="490.5" y="-86.3" font-family="Times,serif" font-size="14.00">Name</text>
</g>
<!-- ast.Call object at 0x7031004e0350&#45;&gt;ast.Name object at 0x7031007b2010 -->
<g id="edge8" class="edge">
<title>ast.Call object at 0x7031004e0350&#45;&gt;ast.Name object at 0x7031007b2010</title>
<path fill="none" stroke="black" d="M103.65,-147.02C106.59,-145.86 109.57,-144.82 112.5,-144 256.52,-103.67 305.23,-147.26 453.44,-107.71"/>
<polygon fill="black" stroke="black" points="454.64,-111.01 463.35,-104.98 452.78,-104.26 454.64,-111.01"/>
</g>
<!-- ast.Constant object at 0x7031003169d0 -->
<g id="node11" class="node">
<title>ast.Constant object at 0x7031003169d0</title>
<path fill="#66cdaa" stroke="black" d="M53,-108C53,-108 12,-108 12,-108 6,-108 0,-102 0,-96 0,-96 0,-84 0,-84 0,-78 6,-72 12,-72 12,-72 53,-72 53,-72 59,-72 65,-78 65,-84 65,-84 65,-96 65,-96 65,-102 59,-108 53,-108"/>
<text text-anchor="middle" x="32.5" y="-86.3" font-family="Times,serif" font-size="14.00">Constant</text>
</g>
<!-- ast.Call object at 0x7031004e0350&#45;&gt;ast.Constant object at 0x7031003169d0 -->
<g id="edge10" class="edge">
<title>ast.Call object at 0x7031004e0350&#45;&gt;ast.Constant object at 0x7031003169d0</title>
<path fill="none" stroke="black" d="M65.62,-143.7C60.51,-135.56 54.3,-125.69 48.66,-116.7"/>
<polygon fill="black" stroke="black" points="51.54,-114.71 43.25,-108.1 45.61,-118.43 51.54,-114.71"/>
</g>
<!-- ast.Load object at 0x7031ebab6a10 -->
<g id="node10" class="node">
<title>ast.Load object at 0x7031ebab6a10</title>
<path fill="#66cdaa" stroke="black" d="M1161.5,-36C1161.5,-36 1131.5,-36 1131.5,-36 1125.5,-36 1119.5,-30 1119.5,-24 1119.5,-24 1119.5,-12 1119.5,-12 1119.5,-6 1125.5,0 1131.5,0 1131.5,0 1161.5,0 1161.5,0 1167.5,0 1173.5,-6 1173.5,-12 1173.5,-12 1173.5,-24 1173.5,-24 1173.5,-30 1167.5,-36 1161.5,-36"/>
<text text-anchor="middle" x="1146.5" y="-14.3" font-family="Times,serif" font-size="14.00">Load</text>
</g>
<!-- ast.Name object at 0x7031007b2010&#45;&gt;ast.Load object at 0x7031ebab6a10 -->
<g id="edge9" class="edge">
<title>ast.Name object at 0x7031007b2010&#45;&gt;ast.Load object at 0x7031ebab6a10</title>
<path fill="none" stroke="black" d="M517.63,-74.96C520.57,-73.81 523.56,-72.79 526.5,-72 637.51,-42.08 992.55,-25.28 1109.06,-20.46"/>
<polygon fill="black" stroke="black" points="1109.42,-23.95 1119.26,-20.04 1109.13,-16.95 1109.42,-23.95"/>
</g>
<!-- ast.Name object at 0x703100314850 -->
<g id="node13" class="node">
<title>ast.Name object at 0x703100314850</title>
<path fill="#66cdaa" stroke="black" d="M235.5,-180C235.5,-180 205.5,-180 205.5,-180 199.5,-180 193.5,-174 193.5,-168 193.5,-168 193.5,-156 193.5,-156 193.5,-150 199.5,-144 205.5,-144 205.5,-144 235.5,-144 235.5,-144 241.5,-144 247.5,-150 247.5,-156 247.5,-156 247.5,-168 247.5,-168 247.5,-174 241.5,-180 235.5,-180"/>
<text text-anchor="middle" x="220.5" y="-158.3" font-family="Times,serif" font-size="14.00">Name</text>
</g>
<!-- ast.Assign object at 0x703100317410&#45;&gt;ast.Name object at 0x703100314850 -->
<g id="edge12" class="edge">
<title>ast.Assign object at 0x703100317410&#45;&gt;ast.Name object at 0x703100314850</title>
<path fill="none" stroke="black" d="M274.7,-215.7C265.9,-207.14 255.12,-196.66 245.5,-187.3"/>
<polygon fill="black" stroke="black" points="247.7,-184.57 238.09,-180.1 242.82,-189.58 247.7,-184.57"/>
</g>
<!-- ast.Call object at 0x703100317650 -->
<g id="node14" class="node">
<title>ast.Call object at 0x703100317650</title>
<path fill="#66cdaa" stroke="black" d="M379.5,-180C379.5,-180 349.5,-180 349.5,-180 343.5,-180 337.5,-174 337.5,-168 337.5,-168 337.5,-156 337.5,-156 337.5,-150 343.5,-144 349.5,-144 349.5,-144 379.5,-144 379.5,-144 385.5,-144 391.5,-150 391.5,-156 391.5,-156 391.5,-168 391.5,-168 391.5,-174 385.5,-180 379.5,-180"/>
<text text-anchor="middle" x="364.5" y="-158.3" font-family="Times,serif" font-size="14.00">Call</text>
</g>
<!-- ast.Assign object at 0x703100317410&#45;&gt;ast.Call object at 0x703100317650 -->
<g id="edge14" class="edge">
<title>ast.Assign object at 0x703100317410&#45;&gt;ast.Call object at 0x703100317650</title>
<path fill="none" stroke="black" d="M310.3,-215.7C319.1,-207.14 329.88,-196.66 339.5,-187.3"/>
<polygon fill="black" stroke="black" points="342.18,-189.58 346.91,-180.1 337.3,-184.57 342.18,-189.58"/>
</g>
<!-- ast.Name object at 0x703100314850&#45;&gt;ast.Store object at 0x7031ebab6a90 -->
<g id="edge13" class="edge">
<title>ast.Name object at 0x703100314850&#45;&gt;ast.Store object at 0x7031ebab6a90</title>
<path fill="none" stroke="black" d="M222.17,-143.66C224.97,-123.87 232.32,-91.69 251.5,-72 278.95,-43.81 322.89,-30.43 354.22,-24.2"/>
<polygon fill="black" stroke="black" points="355.11,-27.59 364.32,-22.35 353.85,-20.71 355.11,-27.59"/>
</g>
<!-- ast.Name object at 0x70310037b650 -->
<g id="node15" class="node">
<title>ast.Name object at 0x70310037b650</title>
<path fill="#66cdaa" stroke="black" d="M577.5,-108C577.5,-108 547.5,-108 547.5,-108 541.5,-108 535.5,-102 535.5,-96 535.5,-96 535.5,-84 535.5,-84 535.5,-78 541.5,-72 547.5,-72 547.5,-72 577.5,-72 577.5,-72 583.5,-72 589.5,-78 589.5,-84 589.5,-84 589.5,-96 589.5,-96 589.5,-102 583.5,-108 577.5,-108"/>
<text text-anchor="middle" x="562.5" y="-86.3" font-family="Times,serif" font-size="14.00">Name</text>
</g>
<!-- ast.Call object at 0x703100317650&#45;&gt;ast.Name object at 0x70310037b650 -->
<g id="edge15" class="edge">
<title>ast.Call object at 0x703100317650&#45;&gt;ast.Name object at 0x70310037b650</title>
<path fill="none" stroke="black" d="M391.53,-153.29C422.15,-144.31 473.64,-128.47 525.75,-108.08"/>
<polygon fill="black" stroke="black" points="527.13,-111.29 535.14,-104.35 524.55,-104.78 527.13,-111.29"/>
</g>
<!-- ast.Constant object at 0x7031002f12d0 -->
<g id="node16" class="node">
<title>ast.Constant object at 0x7031002f12d0</title>
<path fill="#66cdaa" stroke="black" d="M323,-108C323,-108 282,-108 282,-108 276,-108 270,-102 270,-96 270,-96 270,-84 270,-84 270,-78 276,-72 282,-72 282,-72 323,-72 323,-72 329,-72 335,-78 335,-84 335,-84 335,-96 335,-96 335,-102 329,-108 323,-108"/>
<text text-anchor="middle" x="302.5" y="-86.3" font-family="Times,serif" font-size="14.00">Constant</text>
</g>
<!-- ast.Call object at 0x703100317650&#45;&gt;ast.Constant object at 0x7031002f12d0 -->
<g id="edge17" class="edge">
<title>ast.Call object at 0x703100317650&#45;&gt;ast.Constant object at 0x7031002f12d0</title>
<path fill="none" stroke="black" d="M349.17,-143.7C341.74,-135.3 332.68,-125.07 324.52,-115.86"/>
<polygon fill="black" stroke="black" points="326.9,-113.27 317.65,-108.1 321.66,-117.91 326.9,-113.27"/>
</g>
<!-- ast.Name object at 0x70310037b650&#45;&gt;ast.Load object at 0x7031ebab6a10 -->
<g id="edge16" class="edge">
<title>ast.Name object at 0x70310037b650&#45;&gt;ast.Load object at 0x7031ebab6a10</title>
<path fill="none" stroke="black" d="M589.75,-81.9C603.66,-78.49 620.9,-74.59 636.5,-72 812.08,-42.82 1024.51,-26.89 1109.11,-21.31"/>
<polygon fill="black" stroke="black" points="1109.5,-24.8 1119.25,-20.65 1109.05,-17.81 1109.5,-24.8"/>
</g>
<!-- ast.Name object at 0x7031002f0bd0 -->
<g id="node18" class="node">
<title>ast.Name object at 0x7031002f0bd0</title>
<path fill="#66cdaa" stroke="black" d="M307.5,-180C307.5,-180 277.5,-180 277.5,-180 271.5,-180 265.5,-174 265.5,-168 265.5,-168 265.5,-156 265.5,-156 265.5,-150 271.5,-144 277.5,-144 277.5,-144 307.5,-144 307.5,-144 313.5,-144 319.5,-150 319.5,-156 319.5,-156 319.5,-168 319.5,-168 319.5,-174 313.5,-180 307.5,-180"/>
<text text-anchor="middle" x="292.5" y="-158.3" font-family="Times,serif" font-size="14.00">Name</text>
</g>
<!-- ast.Assign object at 0x7031002f2b50&#45;&gt;ast.Name object at 0x7031002f0bd0 -->
<g id="edge19" class="edge">
<title>ast.Assign object at 0x7031002f2b50&#45;&gt;ast.Name object at 0x7031002f0bd0</title>
<path fill="none" stroke="black" d="M346.7,-215.7C337.9,-207.14 327.12,-196.66 317.5,-187.3"/>
<polygon fill="black" stroke="black" points="319.7,-184.57 310.09,-180.1 314.82,-189.58 319.7,-184.57"/>
</g>
<!-- ast.Subscript object at 0x7031002f2790 -->
<g id="node19" class="node">
<title>ast.Subscript object at 0x7031002f2790</title>
<path fill="#66cdaa" stroke="black" d="M754.5,-180C754.5,-180 710.5,-180 710.5,-180 704.5,-180 698.5,-174 698.5,-168 698.5,-168 698.5,-156 698.5,-156 698.5,-150 704.5,-144 710.5,-144 710.5,-144 754.5,-144 754.5,-144 760.5,-144 766.5,-150 766.5,-156 766.5,-156 766.5,-168 766.5,-168 766.5,-174 760.5,-180 754.5,-180"/>
<text text-anchor="middle" x="732.5" y="-158.3" font-family="Times,serif" font-size="14.00">Subscript</text>
</g>
<!-- ast.Assign object at 0x7031002f2b50&#45;&gt;ast.Subscript object at 0x7031002f2790 -->
<g id="edge21" class="edge">
<title>ast.Assign object at 0x7031002f2b50&#45;&gt;ast.Subscript object at 0x7031002f2790</title>
<path fill="none" stroke="black" d="M391.61,-228.92C444.51,-220.8 565.11,-201.54 665.5,-180 672.92,-178.41 680.77,-176.56 688.38,-174.69"/>
<polygon fill="black" stroke="black" points="689.34,-178.06 698.19,-172.23 687.63,-171.27 689.34,-178.06"/>
</g>
<!-- ast.Name object at 0x7031002f0bd0&#45;&gt;ast.Store object at 0x7031ebab6a90 -->
<g id="edge20" class="edge">
<title>ast.Name object at 0x7031002f0bd0&#45;&gt;ast.Store object at 0x7031ebab6a90</title>
<path fill="none" stroke="black" d="M277.5,-143.77C263.03,-124.94 245.36,-94.46 260.5,-72 281.32,-41.11 323.53,-28.22 354.43,-22.84"/>
<polygon fill="black" stroke="black" points="355.08,-26.28 364.42,-21.29 354.01,-19.37 355.08,-26.28"/>
</g>
<!-- ast.Subscript object at 0x7031002f2790&#45;&gt;ast.Load object at 0x7031ebab6a10 -->
<g id="edge27" class="edge">
<title>ast.Subscript object at 0x7031002f2790&#45;&gt;ast.Load object at 0x7031ebab6a10</title>
<path fill="none" stroke="black" d="M747.81,-143.72C768.81,-120.44 805.95,-80.88 823.5,-72 918.16,-24.1 1046.55,-17.88 1109.12,-18.02"/>
<polygon fill="black" stroke="black" points="1109.27,-21.52 1119.3,-18.1 1109.32,-14.52 1109.27,-21.52"/>
</g>
<!-- ast.Name object at 0x703100387550 -->
<g id="node20" class="node">
<title>ast.Name object at 0x703100387550</title>
<path fill="#66cdaa" stroke="black" d="M759.5,-108C759.5,-108 729.5,-108 729.5,-108 723.5,-108 717.5,-102 717.5,-96 717.5,-96 717.5,-84 717.5,-84 717.5,-78 723.5,-72 729.5,-72 729.5,-72 759.5,-72 759.5,-72 765.5,-72 771.5,-78 771.5,-84 771.5,-84 771.5,-96 771.5,-96 771.5,-102 765.5,-108 759.5,-108"/>
<text text-anchor="middle" x="744.5" y="-86.3" font-family="Times,serif" font-size="14.00">Name</text>
</g>
<!-- ast.Subscript object at 0x7031002f2790&#45;&gt;ast.Name object at 0x703100387550 -->
<g id="edge22" class="edge">
<title>ast.Subscript object at 0x7031002f2790&#45;&gt;ast.Name object at 0x703100387550</title>
<path fill="none" stroke="black" d="M735.47,-143.7C736.79,-135.98 738.38,-126.71 739.85,-118.11"/>
<polygon fill="black" stroke="black" points="743.33,-118.55 741.57,-108.1 736.43,-117.37 743.33,-118.55"/>
</g>
<!-- ast.Slice object at 0x703100362950 -->
<g id="node21" class="node">
<title>ast.Slice object at 0x703100362950</title>
<path fill="#66cdaa" stroke="black" d="M125.5,-108C125.5,-108 95.5,-108 95.5,-108 89.5,-108 83.5,-102 83.5,-96 83.5,-96 83.5,-84 83.5,-84 83.5,-78 89.5,-72 95.5,-72 95.5,-72 125.5,-72 125.5,-72 131.5,-72 137.5,-78 137.5,-84 137.5,-84 137.5,-96 137.5,-96 137.5,-102 131.5,-108 125.5,-108"/>
<text text-anchor="middle" x="110.5" y="-86.3" font-family="Times,serif" font-size="14.00">Slice</text>
</g>
<!-- ast.Subscript object at 0x7031002f2790&#45;&gt;ast.Slice object at 0x703100362950 -->
<g id="edge24" class="edge">
<title>ast.Subscript object at 0x7031002f2790&#45;&gt;ast.Slice object at 0x703100362950</title>
<path fill="none" stroke="black" d="M698.3,-151.2C687.84,-148.51 676.27,-145.83 665.5,-144 487.35,-113.68 440.29,-126.18 260.5,-108 222.01,-104.11 178.04,-99.05 147.71,-95.47"/>
<polygon fill="black" stroke="black" points="147.92,-91.97 137.58,-94.27 147.09,-98.92 147.92,-91.97"/>
</g>
<!-- ast.Name object at 0x703100387550&#45;&gt;ast.Load object at 0x7031ebab6a10 -->
<g id="edge23" class="edge">
<title>ast.Name object at 0x703100387550&#45;&gt;ast.Load object at 0x7031ebab6a10</title>
<path fill="none" stroke="black" d="M771.52,-76.7C776.12,-74.92 780.89,-73.27 785.5,-72 900.89,-40.14 1042.64,-26.43 1108.95,-21.44"/>
<polygon fill="black" stroke="black" points="1109.59,-24.91 1119.31,-20.69 1109.08,-17.93 1109.59,-24.91"/>
</g>
<!-- ast.Constant object at 0x703100362c50 -->
<g id="node22" class="node">
<title>ast.Constant object at 0x703100362c50</title>
<path fill="#66cdaa" stroke="black" d="M90,-36C90,-36 49,-36 49,-36 43,-36 37,-30 37,-24 37,-24 37,-12 37,-12 37,-6 43,0 49,0 49,0 90,0 90,0 96,0 102,-6 102,-12 102,-12 102,-24 102,-24 102,-30 96,-36 90,-36"/>
<text text-anchor="middle" x="69.5" y="-14.3" font-family="Times,serif" font-size="14.00">Constant</text>
</g>
<!-- ast.Slice object at 0x703100362950&#45;&gt;ast.Constant object at 0x703100362c50 -->
<g id="edge25" class="edge">
<title>ast.Slice object at 0x703100362950&#45;&gt;ast.Constant object at 0x703100362c50</title>
<path fill="none" stroke="black" d="M100.37,-71.7C95.65,-63.64 89.94,-53.89 84.72,-44.98"/>
<polygon fill="black" stroke="black" points="87.59,-42.96 79.52,-36.1 81.55,-46.5 87.59,-42.96"/>
</g>
<!-- ast.Constant object at 0x7031002079d0 -->
<g id="node23" class="node">
<title>ast.Constant object at 0x7031002079d0</title>
<path fill="#66cdaa" stroke="black" d="M173,-36C173,-36 132,-36 132,-36 126,-36 120,-30 120,-24 120,-24 120,-12 120,-12 120,-6 126,0 132,0 132,0 173,0 173,0 179,0 185,-6 185,-12 185,-12 185,-24 185,-24 185,-30 179,-36 173,-36"/>
<text text-anchor="middle" x="152.5" y="-14.3" font-family="Times,serif" font-size="14.00">Constant</text>
</g>
<!-- ast.Slice object at 0x703100362950&#45;&gt;ast.Constant object at 0x7031002079d0 -->
<g id="edge26" class="edge">
<title>ast.Slice object at 0x703100362950&#45;&gt;ast.Constant object at 0x7031002079d0</title>
<path fill="none" stroke="black" d="M120.88,-71.7C125.76,-63.56 131.69,-53.69 137.08,-44.7"/>
<polygon fill="black" stroke="black" points="140.09,-46.48 142.24,-36.1 134.09,-42.88 140.09,-46.48"/>
</g>
<!-- ast.Compare object at 0x7031002963d0 -->
<g id="node25" class="node">
<title>ast.Compare object at 0x7031002963d0</title>
<path fill="#66cdaa" stroke="black" d="M1717,-252C1717,-252 1674,-252 1674,-252 1668,-252 1662,-246 1662,-240 1662,-240 1662,-228 1662,-228 1662,-222 1668,-216 1674,-216 1674,-216 1717,-216 1717,-216 1723,-216 1729,-222 1729,-228 1729,-228 1729,-240 1729,-240 1729,-246 1723,-252 1717,-252"/>
<text text-anchor="middle" x="1695.5" y="-230.3" font-family="Times,serif" font-size="14.00">Compare</text>
</g>
<!-- ast.If object at 0x703100296090&#45;&gt;ast.Compare object at 0x7031002963d0 -->
<g id="edge29" class="edge">
<title>ast.If object at 0x703100296090&#45;&gt;ast.Compare object at 0x7031002963d0</title>
<path fill="none" stroke="black" d="M1695.5,-287.7C1695.5,-279.98 1695.5,-270.71 1695.5,-262.11"/>
<polygon fill="black" stroke="black" points="1699,-262.1 1695.5,-252.1 1692,-262.1 1699,-262.1"/>
</g>
<!-- ast.Return object at 0x703100296b90 -->
<g id="node31" class="node">
<title>ast.Return object at 0x703100296b90</title>
<path fill="#66cdaa" stroke="black" d="M1826.5,-252C1826.5,-252 1796.5,-252 1796.5,-252 1790.5,-252 1784.5,-246 1784.5,-240 1784.5,-240 1784.5,-228 1784.5,-228 1784.5,-222 1790.5,-216 1796.5,-216 1796.5,-216 1826.5,-216 1826.5,-216 1832.5,-216 1838.5,-222 1838.5,-228 1838.5,-228 1838.5,-240 1838.5,-240 1838.5,-246 1832.5,-252 1826.5,-252"/>
<text text-anchor="middle" x="1811.5" y="-230.3" font-family="Times,serif" font-size="14.00">Return</text>
</g>
<!-- ast.If object at 0x703100296090&#45;&gt;ast.Return object at 0x703100296b90 -->
<g id="edge37" class="edge">
<title>ast.If object at 0x703100296090&#45;&gt;ast.Return object at 0x703100296b90</title>
<path fill="none" stroke="black" d="M1722.7,-288.59C1738.55,-279.02 1758.73,-266.85 1775.84,-256.52"/>
<polygon fill="black" stroke="black" points="1777.72,-259.47 1784.47,-251.31 1774.1,-253.48 1777.72,-259.47"/>
</g>
<!-- ast.Call object at 0x703100296210 -->
<g id="node26" class="node">
<title>ast.Call object at 0x703100296210</title>
<path fill="#66cdaa" stroke="black" d="M1703.5,-180C1703.5,-180 1673.5,-180 1673.5,-180 1667.5,-180 1661.5,-174 1661.5,-168 1661.5,-168 1661.5,-156 1661.5,-156 1661.5,-150 1667.5,-144 1673.5,-144 1673.5,-144 1703.5,-144 1703.5,-144 1709.5,-144 1715.5,-150 1715.5,-156 1715.5,-156 1715.5,-168 1715.5,-168 1715.5,-174 1709.5,-180 1703.5,-180"/>
<text text-anchor="middle" x="1688.5" y="-158.3" font-family="Times,serif" font-size="14.00">Call</text>
</g>
<!-- ast.Compare object at 0x7031002963d0&#45;&gt;ast.Call object at 0x703100296210 -->
<g id="edge30" class="edge">
<title>ast.Compare object at 0x7031002963d0&#45;&gt;ast.Call object at 0x703100296210</title>
<path fill="none" stroke="black" d="M1693.77,-215.7C1693,-207.98 1692.07,-198.71 1691.21,-190.11"/>
<polygon fill="black" stroke="black" points="1694.69,-189.71 1690.21,-180.1 1687.72,-190.4 1694.69,-189.71"/>
</g>
<!-- ast.Lt object at 0x7031ebab7b10 -->
<g id="node29" class="node">
<title>ast.Lt object at 0x7031ebab7b10</title>
<path fill="#66cdaa" stroke="black" d="M1449.5,-108C1449.5,-108 1419.5,-108 1419.5,-108 1413.5,-108 1407.5,-102 1407.5,-96 1407.5,-96 1407.5,-84 1407.5,-84 1407.5,-78 1413.5,-72 1419.5,-72 1419.5,-72 1449.5,-72 1449.5,-72 1455.5,-72 1461.5,-78 1461.5,-84 1461.5,-84 1461.5,-96 1461.5,-96 1461.5,-102 1455.5,-108 1449.5,-108"/>
<text text-anchor="middle" x="1434.5" y="-86.3" font-family="Times,serif" font-size="14.00">Lt</text>
</g>
<!-- ast.Compare object at 0x7031002963d0&#45;&gt;ast.Lt object at 0x7031ebab7b10 -->
<g id="edge35" class="edge">
<title>ast.Compare object at 0x7031002963d0&#45;&gt;ast.Lt object at 0x7031ebab7b10</title>
<path fill="none" stroke="black" d="M1661.84,-229.67C1603.81,-223.27 1488.37,-207.38 1459.5,-180 1442.72,-164.08 1436.91,-137.89 1435.04,-118.03"/>
<polygon fill="black" stroke="black" points="1438.53,-117.77 1434.37,-108.03 1431.54,-118.24 1438.53,-117.77"/>
</g>
<!-- ast.Constant object at 0x703100295c10 -->
<g id="node30" class="node">
<title>ast.Constant object at 0x703100295c10</title>
<path fill="#66cdaa" stroke="black" d="M1787,-180C1787,-180 1746,-180 1746,-180 1740,-180 1734,-174 1734,-168 1734,-168 1734,-156 1734,-156 1734,-150 1740,-144 1746,-144 1746,-144 1787,-144 1787,-144 1793,-144 1799,-150 1799,-156 1799,-156 1799,-168 1799,-168 1799,-174 1793,-180 1787,-180"/>
<text text-anchor="middle" x="1766.5" y="-158.3" font-family="Times,serif" font-size="14.00">Constant</text>
</g>
<!-- ast.Compare object at 0x7031002963d0&#45;&gt;ast.Constant object at 0x703100295c10 -->
<g id="edge36" class="edge">
<title>ast.Compare object at 0x7031002963d0&#45;&gt;ast.Constant object at 0x703100295c10</title>
<path fill="none" stroke="black" d="M1713.05,-215.7C1721.73,-207.14 1732.36,-196.66 1741.85,-187.3"/>
<polygon fill="black" stroke="black" points="1744.49,-189.62 1749.15,-180.1 1739.57,-184.63 1744.49,-189.62"/>
</g>
<!-- ast.Name object at 0x703100296c90 -->
<g id="node27" class="node">
<title>ast.Name object at 0x703100296c90</title>
<path fill="#66cdaa" stroke="black" d="M1775.5,-108C1775.5,-108 1745.5,-108 1745.5,-108 1739.5,-108 1733.5,-102 1733.5,-96 1733.5,-96 1733.5,-84 1733.5,-84 1733.5,-78 1739.5,-72 1745.5,-72 1745.5,-72 1775.5,-72 1775.5,-72 1781.5,-72 1787.5,-78 1787.5,-84 1787.5,-84 1787.5,-96 1787.5,-96 1787.5,-102 1781.5,-108 1775.5,-108"/>
<text text-anchor="middle" x="1760.5" y="-86.3" font-family="Times,serif" font-size="14.00">Name</text>
</g>
<!-- ast.Call object at 0x703100296210&#45;&gt;ast.Name object at 0x703100296c90 -->
<g id="edge31" class="edge">
<title>ast.Call object at 0x703100296210&#45;&gt;ast.Name object at 0x703100296c90</title>
<path fill="none" stroke="black" d="M1706.3,-143.7C1715.1,-135.14 1725.88,-124.66 1735.5,-115.3"/>
<polygon fill="black" stroke="black" points="1738.18,-117.58 1742.91,-108.1 1733.3,-112.57 1738.18,-117.58"/>
</g>
<!-- ast.Name object at 0x703100295b90 -->
<g id="node28" class="node">
<title>ast.Name object at 0x703100295b90</title>
<path fill="#66cdaa" stroke="black" d="M1703.5,-108C1703.5,-108 1673.5,-108 1673.5,-108 1667.5,-108 1661.5,-102 1661.5,-96 1661.5,-96 1661.5,-84 1661.5,-84 1661.5,-78 1667.5,-72 1673.5,-72 1673.5,-72 1703.5,-72 1703.5,-72 1709.5,-72 1715.5,-78 1715.5,-84 1715.5,-84 1715.5,-96 1715.5,-96 1715.5,-102 1709.5,-108 1703.5,-108"/>
<text text-anchor="middle" x="1688.5" y="-86.3" font-family="Times,serif" font-size="14.00">Name</text>
</g>
<!-- ast.Call object at 0x703100296210&#45;&gt;ast.Name object at 0x703100295b90 -->
<g id="edge33" class="edge">
<title>ast.Call object at 0x703100296210&#45;&gt;ast.Name object at 0x703100295b90</title>
<path fill="none" stroke="black" d="M1688.5,-143.7C1688.5,-135.98 1688.5,-126.71 1688.5,-118.11"/>
<polygon fill="black" stroke="black" points="1692,-118.1 1688.5,-108.1 1685,-118.1 1692,-118.1"/>
</g>
<!-- ast.Name object at 0x703100296c90&#45;&gt;ast.Load object at 0x7031ebab6a10 -->
<g id="edge32" class="edge">
<title>ast.Name object at 0x703100296c90&#45;&gt;ast.Load object at 0x7031ebab6a10</title>
<path fill="none" stroke="black" d="M1733.36,-74.98C1730.42,-73.83 1727.43,-72.8 1724.5,-72 1621.73,-43.96 1294.46,-26.09 1183.61,-20.71"/>
<polygon fill="black" stroke="black" points="1183.73,-17.21 1173.58,-20.23 1183.4,-24.2 1183.73,-17.21"/>
</g>
<!-- ast.Name object at 0x703100295b90&#45;&gt;ast.Load object at 0x7031ebab6a10 -->
<g id="edge34" class="edge">
<title>ast.Name object at 0x703100295b90&#45;&gt;ast.Load object at 0x7031ebab6a10</title>
<path fill="none" stroke="black" d="M1661.08,-76.37C1656.61,-74.68 1651.98,-73.14 1647.5,-72 1478.02,-28.86 1267.66,-20.78 1183.66,-19.31"/>
<polygon fill="black" stroke="black" points="1183.64,-15.81 1173.59,-19.15 1183.54,-22.8 1183.64,-15.81"/>
</g>
<!-- ast.Constant object at 0x703100297c10 -->
<g id="node32" class="node">
<title>ast.Constant object at 0x703100297c10</title>
<path fill="#66cdaa" stroke="black" d="M1870,-180C1870,-180 1829,-180 1829,-180 1823,-180 1817,-174 1817,-168 1817,-168 1817,-156 1817,-156 1817,-150 1823,-144 1829,-144 1829,-144 1870,-144 1870,-144 1876,-144 1882,-150 1882,-156 1882,-156 1882,-168 1882,-168 1882,-174 1876,-180 1870,-180"/>
<text text-anchor="middle" x="1849.5" y="-158.3" font-family="Times,serif" font-size="14.00">Constant</text>
</g>
<!-- ast.Return object at 0x703100296b90&#45;&gt;ast.Constant object at 0x703100297c10 -->
<g id="edge38" class="edge">
<title>ast.Return object at 0x703100296b90&#45;&gt;ast.Constant object at 0x703100297c10</title>
<path fill="none" stroke="black" d="M1820.89,-215.7C1825.26,-207.64 1830.56,-197.89 1835.4,-188.98"/>
<polygon fill="black" stroke="black" points="1838.52,-190.56 1840.21,-180.1 1832.37,-187.22 1838.52,-190.56"/>
</g>
<!-- ast.Name object at 0x703100b50250 -->
<g id="node34" class="node">
<title>ast.Name object at 0x703100b50250</title>
<path fill="#66cdaa" stroke="black" d="M502.5,-324C502.5,-324 472.5,-324 472.5,-324 466.5,-324 460.5,-318 460.5,-312 460.5,-312 460.5,-300 460.5,-300 460.5,-294 466.5,-288 472.5,-288 472.5,-288 502.5,-288 502.5,-288 508.5,-288 514.5,-294 514.5,-300 514.5,-300 514.5,-312 514.5,-312 514.5,-318 508.5,-324 502.5,-324"/>
<text text-anchor="middle" x="487.5" y="-302.3" font-family="Times,serif" font-size="14.00">Name</text>
</g>
<!-- ast.For object at 0x70310038c810&#45;&gt;ast.Name object at 0x703100b50250 -->
<g id="edge40" class="edge">
<title>ast.For object at 0x70310038c810&#45;&gt;ast.Name object at 0x703100b50250</title>
<path fill="none" stroke="black" d="M604.41,-363.83C581.73,-352.81 549.14,-336.97 524.13,-324.81"/>
<polygon fill="black" stroke="black" points="525.48,-321.57 514.95,-320.35 522.42,-327.87 525.48,-321.57"/>
</g>
<!-- ast.Name object at 0x7031002a80d0 -->
<g id="node35" class="node">
<title>ast.Name object at 0x7031002a80d0</title>
<path fill="#66cdaa" stroke="black" d="M715.5,-324C715.5,-324 685.5,-324 685.5,-324 679.5,-324 673.5,-318 673.5,-312 673.5,-312 673.5,-300 673.5,-300 673.5,-294 679.5,-288 685.5,-288 685.5,-288 715.5,-288 715.5,-288 721.5,-288 727.5,-294 727.5,-300 727.5,-300 727.5,-312 727.5,-312 727.5,-318 721.5,-324 715.5,-324"/>
<text text-anchor="middle" x="700.5" y="-302.3" font-family="Times,serif" font-size="14.00">Name</text>
</g>
<!-- ast.For object at 0x70310038c810&#45;&gt;ast.Name object at 0x7031002a80d0 -->
<g id="edge42" class="edge">
<title>ast.For object at 0x70310038c810&#45;&gt;ast.Name object at 0x7031002a80d0</title>
<path fill="none" stroke="black" d="M648.56,-359.7C657,-351.14 667.32,-340.66 676.54,-331.3"/>
<polygon fill="black" stroke="black" points="679.11,-333.68 683.64,-324.1 674.13,-328.77 679.11,-333.68"/>
</g>
<!-- ast.If object at 0x7031002a8190 -->
<g id="node36" class="node">
<title>ast.If object at 0x7031002a8190</title>
<path fill="#66cdaa" stroke="black" d="M1070.5,-324C1070.5,-324 1040.5,-324 1040.5,-324 1034.5,-324 1028.5,-318 1028.5,-312 1028.5,-312 1028.5,-300 1028.5,-300 1028.5,-294 1034.5,-288 1040.5,-288 1040.5,-288 1070.5,-288 1070.5,-288 1076.5,-288 1082.5,-294 1082.5,-300 1082.5,-300 1082.5,-312 1082.5,-312 1082.5,-318 1076.5,-324 1070.5,-324"/>
<text text-anchor="middle" x="1055.5" y="-302.3" font-family="Times,serif" font-size="14.00">If</text>
</g>
<!-- ast.For object at 0x70310038c810&#45;&gt;ast.If object at 0x7031002a8190 -->
<g id="edge44" class="edge">
<title>ast.For object at 0x70310038c810&#45;&gt;ast.If object at 0x7031002a8190</title>
<path fill="none" stroke="black" d="M658.67,-372.51C732.02,-360.4 934.2,-327.03 1018.18,-313.16"/>
<polygon fill="black" stroke="black" points="1018.99,-316.58 1028.28,-311.49 1017.85,-309.67 1018.99,-316.58"/>
</g>
<!-- ast.Name object at 0x703100b50250&#45;&gt;ast.Store object at 0x7031ebab6a90 -->
<g id="edge41" class="edge">
<title>ast.Name object at 0x703100b50250&#45;&gt;ast.Store object at 0x7031ebab6a90</title>
<path fill="none" stroke="black" d="M478.12,-287.68C452.6,-240.5 383.72,-112.9 382.5,-108 377.4,-87.6 380.22,-63.87 384,-46.05"/>
<polygon fill="black" stroke="black" points="387.41,-46.85 386.28,-36.31 380.59,-45.25 387.41,-46.85"/>
</g>
<!-- ast.Name object at 0x7031002a80d0&#45;&gt;ast.Load object at 0x7031ebab6a10 -->
<g id="edge43" class="edge">
<title>ast.Name object at 0x7031002a80d0&#45;&gt;ast.Load object at 0x7031ebab6a10</title>
<path fill="none" stroke="black" d="M710.83,-287.97C742.1,-236.66 834.93,-86.16 856.5,-72 897.62,-45.01 1040.49,-28.67 1109.12,-22.2"/>
<polygon fill="black" stroke="black" points="1109.84,-25.65 1119.47,-21.25 1109.19,-18.68 1109.84,-25.65"/>
</g>
<!-- ast.Compare object at 0x7031002a8210 -->
<g id="node37" class="node">
<title>ast.Compare object at 0x7031002a8210</title>
<path fill="#66cdaa" stroke="black" d="M1523,-180C1523,-180 1480,-180 1480,-180 1474,-180 1468,-174 1468,-168 1468,-168 1468,-156 1468,-156 1468,-150 1474,-144 1480,-144 1480,-144 1523,-144 1523,-144 1529,-144 1535,-150 1535,-156 1535,-156 1535,-168 1535,-168 1535,-174 1529,-180 1523,-180"/>
<text text-anchor="middle" x="1501.5" y="-158.3" font-family="Times,serif" font-size="14.00">Compare</text>
</g>
<!-- ast.If object at 0x7031002a8190&#45;&gt;ast.Compare object at 0x7031002a8210 -->
<g id="edge45" class="edge">
<title>ast.If object at 0x7031002a8190&#45;&gt;ast.Compare object at 0x7031002a8210</title>
<path fill="none" stroke="black" d="M1082.73,-296.33C1157.56,-272.51 1366.82,-205.88 1458.06,-176.83"/>
<polygon fill="black" stroke="black" points="1459.34,-180.1 1467.81,-173.73 1457.21,-173.43 1459.34,-180.1"/>
</g>
<!-- ast.Assign object at 0x7031105245d0 -->
<g id="node40" class="node">
<title>ast.Assign object at 0x7031105245d0</title>
<path fill="#66cdaa" stroke="black" d="M1034.5,-252C1034.5,-252 1004.5,-252 1004.5,-252 998.5,-252 992.5,-246 992.5,-240 992.5,-240 992.5,-228 992.5,-228 992.5,-222 998.5,-216 1004.5,-216 1004.5,-216 1034.5,-216 1034.5,-216 1040.5,-216 1046.5,-222 1046.5,-228 1046.5,-228 1046.5,-240 1046.5,-240 1046.5,-246 1040.5,-252 1034.5,-252"/>
<text text-anchor="middle" x="1019.5" y="-230.3" font-family="Times,serif" font-size="14.00">Assign</text>
</g>
<!-- ast.If object at 0x7031002a8190&#45;&gt;ast.Assign object at 0x7031105245d0 -->
<g id="edge51" class="edge">
<title>ast.If object at 0x7031002a8190&#45;&gt;ast.Assign object at 0x7031105245d0</title>
<path fill="none" stroke="black" d="M1046.6,-287.7C1042.5,-279.73 1037.55,-270.1 1033.01,-261.26"/>
<polygon fill="black" stroke="black" points="1035.98,-259.4 1028.3,-252.1 1029.76,-262.6 1035.98,-259.4"/>
</g>
<!-- ast.If object at 0x7031006616d0 -->
<g id="node47" class="node">
<title>ast.If object at 0x7031006616d0</title>
<path fill="#66cdaa" stroke="black" d="M1133.5,-252C1133.5,-252 1103.5,-252 1103.5,-252 1097.5,-252 1091.5,-246 1091.5,-240 1091.5,-240 1091.5,-228 1091.5,-228 1091.5,-222 1097.5,-216 1103.5,-216 1103.5,-216 1133.5,-216 1133.5,-216 1139.5,-216 1145.5,-222 1145.5,-228 1145.5,-228 1145.5,-240 1145.5,-240 1145.5,-246 1139.5,-252 1133.5,-252"/>
<text text-anchor="middle" x="1118.5" y="-230.3" font-family="Times,serif" font-size="14.00">If</text>
</g>
<!-- ast.If object at 0x7031002a8190&#45;&gt;ast.If object at 0x7031006616d0 -->
<g id="edge64" class="edge">
<title>ast.If object at 0x7031002a8190&#45;&gt;ast.If object at 0x7031006616d0</title>
<path fill="none" stroke="black" d="M1071.07,-287.7C1078.7,-279.22 1088.02,-268.86 1096.38,-259.58"/>
<polygon fill="black" stroke="black" points="1099.02,-261.88 1103.11,-252.1 1093.81,-257.2 1099.02,-261.88"/>
</g>
<!-- ast.Compare object at 0x7031002a8210&#45;&gt;ast.Lt object at 0x7031ebab7b10 -->
<g id="edge48" class="edge">
<title>ast.Compare object at 0x7031002a8210&#45;&gt;ast.Lt object at 0x7031ebab7b10</title>
<path fill="none" stroke="black" d="M1484.94,-143.7C1476.82,-135.22 1466.91,-124.86 1458.03,-115.58"/>
<polygon fill="black" stroke="black" points="1460.31,-112.91 1450.87,-108.1 1455.26,-117.75 1460.31,-112.91"/>
</g>
<!-- ast.Name object at 0x70310040ff10 -->
<g id="node38" class="node">
<title>ast.Name object at 0x70310040ff10</title>
<path fill="#66cdaa" stroke="black" d="M1593.5,-108C1593.5,-108 1563.5,-108 1563.5,-108 1557.5,-108 1551.5,-102 1551.5,-96 1551.5,-96 1551.5,-84 1551.5,-84 1551.5,-78 1557.5,-72 1563.5,-72 1563.5,-72 1593.5,-72 1593.5,-72 1599.5,-72 1605.5,-78 1605.5,-84 1605.5,-84 1605.5,-96 1605.5,-96 1605.5,-102 1599.5,-108 1593.5,-108"/>
<text text-anchor="middle" x="1578.5" y="-86.3" font-family="Times,serif" font-size="14.00">Name</text>
</g>
<!-- ast.Compare object at 0x7031002a8210&#45;&gt;ast.Name object at 0x70310040ff10 -->
<g id="edge46" class="edge">
<title>ast.Compare object at 0x7031002a8210&#45;&gt;ast.Name object at 0x70310040ff10</title>
<path fill="none" stroke="black" d="M1520.53,-143.7C1530.04,-135.05 1541.71,-124.45 1552.07,-115.03"/>
<polygon fill="black" stroke="black" points="1554.64,-117.42 1559.69,-108.1 1549.93,-112.24 1554.64,-117.42"/>
</g>
<!-- ast.Name object at 0x7031002f8350 -->
<g id="node39" class="node">
<title>ast.Name object at 0x7031002f8350</title>
<path fill="#66cdaa" stroke="black" d="M1521.5,-108C1521.5,-108 1491.5,-108 1491.5,-108 1485.5,-108 1479.5,-102 1479.5,-96 1479.5,-96 1479.5,-84 1479.5,-84 1479.5,-78 1485.5,-72 1491.5,-72 1491.5,-72 1521.5,-72 1521.5,-72 1527.5,-72 1533.5,-78 1533.5,-84 1533.5,-84 1533.5,-96 1533.5,-96 1533.5,-102 1527.5,-108 1521.5,-108"/>
<text text-anchor="middle" x="1506.5" y="-86.3" font-family="Times,serif" font-size="14.00">Name</text>
</g>
<!-- ast.Compare object at 0x7031002a8210&#45;&gt;ast.Name object at 0x7031002f8350 -->
<g id="edge49" class="edge">
<title>ast.Compare object at 0x7031002a8210&#45;&gt;ast.Name object at 0x7031002f8350</title>
<path fill="none" stroke="black" d="M1502.74,-143.7C1503.29,-135.98 1503.95,-126.71 1504.56,-118.11"/>
<polygon fill="black" stroke="black" points="1508.06,-118.33 1505.28,-108.1 1501.07,-117.83 1508.06,-118.33"/>
</g>
<!-- ast.Name object at 0x70310040ff10&#45;&gt;ast.Load object at 0x7031ebab6a10 -->
<g id="edge47" class="edge">
<title>ast.Name object at 0x70310040ff10&#45;&gt;ast.Load object at 0x7031ebab6a10</title>
<path fill="none" stroke="black" d="M1551.33,-75.11C1548.39,-73.93 1545.42,-72.86 1542.5,-72 1414.37,-34.17 1254.87,-23.26 1183.75,-20.18"/>
<polygon fill="black" stroke="black" points="1183.64,-16.67 1173.51,-19.77 1183.36,-23.67 1183.64,-16.67"/>
</g>
<!-- ast.Name object at 0x7031002f8350&#45;&gt;ast.Load object at 0x7031ebab6a10 -->
<g id="edge50" class="edge">
<title>ast.Name object at 0x7031002f8350&#45;&gt;ast.Load object at 0x7031ebab6a10</title>
<path fill="none" stroke="black" d="M1479.3,-75.19C1476.37,-74 1473.4,-72.9 1470.5,-72 1369.61,-40.61 1244.95,-26.89 1183.84,-21.71"/>
<polygon fill="black" stroke="black" points="1183.79,-18.19 1173.54,-20.87 1183.22,-25.17 1183.79,-18.19"/>
</g>
<!-- ast.Tuple object at 0x703101c19550 -->
<g id="node41" class="node">
<title>ast.Tuple object at 0x703101c19550</title>
<path fill="#66cdaa" stroke="black" d="M644.5,-180C644.5,-180 614.5,-180 614.5,-180 608.5,-180 602.5,-174 602.5,-168 602.5,-168 602.5,-156 602.5,-156 602.5,-150 608.5,-144 614.5,-144 614.5,-144 644.5,-144 644.5,-144 650.5,-144 656.5,-150 656.5,-156 656.5,-156 656.5,-168 656.5,-168 656.5,-174 650.5,-180 644.5,-180"/>
<text text-anchor="middle" x="629.5" y="-158.3" font-family="Times,serif" font-size="14.00">Tuple</text>
</g>
<!-- ast.Assign object at 0x7031105245d0&#45;&gt;ast.Tuple object at 0x703101c19550 -->
<g id="edge52" class="edge">
<title>ast.Assign object at 0x7031105245d0&#45;&gt;ast.Tuple object at 0x703101c19550</title>
<path fill="none" stroke="black" d="M992.35,-229.73C935.68,-222.67 800.83,-204.62 689.5,-180 681.93,-178.33 673.9,-176.26 666.26,-174.15"/>
<polygon fill="black" stroke="black" points="667.09,-170.74 656.51,-171.38 665.17,-177.48 667.09,-170.74"/>
</g>
<!-- ast.Tuple object at 0x703100661250 -->
<g id="node44" class="node">
<title>ast.Tuple object at 0x703100661250</title>
<path fill="#66cdaa" stroke="black" d="M1034.5,-180C1034.5,-180 1004.5,-180 1004.5,-180 998.5,-180 992.5,-174 992.5,-168 992.5,-168 992.5,-156 992.5,-156 992.5,-150 998.5,-144 1004.5,-144 1004.5,-144 1034.5,-144 1034.5,-144 1040.5,-144 1046.5,-150 1046.5,-156 1046.5,-156 1046.5,-168 1046.5,-168 1046.5,-174 1040.5,-180 1034.5,-180"/>
<text text-anchor="middle" x="1019.5" y="-158.3" font-family="Times,serif" font-size="14.00">Tuple</text>
</g>
<!-- ast.Assign object at 0x7031105245d0&#45;&gt;ast.Tuple object at 0x703100661250 -->
<g id="edge58" class="edge">
<title>ast.Assign object at 0x7031105245d0&#45;&gt;ast.Tuple object at 0x703100661250</title>
<path fill="none" stroke="black" d="M1019.5,-215.7C1019.5,-207.98 1019.5,-198.71 1019.5,-190.11"/>
<polygon fill="black" stroke="black" points="1023,-190.1 1019.5,-180.1 1016,-190.1 1023,-190.1"/>
</g>
<!-- ast.Tuple object at 0x703101c19550&#45;&gt;ast.Store object at 0x7031ebab6a90 -->
<g id="edge57" class="edge">
<title>ast.Tuple object at 0x703101c19550&#45;&gt;ast.Store object at 0x7031ebab6a90</title>
<path fill="none" stroke="black" d="M628.29,-143.99C625.93,-123.89 618.98,-90.82 598.5,-72 551.62,-28.92 474.56,-19.78 428.85,-18.44"/>
<polygon fill="black" stroke="black" points="428.84,-14.94 418.77,-18.25 428.71,-21.94 428.84,-14.94"/>
</g>
<!-- ast.Name object at 0x703100439b10 -->
<g id="node42" class="node">
<title>ast.Name object at 0x703100439b10</title>
<path fill="#66cdaa" stroke="black" d="M687.5,-108C687.5,-108 657.5,-108 657.5,-108 651.5,-108 645.5,-102 645.5,-96 645.5,-96 645.5,-84 645.5,-84 645.5,-78 651.5,-72 657.5,-72 657.5,-72 687.5,-72 687.5,-72 693.5,-72 699.5,-78 699.5,-84 699.5,-84 699.5,-96 699.5,-96 699.5,-102 693.5,-108 687.5,-108"/>
<text text-anchor="middle" x="672.5" y="-86.3" font-family="Times,serif" font-size="14.00">Name</text>
</g>
<!-- ast.Tuple object at 0x703101c19550&#45;&gt;ast.Name object at 0x703100439b10 -->
<g id="edge53" class="edge">
<title>ast.Tuple object at 0x703101c19550&#45;&gt;ast.Name object at 0x703100439b10</title>
<path fill="none" stroke="black" d="M640.13,-143.7C645.13,-135.56 651.19,-125.69 656.71,-116.7"/>
<polygon fill="black" stroke="black" points="659.74,-118.46 661.99,-108.1 653.78,-114.79 659.74,-118.46"/>
</g>
<!-- ast.Name object at 0x703100439b90 -->
<g id="node43" class="node">
<title>ast.Name object at 0x703100439b90</title>
<path fill="#66cdaa" stroke="black" d="M433.5,-108C433.5,-108 403.5,-108 403.5,-108 397.5,-108 391.5,-102 391.5,-96 391.5,-96 391.5,-84 391.5,-84 391.5,-78 397.5,-72 403.5,-72 403.5,-72 433.5,-72 433.5,-72 439.5,-72 445.5,-78 445.5,-84 445.5,-84 445.5,-96 445.5,-96 445.5,-102 439.5,-108 433.5,-108"/>
<text text-anchor="middle" x="418.5" y="-86.3" font-family="Times,serif" font-size="14.00">Name</text>
</g>
<!-- ast.Tuple object at 0x703101c19550&#45;&gt;ast.Name object at 0x703100439b90 -->
<g id="edge55" class="edge">
<title>ast.Tuple object at 0x703101c19550&#45;&gt;ast.Name object at 0x703100439b90</title>
<path fill="none" stroke="black" d="M602.4,-154.12C569.48,-145.48 512.2,-129.54 455.33,-108.06"/>
<polygon fill="black" stroke="black" points="456.43,-104.73 445.84,-104.42 453.92,-111.27 456.43,-104.73"/>
</g>
<!-- ast.Name object at 0x703100439b10&#45;&gt;ast.Store object at 0x7031ebab6a90 -->
<g id="edge54" class="edge">
<title>ast.Name object at 0x703100439b10&#45;&gt;ast.Store object at 0x7031ebab6a90</title>
<path fill="none" stroke="black" d="M645.4,-76.98C640.81,-75.17 636.06,-73.44 631.5,-72 561.12,-49.83 476.32,-33.43 428.69,-25.12"/>
<polygon fill="black" stroke="black" points="428.99,-21.62 418.54,-23.37 427.8,-28.52 428.99,-21.62"/>
</g>
<!-- ast.Name object at 0x703100439b90&#45;&gt;ast.Store object at 0x7031ebab6a90 -->
<g id="edge56" class="edge">
<title>ast.Name object at 0x703100439b90&#45;&gt;ast.Store object at 0x7031ebab6a90</title>
<path fill="none" stroke="black" d="M411.83,-71.7C408.79,-63.81 405.12,-54.3 401.74,-45.55"/>
<polygon fill="black" stroke="black" points="404.96,-44.17 398.1,-36.1 398.43,-46.69 404.96,-44.17"/>
</g>
<!-- ast.Tuple object at 0x703100661250&#45;&gt;ast.Load object at 0x7031ebab6a10 -->
<g id="edge63" class="edge">
<title>ast.Tuple object at 0x703100661250&#45;&gt;ast.Load object at 0x7031ebab6a10</title>
<path fill="none" stroke="black" d="M1018.91,-143.75C1019.13,-124.34 1022.27,-92.8 1038.5,-72 1056.03,-49.52 1085.58,-35.95 1109.33,-28.17"/>
<polygon fill="black" stroke="black" points="1110.57,-31.45 1119.11,-25.18 1108.52,-24.76 1110.57,-31.45"/>
</g>
<!-- ast.Name object at 0x703100661150 -->
<g id="node45" class="node">
<title>ast.Name object at 0x703100661150</title>
<path fill="#66cdaa" stroke="black" d="M1089.5,-108C1089.5,-108 1059.5,-108 1059.5,-108 1053.5,-108 1047.5,-102 1047.5,-96 1047.5,-96 1047.5,-84 1047.5,-84 1047.5,-78 1053.5,-72 1059.5,-72 1059.5,-72 1089.5,-72 1089.5,-72 1095.5,-72 1101.5,-78 1101.5,-84 1101.5,-84 1101.5,-96 1101.5,-96 1101.5,-102 1095.5,-108 1089.5,-108"/>
<text text-anchor="middle" x="1074.5" y="-86.3" font-family="Times,serif" font-size="14.00">Name</text>
</g>
<!-- ast.Tuple object at 0x703100661250&#45;&gt;ast.Name object at 0x703100661150 -->
<g id="edge59" class="edge">
<title>ast.Tuple object at 0x703100661250&#45;&gt;ast.Name object at 0x703100661150</title>
<path fill="none" stroke="black" d="M1033.1,-143.7C1039.62,-135.39 1047.57,-125.28 1054.75,-116.14"/>
<polygon fill="black" stroke="black" points="1057.63,-118.13 1061.06,-108.1 1052.13,-113.81 1057.63,-118.13"/>
</g>
<!-- ast.Name object at 0x703100660390 -->
<g id="node46" class="node">
<title>ast.Name object at 0x703100660390</title>
<path fill="#66cdaa" stroke="black" d="M907.5,-108C907.5,-108 877.5,-108 877.5,-108 871.5,-108 865.5,-102 865.5,-96 865.5,-96 865.5,-84 865.5,-84 865.5,-78 871.5,-72 877.5,-72 877.5,-72 907.5,-72 907.5,-72 913.5,-72 919.5,-78 919.5,-84 919.5,-84 919.5,-96 919.5,-96 919.5,-102 913.5,-108 907.5,-108"/>
<text text-anchor="middle" x="892.5" y="-86.3" font-family="Times,serif" font-size="14.00">Name</text>
</g>
<!-- ast.Tuple object at 0x703100661250&#45;&gt;ast.Name object at 0x703100660390 -->
<g id="edge61" class="edge">
<title>ast.Tuple object at 0x703100661250&#45;&gt;ast.Name object at 0x703100660390</title>
<path fill="none" stroke="black" d="M992.26,-145.98C973.67,-135.74 948.86,-122.07 928.63,-110.92"/>
<polygon fill="black" stroke="black" points="930.15,-107.75 919.7,-105.99 926.77,-113.88 930.15,-107.75"/>
</g>
<!-- ast.Name object at 0x703100661150&#45;&gt;ast.Load object at 0x7031ebab6a10 -->
<g id="edge60" class="edge">
<title>ast.Name object at 0x703100661150&#45;&gt;ast.Load object at 0x7031ebab6a10</title>
<path fill="none" stroke="black" d="M1092.3,-71.7C1101.1,-63.14 1111.88,-52.66 1121.5,-43.3"/>
<polygon fill="black" stroke="black" points="1124.18,-45.58 1128.91,-36.1 1119.3,-40.57 1124.18,-45.58"/>
</g>
<!-- ast.Name object at 0x703100660390&#45;&gt;ast.Load object at 0x7031ebab6a10 -->
<g id="edge62" class="edge">
<title>ast.Name object at 0x703100660390&#45;&gt;ast.Load object at 0x7031ebab6a10</title>
<path fill="none" stroke="black" d="M919.78,-75.42C922.69,-74.18 925.63,-73.01 928.5,-72 990.54,-50.06 1065.65,-34 1109.55,-25.61"/>
<polygon fill="black" stroke="black" points="1110.3,-29.03 1119.48,-23.74 1109.01,-22.15 1110.3,-29.03"/>
</g>
<!-- ast.Compare object at 0x703100344410 -->
<g id="node48" class="node">
<title>ast.Compare object at 0x703100344410</title>
<path fill="#66cdaa" stroke="black" d="M1348,-180C1348,-180 1305,-180 1305,-180 1299,-180 1293,-174 1293,-168 1293,-168 1293,-156 1293,-156 1293,-150 1299,-144 1305,-144 1305,-144 1348,-144 1348,-144 1354,-144 1360,-150 1360,-156 1360,-156 1360,-168 1360,-168 1360,-174 1354,-180 1348,-180"/>
<text text-anchor="middle" x="1326.5" y="-158.3" font-family="Times,serif" font-size="14.00">Compare</text>
</g>
<!-- ast.If object at 0x7031006616d0&#45;&gt;ast.Compare object at 0x703100344410 -->
<g id="edge65" class="edge">
<title>ast.If object at 0x7031006616d0&#45;&gt;ast.Compare object at 0x703100344410</title>
<path fill="none" stroke="black" d="M1145.69,-223.85C1180.66,-212.08 1241.8,-191.5 1283.2,-177.57"/>
<polygon fill="black" stroke="black" points="1284.39,-180.86 1292.75,-174.36 1282.16,-174.23 1284.39,-180.86"/>
</g>
<!-- ast.Assign object at 0x70310050ac50 -->
<g id="node52" class="node">
<title>ast.Assign object at 0x70310050ac50</title>
<path fill="#66cdaa" stroke="black" d="M1133.5,-180C1133.5,-180 1103.5,-180 1103.5,-180 1097.5,-180 1091.5,-174 1091.5,-168 1091.5,-168 1091.5,-156 1091.5,-156 1091.5,-150 1097.5,-144 1103.5,-144 1103.5,-144 1133.5,-144 1133.5,-144 1139.5,-144 1145.5,-150 1145.5,-156 1145.5,-156 1145.5,-168 1145.5,-168 1145.5,-174 1139.5,-180 1133.5,-180"/>
<text text-anchor="middle" x="1118.5" y="-158.3" font-family="Times,serif" font-size="14.00">Assign</text>
</g>
<!-- ast.If object at 0x7031006616d0&#45;&gt;ast.Assign object at 0x70310050ac50 -->
<g id="edge74" class="edge">
<title>ast.If object at 0x7031006616d0&#45;&gt;ast.Assign object at 0x70310050ac50</title>
<path fill="none" stroke="black" d="M1118.5,-215.7C1118.5,-207.98 1118.5,-198.71 1118.5,-190.11"/>
<polygon fill="black" stroke="black" points="1122,-190.1 1118.5,-180.1 1115,-190.1 1122,-190.1"/>
</g>
<!-- ast.Compare object at 0x703100344410&#45;&gt;ast.Lt object at 0x7031ebab7b10 -->
<g id="edge68" class="edge">
<title>ast.Compare object at 0x703100344410&#45;&gt;ast.Lt object at 0x7031ebab7b10</title>
<path fill="none" stroke="black" d="M1347.02,-143.88C1361.6,-133.74 1381.38,-120.88 1398.5,-110.37"/>
<polygon fill="black" stroke="black" points="1400.43,-113.3 1407.17,-105.12 1396.8,-107.31 1400.43,-113.3"/>
</g>
<!-- ast.Compare object at 0x703100344410&#45;&gt;ast.Lt object at 0x7031ebab7b10 -->
<g id="edge69" class="edge">
<title>ast.Compare object at 0x703100344410&#45;&gt;ast.Lt object at 0x7031ebab7b10</title>
<path fill="none" stroke="black" d="M1358.82,-143.88C1373.62,-134.89 1390.95,-123.76 1405.35,-114.03"/>
<polygon fill="black" stroke="black" points="1407.61,-116.73 1413.88,-108.19 1403.65,-110.95 1407.61,-116.73"/>
</g>
<!-- ast.Name object at 0x703100347350 -->
<g id="node49" class="node">
<title>ast.Name object at 0x703100347350</title>
<path fill="#66cdaa" stroke="black" d="M1377.5,-108C1377.5,-108 1347.5,-108 1347.5,-108 1341.5,-108 1335.5,-102 1335.5,-96 1335.5,-96 1335.5,-84 1335.5,-84 1335.5,-78 1341.5,-72 1347.5,-72 1347.5,-72 1377.5,-72 1377.5,-72 1383.5,-72 1389.5,-78 1389.5,-84 1389.5,-84 1389.5,-96 1389.5,-96 1389.5,-102 1383.5,-108 1377.5,-108"/>
<text text-anchor="middle" x="1362.5" y="-86.3" font-family="Times,serif" font-size="14.00">Name</text>
</g>
<!-- ast.Compare object at 0x703100344410&#45;&gt;ast.Name object at 0x703100347350 -->
<g id="edge66" class="edge">
<title>ast.Compare object at 0x703100344410&#45;&gt;ast.Name object at 0x703100347350</title>
<path fill="none" stroke="black" d="M1335.4,-143.7C1339.5,-135.73 1344.45,-126.1 1348.99,-117.26"/>
<polygon fill="black" stroke="black" points="1352.24,-118.6 1353.7,-108.1 1346.02,-115.4 1352.24,-118.6"/>
</g>
<!-- ast.Name object at 0x703100344f50 -->
<g id="node50" class="node">
<title>ast.Name object at 0x703100344f50</title>
<path fill="#66cdaa" stroke="black" d="M1233.5,-108C1233.5,-108 1203.5,-108 1203.5,-108 1197.5,-108 1191.5,-102 1191.5,-96 1191.5,-96 1191.5,-84 1191.5,-84 1191.5,-78 1197.5,-72 1203.5,-72 1203.5,-72 1233.5,-72 1233.5,-72 1239.5,-72 1245.5,-78 1245.5,-84 1245.5,-84 1245.5,-96 1245.5,-96 1245.5,-102 1239.5,-108 1233.5,-108"/>
<text text-anchor="middle" x="1218.5" y="-86.3" font-family="Times,serif" font-size="14.00">Name</text>
</g>
<!-- ast.Compare object at 0x703100344410&#45;&gt;ast.Name object at 0x703100344f50 -->
<g id="edge70" class="edge">
<title>ast.Compare object at 0x703100344410&#45;&gt;ast.Name object at 0x703100344f50</title>
<path fill="none" stroke="black" d="M1300.08,-143.88C1286.09,-134.81 1268.72,-123.55 1253.61,-113.76"/>
<polygon fill="black" stroke="black" points="1255.32,-110.69 1245.02,-108.19 1251.51,-116.57 1255.32,-110.69"/>
</g>
<!-- ast.Name object at 0x7031003d84d0 -->
<g id="node51" class="node">
<title>ast.Name object at 0x7031003d84d0</title>
<path fill="#66cdaa" stroke="black" d="M1305.5,-108C1305.5,-108 1275.5,-108 1275.5,-108 1269.5,-108 1263.5,-102 1263.5,-96 1263.5,-96 1263.5,-84 1263.5,-84 1263.5,-78 1269.5,-72 1275.5,-72 1275.5,-72 1305.5,-72 1305.5,-72 1311.5,-72 1317.5,-78 1317.5,-84 1317.5,-84 1317.5,-96 1317.5,-96 1317.5,-102 1311.5,-108 1305.5,-108"/>
<text text-anchor="middle" x="1290.5" y="-86.3" font-family="Times,serif" font-size="14.00">Name</text>
</g>
<!-- ast.Compare object at 0x703100344410&#45;&gt;ast.Name object at 0x7031003d84d0 -->
<g id="edge72" class="edge">
<title>ast.Compare object at 0x703100344410&#45;&gt;ast.Name object at 0x7031003d84d0</title>
<path fill="none" stroke="black" d="M1317.6,-143.7C1313.5,-135.73 1308.55,-126.1 1304.01,-117.26"/>
<polygon fill="black" stroke="black" points="1306.98,-115.4 1299.3,-108.1 1300.76,-118.6 1306.98,-115.4"/>
</g>
<!-- ast.Name object at 0x703100347350&#45;&gt;ast.Load object at 0x7031ebab6a10 -->
<g id="edge67" class="edge">
<title>ast.Name object at 0x703100347350&#45;&gt;ast.Load object at 0x7031ebab6a10</title>
<path fill="none" stroke="black" d="M1335.17,-75.56C1332.27,-74.29 1329.34,-73.08 1326.5,-72 1278.08,-53.57 1220.35,-37.58 1183.56,-28.12"/>
<polygon fill="black" stroke="black" points="1184.32,-24.7 1173.77,-25.62 1182.6,-31.48 1184.32,-24.7"/>
</g>
<!-- ast.Name object at 0x703100344f50&#45;&gt;ast.Load object at 0x7031ebab6a10 -->
<g id="edge71" class="edge">
<title>ast.Name object at 0x703100344f50&#45;&gt;ast.Load object at 0x7031ebab6a10</title>
<path fill="none" stroke="black" d="M1200.7,-71.7C1191.9,-63.14 1181.12,-52.66 1171.5,-43.3"/>
<polygon fill="black" stroke="black" points="1173.7,-40.57 1164.09,-36.1 1168.82,-45.58 1173.7,-40.57"/>
</g>
<!-- ast.Name object at 0x7031003d84d0&#45;&gt;ast.Load object at 0x7031ebab6a10 -->
<g id="edge73" class="edge">
<title>ast.Name object at 0x7031003d84d0&#45;&gt;ast.Load object at 0x7031ebab6a10</title>
<path fill="none" stroke="black" d="M1263.41,-75.83C1240.73,-64.81 1208.14,-48.97 1183.13,-36.81"/>
<polygon fill="black" stroke="black" points="1184.48,-33.57 1173.95,-32.35 1181.42,-39.87 1184.48,-33.57"/>
</g>
<!-- ast.Name object at 0x7031002500d0 -->
<g id="node53" class="node">
<title>ast.Name object at 0x7031002500d0</title>
<path fill="#66cdaa" stroke="black" d="M979.5,-108C979.5,-108 949.5,-108 949.5,-108 943.5,-108 937.5,-102 937.5,-96 937.5,-96 937.5,-84 937.5,-84 937.5,-78 943.5,-72 949.5,-72 949.5,-72 979.5,-72 979.5,-72 985.5,-72 991.5,-78 991.5,-84 991.5,-84 991.5,-96 991.5,-96 991.5,-102 985.5,-108 979.5,-108"/>
<text text-anchor="middle" x="964.5" y="-86.3" font-family="Times,serif" font-size="14.00">Name</text>
</g>
<!-- ast.Assign object at 0x70310050ac50&#45;&gt;ast.Name object at 0x7031002500d0 -->
<g id="edge75" class="edge">
<title>ast.Assign object at 0x70310050ac50&#45;&gt;ast.Name object at 0x7031002500d0</title>
<path fill="none" stroke="black" d="M1091.32,-148.65C1066.22,-137.24 1028.73,-120.2 1001.02,-107.6"/>
<polygon fill="black" stroke="black" points="1002.22,-104.3 991.66,-103.35 999.32,-110.67 1002.22,-104.3"/>
</g>
<!-- ast.Name object at 0x703100250650 -->
<g id="node54" class="node">
<title>ast.Name object at 0x703100250650</title>
<path fill="#66cdaa" stroke="black" d="M1161.5,-108C1161.5,-108 1131.5,-108 1131.5,-108 1125.5,-108 1119.5,-102 1119.5,-96 1119.5,-96 1119.5,-84 1119.5,-84 1119.5,-78 1125.5,-72 1131.5,-72 1131.5,-72 1161.5,-72 1161.5,-72 1167.5,-72 1173.5,-78 1173.5,-84 1173.5,-84 1173.5,-96 1173.5,-96 1173.5,-102 1167.5,-108 1161.5,-108"/>
<text text-anchor="middle" x="1146.5" y="-86.3" font-family="Times,serif" font-size="14.00">Name</text>
</g>
<!-- ast.Assign object at 0x70310050ac50&#45;&gt;ast.Name object at 0x703100250650 -->
<g id="edge77" class="edge">
<title>ast.Assign object at 0x70310050ac50&#45;&gt;ast.Name object at 0x703100250650</title>
<path fill="none" stroke="black" d="M1125.42,-143.7C1128.57,-135.81 1132.38,-126.3 1135.88,-117.55"/>
<polygon fill="black" stroke="black" points="1139.19,-118.69 1139.66,-108.1 1132.69,-116.09 1139.19,-118.69"/>
</g>
<!-- ast.Name object at 0x7031002500d0&#45;&gt;ast.Store object at 0x7031ebab6a90 -->
<g id="edge76" class="edge">
<title>ast.Name object at 0x7031002500d0&#45;&gt;ast.Store object at 0x7031ebab6a90</title>
<path fill="none" stroke="black" d="M937.36,-75C934.42,-73.84 931.43,-72.81 928.5,-72 746.07,-21.56 517.12,-17.72 428.71,-18.35"/>
<polygon fill="black" stroke="black" points="428.6,-14.85 418.63,-18.44 428.66,-21.85 428.6,-14.85"/>
</g>
<!-- ast.Name object at 0x703100250650&#45;&gt;ast.Load object at 0x7031ebab6a10 -->
<g id="edge78" class="edge">
<title>ast.Name object at 0x703100250650&#45;&gt;ast.Load object at 0x7031ebab6a10</title>
<path fill="none" stroke="black" d="M1146.5,-71.7C1146.5,-63.98 1146.5,-54.71 1146.5,-46.11"/>
<polygon fill="black" stroke="black" points="1150,-46.1 1146.5,-36.1 1143,-46.1 1150,-46.1"/>
</g>
<!-- ast.Name object at 0x7031003afb50 -->
<g id="node56" class="node">
<title>ast.Name object at 0x7031003afb50</title>
<path fill="#66cdaa" stroke="black" d="M1431.5,-324C1431.5,-324 1401.5,-324 1401.5,-324 1395.5,-324 1389.5,-318 1389.5,-312 1389.5,-312 1389.5,-300 1389.5,-300 1389.5,-294 1395.5,-288 1401.5,-288 1401.5,-288 1431.5,-288 1431.5,-288 1437.5,-288 1443.5,-294 1443.5,-300 1443.5,-300 1443.5,-312 1443.5,-312 1443.5,-318 1437.5,-324 1431.5,-324"/>
<text text-anchor="middle" x="1416.5" y="-302.3" font-family="Times,serif" font-size="14.00">Name</text>
</g>
<!-- ast.Return object at 0x703100716e90&#45;&gt;ast.Name object at 0x7031003afb50 -->
<g id="edge80" class="edge">
<title>ast.Return object at 0x703100716e90&#45;&gt;ast.Name object at 0x7031003afb50</title>
<path fill="none" stroke="black" d="M1287.67,-364.81C1313.32,-353.3 1351.95,-335.96 1380.22,-323.28"/>
<polygon fill="black" stroke="black" points="1381.69,-326.46 1389.38,-319.17 1378.82,-320.07 1381.69,-326.46"/>
</g>
<!-- ast.Name object at 0x7031003afb50&#45;&gt;ast.Load object at 0x7031ebab6a10 -->
<g id="edge81" class="edge">
<title>ast.Name object at 0x7031003afb50&#45;&gt;ast.Load object at 0x7031ebab6a10</title>
<path fill="none" stroke="black" d="M1443.53,-291.67C1513.06,-255.71 1687.7,-153.96 1614.5,-72 1585.93,-40.01 1289.88,-24.86 1183.94,-20.43"/>
<polygon fill="black" stroke="black" points="1183.85,-16.92 1173.72,-20.01 1183.57,-23.92 1183.85,-16.92"/>
</g>
</g>
</svg>
