<?xml version="1.0" encoding="UTF-8" standalone="no"?>
<!DOCTYPE svg PUBLIC "-//W3C//DTD SVG 1.1//EN"
 "http://www.w3.org/Graphics/SVG/1.1/DTD/svg11.dtd">
<!-- Generated by graphviz version 2.50.0 (0)
 -->
<!-- Pages: 1 -->
<svg width="1826pt" height="620pt"
 viewBox="0.00 0.00 1826.00 620.00" xmlns="http://www.w3.org/2000/svg" xmlns:xlink="http://www.w3.org/1999/xlink">
<g id="graph0" class="graph" transform="scale(1 1) rotate(0) translate(4 616)">
<polygon fill="white" stroke="transparent" points="-4,4 -4,-616 1822,-616 1822,4 -4,4"/>
<!-- ast.Module object at 0x7030bcd31a50 -->
<g id="node1" class="node">
<title>ast.Module object at 0x7030bcd31a50</title>
<path fill="#66cdaa" stroke="black" d="M846,-612C846,-612 811,-612 811,-612 805,-612 799,-606 799,-600 799,-600 799,-588 799,-588 799,-582 805,-576 811,-576 811,-576 846,-576 846,-576 852,-576 858,-582 858,-588 858,-588 858,-600 858,-600 858,-606 852,-612 846,-612"/>
<text text-anchor="middle" x="828.5" y="-590.3" font-family="Times,serif" font-size="14.00">Module</text>
</g>
<!-- ast.FunctionDef object at 0x70309cc324d0 -->
<g id="node2" class="node">
<title>ast.FunctionDef object at 0x70309cc324d0</title>
<path fill="#66cdaa" stroke="black" d="M859,-540C859,-540 798,-540 798,-540 792,-540 786,-534 786,-528 786,-528 786,-516 786,-516 786,-510 792,-504 798,-504 798,-504 859,-504 859,-504 865,-504 871,-510 871,-516 871,-516 871,-528 871,-528 871,-534 865,-540 859,-540"/>
<text text-anchor="middle" x="828.5" y="-518.3" font-family="Times,serif" font-size="14.00">FunctionDef</text>
</g>
<!-- ast.Module object at 0x7030bcd31a50&#45;&gt;ast.FunctionDef object at 0x70309cc324d0 -->
<g id="edge1" class="edge">
<title>ast.Module object at 0x7030bcd31a50&#45;&gt;ast.FunctionDef object at 0x70309cc324d0</title>
<path fill="none" stroke="black" d="M828.5,-575.7C828.5,-567.98 828.5,-558.71 828.5,-550.11"/>
<polygon fill="black" stroke="black" points="832,-550.1 828.5,-540.1 825,-550.1 832,-550.1"/>
</g>
<!-- ast.arguments object at 0x70309e7f0310 -->
<g id="node3" class="node">
<title>ast.arguments object at 0x70309e7f0310</title>
<path fill="#66cdaa" stroke="black" d="M570.5,-468C570.5,-468 520.5,-468 520.5,-468 514.5,-468 508.5,-462 508.5,-456 508.5,-456 508.5,-444 508.5,-444 508.5,-438 514.5,-432 520.5,-432 520.5,-432 570.5,-432 570.5,-432 576.5,-432 582.5,-438 582.5,-444 582.5,-444 582.5,-456 582.5,-456 582.5,-462 576.5,-468 570.5,-468"/>
<text text-anchor="middle" x="545.5" y="-446.3" font-family="Times,serif" font-size="14.00">arguments</text>
</g>
<!-- ast.FunctionDef object at 0x70309cc324d0&#45;&gt;ast.arguments object at 0x70309e7f0310 -->
<g id="edge2" class="edge">
<title>ast.FunctionDef object at 0x70309cc324d0&#45;&gt;ast.arguments object at 0x70309e7f0310</title>
<path fill="none" stroke="black" d="M785.83,-510.44C733.89,-497.6 646.49,-475.98 592.62,-462.66"/>
<polygon fill="black" stroke="black" points="593.19,-459.19 582.64,-460.19 591.51,-465.99 593.19,-459.19"/>
</g>
<!-- ast.Assign object at 0x70309d8f0f10 -->
<g id="node5" class="node">
<title>ast.Assign object at 0x70309d8f0f10</title>
<path fill="#66cdaa" stroke="black" d="M1077.5,-468C1077.5,-468 1047.5,-468 1047.5,-468 1041.5,-468 1035.5,-462 1035.5,-456 1035.5,-456 1035.5,-444 1035.5,-444 1035.5,-438 1041.5,-432 1047.5,-432 1047.5,-432 1077.5,-432 1077.5,-432 1083.5,-432 1089.5,-438 1089.5,-444 1089.5,-444 1089.5,-456 1089.5,-456 1089.5,-462 1083.5,-468 1077.5,-468"/>
<text text-anchor="middle" x="1062.5" y="-446.3" font-family="Times,serif" font-size="14.00">Assign</text>
</g>
<!-- ast.FunctionDef object at 0x70309cc324d0&#45;&gt;ast.Assign object at 0x70309d8f0f10 -->
<g id="edge4" class="edge">
<title>ast.FunctionDef object at 0x70309cc324d0&#45;&gt;ast.Assign object at 0x70309d8f0f10</title>
<path fill="none" stroke="black" d="M871.15,-508.24C915.35,-495.02 983.74,-474.56 1025.67,-462.02"/>
<polygon fill="black" stroke="black" points="1026.9,-465.3 1035.47,-459.09 1024.89,-458.6 1026.9,-465.3"/>
</g>
<!-- ast.Assign object at 0x70309d525950 -->
<g id="node18" class="node">
<title>ast.Assign object at 0x70309d525950</title>
<path fill="#66cdaa" stroke="black" d="M673.5,-468C673.5,-468 643.5,-468 643.5,-468 637.5,-468 631.5,-462 631.5,-456 631.5,-456 631.5,-444 631.5,-444 631.5,-438 637.5,-432 643.5,-432 643.5,-432 673.5,-432 673.5,-432 679.5,-432 685.5,-438 685.5,-444 685.5,-444 685.5,-456 685.5,-456 685.5,-462 679.5,-468 673.5,-468"/>
<text text-anchor="middle" x="658.5" y="-446.3" font-family="Times,serif" font-size="14.00">Assign</text>
</g>
<!-- ast.FunctionDef object at 0x70309cc324d0&#45;&gt;ast.Assign object at 0x70309d525950 -->
<g id="edge23" class="edge">
<title>ast.FunctionDef object at 0x70309cc324d0&#45;&gt;ast.Assign object at 0x70309d525950</title>
<path fill="none" stroke="black" d="M786.91,-503.88C758.81,-492.3 722.05,-477.17 695.07,-466.06"/>
<polygon fill="black" stroke="black" points="696.18,-462.73 685.61,-462.16 693.52,-469.2 696.18,-462.73"/>
</g>
<!-- ast.If object at 0x70309c716f90 -->
<g id="node41" class="node">
<title>ast.If object at 0x70309c716f90</title>
<path fill="#66cdaa" stroke="black" d="M843.5,-468C843.5,-468 813.5,-468 813.5,-468 807.5,-468 801.5,-462 801.5,-456 801.5,-456 801.5,-444 801.5,-444 801.5,-438 807.5,-432 813.5,-432 813.5,-432 843.5,-432 843.5,-432 849.5,-432 855.5,-438 855.5,-444 855.5,-444 855.5,-456 855.5,-456 855.5,-462 849.5,-468 843.5,-468"/>
<text text-anchor="middle" x="828.5" y="-446.3" font-family="Times,serif" font-size="14.00">If</text>
</g>
<!-- ast.FunctionDef object at 0x70309cc324d0&#45;&gt;ast.If object at 0x70309c716f90 -->
<g id="edge55" class="edge">
<title>ast.FunctionDef object at 0x70309cc324d0&#45;&gt;ast.If object at 0x70309c716f90</title>
<path fill="none" stroke="black" d="M828.5,-503.7C828.5,-495.98 828.5,-486.71 828.5,-478.11"/>
<polygon fill="black" stroke="black" points="832,-478.1 828.5,-468.1 825,-478.1 832,-478.1"/>
</g>
<!-- ast.If object at 0x70309c715850 -->
<g id="node48" class="node">
<title>ast.If object at 0x70309c715850</title>
<path fill="#66cdaa" stroke="black" d="M1369.5,-396C1369.5,-396 1339.5,-396 1339.5,-396 1333.5,-396 1327.5,-390 1327.5,-384 1327.5,-384 1327.5,-372 1327.5,-372 1327.5,-366 1333.5,-360 1339.5,-360 1339.5,-360 1369.5,-360 1369.5,-360 1375.5,-360 1381.5,-366 1381.5,-372 1381.5,-372 1381.5,-384 1381.5,-384 1381.5,-390 1375.5,-396 1369.5,-396"/>
<text text-anchor="middle" x="1354.5" y="-374.3" font-family="Times,serif" font-size="14.00">If</text>
</g>
<!-- ast.FunctionDef object at 0x70309cc324d0&#45;&gt;ast.If object at 0x70309c715850 -->
<g id="edge63" class="edge">
<title>ast.FunctionDef object at 0x70309cc324d0&#45;&gt;ast.If object at 0x70309c715850</title>
<path fill="none" stroke="black" d="M871.01,-514.56C924.57,-506.01 1019.19,-489.46 1098.5,-468 1177.96,-446.5 1268.37,-412.82 1317.66,-393.65"/>
<polygon fill="black" stroke="black" points="1319.2,-396.8 1327.24,-389.9 1316.66,-390.29 1319.2,-396.8"/>
</g>
<!-- ast.arg object at 0x70307a9360d0 -->
<g id="node4" class="node">
<title>ast.arg object at 0x70307a9360d0</title>
<path fill="#66cdaa" stroke="black" d="M529.5,-396C529.5,-396 499.5,-396 499.5,-396 493.5,-396 487.5,-390 487.5,-384 487.5,-384 487.5,-372 487.5,-372 487.5,-366 493.5,-360 499.5,-360 499.5,-360 529.5,-360 529.5,-360 535.5,-360 541.5,-366 541.5,-372 541.5,-372 541.5,-384 541.5,-384 541.5,-390 535.5,-396 529.5,-396"/>
<text text-anchor="middle" x="514.5" y="-374.3" font-family="Times,serif" font-size="14.00">arg</text>
</g>
<!-- ast.arguments object at 0x70309e7f0310&#45;&gt;ast.arg object at 0x70307a9360d0 -->
<g id="edge3" class="edge">
<title>ast.arguments object at 0x70309e7f0310&#45;&gt;ast.arg object at 0x70307a9360d0</title>
<path fill="none" stroke="black" d="M537.84,-431.7C534.31,-423.73 530.04,-414.1 526.13,-405.26"/>
<polygon fill="black" stroke="black" points="529.32,-403.83 522.07,-396.1 522.92,-406.67 529.32,-403.83"/>
</g>
<!-- ast.Tuple object at 0x70309cdbb650 -->
<g id="node6" class="node">
<title>ast.Tuple object at 0x70309cdbb650</title>
<path fill="#66cdaa" stroke="black" d="M1077.5,-396C1077.5,-396 1047.5,-396 1047.5,-396 1041.5,-396 1035.5,-390 1035.5,-384 1035.5,-384 1035.5,-372 1035.5,-372 1035.5,-366 1041.5,-360 1047.5,-360 1047.5,-360 1077.5,-360 1077.5,-360 1083.5,-360 1089.5,-366 1089.5,-372 1089.5,-372 1089.5,-384 1089.5,-384 1089.5,-390 1083.5,-396 1077.5,-396"/>
<text text-anchor="middle" x="1062.5" y="-374.3" font-family="Times,serif" font-size="14.00">Tuple</text>
</g>
<!-- ast.Assign object at 0x70309d8f0f10&#45;&gt;ast.Tuple object at 0x70309cdbb650 -->
<g id="edge5" class="edge">
<title>ast.Assign object at 0x70309d8f0f10&#45;&gt;ast.Tuple object at 0x70309cdbb650</title>
<path fill="none" stroke="black" d="M1062.5,-431.7C1062.5,-423.98 1062.5,-414.71 1062.5,-406.11"/>
<polygon fill="black" stroke="black" points="1066,-406.1 1062.5,-396.1 1059,-406.1 1066,-406.1"/>
</g>
<!-- ast.Tuple object at 0x70309cdbb590 -->
<g id="node10" class="node">
<title>ast.Tuple object at 0x70309cdbb590</title>
<path fill="#66cdaa" stroke="black" d="M1094.5,-252C1094.5,-252 1064.5,-252 1064.5,-252 1058.5,-252 1052.5,-246 1052.5,-240 1052.5,-240 1052.5,-228 1052.5,-228 1052.5,-222 1058.5,-216 1064.5,-216 1064.5,-216 1094.5,-216 1094.5,-216 1100.5,-216 1106.5,-222 1106.5,-228 1106.5,-228 1106.5,-240 1106.5,-240 1106.5,-246 1100.5,-252 1094.5,-252"/>
<text text-anchor="middle" x="1079.5" y="-230.3" font-family="Times,serif" font-size="14.00">Tuple</text>
</g>
<!-- ast.Assign object at 0x70309d8f0f10&#45;&gt;ast.Tuple object at 0x70309cdbb590 -->
<g id="edge11" class="edge">
<title>ast.Assign object at 0x70309d8f0f10&#45;&gt;ast.Tuple object at 0x70309cdbb590</title>
<path fill="none" stroke="black" d="M1080.85,-431.64C1103.04,-409.24 1139.21,-367.9 1153.5,-324 1158.45,-308.79 1160.81,-302.23 1153.5,-288 1145.37,-272.17 1130.07,-260.01 1115.48,-251.36"/>
<polygon fill="black" stroke="black" points="1117.01,-248.2 1106.56,-246.42 1113.62,-254.32 1117.01,-248.2"/>
</g>
<!-- ast.Name object at 0x70309cdbaa90 -->
<g id="node7" class="node">
<title>ast.Name object at 0x70309cdbaa90</title>
<path fill="#66cdaa" stroke="black" d="M1022.5,-324C1022.5,-324 992.5,-324 992.5,-324 986.5,-324 980.5,-318 980.5,-312 980.5,-312 980.5,-300 980.5,-300 980.5,-294 986.5,-288 992.5,-288 992.5,-288 1022.5,-288 1022.5,-288 1028.5,-288 1034.5,-294 1034.5,-300 1034.5,-300 1034.5,-312 1034.5,-312 1034.5,-318 1028.5,-324 1022.5,-324"/>
<text text-anchor="middle" x="1007.5" y="-302.3" font-family="Times,serif" font-size="14.00">Name</text>
</g>
<!-- ast.Tuple object at 0x70309cdbb650&#45;&gt;ast.Name object at 0x70309cdbaa90 -->
<g id="edge6" class="edge">
<title>ast.Tuple object at 0x70309cdbb650&#45;&gt;ast.Name object at 0x70309cdbaa90</title>
<path fill="none" stroke="black" d="M1048.9,-359.7C1042.38,-351.39 1034.43,-341.28 1027.25,-332.14"/>
<polygon fill="black" stroke="black" points="1029.87,-329.81 1020.94,-324.1 1024.37,-334.13 1029.87,-329.81"/>
</g>
<!-- ast.Store object at 0x7031ebab6a90 -->
<g id="node8" class="node">
<title>ast.Store object at 0x7031ebab6a90</title>
<path fill="#66cdaa" stroke="black" d="M1022.5,-252C1022.5,-252 992.5,-252 992.5,-252 986.5,-252 980.5,-246 980.5,-240 980.5,-240 980.5,-228 980.5,-228 980.5,-222 986.5,-216 992.5,-216 992.5,-216 1022.5,-216 1022.5,-216 1028.5,-216 1034.5,-222 1034.5,-228 1034.5,-228 1034.5,-240 1034.5,-240 1034.5,-246 1028.5,-252 1022.5,-252"/>
<text text-anchor="middle" x="1007.5" y="-230.3" font-family="Times,serif" font-size="14.00">Store</text>
</g>
<!-- ast.Tuple object at 0x70309cdbb650&#45;&gt;ast.Store object at 0x7031ebab6a90 -->
<g id="edge10" class="edge">
<title>ast.Tuple object at 0x70309cdbb650&#45;&gt;ast.Store object at 0x7031ebab6a90</title>
<path fill="none" stroke="black" d="M1060.8,-359.67C1058.55,-341.29 1053.61,-311.69 1043.5,-288 1039.42,-278.43 1033.51,-268.78 1027.66,-260.39"/>
<polygon fill="black" stroke="black" points="1030.38,-258.17 1021.66,-252.15 1024.72,-262.29 1030.38,-258.17"/>
</g>
<!-- ast.Name object at 0x70309cdbab50 -->
<g id="node9" class="node">
<title>ast.Name object at 0x70309cdbab50</title>
<path fill="#66cdaa" stroke="black" d="M1132.5,-324C1132.5,-324 1102.5,-324 1102.5,-324 1096.5,-324 1090.5,-318 1090.5,-312 1090.5,-312 1090.5,-300 1090.5,-300 1090.5,-294 1096.5,-288 1102.5,-288 1102.5,-288 1132.5,-288 1132.5,-288 1138.5,-288 1144.5,-294 1144.5,-300 1144.5,-300 1144.5,-312 1144.5,-312 1144.5,-318 1138.5,-324 1132.5,-324"/>
<text text-anchor="middle" x="1117.5" y="-302.3" font-family="Times,serif" font-size="14.00">Name</text>
</g>
<!-- ast.Tuple object at 0x70309cdbb650&#45;&gt;ast.Name object at 0x70309cdbab50 -->
<g id="edge8" class="edge">
<title>ast.Tuple object at 0x70309cdbb650&#45;&gt;ast.Name object at 0x70309cdbab50</title>
<path fill="none" stroke="black" d="M1076.1,-359.7C1082.62,-351.39 1090.57,-341.28 1097.75,-332.14"/>
<polygon fill="black" stroke="black" points="1100.63,-334.13 1104.06,-324.1 1095.13,-329.81 1100.63,-334.13"/>
</g>
<!-- ast.Name object at 0x70309cdbaa90&#45;&gt;ast.Store object at 0x7031ebab6a90 -->
<g id="edge7" class="edge">
<title>ast.Name object at 0x70309cdbaa90&#45;&gt;ast.Store object at 0x7031ebab6a90</title>
<path fill="none" stroke="black" d="M1007.5,-287.7C1007.5,-279.98 1007.5,-270.71 1007.5,-262.11"/>
<polygon fill="black" stroke="black" points="1011,-262.1 1007.5,-252.1 1004,-262.1 1011,-262.1"/>
</g>
<!-- ast.Name object at 0x70309cdbab50&#45;&gt;ast.Store object at 0x7031ebab6a90 -->
<g id="edge9" class="edge">
<title>ast.Name object at 0x70309cdbab50&#45;&gt;ast.Store object at 0x7031ebab6a90</title>
<path fill="none" stroke="black" d="M1090.59,-287.88C1076.34,-278.81 1058.65,-267.55 1043.26,-257.76"/>
<polygon fill="black" stroke="black" points="1044.83,-254.61 1034.51,-252.19 1041.07,-260.51 1044.83,-254.61"/>
</g>
<!-- ast.Subscript object at 0x70309ca60710 -->
<g id="node11" class="node">
<title>ast.Subscript object at 0x70309ca60710</title>
<path fill="#66cdaa" stroke="black" d="M1101.5,-180C1101.5,-180 1057.5,-180 1057.5,-180 1051.5,-180 1045.5,-174 1045.5,-168 1045.5,-168 1045.5,-156 1045.5,-156 1045.5,-150 1051.5,-144 1057.5,-144 1057.5,-144 1101.5,-144 1101.5,-144 1107.5,-144 1113.5,-150 1113.5,-156 1113.5,-156 1113.5,-168 1113.5,-168 1113.5,-174 1107.5,-180 1101.5,-180"/>
<text text-anchor="middle" x="1079.5" y="-158.3" font-family="Times,serif" font-size="14.00">Subscript</text>
</g>
<!-- ast.Tuple object at 0x70309cdbb590&#45;&gt;ast.Subscript object at 0x70309ca60710 -->
<g id="edge12" class="edge">
<title>ast.Tuple object at 0x70309cdbb590&#45;&gt;ast.Subscript object at 0x70309ca60710</title>
<path fill="none" stroke="black" d="M1079.5,-215.7C1079.5,-207.98 1079.5,-198.71 1079.5,-190.11"/>
<polygon fill="black" stroke="black" points="1083,-190.1 1079.5,-180.1 1076,-190.1 1083,-190.1"/>
</g>
<!-- ast.Load object at 0x7031ebab6a10 -->
<g id="node13" class="node">
<title>ast.Load object at 0x7031ebab6a10</title>
<path fill="#66cdaa" stroke="black" d="M910.5,-36C910.5,-36 880.5,-36 880.5,-36 874.5,-36 868.5,-30 868.5,-24 868.5,-24 868.5,-12 868.5,-12 868.5,-6 874.5,0 880.5,0 880.5,0 910.5,0 910.5,0 916.5,0 922.5,-6 922.5,-12 922.5,-12 922.5,-24 922.5,-24 922.5,-30 916.5,-36 910.5,-36"/>
<text text-anchor="middle" x="895.5" y="-14.3" font-family="Times,serif" font-size="14.00">Load</text>
</g>
<!-- ast.Tuple object at 0x70309cdbb590&#45;&gt;ast.Load object at 0x7031ebab6a10 -->
<g id="edge22" class="edge">
<title>ast.Tuple object at 0x70309cdbb590&#45;&gt;ast.Load object at 0x7031ebab6a10</title>
<path fill="none" stroke="black" d="M1052.28,-219.27C1049.35,-218.06 1046.39,-216.94 1043.5,-216 917.44,-175.03 822.26,-227.78 765.5,-108 758.65,-93.54 756.57,-85.28 765.5,-72 786.08,-41.38 827.78,-28.44 858.43,-22.98"/>
<polygon fill="black" stroke="black" points="859.03,-26.43 868.35,-21.4 857.92,-19.51 859.03,-26.43"/>
</g>
<!-- ast.Subscript object at 0x70309cbc81d0 -->
<g id="node15" class="node">
<title>ast.Subscript object at 0x70309cbc81d0</title>
<path fill="#66cdaa" stroke="black" d="M918.5,-180C918.5,-180 874.5,-180 874.5,-180 868.5,-180 862.5,-174 862.5,-168 862.5,-168 862.5,-156 862.5,-156 862.5,-150 868.5,-144 874.5,-144 874.5,-144 918.5,-144 918.5,-144 924.5,-144 930.5,-150 930.5,-156 930.5,-156 930.5,-168 930.5,-168 930.5,-174 924.5,-180 918.5,-180"/>
<text text-anchor="middle" x="896.5" y="-158.3" font-family="Times,serif" font-size="14.00">Subscript</text>
</g>
<!-- ast.Tuple object at 0x70309cdbb590&#45;&gt;ast.Subscript object at 0x70309cbc81d0 -->
<g id="edge17" class="edge">
<title>ast.Tuple object at 0x70309cdbb590&#45;&gt;ast.Subscript object at 0x70309cbc81d0</title>
<path fill="none" stroke="black" d="M1052.5,-219.91C1049.48,-218.55 1046.44,-217.22 1043.5,-216 1009.29,-201.79 969.74,-187.66 940.29,-177.57"/>
<polygon fill="black" stroke="black" points="941.31,-174.22 930.71,-174.3 939.05,-180.84 941.31,-174.22"/>
</g>
<!-- ast.Name object at 0x70309ce4be10 -->
<g id="node12" class="node">
<title>ast.Name object at 0x70309ce4be10</title>
<path fill="#66cdaa" stroke="black" d="M1094.5,-108C1094.5,-108 1064.5,-108 1064.5,-108 1058.5,-108 1052.5,-102 1052.5,-96 1052.5,-96 1052.5,-84 1052.5,-84 1052.5,-78 1058.5,-72 1064.5,-72 1064.5,-72 1094.5,-72 1094.5,-72 1100.5,-72 1106.5,-78 1106.5,-84 1106.5,-84 1106.5,-96 1106.5,-96 1106.5,-102 1100.5,-108 1094.5,-108"/>
<text text-anchor="middle" x="1079.5" y="-86.3" font-family="Times,serif" font-size="14.00">Name</text>
</g>
<!-- ast.Subscript object at 0x70309ca60710&#45;&gt;ast.Name object at 0x70309ce4be10 -->
<g id="edge13" class="edge">
<title>ast.Subscript object at 0x70309ca60710&#45;&gt;ast.Name object at 0x70309ce4be10</title>
<path fill="none" stroke="black" d="M1079.5,-143.7C1079.5,-135.98 1079.5,-126.71 1079.5,-118.11"/>
<polygon fill="black" stroke="black" points="1083,-118.1 1079.5,-108.1 1076,-118.1 1083,-118.1"/>
</g>
<!-- ast.Subscript object at 0x70309ca60710&#45;&gt;ast.Load object at 0x7031ebab6a10 -->
<g id="edge16" class="edge">
<title>ast.Subscript object at 0x70309ca60710&#45;&gt;ast.Load object at 0x7031ebab6a10</title>
<path fill="none" stroke="black" d="M1096.07,-143.79C1112.4,-124.7 1132.62,-93.74 1115.5,-72 1093.13,-43.6 989.22,-28.64 932.57,-22.48"/>
<polygon fill="black" stroke="black" points="932.88,-18.99 922.57,-21.43 932.15,-25.95 932.88,-18.99"/>
</g>
<!-- ast.Constant object at 0x7030cb17a750 -->
<g id="node14" class="node">
<title>ast.Constant object at 0x7030cb17a750</title>
<path fill="#66cdaa" stroke="black" d="M1022,-108C1022,-108 981,-108 981,-108 975,-108 969,-102 969,-96 969,-96 969,-84 969,-84 969,-78 975,-72 981,-72 981,-72 1022,-72 1022,-72 1028,-72 1034,-78 1034,-84 1034,-84 1034,-96 1034,-96 1034,-102 1028,-108 1022,-108"/>
<text text-anchor="middle" x="1001.5" y="-86.3" font-family="Times,serif" font-size="14.00">Constant</text>
</g>
<!-- ast.Subscript object at 0x70309ca60710&#45;&gt;ast.Constant object at 0x7030cb17a750 -->
<g id="edge15" class="edge">
<title>ast.Subscript object at 0x70309ca60710&#45;&gt;ast.Constant object at 0x7030cb17a750</title>
<path fill="none" stroke="black" d="M1060.22,-143.7C1050.58,-135.05 1038.77,-124.45 1028.27,-115.03"/>
<polygon fill="black" stroke="black" points="1030.34,-112.18 1020.56,-108.1 1025.66,-117.39 1030.34,-112.18"/>
</g>
<!-- ast.Name object at 0x70309ce4be10&#45;&gt;ast.Load object at 0x7031ebab6a10 -->
<g id="edge14" class="edge">
<title>ast.Name object at 0x70309ce4be10&#45;&gt;ast.Load object at 0x7031ebab6a10</title>
<path fill="none" stroke="black" d="M1052.5,-75.9C1049.48,-74.54 1046.44,-73.22 1043.5,-72 1006.12,-56.52 962.4,-41.2 932.22,-31.04"/>
<polygon fill="black" stroke="black" points="933.13,-27.65 922.54,-27.8 930.91,-34.29 933.13,-27.65"/>
</g>
<!-- ast.Subscript object at 0x70309cbc81d0&#45;&gt;ast.Load object at 0x7031ebab6a10 -->
<g id="edge21" class="edge">
<title>ast.Subscript object at 0x70309cbc81d0&#45;&gt;ast.Load object at 0x7031ebab6a10</title>
<path fill="none" stroke="black" d="M892.85,-143.91C890.82,-133.57 888.52,-120.09 887.5,-108 886.16,-92.06 886.3,-87.96 887.5,-72 888.14,-63.52 889.34,-54.34 890.62,-46.04"/>
<polygon fill="black" stroke="black" points="894.08,-46.55 892.25,-36.11 887.18,-45.41 894.08,-46.55"/>
</g>
<!-- ast.Name object at 0x70309ec73550 -->
<g id="node16" class="node">
<title>ast.Name object at 0x70309ec73550</title>
<path fill="#66cdaa" stroke="black" d="M938.5,-108C938.5,-108 908.5,-108 908.5,-108 902.5,-108 896.5,-102 896.5,-96 896.5,-96 896.5,-84 896.5,-84 896.5,-78 902.5,-72 908.5,-72 908.5,-72 938.5,-72 938.5,-72 944.5,-72 950.5,-78 950.5,-84 950.5,-84 950.5,-96 950.5,-96 950.5,-102 944.5,-108 938.5,-108"/>
<text text-anchor="middle" x="923.5" y="-86.3" font-family="Times,serif" font-size="14.00">Name</text>
</g>
<!-- ast.Subscript object at 0x70309cbc81d0&#45;&gt;ast.Name object at 0x70309ec73550 -->
<g id="edge18" class="edge">
<title>ast.Subscript object at 0x70309cbc81d0&#45;&gt;ast.Name object at 0x70309ec73550</title>
<path fill="none" stroke="black" d="M903.17,-143.7C906.21,-135.81 909.88,-126.3 913.26,-117.55"/>
<polygon fill="black" stroke="black" points="916.57,-118.69 916.9,-108.1 910.04,-116.17 916.57,-118.69"/>
</g>
<!-- ast.Constant object at 0x70309d22a850 -->
<g id="node17" class="node">
<title>ast.Constant object at 0x70309d22a850</title>
<path fill="#66cdaa" stroke="black" d="M828,-108C828,-108 787,-108 787,-108 781,-108 775,-102 775,-96 775,-96 775,-84 775,-84 775,-78 781,-72 787,-72 787,-72 828,-72 828,-72 834,-72 840,-78 840,-84 840,-84 840,-96 840,-96 840,-102 834,-108 828,-108"/>
<text text-anchor="middle" x="807.5" y="-86.3" font-family="Times,serif" font-size="14.00">Constant</text>
</g>
<!-- ast.Subscript object at 0x70309cbc81d0&#45;&gt;ast.Constant object at 0x70309d22a850 -->
<g id="edge20" class="edge">
<title>ast.Subscript object at 0x70309cbc81d0&#45;&gt;ast.Constant object at 0x70309d22a850</title>
<path fill="none" stroke="black" d="M874.5,-143.7C863.29,-134.88 849.5,-124.03 837.35,-114.47"/>
<polygon fill="black" stroke="black" points="839.27,-111.54 829.25,-108.1 834.94,-117.04 839.27,-111.54"/>
</g>
<!-- ast.Name object at 0x70309ec73550&#45;&gt;ast.Load object at 0x7031ebab6a10 -->
<g id="edge19" class="edge">
<title>ast.Name object at 0x70309ec73550&#45;&gt;ast.Load object at 0x7031ebab6a10</title>
<path fill="none" stroke="black" d="M916.58,-71.7C913.43,-63.81 909.62,-54.3 906.12,-45.55"/>
<polygon fill="black" stroke="black" points="909.31,-44.09 902.34,-36.1 902.81,-46.69 909.31,-44.09"/>
</g>
<!-- ast.Name object at 0x70309d524c10 -->
<g id="node19" class="node">
<title>ast.Name object at 0x70309d524c10</title>
<path fill="#66cdaa" stroke="black" d="M673.5,-396C673.5,-396 643.5,-396 643.5,-396 637.5,-396 631.5,-390 631.5,-384 631.5,-384 631.5,-372 631.5,-372 631.5,-366 637.5,-360 643.5,-360 643.5,-360 673.5,-360 673.5,-360 679.5,-360 685.5,-366 685.5,-372 685.5,-372 685.5,-384 685.5,-384 685.5,-390 679.5,-396 673.5,-396"/>
<text text-anchor="middle" x="658.5" y="-374.3" font-family="Times,serif" font-size="14.00">Name</text>
</g>
<!-- ast.Assign object at 0x70309d525950&#45;&gt;ast.Name object at 0x70309d524c10 -->
<g id="edge24" class="edge">
<title>ast.Assign object at 0x70309d525950&#45;&gt;ast.Name object at 0x70309d524c10</title>
<path fill="none" stroke="black" d="M658.5,-431.7C658.5,-423.98 658.5,-414.71 658.5,-406.11"/>
<polygon fill="black" stroke="black" points="662,-406.1 658.5,-396.1 655,-406.1 662,-406.1"/>
</g>
<!-- ast.BinOp object at 0x70309d5257d0 -->
<g id="node20" class="node">
<title>ast.BinOp object at 0x70309d5257d0</title>
<path fill="#66cdaa" stroke="black" d="M601.5,-396C601.5,-396 571.5,-396 571.5,-396 565.5,-396 559.5,-390 559.5,-384 559.5,-384 559.5,-372 559.5,-372 559.5,-366 565.5,-360 571.5,-360 571.5,-360 601.5,-360 601.5,-360 607.5,-360 613.5,-366 613.5,-372 613.5,-372 613.5,-384 613.5,-384 613.5,-390 607.5,-396 601.5,-396"/>
<text text-anchor="middle" x="586.5" y="-374.3" font-family="Times,serif" font-size="14.00">BinOp</text>
</g>
<!-- ast.Assign object at 0x70309d525950&#45;&gt;ast.BinOp object at 0x70309d5257d0 -->
<g id="edge26" class="edge">
<title>ast.Assign object at 0x70309d525950&#45;&gt;ast.BinOp object at 0x70309d5257d0</title>
<path fill="none" stroke="black" d="M640.7,-431.7C631.9,-423.14 621.12,-412.66 611.5,-403.3"/>
<polygon fill="black" stroke="black" points="613.7,-400.57 604.09,-396.1 608.82,-405.58 613.7,-400.57"/>
</g>
<!-- ast.Name object at 0x70309d524c10&#45;&gt;ast.Store object at 0x7031ebab6a90 -->
<g id="edge25" class="edge">
<title>ast.Name object at 0x70309d524c10&#45;&gt;ast.Store object at 0x7031ebab6a90</title>
<path fill="none" stroke="black" d="M653.06,-359.95C647.91,-340.12 643.26,-307.62 660.5,-288 700.63,-242.32 889.02,-235.65 970.17,-234.93"/>
<polygon fill="black" stroke="black" points="970.45,-238.43 980.42,-234.87 970.4,-231.43 970.45,-238.43"/>
</g>
<!-- ast.BinOp object at 0x70309d526150 -->
<g id="node21" class="node">
<title>ast.BinOp object at 0x70309d526150</title>
<path fill="#66cdaa" stroke="black" d="M489.5,-324C489.5,-324 459.5,-324 459.5,-324 453.5,-324 447.5,-318 447.5,-312 447.5,-312 447.5,-300 447.5,-300 447.5,-294 453.5,-288 459.5,-288 459.5,-288 489.5,-288 489.5,-288 495.5,-288 501.5,-294 501.5,-300 501.5,-300 501.5,-312 501.5,-312 501.5,-318 495.5,-324 489.5,-324"/>
<text text-anchor="middle" x="474.5" y="-302.3" font-family="Times,serif" font-size="14.00">BinOp</text>
</g>
<!-- ast.BinOp object at 0x70309d5257d0&#45;&gt;ast.BinOp object at 0x70309d526150 -->
<g id="edge27" class="edge">
<title>ast.BinOp object at 0x70309d5257d0&#45;&gt;ast.BinOp object at 0x70309d526150</title>
<path fill="none" stroke="black" d="M559.39,-360.05C544.64,-350.84 526.21,-339.32 510.29,-329.37"/>
<polygon fill="black" stroke="black" points="512.09,-326.36 501.75,-324.03 508.38,-332.3 512.09,-326.36"/>
</g>
<!-- ast.Sub object at 0x7031ebab6f90 -->
<g id="node25" class="node">
<title>ast.Sub object at 0x7031ebab6f90</title>
<path fill="#66cdaa" stroke="black" d="M668.5,-108C668.5,-108 638.5,-108 638.5,-108 632.5,-108 626.5,-102 626.5,-96 626.5,-96 626.5,-84 626.5,-84 626.5,-78 632.5,-72 638.5,-72 638.5,-72 668.5,-72 668.5,-72 674.5,-72 680.5,-78 680.5,-84 680.5,-84 680.5,-96 680.5,-96 680.5,-102 674.5,-108 668.5,-108"/>
<text text-anchor="middle" x="653.5" y="-86.3" font-family="Times,serif" font-size="14.00">Sub</text>
</g>
<!-- ast.BinOp object at 0x70309d5257d0&#45;&gt;ast.Sub object at 0x7031ebab6f90 -->
<g id="edge44" class="edge">
<title>ast.BinOp object at 0x70309d5257d0&#45;&gt;ast.Sub object at 0x7031ebab6f90</title>
<path fill="none" stroke="black" d="M590.49,-359.97C601.68,-312.19 633.44,-176.62 647.11,-118.27"/>
<polygon fill="black" stroke="black" points="650.57,-118.84 649.45,-108.31 643.76,-117.24 650.57,-118.84"/>
</g>
<!-- ast.Call object at 0x70309cdc40d0 -->
<g id="node34" class="node">
<title>ast.Call object at 0x70309cdc40d0</title>
<path fill="#66cdaa" stroke="black" d="M253.5,-252C253.5,-252 223.5,-252 223.5,-252 217.5,-252 211.5,-246 211.5,-240 211.5,-240 211.5,-228 211.5,-228 211.5,-222 217.5,-216 223.5,-216 223.5,-216 253.5,-216 253.5,-216 259.5,-216 265.5,-222 265.5,-228 265.5,-228 265.5,-240 265.5,-240 265.5,-246 259.5,-252 253.5,-252"/>
<text text-anchor="middle" x="238.5" y="-230.3" font-family="Times,serif" font-size="14.00">Call</text>
</g>
<!-- ast.BinOp object at 0x70309d5257d0&#45;&gt;ast.Call object at 0x70309cdc40d0 -->
<g id="edge45" class="edge">
<title>ast.BinOp object at 0x70309d5257d0&#45;&gt;ast.Call object at 0x70309cdc40d0</title>
<path fill="none" stroke="black" d="M559.14,-363.63C556.25,-362.35 553.33,-361.12 550.5,-360 501.87,-340.8 487.34,-342.66 438.5,-324 380.28,-301.76 314.59,-271.5 274.88,-252.61"/>
<polygon fill="black" stroke="black" points="276.14,-249.33 265.61,-248.18 273.12,-255.65 276.14,-249.33"/>
</g>
<!-- ast.BinOp object at 0x70309cd18150 -->
<g id="node22" class="node">
<title>ast.BinOp object at 0x70309cd18150</title>
<path fill="#66cdaa" stroke="black" d="M528.5,-252C528.5,-252 498.5,-252 498.5,-252 492.5,-252 486.5,-246 486.5,-240 486.5,-240 486.5,-228 486.5,-228 486.5,-222 492.5,-216 498.5,-216 498.5,-216 528.5,-216 528.5,-216 534.5,-216 540.5,-222 540.5,-228 540.5,-228 540.5,-240 540.5,-240 540.5,-246 534.5,-252 528.5,-252"/>
<text text-anchor="middle" x="513.5" y="-230.3" font-family="Times,serif" font-size="14.00">BinOp</text>
</g>
<!-- ast.BinOp object at 0x70309d526150&#45;&gt;ast.BinOp object at 0x70309cd18150 -->
<g id="edge28" class="edge">
<title>ast.BinOp object at 0x70309d526150&#45;&gt;ast.BinOp object at 0x70309cd18150</title>
<path fill="none" stroke="black" d="M484.14,-287.7C488.63,-279.64 494.06,-269.89 499.02,-260.98"/>
<polygon fill="black" stroke="black" points="502.16,-262.54 503.97,-252.1 496.05,-259.14 502.16,-262.54"/>
</g>
<!-- ast.FloorDiv object at 0x7031ebab7590 -->
<g id="node32" class="node">
<title>ast.FloorDiv object at 0x7031ebab7590</title>
<path fill="#66cdaa" stroke="black" d="M372.5,-252C372.5,-252 330.5,-252 330.5,-252 324.5,-252 318.5,-246 318.5,-240 318.5,-240 318.5,-228 318.5,-228 318.5,-222 324.5,-216 330.5,-216 330.5,-216 372.5,-216 372.5,-216 378.5,-216 384.5,-222 384.5,-228 384.5,-228 384.5,-240 384.5,-240 384.5,-246 378.5,-252 372.5,-252"/>
<text text-anchor="middle" x="351.5" y="-230.3" font-family="Times,serif" font-size="14.00">FloorDiv</text>
</g>
<!-- ast.BinOp object at 0x70309d526150&#45;&gt;ast.FloorDiv object at 0x7031ebab7590 -->
<g id="edge42" class="edge">
<title>ast.BinOp object at 0x70309d526150&#45;&gt;ast.FloorDiv object at 0x7031ebab7590</title>
<path fill="none" stroke="black" d="M447.2,-289.46C430.54,-279.98 408.96,-267.7 390.51,-257.2"/>
<polygon fill="black" stroke="black" points="392.16,-254.12 381.74,-252.21 388.7,-260.2 392.16,-254.12"/>
</g>
<!-- ast.Constant object at 0x70309cdc4950 -->
<g id="node33" class="node">
<title>ast.Constant object at 0x70309cdc4950</title>
<path fill="#66cdaa" stroke="black" d="M456,-252C456,-252 415,-252 415,-252 409,-252 403,-246 403,-240 403,-240 403,-228 403,-228 403,-222 409,-216 415,-216 415,-216 456,-216 456,-216 462,-216 468,-222 468,-228 468,-228 468,-240 468,-240 468,-246 462,-252 456,-252"/>
<text text-anchor="middle" x="435.5" y="-230.3" font-family="Times,serif" font-size="14.00">Constant</text>
</g>
<!-- ast.BinOp object at 0x70309d526150&#45;&gt;ast.Constant object at 0x70309cdc4950 -->
<g id="edge43" class="edge">
<title>ast.BinOp object at 0x70309d526150&#45;&gt;ast.Constant object at 0x70309cdc4950</title>
<path fill="none" stroke="black" d="M464.86,-287.7C460.37,-279.64 454.94,-269.89 449.98,-260.98"/>
<polygon fill="black" stroke="black" points="452.95,-259.14 445.03,-252.1 446.84,-262.54 452.95,-259.14"/>
</g>
<!-- ast.BinOp object at 0x70307a540250 -->
<g id="node23" class="node">
<title>ast.BinOp object at 0x70307a540250</title>
<path fill="#66cdaa" stroke="black" d="M563.5,-180C563.5,-180 533.5,-180 533.5,-180 527.5,-180 521.5,-174 521.5,-168 521.5,-168 521.5,-156 521.5,-156 521.5,-150 527.5,-144 533.5,-144 533.5,-144 563.5,-144 563.5,-144 569.5,-144 575.5,-150 575.5,-156 575.5,-156 575.5,-168 575.5,-168 575.5,-174 569.5,-180 563.5,-180"/>
<text text-anchor="middle" x="548.5" y="-158.3" font-family="Times,serif" font-size="14.00">BinOp</text>
</g>
<!-- ast.BinOp object at 0x70309cd18150&#45;&gt;ast.BinOp object at 0x70307a540250 -->
<g id="edge29" class="edge">
<title>ast.BinOp object at 0x70309cd18150&#45;&gt;ast.BinOp object at 0x70307a540250</title>
<path fill="none" stroke="black" d="M522.15,-215.7C526.14,-207.73 530.95,-198.1 535.37,-189.26"/>
<polygon fill="black" stroke="black" points="538.61,-190.61 539.95,-180.1 532.35,-187.48 538.61,-190.61"/>
</g>
<!-- ast.Mult object at 0x7031ebab7010 -->
<g id="node27" class="node">
<title>ast.Mult object at 0x7031ebab7010</title>
<path fill="#66cdaa" stroke="black" d="M491.5,-180C491.5,-180 461.5,-180 461.5,-180 455.5,-180 449.5,-174 449.5,-168 449.5,-168 449.5,-156 449.5,-156 449.5,-150 455.5,-144 461.5,-144 461.5,-144 491.5,-144 491.5,-144 497.5,-144 503.5,-150 503.5,-156 503.5,-156 503.5,-168 503.5,-168 503.5,-174 497.5,-180 491.5,-180"/>
<text text-anchor="middle" x="476.5" y="-158.3" font-family="Times,serif" font-size="14.00">Mult</text>
</g>
<!-- ast.BinOp object at 0x70309cd18150&#45;&gt;ast.Mult object at 0x7031ebab7010 -->
<g id="edge35" class="edge">
<title>ast.BinOp object at 0x70309cd18150&#45;&gt;ast.Mult object at 0x7031ebab7010</title>
<path fill="none" stroke="black" d="M504.35,-215.7C500.1,-207.64 494.94,-197.89 490.23,-188.98"/>
<polygon fill="black" stroke="black" points="493.31,-187.31 485.54,-180.1 487.12,-190.58 493.31,-187.31"/>
</g>
<!-- ast.BinOp object at 0x70309cdc68d0 -->
<g id="node28" class="node">
<title>ast.BinOp object at 0x70309cdc68d0</title>
<path fill="#66cdaa" stroke="black" d="M400.5,-180C400.5,-180 370.5,-180 370.5,-180 364.5,-180 358.5,-174 358.5,-168 358.5,-168 358.5,-156 358.5,-156 358.5,-150 364.5,-144 370.5,-144 370.5,-144 400.5,-144 400.5,-144 406.5,-144 412.5,-150 412.5,-156 412.5,-156 412.5,-168 412.5,-168 412.5,-174 406.5,-180 400.5,-180"/>
<text text-anchor="middle" x="385.5" y="-158.3" font-family="Times,serif" font-size="14.00">BinOp</text>
</g>
<!-- ast.BinOp object at 0x70309cd18150&#45;&gt;ast.BinOp object at 0x70309cdc68d0 -->
<g id="edge36" class="edge">
<title>ast.BinOp object at 0x70309cd18150&#45;&gt;ast.BinOp object at 0x70309cdc68d0</title>
<path fill="none" stroke="black" d="M486.35,-218.15C467.43,-207.81 441.99,-193.89 421.39,-182.63"/>
<polygon fill="black" stroke="black" points="423.06,-179.55 412.61,-177.82 419.7,-185.69 423.06,-179.55"/>
</g>
<!-- ast.Name object at 0x70309cdc5990 -->
<g id="node24" class="node">
<title>ast.Name object at 0x70309cdc5990</title>
<path fill="#66cdaa" stroke="black" d="M596.5,-108C596.5,-108 566.5,-108 566.5,-108 560.5,-108 554.5,-102 554.5,-96 554.5,-96 554.5,-84 554.5,-84 554.5,-78 560.5,-72 566.5,-72 566.5,-72 596.5,-72 596.5,-72 602.5,-72 608.5,-78 608.5,-84 608.5,-84 608.5,-96 608.5,-96 608.5,-102 602.5,-108 596.5,-108"/>
<text text-anchor="middle" x="581.5" y="-86.3" font-family="Times,serif" font-size="14.00">Name</text>
</g>
<!-- ast.BinOp object at 0x70307a540250&#45;&gt;ast.Name object at 0x70309cdc5990 -->
<g id="edge30" class="edge">
<title>ast.BinOp object at 0x70307a540250&#45;&gt;ast.Name object at 0x70309cdc5990</title>
<path fill="none" stroke="black" d="M556.66,-143.7C560.41,-135.73 564.95,-126.1 569.12,-117.26"/>
<polygon fill="black" stroke="black" points="572.34,-118.64 573.44,-108.1 566.01,-115.66 572.34,-118.64"/>
</g>
<!-- ast.BinOp object at 0x70307a540250&#45;&gt;ast.Sub object at 0x7031ebab6f90 -->
<g id="edge32" class="edge">
<title>ast.BinOp object at 0x70307a540250&#45;&gt;ast.Sub object at 0x7031ebab6f90</title>
<path fill="none" stroke="black" d="M574.19,-143.88C587.79,-134.81 604.67,-123.55 619.36,-113.76"/>
<polygon fill="black" stroke="black" points="621.34,-116.65 627.72,-108.19 617.45,-110.82 621.34,-116.65"/>
</g>
<!-- ast.Name object at 0x70309cdc4ed0 -->
<g id="node26" class="node">
<title>ast.Name object at 0x70309cdc4ed0</title>
<path fill="#66cdaa" stroke="black" d="M524.5,-108C524.5,-108 494.5,-108 494.5,-108 488.5,-108 482.5,-102 482.5,-96 482.5,-96 482.5,-84 482.5,-84 482.5,-78 488.5,-72 494.5,-72 494.5,-72 524.5,-72 524.5,-72 530.5,-72 536.5,-78 536.5,-84 536.5,-84 536.5,-96 536.5,-96 536.5,-102 530.5,-108 524.5,-108"/>
<text text-anchor="middle" x="509.5" y="-86.3" font-family="Times,serif" font-size="14.00">Name</text>
</g>
<!-- ast.BinOp object at 0x70307a540250&#45;&gt;ast.Name object at 0x70309cdc4ed0 -->
<g id="edge33" class="edge">
<title>ast.BinOp object at 0x70307a540250&#45;&gt;ast.Name object at 0x70309cdc4ed0</title>
<path fill="none" stroke="black" d="M538.86,-143.7C534.37,-135.64 528.94,-125.89 523.98,-116.98"/>
<polygon fill="black" stroke="black" points="526.95,-115.14 519.03,-108.1 520.84,-118.54 526.95,-115.14"/>
</g>
<!-- ast.Name object at 0x70309cdc5990&#45;&gt;ast.Load object at 0x7031ebab6a10 -->
<g id="edge31" class="edge">
<title>ast.Name object at 0x70309cdc5990&#45;&gt;ast.Load object at 0x7031ebab6a10</title>
<path fill="none" stroke="black" d="M608.73,-75.27C611.65,-74.06 614.61,-72.94 617.5,-72 701.38,-44.69 804.33,-29.62 858.36,-23.05"/>
<polygon fill="black" stroke="black" points="858.97,-26.5 868.49,-21.85 858.15,-19.55 858.97,-26.5"/>
</g>
<!-- ast.Name object at 0x70309cdc4ed0&#45;&gt;ast.Load object at 0x7031ebab6a10 -->
<g id="edge34" class="edge">
<title>ast.Name object at 0x70309cdc4ed0&#45;&gt;ast.Load object at 0x7031ebab6a10</title>
<path fill="none" stroke="black" d="M536.69,-75.16C539.62,-73.97 542.59,-72.89 545.5,-72 656.04,-38.32 793.02,-25.52 857.96,-21.1"/>
<polygon fill="black" stroke="black" points="858.37,-24.58 868.12,-20.44 857.92,-17.6 858.37,-24.58"/>
</g>
<!-- ast.Name object at 0x70309cdc70d0 -->
<g id="node29" class="node">
<title>ast.Name object at 0x70309cdc70d0</title>
<path fill="#66cdaa" stroke="black" d="M380.5,-108C380.5,-108 350.5,-108 350.5,-108 344.5,-108 338.5,-102 338.5,-96 338.5,-96 338.5,-84 338.5,-84 338.5,-78 344.5,-72 350.5,-72 350.5,-72 380.5,-72 380.5,-72 386.5,-72 392.5,-78 392.5,-84 392.5,-84 392.5,-96 392.5,-96 392.5,-102 386.5,-108 380.5,-108"/>
<text text-anchor="middle" x="365.5" y="-86.3" font-family="Times,serif" font-size="14.00">Name</text>
</g>
<!-- ast.BinOp object at 0x70309cdc68d0&#45;&gt;ast.Name object at 0x70309cdc70d0 -->
<g id="edge37" class="edge">
<title>ast.BinOp object at 0x70309cdc68d0&#45;&gt;ast.Name object at 0x70309cdc70d0</title>
<path fill="none" stroke="black" d="M380.56,-143.7C378.33,-135.9 375.65,-126.51 373.17,-117.83"/>
<polygon fill="black" stroke="black" points="376.5,-116.76 370.39,-108.1 369.77,-118.68 376.5,-116.76"/>
</g>
<!-- ast.Add object at 0x7031ebab6f10 -->
<g id="node30" class="node">
<title>ast.Add object at 0x7031ebab6f10</title>
<path fill="#66cdaa" stroke="black" d="M452.5,-108C452.5,-108 422.5,-108 422.5,-108 416.5,-108 410.5,-102 410.5,-96 410.5,-96 410.5,-84 410.5,-84 410.5,-78 416.5,-72 422.5,-72 422.5,-72 452.5,-72 452.5,-72 458.5,-72 464.5,-78 464.5,-84 464.5,-84 464.5,-96 464.5,-96 464.5,-102 458.5,-108 452.5,-108"/>
<text text-anchor="middle" x="437.5" y="-86.3" font-family="Times,serif" font-size="14.00">Add</text>
</g>
<!-- ast.BinOp object at 0x70309cdc68d0&#45;&gt;ast.Add object at 0x7031ebab6f10 -->
<g id="edge39" class="edge">
<title>ast.BinOp object at 0x70309cdc68d0&#45;&gt;ast.Add object at 0x7031ebab6f10</title>
<path fill="none" stroke="black" d="M398.35,-143.7C404.53,-135.39 412.04,-125.28 418.82,-116.14"/>
<polygon fill="black" stroke="black" points="421.64,-118.22 424.79,-108.1 416.02,-114.04 421.64,-118.22"/>
</g>
<!-- ast.Name object at 0x70309cdc60d0 -->
<g id="node31" class="node">
<title>ast.Name object at 0x70309cdc60d0</title>
<path fill="#66cdaa" stroke="black" d="M308.5,-108C308.5,-108 278.5,-108 278.5,-108 272.5,-108 266.5,-102 266.5,-96 266.5,-96 266.5,-84 266.5,-84 266.5,-78 272.5,-72 278.5,-72 278.5,-72 308.5,-72 308.5,-72 314.5,-72 320.5,-78 320.5,-84 320.5,-84 320.5,-96 320.5,-96 320.5,-102 314.5,-108 308.5,-108"/>
<text text-anchor="middle" x="293.5" y="-86.3" font-family="Times,serif" font-size="14.00">Name</text>
</g>
<!-- ast.BinOp object at 0x70309cdc68d0&#45;&gt;ast.Name object at 0x70309cdc60d0 -->
<g id="edge40" class="edge">
<title>ast.BinOp object at 0x70309cdc68d0&#45;&gt;ast.Name object at 0x70309cdc60d0</title>
<path fill="none" stroke="black" d="M362.76,-143.7C351.06,-134.8 336.64,-123.82 323.99,-114.2"/>
<polygon fill="black" stroke="black" points="326.06,-111.37 315.98,-108.1 321.82,-116.94 326.06,-111.37"/>
</g>
<!-- ast.Name object at 0x70309cdc70d0&#45;&gt;ast.Load object at 0x7031ebab6a10 -->
<g id="edge38" class="edge">
<title>ast.Name object at 0x70309cdc70d0&#45;&gt;ast.Load object at 0x7031ebab6a10</title>
<path fill="none" stroke="black" d="M392.65,-75.03C395.59,-73.87 398.57,-72.82 401.5,-72 567.16,-25.43 774.64,-19.26 858.15,-18.8"/>
<polygon fill="black" stroke="black" points="858.41,-22.3 868.4,-18.77 858.39,-15.3 858.41,-22.3"/>
</g>
<!-- ast.Name object at 0x70309cdc60d0&#45;&gt;ast.Load object at 0x7031ebab6a10 -->
<g id="edge41" class="edge">
<title>ast.Name object at 0x70309cdc60d0&#45;&gt;ast.Load object at 0x7031ebab6a10</title>
<path fill="none" stroke="black" d="M320.64,-74.99C323.58,-73.83 326.57,-72.8 329.5,-72 429.8,-44.54 748.5,-26.37 858.07,-20.81"/>
<polygon fill="black" stroke="black" points="858.5,-24.29 868.31,-20.3 858.15,-17.3 858.5,-24.29"/>
</g>
<!-- ast.Name object at 0x70309cc38590 -->
<g id="node35" class="node">
<title>ast.Name object at 0x70309cc38590</title>
<path fill="#66cdaa" stroke="black" d="M253.5,-180C253.5,-180 223.5,-180 223.5,-180 217.5,-180 211.5,-174 211.5,-168 211.5,-168 211.5,-156 211.5,-156 211.5,-150 217.5,-144 223.5,-144 223.5,-144 253.5,-144 253.5,-144 259.5,-144 265.5,-150 265.5,-156 265.5,-156 265.5,-168 265.5,-168 265.5,-174 259.5,-180 253.5,-180"/>
<text text-anchor="middle" x="238.5" y="-158.3" font-family="Times,serif" font-size="14.00">Name</text>
</g>
<!-- ast.Call object at 0x70309cdc40d0&#45;&gt;ast.Name object at 0x70309cc38590 -->
<g id="edge46" class="edge">
<title>ast.Call object at 0x70309cdc40d0&#45;&gt;ast.Name object at 0x70309cc38590</title>
<path fill="none" stroke="black" d="M238.5,-215.7C238.5,-207.98 238.5,-198.71 238.5,-190.11"/>
<polygon fill="black" stroke="black" points="242,-190.1 238.5,-180.1 235,-190.1 242,-190.1"/>
</g>
<!-- ast.Subscript object at 0x70309da7ca50 -->
<g id="node36" class="node">
<title>ast.Subscript object at 0x70309da7ca50</title>
<path fill="#66cdaa" stroke="black" d="M174.5,-180C174.5,-180 130.5,-180 130.5,-180 124.5,-180 118.5,-174 118.5,-168 118.5,-168 118.5,-156 118.5,-156 118.5,-150 124.5,-144 130.5,-144 130.5,-144 174.5,-144 174.5,-144 180.5,-144 186.5,-150 186.5,-156 186.5,-156 186.5,-168 186.5,-168 186.5,-174 180.5,-180 174.5,-180"/>
<text text-anchor="middle" x="152.5" y="-158.3" font-family="Times,serif" font-size="14.00">Subscript</text>
</g>
<!-- ast.Call object at 0x70309cdc40d0&#45;&gt;ast.Subscript object at 0x70309da7ca50 -->
<g id="edge48" class="edge">
<title>ast.Call object at 0x70309cdc40d0&#45;&gt;ast.Subscript object at 0x70309da7ca50</title>
<path fill="none" stroke="black" d="M217.24,-215.7C206.41,-206.88 193.08,-196.03 181.34,-186.47"/>
<polygon fill="black" stroke="black" points="183.48,-183.7 173.51,-180.1 179.06,-189.13 183.48,-183.7"/>
</g>
<!-- ast.Name object at 0x70309cc38590&#45;&gt;ast.Load object at 0x7031ebab6a10 -->
<g id="edge47" class="edge">
<title>ast.Name object at 0x70309cc38590&#45;&gt;ast.Load object at 0x7031ebab6a10</title>
<path fill="none" stroke="black" d="M236.69,-143.98C235.55,-123.56 237.22,-89.85 257.5,-72 302.69,-32.23 728.37,-21.81 858.13,-19.55"/>
<polygon fill="black" stroke="black" points="858.42,-23.05 868.36,-19.38 858.3,-16.05 858.42,-23.05"/>
</g>
<!-- ast.Subscript object at 0x70309da7ca50&#45;&gt;ast.Load object at 0x7031ebab6a10 -->
<g id="edge54" class="edge">
<title>ast.Subscript object at 0x70309da7ca50&#45;&gt;ast.Load object at 0x7031ebab6a10</title>
<path fill="none" stroke="black" d="M162.88,-143.65C176.56,-122.55 202.78,-87.81 235.5,-72 346.63,-18.29 735.72,-17.4 858.26,-18.5"/>
<polygon fill="black" stroke="black" points="858.24,-22 868.28,-18.6 858.31,-15 858.24,-22"/>
</g>
<!-- ast.Name object at 0x70309cf8acd0 -->
<g id="node37" class="node">
<title>ast.Name object at 0x70309cf8acd0</title>
<path fill="#66cdaa" stroke="black" d="M160.5,-108C160.5,-108 130.5,-108 130.5,-108 124.5,-108 118.5,-102 118.5,-96 118.5,-96 118.5,-84 118.5,-84 118.5,-78 124.5,-72 130.5,-72 130.5,-72 160.5,-72 160.5,-72 166.5,-72 172.5,-78 172.5,-84 172.5,-84 172.5,-96 172.5,-96 172.5,-102 166.5,-108 160.5,-108"/>
<text text-anchor="middle" x="145.5" y="-86.3" font-family="Times,serif" font-size="14.00">Name</text>
</g>
<!-- ast.Subscript object at 0x70309da7ca50&#45;&gt;ast.Name object at 0x70309cf8acd0 -->
<g id="edge49" class="edge">
<title>ast.Subscript object at 0x70309da7ca50&#45;&gt;ast.Name object at 0x70309cf8acd0</title>
<path fill="none" stroke="black" d="M150.77,-143.7C150,-135.98 149.07,-126.71 148.21,-118.11"/>
<polygon fill="black" stroke="black" points="151.69,-117.71 147.21,-108.1 144.72,-118.4 151.69,-117.71"/>
</g>
<!-- ast.Slice object at 0x70309c716090 -->
<g id="node38" class="node">
<title>ast.Slice object at 0x70309c716090</title>
<path fill="#66cdaa" stroke="black" d="M88.5,-108C88.5,-108 58.5,-108 58.5,-108 52.5,-108 46.5,-102 46.5,-96 46.5,-96 46.5,-84 46.5,-84 46.5,-78 52.5,-72 58.5,-72 58.5,-72 88.5,-72 88.5,-72 94.5,-72 100.5,-78 100.5,-84 100.5,-84 100.5,-96 100.5,-96 100.5,-102 94.5,-108 88.5,-108"/>
<text text-anchor="middle" x="73.5" y="-86.3" font-family="Times,serif" font-size="14.00">Slice</text>
</g>
<!-- ast.Subscript object at 0x70309da7ca50&#45;&gt;ast.Slice object at 0x70309c716090 -->
<g id="edge51" class="edge">
<title>ast.Subscript object at 0x70309da7ca50&#45;&gt;ast.Slice object at 0x70309c716090</title>
<path fill="none" stroke="black" d="M132.97,-143.7C123.12,-134.97 111.01,-124.24 100.3,-114.75"/>
<polygon fill="black" stroke="black" points="102.61,-112.12 92.8,-108.1 97.97,-117.36 102.61,-112.12"/>
</g>
<!-- ast.Name object at 0x70309cf8acd0&#45;&gt;ast.Load object at 0x7031ebab6a10 -->
<g id="edge50" class="edge">
<title>ast.Name object at 0x70309cf8acd0&#45;&gt;ast.Load object at 0x7031ebab6a10</title>
<path fill="none" stroke="black" d="M172.89,-76.25C177.36,-74.57 182,-73.07 186.5,-72 316.14,-41.12 731.5,-24.63 858.35,-20.22"/>
<polygon fill="black" stroke="black" points="858.48,-23.72 868.36,-19.88 858.24,-16.72 858.48,-23.72"/>
</g>
<!-- ast.Constant object at 0x70309c715d10 -->
<g id="node39" class="node">
<title>ast.Constant object at 0x70309c715d10</title>
<path fill="#66cdaa" stroke="black" d="M136,-36C136,-36 95,-36 95,-36 89,-36 83,-30 83,-24 83,-24 83,-12 83,-12 83,-6 89,0 95,0 95,0 136,0 136,0 142,0 148,-6 148,-12 148,-12 148,-24 148,-24 148,-30 142,-36 136,-36"/>
<text text-anchor="middle" x="115.5" y="-14.3" font-family="Times,serif" font-size="14.00">Constant</text>
</g>
<!-- ast.Slice object at 0x70309c716090&#45;&gt;ast.Constant object at 0x70309c715d10 -->
<g id="edge52" class="edge">
<title>ast.Slice object at 0x70309c716090&#45;&gt;ast.Constant object at 0x70309c715d10</title>
<path fill="none" stroke="black" d="M83.88,-71.7C88.76,-63.56 94.69,-53.69 100.08,-44.7"/>
<polygon fill="black" stroke="black" points="103.09,-46.48 105.24,-36.1 97.09,-42.88 103.09,-46.48"/>
</g>
<!-- ast.Constant object at 0x70309c717490 -->
<g id="node40" class="node">
<title>ast.Constant object at 0x70309c717490</title>
<path fill="#66cdaa" stroke="black" d="M53,-36C53,-36 12,-36 12,-36 6,-36 0,-30 0,-24 0,-24 0,-12 0,-12 0,-6 6,0 12,0 12,0 53,0 53,0 59,0 65,-6 65,-12 65,-12 65,-24 65,-24 65,-30 59,-36 53,-36"/>
<text text-anchor="middle" x="32.5" y="-14.3" font-family="Times,serif" font-size="14.00">Constant</text>
</g>
<!-- ast.Slice object at 0x70309c716090&#45;&gt;ast.Constant object at 0x70309c717490 -->
<g id="edge53" class="edge">
<title>ast.Slice object at 0x70309c716090&#45;&gt;ast.Constant object at 0x70309c717490</title>
<path fill="none" stroke="black" d="M63.37,-71.7C58.65,-63.64 52.94,-53.89 47.72,-44.98"/>
<polygon fill="black" stroke="black" points="50.59,-42.96 42.52,-36.1 44.55,-46.5 50.59,-42.96"/>
</g>
<!-- ast.Compare object at 0x70309c715b50 -->
<g id="node42" class="node">
<title>ast.Compare object at 0x70309c715b50</title>
<path fill="#66cdaa" stroke="black" d="M810,-396C810,-396 767,-396 767,-396 761,-396 755,-390 755,-384 755,-384 755,-372 755,-372 755,-366 761,-360 767,-360 767,-360 810,-360 810,-360 816,-360 822,-366 822,-372 822,-372 822,-384 822,-384 822,-390 816,-396 810,-396"/>
<text text-anchor="middle" x="788.5" y="-374.3" font-family="Times,serif" font-size="14.00">Compare</text>
</g>
<!-- ast.If object at 0x70309c716f90&#45;&gt;ast.Compare object at 0x70309c715b50 -->
<g id="edge56" class="edge">
<title>ast.If object at 0x70309c716f90&#45;&gt;ast.Compare object at 0x70309c715b50</title>
<path fill="none" stroke="black" d="M818.61,-431.7C814.01,-423.64 808.44,-413.89 803.35,-404.98"/>
<polygon fill="black" stroke="black" points="806.27,-403.05 798.27,-396.1 800.2,-406.52 806.27,-403.05"/>
</g>
<!-- ast.Return object at 0x70309c7154d0 -->
<g id="node46" class="node">
<title>ast.Return object at 0x70309c7154d0</title>
<path fill="#66cdaa" stroke="black" d="M903.5,-396C903.5,-396 873.5,-396 873.5,-396 867.5,-396 861.5,-390 861.5,-384 861.5,-384 861.5,-372 861.5,-372 861.5,-366 867.5,-360 873.5,-360 873.5,-360 903.5,-360 903.5,-360 909.5,-360 915.5,-366 915.5,-372 915.5,-372 915.5,-384 915.5,-384 915.5,-390 909.5,-396 903.5,-396"/>
<text text-anchor="middle" x="888.5" y="-374.3" font-family="Times,serif" font-size="14.00">Return</text>
</g>
<!-- ast.If object at 0x70309c716f90&#45;&gt;ast.Return object at 0x70309c7154d0 -->
<g id="edge61" class="edge">
<title>ast.If object at 0x70309c716f90&#45;&gt;ast.Return object at 0x70309c7154d0</title>
<path fill="none" stroke="black" d="M843.33,-431.7C850.52,-423.3 859.3,-413.07 867.19,-403.86"/>
<polygon fill="black" stroke="black" points="869.99,-405.97 873.84,-396.1 864.67,-401.42 869.99,-405.97"/>
</g>
<!-- ast.Name object at 0x70309c716fd0 -->
<g id="node43" class="node">
<title>ast.Name object at 0x70309c716fd0</title>
<path fill="#66cdaa" stroke="black" d="M711.5,-324C711.5,-324 681.5,-324 681.5,-324 675.5,-324 669.5,-318 669.5,-312 669.5,-312 669.5,-300 669.5,-300 669.5,-294 675.5,-288 681.5,-288 681.5,-288 711.5,-288 711.5,-288 717.5,-288 723.5,-294 723.5,-300 723.5,-300 723.5,-312 723.5,-312 723.5,-318 717.5,-324 711.5,-324"/>
<text text-anchor="middle" x="696.5" y="-302.3" font-family="Times,serif" font-size="14.00">Name</text>
</g>
<!-- ast.Compare object at 0x70309c715b50&#45;&gt;ast.Name object at 0x70309c716fd0 -->
<g id="edge57" class="edge">
<title>ast.Compare object at 0x70309c715b50&#45;&gt;ast.Name object at 0x70309c716fd0</title>
<path fill="none" stroke="black" d="M765.76,-359.7C754.06,-350.8 739.64,-339.82 726.99,-330.2"/>
<polygon fill="black" stroke="black" points="729.06,-327.37 718.98,-324.1 724.82,-332.94 729.06,-327.37"/>
</g>
<!-- ast.Eq object at 0x7031ebab7a10 -->
<g id="node44" class="node">
<title>ast.Eq object at 0x7031ebab7a10</title>
<path fill="#66cdaa" stroke="black" d="M783.5,-324C783.5,-324 753.5,-324 753.5,-324 747.5,-324 741.5,-318 741.5,-312 741.5,-312 741.5,-300 741.5,-300 741.5,-294 747.5,-288 753.5,-288 753.5,-288 783.5,-288 783.5,-288 789.5,-288 795.5,-294 795.5,-300 795.5,-300 795.5,-312 795.5,-312 795.5,-318 789.5,-324 783.5,-324"/>
<text text-anchor="middle" x="768.5" y="-302.3" font-family="Times,serif" font-size="14.00">Eq</text>
</g>
<!-- ast.Compare object at 0x70309c715b50&#45;&gt;ast.Eq object at 0x7031ebab7a10 -->
<g id="edge59" class="edge">
<title>ast.Compare object at 0x70309c715b50&#45;&gt;ast.Eq object at 0x7031ebab7a10</title>
<path fill="none" stroke="black" d="M783.56,-359.7C781.33,-351.9 778.65,-342.51 776.17,-333.83"/>
<polygon fill="black" stroke="black" points="779.5,-332.76 773.39,-324.1 772.77,-334.68 779.5,-332.76"/>
</g>
<!-- ast.Constant object at 0x70309c715ad0 -->
<g id="node45" class="node">
<title>ast.Constant object at 0x70309c715ad0</title>
<path fill="#66cdaa" stroke="black" d="M867,-324C867,-324 826,-324 826,-324 820,-324 814,-318 814,-312 814,-312 814,-300 814,-300 814,-294 820,-288 826,-288 826,-288 867,-288 867,-288 873,-288 879,-294 879,-300 879,-300 879,-312 879,-312 879,-318 873,-324 867,-324"/>
<text text-anchor="middle" x="846.5" y="-302.3" font-family="Times,serif" font-size="14.00">Constant</text>
</g>
<!-- ast.Compare object at 0x70309c715b50&#45;&gt;ast.Constant object at 0x70309c715ad0 -->
<g id="edge60" class="edge">
<title>ast.Compare object at 0x70309c715b50&#45;&gt;ast.Constant object at 0x70309c715ad0</title>
<path fill="none" stroke="black" d="M802.84,-359.7C809.79,-351.3 818.27,-341.07 825.9,-331.86"/>
<polygon fill="black" stroke="black" points="828.64,-334.04 832.33,-324.1 823.25,-329.57 828.64,-334.04"/>
</g>
<!-- ast.Name object at 0x70309c716fd0&#45;&gt;ast.Load object at 0x7031ebab6a10 -->
<g id="edge58" class="edge">
<title>ast.Name object at 0x70309c716fd0&#45;&gt;ast.Load object at 0x7031ebab6a10</title>
<path fill="none" stroke="black" d="M695.89,-287.93C695.33,-245.77 699.72,-135.54 756.5,-72 782.63,-42.76 826.66,-29.56 858.17,-23.66"/>
<polygon fill="black" stroke="black" points="859.06,-27.06 868.33,-21.93 857.88,-20.16 859.06,-27.06"/>
</g>
<!-- ast.Constant object at 0x70309c716190 -->
<g id="node47" class="node">
<title>ast.Constant object at 0x70309c716190</title>
<path fill="#66cdaa" stroke="black" d="M950,-324C950,-324 909,-324 909,-324 903,-324 897,-318 897,-312 897,-312 897,-300 897,-300 897,-294 903,-288 909,-288 909,-288 950,-288 950,-288 956,-288 962,-294 962,-300 962,-300 962,-312 962,-312 962,-318 956,-324 950,-324"/>
<text text-anchor="middle" x="929.5" y="-302.3" font-family="Times,serif" font-size="14.00">Constant</text>
</g>
<!-- ast.Return object at 0x70309c7154d0&#45;&gt;ast.Constant object at 0x70309c716190 -->
<g id="edge62" class="edge">
<title>ast.Return object at 0x70309c7154d0&#45;&gt;ast.Constant object at 0x70309c716190</title>
<path fill="none" stroke="black" d="M898.63,-359.7C903.35,-351.64 909.06,-341.89 914.28,-332.98"/>
<polygon fill="black" stroke="black" points="917.45,-334.5 919.48,-324.1 911.41,-330.96 917.45,-334.5"/>
</g>
<!-- ast.Compare object at 0x70309c7166d0 -->
<g id="node49" class="node">
<title>ast.Compare object at 0x70309c7166d0</title>
<path fill="#66cdaa" stroke="black" d="M1455,-324C1455,-324 1412,-324 1412,-324 1406,-324 1400,-318 1400,-312 1400,-312 1400,-300 1400,-300 1400,-294 1406,-288 1412,-288 1412,-288 1455,-288 1455,-288 1461,-288 1467,-294 1467,-300 1467,-300 1467,-312 1467,-312 1467,-318 1461,-324 1455,-324"/>
<text text-anchor="middle" x="1433.5" y="-302.3" font-family="Times,serif" font-size="14.00">Compare</text>
</g>
<!-- ast.If object at 0x70309c715850&#45;&gt;ast.Compare object at 0x70309c7166d0 -->
<g id="edge64" class="edge">
<title>ast.If object at 0x70309c715850&#45;&gt;ast.Compare object at 0x70309c7166d0</title>
<path fill="none" stroke="black" d="M1374.03,-359.7C1383.88,-350.97 1395.99,-340.24 1406.7,-330.75"/>
<polygon fill="black" stroke="black" points="1409.03,-333.36 1414.2,-324.1 1404.39,-328.12 1409.03,-333.36"/>
</g>
<!-- ast.Return object at 0x70309cd7bb10 -->
<g id="node56" class="node">
<title>ast.Return object at 0x70309cd7bb10</title>
<path fill="#66cdaa" stroke="black" d="M1330.5,-324C1330.5,-324 1300.5,-324 1300.5,-324 1294.5,-324 1288.5,-318 1288.5,-312 1288.5,-312 1288.5,-300 1288.5,-300 1288.5,-294 1294.5,-288 1300.5,-288 1300.5,-288 1330.5,-288 1330.5,-288 1336.5,-288 1342.5,-294 1342.5,-300 1342.5,-300 1342.5,-312 1342.5,-312 1342.5,-318 1336.5,-324 1330.5,-324"/>
<text text-anchor="middle" x="1315.5" y="-302.3" font-family="Times,serif" font-size="14.00">Return</text>
</g>
<!-- ast.If object at 0x70309c715850&#45;&gt;ast.Return object at 0x70309cd7bb10 -->
<g id="edge72" class="edge">
<title>ast.If object at 0x70309c715850&#45;&gt;ast.Return object at 0x70309cd7bb10</title>
<path fill="none" stroke="black" d="M1344.86,-359.7C1340.37,-351.64 1334.94,-341.89 1329.98,-332.98"/>
<polygon fill="black" stroke="black" points="1332.95,-331.14 1325.03,-324.1 1326.84,-334.54 1332.95,-331.14"/>
</g>
<!-- ast.Return object at 0x7030a0f7a810 -->
<g id="node63" class="node">
<title>ast.Return object at 0x7030a0f7a810</title>
<path fill="#66cdaa" stroke="black" d="M1624.5,-324C1624.5,-324 1594.5,-324 1594.5,-324 1588.5,-324 1582.5,-318 1582.5,-312 1582.5,-312 1582.5,-300 1582.5,-300 1582.5,-294 1588.5,-288 1594.5,-288 1594.5,-288 1624.5,-288 1624.5,-288 1630.5,-288 1636.5,-294 1636.5,-300 1636.5,-300 1636.5,-312 1636.5,-312 1636.5,-318 1630.5,-324 1624.5,-324"/>
<text text-anchor="middle" x="1609.5" y="-302.3" font-family="Times,serif" font-size="14.00">Return</text>
</g>
<!-- ast.If object at 0x70309c715850&#45;&gt;ast.Return object at 0x7030a0f7a810 -->
<g id="edge82" class="edge">
<title>ast.If object at 0x70309c715850&#45;&gt;ast.Return object at 0x7030a0f7a810</title>
<path fill="none" stroke="black" d="M1381.79,-369.51C1427.8,-356.88 1520.85,-331.33 1572.63,-317.12"/>
<polygon fill="black" stroke="black" points="1573.69,-320.46 1582.41,-314.44 1571.84,-313.71 1573.69,-320.46"/>
</g>
<!-- ast.BinOp object at 0x70309c715c50 -->
<g id="node50" class="node">
<title>ast.BinOp object at 0x70309c715c50</title>
<path fill="#66cdaa" stroke="black" d="M1546.5,-252C1546.5,-252 1516.5,-252 1516.5,-252 1510.5,-252 1504.5,-246 1504.5,-240 1504.5,-240 1504.5,-228 1504.5,-228 1504.5,-222 1510.5,-216 1516.5,-216 1516.5,-216 1546.5,-216 1546.5,-216 1552.5,-216 1558.5,-222 1558.5,-228 1558.5,-228 1558.5,-240 1558.5,-240 1558.5,-246 1552.5,-252 1546.5,-252"/>
<text text-anchor="middle" x="1531.5" y="-230.3" font-family="Times,serif" font-size="14.00">BinOp</text>
</g>
<!-- ast.Compare object at 0x70309c7166d0&#45;&gt;ast.BinOp object at 0x70309c715c50 -->
<g id="edge65" class="edge">
<title>ast.Compare object at 0x70309c7166d0&#45;&gt;ast.BinOp object at 0x70309c715c50</title>
<path fill="none" stroke="black" d="M1457.47,-287.88C1470.05,-278.89 1485.63,-267.76 1499.25,-258.03"/>
<polygon fill="black" stroke="black" points="1501.33,-260.85 1507.43,-252.19 1497.26,-255.15 1501.33,-260.85"/>
</g>
<!-- ast.NotEq object at 0x7031ebab7a90 -->
<g id="node54" class="node">
<title>ast.NotEq object at 0x7031ebab7a90</title>
<path fill="#66cdaa" stroke="black" d="M1390.5,-252C1390.5,-252 1360.5,-252 1360.5,-252 1354.5,-252 1348.5,-246 1348.5,-240 1348.5,-240 1348.5,-228 1348.5,-228 1348.5,-222 1354.5,-216 1360.5,-216 1360.5,-216 1390.5,-216 1390.5,-216 1396.5,-216 1402.5,-222 1402.5,-228 1402.5,-228 1402.5,-240 1402.5,-240 1402.5,-246 1396.5,-252 1390.5,-252"/>
<text text-anchor="middle" x="1375.5" y="-230.3" font-family="Times,serif" font-size="14.00">NotEq</text>
</g>
<!-- ast.Compare object at 0x70309c7166d0&#45;&gt;ast.NotEq object at 0x7031ebab7a90 -->
<g id="edge70" class="edge">
<title>ast.Compare object at 0x70309c7166d0&#45;&gt;ast.NotEq object at 0x7031ebab7a90</title>
<path fill="none" stroke="black" d="M1419.16,-287.7C1412.21,-279.3 1403.73,-269.07 1396.1,-259.86"/>
<polygon fill="black" stroke="black" points="1398.75,-257.57 1389.67,-252.1 1393.36,-262.04 1398.75,-257.57"/>
</g>
<!-- ast.Constant object at 0x70309de65050 -->
<g id="node55" class="node">
<title>ast.Constant object at 0x70309de65050</title>
<path fill="#66cdaa" stroke="black" d="M1474,-252C1474,-252 1433,-252 1433,-252 1427,-252 1421,-246 1421,-240 1421,-240 1421,-228 1421,-228 1421,-222 1427,-216 1433,-216 1433,-216 1474,-216 1474,-216 1480,-216 1486,-222 1486,-228 1486,-228 1486,-240 1486,-240 1486,-246 1480,-252 1474,-252"/>
<text text-anchor="middle" x="1453.5" y="-230.3" font-family="Times,serif" font-size="14.00">Constant</text>
</g>
<!-- ast.Compare object at 0x70309c7166d0&#45;&gt;ast.Constant object at 0x70309de65050 -->
<g id="edge71" class="edge">
<title>ast.Compare object at 0x70309c7166d0&#45;&gt;ast.Constant object at 0x70309de65050</title>
<path fill="none" stroke="black" d="M1438.44,-287.7C1440.67,-279.9 1443.35,-270.51 1445.83,-261.83"/>
<polygon fill="black" stroke="black" points="1449.23,-262.68 1448.61,-252.1 1442.5,-260.76 1449.23,-262.68"/>
</g>
<!-- ast.Name object at 0x70309c715a10 -->
<g id="node51" class="node">
<title>ast.Name object at 0x70309c715a10</title>
<path fill="#66cdaa" stroke="black" d="M1456.5,-180C1456.5,-180 1426.5,-180 1426.5,-180 1420.5,-180 1414.5,-174 1414.5,-168 1414.5,-168 1414.5,-156 1414.5,-156 1414.5,-150 1420.5,-144 1426.5,-144 1426.5,-144 1456.5,-144 1456.5,-144 1462.5,-144 1468.5,-150 1468.5,-156 1468.5,-156 1468.5,-168 1468.5,-168 1468.5,-174 1462.5,-180 1456.5,-180"/>
<text text-anchor="middle" x="1441.5" y="-158.3" font-family="Times,serif" font-size="14.00">Name</text>
</g>
<!-- ast.BinOp object at 0x70309c715c50&#45;&gt;ast.Name object at 0x70309c715a10 -->
<g id="edge66" class="edge">
<title>ast.BinOp object at 0x70309c715c50&#45;&gt;ast.Name object at 0x70309c715a10</title>
<path fill="none" stroke="black" d="M1509.25,-215.7C1497.92,-206.88 1483.97,-196.03 1471.68,-186.47"/>
<polygon fill="black" stroke="black" points="1473.53,-183.48 1463.49,-180.1 1469.24,-189.01 1473.53,-183.48"/>
</g>
<!-- ast.Mod object at 0x7031ebab7190 -->
<g id="node52" class="node">
<title>ast.Mod object at 0x7031ebab7190</title>
<path fill="#66cdaa" stroke="black" d="M1528.5,-180C1528.5,-180 1498.5,-180 1498.5,-180 1492.5,-180 1486.5,-174 1486.5,-168 1486.5,-168 1486.5,-156 1486.5,-156 1486.5,-150 1492.5,-144 1498.5,-144 1498.5,-144 1528.5,-144 1528.5,-144 1534.5,-144 1540.5,-150 1540.5,-156 1540.5,-156 1540.5,-168 1540.5,-168 1540.5,-174 1534.5,-180 1528.5,-180"/>
<text text-anchor="middle" x="1513.5" y="-158.3" font-family="Times,serif" font-size="14.00">Mod</text>
</g>
<!-- ast.BinOp object at 0x70309c715c50&#45;&gt;ast.Mod object at 0x7031ebab7190 -->
<g id="edge68" class="edge">
<title>ast.BinOp object at 0x70309c715c50&#45;&gt;ast.Mod object at 0x7031ebab7190</title>
<path fill="none" stroke="black" d="M1527.05,-215.7C1525.05,-207.9 1522.63,-198.51 1520.4,-189.83"/>
<polygon fill="black" stroke="black" points="1523.78,-188.92 1517.9,-180.1 1517,-190.66 1523.78,-188.92"/>
</g>
<!-- ast.Constant object at 0x70309c715490 -->
<g id="node53" class="node">
<title>ast.Constant object at 0x70309c715490</title>
<path fill="#66cdaa" stroke="black" d="M1612,-180C1612,-180 1571,-180 1571,-180 1565,-180 1559,-174 1559,-168 1559,-168 1559,-156 1559,-156 1559,-150 1565,-144 1571,-144 1571,-144 1612,-144 1612,-144 1618,-144 1624,-150 1624,-156 1624,-156 1624,-168 1624,-168 1624,-174 1618,-180 1612,-180"/>
<text text-anchor="middle" x="1591.5" y="-158.3" font-family="Times,serif" font-size="14.00">Constant</text>
</g>
<!-- ast.BinOp object at 0x70309c715c50&#45;&gt;ast.Constant object at 0x70309c715490 -->
<g id="edge69" class="edge">
<title>ast.BinOp object at 0x70309c715c50&#45;&gt;ast.Constant object at 0x70309c715490</title>
<path fill="none" stroke="black" d="M1546.33,-215.7C1553.52,-207.3 1562.3,-197.07 1570.19,-187.86"/>
<polygon fill="black" stroke="black" points="1572.99,-189.97 1576.84,-180.1 1567.67,-185.42 1572.99,-189.97"/>
</g>
<!-- ast.Name object at 0x70309c715a10&#45;&gt;ast.Load object at 0x7031ebab6a10 -->
<g id="edge67" class="edge">
<title>ast.Name object at 0x70309c715a10&#45;&gt;ast.Load object at 0x7031ebab6a10</title>
<path fill="none" stroke="black" d="M1442.63,-143.98C1442.97,-123.55 1440.06,-89.84 1419.5,-72 1382.87,-40.22 1047.07,-24.71 933.12,-20.33"/>
<polygon fill="black" stroke="black" points="932.93,-16.82 922.8,-19.95 932.67,-23.82 932.93,-16.82"/>
</g>
<!-- ast.Subscript object at 0x70309cd78350 -->
<g id="node57" class="node">
<title>ast.Subscript object at 0x70309cd78350</title>
<path fill="#66cdaa" stroke="black" d="M1318.5,-252C1318.5,-252 1274.5,-252 1274.5,-252 1268.5,-252 1262.5,-246 1262.5,-240 1262.5,-240 1262.5,-228 1262.5,-228 1262.5,-222 1268.5,-216 1274.5,-216 1274.5,-216 1318.5,-216 1318.5,-216 1324.5,-216 1330.5,-222 1330.5,-228 1330.5,-228 1330.5,-240 1330.5,-240 1330.5,-246 1324.5,-252 1318.5,-252"/>
<text text-anchor="middle" x="1296.5" y="-230.3" font-family="Times,serif" font-size="14.00">Subscript</text>
</g>
<!-- ast.Return object at 0x70309cd7bb10&#45;&gt;ast.Subscript object at 0x70309cd78350 -->
<g id="edge73" class="edge">
<title>ast.Return object at 0x70309cd7bb10&#45;&gt;ast.Subscript object at 0x70309cd78350</title>
<path fill="none" stroke="black" d="M1310.8,-287.7C1308.69,-279.9 1306.14,-270.51 1303.78,-261.83"/>
<polygon fill="black" stroke="black" points="1307.14,-260.84 1301.14,-252.1 1300.38,-262.67 1307.14,-260.84"/>
</g>
<!-- ast.Subscript object at 0x70309cd78350&#45;&gt;ast.Load object at 0x7031ebab6a10 -->
<g id="edge81" class="edge">
<title>ast.Subscript object at 0x70309cd78350&#45;&gt;ast.Load object at 0x7031ebab6a10</title>
<path fill="none" stroke="black" d="M1303.11,-215.92C1314.44,-183.47 1333.07,-112.56 1297.5,-72 1273.6,-44.74 1027.8,-27.03 932.74,-21.15"/>
<polygon fill="black" stroke="black" points="932.9,-17.66 922.71,-20.54 932.48,-24.64 932.9,-17.66"/>
</g>
<!-- ast.Call object at 0x70309cd78190 -->
<g id="node58" class="node">
<title>ast.Call object at 0x70309cd78190</title>
<path fill="#66cdaa" stroke="black" d="M1274.5,-180C1274.5,-180 1244.5,-180 1244.5,-180 1238.5,-180 1232.5,-174 1232.5,-168 1232.5,-168 1232.5,-156 1232.5,-156 1232.5,-150 1238.5,-144 1244.5,-144 1244.5,-144 1274.5,-144 1274.5,-144 1280.5,-144 1286.5,-150 1286.5,-156 1286.5,-156 1286.5,-168 1286.5,-168 1286.5,-174 1280.5,-180 1274.5,-180"/>
<text text-anchor="middle" x="1259.5" y="-158.3" font-family="Times,serif" font-size="14.00">Call</text>
</g>
<!-- ast.Subscript object at 0x70309cd78350&#45;&gt;ast.Call object at 0x70309cd78190 -->
<g id="edge74" class="edge">
<title>ast.Subscript object at 0x70309cd78350&#45;&gt;ast.Call object at 0x70309cd78190</title>
<path fill="none" stroke="black" d="M1287.35,-215.7C1283.1,-207.64 1277.94,-197.89 1273.23,-188.98"/>
<polygon fill="black" stroke="black" points="1276.31,-187.31 1268.54,-180.1 1270.12,-190.58 1276.31,-187.31"/>
</g>
<!-- ast.Slice object at 0x70309cd79d50 -->
<g id="node61" class="node">
<title>ast.Slice object at 0x70309cd79d50</title>
<path fill="#66cdaa" stroke="black" d="M1384.5,-180C1384.5,-180 1354.5,-180 1354.5,-180 1348.5,-180 1342.5,-174 1342.5,-168 1342.5,-168 1342.5,-156 1342.5,-156 1342.5,-150 1348.5,-144 1354.5,-144 1354.5,-144 1384.5,-144 1384.5,-144 1390.5,-144 1396.5,-150 1396.5,-156 1396.5,-156 1396.5,-168 1396.5,-168 1396.5,-174 1390.5,-180 1384.5,-180"/>
<text text-anchor="middle" x="1369.5" y="-158.3" font-family="Times,serif" font-size="14.00">Slice</text>
</g>
<!-- ast.Subscript object at 0x70309cd78350&#45;&gt;ast.Slice object at 0x70309cd79d50 -->
<g id="edge79" class="edge">
<title>ast.Subscript object at 0x70309cd78350&#45;&gt;ast.Slice object at 0x70309cd79d50</title>
<path fill="none" stroke="black" d="M1314.54,-215.7C1323.56,-207.05 1334.62,-196.45 1344.44,-187.03"/>
<polygon fill="black" stroke="black" points="1346.87,-189.55 1351.66,-180.1 1342.02,-184.5 1346.87,-189.55"/>
</g>
<!-- ast.Name object at 0x70309cd7a810 -->
<g id="node59" class="node">
<title>ast.Name object at 0x70309cd7a810</title>
<path fill="#66cdaa" stroke="black" d="M1204.5,-108C1204.5,-108 1174.5,-108 1174.5,-108 1168.5,-108 1162.5,-102 1162.5,-96 1162.5,-96 1162.5,-84 1162.5,-84 1162.5,-78 1168.5,-72 1174.5,-72 1174.5,-72 1204.5,-72 1204.5,-72 1210.5,-72 1216.5,-78 1216.5,-84 1216.5,-84 1216.5,-96 1216.5,-96 1216.5,-102 1210.5,-108 1204.5,-108"/>
<text text-anchor="middle" x="1189.5" y="-86.3" font-family="Times,serif" font-size="14.00">Name</text>
</g>
<!-- ast.Call object at 0x70309cd78190&#45;&gt;ast.Name object at 0x70309cd7a810 -->
<g id="edge75" class="edge">
<title>ast.Call object at 0x70309cd78190&#45;&gt;ast.Name object at 0x70309cd7a810</title>
<path fill="none" stroke="black" d="M1242.2,-143.7C1233.64,-135.14 1223.16,-124.66 1213.8,-115.3"/>
<polygon fill="black" stroke="black" points="1216.15,-112.7 1206.6,-108.1 1211.2,-117.65 1216.15,-112.7"/>
</g>
<!-- ast.Name object at 0x70309cd7ae50 -->
<g id="node60" class="node">
<title>ast.Name object at 0x70309cd7ae50</title>
<path fill="#66cdaa" stroke="black" d="M1276.5,-108C1276.5,-108 1246.5,-108 1246.5,-108 1240.5,-108 1234.5,-102 1234.5,-96 1234.5,-96 1234.5,-84 1234.5,-84 1234.5,-78 1240.5,-72 1246.5,-72 1246.5,-72 1276.5,-72 1276.5,-72 1282.5,-72 1288.5,-78 1288.5,-84 1288.5,-84 1288.5,-96 1288.5,-96 1288.5,-102 1282.5,-108 1276.5,-108"/>
<text text-anchor="middle" x="1261.5" y="-86.3" font-family="Times,serif" font-size="14.00">Name</text>
</g>
<!-- ast.Call object at 0x70309cd78190&#45;&gt;ast.Name object at 0x70309cd7ae50 -->
<g id="edge77" class="edge">
<title>ast.Call object at 0x70309cd78190&#45;&gt;ast.Name object at 0x70309cd7ae50</title>
<path fill="none" stroke="black" d="M1259.99,-143.7C1260.21,-135.98 1260.48,-126.71 1260.73,-118.11"/>
<polygon fill="black" stroke="black" points="1264.22,-118.2 1261.01,-108.1 1257.23,-118 1264.22,-118.2"/>
</g>
<!-- ast.Name object at 0x70309cd7a810&#45;&gt;ast.Load object at 0x7031ebab6a10 -->
<g id="edge76" class="edge">
<title>ast.Name object at 0x70309cd7a810&#45;&gt;ast.Load object at 0x7031ebab6a10</title>
<path fill="none" stroke="black" d="M1162.41,-76.94C1157.82,-75.14 1153.06,-73.41 1148.5,-72 1073.25,-48.74 982.26,-32.46 932.48,-24.52"/>
<polygon fill="black" stroke="black" points="932.93,-21.05 922.51,-22.96 931.84,-27.97 932.93,-21.05"/>
</g>
<!-- ast.Name object at 0x70309cd7ae50&#45;&gt;ast.Load object at 0x7031ebab6a10 -->
<g id="edge78" class="edge">
<title>ast.Name object at 0x70309cd7ae50&#45;&gt;ast.Load object at 0x7031ebab6a10</title>
<path fill="none" stroke="black" d="M1234.3,-75.18C1231.38,-73.99 1228.41,-72.9 1225.5,-72 1122.27,-40.04 994.6,-26.53 932.67,-21.54"/>
<polygon fill="black" stroke="black" points="932.85,-18.05 922.6,-20.76 932.3,-25.03 932.85,-18.05"/>
</g>
<!-- ast.Constant object at 0x70309c65eb10 -->
<g id="node62" class="node">
<title>ast.Constant object at 0x70309c65eb10</title>
<path fill="#66cdaa" stroke="black" d="M1398,-108C1398,-108 1357,-108 1357,-108 1351,-108 1345,-102 1345,-96 1345,-96 1345,-84 1345,-84 1345,-78 1351,-72 1357,-72 1357,-72 1398,-72 1398,-72 1404,-72 1410,-78 1410,-84 1410,-84 1410,-96 1410,-96 1410,-102 1404,-108 1398,-108"/>
<text text-anchor="middle" x="1377.5" y="-86.3" font-family="Times,serif" font-size="14.00">Constant</text>
</g>
<!-- ast.Slice object at 0x70309cd79d50&#45;&gt;ast.Constant object at 0x70309c65eb10 -->
<g id="edge80" class="edge">
<title>ast.Slice object at 0x70309cd79d50&#45;&gt;ast.Constant object at 0x70309c65eb10</title>
<path fill="none" stroke="black" d="M1371.48,-143.7C1372.36,-135.98 1373.42,-126.71 1374.4,-118.11"/>
<polygon fill="black" stroke="black" points="1377.89,-118.44 1375.55,-108.1 1370.93,-117.64 1377.89,-118.44"/>
</g>
<!-- ast.Subscript object at 0x70309c7fe990 -->
<g id="node64" class="node">
<title>ast.Subscript object at 0x70309c7fe990</title>
<path fill="#66cdaa" stroke="black" d="M1718.5,-252C1718.5,-252 1674.5,-252 1674.5,-252 1668.5,-252 1662.5,-246 1662.5,-240 1662.5,-240 1662.5,-228 1662.5,-228 1662.5,-222 1668.5,-216 1674.5,-216 1674.5,-216 1718.5,-216 1718.5,-216 1724.5,-216 1730.5,-222 1730.5,-228 1730.5,-228 1730.5,-240 1730.5,-240 1730.5,-246 1724.5,-252 1718.5,-252"/>
<text text-anchor="middle" x="1696.5" y="-230.3" font-family="Times,serif" font-size="14.00">Subscript</text>
</g>
<!-- ast.Return object at 0x7030a0f7a810&#45;&gt;ast.Subscript object at 0x70309c7fe990 -->
<g id="edge83" class="edge">
<title>ast.Return object at 0x7030a0f7a810&#45;&gt;ast.Subscript object at 0x70309c7fe990</title>
<path fill="none" stroke="black" d="M1631.01,-287.7C1641.96,-278.88 1655.45,-268.03 1667.32,-258.47"/>
<polygon fill="black" stroke="black" points="1669.64,-261.1 1675.24,-252.1 1665.26,-255.65 1669.64,-261.1"/>
</g>
<!-- ast.Subscript object at 0x70309c7fe990&#45;&gt;ast.Load object at 0x7031ebab6a10 -->
<g id="edge91" class="edge">
<title>ast.Subscript object at 0x70309c7fe990&#45;&gt;ast.Load object at 0x7031ebab6a10</title>
<path fill="none" stroke="black" d="M1701.56,-215.86C1710.46,-181.64 1724.15,-105.32 1680.5,-72 1620.65,-26.31 1081.61,-20.01 933.18,-19.14"/>
<polygon fill="black" stroke="black" points="932.81,-15.64 922.79,-19.08 932.77,-22.64 932.81,-15.64"/>
</g>
<!-- ast.Call object at 0x70309c7fe090 -->
<g id="node65" class="node">
<title>ast.Call object at 0x70309c7fe090</title>
<path fill="#66cdaa" stroke="black" d="M1684.5,-180C1684.5,-180 1654.5,-180 1654.5,-180 1648.5,-180 1642.5,-174 1642.5,-168 1642.5,-168 1642.5,-156 1642.5,-156 1642.5,-150 1648.5,-144 1654.5,-144 1654.5,-144 1684.5,-144 1684.5,-144 1690.5,-144 1696.5,-150 1696.5,-156 1696.5,-156 1696.5,-168 1696.5,-168 1696.5,-174 1690.5,-180 1684.5,-180"/>
<text text-anchor="middle" x="1669.5" y="-158.3" font-family="Times,serif" font-size="14.00">Call</text>
</g>
<!-- ast.Subscript object at 0x70309c7fe990&#45;&gt;ast.Call object at 0x70309c7fe090 -->
<g id="edge84" class="edge">
<title>ast.Subscript object at 0x70309c7fe990&#45;&gt;ast.Call object at 0x70309c7fe090</title>
<path fill="none" stroke="black" d="M1689.83,-215.7C1686.79,-207.81 1683.12,-198.3 1679.74,-189.55"/>
<polygon fill="black" stroke="black" points="1682.96,-188.17 1676.1,-180.1 1676.43,-190.69 1682.96,-188.17"/>
</g>
<!-- ast.Slice object at 0x70309c7fe750 -->
<g id="node68" class="node">
<title>ast.Slice object at 0x70309c7fe750</title>
<path fill="#66cdaa" stroke="black" d="M1797.5,-180C1797.5,-180 1767.5,-180 1767.5,-180 1761.5,-180 1755.5,-174 1755.5,-168 1755.5,-168 1755.5,-156 1755.5,-156 1755.5,-150 1761.5,-144 1767.5,-144 1767.5,-144 1797.5,-144 1797.5,-144 1803.5,-144 1809.5,-150 1809.5,-156 1809.5,-156 1809.5,-168 1809.5,-168 1809.5,-174 1803.5,-180 1797.5,-180"/>
<text text-anchor="middle" x="1782.5" y="-158.3" font-family="Times,serif" font-size="14.00">Slice</text>
</g>
<!-- ast.Subscript object at 0x70309c7fe990&#45;&gt;ast.Slice object at 0x70309c7fe750 -->
<g id="edge89" class="edge">
<title>ast.Subscript object at 0x70309c7fe990&#45;&gt;ast.Slice object at 0x70309c7fe750</title>
<path fill="none" stroke="black" d="M1717.76,-215.7C1728.59,-206.88 1741.92,-196.03 1753.66,-186.47"/>
<polygon fill="black" stroke="black" points="1755.94,-189.13 1761.49,-180.1 1751.52,-183.7 1755.94,-189.13"/>
</g>
<!-- ast.Name object at 0x70309c7fd050 -->
<g id="node66" class="node">
<title>ast.Name object at 0x70309c7fd050</title>
<path fill="#66cdaa" stroke="black" d="M1537.5,-108C1537.5,-108 1507.5,-108 1507.5,-108 1501.5,-108 1495.5,-102 1495.5,-96 1495.5,-96 1495.5,-84 1495.5,-84 1495.5,-78 1501.5,-72 1507.5,-72 1507.5,-72 1537.5,-72 1537.5,-72 1543.5,-72 1549.5,-78 1549.5,-84 1549.5,-84 1549.5,-96 1549.5,-96 1549.5,-102 1543.5,-108 1537.5,-108"/>
<text text-anchor="middle" x="1522.5" y="-86.3" font-family="Times,serif" font-size="14.00">Name</text>
</g>
<!-- ast.Call object at 0x70309c7fe090&#45;&gt;ast.Name object at 0x70309c7fd050 -->
<g id="edge85" class="edge">
<title>ast.Call object at 0x70309c7fe090&#45;&gt;ast.Name object at 0x70309c7fd050</title>
<path fill="none" stroke="black" d="M1642.19,-148C1618.68,-136.8 1584.55,-120.55 1558.75,-108.26"/>
<polygon fill="black" stroke="black" points="1560.19,-105.07 1549.66,-103.93 1557.18,-111.39 1560.19,-105.07"/>
</g>
<!-- ast.Name object at 0x70309c7feed0 -->
<g id="node67" class="node">
<title>ast.Name object at 0x70309c7feed0</title>
<path fill="#66cdaa" stroke="black" d="M1659.5,-108C1659.5,-108 1629.5,-108 1629.5,-108 1623.5,-108 1617.5,-102 1617.5,-96 1617.5,-96 1617.5,-84 1617.5,-84 1617.5,-78 1623.5,-72 1629.5,-72 1629.5,-72 1659.5,-72 1659.5,-72 1665.5,-72 1671.5,-78 1671.5,-84 1671.5,-84 1671.5,-96 1671.5,-96 1671.5,-102 1665.5,-108 1659.5,-108"/>
<text text-anchor="middle" x="1644.5" y="-86.3" font-family="Times,serif" font-size="14.00">Name</text>
</g>
<!-- ast.Call object at 0x70309c7fe090&#45;&gt;ast.Name object at 0x70309c7feed0 -->
<g id="edge87" class="edge">
<title>ast.Call object at 0x70309c7fe090&#45;&gt;ast.Name object at 0x70309c7feed0</title>
<path fill="none" stroke="black" d="M1663.32,-143.7C1660.5,-135.81 1657.11,-126.3 1653.98,-117.55"/>
<polygon fill="black" stroke="black" points="1657.27,-116.34 1650.61,-108.1 1650.68,-118.7 1657.27,-116.34"/>
</g>
<!-- ast.Name object at 0x70309c7fd050&#45;&gt;ast.Load object at 0x7031ebab6a10 -->
<g id="edge86" class="edge">
<title>ast.Name object at 0x70309c7fd050&#45;&gt;ast.Load object at 0x7031ebab6a10</title>
<path fill="none" stroke="black" d="M1495.24,-81.19C1482.89,-77.91 1468.05,-74.32 1454.5,-72 1259.72,-38.61 1022.89,-24.87 932.75,-20.59"/>
<polygon fill="black" stroke="black" points="932.89,-17.1 922.74,-20.13 932.57,-24.09 932.89,-17.1"/>
</g>
<!-- ast.Name object at 0x70309c7feed0&#45;&gt;ast.Load object at 0x7031ebab6a10 -->
<g id="edge88" class="edge">
<title>ast.Name object at 0x70309c7feed0&#45;&gt;ast.Load object at 0x7031ebab6a10</title>
<path fill="none" stroke="black" d="M1617.14,-82.75C1600.31,-79.12 1578.25,-74.73 1558.5,-72 1321.54,-39.22 1033.91,-24.79 932.8,-20.47"/>
<polygon fill="black" stroke="black" points="932.92,-16.97 922.78,-20.05 932.62,-23.97 932.92,-16.97"/>
</g>
<!-- ast.Constant object at 0x70309c7fdfd0 -->
<g id="node69" class="node">
<title>ast.Constant object at 0x70309c7fdfd0</title>
<path fill="#66cdaa" stroke="black" d="M1806,-108C1806,-108 1765,-108 1765,-108 1759,-108 1753,-102 1753,-96 1753,-96 1753,-84 1753,-84 1753,-78 1759,-72 1765,-72 1765,-72 1806,-72 1806,-72 1812,-72 1818,-78 1818,-84 1818,-84 1818,-96 1818,-96 1818,-102 1812,-108 1806,-108"/>
<text text-anchor="middle" x="1785.5" y="-86.3" font-family="Times,serif" font-size="14.00">Constant</text>
</g>
<!-- ast.Slice object at 0x70309c7fe750&#45;&gt;ast.Constant object at 0x70309c7fdfd0 -->
<g id="edge90" class="edge">
<title>ast.Slice object at 0x70309c7fe750&#45;&gt;ast.Constant object at 0x70309c7fdfd0</title>
<path fill="none" stroke="black" d="M1783.24,-143.7C1783.57,-135.98 1783.97,-126.71 1784.34,-118.11"/>
<polygon fill="black" stroke="black" points="1787.84,-118.25 1784.77,-108.1 1780.84,-117.95 1787.84,-118.25"/>
</g>
</g>
</svg>
