<?xml version="1.0" encoding="UTF-8" standalone="no"?>
<!DOCTYPE svg PUBLIC "-//W3C//DTD SVG 1.1//EN"
 "http://www.w3.org/Graphics/SVG/1.1/DTD/svg11.dtd">
<!-- Generated by graphviz version 2.50.0 (0)
 -->
<!-- Pages: 1 -->
<svg width="2282pt" height="764pt"
 viewBox="0.00 0.00 2281.71 764.00" xmlns="http://www.w3.org/2000/svg" xmlns:xlink="http://www.w3.org/1999/xlink">
<g id="graph0" class="graph" transform="scale(1 1) rotate(0) translate(4 760)">
<polygon fill="white" stroke="transparent" points="-4,4 -4,-760 2277.71,-760 2277.71,4 -4,4"/>
<!-- ast.Module object at 0x781224c6add0 -->
<g id="node1" class="node">
<title>ast.Module object at 0x781224c6add0</title>
<path fill="#66cdaa" stroke="black" d="M376,-756C376,-756 341,-756 341,-756 335,-756 329,-750 329,-744 329,-744 329,-732 329,-732 329,-726 335,-720 341,-720 341,-720 376,-720 376,-720 382,-720 388,-726 388,-732 388,-732 388,-744 388,-744 388,-750 382,-756 376,-756"/>
<text text-anchor="middle" x="358.5" y="-734.3" font-family="Times,serif" font-size="14.00">Module</text>
</g>
<!-- ast.FunctionDef object at 0x781224c6ae10 -->
<g id="node2" class="node">
<title>ast.FunctionDef object at 0x781224c6ae10</title>
<path fill="#66cdaa" stroke="black" d="M389,-684C389,-684 328,-684 328,-684 322,-684 316,-678 316,-672 316,-672 316,-660 316,-660 316,-654 322,-648 328,-648 328,-648 389,-648 389,-648 395,-648 401,-654 401,-660 401,-660 401,-672 401,-672 401,-678 395,-684 389,-684"/>
<text text-anchor="middle" x="358.5" y="-662.3" font-family="Times,serif" font-size="14.00">FunctionDef</text>
</g>
<!-- ast.Module object at 0x781224c6add0&#45;&gt;ast.FunctionDef object at 0x781224c6ae10 -->
<g id="edge1" class="edge">
<title>ast.Module object at 0x781224c6add0&#45;&gt;ast.FunctionDef object at 0x781224c6ae10</title>
<path fill="none" stroke="black" d="M358.5,-719.7C358.5,-711.98 358.5,-702.71 358.5,-694.11"/>
<polygon fill="black" stroke="black" points="362,-694.1 358.5,-684.1 355,-694.1 362,-694.1"/>
</g>
<!-- ast.arguments object at 0x781224c69d10 -->
<g id="node3" class="node">
<title>ast.arguments object at 0x781224c69d10</title>
<path fill="#66cdaa" stroke="black" d="M299.5,-612C299.5,-612 249.5,-612 249.5,-612 243.5,-612 237.5,-606 237.5,-600 237.5,-600 237.5,-588 237.5,-588 237.5,-582 243.5,-576 249.5,-576 249.5,-576 299.5,-576 299.5,-576 305.5,-576 311.5,-582 311.5,-588 311.5,-588 311.5,-600 311.5,-600 311.5,-606 305.5,-612 299.5,-612"/>
<text text-anchor="middle" x="274.5" y="-590.3" font-family="Times,serif" font-size="14.00">arguments</text>
</g>
<!-- ast.FunctionDef object at 0x781224c6ae10&#45;&gt;ast.arguments object at 0x781224c69d10 -->
<g id="edge2" class="edge">
<title>ast.FunctionDef object at 0x781224c6ae10&#45;&gt;ast.arguments object at 0x781224c69d10</title>
<path fill="none" stroke="black" d="M337.74,-647.7C327.26,-638.97 314.39,-628.24 303,-618.75"/>
<polygon fill="black" stroke="black" points="304.95,-615.82 295.03,-612.1 300.47,-621.19 304.95,-615.82"/>
</g>
<!-- ast.Assign object at 0x781224c6a810 -->
<g id="node5" class="node">
<title>ast.Assign object at 0x781224c6a810</title>
<path fill="#66cdaa" stroke="black" d="M392.5,-252C392.5,-252 362.5,-252 362.5,-252 356.5,-252 350.5,-246 350.5,-240 350.5,-240 350.5,-228 350.5,-228 350.5,-222 356.5,-216 362.5,-216 362.5,-216 392.5,-216 392.5,-216 398.5,-216 404.5,-222 404.5,-228 404.5,-228 404.5,-240 404.5,-240 404.5,-246 398.5,-252 392.5,-252"/>
<text text-anchor="middle" x="377.5" y="-230.3" font-family="Times,serif" font-size="14.00">Assign</text>
</g>
<!-- ast.FunctionDef object at 0x781224c6ae10&#45;&gt;ast.Assign object at 0x781224c6a810 -->
<g id="edge4" class="edge">
<title>ast.FunctionDef object at 0x781224c6ae10&#45;&gt;ast.Assign object at 0x781224c6a810</title>
<path fill="none" stroke="black" d="M362.34,-647.61C367.9,-620.94 377.5,-568.27 377.5,-523 377.5,-523 377.5,-523 377.5,-377 377.5,-337 377.5,-290.65 377.5,-262.08"/>
<polygon fill="black" stroke="black" points="381,-262.05 377.5,-252.05 374,-262.05 381,-262.05"/>
</g>
<!-- ast.Assign object at 0x781224c69e50 -->
<g id="node12" class="node">
<title>ast.Assign object at 0x781224c69e50</title>
<path fill="#66cdaa" stroke="black" d="M320.5,-252C320.5,-252 290.5,-252 290.5,-252 284.5,-252 278.5,-246 278.5,-240 278.5,-240 278.5,-228 278.5,-228 278.5,-222 284.5,-216 290.5,-216 290.5,-216 320.5,-216 320.5,-216 326.5,-216 332.5,-222 332.5,-228 332.5,-228 332.5,-240 332.5,-240 332.5,-246 326.5,-252 320.5,-252"/>
<text text-anchor="middle" x="305.5" y="-230.3" font-family="Times,serif" font-size="14.00">Assign</text>
</g>
<!-- ast.FunctionDef object at 0x781224c6ae10&#45;&gt;ast.Assign object at 0x781224c69e50 -->
<g id="edge12" class="edge">
<title>ast.FunctionDef object at 0x781224c6ae10&#45;&gt;ast.Assign object at 0x781224c69e50</title>
<path fill="none" stroke="black" d="M354.66,-647.61C349.1,-620.94 339.5,-568.27 339.5,-523 339.5,-523 339.5,-523 339.5,-377 339.5,-335.91 325.87,-289.92 315.87,-261.72"/>
<polygon fill="black" stroke="black" points="319.1,-260.36 312.38,-252.17 312.53,-262.76 319.1,-260.36"/>
</g>
<!-- ast.If object at 0x781224c6a0d0 -->
<g id="node17" class="node">
<title>ast.If object at 0x781224c6a0d0</title>
<path fill="#66cdaa" stroke="black" d="M683.5,-612C683.5,-612 653.5,-612 653.5,-612 647.5,-612 641.5,-606 641.5,-600 641.5,-600 641.5,-588 641.5,-588 641.5,-582 647.5,-576 653.5,-576 653.5,-576 683.5,-576 683.5,-576 689.5,-576 695.5,-582 695.5,-588 695.5,-588 695.5,-600 695.5,-600 695.5,-606 689.5,-612 683.5,-612"/>
<text text-anchor="middle" x="668.5" y="-590.3" font-family="Times,serif" font-size="14.00">If</text>
</g>
<!-- ast.FunctionDef object at 0x781224c6ae10&#45;&gt;ast.If object at 0x781224c6a0d0 -->
<g id="edge20" class="edge">
<title>ast.FunctionDef object at 0x781224c6ae10&#45;&gt;ast.If object at 0x781224c6a0d0</title>
<path fill="none" stroke="black" d="M401.28,-655.34C462.39,-641.54 573.65,-616.42 631.44,-603.37"/>
<polygon fill="black" stroke="black" points="632.26,-606.77 641.25,-601.15 630.72,-599.94 632.26,-606.77"/>
</g>
<!-- ast.arg object at 0x781224c6a250 -->
<g id="node4" class="node">
<title>ast.arg object at 0x781224c6a250</title>
<path fill="#66cdaa" stroke="black" d="M289.5,-540C289.5,-540 259.5,-540 259.5,-540 253.5,-540 247.5,-534 247.5,-528 247.5,-528 247.5,-516 247.5,-516 247.5,-510 253.5,-504 259.5,-504 259.5,-504 289.5,-504 289.5,-504 295.5,-504 301.5,-510 301.5,-516 301.5,-516 301.5,-528 301.5,-528 301.5,-534 295.5,-540 289.5,-540"/>
<text text-anchor="middle" x="274.5" y="-518.3" font-family="Times,serif" font-size="14.00">arg</text>
</g>
<!-- ast.arguments object at 0x781224c69d10&#45;&gt;ast.arg object at 0x781224c6a250 -->
<g id="edge3" class="edge">
<title>ast.arguments object at 0x781224c69d10&#45;&gt;ast.arg object at 0x781224c6a250</title>
<path fill="none" stroke="black" d="M274.5,-575.7C274.5,-567.98 274.5,-558.71 274.5,-550.11"/>
<polygon fill="black" stroke="black" points="278,-550.1 274.5,-540.1 271,-550.1 278,-550.1"/>
</g>
<!-- ast.Name object at 0x781224c69f90 -->
<g id="node6" class="node">
<title>ast.Name object at 0x781224c69f90</title>
<path fill="#66cdaa" stroke="black" d="M392.5,-180C392.5,-180 362.5,-180 362.5,-180 356.5,-180 350.5,-174 350.5,-168 350.5,-168 350.5,-156 350.5,-156 350.5,-150 356.5,-144 362.5,-144 362.5,-144 392.5,-144 392.5,-144 398.5,-144 404.5,-150 404.5,-156 404.5,-156 404.5,-168 404.5,-168 404.5,-174 398.5,-180 392.5,-180"/>
<text text-anchor="middle" x="377.5" y="-158.3" font-family="Times,serif" font-size="14.00">Name</text>
</g>
<!-- ast.Assign object at 0x781224c6a810&#45;&gt;ast.Name object at 0x781224c69f90 -->
<g id="edge5" class="edge">
<title>ast.Assign object at 0x781224c6a810&#45;&gt;ast.Name object at 0x781224c69f90</title>
<path fill="none" stroke="black" d="M377.5,-215.7C377.5,-207.98 377.5,-198.71 377.5,-190.11"/>
<polygon fill="black" stroke="black" points="381,-190.1 377.5,-180.1 374,-190.1 381,-190.1"/>
</g>
<!-- ast.Subscript object at 0x781224c6a950 -->
<g id="node8" class="node">
<title>ast.Subscript object at 0x781224c6a950</title>
<path fill="#66cdaa" stroke="black" d="M248.5,-180C248.5,-180 204.5,-180 204.5,-180 198.5,-180 192.5,-174 192.5,-168 192.5,-168 192.5,-156 192.5,-156 192.5,-150 198.5,-144 204.5,-144 204.5,-144 248.5,-144 248.5,-144 254.5,-144 260.5,-150 260.5,-156 260.5,-156 260.5,-168 260.5,-168 260.5,-174 254.5,-180 248.5,-180"/>
<text text-anchor="middle" x="226.5" y="-158.3" font-family="Times,serif" font-size="14.00">Subscript</text>
</g>
<!-- ast.Assign object at 0x781224c6a810&#45;&gt;ast.Subscript object at 0x781224c6a950 -->
<g id="edge7" class="edge">
<title>ast.Assign object at 0x781224c6a810&#45;&gt;ast.Subscript object at 0x781224c6a950</title>
<path fill="none" stroke="black" d="M350.39,-220.16C347.39,-218.75 344.38,-217.34 341.5,-216 317.81,-204.95 291.32,-192.73 269.74,-182.81"/>
<polygon fill="black" stroke="black" points="271.05,-179.56 260.5,-178.57 268.13,-185.93 271.05,-179.56"/>
</g>
<!-- ast.Store object at 0x78131643bb10 -->
<g id="node7" class="node">
<title>ast.Store object at 0x78131643bb10</title>
<path fill="#66cdaa" stroke="black" d="M429.5,-108C429.5,-108 399.5,-108 399.5,-108 393.5,-108 387.5,-102 387.5,-96 387.5,-96 387.5,-84 387.5,-84 387.5,-78 393.5,-72 399.5,-72 399.5,-72 429.5,-72 429.5,-72 435.5,-72 441.5,-78 441.5,-84 441.5,-84 441.5,-96 441.5,-96 441.5,-102 435.5,-108 429.5,-108"/>
<text text-anchor="middle" x="414.5" y="-86.3" font-family="Times,serif" font-size="14.00">Store</text>
</g>
<!-- ast.Name object at 0x781224c69f90&#45;&gt;ast.Store object at 0x78131643bb10 -->
<g id="edge6" class="edge">
<title>ast.Name object at 0x781224c69f90&#45;&gt;ast.Store object at 0x78131643bb10</title>
<path fill="none" stroke="black" d="M386.65,-143.7C390.9,-135.64 396.06,-125.89 400.77,-116.98"/>
<polygon fill="black" stroke="black" points="403.88,-118.58 405.46,-108.1 397.69,-115.31 403.88,-118.58"/>
</g>
<!-- ast.Name object at 0x781224c6a010 -->
<g id="node9" class="node">
<title>ast.Name object at 0x781224c6a010</title>
<path fill="#66cdaa" stroke="black" d="M319.5,-108C319.5,-108 289.5,-108 289.5,-108 283.5,-108 277.5,-102 277.5,-96 277.5,-96 277.5,-84 277.5,-84 277.5,-78 283.5,-72 289.5,-72 289.5,-72 319.5,-72 319.5,-72 325.5,-72 331.5,-78 331.5,-84 331.5,-84 331.5,-96 331.5,-96 331.5,-102 325.5,-108 319.5,-108"/>
<text text-anchor="middle" x="304.5" y="-86.3" font-family="Times,serif" font-size="14.00">Name</text>
</g>
<!-- ast.Subscript object at 0x781224c6a950&#45;&gt;ast.Name object at 0x781224c6a010 -->
<g id="edge8" class="edge">
<title>ast.Subscript object at 0x781224c6a950&#45;&gt;ast.Name object at 0x781224c6a010</title>
<path fill="none" stroke="black" d="M245.78,-143.7C255.42,-135.05 267.23,-124.45 277.73,-115.03"/>
<polygon fill="black" stroke="black" points="280.34,-117.39 285.44,-108.1 275.66,-112.18 280.34,-117.39"/>
</g>
<!-- ast.Load object at 0x78131643ba90 -->
<g id="node10" class="node">
<title>ast.Load object at 0x78131643ba90</title>
<path fill="#66cdaa" stroke="black" d="M1194.5,-36C1194.5,-36 1164.5,-36 1164.5,-36 1158.5,-36 1152.5,-30 1152.5,-24 1152.5,-24 1152.5,-12 1152.5,-12 1152.5,-6 1158.5,0 1164.5,0 1164.5,0 1194.5,0 1194.5,0 1200.5,0 1206.5,-6 1206.5,-12 1206.5,-12 1206.5,-24 1206.5,-24 1206.5,-30 1200.5,-36 1194.5,-36"/>
<text text-anchor="middle" x="1179.5" y="-14.3" font-family="Times,serif" font-size="14.00">Load</text>
</g>
<!-- ast.Subscript object at 0x781224c6a950&#45;&gt;ast.Load object at 0x78131643ba90 -->
<g id="edge11" class="edge">
<title>ast.Subscript object at 0x781224c6a950&#45;&gt;ast.Load object at 0x78131643ba90</title>
<path fill="none" stroke="black" d="M260.58,-146.6C288.91,-134.37 326.73,-117.35 340.5,-108 359.74,-94.93 357.18,-81.32 378.5,-72 448.96,-41.19 993.39,-24.11 1142.08,-19.99"/>
<polygon fill="black" stroke="black" points="1142.59,-23.47 1152.49,-19.7 1142.4,-16.48 1142.59,-23.47"/>
</g>
<!-- ast.Constant object at 0x781224c6a490 -->
<g id="node11" class="node">
<title>ast.Constant object at 0x781224c6a490</title>
<path fill="#66cdaa" stroke="black" d="M247,-108C247,-108 206,-108 206,-108 200,-108 194,-102 194,-96 194,-96 194,-84 194,-84 194,-78 200,-72 206,-72 206,-72 247,-72 247,-72 253,-72 259,-78 259,-84 259,-84 259,-96 259,-96 259,-102 253,-108 247,-108"/>
<text text-anchor="middle" x="226.5" y="-86.3" font-family="Times,serif" font-size="14.00">Constant</text>
</g>
<!-- ast.Subscript object at 0x781224c6a950&#45;&gt;ast.Constant object at 0x781224c6a490 -->
<g id="edge10" class="edge">
<title>ast.Subscript object at 0x781224c6a950&#45;&gt;ast.Constant object at 0x781224c6a490</title>
<path fill="none" stroke="black" d="M226.5,-143.7C226.5,-135.98 226.5,-126.71 226.5,-118.11"/>
<polygon fill="black" stroke="black" points="230,-118.1 226.5,-108.1 223,-118.1 230,-118.1"/>
</g>
<!-- ast.Name object at 0x781224c6a010&#45;&gt;ast.Load object at 0x78131643ba90 -->
<g id="edge9" class="edge">
<title>ast.Name object at 0x781224c6a010&#45;&gt;ast.Load object at 0x78131643ba90</title>
<path fill="none" stroke="black" d="M331.88,-76.2C336.35,-74.54 341,-73.05 345.5,-72 500.28,-36.04 1000.77,-22.82 1142.05,-19.75"/>
<polygon fill="black" stroke="black" points="1142.43,-23.24 1152.35,-19.53 1142.28,-16.24 1142.43,-23.24"/>
</g>
<!-- ast.Name object at 0x781224c6a190 -->
<g id="node13" class="node">
<title>ast.Name object at 0x781224c6a190</title>
<path fill="#66cdaa" stroke="black" d="M320.5,-180C320.5,-180 290.5,-180 290.5,-180 284.5,-180 278.5,-174 278.5,-168 278.5,-168 278.5,-156 278.5,-156 278.5,-150 284.5,-144 290.5,-144 290.5,-144 320.5,-144 320.5,-144 326.5,-144 332.5,-150 332.5,-156 332.5,-156 332.5,-168 332.5,-168 332.5,-174 326.5,-180 320.5,-180"/>
<text text-anchor="middle" x="305.5" y="-158.3" font-family="Times,serif" font-size="14.00">Name</text>
</g>
<!-- ast.Assign object at 0x781224c69e50&#45;&gt;ast.Name object at 0x781224c6a190 -->
<g id="edge13" class="edge">
<title>ast.Assign object at 0x781224c69e50&#45;&gt;ast.Name object at 0x781224c6a190</title>
<path fill="none" stroke="black" d="M305.5,-215.7C305.5,-207.98 305.5,-198.71 305.5,-190.11"/>
<polygon fill="black" stroke="black" points="309,-190.1 305.5,-180.1 302,-190.1 309,-190.1"/>
</g>
<!-- ast.Subscript object at 0x781224c6a510 -->
<g id="node14" class="node">
<title>ast.Subscript object at 0x781224c6a510</title>
<path fill="#66cdaa" stroke="black" d="M139.5,-180C139.5,-180 95.5,-180 95.5,-180 89.5,-180 83.5,-174 83.5,-168 83.5,-168 83.5,-156 83.5,-156 83.5,-150 89.5,-144 95.5,-144 95.5,-144 139.5,-144 139.5,-144 145.5,-144 151.5,-150 151.5,-156 151.5,-156 151.5,-168 151.5,-168 151.5,-174 145.5,-180 139.5,-180"/>
<text text-anchor="middle" x="117.5" y="-158.3" font-family="Times,serif" font-size="14.00">Subscript</text>
</g>
<!-- ast.Assign object at 0x781224c69e50&#45;&gt;ast.Subscript object at 0x781224c6a510 -->
<g id="edge15" class="edge">
<title>ast.Assign object at 0x781224c69e50&#45;&gt;ast.Subscript object at 0x781224c6a510</title>
<path fill="none" stroke="black" d="M278.16,-222.82C247.54,-211.42 197.46,-192.77 161.35,-179.33"/>
<polygon fill="black" stroke="black" points="162.15,-175.89 151.56,-175.68 159.71,-182.45 162.15,-175.89"/>
</g>
<!-- ast.Name object at 0x781224c6a190&#45;&gt;ast.Store object at 0x78131643bb10 -->
<g id="edge14" class="edge">
<title>ast.Name object at 0x781224c6a190&#45;&gt;ast.Store object at 0x78131643bb10</title>
<path fill="none" stroke="black" d="M332.16,-143.88C346.28,-134.81 363.81,-123.55 379.06,-113.76"/>
<polygon fill="black" stroke="black" points="381.21,-116.54 387.73,-108.19 377.43,-110.65 381.21,-116.54"/>
</g>
<!-- ast.Subscript object at 0x781224c6a510&#45;&gt;ast.Load object at 0x78131643ba90 -->
<g id="edge19" class="edge">
<title>ast.Subscript object at 0x781224c6a510&#45;&gt;ast.Load object at 0x78131643ba90</title>
<path fill="none" stroke="black" d="M109.91,-143.71C102.42,-123.66 94.47,-90.95 112.5,-72 148.73,-33.92 957.7,-21.72 1142.25,-19.43"/>
<polygon fill="black" stroke="black" points="1142.32,-22.93 1152.28,-19.3 1142.24,-15.93 1142.32,-22.93"/>
</g>
<!-- ast.Name object at 0x781224c6a290 -->
<g id="node15" class="node">
<title>ast.Name object at 0x781224c6a290</title>
<path fill="#66cdaa" stroke="black" d="M163.5,-108C163.5,-108 133.5,-108 133.5,-108 127.5,-108 121.5,-102 121.5,-96 121.5,-96 121.5,-84 121.5,-84 121.5,-78 127.5,-72 133.5,-72 133.5,-72 163.5,-72 163.5,-72 169.5,-72 175.5,-78 175.5,-84 175.5,-84 175.5,-96 175.5,-96 175.5,-102 169.5,-108 163.5,-108"/>
<text text-anchor="middle" x="148.5" y="-86.3" font-family="Times,serif" font-size="14.00">Name</text>
</g>
<!-- ast.Subscript object at 0x781224c6a510&#45;&gt;ast.Name object at 0x781224c6a290 -->
<g id="edge16" class="edge">
<title>ast.Subscript object at 0x781224c6a510&#45;&gt;ast.Name object at 0x781224c6a290</title>
<path fill="none" stroke="black" d="M125.16,-143.7C128.69,-135.73 132.96,-126.1 136.87,-117.26"/>
<polygon fill="black" stroke="black" points="140.08,-118.67 140.93,-108.1 133.68,-115.83 140.08,-118.67"/>
</g>
<!-- ast.Constant object at 0x781224c6a610 -->
<g id="node16" class="node">
<title>ast.Constant object at 0x781224c6a610</title>
<path fill="#66cdaa" stroke="black" d="M53,-108C53,-108 12,-108 12,-108 6,-108 0,-102 0,-96 0,-96 0,-84 0,-84 0,-78 6,-72 12,-72 12,-72 53,-72 53,-72 59,-72 65,-78 65,-84 65,-84 65,-96 65,-96 65,-102 59,-108 53,-108"/>
<text text-anchor="middle" x="32.5" y="-86.3" font-family="Times,serif" font-size="14.00">Constant</text>
</g>
<!-- ast.Subscript object at 0x781224c6a510&#45;&gt;ast.Constant object at 0x781224c6a610 -->
<g id="edge18" class="edge">
<title>ast.Subscript object at 0x781224c6a510&#45;&gt;ast.Constant object at 0x781224c6a610</title>
<path fill="none" stroke="black" d="M96.49,-143.7C85.78,-134.88 72.61,-124.03 61,-114.47"/>
<polygon fill="black" stroke="black" points="63.21,-111.76 53.27,-108.1 58.76,-117.16 63.21,-111.76"/>
</g>
<!-- ast.Name object at 0x781224c6a290&#45;&gt;ast.Load object at 0x78131643ba90 -->
<g id="edge17" class="edge">
<title>ast.Name object at 0x781224c6a290&#45;&gt;ast.Load object at 0x78131643ba90</title>
<path fill="none" stroke="black" d="M175.61,-74.86C178.55,-73.73 181.55,-72.74 184.5,-72 371.01,-24.93 984.36,-19.64 1142.2,-19.07"/>
<polygon fill="black" stroke="black" points="1142.36,-22.57 1152.34,-19.03 1142.33,-15.57 1142.36,-22.57"/>
</g>
<!-- ast.Call object at 0x781224c6a6d0 -->
<g id="node18" class="node">
<title>ast.Call object at 0x781224c6a6d0</title>
<path fill="#66cdaa" stroke="black" d="M1092.5,-468C1092.5,-468 1062.5,-468 1062.5,-468 1056.5,-468 1050.5,-462 1050.5,-456 1050.5,-456 1050.5,-444 1050.5,-444 1050.5,-438 1056.5,-432 1062.5,-432 1062.5,-432 1092.5,-432 1092.5,-432 1098.5,-432 1104.5,-438 1104.5,-444 1104.5,-444 1104.5,-456 1104.5,-456 1104.5,-462 1098.5,-468 1092.5,-468"/>
<text text-anchor="middle" x="1077.5" y="-446.3" font-family="Times,serif" font-size="14.00">Call</text>
</g>
<!-- ast.If object at 0x781224c6a0d0&#45;&gt;ast.Call object at 0x781224c6a6d0 -->
<g id="edge21" class="edge">
<title>ast.If object at 0x781224c6a0d0&#45;&gt;ast.Call object at 0x781224c6a6d0</title>
<path fill="none" stroke="black" d="M695.65,-583.57C766.91,-558.83 959.37,-492.01 1040.57,-463.82"/>
<polygon fill="black" stroke="black" points="1042.06,-467.01 1050.36,-460.42 1039.76,-460.4 1042.06,-467.01"/>
</g>
<!-- ast.Return object at 0x781224c6acd0 -->
<g id="node37" class="node">
<title>ast.Return object at 0x781224c6acd0</title>
<path fill="#66cdaa" stroke="black" d="M539.5,-540C539.5,-540 509.5,-540 509.5,-540 503.5,-540 497.5,-534 497.5,-528 497.5,-528 497.5,-516 497.5,-516 497.5,-510 503.5,-504 509.5,-504 509.5,-504 539.5,-504 539.5,-504 545.5,-504 551.5,-510 551.5,-516 551.5,-516 551.5,-528 551.5,-528 551.5,-534 545.5,-540 539.5,-540"/>
<text text-anchor="middle" x="524.5" y="-518.3" font-family="Times,serif" font-size="14.00">Return</text>
</g>
<!-- ast.If object at 0x781224c6a0d0&#45;&gt;ast.Return object at 0x781224c6acd0 -->
<g id="edge47" class="edge">
<title>ast.If object at 0x781224c6a0d0&#45;&gt;ast.Return object at 0x781224c6acd0</title>
<path fill="none" stroke="black" d="M641.41,-579.83C618.73,-568.81 586.14,-552.97 561.13,-540.81"/>
<polygon fill="black" stroke="black" points="562.48,-537.57 551.95,-536.35 559.42,-543.87 562.48,-537.57"/>
</g>
<!-- ast.Assign object at 0x781224c6b110 -->
<g id="node39" class="node">
<title>ast.Assign object at 0x781224c6b110</title>
<path fill="#66cdaa" stroke="black" d="M653.5,-540C653.5,-540 623.5,-540 623.5,-540 617.5,-540 611.5,-534 611.5,-528 611.5,-528 611.5,-516 611.5,-516 611.5,-510 617.5,-504 623.5,-504 623.5,-504 653.5,-504 653.5,-504 659.5,-504 665.5,-510 665.5,-516 665.5,-516 665.5,-528 665.5,-528 665.5,-534 659.5,-540 653.5,-540"/>
<text text-anchor="middle" x="638.5" y="-518.3" font-family="Times,serif" font-size="14.00">Assign</text>
</g>
<!-- ast.If object at 0x781224c6a0d0&#45;&gt;ast.Assign object at 0x781224c6b110 -->
<g id="edge49" class="edge">
<title>ast.If object at 0x781224c6a0d0&#45;&gt;ast.Assign object at 0x781224c6b110</title>
<path fill="none" stroke="black" d="M661.08,-575.7C657.71,-567.81 653.63,-558.3 649.88,-549.55"/>
<polygon fill="black" stroke="black" points="652.99,-547.92 645.83,-540.1 646.55,-550.67 652.99,-547.92"/>
</g>
<!-- ast.For object at 0x781224dc1690 -->
<g id="node42" class="node">
<title>ast.For object at 0x781224dc1690</title>
<path fill="#66cdaa" stroke="black" d="M714.5,-396C714.5,-396 684.5,-396 684.5,-396 678.5,-396 672.5,-390 672.5,-384 672.5,-384 672.5,-372 672.5,-372 672.5,-366 678.5,-360 684.5,-360 684.5,-360 714.5,-360 714.5,-360 720.5,-360 726.5,-366 726.5,-372 726.5,-372 726.5,-384 726.5,-384 726.5,-390 720.5,-396 714.5,-396"/>
<text text-anchor="middle" x="699.5" y="-374.3" font-family="Times,serif" font-size="14.00">For</text>
</g>
<!-- ast.If object at 0x781224c6a0d0&#45;&gt;ast.For object at 0x781224dc1690 -->
<g id="edge53" class="edge">
<title>ast.If object at 0x781224c6a0d0&#45;&gt;ast.For object at 0x781224dc1690</title>
<path fill="none" stroke="black" d="M670.98,-575.85C676.35,-538.83 689.04,-451.18 695.53,-406.39"/>
<polygon fill="black" stroke="black" points="699.03,-406.63 697,-396.23 692.11,-405.63 699.03,-406.63"/>
</g>
<!-- ast.If object at 0x781224daf850 -->
<g id="node58" class="node">
<title>ast.If object at 0x781224daf850</title>
<path fill="#66cdaa" stroke="black" d="M1939.5,-540C1939.5,-540 1909.5,-540 1909.5,-540 1903.5,-540 1897.5,-534 1897.5,-528 1897.5,-528 1897.5,-516 1897.5,-516 1897.5,-510 1903.5,-504 1909.5,-504 1909.5,-504 1939.5,-504 1939.5,-504 1945.5,-504 1951.5,-510 1951.5,-516 1951.5,-516 1951.5,-528 1951.5,-528 1951.5,-534 1945.5,-540 1939.5,-540"/>
<text text-anchor="middle" x="1924.5" y="-518.3" font-family="Times,serif" font-size="14.00">If</text>
</g>
<!-- ast.If object at 0x781224c6a0d0&#45;&gt;ast.If object at 0x781224daf850 -->
<g id="edge79" class="edge">
<title>ast.If object at 0x781224c6a0d0&#45;&gt;ast.If object at 0x781224daf850</title>
<path fill="none" stroke="black" d="M695.61,-591.49C857.81,-582.45 1699.26,-535.55 1887.23,-525.08"/>
<polygon fill="black" stroke="black" points="1887.64,-528.56 1897.43,-524.51 1887.25,-521.57 1887.64,-528.56"/>
</g>
<!-- ast.Name object at 0x781224c6ab90 -->
<g id="node19" class="node">
<title>ast.Name object at 0x781224c6ab90</title>
<path fill="#66cdaa" stroke="black" d="M1432.5,-396C1432.5,-396 1402.5,-396 1402.5,-396 1396.5,-396 1390.5,-390 1390.5,-384 1390.5,-384 1390.5,-372 1390.5,-372 1390.5,-366 1396.5,-360 1402.5,-360 1402.5,-360 1432.5,-360 1432.5,-360 1438.5,-360 1444.5,-366 1444.5,-372 1444.5,-372 1444.5,-384 1444.5,-384 1444.5,-390 1438.5,-396 1432.5,-396"/>
<text text-anchor="middle" x="1417.5" y="-374.3" font-family="Times,serif" font-size="14.00">Name</text>
</g>
<!-- ast.Call object at 0x781224c6a6d0&#45;&gt;ast.Name object at 0x781224c6ab90 -->
<g id="edge22" class="edge">
<title>ast.Call object at 0x781224c6a6d0&#45;&gt;ast.Name object at 0x781224c6ab90</title>
<path fill="none" stroke="black" d="M1104.75,-443.39C1165.3,-430.92 1311.13,-400.9 1380.13,-386.69"/>
<polygon fill="black" stroke="black" points="1381.03,-390.08 1390.12,-384.64 1379.62,-383.23 1381.03,-390.08"/>
</g>
<!-- ast.GeneratorExp object at 0x781224c6aa10 -->
<g id="node20" class="node">
<title>ast.GeneratorExp object at 0x781224c6aa10</title>
<path fill="#66cdaa" stroke="black" d="M1111.5,-396C1111.5,-396 1043.5,-396 1043.5,-396 1037.5,-396 1031.5,-390 1031.5,-384 1031.5,-384 1031.5,-372 1031.5,-372 1031.5,-366 1037.5,-360 1043.5,-360 1043.5,-360 1111.5,-360 1111.5,-360 1117.5,-360 1123.5,-366 1123.5,-372 1123.5,-372 1123.5,-384 1123.5,-384 1123.5,-390 1117.5,-396 1111.5,-396"/>
<text text-anchor="middle" x="1077.5" y="-374.3" font-family="Times,serif" font-size="14.00">GeneratorExp</text>
</g>
<!-- ast.Call object at 0x781224c6a6d0&#45;&gt;ast.GeneratorExp object at 0x781224c6aa10 -->
<g id="edge24" class="edge">
<title>ast.Call object at 0x781224c6a6d0&#45;&gt;ast.GeneratorExp object at 0x781224c6aa10</title>
<path fill="none" stroke="black" d="M1077.5,-431.7C1077.5,-423.98 1077.5,-414.71 1077.5,-406.11"/>
<polygon fill="black" stroke="black" points="1081,-406.1 1077.5,-396.1 1074,-406.1 1081,-406.1"/>
</g>
<!-- ast.Name object at 0x781224c6ab90&#45;&gt;ast.Load object at 0x78131643ba90 -->
<g id="edge23" class="edge">
<title>ast.Name object at 0x781224c6ab90&#45;&gt;ast.Load object at 0x78131643ba90</title>
<path fill="none" stroke="black" d="M1444.51,-374.27C1508.79,-366.14 1665.5,-335.96 1665.5,-235 1665.5,-235 1665.5,-235 1665.5,-161 1665.5,-120.55 1676.46,-99.18 1646.5,-72 1614.84,-43.28 1322.1,-26.07 1216.91,-20.76"/>
<polygon fill="black" stroke="black" points="1216.92,-17.26 1206.76,-20.26 1216.57,-24.25 1216.92,-17.26"/>
</g>
<!-- ast.Compare object at 0x781224c6ab10 -->
<g id="node21" class="node">
<title>ast.Compare object at 0x781224c6ab10</title>
<path fill="#66cdaa" stroke="black" d="M1138,-180C1138,-180 1095,-180 1095,-180 1089,-180 1083,-174 1083,-168 1083,-168 1083,-156 1083,-156 1083,-150 1089,-144 1095,-144 1095,-144 1138,-144 1138,-144 1144,-144 1150,-150 1150,-156 1150,-156 1150,-168 1150,-168 1150,-174 1144,-180 1138,-180"/>
<text text-anchor="middle" x="1116.5" y="-158.3" font-family="Times,serif" font-size="14.00">Compare</text>
</g>
<!-- ast.GeneratorExp object at 0x781224c6aa10&#45;&gt;ast.Compare object at 0x781224c6ab10 -->
<g id="edge25" class="edge">
<title>ast.GeneratorExp object at 0x781224c6aa10&#45;&gt;ast.Compare object at 0x781224c6ab10</title>
<path fill="none" stroke="black" d="M1085.26,-359.67C1089.52,-349.48 1094.52,-336.23 1097.5,-324 1108.76,-277.81 1113.43,-222.49 1115.31,-190.19"/>
<polygon fill="black" stroke="black" points="1118.81,-190.33 1115.84,-180.16 1111.82,-189.96 1118.81,-190.33"/>
</g>
<!-- ast.comprehension object at 0x781224c6a310 -->
<g id="node25" class="node">
<title>ast.comprehension object at 0x781224c6a310</title>
<path fill="#66cdaa" stroke="black" d="M1076.5,-324C1076.5,-324 1000.5,-324 1000.5,-324 994.5,-324 988.5,-318 988.5,-312 988.5,-312 988.5,-300 988.5,-300 988.5,-294 994.5,-288 1000.5,-288 1000.5,-288 1076.5,-288 1076.5,-288 1082.5,-288 1088.5,-294 1088.5,-300 1088.5,-300 1088.5,-312 1088.5,-312 1088.5,-318 1082.5,-324 1076.5,-324"/>
<text text-anchor="middle" x="1038.5" y="-302.3" font-family="Times,serif" font-size="14.00">comprehension</text>
</g>
<!-- ast.GeneratorExp object at 0x781224c6aa10&#45;&gt;ast.comprehension object at 0x781224c6a310 -->
<g id="edge31" class="edge">
<title>ast.GeneratorExp object at 0x781224c6aa10&#45;&gt;ast.comprehension object at 0x781224c6a310</title>
<path fill="none" stroke="black" d="M1067.86,-359.7C1063.37,-351.64 1057.94,-341.89 1052.98,-332.98"/>
<polygon fill="black" stroke="black" points="1055.95,-331.14 1048.03,-324.1 1049.84,-334.54 1055.95,-331.14"/>
</g>
<!-- ast.Name object at 0x781224c6ad10 -->
<g id="node22" class="node">
<title>ast.Name object at 0x781224c6ad10</title>
<path fill="#66cdaa" stroke="black" d="M1059.5,-108C1059.5,-108 1029.5,-108 1029.5,-108 1023.5,-108 1017.5,-102 1017.5,-96 1017.5,-96 1017.5,-84 1017.5,-84 1017.5,-78 1023.5,-72 1029.5,-72 1029.5,-72 1059.5,-72 1059.5,-72 1065.5,-72 1071.5,-78 1071.5,-84 1071.5,-84 1071.5,-96 1071.5,-96 1071.5,-102 1065.5,-108 1059.5,-108"/>
<text text-anchor="middle" x="1044.5" y="-86.3" font-family="Times,serif" font-size="14.00">Name</text>
</g>
<!-- ast.Compare object at 0x781224c6ab10&#45;&gt;ast.Name object at 0x781224c6ad10 -->
<g id="edge26" class="edge">
<title>ast.Compare object at 0x781224c6ab10&#45;&gt;ast.Name object at 0x781224c6ad10</title>
<path fill="none" stroke="black" d="M1098.7,-143.7C1089.9,-135.14 1079.12,-124.66 1069.5,-115.3"/>
<polygon fill="black" stroke="black" points="1071.7,-112.57 1062.09,-108.1 1066.82,-117.58 1071.7,-112.57"/>
</g>
<!-- ast.In object at 0x781316448ed0 -->
<g id="node23" class="node">
<title>ast.In object at 0x781316448ed0</title>
<path fill="#66cdaa" stroke="black" d="M1203.5,-108C1203.5,-108 1173.5,-108 1173.5,-108 1167.5,-108 1161.5,-102 1161.5,-96 1161.5,-96 1161.5,-84 1161.5,-84 1161.5,-78 1167.5,-72 1173.5,-72 1173.5,-72 1203.5,-72 1203.5,-72 1209.5,-72 1215.5,-78 1215.5,-84 1215.5,-84 1215.5,-96 1215.5,-96 1215.5,-102 1209.5,-108 1203.5,-108"/>
<text text-anchor="middle" x="1188.5" y="-86.3" font-family="Times,serif" font-size="14.00">In</text>
</g>
<!-- ast.Compare object at 0x781224c6ab10&#45;&gt;ast.In object at 0x781316448ed0 -->
<g id="edge28" class="edge">
<title>ast.Compare object at 0x781224c6ab10&#45;&gt;ast.In object at 0x781316448ed0</title>
<path fill="none" stroke="black" d="M1134.3,-143.7C1143.1,-135.14 1153.88,-124.66 1163.5,-115.3"/>
<polygon fill="black" stroke="black" points="1166.18,-117.58 1170.91,-108.1 1161.3,-112.57 1166.18,-117.58"/>
</g>
<!-- ast.Name object at 0x781224c6a7d0 -->
<g id="node24" class="node">
<title>ast.Name object at 0x781224c6a7d0</title>
<path fill="#66cdaa" stroke="black" d="M1131.5,-108C1131.5,-108 1101.5,-108 1101.5,-108 1095.5,-108 1089.5,-102 1089.5,-96 1089.5,-96 1089.5,-84 1089.5,-84 1089.5,-78 1095.5,-72 1101.5,-72 1101.5,-72 1131.5,-72 1131.5,-72 1137.5,-72 1143.5,-78 1143.5,-84 1143.5,-84 1143.5,-96 1143.5,-96 1143.5,-102 1137.5,-108 1131.5,-108"/>
<text text-anchor="middle" x="1116.5" y="-86.3" font-family="Times,serif" font-size="14.00">Name</text>
</g>
<!-- ast.Compare object at 0x781224c6ab10&#45;&gt;ast.Name object at 0x781224c6a7d0 -->
<g id="edge29" class="edge">
<title>ast.Compare object at 0x781224c6ab10&#45;&gt;ast.Name object at 0x781224c6a7d0</title>
<path fill="none" stroke="black" d="M1116.5,-143.7C1116.5,-135.98 1116.5,-126.71 1116.5,-118.11"/>
<polygon fill="black" stroke="black" points="1120,-118.1 1116.5,-108.1 1113,-118.1 1120,-118.1"/>
</g>
<!-- ast.Name object at 0x781224c6ad10&#45;&gt;ast.Load object at 0x78131643ba90 -->
<g id="edge27" class="edge">
<title>ast.Name object at 0x781224c6ad10&#45;&gt;ast.Load object at 0x78131643ba90</title>
<path fill="none" stroke="black" d="M1071.82,-74.83C1092.4,-64.16 1120.83,-49.42 1143.31,-37.77"/>
<polygon fill="black" stroke="black" points="1144.95,-40.85 1152.22,-33.14 1141.73,-34.64 1144.95,-40.85"/>
</g>
<!-- ast.Name object at 0x781224c6a7d0&#45;&gt;ast.Load object at 0x78131643ba90 -->
<g id="edge30" class="edge">
<title>ast.Name object at 0x781224c6a7d0&#45;&gt;ast.Load object at 0x78131643ba90</title>
<path fill="none" stroke="black" d="M1132.07,-71.7C1139.7,-63.22 1149.02,-52.86 1157.38,-43.58"/>
<polygon fill="black" stroke="black" points="1160.02,-45.88 1164.11,-36.1 1154.81,-41.2 1160.02,-45.88"/>
</g>
<!-- ast.Name object at 0x781224c6be90 -->
<g id="node26" class="node">
<title>ast.Name object at 0x781224c6be90</title>
<path fill="#66cdaa" stroke="black" d="M718.5,-252C718.5,-252 688.5,-252 688.5,-252 682.5,-252 676.5,-246 676.5,-240 676.5,-240 676.5,-228 676.5,-228 676.5,-222 682.5,-216 688.5,-216 688.5,-216 718.5,-216 718.5,-216 724.5,-216 730.5,-222 730.5,-228 730.5,-228 730.5,-240 730.5,-240 730.5,-246 724.5,-252 718.5,-252"/>
<text text-anchor="middle" x="703.5" y="-230.3" font-family="Times,serif" font-size="14.00">Name</text>
</g>
<!-- ast.comprehension object at 0x781224c6a310&#45;&gt;ast.Name object at 0x781224c6be90 -->
<g id="edge32" class="edge">
<title>ast.comprehension object at 0x781224c6a310&#45;&gt;ast.Name object at 0x781224c6be90</title>
<path fill="none" stroke="black" d="M988.35,-294.52C920.54,-280.35 801.16,-255.41 740.75,-242.78"/>
<polygon fill="black" stroke="black" points="741.39,-239.34 730.88,-240.72 739.96,-246.19 741.39,-239.34"/>
</g>
<!-- ast.Call object at 0x781224c69b10 -->
<g id="node27" class="node">
<title>ast.Call object at 0x781224c69b10</title>
<path fill="#66cdaa" stroke="black" d="M1289.5,-252C1289.5,-252 1259.5,-252 1259.5,-252 1253.5,-252 1247.5,-246 1247.5,-240 1247.5,-240 1247.5,-228 1247.5,-228 1247.5,-222 1253.5,-216 1259.5,-216 1259.5,-216 1289.5,-216 1289.5,-216 1295.5,-216 1301.5,-222 1301.5,-228 1301.5,-228 1301.5,-240 1301.5,-240 1301.5,-246 1295.5,-252 1289.5,-252"/>
<text text-anchor="middle" x="1274.5" y="-230.3" font-family="Times,serif" font-size="14.00">Call</text>
</g>
<!-- ast.comprehension object at 0x781224c6a310&#45;&gt;ast.Call object at 0x781224c69b10 -->
<g id="edge34" class="edge">
<title>ast.comprehension object at 0x781224c6a310&#45;&gt;ast.Call object at 0x781224c69b10</title>
<path fill="none" stroke="black" d="M1088.55,-290.15C1133.2,-276.91 1197.55,-257.82 1237.65,-245.93"/>
<polygon fill="black" stroke="black" points="1238.71,-249.27 1247.3,-243.07 1236.72,-242.56 1238.71,-249.27"/>
</g>
<!-- ast.Name object at 0x781224c6be90&#45;&gt;ast.Store object at 0x78131643bb10 -->
<g id="edge33" class="edge">
<title>ast.Name object at 0x781224c6be90&#45;&gt;ast.Store object at 0x78131643bb10</title>
<path fill="none" stroke="black" d="M676.18,-220.18C650.06,-207.72 612.74,-189.35 599.5,-180 580.5,-166.58 581.42,-156.02 561.5,-144 518.9,-118.3 502.06,-125.54 455.5,-108 454.1,-107.47 452.68,-106.93 451.25,-106.37"/>
<polygon fill="black" stroke="black" points="452.33,-103.04 441.75,-102.59 449.74,-109.54 452.33,-103.04"/>
</g>
<!-- ast.Name object at 0x781224c6b950 -->
<g id="node28" class="node">
<title>ast.Name object at 0x781224c6b950</title>
<path fill="#66cdaa" stroke="black" d="M1253.5,-180C1253.5,-180 1223.5,-180 1223.5,-180 1217.5,-180 1211.5,-174 1211.5,-168 1211.5,-168 1211.5,-156 1211.5,-156 1211.5,-150 1217.5,-144 1223.5,-144 1223.5,-144 1253.5,-144 1253.5,-144 1259.5,-144 1265.5,-150 1265.5,-156 1265.5,-156 1265.5,-168 1265.5,-168 1265.5,-174 1259.5,-180 1253.5,-180"/>
<text text-anchor="middle" x="1238.5" y="-158.3" font-family="Times,serif" font-size="14.00">Name</text>
</g>
<!-- ast.Call object at 0x781224c69b10&#45;&gt;ast.Name object at 0x781224c6b950 -->
<g id="edge35" class="edge">
<title>ast.Call object at 0x781224c69b10&#45;&gt;ast.Name object at 0x781224c6b950</title>
<path fill="none" stroke="black" d="M1265.6,-215.7C1261.5,-207.73 1256.55,-198.1 1252.01,-189.26"/>
<polygon fill="black" stroke="black" points="1254.98,-187.4 1247.3,-180.1 1248.76,-190.6 1254.98,-187.4"/>
</g>
<!-- ast.BinOp object at 0x781224c6a050 -->
<g id="node29" class="node">
<title>ast.BinOp object at 0x781224c6a050</title>
<path fill="#66cdaa" stroke="black" d="M1325.5,-180C1325.5,-180 1295.5,-180 1295.5,-180 1289.5,-180 1283.5,-174 1283.5,-168 1283.5,-168 1283.5,-156 1283.5,-156 1283.5,-150 1289.5,-144 1295.5,-144 1295.5,-144 1325.5,-144 1325.5,-144 1331.5,-144 1337.5,-150 1337.5,-156 1337.5,-156 1337.5,-168 1337.5,-168 1337.5,-174 1331.5,-180 1325.5,-180"/>
<text text-anchor="middle" x="1310.5" y="-158.3" font-family="Times,serif" font-size="14.00">BinOp</text>
</g>
<!-- ast.Call object at 0x781224c69b10&#45;&gt;ast.BinOp object at 0x781224c6a050 -->
<g id="edge37" class="edge">
<title>ast.Call object at 0x781224c69b10&#45;&gt;ast.BinOp object at 0x781224c6a050</title>
<path fill="none" stroke="black" d="M1283.4,-215.7C1287.5,-207.73 1292.45,-198.1 1296.99,-189.26"/>
<polygon fill="black" stroke="black" points="1300.24,-190.6 1301.7,-180.1 1294.02,-187.4 1300.24,-190.6"/>
</g>
<!-- ast.BinOp object at 0x781224c6ac50 -->
<g id="node33" class="node">
<title>ast.BinOp object at 0x781224c6ac50</title>
<path fill="#66cdaa" stroke="black" d="M1508.5,-180C1508.5,-180 1478.5,-180 1478.5,-180 1472.5,-180 1466.5,-174 1466.5,-168 1466.5,-168 1466.5,-156 1466.5,-156 1466.5,-150 1472.5,-144 1478.5,-144 1478.5,-144 1508.5,-144 1508.5,-144 1514.5,-144 1520.5,-150 1520.5,-156 1520.5,-156 1520.5,-168 1520.5,-168 1520.5,-174 1514.5,-180 1508.5,-180"/>
<text text-anchor="middle" x="1493.5" y="-158.3" font-family="Times,serif" font-size="14.00">BinOp</text>
</g>
<!-- ast.Call object at 0x781224c69b10&#45;&gt;ast.BinOp object at 0x781224c6ac50 -->
<g id="edge42" class="edge">
<title>ast.Call object at 0x781224c69b10&#45;&gt;ast.BinOp object at 0x781224c6ac50</title>
<path fill="none" stroke="black" d="M1301.79,-224.28C1340.83,-211.8 1412.73,-188.82 1456.52,-174.82"/>
<polygon fill="black" stroke="black" points="1457.75,-178.1 1466.21,-171.72 1455.62,-171.43 1457.75,-178.1"/>
</g>
<!-- ast.Name object at 0x781224c6b950&#45;&gt;ast.Load object at 0x78131643ba90 -->
<g id="edge36" class="edge">
<title>ast.Name object at 0x781224c6b950&#45;&gt;ast.Load object at 0x78131643ba90</title>
<path fill="none" stroke="black" d="M1238.52,-143.81C1237.93,-125.28 1235.19,-95.32 1224.5,-72 1219.85,-61.86 1212.69,-52.13 1205.44,-43.83"/>
<polygon fill="black" stroke="black" points="1207.89,-41.33 1198.54,-36.36 1202.75,-46.08 1207.89,-41.33"/>
</g>
<!-- ast.Name object at 0x781224c6a990 -->
<g id="node30" class="node">
<title>ast.Name object at 0x781224c6a990</title>
<path fill="#66cdaa" stroke="black" d="M1397.5,-108C1397.5,-108 1367.5,-108 1367.5,-108 1361.5,-108 1355.5,-102 1355.5,-96 1355.5,-96 1355.5,-84 1355.5,-84 1355.5,-78 1361.5,-72 1367.5,-72 1367.5,-72 1397.5,-72 1397.5,-72 1403.5,-72 1409.5,-78 1409.5,-84 1409.5,-84 1409.5,-96 1409.5,-96 1409.5,-102 1403.5,-108 1397.5,-108"/>
<text text-anchor="middle" x="1382.5" y="-86.3" font-family="Times,serif" font-size="14.00">Name</text>
</g>
<!-- ast.BinOp object at 0x781224c6a050&#45;&gt;ast.Name object at 0x781224c6a990 -->
<g id="edge38" class="edge">
<title>ast.BinOp object at 0x781224c6a050&#45;&gt;ast.Name object at 0x781224c6a990</title>
<path fill="none" stroke="black" d="M1328.3,-143.7C1337.1,-135.14 1347.88,-124.66 1357.5,-115.3"/>
<polygon fill="black" stroke="black" points="1360.18,-117.58 1364.91,-108.1 1355.3,-112.57 1360.18,-117.58"/>
</g>
<!-- ast.Add object at 0x78131643bf90 -->
<g id="node31" class="node">
<title>ast.Add object at 0x78131643bf90</title>
<path fill="#66cdaa" stroke="black" d="M911.5,-108C911.5,-108 881.5,-108 881.5,-108 875.5,-108 869.5,-102 869.5,-96 869.5,-96 869.5,-84 869.5,-84 869.5,-78 875.5,-72 881.5,-72 881.5,-72 911.5,-72 911.5,-72 917.5,-72 923.5,-78 923.5,-84 923.5,-84 923.5,-96 923.5,-96 923.5,-102 917.5,-108 911.5,-108"/>
<text text-anchor="middle" x="896.5" y="-86.3" font-family="Times,serif" font-size="14.00">Add</text>
</g>
<!-- ast.BinOp object at 0x781224c6a050&#45;&gt;ast.Add object at 0x78131643bf90 -->
<g id="edge40" class="edge">
<title>ast.BinOp object at 0x781224c6a050&#45;&gt;ast.Add object at 0x78131643bf90</title>
<path fill="none" stroke="black" d="M1283.32,-147.11C1280.39,-145.93 1277.42,-144.86 1274.5,-144 1160.11,-110.13 1126.59,-124.95 1008.5,-108 983.57,-104.42 955.56,-100.17 933.79,-96.81"/>
<polygon fill="black" stroke="black" points="934.06,-93.31 923.64,-95.24 932.99,-100.23 934.06,-93.31"/>
</g>
<!-- ast.Constant object at 0x781224c6abd0 -->
<g id="node32" class="node">
<title>ast.Constant object at 0x781224c6abd0</title>
<path fill="#66cdaa" stroke="black" d="M1325,-108C1325,-108 1284,-108 1284,-108 1278,-108 1272,-102 1272,-96 1272,-96 1272,-84 1272,-84 1272,-78 1278,-72 1284,-72 1284,-72 1325,-72 1325,-72 1331,-72 1337,-78 1337,-84 1337,-84 1337,-96 1337,-96 1337,-102 1331,-108 1325,-108"/>
<text text-anchor="middle" x="1304.5" y="-86.3" font-family="Times,serif" font-size="14.00">Constant</text>
</g>
<!-- ast.BinOp object at 0x781224c6a050&#45;&gt;ast.Constant object at 0x781224c6abd0 -->
<g id="edge41" class="edge">
<title>ast.BinOp object at 0x781224c6a050&#45;&gt;ast.Constant object at 0x781224c6abd0</title>
<path fill="none" stroke="black" d="M1309.02,-143.7C1308.36,-135.98 1307.56,-126.71 1306.82,-118.11"/>
<polygon fill="black" stroke="black" points="1310.31,-117.77 1305.97,-108.1 1303.33,-118.37 1310.31,-117.77"/>
</g>
<!-- ast.Name object at 0x781224c6a990&#45;&gt;ast.Load object at 0x78131643ba90 -->
<g id="edge39" class="edge">
<title>ast.Name object at 0x781224c6a990&#45;&gt;ast.Load object at 0x78131643ba90</title>
<path fill="none" stroke="black" d="M1355.15,-75.62C1352.25,-74.34 1349.33,-73.11 1346.5,-72 1302.75,-54.82 1250.98,-39.07 1216.8,-29.28"/>
<polygon fill="black" stroke="black" points="1217.36,-25.8 1206.79,-26.44 1215.45,-32.54 1217.36,-25.8"/>
</g>
<!-- ast.Name object at 0x781224c6a790 -->
<g id="node34" class="node">
<title>ast.Name object at 0x781224c6a790</title>
<path fill="#66cdaa" stroke="black" d="M1469.5,-108C1469.5,-108 1439.5,-108 1439.5,-108 1433.5,-108 1427.5,-102 1427.5,-96 1427.5,-96 1427.5,-84 1427.5,-84 1427.5,-78 1433.5,-72 1439.5,-72 1439.5,-72 1469.5,-72 1469.5,-72 1475.5,-72 1481.5,-78 1481.5,-84 1481.5,-84 1481.5,-96 1481.5,-96 1481.5,-102 1475.5,-108 1469.5,-108"/>
<text text-anchor="middle" x="1454.5" y="-86.3" font-family="Times,serif" font-size="14.00">Name</text>
</g>
<!-- ast.BinOp object at 0x781224c6ac50&#45;&gt;ast.Name object at 0x781224c6a790 -->
<g id="edge43" class="edge">
<title>ast.BinOp object at 0x781224c6ac50&#45;&gt;ast.Name object at 0x781224c6a790</title>
<path fill="none" stroke="black" d="M1483.86,-143.7C1479.37,-135.64 1473.94,-125.89 1468.98,-116.98"/>
<polygon fill="black" stroke="black" points="1471.95,-115.14 1464.03,-108.1 1465.84,-118.54 1471.95,-115.14"/>
</g>
<!-- ast.Sub object at 0x781316448050 -->
<g id="node35" class="node">
<title>ast.Sub object at 0x781316448050</title>
<path fill="#66cdaa" stroke="black" d="M1625.5,-108C1625.5,-108 1595.5,-108 1595.5,-108 1589.5,-108 1583.5,-102 1583.5,-96 1583.5,-96 1583.5,-84 1583.5,-84 1583.5,-78 1589.5,-72 1595.5,-72 1595.5,-72 1625.5,-72 1625.5,-72 1631.5,-72 1637.5,-78 1637.5,-84 1637.5,-84 1637.5,-96 1637.5,-96 1637.5,-102 1631.5,-108 1625.5,-108"/>
<text text-anchor="middle" x="1610.5" y="-86.3" font-family="Times,serif" font-size="14.00">Sub</text>
</g>
<!-- ast.BinOp object at 0x781224c6ac50&#45;&gt;ast.Sub object at 0x781316448050 -->
<g id="edge45" class="edge">
<title>ast.BinOp object at 0x781224c6ac50&#45;&gt;ast.Sub object at 0x781316448050</title>
<path fill="none" stroke="black" d="M1520.64,-144.76C1536.62,-135.2 1557.03,-122.99 1574.36,-112.62"/>
<polygon fill="black" stroke="black" points="1576.32,-115.53 1583.11,-107.39 1572.73,-109.52 1576.32,-115.53"/>
</g>
<!-- ast.Constant object at 0x781224c69e90 -->
<g id="node36" class="node">
<title>ast.Constant object at 0x781224c69e90</title>
<path fill="#66cdaa" stroke="black" d="M1553,-108C1553,-108 1512,-108 1512,-108 1506,-108 1500,-102 1500,-96 1500,-96 1500,-84 1500,-84 1500,-78 1506,-72 1512,-72 1512,-72 1553,-72 1553,-72 1559,-72 1565,-78 1565,-84 1565,-84 1565,-96 1565,-96 1565,-102 1559,-108 1553,-108"/>
<text text-anchor="middle" x="1532.5" y="-86.3" font-family="Times,serif" font-size="14.00">Constant</text>
</g>
<!-- ast.BinOp object at 0x781224c6ac50&#45;&gt;ast.Constant object at 0x781224c69e90 -->
<g id="edge46" class="edge">
<title>ast.BinOp object at 0x781224c6ac50&#45;&gt;ast.Constant object at 0x781224c69e90</title>
<path fill="none" stroke="black" d="M1503.14,-143.7C1507.63,-135.64 1513.06,-125.89 1518.02,-116.98"/>
<polygon fill="black" stroke="black" points="1521.16,-118.54 1522.97,-108.1 1515.05,-115.14 1521.16,-118.54"/>
</g>
<!-- ast.Name object at 0x781224c6a790&#45;&gt;ast.Load object at 0x78131643ba90 -->
<g id="edge44" class="edge">
<title>ast.Name object at 0x781224c6a790&#45;&gt;ast.Load object at 0x78131643ba90</title>
<path fill="none" stroke="black" d="M1427.24,-75.36C1424.33,-74.13 1421.38,-72.98 1418.5,-72 1348.96,-48.21 1264.32,-32.37 1216.71,-24.6"/>
<polygon fill="black" stroke="black" points="1216.99,-21.11 1206.56,-22.98 1215.88,-28.02 1216.99,-21.11"/>
</g>
<!-- ast.Constant object at 0x781224c6ab50 -->
<g id="node38" class="node">
<title>ast.Constant object at 0x781224c6ab50</title>
<path fill="#66cdaa" stroke="black" d="M503,-468C503,-468 462,-468 462,-468 456,-468 450,-462 450,-456 450,-456 450,-444 450,-444 450,-438 456,-432 462,-432 462,-432 503,-432 503,-432 509,-432 515,-438 515,-444 515,-444 515,-456 515,-456 515,-462 509,-468 503,-468"/>
<text text-anchor="middle" x="482.5" y="-446.3" font-family="Times,serif" font-size="14.00">Constant</text>
</g>
<!-- ast.Return object at 0x781224c6acd0&#45;&gt;ast.Constant object at 0x781224c6ab50 -->
<g id="edge48" class="edge">
<title>ast.Return object at 0x781224c6acd0&#45;&gt;ast.Constant object at 0x781224c6ab50</title>
<path fill="none" stroke="black" d="M514.12,-503.7C509.24,-495.56 503.31,-485.69 497.92,-476.7"/>
<polygon fill="black" stroke="black" points="500.91,-474.88 492.76,-468.1 494.91,-478.48 500.91,-474.88"/>
</g>
<!-- ast.Name object at 0x781224c69f10 -->
<g id="node40" class="node">
<title>ast.Name object at 0x781224c69f10</title>
<path fill="#66cdaa" stroke="black" d="M575.5,-468C575.5,-468 545.5,-468 545.5,-468 539.5,-468 533.5,-462 533.5,-456 533.5,-456 533.5,-444 533.5,-444 533.5,-438 539.5,-432 545.5,-432 545.5,-432 575.5,-432 575.5,-432 581.5,-432 587.5,-438 587.5,-444 587.5,-444 587.5,-456 587.5,-456 587.5,-462 581.5,-468 575.5,-468"/>
<text text-anchor="middle" x="560.5" y="-446.3" font-family="Times,serif" font-size="14.00">Name</text>
</g>
<!-- ast.Assign object at 0x781224c6b110&#45;&gt;ast.Name object at 0x781224c69f10 -->
<g id="edge50" class="edge">
<title>ast.Assign object at 0x781224c6b110&#45;&gt;ast.Name object at 0x781224c69f10</title>
<path fill="none" stroke="black" d="M619.22,-503.7C609.58,-495.05 597.77,-484.45 587.27,-475.03"/>
<polygon fill="black" stroke="black" points="589.34,-472.18 579.56,-468.1 584.66,-477.39 589.34,-472.18"/>
</g>
<!-- ast.Constant object at 0x781224dc0850 -->
<g id="node41" class="node">
<title>ast.Constant object at 0x781224dc0850</title>
<path fill="#66cdaa" stroke="black" d="M659,-468C659,-468 618,-468 618,-468 612,-468 606,-462 606,-456 606,-456 606,-444 606,-444 606,-438 612,-432 618,-432 618,-432 659,-432 659,-432 665,-432 671,-438 671,-444 671,-444 671,-456 671,-456 671,-462 665,-468 659,-468"/>
<text text-anchor="middle" x="638.5" y="-446.3" font-family="Times,serif" font-size="14.00">Constant</text>
</g>
<!-- ast.Assign object at 0x781224c6b110&#45;&gt;ast.Constant object at 0x781224dc0850 -->
<g id="edge52" class="edge">
<title>ast.Assign object at 0x781224c6b110&#45;&gt;ast.Constant object at 0x781224dc0850</title>
<path fill="none" stroke="black" d="M638.5,-503.7C638.5,-495.98 638.5,-486.71 638.5,-478.11"/>
<polygon fill="black" stroke="black" points="642,-478.1 638.5,-468.1 635,-478.1 642,-478.1"/>
</g>
<!-- ast.Name object at 0x781224c69f10&#45;&gt;ast.Store object at 0x78131643bb10 -->
<g id="edge51" class="edge">
<title>ast.Name object at 0x781224c69f10&#45;&gt;ast.Store object at 0x78131643bb10</title>
<path fill="none" stroke="black" d="M533.35,-434.68C495.78,-412.67 432.5,-366.74 432.5,-307 432.5,-307 432.5,-307 432.5,-233 432.5,-192.9 425.35,-146.92 420.06,-118.42"/>
<polygon fill="black" stroke="black" points="423.46,-117.56 418.14,-108.4 416.58,-118.88 423.46,-117.56"/>
</g>
<!-- ast.Name object at 0x781224dc0710 -->
<g id="node43" class="node">
<title>ast.Name object at 0x781224dc0710</title>
<path fill="#66cdaa" stroke="black" d="M534.5,-252C534.5,-252 504.5,-252 504.5,-252 498.5,-252 492.5,-246 492.5,-240 492.5,-240 492.5,-228 492.5,-228 492.5,-222 498.5,-216 504.5,-216 504.5,-216 534.5,-216 534.5,-216 540.5,-216 546.5,-222 546.5,-228 546.5,-228 546.5,-240 546.5,-240 546.5,-246 540.5,-252 534.5,-252"/>
<text text-anchor="middle" x="519.5" y="-230.3" font-family="Times,serif" font-size="14.00">Name</text>
</g>
<!-- ast.For object at 0x781224dc1690&#45;&gt;ast.Name object at 0x781224dc0710 -->
<g id="edge54" class="edge">
<title>ast.For object at 0x781224dc1690&#45;&gt;ast.Name object at 0x781224dc0710</title>
<path fill="none" stroke="black" d="M677.79,-359.87C645.76,-334.6 585.74,-287.25 549.52,-258.68"/>
<polygon fill="black" stroke="black" points="551.31,-255.64 541.29,-252.19 546.97,-261.13 551.31,-255.64"/>
</g>
<!-- ast.Call object at 0x781224dc0610 -->
<g id="node44" class="node">
<title>ast.Call object at 0x781224dc0610</title>
<path fill="#66cdaa" stroke="black" d="M896.5,-252C896.5,-252 866.5,-252 866.5,-252 860.5,-252 854.5,-246 854.5,-240 854.5,-240 854.5,-228 854.5,-228 854.5,-222 860.5,-216 866.5,-216 866.5,-216 896.5,-216 896.5,-216 902.5,-216 908.5,-222 908.5,-228 908.5,-228 908.5,-240 908.5,-240 908.5,-246 902.5,-252 896.5,-252"/>
<text text-anchor="middle" x="881.5" y="-230.3" font-family="Times,serif" font-size="14.00">Call</text>
</g>
<!-- ast.For object at 0x781224dc1690&#45;&gt;ast.Call object at 0x781224dc0610 -->
<g id="edge56" class="edge">
<title>ast.For object at 0x781224dc1690&#45;&gt;ast.Call object at 0x781224dc0610</title>
<path fill="none" stroke="black" d="M721.45,-359.87C753.84,-334.6 814.53,-287.25 851.15,-258.68"/>
<polygon fill="black" stroke="black" points="853.74,-261.1 859.47,-252.19 849.43,-255.58 853.74,-261.1"/>
</g>
<!-- ast.If object at 0x781224daf390 -->
<g id="node50" class="node">
<title>ast.If object at 0x781224daf390</title>
<path fill="#66cdaa" stroke="black" d="M714.5,-324C714.5,-324 684.5,-324 684.5,-324 678.5,-324 672.5,-318 672.5,-312 672.5,-312 672.5,-300 672.5,-300 672.5,-294 678.5,-288 684.5,-288 684.5,-288 714.5,-288 714.5,-288 720.5,-288 726.5,-294 726.5,-300 726.5,-300 726.5,-312 726.5,-312 726.5,-318 720.5,-324 714.5,-324"/>
<text text-anchor="middle" x="699.5" y="-302.3" font-family="Times,serif" font-size="14.00">If</text>
</g>
<!-- ast.For object at 0x781224dc1690&#45;&gt;ast.If object at 0x781224daf390 -->
<g id="edge66" class="edge">
<title>ast.For object at 0x781224dc1690&#45;&gt;ast.If object at 0x781224daf390</title>
<path fill="none" stroke="black" d="M699.5,-359.7C699.5,-351.98 699.5,-342.71 699.5,-334.11"/>
<polygon fill="black" stroke="black" points="703,-334.1 699.5,-324.1 696,-334.1 703,-334.1"/>
</g>
<!-- ast.Name object at 0x781224dc0710&#45;&gt;ast.Store object at 0x78131643bb10 -->
<g id="edge55" class="edge">
<title>ast.Name object at 0x781224dc0710&#45;&gt;ast.Store object at 0x78131643bb10</title>
<path fill="none" stroke="black" d="M506.83,-215.87C488.55,-191.14 454.61,-145.24 433.36,-116.51"/>
<polygon fill="black" stroke="black" points="435.97,-114.15 427.21,-108.19 430.34,-118.31 435.97,-114.15"/>
</g>
<!-- ast.Name object at 0x781224dc3910 -->
<g id="node45" class="node">
<title>ast.Name object at 0x781224dc3910</title>
<path fill="#66cdaa" stroke="black" d="M940.5,-180C940.5,-180 910.5,-180 910.5,-180 904.5,-180 898.5,-174 898.5,-168 898.5,-168 898.5,-156 898.5,-156 898.5,-150 904.5,-144 910.5,-144 910.5,-144 940.5,-144 940.5,-144 946.5,-144 952.5,-150 952.5,-156 952.5,-156 952.5,-168 952.5,-168 952.5,-174 946.5,-180 940.5,-180"/>
<text text-anchor="middle" x="925.5" y="-158.3" font-family="Times,serif" font-size="14.00">Name</text>
</g>
<!-- ast.Call object at 0x781224dc0610&#45;&gt;ast.Name object at 0x781224dc3910 -->
<g id="edge57" class="edge">
<title>ast.Call object at 0x781224dc0610&#45;&gt;ast.Name object at 0x781224dc3910</title>
<path fill="none" stroke="black" d="M892.38,-215.7C897.49,-207.56 903.7,-197.69 909.34,-188.7"/>
<polygon fill="black" stroke="black" points="912.39,-190.43 914.75,-180.1 906.46,-186.71 912.39,-190.43"/>
</g>
<!-- ast.BinOp object at 0x781224dc2dd0 -->
<g id="node46" class="node">
<title>ast.BinOp object at 0x781224dc2dd0</title>
<path fill="#66cdaa" stroke="black" d="M830.5,-180C830.5,-180 800.5,-180 800.5,-180 794.5,-180 788.5,-174 788.5,-168 788.5,-168 788.5,-156 788.5,-156 788.5,-150 794.5,-144 800.5,-144 800.5,-144 830.5,-144 830.5,-144 836.5,-144 842.5,-150 842.5,-156 842.5,-156 842.5,-168 842.5,-168 842.5,-174 836.5,-180 830.5,-180"/>
<text text-anchor="middle" x="815.5" y="-158.3" font-family="Times,serif" font-size="14.00">BinOp</text>
</g>
<!-- ast.Call object at 0x781224dc0610&#45;&gt;ast.BinOp object at 0x781224dc2dd0 -->
<g id="edge59" class="edge">
<title>ast.Call object at 0x781224dc0610&#45;&gt;ast.BinOp object at 0x781224dc2dd0</title>
<path fill="none" stroke="black" d="M865.19,-215.7C857.19,-207.22 847.43,-196.86 838.68,-187.58"/>
<polygon fill="black" stroke="black" points="841.03,-184.98 831.63,-180.1 835.94,-189.78 841.03,-184.98"/>
</g>
<!-- ast.Name object at 0x781224dacfd0 -->
<g id="node49" class="node">
<title>ast.Name object at 0x781224dacfd0</title>
<path fill="#66cdaa" stroke="black" d="M1012.5,-180C1012.5,-180 982.5,-180 982.5,-180 976.5,-180 970.5,-174 970.5,-168 970.5,-168 970.5,-156 970.5,-156 970.5,-150 976.5,-144 982.5,-144 982.5,-144 1012.5,-144 1012.5,-144 1018.5,-144 1024.5,-150 1024.5,-156 1024.5,-156 1024.5,-168 1024.5,-168 1024.5,-174 1018.5,-180 1012.5,-180"/>
<text text-anchor="middle" x="997.5" y="-158.3" font-family="Times,serif" font-size="14.00">Name</text>
</g>
<!-- ast.Call object at 0x781224dc0610&#45;&gt;ast.Name object at 0x781224dacfd0 -->
<g id="edge64" class="edge">
<title>ast.Call object at 0x781224dc0610&#45;&gt;ast.Name object at 0x781224dacfd0</title>
<path fill="none" stroke="black" d="M908.7,-216.59C924.55,-207.02 944.73,-194.85 961.84,-184.52"/>
<polygon fill="black" stroke="black" points="963.72,-187.47 970.47,-179.31 960.1,-181.48 963.72,-187.47"/>
</g>
<!-- ast.Name object at 0x781224dc3910&#45;&gt;ast.Load object at 0x78131643ba90 -->
<g id="edge58" class="edge">
<title>ast.Name object at 0x781224dc3910&#45;&gt;ast.Load object at 0x78131643ba90</title>
<path fill="none" stroke="black" d="M933.34,-143.89C943.46,-123.69 962.98,-90.53 989.5,-72 1035.86,-39.62 1101.46,-26.96 1142.2,-22.05"/>
<polygon fill="black" stroke="black" points="1142.69,-25.52 1152.24,-20.94 1141.92,-18.56 1142.69,-25.52"/>
</g>
<!-- ast.BinOp object at 0x781224dc2dd0&#45;&gt;ast.Add object at 0x78131643bf90 -->
<g id="edge62" class="edge">
<title>ast.BinOp object at 0x781224dc2dd0&#45;&gt;ast.Add object at 0x78131643bf90</title>
<path fill="none" stroke="black" d="M835.52,-143.7C845.63,-134.97 858.04,-124.24 869.02,-114.75"/>
<polygon fill="black" stroke="black" points="871.43,-117.29 876.71,-108.1 866.85,-111.99 871.43,-117.29"/>
</g>
<!-- ast.Name object at 0x781224dc2a50 -->
<g id="node47" class="node">
<title>ast.Name object at 0x781224dc2a50</title>
<path fill="#66cdaa" stroke="black" d="M839.5,-108C839.5,-108 809.5,-108 809.5,-108 803.5,-108 797.5,-102 797.5,-96 797.5,-96 797.5,-84 797.5,-84 797.5,-78 803.5,-72 809.5,-72 809.5,-72 839.5,-72 839.5,-72 845.5,-72 851.5,-78 851.5,-84 851.5,-84 851.5,-96 851.5,-96 851.5,-102 845.5,-108 839.5,-108"/>
<text text-anchor="middle" x="824.5" y="-86.3" font-family="Times,serif" font-size="14.00">Name</text>
</g>
<!-- ast.BinOp object at 0x781224dc2dd0&#45;&gt;ast.Name object at 0x781224dc2a50 -->
<g id="edge60" class="edge">
<title>ast.BinOp object at 0x781224dc2dd0&#45;&gt;ast.Name object at 0x781224dc2a50</title>
<path fill="none" stroke="black" d="M817.72,-143.7C818.72,-135.98 819.91,-126.71 821.01,-118.11"/>
<polygon fill="black" stroke="black" points="824.5,-118.47 822.3,-108.1 817.55,-117.58 824.5,-118.47"/>
</g>
<!-- ast.Constant object at 0x781224dc0e90 -->
<g id="node48" class="node">
<title>ast.Constant object at 0x781224dc0e90</title>
<path fill="#66cdaa" stroke="black" d="M767,-108C767,-108 726,-108 726,-108 720,-108 714,-102 714,-96 714,-96 714,-84 714,-84 714,-78 720,-72 726,-72 726,-72 767,-72 767,-72 773,-72 779,-78 779,-84 779,-84 779,-96 779,-96 779,-102 773,-108 767,-108"/>
<text text-anchor="middle" x="746.5" y="-86.3" font-family="Times,serif" font-size="14.00">Constant</text>
</g>
<!-- ast.BinOp object at 0x781224dc2dd0&#45;&gt;ast.Constant object at 0x781224dc0e90 -->
<g id="edge63" class="edge">
<title>ast.BinOp object at 0x781224dc2dd0&#45;&gt;ast.Constant object at 0x781224dc0e90</title>
<path fill="none" stroke="black" d="M798.44,-143.7C790,-135.14 779.68,-124.66 770.46,-115.3"/>
<polygon fill="black" stroke="black" points="772.87,-112.77 763.36,-108.1 767.89,-117.68 772.87,-112.77"/>
</g>
<!-- ast.Name object at 0x781224dc2a50&#45;&gt;ast.Load object at 0x78131643ba90 -->
<g id="edge61" class="edge">
<title>ast.Name object at 0x781224dc2a50&#45;&gt;ast.Load object at 0x78131643ba90</title>
<path fill="none" stroke="black" d="M851.7,-75.2C854.63,-74 857.6,-72.91 860.5,-72 959.58,-41.04 1081.95,-27.15 1142.27,-21.83"/>
<polygon fill="black" stroke="black" points="1142.79,-25.3 1152.45,-20.96 1142.19,-18.32 1142.79,-25.3"/>
</g>
<!-- ast.Name object at 0x781224dacfd0&#45;&gt;ast.Load object at 0x78131643ba90 -->
<g id="edge65" class="edge">
<title>ast.Name object at 0x781224dacfd0&#45;&gt;ast.Load object at 0x78131643ba90</title>
<path fill="none" stroke="black" d="M994.56,-143.79C992.22,-124.12 991.72,-92.06 1008.5,-72 1041.36,-32.72 1102.76,-22.05 1142.35,-19.43"/>
<polygon fill="black" stroke="black" points="1142.6,-22.92 1152.41,-18.91 1142.24,-15.93 1142.6,-22.92"/>
</g>
<!-- ast.Compare object at 0x781224daf610 -->
<g id="node51" class="node">
<title>ast.Compare object at 0x781224daf610</title>
<path fill="#66cdaa" stroke="black" d="M736,-180C736,-180 693,-180 693,-180 687,-180 681,-174 681,-168 681,-168 681,-156 681,-156 681,-150 687,-144 693,-144 693,-144 736,-144 736,-144 742,-144 748,-150 748,-156 748,-156 748,-168 748,-168 748,-174 742,-180 736,-180"/>
<text text-anchor="middle" x="714.5" y="-158.3" font-family="Times,serif" font-size="14.00">Compare</text>
</g>
<!-- ast.If object at 0x781224daf390&#45;&gt;ast.Compare object at 0x781224daf610 -->
<g id="edge67" class="edge">
<title>ast.If object at 0x781224daf390&#45;&gt;ast.Compare object at 0x781224daf610</title>
<path fill="none" stroke="black" d="M717.23,-287.6C725.74,-278 735.03,-265.34 739.5,-252 746.47,-231.2 738.87,-207.24 730.27,-189.42"/>
<polygon fill="black" stroke="black" points="733.2,-187.47 725.48,-180.21 726.99,-190.7 733.2,-187.47"/>
</g>
<!-- ast.AugAssign object at 0x781224dad490 -->
<g id="node55" class="node">
<title>ast.AugAssign object at 0x781224dad490</title>
<path fill="#66cdaa" stroke="black" d="M646,-252C646,-252 593,-252 593,-252 587,-252 581,-246 581,-240 581,-240 581,-228 581,-228 581,-222 587,-216 593,-216 593,-216 646,-216 646,-216 652,-216 658,-222 658,-228 658,-228 658,-240 658,-240 658,-246 652,-252 646,-252"/>
<text text-anchor="middle" x="619.5" y="-230.3" font-family="Times,serif" font-size="14.00">AugAssign</text>
</g>
<!-- ast.If object at 0x781224daf390&#45;&gt;ast.AugAssign object at 0x781224dad490 -->
<g id="edge73" class="edge">
<title>ast.If object at 0x781224daf390&#45;&gt;ast.AugAssign object at 0x781224dad490</title>
<path fill="none" stroke="black" d="M679.72,-287.7C669.75,-278.97 657.49,-268.24 646.64,-258.75"/>
<polygon fill="black" stroke="black" points="648.88,-256.06 639.05,-252.1 644.27,-261.32 648.88,-256.06"/>
</g>
<!-- ast.Name object at 0x781224daf490 -->
<g id="node52" class="node">
<title>ast.Name object at 0x781224daf490</title>
<path fill="#66cdaa" stroke="black" d="M611.5,-108C611.5,-108 581.5,-108 581.5,-108 575.5,-108 569.5,-102 569.5,-96 569.5,-96 569.5,-84 569.5,-84 569.5,-78 575.5,-72 581.5,-72 581.5,-72 611.5,-72 611.5,-72 617.5,-72 623.5,-78 623.5,-84 623.5,-84 623.5,-96 623.5,-96 623.5,-102 617.5,-108 611.5,-108"/>
<text text-anchor="middle" x="596.5" y="-86.3" font-family="Times,serif" font-size="14.00">Name</text>
</g>
<!-- ast.Compare object at 0x781224daf610&#45;&gt;ast.Name object at 0x781224daf490 -->
<g id="edge68" class="edge">
<title>ast.Compare object at 0x781224daf610&#45;&gt;ast.Name object at 0x781224daf490</title>
<path fill="none" stroke="black" d="M685.63,-143.88C669.74,-134.45 649.87,-122.66 632.92,-112.61"/>
<polygon fill="black" stroke="black" points="634.24,-109.32 623.85,-107.23 630.67,-115.34 634.24,-109.32"/>
</g>
<!-- ast.NotIn object at 0x781316448f50 -->
<g id="node53" class="node">
<title>ast.NotIn object at 0x781316448f50</title>
<path fill="#66cdaa" stroke="black" d="M539.5,-108C539.5,-108 509.5,-108 509.5,-108 503.5,-108 497.5,-102 497.5,-96 497.5,-96 497.5,-84 497.5,-84 497.5,-78 503.5,-72 509.5,-72 509.5,-72 539.5,-72 539.5,-72 545.5,-72 551.5,-78 551.5,-84 551.5,-84 551.5,-96 551.5,-96 551.5,-102 545.5,-108 539.5,-108"/>
<text text-anchor="middle" x="524.5" y="-86.3" font-family="Times,serif" font-size="14.00">NotIn</text>
</g>
<!-- ast.Compare object at 0x781224daf610&#45;&gt;ast.NotIn object at 0x781316448f50 -->
<g id="edge70" class="edge">
<title>ast.Compare object at 0x781224daf610&#45;&gt;ast.NotIn object at 0x781316448f50</title>
<path fill="none" stroke="black" d="M680.78,-147.44C677.65,-146.25 674.52,-145.09 671.5,-144 625.55,-127.49 610.47,-127.1 561.43,-108.13"/>
<polygon fill="black" stroke="black" points="562.45,-104.77 551.86,-104.36 559.88,-111.28 562.45,-104.77"/>
</g>
<!-- ast.Name object at 0x781224daead0 -->
<g id="node54" class="node">
<title>ast.Name object at 0x781224daead0</title>
<path fill="#66cdaa" stroke="black" d="M683.5,-108C683.5,-108 653.5,-108 653.5,-108 647.5,-108 641.5,-102 641.5,-96 641.5,-96 641.5,-84 641.5,-84 641.5,-78 647.5,-72 653.5,-72 653.5,-72 683.5,-72 683.5,-72 689.5,-72 695.5,-78 695.5,-84 695.5,-84 695.5,-96 695.5,-96 695.5,-102 689.5,-108 683.5,-108"/>
<text text-anchor="middle" x="668.5" y="-86.3" font-family="Times,serif" font-size="14.00">Name</text>
</g>
<!-- ast.Compare object at 0x781224daf610&#45;&gt;ast.Name object at 0x781224daead0 -->
<g id="edge71" class="edge">
<title>ast.Compare object at 0x781224daf610&#45;&gt;ast.Name object at 0x781224daead0</title>
<path fill="none" stroke="black" d="M703.13,-143.7C697.78,-135.56 691.3,-125.69 685.39,-116.7"/>
<polygon fill="black" stroke="black" points="688.16,-114.54 679.74,-108.1 682.31,-118.38 688.16,-114.54"/>
</g>
<!-- ast.Name object at 0x781224daf490&#45;&gt;ast.Load object at 0x78131643ba90 -->
<g id="edge69" class="edge">
<title>ast.Name object at 0x781224daf490&#45;&gt;ast.Load object at 0x78131643ba90</title>
<path fill="none" stroke="black" d="M623.64,-75C626.58,-73.84 629.57,-72.81 632.5,-72 818.78,-20.67 1052.65,-17.38 1142.24,-18.25"/>
<polygon fill="black" stroke="black" points="1142.4,-21.75 1152.44,-18.38 1142.48,-14.75 1142.4,-21.75"/>
</g>
<!-- ast.Name object at 0x781224daead0&#45;&gt;ast.Load object at 0x78131643ba90 -->
<g id="edge72" class="edge">
<title>ast.Name object at 0x781224daead0&#45;&gt;ast.Load object at 0x78131643ba90</title>
<path fill="none" stroke="black" d="M695.61,-75.37C698.89,-74.07 702.23,-72.91 705.5,-72 863.74,-28.03 1061.32,-20.38 1142.28,-19.16"/>
<polygon fill="black" stroke="black" points="1142.51,-22.66 1152.47,-19.04 1142.43,-15.66 1142.51,-22.66"/>
</g>
<!-- ast.AugAssign object at 0x781224dad490&#45;&gt;ast.Add object at 0x78131643bf90 -->
<g id="edge76" class="edge">
<title>ast.AugAssign object at 0x781224dad490&#45;&gt;ast.Add object at 0x78131643bf90</title>
<path fill="none" stroke="black" d="M658.12,-218.77C661.27,-217.78 664.43,-216.84 667.5,-216 747.88,-194.03 785.06,-230.29 851.5,-180 871.6,-164.78 883.4,-138.08 889.83,-117.88"/>
<polygon fill="black" stroke="black" points="893.27,-118.59 892.72,-108.01 886.55,-116.62 893.27,-118.59"/>
</g>
<!-- ast.Name object at 0x781224dafd90 -->
<g id="node56" class="node">
<title>ast.Name object at 0x781224dafd90</title>
<path fill="#66cdaa" stroke="black" d="M540.5,-180C540.5,-180 510.5,-180 510.5,-180 504.5,-180 498.5,-174 498.5,-168 498.5,-168 498.5,-156 498.5,-156 498.5,-150 504.5,-144 510.5,-144 510.5,-144 540.5,-144 540.5,-144 546.5,-144 552.5,-150 552.5,-156 552.5,-156 552.5,-168 552.5,-168 552.5,-174 546.5,-180 540.5,-180"/>
<text text-anchor="middle" x="525.5" y="-158.3" font-family="Times,serif" font-size="14.00">Name</text>
</g>
<!-- ast.AugAssign object at 0x781224dad490&#45;&gt;ast.Name object at 0x781224dafd90 -->
<g id="edge74" class="edge">
<title>ast.AugAssign object at 0x781224dad490&#45;&gt;ast.Name object at 0x781224dafd90</title>
<path fill="none" stroke="black" d="M596.26,-215.7C584.31,-206.8 569.58,-195.82 556.65,-186.2"/>
<polygon fill="black" stroke="black" points="558.58,-183.27 548.47,-180.1 554.4,-188.88 558.58,-183.27"/>
</g>
<!-- ast.Name object at 0x781224daf750 -->
<g id="node57" class="node">
<title>ast.Name object at 0x781224daf750</title>
<path fill="#66cdaa" stroke="black" d="M650.5,-180C650.5,-180 620.5,-180 620.5,-180 614.5,-180 608.5,-174 608.5,-168 608.5,-168 608.5,-156 608.5,-156 608.5,-150 614.5,-144 620.5,-144 620.5,-144 650.5,-144 650.5,-144 656.5,-144 662.5,-150 662.5,-156 662.5,-156 662.5,-168 662.5,-168 662.5,-174 656.5,-180 650.5,-180"/>
<text text-anchor="middle" x="635.5" y="-158.3" font-family="Times,serif" font-size="14.00">Name</text>
</g>
<!-- ast.AugAssign object at 0x781224dad490&#45;&gt;ast.Name object at 0x781224daf750 -->
<g id="edge77" class="edge">
<title>ast.AugAssign object at 0x781224dad490&#45;&gt;ast.Name object at 0x781224daf750</title>
<path fill="none" stroke="black" d="M623.46,-215.7C625.22,-207.98 627.34,-198.71 629.3,-190.11"/>
<polygon fill="black" stroke="black" points="632.77,-190.63 631.59,-180.1 625.95,-189.07 632.77,-190.63"/>
</g>
<!-- ast.Name object at 0x781224dafd90&#45;&gt;ast.Store object at 0x78131643bb10 -->
<g id="edge75" class="edge">
<title>ast.Name object at 0x781224dafd90&#45;&gt;ast.Store object at 0x78131643bb10</title>
<path fill="none" stroke="black" d="M498.35,-143.88C483.97,-134.81 466.12,-123.55 450.59,-113.76"/>
<polygon fill="black" stroke="black" points="452.08,-110.56 441.76,-108.19 448.35,-116.48 452.08,-110.56"/>
</g>
<!-- ast.Name object at 0x781224daf750&#45;&gt;ast.Load object at 0x78131643ba90 -->
<g id="edge78" class="edge">
<title>ast.Name object at 0x781224daf750&#45;&gt;ast.Load object at 0x78131643ba90</title>
<path fill="none" stroke="black" d="M608.25,-149.41C603.68,-147.55 598.97,-145.68 594.5,-144 547.94,-126.46 517.48,-148.44 488.5,-108 479.18,-94.99 477.63,-83.74 488.5,-72 533.17,-23.77 1005.21,-19.26 1142.34,-18.97"/>
<polygon fill="black" stroke="black" points="1142.37,-22.47 1152.37,-18.96 1142.36,-15.47 1142.37,-22.47"/>
</g>
<!-- ast.Compare object at 0x781224dafd10 -->
<g id="node59" class="node">
<title>ast.Compare object at 0x781224dafd10</title>
<path fill="#66cdaa" stroke="black" d="M1986,-468C1986,-468 1943,-468 1943,-468 1937,-468 1931,-462 1931,-456 1931,-456 1931,-444 1931,-444 1931,-438 1937,-432 1943,-432 1943,-432 1986,-432 1986,-432 1992,-432 1998,-438 1998,-444 1998,-444 1998,-456 1998,-456 1998,-462 1992,-468 1986,-468"/>
<text text-anchor="middle" x="1964.5" y="-446.3" font-family="Times,serif" font-size="14.00">Compare</text>
</g>
<!-- ast.If object at 0x781224daf850&#45;&gt;ast.Compare object at 0x781224dafd10 -->
<g id="edge80" class="edge">
<title>ast.If object at 0x781224daf850&#45;&gt;ast.Compare object at 0x781224dafd10</title>
<path fill="none" stroke="black" d="M1934.39,-503.7C1938.99,-495.64 1944.56,-485.89 1949.65,-476.98"/>
<polygon fill="black" stroke="black" points="1952.8,-478.52 1954.73,-468.1 1946.73,-475.05 1952.8,-478.52"/>
</g>
<!-- ast.Return object at 0x781224c51b10 -->
<g id="node66" class="node">
<title>ast.Return object at 0x781224c51b10</title>
<path fill="#66cdaa" stroke="black" d="M2097.5,-468C2097.5,-468 2067.5,-468 2067.5,-468 2061.5,-468 2055.5,-462 2055.5,-456 2055.5,-456 2055.5,-444 2055.5,-444 2055.5,-438 2061.5,-432 2067.5,-432 2067.5,-432 2097.5,-432 2097.5,-432 2103.5,-432 2109.5,-438 2109.5,-444 2109.5,-444 2109.5,-456 2109.5,-456 2109.5,-462 2103.5,-468 2097.5,-468"/>
<text text-anchor="middle" x="2082.5" y="-446.3" font-family="Times,serif" font-size="14.00">Return</text>
</g>
<!-- ast.If object at 0x781224daf850&#45;&gt;ast.Return object at 0x781224c51b10 -->
<g id="edge88" class="edge">
<title>ast.If object at 0x781224daf850&#45;&gt;ast.Return object at 0x781224c51b10</title>
<path fill="none" stroke="black" d="M1951.66,-508.97C1977.74,-497.41 2017.32,-479.88 2046.11,-467.12"/>
<polygon fill="black" stroke="black" points="2047.7,-470.24 2055.43,-462.99 2044.87,-463.84 2047.7,-470.24"/>
</g>
<!-- ast.Return object at 0x781224c53710 -->
<g id="node75" class="node">
<title>ast.Return object at 0x781224c53710</title>
<path fill="#66cdaa" stroke="black" d="M1887.5,-468C1887.5,-468 1857.5,-468 1857.5,-468 1851.5,-468 1845.5,-462 1845.5,-456 1845.5,-456 1845.5,-444 1845.5,-444 1845.5,-438 1851.5,-432 1857.5,-432 1857.5,-432 1887.5,-432 1887.5,-432 1893.5,-432 1899.5,-438 1899.5,-444 1899.5,-444 1899.5,-456 1899.5,-456 1899.5,-462 1893.5,-468 1887.5,-468"/>
<text text-anchor="middle" x="1872.5" y="-446.3" font-family="Times,serif" font-size="14.00">Return</text>
</g>
<!-- ast.If object at 0x781224daf850&#45;&gt;ast.Return object at 0x781224c53710 -->
<g id="edge101" class="edge">
<title>ast.If object at 0x781224daf850&#45;&gt;ast.Return object at 0x781224c53710</title>
<path fill="none" stroke="black" d="M1911.65,-503.7C1905.47,-495.39 1897.96,-485.28 1891.18,-476.14"/>
<polygon fill="black" stroke="black" points="1893.98,-474.04 1885.21,-468.1 1888.36,-478.22 1893.98,-474.04"/>
</g>
<!-- ast.BinOp object at 0x781224daf250 -->
<g id="node60" class="node">
<title>ast.BinOp object at 0x781224daf250</title>
<path fill="#66cdaa" stroke="black" d="M1920.5,-396C1920.5,-396 1890.5,-396 1890.5,-396 1884.5,-396 1878.5,-390 1878.5,-384 1878.5,-384 1878.5,-372 1878.5,-372 1878.5,-366 1884.5,-360 1890.5,-360 1890.5,-360 1920.5,-360 1920.5,-360 1926.5,-360 1932.5,-366 1932.5,-372 1932.5,-372 1932.5,-384 1932.5,-384 1932.5,-390 1926.5,-396 1920.5,-396"/>
<text text-anchor="middle" x="1905.5" y="-374.3" font-family="Times,serif" font-size="14.00">BinOp</text>
</g>
<!-- ast.Compare object at 0x781224dafd10&#45;&gt;ast.BinOp object at 0x781224daf250 -->
<g id="edge81" class="edge">
<title>ast.Compare object at 0x781224dafd10&#45;&gt;ast.BinOp object at 0x781224daf250</title>
<path fill="none" stroke="black" d="M1949.92,-431.7C1942.84,-423.3 1934.22,-413.07 1926.45,-403.86"/>
<polygon fill="black" stroke="black" points="1929.04,-401.49 1919.92,-396.1 1923.69,-406.01 1929.04,-401.49"/>
</g>
<!-- ast.Eq object at 0x781316448ad0 -->
<g id="node64" class="node">
<title>ast.Eq object at 0x781316448ad0</title>
<path fill="#66cdaa" stroke="black" d="M1992.5,-396C1992.5,-396 1962.5,-396 1962.5,-396 1956.5,-396 1950.5,-390 1950.5,-384 1950.5,-384 1950.5,-372 1950.5,-372 1950.5,-366 1956.5,-360 1962.5,-360 1962.5,-360 1992.5,-360 1992.5,-360 1998.5,-360 2004.5,-366 2004.5,-372 2004.5,-372 2004.5,-384 2004.5,-384 2004.5,-390 1998.5,-396 1992.5,-396"/>
<text text-anchor="middle" x="1977.5" y="-374.3" font-family="Times,serif" font-size="14.00">Eq</text>
</g>
<!-- ast.Compare object at 0x781224dafd10&#45;&gt;ast.Eq object at 0x781316448ad0 -->
<g id="edge86" class="edge">
<title>ast.Compare object at 0x781224dafd10&#45;&gt;ast.Eq object at 0x781316448ad0</title>
<path fill="none" stroke="black" d="M1967.71,-431.7C1969.15,-423.98 1970.87,-414.71 1972.46,-406.11"/>
<polygon fill="black" stroke="black" points="1975.94,-406.58 1974.32,-396.1 1969.06,-405.3 1975.94,-406.58"/>
</g>
<!-- ast.Constant object at 0x781224c51b50 -->
<g id="node65" class="node">
<title>ast.Constant object at 0x781224c51b50</title>
<path fill="#66cdaa" stroke="black" d="M2076,-396C2076,-396 2035,-396 2035,-396 2029,-396 2023,-390 2023,-384 2023,-384 2023,-372 2023,-372 2023,-366 2029,-360 2035,-360 2035,-360 2076,-360 2076,-360 2082,-360 2088,-366 2088,-372 2088,-372 2088,-384 2088,-384 2088,-390 2082,-396 2076,-396"/>
<text text-anchor="middle" x="2055.5" y="-374.3" font-family="Times,serif" font-size="14.00">Constant</text>
</g>
<!-- ast.Compare object at 0x781224dafd10&#45;&gt;ast.Constant object at 0x781224c51b50 -->
<g id="edge87" class="edge">
<title>ast.Compare object at 0x781224dafd10&#45;&gt;ast.Constant object at 0x781224c51b50</title>
<path fill="none" stroke="black" d="M1986.99,-431.7C1998.46,-422.88 2012.56,-412.03 2024.98,-402.47"/>
<polygon fill="black" stroke="black" points="2027.47,-404.98 2033.26,-396.1 2023.2,-399.43 2027.47,-404.98"/>
</g>
<!-- ast.Name object at 0x781224dad250 -->
<g id="node61" class="node">
<title>ast.Name object at 0x781224dad250</title>
<path fill="#66cdaa" stroke="black" d="M1917.5,-324C1917.5,-324 1887.5,-324 1887.5,-324 1881.5,-324 1875.5,-318 1875.5,-312 1875.5,-312 1875.5,-300 1875.5,-300 1875.5,-294 1881.5,-288 1887.5,-288 1887.5,-288 1917.5,-288 1917.5,-288 1923.5,-288 1929.5,-294 1929.5,-300 1929.5,-300 1929.5,-312 1929.5,-312 1929.5,-318 1923.5,-324 1917.5,-324"/>
<text text-anchor="middle" x="1902.5" y="-302.3" font-family="Times,serif" font-size="14.00">Name</text>
</g>
<!-- ast.BinOp object at 0x781224daf250&#45;&gt;ast.Name object at 0x781224dad250 -->
<g id="edge82" class="edge">
<title>ast.BinOp object at 0x781224daf250&#45;&gt;ast.Name object at 0x781224dad250</title>
<path fill="none" stroke="black" d="M1904.76,-359.7C1904.43,-351.98 1904.03,-342.71 1903.66,-334.11"/>
<polygon fill="black" stroke="black" points="1907.16,-333.95 1903.23,-324.1 1900.16,-334.25 1907.16,-333.95"/>
</g>
<!-- ast.Mod object at 0x781316448250 -->
<g id="node62" class="node">
<title>ast.Mod object at 0x781316448250</title>
<path fill="#66cdaa" stroke="black" d="M2073.5,-324C2073.5,-324 2043.5,-324 2043.5,-324 2037.5,-324 2031.5,-318 2031.5,-312 2031.5,-312 2031.5,-300 2031.5,-300 2031.5,-294 2037.5,-288 2043.5,-288 2043.5,-288 2073.5,-288 2073.5,-288 2079.5,-288 2085.5,-294 2085.5,-300 2085.5,-300 2085.5,-312 2085.5,-312 2085.5,-318 2079.5,-324 2073.5,-324"/>
<text text-anchor="middle" x="2058.5" y="-302.3" font-family="Times,serif" font-size="14.00">Mod</text>
</g>
<!-- ast.BinOp object at 0x781224daf250&#45;&gt;ast.Mod object at 0x781316448250 -->
<g id="edge84" class="edge">
<title>ast.BinOp object at 0x781224daf250&#45;&gt;ast.Mod object at 0x781316448250</title>
<path fill="none" stroke="black" d="M1932.6,-364.12C1935.6,-362.72 1938.61,-361.32 1941.5,-360 1974.66,-344.81 1985.15,-340.96 2022.01,-324.17"/>
<polygon fill="black" stroke="black" points="2023.77,-327.22 2031.4,-319.88 2020.85,-320.85 2023.77,-327.22"/>
</g>
<!-- ast.Constant object at 0x781224c51510 -->
<g id="node63" class="node">
<title>ast.Constant object at 0x781224c51510</title>
<path fill="#66cdaa" stroke="black" d="M2001,-324C2001,-324 1960,-324 1960,-324 1954,-324 1948,-318 1948,-312 1948,-312 1948,-300 1948,-300 1948,-294 1954,-288 1960,-288 1960,-288 2001,-288 2001,-288 2007,-288 2013,-294 2013,-300 2013,-300 2013,-312 2013,-312 2013,-318 2007,-324 2001,-324"/>
<text text-anchor="middle" x="1980.5" y="-302.3" font-family="Times,serif" font-size="14.00">Constant</text>
</g>
<!-- ast.BinOp object at 0x781224daf250&#45;&gt;ast.Constant object at 0x781224c51510 -->
<g id="edge85" class="edge">
<title>ast.BinOp object at 0x781224daf250&#45;&gt;ast.Constant object at 0x781224c51510</title>
<path fill="none" stroke="black" d="M1924.04,-359.7C1933.3,-351.05 1944.66,-340.45 1954.76,-331.03"/>
<polygon fill="black" stroke="black" points="1957.25,-333.49 1962.17,-324.1 1952.48,-328.37 1957.25,-333.49"/>
</g>
<!-- ast.Name object at 0x781224dad250&#45;&gt;ast.Load object at 0x78131643ba90 -->
<g id="edge83" class="edge">
<title>ast.Name object at 0x781224dad250&#45;&gt;ast.Load object at 0x78131643ba90</title>
<path fill="none" stroke="black" d="M1914.75,-287.69C1943.38,-244.98 2008,-133.59 1950.5,-72 1900.03,-17.94 1364.59,-17.69 1216.99,-18.66"/>
<polygon fill="black" stroke="black" points="1216.63,-15.16 1206.65,-18.73 1216.68,-22.16 1216.63,-15.16"/>
</g>
<!-- ast.Call object at 0x781224c51210 -->
<g id="node67" class="node">
<title>ast.Call object at 0x781224c51210</title>
<path fill="#66cdaa" stroke="black" d="M2149.5,-396C2149.5,-396 2119.5,-396 2119.5,-396 2113.5,-396 2107.5,-390 2107.5,-384 2107.5,-384 2107.5,-372 2107.5,-372 2107.5,-366 2113.5,-360 2119.5,-360 2119.5,-360 2149.5,-360 2149.5,-360 2155.5,-360 2161.5,-366 2161.5,-372 2161.5,-372 2161.5,-384 2161.5,-384 2161.5,-390 2155.5,-396 2149.5,-396"/>
<text text-anchor="middle" x="2134.5" y="-374.3" font-family="Times,serif" font-size="14.00">Call</text>
</g>
<!-- ast.Return object at 0x781224c51b10&#45;&gt;ast.Call object at 0x781224c51210 -->
<g id="edge89" class="edge">
<title>ast.Return object at 0x781224c51b10&#45;&gt;ast.Call object at 0x781224c51210</title>
<path fill="none" stroke="black" d="M2095.35,-431.7C2101.53,-423.39 2109.04,-413.28 2115.82,-404.14"/>
<polygon fill="black" stroke="black" points="2118.64,-406.22 2121.79,-396.1 2113.02,-402.04 2118.64,-406.22"/>
</g>
<!-- ast.Attribute object at 0x781224c51a90 -->
<g id="node68" class="node">
<title>ast.Attribute object at 0x781224c51a90</title>
<path fill="#66cdaa" stroke="black" d="M2157,-324C2157,-324 2116,-324 2116,-324 2110,-324 2104,-318 2104,-312 2104,-312 2104,-300 2104,-300 2104,-294 2110,-288 2116,-288 2116,-288 2157,-288 2157,-288 2163,-288 2169,-294 2169,-300 2169,-300 2169,-312 2169,-312 2169,-318 2163,-324 2157,-324"/>
<text text-anchor="middle" x="2136.5" y="-302.3" font-family="Times,serif" font-size="14.00">Attribute</text>
</g>
<!-- ast.Call object at 0x781224c51210&#45;&gt;ast.Attribute object at 0x781224c51a90 -->
<g id="edge90" class="edge">
<title>ast.Call object at 0x781224c51210&#45;&gt;ast.Attribute object at 0x781224c51a90</title>
<path fill="none" stroke="black" d="M2134.99,-359.7C2135.21,-351.98 2135.48,-342.71 2135.73,-334.11"/>
<polygon fill="black" stroke="black" points="2139.22,-334.2 2136.01,-324.1 2132.23,-334 2139.22,-334.2"/>
</g>
<!-- ast.Attribute object at 0x781224c51a90&#45;&gt;ast.Load object at 0x78131643ba90 -->
<g id="edge100" class="edge">
<title>ast.Attribute object at 0x781224c51a90&#45;&gt;ast.Load object at 0x78131643ba90</title>
<path fill="none" stroke="black" d="M2157.74,-287.75C2206.58,-246.12 2317.96,-138.67 2254.5,-72 2217.97,-33.62 1402.08,-21.64 1216.73,-19.41"/>
<polygon fill="black" stroke="black" points="1216.7,-15.91 1206.66,-19.29 1216.61,-22.91 1216.7,-15.91"/>
</g>
<!-- ast.Subscript object at 0x781224c51a10 -->
<g id="node69" class="node">
<title>ast.Subscript object at 0x781224c51a10</title>
<path fill="#66cdaa" stroke="black" d="M2157.5,-252C2157.5,-252 2113.5,-252 2113.5,-252 2107.5,-252 2101.5,-246 2101.5,-240 2101.5,-240 2101.5,-228 2101.5,-228 2101.5,-222 2107.5,-216 2113.5,-216 2113.5,-216 2157.5,-216 2157.5,-216 2163.5,-216 2169.5,-222 2169.5,-228 2169.5,-228 2169.5,-240 2169.5,-240 2169.5,-246 2163.5,-252 2157.5,-252"/>
<text text-anchor="middle" x="2135.5" y="-230.3" font-family="Times,serif" font-size="14.00">Subscript</text>
</g>
<!-- ast.Attribute object at 0x781224c51a90&#45;&gt;ast.Subscript object at 0x781224c51a10 -->
<g id="edge91" class="edge">
<title>ast.Attribute object at 0x781224c51a90&#45;&gt;ast.Subscript object at 0x781224c51a10</title>
<path fill="none" stroke="black" d="M2136.25,-287.7C2136.14,-279.98 2136.01,-270.71 2135.89,-262.11"/>
<polygon fill="black" stroke="black" points="2139.39,-262.05 2135.74,-252.1 2132.39,-262.15 2139.39,-262.05"/>
</g>
<!-- ast.Subscript object at 0x781224c51a10&#45;&gt;ast.Load object at 0x78131643ba90 -->
<g id="edge99" class="edge">
<title>ast.Subscript object at 0x781224c51a10&#45;&gt;ast.Load object at 0x78131643ba90</title>
<path fill="none" stroke="black" d="M2120.67,-215.93C2085.97,-176.2 2001.11,-80.29 1983.5,-72 1913.59,-39.09 1365.46,-23.51 1216.66,-19.86"/>
<polygon fill="black" stroke="black" points="1216.73,-16.36 1206.65,-19.62 1216.56,-23.36 1216.73,-16.36"/>
</g>
<!-- ast.Call object at 0x781224c51b90 -->
<g id="node70" class="node">
<title>ast.Call object at 0x781224c51b90</title>
<path fill="#66cdaa" stroke="black" d="M2149.5,-180C2149.5,-180 2119.5,-180 2119.5,-180 2113.5,-180 2107.5,-174 2107.5,-168 2107.5,-168 2107.5,-156 2107.5,-156 2107.5,-150 2113.5,-144 2119.5,-144 2119.5,-144 2149.5,-144 2149.5,-144 2155.5,-144 2161.5,-150 2161.5,-156 2161.5,-156 2161.5,-168 2161.5,-168 2161.5,-174 2155.5,-180 2149.5,-180"/>
<text text-anchor="middle" x="2134.5" y="-158.3" font-family="Times,serif" font-size="14.00">Call</text>
</g>
<!-- ast.Subscript object at 0x781224c51a10&#45;&gt;ast.Call object at 0x781224c51b90 -->
<g id="edge92" class="edge">
<title>ast.Subscript object at 0x781224c51a10&#45;&gt;ast.Call object at 0x781224c51b90</title>
<path fill="none" stroke="black" d="M2135.25,-215.7C2135.14,-207.98 2135.01,-198.71 2134.89,-190.11"/>
<polygon fill="black" stroke="black" points="2138.39,-190.05 2134.74,-180.1 2131.39,-190.15 2138.39,-190.05"/>
</g>
<!-- ast.Slice object at 0x781224c512d0 -->
<g id="node73" class="node">
<title>ast.Slice object at 0x781224c512d0</title>
<path fill="#66cdaa" stroke="black" d="M2224.5,-180C2224.5,-180 2194.5,-180 2194.5,-180 2188.5,-180 2182.5,-174 2182.5,-168 2182.5,-168 2182.5,-156 2182.5,-156 2182.5,-150 2188.5,-144 2194.5,-144 2194.5,-144 2224.5,-144 2224.5,-144 2230.5,-144 2236.5,-150 2236.5,-156 2236.5,-156 2236.5,-168 2236.5,-168 2236.5,-174 2230.5,-180 2224.5,-180"/>
<text text-anchor="middle" x="2209.5" y="-158.3" font-family="Times,serif" font-size="14.00">Slice</text>
</g>
<!-- ast.Subscript object at 0x781224c51a10&#45;&gt;ast.Slice object at 0x781224c512d0 -->
<g id="edge97" class="edge">
<title>ast.Subscript object at 0x781224c51a10&#45;&gt;ast.Slice object at 0x781224c512d0</title>
<path fill="none" stroke="black" d="M2153.79,-215.7C2162.93,-207.05 2174.14,-196.45 2184.1,-187.03"/>
<polygon fill="black" stroke="black" points="2186.56,-189.52 2191.42,-180.1 2181.75,-184.43 2186.56,-189.52"/>
</g>
<!-- ast.Name object at 0x781224c510d0 -->
<g id="node71" class="node">
<title>ast.Name object at 0x781224c510d0</title>
<path fill="#66cdaa" stroke="black" d="M2149.5,-108C2149.5,-108 2119.5,-108 2119.5,-108 2113.5,-108 2107.5,-102 2107.5,-96 2107.5,-96 2107.5,-84 2107.5,-84 2107.5,-78 2113.5,-72 2119.5,-72 2119.5,-72 2149.5,-72 2149.5,-72 2155.5,-72 2161.5,-78 2161.5,-84 2161.5,-84 2161.5,-96 2161.5,-96 2161.5,-102 2155.5,-108 2149.5,-108"/>
<text text-anchor="middle" x="2134.5" y="-86.3" font-family="Times,serif" font-size="14.00">Name</text>
</g>
<!-- ast.Call object at 0x781224c51b90&#45;&gt;ast.Name object at 0x781224c510d0 -->
<g id="edge93" class="edge">
<title>ast.Call object at 0x781224c51b90&#45;&gt;ast.Name object at 0x781224c510d0</title>
<path fill="none" stroke="black" d="M2134.5,-143.7C2134.5,-135.98 2134.5,-126.71 2134.5,-118.11"/>
<polygon fill="black" stroke="black" points="2138,-118.1 2134.5,-108.1 2131,-118.1 2138,-118.1"/>
</g>
<!-- ast.Name object at 0x781224c51790 -->
<g id="node72" class="node">
<title>ast.Name object at 0x781224c51790</title>
<path fill="#66cdaa" stroke="black" d="M2077.5,-108C2077.5,-108 2047.5,-108 2047.5,-108 2041.5,-108 2035.5,-102 2035.5,-96 2035.5,-96 2035.5,-84 2035.5,-84 2035.5,-78 2041.5,-72 2047.5,-72 2047.5,-72 2077.5,-72 2077.5,-72 2083.5,-72 2089.5,-78 2089.5,-84 2089.5,-84 2089.5,-96 2089.5,-96 2089.5,-102 2083.5,-108 2077.5,-108"/>
<text text-anchor="middle" x="2062.5" y="-86.3" font-family="Times,serif" font-size="14.00">Name</text>
</g>
<!-- ast.Call object at 0x781224c51b90&#45;&gt;ast.Name object at 0x781224c51790 -->
<g id="edge95" class="edge">
<title>ast.Call object at 0x781224c51b90&#45;&gt;ast.Name object at 0x781224c51790</title>
<path fill="none" stroke="black" d="M2116.7,-143.7C2107.9,-135.14 2097.12,-124.66 2087.5,-115.3"/>
<polygon fill="black" stroke="black" points="2089.7,-112.57 2080.09,-108.1 2084.82,-117.58 2089.7,-112.57"/>
</g>
<!-- ast.Name object at 0x781224c510d0&#45;&gt;ast.Load object at 0x78131643ba90 -->
<g id="edge94" class="edge">
<title>ast.Name object at 0x781224c510d0&#45;&gt;ast.Load object at 0x78131643ba90</title>
<path fill="none" stroke="black" d="M2107.39,-74.88C2104.44,-73.75 2101.45,-72.75 2098.5,-72 1927.41,-28.42 1367.09,-20.59 1216.85,-19.26"/>
<polygon fill="black" stroke="black" points="1216.78,-15.76 1206.75,-19.17 1216.72,-22.76 1216.78,-15.76"/>
</g>
<!-- ast.Name object at 0x781224c51790&#45;&gt;ast.Load object at 0x78131643ba90 -->
<g id="edge96" class="edge">
<title>ast.Name object at 0x781224c51790&#45;&gt;ast.Load object at 0x78131643ba90</title>
<path fill="none" stroke="black" d="M2035.12,-76.2C2030.65,-74.53 2026,-73.04 2021.5,-72 1865.23,-35.75 1359.94,-22.73 1217.31,-19.73"/>
<polygon fill="black" stroke="black" points="1216.98,-16.22 1206.91,-19.51 1216.84,-23.22 1216.98,-16.22"/>
</g>
<!-- ast.Constant object at 0x781224c53550 -->
<g id="node74" class="node">
<title>ast.Constant object at 0x781224c53550</title>
<path fill="#66cdaa" stroke="black" d="M2233,-108C2233,-108 2192,-108 2192,-108 2186,-108 2180,-102 2180,-96 2180,-96 2180,-84 2180,-84 2180,-78 2186,-72 2192,-72 2192,-72 2233,-72 2233,-72 2239,-72 2245,-78 2245,-84 2245,-84 2245,-96 2245,-96 2245,-102 2239,-108 2233,-108"/>
<text text-anchor="middle" x="2212.5" y="-86.3" font-family="Times,serif" font-size="14.00">Constant</text>
</g>
<!-- ast.Slice object at 0x781224c512d0&#45;&gt;ast.Constant object at 0x781224c53550 -->
<g id="edge98" class="edge">
<title>ast.Slice object at 0x781224c512d0&#45;&gt;ast.Constant object at 0x781224c53550</title>
<path fill="none" stroke="black" d="M2210.24,-143.7C2210.57,-135.98 2210.97,-126.71 2211.34,-118.11"/>
<polygon fill="black" stroke="black" points="2214.84,-118.25 2211.77,-108.1 2207.84,-117.95 2214.84,-118.25"/>
</g>
<!-- ast.Subscript object at 0x781224c51910 -->
<g id="node76" class="node">
<title>ast.Subscript object at 0x781224c51910</title>
<path fill="#66cdaa" stroke="black" d="M1869.5,-252C1869.5,-252 1825.5,-252 1825.5,-252 1819.5,-252 1813.5,-246 1813.5,-240 1813.5,-240 1813.5,-228 1813.5,-228 1813.5,-222 1819.5,-216 1825.5,-216 1825.5,-216 1869.5,-216 1869.5,-216 1875.5,-216 1881.5,-222 1881.5,-228 1881.5,-228 1881.5,-240 1881.5,-240 1881.5,-246 1875.5,-252 1869.5,-252"/>
<text text-anchor="middle" x="1847.5" y="-230.3" font-family="Times,serif" font-size="14.00">Subscript</text>
</g>
<!-- ast.Return object at 0x781224c53710&#45;&gt;ast.Subscript object at 0x781224c51910 -->
<g id="edge102" class="edge">
<title>ast.Return object at 0x781224c53710&#45;&gt;ast.Subscript object at 0x781224c51910</title>
<path fill="none" stroke="black" d="M1870.5,-431.85C1866.17,-394.83 1855.93,-307.18 1850.7,-262.39"/>
<polygon fill="black" stroke="black" points="1854.15,-261.76 1849.51,-252.23 1847.2,-262.57 1854.15,-261.76"/>
</g>
<!-- ast.Subscript object at 0x781224c51910&#45;&gt;ast.Load object at 0x78131643ba90 -->
<g id="edge110" class="edge">
<title>ast.Subscript object at 0x781224c51910&#45;&gt;ast.Load object at 0x78131643ba90</title>
<path fill="none" stroke="black" d="M1851.61,-215.91C1858.45,-182.82 1867.8,-109.91 1828.5,-72 1784.38,-29.44 1349.12,-20.95 1217.2,-19.35"/>
<polygon fill="black" stroke="black" points="1216.85,-15.85 1206.81,-19.23 1216.77,-22.85 1216.85,-15.85"/>
</g>
<!-- ast.Call object at 0x781224c53e90 -->
<g id="node77" class="node">
<title>ast.Call object at 0x781224c53e90</title>
<path fill="#66cdaa" stroke="black" d="M1807.5,-180C1807.5,-180 1777.5,-180 1777.5,-180 1771.5,-180 1765.5,-174 1765.5,-168 1765.5,-168 1765.5,-156 1765.5,-156 1765.5,-150 1771.5,-144 1777.5,-144 1777.5,-144 1807.5,-144 1807.5,-144 1813.5,-144 1819.5,-150 1819.5,-156 1819.5,-156 1819.5,-168 1819.5,-168 1819.5,-174 1813.5,-180 1807.5,-180"/>
<text text-anchor="middle" x="1792.5" y="-158.3" font-family="Times,serif" font-size="14.00">Call</text>
</g>
<!-- ast.Subscript object at 0x781224c51910&#45;&gt;ast.Call object at 0x781224c53e90 -->
<g id="edge103" class="edge">
<title>ast.Subscript object at 0x781224c51910&#45;&gt;ast.Call object at 0x781224c53e90</title>
<path fill="none" stroke="black" d="M1833.9,-215.7C1827.38,-207.39 1819.43,-197.28 1812.25,-188.14"/>
<polygon fill="black" stroke="black" points="1814.87,-185.81 1805.94,-180.1 1809.37,-190.13 1814.87,-185.81"/>
</g>
<!-- ast.Slice object at 0x781224c52490 -->
<g id="node80" class="node">
<title>ast.Slice object at 0x781224c52490</title>
<path fill="#66cdaa" stroke="black" d="M1920.5,-180C1920.5,-180 1890.5,-180 1890.5,-180 1884.5,-180 1878.5,-174 1878.5,-168 1878.5,-168 1878.5,-156 1878.5,-156 1878.5,-150 1884.5,-144 1890.5,-144 1890.5,-144 1920.5,-144 1920.5,-144 1926.5,-144 1932.5,-150 1932.5,-156 1932.5,-156 1932.5,-168 1932.5,-168 1932.5,-174 1926.5,-180 1920.5,-180"/>
<text text-anchor="middle" x="1905.5" y="-158.3" font-family="Times,serif" font-size="14.00">Slice</text>
</g>
<!-- ast.Subscript object at 0x781224c51910&#45;&gt;ast.Slice object at 0x781224c52490 -->
<g id="edge108" class="edge">
<title>ast.Subscript object at 0x781224c51910&#45;&gt;ast.Slice object at 0x781224c52490</title>
<path fill="none" stroke="black" d="M1861.84,-215.7C1868.79,-207.3 1877.27,-197.07 1884.9,-187.86"/>
<polygon fill="black" stroke="black" points="1887.64,-190.04 1891.33,-180.1 1882.25,-185.57 1887.64,-190.04"/>
</g>
<!-- ast.Name object at 0x781224c50610 -->
<g id="node78" class="node">
<title>ast.Name object at 0x781224c50610</title>
<path fill="#66cdaa" stroke="black" d="M1807.5,-108C1807.5,-108 1777.5,-108 1777.5,-108 1771.5,-108 1765.5,-102 1765.5,-96 1765.5,-96 1765.5,-84 1765.5,-84 1765.5,-78 1771.5,-72 1777.5,-72 1777.5,-72 1807.5,-72 1807.5,-72 1813.5,-72 1819.5,-78 1819.5,-84 1819.5,-84 1819.5,-96 1819.5,-96 1819.5,-102 1813.5,-108 1807.5,-108"/>
<text text-anchor="middle" x="1792.5" y="-86.3" font-family="Times,serif" font-size="14.00">Name</text>
</g>
<!-- ast.Call object at 0x781224c53e90&#45;&gt;ast.Name object at 0x781224c50610 -->
<g id="edge104" class="edge">
<title>ast.Call object at 0x781224c53e90&#45;&gt;ast.Name object at 0x781224c50610</title>
<path fill="none" stroke="black" d="M1792.5,-143.7C1792.5,-135.98 1792.5,-126.71 1792.5,-118.11"/>
<polygon fill="black" stroke="black" points="1796,-118.1 1792.5,-108.1 1789,-118.1 1796,-118.1"/>
</g>
<!-- ast.Name object at 0x781224c52b10 -->
<g id="node79" class="node">
<title>ast.Name object at 0x781224c52b10</title>
<path fill="#66cdaa" stroke="black" d="M1735.5,-108C1735.5,-108 1705.5,-108 1705.5,-108 1699.5,-108 1693.5,-102 1693.5,-96 1693.5,-96 1693.5,-84 1693.5,-84 1693.5,-78 1699.5,-72 1705.5,-72 1705.5,-72 1735.5,-72 1735.5,-72 1741.5,-72 1747.5,-78 1747.5,-84 1747.5,-84 1747.5,-96 1747.5,-96 1747.5,-102 1741.5,-108 1735.5,-108"/>
<text text-anchor="middle" x="1720.5" y="-86.3" font-family="Times,serif" font-size="14.00">Name</text>
</g>
<!-- ast.Call object at 0x781224c53e90&#45;&gt;ast.Name object at 0x781224c52b10 -->
<g id="edge106" class="edge">
<title>ast.Call object at 0x781224c53e90&#45;&gt;ast.Name object at 0x781224c52b10</title>
<path fill="none" stroke="black" d="M1774.7,-143.7C1765.9,-135.14 1755.12,-124.66 1745.5,-115.3"/>
<polygon fill="black" stroke="black" points="1747.7,-112.57 1738.09,-108.1 1742.82,-117.58 1747.7,-112.57"/>
</g>
<!-- ast.Name object at 0x781224c50610&#45;&gt;ast.Load object at 0x78131643ba90 -->
<g id="edge105" class="edge">
<title>ast.Name object at 0x781224c50610&#45;&gt;ast.Load object at 0x78131643ba90</title>
<path fill="none" stroke="black" d="M1765.36,-74.98C1762.42,-73.83 1759.43,-72.8 1756.5,-72 1653.91,-44.01 1327.2,-26.1 1216.55,-20.71"/>
<polygon fill="black" stroke="black" points="1216.69,-17.22 1206.53,-20.23 1216.35,-24.21 1216.69,-17.22"/>
</g>
<!-- ast.Name object at 0x781224c52b10&#45;&gt;ast.Load object at 0x78131643ba90 -->
<g id="edge107" class="edge">
<title>ast.Name object at 0x781224c52b10&#45;&gt;ast.Load object at 0x78131643ba90</title>
<path fill="none" stroke="black" d="M1693.08,-76.37C1688.61,-74.68 1683.98,-73.14 1679.5,-72 1510.36,-28.93 1300.41,-20.81 1216.59,-19.32"/>
<polygon fill="black" stroke="black" points="1216.59,-15.82 1206.54,-19.16 1216.48,-22.81 1216.59,-15.82"/>
</g>
<!-- ast.Constant object at 0x781224c50550 -->
<g id="node81" class="node">
<title>ast.Constant object at 0x781224c50550</title>
<path fill="#66cdaa" stroke="black" d="M1929,-108C1929,-108 1888,-108 1888,-108 1882,-108 1876,-102 1876,-96 1876,-96 1876,-84 1876,-84 1876,-78 1882,-72 1888,-72 1888,-72 1929,-72 1929,-72 1935,-72 1941,-78 1941,-84 1941,-84 1941,-96 1941,-96 1941,-102 1935,-108 1929,-108"/>
<text text-anchor="middle" x="1908.5" y="-86.3" font-family="Times,serif" font-size="14.00">Constant</text>
</g>
<!-- ast.Slice object at 0x781224c52490&#45;&gt;ast.Constant object at 0x781224c50550 -->
<g id="edge109" class="edge">
<title>ast.Slice object at 0x781224c52490&#45;&gt;ast.Constant object at 0x781224c50550</title>
<path fill="none" stroke="black" d="M1906.24,-143.7C1906.57,-135.98 1906.97,-126.71 1907.34,-118.11"/>
<polygon fill="black" stroke="black" points="1910.84,-118.25 1907.77,-108.1 1903.84,-117.95 1910.84,-118.25"/>
</g>
</g>
</svg>
