<?xml version="1.0" encoding="UTF-8" standalone="no"?>
<!DOCTYPE svg PUBLIC "-//W3C//DTD SVG 1.1//EN"
 "http://www.w3.org/Graphics/SVG/1.1/DTD/svg11.dtd">
<!-- Generated by graphviz version 2.50.0 (0)
 -->
<!-- Pages: 1 -->
<svg width="1211pt" height="620pt"
 viewBox="0.00 0.00 1210.55 620.00" xmlns="http://www.w3.org/2000/svg" xmlns:xlink="http://www.w3.org/1999/xlink">
<g id="graph0" class="graph" transform="scale(1 1) rotate(0) translate(4 616)">
<polygon fill="white" stroke="transparent" points="-4,4 -4,-616 1206.55,-616 1206.55,4 -4,4"/>
<!-- ast.Module object at 0x77b4d8660b50 -->
<g id="node1" class="node">
<title>ast.Module object at 0x77b4d8660b50</title>
<path fill="#66cdaa" stroke="black" d="M720.55,-612C720.55,-612 685.55,-612 685.55,-612 679.55,-612 673.55,-606 673.55,-600 673.55,-600 673.55,-588 673.55,-588 673.55,-582 679.55,-576 685.55,-576 685.55,-576 720.55,-576 720.55,-576 726.55,-576 732.55,-582 732.55,-588 732.55,-588 732.55,-600 732.55,-600 732.55,-606 726.55,-612 720.55,-612"/>
<text text-anchor="middle" x="703.05" y="-590.3" font-family="Times,serif" font-size="14.00">Module</text>
</g>
<!-- ast.ImportFrom object at 0x77b4d017bd10 -->
<g id="node2" class="node">
<title>ast.ImportFrom object at 0x77b4d017bd10</title>
<path fill="#66cdaa" stroke="black" d="M682.05,-540C682.05,-540 622.05,-540 622.05,-540 616.05,-540 610.05,-534 610.05,-528 610.05,-528 610.05,-516 610.05,-516 610.05,-510 616.05,-504 622.05,-504 622.05,-504 682.05,-504 682.05,-504 688.05,-504 694.05,-510 694.05,-516 694.05,-516 694.05,-528 694.05,-528 694.05,-534 688.05,-540 682.05,-540"/>
<text text-anchor="middle" x="652.05" y="-518.3" font-family="Times,serif" font-size="14.00">ImportFrom</text>
</g>
<!-- ast.Module object at 0x77b4d8660b50&#45;&gt;ast.ImportFrom object at 0x77b4d017bd10 -->
<g id="edge1" class="edge">
<title>ast.Module object at 0x77b4d8660b50&#45;&gt;ast.ImportFrom object at 0x77b4d017bd10</title>
<path fill="none" stroke="black" d="M690.44,-575.7C684.45,-567.47 677.17,-557.48 670.57,-548.42"/>
<polygon fill="black" stroke="black" points="673.22,-546.13 664.51,-540.1 667.57,-550.25 673.22,-546.13"/>
</g>
<!-- ast.FunctionDef object at 0x77b4d01a3410 -->
<g id="node4" class="node">
<title>ast.FunctionDef object at 0x77b4d01a3410</title>
<path fill="#66cdaa" stroke="black" d="M785.55,-540C785.55,-540 724.55,-540 724.55,-540 718.55,-540 712.55,-534 712.55,-528 712.55,-528 712.55,-516 712.55,-516 712.55,-510 718.55,-504 724.55,-504 724.55,-504 785.55,-504 785.55,-504 791.55,-504 797.55,-510 797.55,-516 797.55,-516 797.55,-528 797.55,-528 797.55,-534 791.55,-540 785.55,-540"/>
<text text-anchor="middle" x="755.05" y="-518.3" font-family="Times,serif" font-size="14.00">FunctionDef</text>
</g>
<!-- ast.Module object at 0x77b4d8660b50&#45;&gt;ast.FunctionDef object at 0x77b4d01a3410 -->
<g id="edge3" class="edge">
<title>ast.Module object at 0x77b4d8660b50&#45;&gt;ast.FunctionDef object at 0x77b4d01a3410</title>
<path fill="none" stroke="black" d="M715.9,-575.7C722.07,-567.39 729.58,-557.28 736.37,-548.14"/>
<polygon fill="black" stroke="black" points="739.19,-550.22 742.34,-540.1 733.57,-546.04 739.19,-550.22"/>
</g>
<!-- ast.alias object at 0x77b4d017b510 -->
<g id="node3" class="node">
<title>ast.alias object at 0x77b4d017b510</title>
<path fill="#66cdaa" stroke="black" d="M667.05,-468C667.05,-468 637.05,-468 637.05,-468 631.05,-468 625.05,-462 625.05,-456 625.05,-456 625.05,-444 625.05,-444 625.05,-438 631.05,-432 637.05,-432 637.05,-432 667.05,-432 667.05,-432 673.05,-432 679.05,-438 679.05,-444 679.05,-444 679.05,-456 679.05,-456 679.05,-462 673.05,-468 667.05,-468"/>
<text text-anchor="middle" x="652.05" y="-446.3" font-family="Times,serif" font-size="14.00">alias</text>
</g>
<!-- ast.ImportFrom object at 0x77b4d017bd10&#45;&gt;ast.alias object at 0x77b4d017b510 -->
<g id="edge2" class="edge">
<title>ast.ImportFrom object at 0x77b4d017bd10&#45;&gt;ast.alias object at 0x77b4d017b510</title>
<path fill="none" stroke="black" d="M652.05,-503.7C652.05,-495.98 652.05,-486.71 652.05,-478.11"/>
<polygon fill="black" stroke="black" points="655.55,-478.1 652.05,-468.1 648.55,-478.1 655.55,-478.1"/>
</g>
<!-- ast.arguments object at 0x77b4d0039bd0 -->
<g id="node5" class="node">
<title>ast.arguments object at 0x77b4d0039bd0</title>
<path fill="#66cdaa" stroke="black" d="M884.05,-468C884.05,-468 834.05,-468 834.05,-468 828.05,-468 822.05,-462 822.05,-456 822.05,-456 822.05,-444 822.05,-444 822.05,-438 828.05,-432 834.05,-432 834.05,-432 884.05,-432 884.05,-432 890.05,-432 896.05,-438 896.05,-444 896.05,-444 896.05,-456 896.05,-456 896.05,-462 890.05,-468 884.05,-468"/>
<text text-anchor="middle" x="859.05" y="-446.3" font-family="Times,serif" font-size="14.00">arguments</text>
</g>
<!-- ast.FunctionDef object at 0x77b4d01a3410&#45;&gt;ast.arguments object at 0x77b4d0039bd0 -->
<g id="edge4" class="edge">
<title>ast.FunctionDef object at 0x77b4d01a3410&#45;&gt;ast.arguments object at 0x77b4d0039bd0</title>
<path fill="none" stroke="black" d="M780.49,-503.88C793.83,-494.89 810.37,-483.76 824.82,-474.03"/>
<polygon fill="black" stroke="black" points="827.16,-476.68 833.51,-468.19 823.26,-470.87 827.16,-476.68"/>
</g>
<!-- ast.If object at 0x77b4d00396d0 -->
<g id="node7" class="node">
<title>ast.If object at 0x77b4d00396d0</title>
<path fill="#66cdaa" stroke="black" d="M754.05,-468C754.05,-468 724.05,-468 724.05,-468 718.05,-468 712.05,-462 712.05,-456 712.05,-456 712.05,-444 712.05,-444 712.05,-438 718.05,-432 724.05,-432 724.05,-432 754.05,-432 754.05,-432 760.05,-432 766.05,-438 766.05,-444 766.05,-444 766.05,-456 766.05,-456 766.05,-462 760.05,-468 754.05,-468"/>
<text text-anchor="middle" x="739.05" y="-446.3" font-family="Times,serif" font-size="14.00">If</text>
</g>
<!-- ast.FunctionDef object at 0x77b4d01a3410&#45;&gt;ast.If object at 0x77b4d00396d0 -->
<g id="edge6" class="edge">
<title>ast.FunctionDef object at 0x77b4d01a3410&#45;&gt;ast.If object at 0x77b4d00396d0</title>
<path fill="none" stroke="black" d="M751.09,-503.7C749.33,-495.98 747.21,-486.71 745.24,-478.11"/>
<polygon fill="black" stroke="black" points="748.6,-477.07 742.95,-468.1 741.77,-478.63 748.6,-477.07"/>
</g>
<!-- ast.arg object at 0x77b4d0039710 -->
<g id="node6" class="node">
<title>ast.arg object at 0x77b4d0039710</title>
<path fill="#66cdaa" stroke="black" d="M934.05,-396C934.05,-396 904.05,-396 904.05,-396 898.05,-396 892.05,-390 892.05,-384 892.05,-384 892.05,-372 892.05,-372 892.05,-366 898.05,-360 904.05,-360 904.05,-360 934.05,-360 934.05,-360 940.05,-360 946.05,-366 946.05,-372 946.05,-372 946.05,-384 946.05,-384 946.05,-390 940.05,-396 934.05,-396"/>
<text text-anchor="middle" x="919.05" y="-374.3" font-family="Times,serif" font-size="14.00">arg</text>
</g>
<!-- ast.arguments object at 0x77b4d0039bd0&#45;&gt;ast.arg object at 0x77b4d0039710 -->
<g id="edge5" class="edge">
<title>ast.arguments object at 0x77b4d0039bd0&#45;&gt;ast.arg object at 0x77b4d0039710</title>
<path fill="none" stroke="black" d="M873.88,-431.7C881.07,-423.3 889.84,-413.07 897.74,-403.86"/>
<polygon fill="black" stroke="black" points="900.53,-405.97 904.38,-396.1 895.22,-401.42 900.53,-405.97"/>
</g>
<!-- ast.BoolOp object at 0x77b4d0039790 -->
<g id="node8" class="node">
<title>ast.BoolOp object at 0x77b4d0039790</title>
<path fill="#66cdaa" stroke="black" d="M861.55,-396C861.55,-396 826.55,-396 826.55,-396 820.55,-396 814.55,-390 814.55,-384 814.55,-384 814.55,-372 814.55,-372 814.55,-366 820.55,-360 826.55,-360 826.55,-360 861.55,-360 861.55,-360 867.55,-360 873.55,-366 873.55,-372 873.55,-372 873.55,-384 873.55,-384 873.55,-390 867.55,-396 861.55,-396"/>
<text text-anchor="middle" x="844.05" y="-374.3" font-family="Times,serif" font-size="14.00">BoolOp</text>
</g>
<!-- ast.If object at 0x77b4d00396d0&#45;&gt;ast.BoolOp object at 0x77b4d0039790 -->
<g id="edge7" class="edge">
<title>ast.If object at 0x77b4d00396d0&#45;&gt;ast.BoolOp object at 0x77b4d0039790</title>
<path fill="none" stroke="black" d="M764.73,-431.88C778.33,-422.81 795.22,-411.55 809.91,-401.76"/>
<polygon fill="black" stroke="black" points="811.88,-404.65 818.26,-396.19 808,-398.82 811.88,-404.65"/>
</g>
<!-- ast.Return object at 0x77b4d00e1d90 -->
<g id="node33" class="node">
<title>ast.Return object at 0x77b4d00e1d90</title>
<path fill="#66cdaa" stroke="black" d="M659.05,-396C659.05,-396 629.05,-396 629.05,-396 623.05,-396 617.05,-390 617.05,-384 617.05,-384 617.05,-372 617.05,-372 617.05,-366 623.05,-360 629.05,-360 629.05,-360 659.05,-360 659.05,-360 665.05,-360 671.05,-366 671.05,-372 671.05,-372 671.05,-384 671.05,-384 671.05,-390 665.05,-396 659.05,-396"/>
<text text-anchor="middle" x="644.05" y="-374.3" font-family="Times,serif" font-size="14.00">Return</text>
</g>
<!-- ast.If object at 0x77b4d00396d0&#45;&gt;ast.Return object at 0x77b4d00e1d90 -->
<g id="edge42" class="edge">
<title>ast.If object at 0x77b4d00396d0&#45;&gt;ast.Return object at 0x77b4d00e1d90</title>
<path fill="none" stroke="black" d="M715.56,-431.7C703.48,-422.8 688.59,-411.82 675.53,-402.2"/>
<polygon fill="black" stroke="black" points="677.39,-399.22 667.26,-396.1 673.23,-404.85 677.39,-399.22"/>
</g>
<!-- ast.Return object at 0x77b4d00e0550 -->
<g id="node47" class="node">
<title>ast.Return object at 0x77b4d00e0550</title>
<path fill="#66cdaa" stroke="black" d="M737.05,-396C737.05,-396 707.05,-396 707.05,-396 701.05,-396 695.05,-390 695.05,-384 695.05,-384 695.05,-372 695.05,-372 695.05,-366 701.05,-360 707.05,-360 707.05,-360 737.05,-360 737.05,-360 743.05,-360 749.05,-366 749.05,-372 749.05,-372 749.05,-384 749.05,-384 749.05,-390 743.05,-396 737.05,-396"/>
<text text-anchor="middle" x="722.05" y="-374.3" font-family="Times,serif" font-size="14.00">Return</text>
</g>
<!-- ast.If object at 0x77b4d00396d0&#45;&gt;ast.Return object at 0x77b4d00e0550 -->
<g id="edge64" class="edge">
<title>ast.If object at 0x77b4d00396d0&#45;&gt;ast.Return object at 0x77b4d00e0550</title>
<path fill="none" stroke="black" d="M734.84,-431.7C732.95,-423.9 730.67,-414.51 728.56,-405.83"/>
<polygon fill="black" stroke="black" points="731.96,-405 726.2,-396.1 725.16,-406.65 731.96,-405"/>
</g>
<!-- ast.And object at 0x77b4dcc02e10 -->
<g id="node9" class="node">
<title>ast.And object at 0x77b4dcc02e10</title>
<path fill="#66cdaa" stroke="black" d="M981.05,-324C981.05,-324 951.05,-324 951.05,-324 945.05,-324 939.05,-318 939.05,-312 939.05,-312 939.05,-300 939.05,-300 939.05,-294 945.05,-288 951.05,-288 951.05,-288 981.05,-288 981.05,-288 987.05,-288 993.05,-294 993.05,-300 993.05,-300 993.05,-312 993.05,-312 993.05,-318 987.05,-324 981.05,-324"/>
<text text-anchor="middle" x="966.05" y="-302.3" font-family="Times,serif" font-size="14.00">And</text>
</g>
<!-- ast.BoolOp object at 0x77b4d0039790&#45;&gt;ast.And object at 0x77b4dcc02e10 -->
<g id="edge8" class="edge">
<title>ast.BoolOp object at 0x77b4d0039790&#45;&gt;ast.And object at 0x77b4dcc02e10</title>
<path fill="none" stroke="black" d="M873.58,-360.05C890.51,-350.34 911.9,-338.07 929.84,-327.77"/>
<polygon fill="black" stroke="black" points="931.94,-330.6 938.87,-322.59 928.45,-324.53 931.94,-330.6"/>
</g>
<!-- ast.Compare object at 0x77b4d0039750 -->
<g id="node10" class="node">
<title>ast.Compare object at 0x77b4d0039750</title>
<path fill="#66cdaa" stroke="black" d="M1097.55,-324C1097.55,-324 1054.55,-324 1054.55,-324 1048.55,-324 1042.55,-318 1042.55,-312 1042.55,-312 1042.55,-300 1042.55,-300 1042.55,-294 1048.55,-288 1054.55,-288 1054.55,-288 1097.55,-288 1097.55,-288 1103.55,-288 1109.55,-294 1109.55,-300 1109.55,-300 1109.55,-312 1109.55,-312 1109.55,-318 1103.55,-324 1097.55,-324"/>
<text text-anchor="middle" x="1076.05" y="-302.3" font-family="Times,serif" font-size="14.00">Compare</text>
</g>
<!-- ast.BoolOp object at 0x77b4d0039790&#45;&gt;ast.Compare object at 0x77b4d0039750 -->
<g id="edge9" class="edge">
<title>ast.BoolOp object at 0x77b4d0039790&#45;&gt;ast.Compare object at 0x77b4d0039750</title>
<path fill="none" stroke="black" d="M873.68,-363.56C876.82,-362.29 879.98,-361.08 883.05,-360 933.53,-342.17 993.16,-326.6 1032.64,-317.03"/>
<polygon fill="black" stroke="black" points="1033.57,-320.41 1042.47,-314.67 1031.93,-313.6 1033.57,-320.41"/>
</g>
<!-- ast.Compare object at 0x77b4d01a1fd0 -->
<g id="node19" class="node">
<title>ast.Compare object at 0x77b4d01a1fd0</title>
<path fill="#66cdaa" stroke="black" d="M908.55,-324C908.55,-324 865.55,-324 865.55,-324 859.55,-324 853.55,-318 853.55,-312 853.55,-312 853.55,-300 853.55,-300 853.55,-294 859.55,-288 865.55,-288 865.55,-288 908.55,-288 908.55,-288 914.55,-288 920.55,-294 920.55,-300 920.55,-300 920.55,-312 920.55,-312 920.55,-318 914.55,-324 908.55,-324"/>
<text text-anchor="middle" x="887.05" y="-302.3" font-family="Times,serif" font-size="14.00">Compare</text>
</g>
<!-- ast.BoolOp object at 0x77b4d0039790&#45;&gt;ast.Compare object at 0x77b4d01a1fd0 -->
<g id="edge20" class="edge">
<title>ast.BoolOp object at 0x77b4d0039790&#45;&gt;ast.Compare object at 0x77b4d01a1fd0</title>
<path fill="none" stroke="black" d="M854.67,-359.7C859.67,-351.56 865.74,-341.69 871.26,-332.7"/>
<polygon fill="black" stroke="black" points="874.29,-334.46 876.54,-324.1 868.32,-330.79 874.29,-334.46"/>
</g>
<!-- ast.Compare object at 0x77b4d0053590 -->
<g id="node26" class="node">
<title>ast.Compare object at 0x77b4d0053590</title>
<path fill="#66cdaa" stroke="black" d="M823.55,-324C823.55,-324 780.55,-324 780.55,-324 774.55,-324 768.55,-318 768.55,-312 768.55,-312 768.55,-300 768.55,-300 768.55,-294 774.55,-288 780.55,-288 780.55,-288 823.55,-288 823.55,-288 829.55,-288 835.55,-294 835.55,-300 835.55,-300 835.55,-312 835.55,-312 835.55,-318 829.55,-324 823.55,-324"/>
<text text-anchor="middle" x="802.05" y="-302.3" font-family="Times,serif" font-size="14.00">Compare</text>
</g>
<!-- ast.BoolOp object at 0x77b4d0039790&#45;&gt;ast.Compare object at 0x77b4d0053590 -->
<g id="edge31" class="edge">
<title>ast.BoolOp object at 0x77b4d0039790&#45;&gt;ast.Compare object at 0x77b4d0053590</title>
<path fill="none" stroke="black" d="M833.66,-359.7C828.78,-351.56 822.86,-341.69 817.47,-332.7"/>
<polygon fill="black" stroke="black" points="820.45,-330.88 812.31,-324.1 814.45,-334.48 820.45,-330.88"/>
</g>
<!-- ast.Constant object at 0x77b4d0038e50 -->
<g id="node11" class="node">
<title>ast.Constant object at 0x77b4d0038e50</title>
<path fill="#66cdaa" stroke="black" d="M1190.55,-252C1190.55,-252 1149.55,-252 1149.55,-252 1143.55,-252 1137.55,-246 1137.55,-240 1137.55,-240 1137.55,-228 1137.55,-228 1137.55,-222 1143.55,-216 1149.55,-216 1149.55,-216 1190.55,-216 1190.55,-216 1196.55,-216 1202.55,-222 1202.55,-228 1202.55,-228 1202.55,-240 1202.55,-240 1202.55,-246 1196.55,-252 1190.55,-252"/>
<text text-anchor="middle" x="1170.05" y="-230.3" font-family="Times,serif" font-size="14.00">Constant</text>
</g>
<!-- ast.Compare object at 0x77b4d0039750&#45;&gt;ast.Constant object at 0x77b4d0038e50 -->
<g id="edge10" class="edge">
<title>ast.Compare object at 0x77b4d0039750&#45;&gt;ast.Constant object at 0x77b4d0038e50</title>
<path fill="none" stroke="black" d="M1099.28,-287.7C1111.23,-278.8 1125.97,-267.82 1138.89,-258.2"/>
<polygon fill="black" stroke="black" points="1141.15,-260.88 1147.08,-252.1 1136.97,-255.27 1141.15,-260.88"/>
</g>
<!-- ast.In object at 0x77b4dcc03f50 -->
<g id="node12" class="node">
<title>ast.In object at 0x77b4dcc03f50</title>
<path fill="#66cdaa" stroke="black" d="M879.05,-252C879.05,-252 849.05,-252 849.05,-252 843.05,-252 837.05,-246 837.05,-240 837.05,-240 837.05,-228 837.05,-228 837.05,-222 843.05,-216 849.05,-216 849.05,-216 879.05,-216 879.05,-216 885.05,-216 891.05,-222 891.05,-228 891.05,-228 891.05,-240 891.05,-240 891.05,-246 885.05,-252 879.05,-252"/>
<text text-anchor="middle" x="864.05" y="-230.3" font-family="Times,serif" font-size="14.00">In</text>
</g>
<!-- ast.Compare object at 0x77b4d0039750&#45;&gt;ast.In object at 0x77b4dcc03f50 -->
<g id="edge11" class="edge">
<title>ast.Compare object at 0x77b4d0039750&#45;&gt;ast.In object at 0x77b4dcc03f50</title>
<path fill="none" stroke="black" d="M1042.46,-296.48C1008.63,-287.56 954.88,-272.43 900.77,-252.02"/>
<polygon fill="black" stroke="black" points="901.97,-248.73 891.38,-248.42 899.47,-255.27 901.97,-248.73"/>
</g>
<!-- ast.Call object at 0x77b4d0038b10 -->
<g id="node13" class="node">
<title>ast.Call object at 0x77b4d0038b10</title>
<path fill="#66cdaa" stroke="black" d="M1107.05,-252C1107.05,-252 1077.05,-252 1077.05,-252 1071.05,-252 1065.05,-246 1065.05,-240 1065.05,-240 1065.05,-228 1065.05,-228 1065.05,-222 1071.05,-216 1077.05,-216 1077.05,-216 1107.05,-216 1107.05,-216 1113.05,-216 1119.05,-222 1119.05,-228 1119.05,-228 1119.05,-240 1119.05,-240 1119.05,-246 1113.05,-252 1107.05,-252"/>
<text text-anchor="middle" x="1092.05" y="-230.3" font-family="Times,serif" font-size="14.00">Call</text>
</g>
<!-- ast.Compare object at 0x77b4d0039750&#45;&gt;ast.Call object at 0x77b4d0038b10 -->
<g id="edge12" class="edge">
<title>ast.Compare object at 0x77b4d0039750&#45;&gt;ast.Call object at 0x77b4d0038b10</title>
<path fill="none" stroke="black" d="M1080,-287.7C1081.76,-279.98 1083.88,-270.71 1085.85,-262.11"/>
<polygon fill="black" stroke="black" points="1089.32,-262.63 1088.14,-252.1 1082.5,-261.07 1089.32,-262.63"/>
</g>
<!-- ast.Name object at 0x77b4d0038450 -->
<g id="node14" class="node">
<title>ast.Name object at 0x77b4d0038450</title>
<path fill="#66cdaa" stroke="black" d="M1169.05,-180C1169.05,-180 1139.05,-180 1139.05,-180 1133.05,-180 1127.05,-174 1127.05,-168 1127.05,-168 1127.05,-156 1127.05,-156 1127.05,-150 1133.05,-144 1139.05,-144 1139.05,-144 1169.05,-144 1169.05,-144 1175.05,-144 1181.05,-150 1181.05,-156 1181.05,-156 1181.05,-168 1181.05,-168 1181.05,-174 1175.05,-180 1169.05,-180"/>
<text text-anchor="middle" x="1154.05" y="-158.3" font-family="Times,serif" font-size="14.00">Name</text>
</g>
<!-- ast.Call object at 0x77b4d0038b10&#45;&gt;ast.Name object at 0x77b4d0038450 -->
<g id="edge13" class="edge">
<title>ast.Call object at 0x77b4d0038b10&#45;&gt;ast.Name object at 0x77b4d0038450</title>
<path fill="none" stroke="black" d="M1107.37,-215.7C1114.8,-207.3 1123.87,-197.07 1132.03,-187.86"/>
<polygon fill="black" stroke="black" points="1134.89,-189.91 1138.9,-180.1 1129.65,-185.27 1134.89,-189.91"/>
</g>
<!-- ast.Call object at 0x77b4d0190c50 -->
<g id="node16" class="node">
<title>ast.Call object at 0x77b4d0190c50</title>
<path fill="#66cdaa" stroke="black" d="M1097.05,-180C1097.05,-180 1067.05,-180 1067.05,-180 1061.05,-180 1055.05,-174 1055.05,-168 1055.05,-168 1055.05,-156 1055.05,-156 1055.05,-150 1061.05,-144 1067.05,-144 1067.05,-144 1097.05,-144 1097.05,-144 1103.05,-144 1109.05,-150 1109.05,-156 1109.05,-156 1109.05,-168 1109.05,-168 1109.05,-174 1103.05,-180 1097.05,-180"/>
<text text-anchor="middle" x="1082.05" y="-158.3" font-family="Times,serif" font-size="14.00">Call</text>
</g>
<!-- ast.Call object at 0x77b4d0038b10&#45;&gt;ast.Call object at 0x77b4d0190c50 -->
<g id="edge15" class="edge">
<title>ast.Call object at 0x77b4d0038b10&#45;&gt;ast.Call object at 0x77b4d0190c50</title>
<path fill="none" stroke="black" d="M1089.57,-215.7C1088.47,-207.98 1087.15,-198.71 1085.92,-190.11"/>
<polygon fill="black" stroke="black" points="1089.37,-189.51 1084.49,-180.1 1082.44,-190.5 1089.37,-189.51"/>
</g>
<!-- ast.Load object at 0x77b4dcc02b50 -->
<g id="node15" class="node">
<title>ast.Load object at 0x77b4dcc02b50</title>
<path fill="#66cdaa" stroke="black" d="M678.05,-36C678.05,-36 648.05,-36 648.05,-36 642.05,-36 636.05,-30 636.05,-24 636.05,-24 636.05,-12 636.05,-12 636.05,-6 642.05,0 648.05,0 648.05,0 678.05,0 678.05,0 684.05,0 690.05,-6 690.05,-12 690.05,-12 690.05,-24 690.05,-24 690.05,-30 684.05,-36 678.05,-36"/>
<text text-anchor="middle" x="663.05" y="-14.3" font-family="Times,serif" font-size="14.00">Load</text>
</g>
<!-- ast.Name object at 0x77b4d0038450&#45;&gt;ast.Load object at 0x77b4dcc02b50 -->
<g id="edge14" class="edge">
<title>ast.Name object at 0x77b4d0038450&#45;&gt;ast.Load object at 0x77b4dcc02b50</title>
<path fill="none" stroke="black" d="M1155.79,-143.72C1156.8,-123.36 1154.95,-90.03 1135.05,-72 1103,-42.96 806.48,-25.92 700.49,-20.72"/>
<polygon fill="black" stroke="black" points="700.42,-17.21 690.26,-20.22 700.08,-24.2 700.42,-17.21"/>
</g>
<!-- ast.Name object at 0x77b4d0192890 -->
<g id="node17" class="node">
<title>ast.Name object at 0x77b4d0192890</title>
<path fill="#66cdaa" stroke="black" d="M1042.05,-108C1042.05,-108 1012.05,-108 1012.05,-108 1006.05,-108 1000.05,-102 1000.05,-96 1000.05,-96 1000.05,-84 1000.05,-84 1000.05,-78 1006.05,-72 1012.05,-72 1012.05,-72 1042.05,-72 1042.05,-72 1048.05,-72 1054.05,-78 1054.05,-84 1054.05,-84 1054.05,-96 1054.05,-96 1054.05,-102 1048.05,-108 1042.05,-108"/>
<text text-anchor="middle" x="1027.05" y="-86.3" font-family="Times,serif" font-size="14.00">Name</text>
</g>
<!-- ast.Call object at 0x77b4d0190c50&#45;&gt;ast.Name object at 0x77b4d0192890 -->
<g id="edge16" class="edge">
<title>ast.Call object at 0x77b4d0190c50&#45;&gt;ast.Name object at 0x77b4d0192890</title>
<path fill="none" stroke="black" d="M1068.45,-143.7C1061.92,-135.39 1053.98,-125.28 1046.8,-116.14"/>
<polygon fill="black" stroke="black" points="1049.41,-113.81 1040.48,-108.1 1043.91,-118.13 1049.41,-113.81"/>
</g>
<!-- ast.Name object at 0x77b4d0053c90 -->
<g id="node18" class="node">
<title>ast.Name object at 0x77b4d0053c90</title>
<path fill="#66cdaa" stroke="black" d="M1114.05,-108C1114.05,-108 1084.05,-108 1084.05,-108 1078.05,-108 1072.05,-102 1072.05,-96 1072.05,-96 1072.05,-84 1072.05,-84 1072.05,-78 1078.05,-72 1084.05,-72 1084.05,-72 1114.05,-72 1114.05,-72 1120.05,-72 1126.05,-78 1126.05,-84 1126.05,-84 1126.05,-96 1126.05,-96 1126.05,-102 1120.05,-108 1114.05,-108"/>
<text text-anchor="middle" x="1099.05" y="-86.3" font-family="Times,serif" font-size="14.00">Name</text>
</g>
<!-- ast.Call object at 0x77b4d0190c50&#45;&gt;ast.Name object at 0x77b4d0053c90 -->
<g id="edge18" class="edge">
<title>ast.Call object at 0x77b4d0190c50&#45;&gt;ast.Name object at 0x77b4d0053c90</title>
<path fill="none" stroke="black" d="M1086.25,-143.7C1088.14,-135.9 1090.42,-126.51 1092.53,-117.83"/>
<polygon fill="black" stroke="black" points="1095.93,-118.65 1094.89,-108.1 1089.13,-117 1095.93,-118.65"/>
</g>
<!-- ast.Name object at 0x77b4d0192890&#45;&gt;ast.Load object at 0x77b4dcc02b50 -->
<g id="edge17" class="edge">
<title>ast.Name object at 0x77b4d0192890&#45;&gt;ast.Load object at 0x77b4dcc02b50</title>
<path fill="none" stroke="black" d="M1000.01,-76.77C995.41,-74.98 990.64,-73.31 986.05,-72 885,-43.18 761.42,-28.34 700.57,-22.32"/>
<polygon fill="black" stroke="black" points="700.6,-18.81 690.31,-21.33 699.92,-25.78 700.6,-18.81"/>
</g>
<!-- ast.Name object at 0x77b4d0053c90&#45;&gt;ast.Load object at 0x77b4dcc02b50 -->
<g id="edge19" class="edge">
<title>ast.Name object at 0x77b4d0053c90&#45;&gt;ast.Load object at 0x77b4dcc02b50</title>
<path fill="none" stroke="black" d="M1071.87,-75.1C1068.94,-73.93 1065.96,-72.86 1063.05,-72 933.62,-33.88 772.51,-23.12 700.67,-20.13"/>
<polygon fill="black" stroke="black" points="700.45,-16.62 690.32,-19.73 700.18,-23.61 700.45,-16.62"/>
</g>
<!-- ast.Compare object at 0x77b4d01a1fd0&#45;&gt;ast.In object at 0x77b4dcc03f50 -->
<g id="edge22" class="edge">
<title>ast.Compare object at 0x77b4d01a1fd0&#45;&gt;ast.In object at 0x77b4dcc03f50</title>
<path fill="none" stroke="black" d="M881.36,-287.7C878.8,-279.9 875.71,-270.51 872.86,-261.83"/>
<polygon fill="black" stroke="black" points="876.11,-260.51 869.67,-252.1 869.46,-262.7 876.11,-260.51"/>
</g>
<!-- ast.Constant object at 0x77b4d00516d0 -->
<g id="node20" class="node">
<title>ast.Constant object at 0x77b4d00516d0</title>
<path fill="#66cdaa" stroke="black" d="M1034.55,-252C1034.55,-252 993.55,-252 993.55,-252 987.55,-252 981.55,-246 981.55,-240 981.55,-240 981.55,-228 981.55,-228 981.55,-222 987.55,-216 993.55,-216 993.55,-216 1034.55,-216 1034.55,-216 1040.55,-216 1046.55,-222 1046.55,-228 1046.55,-228 1046.55,-240 1046.55,-240 1046.55,-246 1040.55,-252 1034.55,-252"/>
<text text-anchor="middle" x="1014.05" y="-230.3" font-family="Times,serif" font-size="14.00">Constant</text>
</g>
<!-- ast.Compare object at 0x77b4d01a1fd0&#45;&gt;ast.Constant object at 0x77b4d00516d0 -->
<g id="edge21" class="edge">
<title>ast.Compare object at 0x77b4d01a1fd0&#45;&gt;ast.Constant object at 0x77b4d00516d0</title>
<path fill="none" stroke="black" d="M918.11,-287.88C934.87,-278.64 955.75,-267.13 973.75,-257.21"/>
<polygon fill="black" stroke="black" points="975.79,-260.08 982.86,-252.19 972.41,-253.95 975.79,-260.08"/>
</g>
<!-- ast.Call object at 0x77b4d00534d0 -->
<g id="node21" class="node">
<title>ast.Call object at 0x77b4d00534d0</title>
<path fill="#66cdaa" stroke="black" d="M951.05,-252C951.05,-252 921.05,-252 921.05,-252 915.05,-252 909.05,-246 909.05,-240 909.05,-240 909.05,-228 909.05,-228 909.05,-222 915.05,-216 921.05,-216 921.05,-216 951.05,-216 951.05,-216 957.05,-216 963.05,-222 963.05,-228 963.05,-228 963.05,-240 963.05,-240 963.05,-246 957.05,-252 951.05,-252"/>
<text text-anchor="middle" x="936.05" y="-230.3" font-family="Times,serif" font-size="14.00">Call</text>
</g>
<!-- ast.Compare object at 0x77b4d01a1fd0&#45;&gt;ast.Call object at 0x77b4d00534d0 -->
<g id="edge23" class="edge">
<title>ast.Compare object at 0x77b4d01a1fd0&#45;&gt;ast.Call object at 0x77b4d00534d0</title>
<path fill="none" stroke="black" d="M899.16,-287.7C904.91,-279.47 911.91,-269.48 918.25,-260.42"/>
<polygon fill="black" stroke="black" points="921.21,-262.3 924.07,-252.1 915.47,-258.29 921.21,-262.3"/>
</g>
<!-- ast.Name object at 0x77b4d0052910 -->
<g id="node22" class="node">
<title>ast.Name object at 0x77b4d0052910</title>
<path fill="#66cdaa" stroke="black" d="M987.05,-180C987.05,-180 957.05,-180 957.05,-180 951.05,-180 945.05,-174 945.05,-168 945.05,-168 945.05,-156 945.05,-156 945.05,-150 951.05,-144 957.05,-144 957.05,-144 987.05,-144 987.05,-144 993.05,-144 999.05,-150 999.05,-156 999.05,-156 999.05,-168 999.05,-168 999.05,-174 993.05,-180 987.05,-180"/>
<text text-anchor="middle" x="972.05" y="-158.3" font-family="Times,serif" font-size="14.00">Name</text>
</g>
<!-- ast.Call object at 0x77b4d00534d0&#45;&gt;ast.Name object at 0x77b4d0052910 -->
<g id="edge24" class="edge">
<title>ast.Call object at 0x77b4d00534d0&#45;&gt;ast.Name object at 0x77b4d0052910</title>
<path fill="none" stroke="black" d="M944.94,-215.7C949.04,-207.73 953.99,-198.1 958.54,-189.26"/>
<polygon fill="black" stroke="black" points="961.79,-190.6 963.25,-180.1 955.56,-187.4 961.79,-190.6"/>
</g>
<!-- ast.Call object at 0x77b4d0053f10 -->
<g id="node23" class="node">
<title>ast.Call object at 0x77b4d0053f10</title>
<path fill="#66cdaa" stroke="black" d="M915.05,-180C915.05,-180 885.05,-180 885.05,-180 879.05,-180 873.05,-174 873.05,-168 873.05,-168 873.05,-156 873.05,-156 873.05,-150 879.05,-144 885.05,-144 885.05,-144 915.05,-144 915.05,-144 921.05,-144 927.05,-150 927.05,-156 927.05,-156 927.05,-168 927.05,-168 927.05,-174 921.05,-180 915.05,-180"/>
<text text-anchor="middle" x="900.05" y="-158.3" font-family="Times,serif" font-size="14.00">Call</text>
</g>
<!-- ast.Call object at 0x77b4d00534d0&#45;&gt;ast.Call object at 0x77b4d0053f10 -->
<g id="edge26" class="edge">
<title>ast.Call object at 0x77b4d00534d0&#45;&gt;ast.Call object at 0x77b4d0053f10</title>
<path fill="none" stroke="black" d="M927.15,-215.7C923.05,-207.73 918.1,-198.1 913.55,-189.26"/>
<polygon fill="black" stroke="black" points="916.53,-187.4 908.84,-180.1 910.3,-190.6 916.53,-187.4"/>
</g>
<!-- ast.Name object at 0x77b4d0052910&#45;&gt;ast.Load object at 0x77b4dcc02b50 -->
<g id="edge25" class="edge">
<title>ast.Name object at 0x77b4d0052910&#45;&gt;ast.Load object at 0x77b4dcc02b50</title>
<path fill="none" stroke="black" d="M973.58,-143.95C974.37,-123.82 972.32,-90.71 953.05,-72 917.59,-37.58 770.64,-24.93 700.56,-20.79"/>
<polygon fill="black" stroke="black" points="700.58,-17.29 690.4,-20.22 700.18,-24.28 700.58,-17.29"/>
</g>
<!-- ast.Name object at 0x77b4d0053dd0 -->
<g id="node24" class="node">
<title>ast.Name object at 0x77b4d0053dd0</title>
<path fill="#66cdaa" stroke="black" d="M860.05,-108C860.05,-108 830.05,-108 830.05,-108 824.05,-108 818.05,-102 818.05,-96 818.05,-96 818.05,-84 818.05,-84 818.05,-78 824.05,-72 830.05,-72 830.05,-72 860.05,-72 860.05,-72 866.05,-72 872.05,-78 872.05,-84 872.05,-84 872.05,-96 872.05,-96 872.05,-102 866.05,-108 860.05,-108"/>
<text text-anchor="middle" x="845.05" y="-86.3" font-family="Times,serif" font-size="14.00">Name</text>
</g>
<!-- ast.Call object at 0x77b4d0053f10&#45;&gt;ast.Name object at 0x77b4d0053dd0 -->
<g id="edge27" class="edge">
<title>ast.Call object at 0x77b4d0053f10&#45;&gt;ast.Name object at 0x77b4d0053dd0</title>
<path fill="none" stroke="black" d="M886.45,-143.7C879.92,-135.39 871.98,-125.28 864.8,-116.14"/>
<polygon fill="black" stroke="black" points="867.41,-113.81 858.48,-108.1 861.91,-118.13 867.41,-113.81"/>
</g>
<!-- ast.Name object at 0x77b4d0052610 -->
<g id="node25" class="node">
<title>ast.Name object at 0x77b4d0052610</title>
<path fill="#66cdaa" stroke="black" d="M932.05,-108C932.05,-108 902.05,-108 902.05,-108 896.05,-108 890.05,-102 890.05,-96 890.05,-96 890.05,-84 890.05,-84 890.05,-78 896.05,-72 902.05,-72 902.05,-72 932.05,-72 932.05,-72 938.05,-72 944.05,-78 944.05,-84 944.05,-84 944.05,-96 944.05,-96 944.05,-102 938.05,-108 932.05,-108"/>
<text text-anchor="middle" x="917.05" y="-86.3" font-family="Times,serif" font-size="14.00">Name</text>
</g>
<!-- ast.Call object at 0x77b4d0053f10&#45;&gt;ast.Name object at 0x77b4d0052610 -->
<g id="edge29" class="edge">
<title>ast.Call object at 0x77b4d0053f10&#45;&gt;ast.Name object at 0x77b4d0052610</title>
<path fill="none" stroke="black" d="M904.25,-143.7C906.14,-135.9 908.42,-126.51 910.53,-117.83"/>
<polygon fill="black" stroke="black" points="913.93,-118.65 912.89,-108.1 907.13,-117 913.93,-118.65"/>
</g>
<!-- ast.Name object at 0x77b4d0053dd0&#45;&gt;ast.Load object at 0x77b4dcc02b50 -->
<g id="edge28" class="edge">
<title>ast.Name object at 0x77b4d0053dd0&#45;&gt;ast.Load object at 0x77b4dcc02b50</title>
<path fill="none" stroke="black" d="M817.75,-77.53C813.18,-75.66 808.49,-73.76 804.05,-72 768.8,-58.07 728.28,-42.93 699.74,-32.41"/>
<polygon fill="black" stroke="black" points="700.77,-29.06 690.18,-28.89 698.36,-35.63 700.77,-29.06"/>
</g>
<!-- ast.Name object at 0x77b4d0052610&#45;&gt;ast.Load object at 0x77b4dcc02b50 -->
<g id="edge30" class="edge">
<title>ast.Name object at 0x77b4d0052610&#45;&gt;ast.Load object at 0x77b4dcc02b50</title>
<path fill="none" stroke="black" d="M889.77,-75.42C886.86,-74.18 883.91,-73.01 881.05,-72 819,-50.06 743.9,-34 700,-25.61"/>
<polygon fill="black" stroke="black" points="700.54,-22.15 690.06,-23.74 699.24,-29.03 700.54,-22.15"/>
</g>
<!-- ast.Compare object at 0x77b4d0053590&#45;&gt;ast.In object at 0x77b4dcc03f50 -->
<g id="edge33" class="edge">
<title>ast.Compare object at 0x77b4d0053590&#45;&gt;ast.In object at 0x77b4dcc03f50</title>
<path fill="none" stroke="black" d="M817.37,-287.7C824.8,-279.3 833.87,-269.07 842.03,-259.86"/>
<polygon fill="black" stroke="black" points="844.89,-261.91 848.9,-252.1 839.65,-257.27 844.89,-261.91"/>
</g>
<!-- ast.Constant object at 0x77b4d0053e90 -->
<g id="node27" class="node">
<title>ast.Constant object at 0x77b4d0053e90</title>
<path fill="#66cdaa" stroke="black" d="M806.55,-252C806.55,-252 765.55,-252 765.55,-252 759.55,-252 753.55,-246 753.55,-240 753.55,-240 753.55,-228 753.55,-228 753.55,-222 759.55,-216 765.55,-216 765.55,-216 806.55,-216 806.55,-216 812.55,-216 818.55,-222 818.55,-228 818.55,-228 818.55,-240 818.55,-240 818.55,-246 812.55,-252 806.55,-252"/>
<text text-anchor="middle" x="786.05" y="-230.3" font-family="Times,serif" font-size="14.00">Constant</text>
</g>
<!-- ast.Compare object at 0x77b4d0053590&#45;&gt;ast.Constant object at 0x77b4d0053e90 -->
<g id="edge32" class="edge">
<title>ast.Compare object at 0x77b4d0053590&#45;&gt;ast.Constant object at 0x77b4d0053e90</title>
<path fill="none" stroke="black" d="M798.09,-287.7C796.33,-279.98 794.21,-270.71 792.24,-262.11"/>
<polygon fill="black" stroke="black" points="795.6,-261.07 789.95,-252.1 788.77,-262.63 795.6,-261.07"/>
</g>
<!-- ast.Call object at 0x77b4d8644d50 -->
<g id="node28" class="node">
<title>ast.Call object at 0x77b4d8644d50</title>
<path fill="#66cdaa" stroke="black" d="M723.05,-252C723.05,-252 693.05,-252 693.05,-252 687.05,-252 681.05,-246 681.05,-240 681.05,-240 681.05,-228 681.05,-228 681.05,-222 687.05,-216 693.05,-216 693.05,-216 723.05,-216 723.05,-216 729.05,-216 735.05,-222 735.05,-228 735.05,-228 735.05,-240 735.05,-240 735.05,-246 729.05,-252 723.05,-252"/>
<text text-anchor="middle" x="708.05" y="-230.3" font-family="Times,serif" font-size="14.00">Call</text>
</g>
<!-- ast.Compare object at 0x77b4d0053590&#45;&gt;ast.Call object at 0x77b4d8644d50 -->
<g id="edge34" class="edge">
<title>ast.Compare object at 0x77b4d0053590&#45;&gt;ast.Call object at 0x77b4d8644d50</title>
<path fill="none" stroke="black" d="M778.81,-287.7C766.86,-278.8 752.12,-267.82 739.2,-258.2"/>
<polygon fill="black" stroke="black" points="741.12,-255.27 731.01,-252.1 736.94,-260.88 741.12,-255.27"/>
</g>
<!-- ast.Name object at 0x77b4d00e09d0 -->
<g id="node29" class="node">
<title>ast.Name object at 0x77b4d00e09d0</title>
<path fill="#66cdaa" stroke="black" d="M800.05,-180C800.05,-180 770.05,-180 770.05,-180 764.05,-180 758.05,-174 758.05,-168 758.05,-168 758.05,-156 758.05,-156 758.05,-150 764.05,-144 770.05,-144 770.05,-144 800.05,-144 800.05,-144 806.05,-144 812.05,-150 812.05,-156 812.05,-156 812.05,-168 812.05,-168 812.05,-174 806.05,-180 800.05,-180"/>
<text text-anchor="middle" x="785.05" y="-158.3" font-family="Times,serif" font-size="14.00">Name</text>
</g>
<!-- ast.Call object at 0x77b4d8644d50&#45;&gt;ast.Name object at 0x77b4d00e09d0 -->
<g id="edge35" class="edge">
<title>ast.Call object at 0x77b4d8644d50&#45;&gt;ast.Name object at 0x77b4d00e09d0</title>
<path fill="none" stroke="black" d="M727.08,-215.7C736.59,-207.05 748.25,-196.45 758.62,-187.03"/>
<polygon fill="black" stroke="black" points="761.19,-189.42 766.23,-180.1 756.48,-184.24 761.19,-189.42"/>
</g>
<!-- ast.Call object at 0x77b4d00e39d0 -->
<g id="node30" class="node">
<title>ast.Call object at 0x77b4d00e39d0</title>
<path fill="#66cdaa" stroke="black" d="M723.05,-180C723.05,-180 693.05,-180 693.05,-180 687.05,-180 681.05,-174 681.05,-168 681.05,-168 681.05,-156 681.05,-156 681.05,-150 687.05,-144 693.05,-144 693.05,-144 723.05,-144 723.05,-144 729.05,-144 735.05,-150 735.05,-156 735.05,-156 735.05,-168 735.05,-168 735.05,-174 729.05,-180 723.05,-180"/>
<text text-anchor="middle" x="708.05" y="-158.3" font-family="Times,serif" font-size="14.00">Call</text>
</g>
<!-- ast.Call object at 0x77b4d8644d50&#45;&gt;ast.Call object at 0x77b4d00e39d0 -->
<g id="edge37" class="edge">
<title>ast.Call object at 0x77b4d8644d50&#45;&gt;ast.Call object at 0x77b4d00e39d0</title>
<path fill="none" stroke="black" d="M708.05,-215.7C708.05,-207.98 708.05,-198.71 708.05,-190.11"/>
<polygon fill="black" stroke="black" points="711.55,-190.1 708.05,-180.1 704.55,-190.1 711.55,-190.1"/>
</g>
<!-- ast.Name object at 0x77b4d00e09d0&#45;&gt;ast.Load object at 0x77b4dcc02b50 -->
<g id="edge36" class="edge">
<title>ast.Name object at 0x77b4d00e09d0&#45;&gt;ast.Load object at 0x77b4dcc02b50</title>
<path fill="none" stroke="black" d="M786.77,-143.83C787.78,-124.49 786.55,-93.02 771.05,-72 754.02,-48.91 724.17,-35.34 700.16,-27.72"/>
<polygon fill="black" stroke="black" points="700.86,-24.28 690.28,-24.81 698.88,-30.99 700.86,-24.28"/>
</g>
<!-- ast.Name object at 0x77b4d00e38d0 -->
<g id="node31" class="node">
<title>ast.Name object at 0x77b4d00e38d0</title>
<path fill="#66cdaa" stroke="black" d="M678.05,-108C678.05,-108 648.05,-108 648.05,-108 642.05,-108 636.05,-102 636.05,-96 636.05,-96 636.05,-84 636.05,-84 636.05,-78 642.05,-72 648.05,-72 648.05,-72 678.05,-72 678.05,-72 684.05,-72 690.05,-78 690.05,-84 690.05,-84 690.05,-96 690.05,-96 690.05,-102 684.05,-108 678.05,-108"/>
<text text-anchor="middle" x="663.05" y="-86.3" font-family="Times,serif" font-size="14.00">Name</text>
</g>
<!-- ast.Call object at 0x77b4d00e39d0&#45;&gt;ast.Name object at 0x77b4d00e38d0 -->
<g id="edge38" class="edge">
<title>ast.Call object at 0x77b4d00e39d0&#45;&gt;ast.Name object at 0x77b4d00e38d0</title>
<path fill="none" stroke="black" d="M696.92,-143.7C691.69,-135.56 685.35,-125.69 679.57,-116.7"/>
<polygon fill="black" stroke="black" points="682.39,-114.62 674.04,-108.1 676.5,-118.41 682.39,-114.62"/>
</g>
<!-- ast.Name object at 0x77b4d00e0290 -->
<g id="node32" class="node">
<title>ast.Name object at 0x77b4d00e0290</title>
<path fill="#66cdaa" stroke="black" d="M750.05,-108C750.05,-108 720.05,-108 720.05,-108 714.05,-108 708.05,-102 708.05,-96 708.05,-96 708.05,-84 708.05,-84 708.05,-78 714.05,-72 720.05,-72 720.05,-72 750.05,-72 750.05,-72 756.05,-72 762.05,-78 762.05,-84 762.05,-84 762.05,-96 762.05,-96 762.05,-102 756.05,-108 750.05,-108"/>
<text text-anchor="middle" x="735.05" y="-86.3" font-family="Times,serif" font-size="14.00">Name</text>
</g>
<!-- ast.Call object at 0x77b4d00e39d0&#45;&gt;ast.Name object at 0x77b4d00e0290 -->
<g id="edge40" class="edge">
<title>ast.Call object at 0x77b4d00e39d0&#45;&gt;ast.Name object at 0x77b4d00e0290</title>
<path fill="none" stroke="black" d="M714.72,-143.7C717.76,-135.81 721.43,-126.3 724.81,-117.55"/>
<polygon fill="black" stroke="black" points="728.11,-118.69 728.45,-108.1 721.58,-116.17 728.11,-118.69"/>
</g>
<!-- ast.Name object at 0x77b4d00e38d0&#45;&gt;ast.Load object at 0x77b4dcc02b50 -->
<g id="edge39" class="edge">
<title>ast.Name object at 0x77b4d00e38d0&#45;&gt;ast.Load object at 0x77b4dcc02b50</title>
<path fill="none" stroke="black" d="M663.05,-71.7C663.05,-63.98 663.05,-54.71 663.05,-46.11"/>
<polygon fill="black" stroke="black" points="666.55,-46.1 663.05,-36.1 659.55,-46.1 666.55,-46.1"/>
</g>
<!-- ast.Name object at 0x77b4d00e0290&#45;&gt;ast.Load object at 0x77b4dcc02b50 -->
<g id="edge41" class="edge">
<title>ast.Name object at 0x77b4d00e0290&#45;&gt;ast.Load object at 0x77b4dcc02b50</title>
<path fill="none" stroke="black" d="M717.25,-71.7C708.44,-63.14 697.66,-52.66 688.04,-43.3"/>
<polygon fill="black" stroke="black" points="690.25,-40.57 680.64,-36.1 685.37,-45.58 690.25,-40.57"/>
</g>
<!-- ast.Call object at 0x77b4d00e1350 -->
<g id="node34" class="node">
<title>ast.Call object at 0x77b4d00e1350</title>
<path fill="#66cdaa" stroke="black" d="M532.05,-324C532.05,-324 502.05,-324 502.05,-324 496.05,-324 490.05,-318 490.05,-312 490.05,-312 490.05,-300 490.05,-300 490.05,-294 496.05,-288 502.05,-288 502.05,-288 532.05,-288 532.05,-288 538.05,-288 544.05,-294 544.05,-300 544.05,-300 544.05,-312 544.05,-312 544.05,-318 538.05,-324 532.05,-324"/>
<text text-anchor="middle" x="517.05" y="-302.3" font-family="Times,serif" font-size="14.00">Call</text>
</g>
<!-- ast.Return object at 0x77b4d00e1d90&#45;&gt;ast.Call object at 0x77b4d00e1350 -->
<g id="edge43" class="edge">
<title>ast.Return object at 0x77b4d00e1d90&#45;&gt;ast.Call object at 0x77b4d00e1350</title>
<path fill="none" stroke="black" d="M616.8,-361.98C598.22,-351.74 573.41,-338.07 553.18,-326.92"/>
<polygon fill="black" stroke="black" points="554.69,-323.75 544.25,-321.99 551.31,-329.88 554.69,-323.75"/>
</g>
<!-- ast.Name object at 0x77b4d00e02d0 -->
<g id="node35" class="node">
<title>ast.Name object at 0x77b4d00e02d0</title>
<path fill="#66cdaa" stroke="black" d="M593.05,-252C593.05,-252 563.05,-252 563.05,-252 557.05,-252 551.05,-246 551.05,-240 551.05,-240 551.05,-228 551.05,-228 551.05,-222 557.05,-216 563.05,-216 563.05,-216 593.05,-216 593.05,-216 599.05,-216 605.05,-222 605.05,-228 605.05,-228 605.05,-240 605.05,-240 605.05,-246 599.05,-252 593.05,-252"/>
<text text-anchor="middle" x="578.05" y="-230.3" font-family="Times,serif" font-size="14.00">Name</text>
</g>
<!-- ast.Call object at 0x77b4d00e1350&#45;&gt;ast.Name object at 0x77b4d00e02d0 -->
<g id="edge44" class="edge">
<title>ast.Call object at 0x77b4d00e1350&#45;&gt;ast.Name object at 0x77b4d00e02d0</title>
<path fill="none" stroke="black" d="M532.12,-287.7C539.44,-279.3 548.36,-269.07 556.38,-259.86"/>
<polygon fill="black" stroke="black" points="559.21,-261.94 563.14,-252.1 553.93,-257.34 559.21,-261.94"/>
</g>
<!-- ast.Call object at 0x77b4d00e2990 -->
<g id="node36" class="node">
<title>ast.Call object at 0x77b4d00e2990</title>
<path fill="#66cdaa" stroke="black" d="M325.05,-252C325.05,-252 295.05,-252 295.05,-252 289.05,-252 283.05,-246 283.05,-240 283.05,-240 283.05,-228 283.05,-228 283.05,-222 289.05,-216 295.05,-216 295.05,-216 325.05,-216 325.05,-216 331.05,-216 337.05,-222 337.05,-228 337.05,-228 337.05,-240 337.05,-240 337.05,-246 331.05,-252 325.05,-252"/>
<text text-anchor="middle" x="310.05" y="-230.3" font-family="Times,serif" font-size="14.00">Call</text>
</g>
<!-- ast.Call object at 0x77b4d00e1350&#45;&gt;ast.Call object at 0x77b4d00e2990 -->
<g id="edge46" class="edge">
<title>ast.Call object at 0x77b4d00e1350&#45;&gt;ast.Call object at 0x77b4d00e2990</title>
<path fill="none" stroke="black" d="M489.98,-295.85C453.33,-283.46 387.79,-261.29 346.74,-247.41"/>
<polygon fill="black" stroke="black" points="347.71,-244.04 337.11,-244.15 345.47,-250.67 347.71,-244.04"/>
</g>
<!-- ast.Subscript object at 0x77b4d00e0a90 -->
<g id="node44" class="node">
<title>ast.Subscript object at 0x77b4d00e0a90</title>
<path fill="#66cdaa" stroke="black" d="M516.05,-180C516.05,-180 472.05,-180 472.05,-180 466.05,-180 460.05,-174 460.05,-168 460.05,-168 460.05,-156 460.05,-156 460.05,-150 466.05,-144 472.05,-144 472.05,-144 516.05,-144 516.05,-144 522.05,-144 528.05,-150 528.05,-156 528.05,-156 528.05,-168 528.05,-168 528.05,-174 522.05,-180 516.05,-180"/>
<text text-anchor="middle" x="494.05" y="-158.3" font-family="Times,serif" font-size="14.00">Subscript</text>
</g>
<!-- ast.Call object at 0x77b4d00e1350&#45;&gt;ast.Subscript object at 0x77b4d00e0a90 -->
<g id="edge59" class="edge">
<title>ast.Call object at 0x77b4d00e1350&#45;&gt;ast.Subscript object at 0x77b4d00e0a90</title>
<path fill="none" stroke="black" d="M514.27,-287.87C510.35,-263.67 503.15,-219.21 498.48,-190.39"/>
<polygon fill="black" stroke="black" points="501.88,-189.5 496.83,-180.19 494.97,-190.62 501.88,-189.5"/>
</g>
<!-- ast.Name object at 0x77b4d00e02d0&#45;&gt;ast.Load object at 0x77b4dcc02b50 -->
<g id="edge45" class="edge">
<title>ast.Name object at 0x77b4d00e02d0&#45;&gt;ast.Load object at 0x77b4dcc02b50</title>
<path fill="none" stroke="black" d="M581.46,-215.93C587.87,-185.83 603.22,-121.82 627.05,-72 631.53,-62.62 637.55,-53.02 643.37,-44.61"/>
<polygon fill="black" stroke="black" points="646.32,-46.51 649.3,-36.34 640.63,-42.43 646.32,-46.51"/>
</g>
<!-- ast.Name object at 0x77b4d00e2950 -->
<g id="node37" class="node">
<title>ast.Name object at 0x77b4d00e2950</title>
<path fill="#66cdaa" stroke="black" d="M378.05,-180C378.05,-180 348.05,-180 348.05,-180 342.05,-180 336.05,-174 336.05,-168 336.05,-168 336.05,-156 336.05,-156 336.05,-150 342.05,-144 348.05,-144 348.05,-144 378.05,-144 378.05,-144 384.05,-144 390.05,-150 390.05,-156 390.05,-156 390.05,-168 390.05,-168 390.05,-174 384.05,-180 378.05,-180"/>
<text text-anchor="middle" x="363.05" y="-158.3" font-family="Times,serif" font-size="14.00">Name</text>
</g>
<!-- ast.Call object at 0x77b4d00e2990&#45;&gt;ast.Name object at 0x77b4d00e2950 -->
<g id="edge47" class="edge">
<title>ast.Call object at 0x77b4d00e2990&#45;&gt;ast.Name object at 0x77b4d00e2950</title>
<path fill="none" stroke="black" d="M323.15,-215.7C329.44,-207.39 337.09,-197.28 344.01,-188.14"/>
<polygon fill="black" stroke="black" points="346.85,-190.19 350.09,-180.1 341.27,-185.96 346.85,-190.19"/>
</g>
<!-- ast.Subscript object at 0x77b4d00e23d0 -->
<g id="node38" class="node">
<title>ast.Subscript object at 0x77b4d00e23d0</title>
<path fill="#66cdaa" stroke="black" d="M279.05,-180C279.05,-180 235.05,-180 235.05,-180 229.05,-180 223.05,-174 223.05,-168 223.05,-168 223.05,-156 223.05,-156 223.05,-150 229.05,-144 235.05,-144 235.05,-144 279.05,-144 279.05,-144 285.05,-144 291.05,-150 291.05,-156 291.05,-156 291.05,-168 291.05,-168 291.05,-174 285.05,-180 279.05,-180"/>
<text text-anchor="middle" x="257.05" y="-158.3" font-family="Times,serif" font-size="14.00">Subscript</text>
</g>
<!-- ast.Call object at 0x77b4d00e2990&#45;&gt;ast.Subscript object at 0x77b4d00e23d0 -->
<g id="edge49" class="edge">
<title>ast.Call object at 0x77b4d00e2990&#45;&gt;ast.Subscript object at 0x77b4d00e23d0</title>
<path fill="none" stroke="black" d="M296.94,-215.7C290.65,-207.39 283,-197.28 276.08,-188.14"/>
<polygon fill="black" stroke="black" points="278.82,-185.96 270,-180.1 273.24,-190.19 278.82,-185.96"/>
</g>
<!-- ast.Subscript object at 0x77b4d00e14d0 -->
<g id="node41" class="node">
<title>ast.Subscript object at 0x77b4d00e14d0</title>
<path fill="#66cdaa" stroke="black" d="M104.05,-180C104.05,-180 60.05,-180 60.05,-180 54.05,-180 48.05,-174 48.05,-168 48.05,-168 48.05,-156 48.05,-156 48.05,-150 54.05,-144 60.05,-144 60.05,-144 104.05,-144 104.05,-144 110.05,-144 116.05,-150 116.05,-156 116.05,-156 116.05,-168 116.05,-168 116.05,-174 110.05,-180 104.05,-180"/>
<text text-anchor="middle" x="82.05" y="-158.3" font-family="Times,serif" font-size="14.00">Subscript</text>
</g>
<!-- ast.Call object at 0x77b4d00e2990&#45;&gt;ast.Subscript object at 0x77b4d00e14d0 -->
<g id="edge54" class="edge">
<title>ast.Call object at 0x77b4d00e2990&#45;&gt;ast.Subscript object at 0x77b4d00e14d0</title>
<path fill="none" stroke="black" d="M283,-224.7C244.2,-212.79 172.34,-190.72 125.89,-176.46"/>
<polygon fill="black" stroke="black" points="126.69,-173.04 116.1,-173.46 124.63,-179.74 126.69,-173.04"/>
</g>
<!-- ast.Name object at 0x77b4d00e2950&#45;&gt;ast.Load object at 0x77b4dcc02b50 -->
<g id="edge48" class="edge">
<title>ast.Name object at 0x77b4d00e2950&#45;&gt;ast.Load object at 0x77b4dcc02b50</title>
<path fill="none" stroke="black" d="M364.29,-143.78C366.72,-123.48 373.88,-90.2 395.05,-72 429.19,-42.63 560.18,-27.67 625.53,-21.9"/>
<polygon fill="black" stroke="black" points="626.14,-25.36 635.8,-21.02 625.54,-18.39 626.14,-25.36"/>
</g>
<!-- ast.Subscript object at 0x77b4d00e23d0&#45;&gt;ast.Load object at 0x77b4dcc02b50 -->
<g id="edge53" class="edge">
<title>ast.Subscript object at 0x77b4d00e23d0&#45;&gt;ast.Load object at 0x77b4dcc02b50</title>
<path fill="none" stroke="black" d="M233.25,-143.78C210.06,-124.95 181,-94.48 201.05,-72 229.2,-40.43 520.82,-25.03 625.72,-20.48"/>
<polygon fill="black" stroke="black" points="626.01,-23.97 635.85,-20.05 625.71,-16.98 626.01,-23.97"/>
</g>
<!-- ast.Name object at 0x77b4d00e20d0 -->
<g id="node39" class="node">
<title>ast.Name object at 0x77b4d00e20d0</title>
<path fill="#66cdaa" stroke="black" d="M336.05,-108C336.05,-108 306.05,-108 306.05,-108 300.05,-108 294.05,-102 294.05,-96 294.05,-96 294.05,-84 294.05,-84 294.05,-78 300.05,-72 306.05,-72 306.05,-72 336.05,-72 336.05,-72 342.05,-72 348.05,-78 348.05,-84 348.05,-84 348.05,-96 348.05,-96 348.05,-102 342.05,-108 336.05,-108"/>
<text text-anchor="middle" x="321.05" y="-86.3" font-family="Times,serif" font-size="14.00">Name</text>
</g>
<!-- ast.Subscript object at 0x77b4d00e23d0&#45;&gt;ast.Name object at 0x77b4d00e20d0 -->
<g id="edge50" class="edge">
<title>ast.Subscript object at 0x77b4d00e23d0&#45;&gt;ast.Name object at 0x77b4d00e20d0</title>
<path fill="none" stroke="black" d="M272.87,-143.7C280.62,-135.22 290.08,-124.86 298.57,-115.58"/>
<polygon fill="black" stroke="black" points="301.24,-117.85 305.41,-108.1 296.08,-113.12 301.24,-117.85"/>
</g>
<!-- ast.Constant object at 0x77b4d00e1cd0 -->
<g id="node40" class="node">
<title>ast.Constant object at 0x77b4d00e1cd0</title>
<path fill="#66cdaa" stroke="black" d="M263.55,-108C263.55,-108 222.55,-108 222.55,-108 216.55,-108 210.55,-102 210.55,-96 210.55,-96 210.55,-84 210.55,-84 210.55,-78 216.55,-72 222.55,-72 222.55,-72 263.55,-72 263.55,-72 269.55,-72 275.55,-78 275.55,-84 275.55,-84 275.55,-96 275.55,-96 275.55,-102 269.55,-108 263.55,-108"/>
<text text-anchor="middle" x="243.05" y="-86.3" font-family="Times,serif" font-size="14.00">Constant</text>
</g>
<!-- ast.Subscript object at 0x77b4d00e23d0&#45;&gt;ast.Constant object at 0x77b4d00e1cd0 -->
<g id="edge52" class="edge">
<title>ast.Subscript object at 0x77b4d00e23d0&#45;&gt;ast.Constant object at 0x77b4d00e1cd0</title>
<path fill="none" stroke="black" d="M253.58,-143.7C252.04,-135.98 250.19,-126.71 248.47,-118.11"/>
<polygon fill="black" stroke="black" points="251.86,-117.22 246.47,-108.1 245,-118.6 251.86,-117.22"/>
</g>
<!-- ast.Name object at 0x77b4d00e20d0&#45;&gt;ast.Load object at 0x77b4dcc02b50 -->
<g id="edge51" class="edge">
<title>ast.Name object at 0x77b4d00e20d0&#45;&gt;ast.Load object at 0x77b4dcc02b50</title>
<path fill="none" stroke="black" d="M348.09,-76.81C352.69,-75.02 357.46,-73.34 362.05,-72 455.08,-44.88 568.57,-29.48 625.97,-22.88"/>
<polygon fill="black" stroke="black" points="626.48,-26.35 636.02,-21.75 625.69,-19.39 626.48,-26.35"/>
</g>
<!-- ast.Subscript object at 0x77b4d00e14d0&#45;&gt;ast.Load object at 0x77b4dcc02b50 -->
<g id="edge58" class="edge">
<title>ast.Subscript object at 0x77b4d00e14d0&#45;&gt;ast.Load object at 0x77b4dcc02b50</title>
<path fill="none" stroke="black" d="M47.7,-145.97C32.31,-137.27 15.7,-124.71 7.05,-108 -0.31,-93.79 -3.8,-83.76 7.05,-72 49.14,-26.36 492.68,-20.02 625.61,-19.14"/>
<polygon fill="black" stroke="black" points="625.73,-22.64 635.71,-19.08 625.69,-15.64 625.73,-22.64"/>
</g>
<!-- ast.Name object at 0x77b4d00e0e50 -->
<g id="node42" class="node">
<title>ast.Name object at 0x77b4d00e0e50</title>
<path fill="#66cdaa" stroke="black" d="M58.05,-108C58.05,-108 28.05,-108 28.05,-108 22.05,-108 16.05,-102 16.05,-96 16.05,-96 16.05,-84 16.05,-84 16.05,-78 22.05,-72 28.05,-72 28.05,-72 58.05,-72 58.05,-72 64.05,-72 70.05,-78 70.05,-84 70.05,-84 70.05,-96 70.05,-96 70.05,-102 64.05,-108 58.05,-108"/>
<text text-anchor="middle" x="43.05" y="-86.3" font-family="Times,serif" font-size="14.00">Name</text>
</g>
<!-- ast.Subscript object at 0x77b4d00e14d0&#45;&gt;ast.Name object at 0x77b4d00e0e50 -->
<g id="edge55" class="edge">
<title>ast.Subscript object at 0x77b4d00e14d0&#45;&gt;ast.Name object at 0x77b4d00e0e50</title>
<path fill="none" stroke="black" d="M72.4,-143.7C67.92,-135.64 62.49,-125.89 57.52,-116.98"/>
<polygon fill="black" stroke="black" points="60.5,-115.14 52.57,-108.1 54.38,-118.54 60.5,-115.14"/>
</g>
<!-- ast.Constant object at 0x77b4d00e0c50 -->
<g id="node43" class="node">
<title>ast.Constant object at 0x77b4d00e0c50</title>
<path fill="#66cdaa" stroke="black" d="M141.55,-108C141.55,-108 100.55,-108 100.55,-108 94.55,-108 88.55,-102 88.55,-96 88.55,-96 88.55,-84 88.55,-84 88.55,-78 94.55,-72 100.55,-72 100.55,-72 141.55,-72 141.55,-72 147.55,-72 153.55,-78 153.55,-84 153.55,-84 153.55,-96 153.55,-96 153.55,-102 147.55,-108 141.55,-108"/>
<text text-anchor="middle" x="121.05" y="-86.3" font-family="Times,serif" font-size="14.00">Constant</text>
</g>
<!-- ast.Subscript object at 0x77b4d00e14d0&#45;&gt;ast.Constant object at 0x77b4d00e0c50 -->
<g id="edge57" class="edge">
<title>ast.Subscript object at 0x77b4d00e14d0&#45;&gt;ast.Constant object at 0x77b4d00e0c50</title>
<path fill="none" stroke="black" d="M91.69,-143.7C96.17,-135.64 101.6,-125.89 106.57,-116.98"/>
<polygon fill="black" stroke="black" points="109.71,-118.54 111.52,-108.1 103.59,-115.14 109.71,-118.54"/>
</g>
<!-- ast.Name object at 0x77b4d00e0e50&#45;&gt;ast.Load object at 0x77b4dcc02b50 -->
<g id="edge56" class="edge">
<title>ast.Name object at 0x77b4d00e0e50&#45;&gt;ast.Load object at 0x77b4dcc02b50</title>
<path fill="none" stroke="black" d="M70.18,-74.98C73.12,-73.83 76.11,-72.8 79.05,-72 183.01,-43.69 514.31,-25.96 625.93,-20.67"/>
<polygon fill="black" stroke="black" points="626.21,-24.16 636.03,-20.2 625.88,-17.17 626.21,-24.16"/>
</g>
<!-- ast.Subscript object at 0x77b4d00e0a90&#45;&gt;ast.Load object at 0x77b4dcc02b50 -->
<g id="edge63" class="edge">
<title>ast.Subscript object at 0x77b4d00e0a90&#45;&gt;ast.Load object at 0x77b4dcc02b50</title>
<path fill="none" stroke="black" d="M491.18,-143.86C488.93,-124.25 488.5,-92.25 505.05,-72 534.37,-36.11 588.86,-24.38 625.54,-20.63"/>
<polygon fill="black" stroke="black" points="626.18,-24.09 635.84,-19.74 625.57,-17.12 626.18,-24.09"/>
</g>
<!-- ast.Name object at 0x77b4d00e0810 -->
<g id="node45" class="node">
<title>ast.Name object at 0x77b4d00e0810</title>
<path fill="#66cdaa" stroke="black" d="M446.05,-108C446.05,-108 416.05,-108 416.05,-108 410.05,-108 404.05,-102 404.05,-96 404.05,-96 404.05,-84 404.05,-84 404.05,-78 410.05,-72 416.05,-72 416.05,-72 446.05,-72 446.05,-72 452.05,-72 458.05,-78 458.05,-84 458.05,-84 458.05,-96 458.05,-96 458.05,-102 452.05,-108 446.05,-108"/>
<text text-anchor="middle" x="431.05" y="-86.3" font-family="Times,serif" font-size="14.00">Name</text>
</g>
<!-- ast.Subscript object at 0x77b4d00e0a90&#45;&gt;ast.Name object at 0x77b4d00e0810 -->
<g id="edge60" class="edge">
<title>ast.Subscript object at 0x77b4d00e0a90&#45;&gt;ast.Name object at 0x77b4d00e0810</title>
<path fill="none" stroke="black" d="M478.47,-143.7C470.84,-135.22 461.52,-124.86 453.17,-115.58"/>
<polygon fill="black" stroke="black" points="455.73,-113.2 446.44,-108.1 450.53,-117.88 455.73,-113.2"/>
</g>
<!-- ast.Constant object at 0x77b4d00e0650 -->
<g id="node46" class="node">
<title>ast.Constant object at 0x77b4d00e0650</title>
<path fill="#66cdaa" stroke="black" d="M567.55,-108C567.55,-108 526.55,-108 526.55,-108 520.55,-108 514.55,-102 514.55,-96 514.55,-96 514.55,-84 514.55,-84 514.55,-78 520.55,-72 526.55,-72 526.55,-72 567.55,-72 567.55,-72 573.55,-72 579.55,-78 579.55,-84 579.55,-84 579.55,-96 579.55,-96 579.55,-102 573.55,-108 567.55,-108"/>
<text text-anchor="middle" x="547.05" y="-86.3" font-family="Times,serif" font-size="14.00">Constant</text>
</g>
<!-- ast.Subscript object at 0x77b4d00e0a90&#45;&gt;ast.Constant object at 0x77b4d00e0650 -->
<g id="edge62" class="edge">
<title>ast.Subscript object at 0x77b4d00e0a90&#45;&gt;ast.Constant object at 0x77b4d00e0650</title>
<path fill="none" stroke="black" d="M507.15,-143.7C513.44,-135.39 521.09,-125.28 528.01,-116.14"/>
<polygon fill="black" stroke="black" points="530.85,-118.19 534.09,-108.1 525.27,-113.96 530.85,-118.19"/>
</g>
<!-- ast.Name object at 0x77b4d00e0810&#45;&gt;ast.Load object at 0x77b4dcc02b50 -->
<g id="edge61" class="edge">
<title>ast.Name object at 0x77b4d00e0810&#45;&gt;ast.Load object at 0x77b4dcc02b50</title>
<path fill="none" stroke="black" d="M458.21,-77.19C462.79,-75.36 467.53,-73.56 472.05,-72 524.76,-53.83 587.25,-37.43 626.04,-27.84"/>
<polygon fill="black" stroke="black" points="626.96,-31.22 635.84,-25.43 625.29,-24.42 626.96,-31.22"/>
</g>
<!-- ast.Constant object at 0x77b4d00e03d0 -->
<g id="node48" class="node">
<title>ast.Constant object at 0x77b4d00e03d0</title>
<path fill="#66cdaa" stroke="black" d="M738.55,-324C738.55,-324 697.55,-324 697.55,-324 691.55,-324 685.55,-318 685.55,-312 685.55,-312 685.55,-300 685.55,-300 685.55,-294 691.55,-288 697.55,-288 697.55,-288 738.55,-288 738.55,-288 744.55,-288 750.55,-294 750.55,-300 750.55,-300 750.55,-312 750.55,-312 750.55,-318 744.55,-324 738.55,-324"/>
<text text-anchor="middle" x="718.05" y="-302.3" font-family="Times,serif" font-size="14.00">Constant</text>
</g>
<!-- ast.Return object at 0x77b4d00e0550&#45;&gt;ast.Constant object at 0x77b4d00e03d0 -->
<g id="edge65" class="edge">
<title>ast.Return object at 0x77b4d00e0550&#45;&gt;ast.Constant object at 0x77b4d00e03d0</title>
<path fill="none" stroke="black" d="M721.06,-359.7C720.62,-351.98 720.09,-342.71 719.59,-334.11"/>
<polygon fill="black" stroke="black" points="723.09,-333.89 719.02,-324.1 716.1,-334.29 723.09,-333.89"/>
</g>
</g>
</svg>
