<?xml version="1.0" encoding="UTF-8" standalone="no"?>
<!DOCTYPE svg PUBLIC "-//W3C//DTD SVG 1.1//EN"
 "http://www.w3.org/Graphics/SVG/1.1/DTD/svg11.dtd">
<!-- Generated by graphviz version 2.50.0 (0)
 -->
<!-- Pages: 1 -->
<svg width="903pt" height="620pt"
 viewBox="0.00 0.00 902.50 620.00" xmlns="http://www.w3.org/2000/svg" xmlns:xlink="http://www.w3.org/1999/xlink">
<g id="graph0" class="graph" transform="scale(1 1) rotate(0) translate(4 616)">
<polygon fill="white" stroke="transparent" points="-4,4 -4,-616 898.5,-616 898.5,4 -4,4"/>
<!-- ast.Module object at 0x7250e3a78290 -->
<g id="node1" class="node">
<title>ast.Module object at 0x7250e3a78290</title>
<path fill="#66cdaa" stroke="black" d="M389.5,-612C389.5,-612 354.5,-612 354.5,-612 348.5,-612 342.5,-606 342.5,-600 342.5,-600 342.5,-588 342.5,-588 342.5,-582 348.5,-576 354.5,-576 354.5,-576 389.5,-576 389.5,-576 395.5,-576 401.5,-582 401.5,-588 401.5,-588 401.5,-600 401.5,-600 401.5,-606 395.5,-612 389.5,-612"/>
<text text-anchor="middle" x="372" y="-590.3" font-family="Times,serif" font-size="14.00">Module</text>
</g>
<!-- ast.FunctionDef object at 0x7250e3a78690 -->
<g id="node2" class="node">
<title>ast.FunctionDef object at 0x7250e3a78690</title>
<path fill="#66cdaa" stroke="black" d="M402.5,-540C402.5,-540 341.5,-540 341.5,-540 335.5,-540 329.5,-534 329.5,-528 329.5,-528 329.5,-516 329.5,-516 329.5,-510 335.5,-504 341.5,-504 341.5,-504 402.5,-504 402.5,-504 408.5,-504 414.5,-510 414.5,-516 414.5,-516 414.5,-528 414.5,-528 414.5,-534 408.5,-540 402.5,-540"/>
<text text-anchor="middle" x="372" y="-518.3" font-family="Times,serif" font-size="14.00">FunctionDef</text>
</g>
<!-- ast.Module object at 0x7250e3a78290&#45;&gt;ast.FunctionDef object at 0x7250e3a78690 -->
<g id="edge1" class="edge">
<title>ast.Module object at 0x7250e3a78290&#45;&gt;ast.FunctionDef object at 0x7250e3a78690</title>
<path fill="none" stroke="black" d="M372,-575.7C372,-567.98 372,-558.71 372,-550.11"/>
<polygon fill="black" stroke="black" points="375.5,-550.1 372,-540.1 368.5,-550.1 375.5,-550.1"/>
</g>
<!-- ast.arguments object at 0x7250e3a786d0 -->
<g id="node3" class="node">
<title>ast.arguments object at 0x7250e3a786d0</title>
<path fill="#66cdaa" stroke="black" d="M305,-468C305,-468 255,-468 255,-468 249,-468 243,-462 243,-456 243,-456 243,-444 243,-444 243,-438 249,-432 255,-432 255,-432 305,-432 305,-432 311,-432 317,-438 317,-444 317,-444 317,-456 317,-456 317,-462 311,-468 305,-468"/>
<text text-anchor="middle" x="280" y="-446.3" font-family="Times,serif" font-size="14.00">arguments</text>
</g>
<!-- ast.FunctionDef object at 0x7250e3a78690&#45;&gt;ast.arguments object at 0x7250e3a786d0 -->
<g id="edge2" class="edge">
<title>ast.FunctionDef object at 0x7250e3a78690&#45;&gt;ast.arguments object at 0x7250e3a786d0</title>
<path fill="none" stroke="black" d="M349.26,-503.7C337.56,-494.8 323.14,-483.82 310.49,-474.2"/>
<polygon fill="black" stroke="black" points="312.56,-471.37 302.48,-468.1 308.32,-476.94 312.56,-471.37"/>
</g>
<!-- ast.Assign object at 0x7250e3a79250 -->
<g id="node5" class="node">
<title>ast.Assign object at 0x7250e3a79250</title>
<path fill="#66cdaa" stroke="black" d="M173,-324C173,-324 143,-324 143,-324 137,-324 131,-318 131,-312 131,-312 131,-300 131,-300 131,-294 137,-288 143,-288 143,-288 173,-288 173,-288 179,-288 185,-294 185,-300 185,-300 185,-312 185,-312 185,-318 179,-324 173,-324"/>
<text text-anchor="middle" x="158" y="-302.3" font-family="Times,serif" font-size="14.00">Assign</text>
</g>
<!-- ast.FunctionDef object at 0x7250e3a78690&#45;&gt;ast.Assign object at 0x7250e3a79250 -->
<g id="edge4" class="edge">
<title>ast.FunctionDef object at 0x7250e3a78690&#45;&gt;ast.Assign object at 0x7250e3a79250</title>
<path fill="none" stroke="black" d="M368.09,-503.97C359.27,-466.94 336.99,-380.76 316,-360 283.42,-327.78 230.68,-315.14 195.2,-310.19"/>
<polygon fill="black" stroke="black" points="195.59,-306.71 185.23,-308.93 194.71,-313.65 195.59,-306.71"/>
</g>
<!-- ast.Expr object at 0x7250e41b4b90 -->
<g id="node14" class="node">
<title>ast.Expr object at 0x7250e41b4b90</title>
<path fill="#66cdaa" stroke="black" d="M415,-468C415,-468 385,-468 385,-468 379,-468 373,-462 373,-456 373,-456 373,-444 373,-444 373,-438 379,-432 385,-432 385,-432 415,-432 415,-432 421,-432 427,-438 427,-444 427,-444 427,-456 427,-456 427,-462 421,-468 415,-468"/>
<text text-anchor="middle" x="400" y="-446.3" font-family="Times,serif" font-size="14.00">Expr</text>
</g>
<!-- ast.FunctionDef object at 0x7250e3a78690&#45;&gt;ast.Expr object at 0x7250e41b4b90 -->
<g id="edge15" class="edge">
<title>ast.FunctionDef object at 0x7250e3a78690&#45;&gt;ast.Expr object at 0x7250e41b4b90</title>
<path fill="none" stroke="black" d="M378.92,-503.7C382.07,-495.81 385.88,-486.3 389.38,-477.55"/>
<polygon fill="black" stroke="black" points="392.69,-478.69 393.16,-468.1 386.19,-476.09 392.69,-478.69"/>
</g>
<!-- ast.Return object at 0x7250e41b6150 -->
<g id="node25" class="node">
<title>ast.Return object at 0x7250e41b6150</title>
<path fill="#66cdaa" stroke="black" d="M533,-468C533,-468 503,-468 503,-468 497,-468 491,-462 491,-456 491,-456 491,-444 491,-444 491,-438 497,-432 503,-432 503,-432 533,-432 533,-432 539,-432 545,-438 545,-444 545,-444 545,-456 545,-456 545,-462 539,-468 533,-468"/>
<text text-anchor="middle" x="518" y="-446.3" font-family="Times,serif" font-size="14.00">Return</text>
</g>
<!-- ast.FunctionDef object at 0x7250e3a78690&#45;&gt;ast.Return object at 0x7250e41b6150 -->
<g id="edge30" class="edge">
<title>ast.FunctionDef object at 0x7250e3a78690&#45;&gt;ast.Return object at 0x7250e41b6150</title>
<path fill="none" stroke="black" d="M407.72,-503.88C430.17,-493.11 459.06,-479.26 481.64,-468.43"/>
<polygon fill="black" stroke="black" points="483.39,-471.48 490.89,-464 480.36,-465.16 483.39,-471.48"/>
</g>
<!-- ast.arg object at 0x7250e4059950 -->
<g id="node4" class="node">
<title>ast.arg object at 0x7250e4059950</title>
<path fill="#66cdaa" stroke="black" d="M295,-396C295,-396 265,-396 265,-396 259,-396 253,-390 253,-384 253,-384 253,-372 253,-372 253,-366 259,-360 265,-360 265,-360 295,-360 295,-360 301,-360 307,-366 307,-372 307,-372 307,-384 307,-384 307,-390 301,-396 295,-396"/>
<text text-anchor="middle" x="280" y="-374.3" font-family="Times,serif" font-size="14.00">arg</text>
</g>
<!-- ast.arguments object at 0x7250e3a786d0&#45;&gt;ast.arg object at 0x7250e4059950 -->
<g id="edge3" class="edge">
<title>ast.arguments object at 0x7250e3a786d0&#45;&gt;ast.arg object at 0x7250e4059950</title>
<path fill="none" stroke="black" d="M280,-431.7C280,-423.98 280,-414.71 280,-406.11"/>
<polygon fill="black" stroke="black" points="283.5,-406.1 280,-396.1 276.5,-406.1 283.5,-406.1"/>
</g>
<!-- ast.Name object at 0x7250e40e8990 -->
<g id="node6" class="node">
<title>ast.Name object at 0x7250e40e8990</title>
<path fill="#66cdaa" stroke="black" d="M42,-252C42,-252 12,-252 12,-252 6,-252 0,-246 0,-240 0,-240 0,-228 0,-228 0,-222 6,-216 12,-216 12,-216 42,-216 42,-216 48,-216 54,-222 54,-228 54,-228 54,-240 54,-240 54,-246 48,-252 42,-252"/>
<text text-anchor="middle" x="27" y="-230.3" font-family="Times,serif" font-size="14.00">Name</text>
</g>
<!-- ast.Assign object at 0x7250e3a79250&#45;&gt;ast.Name object at 0x7250e40e8990 -->
<g id="edge5" class="edge">
<title>ast.Assign object at 0x7250e3a79250&#45;&gt;ast.Name object at 0x7250e40e8990</title>
<path fill="none" stroke="black" d="M130.86,-290.5C111.18,-279.98 84.38,-265.66 62.94,-254.2"/>
<polygon fill="black" stroke="black" points="64.58,-251.11 54.11,-249.49 61.28,-257.29 64.58,-251.11"/>
</g>
<!-- ast.ListComp object at 0x7250e40e8fd0 -->
<g id="node8" class="node">
<title>ast.ListComp object at 0x7250e40e8fd0</title>
<path fill="#66cdaa" stroke="black" d="M181.5,-252C181.5,-252 134.5,-252 134.5,-252 128.5,-252 122.5,-246 122.5,-240 122.5,-240 122.5,-228 122.5,-228 122.5,-222 128.5,-216 134.5,-216 134.5,-216 181.5,-216 181.5,-216 187.5,-216 193.5,-222 193.5,-228 193.5,-228 193.5,-240 193.5,-240 193.5,-246 187.5,-252 181.5,-252"/>
<text text-anchor="middle" x="158" y="-230.3" font-family="Times,serif" font-size="14.00">ListComp</text>
</g>
<!-- ast.Assign object at 0x7250e3a79250&#45;&gt;ast.ListComp object at 0x7250e40e8fd0 -->
<g id="edge7" class="edge">
<title>ast.Assign object at 0x7250e3a79250&#45;&gt;ast.ListComp object at 0x7250e40e8fd0</title>
<path fill="none" stroke="black" d="M158,-287.7C158,-279.98 158,-270.71 158,-262.11"/>
<polygon fill="black" stroke="black" points="161.5,-262.1 158,-252.1 154.5,-262.1 161.5,-262.1"/>
</g>
<!-- ast.Store object at 0x7250e57a9bd0 -->
<g id="node7" class="node">
<title>ast.Store object at 0x7250e57a9bd0</title>
<path fill="#66cdaa" stroke="black" d="M44,-36C44,-36 14,-36 14,-36 8,-36 2,-30 2,-24 2,-24 2,-12 2,-12 2,-6 8,0 14,0 14,0 44,0 44,0 50,0 56,-6 56,-12 56,-12 56,-24 56,-24 56,-30 50,-36 44,-36"/>
<text text-anchor="middle" x="29" y="-14.3" font-family="Times,serif" font-size="14.00">Store</text>
</g>
<!-- ast.Name object at 0x7250e40e8990&#45;&gt;ast.Store object at 0x7250e57a9bd0 -->
<g id="edge6" class="edge">
<title>ast.Name object at 0x7250e40e8990&#45;&gt;ast.Store object at 0x7250e57a9bd0</title>
<path fill="none" stroke="black" d="M24.79,-215.58C21.37,-186.01 15.61,-124.13 20,-72 20.72,-63.5 22.07,-54.31 23.51,-46.01"/>
<polygon fill="black" stroke="black" points="26.97,-46.56 25.35,-36.09 20.09,-45.29 26.97,-46.56"/>
</g>
<!-- ast.Name object at 0x7250e3f81e90 -->
<g id="node9" class="node">
<title>ast.Name object at 0x7250e3f81e90</title>
<path fill="#66cdaa" stroke="black" d="M198,-180C198,-180 168,-180 168,-180 162,-180 156,-174 156,-168 156,-168 156,-156 156,-156 156,-150 162,-144 168,-144 168,-144 198,-144 198,-144 204,-144 210,-150 210,-156 210,-156 210,-168 210,-168 210,-174 204,-180 198,-180"/>
<text text-anchor="middle" x="183" y="-158.3" font-family="Times,serif" font-size="14.00">Name</text>
</g>
<!-- ast.ListComp object at 0x7250e40e8fd0&#45;&gt;ast.Name object at 0x7250e3f81e90 -->
<g id="edge8" class="edge">
<title>ast.ListComp object at 0x7250e40e8fd0&#45;&gt;ast.Name object at 0x7250e3f81e90</title>
<path fill="none" stroke="black" d="M164.18,-215.7C167,-207.81 170.39,-198.3 173.52,-189.55"/>
<polygon fill="black" stroke="black" points="176.82,-190.7 176.89,-180.1 170.23,-188.34 176.82,-190.7"/>
</g>
<!-- ast.comprehension object at 0x7250e40b0fd0 -->
<g id="node11" class="node">
<title>ast.comprehension object at 0x7250e40b0fd0</title>
<path fill="#66cdaa" stroke="black" d="M126,-180C126,-180 50,-180 50,-180 44,-180 38,-174 38,-168 38,-168 38,-156 38,-156 38,-150 44,-144 50,-144 50,-144 126,-144 126,-144 132,-144 138,-150 138,-156 138,-156 138,-168 138,-168 138,-174 132,-180 126,-180"/>
<text text-anchor="middle" x="88" y="-158.3" font-family="Times,serif" font-size="14.00">comprehension</text>
</g>
<!-- ast.ListComp object at 0x7250e40e8fd0&#45;&gt;ast.comprehension object at 0x7250e40b0fd0 -->
<g id="edge10" class="edge">
<title>ast.ListComp object at 0x7250e40e8fd0&#45;&gt;ast.comprehension object at 0x7250e40b0fd0</title>
<path fill="none" stroke="black" d="M140.7,-215.7C132.14,-207.14 121.66,-196.66 112.3,-187.3"/>
<polygon fill="black" stroke="black" points="114.65,-184.7 105.1,-180.1 109.7,-189.65 114.65,-184.7"/>
</g>
<!-- ast.Load object at 0x7250e57a9b50 -->
<g id="node10" class="node">
<title>ast.Load object at 0x7250e57a9b50</title>
<path fill="#66cdaa" stroke="black" d="M524,-36C524,-36 494,-36 494,-36 488,-36 482,-30 482,-24 482,-24 482,-12 482,-12 482,-6 488,0 494,0 494,0 524,0 524,0 530,0 536,-6 536,-12 536,-12 536,-24 536,-24 536,-30 530,-36 524,-36"/>
<text text-anchor="middle" x="509" y="-14.3" font-family="Times,serif" font-size="14.00">Load</text>
</g>
<!-- ast.Name object at 0x7250e3f81e90&#45;&gt;ast.Load object at 0x7250e57a9b50 -->
<g id="edge9" class="edge">
<title>ast.Name object at 0x7250e3f81e90&#45;&gt;ast.Load object at 0x7250e57a9b50</title>
<path fill="none" stroke="black" d="M181.44,-143.92C180.61,-123.75 182.64,-90.61 202,-72 240,-35.47 398.1,-23.84 471.39,-20.37"/>
<polygon fill="black" stroke="black" points="471.73,-23.86 481.57,-19.92 471.42,-16.87 471.73,-23.86"/>
</g>
<!-- ast.Name object at 0x7250e41b5c90 -->
<g id="node12" class="node">
<title>ast.Name object at 0x7250e41b5c90</title>
<path fill="#66cdaa" stroke="black" d="M71,-108C71,-108 41,-108 41,-108 35,-108 29,-102 29,-96 29,-96 29,-84 29,-84 29,-78 35,-72 41,-72 41,-72 71,-72 71,-72 77,-72 83,-78 83,-84 83,-84 83,-96 83,-96 83,-102 77,-108 71,-108"/>
<text text-anchor="middle" x="56" y="-86.3" font-family="Times,serif" font-size="14.00">Name</text>
</g>
<!-- ast.comprehension object at 0x7250e40b0fd0&#45;&gt;ast.Name object at 0x7250e41b5c90 -->
<g id="edge11" class="edge">
<title>ast.comprehension object at 0x7250e40b0fd0&#45;&gt;ast.Name object at 0x7250e41b5c90</title>
<path fill="none" stroke="black" d="M80.09,-143.7C76.45,-135.73 72.05,-126.1 68.01,-117.26"/>
<polygon fill="black" stroke="black" points="71.16,-115.74 63.82,-108.1 64.79,-118.65 71.16,-115.74"/>
</g>
<!-- ast.Name object at 0x7250e41b5f10 -->
<g id="node13" class="node">
<title>ast.Name object at 0x7250e41b5f10</title>
<path fill="#66cdaa" stroke="black" d="M143,-108C143,-108 113,-108 113,-108 107,-108 101,-102 101,-96 101,-96 101,-84 101,-84 101,-78 107,-72 113,-72 113,-72 143,-72 143,-72 149,-72 155,-78 155,-84 155,-84 155,-96 155,-96 155,-102 149,-108 143,-108"/>
<text text-anchor="middle" x="128" y="-86.3" font-family="Times,serif" font-size="14.00">Name</text>
</g>
<!-- ast.comprehension object at 0x7250e40b0fd0&#45;&gt;ast.Name object at 0x7250e41b5f10 -->
<g id="edge13" class="edge">
<title>ast.comprehension object at 0x7250e40b0fd0&#45;&gt;ast.Name object at 0x7250e41b5f10</title>
<path fill="none" stroke="black" d="M97.89,-143.7C102.49,-135.64 108.06,-125.89 113.15,-116.98"/>
<polygon fill="black" stroke="black" points="116.3,-118.52 118.23,-108.1 110.23,-115.05 116.3,-118.52"/>
</g>
<!-- ast.Name object at 0x7250e41b5c90&#45;&gt;ast.Store object at 0x7250e57a9bd0 -->
<g id="edge12" class="edge">
<title>ast.Name object at 0x7250e41b5c90&#45;&gt;ast.Store object at 0x7250e57a9bd0</title>
<path fill="none" stroke="black" d="M49.33,-71.7C46.29,-63.81 42.62,-54.3 39.24,-45.55"/>
<polygon fill="black" stroke="black" points="42.46,-44.17 35.6,-36.1 35.93,-46.69 42.46,-44.17"/>
</g>
<!-- ast.Name object at 0x7250e41b5f10&#45;&gt;ast.Load object at 0x7250e57a9b50 -->
<g id="edge14" class="edge">
<title>ast.Name object at 0x7250e41b5f10&#45;&gt;ast.Load object at 0x7250e57a9b50</title>
<path fill="none" stroke="black" d="M155.03,-76.73C159.62,-74.96 164.4,-73.29 169,-72 276.38,-41.84 407.97,-27.48 471.35,-21.92"/>
<polygon fill="black" stroke="black" points="471.98,-25.38 481.65,-21.04 471.38,-18.4 471.98,-25.38"/>
</g>
<!-- ast.Call object at 0x7250e41b62d0 -->
<g id="node15" class="node">
<title>ast.Call object at 0x7250e41b62d0</title>
<path fill="#66cdaa" stroke="black" d="M415,-396C415,-396 385,-396 385,-396 379,-396 373,-390 373,-384 373,-384 373,-372 373,-372 373,-366 379,-360 385,-360 385,-360 415,-360 415,-360 421,-360 427,-366 427,-372 427,-372 427,-384 427,-384 427,-390 421,-396 415,-396"/>
<text text-anchor="middle" x="400" y="-374.3" font-family="Times,serif" font-size="14.00">Call</text>
</g>
<!-- ast.Expr object at 0x7250e41b4b90&#45;&gt;ast.Call object at 0x7250e41b62d0 -->
<g id="edge16" class="edge">
<title>ast.Expr object at 0x7250e41b4b90&#45;&gt;ast.Call object at 0x7250e41b62d0</title>
<path fill="none" stroke="black" d="M400,-431.7C400,-423.98 400,-414.71 400,-406.11"/>
<polygon fill="black" stroke="black" points="403.5,-406.1 400,-396.1 396.5,-406.1 403.5,-406.1"/>
</g>
<!-- ast.Attribute object at 0x7250e41b41d0 -->
<g id="node16" class="node">
<title>ast.Attribute object at 0x7250e41b41d0</title>
<path fill="#66cdaa" stroke="black" d="M490.5,-180C490.5,-180 449.5,-180 449.5,-180 443.5,-180 437.5,-174 437.5,-168 437.5,-168 437.5,-156 437.5,-156 437.5,-150 443.5,-144 449.5,-144 449.5,-144 490.5,-144 490.5,-144 496.5,-144 502.5,-150 502.5,-156 502.5,-156 502.5,-168 502.5,-168 502.5,-174 496.5,-180 490.5,-180"/>
<text text-anchor="middle" x="470" y="-158.3" font-family="Times,serif" font-size="14.00">Attribute</text>
</g>
<!-- ast.Call object at 0x7250e41b62d0&#45;&gt;ast.Attribute object at 0x7250e41b41d0 -->
<g id="edge17" class="edge">
<title>ast.Call object at 0x7250e41b62d0&#45;&gt;ast.Attribute object at 0x7250e41b41d0</title>
<path fill="none" stroke="black" d="M410.81,-359.87C416.83,-349.74 424.08,-336.49 429,-324 446.84,-278.67 458.99,-223.07 465.19,-190.48"/>
<polygon fill="black" stroke="black" points="468.68,-190.83 467.06,-180.36 461.8,-189.56 468.68,-190.83"/>
</g>
<!-- ast.keyword object at 0x7250e41b5810 -->
<g id="node18" class="node">
<title>ast.keyword object at 0x7250e41b5810</title>
<path fill="#66cdaa" stroke="black" d="M408,-324C408,-324 368,-324 368,-324 362,-324 356,-318 356,-312 356,-312 356,-300 356,-300 356,-294 362,-288 368,-288 368,-288 408,-288 408,-288 414,-288 420,-294 420,-300 420,-300 420,-312 420,-312 420,-318 414,-324 408,-324"/>
<text text-anchor="middle" x="388" y="-302.3" font-family="Times,serif" font-size="14.00">keyword</text>
</g>
<!-- ast.Call object at 0x7250e41b62d0&#45;&gt;ast.keyword object at 0x7250e41b5810 -->
<g id="edge21" class="edge">
<title>ast.Call object at 0x7250e41b62d0&#45;&gt;ast.keyword object at 0x7250e41b5810</title>
<path fill="none" stroke="black" d="M397.03,-359.7C395.71,-351.98 394.12,-342.71 392.65,-334.11"/>
<polygon fill="black" stroke="black" points="396.07,-333.37 390.93,-324.1 389.17,-334.55 396.07,-333.37"/>
</g>
<!-- ast.Attribute object at 0x7250e41b41d0&#45;&gt;ast.Load object at 0x7250e57a9b50 -->
<g id="edge20" class="edge">
<title>ast.Attribute object at 0x7250e41b41d0&#45;&gt;ast.Load object at 0x7250e57a9b50</title>
<path fill="none" stroke="black" d="M477.34,-143.56C481.45,-133.33 486.45,-120.08 490,-108 496,-87.57 500.95,-63.98 504.29,-46.22"/>
<polygon fill="black" stroke="black" points="507.76,-46.72 506.11,-36.25 500.87,-45.46 507.76,-46.72"/>
</g>
<!-- ast.Name object at 0x7250e41b5fd0 -->
<g id="node17" class="node">
<title>ast.Name object at 0x7250e41b5fd0</title>
<path fill="#66cdaa" stroke="black" d="M469,-108C469,-108 439,-108 439,-108 433,-108 427,-102 427,-96 427,-96 427,-84 427,-84 427,-78 433,-72 439,-72 439,-72 469,-72 469,-72 475,-72 481,-78 481,-84 481,-84 481,-96 481,-96 481,-102 475,-108 469,-108"/>
<text text-anchor="middle" x="454" y="-86.3" font-family="Times,serif" font-size="14.00">Name</text>
</g>
<!-- ast.Attribute object at 0x7250e41b41d0&#45;&gt;ast.Name object at 0x7250e41b5fd0 -->
<g id="edge18" class="edge">
<title>ast.Attribute object at 0x7250e41b41d0&#45;&gt;ast.Name object at 0x7250e41b5fd0</title>
<path fill="none" stroke="black" d="M466.04,-143.7C464.28,-135.98 462.16,-126.71 460.2,-118.11"/>
<polygon fill="black" stroke="black" points="463.55,-117.07 457.91,-108.1 456.73,-118.63 463.55,-117.07"/>
</g>
<!-- ast.Name object at 0x7250e41b5fd0&#45;&gt;ast.Load object at 0x7250e57a9b50 -->
<g id="edge19" class="edge">
<title>ast.Name object at 0x7250e41b5fd0&#45;&gt;ast.Load object at 0x7250e57a9b50</title>
<path fill="none" stroke="black" d="M467.6,-71.7C474.12,-63.39 482.07,-53.28 489.25,-44.14"/>
<polygon fill="black" stroke="black" points="492.13,-46.13 495.56,-36.1 486.63,-41.81 492.13,-46.13"/>
</g>
<!-- ast.Lambda object at 0x7250e41b4b10 -->
<g id="node19" class="node">
<title>ast.Lambda object at 0x7250e41b4b10</title>
<path fill="#66cdaa" stroke="black" d="M401,-252C401,-252 363,-252 363,-252 357,-252 351,-246 351,-240 351,-240 351,-228 351,-228 351,-222 357,-216 363,-216 363,-216 401,-216 401,-216 407,-216 413,-222 413,-228 413,-228 413,-240 413,-240 413,-246 407,-252 401,-252"/>
<text text-anchor="middle" x="382" y="-230.3" font-family="Times,serif" font-size="14.00">Lambda</text>
</g>
<!-- ast.keyword object at 0x7250e41b5810&#45;&gt;ast.Lambda object at 0x7250e41b4b10 -->
<g id="edge22" class="edge">
<title>ast.keyword object at 0x7250e41b5810&#45;&gt;ast.Lambda object at 0x7250e41b4b10</title>
<path fill="none" stroke="black" d="M386.52,-287.7C385.86,-279.98 385.06,-270.71 384.32,-262.11"/>
<polygon fill="black" stroke="black" points="387.81,-261.77 383.47,-252.1 380.83,-262.37 387.81,-261.77"/>
</g>
<!-- ast.arguments object at 0x7250e41b4c10 -->
<g id="node20" class="node">
<title>ast.arguments object at 0x7250e41b4c10</title>
<path fill="#66cdaa" stroke="black" d="M407,-180C407,-180 357,-180 357,-180 351,-180 345,-174 345,-168 345,-168 345,-156 345,-156 345,-150 351,-144 357,-144 357,-144 407,-144 407,-144 413,-144 419,-150 419,-156 419,-156 419,-168 419,-168 419,-174 413,-180 407,-180"/>
<text text-anchor="middle" x="382" y="-158.3" font-family="Times,serif" font-size="14.00">arguments</text>
</g>
<!-- ast.Lambda object at 0x7250e41b4b10&#45;&gt;ast.arguments object at 0x7250e41b4c10 -->
<g id="edge23" class="edge">
<title>ast.Lambda object at 0x7250e41b4b10&#45;&gt;ast.arguments object at 0x7250e41b4c10</title>
<path fill="none" stroke="black" d="M382,-215.7C382,-207.98 382,-198.71 382,-190.11"/>
<polygon fill="black" stroke="black" points="385.5,-190.1 382,-180.1 378.5,-190.1 385.5,-190.1"/>
</g>
<!-- ast.Call object at 0x7250e41b5e50 -->
<g id="node22" class="node">
<title>ast.Call object at 0x7250e41b5e50</title>
<path fill="#66cdaa" stroke="black" d="M315,-180C315,-180 285,-180 285,-180 279,-180 273,-174 273,-168 273,-168 273,-156 273,-156 273,-150 279,-144 285,-144 285,-144 315,-144 315,-144 321,-144 327,-150 327,-156 327,-156 327,-168 327,-168 327,-174 321,-180 315,-180"/>
<text text-anchor="middle" x="300" y="-158.3" font-family="Times,serif" font-size="14.00">Call</text>
</g>
<!-- ast.Lambda object at 0x7250e41b4b10&#45;&gt;ast.Call object at 0x7250e41b5e50 -->
<g id="edge25" class="edge">
<title>ast.Lambda object at 0x7250e41b4b10&#45;&gt;ast.Call object at 0x7250e41b5e50</title>
<path fill="none" stroke="black" d="M361.73,-215.7C351.5,-206.97 338.94,-196.24 327.82,-186.75"/>
<polygon fill="black" stroke="black" points="329.91,-183.94 320.04,-180.1 325.37,-189.26 329.91,-183.94"/>
</g>
<!-- ast.arg object at 0x7250e41b6890 -->
<g id="node21" class="node">
<title>ast.arg object at 0x7250e41b6890</title>
<path fill="#66cdaa" stroke="black" d="M397,-108C397,-108 367,-108 367,-108 361,-108 355,-102 355,-96 355,-96 355,-84 355,-84 355,-78 361,-72 367,-72 367,-72 397,-72 397,-72 403,-72 409,-78 409,-84 409,-84 409,-96 409,-96 409,-102 403,-108 397,-108"/>
<text text-anchor="middle" x="382" y="-86.3" font-family="Times,serif" font-size="14.00">arg</text>
</g>
<!-- ast.arguments object at 0x7250e41b4c10&#45;&gt;ast.arg object at 0x7250e41b6890 -->
<g id="edge24" class="edge">
<title>ast.arguments object at 0x7250e41b4c10&#45;&gt;ast.arg object at 0x7250e41b6890</title>
<path fill="none" stroke="black" d="M382,-143.7C382,-135.98 382,-126.71 382,-118.11"/>
<polygon fill="black" stroke="black" points="385.5,-118.1 382,-108.1 378.5,-118.1 385.5,-118.1"/>
</g>
<!-- ast.Name object at 0x7250e41b7010 -->
<g id="node23" class="node">
<title>ast.Name object at 0x7250e41b7010</title>
<path fill="#66cdaa" stroke="black" d="M253,-108C253,-108 223,-108 223,-108 217,-108 211,-102 211,-96 211,-96 211,-84 211,-84 211,-78 217,-72 223,-72 223,-72 253,-72 253,-72 259,-72 265,-78 265,-84 265,-84 265,-96 265,-96 265,-102 259,-108 253,-108"/>
<text text-anchor="middle" x="238" y="-86.3" font-family="Times,serif" font-size="14.00">Name</text>
</g>
<!-- ast.Call object at 0x7250e41b5e50&#45;&gt;ast.Name object at 0x7250e41b7010 -->
<g id="edge26" class="edge">
<title>ast.Call object at 0x7250e41b5e50&#45;&gt;ast.Name object at 0x7250e41b7010</title>
<path fill="none" stroke="black" d="M284.67,-143.7C277.24,-135.3 268.18,-125.07 260.02,-115.86"/>
<polygon fill="black" stroke="black" points="262.4,-113.27 253.15,-108.1 257.16,-117.91 262.4,-113.27"/>
</g>
<!-- ast.Name object at 0x7250e41b4bd0 -->
<g id="node24" class="node">
<title>ast.Name object at 0x7250e41b4bd0</title>
<path fill="#66cdaa" stroke="black" d="M325,-108C325,-108 295,-108 295,-108 289,-108 283,-102 283,-96 283,-96 283,-84 283,-84 283,-78 289,-72 295,-72 295,-72 325,-72 325,-72 331,-72 337,-78 337,-84 337,-84 337,-96 337,-96 337,-102 331,-108 325,-108"/>
<text text-anchor="middle" x="310" y="-86.3" font-family="Times,serif" font-size="14.00">Name</text>
</g>
<!-- ast.Call object at 0x7250e41b5e50&#45;&gt;ast.Name object at 0x7250e41b4bd0 -->
<g id="edge28" class="edge">
<title>ast.Call object at 0x7250e41b5e50&#45;&gt;ast.Name object at 0x7250e41b4bd0</title>
<path fill="none" stroke="black" d="M302.47,-143.7C303.57,-135.98 304.9,-126.71 306.13,-118.11"/>
<polygon fill="black" stroke="black" points="309.61,-118.5 307.56,-108.1 302.68,-117.51 309.61,-118.5"/>
</g>
<!-- ast.Name object at 0x7250e41b7010&#45;&gt;ast.Load object at 0x7250e57a9b50 -->
<g id="edge27" class="edge">
<title>ast.Name object at 0x7250e41b7010&#45;&gt;ast.Load object at 0x7250e57a9b50</title>
<path fill="none" stroke="black" d="M265.26,-75.37C268.17,-74.14 271.12,-72.99 274,-72 342.02,-48.59 424.71,-32.71 471.66,-24.81"/>
<polygon fill="black" stroke="black" points="472.39,-28.24 481.68,-23.16 471.24,-21.33 472.39,-28.24"/>
</g>
<!-- ast.Name object at 0x7250e41b4bd0&#45;&gt;ast.Load object at 0x7250e57a9b50 -->
<g id="edge29" class="edge">
<title>ast.Name object at 0x7250e41b4bd0&#45;&gt;ast.Load object at 0x7250e57a9b50</title>
<path fill="none" stroke="black" d="M337.36,-75.64C340.25,-74.36 343.17,-73.12 346,-72 388.49,-55.14 438.67,-39.43 472.02,-29.56"/>
<polygon fill="black" stroke="black" points="473.19,-32.87 481.8,-26.69 471.22,-26.15 473.19,-32.87"/>
</g>
<!-- ast.IfExp object at 0x7250e41b52d0 -->
<g id="node26" class="node">
<title>ast.IfExp object at 0x7250e41b52d0</title>
<path fill="#66cdaa" stroke="black" d="M597,-324C597,-324 567,-324 567,-324 561,-324 555,-318 555,-312 555,-312 555,-300 555,-300 555,-294 561,-288 567,-288 567,-288 597,-288 597,-288 603,-288 609,-294 609,-300 609,-300 609,-312 609,-312 609,-318 603,-324 597,-324"/>
<text text-anchor="middle" x="582" y="-302.3" font-family="Times,serif" font-size="14.00">IfExp</text>
</g>
<!-- ast.Return object at 0x7250e41b6150&#45;&gt;ast.IfExp object at 0x7250e41b52d0 -->
<g id="edge31" class="edge">
<title>ast.Return object at 0x7250e41b6150&#45;&gt;ast.IfExp object at 0x7250e41b52d0</title>
<path fill="none" stroke="black" d="M525.72,-431.87C536.72,-407.46 557.02,-362.43 570,-333.64"/>
<polygon fill="black" stroke="black" points="573.33,-334.74 574.25,-324.19 566.95,-331.87 573.33,-334.74"/>
</g>
<!-- ast.Compare object at 0x7250e41b58d0 -->
<g id="node27" class="node">
<title>ast.Compare object at 0x7250e41b58d0</title>
<path fill="#66cdaa" stroke="black" d="M769.5,-252C769.5,-252 726.5,-252 726.5,-252 720.5,-252 714.5,-246 714.5,-240 714.5,-240 714.5,-228 714.5,-228 714.5,-222 720.5,-216 726.5,-216 726.5,-216 769.5,-216 769.5,-216 775.5,-216 781.5,-222 781.5,-228 781.5,-228 781.5,-240 781.5,-240 781.5,-246 775.5,-252 769.5,-252"/>
<text text-anchor="middle" x="748" y="-230.3" font-family="Times,serif" font-size="14.00">Compare</text>
</g>
<!-- ast.IfExp object at 0x7250e41b52d0&#45;&gt;ast.Compare object at 0x7250e41b58d0 -->
<g id="edge32" class="edge">
<title>ast.IfExp object at 0x7250e41b52d0&#45;&gt;ast.Compare object at 0x7250e41b58d0</title>
<path fill="none" stroke="black" d="M609.04,-293.6C634.99,-282.66 674.59,-265.95 704.89,-253.18"/>
<polygon fill="black" stroke="black" points="706.52,-256.29 714.37,-249.18 703.8,-249.84 706.52,-256.29"/>
</g>
<!-- ast.Subscript object at 0x7250e41b6710 -->
<g id="node33" class="node">
<title>ast.Subscript object at 0x7250e41b6710</title>
<path fill="#66cdaa" stroke="black" d="M647,-180C647,-180 603,-180 603,-180 597,-180 591,-174 591,-168 591,-168 591,-156 591,-156 591,-150 597,-144 603,-144 603,-144 647,-144 647,-144 653,-144 659,-150 659,-156 659,-156 659,-168 659,-168 659,-174 653,-180 647,-180"/>
<text text-anchor="middle" x="625" y="-158.3" font-family="Times,serif" font-size="14.00">Subscript</text>
</g>
<!-- ast.IfExp object at 0x7250e41b52d0&#45;&gt;ast.Subscript object at 0x7250e41b6710 -->
<g id="edge40" class="edge">
<title>ast.IfExp object at 0x7250e41b52d0&#45;&gt;ast.Subscript object at 0x7250e41b6710</title>
<path fill="none" stroke="black" d="M587.19,-287.87C594.55,-263.56 608.1,-218.82 616.82,-190.01"/>
<polygon fill="black" stroke="black" points="620.25,-190.77 619.79,-180.19 613.55,-188.75 620.25,-190.77"/>
</g>
<!-- ast.Name object at 0x7250e41b54d0 -->
<g id="node37" class="node">
<title>ast.Name object at 0x7250e41b54d0</title>
<path fill="#66cdaa" stroke="black" d="M566,-252C566,-252 536,-252 536,-252 530,-252 524,-246 524,-240 524,-240 524,-228 524,-228 524,-222 530,-216 536,-216 536,-216 566,-216 566,-216 572,-216 578,-222 578,-228 578,-228 578,-240 578,-240 578,-246 572,-252 566,-252"/>
<text text-anchor="middle" x="551" y="-230.3" font-family="Times,serif" font-size="14.00">Name</text>
</g>
<!-- ast.IfExp object at 0x7250e41b52d0&#45;&gt;ast.Name object at 0x7250e41b54d0 -->
<g id="edge46" class="edge">
<title>ast.IfExp object at 0x7250e41b52d0&#45;&gt;ast.Name object at 0x7250e41b54d0</title>
<path fill="none" stroke="black" d="M574.34,-287.7C570.81,-279.73 566.54,-270.1 562.63,-261.26"/>
<polygon fill="black" stroke="black" points="565.82,-259.83 558.57,-252.1 559.42,-262.67 565.82,-259.83"/>
</g>
<!-- ast.Call object at 0x7250e41b5610 -->
<g id="node28" class="node">
<title>ast.Call object at 0x7250e41b5610</title>
<path fill="#66cdaa" stroke="black" d="M727,-180C727,-180 697,-180 697,-180 691,-180 685,-174 685,-168 685,-168 685,-156 685,-156 685,-150 691,-144 697,-144 697,-144 727,-144 727,-144 733,-144 739,-150 739,-156 739,-156 739,-168 739,-168 739,-174 733,-180 727,-180"/>
<text text-anchor="middle" x="712" y="-158.3" font-family="Times,serif" font-size="14.00">Call</text>
</g>
<!-- ast.Compare object at 0x7250e41b58d0&#45;&gt;ast.Call object at 0x7250e41b5610 -->
<g id="edge33" class="edge">
<title>ast.Compare object at 0x7250e41b58d0&#45;&gt;ast.Call object at 0x7250e41b5610</title>
<path fill="none" stroke="black" d="M739.1,-215.7C735,-207.73 730.05,-198.1 725.51,-189.26"/>
<polygon fill="black" stroke="black" points="728.48,-187.4 720.8,-180.1 722.26,-190.6 728.48,-187.4"/>
</g>
<!-- ast.Gt object at 0x7250e57aad50 -->
<g id="node31" class="node">
<title>ast.Gt object at 0x7250e57aad50</title>
<path fill="#66cdaa" stroke="black" d="M799,-180C799,-180 769,-180 769,-180 763,-180 757,-174 757,-168 757,-168 757,-156 757,-156 757,-150 763,-144 769,-144 769,-144 799,-144 799,-144 805,-144 811,-150 811,-156 811,-156 811,-168 811,-168 811,-174 805,-180 799,-180"/>
<text text-anchor="middle" x="784" y="-158.3" font-family="Times,serif" font-size="14.00">Gt</text>
</g>
<!-- ast.Compare object at 0x7250e41b58d0&#45;&gt;ast.Gt object at 0x7250e57aad50 -->
<g id="edge38" class="edge">
<title>ast.Compare object at 0x7250e41b58d0&#45;&gt;ast.Gt object at 0x7250e57aad50</title>
<path fill="none" stroke="black" d="M756.9,-215.7C761,-207.73 765.95,-198.1 770.49,-189.26"/>
<polygon fill="black" stroke="black" points="773.74,-190.6 775.2,-180.1 767.52,-187.4 773.74,-190.6"/>
</g>
<!-- ast.Constant object at 0x7250e41b7210 -->
<g id="node32" class="node">
<title>ast.Constant object at 0x7250e41b7210</title>
<path fill="#66cdaa" stroke="black" d="M882.5,-180C882.5,-180 841.5,-180 841.5,-180 835.5,-180 829.5,-174 829.5,-168 829.5,-168 829.5,-156 829.5,-156 829.5,-150 835.5,-144 841.5,-144 841.5,-144 882.5,-144 882.5,-144 888.5,-144 894.5,-150 894.5,-156 894.5,-156 894.5,-168 894.5,-168 894.5,-174 888.5,-180 882.5,-180"/>
<text text-anchor="middle" x="862" y="-158.3" font-family="Times,serif" font-size="14.00">Constant</text>
</g>
<!-- ast.Compare object at 0x7250e41b58d0&#45;&gt;ast.Constant object at 0x7250e41b7210 -->
<g id="edge39" class="edge">
<title>ast.Compare object at 0x7250e41b58d0&#45;&gt;ast.Constant object at 0x7250e41b7210</title>
<path fill="none" stroke="black" d="M775.89,-215.88C790.79,-206.72 809.33,-195.34 825.38,-185.48"/>
<polygon fill="black" stroke="black" points="827.31,-188.41 834.01,-180.19 823.65,-182.44 827.31,-188.41"/>
</g>
<!-- ast.Name object at 0x7250e41b7990 -->
<g id="node29" class="node">
<title>ast.Name object at 0x7250e41b7990</title>
<path fill="#66cdaa" stroke="black" d="M871,-108C871,-108 841,-108 841,-108 835,-108 829,-102 829,-96 829,-96 829,-84 829,-84 829,-78 835,-72 841,-72 841,-72 871,-72 871,-72 877,-72 883,-78 883,-84 883,-84 883,-96 883,-96 883,-102 877,-108 871,-108"/>
<text text-anchor="middle" x="856" y="-86.3" font-family="Times,serif" font-size="14.00">Name</text>
</g>
<!-- ast.Call object at 0x7250e41b5610&#45;&gt;ast.Name object at 0x7250e41b7990 -->
<g id="edge34" class="edge">
<title>ast.Call object at 0x7250e41b5610&#45;&gt;ast.Name object at 0x7250e41b7990</title>
<path fill="none" stroke="black" d="M739.09,-147.83C761.77,-136.81 794.36,-120.97 819.37,-108.81"/>
<polygon fill="black" stroke="black" points="821.08,-111.87 828.55,-104.35 818.02,-105.57 821.08,-111.87"/>
</g>
<!-- ast.Name object at 0x7250e41b6c90 -->
<g id="node30" class="node">
<title>ast.Name object at 0x7250e41b6c90</title>
<path fill="#66cdaa" stroke="black" d="M727,-108C727,-108 697,-108 697,-108 691,-108 685,-102 685,-96 685,-96 685,-84 685,-84 685,-78 691,-72 697,-72 697,-72 727,-72 727,-72 733,-72 739,-78 739,-84 739,-84 739,-96 739,-96 739,-102 733,-108 727,-108"/>
<text text-anchor="middle" x="712" y="-86.3" font-family="Times,serif" font-size="14.00">Name</text>
</g>
<!-- ast.Call object at 0x7250e41b5610&#45;&gt;ast.Name object at 0x7250e41b6c90 -->
<g id="edge36" class="edge">
<title>ast.Call object at 0x7250e41b5610&#45;&gt;ast.Name object at 0x7250e41b6c90</title>
<path fill="none" stroke="black" d="M712,-143.7C712,-135.98 712,-126.71 712,-118.11"/>
<polygon fill="black" stroke="black" points="715.5,-118.1 712,-108.1 708.5,-118.1 715.5,-118.1"/>
</g>
<!-- ast.Name object at 0x7250e41b7990&#45;&gt;ast.Load object at 0x7250e57a9b50 -->
<g id="edge35" class="edge">
<title>ast.Name object at 0x7250e41b7990&#45;&gt;ast.Load object at 0x7250e57a9b50</title>
<path fill="none" stroke="black" d="M828.79,-75.21C825.87,-74.01 822.9,-72.91 820,-72 723.89,-41.75 605.32,-27.6 546.2,-22.04"/>
<polygon fill="black" stroke="black" points="546.48,-18.55 536.21,-21.13 545.85,-25.52 546.48,-18.55"/>
</g>
<!-- ast.Name object at 0x7250e41b6c90&#45;&gt;ast.Load object at 0x7250e57a9b50 -->
<g id="edge37" class="edge">
<title>ast.Name object at 0x7250e41b6c90&#45;&gt;ast.Load object at 0x7250e57a9b50</title>
<path fill="none" stroke="black" d="M684.65,-75.62C681.75,-74.34 678.83,-73.11 676,-72 632.25,-54.82 580.48,-39.07 546.3,-29.28"/>
<polygon fill="black" stroke="black" points="546.86,-25.8 536.29,-26.44 544.95,-32.54 546.86,-25.8"/>
</g>
<!-- ast.Subscript object at 0x7250e41b6710&#45;&gt;ast.Load object at 0x7250e57a9b50 -->
<g id="edge45" class="edge">
<title>ast.Subscript object at 0x7250e41b6710&#45;&gt;ast.Load object at 0x7250e57a9b50</title>
<path fill="none" stroke="black" d="M613.71,-143.69C601.46,-125.33 580.98,-95.73 561,-72 552.7,-62.14 542.95,-51.89 534.15,-43.07"/>
<polygon fill="black" stroke="black" points="536.6,-40.58 527.03,-36.03 531.68,-45.55 536.6,-40.58"/>
</g>
<!-- ast.Name object at 0x7250e41b5650 -->
<g id="node34" class="node">
<title>ast.Name object at 0x7250e41b5650</title>
<path fill="#66cdaa" stroke="black" d="M655,-108C655,-108 625,-108 625,-108 619,-108 613,-102 613,-96 613,-96 613,-84 613,-84 613,-78 619,-72 625,-72 625,-72 655,-72 655,-72 661,-72 667,-78 667,-84 667,-84 667,-96 667,-96 667,-102 661,-108 655,-108"/>
<text text-anchor="middle" x="640" y="-86.3" font-family="Times,serif" font-size="14.00">Name</text>
</g>
<!-- ast.Subscript object at 0x7250e41b6710&#45;&gt;ast.Name object at 0x7250e41b5650 -->
<g id="edge41" class="edge">
<title>ast.Subscript object at 0x7250e41b6710&#45;&gt;ast.Name object at 0x7250e41b5650</title>
<path fill="none" stroke="black" d="M628.71,-143.7C630.36,-135.98 632.35,-126.71 634.19,-118.11"/>
<polygon fill="black" stroke="black" points="637.66,-118.62 636.33,-108.1 630.82,-117.15 637.66,-118.62"/>
</g>
<!-- ast.Slice object at 0x7250e41b61d0 -->
<g id="node35" class="node">
<title>ast.Slice object at 0x7250e41b61d0</title>
<path fill="#66cdaa" stroke="black" d="M799,-108C799,-108 769,-108 769,-108 763,-108 757,-102 757,-96 757,-96 757,-84 757,-84 757,-78 763,-72 769,-72 769,-72 799,-72 799,-72 805,-72 811,-78 811,-84 811,-84 811,-96 811,-96 811,-102 805,-108 799,-108"/>
<text text-anchor="middle" x="784" y="-86.3" font-family="Times,serif" font-size="14.00">Slice</text>
</g>
<!-- ast.Subscript object at 0x7250e41b6710&#45;&gt;ast.Slice object at 0x7250e41b61d0 -->
<g id="edge43" class="edge">
<title>ast.Subscript object at 0x7250e41b6710&#45;&gt;ast.Slice object at 0x7250e41b61d0</title>
<path fill="none" stroke="black" d="M659.07,-146.69C681.81,-137.06 712.56,-123.87 747.46,-108.18"/>
<polygon fill="black" stroke="black" points="749.24,-111.21 756.92,-103.91 746.36,-104.83 749.24,-111.21"/>
</g>
<!-- ast.Name object at 0x7250e41b5650&#45;&gt;ast.Load object at 0x7250e57a9b50 -->
<g id="edge42" class="edge">
<title>ast.Name object at 0x7250e41b5650&#45;&gt;ast.Load object at 0x7250e57a9b50</title>
<path fill="none" stroke="black" d="M612.86,-74.5C593.18,-63.98 566.38,-49.66 544.94,-38.2"/>
<polygon fill="black" stroke="black" points="546.58,-35.11 536.11,-33.49 543.28,-41.29 546.58,-35.11"/>
</g>
<!-- ast.Constant object at 0x7250e41b4950 -->
<g id="node36" class="node">
<title>ast.Constant object at 0x7250e41b4950</title>
<path fill="#66cdaa" stroke="black" d="M804.5,-36C804.5,-36 763.5,-36 763.5,-36 757.5,-36 751.5,-30 751.5,-24 751.5,-24 751.5,-12 751.5,-12 751.5,-6 757.5,0 763.5,0 763.5,0 804.5,0 804.5,0 810.5,0 816.5,-6 816.5,-12 816.5,-12 816.5,-24 816.5,-24 816.5,-30 810.5,-36 804.5,-36"/>
<text text-anchor="middle" x="784" y="-14.3" font-family="Times,serif" font-size="14.00">Constant</text>
</g>
<!-- ast.Slice object at 0x7250e41b61d0&#45;&gt;ast.Constant object at 0x7250e41b4950 -->
<g id="edge44" class="edge">
<title>ast.Slice object at 0x7250e41b61d0&#45;&gt;ast.Constant object at 0x7250e41b4950</title>
<path fill="none" stroke="black" d="M784,-71.7C784,-63.98 784,-54.71 784,-46.11"/>
<polygon fill="black" stroke="black" points="787.5,-46.1 784,-36.1 780.5,-46.1 787.5,-46.1"/>
</g>
<!-- ast.Name object at 0x7250e41b54d0&#45;&gt;ast.Load object at 0x7250e57a9b50 -->
<g id="edge47" class="edge">
<title>ast.Name object at 0x7250e41b54d0&#45;&gt;ast.Load object at 0x7250e57a9b50</title>
<path fill="none" stroke="black" d="M547.63,-215.85C540.35,-178.75 523.09,-90.81 514.32,-46.1"/>
<polygon fill="black" stroke="black" points="517.74,-45.37 512.38,-36.23 510.87,-46.72 517.74,-45.37"/>
</g>
</g>
</svg>
