<?xml version="1.0" encoding="UTF-8" standalone="no"?>
<!DOCTYPE svg PUBLIC "-//W3C//DTD SVG 1.1//EN"
 "http://www.w3.org/Graphics/SVG/1.1/DTD/svg11.dtd">
<!-- Generated by graphviz version 2.50.0 (0)
 -->
<!-- Pages: 1 -->
<svg width="1006pt" height="548pt"
 viewBox="0.00 0.00 1005.50 548.00" xmlns="http://www.w3.org/2000/svg" xmlns:xlink="http://www.w3.org/1999/xlink">
<g id="graph0" class="graph" transform="scale(1 1) rotate(0) translate(4 544)">
<polygon fill="white" stroke="transparent" points="-4,4 -4,-544 1001.5,-544 1001.5,4 -4,4"/>
<!-- ast.Module object at 0x74533d576990 -->
<g id="node1" class="node">
<title>ast.Module object at 0x74533d576990</title>
<path fill="#66cdaa" stroke="black" d="M299.5,-540C299.5,-540 264.5,-540 264.5,-540 258.5,-540 252.5,-534 252.5,-528 252.5,-528 252.5,-516 252.5,-516 252.5,-510 258.5,-504 264.5,-504 264.5,-504 299.5,-504 299.5,-504 305.5,-504 311.5,-510 311.5,-516 311.5,-516 311.5,-528 311.5,-528 311.5,-534 305.5,-540 299.5,-540"/>
<text text-anchor="middle" x="282" y="-518.3" font-family="Times,serif" font-size="14.00">Module</text>
</g>
<!-- ast.FunctionDef object at 0x74533d577f50 -->
<g id="node2" class="node">
<title>ast.FunctionDef object at 0x74533d577f50</title>
<path fill="#66cdaa" stroke="black" d="M312.5,-468C312.5,-468 251.5,-468 251.5,-468 245.5,-468 239.5,-462 239.5,-456 239.5,-456 239.5,-444 239.5,-444 239.5,-438 245.5,-432 251.5,-432 251.5,-432 312.5,-432 312.5,-432 318.5,-432 324.5,-438 324.5,-444 324.5,-444 324.5,-456 324.5,-456 324.5,-462 318.5,-468 312.5,-468"/>
<text text-anchor="middle" x="282" y="-446.3" font-family="Times,serif" font-size="14.00">FunctionDef</text>
</g>
<!-- ast.Module object at 0x74533d576990&#45;&gt;ast.FunctionDef object at 0x74533d577f50 -->
<g id="edge1" class="edge">
<title>ast.Module object at 0x74533d576990&#45;&gt;ast.FunctionDef object at 0x74533d577f50</title>
<path fill="none" stroke="black" d="M282,-503.7C282,-495.98 282,-486.71 282,-478.11"/>
<polygon fill="black" stroke="black" points="285.5,-478.1 282,-468.1 278.5,-478.1 285.5,-478.1"/>
</g>
<!-- ast.arguments object at 0x74533d577fd0 -->
<g id="node3" class="node">
<title>ast.arguments object at 0x74533d577fd0</title>
<path fill="#66cdaa" stroke="black" d="M161,-396C161,-396 111,-396 111,-396 105,-396 99,-390 99,-384 99,-384 99,-372 99,-372 99,-366 105,-360 111,-360 111,-360 161,-360 161,-360 167,-360 173,-366 173,-372 173,-372 173,-384 173,-384 173,-390 167,-396 161,-396"/>
<text text-anchor="middle" x="136" y="-374.3" font-family="Times,serif" font-size="14.00">arguments</text>
</g>
<!-- ast.FunctionDef object at 0x74533d577f50&#45;&gt;ast.arguments object at 0x74533d577fd0 -->
<g id="edge2" class="edge">
<title>ast.FunctionDef object at 0x74533d577f50&#45;&gt;ast.arguments object at 0x74533d577fd0</title>
<path fill="none" stroke="black" d="M246.28,-431.88C226.5,-422.39 201.73,-410.51 180.67,-400.42"/>
<polygon fill="black" stroke="black" points="182.13,-397.24 171.6,-396.07 179.1,-403.55 182.13,-397.24"/>
</g>
<!-- ast.Assign object at 0x74533d577310 -->
<g id="node5" class="node">
<title>ast.Assign object at 0x74533d577310</title>
<path fill="#66cdaa" stroke="black" d="M261,-396C261,-396 231,-396 231,-396 225,-396 219,-390 219,-384 219,-384 219,-372 219,-372 219,-366 225,-360 231,-360 231,-360 261,-360 261,-360 267,-360 273,-366 273,-372 273,-372 273,-384 273,-384 273,-390 267,-396 261,-396"/>
<text text-anchor="middle" x="246" y="-374.3" font-family="Times,serif" font-size="14.00">Assign</text>
</g>
<!-- ast.FunctionDef object at 0x74533d577f50&#45;&gt;ast.Assign object at 0x74533d577310 -->
<g id="edge4" class="edge">
<title>ast.FunctionDef object at 0x74533d577f50&#45;&gt;ast.Assign object at 0x74533d577310</title>
<path fill="none" stroke="black" d="M273.1,-431.7C269,-423.73 264.05,-414.1 259.51,-405.26"/>
<polygon fill="black" stroke="black" points="262.48,-403.4 254.8,-396.1 256.26,-406.6 262.48,-403.4"/>
</g>
<!-- ast.For object at 0x74533d576b90 -->
<g id="node9" class="node">
<title>ast.For object at 0x74533d576b90</title>
<path fill="#66cdaa" stroke="black" d="M360,-396C360,-396 330,-396 330,-396 324,-396 318,-390 318,-384 318,-384 318,-372 318,-372 318,-366 324,-360 330,-360 330,-360 360,-360 360,-360 366,-360 372,-366 372,-372 372,-372 372,-384 372,-384 372,-390 366,-396 360,-396"/>
<text text-anchor="middle" x="345" y="-374.3" font-family="Times,serif" font-size="14.00">For</text>
</g>
<!-- ast.FunctionDef object at 0x74533d577f50&#45;&gt;ast.For object at 0x74533d576b90 -->
<g id="edge8" class="edge">
<title>ast.FunctionDef object at 0x74533d577f50&#45;&gt;ast.For object at 0x74533d576b90</title>
<path fill="none" stroke="black" d="M297.57,-431.7C305.2,-423.22 314.52,-412.86 322.88,-403.58"/>
<polygon fill="black" stroke="black" points="325.52,-405.88 329.61,-396.1 320.31,-401.2 325.52,-405.88"/>
</g>
<!-- ast.Return object at 0x74533d711750 -->
<g id="node31" class="node">
<title>ast.Return object at 0x74533d711750</title>
<path fill="#66cdaa" stroke="black" d="M456,-396C456,-396 426,-396 426,-396 420,-396 414,-390 414,-384 414,-384 414,-372 414,-372 414,-366 420,-360 426,-360 426,-360 456,-360 456,-360 462,-360 468,-366 468,-372 468,-372 468,-384 468,-384 468,-390 462,-396 456,-396"/>
<text text-anchor="middle" x="441" y="-374.3" font-family="Times,serif" font-size="14.00">Return</text>
</g>
<!-- ast.FunctionDef object at 0x74533d577f50&#45;&gt;ast.Return object at 0x74533d711750 -->
<g id="edge41" class="edge">
<title>ast.FunctionDef object at 0x74533d577f50&#45;&gt;ast.Return object at 0x74533d711750</title>
<path fill="none" stroke="black" d="M320.9,-431.88C346.49,-420.61 379.77,-405.96 404.8,-394.94"/>
<polygon fill="black" stroke="black" points="406.22,-398.14 413.96,-390.9 403.4,-391.73 406.22,-398.14"/>
</g>
<!-- ast.arg object at 0x74533d576950 -->
<g id="node4" class="node">
<title>ast.arg object at 0x74533d576950</title>
<path fill="#66cdaa" stroke="black" d="M122,-324C122,-324 92,-324 92,-324 86,-324 80,-318 80,-312 80,-312 80,-300 80,-300 80,-294 86,-288 92,-288 92,-288 122,-288 122,-288 128,-288 134,-294 134,-300 134,-300 134,-312 134,-312 134,-318 128,-324 122,-324"/>
<text text-anchor="middle" x="107" y="-302.3" font-family="Times,serif" font-size="14.00">arg</text>
</g>
<!-- ast.arguments object at 0x74533d577fd0&#45;&gt;ast.arg object at 0x74533d576950 -->
<g id="edge3" class="edge">
<title>ast.arguments object at 0x74533d577fd0&#45;&gt;ast.arg object at 0x74533d576950</title>
<path fill="none" stroke="black" d="M128.83,-359.7C125.57,-351.81 121.63,-342.3 118,-333.55"/>
<polygon fill="black" stroke="black" points="121.15,-332 114.09,-324.1 114.68,-334.68 121.15,-332"/>
</g>
<!-- ast.Name object at 0x74533d577f90 -->
<g id="node6" class="node">
<title>ast.Name object at 0x74533d577f90</title>
<path fill="#66cdaa" stroke="black" d="M42,-252C42,-252 12,-252 12,-252 6,-252 0,-246 0,-240 0,-240 0,-228 0,-228 0,-222 6,-216 12,-216 12,-216 42,-216 42,-216 48,-216 54,-222 54,-228 54,-228 54,-240 54,-240 54,-246 48,-252 42,-252"/>
<text text-anchor="middle" x="27" y="-230.3" font-family="Times,serif" font-size="14.00">Name</text>
</g>
<!-- ast.Assign object at 0x74533d577310&#45;&gt;ast.Name object at 0x74533d577f90 -->
<g id="edge5" class="edge">
<title>ast.Assign object at 0x74533d577310&#45;&gt;ast.Name object at 0x74533d577f90</title>
<path fill="none" stroke="black" d="M247.19,-359.72C247.56,-339.67 244.9,-306.95 226,-288 175.15,-237 136.62,-273.87 68,-252 66.58,-251.55 65.14,-251.06 63.69,-250.56"/>
<polygon fill="black" stroke="black" points="64.7,-247.2 54.11,-246.99 62.26,-253.76 64.7,-247.2"/>
</g>
<!-- ast.Constant object at 0x74533d577c90 -->
<g id="node8" class="node">
<title>ast.Constant object at 0x74533d577c90</title>
<path fill="#66cdaa" stroke="black" d="M205.5,-324C205.5,-324 164.5,-324 164.5,-324 158.5,-324 152.5,-318 152.5,-312 152.5,-312 152.5,-300 152.5,-300 152.5,-294 158.5,-288 164.5,-288 164.5,-288 205.5,-288 205.5,-288 211.5,-288 217.5,-294 217.5,-300 217.5,-300 217.5,-312 217.5,-312 217.5,-318 211.5,-324 205.5,-324"/>
<text text-anchor="middle" x="185" y="-302.3" font-family="Times,serif" font-size="14.00">Constant</text>
</g>
<!-- ast.Assign object at 0x74533d577310&#45;&gt;ast.Constant object at 0x74533d577c90 -->
<g id="edge7" class="edge">
<title>ast.Assign object at 0x74533d577310&#45;&gt;ast.Constant object at 0x74533d577c90</title>
<path fill="none" stroke="black" d="M230.92,-359.7C223.61,-351.3 214.69,-341.07 206.66,-331.86"/>
<polygon fill="black" stroke="black" points="209.11,-329.34 199.91,-324.1 203.84,-333.94 209.11,-329.34"/>
</g>
<!-- ast.Store object at 0x7454617ffbd0 -->
<g id="node7" class="node">
<title>ast.Store object at 0x7454617ffbd0</title>
<path fill="#66cdaa" stroke="black" d="M97,-108C97,-108 67,-108 67,-108 61,-108 55,-102 55,-96 55,-96 55,-84 55,-84 55,-78 61,-72 67,-72 67,-72 97,-72 97,-72 103,-72 109,-78 109,-84 109,-84 109,-96 109,-96 109,-102 103,-108 97,-108"/>
<text text-anchor="middle" x="82" y="-86.3" font-family="Times,serif" font-size="14.00">Store</text>
</g>
<!-- ast.Name object at 0x74533d577f90&#45;&gt;ast.Store object at 0x7454617ffbd0 -->
<g id="edge6" class="edge">
<title>ast.Name object at 0x74533d577f90&#45;&gt;ast.Store object at 0x7454617ffbd0</title>
<path fill="none" stroke="black" d="M33.63,-215.87C43.09,-191.46 60.53,-146.43 71.68,-117.64"/>
<polygon fill="black" stroke="black" points="74.99,-118.78 75.34,-108.19 68.47,-116.25 74.99,-118.78"/>
</g>
<!-- ast.Name object at 0x74533d577350 -->
<g id="node10" class="node">
<title>ast.Name object at 0x74533d577350</title>
<path fill="#66cdaa" stroke="black" d="M316,-324C316,-324 286,-324 286,-324 280,-324 274,-318 274,-312 274,-312 274,-300 274,-300 274,-294 280,-288 286,-288 286,-288 316,-288 316,-288 322,-288 328,-294 328,-300 328,-300 328,-312 328,-312 328,-318 322,-324 316,-324"/>
<text text-anchor="middle" x="301" y="-302.3" font-family="Times,serif" font-size="14.00">Name</text>
</g>
<!-- ast.For object at 0x74533d576b90&#45;&gt;ast.Name object at 0x74533d577350 -->
<g id="edge9" class="edge">
<title>ast.For object at 0x74533d576b90&#45;&gt;ast.Name object at 0x74533d577350</title>
<path fill="none" stroke="black" d="M334.12,-359.7C329.01,-351.56 322.8,-341.69 317.16,-332.7"/>
<polygon fill="black" stroke="black" points="320.04,-330.71 311.75,-324.1 314.11,-334.43 320.04,-330.71"/>
</g>
<!-- ast.Call object at 0x74533d577210 -->
<g id="node11" class="node">
<title>ast.Call object at 0x74533d577210</title>
<path fill="#66cdaa" stroke="black" d="M707,-252C707,-252 677,-252 677,-252 671,-252 665,-246 665,-240 665,-240 665,-228 665,-228 665,-222 671,-216 677,-216 677,-216 707,-216 707,-216 713,-216 719,-222 719,-228 719,-228 719,-240 719,-240 719,-246 713,-252 707,-252"/>
<text text-anchor="middle" x="692" y="-230.3" font-family="Times,serif" font-size="14.00">Call</text>
</g>
<!-- ast.For object at 0x74533d576b90&#45;&gt;ast.Call object at 0x74533d577210 -->
<g id="edge11" class="edge">
<title>ast.For object at 0x74533d576b90&#45;&gt;ast.Call object at 0x74533d577210</title>
<path fill="none" stroke="black" d="M372.23,-365.86C434.18,-340.51 585.71,-278.5 655.6,-249.9"/>
<polygon fill="black" stroke="black" points="656.97,-253.12 664.9,-246.09 654.32,-246.64 656.97,-253.12"/>
</g>
<!-- ast.If object at 0x74533d577ad0 -->
<g id="node17" class="node">
<title>ast.If object at 0x74533d577ad0</title>
<path fill="#66cdaa" stroke="black" d="M388,-324C388,-324 358,-324 358,-324 352,-324 346,-318 346,-312 346,-312 346,-300 346,-300 346,-294 352,-288 358,-288 358,-288 388,-288 388,-288 394,-288 400,-294 400,-300 400,-300 400,-312 400,-312 400,-318 394,-324 388,-324"/>
<text text-anchor="middle" x="373" y="-302.3" font-family="Times,serif" font-size="14.00">If</text>
</g>
<!-- ast.For object at 0x74533d576b90&#45;&gt;ast.If object at 0x74533d577ad0 -->
<g id="edge19" class="edge">
<title>ast.For object at 0x74533d576b90&#45;&gt;ast.If object at 0x74533d577ad0</title>
<path fill="none" stroke="black" d="M351.92,-359.7C355.07,-351.81 358.88,-342.3 362.38,-333.55"/>
<polygon fill="black" stroke="black" points="365.69,-334.69 366.16,-324.1 359.19,-332.09 365.69,-334.69"/>
</g>
<!-- ast.Name object at 0x74533d577350&#45;&gt;ast.Store object at 0x7454617ffbd0 -->
<g id="edge10" class="edge">
<title>ast.Name object at 0x74533d577350&#45;&gt;ast.Store object at 0x7454617ffbd0</title>
<path fill="none" stroke="black" d="M273.85,-296.25C229.83,-280.54 143.51,-243.19 101,-180 88.7,-161.72 84.17,-136.96 82.58,-118.19"/>
<polygon fill="black" stroke="black" points="86.07,-117.96 81.97,-108.2 79.09,-118.39 86.07,-117.96"/>
</g>
<!-- ast.Name object at 0x74533d576910 -->
<g id="node12" class="node">
<title>ast.Name object at 0x74533d576910</title>
<path fill="#66cdaa" stroke="black" d="M715,-108C715,-108 685,-108 685,-108 679,-108 673,-102 673,-96 673,-96 673,-84 673,-84 673,-78 679,-72 685,-72 685,-72 715,-72 715,-72 721,-72 727,-78 727,-84 727,-84 727,-96 727,-96 727,-102 721,-108 715,-108"/>
<text text-anchor="middle" x="700" y="-86.3" font-family="Times,serif" font-size="14.00">Name</text>
</g>
<!-- ast.Call object at 0x74533d577210&#45;&gt;ast.Name object at 0x74533d576910 -->
<g id="edge12" class="edge">
<title>ast.Call object at 0x74533d577210&#45;&gt;ast.Name object at 0x74533d576910</title>
<path fill="none" stroke="black" d="M707.61,-215.77C715.37,-206.03 723.95,-193.18 728,-180 732.7,-164.71 731.85,-159.53 728,-144 725.71,-134.75 721.47,-125.34 716.98,-117.07"/>
<polygon fill="black" stroke="black" points="719.93,-115.17 711.89,-108.28 713.87,-118.68 719.93,-115.17"/>
</g>
<!-- ast.Call object at 0x74533d577150 -->
<g id="node14" class="node">
<title>ast.Call object at 0x74533d577150</title>
<path fill="#66cdaa" stroke="black" d="M707,-180C707,-180 677,-180 677,-180 671,-180 665,-174 665,-168 665,-168 665,-156 665,-156 665,-150 671,-144 677,-144 677,-144 707,-144 707,-144 713,-144 719,-150 719,-156 719,-156 719,-168 719,-168 719,-174 713,-180 707,-180"/>
<text text-anchor="middle" x="692" y="-158.3" font-family="Times,serif" font-size="14.00">Call</text>
</g>
<!-- ast.Call object at 0x74533d577210&#45;&gt;ast.Call object at 0x74533d577150 -->
<g id="edge14" class="edge">
<title>ast.Call object at 0x74533d577210&#45;&gt;ast.Call object at 0x74533d577150</title>
<path fill="none" stroke="black" d="M692,-215.7C692,-207.98 692,-198.71 692,-190.11"/>
<polygon fill="black" stroke="black" points="695.5,-190.1 692,-180.1 688.5,-190.1 695.5,-190.1"/>
</g>
<!-- ast.Load object at 0x7454617ffb50 -->
<g id="node13" class="node">
<title>ast.Load object at 0x7454617ffb50</title>
<path fill="#66cdaa" stroke="black" d="M499,-36C499,-36 469,-36 469,-36 463,-36 457,-30 457,-24 457,-24 457,-12 457,-12 457,-6 463,0 469,0 469,0 499,0 499,0 505,0 511,-6 511,-12 511,-12 511,-24 511,-24 511,-30 505,-36 499,-36"/>
<text text-anchor="middle" x="484" y="-14.3" font-family="Times,serif" font-size="14.00">Load</text>
</g>
<!-- ast.Name object at 0x74533d576910&#45;&gt;ast.Load object at 0x7454617ffb50 -->
<g id="edge13" class="edge">
<title>ast.Name object at 0x74533d576910&#45;&gt;ast.Load object at 0x7454617ffb50</title>
<path fill="none" stroke="black" d="M672.67,-75.56C669.77,-74.29 666.84,-73.08 664,-72 615.58,-53.57 557.85,-37.58 521.06,-28.12"/>
<polygon fill="black" stroke="black" points="521.82,-24.7 511.27,-25.62 520.1,-31.48 521.82,-24.7"/>
</g>
<!-- ast.Name object at 0x74533d577d50 -->
<g id="node15" class="node">
<title>ast.Name object at 0x74533d577d50</title>
<path fill="#66cdaa" stroke="black" d="M571,-108C571,-108 541,-108 541,-108 535,-108 529,-102 529,-96 529,-96 529,-84 529,-84 529,-78 535,-72 541,-72 541,-72 571,-72 571,-72 577,-72 583,-78 583,-84 583,-84 583,-96 583,-96 583,-102 577,-108 571,-108"/>
<text text-anchor="middle" x="556" y="-86.3" font-family="Times,serif" font-size="14.00">Name</text>
</g>
<!-- ast.Call object at 0x74533d577150&#45;&gt;ast.Name object at 0x74533d577d50 -->
<g id="edge15" class="edge">
<title>ast.Call object at 0x74533d577150&#45;&gt;ast.Name object at 0x74533d577d50</title>
<path fill="none" stroke="black" d="M664.81,-147C643.96,-136.27 614.99,-121.36 592.19,-109.62"/>
<polygon fill="black" stroke="black" points="593.64,-106.44 583.15,-104.97 590.44,-112.66 593.64,-106.44"/>
</g>
<!-- ast.Name object at 0x74533d577f10 -->
<g id="node16" class="node">
<title>ast.Name object at 0x74533d577f10</title>
<path fill="#66cdaa" stroke="black" d="M643,-108C643,-108 613,-108 613,-108 607,-108 601,-102 601,-96 601,-96 601,-84 601,-84 601,-78 607,-72 613,-72 613,-72 643,-72 643,-72 649,-72 655,-78 655,-84 655,-84 655,-96 655,-96 655,-102 649,-108 643,-108"/>
<text text-anchor="middle" x="628" y="-86.3" font-family="Times,serif" font-size="14.00">Name</text>
</g>
<!-- ast.Call object at 0x74533d577150&#45;&gt;ast.Name object at 0x74533d577f10 -->
<g id="edge17" class="edge">
<title>ast.Call object at 0x74533d577150&#45;&gt;ast.Name object at 0x74533d577f10</title>
<path fill="none" stroke="black" d="M676.18,-143.7C668.43,-135.22 658.96,-124.86 650.48,-115.58"/>
<polygon fill="black" stroke="black" points="652.97,-113.12 643.64,-108.1 647.8,-117.85 652.97,-113.12"/>
</g>
<!-- ast.Name object at 0x74533d577d50&#45;&gt;ast.Load object at 0x7454617ffb50 -->
<g id="edge16" class="edge">
<title>ast.Name object at 0x74533d577d50&#45;&gt;ast.Load object at 0x7454617ffb50</title>
<path fill="none" stroke="black" d="M538.2,-71.7C529.4,-63.14 518.62,-52.66 509,-43.3"/>
<polygon fill="black" stroke="black" points="511.2,-40.57 501.59,-36.1 506.32,-45.58 511.2,-40.57"/>
</g>
<!-- ast.Name object at 0x74533d577f10&#45;&gt;ast.Load object at 0x7454617ffb50 -->
<g id="edge18" class="edge">
<title>ast.Name object at 0x74533d577f10&#45;&gt;ast.Load object at 0x7454617ffb50</title>
<path fill="none" stroke="black" d="M600.91,-75.83C578.23,-64.81 545.64,-48.97 520.63,-36.81"/>
<polygon fill="black" stroke="black" points="521.98,-33.57 511.45,-32.35 518.92,-39.87 521.98,-33.57"/>
</g>
<!-- ast.Compare object at 0x74533d5771d0 -->
<g id="node18" class="node">
<title>ast.Compare object at 0x74533d5771d0</title>
<path fill="#66cdaa" stroke="black" d="M474.5,-252C474.5,-252 431.5,-252 431.5,-252 425.5,-252 419.5,-246 419.5,-240 419.5,-240 419.5,-228 419.5,-228 419.5,-222 425.5,-216 431.5,-216 431.5,-216 474.5,-216 474.5,-216 480.5,-216 486.5,-222 486.5,-228 486.5,-228 486.5,-240 486.5,-240 486.5,-246 480.5,-252 474.5,-252"/>
<text text-anchor="middle" x="453" y="-230.3" font-family="Times,serif" font-size="14.00">Compare</text>
</g>
<!-- ast.If object at 0x74533d577ad0&#45;&gt;ast.Compare object at 0x74533d5771d0 -->
<g id="edge20" class="edge">
<title>ast.If object at 0x74533d577ad0&#45;&gt;ast.Compare object at 0x74533d5771d0</title>
<path fill="none" stroke="black" d="M392.78,-287.7C402.75,-278.97 415.01,-268.24 425.86,-258.75"/>
<polygon fill="black" stroke="black" points="428.23,-261.32 433.45,-252.1 423.62,-256.06 428.23,-261.32"/>
</g>
<!-- ast.AugAssign object at 0x74533d577190 -->
<g id="node25" class="node">
<title>ast.AugAssign object at 0x74533d577190</title>
<path fill="#66cdaa" stroke="black" d="M281.5,-252C281.5,-252 228.5,-252 228.5,-252 222.5,-252 216.5,-246 216.5,-240 216.5,-240 216.5,-228 216.5,-228 216.5,-222 222.5,-216 228.5,-216 228.5,-216 281.5,-216 281.5,-216 287.5,-216 293.5,-222 293.5,-228 293.5,-228 293.5,-240 293.5,-240 293.5,-246 287.5,-252 281.5,-252"/>
<text text-anchor="middle" x="255" y="-230.3" font-family="Times,serif" font-size="14.00">AugAssign</text>
</g>
<!-- ast.If object at 0x74533d577ad0&#45;&gt;ast.AugAssign object at 0x74533d577190 -->
<g id="edge31" class="edge">
<title>ast.If object at 0x74533d577ad0&#45;&gt;ast.AugAssign object at 0x74533d577190</title>
<path fill="none" stroke="black" d="M345.93,-288.94C330.17,-279.59 310.06,-267.66 292.76,-257.4"/>
<polygon fill="black" stroke="black" points="294.39,-254.3 284.01,-252.21 290.82,-260.32 294.39,-254.3"/>
</g>
<!-- ast.Constant object at 0x74533d576d10 -->
<g id="node19" class="node">
<title>ast.Constant object at 0x74533d576d10</title>
<path fill="#66cdaa" stroke="black" d="M634.5,-180C634.5,-180 593.5,-180 593.5,-180 587.5,-180 581.5,-174 581.5,-168 581.5,-168 581.5,-156 581.5,-156 581.5,-150 587.5,-144 593.5,-144 593.5,-144 634.5,-144 634.5,-144 640.5,-144 646.5,-150 646.5,-156 646.5,-156 646.5,-168 646.5,-168 646.5,-174 640.5,-180 634.5,-180"/>
<text text-anchor="middle" x="614" y="-158.3" font-family="Times,serif" font-size="14.00">Constant</text>
</g>
<!-- ast.Compare object at 0x74533d5771d0&#45;&gt;ast.Constant object at 0x74533d576d10 -->
<g id="edge21" class="edge">
<title>ast.Compare object at 0x74533d5771d0&#45;&gt;ast.Constant object at 0x74533d576d10</title>
<path fill="none" stroke="black" d="M486.75,-218.33C511.55,-207.54 545.41,-192.82 571.97,-181.27"/>
<polygon fill="black" stroke="black" points="573.62,-184.37 581.39,-177.18 570.83,-177.95 573.62,-184.37"/>
</g>
<!-- ast.LtE object at 0x74546180cd10 -->
<g id="node20" class="node">
<title>ast.LtE object at 0x74546180cd10</title>
<path fill="#66cdaa" stroke="black" d="M468,-180C468,-180 438,-180 438,-180 432,-180 426,-174 426,-168 426,-168 426,-156 426,-156 426,-150 432,-144 438,-144 438,-144 468,-144 468,-144 474,-144 480,-150 480,-156 480,-156 480,-168 480,-168 480,-174 474,-180 468,-180"/>
<text text-anchor="middle" x="453" y="-158.3" font-family="Times,serif" font-size="14.00">LtE</text>
</g>
<!-- ast.Compare object at 0x74533d5771d0&#45;&gt;ast.LtE object at 0x74546180cd10 -->
<g id="edge22" class="edge">
<title>ast.Compare object at 0x74533d5771d0&#45;&gt;ast.LtE object at 0x74546180cd10</title>
<path fill="none" stroke="black" d="M447.08,-215.7C446.29,-207.98 446.06,-198.71 446.4,-190.11"/>
<polygon fill="black" stroke="black" points="449.9,-190.32 447.1,-180.1 442.92,-189.84 449.9,-190.32"/>
</g>
<!-- ast.Compare object at 0x74533d5771d0&#45;&gt;ast.LtE object at 0x74546180cd10 -->
<g id="edge23" class="edge">
<title>ast.Compare object at 0x74533d5771d0&#45;&gt;ast.LtE object at 0x74546180cd10</title>
<path fill="none" stroke="black" d="M458.92,-215.7C459.71,-207.98 459.94,-198.71 459.6,-190.11"/>
<polygon fill="black" stroke="black" points="463.08,-189.84 458.9,-180.1 456.1,-190.32 463.08,-189.84"/>
</g>
<!-- ast.Subscript object at 0x74533d577e90 -->
<g id="node21" class="node">
<title>ast.Subscript object at 0x74533d577e90</title>
<path fill="#66cdaa" stroke="black" d="M396,-180C396,-180 352,-180 352,-180 346,-180 340,-174 340,-168 340,-168 340,-156 340,-156 340,-150 346,-144 352,-144 352,-144 396,-144 396,-144 402,-144 408,-150 408,-156 408,-156 408,-168 408,-168 408,-174 402,-180 396,-180"/>
<text text-anchor="middle" x="374" y="-158.3" font-family="Times,serif" font-size="14.00">Subscript</text>
</g>
<!-- ast.Compare object at 0x74533d5771d0&#45;&gt;ast.Subscript object at 0x74533d577e90 -->
<g id="edge24" class="edge">
<title>ast.Compare object at 0x74533d5771d0&#45;&gt;ast.Subscript object at 0x74533d577e90</title>
<path fill="none" stroke="black" d="M433.47,-215.7C423.62,-206.97 411.51,-196.24 400.8,-186.75"/>
<polygon fill="black" stroke="black" points="403.11,-184.12 393.3,-180.1 398.47,-189.36 403.11,-184.12"/>
</g>
<!-- ast.Constant object at 0x74533d576e50 -->
<g id="node24" class="node">
<title>ast.Constant object at 0x74533d576e50</title>
<path fill="#66cdaa" stroke="black" d="M551.5,-180C551.5,-180 510.5,-180 510.5,-180 504.5,-180 498.5,-174 498.5,-168 498.5,-168 498.5,-156 498.5,-156 498.5,-150 504.5,-144 510.5,-144 510.5,-144 551.5,-144 551.5,-144 557.5,-144 563.5,-150 563.5,-156 563.5,-156 563.5,-168 563.5,-168 563.5,-174 557.5,-180 551.5,-180"/>
<text text-anchor="middle" x="531" y="-158.3" font-family="Times,serif" font-size="14.00">Constant</text>
</g>
<!-- ast.Compare object at 0x74533d5771d0&#45;&gt;ast.Constant object at 0x74533d576e50 -->
<g id="edge30" class="edge">
<title>ast.Compare object at 0x74533d5771d0&#45;&gt;ast.Constant object at 0x74533d576e50</title>
<path fill="none" stroke="black" d="M472.28,-215.7C481.92,-207.05 493.73,-196.45 504.23,-187.03"/>
<polygon fill="black" stroke="black" points="506.84,-189.39 511.94,-180.1 502.16,-184.18 506.84,-189.39"/>
</g>
<!-- ast.Subscript object at 0x74533d577e90&#45;&gt;ast.Load object at 0x7454617ffb50 -->
<g id="edge29" class="edge">
<title>ast.Subscript object at 0x74533d577e90&#45;&gt;ast.Load object at 0x7454617ffb50</title>
<path fill="none" stroke="black" d="M387.27,-143.87C406.51,-119.03 442.29,-72.85 464.52,-44.14"/>
<polygon fill="black" stroke="black" points="467.33,-46.24 470.68,-36.19 461.79,-41.95 467.33,-46.24"/>
</g>
<!-- ast.Name object at 0x74533d576ad0 -->
<g id="node22" class="node">
<title>ast.Name object at 0x74533d576ad0</title>
<path fill="#66cdaa" stroke="black" d="M499,-108C499,-108 469,-108 469,-108 463,-108 457,-102 457,-96 457,-96 457,-84 457,-84 457,-78 463,-72 469,-72 469,-72 499,-72 499,-72 505,-72 511,-78 511,-84 511,-84 511,-96 511,-96 511,-102 505,-108 499,-108"/>
<text text-anchor="middle" x="484" y="-86.3" font-family="Times,serif" font-size="14.00">Name</text>
</g>
<!-- ast.Subscript object at 0x74533d577e90&#45;&gt;ast.Name object at 0x74533d576ad0 -->
<g id="edge25" class="edge">
<title>ast.Subscript object at 0x74533d577e90&#45;&gt;ast.Name object at 0x74533d576ad0</title>
<path fill="none" stroke="black" d="M400.91,-143.88C415.16,-134.81 432.85,-123.55 448.24,-113.76"/>
<polygon fill="black" stroke="black" points="450.43,-116.51 456.99,-108.19 446.67,-110.61 450.43,-116.51"/>
</g>
<!-- ast.Name object at 0x74533d577410 -->
<g id="node23" class="node">
<title>ast.Name object at 0x74533d577410</title>
<path fill="#66cdaa" stroke="black" d="M389,-108C389,-108 359,-108 359,-108 353,-108 347,-102 347,-96 347,-96 347,-84 347,-84 347,-78 353,-72 359,-72 359,-72 389,-72 389,-72 395,-72 401,-78 401,-84 401,-84 401,-96 401,-96 401,-102 395,-108 389,-108"/>
<text text-anchor="middle" x="374" y="-86.3" font-family="Times,serif" font-size="14.00">Name</text>
</g>
<!-- ast.Subscript object at 0x74533d577e90&#45;&gt;ast.Name object at 0x74533d577410 -->
<g id="edge27" class="edge">
<title>ast.Subscript object at 0x74533d577e90&#45;&gt;ast.Name object at 0x74533d577410</title>
<path fill="none" stroke="black" d="M374,-143.7C374,-135.98 374,-126.71 374,-118.11"/>
<polygon fill="black" stroke="black" points="377.5,-118.1 374,-108.1 370.5,-118.1 377.5,-118.1"/>
</g>
<!-- ast.Name object at 0x74533d576ad0&#45;&gt;ast.Load object at 0x7454617ffb50 -->
<g id="edge26" class="edge">
<title>ast.Name object at 0x74533d576ad0&#45;&gt;ast.Load object at 0x7454617ffb50</title>
<path fill="none" stroke="black" d="M484,-71.7C484,-63.98 484,-54.71 484,-46.11"/>
<polygon fill="black" stroke="black" points="487.5,-46.1 484,-36.1 480.5,-46.1 487.5,-46.1"/>
</g>
<!-- ast.Name object at 0x74533d577410&#45;&gt;ast.Load object at 0x7454617ffb50 -->
<g id="edge28" class="edge">
<title>ast.Name object at 0x74533d577410&#45;&gt;ast.Load object at 0x7454617ffb50</title>
<path fill="none" stroke="black" d="M400.91,-71.88C415.16,-62.81 432.85,-51.55 448.24,-41.76"/>
<polygon fill="black" stroke="black" points="450.43,-44.51 456.99,-36.19 446.67,-38.61 450.43,-44.51"/>
</g>
<!-- ast.Name object at 0x74533d576dd0 -->
<g id="node26" class="node">
<title>ast.Name object at 0x74533d576dd0</title>
<path fill="#66cdaa" stroke="black" d="M152,-180C152,-180 122,-180 122,-180 116,-180 110,-174 110,-168 110,-168 110,-156 110,-156 110,-150 116,-144 122,-144 122,-144 152,-144 152,-144 158,-144 164,-150 164,-156 164,-156 164,-168 164,-168 164,-174 158,-180 152,-180"/>
<text text-anchor="middle" x="137" y="-158.3" font-family="Times,serif" font-size="14.00">Name</text>
</g>
<!-- ast.AugAssign object at 0x74533d577190&#45;&gt;ast.Name object at 0x74533d576dd0 -->
<g id="edge32" class="edge">
<title>ast.AugAssign object at 0x74533d577190&#45;&gt;ast.Name object at 0x74533d576dd0</title>
<path fill="none" stroke="black" d="M226.13,-215.88C210.24,-206.45 190.37,-194.66 173.42,-184.61"/>
<polygon fill="black" stroke="black" points="174.74,-181.32 164.35,-179.23 171.17,-187.34 174.74,-181.32"/>
</g>
<!-- ast.Add object at 0x74546180c090 -->
<g id="node27" class="node">
<title>ast.Add object at 0x74546180c090</title>
<path fill="#66cdaa" stroke="black" d="M310,-180C310,-180 280,-180 280,-180 274,-180 268,-174 268,-168 268,-168 268,-156 268,-156 268,-150 274,-144 280,-144 280,-144 310,-144 310,-144 316,-144 322,-150 322,-156 322,-156 322,-168 322,-168 322,-174 316,-180 310,-180"/>
<text text-anchor="middle" x="295" y="-158.3" font-family="Times,serif" font-size="14.00">Add</text>
</g>
<!-- ast.AugAssign object at 0x74533d577190&#45;&gt;ast.Add object at 0x74546180c090 -->
<g id="edge34" class="edge">
<title>ast.AugAssign object at 0x74533d577190&#45;&gt;ast.Add object at 0x74546180c090</title>
<path fill="none" stroke="black" d="M264.89,-215.7C269.49,-207.64 275.06,-197.89 280.15,-188.98"/>
<polygon fill="black" stroke="black" points="283.3,-190.52 285.23,-180.1 277.23,-187.05 283.3,-190.52"/>
</g>
<!-- ast.Subscript object at 0x74533e7ad450 -->
<g id="node28" class="node">
<title>ast.Subscript object at 0x74533e7ad450</title>
<path fill="#66cdaa" stroke="black" d="M238,-180C238,-180 194,-180 194,-180 188,-180 182,-174 182,-168 182,-168 182,-156 182,-156 182,-150 188,-144 194,-144 194,-144 238,-144 238,-144 244,-144 250,-150 250,-156 250,-156 250,-168 250,-168 250,-174 244,-180 238,-180"/>
<text text-anchor="middle" x="216" y="-158.3" font-family="Times,serif" font-size="14.00">Subscript</text>
</g>
<!-- ast.AugAssign object at 0x74533d577190&#45;&gt;ast.Subscript object at 0x74533e7ad450 -->
<g id="edge35" class="edge">
<title>ast.AugAssign object at 0x74533d577190&#45;&gt;ast.Subscript object at 0x74533e7ad450</title>
<path fill="none" stroke="black" d="M245.36,-215.7C240.87,-207.64 235.44,-197.89 230.48,-188.98"/>
<polygon fill="black" stroke="black" points="233.45,-187.14 225.53,-180.1 227.34,-190.54 233.45,-187.14"/>
</g>
<!-- ast.Name object at 0x74533d576dd0&#45;&gt;ast.Store object at 0x7454617ffbd0 -->
<g id="edge33" class="edge">
<title>ast.Name object at 0x74533d576dd0&#45;&gt;ast.Store object at 0x7454617ffbd0</title>
<path fill="none" stroke="black" d="M123.4,-143.7C116.88,-135.39 108.93,-125.28 101.75,-116.14"/>
<polygon fill="black" stroke="black" points="104.37,-113.81 95.44,-108.1 98.87,-118.13 104.37,-113.81"/>
</g>
<!-- ast.Subscript object at 0x74533e7ad450&#45;&gt;ast.Load object at 0x7454617ffb50 -->
<g id="edge40" class="edge">
<title>ast.Subscript object at 0x74533e7ad450&#45;&gt;ast.Load object at 0x7454617ffb50</title>
<path fill="none" stroke="black" d="M221.01,-143.78C227.82,-123.48 241.99,-90.2 266,-72 319.56,-31.39 399.96,-21.45 446.69,-19.28"/>
<polygon fill="black" stroke="black" points="447.1,-22.77 456.96,-18.9 446.84,-15.77 447.1,-22.77"/>
</g>
<!-- ast.Name object at 0x74533da5ead0 -->
<g id="node29" class="node">
<title>ast.Name object at 0x74533da5ead0</title>
<path fill="#66cdaa" stroke="black" d="M317,-108C317,-108 287,-108 287,-108 281,-108 275,-102 275,-96 275,-96 275,-84 275,-84 275,-78 281,-72 287,-72 287,-72 317,-72 317,-72 323,-72 329,-78 329,-84 329,-84 329,-96 329,-96 329,-102 323,-108 317,-108"/>
<text text-anchor="middle" x="302" y="-86.3" font-family="Times,serif" font-size="14.00">Name</text>
</g>
<!-- ast.Subscript object at 0x74533e7ad450&#45;&gt;ast.Name object at 0x74533da5ead0 -->
<g id="edge36" class="edge">
<title>ast.Subscript object at 0x74533e7ad450&#45;&gt;ast.Name object at 0x74533da5ead0</title>
<path fill="none" stroke="black" d="M237.26,-143.7C248.09,-134.88 261.42,-124.03 273.16,-114.47"/>
<polygon fill="black" stroke="black" points="275.44,-117.13 280.99,-108.1 271.02,-111.7 275.44,-117.13"/>
</g>
<!-- ast.Name object at 0x74533da5c790 -->
<g id="node30" class="node">
<title>ast.Name object at 0x74533da5c790</title>
<path fill="#66cdaa" stroke="black" d="M207,-108C207,-108 177,-108 177,-108 171,-108 165,-102 165,-96 165,-96 165,-84 165,-84 165,-78 171,-72 177,-72 177,-72 207,-72 207,-72 213,-72 219,-78 219,-84 219,-84 219,-96 219,-96 219,-102 213,-108 207,-108"/>
<text text-anchor="middle" x="192" y="-86.3" font-family="Times,serif" font-size="14.00">Name</text>
</g>
<!-- ast.Subscript object at 0x74533e7ad450&#45;&gt;ast.Name object at 0x74533da5c790 -->
<g id="edge38" class="edge">
<title>ast.Subscript object at 0x74533e7ad450&#45;&gt;ast.Name object at 0x74533da5c790</title>
<path fill="none" stroke="black" d="M210.07,-143.7C207.39,-135.9 204.17,-126.51 201.2,-117.83"/>
<polygon fill="black" stroke="black" points="204.42,-116.43 197.86,-108.1 197.8,-118.7 204.42,-116.43"/>
</g>
<!-- ast.Name object at 0x74533da5ead0&#45;&gt;ast.Load object at 0x7454617ffb50 -->
<g id="edge37" class="edge">
<title>ast.Name object at 0x74533da5ead0&#45;&gt;ast.Load object at 0x7454617ffb50</title>
<path fill="none" stroke="black" d="M329.01,-75.92C332.02,-74.55 335.07,-73.22 338,-72 374.68,-56.72 417.5,-41.47 447.24,-31.28"/>
<polygon fill="black" stroke="black" points="448.46,-34.56 456.8,-28.03 446.21,-27.94 448.46,-34.56"/>
</g>
<!-- ast.Name object at 0x74533da5c790&#45;&gt;ast.Load object at 0x7454617ffb50 -->
<g id="edge39" class="edge">
<title>ast.Name object at 0x74533da5c790&#45;&gt;ast.Load object at 0x7454617ffb50</title>
<path fill="none" stroke="black" d="M219.09,-76.95C223.68,-75.14 228.44,-73.41 233,-72 307.47,-48.92 397.45,-32.62 446.92,-24.62"/>
<polygon fill="black" stroke="black" points="447.51,-28.07 456.84,-23.04 446.41,-21.16 447.51,-28.07"/>
</g>
<!-- ast.IfExp object at 0x74533d713210 -->
<g id="node32" class="node">
<title>ast.IfExp object at 0x74533d713210</title>
<path fill="#66cdaa" stroke="black" d="M856,-252C856,-252 826,-252 826,-252 820,-252 814,-246 814,-240 814,-240 814,-228 814,-228 814,-222 820,-216 826,-216 826,-216 856,-216 856,-216 862,-216 868,-222 868,-228 868,-228 868,-240 868,-240 868,-246 862,-252 856,-252"/>
<text text-anchor="middle" x="841" y="-230.3" font-family="Times,serif" font-size="14.00">IfExp</text>
</g>
<!-- ast.Return object at 0x74533d711750&#45;&gt;ast.IfExp object at 0x74533d713210 -->
<g id="edge42" class="edge">
<title>ast.Return object at 0x74533d711750&#45;&gt;ast.IfExp object at 0x74533d713210</title>
<path fill="none" stroke="black" d="M468.18,-367.35C538.16,-342.51 724.61,-276.32 804.18,-248.07"/>
<polygon fill="black" stroke="black" points="805.53,-251.31 813.78,-244.66 803.19,-244.71 805.53,-251.31"/>
</g>
<!-- ast.Compare object at 0x74533d76ed50 -->
<g id="node33" class="node">
<title>ast.Compare object at 0x74533d76ed50</title>
<path fill="#66cdaa" stroke="black" d="M902.5,-180C902.5,-180 859.5,-180 859.5,-180 853.5,-180 847.5,-174 847.5,-168 847.5,-168 847.5,-156 847.5,-156 847.5,-150 853.5,-144 859.5,-144 859.5,-144 902.5,-144 902.5,-144 908.5,-144 914.5,-150 914.5,-156 914.5,-156 914.5,-168 914.5,-168 914.5,-174 908.5,-180 902.5,-180"/>
<text text-anchor="middle" x="881" y="-158.3" font-family="Times,serif" font-size="14.00">Compare</text>
</g>
<!-- ast.IfExp object at 0x74533d713210&#45;&gt;ast.Compare object at 0x74533d76ed50 -->
<g id="edge43" class="edge">
<title>ast.IfExp object at 0x74533d713210&#45;&gt;ast.Compare object at 0x74533d76ed50</title>
<path fill="none" stroke="black" d="M850.89,-215.7C855.49,-207.64 861.06,-197.89 866.15,-188.98"/>
<polygon fill="black" stroke="black" points="869.3,-190.52 871.23,-180.1 863.23,-187.05 869.3,-190.52"/>
</g>
<!-- ast.Name object at 0x74533d76fe10 -->
<g id="node37" class="node">
<title>ast.Name object at 0x74533d76fe10</title>
<path fill="#66cdaa" stroke="black" d="M817,-180C817,-180 787,-180 787,-180 781,-180 775,-174 775,-168 775,-168 775,-156 775,-156 775,-150 781,-144 787,-144 787,-144 817,-144 817,-144 823,-144 829,-150 829,-156 829,-156 829,-168 829,-168 829,-174 823,-180 817,-180"/>
<text text-anchor="middle" x="802" y="-158.3" font-family="Times,serif" font-size="14.00">Name</text>
</g>
<!-- ast.IfExp object at 0x74533d713210&#45;&gt;ast.Name object at 0x74533d76fe10 -->
<g id="edge48" class="edge">
<title>ast.IfExp object at 0x74533d713210&#45;&gt;ast.Name object at 0x74533d76fe10</title>
<path fill="none" stroke="black" d="M831.36,-215.7C826.87,-207.64 821.44,-197.89 816.48,-188.98"/>
<polygon fill="black" stroke="black" points="819.45,-187.14 811.53,-180.1 813.34,-190.54 819.45,-187.14"/>
</g>
<!-- ast.Constant object at 0x74533d76e2d0 -->
<g id="node38" class="node">
<title>ast.Constant object at 0x74533d76e2d0</title>
<path fill="#66cdaa" stroke="black" d="M985.5,-180C985.5,-180 944.5,-180 944.5,-180 938.5,-180 932.5,-174 932.5,-168 932.5,-168 932.5,-156 932.5,-156 932.5,-150 938.5,-144 944.5,-144 944.5,-144 985.5,-144 985.5,-144 991.5,-144 997.5,-150 997.5,-156 997.5,-156 997.5,-168 997.5,-168 997.5,-174 991.5,-180 985.5,-180"/>
<text text-anchor="middle" x="965" y="-158.3" font-family="Times,serif" font-size="14.00">Constant</text>
</g>
<!-- ast.IfExp object at 0x74533d713210&#45;&gt;ast.Constant object at 0x74533d76e2d0 -->
<g id="edge50" class="edge">
<title>ast.IfExp object at 0x74533d713210&#45;&gt;ast.Constant object at 0x74533d76e2d0</title>
<path fill="none" stroke="black" d="M868.21,-217.64C885.12,-208.09 907.14,-195.67 925.9,-185.07"/>
<polygon fill="black" stroke="black" points="927.82,-188.01 934.81,-180.04 924.38,-181.91 927.82,-188.01"/>
</g>
<!-- ast.Name object at 0x74533d76f490 -->
<g id="node34" class="node">
<title>ast.Name object at 0x74533d76f490</title>
<path fill="#66cdaa" stroke="black" d="M825,-108C825,-108 795,-108 795,-108 789,-108 783,-102 783,-96 783,-96 783,-84 783,-84 783,-78 789,-72 795,-72 795,-72 825,-72 825,-72 831,-72 837,-78 837,-84 837,-84 837,-96 837,-96 837,-102 831,-108 825,-108"/>
<text text-anchor="middle" x="810" y="-86.3" font-family="Times,serif" font-size="14.00">Name</text>
</g>
<!-- ast.Compare object at 0x74533d76ed50&#45;&gt;ast.Name object at 0x74533d76f490 -->
<g id="edge44" class="edge">
<title>ast.Compare object at 0x74533d76ed50&#45;&gt;ast.Name object at 0x74533d76f490</title>
<path fill="none" stroke="black" d="M863.45,-143.7C854.77,-135.14 844.14,-124.66 834.65,-115.3"/>
<polygon fill="black" stroke="black" points="836.93,-112.63 827.35,-108.1 832.01,-117.62 836.93,-112.63"/>
</g>
<!-- ast.NotEq object at 0x74546180cc10 -->
<g id="node35" class="node">
<title>ast.NotEq object at 0x74546180cc10</title>
<path fill="#66cdaa" stroke="black" d="M981,-108C981,-108 951,-108 951,-108 945,-108 939,-102 939,-96 939,-96 939,-84 939,-84 939,-78 945,-72 951,-72 951,-72 981,-72 981,-72 987,-72 993,-78 993,-84 993,-84 993,-96 993,-96 993,-102 987,-108 981,-108"/>
<text text-anchor="middle" x="966" y="-86.3" font-family="Times,serif" font-size="14.00">NotEq</text>
</g>
<!-- ast.Compare object at 0x74533d76ed50&#45;&gt;ast.NotEq object at 0x74546180cc10 -->
<g id="edge46" class="edge">
<title>ast.Compare object at 0x74533d76ed50&#45;&gt;ast.NotEq object at 0x74546180cc10</title>
<path fill="none" stroke="black" d="M902.01,-143.7C912.72,-134.88 925.89,-124.03 937.5,-114.47"/>
<polygon fill="black" stroke="black" points="939.74,-117.16 945.23,-108.1 935.29,-111.76 939.74,-117.16"/>
</g>
<!-- ast.Constant object at 0x74533d76c9d0 -->
<g id="node36" class="node">
<title>ast.Constant object at 0x74533d76c9d0</title>
<path fill="#66cdaa" stroke="black" d="M908.5,-108C908.5,-108 867.5,-108 867.5,-108 861.5,-108 855.5,-102 855.5,-96 855.5,-96 855.5,-84 855.5,-84 855.5,-78 861.5,-72 867.5,-72 867.5,-72 908.5,-72 908.5,-72 914.5,-72 920.5,-78 920.5,-84 920.5,-84 920.5,-96 920.5,-96 920.5,-102 914.5,-108 908.5,-108"/>
<text text-anchor="middle" x="888" y="-86.3" font-family="Times,serif" font-size="14.00">Constant</text>
</g>
<!-- ast.Compare object at 0x74533d76ed50&#45;&gt;ast.Constant object at 0x74533d76c9d0 -->
<g id="edge47" class="edge">
<title>ast.Compare object at 0x74533d76ed50&#45;&gt;ast.Constant object at 0x74533d76c9d0</title>
<path fill="none" stroke="black" d="M882.73,-143.7C883.5,-135.98 884.43,-126.71 885.29,-118.11"/>
<polygon fill="black" stroke="black" points="888.78,-118.4 886.29,-108.1 881.81,-117.71 888.78,-118.4"/>
</g>
<!-- ast.Name object at 0x74533d76f490&#45;&gt;ast.Load object at 0x7454617ffb50 -->
<g id="edge45" class="edge">
<title>ast.Name object at 0x74533d76f490&#45;&gt;ast.Load object at 0x7454617ffb50</title>
<path fill="none" stroke="black" d="M782.94,-76.85C778.35,-75.06 773.58,-73.36 769,-72 681.97,-46.18 576.1,-30.43 521.14,-23.38"/>
<polygon fill="black" stroke="black" points="521.52,-19.9 511.16,-22.13 520.65,-26.85 521.52,-19.9"/>
</g>
<!-- ast.Name object at 0x74533d76fe10&#45;&gt;ast.Load object at 0x7454617ffb50 -->
<g id="edge49" class="edge">
<title>ast.Name object at 0x74533d76fe10&#45;&gt;ast.Load object at 0x7454617ffb50</title>
<path fill="none" stroke="black" d="M794.16,-143.95C783.84,-123.5 763.69,-89.75 736,-72 669.1,-29.12 573.61,-20.23 521.48,-18.81"/>
<polygon fill="black" stroke="black" points="521.42,-15.31 511.35,-18.61 521.28,-22.31 521.42,-15.31"/>
</g>
</g>
</svg>
