<?xml version="1.0" encoding="UTF-8" standalone="no"?>
<!DOCTYPE svg PUBLIC "-//W3C//DTD SVG 1.1//EN"
 "http://www.w3.org/Graphics/SVG/1.1/DTD/svg11.dtd">
<!-- Generated by graphviz version 2.50.0 (0)
 -->
<!-- Pages: 1 -->
<svg width="734pt" height="764pt"
 viewBox="0.00 0.00 734.00 764.00" xmlns="http://www.w3.org/2000/svg" xmlns:xlink="http://www.w3.org/1999/xlink">
<g id="graph0" class="graph" transform="scale(1 1) rotate(0) translate(4 760)">
<polygon fill="white" stroke="transparent" points="-4,4 -4,-760 730,-760 730,4 -4,4"/>
<!-- ast.Module object at 0x781310c83ed0 -->
<g id="node1" class="node">
<title>ast.Module object at 0x781310c83ed0</title>
<path fill="#66cdaa" stroke="black" d="M412.5,-756C412.5,-756 377.5,-756 377.5,-756 371.5,-756 365.5,-750 365.5,-744 365.5,-744 365.5,-732 365.5,-732 365.5,-726 371.5,-720 377.5,-720 377.5,-720 412.5,-720 412.5,-720 418.5,-720 424.5,-726 424.5,-732 424.5,-732 424.5,-744 424.5,-744 424.5,-750 418.5,-756 412.5,-756"/>
<text text-anchor="middle" x="395" y="-734.3" font-family="Times,serif" font-size="14.00">Module</text>
</g>
<!-- ast.FunctionDef object at 0x7813104ca2d0 -->
<g id="node2" class="node">
<title>ast.FunctionDef object at 0x7813104ca2d0</title>
<path fill="#66cdaa" stroke="black" d="M425.5,-684C425.5,-684 364.5,-684 364.5,-684 358.5,-684 352.5,-678 352.5,-672 352.5,-672 352.5,-660 352.5,-660 352.5,-654 358.5,-648 364.5,-648 364.5,-648 425.5,-648 425.5,-648 431.5,-648 437.5,-654 437.5,-660 437.5,-660 437.5,-672 437.5,-672 437.5,-678 431.5,-684 425.5,-684"/>
<text text-anchor="middle" x="395" y="-662.3" font-family="Times,serif" font-size="14.00">FunctionDef</text>
</g>
<!-- ast.Module object at 0x781310c83ed0&#45;&gt;ast.FunctionDef object at 0x7813104ca2d0 -->
<g id="edge1" class="edge">
<title>ast.Module object at 0x781310c83ed0&#45;&gt;ast.FunctionDef object at 0x7813104ca2d0</title>
<path fill="none" stroke="black" d="M395,-719.7C395,-711.98 395,-702.71 395,-694.11"/>
<polygon fill="black" stroke="black" points="398.5,-694.1 395,-684.1 391.5,-694.1 398.5,-694.1"/>
</g>
<!-- ast.arguments object at 0x781311524bd0 -->
<g id="node3" class="node">
<title>ast.arguments object at 0x781311524bd0</title>
<path fill="#66cdaa" stroke="black" d="M328,-612C328,-612 278,-612 278,-612 272,-612 266,-606 266,-600 266,-600 266,-588 266,-588 266,-582 272,-576 278,-576 278,-576 328,-576 328,-576 334,-576 340,-582 340,-588 340,-588 340,-600 340,-600 340,-606 334,-612 328,-612"/>
<text text-anchor="middle" x="303" y="-590.3" font-family="Times,serif" font-size="14.00">arguments</text>
</g>
<!-- ast.FunctionDef object at 0x7813104ca2d0&#45;&gt;ast.arguments object at 0x781311524bd0 -->
<g id="edge2" class="edge">
<title>ast.FunctionDef object at 0x7813104ca2d0&#45;&gt;ast.arguments object at 0x781311524bd0</title>
<path fill="none" stroke="black" d="M372.26,-647.7C360.56,-638.8 346.14,-627.82 333.49,-618.2"/>
<polygon fill="black" stroke="black" points="335.56,-615.37 325.48,-612.1 331.32,-620.94 335.56,-615.37"/>
</g>
<!-- ast.Assign object at 0x781311ed4250 -->
<g id="node5" class="node">
<title>ast.Assign object at 0x781311ed4250</title>
<path fill="#66cdaa" stroke="black" d="M210,-468C210,-468 180,-468 180,-468 174,-468 168,-462 168,-456 168,-456 168,-444 168,-444 168,-438 174,-432 180,-432 180,-432 210,-432 210,-432 216,-432 222,-438 222,-444 222,-444 222,-456 222,-456 222,-462 216,-468 210,-468"/>
<text text-anchor="middle" x="195" y="-446.3" font-family="Times,serif" font-size="14.00">Assign</text>
</g>
<!-- ast.FunctionDef object at 0x7813104ca2d0&#45;&gt;ast.Assign object at 0x781311ed4250 -->
<g id="edge4" class="edge">
<title>ast.FunctionDef object at 0x7813104ca2d0&#45;&gt;ast.Assign object at 0x781311ed4250</title>
<path fill="none" stroke="black" d="M393.77,-647.95C390.53,-615.56 379.02,-544.75 339,-504 331.17,-496.03 271.75,-475.74 231.73,-462.7"/>
<polygon fill="black" stroke="black" points="232.6,-459.31 222.01,-459.56 230.45,-465.97 232.6,-459.31"/>
</g>
<!-- ast.For object at 0x7813122f1950 -->
<g id="node11" class="node">
<title>ast.For object at 0x7813122f1950</title>
<path fill="#66cdaa" stroke="black" d="M457,-612C457,-612 427,-612 427,-612 421,-612 415,-606 415,-600 415,-600 415,-588 415,-588 415,-582 421,-576 427,-576 427,-576 457,-576 457,-576 463,-576 469,-582 469,-588 469,-588 469,-600 469,-600 469,-606 463,-612 457,-612"/>
<text text-anchor="middle" x="442" y="-590.3" font-family="Times,serif" font-size="14.00">For</text>
</g>
<!-- ast.FunctionDef object at 0x7813104ca2d0&#45;&gt;ast.For object at 0x7813122f1950 -->
<g id="edge10" class="edge">
<title>ast.FunctionDef object at 0x7813104ca2d0&#45;&gt;ast.For object at 0x7813122f1950</title>
<path fill="none" stroke="black" d="M406.62,-647.7C412.14,-639.47 418.85,-629.48 424.93,-620.42"/>
<polygon fill="black" stroke="black" points="427.85,-622.36 430.52,-612.1 422.04,-618.46 427.85,-622.36"/>
</g>
<!-- ast.Return object at 0x781312b56310 -->
<g id="node34" class="node">
<title>ast.Return object at 0x781312b56310</title>
<path fill="#66cdaa" stroke="black" d="M636,-612C636,-612 606,-612 606,-612 600,-612 594,-606 594,-600 594,-600 594,-588 594,-588 594,-582 600,-576 606,-576 606,-576 636,-576 636,-576 642,-576 648,-582 648,-588 648,-588 648,-600 648,-600 648,-606 642,-612 636,-612"/>
<text text-anchor="middle" x="621" y="-590.3" font-family="Times,serif" font-size="14.00">Return</text>
</g>
<!-- ast.FunctionDef object at 0x7813104ca2d0&#45;&gt;ast.Return object at 0x781312b56310 -->
<g id="edge44" class="edge">
<title>ast.FunctionDef object at 0x7813104ca2d0&#45;&gt;ast.Return object at 0x781312b56310</title>
<path fill="none" stroke="black" d="M437.51,-651.83C479.83,-638.73 544.1,-618.82 584.27,-606.38"/>
<polygon fill="black" stroke="black" points="585.42,-609.69 593.93,-603.38 583.35,-603 585.42,-609.69"/>
</g>
<!-- ast.arg object at 0x781312228390 -->
<g id="node4" class="node">
<title>ast.arg object at 0x781312228390</title>
<path fill="#66cdaa" stroke="black" d="M318,-540C318,-540 288,-540 288,-540 282,-540 276,-534 276,-528 276,-528 276,-516 276,-516 276,-510 282,-504 288,-504 288,-504 318,-504 318,-504 324,-504 330,-510 330,-516 330,-516 330,-528 330,-528 330,-534 324,-540 318,-540"/>
<text text-anchor="middle" x="303" y="-518.3" font-family="Times,serif" font-size="14.00">arg</text>
</g>
<!-- ast.arguments object at 0x781311524bd0&#45;&gt;ast.arg object at 0x781312228390 -->
<g id="edge3" class="edge">
<title>ast.arguments object at 0x781311524bd0&#45;&gt;ast.arg object at 0x781312228390</title>
<path fill="none" stroke="black" d="M303,-575.7C303,-567.98 303,-558.71 303,-550.11"/>
<polygon fill="black" stroke="black" points="306.5,-550.1 303,-540.1 299.5,-550.1 306.5,-550.1"/>
</g>
<!-- ast.Name object at 0x781311ed5b50 -->
<g id="node6" class="node">
<title>ast.Name object at 0x781311ed5b50</title>
<path fill="#66cdaa" stroke="black" d="M210,-396C210,-396 180,-396 180,-396 174,-396 168,-390 168,-384 168,-384 168,-372 168,-372 168,-366 174,-360 180,-360 180,-360 210,-360 210,-360 216,-360 222,-366 222,-372 222,-372 222,-384 222,-384 222,-390 216,-396 210,-396"/>
<text text-anchor="middle" x="195" y="-374.3" font-family="Times,serif" font-size="14.00">Name</text>
</g>
<!-- ast.Assign object at 0x781311ed4250&#45;&gt;ast.Name object at 0x781311ed5b50 -->
<g id="edge5" class="edge">
<title>ast.Assign object at 0x781311ed4250&#45;&gt;ast.Name object at 0x781311ed5b50</title>
<path fill="none" stroke="black" d="M195,-431.7C195,-423.98 195,-414.71 195,-406.11"/>
<polygon fill="black" stroke="black" points="198.5,-406.1 195,-396.1 191.5,-406.1 198.5,-406.1"/>
</g>
<!-- ast.Call object at 0x781311ed7f90 -->
<g id="node8" class="node">
<title>ast.Call object at 0x781311ed7f90</title>
<path fill="#66cdaa" stroke="black" d="M124,-396C124,-396 94,-396 94,-396 88,-396 82,-390 82,-384 82,-384 82,-372 82,-372 82,-366 88,-360 94,-360 94,-360 124,-360 124,-360 130,-360 136,-366 136,-372 136,-372 136,-384 136,-384 136,-390 130,-396 124,-396"/>
<text text-anchor="middle" x="109" y="-374.3" font-family="Times,serif" font-size="14.00">Call</text>
</g>
<!-- ast.Assign object at 0x781311ed4250&#45;&gt;ast.Call object at 0x781311ed7f90 -->
<g id="edge7" class="edge">
<title>ast.Assign object at 0x781311ed4250&#45;&gt;ast.Call object at 0x781311ed7f90</title>
<path fill="none" stroke="black" d="M173.74,-431.7C162.91,-422.88 149.58,-412.03 137.84,-402.47"/>
<polygon fill="black" stroke="black" points="139.98,-399.7 130.01,-396.1 135.56,-405.13 139.98,-399.7"/>
</g>
<!-- ast.Store object at 0x78131643bb10 -->
<g id="node7" class="node">
<title>ast.Store object at 0x78131643bb10</title>
<path fill="#66cdaa" stroke="black" d="M265,-324C265,-324 235,-324 235,-324 229,-324 223,-318 223,-312 223,-312 223,-300 223,-300 223,-294 229,-288 235,-288 235,-288 265,-288 265,-288 271,-288 277,-294 277,-300 277,-300 277,-312 277,-312 277,-318 271,-324 265,-324"/>
<text text-anchor="middle" x="250" y="-302.3" font-family="Times,serif" font-size="14.00">Store</text>
</g>
<!-- ast.Name object at 0x781311ed5b50&#45;&gt;ast.Store object at 0x78131643bb10 -->
<g id="edge6" class="edge">
<title>ast.Name object at 0x781311ed5b50&#45;&gt;ast.Store object at 0x78131643bb10</title>
<path fill="none" stroke="black" d="M208.6,-359.7C215.12,-351.39 223.07,-341.28 230.25,-332.14"/>
<polygon fill="black" stroke="black" points="233.13,-334.13 236.56,-324.1 227.63,-329.81 233.13,-334.13"/>
</g>
<!-- ast.Name object at 0x7813122f0390 -->
<g id="node9" class="node">
<title>ast.Name object at 0x7813122f0390</title>
<path fill="#66cdaa" stroke="black" d="M42,-252C42,-252 12,-252 12,-252 6,-252 0,-246 0,-240 0,-240 0,-228 0,-228 0,-222 6,-216 12,-216 12,-216 42,-216 42,-216 48,-216 54,-222 54,-228 54,-228 54,-240 54,-240 54,-246 48,-252 42,-252"/>
<text text-anchor="middle" x="27" y="-230.3" font-family="Times,serif" font-size="14.00">Name</text>
</g>
<!-- ast.Call object at 0x781311ed7f90&#45;&gt;ast.Name object at 0x7813122f0390 -->
<g id="edge8" class="edge">
<title>ast.Call object at 0x781311ed7f90&#45;&gt;ast.Name object at 0x7813122f0390</title>
<path fill="none" stroke="black" d="M99.11,-359.87C84.89,-335.24 58.55,-289.64 41.95,-260.88"/>
<polygon fill="black" stroke="black" points="44.96,-259.1 36.93,-252.19 38.9,-262.6 44.96,-259.1"/>
</g>
<!-- ast.Load object at 0x78131643ba90 -->
<g id="node10" class="node">
<title>ast.Load object at 0x78131643ba90</title>
<path fill="#66cdaa" stroke="black" d="M399,-36C399,-36 369,-36 369,-36 363,-36 357,-30 357,-24 357,-24 357,-12 357,-12 357,-6 363,0 369,0 369,0 399,0 399,0 405,0 411,-6 411,-12 411,-12 411,-24 411,-24 411,-30 405,-36 399,-36"/>
<text text-anchor="middle" x="384" y="-14.3" font-family="Times,serif" font-size="14.00">Load</text>
</g>
<!-- ast.Name object at 0x7813122f0390&#45;&gt;ast.Load object at 0x78131643ba90 -->
<g id="edge9" class="edge">
<title>ast.Name object at 0x7813122f0390&#45;&gt;ast.Load object at 0x78131643ba90</title>
<path fill="none" stroke="black" d="M22.15,-215.76C14.1,-183.06 2.27,-111.71 39,-72 80,-27.67 266.27,-20.24 346.76,-19.12"/>
<polygon fill="black" stroke="black" points="346.98,-22.62 356.94,-19.01 346.9,-15.62 346.98,-22.62"/>
</g>
<!-- ast.Name object at 0x78130744bdd0 -->
<g id="node12" class="node">
<title>ast.Name object at 0x78130744bdd0</title>
<path fill="#66cdaa" stroke="black" d="M306,-468C306,-468 276,-468 276,-468 270,-468 264,-462 264,-456 264,-456 264,-444 264,-444 264,-438 270,-432 276,-432 276,-432 306,-432 306,-432 312,-432 318,-438 318,-444 318,-444 318,-456 318,-456 318,-462 312,-468 306,-468"/>
<text text-anchor="middle" x="291" y="-446.3" font-family="Times,serif" font-size="14.00">Name</text>
</g>
<!-- ast.For object at 0x7813122f1950&#45;&gt;ast.Name object at 0x78130744bdd0 -->
<g id="edge11" class="edge">
<title>ast.For object at 0x7813122f1950&#45;&gt;ast.Name object at 0x78130744bdd0</title>
<path fill="none" stroke="black" d="M433.52,-575.92C423.33,-556.66 404.72,-525.27 382,-504 365.98,-489 344.96,-476.41 327.17,-467.27"/>
<polygon fill="black" stroke="black" points="328.71,-464.13 318.2,-462.81 325.6,-470.4 328.71,-464.13"/>
</g>
<!-- ast.Name object at 0x781310b7a290 -->
<g id="node13" class="node">
<title>ast.Name object at 0x781310b7a290</title>
<path fill="#66cdaa" stroke="black" d="M665,-252C665,-252 635,-252 635,-252 629,-252 623,-246 623,-240 623,-240 623,-228 623,-228 623,-222 629,-216 635,-216 635,-216 665,-216 665,-216 671,-216 677,-222 677,-228 677,-228 677,-240 677,-240 677,-246 671,-252 665,-252"/>
<text text-anchor="middle" x="650" y="-230.3" font-family="Times,serif" font-size="14.00">Name</text>
</g>
<!-- ast.For object at 0x7813122f1950&#45;&gt;ast.Name object at 0x781310b7a290 -->
<g id="edge13" class="edge">
<title>ast.For object at 0x7813122f1950&#45;&gt;ast.Name object at 0x781310b7a290</title>
<path fill="none" stroke="black" d="M469.19,-585.34C519.26,-569.39 621,-527.56 621,-451 621,-451 621,-451 621,-377 621,-336.21 632.63,-290.15 641.16,-261.84"/>
<polygon fill="black" stroke="black" points="644.51,-262.84 644.13,-252.26 637.82,-260.77 644.51,-262.84"/>
</g>
<!-- ast.If object at 0x781312b1be90 -->
<g id="node14" class="node">
<title>ast.If object at 0x781312b1be90</title>
<path fill="#66cdaa" stroke="black" d="M476,-540C476,-540 446,-540 446,-540 440,-540 434,-534 434,-528 434,-528 434,-516 434,-516 434,-510 440,-504 446,-504 446,-504 476,-504 476,-504 482,-504 488,-510 488,-516 488,-516 488,-528 488,-528 488,-534 482,-540 476,-540"/>
<text text-anchor="middle" x="461" y="-518.3" font-family="Times,serif" font-size="14.00">If</text>
</g>
<!-- ast.For object at 0x7813122f1950&#45;&gt;ast.If object at 0x781312b1be90 -->
<g id="edge15" class="edge">
<title>ast.For object at 0x7813122f1950&#45;&gt;ast.If object at 0x781312b1be90</title>
<path fill="none" stroke="black" d="M446.7,-575.7C448.81,-567.9 451.36,-558.51 453.72,-549.83"/>
<polygon fill="black" stroke="black" points="457.12,-550.67 456.36,-540.1 450.36,-548.84 457.12,-550.67"/>
</g>
<!-- ast.Name object at 0x78130744bdd0&#45;&gt;ast.Store object at 0x78131643bb10 -->
<g id="edge12" class="edge">
<title>ast.Name object at 0x78130744bdd0&#45;&gt;ast.Store object at 0x78131643bb10</title>
<path fill="none" stroke="black" d="M282.84,-431.63C278.29,-421.43 272.79,-408.18 269,-396 262.67,-375.67 257.74,-352.07 254.49,-334.29"/>
<polygon fill="black" stroke="black" points="257.91,-333.54 252.73,-324.3 251.02,-334.76 257.91,-333.54"/>
</g>
<!-- ast.Name object at 0x781310b7a290&#45;&gt;ast.Load object at 0x78131643ba90 -->
<g id="edge14" class="edge">
<title>ast.Name object at 0x781310b7a290&#45;&gt;ast.Load object at 0x78131643ba90</title>
<path fill="none" stroke="black" d="M659.46,-215.89C668.33,-197.43 678.73,-167.52 668,-144 647.73,-99.57 628.18,-94.82 585,-72 531.91,-43.94 462.91,-29.97 421.12,-23.62"/>
<polygon fill="black" stroke="black" points="421.51,-20.14 411.11,-22.17 420.5,-27.07 421.51,-20.14"/>
</g>
<!-- ast.Compare object at 0x78131029d2d0 -->
<g id="node15" class="node">
<title>ast.Compare object at 0x78131029d2d0</title>
<path fill="#66cdaa" stroke="black" d="M553.5,-252C553.5,-252 510.5,-252 510.5,-252 504.5,-252 498.5,-246 498.5,-240 498.5,-240 498.5,-228 498.5,-228 498.5,-222 504.5,-216 510.5,-216 510.5,-216 553.5,-216 553.5,-216 559.5,-216 565.5,-222 565.5,-228 565.5,-228 565.5,-240 565.5,-240 565.5,-246 559.5,-252 553.5,-252"/>
<text text-anchor="middle" x="532" y="-230.3" font-family="Times,serif" font-size="14.00">Compare</text>
</g>
<!-- ast.If object at 0x781312b1be90&#45;&gt;ast.Compare object at 0x78131029d2d0 -->
<g id="edge16" class="edge">
<title>ast.If object at 0x781312b1be90&#45;&gt;ast.Compare object at 0x78131029d2d0</title>
<path fill="none" stroke="black" d="M465.23,-503.97C477.09,-456.19 510.74,-320.62 525.23,-262.27"/>
<polygon fill="black" stroke="black" points="528.69,-262.86 527.7,-252.31 521.9,-261.17 528.69,-262.86"/>
</g>
<!-- ast.For object at 0x78131152fed0 -->
<g id="node21" class="node">
<title>ast.For object at 0x78131152fed0</title>
<path fill="#66cdaa" stroke="black" d="M424,-468C424,-468 394,-468 394,-468 388,-468 382,-462 382,-456 382,-456 382,-444 382,-444 382,-438 388,-432 394,-432 394,-432 424,-432 424,-432 430,-432 436,-438 436,-444 436,-444 436,-456 436,-456 436,-462 430,-468 424,-468"/>
<text text-anchor="middle" x="409" y="-446.3" font-family="Times,serif" font-size="14.00">For</text>
</g>
<!-- ast.If object at 0x781312b1be90&#45;&gt;ast.For object at 0x78131152fed0 -->
<g id="edge24" class="edge">
<title>ast.If object at 0x781312b1be90&#45;&gt;ast.For object at 0x78131152fed0</title>
<path fill="none" stroke="black" d="M448.15,-503.7C441.97,-495.39 434.46,-485.28 427.68,-476.14"/>
<polygon fill="black" stroke="black" points="430.48,-474.04 421.71,-468.1 424.86,-478.22 430.48,-474.04"/>
</g>
<!-- ast.Call object at 0x78131029e150 -->
<g id="node16" class="node">
<title>ast.Call object at 0x78131029e150</title>
<path fill="#66cdaa" stroke="black" d="M492,-180C492,-180 462,-180 462,-180 456,-180 450,-174 450,-168 450,-168 450,-156 450,-156 450,-150 456,-144 462,-144 462,-144 492,-144 492,-144 498,-144 504,-150 504,-156 504,-156 504,-168 504,-168 504,-174 498,-180 492,-180"/>
<text text-anchor="middle" x="477" y="-158.3" font-family="Times,serif" font-size="14.00">Call</text>
</g>
<!-- ast.Compare object at 0x78131029d2d0&#45;&gt;ast.Call object at 0x78131029e150 -->
<g id="edge17" class="edge">
<title>ast.Compare object at 0x78131029d2d0&#45;&gt;ast.Call object at 0x78131029e150</title>
<path fill="none" stroke="black" d="M518.4,-215.7C511.88,-207.39 503.93,-197.28 496.75,-188.14"/>
<polygon fill="black" stroke="black" points="499.37,-185.81 490.44,-180.1 493.87,-190.13 499.37,-185.81"/>
</g>
<!-- ast.NotEq object at 0x781316448b50 -->
<g id="node19" class="node">
<title>ast.NotEq object at 0x781316448b50</title>
<path fill="#66cdaa" stroke="black" d="M564,-180C564,-180 534,-180 534,-180 528,-180 522,-174 522,-168 522,-168 522,-156 522,-156 522,-150 528,-144 534,-144 534,-144 564,-144 564,-144 570,-144 576,-150 576,-156 576,-156 576,-168 576,-168 576,-174 570,-180 564,-180"/>
<text text-anchor="middle" x="549" y="-158.3" font-family="Times,serif" font-size="14.00">NotEq</text>
</g>
<!-- ast.Compare object at 0x78131029d2d0&#45;&gt;ast.NotEq object at 0x781316448b50 -->
<g id="edge22" class="edge">
<title>ast.Compare object at 0x78131029d2d0&#45;&gt;ast.NotEq object at 0x781316448b50</title>
<path fill="none" stroke="black" d="M536.2,-215.7C538.1,-207.9 540.38,-198.51 542.48,-189.83"/>
<polygon fill="black" stroke="black" points="545.89,-190.65 544.85,-180.1 539.08,-189 545.89,-190.65"/>
</g>
<!-- ast.Constant object at 0x78131152d8d0 -->
<g id="node20" class="node">
<title>ast.Constant object at 0x78131152d8d0</title>
<path fill="#66cdaa" stroke="black" d="M647.5,-180C647.5,-180 606.5,-180 606.5,-180 600.5,-180 594.5,-174 594.5,-168 594.5,-168 594.5,-156 594.5,-156 594.5,-150 600.5,-144 606.5,-144 606.5,-144 647.5,-144 647.5,-144 653.5,-144 659.5,-150 659.5,-156 659.5,-156 659.5,-168 659.5,-168 659.5,-174 653.5,-180 647.5,-180"/>
<text text-anchor="middle" x="627" y="-158.3" font-family="Times,serif" font-size="14.00">Constant</text>
</g>
<!-- ast.Compare object at 0x78131029d2d0&#45;&gt;ast.Constant object at 0x78131152d8d0 -->
<g id="edge23" class="edge">
<title>ast.Compare object at 0x78131029d2d0&#45;&gt;ast.Constant object at 0x78131152d8d0</title>
<path fill="none" stroke="black" d="M555.48,-215.7C567.56,-206.8 582.45,-195.82 595.52,-186.2"/>
<polygon fill="black" stroke="black" points="597.81,-188.85 603.79,-180.1 593.66,-183.22 597.81,-188.85"/>
</g>
<!-- ast.Name object at 0x78131152ce50 -->
<g id="node17" class="node">
<title>ast.Name object at 0x78131152ce50</title>
<path fill="#66cdaa" stroke="black" d="M564,-108C564,-108 534,-108 534,-108 528,-108 522,-102 522,-96 522,-96 522,-84 522,-84 522,-78 528,-72 534,-72 534,-72 564,-72 564,-72 570,-72 576,-78 576,-84 576,-84 576,-96 576,-96 576,-102 570,-108 564,-108"/>
<text text-anchor="middle" x="549" y="-86.3" font-family="Times,serif" font-size="14.00">Name</text>
</g>
<!-- ast.Call object at 0x78131029e150&#45;&gt;ast.Name object at 0x78131152ce50 -->
<g id="edge18" class="edge">
<title>ast.Call object at 0x78131029e150&#45;&gt;ast.Name object at 0x78131152ce50</title>
<path fill="none" stroke="black" d="M494.8,-143.7C503.6,-135.14 514.38,-124.66 524,-115.3"/>
<polygon fill="black" stroke="black" points="526.68,-117.58 531.41,-108.1 521.8,-112.57 526.68,-117.58"/>
</g>
<!-- ast.Name object at 0x78131152c610 -->
<g id="node18" class="node">
<title>ast.Name object at 0x78131152c610</title>
<path fill="#66cdaa" stroke="black" d="M492,-108C492,-108 462,-108 462,-108 456,-108 450,-102 450,-96 450,-96 450,-84 450,-84 450,-78 456,-72 462,-72 462,-72 492,-72 492,-72 498,-72 504,-78 504,-84 504,-84 504,-96 504,-96 504,-102 498,-108 492,-108"/>
<text text-anchor="middle" x="477" y="-86.3" font-family="Times,serif" font-size="14.00">Name</text>
</g>
<!-- ast.Call object at 0x78131029e150&#45;&gt;ast.Name object at 0x78131152c610 -->
<g id="edge20" class="edge">
<title>ast.Call object at 0x78131029e150&#45;&gt;ast.Name object at 0x78131152c610</title>
<path fill="none" stroke="black" d="M477,-143.7C477,-135.98 477,-126.71 477,-118.11"/>
<polygon fill="black" stroke="black" points="480.5,-118.1 477,-108.1 473.5,-118.1 480.5,-118.1"/>
</g>
<!-- ast.Name object at 0x78131152ce50&#45;&gt;ast.Load object at 0x78131643ba90 -->
<g id="edge19" class="edge">
<title>ast.Name object at 0x78131152ce50&#45;&gt;ast.Load object at 0x78131643ba90</title>
<path fill="none" stroke="black" d="M521.94,-76.04C518.93,-74.65 515.91,-73.28 513,-72 482.16,-58.39 446.71,-43.91 420.79,-33.53"/>
<polygon fill="black" stroke="black" points="421.94,-30.22 411.35,-29.76 419.34,-36.72 421.94,-30.22"/>
</g>
<!-- ast.Name object at 0x78131152c610&#45;&gt;ast.Load object at 0x78131643ba90 -->
<g id="edge21" class="edge">
<title>ast.Name object at 0x78131152c610&#45;&gt;ast.Load object at 0x78131643ba90</title>
<path fill="none" stroke="black" d="M454.01,-71.7C442.19,-62.8 427.61,-51.82 414.82,-42.2"/>
<polygon fill="black" stroke="black" points="416.82,-39.32 406.72,-36.1 412.61,-44.91 416.82,-39.32"/>
</g>
<!-- ast.Name object at 0x78131152d710 -->
<g id="node22" class="node">
<title>ast.Name object at 0x78131152d710</title>
<path fill="#66cdaa" stroke="black" d="M320,-396C320,-396 290,-396 290,-396 284,-396 278,-390 278,-384 278,-384 278,-372 278,-372 278,-366 284,-360 290,-360 290,-360 320,-360 320,-360 326,-360 332,-366 332,-372 332,-372 332,-384 332,-384 332,-390 326,-396 320,-396"/>
<text text-anchor="middle" x="305" y="-374.3" font-family="Times,serif" font-size="14.00">Name</text>
</g>
<!-- ast.For object at 0x78131152fed0&#45;&gt;ast.Name object at 0x78131152d710 -->
<g id="edge25" class="edge">
<title>ast.For object at 0x78131152fed0&#45;&gt;ast.Name object at 0x78131152d710</title>
<path fill="none" stroke="black" d="M383.56,-431.88C370.21,-422.89 353.68,-411.76 339.22,-402.03"/>
<polygon fill="black" stroke="black" points="340.79,-398.87 330.54,-396.19 336.88,-404.68 340.79,-398.87"/>
</g>
<!-- ast.Name object at 0x781310c7e4d0 -->
<g id="node23" class="node">
<title>ast.Name object at 0x781310c7e4d0</title>
<path fill="#66cdaa" stroke="black" d="M447,-324C447,-324 417,-324 417,-324 411,-324 405,-318 405,-312 405,-312 405,-300 405,-300 405,-294 411,-288 417,-288 417,-288 447,-288 447,-288 453,-288 459,-294 459,-300 459,-300 459,-312 459,-312 459,-318 453,-324 447,-324"/>
<text text-anchor="middle" x="432" y="-302.3" font-family="Times,serif" font-size="14.00">Name</text>
</g>
<!-- ast.For object at 0x78131152fed0&#45;&gt;ast.Name object at 0x781310c7e4d0 -->
<g id="edge27" class="edge">
<title>ast.For object at 0x78131152fed0&#45;&gt;ast.Name object at 0x781310c7e4d0</title>
<path fill="none" stroke="black" d="M411.77,-431.87C415.69,-407.67 422.9,-363.21 427.56,-334.39"/>
<polygon fill="black" stroke="black" points="431.07,-334.62 429.22,-324.19 424.16,-333.5 431.07,-334.62"/>
</g>
<!-- ast.If object at 0x781310c7f990 -->
<g id="node24" class="node">
<title>ast.If object at 0x781310c7f990</title>
<path fill="#66cdaa" stroke="black" d="M392,-396C392,-396 362,-396 362,-396 356,-396 350,-390 350,-384 350,-384 350,-372 350,-372 350,-366 356,-360 362,-360 362,-360 392,-360 392,-360 398,-360 404,-366 404,-372 404,-372 404,-384 404,-384 404,-390 398,-396 392,-396"/>
<text text-anchor="middle" x="377" y="-374.3" font-family="Times,serif" font-size="14.00">If</text>
</g>
<!-- ast.For object at 0x78131152fed0&#45;&gt;ast.If object at 0x781310c7f990 -->
<g id="edge29" class="edge">
<title>ast.For object at 0x78131152fed0&#45;&gt;ast.If object at 0x781310c7f990</title>
<path fill="none" stroke="black" d="M401.09,-431.7C397.45,-423.73 393.05,-414.1 389.01,-405.26"/>
<polygon fill="black" stroke="black" points="392.16,-403.74 384.82,-396.1 385.79,-406.65 392.16,-403.74"/>
</g>
<!-- ast.Name object at 0x78131152d710&#45;&gt;ast.Store object at 0x78131643bb10 -->
<g id="edge26" class="edge">
<title>ast.Name object at 0x78131152d710&#45;&gt;ast.Store object at 0x78131643bb10</title>
<path fill="none" stroke="black" d="M291.4,-359.7C284.88,-351.39 276.93,-341.28 269.75,-332.14"/>
<polygon fill="black" stroke="black" points="272.37,-329.81 263.44,-324.1 266.87,-334.13 272.37,-329.81"/>
</g>
<!-- ast.Name object at 0x781310c7e4d0&#45;&gt;ast.Load object at 0x78131643ba90 -->
<g id="edge28" class="edge">
<title>ast.Name object at 0x781310c7e4d0&#45;&gt;ast.Load object at 0x78131643ba90</title>
<path fill="none" stroke="black" d="M429.14,-287.97C421.12,-240.19 398.37,-104.62 388.58,-46.27"/>
<polygon fill="black" stroke="black" points="392.01,-45.59 386.9,-36.31 385.11,-46.75 392.01,-45.59"/>
</g>
<!-- ast.Compare object at 0x781310be0f50 -->
<g id="node25" class="node">
<title>ast.Compare object at 0x781310be0f50</title>
<path fill="#66cdaa" stroke="black" d="M197.5,-180C197.5,-180 154.5,-180 154.5,-180 148.5,-180 142.5,-174 142.5,-168 142.5,-168 142.5,-156 142.5,-156 142.5,-150 148.5,-144 154.5,-144 154.5,-144 197.5,-144 197.5,-144 203.5,-144 209.5,-150 209.5,-156 209.5,-156 209.5,-168 209.5,-168 209.5,-174 203.5,-180 197.5,-180"/>
<text text-anchor="middle" x="176" y="-158.3" font-family="Times,serif" font-size="14.00">Compare</text>
</g>
<!-- ast.If object at 0x781310c7f990&#45;&gt;ast.Compare object at 0x781310be0f50 -->
<g id="edge30" class="edge">
<title>ast.If object at 0x781310c7f990&#45;&gt;ast.Compare object at 0x781310be0f50</title>
<path fill="none" stroke="black" d="M359.63,-360C349.19,-349.69 335.71,-336.21 324,-324 278.46,-276.5 226.75,-219.53 198.09,-187.67"/>
<polygon fill="black" stroke="black" points="200.61,-185.24 191.32,-180.14 195.4,-189.92 200.61,-185.24"/>
</g>
<!-- ast.Expr object at 0x781311585790 -->
<g id="node29" class="node">
<title>ast.Expr object at 0x781311585790</title>
<path fill="#66cdaa" stroke="black" d="M375,-324C375,-324 345,-324 345,-324 339,-324 333,-318 333,-312 333,-312 333,-300 333,-300 333,-294 339,-288 345,-288 345,-288 375,-288 375,-288 381,-288 387,-294 387,-300 387,-300 387,-312 387,-312 387,-318 381,-324 375,-324"/>
<text text-anchor="middle" x="360" y="-302.3" font-family="Times,serif" font-size="14.00">Expr</text>
</g>
<!-- ast.If object at 0x781310c7f990&#45;&gt;ast.Expr object at 0x781311585790 -->
<g id="edge36" class="edge">
<title>ast.If object at 0x781310c7f990&#45;&gt;ast.Expr object at 0x781311585790</title>
<path fill="none" stroke="black" d="M372.8,-359.7C370.9,-351.9 368.62,-342.51 366.52,-333.83"/>
<polygon fill="black" stroke="black" points="369.92,-333 364.15,-324.1 363.11,-334.65 369.92,-333"/>
</g>
<!-- ast.Name object at 0x781310be1950 -->
<g id="node26" class="node">
<title>ast.Name object at 0x781310be1950</title>
<path fill="#66cdaa" stroke="black" d="M162,-108C162,-108 132,-108 132,-108 126,-108 120,-102 120,-96 120,-96 120,-84 120,-84 120,-78 126,-72 132,-72 132,-72 162,-72 162,-72 168,-72 174,-78 174,-84 174,-84 174,-96 174,-96 174,-102 168,-108 162,-108"/>
<text text-anchor="middle" x="147" y="-86.3" font-family="Times,serif" font-size="14.00">Name</text>
</g>
<!-- ast.Compare object at 0x781310be0f50&#45;&gt;ast.Name object at 0x781310be1950 -->
<g id="edge31" class="edge">
<title>ast.Compare object at 0x781310be0f50&#45;&gt;ast.Name object at 0x781310be1950</title>
<path fill="none" stroke="black" d="M168.83,-143.7C165.57,-135.81 161.63,-126.3 158,-117.55"/>
<polygon fill="black" stroke="black" points="161.15,-116 154.09,-108.1 154.68,-118.68 161.15,-116"/>
</g>
<!-- ast.NotIn object at 0x781316448f50 -->
<g id="node27" class="node">
<title>ast.NotIn object at 0x781316448f50</title>
<path fill="#66cdaa" stroke="black" d="M234,-108C234,-108 204,-108 204,-108 198,-108 192,-102 192,-96 192,-96 192,-84 192,-84 192,-78 198,-72 204,-72 204,-72 234,-72 234,-72 240,-72 246,-78 246,-84 246,-84 246,-96 246,-96 246,-102 240,-108 234,-108"/>
<text text-anchor="middle" x="219" y="-86.3" font-family="Times,serif" font-size="14.00">NotIn</text>
</g>
<!-- ast.Compare object at 0x781310be0f50&#45;&gt;ast.NotIn object at 0x781316448f50 -->
<g id="edge33" class="edge">
<title>ast.Compare object at 0x781310be0f50&#45;&gt;ast.NotIn object at 0x781316448f50</title>
<path fill="none" stroke="black" d="M186.63,-143.7C191.63,-135.56 197.69,-125.69 203.21,-116.7"/>
<polygon fill="black" stroke="black" points="206.24,-118.46 208.49,-108.1 200.28,-114.79 206.24,-118.46"/>
</g>
<!-- ast.Name object at 0x781311584510 -->
<g id="node28" class="node">
<title>ast.Name object at 0x781311584510</title>
<path fill="#66cdaa" stroke="black" d="M90,-108C90,-108 60,-108 60,-108 54,-108 48,-102 48,-96 48,-96 48,-84 48,-84 48,-78 54,-72 60,-72 60,-72 90,-72 90,-72 96,-72 102,-78 102,-84 102,-84 102,-96 102,-96 102,-102 96,-108 90,-108"/>
<text text-anchor="middle" x="75" y="-86.3" font-family="Times,serif" font-size="14.00">Name</text>
</g>
<!-- ast.Compare object at 0x781310be0f50&#45;&gt;ast.Name object at 0x781311584510 -->
<g id="edge34" class="edge">
<title>ast.Compare object at 0x781310be0f50&#45;&gt;ast.Name object at 0x781311584510</title>
<path fill="none" stroke="black" d="M151.29,-143.88C138.33,-134.89 122.27,-123.76 108.23,-114.03"/>
<polygon fill="black" stroke="black" points="110.02,-111.01 99.8,-108.19 106.03,-116.76 110.02,-111.01"/>
</g>
<!-- ast.Name object at 0x781310be1950&#45;&gt;ast.Load object at 0x78131643ba90 -->
<g id="edge32" class="edge">
<title>ast.Name object at 0x781310be1950&#45;&gt;ast.Load object at 0x78131643ba90</title>
<path fill="none" stroke="black" d="M174.3,-75.48C177.2,-74.23 180.14,-73.04 183,-72 238.95,-51.61 306.29,-35.48 347.08,-26.6"/>
<polygon fill="black" stroke="black" points="347.82,-30.02 356.86,-24.5 346.35,-23.18 347.82,-30.02"/>
</g>
<!-- ast.Name object at 0x781311584510&#45;&gt;ast.Load object at 0x78131643ba90 -->
<g id="edge35" class="edge">
<title>ast.Name object at 0x781311584510&#45;&gt;ast.Load object at 0x78131643ba90</title>
<path fill="none" stroke="black" d="M102.23,-75.28C105.15,-74.07 108.11,-72.95 111,-72 192.94,-45.17 293.42,-29.98 346.69,-23.25"/>
<polygon fill="black" stroke="black" points="347.2,-26.71 356.7,-22.01 346.34,-19.76 347.2,-26.71"/>
</g>
<!-- ast.Call object at 0x7813115869d0 -->
<g id="node30" class="node">
<title>ast.Call object at 0x7813115869d0</title>
<path fill="#66cdaa" stroke="black" d="M375,-252C375,-252 345,-252 345,-252 339,-252 333,-246 333,-240 333,-240 333,-228 333,-228 333,-222 339,-216 345,-216 345,-216 375,-216 375,-216 381,-216 387,-222 387,-228 387,-228 387,-240 387,-240 387,-246 381,-252 375,-252"/>
<text text-anchor="middle" x="360" y="-230.3" font-family="Times,serif" font-size="14.00">Call</text>
</g>
<!-- ast.Expr object at 0x781311585790&#45;&gt;ast.Call object at 0x7813115869d0 -->
<g id="edge37" class="edge">
<title>ast.Expr object at 0x781311585790&#45;&gt;ast.Call object at 0x7813115869d0</title>
<path fill="none" stroke="black" d="M360,-287.7C360,-279.98 360,-270.71 360,-262.11"/>
<polygon fill="black" stroke="black" points="363.5,-262.1 360,-252.1 356.5,-262.1 363.5,-262.1"/>
</g>
<!-- ast.Attribute object at 0x7813127d38d0 -->
<g id="node31" class="node">
<title>ast.Attribute object at 0x7813127d38d0</title>
<path fill="#66cdaa" stroke="black" d="M309.5,-180C309.5,-180 268.5,-180 268.5,-180 262.5,-180 256.5,-174 256.5,-168 256.5,-168 256.5,-156 256.5,-156 256.5,-150 262.5,-144 268.5,-144 268.5,-144 309.5,-144 309.5,-144 315.5,-144 321.5,-150 321.5,-156 321.5,-156 321.5,-168 321.5,-168 321.5,-174 315.5,-180 309.5,-180"/>
<text text-anchor="middle" x="289" y="-158.3" font-family="Times,serif" font-size="14.00">Attribute</text>
</g>
<!-- ast.Call object at 0x7813115869d0&#45;&gt;ast.Attribute object at 0x7813127d38d0 -->
<g id="edge38" class="edge">
<title>ast.Call object at 0x7813115869d0&#45;&gt;ast.Attribute object at 0x7813127d38d0</title>
<path fill="none" stroke="black" d="M342.45,-215.7C333.77,-207.14 323.14,-196.66 313.65,-187.3"/>
<polygon fill="black" stroke="black" points="315.93,-184.63 306.35,-180.1 311.01,-189.62 315.93,-184.63"/>
</g>
<!-- ast.Name object at 0x781312b54d90 -->
<g id="node33" class="node">
<title>ast.Name object at 0x781312b54d90</title>
<path fill="#66cdaa" stroke="black" d="M382,-180C382,-180 352,-180 352,-180 346,-180 340,-174 340,-168 340,-168 340,-156 340,-156 340,-150 346,-144 352,-144 352,-144 382,-144 382,-144 388,-144 394,-150 394,-156 394,-156 394,-168 394,-168 394,-174 388,-180 382,-180"/>
<text text-anchor="middle" x="367" y="-158.3" font-family="Times,serif" font-size="14.00">Name</text>
</g>
<!-- ast.Call object at 0x7813115869d0&#45;&gt;ast.Name object at 0x781312b54d90 -->
<g id="edge42" class="edge">
<title>ast.Call object at 0x7813115869d0&#45;&gt;ast.Name object at 0x781312b54d90</title>
<path fill="none" stroke="black" d="M361.73,-215.7C362.5,-207.98 363.43,-198.71 364.29,-190.11"/>
<polygon fill="black" stroke="black" points="367.78,-190.4 365.29,-180.1 360.81,-189.71 367.78,-190.4"/>
</g>
<!-- ast.Attribute object at 0x7813127d38d0&#45;&gt;ast.Load object at 0x78131643ba90 -->
<g id="edge41" class="edge">
<title>ast.Attribute object at 0x7813127d38d0&#45;&gt;ast.Load object at 0x78131643ba90</title>
<path fill="none" stroke="black" d="M285.21,-143.88C281.97,-124.87 279.71,-93.97 293,-72 305.12,-51.97 327.88,-38.72 347.61,-30.47"/>
<polygon fill="black" stroke="black" points="348.94,-33.71 356.99,-26.82 346.4,-27.19 348.94,-33.71"/>
</g>
<!-- ast.Name object at 0x7813127d1c90 -->
<g id="node32" class="node">
<title>ast.Name object at 0x7813127d1c90</title>
<path fill="#66cdaa" stroke="black" d="M344,-108C344,-108 314,-108 314,-108 308,-108 302,-102 302,-96 302,-96 302,-84 302,-84 302,-78 308,-72 314,-72 314,-72 344,-72 344,-72 350,-72 356,-78 356,-84 356,-84 356,-96 356,-96 356,-102 350,-108 344,-108"/>
<text text-anchor="middle" x="329" y="-86.3" font-family="Times,serif" font-size="14.00">Name</text>
</g>
<!-- ast.Attribute object at 0x7813127d38d0&#45;&gt;ast.Name object at 0x7813127d1c90 -->
<g id="edge39" class="edge">
<title>ast.Attribute object at 0x7813127d38d0&#45;&gt;ast.Name object at 0x7813127d1c90</title>
<path fill="none" stroke="black" d="M298.89,-143.7C303.49,-135.64 309.06,-125.89 314.15,-116.98"/>
<polygon fill="black" stroke="black" points="317.3,-118.52 319.23,-108.1 311.23,-115.05 317.3,-118.52"/>
</g>
<!-- ast.Name object at 0x7813127d1c90&#45;&gt;ast.Load object at 0x78131643ba90 -->
<g id="edge40" class="edge">
<title>ast.Name object at 0x7813127d1c90&#45;&gt;ast.Load object at 0x78131643ba90</title>
<path fill="none" stroke="black" d="M342.6,-71.7C349.12,-63.39 357.07,-53.28 364.25,-44.14"/>
<polygon fill="black" stroke="black" points="367.13,-46.13 370.56,-36.1 361.63,-41.81 367.13,-46.13"/>
</g>
<!-- ast.Name object at 0x781312b54d90&#45;&gt;ast.Load object at 0x78131643ba90 -->
<g id="edge43" class="edge">
<title>ast.Name object at 0x781312b54d90&#45;&gt;ast.Load object at 0x78131643ba90</title>
<path fill="none" stroke="black" d="M369.05,-143.87C371.95,-119.67 377.27,-75.21 380.72,-46.39"/>
<polygon fill="black" stroke="black" points="384.23,-46.53 381.94,-36.19 377.28,-45.7 384.23,-46.53"/>
</g>
<!-- ast.Name object at 0x781310b28110 -->
<g id="node35" class="node">
<title>ast.Name object at 0x781310b28110</title>
<path fill="#66cdaa" stroke="black" d="M712,-540C712,-540 682,-540 682,-540 676,-540 670,-534 670,-528 670,-528 670,-516 670,-516 670,-510 676,-504 682,-504 682,-504 712,-504 712,-504 718,-504 724,-510 724,-516 724,-516 724,-528 724,-528 724,-534 718,-540 712,-540"/>
<text text-anchor="middle" x="697" y="-518.3" font-family="Times,serif" font-size="14.00">Name</text>
</g>
<!-- ast.Return object at 0x781312b56310&#45;&gt;ast.Name object at 0x781310b28110 -->
<g id="edge45" class="edge">
<title>ast.Return object at 0x781312b56310&#45;&gt;ast.Name object at 0x781310b28110</title>
<path fill="none" stroke="black" d="M639.79,-575.7C649.17,-567.05 660.68,-556.45 670.91,-547.03"/>
<polygon fill="black" stroke="black" points="673.45,-549.45 678.43,-540.1 668.7,-544.3 673.45,-549.45"/>
</g>
<!-- ast.Name object at 0x781310b28110&#45;&gt;ast.Load object at 0x78131643ba90 -->
<g id="edge46" class="edge">
<title>ast.Name object at 0x781310b28110&#45;&gt;ast.Load object at 0x78131643ba90</title>
<path fill="none" stroke="black" d="M702.87,-503.74C711.34,-477.25 726,-424.79 726,-379 726,-379 726,-379 726,-161 726,-102.49 680.96,-98.9 629,-72 561.17,-36.88 471.19,-25.01 421.31,-21.01"/>
<polygon fill="black" stroke="black" points="421.53,-17.52 411.3,-20.27 421.01,-24.5 421.53,-17.52"/>
</g>
</g>
</svg>
