<?xml version="1.0" encoding="UTF-8" standalone="no"?>
<!DOCTYPE svg PUBLIC "-//W3C//DTD SVG 1.1//EN"
 "http://www.w3.org/Graphics/SVG/1.1/DTD/svg11.dtd">
<!-- Generated by graphviz version 2.50.0 (0)
 -->
<!-- Pages: 1 -->
<svg width="916pt" height="548pt"
 viewBox="0.00 0.00 915.50 548.00" xmlns="http://www.w3.org/2000/svg" xmlns:xlink="http://www.w3.org/1999/xlink">
<g id="graph0" class="graph" transform="scale(1 1) rotate(0) translate(4 544)">
<polygon fill="white" stroke="transparent" points="-4,4 -4,-544 911.5,-544 911.5,4 -4,4"/>
<!-- ast.Module object at 0x787dba840610 -->
<g id="node1" class="node">
<title>ast.Module object at 0x787dba840610</title>
<path fill="#66cdaa" stroke="black" d="M675.5,-540C675.5,-540 640.5,-540 640.5,-540 634.5,-540 628.5,-534 628.5,-528 628.5,-528 628.5,-516 628.5,-516 628.5,-510 634.5,-504 640.5,-504 640.5,-504 675.5,-504 675.5,-504 681.5,-504 687.5,-510 687.5,-516 687.5,-516 687.5,-528 687.5,-528 687.5,-534 681.5,-540 675.5,-540"/>
<text text-anchor="middle" x="658" y="-518.3" font-family="Times,serif" font-size="14.00">Module</text>
</g>
<!-- ast.FunctionDef object at 0x787dc48e0a90 -->
<g id="node2" class="node">
<title>ast.FunctionDef object at 0x787dc48e0a90</title>
<path fill="#66cdaa" stroke="black" d="M688.5,-468C688.5,-468 627.5,-468 627.5,-468 621.5,-468 615.5,-462 615.5,-456 615.5,-456 615.5,-444 615.5,-444 615.5,-438 621.5,-432 627.5,-432 627.5,-432 688.5,-432 688.5,-432 694.5,-432 700.5,-438 700.5,-444 700.5,-444 700.5,-456 700.5,-456 700.5,-462 694.5,-468 688.5,-468"/>
<text text-anchor="middle" x="658" y="-446.3" font-family="Times,serif" font-size="14.00">FunctionDef</text>
</g>
<!-- ast.Module object at 0x787dba840610&#45;&gt;ast.FunctionDef object at 0x787dc48e0a90 -->
<g id="edge1" class="edge">
<title>ast.Module object at 0x787dba840610&#45;&gt;ast.FunctionDef object at 0x787dc48e0a90</title>
<path fill="none" stroke="black" d="M658,-503.7C658,-495.98 658,-486.71 658,-478.11"/>
<polygon fill="black" stroke="black" points="661.5,-478.1 658,-468.1 654.5,-478.1 661.5,-478.1"/>
</g>
<!-- ast.arguments object at 0x787dbb7a76d0 -->
<g id="node3" class="node">
<title>ast.arguments object at 0x787dbb7a76d0</title>
<path fill="#66cdaa" stroke="black" d="M651,-396C651,-396 601,-396 601,-396 595,-396 589,-390 589,-384 589,-384 589,-372 589,-372 589,-366 595,-360 601,-360 601,-360 651,-360 651,-360 657,-360 663,-366 663,-372 663,-372 663,-384 663,-384 663,-390 657,-396 651,-396"/>
<text text-anchor="middle" x="626" y="-374.3" font-family="Times,serif" font-size="14.00">arguments</text>
</g>
<!-- ast.FunctionDef object at 0x787dc48e0a90&#45;&gt;ast.arguments object at 0x787dbb7a76d0 -->
<g id="edge2" class="edge">
<title>ast.FunctionDef object at 0x787dc48e0a90&#45;&gt;ast.arguments object at 0x787dbb7a76d0</title>
<path fill="none" stroke="black" d="M650.09,-431.7C646.45,-423.73 642.05,-414.1 638.01,-405.26"/>
<polygon fill="black" stroke="black" points="641.16,-403.74 633.82,-396.1 634.79,-406.65 641.16,-403.74"/>
</g>
<!-- ast.Expr object at 0x787dbb7a6810 -->
<g id="node7" class="node">
<title>ast.Expr object at 0x787dbb7a6810</title>
<path fill="#66cdaa" stroke="black" d="M833,-396C833,-396 803,-396 803,-396 797,-396 791,-390 791,-384 791,-384 791,-372 791,-372 791,-366 797,-360 803,-360 803,-360 833,-360 833,-360 839,-360 845,-366 845,-372 845,-372 845,-384 845,-384 845,-390 839,-396 833,-396"/>
<text text-anchor="middle" x="818" y="-374.3" font-family="Times,serif" font-size="14.00">Expr</text>
</g>
<!-- ast.FunctionDef object at 0x787dc48e0a90&#45;&gt;ast.Expr object at 0x787dbb7a6810 -->
<g id="edge6" class="edge">
<title>ast.FunctionDef object at 0x787dc48e0a90&#45;&gt;ast.Expr object at 0x787dbb7a6810</title>
<path fill="none" stroke="black" d="M698.94,-431.95C721.1,-422.62 749.13,-410.66 781.64,-396.09"/>
<polygon fill="black" stroke="black" points="783.24,-399.21 790.92,-391.92 780.37,-392.83 783.24,-399.21"/>
</g>
<!-- ast.Assign object at 0x787dbb7a5d90 -->
<g id="node9" class="node">
<title>ast.Assign object at 0x787dbb7a5d90</title>
<path fill="#66cdaa" stroke="black" d="M240,-396C240,-396 210,-396 210,-396 204,-396 198,-390 198,-384 198,-384 198,-372 198,-372 198,-366 204,-360 210,-360 210,-360 240,-360 240,-360 246,-360 252,-366 252,-372 252,-372 252,-384 252,-384 252,-390 246,-396 240,-396"/>
<text text-anchor="middle" x="225" y="-374.3" font-family="Times,serif" font-size="14.00">Assign</text>
</g>
<!-- ast.FunctionDef object at 0x787dc48e0a90&#45;&gt;ast.Assign object at 0x787dbb7a5d90 -->
<g id="edge8" class="edge">
<title>ast.FunctionDef object at 0x787dc48e0a90&#45;&gt;ast.Assign object at 0x787dbb7a5d90</title>
<path fill="none" stroke="black" d="M615.3,-442.1C530.56,-428.4 342.43,-397.98 262.3,-385.03"/>
<polygon fill="black" stroke="black" points="262.61,-381.54 252.18,-383.39 261.5,-388.45 262.61,-381.54"/>
</g>
<!-- ast.If object at 0x787dbb5fbad0 -->
<g id="node21" class="node">
<title>ast.If object at 0x787dbb5fbad0</title>
<path fill="#66cdaa" stroke="black" d="M505,-324C505,-324 475,-324 475,-324 469,-324 463,-318 463,-312 463,-312 463,-300 463,-300 463,-294 469,-288 475,-288 475,-288 505,-288 505,-288 511,-288 517,-294 517,-300 517,-300 517,-312 517,-312 517,-318 511,-324 505,-324"/>
<text text-anchor="middle" x="490" y="-302.3" font-family="Times,serif" font-size="14.00">If</text>
</g>
<!-- ast.FunctionDef object at 0x787dc48e0a90&#45;&gt;ast.If object at 0x787dbb5fbad0 -->
<g id="edge25" class="edge">
<title>ast.FunctionDef object at 0x787dc48e0a90&#45;&gt;ast.If object at 0x787dbb5fbad0</title>
<path fill="none" stroke="black" d="M630.05,-431.78C614.77,-421.94 595.81,-409 580,-396 555.5,-375.85 530.01,-350.12 512.44,-331.51"/>
<polygon fill="black" stroke="black" points="514.81,-328.92 505.42,-324.01 509.69,-333.7 514.81,-328.92"/>
</g>
<!-- ast.Return object at 0x787dba8d2350 -->
<g id="node30" class="node">
<title>ast.Return object at 0x787dba8d2350</title>
<path fill="#66cdaa" stroke="black" d="M761,-396C761,-396 731,-396 731,-396 725,-396 719,-390 719,-384 719,-384 719,-372 719,-372 719,-366 725,-360 731,-360 731,-360 761,-360 761,-360 767,-360 773,-366 773,-372 773,-372 773,-384 773,-384 773,-390 767,-396 761,-396"/>
<text text-anchor="middle" x="746" y="-374.3" font-family="Times,serif" font-size="14.00">Return</text>
</g>
<!-- ast.FunctionDef object at 0x787dc48e0a90&#45;&gt;ast.Return object at 0x787dba8d2350 -->
<g id="edge37" class="edge">
<title>ast.FunctionDef object at 0x787dc48e0a90&#45;&gt;ast.Return object at 0x787dba8d2350</title>
<path fill="none" stroke="black" d="M679.75,-431.7C690.84,-422.88 704.47,-412.03 716.49,-402.47"/>
<polygon fill="black" stroke="black" points="718.85,-405.07 724.5,-396.1 714.49,-399.59 718.85,-405.07"/>
</g>
<!-- ast.Subscript object at 0x787dbb5fa1d0 -->
<g id="node35" class="node">
<title>ast.Subscript object at 0x787dbb5fa1d0</title>
<path fill="#66cdaa" stroke="black" d="M713,-180C713,-180 669,-180 669,-180 663,-180 657,-174 657,-168 657,-168 657,-156 657,-156 657,-150 663,-144 669,-144 669,-144 713,-144 713,-144 719,-144 725,-150 725,-156 725,-156 725,-168 725,-168 725,-174 719,-180 713,-180"/>
<text text-anchor="middle" x="691" y="-158.3" font-family="Times,serif" font-size="14.00">Subscript</text>
</g>
<!-- ast.FunctionDef object at 0x787dc48e0a90&#45;&gt;ast.Subscript object at 0x787dbb5fa1d0 -->
<g id="edge44" class="edge">
<title>ast.FunctionDef object at 0x787dc48e0a90&#45;&gt;ast.Subscript object at 0x787dbb5fa1d0</title>
<path fill="none" stroke="black" d="M663.32,-431.98C666.33,-421.67 669.91,-408.19 672,-396 684.65,-322.25 688.93,-233.87 690.34,-190.19"/>
<polygon fill="black" stroke="black" points="693.84,-190.18 690.64,-180.09 686.84,-189.98 693.84,-190.18"/>
</g>
<!-- ast.arg object at 0x787dbb7a7e50 -->
<g id="node4" class="node">
<title>ast.arg object at 0x787dbb7a7e50</title>
<path fill="#66cdaa" stroke="black" d="M642,-324C642,-324 612,-324 612,-324 606,-324 600,-318 600,-312 600,-312 600,-300 600,-300 600,-294 606,-288 612,-288 612,-288 642,-288 642,-288 648,-288 654,-294 654,-300 654,-300 654,-312 654,-312 654,-318 648,-324 642,-324"/>
<text text-anchor="middle" x="627" y="-302.3" font-family="Times,serif" font-size="14.00">arg</text>
</g>
<!-- ast.arguments object at 0x787dbb7a76d0&#45;&gt;ast.arg object at 0x787dbb7a7e50 -->
<g id="edge3" class="edge">
<title>ast.arguments object at 0x787dbb7a76d0&#45;&gt;ast.arg object at 0x787dbb7a7e50</title>
<path fill="none" stroke="black" d="M626.25,-359.7C626.36,-351.98 626.49,-342.71 626.61,-334.11"/>
<polygon fill="black" stroke="black" points="630.11,-334.15 626.76,-324.1 623.11,-334.05 630.11,-334.15"/>
</g>
<!-- ast.Name object at 0x787dbb7a5050 -->
<g id="node5" class="node">
<title>ast.Name object at 0x787dbb7a5050</title>
<path fill="#66cdaa" stroke="black" d="M643,-252C643,-252 613,-252 613,-252 607,-252 601,-246 601,-240 601,-240 601,-228 601,-228 601,-222 607,-216 613,-216 613,-216 643,-216 643,-216 649,-216 655,-222 655,-228 655,-228 655,-240 655,-240 655,-246 649,-252 643,-252"/>
<text text-anchor="middle" x="628" y="-230.3" font-family="Times,serif" font-size="14.00">Name</text>
</g>
<!-- ast.arg object at 0x787dbb7a7e50&#45;&gt;ast.Name object at 0x787dbb7a5050 -->
<g id="edge4" class="edge">
<title>ast.arg object at 0x787dbb7a7e50&#45;&gt;ast.Name object at 0x787dbb7a5050</title>
<path fill="none" stroke="black" d="M627.25,-287.7C627.36,-279.98 627.49,-270.71 627.61,-262.11"/>
<polygon fill="black" stroke="black" points="631.11,-262.15 627.76,-252.1 624.11,-262.05 631.11,-262.15"/>
</g>
<!-- ast.Load object at 0x787ea9337bd0 -->
<g id="node6" class="node">
<title>ast.Load object at 0x787ea9337bd0</title>
<path fill="#66cdaa" stroke="black" d="M488,-36C488,-36 458,-36 458,-36 452,-36 446,-30 446,-24 446,-24 446,-12 446,-12 446,-6 452,0 458,0 458,0 488,0 488,0 494,0 500,-6 500,-12 500,-12 500,-24 500,-24 500,-30 494,-36 488,-36"/>
<text text-anchor="middle" x="473" y="-14.3" font-family="Times,serif" font-size="14.00">Load</text>
</g>
<!-- ast.Name object at 0x787dbb7a5050&#45;&gt;ast.Load object at 0x787ea9337bd0 -->
<g id="edge5" class="edge">
<title>ast.Name object at 0x787dbb7a5050&#45;&gt;ast.Load object at 0x787ea9337bd0</title>
<path fill="none" stroke="black" d="M628.32,-215.95C627.86,-196.72 624.49,-165.36 609,-144 590.29,-118.21 571.34,-128.57 547,-108 524.91,-89.33 504.26,-63.51 490.42,-44.49"/>
<polygon fill="black" stroke="black" points="493.22,-42.39 484.56,-36.28 487.52,-46.46 493.22,-42.39"/>
</g>
<!-- ast.Constant object at 0x787dbb7a7610 -->
<g id="node8" class="node">
<title>ast.Constant object at 0x787dbb7a7610</title>
<path fill="#66cdaa" stroke="black" d="M838.5,-324C838.5,-324 797.5,-324 797.5,-324 791.5,-324 785.5,-318 785.5,-312 785.5,-312 785.5,-300 785.5,-300 785.5,-294 791.5,-288 797.5,-288 797.5,-288 838.5,-288 838.5,-288 844.5,-288 850.5,-294 850.5,-300 850.5,-300 850.5,-312 850.5,-312 850.5,-318 844.5,-324 838.5,-324"/>
<text text-anchor="middle" x="818" y="-302.3" font-family="Times,serif" font-size="14.00">Constant</text>
</g>
<!-- ast.Expr object at 0x787dbb7a6810&#45;&gt;ast.Constant object at 0x787dbb7a7610 -->
<g id="edge7" class="edge">
<title>ast.Expr object at 0x787dbb7a6810&#45;&gt;ast.Constant object at 0x787dbb7a7610</title>
<path fill="none" stroke="black" d="M818,-359.7C818,-351.98 818,-342.71 818,-334.11"/>
<polygon fill="black" stroke="black" points="821.5,-334.1 818,-324.1 814.5,-334.1 821.5,-334.1"/>
</g>
<!-- ast.Name object at 0x787dbb952bd0 -->
<g id="node10" class="node">
<title>ast.Name object at 0x787dbb952bd0</title>
<path fill="#66cdaa" stroke="black" d="M86,-324C86,-324 56,-324 56,-324 50,-324 44,-318 44,-312 44,-312 44,-300 44,-300 44,-294 50,-288 56,-288 56,-288 86,-288 86,-288 92,-288 98,-294 98,-300 98,-300 98,-312 98,-312 98,-318 92,-324 86,-324"/>
<text text-anchor="middle" x="71" y="-302.3" font-family="Times,serif" font-size="14.00">Name</text>
</g>
<!-- ast.Assign object at 0x787dbb7a5d90&#45;&gt;ast.Name object at 0x787dbb952bd0 -->
<g id="edge9" class="edge">
<title>ast.Assign object at 0x787dbb7a5d90&#45;&gt;ast.Name object at 0x787dbb952bd0</title>
<path fill="none" stroke="black" d="M197.82,-364.65C172.72,-353.24 135.23,-336.2 107.52,-323.6"/>
<polygon fill="black" stroke="black" points="108.72,-320.3 98.16,-319.35 105.82,-326.67 108.72,-320.3"/>
</g>
<!-- ast.Call object at 0x787dbb951dd0 -->
<g id="node12" class="node">
<title>ast.Call object at 0x787dbb951dd0</title>
<path fill="#66cdaa" stroke="black" d="M240,-324C240,-324 210,-324 210,-324 204,-324 198,-318 198,-312 198,-312 198,-300 198,-300 198,-294 204,-288 210,-288 210,-288 240,-288 240,-288 246,-288 252,-294 252,-300 252,-300 252,-312 252,-312 252,-318 246,-324 240,-324"/>
<text text-anchor="middle" x="225" y="-302.3" font-family="Times,serif" font-size="14.00">Call</text>
</g>
<!-- ast.Assign object at 0x787dbb7a5d90&#45;&gt;ast.Call object at 0x787dbb951dd0 -->
<g id="edge11" class="edge">
<title>ast.Assign object at 0x787dbb7a5d90&#45;&gt;ast.Call object at 0x787dbb951dd0</title>
<path fill="none" stroke="black" d="M225,-359.7C225,-351.98 225,-342.71 225,-334.11"/>
<polygon fill="black" stroke="black" points="228.5,-334.1 225,-324.1 221.5,-334.1 228.5,-334.1"/>
</g>
<!-- ast.Store object at 0x787ea9337c50 -->
<g id="node11" class="node">
<title>ast.Store object at 0x787ea9337c50</title>
<path fill="#66cdaa" stroke="black" d="M42,-36C42,-36 12,-36 12,-36 6,-36 0,-30 0,-24 0,-24 0,-12 0,-12 0,-6 6,0 12,0 12,0 42,0 42,0 48,0 54,-6 54,-12 54,-12 54,-24 54,-24 54,-30 48,-36 42,-36"/>
<text text-anchor="middle" x="27" y="-14.3" font-family="Times,serif" font-size="14.00">Store</text>
</g>
<!-- ast.Name object at 0x787dbb952bd0&#45;&gt;ast.Store object at 0x787ea9337c50 -->
<g id="edge10" class="edge">
<title>ast.Name object at 0x787dbb952bd0&#45;&gt;ast.Store object at 0x787ea9337c50</title>
<path fill="none" stroke="black" d="M64.76,-287.92C52.8,-254.13 27,-176.12 18,-108 15.27,-87.34 17.87,-63.9 20.97,-46.26"/>
<polygon fill="black" stroke="black" points="24.47,-46.58 22.92,-36.1 17.6,-45.26 24.47,-46.58"/>
</g>
<!-- ast.Name object at 0x787dbb950090 -->
<g id="node13" class="node">
<title>ast.Name object at 0x787dbb950090</title>
<path fill="#66cdaa" stroke="black" d="M317,-252C317,-252 287,-252 287,-252 281,-252 275,-246 275,-240 275,-240 275,-228 275,-228 275,-222 281,-216 287,-216 287,-216 317,-216 317,-216 323,-216 329,-222 329,-228 329,-228 329,-240 329,-240 329,-246 323,-252 317,-252"/>
<text text-anchor="middle" x="302" y="-230.3" font-family="Times,serif" font-size="14.00">Name</text>
</g>
<!-- ast.Call object at 0x787dbb951dd0&#45;&gt;ast.Name object at 0x787dbb950090 -->
<g id="edge12" class="edge">
<title>ast.Call object at 0x787dbb951dd0&#45;&gt;ast.Name object at 0x787dbb950090</title>
<path fill="none" stroke="black" d="M244.03,-287.7C253.54,-279.05 265.21,-268.45 275.57,-259.03"/>
<polygon fill="black" stroke="black" points="278.14,-261.42 283.19,-252.1 273.43,-256.24 278.14,-261.42"/>
</g>
<!-- ast.GeneratorExp object at 0x787dbb5f8810 -->
<g id="node14" class="node">
<title>ast.GeneratorExp object at 0x787dbb5f8810</title>
<path fill="#66cdaa" stroke="black" d="M163,-252C163,-252 95,-252 95,-252 89,-252 83,-246 83,-240 83,-240 83,-228 83,-228 83,-222 89,-216 95,-216 95,-216 163,-216 163,-216 169,-216 175,-222 175,-228 175,-228 175,-240 175,-240 175,-246 169,-252 163,-252"/>
<text text-anchor="middle" x="129" y="-230.3" font-family="Times,serif" font-size="14.00">GeneratorExp</text>
</g>
<!-- ast.Call object at 0x787dbb951dd0&#45;&gt;ast.GeneratorExp object at 0x787dbb5f8810 -->
<g id="edge14" class="edge">
<title>ast.Call object at 0x787dbb951dd0&#45;&gt;ast.GeneratorExp object at 0x787dbb5f8810</title>
<path fill="none" stroke="black" d="M201.27,-287.7C189.06,-278.8 174.01,-267.82 160.82,-258.2"/>
<polygon fill="black" stroke="black" points="162.6,-255.17 152.46,-252.1 158.48,-260.82 162.6,-255.17"/>
</g>
<!-- ast.keyword object at 0x787dbaf62f90 -->
<g id="node19" class="node">
<title>ast.keyword object at 0x787dbaf62f90</title>
<path fill="#66cdaa" stroke="black" d="M245,-252C245,-252 205,-252 205,-252 199,-252 193,-246 193,-240 193,-240 193,-228 193,-228 193,-222 199,-216 205,-216 205,-216 245,-216 245,-216 251,-216 257,-222 257,-228 257,-228 257,-240 257,-240 257,-246 251,-252 245,-252"/>
<text text-anchor="middle" x="225" y="-230.3" font-family="Times,serif" font-size="14.00">keyword</text>
</g>
<!-- ast.Call object at 0x787dbb951dd0&#45;&gt;ast.keyword object at 0x787dbaf62f90 -->
<g id="edge22" class="edge">
<title>ast.Call object at 0x787dbb951dd0&#45;&gt;ast.keyword object at 0x787dbaf62f90</title>
<path fill="none" stroke="black" d="M225,-287.7C225,-279.98 225,-270.71 225,-262.11"/>
<polygon fill="black" stroke="black" points="228.5,-262.1 225,-252.1 221.5,-262.1 228.5,-262.1"/>
</g>
<!-- ast.Name object at 0x787dbb950090&#45;&gt;ast.Load object at 0x787ea9337bd0 -->
<g id="edge13" class="edge">
<title>ast.Name object at 0x787dbb950090&#45;&gt;ast.Load object at 0x787ea9337bd0</title>
<path fill="none" stroke="black" d="M301.26,-216C300.83,-183.04 304.92,-110.37 346,-72 371.27,-48.4 408.56,-34.54 436.2,-26.96"/>
<polygon fill="black" stroke="black" points="437.1,-30.34 445.91,-24.44 435.35,-23.56 437.1,-30.34"/>
</g>
<!-- ast.Name object at 0x787dbb5f8c10 -->
<g id="node15" class="node">
<title>ast.Name object at 0x787dbb5f8c10</title>
<path fill="#66cdaa" stroke="black" d="M213,-108C213,-108 183,-108 183,-108 177,-108 171,-102 171,-96 171,-96 171,-84 171,-84 171,-78 177,-72 183,-72 183,-72 213,-72 213,-72 219,-72 225,-78 225,-84 225,-84 225,-96 225,-96 225,-102 219,-108 213,-108"/>
<text text-anchor="middle" x="198" y="-86.3" font-family="Times,serif" font-size="14.00">Name</text>
</g>
<!-- ast.GeneratorExp object at 0x787dbb5f8810&#45;&gt;ast.Name object at 0x787dbb5f8c10 -->
<g id="edge15" class="edge">
<title>ast.GeneratorExp object at 0x787dbb5f8810&#45;&gt;ast.Name object at 0x787dbb5f8c10</title>
<path fill="none" stroke="black" d="M140.78,-215.77C147.46,-205.62 155.71,-192.37 162,-180 172.35,-159.66 181.92,-135.63 188.59,-117.66"/>
<polygon fill="black" stroke="black" points="191.94,-118.71 192.08,-108.12 185.36,-116.31 191.94,-118.71"/>
</g>
<!-- ast.comprehension object at 0x787dbb5fb4d0 -->
<g id="node16" class="node">
<title>ast.comprehension object at 0x787dbb5fb4d0</title>
<path fill="#66cdaa" stroke="black" d="M141,-180C141,-180 65,-180 65,-180 59,-180 53,-174 53,-168 53,-168 53,-156 53,-156 53,-150 59,-144 65,-144 65,-144 141,-144 141,-144 147,-144 153,-150 153,-156 153,-156 153,-168 153,-168 153,-174 147,-180 141,-180"/>
<text text-anchor="middle" x="103" y="-158.3" font-family="Times,serif" font-size="14.00">comprehension</text>
</g>
<!-- ast.GeneratorExp object at 0x787dbb5f8810&#45;&gt;ast.comprehension object at 0x787dbb5fb4d0 -->
<g id="edge17" class="edge">
<title>ast.GeneratorExp object at 0x787dbb5f8810&#45;&gt;ast.comprehension object at 0x787dbb5fb4d0</title>
<path fill="none" stroke="black" d="M122.57,-215.7C119.64,-207.81 116.11,-198.3 112.86,-189.55"/>
<polygon fill="black" stroke="black" points="116.12,-188.26 109.35,-180.1 109.55,-190.7 116.12,-188.26"/>
</g>
<!-- ast.Name object at 0x787dbb5f8c10&#45;&gt;ast.Load object at 0x787ea9337bd0 -->
<g id="edge16" class="edge">
<title>ast.Name object at 0x787dbb5f8c10&#45;&gt;ast.Load object at 0x787ea9337bd0</title>
<path fill="none" stroke="black" d="M225.11,-77C229.69,-75.19 234.45,-73.45 239,-72 307.27,-50.29 389.43,-33.83 436,-25.36"/>
<polygon fill="black" stroke="black" points="436.71,-28.79 445.93,-23.58 435.47,-21.9 436.71,-28.79"/>
</g>
<!-- ast.Name object at 0x787dbb5fa890 -->
<g id="node17" class="node">
<title>ast.Name object at 0x787dbb5fa890</title>
<path fill="#66cdaa" stroke="black" d="M69,-108C69,-108 39,-108 39,-108 33,-108 27,-102 27,-96 27,-96 27,-84 27,-84 27,-78 33,-72 39,-72 39,-72 69,-72 69,-72 75,-72 81,-78 81,-84 81,-84 81,-96 81,-96 81,-102 75,-108 69,-108"/>
<text text-anchor="middle" x="54" y="-86.3" font-family="Times,serif" font-size="14.00">Name</text>
</g>
<!-- ast.comprehension object at 0x787dbb5fb4d0&#45;&gt;ast.Name object at 0x787dbb5fa890 -->
<g id="edge18" class="edge">
<title>ast.comprehension object at 0x787dbb5fb4d0&#45;&gt;ast.Name object at 0x787dbb5fa890</title>
<path fill="none" stroke="black" d="M90.89,-143.7C85.13,-135.47 78.14,-125.48 71.79,-116.42"/>
<polygon fill="black" stroke="black" points="74.58,-114.29 65.97,-108.1 68.84,-118.3 74.58,-114.29"/>
</g>
<!-- ast.Name object at 0x787dbb5f8d50 -->
<g id="node18" class="node">
<title>ast.Name object at 0x787dbb5f8d50</title>
<path fill="#66cdaa" stroke="black" d="M141,-108C141,-108 111,-108 111,-108 105,-108 99,-102 99,-96 99,-96 99,-84 99,-84 99,-78 105,-72 111,-72 111,-72 141,-72 141,-72 147,-72 153,-78 153,-84 153,-84 153,-96 153,-96 153,-102 147,-108 141,-108"/>
<text text-anchor="middle" x="126" y="-86.3" font-family="Times,serif" font-size="14.00">Name</text>
</g>
<!-- ast.comprehension object at 0x787dbb5fb4d0&#45;&gt;ast.Name object at 0x787dbb5f8d50 -->
<g id="edge20" class="edge">
<title>ast.comprehension object at 0x787dbb5fb4d0&#45;&gt;ast.Name object at 0x787dbb5f8d50</title>
<path fill="none" stroke="black" d="M108.69,-143.7C111.25,-135.9 114.33,-126.51 117.18,-117.83"/>
<polygon fill="black" stroke="black" points="120.58,-118.7 120.38,-108.1 113.93,-116.51 120.58,-118.7"/>
</g>
<!-- ast.Name object at 0x787dbb5fa890&#45;&gt;ast.Store object at 0x787ea9337c50 -->
<g id="edge19" class="edge">
<title>ast.Name object at 0x787dbb5fa890&#45;&gt;ast.Store object at 0x787ea9337c50</title>
<path fill="none" stroke="black" d="M47.33,-71.7C44.29,-63.81 40.62,-54.3 37.24,-45.55"/>
<polygon fill="black" stroke="black" points="40.46,-44.17 33.6,-36.1 33.93,-46.69 40.46,-44.17"/>
</g>
<!-- ast.Name object at 0x787dbb5f8d50&#45;&gt;ast.Load object at 0x787ea9337bd0 -->
<g id="edge21" class="edge">
<title>ast.Name object at 0x787dbb5f8d50&#45;&gt;ast.Load object at 0x787ea9337bd0</title>
<path fill="none" stroke="black" d="M153.21,-75.21C156.13,-74.01 159.1,-72.91 162,-72 258.11,-41.75 376.68,-27.6 435.8,-22.04"/>
<polygon fill="black" stroke="black" points="436.15,-25.52 445.79,-21.13 435.52,-18.55 436.15,-25.52"/>
</g>
<!-- ast.Name object at 0x787dbb5f8e50 -->
<g id="node20" class="node">
<title>ast.Name object at 0x787dbb5f8e50</title>
<path fill="#66cdaa" stroke="black" d="M251,-180C251,-180 221,-180 221,-180 215,-180 209,-174 209,-168 209,-168 209,-156 209,-156 209,-150 215,-144 221,-144 221,-144 251,-144 251,-144 257,-144 263,-150 263,-156 263,-156 263,-168 263,-168 263,-174 257,-180 251,-180"/>
<text text-anchor="middle" x="236" y="-158.3" font-family="Times,serif" font-size="14.00">Name</text>
</g>
<!-- ast.keyword object at 0x787dbaf62f90&#45;&gt;ast.Name object at 0x787dbb5f8e50 -->
<g id="edge23" class="edge">
<title>ast.keyword object at 0x787dbaf62f90&#45;&gt;ast.Name object at 0x787dbb5f8e50</title>
<path fill="none" stroke="black" d="M227.72,-215.7C228.93,-207.98 230.39,-198.71 231.74,-190.11"/>
<polygon fill="black" stroke="black" points="235.22,-190.53 233.31,-180.1 228.3,-189.44 235.22,-190.53"/>
</g>
<!-- ast.Name object at 0x787dbb5f8e50&#45;&gt;ast.Load object at 0x787ea9337bd0 -->
<g id="edge24" class="edge">
<title>ast.Name object at 0x787dbb5f8e50&#45;&gt;ast.Load object at 0x787ea9337bd0</title>
<path fill="none" stroke="black" d="M239.29,-143.94C244.08,-123.79 254.91,-90.67 277,-72 322.39,-33.64 393.01,-22.82 435.94,-19.9"/>
<polygon fill="black" stroke="black" points="436.17,-23.39 445.96,-19.33 435.78,-16.4 436.17,-23.39"/>
</g>
<!-- ast.Compare object at 0x787dbb5faf10 -->
<g id="node22" class="node">
<title>ast.Compare object at 0x787dbb5faf10</title>
<path fill="#66cdaa" stroke="black" d="M511.5,-252C511.5,-252 468.5,-252 468.5,-252 462.5,-252 456.5,-246 456.5,-240 456.5,-240 456.5,-228 456.5,-228 456.5,-222 462.5,-216 468.5,-216 468.5,-216 511.5,-216 511.5,-216 517.5,-216 523.5,-222 523.5,-228 523.5,-228 523.5,-240 523.5,-240 523.5,-246 517.5,-252 511.5,-252"/>
<text text-anchor="middle" x="490" y="-230.3" font-family="Times,serif" font-size="14.00">Compare</text>
</g>
<!-- ast.If object at 0x787dbb5fbad0&#45;&gt;ast.Compare object at 0x787dbb5faf10 -->
<g id="edge26" class="edge">
<title>ast.If object at 0x787dbb5fbad0&#45;&gt;ast.Compare object at 0x787dbb5faf10</title>
<path fill="none" stroke="black" d="M490,-287.7C490,-279.98 490,-270.71 490,-262.11"/>
<polygon fill="black" stroke="black" points="493.5,-262.1 490,-252.1 486.5,-262.1 493.5,-262.1"/>
</g>
<!-- ast.Return object at 0x787dbb5fb810 -->
<g id="node28" class="node">
<title>ast.Return object at 0x787dbb5fb810</title>
<path fill="#66cdaa" stroke="black" d="M413,-252C413,-252 383,-252 383,-252 377,-252 371,-246 371,-240 371,-240 371,-228 371,-228 371,-222 377,-216 383,-216 383,-216 413,-216 413,-216 419,-216 425,-222 425,-228 425,-228 425,-240 425,-240 425,-246 419,-252 413,-252"/>
<text text-anchor="middle" x="398" y="-230.3" font-family="Times,serif" font-size="14.00">Return</text>
</g>
<!-- ast.If object at 0x787dbb5fbad0&#45;&gt;ast.Return object at 0x787dbb5fb810 -->
<g id="edge34" class="edge">
<title>ast.If object at 0x787dbb5fbad0&#45;&gt;ast.Return object at 0x787dbb5fb810</title>
<path fill="none" stroke="black" d="M467.26,-287.7C455.56,-278.8 441.14,-267.82 428.49,-258.2"/>
<polygon fill="black" stroke="black" points="430.56,-255.37 420.48,-252.1 426.32,-260.94 430.56,-255.37"/>
</g>
<!-- ast.Call object at 0x787dbb5f8fd0 -->
<g id="node23" class="node">
<title>ast.Call object at 0x787dbb5f8fd0</title>
<path fill="#66cdaa" stroke="black" d="M433,-180C433,-180 403,-180 403,-180 397,-180 391,-174 391,-168 391,-168 391,-156 391,-156 391,-150 397,-144 403,-144 403,-144 433,-144 433,-144 439,-144 445,-150 445,-156 445,-156 445,-168 445,-168 445,-174 439,-180 433,-180"/>
<text text-anchor="middle" x="418" y="-158.3" font-family="Times,serif" font-size="14.00">Call</text>
</g>
<!-- ast.Compare object at 0x787dbb5faf10&#45;&gt;ast.Call object at 0x787dbb5f8fd0 -->
<g id="edge27" class="edge">
<title>ast.Compare object at 0x787dbb5faf10&#45;&gt;ast.Call object at 0x787dbb5f8fd0</title>
<path fill="none" stroke="black" d="M472.2,-215.7C463.4,-207.14 452.62,-196.66 443,-187.3"/>
<polygon fill="black" stroke="black" points="445.2,-184.57 435.59,-180.1 440.32,-189.58 445.2,-184.57"/>
</g>
<!-- ast.LtE object at 0x787ea934cd90 -->
<g id="node26" class="node">
<title>ast.LtE object at 0x787ea934cd90</title>
<path fill="#66cdaa" stroke="black" d="M505,-180C505,-180 475,-180 475,-180 469,-180 463,-174 463,-168 463,-168 463,-156 463,-156 463,-150 469,-144 475,-144 475,-144 505,-144 505,-144 511,-144 517,-150 517,-156 517,-156 517,-168 517,-168 517,-174 511,-180 505,-180"/>
<text text-anchor="middle" x="490" y="-158.3" font-family="Times,serif" font-size="14.00">LtE</text>
</g>
<!-- ast.Compare object at 0x787dbb5faf10&#45;&gt;ast.LtE object at 0x787ea934cd90 -->
<g id="edge32" class="edge">
<title>ast.Compare object at 0x787dbb5faf10&#45;&gt;ast.LtE object at 0x787ea934cd90</title>
<path fill="none" stroke="black" d="M490,-215.7C490,-207.98 490,-198.71 490,-190.11"/>
<polygon fill="black" stroke="black" points="493.5,-190.1 490,-180.1 486.5,-190.1 493.5,-190.1"/>
</g>
<!-- ast.Constant object at 0x787dbb5fb190 -->
<g id="node27" class="node">
<title>ast.Constant object at 0x787dbb5fb190</title>
<path fill="#66cdaa" stroke="black" d="M588.5,-180C588.5,-180 547.5,-180 547.5,-180 541.5,-180 535.5,-174 535.5,-168 535.5,-168 535.5,-156 535.5,-156 535.5,-150 541.5,-144 547.5,-144 547.5,-144 588.5,-144 588.5,-144 594.5,-144 600.5,-150 600.5,-156 600.5,-156 600.5,-168 600.5,-168 600.5,-174 594.5,-180 588.5,-180"/>
<text text-anchor="middle" x="568" y="-158.3" font-family="Times,serif" font-size="14.00">Constant</text>
</g>
<!-- ast.Compare object at 0x787dbb5faf10&#45;&gt;ast.Constant object at 0x787dbb5fb190 -->
<g id="edge33" class="edge">
<title>ast.Compare object at 0x787dbb5faf10&#45;&gt;ast.Constant object at 0x787dbb5fb190</title>
<path fill="none" stroke="black" d="M509.28,-215.7C518.92,-207.05 530.73,-196.45 541.23,-187.03"/>
<polygon fill="black" stroke="black" points="543.84,-189.39 548.94,-180.1 539.16,-184.18 543.84,-189.39"/>
</g>
<!-- ast.Name object at 0x787dbb5fa010 -->
<g id="node24" class="node">
<title>ast.Name object at 0x787dbb5fa010</title>
<path fill="#66cdaa" stroke="black" d="M488,-108C488,-108 458,-108 458,-108 452,-108 446,-102 446,-96 446,-96 446,-84 446,-84 446,-78 452,-72 458,-72 458,-72 488,-72 488,-72 494,-72 500,-78 500,-84 500,-84 500,-96 500,-96 500,-102 494,-108 488,-108"/>
<text text-anchor="middle" x="473" y="-86.3" font-family="Times,serif" font-size="14.00">Name</text>
</g>
<!-- ast.Call object at 0x787dbb5f8fd0&#45;&gt;ast.Name object at 0x787dbb5fa010 -->
<g id="edge28" class="edge">
<title>ast.Call object at 0x787dbb5f8fd0&#45;&gt;ast.Name object at 0x787dbb5fa010</title>
<path fill="none" stroke="black" d="M431.6,-143.7C438.12,-135.39 446.07,-125.28 453.25,-116.14"/>
<polygon fill="black" stroke="black" points="456.13,-118.13 459.56,-108.1 450.63,-113.81 456.13,-118.13"/>
</g>
<!-- ast.Name object at 0x787dbb5f8210 -->
<g id="node25" class="node">
<title>ast.Name object at 0x787dbb5f8210</title>
<path fill="#66cdaa" stroke="black" d="M416,-108C416,-108 386,-108 386,-108 380,-108 374,-102 374,-96 374,-96 374,-84 374,-84 374,-78 380,-72 386,-72 386,-72 416,-72 416,-72 422,-72 428,-78 428,-84 428,-84 428,-96 428,-96 428,-102 422,-108 416,-108"/>
<text text-anchor="middle" x="401" y="-86.3" font-family="Times,serif" font-size="14.00">Name</text>
</g>
<!-- ast.Call object at 0x787dbb5f8fd0&#45;&gt;ast.Name object at 0x787dbb5f8210 -->
<g id="edge30" class="edge">
<title>ast.Call object at 0x787dbb5f8fd0&#45;&gt;ast.Name object at 0x787dbb5f8210</title>
<path fill="none" stroke="black" d="M413.8,-143.7C411.9,-135.9 409.62,-126.51 407.52,-117.83"/>
<polygon fill="black" stroke="black" points="410.92,-117 405.15,-108.1 404.11,-118.65 410.92,-117"/>
</g>
<!-- ast.Name object at 0x787dbb5fa010&#45;&gt;ast.Load object at 0x787ea9337bd0 -->
<g id="edge29" class="edge">
<title>ast.Name object at 0x787dbb5fa010&#45;&gt;ast.Load object at 0x787ea9337bd0</title>
<path fill="none" stroke="black" d="M473,-71.7C473,-63.98 473,-54.71 473,-46.11"/>
<polygon fill="black" stroke="black" points="476.5,-46.1 473,-36.1 469.5,-46.1 476.5,-46.1"/>
</g>
<!-- ast.Name object at 0x787dbb5f8210&#45;&gt;ast.Load object at 0x787ea9337bd0 -->
<g id="edge31" class="edge">
<title>ast.Name object at 0x787dbb5f8210&#45;&gt;ast.Load object at 0x787ea9337bd0</title>
<path fill="none" stroke="black" d="M418.8,-71.7C427.6,-63.14 438.38,-52.66 448,-43.3"/>
<polygon fill="black" stroke="black" points="450.68,-45.58 455.41,-36.1 445.8,-40.57 450.68,-45.58"/>
</g>
<!-- ast.Name object at 0x787dbb5fb150 -->
<g id="node29" class="node">
<title>ast.Name object at 0x787dbb5fb150</title>
<path fill="#66cdaa" stroke="black" d="M361,-180C361,-180 331,-180 331,-180 325,-180 319,-174 319,-168 319,-168 319,-156 319,-156 319,-150 325,-144 331,-144 331,-144 361,-144 361,-144 367,-144 373,-150 373,-156 373,-156 373,-168 373,-168 373,-174 367,-180 361,-180"/>
<text text-anchor="middle" x="346" y="-158.3" font-family="Times,serif" font-size="14.00">Name</text>
</g>
<!-- ast.Return object at 0x787dbb5fb810&#45;&gt;ast.Name object at 0x787dbb5fb150 -->
<g id="edge35" class="edge">
<title>ast.Return object at 0x787dbb5fb810&#45;&gt;ast.Name object at 0x787dbb5fb150</title>
<path fill="none" stroke="black" d="M385.15,-215.7C378.97,-207.39 371.46,-197.28 364.68,-188.14"/>
<polygon fill="black" stroke="black" points="367.48,-186.04 358.71,-180.1 361.86,-190.22 367.48,-186.04"/>
</g>
<!-- ast.Name object at 0x787dbb5fb150&#45;&gt;ast.Load object at 0x787ea9337bd0 -->
<g id="edge36" class="edge">
<title>ast.Name object at 0x787dbb5fb150&#45;&gt;ast.Load object at 0x787ea9337bd0</title>
<path fill="none" stroke="black" d="M345.41,-143.75C345.63,-124.34 348.77,-92.8 365,-72 382.53,-49.52 412.08,-35.95 435.83,-28.17"/>
<polygon fill="black" stroke="black" points="437.07,-31.45 445.61,-25.18 435.02,-24.76 437.07,-31.45"/>
</g>
<!-- ast.Subscript object at 0x787dbb5fad50 -->
<g id="node31" class="node">
<title>ast.Subscript object at 0x787dbb5fad50</title>
<path fill="#66cdaa" stroke="black" d="M820,-180C820,-180 776,-180 776,-180 770,-180 764,-174 764,-168 764,-168 764,-156 764,-156 764,-150 770,-144 776,-144 776,-144 820,-144 820,-144 826,-144 832,-150 832,-156 832,-156 832,-168 832,-168 832,-174 826,-180 820,-180"/>
<text text-anchor="middle" x="798" y="-158.3" font-family="Times,serif" font-size="14.00">Subscript</text>
</g>
<!-- ast.Return object at 0x787dba8d2350&#45;&gt;ast.Subscript object at 0x787dbb5fad50 -->
<g id="edge38" class="edge">
<title>ast.Return object at 0x787dba8d2350&#45;&gt;ast.Subscript object at 0x787dbb5fad50</title>
<path fill="none" stroke="black" d="M750.17,-359.85C759.18,-322.75 780.55,-234.81 791.41,-190.1"/>
<polygon fill="black" stroke="black" points="794.85,-190.78 793.81,-180.23 788.05,-189.12 794.85,-190.78"/>
</g>
<!-- ast.Subscript object at 0x787dbb5fad50&#45;&gt;ast.Load object at 0x787ea9337bd0 -->
<g id="edge43" class="edge">
<title>ast.Subscript object at 0x787dbb5fad50&#45;&gt;ast.Load object at 0x787ea9337bd0</title>
<path fill="none" stroke="black" d="M804.79,-143.69C811.28,-123.93 817.84,-91.78 801,-72 764.04,-28.58 588.54,-20.62 510.53,-19.24"/>
<polygon fill="black" stroke="black" points="510.25,-15.73 500.2,-19.09 510.14,-22.73 510.25,-15.73"/>
</g>
<!-- ast.Name object at 0x787dbb5fb890 -->
<g id="node32" class="node">
<title>ast.Name object at 0x787dbb5fb890</title>
<path fill="#66cdaa" stroke="black" d="M780,-108C780,-108 750,-108 750,-108 744,-108 738,-102 738,-96 738,-96 738,-84 738,-84 738,-78 744,-72 750,-72 750,-72 780,-72 780,-72 786,-72 792,-78 792,-84 792,-84 792,-96 792,-96 792,-102 786,-108 780,-108"/>
<text text-anchor="middle" x="765" y="-86.3" font-family="Times,serif" font-size="14.00">Name</text>
</g>
<!-- ast.Subscript object at 0x787dbb5fad50&#45;&gt;ast.Name object at 0x787dbb5fb890 -->
<g id="edge39" class="edge">
<title>ast.Subscript object at 0x787dbb5fad50&#45;&gt;ast.Name object at 0x787dbb5fb890</title>
<path fill="none" stroke="black" d="M789.84,-143.7C786.09,-135.73 781.55,-126.1 777.38,-117.26"/>
<polygon fill="black" stroke="black" points="780.49,-115.66 773.06,-108.1 774.16,-118.64 780.49,-115.66"/>
</g>
<!-- ast.Slice object at 0x787dbb5fb210 -->
<g id="node33" class="node">
<title>ast.Slice object at 0x787dbb5fb210</title>
<path fill="#66cdaa" stroke="black" d="M890,-108C890,-108 860,-108 860,-108 854,-108 848,-102 848,-96 848,-96 848,-84 848,-84 848,-78 854,-72 860,-72 860,-72 890,-72 890,-72 896,-72 902,-78 902,-84 902,-84 902,-96 902,-96 902,-102 896,-108 890,-108"/>
<text text-anchor="middle" x="875" y="-86.3" font-family="Times,serif" font-size="14.00">Slice</text>
</g>
<!-- ast.Subscript object at 0x787dbb5fad50&#45;&gt;ast.Slice object at 0x787dbb5fb210 -->
<g id="edge41" class="edge">
<title>ast.Subscript object at 0x787dbb5fad50&#45;&gt;ast.Slice object at 0x787dbb5fb210</title>
<path fill="none" stroke="black" d="M817.03,-143.7C826.54,-135.05 838.21,-124.45 848.57,-115.03"/>
<polygon fill="black" stroke="black" points="851.14,-117.42 856.19,-108.1 846.43,-112.24 851.14,-117.42"/>
</g>
<!-- ast.Name object at 0x787dbb5fb890&#45;&gt;ast.Load object at 0x787ea9337bd0 -->
<g id="edge40" class="edge">
<title>ast.Name object at 0x787dbb5fb890&#45;&gt;ast.Load object at 0x787ea9337bd0</title>
<path fill="none" stroke="black" d="M737.76,-75.32C734.84,-74.1 731.88,-72.96 729,-72 653.25,-46.67 560.67,-31.12 510.2,-23.87"/>
<polygon fill="black" stroke="black" points="510.47,-20.38 500.08,-22.45 509.5,-27.31 510.47,-20.38"/>
</g>
<!-- ast.Constant object at 0x787dbb5f9450 -->
<g id="node34" class="node">
<title>ast.Constant object at 0x787dbb5f9450</title>
<path fill="#66cdaa" stroke="black" d="M895.5,-36C895.5,-36 854.5,-36 854.5,-36 848.5,-36 842.5,-30 842.5,-24 842.5,-24 842.5,-12 842.5,-12 842.5,-6 848.5,0 854.5,0 854.5,0 895.5,0 895.5,0 901.5,0 907.5,-6 907.5,-12 907.5,-12 907.5,-24 907.5,-24 907.5,-30 901.5,-36 895.5,-36"/>
<text text-anchor="middle" x="875" y="-14.3" font-family="Times,serif" font-size="14.00">Constant</text>
</g>
<!-- ast.Slice object at 0x787dbb5fb210&#45;&gt;ast.Constant object at 0x787dbb5f9450 -->
<g id="edge42" class="edge">
<title>ast.Slice object at 0x787dbb5fb210&#45;&gt;ast.Constant object at 0x787dbb5f9450</title>
<path fill="none" stroke="black" d="M875,-71.7C875,-63.98 875,-54.71 875,-46.11"/>
<polygon fill="black" stroke="black" points="878.5,-46.1 875,-36.1 871.5,-46.1 878.5,-46.1"/>
</g>
<!-- ast.Subscript object at 0x787dbb5fa1d0&#45;&gt;ast.Load object at 0x787ea9337bd0 -->
<g id="edge49" class="edge">
<title>ast.Subscript object at 0x787dbb5fa1d0&#45;&gt;ast.Load object at 0x787ea9337bd0</title>
<path fill="none" stroke="black" d="M681.18,-143.91C668.97,-124.04 646.35,-91.5 619,-72 585.96,-48.44 541.31,-34.27 510.12,-26.58"/>
<polygon fill="black" stroke="black" points="510.63,-23.11 500.1,-24.22 509.03,-29.92 510.63,-23.11"/>
</g>
<!-- ast.Name object at 0x787dbb5fa650 -->
<g id="node36" class="node">
<title>ast.Name object at 0x787dbb5fa650</title>
<path fill="#66cdaa" stroke="black" d="M708,-108C708,-108 678,-108 678,-108 672,-108 666,-102 666,-96 666,-96 666,-84 666,-84 666,-78 672,-72 678,-72 678,-72 708,-72 708,-72 714,-72 720,-78 720,-84 720,-84 720,-96 720,-96 720,-102 714,-108 708,-108"/>
<text text-anchor="middle" x="693" y="-86.3" font-family="Times,serif" font-size="14.00">Name</text>
</g>
<!-- ast.Subscript object at 0x787dbb5fa1d0&#45;&gt;ast.Name object at 0x787dbb5fa650 -->
<g id="edge45" class="edge">
<title>ast.Subscript object at 0x787dbb5fa1d0&#45;&gt;ast.Name object at 0x787dbb5fa650</title>
<path fill="none" stroke="black" d="M691.49,-143.7C691.71,-135.98 691.98,-126.71 692.23,-118.11"/>
<polygon fill="black" stroke="black" points="695.72,-118.2 692.51,-108.1 688.73,-118 695.72,-118.2"/>
</g>
<!-- ast.Name object at 0x787dbb5fa250 -->
<g id="node37" class="node">
<title>ast.Name object at 0x787dbb5fa250</title>
<path fill="#66cdaa" stroke="black" d="M598,-108C598,-108 568,-108 568,-108 562,-108 556,-102 556,-96 556,-96 556,-84 556,-84 556,-78 562,-72 568,-72 568,-72 598,-72 598,-72 604,-72 610,-78 610,-84 610,-84 610,-96 610,-96 610,-102 604,-108 598,-108"/>
<text text-anchor="middle" x="583" y="-86.3" font-family="Times,serif" font-size="14.00">Name</text>
</g>
<!-- ast.Subscript object at 0x787dbb5fa1d0&#45;&gt;ast.Name object at 0x787dbb5fa250 -->
<g id="edge47" class="edge">
<title>ast.Subscript object at 0x787dbb5fa1d0&#45;&gt;ast.Name object at 0x787dbb5fa250</title>
<path fill="none" stroke="black" d="M664.58,-143.88C650.59,-134.81 633.22,-123.55 618.11,-113.76"/>
<polygon fill="black" stroke="black" points="619.82,-110.69 609.52,-108.19 616.01,-116.57 619.82,-110.69"/>
</g>
<!-- ast.Name object at 0x787dbb5fa650&#45;&gt;ast.Load object at 0x787ea9337bd0 -->
<g id="edge46" class="edge">
<title>ast.Name object at 0x787dbb5fa650&#45;&gt;ast.Load object at 0x787ea9337bd0</title>
<path fill="none" stroke="black" d="M665.81,-77.26C661.23,-75.42 656.5,-73.6 652,-72 603.55,-54.84 546.43,-38.6 509.98,-28.73"/>
<polygon fill="black" stroke="black" points="510.84,-25.33 500.27,-26.12 509.02,-32.09 510.84,-25.33"/>
</g>
<!-- ast.Name object at 0x787dbb5fa250&#45;&gt;ast.Load object at 0x787ea9337bd0 -->
<g id="edge48" class="edge">
<title>ast.Name object at 0x787dbb5fa250&#45;&gt;ast.Load object at 0x787ea9337bd0</title>
<path fill="none" stroke="black" d="M556.09,-71.88C541.84,-62.81 524.15,-51.55 508.76,-41.76"/>
<polygon fill="black" stroke="black" points="510.33,-38.61 500.01,-36.19 506.57,-44.51 510.33,-38.61"/>
</g>
</g>
</svg>
