<?xml version="1.0" encoding="UTF-8" standalone="no"?>
<!DOCTYPE svg PUBLIC "-//W3C//DTD SVG 1.1//EN"
 "http://www.w3.org/Graphics/SVG/1.1/DTD/svg11.dtd">
<!-- Generated by graphviz version 2.50.0 (0)
 -->
<!-- Pages: 1 -->
<svg width="515pt" height="548pt"
 viewBox="0.00 0.00 514.50 548.00" xmlns="http://www.w3.org/2000/svg" xmlns:xlink="http://www.w3.org/1999/xlink">
<g id="graph0" class="graph" transform="scale(1 1) rotate(0) translate(4 544)">
<polygon fill="white" stroke="transparent" points="-4,4 -4,-544 510.5,-544 510.5,4 -4,4"/>
<!-- ast.Module object at 0x76704aacffd0 -->
<g id="node1" class="node">
<title>ast.Module object at 0x76704aacffd0</title>
<path fill="#66cdaa" stroke="black" d="M373,-540C373,-540 338,-540 338,-540 332,-540 326,-534 326,-528 326,-528 326,-516 326,-516 326,-510 332,-504 338,-504 338,-504 373,-504 373,-504 379,-504 385,-510 385,-516 385,-516 385,-528 385,-528 385,-534 379,-540 373,-540"/>
<text text-anchor="middle" x="355.5" y="-518.3" font-family="Times,serif" font-size="14.00">Module</text>
</g>
<!-- ast.FunctionDef object at 0x76704aacce50 -->
<g id="node2" class="node">
<title>ast.FunctionDef object at 0x76704aacce50</title>
<path fill="#66cdaa" stroke="black" d="M386,-468C386,-468 325,-468 325,-468 319,-468 313,-462 313,-456 313,-456 313,-444 313,-444 313,-438 319,-432 325,-432 325,-432 386,-432 386,-432 392,-432 398,-438 398,-444 398,-444 398,-456 398,-456 398,-462 392,-468 386,-468"/>
<text text-anchor="middle" x="355.5" y="-446.3" font-family="Times,serif" font-size="14.00">FunctionDef</text>
</g>
<!-- ast.Module object at 0x76704aacffd0&#45;&gt;ast.FunctionDef object at 0x76704aacce50 -->
<g id="edge1" class="edge">
<title>ast.Module object at 0x76704aacffd0&#45;&gt;ast.FunctionDef object at 0x76704aacce50</title>
<path fill="none" stroke="black" d="M355.5,-503.7C355.5,-495.98 355.5,-486.71 355.5,-478.11"/>
<polygon fill="black" stroke="black" points="359,-478.1 355.5,-468.1 352,-478.1 359,-478.1"/>
</g>
<!-- ast.arguments object at 0x76704aaccd10 -->
<g id="node3" class="node">
<title>ast.arguments object at 0x76704aaccd10</title>
<path fill="#66cdaa" stroke="black" d="M192.5,-396C192.5,-396 142.5,-396 142.5,-396 136.5,-396 130.5,-390 130.5,-384 130.5,-384 130.5,-372 130.5,-372 130.5,-366 136.5,-360 142.5,-360 142.5,-360 192.5,-360 192.5,-360 198.5,-360 204.5,-366 204.5,-372 204.5,-372 204.5,-384 204.5,-384 204.5,-390 198.5,-396 192.5,-396"/>
<text text-anchor="middle" x="167.5" y="-374.3" font-family="Times,serif" font-size="14.00">arguments</text>
</g>
<!-- ast.FunctionDef object at 0x76704aacce50&#45;&gt;ast.arguments object at 0x76704aaccd10 -->
<g id="edge2" class="edge">
<title>ast.FunctionDef object at 0x76704aacce50&#45;&gt;ast.arguments object at 0x76704aaccd10</title>
<path fill="none" stroke="black" d="M312.84,-433.12C283.42,-422.16 244.31,-407.6 214.07,-396.34"/>
<polygon fill="black" stroke="black" points="215.18,-393.02 204.59,-392.81 212.74,-399.58 215.18,-393.02"/>
</g>
<!-- ast.Assign object at 0x76704aacfc90 -->
<g id="node5" class="node">
<title>ast.Assign object at 0x76704aacfc90</title>
<path fill="#66cdaa" stroke="black" d="M409.5,-396C409.5,-396 379.5,-396 379.5,-396 373.5,-396 367.5,-390 367.5,-384 367.5,-384 367.5,-372 367.5,-372 367.5,-366 373.5,-360 379.5,-360 379.5,-360 409.5,-360 409.5,-360 415.5,-360 421.5,-366 421.5,-372 421.5,-372 421.5,-384 421.5,-384 421.5,-390 415.5,-396 409.5,-396"/>
<text text-anchor="middle" x="394.5" y="-374.3" font-family="Times,serif" font-size="14.00">Assign</text>
</g>
<!-- ast.FunctionDef object at 0x76704aacce50&#45;&gt;ast.Assign object at 0x76704aacfc90 -->
<g id="edge4" class="edge">
<title>ast.FunctionDef object at 0x76704aacce50&#45;&gt;ast.Assign object at 0x76704aacfc90</title>
<path fill="none" stroke="black" d="M365.14,-431.7C369.63,-423.64 375.06,-413.89 380.02,-404.98"/>
<polygon fill="black" stroke="black" points="383.16,-406.54 384.97,-396.1 377.05,-403.14 383.16,-406.54"/>
</g>
<!-- ast.For object at 0x76704aace850 -->
<g id="node9" class="node">
<title>ast.For object at 0x76704aace850</title>
<path fill="#66cdaa" stroke="black" d="M295.5,-396C295.5,-396 265.5,-396 265.5,-396 259.5,-396 253.5,-390 253.5,-384 253.5,-384 253.5,-372 253.5,-372 253.5,-366 259.5,-360 265.5,-360 265.5,-360 295.5,-360 295.5,-360 301.5,-360 307.5,-366 307.5,-372 307.5,-372 307.5,-384 307.5,-384 307.5,-390 301.5,-396 295.5,-396"/>
<text text-anchor="middle" x="280.5" y="-374.3" font-family="Times,serif" font-size="14.00">For</text>
</g>
<!-- ast.FunctionDef object at 0x76704aacce50&#45;&gt;ast.For object at 0x76704aace850 -->
<g id="edge8" class="edge">
<title>ast.FunctionDef object at 0x76704aacce50&#45;&gt;ast.For object at 0x76704aace850</title>
<path fill="none" stroke="black" d="M336.96,-431.7C327.7,-423.05 316.34,-412.45 306.24,-403.03"/>
<polygon fill="black" stroke="black" points="308.52,-400.37 298.83,-396.1 303.75,-405.49 308.52,-400.37"/>
</g>
<!-- ast.Return object at 0x7670411f07d0 -->
<g id="node25" class="node">
<title>ast.Return object at 0x7670411f07d0</title>
<path fill="#66cdaa" stroke="black" d="M494.5,-396C494.5,-396 464.5,-396 464.5,-396 458.5,-396 452.5,-390 452.5,-384 452.5,-384 452.5,-372 452.5,-372 452.5,-366 458.5,-360 464.5,-360 464.5,-360 494.5,-360 494.5,-360 500.5,-360 506.5,-366 506.5,-372 506.5,-372 506.5,-384 506.5,-384 506.5,-390 500.5,-396 494.5,-396"/>
<text text-anchor="middle" x="479.5" y="-374.3" font-family="Times,serif" font-size="14.00">Return</text>
</g>
<!-- ast.FunctionDef object at 0x76704aacce50&#45;&gt;ast.Return object at 0x7670411f07d0 -->
<g id="edge29" class="edge">
<title>ast.FunctionDef object at 0x76704aacce50&#45;&gt;ast.Return object at 0x7670411f07d0</title>
<path fill="none" stroke="black" d="M385.83,-431.88C403.25,-422.04 425.23,-409.64 443.52,-399.31"/>
<polygon fill="black" stroke="black" points="445.45,-402.24 452.43,-394.28 442,-396.15 445.45,-402.24"/>
</g>
<!-- ast.arg object at 0x76704aacfbd0 -->
<g id="node4" class="node">
<title>ast.arg object at 0x76704aacfbd0</title>
<path fill="#66cdaa" stroke="black" d="M115.5,-324C115.5,-324 85.5,-324 85.5,-324 79.5,-324 73.5,-318 73.5,-312 73.5,-312 73.5,-300 73.5,-300 73.5,-294 79.5,-288 85.5,-288 85.5,-288 115.5,-288 115.5,-288 121.5,-288 127.5,-294 127.5,-300 127.5,-300 127.5,-312 127.5,-312 127.5,-318 121.5,-324 115.5,-324"/>
<text text-anchor="middle" x="100.5" y="-302.3" font-family="Times,serif" font-size="14.00">arg</text>
</g>
<!-- ast.arguments object at 0x76704aaccd10&#45;&gt;ast.arg object at 0x76704aacfbd0 -->
<g id="edge3" class="edge">
<title>ast.arguments object at 0x76704aaccd10&#45;&gt;ast.arg object at 0x76704aacfbd0</title>
<path fill="none" stroke="black" d="M150.94,-359.7C142.82,-351.22 132.91,-340.86 124.03,-331.58"/>
<polygon fill="black" stroke="black" points="126.31,-328.91 116.87,-324.1 121.26,-333.75 126.31,-328.91"/>
</g>
<!-- ast.Name object at 0x76704aacd050 -->
<g id="node6" class="node">
<title>ast.Name object at 0x76704aacd050</title>
<path fill="#66cdaa" stroke="black" d="M452.5,-252C452.5,-252 422.5,-252 422.5,-252 416.5,-252 410.5,-246 410.5,-240 410.5,-240 410.5,-228 410.5,-228 410.5,-222 416.5,-216 422.5,-216 422.5,-216 452.5,-216 452.5,-216 458.5,-216 464.5,-222 464.5,-228 464.5,-228 464.5,-240 464.5,-240 464.5,-246 458.5,-252 452.5,-252"/>
<text text-anchor="middle" x="437.5" y="-230.3" font-family="Times,serif" font-size="14.00">Name</text>
</g>
<!-- ast.Assign object at 0x76704aacfc90&#45;&gt;ast.Name object at 0x76704aacd050 -->
<g id="edge5" class="edge">
<title>ast.Assign object at 0x76704aacfc90&#45;&gt;ast.Name object at 0x76704aacd050</title>
<path fill="none" stroke="black" d="M412.55,-359.63C421.23,-350.04 430.76,-337.38 435.5,-324 442.5,-304.24 442.64,-280.44 441.23,-262.42"/>
<polygon fill="black" stroke="black" points="444.7,-261.91 440.23,-252.3 437.73,-262.6 444.7,-261.91"/>
</g>
<!-- ast.Constant object at 0x76704aaccbd0 -->
<g id="node8" class="node">
<title>ast.Constant object at 0x76704aaccbd0</title>
<path fill="#66cdaa" stroke="black" d="M415,-324C415,-324 374,-324 374,-324 368,-324 362,-318 362,-312 362,-312 362,-300 362,-300 362,-294 368,-288 374,-288 374,-288 415,-288 415,-288 421,-288 427,-294 427,-300 427,-300 427,-312 427,-312 427,-318 421,-324 415,-324"/>
<text text-anchor="middle" x="394.5" y="-302.3" font-family="Times,serif" font-size="14.00">Constant</text>
</g>
<!-- ast.Assign object at 0x76704aacfc90&#45;&gt;ast.Constant object at 0x76704aaccbd0 -->
<g id="edge7" class="edge">
<title>ast.Assign object at 0x76704aacfc90&#45;&gt;ast.Constant object at 0x76704aaccbd0</title>
<path fill="none" stroke="black" d="M394.5,-359.7C394.5,-351.98 394.5,-342.71 394.5,-334.11"/>
<polygon fill="black" stroke="black" points="398,-334.1 394.5,-324.1 391,-334.1 398,-334.1"/>
</g>
<!-- ast.Store object at 0x7670a7337c90 -->
<g id="node7" class="node">
<title>ast.Store object at 0x7670a7337c90</title>
<path fill="#66cdaa" stroke="black" d="M419.5,-180C419.5,-180 389.5,-180 389.5,-180 383.5,-180 377.5,-174 377.5,-168 377.5,-168 377.5,-156 377.5,-156 377.5,-150 383.5,-144 389.5,-144 389.5,-144 419.5,-144 419.5,-144 425.5,-144 431.5,-150 431.5,-156 431.5,-156 431.5,-168 431.5,-168 431.5,-174 425.5,-180 419.5,-180"/>
<text text-anchor="middle" x="404.5" y="-158.3" font-family="Times,serif" font-size="14.00">Store</text>
</g>
<!-- ast.Name object at 0x76704aacd050&#45;&gt;ast.Store object at 0x7670a7337c90 -->
<g id="edge6" class="edge">
<title>ast.Name object at 0x76704aacd050&#45;&gt;ast.Store object at 0x7670a7337c90</title>
<path fill="none" stroke="black" d="M429.34,-215.7C425.59,-207.73 421.05,-198.1 416.88,-189.26"/>
<polygon fill="black" stroke="black" points="419.99,-187.66 412.56,-180.1 413.66,-190.64 419.99,-187.66"/>
</g>
<!-- ast.Name object at 0x76704aacd190 -->
<g id="node10" class="node">
<title>ast.Name object at 0x76704aacd190</title>
<path fill="#66cdaa" stroke="black" d="M331.5,-324C331.5,-324 301.5,-324 301.5,-324 295.5,-324 289.5,-318 289.5,-312 289.5,-312 289.5,-300 289.5,-300 289.5,-294 295.5,-288 301.5,-288 301.5,-288 331.5,-288 331.5,-288 337.5,-288 343.5,-294 343.5,-300 343.5,-300 343.5,-312 343.5,-312 343.5,-318 337.5,-324 331.5,-324"/>
<text text-anchor="middle" x="316.5" y="-302.3" font-family="Times,serif" font-size="14.00">Name</text>
</g>
<!-- ast.For object at 0x76704aace850&#45;&gt;ast.Name object at 0x76704aacd190 -->
<g id="edge9" class="edge">
<title>ast.For object at 0x76704aace850&#45;&gt;ast.Name object at 0x76704aacd190</title>
<path fill="none" stroke="black" d="M289.4,-359.7C293.5,-351.73 298.45,-342.1 302.99,-333.26"/>
<polygon fill="black" stroke="black" points="306.24,-334.6 307.7,-324.1 300.02,-331.4 306.24,-334.6"/>
</g>
<!-- ast.Call object at 0x7670411f1b50 -->
<g id="node11" class="node">
<title>ast.Call object at 0x7670411f1b50</title>
<path fill="#66cdaa" stroke="black" d="M187.5,-324C187.5,-324 157.5,-324 157.5,-324 151.5,-324 145.5,-318 145.5,-312 145.5,-312 145.5,-300 145.5,-300 145.5,-294 151.5,-288 157.5,-288 157.5,-288 187.5,-288 187.5,-288 193.5,-288 199.5,-294 199.5,-300 199.5,-300 199.5,-312 199.5,-312 199.5,-318 193.5,-324 187.5,-324"/>
<text text-anchor="middle" x="172.5" y="-302.3" font-family="Times,serif" font-size="14.00">Call</text>
</g>
<!-- ast.For object at 0x76704aace850&#45;&gt;ast.Call object at 0x7670411f1b50 -->
<g id="edge11" class="edge">
<title>ast.For object at 0x76704aace850&#45;&gt;ast.Call object at 0x7670411f1b50</title>
<path fill="none" stroke="black" d="M254.08,-359.88C240.09,-350.81 222.72,-339.55 207.61,-329.76"/>
<polygon fill="black" stroke="black" points="209.32,-326.69 199.02,-324.19 205.51,-332.57 209.32,-326.69"/>
</g>
<!-- ast.Assign object at 0x7670411f2810 -->
<g id="node16" class="node">
<title>ast.Assign object at 0x7670411f2810</title>
<path fill="#66cdaa" stroke="black" d="M259.5,-324C259.5,-324 229.5,-324 229.5,-324 223.5,-324 217.5,-318 217.5,-312 217.5,-312 217.5,-300 217.5,-300 217.5,-294 223.5,-288 229.5,-288 229.5,-288 259.5,-288 259.5,-288 265.5,-288 271.5,-294 271.5,-300 271.5,-300 271.5,-312 271.5,-312 271.5,-318 265.5,-324 259.5,-324"/>
<text text-anchor="middle" x="244.5" y="-302.3" font-family="Times,serif" font-size="14.00">Assign</text>
</g>
<!-- ast.For object at 0x76704aace850&#45;&gt;ast.Assign object at 0x7670411f2810 -->
<g id="edge16" class="edge">
<title>ast.For object at 0x76704aace850&#45;&gt;ast.Assign object at 0x7670411f2810</title>
<path fill="none" stroke="black" d="M271.6,-359.7C267.5,-351.73 262.55,-342.1 258.01,-333.26"/>
<polygon fill="black" stroke="black" points="260.98,-331.4 253.3,-324.1 254.76,-334.6 260.98,-331.4"/>
</g>
<!-- ast.Name object at 0x76704aacd190&#45;&gt;ast.Store object at 0x7670a7337c90 -->
<g id="edge10" class="edge">
<title>ast.Name object at 0x76704aacd190&#45;&gt;ast.Store object at 0x7670a7337c90</title>
<path fill="none" stroke="black" d="M332.22,-287.57C340.84,-277.56 351.38,-264.53 359.5,-252 372.45,-232.02 384.47,-207.82 392.83,-189.7"/>
<polygon fill="black" stroke="black" points="396.13,-190.88 397.07,-180.33 389.76,-187.99 396.13,-190.88"/>
</g>
<!-- ast.Name object at 0x7670411f1f10 -->
<g id="node12" class="node">
<title>ast.Name object at 0x7670411f1f10</title>
<path fill="#66cdaa" stroke="black" d="M151.5,-180C151.5,-180 121.5,-180 121.5,-180 115.5,-180 109.5,-174 109.5,-168 109.5,-168 109.5,-156 109.5,-156 109.5,-150 115.5,-144 121.5,-144 121.5,-144 151.5,-144 151.5,-144 157.5,-144 163.5,-150 163.5,-156 163.5,-156 163.5,-168 163.5,-168 163.5,-174 157.5,-180 151.5,-180"/>
<text text-anchor="middle" x="136.5" y="-158.3" font-family="Times,serif" font-size="14.00">Name</text>
</g>
<!-- ast.Call object at 0x7670411f1b50&#45;&gt;ast.Name object at 0x7670411f1f10 -->
<g id="edge12" class="edge">
<title>ast.Call object at 0x7670411f1b50&#45;&gt;ast.Name object at 0x7670411f1f10</title>
<path fill="none" stroke="black" d="M170.35,-287.73C167.88,-269.64 163.27,-240.52 156.5,-216 154.12,-207.37 150.9,-198.18 147.75,-189.92"/>
<polygon fill="black" stroke="black" points="150.92,-188.41 143.99,-180.4 144.41,-190.99 150.92,-188.41"/>
</g>
<!-- ast.Constant object at 0x7670411f3f10 -->
<g id="node14" class="node">
<title>ast.Constant object at 0x7670411f3f10</title>
<path fill="#66cdaa" stroke="black" d="M53,-252C53,-252 12,-252 12,-252 6,-252 0,-246 0,-240 0,-240 0,-228 0,-228 0,-222 6,-216 12,-216 12,-216 53,-216 53,-216 59,-216 65,-222 65,-228 65,-228 65,-240 65,-240 65,-246 59,-252 53,-252"/>
<text text-anchor="middle" x="32.5" y="-230.3" font-family="Times,serif" font-size="14.00">Constant</text>
</g>
<!-- ast.Call object at 0x7670411f1b50&#45;&gt;ast.Constant object at 0x7670411f3f10 -->
<g id="edge14" class="edge">
<title>ast.Call object at 0x7670411f1b50&#45;&gt;ast.Constant object at 0x7670411f3f10</title>
<path fill="none" stroke="black" d="M145.17,-291.34C125.03,-281.27 97.27,-267.38 74.34,-255.92"/>
<polygon fill="black" stroke="black" points="75.68,-252.68 65.17,-251.33 72.55,-258.94 75.68,-252.68"/>
</g>
<!-- ast.Constant object at 0x7670411f2d50 -->
<g id="node15" class="node">
<title>ast.Constant object at 0x7670411f2d50</title>
<path fill="#66cdaa" stroke="black" d="M136,-252C136,-252 95,-252 95,-252 89,-252 83,-246 83,-240 83,-240 83,-228 83,-228 83,-222 89,-216 95,-216 95,-216 136,-216 136,-216 142,-216 148,-222 148,-228 148,-228 148,-240 148,-240 148,-246 142,-252 136,-252"/>
<text text-anchor="middle" x="115.5" y="-230.3" font-family="Times,serif" font-size="14.00">Constant</text>
</g>
<!-- ast.Call object at 0x7670411f1b50&#45;&gt;ast.Constant object at 0x7670411f2d50 -->
<g id="edge15" class="edge">
<title>ast.Call object at 0x7670411f1b50&#45;&gt;ast.Constant object at 0x7670411f2d50</title>
<path fill="none" stroke="black" d="M158.41,-287.7C151.58,-279.3 143.24,-269.07 135.74,-259.86"/>
<polygon fill="black" stroke="black" points="138.46,-257.65 129.43,-252.1 133.03,-262.07 138.46,-257.65"/>
</g>
<!-- ast.Load object at 0x7670a7337c10 -->
<g id="node13" class="node">
<title>ast.Load object at 0x7670a7337c10</title>
<path fill="#66cdaa" stroke="black" d="M251.5,-36C251.5,-36 221.5,-36 221.5,-36 215.5,-36 209.5,-30 209.5,-24 209.5,-24 209.5,-12 209.5,-12 209.5,-6 215.5,0 221.5,0 221.5,0 251.5,0 251.5,0 257.5,0 263.5,-6 263.5,-12 263.5,-12 263.5,-24 263.5,-24 263.5,-30 257.5,-36 251.5,-36"/>
<text text-anchor="middle" x="236.5" y="-14.3" font-family="Times,serif" font-size="14.00">Load</text>
</g>
<!-- ast.Name object at 0x7670411f1f10&#45;&gt;ast.Load object at 0x7670a7337c10 -->
<g id="edge13" class="edge">
<title>ast.Name object at 0x7670411f1f10&#45;&gt;ast.Load object at 0x7670a7337c10</title>
<path fill="none" stroke="black" d="M129.18,-143.84C122.29,-124.79 114.88,-93.86 128.5,-72 143.94,-47.23 174.7,-33.71 199.46,-26.54"/>
<polygon fill="black" stroke="black" points="200.53,-29.87 209.3,-23.92 198.73,-23.11 200.53,-29.87"/>
</g>
<!-- ast.Name object at 0x7670411f1e50 -->
<g id="node17" class="node">
<title>ast.Name object at 0x7670411f1e50</title>
<path fill="#66cdaa" stroke="black" d="M338.5,-252C338.5,-252 308.5,-252 308.5,-252 302.5,-252 296.5,-246 296.5,-240 296.5,-240 296.5,-228 296.5,-228 296.5,-222 302.5,-216 308.5,-216 308.5,-216 338.5,-216 338.5,-216 344.5,-216 350.5,-222 350.5,-228 350.5,-228 350.5,-240 350.5,-240 350.5,-246 344.5,-252 338.5,-252"/>
<text text-anchor="middle" x="323.5" y="-230.3" font-family="Times,serif" font-size="14.00">Name</text>
</g>
<!-- ast.Assign object at 0x7670411f2810&#45;&gt;ast.Name object at 0x7670411f1e50 -->
<g id="edge17" class="edge">
<title>ast.Assign object at 0x7670411f2810&#45;&gt;ast.Name object at 0x7670411f1e50</title>
<path fill="none" stroke="black" d="M264.03,-287.7C273.88,-278.97 285.99,-268.24 296.7,-258.75"/>
<polygon fill="black" stroke="black" points="299.03,-261.36 304.2,-252.1 294.39,-256.12 299.03,-261.36"/>
</g>
<!-- ast.BinOp object at 0x7670411f18d0 -->
<g id="node18" class="node">
<title>ast.BinOp object at 0x7670411f18d0</title>
<path fill="#66cdaa" stroke="black" d="M260.5,-252C260.5,-252 230.5,-252 230.5,-252 224.5,-252 218.5,-246 218.5,-240 218.5,-240 218.5,-228 218.5,-228 218.5,-222 224.5,-216 230.5,-216 230.5,-216 260.5,-216 260.5,-216 266.5,-216 272.5,-222 272.5,-228 272.5,-228 272.5,-240 272.5,-240 272.5,-246 266.5,-252 260.5,-252"/>
<text text-anchor="middle" x="245.5" y="-230.3" font-family="Times,serif" font-size="14.00">BinOp</text>
</g>
<!-- ast.Assign object at 0x7670411f2810&#45;&gt;ast.BinOp object at 0x7670411f18d0 -->
<g id="edge19" class="edge">
<title>ast.Assign object at 0x7670411f2810&#45;&gt;ast.BinOp object at 0x7670411f18d0</title>
<path fill="none" stroke="black" d="M244.75,-287.7C244.86,-279.98 244.99,-270.71 245.11,-262.11"/>
<polygon fill="black" stroke="black" points="248.61,-262.15 245.26,-252.1 241.61,-262.05 248.61,-262.15"/>
</g>
<!-- ast.Name object at 0x7670411f1e50&#45;&gt;ast.Store object at 0x7670a7337c90 -->
<g id="edge18" class="edge">
<title>ast.Name object at 0x7670411f1e50&#45;&gt;ast.Store object at 0x7670a7337c90</title>
<path fill="none" stroke="black" d="M343.52,-215.7C353.63,-206.97 366.04,-196.24 377.02,-186.75"/>
<polygon fill="black" stroke="black" points="379.43,-189.29 384.71,-180.1 374.85,-183.99 379.43,-189.29"/>
</g>
<!-- ast.Name object at 0x7670411f3090 -->
<g id="node19" class="node">
<title>ast.Name object at 0x7670411f3090</title>
<path fill="#66cdaa" stroke="black" d="M395.5,-108C395.5,-108 365.5,-108 365.5,-108 359.5,-108 353.5,-102 353.5,-96 353.5,-96 353.5,-84 353.5,-84 353.5,-78 359.5,-72 365.5,-72 365.5,-72 395.5,-72 395.5,-72 401.5,-72 407.5,-78 407.5,-84 407.5,-84 407.5,-96 407.5,-96 407.5,-102 401.5,-108 395.5,-108"/>
<text text-anchor="middle" x="380.5" y="-86.3" font-family="Times,serif" font-size="14.00">Name</text>
</g>
<!-- ast.BinOp object at 0x7670411f18d0&#45;&gt;ast.Name object at 0x7670411f3090 -->
<g id="edge20" class="edge">
<title>ast.BinOp object at 0x7670411f18d0&#45;&gt;ast.Name object at 0x7670411f3090</title>
<path fill="none" stroke="black" d="M252.24,-215.99C260.49,-196.8 275.92,-165.47 296.5,-144 310.06,-129.85 328.15,-117.81 344.06,-108.8"/>
<polygon fill="black" stroke="black" points="346.03,-111.72 353.13,-103.86 342.67,-105.57 346.03,-111.72"/>
</g>
<!-- ast.Add object at 0x7670a734c150 -->
<g id="node20" class="node">
<title>ast.Add object at 0x7670a734c150</title>
<path fill="#66cdaa" stroke="black" d="M347.5,-180C347.5,-180 317.5,-180 317.5,-180 311.5,-180 305.5,-174 305.5,-168 305.5,-168 305.5,-156 305.5,-156 305.5,-150 311.5,-144 317.5,-144 317.5,-144 347.5,-144 347.5,-144 353.5,-144 359.5,-150 359.5,-156 359.5,-156 359.5,-168 359.5,-168 359.5,-174 353.5,-180 347.5,-180"/>
<text text-anchor="middle" x="332.5" y="-158.3" font-family="Times,serif" font-size="14.00">Add</text>
</g>
<!-- ast.BinOp object at 0x7670411f18d0&#45;&gt;ast.Add object at 0x7670a734c150 -->
<g id="edge22" class="edge">
<title>ast.BinOp object at 0x7670411f18d0&#45;&gt;ast.Add object at 0x7670a734c150</title>
<path fill="none" stroke="black" d="M267.01,-215.7C277.96,-206.88 291.45,-196.03 303.32,-186.47"/>
<polygon fill="black" stroke="black" points="305.64,-189.1 311.24,-180.1 301.26,-183.65 305.64,-189.1"/>
</g>
<!-- ast.BinOp object at 0x7670411f0e50 -->
<g id="node21" class="node">
<title>ast.BinOp object at 0x7670411f0e50</title>
<path fill="#66cdaa" stroke="black" d="M237.5,-180C237.5,-180 207.5,-180 207.5,-180 201.5,-180 195.5,-174 195.5,-168 195.5,-168 195.5,-156 195.5,-156 195.5,-150 201.5,-144 207.5,-144 207.5,-144 237.5,-144 237.5,-144 243.5,-144 249.5,-150 249.5,-156 249.5,-156 249.5,-168 249.5,-168 249.5,-174 243.5,-180 237.5,-180"/>
<text text-anchor="middle" x="222.5" y="-158.3" font-family="Times,serif" font-size="14.00">BinOp</text>
</g>
<!-- ast.BinOp object at 0x7670411f18d0&#45;&gt;ast.BinOp object at 0x7670411f0e50 -->
<g id="edge23" class="edge">
<title>ast.BinOp object at 0x7670411f18d0&#45;&gt;ast.BinOp object at 0x7670411f0e50</title>
<path fill="none" stroke="black" d="M239.81,-215.7C237.25,-207.9 234.17,-198.51 231.32,-189.83"/>
<polygon fill="black" stroke="black" points="234.57,-188.51 228.12,-180.1 227.92,-190.7 234.57,-188.51"/>
</g>
<!-- ast.Name object at 0x7670411f3090&#45;&gt;ast.Load object at 0x7670a7337c10 -->
<g id="edge21" class="edge">
<title>ast.Name object at 0x7670411f3090&#45;&gt;ast.Load object at 0x7670a7337c10</title>
<path fill="none" stroke="black" d="M353.41,-75.83C330.73,-64.81 298.14,-48.97 273.13,-36.81"/>
<polygon fill="black" stroke="black" points="274.48,-33.57 263.95,-32.35 271.42,-39.87 274.48,-33.57"/>
</g>
<!-- ast.Name object at 0x7670411f3a90 -->
<g id="node22" class="node">
<title>ast.Name object at 0x7670411f3a90</title>
<path fill="#66cdaa" stroke="black" d="M251.5,-108C251.5,-108 221.5,-108 221.5,-108 215.5,-108 209.5,-102 209.5,-96 209.5,-96 209.5,-84 209.5,-84 209.5,-78 215.5,-72 221.5,-72 221.5,-72 251.5,-72 251.5,-72 257.5,-72 263.5,-78 263.5,-84 263.5,-84 263.5,-96 263.5,-96 263.5,-102 257.5,-108 251.5,-108"/>
<text text-anchor="middle" x="236.5" y="-86.3" font-family="Times,serif" font-size="14.00">Name</text>
</g>
<!-- ast.BinOp object at 0x7670411f0e50&#45;&gt;ast.Name object at 0x7670411f3a90 -->
<g id="edge24" class="edge">
<title>ast.BinOp object at 0x7670411f0e50&#45;&gt;ast.Name object at 0x7670411f3a90</title>
<path fill="none" stroke="black" d="M225.96,-143.7C227.5,-135.98 229.36,-126.71 231.08,-118.11"/>
<polygon fill="black" stroke="black" points="234.55,-118.6 233.08,-108.1 227.69,-117.22 234.55,-118.6"/>
</g>
<!-- ast.Mult object at 0x7670a734c250 -->
<g id="node23" class="node">
<title>ast.Mult object at 0x7670a734c250</title>
<path fill="#66cdaa" stroke="black" d="M323.5,-108C323.5,-108 293.5,-108 293.5,-108 287.5,-108 281.5,-102 281.5,-96 281.5,-96 281.5,-84 281.5,-84 281.5,-78 287.5,-72 293.5,-72 293.5,-72 323.5,-72 323.5,-72 329.5,-72 335.5,-78 335.5,-84 335.5,-84 335.5,-96 335.5,-96 335.5,-102 329.5,-108 323.5,-108"/>
<text text-anchor="middle" x="308.5" y="-86.3" font-family="Times,serif" font-size="14.00">Mult</text>
</g>
<!-- ast.BinOp object at 0x7670411f0e50&#45;&gt;ast.Mult object at 0x7670a734c250 -->
<g id="edge26" class="edge">
<title>ast.BinOp object at 0x7670411f0e50&#45;&gt;ast.Mult object at 0x7670a734c250</title>
<path fill="none" stroke="black" d="M243.76,-143.7C254.59,-134.88 267.92,-124.03 279.66,-114.47"/>
<polygon fill="black" stroke="black" points="281.94,-117.13 287.49,-108.1 277.52,-111.7 281.94,-117.13"/>
</g>
<!-- ast.Name object at 0x7670411f2a10 -->
<g id="node24" class="node">
<title>ast.Name object at 0x7670411f2a10</title>
<path fill="#66cdaa" stroke="black" d="M179.5,-108C179.5,-108 149.5,-108 149.5,-108 143.5,-108 137.5,-102 137.5,-96 137.5,-96 137.5,-84 137.5,-84 137.5,-78 143.5,-72 149.5,-72 149.5,-72 179.5,-72 179.5,-72 185.5,-72 191.5,-78 191.5,-84 191.5,-84 191.5,-96 191.5,-96 191.5,-102 185.5,-108 179.5,-108"/>
<text text-anchor="middle" x="164.5" y="-86.3" font-family="Times,serif" font-size="14.00">Name</text>
</g>
<!-- ast.BinOp object at 0x7670411f0e50&#45;&gt;ast.Name object at 0x7670411f2a10 -->
<g id="edge27" class="edge">
<title>ast.BinOp object at 0x7670411f0e50&#45;&gt;ast.Name object at 0x7670411f2a10</title>
<path fill="none" stroke="black" d="M208.16,-143.7C201.21,-135.3 192.73,-125.07 185.1,-115.86"/>
<polygon fill="black" stroke="black" points="187.75,-113.57 178.67,-108.1 182.36,-118.04 187.75,-113.57"/>
</g>
<!-- ast.Name object at 0x7670411f3a90&#45;&gt;ast.Load object at 0x7670a7337c10 -->
<g id="edge25" class="edge">
<title>ast.Name object at 0x7670411f3a90&#45;&gt;ast.Load object at 0x7670a7337c10</title>
<path fill="none" stroke="black" d="M236.5,-71.7C236.5,-63.98 236.5,-54.71 236.5,-46.11"/>
<polygon fill="black" stroke="black" points="240,-46.1 236.5,-36.1 233,-46.1 240,-46.1"/>
</g>
<!-- ast.Name object at 0x7670411f2a10&#45;&gt;ast.Load object at 0x7670a7337c10 -->
<g id="edge28" class="edge">
<title>ast.Name object at 0x7670411f2a10&#45;&gt;ast.Load object at 0x7670a7337c10</title>
<path fill="none" stroke="black" d="M182.3,-71.7C191.1,-63.14 201.88,-52.66 211.5,-43.3"/>
<polygon fill="black" stroke="black" points="214.18,-45.58 218.91,-36.1 209.3,-40.57 214.18,-45.58"/>
</g>
<!-- ast.Name object at 0x7670411f06d0 -->
<g id="node26" class="node">
<title>ast.Name object at 0x7670411f06d0</title>
<path fill="#66cdaa" stroke="black" d="M488.5,-108C488.5,-108 458.5,-108 458.5,-108 452.5,-108 446.5,-102 446.5,-96 446.5,-96 446.5,-84 446.5,-84 446.5,-78 452.5,-72 458.5,-72 458.5,-72 488.5,-72 488.5,-72 494.5,-72 500.5,-78 500.5,-84 500.5,-84 500.5,-96 500.5,-96 500.5,-102 494.5,-108 488.5,-108"/>
<text text-anchor="middle" x="473.5" y="-86.3" font-family="Times,serif" font-size="14.00">Name</text>
</g>
<!-- ast.Return object at 0x7670411f07d0&#45;&gt;ast.Name object at 0x7670411f06d0 -->
<g id="edge30" class="edge">
<title>ast.Return object at 0x7670411f07d0&#45;&gt;ast.Name object at 0x7670411f06d0</title>
<path fill="none" stroke="black" d="M479.14,-359.97C478.14,-312.29 475.31,-177.18 474.08,-118.63"/>
<polygon fill="black" stroke="black" points="477.57,-118.23 473.86,-108.31 470.57,-118.38 477.57,-118.23"/>
</g>
<!-- ast.Name object at 0x7670411f06d0&#45;&gt;ast.Load object at 0x7670a7337c10 -->
<g id="edge31" class="edge">
<title>ast.Name object at 0x7670411f06d0&#45;&gt;ast.Load object at 0x7670a7337c10</title>
<path fill="none" stroke="black" d="M446.25,-80.85C436.83,-78.04 426.2,-74.88 416.5,-72 366.97,-57.32 309.73,-40.49 273.34,-29.81"/>
<polygon fill="black" stroke="black" points="274.23,-26.42 263.65,-26.96 272.26,-33.14 274.23,-26.42"/>
</g>
</g>
</svg>
