<?xml version="1.0" encoding="UTF-8" standalone="no"?>
<!DOCTYPE svg PUBLIC "-//W3C//DTD SVG 1.1//EN"
 "http://www.w3.org/Graphics/SVG/1.1/DTD/svg11.dtd">
<!-- Generated by graphviz version 2.50.0 (0)
 -->
<!-- Pages: 1 -->
<svg width="1324pt" height="476pt"
 viewBox="0.00 0.00 1324.00 476.00" xmlns="http://www.w3.org/2000/svg" xmlns:xlink="http://www.w3.org/1999/xlink">
<g id="graph0" class="graph" transform="scale(1 1) rotate(0) translate(4 472)">
<polygon fill="white" stroke="transparent" points="-4,4 -4,-472 1320,-472 1320,4 -4,4"/>
<!-- ast.Module object at 0x7540335dff90 -->
<g id="node1" class="node">
<title>ast.Module object at 0x7540335dff90</title>
<path fill="#66cdaa" stroke="black" d="M750.5,-468C750.5,-468 715.5,-468 715.5,-468 709.5,-468 703.5,-462 703.5,-456 703.5,-456 703.5,-444 703.5,-444 703.5,-438 709.5,-432 715.5,-432 715.5,-432 750.5,-432 750.5,-432 756.5,-432 762.5,-438 762.5,-444 762.5,-444 762.5,-456 762.5,-456 762.5,-462 756.5,-468 750.5,-468"/>
<text text-anchor="middle" x="733" y="-446.3" font-family="Times,serif" font-size="14.00">Module</text>
</g>
<!-- ast.FunctionDef object at 0x7540335dd710 -->
<g id="node2" class="node">
<title>ast.FunctionDef object at 0x7540335dd710</title>
<path fill="#66cdaa" stroke="black" d="M763.5,-396C763.5,-396 702.5,-396 702.5,-396 696.5,-396 690.5,-390 690.5,-384 690.5,-384 690.5,-372 690.5,-372 690.5,-366 696.5,-360 702.5,-360 702.5,-360 763.5,-360 763.5,-360 769.5,-360 775.5,-366 775.5,-372 775.5,-372 775.5,-384 775.5,-384 775.5,-390 769.5,-396 763.5,-396"/>
<text text-anchor="middle" x="733" y="-374.3" font-family="Times,serif" font-size="14.00">FunctionDef</text>
</g>
<!-- ast.Module object at 0x7540335dff90&#45;&gt;ast.FunctionDef object at 0x7540335dd710 -->
<g id="edge1" class="edge">
<title>ast.Module object at 0x7540335dff90&#45;&gt;ast.FunctionDef object at 0x7540335dd710</title>
<path fill="none" stroke="black" d="M733,-431.7C733,-423.98 733,-414.71 733,-406.11"/>
<polygon fill="black" stroke="black" points="736.5,-406.1 733,-396.1 729.5,-406.1 736.5,-406.1"/>
</g>
<!-- ast.arguments object at 0x7540335dd550 -->
<g id="node3" class="node">
<title>ast.arguments object at 0x7540335dd550</title>
<path fill="#66cdaa" stroke="black" d="M232,-324C232,-324 182,-324 182,-324 176,-324 170,-318 170,-312 170,-312 170,-300 170,-300 170,-294 176,-288 182,-288 182,-288 232,-288 232,-288 238,-288 244,-294 244,-300 244,-300 244,-312 244,-312 244,-318 238,-324 232,-324"/>
<text text-anchor="middle" x="207" y="-302.3" font-family="Times,serif" font-size="14.00">arguments</text>
</g>
<!-- ast.FunctionDef object at 0x7540335dd710&#45;&gt;ast.arguments object at 0x7540335dd550 -->
<g id="edge2" class="edge">
<title>ast.FunctionDef object at 0x7540335dd710&#45;&gt;ast.arguments object at 0x7540335dd550</title>
<path fill="none" stroke="black" d="M690.4,-371.33C593.22,-358.4 355.73,-326.79 254.24,-313.29"/>
<polygon fill="black" stroke="black" points="254.65,-309.81 244.28,-311.96 253.73,-316.75 254.65,-309.81"/>
</g>
<!-- ast.Expr object at 0x7540335defd0 -->
<g id="node9" class="node">
<title>ast.Expr object at 0x7540335defd0</title>
<path fill="#66cdaa" stroke="black" d="M447,-324C447,-324 417,-324 417,-324 411,-324 405,-318 405,-312 405,-312 405,-300 405,-300 405,-294 411,-288 417,-288 417,-288 447,-288 447,-288 453,-288 459,-294 459,-300 459,-300 459,-312 459,-312 459,-318 453,-324 447,-324"/>
<text text-anchor="middle" x="432" y="-302.3" font-family="Times,serif" font-size="14.00">Expr</text>
</g>
<!-- ast.FunctionDef object at 0x7540335dd710&#45;&gt;ast.Expr object at 0x7540335defd0 -->
<g id="edge8" class="edge">
<title>ast.FunctionDef object at 0x7540335dd710&#45;&gt;ast.Expr object at 0x7540335defd0</title>
<path fill="none" stroke="black" d="M690.19,-367.05C630.91,-353.26 524.8,-328.58 468.86,-315.57"/>
<polygon fill="black" stroke="black" points="469.55,-312.14 459.02,-313.28 467.96,-318.96 469.55,-312.14"/>
</g>
<!-- ast.Assign object at 0x7540335dff10 -->
<g id="node11" class="node">
<title>ast.Assign object at 0x7540335dff10</title>
<path fill="#66cdaa" stroke="black" d="M558,-324C558,-324 528,-324 528,-324 522,-324 516,-318 516,-312 516,-312 516,-300 516,-300 516,-294 522,-288 528,-288 528,-288 558,-288 558,-288 564,-288 570,-294 570,-300 570,-300 570,-312 570,-312 570,-318 564,-324 558,-324"/>
<text text-anchor="middle" x="543" y="-302.3" font-family="Times,serif" font-size="14.00">Assign</text>
</g>
<!-- ast.FunctionDef object at 0x7540335dd710&#45;&gt;ast.Assign object at 0x7540335dff10 -->
<g id="edge10" class="edge">
<title>ast.FunctionDef object at 0x7540335dd710&#45;&gt;ast.Assign object at 0x7540335dff10</title>
<path fill="none" stroke="black" d="M690.36,-361.29C657.19,-349.07 611.63,-332.28 579.99,-320.63"/>
<polygon fill="black" stroke="black" points="580.83,-317.21 570.23,-317.03 578.41,-323.78 580.83,-317.21"/>
</g>
<!-- ast.Expr object at 0x754062725e10 -->
<g id="node17" class="node">
<title>ast.Expr object at 0x754062725e10</title>
<path fill="#66cdaa" stroke="black" d="M653,-324C653,-324 623,-324 623,-324 617,-324 611,-318 611,-312 611,-312 611,-300 611,-300 611,-294 617,-288 623,-288 623,-288 653,-288 653,-288 659,-288 665,-294 665,-300 665,-300 665,-312 665,-312 665,-318 659,-324 653,-324"/>
<text text-anchor="middle" x="638" y="-302.3" font-family="Times,serif" font-size="14.00">Expr</text>
</g>
<!-- ast.FunctionDef object at 0x7540335dd710&#45;&gt;ast.Expr object at 0x754062725e10 -->
<g id="edge16" class="edge">
<title>ast.FunctionDef object at 0x7540335dd710&#45;&gt;ast.Expr object at 0x754062725e10</title>
<path fill="none" stroke="black" d="M709.52,-359.7C697.44,-350.8 682.55,-339.82 669.48,-330.2"/>
<polygon fill="black" stroke="black" points="671.34,-327.22 661.21,-324.1 667.19,-332.85 671.34,-327.22"/>
</g>
<!-- ast.Expr object at 0x75403cbcd550 -->
<g id="node22" class="node">
<title>ast.Expr object at 0x75403cbcd550</title>
<path fill="#66cdaa" stroke="black" d="M748,-324C748,-324 718,-324 718,-324 712,-324 706,-318 706,-312 706,-312 706,-300 706,-300 706,-294 712,-288 718,-288 718,-288 748,-288 748,-288 754,-288 760,-294 760,-300 760,-300 760,-312 760,-312 760,-318 754,-324 748,-324"/>
<text text-anchor="middle" x="733" y="-302.3" font-family="Times,serif" font-size="14.00">Expr</text>
</g>
<!-- ast.FunctionDef object at 0x7540335dd710&#45;&gt;ast.Expr object at 0x75403cbcd550 -->
<g id="edge24" class="edge">
<title>ast.FunctionDef object at 0x7540335dd710&#45;&gt;ast.Expr object at 0x75403cbcd550</title>
<path fill="none" stroke="black" d="M733,-359.7C733,-351.98 733,-342.71 733,-334.11"/>
<polygon fill="black" stroke="black" points="736.5,-334.1 733,-324.1 729.5,-334.1 736.5,-334.1"/>
</g>
<!-- ast.Expr object at 0x75403cbce450 -->
<g id="node27" class="node">
<title>ast.Expr object at 0x75403cbce450</title>
<path fill="#66cdaa" stroke="black" d="M831,-324C831,-324 801,-324 801,-324 795,-324 789,-318 789,-312 789,-312 789,-300 789,-300 789,-294 795,-288 801,-288 801,-288 831,-288 831,-288 837,-288 843,-294 843,-300 843,-300 843,-312 843,-312 843,-318 837,-324 831,-324"/>
<text text-anchor="middle" x="816" y="-302.3" font-family="Times,serif" font-size="14.00">Expr</text>
</g>
<!-- ast.FunctionDef object at 0x7540335dd710&#45;&gt;ast.Expr object at 0x75403cbce450 -->
<g id="edge32" class="edge">
<title>ast.FunctionDef object at 0x7540335dd710&#45;&gt;ast.Expr object at 0x75403cbce450</title>
<path fill="none" stroke="black" d="M753.52,-359.7C763.87,-350.97 776.59,-340.24 787.84,-330.75"/>
<polygon fill="black" stroke="black" points="790.33,-333.23 795.72,-324.1 785.82,-327.88 790.33,-333.23"/>
</g>
<!-- ast.Expr object at 0x75403317c890 -->
<g id="node32" class="node">
<title>ast.Expr object at 0x75403317c890</title>
<path fill="#66cdaa" stroke="black" d="M957,-324C957,-324 927,-324 927,-324 921,-324 915,-318 915,-312 915,-312 915,-300 915,-300 915,-294 921,-288 927,-288 927,-288 957,-288 957,-288 963,-288 969,-294 969,-300 969,-300 969,-312 969,-312 969,-318 963,-324 957,-324"/>
<text text-anchor="middle" x="942" y="-302.3" font-family="Times,serif" font-size="14.00">Expr</text>
</g>
<!-- ast.FunctionDef object at 0x7540335dd710&#45;&gt;ast.Expr object at 0x75403317c890 -->
<g id="edge40" class="edge">
<title>ast.FunctionDef object at 0x7540335dd710&#45;&gt;ast.Expr object at 0x75403317c890</title>
<path fill="none" stroke="black" d="M775.55,-362.75C813.62,-350 868.87,-331.49 905.11,-319.36"/>
<polygon fill="black" stroke="black" points="906.42,-322.61 914.8,-316.11 904.2,-315.97 906.42,-322.61"/>
</g>
<!-- ast.Expr object at 0x754049861350 -->
<g id="node37" class="node">
<title>ast.Expr object at 0x754049861350</title>
<path fill="#66cdaa" stroke="black" d="M1099,-324C1099,-324 1069,-324 1069,-324 1063,-324 1057,-318 1057,-312 1057,-312 1057,-300 1057,-300 1057,-294 1063,-288 1069,-288 1069,-288 1099,-288 1099,-288 1105,-288 1111,-294 1111,-300 1111,-300 1111,-312 1111,-312 1111,-318 1105,-324 1099,-324"/>
<text text-anchor="middle" x="1084" y="-302.3" font-family="Times,serif" font-size="14.00">Expr</text>
</g>
<!-- ast.FunctionDef object at 0x7540335dd710&#45;&gt;ast.Expr object at 0x754049861350 -->
<g id="edge48" class="edge">
<title>ast.FunctionDef object at 0x7540335dd710&#45;&gt;ast.Expr object at 0x754049861350</title>
<path fill="none" stroke="black" d="M775.69,-368.49C845.06,-354.65 981.09,-327.52 1046.77,-314.42"/>
<polygon fill="black" stroke="black" points="1047.56,-317.84 1056.69,-312.45 1046.19,-310.97 1047.56,-317.84"/>
</g>
<!-- ast.Return object at 0x7540324a5590 -->
<g id="node42" class="node">
<title>ast.Return object at 0x7540324a5590</title>
<path fill="#66cdaa" stroke="black" d="M1237,-324C1237,-324 1207,-324 1207,-324 1201,-324 1195,-318 1195,-312 1195,-312 1195,-300 1195,-300 1195,-294 1201,-288 1207,-288 1207,-288 1237,-288 1237,-288 1243,-288 1249,-294 1249,-300 1249,-300 1249,-312 1249,-312 1249,-318 1243,-324 1237,-324"/>
<text text-anchor="middle" x="1222" y="-302.3" font-family="Times,serif" font-size="14.00">Return</text>
</g>
<!-- ast.FunctionDef object at 0x7540335dd710&#45;&gt;ast.Return object at 0x7540324a5590 -->
<g id="edge56" class="edge">
<title>ast.FunctionDef object at 0x7540335dd710&#45;&gt;ast.Return object at 0x7540324a5590</title>
<path fill="none" stroke="black" d="M775.72,-371.56C847.11,-362.38 995.13,-342.95 1120,-324 1141.51,-320.73 1165.52,-316.75 1184.84,-313.46"/>
<polygon fill="black" stroke="black" points="1185.49,-316.9 1194.76,-311.76 1184.31,-310 1185.49,-316.9"/>
</g>
<!-- ast.arg object at 0x7540335dffd0 -->
<g id="node4" class="node">
<title>ast.arg object at 0x7540335dffd0</title>
<path fill="#66cdaa" stroke="black" d="M42,-252C42,-252 12,-252 12,-252 6,-252 0,-246 0,-240 0,-240 0,-228 0,-228 0,-222 6,-216 12,-216 12,-216 42,-216 42,-216 48,-216 54,-222 54,-228 54,-228 54,-240 54,-240 54,-246 48,-252 42,-252"/>
<text text-anchor="middle" x="27" y="-230.3" font-family="Times,serif" font-size="14.00">arg</text>
</g>
<!-- ast.arguments object at 0x7540335dd550&#45;&gt;ast.arg object at 0x7540335dffd0 -->
<g id="edge3" class="edge">
<title>ast.arguments object at 0x7540335dd550&#45;&gt;ast.arg object at 0x7540335dffd0</title>
<path fill="none" stroke="black" d="M169.96,-292.38C142.72,-282.88 104.69,-269.14 63.42,-252.01"/>
<polygon fill="black" stroke="black" points="64.59,-248.7 54.01,-248.07 61.88,-255.16 64.59,-248.7"/>
</g>
<!-- ast.arg object at 0x7540335dc990 -->
<g id="node5" class="node">
<title>ast.arg object at 0x7540335dc990</title>
<path fill="#66cdaa" stroke="black" d="M114,-252C114,-252 84,-252 84,-252 78,-252 72,-246 72,-240 72,-240 72,-228 72,-228 72,-222 78,-216 84,-216 84,-216 114,-216 114,-216 120,-216 126,-222 126,-228 126,-228 126,-240 126,-240 126,-246 120,-252 114,-252"/>
<text text-anchor="middle" x="99" y="-230.3" font-family="Times,serif" font-size="14.00">arg</text>
</g>
<!-- ast.arguments object at 0x7540335dd550&#45;&gt;ast.arg object at 0x7540335dc990 -->
<g id="edge4" class="edge">
<title>ast.arguments object at 0x7540335dd550&#45;&gt;ast.arg object at 0x7540335dc990</title>
<path fill="none" stroke="black" d="M180.58,-287.88C166.59,-278.81 149.22,-267.55 134.11,-257.76"/>
<polygon fill="black" stroke="black" points="135.82,-254.69 125.52,-252.19 132.01,-260.57 135.82,-254.69"/>
</g>
<!-- ast.arg object at 0x7540335dde90 -->
<g id="node6" class="node">
<title>ast.arg object at 0x7540335dde90</title>
<path fill="#66cdaa" stroke="black" d="M186,-252C186,-252 156,-252 156,-252 150,-252 144,-246 144,-240 144,-240 144,-228 144,-228 144,-222 150,-216 156,-216 156,-216 186,-216 186,-216 192,-216 198,-222 198,-228 198,-228 198,-240 198,-240 198,-246 192,-252 186,-252"/>
<text text-anchor="middle" x="171" y="-230.3" font-family="Times,serif" font-size="14.00">arg</text>
</g>
<!-- ast.arguments object at 0x7540335dd550&#45;&gt;ast.arg object at 0x7540335dde90 -->
<g id="edge5" class="edge">
<title>ast.arguments object at 0x7540335dd550&#45;&gt;ast.arg object at 0x7540335dde90</title>
<path fill="none" stroke="black" d="M198.1,-287.7C194,-279.73 189.05,-270.1 184.51,-261.26"/>
<polygon fill="black" stroke="black" points="187.48,-259.4 179.8,-252.1 181.26,-262.6 187.48,-259.4"/>
</g>
<!-- ast.arg object at 0x7540335de950 -->
<g id="node7" class="node">
<title>ast.arg object at 0x7540335de950</title>
<path fill="#66cdaa" stroke="black" d="M258,-252C258,-252 228,-252 228,-252 222,-252 216,-246 216,-240 216,-240 216,-228 216,-228 216,-222 222,-216 228,-216 228,-216 258,-216 258,-216 264,-216 270,-222 270,-228 270,-228 270,-240 270,-240 270,-246 264,-252 258,-252"/>
<text text-anchor="middle" x="243" y="-230.3" font-family="Times,serif" font-size="14.00">arg</text>
</g>
<!-- ast.arguments object at 0x7540335dd550&#45;&gt;ast.arg object at 0x7540335de950 -->
<g id="edge6" class="edge">
<title>ast.arguments object at 0x7540335dd550&#45;&gt;ast.arg object at 0x7540335de950</title>
<path fill="none" stroke="black" d="M215.9,-287.7C220,-279.73 224.95,-270.1 229.49,-261.26"/>
<polygon fill="black" stroke="black" points="232.74,-262.6 234.2,-252.1 226.52,-259.4 232.74,-262.6"/>
</g>
<!-- ast.arg object at 0x7540335df250 -->
<g id="node8" class="node">
<title>ast.arg object at 0x7540335df250</title>
<path fill="#66cdaa" stroke="black" d="M330,-252C330,-252 300,-252 300,-252 294,-252 288,-246 288,-240 288,-240 288,-228 288,-228 288,-222 294,-216 300,-216 300,-216 330,-216 330,-216 336,-216 342,-222 342,-228 342,-228 342,-240 342,-240 342,-246 336,-252 330,-252"/>
<text text-anchor="middle" x="315" y="-230.3" font-family="Times,serif" font-size="14.00">arg</text>
</g>
<!-- ast.arguments object at 0x7540335dd550&#45;&gt;ast.arg object at 0x7540335df250 -->
<g id="edge7" class="edge">
<title>ast.arguments object at 0x7540335dd550&#45;&gt;ast.arg object at 0x7540335df250</title>
<path fill="none" stroke="black" d="M233.42,-287.88C247.41,-278.81 264.78,-267.55 279.89,-257.76"/>
<polygon fill="black" stroke="black" points="281.99,-260.57 288.48,-252.19 278.18,-254.69 281.99,-260.57"/>
</g>
<!-- ast.Constant object at 0x7540335dd190 -->
<g id="node10" class="node">
<title>ast.Constant object at 0x7540335dd190</title>
<path fill="#66cdaa" stroke="black" d="M413.5,-252C413.5,-252 372.5,-252 372.5,-252 366.5,-252 360.5,-246 360.5,-240 360.5,-240 360.5,-228 360.5,-228 360.5,-222 366.5,-216 372.5,-216 372.5,-216 413.5,-216 413.5,-216 419.5,-216 425.5,-222 425.5,-228 425.5,-228 425.5,-240 425.5,-240 425.5,-246 419.5,-252 413.5,-252"/>
<text text-anchor="middle" x="393" y="-230.3" font-family="Times,serif" font-size="14.00">Constant</text>
</g>
<!-- ast.Expr object at 0x7540335defd0&#45;&gt;ast.Constant object at 0x7540335dd190 -->
<g id="edge9" class="edge">
<title>ast.Expr object at 0x7540335defd0&#45;&gt;ast.Constant object at 0x7540335dd190</title>
<path fill="none" stroke="black" d="M422.36,-287.7C417.87,-279.64 412.44,-269.89 407.48,-260.98"/>
<polygon fill="black" stroke="black" points="410.45,-259.14 402.53,-252.1 404.34,-262.54 410.45,-259.14"/>
</g>
<!-- ast.Name object at 0x7540335dd750 -->
<g id="node12" class="node">
<title>ast.Name object at 0x7540335dd750</title>
<path fill="#66cdaa" stroke="black" d="M486,-252C486,-252 456,-252 456,-252 450,-252 444,-246 444,-240 444,-240 444,-228 444,-228 444,-222 450,-216 456,-216 456,-216 486,-216 486,-216 492,-216 498,-222 498,-228 498,-228 498,-240 498,-240 498,-246 492,-252 486,-252"/>
<text text-anchor="middle" x="471" y="-230.3" font-family="Times,serif" font-size="14.00">Name</text>
</g>
<!-- ast.Assign object at 0x7540335dff10&#45;&gt;ast.Name object at 0x7540335dd750 -->
<g id="edge11" class="edge">
<title>ast.Assign object at 0x7540335dff10&#45;&gt;ast.Name object at 0x7540335dd750</title>
<path fill="none" stroke="black" d="M525.2,-287.7C516.4,-279.14 505.62,-268.66 496,-259.3"/>
<polygon fill="black" stroke="black" points="498.2,-256.57 488.59,-252.1 493.32,-261.58 498.2,-256.57"/>
</g>
<!-- ast.Call object at 0x754062726350 -->
<g id="node14" class="node">
<title>ast.Call object at 0x754062726350</title>
<path fill="#66cdaa" stroke="black" d="M558,-252C558,-252 528,-252 528,-252 522,-252 516,-246 516,-240 516,-240 516,-228 516,-228 516,-222 522,-216 528,-216 528,-216 558,-216 558,-216 564,-216 570,-222 570,-228 570,-228 570,-240 570,-240 570,-246 564,-252 558,-252"/>
<text text-anchor="middle" x="543" y="-230.3" font-family="Times,serif" font-size="14.00">Call</text>
</g>
<!-- ast.Assign object at 0x7540335dff10&#45;&gt;ast.Call object at 0x754062726350 -->
<g id="edge13" class="edge">
<title>ast.Assign object at 0x7540335dff10&#45;&gt;ast.Call object at 0x754062726350</title>
<path fill="none" stroke="black" d="M543,-287.7C543,-279.98 543,-270.71 543,-262.11"/>
<polygon fill="black" stroke="black" points="546.5,-262.1 543,-252.1 539.5,-262.1 546.5,-262.1"/>
</g>
<!-- ast.Store object at 0x754115323a50 -->
<g id="node13" class="node">
<title>ast.Store object at 0x754115323a50</title>
<path fill="#66cdaa" stroke="black" d="M423,-180C423,-180 393,-180 393,-180 387,-180 381,-174 381,-168 381,-168 381,-156 381,-156 381,-150 387,-144 393,-144 393,-144 423,-144 423,-144 429,-144 435,-150 435,-156 435,-156 435,-168 435,-168 435,-174 429,-180 423,-180"/>
<text text-anchor="middle" x="408" y="-158.3" font-family="Times,serif" font-size="14.00">Store</text>
</g>
<!-- ast.Name object at 0x7540335dd750&#45;&gt;ast.Store object at 0x754115323a50 -->
<g id="edge12" class="edge">
<title>ast.Name object at 0x7540335dd750&#45;&gt;ast.Store object at 0x754115323a50</title>
<path fill="none" stroke="black" d="M455.43,-215.7C447.8,-207.22 438.48,-196.86 430.12,-187.58"/>
<polygon fill="black" stroke="black" points="432.69,-185.2 423.39,-180.1 427.48,-189.88 432.69,-185.2"/>
</g>
<!-- ast.Name object at 0x754062726450 -->
<g id="node15" class="node">
<title>ast.Name object at 0x754062726450</title>
<path fill="#66cdaa" stroke="black" d="M424,-108C424,-108 394,-108 394,-108 388,-108 382,-102 382,-96 382,-96 382,-84 382,-84 382,-78 388,-72 394,-72 394,-72 424,-72 424,-72 430,-72 436,-78 436,-84 436,-84 436,-96 436,-96 436,-102 430,-108 424,-108"/>
<text text-anchor="middle" x="409" y="-86.3" font-family="Times,serif" font-size="14.00">Name</text>
</g>
<!-- ast.Call object at 0x754062726350&#45;&gt;ast.Name object at 0x754062726450 -->
<g id="edge14" class="edge">
<title>ast.Call object at 0x754062726350&#45;&gt;ast.Name object at 0x754062726450</title>
<path fill="none" stroke="black" d="M521.6,-215.92C509.53,-205.92 494.42,-192.78 482,-180 462.37,-159.8 442.23,-134.87 428.09,-116.54"/>
<polygon fill="black" stroke="black" points="430.51,-113.94 421.66,-108.12 424.94,-118.19 430.51,-113.94"/>
</g>
<!-- ast.Load object at 0x7541153239d0 -->
<g id="node16" class="node">
<title>ast.Load object at 0x7541153239d0</title>
<path fill="#66cdaa" stroke="black" d="M898,-36C898,-36 868,-36 868,-36 862,-36 856,-30 856,-24 856,-24 856,-12 856,-12 856,-6 862,0 868,0 868,0 898,0 898,0 904,0 910,-6 910,-12 910,-12 910,-24 910,-24 910,-30 904,-36 898,-36"/>
<text text-anchor="middle" x="883" y="-14.3" font-family="Times,serif" font-size="14.00">Load</text>
</g>
<!-- ast.Name object at 0x754062726450&#45;&gt;ast.Load object at 0x7541153239d0 -->
<g id="edge15" class="edge">
<title>ast.Name object at 0x754062726450&#45;&gt;ast.Load object at 0x7541153239d0</title>
<path fill="none" stroke="black" d="M436.44,-76.43C440.9,-74.74 445.53,-73.18 450,-72 592.93,-34.37 769.57,-23.31 845.47,-20.18"/>
<polygon fill="black" stroke="black" points="846.06,-23.66 855.92,-19.78 845.79,-16.67 846.06,-23.66"/>
</g>
<!-- ast.Call object at 0x75403df44290 -->
<g id="node18" class="node">
<title>ast.Call object at 0x75403df44290</title>
<path fill="#66cdaa" stroke="black" d="M630,-252C630,-252 600,-252 600,-252 594,-252 588,-246 588,-240 588,-240 588,-228 588,-228 588,-222 594,-216 600,-216 600,-216 630,-216 630,-216 636,-216 642,-222 642,-228 642,-228 642,-240 642,-240 642,-246 636,-252 630,-252"/>
<text text-anchor="middle" x="615" y="-230.3" font-family="Times,serif" font-size="14.00">Call</text>
</g>
<!-- ast.Expr object at 0x754062725e10&#45;&gt;ast.Call object at 0x75403df44290 -->
<g id="edge17" class="edge">
<title>ast.Expr object at 0x754062725e10&#45;&gt;ast.Call object at 0x75403df44290</title>
<path fill="none" stroke="black" d="M632.31,-287.7C629.75,-279.9 626.67,-270.51 623.82,-261.83"/>
<polygon fill="black" stroke="black" points="627.07,-260.51 620.62,-252.1 620.42,-262.7 627.07,-260.51"/>
</g>
<!-- ast.Attribute object at 0x75403cbcef10 -->
<g id="node19" class="node">
<title>ast.Attribute object at 0x75403cbcef10</title>
<path fill="#66cdaa" stroke="black" d="M544.5,-180C544.5,-180 503.5,-180 503.5,-180 497.5,-180 491.5,-174 491.5,-168 491.5,-168 491.5,-156 491.5,-156 491.5,-150 497.5,-144 503.5,-144 503.5,-144 544.5,-144 544.5,-144 550.5,-144 556.5,-150 556.5,-156 556.5,-156 556.5,-168 556.5,-168 556.5,-174 550.5,-180 544.5,-180"/>
<text text-anchor="middle" x="524" y="-158.3" font-family="Times,serif" font-size="14.00">Attribute</text>
</g>
<!-- ast.Call object at 0x75403df44290&#45;&gt;ast.Attribute object at 0x75403cbcef10 -->
<g id="edge18" class="edge">
<title>ast.Call object at 0x75403df44290&#45;&gt;ast.Attribute object at 0x75403cbcef10</title>
<path fill="none" stroke="black" d="M592.51,-215.7C581.04,-206.88 566.94,-196.03 554.52,-186.47"/>
<polygon fill="black" stroke="black" points="556.3,-183.43 546.24,-180.1 552.03,-188.98 556.3,-183.43"/>
</g>
<!-- ast.Name object at 0x75403cbcc250 -->
<g id="node21" class="node">
<title>ast.Name object at 0x75403cbcc250</title>
<path fill="#66cdaa" stroke="black" d="M606,-108C606,-108 576,-108 576,-108 570,-108 564,-102 564,-96 564,-96 564,-84 564,-84 564,-78 570,-72 576,-72 576,-72 606,-72 606,-72 612,-72 618,-78 618,-84 618,-84 618,-96 618,-96 618,-102 612,-108 606,-108"/>
<text text-anchor="middle" x="591" y="-86.3" font-family="Times,serif" font-size="14.00">Name</text>
</g>
<!-- ast.Call object at 0x75403df44290&#45;&gt;ast.Name object at 0x75403cbcc250 -->
<g id="edge22" class="edge">
<title>ast.Call object at 0x75403df44290&#45;&gt;ast.Name object at 0x75403cbcc250</title>
<path fill="none" stroke="black" d="M612.11,-215.87C608.01,-191.67 600.5,-147.21 595.63,-118.39"/>
<polygon fill="black" stroke="black" points="599.02,-117.47 593.91,-108.19 592.12,-118.63 599.02,-117.47"/>
</g>
<!-- ast.Attribute object at 0x75403cbcef10&#45;&gt;ast.Load object at 0x7541153239d0 -->
<g id="edge21" class="edge">
<title>ast.Attribute object at 0x75403cbcef10&#45;&gt;ast.Load object at 0x7541153239d0</title>
<path fill="none" stroke="black" d="M505.79,-143.96C487.43,-124.73 464.28,-93.37 483,-72 506.78,-44.86 751.36,-27.08 845.94,-21.17"/>
<polygon fill="black" stroke="black" points="846.16,-24.66 855.93,-20.55 845.73,-17.67 846.16,-24.66"/>
</g>
<!-- ast.Name object at 0x75403cbcd790 -->
<g id="node20" class="node">
<title>ast.Name object at 0x75403cbcd790</title>
<path fill="#66cdaa" stroke="black" d="M534,-108C534,-108 504,-108 504,-108 498,-108 492,-102 492,-96 492,-96 492,-84 492,-84 492,-78 498,-72 504,-72 504,-72 534,-72 534,-72 540,-72 546,-78 546,-84 546,-84 546,-96 546,-96 546,-102 540,-108 534,-108"/>
<text text-anchor="middle" x="519" y="-86.3" font-family="Times,serif" font-size="14.00">Name</text>
</g>
<!-- ast.Attribute object at 0x75403cbcef10&#45;&gt;ast.Name object at 0x75403cbcd790 -->
<g id="edge19" class="edge">
<title>ast.Attribute object at 0x75403cbcef10&#45;&gt;ast.Name object at 0x75403cbcd790</title>
<path fill="none" stroke="black" d="M522.76,-143.7C522.21,-135.98 521.55,-126.71 520.94,-118.11"/>
<polygon fill="black" stroke="black" points="524.43,-117.83 520.22,-108.1 517.44,-118.33 524.43,-117.83"/>
</g>
<!-- ast.Name object at 0x75403cbcd790&#45;&gt;ast.Load object at 0x7541153239d0 -->
<g id="edge20" class="edge">
<title>ast.Name object at 0x75403cbcd790&#45;&gt;ast.Load object at 0x7541153239d0</title>
<path fill="none" stroke="black" d="M546.2,-75.19C549.13,-73.99 552.1,-72.9 555,-72 657.34,-40.26 783.86,-26.68 845.58,-21.61"/>
<polygon fill="black" stroke="black" points="845.93,-25.1 855.63,-20.82 845.38,-18.12 845.93,-25.1"/>
</g>
<!-- ast.Name object at 0x75403cbcc250&#45;&gt;ast.Load object at 0x7541153239d0 -->
<g id="edge23" class="edge">
<title>ast.Name object at 0x75403cbcc250&#45;&gt;ast.Load object at 0x7541153239d0</title>
<path fill="none" stroke="black" d="M618.09,-76.95C622.68,-75.14 627.44,-73.41 632,-72 706.47,-48.92 796.45,-32.62 845.92,-24.62"/>
<polygon fill="black" stroke="black" points="846.51,-28.07 855.84,-23.04 845.41,-21.16 846.51,-28.07"/>
</g>
<!-- ast.Call object at 0x75403cbcf450 -->
<g id="node23" class="node">
<title>ast.Call object at 0x75403cbcf450</title>
<path fill="#66cdaa" stroke="black" d="M748,-252C748,-252 718,-252 718,-252 712,-252 706,-246 706,-240 706,-240 706,-228 706,-228 706,-222 712,-216 718,-216 718,-216 748,-216 748,-216 754,-216 760,-222 760,-228 760,-228 760,-240 760,-240 760,-246 754,-252 748,-252"/>
<text text-anchor="middle" x="733" y="-230.3" font-family="Times,serif" font-size="14.00">Call</text>
</g>
<!-- ast.Expr object at 0x75403cbcd550&#45;&gt;ast.Call object at 0x75403cbcf450 -->
<g id="edge25" class="edge">
<title>ast.Expr object at 0x75403cbcd550&#45;&gt;ast.Call object at 0x75403cbcf450</title>
<path fill="none" stroke="black" d="M733,-287.7C733,-279.98 733,-270.71 733,-262.11"/>
<polygon fill="black" stroke="black" points="736.5,-262.1 733,-252.1 729.5,-262.1 736.5,-262.1"/>
</g>
<!-- ast.Attribute object at 0x75403cbcde10 -->
<g id="node24" class="node">
<title>ast.Attribute object at 0x75403cbcde10</title>
<path fill="#66cdaa" stroke="black" d="M721.5,-180C721.5,-180 680.5,-180 680.5,-180 674.5,-180 668.5,-174 668.5,-168 668.5,-168 668.5,-156 668.5,-156 668.5,-150 674.5,-144 680.5,-144 680.5,-144 721.5,-144 721.5,-144 727.5,-144 733.5,-150 733.5,-156 733.5,-156 733.5,-168 733.5,-168 733.5,-174 727.5,-180 721.5,-180"/>
<text text-anchor="middle" x="701" y="-158.3" font-family="Times,serif" font-size="14.00">Attribute</text>
</g>
<!-- ast.Call object at 0x75403cbcf450&#45;&gt;ast.Attribute object at 0x75403cbcde10 -->
<g id="edge26" class="edge">
<title>ast.Call object at 0x75403cbcf450&#45;&gt;ast.Attribute object at 0x75403cbcde10</title>
<path fill="none" stroke="black" d="M725.09,-215.7C721.45,-207.73 717.05,-198.1 713.01,-189.26"/>
<polygon fill="black" stroke="black" points="716.16,-187.74 708.82,-180.1 709.79,-190.65 716.16,-187.74"/>
</g>
<!-- ast.Name object at 0x75403cbceb50 -->
<g id="node26" class="node">
<title>ast.Name object at 0x75403cbceb50</title>
<path fill="#66cdaa" stroke="black" d="M788,-108C788,-108 758,-108 758,-108 752,-108 746,-102 746,-96 746,-96 746,-84 746,-84 746,-78 752,-72 758,-72 758,-72 788,-72 788,-72 794,-72 800,-78 800,-84 800,-84 800,-96 800,-96 800,-102 794,-108 788,-108"/>
<text text-anchor="middle" x="773" y="-86.3" font-family="Times,serif" font-size="14.00">Name</text>
</g>
<!-- ast.Call object at 0x75403cbcf450&#45;&gt;ast.Name object at 0x75403cbceb50 -->
<g id="edge30" class="edge">
<title>ast.Call object at 0x75403cbcf450&#45;&gt;ast.Name object at 0x75403cbceb50</title>
<path fill="none" stroke="black" d="M737.82,-215.87C744.67,-191.56 757.28,-146.82 765.39,-118.01"/>
<polygon fill="black" stroke="black" points="768.82,-118.76 768.16,-108.19 762.08,-116.87 768.82,-118.76"/>
</g>
<!-- ast.Attribute object at 0x75403cbcde10&#45;&gt;ast.Load object at 0x7541153239d0 -->
<g id="edge29" class="edge">
<title>ast.Attribute object at 0x75403cbcde10&#45;&gt;ast.Load object at 0x7541153239d0</title>
<path fill="none" stroke="black" d="M684.44,-143.8C668.11,-124.72 647.9,-93.75 665,-72 687.05,-43.95 789.17,-28.91 845.48,-22.62"/>
<polygon fill="black" stroke="black" points="846.2,-26.06 855.76,-21.51 845.45,-19.1 846.2,-26.06"/>
</g>
<!-- ast.Name object at 0x75403cbcdc50 -->
<g id="node25" class="node">
<title>ast.Name object at 0x75403cbcdc50</title>
<path fill="#66cdaa" stroke="black" d="M716,-108C716,-108 686,-108 686,-108 680,-108 674,-102 674,-96 674,-96 674,-84 674,-84 674,-78 680,-72 686,-72 686,-72 716,-72 716,-72 722,-72 728,-78 728,-84 728,-84 728,-96 728,-96 728,-102 722,-108 716,-108"/>
<text text-anchor="middle" x="701" y="-86.3" font-family="Times,serif" font-size="14.00">Name</text>
</g>
<!-- ast.Attribute object at 0x75403cbcde10&#45;&gt;ast.Name object at 0x75403cbcdc50 -->
<g id="edge27" class="edge">
<title>ast.Attribute object at 0x75403cbcde10&#45;&gt;ast.Name object at 0x75403cbcdc50</title>
<path fill="none" stroke="black" d="M701,-143.7C701,-135.98 701,-126.71 701,-118.11"/>
<polygon fill="black" stroke="black" points="704.5,-118.1 701,-108.1 697.5,-118.1 704.5,-118.1"/>
</g>
<!-- ast.Name object at 0x75403cbcdc50&#45;&gt;ast.Load object at 0x7541153239d0 -->
<g id="edge28" class="edge">
<title>ast.Name object at 0x75403cbcdc50&#45;&gt;ast.Load object at 0x7541153239d0</title>
<path fill="none" stroke="black" d="M728.01,-75.92C731.02,-74.55 734.07,-73.22 737,-72 773.68,-56.72 816.5,-41.47 846.24,-31.28"/>
<polygon fill="black" stroke="black" points="847.46,-34.56 855.8,-28.03 845.21,-27.94 847.46,-34.56"/>
</g>
<!-- ast.Name object at 0x75403cbceb50&#45;&gt;ast.Load object at 0x7541153239d0 -->
<g id="edge31" class="edge">
<title>ast.Name object at 0x75403cbceb50&#45;&gt;ast.Load object at 0x7541153239d0</title>
<path fill="none" stroke="black" d="M799.91,-71.88C814.16,-62.81 831.85,-51.55 847.24,-41.76"/>
<polygon fill="black" stroke="black" points="849.43,-44.51 855.99,-36.19 845.67,-38.61 849.43,-44.51"/>
</g>
<!-- ast.Call object at 0x75403cbcde50 -->
<g id="node28" class="node">
<title>ast.Call object at 0x75403cbcde50</title>
<path fill="#66cdaa" stroke="black" d="M843,-252C843,-252 813,-252 813,-252 807,-252 801,-246 801,-240 801,-240 801,-228 801,-228 801,-222 807,-216 813,-216 813,-216 843,-216 843,-216 849,-216 855,-222 855,-228 855,-228 855,-240 855,-240 855,-246 849,-252 843,-252"/>
<text text-anchor="middle" x="828" y="-230.3" font-family="Times,serif" font-size="14.00">Call</text>
</g>
<!-- ast.Expr object at 0x75403cbce450&#45;&gt;ast.Call object at 0x75403cbcde50 -->
<g id="edge33" class="edge">
<title>ast.Expr object at 0x75403cbce450&#45;&gt;ast.Call object at 0x75403cbcde50</title>
<path fill="none" stroke="black" d="M818.97,-287.7C820.29,-279.98 821.88,-270.71 823.35,-262.11"/>
<polygon fill="black" stroke="black" points="826.83,-262.55 825.07,-252.1 819.93,-261.37 826.83,-262.55"/>
</g>
<!-- ast.Attribute object at 0x75403cbcd250 -->
<g id="node29" class="node">
<title>ast.Attribute object at 0x75403cbcd250</title>
<path fill="#66cdaa" stroke="black" d="M848.5,-180C848.5,-180 807.5,-180 807.5,-180 801.5,-180 795.5,-174 795.5,-168 795.5,-168 795.5,-156 795.5,-156 795.5,-150 801.5,-144 807.5,-144 807.5,-144 848.5,-144 848.5,-144 854.5,-144 860.5,-150 860.5,-156 860.5,-156 860.5,-168 860.5,-168 860.5,-174 854.5,-180 848.5,-180"/>
<text text-anchor="middle" x="828" y="-158.3" font-family="Times,serif" font-size="14.00">Attribute</text>
</g>
<!-- ast.Call object at 0x75403cbcde50&#45;&gt;ast.Attribute object at 0x75403cbcd250 -->
<g id="edge34" class="edge">
<title>ast.Call object at 0x75403cbcde50&#45;&gt;ast.Attribute object at 0x75403cbcd250</title>
<path fill="none" stroke="black" d="M828,-215.7C828,-207.98 828,-198.71 828,-190.11"/>
<polygon fill="black" stroke="black" points="831.5,-190.1 828,-180.1 824.5,-190.1 831.5,-190.1"/>
</g>
<!-- ast.Name object at 0x75403317de50 -->
<g id="node31" class="node">
<title>ast.Name object at 0x75403317de50</title>
<path fill="#66cdaa" stroke="black" d="M929,-180C929,-180 899,-180 899,-180 893,-180 887,-174 887,-168 887,-168 887,-156 887,-156 887,-150 893,-144 899,-144 899,-144 929,-144 929,-144 935,-144 941,-150 941,-156 941,-156 941,-168 941,-168 941,-174 935,-180 929,-180"/>
<text text-anchor="middle" x="914" y="-158.3" font-family="Times,serif" font-size="14.00">Name</text>
</g>
<!-- ast.Call object at 0x75403cbcde50&#45;&gt;ast.Name object at 0x75403317de50 -->
<g id="edge38" class="edge">
<title>ast.Call object at 0x75403cbcde50&#45;&gt;ast.Name object at 0x75403317de50</title>
<path fill="none" stroke="black" d="M849.26,-215.7C860.09,-206.88 873.42,-196.03 885.16,-186.47"/>
<polygon fill="black" stroke="black" points="887.44,-189.13 892.99,-180.1 883.02,-183.7 887.44,-189.13"/>
</g>
<!-- ast.Attribute object at 0x75403cbcd250&#45;&gt;ast.Load object at 0x7541153239d0 -->
<g id="edge37" class="edge">
<title>ast.Attribute object at 0x75403cbcd250&#45;&gt;ast.Load object at 0x7541153239d0</title>
<path fill="none" stroke="black" d="M829.7,-143.67C831.95,-125.29 836.89,-95.69 847,-72 851.08,-62.43 856.99,-52.78 862.84,-44.39"/>
<polygon fill="black" stroke="black" points="865.78,-46.29 868.84,-36.15 860.12,-42.17 865.78,-46.29"/>
</g>
<!-- ast.Name object at 0x7540c1649110 -->
<g id="node30" class="node">
<title>ast.Name object at 0x7540c1649110</title>
<path fill="#66cdaa" stroke="black" d="M898,-108C898,-108 868,-108 868,-108 862,-108 856,-102 856,-96 856,-96 856,-84 856,-84 856,-78 862,-72 868,-72 868,-72 898,-72 898,-72 904,-72 910,-78 910,-84 910,-84 910,-96 910,-96 910,-102 904,-108 898,-108"/>
<text text-anchor="middle" x="883" y="-86.3" font-family="Times,serif" font-size="14.00">Name</text>
</g>
<!-- ast.Attribute object at 0x75403cbcd250&#45;&gt;ast.Name object at 0x7540c1649110 -->
<g id="edge35" class="edge">
<title>ast.Attribute object at 0x75403cbcd250&#45;&gt;ast.Name object at 0x7540c1649110</title>
<path fill="none" stroke="black" d="M841.6,-143.7C848.12,-135.39 856.07,-125.28 863.25,-116.14"/>
<polygon fill="black" stroke="black" points="866.13,-118.13 869.56,-108.1 860.63,-113.81 866.13,-118.13"/>
</g>
<!-- ast.Name object at 0x7540c1649110&#45;&gt;ast.Load object at 0x7541153239d0 -->
<g id="edge36" class="edge">
<title>ast.Name object at 0x7540c1649110&#45;&gt;ast.Load object at 0x7541153239d0</title>
<path fill="none" stroke="black" d="M883,-71.7C883,-63.98 883,-54.71 883,-46.11"/>
<polygon fill="black" stroke="black" points="886.5,-46.1 883,-36.1 879.5,-46.1 886.5,-46.1"/>
</g>
<!-- ast.Name object at 0x75403317de50&#45;&gt;ast.Load object at 0x7541153239d0 -->
<g id="edge39" class="edge">
<title>ast.Name object at 0x75403317de50&#45;&gt;ast.Load object at 0x7541153239d0</title>
<path fill="none" stroke="black" d="M918.44,-143.84C922.36,-125.6 926.41,-96.11 919,-72 915.99,-62.22 910.49,-52.62 904.68,-44.33"/>
<polygon fill="black" stroke="black" points="907.41,-42.13 898.61,-36.23 901.81,-46.33 907.41,-42.13"/>
</g>
<!-- ast.Call object at 0x75403317ef50 -->
<g id="node33" class="node">
<title>ast.Call object at 0x75403317ef50</title>
<path fill="#66cdaa" stroke="black" d="M1011,-252C1011,-252 981,-252 981,-252 975,-252 969,-246 969,-240 969,-240 969,-228 969,-228 969,-222 975,-216 981,-216 981,-216 1011,-216 1011,-216 1017,-216 1023,-222 1023,-228 1023,-228 1023,-240 1023,-240 1023,-246 1017,-252 1011,-252"/>
<text text-anchor="middle" x="996" y="-230.3" font-family="Times,serif" font-size="14.00">Call</text>
</g>
<!-- ast.Expr object at 0x75403317c890&#45;&gt;ast.Call object at 0x75403317ef50 -->
<g id="edge41" class="edge">
<title>ast.Expr object at 0x75403317c890&#45;&gt;ast.Call object at 0x75403317ef50</title>
<path fill="none" stroke="black" d="M955.35,-287.7C961.76,-279.39 969.56,-269.28 976.61,-260.14"/>
<polygon fill="black" stroke="black" points="979.47,-262.16 982.81,-252.1 973.93,-257.88 979.47,-262.16"/>
</g>
<!-- ast.Attribute object at 0x75403317e910 -->
<g id="node34" class="node">
<title>ast.Attribute object at 0x75403317e910</title>
<path fill="#66cdaa" stroke="black" d="M1016.5,-180C1016.5,-180 975.5,-180 975.5,-180 969.5,-180 963.5,-174 963.5,-168 963.5,-168 963.5,-156 963.5,-156 963.5,-150 969.5,-144 975.5,-144 975.5,-144 1016.5,-144 1016.5,-144 1022.5,-144 1028.5,-150 1028.5,-156 1028.5,-156 1028.5,-168 1028.5,-168 1028.5,-174 1022.5,-180 1016.5,-180"/>
<text text-anchor="middle" x="996" y="-158.3" font-family="Times,serif" font-size="14.00">Attribute</text>
</g>
<!-- ast.Call object at 0x75403317ef50&#45;&gt;ast.Attribute object at 0x75403317e910 -->
<g id="edge42" class="edge">
<title>ast.Call object at 0x75403317ef50&#45;&gt;ast.Attribute object at 0x75403317e910</title>
<path fill="none" stroke="black" d="M996,-215.7C996,-207.98 996,-198.71 996,-190.11"/>
<polygon fill="black" stroke="black" points="999.5,-190.1 996,-180.1 992.5,-190.1 999.5,-190.1"/>
</g>
<!-- ast.Name object at 0x75406060b090 -->
<g id="node36" class="node">
<title>ast.Name object at 0x75406060b090</title>
<path fill="#66cdaa" stroke="black" d="M1091,-180C1091,-180 1061,-180 1061,-180 1055,-180 1049,-174 1049,-168 1049,-168 1049,-156 1049,-156 1049,-150 1055,-144 1061,-144 1061,-144 1091,-144 1091,-144 1097,-144 1103,-150 1103,-156 1103,-156 1103,-168 1103,-168 1103,-174 1097,-180 1091,-180"/>
<text text-anchor="middle" x="1076" y="-158.3" font-family="Times,serif" font-size="14.00">Name</text>
</g>
<!-- ast.Call object at 0x75403317ef50&#45;&gt;ast.Name object at 0x75406060b090 -->
<g id="edge46" class="edge">
<title>ast.Call object at 0x75403317ef50&#45;&gt;ast.Name object at 0x75406060b090</title>
<path fill="none" stroke="black" d="M1015.78,-215.7C1025.75,-206.97 1038.01,-196.24 1048.86,-186.75"/>
<polygon fill="black" stroke="black" points="1051.23,-189.32 1056.45,-180.1 1046.62,-184.06 1051.23,-189.32"/>
</g>
<!-- ast.Attribute object at 0x75403317e910&#45;&gt;ast.Load object at 0x7541153239d0 -->
<g id="edge45" class="edge">
<title>ast.Attribute object at 0x75403317e910&#45;&gt;ast.Load object at 0x7541153239d0</title>
<path fill="none" stroke="black" d="M985.85,-143.92C974.59,-125.48 955.44,-95.58 936,-72 927.79,-62.04 917.98,-51.83 909.05,-43.08"/>
<polygon fill="black" stroke="black" points="911.43,-40.51 901.8,-36.1 906.58,-45.55 911.43,-40.51"/>
</g>
<!-- ast.Name object at 0x75406060ad10 -->
<g id="node35" class="node">
<title>ast.Name object at 0x75406060ad10</title>
<path fill="#66cdaa" stroke="black" d="M1046,-108C1046,-108 1016,-108 1016,-108 1010,-108 1004,-102 1004,-96 1004,-96 1004,-84 1004,-84 1004,-78 1010,-72 1016,-72 1016,-72 1046,-72 1046,-72 1052,-72 1058,-78 1058,-84 1058,-84 1058,-96 1058,-96 1058,-102 1052,-108 1046,-108"/>
<text text-anchor="middle" x="1031" y="-86.3" font-family="Times,serif" font-size="14.00">Name</text>
</g>
<!-- ast.Attribute object at 0x75403317e910&#45;&gt;ast.Name object at 0x75406060ad10 -->
<g id="edge43" class="edge">
<title>ast.Attribute object at 0x75403317e910&#45;&gt;ast.Name object at 0x75406060ad10</title>
<path fill="none" stroke="black" d="M1004.65,-143.7C1008.64,-135.73 1013.45,-126.1 1017.87,-117.26"/>
<polygon fill="black" stroke="black" points="1021.11,-118.61 1022.45,-108.1 1014.85,-115.48 1021.11,-118.61"/>
</g>
<!-- ast.Name object at 0x75406060ad10&#45;&gt;ast.Load object at 0x7541153239d0 -->
<g id="edge44" class="edge">
<title>ast.Name object at 0x75406060ad10&#45;&gt;ast.Load object at 0x7541153239d0</title>
<path fill="none" stroke="black" d="M1003.85,-76.16C980.15,-64.95 945.54,-48.58 919.42,-36.23"/>
<polygon fill="black" stroke="black" points="920.76,-32.99 910.22,-31.88 917.77,-39.32 920.76,-32.99"/>
</g>
<!-- ast.Name object at 0x75406060b090&#45;&gt;ast.Load object at 0x7541153239d0 -->
<g id="edge47" class="edge">
<title>ast.Name object at 0x75406060b090&#45;&gt;ast.Load object at 0x7541153239d0</title>
<path fill="none" stroke="black" d="M1079.47,-143.78C1082.37,-124.1 1083.72,-92.03 1067,-72 1031.16,-29.06 962.96,-19.67 920.41,-18.28"/>
<polygon fill="black" stroke="black" points="920.24,-14.77 910.18,-18.08 920.11,-21.77 920.24,-14.77"/>
</g>
<!-- ast.Call object at 0x754049860710 -->
<g id="node38" class="node">
<title>ast.Call object at 0x754049860710</title>
<path fill="#66cdaa" stroke="black" d="M1170,-252C1170,-252 1140,-252 1140,-252 1134,-252 1128,-246 1128,-240 1128,-240 1128,-228 1128,-228 1128,-222 1134,-216 1140,-216 1140,-216 1170,-216 1170,-216 1176,-216 1182,-222 1182,-228 1182,-228 1182,-240 1182,-240 1182,-246 1176,-252 1170,-252"/>
<text text-anchor="middle" x="1155" y="-230.3" font-family="Times,serif" font-size="14.00">Call</text>
</g>
<!-- ast.Expr object at 0x754049861350&#45;&gt;ast.Call object at 0x754049860710 -->
<g id="edge49" class="edge">
<title>ast.Expr object at 0x754049861350&#45;&gt;ast.Call object at 0x754049860710</title>
<path fill="none" stroke="black" d="M1101.55,-287.7C1110.23,-279.14 1120.86,-268.66 1130.35,-259.3"/>
<polygon fill="black" stroke="black" points="1132.99,-261.62 1137.65,-252.1 1128.07,-256.63 1132.99,-261.62"/>
</g>
<!-- ast.Attribute object at 0x75403f213a90 -->
<g id="node39" class="node">
<title>ast.Attribute object at 0x75403f213a90</title>
<path fill="#66cdaa" stroke="black" d="M1175.5,-180C1175.5,-180 1134.5,-180 1134.5,-180 1128.5,-180 1122.5,-174 1122.5,-168 1122.5,-168 1122.5,-156 1122.5,-156 1122.5,-150 1128.5,-144 1134.5,-144 1134.5,-144 1175.5,-144 1175.5,-144 1181.5,-144 1187.5,-150 1187.5,-156 1187.5,-156 1187.5,-168 1187.5,-168 1187.5,-174 1181.5,-180 1175.5,-180"/>
<text text-anchor="middle" x="1155" y="-158.3" font-family="Times,serif" font-size="14.00">Attribute</text>
</g>
<!-- ast.Call object at 0x754049860710&#45;&gt;ast.Attribute object at 0x75403f213a90 -->
<g id="edge50" class="edge">
<title>ast.Call object at 0x754049860710&#45;&gt;ast.Attribute object at 0x75403f213a90</title>
<path fill="none" stroke="black" d="M1155,-215.7C1155,-207.98 1155,-198.71 1155,-190.11"/>
<polygon fill="black" stroke="black" points="1158.5,-190.1 1155,-180.1 1151.5,-190.1 1158.5,-190.1"/>
</g>
<!-- ast.Name object at 0x7540324a7850 -->
<g id="node41" class="node">
<title>ast.Name object at 0x7540324a7850</title>
<path fill="#66cdaa" stroke="black" d="M1248,-180C1248,-180 1218,-180 1218,-180 1212,-180 1206,-174 1206,-168 1206,-168 1206,-156 1206,-156 1206,-150 1212,-144 1218,-144 1218,-144 1248,-144 1248,-144 1254,-144 1260,-150 1260,-156 1260,-156 1260,-168 1260,-168 1260,-174 1254,-180 1248,-180"/>
<text text-anchor="middle" x="1233" y="-158.3" font-family="Times,serif" font-size="14.00">Name</text>
</g>
<!-- ast.Call object at 0x754049860710&#45;&gt;ast.Name object at 0x7540324a7850 -->
<g id="edge54" class="edge">
<title>ast.Call object at 0x754049860710&#45;&gt;ast.Name object at 0x7540324a7850</title>
<path fill="none" stroke="black" d="M1174.28,-215.7C1183.92,-207.05 1195.73,-196.45 1206.23,-187.03"/>
<polygon fill="black" stroke="black" points="1208.84,-189.39 1213.94,-180.1 1204.16,-184.18 1208.84,-189.39"/>
</g>
<!-- ast.Attribute object at 0x75403f213a90&#45;&gt;ast.Load object at 0x7541153239d0 -->
<g id="edge53" class="edge">
<title>ast.Attribute object at 0x75403f213a90&#45;&gt;ast.Load object at 0x7541153239d0</title>
<path fill="none" stroke="black" d="M1146.65,-143.8C1135.91,-123.52 1115.33,-90.27 1088,-72 1036.47,-37.56 963.9,-25.49 920.35,-21.27"/>
<polygon fill="black" stroke="black" points="920.47,-17.77 910.2,-20.38 919.85,-24.74 920.47,-17.77"/>
</g>
<!-- ast.Name object at 0x7540324a6690 -->
<g id="node40" class="node">
<title>ast.Name object at 0x7540324a6690</title>
<path fill="#66cdaa" stroke="black" d="M1194,-108C1194,-108 1164,-108 1164,-108 1158,-108 1152,-102 1152,-96 1152,-96 1152,-84 1152,-84 1152,-78 1158,-72 1164,-72 1164,-72 1194,-72 1194,-72 1200,-72 1206,-78 1206,-84 1206,-84 1206,-96 1206,-96 1206,-102 1200,-108 1194,-108"/>
<text text-anchor="middle" x="1179" y="-86.3" font-family="Times,serif" font-size="14.00">Name</text>
</g>
<!-- ast.Attribute object at 0x75403f213a90&#45;&gt;ast.Name object at 0x7540324a6690 -->
<g id="edge51" class="edge">
<title>ast.Attribute object at 0x75403f213a90&#45;&gt;ast.Name object at 0x7540324a6690</title>
<path fill="none" stroke="black" d="M1160.93,-143.7C1163.61,-135.9 1166.83,-126.51 1169.8,-117.83"/>
<polygon fill="black" stroke="black" points="1173.2,-118.7 1173.14,-108.1 1166.58,-116.43 1173.2,-118.7"/>
</g>
<!-- ast.Name object at 0x7540324a6690&#45;&gt;ast.Load object at 0x7541153239d0 -->
<g id="edge52" class="edge">
<title>ast.Name object at 0x7540324a6690&#45;&gt;ast.Load object at 0x7541153239d0</title>
<path fill="none" stroke="black" d="M1151.92,-76.93C1147.32,-75.13 1142.57,-73.41 1138,-72 1062.16,-48.62 970.45,-32.39 920.28,-24.49"/>
<polygon fill="black" stroke="black" points="920.64,-21 910.22,-22.93 919.57,-27.92 920.64,-21"/>
</g>
<!-- ast.Name object at 0x7540324a7850&#45;&gt;ast.Load object at 0x7541153239d0 -->
<g id="edge55" class="edge">
<title>ast.Name object at 0x7540324a7850&#45;&gt;ast.Load object at 0x7541153239d0</title>
<path fill="none" stroke="black" d="M1234.82,-143.9C1235.93,-123.71 1234.34,-90.56 1215,-72 1173.37,-32.05 998.03,-22.2 920.33,-19.78"/>
<polygon fill="black" stroke="black" points="920.14,-16.27 910.04,-19.48 919.94,-23.27 920.14,-16.27"/>
</g>
<!-- ast.Name object at 0x7540324a5a50 -->
<g id="node43" class="node">
<title>ast.Name object at 0x7540324a5a50</title>
<path fill="#66cdaa" stroke="black" d="M1304,-108C1304,-108 1274,-108 1274,-108 1268,-108 1262,-102 1262,-96 1262,-96 1262,-84 1262,-84 1262,-78 1268,-72 1274,-72 1274,-72 1304,-72 1304,-72 1310,-72 1316,-78 1316,-84 1316,-84 1316,-96 1316,-96 1316,-102 1310,-108 1304,-108"/>
<text text-anchor="middle" x="1289" y="-86.3" font-family="Times,serif" font-size="14.00">Name</text>
</g>
<!-- ast.Return object at 0x7540324a5590&#45;&gt;ast.Name object at 0x7540324a5a50 -->
<g id="edge57" class="edge">
<title>ast.Return object at 0x7540324a5590&#45;&gt;ast.Name object at 0x7540324a5a50</title>
<path fill="none" stroke="black" d="M1229.31,-287.87C1239.28,-264.02 1257.25,-219.32 1269,-180 1275.11,-159.55 1280.33,-135.96 1283.9,-118.21"/>
<polygon fill="black" stroke="black" points="1287.37,-118.73 1285.86,-108.24 1280.5,-117.38 1287.37,-118.73"/>
</g>
<!-- ast.Name object at 0x7540324a5a50&#45;&gt;ast.Load object at 0x7541153239d0 -->
<g id="edge58" class="edge">
<title>ast.Name object at 0x7540324a5a50&#45;&gt;ast.Load object at 0x7541153239d0</title>
<path fill="none" stroke="black" d="M1261.99,-76.69C1257.39,-74.92 1252.61,-73.27 1248,-72 1130.8,-39.74 986.7,-26.18 920.05,-21.33"/>
<polygon fill="black" stroke="black" points="920.25,-17.83 910.03,-20.62 919.76,-24.81 920.25,-17.83"/>
</g>
</g>
</svg>
