<?xml version="1.0" encoding="UTF-8" standalone="no"?>
<!DOCTYPE svg PUBLIC "-//W3C//DTD SVG 1.1//EN"
 "http://www.w3.org/Graphics/SVG/1.1/DTD/svg11.dtd">
<!-- Generated by graphviz version 2.50.0 (0)
 -->
<!-- Pages: 1 -->
<svg width="616pt" height="764pt"
 viewBox="0.00 0.00 615.50 764.00" xmlns="http://www.w3.org/2000/svg" xmlns:xlink="http://www.w3.org/1999/xlink">
<g id="graph0" class="graph" transform="scale(1 1) rotate(0) translate(4 760)">
<polygon fill="white" stroke="transparent" points="-4,4 -4,-760 611.5,-760 611.5,4 -4,4"/>
<!-- ast.Module object at 0x73d7750b2990 -->
<g id="node1" class="node">
<title>ast.Module object at 0x73d7750b2990</title>
<path fill="#66cdaa" stroke="black" d="M342,-756C342,-756 307,-756 307,-756 301,-756 295,-750 295,-744 295,-744 295,-732 295,-732 295,-726 301,-720 307,-720 307,-720 342,-720 342,-720 348,-720 354,-726 354,-732 354,-732 354,-744 354,-744 354,-750 348,-756 342,-756"/>
<text text-anchor="middle" x="324.5" y="-734.3" font-family="Times,serif" font-size="14.00">Module</text>
</g>
<!-- ast.FunctionDef object at 0x73d7750b3b10 -->
<g id="node2" class="node">
<title>ast.FunctionDef object at 0x73d7750b3b10</title>
<path fill="#66cdaa" stroke="black" d="M355,-684C355,-684 294,-684 294,-684 288,-684 282,-678 282,-672 282,-672 282,-660 282,-660 282,-654 288,-648 294,-648 294,-648 355,-648 355,-648 361,-648 367,-654 367,-660 367,-660 367,-672 367,-672 367,-678 361,-684 355,-684"/>
<text text-anchor="middle" x="324.5" y="-662.3" font-family="Times,serif" font-size="14.00">FunctionDef</text>
</g>
<!-- ast.Module object at 0x73d7750b2990&#45;&gt;ast.FunctionDef object at 0x73d7750b3b10 -->
<g id="edge1" class="edge">
<title>ast.Module object at 0x73d7750b2990&#45;&gt;ast.FunctionDef object at 0x73d7750b3b10</title>
<path fill="none" stroke="black" d="M324.5,-719.7C324.5,-711.98 324.5,-702.71 324.5,-694.11"/>
<polygon fill="black" stroke="black" points="328,-694.1 324.5,-684.1 321,-694.1 328,-694.1"/>
</g>
<!-- ast.arguments object at 0x73d775112e10 -->
<g id="node3" class="node">
<title>ast.arguments object at 0x73d775112e10</title>
<path fill="#66cdaa" stroke="black" d="M308.5,-612C308.5,-612 258.5,-612 258.5,-612 252.5,-612 246.5,-606 246.5,-600 246.5,-600 246.5,-588 246.5,-588 246.5,-582 252.5,-576 258.5,-576 258.5,-576 308.5,-576 308.5,-576 314.5,-576 320.5,-582 320.5,-588 320.5,-588 320.5,-600 320.5,-600 320.5,-606 314.5,-612 308.5,-612"/>
<text text-anchor="middle" x="283.5" y="-590.3" font-family="Times,serif" font-size="14.00">arguments</text>
</g>
<!-- ast.FunctionDef object at 0x73d7750b3b10&#45;&gt;ast.arguments object at 0x73d775112e10 -->
<g id="edge2" class="edge">
<title>ast.FunctionDef object at 0x73d7750b3b10&#45;&gt;ast.arguments object at 0x73d775112e10</title>
<path fill="none" stroke="black" d="M314.37,-647.7C309.65,-639.64 303.94,-629.89 298.72,-620.98"/>
<polygon fill="black" stroke="black" points="301.59,-618.96 293.52,-612.1 295.55,-622.5 301.59,-618.96"/>
</g>
<!-- ast.Try object at 0x73d774f710d0 -->
<g id="node5" class="node">
<title>ast.Try object at 0x73d774f710d0</title>
<path fill="#66cdaa" stroke="black" d="M380.5,-612C380.5,-612 350.5,-612 350.5,-612 344.5,-612 338.5,-606 338.5,-600 338.5,-600 338.5,-588 338.5,-588 338.5,-582 344.5,-576 350.5,-576 350.5,-576 380.5,-576 380.5,-576 386.5,-576 392.5,-582 392.5,-588 392.5,-588 392.5,-600 392.5,-600 392.5,-606 386.5,-612 380.5,-612"/>
<text text-anchor="middle" x="365.5" y="-590.3" font-family="Times,serif" font-size="14.00">Try</text>
</g>
<!-- ast.FunctionDef object at 0x73d7750b3b10&#45;&gt;ast.Try object at 0x73d774f710d0 -->
<g id="edge4" class="edge">
<title>ast.FunctionDef object at 0x73d7750b3b10&#45;&gt;ast.Try object at 0x73d774f710d0</title>
<path fill="none" stroke="black" d="M334.63,-647.7C339.35,-639.64 345.06,-629.89 350.28,-620.98"/>
<polygon fill="black" stroke="black" points="353.45,-622.5 355.48,-612.1 347.41,-618.96 353.45,-622.5"/>
</g>
<!-- ast.arg object at 0x73d775110710 -->
<g id="node4" class="node">
<title>ast.arg object at 0x73d775110710</title>
<path fill="#66cdaa" stroke="black" d="M298.5,-540C298.5,-540 268.5,-540 268.5,-540 262.5,-540 256.5,-534 256.5,-528 256.5,-528 256.5,-516 256.5,-516 256.5,-510 262.5,-504 268.5,-504 268.5,-504 298.5,-504 298.5,-504 304.5,-504 310.5,-510 310.5,-516 310.5,-516 310.5,-528 310.5,-528 310.5,-534 304.5,-540 298.5,-540"/>
<text text-anchor="middle" x="283.5" y="-518.3" font-family="Times,serif" font-size="14.00">arg</text>
</g>
<!-- ast.arguments object at 0x73d775112e10&#45;&gt;ast.arg object at 0x73d775110710 -->
<g id="edge3" class="edge">
<title>ast.arguments object at 0x73d775112e10&#45;&gt;ast.arg object at 0x73d775110710</title>
<path fill="none" stroke="black" d="M283.5,-575.7C283.5,-567.98 283.5,-558.71 283.5,-550.11"/>
<polygon fill="black" stroke="black" points="287,-550.1 283.5,-540.1 280,-550.1 287,-550.1"/>
</g>
<!-- ast.Return object at 0x73d774f73c90 -->
<g id="node6" class="node">
<title>ast.Return object at 0x73d774f73c90</title>
<path fill="#66cdaa" stroke="black" d="M375.5,-540C375.5,-540 345.5,-540 345.5,-540 339.5,-540 333.5,-534 333.5,-528 333.5,-528 333.5,-516 333.5,-516 333.5,-510 339.5,-504 345.5,-504 345.5,-504 375.5,-504 375.5,-504 381.5,-504 387.5,-510 387.5,-516 387.5,-516 387.5,-528 387.5,-528 387.5,-534 381.5,-540 375.5,-540"/>
<text text-anchor="middle" x="360.5" y="-518.3" font-family="Times,serif" font-size="14.00">Return</text>
</g>
<!-- ast.Try object at 0x73d774f710d0&#45;&gt;ast.Return object at 0x73d774f73c90 -->
<g id="edge5" class="edge">
<title>ast.Try object at 0x73d774f710d0&#45;&gt;ast.Return object at 0x73d774f73c90</title>
<path fill="none" stroke="black" d="M364.26,-575.7C363.71,-567.98 363.05,-558.71 362.44,-550.11"/>
<polygon fill="black" stroke="black" points="365.93,-549.83 361.72,-540.1 358.94,-550.33 365.93,-549.83"/>
</g>
<!-- ast.ExceptHandler object at 0x73d774f59fd0 -->
<g id="node27" class="node">
<title>ast.ExceptHandler object at 0x73d774f59fd0</title>
<path fill="#66cdaa" stroke="black" d="M495.5,-540C495.5,-540 421.5,-540 421.5,-540 415.5,-540 409.5,-534 409.5,-528 409.5,-528 409.5,-516 409.5,-516 409.5,-510 415.5,-504 421.5,-504 421.5,-504 495.5,-504 495.5,-504 501.5,-504 507.5,-510 507.5,-516 507.5,-516 507.5,-528 507.5,-528 507.5,-534 501.5,-540 495.5,-540"/>
<text text-anchor="middle" x="458.5" y="-518.3" font-family="Times,serif" font-size="14.00">ExceptHandler</text>
</g>
<!-- ast.Try object at 0x73d774f710d0&#45;&gt;ast.ExceptHandler object at 0x73d774f59fd0 -->
<g id="edge30" class="edge">
<title>ast.Try object at 0x73d774f710d0&#45;&gt;ast.ExceptHandler object at 0x73d774f59fd0</title>
<path fill="none" stroke="black" d="M388.49,-575.7C400.31,-566.8 414.89,-555.82 427.68,-546.2"/>
<polygon fill="black" stroke="black" points="429.89,-548.91 435.78,-540.1 425.68,-543.32 429.89,-548.91"/>
</g>
<!-- ast.Call object at 0x73d774f71090 -->
<g id="node7" class="node">
<title>ast.Call object at 0x73d774f71090</title>
<path fill="#66cdaa" stroke="black" d="M372.5,-468C372.5,-468 342.5,-468 342.5,-468 336.5,-468 330.5,-462 330.5,-456 330.5,-456 330.5,-444 330.5,-444 330.5,-438 336.5,-432 342.5,-432 342.5,-432 372.5,-432 372.5,-432 378.5,-432 384.5,-438 384.5,-444 384.5,-444 384.5,-456 384.5,-456 384.5,-462 378.5,-468 372.5,-468"/>
<text text-anchor="middle" x="357.5" y="-446.3" font-family="Times,serif" font-size="14.00">Call</text>
</g>
<!-- ast.Return object at 0x73d774f73c90&#45;&gt;ast.Call object at 0x73d774f71090 -->
<g id="edge6" class="edge">
<title>ast.Return object at 0x73d774f73c90&#45;&gt;ast.Call object at 0x73d774f71090</title>
<path fill="none" stroke="black" d="M359.76,-503.7C359.43,-495.98 359.03,-486.71 358.66,-478.11"/>
<polygon fill="black" stroke="black" points="362.16,-477.95 358.23,-468.1 355.16,-478.25 362.16,-477.95"/>
</g>
<!-- ast.Name object at 0x73d774f73f10 -->
<g id="node8" class="node">
<title>ast.Name object at 0x73d774f73f10</title>
<path fill="#66cdaa" stroke="black" d="M161.5,-252C161.5,-252 131.5,-252 131.5,-252 125.5,-252 119.5,-246 119.5,-240 119.5,-240 119.5,-228 119.5,-228 119.5,-222 125.5,-216 131.5,-216 131.5,-216 161.5,-216 161.5,-216 167.5,-216 173.5,-222 173.5,-228 173.5,-228 173.5,-240 173.5,-240 173.5,-246 167.5,-252 161.5,-252"/>
<text text-anchor="middle" x="146.5" y="-230.3" font-family="Times,serif" font-size="14.00">Name</text>
</g>
<!-- ast.Call object at 0x73d774f71090&#45;&gt;ast.Name object at 0x73d774f73f10 -->
<g id="edge7" class="edge">
<title>ast.Call object at 0x73d774f71090&#45;&gt;ast.Name object at 0x73d774f73f10</title>
<path fill="none" stroke="black" d="M339.52,-431.97C328.7,-421.65 314.71,-408.17 302.5,-396 254.74,-348.37 200.15,-291.44 169.86,-259.63"/>
<polygon fill="black" stroke="black" points="172.13,-256.94 162.71,-252.11 167.06,-261.77 172.13,-256.94"/>
</g>
<!-- ast.GeneratorExp object at 0x73d774f73d10 -->
<g id="node10" class="node">
<title>ast.GeneratorExp object at 0x73d774f73d10</title>
<path fill="#66cdaa" stroke="black" d="M391.5,-396C391.5,-396 323.5,-396 323.5,-396 317.5,-396 311.5,-390 311.5,-384 311.5,-384 311.5,-372 311.5,-372 311.5,-366 317.5,-360 323.5,-360 323.5,-360 391.5,-360 391.5,-360 397.5,-360 403.5,-366 403.5,-372 403.5,-372 403.5,-384 403.5,-384 403.5,-390 397.5,-396 391.5,-396"/>
<text text-anchor="middle" x="357.5" y="-374.3" font-family="Times,serif" font-size="14.00">GeneratorExp</text>
</g>
<!-- ast.Call object at 0x73d774f71090&#45;&gt;ast.GeneratorExp object at 0x73d774f73d10 -->
<g id="edge9" class="edge">
<title>ast.Call object at 0x73d774f71090&#45;&gt;ast.GeneratorExp object at 0x73d774f73d10</title>
<path fill="none" stroke="black" d="M357.5,-431.7C357.5,-423.98 357.5,-414.71 357.5,-406.11"/>
<polygon fill="black" stroke="black" points="361,-406.1 357.5,-396.1 354,-406.1 361,-406.1"/>
</g>
<!-- ast.Load object at 0x73d867a3ba90 -->
<g id="node9" class="node">
<title>ast.Load object at 0x73d867a3ba90</title>
<path fill="#66cdaa" stroke="black" d="M401.5,-36C401.5,-36 371.5,-36 371.5,-36 365.5,-36 359.5,-30 359.5,-24 359.5,-24 359.5,-12 359.5,-12 359.5,-6 365.5,0 371.5,0 371.5,0 401.5,0 401.5,0 407.5,0 413.5,-6 413.5,-12 413.5,-12 413.5,-24 413.5,-24 413.5,-30 407.5,-36 401.5,-36"/>
<text text-anchor="middle" x="386.5" y="-14.3" font-family="Times,serif" font-size="14.00">Load</text>
</g>
<!-- ast.Name object at 0x73d774f73f10&#45;&gt;ast.Load object at 0x73d867a3ba90 -->
<g id="edge8" class="edge">
<title>ast.Name object at 0x73d774f73f10&#45;&gt;ast.Load object at 0x73d867a3ba90</title>
<path fill="none" stroke="black" d="M142.32,-215.79C135.45,-182.8 126.07,-110.53 164.5,-72 190.13,-46.3 292.76,-30.24 349.06,-23.19"/>
<polygon fill="black" stroke="black" points="349.84,-26.62 359.34,-21.93 348.99,-19.67 349.84,-26.62"/>
</g>
<!-- ast.Name object at 0x73d774f73910 -->
<g id="node11" class="node">
<title>ast.Name object at 0x73d774f73910</title>
<path fill="#66cdaa" stroke="black" d="M485.5,-324C485.5,-324 455.5,-324 455.5,-324 449.5,-324 443.5,-318 443.5,-312 443.5,-312 443.5,-300 443.5,-300 443.5,-294 449.5,-288 455.5,-288 455.5,-288 485.5,-288 485.5,-288 491.5,-288 497.5,-294 497.5,-300 497.5,-300 497.5,-312 497.5,-312 497.5,-318 491.5,-324 485.5,-324"/>
<text text-anchor="middle" x="470.5" y="-302.3" font-family="Times,serif" font-size="14.00">Name</text>
</g>
<!-- ast.GeneratorExp object at 0x73d774f73d10&#45;&gt;ast.Name object at 0x73d774f73910 -->
<g id="edge10" class="edge">
<title>ast.GeneratorExp object at 0x73d774f73d10&#45;&gt;ast.Name object at 0x73d774f73910</title>
<path fill="none" stroke="black" d="M385.14,-359.88C400.03,-350.66 418.57,-339.17 434.56,-329.26"/>
<polygon fill="black" stroke="black" points="436.48,-332.19 443.14,-323.95 432.8,-326.24 436.48,-332.19"/>
</g>
<!-- ast.comprehension object at 0x73d774f72910 -->
<g id="node12" class="node">
<title>ast.comprehension object at 0x73d774f72910</title>
<path fill="#66cdaa" stroke="black" d="M336.5,-324C336.5,-324 260.5,-324 260.5,-324 254.5,-324 248.5,-318 248.5,-312 248.5,-312 248.5,-300 248.5,-300 248.5,-294 254.5,-288 260.5,-288 260.5,-288 336.5,-288 336.5,-288 342.5,-288 348.5,-294 348.5,-300 348.5,-300 348.5,-312 348.5,-312 348.5,-318 342.5,-324 336.5,-324"/>
<text text-anchor="middle" x="298.5" y="-302.3" font-family="Times,serif" font-size="14.00">comprehension</text>
</g>
<!-- ast.GeneratorExp object at 0x73d774f73d10&#45;&gt;ast.comprehension object at 0x73d774f72910 -->
<g id="edge12" class="edge">
<title>ast.GeneratorExp object at 0x73d774f73d10&#45;&gt;ast.comprehension object at 0x73d774f72910</title>
<path fill="none" stroke="black" d="M342.92,-359.7C335.84,-351.3 327.22,-341.07 319.45,-331.86"/>
<polygon fill="black" stroke="black" points="322.04,-329.49 312.92,-324.1 316.69,-334.01 322.04,-329.49"/>
</g>
<!-- ast.Name object at 0x73d774f73910&#45;&gt;ast.Load object at 0x73d867a3ba90 -->
<g id="edge11" class="edge">
<title>ast.Name object at 0x73d774f73910&#45;&gt;ast.Load object at 0x73d867a3ba90</title>
<path fill="none" stroke="black" d="M484,-287.82C514.47,-246.81 582.28,-141.44 533.5,-72 508.91,-36.99 458.84,-25 424.01,-20.96"/>
<polygon fill="black" stroke="black" points="424.03,-17.44 413.73,-19.94 423.34,-24.41 424.03,-17.44"/>
</g>
<!-- ast.Name object at 0x73d774f72c10 -->
<g id="node13" class="node">
<title>ast.Name object at 0x73d774f72c10</title>
<path fill="#66cdaa" stroke="black" d="M294.5,-252C294.5,-252 264.5,-252 264.5,-252 258.5,-252 252.5,-246 252.5,-240 252.5,-240 252.5,-228 252.5,-228 252.5,-222 258.5,-216 264.5,-216 264.5,-216 294.5,-216 294.5,-216 300.5,-216 306.5,-222 306.5,-228 306.5,-228 306.5,-240 306.5,-240 306.5,-246 300.5,-252 294.5,-252"/>
<text text-anchor="middle" x="279.5" y="-230.3" font-family="Times,serif" font-size="14.00">Name</text>
</g>
<!-- ast.comprehension object at 0x73d774f72910&#45;&gt;ast.Name object at 0x73d774f72c10 -->
<g id="edge13" class="edge">
<title>ast.comprehension object at 0x73d774f72910&#45;&gt;ast.Name object at 0x73d774f72c10</title>
<path fill="none" stroke="black" d="M293.8,-287.7C291.69,-279.9 289.14,-270.51 286.78,-261.83"/>
<polygon fill="black" stroke="black" points="290.14,-260.84 284.14,-252.1 283.38,-262.67 290.14,-260.84"/>
</g>
<!-- ast.Subscript object at 0x73d774f56450 -->
<g id="node15" class="node">
<title>ast.Subscript object at 0x73d774f56450</title>
<path fill="#66cdaa" stroke="black" d="M212.5,-180C212.5,-180 168.5,-180 168.5,-180 162.5,-180 156.5,-174 156.5,-168 156.5,-168 156.5,-156 156.5,-156 156.5,-150 162.5,-144 168.5,-144 168.5,-144 212.5,-144 212.5,-144 218.5,-144 224.5,-150 224.5,-156 224.5,-156 224.5,-168 224.5,-168 224.5,-174 218.5,-180 212.5,-180"/>
<text text-anchor="middle" x="190.5" y="-158.3" font-family="Times,serif" font-size="14.00">Subscript</text>
</g>
<!-- ast.comprehension object at 0x73d774f72910&#45;&gt;ast.Subscript object at 0x73d774f56450 -->
<g id="edge15" class="edge">
<title>ast.comprehension object at 0x73d774f72910&#45;&gt;ast.Subscript object at 0x73d774f56450</title>
<path fill="none" stroke="black" d="M278.12,-287.77C267.15,-277.93 253.8,-264.99 243.5,-252 227.89,-232.32 213.54,-207.63 203.72,-189.25"/>
<polygon fill="black" stroke="black" points="206.76,-187.5 199.01,-180.27 200.56,-190.75 206.76,-187.5"/>
</g>
<!-- ast.Compare object at 0x73d774f59d10 -->
<g id="node20" class="node">
<title>ast.Compare object at 0x73d774f59d10</title>
<path fill="#66cdaa" stroke="black" d="M406,-252C406,-252 363,-252 363,-252 357,-252 351,-246 351,-240 351,-240 351,-228 351,-228 351,-222 357,-216 363,-216 363,-216 406,-216 406,-216 412,-216 418,-222 418,-228 418,-228 418,-240 418,-240 418,-246 412,-252 406,-252"/>
<text text-anchor="middle" x="384.5" y="-230.3" font-family="Times,serif" font-size="14.00">Compare</text>
</g>
<!-- ast.comprehension object at 0x73d774f72910&#45;&gt;ast.Compare object at 0x73d774f59d10 -->
<g id="edge22" class="edge">
<title>ast.comprehension object at 0x73d774f72910&#45;&gt;ast.Compare object at 0x73d774f59d10</title>
<path fill="none" stroke="black" d="M319.76,-287.7C330.59,-278.88 343.92,-268.03 355.66,-258.47"/>
<polygon fill="black" stroke="black" points="357.94,-261.13 363.49,-252.1 353.52,-255.7 357.94,-261.13"/>
</g>
<!-- ast.Store object at 0x73d867a3bb10 -->
<g id="node14" class="node">
<title>ast.Store object at 0x73d867a3bb10</title>
<path fill="#66cdaa" stroke="black" d="M284.5,-180C284.5,-180 254.5,-180 254.5,-180 248.5,-180 242.5,-174 242.5,-168 242.5,-168 242.5,-156 242.5,-156 242.5,-150 248.5,-144 254.5,-144 254.5,-144 284.5,-144 284.5,-144 290.5,-144 296.5,-150 296.5,-156 296.5,-156 296.5,-168 296.5,-168 296.5,-174 290.5,-180 284.5,-180"/>
<text text-anchor="middle" x="269.5" y="-158.3" font-family="Times,serif" font-size="14.00">Store</text>
</g>
<!-- ast.Name object at 0x73d774f72c10&#45;&gt;ast.Store object at 0x73d867a3bb10 -->
<g id="edge14" class="edge">
<title>ast.Name object at 0x73d774f72c10&#45;&gt;ast.Store object at 0x73d867a3bb10</title>
<path fill="none" stroke="black" d="M277.03,-215.7C275.93,-207.98 274.6,-198.71 273.37,-190.11"/>
<polygon fill="black" stroke="black" points="276.82,-189.51 271.94,-180.1 269.89,-190.5 276.82,-189.51"/>
</g>
<!-- ast.Subscript object at 0x73d774f56450&#45;&gt;ast.Load object at 0x73d867a3ba90 -->
<g id="edge21" class="edge">
<title>ast.Subscript object at 0x73d774f56450&#45;&gt;ast.Load object at 0x73d867a3ba90</title>
<path fill="none" stroke="black" d="M211.73,-143.75C234.53,-125.43 271.98,-95.88 305.5,-72 320.01,-61.66 336.39,-50.8 350.6,-41.62"/>
<polygon fill="black" stroke="black" points="352.62,-44.49 359.14,-36.14 348.83,-38.6 352.62,-44.49"/>
</g>
<!-- ast.Name object at 0x73d774f58310 -->
<g id="node16" class="node">
<title>ast.Name object at 0x73d774f58310</title>
<path fill="#66cdaa" stroke="black" d="M215.5,-108C215.5,-108 185.5,-108 185.5,-108 179.5,-108 173.5,-102 173.5,-96 173.5,-96 173.5,-84 173.5,-84 173.5,-78 179.5,-72 185.5,-72 185.5,-72 215.5,-72 215.5,-72 221.5,-72 227.5,-78 227.5,-84 227.5,-84 227.5,-96 227.5,-96 227.5,-102 221.5,-108 215.5,-108"/>
<text text-anchor="middle" x="200.5" y="-86.3" font-family="Times,serif" font-size="14.00">Name</text>
</g>
<!-- ast.Subscript object at 0x73d774f56450&#45;&gt;ast.Name object at 0x73d774f58310 -->
<g id="edge16" class="edge">
<title>ast.Subscript object at 0x73d774f56450&#45;&gt;ast.Name object at 0x73d774f58310</title>
<path fill="none" stroke="black" d="M192.97,-143.7C194.07,-135.98 195.4,-126.71 196.63,-118.11"/>
<polygon fill="black" stroke="black" points="200.11,-118.5 198.06,-108.1 193.18,-117.51 200.11,-118.5"/>
</g>
<!-- ast.Slice object at 0x73d774f59ad0 -->
<g id="node17" class="node">
<title>ast.Slice object at 0x73d774f59ad0</title>
<path fill="#66cdaa" stroke="black" d="M88.5,-108C88.5,-108 58.5,-108 58.5,-108 52.5,-108 46.5,-102 46.5,-96 46.5,-96 46.5,-84 46.5,-84 46.5,-78 52.5,-72 58.5,-72 58.5,-72 88.5,-72 88.5,-72 94.5,-72 100.5,-78 100.5,-84 100.5,-84 100.5,-96 100.5,-96 100.5,-102 94.5,-108 88.5,-108"/>
<text text-anchor="middle" x="73.5" y="-86.3" font-family="Times,serif" font-size="14.00">Slice</text>
</g>
<!-- ast.Subscript object at 0x73d774f56450&#45;&gt;ast.Slice object at 0x73d774f59ad0 -->
<g id="edge18" class="edge">
<title>ast.Subscript object at 0x73d774f56450&#45;&gt;ast.Slice object at 0x73d774f59ad0</title>
<path fill="none" stroke="black" d="M161.88,-143.88C146.12,-134.45 126.42,-122.66 109.61,-112.61"/>
<polygon fill="black" stroke="black" points="111,-109.36 100.62,-107.23 107.4,-115.36 111,-109.36"/>
</g>
<!-- ast.Name object at 0x73d774f58310&#45;&gt;ast.Load object at 0x73d867a3ba90 -->
<g id="edge17" class="edge">
<title>ast.Name object at 0x73d774f58310&#45;&gt;ast.Load object at 0x73d867a3ba90</title>
<path fill="none" stroke="black" d="M227.55,-78.82C259.78,-66.69 313.79,-46.36 349.78,-32.82"/>
<polygon fill="black" stroke="black" points="351.3,-35.99 359.42,-29.19 348.83,-29.44 351.3,-35.99"/>
</g>
<!-- ast.Constant object at 0x73d774f59c50 -->
<g id="node18" class="node">
<title>ast.Constant object at 0x73d774f59c50</title>
<path fill="#66cdaa" stroke="black" d="M136,-36C136,-36 95,-36 95,-36 89,-36 83,-30 83,-24 83,-24 83,-12 83,-12 83,-6 89,0 95,0 95,0 136,0 136,0 142,0 148,-6 148,-12 148,-12 148,-24 148,-24 148,-30 142,-36 136,-36"/>
<text text-anchor="middle" x="115.5" y="-14.3" font-family="Times,serif" font-size="14.00">Constant</text>
</g>
<!-- ast.Slice object at 0x73d774f59ad0&#45;&gt;ast.Constant object at 0x73d774f59c50 -->
<g id="edge19" class="edge">
<title>ast.Slice object at 0x73d774f59ad0&#45;&gt;ast.Constant object at 0x73d774f59c50</title>
<path fill="none" stroke="black" d="M83.88,-71.7C88.76,-63.56 94.69,-53.69 100.08,-44.7"/>
<polygon fill="black" stroke="black" points="103.09,-46.48 105.24,-36.1 97.09,-42.88 103.09,-46.48"/>
</g>
<!-- ast.Constant object at 0x73d774f58390 -->
<g id="node19" class="node">
<title>ast.Constant object at 0x73d774f58390</title>
<path fill="#66cdaa" stroke="black" d="M53,-36C53,-36 12,-36 12,-36 6,-36 0,-30 0,-24 0,-24 0,-12 0,-12 0,-6 6,0 12,0 12,0 53,0 53,0 59,0 65,-6 65,-12 65,-12 65,-24 65,-24 65,-30 59,-36 53,-36"/>
<text text-anchor="middle" x="32.5" y="-14.3" font-family="Times,serif" font-size="14.00">Constant</text>
</g>
<!-- ast.Slice object at 0x73d774f59ad0&#45;&gt;ast.Constant object at 0x73d774f58390 -->
<g id="edge20" class="edge">
<title>ast.Slice object at 0x73d774f59ad0&#45;&gt;ast.Constant object at 0x73d774f58390</title>
<path fill="none" stroke="black" d="M63.37,-71.7C58.65,-63.64 52.94,-53.89 47.72,-44.98"/>
<polygon fill="black" stroke="black" points="50.59,-42.96 42.52,-36.1 44.55,-46.5 50.59,-42.96"/>
</g>
<!-- ast.BinOp object at 0x73d774f59dd0 -->
<g id="node21" class="node">
<title>ast.BinOp object at 0x73d774f59dd0</title>
<path fill="#66cdaa" stroke="black" d="M512.5,-180C512.5,-180 482.5,-180 482.5,-180 476.5,-180 470.5,-174 470.5,-168 470.5,-168 470.5,-156 470.5,-156 470.5,-150 476.5,-144 482.5,-144 482.5,-144 512.5,-144 512.5,-144 518.5,-144 524.5,-150 524.5,-156 524.5,-156 524.5,-168 524.5,-168 524.5,-174 518.5,-180 512.5,-180"/>
<text text-anchor="middle" x="497.5" y="-158.3" font-family="Times,serif" font-size="14.00">BinOp</text>
</g>
<!-- ast.Compare object at 0x73d774f59d10&#45;&gt;ast.BinOp object at 0x73d774f59dd0 -->
<g id="edge23" class="edge">
<title>ast.Compare object at 0x73d774f59d10&#45;&gt;ast.BinOp object at 0x73d774f59dd0</title>
<path fill="none" stroke="black" d="M412.14,-215.88C427.03,-206.66 445.57,-195.17 461.56,-185.26"/>
<polygon fill="black" stroke="black" points="463.48,-188.19 470.14,-179.95 459.8,-182.24 463.48,-188.19"/>
</g>
<!-- ast.Eq object at 0x73d867a48ad0 -->
<g id="node25" class="node">
<title>ast.Eq object at 0x73d867a48ad0</title>
<path fill="#66cdaa" stroke="black" d="M356.5,-180C356.5,-180 326.5,-180 326.5,-180 320.5,-180 314.5,-174 314.5,-168 314.5,-168 314.5,-156 314.5,-156 314.5,-150 320.5,-144 326.5,-144 326.5,-144 356.5,-144 356.5,-144 362.5,-144 368.5,-150 368.5,-156 368.5,-156 368.5,-168 368.5,-168 368.5,-174 362.5,-180 356.5,-180"/>
<text text-anchor="middle" x="341.5" y="-158.3" font-family="Times,serif" font-size="14.00">Eq</text>
</g>
<!-- ast.Compare object at 0x73d774f59d10&#45;&gt;ast.Eq object at 0x73d867a48ad0 -->
<g id="edge28" class="edge">
<title>ast.Compare object at 0x73d774f59d10&#45;&gt;ast.Eq object at 0x73d867a48ad0</title>
<path fill="none" stroke="black" d="M373.87,-215.7C368.87,-207.56 362.81,-197.69 357.29,-188.7"/>
<polygon fill="black" stroke="black" points="360.22,-186.79 352.01,-180.1 354.26,-190.46 360.22,-186.79"/>
</g>
<!-- ast.Constant object at 0x73d774f59f10 -->
<g id="node26" class="node">
<title>ast.Constant object at 0x73d774f59f10</title>
<path fill="#66cdaa" stroke="black" d="M440,-180C440,-180 399,-180 399,-180 393,-180 387,-174 387,-168 387,-168 387,-156 387,-156 387,-150 393,-144 399,-144 399,-144 440,-144 440,-144 446,-144 452,-150 452,-156 452,-156 452,-168 452,-168 452,-174 446,-180 440,-180"/>
<text text-anchor="middle" x="419.5" y="-158.3" font-family="Times,serif" font-size="14.00">Constant</text>
</g>
<!-- ast.Compare object at 0x73d774f59d10&#45;&gt;ast.Constant object at 0x73d774f59f10 -->
<g id="edge29" class="edge">
<title>ast.Compare object at 0x73d774f59d10&#45;&gt;ast.Constant object at 0x73d774f59f10</title>
<path fill="none" stroke="black" d="M393.15,-215.7C397.14,-207.73 401.95,-198.1 406.37,-189.26"/>
<polygon fill="black" stroke="black" points="409.61,-190.61 410.95,-180.1 403.35,-187.48 409.61,-190.61"/>
</g>
<!-- ast.Name object at 0x73d774f58ed0 -->
<g id="node22" class="node">
<title>ast.Name object at 0x73d774f58ed0</title>
<path fill="#66cdaa" stroke="black" d="M512.5,-108C512.5,-108 482.5,-108 482.5,-108 476.5,-108 470.5,-102 470.5,-96 470.5,-96 470.5,-84 470.5,-84 470.5,-78 476.5,-72 482.5,-72 482.5,-72 512.5,-72 512.5,-72 518.5,-72 524.5,-78 524.5,-84 524.5,-84 524.5,-96 524.5,-96 524.5,-102 518.5,-108 512.5,-108"/>
<text text-anchor="middle" x="497.5" y="-86.3" font-family="Times,serif" font-size="14.00">Name</text>
</g>
<!-- ast.BinOp object at 0x73d774f59dd0&#45;&gt;ast.Name object at 0x73d774f58ed0 -->
<g id="edge24" class="edge">
<title>ast.BinOp object at 0x73d774f59dd0&#45;&gt;ast.Name object at 0x73d774f58ed0</title>
<path fill="none" stroke="black" d="M497.5,-143.7C497.5,-135.98 497.5,-126.71 497.5,-118.11"/>
<polygon fill="black" stroke="black" points="501,-118.1 497.5,-108.1 494,-118.1 501,-118.1"/>
</g>
<!-- ast.Mod object at 0x73d867a48250 -->
<g id="node23" class="node">
<title>ast.Mod object at 0x73d867a48250</title>
<path fill="#66cdaa" stroke="black" d="M440.5,-108C440.5,-108 410.5,-108 410.5,-108 404.5,-108 398.5,-102 398.5,-96 398.5,-96 398.5,-84 398.5,-84 398.5,-78 404.5,-72 410.5,-72 410.5,-72 440.5,-72 440.5,-72 446.5,-72 452.5,-78 452.5,-84 452.5,-84 452.5,-96 452.5,-96 452.5,-102 446.5,-108 440.5,-108"/>
<text text-anchor="middle" x="425.5" y="-86.3" font-family="Times,serif" font-size="14.00">Mod</text>
</g>
<!-- ast.BinOp object at 0x73d774f59dd0&#45;&gt;ast.Mod object at 0x73d867a48250 -->
<g id="edge26" class="edge">
<title>ast.BinOp object at 0x73d774f59dd0&#45;&gt;ast.Mod object at 0x73d867a48250</title>
<path fill="none" stroke="black" d="M479.7,-143.7C470.9,-135.14 460.12,-124.66 450.5,-115.3"/>
<polygon fill="black" stroke="black" points="452.7,-112.57 443.09,-108.1 447.82,-117.58 452.7,-112.57"/>
</g>
<!-- ast.Constant object at 0x73d774f58050 -->
<g id="node24" class="node">
<title>ast.Constant object at 0x73d774f58050</title>
<path fill="#66cdaa" stroke="black" d="M368,-108C368,-108 327,-108 327,-108 321,-108 315,-102 315,-96 315,-96 315,-84 315,-84 315,-78 321,-72 327,-72 327,-72 368,-72 368,-72 374,-72 380,-78 380,-84 380,-84 380,-96 380,-96 380,-102 374,-108 368,-108"/>
<text text-anchor="middle" x="347.5" y="-86.3" font-family="Times,serif" font-size="14.00">Constant</text>
</g>
<!-- ast.BinOp object at 0x73d774f59dd0&#45;&gt;ast.Constant object at 0x73d774f58050 -->
<g id="edge27" class="edge">
<title>ast.BinOp object at 0x73d774f59dd0&#45;&gt;ast.Constant object at 0x73d774f58050</title>
<path fill="none" stroke="black" d="M470.38,-148.17C467.39,-146.76 464.38,-145.35 461.5,-144 437.74,-132.87 411.16,-120.5 389.64,-110.52"/>
<polygon fill="black" stroke="black" points="390.99,-107.29 380.45,-106.26 388.05,-113.64 390.99,-107.29"/>
</g>
<!-- ast.Name object at 0x73d774f58ed0&#45;&gt;ast.Load object at 0x73d867a3ba90 -->
<g id="edge25" class="edge">
<title>ast.Name object at 0x73d774f58ed0&#45;&gt;ast.Load object at 0x73d867a3ba90</title>
<path fill="none" stroke="black" d="M470.35,-71.88C455.97,-62.81 438.12,-51.55 422.59,-41.76"/>
<polygon fill="black" stroke="black" points="424.08,-38.56 413.76,-36.19 420.35,-44.48 424.08,-38.56"/>
</g>
<!-- ast.Name object at 0x73d774f58bd0 -->
<g id="node28" class="node">
<title>ast.Name object at 0x73d774f58bd0</title>
<path fill="#66cdaa" stroke="black" d="M595.5,-324C595.5,-324 565.5,-324 565.5,-324 559.5,-324 553.5,-318 553.5,-312 553.5,-312 553.5,-300 553.5,-300 553.5,-294 559.5,-288 565.5,-288 565.5,-288 595.5,-288 595.5,-288 601.5,-288 607.5,-294 607.5,-300 607.5,-300 607.5,-312 607.5,-312 607.5,-318 601.5,-324 595.5,-324"/>
<text text-anchor="middle" x="580.5" y="-302.3" font-family="Times,serif" font-size="14.00">Name</text>
</g>
<!-- ast.ExceptHandler object at 0x73d774f59fd0&#45;&gt;ast.Name object at 0x73d774f58bd0 -->
<g id="edge31" class="edge">
<title>ast.ExceptHandler object at 0x73d774f59fd0&#45;&gt;ast.Name object at 0x73d774f58bd0</title>
<path fill="none" stroke="black" d="M470.98,-503.64C478.14,-493.44 487.14,-480.19 494.5,-468 522.43,-421.79 551.27,-365.78 567.45,-333.48"/>
<polygon fill="black" stroke="black" points="570.72,-334.76 572.04,-324.25 564.45,-331.64 570.72,-334.76"/>
</g>
<!-- ast.Return object at 0x73d774f59010 -->
<g id="node29" class="node">
<title>ast.Return object at 0x73d774f59010</title>
<path fill="#66cdaa" stroke="black" d="M473.5,-468C473.5,-468 443.5,-468 443.5,-468 437.5,-468 431.5,-462 431.5,-456 431.5,-456 431.5,-444 431.5,-444 431.5,-438 437.5,-432 443.5,-432 443.5,-432 473.5,-432 473.5,-432 479.5,-432 485.5,-438 485.5,-444 485.5,-444 485.5,-456 485.5,-456 485.5,-462 479.5,-468 473.5,-468"/>
<text text-anchor="middle" x="458.5" y="-446.3" font-family="Times,serif" font-size="14.00">Return</text>
</g>
<!-- ast.ExceptHandler object at 0x73d774f59fd0&#45;&gt;ast.Return object at 0x73d774f59010 -->
<g id="edge33" class="edge">
<title>ast.ExceptHandler object at 0x73d774f59fd0&#45;&gt;ast.Return object at 0x73d774f59010</title>
<path fill="none" stroke="black" d="M458.5,-503.7C458.5,-495.98 458.5,-486.71 458.5,-478.11"/>
<polygon fill="black" stroke="black" points="462,-478.1 458.5,-468.1 455,-478.1 462,-478.1"/>
</g>
<!-- ast.Name object at 0x73d774f58bd0&#45;&gt;ast.Load object at 0x73d867a3ba90 -->
<g id="edge32" class="edge">
<title>ast.Name object at 0x73d774f58bd0&#45;&gt;ast.Load object at 0x73d867a3ba90</title>
<path fill="none" stroke="black" d="M584.31,-287.69C592.51,-245.47 607.11,-135.98 554.5,-72 522.72,-33.35 462.94,-22.45 423.93,-19.62"/>
<polygon fill="black" stroke="black" points="423.7,-16.11 413.52,-19.02 423.3,-23.09 423.7,-16.11"/>
</g>
<!-- ast.Constant object at 0x73d774f59090 -->
<g id="node30" class="node">
<title>ast.Constant object at 0x73d774f59090</title>
<path fill="#66cdaa" stroke="black" d="M479,-396C479,-396 438,-396 438,-396 432,-396 426,-390 426,-384 426,-384 426,-372 426,-372 426,-366 432,-360 438,-360 438,-360 479,-360 479,-360 485,-360 491,-366 491,-372 491,-372 491,-384 491,-384 491,-390 485,-396 479,-396"/>
<text text-anchor="middle" x="458.5" y="-374.3" font-family="Times,serif" font-size="14.00">Constant</text>
</g>
<!-- ast.Return object at 0x73d774f59010&#45;&gt;ast.Constant object at 0x73d774f59090 -->
<g id="edge34" class="edge">
<title>ast.Return object at 0x73d774f59010&#45;&gt;ast.Constant object at 0x73d774f59090</title>
<path fill="none" stroke="black" d="M458.5,-431.7C458.5,-423.98 458.5,-414.71 458.5,-406.11"/>
<polygon fill="black" stroke="black" points="462,-406.1 458.5,-396.1 455,-406.1 462,-406.1"/>
</g>
</g>
</svg>
