<?xml version="1.0" encoding="UTF-8" standalone="no"?>
<!DOCTYPE svg PUBLIC "-//W3C//DTD SVG 1.1//EN"
 "http://www.w3.org/Graphics/SVG/1.1/DTD/svg11.dtd">
<!-- Generated by graphviz version 2.50.0 (0)
 -->
<!-- Pages: 1 -->
<svg width="709pt" height="548pt"
 viewBox="0.00 0.00 709.00 548.00" xmlns="http://www.w3.org/2000/svg" xmlns:xlink="http://www.w3.org/1999/xlink">
<g id="graph0" class="graph" transform="scale(1 1) rotate(0) translate(4 544)">
<polygon fill="white" stroke="transparent" points="-4,4 -4,-544 705,-544 705,4 -4,4"/>
<!-- ast.Module object at 0x73157d8d3290 -->
<g id="node1" class="node">
<title>ast.Module object at 0x73157d8d3290</title>
<path fill="#66cdaa" stroke="black" d="M392,-540C392,-540 357,-540 357,-540 351,-540 345,-534 345,-528 345,-528 345,-516 345,-516 345,-510 351,-504 357,-504 357,-504 392,-504 392,-504 398,-504 404,-510 404,-516 404,-516 404,-528 404,-528 404,-534 398,-540 392,-540"/>
<text text-anchor="middle" x="374.5" y="-518.3" font-family="Times,serif" font-size="14.00">Module</text>
</g>
<!-- ast.FunctionDef object at 0x73157d8d1390 -->
<g id="node2" class="node">
<title>ast.FunctionDef object at 0x73157d8d1390</title>
<path fill="#66cdaa" stroke="black" d="M405,-468C405,-468 344,-468 344,-468 338,-468 332,-462 332,-456 332,-456 332,-444 332,-444 332,-438 338,-432 344,-432 344,-432 405,-432 405,-432 411,-432 417,-438 417,-444 417,-444 417,-456 417,-456 417,-462 411,-468 405,-468"/>
<text text-anchor="middle" x="374.5" y="-446.3" font-family="Times,serif" font-size="14.00">FunctionDef</text>
</g>
<!-- ast.Module object at 0x73157d8d3290&#45;&gt;ast.FunctionDef object at 0x73157d8d1390 -->
<g id="edge1" class="edge">
<title>ast.Module object at 0x73157d8d3290&#45;&gt;ast.FunctionDef object at 0x73157d8d1390</title>
<path fill="none" stroke="black" d="M374.5,-503.7C374.5,-495.98 374.5,-486.71 374.5,-478.11"/>
<polygon fill="black" stroke="black" points="378,-478.1 374.5,-468.1 371,-478.1 378,-478.1"/>
</g>
<!-- ast.arguments object at 0x73157d540790 -->
<g id="node3" class="node">
<title>ast.arguments object at 0x73157d540790</title>
<path fill="#66cdaa" stroke="black" d="M358.5,-396C358.5,-396 308.5,-396 308.5,-396 302.5,-396 296.5,-390 296.5,-384 296.5,-384 296.5,-372 296.5,-372 296.5,-366 302.5,-360 308.5,-360 308.5,-360 358.5,-360 358.5,-360 364.5,-360 370.5,-366 370.5,-372 370.5,-372 370.5,-384 370.5,-384 370.5,-390 364.5,-396 358.5,-396"/>
<text text-anchor="middle" x="333.5" y="-374.3" font-family="Times,serif" font-size="14.00">arguments</text>
</g>
<!-- ast.FunctionDef object at 0x73157d8d1390&#45;&gt;ast.arguments object at 0x73157d540790 -->
<g id="edge2" class="edge">
<title>ast.FunctionDef object at 0x73157d8d1390&#45;&gt;ast.arguments object at 0x73157d540790</title>
<path fill="none" stroke="black" d="M364.37,-431.7C359.65,-423.64 353.94,-413.89 348.72,-404.98"/>
<polygon fill="black" stroke="black" points="351.59,-402.96 343.52,-396.1 345.55,-406.5 351.59,-402.96"/>
</g>
<!-- ast.If object at 0x73157d142e50 -->
<g id="node5" class="node">
<title>ast.If object at 0x73157d142e50</title>
<path fill="#66cdaa" stroke="black" d="M441.5,-396C441.5,-396 411.5,-396 411.5,-396 405.5,-396 399.5,-390 399.5,-384 399.5,-384 399.5,-372 399.5,-372 399.5,-366 405.5,-360 411.5,-360 411.5,-360 441.5,-360 441.5,-360 447.5,-360 453.5,-366 453.5,-372 453.5,-372 453.5,-384 453.5,-384 453.5,-390 447.5,-396 441.5,-396"/>
<text text-anchor="middle" x="426.5" y="-374.3" font-family="Times,serif" font-size="14.00">If</text>
</g>
<!-- ast.FunctionDef object at 0x73157d8d1390&#45;&gt;ast.If object at 0x73157d142e50 -->
<g id="edge4" class="edge">
<title>ast.FunctionDef object at 0x73157d8d1390&#45;&gt;ast.If object at 0x73157d142e50</title>
<path fill="none" stroke="black" d="M387.35,-431.7C393.53,-423.39 401.04,-413.28 407.82,-404.14"/>
<polygon fill="black" stroke="black" points="410.64,-406.22 413.79,-396.1 405.02,-402.04 410.64,-406.22"/>
</g>
<!-- ast.arg object at 0x73157d1432d0 -->
<g id="node4" class="node">
<title>ast.arg object at 0x73157d1432d0</title>
<path fill="#66cdaa" stroke="black" d="M326.5,-324C326.5,-324 296.5,-324 296.5,-324 290.5,-324 284.5,-318 284.5,-312 284.5,-312 284.5,-300 284.5,-300 284.5,-294 290.5,-288 296.5,-288 296.5,-288 326.5,-288 326.5,-288 332.5,-288 338.5,-294 338.5,-300 338.5,-300 338.5,-312 338.5,-312 338.5,-318 332.5,-324 326.5,-324"/>
<text text-anchor="middle" x="311.5" y="-302.3" font-family="Times,serif" font-size="14.00">arg</text>
</g>
<!-- ast.arguments object at 0x73157d540790&#45;&gt;ast.arg object at 0x73157d1432d0 -->
<g id="edge3" class="edge">
<title>ast.arguments object at 0x73157d540790&#45;&gt;ast.arg object at 0x73157d1432d0</title>
<path fill="none" stroke="black" d="M328.06,-359.7C325.61,-351.9 322.66,-342.51 319.93,-333.83"/>
<polygon fill="black" stroke="black" points="323.21,-332.59 316.88,-324.1 316.54,-334.69 323.21,-332.59"/>
</g>
<!-- ast.Compare object at 0x73157d140410 -->
<g id="node6" class="node">
<title>ast.Compare object at 0x73157d140410</title>
<path fill="#66cdaa" stroke="black" d="M460,-252C460,-252 417,-252 417,-252 411,-252 405,-246 405,-240 405,-240 405,-228 405,-228 405,-222 411,-216 417,-216 417,-216 460,-216 460,-216 466,-216 472,-222 472,-228 472,-228 472,-240 472,-240 472,-246 466,-252 460,-252"/>
<text text-anchor="middle" x="438.5" y="-230.3" font-family="Times,serif" font-size="14.00">Compare</text>
</g>
<!-- ast.If object at 0x73157d142e50&#45;&gt;ast.Compare object at 0x73157d140410 -->
<g id="edge5" class="edge">
<title>ast.If object at 0x73157d142e50&#45;&gt;ast.Compare object at 0x73157d140410</title>
<path fill="none" stroke="black" d="M427.95,-359.87C429.99,-335.67 433.75,-291.21 436.19,-262.39"/>
<polygon fill="black" stroke="black" points="439.69,-262.45 437.05,-252.19 432.72,-261.86 439.69,-262.45"/>
</g>
<!-- ast.Return object at 0x73157db48a50 -->
<g id="node13" class="node">
<title>ast.Return object at 0x73157db48a50</title>
<path fill="#66cdaa" stroke="black" d="M535.5,-324C535.5,-324 505.5,-324 505.5,-324 499.5,-324 493.5,-318 493.5,-312 493.5,-312 493.5,-300 493.5,-300 493.5,-294 499.5,-288 505.5,-288 505.5,-288 535.5,-288 535.5,-288 541.5,-288 547.5,-294 547.5,-300 547.5,-300 547.5,-312 547.5,-312 547.5,-318 541.5,-324 535.5,-324"/>
<text text-anchor="middle" x="520.5" y="-302.3" font-family="Times,serif" font-size="14.00">Return</text>
</g>
<!-- ast.If object at 0x73157d142e50&#45;&gt;ast.Return object at 0x73157db48a50 -->
<g id="edge13" class="edge">
<title>ast.If object at 0x73157d142e50&#45;&gt;ast.Return object at 0x73157db48a50</title>
<path fill="none" stroke="black" d="M449.74,-359.7C461.69,-350.8 476.42,-339.82 489.35,-330.2"/>
<polygon fill="black" stroke="black" points="491.6,-332.88 497.53,-324.1 487.42,-327.27 491.6,-332.88"/>
</g>
<!-- ast.Return object at 0x73157d5baf10 -->
<g id="node19" class="node">
<title>ast.Return object at 0x73157d5baf10</title>
<path fill="#66cdaa" stroke="black" d="M398.5,-324C398.5,-324 368.5,-324 368.5,-324 362.5,-324 356.5,-318 356.5,-312 356.5,-312 356.5,-300 356.5,-300 356.5,-294 362.5,-288 368.5,-288 368.5,-288 398.5,-288 398.5,-288 404.5,-288 410.5,-294 410.5,-300 410.5,-300 410.5,-312 410.5,-312 410.5,-318 404.5,-324 398.5,-324"/>
<text text-anchor="middle" x="383.5" y="-302.3" font-family="Times,serif" font-size="14.00">Return</text>
</g>
<!-- ast.If object at 0x73157d142e50&#45;&gt;ast.Return object at 0x73157d5baf10 -->
<g id="edge21" class="edge">
<title>ast.If object at 0x73157d142e50&#45;&gt;ast.Return object at 0x73157d5baf10</title>
<path fill="none" stroke="black" d="M415.87,-359.7C410.87,-351.56 404.81,-341.69 399.29,-332.7"/>
<polygon fill="black" stroke="black" points="402.22,-330.79 394.01,-324.1 396.26,-334.46 402.22,-330.79"/>
</g>
<!-- ast.Call object at 0x73157d1433d0 -->
<g id="node7" class="node">
<title>ast.Call object at 0x73157d1433d0</title>
<path fill="#66cdaa" stroke="black" d="M381.5,-180C381.5,-180 351.5,-180 351.5,-180 345.5,-180 339.5,-174 339.5,-168 339.5,-168 339.5,-156 339.5,-156 339.5,-150 345.5,-144 351.5,-144 351.5,-144 381.5,-144 381.5,-144 387.5,-144 393.5,-150 393.5,-156 393.5,-156 393.5,-168 393.5,-168 393.5,-174 387.5,-180 381.5,-180"/>
<text text-anchor="middle" x="366.5" y="-158.3" font-family="Times,serif" font-size="14.00">Call</text>
</g>
<!-- ast.Compare object at 0x73157d140410&#45;&gt;ast.Call object at 0x73157d1433d0 -->
<g id="edge6" class="edge">
<title>ast.Compare object at 0x73157d140410&#45;&gt;ast.Call object at 0x73157d1433d0</title>
<path fill="none" stroke="black" d="M420.7,-215.7C411.9,-207.14 401.12,-196.66 391.5,-187.3"/>
<polygon fill="black" stroke="black" points="393.7,-184.57 384.09,-180.1 388.82,-189.58 393.7,-184.57"/>
</g>
<!-- ast.Lt object at 0x73157d3c6710 -->
<g id="node11" class="node">
<title>ast.Lt object at 0x73157d3c6710</title>
<path fill="#66cdaa" stroke="black" d="M453.5,-180C453.5,-180 423.5,-180 423.5,-180 417.5,-180 411.5,-174 411.5,-168 411.5,-168 411.5,-156 411.5,-156 411.5,-150 417.5,-144 423.5,-144 423.5,-144 453.5,-144 453.5,-144 459.5,-144 465.5,-150 465.5,-156 465.5,-156 465.5,-168 465.5,-168 465.5,-174 459.5,-180 453.5,-180"/>
<text text-anchor="middle" x="438.5" y="-158.3" font-family="Times,serif" font-size="14.00">Lt</text>
</g>
<!-- ast.Compare object at 0x73157d140410&#45;&gt;ast.Lt object at 0x73157d3c6710 -->
<g id="edge11" class="edge">
<title>ast.Compare object at 0x73157d140410&#45;&gt;ast.Lt object at 0x73157d3c6710</title>
<path fill="none" stroke="black" d="M438.5,-215.7C438.5,-207.98 438.5,-198.71 438.5,-190.11"/>
<polygon fill="black" stroke="black" points="442,-190.1 438.5,-180.1 435,-190.1 442,-190.1"/>
</g>
<!-- ast.Constant object at 0x73157d99c350 -->
<g id="node12" class="node">
<title>ast.Constant object at 0x73157d99c350</title>
<path fill="#66cdaa" stroke="black" d="M537,-180C537,-180 496,-180 496,-180 490,-180 484,-174 484,-168 484,-168 484,-156 484,-156 484,-150 490,-144 496,-144 496,-144 537,-144 537,-144 543,-144 549,-150 549,-156 549,-156 549,-168 549,-168 549,-174 543,-180 537,-180"/>
<text text-anchor="middle" x="516.5" y="-158.3" font-family="Times,serif" font-size="14.00">Constant</text>
</g>
<!-- ast.Compare object at 0x73157d140410&#45;&gt;ast.Constant object at 0x73157d99c350 -->
<g id="edge12" class="edge">
<title>ast.Compare object at 0x73157d140410&#45;&gt;ast.Constant object at 0x73157d99c350</title>
<path fill="none" stroke="black" d="M457.78,-215.7C467.42,-207.05 479.23,-196.45 489.73,-187.03"/>
<polygon fill="black" stroke="black" points="492.34,-189.39 497.44,-180.1 487.66,-184.18 492.34,-189.39"/>
</g>
<!-- ast.Name object at 0x73157d143d90 -->
<g id="node8" class="node">
<title>ast.Name object at 0x73157d143d90</title>
<path fill="#66cdaa" stroke="black" d="M390.5,-108C390.5,-108 360.5,-108 360.5,-108 354.5,-108 348.5,-102 348.5,-96 348.5,-96 348.5,-84 348.5,-84 348.5,-78 354.5,-72 360.5,-72 360.5,-72 390.5,-72 390.5,-72 396.5,-72 402.5,-78 402.5,-84 402.5,-84 402.5,-96 402.5,-96 402.5,-102 396.5,-108 390.5,-108"/>
<text text-anchor="middle" x="375.5" y="-86.3" font-family="Times,serif" font-size="14.00">Name</text>
</g>
<!-- ast.Call object at 0x73157d1433d0&#45;&gt;ast.Name object at 0x73157d143d90 -->
<g id="edge7" class="edge">
<title>ast.Call object at 0x73157d1433d0&#45;&gt;ast.Name object at 0x73157d143d90</title>
<path fill="none" stroke="black" d="M368.72,-143.7C369.72,-135.98 370.91,-126.71 372.01,-118.11"/>
<polygon fill="black" stroke="black" points="375.5,-118.47 373.3,-108.1 368.55,-117.58 375.5,-118.47"/>
</g>
<!-- ast.Name object at 0x7314d7095bd0 -->
<g id="node10" class="node">
<title>ast.Name object at 0x7314d7095bd0</title>
<path fill="#66cdaa" stroke="black" d="M462.5,-108C462.5,-108 432.5,-108 432.5,-108 426.5,-108 420.5,-102 420.5,-96 420.5,-96 420.5,-84 420.5,-84 420.5,-78 426.5,-72 432.5,-72 432.5,-72 462.5,-72 462.5,-72 468.5,-72 474.5,-78 474.5,-84 474.5,-84 474.5,-96 474.5,-96 474.5,-102 468.5,-108 462.5,-108"/>
<text text-anchor="middle" x="447.5" y="-86.3" font-family="Times,serif" font-size="14.00">Name</text>
</g>
<!-- ast.Call object at 0x73157d1433d0&#45;&gt;ast.Name object at 0x7314d7095bd0 -->
<g id="edge9" class="edge">
<title>ast.Call object at 0x73157d1433d0&#45;&gt;ast.Name object at 0x7314d7095bd0</title>
<path fill="none" stroke="black" d="M386.52,-143.7C396.63,-134.97 409.04,-124.24 420.02,-114.75"/>
<polygon fill="black" stroke="black" points="422.43,-117.29 427.71,-108.1 417.85,-111.99 422.43,-117.29"/>
</g>
<!-- ast.Load object at 0x73157d3c5610 -->
<g id="node9" class="node">
<title>ast.Load object at 0x73157d3c5610</title>
<path fill="#66cdaa" stroke="black" d="M390.5,-36C390.5,-36 360.5,-36 360.5,-36 354.5,-36 348.5,-30 348.5,-24 348.5,-24 348.5,-12 348.5,-12 348.5,-6 354.5,0 360.5,0 360.5,0 390.5,0 390.5,0 396.5,0 402.5,-6 402.5,-12 402.5,-12 402.5,-24 402.5,-24 402.5,-30 396.5,-36 390.5,-36"/>
<text text-anchor="middle" x="375.5" y="-14.3" font-family="Times,serif" font-size="14.00">Load</text>
</g>
<!-- ast.Name object at 0x73157d143d90&#45;&gt;ast.Load object at 0x73157d3c5610 -->
<g id="edge8" class="edge">
<title>ast.Name object at 0x73157d143d90&#45;&gt;ast.Load object at 0x73157d3c5610</title>
<path fill="none" stroke="black" d="M375.5,-71.7C375.5,-63.98 375.5,-54.71 375.5,-46.11"/>
<polygon fill="black" stroke="black" points="379,-46.1 375.5,-36.1 372,-46.1 379,-46.1"/>
</g>
<!-- ast.Name object at 0x7314d7095bd0&#45;&gt;ast.Load object at 0x73157d3c5610 -->
<g id="edge10" class="edge">
<title>ast.Name object at 0x7314d7095bd0&#45;&gt;ast.Load object at 0x73157d3c5610</title>
<path fill="none" stroke="black" d="M429.7,-71.7C420.9,-63.14 410.12,-52.66 400.5,-43.3"/>
<polygon fill="black" stroke="black" points="402.7,-40.57 393.09,-36.1 397.82,-45.58 402.7,-40.57"/>
</g>
<!-- ast.Call object at 0x73157db48310 -->
<g id="node14" class="node">
<title>ast.Call object at 0x73157db48310</title>
<path fill="#66cdaa" stroke="black" d="M609.5,-180C609.5,-180 579.5,-180 579.5,-180 573.5,-180 567.5,-174 567.5,-168 567.5,-168 567.5,-156 567.5,-156 567.5,-150 573.5,-144 579.5,-144 579.5,-144 609.5,-144 609.5,-144 615.5,-144 621.5,-150 621.5,-156 621.5,-156 621.5,-168 621.5,-168 621.5,-174 615.5,-180 609.5,-180"/>
<text text-anchor="middle" x="594.5" y="-158.3" font-family="Times,serif" font-size="14.00">Call</text>
</g>
<!-- ast.Return object at 0x73157db48a50&#45;&gt;ast.Call object at 0x73157db48310 -->
<g id="edge14" class="edge">
<title>ast.Return object at 0x73157db48a50&#45;&gt;ast.Call object at 0x73157db48310</title>
<path fill="none" stroke="black" d="M529.43,-287.87C542.2,-263.35 565.82,-218.03 580.82,-189.26"/>
<polygon fill="black" stroke="black" points="584.02,-190.67 585.54,-180.19 577.82,-187.44 584.02,-190.67"/>
</g>
<!-- ast.Name object at 0x7314cd768210 -->
<g id="node15" class="node">
<title>ast.Name object at 0x7314cd768210</title>
<path fill="#66cdaa" stroke="black" d="M534.5,-108C534.5,-108 504.5,-108 504.5,-108 498.5,-108 492.5,-102 492.5,-96 492.5,-96 492.5,-84 492.5,-84 492.5,-78 498.5,-72 504.5,-72 504.5,-72 534.5,-72 534.5,-72 540.5,-72 546.5,-78 546.5,-84 546.5,-84 546.5,-96 546.5,-96 546.5,-102 540.5,-108 534.5,-108"/>
<text text-anchor="middle" x="519.5" y="-86.3" font-family="Times,serif" font-size="14.00">Name</text>
</g>
<!-- ast.Call object at 0x73157db48310&#45;&gt;ast.Name object at 0x7314cd768210 -->
<g id="edge15" class="edge">
<title>ast.Call object at 0x73157db48310&#45;&gt;ast.Name object at 0x7314cd768210</title>
<path fill="none" stroke="black" d="M575.96,-143.7C566.7,-135.05 555.34,-124.45 545.24,-115.03"/>
<polygon fill="black" stroke="black" points="547.52,-112.37 537.83,-108.1 542.75,-117.49 547.52,-112.37"/>
</g>
<!-- ast.Name object at 0x7314cd768790 -->
<g id="node16" class="node">
<title>ast.Name object at 0x7314cd768790</title>
<path fill="#66cdaa" stroke="black" d="M606.5,-108C606.5,-108 576.5,-108 576.5,-108 570.5,-108 564.5,-102 564.5,-96 564.5,-96 564.5,-84 564.5,-84 564.5,-78 570.5,-72 576.5,-72 576.5,-72 606.5,-72 606.5,-72 612.5,-72 618.5,-78 618.5,-84 618.5,-84 618.5,-96 618.5,-96 618.5,-102 612.5,-108 606.5,-108"/>
<text text-anchor="middle" x="591.5" y="-86.3" font-family="Times,serif" font-size="14.00">Name</text>
</g>
<!-- ast.Call object at 0x73157db48310&#45;&gt;ast.Name object at 0x7314cd768790 -->
<g id="edge17" class="edge">
<title>ast.Call object at 0x73157db48310&#45;&gt;ast.Name object at 0x7314cd768790</title>
<path fill="none" stroke="black" d="M593.76,-143.7C593.43,-135.98 593.03,-126.71 592.66,-118.11"/>
<polygon fill="black" stroke="black" points="596.16,-117.95 592.23,-108.1 589.16,-118.25 596.16,-117.95"/>
</g>
<!-- ast.keyword object at 0x73157d12a490 -->
<g id="node17" class="node">
<title>ast.keyword object at 0x73157d12a490</title>
<path fill="#66cdaa" stroke="black" d="M688.5,-108C688.5,-108 648.5,-108 648.5,-108 642.5,-108 636.5,-102 636.5,-96 636.5,-96 636.5,-84 636.5,-84 636.5,-78 642.5,-72 648.5,-72 648.5,-72 688.5,-72 688.5,-72 694.5,-72 700.5,-78 700.5,-84 700.5,-84 700.5,-96 700.5,-96 700.5,-102 694.5,-108 688.5,-108"/>
<text text-anchor="middle" x="668.5" y="-86.3" font-family="Times,serif" font-size="14.00">keyword</text>
</g>
<!-- ast.Call object at 0x73157db48310&#45;&gt;ast.keyword object at 0x73157d12a490 -->
<g id="edge19" class="edge">
<title>ast.Call object at 0x73157db48310&#45;&gt;ast.keyword object at 0x73157d12a490</title>
<path fill="none" stroke="black" d="M612.79,-143.7C621.93,-135.05 633.14,-124.45 643.1,-115.03"/>
<polygon fill="black" stroke="black" points="645.56,-117.52 650.42,-108.1 640.75,-112.43 645.56,-117.52"/>
</g>
<!-- ast.Name object at 0x7314cd768210&#45;&gt;ast.Load object at 0x73157d3c5610 -->
<g id="edge16" class="edge">
<title>ast.Name object at 0x7314cd768210&#45;&gt;ast.Load object at 0x73157d3c5610</title>
<path fill="none" stroke="black" d="M492.41,-75.83C469.73,-64.81 437.14,-48.97 412.13,-36.81"/>
<polygon fill="black" stroke="black" points="413.48,-33.57 402.95,-32.35 410.42,-39.87 413.48,-33.57"/>
</g>
<!-- ast.Name object at 0x7314cd768790&#45;&gt;ast.Load object at 0x73157d3c5610 -->
<g id="edge18" class="edge">
<title>ast.Name object at 0x7314cd768790&#45;&gt;ast.Load object at 0x73157d3c5610</title>
<path fill="none" stroke="black" d="M564.17,-75.56C561.27,-74.29 558.34,-73.08 555.5,-72 507.08,-53.57 449.35,-37.58 412.56,-28.12"/>
<polygon fill="black" stroke="black" points="413.32,-24.7 402.77,-25.62 411.6,-31.48 413.32,-24.7"/>
</g>
<!-- ast.Constant object at 0x73157d5ba6d0 -->
<g id="node18" class="node">
<title>ast.Constant object at 0x73157d5ba6d0</title>
<path fill="#66cdaa" stroke="black" d="M689,-36C689,-36 648,-36 648,-36 642,-36 636,-30 636,-24 636,-24 636,-12 636,-12 636,-6 642,0 648,0 648,0 689,0 689,0 695,0 701,-6 701,-12 701,-12 701,-24 701,-24 701,-30 695,-36 689,-36"/>
<text text-anchor="middle" x="668.5" y="-14.3" font-family="Times,serif" font-size="14.00">Constant</text>
</g>
<!-- ast.keyword object at 0x73157d12a490&#45;&gt;ast.Constant object at 0x73157d5ba6d0 -->
<g id="edge20" class="edge">
<title>ast.keyword object at 0x73157d12a490&#45;&gt;ast.Constant object at 0x73157d5ba6d0</title>
<path fill="none" stroke="black" d="M668.5,-71.7C668.5,-63.98 668.5,-54.71 668.5,-46.11"/>
<polygon fill="black" stroke="black" points="672,-46.1 668.5,-36.1 665,-46.1 672,-46.1"/>
</g>
<!-- ast.Subscript object at 0x73157d5b8790 -->
<g id="node20" class="node">
<title>ast.Subscript object at 0x73157d5b8790</title>
<path fill="#66cdaa" stroke="black" d="M289.5,-252C289.5,-252 245.5,-252 245.5,-252 239.5,-252 233.5,-246 233.5,-240 233.5,-240 233.5,-228 233.5,-228 233.5,-222 239.5,-216 245.5,-216 245.5,-216 289.5,-216 289.5,-216 295.5,-216 301.5,-222 301.5,-228 301.5,-228 301.5,-240 301.5,-240 301.5,-246 295.5,-252 289.5,-252"/>
<text text-anchor="middle" x="267.5" y="-230.3" font-family="Times,serif" font-size="14.00">Subscript</text>
</g>
<!-- ast.Return object at 0x73157d5baf10&#45;&gt;ast.Subscript object at 0x73157d5b8790 -->
<g id="edge22" class="edge">
<title>ast.Return object at 0x73157d5baf10&#45;&gt;ast.Subscript object at 0x73157d5b8790</title>
<path fill="none" stroke="black" d="M356.3,-288.59C340.93,-279.31 321.5,-267.59 304.74,-257.47"/>
<polygon fill="black" stroke="black" points="306.11,-254.21 295.74,-252.04 302.49,-260.2 306.11,-254.21"/>
</g>
<!-- ast.Subscript object at 0x73157d5b8790&#45;&gt;ast.Load object at 0x73157d3c5610 -->
<g id="edge32" class="edge">
<title>ast.Subscript object at 0x73157d5b8790&#45;&gt;ast.Load object at 0x73157d3c5610</title>
<path fill="none" stroke="black" d="M259.92,-215.81C247.34,-184.4 226.28,-116.85 255.5,-72 273.71,-44.04 310.38,-30.73 338.42,-24.45"/>
<polygon fill="black" stroke="black" points="339.2,-27.86 348.31,-22.44 337.81,-21 339.2,-27.86"/>
</g>
<!-- ast.Call object at 0x73157d104890 -->
<g id="node21" class="node">
<title>ast.Call object at 0x73157d104890</title>
<path fill="#66cdaa" stroke="black" d="M160.5,-180C160.5,-180 130.5,-180 130.5,-180 124.5,-180 118.5,-174 118.5,-168 118.5,-168 118.5,-156 118.5,-156 118.5,-150 124.5,-144 130.5,-144 130.5,-144 160.5,-144 160.5,-144 166.5,-144 172.5,-150 172.5,-156 172.5,-156 172.5,-168 172.5,-168 172.5,-174 166.5,-180 160.5,-180"/>
<text text-anchor="middle" x="145.5" y="-158.3" font-family="Times,serif" font-size="14.00">Call</text>
</g>
<!-- ast.Subscript object at 0x73157d5b8790&#45;&gt;ast.Call object at 0x73157d104890 -->
<g id="edge23" class="edge">
<title>ast.Subscript object at 0x73157d5b8790&#45;&gt;ast.Call object at 0x73157d104890</title>
<path fill="none" stroke="black" d="M237.66,-215.88C220.72,-206.16 199.39,-193.92 181.53,-183.67"/>
<polygon fill="black" stroke="black" points="182.95,-180.46 172.54,-178.51 179.47,-186.53 182.95,-180.46"/>
</g>
<!-- ast.Slice object at 0x73157d1c69d0 -->
<g id="node26" class="node">
<title>ast.Slice object at 0x73157d1c69d0</title>
<path fill="#66cdaa" stroke="black" d="M309.5,-180C309.5,-180 279.5,-180 279.5,-180 273.5,-180 267.5,-174 267.5,-168 267.5,-168 267.5,-156 267.5,-156 267.5,-150 273.5,-144 279.5,-144 279.5,-144 309.5,-144 309.5,-144 315.5,-144 321.5,-150 321.5,-156 321.5,-156 321.5,-168 321.5,-168 321.5,-174 315.5,-180 309.5,-180"/>
<text text-anchor="middle" x="294.5" y="-158.3" font-family="Times,serif" font-size="14.00">Slice</text>
</g>
<!-- ast.Subscript object at 0x73157d5b8790&#45;&gt;ast.Slice object at 0x73157d1c69d0 -->
<g id="edge30" class="edge">
<title>ast.Subscript object at 0x73157d5b8790&#45;&gt;ast.Slice object at 0x73157d1c69d0</title>
<path fill="none" stroke="black" d="M274.17,-215.7C277.21,-207.81 280.88,-198.3 284.26,-189.55"/>
<polygon fill="black" stroke="black" points="287.57,-190.69 287.9,-180.1 281.04,-188.17 287.57,-190.69"/>
</g>
<!-- ast.Name object at 0x73157db42dd0 -->
<g id="node22" class="node">
<title>ast.Name object at 0x73157db42dd0</title>
<path fill="#66cdaa" stroke="black" d="M124.5,-108C124.5,-108 94.5,-108 94.5,-108 88.5,-108 82.5,-102 82.5,-96 82.5,-96 82.5,-84 82.5,-84 82.5,-78 88.5,-72 94.5,-72 94.5,-72 124.5,-72 124.5,-72 130.5,-72 136.5,-78 136.5,-84 136.5,-84 136.5,-96 136.5,-96 136.5,-102 130.5,-108 124.5,-108"/>
<text text-anchor="middle" x="109.5" y="-86.3" font-family="Times,serif" font-size="14.00">Name</text>
</g>
<!-- ast.Call object at 0x73157d104890&#45;&gt;ast.Name object at 0x73157db42dd0 -->
<g id="edge24" class="edge">
<title>ast.Call object at 0x73157d104890&#45;&gt;ast.Name object at 0x73157db42dd0</title>
<path fill="none" stroke="black" d="M136.6,-143.7C132.5,-135.73 127.55,-126.1 123.01,-117.26"/>
<polygon fill="black" stroke="black" points="125.98,-115.4 118.3,-108.1 119.76,-118.6 125.98,-115.4"/>
</g>
<!-- ast.Name object at 0x73157db40b90 -->
<g id="node23" class="node">
<title>ast.Name object at 0x73157db40b90</title>
<path fill="#66cdaa" stroke="black" d="M196.5,-108C196.5,-108 166.5,-108 166.5,-108 160.5,-108 154.5,-102 154.5,-96 154.5,-96 154.5,-84 154.5,-84 154.5,-78 160.5,-72 166.5,-72 166.5,-72 196.5,-72 196.5,-72 202.5,-72 208.5,-78 208.5,-84 208.5,-84 208.5,-96 208.5,-96 208.5,-102 202.5,-108 196.5,-108"/>
<text text-anchor="middle" x="181.5" y="-86.3" font-family="Times,serif" font-size="14.00">Name</text>
</g>
<!-- ast.Call object at 0x73157d104890&#45;&gt;ast.Name object at 0x73157db40b90 -->
<g id="edge26" class="edge">
<title>ast.Call object at 0x73157d104890&#45;&gt;ast.Name object at 0x73157db40b90</title>
<path fill="none" stroke="black" d="M154.4,-143.7C158.5,-135.73 163.45,-126.1 167.99,-117.26"/>
<polygon fill="black" stroke="black" points="171.24,-118.6 172.7,-108.1 165.02,-115.4 171.24,-118.6"/>
</g>
<!-- ast.keyword object at 0x73157da6a810 -->
<g id="node24" class="node">
<title>ast.keyword object at 0x73157da6a810</title>
<path fill="#66cdaa" stroke="black" d="M52.5,-108C52.5,-108 12.5,-108 12.5,-108 6.5,-108 0.5,-102 0.5,-96 0.5,-96 0.5,-84 0.5,-84 0.5,-78 6.5,-72 12.5,-72 12.5,-72 52.5,-72 52.5,-72 58.5,-72 64.5,-78 64.5,-84 64.5,-84 64.5,-96 64.5,-96 64.5,-102 58.5,-108 52.5,-108"/>
<text text-anchor="middle" x="32.5" y="-86.3" font-family="Times,serif" font-size="14.00">keyword</text>
</g>
<!-- ast.Call object at 0x73157d104890&#45;&gt;ast.keyword object at 0x73157da6a810 -->
<g id="edge28" class="edge">
<title>ast.Call object at 0x73157d104890&#45;&gt;ast.keyword object at 0x73157da6a810</title>
<path fill="none" stroke="black" d="M118.43,-144.23C103.56,-135.02 84.91,-123.47 68.79,-113.48"/>
<polygon fill="black" stroke="black" points="70.47,-110.41 60.13,-108.12 66.79,-116.36 70.47,-110.41"/>
</g>
<!-- ast.Name object at 0x73157db42dd0&#45;&gt;ast.Load object at 0x73157d3c5610 -->
<g id="edge25" class="edge">
<title>ast.Name object at 0x73157db42dd0&#45;&gt;ast.Load object at 0x73157d3c5610</title>
<path fill="none" stroke="black" d="M136.76,-75.38C139.68,-74.15 142.63,-73 145.5,-72 211.77,-49.02 292.24,-33.07 338.3,-25.03"/>
<polygon fill="black" stroke="black" points="339.15,-28.44 348.41,-23.3 337.97,-21.54 339.15,-28.44"/>
</g>
<!-- ast.Name object at 0x73157db40b90&#45;&gt;ast.Load object at 0x73157d3c5610 -->
<g id="edge27" class="edge">
<title>ast.Name object at 0x73157db40b90&#45;&gt;ast.Load object at 0x73157d3c5610</title>
<path fill="none" stroke="black" d="M208.76,-77.43C213.33,-75.57 218.03,-73.7 222.5,-72 261.86,-57.04 307.54,-41.44 338.67,-31.07"/>
<polygon fill="black" stroke="black" points="339.85,-34.37 348.24,-27.9 337.65,-27.72 339.85,-34.37"/>
</g>
<!-- ast.Constant object at 0x73157d1c6410 -->
<g id="node25" class="node">
<title>ast.Constant object at 0x73157d1c6410</title>
<path fill="#66cdaa" stroke="black" d="M53,-36C53,-36 12,-36 12,-36 6,-36 0,-30 0,-24 0,-24 0,-12 0,-12 0,-6 6,0 12,0 12,0 53,0 53,0 59,0 65,-6 65,-12 65,-12 65,-24 65,-24 65,-30 59,-36 53,-36"/>
<text text-anchor="middle" x="32.5" y="-14.3" font-family="Times,serif" font-size="14.00">Constant</text>
</g>
<!-- ast.keyword object at 0x73157da6a810&#45;&gt;ast.Constant object at 0x73157d1c6410 -->
<g id="edge29" class="edge">
<title>ast.keyword object at 0x73157da6a810&#45;&gt;ast.Constant object at 0x73157d1c6410</title>
<path fill="none" stroke="black" d="M32.5,-71.7C32.5,-63.98 32.5,-54.71 32.5,-46.11"/>
<polygon fill="black" stroke="black" points="36,-46.1 32.5,-36.1 29,-46.1 36,-46.1"/>
</g>
<!-- ast.Constant object at 0x73157d1c7b90 -->
<g id="node27" class="node">
<title>ast.Constant object at 0x73157d1c7b90</title>
<path fill="#66cdaa" stroke="black" d="M318,-108C318,-108 277,-108 277,-108 271,-108 265,-102 265,-96 265,-96 265,-84 265,-84 265,-78 271,-72 277,-72 277,-72 318,-72 318,-72 324,-72 330,-78 330,-84 330,-84 330,-96 330,-96 330,-102 324,-108 318,-108"/>
<text text-anchor="middle" x="297.5" y="-86.3" font-family="Times,serif" font-size="14.00">Constant</text>
</g>
<!-- ast.Slice object at 0x73157d1c69d0&#45;&gt;ast.Constant object at 0x73157d1c7b90 -->
<g id="edge31" class="edge">
<title>ast.Slice object at 0x73157d1c69d0&#45;&gt;ast.Constant object at 0x73157d1c7b90</title>
<path fill="none" stroke="black" d="M295.24,-143.7C295.57,-135.98 295.97,-126.71 296.34,-118.11"/>
<polygon fill="black" stroke="black" points="299.84,-118.25 296.77,-108.1 292.84,-117.95 299.84,-118.25"/>
</g>
</g>
</svg>
