<?xml version="1.0" encoding="UTF-8" standalone="no"?>
<!DOCTYPE svg PUBLIC "-//W3C//DTD SVG 1.1//EN"
 "http://www.w3.org/Graphics/SVG/1.1/DTD/svg11.dtd">
<!-- Generated by graphviz version 2.50.0 (0)
 -->
<!-- Pages: 1 -->
<svg width="837pt" height="692pt"
 viewBox="0.00 0.00 837.00 692.00" xmlns="http://www.w3.org/2000/svg" xmlns:xlink="http://www.w3.org/1999/xlink">
<g id="graph0" class="graph" transform="scale(1 1) rotate(0) translate(4 688)">
<polygon fill="white" stroke="transparent" points="-4,4 -4,-688 833,-688 833,4 -4,4"/>
<!-- ast.Module object at 0x703108f91590 -->
<g id="node1" class="node">
<title>ast.Module object at 0x703108f91590</title>
<path fill="#66cdaa" stroke="black" d="M252.5,-684C252.5,-684 217.5,-684 217.5,-684 211.5,-684 205.5,-678 205.5,-672 205.5,-672 205.5,-660 205.5,-660 205.5,-654 211.5,-648 217.5,-648 217.5,-648 252.5,-648 252.5,-648 258.5,-648 264.5,-654 264.5,-660 264.5,-660 264.5,-672 264.5,-672 264.5,-678 258.5,-684 252.5,-684"/>
<text text-anchor="middle" x="235" y="-662.3" font-family="Times,serif" font-size="14.00">Module</text>
</g>
<!-- ast.FunctionDef object at 0x703108f907d0 -->
<g id="node2" class="node">
<title>ast.FunctionDef object at 0x703108f907d0</title>
<path fill="#66cdaa" stroke="black" d="M265.5,-612C265.5,-612 204.5,-612 204.5,-612 198.5,-612 192.5,-606 192.5,-600 192.5,-600 192.5,-588 192.5,-588 192.5,-582 198.5,-576 204.5,-576 204.5,-576 265.5,-576 265.5,-576 271.5,-576 277.5,-582 277.5,-588 277.5,-588 277.5,-600 277.5,-600 277.5,-606 271.5,-612 265.5,-612"/>
<text text-anchor="middle" x="235" y="-590.3" font-family="Times,serif" font-size="14.00">FunctionDef</text>
</g>
<!-- ast.Module object at 0x703108f91590&#45;&gt;ast.FunctionDef object at 0x703108f907d0 -->
<g id="edge1" class="edge">
<title>ast.Module object at 0x703108f91590&#45;&gt;ast.FunctionDef object at 0x703108f907d0</title>
<path fill="none" stroke="black" d="M235,-647.7C235,-639.98 235,-630.71 235,-622.11"/>
<polygon fill="black" stroke="black" points="238.5,-622.1 235,-612.1 231.5,-622.1 238.5,-622.1"/>
</g>
<!-- ast.arguments object at 0x703108f02c10 -->
<g id="node3" class="node">
<title>ast.arguments object at 0x703108f02c10</title>
<path fill="#66cdaa" stroke="black" d="M69,-540C69,-540 19,-540 19,-540 13,-540 7,-534 7,-528 7,-528 7,-516 7,-516 7,-510 13,-504 19,-504 19,-504 69,-504 69,-504 75,-504 81,-510 81,-516 81,-516 81,-528 81,-528 81,-534 75,-540 69,-540"/>
<text text-anchor="middle" x="44" y="-518.3" font-family="Times,serif" font-size="14.00">arguments</text>
</g>
<!-- ast.FunctionDef object at 0x703108f907d0&#45;&gt;ast.arguments object at 0x703108f02c10 -->
<g id="edge2" class="edge">
<title>ast.FunctionDef object at 0x703108f907d0&#45;&gt;ast.arguments object at 0x703108f02c10</title>
<path fill="none" stroke="black" d="M192.14,-577.29C162.06,-566.27 121.87,-551.54 90.93,-540.2"/>
<polygon fill="black" stroke="black" points="91.83,-536.8 81.24,-536.65 89.43,-543.38 91.83,-536.8"/>
</g>
<!-- ast.Assign object at 0x7031090b2ad0 -->
<g id="node5" class="node">
<title>ast.Assign object at 0x7031090b2ad0</title>
<path fill="#66cdaa" stroke="black" d="M158,-540C158,-540 128,-540 128,-540 122,-540 116,-534 116,-528 116,-528 116,-516 116,-516 116,-510 122,-504 128,-504 128,-504 158,-504 158,-504 164,-504 170,-510 170,-516 170,-516 170,-528 170,-528 170,-534 164,-540 158,-540"/>
<text text-anchor="middle" x="143" y="-518.3" font-family="Times,serif" font-size="14.00">Assign</text>
</g>
<!-- ast.FunctionDef object at 0x703108f907d0&#45;&gt;ast.Assign object at 0x7031090b2ad0 -->
<g id="edge4" class="edge">
<title>ast.FunctionDef object at 0x703108f907d0&#45;&gt;ast.Assign object at 0x7031090b2ad0</title>
<path fill="none" stroke="black" d="M212.26,-575.7C200.56,-566.8 186.14,-555.82 173.49,-546.2"/>
<polygon fill="black" stroke="black" points="175.56,-543.37 165.48,-540.1 171.32,-548.94 175.56,-543.37"/>
</g>
<!-- ast.Assign object at 0x7031090b2fd0 -->
<g id="node9" class="node">
<title>ast.Assign object at 0x7031090b2fd0</title>
<path fill="#66cdaa" stroke="black" d="M250,-540C250,-540 220,-540 220,-540 214,-540 208,-534 208,-528 208,-528 208,-516 208,-516 208,-510 214,-504 220,-504 220,-504 250,-504 250,-504 256,-504 262,-510 262,-516 262,-516 262,-528 262,-528 262,-534 256,-540 250,-540"/>
<text text-anchor="middle" x="235" y="-518.3" font-family="Times,serif" font-size="14.00">Assign</text>
</g>
<!-- ast.FunctionDef object at 0x703108f907d0&#45;&gt;ast.Assign object at 0x7031090b2fd0 -->
<g id="edge8" class="edge">
<title>ast.FunctionDef object at 0x703108f907d0&#45;&gt;ast.Assign object at 0x7031090b2fd0</title>
<path fill="none" stroke="black" d="M235,-575.7C235,-567.98 235,-558.71 235,-550.11"/>
<polygon fill="black" stroke="black" points="238.5,-550.1 235,-540.1 231.5,-550.1 238.5,-550.1"/>
</g>
<!-- ast.Assign object at 0x7031090b3190 -->
<g id="node12" class="node">
<title>ast.Assign object at 0x7031090b3190</title>
<path fill="#66cdaa" stroke="black" d="M341,-540C341,-540 311,-540 311,-540 305,-540 299,-534 299,-528 299,-528 299,-516 299,-516 299,-510 305,-504 311,-504 311,-504 341,-504 341,-504 347,-504 353,-510 353,-516 353,-516 353,-528 353,-528 353,-534 347,-540 341,-540"/>
<text text-anchor="middle" x="326" y="-518.3" font-family="Times,serif" font-size="14.00">Assign</text>
</g>
<!-- ast.FunctionDef object at 0x703108f907d0&#45;&gt;ast.Assign object at 0x7031090b3190 -->
<g id="edge12" class="edge">
<title>ast.FunctionDef object at 0x703108f907d0&#45;&gt;ast.Assign object at 0x7031090b3190</title>
<path fill="none" stroke="black" d="M257.49,-575.7C268.96,-566.88 283.06,-556.03 295.48,-546.47"/>
<polygon fill="black" stroke="black" points="297.97,-548.98 303.76,-540.1 293.7,-543.43 297.97,-548.98"/>
</g>
<!-- ast.Return object at 0x7031090b2d10 -->
<g id="node18" class="node">
<title>ast.Return object at 0x7031090b2d10</title>
<path fill="#66cdaa" stroke="black" d="M535,-540C535,-540 505,-540 505,-540 499,-540 493,-534 493,-528 493,-528 493,-516 493,-516 493,-510 499,-504 505,-504 505,-504 535,-504 535,-504 541,-504 547,-510 547,-516 547,-516 547,-528 547,-528 547,-534 541,-540 535,-540"/>
<text text-anchor="middle" x="520" y="-518.3" font-family="Times,serif" font-size="14.00">Return</text>
</g>
<!-- ast.FunctionDef object at 0x703108f907d0&#45;&gt;ast.Return object at 0x7031090b2d10 -->
<g id="edge19" class="edge">
<title>ast.FunctionDef object at 0x703108f907d0&#45;&gt;ast.Return object at 0x7031090b2d10</title>
<path fill="none" stroke="black" d="M277.67,-582.52C333.42,-568.83 430.16,-545.07 482.98,-532.09"/>
<polygon fill="black" stroke="black" points="484.05,-535.43 492.93,-529.65 482.38,-528.64 484.05,-535.43"/>
</g>
<!-- ast.arg object at 0x7031090b27d0 -->
<g id="node4" class="node">
<title>ast.arg object at 0x7031090b27d0</title>
<path fill="#66cdaa" stroke="black" d="M42,-468C42,-468 12,-468 12,-468 6,-468 0,-462 0,-456 0,-456 0,-444 0,-444 0,-438 6,-432 12,-432 12,-432 42,-432 42,-432 48,-432 54,-438 54,-444 54,-444 54,-456 54,-456 54,-462 48,-468 42,-468"/>
<text text-anchor="middle" x="27" y="-446.3" font-family="Times,serif" font-size="14.00">arg</text>
</g>
<!-- ast.arguments object at 0x703108f02c10&#45;&gt;ast.arg object at 0x7031090b27d0 -->
<g id="edge3" class="edge">
<title>ast.arguments object at 0x703108f02c10&#45;&gt;ast.arg object at 0x7031090b27d0</title>
<path fill="none" stroke="black" d="M39.8,-503.7C37.9,-495.9 35.62,-486.51 33.52,-477.83"/>
<polygon fill="black" stroke="black" points="36.92,-477 31.15,-468.1 30.11,-478.65 36.92,-477"/>
</g>
<!-- ast.Name object at 0x7031090b2d50 -->
<g id="node6" class="node">
<title>ast.Name object at 0x7031090b2d50</title>
<path fill="#66cdaa" stroke="black" d="M122,-324C122,-324 92,-324 92,-324 86,-324 80,-318 80,-312 80,-312 80,-300 80,-300 80,-294 86,-288 92,-288 92,-288 122,-288 122,-288 128,-288 134,-294 134,-300 134,-300 134,-312 134,-312 134,-318 128,-324 122,-324"/>
<text text-anchor="middle" x="107" y="-302.3" font-family="Times,serif" font-size="14.00">Name</text>
</g>
<!-- ast.Assign object at 0x7031090b2ad0&#45;&gt;ast.Name object at 0x7031090b2d50 -->
<g id="edge5" class="edge">
<title>ast.Assign object at 0x7031090b2ad0&#45;&gt;ast.Name object at 0x7031090b2d50</title>
<path fill="none" stroke="black" d="M124.4,-503.76C115.47,-494.2 105.71,-481.53 101,-468 85.38,-423.15 93.12,-366.96 100.11,-334.21"/>
<polygon fill="black" stroke="black" points="103.61,-334.58 102.41,-324.05 96.78,-333.03 103.61,-334.58"/>
</g>
<!-- ast.Constant object at 0x7031090b2f90 -->
<g id="node8" class="node">
<title>ast.Constant object at 0x7031090b2f90</title>
<path fill="#66cdaa" stroke="black" d="M163.5,-468C163.5,-468 122.5,-468 122.5,-468 116.5,-468 110.5,-462 110.5,-456 110.5,-456 110.5,-444 110.5,-444 110.5,-438 116.5,-432 122.5,-432 122.5,-432 163.5,-432 163.5,-432 169.5,-432 175.5,-438 175.5,-444 175.5,-444 175.5,-456 175.5,-456 175.5,-462 169.5,-468 163.5,-468"/>
<text text-anchor="middle" x="143" y="-446.3" font-family="Times,serif" font-size="14.00">Constant</text>
</g>
<!-- ast.Assign object at 0x7031090b2ad0&#45;&gt;ast.Constant object at 0x7031090b2f90 -->
<g id="edge7" class="edge">
<title>ast.Assign object at 0x7031090b2ad0&#45;&gt;ast.Constant object at 0x7031090b2f90</title>
<path fill="none" stroke="black" d="M143,-503.7C143,-495.98 143,-486.71 143,-478.11"/>
<polygon fill="black" stroke="black" points="146.5,-478.1 143,-468.1 139.5,-478.1 146.5,-478.1"/>
</g>
<!-- ast.Store object at 0x7031ebab6a90 -->
<g id="node7" class="node">
<title>ast.Store object at 0x7031ebab6a90</title>
<path fill="#66cdaa" stroke="black" d="M219,-252C219,-252 189,-252 189,-252 183,-252 177,-246 177,-240 177,-240 177,-228 177,-228 177,-222 183,-216 189,-216 189,-216 219,-216 219,-216 225,-216 231,-222 231,-228 231,-228 231,-240 231,-240 231,-246 225,-252 219,-252"/>
<text text-anchor="middle" x="204" y="-230.3" font-family="Times,serif" font-size="14.00">Store</text>
</g>
<!-- ast.Name object at 0x7031090b2d50&#45;&gt;ast.Store object at 0x7031ebab6a90 -->
<g id="edge6" class="edge">
<title>ast.Name object at 0x7031090b2d50&#45;&gt;ast.Store object at 0x7031ebab6a90</title>
<path fill="none" stroke="black" d="M130.98,-287.7C143.31,-278.8 158.52,-267.82 171.85,-258.2"/>
<polygon fill="black" stroke="black" points="174.24,-260.79 180.3,-252.1 170.14,-255.12 174.24,-260.79"/>
</g>
<!-- ast.Name object at 0x7031090b1e90 -->
<g id="node10" class="node">
<title>ast.Name object at 0x7031090b1e90</title>
<path fill="#66cdaa" stroke="black" d="M219,-324C219,-324 189,-324 189,-324 183,-324 177,-318 177,-312 177,-312 177,-300 177,-300 177,-294 183,-288 189,-288 189,-288 219,-288 219,-288 225,-288 231,-294 231,-300 231,-300 231,-312 231,-312 231,-318 225,-324 219,-324"/>
<text text-anchor="middle" x="204" y="-302.3" font-family="Times,serif" font-size="14.00">Name</text>
</g>
<!-- ast.Assign object at 0x7031090b2fd0&#45;&gt;ast.Name object at 0x7031090b1e90 -->
<g id="edge9" class="edge">
<title>ast.Assign object at 0x7031090b2fd0&#45;&gt;ast.Name object at 0x7031090b1e90</title>
<path fill="none" stroke="black" d="M230.65,-503.91C228.14,-493.57 225.08,-480.09 223,-468 214.99,-421.35 209.3,-366.51 206.35,-334.38"/>
<polygon fill="black" stroke="black" points="209.8,-333.65 205.41,-324.01 202.82,-334.28 209.8,-333.65"/>
</g>
<!-- ast.Constant object at 0x7031090b30d0 -->
<g id="node11" class="node">
<title>ast.Constant object at 0x7031090b30d0</title>
<path fill="#66cdaa" stroke="black" d="M285.5,-468C285.5,-468 244.5,-468 244.5,-468 238.5,-468 232.5,-462 232.5,-456 232.5,-456 232.5,-444 232.5,-444 232.5,-438 238.5,-432 244.5,-432 244.5,-432 285.5,-432 285.5,-432 291.5,-432 297.5,-438 297.5,-444 297.5,-444 297.5,-456 297.5,-456 297.5,-462 291.5,-468 285.5,-468"/>
<text text-anchor="middle" x="265" y="-446.3" font-family="Times,serif" font-size="14.00">Constant</text>
</g>
<!-- ast.Assign object at 0x7031090b2fd0&#45;&gt;ast.Constant object at 0x7031090b30d0 -->
<g id="edge11" class="edge">
<title>ast.Assign object at 0x7031090b2fd0&#45;&gt;ast.Constant object at 0x7031090b30d0</title>
<path fill="none" stroke="black" d="M242.42,-503.7C245.79,-495.81 249.87,-486.3 253.62,-477.55"/>
<polygon fill="black" stroke="black" points="256.95,-478.67 257.67,-468.1 250.51,-475.92 256.95,-478.67"/>
</g>
<!-- ast.Name object at 0x7031090b1e90&#45;&gt;ast.Store object at 0x7031ebab6a90 -->
<g id="edge10" class="edge">
<title>ast.Name object at 0x7031090b1e90&#45;&gt;ast.Store object at 0x7031ebab6a90</title>
<path fill="none" stroke="black" d="M204,-287.7C204,-279.98 204,-270.71 204,-262.11"/>
<polygon fill="black" stroke="black" points="207.5,-262.1 204,-252.1 200.5,-262.1 207.5,-262.1"/>
</g>
<!-- ast.Name object at 0x7031090b1450 -->
<g id="node13" class="node">
<title>ast.Name object at 0x7031090b1450</title>
<path fill="#66cdaa" stroke="black" d="M292,-324C292,-324 262,-324 262,-324 256,-324 250,-318 250,-312 250,-312 250,-300 250,-300 250,-294 256,-288 262,-288 262,-288 292,-288 292,-288 298,-288 304,-294 304,-300 304,-300 304,-312 304,-312 304,-318 298,-324 292,-324"/>
<text text-anchor="middle" x="277" y="-302.3" font-family="Times,serif" font-size="14.00">Name</text>
</g>
<!-- ast.Assign object at 0x7031090b3190&#45;&gt;ast.Name object at 0x7031090b1450 -->
<g id="edge13" class="edge">
<title>ast.Assign object at 0x7031090b3190&#45;&gt;ast.Name object at 0x7031090b1450</title>
<path fill="none" stroke="black" d="M322.2,-503.93C318.2,-486.01 311.71,-457.01 306,-432 298.32,-398.36 289.32,-359.68 283.4,-334.36"/>
<polygon fill="black" stroke="black" points="286.76,-333.32 281.07,-324.38 279.94,-334.92 286.76,-333.32"/>
</g>
<!-- ast.BinOp object at 0x7031090b2750 -->
<g id="node14" class="node">
<title>ast.BinOp object at 0x7031090b2750</title>
<path fill="#66cdaa" stroke="black" d="M435,-468C435,-468 405,-468 405,-468 399,-468 393,-462 393,-456 393,-456 393,-444 393,-444 393,-438 399,-432 405,-432 405,-432 435,-432 435,-432 441,-432 447,-438 447,-444 447,-444 447,-456 447,-456 447,-462 441,-468 435,-468"/>
<text text-anchor="middle" x="420" y="-446.3" font-family="Times,serif" font-size="14.00">BinOp</text>
</g>
<!-- ast.Assign object at 0x7031090b3190&#45;&gt;ast.BinOp object at 0x7031090b2750 -->
<g id="edge15" class="edge">
<title>ast.Assign object at 0x7031090b3190&#45;&gt;ast.BinOp object at 0x7031090b2750</title>
<path fill="none" stroke="black" d="M349.24,-503.7C361.19,-494.8 375.92,-483.82 388.85,-474.2"/>
<polygon fill="black" stroke="black" points="391.1,-476.88 397.03,-468.1 386.92,-471.27 391.1,-476.88"/>
</g>
<!-- ast.Name object at 0x7031090b1450&#45;&gt;ast.Store object at 0x7031ebab6a90 -->
<g id="edge14" class="edge">
<title>ast.Name object at 0x7031090b1450&#45;&gt;ast.Store object at 0x7031ebab6a90</title>
<path fill="none" stroke="black" d="M258.96,-287.7C249.94,-279.05 238.88,-268.45 229.06,-259.03"/>
<polygon fill="black" stroke="black" points="231.48,-256.5 221.84,-252.1 226.63,-261.55 231.48,-256.5"/>
</g>
<!-- ast.Constant object at 0x7031090b2850 -->
<g id="node15" class="node">
<title>ast.Constant object at 0x7031090b2850</title>
<path fill="#66cdaa" stroke="black" d="M562.5,-396C562.5,-396 521.5,-396 521.5,-396 515.5,-396 509.5,-390 509.5,-384 509.5,-384 509.5,-372 509.5,-372 509.5,-366 515.5,-360 521.5,-360 521.5,-360 562.5,-360 562.5,-360 568.5,-360 574.5,-366 574.5,-372 574.5,-372 574.5,-384 574.5,-384 574.5,-390 568.5,-396 562.5,-396"/>
<text text-anchor="middle" x="542" y="-374.3" font-family="Times,serif" font-size="14.00">Constant</text>
</g>
<!-- ast.BinOp object at 0x7031090b2750&#45;&gt;ast.Constant object at 0x7031090b2850 -->
<g id="edge16" class="edge">
<title>ast.BinOp object at 0x7031090b2750&#45;&gt;ast.Constant object at 0x7031090b2850</title>
<path fill="none" stroke="black" d="M447.08,-433.46C463.61,-423.98 485.01,-411.7 503.31,-401.2"/>
<polygon fill="black" stroke="black" points="505.07,-404.22 512,-396.21 501.59,-398.15 505.07,-404.22"/>
</g>
<!-- ast.Mult object at 0x7031ebab7010 -->
<g id="node16" class="node">
<title>ast.Mult object at 0x7031ebab7010</title>
<path fill="#66cdaa" stroke="black" d="M396,-396C396,-396 366,-396 366,-396 360,-396 354,-390 354,-384 354,-384 354,-372 354,-372 354,-366 360,-360 366,-360 366,-360 396,-360 396,-360 402,-360 408,-366 408,-372 408,-372 408,-384 408,-384 408,-390 402,-396 396,-396"/>
<text text-anchor="middle" x="381" y="-374.3" font-family="Times,serif" font-size="14.00">Mult</text>
</g>
<!-- ast.BinOp object at 0x7031090b2750&#45;&gt;ast.Mult object at 0x7031ebab7010 -->
<g id="edge17" class="edge">
<title>ast.BinOp object at 0x7031090b2750&#45;&gt;ast.Mult object at 0x7031ebab7010</title>
<path fill="none" stroke="black" d="M410.36,-431.7C405.87,-423.64 400.44,-413.89 395.48,-404.98"/>
<polygon fill="black" stroke="black" points="398.45,-403.14 390.53,-396.1 392.34,-406.54 398.45,-403.14"/>
</g>
<!-- ast.Constant object at 0x7031090b34d0 -->
<g id="node17" class="node">
<title>ast.Constant object at 0x7031090b34d0</title>
<path fill="#66cdaa" stroke="black" d="M479.5,-396C479.5,-396 438.5,-396 438.5,-396 432.5,-396 426.5,-390 426.5,-384 426.5,-384 426.5,-372 426.5,-372 426.5,-366 432.5,-360 438.5,-360 438.5,-360 479.5,-360 479.5,-360 485.5,-360 491.5,-366 491.5,-372 491.5,-372 491.5,-384 491.5,-384 491.5,-390 485.5,-396 479.5,-396"/>
<text text-anchor="middle" x="459" y="-374.3" font-family="Times,serif" font-size="14.00">Constant</text>
</g>
<!-- ast.BinOp object at 0x7031090b2750&#45;&gt;ast.Constant object at 0x7031090b34d0 -->
<g id="edge18" class="edge">
<title>ast.BinOp object at 0x7031090b2750&#45;&gt;ast.Constant object at 0x7031090b34d0</title>
<path fill="none" stroke="black" d="M429.64,-431.7C434.13,-423.64 439.56,-413.89 444.52,-404.98"/>
<polygon fill="black" stroke="black" points="447.66,-406.54 449.47,-396.1 441.55,-403.14 447.66,-406.54"/>
</g>
<!-- ast.ListComp object at 0x7031090b28d0 -->
<g id="node19" class="node">
<title>ast.ListComp object at 0x7031090b28d0</title>
<path fill="#66cdaa" stroke="black" d="M666.5,-468C666.5,-468 619.5,-468 619.5,-468 613.5,-468 607.5,-462 607.5,-456 607.5,-456 607.5,-444 607.5,-444 607.5,-438 613.5,-432 619.5,-432 619.5,-432 666.5,-432 666.5,-432 672.5,-432 678.5,-438 678.5,-444 678.5,-444 678.5,-456 678.5,-456 678.5,-462 672.5,-468 666.5,-468"/>
<text text-anchor="middle" x="643" y="-446.3" font-family="Times,serif" font-size="14.00">ListComp</text>
</g>
<!-- ast.Return object at 0x7031090b2d10&#45;&gt;ast.ListComp object at 0x7031090b28d0 -->
<g id="edge20" class="edge">
<title>ast.Return object at 0x7031090b2d10&#45;&gt;ast.ListComp object at 0x7031090b28d0</title>
<path fill="none" stroke="black" d="M547.3,-505.46C563.96,-495.98 585.54,-483.7 603.99,-473.2"/>
<polygon fill="black" stroke="black" points="605.8,-476.2 612.76,-468.21 602.34,-470.12 605.8,-476.2"/>
</g>
<!-- ast.Name object at 0x7031090b22d0 -->
<g id="node20" class="node">
<title>ast.Name object at 0x7031090b22d0</title>
<path fill="#66cdaa" stroke="black" d="M817,-252C817,-252 787,-252 787,-252 781,-252 775,-246 775,-240 775,-240 775,-228 775,-228 775,-222 781,-216 787,-216 787,-216 817,-216 817,-216 823,-216 829,-222 829,-228 829,-228 829,-240 829,-240 829,-246 823,-252 817,-252"/>
<text text-anchor="middle" x="802" y="-230.3" font-family="Times,serif" font-size="14.00">Name</text>
</g>
<!-- ast.ListComp object at 0x7031090b28d0&#45;&gt;ast.Name object at 0x7031090b22d0 -->
<g id="edge21" class="edge">
<title>ast.ListComp object at 0x7031090b28d0&#45;&gt;ast.Name object at 0x7031090b22d0</title>
<path fill="none" stroke="black" d="M664.85,-431.93C676.62,-422.14 690.95,-409.19 702,-396 738.54,-352.38 771.35,-294.23 788.79,-261.08"/>
<polygon fill="black" stroke="black" points="791.98,-262.52 793.49,-252.03 785.77,-259.29 791.98,-262.52"/>
</g>
<!-- ast.comprehension object at 0x7031090b3550 -->
<g id="node22" class="node">
<title>ast.comprehension object at 0x7031090b3550</title>
<path fill="#66cdaa" stroke="black" d="M681,-396C681,-396 605,-396 605,-396 599,-396 593,-390 593,-384 593,-384 593,-372 593,-372 593,-366 599,-360 605,-360 605,-360 681,-360 681,-360 687,-360 693,-366 693,-372 693,-372 693,-384 693,-384 693,-390 687,-396 681,-396"/>
<text text-anchor="middle" x="643" y="-374.3" font-family="Times,serif" font-size="14.00">comprehension</text>
</g>
<!-- ast.ListComp object at 0x7031090b28d0&#45;&gt;ast.comprehension object at 0x7031090b3550 -->
<g id="edge23" class="edge">
<title>ast.ListComp object at 0x7031090b28d0&#45;&gt;ast.comprehension object at 0x7031090b3550</title>
<path fill="none" stroke="black" d="M643,-431.7C643,-423.98 643,-414.71 643,-406.11"/>
<polygon fill="black" stroke="black" points="646.5,-406.1 643,-396.1 639.5,-406.1 646.5,-406.1"/>
</g>
<!-- ast.Load object at 0x7031ebab6a10 -->
<g id="node21" class="node">
<title>ast.Load object at 0x7031ebab6a10</title>
<path fill="#66cdaa" stroke="black" d="M578,-36C578,-36 548,-36 548,-36 542,-36 536,-30 536,-24 536,-24 536,-12 536,-12 536,-6 542,0 548,0 548,0 578,0 578,0 584,0 590,-6 590,-12 590,-12 590,-24 590,-24 590,-30 584,-36 578,-36"/>
<text text-anchor="middle" x="563" y="-14.3" font-family="Times,serif" font-size="14.00">Load</text>
</g>
<!-- ast.Name object at 0x7031090b22d0&#45;&gt;ast.Load object at 0x7031ebab6a10 -->
<g id="edge22" class="edge">
<title>ast.Name object at 0x7031090b22d0&#45;&gt;ast.Load object at 0x7031ebab6a10</title>
<path fill="none" stroke="black" d="M807.83,-215.94C817.71,-183.55 833.42,-112.71 798,-72 772.49,-42.68 660.17,-28 600.53,-22.15"/>
<polygon fill="black" stroke="black" points="600.67,-18.65 590.38,-21.2 600.01,-25.62 600.67,-18.65"/>
</g>
<!-- ast.Name object at 0x7031090b37d0 -->
<g id="node23" class="node">
<title>ast.Name object at 0x7031090b37d0</title>
<path fill="#66cdaa" stroke="black" d="M365,-324C365,-324 335,-324 335,-324 329,-324 323,-318 323,-312 323,-312 323,-300 323,-300 323,-294 329,-288 335,-288 335,-288 365,-288 365,-288 371,-288 377,-294 377,-300 377,-300 377,-312 377,-312 377,-318 371,-324 365,-324"/>
<text text-anchor="middle" x="350" y="-302.3" font-family="Times,serif" font-size="14.00">Name</text>
</g>
<!-- ast.comprehension object at 0x7031090b3550&#45;&gt;ast.Name object at 0x7031090b37d0 -->
<g id="edge24" class="edge">
<title>ast.comprehension object at 0x7031090b3550&#45;&gt;ast.Name object at 0x7031090b37d0</title>
<path fill="none" stroke="black" d="M592.67,-362.37C589.41,-361.53 586.16,-360.74 583,-360 496.74,-339.91 471.45,-350.7 387,-324 386.9,-323.97 386.8,-323.94 386.7,-323.9"/>
<polygon fill="black" stroke="black" points="387.77,-320.57 377.18,-320.41 385.36,-327.14 387.77,-320.57"/>
</g>
<!-- ast.Subscript object at 0x7031090b14d0 -->
<g id="node24" class="node">
<title>ast.Subscript object at 0x7031090b14d0</title>
<path fill="#66cdaa" stroke="black" d="M452,-324C452,-324 408,-324 408,-324 402,-324 396,-318 396,-312 396,-312 396,-300 396,-300 396,-294 402,-288 408,-288 408,-288 452,-288 452,-288 458,-288 464,-294 464,-300 464,-300 464,-312 464,-312 464,-318 458,-324 452,-324"/>
<text text-anchor="middle" x="430" y="-302.3" font-family="Times,serif" font-size="14.00">Subscript</text>
</g>
<!-- ast.comprehension object at 0x7031090b3550&#45;&gt;ast.Subscript object at 0x7031090b14d0 -->
<g id="edge26" class="edge">
<title>ast.comprehension object at 0x7031090b3550&#45;&gt;ast.Subscript object at 0x7031090b14d0</title>
<path fill="none" stroke="black" d="M592.79,-360.5C556.75,-348.65 508.63,-332.84 474.07,-321.48"/>
<polygon fill="black" stroke="black" points="474.85,-318.05 464.25,-318.26 472.66,-324.7 474.85,-318.05"/>
</g>
<!-- ast.Compare object at 0x703109047690 -->
<g id="node32" class="node">
<title>ast.Compare object at 0x703109047690</title>
<path fill="#66cdaa" stroke="black" d="M694.5,-252C694.5,-252 651.5,-252 651.5,-252 645.5,-252 639.5,-246 639.5,-240 639.5,-240 639.5,-228 639.5,-228 639.5,-222 645.5,-216 651.5,-216 651.5,-216 694.5,-216 694.5,-216 700.5,-216 706.5,-222 706.5,-228 706.5,-228 706.5,-240 706.5,-240 706.5,-246 700.5,-252 694.5,-252"/>
<text text-anchor="middle" x="673" y="-230.3" font-family="Times,serif" font-size="14.00">Compare</text>
</g>
<!-- ast.comprehension object at 0x7031090b3550&#45;&gt;ast.Compare object at 0x703109047690 -->
<g id="edge38" class="edge">
<title>ast.comprehension object at 0x7031090b3550&#45;&gt;ast.Compare object at 0x703109047690</title>
<path fill="none" stroke="black" d="M646.62,-359.87C651.75,-335.56 661.21,-290.82 667.29,-262.01"/>
<polygon fill="black" stroke="black" points="670.73,-262.7 669.37,-252.19 663.88,-261.25 670.73,-262.7"/>
</g>
<!-- ast.Name object at 0x7031090b37d0&#45;&gt;ast.Store object at 0x7031ebab6a90 -->
<g id="edge25" class="edge">
<title>ast.Name object at 0x7031090b37d0&#45;&gt;ast.Store object at 0x7031ebab6a90</title>
<path fill="none" stroke="black" d="M322.88,-292C299.67,-280.87 266.06,-264.75 240.49,-252.5"/>
<polygon fill="black" stroke="black" points="242,-249.34 231.47,-248.17 238.97,-255.65 242,-249.34"/>
</g>
<!-- ast.Subscript object at 0x7031090b14d0&#45;&gt;ast.Load object at 0x7031ebab6a10 -->
<g id="edge37" class="edge">
<title>ast.Subscript object at 0x7031090b14d0&#45;&gt;ast.Load object at 0x7031ebab6a10</title>
<path fill="none" stroke="black" d="M395.67,-291.53C357.64,-276.54 301.45,-254.13 300,-252 254.91,-185.91 247.28,-133.87 298,-72 326.38,-37.39 459.65,-24.93 525.7,-20.83"/>
<polygon fill="black" stroke="black" points="525.92,-24.32 535.7,-20.24 525.51,-17.33 525.92,-24.32"/>
</g>
<!-- ast.Name object at 0x7031090b2dd0 -->
<g id="node25" class="node">
<title>ast.Name object at 0x7031090b2dd0</title>
<path fill="#66cdaa" stroke="black" d="M351,-252C351,-252 321,-252 321,-252 315,-252 309,-246 309,-240 309,-240 309,-228 309,-228 309,-222 315,-216 321,-216 321,-216 351,-216 351,-216 357,-216 363,-222 363,-228 363,-228 363,-240 363,-240 363,-246 357,-252 351,-252"/>
<text text-anchor="middle" x="336" y="-230.3" font-family="Times,serif" font-size="14.00">Name</text>
</g>
<!-- ast.Subscript object at 0x7031090b14d0&#45;&gt;ast.Name object at 0x7031090b2dd0 -->
<g id="edge27" class="edge">
<title>ast.Subscript object at 0x7031090b14d0&#45;&gt;ast.Name object at 0x7031090b2dd0</title>
<path fill="none" stroke="black" d="M406.76,-287.7C394.81,-278.8 380.08,-267.82 367.15,-258.2"/>
<polygon fill="black" stroke="black" points="369.08,-255.27 358.97,-252.1 364.9,-260.88 369.08,-255.27"/>
</g>
<!-- ast.Slice object at 0x7031090b2690 -->
<g id="node26" class="node">
<title>ast.Slice object at 0x7031090b2690</title>
<path fill="#66cdaa" stroke="black" d="M445,-252C445,-252 415,-252 415,-252 409,-252 403,-246 403,-240 403,-240 403,-228 403,-228 403,-222 409,-216 415,-216 415,-216 445,-216 445,-216 451,-216 457,-222 457,-228 457,-228 457,-240 457,-240 457,-246 451,-252 445,-252"/>
<text text-anchor="middle" x="430" y="-230.3" font-family="Times,serif" font-size="14.00">Slice</text>
</g>
<!-- ast.Subscript object at 0x7031090b14d0&#45;&gt;ast.Slice object at 0x7031090b2690 -->
<g id="edge29" class="edge">
<title>ast.Subscript object at 0x7031090b14d0&#45;&gt;ast.Slice object at 0x7031090b2690</title>
<path fill="none" stroke="black" d="M430,-287.7C430,-279.98 430,-270.71 430,-262.11"/>
<polygon fill="black" stroke="black" points="433.5,-262.1 430,-252.1 426.5,-262.1 433.5,-262.1"/>
</g>
<!-- ast.Name object at 0x7031090b2dd0&#45;&gt;ast.Load object at 0x7031ebab6a10 -->
<g id="edge28" class="edge">
<title>ast.Name object at 0x7031090b2dd0&#45;&gt;ast.Load object at 0x7031ebab6a10</title>
<path fill="none" stroke="black" d="M326.5,-215.73C310.25,-183.59 282.01,-114.06 316,-72 341.93,-39.92 463.13,-26.37 525.58,-21.44"/>
<polygon fill="black" stroke="black" points="526.09,-24.91 535.8,-20.66 525.56,-17.93 526.09,-24.91"/>
</g>
<!-- ast.Name object at 0x7031090b3310 -->
<g id="node27" class="node">
<title>ast.Name object at 0x7031090b3310</title>
<path fill="#66cdaa" stroke="black" d="M533,-180C533,-180 503,-180 503,-180 497,-180 491,-174 491,-168 491,-168 491,-156 491,-156 491,-150 497,-144 503,-144 503,-144 533,-144 533,-144 539,-144 545,-150 545,-156 545,-156 545,-168 545,-168 545,-174 539,-180 533,-180"/>
<text text-anchor="middle" x="518" y="-158.3" font-family="Times,serif" font-size="14.00">Name</text>
</g>
<!-- ast.Slice object at 0x7031090b2690&#45;&gt;ast.Name object at 0x7031090b3310 -->
<g id="edge30" class="edge">
<title>ast.Slice object at 0x7031090b2690&#45;&gt;ast.Name object at 0x7031090b3310</title>
<path fill="none" stroke="black" d="M451.75,-215.7C462.84,-206.88 476.47,-196.03 488.49,-186.47"/>
<polygon fill="black" stroke="black" points="490.85,-189.07 496.5,-180.1 486.49,-183.59 490.85,-189.07"/>
</g>
<!-- ast.BinOp object at 0x703109044f90 -->
<g id="node28" class="node">
<title>ast.BinOp object at 0x703109044f90</title>
<path fill="#66cdaa" stroke="black" d="M445,-180C445,-180 415,-180 415,-180 409,-180 403,-174 403,-168 403,-168 403,-156 403,-156 403,-150 409,-144 415,-144 415,-144 445,-144 445,-144 451,-144 457,-150 457,-156 457,-156 457,-168 457,-168 457,-174 451,-180 445,-180"/>
<text text-anchor="middle" x="430" y="-158.3" font-family="Times,serif" font-size="14.00">BinOp</text>
</g>
<!-- ast.Slice object at 0x7031090b2690&#45;&gt;ast.BinOp object at 0x703109044f90 -->
<g id="edge32" class="edge">
<title>ast.Slice object at 0x7031090b2690&#45;&gt;ast.BinOp object at 0x703109044f90</title>
<path fill="none" stroke="black" d="M430,-215.7C430,-207.98 430,-198.71 430,-190.11"/>
<polygon fill="black" stroke="black" points="433.5,-190.1 430,-180.1 426.5,-190.1 433.5,-190.1"/>
</g>
<!-- ast.Name object at 0x7031090b3310&#45;&gt;ast.Load object at 0x7031ebab6a10 -->
<g id="edge31" class="edge">
<title>ast.Name object at 0x7031090b3310&#45;&gt;ast.Load object at 0x7031ebab6a10</title>
<path fill="none" stroke="black" d="M527.78,-143.8C533.21,-133.65 539.71,-120.4 544,-108 551.01,-87.75 555.92,-63.98 559,-46.1"/>
<polygon fill="black" stroke="black" points="562.48,-46.5 560.63,-36.07 555.57,-45.37 562.48,-46.5"/>
</g>
<!-- ast.Name object at 0x703109046810 -->
<g id="node29" class="node">
<title>ast.Name object at 0x703109046810</title>
<path fill="#66cdaa" stroke="black" d="M523,-108C523,-108 493,-108 493,-108 487,-108 481,-102 481,-96 481,-96 481,-84 481,-84 481,-78 487,-72 493,-72 493,-72 523,-72 523,-72 529,-72 535,-78 535,-84 535,-84 535,-96 535,-96 535,-102 529,-108 523,-108"/>
<text text-anchor="middle" x="508" y="-86.3" font-family="Times,serif" font-size="14.00">Name</text>
</g>
<!-- ast.BinOp object at 0x703109044f90&#45;&gt;ast.Name object at 0x703109046810 -->
<g id="edge33" class="edge">
<title>ast.BinOp object at 0x703109044f90&#45;&gt;ast.Name object at 0x703109046810</title>
<path fill="none" stroke="black" d="M449.28,-143.7C458.92,-135.05 470.73,-124.45 481.23,-115.03"/>
<polygon fill="black" stroke="black" points="483.84,-117.39 488.94,-108.1 479.16,-112.18 483.84,-117.39"/>
</g>
<!-- ast.Add object at 0x7031ebab6f10 -->
<g id="node30" class="node">
<title>ast.Add object at 0x7031ebab6f10</title>
<path fill="#66cdaa" stroke="black" d="M367,-108C367,-108 337,-108 337,-108 331,-108 325,-102 325,-96 325,-96 325,-84 325,-84 325,-78 331,-72 337,-72 337,-72 367,-72 367,-72 373,-72 379,-78 379,-84 379,-84 379,-96 379,-96 379,-102 373,-108 367,-108"/>
<text text-anchor="middle" x="352" y="-86.3" font-family="Times,serif" font-size="14.00">Add</text>
</g>
<!-- ast.BinOp object at 0x703109044f90&#45;&gt;ast.Add object at 0x7031ebab6f10 -->
<g id="edge35" class="edge">
<title>ast.BinOp object at 0x703109044f90&#45;&gt;ast.Add object at 0x7031ebab6f10</title>
<path fill="none" stroke="black" d="M410.72,-143.7C401.08,-135.05 389.27,-124.45 378.77,-115.03"/>
<polygon fill="black" stroke="black" points="380.84,-112.18 371.06,-108.1 376.16,-117.39 380.84,-112.18"/>
</g>
<!-- ast.Constant object at 0x703109044190 -->
<g id="node31" class="node">
<title>ast.Constant object at 0x703109044190</title>
<path fill="#66cdaa" stroke="black" d="M450.5,-108C450.5,-108 409.5,-108 409.5,-108 403.5,-108 397.5,-102 397.5,-96 397.5,-96 397.5,-84 397.5,-84 397.5,-78 403.5,-72 409.5,-72 409.5,-72 450.5,-72 450.5,-72 456.5,-72 462.5,-78 462.5,-84 462.5,-84 462.5,-96 462.5,-96 462.5,-102 456.5,-108 450.5,-108"/>
<text text-anchor="middle" x="430" y="-86.3" font-family="Times,serif" font-size="14.00">Constant</text>
</g>
<!-- ast.BinOp object at 0x703109044f90&#45;&gt;ast.Constant object at 0x703109044190 -->
<g id="edge36" class="edge">
<title>ast.BinOp object at 0x703109044f90&#45;&gt;ast.Constant object at 0x703109044190</title>
<path fill="none" stroke="black" d="M430,-143.7C430,-135.98 430,-126.71 430,-118.11"/>
<polygon fill="black" stroke="black" points="433.5,-118.1 430,-108.1 426.5,-118.1 433.5,-118.1"/>
</g>
<!-- ast.Name object at 0x703109046810&#45;&gt;ast.Load object at 0x7031ebab6a10 -->
<g id="edge34" class="edge">
<title>ast.Name object at 0x703109046810&#45;&gt;ast.Load object at 0x7031ebab6a10</title>
<path fill="none" stroke="black" d="M521.6,-71.7C528.12,-63.39 536.07,-53.28 543.25,-44.14"/>
<polygon fill="black" stroke="black" points="546.13,-46.13 549.56,-36.1 540.63,-41.81 546.13,-46.13"/>
</g>
<!-- ast.BinOp object at 0x7031090440d0 -->
<g id="node33" class="node">
<title>ast.BinOp object at 0x7031090440d0</title>
<path fill="#66cdaa" stroke="black" d="M627,-180C627,-180 597,-180 597,-180 591,-180 585,-174 585,-168 585,-168 585,-156 585,-156 585,-150 591,-144 597,-144 597,-144 627,-144 627,-144 633,-144 639,-150 639,-156 639,-156 639,-168 639,-168 639,-174 633,-180 627,-180"/>
<text text-anchor="middle" x="612" y="-158.3" font-family="Times,serif" font-size="14.00">BinOp</text>
</g>
<!-- ast.Compare object at 0x703109047690&#45;&gt;ast.BinOp object at 0x7031090440d0 -->
<g id="edge39" class="edge">
<title>ast.Compare object at 0x703109047690&#45;&gt;ast.BinOp object at 0x7031090440d0</title>
<path fill="none" stroke="black" d="M657.92,-215.7C650.61,-207.3 641.69,-197.07 633.66,-187.86"/>
<polygon fill="black" stroke="black" points="636.11,-185.34 626.91,-180.1 630.84,-189.94 636.11,-185.34"/>
</g>
<!-- ast.Eq object at 0x7031ebab7a10 -->
<g id="node37" class="node">
<title>ast.Eq object at 0x7031ebab7a10</title>
<path fill="#66cdaa" stroke="black" d="M699,-180C699,-180 669,-180 669,-180 663,-180 657,-174 657,-168 657,-168 657,-156 657,-156 657,-150 663,-144 669,-144 669,-144 699,-144 699,-144 705,-144 711,-150 711,-156 711,-156 711,-168 711,-168 711,-174 705,-180 699,-180"/>
<text text-anchor="middle" x="684" y="-158.3" font-family="Times,serif" font-size="14.00">Eq</text>
</g>
<!-- ast.Compare object at 0x703109047690&#45;&gt;ast.Eq object at 0x7031ebab7a10 -->
<g id="edge45" class="edge">
<title>ast.Compare object at 0x703109047690&#45;&gt;ast.Eq object at 0x7031ebab7a10</title>
<path fill="none" stroke="black" d="M675.72,-215.7C676.93,-207.98 678.39,-198.71 679.74,-190.11"/>
<polygon fill="black" stroke="black" points="683.22,-190.53 681.31,-180.1 676.3,-189.44 683.22,-190.53"/>
</g>
<!-- ast.Constant object at 0x7031090e1190 -->
<g id="node38" class="node">
<title>ast.Constant object at 0x7031090e1190</title>
<path fill="#66cdaa" stroke="black" d="M782.5,-180C782.5,-180 741.5,-180 741.5,-180 735.5,-180 729.5,-174 729.5,-168 729.5,-168 729.5,-156 729.5,-156 729.5,-150 735.5,-144 741.5,-144 741.5,-144 782.5,-144 782.5,-144 788.5,-144 794.5,-150 794.5,-156 794.5,-156 794.5,-168 794.5,-168 794.5,-174 788.5,-180 782.5,-180"/>
<text text-anchor="middle" x="762" y="-158.3" font-family="Times,serif" font-size="14.00">Constant</text>
</g>
<!-- ast.Compare object at 0x703109047690&#45;&gt;ast.Constant object at 0x7031090e1190 -->
<g id="edge46" class="edge">
<title>ast.Compare object at 0x703109047690&#45;&gt;ast.Constant object at 0x7031090e1190</title>
<path fill="none" stroke="black" d="M695,-215.7C706.21,-206.88 720,-196.03 732.15,-186.47"/>
<polygon fill="black" stroke="black" points="734.56,-189.04 740.25,-180.1 730.23,-183.54 734.56,-189.04"/>
</g>
<!-- ast.Name object at 0x7031090e3850 -->
<g id="node34" class="node">
<title>ast.Name object at 0x7031090e3850</title>
<path fill="#66cdaa" stroke="black" d="M633,-108C633,-108 603,-108 603,-108 597,-108 591,-102 591,-96 591,-96 591,-84 591,-84 591,-78 597,-72 603,-72 603,-72 633,-72 633,-72 639,-72 645,-78 645,-84 645,-84 645,-96 645,-96 645,-102 639,-108 633,-108"/>
<text text-anchor="middle" x="618" y="-86.3" font-family="Times,serif" font-size="14.00">Name</text>
</g>
<!-- ast.BinOp object at 0x7031090440d0&#45;&gt;ast.Name object at 0x7031090e3850 -->
<g id="edge40" class="edge">
<title>ast.BinOp object at 0x7031090440d0&#45;&gt;ast.Name object at 0x7031090e3850</title>
<path fill="none" stroke="black" d="M613.48,-143.7C614.14,-135.98 614.94,-126.71 615.68,-118.11"/>
<polygon fill="black" stroke="black" points="619.17,-118.37 616.53,-108.1 612.19,-117.77 619.17,-118.37"/>
</g>
<!-- ast.Mod object at 0x7031ebab7190 -->
<g id="node35" class="node">
<title>ast.Mod object at 0x7031ebab7190</title>
<path fill="#66cdaa" stroke="black" d="M777,-108C777,-108 747,-108 747,-108 741,-108 735,-102 735,-96 735,-96 735,-84 735,-84 735,-78 741,-72 747,-72 747,-72 777,-72 777,-72 783,-72 789,-78 789,-84 789,-84 789,-96 789,-96 789,-102 783,-108 777,-108"/>
<text text-anchor="middle" x="762" y="-86.3" font-family="Times,serif" font-size="14.00">Mod</text>
</g>
<!-- ast.BinOp object at 0x7031090440d0&#45;&gt;ast.Mod object at 0x7031ebab7190 -->
<g id="edge42" class="edge">
<title>ast.BinOp object at 0x7031090440d0&#45;&gt;ast.Mod object at 0x7031ebab7190</title>
<path fill="none" stroke="black" d="M639.11,-148.16C642.11,-146.76 645.12,-145.35 648,-144 680.03,-129.05 689.95,-124.77 725.75,-108.1"/>
<polygon fill="black" stroke="black" points="727.3,-111.24 734.89,-103.84 724.34,-104.89 727.3,-111.24"/>
</g>
<!-- ast.Name object at 0x7031090e29d0 -->
<g id="node36" class="node">
<title>ast.Name object at 0x7031090e29d0</title>
<path fill="#66cdaa" stroke="black" d="M705,-108C705,-108 675,-108 675,-108 669,-108 663,-102 663,-96 663,-96 663,-84 663,-84 663,-78 669,-72 675,-72 675,-72 705,-72 705,-72 711,-72 717,-78 717,-84 717,-84 717,-96 717,-96 717,-102 711,-108 705,-108"/>
<text text-anchor="middle" x="690" y="-86.3" font-family="Times,serif" font-size="14.00">Name</text>
</g>
<!-- ast.BinOp object at 0x7031090440d0&#45;&gt;ast.Name object at 0x7031090e29d0 -->
<g id="edge43" class="edge">
<title>ast.BinOp object at 0x7031090440d0&#45;&gt;ast.Name object at 0x7031090e29d0</title>
<path fill="none" stroke="black" d="M631.28,-143.7C640.92,-135.05 652.73,-124.45 663.23,-115.03"/>
<polygon fill="black" stroke="black" points="665.84,-117.39 670.94,-108.1 661.16,-112.18 665.84,-117.39"/>
</g>
<!-- ast.Name object at 0x7031090e3850&#45;&gt;ast.Load object at 0x7031ebab6a10 -->
<g id="edge41" class="edge">
<title>ast.Name object at 0x7031090e3850&#45;&gt;ast.Load object at 0x7031ebab6a10</title>
<path fill="none" stroke="black" d="M604.4,-71.7C597.88,-63.39 589.93,-53.28 582.75,-44.14"/>
<polygon fill="black" stroke="black" points="585.37,-41.81 576.44,-36.1 579.87,-46.13 585.37,-41.81"/>
</g>
<!-- ast.Name object at 0x7031090e29d0&#45;&gt;ast.Load object at 0x7031ebab6a10 -->
<g id="edge44" class="edge">
<title>ast.Name object at 0x7031090e29d0&#45;&gt;ast.Load object at 0x7031ebab6a10</title>
<path fill="none" stroke="black" d="M662.76,-73.98C644.17,-63.74 619.36,-50.07 599.13,-38.92"/>
<polygon fill="black" stroke="black" points="600.65,-35.75 590.2,-33.99 597.27,-41.88 600.65,-35.75"/>
</g>
</g>
</svg>
