<?xml version="1.0" encoding="UTF-8" standalone="no"?>
<!DOCTYPE svg PUBLIC "-//W3C//DTD SVG 1.1//EN"
 "http://www.w3.org/Graphics/SVG/1.1/DTD/svg11.dtd">
<!-- Generated by graphviz version 2.50.0 (0)
 -->
<!-- Pages: 1 -->
<svg width="1548pt" height="1052pt"
 viewBox="0.00 0.00 1548.34 1052.00" xmlns="http://www.w3.org/2000/svg" xmlns:xlink="http://www.w3.org/1999/xlink">
<g id="graph0" class="graph" transform="scale(1 1) rotate(0) translate(4 1048)">
<polygon fill="white" stroke="transparent" points="-4,4 -4,-1048 1544.34,-1048 1544.34,4 -4,4"/>
<!-- ast.Module object at 0x75bcf8af74d0 -->
<g id="node1" class="node">
<title>ast.Module object at 0x75bcf8af74d0</title>
<path fill="#66cdaa" stroke="black" d="M203.84,-1044C203.84,-1044 168.84,-1044 168.84,-1044 162.84,-1044 156.84,-1038 156.84,-1032 156.84,-1032 156.84,-1020 156.84,-1020 156.84,-1014 162.84,-1008 168.84,-1008 168.84,-1008 203.84,-1008 203.84,-1008 209.84,-1008 215.84,-1014 215.84,-1020 215.84,-1020 215.84,-1032 215.84,-1032 215.84,-1038 209.84,-1044 203.84,-1044"/>
<text text-anchor="middle" x="186.34" y="-1022.3" font-family="Times,serif" font-size="14.00">Module</text>
</g>
<!-- ast.FunctionDef object at 0x75bcf8af4590 -->
<g id="node2" class="node">
<title>ast.FunctionDef object at 0x75bcf8af4590</title>
<path fill="#66cdaa" stroke="black" d="M216.84,-972C216.84,-972 155.84,-972 155.84,-972 149.84,-972 143.84,-966 143.84,-960 143.84,-960 143.84,-948 143.84,-948 143.84,-942 149.84,-936 155.84,-936 155.84,-936 216.84,-936 216.84,-936 222.84,-936 228.84,-942 228.84,-948 228.84,-948 228.84,-960 228.84,-960 228.84,-966 222.84,-972 216.84,-972"/>
<text text-anchor="middle" x="186.34" y="-950.3" font-family="Times,serif" font-size="14.00">FunctionDef</text>
</g>
<!-- ast.Module object at 0x75bcf8af74d0&#45;&gt;ast.FunctionDef object at 0x75bcf8af4590 -->
<g id="edge1" class="edge">
<title>ast.Module object at 0x75bcf8af74d0&#45;&gt;ast.FunctionDef object at 0x75bcf8af4590</title>
<path fill="none" stroke="black" d="M186.34,-1007.7C186.34,-999.98 186.34,-990.71 186.34,-982.11"/>
<polygon fill="black" stroke="black" points="189.84,-982.1 186.34,-972.1 182.84,-982.1 189.84,-982.1"/>
</g>
<!-- ast.arguments object at 0x75bcf8af43d0 -->
<g id="node3" class="node">
<title>ast.arguments object at 0x75bcf8af43d0</title>
<path fill="#66cdaa" stroke="black" d="M121.34,-900C121.34,-900 71.34,-900 71.34,-900 65.34,-900 59.34,-894 59.34,-888 59.34,-888 59.34,-876 59.34,-876 59.34,-870 65.34,-864 71.34,-864 71.34,-864 121.34,-864 121.34,-864 127.34,-864 133.34,-870 133.34,-876 133.34,-876 133.34,-888 133.34,-888 133.34,-894 127.34,-900 121.34,-900"/>
<text text-anchor="middle" x="96.34" y="-878.3" font-family="Times,serif" font-size="14.00">arguments</text>
</g>
<!-- ast.FunctionDef object at 0x75bcf8af4590&#45;&gt;ast.arguments object at 0x75bcf8af43d0 -->
<g id="edge2" class="edge">
<title>ast.FunctionDef object at 0x75bcf8af4590&#45;&gt;ast.arguments object at 0x75bcf8af43d0</title>
<path fill="none" stroke="black" d="M164.09,-935.7C152.76,-926.88 138.81,-916.03 126.52,-906.47"/>
<polygon fill="black" stroke="black" points="128.37,-903.48 118.33,-900.1 124.07,-909.01 128.37,-903.48"/>
</g>
<!-- ast.Assign object at 0x75bcf8af5790 -->
<g id="node5" class="node">
<title>ast.Assign object at 0x75bcf8af5790</title>
<path fill="#66cdaa" stroke="black" d="M201.34,-900C201.34,-900 171.34,-900 171.34,-900 165.34,-900 159.34,-894 159.34,-888 159.34,-888 159.34,-876 159.34,-876 159.34,-870 165.34,-864 171.34,-864 171.34,-864 201.34,-864 201.34,-864 207.34,-864 213.34,-870 213.34,-876 213.34,-876 213.34,-888 213.34,-888 213.34,-894 207.34,-900 201.34,-900"/>
<text text-anchor="middle" x="186.34" y="-878.3" font-family="Times,serif" font-size="14.00">Assign</text>
</g>
<!-- ast.FunctionDef object at 0x75bcf8af4590&#45;&gt;ast.Assign object at 0x75bcf8af5790 -->
<g id="edge4" class="edge">
<title>ast.FunctionDef object at 0x75bcf8af4590&#45;&gt;ast.Assign object at 0x75bcf8af5790</title>
<path fill="none" stroke="black" d="M186.34,-935.7C186.34,-927.98 186.34,-918.71 186.34,-910.11"/>
<polygon fill="black" stroke="black" points="189.84,-910.1 186.34,-900.1 182.84,-910.1 189.84,-910.1"/>
</g>
<!-- ast.Return object at 0x75bcf8af4c50 -->
<g id="node9" class="node">
<title>ast.Return object at 0x75bcf8af4c50</title>
<path fill="#66cdaa" stroke="black" d="M284.34,-900C284.34,-900 254.34,-900 254.34,-900 248.34,-900 242.34,-894 242.34,-888 242.34,-888 242.34,-876 242.34,-876 242.34,-870 248.34,-864 254.34,-864 254.34,-864 284.34,-864 284.34,-864 290.34,-864 296.34,-870 296.34,-876 296.34,-876 296.34,-888 296.34,-888 296.34,-894 290.34,-900 284.34,-900"/>
<text text-anchor="middle" x="269.34" y="-878.3" font-family="Times,serif" font-size="14.00">Return</text>
</g>
<!-- ast.FunctionDef object at 0x75bcf8af4590&#45;&gt;ast.Return object at 0x75bcf8af4c50 -->
<g id="edge8" class="edge">
<title>ast.FunctionDef object at 0x75bcf8af4590&#45;&gt;ast.Return object at 0x75bcf8af4c50</title>
<path fill="none" stroke="black" d="M206.85,-935.7C217.21,-926.97 229.92,-916.24 241.18,-906.75"/>
<polygon fill="black" stroke="black" points="243.67,-909.23 249.06,-900.1 239.16,-903.88 243.67,-909.23"/>
</g>
<!-- ast.arg object at 0x75bcf8af5d10 -->
<g id="node4" class="node">
<title>ast.arg object at 0x75bcf8af5d10</title>
<path fill="#66cdaa" stroke="black" d="M94.34,-828C94.34,-828 64.34,-828 64.34,-828 58.34,-828 52.34,-822 52.34,-816 52.34,-816 52.34,-804 52.34,-804 52.34,-798 58.34,-792 64.34,-792 64.34,-792 94.34,-792 94.34,-792 100.34,-792 106.34,-798 106.34,-804 106.34,-804 106.34,-816 106.34,-816 106.34,-822 100.34,-828 94.34,-828"/>
<text text-anchor="middle" x="79.34" y="-806.3" font-family="Times,serif" font-size="14.00">arg</text>
</g>
<!-- ast.arguments object at 0x75bcf8af43d0&#45;&gt;ast.arg object at 0x75bcf8af5d10 -->
<g id="edge3" class="edge">
<title>ast.arguments object at 0x75bcf8af43d0&#45;&gt;ast.arg object at 0x75bcf8af5d10</title>
<path fill="none" stroke="black" d="M92.14,-863.7C90.24,-855.9 87.96,-846.51 85.85,-837.83"/>
<polygon fill="black" stroke="black" points="89.25,-837 83.49,-828.1 82.45,-838.65 89.25,-837"/>
</g>
<!-- ast.Name object at 0x75bcf8af4610 -->
<g id="node6" class="node">
<title>ast.Name object at 0x75bcf8af4610</title>
<path fill="#66cdaa" stroke="black" d="M149.34,-756C149.34,-756 119.34,-756 119.34,-756 113.34,-756 107.34,-750 107.34,-744 107.34,-744 107.34,-732 107.34,-732 107.34,-726 113.34,-720 119.34,-720 119.34,-720 149.34,-720 149.34,-720 155.34,-720 161.34,-726 161.34,-732 161.34,-732 161.34,-744 161.34,-744 161.34,-750 155.34,-756 149.34,-756"/>
<text text-anchor="middle" x="134.34" y="-734.3" font-family="Times,serif" font-size="14.00">Name</text>
</g>
<!-- ast.Assign object at 0x75bcf8af5790&#45;&gt;ast.Name object at 0x75bcf8af4610 -->
<g id="edge5" class="edge">
<title>ast.Assign object at 0x75bcf8af5790&#45;&gt;ast.Name object at 0x75bcf8af4610</title>
<path fill="none" stroke="black" d="M173.41,-863.68C166.52,-853.7 158.45,-840.66 153.34,-828 145.32,-808.13 140.46,-784.33 137.67,-766.35"/>
<polygon fill="black" stroke="black" points="141.11,-765.65 136.22,-756.25 134.18,-766.64 141.11,-765.65"/>
</g>
<!-- ast.Constant object at 0x75bcf8af68d0 -->
<g id="node8" class="node">
<title>ast.Constant object at 0x75bcf8af68d0</title>
<path fill="#66cdaa" stroke="black" d="M215.84,-828C215.84,-828 174.84,-828 174.84,-828 168.84,-828 162.84,-822 162.84,-816 162.84,-816 162.84,-804 162.84,-804 162.84,-798 168.84,-792 174.84,-792 174.84,-792 215.84,-792 215.84,-792 221.84,-792 227.84,-798 227.84,-804 227.84,-804 227.84,-816 227.84,-816 227.84,-822 221.84,-828 215.84,-828"/>
<text text-anchor="middle" x="195.34" y="-806.3" font-family="Times,serif" font-size="14.00">Constant</text>
</g>
<!-- ast.Assign object at 0x75bcf8af5790&#45;&gt;ast.Constant object at 0x75bcf8af68d0 -->
<g id="edge7" class="edge">
<title>ast.Assign object at 0x75bcf8af5790&#45;&gt;ast.Constant object at 0x75bcf8af68d0</title>
<path fill="none" stroke="black" d="M188.56,-863.7C189.55,-855.98 190.75,-846.71 191.85,-838.11"/>
<polygon fill="black" stroke="black" points="195.33,-838.47 193.14,-828.1 188.39,-837.58 195.33,-838.47"/>
</g>
<!-- ast.Store object at 0x75be41f02c10 -->
<g id="node7" class="node">
<title>ast.Store object at 0x75be41f02c10</title>
<path fill="#66cdaa" stroke="black" d="M259.34,-612C259.34,-612 229.34,-612 229.34,-612 223.34,-612 217.34,-606 217.34,-600 217.34,-600 217.34,-588 217.34,-588 217.34,-582 223.34,-576 229.34,-576 229.34,-576 259.34,-576 259.34,-576 265.34,-576 271.34,-582 271.34,-588 271.34,-588 271.34,-600 271.34,-600 271.34,-606 265.34,-612 259.34,-612"/>
<text text-anchor="middle" x="244.34" y="-590.3" font-family="Times,serif" font-size="14.00">Store</text>
</g>
<!-- ast.Name object at 0x75bcf8af4610&#45;&gt;ast.Store object at 0x75be41f02c10 -->
<g id="edge6" class="edge">
<title>ast.Name object at 0x75bcf8af4610&#45;&gt;ast.Store object at 0x75be41f02c10</title>
<path fill="none" stroke="black" d="M147.61,-719.87C166.85,-695.03 202.63,-648.85 224.86,-620.14"/>
<polygon fill="black" stroke="black" points="227.66,-622.24 231.02,-612.19 222.13,-617.95 227.66,-622.24"/>
</g>
<!-- ast.SetComp object at 0x75bcf8af7a10 -->
<g id="node10" class="node">
<title>ast.SetComp object at 0x75bcf8af7a10</title>
<path fill="#66cdaa" stroke="black" d="M302.34,-828C302.34,-828 258.34,-828 258.34,-828 252.34,-828 246.34,-822 246.34,-816 246.34,-816 246.34,-804 246.34,-804 246.34,-798 252.34,-792 258.34,-792 258.34,-792 302.34,-792 302.34,-792 308.34,-792 314.34,-798 314.34,-804 314.34,-804 314.34,-816 314.34,-816 314.34,-822 308.34,-828 302.34,-828"/>
<text text-anchor="middle" x="280.34" y="-806.3" font-family="Times,serif" font-size="14.00">SetComp</text>
</g>
<!-- ast.Return object at 0x75bcf8af4c50&#45;&gt;ast.SetComp object at 0x75bcf8af7a10 -->
<g id="edge9" class="edge">
<title>ast.Return object at 0x75bcf8af4c50&#45;&gt;ast.SetComp object at 0x75bcf8af7a10</title>
<path fill="none" stroke="black" d="M272.06,-863.7C273.27,-855.98 274.73,-846.71 276.08,-838.11"/>
<polygon fill="black" stroke="black" points="279.55,-838.53 277.65,-828.1 272.64,-837.44 279.55,-838.53"/>
</g>
<!-- ast.Subscript object at 0x75bcf8af7e50 -->
<g id="node11" class="node">
<title>ast.Subscript object at 0x75bcf8af7e50</title>
<path fill="#66cdaa" stroke="black" d="M122.34,-324C122.34,-324 78.34,-324 78.34,-324 72.34,-324 66.34,-318 66.34,-312 66.34,-312 66.34,-300 66.34,-300 66.34,-294 72.34,-288 78.34,-288 78.34,-288 122.34,-288 122.34,-288 128.34,-288 134.34,-294 134.34,-300 134.34,-300 134.34,-312 134.34,-312 134.34,-318 128.34,-324 122.34,-324"/>
<text text-anchor="middle" x="100.34" y="-302.3" font-family="Times,serif" font-size="14.00">Subscript</text>
</g>
<!-- ast.SetComp object at 0x75bcf8af7a10&#45;&gt;ast.Subscript object at 0x75bcf8af7e50 -->
<g id="edge10" class="edge">
<title>ast.SetComp object at 0x75bcf8af7a10&#45;&gt;ast.Subscript object at 0x75bcf8af7e50</title>
<path fill="none" stroke="black" d="M259.69,-791.58C232.84,-766.87 189.34,-718.83 189.34,-667 189.34,-667 189.34,-667 189.34,-449 189.34,-401.86 153.69,-357.52 127.52,-331.31"/>
<polygon fill="black" stroke="black" points="129.7,-328.55 120.09,-324.09 124.82,-333.57 129.7,-328.55"/>
</g>
<!-- ast.comprehension object at 0x75bcf8af5e90 -->
<g id="node20" class="node">
<title>ast.comprehension object at 0x75bcf8af5e90</title>
<path fill="#66cdaa" stroke="black" d="M327.34,-756C327.34,-756 251.34,-756 251.34,-756 245.34,-756 239.34,-750 239.34,-744 239.34,-744 239.34,-732 239.34,-732 239.34,-726 245.34,-720 251.34,-720 251.34,-720 327.34,-720 327.34,-720 333.34,-720 339.34,-726 339.34,-732 339.34,-732 339.34,-744 339.34,-744 339.34,-750 333.34,-756 327.34,-756"/>
<text text-anchor="middle" x="289.34" y="-734.3" font-family="Times,serif" font-size="14.00">comprehension</text>
</g>
<!-- ast.SetComp object at 0x75bcf8af7a10&#45;&gt;ast.comprehension object at 0x75bcf8af5e90 -->
<g id="edge23" class="edge">
<title>ast.SetComp object at 0x75bcf8af7a10&#45;&gt;ast.comprehension object at 0x75bcf8af5e90</title>
<path fill="none" stroke="black" d="M282.56,-791.7C283.55,-783.98 284.75,-774.71 285.85,-766.11"/>
<polygon fill="black" stroke="black" points="289.33,-766.47 287.14,-756.1 282.39,-765.58 289.33,-766.47"/>
</g>
<!-- ast.Name object at 0x75bcf8af5f90 -->
<g id="node12" class="node">
<title>ast.Name object at 0x75bcf8af5f90</title>
<path fill="#66cdaa" stroke="black" d="M60.34,-252C60.34,-252 30.34,-252 30.34,-252 24.34,-252 18.34,-246 18.34,-240 18.34,-240 18.34,-228 18.34,-228 18.34,-222 24.34,-216 30.34,-216 30.34,-216 60.34,-216 60.34,-216 66.34,-216 72.34,-222 72.34,-228 72.34,-228 72.34,-240 72.34,-240 72.34,-246 66.34,-252 60.34,-252"/>
<text text-anchor="middle" x="45.34" y="-230.3" font-family="Times,serif" font-size="14.00">Name</text>
</g>
<!-- ast.Subscript object at 0x75bcf8af7e50&#45;&gt;ast.Name object at 0x75bcf8af5f90 -->
<g id="edge11" class="edge">
<title>ast.Subscript object at 0x75bcf8af7e50&#45;&gt;ast.Name object at 0x75bcf8af5f90</title>
<path fill="none" stroke="black" d="M86.74,-287.7C80.21,-279.39 72.27,-269.28 65.09,-260.14"/>
<polygon fill="black" stroke="black" points="67.71,-257.81 58.78,-252.1 62.2,-262.13 67.71,-257.81"/>
</g>
<!-- ast.Load object at 0x75be41f02b90 -->
<g id="node13" class="node">
<title>ast.Load object at 0x75be41f02b90</title>
<path fill="#66cdaa" stroke="black" d="M809.34,-36C809.34,-36 779.34,-36 779.34,-36 773.34,-36 767.34,-30 767.34,-24 767.34,-24 767.34,-12 767.34,-12 767.34,-6 773.34,0 779.34,0 779.34,0 809.34,0 809.34,0 815.34,0 821.34,-6 821.34,-12 821.34,-12 821.34,-24 821.34,-24 821.34,-30 815.34,-36 809.34,-36"/>
<text text-anchor="middle" x="794.34" y="-14.3" font-family="Times,serif" font-size="14.00">Load</text>
</g>
<!-- ast.Subscript object at 0x75bcf8af7e50&#45;&gt;ast.Load object at 0x75be41f02b90 -->
<g id="edge22" class="edge">
<title>ast.Subscript object at 0x75bcf8af7e50&#45;&gt;ast.Load object at 0x75be41f02b90</title>
<path fill="none" stroke="black" d="M66,-294.59C45.68,-286.48 21.6,-273 9.34,-252 -1.01,-234.28 -4.18,-85.4 8.34,-72 59.93,-16.81 607.96,-17.41 757.07,-18.6"/>
<polygon fill="black" stroke="black" points="757.07,-22.1 767.1,-18.69 757.13,-15.11 757.07,-22.1"/>
</g>
<!-- ast.Slice object at 0x75bcf8af4e90 -->
<g id="node14" class="node">
<title>ast.Slice object at 0x75bcf8af4e90</title>
<path fill="#66cdaa" stroke="black" d="M151.34,-252C151.34,-252 121.34,-252 121.34,-252 115.34,-252 109.34,-246 109.34,-240 109.34,-240 109.34,-228 109.34,-228 109.34,-222 115.34,-216 121.34,-216 121.34,-216 151.34,-216 151.34,-216 157.34,-216 163.34,-222 163.34,-228 163.34,-228 163.34,-240 163.34,-240 163.34,-246 157.34,-252 151.34,-252"/>
<text text-anchor="middle" x="136.34" y="-230.3" font-family="Times,serif" font-size="14.00">Slice</text>
</g>
<!-- ast.Subscript object at 0x75bcf8af7e50&#45;&gt;ast.Slice object at 0x75bcf8af4e90 -->
<g id="edge13" class="edge">
<title>ast.Subscript object at 0x75bcf8af7e50&#45;&gt;ast.Slice object at 0x75bcf8af4e90</title>
<path fill="none" stroke="black" d="M109.24,-287.7C113.33,-279.73 118.29,-270.1 122.83,-261.26"/>
<polygon fill="black" stroke="black" points="126.08,-262.6 127.54,-252.1 119.85,-259.4 126.08,-262.6"/>
</g>
<!-- ast.Name object at 0x75bcf8af5f90&#45;&gt;ast.Load object at 0x75be41f02b90 -->
<g id="edge12" class="edge">
<title>ast.Name object at 0x75bcf8af5f90&#45;&gt;ast.Load object at 0x75be41f02b90</title>
<path fill="none" stroke="black" d="M36.03,-215.75C19.78,-183.03 -8.67,-111.66 28.34,-72 78.41,-18.34 609.27,-17.78 756.6,-18.67"/>
<polygon fill="black" stroke="black" points="756.91,-22.17 766.93,-18.74 756.95,-15.17 756.91,-22.17"/>
</g>
<!-- ast.Name object at 0x75bcf8af72d0 -->
<g id="node15" class="node">
<title>ast.Name object at 0x75bcf8af72d0</title>
<path fill="#66cdaa" stroke="black" d="M223.34,-108C223.34,-108 193.34,-108 193.34,-108 187.34,-108 181.34,-102 181.34,-96 181.34,-96 181.34,-84 181.34,-84 181.34,-78 187.34,-72 193.34,-72 193.34,-72 223.34,-72 223.34,-72 229.34,-72 235.34,-78 235.34,-84 235.34,-84 235.34,-96 235.34,-96 235.34,-102 229.34,-108 223.34,-108"/>
<text text-anchor="middle" x="208.34" y="-86.3" font-family="Times,serif" font-size="14.00">Name</text>
</g>
<!-- ast.Slice object at 0x75bcf8af4e90&#45;&gt;ast.Name object at 0x75bcf8af72d0 -->
<g id="edge14" class="edge">
<title>ast.Slice object at 0x75bcf8af4e90&#45;&gt;ast.Name object at 0x75bcf8af72d0</title>
<path fill="none" stroke="black" d="M149.31,-215.92C156.63,-205.81 165.63,-192.56 172.34,-180 183.09,-159.87 192.63,-135.82 199.19,-117.8"/>
<polygon fill="black" stroke="black" points="202.55,-118.81 202.6,-108.21 195.95,-116.46 202.55,-118.81"/>
</g>
<!-- ast.BinOp object at 0x75bcf8af7b50 -->
<g id="node16" class="node">
<title>ast.BinOp object at 0x75bcf8af7b50</title>
<path fill="#66cdaa" stroke="black" d="M151.34,-180C151.34,-180 121.34,-180 121.34,-180 115.34,-180 109.34,-174 109.34,-168 109.34,-168 109.34,-156 109.34,-156 109.34,-150 115.34,-144 121.34,-144 121.34,-144 151.34,-144 151.34,-144 157.34,-144 163.34,-150 163.34,-156 163.34,-156 163.34,-168 163.34,-168 163.34,-174 157.34,-180 151.34,-180"/>
<text text-anchor="middle" x="136.34" y="-158.3" font-family="Times,serif" font-size="14.00">BinOp</text>
</g>
<!-- ast.Slice object at 0x75bcf8af4e90&#45;&gt;ast.BinOp object at 0x75bcf8af7b50 -->
<g id="edge16" class="edge">
<title>ast.Slice object at 0x75bcf8af4e90&#45;&gt;ast.BinOp object at 0x75bcf8af7b50</title>
<path fill="none" stroke="black" d="M136.34,-215.7C136.34,-207.98 136.34,-198.71 136.34,-190.11"/>
<polygon fill="black" stroke="black" points="139.84,-190.1 136.34,-180.1 132.84,-190.1 139.84,-190.1"/>
</g>
<!-- ast.Name object at 0x75bcf8af72d0&#45;&gt;ast.Load object at 0x75be41f02b90 -->
<g id="edge15" class="edge">
<title>ast.Name object at 0x75bcf8af72d0&#45;&gt;ast.Load object at 0x75be41f02b90</title>
<path fill="none" stroke="black" d="M235.75,-76.34C240.22,-74.65 244.85,-73.12 249.34,-72 435.89,-25.36 667.89,-19.33 757.05,-18.86"/>
<polygon fill="black" stroke="black" points="757.22,-22.36 767.21,-18.83 757.2,-15.36 757.22,-22.36"/>
</g>
<!-- ast.Name object at 0x75bcf8af6e50 -->
<g id="node17" class="node">
<title>ast.Name object at 0x75bcf8af6e50</title>
<path fill="#66cdaa" stroke="black" d="M151.34,-108C151.34,-108 121.34,-108 121.34,-108 115.34,-108 109.34,-102 109.34,-96 109.34,-96 109.34,-84 109.34,-84 109.34,-78 115.34,-72 121.34,-72 121.34,-72 151.34,-72 151.34,-72 157.34,-72 163.34,-78 163.34,-84 163.34,-84 163.34,-96 163.34,-96 163.34,-102 157.34,-108 151.34,-108"/>
<text text-anchor="middle" x="136.34" y="-86.3" font-family="Times,serif" font-size="14.00">Name</text>
</g>
<!-- ast.BinOp object at 0x75bcf8af7b50&#45;&gt;ast.Name object at 0x75bcf8af6e50 -->
<g id="edge17" class="edge">
<title>ast.BinOp object at 0x75bcf8af7b50&#45;&gt;ast.Name object at 0x75bcf8af6e50</title>
<path fill="none" stroke="black" d="M136.34,-143.7C136.34,-135.98 136.34,-126.71 136.34,-118.11"/>
<polygon fill="black" stroke="black" points="139.84,-118.1 136.34,-108.1 132.84,-118.1 139.84,-118.1"/>
</g>
<!-- ast.Add object at 0x75be41f03090 -->
<g id="node18" class="node">
<title>ast.Add object at 0x75be41f03090</title>
<path fill="#66cdaa" stroke="black" d="M515.34,-108C515.34,-108 485.34,-108 485.34,-108 479.34,-108 473.34,-102 473.34,-96 473.34,-96 473.34,-84 473.34,-84 473.34,-78 479.34,-72 485.34,-72 485.34,-72 515.34,-72 515.34,-72 521.34,-72 527.34,-78 527.34,-84 527.34,-84 527.34,-96 527.34,-96 527.34,-102 521.34,-108 515.34,-108"/>
<text text-anchor="middle" x="500.34" y="-86.3" font-family="Times,serif" font-size="14.00">Add</text>
</g>
<!-- ast.BinOp object at 0x75bcf8af7b50&#45;&gt;ast.Add object at 0x75be41f03090 -->
<g id="edge19" class="edge">
<title>ast.BinOp object at 0x75bcf8af7b50&#45;&gt;ast.Add object at 0x75be41f03090</title>
<path fill="none" stroke="black" d="M163.48,-157.61C228.32,-149.37 391.57,-127.68 463.25,-107.74"/>
<polygon fill="black" stroke="black" points="464.54,-111.01 473.14,-104.81 462.56,-104.3 464.54,-111.01"/>
</g>
<!-- ast.Name object at 0x75bcf8af48d0 -->
<g id="node19" class="node">
<title>ast.Name object at 0x75bcf8af48d0</title>
<path fill="#66cdaa" stroke="black" d="M79.34,-108C79.34,-108 49.34,-108 49.34,-108 43.34,-108 37.34,-102 37.34,-96 37.34,-96 37.34,-84 37.34,-84 37.34,-78 43.34,-72 49.34,-72 49.34,-72 79.34,-72 79.34,-72 85.34,-72 91.34,-78 91.34,-84 91.34,-84 91.34,-96 91.34,-96 91.34,-102 85.34,-108 79.34,-108"/>
<text text-anchor="middle" x="64.34" y="-86.3" font-family="Times,serif" font-size="14.00">Name</text>
</g>
<!-- ast.BinOp object at 0x75bcf8af7b50&#45;&gt;ast.Name object at 0x75bcf8af48d0 -->
<g id="edge20" class="edge">
<title>ast.BinOp object at 0x75bcf8af7b50&#45;&gt;ast.Name object at 0x75bcf8af48d0</title>
<path fill="none" stroke="black" d="M118.54,-143.7C109.73,-135.14 98.96,-124.66 89.34,-115.3"/>
<polygon fill="black" stroke="black" points="91.54,-112.57 81.93,-108.1 86.66,-117.58 91.54,-112.57"/>
</g>
<!-- ast.Name object at 0x75bcf8af6e50&#45;&gt;ast.Load object at 0x75be41f02b90 -->
<g id="edge18" class="edge">
<title>ast.Name object at 0x75bcf8af6e50&#45;&gt;ast.Load object at 0x75be41f02b90</title>
<path fill="none" stroke="black" d="M163.47,-74.96C166.41,-73.81 169.4,-72.79 172.34,-72 283.71,-42 639.89,-25.25 756.78,-20.45"/>
<polygon fill="black" stroke="black" points="757.16,-23.94 767.01,-20.04 756.88,-16.95 757.16,-23.94"/>
</g>
<!-- ast.Name object at 0x75bcf8af48d0&#45;&gt;ast.Load object at 0x75be41f02b90 -->
<g id="edge21" class="edge">
<title>ast.Name object at 0x75bcf8af48d0&#45;&gt;ast.Load object at 0x75be41f02b90</title>
<path fill="none" stroke="black" d="M91.46,-74.93C94.4,-73.79 97.4,-72.78 100.34,-72 226.05,-38.73 630.92,-23.94 756.7,-20.07"/>
<polygon fill="black" stroke="black" points="757.08,-23.56 766.97,-19.76 756.87,-16.57 757.08,-23.56"/>
</g>
<!-- ast.Name object at 0x75bcf8af6610 -->
<g id="node21" class="node">
<title>ast.Name object at 0x75bcf8af6610</title>
<path fill="#66cdaa" stroke="black" d="M259.34,-684C259.34,-684 229.34,-684 229.34,-684 223.34,-684 217.34,-678 217.34,-672 217.34,-672 217.34,-660 217.34,-660 217.34,-654 223.34,-648 229.34,-648 229.34,-648 259.34,-648 259.34,-648 265.34,-648 271.34,-654 271.34,-660 271.34,-660 271.34,-672 271.34,-672 271.34,-678 265.34,-684 259.34,-684"/>
<text text-anchor="middle" x="244.34" y="-662.3" font-family="Times,serif" font-size="14.00">Name</text>
</g>
<!-- ast.comprehension object at 0x75bcf8af5e90&#45;&gt;ast.Name object at 0x75bcf8af6610 -->
<g id="edge24" class="edge">
<title>ast.comprehension object at 0x75bcf8af5e90&#45;&gt;ast.Name object at 0x75bcf8af6610</title>
<path fill="none" stroke="black" d="M278.21,-719.7C272.98,-711.56 266.64,-701.69 260.86,-692.7"/>
<polygon fill="black" stroke="black" points="263.68,-690.62 255.33,-684.1 257.8,-694.41 263.68,-690.62"/>
</g>
<!-- ast.Call object at 0x75bd16022210 -->
<g id="node22" class="node">
<title>ast.Call object at 0x75bd16022210</title>
<path fill="#66cdaa" stroke="black" d="M314.34,-396C314.34,-396 284.34,-396 284.34,-396 278.34,-396 272.34,-390 272.34,-384 272.34,-384 272.34,-372 272.34,-372 272.34,-366 278.34,-360 284.34,-360 284.34,-360 314.34,-360 314.34,-360 320.34,-360 326.34,-366 326.34,-372 326.34,-372 326.34,-384 326.34,-384 326.34,-390 320.34,-396 314.34,-396"/>
<text text-anchor="middle" x="299.34" y="-374.3" font-family="Times,serif" font-size="14.00">Call</text>
</g>
<!-- ast.comprehension object at 0x75bcf8af5e90&#45;&gt;ast.Call object at 0x75bd16022210 -->
<g id="edge26" class="edge">
<title>ast.comprehension object at 0x75bcf8af5e90&#45;&gt;ast.Call object at 0x75bd16022210</title>
<path fill="none" stroke="black" d="M291.31,-719.98C294.23,-693.36 299.34,-640.23 299.34,-595 299.34,-595 299.34,-595 299.34,-521 299.34,-481 299.34,-434.65 299.34,-406.08"/>
<polygon fill="black" stroke="black" points="302.84,-406.05 299.34,-396.05 295.84,-406.05 302.84,-406.05"/>
</g>
<!-- ast.BoolOp object at 0x75bcf8af5d50 -->
<g id="node32" class="node">
<title>ast.BoolOp object at 0x75bcf8af5d50</title>
<path fill="#66cdaa" stroke="black" d="M1015.84,-684C1015.84,-684 980.84,-684 980.84,-684 974.84,-684 968.84,-678 968.84,-672 968.84,-672 968.84,-660 968.84,-660 968.84,-654 974.84,-648 980.84,-648 980.84,-648 1015.84,-648 1015.84,-648 1021.84,-648 1027.84,-654 1027.84,-660 1027.84,-660 1027.84,-672 1027.84,-672 1027.84,-678 1021.84,-684 1015.84,-684"/>
<text text-anchor="middle" x="998.34" y="-662.3" font-family="Times,serif" font-size="14.00">BoolOp</text>
</g>
<!-- ast.comprehension object at 0x75bcf8af5e90&#45;&gt;ast.BoolOp object at 0x75bcf8af5d50 -->
<g id="edge41" class="edge">
<title>ast.comprehension object at 0x75bcf8af5e90&#45;&gt;ast.BoolOp object at 0x75bcf8af5d50</title>
<path fill="none" stroke="black" d="M339.48,-732.05C473.41,-718.83 837.58,-682.87 958.62,-670.92"/>
<polygon fill="black" stroke="black" points="958.97,-674.4 968.57,-669.94 958.28,-667.44 958.97,-674.4"/>
</g>
<!-- ast.Name object at 0x75bcf8af6610&#45;&gt;ast.Store object at 0x75be41f02c10 -->
<g id="edge25" class="edge">
<title>ast.Name object at 0x75bcf8af6610&#45;&gt;ast.Store object at 0x75be41f02c10</title>
<path fill="none" stroke="black" d="M244.34,-647.7C244.34,-639.98 244.34,-630.71 244.34,-622.11"/>
<polygon fill="black" stroke="black" points="247.84,-622.1 244.34,-612.1 240.84,-622.1 247.84,-622.1"/>
</g>
<!-- ast.Name object at 0x75bcf8af6390 -->
<g id="node23" class="node">
<title>ast.Name object at 0x75bcf8af6390</title>
<path fill="#66cdaa" stroke="black" d="M294.34,-324C294.34,-324 264.34,-324 264.34,-324 258.34,-324 252.34,-318 252.34,-312 252.34,-312 252.34,-300 252.34,-300 252.34,-294 258.34,-288 264.34,-288 264.34,-288 294.34,-288 294.34,-288 300.34,-288 306.34,-294 306.34,-300 306.34,-300 306.34,-312 306.34,-312 306.34,-318 300.34,-324 294.34,-324"/>
<text text-anchor="middle" x="279.34" y="-302.3" font-family="Times,serif" font-size="14.00">Name</text>
</g>
<!-- ast.Call object at 0x75bd16022210&#45;&gt;ast.Name object at 0x75bcf8af6390 -->
<g id="edge27" class="edge">
<title>ast.Call object at 0x75bd16022210&#45;&gt;ast.Name object at 0x75bcf8af6390</title>
<path fill="none" stroke="black" d="M294.39,-359.7C292.17,-351.9 289.48,-342.51 287,-333.83"/>
<polygon fill="black" stroke="black" points="290.34,-332.76 284.22,-324.1 283.61,-334.68 290.34,-332.76"/>
</g>
<!-- ast.BinOp object at 0x75bd06833210 -->
<g id="node24" class="node">
<title>ast.BinOp object at 0x75bd06833210</title>
<path fill="#66cdaa" stroke="black" d="M383.34,-324C383.34,-324 353.34,-324 353.34,-324 347.34,-324 341.34,-318 341.34,-312 341.34,-312 341.34,-300 341.34,-300 341.34,-294 347.34,-288 353.34,-288 353.34,-288 383.34,-288 383.34,-288 389.34,-288 395.34,-294 395.34,-300 395.34,-300 395.34,-312 395.34,-312 395.34,-318 389.34,-324 383.34,-324"/>
<text text-anchor="middle" x="368.34" y="-302.3" font-family="Times,serif" font-size="14.00">BinOp</text>
</g>
<!-- ast.Call object at 0x75bd16022210&#45;&gt;ast.BinOp object at 0x75bd06833210 -->
<g id="edge29" class="edge">
<title>ast.Call object at 0x75bd16022210&#45;&gt;ast.BinOp object at 0x75bd06833210</title>
<path fill="none" stroke="black" d="M316.39,-359.7C324.83,-351.14 335.16,-340.66 344.38,-331.3"/>
<polygon fill="black" stroke="black" points="346.95,-333.68 351.48,-324.1 341.96,-328.77 346.95,-333.68"/>
</g>
<!-- ast.Name object at 0x75bcf8af6390&#45;&gt;ast.Load object at 0x75be41f02b90 -->
<g id="edge28" class="edge">
<title>ast.Name object at 0x75bcf8af6390&#45;&gt;ast.Load object at 0x75be41f02b90</title>
<path fill="none" stroke="black" d="M273.56,-287.73C259.67,-242.54 230.31,-120.95 298.34,-72 371.58,-19.3 654.21,-17.28 756.83,-18.35"/>
<polygon fill="black" stroke="black" points="756.99,-21.85 767.03,-18.47 757.08,-14.85 756.99,-21.85"/>
</g>
<!-- ast.BinOp object at 0x75bd06833210&#45;&gt;ast.Add object at 0x75be41f03090 -->
<g id="edge39" class="edge">
<title>ast.BinOp object at 0x75bd06833210&#45;&gt;ast.Add object at 0x75be41f03090</title>
<path fill="none" stroke="black" d="M390.2,-287.69C416.39,-265.65 459.46,-224.99 481.34,-180 490.81,-160.52 495.58,-136.38 497.98,-118.16"/>
<polygon fill="black" stroke="black" points="501.46,-118.53 499.13,-108.19 494.5,-117.72 501.46,-118.53"/>
</g>
<!-- ast.BinOp object at 0x75bcf8af6590 -->
<g id="node25" class="node">
<title>ast.BinOp object at 0x75bcf8af6590</title>
<path fill="#66cdaa" stroke="black" d="M400.34,-252C400.34,-252 370.34,-252 370.34,-252 364.34,-252 358.34,-246 358.34,-240 358.34,-240 358.34,-228 358.34,-228 358.34,-222 364.34,-216 370.34,-216 370.34,-216 400.34,-216 400.34,-216 406.34,-216 412.34,-222 412.34,-228 412.34,-228 412.34,-240 412.34,-240 412.34,-246 406.34,-252 400.34,-252"/>
<text text-anchor="middle" x="385.34" y="-230.3" font-family="Times,serif" font-size="14.00">BinOp</text>
</g>
<!-- ast.BinOp object at 0x75bd06833210&#45;&gt;ast.BinOp object at 0x75bcf8af6590 -->
<g id="edge30" class="edge">
<title>ast.BinOp object at 0x75bd06833210&#45;&gt;ast.BinOp object at 0x75bcf8af6590</title>
<path fill="none" stroke="black" d="M372.54,-287.7C374.43,-279.9 376.71,-270.51 378.82,-261.83"/>
<polygon fill="black" stroke="black" points="382.22,-262.65 381.18,-252.1 375.42,-261 382.22,-262.65"/>
</g>
<!-- ast.Constant object at 0x75bcf8af6010 -->
<g id="node31" class="node">
<title>ast.Constant object at 0x75bcf8af6010</title>
<path fill="#66cdaa" stroke="black" d="M327.84,-252C327.84,-252 286.84,-252 286.84,-252 280.84,-252 274.84,-246 274.84,-240 274.84,-240 274.84,-228 274.84,-228 274.84,-222 280.84,-216 286.84,-216 286.84,-216 327.84,-216 327.84,-216 333.84,-216 339.84,-222 339.84,-228 339.84,-228 339.84,-240 339.84,-240 339.84,-246 333.84,-252 327.84,-252"/>
<text text-anchor="middle" x="307.34" y="-230.3" font-family="Times,serif" font-size="14.00">Constant</text>
</g>
<!-- ast.BinOp object at 0x75bd06833210&#45;&gt;ast.Constant object at 0x75bcf8af6010 -->
<g id="edge40" class="edge">
<title>ast.BinOp object at 0x75bd06833210&#45;&gt;ast.Constant object at 0x75bcf8af6010</title>
<path fill="none" stroke="black" d="M353.26,-287.7C345.95,-279.3 337.03,-269.07 329,-259.86"/>
<polygon fill="black" stroke="black" points="331.45,-257.34 322.24,-252.1 326.17,-261.94 331.45,-257.34"/>
</g>
<!-- ast.Call object at 0x75bcf8af7290 -->
<g id="node26" class="node">
<title>ast.Call object at 0x75bcf8af7290</title>
<path fill="#66cdaa" stroke="black" d="M460.34,-180C460.34,-180 430.34,-180 430.34,-180 424.34,-180 418.34,-174 418.34,-168 418.34,-168 418.34,-156 418.34,-156 418.34,-150 424.34,-144 430.34,-144 430.34,-144 460.34,-144 460.34,-144 466.34,-144 472.34,-150 472.34,-156 472.34,-156 472.34,-168 472.34,-168 472.34,-174 466.34,-180 460.34,-180"/>
<text text-anchor="middle" x="445.34" y="-158.3" font-family="Times,serif" font-size="14.00">Call</text>
</g>
<!-- ast.BinOp object at 0x75bcf8af6590&#45;&gt;ast.Call object at 0x75bcf8af7290 -->
<g id="edge31" class="edge">
<title>ast.BinOp object at 0x75bcf8af6590&#45;&gt;ast.Call object at 0x75bcf8af7290</title>
<path fill="none" stroke="black" d="M400.17,-215.7C407.36,-207.3 416.13,-197.07 424.03,-187.86"/>
<polygon fill="black" stroke="black" points="426.83,-189.97 430.68,-180.1 421.51,-185.42 426.83,-189.97"/>
</g>
<!-- ast.Sub object at 0x75be41f03110 -->
<g id="node29" class="node">
<title>ast.Sub object at 0x75be41f03110</title>
<path fill="#66cdaa" stroke="black" d="M388.34,-180C388.34,-180 358.34,-180 358.34,-180 352.34,-180 346.34,-174 346.34,-168 346.34,-168 346.34,-156 346.34,-156 346.34,-150 352.34,-144 358.34,-144 358.34,-144 388.34,-144 388.34,-144 394.34,-144 400.34,-150 400.34,-156 400.34,-156 400.34,-168 400.34,-168 400.34,-174 394.34,-180 388.34,-180"/>
<text text-anchor="middle" x="373.34" y="-158.3" font-family="Times,serif" font-size="14.00">Sub</text>
</g>
<!-- ast.BinOp object at 0x75bcf8af6590&#45;&gt;ast.Sub object at 0x75be41f03110 -->
<g id="edge36" class="edge">
<title>ast.BinOp object at 0x75bcf8af6590&#45;&gt;ast.Sub object at 0x75be41f03110</title>
<path fill="none" stroke="black" d="M382.37,-215.7C381.05,-207.98 379.46,-198.71 377.99,-190.11"/>
<polygon fill="black" stroke="black" points="381.41,-189.37 376.27,-180.1 374.51,-190.55 381.41,-189.37"/>
</g>
<!-- ast.Name object at 0x75bcf8af4810 -->
<g id="node30" class="node">
<title>ast.Name object at 0x75bcf8af4810</title>
<path fill="#66cdaa" stroke="black" d="M316.34,-180C316.34,-180 286.34,-180 286.34,-180 280.34,-180 274.34,-174 274.34,-168 274.34,-168 274.34,-156 274.34,-156 274.34,-150 280.34,-144 286.34,-144 286.34,-144 316.34,-144 316.34,-144 322.34,-144 328.34,-150 328.34,-156 328.34,-156 328.34,-168 328.34,-168 328.34,-174 322.34,-180 316.34,-180"/>
<text text-anchor="middle" x="301.34" y="-158.3" font-family="Times,serif" font-size="14.00">Name</text>
</g>
<!-- ast.BinOp object at 0x75bcf8af6590&#45;&gt;ast.Name object at 0x75bcf8af4810 -->
<g id="edge37" class="edge">
<title>ast.BinOp object at 0x75bcf8af6590&#45;&gt;ast.Name object at 0x75bcf8af4810</title>
<path fill="none" stroke="black" d="M364.57,-215.7C354.1,-206.97 341.23,-196.24 329.84,-186.75"/>
<polygon fill="black" stroke="black" points="331.79,-183.82 321.86,-180.1 327.3,-189.19 331.79,-183.82"/>
</g>
<!-- ast.Name object at 0x75bcf8af66d0 -->
<g id="node27" class="node">
<title>ast.Name object at 0x75bcf8af66d0</title>
<path fill="#66cdaa" stroke="black" d="M443.34,-108C443.34,-108 413.34,-108 413.34,-108 407.34,-108 401.34,-102 401.34,-96 401.34,-96 401.34,-84 401.34,-84 401.34,-78 407.34,-72 413.34,-72 413.34,-72 443.34,-72 443.34,-72 449.34,-72 455.34,-78 455.34,-84 455.34,-84 455.34,-96 455.34,-96 455.34,-102 449.34,-108 443.34,-108"/>
<text text-anchor="middle" x="428.34" y="-86.3" font-family="Times,serif" font-size="14.00">Name</text>
</g>
<!-- ast.Call object at 0x75bcf8af7290&#45;&gt;ast.Name object at 0x75bcf8af66d0 -->
<g id="edge32" class="edge">
<title>ast.Call object at 0x75bcf8af7290&#45;&gt;ast.Name object at 0x75bcf8af66d0</title>
<path fill="none" stroke="black" d="M441.14,-143.7C439.24,-135.9 436.96,-126.51 434.85,-117.83"/>
<polygon fill="black" stroke="black" points="438.25,-117 432.49,-108.1 431.45,-118.65 438.25,-117"/>
</g>
<!-- ast.Name object at 0x75bcf8af4210 -->
<g id="node28" class="node">
<title>ast.Name object at 0x75bcf8af4210</title>
<path fill="#66cdaa" stroke="black" d="M371.34,-108C371.34,-108 341.34,-108 341.34,-108 335.34,-108 329.34,-102 329.34,-96 329.34,-96 329.34,-84 329.34,-84 329.34,-78 335.34,-72 341.34,-72 341.34,-72 371.34,-72 371.34,-72 377.34,-72 383.34,-78 383.34,-84 383.34,-84 383.34,-96 383.34,-96 383.34,-102 377.34,-108 371.34,-108"/>
<text text-anchor="middle" x="356.34" y="-86.3" font-family="Times,serif" font-size="14.00">Name</text>
</g>
<!-- ast.Call object at 0x75bcf8af7290&#45;&gt;ast.Name object at 0x75bcf8af4210 -->
<g id="edge34" class="edge">
<title>ast.Call object at 0x75bcf8af7290&#45;&gt;ast.Name object at 0x75bcf8af4210</title>
<path fill="none" stroke="black" d="M423.34,-143.7C412.13,-134.88 398.34,-124.03 386.18,-114.47"/>
<polygon fill="black" stroke="black" points="388.11,-111.54 378.08,-108.1 383.78,-117.04 388.11,-111.54"/>
</g>
<!-- ast.Name object at 0x75bcf8af66d0&#45;&gt;ast.Load object at 0x75be41f02b90 -->
<g id="edge33" class="edge">
<title>ast.Name object at 0x75bcf8af66d0&#45;&gt;ast.Load object at 0x75be41f02b90</title>
<path fill="none" stroke="black" d="M455.54,-75.18C458.46,-73.99 461.43,-72.9 464.34,-72 567.56,-40.04 695.24,-26.53 757.16,-21.54"/>
<polygon fill="black" stroke="black" points="757.53,-25.03 767.23,-20.76 756.99,-18.05 757.53,-25.03"/>
</g>
<!-- ast.Name object at 0x75bcf8af4210&#45;&gt;ast.Load object at 0x75be41f02b90 -->
<g id="edge35" class="edge">
<title>ast.Name object at 0x75bcf8af4210&#45;&gt;ast.Load object at 0x75be41f02b90</title>
<path fill="none" stroke="black" d="M383.51,-75.1C386.44,-73.92 389.42,-72.86 392.34,-72 522.42,-33.73 684.32,-23.05 756.53,-20.1"/>
<polygon fill="black" stroke="black" points="757.06,-23.58 766.92,-19.71 756.8,-16.59 757.06,-23.58"/>
</g>
<!-- ast.Name object at 0x75bcf8af4810&#45;&gt;ast.Load object at 0x75be41f02b90 -->
<g id="edge38" class="edge">
<title>ast.Name object at 0x75bcf8af4810&#45;&gt;ast.Load object at 0x75be41f02b90</title>
<path fill="none" stroke="black" d="M299.59,-143.72C298.58,-123.36 300.43,-90.03 320.34,-72 352.57,-42.81 650.98,-25.84 757.1,-20.69"/>
<polygon fill="black" stroke="black" points="757.51,-24.17 767.34,-20.2 757.18,-17.18 757.51,-24.17"/>
</g>
<!-- ast.And object at 0x75be41f02e50 -->
<g id="node33" class="node">
<title>ast.And object at 0x75be41f02e50</title>
<path fill="#66cdaa" stroke="black" d="M1053.34,-612C1053.34,-612 1023.34,-612 1023.34,-612 1017.34,-612 1011.34,-606 1011.34,-600 1011.34,-600 1011.34,-588 1011.34,-588 1011.34,-582 1017.34,-576 1023.34,-576 1023.34,-576 1053.34,-576 1053.34,-576 1059.34,-576 1065.34,-582 1065.34,-588 1065.34,-588 1065.34,-600 1065.34,-600 1065.34,-606 1059.34,-612 1053.34,-612"/>
<text text-anchor="middle" x="1038.34" y="-590.3" font-family="Times,serif" font-size="14.00">And</text>
</g>
<!-- ast.BoolOp object at 0x75bcf8af5d50&#45;&gt;ast.And object at 0x75be41f02e50 -->
<g id="edge42" class="edge">
<title>ast.BoolOp object at 0x75bcf8af5d50&#45;&gt;ast.And object at 0x75be41f02e50</title>
<path fill="none" stroke="black" d="M1008.23,-647.7C1012.83,-639.64 1018.4,-629.89 1023.49,-620.98"/>
<polygon fill="black" stroke="black" points="1026.64,-622.52 1028.56,-612.1 1020.56,-619.05 1026.64,-622.52"/>
</g>
<!-- ast.Compare object at 0x75bcf8af5450 -->
<g id="node34" class="node">
<title>ast.Compare object at 0x75bcf8af5450</title>
<path fill="#66cdaa" stroke="black" d="M980.84,-612C980.84,-612 937.84,-612 937.84,-612 931.84,-612 925.84,-606 925.84,-600 925.84,-600 925.84,-588 925.84,-588 925.84,-582 931.84,-576 937.84,-576 937.84,-576 980.84,-576 980.84,-576 986.84,-576 992.84,-582 992.84,-588 992.84,-588 992.84,-600 992.84,-600 992.84,-606 986.84,-612 980.84,-612"/>
<text text-anchor="middle" x="959.34" y="-590.3" font-family="Times,serif" font-size="14.00">Compare</text>
</g>
<!-- ast.BoolOp object at 0x75bcf8af5d50&#45;&gt;ast.Compare object at 0x75bcf8af5450 -->
<g id="edge43" class="edge">
<title>ast.BoolOp object at 0x75bcf8af5d50&#45;&gt;ast.Compare object at 0x75bcf8af5450</title>
<path fill="none" stroke="black" d="M988.7,-647.7C984.21,-639.64 978.78,-629.89 973.81,-620.98"/>
<polygon fill="black" stroke="black" points="976.79,-619.14 968.87,-612.1 970.68,-622.54 976.79,-619.14"/>
</g>
<!-- ast.Call object at 0x75bcffbba150 -->
<g id="node59" class="node">
<title>ast.Call object at 0x75bcffbba150</title>
<path fill="#66cdaa" stroke="black" d="M1303.34,-468C1303.34,-468 1273.34,-468 1273.34,-468 1267.34,-468 1261.34,-462 1261.34,-456 1261.34,-456 1261.34,-444 1261.34,-444 1261.34,-438 1267.34,-432 1273.34,-432 1273.34,-432 1303.34,-432 1303.34,-432 1309.34,-432 1315.34,-438 1315.34,-444 1315.34,-444 1315.34,-456 1315.34,-456 1315.34,-462 1309.34,-468 1303.34,-468"/>
<text text-anchor="middle" x="1288.34" y="-446.3" font-family="Times,serif" font-size="14.00">Call</text>
</g>
<!-- ast.BoolOp object at 0x75bcf8af5d50&#45;&gt;ast.Call object at 0x75bcffbba150 -->
<g id="edge83" class="edge">
<title>ast.BoolOp object at 0x75bcf8af5d50&#45;&gt;ast.Call object at 0x75bcffbba150</title>
<path fill="none" stroke="black" d="M1023.49,-647.8C1038.37,-637.54 1057.53,-624.17 1074.34,-612 1140.56,-564.02 1216.8,-505.97 1258.03,-474.34"/>
<polygon fill="black" stroke="black" points="1260.24,-477.06 1266.04,-468.19 1255.98,-471.5 1260.24,-477.06"/>
</g>
<!-- ast.Call object at 0x75bcf8af4d90 -->
<g id="node35" class="node">
<title>ast.Call object at 0x75bcf8af4d90</title>
<path fill="#66cdaa" stroke="black" d="M884.34,-540C884.34,-540 854.34,-540 854.34,-540 848.34,-540 842.34,-534 842.34,-528 842.34,-528 842.34,-516 842.34,-516 842.34,-510 848.34,-504 854.34,-504 854.34,-504 884.34,-504 884.34,-504 890.34,-504 896.34,-510 896.34,-516 896.34,-516 896.34,-528 896.34,-528 896.34,-534 890.34,-540 884.34,-540"/>
<text text-anchor="middle" x="869.34" y="-518.3" font-family="Times,serif" font-size="14.00">Call</text>
</g>
<!-- ast.Compare object at 0x75bcf8af5450&#45;&gt;ast.Call object at 0x75bcf8af4d90 -->
<g id="edge44" class="edge">
<title>ast.Compare object at 0x75bcf8af5450&#45;&gt;ast.Call object at 0x75bcf8af4d90</title>
<path fill="none" stroke="black" d="M937.09,-575.7C925.76,-566.88 911.81,-556.03 899.52,-546.47"/>
<polygon fill="black" stroke="black" points="901.37,-543.48 891.33,-540.1 897.07,-549.01 901.37,-543.48"/>
</g>
<!-- ast.Eq object at 0x75be41f03b90 -->
<g id="node44" class="node">
<title>ast.Eq object at 0x75be41f03b90</title>
<path fill="#66cdaa" stroke="black" d="M974.34,-540C974.34,-540 944.34,-540 944.34,-540 938.34,-540 932.34,-534 932.34,-528 932.34,-528 932.34,-516 932.34,-516 932.34,-510 938.34,-504 944.34,-504 944.34,-504 974.34,-504 974.34,-504 980.34,-504 986.34,-510 986.34,-516 986.34,-516 986.34,-528 986.34,-528 986.34,-534 980.34,-540 974.34,-540"/>
<text text-anchor="middle" x="959.34" y="-518.3" font-family="Times,serif" font-size="14.00">Eq</text>
</g>
<!-- ast.Compare object at 0x75bcf8af5450&#45;&gt;ast.Eq object at 0x75be41f03b90 -->
<g id="edge60" class="edge">
<title>ast.Compare object at 0x75bcf8af5450&#45;&gt;ast.Eq object at 0x75be41f03b90</title>
<path fill="none" stroke="black" d="M959.34,-575.7C959.34,-567.98 959.34,-558.71 959.34,-550.11"/>
<polygon fill="black" stroke="black" points="962.84,-550.1 959.34,-540.1 955.84,-550.1 962.84,-550.1"/>
</g>
<!-- ast.Call object at 0x75bcf8af6950 -->
<g id="node45" class="node">
<title>ast.Call object at 0x75bcf8af6950</title>
<path fill="#66cdaa" stroke="black" d="M1068.34,-540C1068.34,-540 1038.34,-540 1038.34,-540 1032.34,-540 1026.34,-534 1026.34,-528 1026.34,-528 1026.34,-516 1026.34,-516 1026.34,-510 1032.34,-504 1038.34,-504 1038.34,-504 1068.34,-504 1068.34,-504 1074.34,-504 1080.34,-510 1080.34,-516 1080.34,-516 1080.34,-528 1080.34,-528 1080.34,-534 1074.34,-540 1068.34,-540"/>
<text text-anchor="middle" x="1053.34" y="-518.3" font-family="Times,serif" font-size="14.00">Call</text>
</g>
<!-- ast.Compare object at 0x75bcf8af5450&#45;&gt;ast.Call object at 0x75bcf8af6950 -->
<g id="edge61" class="edge">
<title>ast.Compare object at 0x75bcf8af5450&#45;&gt;ast.Call object at 0x75bcf8af6950</title>
<path fill="none" stroke="black" d="M982.57,-575.7C994.53,-566.8 1009.26,-555.82 1022.18,-546.2"/>
<polygon fill="black" stroke="black" points="1024.44,-548.88 1030.37,-540.1 1020.26,-543.27 1024.44,-548.88"/>
</g>
<!-- ast.Attribute object at 0x75bcf8af4150 -->
<g id="node36" class="node">
<title>ast.Attribute object at 0x75bcf8af4150</title>
<path fill="#66cdaa" stroke="black" d="M803.84,-396C803.84,-396 762.84,-396 762.84,-396 756.84,-396 750.84,-390 750.84,-384 750.84,-384 750.84,-372 750.84,-372 750.84,-366 756.84,-360 762.84,-360 762.84,-360 803.84,-360 803.84,-360 809.84,-360 815.84,-366 815.84,-372 815.84,-372 815.84,-384 815.84,-384 815.84,-390 809.84,-396 803.84,-396"/>
<text text-anchor="middle" x="783.34" y="-374.3" font-family="Times,serif" font-size="14.00">Attribute</text>
</g>
<!-- ast.Call object at 0x75bcf8af4d90&#45;&gt;ast.Attribute object at 0x75bcf8af4150 -->
<g id="edge45" class="edge">
<title>ast.Call object at 0x75bcf8af4d90&#45;&gt;ast.Attribute object at 0x75bcf8af4150</title>
<path fill="none" stroke="black" d="M858.96,-503.87C844.05,-479.24 816.43,-433.64 799.01,-404.88"/>
<polygon fill="black" stroke="black" points="801.92,-402.93 793.75,-396.19 795.93,-406.56 801.92,-402.93"/>
</g>
<!-- ast.Attribute object at 0x75bcf8af4150&#45;&gt;ast.Load object at 0x75be41f02b90 -->
<g id="edge59" class="edge">
<title>ast.Attribute object at 0x75bcf8af4150&#45;&gt;ast.Load object at 0x75be41f02b90</title>
<path fill="none" stroke="black" d="M781.79,-359.73C778.57,-321.05 771.89,-224.54 777.34,-144 779.63,-110.16 785.37,-71.51 789.55,-46.26"/>
<polygon fill="black" stroke="black" points="793.01,-46.76 791.23,-36.31 786.11,-45.59 793.01,-46.76"/>
</g>
<!-- ast.Subscript object at 0x75bcf8af70d0 -->
<g id="node37" class="node">
<title>ast.Subscript object at 0x75bcf8af70d0</title>
<path fill="#66cdaa" stroke="black" d="M719.34,-324C719.34,-324 675.34,-324 675.34,-324 669.34,-324 663.34,-318 663.34,-312 663.34,-312 663.34,-300 663.34,-300 663.34,-294 669.34,-288 675.34,-288 675.34,-288 719.34,-288 719.34,-288 725.34,-288 731.34,-294 731.34,-300 731.34,-300 731.34,-312 731.34,-312 731.34,-318 725.34,-324 719.34,-324"/>
<text text-anchor="middle" x="697.34" y="-302.3" font-family="Times,serif" font-size="14.00">Subscript</text>
</g>
<!-- ast.Attribute object at 0x75bcf8af4150&#45;&gt;ast.Subscript object at 0x75bcf8af70d0 -->
<g id="edge46" class="edge">
<title>ast.Attribute object at 0x75bcf8af4150&#45;&gt;ast.Subscript object at 0x75bcf8af70d0</title>
<path fill="none" stroke="black" d="M762.08,-359.7C751.25,-350.88 737.92,-340.03 726.18,-330.47"/>
<polygon fill="black" stroke="black" points="728.32,-327.7 718.35,-324.1 723.9,-333.13 728.32,-327.7"/>
</g>
<!-- ast.Subscript object at 0x75bcf8af70d0&#45;&gt;ast.Load object at 0x75be41f02b90 -->
<g id="edge58" class="edge">
<title>ast.Subscript object at 0x75bcf8af70d0&#45;&gt;ast.Load object at 0x75be41f02b90</title>
<path fill="none" stroke="black" d="M693.82,-287.76C690.73,-269.69 687.42,-240.58 692.34,-216 705.93,-148.01 717.14,-131.74 752.34,-72 758.03,-62.34 765.32,-52.52 772.22,-43.99"/>
<polygon fill="black" stroke="black" points="774.95,-46.19 778.65,-36.26 769.57,-41.71 774.95,-46.19"/>
</g>
<!-- ast.Name object at 0x75bcf8af6c50 -->
<g id="node38" class="node">
<title>ast.Name object at 0x75bcf8af6c50</title>
<path fill="#66cdaa" stroke="black" d="M743.34,-252C743.34,-252 713.34,-252 713.34,-252 707.34,-252 701.34,-246 701.34,-240 701.34,-240 701.34,-228 701.34,-228 701.34,-222 707.34,-216 713.34,-216 713.34,-216 743.34,-216 743.34,-216 749.34,-216 755.34,-222 755.34,-228 755.34,-228 755.34,-240 755.34,-240 755.34,-246 749.34,-252 743.34,-252"/>
<text text-anchor="middle" x="728.34" y="-230.3" font-family="Times,serif" font-size="14.00">Name</text>
</g>
<!-- ast.Subscript object at 0x75bcf8af70d0&#45;&gt;ast.Name object at 0x75bcf8af6c50 -->
<g id="edge47" class="edge">
<title>ast.Subscript object at 0x75bcf8af70d0&#45;&gt;ast.Name object at 0x75bcf8af6c50</title>
<path fill="none" stroke="black" d="M705,-287.7C708.53,-279.73 712.79,-270.1 716.71,-261.26"/>
<polygon fill="black" stroke="black" points="719.91,-262.67 720.76,-252.1 713.51,-259.83 719.91,-262.67"/>
</g>
<!-- ast.Slice object at 0x75bcf8af6a50 -->
<g id="node39" class="node">
<title>ast.Slice object at 0x75bcf8af6a50</title>
<path fill="#66cdaa" stroke="black" d="M633.34,-252C633.34,-252 603.34,-252 603.34,-252 597.34,-252 591.34,-246 591.34,-240 591.34,-240 591.34,-228 591.34,-228 591.34,-222 597.34,-216 603.34,-216 603.34,-216 633.34,-216 633.34,-216 639.34,-216 645.34,-222 645.34,-228 645.34,-228 645.34,-240 645.34,-240 645.34,-246 639.34,-252 633.34,-252"/>
<text text-anchor="middle" x="618.34" y="-230.3" font-family="Times,serif" font-size="14.00">Slice</text>
</g>
<!-- ast.Subscript object at 0x75bcf8af70d0&#45;&gt;ast.Slice object at 0x75bcf8af6a50 -->
<g id="edge49" class="edge">
<title>ast.Subscript object at 0x75bcf8af70d0&#45;&gt;ast.Slice object at 0x75bcf8af6a50</title>
<path fill="none" stroke="black" d="M677.81,-287.7C667.96,-278.97 655.85,-268.24 645.14,-258.75"/>
<polygon fill="black" stroke="black" points="647.45,-256.12 637.64,-252.1 642.8,-261.36 647.45,-256.12"/>
</g>
<!-- ast.Name object at 0x75bcf8af6c50&#45;&gt;ast.Load object at 0x75be41f02b90 -->
<g id="edge48" class="edge">
<title>ast.Name object at 0x75bcf8af6c50&#45;&gt;ast.Load object at 0x75be41f02b90</title>
<path fill="none" stroke="black" d="M730.39,-215.7C732.78,-197.59 737.33,-168.45 744.34,-144 754.4,-108.89 770.81,-70.07 782.07,-45.15"/>
<polygon fill="black" stroke="black" points="785.27,-46.55 786.25,-36 778.91,-43.64 785.27,-46.55"/>
</g>
<!-- ast.Name object at 0x75bcf8af4bd0 -->
<g id="node40" class="node">
<title>ast.Name object at 0x75bcf8af4bd0</title>
<path fill="#66cdaa" stroke="black" d="M642.34,-180C642.34,-180 612.34,-180 612.34,-180 606.34,-180 600.34,-174 600.34,-168 600.34,-168 600.34,-156 600.34,-156 600.34,-150 606.34,-144 612.34,-144 612.34,-144 642.34,-144 642.34,-144 648.34,-144 654.34,-150 654.34,-156 654.34,-156 654.34,-168 654.34,-168 654.34,-174 648.34,-180 642.34,-180"/>
<text text-anchor="middle" x="627.34" y="-158.3" font-family="Times,serif" font-size="14.00">Name</text>
</g>
<!-- ast.Slice object at 0x75bcf8af6a50&#45;&gt;ast.Name object at 0x75bcf8af4bd0 -->
<g id="edge50" class="edge">
<title>ast.Slice object at 0x75bcf8af6a50&#45;&gt;ast.Name object at 0x75bcf8af4bd0</title>
<path fill="none" stroke="black" d="M620.56,-215.7C621.55,-207.98 622.75,-198.71 623.85,-190.11"/>
<polygon fill="black" stroke="black" points="627.33,-190.47 625.14,-180.1 620.39,-189.58 627.33,-190.47"/>
</g>
<!-- ast.BinOp object at 0x75bcf8af6790 -->
<g id="node41" class="node">
<title>ast.BinOp object at 0x75bcf8af6790</title>
<path fill="#66cdaa" stroke="black" d="M570.34,-180C570.34,-180 540.34,-180 540.34,-180 534.34,-180 528.34,-174 528.34,-168 528.34,-168 528.34,-156 528.34,-156 528.34,-150 534.34,-144 540.34,-144 540.34,-144 570.34,-144 570.34,-144 576.34,-144 582.34,-150 582.34,-156 582.34,-156 582.34,-168 582.34,-168 582.34,-174 576.34,-180 570.34,-180"/>
<text text-anchor="middle" x="555.34" y="-158.3" font-family="Times,serif" font-size="14.00">BinOp</text>
</g>
<!-- ast.Slice object at 0x75bcf8af6a50&#45;&gt;ast.BinOp object at 0x75bcf8af6790 -->
<g id="edge52" class="edge">
<title>ast.Slice object at 0x75bcf8af6a50&#45;&gt;ast.BinOp object at 0x75bcf8af6790</title>
<path fill="none" stroke="black" d="M602.76,-215.7C595.14,-207.22 585.81,-196.86 577.46,-187.58"/>
<polygon fill="black" stroke="black" points="580.02,-185.2 570.73,-180.1 574.82,-189.88 580.02,-185.2"/>
</g>
<!-- ast.Name object at 0x75bcf8af4bd0&#45;&gt;ast.Load object at 0x75be41f02b90 -->
<g id="edge51" class="edge">
<title>ast.Name object at 0x75bcf8af4bd0&#45;&gt;ast.Load object at 0x75be41f02b90</title>
<path fill="none" stroke="black" d="M644.87,-143.68C663.74,-125.31 694.87,-95.71 723.34,-72 735.63,-61.76 749.65,-51.1 761.97,-42.04"/>
<polygon fill="black" stroke="black" points="764.17,-44.77 770.18,-36.05 760.04,-39.11 764.17,-44.77"/>
</g>
<!-- ast.BinOp object at 0x75bcf8af6790&#45;&gt;ast.Add object at 0x75be41f03090 -->
<g id="edge55" class="edge">
<title>ast.BinOp object at 0x75bcf8af6790&#45;&gt;ast.Add object at 0x75be41f03090</title>
<path fill="none" stroke="black" d="M541.74,-143.7C535.21,-135.39 527.27,-125.28 520.09,-116.14"/>
<polygon fill="black" stroke="black" points="522.71,-113.81 513.78,-108.1 517.2,-118.13 522.71,-113.81"/>
</g>
<!-- ast.Name object at 0x75bcf8af5dd0 -->
<g id="node42" class="node">
<title>ast.Name object at 0x75bcf8af5dd0</title>
<path fill="#66cdaa" stroke="black" d="M659.34,-108C659.34,-108 629.34,-108 629.34,-108 623.34,-108 617.34,-102 617.34,-96 617.34,-96 617.34,-84 617.34,-84 617.34,-78 623.34,-72 629.34,-72 629.34,-72 659.34,-72 659.34,-72 665.34,-72 671.34,-78 671.34,-84 671.34,-84 671.34,-96 671.34,-96 671.34,-102 665.34,-108 659.34,-108"/>
<text text-anchor="middle" x="644.34" y="-86.3" font-family="Times,serif" font-size="14.00">Name</text>
</g>
<!-- ast.BinOp object at 0x75bcf8af6790&#45;&gt;ast.Name object at 0x75bcf8af5dd0 -->
<g id="edge53" class="edge">
<title>ast.BinOp object at 0x75bcf8af6790&#45;&gt;ast.Name object at 0x75bcf8af5dd0</title>
<path fill="none" stroke="black" d="M577.34,-143.7C588.55,-134.88 602.34,-124.03 614.49,-114.47"/>
<polygon fill="black" stroke="black" points="616.89,-117.04 622.59,-108.1 612.57,-111.54 616.89,-117.04"/>
</g>
<!-- ast.Name object at 0x75bcf8af6150 -->
<g id="node43" class="node">
<title>ast.Name object at 0x75bcf8af6150</title>
<path fill="#66cdaa" stroke="black" d="M587.34,-108C587.34,-108 557.34,-108 557.34,-108 551.34,-108 545.34,-102 545.34,-96 545.34,-96 545.34,-84 545.34,-84 545.34,-78 551.34,-72 557.34,-72 557.34,-72 587.34,-72 587.34,-72 593.34,-72 599.34,-78 599.34,-84 599.34,-84 599.34,-96 599.34,-96 599.34,-102 593.34,-108 587.34,-108"/>
<text text-anchor="middle" x="572.34" y="-86.3" font-family="Times,serif" font-size="14.00">Name</text>
</g>
<!-- ast.BinOp object at 0x75bcf8af6790&#45;&gt;ast.Name object at 0x75bcf8af6150 -->
<g id="edge56" class="edge">
<title>ast.BinOp object at 0x75bcf8af6790&#45;&gt;ast.Name object at 0x75bcf8af6150</title>
<path fill="none" stroke="black" d="M559.54,-143.7C561.43,-135.9 563.71,-126.51 565.82,-117.83"/>
<polygon fill="black" stroke="black" points="569.22,-118.65 568.18,-108.1 562.42,-117 569.22,-118.65"/>
</g>
<!-- ast.Name object at 0x75bcf8af5dd0&#45;&gt;ast.Load object at 0x75be41f02b90 -->
<g id="edge54" class="edge">
<title>ast.Name object at 0x75bcf8af5dd0&#45;&gt;ast.Load object at 0x75be41f02b90</title>
<path fill="none" stroke="black" d="M671.5,-76.32C695.64,-65.06 731.12,-48.5 757.75,-36.07"/>
<polygon fill="black" stroke="black" points="759.54,-39.1 767.12,-31.7 756.58,-32.76 759.54,-39.1"/>
</g>
<!-- ast.Name object at 0x75bcf8af6150&#45;&gt;ast.Load object at 0x75be41f02b90 -->
<g id="edge57" class="edge">
<title>ast.Name object at 0x75bcf8af6150&#45;&gt;ast.Load object at 0x75be41f02b90</title>
<path fill="none" stroke="black" d="M599.66,-75.53C602.56,-74.27 605.49,-73.07 608.34,-72 658.76,-53.06 719.03,-37.04 757,-27.73"/>
<polygon fill="black" stroke="black" points="758.2,-31.04 767.09,-25.28 756.55,-24.23 758.2,-31.04"/>
</g>
<!-- ast.Attribute object at 0x75bcf8af4fd0 -->
<g id="node46" class="node">
<title>ast.Attribute object at 0x75bcf8af4fd0</title>
<path fill="#66cdaa" stroke="black" d="M1089.84,-468C1089.84,-468 1048.84,-468 1048.84,-468 1042.84,-468 1036.84,-462 1036.84,-456 1036.84,-456 1036.84,-444 1036.84,-444 1036.84,-438 1042.84,-432 1048.84,-432 1048.84,-432 1089.84,-432 1089.84,-432 1095.84,-432 1101.84,-438 1101.84,-444 1101.84,-444 1101.84,-456 1101.84,-456 1101.84,-462 1095.84,-468 1089.84,-468"/>
<text text-anchor="middle" x="1069.34" y="-446.3" font-family="Times,serif" font-size="14.00">Attribute</text>
</g>
<!-- ast.Call object at 0x75bcf8af6950&#45;&gt;ast.Attribute object at 0x75bcf8af4fd0 -->
<g id="edge62" class="edge">
<title>ast.Call object at 0x75bcf8af6950&#45;&gt;ast.Attribute object at 0x75bcf8af4fd0</title>
<path fill="none" stroke="black" d="M1057.29,-503.7C1059.06,-495.98 1061.17,-486.71 1063.14,-478.11"/>
<polygon fill="black" stroke="black" points="1066.61,-478.63 1065.43,-468.1 1059.79,-477.07 1066.61,-478.63"/>
</g>
<!-- ast.Attribute object at 0x75bcf8af4fd0&#45;&gt;ast.Load object at 0x75be41f02b90 -->
<g id="edge82" class="edge">
<title>ast.Attribute object at 0x75bcf8af4fd0&#45;&gt;ast.Load object at 0x75be41f02b90</title>
<path fill="none" stroke="black" d="M1102.04,-433.98C1143.69,-412.33 1210.34,-368.15 1210.34,-307 1210.34,-307 1210.34,-307 1210.34,-161 1210.34,-112.54 1188.6,-97.41 1147.34,-72 1094.88,-39.7 910.98,-25.6 831.45,-20.92"/>
<polygon fill="black" stroke="black" points="831.57,-17.42 821.39,-20.34 831.17,-24.41 831.57,-17.42"/>
</g>
<!-- ast.Subscript object at 0x75bcf8af6850 -->
<g id="node47" class="node">
<title>ast.Subscript object at 0x75bcf8af6850</title>
<path fill="#66cdaa" stroke="black" d="M1091.34,-396C1091.34,-396 1047.34,-396 1047.34,-396 1041.34,-396 1035.34,-390 1035.34,-384 1035.34,-384 1035.34,-372 1035.34,-372 1035.34,-366 1041.34,-360 1047.34,-360 1047.34,-360 1091.34,-360 1091.34,-360 1097.34,-360 1103.34,-366 1103.34,-372 1103.34,-372 1103.34,-384 1103.34,-384 1103.34,-390 1097.34,-396 1091.34,-396"/>
<text text-anchor="middle" x="1069.34" y="-374.3" font-family="Times,serif" font-size="14.00">Subscript</text>
</g>
<!-- ast.Attribute object at 0x75bcf8af4fd0&#45;&gt;ast.Subscript object at 0x75bcf8af6850 -->
<g id="edge63" class="edge">
<title>ast.Attribute object at 0x75bcf8af4fd0&#45;&gt;ast.Subscript object at 0x75bcf8af6850</title>
<path fill="none" stroke="black" d="M1069.34,-431.7C1069.34,-423.98 1069.34,-414.71 1069.34,-406.11"/>
<polygon fill="black" stroke="black" points="1072.84,-406.1 1069.34,-396.1 1065.84,-406.1 1072.84,-406.1"/>
</g>
<!-- ast.Subscript object at 0x75bcf8af6850&#45;&gt;ast.Load object at 0x75be41f02b90 -->
<g id="edge81" class="edge">
<title>ast.Subscript object at 0x75bcf8af6850&#45;&gt;ast.Load object at 0x75be41f02b90</title>
<path fill="none" stroke="black" d="M1092.97,-359.97C1123.38,-335.89 1172.34,-288.75 1172.34,-235 1172.34,-235 1172.34,-235 1172.34,-161 1172.34,-113.3 1152.46,-97.8 1112.34,-72 1066.34,-42.43 905.31,-27.12 831.64,-21.53"/>
<polygon fill="black" stroke="black" points="831.66,-18.03 821.43,-20.78 831.14,-25.01 831.66,-18.03"/>
</g>
<!-- ast.Subscript object at 0x75bcf8af5b10 -->
<g id="node48" class="node">
<title>ast.Subscript object at 0x75bcf8af5b10</title>
<path fill="#66cdaa" stroke="black" d="M1091.34,-324C1091.34,-324 1047.34,-324 1047.34,-324 1041.34,-324 1035.34,-318 1035.34,-312 1035.34,-312 1035.34,-300 1035.34,-300 1035.34,-294 1041.34,-288 1047.34,-288 1047.34,-288 1091.34,-288 1091.34,-288 1097.34,-288 1103.34,-294 1103.34,-300 1103.34,-300 1103.34,-312 1103.34,-312 1103.34,-318 1097.34,-324 1091.34,-324"/>
<text text-anchor="middle" x="1069.34" y="-302.3" font-family="Times,serif" font-size="14.00">Subscript</text>
</g>
<!-- ast.Subscript object at 0x75bcf8af6850&#45;&gt;ast.Subscript object at 0x75bcf8af5b10 -->
<g id="edge64" class="edge">
<title>ast.Subscript object at 0x75bcf8af6850&#45;&gt;ast.Subscript object at 0x75bcf8af5b10</title>
<path fill="none" stroke="black" d="M1069.34,-359.7C1069.34,-351.98 1069.34,-342.71 1069.34,-334.11"/>
<polygon fill="black" stroke="black" points="1072.84,-334.1 1069.34,-324.1 1065.84,-334.1 1072.84,-334.1"/>
</g>
<!-- ast.Slice object at 0x75bcf8af4a50 -->
<g id="node55" class="node">
<title>ast.Slice object at 0x75bcf8af4a50</title>
<path fill="#66cdaa" stroke="black" d="M955.34,-324C955.34,-324 925.34,-324 925.34,-324 919.34,-324 913.34,-318 913.34,-312 913.34,-312 913.34,-300 913.34,-300 913.34,-294 919.34,-288 925.34,-288 925.34,-288 955.34,-288 955.34,-288 961.34,-288 967.34,-294 967.34,-300 967.34,-300 967.34,-312 967.34,-312 967.34,-318 961.34,-324 955.34,-324"/>
<text text-anchor="middle" x="940.34" y="-302.3" font-family="Times,serif" font-size="14.00">Slice</text>
</g>
<!-- ast.Subscript object at 0x75bcf8af6850&#45;&gt;ast.Slice object at 0x75bcf8af4a50 -->
<g id="edge77" class="edge">
<title>ast.Subscript object at 0x75bcf8af6850&#45;&gt;ast.Slice object at 0x75bcf8af4a50</title>
<path fill="none" stroke="black" d="M1037.78,-359.88C1019.24,-349.81 995.72,-337.05 976.44,-326.59"/>
<polygon fill="black" stroke="black" points="978.09,-323.51 967.64,-321.81 974.76,-329.66 978.09,-323.51"/>
</g>
<!-- ast.Subscript object at 0x75bcf8af5b10&#45;&gt;ast.Load object at 0x75be41f02b90 -->
<g id="edge76" class="edge">
<title>ast.Subscript object at 0x75bcf8af5b10&#45;&gt;ast.Load object at 0x75be41f02b90</title>
<path fill="none" stroke="black" d="M1083.87,-288C1091.5,-278.12 1100.3,-265.08 1105.34,-252 1134.3,-176.73 1145.98,-121.54 1082.34,-72 1043.78,-41.98 900.76,-27.16 831.88,-21.64"/>
<polygon fill="black" stroke="black" points="831.73,-18.12 821.49,-20.83 831.19,-25.1 831.73,-18.12"/>
</g>
<!-- ast.Name object at 0x75bcf8af51d0 -->
<g id="node49" class="node">
<title>ast.Name object at 0x75bcf8af51d0</title>
<path fill="#66cdaa" stroke="black" d="M1003.34,-252C1003.34,-252 973.34,-252 973.34,-252 967.34,-252 961.34,-246 961.34,-240 961.34,-240 961.34,-228 961.34,-228 961.34,-222 967.34,-216 973.34,-216 973.34,-216 1003.34,-216 1003.34,-216 1009.34,-216 1015.34,-222 1015.34,-228 1015.34,-228 1015.34,-240 1015.34,-240 1015.34,-246 1009.34,-252 1003.34,-252"/>
<text text-anchor="middle" x="988.34" y="-230.3" font-family="Times,serif" font-size="14.00">Name</text>
</g>
<!-- ast.Subscript object at 0x75bcf8af5b10&#45;&gt;ast.Name object at 0x75bcf8af51d0 -->
<g id="edge65" class="edge">
<title>ast.Subscript object at 0x75bcf8af5b10&#45;&gt;ast.Name object at 0x75bcf8af51d0</title>
<path fill="none" stroke="black" d="M1049.32,-287.7C1039.21,-278.97 1026.8,-268.24 1015.82,-258.75"/>
<polygon fill="black" stroke="black" points="1017.98,-255.99 1008.13,-252.1 1013.41,-261.29 1017.98,-255.99"/>
</g>
<!-- ast.Slice object at 0x75bcf8af7e10 -->
<g id="node50" class="node">
<title>ast.Slice object at 0x75bcf8af7e10</title>
<path fill="#66cdaa" stroke="black" d="M1084.34,-252C1084.34,-252 1054.34,-252 1054.34,-252 1048.34,-252 1042.34,-246 1042.34,-240 1042.34,-240 1042.34,-228 1042.34,-228 1042.34,-222 1048.34,-216 1054.34,-216 1054.34,-216 1084.34,-216 1084.34,-216 1090.34,-216 1096.34,-222 1096.34,-228 1096.34,-228 1096.34,-240 1096.34,-240 1096.34,-246 1090.34,-252 1084.34,-252"/>
<text text-anchor="middle" x="1069.34" y="-230.3" font-family="Times,serif" font-size="14.00">Slice</text>
</g>
<!-- ast.Subscript object at 0x75bcf8af5b10&#45;&gt;ast.Slice object at 0x75bcf8af7e10 -->
<g id="edge67" class="edge">
<title>ast.Subscript object at 0x75bcf8af5b10&#45;&gt;ast.Slice object at 0x75bcf8af7e10</title>
<path fill="none" stroke="black" d="M1069.34,-287.7C1069.34,-279.98 1069.34,-270.71 1069.34,-262.11"/>
<polygon fill="black" stroke="black" points="1072.84,-262.1 1069.34,-252.1 1065.84,-262.1 1072.84,-262.1"/>
</g>
<!-- ast.Name object at 0x75bcf8af51d0&#45;&gt;ast.Load object at 0x75be41f02b90 -->
<g id="edge66" class="edge">
<title>ast.Name object at 0x75bcf8af51d0&#45;&gt;ast.Load object at 0x75be41f02b90</title>
<path fill="none" stroke="black" d="M979.71,-215.98C969.85,-197.32 952.55,-167 933.34,-144 900.34,-104.5 854.88,-65.97 825.06,-42.36"/>
<polygon fill="black" stroke="black" points="827.12,-39.53 817.09,-36.11 822.8,-45.04 827.12,-39.53"/>
</g>
<!-- ast.Name object at 0x75bcf8af5490 -->
<g id="node51" class="node">
<title>ast.Name object at 0x75bcf8af5490</title>
<path fill="#66cdaa" stroke="black" d="M1094.34,-180C1094.34,-180 1064.34,-180 1064.34,-180 1058.34,-180 1052.34,-174 1052.34,-168 1052.34,-168 1052.34,-156 1052.34,-156 1052.34,-150 1058.34,-144 1064.34,-144 1064.34,-144 1094.34,-144 1094.34,-144 1100.34,-144 1106.34,-150 1106.34,-156 1106.34,-156 1106.34,-168 1106.34,-168 1106.34,-174 1100.34,-180 1094.34,-180"/>
<text text-anchor="middle" x="1079.34" y="-158.3" font-family="Times,serif" font-size="14.00">Name</text>
</g>
<!-- ast.Slice object at 0x75bcf8af7e10&#45;&gt;ast.Name object at 0x75bcf8af5490 -->
<g id="edge68" class="edge">
<title>ast.Slice object at 0x75bcf8af7e10&#45;&gt;ast.Name object at 0x75bcf8af5490</title>
<path fill="none" stroke="black" d="M1071.81,-215.7C1072.91,-207.98 1074.24,-198.71 1075.46,-190.11"/>
<polygon fill="black" stroke="black" points="1078.94,-190.5 1076.89,-180.1 1072.01,-189.51 1078.94,-190.5"/>
</g>
<!-- ast.BinOp object at 0x75bcf8af5510 -->
<g id="node52" class="node">
<title>ast.BinOp object at 0x75bcf8af5510</title>
<path fill="#66cdaa" stroke="black" d="M1022.34,-180C1022.34,-180 992.34,-180 992.34,-180 986.34,-180 980.34,-174 980.34,-168 980.34,-168 980.34,-156 980.34,-156 980.34,-150 986.34,-144 992.34,-144 992.34,-144 1022.34,-144 1022.34,-144 1028.34,-144 1034.34,-150 1034.34,-156 1034.34,-156 1034.34,-168 1034.34,-168 1034.34,-174 1028.34,-180 1022.34,-180"/>
<text text-anchor="middle" x="1007.34" y="-158.3" font-family="Times,serif" font-size="14.00">BinOp</text>
</g>
<!-- ast.Slice object at 0x75bcf8af7e10&#45;&gt;ast.BinOp object at 0x75bcf8af5510 -->
<g id="edge70" class="edge">
<title>ast.Slice object at 0x75bcf8af7e10&#45;&gt;ast.BinOp object at 0x75bcf8af5510</title>
<path fill="none" stroke="black" d="M1054.01,-215.7C1046.58,-207.3 1037.51,-197.07 1029.36,-187.86"/>
<polygon fill="black" stroke="black" points="1031.74,-185.27 1022.49,-180.1 1026.5,-189.91 1031.74,-185.27"/>
</g>
<!-- ast.Name object at 0x75bcf8af5490&#45;&gt;ast.Load object at 0x75be41f02b90 -->
<g id="edge69" class="edge">
<title>ast.Name object at 0x75bcf8af5490&#45;&gt;ast.Load object at 0x75be41f02b90</title>
<path fill="none" stroke="black" d="M1080.83,-143.65C1081.54,-123.53 1079.35,-90.75 1060.34,-72 1028.5,-40.6 897.49,-26.62 831.99,-21.49"/>
<polygon fill="black" stroke="black" points="831.92,-17.98 821.68,-20.72 831.39,-24.96 831.92,-17.98"/>
</g>
<!-- ast.BinOp object at 0x75bcf8af5510&#45;&gt;ast.Add object at 0x75be41f03090 -->
<g id="edge73" class="edge">
<title>ast.BinOp object at 0x75bcf8af5510&#45;&gt;ast.Add object at 0x75be41f03090</title>
<path fill="none" stroke="black" d="M980.1,-153.81C966.19,-150.38 948.96,-146.49 933.34,-144 761.63,-116.62 709.22,-153.14 537.35,-107.69"/>
<polygon fill="black" stroke="black" points="538.04,-104.25 527.48,-105.02 536.22,-111.01 538.04,-104.25"/>
</g>
<!-- ast.Name object at 0x75bcf8af4990 -->
<g id="node53" class="node">
<title>ast.Name object at 0x75bcf8af4990</title>
<path fill="#66cdaa" stroke="black" d="M967.34,-108C967.34,-108 937.34,-108 937.34,-108 931.34,-108 925.34,-102 925.34,-96 925.34,-96 925.34,-84 925.34,-84 925.34,-78 931.34,-72 937.34,-72 937.34,-72 967.34,-72 967.34,-72 973.34,-72 979.34,-78 979.34,-84 979.34,-84 979.34,-96 979.34,-96 979.34,-102 973.34,-108 967.34,-108"/>
<text text-anchor="middle" x="952.34" y="-86.3" font-family="Times,serif" font-size="14.00">Name</text>
</g>
<!-- ast.BinOp object at 0x75bcf8af5510&#45;&gt;ast.Name object at 0x75bcf8af4990 -->
<g id="edge71" class="edge">
<title>ast.BinOp object at 0x75bcf8af5510&#45;&gt;ast.Name object at 0x75bcf8af4990</title>
<path fill="none" stroke="black" d="M993.74,-143.7C987.21,-135.39 979.27,-125.28 972.09,-116.14"/>
<polygon fill="black" stroke="black" points="974.71,-113.81 965.78,-108.1 969.2,-118.13 974.71,-113.81"/>
</g>
<!-- ast.Name object at 0x75bcf8af4190 -->
<g id="node54" class="node">
<title>ast.Name object at 0x75bcf8af4190</title>
<path fill="#66cdaa" stroke="black" d="M1039.34,-108C1039.34,-108 1009.34,-108 1009.34,-108 1003.34,-108 997.34,-102 997.34,-96 997.34,-96 997.34,-84 997.34,-84 997.34,-78 1003.34,-72 1009.34,-72 1009.34,-72 1039.34,-72 1039.34,-72 1045.34,-72 1051.34,-78 1051.34,-84 1051.34,-84 1051.34,-96 1051.34,-96 1051.34,-102 1045.34,-108 1039.34,-108"/>
<text text-anchor="middle" x="1024.34" y="-86.3" font-family="Times,serif" font-size="14.00">Name</text>
</g>
<!-- ast.BinOp object at 0x75bcf8af5510&#45;&gt;ast.Name object at 0x75bcf8af4190 -->
<g id="edge74" class="edge">
<title>ast.BinOp object at 0x75bcf8af5510&#45;&gt;ast.Name object at 0x75bcf8af4190</title>
<path fill="none" stroke="black" d="M1011.54,-143.7C1013.43,-135.9 1015.71,-126.51 1017.82,-117.83"/>
<polygon fill="black" stroke="black" points="1021.22,-118.65 1020.18,-108.1 1014.42,-117 1021.22,-118.65"/>
</g>
<!-- ast.Name object at 0x75bcf8af4990&#45;&gt;ast.Load object at 0x75be41f02b90 -->
<g id="edge72" class="edge">
<title>ast.Name object at 0x75bcf8af4990&#45;&gt;ast.Load object at 0x75be41f02b90</title>
<path fill="none" stroke="black" d="M925.18,-76.97C899.1,-65.41 859.52,-47.88 830.73,-35.12"/>
<polygon fill="black" stroke="black" points="831.97,-31.84 821.41,-30.99 829.13,-38.24 831.97,-31.84"/>
</g>
<!-- ast.Name object at 0x75bcf8af4190&#45;&gt;ast.Load object at 0x75be41f02b90 -->
<g id="edge75" class="edge">
<title>ast.Name object at 0x75bcf8af4190&#45;&gt;ast.Load object at 0x75be41f02b90</title>
<path fill="none" stroke="black" d="M997.03,-75.5C994.13,-74.25 991.19,-73.05 988.34,-72 934.97,-52.28 870.95,-36.19 831.45,-27.1"/>
<polygon fill="black" stroke="black" points="832,-23.64 821.48,-24.84 830.45,-30.46 832,-23.64"/>
</g>
<!-- ast.UnaryOp object at 0x75bcf8af7790 -->
<g id="node56" class="node">
<title>ast.UnaryOp object at 0x75bcf8af7790</title>
<path fill="#66cdaa" stroke="black" d="M912.84,-252C912.84,-252 869.84,-252 869.84,-252 863.84,-252 857.84,-246 857.84,-240 857.84,-240 857.84,-228 857.84,-228 857.84,-222 863.84,-216 869.84,-216 869.84,-216 912.84,-216 912.84,-216 918.84,-216 924.84,-222 924.84,-228 924.84,-228 924.84,-240 924.84,-240 924.84,-246 918.84,-252 912.84,-252"/>
<text text-anchor="middle" x="891.34" y="-230.3" font-family="Times,serif" font-size="14.00">UnaryOp</text>
</g>
<!-- ast.Slice object at 0x75bcf8af4a50&#45;&gt;ast.UnaryOp object at 0x75bcf8af7790 -->
<g id="edge78" class="edge">
<title>ast.Slice object at 0x75bcf8af4a50&#45;&gt;ast.UnaryOp object at 0x75bcf8af7790</title>
<path fill="none" stroke="black" d="M928.23,-287.7C922.47,-279.47 915.48,-269.48 909.13,-260.42"/>
<polygon fill="black" stroke="black" points="911.91,-258.29 903.31,-252.1 906.18,-262.3 911.91,-258.29"/>
</g>
<!-- ast.USub object at 0x75be41f03a10 -->
<g id="node57" class="node">
<title>ast.USub object at 0x75be41f03a10</title>
<path fill="#66cdaa" stroke="black" d="M828.34,-180C828.34,-180 798.34,-180 798.34,-180 792.34,-180 786.34,-174 786.34,-168 786.34,-168 786.34,-156 786.34,-156 786.34,-150 792.34,-144 798.34,-144 798.34,-144 828.34,-144 828.34,-144 834.34,-144 840.34,-150 840.34,-156 840.34,-156 840.34,-168 840.34,-168 840.34,-174 834.34,-180 828.34,-180"/>
<text text-anchor="middle" x="813.34" y="-158.3" font-family="Times,serif" font-size="14.00">USub</text>
</g>
<!-- ast.UnaryOp object at 0x75bcf8af7790&#45;&gt;ast.USub object at 0x75be41f03a10 -->
<g id="edge79" class="edge">
<title>ast.UnaryOp object at 0x75bcf8af7790&#45;&gt;ast.USub object at 0x75be41f03a10</title>
<path fill="none" stroke="black" d="M872.06,-215.7C862.42,-207.05 850.61,-196.45 840.11,-187.03"/>
<polygon fill="black" stroke="black" points="842.18,-184.18 832.4,-180.1 837.5,-189.39 842.18,-184.18"/>
</g>
<!-- ast.Constant object at 0x75bcf8af6b50 -->
<g id="node58" class="node">
<title>ast.Constant object at 0x75bcf8af6b50</title>
<path fill="#66cdaa" stroke="black" d="M911.84,-180C911.84,-180 870.84,-180 870.84,-180 864.84,-180 858.84,-174 858.84,-168 858.84,-168 858.84,-156 858.84,-156 858.84,-150 864.84,-144 870.84,-144 870.84,-144 911.84,-144 911.84,-144 917.84,-144 923.84,-150 923.84,-156 923.84,-156 923.84,-168 923.84,-168 923.84,-174 917.84,-180 911.84,-180"/>
<text text-anchor="middle" x="891.34" y="-158.3" font-family="Times,serif" font-size="14.00">Constant</text>
</g>
<!-- ast.UnaryOp object at 0x75bcf8af7790&#45;&gt;ast.Constant object at 0x75bcf8af6b50 -->
<g id="edge80" class="edge">
<title>ast.UnaryOp object at 0x75bcf8af7790&#45;&gt;ast.Constant object at 0x75bcf8af6b50</title>
<path fill="none" stroke="black" d="M891.34,-215.7C891.34,-207.98 891.34,-198.71 891.34,-190.11"/>
<polygon fill="black" stroke="black" points="894.84,-190.1 891.34,-180.1 887.84,-190.1 894.84,-190.1"/>
</g>
<!-- ast.Attribute object at 0x75bcf8af4c90 -->
<g id="node60" class="node">
<title>ast.Attribute object at 0x75bcf8af4c90</title>
<path fill="#66cdaa" stroke="black" d="M1450.84,-396C1450.84,-396 1409.84,-396 1409.84,-396 1403.84,-396 1397.84,-390 1397.84,-384 1397.84,-384 1397.84,-372 1397.84,-372 1397.84,-366 1403.84,-360 1409.84,-360 1409.84,-360 1450.84,-360 1450.84,-360 1456.84,-360 1462.84,-366 1462.84,-372 1462.84,-372 1462.84,-384 1462.84,-384 1462.84,-390 1456.84,-396 1450.84,-396"/>
<text text-anchor="middle" x="1430.34" y="-374.3" font-family="Times,serif" font-size="14.00">Attribute</text>
</g>
<!-- ast.Call object at 0x75bcffbba150&#45;&gt;ast.Attribute object at 0x75bcf8af4c90 -->
<g id="edge84" class="edge">
<title>ast.Call object at 0x75bcffbba150&#45;&gt;ast.Attribute object at 0x75bcf8af4c90</title>
<path fill="none" stroke="black" d="M1315.38,-435.67C1336.05,-425.48 1364.92,-411.25 1388.56,-399.6"/>
<polygon fill="black" stroke="black" points="1390.24,-402.67 1397.66,-395.11 1387.14,-396.39 1390.24,-402.67"/>
</g>
<!-- ast.Attribute object at 0x75bcf8af4c90&#45;&gt;ast.Load object at 0x75be41f02b90 -->
<g id="edge98" class="edge">
<title>ast.Attribute object at 0x75bcf8af4c90&#45;&gt;ast.Load object at 0x75be41f02b90</title>
<path fill="none" stroke="black" d="M1456.13,-359.94C1488.64,-336.16 1540.34,-289.73 1540.34,-235 1540.34,-235 1540.34,-235 1540.34,-161 1540.34,-110.68 1514.71,-95.74 1470.34,-72 1413.87,-41.79 964.96,-24.64 831.58,-20.18"/>
<polygon fill="black" stroke="black" points="831.56,-16.68 821.45,-19.85 831.33,-23.67 831.56,-16.68"/>
</g>
<!-- ast.Subscript object at 0x75bcf8af5310 -->
<g id="node61" class="node">
<title>ast.Subscript object at 0x75bcf8af5310</title>
<path fill="#66cdaa" stroke="black" d="M1452.34,-324C1452.34,-324 1408.34,-324 1408.34,-324 1402.34,-324 1396.34,-318 1396.34,-312 1396.34,-312 1396.34,-300 1396.34,-300 1396.34,-294 1402.34,-288 1408.34,-288 1408.34,-288 1452.34,-288 1452.34,-288 1458.34,-288 1464.34,-294 1464.34,-300 1464.34,-300 1464.34,-312 1464.34,-312 1464.34,-318 1458.34,-324 1452.34,-324"/>
<text text-anchor="middle" x="1430.34" y="-302.3" font-family="Times,serif" font-size="14.00">Subscript</text>
</g>
<!-- ast.Attribute object at 0x75bcf8af4c90&#45;&gt;ast.Subscript object at 0x75bcf8af5310 -->
<g id="edge85" class="edge">
<title>ast.Attribute object at 0x75bcf8af4c90&#45;&gt;ast.Subscript object at 0x75bcf8af5310</title>
<path fill="none" stroke="black" d="M1430.34,-359.7C1430.34,-351.98 1430.34,-342.71 1430.34,-334.11"/>
<polygon fill="black" stroke="black" points="1433.84,-334.1 1430.34,-324.1 1426.84,-334.1 1433.84,-334.1"/>
</g>
<!-- ast.Subscript object at 0x75bcf8af5310&#45;&gt;ast.Load object at 0x75be41f02b90 -->
<g id="edge97" class="edge">
<title>ast.Subscript object at 0x75bcf8af5310&#45;&gt;ast.Load object at 0x75be41f02b90</title>
<path fill="none" stroke="black" d="M1434.06,-287.76C1442.43,-243.71 1457.33,-126.67 1393.34,-72 1350.63,-35.51 956.34,-22.91 831.83,-19.83"/>
<polygon fill="black" stroke="black" points="831.73,-16.32 821.65,-19.58 831.56,-23.32 831.73,-16.32"/>
</g>
<!-- ast.Name object at 0x75bcf8af6310 -->
<g id="node62" class="node">
<title>ast.Name object at 0x75bcf8af6310</title>
<path fill="#66cdaa" stroke="black" d="M1500.34,-252C1500.34,-252 1470.34,-252 1470.34,-252 1464.34,-252 1458.34,-246 1458.34,-240 1458.34,-240 1458.34,-228 1458.34,-228 1458.34,-222 1464.34,-216 1470.34,-216 1470.34,-216 1500.34,-216 1500.34,-216 1506.34,-216 1512.34,-222 1512.34,-228 1512.34,-228 1512.34,-240 1512.34,-240 1512.34,-246 1506.34,-252 1500.34,-252"/>
<text text-anchor="middle" x="1485.34" y="-230.3" font-family="Times,serif" font-size="14.00">Name</text>
</g>
<!-- ast.Subscript object at 0x75bcf8af5310&#45;&gt;ast.Name object at 0x75bcf8af6310 -->
<g id="edge86" class="edge">
<title>ast.Subscript object at 0x75bcf8af5310&#45;&gt;ast.Name object at 0x75bcf8af6310</title>
<path fill="none" stroke="black" d="M1443.93,-287.7C1450.46,-279.39 1458.41,-269.28 1465.58,-260.14"/>
<polygon fill="black" stroke="black" points="1468.47,-262.13 1471.9,-252.1 1462.97,-257.81 1468.47,-262.13"/>
</g>
<!-- ast.Slice object at 0x75bcf8af65d0 -->
<g id="node63" class="node">
<title>ast.Slice object at 0x75bcf8af65d0</title>
<path fill="#66cdaa" stroke="black" d="M1390.34,-252C1390.34,-252 1360.34,-252 1360.34,-252 1354.34,-252 1348.34,-246 1348.34,-240 1348.34,-240 1348.34,-228 1348.34,-228 1348.34,-222 1354.34,-216 1360.34,-216 1360.34,-216 1390.34,-216 1390.34,-216 1396.34,-216 1402.34,-222 1402.34,-228 1402.34,-228 1402.34,-240 1402.34,-240 1402.34,-246 1396.34,-252 1390.34,-252"/>
<text text-anchor="middle" x="1375.34" y="-230.3" font-family="Times,serif" font-size="14.00">Slice</text>
</g>
<!-- ast.Subscript object at 0x75bcf8af5310&#45;&gt;ast.Slice object at 0x75bcf8af65d0 -->
<g id="edge88" class="edge">
<title>ast.Subscript object at 0x75bcf8af5310&#45;&gt;ast.Slice object at 0x75bcf8af65d0</title>
<path fill="none" stroke="black" d="M1416.74,-287.7C1410.21,-279.39 1402.27,-269.28 1395.09,-260.14"/>
<polygon fill="black" stroke="black" points="1397.71,-257.81 1388.78,-252.1 1392.2,-262.13 1397.71,-257.81"/>
</g>
<!-- ast.Name object at 0x75bcf8af6310&#45;&gt;ast.Load object at 0x75be41f02b90 -->
<g id="edge87" class="edge">
<title>ast.Name object at 0x75bcf8af6310&#45;&gt;ast.Load object at 0x75be41f02b90</title>
<path fill="none" stroke="black" d="M1486.8,-215.86C1488.6,-182.33 1487.2,-108.2 1444.34,-72 1397.44,-32.38 963.39,-21.85 831.91,-19.56"/>
<polygon fill="black" stroke="black" points="831.61,-16.05 821.55,-19.38 831.49,-23.05 831.61,-16.05"/>
</g>
<!-- ast.Name object at 0x75bcf8af5650 -->
<g id="node64" class="node">
<title>ast.Name object at 0x75bcf8af5650</title>
<path fill="#66cdaa" stroke="black" d="M1390.34,-180C1390.34,-180 1360.34,-180 1360.34,-180 1354.34,-180 1348.34,-174 1348.34,-168 1348.34,-168 1348.34,-156 1348.34,-156 1348.34,-150 1354.34,-144 1360.34,-144 1360.34,-144 1390.34,-144 1390.34,-144 1396.34,-144 1402.34,-150 1402.34,-156 1402.34,-156 1402.34,-168 1402.34,-168 1402.34,-174 1396.34,-180 1390.34,-180"/>
<text text-anchor="middle" x="1375.34" y="-158.3" font-family="Times,serif" font-size="14.00">Name</text>
</g>
<!-- ast.Slice object at 0x75bcf8af65d0&#45;&gt;ast.Name object at 0x75bcf8af5650 -->
<g id="edge89" class="edge">
<title>ast.Slice object at 0x75bcf8af65d0&#45;&gt;ast.Name object at 0x75bcf8af5650</title>
<path fill="none" stroke="black" d="M1375.34,-215.7C1375.34,-207.98 1375.34,-198.71 1375.34,-190.11"/>
<polygon fill="black" stroke="black" points="1378.84,-190.1 1375.34,-180.1 1371.84,-190.1 1378.84,-190.1"/>
</g>
<!-- ast.BinOp object at 0x75bcf8af4e10 -->
<g id="node65" class="node">
<title>ast.BinOp object at 0x75bcf8af4e10</title>
<path fill="#66cdaa" stroke="black" d="M1299.34,-180C1299.34,-180 1269.34,-180 1269.34,-180 1263.34,-180 1257.34,-174 1257.34,-168 1257.34,-168 1257.34,-156 1257.34,-156 1257.34,-150 1263.34,-144 1269.34,-144 1269.34,-144 1299.34,-144 1299.34,-144 1305.34,-144 1311.34,-150 1311.34,-156 1311.34,-156 1311.34,-168 1311.34,-168 1311.34,-174 1305.34,-180 1299.34,-180"/>
<text text-anchor="middle" x="1284.34" y="-158.3" font-family="Times,serif" font-size="14.00">BinOp</text>
</g>
<!-- ast.Slice object at 0x75bcf8af65d0&#45;&gt;ast.BinOp object at 0x75bcf8af4e10 -->
<g id="edge91" class="edge">
<title>ast.Slice object at 0x75bcf8af65d0&#45;&gt;ast.BinOp object at 0x75bcf8af4e10</title>
<path fill="none" stroke="black" d="M1352.84,-215.7C1341.38,-206.88 1327.28,-196.03 1314.85,-186.47"/>
<polygon fill="black" stroke="black" points="1316.63,-183.43 1306.57,-180.1 1312.37,-188.98 1316.63,-183.43"/>
</g>
<!-- ast.Name object at 0x75bcf8af5650&#45;&gt;ast.Load object at 0x75be41f02b90 -->
<g id="edge90" class="edge">
<title>ast.Name object at 0x75bcf8af5650&#45;&gt;ast.Load object at 0x75be41f02b90</title>
<path fill="none" stroke="black" d="M1380.98,-143.77C1386.32,-123.76 1391.16,-91.09 1373.34,-72 1336.36,-32.38 953.91,-21.94 831.68,-19.6"/>
<polygon fill="black" stroke="black" points="831.4,-16.09 821.34,-19.41 831.28,-23.09 831.4,-16.09"/>
</g>
<!-- ast.BinOp object at 0x75bcf8af4e10&#45;&gt;ast.Add object at 0x75be41f03090 -->
<g id="edge94" class="edge">
<title>ast.BinOp object at 0x75bcf8af4e10&#45;&gt;ast.Add object at 0x75be41f03090</title>
<path fill="none" stroke="black" d="M1257.15,-157.94C1223.78,-154.26 1165.45,-148.08 1115.34,-144 861.62,-123.36 787.91,-170.96 537.21,-107.61"/>
<polygon fill="black" stroke="black" points="538.01,-104.2 527.45,-105.11 536.27,-110.98 538.01,-104.2"/>
</g>
<!-- ast.Name object at 0x75bcf8af4890 -->
<g id="node66" class="node">
<title>ast.Name object at 0x75bcf8af4890</title>
<path fill="#66cdaa" stroke="black" d="M1352.34,-108C1352.34,-108 1322.34,-108 1322.34,-108 1316.34,-108 1310.34,-102 1310.34,-96 1310.34,-96 1310.34,-84 1310.34,-84 1310.34,-78 1316.34,-72 1322.34,-72 1322.34,-72 1352.34,-72 1352.34,-72 1358.34,-72 1364.34,-78 1364.34,-84 1364.34,-84 1364.34,-96 1364.34,-96 1364.34,-102 1358.34,-108 1352.34,-108"/>
<text text-anchor="middle" x="1337.34" y="-86.3" font-family="Times,serif" font-size="14.00">Name</text>
</g>
<!-- ast.BinOp object at 0x75bcf8af4e10&#45;&gt;ast.Name object at 0x75bcf8af4890 -->
<g id="edge92" class="edge">
<title>ast.BinOp object at 0x75bcf8af4e10&#45;&gt;ast.Name object at 0x75bcf8af4890</title>
<path fill="none" stroke="black" d="M1297.44,-143.7C1303.73,-135.39 1311.38,-125.28 1318.3,-116.14"/>
<polygon fill="black" stroke="black" points="1321.14,-118.19 1324.39,-108.1 1315.56,-113.96 1321.14,-118.19"/>
</g>
<!-- ast.Name object at 0x75bcf8af4b10 -->
<g id="node67" class="node">
<title>ast.Name object at 0x75bcf8af4b10</title>
<path fill="#66cdaa" stroke="black" d="M1280.34,-108C1280.34,-108 1250.34,-108 1250.34,-108 1244.34,-108 1238.34,-102 1238.34,-96 1238.34,-96 1238.34,-84 1238.34,-84 1238.34,-78 1244.34,-72 1250.34,-72 1250.34,-72 1280.34,-72 1280.34,-72 1286.34,-72 1292.34,-78 1292.34,-84 1292.34,-84 1292.34,-96 1292.34,-96 1292.34,-102 1286.34,-108 1280.34,-108"/>
<text text-anchor="middle" x="1265.34" y="-86.3" font-family="Times,serif" font-size="14.00">Name</text>
</g>
<!-- ast.BinOp object at 0x75bcf8af4e10&#45;&gt;ast.Name object at 0x75bcf8af4b10 -->
<g id="edge95" class="edge">
<title>ast.BinOp object at 0x75bcf8af4e10&#45;&gt;ast.Name object at 0x75bcf8af4b10</title>
<path fill="none" stroke="black" d="M1279.64,-143.7C1277.52,-135.9 1274.98,-126.51 1272.62,-117.83"/>
<polygon fill="black" stroke="black" points="1275.98,-116.84 1269.98,-108.1 1269.22,-118.67 1275.98,-116.84"/>
</g>
<!-- ast.Name object at 0x75bcf8af4890&#45;&gt;ast.Load object at 0x75be41f02b90 -->
<g id="edge93" class="edge">
<title>ast.Name object at 0x75bcf8af4890&#45;&gt;ast.Load object at 0x75be41f02b90</title>
<path fill="none" stroke="black" d="M1310.19,-75.02C1307.25,-73.86 1304.27,-72.82 1301.34,-72 1130.72,-24.29 916.91,-18.79 831.79,-18.66"/>
<polygon fill="black" stroke="black" points="831.59,-15.16 821.59,-18.67 831.6,-22.16 831.59,-15.16"/>
</g>
<!-- ast.Name object at 0x75bcf8af4b10&#45;&gt;ast.Load object at 0x75be41f02b90 -->
<g id="edge96" class="edge">
<title>ast.Name object at 0x75bcf8af4b10&#45;&gt;ast.Load object at 0x75be41f02b90</title>
<path fill="none" stroke="black" d="M1237.9,-76.44C1233.44,-74.74 1228.81,-73.18 1224.34,-72 1082.57,-34.61 907.41,-23.43 831.89,-20.23"/>
<polygon fill="black" stroke="black" points="831.62,-16.71 821.48,-19.81 831.34,-23.71 831.62,-16.71"/>
</g>
</g>
</svg>
