<?xml version="1.0" encoding="UTF-8" standalone="no"?>
<!DOCTYPE svg PUBLIC "-//W3C//DTD SVG 1.1//EN"
 "http://www.w3.org/Graphics/SVG/1.1/DTD/svg11.dtd">
<!-- Generated by graphviz version 2.50.0 (0)
 -->
<!-- Pages: 1 -->
<svg width="311pt" height="620pt"
 viewBox="0.00 0.00 311.00 620.00" xmlns="http://www.w3.org/2000/svg" xmlns:xlink="http://www.w3.org/1999/xlink">
<g id="graph0" class="graph" transform="scale(1 1) rotate(0) translate(4 616)">
<polygon fill="white" stroke="transparent" points="-4,4 -4,-616 307,-616 307,4 -4,4"/>
<!-- ast.Module object at 0x7ec9e90b66d0 -->
<g id="node1" class="node">
<title>ast.Module object at 0x7ec9e90b66d0</title>
<path fill="#66cdaa" stroke="black" d="M206,-612C206,-612 171,-612 171,-612 165,-612 159,-606 159,-600 159,-600 159,-588 159,-588 159,-582 165,-576 171,-576 171,-576 206,-576 206,-576 212,-576 218,-582 218,-588 218,-588 218,-600 218,-600 218,-606 212,-612 206,-612"/>
<text text-anchor="middle" x="188.5" y="-590.3" font-family="Times,serif" font-size="14.00">Module</text>
</g>
<!-- ast.FunctionDef object at 0x7ec9e90b6150 -->
<g id="node2" class="node">
<title>ast.FunctionDef object at 0x7ec9e90b6150</title>
<path fill="#66cdaa" stroke="black" d="M219,-540C219,-540 158,-540 158,-540 152,-540 146,-534 146,-528 146,-528 146,-516 146,-516 146,-510 152,-504 158,-504 158,-504 219,-504 219,-504 225,-504 231,-510 231,-516 231,-516 231,-528 231,-528 231,-534 225,-540 219,-540"/>
<text text-anchor="middle" x="188.5" y="-518.3" font-family="Times,serif" font-size="14.00">FunctionDef</text>
</g>
<!-- ast.Module object at 0x7ec9e90b66d0&#45;&gt;ast.FunctionDef object at 0x7ec9e90b6150 -->
<g id="edge1" class="edge">
<title>ast.Module object at 0x7ec9e90b66d0&#45;&gt;ast.FunctionDef object at 0x7ec9e90b6150</title>
<path fill="none" stroke="black" d="M188.5,-575.7C188.5,-567.98 188.5,-558.71 188.5,-550.11"/>
<polygon fill="black" stroke="black" points="192,-550.1 188.5,-540.1 185,-550.1 192,-550.1"/>
</g>
<!-- ast.arguments object at 0x7ec9e90b7bd0 -->
<g id="node3" class="node">
<title>ast.arguments object at 0x7ec9e90b7bd0</title>
<path fill="#66cdaa" stroke="black" d="M172.5,-468C172.5,-468 122.5,-468 122.5,-468 116.5,-468 110.5,-462 110.5,-456 110.5,-456 110.5,-444 110.5,-444 110.5,-438 116.5,-432 122.5,-432 122.5,-432 172.5,-432 172.5,-432 178.5,-432 184.5,-438 184.5,-444 184.5,-444 184.5,-456 184.5,-456 184.5,-462 178.5,-468 172.5,-468"/>
<text text-anchor="middle" x="147.5" y="-446.3" font-family="Times,serif" font-size="14.00">arguments</text>
</g>
<!-- ast.FunctionDef object at 0x7ec9e90b6150&#45;&gt;ast.arguments object at 0x7ec9e90b7bd0 -->
<g id="edge2" class="edge">
<title>ast.FunctionDef object at 0x7ec9e90b6150&#45;&gt;ast.arguments object at 0x7ec9e90b7bd0</title>
<path fill="none" stroke="black" d="M178.37,-503.7C173.65,-495.64 167.94,-485.89 162.72,-476.98"/>
<polygon fill="black" stroke="black" points="165.59,-474.96 157.52,-468.1 159.55,-478.5 165.59,-474.96"/>
</g>
<!-- ast.Return object at 0x7ec9e90b7b90 -->
<g id="node5" class="node">
<title>ast.Return object at 0x7ec9e90b7b90</title>
<path fill="#66cdaa" stroke="black" d="M244.5,-468C244.5,-468 214.5,-468 214.5,-468 208.5,-468 202.5,-462 202.5,-456 202.5,-456 202.5,-444 202.5,-444 202.5,-438 208.5,-432 214.5,-432 214.5,-432 244.5,-432 244.5,-432 250.5,-432 256.5,-438 256.5,-444 256.5,-444 256.5,-456 256.5,-456 256.5,-462 250.5,-468 244.5,-468"/>
<text text-anchor="middle" x="229.5" y="-446.3" font-family="Times,serif" font-size="14.00">Return</text>
</g>
<!-- ast.FunctionDef object at 0x7ec9e90b6150&#45;&gt;ast.Return object at 0x7ec9e90b7b90 -->
<g id="edge4" class="edge">
<title>ast.FunctionDef object at 0x7ec9e90b6150&#45;&gt;ast.Return object at 0x7ec9e90b7b90</title>
<path fill="none" stroke="black" d="M198.63,-503.7C203.35,-495.64 209.06,-485.89 214.28,-476.98"/>
<polygon fill="black" stroke="black" points="217.45,-478.5 219.48,-468.1 211.41,-474.96 217.45,-478.5"/>
</g>
<!-- ast.arg object at 0x7ec9e90b6c90 -->
<g id="node4" class="node">
<title>ast.arg object at 0x7ec9e90b6c90</title>
<path fill="#66cdaa" stroke="black" d="M162.5,-396C162.5,-396 132.5,-396 132.5,-396 126.5,-396 120.5,-390 120.5,-384 120.5,-384 120.5,-372 120.5,-372 120.5,-366 126.5,-360 132.5,-360 132.5,-360 162.5,-360 162.5,-360 168.5,-360 174.5,-366 174.5,-372 174.5,-372 174.5,-384 174.5,-384 174.5,-390 168.5,-396 162.5,-396"/>
<text text-anchor="middle" x="147.5" y="-374.3" font-family="Times,serif" font-size="14.00">arg</text>
</g>
<!-- ast.arguments object at 0x7ec9e90b7bd0&#45;&gt;ast.arg object at 0x7ec9e90b6c90 -->
<g id="edge3" class="edge">
<title>ast.arguments object at 0x7ec9e90b7bd0&#45;&gt;ast.arg object at 0x7ec9e90b6c90</title>
<path fill="none" stroke="black" d="M147.5,-431.7C147.5,-423.98 147.5,-414.71 147.5,-406.11"/>
<polygon fill="black" stroke="black" points="151,-406.1 147.5,-396.1 144,-406.1 151,-406.1"/>
</g>
<!-- ast.Call object at 0x7ec9e90b7310 -->
<g id="node6" class="node">
<title>ast.Call object at 0x7ec9e90b7310</title>
<path fill="#66cdaa" stroke="black" d="M244.5,-396C244.5,-396 214.5,-396 214.5,-396 208.5,-396 202.5,-390 202.5,-384 202.5,-384 202.5,-372 202.5,-372 202.5,-366 208.5,-360 214.5,-360 214.5,-360 244.5,-360 244.5,-360 250.5,-360 256.5,-366 256.5,-372 256.5,-372 256.5,-384 256.5,-384 256.5,-390 250.5,-396 244.5,-396"/>
<text text-anchor="middle" x="229.5" y="-374.3" font-family="Times,serif" font-size="14.00">Call</text>
</g>
<!-- ast.Return object at 0x7ec9e90b7b90&#45;&gt;ast.Call object at 0x7ec9e90b7310 -->
<g id="edge5" class="edge">
<title>ast.Return object at 0x7ec9e90b7b90&#45;&gt;ast.Call object at 0x7ec9e90b7310</title>
<path fill="none" stroke="black" d="M229.5,-431.7C229.5,-423.98 229.5,-414.71 229.5,-406.11"/>
<polygon fill="black" stroke="black" points="233,-406.1 229.5,-396.1 226,-406.1 233,-406.1"/>
</g>
<!-- ast.Attribute object at 0x7ec9e90b6910 -->
<g id="node7" class="node">
<title>ast.Attribute object at 0x7ec9e90b6910</title>
<path fill="#66cdaa" stroke="black" d="M208,-324C208,-324 167,-324 167,-324 161,-324 155,-318 155,-312 155,-312 155,-300 155,-300 155,-294 161,-288 167,-288 167,-288 208,-288 208,-288 214,-288 220,-294 220,-300 220,-300 220,-312 220,-312 220,-318 214,-324 208,-324"/>
<text text-anchor="middle" x="187.5" y="-302.3" font-family="Times,serif" font-size="14.00">Attribute</text>
</g>
<!-- ast.Call object at 0x7ec9e90b7310&#45;&gt;ast.Attribute object at 0x7ec9e90b6910 -->
<g id="edge6" class="edge">
<title>ast.Call object at 0x7ec9e90b7310&#45;&gt;ast.Attribute object at 0x7ec9e90b6910</title>
<path fill="none" stroke="black" d="M219.12,-359.7C214.24,-351.56 208.31,-341.69 202.92,-332.7"/>
<polygon fill="black" stroke="black" points="205.91,-330.88 197.76,-324.1 199.91,-334.48 205.91,-330.88"/>
</g>
<!-- ast.Constant object at 0x7ec9e90b6590 -->
<g id="node14" class="node">
<title>ast.Constant object at 0x7ec9e90b6590</title>
<path fill="#66cdaa" stroke="black" d="M291,-324C291,-324 250,-324 250,-324 244,-324 238,-318 238,-312 238,-312 238,-300 238,-300 238,-294 244,-288 250,-288 250,-288 291,-288 291,-288 297,-288 303,-294 303,-300 303,-300 303,-312 303,-312 303,-318 297,-324 291,-324"/>
<text text-anchor="middle" x="270.5" y="-302.3" font-family="Times,serif" font-size="14.00">Constant</text>
</g>
<!-- ast.Call object at 0x7ec9e90b7310&#45;&gt;ast.Constant object at 0x7ec9e90b6590 -->
<g id="edge15" class="edge">
<title>ast.Call object at 0x7ec9e90b7310&#45;&gt;ast.Constant object at 0x7ec9e90b6590</title>
<path fill="none" stroke="black" d="M239.63,-359.7C244.35,-351.64 250.06,-341.89 255.28,-332.98"/>
<polygon fill="black" stroke="black" points="258.45,-334.5 260.48,-324.1 252.41,-330.96 258.45,-334.5"/>
</g>
<!-- ast.Call object at 0x7ec9e90b61d0 -->
<g id="node8" class="node">
<title>ast.Call object at 0x7ec9e90b61d0</title>
<path fill="#66cdaa" stroke="black" d="M172.5,-252C172.5,-252 142.5,-252 142.5,-252 136.5,-252 130.5,-246 130.5,-240 130.5,-240 130.5,-228 130.5,-228 130.5,-222 136.5,-216 142.5,-216 142.5,-216 172.5,-216 172.5,-216 178.5,-216 184.5,-222 184.5,-228 184.5,-228 184.5,-240 184.5,-240 184.5,-246 178.5,-252 172.5,-252"/>
<text text-anchor="middle" x="157.5" y="-230.3" font-family="Times,serif" font-size="14.00">Call</text>
</g>
<!-- ast.Attribute object at 0x7ec9e90b6910&#45;&gt;ast.Call object at 0x7ec9e90b61d0 -->
<g id="edge7" class="edge">
<title>ast.Attribute object at 0x7ec9e90b6910&#45;&gt;ast.Call object at 0x7ec9e90b61d0</title>
<path fill="none" stroke="black" d="M180.08,-287.7C176.71,-279.81 172.63,-270.3 168.88,-261.55"/>
<polygon fill="black" stroke="black" points="171.99,-259.92 164.83,-252.1 165.55,-262.67 171.99,-259.92"/>
</g>
<!-- ast.Load object at 0x7ec9eb3b1b90 -->
<g id="node11" class="node">
<title>ast.Load object at 0x7ec9eb3b1b90</title>
<path fill="#66cdaa" stroke="black" d="M102.5,-36C102.5,-36 72.5,-36 72.5,-36 66.5,-36 60.5,-30 60.5,-24 60.5,-24 60.5,-12 60.5,-12 60.5,-6 66.5,0 72.5,0 72.5,0 102.5,0 102.5,0 108.5,0 114.5,-6 114.5,-12 114.5,-12 114.5,-24 114.5,-24 114.5,-30 108.5,-36 102.5,-36"/>
<text text-anchor="middle" x="87.5" y="-14.3" font-family="Times,serif" font-size="14.00">Load</text>
</g>
<!-- ast.Attribute object at 0x7ec9e90b6910&#45;&gt;ast.Load object at 0x7ec9eb3b1b90 -->
<g id="edge14" class="edge">
<title>ast.Attribute object at 0x7ec9e90b6910&#45;&gt;ast.Load object at 0x7ec9eb3b1b90</title>
<path fill="none" stroke="black" d="M201.75,-287.54C224.51,-257.38 264.21,-193.98 240.5,-144 216.51,-93.43 160.95,-56.54 123.8,-36.44"/>
<polygon fill="black" stroke="black" points="125.26,-33.26 114.78,-31.69 122,-39.45 125.26,-33.26"/>
</g>
<!-- ast.Attribute object at 0x7ec9e90b7fd0 -->
<g id="node9" class="node">
<title>ast.Attribute object at 0x7ec9e90b7fd0</title>
<path fill="#66cdaa" stroke="black" d="M53,-180C53,-180 12,-180 12,-180 6,-180 0,-174 0,-168 0,-168 0,-156 0,-156 0,-150 6,-144 12,-144 12,-144 53,-144 53,-144 59,-144 65,-150 65,-156 65,-156 65,-168 65,-168 65,-174 59,-180 53,-180"/>
<text text-anchor="middle" x="32.5" y="-158.3" font-family="Times,serif" font-size="14.00">Attribute</text>
</g>
<!-- ast.Call object at 0x7ec9e90b61d0&#45;&gt;ast.Attribute object at 0x7ec9e90b7fd0 -->
<g id="edge8" class="edge">
<title>ast.Call object at 0x7ec9e90b61d0&#45;&gt;ast.Attribute object at 0x7ec9e90b7fd0</title>
<path fill="none" stroke="black" d="M130.38,-217.81C113.27,-208.23 90.89,-195.7 71.84,-185.03"/>
<polygon fill="black" stroke="black" points="73.52,-181.96 63.08,-180.13 70.1,-188.07 73.52,-181.96"/>
</g>
<!-- ast.Constant object at 0x7ec9e90b65d0 -->
<g id="node12" class="node">
<title>ast.Constant object at 0x7ec9e90b65d0</title>
<path fill="#66cdaa" stroke="black" d="M136,-180C136,-180 95,-180 95,-180 89,-180 83,-174 83,-168 83,-168 83,-156 83,-156 83,-150 89,-144 95,-144 95,-144 136,-144 136,-144 142,-144 148,-150 148,-156 148,-156 148,-168 148,-168 148,-174 142,-180 136,-180"/>
<text text-anchor="middle" x="115.5" y="-158.3" font-family="Times,serif" font-size="14.00">Constant</text>
</g>
<!-- ast.Call object at 0x7ec9e90b61d0&#45;&gt;ast.Constant object at 0x7ec9e90b65d0 -->
<g id="edge12" class="edge">
<title>ast.Call object at 0x7ec9e90b61d0&#45;&gt;ast.Constant object at 0x7ec9e90b65d0</title>
<path fill="none" stroke="black" d="M147.12,-215.7C142.24,-207.56 136.31,-197.69 130.92,-188.7"/>
<polygon fill="black" stroke="black" points="133.91,-186.88 125.76,-180.1 127.91,-190.48 133.91,-186.88"/>
</g>
<!-- ast.Constant object at 0x7ec9e90b6f50 -->
<g id="node13" class="node">
<title>ast.Constant object at 0x7ec9e90b6f50</title>
<path fill="#66cdaa" stroke="black" d="M219,-180C219,-180 178,-180 178,-180 172,-180 166,-174 166,-168 166,-168 166,-156 166,-156 166,-150 172,-144 178,-144 178,-144 219,-144 219,-144 225,-144 231,-150 231,-156 231,-156 231,-168 231,-168 231,-174 225,-180 219,-180"/>
<text text-anchor="middle" x="198.5" y="-158.3" font-family="Times,serif" font-size="14.00">Constant</text>
</g>
<!-- ast.Call object at 0x7ec9e90b61d0&#45;&gt;ast.Constant object at 0x7ec9e90b6f50 -->
<g id="edge13" class="edge">
<title>ast.Call object at 0x7ec9e90b61d0&#45;&gt;ast.Constant object at 0x7ec9e90b6f50</title>
<path fill="none" stroke="black" d="M167.63,-215.7C172.35,-207.64 178.06,-197.89 183.28,-188.98"/>
<polygon fill="black" stroke="black" points="186.45,-190.5 188.48,-180.1 180.41,-186.96 186.45,-190.5"/>
</g>
<!-- ast.Name object at 0x7ec9e90b73d0 -->
<g id="node10" class="node">
<title>ast.Name object at 0x7ec9e90b73d0</title>
<path fill="#66cdaa" stroke="black" d="M47.5,-108C47.5,-108 17.5,-108 17.5,-108 11.5,-108 5.5,-102 5.5,-96 5.5,-96 5.5,-84 5.5,-84 5.5,-78 11.5,-72 17.5,-72 17.5,-72 47.5,-72 47.5,-72 53.5,-72 59.5,-78 59.5,-84 59.5,-84 59.5,-96 59.5,-96 59.5,-102 53.5,-108 47.5,-108"/>
<text text-anchor="middle" x="32.5" y="-86.3" font-family="Times,serif" font-size="14.00">Name</text>
</g>
<!-- ast.Attribute object at 0x7ec9e90b7fd0&#45;&gt;ast.Name object at 0x7ec9e90b73d0 -->
<g id="edge9" class="edge">
<title>ast.Attribute object at 0x7ec9e90b7fd0&#45;&gt;ast.Name object at 0x7ec9e90b73d0</title>
<path fill="none" stroke="black" d="M32.5,-143.7C32.5,-135.98 32.5,-126.71 32.5,-118.11"/>
<polygon fill="black" stroke="black" points="36,-118.1 32.5,-108.1 29,-118.1 36,-118.1"/>
</g>
<!-- ast.Attribute object at 0x7ec9e90b7fd0&#45;&gt;ast.Load object at 0x7ec9eb3b1b90 -->
<g id="edge11" class="edge">
<title>ast.Attribute object at 0x7ec9e90b7fd0&#45;&gt;ast.Load object at 0x7ec9eb3b1b90</title>
<path fill="none" stroke="black" d="M46.66,-143.85C54.19,-133.93 63,-120.89 68.5,-108 76.91,-88.29 81.74,-64.49 84.43,-46.46"/>
<polygon fill="black" stroke="black" points="87.93,-46.71 85.8,-36.33 80.99,-45.76 87.93,-46.71"/>
</g>
<!-- ast.Name object at 0x7ec9e90b73d0&#45;&gt;ast.Load object at 0x7ec9eb3b1b90 -->
<g id="edge10" class="edge">
<title>ast.Name object at 0x7ec9e90b73d0&#45;&gt;ast.Load object at 0x7ec9eb3b1b90</title>
<path fill="none" stroke="black" d="M46.1,-71.7C52.62,-63.39 60.57,-53.28 67.75,-44.14"/>
<polygon fill="black" stroke="black" points="70.63,-46.13 74.06,-36.1 65.13,-41.81 70.63,-46.13"/>
</g>
</g>
</svg>
