<?xml version="1.0" encoding="UTF-8" standalone="no"?>
<!DOCTYPE svg PUBLIC "-//W3C//DTD SVG 1.1//EN"
 "http://www.w3.org/Graphics/SVG/1.1/DTD/svg11.dtd">
<!-- Generated by graphviz version 2.50.0 (0)
 -->
<!-- Pages: 1 -->
<svg width="829pt" height="476pt"
 viewBox="0.00 0.00 828.50 476.00" xmlns="http://www.w3.org/2000/svg" xmlns:xlink="http://www.w3.org/1999/xlink">
<g id="graph0" class="graph" transform="scale(1 1) rotate(0) translate(4 472)">
<polygon fill="white" stroke="transparent" points="-4,4 -4,-472 824.5,-472 824.5,4 -4,4"/>
<!-- ast.Module object at 0x728ac7fac610 -->
<g id="node1" class="node">
<title>ast.Module object at 0x728ac7fac610</title>
<path fill="#66cdaa" stroke="black" d="M250.5,-468C250.5,-468 215.5,-468 215.5,-468 209.5,-468 203.5,-462 203.5,-456 203.5,-456 203.5,-444 203.5,-444 203.5,-438 209.5,-432 215.5,-432 215.5,-432 250.5,-432 250.5,-432 256.5,-432 262.5,-438 262.5,-444 262.5,-444 262.5,-456 262.5,-456 262.5,-462 256.5,-468 250.5,-468"/>
<text text-anchor="middle" x="233" y="-446.3" font-family="Times,serif" font-size="14.00">Module</text>
</g>
<!-- ast.FunctionDef object at 0x728ac8078c90 -->
<g id="node2" class="node">
<title>ast.FunctionDef object at 0x728ac8078c90</title>
<path fill="#66cdaa" stroke="black" d="M263.5,-396C263.5,-396 202.5,-396 202.5,-396 196.5,-396 190.5,-390 190.5,-384 190.5,-384 190.5,-372 190.5,-372 190.5,-366 196.5,-360 202.5,-360 202.5,-360 263.5,-360 263.5,-360 269.5,-360 275.5,-366 275.5,-372 275.5,-372 275.5,-384 275.5,-384 275.5,-390 269.5,-396 263.5,-396"/>
<text text-anchor="middle" x="233" y="-374.3" font-family="Times,serif" font-size="14.00">FunctionDef</text>
</g>
<!-- ast.Module object at 0x728ac7fac610&#45;&gt;ast.FunctionDef object at 0x728ac8078c90 -->
<g id="edge1" class="edge">
<title>ast.Module object at 0x728ac7fac610&#45;&gt;ast.FunctionDef object at 0x728ac8078c90</title>
<path fill="none" stroke="black" d="M233,-431.7C233,-423.98 233,-414.71 233,-406.11"/>
<polygon fill="black" stroke="black" points="236.5,-406.1 233,-396.1 229.5,-406.1 236.5,-406.1"/>
</g>
<!-- ast.arguments object at 0x728ac7e88410 -->
<g id="node3" class="node">
<title>ast.arguments object at 0x728ac7e88410</title>
<path fill="#66cdaa" stroke="black" d="M154,-324C154,-324 104,-324 104,-324 98,-324 92,-318 92,-312 92,-312 92,-300 92,-300 92,-294 98,-288 104,-288 104,-288 154,-288 154,-288 160,-288 166,-294 166,-300 166,-300 166,-312 166,-312 166,-318 160,-324 154,-324"/>
<text text-anchor="middle" x="129" y="-302.3" font-family="Times,serif" font-size="14.00">arguments</text>
</g>
<!-- ast.FunctionDef object at 0x728ac8078c90&#45;&gt;ast.arguments object at 0x728ac7e88410 -->
<g id="edge2" class="edge">
<title>ast.FunctionDef object at 0x728ac8078c90&#45;&gt;ast.arguments object at 0x728ac7e88410</title>
<path fill="none" stroke="black" d="M207.56,-359.88C194.21,-350.89 177.68,-339.76 163.22,-330.03"/>
<polygon fill="black" stroke="black" points="164.79,-326.87 154.54,-324.19 160.88,-332.68 164.79,-326.87"/>
</g>
<!-- ast.Assign object at 0x728ac8013810 -->
<g id="node5" class="node">
<title>ast.Assign object at 0x728ac8013810</title>
<path fill="#66cdaa" stroke="black" d="M203,-252C203,-252 173,-252 173,-252 167,-252 161,-246 161,-240 161,-240 161,-228 161,-228 161,-222 167,-216 173,-216 173,-216 203,-216 203,-216 209,-216 215,-222 215,-228 215,-228 215,-240 215,-240 215,-246 209,-252 203,-252"/>
<text text-anchor="middle" x="188" y="-230.3" font-family="Times,serif" font-size="14.00">Assign</text>
</g>
<!-- ast.FunctionDef object at 0x728ac8078c90&#45;&gt;ast.Assign object at 0x728ac8013810 -->
<g id="edge4" class="edge">
<title>ast.FunctionDef object at 0x728ac8078c90&#45;&gt;ast.Assign object at 0x728ac8013810</title>
<path fill="none" stroke="black" d="M227.57,-359.87C219.87,-335.56 205.69,-290.82 196.56,-262.01"/>
<polygon fill="black" stroke="black" points="199.8,-260.66 193.45,-252.19 193.13,-262.78 199.8,-260.66"/>
</g>
<!-- ast.Expr object at 0x728ac7d47610 -->
<g id="node13" class="node">
<title>ast.Expr object at 0x728ac7d47610</title>
<path fill="#66cdaa" stroke="black" d="M277,-324C277,-324 247,-324 247,-324 241,-324 235,-318 235,-312 235,-312 235,-300 235,-300 235,-294 241,-288 247,-288 247,-288 277,-288 277,-288 283,-288 289,-294 289,-300 289,-300 289,-312 289,-312 289,-318 283,-324 277,-324"/>
<text text-anchor="middle" x="262" y="-302.3" font-family="Times,serif" font-size="14.00">Expr</text>
</g>
<!-- ast.FunctionDef object at 0x728ac8078c90&#45;&gt;ast.Expr object at 0x728ac7d47610 -->
<g id="edge13" class="edge">
<title>ast.FunctionDef object at 0x728ac8078c90&#45;&gt;ast.Expr object at 0x728ac7d47610</title>
<path fill="none" stroke="black" d="M240.17,-359.7C243.43,-351.81 247.37,-342.3 251,-333.55"/>
<polygon fill="black" stroke="black" points="254.32,-334.68 254.91,-324.1 247.85,-332 254.32,-334.68"/>
</g>
<!-- ast.If object at 0x728ac7d47d50 -->
<g id="node19" class="node">
<title>ast.If object at 0x728ac7d47d50</title>
<path fill="#66cdaa" stroke="black" d="M629,-324C629,-324 599,-324 599,-324 593,-324 587,-318 587,-312 587,-312 587,-300 587,-300 587,-294 593,-288 599,-288 599,-288 629,-288 629,-288 635,-288 641,-294 641,-300 641,-300 641,-312 641,-312 641,-318 635,-324 629,-324"/>
<text text-anchor="middle" x="614" y="-302.3" font-family="Times,serif" font-size="14.00">If</text>
</g>
<!-- ast.FunctionDef object at 0x728ac8078c90&#45;&gt;ast.If object at 0x728ac7d47d50 -->
<g id="edge21" class="edge">
<title>ast.FunctionDef object at 0x728ac8078c90&#45;&gt;ast.If object at 0x728ac7d47d50</title>
<path fill="none" stroke="black" d="M275.6,-369.17C350.74,-355.37 505.6,-326.92 576.76,-313.84"/>
<polygon fill="black" stroke="black" points="577.43,-317.28 586.63,-312.03 576.16,-310.39 577.43,-317.28"/>
</g>
<!-- ast.arg object at 0x728ac7e88510 -->
<g id="node4" class="node">
<title>ast.arg object at 0x728ac7e88510</title>
<path fill="#66cdaa" stroke="black" d="M131,-252C131,-252 101,-252 101,-252 95,-252 89,-246 89,-240 89,-240 89,-228 89,-228 89,-222 95,-216 101,-216 101,-216 131,-216 131,-216 137,-216 143,-222 143,-228 143,-228 143,-240 143,-240 143,-246 137,-252 131,-252"/>
<text text-anchor="middle" x="116" y="-230.3" font-family="Times,serif" font-size="14.00">arg</text>
</g>
<!-- ast.arguments object at 0x728ac7e88410&#45;&gt;ast.arg object at 0x728ac7e88510 -->
<g id="edge3" class="edge">
<title>ast.arguments object at 0x728ac7e88410&#45;&gt;ast.arg object at 0x728ac7e88510</title>
<path fill="none" stroke="black" d="M125.79,-287.7C124.35,-279.98 122.63,-270.71 121.04,-262.11"/>
<polygon fill="black" stroke="black" points="124.44,-261.3 119.18,-252.1 117.56,-262.58 124.44,-261.3"/>
</g>
<!-- ast.Name object at 0x728ad9863f10 -->
<g id="node6" class="node">
<title>ast.Name object at 0x728ad9863f10</title>
<path fill="#66cdaa" stroke="black" d="M79,-180C79,-180 49,-180 49,-180 43,-180 37,-174 37,-168 37,-168 37,-156 37,-156 37,-150 43,-144 49,-144 49,-144 79,-144 79,-144 85,-144 91,-150 91,-156 91,-156 91,-168 91,-168 91,-174 85,-180 79,-180"/>
<text text-anchor="middle" x="64" y="-158.3" font-family="Times,serif" font-size="14.00">Name</text>
</g>
<!-- ast.Assign object at 0x728ac8013810&#45;&gt;ast.Name object at 0x728ad9863f10 -->
<g id="edge5" class="edge">
<title>ast.Assign object at 0x728ac8013810&#45;&gt;ast.Name object at 0x728ad9863f10</title>
<path fill="none" stroke="black" d="M160.79,-217.64C142.94,-207.56 119.4,-194.28 100.01,-183.33"/>
<polygon fill="black" stroke="black" points="101.58,-180.19 91.15,-178.33 98.14,-186.29 101.58,-180.19"/>
</g>
<!-- ast.Subscript object at 0x728ac7d44fd0 -->
<g id="node8" class="node">
<title>ast.Subscript object at 0x728ac7d44fd0</title>
<path fill="#66cdaa" stroke="black" d="M197,-180C197,-180 153,-180 153,-180 147,-180 141,-174 141,-168 141,-168 141,-156 141,-156 141,-150 147,-144 153,-144 153,-144 197,-144 197,-144 203,-144 209,-150 209,-156 209,-156 209,-168 209,-168 209,-174 203,-180 197,-180"/>
<text text-anchor="middle" x="175" y="-158.3" font-family="Times,serif" font-size="14.00">Subscript</text>
</g>
<!-- ast.Assign object at 0x728ac8013810&#45;&gt;ast.Subscript object at 0x728ac7d44fd0 -->
<g id="edge7" class="edge">
<title>ast.Assign object at 0x728ac8013810&#45;&gt;ast.Subscript object at 0x728ac7d44fd0</title>
<path fill="none" stroke="black" d="M184.79,-215.7C183.35,-207.98 181.63,-198.71 180.04,-190.11"/>
<polygon fill="black" stroke="black" points="183.44,-189.3 178.18,-180.1 176.56,-190.58 183.44,-189.3"/>
</g>
<!-- ast.Store object at 0x728ad0dc1a50 -->
<g id="node7" class="node">
<title>ast.Store object at 0x728ad0dc1a50</title>
<path fill="#66cdaa" stroke="black" d="M42,-108C42,-108 12,-108 12,-108 6,-108 0,-102 0,-96 0,-96 0,-84 0,-84 0,-78 6,-72 12,-72 12,-72 42,-72 42,-72 48,-72 54,-78 54,-84 54,-84 54,-96 54,-96 54,-102 48,-108 42,-108"/>
<text text-anchor="middle" x="27" y="-86.3" font-family="Times,serif" font-size="14.00">Store</text>
</g>
<!-- ast.Name object at 0x728ad9863f10&#45;&gt;ast.Store object at 0x728ad0dc1a50 -->
<g id="edge6" class="edge">
<title>ast.Name object at 0x728ad9863f10&#45;&gt;ast.Store object at 0x728ad0dc1a50</title>
<path fill="none" stroke="black" d="M54.85,-143.7C50.6,-135.64 45.44,-125.89 40.73,-116.98"/>
<polygon fill="black" stroke="black" points="43.81,-115.31 36.04,-108.1 37.62,-118.58 43.81,-115.31"/>
</g>
<!-- ast.Name object at 0x728ac7d44c10 -->
<g id="node9" class="node">
<title>ast.Name object at 0x728ac7d44c10</title>
<path fill="#66cdaa" stroke="black" d="M186,-108C186,-108 156,-108 156,-108 150,-108 144,-102 144,-96 144,-96 144,-84 144,-84 144,-78 150,-72 156,-72 156,-72 186,-72 186,-72 192,-72 198,-78 198,-84 198,-84 198,-96 198,-96 198,-102 192,-108 186,-108"/>
<text text-anchor="middle" x="171" y="-86.3" font-family="Times,serif" font-size="14.00">Name</text>
</g>
<!-- ast.Subscript object at 0x728ac7d44fd0&#45;&gt;ast.Name object at 0x728ac7d44c10 -->
<g id="edge8" class="edge">
<title>ast.Subscript object at 0x728ac7d44fd0&#45;&gt;ast.Name object at 0x728ac7d44c10</title>
<path fill="none" stroke="black" d="M174.01,-143.7C173.57,-135.98 173.04,-126.71 172.55,-118.11"/>
<polygon fill="black" stroke="black" points="176.04,-117.89 171.98,-108.1 169.05,-118.29 176.04,-117.89"/>
</g>
<!-- ast.Load object at 0x728ad0dc19d0 -->
<g id="node10" class="node">
<title>ast.Load object at 0x728ad0dc19d0</title>
<path fill="#66cdaa" stroke="black" d="M412,-36C412,-36 382,-36 382,-36 376,-36 370,-30 370,-24 370,-24 370,-12 370,-12 370,-6 376,0 382,0 382,0 412,0 412,0 418,0 424,-6 424,-12 424,-12 424,-24 424,-24 424,-30 418,-36 412,-36"/>
<text text-anchor="middle" x="397" y="-14.3" font-family="Times,serif" font-size="14.00">Load</text>
</g>
<!-- ast.Subscript object at 0x728ac7d44fd0&#45;&gt;ast.Load object at 0x728ad0dc19d0 -->
<g id="edge12" class="edge">
<title>ast.Subscript object at 0x728ac7d44fd0&#45;&gt;ast.Load object at 0x728ad0dc19d0</title>
<path fill="none" stroke="black" d="M188.85,-143.89C205.45,-124.3 234.93,-92.33 266,-72 295.44,-52.74 333,-38.43 360.35,-29.56"/>
<polygon fill="black" stroke="black" points="361.44,-32.89 369.92,-26.54 359.33,-26.21 361.44,-32.89"/>
</g>
<!-- ast.Slice object at 0x728ac7d44990 -->
<g id="node11" class="node">
<title>ast.Slice object at 0x728ac7d44990</title>
<path fill="#66cdaa" stroke="black" d="M114,-108C114,-108 84,-108 84,-108 78,-108 72,-102 72,-96 72,-96 72,-84 72,-84 72,-78 78,-72 84,-72 84,-72 114,-72 114,-72 120,-72 126,-78 126,-84 126,-84 126,-96 126,-96 126,-102 120,-108 114,-108"/>
<text text-anchor="middle" x="99" y="-86.3" font-family="Times,serif" font-size="14.00">Slice</text>
</g>
<!-- ast.Subscript object at 0x728ac7d44fd0&#45;&gt;ast.Slice object at 0x728ac7d44990 -->
<g id="edge10" class="edge">
<title>ast.Subscript object at 0x728ac7d44fd0&#45;&gt;ast.Slice object at 0x728ac7d44990</title>
<path fill="none" stroke="black" d="M156.21,-143.7C146.83,-135.05 135.32,-124.45 125.09,-115.03"/>
<polygon fill="black" stroke="black" points="127.3,-112.3 117.57,-108.1 122.55,-117.45 127.3,-112.3"/>
</g>
<!-- ast.Name object at 0x728ac7d44c10&#45;&gt;ast.Load object at 0x728ad0dc19d0 -->
<g id="edge9" class="edge">
<title>ast.Name object at 0x728ac7d44c10&#45;&gt;ast.Load object at 0x728ad0dc19d0</title>
<path fill="none" stroke="black" d="M198.18,-77.22C202.76,-75.38 207.49,-73.58 212,-72 262.45,-54.38 322.09,-38.08 359.73,-28.34"/>
<polygon fill="black" stroke="black" points="360.92,-31.65 369.74,-25.77 359.18,-24.87 360.92,-31.65"/>
</g>
<!-- ast.Constant object at 0x728ac7d446d0 -->
<g id="node12" class="node">
<title>ast.Constant object at 0x728ac7d446d0</title>
<path fill="#66cdaa" stroke="black" d="M119.5,-36C119.5,-36 78.5,-36 78.5,-36 72.5,-36 66.5,-30 66.5,-24 66.5,-24 66.5,-12 66.5,-12 66.5,-6 72.5,0 78.5,0 78.5,0 119.5,0 119.5,0 125.5,0 131.5,-6 131.5,-12 131.5,-12 131.5,-24 131.5,-24 131.5,-30 125.5,-36 119.5,-36"/>
<text text-anchor="middle" x="99" y="-14.3" font-family="Times,serif" font-size="14.00">Constant</text>
</g>
<!-- ast.Slice object at 0x728ac7d44990&#45;&gt;ast.Constant object at 0x728ac7d446d0 -->
<g id="edge11" class="edge">
<title>ast.Slice object at 0x728ac7d44990&#45;&gt;ast.Constant object at 0x728ac7d446d0</title>
<path fill="none" stroke="black" d="M99,-71.7C99,-63.98 99,-54.71 99,-46.11"/>
<polygon fill="black" stroke="black" points="102.5,-46.1 99,-36.1 95.5,-46.1 102.5,-46.1"/>
</g>
<!-- ast.Call object at 0x728ac7d47550 -->
<g id="node14" class="node">
<title>ast.Call object at 0x728ac7d47550</title>
<path fill="#66cdaa" stroke="black" d="M285,-252C285,-252 255,-252 255,-252 249,-252 243,-246 243,-240 243,-240 243,-228 243,-228 243,-222 249,-216 255,-216 255,-216 285,-216 285,-216 291,-216 297,-222 297,-228 297,-228 297,-240 297,-240 297,-246 291,-252 285,-252"/>
<text text-anchor="middle" x="270" y="-230.3" font-family="Times,serif" font-size="14.00">Call</text>
</g>
<!-- ast.Expr object at 0x728ac7d47610&#45;&gt;ast.Call object at 0x728ac7d47550 -->
<g id="edge14" class="edge">
<title>ast.Expr object at 0x728ac7d47610&#45;&gt;ast.Call object at 0x728ac7d47550</title>
<path fill="none" stroke="black" d="M263.98,-287.7C264.86,-279.98 265.92,-270.71 266.9,-262.11"/>
<polygon fill="black" stroke="black" points="270.39,-262.44 268.05,-252.1 263.43,-261.64 270.39,-262.44"/>
</g>
<!-- ast.Attribute object at 0x728ac7d47490 -->
<g id="node15" class="node">
<title>ast.Attribute object at 0x728ac7d47490</title>
<path fill="#66cdaa" stroke="black" d="M290.5,-180C290.5,-180 249.5,-180 249.5,-180 243.5,-180 237.5,-174 237.5,-168 237.5,-168 237.5,-156 237.5,-156 237.5,-150 243.5,-144 249.5,-144 249.5,-144 290.5,-144 290.5,-144 296.5,-144 302.5,-150 302.5,-156 302.5,-156 302.5,-168 302.5,-168 302.5,-174 296.5,-180 290.5,-180"/>
<text text-anchor="middle" x="270" y="-158.3" font-family="Times,serif" font-size="14.00">Attribute</text>
</g>
<!-- ast.Call object at 0x728ac7d47550&#45;&gt;ast.Attribute object at 0x728ac7d47490 -->
<g id="edge15" class="edge">
<title>ast.Call object at 0x728ac7d47550&#45;&gt;ast.Attribute object at 0x728ac7d47490</title>
<path fill="none" stroke="black" d="M270,-215.7C270,-207.98 270,-198.71 270,-190.11"/>
<polygon fill="black" stroke="black" points="273.5,-190.1 270,-180.1 266.5,-190.1 273.5,-190.1"/>
</g>
<!-- ast.keyword object at 0x728ac7d45cd0 -->
<g id="node17" class="node">
<title>ast.keyword object at 0x728ac7d45cd0</title>
<path fill="#66cdaa" stroke="black" d="M398,-180C398,-180 358,-180 358,-180 352,-180 346,-174 346,-168 346,-168 346,-156 346,-156 346,-150 352,-144 358,-144 358,-144 398,-144 398,-144 404,-144 410,-150 410,-156 410,-156 410,-168 410,-168 410,-174 404,-180 398,-180"/>
<text text-anchor="middle" x="378" y="-158.3" font-family="Times,serif" font-size="14.00">keyword</text>
</g>
<!-- ast.Call object at 0x728ac7d47550&#45;&gt;ast.keyword object at 0x728ac7d45cd0 -->
<g id="edge19" class="edge">
<title>ast.Call object at 0x728ac7d47550&#45;&gt;ast.keyword object at 0x728ac7d45cd0</title>
<path fill="none" stroke="black" d="M296.42,-215.88C310.41,-206.81 327.78,-195.55 342.89,-185.76"/>
<polygon fill="black" stroke="black" points="344.99,-188.57 351.48,-180.19 341.18,-182.69 344.99,-188.57"/>
</g>
<!-- ast.Attribute object at 0x728ac7d47490&#45;&gt;ast.Load object at 0x728ad0dc19d0 -->
<g id="edge18" class="edge">
<title>ast.Attribute object at 0x728ac7d47490&#45;&gt;ast.Load object at 0x728ad0dc19d0</title>
<path fill="none" stroke="black" d="M267.97,-143.79C266.63,-124.41 267.42,-92.91 283,-72 301.42,-47.28 334.22,-33.7 359.92,-26.5"/>
<polygon fill="black" stroke="black" points="360.93,-29.85 369.73,-23.96 359.17,-23.08 360.93,-29.85"/>
</g>
<!-- ast.Name object at 0x728ac7d44710 -->
<g id="node16" class="node">
<title>ast.Name object at 0x728ac7d44710</title>
<path fill="#66cdaa" stroke="black" d="M334,-108C334,-108 304,-108 304,-108 298,-108 292,-102 292,-96 292,-96 292,-84 292,-84 292,-78 298,-72 304,-72 304,-72 334,-72 334,-72 340,-72 346,-78 346,-84 346,-84 346,-96 346,-96 346,-102 340,-108 334,-108"/>
<text text-anchor="middle" x="319" y="-86.3" font-family="Times,serif" font-size="14.00">Name</text>
</g>
<!-- ast.Attribute object at 0x728ac7d47490&#45;&gt;ast.Name object at 0x728ac7d44710 -->
<g id="edge16" class="edge">
<title>ast.Attribute object at 0x728ac7d47490&#45;&gt;ast.Name object at 0x728ac7d44710</title>
<path fill="none" stroke="black" d="M282.11,-143.7C287.87,-135.47 294.86,-125.48 301.21,-116.42"/>
<polygon fill="black" stroke="black" points="304.16,-118.3 307.03,-108.1 298.42,-114.29 304.16,-118.3"/>
</g>
<!-- ast.Name object at 0x728ac7d44710&#45;&gt;ast.Load object at 0x728ad0dc19d0 -->
<g id="edge17" class="edge">
<title>ast.Name object at 0x728ac7d44710&#45;&gt;ast.Load object at 0x728ad0dc19d0</title>
<path fill="none" stroke="black" d="M338.28,-71.7C347.92,-63.05 359.73,-52.45 370.23,-43.03"/>
<polygon fill="black" stroke="black" points="372.84,-45.39 377.94,-36.1 368.16,-40.18 372.84,-45.39"/>
</g>
<!-- ast.Constant object at 0x728ac7d47650 -->
<g id="node18" class="node">
<title>ast.Constant object at 0x728ac7d47650</title>
<path fill="#66cdaa" stroke="black" d="M417.5,-108C417.5,-108 376.5,-108 376.5,-108 370.5,-108 364.5,-102 364.5,-96 364.5,-96 364.5,-84 364.5,-84 364.5,-78 370.5,-72 376.5,-72 376.5,-72 417.5,-72 417.5,-72 423.5,-72 429.5,-78 429.5,-84 429.5,-84 429.5,-96 429.5,-96 429.5,-102 423.5,-108 417.5,-108"/>
<text text-anchor="middle" x="397" y="-86.3" font-family="Times,serif" font-size="14.00">Constant</text>
</g>
<!-- ast.keyword object at 0x728ac7d45cd0&#45;&gt;ast.Constant object at 0x728ac7d47650 -->
<g id="edge20" class="edge">
<title>ast.keyword object at 0x728ac7d45cd0&#45;&gt;ast.Constant object at 0x728ac7d47650</title>
<path fill="none" stroke="black" d="M382.7,-143.7C384.81,-135.9 387.36,-126.51 389.72,-117.83"/>
<polygon fill="black" stroke="black" points="393.12,-118.67 392.36,-108.1 386.36,-116.84 393.12,-118.67"/>
</g>
<!-- ast.Compare object at 0x728ac7d478d0 -->
<g id="node20" class="node">
<title>ast.Compare object at 0x728ac7d478d0</title>
<path fill="#66cdaa" stroke="black" d="M575.5,-252C575.5,-252 532.5,-252 532.5,-252 526.5,-252 520.5,-246 520.5,-240 520.5,-240 520.5,-228 520.5,-228 520.5,-222 526.5,-216 532.5,-216 532.5,-216 575.5,-216 575.5,-216 581.5,-216 587.5,-222 587.5,-228 587.5,-228 587.5,-240 587.5,-240 587.5,-246 581.5,-252 575.5,-252"/>
<text text-anchor="middle" x="554" y="-230.3" font-family="Times,serif" font-size="14.00">Compare</text>
</g>
<!-- ast.If object at 0x728ac7d47d50&#45;&gt;ast.Compare object at 0x728ac7d478d0 -->
<g id="edge22" class="edge">
<title>ast.If object at 0x728ac7d47d50&#45;&gt;ast.Compare object at 0x728ac7d478d0</title>
<path fill="none" stroke="black" d="M599.17,-287.7C591.98,-279.3 583.2,-269.07 575.31,-259.86"/>
<polygon fill="black" stroke="black" points="577.83,-257.42 568.66,-252.1 572.51,-261.97 577.83,-257.42"/>
</g>
<!-- ast.Return object at 0x728ac7d47450 -->
<g id="node26" class="node">
<title>ast.Return object at 0x728ac7d47450</title>
<path fill="#66cdaa" stroke="black" d="M690,-252C690,-252 660,-252 660,-252 654,-252 648,-246 648,-240 648,-240 648,-228 648,-228 648,-222 654,-216 660,-216 660,-216 690,-216 690,-216 696,-216 702,-222 702,-228 702,-228 702,-240 702,-240 702,-246 696,-252 690,-252"/>
<text text-anchor="middle" x="675" y="-230.3" font-family="Times,serif" font-size="14.00">Return</text>
</g>
<!-- ast.If object at 0x728ac7d47d50&#45;&gt;ast.Return object at 0x728ac7d47450 -->
<g id="edge30" class="edge">
<title>ast.If object at 0x728ac7d47d50&#45;&gt;ast.Return object at 0x728ac7d47450</title>
<path fill="none" stroke="black" d="M629.08,-287.7C636.39,-279.3 645.31,-269.07 653.34,-259.86"/>
<polygon fill="black" stroke="black" points="656.16,-261.94 660.09,-252.1 650.89,-257.34 656.16,-261.94"/>
</g>
<!-- ast.Return object at 0x728ac7d45990 -->
<g id="node30" class="node">
<title>ast.Return object at 0x728ac7d45990</title>
<path fill="#66cdaa" stroke="black" d="M789,-252C789,-252 759,-252 759,-252 753,-252 747,-246 747,-240 747,-240 747,-228 747,-228 747,-222 753,-216 759,-216 759,-216 789,-216 789,-216 795,-216 801,-222 801,-228 801,-228 801,-240 801,-240 801,-246 795,-252 789,-252"/>
<text text-anchor="middle" x="774" y="-230.3" font-family="Times,serif" font-size="14.00">Return</text>
</g>
<!-- ast.If object at 0x728ac7d47d50&#45;&gt;ast.Return object at 0x728ac7d45990 -->
<g id="edge36" class="edge">
<title>ast.If object at 0x728ac7d47d50&#45;&gt;ast.Return object at 0x728ac7d45990</title>
<path fill="none" stroke="black" d="M641.14,-293.13C667.66,-281.53 708.19,-263.79 737.51,-250.96"/>
<polygon fill="black" stroke="black" points="739.23,-254.03 746.99,-246.82 736.43,-247.62 739.23,-254.03"/>
</g>
<!-- ast.Call object at 0x728ac7d47590 -->
<g id="node21" class="node">
<title>ast.Call object at 0x728ac7d47590</title>
<path fill="#66cdaa" stroke="black" d="M483,-180C483,-180 453,-180 453,-180 447,-180 441,-174 441,-168 441,-168 441,-156 441,-156 441,-150 447,-144 453,-144 453,-144 483,-144 483,-144 489,-144 495,-150 495,-156 495,-156 495,-168 495,-168 495,-174 489,-180 483,-180"/>
<text text-anchor="middle" x="468" y="-158.3" font-family="Times,serif" font-size="14.00">Call</text>
</g>
<!-- ast.Compare object at 0x728ac7d478d0&#45;&gt;ast.Call object at 0x728ac7d47590 -->
<g id="edge23" class="edge">
<title>ast.Compare object at 0x728ac7d478d0&#45;&gt;ast.Call object at 0x728ac7d47590</title>
<path fill="none" stroke="black" d="M532.74,-215.7C521.91,-206.88 508.58,-196.03 496.84,-186.47"/>
<polygon fill="black" stroke="black" points="498.98,-183.7 489.01,-180.1 494.56,-189.13 498.98,-183.7"/>
</g>
<!-- ast.Gt object at 0x728ad0dc2bd0 -->
<g id="node24" class="node">
<title>ast.Gt object at 0x728ad0dc2bd0</title>
<path fill="#66cdaa" stroke="black" d="M555,-180C555,-180 525,-180 525,-180 519,-180 513,-174 513,-168 513,-168 513,-156 513,-156 513,-150 519,-144 525,-144 525,-144 555,-144 555,-144 561,-144 567,-150 567,-156 567,-156 567,-168 567,-168 567,-174 561,-180 555,-180"/>
<text text-anchor="middle" x="540" y="-158.3" font-family="Times,serif" font-size="14.00">Gt</text>
</g>
<!-- ast.Compare object at 0x728ac7d478d0&#45;&gt;ast.Gt object at 0x728ad0dc2bd0 -->
<g id="edge28" class="edge">
<title>ast.Compare object at 0x728ac7d478d0&#45;&gt;ast.Gt object at 0x728ad0dc2bd0</title>
<path fill="none" stroke="black" d="M550.54,-215.7C549,-207.98 547.14,-198.71 545.42,-190.11"/>
<polygon fill="black" stroke="black" points="548.81,-189.22 543.42,-180.1 541.95,-190.6 548.81,-189.22"/>
</g>
<!-- ast.Constant object at 0x728ac7d474d0 -->
<g id="node25" class="node">
<title>ast.Constant object at 0x728ac7d474d0</title>
<path fill="#66cdaa" stroke="black" d="M638.5,-180C638.5,-180 597.5,-180 597.5,-180 591.5,-180 585.5,-174 585.5,-168 585.5,-168 585.5,-156 585.5,-156 585.5,-150 591.5,-144 597.5,-144 597.5,-144 638.5,-144 638.5,-144 644.5,-144 650.5,-150 650.5,-156 650.5,-156 650.5,-168 650.5,-168 650.5,-174 644.5,-180 638.5,-180"/>
<text text-anchor="middle" x="618" y="-158.3" font-family="Times,serif" font-size="14.00">Constant</text>
</g>
<!-- ast.Compare object at 0x728ac7d478d0&#45;&gt;ast.Constant object at 0x728ac7d474d0 -->
<g id="edge29" class="edge">
<title>ast.Compare object at 0x728ac7d478d0&#45;&gt;ast.Constant object at 0x728ac7d474d0</title>
<path fill="none" stroke="black" d="M569.82,-215.7C577.57,-207.22 587.04,-196.86 595.52,-187.58"/>
<polygon fill="black" stroke="black" points="598.2,-189.85 602.36,-180.1 593.03,-185.12 598.2,-189.85"/>
</g>
<!-- ast.Name object at 0x728ac7d47c90 -->
<g id="node22" class="node">
<title>ast.Name object at 0x728ac7d47c90</title>
<path fill="#66cdaa" stroke="black" d="M490,-108C490,-108 460,-108 460,-108 454,-108 448,-102 448,-96 448,-96 448,-84 448,-84 448,-78 454,-72 460,-72 460,-72 490,-72 490,-72 496,-72 502,-78 502,-84 502,-84 502,-96 502,-96 502,-102 496,-108 490,-108"/>
<text text-anchor="middle" x="475" y="-86.3" font-family="Times,serif" font-size="14.00">Name</text>
</g>
<!-- ast.Call object at 0x728ac7d47590&#45;&gt;ast.Name object at 0x728ac7d47c90 -->
<g id="edge24" class="edge">
<title>ast.Call object at 0x728ac7d47590&#45;&gt;ast.Name object at 0x728ac7d47c90</title>
<path fill="none" stroke="black" d="M469.73,-143.7C470.5,-135.98 471.43,-126.71 472.29,-118.11"/>
<polygon fill="black" stroke="black" points="475.78,-118.4 473.29,-108.1 468.81,-117.71 475.78,-118.4"/>
</g>
<!-- ast.Name object at 0x728ac7d47310 -->
<g id="node23" class="node">
<title>ast.Name object at 0x728ac7d47310</title>
<path fill="#66cdaa" stroke="black" d="M562,-108C562,-108 532,-108 532,-108 526,-108 520,-102 520,-96 520,-96 520,-84 520,-84 520,-78 526,-72 532,-72 532,-72 562,-72 562,-72 568,-72 574,-78 574,-84 574,-84 574,-96 574,-96 574,-102 568,-108 562,-108"/>
<text text-anchor="middle" x="547" y="-86.3" font-family="Times,serif" font-size="14.00">Name</text>
</g>
<!-- ast.Call object at 0x728ac7d47590&#45;&gt;ast.Name object at 0x728ac7d47310 -->
<g id="edge26" class="edge">
<title>ast.Call object at 0x728ac7d47590&#45;&gt;ast.Name object at 0x728ac7d47310</title>
<path fill="none" stroke="black" d="M487.53,-143.7C497.38,-134.97 509.49,-124.24 520.2,-114.75"/>
<polygon fill="black" stroke="black" points="522.53,-117.36 527.7,-108.1 517.89,-112.12 522.53,-117.36"/>
</g>
<!-- ast.Name object at 0x728ac7d47c90&#45;&gt;ast.Load object at 0x728ad0dc19d0 -->
<g id="edge25" class="edge">
<title>ast.Name object at 0x728ac7d47c90&#45;&gt;ast.Load object at 0x728ad0dc19d0</title>
<path fill="none" stroke="black" d="M455.72,-71.7C446.08,-63.05 434.27,-52.45 423.77,-43.03"/>
<polygon fill="black" stroke="black" points="425.84,-40.18 416.06,-36.1 421.16,-45.39 425.84,-40.18"/>
</g>
<!-- ast.Name object at 0x728ac7d47310&#45;&gt;ast.Load object at 0x728ad0dc19d0 -->
<g id="edge27" class="edge">
<title>ast.Name object at 0x728ac7d47310&#45;&gt;ast.Load object at 0x728ad0dc19d0</title>
<path fill="none" stroke="black" d="M519.88,-76.17C516.89,-74.76 513.88,-73.35 511,-72 485.06,-59.85 455.75,-46.22 433.35,-35.83"/>
<polygon fill="black" stroke="black" points="434.75,-32.62 424.2,-31.59 431.8,-38.97 434.75,-32.62"/>
</g>
<!-- ast.Subscript object at 0x728ac7d46f10 -->
<g id="node27" class="node">
<title>ast.Subscript object at 0x728ac7d46f10</title>
<path fill="#66cdaa" stroke="black" d="M725,-180C725,-180 681,-180 681,-180 675,-180 669,-174 669,-168 669,-168 669,-156 669,-156 669,-150 675,-144 681,-144 681,-144 725,-144 725,-144 731,-144 737,-150 737,-156 737,-156 737,-168 737,-168 737,-174 731,-180 725,-180"/>
<text text-anchor="middle" x="703" y="-158.3" font-family="Times,serif" font-size="14.00">Subscript</text>
</g>
<!-- ast.Return object at 0x728ac7d47450&#45;&gt;ast.Subscript object at 0x728ac7d46f10 -->
<g id="edge31" class="edge">
<title>ast.Return object at 0x728ac7d47450&#45;&gt;ast.Subscript object at 0x728ac7d46f10</title>
<path fill="none" stroke="black" d="M681.92,-215.7C685.07,-207.81 688.88,-198.3 692.38,-189.55"/>
<polygon fill="black" stroke="black" points="695.69,-190.69 696.16,-180.1 689.19,-188.09 695.69,-190.69"/>
</g>
<!-- ast.Subscript object at 0x728ac7d46f10&#45;&gt;ast.Load object at 0x728ad0dc19d0 -->
<g id="edge35" class="edge">
<title>ast.Subscript object at 0x728ac7d46f10&#45;&gt;ast.Load object at 0x728ad0dc19d0</title>
<path fill="none" stroke="black" d="M673.65,-143.85C657.6,-134.04 637.66,-121.09 621,-108 602.71,-93.62 603.21,-83.52 583,-72 535.47,-44.91 473.09,-30.83 434.02,-24.18"/>
<polygon fill="black" stroke="black" points="434.57,-20.72 424.14,-22.57 433.44,-27.63 434.57,-20.72"/>
</g>
<!-- ast.Name object at 0x728ac7d45c90 -->
<g id="node28" class="node">
<title>ast.Name object at 0x728ac7d45c90</title>
<path fill="#66cdaa" stroke="black" d="M672,-108C672,-108 642,-108 642,-108 636,-108 630,-102 630,-96 630,-96 630,-84 630,-84 630,-78 636,-72 642,-72 642,-72 672,-72 672,-72 678,-72 684,-78 684,-84 684,-84 684,-96 684,-96 684,-102 678,-108 672,-108"/>
<text text-anchor="middle" x="657" y="-86.3" font-family="Times,serif" font-size="14.00">Name</text>
</g>
<!-- ast.Subscript object at 0x728ac7d46f10&#45;&gt;ast.Name object at 0x728ac7d45c90 -->
<g id="edge32" class="edge">
<title>ast.Subscript object at 0x728ac7d46f10&#45;&gt;ast.Name object at 0x728ac7d45c90</title>
<path fill="none" stroke="black" d="M691.63,-143.7C686.28,-135.56 679.8,-125.69 673.89,-116.7"/>
<polygon fill="black" stroke="black" points="676.66,-114.54 668.24,-108.1 670.81,-118.38 676.66,-114.54"/>
</g>
<!-- ast.Constant object at 0x728ac7d46810 -->
<g id="node29" class="node">
<title>ast.Constant object at 0x728ac7d46810</title>
<path fill="#66cdaa" stroke="black" d="M755.5,-108C755.5,-108 714.5,-108 714.5,-108 708.5,-108 702.5,-102 702.5,-96 702.5,-96 702.5,-84 702.5,-84 702.5,-78 708.5,-72 714.5,-72 714.5,-72 755.5,-72 755.5,-72 761.5,-72 767.5,-78 767.5,-84 767.5,-84 767.5,-96 767.5,-96 767.5,-102 761.5,-108 755.5,-108"/>
<text text-anchor="middle" x="735" y="-86.3" font-family="Times,serif" font-size="14.00">Constant</text>
</g>
<!-- ast.Subscript object at 0x728ac7d46f10&#45;&gt;ast.Constant object at 0x728ac7d46810 -->
<g id="edge34" class="edge">
<title>ast.Subscript object at 0x728ac7d46f10&#45;&gt;ast.Constant object at 0x728ac7d46810</title>
<path fill="none" stroke="black" d="M710.91,-143.7C714.55,-135.73 718.95,-126.1 722.99,-117.26"/>
<polygon fill="black" stroke="black" points="726.21,-118.65 727.18,-108.1 719.84,-115.74 726.21,-118.65"/>
</g>
<!-- ast.Name object at 0x728ac7d45c90&#45;&gt;ast.Load object at 0x728ad0dc19d0 -->
<g id="edge33" class="edge">
<title>ast.Name object at 0x728ac7d45c90&#45;&gt;ast.Load object at 0x728ad0dc19d0</title>
<path fill="none" stroke="black" d="M629.87,-77.06C625.29,-75.24 620.54,-73.48 616,-72 553.16,-51.51 477.88,-34.98 433.95,-26.11"/>
<polygon fill="black" stroke="black" points="434.5,-22.65 424.01,-24.12 433.13,-29.51 434.5,-22.65"/>
</g>
<!-- ast.Constant object at 0x728ac7d47890 -->
<g id="node31" class="node">
<title>ast.Constant object at 0x728ac7d47890</title>
<path fill="#66cdaa" stroke="black" d="M808.5,-180C808.5,-180 767.5,-180 767.5,-180 761.5,-180 755.5,-174 755.5,-168 755.5,-168 755.5,-156 755.5,-156 755.5,-150 761.5,-144 767.5,-144 767.5,-144 808.5,-144 808.5,-144 814.5,-144 820.5,-150 820.5,-156 820.5,-156 820.5,-168 820.5,-168 820.5,-174 814.5,-180 808.5,-180"/>
<text text-anchor="middle" x="788" y="-158.3" font-family="Times,serif" font-size="14.00">Constant</text>
</g>
<!-- ast.Return object at 0x728ac7d45990&#45;&gt;ast.Constant object at 0x728ac7d47890 -->
<g id="edge37" class="edge">
<title>ast.Return object at 0x728ac7d45990&#45;&gt;ast.Constant object at 0x728ac7d47890</title>
<path fill="none" stroke="black" d="M777.46,-215.7C779,-207.98 780.86,-198.71 782.58,-190.11"/>
<polygon fill="black" stroke="black" points="786.05,-190.6 784.58,-180.1 779.19,-189.22 786.05,-190.6"/>
</g>
</g>
</svg>
