<?xml version="1.0" encoding="UTF-8" standalone="no"?>
<!DOCTYPE svg PUBLIC "-//W3C//DTD SVG 1.1//EN"
 "http://www.w3.org/Graphics/SVG/1.1/DTD/svg11.dtd">
<!-- Generated by graphviz version 2.50.0 (0)
 -->
<!-- Pages: 1 -->
<svg width="1613pt" height="836pt"
 viewBox="0.00 0.00 1612.50 836.00" xmlns="http://www.w3.org/2000/svg" xmlns:xlink="http://www.w3.org/1999/xlink">
<g id="graph0" class="graph" transform="scale(1 1) rotate(0) translate(4 832)">
<polygon fill="white" stroke="transparent" points="-4,4 -4,-832 1608.5,-832 1608.5,4 -4,4"/>
<!-- ast.Module object at 0x70a796a64e50 -->
<g id="node1" class="node">
<title>ast.Module object at 0x70a796a64e50</title>
<path fill="#66cdaa" stroke="black" d="M518,-828C518,-828 483,-828 483,-828 477,-828 471,-822 471,-816 471,-816 471,-804 471,-804 471,-798 477,-792 483,-792 483,-792 518,-792 518,-792 524,-792 530,-798 530,-804 530,-804 530,-816 530,-816 530,-822 524,-828 518,-828"/>
<text text-anchor="middle" x="500.5" y="-806.3" font-family="Times,serif" font-size="14.00">Module</text>
</g>
<!-- ast.Import object at 0x70a796a66b10 -->
<g id="node2" class="node">
<title>ast.Import object at 0x70a796a66b10</title>
<path fill="#66cdaa" stroke="black" d="M471.5,-756C471.5,-756 441.5,-756 441.5,-756 435.5,-756 429.5,-750 429.5,-744 429.5,-744 429.5,-732 429.5,-732 429.5,-726 435.5,-720 441.5,-720 441.5,-720 471.5,-720 471.5,-720 477.5,-720 483.5,-726 483.5,-732 483.5,-732 483.5,-744 483.5,-744 483.5,-750 477.5,-756 471.5,-756"/>
<text text-anchor="middle" x="456.5" y="-734.3" font-family="Times,serif" font-size="14.00">Import</text>
</g>
<!-- ast.Module object at 0x70a796a64e50&#45;&gt;ast.Import object at 0x70a796a66b10 -->
<g id="edge1" class="edge">
<title>ast.Module object at 0x70a796a64e50&#45;&gt;ast.Import object at 0x70a796a66b10</title>
<path fill="none" stroke="black" d="M489.62,-791.7C484.51,-783.56 478.3,-773.69 472.66,-764.7"/>
<polygon fill="black" stroke="black" points="475.54,-762.71 467.25,-756.1 469.61,-766.43 475.54,-762.71"/>
</g>
<!-- ast.FunctionDef object at 0x70a796469c10 -->
<g id="node4" class="node">
<title>ast.FunctionDef object at 0x70a796469c10</title>
<path fill="#66cdaa" stroke="black" d="M631,-756C631,-756 570,-756 570,-756 564,-756 558,-750 558,-744 558,-744 558,-732 558,-732 558,-726 564,-720 570,-720 570,-720 631,-720 631,-720 637,-720 643,-726 643,-732 643,-732 643,-744 643,-744 643,-750 637,-756 631,-756"/>
<text text-anchor="middle" x="600.5" y="-734.3" font-family="Times,serif" font-size="14.00">FunctionDef</text>
</g>
<!-- ast.Module object at 0x70a796a64e50&#45;&gt;ast.FunctionDef object at 0x70a796469c10 -->
<g id="edge3" class="edge">
<title>ast.Module object at 0x70a796a64e50&#45;&gt;ast.FunctionDef object at 0x70a796469c10</title>
<path fill="none" stroke="black" d="M524.96,-791.88C537.8,-782.89 553.7,-771.76 567.59,-762.03"/>
<polygon fill="black" stroke="black" points="569.76,-764.79 575.94,-756.19 565.74,-759.06 569.76,-764.79"/>
</g>
<!-- ast.alias object at 0x70a6e83d4c50 -->
<g id="node3" class="node">
<title>ast.alias object at 0x70a6e83d4c50</title>
<path fill="#66cdaa" stroke="black" d="M328.5,-684C328.5,-684 298.5,-684 298.5,-684 292.5,-684 286.5,-678 286.5,-672 286.5,-672 286.5,-660 286.5,-660 286.5,-654 292.5,-648 298.5,-648 298.5,-648 328.5,-648 328.5,-648 334.5,-648 340.5,-654 340.5,-660 340.5,-660 340.5,-672 340.5,-672 340.5,-678 334.5,-684 328.5,-684"/>
<text text-anchor="middle" x="313.5" y="-662.3" font-family="Times,serif" font-size="14.00">alias</text>
</g>
<!-- ast.Import object at 0x70a796a66b10&#45;&gt;ast.alias object at 0x70a6e83d4c50 -->
<g id="edge2" class="edge">
<title>ast.Import object at 0x70a796a66b10&#45;&gt;ast.alias object at 0x70a6e83d4c50</title>
<path fill="none" stroke="black" d="M429.27,-723.67C406.7,-712.62 374.45,-696.83 349.71,-684.72"/>
<polygon fill="black" stroke="black" points="351.15,-681.53 340.63,-680.28 348.08,-687.82 351.15,-681.53"/>
</g>
<!-- ast.arguments object at 0x70a796d495d0 -->
<g id="node5" class="node">
<title>ast.arguments object at 0x70a796d495d0</title>
<path fill="#66cdaa" stroke="black" d="M920.5,-684C920.5,-684 870.5,-684 870.5,-684 864.5,-684 858.5,-678 858.5,-672 858.5,-672 858.5,-660 858.5,-660 858.5,-654 864.5,-648 870.5,-648 870.5,-648 920.5,-648 920.5,-648 926.5,-648 932.5,-654 932.5,-660 932.5,-660 932.5,-672 932.5,-672 932.5,-678 926.5,-684 920.5,-684"/>
<text text-anchor="middle" x="895.5" y="-662.3" font-family="Times,serif" font-size="14.00">arguments</text>
</g>
<!-- ast.FunctionDef object at 0x70a796469c10&#45;&gt;ast.arguments object at 0x70a796d495d0 -->
<g id="edge4" class="edge">
<title>ast.FunctionDef object at 0x70a796469c10&#45;&gt;ast.arguments object at 0x70a796d495d0</title>
<path fill="none" stroke="black" d="M643.08,-726.9C697.57,-713.97 791.67,-691.64 848.29,-678.2"/>
<polygon fill="black" stroke="black" points="849.15,-681.6 858.07,-675.88 847.53,-674.78 849.15,-681.6"/>
</g>
<!-- ast.Assign object at 0x70a7964f3210 -->
<g id="node7" class="node">
<title>ast.Assign object at 0x70a7964f3210</title>
<path fill="#66cdaa" stroke="black" d="M528.5,-612C528.5,-612 498.5,-612 498.5,-612 492.5,-612 486.5,-606 486.5,-600 486.5,-600 486.5,-588 486.5,-588 486.5,-582 492.5,-576 498.5,-576 498.5,-576 528.5,-576 528.5,-576 534.5,-576 540.5,-582 540.5,-588 540.5,-588 540.5,-600 540.5,-600 540.5,-606 534.5,-612 528.5,-612"/>
<text text-anchor="middle" x="513.5" y="-590.3" font-family="Times,serif" font-size="14.00">Assign</text>
</g>
<!-- ast.FunctionDef object at 0x70a796469c10&#45;&gt;ast.Assign object at 0x70a7964f3210 -->
<g id="edge6" class="edge">
<title>ast.FunctionDef object at 0x70a796469c10&#45;&gt;ast.Assign object at 0x70a7964f3210</title>
<path fill="none" stroke="black" d="M590.01,-719.87C574.92,-695.24 546.98,-649.64 529.36,-620.88"/>
<polygon fill="black" stroke="black" points="532.24,-618.89 524.03,-612.19 526.27,-622.54 532.24,-618.89"/>
</g>
<!-- ast.Assign object at 0x70a7964f0ed0 -->
<g id="node25" class="node">
<title>ast.Assign object at 0x70a7964f0ed0</title>
<path fill="#66cdaa" stroke="black" d="M257.5,-468C257.5,-468 227.5,-468 227.5,-468 221.5,-468 215.5,-462 215.5,-456 215.5,-456 215.5,-444 215.5,-444 215.5,-438 221.5,-432 227.5,-432 227.5,-432 257.5,-432 257.5,-432 263.5,-432 269.5,-438 269.5,-444 269.5,-444 269.5,-456 269.5,-456 269.5,-462 263.5,-468 257.5,-468"/>
<text text-anchor="middle" x="242.5" y="-446.3" font-family="Times,serif" font-size="14.00">Assign</text>
</g>
<!-- ast.FunctionDef object at 0x70a796469c10&#45;&gt;ast.Assign object at 0x70a7964f0ed0 -->
<g id="edge30" class="edge">
<title>ast.FunctionDef object at 0x70a796469c10&#45;&gt;ast.Assign object at 0x70a7964f0ed0</title>
<path fill="none" stroke="black" d="M579.18,-719.97C518.14,-671.2 342.59,-530.96 272.21,-474.73"/>
<polygon fill="black" stroke="black" points="274.16,-471.81 264.16,-468.31 269.79,-477.28 274.16,-471.81"/>
</g>
<!-- ast.For object at 0x70a7964f2590 -->
<g id="node29" class="node">
<title>ast.For object at 0x70a7964f2590</title>
<path fill="#66cdaa" stroke="black" d="M661.5,-684C661.5,-684 631.5,-684 631.5,-684 625.5,-684 619.5,-678 619.5,-672 619.5,-672 619.5,-660 619.5,-660 619.5,-654 625.5,-648 631.5,-648 631.5,-648 661.5,-648 661.5,-648 667.5,-648 673.5,-654 673.5,-660 673.5,-660 673.5,-672 673.5,-672 673.5,-678 667.5,-684 661.5,-684"/>
<text text-anchor="middle" x="646.5" y="-662.3" font-family="Times,serif" font-size="14.00">For</text>
</g>
<!-- ast.FunctionDef object at 0x70a796469c10&#45;&gt;ast.For object at 0x70a7964f2590 -->
<g id="edge36" class="edge">
<title>ast.FunctionDef object at 0x70a796469c10&#45;&gt;ast.For object at 0x70a7964f2590</title>
<path fill="none" stroke="black" d="M611.87,-719.7C617.22,-711.56 623.7,-701.69 629.61,-692.7"/>
<polygon fill="black" stroke="black" points="632.69,-694.38 635.26,-684.1 626.84,-690.54 632.69,-694.38"/>
</g>
<!-- ast.Return object at 0x70a7964fd5d0 -->
<g id="node74" class="node">
<title>ast.Return object at 0x70a7964fd5d0</title>
<path fill="#66cdaa" stroke="black" d="M796.5,-684C796.5,-684 766.5,-684 766.5,-684 760.5,-684 754.5,-678 754.5,-672 754.5,-672 754.5,-660 754.5,-660 754.5,-654 760.5,-648 766.5,-648 766.5,-648 796.5,-648 796.5,-648 802.5,-648 808.5,-654 808.5,-660 808.5,-660 808.5,-672 808.5,-672 808.5,-678 802.5,-684 796.5,-684"/>
<text text-anchor="middle" x="781.5" y="-662.3" font-family="Times,serif" font-size="14.00">Return</text>
</g>
<!-- ast.FunctionDef object at 0x70a796469c10&#45;&gt;ast.Return object at 0x70a7964fd5d0 -->
<g id="edge103" class="edge">
<title>ast.FunctionDef object at 0x70a796469c10&#45;&gt;ast.Return object at 0x70a7964fd5d0</title>
<path fill="none" stroke="black" d="M643.39,-720.41C674.29,-708.46 715.55,-692.51 744.9,-681.16"/>
<polygon fill="black" stroke="black" points="746.3,-684.37 754.36,-677.49 743.77,-677.84 746.3,-684.37"/>
</g>
<!-- ast.arg object at 0x70a7964f3190 -->
<g id="node6" class="node">
<title>ast.arg object at 0x70a7964f3190</title>
<path fill="#66cdaa" stroke="black" d="M926.5,-612C926.5,-612 896.5,-612 896.5,-612 890.5,-612 884.5,-606 884.5,-600 884.5,-600 884.5,-588 884.5,-588 884.5,-582 890.5,-576 896.5,-576 896.5,-576 926.5,-576 926.5,-576 932.5,-576 938.5,-582 938.5,-588 938.5,-588 938.5,-600 938.5,-600 938.5,-606 932.5,-612 926.5,-612"/>
<text text-anchor="middle" x="911.5" y="-590.3" font-family="Times,serif" font-size="14.00">arg</text>
</g>
<!-- ast.arguments object at 0x70a796d495d0&#45;&gt;ast.arg object at 0x70a7964f3190 -->
<g id="edge5" class="edge">
<title>ast.arguments object at 0x70a796d495d0&#45;&gt;ast.arg object at 0x70a7964f3190</title>
<path fill="none" stroke="black" d="M899.46,-647.7C901.22,-639.98 903.34,-630.71 905.3,-622.11"/>
<polygon fill="black" stroke="black" points="908.77,-622.63 907.59,-612.1 901.95,-621.07 908.77,-622.63"/>
</g>
<!-- ast.Name object at 0x70a7964f31d0 -->
<g id="node8" class="node">
<title>ast.Name object at 0x70a7964f31d0</title>
<path fill="#66cdaa" stroke="black" d="M528.5,-540C528.5,-540 498.5,-540 498.5,-540 492.5,-540 486.5,-534 486.5,-528 486.5,-528 486.5,-516 486.5,-516 486.5,-510 492.5,-504 498.5,-504 498.5,-504 528.5,-504 528.5,-504 534.5,-504 540.5,-510 540.5,-516 540.5,-516 540.5,-528 540.5,-528 540.5,-534 534.5,-540 528.5,-540"/>
<text text-anchor="middle" x="513.5" y="-518.3" font-family="Times,serif" font-size="14.00">Name</text>
</g>
<!-- ast.Assign object at 0x70a7964f3210&#45;&gt;ast.Name object at 0x70a7964f31d0 -->
<g id="edge7" class="edge">
<title>ast.Assign object at 0x70a7964f3210&#45;&gt;ast.Name object at 0x70a7964f31d0</title>
<path fill="none" stroke="black" d="M513.5,-575.7C513.5,-567.98 513.5,-558.71 513.5,-550.11"/>
<polygon fill="black" stroke="black" points="517,-550.1 513.5,-540.1 510,-550.1 517,-550.1"/>
</g>
<!-- ast.ListComp object at 0x70a7964f2a50 -->
<g id="node10" class="node">
<title>ast.ListComp object at 0x70a7964f2a50</title>
<path fill="#66cdaa" stroke="black" d="M456,-540C456,-540 409,-540 409,-540 403,-540 397,-534 397,-528 397,-528 397,-516 397,-516 397,-510 403,-504 409,-504 409,-504 456,-504 456,-504 462,-504 468,-510 468,-516 468,-516 468,-528 468,-528 468,-534 462,-540 456,-540"/>
<text text-anchor="middle" x="432.5" y="-518.3" font-family="Times,serif" font-size="14.00">ListComp</text>
</g>
<!-- ast.Assign object at 0x70a7964f3210&#45;&gt;ast.ListComp object at 0x70a7964f2a50 -->
<g id="edge9" class="edge">
<title>ast.Assign object at 0x70a7964f3210&#45;&gt;ast.ListComp object at 0x70a7964f2a50</title>
<path fill="none" stroke="black" d="M493.48,-575.7C483.37,-566.97 470.96,-556.24 459.98,-546.75"/>
<polygon fill="black" stroke="black" points="462.15,-543.99 452.29,-540.1 457.57,-549.29 462.15,-543.99"/>
</g>
<!-- ast.Store object at 0x70a797db5990 -->
<g id="node9" class="node">
<title>ast.Store object at 0x70a797db5990</title>
<path fill="#66cdaa" stroke="black" d="M555.5,-324C555.5,-324 525.5,-324 525.5,-324 519.5,-324 513.5,-318 513.5,-312 513.5,-312 513.5,-300 513.5,-300 513.5,-294 519.5,-288 525.5,-288 525.5,-288 555.5,-288 555.5,-288 561.5,-288 567.5,-294 567.5,-300 567.5,-300 567.5,-312 567.5,-312 567.5,-318 561.5,-324 555.5,-324"/>
<text text-anchor="middle" x="540.5" y="-302.3" font-family="Times,serif" font-size="14.00">Store</text>
</g>
<!-- ast.Name object at 0x70a7964f31d0&#45;&gt;ast.Store object at 0x70a797db5990 -->
<g id="edge8" class="edge">
<title>ast.Name object at 0x70a7964f31d0&#45;&gt;ast.Store object at 0x70a797db5990</title>
<path fill="none" stroke="black" d="M515.66,-503.85C520.33,-466.83 531.39,-379.18 537.04,-334.39"/>
<polygon fill="black" stroke="black" points="540.55,-334.59 538.33,-324.23 533.6,-333.72 540.55,-334.59"/>
</g>
<!-- ast.Call object at 0x70a7964f1b10 -->
<g id="node11" class="node">
<title>ast.Call object at 0x70a7964f1b10</title>
<path fill="#66cdaa" stroke="black" d="M447.5,-468C447.5,-468 417.5,-468 417.5,-468 411.5,-468 405.5,-462 405.5,-456 405.5,-456 405.5,-444 405.5,-444 405.5,-438 411.5,-432 417.5,-432 417.5,-432 447.5,-432 447.5,-432 453.5,-432 459.5,-438 459.5,-444 459.5,-444 459.5,-456 459.5,-456 459.5,-462 453.5,-468 447.5,-468"/>
<text text-anchor="middle" x="432.5" y="-446.3" font-family="Times,serif" font-size="14.00">Call</text>
</g>
<!-- ast.ListComp object at 0x70a7964f2a50&#45;&gt;ast.Call object at 0x70a7964f1b10 -->
<g id="edge10" class="edge">
<title>ast.ListComp object at 0x70a7964f2a50&#45;&gt;ast.Call object at 0x70a7964f1b10</title>
<path fill="none" stroke="black" d="M432.5,-503.7C432.5,-495.98 432.5,-486.71 432.5,-478.11"/>
<polygon fill="black" stroke="black" points="436,-478.1 432.5,-468.1 429,-478.1 436,-478.1"/>
</g>
<!-- ast.comprehension object at 0x70a7964f2450 -->
<g id="node15" class="node">
<title>ast.comprehension object at 0x70a7964f2450</title>
<path fill="#66cdaa" stroke="black" d="M375.5,-468C375.5,-468 299.5,-468 299.5,-468 293.5,-468 287.5,-462 287.5,-456 287.5,-456 287.5,-444 287.5,-444 287.5,-438 293.5,-432 299.5,-432 299.5,-432 375.5,-432 375.5,-432 381.5,-432 387.5,-438 387.5,-444 387.5,-444 387.5,-456 387.5,-456 387.5,-462 381.5,-468 375.5,-468"/>
<text text-anchor="middle" x="337.5" y="-446.3" font-family="Times,serif" font-size="14.00">comprehension</text>
</g>
<!-- ast.ListComp object at 0x70a7964f2a50&#45;&gt;ast.comprehension object at 0x70a7964f2450 -->
<g id="edge15" class="edge">
<title>ast.ListComp object at 0x70a7964f2a50&#45;&gt;ast.comprehension object at 0x70a7964f2450</title>
<path fill="none" stroke="black" d="M409.02,-503.7C396.94,-494.8 382.05,-483.82 368.98,-474.2"/>
<polygon fill="black" stroke="black" points="370.84,-471.22 360.71,-468.1 366.69,-476.85 370.84,-471.22"/>
</g>
<!-- ast.Attribute object at 0x70a7964f2b90 -->
<g id="node12" class="node">
<title>ast.Attribute object at 0x70a7964f2b90</title>
<path fill="#66cdaa" stroke="black" d="M424,-252C424,-252 383,-252 383,-252 377,-252 371,-246 371,-240 371,-240 371,-228 371,-228 371,-222 377,-216 383,-216 383,-216 424,-216 424,-216 430,-216 436,-222 436,-228 436,-228 436,-240 436,-240 436,-246 430,-252 424,-252"/>
<text text-anchor="middle" x="403.5" y="-230.3" font-family="Times,serif" font-size="14.00">Attribute</text>
</g>
<!-- ast.Call object at 0x70a7964f1b10&#45;&gt;ast.Attribute object at 0x70a7964f2b90 -->
<g id="edge11" class="edge">
<title>ast.Call object at 0x70a7964f1b10&#45;&gt;ast.Attribute object at 0x70a7964f2b90</title>
<path fill="none" stroke="black" d="M428.96,-431.87C426.89,-421.51 424.34,-408.03 422.5,-396 415.34,-349.26 409.4,-294.52 406.15,-262.42"/>
<polygon fill="black" stroke="black" points="409.63,-262.05 405.16,-252.45 402.67,-262.74 409.63,-262.05"/>
</g>
<!-- ast.Name object at 0x70a7964f1910 -->
<g id="node13" class="node">
<title>ast.Name object at 0x70a7964f1910</title>
<path fill="#66cdaa" stroke="black" d="M418.5,-180C418.5,-180 388.5,-180 388.5,-180 382.5,-180 376.5,-174 376.5,-168 376.5,-168 376.5,-156 376.5,-156 376.5,-150 382.5,-144 388.5,-144 388.5,-144 418.5,-144 418.5,-144 424.5,-144 430.5,-150 430.5,-156 430.5,-156 430.5,-168 430.5,-168 430.5,-174 424.5,-180 418.5,-180"/>
<text text-anchor="middle" x="403.5" y="-158.3" font-family="Times,serif" font-size="14.00">Name</text>
</g>
<!-- ast.Attribute object at 0x70a7964f2b90&#45;&gt;ast.Name object at 0x70a7964f1910 -->
<g id="edge12" class="edge">
<title>ast.Attribute object at 0x70a7964f2b90&#45;&gt;ast.Name object at 0x70a7964f1910</title>
<path fill="none" stroke="black" d="M403.5,-215.7C403.5,-207.98 403.5,-198.71 403.5,-190.11"/>
<polygon fill="black" stroke="black" points="407,-190.1 403.5,-180.1 400,-190.1 407,-190.1"/>
</g>
<!-- ast.Load object at 0x70a797db5910 -->
<g id="node14" class="node">
<title>ast.Load object at 0x70a797db5910</title>
<path fill="#66cdaa" stroke="black" d="M856.5,-108C856.5,-108 826.5,-108 826.5,-108 820.5,-108 814.5,-102 814.5,-96 814.5,-96 814.5,-84 814.5,-84 814.5,-78 820.5,-72 826.5,-72 826.5,-72 856.5,-72 856.5,-72 862.5,-72 868.5,-78 868.5,-84 868.5,-84 868.5,-96 868.5,-96 868.5,-102 862.5,-108 856.5,-108"/>
<text text-anchor="middle" x="841.5" y="-86.3" font-family="Times,serif" font-size="14.00">Load</text>
</g>
<!-- ast.Attribute object at 0x70a7964f2b90&#45;&gt;ast.Load object at 0x70a797db5910 -->
<g id="edge14" class="edge">
<title>ast.Attribute object at 0x70a7964f2b90&#45;&gt;ast.Load object at 0x70a797db5910</title>
<path fill="none" stroke="black" d="M415.58,-215.68C432.22,-192.36 461.9,-152.74 477.5,-144 533.01,-112.88 722.71,-98.09 804.01,-93.07"/>
<polygon fill="black" stroke="black" points="804.51,-96.55 814.29,-92.45 804.09,-89.56 804.51,-96.55"/>
</g>
<!-- ast.Name object at 0x70a7964f1910&#45;&gt;ast.Load object at 0x70a797db5910 -->
<g id="edge13" class="edge">
<title>ast.Name object at 0x70a7964f1910&#45;&gt;ast.Load object at 0x70a797db5910</title>
<path fill="none" stroke="black" d="M430.5,-148.65C435.1,-146.88 439.89,-145.24 444.5,-144 573.51,-109.28 732.5,-96.82 803.79,-92.77"/>
<polygon fill="black" stroke="black" points="804.27,-96.25 814.06,-92.21 803.89,-89.26 804.27,-96.25"/>
</g>
<!-- ast.Name object at 0x70a7964f1950 -->
<g id="node16" class="node">
<title>ast.Name object at 0x70a7964f1950</title>
<path fill="#66cdaa" stroke="black" d="M473.5,-396C473.5,-396 443.5,-396 443.5,-396 437.5,-396 431.5,-390 431.5,-384 431.5,-384 431.5,-372 431.5,-372 431.5,-366 437.5,-360 443.5,-360 443.5,-360 473.5,-360 473.5,-360 479.5,-360 485.5,-366 485.5,-372 485.5,-372 485.5,-384 485.5,-384 485.5,-390 479.5,-396 473.5,-396"/>
<text text-anchor="middle" x="458.5" y="-374.3" font-family="Times,serif" font-size="14.00">Name</text>
</g>
<!-- ast.comprehension object at 0x70a7964f2450&#45;&gt;ast.Name object at 0x70a7964f1950 -->
<g id="edge16" class="edge">
<title>ast.comprehension object at 0x70a7964f2450&#45;&gt;ast.Name object at 0x70a7964f1950</title>
<path fill="none" stroke="black" d="M367.1,-431.88C383.78,-422.23 404.75,-410.1 422.39,-399.89"/>
<polygon fill="black" stroke="black" points="424.37,-402.79 431.27,-394.75 420.87,-396.73 424.37,-402.79"/>
</g>
<!-- ast.Subscript object at 0x70a7964f10d0 -->
<g id="node17" class="node">
<title>ast.Subscript object at 0x70a7964f10d0</title>
<path fill="#66cdaa" stroke="black" d="M222.5,-252C222.5,-252 178.5,-252 178.5,-252 172.5,-252 166.5,-246 166.5,-240 166.5,-240 166.5,-228 166.5,-228 166.5,-222 172.5,-216 178.5,-216 178.5,-216 222.5,-216 222.5,-216 228.5,-216 234.5,-222 234.5,-228 234.5,-228 234.5,-240 234.5,-240 234.5,-246 228.5,-252 222.5,-252"/>
<text text-anchor="middle" x="200.5" y="-230.3" font-family="Times,serif" font-size="14.00">Subscript</text>
</g>
<!-- ast.comprehension object at 0x70a7964f2450&#45;&gt;ast.Subscript object at 0x70a7964f10d0 -->
<g id="edge18" class="edge">
<title>ast.comprehension object at 0x70a7964f2450&#45;&gt;ast.Subscript object at 0x70a7964f10d0</title>
<path fill="none" stroke="black" d="M288.77,-431.95C261.44,-421.39 231.13,-407.66 222.5,-396 193.49,-356.82 193.62,-297.18 196.77,-262.55"/>
<polygon fill="black" stroke="black" points="200.29,-262.56 197.86,-252.24 193.33,-261.82 200.29,-262.56"/>
</g>
<!-- ast.Call object at 0x70a7964f1890 -->
<g id="node22" class="node">
<title>ast.Call object at 0x70a7964f1890</title>
<path fill="#66cdaa" stroke="black" d="M350.5,-396C350.5,-396 320.5,-396 320.5,-396 314.5,-396 308.5,-390 308.5,-384 308.5,-384 308.5,-372 308.5,-372 308.5,-366 314.5,-360 320.5,-360 320.5,-360 350.5,-360 350.5,-360 356.5,-360 362.5,-366 362.5,-372 362.5,-372 362.5,-384 362.5,-384 362.5,-390 356.5,-396 350.5,-396"/>
<text text-anchor="middle" x="335.5" y="-374.3" font-family="Times,serif" font-size="14.00">Call</text>
</g>
<!-- ast.comprehension object at 0x70a7964f2450&#45;&gt;ast.Call object at 0x70a7964f1890 -->
<g id="edge25" class="edge">
<title>ast.comprehension object at 0x70a7964f2450&#45;&gt;ast.Call object at 0x70a7964f1890</title>
<path fill="none" stroke="black" d="M337.01,-431.7C336.79,-423.98 336.52,-414.71 336.27,-406.11"/>
<polygon fill="black" stroke="black" points="339.77,-406 335.99,-396.1 332.78,-406.2 339.77,-406"/>
</g>
<!-- ast.Name object at 0x70a7964f1950&#45;&gt;ast.Store object at 0x70a797db5990 -->
<g id="edge17" class="edge">
<title>ast.Name object at 0x70a7964f1950&#45;&gt;ast.Store object at 0x70a797db5990</title>
<path fill="none" stroke="black" d="M478.77,-359.7C489,-350.97 501.56,-340.24 512.68,-330.75"/>
<polygon fill="black" stroke="black" points="515.13,-333.26 520.46,-324.1 510.59,-327.94 515.13,-333.26"/>
</g>
<!-- ast.Subscript object at 0x70a7964f10d0&#45;&gt;ast.Load object at 0x70a797db5910 -->
<g id="edge24" class="edge">
<title>ast.Subscript object at 0x70a7964f10d0&#45;&gt;ast.Load object at 0x70a797db5910</title>
<path fill="none" stroke="black" d="M210.91,-215.73C224.64,-194.71 250.9,-160.05 283.5,-144 375.49,-98.71 694.14,-92.07 803.96,-91.14"/>
<polygon fill="black" stroke="black" points="804.24,-94.64 814.22,-91.06 804.19,-87.64 804.24,-94.64"/>
</g>
<!-- ast.Name object at 0x70a7964f0d50 -->
<g id="node18" class="node">
<title>ast.Name object at 0x70a7964f0d50</title>
<path fill="#66cdaa" stroke="black" d="M198.5,-180C198.5,-180 168.5,-180 168.5,-180 162.5,-180 156.5,-174 156.5,-168 156.5,-168 156.5,-156 156.5,-156 156.5,-150 162.5,-144 168.5,-144 168.5,-144 198.5,-144 198.5,-144 204.5,-144 210.5,-150 210.5,-156 210.5,-156 210.5,-168 210.5,-168 210.5,-174 204.5,-180 198.5,-180"/>
<text text-anchor="middle" x="183.5" y="-158.3" font-family="Times,serif" font-size="14.00">Name</text>
</g>
<!-- ast.Subscript object at 0x70a7964f10d0&#45;&gt;ast.Name object at 0x70a7964f0d50 -->
<g id="edge19" class="edge">
<title>ast.Subscript object at 0x70a7964f10d0&#45;&gt;ast.Name object at 0x70a7964f0d50</title>
<path fill="none" stroke="black" d="M196.3,-215.7C194.4,-207.9 192.12,-198.51 190.02,-189.83"/>
<polygon fill="black" stroke="black" points="193.42,-189 187.65,-180.1 186.61,-190.65 193.42,-189"/>
</g>
<!-- ast.Slice object at 0x70a7964f3010 -->
<g id="node19" class="node">
<title>ast.Slice object at 0x70a7964f3010</title>
<path fill="#66cdaa" stroke="black" d="M88.5,-180C88.5,-180 58.5,-180 58.5,-180 52.5,-180 46.5,-174 46.5,-168 46.5,-168 46.5,-156 46.5,-156 46.5,-150 52.5,-144 58.5,-144 58.5,-144 88.5,-144 88.5,-144 94.5,-144 100.5,-150 100.5,-156 100.5,-156 100.5,-168 100.5,-168 100.5,-174 94.5,-180 88.5,-180"/>
<text text-anchor="middle" x="73.5" y="-158.3" font-family="Times,serif" font-size="14.00">Slice</text>
</g>
<!-- ast.Subscript object at 0x70a7964f10d0&#45;&gt;ast.Slice object at 0x70a7964f3010 -->
<g id="edge21" class="edge">
<title>ast.Subscript object at 0x70a7964f10d0&#45;&gt;ast.Slice object at 0x70a7964f3010</title>
<path fill="none" stroke="black" d="M169.43,-215.88C151.38,-205.93 128.56,-193.35 109.7,-182.95"/>
<polygon fill="black" stroke="black" points="111.24,-179.81 100.8,-178.05 107.87,-185.94 111.24,-179.81"/>
</g>
<!-- ast.Name object at 0x70a7964f0d50&#45;&gt;ast.Load object at 0x70a797db5910 -->
<g id="edge20" class="edge">
<title>ast.Name object at 0x70a7964f0d50&#45;&gt;ast.Load object at 0x70a797db5910</title>
<path fill="none" stroke="black" d="M210.9,-148.29C215.37,-146.61 220.01,-145.1 224.5,-144 439.19,-91.61 706.88,-89.18 804.06,-90.26"/>
<polygon fill="black" stroke="black" points="804.22,-93.76 814.26,-90.39 804.31,-86.76 804.22,-93.76"/>
</g>
<!-- ast.Constant object at 0x70a7964f1a50 -->
<g id="node20" class="node">
<title>ast.Constant object at 0x70a7964f1a50</title>
<path fill="#66cdaa" stroke="black" d="M53,-108C53,-108 12,-108 12,-108 6,-108 0,-102 0,-96 0,-96 0,-84 0,-84 0,-78 6,-72 12,-72 12,-72 53,-72 53,-72 59,-72 65,-78 65,-84 65,-84 65,-96 65,-96 65,-102 59,-108 53,-108"/>
<text text-anchor="middle" x="32.5" y="-86.3" font-family="Times,serif" font-size="14.00">Constant</text>
</g>
<!-- ast.Slice object at 0x70a7964f3010&#45;&gt;ast.Constant object at 0x70a7964f1a50 -->
<g id="edge22" class="edge">
<title>ast.Slice object at 0x70a7964f3010&#45;&gt;ast.Constant object at 0x70a7964f1a50</title>
<path fill="none" stroke="black" d="M63.37,-143.7C58.65,-135.64 52.94,-125.89 47.72,-116.98"/>
<polygon fill="black" stroke="black" points="50.59,-114.96 42.52,-108.1 44.55,-118.5 50.59,-114.96"/>
</g>
<!-- ast.Constant object at 0x70a7964f1690 -->
<g id="node21" class="node">
<title>ast.Constant object at 0x70a7964f1690</title>
<path fill="#66cdaa" stroke="black" d="M136,-108C136,-108 95,-108 95,-108 89,-108 83,-102 83,-96 83,-96 83,-84 83,-84 83,-78 89,-72 95,-72 95,-72 136,-72 136,-72 142,-72 148,-78 148,-84 148,-84 148,-96 148,-96 148,-102 142,-108 136,-108"/>
<text text-anchor="middle" x="115.5" y="-86.3" font-family="Times,serif" font-size="14.00">Constant</text>
</g>
<!-- ast.Slice object at 0x70a7964f3010&#45;&gt;ast.Constant object at 0x70a7964f1690 -->
<g id="edge23" class="edge">
<title>ast.Slice object at 0x70a7964f3010&#45;&gt;ast.Constant object at 0x70a7964f1690</title>
<path fill="none" stroke="black" d="M83.88,-143.7C88.76,-135.56 94.69,-125.69 100.08,-116.7"/>
<polygon fill="black" stroke="black" points="103.09,-118.48 105.24,-108.1 97.09,-114.88 103.09,-118.48"/>
</g>
<!-- ast.Attribute object at 0x70a7964f0e50 -->
<g id="node23" class="node">
<title>ast.Attribute object at 0x70a7964f0e50</title>
<path fill="#66cdaa" stroke="black" d="M341,-252C341,-252 300,-252 300,-252 294,-252 288,-246 288,-240 288,-240 288,-228 288,-228 288,-222 294,-216 300,-216 300,-216 341,-216 341,-216 347,-216 353,-222 353,-228 353,-228 353,-240 353,-240 353,-246 347,-252 341,-252"/>
<text text-anchor="middle" x="320.5" y="-230.3" font-family="Times,serif" font-size="14.00">Attribute</text>
</g>
<!-- ast.Call object at 0x70a7964f1890&#45;&gt;ast.Attribute object at 0x70a7964f0e50 -->
<g id="edge26" class="edge">
<title>ast.Call object at 0x70a7964f1890&#45;&gt;ast.Attribute object at 0x70a7964f0e50</title>
<path fill="none" stroke="black" d="M333.69,-359.87C331.13,-335.67 326.44,-291.21 323.39,-262.39"/>
<polygon fill="black" stroke="black" points="326.85,-261.77 322.32,-252.19 319.89,-262.5 326.85,-261.77"/>
</g>
<!-- ast.Attribute object at 0x70a7964f0e50&#45;&gt;ast.Load object at 0x70a797db5910 -->
<g id="edge29" class="edge">
<title>ast.Attribute object at 0x70a7964f0e50&#45;&gt;ast.Load object at 0x70a797db5910</title>
<path fill="none" stroke="black" d="M307.24,-215.76C293.81,-196.06 277.38,-163.97 295.5,-144 329.64,-106.39 686.07,-94.66 803.91,-91.79"/>
<polygon fill="black" stroke="black" points="804.32,-95.28 814.23,-91.55 804.15,-88.28 804.32,-95.28"/>
</g>
<!-- ast.Name object at 0x70a7964f1210 -->
<g id="node24" class="node">
<title>ast.Name object at 0x70a7964f1210</title>
<path fill="#66cdaa" stroke="black" d="M346.5,-180C346.5,-180 316.5,-180 316.5,-180 310.5,-180 304.5,-174 304.5,-168 304.5,-168 304.5,-156 304.5,-156 304.5,-150 310.5,-144 316.5,-144 316.5,-144 346.5,-144 346.5,-144 352.5,-144 358.5,-150 358.5,-156 358.5,-156 358.5,-168 358.5,-168 358.5,-174 352.5,-180 346.5,-180"/>
<text text-anchor="middle" x="331.5" y="-158.3" font-family="Times,serif" font-size="14.00">Name</text>
</g>
<!-- ast.Attribute object at 0x70a7964f0e50&#45;&gt;ast.Name object at 0x70a7964f1210 -->
<g id="edge27" class="edge">
<title>ast.Attribute object at 0x70a7964f0e50&#45;&gt;ast.Name object at 0x70a7964f1210</title>
<path fill="none" stroke="black" d="M323.22,-215.7C324.43,-207.98 325.89,-198.71 327.24,-190.11"/>
<polygon fill="black" stroke="black" points="330.72,-190.53 328.81,-180.1 323.8,-189.44 330.72,-190.53"/>
</g>
<!-- ast.Name object at 0x70a7964f1210&#45;&gt;ast.Load object at 0x70a797db5910 -->
<g id="edge28" class="edge">
<title>ast.Name object at 0x70a7964f1210&#45;&gt;ast.Load object at 0x70a797db5910</title>
<path fill="none" stroke="black" d="M358.66,-147.04C361.59,-145.88 364.57,-144.83 367.5,-144 525.51,-99.2 723.21,-92.01 804.25,-91.04"/>
<polygon fill="black" stroke="black" points="804.48,-94.54 814.44,-90.94 804.41,-87.54 804.48,-94.54"/>
</g>
<!-- ast.Name object at 0x70a7964f2710 -->
<g id="node26" class="node">
<title>ast.Name object at 0x70a7964f2710</title>
<path fill="#66cdaa" stroke="black" d="M273.5,-396C273.5,-396 243.5,-396 243.5,-396 237.5,-396 231.5,-390 231.5,-384 231.5,-384 231.5,-372 231.5,-372 231.5,-366 237.5,-360 243.5,-360 243.5,-360 273.5,-360 273.5,-360 279.5,-360 285.5,-366 285.5,-372 285.5,-372 285.5,-384 285.5,-384 285.5,-390 279.5,-396 273.5,-396"/>
<text text-anchor="middle" x="258.5" y="-374.3" font-family="Times,serif" font-size="14.00">Name</text>
</g>
<!-- ast.Assign object at 0x70a7964f0ed0&#45;&gt;ast.Name object at 0x70a7964f2710 -->
<g id="edge31" class="edge">
<title>ast.Assign object at 0x70a7964f0ed0&#45;&gt;ast.Name object at 0x70a7964f2710</title>
<path fill="none" stroke="black" d="M246.46,-431.7C248.22,-423.98 250.34,-414.71 252.3,-406.11"/>
<polygon fill="black" stroke="black" points="255.77,-406.63 254.59,-396.1 248.95,-405.07 255.77,-406.63"/>
</g>
<!-- ast.Call object at 0x70a7964f0b10 -->
<g id="node27" class="node">
<title>ast.Call object at 0x70a7964f0b10</title>
<path fill="#66cdaa" stroke="black" d="M157.5,-396C157.5,-396 127.5,-396 127.5,-396 121.5,-396 115.5,-390 115.5,-384 115.5,-384 115.5,-372 115.5,-372 115.5,-366 121.5,-360 127.5,-360 127.5,-360 157.5,-360 157.5,-360 163.5,-360 169.5,-366 169.5,-372 169.5,-372 169.5,-384 169.5,-384 169.5,-390 163.5,-396 157.5,-396"/>
<text text-anchor="middle" x="142.5" y="-374.3" font-family="Times,serif" font-size="14.00">Call</text>
</g>
<!-- ast.Assign object at 0x70a7964f0ed0&#45;&gt;ast.Call object at 0x70a7964f0b10 -->
<g id="edge33" class="edge">
<title>ast.Assign object at 0x70a7964f0ed0&#45;&gt;ast.Call object at 0x70a7964f0b10</title>
<path fill="none" stroke="black" d="M218.04,-431.88C205.2,-422.89 189.3,-411.76 175.41,-402.03"/>
<polygon fill="black" stroke="black" points="177.26,-399.06 167.06,-396.19 173.24,-404.79 177.26,-399.06"/>
</g>
<!-- ast.Name object at 0x70a7964f2710&#45;&gt;ast.Store object at 0x70a797db5990 -->
<g id="edge32" class="edge">
<title>ast.Name object at 0x70a7964f2710&#45;&gt;ast.Store object at 0x70a797db5990</title>
<path fill="none" stroke="black" d="M285.6,-364.98C290.19,-363.17 294.94,-361.43 299.5,-360 370.31,-337.72 455.68,-321.32 503.46,-313.05"/>
<polygon fill="black" stroke="black" points="504.08,-316.49 513.35,-311.36 502.9,-309.59 504.08,-316.49"/>
</g>
<!-- ast.Name object at 0x70a7964f0b50 -->
<g id="node28" class="node">
<title>ast.Name object at 0x70a7964f0b50</title>
<path fill="#66cdaa" stroke="black" d="M153.5,-324C153.5,-324 123.5,-324 123.5,-324 117.5,-324 111.5,-318 111.5,-312 111.5,-312 111.5,-300 111.5,-300 111.5,-294 117.5,-288 123.5,-288 123.5,-288 153.5,-288 153.5,-288 159.5,-288 165.5,-294 165.5,-300 165.5,-300 165.5,-312 165.5,-312 165.5,-318 159.5,-324 153.5,-324"/>
<text text-anchor="middle" x="138.5" y="-302.3" font-family="Times,serif" font-size="14.00">Name</text>
</g>
<!-- ast.Call object at 0x70a7964f0b10&#45;&gt;ast.Name object at 0x70a7964f0b50 -->
<g id="edge34" class="edge">
<title>ast.Call object at 0x70a7964f0b10&#45;&gt;ast.Name object at 0x70a7964f0b50</title>
<path fill="none" stroke="black" d="M141.51,-359.7C141.07,-351.98 140.54,-342.71 140.05,-334.11"/>
<polygon fill="black" stroke="black" points="143.54,-333.89 139.48,-324.1 136.55,-334.29 143.54,-333.89"/>
</g>
<!-- ast.Name object at 0x70a7964f0b50&#45;&gt;ast.Load object at 0x70a797db5910 -->
<g id="edge35" class="edge">
<title>ast.Name object at 0x70a7964f0b50&#45;&gt;ast.Load object at 0x70a797db5910</title>
<path fill="none" stroke="black" d="M133.07,-287.82C123.85,-254.88 109.59,-182.69 147.5,-144 193.71,-96.84 666.85,-91.57 804.27,-91.04"/>
<polygon fill="black" stroke="black" points="804.32,-94.54 814.31,-91.01 804.3,-87.54 804.32,-94.54"/>
</g>
<!-- ast.Name object at 0x70a7964f0c10 -->
<g id="node30" class="node">
<title>ast.Name object at 0x70a7964f0c10</title>
<path fill="#66cdaa" stroke="black" d="M600.5,-540C600.5,-540 570.5,-540 570.5,-540 564.5,-540 558.5,-534 558.5,-528 558.5,-528 558.5,-516 558.5,-516 558.5,-510 564.5,-504 570.5,-504 570.5,-504 600.5,-504 600.5,-504 606.5,-504 612.5,-510 612.5,-516 612.5,-516 612.5,-528 612.5,-528 612.5,-534 606.5,-540 600.5,-540"/>
<text text-anchor="middle" x="585.5" y="-518.3" font-family="Times,serif" font-size="14.00">Name</text>
</g>
<!-- ast.For object at 0x70a7964f2590&#45;&gt;ast.Name object at 0x70a7964f0c10 -->
<g id="edge37" class="edge">
<title>ast.For object at 0x70a7964f2590&#45;&gt;ast.Name object at 0x70a7964f0c10</title>
<path fill="none" stroke="black" d="M639.14,-647.87C628.65,-623.46 609.31,-578.43 596.94,-549.64"/>
<polygon fill="black" stroke="black" points="600.05,-548 592.88,-540.19 593.62,-550.76 600.05,-548"/>
</g>
<!-- ast.Call object at 0x70a7964f0a90 -->
<g id="node31" class="node">
<title>ast.Call object at 0x70a7964f0a90</title>
<path fill="#66cdaa" stroke="black" d="M769.5,-396C769.5,-396 739.5,-396 739.5,-396 733.5,-396 727.5,-390 727.5,-384 727.5,-384 727.5,-372 727.5,-372 727.5,-366 733.5,-360 739.5,-360 739.5,-360 769.5,-360 769.5,-360 775.5,-360 781.5,-366 781.5,-372 781.5,-372 781.5,-384 781.5,-384 781.5,-390 775.5,-396 769.5,-396"/>
<text text-anchor="middle" x="754.5" y="-374.3" font-family="Times,serif" font-size="14.00">Call</text>
</g>
<!-- ast.For object at 0x70a7964f2590&#45;&gt;ast.Call object at 0x70a7964f0a90 -->
<g id="edge39" class="edge">
<title>ast.For object at 0x70a7964f2590&#45;&gt;ast.Call object at 0x70a7964f0a90</title>
<path fill="none" stroke="black" d="M652.93,-647.97C671.01,-600.09 722.38,-464.06 744.34,-405.9"/>
<polygon fill="black" stroke="black" points="747.71,-406.9 747.96,-396.31 741.16,-404.43 747.71,-406.9"/>
</g>
<!-- ast.For object at 0x70a7964f0590 -->
<g id="node40" class="node">
<title>ast.For object at 0x70a7964f0590</title>
<path fill="#66cdaa" stroke="black" d="M782.5,-612C782.5,-612 752.5,-612 752.5,-612 746.5,-612 740.5,-606 740.5,-600 740.5,-600 740.5,-588 740.5,-588 740.5,-582 746.5,-576 752.5,-576 752.5,-576 782.5,-576 782.5,-576 788.5,-576 794.5,-582 794.5,-588 794.5,-588 794.5,-600 794.5,-600 794.5,-606 788.5,-612 782.5,-612"/>
<text text-anchor="middle" x="767.5" y="-590.3" font-family="Times,serif" font-size="14.00">For</text>
</g>
<!-- ast.For object at 0x70a7964f2590&#45;&gt;ast.For object at 0x70a7964f0590 -->
<g id="edge51" class="edge">
<title>ast.For object at 0x70a7964f2590&#45;&gt;ast.For object at 0x70a7964f0590</title>
<path fill="none" stroke="black" d="M673.65,-649.29C690.78,-639.38 713.09,-626.48 731.66,-615.73"/>
<polygon fill="black" stroke="black" points="733.53,-618.69 740.44,-610.66 730.03,-612.63 733.53,-618.69"/>
</g>
<!-- ast.Name object at 0x70a7964f0c10&#45;&gt;ast.Store object at 0x70a797db5990 -->
<g id="edge38" class="edge">
<title>ast.Name object at 0x70a7964f0c10&#45;&gt;ast.Store object at 0x70a797db5990</title>
<path fill="none" stroke="black" d="M581.89,-503.85C574.09,-466.75 555.6,-378.81 546.2,-334.1"/>
<polygon fill="black" stroke="black" points="549.61,-333.3 544.12,-324.23 542.76,-334.74 549.61,-333.3"/>
</g>
<!-- ast.Name object at 0x70a7964f1990 -->
<g id="node32" class="node">
<title>ast.Name object at 0x70a7964f1990</title>
<path fill="#66cdaa" stroke="black" d="M699.5,-324C699.5,-324 669.5,-324 669.5,-324 663.5,-324 657.5,-318 657.5,-312 657.5,-312 657.5,-300 657.5,-300 657.5,-294 663.5,-288 669.5,-288 669.5,-288 699.5,-288 699.5,-288 705.5,-288 711.5,-294 711.5,-300 711.5,-300 711.5,-312 711.5,-312 711.5,-318 705.5,-324 699.5,-324"/>
<text text-anchor="middle" x="684.5" y="-302.3" font-family="Times,serif" font-size="14.00">Name</text>
</g>
<!-- ast.Call object at 0x70a7964f0a90&#45;&gt;ast.Name object at 0x70a7964f1990 -->
<g id="edge40" class="edge">
<title>ast.Call object at 0x70a7964f0a90&#45;&gt;ast.Name object at 0x70a7964f1990</title>
<path fill="none" stroke="black" d="M737.2,-359.7C728.64,-351.14 718.16,-340.66 708.8,-331.3"/>
<polygon fill="black" stroke="black" points="711.15,-328.7 701.6,-324.1 706.2,-333.65 711.15,-328.7"/>
</g>
<!-- ast.Constant object at 0x70a7964f0810 -->
<g id="node33" class="node">
<title>ast.Constant object at 0x70a7964f0810</title>
<path fill="#66cdaa" stroke="black" d="M783,-324C783,-324 742,-324 742,-324 736,-324 730,-318 730,-312 730,-312 730,-300 730,-300 730,-294 736,-288 742,-288 742,-288 783,-288 783,-288 789,-288 795,-294 795,-300 795,-300 795,-312 795,-312 795,-318 789,-324 783,-324"/>
<text text-anchor="middle" x="762.5" y="-302.3" font-family="Times,serif" font-size="14.00">Constant</text>
</g>
<!-- ast.Call object at 0x70a7964f0a90&#45;&gt;ast.Constant object at 0x70a7964f0810 -->
<g id="edge42" class="edge">
<title>ast.Call object at 0x70a7964f0a90&#45;&gt;ast.Constant object at 0x70a7964f0810</title>
<path fill="none" stroke="black" d="M756.48,-359.7C757.36,-351.98 758.42,-342.71 759.4,-334.11"/>
<polygon fill="black" stroke="black" points="762.89,-334.44 760.55,-324.1 755.93,-333.64 762.89,-334.44"/>
</g>
<!-- ast.BinOp object at 0x70a7964f1390 -->
<g id="node34" class="node">
<title>ast.BinOp object at 0x70a7964f1390</title>
<path fill="#66cdaa" stroke="black" d="M627.5,-324C627.5,-324 597.5,-324 597.5,-324 591.5,-324 585.5,-318 585.5,-312 585.5,-312 585.5,-300 585.5,-300 585.5,-294 591.5,-288 597.5,-288 597.5,-288 627.5,-288 627.5,-288 633.5,-288 639.5,-294 639.5,-300 639.5,-300 639.5,-312 639.5,-312 639.5,-318 633.5,-324 627.5,-324"/>
<text text-anchor="middle" x="612.5" y="-302.3" font-family="Times,serif" font-size="14.00">BinOp</text>
</g>
<!-- ast.Call object at 0x70a7964f0a90&#45;&gt;ast.BinOp object at 0x70a7964f1390 -->
<g id="edge43" class="edge">
<title>ast.Call object at 0x70a7964f0a90&#45;&gt;ast.BinOp object at 0x70a7964f1390</title>
<path fill="none" stroke="black" d="M727.46,-363.67C705.19,-352.69 673.43,-337.03 648.93,-324.96"/>
<polygon fill="black" stroke="black" points="650.44,-321.8 639.93,-320.52 647.35,-328.08 650.44,-321.8"/>
</g>
<!-- ast.Name object at 0x70a7964f1990&#45;&gt;ast.Load object at 0x70a797db5910 -->
<g id="edge41" class="edge">
<title>ast.Name object at 0x70a7964f1990&#45;&gt;ast.Load object at 0x70a797db5910</title>
<path fill="none" stroke="black" d="M683.63,-287.71C682.43,-269.6 679.66,-240.46 673.5,-216 669.3,-199.35 662.67,-196.87 659.5,-180 656.55,-164.27 649.9,-156.8 659.5,-144 676.89,-120.82 756.46,-104.46 804.45,-96.5"/>
<polygon fill="black" stroke="black" points="805.15,-99.93 814.46,-94.88 804.03,-93.02 805.15,-99.93"/>
</g>
<!-- ast.Call object at 0x70a7964f0610 -->
<g id="node35" class="node">
<title>ast.Call object at 0x70a7964f0610</title>
<path fill="#66cdaa" stroke="black" d="M496.5,-252C496.5,-252 466.5,-252 466.5,-252 460.5,-252 454.5,-246 454.5,-240 454.5,-240 454.5,-228 454.5,-228 454.5,-222 460.5,-216 466.5,-216 466.5,-216 496.5,-216 496.5,-216 502.5,-216 508.5,-222 508.5,-228 508.5,-228 508.5,-240 508.5,-240 508.5,-246 502.5,-252 496.5,-252"/>
<text text-anchor="middle" x="481.5" y="-230.3" font-family="Times,serif" font-size="14.00">Call</text>
</g>
<!-- ast.BinOp object at 0x70a7964f1390&#45;&gt;ast.Call object at 0x70a7964f0610 -->
<g id="edge44" class="edge">
<title>ast.BinOp object at 0x70a7964f1390&#45;&gt;ast.Call object at 0x70a7964f0610</title>
<path fill="none" stroke="black" d="M585.36,-290.5C565.68,-279.98 538.88,-265.66 517.44,-254.2"/>
<polygon fill="black" stroke="black" points="519.08,-251.11 508.61,-249.49 515.78,-257.29 519.08,-251.11"/>
</g>
<!-- ast.Add object at 0x70a797db5e10 -->
<g id="node38" class="node">
<title>ast.Add object at 0x70a797db5e10</title>
<path fill="#66cdaa" stroke="black" d="M568.5,-252C568.5,-252 538.5,-252 538.5,-252 532.5,-252 526.5,-246 526.5,-240 526.5,-240 526.5,-228 526.5,-228 526.5,-222 532.5,-216 538.5,-216 538.5,-216 568.5,-216 568.5,-216 574.5,-216 580.5,-222 580.5,-228 580.5,-228 580.5,-240 580.5,-240 580.5,-246 574.5,-252 568.5,-252"/>
<text text-anchor="middle" x="553.5" y="-230.3" font-family="Times,serif" font-size="14.00">Add</text>
</g>
<!-- ast.BinOp object at 0x70a7964f1390&#45;&gt;ast.Add object at 0x70a797db5e10 -->
<g id="edge49" class="edge">
<title>ast.BinOp object at 0x70a7964f1390&#45;&gt;ast.Add object at 0x70a797db5e10</title>
<path fill="none" stroke="black" d="M597.92,-287.7C590.84,-279.3 582.22,-269.07 574.45,-259.86"/>
<polygon fill="black" stroke="black" points="577.04,-257.49 567.92,-252.1 571.69,-262.01 577.04,-257.49"/>
</g>
<!-- ast.Constant object at 0x70a7964f04d0 -->
<g id="node39" class="node">
<title>ast.Constant object at 0x70a7964f04d0</title>
<path fill="#66cdaa" stroke="black" d="M652,-252C652,-252 611,-252 611,-252 605,-252 599,-246 599,-240 599,-240 599,-228 599,-228 599,-222 605,-216 611,-216 611,-216 652,-216 652,-216 658,-216 664,-222 664,-228 664,-228 664,-240 664,-240 664,-246 658,-252 652,-252"/>
<text text-anchor="middle" x="631.5" y="-230.3" font-family="Times,serif" font-size="14.00">Constant</text>
</g>
<!-- ast.BinOp object at 0x70a7964f1390&#45;&gt;ast.Constant object at 0x70a7964f04d0 -->
<g id="edge50" class="edge">
<title>ast.BinOp object at 0x70a7964f1390&#45;&gt;ast.Constant object at 0x70a7964f04d0</title>
<path fill="none" stroke="black" d="M617.2,-287.7C619.31,-279.9 621.86,-270.51 624.22,-261.83"/>
<polygon fill="black" stroke="black" points="627.62,-262.67 626.86,-252.1 620.86,-260.84 627.62,-262.67"/>
</g>
<!-- ast.Name object at 0x70a7964f0990 -->
<g id="node36" class="node">
<title>ast.Name object at 0x70a7964f0990</title>
<path fill="#66cdaa" stroke="black" d="M600.5,-180C600.5,-180 570.5,-180 570.5,-180 564.5,-180 558.5,-174 558.5,-168 558.5,-168 558.5,-156 558.5,-156 558.5,-150 564.5,-144 570.5,-144 570.5,-144 600.5,-144 600.5,-144 606.5,-144 612.5,-150 612.5,-156 612.5,-156 612.5,-168 612.5,-168 612.5,-174 606.5,-180 600.5,-180"/>
<text text-anchor="middle" x="585.5" y="-158.3" font-family="Times,serif" font-size="14.00">Name</text>
</g>
<!-- ast.Call object at 0x70a7964f0610&#45;&gt;ast.Name object at 0x70a7964f0990 -->
<g id="edge45" class="edge">
<title>ast.Call object at 0x70a7964f0610&#45;&gt;ast.Name object at 0x70a7964f0990</title>
<path fill="none" stroke="black" d="M506.94,-215.88C520.29,-206.89 536.82,-195.76 551.28,-186.03"/>
<polygon fill="black" stroke="black" points="553.62,-188.68 559.96,-180.19 549.71,-182.87 553.62,-188.68"/>
</g>
<!-- ast.Name object at 0x70a7964f1dd0 -->
<g id="node37" class="node">
<title>ast.Name object at 0x70a7964f1dd0</title>
<path fill="#66cdaa" stroke="black" d="M528.5,-180C528.5,-180 498.5,-180 498.5,-180 492.5,-180 486.5,-174 486.5,-168 486.5,-168 486.5,-156 486.5,-156 486.5,-150 492.5,-144 498.5,-144 498.5,-144 528.5,-144 528.5,-144 534.5,-144 540.5,-150 540.5,-156 540.5,-156 540.5,-168 540.5,-168 540.5,-174 534.5,-180 528.5,-180"/>
<text text-anchor="middle" x="513.5" y="-158.3" font-family="Times,serif" font-size="14.00">Name</text>
</g>
<!-- ast.Call object at 0x70a7964f0610&#45;&gt;ast.Name object at 0x70a7964f1dd0 -->
<g id="edge47" class="edge">
<title>ast.Call object at 0x70a7964f0610&#45;&gt;ast.Name object at 0x70a7964f1dd0</title>
<path fill="none" stroke="black" d="M489.41,-215.7C493.05,-207.73 497.45,-198.1 501.49,-189.26"/>
<polygon fill="black" stroke="black" points="504.71,-190.65 505.68,-180.1 498.34,-187.74 504.71,-190.65"/>
</g>
<!-- ast.Name object at 0x70a7964f0990&#45;&gt;ast.Load object at 0x70a797db5910 -->
<g id="edge46" class="edge">
<title>ast.Name object at 0x70a7964f0990&#45;&gt;ast.Load object at 0x70a797db5910</title>
<path fill="none" stroke="black" d="M612.63,-149.08C617.22,-147.26 621.96,-145.49 626.5,-144 687.74,-123.88 760.99,-107.38 804.25,-98.39"/>
<polygon fill="black" stroke="black" points="805.22,-101.76 814.32,-96.32 803.82,-94.91 805.22,-101.76"/>
</g>
<!-- ast.Name object at 0x70a7964f1dd0&#45;&gt;ast.Load object at 0x70a797db5910 -->
<g id="edge48" class="edge">
<title>ast.Name object at 0x70a7964f1dd0&#45;&gt;ast.Load object at 0x70a797db5910</title>
<path fill="none" stroke="black" d="M540.72,-147.24C543.64,-146.04 546.6,-144.93 549.5,-144 638.45,-115.47 747.88,-100.77 804.16,-94.62"/>
<polygon fill="black" stroke="black" points="804.78,-98.07 814.35,-93.53 804.04,-91.11 804.78,-98.07"/>
</g>
<!-- ast.Name object at 0x70a7964f20d0 -->
<g id="node41" class="node">
<title>ast.Name object at 0x70a7964f20d0</title>
<path fill="#66cdaa" stroke="black" d="M672.5,-540C672.5,-540 642.5,-540 642.5,-540 636.5,-540 630.5,-534 630.5,-528 630.5,-528 630.5,-516 630.5,-516 630.5,-510 636.5,-504 642.5,-504 642.5,-504 672.5,-504 672.5,-504 678.5,-504 684.5,-510 684.5,-516 684.5,-516 684.5,-528 684.5,-528 684.5,-534 678.5,-540 672.5,-540"/>
<text text-anchor="middle" x="657.5" y="-518.3" font-family="Times,serif" font-size="14.00">Name</text>
</g>
<!-- ast.For object at 0x70a7964f0590&#45;&gt;ast.Name object at 0x70a7964f20d0 -->
<g id="edge52" class="edge">
<title>ast.For object at 0x70a7964f0590&#45;&gt;ast.Name object at 0x70a7964f20d0</title>
<path fill="none" stroke="black" d="M740.59,-575.88C726.34,-566.81 708.65,-555.55 693.26,-545.76"/>
<polygon fill="black" stroke="black" points="694.83,-542.61 684.51,-540.19 691.07,-548.51 694.83,-542.61"/>
</g>
<!-- ast.Call object at 0x70a7964f2510 -->
<g id="node42" class="node">
<title>ast.Call object at 0x70a7964f2510</title>
<path fill="#66cdaa" stroke="black" d="M855.5,-324C855.5,-324 825.5,-324 825.5,-324 819.5,-324 813.5,-318 813.5,-312 813.5,-312 813.5,-300 813.5,-300 813.5,-294 819.5,-288 825.5,-288 825.5,-288 855.5,-288 855.5,-288 861.5,-288 867.5,-294 867.5,-300 867.5,-300 867.5,-312 867.5,-312 867.5,-318 861.5,-324 855.5,-324"/>
<text text-anchor="middle" x="840.5" y="-302.3" font-family="Times,serif" font-size="14.00">Call</text>
</g>
<!-- ast.For object at 0x70a7964f0590&#45;&gt;ast.Call object at 0x70a7964f2510 -->
<g id="edge54" class="edge">
<title>ast.For object at 0x70a7964f0590&#45;&gt;ast.Call object at 0x70a7964f2510</title>
<path fill="none" stroke="black" d="M773.87,-575.81C782.57,-551.89 798.24,-507.1 808.5,-468 820.72,-421.44 830.74,-366.23 836.15,-334.06"/>
<polygon fill="black" stroke="black" points="839.62,-334.51 837.8,-324.07 832.72,-333.37 839.62,-334.51"/>
</g>
<!-- ast.For object at 0x70a7964f24d0 -->
<g id="node47" class="node">
<title>ast.For object at 0x70a7964f24d0</title>
<path fill="#66cdaa" stroke="black" d="M946.5,-540C946.5,-540 916.5,-540 916.5,-540 910.5,-540 904.5,-534 904.5,-528 904.5,-528 904.5,-516 904.5,-516 904.5,-510 910.5,-504 916.5,-504 916.5,-504 946.5,-504 946.5,-504 952.5,-504 958.5,-510 958.5,-516 958.5,-516 958.5,-528 958.5,-528 958.5,-534 952.5,-540 946.5,-540"/>
<text text-anchor="middle" x="931.5" y="-518.3" font-family="Times,serif" font-size="14.00">For</text>
</g>
<!-- ast.For object at 0x70a7964f0590&#45;&gt;ast.For object at 0x70a7964f24d0 -->
<g id="edge63" class="edge">
<title>ast.For object at 0x70a7964f0590&#45;&gt;ast.For object at 0x70a7964f24d0</title>
<path fill="none" stroke="black" d="M794.56,-580.05C797.57,-578.66 800.59,-577.29 803.5,-576 834.12,-562.44 869.29,-547.96 895,-537.56"/>
<polygon fill="black" stroke="black" points="896.4,-540.77 904.37,-533.79 893.79,-534.28 896.4,-540.77"/>
</g>
<!-- ast.Name object at 0x70a7964f20d0&#45;&gt;ast.Store object at 0x70a797db5990 -->
<g id="edge53" class="edge">
<title>ast.Name object at 0x70a7964f20d0&#45;&gt;ast.Store object at 0x70a797db5990</title>
<path fill="none" stroke="black" d="M648,-503.61C631.86,-474.08 598.08,-412.26 569.5,-360 564.7,-351.21 559.44,-341.61 554.74,-333.02"/>
<polygon fill="black" stroke="black" points="557.78,-331.28 549.91,-324.18 551.64,-334.64 557.78,-331.28"/>
</g>
<!-- ast.Attribute object at 0x70a7964f1b90 -->
<g id="node43" class="node">
<title>ast.Attribute object at 0x70a7964f1b90</title>
<path fill="#66cdaa" stroke="black" d="M826,-252C826,-252 785,-252 785,-252 779,-252 773,-246 773,-240 773,-240 773,-228 773,-228 773,-222 779,-216 785,-216 785,-216 826,-216 826,-216 832,-216 838,-222 838,-228 838,-228 838,-240 838,-240 838,-246 832,-252 826,-252"/>
<text text-anchor="middle" x="805.5" y="-230.3" font-family="Times,serif" font-size="14.00">Attribute</text>
</g>
<!-- ast.Call object at 0x70a7964f2510&#45;&gt;ast.Attribute object at 0x70a7964f1b90 -->
<g id="edge55" class="edge">
<title>ast.Call object at 0x70a7964f2510&#45;&gt;ast.Attribute object at 0x70a7964f1b90</title>
<path fill="none" stroke="black" d="M831.85,-287.7C827.86,-279.73 823.05,-270.1 818.63,-261.26"/>
<polygon fill="black" stroke="black" points="821.65,-259.48 814.05,-252.1 815.39,-262.61 821.65,-259.48"/>
</g>
<!-- ast.Name object at 0x70a7964f2fd0 -->
<g id="node45" class="node">
<title>ast.Name object at 0x70a7964f2fd0</title>
<path fill="#66cdaa" stroke="black" d="M892.5,-180C892.5,-180 862.5,-180 862.5,-180 856.5,-180 850.5,-174 850.5,-168 850.5,-168 850.5,-156 850.5,-156 850.5,-150 856.5,-144 862.5,-144 862.5,-144 892.5,-144 892.5,-144 898.5,-144 904.5,-150 904.5,-156 904.5,-156 904.5,-168 904.5,-168 904.5,-174 898.5,-180 892.5,-180"/>
<text text-anchor="middle" x="877.5" y="-158.3" font-family="Times,serif" font-size="14.00">Name</text>
</g>
<!-- ast.Call object at 0x70a7964f2510&#45;&gt;ast.Name object at 0x70a7964f2fd0 -->
<g id="edge59" class="edge">
<title>ast.Call object at 0x70a7964f2510&#45;&gt;ast.Name object at 0x70a7964f2fd0</title>
<path fill="none" stroke="black" d="M844.96,-287.87C851.3,-263.56 862.96,-218.82 870.46,-190.01"/>
<polygon fill="black" stroke="black" points="873.89,-190.75 873.02,-180.19 867.11,-188.98 873.89,-190.75"/>
</g>
<!-- ast.Name object at 0x70a7964f1290 -->
<g id="node46" class="node">
<title>ast.Name object at 0x70a7964f1290</title>
<path fill="#66cdaa" stroke="black" d="M710.5,-180C710.5,-180 680.5,-180 680.5,-180 674.5,-180 668.5,-174 668.5,-168 668.5,-168 668.5,-156 668.5,-156 668.5,-150 674.5,-144 680.5,-144 680.5,-144 710.5,-144 710.5,-144 716.5,-144 722.5,-150 722.5,-156 722.5,-156 722.5,-168 722.5,-168 722.5,-174 716.5,-180 710.5,-180"/>
<text text-anchor="middle" x="695.5" y="-158.3" font-family="Times,serif" font-size="14.00">Name</text>
</g>
<!-- ast.Call object at 0x70a7964f2510&#45;&gt;ast.Name object at 0x70a7964f1290 -->
<g id="edge61" class="edge">
<title>ast.Call object at 0x70a7964f2510&#45;&gt;ast.Name object at 0x70a7964f1290</title>
<path fill="none" stroke="black" d="M813.33,-288.91C798.13,-279.23 779.31,-266.08 764.5,-252 744.32,-232.81 725.23,-207.42 712.27,-188.67"/>
<polygon fill="black" stroke="black" points="715.11,-186.62 706.6,-180.32 709.32,-190.56 715.11,-186.62"/>
</g>
<!-- ast.Attribute object at 0x70a7964f1b90&#45;&gt;ast.Load object at 0x70a797db5910 -->
<g id="edge58" class="edge">
<title>ast.Attribute object at 0x70a7964f1b90&#45;&gt;ast.Load object at 0x70a797db5910</title>
<path fill="none" stroke="black" d="M789.85,-215.9C775.19,-197.7 757.24,-168.25 769.5,-144 777.2,-128.77 791.56,-116.85 805.44,-108.2"/>
<polygon fill="black" stroke="black" points="807.53,-111.04 814.42,-102.99 804.02,-104.98 807.53,-111.04"/>
</g>
<!-- ast.Name object at 0x70a7964f15d0 -->
<g id="node44" class="node">
<title>ast.Name object at 0x70a7964f15d0</title>
<path fill="#66cdaa" stroke="black" d="M820.5,-180C820.5,-180 790.5,-180 790.5,-180 784.5,-180 778.5,-174 778.5,-168 778.5,-168 778.5,-156 778.5,-156 778.5,-150 784.5,-144 790.5,-144 790.5,-144 820.5,-144 820.5,-144 826.5,-144 832.5,-150 832.5,-156 832.5,-156 832.5,-168 832.5,-168 832.5,-174 826.5,-180 820.5,-180"/>
<text text-anchor="middle" x="805.5" y="-158.3" font-family="Times,serif" font-size="14.00">Name</text>
</g>
<!-- ast.Attribute object at 0x70a7964f1b90&#45;&gt;ast.Name object at 0x70a7964f15d0 -->
<g id="edge56" class="edge">
<title>ast.Attribute object at 0x70a7964f1b90&#45;&gt;ast.Name object at 0x70a7964f15d0</title>
<path fill="none" stroke="black" d="M805.5,-215.7C805.5,-207.98 805.5,-198.71 805.5,-190.11"/>
<polygon fill="black" stroke="black" points="809,-190.1 805.5,-180.1 802,-190.1 809,-190.1"/>
</g>
<!-- ast.Name object at 0x70a7964f15d0&#45;&gt;ast.Load object at 0x70a797db5910 -->
<g id="edge57" class="edge">
<title>ast.Name object at 0x70a7964f15d0&#45;&gt;ast.Load object at 0x70a797db5910</title>
<path fill="none" stroke="black" d="M814.4,-143.7C818.5,-135.73 823.45,-126.1 827.99,-117.26"/>
<polygon fill="black" stroke="black" points="831.24,-118.6 832.7,-108.1 825.02,-115.4 831.24,-118.6"/>
</g>
<!-- ast.Name object at 0x70a7964f2fd0&#45;&gt;ast.Load object at 0x70a797db5910 -->
<g id="edge60" class="edge">
<title>ast.Name object at 0x70a7964f2fd0&#45;&gt;ast.Load object at 0x70a797db5910</title>
<path fill="none" stroke="black" d="M868.6,-143.7C864.5,-135.73 859.55,-126.1 855.01,-117.26"/>
<polygon fill="black" stroke="black" points="857.98,-115.4 850.3,-108.1 851.76,-118.6 857.98,-115.4"/>
</g>
<!-- ast.Name object at 0x70a7964f1290&#45;&gt;ast.Load object at 0x70a797db5910 -->
<g id="edge62" class="edge">
<title>ast.Name object at 0x70a7964f1290&#45;&gt;ast.Load object at 0x70a797db5910</title>
<path fill="none" stroke="black" d="M722.62,-148C745.83,-136.87 779.44,-120.75 805.01,-108.5"/>
<polygon fill="black" stroke="black" points="806.53,-111.65 814.03,-104.17 803.5,-105.34 806.53,-111.65"/>
</g>
<!-- ast.Name object at 0x70a7964f1f90 -->
<g id="node48" class="node">
<title>ast.Name object at 0x70a7964f1f90</title>
<path fill="#66cdaa" stroke="black" d="M787.5,-468C787.5,-468 757.5,-468 757.5,-468 751.5,-468 745.5,-462 745.5,-456 745.5,-456 745.5,-444 745.5,-444 745.5,-438 751.5,-432 757.5,-432 757.5,-432 787.5,-432 787.5,-432 793.5,-432 799.5,-438 799.5,-444 799.5,-444 799.5,-456 799.5,-456 799.5,-462 793.5,-468 787.5,-468"/>
<text text-anchor="middle" x="772.5" y="-446.3" font-family="Times,serif" font-size="14.00">Name</text>
</g>
<!-- ast.For object at 0x70a7964f24d0&#45;&gt;ast.Name object at 0x70a7964f1f90 -->
<g id="edge64" class="edge">
<title>ast.For object at 0x70a7964f24d0&#45;&gt;ast.Name object at 0x70a7964f1f90</title>
<path fill="none" stroke="black" d="M904.17,-508.97C877.92,-497.41 838.1,-479.88 809.12,-467.12"/>
<polygon fill="black" stroke="black" points="810.3,-463.82 799.74,-462.99 807.48,-470.23 810.3,-463.82"/>
</g>
<!-- ast.Call object at 0x70a7964f2bd0 -->
<g id="node49" class="node">
<title>ast.Call object at 0x70a7964f2bd0</title>
<path fill="#66cdaa" stroke="black" d="M954.5,-324C954.5,-324 924.5,-324 924.5,-324 918.5,-324 912.5,-318 912.5,-312 912.5,-312 912.5,-300 912.5,-300 912.5,-294 918.5,-288 924.5,-288 924.5,-288 954.5,-288 954.5,-288 960.5,-288 966.5,-294 966.5,-300 966.5,-300 966.5,-312 966.5,-312 966.5,-318 960.5,-324 954.5,-324"/>
<text text-anchor="middle" x="939.5" y="-302.3" font-family="Times,serif" font-size="14.00">Call</text>
</g>
<!-- ast.For object at 0x70a7964f24d0&#45;&gt;ast.Call object at 0x70a7964f2bd0 -->
<g id="edge66" class="edge">
<title>ast.For object at 0x70a7964f24d0&#45;&gt;ast.Call object at 0x70a7964f2bd0</title>
<path fill="none" stroke="black" d="M947.11,-503.77C954.87,-494.03 963.45,-481.18 967.5,-468 981.71,-421.8 964.6,-365.78 951.57,-333.48"/>
<polygon fill="black" stroke="black" points="954.79,-332.12 947.7,-324.25 948.34,-334.83 954.79,-332.12"/>
</g>
<!-- ast.Assign object at 0x70a6e814e410 -->
<g id="node53" class="node">
<title>ast.Assign object at 0x70a6e814e410</title>
<path fill="#66cdaa" stroke="black" d="M946.5,-468C946.5,-468 916.5,-468 916.5,-468 910.5,-468 904.5,-462 904.5,-456 904.5,-456 904.5,-444 904.5,-444 904.5,-438 910.5,-432 916.5,-432 916.5,-432 946.5,-432 946.5,-432 952.5,-432 958.5,-438 958.5,-444 958.5,-444 958.5,-456 958.5,-456 958.5,-462 952.5,-468 946.5,-468"/>
<text text-anchor="middle" x="931.5" y="-446.3" font-family="Times,serif" font-size="14.00">Assign</text>
</g>
<!-- ast.For object at 0x70a7964f24d0&#45;&gt;ast.Assign object at 0x70a6e814e410 -->
<g id="edge73" class="edge">
<title>ast.For object at 0x70a7964f24d0&#45;&gt;ast.Assign object at 0x70a6e814e410</title>
<path fill="none" stroke="black" d="M931.5,-503.7C931.5,-495.98 931.5,-486.71 931.5,-478.11"/>
<polygon fill="black" stroke="black" points="935,-478.1 931.5,-468.1 928,-478.1 935,-478.1"/>
</g>
<!-- ast.If object at 0x70a7964fb610 -->
<g id="node59" class="node">
<title>ast.If object at 0x70a7964fb610</title>
<path fill="#66cdaa" stroke="black" d="M1220.5,-468C1220.5,-468 1190.5,-468 1190.5,-468 1184.5,-468 1178.5,-462 1178.5,-456 1178.5,-456 1178.5,-444 1178.5,-444 1178.5,-438 1184.5,-432 1190.5,-432 1190.5,-432 1220.5,-432 1220.5,-432 1226.5,-432 1232.5,-438 1232.5,-444 1232.5,-444 1232.5,-456 1232.5,-456 1232.5,-462 1226.5,-468 1220.5,-468"/>
<text text-anchor="middle" x="1205.5" y="-446.3" font-family="Times,serif" font-size="14.00">If</text>
</g>
<!-- ast.For object at 0x70a7964f24d0&#45;&gt;ast.If object at 0x70a7964fb610 -->
<g id="edge82" class="edge">
<title>ast.For object at 0x70a7964f24d0&#45;&gt;ast.If object at 0x70a7964fb610</title>
<path fill="none" stroke="black" d="M958.77,-514.03C1008.22,-501.4 1112.69,-474.71 1168.5,-460.45"/>
<polygon fill="black" stroke="black" points="1169.51,-463.81 1178.34,-457.94 1167.78,-457.02 1169.51,-463.81"/>
</g>
<!-- ast.Name object at 0x70a7964f1f90&#45;&gt;ast.Store object at 0x70a797db5990 -->
<g id="edge65" class="edge">
<title>ast.Name object at 0x70a7964f1f90&#45;&gt;ast.Store object at 0x70a797db5990</title>
<path fill="none" stroke="black" d="M745.31,-440.24C719,-431.15 678.5,-415.54 646.5,-396 645.96,-395.67 599.99,-357.03 568.77,-330.78"/>
<polygon fill="black" stroke="black" points="570.7,-327.83 560.8,-324.07 566.2,-333.19 570.7,-327.83"/>
</g>
<!-- ast.Attribute object at 0x70a7964f0410 -->
<g id="node50" class="node">
<title>ast.Attribute object at 0x70a7964f0410</title>
<path fill="#66cdaa" stroke="black" d="M960,-252C960,-252 919,-252 919,-252 913,-252 907,-246 907,-240 907,-240 907,-228 907,-228 907,-222 913,-216 919,-216 919,-216 960,-216 960,-216 966,-216 972,-222 972,-228 972,-228 972,-240 972,-240 972,-246 966,-252 960,-252"/>
<text text-anchor="middle" x="939.5" y="-230.3" font-family="Times,serif" font-size="14.00">Attribute</text>
</g>
<!-- ast.Call object at 0x70a7964f2bd0&#45;&gt;ast.Attribute object at 0x70a7964f0410 -->
<g id="edge67" class="edge">
<title>ast.Call object at 0x70a7964f2bd0&#45;&gt;ast.Attribute object at 0x70a7964f0410</title>
<path fill="none" stroke="black" d="M939.5,-287.7C939.5,-279.98 939.5,-270.71 939.5,-262.11"/>
<polygon fill="black" stroke="black" points="943,-262.1 939.5,-252.1 936,-262.1 943,-262.1"/>
</g>
<!-- ast.Name object at 0x70a7961f2790 -->
<g id="node52" class="node">
<title>ast.Name object at 0x70a7961f2790</title>
<path fill="#66cdaa" stroke="black" d="M1035.5,-252C1035.5,-252 1005.5,-252 1005.5,-252 999.5,-252 993.5,-246 993.5,-240 993.5,-240 993.5,-228 993.5,-228 993.5,-222 999.5,-216 1005.5,-216 1005.5,-216 1035.5,-216 1035.5,-216 1041.5,-216 1047.5,-222 1047.5,-228 1047.5,-228 1047.5,-240 1047.5,-240 1047.5,-246 1041.5,-252 1035.5,-252"/>
<text text-anchor="middle" x="1020.5" y="-230.3" font-family="Times,serif" font-size="14.00">Name</text>
</g>
<!-- ast.Call object at 0x70a7964f2bd0&#45;&gt;ast.Name object at 0x70a7961f2790 -->
<g id="edge71" class="edge">
<title>ast.Call object at 0x70a7964f2bd0&#45;&gt;ast.Name object at 0x70a7961f2790</title>
<path fill="none" stroke="black" d="M959.52,-287.7C969.63,-278.97 982.04,-268.24 993.02,-258.75"/>
<polygon fill="black" stroke="black" points="995.43,-261.29 1000.71,-252.1 990.85,-255.99 995.43,-261.29"/>
</g>
<!-- ast.Attribute object at 0x70a7964f0410&#45;&gt;ast.Load object at 0x70a797db5910 -->
<g id="edge70" class="edge">
<title>ast.Attribute object at 0x70a7964f0410&#45;&gt;ast.Load object at 0x70a797db5910</title>
<path fill="none" stroke="black" d="M937.8,-215.85C935.2,-196.82 928.81,-165.9 913.5,-144 904.18,-130.67 890.42,-119.37 877.42,-110.67"/>
<polygon fill="black" stroke="black" points="878.92,-107.48 868.61,-105.07 875.17,-113.39 878.92,-107.48"/>
</g>
<!-- ast.Name object at 0x70a79645db50 -->
<g id="node51" class="node">
<title>ast.Name object at 0x70a79645db50</title>
<path fill="#66cdaa" stroke="black" d="M1002.5,-180C1002.5,-180 972.5,-180 972.5,-180 966.5,-180 960.5,-174 960.5,-168 960.5,-168 960.5,-156 960.5,-156 960.5,-150 966.5,-144 972.5,-144 972.5,-144 1002.5,-144 1002.5,-144 1008.5,-144 1014.5,-150 1014.5,-156 1014.5,-156 1014.5,-168 1014.5,-168 1014.5,-174 1008.5,-180 1002.5,-180"/>
<text text-anchor="middle" x="987.5" y="-158.3" font-family="Times,serif" font-size="14.00">Name</text>
</g>
<!-- ast.Attribute object at 0x70a7964f0410&#45;&gt;ast.Name object at 0x70a79645db50 -->
<g id="edge68" class="edge">
<title>ast.Attribute object at 0x70a7964f0410&#45;&gt;ast.Name object at 0x70a79645db50</title>
<path fill="none" stroke="black" d="M951.37,-215.7C957,-207.47 963.85,-197.48 970.07,-188.42"/>
<polygon fill="black" stroke="black" points="973,-190.33 975.77,-180.1 967.23,-186.37 973,-190.33"/>
</g>
<!-- ast.Name object at 0x70a79645db50&#45;&gt;ast.Load object at 0x70a797db5910 -->
<g id="edge69" class="edge">
<title>ast.Name object at 0x70a79645db50&#45;&gt;ast.Load object at 0x70a797db5910</title>
<path fill="none" stroke="black" d="M960.38,-148C937.17,-136.87 903.56,-120.75 877.99,-108.5"/>
<polygon fill="black" stroke="black" points="879.5,-105.34 868.97,-104.17 876.47,-111.65 879.5,-105.34"/>
</g>
<!-- ast.Name object at 0x70a7961f2790&#45;&gt;ast.Load object at 0x70a797db5910 -->
<g id="edge72" class="edge">
<title>ast.Name object at 0x70a7961f2790&#45;&gt;ast.Load object at 0x70a797db5910</title>
<path fill="none" stroke="black" d="M1026.95,-215.7C1033,-196.23 1039,-164.65 1023.5,-144 1006.11,-120.82 926.54,-104.46 878.55,-96.5"/>
<polygon fill="black" stroke="black" points="878.97,-93.02 868.54,-94.88 877.85,-99.93 878.97,-93.02"/>
</g>
<!-- ast.Name object at 0x70a796d69b90 -->
<g id="node54" class="node">
<title>ast.Name object at 0x70a796d69b90</title>
<path fill="#66cdaa" stroke="black" d="M697.5,-396C697.5,-396 667.5,-396 667.5,-396 661.5,-396 655.5,-390 655.5,-384 655.5,-384 655.5,-372 655.5,-372 655.5,-366 661.5,-360 667.5,-360 667.5,-360 697.5,-360 697.5,-360 703.5,-360 709.5,-366 709.5,-372 709.5,-372 709.5,-384 709.5,-384 709.5,-390 703.5,-396 697.5,-396"/>
<text text-anchor="middle" x="682.5" y="-374.3" font-family="Times,serif" font-size="14.00">Name</text>
</g>
<!-- ast.Assign object at 0x70a6e814e410&#45;&gt;ast.Name object at 0x70a796d69b90 -->
<g id="edge74" class="edge">
<title>ast.Assign object at 0x70a6e814e410&#45;&gt;ast.Name object at 0x70a796d69b90</title>
<path fill="none" stroke="black" d="M904.43,-444.05C865.24,-436.5 790.44,-420.67 719.33,-395.95"/>
<polygon fill="black" stroke="black" points="720.38,-392.6 709.78,-392.56 718.04,-399.2 720.38,-392.6"/>
</g>
<!-- ast.Call object at 0x70a7964fb1d0 -->
<g id="node55" class="node">
<title>ast.Call object at 0x70a7964fb1d0</title>
<path fill="#66cdaa" stroke="black" d="M1109.5,-252C1109.5,-252 1079.5,-252 1079.5,-252 1073.5,-252 1067.5,-246 1067.5,-240 1067.5,-240 1067.5,-228 1067.5,-228 1067.5,-222 1073.5,-216 1079.5,-216 1079.5,-216 1109.5,-216 1109.5,-216 1115.5,-216 1121.5,-222 1121.5,-228 1121.5,-228 1121.5,-240 1121.5,-240 1121.5,-246 1115.5,-252 1109.5,-252"/>
<text text-anchor="middle" x="1094.5" y="-230.3" font-family="Times,serif" font-size="14.00">Call</text>
</g>
<!-- ast.Assign object at 0x70a6e814e410&#45;&gt;ast.Call object at 0x70a7964fb1d0 -->
<g id="edge76" class="edge">
<title>ast.Assign object at 0x70a6e814e410&#45;&gt;ast.Call object at 0x70a7964fb1d0</title>
<path fill="none" stroke="black" d="M944.56,-431.85C973.18,-394.28 1041.51,-304.58 1075.13,-260.43"/>
<polygon fill="black" stroke="black" points="1078.1,-262.31 1081.37,-252.23 1072.53,-258.07 1078.1,-262.31"/>
</g>
<!-- ast.Name object at 0x70a796d69b90&#45;&gt;ast.Store object at 0x70a797db5990 -->
<g id="edge75" class="edge">
<title>ast.Name object at 0x70a796d69b90&#45;&gt;ast.Store object at 0x70a797db5990</title>
<path fill="none" stroke="black" d="M655.46,-363.67C633.19,-352.69 601.43,-337.03 576.93,-324.96"/>
<polygon fill="black" stroke="black" points="578.44,-321.8 567.93,-320.52 575.35,-328.08 578.44,-321.8"/>
</g>
<!-- ast.Attribute object at 0x70a7964fb8d0 -->
<g id="node56" class="node">
<title>ast.Attribute object at 0x70a7964fb8d0</title>
<path fill="#66cdaa" stroke="black" d="M1454,-180C1454,-180 1413,-180 1413,-180 1407,-180 1401,-174 1401,-168 1401,-168 1401,-156 1401,-156 1401,-150 1407,-144 1413,-144 1413,-144 1454,-144 1454,-144 1460,-144 1466,-150 1466,-156 1466,-156 1466,-168 1466,-168 1466,-174 1460,-180 1454,-180"/>
<text text-anchor="middle" x="1433.5" y="-158.3" font-family="Times,serif" font-size="14.00">Attribute</text>
</g>
<!-- ast.Call object at 0x70a7964fb1d0&#45;&gt;ast.Attribute object at 0x70a7964fb8d0 -->
<g id="edge77" class="edge">
<title>ast.Call object at 0x70a7964fb1d0&#45;&gt;ast.Attribute object at 0x70a7964fb8d0</title>
<path fill="none" stroke="black" d="M1121.68,-219.12C1124.61,-217.94 1127.59,-216.87 1130.5,-216 1239.67,-183.53 1276.36,-208.74 1390.9,-179.73"/>
<polygon fill="black" stroke="black" points="1391.96,-183.07 1400.75,-177.15 1390.19,-176.3 1391.96,-183.07"/>
</g>
<!-- ast.Name object at 0x70a7964fb010 -->
<g id="node58" class="node">
<title>ast.Name object at 0x70a7964fb010</title>
<path fill="#66cdaa" stroke="black" d="M1112.5,-180C1112.5,-180 1082.5,-180 1082.5,-180 1076.5,-180 1070.5,-174 1070.5,-168 1070.5,-168 1070.5,-156 1070.5,-156 1070.5,-150 1076.5,-144 1082.5,-144 1082.5,-144 1112.5,-144 1112.5,-144 1118.5,-144 1124.5,-150 1124.5,-156 1124.5,-156 1124.5,-168 1124.5,-168 1124.5,-174 1118.5,-180 1112.5,-180"/>
<text text-anchor="middle" x="1097.5" y="-158.3" font-family="Times,serif" font-size="14.00">Name</text>
</g>
<!-- ast.Call object at 0x70a7964fb1d0&#45;&gt;ast.Name object at 0x70a7964fb010 -->
<g id="edge80" class="edge">
<title>ast.Call object at 0x70a7964fb1d0&#45;&gt;ast.Name object at 0x70a7964fb010</title>
<path fill="none" stroke="black" d="M1095.24,-215.7C1095.57,-207.98 1095.97,-198.71 1096.34,-190.11"/>
<polygon fill="black" stroke="black" points="1099.84,-190.25 1096.77,-180.1 1092.84,-189.95 1099.84,-190.25"/>
</g>
<!-- ast.Attribute object at 0x70a7964fb8d0&#45;&gt;ast.Load object at 0x70a797db5910 -->
<g id="edge79" class="edge">
<title>ast.Attribute object at 0x70a7964fb8d0&#45;&gt;ast.Load object at 0x70a797db5910</title>
<path fill="none" stroke="black" d="M1400.78,-146.72C1397.68,-145.68 1394.56,-144.75 1391.5,-144 1202.81,-97.76 968.46,-91.51 878.78,-90.92"/>
<polygon fill="black" stroke="black" points="878.59,-87.42 868.57,-90.87 878.56,-94.42 878.59,-87.42"/>
</g>
<!-- ast.Constant object at 0x70a7964fb990 -->
<g id="node57" class="node">
<title>ast.Constant object at 0x70a7964fb990</title>
<path fill="#66cdaa" stroke="black" d="M1451,-108C1451,-108 1410,-108 1410,-108 1404,-108 1398,-102 1398,-96 1398,-96 1398,-84 1398,-84 1398,-78 1404,-72 1410,-72 1410,-72 1451,-72 1451,-72 1457,-72 1463,-78 1463,-84 1463,-84 1463,-96 1463,-96 1463,-102 1457,-108 1451,-108"/>
<text text-anchor="middle" x="1430.5" y="-86.3" font-family="Times,serif" font-size="14.00">Constant</text>
</g>
<!-- ast.Attribute object at 0x70a7964fb8d0&#45;&gt;ast.Constant object at 0x70a7964fb990 -->
<g id="edge78" class="edge">
<title>ast.Attribute object at 0x70a7964fb8d0&#45;&gt;ast.Constant object at 0x70a7964fb990</title>
<path fill="none" stroke="black" d="M1432.76,-143.7C1432.43,-135.98 1432.03,-126.71 1431.66,-118.11"/>
<polygon fill="black" stroke="black" points="1435.16,-117.95 1431.23,-108.1 1428.16,-118.25 1435.16,-117.95"/>
</g>
<!-- ast.Name object at 0x70a7964fb010&#45;&gt;ast.Load object at 0x70a797db5910 -->
<g id="edge81" class="edge">
<title>ast.Name object at 0x70a7964fb010&#45;&gt;ast.Load object at 0x70a797db5910</title>
<path fill="none" stroke="black" d="M1070.37,-149.08C1065.78,-147.26 1061.04,-145.49 1056.5,-144 995.26,-123.88 922.01,-107.38 878.75,-98.39"/>
<polygon fill="black" stroke="black" points="879.18,-94.91 868.68,-96.32 877.78,-101.76 879.18,-94.91"/>
</g>
<!-- ast.Compare object at 0x70a7964fb690 -->
<g id="node60" class="node">
<title>ast.Compare object at 0x70a7964fb690</title>
<path fill="#66cdaa" stroke="black" d="M1416,-324C1416,-324 1373,-324 1373,-324 1367,-324 1361,-318 1361,-312 1361,-312 1361,-300 1361,-300 1361,-294 1367,-288 1373,-288 1373,-288 1416,-288 1416,-288 1422,-288 1428,-294 1428,-300 1428,-300 1428,-312 1428,-312 1428,-318 1422,-324 1416,-324"/>
<text text-anchor="middle" x="1394.5" y="-302.3" font-family="Times,serif" font-size="14.00">Compare</text>
</g>
<!-- ast.If object at 0x70a7964fb610&#45;&gt;ast.Compare object at 0x70a7964fb690 -->
<g id="edge83" class="edge">
<title>ast.If object at 0x70a7964fb610&#45;&gt;ast.Compare object at 0x70a7964fb690</title>
<path fill="none" stroke="black" d="M1228.3,-431.87C1262.07,-406.5 1325.48,-358.85 1363.46,-330.32"/>
<polygon fill="black" stroke="black" points="1365.73,-332.99 1371.62,-324.19 1361.52,-327.4 1365.73,-332.99"/>
</g>
<!-- ast.Expr object at 0x70a7964fda50 -->
<g id="node69" class="node">
<title>ast.Expr object at 0x70a7964fda50</title>
<path fill="#66cdaa" stroke="black" d="M1220.5,-396C1220.5,-396 1190.5,-396 1190.5,-396 1184.5,-396 1178.5,-390 1178.5,-384 1178.5,-384 1178.5,-372 1178.5,-372 1178.5,-366 1184.5,-360 1190.5,-360 1190.5,-360 1220.5,-360 1220.5,-360 1226.5,-360 1232.5,-366 1232.5,-372 1232.5,-372 1232.5,-384 1232.5,-384 1232.5,-390 1226.5,-396 1220.5,-396"/>
<text text-anchor="middle" x="1205.5" y="-374.3" font-family="Times,serif" font-size="14.00">Expr</text>
</g>
<!-- ast.If object at 0x70a7964fb610&#45;&gt;ast.Expr object at 0x70a7964fda50 -->
<g id="edge95" class="edge">
<title>ast.If object at 0x70a7964fb610&#45;&gt;ast.Expr object at 0x70a7964fda50</title>
<path fill="none" stroke="black" d="M1205.5,-431.7C1205.5,-423.98 1205.5,-414.71 1205.5,-406.11"/>
<polygon fill="black" stroke="black" points="1209,-406.1 1205.5,-396.1 1202,-406.1 1209,-406.1"/>
</g>
<!-- ast.Name object at 0x70a7964fb6d0 -->
<g id="node61" class="node">
<title>ast.Name object at 0x70a7964fb6d0</title>
<path fill="#66cdaa" stroke="black" d="M1449.5,-252C1449.5,-252 1419.5,-252 1419.5,-252 1413.5,-252 1407.5,-246 1407.5,-240 1407.5,-240 1407.5,-228 1407.5,-228 1407.5,-222 1413.5,-216 1419.5,-216 1419.5,-216 1449.5,-216 1449.5,-216 1455.5,-216 1461.5,-222 1461.5,-228 1461.5,-228 1461.5,-240 1461.5,-240 1461.5,-246 1455.5,-252 1449.5,-252"/>
<text text-anchor="middle" x="1434.5" y="-230.3" font-family="Times,serif" font-size="14.00">Name</text>
</g>
<!-- ast.Compare object at 0x70a7964fb690&#45;&gt;ast.Name object at 0x70a7964fb6d0 -->
<g id="edge84" class="edge">
<title>ast.Compare object at 0x70a7964fb690&#45;&gt;ast.Name object at 0x70a7964fb6d0</title>
<path fill="none" stroke="black" d="M1404.39,-287.7C1408.99,-279.64 1414.56,-269.89 1419.65,-260.98"/>
<polygon fill="black" stroke="black" points="1422.8,-262.52 1424.73,-252.1 1416.73,-259.05 1422.8,-262.52"/>
</g>
<!-- ast.Eq object at 0x70a797db6910 -->
<g id="node62" class="node">
<title>ast.Eq object at 0x70a797db6910</title>
<path fill="#66cdaa" stroke="black" d="M1521.5,-252C1521.5,-252 1491.5,-252 1491.5,-252 1485.5,-252 1479.5,-246 1479.5,-240 1479.5,-240 1479.5,-228 1479.5,-228 1479.5,-222 1485.5,-216 1491.5,-216 1491.5,-216 1521.5,-216 1521.5,-216 1527.5,-216 1533.5,-222 1533.5,-228 1533.5,-228 1533.5,-240 1533.5,-240 1533.5,-246 1527.5,-252 1521.5,-252"/>
<text text-anchor="middle" x="1506.5" y="-230.3" font-family="Times,serif" font-size="14.00">Eq</text>
</g>
<!-- ast.Compare object at 0x70a7964fb690&#45;&gt;ast.Eq object at 0x70a797db6910 -->
<g id="edge86" class="edge">
<title>ast.Compare object at 0x70a7964fb690&#45;&gt;ast.Eq object at 0x70a797db6910</title>
<path fill="none" stroke="black" d="M1421.9,-287.88C1436.65,-278.66 1455.03,-267.17 1470.88,-257.26"/>
<polygon fill="black" stroke="black" points="1472.76,-260.22 1479.38,-251.95 1469.05,-254.28 1472.76,-260.22"/>
</g>
<!-- ast.Subscript object at 0x70a7964fb850 -->
<g id="node63" class="node">
<title>ast.Subscript object at 0x70a7964fb850</title>
<path fill="#66cdaa" stroke="black" d="M1377.5,-252C1377.5,-252 1333.5,-252 1333.5,-252 1327.5,-252 1321.5,-246 1321.5,-240 1321.5,-240 1321.5,-228 1321.5,-228 1321.5,-222 1327.5,-216 1333.5,-216 1333.5,-216 1377.5,-216 1377.5,-216 1383.5,-216 1389.5,-222 1389.5,-228 1389.5,-228 1389.5,-240 1389.5,-240 1389.5,-246 1383.5,-252 1377.5,-252"/>
<text text-anchor="middle" x="1355.5" y="-230.3" font-family="Times,serif" font-size="14.00">Subscript</text>
</g>
<!-- ast.Compare object at 0x70a7964fb690&#45;&gt;ast.Subscript object at 0x70a7964fb850 -->
<g id="edge87" class="edge">
<title>ast.Compare object at 0x70a7964fb690&#45;&gt;ast.Subscript object at 0x70a7964fb850</title>
<path fill="none" stroke="black" d="M1384.86,-287.7C1380.37,-279.64 1374.94,-269.89 1369.98,-260.98"/>
<polygon fill="black" stroke="black" points="1372.95,-259.14 1365.03,-252.1 1366.84,-262.54 1372.95,-259.14"/>
</g>
<!-- ast.Name object at 0x70a7964fb6d0&#45;&gt;ast.Load object at 0x70a797db5910 -->
<g id="edge85" class="edge">
<title>ast.Name object at 0x70a7964fb6d0&#45;&gt;ast.Load object at 0x70a797db5910</title>
<path fill="none" stroke="black" d="M1461.62,-220.18C1464.62,-218.77 1467.62,-217.35 1470.5,-216 1504.69,-199.93 1527.22,-211.87 1547.5,-180 1556.09,-166.5 1558.38,-155.73 1547.5,-144 1501.77,-94.71 1018.48,-90.96 878.99,-90.91"/>
<polygon fill="black" stroke="black" points="878.8,-87.41 868.81,-90.91 878.81,-94.41 878.8,-87.41"/>
</g>
<!-- ast.Subscript object at 0x70a7964fb850&#45;&gt;ast.Load object at 0x70a797db5910 -->
<g id="edge94" class="edge">
<title>ast.Subscript object at 0x70a7964fb850&#45;&gt;ast.Load object at 0x70a797db5910</title>
<path fill="none" stroke="black" d="M1343.45,-215.63C1326.85,-192.24 1297.21,-152.55 1281.5,-144 1212.28,-106.32 972.09,-95.01 878.88,-91.99"/>
<polygon fill="black" stroke="black" points="878.88,-88.49 868.78,-91.68 878.66,-95.48 878.88,-88.49"/>
</g>
<!-- ast.Name object at 0x70a7964fb2d0 -->
<g id="node64" class="node">
<title>ast.Name object at 0x70a7964fb2d0</title>
<path fill="#66cdaa" stroke="black" d="M1370.5,-180C1370.5,-180 1340.5,-180 1340.5,-180 1334.5,-180 1328.5,-174 1328.5,-168 1328.5,-168 1328.5,-156 1328.5,-156 1328.5,-150 1334.5,-144 1340.5,-144 1340.5,-144 1370.5,-144 1370.5,-144 1376.5,-144 1382.5,-150 1382.5,-156 1382.5,-156 1382.5,-168 1382.5,-168 1382.5,-174 1376.5,-180 1370.5,-180"/>
<text text-anchor="middle" x="1355.5" y="-158.3" font-family="Times,serif" font-size="14.00">Name</text>
</g>
<!-- ast.Subscript object at 0x70a7964fb850&#45;&gt;ast.Name object at 0x70a7964fb2d0 -->
<g id="edge88" class="edge">
<title>ast.Subscript object at 0x70a7964fb850&#45;&gt;ast.Name object at 0x70a7964fb2d0</title>
<path fill="none" stroke="black" d="M1355.5,-215.7C1355.5,-207.98 1355.5,-198.71 1355.5,-190.11"/>
<polygon fill="black" stroke="black" points="1359,-190.1 1355.5,-180.1 1352,-190.1 1359,-190.1"/>
</g>
<!-- ast.Slice object at 0x70a796a06850 -->
<g id="node65" class="node">
<title>ast.Slice object at 0x70a796a06850</title>
<path fill="#66cdaa" stroke="black" d="M1526.5,-180C1526.5,-180 1496.5,-180 1496.5,-180 1490.5,-180 1484.5,-174 1484.5,-168 1484.5,-168 1484.5,-156 1484.5,-156 1484.5,-150 1490.5,-144 1496.5,-144 1496.5,-144 1526.5,-144 1526.5,-144 1532.5,-144 1538.5,-150 1538.5,-156 1538.5,-156 1538.5,-168 1538.5,-168 1538.5,-174 1532.5,-180 1526.5,-180"/>
<text text-anchor="middle" x="1511.5" y="-158.3" font-family="Times,serif" font-size="14.00">Slice</text>
</g>
<!-- ast.Subscript object at 0x70a7964fb850&#45;&gt;ast.Slice object at 0x70a796a06850 -->
<g id="edge90" class="edge">
<title>ast.Subscript object at 0x70a7964fb850&#45;&gt;ast.Slice object at 0x70a796a06850</title>
<path fill="none" stroke="black" d="M1389.74,-218.15C1411.83,-208.51 1441.37,-195.51 1475.23,-180.08"/>
<polygon fill="black" stroke="black" points="1476.77,-183.22 1484.41,-175.88 1473.86,-176.86 1476.77,-183.22"/>
</g>
<!-- ast.Name object at 0x70a7964fb2d0&#45;&gt;ast.Load object at 0x70a797db5910 -->
<g id="edge89" class="edge">
<title>ast.Name object at 0x70a7964fb2d0&#45;&gt;ast.Load object at 0x70a797db5910</title>
<path fill="none" stroke="black" d="M1328.07,-148.39C1323.61,-146.7 1318.98,-145.15 1314.5,-144 1155.99,-103.13 959.55,-93.78 878.81,-91.64"/>
<polygon fill="black" stroke="black" points="878.73,-88.13 868.65,-91.39 878.56,-95.13 878.73,-88.13"/>
</g>
<!-- ast.UnaryOp object at 0x70a7964ffa10 -->
<g id="node66" class="node">
<title>ast.UnaryOp object at 0x70a7964ffa10</title>
<path fill="#66cdaa" stroke="black" d="M1536,-108C1536,-108 1493,-108 1493,-108 1487,-108 1481,-102 1481,-96 1481,-96 1481,-84 1481,-84 1481,-78 1487,-72 1493,-72 1493,-72 1536,-72 1536,-72 1542,-72 1548,-78 1548,-84 1548,-84 1548,-96 1548,-96 1548,-102 1542,-108 1536,-108"/>
<text text-anchor="middle" x="1514.5" y="-86.3" font-family="Times,serif" font-size="14.00">UnaryOp</text>
</g>
<!-- ast.Slice object at 0x70a796a06850&#45;&gt;ast.UnaryOp object at 0x70a7964ffa10 -->
<g id="edge91" class="edge">
<title>ast.Slice object at 0x70a796a06850&#45;&gt;ast.UnaryOp object at 0x70a7964ffa10</title>
<path fill="none" stroke="black" d="M1512.24,-143.7C1512.57,-135.98 1512.97,-126.71 1513.34,-118.11"/>
<polygon fill="black" stroke="black" points="1516.84,-118.25 1513.77,-108.1 1509.84,-117.95 1516.84,-118.25"/>
</g>
<!-- ast.USub object at 0x70a797db6790 -->
<g id="node67" class="node">
<title>ast.USub object at 0x70a797db6790</title>
<path fill="#66cdaa" stroke="black" d="M1490.5,-36C1490.5,-36 1460.5,-36 1460.5,-36 1454.5,-36 1448.5,-30 1448.5,-24 1448.5,-24 1448.5,-12 1448.5,-12 1448.5,-6 1454.5,0 1460.5,0 1460.5,0 1490.5,0 1490.5,0 1496.5,0 1502.5,-6 1502.5,-12 1502.5,-12 1502.5,-24 1502.5,-24 1502.5,-30 1496.5,-36 1490.5,-36"/>
<text text-anchor="middle" x="1475.5" y="-14.3" font-family="Times,serif" font-size="14.00">USub</text>
</g>
<!-- ast.UnaryOp object at 0x70a7964ffa10&#45;&gt;ast.USub object at 0x70a797db6790 -->
<g id="edge92" class="edge">
<title>ast.UnaryOp object at 0x70a7964ffa10&#45;&gt;ast.USub object at 0x70a797db6790</title>
<path fill="none" stroke="black" d="M1504.86,-71.7C1500.37,-63.64 1494.94,-53.89 1489.98,-44.98"/>
<polygon fill="black" stroke="black" points="1492.95,-43.14 1485.03,-36.1 1486.84,-46.54 1492.95,-43.14"/>
</g>
<!-- ast.Constant object at 0x70a7964fd110 -->
<g id="node68" class="node">
<title>ast.Constant object at 0x70a7964fd110</title>
<path fill="#66cdaa" stroke="black" d="M1574,-36C1574,-36 1533,-36 1533,-36 1527,-36 1521,-30 1521,-24 1521,-24 1521,-12 1521,-12 1521,-6 1527,0 1533,0 1533,0 1574,0 1574,0 1580,0 1586,-6 1586,-12 1586,-12 1586,-24 1586,-24 1586,-30 1580,-36 1574,-36"/>
<text text-anchor="middle" x="1553.5" y="-14.3" font-family="Times,serif" font-size="14.00">Constant</text>
</g>
<!-- ast.UnaryOp object at 0x70a7964ffa10&#45;&gt;ast.Constant object at 0x70a7964fd110 -->
<g id="edge93" class="edge">
<title>ast.UnaryOp object at 0x70a7964ffa10&#45;&gt;ast.Constant object at 0x70a7964fd110</title>
<path fill="none" stroke="black" d="M1524.14,-71.7C1528.63,-63.64 1534.06,-53.89 1539.02,-44.98"/>
<polygon fill="black" stroke="black" points="1542.16,-46.54 1543.97,-36.1 1536.05,-43.14 1542.16,-46.54"/>
</g>
<!-- ast.Call object at 0x70a7964fdcd0 -->
<g id="node70" class="node">
<title>ast.Call object at 0x70a7964fdcd0</title>
<path fill="#66cdaa" stroke="black" d="M1220.5,-324C1220.5,-324 1190.5,-324 1190.5,-324 1184.5,-324 1178.5,-318 1178.5,-312 1178.5,-312 1178.5,-300 1178.5,-300 1178.5,-294 1184.5,-288 1190.5,-288 1190.5,-288 1220.5,-288 1220.5,-288 1226.5,-288 1232.5,-294 1232.5,-300 1232.5,-300 1232.5,-312 1232.5,-312 1232.5,-318 1226.5,-324 1220.5,-324"/>
<text text-anchor="middle" x="1205.5" y="-302.3" font-family="Times,serif" font-size="14.00">Call</text>
</g>
<!-- ast.Expr object at 0x70a7964fda50&#45;&gt;ast.Call object at 0x70a7964fdcd0 -->
<g id="edge96" class="edge">
<title>ast.Expr object at 0x70a7964fda50&#45;&gt;ast.Call object at 0x70a7964fdcd0</title>
<path fill="none" stroke="black" d="M1205.5,-359.7C1205.5,-351.98 1205.5,-342.71 1205.5,-334.11"/>
<polygon fill="black" stroke="black" points="1209,-334.1 1205.5,-324.1 1202,-334.1 1209,-334.1"/>
</g>
<!-- ast.Attribute object at 0x70a7964fdd90 -->
<g id="node71" class="node">
<title>ast.Attribute object at 0x70a7964fdd90</title>
<path fill="#66cdaa" stroke="black" d="M1265,-252C1265,-252 1224,-252 1224,-252 1218,-252 1212,-246 1212,-240 1212,-240 1212,-228 1212,-228 1212,-222 1218,-216 1224,-216 1224,-216 1265,-216 1265,-216 1271,-216 1277,-222 1277,-228 1277,-228 1277,-240 1277,-240 1277,-246 1271,-252 1265,-252"/>
<text text-anchor="middle" x="1244.5" y="-230.3" font-family="Times,serif" font-size="14.00">Attribute</text>
</g>
<!-- ast.Call object at 0x70a7964fdcd0&#45;&gt;ast.Attribute object at 0x70a7964fdd90 -->
<g id="edge97" class="edge">
<title>ast.Call object at 0x70a7964fdcd0&#45;&gt;ast.Attribute object at 0x70a7964fdd90</title>
<path fill="none" stroke="black" d="M1215.14,-287.7C1219.63,-279.64 1225.06,-269.89 1230.02,-260.98"/>
<polygon fill="black" stroke="black" points="1233.16,-262.54 1234.97,-252.1 1227.05,-259.14 1233.16,-262.54"/>
</g>
<!-- ast.Name object at 0x70a7964fcf10 -->
<g id="node73" class="node">
<title>ast.Name object at 0x70a7964fcf10</title>
<path fill="#66cdaa" stroke="black" d="M1181.5,-252C1181.5,-252 1151.5,-252 1151.5,-252 1145.5,-252 1139.5,-246 1139.5,-240 1139.5,-240 1139.5,-228 1139.5,-228 1139.5,-222 1145.5,-216 1151.5,-216 1151.5,-216 1181.5,-216 1181.5,-216 1187.5,-216 1193.5,-222 1193.5,-228 1193.5,-228 1193.5,-240 1193.5,-240 1193.5,-246 1187.5,-252 1181.5,-252"/>
<text text-anchor="middle" x="1166.5" y="-230.3" font-family="Times,serif" font-size="14.00">Name</text>
</g>
<!-- ast.Call object at 0x70a7964fdcd0&#45;&gt;ast.Name object at 0x70a7964fcf10 -->
<g id="edge101" class="edge">
<title>ast.Call object at 0x70a7964fdcd0&#45;&gt;ast.Name object at 0x70a7964fcf10</title>
<path fill="none" stroke="black" d="M1195.86,-287.7C1191.37,-279.64 1185.94,-269.89 1180.98,-260.98"/>
<polygon fill="black" stroke="black" points="1183.95,-259.14 1176.03,-252.1 1177.84,-262.54 1183.95,-259.14"/>
</g>
<!-- ast.Attribute object at 0x70a7964fdd90&#45;&gt;ast.Load object at 0x70a797db5910 -->
<g id="edge100" class="edge">
<title>ast.Attribute object at 0x70a7964fdd90&#45;&gt;ast.Load object at 0x70a797db5910</title>
<path fill="none" stroke="black" d="M1233.11,-215.74C1218.47,-195.07 1191.02,-161.1 1158.5,-144 1110.37,-118.69 951.76,-101.2 878.81,-94.29"/>
<polygon fill="black" stroke="black" points="878.98,-90.79 868.69,-93.35 878.33,-97.76 878.98,-90.79"/>
</g>
<!-- ast.Name object at 0x70a7964fe790 -->
<g id="node72" class="node">
<title>ast.Name object at 0x70a7964fe790</title>
<path fill="#66cdaa" stroke="black" d="M1260.5,-180C1260.5,-180 1230.5,-180 1230.5,-180 1224.5,-180 1218.5,-174 1218.5,-168 1218.5,-168 1218.5,-156 1218.5,-156 1218.5,-150 1224.5,-144 1230.5,-144 1230.5,-144 1260.5,-144 1260.5,-144 1266.5,-144 1272.5,-150 1272.5,-156 1272.5,-156 1272.5,-168 1272.5,-168 1272.5,-174 1266.5,-180 1260.5,-180"/>
<text text-anchor="middle" x="1245.5" y="-158.3" font-family="Times,serif" font-size="14.00">Name</text>
</g>
<!-- ast.Attribute object at 0x70a7964fdd90&#45;&gt;ast.Name object at 0x70a7964fe790 -->
<g id="edge98" class="edge">
<title>ast.Attribute object at 0x70a7964fdd90&#45;&gt;ast.Name object at 0x70a7964fe790</title>
<path fill="none" stroke="black" d="M1244.75,-215.7C1244.86,-207.98 1244.99,-198.71 1245.11,-190.11"/>
<polygon fill="black" stroke="black" points="1248.61,-190.15 1245.26,-180.1 1241.61,-190.05 1248.61,-190.15"/>
</g>
<!-- ast.Name object at 0x70a7964fe790&#45;&gt;ast.Load object at 0x70a797db5910 -->
<g id="edge99" class="edge">
<title>ast.Name object at 0x70a7964fe790&#45;&gt;ast.Load object at 0x70a797db5910</title>
<path fill="none" stroke="black" d="M1218.48,-148.7C1213.89,-146.92 1209.11,-145.27 1204.5,-144 1088.23,-111.94 945.35,-98.31 878.84,-93.39"/>
<polygon fill="black" stroke="black" points="879.07,-89.89 868.84,-92.67 878.56,-96.88 879.07,-89.89"/>
</g>
<!-- ast.Name object at 0x70a7964fcf10&#45;&gt;ast.Load object at 0x70a797db5910 -->
<g id="edge102" class="edge">
<title>ast.Name object at 0x70a7964fcf10&#45;&gt;ast.Load object at 0x70a797db5910</title>
<path fill="none" stroke="black" d="M1165.1,-215.71C1162.48,-195.34 1154.97,-162 1133.5,-144 1095.38,-112.05 948.65,-98.14 878.83,-93.24"/>
<polygon fill="black" stroke="black" points="878.93,-89.74 868.71,-92.55 878.45,-96.72 878.93,-89.74"/>
</g>
<!-- ast.Name object at 0x70a7964ff790 -->
<g id="node75" class="node">
<title>ast.Name object at 0x70a7964ff790</title>
<path fill="#66cdaa" stroke="black" d="M854.5,-612C854.5,-612 824.5,-612 824.5,-612 818.5,-612 812.5,-606 812.5,-600 812.5,-600 812.5,-588 812.5,-588 812.5,-582 818.5,-576 824.5,-576 824.5,-576 854.5,-576 854.5,-576 860.5,-576 866.5,-582 866.5,-588 866.5,-588 866.5,-600 866.5,-600 866.5,-606 860.5,-612 854.5,-612"/>
<text text-anchor="middle" x="839.5" y="-590.3" font-family="Times,serif" font-size="14.00">Name</text>
</g>
<!-- ast.Return object at 0x70a7964fd5d0&#45;&gt;ast.Name object at 0x70a7964ff790 -->
<g id="edge104" class="edge">
<title>ast.Return object at 0x70a7964fd5d0&#45;&gt;ast.Name object at 0x70a7964ff790</title>
<path fill="none" stroke="black" d="M795.84,-647.7C802.79,-639.3 811.27,-629.07 818.9,-619.86"/>
<polygon fill="black" stroke="black" points="821.64,-622.04 825.33,-612.1 816.25,-617.57 821.64,-622.04"/>
</g>
<!-- ast.Name object at 0x70a7964ff790&#45;&gt;ast.Load object at 0x70a797db5910 -->
<g id="edge105" class="edge">
<title>ast.Name object at 0x70a7964ff790&#45;&gt;ast.Load object at 0x70a797db5910</title>
<path fill="none" stroke="black" d="M866.71,-579.22C869.63,-578.02 872.6,-576.91 875.5,-576 1032.25,-526.56 1604.5,-615.36 1604.5,-451 1604.5,-451 1604.5,-451 1604.5,-233 1604.5,-189.63 1600.03,-168.87 1564.5,-144 1508.04,-104.47 1018.88,-93.79 878.82,-91.52"/>
<polygon fill="black" stroke="black" points="878.65,-88.02 868.6,-91.36 878.54,-95.02 878.65,-88.02"/>
</g>
</g>
</svg>
