<?xml version="1.0" encoding="UTF-8" standalone="no"?>
<!DOCTYPE svg PUBLIC "-//W3C//DTD SVG 1.1//EN"
 "http://www.w3.org/Graphics/SVG/1.1/DTD/svg11.dtd">
<!-- Generated by graphviz version 2.50.0 (0)
 -->
<!-- Pages: 1 -->
<svg width="1350pt" height="692pt"
 viewBox="0.00 0.00 1350.07 692.00" xmlns="http://www.w3.org/2000/svg" xmlns:xlink="http://www.w3.org/1999/xlink">
<g id="graph0" class="graph" transform="scale(1 1) rotate(0) translate(4 688)">
<polygon fill="white" stroke="transparent" points="-4,4 -4,-688 1346.07,-688 1346.07,4 -4,4"/>
<!-- ast.Module object at 0x74c800fe3490 -->
<g id="node1" class="node">
<title>ast.Module object at 0x74c800fe3490</title>
<path fill="#66cdaa" stroke="black" d="M457,-684C457,-684 422,-684 422,-684 416,-684 410,-678 410,-672 410,-672 410,-660 410,-660 410,-654 416,-648 422,-648 422,-648 457,-648 457,-648 463,-648 469,-654 469,-660 469,-660 469,-672 469,-672 469,-678 463,-684 457,-684"/>
<text text-anchor="middle" x="439.5" y="-662.3" font-family="Times,serif" font-size="14.00">Module</text>
</g>
<!-- ast.ImportFrom object at 0x74c800fe2f50 -->
<g id="node2" class="node">
<title>ast.ImportFrom object at 0x74c800fe2f50</title>
<path fill="#66cdaa" stroke="black" d="M418.5,-612C418.5,-612 358.5,-612 358.5,-612 352.5,-612 346.5,-606 346.5,-600 346.5,-600 346.5,-588 346.5,-588 346.5,-582 352.5,-576 358.5,-576 358.5,-576 418.5,-576 418.5,-576 424.5,-576 430.5,-582 430.5,-588 430.5,-588 430.5,-600 430.5,-600 430.5,-606 424.5,-612 418.5,-612"/>
<text text-anchor="middle" x="388.5" y="-590.3" font-family="Times,serif" font-size="14.00">ImportFrom</text>
</g>
<!-- ast.Module object at 0x74c800fe3490&#45;&gt;ast.ImportFrom object at 0x74c800fe2f50 -->
<g id="edge1" class="edge">
<title>ast.Module object at 0x74c800fe3490&#45;&gt;ast.ImportFrom object at 0x74c800fe2f50</title>
<path fill="none" stroke="black" d="M426.89,-647.7C420.9,-639.47 413.62,-629.48 407.02,-620.42"/>
<polygon fill="black" stroke="black" points="409.68,-618.13 400.96,-612.1 404.02,-622.25 409.68,-618.13"/>
</g>
<!-- ast.FunctionDef object at 0x74c806587990 -->
<g id="node4" class="node">
<title>ast.FunctionDef object at 0x74c806587990</title>
<path fill="#66cdaa" stroke="black" d="M570,-612C570,-612 509,-612 509,-612 503,-612 497,-606 497,-600 497,-600 497,-588 497,-588 497,-582 503,-576 509,-576 509,-576 570,-576 570,-576 576,-576 582,-582 582,-588 582,-588 582,-600 582,-600 582,-606 576,-612 570,-612"/>
<text text-anchor="middle" x="539.5" y="-590.3" font-family="Times,serif" font-size="14.00">FunctionDef</text>
</g>
<!-- ast.Module object at 0x74c800fe3490&#45;&gt;ast.FunctionDef object at 0x74c806587990 -->
<g id="edge3" class="edge">
<title>ast.Module object at 0x74c800fe3490&#45;&gt;ast.FunctionDef object at 0x74c806587990</title>
<path fill="none" stroke="black" d="M463.96,-647.88C476.8,-638.89 492.7,-627.76 506.59,-618.03"/>
<polygon fill="black" stroke="black" points="508.76,-620.79 514.94,-612.19 504.74,-615.06 508.76,-620.79"/>
</g>
<!-- ast.alias object at 0x74c800fe2c10 -->
<g id="node3" class="node">
<title>ast.alias object at 0x74c800fe2c10</title>
<path fill="#66cdaa" stroke="black" d="M348.5,-540C348.5,-540 318.5,-540 318.5,-540 312.5,-540 306.5,-534 306.5,-528 306.5,-528 306.5,-516 306.5,-516 306.5,-510 312.5,-504 318.5,-504 318.5,-504 348.5,-504 348.5,-504 354.5,-504 360.5,-510 360.5,-516 360.5,-516 360.5,-528 360.5,-528 360.5,-534 354.5,-540 348.5,-540"/>
<text text-anchor="middle" x="333.5" y="-518.3" font-family="Times,serif" font-size="14.00">alias</text>
</g>
<!-- ast.ImportFrom object at 0x74c800fe2f50&#45;&gt;ast.alias object at 0x74c800fe2c10 -->
<g id="edge2" class="edge">
<title>ast.ImportFrom object at 0x74c800fe2f50&#45;&gt;ast.alias object at 0x74c800fe2c10</title>
<path fill="none" stroke="black" d="M374.9,-575.7C368.38,-567.39 360.43,-557.28 353.25,-548.14"/>
<polygon fill="black" stroke="black" points="355.87,-545.81 346.94,-540.1 350.37,-550.13 355.87,-545.81"/>
</g>
<!-- ast.arguments object at 0x74c800e26c10 -->
<g id="node5" class="node">
<title>ast.arguments object at 0x74c800e26c10</title>
<path fill="#66cdaa" stroke="black" d="M653.5,-540C653.5,-540 603.5,-540 603.5,-540 597.5,-540 591.5,-534 591.5,-528 591.5,-528 591.5,-516 591.5,-516 591.5,-510 597.5,-504 603.5,-504 603.5,-504 653.5,-504 653.5,-504 659.5,-504 665.5,-510 665.5,-516 665.5,-516 665.5,-528 665.5,-528 665.5,-534 659.5,-540 653.5,-540"/>
<text text-anchor="middle" x="628.5" y="-518.3" font-family="Times,serif" font-size="14.00">arguments</text>
</g>
<!-- ast.FunctionDef object at 0x74c806587990&#45;&gt;ast.arguments object at 0x74c800e26c10 -->
<g id="edge4" class="edge">
<title>ast.FunctionDef object at 0x74c806587990&#45;&gt;ast.arguments object at 0x74c800e26c10</title>
<path fill="none" stroke="black" d="M561.5,-575.7C572.71,-566.88 586.5,-556.03 598.65,-546.47"/>
<polygon fill="black" stroke="black" points="601.06,-549.04 606.75,-540.1 596.73,-543.54 601.06,-549.04"/>
</g>
<!-- ast.Assign object at 0x74c800d92c50 -->
<g id="node7" class="node">
<title>ast.Assign object at 0x74c800d92c50</title>
<path fill="#66cdaa" stroke="black" d="M554.5,-540C554.5,-540 524.5,-540 524.5,-540 518.5,-540 512.5,-534 512.5,-528 512.5,-528 512.5,-516 512.5,-516 512.5,-510 518.5,-504 524.5,-504 524.5,-504 554.5,-504 554.5,-504 560.5,-504 566.5,-510 566.5,-516 566.5,-516 566.5,-528 566.5,-528 566.5,-534 560.5,-540 554.5,-540"/>
<text text-anchor="middle" x="539.5" y="-518.3" font-family="Times,serif" font-size="14.00">Assign</text>
</g>
<!-- ast.FunctionDef object at 0x74c806587990&#45;&gt;ast.Assign object at 0x74c800d92c50 -->
<g id="edge6" class="edge">
<title>ast.FunctionDef object at 0x74c806587990&#45;&gt;ast.Assign object at 0x74c800d92c50</title>
<path fill="none" stroke="black" d="M539.5,-575.7C539.5,-567.98 539.5,-558.71 539.5,-550.11"/>
<polygon fill="black" stroke="black" points="543,-550.1 539.5,-540.1 536,-550.1 543,-550.1"/>
</g>
<!-- ast.Assign object at 0x74c800d93650 -->
<g id="node11" class="node">
<title>ast.Assign object at 0x74c800d93650</title>
<path fill="#66cdaa" stroke="black" d="M492.5,-468C492.5,-468 462.5,-468 462.5,-468 456.5,-468 450.5,-462 450.5,-456 450.5,-456 450.5,-444 450.5,-444 450.5,-438 456.5,-432 462.5,-432 462.5,-432 492.5,-432 492.5,-432 498.5,-432 504.5,-438 504.5,-444 504.5,-444 504.5,-456 504.5,-456 504.5,-462 498.5,-468 492.5,-468"/>
<text text-anchor="middle" x="477.5" y="-446.3" font-family="Times,serif" font-size="14.00">Assign</text>
</g>
<!-- ast.FunctionDef object at 0x74c806587990&#45;&gt;ast.Assign object at 0x74c800d93650 -->
<g id="edge10" class="edge">
<title>ast.FunctionDef object at 0x74c806587990&#45;&gt;ast.Assign object at 0x74c800d93650</title>
<path fill="none" stroke="black" d="M525.7,-575.69C518.29,-565.72 509.48,-552.68 503.5,-540 494.15,-520.16 487.39,-496.23 483.11,-478.18"/>
<polygon fill="black" stroke="black" points="486.49,-477.29 480.87,-468.31 479.67,-478.83 486.49,-477.29"/>
</g>
<!-- ast.For object at 0x74c800d93c90 -->
<g id="node17" class="node">
<title>ast.For object at 0x74c800d93c90</title>
<path fill="#66cdaa" stroke="black" d="M934.5,-540C934.5,-540 904.5,-540 904.5,-540 898.5,-540 892.5,-534 892.5,-528 892.5,-528 892.5,-516 892.5,-516 892.5,-510 898.5,-504 904.5,-504 904.5,-504 934.5,-504 934.5,-504 940.5,-504 946.5,-510 946.5,-516 946.5,-516 946.5,-528 946.5,-528 946.5,-534 940.5,-540 934.5,-540"/>
<text text-anchor="middle" x="919.5" y="-518.3" font-family="Times,serif" font-size="14.00">For</text>
</g>
<!-- ast.FunctionDef object at 0x74c806587990&#45;&gt;ast.For object at 0x74c800d93c90 -->
<g id="edge18" class="edge">
<title>ast.FunctionDef object at 0x74c806587990&#45;&gt;ast.For object at 0x74c800d93c90</title>
<path fill="none" stroke="black" d="M582.35,-585.11C657.31,-571.3 810.99,-542.99 882,-529.91"/>
<polygon fill="black" stroke="black" points="883.06,-533.27 892.26,-528.02 881.8,-526.39 883.06,-533.27"/>
</g>
<!-- ast.For object at 0x74c800d3e250 -->
<g id="node49" class="node">
<title>ast.For object at 0x74c800d3e250</title>
<path fill="#66cdaa" stroke="black" d="M420.5,-540C420.5,-540 390.5,-540 390.5,-540 384.5,-540 378.5,-534 378.5,-528 378.5,-528 378.5,-516 378.5,-516 378.5,-510 384.5,-504 390.5,-504 390.5,-504 420.5,-504 420.5,-504 426.5,-504 432.5,-510 432.5,-516 432.5,-516 432.5,-528 432.5,-528 432.5,-534 426.5,-540 420.5,-540"/>
<text text-anchor="middle" x="405.5" y="-518.3" font-family="Times,serif" font-size="14.00">For</text>
</g>
<!-- ast.FunctionDef object at 0x74c806587990&#45;&gt;ast.For object at 0x74c800d3e250 -->
<g id="edge66" class="edge">
<title>ast.FunctionDef object at 0x74c806587990&#45;&gt;ast.For object at 0x74c800d3e250</title>
<path fill="none" stroke="black" d="M506.72,-575.88C486.97,-565.56 461.79,-552.4 441.48,-541.8"/>
<polygon fill="black" stroke="black" points="443.02,-538.65 432.54,-537.12 439.78,-544.86 443.02,-538.65"/>
</g>
<!-- ast.Return object at 0x74c800d58c90 -->
<g id="node71" class="node">
<title>ast.Return object at 0x74c800d58c90</title>
<path fill="#66cdaa" stroke="black" d="M738.5,-540C738.5,-540 708.5,-540 708.5,-540 702.5,-540 696.5,-534 696.5,-528 696.5,-528 696.5,-516 696.5,-516 696.5,-510 702.5,-504 708.5,-504 708.5,-504 738.5,-504 738.5,-504 744.5,-504 750.5,-510 750.5,-516 750.5,-516 750.5,-528 750.5,-528 750.5,-534 744.5,-540 738.5,-540"/>
<text text-anchor="middle" x="723.5" y="-518.3" font-family="Times,serif" font-size="14.00">Return</text>
</g>
<!-- ast.FunctionDef object at 0x74c806587990&#45;&gt;ast.Return object at 0x74c800d58c90 -->
<g id="edge96" class="edge">
<title>ast.FunctionDef object at 0x74c806587990&#45;&gt;ast.Return object at 0x74c800d58c90</title>
<path fill="none" stroke="black" d="M582.18,-576.76C613.84,-564.72 656.58,-548.46 686.74,-536.99"/>
<polygon fill="black" stroke="black" points="688.35,-540.12 696.45,-533.29 685.86,-533.58 688.35,-540.12"/>
</g>
<!-- ast.arg object at 0x74c800d91f10 -->
<g id="node6" class="node">
<title>ast.arg object at 0x74c800d91f10</title>
<path fill="#66cdaa" stroke="black" d="M686.5,-468C686.5,-468 656.5,-468 656.5,-468 650.5,-468 644.5,-462 644.5,-456 644.5,-456 644.5,-444 644.5,-444 644.5,-438 650.5,-432 656.5,-432 656.5,-432 686.5,-432 686.5,-432 692.5,-432 698.5,-438 698.5,-444 698.5,-444 698.5,-456 698.5,-456 698.5,-462 692.5,-468 686.5,-468"/>
<text text-anchor="middle" x="671.5" y="-446.3" font-family="Times,serif" font-size="14.00">arg</text>
</g>
<!-- ast.arguments object at 0x74c800e26c10&#45;&gt;ast.arg object at 0x74c800d91f10 -->
<g id="edge5" class="edge">
<title>ast.arguments object at 0x74c800e26c10&#45;&gt;ast.arg object at 0x74c800d91f10</title>
<path fill="none" stroke="black" d="M639.13,-503.7C644.13,-495.56 650.19,-485.69 655.71,-476.7"/>
<polygon fill="black" stroke="black" points="658.74,-478.46 660.99,-468.1 652.78,-474.79 658.74,-478.46"/>
</g>
<!-- ast.Name object at 0x74c800d93750 -->
<g id="node8" class="node">
<title>ast.Name object at 0x74c800d93750</title>
<path fill="#66cdaa" stroke="black" d="M580.5,-396C580.5,-396 550.5,-396 550.5,-396 544.5,-396 538.5,-390 538.5,-384 538.5,-384 538.5,-372 538.5,-372 538.5,-366 544.5,-360 550.5,-360 550.5,-360 580.5,-360 580.5,-360 586.5,-360 592.5,-366 592.5,-372 592.5,-372 592.5,-384 592.5,-384 592.5,-390 586.5,-396 580.5,-396"/>
<text text-anchor="middle" x="565.5" y="-374.3" font-family="Times,serif" font-size="14.00">Name</text>
</g>
<!-- ast.Assign object at 0x74c800d92c50&#45;&gt;ast.Name object at 0x74c800d93750 -->
<g id="edge7" class="edge">
<title>ast.Assign object at 0x74c800d92c50&#45;&gt;ast.Name object at 0x74c800d93750</title>
<path fill="none" stroke="black" d="M541.17,-503.83C543.08,-485.83 546.58,-456.77 551.5,-432 553.2,-423.47 555.46,-414.27 557.68,-405.97"/>
<polygon fill="black" stroke="black" points="561.13,-406.63 560.42,-396.06 554.38,-404.77 561.13,-406.63"/>
</g>
<!-- ast.Constant object at 0x74c800d93d50 -->
<g id="node10" class="node">
<title>ast.Constant object at 0x74c800d93d50</title>
<path fill="#66cdaa" stroke="black" d="M614,-468C614,-468 573,-468 573,-468 567,-468 561,-462 561,-456 561,-456 561,-444 561,-444 561,-438 567,-432 573,-432 573,-432 614,-432 614,-432 620,-432 626,-438 626,-444 626,-444 626,-456 626,-456 626,-462 620,-468 614,-468"/>
<text text-anchor="middle" x="593.5" y="-446.3" font-family="Times,serif" font-size="14.00">Constant</text>
</g>
<!-- ast.Assign object at 0x74c800d92c50&#45;&gt;ast.Constant object at 0x74c800d93d50 -->
<g id="edge9" class="edge">
<title>ast.Assign object at 0x74c800d92c50&#45;&gt;ast.Constant object at 0x74c800d93d50</title>
<path fill="none" stroke="black" d="M552.85,-503.7C559.26,-495.39 567.06,-485.28 574.11,-476.14"/>
<polygon fill="black" stroke="black" points="576.97,-478.16 580.31,-468.1 571.43,-473.88 576.97,-478.16"/>
</g>
<!-- ast.Store object at 0x74c9a10069d0 -->
<g id="node9" class="node">
<title>ast.Store object at 0x74c9a10069d0</title>
<path fill="#66cdaa" stroke="black" d="M512.5,-324C512.5,-324 482.5,-324 482.5,-324 476.5,-324 470.5,-318 470.5,-312 470.5,-312 470.5,-300 470.5,-300 470.5,-294 476.5,-288 482.5,-288 482.5,-288 512.5,-288 512.5,-288 518.5,-288 524.5,-294 524.5,-300 524.5,-300 524.5,-312 524.5,-312 524.5,-318 518.5,-324 512.5,-324"/>
<text text-anchor="middle" x="497.5" y="-302.3" font-family="Times,serif" font-size="14.00">Store</text>
</g>
<!-- ast.Name object at 0x74c800d93750&#45;&gt;ast.Store object at 0x74c9a10069d0 -->
<g id="edge8" class="edge">
<title>ast.Name object at 0x74c800d93750&#45;&gt;ast.Store object at 0x74c9a10069d0</title>
<path fill="none" stroke="black" d="M548.69,-359.7C540.37,-351.14 530.19,-340.66 521.11,-331.3"/>
<polygon fill="black" stroke="black" points="523.59,-328.84 514.12,-324.1 518.57,-333.72 523.59,-328.84"/>
</g>
<!-- ast.Name object at 0x74c800d92d90 -->
<g id="node12" class="node">
<title>ast.Name object at 0x74c800d92d90</title>
<path fill="#66cdaa" stroke="black" d="M508.5,-396C508.5,-396 478.5,-396 478.5,-396 472.5,-396 466.5,-390 466.5,-384 466.5,-384 466.5,-372 466.5,-372 466.5,-366 472.5,-360 478.5,-360 478.5,-360 508.5,-360 508.5,-360 514.5,-360 520.5,-366 520.5,-372 520.5,-372 520.5,-384 520.5,-384 520.5,-390 514.5,-396 508.5,-396"/>
<text text-anchor="middle" x="493.5" y="-374.3" font-family="Times,serif" font-size="14.00">Name</text>
</g>
<!-- ast.Assign object at 0x74c800d93650&#45;&gt;ast.Name object at 0x74c800d92d90 -->
<g id="edge11" class="edge">
<title>ast.Assign object at 0x74c800d93650&#45;&gt;ast.Name object at 0x74c800d92d90</title>
<path fill="none" stroke="black" d="M481.46,-431.7C483.22,-423.98 485.34,-414.71 487.3,-406.11"/>
<polygon fill="black" stroke="black" points="490.77,-406.63 489.59,-396.1 483.95,-405.07 490.77,-406.63"/>
</g>
<!-- ast.Call object at 0x74c800d93790 -->
<g id="node13" class="node">
<title>ast.Call object at 0x74c800d93790</title>
<path fill="#66cdaa" stroke="black" d="M445.5,-180C445.5,-180 415.5,-180 415.5,-180 409.5,-180 403.5,-174 403.5,-168 403.5,-168 403.5,-156 403.5,-156 403.5,-150 409.5,-144 415.5,-144 415.5,-144 445.5,-144 445.5,-144 451.5,-144 457.5,-150 457.5,-156 457.5,-156 457.5,-168 457.5,-168 457.5,-174 451.5,-180 445.5,-180"/>
<text text-anchor="middle" x="430.5" y="-158.3" font-family="Times,serif" font-size="14.00">Call</text>
</g>
<!-- ast.Assign object at 0x74c800d93650&#45;&gt;ast.Call object at 0x74c800d93790 -->
<g id="edge13" class="edge">
<title>ast.Assign object at 0x74c800d93650&#45;&gt;ast.Call object at 0x74c800d93790</title>
<path fill="none" stroke="black" d="M450.47,-435.97C447.46,-434.6 444.42,-433.25 441.5,-432 400.36,-414.44 372.85,-432.86 347.5,-396 301.22,-328.72 369.5,-232.83 407.67,-187.95"/>
<polygon fill="black" stroke="black" points="410.5,-190.03 414.42,-180.19 405.22,-185.44 410.5,-190.03"/>
</g>
<!-- ast.Name object at 0x74c800d92d90&#45;&gt;ast.Store object at 0x74c9a10069d0 -->
<g id="edge12" class="edge">
<title>ast.Name object at 0x74c800d92d90&#45;&gt;ast.Store object at 0x74c9a10069d0</title>
<path fill="none" stroke="black" d="M494.49,-359.7C494.93,-351.98 495.46,-342.71 495.95,-334.11"/>
<polygon fill="black" stroke="black" points="499.45,-334.29 496.52,-324.1 492.46,-333.89 499.45,-334.29"/>
</g>
<!-- ast.Name object at 0x74c800d91ad0 -->
<g id="node14" class="node">
<title>ast.Name object at 0x74c800d91ad0</title>
<path fill="#66cdaa" stroke="black" d="M517.5,-108C517.5,-108 487.5,-108 487.5,-108 481.5,-108 475.5,-102 475.5,-96 475.5,-96 475.5,-84 475.5,-84 475.5,-78 481.5,-72 487.5,-72 487.5,-72 517.5,-72 517.5,-72 523.5,-72 529.5,-78 529.5,-84 529.5,-84 529.5,-96 529.5,-96 529.5,-102 523.5,-108 517.5,-108"/>
<text text-anchor="middle" x="502.5" y="-86.3" font-family="Times,serif" font-size="14.00">Name</text>
</g>
<!-- ast.Call object at 0x74c800d93790&#45;&gt;ast.Name object at 0x74c800d91ad0 -->
<g id="edge14" class="edge">
<title>ast.Call object at 0x74c800d93790&#45;&gt;ast.Name object at 0x74c800d91ad0</title>
<path fill="none" stroke="black" d="M448.3,-143.7C457.1,-135.14 467.88,-124.66 477.5,-115.3"/>
<polygon fill="black" stroke="black" points="480.18,-117.58 484.91,-108.1 475.3,-112.57 480.18,-117.58"/>
</g>
<!-- ast.Name object at 0x74c800d92b90 -->
<g id="node16" class="node">
<title>ast.Name object at 0x74c800d92b90</title>
<path fill="#66cdaa" stroke="black" d="M445.5,-108C445.5,-108 415.5,-108 415.5,-108 409.5,-108 403.5,-102 403.5,-96 403.5,-96 403.5,-84 403.5,-84 403.5,-78 409.5,-72 415.5,-72 415.5,-72 445.5,-72 445.5,-72 451.5,-72 457.5,-78 457.5,-84 457.5,-84 457.5,-96 457.5,-96 457.5,-102 451.5,-108 445.5,-108"/>
<text text-anchor="middle" x="430.5" y="-86.3" font-family="Times,serif" font-size="14.00">Name</text>
</g>
<!-- ast.Call object at 0x74c800d93790&#45;&gt;ast.Name object at 0x74c800d92b90 -->
<g id="edge16" class="edge">
<title>ast.Call object at 0x74c800d93790&#45;&gt;ast.Name object at 0x74c800d92b90</title>
<path fill="none" stroke="black" d="M430.5,-143.7C430.5,-135.98 430.5,-126.71 430.5,-118.11"/>
<polygon fill="black" stroke="black" points="434,-118.1 430.5,-108.1 427,-118.1 434,-118.1"/>
</g>
<!-- ast.Load object at 0x74c9a1006950 -->
<g id="node15" class="node">
<title>ast.Load object at 0x74c9a1006950</title>
<path fill="#66cdaa" stroke="black" d="M686.5,-36C686.5,-36 656.5,-36 656.5,-36 650.5,-36 644.5,-30 644.5,-24 644.5,-24 644.5,-12 644.5,-12 644.5,-6 650.5,0 656.5,0 656.5,0 686.5,0 686.5,0 692.5,0 698.5,-6 698.5,-12 698.5,-12 698.5,-24 698.5,-24 698.5,-30 692.5,-36 686.5,-36"/>
<text text-anchor="middle" x="671.5" y="-14.3" font-family="Times,serif" font-size="14.00">Load</text>
</g>
<!-- ast.Name object at 0x74c800d91ad0&#45;&gt;ast.Load object at 0x74c9a1006950 -->
<g id="edge15" class="edge">
<title>ast.Name object at 0x74c800d91ad0&#45;&gt;ast.Load object at 0x74c9a1006950</title>
<path fill="none" stroke="black" d="M529.85,-77.66C534.41,-75.77 539.09,-73.83 543.5,-72 574.24,-59.26 609.13,-44.82 634.71,-34.23"/>
<polygon fill="black" stroke="black" points="636.13,-37.43 644.03,-30.37 633.45,-30.96 636.13,-37.43"/>
</g>
<!-- ast.Name object at 0x74c800d92b90&#45;&gt;ast.Load object at 0x74c9a1006950 -->
<g id="edge17" class="edge">
<title>ast.Name object at 0x74c800d92b90&#45;&gt;ast.Load object at 0x74c9a1006950</title>
<path fill="none" stroke="black" d="M457.79,-75.46C460.7,-74.22 463.64,-73.03 466.5,-72 523.86,-51.25 592.99,-35.13 634.53,-26.36"/>
<polygon fill="black" stroke="black" points="635.4,-29.75 644.48,-24.29 633.97,-22.9 635.4,-29.75"/>
</g>
<!-- ast.Name object at 0x74c800d91090 -->
<g id="node18" class="node">
<title>ast.Name object at 0x74c800d91090</title>
<path fill="#66cdaa" stroke="black" d="M856.5,-468C856.5,-468 826.5,-468 826.5,-468 820.5,-468 814.5,-462 814.5,-456 814.5,-456 814.5,-444 814.5,-444 814.5,-438 820.5,-432 826.5,-432 826.5,-432 856.5,-432 856.5,-432 862.5,-432 868.5,-438 868.5,-444 868.5,-444 868.5,-456 868.5,-456 868.5,-462 862.5,-468 856.5,-468"/>
<text text-anchor="middle" x="841.5" y="-446.3" font-family="Times,serif" font-size="14.00">Name</text>
</g>
<!-- ast.For object at 0x74c800d93c90&#45;&gt;ast.Name object at 0x74c800d91090 -->
<g id="edge19" class="edge">
<title>ast.For object at 0x74c800d93c90&#45;&gt;ast.Name object at 0x74c800d91090</title>
<path fill="none" stroke="black" d="M900.22,-503.7C890.58,-495.05 878.77,-484.45 868.27,-475.03"/>
<polygon fill="black" stroke="black" points="870.34,-472.18 860.56,-468.1 865.66,-477.39 870.34,-472.18"/>
</g>
<!-- ast.Name object at 0x74c800d91110 -->
<g id="node19" class="node">
<title>ast.Name object at 0x74c800d91110</title>
<path fill="#66cdaa" stroke="black" d="M1269.5,-324C1269.5,-324 1239.5,-324 1239.5,-324 1233.5,-324 1227.5,-318 1227.5,-312 1227.5,-312 1227.5,-300 1227.5,-300 1227.5,-294 1233.5,-288 1239.5,-288 1239.5,-288 1269.5,-288 1269.5,-288 1275.5,-288 1281.5,-294 1281.5,-300 1281.5,-300 1281.5,-312 1281.5,-312 1281.5,-318 1275.5,-324 1269.5,-324"/>
<text text-anchor="middle" x="1254.5" y="-302.3" font-family="Times,serif" font-size="14.00">Name</text>
</g>
<!-- ast.For object at 0x74c800d93c90&#45;&gt;ast.Name object at 0x74c800d91110 -->
<g id="edge21" class="edge">
<title>ast.For object at 0x74c800d93c90&#45;&gt;ast.Name object at 0x74c800d91110</title>
<path fill="none" stroke="black" d="M946.66,-512.41C973.7,-503.3 1015.89,-487.53 1049.5,-468 1119.45,-427.35 1191.68,-364.95 1228.89,-331.01"/>
<polygon fill="black" stroke="black" points="1231.29,-333.56 1236.29,-324.22 1226.55,-328.41 1231.29,-333.56"/>
</g>
<!-- ast.Assign object at 0x74c800d93890 -->
<g id="node20" class="node">
<title>ast.Assign object at 0x74c800d93890</title>
<path fill="#66cdaa" stroke="black" d="M934.5,-468C934.5,-468 904.5,-468 904.5,-468 898.5,-468 892.5,-462 892.5,-456 892.5,-456 892.5,-444 892.5,-444 892.5,-438 898.5,-432 904.5,-432 904.5,-432 934.5,-432 934.5,-432 940.5,-432 946.5,-438 946.5,-444 946.5,-444 946.5,-456 946.5,-456 946.5,-462 940.5,-468 934.5,-468"/>
<text text-anchor="middle" x="919.5" y="-446.3" font-family="Times,serif" font-size="14.00">Assign</text>
</g>
<!-- ast.For object at 0x74c800d93c90&#45;&gt;ast.Assign object at 0x74c800d93890 -->
<g id="edge23" class="edge">
<title>ast.For object at 0x74c800d93c90&#45;&gt;ast.Assign object at 0x74c800d93890</title>
<path fill="none" stroke="black" d="M919.5,-503.7C919.5,-495.98 919.5,-486.71 919.5,-478.11"/>
<polygon fill="black" stroke="black" points="923,-478.1 919.5,-468.1 916,-478.1 923,-478.1"/>
</g>
<!-- ast.If object at 0x74c800d93a90 -->
<g id="node30" class="node">
<title>ast.If object at 0x74c800d93a90</title>
<path fill="#66cdaa" stroke="black" d="M1028.5,-468C1028.5,-468 998.5,-468 998.5,-468 992.5,-468 986.5,-462 986.5,-456 986.5,-456 986.5,-444 986.5,-444 986.5,-438 992.5,-432 998.5,-432 998.5,-432 1028.5,-432 1028.5,-432 1034.5,-432 1040.5,-438 1040.5,-444 1040.5,-444 1040.5,-456 1040.5,-456 1040.5,-462 1034.5,-468 1028.5,-468"/>
<text text-anchor="middle" x="1013.5" y="-446.3" font-family="Times,serif" font-size="14.00">If</text>
</g>
<!-- ast.For object at 0x74c800d93c90&#45;&gt;ast.If object at 0x74c800d93a90 -->
<g id="edge38" class="edge">
<title>ast.For object at 0x74c800d93c90&#45;&gt;ast.If object at 0x74c800d93a90</title>
<path fill="none" stroke="black" d="M942.74,-503.7C954.69,-494.8 969.42,-483.82 982.35,-474.2"/>
<polygon fill="black" stroke="black" points="984.6,-476.88 990.53,-468.1 980.42,-471.27 984.6,-476.88"/>
</g>
<!-- ast.Name object at 0x74c800d91090&#45;&gt;ast.Store object at 0x74c9a10069d0 -->
<g id="edge20" class="edge">
<title>ast.Name object at 0x74c800d91090&#45;&gt;ast.Store object at 0x74c9a10069d0</title>
<path fill="none" stroke="black" d="M826.28,-431.72C804.47,-407.13 765.99,-364.51 757.5,-360 670,-313.52 632.66,-351.57 537.5,-324 536.45,-323.7 535.39,-323.37 534.32,-323.03"/>
<polygon fill="black" stroke="black" points="535.32,-319.67 524.73,-319.59 532.96,-326.26 535.32,-319.67"/>
</g>
<!-- ast.Name object at 0x74c800d91110&#45;&gt;ast.Load object at 0x74c9a1006950 -->
<g id="edge22" class="edge">
<title>ast.Name object at 0x74c800d91110&#45;&gt;ast.Load object at 0x74c9a1006950</title>
<path fill="none" stroke="black" d="M1270.91,-287.71C1291.15,-265.06 1324.48,-223.14 1337.5,-180 1353.55,-126.8 1324.05,-97.16 1274.5,-72 1174.77,-21.36 824.01,-18.29 708.61,-18.69"/>
<polygon fill="black" stroke="black" points="708.49,-15.19 698.51,-18.74 708.52,-22.19 708.49,-15.19"/>
</g>
<!-- ast.Name object at 0x74c800d910d0 -->
<g id="node21" class="node">
<title>ast.Name object at 0x74c800d910d0</title>
<path fill="#66cdaa" stroke="black" d="M846.5,-396C846.5,-396 816.5,-396 816.5,-396 810.5,-396 804.5,-390 804.5,-384 804.5,-384 804.5,-372 804.5,-372 804.5,-366 810.5,-360 816.5,-360 816.5,-360 846.5,-360 846.5,-360 852.5,-360 858.5,-366 858.5,-372 858.5,-372 858.5,-384 858.5,-384 858.5,-390 852.5,-396 846.5,-396"/>
<text text-anchor="middle" x="831.5" y="-374.3" font-family="Times,serif" font-size="14.00">Name</text>
</g>
<!-- ast.Assign object at 0x74c800d93890&#45;&gt;ast.Name object at 0x74c800d910d0 -->
<g id="edge24" class="edge">
<title>ast.Assign object at 0x74c800d93890&#45;&gt;ast.Name object at 0x74c800d910d0</title>
<path fill="none" stroke="black" d="M897.75,-431.7C886.66,-422.88 873.03,-412.03 861.01,-402.47"/>
<polygon fill="black" stroke="black" points="863.01,-399.59 853,-396.1 858.65,-405.07 863.01,-399.59"/>
</g>
<!-- ast.Call object at 0x74c800d90490 -->
<g id="node22" class="node">
<title>ast.Call object at 0x74c800d90490</title>
<path fill="#66cdaa" stroke="black" d="M956.5,-396C956.5,-396 926.5,-396 926.5,-396 920.5,-396 914.5,-390 914.5,-384 914.5,-384 914.5,-372 914.5,-372 914.5,-366 920.5,-360 926.5,-360 926.5,-360 956.5,-360 956.5,-360 962.5,-360 968.5,-366 968.5,-372 968.5,-372 968.5,-384 968.5,-384 968.5,-390 962.5,-396 956.5,-396"/>
<text text-anchor="middle" x="941.5" y="-374.3" font-family="Times,serif" font-size="14.00">Call</text>
</g>
<!-- ast.Assign object at 0x74c800d93890&#45;&gt;ast.Call object at 0x74c800d90490 -->
<g id="edge26" class="edge">
<title>ast.Assign object at 0x74c800d93890&#45;&gt;ast.Call object at 0x74c800d90490</title>
<path fill="none" stroke="black" d="M924.94,-431.7C927.39,-423.9 930.34,-414.51 933.07,-405.83"/>
<polygon fill="black" stroke="black" points="936.46,-406.69 936.12,-396.1 929.79,-404.59 936.46,-406.69"/>
</g>
<!-- ast.Name object at 0x74c800d910d0&#45;&gt;ast.Store object at 0x74c9a10069d0 -->
<g id="edge25" class="edge">
<title>ast.Name object at 0x74c800d910d0&#45;&gt;ast.Store object at 0x74c9a10069d0</title>
<path fill="none" stroke="black" d="M804.49,-364.68C799.89,-362.91 795.11,-361.26 790.5,-360 680.95,-330.01 646.91,-354.47 537.5,-324 536.45,-323.71 535.38,-323.39 534.32,-323.06"/>
<polygon fill="black" stroke="black" points="535.3,-319.69 524.7,-319.67 532.97,-326.3 535.3,-319.69"/>
</g>
<!-- ast.Attribute object at 0x74c800d93690 -->
<g id="node23" class="node">
<title>ast.Attribute object at 0x74c800d93690</title>
<path fill="#66cdaa" stroke="black" d="M677,-324C677,-324 636,-324 636,-324 630,-324 624,-318 624,-312 624,-312 624,-300 624,-300 624,-294 630,-288 636,-288 636,-288 677,-288 677,-288 683,-288 689,-294 689,-300 689,-300 689,-312 689,-312 689,-318 683,-324 677,-324"/>
<text text-anchor="middle" x="656.5" y="-302.3" font-family="Times,serif" font-size="14.00">Attribute</text>
</g>
<!-- ast.Call object at 0x74c800d90490&#45;&gt;ast.Attribute object at 0x74c800d93690 -->
<g id="edge27" class="edge">
<title>ast.Call object at 0x74c800d90490&#45;&gt;ast.Attribute object at 0x74c800d93690</title>
<path fill="none" stroke="black" d="M914.4,-364.97C909.81,-363.16 905.06,-361.43 900.5,-360 831.37,-338.35 748.52,-322.38 699.32,-313.9"/>
<polygon fill="black" stroke="black" points="699.79,-310.43 689.35,-312.21 698.62,-317.33 699.79,-310.43"/>
</g>
<!-- ast.Call object at 0x74c800d90f10 -->
<g id="node25" class="node">
<title>ast.Call object at 0x74c800d90f10</title>
<path fill="#66cdaa" stroke="black" d="M821.5,-324C821.5,-324 791.5,-324 791.5,-324 785.5,-324 779.5,-318 779.5,-312 779.5,-312 779.5,-300 779.5,-300 779.5,-294 785.5,-288 791.5,-288 791.5,-288 821.5,-288 821.5,-288 827.5,-288 833.5,-294 833.5,-300 833.5,-300 833.5,-312 833.5,-312 833.5,-318 827.5,-324 821.5,-324"/>
<text text-anchor="middle" x="806.5" y="-302.3" font-family="Times,serif" font-size="14.00">Call</text>
</g>
<!-- ast.Call object at 0x74c800d90490&#45;&gt;ast.Call object at 0x74c800d90f10 -->
<g id="edge30" class="edge">
<title>ast.Call object at 0x74c800d90490&#45;&gt;ast.Call object at 0x74c800d90f10</title>
<path fill="none" stroke="black" d="M914.18,-362.83C893.6,-352.16 865.17,-337.42 842.69,-325.77"/>
<polygon fill="black" stroke="black" points="844.27,-322.64 833.78,-321.14 841.05,-328.85 844.27,-322.64"/>
</g>
<!-- ast.Attribute object at 0x74c800d93690&#45;&gt;ast.Load object at 0x74c9a1006950 -->
<g id="edge29" class="edge">
<title>ast.Attribute object at 0x74c800d93690&#45;&gt;ast.Load object at 0x74c9a1006950</title>
<path fill="none" stroke="black" d="M637.9,-287.76C628.97,-278.2 619.21,-265.53 614.5,-252 609.24,-236.89 612.25,-231.84 614.5,-216 623.36,-153.49 647.3,-83.06 661.17,-45.67"/>
<polygon fill="black" stroke="black" points="664.55,-46.63 664.8,-36.03 658,-44.16 664.55,-46.63"/>
</g>
<!-- ast.Constant object at 0x74c800d92ad0 -->
<g id="node24" class="node">
<title>ast.Constant object at 0x74c800d92ad0</title>
<path fill="#66cdaa" stroke="black" d="M677,-252C677,-252 636,-252 636,-252 630,-252 624,-246 624,-240 624,-240 624,-228 624,-228 624,-222 630,-216 636,-216 636,-216 677,-216 677,-216 683,-216 689,-222 689,-228 689,-228 689,-240 689,-240 689,-246 683,-252 677,-252"/>
<text text-anchor="middle" x="656.5" y="-230.3" font-family="Times,serif" font-size="14.00">Constant</text>
</g>
<!-- ast.Attribute object at 0x74c800d93690&#45;&gt;ast.Constant object at 0x74c800d92ad0 -->
<g id="edge28" class="edge">
<title>ast.Attribute object at 0x74c800d93690&#45;&gt;ast.Constant object at 0x74c800d92ad0</title>
<path fill="none" stroke="black" d="M656.5,-287.7C656.5,-279.98 656.5,-270.71 656.5,-262.11"/>
<polygon fill="black" stroke="black" points="660,-262.1 656.5,-252.1 653,-262.1 660,-262.1"/>
</g>
<!-- ast.Name object at 0x74c800d93dd0 -->
<g id="node26" class="node">
<title>ast.Name object at 0x74c800d93dd0</title>
<path fill="#66cdaa" stroke="black" d="M749.5,-252C749.5,-252 719.5,-252 719.5,-252 713.5,-252 707.5,-246 707.5,-240 707.5,-240 707.5,-228 707.5,-228 707.5,-222 713.5,-216 719.5,-216 719.5,-216 749.5,-216 749.5,-216 755.5,-216 761.5,-222 761.5,-228 761.5,-228 761.5,-240 761.5,-240 761.5,-246 755.5,-252 749.5,-252"/>
<text text-anchor="middle" x="734.5" y="-230.3" font-family="Times,serif" font-size="14.00">Name</text>
</g>
<!-- ast.Call object at 0x74c800d90f10&#45;&gt;ast.Name object at 0x74c800d93dd0 -->
<g id="edge31" class="edge">
<title>ast.Call object at 0x74c800d90f10&#45;&gt;ast.Name object at 0x74c800d93dd0</title>
<path fill="none" stroke="black" d="M788.7,-287.7C779.9,-279.14 769.12,-268.66 759.5,-259.3"/>
<polygon fill="black" stroke="black" points="761.7,-256.57 752.09,-252.1 756.82,-261.58 761.7,-256.57"/>
</g>
<!-- ast.Call object at 0x74c800d91a90 -->
<g id="node27" class="node">
<title>ast.Call object at 0x74c800d91a90</title>
<path fill="#66cdaa" stroke="black" d="M821.5,-252C821.5,-252 791.5,-252 791.5,-252 785.5,-252 779.5,-246 779.5,-240 779.5,-240 779.5,-228 779.5,-228 779.5,-222 785.5,-216 791.5,-216 791.5,-216 821.5,-216 821.5,-216 827.5,-216 833.5,-222 833.5,-228 833.5,-228 833.5,-240 833.5,-240 833.5,-246 827.5,-252 821.5,-252"/>
<text text-anchor="middle" x="806.5" y="-230.3" font-family="Times,serif" font-size="14.00">Call</text>
</g>
<!-- ast.Call object at 0x74c800d90f10&#45;&gt;ast.Call object at 0x74c800d91a90 -->
<g id="edge33" class="edge">
<title>ast.Call object at 0x74c800d90f10&#45;&gt;ast.Call object at 0x74c800d91a90</title>
<path fill="none" stroke="black" d="M806.5,-287.7C806.5,-279.98 806.5,-270.71 806.5,-262.11"/>
<polygon fill="black" stroke="black" points="810,-262.1 806.5,-252.1 803,-262.1 810,-262.1"/>
</g>
<!-- ast.Name object at 0x74c800d93dd0&#45;&gt;ast.Load object at 0x74c9a1006950 -->
<g id="edge32" class="edge">
<title>ast.Name object at 0x74c800d93dd0&#45;&gt;ast.Load object at 0x74c9a1006950</title>
<path fill="none" stroke="black" d="M712.89,-215.88C702.55,-206.44 691.02,-193.85 684.5,-180 664.2,-136.92 665.11,-80.16 668.03,-46.82"/>
<polygon fill="black" stroke="black" points="671.55,-46.76 669.06,-36.46 664.58,-46.06 671.55,-46.76"/>
</g>
<!-- ast.Attribute object at 0x74c800d92350 -->
<g id="node28" class="node">
<title>ast.Attribute object at 0x74c800d92350</title>
<path fill="#66cdaa" stroke="black" d="M747,-180C747,-180 706,-180 706,-180 700,-180 694,-174 694,-168 694,-168 694,-156 694,-156 694,-150 700,-144 706,-144 706,-144 747,-144 747,-144 753,-144 759,-150 759,-156 759,-156 759,-168 759,-168 759,-174 753,-180 747,-180"/>
<text text-anchor="middle" x="726.5" y="-158.3" font-family="Times,serif" font-size="14.00">Attribute</text>
</g>
<!-- ast.Call object at 0x74c800d91a90&#45;&gt;ast.Attribute object at 0x74c800d92350 -->
<g id="edge34" class="edge">
<title>ast.Call object at 0x74c800d91a90&#45;&gt;ast.Attribute object at 0x74c800d92350</title>
<path fill="none" stroke="black" d="M786.72,-215.7C776.75,-206.97 764.49,-196.24 753.64,-186.75"/>
<polygon fill="black" stroke="black" points="755.88,-184.06 746.05,-180.1 751.27,-189.32 755.88,-184.06"/>
</g>
<!-- ast.Attribute object at 0x74c800d92350&#45;&gt;ast.Load object at 0x74c9a1006950 -->
<g id="edge37" class="edge">
<title>ast.Attribute object at 0x74c800d92350&#45;&gt;ast.Load object at 0x74c9a1006950</title>
<path fill="none" stroke="black" d="M712.34,-143.85C704.81,-133.93 696,-120.89 690.5,-108 682.09,-88.29 677.26,-64.49 674.57,-46.46"/>
<polygon fill="black" stroke="black" points="678.01,-45.76 673.2,-36.33 671.07,-46.71 678.01,-45.76"/>
</g>
<!-- ast.Name object at 0x74c800d90550 -->
<g id="node29" class="node">
<title>ast.Name object at 0x74c800d90550</title>
<path fill="#66cdaa" stroke="black" d="M741.5,-108C741.5,-108 711.5,-108 711.5,-108 705.5,-108 699.5,-102 699.5,-96 699.5,-96 699.5,-84 699.5,-84 699.5,-78 705.5,-72 711.5,-72 711.5,-72 741.5,-72 741.5,-72 747.5,-72 753.5,-78 753.5,-84 753.5,-84 753.5,-96 753.5,-96 753.5,-102 747.5,-108 741.5,-108"/>
<text text-anchor="middle" x="726.5" y="-86.3" font-family="Times,serif" font-size="14.00">Name</text>
</g>
<!-- ast.Attribute object at 0x74c800d92350&#45;&gt;ast.Name object at 0x74c800d90550 -->
<g id="edge35" class="edge">
<title>ast.Attribute object at 0x74c800d92350&#45;&gt;ast.Name object at 0x74c800d90550</title>
<path fill="none" stroke="black" d="M726.5,-143.7C726.5,-135.98 726.5,-126.71 726.5,-118.11"/>
<polygon fill="black" stroke="black" points="730,-118.1 726.5,-108.1 723,-118.1 730,-118.1"/>
</g>
<!-- ast.Name object at 0x74c800d90550&#45;&gt;ast.Load object at 0x74c9a1006950 -->
<g id="edge36" class="edge">
<title>ast.Name object at 0x74c800d90550&#45;&gt;ast.Load object at 0x74c9a1006950</title>
<path fill="none" stroke="black" d="M712.9,-71.7C706.38,-63.39 698.43,-53.28 691.25,-44.14"/>
<polygon fill="black" stroke="black" points="693.87,-41.81 684.94,-36.1 688.37,-46.13 693.87,-41.81"/>
</g>
<!-- ast.BoolOp object at 0x74c800d91190 -->
<g id="node31" class="node">
<title>ast.BoolOp object at 0x74c800d91190</title>
<path fill="#66cdaa" stroke="black" d="M1097,-324C1097,-324 1062,-324 1062,-324 1056,-324 1050,-318 1050,-312 1050,-312 1050,-300 1050,-300 1050,-294 1056,-288 1062,-288 1062,-288 1097,-288 1097,-288 1103,-288 1109,-294 1109,-300 1109,-300 1109,-312 1109,-312 1109,-318 1103,-324 1097,-324"/>
<text text-anchor="middle" x="1079.5" y="-302.3" font-family="Times,serif" font-size="14.00">BoolOp</text>
</g>
<!-- ast.If object at 0x74c800d93a90&#45;&gt;ast.BoolOp object at 0x74c800d91190 -->
<g id="edge39" class="edge">
<title>ast.If object at 0x74c800d93a90&#45;&gt;ast.BoolOp object at 0x74c800d91190</title>
<path fill="none" stroke="black" d="M1027.1,-431.59C1034.45,-421.59 1043.27,-408.55 1049.5,-396 1059.38,-376.1 1067.24,-352.17 1072.44,-334.14"/>
<polygon fill="black" stroke="black" points="1075.87,-334.85 1075.18,-324.28 1069.13,-332.97 1075.87,-334.85"/>
</g>
<!-- ast.Expr object at 0x74c800d812d0 -->
<g id="node42" class="node">
<title>ast.Expr object at 0x74c800d812d0</title>
<path fill="#66cdaa" stroke="black" d="M1028.5,-396C1028.5,-396 998.5,-396 998.5,-396 992.5,-396 986.5,-390 986.5,-384 986.5,-384 986.5,-372 986.5,-372 986.5,-366 992.5,-360 998.5,-360 998.5,-360 1028.5,-360 1028.5,-360 1034.5,-360 1040.5,-366 1040.5,-372 1040.5,-372 1040.5,-384 1040.5,-384 1040.5,-390 1034.5,-396 1028.5,-396"/>
<text text-anchor="middle" x="1013.5" y="-374.3" font-family="Times,serif" font-size="14.00">Expr</text>
</g>
<!-- ast.If object at 0x74c800d93a90&#45;&gt;ast.Expr object at 0x74c800d812d0 -->
<g id="edge54" class="edge">
<title>ast.If object at 0x74c800d93a90&#45;&gt;ast.Expr object at 0x74c800d812d0</title>
<path fill="none" stroke="black" d="M1013.5,-431.7C1013.5,-423.98 1013.5,-414.71 1013.5,-406.11"/>
<polygon fill="black" stroke="black" points="1017,-406.1 1013.5,-396.1 1010,-406.1 1017,-406.1"/>
</g>
<!-- ast.And object at 0x74c9a1006c10 -->
<g id="node32" class="node">
<title>ast.And object at 0x74c9a1006c10</title>
<path fill="#66cdaa" stroke="black" d="M1246.5,-252C1246.5,-252 1216.5,-252 1216.5,-252 1210.5,-252 1204.5,-246 1204.5,-240 1204.5,-240 1204.5,-228 1204.5,-228 1204.5,-222 1210.5,-216 1216.5,-216 1216.5,-216 1246.5,-216 1246.5,-216 1252.5,-216 1258.5,-222 1258.5,-228 1258.5,-228 1258.5,-240 1258.5,-240 1258.5,-246 1252.5,-252 1246.5,-252"/>
<text text-anchor="middle" x="1231.5" y="-230.3" font-family="Times,serif" font-size="14.00">And</text>
</g>
<!-- ast.BoolOp object at 0x74c800d91190&#45;&gt;ast.And object at 0x74c9a1006c10 -->
<g id="edge40" class="edge">
<title>ast.BoolOp object at 0x74c800d91190&#45;&gt;ast.And object at 0x74c9a1006c10</title>
<path fill="none" stroke="black" d="M1109.11,-291.6C1130.65,-281.82 1160.74,-268.1 1195.08,-252.17"/>
<polygon fill="black" stroke="black" points="1196.8,-255.23 1204.39,-247.85 1193.85,-248.89 1196.8,-255.23"/>
</g>
<!-- ast.Compare object at 0x74c800d91050 -->
<g id="node33" class="node">
<title>ast.Compare object at 0x74c800d91050</title>
<path fill="#66cdaa" stroke="black" d="M1174,-252C1174,-252 1131,-252 1131,-252 1125,-252 1119,-246 1119,-240 1119,-240 1119,-228 1119,-228 1119,-222 1125,-216 1131,-216 1131,-216 1174,-216 1174,-216 1180,-216 1186,-222 1186,-228 1186,-228 1186,-240 1186,-240 1186,-246 1180,-252 1174,-252"/>
<text text-anchor="middle" x="1152.5" y="-230.3" font-family="Times,serif" font-size="14.00">Compare</text>
</g>
<!-- ast.BoolOp object at 0x74c800d91190&#45;&gt;ast.Compare object at 0x74c800d91050 -->
<g id="edge41" class="edge">
<title>ast.BoolOp object at 0x74c800d91190&#45;&gt;ast.Compare object at 0x74c800d91050</title>
<path fill="none" stroke="black" d="M1097.54,-287.7C1106.56,-279.05 1117.62,-268.45 1127.44,-259.03"/>
<polygon fill="black" stroke="black" points="1129.87,-261.55 1134.66,-252.1 1125.02,-256.5 1129.87,-261.55"/>
</g>
<!-- ast.Call object at 0x74c800d82210 -->
<g id="node39" class="node">
<title>ast.Call object at 0x74c800d82210</title>
<path fill="#66cdaa" stroke="black" d="M1088.5,-252C1088.5,-252 1058.5,-252 1058.5,-252 1052.5,-252 1046.5,-246 1046.5,-240 1046.5,-240 1046.5,-228 1046.5,-228 1046.5,-222 1052.5,-216 1058.5,-216 1058.5,-216 1088.5,-216 1088.5,-216 1094.5,-216 1100.5,-222 1100.5,-228 1100.5,-228 1100.5,-240 1100.5,-240 1100.5,-246 1094.5,-252 1088.5,-252"/>
<text text-anchor="middle" x="1073.5" y="-230.3" font-family="Times,serif" font-size="14.00">Call</text>
</g>
<!-- ast.BoolOp object at 0x74c800d91190&#45;&gt;ast.Call object at 0x74c800d82210 -->
<g id="edge49" class="edge">
<title>ast.BoolOp object at 0x74c800d91190&#45;&gt;ast.Call object at 0x74c800d82210</title>
<path fill="none" stroke="black" d="M1078.02,-287.7C1077.36,-279.98 1076.56,-270.71 1075.82,-262.11"/>
<polygon fill="black" stroke="black" points="1079.31,-261.77 1074.97,-252.1 1072.33,-262.37 1079.31,-261.77"/>
</g>
<!-- ast.Call object at 0x74c8013f3190 -->
<g id="node34" class="node">
<title>ast.Call object at 0x74c8013f3190</title>
<path fill="#66cdaa" stroke="black" d="M1160.5,-180C1160.5,-180 1130.5,-180 1130.5,-180 1124.5,-180 1118.5,-174 1118.5,-168 1118.5,-168 1118.5,-156 1118.5,-156 1118.5,-150 1124.5,-144 1130.5,-144 1130.5,-144 1160.5,-144 1160.5,-144 1166.5,-144 1172.5,-150 1172.5,-156 1172.5,-156 1172.5,-168 1172.5,-168 1172.5,-174 1166.5,-180 1160.5,-180"/>
<text text-anchor="middle" x="1145.5" y="-158.3" font-family="Times,serif" font-size="14.00">Call</text>
</g>
<!-- ast.Compare object at 0x74c800d91050&#45;&gt;ast.Call object at 0x74c8013f3190 -->
<g id="edge42" class="edge">
<title>ast.Compare object at 0x74c800d91050&#45;&gt;ast.Call object at 0x74c8013f3190</title>
<path fill="none" stroke="black" d="M1150.77,-215.7C1150,-207.98 1149.07,-198.71 1148.21,-190.11"/>
<polygon fill="black" stroke="black" points="1151.69,-189.71 1147.21,-180.1 1144.72,-190.4 1151.69,-189.71"/>
</g>
<!-- ast.GtE object at 0x74c9a1007bd0 -->
<g id="node37" class="node">
<title>ast.GtE object at 0x74c9a1007bd0</title>
<path fill="#66cdaa" stroke="black" d="M1232.5,-180C1232.5,-180 1202.5,-180 1202.5,-180 1196.5,-180 1190.5,-174 1190.5,-168 1190.5,-168 1190.5,-156 1190.5,-156 1190.5,-150 1196.5,-144 1202.5,-144 1202.5,-144 1232.5,-144 1232.5,-144 1238.5,-144 1244.5,-150 1244.5,-156 1244.5,-156 1244.5,-168 1244.5,-168 1244.5,-174 1238.5,-180 1232.5,-180"/>
<text text-anchor="middle" x="1217.5" y="-158.3" font-family="Times,serif" font-size="14.00">GtE</text>
</g>
<!-- ast.Compare object at 0x74c800d91050&#45;&gt;ast.GtE object at 0x74c9a1007bd0 -->
<g id="edge47" class="edge">
<title>ast.Compare object at 0x74c800d91050&#45;&gt;ast.GtE object at 0x74c9a1007bd0</title>
<path fill="none" stroke="black" d="M1168.57,-215.7C1176.44,-207.22 1186.06,-196.86 1194.67,-187.58"/>
<polygon fill="black" stroke="black" points="1197.38,-189.81 1201.62,-180.1 1192.25,-185.05 1197.38,-189.81"/>
</g>
<!-- ast.Constant object at 0x74c800d83ed0 -->
<g id="node38" class="node">
<title>ast.Constant object at 0x74c800d83ed0</title>
<path fill="#66cdaa" stroke="black" d="M1316,-180C1316,-180 1275,-180 1275,-180 1269,-180 1263,-174 1263,-168 1263,-168 1263,-156 1263,-156 1263,-150 1269,-144 1275,-144 1275,-144 1316,-144 1316,-144 1322,-144 1328,-150 1328,-156 1328,-156 1328,-168 1328,-168 1328,-174 1322,-180 1316,-180"/>
<text text-anchor="middle" x="1295.5" y="-158.3" font-family="Times,serif" font-size="14.00">Constant</text>
</g>
<!-- ast.Compare object at 0x74c800d91050&#45;&gt;ast.Constant object at 0x74c800d83ed0 -->
<g id="edge48" class="edge">
<title>ast.Compare object at 0x74c800d91050&#45;&gt;ast.Constant object at 0x74c800d83ed0</title>
<path fill="none" stroke="black" d="M1186.03,-216.59C1206.16,-206.73 1231.96,-194.11 1253.45,-183.58"/>
<polygon fill="black" stroke="black" points="1255.23,-186.61 1262.68,-179.07 1252.16,-180.32 1255.23,-186.61"/>
</g>
<!-- ast.Name object at 0x74c800d82490 -->
<g id="node35" class="node">
<title>ast.Name object at 0x74c800d82490</title>
<path fill="#66cdaa" stroke="black" d="M1181.5,-108C1181.5,-108 1151.5,-108 1151.5,-108 1145.5,-108 1139.5,-102 1139.5,-96 1139.5,-96 1139.5,-84 1139.5,-84 1139.5,-78 1145.5,-72 1151.5,-72 1151.5,-72 1181.5,-72 1181.5,-72 1187.5,-72 1193.5,-78 1193.5,-84 1193.5,-84 1193.5,-96 1193.5,-96 1193.5,-102 1187.5,-108 1181.5,-108"/>
<text text-anchor="middle" x="1166.5" y="-86.3" font-family="Times,serif" font-size="14.00">Name</text>
</g>
<!-- ast.Call object at 0x74c8013f3190&#45;&gt;ast.Name object at 0x74c800d82490 -->
<g id="edge43" class="edge">
<title>ast.Call object at 0x74c8013f3190&#45;&gt;ast.Name object at 0x74c800d82490</title>
<path fill="none" stroke="black" d="M1150.69,-143.7C1153.03,-135.9 1155.85,-126.51 1158.45,-117.83"/>
<polygon fill="black" stroke="black" points="1161.85,-118.69 1161.37,-108.1 1155.14,-116.68 1161.85,-118.69"/>
</g>
<!-- ast.Name object at 0x74c800d82cd0 -->
<g id="node36" class="node">
<title>ast.Name object at 0x74c800d82cd0</title>
<path fill="#66cdaa" stroke="black" d="M1253.5,-108C1253.5,-108 1223.5,-108 1223.5,-108 1217.5,-108 1211.5,-102 1211.5,-96 1211.5,-96 1211.5,-84 1211.5,-84 1211.5,-78 1217.5,-72 1223.5,-72 1223.5,-72 1253.5,-72 1253.5,-72 1259.5,-72 1265.5,-78 1265.5,-84 1265.5,-84 1265.5,-96 1265.5,-96 1265.5,-102 1259.5,-108 1253.5,-108"/>
<text text-anchor="middle" x="1238.5" y="-86.3" font-family="Times,serif" font-size="14.00">Name</text>
</g>
<!-- ast.Call object at 0x74c8013f3190&#45;&gt;ast.Name object at 0x74c800d82cd0 -->
<g id="edge45" class="edge">
<title>ast.Call object at 0x74c8013f3190&#45;&gt;ast.Name object at 0x74c800d82cd0</title>
<path fill="none" stroke="black" d="M1168.49,-143.7C1180.31,-134.8 1194.89,-123.82 1207.68,-114.2"/>
<polygon fill="black" stroke="black" points="1209.89,-116.91 1215.78,-108.1 1205.68,-111.32 1209.89,-116.91"/>
</g>
<!-- ast.Name object at 0x74c800d82490&#45;&gt;ast.Load object at 0x74c9a1006950 -->
<g id="edge44" class="edge">
<title>ast.Name object at 0x74c800d82490&#45;&gt;ast.Load object at 0x74c9a1006950</title>
<path fill="none" stroke="black" d="M1139.34,-75.05C1136.41,-73.88 1133.42,-72.83 1130.5,-72 978.55,-28.62 788.68,-20.62 709.21,-19.24"/>
<polygon fill="black" stroke="black" points="708.79,-15.73 698.74,-19.08 708.69,-22.73 708.79,-15.73"/>
</g>
<!-- ast.Name object at 0x74c800d82cd0&#45;&gt;ast.Load object at 0x74c9a1006950 -->
<g id="edge46" class="edge">
<title>ast.Name object at 0x74c800d82cd0&#45;&gt;ast.Load object at 0x74c9a1006950</title>
<path fill="none" stroke="black" d="M1211.35,-75C1208.42,-73.85 1205.43,-72.81 1202.5,-72 1022.52,-22.12 796.72,-17.93 708.87,-18.41"/>
<polygon fill="black" stroke="black" points="708.58,-14.91 698.61,-18.49 708.64,-21.91 708.58,-14.91"/>
</g>
<!-- ast.Attribute object at 0x74c800d80e50 -->
<g id="node40" class="node">
<title>ast.Attribute object at 0x74c800d80e50</title>
<path fill="#66cdaa" stroke="black" d="M1088,-180C1088,-180 1047,-180 1047,-180 1041,-180 1035,-174 1035,-168 1035,-168 1035,-156 1035,-156 1035,-150 1041,-144 1047,-144 1047,-144 1088,-144 1088,-144 1094,-144 1100,-150 1100,-156 1100,-156 1100,-168 1100,-168 1100,-174 1094,-180 1088,-180"/>
<text text-anchor="middle" x="1067.5" y="-158.3" font-family="Times,serif" font-size="14.00">Attribute</text>
</g>
<!-- ast.Call object at 0x74c800d82210&#45;&gt;ast.Attribute object at 0x74c800d80e50 -->
<g id="edge50" class="edge">
<title>ast.Call object at 0x74c800d82210&#45;&gt;ast.Attribute object at 0x74c800d80e50</title>
<path fill="none" stroke="black" d="M1072.02,-215.7C1071.36,-207.98 1070.56,-198.71 1069.82,-190.11"/>
<polygon fill="black" stroke="black" points="1073.31,-189.77 1068.97,-180.1 1066.33,-190.37 1073.31,-189.77"/>
</g>
<!-- ast.Attribute object at 0x74c800d80e50&#45;&gt;ast.Load object at 0x74c9a1006950 -->
<g id="edge53" class="edge">
<title>ast.Attribute object at 0x74c800d80e50&#45;&gt;ast.Load object at 0x74c9a1006950</title>
<path fill="none" stroke="black" d="M1062.48,-143.77C1055.5,-123.14 1040.8,-89.21 1015.5,-72 966.06,-38.36 787.41,-25.05 708.93,-20.75"/>
<polygon fill="black" stroke="black" points="708.71,-17.23 698.54,-20.2 708.34,-24.22 708.71,-17.23"/>
</g>
<!-- ast.Name object at 0x74c800d82a10 -->
<g id="node41" class="node">
<title>ast.Name object at 0x74c800d82a10</title>
<path fill="#66cdaa" stroke="black" d="M1109.5,-108C1109.5,-108 1079.5,-108 1079.5,-108 1073.5,-108 1067.5,-102 1067.5,-96 1067.5,-96 1067.5,-84 1067.5,-84 1067.5,-78 1073.5,-72 1079.5,-72 1079.5,-72 1109.5,-72 1109.5,-72 1115.5,-72 1121.5,-78 1121.5,-84 1121.5,-84 1121.5,-96 1121.5,-96 1121.5,-102 1115.5,-108 1109.5,-108"/>
<text text-anchor="middle" x="1094.5" y="-86.3" font-family="Times,serif" font-size="14.00">Name</text>
</g>
<!-- ast.Attribute object at 0x74c800d80e50&#45;&gt;ast.Name object at 0x74c800d82a10 -->
<g id="edge51" class="edge">
<title>ast.Attribute object at 0x74c800d80e50&#45;&gt;ast.Name object at 0x74c800d82a10</title>
<path fill="none" stroke="black" d="M1074.17,-143.7C1077.21,-135.81 1080.88,-126.3 1084.26,-117.55"/>
<polygon fill="black" stroke="black" points="1087.57,-118.69 1087.9,-108.1 1081.04,-116.17 1087.57,-118.69"/>
</g>
<!-- ast.Name object at 0x74c800d82a10&#45;&gt;ast.Load object at 0x74c9a1006950 -->
<g id="edge52" class="edge">
<title>ast.Name object at 0x74c800d82a10&#45;&gt;ast.Load object at 0x74c9a1006950</title>
<path fill="none" stroke="black" d="M1067.49,-76.67C1062.89,-74.9 1058.11,-73.25 1053.5,-72 930.23,-38.49 778.52,-25.49 709.23,-21.04"/>
<polygon fill="black" stroke="black" points="709.03,-17.52 698.84,-20.4 708.6,-24.51 709.03,-17.52"/>
</g>
<!-- ast.Call object at 0x74c800d813d0 -->
<g id="node43" class="node">
<title>ast.Call object at 0x74c800d813d0</title>
<path fill="#66cdaa" stroke="black" d="M1016.5,-324C1016.5,-324 986.5,-324 986.5,-324 980.5,-324 974.5,-318 974.5,-312 974.5,-312 974.5,-300 974.5,-300 974.5,-294 980.5,-288 986.5,-288 986.5,-288 1016.5,-288 1016.5,-288 1022.5,-288 1028.5,-294 1028.5,-300 1028.5,-300 1028.5,-312 1028.5,-312 1028.5,-318 1022.5,-324 1016.5,-324"/>
<text text-anchor="middle" x="1001.5" y="-302.3" font-family="Times,serif" font-size="14.00">Call</text>
</g>
<!-- ast.Expr object at 0x74c800d812d0&#45;&gt;ast.Call object at 0x74c800d813d0 -->
<g id="edge55" class="edge">
<title>ast.Expr object at 0x74c800d812d0&#45;&gt;ast.Call object at 0x74c800d813d0</title>
<path fill="none" stroke="black" d="M1010.53,-359.7C1009.21,-351.98 1007.62,-342.71 1006.15,-334.11"/>
<polygon fill="black" stroke="black" points="1009.57,-333.37 1004.43,-324.1 1002.67,-334.55 1009.57,-333.37"/>
</g>
<!-- ast.Attribute object at 0x74c800d81250 -->
<g id="node44" class="node">
<title>ast.Attribute object at 0x74c800d81250</title>
<path fill="#66cdaa" stroke="black" d="M944,-252C944,-252 903,-252 903,-252 897,-252 891,-246 891,-240 891,-240 891,-228 891,-228 891,-222 897,-216 903,-216 903,-216 944,-216 944,-216 950,-216 956,-222 956,-228 956,-228 956,-240 956,-240 956,-246 950,-252 944,-252"/>
<text text-anchor="middle" x="923.5" y="-230.3" font-family="Times,serif" font-size="14.00">Attribute</text>
</g>
<!-- ast.Call object at 0x74c800d813d0&#45;&gt;ast.Attribute object at 0x74c800d81250 -->
<g id="edge56" class="edge">
<title>ast.Call object at 0x74c800d813d0&#45;&gt;ast.Attribute object at 0x74c800d81250</title>
<path fill="none" stroke="black" d="M982.22,-287.7C972.58,-279.05 960.77,-268.45 950.27,-259.03"/>
<polygon fill="black" stroke="black" points="952.34,-256.18 942.56,-252.1 947.66,-261.39 952.34,-256.18"/>
</g>
<!-- ast.Name object at 0x74c800d3e010 -->
<g id="node48" class="node">
<title>ast.Name object at 0x74c800d3e010</title>
<path fill="#66cdaa" stroke="black" d="M1016.5,-252C1016.5,-252 986.5,-252 986.5,-252 980.5,-252 974.5,-246 974.5,-240 974.5,-240 974.5,-228 974.5,-228 974.5,-222 980.5,-216 986.5,-216 986.5,-216 1016.5,-216 1016.5,-216 1022.5,-216 1028.5,-222 1028.5,-228 1028.5,-228 1028.5,-240 1028.5,-240 1028.5,-246 1022.5,-252 1016.5,-252"/>
<text text-anchor="middle" x="1001.5" y="-230.3" font-family="Times,serif" font-size="14.00">Name</text>
</g>
<!-- ast.Call object at 0x74c800d813d0&#45;&gt;ast.Name object at 0x74c800d3e010 -->
<g id="edge64" class="edge">
<title>ast.Call object at 0x74c800d813d0&#45;&gt;ast.Name object at 0x74c800d3e010</title>
<path fill="none" stroke="black" d="M1001.5,-287.7C1001.5,-279.98 1001.5,-270.71 1001.5,-262.11"/>
<polygon fill="black" stroke="black" points="1005,-262.1 1001.5,-252.1 998,-262.1 1005,-262.1"/>
</g>
<!-- ast.Attribute object at 0x74c800d81250&#45;&gt;ast.Load object at 0x74c9a1006950 -->
<g id="edge63" class="edge">
<title>ast.Attribute object at 0x74c800d81250&#45;&gt;ast.Load object at 0x74c9a1006950</title>
<path fill="none" stroke="black" d="M933.24,-215.67C949.9,-183.44 978.93,-113.76 944.5,-72 915.05,-36.29 776.57,-24.34 708.9,-20.59"/>
<polygon fill="black" stroke="black" points="708.84,-17.08 698.68,-20.06 708.48,-24.07 708.84,-17.08"/>
</g>
<!-- ast.Subscript object at 0x74c800d82fd0 -->
<g id="node45" class="node">
<title>ast.Subscript object at 0x74c800d82fd0</title>
<path fill="#66cdaa" stroke="black" d="M891.5,-180C891.5,-180 847.5,-180 847.5,-180 841.5,-180 835.5,-174 835.5,-168 835.5,-168 835.5,-156 835.5,-156 835.5,-150 841.5,-144 847.5,-144 847.5,-144 891.5,-144 891.5,-144 897.5,-144 903.5,-150 903.5,-156 903.5,-156 903.5,-168 903.5,-168 903.5,-174 897.5,-180 891.5,-180"/>
<text text-anchor="middle" x="869.5" y="-158.3" font-family="Times,serif" font-size="14.00">Subscript</text>
</g>
<!-- ast.Attribute object at 0x74c800d81250&#45;&gt;ast.Subscript object at 0x74c800d82fd0 -->
<g id="edge57" class="edge">
<title>ast.Attribute object at 0x74c800d81250&#45;&gt;ast.Subscript object at 0x74c800d82fd0</title>
<path fill="none" stroke="black" d="M910.15,-215.7C903.74,-207.39 895.94,-197.28 888.89,-188.14"/>
<polygon fill="black" stroke="black" points="891.57,-185.88 882.69,-180.1 886.03,-190.16 891.57,-185.88"/>
</g>
<!-- ast.Subscript object at 0x74c800d82fd0&#45;&gt;ast.Load object at 0x74c9a1006950 -->
<g id="edge62" class="edge">
<title>ast.Subscript object at 0x74c800d82fd0&#45;&gt;ast.Load object at 0x74c9a1006950</title>
<path fill="none" stroke="black" d="M846.03,-143.92C832.45,-133.8 815.2,-120.55 800.5,-108 782.81,-92.89 781.12,-85.95 762.5,-72 745.46,-59.24 725.1,-47.12 707.96,-37.7"/>
<polygon fill="black" stroke="black" points="709.27,-34.43 698.81,-32.76 705.94,-40.59 709.27,-34.43"/>
</g>
<!-- ast.Name object at 0x74c800d3e050 -->
<g id="node46" class="node">
<title>ast.Name object at 0x74c800d3e050</title>
<path fill="#66cdaa" stroke="black" d="M851.5,-108C851.5,-108 821.5,-108 821.5,-108 815.5,-108 809.5,-102 809.5,-96 809.5,-96 809.5,-84 809.5,-84 809.5,-78 815.5,-72 821.5,-72 821.5,-72 851.5,-72 851.5,-72 857.5,-72 863.5,-78 863.5,-84 863.5,-84 863.5,-96 863.5,-96 863.5,-102 857.5,-108 851.5,-108"/>
<text text-anchor="middle" x="836.5" y="-86.3" font-family="Times,serif" font-size="14.00">Name</text>
</g>
<!-- ast.Subscript object at 0x74c800d82fd0&#45;&gt;ast.Name object at 0x74c800d3e050 -->
<g id="edge58" class="edge">
<title>ast.Subscript object at 0x74c800d82fd0&#45;&gt;ast.Name object at 0x74c800d3e050</title>
<path fill="none" stroke="black" d="M861.34,-143.7C857.59,-135.73 853.05,-126.1 848.88,-117.26"/>
<polygon fill="black" stroke="black" points="851.99,-115.66 844.56,-108.1 845.66,-118.64 851.99,-115.66"/>
</g>
<!-- ast.Name object at 0x74c800d3fc50 -->
<g id="node47" class="node">
<title>ast.Name object at 0x74c800d3fc50</title>
<path fill="#66cdaa" stroke="black" d="M923.5,-108C923.5,-108 893.5,-108 893.5,-108 887.5,-108 881.5,-102 881.5,-96 881.5,-96 881.5,-84 881.5,-84 881.5,-78 887.5,-72 893.5,-72 893.5,-72 923.5,-72 923.5,-72 929.5,-72 935.5,-78 935.5,-84 935.5,-84 935.5,-96 935.5,-96 935.5,-102 929.5,-108 923.5,-108"/>
<text text-anchor="middle" x="908.5" y="-86.3" font-family="Times,serif" font-size="14.00">Name</text>
</g>
<!-- ast.Subscript object at 0x74c800d82fd0&#45;&gt;ast.Name object at 0x74c800d3fc50 -->
<g id="edge60" class="edge">
<title>ast.Subscript object at 0x74c800d82fd0&#45;&gt;ast.Name object at 0x74c800d3fc50</title>
<path fill="none" stroke="black" d="M879.14,-143.7C883.63,-135.64 889.06,-125.89 894.02,-116.98"/>
<polygon fill="black" stroke="black" points="897.16,-118.54 898.97,-108.1 891.05,-115.14 897.16,-118.54"/>
</g>
<!-- ast.Name object at 0x74c800d3e050&#45;&gt;ast.Load object at 0x74c9a1006950 -->
<g id="edge59" class="edge">
<title>ast.Name object at 0x74c800d3e050&#45;&gt;ast.Load object at 0x74c9a1006950</title>
<path fill="none" stroke="black" d="M809.25,-77.44C781.58,-65.7 738.57,-47.45 707.97,-34.47"/>
<polygon fill="black" stroke="black" points="709.09,-31.14 698.51,-30.46 706.35,-37.59 709.09,-31.14"/>
</g>
<!-- ast.Name object at 0x74c800d3fc50&#45;&gt;ast.Load object at 0x74c9a1006950 -->
<g id="edge61" class="edge">
<title>ast.Name object at 0x74c800d3fc50&#45;&gt;ast.Load object at 0x74c9a1006950</title>
<path fill="none" stroke="black" d="M881.2,-75.48C878.3,-74.23 875.36,-73.04 872.5,-72 816.55,-51.61 749.21,-35.48 708.42,-26.6"/>
<polygon fill="black" stroke="black" points="709.15,-23.18 698.64,-24.5 707.68,-30.02 709.15,-23.18"/>
</g>
<!-- ast.Name object at 0x74c800d3e010&#45;&gt;ast.Load object at 0x74c9a1006950 -->
<g id="edge65" class="edge">
<title>ast.Name object at 0x74c800d3e010&#45;&gt;ast.Load object at 0x74c9a1006950</title>
<path fill="none" stroke="black" d="M1003.26,-215.76C1005.6,-182.72 1005.5,-110.36 965.5,-72 929.28,-37.25 779.75,-24.75 708.97,-20.72"/>
<polygon fill="black" stroke="black" points="708.89,-17.21 698.72,-20.16 708.51,-24.2 708.89,-17.21"/>
</g>
<!-- ast.Name object at 0x74c800d3e290 -->
<g id="node50" class="node">
<title>ast.Name object at 0x74c800d3e290</title>
<path fill="#66cdaa" stroke="black" d="M420.5,-468C420.5,-468 390.5,-468 390.5,-468 384.5,-468 378.5,-462 378.5,-456 378.5,-456 378.5,-444 378.5,-444 378.5,-438 384.5,-432 390.5,-432 390.5,-432 420.5,-432 420.5,-432 426.5,-432 432.5,-438 432.5,-444 432.5,-444 432.5,-456 432.5,-456 432.5,-462 426.5,-468 420.5,-468"/>
<text text-anchor="middle" x="405.5" y="-446.3" font-family="Times,serif" font-size="14.00">Name</text>
</g>
<!-- ast.For object at 0x74c800d3e250&#45;&gt;ast.Name object at 0x74c800d3e290 -->
<g id="edge67" class="edge">
<title>ast.For object at 0x74c800d3e250&#45;&gt;ast.Name object at 0x74c800d3e290</title>
<path fill="none" stroke="black" d="M405.5,-503.7C405.5,-495.98 405.5,-486.71 405.5,-478.11"/>
<polygon fill="black" stroke="black" points="409,-478.1 405.5,-468.1 402,-478.1 409,-478.1"/>
</g>
<!-- ast.Call object at 0x74c800d3d650 -->
<g id="node51" class="node">
<title>ast.Call object at 0x74c800d3d650</title>
<path fill="#66cdaa" stroke="black" d="M115.5,-468C115.5,-468 85.5,-468 85.5,-468 79.5,-468 73.5,-462 73.5,-456 73.5,-456 73.5,-444 73.5,-444 73.5,-438 79.5,-432 85.5,-432 85.5,-432 115.5,-432 115.5,-432 121.5,-432 127.5,-438 127.5,-444 127.5,-444 127.5,-456 127.5,-456 127.5,-462 121.5,-468 115.5,-468"/>
<text text-anchor="middle" x="100.5" y="-446.3" font-family="Times,serif" font-size="14.00">Call</text>
</g>
<!-- ast.For object at 0x74c800d3e250&#45;&gt;ast.Call object at 0x74c800d3d650 -->
<g id="edge69" class="edge">
<title>ast.For object at 0x74c800d3e250&#45;&gt;ast.Call object at 0x74c800d3d650</title>
<path fill="none" stroke="black" d="M378.27,-507.29C375.35,-506.08 372.39,-504.95 369.5,-504 289.13,-477.56 190.68,-462.28 138,-455.42"/>
<polygon fill="black" stroke="black" points="138.15,-451.91 127.79,-454.12 137.27,-458.85 138.15,-451.91"/>
</g>
<!-- ast.AugAssign object at 0x74c800e00d10 -->
<g id="node54" class="node">
<title>ast.AugAssign object at 0x74c800e00d10</title>
<path fill="#66cdaa" stroke="black" d="M316,-468C316,-468 263,-468 263,-468 257,-468 251,-462 251,-456 251,-456 251,-444 251,-444 251,-438 257,-432 263,-432 263,-432 316,-432 316,-432 322,-432 328,-438 328,-444 328,-444 328,-456 328,-456 328,-462 322,-468 316,-468"/>
<text text-anchor="middle" x="289.5" y="-446.3" font-family="Times,serif" font-size="14.00">AugAssign</text>
</g>
<!-- ast.For object at 0x74c800d3e250&#45;&gt;ast.AugAssign object at 0x74c800e00d10 -->
<g id="edge74" class="edge">
<title>ast.For object at 0x74c800d3e250&#45;&gt;ast.AugAssign object at 0x74c800e00d10</title>
<path fill="none" stroke="black" d="M378.3,-504.59C362.93,-495.31 343.5,-483.59 326.74,-473.47"/>
<polygon fill="black" stroke="black" points="328.11,-470.21 317.74,-468.04 324.49,-476.2 328.11,-470.21"/>
</g>
<!-- ast.Name object at 0x74c800d3e290&#45;&gt;ast.Store object at 0x74c9a10069d0 -->
<g id="edge68" class="edge">
<title>ast.Name object at 0x74c800d3e290&#45;&gt;ast.Store object at 0x74c9a10069d0</title>
<path fill="none" stroke="black" d="M414.7,-431.91C424.67,-413.72 441.33,-384.28 457.5,-360 463.64,-350.79 470.79,-341.03 477.35,-332.44"/>
<polygon fill="black" stroke="black" points="480.3,-334.34 483.64,-324.29 474.75,-330.07 480.3,-334.34"/>
</g>
<!-- ast.Attribute object at 0x74c80673a710 -->
<g id="node52" class="node">
<title>ast.Attribute object at 0x74c80673a710</title>
<path fill="#66cdaa" stroke="black" d="M53,-180C53,-180 12,-180 12,-180 6,-180 0,-174 0,-168 0,-168 0,-156 0,-156 0,-150 6,-144 12,-144 12,-144 53,-144 53,-144 59,-144 65,-150 65,-156 65,-156 65,-168 65,-168 65,-174 59,-180 53,-180"/>
<text text-anchor="middle" x="32.5" y="-158.3" font-family="Times,serif" font-size="14.00">Attribute</text>
</g>
<!-- ast.Call object at 0x74c800d3d650&#45;&gt;ast.Attribute object at 0x74c80673a710 -->
<g id="edge70" class="edge">
<title>ast.Call object at 0x74c800d3d650&#45;&gt;ast.Attribute object at 0x74c80673a710</title>
<path fill="none" stroke="black" d="M96.45,-431.97C85.09,-384.19 52.86,-248.62 38.98,-190.27"/>
<polygon fill="black" stroke="black" points="42.33,-189.23 36.61,-180.31 35.52,-190.84 42.33,-189.23"/>
</g>
<!-- ast.Attribute object at 0x74c80673a710&#45;&gt;ast.Load object at 0x74c9a1006950 -->
<g id="edge73" class="edge">
<title>ast.Attribute object at 0x74c80673a710&#45;&gt;ast.Load object at 0x74c9a1006950</title>
<path fill="none" stroke="black" d="M44.24,-143.97C60.75,-120.56 90.59,-80.39 106.5,-72 198.62,-23.41 523.97,-18.93 634.46,-18.84"/>
<polygon fill="black" stroke="black" points="634.47,-22.34 644.47,-18.85 634.47,-15.34 634.47,-22.34"/>
</g>
<!-- ast.Name object at 0x74c800e9c390 -->
<g id="node53" class="node">
<title>ast.Name object at 0x74c800e9c390</title>
<path fill="#66cdaa" stroke="black" d="M47.5,-108C47.5,-108 17.5,-108 17.5,-108 11.5,-108 5.5,-102 5.5,-96 5.5,-96 5.5,-84 5.5,-84 5.5,-78 11.5,-72 17.5,-72 17.5,-72 47.5,-72 47.5,-72 53.5,-72 59.5,-78 59.5,-84 59.5,-84 59.5,-96 59.5,-96 59.5,-102 53.5,-108 47.5,-108"/>
<text text-anchor="middle" x="32.5" y="-86.3" font-family="Times,serif" font-size="14.00">Name</text>
</g>
<!-- ast.Attribute object at 0x74c80673a710&#45;&gt;ast.Name object at 0x74c800e9c390 -->
<g id="edge71" class="edge">
<title>ast.Attribute object at 0x74c80673a710&#45;&gt;ast.Name object at 0x74c800e9c390</title>
<path fill="none" stroke="black" d="M32.5,-143.7C32.5,-135.98 32.5,-126.71 32.5,-118.11"/>
<polygon fill="black" stroke="black" points="36,-118.1 32.5,-108.1 29,-118.1 36,-118.1"/>
</g>
<!-- ast.Name object at 0x74c800e9c390&#45;&gt;ast.Load object at 0x74c9a1006950 -->
<g id="edge72" class="edge">
<title>ast.Name object at 0x74c800e9c390&#45;&gt;ast.Load object at 0x74c9a1006950</title>
<path fill="none" stroke="black" d="M59.9,-76.3C64.37,-74.62 69.01,-73.1 73.5,-72 280.61,-21.16 538.67,-17.73 633.93,-18.4"/>
<polygon fill="black" stroke="black" points="634.17,-21.91 644.2,-18.5 634.23,-14.91 634.17,-21.91"/>
</g>
<!-- ast.Name object at 0x74c800e02510 -->
<g id="node55" class="node">
<title>ast.Name object at 0x74c800e02510</title>
<path fill="#66cdaa" stroke="black" d="M398.5,-396C398.5,-396 368.5,-396 368.5,-396 362.5,-396 356.5,-390 356.5,-384 356.5,-384 356.5,-372 356.5,-372 356.5,-366 362.5,-360 368.5,-360 368.5,-360 398.5,-360 398.5,-360 404.5,-360 410.5,-366 410.5,-372 410.5,-372 410.5,-384 410.5,-384 410.5,-390 404.5,-396 398.5,-396"/>
<text text-anchor="middle" x="383.5" y="-374.3" font-family="Times,serif" font-size="14.00">Name</text>
</g>
<!-- ast.AugAssign object at 0x74c800e00d10&#45;&gt;ast.Name object at 0x74c800e02510 -->
<g id="edge75" class="edge">
<title>ast.AugAssign object at 0x74c800e00d10&#45;&gt;ast.Name object at 0x74c800e02510</title>
<path fill="none" stroke="black" d="M312.74,-431.7C324.69,-422.8 339.42,-411.82 352.35,-402.2"/>
<polygon fill="black" stroke="black" points="354.6,-404.88 360.53,-396.1 350.42,-399.27 354.6,-404.88"/>
</g>
<!-- ast.Add object at 0x74c9a1006e50 -->
<g id="node56" class="node">
<title>ast.Add object at 0x74c9a1006e50</title>
<path fill="#66cdaa" stroke="black" d="M288.5,-396C288.5,-396 258.5,-396 258.5,-396 252.5,-396 246.5,-390 246.5,-384 246.5,-384 246.5,-372 246.5,-372 246.5,-366 252.5,-360 258.5,-360 258.5,-360 288.5,-360 288.5,-360 294.5,-360 300.5,-366 300.5,-372 300.5,-372 300.5,-384 300.5,-384 300.5,-390 294.5,-396 288.5,-396"/>
<text text-anchor="middle" x="273.5" y="-374.3" font-family="Times,serif" font-size="14.00">Add</text>
</g>
<!-- ast.AugAssign object at 0x74c800e00d10&#45;&gt;ast.Add object at 0x74c9a1006e50 -->
<g id="edge77" class="edge">
<title>ast.AugAssign object at 0x74c800e00d10&#45;&gt;ast.Add object at 0x74c9a1006e50</title>
<path fill="none" stroke="black" d="M285.54,-431.7C283.78,-423.98 281.66,-414.71 279.7,-406.11"/>
<polygon fill="black" stroke="black" points="283.05,-405.07 277.41,-396.1 276.23,-406.63 283.05,-405.07"/>
</g>
<!-- ast.BinOp object at 0x74c800d6f550 -->
<g id="node57" class="node">
<title>ast.BinOp object at 0x74c800d6f550</title>
<path fill="#66cdaa" stroke="black" d="M210.5,-396C210.5,-396 180.5,-396 180.5,-396 174.5,-396 168.5,-390 168.5,-384 168.5,-384 168.5,-372 168.5,-372 168.5,-366 174.5,-360 180.5,-360 180.5,-360 210.5,-360 210.5,-360 216.5,-360 222.5,-366 222.5,-372 222.5,-372 222.5,-384 222.5,-384 222.5,-390 216.5,-396 210.5,-396"/>
<text text-anchor="middle" x="195.5" y="-374.3" font-family="Times,serif" font-size="14.00">BinOp</text>
</g>
<!-- ast.AugAssign object at 0x74c800e00d10&#45;&gt;ast.BinOp object at 0x74c800d6f550 -->
<g id="edge78" class="edge">
<title>ast.AugAssign object at 0x74c800e00d10&#45;&gt;ast.BinOp object at 0x74c800d6f550</title>
<path fill="none" stroke="black" d="M266.26,-431.7C254.31,-422.8 239.58,-411.82 226.65,-402.2"/>
<polygon fill="black" stroke="black" points="228.58,-399.27 218.47,-396.1 224.4,-404.88 228.58,-399.27"/>
</g>
<!-- ast.Name object at 0x74c800e02510&#45;&gt;ast.Store object at 0x74c9a10069d0 -->
<g id="edge76" class="edge">
<title>ast.Name object at 0x74c800e02510&#45;&gt;ast.Store object at 0x74c9a10069d0</title>
<path fill="none" stroke="black" d="M410.52,-360.41C425.74,-351.06 444.95,-339.27 461.44,-329.14"/>
<polygon fill="black" stroke="black" points="463.59,-331.93 470.28,-323.71 459.93,-325.96 463.59,-331.93"/>
</g>
<!-- ast.BinOp object at 0x74c800d6ea50 -->
<g id="node58" class="node">
<title>ast.BinOp object at 0x74c800d6ea50</title>
<path fill="#66cdaa" stroke="black" d="M208.5,-324C208.5,-324 178.5,-324 178.5,-324 172.5,-324 166.5,-318 166.5,-312 166.5,-312 166.5,-300 166.5,-300 166.5,-294 172.5,-288 178.5,-288 178.5,-288 208.5,-288 208.5,-288 214.5,-288 220.5,-294 220.5,-300 220.5,-300 220.5,-312 220.5,-312 220.5,-318 214.5,-324 208.5,-324"/>
<text text-anchor="middle" x="193.5" y="-302.3" font-family="Times,serif" font-size="14.00">BinOp</text>
</g>
<!-- ast.BinOp object at 0x74c800d6f550&#45;&gt;ast.BinOp object at 0x74c800d6ea50 -->
<g id="edge79" class="edge">
<title>ast.BinOp object at 0x74c800d6f550&#45;&gt;ast.BinOp object at 0x74c800d6ea50</title>
<path fill="none" stroke="black" d="M195.01,-359.7C194.79,-351.98 194.52,-342.71 194.27,-334.11"/>
<polygon fill="black" stroke="black" points="197.77,-334 193.99,-324.1 190.78,-334.2 197.77,-334"/>
</g>
<!-- ast.FloorDiv object at 0x74c9a10074d0 -->
<g id="node69" class="node">
<title>ast.FloorDiv object at 0x74c9a10074d0</title>
<path fill="#66cdaa" stroke="black" d="M292.5,-324C292.5,-324 250.5,-324 250.5,-324 244.5,-324 238.5,-318 238.5,-312 238.5,-312 238.5,-300 238.5,-300 238.5,-294 244.5,-288 250.5,-288 250.5,-288 292.5,-288 292.5,-288 298.5,-288 304.5,-294 304.5,-300 304.5,-300 304.5,-312 304.5,-312 304.5,-318 298.5,-324 292.5,-324"/>
<text text-anchor="middle" x="271.5" y="-302.3" font-family="Times,serif" font-size="14.00">FloorDiv</text>
</g>
<!-- ast.BinOp object at 0x74c800d6f550&#45;&gt;ast.FloorDiv object at 0x74c9a10074d0 -->
<g id="edge94" class="edge">
<title>ast.BinOp object at 0x74c800d6f550&#45;&gt;ast.FloorDiv object at 0x74c9a10074d0</title>
<path fill="none" stroke="black" d="M214.29,-359.7C223.67,-351.05 235.18,-340.45 245.41,-331.03"/>
<polygon fill="black" stroke="black" points="247.95,-333.45 252.93,-324.1 243.2,-328.3 247.95,-333.45"/>
</g>
<!-- ast.Constant object at 0x74c800d5a450 -->
<g id="node70" class="node">
<title>ast.Constant object at 0x74c800d5a450</title>
<path fill="#66cdaa" stroke="black" d="M136,-324C136,-324 95,-324 95,-324 89,-324 83,-318 83,-312 83,-312 83,-300 83,-300 83,-294 89,-288 95,-288 95,-288 136,-288 136,-288 142,-288 148,-294 148,-300 148,-300 148,-312 148,-312 148,-318 142,-324 136,-324"/>
<text text-anchor="middle" x="115.5" y="-302.3" font-family="Times,serif" font-size="14.00">Constant</text>
</g>
<!-- ast.BinOp object at 0x74c800d6f550&#45;&gt;ast.Constant object at 0x74c800d5a450 -->
<g id="edge95" class="edge">
<title>ast.BinOp object at 0x74c800d6f550&#45;&gt;ast.Constant object at 0x74c800d5a450</title>
<path fill="none" stroke="black" d="M175.72,-359.7C165.75,-350.97 153.49,-340.24 142.64,-330.75"/>
<polygon fill="black" stroke="black" points="144.88,-328.06 135.05,-324.1 140.27,-333.32 144.88,-328.06"/>
</g>
<!-- ast.Call object at 0x74c800d6db90 -->
<g id="node59" class="node">
<title>ast.Call object at 0x74c800d6db90</title>
<path fill="#66cdaa" stroke="black" d="M352.5,-180C352.5,-180 322.5,-180 322.5,-180 316.5,-180 310.5,-174 310.5,-168 310.5,-168 310.5,-156 310.5,-156 310.5,-150 316.5,-144 322.5,-144 322.5,-144 352.5,-144 352.5,-144 358.5,-144 364.5,-150 364.5,-156 364.5,-156 364.5,-168 364.5,-168 364.5,-174 358.5,-180 352.5,-180"/>
<text text-anchor="middle" x="337.5" y="-158.3" font-family="Times,serif" font-size="14.00">Call</text>
</g>
<!-- ast.BinOp object at 0x74c800d6ea50&#45;&gt;ast.Call object at 0x74c800d6db90 -->
<g id="edge80" class="edge">
<title>ast.BinOp object at 0x74c800d6ea50&#45;&gt;ast.Call object at 0x74c800d6db90</title>
<path fill="none" stroke="black" d="M220.87,-290.9C237.79,-281.36 259.28,-267.66 275.5,-252 294.82,-233.34 311.86,-207.84 323.16,-188.91"/>
<polygon fill="black" stroke="black" points="326.22,-190.62 328.24,-180.21 320.18,-187.09 326.22,-190.62"/>
</g>
<!-- ast.Mult object at 0x74c9a1006f50 -->
<g id="node62" class="node">
<title>ast.Mult object at 0x74c9a1006f50</title>
<path fill="#66cdaa" stroke="black" d="M254.5,-252C254.5,-252 224.5,-252 224.5,-252 218.5,-252 212.5,-246 212.5,-240 212.5,-240 212.5,-228 212.5,-228 212.5,-222 218.5,-216 224.5,-216 224.5,-216 254.5,-216 254.5,-216 260.5,-216 266.5,-222 266.5,-228 266.5,-228 266.5,-240 266.5,-240 266.5,-246 260.5,-252 254.5,-252"/>
<text text-anchor="middle" x="239.5" y="-230.3" font-family="Times,serif" font-size="14.00">Mult</text>
</g>
<!-- ast.BinOp object at 0x74c800d6ea50&#45;&gt;ast.Mult object at 0x74c9a1006f50 -->
<g id="edge85" class="edge">
<title>ast.BinOp object at 0x74c800d6ea50&#45;&gt;ast.Mult object at 0x74c9a1006f50</title>
<path fill="none" stroke="black" d="M204.87,-287.7C210.22,-279.56 216.7,-269.69 222.61,-260.7"/>
<polygon fill="black" stroke="black" points="225.69,-262.38 228.26,-252.1 219.84,-258.54 225.69,-262.38"/>
</g>
<!-- ast.BinOp object at 0x74c8016e23d0 -->
<g id="node63" class="node">
<title>ast.BinOp object at 0x74c8016e23d0</title>
<path fill="#66cdaa" stroke="black" d="M182.5,-252C182.5,-252 152.5,-252 152.5,-252 146.5,-252 140.5,-246 140.5,-240 140.5,-240 140.5,-228 140.5,-228 140.5,-222 146.5,-216 152.5,-216 152.5,-216 182.5,-216 182.5,-216 188.5,-216 194.5,-222 194.5,-228 194.5,-228 194.5,-240 194.5,-240 194.5,-246 188.5,-252 182.5,-252"/>
<text text-anchor="middle" x="167.5" y="-230.3" font-family="Times,serif" font-size="14.00">BinOp</text>
</g>
<!-- ast.BinOp object at 0x74c800d6ea50&#45;&gt;ast.BinOp object at 0x74c8016e23d0 -->
<g id="edge86" class="edge">
<title>ast.BinOp object at 0x74c800d6ea50&#45;&gt;ast.BinOp object at 0x74c8016e23d0</title>
<path fill="none" stroke="black" d="M187.07,-287.7C184.14,-279.81 180.61,-270.3 177.36,-261.55"/>
<polygon fill="black" stroke="black" points="180.62,-260.26 173.85,-252.1 174.05,-262.7 180.62,-260.26"/>
</g>
<!-- ast.Name object at 0x74c800ea9ad0 -->
<g id="node60" class="node">
<title>ast.Name object at 0x74c800ea9ad0</title>
<path fill="#66cdaa" stroke="black" d="M373.5,-108C373.5,-108 343.5,-108 343.5,-108 337.5,-108 331.5,-102 331.5,-96 331.5,-96 331.5,-84 331.5,-84 331.5,-78 337.5,-72 343.5,-72 343.5,-72 373.5,-72 373.5,-72 379.5,-72 385.5,-78 385.5,-84 385.5,-84 385.5,-96 385.5,-96 385.5,-102 379.5,-108 373.5,-108"/>
<text text-anchor="middle" x="358.5" y="-86.3" font-family="Times,serif" font-size="14.00">Name</text>
</g>
<!-- ast.Call object at 0x74c800d6db90&#45;&gt;ast.Name object at 0x74c800ea9ad0 -->
<g id="edge81" class="edge">
<title>ast.Call object at 0x74c800d6db90&#45;&gt;ast.Name object at 0x74c800ea9ad0</title>
<path fill="none" stroke="black" d="M342.69,-143.7C345.03,-135.9 347.85,-126.51 350.45,-117.83"/>
<polygon fill="black" stroke="black" points="353.85,-118.69 353.37,-108.1 347.14,-116.68 353.85,-118.69"/>
</g>
<!-- ast.Name object at 0x74c800eab190 -->
<g id="node61" class="node">
<title>ast.Name object at 0x74c800eab190</title>
<path fill="#66cdaa" stroke="black" d="M301.5,-108C301.5,-108 271.5,-108 271.5,-108 265.5,-108 259.5,-102 259.5,-96 259.5,-96 259.5,-84 259.5,-84 259.5,-78 265.5,-72 271.5,-72 271.5,-72 301.5,-72 301.5,-72 307.5,-72 313.5,-78 313.5,-84 313.5,-84 313.5,-96 313.5,-96 313.5,-102 307.5,-108 301.5,-108"/>
<text text-anchor="middle" x="286.5" y="-86.3" font-family="Times,serif" font-size="14.00">Name</text>
</g>
<!-- ast.Call object at 0x74c800d6db90&#45;&gt;ast.Name object at 0x74c800eab190 -->
<g id="edge83" class="edge">
<title>ast.Call object at 0x74c800d6db90&#45;&gt;ast.Name object at 0x74c800eab190</title>
<path fill="none" stroke="black" d="M324.89,-143.7C318.9,-135.47 311.62,-125.48 305.02,-116.42"/>
<polygon fill="black" stroke="black" points="307.68,-114.13 298.96,-108.1 302.02,-118.25 307.68,-114.13"/>
</g>
<!-- ast.Name object at 0x74c800ea9ad0&#45;&gt;ast.Load object at 0x74c9a1006950 -->
<g id="edge82" class="edge">
<title>ast.Name object at 0x74c800ea9ad0&#45;&gt;ast.Load object at 0x74c9a1006950</title>
<path fill="none" stroke="black" d="M385.73,-75.27C388.65,-74.06 391.61,-72.94 394.5,-72 477.86,-44.83 580.13,-29.74 634.07,-23.12"/>
<polygon fill="black" stroke="black" points="634.68,-26.57 644.19,-21.91 633.85,-19.62 634.68,-26.57"/>
</g>
<!-- ast.Name object at 0x74c800eab190&#45;&gt;ast.Load object at 0x74c9a1006950 -->
<g id="edge84" class="edge">
<title>ast.Name object at 0x74c800eab190&#45;&gt;ast.Load object at 0x74c9a1006950</title>
<path fill="none" stroke="black" d="M313.69,-75.16C316.62,-73.97 319.59,-72.89 322.5,-72 432.73,-38.39 569.31,-25.56 634.07,-21.12"/>
<polygon fill="black" stroke="black" points="634.45,-24.6 644.2,-20.45 633.99,-17.61 634.45,-24.6"/>
</g>
<!-- ast.Call object at 0x74c800efc210 -->
<g id="node64" class="node">
<title>ast.Call object at 0x74c800efc210</title>
<path fill="#66cdaa" stroke="black" d="M208.5,-180C208.5,-180 178.5,-180 178.5,-180 172.5,-180 166.5,-174 166.5,-168 166.5,-168 166.5,-156 166.5,-156 166.5,-150 172.5,-144 178.5,-144 178.5,-144 208.5,-144 208.5,-144 214.5,-144 220.5,-150 220.5,-156 220.5,-156 220.5,-168 220.5,-168 220.5,-174 214.5,-180 208.5,-180"/>
<text text-anchor="middle" x="193.5" y="-158.3" font-family="Times,serif" font-size="14.00">Call</text>
</g>
<!-- ast.BinOp object at 0x74c8016e23d0&#45;&gt;ast.Call object at 0x74c800efc210 -->
<g id="edge87" class="edge">
<title>ast.BinOp object at 0x74c8016e23d0&#45;&gt;ast.Call object at 0x74c800efc210</title>
<path fill="none" stroke="black" d="M173.93,-215.7C176.86,-207.81 180.39,-198.3 183.64,-189.55"/>
<polygon fill="black" stroke="black" points="186.95,-190.7 187.15,-180.1 180.38,-188.26 186.95,-190.7"/>
</g>
<!-- ast.Sub object at 0x74c9a1006ed0 -->
<g id="node67" class="node">
<title>ast.Sub object at 0x74c9a1006ed0</title>
<path fill="#66cdaa" stroke="black" d="M280.5,-180C280.5,-180 250.5,-180 250.5,-180 244.5,-180 238.5,-174 238.5,-168 238.5,-168 238.5,-156 238.5,-156 238.5,-150 244.5,-144 250.5,-144 250.5,-144 280.5,-144 280.5,-144 286.5,-144 292.5,-150 292.5,-156 292.5,-156 292.5,-168 292.5,-168 292.5,-174 286.5,-180 280.5,-180"/>
<text text-anchor="middle" x="265.5" y="-158.3" font-family="Times,serif" font-size="14.00">Sub</text>
</g>
<!-- ast.BinOp object at 0x74c8016e23d0&#45;&gt;ast.Sub object at 0x74c9a1006ed0 -->
<g id="edge92" class="edge">
<title>ast.BinOp object at 0x74c8016e23d0&#45;&gt;ast.Sub object at 0x74c9a1006ed0</title>
<path fill="none" stroke="black" d="M191.47,-215.88C204.05,-206.89 219.63,-195.76 233.25,-186.03"/>
<polygon fill="black" stroke="black" points="235.33,-188.85 241.43,-180.19 231.26,-183.15 235.33,-188.85"/>
</g>
<!-- ast.Constant object at 0x74c800d5a990 -->
<g id="node68" class="node">
<title>ast.Constant object at 0x74c800d5a990</title>
<path fill="#66cdaa" stroke="black" d="M136,-180C136,-180 95,-180 95,-180 89,-180 83,-174 83,-168 83,-168 83,-156 83,-156 83,-150 89,-144 95,-144 95,-144 136,-144 136,-144 142,-144 148,-150 148,-156 148,-156 148,-168 148,-168 148,-174 142,-180 136,-180"/>
<text text-anchor="middle" x="115.5" y="-158.3" font-family="Times,serif" font-size="14.00">Constant</text>
</g>
<!-- ast.BinOp object at 0x74c8016e23d0&#45;&gt;ast.Constant object at 0x74c800d5a990 -->
<g id="edge93" class="edge">
<title>ast.BinOp object at 0x74c8016e23d0&#45;&gt;ast.Constant object at 0x74c800d5a990</title>
<path fill="none" stroke="black" d="M154.65,-215.7C148.47,-207.39 140.96,-197.28 134.18,-188.14"/>
<polygon fill="black" stroke="black" points="136.98,-186.04 128.21,-180.1 131.36,-190.22 136.98,-186.04"/>
</g>
<!-- ast.Name object at 0x74c8010c0290 -->
<g id="node65" class="node">
<title>ast.Name object at 0x74c8010c0290</title>
<path fill="#66cdaa" stroke="black" d="M229.5,-108C229.5,-108 199.5,-108 199.5,-108 193.5,-108 187.5,-102 187.5,-96 187.5,-96 187.5,-84 187.5,-84 187.5,-78 193.5,-72 199.5,-72 199.5,-72 229.5,-72 229.5,-72 235.5,-72 241.5,-78 241.5,-84 241.5,-84 241.5,-96 241.5,-96 241.5,-102 235.5,-108 229.5,-108"/>
<text text-anchor="middle" x="214.5" y="-86.3" font-family="Times,serif" font-size="14.00">Name</text>
</g>
<!-- ast.Call object at 0x74c800efc210&#45;&gt;ast.Name object at 0x74c8010c0290 -->
<g id="edge88" class="edge">
<title>ast.Call object at 0x74c800efc210&#45;&gt;ast.Name object at 0x74c8010c0290</title>
<path fill="none" stroke="black" d="M198.69,-143.7C201.03,-135.9 203.85,-126.51 206.45,-117.83"/>
<polygon fill="black" stroke="black" points="209.85,-118.69 209.37,-108.1 203.14,-116.68 209.85,-118.69"/>
</g>
<!-- ast.Name object at 0x74c800d59790 -->
<g id="node66" class="node">
<title>ast.Name object at 0x74c800d59790</title>
<path fill="#66cdaa" stroke="black" d="M157.5,-108C157.5,-108 127.5,-108 127.5,-108 121.5,-108 115.5,-102 115.5,-96 115.5,-96 115.5,-84 115.5,-84 115.5,-78 121.5,-72 127.5,-72 127.5,-72 157.5,-72 157.5,-72 163.5,-72 169.5,-78 169.5,-84 169.5,-84 169.5,-96 169.5,-96 169.5,-102 163.5,-108 157.5,-108"/>
<text text-anchor="middle" x="142.5" y="-86.3" font-family="Times,serif" font-size="14.00">Name</text>
</g>
<!-- ast.Call object at 0x74c800efc210&#45;&gt;ast.Name object at 0x74c800d59790 -->
<g id="edge90" class="edge">
<title>ast.Call object at 0x74c800efc210&#45;&gt;ast.Name object at 0x74c800d59790</title>
<path fill="none" stroke="black" d="M180.89,-143.7C174.9,-135.47 167.62,-125.48 161.02,-116.42"/>
<polygon fill="black" stroke="black" points="163.68,-114.13 154.96,-108.1 158.02,-118.25 163.68,-114.13"/>
</g>
<!-- ast.Name object at 0x74c8010c0290&#45;&gt;ast.Load object at 0x74c9a1006950 -->
<g id="edge89" class="edge">
<title>ast.Name object at 0x74c8010c0290&#45;&gt;ast.Load object at 0x74c9a1006950</title>
<path fill="none" stroke="black" d="M241.67,-75.08C244.6,-73.91 247.58,-72.85 250.5,-72 388.03,-31.97 559.51,-22.18 634.03,-19.78"/>
<polygon fill="black" stroke="black" points="634.41,-23.27 644.31,-19.47 634.21,-16.27 634.41,-23.27"/>
</g>
<!-- ast.Name object at 0x74c800d59790&#45;&gt;ast.Load object at 0x74c9a1006950 -->
<g id="edge91" class="edge">
<title>ast.Name object at 0x74c800d59790&#45;&gt;ast.Load object at 0x74c9a1006950</title>
<path fill="none" stroke="black" d="M169.65,-75.03C172.59,-73.87 175.57,-72.82 178.5,-72 343.83,-25.51 550.89,-19.29 634.22,-18.81"/>
<polygon fill="black" stroke="black" points="634.47,-22.31 644.45,-18.78 634.44,-15.31 634.47,-22.31"/>
</g>
<!-- ast.Compare object at 0x74c800d59dd0 -->
<g id="node72" class="node">
<title>ast.Compare object at 0x74c800d59dd0</title>
<path fill="#66cdaa" stroke="black" d="M772,-468C772,-468 729,-468 729,-468 723,-468 717,-462 717,-456 717,-456 717,-444 717,-444 717,-438 723,-432 729,-432 729,-432 772,-432 772,-432 778,-432 784,-438 784,-444 784,-444 784,-456 784,-456 784,-462 778,-468 772,-468"/>
<text text-anchor="middle" x="750.5" y="-446.3" font-family="Times,serif" font-size="14.00">Compare</text>
</g>
<!-- ast.Return object at 0x74c800d58c90&#45;&gt;ast.Compare object at 0x74c800d59dd0 -->
<g id="edge97" class="edge">
<title>ast.Return object at 0x74c800d58c90&#45;&gt;ast.Compare object at 0x74c800d59dd0</title>
<path fill="none" stroke="black" d="M730.17,-503.7C733.21,-495.81 736.88,-486.3 740.26,-477.55"/>
<polygon fill="black" stroke="black" points="743.57,-478.69 743.9,-468.1 737.04,-476.17 743.57,-478.69"/>
</g>
<!-- ast.Name object at 0x74c800d5a890 -->
<g id="node73" class="node">
<title>ast.Name object at 0x74c800d5a890</title>
<path fill="#66cdaa" stroke="black" d="M588.5,-324C588.5,-324 558.5,-324 558.5,-324 552.5,-324 546.5,-318 546.5,-312 546.5,-312 546.5,-300 546.5,-300 546.5,-294 552.5,-288 558.5,-288 558.5,-288 588.5,-288 588.5,-288 594.5,-288 600.5,-294 600.5,-300 600.5,-300 600.5,-312 600.5,-312 600.5,-318 594.5,-324 588.5,-324"/>
<text text-anchor="middle" x="573.5" y="-302.3" font-family="Times,serif" font-size="14.00">Name</text>
</g>
<!-- ast.Compare object at 0x74c800d59dd0&#45;&gt;ast.Name object at 0x74c800d5a890 -->
<g id="edge98" class="edge">
<title>ast.Compare object at 0x74c800d59dd0&#45;&gt;ast.Name object at 0x74c800d5a890</title>
<path fill="none" stroke="black" d="M784.03,-438.36C815.09,-427.74 857.89,-410.9 867.5,-396 876.17,-382.55 877.99,-372.08 867.5,-360 830.28,-317.11 669.27,-338.99 614.5,-324 613.06,-323.61 611.6,-323.17 610.14,-322.71"/>
<polygon fill="black" stroke="black" points="611.11,-319.34 600.51,-319.32 608.78,-325.94 611.11,-319.34"/>
</g>
<!-- ast.LtE object at 0x74c9a1007ad0 -->
<g id="node74" class="node">
<title>ast.LtE object at 0x74c9a1007ad0</title>
<path fill="#66cdaa" stroke="black" d="M652.5,-396C652.5,-396 622.5,-396 622.5,-396 616.5,-396 610.5,-390 610.5,-384 610.5,-384 610.5,-372 610.5,-372 610.5,-366 616.5,-360 622.5,-360 622.5,-360 652.5,-360 652.5,-360 658.5,-360 664.5,-366 664.5,-372 664.5,-372 664.5,-384 664.5,-384 664.5,-390 658.5,-396 652.5,-396"/>
<text text-anchor="middle" x="637.5" y="-374.3" font-family="Times,serif" font-size="14.00">LtE</text>
</g>
<!-- ast.Compare object at 0x74c800d59dd0&#45;&gt;ast.LtE object at 0x74c9a1007ad0 -->
<g id="edge100" class="edge">
<title>ast.Compare object at 0x74c800d59dd0&#45;&gt;ast.LtE object at 0x74c9a1007ad0</title>
<path fill="none" stroke="black" d="M722.86,-431.88C707.97,-422.66 689.43,-411.17 673.44,-401.26"/>
<polygon fill="black" stroke="black" points="675.2,-398.24 664.86,-395.95 671.52,-404.19 675.2,-398.24"/>
</g>
<!-- ast.Constant object at 0x74c800d5a390 -->
<g id="node75" class="node">
<title>ast.Constant object at 0x74c800d5a390</title>
<path fill="#66cdaa" stroke="black" d="M736,-396C736,-396 695,-396 695,-396 689,-396 683,-390 683,-384 683,-384 683,-372 683,-372 683,-366 689,-360 695,-360 695,-360 736,-360 736,-360 742,-360 748,-366 748,-372 748,-372 748,-384 748,-384 748,-390 742,-396 736,-396"/>
<text text-anchor="middle" x="715.5" y="-374.3" font-family="Times,serif" font-size="14.00">Constant</text>
</g>
<!-- ast.Compare object at 0x74c800d59dd0&#45;&gt;ast.Constant object at 0x74c800d5a390 -->
<g id="edge101" class="edge">
<title>ast.Compare object at 0x74c800d59dd0&#45;&gt;ast.Constant object at 0x74c800d5a390</title>
<path fill="none" stroke="black" d="M741.85,-431.7C737.86,-423.73 733.05,-414.1 728.63,-405.26"/>
<polygon fill="black" stroke="black" points="731.65,-403.48 724.05,-396.1 725.39,-406.61 731.65,-403.48"/>
</g>
<!-- ast.Name object at 0x74c800d5a890&#45;&gt;ast.Load object at 0x74c9a1006950 -->
<g id="edge99" class="edge">
<title>ast.Name object at 0x74c800d5a890&#45;&gt;ast.Load object at 0x74c9a1006950</title>
<path fill="none" stroke="black" d="M576.18,-287.99C582.78,-248.63 601.86,-148.77 636.5,-72 640.74,-62.6 646.55,-53 652.22,-44.59"/>
<polygon fill="black" stroke="black" points="655.14,-46.52 658.01,-36.32 649.41,-42.51 655.14,-46.52"/>
</g>
</g>
</svg>
