<?xml version="1.0" encoding="UTF-8" standalone="no"?>
<!DOCTYPE svg PUBLIC "-//W3C//DTD SVG 1.1//EN"
 "http://www.w3.org/Graphics/SVG/1.1/DTD/svg11.dtd">
<!-- Generated by graphviz version 2.50.0 (0)
 -->
<!-- Pages: 1 -->
<svg width="1665pt" height="764pt"
 viewBox="0.00 0.00 1664.50 764.00" xmlns="http://www.w3.org/2000/svg" xmlns:xlink="http://www.w3.org/1999/xlink">
<g id="graph0" class="graph" transform="scale(1 1) rotate(0) translate(4 760)">
<polygon fill="white" stroke="transparent" points="-4,4 -4,-760 1660.5,-760 1660.5,4 -4,4"/>
<!-- ast.Module object at 0x74c8020a9290 -->
<g id="node1" class="node">
<title>ast.Module object at 0x74c8020a9290</title>
<path fill="#66cdaa" stroke="black" d="M355,-756C355,-756 320,-756 320,-756 314,-756 308,-750 308,-744 308,-744 308,-732 308,-732 308,-726 314,-720 320,-720 320,-720 355,-720 355,-720 361,-720 367,-726 367,-732 367,-732 367,-744 367,-744 367,-750 361,-756 355,-756"/>
<text text-anchor="middle" x="337.5" y="-734.3" font-family="Times,serif" font-size="14.00">Module</text>
</g>
<!-- ast.FunctionDef object at 0x74c8020a9410 -->
<g id="node2" class="node">
<title>ast.FunctionDef object at 0x74c8020a9410</title>
<path fill="#66cdaa" stroke="black" d="M368,-684C368,-684 307,-684 307,-684 301,-684 295,-678 295,-672 295,-672 295,-660 295,-660 295,-654 301,-648 307,-648 307,-648 368,-648 368,-648 374,-648 380,-654 380,-660 380,-660 380,-672 380,-672 380,-678 374,-684 368,-684"/>
<text text-anchor="middle" x="337.5" y="-662.3" font-family="Times,serif" font-size="14.00">FunctionDef</text>
</g>
<!-- ast.Module object at 0x74c8020a9290&#45;&gt;ast.FunctionDef object at 0x74c8020a9410 -->
<g id="edge1" class="edge">
<title>ast.Module object at 0x74c8020a9290&#45;&gt;ast.FunctionDef object at 0x74c8020a9410</title>
<path fill="none" stroke="black" d="M337.5,-719.7C337.5,-711.98 337.5,-702.71 337.5,-694.11"/>
<polygon fill="black" stroke="black" points="341,-694.1 337.5,-684.1 334,-694.1 341,-694.1"/>
</g>
<!-- ast.arguments object at 0x74c8020a82d0 -->
<g id="node3" class="node">
<title>ast.arguments object at 0x74c8020a82d0</title>
<path fill="#66cdaa" stroke="black" d="M161.5,-612C161.5,-612 111.5,-612 111.5,-612 105.5,-612 99.5,-606 99.5,-600 99.5,-600 99.5,-588 99.5,-588 99.5,-582 105.5,-576 111.5,-576 111.5,-576 161.5,-576 161.5,-576 167.5,-576 173.5,-582 173.5,-588 173.5,-588 173.5,-600 173.5,-600 173.5,-606 167.5,-612 161.5,-612"/>
<text text-anchor="middle" x="136.5" y="-590.3" font-family="Times,serif" font-size="14.00">arguments</text>
</g>
<!-- ast.FunctionDef object at 0x74c8020a9410&#45;&gt;ast.arguments object at 0x74c8020a82d0 -->
<g id="edge2" class="edge">
<title>ast.FunctionDef object at 0x74c8020a9410&#45;&gt;ast.arguments object at 0x74c8020a82d0</title>
<path fill="none" stroke="black" d="M294.87,-650.15C262.15,-638.76 217.01,-623.04 183.29,-611.29"/>
<polygon fill="black" stroke="black" points="184.25,-607.92 173.66,-607.94 181.95,-614.54 184.25,-607.92"/>
</g>
<!-- ast.Assign object at 0x74c8020ab950 -->
<g id="node5" class="node">
<title>ast.Assign object at 0x74c8020ab950</title>
<path fill="#66cdaa" stroke="black" d="M255.5,-612C255.5,-612 225.5,-612 225.5,-612 219.5,-612 213.5,-606 213.5,-600 213.5,-600 213.5,-588 213.5,-588 213.5,-582 219.5,-576 225.5,-576 225.5,-576 255.5,-576 255.5,-576 261.5,-576 267.5,-582 267.5,-588 267.5,-588 267.5,-600 267.5,-600 267.5,-606 261.5,-612 255.5,-612"/>
<text text-anchor="middle" x="240.5" y="-590.3" font-family="Times,serif" font-size="14.00">Assign</text>
</g>
<!-- ast.FunctionDef object at 0x74c8020a9410&#45;&gt;ast.Assign object at 0x74c8020ab950 -->
<g id="edge4" class="edge">
<title>ast.FunctionDef object at 0x74c8020a9410&#45;&gt;ast.Assign object at 0x74c8020ab950</title>
<path fill="none" stroke="black" d="M313.52,-647.7C301.19,-638.8 285.98,-627.82 272.65,-618.2"/>
<polygon fill="black" stroke="black" points="274.36,-615.12 264.2,-612.1 270.26,-620.79 274.36,-615.12"/>
</g>
<!-- ast.Assign object at 0x74c8020a9310 -->
<g id="node9" class="node">
<title>ast.Assign object at 0x74c8020a9310</title>
<path fill="#66cdaa" stroke="black" d="M352.5,-612C352.5,-612 322.5,-612 322.5,-612 316.5,-612 310.5,-606 310.5,-600 310.5,-600 310.5,-588 310.5,-588 310.5,-582 316.5,-576 322.5,-576 322.5,-576 352.5,-576 352.5,-576 358.5,-576 364.5,-582 364.5,-588 364.5,-588 364.5,-600 364.5,-600 364.5,-606 358.5,-612 352.5,-612"/>
<text text-anchor="middle" x="337.5" y="-590.3" font-family="Times,serif" font-size="14.00">Assign</text>
</g>
<!-- ast.FunctionDef object at 0x74c8020a9410&#45;&gt;ast.Assign object at 0x74c8020a9310 -->
<g id="edge8" class="edge">
<title>ast.FunctionDef object at 0x74c8020a9410&#45;&gt;ast.Assign object at 0x74c8020a9310</title>
<path fill="none" stroke="black" d="M337.5,-647.7C337.5,-639.98 337.5,-630.71 337.5,-622.11"/>
<polygon fill="black" stroke="black" points="341,-622.1 337.5,-612.1 334,-622.1 341,-622.1"/>
</g>
<!-- ast.For object at 0x74c8020a8c10 -->
<g id="node12" class="node">
<title>ast.For object at 0x74c8020a8c10</title>
<path fill="#66cdaa" stroke="black" d="M472.5,-612C472.5,-612 442.5,-612 442.5,-612 436.5,-612 430.5,-606 430.5,-600 430.5,-600 430.5,-588 430.5,-588 430.5,-582 436.5,-576 442.5,-576 442.5,-576 472.5,-576 472.5,-576 478.5,-576 484.5,-582 484.5,-588 484.5,-588 484.5,-600 484.5,-600 484.5,-606 478.5,-612 472.5,-612"/>
<text text-anchor="middle" x="457.5" y="-590.3" font-family="Times,serif" font-size="14.00">For</text>
</g>
<!-- ast.FunctionDef object at 0x74c8020a9410&#45;&gt;ast.For object at 0x74c8020a8c10 -->
<g id="edge12" class="edge">
<title>ast.FunctionDef object at 0x74c8020a9410&#45;&gt;ast.For object at 0x74c8020a8c10</title>
<path fill="none" stroke="black" d="M366.86,-647.88C383.4,-638.23 404.19,-626.1 421.69,-615.89"/>
<polygon fill="black" stroke="black" points="423.63,-618.81 430.5,-610.75 420.1,-612.77 423.63,-618.81"/>
</g>
<!-- ast.Return object at 0x74c8020e3690 -->
<g id="node64" class="node">
<title>ast.Return object at 0x74c8020e3690</title>
<path fill="#66cdaa" stroke="black" d="M964.5,-612C964.5,-612 934.5,-612 934.5,-612 928.5,-612 922.5,-606 922.5,-600 922.5,-600 922.5,-588 922.5,-588 922.5,-582 928.5,-576 934.5,-576 934.5,-576 964.5,-576 964.5,-576 970.5,-576 976.5,-582 976.5,-588 976.5,-588 976.5,-600 976.5,-600 976.5,-606 970.5,-612 964.5,-612"/>
<text text-anchor="middle" x="949.5" y="-590.3" font-family="Times,serif" font-size="14.00">Return</text>
</g>
<!-- ast.FunctionDef object at 0x74c8020a9410&#45;&gt;ast.Return object at 0x74c8020e3690 -->
<g id="edge91" class="edge">
<title>ast.FunctionDef object at 0x74c8020a9410&#45;&gt;ast.Return object at 0x74c8020e3690</title>
<path fill="none" stroke="black" d="M380.05,-660.13C494.03,-647.1 804.89,-611.54 912.36,-599.25"/>
<polygon fill="black" stroke="black" points="912.87,-602.71 922.4,-598.1 912.07,-595.76 912.87,-602.71"/>
</g>
<!-- ast.arg object at 0x74c8020a9810 -->
<g id="node4" class="node">
<title>ast.arg object at 0x74c8020a9810</title>
<path fill="#66cdaa" stroke="black" d="M128.5,-540C128.5,-540 98.5,-540 98.5,-540 92.5,-540 86.5,-534 86.5,-528 86.5,-528 86.5,-516 86.5,-516 86.5,-510 92.5,-504 98.5,-504 98.5,-504 128.5,-504 128.5,-504 134.5,-504 140.5,-510 140.5,-516 140.5,-516 140.5,-528 140.5,-528 140.5,-534 134.5,-540 128.5,-540"/>
<text text-anchor="middle" x="113.5" y="-518.3" font-family="Times,serif" font-size="14.00">arg</text>
</g>
<!-- ast.arguments object at 0x74c8020a82d0&#45;&gt;ast.arg object at 0x74c8020a9810 -->
<g id="edge3" class="edge">
<title>ast.arguments object at 0x74c8020a82d0&#45;&gt;ast.arg object at 0x74c8020a9810</title>
<path fill="none" stroke="black" d="M130.81,-575.7C128.25,-567.9 125.17,-558.51 122.32,-549.83"/>
<polygon fill="black" stroke="black" points="125.57,-548.51 119.12,-540.1 118.92,-550.7 125.57,-548.51"/>
</g>
<!-- ast.Name object at 0x74c8020a9510 -->
<g id="node6" class="node">
<title>ast.Name object at 0x74c8020a9510</title>
<path fill="#66cdaa" stroke="black" d="M253.5,-396C253.5,-396 223.5,-396 223.5,-396 217.5,-396 211.5,-390 211.5,-384 211.5,-384 211.5,-372 211.5,-372 211.5,-366 217.5,-360 223.5,-360 223.5,-360 253.5,-360 253.5,-360 259.5,-360 265.5,-366 265.5,-372 265.5,-372 265.5,-384 265.5,-384 265.5,-390 259.5,-396 253.5,-396"/>
<text text-anchor="middle" x="238.5" y="-374.3" font-family="Times,serif" font-size="14.00">Name</text>
</g>
<!-- ast.Assign object at 0x74c8020ab950&#45;&gt;ast.Name object at 0x74c8020a9510 -->
<g id="edge5" class="edge">
<title>ast.Assign object at 0x74c8020ab950&#45;&gt;ast.Name object at 0x74c8020a9510</title>
<path fill="none" stroke="black" d="M240.34,-575.85C239.99,-538.83 239.17,-451.18 238.76,-406.39"/>
<polygon fill="black" stroke="black" points="242.25,-406.2 238.66,-396.23 235.25,-406.26 242.25,-406.2"/>
</g>
<!-- ast.Dict object at 0x74c8020a9710 -->
<g id="node8" class="node">
<title>ast.Dict object at 0x74c8020a9710</title>
<path fill="#66cdaa" stroke="black" d="M200.5,-540C200.5,-540 170.5,-540 170.5,-540 164.5,-540 158.5,-534 158.5,-528 158.5,-528 158.5,-516 158.5,-516 158.5,-510 164.5,-504 170.5,-504 170.5,-504 200.5,-504 200.5,-504 206.5,-504 212.5,-510 212.5,-516 212.5,-516 212.5,-528 212.5,-528 212.5,-534 206.5,-540 200.5,-540"/>
<text text-anchor="middle" x="185.5" y="-518.3" font-family="Times,serif" font-size="14.00">Dict</text>
</g>
<!-- ast.Assign object at 0x74c8020ab950&#45;&gt;ast.Dict object at 0x74c8020a9710 -->
<g id="edge7" class="edge">
<title>ast.Assign object at 0x74c8020ab950&#45;&gt;ast.Dict object at 0x74c8020a9710</title>
<path fill="none" stroke="black" d="M226.9,-575.7C220.38,-567.39 212.43,-557.28 205.25,-548.14"/>
<polygon fill="black" stroke="black" points="207.87,-545.81 198.94,-540.1 202.37,-550.13 207.87,-545.81"/>
</g>
<!-- ast.Store object at 0x74c9a10069d0 -->
<g id="node7" class="node">
<title>ast.Store object at 0x74c9a10069d0</title>
<path fill="#66cdaa" stroke="black" d="M557.5,-108C557.5,-108 527.5,-108 527.5,-108 521.5,-108 515.5,-102 515.5,-96 515.5,-96 515.5,-84 515.5,-84 515.5,-78 521.5,-72 527.5,-72 527.5,-72 557.5,-72 557.5,-72 563.5,-72 569.5,-78 569.5,-84 569.5,-84 569.5,-96 569.5,-96 569.5,-102 563.5,-108 557.5,-108"/>
<text text-anchor="middle" x="542.5" y="-86.3" font-family="Times,serif" font-size="14.00">Store</text>
</g>
<!-- ast.Name object at 0x74c8020a9510&#45;&gt;ast.Store object at 0x74c9a10069d0 -->
<g id="edge6" class="edge">
<title>ast.Name object at 0x74c8020a9510&#45;&gt;ast.Store object at 0x74c9a10069d0</title>
<path fill="none" stroke="black" d="M237.97,-359.83C237.63,-316.45 243.18,-201.82 307.5,-144 373.36,-84.79 418.79,-133.87 503.5,-108 504.22,-107.78 504.93,-107.55 505.66,-107.32"/>
<polygon fill="black" stroke="black" points="506.9,-110.59 515.1,-103.87 504.51,-104.01 506.9,-110.59"/>
</g>
<!-- ast.Name object at 0x74c8020a8f90 -->
<g id="node10" class="node">
<title>ast.Name object at 0x74c8020a8f90</title>
<path fill="#66cdaa" stroke="black" d="M343.5,-396C343.5,-396 313.5,-396 313.5,-396 307.5,-396 301.5,-390 301.5,-384 301.5,-384 301.5,-372 301.5,-372 301.5,-366 307.5,-360 313.5,-360 313.5,-360 343.5,-360 343.5,-360 349.5,-360 355.5,-366 355.5,-372 355.5,-372 355.5,-384 355.5,-384 355.5,-390 349.5,-396 343.5,-396"/>
<text text-anchor="middle" x="328.5" y="-374.3" font-family="Times,serif" font-size="14.00">Name</text>
</g>
<!-- ast.Assign object at 0x74c8020a9310&#45;&gt;ast.Name object at 0x74c8020a8f90 -->
<g id="edge9" class="edge">
<title>ast.Assign object at 0x74c8020a9310&#45;&gt;ast.Name object at 0x74c8020a8f90</title>
<path fill="none" stroke="black" d="M339.53,-575.84C340.65,-565.48 341.94,-552 342.5,-540 344.72,-492.91 337.99,-438.29 333.11,-406.3"/>
<polygon fill="black" stroke="black" points="336.56,-405.69 331.54,-396.36 329.64,-406.79 336.56,-405.69"/>
</g>
<!-- ast.Constant object at 0x74c8020ab810 -->
<g id="node11" class="node">
<title>ast.Constant object at 0x74c8020ab810</title>
<path fill="#66cdaa" stroke="black" d="M322,-540C322,-540 281,-540 281,-540 275,-540 269,-534 269,-528 269,-528 269,-516 269,-516 269,-510 275,-504 281,-504 281,-504 322,-504 322,-504 328,-504 334,-510 334,-516 334,-516 334,-528 334,-528 334,-534 328,-540 322,-540"/>
<text text-anchor="middle" x="301.5" y="-518.3" font-family="Times,serif" font-size="14.00">Constant</text>
</g>
<!-- ast.Assign object at 0x74c8020a9310&#45;&gt;ast.Constant object at 0x74c8020ab810 -->
<g id="edge11" class="edge">
<title>ast.Assign object at 0x74c8020a9310&#45;&gt;ast.Constant object at 0x74c8020ab810</title>
<path fill="none" stroke="black" d="M328.6,-575.7C324.5,-567.73 319.55,-558.1 315.01,-549.26"/>
<polygon fill="black" stroke="black" points="317.98,-547.4 310.3,-540.1 311.76,-550.6 317.98,-547.4"/>
</g>
<!-- ast.Name object at 0x74c8020a8f90&#45;&gt;ast.Store object at 0x74c9a10069d0 -->
<g id="edge10" class="edge">
<title>ast.Name object at 0x74c8020a8f90&#45;&gt;ast.Store object at 0x74c9a10069d0</title>
<path fill="none" stroke="black" d="M313.75,-359.63C306.41,-349.85 298.31,-337.01 294.5,-324 277.18,-264.92 310.96,-162.78 330.5,-144 387.13,-89.58 428.66,-131.82 503.5,-108 504.36,-107.73 505.23,-107.44 506.1,-107.14"/>
<polygon fill="black" stroke="black" points="507.36,-110.41 515.5,-103.62 504.91,-103.85 507.36,-110.41"/>
</g>
<!-- ast.Name object at 0x74c8020abd50 -->
<g id="node13" class="node">
<title>ast.Name object at 0x74c8020abd50</title>
<path fill="#66cdaa" stroke="black" d="M345.5,-324C345.5,-324 315.5,-324 315.5,-324 309.5,-324 303.5,-318 303.5,-312 303.5,-312 303.5,-300 303.5,-300 303.5,-294 309.5,-288 315.5,-288 315.5,-288 345.5,-288 345.5,-288 351.5,-288 357.5,-294 357.5,-300 357.5,-300 357.5,-312 357.5,-312 357.5,-318 351.5,-324 345.5,-324"/>
<text text-anchor="middle" x="330.5" y="-302.3" font-family="Times,serif" font-size="14.00">Name</text>
</g>
<!-- ast.For object at 0x74c8020a8c10&#45;&gt;ast.Name object at 0x74c8020abd50 -->
<g id="edge13" class="edge">
<title>ast.For object at 0x74c8020a8c10&#45;&gt;ast.Name object at 0x74c8020abd50</title>
<path fill="none" stroke="black" d="M451.91,-575.84C438.87,-536.6 404.44,-437.66 364.5,-360 359.75,-350.76 353.84,-341.09 348.29,-332.56"/>
<polygon fill="black" stroke="black" points="351.16,-330.55 342.7,-324.17 345.33,-334.43 351.16,-330.55"/>
</g>
<!-- ast.Name object at 0x74c8020abfd0 -->
<g id="node14" class="node">
<title>ast.Name object at 0x74c8020abfd0</title>
<path fill="#66cdaa" stroke="black" d="M1516.5,-396C1516.5,-396 1486.5,-396 1486.5,-396 1480.5,-396 1474.5,-390 1474.5,-384 1474.5,-384 1474.5,-372 1474.5,-372 1474.5,-366 1480.5,-360 1486.5,-360 1486.5,-360 1516.5,-360 1516.5,-360 1522.5,-360 1528.5,-366 1528.5,-372 1528.5,-372 1528.5,-384 1528.5,-384 1528.5,-390 1522.5,-396 1516.5,-396"/>
<text text-anchor="middle" x="1501.5" y="-374.3" font-family="Times,serif" font-size="14.00">Name</text>
</g>
<!-- ast.For object at 0x74c8020a8c10&#45;&gt;ast.Name object at 0x74c8020abfd0 -->
<g id="edge15" class="edge">
<title>ast.For object at 0x74c8020a8c10&#45;&gt;ast.Name object at 0x74c8020abfd0</title>
<path fill="none" stroke="black" d="M484.62,-587.44C628.07,-558.04 1298.07,-420.7 1464.17,-386.65"/>
<polygon fill="black" stroke="black" points="1465.28,-390 1474.37,-384.56 1463.87,-383.14 1465.28,-390"/>
</g>
<!-- ast.Assign object at 0x74c8020abe10 -->
<g id="node16" class="node">
<title>ast.Assign object at 0x74c8020abe10</title>
<path fill="#66cdaa" stroke="black" d="M560.5,-540C560.5,-540 530.5,-540 530.5,-540 524.5,-540 518.5,-534 518.5,-528 518.5,-528 518.5,-516 518.5,-516 518.5,-510 524.5,-504 530.5,-504 530.5,-504 560.5,-504 560.5,-504 566.5,-504 572.5,-510 572.5,-516 572.5,-516 572.5,-528 572.5,-528 572.5,-534 566.5,-540 560.5,-540"/>
<text text-anchor="middle" x="545.5" y="-518.3" font-family="Times,serif" font-size="14.00">Assign</text>
</g>
<!-- ast.For object at 0x74c8020a8c10&#45;&gt;ast.Assign object at 0x74c8020abe10 -->
<g id="edge17" class="edge">
<title>ast.For object at 0x74c8020a8c10&#45;&gt;ast.Assign object at 0x74c8020abe10</title>
<path fill="none" stroke="black" d="M479.25,-575.7C490.34,-566.88 503.97,-556.03 515.99,-546.47"/>
<polygon fill="black" stroke="black" points="518.35,-549.07 524,-540.1 513.99,-543.59 518.35,-549.07"/>
</g>
<!-- ast.If object at 0x74c8021b1550 -->
<g id="node28" class="node">
<title>ast.If object at 0x74c8021b1550</title>
<path fill="#66cdaa" stroke="black" d="M472.5,-396C472.5,-396 442.5,-396 442.5,-396 436.5,-396 430.5,-390 430.5,-384 430.5,-384 430.5,-372 430.5,-372 430.5,-366 436.5,-360 442.5,-360 442.5,-360 472.5,-360 472.5,-360 478.5,-360 484.5,-366 484.5,-372 484.5,-372 484.5,-384 484.5,-384 484.5,-390 478.5,-396 472.5,-396"/>
<text text-anchor="middle" x="457.5" y="-374.3" font-family="Times,serif" font-size="14.00">If</text>
</g>
<!-- ast.For object at 0x74c8020a8c10&#45;&gt;ast.If object at 0x74c8021b1550 -->
<g id="edge36" class="edge">
<title>ast.For object at 0x74c8020a8c10&#45;&gt;ast.If object at 0x74c8021b1550</title>
<path fill="none" stroke="black" d="M457.5,-575.85C457.5,-538.83 457.5,-451.18 457.5,-406.39"/>
<polygon fill="black" stroke="black" points="461,-406.23 457.5,-396.23 454,-406.23 461,-406.23"/>
</g>
<!-- ast.Name object at 0x74c8020abd50&#45;&gt;ast.Store object at 0x74c9a10069d0 -->
<g id="edge14" class="edge">
<title>ast.Name object at 0x74c8020abd50&#45;&gt;ast.Store object at 0x74c9a10069d0</title>
<path fill="none" stroke="black" d="M327.35,-287.93C322.35,-254.86 316.82,-181.98 356.5,-144 405.09,-97.49 439.77,-129.52 503.5,-108 504.36,-107.71 505.22,-107.41 506.09,-107.1"/>
<polygon fill="black" stroke="black" points="507.38,-110.35 515.46,-103.49 504.87,-103.82 507.38,-110.35"/>
</g>
<!-- ast.Load object at 0x74c9a1006950 -->
<g id="node15" class="node">
<title>ast.Load object at 0x74c9a1006950</title>
<path fill="#66cdaa" stroke="black" d="M1038.5,-36C1038.5,-36 1008.5,-36 1008.5,-36 1002.5,-36 996.5,-30 996.5,-24 996.5,-24 996.5,-12 996.5,-12 996.5,-6 1002.5,0 1008.5,0 1008.5,0 1038.5,0 1038.5,0 1044.5,0 1050.5,-6 1050.5,-12 1050.5,-12 1050.5,-24 1050.5,-24 1050.5,-30 1044.5,-36 1038.5,-36"/>
<text text-anchor="middle" x="1023.5" y="-14.3" font-family="Times,serif" font-size="14.00">Load</text>
</g>
<!-- ast.Name object at 0x74c8020abfd0&#45;&gt;ast.Load object at 0x74c9a1006950 -->
<g id="edge16" class="edge">
<title>ast.Name object at 0x74c8020abfd0&#45;&gt;ast.Load object at 0x74c9a1006950</title>
<path fill="none" stroke="black" d="M1528.64,-360.54C1563.2,-337.25 1618.5,-291.22 1618.5,-235 1618.5,-235 1618.5,-235 1618.5,-161 1618.5,-118.81 1618.96,-97.69 1585.5,-72 1543.95,-40.1 1179.82,-24.52 1060.9,-20.25"/>
<polygon fill="black" stroke="black" points="1060.93,-16.74 1050.81,-19.89 1060.69,-23.74 1060.93,-16.74"/>
</g>
<!-- ast.Name object at 0x74c8020abed0 -->
<g id="node17" class="node">
<title>ast.Name object at 0x74c8020abed0</title>
<path fill="#66cdaa" stroke="black" d="M560.5,-324C560.5,-324 530.5,-324 530.5,-324 524.5,-324 518.5,-318 518.5,-312 518.5,-312 518.5,-300 518.5,-300 518.5,-294 524.5,-288 530.5,-288 530.5,-288 560.5,-288 560.5,-288 566.5,-288 572.5,-294 572.5,-300 572.5,-300 572.5,-312 572.5,-312 572.5,-318 566.5,-324 560.5,-324"/>
<text text-anchor="middle" x="545.5" y="-302.3" font-family="Times,serif" font-size="14.00">Name</text>
</g>
<!-- ast.Assign object at 0x74c8020abe10&#45;&gt;ast.Name object at 0x74c8020abed0 -->
<g id="edge18" class="edge">
<title>ast.Assign object at 0x74c8020abe10&#45;&gt;ast.Name object at 0x74c8020abed0</title>
<path fill="none" stroke="black" d="M545.5,-503.85C545.5,-466.83 545.5,-379.18 545.5,-334.39"/>
<polygon fill="black" stroke="black" points="549,-334.23 545.5,-324.23 542,-334.23 549,-334.23"/>
</g>
<!-- ast.Call object at 0x74c8020abf10 -->
<g id="node18" class="node">
<title>ast.Call object at 0x74c8020abf10</title>
<path fill="#66cdaa" stroke="black" d="M976.5,-468C976.5,-468 946.5,-468 946.5,-468 940.5,-468 934.5,-462 934.5,-456 934.5,-456 934.5,-444 934.5,-444 934.5,-438 940.5,-432 946.5,-432 946.5,-432 976.5,-432 976.5,-432 982.5,-432 988.5,-438 988.5,-444 988.5,-444 988.5,-456 988.5,-456 988.5,-462 982.5,-468 976.5,-468"/>
<text text-anchor="middle" x="961.5" y="-446.3" font-family="Times,serif" font-size="14.00">Call</text>
</g>
<!-- ast.Assign object at 0x74c8020abe10&#45;&gt;ast.Call object at 0x74c8020abf10 -->
<g id="edge20" class="edge">
<title>ast.Assign object at 0x74c8020abe10&#45;&gt;ast.Call object at 0x74c8020abf10</title>
<path fill="none" stroke="black" d="M572.79,-516.41C645.17,-504.23 842.04,-471.1 924.45,-457.23"/>
<polygon fill="black" stroke="black" points="925.1,-460.68 934.38,-455.56 923.93,-453.77 925.1,-460.68"/>
</g>
<!-- ast.Name object at 0x74c8020abed0&#45;&gt;ast.Store object at 0x74c9a10069d0 -->
<g id="edge19" class="edge">
<title>ast.Name object at 0x74c8020abed0&#45;&gt;ast.Store object at 0x74c9a10069d0</title>
<path fill="none" stroke="black" d="M545.26,-287.85C544.74,-250.83 543.51,-163.18 542.88,-118.39"/>
<polygon fill="black" stroke="black" points="546.38,-118.18 542.74,-108.23 539.38,-118.28 546.38,-118.18"/>
</g>
<!-- ast.Attribute object at 0x74c8020abe90 -->
<g id="node19" class="node">
<title>ast.Attribute object at 0x74c8020abe90</title>
<path fill="#66cdaa" stroke="black" d="M1393,-396C1393,-396 1352,-396 1352,-396 1346,-396 1340,-390 1340,-384 1340,-384 1340,-372 1340,-372 1340,-366 1346,-360 1352,-360 1352,-360 1393,-360 1393,-360 1399,-360 1405,-366 1405,-372 1405,-372 1405,-384 1405,-384 1405,-390 1399,-396 1393,-396"/>
<text text-anchor="middle" x="1372.5" y="-374.3" font-family="Times,serif" font-size="14.00">Attribute</text>
</g>
<!-- ast.Call object at 0x74c8020abf10&#45;&gt;ast.Attribute object at 0x74c8020abe90 -->
<g id="edge21" class="edge">
<title>ast.Call object at 0x74c8020abf10&#45;&gt;ast.Attribute object at 0x74c8020abe90</title>
<path fill="none" stroke="black" d="M988.79,-444.35C1058.83,-432.42 1245.42,-400.64 1329.89,-386.26"/>
<polygon fill="black" stroke="black" points="1330.64,-389.68 1339.91,-384.55 1329.47,-382.78 1330.64,-389.68"/>
</g>
<!-- ast.Attribute object at 0x74c8020abe90&#45;&gt;ast.Load object at 0x74c9a1006950 -->
<g id="edge35" class="edge">
<title>ast.Attribute object at 0x74c8020abe90&#45;&gt;ast.Load object at 0x74c9a1006950</title>
<path fill="none" stroke="black" d="M1405.46,-370.45C1464.11,-356.65 1580.5,-318.73 1580.5,-235 1580.5,-235 1580.5,-235 1580.5,-161 1580.5,-120.55 1591.66,-98.95 1561.5,-72 1524.26,-38.72 1177.01,-24.14 1061.02,-20.17"/>
<polygon fill="black" stroke="black" points="1060.96,-16.67 1050.85,-19.83 1060.73,-23.67 1060.96,-16.67"/>
</g>
<!-- ast.Call object at 0x74c8020abd90 -->
<g id="node20" class="node">
<title>ast.Call object at 0x74c8020abd90</title>
<path fill="#66cdaa" stroke="black" d="M1387.5,-324C1387.5,-324 1357.5,-324 1357.5,-324 1351.5,-324 1345.5,-318 1345.5,-312 1345.5,-312 1345.5,-300 1345.5,-300 1345.5,-294 1351.5,-288 1357.5,-288 1357.5,-288 1387.5,-288 1387.5,-288 1393.5,-288 1399.5,-294 1399.5,-300 1399.5,-300 1399.5,-312 1399.5,-312 1399.5,-318 1393.5,-324 1387.5,-324"/>
<text text-anchor="middle" x="1372.5" y="-302.3" font-family="Times,serif" font-size="14.00">Call</text>
</g>
<!-- ast.Attribute object at 0x74c8020abe90&#45;&gt;ast.Call object at 0x74c8020abd90 -->
<g id="edge22" class="edge">
<title>ast.Attribute object at 0x74c8020abe90&#45;&gt;ast.Call object at 0x74c8020abd90</title>
<path fill="none" stroke="black" d="M1372.5,-359.7C1372.5,-351.98 1372.5,-342.71 1372.5,-334.11"/>
<polygon fill="black" stroke="black" points="1376,-334.1 1372.5,-324.1 1369,-334.1 1376,-334.1"/>
</g>
<!-- ast.Attribute object at 0x74c8020abdd0 -->
<g id="node21" class="node">
<title>ast.Attribute object at 0x74c8020abdd0</title>
<path fill="#66cdaa" stroke="black" d="M1343,-252C1343,-252 1302,-252 1302,-252 1296,-252 1290,-246 1290,-240 1290,-240 1290,-228 1290,-228 1290,-222 1296,-216 1302,-216 1302,-216 1343,-216 1343,-216 1349,-216 1355,-222 1355,-228 1355,-228 1355,-240 1355,-240 1355,-246 1349,-252 1343,-252"/>
<text text-anchor="middle" x="1322.5" y="-230.3" font-family="Times,serif" font-size="14.00">Attribute</text>
</g>
<!-- ast.Call object at 0x74c8020abd90&#45;&gt;ast.Attribute object at 0x74c8020abdd0 -->
<g id="edge23" class="edge">
<title>ast.Call object at 0x74c8020abd90&#45;&gt;ast.Attribute object at 0x74c8020abdd0</title>
<path fill="none" stroke="black" d="M1360.14,-287.7C1354.27,-279.47 1347.13,-269.48 1340.66,-260.42"/>
<polygon fill="black" stroke="black" points="1343.38,-258.21 1334.72,-252.1 1337.68,-262.28 1343.38,-258.21"/>
</g>
<!-- ast.Call object at 0x74c8021b1950 -->
<g id="node23" class="node">
<title>ast.Call object at 0x74c8021b1950</title>
<path fill="#66cdaa" stroke="black" d="M1443.5,-252C1443.5,-252 1413.5,-252 1413.5,-252 1407.5,-252 1401.5,-246 1401.5,-240 1401.5,-240 1401.5,-228 1401.5,-228 1401.5,-222 1407.5,-216 1413.5,-216 1413.5,-216 1443.5,-216 1443.5,-216 1449.5,-216 1455.5,-222 1455.5,-228 1455.5,-228 1455.5,-240 1455.5,-240 1455.5,-246 1449.5,-252 1443.5,-252"/>
<text text-anchor="middle" x="1428.5" y="-230.3" font-family="Times,serif" font-size="14.00">Call</text>
</g>
<!-- ast.Call object at 0x74c8020abd90&#45;&gt;ast.Call object at 0x74c8021b1950 -->
<g id="edge26" class="edge">
<title>ast.Call object at 0x74c8020abd90&#45;&gt;ast.Call object at 0x74c8021b1950</title>
<path fill="none" stroke="black" d="M1386.34,-287.7C1392.99,-279.39 1401.08,-269.28 1408.39,-260.14"/>
<polygon fill="black" stroke="black" points="1411.3,-262.1 1414.82,-252.1 1405.84,-257.73 1411.3,-262.1"/>
</g>
<!-- ast.Attribute object at 0x74c8020abdd0&#45;&gt;ast.Load object at 0x74c9a1006950 -->
<g id="edge25" class="edge">
<title>ast.Attribute object at 0x74c8020abdd0&#45;&gt;ast.Load object at 0x74c9a1006950</title>
<path fill="none" stroke="black" d="M1326.35,-215.76C1332.54,-183.06 1340.55,-111.72 1303.5,-72 1271.07,-37.23 1129.48,-24.79 1060.94,-20.76"/>
<polygon fill="black" stroke="black" points="1060.78,-17.24 1050.6,-20.18 1060.39,-24.23 1060.78,-17.24"/>
</g>
<!-- ast.Constant object at 0x74c8020abf90 -->
<g id="node22" class="node">
<title>ast.Constant object at 0x74c8020abf90</title>
<path fill="#66cdaa" stroke="black" d="M1282,-180C1282,-180 1241,-180 1241,-180 1235,-180 1229,-174 1229,-168 1229,-168 1229,-156 1229,-156 1229,-150 1235,-144 1241,-144 1241,-144 1282,-144 1282,-144 1288,-144 1294,-150 1294,-156 1294,-156 1294,-168 1294,-168 1294,-174 1288,-180 1282,-180"/>
<text text-anchor="middle" x="1261.5" y="-158.3" font-family="Times,serif" font-size="14.00">Constant</text>
</g>
<!-- ast.Attribute object at 0x74c8020abdd0&#45;&gt;ast.Constant object at 0x74c8020abf90 -->
<g id="edge24" class="edge">
<title>ast.Attribute object at 0x74c8020abdd0&#45;&gt;ast.Constant object at 0x74c8020abf90</title>
<path fill="none" stroke="black" d="M1307.42,-215.7C1300.11,-207.3 1291.19,-197.07 1283.16,-187.86"/>
<polygon fill="black" stroke="black" points="1285.61,-185.34 1276.41,-180.1 1280.34,-189.94 1285.61,-185.34"/>
</g>
<!-- ast.Name object at 0x74c8021b1290 -->
<g id="node24" class="node">
<title>ast.Name object at 0x74c8021b1290</title>
<path fill="#66cdaa" stroke="black" d="M1540.5,-108C1540.5,-108 1510.5,-108 1510.5,-108 1504.5,-108 1498.5,-102 1498.5,-96 1498.5,-96 1498.5,-84 1498.5,-84 1498.5,-78 1504.5,-72 1510.5,-72 1510.5,-72 1540.5,-72 1540.5,-72 1546.5,-72 1552.5,-78 1552.5,-84 1552.5,-84 1552.5,-96 1552.5,-96 1552.5,-102 1546.5,-108 1540.5,-108"/>
<text text-anchor="middle" x="1525.5" y="-86.3" font-family="Times,serif" font-size="14.00">Name</text>
</g>
<!-- ast.Call object at 0x74c8021b1950&#45;&gt;ast.Name object at 0x74c8021b1290 -->
<g id="edge27" class="edge">
<title>ast.Call object at 0x74c8021b1950&#45;&gt;ast.Name object at 0x74c8021b1290</title>
<path fill="none" stroke="black" d="M1455.71,-217.72C1469.97,-208.47 1486.68,-195.47 1497.5,-180 1510.44,-161.49 1517.59,-136.75 1521.42,-118.05"/>
<polygon fill="black" stroke="black" points="1524.88,-118.57 1523.27,-108.1 1518,-117.29 1524.88,-118.57"/>
</g>
<!-- ast.Attribute object at 0x74c8021b1850 -->
<g id="node25" class="node">
<title>ast.Attribute object at 0x74c8021b1850</title>
<path fill="#66cdaa" stroke="black" d="M1476,-180C1476,-180 1435,-180 1435,-180 1429,-180 1423,-174 1423,-168 1423,-168 1423,-156 1423,-156 1423,-150 1429,-144 1435,-144 1435,-144 1476,-144 1476,-144 1482,-144 1488,-150 1488,-156 1488,-156 1488,-168 1488,-168 1488,-174 1482,-180 1476,-180"/>
<text text-anchor="middle" x="1455.5" y="-158.3" font-family="Times,serif" font-size="14.00">Attribute</text>
</g>
<!-- ast.Call object at 0x74c8021b1950&#45;&gt;ast.Attribute object at 0x74c8021b1850 -->
<g id="edge29" class="edge">
<title>ast.Call object at 0x74c8021b1950&#45;&gt;ast.Attribute object at 0x74c8021b1850</title>
<path fill="none" stroke="black" d="M1435.17,-215.7C1438.21,-207.81 1441.88,-198.3 1445.26,-189.55"/>
<polygon fill="black" stroke="black" points="1448.57,-190.69 1448.9,-180.1 1442.04,-188.17 1448.57,-190.69"/>
</g>
<!-- ast.Name object at 0x74c8021b0c10 -->
<g id="node27" class="node">
<title>ast.Name object at 0x74c8021b0c10</title>
<path fill="#66cdaa" stroke="black" d="M1392.5,-180C1392.5,-180 1362.5,-180 1362.5,-180 1356.5,-180 1350.5,-174 1350.5,-168 1350.5,-168 1350.5,-156 1350.5,-156 1350.5,-150 1356.5,-144 1362.5,-144 1362.5,-144 1392.5,-144 1392.5,-144 1398.5,-144 1404.5,-150 1404.5,-156 1404.5,-156 1404.5,-168 1404.5,-168 1404.5,-174 1398.5,-180 1392.5,-180"/>
<text text-anchor="middle" x="1377.5" y="-158.3" font-family="Times,serif" font-size="14.00">Name</text>
</g>
<!-- ast.Call object at 0x74c8021b1950&#45;&gt;ast.Name object at 0x74c8021b0c10 -->
<g id="edge33" class="edge">
<title>ast.Call object at 0x74c8021b1950&#45;&gt;ast.Name object at 0x74c8021b0c10</title>
<path fill="none" stroke="black" d="M1415.89,-215.7C1409.9,-207.47 1402.62,-197.48 1396.02,-188.42"/>
<polygon fill="black" stroke="black" points="1398.68,-186.13 1389.96,-180.1 1393.02,-190.25 1398.68,-186.13"/>
</g>
<!-- ast.Name object at 0x74c8021b1290&#45;&gt;ast.Load object at 0x74c9a1006950 -->
<g id="edge28" class="edge">
<title>ast.Name object at 0x74c8021b1290&#45;&gt;ast.Load object at 0x74c9a1006950</title>
<path fill="none" stroke="black" d="M1498.34,-75.05C1495.41,-73.88 1492.43,-72.83 1489.5,-72 1334.54,-27.91 1140.73,-20.31 1060.7,-19.14"/>
<polygon fill="black" stroke="black" points="1060.67,-15.64 1050.63,-19.01 1060.58,-22.64 1060.67,-15.64"/>
</g>
<!-- ast.Attribute object at 0x74c8021b1850&#45;&gt;ast.Load object at 0x74c9a1006950 -->
<g id="edge32" class="edge">
<title>ast.Attribute object at 0x74c8021b1850&#45;&gt;ast.Load object at 0x74c9a1006950</title>
<path fill="none" stroke="black" d="M1443.06,-143.68C1427.14,-122.95 1397.52,-88.93 1363.5,-72 1310.76,-45.76 1137.48,-28.49 1060.7,-21.95"/>
<polygon fill="black" stroke="black" points="1060.78,-18.44 1050.53,-21.1 1060.2,-25.42 1060.78,-18.44"/>
</g>
<!-- ast.Name object at 0x74c8021b2c90 -->
<g id="node26" class="node">
<title>ast.Name object at 0x74c8021b2c90</title>
<path fill="#66cdaa" stroke="black" d="M1468.5,-108C1468.5,-108 1438.5,-108 1438.5,-108 1432.5,-108 1426.5,-102 1426.5,-96 1426.5,-96 1426.5,-84 1426.5,-84 1426.5,-78 1432.5,-72 1438.5,-72 1438.5,-72 1468.5,-72 1468.5,-72 1474.5,-72 1480.5,-78 1480.5,-84 1480.5,-84 1480.5,-96 1480.5,-96 1480.5,-102 1474.5,-108 1468.5,-108"/>
<text text-anchor="middle" x="1453.5" y="-86.3" font-family="Times,serif" font-size="14.00">Name</text>
</g>
<!-- ast.Attribute object at 0x74c8021b1850&#45;&gt;ast.Name object at 0x74c8021b2c90 -->
<g id="edge30" class="edge">
<title>ast.Attribute object at 0x74c8021b1850&#45;&gt;ast.Name object at 0x74c8021b2c90</title>
<path fill="none" stroke="black" d="M1455.01,-143.7C1454.79,-135.98 1454.52,-126.71 1454.27,-118.11"/>
<polygon fill="black" stroke="black" points="1457.77,-118 1453.99,-108.1 1450.78,-118.2 1457.77,-118"/>
</g>
<!-- ast.Name object at 0x74c8021b2c90&#45;&gt;ast.Load object at 0x74c9a1006950 -->
<g id="edge31" class="edge">
<title>ast.Name object at 0x74c8021b2c90&#45;&gt;ast.Load object at 0x74c9a1006950</title>
<path fill="none" stroke="black" d="M1426.49,-76.66C1421.89,-74.89 1417.11,-73.25 1412.5,-72 1286.4,-37.88 1131.08,-25.14 1060.97,-20.9"/>
<polygon fill="black" stroke="black" points="1061.05,-17.39 1050.86,-20.31 1060.64,-24.38 1061.05,-17.39"/>
</g>
<!-- ast.Name object at 0x74c8021b0c10&#45;&gt;ast.Load object at 0x74c9a1006950 -->
<g id="edge34" class="edge">
<title>ast.Name object at 0x74c8021b0c10&#45;&gt;ast.Load object at 0x74c9a1006950</title>
<path fill="none" stroke="black" d="M1374.58,-143.93C1370.13,-123.45 1359.6,-89.68 1336.5,-72 1293.85,-39.35 1134.7,-25.69 1061.17,-21.04"/>
<polygon fill="black" stroke="black" points="1061.17,-17.53 1050.97,-20.41 1060.74,-24.52 1061.17,-17.53"/>
</g>
<!-- ast.Compare object at 0x74c8021b1fd0 -->
<g id="node29" class="node">
<title>ast.Compare object at 0x74c8021b1fd0</title>
<path fill="#66cdaa" stroke="black" d="M477,-252C477,-252 434,-252 434,-252 428,-252 422,-246 422,-240 422,-240 422,-228 422,-228 422,-222 428,-216 434,-216 434,-216 477,-216 477,-216 483,-216 489,-222 489,-228 489,-228 489,-240 489,-240 489,-246 483,-252 477,-252"/>
<text text-anchor="middle" x="455.5" y="-230.3" font-family="Times,serif" font-size="14.00">Compare</text>
</g>
<!-- ast.If object at 0x74c8021b1550&#45;&gt;ast.Compare object at 0x74c8021b1fd0 -->
<g id="edge37" class="edge">
<title>ast.If object at 0x74c8021b1550&#45;&gt;ast.Compare object at 0x74c8021b1fd0</title>
<path fill="none" stroke="black" d="M457.26,-359.87C456.92,-335.67 456.29,-291.21 455.89,-262.39"/>
<polygon fill="black" stroke="black" points="459.38,-262.14 455.74,-252.19 452.38,-262.24 459.38,-262.14"/>
</g>
<!-- ast.Assign object at 0x74c8020e0490 -->
<g id="node35" class="node">
<title>ast.Assign object at 0x74c8020e0490</title>
<path fill="#66cdaa" stroke="black" d="M417.5,-324C417.5,-324 387.5,-324 387.5,-324 381.5,-324 375.5,-318 375.5,-312 375.5,-312 375.5,-300 375.5,-300 375.5,-294 381.5,-288 387.5,-288 387.5,-288 417.5,-288 417.5,-288 423.5,-288 429.5,-294 429.5,-300 429.5,-300 429.5,-312 429.5,-312 429.5,-318 423.5,-324 417.5,-324"/>
<text text-anchor="middle" x="402.5" y="-302.3" font-family="Times,serif" font-size="14.00">Assign</text>
</g>
<!-- ast.If object at 0x74c8021b1550&#45;&gt;ast.Assign object at 0x74c8020e0490 -->
<g id="edge45" class="edge">
<title>ast.If object at 0x74c8021b1550&#45;&gt;ast.Assign object at 0x74c8020e0490</title>
<path fill="none" stroke="black" d="M443.9,-359.7C437.38,-351.39 429.43,-341.28 422.25,-332.14"/>
<polygon fill="black" stroke="black" points="424.87,-329.81 415.94,-324.1 419.37,-334.13 424.87,-329.81"/>
</g>
<!-- ast.If object at 0x74c8020e05d0 -->
<g id="node43" class="node">
<title>ast.If object at 0x74c8020e05d0</title>
<path fill="#66cdaa" stroke="black" d="M794.5,-324C794.5,-324 764.5,-324 764.5,-324 758.5,-324 752.5,-318 752.5,-312 752.5,-312 752.5,-300 752.5,-300 752.5,-294 758.5,-288 764.5,-288 764.5,-288 794.5,-288 794.5,-288 800.5,-288 806.5,-294 806.5,-300 806.5,-300 806.5,-312 806.5,-312 806.5,-318 800.5,-324 794.5,-324"/>
<text text-anchor="middle" x="779.5" y="-302.3" font-family="Times,serif" font-size="14.00">If</text>
</g>
<!-- ast.If object at 0x74c8021b1550&#45;&gt;ast.If object at 0x74c8020e05d0 -->
<g id="edge57" class="edge">
<title>ast.If object at 0x74c8021b1550&#45;&gt;ast.If object at 0x74c8020e05d0</title>
<path fill="none" stroke="black" d="M484.68,-371.09C542.24,-358.58 676.56,-329.38 742.14,-315.12"/>
<polygon fill="black" stroke="black" points="743.03,-318.51 752.06,-312.97 741.54,-311.67 743.03,-318.51"/>
</g>
<!-- ast.Call object at 0x74c8021b0910 -->
<g id="node30" class="node">
<title>ast.Call object at 0x74c8021b0910</title>
<path fill="#66cdaa" stroke="black" d="M197.5,-180C197.5,-180 167.5,-180 167.5,-180 161.5,-180 155.5,-174 155.5,-168 155.5,-168 155.5,-156 155.5,-156 155.5,-150 161.5,-144 167.5,-144 167.5,-144 197.5,-144 197.5,-144 203.5,-144 209.5,-150 209.5,-156 209.5,-156 209.5,-168 209.5,-168 209.5,-174 203.5,-180 197.5,-180"/>
<text text-anchor="middle" x="182.5" y="-158.3" font-family="Times,serif" font-size="14.00">Call</text>
</g>
<!-- ast.Compare object at 0x74c8021b1fd0&#45;&gt;ast.Call object at 0x74c8021b0910 -->
<g id="edge38" class="edge">
<title>ast.Compare object at 0x74c8021b1fd0&#45;&gt;ast.Call object at 0x74c8021b0910</title>
<path fill="none" stroke="black" d="M421.82,-220.55C417.04,-218.94 412.16,-217.37 407.5,-216 342.13,-196.79 264.51,-179.75 219.63,-170.45"/>
<polygon fill="black" stroke="black" points="220.26,-167.01 209.76,-168.42 218.85,-173.86 220.26,-167.01"/>
</g>
<!-- ast.GtE object at 0x74c9a1007bd0 -->
<g id="node33" class="node">
<title>ast.GtE object at 0x74c9a1007bd0</title>
<path fill="#66cdaa" stroke="black" d="M505.5,-180C505.5,-180 475.5,-180 475.5,-180 469.5,-180 463.5,-174 463.5,-168 463.5,-168 463.5,-156 463.5,-156 463.5,-150 469.5,-144 475.5,-144 475.5,-144 505.5,-144 505.5,-144 511.5,-144 517.5,-150 517.5,-156 517.5,-156 517.5,-168 517.5,-168 517.5,-174 511.5,-180 505.5,-180"/>
<text text-anchor="middle" x="490.5" y="-158.3" font-family="Times,serif" font-size="14.00">GtE</text>
</g>
<!-- ast.Compare object at 0x74c8021b1fd0&#45;&gt;ast.GtE object at 0x74c9a1007bd0 -->
<g id="edge43" class="edge">
<title>ast.Compare object at 0x74c8021b1fd0&#45;&gt;ast.GtE object at 0x74c9a1007bd0</title>
<path fill="none" stroke="black" d="M464.15,-215.7C468.14,-207.73 472.95,-198.1 477.37,-189.26"/>
<polygon fill="black" stroke="black" points="480.61,-190.61 481.95,-180.1 474.35,-187.48 480.61,-190.61"/>
</g>
<!-- ast.Constant object at 0x74c8021b05d0 -->
<g id="node34" class="node">
<title>ast.Constant object at 0x74c8021b05d0</title>
<path fill="#66cdaa" stroke="black" d="M433,-180C433,-180 392,-180 392,-180 386,-180 380,-174 380,-168 380,-168 380,-156 380,-156 380,-150 386,-144 392,-144 392,-144 433,-144 433,-144 439,-144 445,-150 445,-156 445,-156 445,-168 445,-168 445,-174 439,-180 433,-180"/>
<text text-anchor="middle" x="412.5" y="-158.3" font-family="Times,serif" font-size="14.00">Constant</text>
</g>
<!-- ast.Compare object at 0x74c8021b1fd0&#45;&gt;ast.Constant object at 0x74c8021b05d0 -->
<g id="edge44" class="edge">
<title>ast.Compare object at 0x74c8021b1fd0&#45;&gt;ast.Constant object at 0x74c8021b05d0</title>
<path fill="none" stroke="black" d="M444.87,-215.7C439.87,-207.56 433.81,-197.69 428.29,-188.7"/>
<polygon fill="black" stroke="black" points="431.22,-186.79 423.01,-180.1 425.26,-190.46 431.22,-186.79"/>
</g>
<!-- ast.Name object at 0x74c8021b3950 -->
<g id="node31" class="node">
<title>ast.Name object at 0x74c8021b3950</title>
<path fill="#66cdaa" stroke="black" d="M482.5,-108C482.5,-108 452.5,-108 452.5,-108 446.5,-108 440.5,-102 440.5,-96 440.5,-96 440.5,-84 440.5,-84 440.5,-78 446.5,-72 452.5,-72 452.5,-72 482.5,-72 482.5,-72 488.5,-72 494.5,-78 494.5,-84 494.5,-84 494.5,-96 494.5,-96 494.5,-102 488.5,-108 482.5,-108"/>
<text text-anchor="middle" x="467.5" y="-86.3" font-family="Times,serif" font-size="14.00">Name</text>
</g>
<!-- ast.Call object at 0x74c8021b0910&#45;&gt;ast.Name object at 0x74c8021b3950 -->
<g id="edge39" class="edge">
<title>ast.Call object at 0x74c8021b0910&#45;&gt;ast.Name object at 0x74c8021b3950</title>
<path fill="none" stroke="black" d="M209.55,-148.82C214.14,-147.03 218.91,-145.34 223.5,-144 311.45,-118.3 338.55,-133.7 426.5,-108 427.93,-107.58 429.38,-107.13 430.84,-106.65"/>
<polygon fill="black" stroke="black" points="432.23,-109.87 440.45,-103.18 429.86,-103.28 432.23,-109.87"/>
</g>
<!-- ast.Name object at 0x74c8021b1190 -->
<g id="node32" class="node">
<title>ast.Name object at 0x74c8021b1190</title>
<path fill="#66cdaa" stroke="black" d="M405.5,-108C405.5,-108 375.5,-108 375.5,-108 369.5,-108 363.5,-102 363.5,-96 363.5,-96 363.5,-84 363.5,-84 363.5,-78 369.5,-72 375.5,-72 375.5,-72 405.5,-72 405.5,-72 411.5,-72 417.5,-78 417.5,-84 417.5,-84 417.5,-96 417.5,-96 417.5,-102 411.5,-108 405.5,-108"/>
<text text-anchor="middle" x="390.5" y="-86.3" font-family="Times,serif" font-size="14.00">Name</text>
</g>
<!-- ast.Call object at 0x74c8021b0910&#45;&gt;ast.Name object at 0x74c8021b1190 -->
<g id="edge41" class="edge">
<title>ast.Call object at 0x74c8021b0910&#45;&gt;ast.Name object at 0x74c8021b1190</title>
<path fill="none" stroke="black" d="M209.7,-149.27C214.27,-147.43 219,-145.6 223.5,-144 275.95,-125.31 290.63,-125.48 343.5,-108 346.81,-106.9 350.25,-105.73 353.68,-104.54"/>
<polygon fill="black" stroke="black" points="354.99,-107.79 363.25,-101.15 352.66,-101.19 354.99,-107.79"/>
</g>
<!-- ast.Name object at 0x74c8021b3950&#45;&gt;ast.Load object at 0x74c9a1006950 -->
<g id="edge40" class="edge">
<title>ast.Name object at 0x74c8021b3950&#45;&gt;ast.Load object at 0x74c9a1006950</title>
<path fill="none" stroke="black" d="M494.82,-75.84C498.68,-74.35 502.64,-73.01 506.5,-72 681.81,-26 900.31,-19.56 986.29,-18.92"/>
<polygon fill="black" stroke="black" points="986.36,-22.42 996.34,-18.86 986.33,-15.42 986.36,-22.42"/>
</g>
<!-- ast.Name object at 0x74c8021b1190&#45;&gt;ast.Load object at 0x74c9a1006950 -->
<g id="edge42" class="edge">
<title>ast.Name object at 0x74c8021b1190&#45;&gt;ast.Load object at 0x74c9a1006950</title>
<path fill="none" stroke="black" d="M417.9,-76.31C422.37,-74.62 427.01,-73.1 431.5,-72 636.53,-21.57 892,-17.9 986.3,-18.45"/>
<polygon fill="black" stroke="black" points="986.45,-21.95 996.47,-18.53 986.5,-14.95 986.45,-21.95"/>
</g>
<!-- ast.Name object at 0x74c8020e1310 -->
<g id="node36" class="node">
<title>ast.Name object at 0x74c8020e1310</title>
<path fill="#66cdaa" stroke="black" d="M386.5,-252C386.5,-252 356.5,-252 356.5,-252 350.5,-252 344.5,-246 344.5,-240 344.5,-240 344.5,-228 344.5,-228 344.5,-222 350.5,-216 356.5,-216 356.5,-216 386.5,-216 386.5,-216 392.5,-216 398.5,-222 398.5,-228 398.5,-228 398.5,-240 398.5,-240 398.5,-246 392.5,-252 386.5,-252"/>
<text text-anchor="middle" x="371.5" y="-230.3" font-family="Times,serif" font-size="14.00">Name</text>
</g>
<!-- ast.Assign object at 0x74c8020e0490&#45;&gt;ast.Name object at 0x74c8020e1310 -->
<g id="edge46" class="edge">
<title>ast.Assign object at 0x74c8020e0490&#45;&gt;ast.Name object at 0x74c8020e1310</title>
<path fill="none" stroke="black" d="M394.84,-287.7C391.31,-279.73 387.04,-270.1 383.13,-261.26"/>
<polygon fill="black" stroke="black" points="386.32,-259.83 379.07,-252.1 379.92,-262.67 386.32,-259.83"/>
</g>
<!-- ast.Call object at 0x74c8020e0d50 -->
<g id="node37" class="node">
<title>ast.Call object at 0x74c8020e0d50</title>
<path fill="#66cdaa" stroke="black" d="M125.5,-252C125.5,-252 95.5,-252 95.5,-252 89.5,-252 83.5,-246 83.5,-240 83.5,-240 83.5,-228 83.5,-228 83.5,-222 89.5,-216 95.5,-216 95.5,-216 125.5,-216 125.5,-216 131.5,-216 137.5,-222 137.5,-228 137.5,-228 137.5,-240 137.5,-240 137.5,-246 131.5,-252 125.5,-252"/>
<text text-anchor="middle" x="110.5" y="-230.3" font-family="Times,serif" font-size="14.00">Call</text>
</g>
<!-- ast.Assign object at 0x74c8020e0490&#45;&gt;ast.Call object at 0x74c8020e0d50 -->
<g id="edge48" class="edge">
<title>ast.Assign object at 0x74c8020e0490&#45;&gt;ast.Call object at 0x74c8020e0d50</title>
<path fill="none" stroke="black" d="M375.26,-291.32C372.34,-290.1 369.38,-288.96 366.5,-288 290.75,-262.67 198.17,-247.12 147.7,-239.87"/>
<polygon fill="black" stroke="black" points="147.97,-236.38 137.58,-238.45 147,-243.31 147.97,-236.38"/>
</g>
<!-- ast.Name object at 0x74c8020e1310&#45;&gt;ast.Store object at 0x74c9a10069d0 -->
<g id="edge47" class="edge">
<title>ast.Name object at 0x74c8020e1310&#45;&gt;ast.Store object at 0x74c9a10069d0</title>
<path fill="none" stroke="black" d="M365.63,-215.99C360.08,-196.5 354.72,-164.62 370.5,-144 407.72,-95.37 445.72,-128.29 503.5,-108 504.35,-107.7 505.21,-107.39 506.08,-107.07"/>
<polygon fill="black" stroke="black" points="507.4,-110.32 515.43,-103.41 504.84,-103.8 507.4,-110.32"/>
</g>
<!-- ast.Attribute object at 0x74c8020e1410 -->
<g id="node38" class="node">
<title>ast.Attribute object at 0x74c8020e1410</title>
<path fill="#66cdaa" stroke="black" d="M53,-180C53,-180 12,-180 12,-180 6,-180 0,-174 0,-168 0,-168 0,-156 0,-156 0,-150 6,-144 12,-144 12,-144 53,-144 53,-144 59,-144 65,-150 65,-156 65,-156 65,-168 65,-168 65,-174 59,-180 53,-180"/>
<text text-anchor="middle" x="32.5" y="-158.3" font-family="Times,serif" font-size="14.00">Attribute</text>
</g>
<!-- ast.Call object at 0x74c8020e0d50&#45;&gt;ast.Attribute object at 0x74c8020e1410 -->
<g id="edge49" class="edge">
<title>ast.Call object at 0x74c8020e0d50&#45;&gt;ast.Attribute object at 0x74c8020e1410</title>
<path fill="none" stroke="black" d="M91.22,-215.7C81.58,-207.05 69.77,-196.45 59.27,-187.03"/>
<polygon fill="black" stroke="black" points="61.34,-184.18 51.56,-180.1 56.66,-189.39 61.34,-184.18"/>
</g>
<!-- ast.Call object at 0x74c8020e0c50 -->
<g id="node40" class="node">
<title>ast.Call object at 0x74c8020e0c50</title>
<path fill="#66cdaa" stroke="black" d="M125.5,-180C125.5,-180 95.5,-180 95.5,-180 89.5,-180 83.5,-174 83.5,-168 83.5,-168 83.5,-156 83.5,-156 83.5,-150 89.5,-144 95.5,-144 95.5,-144 125.5,-144 125.5,-144 131.5,-144 137.5,-150 137.5,-156 137.5,-156 137.5,-168 137.5,-168 137.5,-174 131.5,-180 125.5,-180"/>
<text text-anchor="middle" x="110.5" y="-158.3" font-family="Times,serif" font-size="14.00">Call</text>
</g>
<!-- ast.Call object at 0x74c8020e0d50&#45;&gt;ast.Call object at 0x74c8020e0c50 -->
<g id="edge52" class="edge">
<title>ast.Call object at 0x74c8020e0d50&#45;&gt;ast.Call object at 0x74c8020e0c50</title>
<path fill="none" stroke="black" d="M110.5,-215.7C110.5,-207.98 110.5,-198.71 110.5,-190.11"/>
<polygon fill="black" stroke="black" points="114,-190.1 110.5,-180.1 107,-190.1 114,-190.1"/>
</g>
<!-- ast.Attribute object at 0x74c8020e1410&#45;&gt;ast.Load object at 0x74c9a1006950 -->
<g id="edge51" class="edge">
<title>ast.Attribute object at 0x74c8020e1410&#45;&gt;ast.Load object at 0x74c9a1006950</title>
<path fill="none" stroke="black" d="M30.6,-143.89C29.39,-123.37 30.97,-89.56 51.5,-72 87.65,-41.09 812.13,-23.55 986.16,-19.78"/>
<polygon fill="black" stroke="black" points="986.43,-23.27 996.35,-19.56 986.28,-16.27 986.43,-23.27"/>
</g>
<!-- ast.Constant object at 0x74c8020e0410 -->
<g id="node39" class="node">
<title>ast.Constant object at 0x74c8020e0410</title>
<path fill="#66cdaa" stroke="black" d="M114,-108C114,-108 73,-108 73,-108 67,-108 61,-102 61,-96 61,-96 61,-84 61,-84 61,-78 67,-72 73,-72 73,-72 114,-72 114,-72 120,-72 126,-78 126,-84 126,-84 126,-96 126,-96 126,-102 120,-108 114,-108"/>
<text text-anchor="middle" x="93.5" y="-86.3" font-family="Times,serif" font-size="14.00">Constant</text>
</g>
<!-- ast.Attribute object at 0x74c8020e1410&#45;&gt;ast.Constant object at 0x74c8020e0410 -->
<g id="edge50" class="edge">
<title>ast.Attribute object at 0x74c8020e1410&#45;&gt;ast.Constant object at 0x74c8020e0410</title>
<path fill="none" stroke="black" d="M47.58,-143.7C54.89,-135.3 63.81,-125.07 71.84,-115.86"/>
<polygon fill="black" stroke="black" points="74.66,-117.94 78.59,-108.1 69.39,-113.34 74.66,-117.94"/>
</g>
<!-- ast.Name object at 0x74c8020e2ed0 -->
<g id="node41" class="node">
<title>ast.Name object at 0x74c8020e2ed0</title>
<path fill="#66cdaa" stroke="black" d="M229.5,-108C229.5,-108 199.5,-108 199.5,-108 193.5,-108 187.5,-102 187.5,-96 187.5,-96 187.5,-84 187.5,-84 187.5,-78 193.5,-72 199.5,-72 199.5,-72 229.5,-72 229.5,-72 235.5,-72 241.5,-78 241.5,-84 241.5,-84 241.5,-96 241.5,-96 241.5,-102 235.5,-108 229.5,-108"/>
<text text-anchor="middle" x="214.5" y="-86.3" font-family="Times,serif" font-size="14.00">Name</text>
</g>
<!-- ast.Call object at 0x74c8020e0c50&#45;&gt;ast.Name object at 0x74c8020e2ed0 -->
<g id="edge53" class="edge">
<title>ast.Call object at 0x74c8020e0c50&#45;&gt;ast.Name object at 0x74c8020e2ed0</title>
<path fill="none" stroke="black" d="M135.94,-143.88C149.29,-134.89 165.82,-123.76 180.28,-114.03"/>
<polygon fill="black" stroke="black" points="182.62,-116.68 188.96,-108.19 178.71,-110.87 182.62,-116.68"/>
</g>
<!-- ast.Name object at 0x74c8020e09d0 -->
<g id="node42" class="node">
<title>ast.Name object at 0x74c8020e09d0</title>
<path fill="#66cdaa" stroke="black" d="M322.5,-108C322.5,-108 292.5,-108 292.5,-108 286.5,-108 280.5,-102 280.5,-96 280.5,-96 280.5,-84 280.5,-84 280.5,-78 286.5,-72 292.5,-72 292.5,-72 322.5,-72 322.5,-72 328.5,-72 334.5,-78 334.5,-84 334.5,-84 334.5,-96 334.5,-96 334.5,-102 328.5,-108 322.5,-108"/>
<text text-anchor="middle" x="307.5" y="-86.3" font-family="Times,serif" font-size="14.00">Name</text>
</g>
<!-- ast.Call object at 0x74c8020e0c50&#45;&gt;ast.Name object at 0x74c8020e09d0 -->
<g id="edge55" class="edge">
<title>ast.Call object at 0x74c8020e0c50&#45;&gt;ast.Name object at 0x74c8020e09d0</title>
<path fill="none" stroke="black" d="M137.86,-147.65C140.76,-146.37 143.68,-145.13 146.5,-144 169.24,-134.93 230.44,-115.26 270.49,-102.6"/>
<polygon fill="black" stroke="black" points="271.7,-105.89 280.19,-99.54 269.6,-99.21 271.7,-105.89"/>
</g>
<!-- ast.Name object at 0x74c8020e2ed0&#45;&gt;ast.Load object at 0x74c9a1006950 -->
<g id="edge54" class="edge">
<title>ast.Name object at 0x74c8020e2ed0&#45;&gt;ast.Load object at 0x74c9a1006950</title>
<path fill="none" stroke="black" d="M241.75,-79.55C251.08,-76.67 261.65,-73.79 271.5,-72 542.22,-22.71 875.49,-18.63 985.97,-18.75"/>
<polygon fill="black" stroke="black" points="986.25,-22.25 996.25,-18.77 986.26,-15.25 986.25,-22.25"/>
</g>
<!-- ast.Name object at 0x74c8020e09d0&#45;&gt;ast.Load object at 0x74c9a1006950 -->
<g id="edge56" class="edge">
<title>ast.Name object at 0x74c8020e09d0&#45;&gt;ast.Load object at 0x74c9a1006950</title>
<path fill="none" stroke="black" d="M334.97,-77.67C341.29,-75.46 348.05,-73.39 354.5,-72 590.96,-20.84 883.98,-17.81 986.23,-18.48"/>
<polygon fill="black" stroke="black" points="986.33,-21.98 996.36,-18.57 986.39,-14.98 986.33,-21.98"/>
</g>
<!-- ast.Compare object at 0x74c8020e1550 -->
<g id="node44" class="node">
<title>ast.Compare object at 0x74c8020e1550</title>
<path fill="#66cdaa" stroke="black" d="M1199,-180C1199,-180 1156,-180 1156,-180 1150,-180 1144,-174 1144,-168 1144,-168 1144,-156 1144,-156 1144,-150 1150,-144 1156,-144 1156,-144 1199,-144 1199,-144 1205,-144 1211,-150 1211,-156 1211,-156 1211,-168 1211,-168 1211,-174 1205,-180 1199,-180"/>
<text text-anchor="middle" x="1177.5" y="-158.3" font-family="Times,serif" font-size="14.00">Compare</text>
</g>
<!-- ast.If object at 0x74c8020e05d0&#45;&gt;ast.Compare object at 0x74c8020e1550 -->
<g id="edge58" class="edge">
<title>ast.If object at 0x74c8020e05d0&#45;&gt;ast.Compare object at 0x74c8020e1550</title>
<path fill="none" stroke="black" d="M806.74,-297.68C841.71,-288.1 904.13,-270.34 956.5,-252 1019.24,-230.03 1090.3,-200.57 1134.51,-181.68"/>
<polygon fill="black" stroke="black" points="1135.98,-184.86 1143.79,-177.7 1133.22,-178.42 1135.98,-184.86"/>
</g>
<!-- ast.AugAssign object at 0x74c8020e13d0 -->
<g id="node48" class="node">
<title>ast.AugAssign object at 0x74c8020e13d0</title>
<path fill="#66cdaa" stroke="black" d="M806,-252C806,-252 753,-252 753,-252 747,-252 741,-246 741,-240 741,-240 741,-228 741,-228 741,-222 747,-216 753,-216 753,-216 806,-216 806,-216 812,-216 818,-222 818,-228 818,-228 818,-240 818,-240 818,-246 812,-252 806,-252"/>
<text text-anchor="middle" x="779.5" y="-230.3" font-family="Times,serif" font-size="14.00">AugAssign</text>
</g>
<!-- ast.If object at 0x74c8020e05d0&#45;&gt;ast.AugAssign object at 0x74c8020e13d0 -->
<g id="edge64" class="edge">
<title>ast.If object at 0x74c8020e05d0&#45;&gt;ast.AugAssign object at 0x74c8020e13d0</title>
<path fill="none" stroke="black" d="M779.5,-287.7C779.5,-279.98 779.5,-270.71 779.5,-262.11"/>
<polygon fill="black" stroke="black" points="783,-262.1 779.5,-252.1 776,-262.1 783,-262.1"/>
</g>
<!-- ast.AugAssign object at 0x74c8020e0790 -->
<g id="node54" class="node">
<title>ast.AugAssign object at 0x74c8020e0790</title>
<path fill="#66cdaa" stroke="black" d="M711,-252C711,-252 658,-252 658,-252 652,-252 646,-246 646,-240 646,-240 646,-228 646,-228 646,-222 652,-216 658,-216 658,-216 711,-216 711,-216 717,-216 723,-222 723,-228 723,-228 723,-240 723,-240 723,-246 717,-252 711,-252"/>
<text text-anchor="middle" x="684.5" y="-230.3" font-family="Times,serif" font-size="14.00">AugAssign</text>
</g>
<!-- ast.If object at 0x74c8020e05d0&#45;&gt;ast.AugAssign object at 0x74c8020e0790 -->
<g id="edge74" class="edge">
<title>ast.If object at 0x74c8020e05d0&#45;&gt;ast.AugAssign object at 0x74c8020e0790</title>
<path fill="none" stroke="black" d="M756.02,-287.7C743.94,-278.8 729.05,-267.82 715.98,-258.2"/>
<polygon fill="black" stroke="black" points="717.84,-255.22 707.71,-252.1 713.69,-260.85 717.84,-255.22"/>
</g>
<!-- ast.Assign object at 0x74c8020e1110 -->
<g id="node59" class="node">
<title>ast.Assign object at 0x74c8020e1110</title>
<path fill="#66cdaa" stroke="black" d="M935.5,-252C935.5,-252 905.5,-252 905.5,-252 899.5,-252 893.5,-246 893.5,-240 893.5,-240 893.5,-228 893.5,-228 893.5,-222 899.5,-216 905.5,-216 905.5,-216 935.5,-216 935.5,-216 941.5,-216 947.5,-222 947.5,-228 947.5,-228 947.5,-240 947.5,-240 947.5,-246 941.5,-252 935.5,-252"/>
<text text-anchor="middle" x="920.5" y="-230.3" font-family="Times,serif" font-size="14.00">Assign</text>
</g>
<!-- ast.If object at 0x74c8020e05d0&#45;&gt;ast.Assign object at 0x74c8020e1110 -->
<g id="edge83" class="edge">
<title>ast.If object at 0x74c8020e05d0&#45;&gt;ast.Assign object at 0x74c8020e1110</title>
<path fill="none" stroke="black" d="M806.69,-291.5C828.73,-280.56 859.99,-265.04 884.18,-253.03"/>
<polygon fill="black" stroke="black" points="886,-256.04 893.4,-248.46 882.88,-249.77 886,-256.04"/>
</g>
<!-- ast.Name object at 0x74c8020e0690 -->
<g id="node45" class="node">
<title>ast.Name object at 0x74c8020e0690</title>
<path fill="#66cdaa" stroke="black" d="M1210.5,-108C1210.5,-108 1180.5,-108 1180.5,-108 1174.5,-108 1168.5,-102 1168.5,-96 1168.5,-96 1168.5,-84 1168.5,-84 1168.5,-78 1174.5,-72 1180.5,-72 1180.5,-72 1210.5,-72 1210.5,-72 1216.5,-72 1222.5,-78 1222.5,-84 1222.5,-84 1222.5,-96 1222.5,-96 1222.5,-102 1216.5,-108 1210.5,-108"/>
<text text-anchor="middle" x="1195.5" y="-86.3" font-family="Times,serif" font-size="14.00">Name</text>
</g>
<!-- ast.Compare object at 0x74c8020e1550&#45;&gt;ast.Name object at 0x74c8020e0690 -->
<g id="edge59" class="edge">
<title>ast.Compare object at 0x74c8020e1550&#45;&gt;ast.Name object at 0x74c8020e0690</title>
<path fill="none" stroke="black" d="M1181.95,-143.7C1183.95,-135.9 1186.37,-126.51 1188.6,-117.83"/>
<polygon fill="black" stroke="black" points="1192,-118.66 1191.1,-108.1 1185.22,-116.92 1192,-118.66"/>
</g>
<!-- ast.In object at 0x74c9a1007d50 -->
<g id="node46" class="node">
<title>ast.In object at 0x74c9a1007d50</title>
<path fill="#66cdaa" stroke="black" d="M1282.5,-108C1282.5,-108 1252.5,-108 1252.5,-108 1246.5,-108 1240.5,-102 1240.5,-96 1240.5,-96 1240.5,-84 1240.5,-84 1240.5,-78 1246.5,-72 1252.5,-72 1252.5,-72 1282.5,-72 1282.5,-72 1288.5,-72 1294.5,-78 1294.5,-84 1294.5,-84 1294.5,-96 1294.5,-96 1294.5,-102 1288.5,-108 1282.5,-108"/>
<text text-anchor="middle" x="1267.5" y="-86.3" font-family="Times,serif" font-size="14.00">In</text>
</g>
<!-- ast.Compare object at 0x74c8020e1550&#45;&gt;ast.In object at 0x74c9a1007d50 -->
<g id="edge61" class="edge">
<title>ast.Compare object at 0x74c8020e1550&#45;&gt;ast.In object at 0x74c9a1007d50</title>
<path fill="none" stroke="black" d="M1199.75,-143.7C1211.08,-134.88 1225.03,-124.03 1237.32,-114.47"/>
<polygon fill="black" stroke="black" points="1239.76,-117.01 1245.51,-108.1 1235.47,-111.48 1239.76,-117.01"/>
</g>
<!-- ast.Name object at 0x74c8020e0190 -->
<g id="node47" class="node">
<title>ast.Name object at 0x74c8020e0190</title>
<path fill="#66cdaa" stroke="black" d="M1138.5,-108C1138.5,-108 1108.5,-108 1108.5,-108 1102.5,-108 1096.5,-102 1096.5,-96 1096.5,-96 1096.5,-84 1096.5,-84 1096.5,-78 1102.5,-72 1108.5,-72 1108.5,-72 1138.5,-72 1138.5,-72 1144.5,-72 1150.5,-78 1150.5,-84 1150.5,-84 1150.5,-96 1150.5,-96 1150.5,-102 1144.5,-108 1138.5,-108"/>
<text text-anchor="middle" x="1123.5" y="-86.3" font-family="Times,serif" font-size="14.00">Name</text>
</g>
<!-- ast.Compare object at 0x74c8020e1550&#45;&gt;ast.Name object at 0x74c8020e0190 -->
<g id="edge62" class="edge">
<title>ast.Compare object at 0x74c8020e1550&#45;&gt;ast.Name object at 0x74c8020e0190</title>
<path fill="none" stroke="black" d="M1164.15,-143.7C1157.74,-135.39 1149.94,-125.28 1142.89,-116.14"/>
<polygon fill="black" stroke="black" points="1145.57,-113.88 1136.69,-108.1 1140.03,-118.16 1145.57,-113.88"/>
</g>
<!-- ast.Name object at 0x74c8020e0690&#45;&gt;ast.Load object at 0x74c9a1006950 -->
<g id="edge60" class="edge">
<title>ast.Name object at 0x74c8020e0690&#45;&gt;ast.Load object at 0x74c9a1006950</title>
<path fill="none" stroke="black" d="M1168.47,-75.99C1165.45,-74.61 1162.42,-73.26 1159.5,-72 1126.23,-57.68 1087.71,-42.83 1060.18,-32.5"/>
<polygon fill="black" stroke="black" points="1061.15,-29.13 1050.56,-28.91 1058.71,-35.69 1061.15,-29.13"/>
</g>
<!-- ast.Name object at 0x74c8020e0190&#45;&gt;ast.Load object at 0x74c9a1006950 -->
<g id="edge63" class="edge">
<title>ast.Name object at 0x74c8020e0190&#45;&gt;ast.Load object at 0x74c9a1006950</title>
<path fill="none" stroke="black" d="M1099.04,-71.88C1086.2,-62.89 1070.3,-51.76 1056.41,-42.03"/>
<polygon fill="black" stroke="black" points="1058.26,-39.06 1048.06,-36.19 1054.24,-44.79 1058.26,-39.06"/>
</g>
<!-- ast.Name object at 0x74c8020e0450 -->
<g id="node49" class="node">
<title>ast.Name object at 0x74c8020e0450</title>
<path fill="#66cdaa" stroke="black" d="M771.5,-180C771.5,-180 741.5,-180 741.5,-180 735.5,-180 729.5,-174 729.5,-168 729.5,-168 729.5,-156 729.5,-156 729.5,-150 735.5,-144 741.5,-144 741.5,-144 771.5,-144 771.5,-144 777.5,-144 783.5,-150 783.5,-156 783.5,-156 783.5,-168 783.5,-168 783.5,-174 777.5,-180 771.5,-180"/>
<text text-anchor="middle" x="756.5" y="-158.3" font-family="Times,serif" font-size="14.00">Name</text>
</g>
<!-- ast.AugAssign object at 0x74c8020e13d0&#45;&gt;ast.Name object at 0x74c8020e0450 -->
<g id="edge65" class="edge">
<title>ast.AugAssign object at 0x74c8020e13d0&#45;&gt;ast.Name object at 0x74c8020e0450</title>
<path fill="none" stroke="black" d="M773.81,-215.7C771.25,-207.9 768.17,-198.51 765.32,-189.83"/>
<polygon fill="black" stroke="black" points="768.57,-188.51 762.12,-180.1 761.92,-190.7 768.57,-188.51"/>
</g>
<!-- ast.Add object at 0x74c9a1006e50 -->
<g id="node50" class="node">
<title>ast.Add object at 0x74c9a1006e50</title>
<path fill="#66cdaa" stroke="black" d="M699.5,-180C699.5,-180 669.5,-180 669.5,-180 663.5,-180 657.5,-174 657.5,-168 657.5,-168 657.5,-156 657.5,-156 657.5,-150 663.5,-144 669.5,-144 669.5,-144 699.5,-144 699.5,-144 705.5,-144 711.5,-150 711.5,-156 711.5,-156 711.5,-168 711.5,-168 711.5,-174 705.5,-180 699.5,-180"/>
<text text-anchor="middle" x="684.5" y="-158.3" font-family="Times,serif" font-size="14.00">Add</text>
</g>
<!-- ast.AugAssign object at 0x74c8020e13d0&#45;&gt;ast.Add object at 0x74c9a1006e50 -->
<g id="edge67" class="edge">
<title>ast.AugAssign object at 0x74c8020e13d0&#45;&gt;ast.Add object at 0x74c9a1006e50</title>
<path fill="none" stroke="black" d="M756.02,-215.7C743.94,-206.8 729.05,-195.82 715.98,-186.2"/>
<polygon fill="black" stroke="black" points="717.84,-183.22 707.71,-180.1 713.69,-188.85 717.84,-183.22"/>
</g>
<!-- ast.Subscript object at 0x74c8020e03d0 -->
<g id="node51" class="node">
<title>ast.Subscript object at 0x74c8020e03d0</title>
<path fill="#66cdaa" stroke="black" d="M1113.5,-180C1113.5,-180 1069.5,-180 1069.5,-180 1063.5,-180 1057.5,-174 1057.5,-168 1057.5,-168 1057.5,-156 1057.5,-156 1057.5,-150 1063.5,-144 1069.5,-144 1069.5,-144 1113.5,-144 1113.5,-144 1119.5,-144 1125.5,-150 1125.5,-156 1125.5,-156 1125.5,-168 1125.5,-168 1125.5,-174 1119.5,-180 1113.5,-180"/>
<text text-anchor="middle" x="1091.5" y="-158.3" font-family="Times,serif" font-size="14.00">Subscript</text>
</g>
<!-- ast.AugAssign object at 0x74c8020e13d0&#45;&gt;ast.Subscript object at 0x74c8020e03d0 -->
<g id="edge68" class="edge">
<title>ast.AugAssign object at 0x74c8020e13d0&#45;&gt;ast.Subscript object at 0x74c8020e03d0</title>
<path fill="none" stroke="black" d="M818.03,-226.3C877.89,-215.75 991.4,-195.15 1047.62,-179.9"/>
<polygon fill="black" stroke="black" points="1048.76,-183.22 1057.43,-177.12 1046.85,-176.48 1048.76,-183.22"/>
</g>
<!-- ast.Name object at 0x74c8020e0450&#45;&gt;ast.Store object at 0x74c9a10069d0 -->
<g id="edge66" class="edge">
<title>ast.Name object at 0x74c8020e0450&#45;&gt;ast.Store object at 0x74c9a10069d0</title>
<path fill="none" stroke="black" d="M729.17,-147.57C726.27,-146.3 723.34,-145.09 720.5,-144 672.74,-125.73 615.84,-109.76 579.46,-100.25"/>
<polygon fill="black" stroke="black" points="580.32,-96.86 569.76,-97.74 578.57,-103.63 580.32,-96.86"/>
</g>
<!-- ast.Subscript object at 0x74c8020e03d0&#45;&gt;ast.Load object at 0x74c9a1006950 -->
<g id="edge73" class="edge">
<title>ast.Subscript object at 0x74c8020e03d0&#45;&gt;ast.Load object at 0x74c9a1006950</title>
<path fill="none" stroke="black" d="M1057.11,-146.29C1041.4,-137.62 1024.36,-124.97 1015.5,-108 1005.51,-88.85 1008.75,-64.21 1013.79,-45.71"/>
<polygon fill="black" stroke="black" points="1017.14,-46.73 1016.7,-36.14 1010.44,-44.69 1017.14,-46.73"/>
</g>
<!-- ast.Name object at 0x74c8020e1490 -->
<g id="node52" class="node">
<title>ast.Name object at 0x74c8020e1490</title>
<path fill="#66cdaa" stroke="black" d="M1066.5,-108C1066.5,-108 1036.5,-108 1036.5,-108 1030.5,-108 1024.5,-102 1024.5,-96 1024.5,-96 1024.5,-84 1024.5,-84 1024.5,-78 1030.5,-72 1036.5,-72 1036.5,-72 1066.5,-72 1066.5,-72 1072.5,-72 1078.5,-78 1078.5,-84 1078.5,-84 1078.5,-96 1078.5,-96 1078.5,-102 1072.5,-108 1066.5,-108"/>
<text text-anchor="middle" x="1051.5" y="-86.3" font-family="Times,serif" font-size="14.00">Name</text>
</g>
<!-- ast.Subscript object at 0x74c8020e03d0&#45;&gt;ast.Name object at 0x74c8020e1490 -->
<g id="edge69" class="edge">
<title>ast.Subscript object at 0x74c8020e03d0&#45;&gt;ast.Name object at 0x74c8020e1490</title>
<path fill="none" stroke="black" d="M1081.61,-143.7C1077.01,-135.64 1071.44,-125.89 1066.35,-116.98"/>
<polygon fill="black" stroke="black" points="1069.27,-115.05 1061.27,-108.1 1063.2,-118.52 1069.27,-115.05"/>
</g>
<!-- ast.Name object at 0x74c8020e3550 -->
<g id="node53" class="node">
<title>ast.Name object at 0x74c8020e3550</title>
<path fill="#66cdaa" stroke="black" d="M956.5,-108C956.5,-108 926.5,-108 926.5,-108 920.5,-108 914.5,-102 914.5,-96 914.5,-96 914.5,-84 914.5,-84 914.5,-78 920.5,-72 926.5,-72 926.5,-72 956.5,-72 956.5,-72 962.5,-72 968.5,-78 968.5,-84 968.5,-84 968.5,-96 968.5,-96 968.5,-102 962.5,-108 956.5,-108"/>
<text text-anchor="middle" x="941.5" y="-86.3" font-family="Times,serif" font-size="14.00">Name</text>
</g>
<!-- ast.Subscript object at 0x74c8020e03d0&#45;&gt;ast.Name object at 0x74c8020e3550 -->
<g id="edge71" class="edge">
<title>ast.Subscript object at 0x74c8020e03d0&#45;&gt;ast.Name object at 0x74c8020e3550</title>
<path fill="none" stroke="black" d="M1057.46,-145.12C1033.81,-134.08 1002.31,-119.38 978.11,-108.08"/>
<polygon fill="black" stroke="black" points="979.44,-104.84 968.9,-103.78 976.48,-111.18 979.44,-104.84"/>
</g>
<!-- ast.Name object at 0x74c8020e1490&#45;&gt;ast.Load object at 0x74c9a1006950 -->
<g id="edge70" class="edge">
<title>ast.Name object at 0x74c8020e1490&#45;&gt;ast.Load object at 0x74c9a1006950</title>
<path fill="none" stroke="black" d="M1044.58,-71.7C1041.43,-63.81 1037.62,-54.3 1034.12,-45.55"/>
<polygon fill="black" stroke="black" points="1037.31,-44.09 1030.34,-36.1 1030.81,-46.69 1037.31,-44.09"/>
</g>
<!-- ast.Name object at 0x74c8020e3550&#45;&gt;ast.Load object at 0x74c9a1006950 -->
<g id="edge72" class="edge">
<title>ast.Name object at 0x74c8020e3550&#45;&gt;ast.Load object at 0x74c9a1006950</title>
<path fill="none" stroke="black" d="M961.77,-71.7C972,-62.97 984.56,-52.24 995.68,-42.75"/>
<polygon fill="black" stroke="black" points="998.13,-45.26 1003.46,-36.1 993.59,-39.94 998.13,-45.26"/>
</g>
<!-- ast.AugAssign object at 0x74c8020e0790&#45;&gt;ast.Add object at 0x74c9a1006e50 -->
<g id="edge81" class="edge">
<title>ast.AugAssign object at 0x74c8020e0790&#45;&gt;ast.Add object at 0x74c9a1006e50</title>
<path fill="none" stroke="black" d="M684.5,-215.7C684.5,-207.98 684.5,-198.71 684.5,-190.11"/>
<polygon fill="black" stroke="black" points="688,-190.1 684.5,-180.1 681,-190.1 688,-190.1"/>
</g>
<!-- ast.Subscript object at 0x74c8020e0310 -->
<g id="node55" class="node">
<title>ast.Subscript object at 0x74c8020e0310</title>
<path fill="#66cdaa" stroke="black" d="M857.5,-180C857.5,-180 813.5,-180 813.5,-180 807.5,-180 801.5,-174 801.5,-168 801.5,-168 801.5,-156 801.5,-156 801.5,-150 807.5,-144 813.5,-144 813.5,-144 857.5,-144 857.5,-144 863.5,-144 869.5,-150 869.5,-156 869.5,-156 869.5,-168 869.5,-168 869.5,-174 863.5,-180 857.5,-180"/>
<text text-anchor="middle" x="835.5" y="-158.3" font-family="Times,serif" font-size="14.00">Subscript</text>
</g>
<!-- ast.AugAssign object at 0x74c8020e0790&#45;&gt;ast.Subscript object at 0x74c8020e0310 -->
<g id="edge75" class="edge">
<title>ast.AugAssign object at 0x74c8020e0790&#45;&gt;ast.Subscript object at 0x74c8020e0310</title>
<path fill="none" stroke="black" d="M721.44,-215.88C742.75,-206 769.67,-193.52 792.01,-183.16"/>
<polygon fill="black" stroke="black" points="793.67,-186.25 801.27,-178.87 790.72,-179.9 793.67,-186.25"/>
</g>
<!-- ast.Constant object at 0x74c8020e1390 -->
<g id="node58" class="node">
<title>ast.Constant object at 0x74c8020e1390</title>
<path fill="#66cdaa" stroke="black" d="M627,-180C627,-180 586,-180 586,-180 580,-180 574,-174 574,-168 574,-168 574,-156 574,-156 574,-150 580,-144 586,-144 586,-144 627,-144 627,-144 633,-144 639,-150 639,-156 639,-156 639,-168 639,-168 639,-174 633,-180 627,-180"/>
<text text-anchor="middle" x="606.5" y="-158.3" font-family="Times,serif" font-size="14.00">Constant</text>
</g>
<!-- ast.AugAssign object at 0x74c8020e0790&#45;&gt;ast.Constant object at 0x74c8020e1390 -->
<g id="edge82" class="edge">
<title>ast.AugAssign object at 0x74c8020e0790&#45;&gt;ast.Constant object at 0x74c8020e1390</title>
<path fill="none" stroke="black" d="M665.22,-215.7C655.58,-207.05 643.77,-196.45 633.27,-187.03"/>
<polygon fill="black" stroke="black" points="635.34,-184.18 625.56,-180.1 630.66,-189.39 635.34,-184.18"/>
</g>
<!-- ast.Subscript object at 0x74c8020e0310&#45;&gt;ast.Store object at 0x74c9a10069d0 -->
<g id="edge80" class="edge">
<title>ast.Subscript object at 0x74c8020e0310&#45;&gt;ast.Store object at 0x74c9a10069d0</title>
<path fill="none" stroke="black" d="M801.42,-146.91C798.43,-145.86 795.42,-144.87 792.5,-144 716.4,-121.32 695.11,-124.78 617.5,-108 605.06,-105.31 591.49,-102.27 579.35,-99.51"/>
<polygon fill="black" stroke="black" points="580.08,-96.08 569.55,-97.27 578.52,-102.91 580.08,-96.08"/>
</g>
<!-- ast.Name object at 0x74c8020e0950 -->
<g id="node56" class="node">
<title>ast.Name object at 0x74c8020e0950</title>
<path fill="#66cdaa" stroke="black" d="M668.5,-108C668.5,-108 638.5,-108 638.5,-108 632.5,-108 626.5,-102 626.5,-96 626.5,-96 626.5,-84 626.5,-84 626.5,-78 632.5,-72 638.5,-72 638.5,-72 668.5,-72 668.5,-72 674.5,-72 680.5,-78 680.5,-84 680.5,-84 680.5,-96 680.5,-96 680.5,-102 674.5,-108 668.5,-108"/>
<text text-anchor="middle" x="653.5" y="-86.3" font-family="Times,serif" font-size="14.00">Name</text>
</g>
<!-- ast.Subscript object at 0x74c8020e0310&#45;&gt;ast.Name object at 0x74c8020e0950 -->
<g id="edge76" class="edge">
<title>ast.Subscript object at 0x74c8020e0310&#45;&gt;ast.Name object at 0x74c8020e0950</title>
<path fill="none" stroke="black" d="M801.28,-147.33C798.32,-146.19 795.36,-145.06 792.5,-144 749.81,-128.11 736.03,-126.52 690.17,-108.08"/>
<polygon fill="black" stroke="black" points="691.47,-104.83 680.89,-104.29 688.82,-111.31 691.47,-104.83"/>
</g>
<!-- ast.Name object at 0x74c8020e12d0 -->
<g id="node57" class="node">
<title>ast.Name object at 0x74c8020e12d0</title>
<path fill="#66cdaa" stroke="black" d="M740.5,-108C740.5,-108 710.5,-108 710.5,-108 704.5,-108 698.5,-102 698.5,-96 698.5,-96 698.5,-84 698.5,-84 698.5,-78 704.5,-72 710.5,-72 710.5,-72 740.5,-72 740.5,-72 746.5,-72 752.5,-78 752.5,-84 752.5,-84 752.5,-96 752.5,-96 752.5,-102 746.5,-108 740.5,-108"/>
<text text-anchor="middle" x="725.5" y="-86.3" font-family="Times,serif" font-size="14.00">Name</text>
</g>
<!-- ast.Subscript object at 0x74c8020e0310&#45;&gt;ast.Name object at 0x74c8020e12d0 -->
<g id="edge78" class="edge">
<title>ast.Subscript object at 0x74c8020e0310&#45;&gt;ast.Name object at 0x74c8020e12d0</title>
<path fill="none" stroke="black" d="M808.59,-143.88C794.34,-134.81 776.65,-123.55 761.26,-113.76"/>
<polygon fill="black" stroke="black" points="762.83,-110.61 752.51,-108.19 759.07,-116.51 762.83,-110.61"/>
</g>
<!-- ast.Name object at 0x74c8020e0950&#45;&gt;ast.Load object at 0x74c9a1006950 -->
<g id="edge77" class="edge">
<title>ast.Name object at 0x74c8020e0950&#45;&gt;ast.Load object at 0x74c9a1006950</title>
<path fill="none" stroke="black" d="M680.7,-75.18C683.62,-73.99 686.59,-72.9 689.5,-72 793.98,-39.76 923.2,-26.38 985.87,-21.48"/>
<polygon fill="black" stroke="black" points="986.36,-24.95 996.07,-20.71 985.83,-17.97 986.36,-24.95"/>
</g>
<!-- ast.Name object at 0x74c8020e12d0&#45;&gt;ast.Load object at 0x74c9a1006950 -->
<g id="edge79" class="edge">
<title>ast.Name object at 0x74c8020e12d0&#45;&gt;ast.Load object at 0x74c9a1006950</title>
<path fill="none" stroke="black" d="M752.74,-75.3C755.66,-74.09 758.61,-72.96 761.5,-72 839.38,-46.16 934.67,-30.73 986.16,-23.66"/>
<polygon fill="black" stroke="black" points="986.72,-27.11 996.16,-22.31 985.78,-20.18 986.72,-27.11"/>
</g>
<!-- ast.Subscript object at 0x74c8020e1f10 -->
<g id="node60" class="node">
<title>ast.Subscript object at 0x74c8020e1f10</title>
<path fill="#66cdaa" stroke="black" d="M1027.5,-180C1027.5,-180 983.5,-180 983.5,-180 977.5,-180 971.5,-174 971.5,-168 971.5,-168 971.5,-156 971.5,-156 971.5,-150 977.5,-144 983.5,-144 983.5,-144 1027.5,-144 1027.5,-144 1033.5,-144 1039.5,-150 1039.5,-156 1039.5,-156 1039.5,-168 1039.5,-168 1039.5,-174 1033.5,-180 1027.5,-180"/>
<text text-anchor="middle" x="1005.5" y="-158.3" font-family="Times,serif" font-size="14.00">Subscript</text>
</g>
<!-- ast.Assign object at 0x74c8020e1110&#45;&gt;ast.Subscript object at 0x74c8020e1f10 -->
<g id="edge84" class="edge">
<title>ast.Assign object at 0x74c8020e1110&#45;&gt;ast.Subscript object at 0x74c8020e1f10</title>
<path fill="none" stroke="black" d="M941.51,-215.7C952.22,-206.88 965.39,-196.03 977,-186.47"/>
<polygon fill="black" stroke="black" points="979.24,-189.16 984.73,-180.1 974.79,-183.76 979.24,-189.16"/>
</g>
<!-- ast.Constant object at 0x74c8020e3bd0 -->
<g id="node63" class="node">
<title>ast.Constant object at 0x74c8020e3bd0</title>
<path fill="#66cdaa" stroke="black" d="M941,-180C941,-180 900,-180 900,-180 894,-180 888,-174 888,-168 888,-168 888,-156 888,-156 888,-150 894,-144 900,-144 900,-144 941,-144 941,-144 947,-144 953,-150 953,-156 953,-156 953,-168 953,-168 953,-174 947,-180 941,-180"/>
<text text-anchor="middle" x="920.5" y="-158.3" font-family="Times,serif" font-size="14.00">Constant</text>
</g>
<!-- ast.Assign object at 0x74c8020e1110&#45;&gt;ast.Constant object at 0x74c8020e3bd0 -->
<g id="edge90" class="edge">
<title>ast.Assign object at 0x74c8020e1110&#45;&gt;ast.Constant object at 0x74c8020e3bd0</title>
<path fill="none" stroke="black" d="M920.5,-215.7C920.5,-207.98 920.5,-198.71 920.5,-190.11"/>
<polygon fill="black" stroke="black" points="924,-190.1 920.5,-180.1 917,-190.1 924,-190.1"/>
</g>
<!-- ast.Subscript object at 0x74c8020e1f10&#45;&gt;ast.Store object at 0x74c9a10069d0 -->
<g id="edge89" class="edge">
<title>ast.Subscript object at 0x74c8020e1f10&#45;&gt;ast.Store object at 0x74c9a10069d0</title>
<path fill="none" stroke="black" d="M971.19,-146.75C967.95,-145.71 964.68,-144.77 961.5,-144 812.05,-107.98 769.17,-133.04 617.5,-108 605.05,-105.94 591.56,-103.09 579.51,-100.3"/>
<polygon fill="black" stroke="black" points="580.31,-96.9 569.78,-98 578.7,-103.71 580.31,-96.9"/>
</g>
<!-- ast.Name object at 0x74c8020e2210 -->
<g id="node61" class="node">
<title>ast.Name object at 0x74c8020e2210</title>
<path fill="#66cdaa" stroke="black" d="M884.5,-108C884.5,-108 854.5,-108 854.5,-108 848.5,-108 842.5,-102 842.5,-96 842.5,-96 842.5,-84 842.5,-84 842.5,-78 848.5,-72 854.5,-72 854.5,-72 884.5,-72 884.5,-72 890.5,-72 896.5,-78 896.5,-84 896.5,-84 896.5,-96 896.5,-96 896.5,-102 890.5,-108 884.5,-108"/>
<text text-anchor="middle" x="869.5" y="-86.3" font-family="Times,serif" font-size="14.00">Name</text>
</g>
<!-- ast.Subscript object at 0x74c8020e1f10&#45;&gt;ast.Name object at 0x74c8020e2210 -->
<g id="edge85" class="edge">
<title>ast.Subscript object at 0x74c8020e1f10&#45;&gt;ast.Name object at 0x74c8020e2210</title>
<path fill="none" stroke="black" d="M972.23,-143.88C952.18,-133.56 926.63,-120.4 906.02,-109.8"/>
<polygon fill="black" stroke="black" points="907.43,-106.59 896.94,-105.12 904.23,-112.81 907.43,-106.59"/>
</g>
<!-- ast.Name object at 0x74c8020e1a10 -->
<g id="node62" class="node">
<title>ast.Name object at 0x74c8020e1a10</title>
<path fill="#66cdaa" stroke="black" d="M812.5,-108C812.5,-108 782.5,-108 782.5,-108 776.5,-108 770.5,-102 770.5,-96 770.5,-96 770.5,-84 770.5,-84 770.5,-78 776.5,-72 782.5,-72 782.5,-72 812.5,-72 812.5,-72 818.5,-72 824.5,-78 824.5,-84 824.5,-84 824.5,-96 824.5,-96 824.5,-102 818.5,-108 812.5,-108"/>
<text text-anchor="middle" x="797.5" y="-86.3" font-family="Times,serif" font-size="14.00">Name</text>
</g>
<!-- ast.Subscript object at 0x74c8020e1f10&#45;&gt;ast.Name object at 0x74c8020e1a10 -->
<g id="edge87" class="edge">
<title>ast.Subscript object at 0x74c8020e1f10&#45;&gt;ast.Name object at 0x74c8020e1a10</title>
<path fill="none" stroke="black" d="M971.02,-147.33C967.82,-146.16 964.61,-145.03 961.5,-144 908.28,-126.28 890.64,-128.4 834.21,-107.96"/>
<polygon fill="black" stroke="black" points="835.41,-104.67 824.81,-104.48 832.98,-111.23 835.41,-104.67"/>
</g>
<!-- ast.Name object at 0x74c8020e2210&#45;&gt;ast.Load object at 0x74c9a1006950 -->
<g id="edge86" class="edge">
<title>ast.Name object at 0x74c8020e2210&#45;&gt;ast.Load object at 0x74c9a1006950</title>
<path fill="none" stroke="black" d="M896.6,-76.13C899.6,-74.73 902.61,-73.33 905.5,-72 932.75,-59.45 963.69,-45.56 987.06,-35.15"/>
<polygon fill="black" stroke="black" points="988.54,-38.33 996.25,-31.06 985.69,-31.93 988.54,-38.33"/>
</g>
<!-- ast.Name object at 0x74c8020e1a10&#45;&gt;ast.Load object at 0x74c9a1006950 -->
<g id="edge88" class="edge">
<title>ast.Name object at 0x74c8020e1a10&#45;&gt;ast.Load object at 0x74c9a1006950</title>
<path fill="none" stroke="black" d="M824.81,-75.52C827.72,-74.26 830.65,-73.06 833.5,-72 885.49,-52.63 947.78,-36.55 986.5,-27.35"/>
<polygon fill="black" stroke="black" points="987.36,-30.75 996.3,-25.05 985.76,-23.93 987.36,-30.75"/>
</g>
<!-- ast.Compare object at 0x74c8020e2b50 -->
<g id="node65" class="node">
<title>ast.Compare object at 0x74c8020e2b50</title>
<path fill="#66cdaa" stroke="black" d="M1426,-540C1426,-540 1383,-540 1383,-540 1377,-540 1371,-534 1371,-528 1371,-528 1371,-516 1371,-516 1371,-510 1377,-504 1383,-504 1383,-504 1426,-504 1426,-504 1432,-504 1438,-510 1438,-516 1438,-516 1438,-528 1438,-528 1438,-534 1432,-540 1426,-540"/>
<text text-anchor="middle" x="1404.5" y="-518.3" font-family="Times,serif" font-size="14.00">Compare</text>
</g>
<!-- ast.Return object at 0x74c8020e3690&#45;&gt;ast.Compare object at 0x74c8020e2b50 -->
<g id="edge92" class="edge">
<title>ast.Return object at 0x74c8020e3690&#45;&gt;ast.Compare object at 0x74c8020e2b50</title>
<path fill="none" stroke="black" d="M976.74,-589.73C1038.46,-582.19 1193.63,-562.49 1322.5,-540 1334.92,-537.83 1348.34,-535.18 1360.65,-532.63"/>
<polygon fill="black" stroke="black" points="1361.62,-536 1370.68,-530.51 1360.17,-529.15 1361.62,-536"/>
</g>
<!-- ast.Name object at 0x74c8020e3010 -->
<g id="node66" class="node">
<title>ast.Name object at 0x74c8020e3010</title>
<path fill="#66cdaa" stroke="black" d="M1381.5,-468C1381.5,-468 1351.5,-468 1351.5,-468 1345.5,-468 1339.5,-462 1339.5,-456 1339.5,-456 1339.5,-444 1339.5,-444 1339.5,-438 1345.5,-432 1351.5,-432 1351.5,-432 1381.5,-432 1381.5,-432 1387.5,-432 1393.5,-438 1393.5,-444 1393.5,-444 1393.5,-456 1393.5,-456 1393.5,-462 1387.5,-468 1381.5,-468"/>
<text text-anchor="middle" x="1366.5" y="-446.3" font-family="Times,serif" font-size="14.00">Name</text>
</g>
<!-- ast.Compare object at 0x74c8020e2b50&#45;&gt;ast.Name object at 0x74c8020e3010 -->
<g id="edge93" class="edge">
<title>ast.Compare object at 0x74c8020e2b50&#45;&gt;ast.Name object at 0x74c8020e3010</title>
<path fill="none" stroke="black" d="M1395.11,-503.7C1390.74,-495.64 1385.44,-485.89 1380.6,-476.98"/>
<polygon fill="black" stroke="black" points="1383.63,-475.22 1375.79,-468.1 1377.48,-478.56 1383.63,-475.22"/>
</g>
<!-- ast.LtE object at 0x74c9a1007ad0 -->
<g id="node67" class="node">
<title>ast.LtE object at 0x74c9a1007ad0</title>
<path fill="#66cdaa" stroke="black" d="M1453.5,-468C1453.5,-468 1423.5,-468 1423.5,-468 1417.5,-468 1411.5,-462 1411.5,-456 1411.5,-456 1411.5,-444 1411.5,-444 1411.5,-438 1417.5,-432 1423.5,-432 1423.5,-432 1453.5,-432 1453.5,-432 1459.5,-432 1465.5,-438 1465.5,-444 1465.5,-444 1465.5,-456 1465.5,-456 1465.5,-462 1459.5,-468 1453.5,-468"/>
<text text-anchor="middle" x="1438.5" y="-446.3" font-family="Times,serif" font-size="14.00">LtE</text>
</g>
<!-- ast.Compare object at 0x74c8020e2b50&#45;&gt;ast.LtE object at 0x74c9a1007ad0 -->
<g id="edge95" class="edge">
<title>ast.Compare object at 0x74c8020e2b50&#45;&gt;ast.LtE object at 0x74c9a1007ad0</title>
<path fill="none" stroke="black" d="M1412.9,-503.7C1416.77,-495.73 1421.45,-486.1 1425.74,-477.26"/>
<polygon fill="black" stroke="black" points="1428.97,-478.63 1430.19,-468.1 1422.67,-475.57 1428.97,-478.63"/>
</g>
<!-- ast.Constant object at 0x74c8020e3f50 -->
<g id="node68" class="node">
<title>ast.Constant object at 0x74c8020e3f50</title>
<path fill="#66cdaa" stroke="black" d="M1537,-468C1537,-468 1496,-468 1496,-468 1490,-468 1484,-462 1484,-456 1484,-456 1484,-444 1484,-444 1484,-438 1490,-432 1496,-432 1496,-432 1537,-432 1537,-432 1543,-432 1549,-438 1549,-444 1549,-444 1549,-456 1549,-456 1549,-462 1543,-468 1537,-468"/>
<text text-anchor="middle" x="1516.5" y="-446.3" font-family="Times,serif" font-size="14.00">Constant</text>
</g>
<!-- ast.Compare object at 0x74c8020e2b50&#45;&gt;ast.Constant object at 0x74c8020e3f50 -->
<g id="edge96" class="edge">
<title>ast.Compare object at 0x74c8020e2b50&#45;&gt;ast.Constant object at 0x74c8020e3f50</title>
<path fill="none" stroke="black" d="M1431.9,-503.88C1446.41,-494.81 1464.42,-483.55 1480.09,-473.76"/>
<polygon fill="black" stroke="black" points="1482.37,-476.46 1489,-468.19 1478.66,-470.52 1482.37,-476.46"/>
</g>
<!-- ast.Name object at 0x74c8020e3010&#45;&gt;ast.Load object at 0x74c9a1006950 -->
<g id="edge94" class="edge">
<title>ast.Name object at 0x74c8020e3010&#45;&gt;ast.Load object at 0x74c9a1006950</title>
<path fill="none" stroke="black" d="M1393.8,-435.48C1396.71,-434.23 1399.64,-433.05 1402.5,-432 1520.65,-388.75 1656.5,-432.82 1656.5,-307 1656.5,-307 1656.5,-307 1656.5,-161 1656.5,-116.87 1648.9,-96.94 1612.5,-72 1567.02,-40.84 1183.3,-24.66 1060.88,-20.26"/>
<polygon fill="black" stroke="black" points="1060.64,-16.75 1050.52,-19.89 1060.39,-23.74 1060.64,-16.75"/>
</g>
</g>
</svg>
