<?xml version="1.0" encoding="UTF-8" standalone="no"?>
<!DOCTYPE svg PUBLIC "-//W3C//DTD SVG 1.1//EN"
 "http://www.w3.org/Graphics/SVG/1.1/DTD/svg11.dtd">
<!-- Generated by graphviz version 2.50.0 (0)
 -->
<!-- Pages: 1 -->
<svg width="963pt" height="980pt"
 viewBox="0.00 0.00 962.50 980.00" xmlns="http://www.w3.org/2000/svg" xmlns:xlink="http://www.w3.org/1999/xlink">
<g id="graph0" class="graph" transform="scale(1 1) rotate(0) translate(4 976)">
<polygon fill="white" stroke="transparent" points="-4,4 -4,-976 958.5,-976 958.5,4 -4,4"/>
<!-- ast.Module object at 0x7bad3ca932d0 -->
<g id="node1" class="node">
<title>ast.Module object at 0x7bad3ca932d0</title>
<path fill="#66cdaa" stroke="black" d="M541,-972C541,-972 506,-972 506,-972 500,-972 494,-966 494,-960 494,-960 494,-948 494,-948 494,-942 500,-936 506,-936 506,-936 541,-936 541,-936 547,-936 553,-942 553,-948 553,-948 553,-960 553,-960 553,-966 547,-972 541,-972"/>
<text text-anchor="middle" x="523.5" y="-950.3" font-family="Times,serif" font-size="14.00">Module</text>
</g>
<!-- ast.FunctionDef object at 0x7bad3ca90bd0 -->
<g id="node2" class="node">
<title>ast.FunctionDef object at 0x7bad3ca90bd0</title>
<path fill="#66cdaa" stroke="black" d="M554,-900C554,-900 493,-900 493,-900 487,-900 481,-894 481,-888 481,-888 481,-876 481,-876 481,-870 487,-864 493,-864 493,-864 554,-864 554,-864 560,-864 566,-870 566,-876 566,-876 566,-888 566,-888 566,-894 560,-900 554,-900"/>
<text text-anchor="middle" x="523.5" y="-878.3" font-family="Times,serif" font-size="14.00">FunctionDef</text>
</g>
<!-- ast.Module object at 0x7bad3ca932d0&#45;&gt;ast.FunctionDef object at 0x7bad3ca90bd0 -->
<g id="edge1" class="edge">
<title>ast.Module object at 0x7bad3ca932d0&#45;&gt;ast.FunctionDef object at 0x7bad3ca90bd0</title>
<path fill="none" stroke="black" d="M523.5,-935.7C523.5,-927.98 523.5,-918.71 523.5,-910.11"/>
<polygon fill="black" stroke="black" points="527,-910.1 523.5,-900.1 520,-910.1 527,-910.1"/>
</g>
<!-- ast.arguments object at 0x7bad3c8bd110 -->
<g id="node3" class="node">
<title>ast.arguments object at 0x7bad3c8bd110</title>
<path fill="#66cdaa" stroke="black" d="M507.5,-828C507.5,-828 457.5,-828 457.5,-828 451.5,-828 445.5,-822 445.5,-816 445.5,-816 445.5,-804 445.5,-804 445.5,-798 451.5,-792 457.5,-792 457.5,-792 507.5,-792 507.5,-792 513.5,-792 519.5,-798 519.5,-804 519.5,-804 519.5,-816 519.5,-816 519.5,-822 513.5,-828 507.5,-828"/>
<text text-anchor="middle" x="482.5" y="-806.3" font-family="Times,serif" font-size="14.00">arguments</text>
</g>
<!-- ast.FunctionDef object at 0x7bad3ca90bd0&#45;&gt;ast.arguments object at 0x7bad3c8bd110 -->
<g id="edge2" class="edge">
<title>ast.FunctionDef object at 0x7bad3ca90bd0&#45;&gt;ast.arguments object at 0x7bad3c8bd110</title>
<path fill="none" stroke="black" d="M513.37,-863.7C508.65,-855.64 502.94,-845.89 497.72,-836.98"/>
<polygon fill="black" stroke="black" points="500.59,-834.96 492.52,-828.1 494.55,-838.5 500.59,-834.96"/>
</g>
<!-- ast.Return object at 0x7bad3c8bcb90 -->
<g id="node5" class="node">
<title>ast.Return object at 0x7bad3c8bcb90</title>
<path fill="#66cdaa" stroke="black" d="M579.5,-828C579.5,-828 549.5,-828 549.5,-828 543.5,-828 537.5,-822 537.5,-816 537.5,-816 537.5,-804 537.5,-804 537.5,-798 543.5,-792 549.5,-792 549.5,-792 579.5,-792 579.5,-792 585.5,-792 591.5,-798 591.5,-804 591.5,-804 591.5,-816 591.5,-816 591.5,-822 585.5,-828 579.5,-828"/>
<text text-anchor="middle" x="564.5" y="-806.3" font-family="Times,serif" font-size="14.00">Return</text>
</g>
<!-- ast.FunctionDef object at 0x7bad3ca90bd0&#45;&gt;ast.Return object at 0x7bad3c8bcb90 -->
<g id="edge4" class="edge">
<title>ast.FunctionDef object at 0x7bad3ca90bd0&#45;&gt;ast.Return object at 0x7bad3c8bcb90</title>
<path fill="none" stroke="black" d="M533.63,-863.7C538.35,-855.64 544.06,-845.89 549.28,-836.98"/>
<polygon fill="black" stroke="black" points="552.45,-838.5 554.48,-828.1 546.41,-834.96 552.45,-838.5"/>
</g>
<!-- ast.arg object at 0x7bad3c8bd610 -->
<g id="node4" class="node">
<title>ast.arg object at 0x7bad3c8bd610</title>
<path fill="#66cdaa" stroke="black" d="M497.5,-756C497.5,-756 467.5,-756 467.5,-756 461.5,-756 455.5,-750 455.5,-744 455.5,-744 455.5,-732 455.5,-732 455.5,-726 461.5,-720 467.5,-720 467.5,-720 497.5,-720 497.5,-720 503.5,-720 509.5,-726 509.5,-732 509.5,-732 509.5,-744 509.5,-744 509.5,-750 503.5,-756 497.5,-756"/>
<text text-anchor="middle" x="482.5" y="-734.3" font-family="Times,serif" font-size="14.00">arg</text>
</g>
<!-- ast.arguments object at 0x7bad3c8bd110&#45;&gt;ast.arg object at 0x7bad3c8bd610 -->
<g id="edge3" class="edge">
<title>ast.arguments object at 0x7bad3c8bd110&#45;&gt;ast.arg object at 0x7bad3c8bd610</title>
<path fill="none" stroke="black" d="M482.5,-791.7C482.5,-783.98 482.5,-774.71 482.5,-766.11"/>
<polygon fill="black" stroke="black" points="486,-766.1 482.5,-756.1 479,-766.1 486,-766.1"/>
</g>
<!-- ast.IfExp object at 0x7bad47bf6d10 -->
<g id="node6" class="node">
<title>ast.IfExp object at 0x7bad47bf6d10</title>
<path fill="#66cdaa" stroke="black" d="M579.5,-756C579.5,-756 549.5,-756 549.5,-756 543.5,-756 537.5,-750 537.5,-744 537.5,-744 537.5,-732 537.5,-732 537.5,-726 543.5,-720 549.5,-720 549.5,-720 579.5,-720 579.5,-720 585.5,-720 591.5,-726 591.5,-732 591.5,-732 591.5,-744 591.5,-744 591.5,-750 585.5,-756 579.5,-756"/>
<text text-anchor="middle" x="564.5" y="-734.3" font-family="Times,serif" font-size="14.00">IfExp</text>
</g>
<!-- ast.Return object at 0x7bad3c8bcb90&#45;&gt;ast.IfExp object at 0x7bad47bf6d10 -->
<g id="edge5" class="edge">
<title>ast.Return object at 0x7bad3c8bcb90&#45;&gt;ast.IfExp object at 0x7bad47bf6d10</title>
<path fill="none" stroke="black" d="M564.5,-791.7C564.5,-783.98 564.5,-774.71 564.5,-766.11"/>
<polygon fill="black" stroke="black" points="568,-766.1 564.5,-756.1 561,-766.1 568,-766.1"/>
</g>
<!-- ast.Name object at 0x7bad3cad6e10 -->
<g id="node7" class="node">
<title>ast.Name object at 0x7bad3cad6e10</title>
<path fill="#66cdaa" stroke="black" d="M252.5,-540C252.5,-540 222.5,-540 222.5,-540 216.5,-540 210.5,-534 210.5,-528 210.5,-528 210.5,-516 210.5,-516 210.5,-510 216.5,-504 222.5,-504 222.5,-504 252.5,-504 252.5,-504 258.5,-504 264.5,-510 264.5,-516 264.5,-516 264.5,-528 264.5,-528 264.5,-534 258.5,-540 252.5,-540"/>
<text text-anchor="middle" x="237.5" y="-518.3" font-family="Times,serif" font-size="14.00">Name</text>
</g>
<!-- ast.IfExp object at 0x7bad47bf6d10&#45;&gt;ast.Name object at 0x7bad3cad6e10 -->
<g id="edge6" class="edge">
<title>ast.IfExp object at 0x7bad47bf6d10&#45;&gt;ast.Name object at 0x7bad3cad6e10</title>
<path fill="none" stroke="black" d="M538.29,-719.85C479.7,-681.5 338.07,-588.82 272.23,-545.73"/>
<polygon fill="black" stroke="black" points="274.12,-542.78 263.83,-540.23 270.28,-548.64 274.12,-542.78"/>
</g>
<!-- ast.SetComp object at 0x7bad3c8ad710 -->
<g id="node9" class="node">
<title>ast.SetComp object at 0x7bad3c8ad710</title>
<path fill="#66cdaa" stroke="black" d="M586.5,-684C586.5,-684 542.5,-684 542.5,-684 536.5,-684 530.5,-678 530.5,-672 530.5,-672 530.5,-660 530.5,-660 530.5,-654 536.5,-648 542.5,-648 542.5,-648 586.5,-648 586.5,-648 592.5,-648 598.5,-654 598.5,-660 598.5,-660 598.5,-672 598.5,-672 598.5,-678 592.5,-684 586.5,-684"/>
<text text-anchor="middle" x="564.5" y="-662.3" font-family="Times,serif" font-size="14.00">SetComp</text>
</g>
<!-- ast.IfExp object at 0x7bad47bf6d10&#45;&gt;ast.SetComp object at 0x7bad3c8ad710 -->
<g id="edge8" class="edge">
<title>ast.IfExp object at 0x7bad47bf6d10&#45;&gt;ast.SetComp object at 0x7bad3c8ad710</title>
<path fill="none" stroke="black" d="M564.5,-719.7C564.5,-711.98 564.5,-702.71 564.5,-694.11"/>
<polygon fill="black" stroke="black" points="568,-694.1 564.5,-684.1 561,-694.1 568,-694.1"/>
</g>
<!-- ast.Call object at 0x7bad3c7155d0 -->
<g id="node42" class="node">
<title>ast.Call object at 0x7bad3c7155d0</title>
<path fill="#66cdaa" stroke="black" d="M916.5,-684C916.5,-684 886.5,-684 886.5,-684 880.5,-684 874.5,-678 874.5,-672 874.5,-672 874.5,-660 874.5,-660 874.5,-654 880.5,-648 886.5,-648 886.5,-648 916.5,-648 916.5,-648 922.5,-648 928.5,-654 928.5,-660 928.5,-660 928.5,-672 928.5,-672 928.5,-678 922.5,-684 916.5,-684"/>
<text text-anchor="middle" x="901.5" y="-662.3" font-family="Times,serif" font-size="14.00">Call</text>
</g>
<!-- ast.IfExp object at 0x7bad47bf6d10&#45;&gt;ast.Call object at 0x7bad3c7155d0 -->
<g id="edge52" class="edge">
<title>ast.IfExp object at 0x7bad47bf6d10&#45;&gt;ast.Call object at 0x7bad3c7155d0</title>
<path fill="none" stroke="black" d="M591.51,-731.39C651.53,-718.92 796.07,-688.9 864.46,-674.69"/>
<polygon fill="black" stroke="black" points="865.28,-678.1 874.36,-672.64 863.86,-671.24 865.28,-678.1"/>
</g>
<!-- ast.Load object at 0x7bad489bd950 -->
<g id="node8" class="node">
<title>ast.Load object at 0x7bad489bd950</title>
<path fill="#66cdaa" stroke="black" d="M604.5,-36C604.5,-36 574.5,-36 574.5,-36 568.5,-36 562.5,-30 562.5,-24 562.5,-24 562.5,-12 562.5,-12 562.5,-6 568.5,0 574.5,0 574.5,0 604.5,0 604.5,0 610.5,0 616.5,-6 616.5,-12 616.5,-12 616.5,-24 616.5,-24 616.5,-30 610.5,-36 604.5,-36"/>
<text text-anchor="middle" x="589.5" y="-14.3" font-family="Times,serif" font-size="14.00">Load</text>
</g>
<!-- ast.Name object at 0x7bad3cad6e10&#45;&gt;ast.Load object at 0x7bad489bd950 -->
<g id="edge7" class="edge">
<title>ast.Name object at 0x7bad3cad6e10&#45;&gt;ast.Load object at 0x7bad489bd950</title>
<path fill="none" stroke="black" d="M211.94,-503.89C179.73,-480.04 128.5,-433.54 128.5,-379 128.5,-379 128.5,-379 128.5,-161 128.5,-116.87 136.56,-97.6 172.5,-72 233.1,-28.82 461.76,-20.8 552.28,-19.33"/>
<polygon fill="black" stroke="black" points="552.41,-22.83 562.36,-19.18 552.31,-15.83 552.41,-22.83"/>
</g>
<!-- ast.Name object at 0x7bad3c8accd0 -->
<g id="node10" class="node">
<title>ast.Name object at 0x7bad3c8accd0</title>
<path fill="#66cdaa" stroke="black" d="M904.5,-324C904.5,-324 874.5,-324 874.5,-324 868.5,-324 862.5,-318 862.5,-312 862.5,-312 862.5,-300 862.5,-300 862.5,-294 868.5,-288 874.5,-288 874.5,-288 904.5,-288 904.5,-288 910.5,-288 916.5,-294 916.5,-300 916.5,-300 916.5,-312 916.5,-312 916.5,-318 910.5,-324 904.5,-324"/>
<text text-anchor="middle" x="889.5" y="-302.3" font-family="Times,serif" font-size="14.00">Name</text>
</g>
<!-- ast.SetComp object at 0x7bad3c8ad710&#45;&gt;ast.Name object at 0x7bad3c8accd0 -->
<g id="edge9" class="edge">
<title>ast.SetComp object at 0x7bad3c8ad710&#45;&gt;ast.Name object at 0x7bad3c8accd0</title>
<path fill="none" stroke="black" d="M598.64,-664.63C678.83,-661.78 872.5,-642.53 872.5,-523 872.5,-523 872.5,-523 872.5,-449 872.5,-408.93 879.26,-362.95 884.25,-334.43"/>
<polygon fill="black" stroke="black" points="887.73,-334.87 886.06,-324.41 880.84,-333.63 887.73,-334.87"/>
</g>
<!-- ast.comprehension object at 0x7bad3c715250 -->
<g id="node11" class="node">
<title>ast.comprehension object at 0x7bad3c715250</title>
<path fill="#66cdaa" stroke="black" d="M499.5,-612C499.5,-612 423.5,-612 423.5,-612 417.5,-612 411.5,-606 411.5,-600 411.5,-600 411.5,-588 411.5,-588 411.5,-582 417.5,-576 423.5,-576 423.5,-576 499.5,-576 499.5,-576 505.5,-576 511.5,-582 511.5,-588 511.5,-588 511.5,-600 511.5,-600 511.5,-606 505.5,-612 499.5,-612"/>
<text text-anchor="middle" x="461.5" y="-590.3" font-family="Times,serif" font-size="14.00">comprehension</text>
</g>
<!-- ast.SetComp object at 0x7bad3c8ad710&#45;&gt;ast.comprehension object at 0x7bad3c715250 -->
<g id="edge11" class="edge">
<title>ast.SetComp object at 0x7bad3c8ad710&#45;&gt;ast.comprehension object at 0x7bad3c715250</title>
<path fill="none" stroke="black" d="M539.3,-647.88C526.09,-638.89 509.71,-627.76 495.39,-618.03"/>
<polygon fill="black" stroke="black" points="497.03,-614.92 486.79,-612.19 493.1,-620.71 497.03,-614.92"/>
</g>
<!-- ast.Name object at 0x7bad3c8accd0&#45;&gt;ast.Load object at 0x7bad489bd950 -->
<g id="edge10" class="edge">
<title>ast.Name object at 0x7bad3c8accd0&#45;&gt;ast.Load object at 0x7bad489bd950</title>
<path fill="none" stroke="black" d="M893.12,-287.92C901.17,-244.76 915.41,-130.6 855.5,-72 823.53,-40.73 692.59,-26.69 627.12,-21.52"/>
<polygon fill="black" stroke="black" points="627.06,-18.01 616.83,-20.74 626.53,-24.99 627.06,-18.01"/>
</g>
<!-- ast.Name object at 0x7bad3c716990 -->
<g id="node12" class="node">
<title>ast.Name object at 0x7bad3c716990</title>
<path fill="#66cdaa" stroke="black" d="M399.5,-252C399.5,-252 369.5,-252 369.5,-252 363.5,-252 357.5,-246 357.5,-240 357.5,-240 357.5,-228 357.5,-228 357.5,-222 363.5,-216 369.5,-216 369.5,-216 399.5,-216 399.5,-216 405.5,-216 411.5,-222 411.5,-228 411.5,-228 411.5,-240 411.5,-240 411.5,-246 405.5,-252 399.5,-252"/>
<text text-anchor="middle" x="384.5" y="-230.3" font-family="Times,serif" font-size="14.00">Name</text>
</g>
<!-- ast.comprehension object at 0x7bad3c715250&#45;&gt;ast.Name object at 0x7bad3c716990 -->
<g id="edge12" class="edge">
<title>ast.comprehension object at 0x7bad3c715250&#45;&gt;ast.Name object at 0x7bad3c716990</title>
<path fill="none" stroke="black" d="M450.93,-575.79C435.99,-549.77 410.5,-498.41 410.5,-451 410.5,-451 410.5,-451 410.5,-377 410.5,-336.55 400.17,-290.67 392.53,-262.28"/>
<polygon fill="black" stroke="black" points="395.81,-261 389.76,-252.3 389.06,-262.87 395.81,-261"/>
</g>
<!-- ast.Call object at 0x7bad3c715850 -->
<g id="node14" class="node">
<title>ast.Call object at 0x7bad3c715850</title>
<path fill="#66cdaa" stroke="black" d="M291.5,-252C291.5,-252 261.5,-252 261.5,-252 255.5,-252 249.5,-246 249.5,-240 249.5,-240 249.5,-228 249.5,-228 249.5,-222 255.5,-216 261.5,-216 261.5,-216 291.5,-216 291.5,-216 297.5,-216 303.5,-222 303.5,-228 303.5,-228 303.5,-240 303.5,-240 303.5,-246 297.5,-252 291.5,-252"/>
<text text-anchor="middle" x="276.5" y="-230.3" font-family="Times,serif" font-size="14.00">Call</text>
</g>
<!-- ast.comprehension object at 0x7bad3c715250&#45;&gt;ast.Call object at 0x7bad3c715850 -->
<g id="edge14" class="edge">
<title>ast.comprehension object at 0x7bad3c715250&#45;&gt;ast.Call object at 0x7bad3c715850</title>
<path fill="none" stroke="black" d="M436.92,-575.93C405.6,-551.96 355.5,-505.14 355.5,-451 355.5,-451 355.5,-451 355.5,-377 355.5,-331.24 323.78,-286.45 300.54,-259.78"/>
<polygon fill="black" stroke="black" points="302.93,-257.21 293.64,-252.11 297.72,-261.88 302.93,-257.21"/>
</g>
<!-- ast.BoolOp object at 0x7bad3c7152d0 -->
<g id="node21" class="node">
<title>ast.BoolOp object at 0x7bad3c7152d0</title>
<path fill="#66cdaa" stroke="black" d="M660,-540C660,-540 625,-540 625,-540 619,-540 613,-534 613,-528 613,-528 613,-516 613,-516 613,-510 619,-504 625,-504 625,-504 660,-504 660,-504 666,-504 672,-510 672,-516 672,-516 672,-528 672,-528 672,-534 666,-540 660,-540"/>
<text text-anchor="middle" x="642.5" y="-518.3" font-family="Times,serif" font-size="14.00">BoolOp</text>
</g>
<!-- ast.comprehension object at 0x7bad3c715250&#45;&gt;ast.BoolOp object at 0x7bad3c7152d0 -->
<g id="edge24" class="edge">
<title>ast.comprehension object at 0x7bad3c715250&#45;&gt;ast.BoolOp object at 0x7bad3c7152d0</title>
<path fill="none" stroke="black" d="M505.78,-575.88C535.55,-564.36 574.44,-549.32 603.13,-538.23"/>
<polygon fill="black" stroke="black" points="604.76,-541.35 612.82,-534.48 602.23,-534.82 604.76,-541.35"/>
</g>
<!-- ast.Store object at 0x7bad489bd9d0 -->
<g id="node13" class="node">
<title>ast.Store object at 0x7bad489bd9d0</title>
<path fill="#66cdaa" stroke="black" d="M346.5,-108C346.5,-108 316.5,-108 316.5,-108 310.5,-108 304.5,-102 304.5,-96 304.5,-96 304.5,-84 304.5,-84 304.5,-78 310.5,-72 316.5,-72 316.5,-72 346.5,-72 346.5,-72 352.5,-72 358.5,-78 358.5,-84 358.5,-84 358.5,-96 358.5,-96 358.5,-102 352.5,-108 346.5,-108"/>
<text text-anchor="middle" x="331.5" y="-86.3" font-family="Times,serif" font-size="14.00">Store</text>
</g>
<!-- ast.Name object at 0x7bad3c716990&#45;&gt;ast.Store object at 0x7bad489bd9d0 -->
<g id="edge13" class="edge">
<title>ast.Name object at 0x7bad3c716990&#45;&gt;ast.Store object at 0x7bad489bd9d0</title>
<path fill="none" stroke="black" d="M375.56,-215.6C370.49,-205.38 364.24,-192.13 359.5,-180 351.51,-159.57 344.14,-135.85 338.97,-118.04"/>
<polygon fill="black" stroke="black" points="342.3,-116.96 336.19,-108.3 335.57,-118.88 342.3,-116.96"/>
</g>
<!-- ast.Name object at 0x7bad3c716150 -->
<g id="node15" class="node">
<title>ast.Name object at 0x7bad3c716150</title>
<path fill="#66cdaa" stroke="black" d="M291.5,-180C291.5,-180 261.5,-180 261.5,-180 255.5,-180 249.5,-174 249.5,-168 249.5,-168 249.5,-156 249.5,-156 249.5,-150 255.5,-144 261.5,-144 261.5,-144 291.5,-144 291.5,-144 297.5,-144 303.5,-150 303.5,-156 303.5,-156 303.5,-168 303.5,-168 303.5,-174 297.5,-180 291.5,-180"/>
<text text-anchor="middle" x="276.5" y="-158.3" font-family="Times,serif" font-size="14.00">Name</text>
</g>
<!-- ast.Call object at 0x7bad3c715850&#45;&gt;ast.Name object at 0x7bad3c716150 -->
<g id="edge15" class="edge">
<title>ast.Call object at 0x7bad3c715850&#45;&gt;ast.Name object at 0x7bad3c716150</title>
<path fill="none" stroke="black" d="M276.5,-215.7C276.5,-207.98 276.5,-198.71 276.5,-190.11"/>
<polygon fill="black" stroke="black" points="280,-190.1 276.5,-180.1 273,-190.1 280,-190.1"/>
</g>
<!-- ast.Subscript object at 0x7bad3c716a10 -->
<g id="node16" class="node">
<title>ast.Subscript object at 0x7bad3c716a10</title>
<path fill="#66cdaa" stroke="black" d="M216.5,-180C216.5,-180 172.5,-180 172.5,-180 166.5,-180 160.5,-174 160.5,-168 160.5,-168 160.5,-156 160.5,-156 160.5,-150 166.5,-144 172.5,-144 172.5,-144 216.5,-144 216.5,-144 222.5,-144 228.5,-150 228.5,-156 228.5,-156 228.5,-168 228.5,-168 228.5,-174 222.5,-180 216.5,-180"/>
<text text-anchor="middle" x="194.5" y="-158.3" font-family="Times,serif" font-size="14.00">Subscript</text>
</g>
<!-- ast.Call object at 0x7bad3c715850&#45;&gt;ast.Subscript object at 0x7bad3c716a10 -->
<g id="edge17" class="edge">
<title>ast.Call object at 0x7bad3c715850&#45;&gt;ast.Subscript object at 0x7bad3c716a10</title>
<path fill="none" stroke="black" d="M256.23,-215.7C246,-206.97 233.44,-196.24 222.32,-186.75"/>
<polygon fill="black" stroke="black" points="224.41,-183.94 214.54,-180.1 219.87,-189.26 224.41,-183.94"/>
</g>
<!-- ast.Name object at 0x7bad3c716150&#45;&gt;ast.Load object at 0x7bad489bd950 -->
<g id="edge16" class="edge">
<title>ast.Name object at 0x7bad3c716150&#45;&gt;ast.Load object at 0x7bad489bd950</title>
<path fill="none" stroke="black" d="M274.96,-143.94C274.16,-123.8 276.21,-90.69 295.5,-72 331.56,-37.08 481.17,-24.67 552,-20.69"/>
<polygon fill="black" stroke="black" points="552.46,-24.17 562.26,-20.14 552.09,-17.18 552.46,-24.17"/>
</g>
<!-- ast.Subscript object at 0x7bad3c716a10&#45;&gt;ast.Load object at 0x7bad489bd950 -->
<g id="edge23" class="edge">
<title>ast.Subscript object at 0x7bad3c716a10&#45;&gt;ast.Load object at 0x7bad489bd950</title>
<path fill="none" stroke="black" d="M186.09,-143.99C177.66,-124.2 168.19,-91.73 185.5,-72 209.56,-44.58 457.13,-26.94 552.41,-21.12"/>
<polygon fill="black" stroke="black" points="552.69,-24.61 562.46,-20.51 552.27,-17.62 552.69,-24.61"/>
</g>
<!-- ast.Name object at 0x7bad3c716050 -->
<g id="node17" class="node">
<title>ast.Name object at 0x7bad3c716050</title>
<path fill="#66cdaa" stroke="black" d="M236.5,-108C236.5,-108 206.5,-108 206.5,-108 200.5,-108 194.5,-102 194.5,-96 194.5,-96 194.5,-84 194.5,-84 194.5,-78 200.5,-72 206.5,-72 206.5,-72 236.5,-72 236.5,-72 242.5,-72 248.5,-78 248.5,-84 248.5,-84 248.5,-96 248.5,-96 248.5,-102 242.5,-108 236.5,-108"/>
<text text-anchor="middle" x="221.5" y="-86.3" font-family="Times,serif" font-size="14.00">Name</text>
</g>
<!-- ast.Subscript object at 0x7bad3c716a10&#45;&gt;ast.Name object at 0x7bad3c716050 -->
<g id="edge18" class="edge">
<title>ast.Subscript object at 0x7bad3c716a10&#45;&gt;ast.Name object at 0x7bad3c716050</title>
<path fill="none" stroke="black" d="M201.17,-143.7C204.21,-135.81 207.88,-126.3 211.26,-117.55"/>
<polygon fill="black" stroke="black" points="214.57,-118.69 214.9,-108.1 208.04,-116.17 214.57,-118.69"/>
</g>
<!-- ast.Slice object at 0x7bad3c7169d0 -->
<g id="node18" class="node">
<title>ast.Slice object at 0x7bad3c7169d0</title>
<path fill="#66cdaa" stroke="black" d="M88.5,-108C88.5,-108 58.5,-108 58.5,-108 52.5,-108 46.5,-102 46.5,-96 46.5,-96 46.5,-84 46.5,-84 46.5,-78 52.5,-72 58.5,-72 58.5,-72 88.5,-72 88.5,-72 94.5,-72 100.5,-78 100.5,-84 100.5,-84 100.5,-96 100.5,-96 100.5,-102 94.5,-108 88.5,-108"/>
<text text-anchor="middle" x="73.5" y="-86.3" font-family="Times,serif" font-size="14.00">Slice</text>
</g>
<!-- ast.Subscript object at 0x7bad3c716a10&#45;&gt;ast.Slice object at 0x7bad3c7169d0 -->
<g id="edge20" class="edge">
<title>ast.Subscript object at 0x7bad3c716a10&#45;&gt;ast.Slice object at 0x7bad3c7169d0</title>
<path fill="none" stroke="black" d="M164.9,-143.88C148.22,-134.23 127.25,-122.1 109.61,-111.89"/>
<polygon fill="black" stroke="black" points="111.13,-108.73 100.73,-106.75 107.63,-114.79 111.13,-108.73"/>
</g>
<!-- ast.Name object at 0x7bad3c716050&#45;&gt;ast.Load object at 0x7bad489bd950 -->
<g id="edge19" class="edge">
<title>ast.Name object at 0x7bad3c716050&#45;&gt;ast.Load object at 0x7bad489bd950</title>
<path fill="none" stroke="black" d="M248.53,-76.76C253.13,-74.98 257.9,-73.31 262.5,-72 365.26,-42.8 491.06,-28.07 552.36,-22.19"/>
<polygon fill="black" stroke="black" points="552.7,-25.67 562.33,-21.25 552.05,-18.7 552.7,-25.67"/>
</g>
<!-- ast.Constant object at 0x7bad3c715650 -->
<g id="node19" class="node">
<title>ast.Constant object at 0x7bad3c715650</title>
<path fill="#66cdaa" stroke="black" d="M136,-36C136,-36 95,-36 95,-36 89,-36 83,-30 83,-24 83,-24 83,-12 83,-12 83,-6 89,0 95,0 95,0 136,0 136,0 142,0 148,-6 148,-12 148,-12 148,-24 148,-24 148,-30 142,-36 136,-36"/>
<text text-anchor="middle" x="115.5" y="-14.3" font-family="Times,serif" font-size="14.00">Constant</text>
</g>
<!-- ast.Slice object at 0x7bad3c7169d0&#45;&gt;ast.Constant object at 0x7bad3c715650 -->
<g id="edge21" class="edge">
<title>ast.Slice object at 0x7bad3c7169d0&#45;&gt;ast.Constant object at 0x7bad3c715650</title>
<path fill="none" stroke="black" d="M83.88,-71.7C88.76,-63.56 94.69,-53.69 100.08,-44.7"/>
<polygon fill="black" stroke="black" points="103.09,-46.48 105.24,-36.1 97.09,-42.88 103.09,-46.48"/>
</g>
<!-- ast.Constant object at 0x7bad3c715090 -->
<g id="node20" class="node">
<title>ast.Constant object at 0x7bad3c715090</title>
<path fill="#66cdaa" stroke="black" d="M53,-36C53,-36 12,-36 12,-36 6,-36 0,-30 0,-24 0,-24 0,-12 0,-12 0,-6 6,0 12,0 12,0 53,0 53,0 59,0 65,-6 65,-12 65,-12 65,-24 65,-24 65,-30 59,-36 53,-36"/>
<text text-anchor="middle" x="32.5" y="-14.3" font-family="Times,serif" font-size="14.00">Constant</text>
</g>
<!-- ast.Slice object at 0x7bad3c7169d0&#45;&gt;ast.Constant object at 0x7bad3c715090 -->
<g id="edge22" class="edge">
<title>ast.Slice object at 0x7bad3c7169d0&#45;&gt;ast.Constant object at 0x7bad3c715090</title>
<path fill="none" stroke="black" d="M63.37,-71.7C58.65,-63.64 52.94,-53.89 47.72,-44.98"/>
<polygon fill="black" stroke="black" points="50.59,-42.96 42.52,-36.1 44.55,-46.5 50.59,-42.96"/>
</g>
<!-- ast.And object at 0x7bad489bdc10 -->
<g id="node22" class="node">
<title>ast.And object at 0x7bad489bdc10</title>
<path fill="#66cdaa" stroke="black" d="M778.5,-468C778.5,-468 748.5,-468 748.5,-468 742.5,-468 736.5,-462 736.5,-456 736.5,-456 736.5,-444 736.5,-444 736.5,-438 742.5,-432 748.5,-432 748.5,-432 778.5,-432 778.5,-432 784.5,-432 790.5,-438 790.5,-444 790.5,-444 790.5,-456 790.5,-456 790.5,-462 784.5,-468 778.5,-468"/>
<text text-anchor="middle" x="763.5" y="-446.3" font-family="Times,serif" font-size="14.00">And</text>
</g>
<!-- ast.BoolOp object at 0x7bad3c7152d0&#45;&gt;ast.And object at 0x7bad489bdc10 -->
<g id="edge25" class="edge">
<title>ast.BoolOp object at 0x7bad3c7152d0&#45;&gt;ast.And object at 0x7bad489bdc10</title>
<path fill="none" stroke="black" d="M672.1,-503.88C688.78,-494.23 709.75,-482.1 727.39,-471.89"/>
<polygon fill="black" stroke="black" points="729.37,-474.79 736.27,-466.75 725.87,-468.73 729.37,-474.79"/>
</g>
<!-- ast.Compare object at 0x7bad3c715290 -->
<g id="node23" class="node">
<title>ast.Compare object at 0x7bad3c715290</title>
<path fill="#66cdaa" stroke="black" d="M706,-468C706,-468 663,-468 663,-468 657,-468 651,-462 651,-456 651,-456 651,-444 651,-444 651,-438 657,-432 663,-432 663,-432 706,-432 706,-432 712,-432 718,-438 718,-444 718,-444 718,-456 718,-456 718,-462 712,-468 706,-468"/>
<text text-anchor="middle" x="684.5" y="-446.3" font-family="Times,serif" font-size="14.00">Compare</text>
</g>
<!-- ast.BoolOp object at 0x7bad3c7152d0&#45;&gt;ast.Compare object at 0x7bad3c715290 -->
<g id="edge26" class="edge">
<title>ast.BoolOp object at 0x7bad3c7152d0&#45;&gt;ast.Compare object at 0x7bad3c715290</title>
<path fill="none" stroke="black" d="M652.88,-503.7C657.76,-495.56 663.69,-485.69 669.08,-476.7"/>
<polygon fill="black" stroke="black" points="672.09,-478.48 674.24,-468.1 666.09,-474.88 672.09,-478.48"/>
</g>
<!-- ast.UnaryOp object at 0x7bad3c714390 -->
<g id="node27" class="node">
<title>ast.UnaryOp object at 0x7bad3c714390</title>
<path fill="#66cdaa" stroke="black" d="M621,-468C621,-468 578,-468 578,-468 572,-468 566,-462 566,-456 566,-456 566,-444 566,-444 566,-438 572,-432 578,-432 578,-432 621,-432 621,-432 627,-432 633,-438 633,-444 633,-444 633,-456 633,-456 633,-462 627,-468 621,-468"/>
<text text-anchor="middle" x="599.5" y="-446.3" font-family="Times,serif" font-size="14.00">UnaryOp</text>
</g>
<!-- ast.BoolOp object at 0x7bad3c7152d0&#45;&gt;ast.UnaryOp object at 0x7bad3c714390 -->
<g id="edge31" class="edge">
<title>ast.BoolOp object at 0x7bad3c7152d0&#45;&gt;ast.UnaryOp object at 0x7bad3c714390</title>
<path fill="none" stroke="black" d="M631.87,-503.7C626.87,-495.56 620.81,-485.69 615.29,-476.7"/>
<polygon fill="black" stroke="black" points="618.22,-474.79 610.01,-468.1 612.26,-478.46 618.22,-474.79"/>
</g>
<!-- ast.Name object at 0x7bad3c715f50 -->
<g id="node24" class="node">
<title>ast.Name object at 0x7bad3c715f50</title>
<path fill="#66cdaa" stroke="black" d="M832.5,-324C832.5,-324 802.5,-324 802.5,-324 796.5,-324 790.5,-318 790.5,-312 790.5,-312 790.5,-300 790.5,-300 790.5,-294 796.5,-288 802.5,-288 802.5,-288 832.5,-288 832.5,-288 838.5,-288 844.5,-294 844.5,-300 844.5,-300 844.5,-312 844.5,-312 844.5,-318 838.5,-324 832.5,-324"/>
<text text-anchor="middle" x="817.5" y="-302.3" font-family="Times,serif" font-size="14.00">Name</text>
</g>
<!-- ast.Compare object at 0x7bad3c715290&#45;&gt;ast.Name object at 0x7bad3c715f50 -->
<g id="edge27" class="edge">
<title>ast.Compare object at 0x7bad3c715290&#45;&gt;ast.Name object at 0x7bad3c715f50</title>
<path fill="none" stroke="black" d="M718.26,-434.96C749.56,-421.65 792.09,-402.74 797.5,-396 811.41,-378.68 816.08,-353.63 817.46,-334.51"/>
<polygon fill="black" stroke="black" points="820.97,-334.47 817.93,-324.31 813.97,-334.14 820.97,-334.47"/>
</g>
<!-- ast.Gt object at 0x7bad489beb50 -->
<g id="node25" class="node">
<title>ast.Gt object at 0x7bad489beb50</title>
<path fill="#66cdaa" stroke="black" d="M693.5,-396C693.5,-396 663.5,-396 663.5,-396 657.5,-396 651.5,-390 651.5,-384 651.5,-384 651.5,-372 651.5,-372 651.5,-366 657.5,-360 663.5,-360 663.5,-360 693.5,-360 693.5,-360 699.5,-360 705.5,-366 705.5,-372 705.5,-372 705.5,-384 705.5,-384 705.5,-390 699.5,-396 693.5,-396"/>
<text text-anchor="middle" x="678.5" y="-374.3" font-family="Times,serif" font-size="14.00">Gt</text>
</g>
<!-- ast.Compare object at 0x7bad3c715290&#45;&gt;ast.Gt object at 0x7bad489beb50 -->
<g id="edge29" class="edge">
<title>ast.Compare object at 0x7bad3c715290&#45;&gt;ast.Gt object at 0x7bad489beb50</title>
<path fill="none" stroke="black" d="M683.02,-431.7C682.36,-423.98 681.56,-414.71 680.82,-406.11"/>
<polygon fill="black" stroke="black" points="684.31,-405.77 679.97,-396.1 677.33,-406.37 684.31,-405.77"/>
</g>
<!-- ast.Constant object at 0x7bad3c716090 -->
<g id="node26" class="node">
<title>ast.Constant object at 0x7bad3c716090</title>
<path fill="#66cdaa" stroke="black" d="M777,-396C777,-396 736,-396 736,-396 730,-396 724,-390 724,-384 724,-384 724,-372 724,-372 724,-366 730,-360 736,-360 736,-360 777,-360 777,-360 783,-360 789,-366 789,-372 789,-372 789,-384 789,-384 789,-390 783,-396 777,-396"/>
<text text-anchor="middle" x="756.5" y="-374.3" font-family="Times,serif" font-size="14.00">Constant</text>
</g>
<!-- ast.Compare object at 0x7bad3c715290&#45;&gt;ast.Constant object at 0x7bad3c716090 -->
<g id="edge30" class="edge">
<title>ast.Compare object at 0x7bad3c715290&#45;&gt;ast.Constant object at 0x7bad3c716090</title>
<path fill="none" stroke="black" d="M702.3,-431.7C711.1,-423.14 721.88,-412.66 731.5,-403.3"/>
<polygon fill="black" stroke="black" points="734.18,-405.58 738.91,-396.1 729.3,-400.57 734.18,-405.58"/>
</g>
<!-- ast.Name object at 0x7bad3c715f50&#45;&gt;ast.Load object at 0x7bad489bd950 -->
<g id="edge28" class="edge">
<title>ast.Name object at 0x7bad3c715f50&#45;&gt;ast.Load object at 0x7bad489bd950</title>
<path fill="none" stroke="black" d="M825.55,-287.73C843.86,-245.58 883.2,-136.25 831.5,-72 806.2,-40.56 687.97,-26.74 626.64,-21.59"/>
<polygon fill="black" stroke="black" points="626.84,-18.1 616.59,-20.79 626.28,-25.08 626.84,-18.1"/>
</g>
<!-- ast.Not object at 0x7bad489be6d0 -->
<g id="node28" class="node">
<title>ast.Not object at 0x7bad489be6d0</title>
<path fill="#66cdaa" stroke="black" d="M621.5,-396C621.5,-396 591.5,-396 591.5,-396 585.5,-396 579.5,-390 579.5,-384 579.5,-384 579.5,-372 579.5,-372 579.5,-366 585.5,-360 591.5,-360 591.5,-360 621.5,-360 621.5,-360 627.5,-360 633.5,-366 633.5,-372 633.5,-372 633.5,-384 633.5,-384 633.5,-390 627.5,-396 621.5,-396"/>
<text text-anchor="middle" x="606.5" y="-374.3" font-family="Times,serif" font-size="14.00">Not</text>
</g>
<!-- ast.UnaryOp object at 0x7bad3c714390&#45;&gt;ast.Not object at 0x7bad489be6d0 -->
<g id="edge32" class="edge">
<title>ast.UnaryOp object at 0x7bad3c714390&#45;&gt;ast.Not object at 0x7bad489be6d0</title>
<path fill="none" stroke="black" d="M601.23,-431.7C602,-423.98 602.93,-414.71 603.79,-406.11"/>
<polygon fill="black" stroke="black" points="607.28,-406.4 604.79,-396.1 600.31,-405.71 607.28,-406.4"/>
</g>
<!-- ast.Call object at 0x7bad3c714690 -->
<g id="node29" class="node">
<title>ast.Call object at 0x7bad3c714690</title>
<path fill="#66cdaa" stroke="black" d="M549.5,-396C549.5,-396 519.5,-396 519.5,-396 513.5,-396 507.5,-390 507.5,-384 507.5,-384 507.5,-372 507.5,-372 507.5,-366 513.5,-360 519.5,-360 519.5,-360 549.5,-360 549.5,-360 555.5,-360 561.5,-366 561.5,-372 561.5,-372 561.5,-384 561.5,-384 561.5,-390 555.5,-396 549.5,-396"/>
<text text-anchor="middle" x="534.5" y="-374.3" font-family="Times,serif" font-size="14.00">Call</text>
</g>
<!-- ast.UnaryOp object at 0x7bad3c714390&#45;&gt;ast.Call object at 0x7bad3c714690 -->
<g id="edge33" class="edge">
<title>ast.UnaryOp object at 0x7bad3c714390&#45;&gt;ast.Call object at 0x7bad3c714690</title>
<path fill="none" stroke="black" d="M583.43,-431.7C575.56,-423.22 565.94,-412.86 557.33,-403.58"/>
<polygon fill="black" stroke="black" points="559.75,-401.05 550.38,-396.1 554.62,-405.81 559.75,-401.05"/>
</g>
<!-- ast.Name object at 0x7bad3c7142d0 -->
<g id="node30" class="node">
<title>ast.Name object at 0x7bad3c7142d0</title>
<path fill="#66cdaa" stroke="black" d="M764.5,-252C764.5,-252 734.5,-252 734.5,-252 728.5,-252 722.5,-246 722.5,-240 722.5,-240 722.5,-228 722.5,-228 722.5,-222 728.5,-216 734.5,-216 734.5,-216 764.5,-216 764.5,-216 770.5,-216 776.5,-222 776.5,-228 776.5,-228 776.5,-240 776.5,-240 776.5,-246 770.5,-252 764.5,-252"/>
<text text-anchor="middle" x="749.5" y="-230.3" font-family="Times,serif" font-size="14.00">Name</text>
</g>
<!-- ast.Call object at 0x7bad3c714690&#45;&gt;ast.Name object at 0x7bad3c7142d0 -->
<g id="edge34" class="edge">
<title>ast.Call object at 0x7bad3c714690&#45;&gt;ast.Name object at 0x7bad3c7142d0</title>
<path fill="none" stroke="black" d="M560.43,-359.87C599.09,-334.34 671.9,-286.25 715.01,-257.78"/>
<polygon fill="black" stroke="black" points="717.06,-260.62 723.47,-252.19 713.2,-254.78 717.06,-260.62"/>
</g>
<!-- ast.GeneratorExp object at 0x7bad3c714210 -->
<g id="node31" class="node">
<title>ast.GeneratorExp object at 0x7bad3c714210</title>
<path fill="#66cdaa" stroke="black" d="M568.5,-324C568.5,-324 500.5,-324 500.5,-324 494.5,-324 488.5,-318 488.5,-312 488.5,-312 488.5,-300 488.5,-300 488.5,-294 494.5,-288 500.5,-288 500.5,-288 568.5,-288 568.5,-288 574.5,-288 580.5,-294 580.5,-300 580.5,-300 580.5,-312 580.5,-312 580.5,-318 574.5,-324 568.5,-324"/>
<text text-anchor="middle" x="534.5" y="-302.3" font-family="Times,serif" font-size="14.00">GeneratorExp</text>
</g>
<!-- ast.Call object at 0x7bad3c714690&#45;&gt;ast.GeneratorExp object at 0x7bad3c714210 -->
<g id="edge36" class="edge">
<title>ast.Call object at 0x7bad3c714690&#45;&gt;ast.GeneratorExp object at 0x7bad3c714210</title>
<path fill="none" stroke="black" d="M534.5,-359.7C534.5,-351.98 534.5,-342.71 534.5,-334.11"/>
<polygon fill="black" stroke="black" points="538,-334.1 534.5,-324.1 531,-334.1 538,-334.1"/>
</g>
<!-- ast.Name object at 0x7bad3c7142d0&#45;&gt;ast.Load object at 0x7bad489bd950 -->
<g id="edge35" class="edge">
<title>ast.Name object at 0x7bad3c7142d0&#45;&gt;ast.Load object at 0x7bad489bd950</title>
<path fill="none" stroke="black" d="M766.32,-215.82C794.99,-184.42 846.95,-116.9 811.5,-72 788.91,-43.38 684.06,-28.52 626.9,-22.42"/>
<polygon fill="black" stroke="black" points="627.12,-18.93 616.82,-21.39 626.4,-25.89 627.12,-18.93"/>
</g>
<!-- ast.BinOp object at 0x7bad3c7151d0 -->
<g id="node32" class="node">
<title>ast.BinOp object at 0x7bad3c7151d0</title>
<path fill="#66cdaa" stroke="black" d="M490.5,-180C490.5,-180 460.5,-180 460.5,-180 454.5,-180 448.5,-174 448.5,-168 448.5,-168 448.5,-156 448.5,-156 448.5,-150 454.5,-144 460.5,-144 460.5,-144 490.5,-144 490.5,-144 496.5,-144 502.5,-150 502.5,-156 502.5,-156 502.5,-168 502.5,-168 502.5,-174 496.5,-180 490.5,-180"/>
<text text-anchor="middle" x="475.5" y="-158.3" font-family="Times,serif" font-size="14.00">BinOp</text>
</g>
<!-- ast.GeneratorExp object at 0x7bad3c714210&#45;&gt;ast.BinOp object at 0x7bad3c7151d0 -->
<g id="edge37" class="edge">
<title>ast.GeneratorExp object at 0x7bad3c714210&#45;&gt;ast.BinOp object at 0x7bad3c7151d0</title>
<path fill="none" stroke="black" d="M518.3,-287.63C510.01,-277.84 500.44,-265 494.5,-252 485.5,-232.3 480.69,-208.17 478.17,-190.01"/>
<polygon fill="black" stroke="black" points="481.64,-189.58 476.93,-180.09 474.69,-190.45 481.64,-189.58"/>
</g>
<!-- ast.comprehension object at 0x7bad3c715150 -->
<g id="node36" class="node">
<title>ast.comprehension object at 0x7bad3c715150</title>
<path fill="#66cdaa" stroke="black" d="M591.5,-252C591.5,-252 515.5,-252 515.5,-252 509.5,-252 503.5,-246 503.5,-240 503.5,-240 503.5,-228 503.5,-228 503.5,-222 509.5,-216 515.5,-216 515.5,-216 591.5,-216 591.5,-216 597.5,-216 603.5,-222 603.5,-228 603.5,-228 603.5,-240 603.5,-240 603.5,-246 597.5,-252 591.5,-252"/>
<text text-anchor="middle" x="553.5" y="-230.3" font-family="Times,serif" font-size="14.00">comprehension</text>
</g>
<!-- ast.GeneratorExp object at 0x7bad3c714210&#45;&gt;ast.comprehension object at 0x7bad3c715150 -->
<g id="edge43" class="edge">
<title>ast.GeneratorExp object at 0x7bad3c714210&#45;&gt;ast.comprehension object at 0x7bad3c715150</title>
<path fill="none" stroke="black" d="M539.2,-287.7C541.31,-279.9 543.86,-270.51 546.22,-261.83"/>
<polygon fill="black" stroke="black" points="549.62,-262.67 548.86,-252.1 542.86,-260.84 549.62,-262.67"/>
</g>
<!-- ast.Name object at 0x7bad3c716290 -->
<g id="node33" class="node">
<title>ast.Name object at 0x7bad3c716290</title>
<path fill="#66cdaa" stroke="black" d="M418.5,-108C418.5,-108 388.5,-108 388.5,-108 382.5,-108 376.5,-102 376.5,-96 376.5,-96 376.5,-84 376.5,-84 376.5,-78 382.5,-72 388.5,-72 388.5,-72 418.5,-72 418.5,-72 424.5,-72 430.5,-78 430.5,-84 430.5,-84 430.5,-96 430.5,-96 430.5,-102 424.5,-108 418.5,-108"/>
<text text-anchor="middle" x="403.5" y="-86.3" font-family="Times,serif" font-size="14.00">Name</text>
</g>
<!-- ast.BinOp object at 0x7bad3c7151d0&#45;&gt;ast.Name object at 0x7bad3c716290 -->
<g id="edge38" class="edge">
<title>ast.BinOp object at 0x7bad3c7151d0&#45;&gt;ast.Name object at 0x7bad3c716290</title>
<path fill="none" stroke="black" d="M457.7,-143.7C448.9,-135.14 438.12,-124.66 428.5,-115.3"/>
<polygon fill="black" stroke="black" points="430.7,-112.57 421.09,-108.1 425.82,-117.58 430.7,-112.57"/>
</g>
<!-- ast.Mod object at 0x7bad489be0d0 -->
<g id="node34" class="node">
<title>ast.Mod object at 0x7bad489be0d0</title>
<path fill="#66cdaa" stroke="black" d="M562.5,-108C562.5,-108 532.5,-108 532.5,-108 526.5,-108 520.5,-102 520.5,-96 520.5,-96 520.5,-84 520.5,-84 520.5,-78 526.5,-72 532.5,-72 532.5,-72 562.5,-72 562.5,-72 568.5,-72 574.5,-78 574.5,-84 574.5,-84 574.5,-96 574.5,-96 574.5,-102 568.5,-108 562.5,-108"/>
<text text-anchor="middle" x="547.5" y="-86.3" font-family="Times,serif" font-size="14.00">Mod</text>
</g>
<!-- ast.BinOp object at 0x7bad3c7151d0&#45;&gt;ast.Mod object at 0x7bad489be0d0 -->
<g id="edge40" class="edge">
<title>ast.BinOp object at 0x7bad3c7151d0&#45;&gt;ast.Mod object at 0x7bad489be0d0</title>
<path fill="none" stroke="black" d="M493.3,-143.7C502.1,-135.14 512.88,-124.66 522.5,-115.3"/>
<polygon fill="black" stroke="black" points="525.18,-117.58 529.91,-108.1 520.3,-112.57 525.18,-117.58"/>
</g>
<!-- ast.Name object at 0x7bad3c716010 -->
<g id="node35" class="node">
<title>ast.Name object at 0x7bad3c716010</title>
<path fill="#66cdaa" stroke="black" d="M490.5,-108C490.5,-108 460.5,-108 460.5,-108 454.5,-108 448.5,-102 448.5,-96 448.5,-96 448.5,-84 448.5,-84 448.5,-78 454.5,-72 460.5,-72 460.5,-72 490.5,-72 490.5,-72 496.5,-72 502.5,-78 502.5,-84 502.5,-84 502.5,-96 502.5,-96 502.5,-102 496.5,-108 490.5,-108"/>
<text text-anchor="middle" x="475.5" y="-86.3" font-family="Times,serif" font-size="14.00">Name</text>
</g>
<!-- ast.BinOp object at 0x7bad3c7151d0&#45;&gt;ast.Name object at 0x7bad3c716010 -->
<g id="edge41" class="edge">
<title>ast.BinOp object at 0x7bad3c7151d0&#45;&gt;ast.Name object at 0x7bad3c716010</title>
<path fill="none" stroke="black" d="M475.5,-143.7C475.5,-135.98 475.5,-126.71 475.5,-118.11"/>
<polygon fill="black" stroke="black" points="479,-118.1 475.5,-108.1 472,-118.1 479,-118.1"/>
</g>
<!-- ast.Name object at 0x7bad3c716290&#45;&gt;ast.Load object at 0x7bad489bd950 -->
<g id="edge39" class="edge">
<title>ast.Name object at 0x7bad3c716290&#45;&gt;ast.Load object at 0x7bad489bd950</title>
<path fill="none" stroke="black" d="M430.89,-75.72C433.78,-74.42 436.69,-73.16 439.5,-72 477.48,-56.37 521.94,-41.02 552.55,-30.89"/>
<polygon fill="black" stroke="black" points="553.96,-34.11 562.36,-27.67 551.77,-27.46 553.96,-34.11"/>
</g>
<!-- ast.Name object at 0x7bad3c716010&#45;&gt;ast.Load object at 0x7bad489bd950 -->
<g id="edge42" class="edge">
<title>ast.Name object at 0x7bad3c716010&#45;&gt;ast.Load object at 0x7bad489bd950</title>
<path fill="none" stroke="black" d="M502.52,-72.41C517.74,-63.06 536.95,-51.27 553.44,-41.14"/>
<polygon fill="black" stroke="black" points="555.59,-43.93 562.28,-35.71 551.93,-37.96 555.59,-43.93"/>
</g>
<!-- ast.Name object at 0x7bad3c715e90 -->
<g id="node37" class="node">
<title>ast.Name object at 0x7bad3c715e90</title>
<path fill="#66cdaa" stroke="black" d="M410.5,-180C410.5,-180 380.5,-180 380.5,-180 374.5,-180 368.5,-174 368.5,-168 368.5,-168 368.5,-156 368.5,-156 368.5,-150 374.5,-144 380.5,-144 380.5,-144 410.5,-144 410.5,-144 416.5,-144 422.5,-150 422.5,-156 422.5,-156 422.5,-168 422.5,-168 422.5,-174 416.5,-180 410.5,-180"/>
<text text-anchor="middle" x="395.5" y="-158.3" font-family="Times,serif" font-size="14.00">Name</text>
</g>
<!-- ast.comprehension object at 0x7bad3c715150&#45;&gt;ast.Name object at 0x7bad3c715e90 -->
<g id="edge44" class="edge">
<title>ast.comprehension object at 0x7bad3c715150&#45;&gt;ast.Name object at 0x7bad3c715e90</title>
<path fill="none" stroke="black" d="M514.85,-215.88C489.69,-204.73 457.06,-190.27 432.28,-179.29"/>
<polygon fill="black" stroke="black" points="433.42,-175.97 422.86,-175.12 430.58,-182.37 433.42,-175.97"/>
</g>
<!-- ast.Call object at 0x7bad3c715f90 -->
<g id="node38" class="node">
<title>ast.Call object at 0x7bad3c715f90</title>
<path fill="#66cdaa" stroke="black" d="M679.5,-180C679.5,-180 649.5,-180 649.5,-180 643.5,-180 637.5,-174 637.5,-168 637.5,-168 637.5,-156 637.5,-156 637.5,-150 643.5,-144 649.5,-144 649.5,-144 679.5,-144 679.5,-144 685.5,-144 691.5,-150 691.5,-156 691.5,-156 691.5,-168 691.5,-168 691.5,-174 685.5,-180 679.5,-180"/>
<text text-anchor="middle" x="664.5" y="-158.3" font-family="Times,serif" font-size="14.00">Call</text>
</g>
<!-- ast.comprehension object at 0x7bad3c715150&#45;&gt;ast.Call object at 0x7bad3c715f90 -->
<g id="edge46" class="edge">
<title>ast.comprehension object at 0x7bad3c715150&#45;&gt;ast.Call object at 0x7bad3c715f90</title>
<path fill="none" stroke="black" d="M580.65,-215.88C595.03,-206.81 612.88,-195.55 628.41,-185.76"/>
<polygon fill="black" stroke="black" points="630.65,-188.48 637.24,-180.19 626.92,-182.56 630.65,-188.48"/>
</g>
<!-- ast.Name object at 0x7bad3c715e90&#45;&gt;ast.Store object at 0x7bad489bd9d0 -->
<g id="edge45" class="edge">
<title>ast.Name object at 0x7bad3c715e90&#45;&gt;ast.Store object at 0x7bad489bd9d0</title>
<path fill="none" stroke="black" d="M379.68,-143.7C371.93,-135.22 362.46,-124.86 353.98,-115.58"/>
<polygon fill="black" stroke="black" points="356.47,-113.12 347.14,-108.1 351.3,-117.85 356.47,-113.12"/>
</g>
<!-- ast.Name object at 0x7bad3c715890 -->
<g id="node39" class="node">
<title>ast.Name object at 0x7bad3c715890</title>
<path fill="#66cdaa" stroke="black" d="M790.5,-108C790.5,-108 760.5,-108 760.5,-108 754.5,-108 748.5,-102 748.5,-96 748.5,-96 748.5,-84 748.5,-84 748.5,-78 754.5,-72 760.5,-72 760.5,-72 790.5,-72 790.5,-72 796.5,-72 802.5,-78 802.5,-84 802.5,-84 802.5,-96 802.5,-96 802.5,-102 796.5,-108 790.5,-108"/>
<text text-anchor="middle" x="775.5" y="-86.3" font-family="Times,serif" font-size="14.00">Name</text>
</g>
<!-- ast.Call object at 0x7bad3c715f90&#45;&gt;ast.Name object at 0x7bad3c715890 -->
<g id="edge47" class="edge">
<title>ast.Call object at 0x7bad3c715f90&#45;&gt;ast.Name object at 0x7bad3c715890</title>
<path fill="none" stroke="black" d="M691.65,-143.88C706.03,-134.81 723.88,-123.55 739.41,-113.76"/>
<polygon fill="black" stroke="black" points="741.65,-116.48 748.24,-108.19 737.92,-110.56 741.65,-116.48"/>
</g>
<!-- ast.Constant object at 0x7bad3c714110 -->
<g id="node40" class="node">
<title>ast.Constant object at 0x7bad3c714110</title>
<path fill="#66cdaa" stroke="black" d="M646,-108C646,-108 605,-108 605,-108 599,-108 593,-102 593,-96 593,-96 593,-84 593,-84 593,-78 599,-72 605,-72 605,-72 646,-72 646,-72 652,-72 658,-78 658,-84 658,-84 658,-96 658,-96 658,-102 652,-108 646,-108"/>
<text text-anchor="middle" x="625.5" y="-86.3" font-family="Times,serif" font-size="14.00">Constant</text>
</g>
<!-- ast.Call object at 0x7bad3c715f90&#45;&gt;ast.Constant object at 0x7bad3c714110 -->
<g id="edge49" class="edge">
<title>ast.Call object at 0x7bad3c715f90&#45;&gt;ast.Constant object at 0x7bad3c714110</title>
<path fill="none" stroke="black" d="M654.86,-143.7C650.37,-135.64 644.94,-125.89 639.98,-116.98"/>
<polygon fill="black" stroke="black" points="642.95,-115.14 635.03,-108.1 636.84,-118.54 642.95,-115.14"/>
</g>
<!-- ast.Name object at 0x7bad3c714e90 -->
<g id="node41" class="node">
<title>ast.Name object at 0x7bad3c714e90</title>
<path fill="#66cdaa" stroke="black" d="M718.5,-108C718.5,-108 688.5,-108 688.5,-108 682.5,-108 676.5,-102 676.5,-96 676.5,-96 676.5,-84 676.5,-84 676.5,-78 682.5,-72 688.5,-72 688.5,-72 718.5,-72 718.5,-72 724.5,-72 730.5,-78 730.5,-84 730.5,-84 730.5,-96 730.5,-96 730.5,-102 724.5,-108 718.5,-108"/>
<text text-anchor="middle" x="703.5" y="-86.3" font-family="Times,serif" font-size="14.00">Name</text>
</g>
<!-- ast.Call object at 0x7bad3c715f90&#45;&gt;ast.Name object at 0x7bad3c714e90 -->
<g id="edge50" class="edge">
<title>ast.Call object at 0x7bad3c715f90&#45;&gt;ast.Name object at 0x7bad3c714e90</title>
<path fill="none" stroke="black" d="M674.14,-143.7C678.63,-135.64 684.06,-125.89 689.02,-116.98"/>
<polygon fill="black" stroke="black" points="692.16,-118.54 693.97,-108.1 686.05,-115.14 692.16,-118.54"/>
</g>
<!-- ast.Name object at 0x7bad3c715890&#45;&gt;ast.Load object at 0x7bad489bd950 -->
<g id="edge48" class="edge">
<title>ast.Name object at 0x7bad3c715890&#45;&gt;ast.Load object at 0x7bad489bd950</title>
<path fill="none" stroke="black" d="M748.11,-75.72C745.22,-74.42 742.31,-73.16 739.5,-72 701.52,-56.37 657.06,-41.02 626.45,-30.89"/>
<polygon fill="black" stroke="black" points="627.23,-27.46 616.64,-27.67 625.04,-34.11 627.23,-27.46"/>
</g>
<!-- ast.Name object at 0x7bad3c714e90&#45;&gt;ast.Load object at 0x7bad489bd950 -->
<g id="edge51" class="edge">
<title>ast.Name object at 0x7bad3c714e90&#45;&gt;ast.Load object at 0x7bad489bd950</title>
<path fill="none" stroke="black" d="M676.48,-72.41C661.26,-63.06 642.05,-51.27 625.56,-41.14"/>
<polygon fill="black" stroke="black" points="627.07,-37.96 616.72,-35.71 623.41,-43.93 627.07,-37.96"/>
</g>
<!-- ast.Name object at 0x7bad3c714fd0 -->
<g id="node43" class="node">
<title>ast.Name object at 0x7bad3c714fd0</title>
<path fill="#66cdaa" stroke="black" d="M942.5,-612C942.5,-612 912.5,-612 912.5,-612 906.5,-612 900.5,-606 900.5,-600 900.5,-600 900.5,-588 900.5,-588 900.5,-582 906.5,-576 912.5,-576 912.5,-576 942.5,-576 942.5,-576 948.5,-576 954.5,-582 954.5,-588 954.5,-588 954.5,-600 954.5,-600 954.5,-606 948.5,-612 942.5,-612"/>
<text text-anchor="middle" x="927.5" y="-590.3" font-family="Times,serif" font-size="14.00">Name</text>
</g>
<!-- ast.Call object at 0x7bad3c7155d0&#45;&gt;ast.Name object at 0x7bad3c714fd0 -->
<g id="edge53" class="edge">
<title>ast.Call object at 0x7bad3c7155d0&#45;&gt;ast.Name object at 0x7bad3c714fd0</title>
<path fill="none" stroke="black" d="M907.93,-647.7C910.86,-639.81 914.39,-630.3 917.64,-621.55"/>
<polygon fill="black" stroke="black" points="920.95,-622.7 921.15,-612.1 914.38,-620.26 920.95,-622.7"/>
</g>
<!-- ast.Name object at 0x7bad3c714fd0&#45;&gt;ast.Load object at 0x7bad489bd950 -->
<g id="edge54" class="edge">
<title>ast.Name object at 0x7bad3c714fd0&#45;&gt;ast.Load object at 0x7bad489bd950</title>
<path fill="none" stroke="black" d="M930.94,-575.59C935.91,-548.9 944.5,-496.19 944.5,-451 944.5,-451 944.5,-451 944.5,-161 944.5,-112.79 923.07,-98.04 882.5,-72 840.6,-45.11 695.89,-28.68 626.79,-22.19"/>
<polygon fill="black" stroke="black" points="627.05,-18.7 616.77,-21.27 626.41,-25.67 627.05,-18.7"/>
</g>
</g>
</svg>
