<?xml version="1.0" encoding="UTF-8" standalone="no"?>
<!DOCTYPE svg PUBLIC "-//W3C//DTD SVG 1.1//EN"
 "http://www.w3.org/Graphics/SVG/1.1/DTD/svg11.dtd">
<!-- Generated by graphviz version 2.50.0 (0)
 -->
<!-- Pages: 1 -->
<svg width="752pt" height="692pt"
 viewBox="0.00 0.00 752.00 692.00" xmlns="http://www.w3.org/2000/svg" xmlns:xlink="http://www.w3.org/1999/xlink">
<g id="graph0" class="graph" transform="scale(1 1) rotate(0) translate(4 688)">
<polygon fill="white" stroke="transparent" points="-4,4 -4,-688 748,-688 748,4 -4,4"/>
<!-- ast.Module object at 0x744c710dbad0 -->
<g id="node1" class="node">
<title>ast.Module object at 0x744c710dbad0</title>
<path fill="#66cdaa" stroke="black" d="M430.5,-684C430.5,-684 395.5,-684 395.5,-684 389.5,-684 383.5,-678 383.5,-672 383.5,-672 383.5,-660 383.5,-660 383.5,-654 389.5,-648 395.5,-648 395.5,-648 430.5,-648 430.5,-648 436.5,-648 442.5,-654 442.5,-660 442.5,-660 442.5,-672 442.5,-672 442.5,-678 436.5,-684 430.5,-684"/>
<text text-anchor="middle" x="413" y="-662.3" font-family="Times,serif" font-size="14.00">Module</text>
</g>
<!-- ast.FunctionDef object at 0x744c70fe34d0 -->
<g id="node2" class="node">
<title>ast.FunctionDef object at 0x744c70fe34d0</title>
<path fill="#66cdaa" stroke="black" d="M443.5,-612C443.5,-612 382.5,-612 382.5,-612 376.5,-612 370.5,-606 370.5,-600 370.5,-600 370.5,-588 370.5,-588 370.5,-582 376.5,-576 382.5,-576 382.5,-576 443.5,-576 443.5,-576 449.5,-576 455.5,-582 455.5,-588 455.5,-588 455.5,-600 455.5,-600 455.5,-606 449.5,-612 443.5,-612"/>
<text text-anchor="middle" x="413" y="-590.3" font-family="Times,serif" font-size="14.00">FunctionDef</text>
</g>
<!-- ast.Module object at 0x744c710dbad0&#45;&gt;ast.FunctionDef object at 0x744c70fe34d0 -->
<g id="edge1" class="edge">
<title>ast.Module object at 0x744c710dbad0&#45;&gt;ast.FunctionDef object at 0x744c70fe34d0</title>
<path fill="none" stroke="black" d="M413,-647.7C413,-639.98 413,-630.71 413,-622.11"/>
<polygon fill="black" stroke="black" points="416.5,-622.1 413,-612.1 409.5,-622.1 416.5,-622.1"/>
</g>
<!-- ast.arguments object at 0x744c70fe62d0 -->
<g id="node3" class="node">
<title>ast.arguments object at 0x744c70fe62d0</title>
<path fill="#66cdaa" stroke="black" d="M349,-540C349,-540 299,-540 299,-540 293,-540 287,-534 287,-528 287,-528 287,-516 287,-516 287,-510 293,-504 299,-504 299,-504 349,-504 349,-504 355,-504 361,-510 361,-516 361,-516 361,-528 361,-528 361,-534 355,-540 349,-540"/>
<text text-anchor="middle" x="324" y="-518.3" font-family="Times,serif" font-size="14.00">arguments</text>
</g>
<!-- ast.FunctionDef object at 0x744c70fe34d0&#45;&gt;ast.arguments object at 0x744c70fe62d0 -->
<g id="edge2" class="edge">
<title>ast.FunctionDef object at 0x744c70fe34d0&#45;&gt;ast.arguments object at 0x744c70fe62d0</title>
<path fill="none" stroke="black" d="M391,-575.7C379.79,-566.88 366,-556.03 353.85,-546.47"/>
<polygon fill="black" stroke="black" points="355.77,-543.54 345.75,-540.1 351.44,-549.04 355.77,-543.54"/>
</g>
<!-- ast.Assign object at 0x744c70fe5d10 -->
<g id="node5" class="node">
<title>ast.Assign object at 0x744c70fe5d10</title>
<path fill="#66cdaa" stroke="black" d="M428,-540C428,-540 398,-540 398,-540 392,-540 386,-534 386,-528 386,-528 386,-516 386,-516 386,-510 392,-504 398,-504 398,-504 428,-504 428,-504 434,-504 440,-510 440,-516 440,-516 440,-528 440,-528 440,-534 434,-540 428,-540"/>
<text text-anchor="middle" x="413" y="-518.3" font-family="Times,serif" font-size="14.00">Assign</text>
</g>
<!-- ast.FunctionDef object at 0x744c70fe34d0&#45;&gt;ast.Assign object at 0x744c70fe5d10 -->
<g id="edge4" class="edge">
<title>ast.FunctionDef object at 0x744c70fe34d0&#45;&gt;ast.Assign object at 0x744c70fe5d10</title>
<path fill="none" stroke="black" d="M413,-575.7C413,-567.98 413,-558.71 413,-550.11"/>
<polygon fill="black" stroke="black" points="416.5,-550.1 413,-540.1 409.5,-550.1 416.5,-550.1"/>
</g>
<!-- ast.Return object at 0x744c70fe6210 -->
<g id="node33" class="node">
<title>ast.Return object at 0x744c70fe6210</title>
<path fill="#66cdaa" stroke="black" d="M504,-540C504,-540 474,-540 474,-540 468,-540 462,-534 462,-528 462,-528 462,-516 462,-516 462,-510 468,-504 474,-504 474,-504 504,-504 504,-504 510,-504 516,-510 516,-516 516,-516 516,-528 516,-528 516,-534 510,-540 504,-540"/>
<text text-anchor="middle" x="489" y="-518.3" font-family="Times,serif" font-size="14.00">Return</text>
</g>
<!-- ast.FunctionDef object at 0x744c70fe34d0&#45;&gt;ast.Return object at 0x744c70fe6210 -->
<g id="edge43" class="edge">
<title>ast.FunctionDef object at 0x744c70fe34d0&#45;&gt;ast.Return object at 0x744c70fe6210</title>
<path fill="none" stroke="black" d="M431.79,-575.7C441.17,-567.05 452.68,-556.45 462.91,-547.03"/>
<polygon fill="black" stroke="black" points="465.45,-549.45 470.43,-540.1 460.7,-544.3 465.45,-549.45"/>
</g>
<!-- ast.arg object at 0x744c70fe6150 -->
<g id="node4" class="node">
<title>ast.arg object at 0x744c70fe6150</title>
<path fill="#66cdaa" stroke="black" d="M325,-468C325,-468 295,-468 295,-468 289,-468 283,-462 283,-456 283,-456 283,-444 283,-444 283,-438 289,-432 295,-432 295,-432 325,-432 325,-432 331,-432 337,-438 337,-444 337,-444 337,-456 337,-456 337,-462 331,-468 325,-468"/>
<text text-anchor="middle" x="310" y="-446.3" font-family="Times,serif" font-size="14.00">arg</text>
</g>
<!-- ast.arguments object at 0x744c70fe62d0&#45;&gt;ast.arg object at 0x744c70fe6150 -->
<g id="edge3" class="edge">
<title>ast.arguments object at 0x744c70fe62d0&#45;&gt;ast.arg object at 0x744c70fe6150</title>
<path fill="none" stroke="black" d="M320.54,-503.7C319,-495.98 317.14,-486.71 315.42,-478.11"/>
<polygon fill="black" stroke="black" points="318.81,-477.22 313.42,-468.1 311.95,-478.6 318.81,-477.22"/>
</g>
<!-- ast.Name object at 0x744c70fe7290 -->
<g id="node6" class="node">
<title>ast.Name object at 0x744c70fe7290</title>
<path fill="#66cdaa" stroke="black" d="M279,-396C279,-396 249,-396 249,-396 243,-396 237,-390 237,-384 237,-384 237,-372 237,-372 237,-366 243,-360 249,-360 249,-360 279,-360 279,-360 285,-360 291,-366 291,-372 291,-372 291,-384 291,-384 291,-390 285,-396 279,-396"/>
<text text-anchor="middle" x="264" y="-374.3" font-family="Times,serif" font-size="14.00">Name</text>
</g>
<!-- ast.Assign object at 0x744c70fe5d10&#45;&gt;ast.Name object at 0x744c70fe7290 -->
<g id="edge5" class="edge">
<title>ast.Assign object at 0x744c70fe5d10&#45;&gt;ast.Name object at 0x744c70fe7290</title>
<path fill="none" stroke="black" d="M402.69,-503.85C390.69,-484.8 369.5,-453.88 346,-432 332.34,-419.28 315.25,-407.69 300.22,-398.62"/>
<polygon fill="black" stroke="black" points="301.57,-395.35 291.17,-393.31 298.02,-401.39 301.57,-395.35"/>
</g>
<!-- ast.ListComp object at 0x744c70fe6b90 -->
<g id="node8" class="node">
<title>ast.ListComp object at 0x744c70fe6b90</title>
<path fill="#66cdaa" stroke="black" d="M452.5,-468C452.5,-468 405.5,-468 405.5,-468 399.5,-468 393.5,-462 393.5,-456 393.5,-456 393.5,-444 393.5,-444 393.5,-438 399.5,-432 405.5,-432 405.5,-432 452.5,-432 452.5,-432 458.5,-432 464.5,-438 464.5,-444 464.5,-444 464.5,-456 464.5,-456 464.5,-462 458.5,-468 452.5,-468"/>
<text text-anchor="middle" x="429" y="-446.3" font-family="Times,serif" font-size="14.00">ListComp</text>
</g>
<!-- ast.Assign object at 0x744c70fe5d10&#45;&gt;ast.ListComp object at 0x744c70fe6b90 -->
<g id="edge7" class="edge">
<title>ast.Assign object at 0x744c70fe5d10&#45;&gt;ast.ListComp object at 0x744c70fe6b90</title>
<path fill="none" stroke="black" d="M416.96,-503.7C418.72,-495.98 420.84,-486.71 422.8,-478.11"/>
<polygon fill="black" stroke="black" points="426.27,-478.63 425.09,-468.1 419.45,-477.07 426.27,-478.63"/>
</g>
<!-- ast.Store object at 0x744d2f937c90 -->
<g id="node7" class="node">
<title>ast.Store object at 0x744d2f937c90</title>
<path fill="#66cdaa" stroke="black" d="M185,-252C185,-252 155,-252 155,-252 149,-252 143,-246 143,-240 143,-240 143,-228 143,-228 143,-222 149,-216 155,-216 155,-216 185,-216 185,-216 191,-216 197,-222 197,-228 197,-228 197,-240 197,-240 197,-246 191,-252 185,-252"/>
<text text-anchor="middle" x="170" y="-230.3" font-family="Times,serif" font-size="14.00">Store</text>
</g>
<!-- ast.Name object at 0x744c70fe7290&#45;&gt;ast.Store object at 0x744d2f937c90 -->
<g id="edge6" class="edge">
<title>ast.Name object at 0x744c70fe7290&#45;&gt;ast.Store object at 0x744d2f937c90</title>
<path fill="none" stroke="black" d="M251.83,-359.93C244.53,-349.6 235.11,-336.13 227,-324 212.93,-302.96 197.47,-278.75 186.21,-260.9"/>
<polygon fill="black" stroke="black" points="189.02,-258.79 180.73,-252.19 183.09,-262.52 189.02,-258.79"/>
</g>
<!-- ast.Subscript object at 0x744c70fe5e50 -->
<g id="node9" class="node">
<title>ast.Subscript object at 0x744c70fe5e50</title>
<path fill="#66cdaa" stroke="black" d="M700,-180C700,-180 656,-180 656,-180 650,-180 644,-174 644,-168 644,-168 644,-156 644,-156 644,-150 650,-144 656,-144 656,-144 700,-144 700,-144 706,-144 712,-150 712,-156 712,-156 712,-168 712,-168 712,-174 706,-180 700,-180"/>
<text text-anchor="middle" x="678" y="-158.3" font-family="Times,serif" font-size="14.00">Subscript</text>
</g>
<!-- ast.ListComp object at 0x744c70fe6b90&#45;&gt;ast.Subscript object at 0x744c70fe5e50 -->
<g id="edge8" class="edge">
<title>ast.ListComp object at 0x744c70fe6b90&#45;&gt;ast.Subscript object at 0x744c70fe5e50</title>
<path fill="none" stroke="black" d="M443.83,-431.97C485.94,-383.6 606.4,-245.23 656.13,-188.12"/>
<polygon fill="black" stroke="black" points="659.01,-190.15 662.93,-180.31 653.73,-185.55 659.01,-190.15"/>
</g>
<!-- ast.comprehension object at 0x744c70fe73d0 -->
<g id="node13" class="node">
<title>ast.comprehension object at 0x744c70fe73d0</title>
<path fill="#66cdaa" stroke="black" d="M404,-396C404,-396 328,-396 328,-396 322,-396 316,-390 316,-384 316,-384 316,-372 316,-372 316,-366 322,-360 328,-360 328,-360 404,-360 404,-360 410,-360 416,-366 416,-372 416,-372 416,-384 416,-384 416,-390 410,-396 404,-396"/>
<text text-anchor="middle" x="366" y="-374.3" font-family="Times,serif" font-size="14.00">comprehension</text>
</g>
<!-- ast.ListComp object at 0x744c70fe6b90&#45;&gt;ast.comprehension object at 0x744c70fe73d0 -->
<g id="edge14" class="edge">
<title>ast.ListComp object at 0x744c70fe6b90&#45;&gt;ast.comprehension object at 0x744c70fe73d0</title>
<path fill="none" stroke="black" d="M413.43,-431.7C405.8,-423.22 396.48,-412.86 388.12,-403.58"/>
<polygon fill="black" stroke="black" points="390.69,-401.2 381.39,-396.1 385.48,-405.88 390.69,-401.2"/>
</g>
<!-- ast.Name object at 0x744c70fe6c10 -->
<g id="node10" class="node">
<title>ast.Name object at 0x744c70fe6c10</title>
<path fill="#66cdaa" stroke="black" d="M593,-108C593,-108 563,-108 563,-108 557,-108 551,-102 551,-96 551,-96 551,-84 551,-84 551,-78 557,-72 563,-72 563,-72 593,-72 593,-72 599,-72 605,-78 605,-84 605,-84 605,-96 605,-96 605,-102 599,-108 593,-108"/>
<text text-anchor="middle" x="578" y="-86.3" font-family="Times,serif" font-size="14.00">Name</text>
</g>
<!-- ast.Subscript object at 0x744c70fe5e50&#45;&gt;ast.Name object at 0x744c70fe6c10 -->
<g id="edge9" class="edge">
<title>ast.Subscript object at 0x744c70fe5e50&#45;&gt;ast.Name object at 0x744c70fe6c10</title>
<path fill="none" stroke="black" d="M653.54,-143.88C640.7,-134.89 624.8,-123.76 610.91,-114.03"/>
<polygon fill="black" stroke="black" points="612.76,-111.06 602.56,-108.19 608.74,-116.79 612.76,-111.06"/>
</g>
<!-- ast.Load object at 0x744d2f937c10 -->
<g id="node11" class="node">
<title>ast.Load object at 0x744d2f937c10</title>
<path fill="#66cdaa" stroke="black" d="M384,-36C384,-36 354,-36 354,-36 348,-36 342,-30 342,-24 342,-24 342,-12 342,-12 342,-6 348,0 354,0 354,0 384,0 384,0 390,0 396,-6 396,-12 396,-12 396,-24 396,-24 396,-30 390,-36 384,-36"/>
<text text-anchor="middle" x="369" y="-14.3" font-family="Times,serif" font-size="14.00">Load</text>
</g>
<!-- ast.Subscript object at 0x744c70fe5e50&#45;&gt;ast.Load object at 0x744d2f937c10 -->
<g id="edge13" class="edge">
<title>ast.Subscript object at 0x744c70fe5e50&#45;&gt;ast.Load object at 0x744d2f937c10</title>
<path fill="none" stroke="black" d="M643.74,-147.43C640.79,-146.27 637.84,-145.11 635,-144 593.72,-127.85 581.43,-128.25 542,-108 516.01,-94.65 512.63,-86.03 487,-72 460.51,-57.5 429.29,-43.61 405.62,-33.69"/>
<polygon fill="black" stroke="black" points="406.88,-30.42 396.3,-29.82 404.19,-36.89 406.88,-30.42"/>
</g>
<!-- ast.Name object at 0x744c70fe5f50 -->
<g id="node12" class="node">
<title>ast.Name object at 0x744c70fe5f50</title>
<path fill="#66cdaa" stroke="black" d="M671,-108C671,-108 641,-108 641,-108 635,-108 629,-102 629,-96 629,-96 629,-84 629,-84 629,-78 635,-72 641,-72 641,-72 671,-72 671,-72 677,-72 683,-78 683,-84 683,-84 683,-96 683,-96 683,-102 677,-108 671,-108"/>
<text text-anchor="middle" x="656" y="-86.3" font-family="Times,serif" font-size="14.00">Name</text>
</g>
<!-- ast.Subscript object at 0x744c70fe5e50&#45;&gt;ast.Name object at 0x744c70fe5f50 -->
<g id="edge11" class="edge">
<title>ast.Subscript object at 0x744c70fe5e50&#45;&gt;ast.Name object at 0x744c70fe5f50</title>
<path fill="none" stroke="black" d="M672.56,-143.7C670.11,-135.9 667.16,-126.51 664.43,-117.83"/>
<polygon fill="black" stroke="black" points="667.71,-116.59 661.38,-108.1 661.04,-118.69 667.71,-116.59"/>
</g>
<!-- ast.Name object at 0x744c70fe6c10&#45;&gt;ast.Load object at 0x744d2f937c10 -->
<g id="edge10" class="edge">
<title>ast.Name object at 0x744c70fe6c10&#45;&gt;ast.Load object at 0x744d2f937c10</title>
<path fill="none" stroke="black" d="M550.68,-79.85C513.67,-67.46 447.5,-45.29 406.05,-31.41"/>
<polygon fill="black" stroke="black" points="406.92,-28.01 396.33,-28.15 404.7,-34.65 406.92,-28.01"/>
</g>
<!-- ast.Name object at 0x744c70fe5f50&#45;&gt;ast.Load object at 0x744d2f937c10 -->
<g id="edge12" class="edge">
<title>ast.Name object at 0x744c70fe5f50&#45;&gt;ast.Load object at 0x744d2f937c10</title>
<path fill="none" stroke="black" d="M628.68,-77.16C623.84,-75.29 618.81,-73.48 614,-72 541.74,-49.74 454.71,-33.28 406.24,-25"/>
<polygon fill="black" stroke="black" points="406.66,-21.52 396.22,-23.31 405.5,-28.43 406.66,-21.52"/>
</g>
<!-- ast.Name object at 0x744c70fe6cd0 -->
<g id="node14" class="node">
<title>ast.Name object at 0x744c70fe6cd0</title>
<path fill="#66cdaa" stroke="black" d="M278,-324C278,-324 248,-324 248,-324 242,-324 236,-318 236,-312 236,-312 236,-300 236,-300 236,-294 242,-288 248,-288 248,-288 278,-288 278,-288 284,-288 290,-294 290,-300 290,-300 290,-312 290,-312 290,-318 284,-324 278,-324"/>
<text text-anchor="middle" x="263" y="-302.3" font-family="Times,serif" font-size="14.00">Name</text>
</g>
<!-- ast.comprehension object at 0x744c70fe73d0&#45;&gt;ast.Name object at 0x744c70fe6cd0 -->
<g id="edge15" class="edge">
<title>ast.comprehension object at 0x744c70fe73d0&#45;&gt;ast.Name object at 0x744c70fe6cd0</title>
<path fill="none" stroke="black" d="M340.8,-359.88C327.59,-350.89 311.21,-339.76 296.89,-330.03"/>
<polygon fill="black" stroke="black" points="298.53,-326.92 288.29,-324.19 294.6,-332.71 298.53,-326.92"/>
</g>
<!-- ast.Call object at 0x744c70fe6450 -->
<g id="node15" class="node">
<title>ast.Call object at 0x744c70fe6450</title>
<path fill="#66cdaa" stroke="black" d="M257,-252C257,-252 227,-252 227,-252 221,-252 215,-246 215,-240 215,-240 215,-228 215,-228 215,-222 221,-216 227,-216 227,-216 257,-216 257,-216 263,-216 269,-222 269,-228 269,-228 269,-240 269,-240 269,-246 263,-252 257,-252"/>
<text text-anchor="middle" x="242" y="-230.3" font-family="Times,serif" font-size="14.00">Call</text>
</g>
<!-- ast.comprehension object at 0x744c70fe73d0&#45;&gt;ast.Call object at 0x744c70fe6450 -->
<g id="edge17" class="edge">
<title>ast.comprehension object at 0x744c70fe73d0&#45;&gt;ast.Call object at 0x744c70fe6450</title>
<path fill="none" stroke="black" d="M354.49,-359.91C341.76,-341.46 320.23,-311.56 299,-288 289.93,-277.94 279.23,-267.64 269.56,-258.82"/>
<polygon fill="black" stroke="black" points="271.86,-256.18 262.08,-252.1 267.18,-261.39 271.86,-256.18"/>
</g>
<!-- ast.BoolOp object at 0x744c70fe7510 -->
<g id="node20" class="node">
<title>ast.BoolOp object at 0x744c70fe7510</title>
<path fill="#66cdaa" stroke="black" d="M416.5,-324C416.5,-324 381.5,-324 381.5,-324 375.5,-324 369.5,-318 369.5,-312 369.5,-312 369.5,-300 369.5,-300 369.5,-294 375.5,-288 381.5,-288 381.5,-288 416.5,-288 416.5,-288 422.5,-288 428.5,-294 428.5,-300 428.5,-300 428.5,-312 428.5,-312 428.5,-318 422.5,-324 416.5,-324"/>
<text text-anchor="middle" x="399" y="-302.3" font-family="Times,serif" font-size="14.00">BoolOp</text>
</g>
<!-- ast.comprehension object at 0x744c70fe73d0&#45;&gt;ast.BoolOp object at 0x744c70fe7510 -->
<g id="edge25" class="edge">
<title>ast.comprehension object at 0x744c70fe73d0&#45;&gt;ast.BoolOp object at 0x744c70fe7510</title>
<path fill="none" stroke="black" d="M374.16,-359.7C377.91,-351.73 382.45,-342.1 386.62,-333.26"/>
<polygon fill="black" stroke="black" points="389.84,-334.64 390.94,-324.1 383.51,-331.66 389.84,-334.64"/>
</g>
<!-- ast.Name object at 0x744c70fe6cd0&#45;&gt;ast.Store object at 0x744d2f937c90 -->
<g id="edge16" class="edge">
<title>ast.Name object at 0x744c70fe6cd0&#45;&gt;ast.Store object at 0x744d2f937c90</title>
<path fill="none" stroke="black" d="M240.01,-287.7C228.19,-278.8 213.61,-267.82 200.82,-258.2"/>
<polygon fill="black" stroke="black" points="202.82,-255.32 192.72,-252.1 198.61,-260.91 202.82,-255.32"/>
</g>
<!-- ast.Name object at 0x744c70fe5f90 -->
<g id="node16" class="node">
<title>ast.Name object at 0x744c70fe5f90</title>
<path fill="#66cdaa" stroke="black" d="M42,-108C42,-108 12,-108 12,-108 6,-108 0,-102 0,-96 0,-96 0,-84 0,-84 0,-78 6,-72 12,-72 12,-72 42,-72 42,-72 48,-72 54,-78 54,-84 54,-84 54,-96 54,-96 54,-102 48,-108 42,-108"/>
<text text-anchor="middle" x="27" y="-86.3" font-family="Times,serif" font-size="14.00">Name</text>
</g>
<!-- ast.Call object at 0x744c70fe6450&#45;&gt;ast.Name object at 0x744c70fe5f90 -->
<g id="edge18" class="edge">
<title>ast.Call object at 0x744c70fe6450&#45;&gt;ast.Name object at 0x744c70fe5f90</title>
<path fill="none" stroke="black" d="M214.75,-219.36C211.83,-218.13 208.88,-216.98 206,-216 135.8,-192.01 94.41,-233.49 43,-180 27.49,-163.86 24.29,-138.09 24.5,-118.42"/>
<polygon fill="black" stroke="black" points="28.01,-118.36 24.92,-108.22 21.02,-118.07 28.01,-118.36"/>
</g>
<!-- ast.Call object at 0x744c70fe7490 -->
<g id="node17" class="node">
<title>ast.Call object at 0x744c70fe7490</title>
<path fill="#66cdaa" stroke="black" d="M94,-180C94,-180 64,-180 64,-180 58,-180 52,-174 52,-168 52,-168 52,-156 52,-156 52,-150 58,-144 64,-144 64,-144 94,-144 94,-144 100,-144 106,-150 106,-156 106,-156 106,-168 106,-168 106,-174 100,-180 94,-180"/>
<text text-anchor="middle" x="79" y="-158.3" font-family="Times,serif" font-size="14.00">Call</text>
</g>
<!-- ast.Call object at 0x744c70fe6450&#45;&gt;ast.Call object at 0x744c70fe7490 -->
<g id="edge20" class="edge">
<title>ast.Call object at 0x744c70fe6450&#45;&gt;ast.Call object at 0x744c70fe7490</title>
<path fill="none" stroke="black" d="M214.96,-220C211.95,-218.62 208.92,-217.26 206,-216 168.74,-199.85 156.52,-197.55 115.3,-179.99"/>
<polygon fill="black" stroke="black" points="116.61,-176.74 106.04,-176 113.84,-183.17 116.61,-176.74"/>
</g>
<!-- ast.Name object at 0x744c70fe5f90&#45;&gt;ast.Load object at 0x744d2f937c10 -->
<g id="edge19" class="edge">
<title>ast.Name object at 0x744c70fe5f90&#45;&gt;ast.Load object at 0x744d2f937c10</title>
<path fill="none" stroke="black" d="M54.34,-77.75C60.11,-75.64 66.2,-73.6 72,-72 163.74,-46.72 274.87,-30.63 331.65,-23.41"/>
<polygon fill="black" stroke="black" points="332.11,-26.88 341.6,-22.17 331.24,-19.94 332.11,-26.88"/>
</g>
<!-- ast.Name object at 0x744c70fe6090 -->
<g id="node18" class="node">
<title>ast.Name object at 0x744c70fe6090</title>
<path fill="#66cdaa" stroke="black" d="M200,-108C200,-108 170,-108 170,-108 164,-108 158,-102 158,-96 158,-96 158,-84 158,-84 158,-78 164,-72 170,-72 170,-72 200,-72 200,-72 206,-72 212,-78 212,-84 212,-84 212,-96 212,-96 212,-102 206,-108 200,-108"/>
<text text-anchor="middle" x="185" y="-86.3" font-family="Times,serif" font-size="14.00">Name</text>
</g>
<!-- ast.Call object at 0x744c70fe7490&#45;&gt;ast.Name object at 0x744c70fe6090 -->
<g id="edge21" class="edge">
<title>ast.Call object at 0x744c70fe7490&#45;&gt;ast.Name object at 0x744c70fe6090</title>
<path fill="none" stroke="black" d="M104.93,-143.88C118.66,-134.81 135.71,-123.55 150.54,-113.76"/>
<polygon fill="black" stroke="black" points="152.55,-116.62 158.97,-108.19 148.7,-110.78 152.55,-116.62"/>
</g>
<!-- ast.Name object at 0x744c70fe74d0 -->
<g id="node19" class="node">
<title>ast.Name object at 0x744c70fe74d0</title>
<path fill="#66cdaa" stroke="black" d="M123,-108C123,-108 93,-108 93,-108 87,-108 81,-102 81,-96 81,-96 81,-84 81,-84 81,-78 87,-72 93,-72 93,-72 123,-72 123,-72 129,-72 135,-78 135,-84 135,-84 135,-96 135,-96 135,-102 129,-108 123,-108"/>
<text text-anchor="middle" x="108" y="-86.3" font-family="Times,serif" font-size="14.00">Name</text>
</g>
<!-- ast.Call object at 0x744c70fe7490&#45;&gt;ast.Name object at 0x744c70fe74d0 -->
<g id="edge23" class="edge">
<title>ast.Call object at 0x744c70fe7490&#45;&gt;ast.Name object at 0x744c70fe74d0</title>
<path fill="none" stroke="black" d="M86.17,-143.7C89.43,-135.81 93.37,-126.3 97,-117.55"/>
<polygon fill="black" stroke="black" points="100.32,-118.68 100.91,-108.1 93.85,-116 100.32,-118.68"/>
</g>
<!-- ast.Name object at 0x744c70fe6090&#45;&gt;ast.Load object at 0x744d2f937c10 -->
<g id="edge22" class="edge">
<title>ast.Name object at 0x744c70fe6090&#45;&gt;ast.Load object at 0x744d2f937c10</title>
<path fill="none" stroke="black" d="M212.27,-78.14C217.49,-76.08 222.91,-73.96 228,-72 263.36,-58.37 303.87,-43.18 332.37,-32.58"/>
<polygon fill="black" stroke="black" points="333.76,-35.79 341.92,-29.02 331.32,-29.23 333.76,-35.79"/>
</g>
<!-- ast.Name object at 0x744c70fe74d0&#45;&gt;ast.Load object at 0x744d2f937c10 -->
<g id="edge24" class="edge">
<title>ast.Name object at 0x744c70fe74d0&#45;&gt;ast.Load object at 0x744d2f937c10</title>
<path fill="none" stroke="black" d="M135.12,-77.06C139.71,-75.24 144.46,-73.48 149,-72 212.12,-51.45 287.75,-34.94 331.88,-26.09"/>
<polygon fill="black" stroke="black" points="332.74,-29.49 341.87,-24.11 331.38,-22.62 332.74,-29.49"/>
</g>
<!-- ast.And object at 0x744d2f937ed0 -->
<g id="node21" class="node">
<title>ast.And object at 0x744d2f937ed0</title>
<path fill="#66cdaa" stroke="black" d="M554,-252C554,-252 524,-252 524,-252 518,-252 512,-246 512,-240 512,-240 512,-228 512,-228 512,-222 518,-216 524,-216 524,-216 554,-216 554,-216 560,-216 566,-222 566,-228 566,-228 566,-240 566,-240 566,-246 560,-252 554,-252"/>
<text text-anchor="middle" x="539" y="-230.3" font-family="Times,serif" font-size="14.00">And</text>
</g>
<!-- ast.BoolOp object at 0x744c70fe7510&#45;&gt;ast.And object at 0x744d2f937ed0 -->
<g id="edge26" class="edge">
<title>ast.BoolOp object at 0x744c70fe7510&#45;&gt;ast.And object at 0x744d2f937ed0</title>
<path fill="none" stroke="black" d="M428.69,-290.15C450.28,-279.36 479.62,-264.69 502.62,-253.19"/>
<polygon fill="black" stroke="black" points="504.35,-256.24 511.73,-248.64 501.22,-249.98 504.35,-256.24"/>
</g>
<!-- ast.Compare object at 0x744c70fe60d0 -->
<g id="node22" class="node">
<title>ast.Compare object at 0x744c70fe60d0</title>
<path fill="#66cdaa" stroke="black" d="M342.5,-252C342.5,-252 299.5,-252 299.5,-252 293.5,-252 287.5,-246 287.5,-240 287.5,-240 287.5,-228 287.5,-228 287.5,-222 293.5,-216 299.5,-216 299.5,-216 342.5,-216 342.5,-216 348.5,-216 354.5,-222 354.5,-228 354.5,-228 354.5,-240 354.5,-240 354.5,-246 348.5,-252 342.5,-252"/>
<text text-anchor="middle" x="321" y="-230.3" font-family="Times,serif" font-size="14.00">Compare</text>
</g>
<!-- ast.BoolOp object at 0x744c70fe7510&#45;&gt;ast.Compare object at 0x744c70fe60d0 -->
<g id="edge27" class="edge">
<title>ast.BoolOp object at 0x744c70fe7510&#45;&gt;ast.Compare object at 0x744c70fe60d0</title>
<path fill="none" stroke="black" d="M379.72,-287.7C370.08,-279.05 358.27,-268.45 347.77,-259.03"/>
<polygon fill="black" stroke="black" points="349.84,-256.18 340.06,-252.1 345.16,-261.39 349.84,-256.18"/>
</g>
<!-- ast.Compare object at 0x744c70fe7650 -->
<g id="node28" class="node">
<title>ast.Compare object at 0x744c70fe7650</title>
<path fill="#66cdaa" stroke="black" d="M481.5,-252C481.5,-252 438.5,-252 438.5,-252 432.5,-252 426.5,-246 426.5,-240 426.5,-240 426.5,-228 426.5,-228 426.5,-222 432.5,-216 438.5,-216 438.5,-216 481.5,-216 481.5,-216 487.5,-216 493.5,-222 493.5,-228 493.5,-228 493.5,-240 493.5,-240 493.5,-246 487.5,-252 481.5,-252"/>
<text text-anchor="middle" x="460" y="-230.3" font-family="Times,serif" font-size="14.00">Compare</text>
</g>
<!-- ast.BoolOp object at 0x744c70fe7510&#45;&gt;ast.Compare object at 0x744c70fe7650 -->
<g id="edge36" class="edge">
<title>ast.BoolOp object at 0x744c70fe7510&#45;&gt;ast.Compare object at 0x744c70fe7650</title>
<path fill="none" stroke="black" d="M414.08,-287.7C421.39,-279.3 430.31,-269.07 438.34,-259.86"/>
<polygon fill="black" stroke="black" points="441.16,-261.94 445.09,-252.1 435.89,-257.34 441.16,-261.94"/>
</g>
<!-- ast.Subscript object at 0x744c70fe7590 -->
<g id="node23" class="node">
<title>ast.Subscript object at 0x744c70fe7590</title>
<path fill="#66cdaa" stroke="black" d="M264,-180C264,-180 220,-180 220,-180 214,-180 208,-174 208,-168 208,-168 208,-156 208,-156 208,-150 214,-144 220,-144 220,-144 264,-144 264,-144 270,-144 276,-150 276,-156 276,-156 276,-168 276,-168 276,-174 270,-180 264,-180"/>
<text text-anchor="middle" x="242" y="-158.3" font-family="Times,serif" font-size="14.00">Subscript</text>
</g>
<!-- ast.Compare object at 0x744c70fe60d0&#45;&gt;ast.Subscript object at 0x744c70fe7590 -->
<g id="edge28" class="edge">
<title>ast.Compare object at 0x744c70fe60d0&#45;&gt;ast.Subscript object at 0x744c70fe7590</title>
<path fill="none" stroke="black" d="M301.47,-215.7C291.62,-206.97 279.51,-196.24 268.8,-186.75"/>
<polygon fill="black" stroke="black" points="271.11,-184.12 261.3,-180.1 266.47,-189.36 271.11,-184.12"/>
</g>
<!-- ast.Lt object at 0x744d2f948d50 -->
<g id="node26" class="node">
<title>ast.Lt object at 0x744d2f948d50</title>
<path fill="#66cdaa" stroke="black" d="M336,-180C336,-180 306,-180 306,-180 300,-180 294,-174 294,-168 294,-168 294,-156 294,-156 294,-150 300,-144 306,-144 306,-144 336,-144 336,-144 342,-144 348,-150 348,-156 348,-156 348,-168 348,-168 348,-174 342,-180 336,-180"/>
<text text-anchor="middle" x="321" y="-158.3" font-family="Times,serif" font-size="14.00">Lt</text>
</g>
<!-- ast.Compare object at 0x744c70fe60d0&#45;&gt;ast.Lt object at 0x744d2f948d50 -->
<g id="edge34" class="edge">
<title>ast.Compare object at 0x744c70fe60d0&#45;&gt;ast.Lt object at 0x744d2f948d50</title>
<path fill="none" stroke="black" d="M321,-215.7C321,-207.98 321,-198.71 321,-190.11"/>
<polygon fill="black" stroke="black" points="324.5,-190.1 321,-180.1 317.5,-190.1 324.5,-190.1"/>
</g>
<!-- ast.Constant object at 0x744c70fe7610 -->
<g id="node27" class="node">
<title>ast.Constant object at 0x744c70fe7610</title>
<path fill="#66cdaa" stroke="black" d="M177.5,-180C177.5,-180 136.5,-180 136.5,-180 130.5,-180 124.5,-174 124.5,-168 124.5,-168 124.5,-156 124.5,-156 124.5,-150 130.5,-144 136.5,-144 136.5,-144 177.5,-144 177.5,-144 183.5,-144 189.5,-150 189.5,-156 189.5,-156 189.5,-168 189.5,-168 189.5,-174 183.5,-180 177.5,-180"/>
<text text-anchor="middle" x="157" y="-158.3" font-family="Times,serif" font-size="14.00">Constant</text>
</g>
<!-- ast.Compare object at 0x744c70fe60d0&#45;&gt;ast.Constant object at 0x744c70fe7610 -->
<g id="edge35" class="edge">
<title>ast.Compare object at 0x744c70fe60d0&#45;&gt;ast.Constant object at 0x744c70fe7610</title>
<path fill="none" stroke="black" d="M287.42,-218.67C261.85,-207.75 226.5,-192.66 199.05,-180.95"/>
<polygon fill="black" stroke="black" points="200.27,-177.66 189.7,-176.96 197.52,-184.1 200.27,-177.66"/>
</g>
<!-- ast.Subscript object at 0x744c70fe7590&#45;&gt;ast.Load object at 0x744d2f937c10 -->
<g id="edge33" class="edge">
<title>ast.Subscript object at 0x744c70fe7590&#45;&gt;ast.Load object at 0x744d2f937c10</title>
<path fill="none" stroke="black" d="M241.41,-143.75C241.63,-124.34 244.77,-92.8 261,-72 278.53,-49.52 308.08,-35.95 331.83,-28.17"/>
<polygon fill="black" stroke="black" points="333.07,-31.45 341.61,-25.18 331.02,-24.76 333.07,-31.45"/>
</g>
<!-- ast.Name object at 0x744c70fe75d0 -->
<g id="node24" class="node">
<title>ast.Name object at 0x744c70fe75d0</title>
<path fill="#66cdaa" stroke="black" d="M312,-108C312,-108 282,-108 282,-108 276,-108 270,-102 270,-96 270,-96 270,-84 270,-84 270,-78 276,-72 282,-72 282,-72 312,-72 312,-72 318,-72 324,-78 324,-84 324,-84 324,-96 324,-96 324,-102 318,-108 312,-108"/>
<text text-anchor="middle" x="297" y="-86.3" font-family="Times,serif" font-size="14.00">Name</text>
</g>
<!-- ast.Subscript object at 0x744c70fe7590&#45;&gt;ast.Name object at 0x744c70fe75d0 -->
<g id="edge29" class="edge">
<title>ast.Subscript object at 0x744c70fe7590&#45;&gt;ast.Name object at 0x744c70fe75d0</title>
<path fill="none" stroke="black" d="M255.6,-143.7C262.12,-135.39 270.07,-125.28 277.25,-116.14"/>
<polygon fill="black" stroke="black" points="280.13,-118.13 283.56,-108.1 274.63,-113.81 280.13,-118.13"/>
</g>
<!-- ast.Name object at 0x744c70fe5890 -->
<g id="node25" class="node">
<title>ast.Name object at 0x744c70fe5890</title>
<path fill="#66cdaa" stroke="black" d="M384,-108C384,-108 354,-108 354,-108 348,-108 342,-102 342,-96 342,-96 342,-84 342,-84 342,-78 348,-72 354,-72 354,-72 384,-72 384,-72 390,-72 396,-78 396,-84 396,-84 396,-96 396,-96 396,-102 390,-108 384,-108"/>
<text text-anchor="middle" x="369" y="-86.3" font-family="Times,serif" font-size="14.00">Name</text>
</g>
<!-- ast.Subscript object at 0x744c70fe7590&#45;&gt;ast.Name object at 0x744c70fe5890 -->
<g id="edge31" class="edge">
<title>ast.Subscript object at 0x744c70fe7590&#45;&gt;ast.Name object at 0x744c70fe5890</title>
<path fill="none" stroke="black" d="M273.07,-143.88C291.12,-133.93 313.94,-121.35 332.8,-110.95"/>
<polygon fill="black" stroke="black" points="334.63,-113.94 341.7,-106.05 331.26,-107.81 334.63,-113.94"/>
</g>
<!-- ast.Name object at 0x744c70fe75d0&#45;&gt;ast.Load object at 0x744d2f937c10 -->
<g id="edge30" class="edge">
<title>ast.Name object at 0x744c70fe75d0&#45;&gt;ast.Load object at 0x744d2f937c10</title>
<path fill="none" stroke="black" d="M314.8,-71.7C323.6,-63.14 334.38,-52.66 344,-43.3"/>
<polygon fill="black" stroke="black" points="346.68,-45.58 351.41,-36.1 341.8,-40.57 346.68,-45.58"/>
</g>
<!-- ast.Name object at 0x744c70fe5890&#45;&gt;ast.Load object at 0x744d2f937c10 -->
<g id="edge32" class="edge">
<title>ast.Name object at 0x744c70fe5890&#45;&gt;ast.Load object at 0x744d2f937c10</title>
<path fill="none" stroke="black" d="M369,-71.7C369,-63.98 369,-54.71 369,-46.11"/>
<polygon fill="black" stroke="black" points="372.5,-46.1 369,-36.1 365.5,-46.1 372.5,-46.1"/>
</g>
<!-- ast.Constant object at 0x744c70fe7690 -->
<g id="node29" class="node">
<title>ast.Constant object at 0x744c70fe7690</title>
<path fill="#66cdaa" stroke="black" d="M541.5,-180C541.5,-180 500.5,-180 500.5,-180 494.5,-180 488.5,-174 488.5,-168 488.5,-168 488.5,-156 488.5,-156 488.5,-150 494.5,-144 500.5,-144 500.5,-144 541.5,-144 541.5,-144 547.5,-144 553.5,-150 553.5,-156 553.5,-156 553.5,-168 553.5,-168 553.5,-174 547.5,-180 541.5,-180"/>
<text text-anchor="middle" x="521" y="-158.3" font-family="Times,serif" font-size="14.00">Constant</text>
</g>
<!-- ast.Compare object at 0x744c70fe7650&#45;&gt;ast.Constant object at 0x744c70fe7690 -->
<g id="edge37" class="edge">
<title>ast.Compare object at 0x744c70fe7650&#45;&gt;ast.Constant object at 0x744c70fe7690</title>
<path fill="none" stroke="black" d="M475.08,-215.7C482.39,-207.3 491.31,-197.07 499.34,-187.86"/>
<polygon fill="black" stroke="black" points="502.16,-189.94 506.09,-180.1 496.89,-185.34 502.16,-189.94"/>
</g>
<!-- ast.LtE object at 0x744d2f948dd0 -->
<g id="node30" class="node">
<title>ast.LtE object at 0x744d2f948dd0</title>
<path fill="#66cdaa" stroke="black" d="M614,-180C614,-180 584,-180 584,-180 578,-180 572,-174 572,-168 572,-168 572,-156 572,-156 572,-150 578,-144 584,-144 584,-144 614,-144 614,-144 620,-144 626,-150 626,-156 626,-156 626,-168 626,-168 626,-174 620,-180 614,-180"/>
<text text-anchor="middle" x="599" y="-158.3" font-family="Times,serif" font-size="14.00">LtE</text>
</g>
<!-- ast.Compare object at 0x744c70fe7650&#45;&gt;ast.LtE object at 0x744d2f948dd0 -->
<g id="edge38" class="edge">
<title>ast.Compare object at 0x744c70fe7650&#45;&gt;ast.LtE object at 0x744d2f948dd0</title>
<path fill="none" stroke="black" d="M488.11,-215.88C509.65,-204.42 539.4,-189.47 562.73,-178.4"/>
<polygon fill="black" stroke="black" points="564.4,-181.48 571.96,-174.06 561.42,-175.14 564.4,-181.48"/>
</g>
<!-- ast.Compare object at 0x744c70fe7650&#45;&gt;ast.LtE object at 0x744d2f948dd0 -->
<g id="edge39" class="edge">
<title>ast.Compare object at 0x744c70fe7650&#45;&gt;ast.LtE object at 0x744d2f948dd0</title>
<path fill="none" stroke="black" d="M493.68,-218.83C514.61,-208.95 541.39,-195.58 562.77,-184.41"/>
<polygon fill="black" stroke="black" points="564.66,-187.37 571.87,-179.61 561.39,-181.18 564.66,-187.37"/>
</g>
<!-- ast.Name object at 0x744c70fe7cd0 -->
<g id="node31" class="node">
<title>ast.Name object at 0x744c70fe7cd0</title>
<path fill="#66cdaa" stroke="black" d="M466,-108C466,-108 436,-108 436,-108 430,-108 424,-102 424,-96 424,-96 424,-84 424,-84 424,-78 430,-72 436,-72 436,-72 466,-72 466,-72 472,-72 478,-78 478,-84 478,-84 478,-96 478,-96 478,-102 472,-108 466,-108"/>
<text text-anchor="middle" x="451" y="-86.3" font-family="Times,serif" font-size="14.00">Name</text>
</g>
<!-- ast.Compare object at 0x744c70fe7650&#45;&gt;ast.Name object at 0x744c70fe7cd0 -->
<g id="edge40" class="edge">
<title>ast.Compare object at 0x744c70fe7650&#45;&gt;ast.Name object at 0x744c70fe7cd0</title>
<path fill="none" stroke="black" d="M458.91,-215.87C457.38,-191.67 454.56,-147.21 452.74,-118.39"/>
<polygon fill="black" stroke="black" points="456.22,-117.95 452.09,-108.19 449.23,-118.39 456.22,-117.95"/>
</g>
<!-- ast.Constant object at 0x744c70fe76d0 -->
<g id="node32" class="node">
<title>ast.Constant object at 0x744c70fe76d0</title>
<path fill="#66cdaa" stroke="black" d="M419.5,-180C419.5,-180 378.5,-180 378.5,-180 372.5,-180 366.5,-174 366.5,-168 366.5,-168 366.5,-156 366.5,-156 366.5,-150 372.5,-144 378.5,-144 378.5,-144 419.5,-144 419.5,-144 425.5,-144 431.5,-150 431.5,-156 431.5,-156 431.5,-168 431.5,-168 431.5,-174 425.5,-180 419.5,-180"/>
<text text-anchor="middle" x="399" y="-158.3" font-family="Times,serif" font-size="14.00">Constant</text>
</g>
<!-- ast.Compare object at 0x744c70fe7650&#45;&gt;ast.Constant object at 0x744c70fe76d0 -->
<g id="edge42" class="edge">
<title>ast.Compare object at 0x744c70fe7650&#45;&gt;ast.Constant object at 0x744c70fe76d0</title>
<path fill="none" stroke="black" d="M444.92,-215.7C437.61,-207.3 428.69,-197.07 420.66,-187.86"/>
<polygon fill="black" stroke="black" points="423.11,-185.34 413.91,-180.1 417.84,-189.94 423.11,-185.34"/>
</g>
<!-- ast.Name object at 0x744c70fe7cd0&#45;&gt;ast.Load object at 0x744d2f937c10 -->
<g id="edge41" class="edge">
<title>ast.Name object at 0x744c70fe7cd0&#45;&gt;ast.Load object at 0x744d2f937c10</title>
<path fill="none" stroke="black" d="M430.73,-71.7C420.5,-62.97 407.94,-52.24 396.82,-42.75"/>
<polygon fill="black" stroke="black" points="398.91,-39.94 389.04,-36.1 394.37,-45.26 398.91,-39.94"/>
</g>
<!-- ast.Name object at 0x744c70fe58d0 -->
<g id="node34" class="node">
<title>ast.Name object at 0x744c70fe58d0</title>
<path fill="#66cdaa" stroke="black" d="M732,-396C732,-396 702,-396 702,-396 696,-396 690,-390 690,-384 690,-384 690,-372 690,-372 690,-366 696,-360 702,-360 702,-360 732,-360 732,-360 738,-360 744,-366 744,-372 744,-372 744,-384 744,-384 744,-390 738,-396 732,-396"/>
<text text-anchor="middle" x="717" y="-374.3" font-family="Times,serif" font-size="14.00">Name</text>
</g>
<!-- ast.Return object at 0x744c70fe6210&#45;&gt;ast.Name object at 0x744c70fe58d0 -->
<g id="edge44" class="edge">
<title>ast.Return object at 0x744c70fe6210&#45;&gt;ast.Name object at 0x744c70fe58d0</title>
<path fill="none" stroke="black" d="M516.05,-504.15C557.19,-478.53 635.52,-429.75 681.29,-401.24"/>
<polygon fill="black" stroke="black" points="683.35,-404.08 689.99,-395.82 679.65,-398.14 683.35,-404.08"/>
</g>
<!-- ast.Name object at 0x744c70fe58d0&#45;&gt;ast.Load object at 0x744d2f937c10 -->
<g id="edge45" class="edge">
<title>ast.Name object at 0x744c70fe58d0&#45;&gt;ast.Load object at 0x744d2f937c10</title>
<path fill="none" stroke="black" d="M721.65,-359.66C728.38,-333.05 740,-280.45 740,-235 740,-235 740,-235 740,-161 740,-116.06 728.59,-98.09 692,-72 646.69,-39.69 481.63,-25.8 406.59,-21.05"/>
<polygon fill="black" stroke="black" points="406.39,-17.53 396.2,-20.42 405.97,-24.52 406.39,-17.53"/>
</g>
</g>
</svg>
