<?xml version="1.0" encoding="UTF-8" standalone="no"?>
<!DOCTYPE svg PUBLIC "-//W3C//DTD SVG 1.1//EN"
 "http://www.w3.org/Graphics/SVG/1.1/DTD/svg11.dtd">
<!-- Generated by graphviz version 2.50.0 (0)
 -->
<!-- Pages: 1 -->
<svg width="1458pt" height="836pt"
 viewBox="0.00 0.00 1457.50 836.00" xmlns="http://www.w3.org/2000/svg" xmlns:xlink="http://www.w3.org/1999/xlink">
<g id="graph0" class="graph" transform="scale(1 1) rotate(0) translate(4 832)">
<polygon fill="white" stroke="transparent" points="-4,4 -4,-832 1453.5,-832 1453.5,4 -4,4"/>
<!-- ast.Module object at 0x731ce0f727d0 -->
<g id="node1" class="node">
<title>ast.Module object at 0x731ce0f727d0</title>
<path fill="#66cdaa" stroke="black" d="M876,-828C876,-828 841,-828 841,-828 835,-828 829,-822 829,-816 829,-816 829,-804 829,-804 829,-798 835,-792 841,-792 841,-792 876,-792 876,-792 882,-792 888,-798 888,-804 888,-804 888,-816 888,-816 888,-822 882,-828 876,-828"/>
<text text-anchor="middle" x="858.5" y="-806.3" font-family="Times,serif" font-size="14.00">Module</text>
</g>
<!-- ast.FunctionDef object at 0x731ce0f72590 -->
<g id="node2" class="node">
<title>ast.FunctionDef object at 0x731ce0f72590</title>
<path fill="#66cdaa" stroke="black" d="M889,-756C889,-756 828,-756 828,-756 822,-756 816,-750 816,-744 816,-744 816,-732 816,-732 816,-726 822,-720 828,-720 828,-720 889,-720 889,-720 895,-720 901,-726 901,-732 901,-732 901,-744 901,-744 901,-750 895,-756 889,-756"/>
<text text-anchor="middle" x="858.5" y="-734.3" font-family="Times,serif" font-size="14.00">FunctionDef</text>
</g>
<!-- ast.Module object at 0x731ce0f727d0&#45;&gt;ast.FunctionDef object at 0x731ce0f72590 -->
<g id="edge1" class="edge">
<title>ast.Module object at 0x731ce0f727d0&#45;&gt;ast.FunctionDef object at 0x731ce0f72590</title>
<path fill="none" stroke="black" d="M858.5,-791.7C858.5,-783.98 858.5,-774.71 858.5,-766.11"/>
<polygon fill="black" stroke="black" points="862,-766.1 858.5,-756.1 855,-766.1 862,-766.1"/>
</g>
<!-- ast.arguments object at 0x731ce0f70a50 -->
<g id="node3" class="node">
<title>ast.arguments object at 0x731ce0f70a50</title>
<path fill="#66cdaa" stroke="black" d="M584.5,-684C584.5,-684 534.5,-684 534.5,-684 528.5,-684 522.5,-678 522.5,-672 522.5,-672 522.5,-660 522.5,-660 522.5,-654 528.5,-648 534.5,-648 534.5,-648 584.5,-648 584.5,-648 590.5,-648 596.5,-654 596.5,-660 596.5,-660 596.5,-672 596.5,-672 596.5,-678 590.5,-684 584.5,-684"/>
<text text-anchor="middle" x="559.5" y="-662.3" font-family="Times,serif" font-size="14.00">arguments</text>
</g>
<!-- ast.FunctionDef object at 0x731ce0f72590&#45;&gt;ast.arguments object at 0x731ce0f70a50 -->
<g id="edge2" class="edge">
<title>ast.FunctionDef object at 0x731ce0f72590&#45;&gt;ast.arguments object at 0x731ce0f70a50</title>
<path fill="none" stroke="black" d="M815.59,-729.33C765.86,-720.1 681.65,-703.4 610.5,-684 609.23,-683.65 607.95,-683.3 606.66,-682.93"/>
<polygon fill="black" stroke="black" points="607.26,-679.45 596.68,-679.92 605.25,-686.16 607.26,-679.45"/>
</g>
<!-- ast.If object at 0x731ce0f73e50 -->
<g id="node5" class="node">
<title>ast.If object at 0x731ce0f73e50</title>
<path fill="#66cdaa" stroke="black" d="M293.5,-324C293.5,-324 263.5,-324 263.5,-324 257.5,-324 251.5,-318 251.5,-312 251.5,-312 251.5,-300 251.5,-300 251.5,-294 257.5,-288 263.5,-288 263.5,-288 293.5,-288 293.5,-288 299.5,-288 305.5,-294 305.5,-300 305.5,-300 305.5,-312 305.5,-312 305.5,-318 299.5,-324 293.5,-324"/>
<text text-anchor="middle" x="278.5" y="-302.3" font-family="Times,serif" font-size="14.00">If</text>
</g>
<!-- ast.FunctionDef object at 0x731ce0f72590&#45;&gt;ast.If object at 0x731ce0f73e50 -->
<g id="edge4" class="edge">
<title>ast.FunctionDef object at 0x731ce0f72590&#45;&gt;ast.If object at 0x731ce0f73e50</title>
<path fill="none" stroke="black" d="M815.85,-730.83C748.36,-718.39 624.5,-683.51 624.5,-595 624.5,-595 624.5,-595 624.5,-449 624.5,-382.79 404.95,-331.96 315.63,-314.02"/>
<polygon fill="black" stroke="black" points="316.14,-310.55 305.65,-312.04 314.78,-317.42 316.14,-310.55"/>
</g>
<!-- ast.If object at 0x731cf6065e90 -->
<g id="node17" class="node">
<title>ast.If object at 0x731cf6065e90</title>
<path fill="#66cdaa" stroke="black" d="M873.5,-684C873.5,-684 843.5,-684 843.5,-684 837.5,-684 831.5,-678 831.5,-672 831.5,-672 831.5,-660 831.5,-660 831.5,-654 837.5,-648 843.5,-648 843.5,-648 873.5,-648 873.5,-648 879.5,-648 885.5,-654 885.5,-660 885.5,-660 885.5,-672 885.5,-672 885.5,-678 879.5,-684 873.5,-684"/>
<text text-anchor="middle" x="858.5" y="-662.3" font-family="Times,serif" font-size="14.00">If</text>
</g>
<!-- ast.FunctionDef object at 0x731ce0f72590&#45;&gt;ast.If object at 0x731cf6065e90 -->
<g id="edge18" class="edge">
<title>ast.FunctionDef object at 0x731ce0f72590&#45;&gt;ast.If object at 0x731cf6065e90</title>
<path fill="none" stroke="black" d="M858.5,-719.7C858.5,-711.98 858.5,-702.71 858.5,-694.11"/>
<polygon fill="black" stroke="black" points="862,-694.1 858.5,-684.1 855,-694.1 862,-694.1"/>
</g>
<!-- ast.Assign object at 0x731ce96257d0 -->
<g id="node47" class="node">
<title>ast.Assign object at 0x731ce96257d0</title>
<path fill="#66cdaa" stroke="black" d="M1211.5,-324C1211.5,-324 1181.5,-324 1181.5,-324 1175.5,-324 1169.5,-318 1169.5,-312 1169.5,-312 1169.5,-300 1169.5,-300 1169.5,-294 1175.5,-288 1181.5,-288 1181.5,-288 1211.5,-288 1211.5,-288 1217.5,-288 1223.5,-294 1223.5,-300 1223.5,-300 1223.5,-312 1223.5,-312 1223.5,-318 1217.5,-324 1211.5,-324"/>
<text text-anchor="middle" x="1196.5" y="-302.3" font-family="Times,serif" font-size="14.00">Assign</text>
</g>
<!-- ast.FunctionDef object at 0x731ce0f72590&#45;&gt;ast.Assign object at 0x731ce96257d0 -->
<g id="edge60" class="edge">
<title>ast.FunctionDef object at 0x731ce0f72590&#45;&gt;ast.Assign object at 0x731ce96257d0</title>
<path fill="none" stroke="black" d="M901.21,-733.38C975.93,-724.44 1122.5,-694.27 1122.5,-595 1122.5,-595 1122.5,-595 1122.5,-449 1122.5,-403.9 1152.21,-358.94 1173.98,-332.05"/>
<polygon fill="black" stroke="black" points="1176.73,-334.23 1180.44,-324.31 1171.35,-329.74 1176.73,-334.23"/>
</g>
<!-- ast.Return object at 0x731ce9627290 -->
<g id="node54" class="node">
<title>ast.Return object at 0x731ce9627290</title>
<path fill="#66cdaa" stroke="black" d="M1217.5,-684C1217.5,-684 1187.5,-684 1187.5,-684 1181.5,-684 1175.5,-678 1175.5,-672 1175.5,-672 1175.5,-660 1175.5,-660 1175.5,-654 1181.5,-648 1187.5,-648 1187.5,-648 1217.5,-648 1217.5,-648 1223.5,-648 1229.5,-654 1229.5,-660 1229.5,-660 1229.5,-672 1229.5,-672 1229.5,-678 1223.5,-684 1217.5,-684"/>
<text text-anchor="middle" x="1202.5" y="-662.3" font-family="Times,serif" font-size="14.00">Return</text>
</g>
<!-- ast.FunctionDef object at 0x731ce0f72590&#45;&gt;ast.Return object at 0x731ce9627290 -->
<g id="edge72" class="edge">
<title>ast.FunctionDef object at 0x731ce0f72590&#45;&gt;ast.Return object at 0x731ce9627290</title>
<path fill="none" stroke="black" d="M901.06,-729.75C955.76,-720.25 1053.55,-702.57 1136.5,-684 1145.91,-681.89 1156.02,-679.4 1165.43,-676.99"/>
<polygon fill="black" stroke="black" points="1166.5,-680.33 1175.3,-674.42 1164.74,-673.55 1166.5,-680.33"/>
</g>
<!-- ast.arg object at 0x731ce0f70710 -->
<g id="node4" class="node">
<title>ast.arg object at 0x731ce0f70710</title>
<path fill="#66cdaa" stroke="black" d="M574.5,-612C574.5,-612 544.5,-612 544.5,-612 538.5,-612 532.5,-606 532.5,-600 532.5,-600 532.5,-588 532.5,-588 532.5,-582 538.5,-576 544.5,-576 544.5,-576 574.5,-576 574.5,-576 580.5,-576 586.5,-582 586.5,-588 586.5,-588 586.5,-600 586.5,-600 586.5,-606 580.5,-612 574.5,-612"/>
<text text-anchor="middle" x="559.5" y="-590.3" font-family="Times,serif" font-size="14.00">arg</text>
</g>
<!-- ast.arguments object at 0x731ce0f70a50&#45;&gt;ast.arg object at 0x731ce0f70710 -->
<g id="edge3" class="edge">
<title>ast.arguments object at 0x731ce0f70a50&#45;&gt;ast.arg object at 0x731ce0f70710</title>
<path fill="none" stroke="black" d="M559.5,-647.7C559.5,-639.98 559.5,-630.71 559.5,-622.11"/>
<polygon fill="black" stroke="black" points="563,-622.1 559.5,-612.1 556,-622.1 563,-622.1"/>
</g>
<!-- ast.Compare object at 0x731ce0f72410 -->
<g id="node6" class="node">
<title>ast.Compare object at 0x731ce0f72410</title>
<path fill="#66cdaa" stroke="black" d="M186,-252C186,-252 143,-252 143,-252 137,-252 131,-246 131,-240 131,-240 131,-228 131,-228 131,-222 137,-216 143,-216 143,-216 186,-216 186,-216 192,-216 198,-222 198,-228 198,-228 198,-240 198,-240 198,-246 192,-252 186,-252"/>
<text text-anchor="middle" x="164.5" y="-230.3" font-family="Times,serif" font-size="14.00">Compare</text>
</g>
<!-- ast.If object at 0x731ce0f73e50&#45;&gt;ast.Compare object at 0x731ce0f72410 -->
<g id="edge5" class="edge">
<title>ast.If object at 0x731ce0f73e50&#45;&gt;ast.Compare object at 0x731ce0f72410</title>
<path fill="none" stroke="black" d="M251.48,-288.41C236.48,-279.2 217.61,-267.61 201.28,-257.59"/>
<polygon fill="black" stroke="black" points="202.87,-254.45 192.51,-252.2 199.2,-260.42 202.87,-254.45"/>
</g>
<!-- ast.Raise object at 0x731ce0f70610 -->
<g id="node13" class="node">
<title>ast.Raise object at 0x731ce0f70610</title>
<path fill="#66cdaa" stroke="black" d="M293.5,-252C293.5,-252 263.5,-252 263.5,-252 257.5,-252 251.5,-246 251.5,-240 251.5,-240 251.5,-228 251.5,-228 251.5,-222 257.5,-216 263.5,-216 263.5,-216 293.5,-216 293.5,-216 299.5,-216 305.5,-222 305.5,-228 305.5,-228 305.5,-240 305.5,-240 305.5,-246 299.5,-252 293.5,-252"/>
<text text-anchor="middle" x="278.5" y="-230.3" font-family="Times,serif" font-size="14.00">Raise</text>
</g>
<!-- ast.If object at 0x731ce0f73e50&#45;&gt;ast.Raise object at 0x731ce0f70610 -->
<g id="edge13" class="edge">
<title>ast.If object at 0x731ce0f73e50&#45;&gt;ast.Raise object at 0x731ce0f70610</title>
<path fill="none" stroke="black" d="M278.5,-287.7C278.5,-279.98 278.5,-270.71 278.5,-262.11"/>
<polygon fill="black" stroke="black" points="282,-262.1 278.5,-252.1 275,-262.1 282,-262.1"/>
</g>
<!-- ast.Call object at 0x731ce0f72890 -->
<g id="node7" class="node">
<title>ast.Call object at 0x731ce0f72890</title>
<path fill="#66cdaa" stroke="black" d="M197.5,-180C197.5,-180 167.5,-180 167.5,-180 161.5,-180 155.5,-174 155.5,-168 155.5,-168 155.5,-156 155.5,-156 155.5,-150 161.5,-144 167.5,-144 167.5,-144 197.5,-144 197.5,-144 203.5,-144 209.5,-150 209.5,-156 209.5,-156 209.5,-168 209.5,-168 209.5,-174 203.5,-180 197.5,-180"/>
<text text-anchor="middle" x="182.5" y="-158.3" font-family="Times,serif" font-size="14.00">Call</text>
</g>
<!-- ast.Compare object at 0x731ce0f72410&#45;&gt;ast.Call object at 0x731ce0f72890 -->
<g id="edge6" class="edge">
<title>ast.Compare object at 0x731ce0f72410&#45;&gt;ast.Call object at 0x731ce0f72890</title>
<path fill="none" stroke="black" d="M168.95,-215.7C170.95,-207.9 173.37,-198.51 175.6,-189.83"/>
<polygon fill="black" stroke="black" points="179,-190.66 178.1,-180.1 172.22,-188.92 179,-190.66"/>
</g>
<!-- ast.NotEq object at 0x731df7a5bb90 -->
<g id="node11" class="node">
<title>ast.NotEq object at 0x731df7a5bb90</title>
<path fill="#66cdaa" stroke="black" d="M125.5,-180C125.5,-180 95.5,-180 95.5,-180 89.5,-180 83.5,-174 83.5,-168 83.5,-168 83.5,-156 83.5,-156 83.5,-150 89.5,-144 95.5,-144 95.5,-144 125.5,-144 125.5,-144 131.5,-144 137.5,-150 137.5,-156 137.5,-156 137.5,-168 137.5,-168 137.5,-174 131.5,-180 125.5,-180"/>
<text text-anchor="middle" x="110.5" y="-158.3" font-family="Times,serif" font-size="14.00">NotEq</text>
</g>
<!-- ast.Compare object at 0x731ce0f72410&#45;&gt;ast.NotEq object at 0x731df7a5bb90 -->
<g id="edge11" class="edge">
<title>ast.Compare object at 0x731ce0f72410&#45;&gt;ast.NotEq object at 0x731df7a5bb90</title>
<path fill="none" stroke="black" d="M151.15,-215.7C144.74,-207.39 136.94,-197.28 129.89,-188.14"/>
<polygon fill="black" stroke="black" points="132.57,-185.88 123.69,-180.1 127.03,-190.16 132.57,-185.88"/>
</g>
<!-- ast.Constant object at 0x731cef3cc7d0 -->
<g id="node12" class="node">
<title>ast.Constant object at 0x731cef3cc7d0</title>
<path fill="#66cdaa" stroke="black" d="M53,-180C53,-180 12,-180 12,-180 6,-180 0,-174 0,-168 0,-168 0,-156 0,-156 0,-150 6,-144 12,-144 12,-144 53,-144 53,-144 59,-144 65,-150 65,-156 65,-156 65,-168 65,-168 65,-174 59,-180 53,-180"/>
<text text-anchor="middle" x="32.5" y="-158.3" font-family="Times,serif" font-size="14.00">Constant</text>
</g>
<!-- ast.Compare object at 0x731ce0f72410&#45;&gt;ast.Constant object at 0x731cef3cc7d0 -->
<g id="edge12" class="edge">
<title>ast.Compare object at 0x731ce0f72410&#45;&gt;ast.Constant object at 0x731cef3cc7d0</title>
<path fill="none" stroke="black" d="M132.21,-215.88C114.63,-206.55 92.69,-194.92 73.87,-184.94"/>
<polygon fill="black" stroke="black" points="75.39,-181.78 64.91,-180.19 72.11,-187.97 75.39,-181.78"/>
</g>
<!-- ast.Name object at 0x731ce0f73d90 -->
<g id="node8" class="node">
<title>ast.Name object at 0x731ce0f73d90</title>
<path fill="#66cdaa" stroke="black" d="M197.5,-108C197.5,-108 167.5,-108 167.5,-108 161.5,-108 155.5,-102 155.5,-96 155.5,-96 155.5,-84 155.5,-84 155.5,-78 161.5,-72 167.5,-72 167.5,-72 197.5,-72 197.5,-72 203.5,-72 209.5,-78 209.5,-84 209.5,-84 209.5,-96 209.5,-96 209.5,-102 203.5,-108 197.5,-108"/>
<text text-anchor="middle" x="182.5" y="-86.3" font-family="Times,serif" font-size="14.00">Name</text>
</g>
<!-- ast.Call object at 0x731ce0f72890&#45;&gt;ast.Name object at 0x731ce0f73d90 -->
<g id="edge7" class="edge">
<title>ast.Call object at 0x731ce0f72890&#45;&gt;ast.Name object at 0x731ce0f73d90</title>
<path fill="none" stroke="black" d="M182.5,-143.7C182.5,-135.98 182.5,-126.71 182.5,-118.11"/>
<polygon fill="black" stroke="black" points="186,-118.1 182.5,-108.1 179,-118.1 186,-118.1"/>
</g>
<!-- ast.Name object at 0x731ce0f71350 -->
<g id="node10" class="node">
<title>ast.Name object at 0x731ce0f71350</title>
<path fill="#66cdaa" stroke="black" d="M125.5,-108C125.5,-108 95.5,-108 95.5,-108 89.5,-108 83.5,-102 83.5,-96 83.5,-96 83.5,-84 83.5,-84 83.5,-78 89.5,-72 95.5,-72 95.5,-72 125.5,-72 125.5,-72 131.5,-72 137.5,-78 137.5,-84 137.5,-84 137.5,-96 137.5,-96 137.5,-102 131.5,-108 125.5,-108"/>
<text text-anchor="middle" x="110.5" y="-86.3" font-family="Times,serif" font-size="14.00">Name</text>
</g>
<!-- ast.Call object at 0x731ce0f72890&#45;&gt;ast.Name object at 0x731ce0f71350 -->
<g id="edge9" class="edge">
<title>ast.Call object at 0x731ce0f72890&#45;&gt;ast.Name object at 0x731ce0f71350</title>
<path fill="none" stroke="black" d="M164.7,-143.7C155.9,-135.14 145.12,-124.66 135.5,-115.3"/>
<polygon fill="black" stroke="black" points="137.7,-112.57 128.09,-108.1 132.82,-117.58 137.7,-112.57"/>
</g>
<!-- ast.Load object at 0x731df7a5ab10 -->
<g id="node9" class="node">
<title>ast.Load object at 0x731df7a5ab10</title>
<path fill="#66cdaa" stroke="black" d="M789.5,-36C789.5,-36 759.5,-36 759.5,-36 753.5,-36 747.5,-30 747.5,-24 747.5,-24 747.5,-12 747.5,-12 747.5,-6 753.5,0 759.5,0 759.5,0 789.5,0 789.5,0 795.5,0 801.5,-6 801.5,-12 801.5,-12 801.5,-24 801.5,-24 801.5,-30 795.5,-36 789.5,-36"/>
<text text-anchor="middle" x="774.5" y="-14.3" font-family="Times,serif" font-size="14.00">Load</text>
</g>
<!-- ast.Name object at 0x731ce0f73d90&#45;&gt;ast.Load object at 0x731df7a5ab10 -->
<g id="edge8" class="edge">
<title>ast.Name object at 0x731ce0f73d90&#45;&gt;ast.Load object at 0x731df7a5ab10</title>
<path fill="none" stroke="black" d="M209.64,-74.99C212.58,-73.84 215.57,-72.81 218.5,-72 408.27,-19.86 646.62,-17.08 737.23,-18.17"/>
<polygon fill="black" stroke="black" points="737.24,-21.67 747.29,-18.31 737.34,-14.67 737.24,-21.67"/>
</g>
<!-- ast.Name object at 0x731ce0f71350&#45;&gt;ast.Load object at 0x731df7a5ab10 -->
<g id="edge10" class="edge">
<title>ast.Name object at 0x731ce0f71350&#45;&gt;ast.Load object at 0x731df7a5ab10</title>
<path fill="none" stroke="black" d="M137.63,-74.96C140.57,-73.81 143.56,-72.79 146.5,-72 259.08,-41.73 619.38,-25.13 736.98,-20.42"/>
<polygon fill="black" stroke="black" points="737.42,-23.9 747.27,-20.01 737.14,-16.91 737.42,-23.9"/>
</g>
<!-- ast.Call object at 0x731ce0f73f90 -->
<g id="node14" class="node">
<title>ast.Call object at 0x731ce0f73f90</title>
<path fill="#66cdaa" stroke="black" d="M293.5,-180C293.5,-180 263.5,-180 263.5,-180 257.5,-180 251.5,-174 251.5,-168 251.5,-168 251.5,-156 251.5,-156 251.5,-150 257.5,-144 263.5,-144 263.5,-144 293.5,-144 293.5,-144 299.5,-144 305.5,-150 305.5,-156 305.5,-156 305.5,-168 305.5,-168 305.5,-174 299.5,-180 293.5,-180"/>
<text text-anchor="middle" x="278.5" y="-158.3" font-family="Times,serif" font-size="14.00">Call</text>
</g>
<!-- ast.Raise object at 0x731ce0f70610&#45;&gt;ast.Call object at 0x731ce0f73f90 -->
<g id="edge14" class="edge">
<title>ast.Raise object at 0x731ce0f70610&#45;&gt;ast.Call object at 0x731ce0f73f90</title>
<path fill="none" stroke="black" d="M278.5,-215.7C278.5,-207.98 278.5,-198.71 278.5,-190.11"/>
<polygon fill="black" stroke="black" points="282,-190.1 278.5,-180.1 275,-190.1 282,-190.1"/>
</g>
<!-- ast.Name object at 0x731ce0f72fd0 -->
<g id="node15" class="node">
<title>ast.Name object at 0x731ce0f72fd0</title>
<path fill="#66cdaa" stroke="black" d="M353.5,-108C353.5,-108 323.5,-108 323.5,-108 317.5,-108 311.5,-102 311.5,-96 311.5,-96 311.5,-84 311.5,-84 311.5,-78 317.5,-72 323.5,-72 323.5,-72 353.5,-72 353.5,-72 359.5,-72 365.5,-78 365.5,-84 365.5,-84 365.5,-96 365.5,-96 365.5,-102 359.5,-108 353.5,-108"/>
<text text-anchor="middle" x="338.5" y="-86.3" font-family="Times,serif" font-size="14.00">Name</text>
</g>
<!-- ast.Call object at 0x731ce0f73f90&#45;&gt;ast.Name object at 0x731ce0f72fd0 -->
<g id="edge15" class="edge">
<title>ast.Call object at 0x731ce0f73f90&#45;&gt;ast.Name object at 0x731ce0f72fd0</title>
<path fill="none" stroke="black" d="M293.33,-143.7C300.52,-135.3 309.3,-125.07 317.19,-115.86"/>
<polygon fill="black" stroke="black" points="319.99,-117.97 323.84,-108.1 314.67,-113.42 319.99,-117.97"/>
</g>
<!-- ast.Constant object at 0x731ce0f70b10 -->
<g id="node16" class="node">
<title>ast.Constant object at 0x731ce0f70b10</title>
<path fill="#66cdaa" stroke="black" d="M281,-108C281,-108 240,-108 240,-108 234,-108 228,-102 228,-96 228,-96 228,-84 228,-84 228,-78 234,-72 240,-72 240,-72 281,-72 281,-72 287,-72 293,-78 293,-84 293,-84 293,-96 293,-96 293,-102 287,-108 281,-108"/>
<text text-anchor="middle" x="260.5" y="-86.3" font-family="Times,serif" font-size="14.00">Constant</text>
</g>
<!-- ast.Call object at 0x731ce0f73f90&#45;&gt;ast.Constant object at 0x731ce0f70b10 -->
<g id="edge17" class="edge">
<title>ast.Call object at 0x731ce0f73f90&#45;&gt;ast.Constant object at 0x731ce0f70b10</title>
<path fill="none" stroke="black" d="M274.05,-143.7C272.05,-135.9 269.63,-126.51 267.4,-117.83"/>
<polygon fill="black" stroke="black" points="270.78,-116.92 264.9,-108.1 264,-118.66 270.78,-116.92"/>
</g>
<!-- ast.Name object at 0x731ce0f72fd0&#45;&gt;ast.Load object at 0x731df7a5ab10 -->
<g id="edge16" class="edge">
<title>ast.Name object at 0x731ce0f72fd0&#45;&gt;ast.Load object at 0x731df7a5ab10</title>
<path fill="none" stroke="black" d="M365.5,-76.65C370.1,-74.88 374.89,-73.24 379.5,-72 507.86,-37.41 666.05,-24.89 736.98,-20.79"/>
<polygon fill="black" stroke="black" points="737.41,-24.27 747.2,-20.23 737.02,-17.28 737.41,-24.27"/>
</g>
<!-- ast.UnaryOp object at 0x731ce0f718d0 -->
<g id="node18" class="node">
<title>ast.UnaryOp object at 0x731ce0f718d0</title>
<path fill="#66cdaa" stroke="black" d="M841,-612C841,-612 798,-612 798,-612 792,-612 786,-606 786,-600 786,-600 786,-588 786,-588 786,-582 792,-576 798,-576 798,-576 841,-576 841,-576 847,-576 853,-582 853,-588 853,-588 853,-600 853,-600 853,-606 847,-612 841,-612"/>
<text text-anchor="middle" x="819.5" y="-590.3" font-family="Times,serif" font-size="14.00">UnaryOp</text>
</g>
<!-- ast.If object at 0x731cf6065e90&#45;&gt;ast.UnaryOp object at 0x731ce0f718d0 -->
<g id="edge19" class="edge">
<title>ast.If object at 0x731cf6065e90&#45;&gt;ast.UnaryOp object at 0x731ce0f718d0</title>
<path fill="none" stroke="black" d="M848.86,-647.7C844.37,-639.64 838.94,-629.89 833.98,-620.98"/>
<polygon fill="black" stroke="black" points="836.95,-619.14 829.03,-612.1 830.84,-622.54 836.95,-619.14"/>
</g>
<!-- ast.Raise object at 0x731ce96262d0 -->
<g id="node43" class="node">
<title>ast.Raise object at 0x731ce96262d0</title>
<path fill="#66cdaa" stroke="black" d="M913.5,-612C913.5,-612 883.5,-612 883.5,-612 877.5,-612 871.5,-606 871.5,-600 871.5,-600 871.5,-588 871.5,-588 871.5,-582 877.5,-576 883.5,-576 883.5,-576 913.5,-576 913.5,-576 919.5,-576 925.5,-582 925.5,-588 925.5,-588 925.5,-600 925.5,-600 925.5,-606 919.5,-612 913.5,-612"/>
<text text-anchor="middle" x="898.5" y="-590.3" font-family="Times,serif" font-size="14.00">Raise</text>
</g>
<!-- ast.If object at 0x731cf6065e90&#45;&gt;ast.Raise object at 0x731ce96262d0 -->
<g id="edge55" class="edge">
<title>ast.If object at 0x731cf6065e90&#45;&gt;ast.Raise object at 0x731ce96262d0</title>
<path fill="none" stroke="black" d="M868.39,-647.7C872.99,-639.64 878.56,-629.89 883.65,-620.98"/>
<polygon fill="black" stroke="black" points="886.8,-622.52 888.73,-612.1 880.73,-619.05 886.8,-622.52"/>
</g>
<!-- ast.Not object at 0x731df7a5b890 -->
<g id="node19" class="node">
<title>ast.Not object at 0x731df7a5b890</title>
<path fill="#66cdaa" stroke="black" d="M837.5,-540C837.5,-540 807.5,-540 807.5,-540 801.5,-540 795.5,-534 795.5,-528 795.5,-528 795.5,-516 795.5,-516 795.5,-510 801.5,-504 807.5,-504 807.5,-504 837.5,-504 837.5,-504 843.5,-504 849.5,-510 849.5,-516 849.5,-516 849.5,-528 849.5,-528 849.5,-534 843.5,-540 837.5,-540"/>
<text text-anchor="middle" x="822.5" y="-518.3" font-family="Times,serif" font-size="14.00">Not</text>
</g>
<!-- ast.UnaryOp object at 0x731ce0f718d0&#45;&gt;ast.Not object at 0x731df7a5b890 -->
<g id="edge20" class="edge">
<title>ast.UnaryOp object at 0x731ce0f718d0&#45;&gt;ast.Not object at 0x731df7a5b890</title>
<path fill="none" stroke="black" d="M820.24,-575.7C820.57,-567.98 820.97,-558.71 821.34,-550.11"/>
<polygon fill="black" stroke="black" points="824.84,-550.25 821.77,-540.1 817.84,-549.95 824.84,-550.25"/>
</g>
<!-- ast.Call object at 0x731ce0f72710 -->
<g id="node20" class="node">
<title>ast.Call object at 0x731ce0f72710</title>
<path fill="#66cdaa" stroke="black" d="M765.5,-540C765.5,-540 735.5,-540 735.5,-540 729.5,-540 723.5,-534 723.5,-528 723.5,-528 723.5,-516 723.5,-516 723.5,-510 729.5,-504 735.5,-504 735.5,-504 765.5,-504 765.5,-504 771.5,-504 777.5,-510 777.5,-516 777.5,-516 777.5,-528 777.5,-528 777.5,-534 771.5,-540 765.5,-540"/>
<text text-anchor="middle" x="750.5" y="-518.3" font-family="Times,serif" font-size="14.00">Call</text>
</g>
<!-- ast.UnaryOp object at 0x731ce0f718d0&#45;&gt;ast.Call object at 0x731ce0f72710 -->
<g id="edge21" class="edge">
<title>ast.UnaryOp object at 0x731ce0f718d0&#45;&gt;ast.Call object at 0x731ce0f72710</title>
<path fill="none" stroke="black" d="M802.44,-575.7C794,-567.14 783.68,-556.66 774.46,-547.3"/>
<polygon fill="black" stroke="black" points="776.87,-544.77 767.36,-540.1 771.89,-549.68 776.87,-544.77"/>
</g>
<!-- ast.Name object at 0x731ce0f72e50 -->
<g id="node21" class="node">
<title>ast.Name object at 0x731ce0f72e50</title>
<path fill="#66cdaa" stroke="black" d="M694.5,-396C694.5,-396 664.5,-396 664.5,-396 658.5,-396 652.5,-390 652.5,-384 652.5,-384 652.5,-372 652.5,-372 652.5,-366 658.5,-360 664.5,-360 664.5,-360 694.5,-360 694.5,-360 700.5,-360 706.5,-366 706.5,-372 706.5,-372 706.5,-384 706.5,-384 706.5,-390 700.5,-396 694.5,-396"/>
<text text-anchor="middle" x="679.5" y="-374.3" font-family="Times,serif" font-size="14.00">Name</text>
</g>
<!-- ast.Call object at 0x731ce0f72710&#45;&gt;ast.Name object at 0x731ce0f72e50 -->
<g id="edge22" class="edge">
<title>ast.Call object at 0x731ce0f72710&#45;&gt;ast.Name object at 0x731ce0f72e50</title>
<path fill="none" stroke="black" d="M729.28,-503.91C718.81,-494.4 706.88,-481.72 699.5,-468 689.15,-448.76 684.15,-424.42 681.73,-406.06"/>
<polygon fill="black" stroke="black" points="685.2,-405.56 680.59,-396.02 678.25,-406.35 685.2,-405.56"/>
</g>
<!-- ast.GeneratorExp object at 0x731ce0f73bd0 -->
<g id="node22" class="node">
<title>ast.GeneratorExp object at 0x731ce0f73bd0</title>
<path fill="#66cdaa" stroke="black" d="M788.5,-468C788.5,-468 720.5,-468 720.5,-468 714.5,-468 708.5,-462 708.5,-456 708.5,-456 708.5,-444 708.5,-444 708.5,-438 714.5,-432 720.5,-432 720.5,-432 788.5,-432 788.5,-432 794.5,-432 800.5,-438 800.5,-444 800.5,-444 800.5,-456 800.5,-456 800.5,-462 794.5,-468 788.5,-468"/>
<text text-anchor="middle" x="754.5" y="-446.3" font-family="Times,serif" font-size="14.00">GeneratorExp</text>
</g>
<!-- ast.Call object at 0x731ce0f72710&#45;&gt;ast.GeneratorExp object at 0x731ce0f73bd0 -->
<g id="edge24" class="edge">
<title>ast.Call object at 0x731ce0f72710&#45;&gt;ast.GeneratorExp object at 0x731ce0f73bd0</title>
<path fill="none" stroke="black" d="M751.49,-503.7C751.93,-495.98 752.46,-486.71 752.95,-478.11"/>
<polygon fill="black" stroke="black" points="756.45,-478.29 753.52,-468.1 749.46,-477.89 756.45,-478.29"/>
</g>
<!-- ast.Name object at 0x731ce0f72e50&#45;&gt;ast.Load object at 0x731df7a5ab10 -->
<g id="edge23" class="edge">
<title>ast.Name object at 0x731ce0f72e50&#45;&gt;ast.Load object at 0x731df7a5ab10</title>
<path fill="none" stroke="black" d="M652.34,-365.08C580.95,-333.54 393.5,-249.36 393.5,-235 393.5,-235 393.5,-235 393.5,-161 393.5,-120.55 382.99,-99.66 412.5,-72 458.9,-28.52 654.16,-20.63 737.04,-19.26"/>
<polygon fill="black" stroke="black" points="737.32,-22.76 747.27,-19.11 737.22,-15.76 737.32,-22.76"/>
</g>
<!-- ast.BoolOp object at 0x731ce0f70a90 -->
<g id="node23" class="node">
<title>ast.BoolOp object at 0x731ce0f70a90</title>
<path fill="#66cdaa" stroke="black" d="M772,-396C772,-396 737,-396 737,-396 731,-396 725,-390 725,-384 725,-384 725,-372 725,-372 725,-366 731,-360 737,-360 737,-360 772,-360 772,-360 778,-360 784,-366 784,-372 784,-372 784,-384 784,-384 784,-390 778,-396 772,-396"/>
<text text-anchor="middle" x="754.5" y="-374.3" font-family="Times,serif" font-size="14.00">BoolOp</text>
</g>
<!-- ast.GeneratorExp object at 0x731ce0f73bd0&#45;&gt;ast.BoolOp object at 0x731ce0f70a90 -->
<g id="edge25" class="edge">
<title>ast.GeneratorExp object at 0x731ce0f73bd0&#45;&gt;ast.BoolOp object at 0x731ce0f70a90</title>
<path fill="none" stroke="black" d="M754.5,-431.7C754.5,-423.98 754.5,-414.71 754.5,-406.11"/>
<polygon fill="black" stroke="black" points="758,-406.1 754.5,-396.1 751,-406.1 758,-406.1"/>
</g>
<!-- ast.comprehension object at 0x731ce9a6b290 -->
<g id="node40" class="node">
<title>ast.comprehension object at 0x731ce9a6b290</title>
<path fill="#66cdaa" stroke="black" d="M1089.5,-180C1089.5,-180 1013.5,-180 1013.5,-180 1007.5,-180 1001.5,-174 1001.5,-168 1001.5,-168 1001.5,-156 1001.5,-156 1001.5,-150 1007.5,-144 1013.5,-144 1013.5,-144 1089.5,-144 1089.5,-144 1095.5,-144 1101.5,-150 1101.5,-156 1101.5,-156 1101.5,-168 1101.5,-168 1101.5,-174 1095.5,-180 1089.5,-180"/>
<text text-anchor="middle" x="1051.5" y="-158.3" font-family="Times,serif" font-size="14.00">comprehension</text>
</g>
<!-- ast.GeneratorExp object at 0x731ce0f73bd0&#45;&gt;ast.comprehension object at 0x731ce9a6b290 -->
<g id="edge50" class="edge">
<title>ast.GeneratorExp object at 0x731ce0f73bd0&#45;&gt;ast.comprehension object at 0x731ce9a6b290</title>
<path fill="none" stroke="black" d="M778.31,-431.97C822.42,-399.77 918.64,-326.49 987.5,-252 1005.82,-232.18 1023.48,-207.02 1035.59,-188.5"/>
<polygon fill="black" stroke="black" points="1038.59,-190.3 1041.07,-180 1032.71,-186.51 1038.59,-190.3"/>
</g>
<!-- ast.And object at 0x731df7a5add0 -->
<g id="node24" class="node">
<title>ast.And object at 0x731df7a5add0</title>
<path fill="#66cdaa" stroke="black" d="M704.5,-324C704.5,-324 674.5,-324 674.5,-324 668.5,-324 662.5,-318 662.5,-312 662.5,-312 662.5,-300 662.5,-300 662.5,-294 668.5,-288 674.5,-288 674.5,-288 704.5,-288 704.5,-288 710.5,-288 716.5,-294 716.5,-300 716.5,-300 716.5,-312 716.5,-312 716.5,-318 710.5,-324 704.5,-324"/>
<text text-anchor="middle" x="689.5" y="-302.3" font-family="Times,serif" font-size="14.00">And</text>
</g>
<!-- ast.BoolOp object at 0x731ce0f70a90&#45;&gt;ast.And object at 0x731df7a5add0 -->
<g id="edge26" class="edge">
<title>ast.BoolOp object at 0x731ce0f70a90&#45;&gt;ast.And object at 0x731df7a5add0</title>
<path fill="none" stroke="black" d="M738.43,-359.7C730.56,-351.22 720.94,-340.86 712.33,-331.58"/>
<polygon fill="black" stroke="black" points="714.75,-329.05 705.38,-324.1 709.62,-333.81 714.75,-329.05"/>
</g>
<!-- ast.Call object at 0x731ce0f72ed0 -->
<g id="node25" class="node">
<title>ast.Call object at 0x731ce0f72ed0</title>
<path fill="#66cdaa" stroke="black" d="M557.5,-180C557.5,-180 527.5,-180 527.5,-180 521.5,-180 515.5,-174 515.5,-168 515.5,-168 515.5,-156 515.5,-156 515.5,-150 521.5,-144 527.5,-144 527.5,-144 557.5,-144 557.5,-144 563.5,-144 569.5,-150 569.5,-156 569.5,-156 569.5,-168 569.5,-168 569.5,-174 563.5,-180 557.5,-180"/>
<text text-anchor="middle" x="542.5" y="-158.3" font-family="Times,serif" font-size="14.00">Call</text>
</g>
<!-- ast.BoolOp object at 0x731ce0f70a90&#45;&gt;ast.Call object at 0x731ce0f72ed0 -->
<g id="edge27" class="edge">
<title>ast.BoolOp object at 0x731ce0f70a90&#45;&gt;ast.Call object at 0x731ce0f72ed0</title>
<path fill="none" stroke="black" d="M724.61,-363.28C699.14,-351.24 664.91,-334.11 653.5,-324 608.91,-284.48 573.29,-223.48 555.3,-189.02"/>
<polygon fill="black" stroke="black" points="558.37,-187.35 550.7,-180.05 552.14,-190.54 558.37,-187.35"/>
</g>
<!-- ast.Call object at 0x731ce9944850 -->
<g id="node29" class="node">
<title>ast.Call object at 0x731ce9944850</title>
<path fill="#66cdaa" stroke="black" d="M776.5,-324C776.5,-324 746.5,-324 746.5,-324 740.5,-324 734.5,-318 734.5,-312 734.5,-312 734.5,-300 734.5,-300 734.5,-294 740.5,-288 746.5,-288 746.5,-288 776.5,-288 776.5,-288 782.5,-288 788.5,-294 788.5,-300 788.5,-300 788.5,-312 788.5,-312 788.5,-318 782.5,-324 776.5,-324"/>
<text text-anchor="middle" x="761.5" y="-302.3" font-family="Times,serif" font-size="14.00">Call</text>
</g>
<!-- ast.BoolOp object at 0x731ce0f70a90&#45;&gt;ast.Call object at 0x731ce9944850 -->
<g id="edge34" class="edge">
<title>ast.BoolOp object at 0x731ce0f70a90&#45;&gt;ast.Call object at 0x731ce9944850</title>
<path fill="none" stroke="black" d="M756.23,-359.7C757,-351.98 757.93,-342.71 758.79,-334.11"/>
<polygon fill="black" stroke="black" points="762.28,-334.4 759.79,-324.1 755.31,-333.71 762.28,-334.4"/>
</g>
<!-- ast.Name object at 0x731ce7e4a9d0 -->
<g id="node26" class="node">
<title>ast.Name object at 0x731ce7e4a9d0</title>
<path fill="#66cdaa" stroke="black" d="M535.5,-108C535.5,-108 505.5,-108 505.5,-108 499.5,-108 493.5,-102 493.5,-96 493.5,-96 493.5,-84 493.5,-84 493.5,-78 499.5,-72 505.5,-72 505.5,-72 535.5,-72 535.5,-72 541.5,-72 547.5,-78 547.5,-84 547.5,-84 547.5,-96 547.5,-96 547.5,-102 541.5,-108 535.5,-108"/>
<text text-anchor="middle" x="520.5" y="-86.3" font-family="Times,serif" font-size="14.00">Name</text>
</g>
<!-- ast.Call object at 0x731ce0f72ed0&#45;&gt;ast.Name object at 0x731ce7e4a9d0 -->
<g id="edge28" class="edge">
<title>ast.Call object at 0x731ce0f72ed0&#45;&gt;ast.Name object at 0x731ce7e4a9d0</title>
<path fill="none" stroke="black" d="M537.06,-143.7C534.61,-135.9 531.66,-126.51 528.93,-117.83"/>
<polygon fill="black" stroke="black" points="532.21,-116.59 525.88,-108.1 525.54,-118.69 532.21,-116.59"/>
</g>
<!-- ast.Name object at 0x731ce7e4a790 -->
<g id="node27" class="node">
<title>ast.Name object at 0x731ce7e4a790</title>
<path fill="#66cdaa" stroke="black" d="M607.5,-108C607.5,-108 577.5,-108 577.5,-108 571.5,-108 565.5,-102 565.5,-96 565.5,-96 565.5,-84 565.5,-84 565.5,-78 571.5,-72 577.5,-72 577.5,-72 607.5,-72 607.5,-72 613.5,-72 619.5,-78 619.5,-84 619.5,-84 619.5,-96 619.5,-96 619.5,-102 613.5,-108 607.5,-108"/>
<text text-anchor="middle" x="592.5" y="-86.3" font-family="Times,serif" font-size="14.00">Name</text>
</g>
<!-- ast.Call object at 0x731ce0f72ed0&#45;&gt;ast.Name object at 0x731ce7e4a790 -->
<g id="edge30" class="edge">
<title>ast.Call object at 0x731ce0f72ed0&#45;&gt;ast.Name object at 0x731ce7e4a790</title>
<path fill="none" stroke="black" d="M554.86,-143.7C560.73,-135.47 567.87,-125.48 574.34,-116.42"/>
<polygon fill="black" stroke="black" points="577.32,-118.28 580.28,-108.1 571.62,-114.21 577.32,-118.28"/>
</g>
<!-- ast.Name object at 0x731ce9945050 -->
<g id="node28" class="node">
<title>ast.Name object at 0x731ce9945050</title>
<path fill="#66cdaa" stroke="black" d="M463.5,-108C463.5,-108 433.5,-108 433.5,-108 427.5,-108 421.5,-102 421.5,-96 421.5,-96 421.5,-84 421.5,-84 421.5,-78 427.5,-72 433.5,-72 433.5,-72 463.5,-72 463.5,-72 469.5,-72 475.5,-78 475.5,-84 475.5,-84 475.5,-96 475.5,-96 475.5,-102 469.5,-108 463.5,-108"/>
<text text-anchor="middle" x="448.5" y="-86.3" font-family="Times,serif" font-size="14.00">Name</text>
</g>
<!-- ast.Call object at 0x731ce0f72ed0&#45;&gt;ast.Name object at 0x731ce9945050 -->
<g id="edge32" class="edge">
<title>ast.Call object at 0x731ce0f72ed0&#45;&gt;ast.Name object at 0x731ce9945050</title>
<path fill="none" stroke="black" d="M519.26,-143.7C507.31,-134.8 492.58,-123.82 479.65,-114.2"/>
<polygon fill="black" stroke="black" points="481.58,-111.27 471.47,-108.1 477.4,-116.88 481.58,-111.27"/>
</g>
<!-- ast.Name object at 0x731ce7e4a9d0&#45;&gt;ast.Load object at 0x731df7a5ab10 -->
<g id="edge29" class="edge">
<title>ast.Name object at 0x731ce7e4a9d0&#45;&gt;ast.Load object at 0x731df7a5ab10</title>
<path fill="none" stroke="black" d="M547.78,-75.42C550.69,-74.18 553.63,-73.01 556.5,-72 618.54,-50.06 693.65,-34 737.55,-25.61"/>
<polygon fill="black" stroke="black" points="738.3,-29.03 747.48,-23.74 737.01,-22.15 738.3,-29.03"/>
</g>
<!-- ast.Name object at 0x731ce7e4a790&#45;&gt;ast.Load object at 0x731df7a5ab10 -->
<g id="edge31" class="edge">
<title>ast.Name object at 0x731ce7e4a790&#45;&gt;ast.Load object at 0x731df7a5ab10</title>
<path fill="none" stroke="black" d="M619.8,-77.53C624.36,-75.66 629.06,-73.76 633.5,-72 668.75,-58.07 709.27,-42.93 737.8,-32.41"/>
<polygon fill="black" stroke="black" points="739.19,-35.63 747.37,-28.89 736.77,-29.06 739.19,-35.63"/>
</g>
<!-- ast.Name object at 0x731ce9945050&#45;&gt;ast.Load object at 0x731df7a5ab10 -->
<g id="edge33" class="edge">
<title>ast.Name object at 0x731ce9945050&#45;&gt;ast.Load object at 0x731df7a5ab10</title>
<path fill="none" stroke="black" d="M475.72,-75.25C478.64,-74.04 481.6,-72.93 484.5,-72 572.62,-43.68 680.96,-28.92 736.98,-22.7"/>
<polygon fill="black" stroke="black" points="737.57,-26.16 747.14,-21.6 736.82,-19.2 737.57,-26.16"/>
</g>
<!-- ast.Name object at 0x731ce99454d0 -->
<g id="node30" class="node">
<title>ast.Name object at 0x731ce99454d0</title>
<path fill="#66cdaa" stroke="black" d="M680.5,-252C680.5,-252 650.5,-252 650.5,-252 644.5,-252 638.5,-246 638.5,-240 638.5,-240 638.5,-228 638.5,-228 638.5,-222 644.5,-216 650.5,-216 650.5,-216 680.5,-216 680.5,-216 686.5,-216 692.5,-222 692.5,-228 692.5,-228 692.5,-240 692.5,-240 692.5,-246 686.5,-252 680.5,-252"/>
<text text-anchor="middle" x="665.5" y="-230.3" font-family="Times,serif" font-size="14.00">Name</text>
</g>
<!-- ast.Call object at 0x731ce9944850&#45;&gt;ast.Name object at 0x731ce99454d0 -->
<g id="edge35" class="edge">
<title>ast.Call object at 0x731ce9944850&#45;&gt;ast.Name object at 0x731ce99454d0</title>
<path fill="none" stroke="black" d="M737.77,-287.7C725.56,-278.8 710.51,-267.82 697.32,-258.2"/>
<polygon fill="black" stroke="black" points="699.1,-255.17 688.96,-252.1 694.98,-260.82 699.1,-255.17"/>
</g>
<!-- ast.GeneratorExp object at 0x731ce9944cd0 -->
<g id="node31" class="node">
<title>ast.GeneratorExp object at 0x731ce9944cd0</title>
<path fill="#66cdaa" stroke="black" d="M808.5,-252C808.5,-252 740.5,-252 740.5,-252 734.5,-252 728.5,-246 728.5,-240 728.5,-240 728.5,-228 728.5,-228 728.5,-222 734.5,-216 740.5,-216 740.5,-216 808.5,-216 808.5,-216 814.5,-216 820.5,-222 820.5,-228 820.5,-228 820.5,-240 820.5,-240 820.5,-246 814.5,-252 808.5,-252"/>
<text text-anchor="middle" x="774.5" y="-230.3" font-family="Times,serif" font-size="14.00">GeneratorExp</text>
</g>
<!-- ast.Call object at 0x731ce9944850&#45;&gt;ast.GeneratorExp object at 0x731ce9944cd0 -->
<g id="edge37" class="edge">
<title>ast.Call object at 0x731ce9944850&#45;&gt;ast.GeneratorExp object at 0x731ce9944cd0</title>
<path fill="none" stroke="black" d="M764.71,-287.7C766.15,-279.98 767.87,-270.71 769.46,-262.11"/>
<polygon fill="black" stroke="black" points="772.94,-262.58 771.32,-252.1 766.06,-261.3 772.94,-262.58"/>
</g>
<!-- ast.Name object at 0x731ce99454d0&#45;&gt;ast.Load object at 0x731df7a5ab10 -->
<g id="edge36" class="edge">
<title>ast.Name object at 0x731ce99454d0&#45;&gt;ast.Load object at 0x731df7a5ab10</title>
<path fill="none" stroke="black" d="M660.17,-215.88C651.53,-184.59 638.12,-117.22 666.5,-72 682.01,-47.28 712.77,-33.75 737.51,-26.57"/>
<polygon fill="black" stroke="black" points="738.58,-29.91 747.34,-23.95 736.77,-23.14 738.58,-29.91"/>
</g>
<!-- ast.Call object at 0x731ce9944390 -->
<g id="node32" class="node">
<title>ast.Call object at 0x731ce9944390</title>
<path fill="#66cdaa" stroke="black" d="M789.5,-180C789.5,-180 759.5,-180 759.5,-180 753.5,-180 747.5,-174 747.5,-168 747.5,-168 747.5,-156 747.5,-156 747.5,-150 753.5,-144 759.5,-144 759.5,-144 789.5,-144 789.5,-144 795.5,-144 801.5,-150 801.5,-156 801.5,-156 801.5,-168 801.5,-168 801.5,-174 795.5,-180 789.5,-180"/>
<text text-anchor="middle" x="774.5" y="-158.3" font-family="Times,serif" font-size="14.00">Call</text>
</g>
<!-- ast.GeneratorExp object at 0x731ce9944cd0&#45;&gt;ast.Call object at 0x731ce9944390 -->
<g id="edge38" class="edge">
<title>ast.GeneratorExp object at 0x731ce9944cd0&#45;&gt;ast.Call object at 0x731ce9944390</title>
<path fill="none" stroke="black" d="M774.5,-215.7C774.5,-207.98 774.5,-198.71 774.5,-190.11"/>
<polygon fill="black" stroke="black" points="778,-190.1 774.5,-180.1 771,-190.1 778,-190.1"/>
</g>
<!-- ast.comprehension object at 0x731ce9947390 -->
<g id="node36" class="node">
<title>ast.comprehension object at 0x731ce9947390</title>
<path fill="#66cdaa" stroke="black" d="M933.5,-180C933.5,-180 857.5,-180 857.5,-180 851.5,-180 845.5,-174 845.5,-168 845.5,-168 845.5,-156 845.5,-156 845.5,-150 851.5,-144 857.5,-144 857.5,-144 933.5,-144 933.5,-144 939.5,-144 945.5,-150 945.5,-156 945.5,-156 945.5,-168 945.5,-168 945.5,-174 939.5,-180 933.5,-180"/>
<text text-anchor="middle" x="895.5" y="-158.3" font-family="Times,serif" font-size="14.00">comprehension</text>
</g>
<!-- ast.GeneratorExp object at 0x731ce9944cd0&#45;&gt;ast.comprehension object at 0x731ce9947390 -->
<g id="edge45" class="edge">
<title>ast.GeneratorExp object at 0x731ce9944cd0&#45;&gt;ast.comprehension object at 0x731ce9947390</title>
<path fill="none" stroke="black" d="M804.1,-215.88C820.07,-206.64 839.96,-195.13 857.11,-185.21"/>
<polygon fill="black" stroke="black" points="858.88,-188.23 865.79,-180.19 855.38,-182.17 858.88,-188.23"/>
</g>
<!-- ast.Name object at 0x731ce99459d0 -->
<g id="node33" class="node">
<title>ast.Name object at 0x731ce99459d0</title>
<path fill="#66cdaa" stroke="black" d="M861.5,-108C861.5,-108 831.5,-108 831.5,-108 825.5,-108 819.5,-102 819.5,-96 819.5,-96 819.5,-84 819.5,-84 819.5,-78 825.5,-72 831.5,-72 831.5,-72 861.5,-72 861.5,-72 867.5,-72 873.5,-78 873.5,-84 873.5,-84 873.5,-96 873.5,-96 873.5,-102 867.5,-108 861.5,-108"/>
<text text-anchor="middle" x="846.5" y="-86.3" font-family="Times,serif" font-size="14.00">Name</text>
</g>
<!-- ast.Call object at 0x731ce9944390&#45;&gt;ast.Name object at 0x731ce99459d0 -->
<g id="edge39" class="edge">
<title>ast.Call object at 0x731ce9944390&#45;&gt;ast.Name object at 0x731ce99459d0</title>
<path fill="none" stroke="black" d="M792.3,-143.7C801.1,-135.14 811.88,-124.66 821.5,-115.3"/>
<polygon fill="black" stroke="black" points="824.18,-117.58 828.91,-108.1 819.3,-112.57 824.18,-117.58"/>
</g>
<!-- ast.Name object at 0x731ce9945550 -->
<g id="node34" class="node">
<title>ast.Name object at 0x731ce9945550</title>
<path fill="#66cdaa" stroke="black" d="M717.5,-108C717.5,-108 687.5,-108 687.5,-108 681.5,-108 675.5,-102 675.5,-96 675.5,-96 675.5,-84 675.5,-84 675.5,-78 681.5,-72 687.5,-72 687.5,-72 717.5,-72 717.5,-72 723.5,-72 729.5,-78 729.5,-84 729.5,-84 729.5,-96 729.5,-96 729.5,-102 723.5,-108 717.5,-108"/>
<text text-anchor="middle" x="702.5" y="-86.3" font-family="Times,serif" font-size="14.00">Name</text>
</g>
<!-- ast.Call object at 0x731ce9944390&#45;&gt;ast.Name object at 0x731ce9945550 -->
<g id="edge41" class="edge">
<title>ast.Call object at 0x731ce9944390&#45;&gt;ast.Name object at 0x731ce9945550</title>
<path fill="none" stroke="black" d="M756.7,-143.7C747.9,-135.14 737.12,-124.66 727.5,-115.3"/>
<polygon fill="black" stroke="black" points="729.7,-112.57 720.09,-108.1 724.82,-117.58 729.7,-112.57"/>
</g>
<!-- ast.Name object at 0x731ce9944750 -->
<g id="node35" class="node">
<title>ast.Name object at 0x731ce9944750</title>
<path fill="#66cdaa" stroke="black" d="M789.5,-108C789.5,-108 759.5,-108 759.5,-108 753.5,-108 747.5,-102 747.5,-96 747.5,-96 747.5,-84 747.5,-84 747.5,-78 753.5,-72 759.5,-72 759.5,-72 789.5,-72 789.5,-72 795.5,-72 801.5,-78 801.5,-84 801.5,-84 801.5,-96 801.5,-96 801.5,-102 795.5,-108 789.5,-108"/>
<text text-anchor="middle" x="774.5" y="-86.3" font-family="Times,serif" font-size="14.00">Name</text>
</g>
<!-- ast.Call object at 0x731ce9944390&#45;&gt;ast.Name object at 0x731ce9944750 -->
<g id="edge43" class="edge">
<title>ast.Call object at 0x731ce9944390&#45;&gt;ast.Name object at 0x731ce9944750</title>
<path fill="none" stroke="black" d="M774.5,-143.7C774.5,-135.98 774.5,-126.71 774.5,-118.11"/>
<polygon fill="black" stroke="black" points="778,-118.1 774.5,-108.1 771,-118.1 778,-118.1"/>
</g>
<!-- ast.Name object at 0x731ce99459d0&#45;&gt;ast.Load object at 0x731df7a5ab10 -->
<g id="edge40" class="edge">
<title>ast.Name object at 0x731ce99459d0&#45;&gt;ast.Load object at 0x731df7a5ab10</title>
<path fill="none" stroke="black" d="M828.7,-71.7C819.9,-63.14 809.12,-52.66 799.5,-43.3"/>
<polygon fill="black" stroke="black" points="801.7,-40.57 792.09,-36.1 796.82,-45.58 801.7,-40.57"/>
</g>
<!-- ast.Name object at 0x731ce9945550&#45;&gt;ast.Load object at 0x731df7a5ab10 -->
<g id="edge42" class="edge">
<title>ast.Name object at 0x731ce9945550&#45;&gt;ast.Load object at 0x731df7a5ab10</title>
<path fill="none" stroke="black" d="M720.3,-71.7C729.1,-63.14 739.88,-52.66 749.5,-43.3"/>
<polygon fill="black" stroke="black" points="752.18,-45.58 756.91,-36.1 747.3,-40.57 752.18,-45.58"/>
</g>
<!-- ast.Name object at 0x731ce9944750&#45;&gt;ast.Load object at 0x731df7a5ab10 -->
<g id="edge44" class="edge">
<title>ast.Name object at 0x731ce9944750&#45;&gt;ast.Load object at 0x731df7a5ab10</title>
<path fill="none" stroke="black" d="M774.5,-71.7C774.5,-63.98 774.5,-54.71 774.5,-46.11"/>
<polygon fill="black" stroke="black" points="778,-46.1 774.5,-36.1 771,-46.1 778,-46.1"/>
</g>
<!-- ast.Name object at 0x731d09477450 -->
<g id="node37" class="node">
<title>ast.Name object at 0x731d09477450</title>
<path fill="#66cdaa" stroke="black" d="M1225.5,-108C1225.5,-108 1195.5,-108 1195.5,-108 1189.5,-108 1183.5,-102 1183.5,-96 1183.5,-96 1183.5,-84 1183.5,-84 1183.5,-78 1189.5,-72 1195.5,-72 1195.5,-72 1225.5,-72 1225.5,-72 1231.5,-72 1237.5,-78 1237.5,-84 1237.5,-84 1237.5,-96 1237.5,-96 1237.5,-102 1231.5,-108 1225.5,-108"/>
<text text-anchor="middle" x="1210.5" y="-86.3" font-family="Times,serif" font-size="14.00">Name</text>
</g>
<!-- ast.comprehension object at 0x731ce9947390&#45;&gt;ast.Name object at 0x731d09477450 -->
<g id="edge46" class="edge">
<title>ast.comprehension object at 0x731ce9947390&#45;&gt;ast.Name object at 0x731d09477450</title>
<path fill="none" stroke="black" d="M945.84,-150.07C994.62,-139.45 1070.67,-122.8 1136.5,-108 1148.54,-105.29 1161.66,-102.29 1173.47,-99.58"/>
<polygon fill="black" stroke="black" points="1174.49,-102.93 1183.45,-97.28 1172.92,-96.11 1174.49,-102.93"/>
</g>
<!-- ast.Name object at 0x731ce9627610 -->
<g id="node39" class="node">
<title>ast.Name object at 0x731ce9627610</title>
<path fill="#66cdaa" stroke="black" d="M933.5,-108C933.5,-108 903.5,-108 903.5,-108 897.5,-108 891.5,-102 891.5,-96 891.5,-96 891.5,-84 891.5,-84 891.5,-78 897.5,-72 903.5,-72 903.5,-72 933.5,-72 933.5,-72 939.5,-72 945.5,-78 945.5,-84 945.5,-84 945.5,-96 945.5,-96 945.5,-102 939.5,-108 933.5,-108"/>
<text text-anchor="middle" x="918.5" y="-86.3" font-family="Times,serif" font-size="14.00">Name</text>
</g>
<!-- ast.comprehension object at 0x731ce9947390&#45;&gt;ast.Name object at 0x731ce9627610 -->
<g id="edge48" class="edge">
<title>ast.comprehension object at 0x731ce9947390&#45;&gt;ast.Name object at 0x731ce9627610</title>
<path fill="none" stroke="black" d="M901.19,-143.7C903.75,-135.9 906.83,-126.51 909.68,-117.83"/>
<polygon fill="black" stroke="black" points="913.08,-118.7 912.88,-108.1 906.43,-116.51 913.08,-118.7"/>
</g>
<!-- ast.Store object at 0x731df7a5ab90 -->
<g id="node38" class="node">
<title>ast.Store object at 0x731df7a5ab90</title>
<path fill="#66cdaa" stroke="black" d="M1297.5,-36C1297.5,-36 1267.5,-36 1267.5,-36 1261.5,-36 1255.5,-30 1255.5,-24 1255.5,-24 1255.5,-12 1255.5,-12 1255.5,-6 1261.5,0 1267.5,0 1267.5,0 1297.5,0 1297.5,0 1303.5,0 1309.5,-6 1309.5,-12 1309.5,-12 1309.5,-24 1309.5,-24 1309.5,-30 1303.5,-36 1297.5,-36"/>
<text text-anchor="middle" x="1282.5" y="-14.3" font-family="Times,serif" font-size="14.00">Store</text>
</g>
<!-- ast.Name object at 0x731d09477450&#45;&gt;ast.Store object at 0x731df7a5ab90 -->
<g id="edge47" class="edge">
<title>ast.Name object at 0x731d09477450&#45;&gt;ast.Store object at 0x731df7a5ab90</title>
<path fill="none" stroke="black" d="M1228.3,-71.7C1237.1,-63.14 1247.88,-52.66 1257.5,-43.3"/>
<polygon fill="black" stroke="black" points="1260.18,-45.58 1264.91,-36.1 1255.3,-40.57 1260.18,-45.58"/>
</g>
<!-- ast.Name object at 0x731ce9627610&#45;&gt;ast.Load object at 0x731df7a5ab10 -->
<g id="edge49" class="edge">
<title>ast.Name object at 0x731ce9627610&#45;&gt;ast.Load object at 0x731df7a5ab10</title>
<path fill="none" stroke="black" d="M891.41,-75.83C868.73,-64.81 836.14,-48.97 811.13,-36.81"/>
<polygon fill="black" stroke="black" points="812.48,-33.57 801.95,-32.35 809.42,-39.87 812.48,-33.57"/>
</g>
<!-- ast.Name object at 0x731ce9626450 -->
<g id="node41" class="node">
<title>ast.Name object at 0x731ce9626450</title>
<path fill="#66cdaa" stroke="black" d="M1297.5,-108C1297.5,-108 1267.5,-108 1267.5,-108 1261.5,-108 1255.5,-102 1255.5,-96 1255.5,-96 1255.5,-84 1255.5,-84 1255.5,-78 1261.5,-72 1267.5,-72 1267.5,-72 1297.5,-72 1297.5,-72 1303.5,-72 1309.5,-78 1309.5,-84 1309.5,-84 1309.5,-96 1309.5,-96 1309.5,-102 1303.5,-108 1297.5,-108"/>
<text text-anchor="middle" x="1282.5" y="-86.3" font-family="Times,serif" font-size="14.00">Name</text>
</g>
<!-- ast.comprehension object at 0x731ce9a6b290&#45;&gt;ast.Name object at 0x731ce9626450 -->
<g id="edge51" class="edge">
<title>ast.comprehension object at 0x731ce9a6b290&#45;&gt;ast.Name object at 0x731ce9626450</title>
<path fill="none" stroke="black" d="M1101.79,-147.82C1148.89,-135.41 1215.5,-117.66 1245.58,-107.85"/>
<polygon fill="black" stroke="black" points="1246.9,-111.09 1255.2,-104.5 1244.6,-104.48 1246.9,-111.09"/>
</g>
<!-- ast.Name object at 0x731ce9626350 -->
<g id="node42" class="node">
<title>ast.Name object at 0x731ce9626350</title>
<path fill="#66cdaa" stroke="black" d="M1043.5,-108C1043.5,-108 1013.5,-108 1013.5,-108 1007.5,-108 1001.5,-102 1001.5,-96 1001.5,-96 1001.5,-84 1001.5,-84 1001.5,-78 1007.5,-72 1013.5,-72 1013.5,-72 1043.5,-72 1043.5,-72 1049.5,-72 1055.5,-78 1055.5,-84 1055.5,-84 1055.5,-96 1055.5,-96 1055.5,-102 1049.5,-108 1043.5,-108"/>
<text text-anchor="middle" x="1028.5" y="-86.3" font-family="Times,serif" font-size="14.00">Name</text>
</g>
<!-- ast.comprehension object at 0x731ce9a6b290&#45;&gt;ast.Name object at 0x731ce9626350 -->
<g id="edge53" class="edge">
<title>ast.comprehension object at 0x731ce9a6b290&#45;&gt;ast.Name object at 0x731ce9626350</title>
<path fill="none" stroke="black" d="M1045.81,-143.7C1043.25,-135.9 1040.17,-126.51 1037.32,-117.83"/>
<polygon fill="black" stroke="black" points="1040.57,-116.51 1034.12,-108.1 1033.92,-118.7 1040.57,-116.51"/>
</g>
<!-- ast.Name object at 0x731ce9626450&#45;&gt;ast.Store object at 0x731df7a5ab90 -->
<g id="edge52" class="edge">
<title>ast.Name object at 0x731ce9626450&#45;&gt;ast.Store object at 0x731df7a5ab90</title>
<path fill="none" stroke="black" d="M1282.5,-71.7C1282.5,-63.98 1282.5,-54.71 1282.5,-46.11"/>
<polygon fill="black" stroke="black" points="1286,-46.1 1282.5,-36.1 1279,-46.1 1286,-46.1"/>
</g>
<!-- ast.Name object at 0x731ce9626350&#45;&gt;ast.Load object at 0x731df7a5ab10 -->
<g id="edge54" class="edge">
<title>ast.Name object at 0x731ce9626350&#45;&gt;ast.Load object at 0x731df7a5ab10</title>
<path fill="none" stroke="black" d="M1001.37,-77.09C996.78,-75.26 992.04,-73.5 987.5,-72 926.98,-52.05 854.65,-35.55 811.75,-26.5"/>
<polygon fill="black" stroke="black" points="812.27,-23.04 801.77,-24.42 810.84,-29.89 812.27,-23.04"/>
</g>
<!-- ast.Call object at 0x731ce9627050 -->
<g id="node44" class="node">
<title>ast.Call object at 0x731ce9627050</title>
<path fill="#66cdaa" stroke="black" d="M913.5,-540C913.5,-540 883.5,-540 883.5,-540 877.5,-540 871.5,-534 871.5,-528 871.5,-528 871.5,-516 871.5,-516 871.5,-510 877.5,-504 883.5,-504 883.5,-504 913.5,-504 913.5,-504 919.5,-504 925.5,-510 925.5,-516 925.5,-516 925.5,-528 925.5,-528 925.5,-534 919.5,-540 913.5,-540"/>
<text text-anchor="middle" x="898.5" y="-518.3" font-family="Times,serif" font-size="14.00">Call</text>
</g>
<!-- ast.Raise object at 0x731ce96262d0&#45;&gt;ast.Call object at 0x731ce9627050 -->
<g id="edge56" class="edge">
<title>ast.Raise object at 0x731ce96262d0&#45;&gt;ast.Call object at 0x731ce9627050</title>
<path fill="none" stroke="black" d="M898.5,-575.7C898.5,-567.98 898.5,-558.71 898.5,-550.11"/>
<polygon fill="black" stroke="black" points="902,-550.1 898.5,-540.1 895,-550.1 902,-550.1"/>
</g>
<!-- ast.Name object at 0x731ce96256d0 -->
<g id="node45" class="node">
<title>ast.Name object at 0x731ce96256d0</title>
<path fill="#66cdaa" stroke="black" d="M988.5,-468C988.5,-468 958.5,-468 958.5,-468 952.5,-468 946.5,-462 946.5,-456 946.5,-456 946.5,-444 946.5,-444 946.5,-438 952.5,-432 958.5,-432 958.5,-432 988.5,-432 988.5,-432 994.5,-432 1000.5,-438 1000.5,-444 1000.5,-444 1000.5,-456 1000.5,-456 1000.5,-462 994.5,-468 988.5,-468"/>
<text text-anchor="middle" x="973.5" y="-446.3" font-family="Times,serif" font-size="14.00">Name</text>
</g>
<!-- ast.Call object at 0x731ce9627050&#45;&gt;ast.Name object at 0x731ce96256d0 -->
<g id="edge57" class="edge">
<title>ast.Call object at 0x731ce9627050&#45;&gt;ast.Name object at 0x731ce96256d0</title>
<path fill="none" stroke="black" d="M917.04,-503.7C926.3,-495.05 937.66,-484.45 947.76,-475.03"/>
<polygon fill="black" stroke="black" points="950.25,-477.49 955.17,-468.1 945.48,-472.37 950.25,-477.49"/>
</g>
<!-- ast.Constant object at 0x731ce9627f50 -->
<g id="node46" class="node">
<title>ast.Constant object at 0x731ce9627f50</title>
<path fill="#66cdaa" stroke="black" d="M916,-468C916,-468 875,-468 875,-468 869,-468 863,-462 863,-456 863,-456 863,-444 863,-444 863,-438 869,-432 875,-432 875,-432 916,-432 916,-432 922,-432 928,-438 928,-444 928,-444 928,-456 928,-456 928,-462 922,-468 916,-468"/>
<text text-anchor="middle" x="895.5" y="-446.3" font-family="Times,serif" font-size="14.00">Constant</text>
</g>
<!-- ast.Call object at 0x731ce9627050&#45;&gt;ast.Constant object at 0x731ce9627f50 -->
<g id="edge59" class="edge">
<title>ast.Call object at 0x731ce9627050&#45;&gt;ast.Constant object at 0x731ce9627f50</title>
<path fill="none" stroke="black" d="M897.76,-503.7C897.43,-495.98 897.03,-486.71 896.66,-478.11"/>
<polygon fill="black" stroke="black" points="900.16,-477.95 896.23,-468.1 893.16,-478.25 900.16,-477.95"/>
</g>
<!-- ast.Name object at 0x731ce96256d0&#45;&gt;ast.Load object at 0x731df7a5ab10 -->
<g id="edge58" class="edge">
<title>ast.Name object at 0x731ce96256d0&#45;&gt;ast.Load object at 0x731df7a5ab10</title>
<path fill="none" stroke="black" d="M973.5,-431.95C973.5,-405.29 973.5,-352.11 973.5,-307 973.5,-307 973.5,-307 973.5,-161 973.5,-120.55 981.99,-101.67 954.5,-72 917.73,-32.33 852.93,-21.82 811.94,-19.34"/>
<polygon fill="black" stroke="black" points="811.96,-15.83 801.8,-18.86 811.63,-22.83 811.96,-15.83"/>
</g>
<!-- ast.Name object at 0x731ce9624590 -->
<g id="node48" class="node">
<title>ast.Name object at 0x731ce9624590</title>
<path fill="#66cdaa" stroke="black" d="M1325.5,-252C1325.5,-252 1295.5,-252 1295.5,-252 1289.5,-252 1283.5,-246 1283.5,-240 1283.5,-240 1283.5,-228 1283.5,-228 1283.5,-222 1289.5,-216 1295.5,-216 1295.5,-216 1325.5,-216 1325.5,-216 1331.5,-216 1337.5,-222 1337.5,-228 1337.5,-228 1337.5,-240 1337.5,-240 1337.5,-246 1331.5,-252 1325.5,-252"/>
<text text-anchor="middle" x="1310.5" y="-230.3" font-family="Times,serif" font-size="14.00">Name</text>
</g>
<!-- ast.Assign object at 0x731ce96257d0&#45;&gt;ast.Name object at 0x731ce9624590 -->
<g id="edge61" class="edge">
<title>ast.Assign object at 0x731ce96257d0&#45;&gt;ast.Name object at 0x731ce9624590</title>
<path fill="none" stroke="black" d="M1223.52,-288.41C1238.74,-279.06 1257.95,-267.27 1274.44,-257.14"/>
<polygon fill="black" stroke="black" points="1276.59,-259.93 1283.28,-251.71 1272.93,-253.96 1276.59,-259.93"/>
</g>
<!-- ast.Call object at 0x731cef3cda90 -->
<g id="node49" class="node">
<title>ast.Call object at 0x731cef3cda90</title>
<path fill="#66cdaa" stroke="black" d="M1211.5,-252C1211.5,-252 1181.5,-252 1181.5,-252 1175.5,-252 1169.5,-246 1169.5,-240 1169.5,-240 1169.5,-228 1169.5,-228 1169.5,-222 1175.5,-216 1181.5,-216 1181.5,-216 1211.5,-216 1211.5,-216 1217.5,-216 1223.5,-222 1223.5,-228 1223.5,-228 1223.5,-240 1223.5,-240 1223.5,-246 1217.5,-252 1211.5,-252"/>
<text text-anchor="middle" x="1196.5" y="-230.3" font-family="Times,serif" font-size="14.00">Call</text>
</g>
<!-- ast.Assign object at 0x731ce96257d0&#45;&gt;ast.Call object at 0x731cef3cda90 -->
<g id="edge63" class="edge">
<title>ast.Assign object at 0x731ce96257d0&#45;&gt;ast.Call object at 0x731cef3cda90</title>
<path fill="none" stroke="black" d="M1196.5,-287.7C1196.5,-279.98 1196.5,-270.71 1196.5,-262.11"/>
<polygon fill="black" stroke="black" points="1200,-262.1 1196.5,-252.1 1193,-262.1 1200,-262.1"/>
</g>
<!-- ast.Name object at 0x731ce9624590&#45;&gt;ast.Store object at 0x731df7a5ab90 -->
<g id="edge62" class="edge">
<title>ast.Name object at 0x731ce9624590&#45;&gt;ast.Store object at 0x731df7a5ab90</title>
<path fill="none" stroke="black" d="M1337.88,-223.36C1357.44,-215 1382.65,-200.91 1396.5,-180 1423.14,-139.78 1434.14,-112.23 1407.5,-72 1388.12,-42.73 1348.98,-29.58 1319.63,-23.7"/>
<polygon fill="black" stroke="black" points="1320.17,-20.24 1309.71,-21.91 1318.93,-27.13 1320.17,-20.24"/>
</g>
<!-- ast.Attribute object at 0x731ce9626d90 -->
<g id="node50" class="node">
<title>ast.Attribute object at 0x731ce9626d90</title>
<path fill="#66cdaa" stroke="black" d="M1375,-180C1375,-180 1334,-180 1334,-180 1328,-180 1322,-174 1322,-168 1322,-168 1322,-156 1322,-156 1322,-150 1328,-144 1334,-144 1334,-144 1375,-144 1375,-144 1381,-144 1387,-150 1387,-156 1387,-156 1387,-168 1387,-168 1387,-174 1381,-180 1375,-180"/>
<text text-anchor="middle" x="1354.5" y="-158.3" font-family="Times,serif" font-size="14.00">Attribute</text>
</g>
<!-- ast.Call object at 0x731cef3cda90&#45;&gt;ast.Attribute object at 0x731ce9626d90 -->
<g id="edge64" class="edge">
<title>ast.Call object at 0x731cef3cda90&#45;&gt;ast.Attribute object at 0x731ce9626d90</title>
<path fill="none" stroke="black" d="M1223.66,-220.97C1248.16,-210.11 1284.55,-193.99 1312.75,-181.5"/>
<polygon fill="black" stroke="black" points="1314.24,-184.67 1321.96,-177.41 1311.4,-178.27 1314.24,-184.67"/>
</g>
<!-- ast.Starred object at 0x731ce9625750 -->
<g id="node52" class="node">
<title>ast.Starred object at 0x731ce9625750</title>
<path fill="#66cdaa" stroke="black" d="M1171.5,-180C1171.5,-180 1139.5,-180 1139.5,-180 1133.5,-180 1127.5,-174 1127.5,-168 1127.5,-168 1127.5,-156 1127.5,-156 1127.5,-150 1133.5,-144 1139.5,-144 1139.5,-144 1171.5,-144 1171.5,-144 1177.5,-144 1183.5,-150 1183.5,-156 1183.5,-156 1183.5,-168 1183.5,-168 1183.5,-174 1177.5,-180 1171.5,-180"/>
<text text-anchor="middle" x="1155.5" y="-158.3" font-family="Times,serif" font-size="14.00">Starred</text>
</g>
<!-- ast.Call object at 0x731cef3cda90&#45;&gt;ast.Starred object at 0x731ce9625750 -->
<g id="edge68" class="edge">
<title>ast.Call object at 0x731cef3cda90&#45;&gt;ast.Starred object at 0x731ce9625750</title>
<path fill="none" stroke="black" d="M1186.37,-215.7C1181.65,-207.64 1175.94,-197.89 1170.72,-188.98"/>
<polygon fill="black" stroke="black" points="1173.59,-186.96 1165.52,-180.1 1167.55,-190.5 1173.59,-186.96"/>
</g>
<!-- ast.Attribute object at 0x731ce9626d90&#45;&gt;ast.Load object at 0x731df7a5ab10 -->
<g id="edge67" class="edge">
<title>ast.Attribute object at 0x731ce9626d90&#45;&gt;ast.Load object at 0x731df7a5ab10</title>
<path fill="none" stroke="black" d="M1371.05,-143.99C1388.01,-124.51 1409.43,-92.63 1390.5,-72 1351.28,-29.26 939.06,-20.91 811.74,-19.35"/>
<polygon fill="black" stroke="black" points="811.73,-15.85 801.69,-19.23 811.65,-22.85 811.73,-15.85"/>
</g>
<!-- ast.Name object at 0x731ce96268d0 -->
<g id="node51" class="node">
<title>ast.Name object at 0x731ce96268d0</title>
<path fill="#66cdaa" stroke="black" d="M1369.5,-108C1369.5,-108 1339.5,-108 1339.5,-108 1333.5,-108 1327.5,-102 1327.5,-96 1327.5,-96 1327.5,-84 1327.5,-84 1327.5,-78 1333.5,-72 1339.5,-72 1339.5,-72 1369.5,-72 1369.5,-72 1375.5,-72 1381.5,-78 1381.5,-84 1381.5,-84 1381.5,-96 1381.5,-96 1381.5,-102 1375.5,-108 1369.5,-108"/>
<text text-anchor="middle" x="1354.5" y="-86.3" font-family="Times,serif" font-size="14.00">Name</text>
</g>
<!-- ast.Attribute object at 0x731ce9626d90&#45;&gt;ast.Name object at 0x731ce96268d0 -->
<g id="edge65" class="edge">
<title>ast.Attribute object at 0x731ce9626d90&#45;&gt;ast.Name object at 0x731ce96268d0</title>
<path fill="none" stroke="black" d="M1354.5,-143.7C1354.5,-135.98 1354.5,-126.71 1354.5,-118.11"/>
<polygon fill="black" stroke="black" points="1358,-118.1 1354.5,-108.1 1351,-118.1 1358,-118.1"/>
</g>
<!-- ast.Name object at 0x731ce96268d0&#45;&gt;ast.Load object at 0x731df7a5ab10 -->
<g id="edge66" class="edge">
<title>ast.Name object at 0x731ce96268d0&#45;&gt;ast.Load object at 0x731df7a5ab10</title>
<path fill="none" stroke="black" d="M1327.36,-75C1324.42,-73.84 1321.43,-72.81 1318.5,-72 1133.47,-20.96 901.2,-17.49 811.87,-18.28"/>
<polygon fill="black" stroke="black" points="811.66,-14.78 801.7,-18.39 811.74,-21.78 811.66,-14.78"/>
</g>
<!-- ast.Starred object at 0x731ce9625750&#45;&gt;ast.Load object at 0x731df7a5ab10 -->
<g id="edge71" class="edge">
<title>ast.Starred object at 0x731ce9625750&#45;&gt;ast.Load object at 0x731df7a5ab10</title>
<path fill="none" stroke="black" d="M1157.14,-143.83C1158.05,-123.59 1156.1,-90.37 1136.5,-72 1090.1,-28.52 894.84,-20.63 811.96,-19.26"/>
<polygon fill="black" stroke="black" points="811.78,-15.76 801.73,-19.11 811.68,-22.76 811.78,-15.76"/>
</g>
<!-- ast.Name object at 0x731ce9624650 -->
<g id="node53" class="node">
<title>ast.Name object at 0x731ce9624650</title>
<path fill="#66cdaa" stroke="black" d="M1115.5,-108C1115.5,-108 1085.5,-108 1085.5,-108 1079.5,-108 1073.5,-102 1073.5,-96 1073.5,-96 1073.5,-84 1073.5,-84 1073.5,-78 1079.5,-72 1085.5,-72 1085.5,-72 1115.5,-72 1115.5,-72 1121.5,-72 1127.5,-78 1127.5,-84 1127.5,-84 1127.5,-96 1127.5,-96 1127.5,-102 1121.5,-108 1115.5,-108"/>
<text text-anchor="middle" x="1100.5" y="-86.3" font-family="Times,serif" font-size="14.00">Name</text>
</g>
<!-- ast.Starred object at 0x731ce9625750&#45;&gt;ast.Name object at 0x731ce9624650 -->
<g id="edge69" class="edge">
<title>ast.Starred object at 0x731ce9625750&#45;&gt;ast.Name object at 0x731ce9624650</title>
<path fill="none" stroke="black" d="M1141.9,-143.7C1135.38,-135.39 1127.43,-125.28 1120.25,-116.14"/>
<polygon fill="black" stroke="black" points="1122.87,-113.81 1113.94,-108.1 1117.37,-118.13 1122.87,-113.81"/>
</g>
<!-- ast.Name object at 0x731ce9624650&#45;&gt;ast.Load object at 0x731df7a5ab10 -->
<g id="edge70" class="edge">
<title>ast.Name object at 0x731ce9624650&#45;&gt;ast.Load object at 0x731df7a5ab10</title>
<path fill="none" stroke="black" d="M1073.28,-75.25C1070.36,-74.04 1067.4,-72.93 1064.5,-72 976.38,-43.68 868.04,-28.92 812.02,-22.7"/>
<polygon fill="black" stroke="black" points="812.18,-19.2 801.86,-21.6 811.43,-26.16 812.18,-19.2"/>
</g>
<!-- ast.Name object at 0x731ce9627a10 -->
<g id="node55" class="node">
<title>ast.Name object at 0x731ce9627a10</title>
<path fill="#66cdaa" stroke="black" d="M1437.5,-396C1437.5,-396 1407.5,-396 1407.5,-396 1401.5,-396 1395.5,-390 1395.5,-384 1395.5,-384 1395.5,-372 1395.5,-372 1395.5,-366 1401.5,-360 1407.5,-360 1407.5,-360 1437.5,-360 1437.5,-360 1443.5,-360 1449.5,-366 1449.5,-372 1449.5,-372 1449.5,-384 1449.5,-384 1449.5,-390 1443.5,-396 1437.5,-396"/>
<text text-anchor="middle" x="1422.5" y="-374.3" font-family="Times,serif" font-size="14.00">Name</text>
</g>
<!-- ast.Return object at 0x731ce9627290&#45;&gt;ast.Name object at 0x731ce9627a10 -->
<g id="edge73" class="edge">
<title>ast.Return object at 0x731ce9627290&#45;&gt;ast.Name object at 0x731ce9627a10</title>
<path fill="none" stroke="black" d="M1215.6,-647.97C1252.73,-599.7 1358.81,-461.8 1402.9,-404.47"/>
<polygon fill="black" stroke="black" points="1405.86,-406.37 1409.19,-396.31 1400.32,-402.1 1405.86,-406.37"/>
</g>
<!-- ast.Name object at 0x731ce9627a10&#45;&gt;ast.Load object at 0x731df7a5ab10 -->
<g id="edge74" class="edge">
<title>ast.Name object at 0x731ce9627a10&#45;&gt;ast.Load object at 0x731df7a5ab10</title>
<path fill="none" stroke="black" d="M1427.56,-359.68C1434.86,-333.11 1447.5,-280.56 1447.5,-235 1447.5,-235 1447.5,-235 1447.5,-161 1447.5,-117.63 1442.9,-97.06 1407.5,-72 1358.8,-37.53 940.06,-23.46 811.73,-19.94"/>
<polygon fill="black" stroke="black" points="811.7,-16.44 801.61,-19.66 811.51,-23.43 811.7,-16.44"/>
</g>
</g>
</svg>
