<?xml version="1.0" encoding="UTF-8" standalone="no"?>
<!DOCTYPE svg PUBLIC "-//W3C//DTD SVG 1.1//EN"
 "http://www.w3.org/Graphics/SVG/1.1/DTD/svg11.dtd">
<!-- Generated by graphviz version 2.50.0 (0)
 -->
<!-- Pages: 1 -->
<svg width="1347pt" height="836pt"
 viewBox="0.00 0.00 1346.84 836.00" xmlns="http://www.w3.org/2000/svg" xmlns:xlink="http://www.w3.org/1999/xlink">
<g id="graph0" class="graph" transform="scale(1 1) rotate(0) translate(4 832)">
<polygon fill="white" stroke="transparent" points="-4,4 -4,-832 1342.84,-832 1342.84,4 -4,4"/>
<!-- ast.Module object at 0x7dbdf7d4f950 -->
<g id="node1" class="node">
<title>ast.Module object at 0x7dbdf7d4f950</title>
<path fill="#66cdaa" stroke="black" d="M1021.34,-828C1021.34,-828 986.34,-828 986.34,-828 980.34,-828 974.34,-822 974.34,-816 974.34,-816 974.34,-804 974.34,-804 974.34,-798 980.34,-792 986.34,-792 986.34,-792 1021.34,-792 1021.34,-792 1027.34,-792 1033.34,-798 1033.34,-804 1033.34,-804 1033.34,-816 1033.34,-816 1033.34,-822 1027.34,-828 1021.34,-828"/>
<text text-anchor="middle" x="1003.84" y="-806.3" font-family="Times,serif" font-size="14.00">Module</text>
</g>
<!-- ast.FunctionDef object at 0x7dbdf7d4fa50 -->
<g id="node2" class="node">
<title>ast.FunctionDef object at 0x7dbdf7d4fa50</title>
<path fill="#66cdaa" stroke="black" d="M1034.34,-756C1034.34,-756 973.34,-756 973.34,-756 967.34,-756 961.34,-750 961.34,-744 961.34,-744 961.34,-732 961.34,-732 961.34,-726 967.34,-720 973.34,-720 973.34,-720 1034.34,-720 1034.34,-720 1040.34,-720 1046.34,-726 1046.34,-732 1046.34,-732 1046.34,-744 1046.34,-744 1046.34,-750 1040.34,-756 1034.34,-756"/>
<text text-anchor="middle" x="1003.84" y="-734.3" font-family="Times,serif" font-size="14.00">FunctionDef</text>
</g>
<!-- ast.Module object at 0x7dbdf7d4f950&#45;&gt;ast.FunctionDef object at 0x7dbdf7d4fa50 -->
<g id="edge1" class="edge">
<title>ast.Module object at 0x7dbdf7d4f950&#45;&gt;ast.FunctionDef object at 0x7dbdf7d4fa50</title>
<path fill="none" stroke="black" d="M1003.84,-791.7C1003.84,-783.98 1003.84,-774.71 1003.84,-766.11"/>
<polygon fill="black" stroke="black" points="1007.34,-766.1 1003.84,-756.1 1000.34,-766.1 1007.34,-766.1"/>
</g>
<!-- ast.arguments object at 0x7dbdf7d4fb50 -->
<g id="node3" class="node">
<title>ast.arguments object at 0x7dbdf7d4fb50</title>
<path fill="#66cdaa" stroke="black" d="M626.84,-684C626.84,-684 576.84,-684 576.84,-684 570.84,-684 564.84,-678 564.84,-672 564.84,-672 564.84,-660 564.84,-660 564.84,-654 570.84,-648 576.84,-648 576.84,-648 626.84,-648 626.84,-648 632.84,-648 638.84,-654 638.84,-660 638.84,-660 638.84,-672 638.84,-672 638.84,-678 632.84,-684 626.84,-684"/>
<text text-anchor="middle" x="601.84" y="-662.3" font-family="Times,serif" font-size="14.00">arguments</text>
</g>
<!-- ast.FunctionDef object at 0x7dbdf7d4fa50&#45;&gt;ast.arguments object at 0x7dbdf7d4fb50 -->
<g id="edge2" class="edge">
<title>ast.FunctionDef object at 0x7dbdf7d4fa50&#45;&gt;ast.arguments object at 0x7dbdf7d4fb50</title>
<path fill="none" stroke="black" d="M961.24,-732.96C894.74,-726.11 762.5,-710.35 652.84,-684 651.56,-683.69 650.27,-683.37 648.97,-683.03"/>
<polygon fill="black" stroke="black" points="649.52,-679.55 638.95,-680.19 647.62,-686.28 649.52,-679.55"/>
</g>
<!-- ast.Assign object at 0x7dbdf7d4c110 -->
<g id="node5" class="node">
<title>ast.Assign object at 0x7dbdf7d4c110</title>
<path fill="#66cdaa" stroke="black" d="M1082.84,-540C1082.84,-540 1052.84,-540 1052.84,-540 1046.84,-540 1040.84,-534 1040.84,-528 1040.84,-528 1040.84,-516 1040.84,-516 1040.84,-510 1046.84,-504 1052.84,-504 1052.84,-504 1082.84,-504 1082.84,-504 1088.84,-504 1094.84,-510 1094.84,-516 1094.84,-516 1094.84,-528 1094.84,-528 1094.84,-534 1088.84,-540 1082.84,-540"/>
<text text-anchor="middle" x="1067.84" y="-518.3" font-family="Times,serif" font-size="14.00">Assign</text>
</g>
<!-- ast.FunctionDef object at 0x7dbdf7d4fa50&#45;&gt;ast.Assign object at 0x7dbdf7d4c110 -->
<g id="edge4" class="edge">
<title>ast.FunctionDef object at 0x7dbdf7d4fa50&#45;&gt;ast.Assign object at 0x7dbdf7d4c110</title>
<path fill="none" stroke="black" d="M1008.97,-719.85C1020.09,-682.68 1046.47,-594.44 1059.82,-549.82"/>
<polygon fill="black" stroke="black" points="1063.17,-550.82 1062.69,-540.23 1056.47,-548.81 1063.17,-550.82"/>
</g>
<!-- ast.AugAssign object at 0x7dbdf8aa1850 -->
<g id="node12" class="node">
<title>ast.AugAssign object at 0x7dbdf8aa1850</title>
<path fill="#66cdaa" stroke="black" d="M238.34,-540C238.34,-540 185.34,-540 185.34,-540 179.34,-540 173.34,-534 173.34,-528 173.34,-528 173.34,-516 173.34,-516 173.34,-510 179.34,-504 185.34,-504 185.34,-504 238.34,-504 238.34,-504 244.34,-504 250.34,-510 250.34,-516 250.34,-516 250.34,-528 250.34,-528 250.34,-534 244.34,-540 238.34,-540"/>
<text text-anchor="middle" x="211.84" y="-518.3" font-family="Times,serif" font-size="14.00">AugAssign</text>
</g>
<!-- ast.FunctionDef object at 0x7dbdf7d4fa50&#45;&gt;ast.AugAssign object at 0x7dbdf8aa1850 -->
<g id="edge12" class="edge">
<title>ast.FunctionDef object at 0x7dbdf7d4fa50&#45;&gt;ast.AugAssign object at 0x7dbdf8aa1850</title>
<path fill="none" stroke="black" d="M961.31,-724.33C898.75,-704.81 779.21,-664.11 685.84,-612 662.55,-599 662.7,-585.64 637.84,-576 482.55,-515.8 427.96,-573.63 264.84,-540 263.36,-539.7 261.86,-539.36 260.36,-539.01"/>
<polygon fill="black" stroke="black" points="260.93,-535.54 250.37,-536.41 259.17,-542.32 260.93,-535.54"/>
</g>
<!-- ast.Assign object at 0x7dbdf7d4c2d0 -->
<g id="node16" class="node">
<title>ast.Assign object at 0x7dbdf7d4c2d0</title>
<path fill="#66cdaa" stroke="black" d="M1154.84,-540C1154.84,-540 1124.84,-540 1124.84,-540 1118.84,-540 1112.84,-534 1112.84,-528 1112.84,-528 1112.84,-516 1112.84,-516 1112.84,-510 1118.84,-504 1124.84,-504 1124.84,-504 1154.84,-504 1154.84,-504 1160.84,-504 1166.84,-510 1166.84,-516 1166.84,-516 1166.84,-528 1166.84,-528 1166.84,-534 1160.84,-540 1154.84,-540"/>
<text text-anchor="middle" x="1139.84" y="-518.3" font-family="Times,serif" font-size="14.00">Assign</text>
</g>
<!-- ast.FunctionDef object at 0x7dbdf7d4fa50&#45;&gt;ast.Assign object at 0x7dbdf7d4c2d0 -->
<g id="edge18" class="edge">
<title>ast.FunctionDef object at 0x7dbdf7d4fa50&#45;&gt;ast.Assign object at 0x7dbdf7d4c2d0</title>
<path fill="none" stroke="black" d="M1015.29,-719.88C1022.18,-709.53 1031.08,-696.05 1038.84,-684 1069.4,-636.53 1104.23,-580.59 1123.97,-548.71"/>
<polygon fill="black" stroke="black" points="1127.07,-550.35 1129.35,-540 1121.12,-546.67 1127.07,-550.35"/>
</g>
<!-- ast.For object at 0x7dbdf8ecfd90 -->
<g id="node19" class="node">
<title>ast.For object at 0x7dbdf8ecfd90</title>
<path fill="#66cdaa" stroke="black" d="M972.84,-684C972.84,-684 942.84,-684 942.84,-684 936.84,-684 930.84,-678 930.84,-672 930.84,-672 930.84,-660 930.84,-660 930.84,-654 936.84,-648 942.84,-648 942.84,-648 972.84,-648 972.84,-648 978.84,-648 984.84,-654 984.84,-660 984.84,-660 984.84,-672 984.84,-672 984.84,-678 978.84,-684 972.84,-684"/>
<text text-anchor="middle" x="957.84" y="-662.3" font-family="Times,serif" font-size="14.00">For</text>
</g>
<!-- ast.FunctionDef object at 0x7dbdf7d4fa50&#45;&gt;ast.For object at 0x7dbdf8ecfd90 -->
<g id="edge23" class="edge">
<title>ast.FunctionDef object at 0x7dbdf7d4fa50&#45;&gt;ast.For object at 0x7dbdf8ecfd90</title>
<path fill="none" stroke="black" d="M992.47,-719.7C987.12,-711.56 980.63,-701.69 974.73,-692.7"/>
<polygon fill="black" stroke="black" points="977.5,-690.54 969.08,-684.1 971.65,-694.38 977.5,-690.54"/>
</g>
<!-- ast.Return object at 0x7dbdf7d4d950 -->
<g id="node63" class="node">
<title>ast.Return object at 0x7dbdf7d4d950</title>
<path fill="#66cdaa" stroke="black" d="M1262.84,-684C1262.84,-684 1232.84,-684 1232.84,-684 1226.84,-684 1220.84,-678 1220.84,-672 1220.84,-672 1220.84,-660 1220.84,-660 1220.84,-654 1226.84,-648 1232.84,-648 1232.84,-648 1262.84,-648 1262.84,-648 1268.84,-648 1274.84,-654 1274.84,-660 1274.84,-660 1274.84,-672 1274.84,-672 1274.84,-678 1268.84,-684 1262.84,-684"/>
<text text-anchor="middle" x="1247.84" y="-662.3" font-family="Times,serif" font-size="14.00">Return</text>
</g>
<!-- ast.FunctionDef object at 0x7dbdf7d4fa50&#45;&gt;ast.Return object at 0x7dbdf7d4d950 -->
<g id="edge90" class="edge">
<title>ast.FunctionDef object at 0x7dbdf7d4fa50&#45;&gt;ast.Return object at 0x7dbdf7d4d950</title>
<path fill="none" stroke="black" d="M1046.34,-724.81C1092.83,-711.47 1166.59,-690.31 1210.8,-677.63"/>
<polygon fill="black" stroke="black" points="1211.92,-680.95 1220.57,-674.82 1209.99,-674.22 1211.92,-680.95"/>
</g>
<!-- ast.arg object at 0x7dbdf7d4fcd0 -->
<g id="node4" class="node">
<title>ast.arg object at 0x7dbdf7d4fcd0</title>
<path fill="#66cdaa" stroke="black" d="M616.84,-612C616.84,-612 586.84,-612 586.84,-612 580.84,-612 574.84,-606 574.84,-600 574.84,-600 574.84,-588 574.84,-588 574.84,-582 580.84,-576 586.84,-576 586.84,-576 616.84,-576 616.84,-576 622.84,-576 628.84,-582 628.84,-588 628.84,-588 628.84,-600 628.84,-600 628.84,-606 622.84,-612 616.84,-612"/>
<text text-anchor="middle" x="601.84" y="-590.3" font-family="Times,serif" font-size="14.00">arg</text>
</g>
<!-- ast.arguments object at 0x7dbdf7d4fb50&#45;&gt;ast.arg object at 0x7dbdf7d4fcd0 -->
<g id="edge3" class="edge">
<title>ast.arguments object at 0x7dbdf7d4fb50&#45;&gt;ast.arg object at 0x7dbdf7d4fcd0</title>
<path fill="none" stroke="black" d="M601.84,-647.7C601.84,-639.98 601.84,-630.71 601.84,-622.11"/>
<polygon fill="black" stroke="black" points="605.34,-622.1 601.84,-612.1 598.34,-622.1 605.34,-622.1"/>
</g>
<!-- ast.Name object at 0x7dbdf7d4c0d0 -->
<g id="node6" class="node">
<title>ast.Name object at 0x7dbdf7d4c0d0</title>
<path fill="#66cdaa" stroke="black" d="M1082.84,-468C1082.84,-468 1052.84,-468 1052.84,-468 1046.84,-468 1040.84,-462 1040.84,-456 1040.84,-456 1040.84,-444 1040.84,-444 1040.84,-438 1046.84,-432 1052.84,-432 1052.84,-432 1082.84,-432 1082.84,-432 1088.84,-432 1094.84,-438 1094.84,-444 1094.84,-444 1094.84,-456 1094.84,-456 1094.84,-462 1088.84,-468 1082.84,-468"/>
<text text-anchor="middle" x="1067.84" y="-446.3" font-family="Times,serif" font-size="14.00">Name</text>
</g>
<!-- ast.Assign object at 0x7dbdf7d4c110&#45;&gt;ast.Name object at 0x7dbdf7d4c0d0 -->
<g id="edge5" class="edge">
<title>ast.Assign object at 0x7dbdf7d4c110&#45;&gt;ast.Name object at 0x7dbdf7d4c0d0</title>
<path fill="none" stroke="black" d="M1067.84,-503.7C1067.84,-495.98 1067.84,-486.71 1067.84,-478.11"/>
<polygon fill="black" stroke="black" points="1071.34,-478.1 1067.84,-468.1 1064.34,-478.1 1071.34,-478.1"/>
</g>
<!-- ast.Call object at 0x7dbdf7d4c190 -->
<g id="node8" class="node">
<title>ast.Call object at 0x7dbdf7d4c190</title>
<path fill="#66cdaa" stroke="black" d="M1199.84,-180C1199.84,-180 1169.84,-180 1169.84,-180 1163.84,-180 1157.84,-174 1157.84,-168 1157.84,-168 1157.84,-156 1157.84,-156 1157.84,-150 1163.84,-144 1169.84,-144 1169.84,-144 1199.84,-144 1199.84,-144 1205.84,-144 1211.84,-150 1211.84,-156 1211.84,-156 1211.84,-168 1211.84,-168 1211.84,-174 1205.84,-180 1199.84,-180"/>
<text text-anchor="middle" x="1184.84" y="-158.3" font-family="Times,serif" font-size="14.00">Call</text>
</g>
<!-- ast.Assign object at 0x7dbdf7d4c110&#45;&gt;ast.Call object at 0x7dbdf7d4c190 -->
<g id="edge7" class="edge">
<title>ast.Assign object at 0x7dbdf7d4c110&#45;&gt;ast.Call object at 0x7dbdf7d4c190</title>
<path fill="none" stroke="black" d="M1094.98,-508.1C1126.57,-493.03 1174.63,-469.88 1175.84,-468 1205.04,-422.64 1193.48,-256.42 1187.53,-190.34"/>
<polygon fill="black" stroke="black" points="1191,-189.91 1186.59,-180.28 1184.03,-190.56 1191,-189.91"/>
</g>
<!-- ast.Store object at 0x7dbf54602c90 -->
<g id="node7" class="node">
<title>ast.Store object at 0x7dbf54602c90</title>
<path fill="#66cdaa" stroke="black" d="M951.84,-396C951.84,-396 921.84,-396 921.84,-396 915.84,-396 909.84,-390 909.84,-384 909.84,-384 909.84,-372 909.84,-372 909.84,-366 915.84,-360 921.84,-360 921.84,-360 951.84,-360 951.84,-360 957.84,-360 963.84,-366 963.84,-372 963.84,-372 963.84,-384 963.84,-384 963.84,-390 957.84,-396 951.84,-396"/>
<text text-anchor="middle" x="936.84" y="-374.3" font-family="Times,serif" font-size="14.00">Store</text>
</g>
<!-- ast.Name object at 0x7dbdf7d4c0d0&#45;&gt;ast.Store object at 0x7dbf54602c90 -->
<g id="edge6" class="edge">
<title>ast.Name object at 0x7dbdf7d4c0d0&#45;&gt;ast.Store object at 0x7dbf54602c90</title>
<path fill="none" stroke="black" d="M1040.7,-434.5C1021.02,-423.98 994.22,-409.66 972.78,-398.2"/>
<polygon fill="black" stroke="black" points="974.42,-395.11 963.95,-393.49 971.12,-401.29 974.42,-395.11"/>
</g>
<!-- ast.Name object at 0x7dbdf7d4c050 -->
<g id="node9" class="node">
<title>ast.Name object at 0x7dbdf7d4c050</title>
<path fill="#66cdaa" stroke="black" d="M1127.84,-108C1127.84,-108 1097.84,-108 1097.84,-108 1091.84,-108 1085.84,-102 1085.84,-96 1085.84,-96 1085.84,-84 1085.84,-84 1085.84,-78 1091.84,-72 1097.84,-72 1097.84,-72 1127.84,-72 1127.84,-72 1133.84,-72 1139.84,-78 1139.84,-84 1139.84,-84 1139.84,-96 1139.84,-96 1139.84,-102 1133.84,-108 1127.84,-108"/>
<text text-anchor="middle" x="1112.84" y="-86.3" font-family="Times,serif" font-size="14.00">Name</text>
</g>
<!-- ast.Call object at 0x7dbdf7d4c190&#45;&gt;ast.Name object at 0x7dbdf7d4c050 -->
<g id="edge8" class="edge">
<title>ast.Call object at 0x7dbdf7d4c190&#45;&gt;ast.Name object at 0x7dbdf7d4c050</title>
<path fill="none" stroke="black" d="M1167.04,-143.7C1158.23,-135.14 1147.46,-124.66 1137.84,-115.3"/>
<polygon fill="black" stroke="black" points="1140.04,-112.57 1130.43,-108.1 1135.16,-117.58 1140.04,-112.57"/>
</g>
<!-- ast.Name object at 0x7dbdf7d4c210 -->
<g id="node11" class="node">
<title>ast.Name object at 0x7dbdf7d4c210</title>
<path fill="#66cdaa" stroke="black" d="M1199.84,-108C1199.84,-108 1169.84,-108 1169.84,-108 1163.84,-108 1157.84,-102 1157.84,-96 1157.84,-96 1157.84,-84 1157.84,-84 1157.84,-78 1163.84,-72 1169.84,-72 1169.84,-72 1199.84,-72 1199.84,-72 1205.84,-72 1211.84,-78 1211.84,-84 1211.84,-84 1211.84,-96 1211.84,-96 1211.84,-102 1205.84,-108 1199.84,-108"/>
<text text-anchor="middle" x="1184.84" y="-86.3" font-family="Times,serif" font-size="14.00">Name</text>
</g>
<!-- ast.Call object at 0x7dbdf7d4c190&#45;&gt;ast.Name object at 0x7dbdf7d4c210 -->
<g id="edge10" class="edge">
<title>ast.Call object at 0x7dbdf7d4c190&#45;&gt;ast.Name object at 0x7dbdf7d4c210</title>
<path fill="none" stroke="black" d="M1184.84,-143.7C1184.84,-135.98 1184.84,-126.71 1184.84,-118.11"/>
<polygon fill="black" stroke="black" points="1188.34,-118.1 1184.84,-108.1 1181.34,-118.1 1188.34,-118.1"/>
</g>
<!-- ast.Load object at 0x7dbf54602c10 -->
<g id="node10" class="node">
<title>ast.Load object at 0x7dbf54602c10</title>
<path fill="#66cdaa" stroke="black" d="M663.84,-36C663.84,-36 633.84,-36 633.84,-36 627.84,-36 621.84,-30 621.84,-24 621.84,-24 621.84,-12 621.84,-12 621.84,-6 627.84,0 633.84,0 633.84,0 663.84,0 663.84,0 669.84,0 675.84,-6 675.84,-12 675.84,-12 675.84,-24 675.84,-24 675.84,-30 669.84,-36 663.84,-36"/>
<text text-anchor="middle" x="648.84" y="-14.3" font-family="Times,serif" font-size="14.00">Load</text>
</g>
<!-- ast.Name object at 0x7dbdf7d4c050&#45;&gt;ast.Load object at 0x7dbf54602c10 -->
<g id="edge9" class="edge">
<title>ast.Name object at 0x7dbdf7d4c050&#45;&gt;ast.Load object at 0x7dbf54602c10</title>
<path fill="none" stroke="black" d="M1085.67,-75.08C1082.74,-73.9 1079.76,-72.85 1076.84,-72 936.67,-31.36 761.83,-21.88 686.37,-19.67"/>
<polygon fill="black" stroke="black" points="686.07,-16.16 675.98,-19.4 685.88,-23.16 686.07,-16.16"/>
</g>
<!-- ast.Name object at 0x7dbdf7d4c210&#45;&gt;ast.Load object at 0x7dbf54602c10 -->
<g id="edge11" class="edge">
<title>ast.Name object at 0x7dbdf7d4c210&#45;&gt;ast.Load object at 0x7dbf54602c10</title>
<path fill="none" stroke="black" d="M1157.69,-75.02C1154.75,-73.86 1151.77,-72.82 1148.84,-72 980.78,-24.87 770.23,-19.03 686.08,-18.73"/>
<polygon fill="black" stroke="black" points="686,-15.23 675.99,-18.72 685.99,-22.23 686,-15.23"/>
</g>
<!-- ast.Name object at 0x7dbdf7d4c1d0 -->
<g id="node13" class="node">
<title>ast.Name object at 0x7dbdf7d4c1d0</title>
<path fill="#66cdaa" stroke="black" d="M714.84,-468C714.84,-468 684.84,-468 684.84,-468 678.84,-468 672.84,-462 672.84,-456 672.84,-456 672.84,-444 672.84,-444 672.84,-438 678.84,-432 684.84,-432 684.84,-432 714.84,-432 714.84,-432 720.84,-432 726.84,-438 726.84,-444 726.84,-444 726.84,-456 726.84,-456 726.84,-462 720.84,-468 714.84,-468"/>
<text text-anchor="middle" x="699.84" y="-446.3" font-family="Times,serif" font-size="14.00">Name</text>
</g>
<!-- ast.AugAssign object at 0x7dbdf8aa1850&#45;&gt;ast.Name object at 0x7dbdf7d4c1d0 -->
<g id="edge13" class="edge">
<title>ast.AugAssign object at 0x7dbdf8aa1850&#45;&gt;ast.Name object at 0x7dbdf7d4c1d0</title>
<path fill="none" stroke="black" d="M250.56,-517.33C324.05,-510.08 488.7,-492.47 625.84,-468 637.88,-465.85 650.92,-463.03 662.65,-460.3"/>
<polygon fill="black" stroke="black" points="663.64,-463.66 672.56,-457.94 662.02,-456.85 663.64,-463.66"/>
</g>
<!-- ast.Add object at 0x7dbf54603110 -->
<g id="node14" class="node">
<title>ast.Add object at 0x7dbf54603110</title>
<path fill="#66cdaa" stroke="black" d="M273.84,-108C273.84,-108 243.84,-108 243.84,-108 237.84,-108 231.84,-102 231.84,-96 231.84,-96 231.84,-84 231.84,-84 231.84,-78 237.84,-72 243.84,-72 243.84,-72 273.84,-72 273.84,-72 279.84,-72 285.84,-78 285.84,-84 285.84,-84 285.84,-96 285.84,-96 285.84,-102 279.84,-108 273.84,-108"/>
<text text-anchor="middle" x="258.84" y="-86.3" font-family="Times,serif" font-size="14.00">Add</text>
</g>
<!-- ast.AugAssign object at 0x7dbdf8aa1850&#45;&gt;ast.Add object at 0x7dbf54603110 -->
<g id="edge15" class="edge">
<title>ast.AugAssign object at 0x7dbdf8aa1850&#45;&gt;ast.Add object at 0x7dbf54603110</title>
<path fill="none" stroke="black" d="M217.71,-503.74C226.18,-477.25 240.84,-424.79 240.84,-379 240.84,-379 240.84,-379 240.84,-233 240.84,-192.9 247.99,-146.92 253.28,-118.42"/>
<polygon fill="black" stroke="black" points="256.76,-118.88 255.2,-108.4 249.88,-117.56 256.76,-118.88"/>
</g>
<!-- ast.Name object at 0x7dbdf7d4c690 -->
<g id="node15" class="node">
<title>ast.Name object at 0x7dbdf7d4c690</title>
<path fill="#66cdaa" stroke="black" d="M52.84,-324C52.84,-324 22.84,-324 22.84,-324 16.84,-324 10.84,-318 10.84,-312 10.84,-312 10.84,-300 10.84,-300 10.84,-294 16.84,-288 22.84,-288 22.84,-288 52.84,-288 52.84,-288 58.84,-288 64.84,-294 64.84,-300 64.84,-300 64.84,-312 64.84,-312 64.84,-318 58.84,-324 52.84,-324"/>
<text text-anchor="middle" x="37.84" y="-302.3" font-family="Times,serif" font-size="14.00">Name</text>
</g>
<!-- ast.AugAssign object at 0x7dbdf8aa1850&#45;&gt;ast.Name object at 0x7dbdf7d4c690 -->
<g id="edge16" class="edge">
<title>ast.AugAssign object at 0x7dbdf8aa1850&#45;&gt;ast.Name object at 0x7dbdf7d4c690</title>
<path fill="none" stroke="black" d="M197.89,-503.85C167.29,-466.21 94.11,-376.2 58.29,-332.15"/>
<polygon fill="black" stroke="black" points="60.87,-329.78 51.85,-324.23 55.44,-334.2 60.87,-329.78"/>
</g>
<!-- ast.Name object at 0x7dbdf7d4c1d0&#45;&gt;ast.Store object at 0x7dbf54602c90 -->
<g id="edge14" class="edge">
<title>ast.Name object at 0x7dbdf7d4c1d0&#45;&gt;ast.Store object at 0x7dbf54602c90</title>
<path fill="none" stroke="black" d="M727.14,-435.48C730.04,-434.23 732.98,-433.04 735.84,-432 791.79,-411.61 859.13,-395.48 899.92,-386.6"/>
<polygon fill="black" stroke="black" points="900.66,-390.02 909.7,-384.5 899.19,-383.18 900.66,-390.02"/>
</g>
<!-- ast.Name object at 0x7dbdf7d4c690&#45;&gt;ast.Load object at 0x7dbf54602c10 -->
<g id="edge17" class="edge">
<title>ast.Name object at 0x7dbdf7d4c690&#45;&gt;ast.Load object at 0x7dbf54602c10</title>
<path fill="none" stroke="black" d="M31.45,-287.93C22.92,-264.15 8.27,-219.52 2.84,-180 -4.11,-129.44 -0.83,-100 41.84,-72 89.48,-40.74 486.94,-24.55 611.59,-20.21"/>
<polygon fill="black" stroke="black" points="611.91,-23.71 621.78,-19.86 611.67,-16.71 611.91,-23.71"/>
</g>
<!-- ast.Name object at 0x7dbdf7d4c250 -->
<g id="node17" class="node">
<title>ast.Name object at 0x7dbdf7d4c250</title>
<path fill="#66cdaa" stroke="black" d="M1154.84,-468C1154.84,-468 1124.84,-468 1124.84,-468 1118.84,-468 1112.84,-462 1112.84,-456 1112.84,-456 1112.84,-444 1112.84,-444 1112.84,-438 1118.84,-432 1124.84,-432 1124.84,-432 1154.84,-432 1154.84,-432 1160.84,-432 1166.84,-438 1166.84,-444 1166.84,-444 1166.84,-456 1166.84,-456 1166.84,-462 1160.84,-468 1154.84,-468"/>
<text text-anchor="middle" x="1139.84" y="-446.3" font-family="Times,serif" font-size="14.00">Name</text>
</g>
<!-- ast.Assign object at 0x7dbdf7d4c2d0&#45;&gt;ast.Name object at 0x7dbdf7d4c250 -->
<g id="edge19" class="edge">
<title>ast.Assign object at 0x7dbdf7d4c2d0&#45;&gt;ast.Name object at 0x7dbdf7d4c250</title>
<path fill="none" stroke="black" d="M1139.84,-503.7C1139.84,-495.98 1139.84,-486.71 1139.84,-478.11"/>
<polygon fill="black" stroke="black" points="1143.34,-478.1 1139.84,-468.1 1136.34,-478.1 1143.34,-478.1"/>
</g>
<!-- ast.List object at 0x7dbdf7d4c290 -->
<g id="node18" class="node">
<title>ast.List object at 0x7dbdf7d4c290</title>
<path fill="#66cdaa" stroke="black" d="M1254.84,-252C1254.84,-252 1224.84,-252 1224.84,-252 1218.84,-252 1212.84,-246 1212.84,-240 1212.84,-240 1212.84,-228 1212.84,-228 1212.84,-222 1218.84,-216 1224.84,-216 1224.84,-216 1254.84,-216 1254.84,-216 1260.84,-216 1266.84,-222 1266.84,-228 1266.84,-228 1266.84,-240 1266.84,-240 1266.84,-246 1260.84,-252 1254.84,-252"/>
<text text-anchor="middle" x="1239.84" y="-230.3" font-family="Times,serif" font-size="14.00">List</text>
</g>
<!-- ast.Assign object at 0x7dbdf7d4c2d0&#45;&gt;ast.List object at 0x7dbdf7d4c290 -->
<g id="edge21" class="edge">
<title>ast.Assign object at 0x7dbdf7d4c2d0&#45;&gt;ast.List object at 0x7dbdf7d4c290</title>
<path fill="none" stroke="black" d="M1167.08,-507.06C1181.91,-497.99 1199.16,-484.74 1208.84,-468 1247.02,-401.93 1245.96,-308.05 1242.62,-262.25"/>
<polygon fill="black" stroke="black" points="1246.1,-261.88 1241.79,-252.2 1239.12,-262.46 1246.1,-261.88"/>
</g>
<!-- ast.Name object at 0x7dbdf7d4c250&#45;&gt;ast.Store object at 0x7dbf54602c90 -->
<g id="edge20" class="edge">
<title>ast.Name object at 0x7dbdf7d4c250&#45;&gt;ast.Store object at 0x7dbf54602c90</title>
<path fill="none" stroke="black" d="M1112.49,-435.62C1109.59,-434.34 1106.67,-433.11 1103.84,-432 1060.09,-414.82 1008.31,-399.07 974.14,-389.28"/>
<polygon fill="black" stroke="black" points="974.7,-385.8 964.13,-386.44 972.79,-392.54 974.7,-385.8"/>
</g>
<!-- ast.List object at 0x7dbdf7d4c290&#45;&gt;ast.Load object at 0x7dbf54602c10 -->
<g id="edge22" class="edge">
<title>ast.List object at 0x7dbdf7d4c290&#45;&gt;ast.Load object at 0x7dbf54602c10</title>
<path fill="none" stroke="black" d="M1243.91,-215.95C1250.68,-182.92 1259.93,-110.12 1220.84,-72 1182.59,-34.7 807.61,-22.71 686.41,-19.79"/>
<polygon fill="black" stroke="black" points="686.23,-16.29 676.15,-19.55 686.06,-23.28 686.23,-16.29"/>
</g>
<!-- ast.Name object at 0x7dbdf7d4c390 -->
<g id="node20" class="node">
<title>ast.Name object at 0x7dbdf7d4c390</title>
<path fill="#66cdaa" stroke="black" d="M972.84,-612C972.84,-612 942.84,-612 942.84,-612 936.84,-612 930.84,-606 930.84,-600 930.84,-600 930.84,-588 930.84,-588 930.84,-582 936.84,-576 942.84,-576 942.84,-576 972.84,-576 972.84,-576 978.84,-576 984.84,-582 984.84,-588 984.84,-588 984.84,-600 984.84,-600 984.84,-606 978.84,-612 972.84,-612"/>
<text text-anchor="middle" x="957.84" y="-590.3" font-family="Times,serif" font-size="14.00">Name</text>
</g>
<!-- ast.For object at 0x7dbdf8ecfd90&#45;&gt;ast.Name object at 0x7dbdf7d4c390 -->
<g id="edge24" class="edge">
<title>ast.For object at 0x7dbdf8ecfd90&#45;&gt;ast.Name object at 0x7dbdf7d4c390</title>
<path fill="none" stroke="black" d="M957.84,-647.7C957.84,-639.98 957.84,-630.71 957.84,-622.11"/>
<polygon fill="black" stroke="black" points="961.34,-622.1 957.84,-612.1 954.34,-622.1 961.34,-622.1"/>
</g>
<!-- ast.Call object at 0x7dbdf7d4c310 -->
<g id="node21" class="node">
<title>ast.Call object at 0x7dbdf7d4c310</title>
<path fill="#66cdaa" stroke="black" d="M1027.84,-180C1027.84,-180 997.84,-180 997.84,-180 991.84,-180 985.84,-174 985.84,-168 985.84,-168 985.84,-156 985.84,-156 985.84,-150 991.84,-144 997.84,-144 997.84,-144 1027.84,-144 1027.84,-144 1033.84,-144 1039.84,-150 1039.84,-156 1039.84,-156 1039.84,-168 1039.84,-168 1039.84,-174 1033.84,-180 1027.84,-180"/>
<text text-anchor="middle" x="1012.84" y="-158.3" font-family="Times,serif" font-size="14.00">Call</text>
</g>
<!-- ast.For object at 0x7dbdf8ecfd90&#45;&gt;ast.Call object at 0x7dbdf7d4c310 -->
<g id="edge26" class="edge">
<title>ast.For object at 0x7dbdf8ecfd90&#45;&gt;ast.Call object at 0x7dbdf7d4c310</title>
<path fill="none" stroke="black" d="M972,-647.85C979.53,-637.93 988.34,-624.89 993.84,-612 1009.72,-574.8 1012.84,-563.45 1012.84,-523 1012.84,-523 1012.84,-523 1012.84,-305 1012.84,-265 1012.84,-218.65 1012.84,-190.08"/>
<polygon fill="black" stroke="black" points="1016.34,-190.05 1012.84,-180.05 1009.34,-190.05 1016.34,-190.05"/>
</g>
<!-- ast.Assign object at 0x7dbe3c117c10 -->
<g id="node24" class="node">
<title>ast.Assign object at 0x7dbe3c117c10</title>
<path fill="#66cdaa" stroke="black" d="M900.84,-612C900.84,-612 870.84,-612 870.84,-612 864.84,-612 858.84,-606 858.84,-600 858.84,-600 858.84,-588 858.84,-588 858.84,-582 864.84,-576 870.84,-576 870.84,-576 900.84,-576 900.84,-576 906.84,-576 912.84,-582 912.84,-588 912.84,-588 912.84,-600 912.84,-600 912.84,-606 906.84,-612 900.84,-612"/>
<text text-anchor="middle" x="885.84" y="-590.3" font-family="Times,serif" font-size="14.00">Assign</text>
</g>
<!-- ast.For object at 0x7dbdf8ecfd90&#45;&gt;ast.Assign object at 0x7dbe3c117c10 -->
<g id="edge31" class="edge">
<title>ast.For object at 0x7dbdf8ecfd90&#45;&gt;ast.Assign object at 0x7dbe3c117c10</title>
<path fill="none" stroke="black" d="M940.04,-647.7C931.23,-639.14 920.46,-628.66 910.84,-619.3"/>
<polygon fill="black" stroke="black" points="913.04,-616.57 903.43,-612.1 908.16,-621.58 913.04,-616.57"/>
</g>
<!-- ast.For object at 0x7dbdf7d4c550 -->
<g id="node27" class="node">
<title>ast.For object at 0x7dbdf7d4c550</title>
<path fill="#66cdaa" stroke="black" d="M736.84,-612C736.84,-612 706.84,-612 706.84,-612 700.84,-612 694.84,-606 694.84,-600 694.84,-600 694.84,-588 694.84,-588 694.84,-582 700.84,-576 706.84,-576 706.84,-576 736.84,-576 736.84,-576 742.84,-576 748.84,-582 748.84,-588 748.84,-588 748.84,-600 748.84,-600 748.84,-606 742.84,-612 736.84,-612"/>
<text text-anchor="middle" x="721.84" y="-590.3" font-family="Times,serif" font-size="14.00">For</text>
</g>
<!-- ast.For object at 0x7dbdf8ecfd90&#45;&gt;ast.For object at 0x7dbdf7d4c550 -->
<g id="edge35" class="edge">
<title>ast.For object at 0x7dbdf8ecfd90&#45;&gt;ast.For object at 0x7dbdf7d4c550</title>
<path fill="none" stroke="black" d="M930.77,-656.97C888.38,-644.4 806.27,-620.04 758.58,-605.9"/>
<polygon fill="black" stroke="black" points="759.54,-602.53 748.96,-603.04 757.55,-609.24 759.54,-602.53"/>
</g>
<!-- ast.Name object at 0x7dbdf7d4c390&#45;&gt;ast.Store object at 0x7dbf54602c90 -->
<g id="edge25" class="edge">
<title>ast.Name object at 0x7dbdf7d4c390&#45;&gt;ast.Store object at 0x7dbf54602c90</title>
<path fill="none" stroke="black" d="M958.1,-575.9C958.23,-557.96 958.01,-528.94 955.84,-504 952.9,-470.13 946.56,-431.49 942.01,-406.25"/>
<polygon fill="black" stroke="black" points="945.44,-405.51 940.19,-396.31 938.55,-406.77 945.44,-405.51"/>
</g>
<!-- ast.Name object at 0x7dbdf7d4c490 -->
<g id="node22" class="node">
<title>ast.Name object at 0x7dbdf7d4c490</title>
<path fill="#66cdaa" stroke="black" d="M983.84,-108C983.84,-108 953.84,-108 953.84,-108 947.84,-108 941.84,-102 941.84,-96 941.84,-96 941.84,-84 941.84,-84 941.84,-78 947.84,-72 953.84,-72 953.84,-72 983.84,-72 983.84,-72 989.84,-72 995.84,-78 995.84,-84 995.84,-84 995.84,-96 995.84,-96 995.84,-102 989.84,-108 983.84,-108"/>
<text text-anchor="middle" x="968.84" y="-86.3" font-family="Times,serif" font-size="14.00">Name</text>
</g>
<!-- ast.Call object at 0x7dbdf7d4c310&#45;&gt;ast.Name object at 0x7dbdf7d4c490 -->
<g id="edge27" class="edge">
<title>ast.Call object at 0x7dbdf7d4c310&#45;&gt;ast.Name object at 0x7dbdf7d4c490</title>
<path fill="none" stroke="black" d="M1001.96,-143.7C996.85,-135.56 990.64,-125.69 984.99,-116.7"/>
<polygon fill="black" stroke="black" points="987.88,-114.71 979.59,-108.1 981.95,-118.43 987.88,-114.71"/>
</g>
<!-- ast.Name object at 0x7dbdf7d4c410 -->
<g id="node23" class="node">
<title>ast.Name object at 0x7dbdf7d4c410</title>
<path fill="#66cdaa" stroke="black" d="M1055.84,-108C1055.84,-108 1025.84,-108 1025.84,-108 1019.84,-108 1013.84,-102 1013.84,-96 1013.84,-96 1013.84,-84 1013.84,-84 1013.84,-78 1019.84,-72 1025.84,-72 1025.84,-72 1055.84,-72 1055.84,-72 1061.84,-72 1067.84,-78 1067.84,-84 1067.84,-84 1067.84,-96 1067.84,-96 1067.84,-102 1061.84,-108 1055.84,-108"/>
<text text-anchor="middle" x="1040.84" y="-86.3" font-family="Times,serif" font-size="14.00">Name</text>
</g>
<!-- ast.Call object at 0x7dbdf7d4c310&#45;&gt;ast.Name object at 0x7dbdf7d4c410 -->
<g id="edge29" class="edge">
<title>ast.Call object at 0x7dbdf7d4c310&#45;&gt;ast.Name object at 0x7dbdf7d4c410</title>
<path fill="none" stroke="black" d="M1019.76,-143.7C1022.91,-135.81 1026.72,-126.3 1030.22,-117.55"/>
<polygon fill="black" stroke="black" points="1033.53,-118.69 1034,-108.1 1027.03,-116.09 1033.53,-118.69"/>
</g>
<!-- ast.Name object at 0x7dbdf7d4c490&#45;&gt;ast.Load object at 0x7dbf54602c10 -->
<g id="edge28" class="edge">
<title>ast.Name object at 0x7dbdf7d4c490&#45;&gt;ast.Load object at 0x7dbf54602c10</title>
<path fill="none" stroke="black" d="M941.62,-75.26C938.69,-74.05 935.73,-72.94 932.84,-72 846.76,-44.16 740.99,-29.24 686.01,-22.85"/>
<polygon fill="black" stroke="black" points="686.36,-19.37 676.03,-21.72 685.58,-26.33 686.36,-19.37"/>
</g>
<!-- ast.Name object at 0x7dbdf7d4c410&#45;&gt;ast.Load object at 0x7dbf54602c10 -->
<g id="edge30" class="edge">
<title>ast.Name object at 0x7dbdf7d4c410&#45;&gt;ast.Load object at 0x7dbf54602c10</title>
<path fill="none" stroke="black" d="M1013.65,-75.15C1010.72,-73.96 1007.75,-72.88 1004.84,-72 892.12,-37.81 752.37,-25.24 686.52,-20.98"/>
<polygon fill="black" stroke="black" points="686.43,-17.47 676.23,-20.34 685.99,-24.45 686.43,-17.47"/>
</g>
<!-- ast.Name object at 0x7dbdf7d4c4d0 -->
<g id="node25" class="node">
<title>ast.Name object at 0x7dbdf7d4c4d0</title>
<path fill="#66cdaa" stroke="black" d="M934.84,-540C934.84,-540 904.84,-540 904.84,-540 898.84,-540 892.84,-534 892.84,-528 892.84,-528 892.84,-516 892.84,-516 892.84,-510 898.84,-504 904.84,-504 904.84,-504 934.84,-504 934.84,-504 940.84,-504 946.84,-510 946.84,-516 946.84,-516 946.84,-528 946.84,-528 946.84,-534 940.84,-540 934.84,-540"/>
<text text-anchor="middle" x="919.84" y="-518.3" font-family="Times,serif" font-size="14.00">Name</text>
</g>
<!-- ast.Assign object at 0x7dbe3c117c10&#45;&gt;ast.Name object at 0x7dbdf7d4c4d0 -->
<g id="edge32" class="edge">
<title>ast.Assign object at 0x7dbe3c117c10&#45;&gt;ast.Name object at 0x7dbdf7d4c4d0</title>
<path fill="none" stroke="black" d="M894.24,-575.7C898.11,-567.73 902.79,-558.1 907.08,-549.26"/>
<polygon fill="black" stroke="black" points="910.31,-550.63 911.53,-540.1 904.01,-547.57 910.31,-550.63"/>
</g>
<!-- ast.Constant object at 0x7dbdf7d4c3d0 -->
<g id="node26" class="node">
<title>ast.Constant object at 0x7dbdf7d4c3d0</title>
<path fill="#66cdaa" stroke="black" d="M862.34,-540C862.34,-540 821.34,-540 821.34,-540 815.34,-540 809.34,-534 809.34,-528 809.34,-528 809.34,-516 809.34,-516 809.34,-510 815.34,-504 821.34,-504 821.34,-504 862.34,-504 862.34,-504 868.34,-504 874.34,-510 874.34,-516 874.34,-516 874.34,-528 874.34,-528 874.34,-534 868.34,-540 862.34,-540"/>
<text text-anchor="middle" x="841.84" y="-518.3" font-family="Times,serif" font-size="14.00">Constant</text>
</g>
<!-- ast.Assign object at 0x7dbe3c117c10&#45;&gt;ast.Constant object at 0x7dbdf7d4c3d0 -->
<g id="edge34" class="edge">
<title>ast.Assign object at 0x7dbe3c117c10&#45;&gt;ast.Constant object at 0x7dbdf7d4c3d0</title>
<path fill="none" stroke="black" d="M874.96,-575.7C869.85,-567.56 863.64,-557.69 857.99,-548.7"/>
<polygon fill="black" stroke="black" points="860.88,-546.71 852.59,-540.1 854.95,-550.43 860.88,-546.71"/>
</g>
<!-- ast.Name object at 0x7dbdf7d4c4d0&#45;&gt;ast.Store object at 0x7dbf54602c90 -->
<g id="edge33" class="edge">
<title>ast.Name object at 0x7dbdf7d4c4d0&#45;&gt;ast.Store object at 0x7dbf54602c90</title>
<path fill="none" stroke="black" d="M921.89,-503.87C924.79,-479.67 930.11,-435.21 933.56,-406.39"/>
<polygon fill="black" stroke="black" points="937.07,-406.53 934.78,-396.19 930.12,-405.7 937.07,-406.53"/>
</g>
<!-- ast.Name object at 0x7dbdf7d4c450 -->
<g id="node28" class="node">
<title>ast.Name object at 0x7dbdf7d4c450</title>
<path fill="#66cdaa" stroke="black" d="M778.84,-540C778.84,-540 748.84,-540 748.84,-540 742.84,-540 736.84,-534 736.84,-528 736.84,-528 736.84,-516 736.84,-516 736.84,-510 742.84,-504 748.84,-504 748.84,-504 778.84,-504 778.84,-504 784.84,-504 790.84,-510 790.84,-516 790.84,-516 790.84,-528 790.84,-528 790.84,-534 784.84,-540 778.84,-540"/>
<text text-anchor="middle" x="763.84" y="-518.3" font-family="Times,serif" font-size="14.00">Name</text>
</g>
<!-- ast.For object at 0x7dbdf7d4c550&#45;&gt;ast.Name object at 0x7dbdf7d4c450 -->
<g id="edge36" class="edge">
<title>ast.For object at 0x7dbdf7d4c550&#45;&gt;ast.Name object at 0x7dbdf7d4c450</title>
<path fill="none" stroke="black" d="M732.22,-575.7C737.1,-567.56 743.03,-557.69 748.42,-548.7"/>
<polygon fill="black" stroke="black" points="751.43,-550.48 753.58,-540.1 745.43,-546.88 751.43,-550.48"/>
</g>
<!-- ast.Call object at 0x7dbdf7d4ca10 -->
<g id="node29" class="node">
<title>ast.Call object at 0x7dbdf7d4ca10</title>
<path fill="#66cdaa" stroke="black" d="M163.84,-252C163.84,-252 133.84,-252 133.84,-252 127.84,-252 121.84,-246 121.84,-240 121.84,-240 121.84,-228 121.84,-228 121.84,-222 127.84,-216 133.84,-216 133.84,-216 163.84,-216 163.84,-216 169.84,-216 175.84,-222 175.84,-228 175.84,-228 175.84,-240 175.84,-240 175.84,-246 169.84,-252 163.84,-252"/>
<text text-anchor="middle" x="148.84" y="-230.3" font-family="Times,serif" font-size="14.00">Call</text>
</g>
<!-- ast.For object at 0x7dbdf7d4c550&#45;&gt;ast.Call object at 0x7dbdf7d4ca10 -->
<g id="edge38" class="edge">
<title>ast.For object at 0x7dbdf7d4c550&#45;&gt;ast.Call object at 0x7dbdf7d4ca10</title>
<path fill="none" stroke="black" d="M694.81,-582.28C688.63,-580.04 682.05,-577.8 675.84,-576 602.5,-554.71 578.43,-569.12 507.84,-540 354.04,-476.56 217.97,-321.35 168.58,-260.28"/>
<polygon fill="black" stroke="black" points="171.18,-257.92 162.19,-252.3 165.71,-262.3 171.18,-257.92"/>
</g>
<!-- ast.AugAssign object at 0x7dbdf9043290 -->
<g id="node35" class="node">
<title>ast.AugAssign object at 0x7dbdf9043290</title>
<path fill="#66cdaa" stroke="black" d="M706.34,-540C706.34,-540 653.34,-540 653.34,-540 647.34,-540 641.34,-534 641.34,-528 641.34,-528 641.34,-516 641.34,-516 641.34,-510 647.34,-504 653.34,-504 653.34,-504 706.34,-504 706.34,-504 712.34,-504 718.34,-510 718.34,-516 718.34,-516 718.34,-528 718.34,-528 718.34,-534 712.34,-540 706.34,-540"/>
<text text-anchor="middle" x="679.84" y="-518.3" font-family="Times,serif" font-size="14.00">AugAssign</text>
</g>
<!-- ast.For object at 0x7dbdf7d4c550&#45;&gt;ast.AugAssign object at 0x7dbdf9043290 -->
<g id="edge49" class="edge">
<title>ast.For object at 0x7dbdf7d4c550&#45;&gt;ast.AugAssign object at 0x7dbdf9043290</title>
<path fill="none" stroke="black" d="M711.46,-575.7C706.57,-567.56 700.65,-557.69 695.26,-548.7"/>
<polygon fill="black" stroke="black" points="698.25,-546.88 690.1,-540.1 692.25,-550.48 698.25,-546.88"/>
</g>
<!-- ast.If object at 0x7dbdf7d4c8d0 -->
<g id="node41" class="node">
<title>ast.If object at 0x7dbdf7d4c8d0</title>
<path fill="#66cdaa" stroke="black" d="M558.84,-540C558.84,-540 528.84,-540 528.84,-540 522.84,-540 516.84,-534 516.84,-528 516.84,-528 516.84,-516 516.84,-516 516.84,-510 522.84,-504 528.84,-504 528.84,-504 558.84,-504 558.84,-504 564.84,-504 570.84,-510 570.84,-516 570.84,-516 570.84,-528 570.84,-528 570.84,-534 564.84,-540 558.84,-540"/>
<text text-anchor="middle" x="543.84" y="-518.3" font-family="Times,serif" font-size="14.00">If</text>
</g>
<!-- ast.For object at 0x7dbdf7d4c550&#45;&gt;ast.If object at 0x7dbdf7d4c8d0 -->
<g id="edge59" class="edge">
<title>ast.For object at 0x7dbdf7d4c550&#45;&gt;ast.If object at 0x7dbdf7d4c8d0</title>
<path fill="none" stroke="black" d="M694.53,-581.57C689.97,-579.69 685.27,-577.78 680.84,-576 647,-562.44 608.24,-547.5 580.6,-536.95"/>
<polygon fill="black" stroke="black" points="581.54,-533.56 570.95,-533.27 579.05,-540.1 581.54,-533.56"/>
</g>
<!-- ast.Name object at 0x7dbdf7d4c450&#45;&gt;ast.Store object at 0x7dbf54602c90 -->
<g id="edge37" class="edge">
<title>ast.Name object at 0x7dbdf7d4c450&#45;&gt;ast.Store object at 0x7dbf54602c90</title>
<path fill="none" stroke="black" d="M790.91,-508.55C794.25,-507.02 797.62,-505.47 800.84,-504 835.92,-487.95 850.69,-493.28 879.84,-468 899.76,-450.72 915.28,-424.79 925.06,-405.37"/>
<polygon fill="black" stroke="black" points="928.31,-406.69 929.52,-396.16 922.01,-403.64 928.31,-406.69"/>
</g>
<!-- ast.Name object at 0x7dbdf7d4c610 -->
<g id="node30" class="node">
<title>ast.Name object at 0x7dbdf7d4c610</title>
<path fill="#66cdaa" stroke="black" d="M53.84,-180C53.84,-180 23.84,-180 23.84,-180 17.84,-180 11.84,-174 11.84,-168 11.84,-168 11.84,-156 11.84,-156 11.84,-150 17.84,-144 23.84,-144 23.84,-144 53.84,-144 53.84,-144 59.84,-144 65.84,-150 65.84,-156 65.84,-156 65.84,-168 65.84,-168 65.84,-174 59.84,-180 53.84,-180"/>
<text text-anchor="middle" x="38.84" y="-158.3" font-family="Times,serif" font-size="14.00">Name</text>
</g>
<!-- ast.Call object at 0x7dbdf7d4ca10&#45;&gt;ast.Name object at 0x7dbdf7d4c610 -->
<g id="edge39" class="edge">
<title>ast.Call object at 0x7dbdf7d4ca10&#45;&gt;ast.Name object at 0x7dbdf7d4c610</title>
<path fill="none" stroke="black" d="M121.93,-215.88C107.68,-206.81 89.99,-195.55 74.6,-185.76"/>
<polygon fill="black" stroke="black" points="76.17,-182.61 65.85,-180.19 72.41,-188.51 76.17,-182.61"/>
</g>
<!-- ast.Name object at 0x7dbdf7d4c590 -->
<g id="node31" class="node">
<title>ast.Name object at 0x7dbdf7d4c590</title>
<path fill="#66cdaa" stroke="black" d="M127.84,-180C127.84,-180 97.84,-180 97.84,-180 91.84,-180 85.84,-174 85.84,-168 85.84,-168 85.84,-156 85.84,-156 85.84,-150 91.84,-144 97.84,-144 97.84,-144 127.84,-144 127.84,-144 133.84,-144 139.84,-150 139.84,-156 139.84,-156 139.84,-168 139.84,-168 139.84,-174 133.84,-180 127.84,-180"/>
<text text-anchor="middle" x="112.84" y="-158.3" font-family="Times,serif" font-size="14.00">Name</text>
</g>
<!-- ast.Call object at 0x7dbdf7d4ca10&#45;&gt;ast.Name object at 0x7dbdf7d4c590 -->
<g id="edge41" class="edge">
<title>ast.Call object at 0x7dbdf7d4ca10&#45;&gt;ast.Name object at 0x7dbdf7d4c590</title>
<path fill="none" stroke="black" d="M139.94,-215.7C135.84,-207.73 130.89,-198.1 126.35,-189.26"/>
<polygon fill="black" stroke="black" points="129.32,-187.4 121.64,-180.1 123.1,-190.6 129.32,-187.4"/>
</g>
<!-- ast.BinOp object at 0x7dbdf7d4c5d0 -->
<g id="node32" class="node">
<title>ast.BinOp object at 0x7dbdf7d4c5d0</title>
<path fill="#66cdaa" stroke="black" d="M200.84,-180C200.84,-180 170.84,-180 170.84,-180 164.84,-180 158.84,-174 158.84,-168 158.84,-168 158.84,-156 158.84,-156 158.84,-150 164.84,-144 170.84,-144 170.84,-144 200.84,-144 200.84,-144 206.84,-144 212.84,-150 212.84,-156 212.84,-156 212.84,-168 212.84,-168 212.84,-174 206.84,-180 200.84,-180"/>
<text text-anchor="middle" x="185.84" y="-158.3" font-family="Times,serif" font-size="14.00">BinOp</text>
</g>
<!-- ast.Call object at 0x7dbdf7d4ca10&#45;&gt;ast.BinOp object at 0x7dbdf7d4c5d0 -->
<g id="edge43" class="edge">
<title>ast.Call object at 0x7dbdf7d4ca10&#45;&gt;ast.BinOp object at 0x7dbdf7d4c5d0</title>
<path fill="none" stroke="black" d="M157.98,-215.7C162.24,-207.64 167.39,-197.89 172.11,-188.98"/>
<polygon fill="black" stroke="black" points="175.22,-190.58 176.8,-180.1 169.03,-187.31 175.22,-190.58"/>
</g>
<!-- ast.Name object at 0x7dbdf7d4c610&#45;&gt;ast.Load object at 0x7dbf54602c10 -->
<g id="edge40" class="edge">
<title>ast.Name object at 0x7dbdf7d4c610&#45;&gt;ast.Load object at 0x7dbf54602c10</title>
<path fill="none" stroke="black" d="M39.12,-143.81C40.47,-123.22 46.12,-89.33 67.84,-72 110.3,-38.12 489.59,-23.81 611.37,-20.06"/>
<polygon fill="black" stroke="black" points="611.79,-23.54 621.68,-19.74 611.58,-16.55 611.79,-23.54"/>
</g>
<!-- ast.Name object at 0x7dbdf7d4c590&#45;&gt;ast.Load object at 0x7dbf54602c10 -->
<g id="edge42" class="edge">
<title>ast.Name object at 0x7dbdf7d4c590&#45;&gt;ast.Load object at 0x7dbf54602c10</title>
<path fill="none" stroke="black" d="M96.91,-143.96C80.61,-124.45 60.12,-92.54 78.84,-72 114.7,-32.65 489.89,-22.04 611.22,-19.63"/>
<polygon fill="black" stroke="black" points="611.56,-23.12 621.49,-19.43 611.43,-16.12 611.56,-23.12"/>
</g>
<!-- ast.BinOp object at 0x7dbdf7d4c5d0&#45;&gt;ast.Add object at 0x7dbf54603110 -->
<g id="edge46" class="edge">
<title>ast.BinOp object at 0x7dbdf7d4c5d0&#45;&gt;ast.Add object at 0x7dbf54603110</title>
<path fill="none" stroke="black" d="M203.88,-143.7C212.9,-135.05 223.96,-124.45 233.78,-115.03"/>
<polygon fill="black" stroke="black" points="236.21,-117.55 241,-108.1 231.36,-112.5 236.21,-117.55"/>
</g>
<!-- ast.Name object at 0x7dbdf7d4c710 -->
<g id="node33" class="node">
<title>ast.Name object at 0x7dbdf7d4c710</title>
<path fill="#66cdaa" stroke="black" d="M201.84,-108C201.84,-108 171.84,-108 171.84,-108 165.84,-108 159.84,-102 159.84,-96 159.84,-96 159.84,-84 159.84,-84 159.84,-78 165.84,-72 171.84,-72 171.84,-72 201.84,-72 201.84,-72 207.84,-72 213.84,-78 213.84,-84 213.84,-84 213.84,-96 213.84,-96 213.84,-102 207.84,-108 201.84,-108"/>
<text text-anchor="middle" x="186.84" y="-86.3" font-family="Times,serif" font-size="14.00">Name</text>
</g>
<!-- ast.BinOp object at 0x7dbdf7d4c5d0&#45;&gt;ast.Name object at 0x7dbdf7d4c710 -->
<g id="edge44" class="edge">
<title>ast.BinOp object at 0x7dbdf7d4c5d0&#45;&gt;ast.Name object at 0x7dbdf7d4c710</title>
<path fill="none" stroke="black" d="M186.09,-143.7C186.2,-135.98 186.33,-126.71 186.45,-118.11"/>
<polygon fill="black" stroke="black" points="189.95,-118.15 186.59,-108.1 182.95,-118.05 189.95,-118.15"/>
</g>
<!-- ast.Name object at 0x7dbdf7d4c350 -->
<g id="node34" class="node">
<title>ast.Name object at 0x7dbdf7d4c350</title>
<path fill="#66cdaa" stroke="black" d="M129.84,-108C129.84,-108 99.84,-108 99.84,-108 93.84,-108 87.84,-102 87.84,-96 87.84,-96 87.84,-84 87.84,-84 87.84,-78 93.84,-72 99.84,-72 99.84,-72 129.84,-72 129.84,-72 135.84,-72 141.84,-78 141.84,-84 141.84,-84 141.84,-96 141.84,-96 141.84,-102 135.84,-108 129.84,-108"/>
<text text-anchor="middle" x="114.84" y="-86.3" font-family="Times,serif" font-size="14.00">Name</text>
</g>
<!-- ast.BinOp object at 0x7dbdf7d4c5d0&#45;&gt;ast.Name object at 0x7dbdf7d4c350 -->
<g id="edge47" class="edge">
<title>ast.BinOp object at 0x7dbdf7d4c5d0&#45;&gt;ast.Name object at 0x7dbdf7d4c350</title>
<path fill="none" stroke="black" d="M168.29,-143.7C159.6,-135.14 148.98,-124.66 139.49,-115.3"/>
<polygon fill="black" stroke="black" points="141.77,-112.63 132.19,-108.1 136.85,-117.62 141.77,-112.63"/>
</g>
<!-- ast.Name object at 0x7dbdf7d4c710&#45;&gt;ast.Load object at 0x7dbf54602c10 -->
<g id="edge45" class="edge">
<title>ast.Name object at 0x7dbdf7d4c710&#45;&gt;ast.Load object at 0x7dbf54602c10</title>
<path fill="none" stroke="black" d="M214.01,-75.08C216.94,-73.91 219.92,-72.85 222.84,-72 362.35,-31.51 536.37,-21.95 611.48,-19.7"/>
<polygon fill="black" stroke="black" points="611.92,-23.19 621.83,-19.41 611.73,-16.19 611.92,-23.19"/>
</g>
<!-- ast.Name object at 0x7dbdf7d4c350&#45;&gt;ast.Load object at 0x7dbf54602c10 -->
<g id="edge48" class="edge">
<title>ast.Name object at 0x7dbdf7d4c350&#45;&gt;ast.Load object at 0x7dbf54602c10</title>
<path fill="none" stroke="black" d="M141.99,-75.02C144.93,-73.86 147.91,-72.82 150.84,-72 318.22,-25.03 527.93,-19.1 611.74,-18.75"/>
<polygon fill="black" stroke="black" points="611.8,-22.25 621.79,-18.74 611.79,-15.25 611.8,-22.25"/>
</g>
<!-- ast.Name object at 0x7dbdf7d4c7d0 -->
<g id="node36" class="node">
<title>ast.Name object at 0x7dbdf7d4c7d0</title>
<path fill="#66cdaa" stroke="black" d="M858.84,-468C858.84,-468 828.84,-468 828.84,-468 822.84,-468 816.84,-462 816.84,-456 816.84,-456 816.84,-444 816.84,-444 816.84,-438 822.84,-432 828.84,-432 828.84,-432 858.84,-432 858.84,-432 864.84,-432 870.84,-438 870.84,-444 870.84,-444 870.84,-456 870.84,-456 870.84,-462 864.84,-468 858.84,-468"/>
<text text-anchor="middle" x="843.84" y="-446.3" font-family="Times,serif" font-size="14.00">Name</text>
</g>
<!-- ast.AugAssign object at 0x7dbdf9043290&#45;&gt;ast.Name object at 0x7dbdf7d4c7d0 -->
<g id="edge50" class="edge">
<title>ast.AugAssign object at 0x7dbdf9043290&#45;&gt;ast.Name object at 0x7dbdf7d4c7d0</title>
<path fill="none" stroke="black" d="M718.41,-505.6C741.83,-496.12 772.5,-483.48 807.34,-468.13"/>
<polygon fill="black" stroke="black" points="809.05,-471.2 816.78,-463.95 806.22,-464.8 809.05,-471.2"/>
</g>
<!-- ast.Mult object at 0x7dbf54603210 -->
<g id="node37" class="node">
<title>ast.Mult object at 0x7dbf54603210</title>
<path fill="#66cdaa" stroke="black" d="M786.84,-468C786.84,-468 756.84,-468 756.84,-468 750.84,-468 744.84,-462 744.84,-456 744.84,-456 744.84,-444 744.84,-444 744.84,-438 750.84,-432 756.84,-432 756.84,-432 786.84,-432 786.84,-432 792.84,-432 798.84,-438 798.84,-444 798.84,-444 798.84,-456 798.84,-456 798.84,-462 792.84,-468 786.84,-468"/>
<text text-anchor="middle" x="771.84" y="-446.3" font-family="Times,serif" font-size="14.00">Mult</text>
</g>
<!-- ast.AugAssign object at 0x7dbdf9043290&#45;&gt;ast.Mult object at 0x7dbf54603210 -->
<g id="edge52" class="edge">
<title>ast.AugAssign object at 0x7dbdf9043290&#45;&gt;ast.Mult object at 0x7dbf54603210</title>
<path fill="none" stroke="black" d="M702.58,-503.7C714.28,-494.8 728.7,-483.82 741.35,-474.2"/>
<polygon fill="black" stroke="black" points="743.52,-476.94 749.36,-468.1 739.28,-471.37 743.52,-476.94"/>
</g>
<!-- ast.Subscript object at 0x7dbdf7d4c750 -->
<g id="node38" class="node">
<title>ast.Subscript object at 0x7dbdf7d4c750</title>
<path fill="#66cdaa" stroke="black" d="M839.84,-180C839.84,-180 795.84,-180 795.84,-180 789.84,-180 783.84,-174 783.84,-168 783.84,-168 783.84,-156 783.84,-156 783.84,-150 789.84,-144 795.84,-144 795.84,-144 839.84,-144 839.84,-144 845.84,-144 851.84,-150 851.84,-156 851.84,-156 851.84,-168 851.84,-168 851.84,-174 845.84,-180 839.84,-180"/>
<text text-anchor="middle" x="817.84" y="-158.3" font-family="Times,serif" font-size="14.00">Subscript</text>
</g>
<!-- ast.AugAssign object at 0x7dbdf9043290&#45;&gt;ast.Subscript object at 0x7dbdf7d4c750 -->
<g id="edge53" class="edge">
<title>ast.AugAssign object at 0x7dbdf9043290&#45;&gt;ast.Subscript object at 0x7dbdf7d4c750</title>
<path fill="none" stroke="black" d="M670.62,-503.93C661.87,-485.25 651.72,-454.89 663.84,-432 677.17,-406.84 698.33,-417.64 716.84,-396 770.81,-332.91 800.04,-236.54 811.71,-190.01"/>
<polygon fill="black" stroke="black" points="815.16,-190.62 814.13,-180.08 808.36,-188.97 815.16,-190.62"/>
</g>
<!-- ast.Name object at 0x7dbdf7d4c7d0&#45;&gt;ast.Store object at 0x7dbf54602c90 -->
<g id="edge51" class="edge">
<title>ast.Name object at 0x7dbdf7d4c7d0&#45;&gt;ast.Store object at 0x7dbf54602c90</title>
<path fill="none" stroke="black" d="M866.83,-431.7C878.65,-422.8 893.23,-411.82 906.02,-402.2"/>
<polygon fill="black" stroke="black" points="908.23,-404.91 914.11,-396.1 904.02,-399.32 908.23,-404.91"/>
</g>
<!-- ast.Subscript object at 0x7dbdf7d4c750&#45;&gt;ast.Load object at 0x7dbf54602c10 -->
<g id="edge58" class="edge">
<title>ast.Subscript object at 0x7dbdf7d4c750&#45;&gt;ast.Load object at 0x7dbf54602c10</title>
<path fill="none" stroke="black" d="M824.81,-143.74C831.41,-124.31 838.22,-92.77 822.84,-72 791.54,-29.75 727.35,-20.04 686.29,-18.41"/>
<polygon fill="black" stroke="black" points="686.22,-14.91 676.13,-18.16 686.04,-21.91 686.22,-14.91"/>
</g>
<!-- ast.Name object at 0x7dbdf7d4c850 -->
<g id="node39" class="node">
<title>ast.Name object at 0x7dbdf7d4c850</title>
<path fill="#66cdaa" stroke="black" d="M911.84,-108C911.84,-108 881.84,-108 881.84,-108 875.84,-108 869.84,-102 869.84,-96 869.84,-96 869.84,-84 869.84,-84 869.84,-78 875.84,-72 881.84,-72 881.84,-72 911.84,-72 911.84,-72 917.84,-72 923.84,-78 923.84,-84 923.84,-84 923.84,-96 923.84,-96 923.84,-102 917.84,-108 911.84,-108"/>
<text text-anchor="middle" x="896.84" y="-86.3" font-family="Times,serif" font-size="14.00">Name</text>
</g>
<!-- ast.Subscript object at 0x7dbdf7d4c750&#45;&gt;ast.Name object at 0x7dbdf7d4c850 -->
<g id="edge54" class="edge">
<title>ast.Subscript object at 0x7dbdf7d4c750&#45;&gt;ast.Name object at 0x7dbdf7d4c850</title>
<path fill="none" stroke="black" d="M837.37,-143.7C847.22,-134.97 859.32,-124.24 870.03,-114.75"/>
<polygon fill="black" stroke="black" points="872.37,-117.36 877.54,-108.1 867.73,-112.12 872.37,-117.36"/>
</g>
<!-- ast.Name object at 0x7dbdf7d4c150 -->
<g id="node40" class="node">
<title>ast.Name object at 0x7dbdf7d4c150</title>
<path fill="#66cdaa" stroke="black" d="M801.84,-108C801.84,-108 771.84,-108 771.84,-108 765.84,-108 759.84,-102 759.84,-96 759.84,-96 759.84,-84 759.84,-84 759.84,-78 765.84,-72 771.84,-72 771.84,-72 801.84,-72 801.84,-72 807.84,-72 813.84,-78 813.84,-84 813.84,-84 813.84,-96 813.84,-96 813.84,-102 807.84,-108 801.84,-108"/>
<text text-anchor="middle" x="786.84" y="-86.3" font-family="Times,serif" font-size="14.00">Name</text>
</g>
<!-- ast.Subscript object at 0x7dbdf7d4c750&#45;&gt;ast.Name object at 0x7dbdf7d4c150 -->
<g id="edge56" class="edge">
<title>ast.Subscript object at 0x7dbdf7d4c750&#45;&gt;ast.Name object at 0x7dbdf7d4c150</title>
<path fill="none" stroke="black" d="M810.18,-143.7C806.65,-135.73 802.38,-126.1 798.47,-117.26"/>
<polygon fill="black" stroke="black" points="801.66,-115.83 794.41,-108.1 795.26,-118.67 801.66,-115.83"/>
</g>
<!-- ast.Name object at 0x7dbdf7d4c850&#45;&gt;ast.Load object at 0x7dbf54602c10 -->
<g id="edge55" class="edge">
<title>ast.Name object at 0x7dbdf7d4c850&#45;&gt;ast.Load object at 0x7dbf54602c10</title>
<path fill="none" stroke="black" d="M869.7,-77.11C865.11,-75.29 860.37,-73.51 855.84,-72 797.44,-52.53 727.78,-36.03 685.99,-26.83"/>
<polygon fill="black" stroke="black" points="686.51,-23.36 675.99,-24.66 685.02,-30.2 686.51,-23.36"/>
</g>
<!-- ast.Name object at 0x7dbdf7d4c150&#45;&gt;ast.Load object at 0x7dbf54602c10 -->
<g id="edge57" class="edge">
<title>ast.Name object at 0x7dbdf7d4c150&#45;&gt;ast.Load object at 0x7dbf54602c10</title>
<path fill="none" stroke="black" d="M759.57,-75.17C738.31,-64.38 708.58,-49.3 685.27,-37.48"/>
<polygon fill="black" stroke="black" points="686.55,-34.2 676.05,-32.8 683.38,-40.45 686.55,-34.2"/>
</g>
<!-- ast.Compare object at 0x7dbdf7d4c790 -->
<g id="node42" class="node">
<title>ast.Compare object at 0x7dbdf7d4c790</title>
<path fill="#66cdaa" stroke="black" d="M604.34,-468C604.34,-468 561.34,-468 561.34,-468 555.34,-468 549.34,-462 549.34,-456 549.34,-456 549.34,-444 549.34,-444 549.34,-438 555.34,-432 561.34,-432 561.34,-432 604.34,-432 604.34,-432 610.34,-432 616.34,-438 616.34,-444 616.34,-444 616.34,-456 616.34,-456 616.34,-462 610.34,-468 604.34,-468"/>
<text text-anchor="middle" x="582.84" y="-446.3" font-family="Times,serif" font-size="14.00">Compare</text>
</g>
<!-- ast.If object at 0x7dbdf7d4c8d0&#45;&gt;ast.Compare object at 0x7dbdf7d4c790 -->
<g id="edge60" class="edge">
<title>ast.If object at 0x7dbdf7d4c8d0&#45;&gt;ast.Compare object at 0x7dbdf7d4c790</title>
<path fill="none" stroke="black" d="M553.48,-503.7C557.97,-495.64 563.4,-485.89 568.36,-476.98"/>
<polygon fill="black" stroke="black" points="571.5,-478.54 573.31,-468.1 565.38,-475.14 571.5,-478.54"/>
</g>
<!-- ast.Expr object at 0x7dbdf72c1dd0 -->
<g id="node46" class="node">
<title>ast.Expr object at 0x7dbdf72c1dd0</title>
<path fill="#66cdaa" stroke="black" d="M518.84,-468C518.84,-468 488.84,-468 488.84,-468 482.84,-468 476.84,-462 476.84,-456 476.84,-456 476.84,-444 476.84,-444 476.84,-438 482.84,-432 488.84,-432 488.84,-432 518.84,-432 518.84,-432 524.84,-432 530.84,-438 530.84,-444 530.84,-444 530.84,-456 530.84,-456 530.84,-462 524.84,-468 518.84,-468"/>
<text text-anchor="middle" x="503.84" y="-446.3" font-family="Times,serif" font-size="14.00">Expr</text>
</g>
<!-- ast.If object at 0x7dbdf7d4c8d0&#45;&gt;ast.Expr object at 0x7dbdf72c1dd0 -->
<g id="edge65" class="edge">
<title>ast.If object at 0x7dbdf7d4c8d0&#45;&gt;ast.Expr object at 0x7dbdf72c1dd0</title>
<path fill="none" stroke="black" d="M533.95,-503.7C529.35,-495.64 523.78,-485.89 518.69,-476.98"/>
<polygon fill="black" stroke="black" points="521.61,-475.05 513.61,-468.1 515.54,-478.52 521.61,-475.05"/>
</g>
<!-- ast.If object at 0x7dbdf7d4d690 -->
<g id="node57" class="node">
<title>ast.If object at 0x7dbdf7d4d690</title>
<path fill="#66cdaa" stroke="black" d="M446.84,-468C446.84,-468 416.84,-468 416.84,-468 410.84,-468 404.84,-462 404.84,-456 404.84,-456 404.84,-444 404.84,-444 404.84,-438 410.84,-432 416.84,-432 416.84,-432 446.84,-432 446.84,-432 452.84,-432 458.84,-438 458.84,-444 458.84,-444 458.84,-456 458.84,-456 458.84,-462 452.84,-468 446.84,-468"/>
<text text-anchor="middle" x="431.84" y="-446.3" font-family="Times,serif" font-size="14.00">If</text>
</g>
<!-- ast.If object at 0x7dbdf7d4c8d0&#45;&gt;ast.If object at 0x7dbdf7d4d690 -->
<g id="edge83" class="edge">
<title>ast.If object at 0x7dbdf7d4c8d0&#45;&gt;ast.If object at 0x7dbdf7d4d690</title>
<path fill="none" stroke="black" d="M516.73,-504.05C501.98,-494.84 483.55,-483.32 467.63,-473.37"/>
<polygon fill="black" stroke="black" points="469.42,-470.36 459.09,-468.03 465.71,-476.3 469.42,-470.36"/>
</g>
<!-- ast.Name object at 0x7dbdf7d4c6d0 -->
<g id="node43" class="node">
<title>ast.Name object at 0x7dbdf7d4c6d0</title>
<path fill="#66cdaa" stroke="black" d="M729.84,-324C729.84,-324 699.84,-324 699.84,-324 693.84,-324 687.84,-318 687.84,-312 687.84,-312 687.84,-300 687.84,-300 687.84,-294 693.84,-288 699.84,-288 699.84,-288 729.84,-288 729.84,-288 735.84,-288 741.84,-294 741.84,-300 741.84,-300 741.84,-312 741.84,-312 741.84,-318 735.84,-324 729.84,-324"/>
<text text-anchor="middle" x="714.84" y="-302.3" font-family="Times,serif" font-size="14.00">Name</text>
</g>
<!-- ast.Compare object at 0x7dbdf7d4c790&#45;&gt;ast.Name object at 0x7dbdf7d4c6d0 -->
<g id="edge61" class="edge">
<title>ast.Compare object at 0x7dbdf7d4c790&#45;&gt;ast.Name object at 0x7dbdf7d4c6d0</title>
<path fill="none" stroke="black" d="M616.57,-437.01C645.92,-425.91 685.36,-409.19 695.84,-396 709.62,-378.65 714.01,-353.6 715.15,-334.49"/>
<polygon fill="black" stroke="black" points="718.66,-334.41 715.5,-324.3 711.66,-334.18 718.66,-334.41"/>
</g>
<!-- ast.Eq object at 0x7dbf54603c10 -->
<g id="node44" class="node">
<title>ast.Eq object at 0x7dbf54603c10</title>
<path fill="#66cdaa" stroke="black" d="M674.84,-396C674.84,-396 644.84,-396 644.84,-396 638.84,-396 632.84,-390 632.84,-384 632.84,-384 632.84,-372 632.84,-372 632.84,-366 638.84,-360 644.84,-360 644.84,-360 674.84,-360 674.84,-360 680.84,-360 686.84,-366 686.84,-372 686.84,-372 686.84,-384 686.84,-384 686.84,-390 680.84,-396 674.84,-396"/>
<text text-anchor="middle" x="659.84" y="-374.3" font-family="Times,serif" font-size="14.00">Eq</text>
</g>
<!-- ast.Compare object at 0x7dbdf7d4c790&#45;&gt;ast.Eq object at 0x7dbf54603c10 -->
<g id="edge63" class="edge">
<title>ast.Compare object at 0x7dbdf7d4c790&#45;&gt;ast.Eq object at 0x7dbf54603c10</title>
<path fill="none" stroke="black" d="M601.87,-431.7C611.38,-423.05 623.05,-412.45 633.41,-403.03"/>
<polygon fill="black" stroke="black" points="635.98,-405.42 641.02,-396.1 631.27,-400.24 635.98,-405.42"/>
</g>
<!-- ast.Constant object at 0x7dbdf7d4c990 -->
<g id="node45" class="node">
<title>ast.Constant object at 0x7dbdf7d4c990</title>
<path fill="#66cdaa" stroke="black" d="M602.34,-396C602.34,-396 561.34,-396 561.34,-396 555.34,-396 549.34,-390 549.34,-384 549.34,-384 549.34,-372 549.34,-372 549.34,-366 555.34,-360 561.34,-360 561.34,-360 602.34,-360 602.34,-360 608.34,-360 614.34,-366 614.34,-372 614.34,-372 614.34,-384 614.34,-384 614.34,-390 608.34,-396 602.34,-396"/>
<text text-anchor="middle" x="581.84" y="-374.3" font-family="Times,serif" font-size="14.00">Constant</text>
</g>
<!-- ast.Compare object at 0x7dbdf7d4c790&#45;&gt;ast.Constant object at 0x7dbdf7d4c990 -->
<g id="edge64" class="edge">
<title>ast.Compare object at 0x7dbdf7d4c790&#45;&gt;ast.Constant object at 0x7dbdf7d4c990</title>
<path fill="none" stroke="black" d="M582.59,-431.7C582.48,-423.98 582.35,-414.71 582.23,-406.11"/>
<polygon fill="black" stroke="black" points="585.73,-406.05 582.08,-396.1 578.73,-406.15 585.73,-406.05"/>
</g>
<!-- ast.Name object at 0x7dbdf7d4c6d0&#45;&gt;ast.Load object at 0x7dbf54602c10 -->
<g id="edge62" class="edge">
<title>ast.Name object at 0x7dbdf7d4c6d0&#45;&gt;ast.Load object at 0x7dbf54602c10</title>
<path fill="none" stroke="black" d="M719.36,-287.83C728.98,-247.7 747.84,-145.61 712.84,-72 706.61,-58.9 695.39,-47.91 684.07,-39.39"/>
<polygon fill="black" stroke="black" points="686.07,-36.52 675.88,-33.64 682.05,-42.25 686.07,-36.52"/>
</g>
<!-- ast.Call object at 0x7dbdf7d4c950 -->
<g id="node47" class="node">
<title>ast.Call object at 0x7dbdf7d4c950</title>
<path fill="#66cdaa" stroke="black" d="M518.84,-396C518.84,-396 488.84,-396 488.84,-396 482.84,-396 476.84,-390 476.84,-384 476.84,-384 476.84,-372 476.84,-372 476.84,-366 482.84,-360 488.84,-360 488.84,-360 518.84,-360 518.84,-360 524.84,-360 530.84,-366 530.84,-372 530.84,-372 530.84,-384 530.84,-384 530.84,-390 524.84,-396 518.84,-396"/>
<text text-anchor="middle" x="503.84" y="-374.3" font-family="Times,serif" font-size="14.00">Call</text>
</g>
<!-- ast.Expr object at 0x7dbdf72c1dd0&#45;&gt;ast.Call object at 0x7dbdf7d4c950 -->
<g id="edge66" class="edge">
<title>ast.Expr object at 0x7dbdf72c1dd0&#45;&gt;ast.Call object at 0x7dbdf7d4c950</title>
<path fill="none" stroke="black" d="M503.84,-431.7C503.84,-423.98 503.84,-414.71 503.84,-406.11"/>
<polygon fill="black" stroke="black" points="507.34,-406.1 503.84,-396.1 500.34,-406.1 507.34,-406.1"/>
</g>
<!-- ast.Attribute object at 0x7dbdf7d4cf50 -->
<g id="node48" class="node">
<title>ast.Attribute object at 0x7dbdf7d4cf50</title>
<path fill="#66cdaa" stroke="black" d="M665.34,-180C665.34,-180 624.34,-180 624.34,-180 618.34,-180 612.34,-174 612.34,-168 612.34,-168 612.34,-156 612.34,-156 612.34,-150 618.34,-144 624.34,-144 624.34,-144 665.34,-144 665.34,-144 671.34,-144 677.34,-150 677.34,-156 677.34,-156 677.34,-168 677.34,-168 677.34,-174 671.34,-180 665.34,-180"/>
<text text-anchor="middle" x="644.84" y="-158.3" font-family="Times,serif" font-size="14.00">Attribute</text>
</g>
<!-- ast.Call object at 0x7dbdf7d4c950&#45;&gt;ast.Attribute object at 0x7dbdf7d4cf50 -->
<g id="edge67" class="edge">
<title>ast.Call object at 0x7dbdf7d4c950&#45;&gt;ast.Attribute object at 0x7dbdf7d4cf50</title>
<path fill="none" stroke="black" d="M519.63,-359.74C540.41,-336.46 577.29,-293.16 602.84,-252 615.23,-232.03 626.43,-207.83 634.14,-189.71"/>
<polygon fill="black" stroke="black" points="637.43,-190.91 638.05,-180.33 630.97,-188.22 637.43,-190.91"/>
</g>
<!-- ast.Subscript object at 0x7dbdf7d4eb90 -->
<g id="node50" class="node">
<title>ast.Subscript object at 0x7dbdf7d4eb90</title>
<path fill="#66cdaa" stroke="black" d="M522.84,-324C522.84,-324 478.84,-324 478.84,-324 472.84,-324 466.84,-318 466.84,-312 466.84,-312 466.84,-300 466.84,-300 466.84,-294 472.84,-288 478.84,-288 478.84,-288 522.84,-288 522.84,-288 528.84,-288 534.84,-294 534.84,-300 534.84,-300 534.84,-312 534.84,-312 534.84,-318 528.84,-324 522.84,-324"/>
<text text-anchor="middle" x="500.84" y="-302.3" font-family="Times,serif" font-size="14.00">Subscript</text>
</g>
<!-- ast.Call object at 0x7dbdf7d4c950&#45;&gt;ast.Subscript object at 0x7dbdf7d4eb90 -->
<g id="edge71" class="edge">
<title>ast.Call object at 0x7dbdf7d4c950&#45;&gt;ast.Subscript object at 0x7dbdf7d4eb90</title>
<path fill="none" stroke="black" d="M503.1,-359.7C502.77,-351.98 502.37,-342.71 502,-334.11"/>
<polygon fill="black" stroke="black" points="505.5,-333.95 501.57,-324.1 498.5,-334.25 505.5,-333.95"/>
</g>
<!-- ast.Attribute object at 0x7dbdf7d4cf50&#45;&gt;ast.Load object at 0x7dbf54602c10 -->
<g id="edge70" class="edge">
<title>ast.Attribute object at 0x7dbdf7d4cf50&#45;&gt;ast.Load object at 0x7dbf54602c10</title>
<path fill="none" stroke="black" d="M642.86,-143.92C641.06,-125.99 638.96,-96.99 640.84,-72 641.48,-63.52 642.68,-54.34 643.96,-46.04"/>
<polygon fill="black" stroke="black" points="647.42,-46.55 645.59,-36.11 640.52,-45.41 647.42,-46.55"/>
</g>
<!-- ast.Name object at 0x7dbdf7d4c510 -->
<g id="node49" class="node">
<title>ast.Name object at 0x7dbdf7d4c510</title>
<path fill="#66cdaa" stroke="black" d="M691.84,-108C691.84,-108 661.84,-108 661.84,-108 655.84,-108 649.84,-102 649.84,-96 649.84,-96 649.84,-84 649.84,-84 649.84,-78 655.84,-72 661.84,-72 661.84,-72 691.84,-72 691.84,-72 697.84,-72 703.84,-78 703.84,-84 703.84,-84 703.84,-96 703.84,-96 703.84,-102 697.84,-108 691.84,-108"/>
<text text-anchor="middle" x="676.84" y="-86.3" font-family="Times,serif" font-size="14.00">Name</text>
</g>
<!-- ast.Attribute object at 0x7dbdf7d4cf50&#45;&gt;ast.Name object at 0x7dbdf7d4c510 -->
<g id="edge68" class="edge">
<title>ast.Attribute object at 0x7dbdf7d4cf50&#45;&gt;ast.Name object at 0x7dbdf7d4c510</title>
<path fill="none" stroke="black" d="M652.75,-143.7C656.39,-135.73 660.79,-126.1 664.83,-117.26"/>
<polygon fill="black" stroke="black" points="668.05,-118.65 669.02,-108.1 661.68,-115.74 668.05,-118.65"/>
</g>
<!-- ast.Name object at 0x7dbdf7d4c510&#45;&gt;ast.Load object at 0x7dbf54602c10 -->
<g id="edge69" class="edge">
<title>ast.Name object at 0x7dbdf7d4c510&#45;&gt;ast.Load object at 0x7dbf54602c10</title>
<path fill="none" stroke="black" d="M669.92,-71.7C666.76,-63.81 662.96,-54.3 659.46,-45.55"/>
<polygon fill="black" stroke="black" points="662.64,-44.09 655.68,-36.1 656.14,-46.69 662.64,-44.09"/>
</g>
<!-- ast.Subscript object at 0x7dbdf7d4eb90&#45;&gt;ast.Load object at 0x7dbf54602c10 -->
<g id="edge82" class="edge">
<title>ast.Subscript object at 0x7dbdf7d4eb90&#45;&gt;ast.Load object at 0x7dbf54602c10</title>
<path fill="none" stroke="black" d="M472.17,-287.88C440.37,-267.01 390.91,-228.45 370.84,-180 352.06,-134.66 357.38,-104.85 393.84,-72 425.44,-43.53 548.29,-28.28 611.22,-22.2"/>
<polygon fill="black" stroke="black" points="611.89,-25.65 621.51,-21.23 611.23,-18.68 611.89,-25.65"/>
</g>
<!-- ast.Name object at 0x7dbdf7d4da90 -->
<g id="node51" class="node">
<title>ast.Name object at 0x7dbdf7d4da90</title>
<path fill="#66cdaa" stroke="black" d="M581.84,-252C581.84,-252 551.84,-252 551.84,-252 545.84,-252 539.84,-246 539.84,-240 539.84,-240 539.84,-228 539.84,-228 539.84,-222 545.84,-216 551.84,-216 551.84,-216 581.84,-216 581.84,-216 587.84,-216 593.84,-222 593.84,-228 593.84,-228 593.84,-240 593.84,-240 593.84,-246 587.84,-252 581.84,-252"/>
<text text-anchor="middle" x="566.84" y="-230.3" font-family="Times,serif" font-size="14.00">Name</text>
</g>
<!-- ast.Subscript object at 0x7dbdf7d4eb90&#45;&gt;ast.Name object at 0x7dbdf7d4da90 -->
<g id="edge72" class="edge">
<title>ast.Subscript object at 0x7dbdf7d4eb90&#45;&gt;ast.Name object at 0x7dbdf7d4da90</title>
<path fill="none" stroke="black" d="M517.15,-287.7C525.15,-279.22 534.91,-268.86 543.66,-259.58"/>
<polygon fill="black" stroke="black" points="546.4,-261.78 550.71,-252.1 541.31,-256.98 546.4,-261.78"/>
</g>
<!-- ast.Slice object at 0x7dbdf7d4e5d0 -->
<g id="node52" class="node">
<title>ast.Slice object at 0x7dbdf7d4e5d0</title>
<path fill="#66cdaa" stroke="black" d="M493.84,-252C493.84,-252 463.84,-252 463.84,-252 457.84,-252 451.84,-246 451.84,-240 451.84,-240 451.84,-228 451.84,-228 451.84,-222 457.84,-216 463.84,-216 463.84,-216 493.84,-216 493.84,-216 499.84,-216 505.84,-222 505.84,-228 505.84,-228 505.84,-240 505.84,-240 505.84,-246 499.84,-252 493.84,-252"/>
<text text-anchor="middle" x="478.84" y="-230.3" font-family="Times,serif" font-size="14.00">Slice</text>
</g>
<!-- ast.Subscript object at 0x7dbdf7d4eb90&#45;&gt;ast.Slice object at 0x7dbdf7d4e5d0 -->
<g id="edge74" class="edge">
<title>ast.Subscript object at 0x7dbdf7d4eb90&#45;&gt;ast.Slice object at 0x7dbdf7d4e5d0</title>
<path fill="none" stroke="black" d="M495.4,-287.7C492.95,-279.9 490,-270.51 487.27,-261.83"/>
<polygon fill="black" stroke="black" points="490.55,-260.59 484.21,-252.1 483.87,-262.69 490.55,-260.59"/>
</g>
<!-- ast.Name object at 0x7dbdf7d4da90&#45;&gt;ast.Load object at 0x7dbf54602c10 -->
<g id="edge73" class="edge">
<title>ast.Name object at 0x7dbdf7d4da90&#45;&gt;ast.Load object at 0x7dbf54602c10</title>
<path fill="none" stroke="black" d="M573.41,-215.85C587.65,-178.68 621.47,-90.44 638.56,-45.82"/>
<polygon fill="black" stroke="black" points="641.93,-46.82 642.24,-36.23 635.39,-44.32 641.93,-46.82"/>
</g>
<!-- ast.Name object at 0x7dbdf7d4cc90 -->
<g id="node53" class="node">
<title>ast.Name object at 0x7dbdf7d4cc90</title>
<path fill="#66cdaa" stroke="black" d="M421.84,-180C421.84,-180 391.84,-180 391.84,-180 385.84,-180 379.84,-174 379.84,-168 379.84,-168 379.84,-156 379.84,-156 379.84,-150 385.84,-144 391.84,-144 391.84,-144 421.84,-144 421.84,-144 427.84,-144 433.84,-150 433.84,-156 433.84,-156 433.84,-168 433.84,-168 433.84,-174 427.84,-180 421.84,-180"/>
<text text-anchor="middle" x="406.84" y="-158.3" font-family="Times,serif" font-size="14.00">Name</text>
</g>
<!-- ast.Slice object at 0x7dbdf7d4e5d0&#45;&gt;ast.Name object at 0x7dbdf7d4cc90 -->
<g id="edge75" class="edge">
<title>ast.Slice object at 0x7dbdf7d4e5d0&#45;&gt;ast.Name object at 0x7dbdf7d4cc90</title>
<path fill="none" stroke="black" d="M461.04,-215.7C452.23,-207.14 441.46,-196.66 431.84,-187.3"/>
<polygon fill="black" stroke="black" points="434.04,-184.57 424.43,-180.1 429.16,-189.58 434.04,-184.57"/>
</g>
<!-- ast.BinOp object at 0x7dbdf7d4d8d0 -->
<g id="node54" class="node">
<title>ast.BinOp object at 0x7dbdf7d4d8d0</title>
<path fill="#66cdaa" stroke="black" d="M493.84,-180C493.84,-180 463.84,-180 463.84,-180 457.84,-180 451.84,-174 451.84,-168 451.84,-168 451.84,-156 451.84,-156 451.84,-150 457.84,-144 463.84,-144 463.84,-144 493.84,-144 493.84,-144 499.84,-144 505.84,-150 505.84,-156 505.84,-156 505.84,-168 505.84,-168 505.84,-174 499.84,-180 493.84,-180"/>
<text text-anchor="middle" x="478.84" y="-158.3" font-family="Times,serif" font-size="14.00">BinOp</text>
</g>
<!-- ast.Slice object at 0x7dbdf7d4e5d0&#45;&gt;ast.BinOp object at 0x7dbdf7d4d8d0 -->
<g id="edge77" class="edge">
<title>ast.Slice object at 0x7dbdf7d4e5d0&#45;&gt;ast.BinOp object at 0x7dbdf7d4d8d0</title>
<path fill="none" stroke="black" d="M478.84,-215.7C478.84,-207.98 478.84,-198.71 478.84,-190.11"/>
<polygon fill="black" stroke="black" points="482.34,-190.1 478.84,-180.1 475.34,-190.1 482.34,-190.1"/>
</g>
<!-- ast.Name object at 0x7dbdf7d4cc90&#45;&gt;ast.Load object at 0x7dbf54602c10 -->
<g id="edge76" class="edge">
<title>ast.Name object at 0x7dbdf7d4cc90&#45;&gt;ast.Load object at 0x7dbf54602c10</title>
<path fill="none" stroke="black" d="M401.54,-143.79C396.64,-124.12 392.35,-92.06 408.84,-72 434.2,-41.15 550.77,-27.08 611.62,-21.74"/>
<polygon fill="black" stroke="black" points="611.92,-25.23 621.59,-20.9 611.34,-18.25 611.92,-25.23"/>
</g>
<!-- ast.BinOp object at 0x7dbdf7d4d8d0&#45;&gt;ast.Add object at 0x7dbf54603110 -->
<g id="edge80" class="edge">
<title>ast.BinOp object at 0x7dbdf7d4d8d0&#45;&gt;ast.Add object at 0x7dbf54603110</title>
<path fill="none" stroke="black" d="M451.52,-147.54C448.61,-146.28 445.68,-145.07 442.84,-144 393.09,-125.23 333.67,-109.22 296.09,-99.85"/>
<polygon fill="black" stroke="black" points="296.64,-96.39 286.1,-97.39 294.97,-103.18 296.64,-96.39"/>
</g>
<!-- ast.Name object at 0x7dbdf7d4d650 -->
<g id="node55" class="node">
<title>ast.Name object at 0x7dbdf7d4d650</title>
<path fill="#66cdaa" stroke="black" d="M459.84,-108C459.84,-108 429.84,-108 429.84,-108 423.84,-108 417.84,-102 417.84,-96 417.84,-96 417.84,-84 417.84,-84 417.84,-78 423.84,-72 429.84,-72 429.84,-72 459.84,-72 459.84,-72 465.84,-72 471.84,-78 471.84,-84 471.84,-84 471.84,-96 471.84,-96 471.84,-102 465.84,-108 459.84,-108"/>
<text text-anchor="middle" x="444.84" y="-86.3" font-family="Times,serif" font-size="14.00">Name</text>
</g>
<!-- ast.BinOp object at 0x7dbdf7d4d8d0&#45;&gt;ast.Name object at 0x7dbdf7d4d650 -->
<g id="edge78" class="edge">
<title>ast.BinOp object at 0x7dbdf7d4d8d0&#45;&gt;ast.Name object at 0x7dbdf7d4d650</title>
<path fill="none" stroke="black" d="M470.43,-143.7C466.56,-135.73 461.89,-126.1 457.6,-117.26"/>
<polygon fill="black" stroke="black" points="460.66,-115.57 453.15,-108.1 454.37,-118.63 460.66,-115.57"/>
</g>
<!-- ast.Constant object at 0x7dbdf7d4cad0 -->
<g id="node56" class="node">
<title>ast.Constant object at 0x7dbdf7d4cad0</title>
<path fill="#66cdaa" stroke="black" d="M543.34,-108C543.34,-108 502.34,-108 502.34,-108 496.34,-108 490.34,-102 490.34,-96 490.34,-96 490.34,-84 490.34,-84 490.34,-78 496.34,-72 502.34,-72 502.34,-72 543.34,-72 543.34,-72 549.34,-72 555.34,-78 555.34,-84 555.34,-84 555.34,-96 555.34,-96 555.34,-102 549.34,-108 543.34,-108"/>
<text text-anchor="middle" x="522.84" y="-86.3" font-family="Times,serif" font-size="14.00">Constant</text>
</g>
<!-- ast.BinOp object at 0x7dbdf7d4d8d0&#45;&gt;ast.Constant object at 0x7dbdf7d4cad0 -->
<g id="edge81" class="edge">
<title>ast.BinOp object at 0x7dbdf7d4d8d0&#45;&gt;ast.Constant object at 0x7dbdf7d4cad0</title>
<path fill="none" stroke="black" d="M489.72,-143.7C494.83,-135.56 501.03,-125.69 506.68,-116.7"/>
<polygon fill="black" stroke="black" points="509.73,-118.43 512.09,-108.1 503.8,-114.71 509.73,-118.43"/>
</g>
<!-- ast.Name object at 0x7dbdf7d4d650&#45;&gt;ast.Load object at 0x7dbf54602c10 -->
<g id="edge79" class="edge">
<title>ast.Name object at 0x7dbdf7d4d650&#45;&gt;ast.Load object at 0x7dbf54602c10</title>
<path fill="none" stroke="black" d="M472.19,-75.62C475.09,-74.34 478.01,-73.11 480.84,-72 524.97,-54.71 577.23,-38.93 611.61,-29.17"/>
<polygon fill="black" stroke="black" points="613,-32.42 621.68,-26.34 611.11,-25.68 613,-32.42"/>
</g>
<!-- ast.Compare object at 0x7dbdf7d4cb10 -->
<g id="node58" class="node">
<title>ast.Compare object at 0x7dbdf7d4cb10</title>
<path fill="#66cdaa" stroke="black" d="M374.34,-396C374.34,-396 331.34,-396 331.34,-396 325.34,-396 319.34,-390 319.34,-384 319.34,-384 319.34,-372 319.34,-372 319.34,-366 325.34,-360 331.34,-360 331.34,-360 374.34,-360 374.34,-360 380.34,-360 386.34,-366 386.34,-372 386.34,-372 386.34,-384 386.34,-384 386.34,-390 380.34,-396 374.34,-396"/>
<text text-anchor="middle" x="352.84" y="-374.3" font-family="Times,serif" font-size="14.00">Compare</text>
</g>
<!-- ast.If object at 0x7dbdf7d4d690&#45;&gt;ast.Compare object at 0x7dbdf7d4cb10 -->
<g id="edge84" class="edge">
<title>ast.If object at 0x7dbdf7d4d690&#45;&gt;ast.Compare object at 0x7dbdf7d4cb10</title>
<path fill="none" stroke="black" d="M412.31,-431.7C402.46,-422.97 390.35,-412.24 379.64,-402.75"/>
<polygon fill="black" stroke="black" points="381.95,-400.12 372.14,-396.1 377.31,-405.36 381.95,-400.12"/>
</g>
<!-- ast.Break object at 0x7dbdf7d4d710 -->
<g id="node62" class="node">
<title>ast.Break object at 0x7dbdf7d4d710</title>
<path fill="#66cdaa" stroke="black" d="M446.84,-396C446.84,-396 416.84,-396 416.84,-396 410.84,-396 404.84,-390 404.84,-384 404.84,-384 404.84,-372 404.84,-372 404.84,-366 410.84,-360 416.84,-360 416.84,-360 446.84,-360 446.84,-360 452.84,-360 458.84,-366 458.84,-372 458.84,-372 458.84,-384 458.84,-384 458.84,-390 452.84,-396 446.84,-396"/>
<text text-anchor="middle" x="431.84" y="-374.3" font-family="Times,serif" font-size="14.00">Break</text>
</g>
<!-- ast.If object at 0x7dbdf7d4d690&#45;&gt;ast.Break object at 0x7dbdf7d4d710 -->
<g id="edge89" class="edge">
<title>ast.If object at 0x7dbdf7d4d690&#45;&gt;ast.Break object at 0x7dbdf7d4d710</title>
<path fill="none" stroke="black" d="M431.84,-431.7C431.84,-423.98 431.84,-414.71 431.84,-406.11"/>
<polygon fill="black" stroke="black" points="435.34,-406.1 431.84,-396.1 428.34,-406.1 435.34,-406.1"/>
</g>
<!-- ast.Name object at 0x7dbdf7d4cd10 -->
<g id="node59" class="node">
<title>ast.Name object at 0x7dbdf7d4cd10</title>
<path fill="#66cdaa" stroke="black" d="M311.84,-252C311.84,-252 281.84,-252 281.84,-252 275.84,-252 269.84,-246 269.84,-240 269.84,-240 269.84,-228 269.84,-228 269.84,-222 275.84,-216 281.84,-216 281.84,-216 311.84,-216 311.84,-216 317.84,-216 323.84,-222 323.84,-228 323.84,-228 323.84,-240 323.84,-240 323.84,-246 317.84,-252 311.84,-252"/>
<text text-anchor="middle" x="296.84" y="-230.3" font-family="Times,serif" font-size="14.00">Name</text>
</g>
<!-- ast.Compare object at 0x7dbdf7d4cb10&#45;&gt;ast.Name object at 0x7dbdf7d4cd10 -->
<g id="edge85" class="edge">
<title>ast.Compare object at 0x7dbdf7d4cb10&#45;&gt;ast.Name object at 0x7dbdf7d4cd10</title>
<path fill="none" stroke="black" d="M383.14,-359.8C395.72,-350.9 408.96,-338.77 415.84,-324 422.59,-309.49 424.55,-301.42 415.84,-288 413.37,-284.2 367.27,-264.35 333.19,-250.06"/>
<polygon fill="black" stroke="black" points="334.51,-246.82 323.94,-246.19 331.81,-253.28 334.51,-246.82"/>
</g>
<!-- ast.Gt object at 0x7dbf54603e10 -->
<g id="node60" class="node">
<title>ast.Gt object at 0x7dbf54603e10</title>
<path fill="#66cdaa" stroke="black" d="M394.84,-324C394.84,-324 364.84,-324 364.84,-324 358.84,-324 352.84,-318 352.84,-312 352.84,-312 352.84,-300 352.84,-300 352.84,-294 358.84,-288 364.84,-288 364.84,-288 394.84,-288 394.84,-288 400.84,-288 406.84,-294 406.84,-300 406.84,-300 406.84,-312 406.84,-312 406.84,-318 400.84,-324 394.84,-324"/>
<text text-anchor="middle" x="379.84" y="-302.3" font-family="Times,serif" font-size="14.00">Gt</text>
</g>
<!-- ast.Compare object at 0x7dbdf7d4cb10&#45;&gt;ast.Gt object at 0x7dbf54603e10 -->
<g id="edge87" class="edge">
<title>ast.Compare object at 0x7dbdf7d4cb10&#45;&gt;ast.Gt object at 0x7dbf54603e10</title>
<path fill="none" stroke="black" d="M359.51,-359.7C362.55,-351.81 366.22,-342.3 369.6,-333.55"/>
<polygon fill="black" stroke="black" points="372.91,-334.69 373.24,-324.1 366.38,-332.17 372.91,-334.69"/>
</g>
<!-- ast.Constant object at 0x7dbdf7d4d5d0 -->
<g id="node61" class="node">
<title>ast.Constant object at 0x7dbdf7d4d5d0</title>
<path fill="#66cdaa" stroke="black" d="M322.34,-324C322.34,-324 281.34,-324 281.34,-324 275.34,-324 269.34,-318 269.34,-312 269.34,-312 269.34,-300 269.34,-300 269.34,-294 275.34,-288 281.34,-288 281.34,-288 322.34,-288 322.34,-288 328.34,-288 334.34,-294 334.34,-300 334.34,-300 334.34,-312 334.34,-312 334.34,-318 328.34,-324 322.34,-324"/>
<text text-anchor="middle" x="301.84" y="-302.3" font-family="Times,serif" font-size="14.00">Constant</text>
</g>
<!-- ast.Compare object at 0x7dbdf7d4cb10&#45;&gt;ast.Constant object at 0x7dbdf7d4d5d0 -->
<g id="edge88" class="edge">
<title>ast.Compare object at 0x7dbdf7d4cb10&#45;&gt;ast.Constant object at 0x7dbdf7d4d5d0</title>
<path fill="none" stroke="black" d="M340.23,-359.7C334.24,-351.47 326.96,-341.48 320.36,-332.42"/>
<polygon fill="black" stroke="black" points="323.02,-330.13 314.3,-324.1 317.36,-334.25 323.02,-330.13"/>
</g>
<!-- ast.Name object at 0x7dbdf7d4cd10&#45;&gt;ast.Load object at 0x7dbf54602c10 -->
<g id="edge86" class="edge">
<title>ast.Name object at 0x7dbdf7d4cd10&#45;&gt;ast.Load object at 0x7dbf54602c10</title>
<path fill="none" stroke="black" d="M295.65,-215.92C294.37,-182.84 296.71,-109.94 337.84,-72 377.17,-35.72 537.63,-23.95 611.41,-20.4"/>
<polygon fill="black" stroke="black" points="611.81,-23.89 621.64,-19.94 611.49,-16.9 611.81,-23.89"/>
</g>
<!-- ast.Name object at 0x7dbdf7d4de10 -->
<g id="node64" class="node">
<title>ast.Name object at 0x7dbdf7d4de10</title>
<path fill="#66cdaa" stroke="black" d="M1326.84,-252C1326.84,-252 1296.84,-252 1296.84,-252 1290.84,-252 1284.84,-246 1284.84,-240 1284.84,-240 1284.84,-228 1284.84,-228 1284.84,-222 1290.84,-216 1296.84,-216 1296.84,-216 1326.84,-216 1326.84,-216 1332.84,-216 1338.84,-222 1338.84,-228 1338.84,-228 1338.84,-240 1338.84,-240 1338.84,-246 1332.84,-252 1326.84,-252"/>
<text text-anchor="middle" x="1311.84" y="-230.3" font-family="Times,serif" font-size="14.00">Name</text>
</g>
<!-- ast.Return object at 0x7dbdf7d4d950&#45;&gt;ast.Name object at 0x7dbdf7d4de10 -->
<g id="edge91" class="edge">
<title>ast.Return object at 0x7dbdf7d4d950&#45;&gt;ast.Name object at 0x7dbdf7d4de10</title>
<path fill="none" stroke="black" d="M1256.96,-647.61C1269.84,-621.36 1291.84,-569.71 1291.84,-523 1291.84,-523 1291.84,-523 1291.84,-377 1291.84,-336.82 1299.79,-290.87 1305.66,-262.39"/>
<polygon fill="black" stroke="black" points="1309.13,-262.89 1307.79,-252.38 1302.29,-261.43 1309.13,-262.89"/>
</g>
<!-- ast.Name object at 0x7dbdf7d4de10&#45;&gt;ast.Load object at 0x7dbf54602c10 -->
<g id="edge92" class="edge">
<title>ast.Name object at 0x7dbdf7d4de10&#45;&gt;ast.Load object at 0x7dbf54602c10</title>
<path fill="none" stroke="black" d="M1310.35,-215.88C1306.4,-182.05 1292.45,-106.9 1244.84,-72 1199.76,-38.95 809.21,-24.01 685.95,-20.09"/>
<polygon fill="black" stroke="black" points="685.97,-16.59 675.87,-19.78 685.75,-23.59 685.97,-16.59"/>
</g>
</g>
</svg>
