<?xml version="1.0" encoding="UTF-8" standalone="no"?>
<!DOCTYPE svg PUBLIC "-//W3C//DTD SVG 1.1//EN"
 "http://www.w3.org/Graphics/SVG/1.1/DTD/svg11.dtd">
<!-- Generated by graphviz version 2.50.0 (0)
 -->
<!-- Pages: 1 -->
<svg width="881pt" height="548pt"
 viewBox="0.00 0.00 880.50 548.00" xmlns="http://www.w3.org/2000/svg" xmlns:xlink="http://www.w3.org/1999/xlink">
<g id="graph0" class="graph" transform="scale(1 1) rotate(0) translate(4 544)">
<polygon fill="white" stroke="transparent" points="-4,4 -4,-544 876.5,-544 876.5,4 -4,4"/>
<!-- ast.Module object at 0x7dbe7502b0d0 -->
<g id="node1" class="node">
<title>ast.Module object at 0x7dbe7502b0d0</title>
<path fill="#66cdaa" stroke="black" d="M245.5,-540C245.5,-540 210.5,-540 210.5,-540 204.5,-540 198.5,-534 198.5,-528 198.5,-528 198.5,-516 198.5,-516 198.5,-510 204.5,-504 210.5,-504 210.5,-504 245.5,-504 245.5,-504 251.5,-504 257.5,-510 257.5,-516 257.5,-516 257.5,-528 257.5,-528 257.5,-534 251.5,-540 245.5,-540"/>
<text text-anchor="middle" x="228" y="-518.3" font-family="Times,serif" font-size="14.00">Module</text>
</g>
<!-- ast.FunctionDef object at 0x7dbe75028810 -->
<g id="node2" class="node">
<title>ast.FunctionDef object at 0x7dbe75028810</title>
<path fill="#66cdaa" stroke="black" d="M258.5,-468C258.5,-468 197.5,-468 197.5,-468 191.5,-468 185.5,-462 185.5,-456 185.5,-456 185.5,-444 185.5,-444 185.5,-438 191.5,-432 197.5,-432 197.5,-432 258.5,-432 258.5,-432 264.5,-432 270.5,-438 270.5,-444 270.5,-444 270.5,-456 270.5,-456 270.5,-462 264.5,-468 258.5,-468"/>
<text text-anchor="middle" x="228" y="-446.3" font-family="Times,serif" font-size="14.00">FunctionDef</text>
</g>
<!-- ast.Module object at 0x7dbe7502b0d0&#45;&gt;ast.FunctionDef object at 0x7dbe75028810 -->
<g id="edge1" class="edge">
<title>ast.Module object at 0x7dbe7502b0d0&#45;&gt;ast.FunctionDef object at 0x7dbe75028810</title>
<path fill="none" stroke="black" d="M228,-503.7C228,-495.98 228,-486.71 228,-478.11"/>
<polygon fill="black" stroke="black" points="231.5,-478.1 228,-468.1 224.5,-478.1 231.5,-478.1"/>
</g>
<!-- ast.arguments object at 0x7dbe75029f50 -->
<g id="node3" class="node">
<title>ast.arguments object at 0x7dbe75029f50</title>
<path fill="#66cdaa" stroke="black" d="M188,-396C188,-396 138,-396 138,-396 132,-396 126,-390 126,-384 126,-384 126,-372 126,-372 126,-366 132,-360 138,-360 138,-360 188,-360 188,-360 194,-360 200,-366 200,-372 200,-372 200,-384 200,-384 200,-390 194,-396 188,-396"/>
<text text-anchor="middle" x="163" y="-374.3" font-family="Times,serif" font-size="14.00">arguments</text>
</g>
<!-- ast.FunctionDef object at 0x7dbe75028810&#45;&gt;ast.arguments object at 0x7dbe75029f50 -->
<g id="edge2" class="edge">
<title>ast.FunctionDef object at 0x7dbe75028810&#45;&gt;ast.arguments object at 0x7dbe75029f50</title>
<path fill="none" stroke="black" d="M211.93,-431.7C204.06,-423.22 194.44,-412.86 185.83,-403.58"/>
<polygon fill="black" stroke="black" points="188.25,-401.05 178.88,-396.1 183.12,-405.81 188.25,-401.05"/>
</g>
<!-- ast.Assign object at 0x7dbe75029d90 -->
<g id="node5" class="node">
<title>ast.Assign object at 0x7dbe75029d90</title>
<path fill="#66cdaa" stroke="black" d="M168,-252C168,-252 138,-252 138,-252 132,-252 126,-246 126,-240 126,-240 126,-228 126,-228 126,-222 132,-216 138,-216 138,-216 168,-216 168,-216 174,-216 180,-222 180,-228 180,-228 180,-240 180,-240 180,-246 174,-252 168,-252"/>
<text text-anchor="middle" x="153" y="-230.3" font-family="Times,serif" font-size="14.00">Assign</text>
</g>
<!-- ast.FunctionDef object at 0x7dbe75028810&#45;&gt;ast.Assign object at 0x7dbe75029d90 -->
<g id="edge4" class="edge">
<title>ast.FunctionDef object at 0x7dbe75028810&#45;&gt;ast.Assign object at 0x7dbe75029d90</title>
<path fill="none" stroke="black" d="M227.84,-431.64C226.94,-401.1 222.18,-336.42 199,-288 194.14,-277.84 186.79,-268.11 179.38,-259.82"/>
<polygon fill="black" stroke="black" points="181.74,-257.22 172.34,-252.34 176.65,-262.02 181.74,-257.22"/>
</g>
<!-- ast.If object at 0x7dbe76951850 -->
<g id="node12" class="node">
<title>ast.If object at 0x7dbe76951850</title>
<path fill="#66cdaa" stroke="black" d="M488,-396C488,-396 458,-396 458,-396 452,-396 446,-390 446,-384 446,-384 446,-372 446,-372 446,-366 452,-360 458,-360 458,-360 488,-360 488,-360 494,-360 500,-366 500,-372 500,-372 500,-384 500,-384 500,-390 494,-396 488,-396"/>
<text text-anchor="middle" x="473" y="-374.3" font-family="Times,serif" font-size="14.00">If</text>
</g>
<!-- ast.FunctionDef object at 0x7dbe75028810&#45;&gt;ast.If object at 0x7dbe76951850 -->
<g id="edge12" class="edge">
<title>ast.FunctionDef object at 0x7dbe75028810&#45;&gt;ast.If object at 0x7dbe76951850</title>
<path fill="none" stroke="black" d="M270.68,-436.81C317.48,-423.43 391.83,-402.19 436.17,-389.52"/>
<polygon fill="black" stroke="black" points="437.31,-392.84 445.96,-386.73 435.39,-386.11 437.31,-392.84"/>
</g>
<!-- ast.arg object at 0x7dbe75028c50 -->
<g id="node4" class="node">
<title>ast.arg object at 0x7dbe75028c50</title>
<path fill="#66cdaa" stroke="black" d="M178,-324C178,-324 148,-324 148,-324 142,-324 136,-318 136,-312 136,-312 136,-300 136,-300 136,-294 142,-288 148,-288 148,-288 178,-288 178,-288 184,-288 190,-294 190,-300 190,-300 190,-312 190,-312 190,-318 184,-324 178,-324"/>
<text text-anchor="middle" x="163" y="-302.3" font-family="Times,serif" font-size="14.00">arg</text>
</g>
<!-- ast.arguments object at 0x7dbe75029f50&#45;&gt;ast.arg object at 0x7dbe75028c50 -->
<g id="edge3" class="edge">
<title>ast.arguments object at 0x7dbe75029f50&#45;&gt;ast.arg object at 0x7dbe75028c50</title>
<path fill="none" stroke="black" d="M163,-359.7C163,-351.98 163,-342.71 163,-334.11"/>
<polygon fill="black" stroke="black" points="166.5,-334.1 163,-324.1 159.5,-334.1 166.5,-334.1"/>
</g>
<!-- ast.Name object at 0x7dbe7502b950 -->
<g id="node6" class="node">
<title>ast.Name object at 0x7dbe7502b950</title>
<path fill="#66cdaa" stroke="black" d="M60,-180C60,-180 30,-180 30,-180 24,-180 18,-174 18,-168 18,-168 18,-156 18,-156 18,-150 24,-144 30,-144 30,-144 60,-144 60,-144 66,-144 72,-150 72,-156 72,-156 72,-168 72,-168 72,-174 66,-180 60,-180"/>
<text text-anchor="middle" x="45" y="-158.3" font-family="Times,serif" font-size="14.00">Name</text>
</g>
<!-- ast.Assign object at 0x7dbe75029d90&#45;&gt;ast.Name object at 0x7dbe7502b950 -->
<g id="edge5" class="edge">
<title>ast.Assign object at 0x7dbe75029d90&#45;&gt;ast.Name object at 0x7dbe7502b950</title>
<path fill="none" stroke="black" d="M126.58,-215.88C112.59,-206.81 95.22,-195.55 80.11,-185.76"/>
<polygon fill="black" stroke="black" points="81.82,-182.69 71.52,-180.19 78.01,-188.57 81.82,-182.69"/>
</g>
<!-- ast.Call object at 0x7dbe7502a290 -->
<g id="node8" class="node">
<title>ast.Call object at 0x7dbe7502a290</title>
<path fill="#66cdaa" stroke="black" d="M168,-180C168,-180 138,-180 138,-180 132,-180 126,-174 126,-168 126,-168 126,-156 126,-156 126,-150 132,-144 138,-144 138,-144 168,-144 168,-144 174,-144 180,-150 180,-156 180,-156 180,-168 180,-168 180,-174 174,-180 168,-180"/>
<text text-anchor="middle" x="153" y="-158.3" font-family="Times,serif" font-size="14.00">Call</text>
</g>
<!-- ast.Assign object at 0x7dbe75029d90&#45;&gt;ast.Call object at 0x7dbe7502a290 -->
<g id="edge7" class="edge">
<title>ast.Assign object at 0x7dbe75029d90&#45;&gt;ast.Call object at 0x7dbe7502a290</title>
<path fill="none" stroke="black" d="M153,-215.7C153,-207.98 153,-198.71 153,-190.11"/>
<polygon fill="black" stroke="black" points="156.5,-190.1 153,-180.1 149.5,-190.1 156.5,-190.1"/>
</g>
<!-- ast.Store object at 0x7dbf54602c90 -->
<g id="node7" class="node">
<title>ast.Store object at 0x7dbf54602c90</title>
<path fill="#66cdaa" stroke="black" d="M42,-108C42,-108 12,-108 12,-108 6,-108 0,-102 0,-96 0,-96 0,-84 0,-84 0,-78 6,-72 12,-72 12,-72 42,-72 42,-72 48,-72 54,-78 54,-84 54,-84 54,-96 54,-96 54,-102 48,-108 42,-108"/>
<text text-anchor="middle" x="27" y="-86.3" font-family="Times,serif" font-size="14.00">Store</text>
</g>
<!-- ast.Name object at 0x7dbe7502b950&#45;&gt;ast.Store object at 0x7dbf54602c90 -->
<g id="edge6" class="edge">
<title>ast.Name object at 0x7dbe7502b950&#45;&gt;ast.Store object at 0x7dbf54602c90</title>
<path fill="none" stroke="black" d="M40.55,-143.7C38.55,-135.9 36.13,-126.51 33.9,-117.83"/>
<polygon fill="black" stroke="black" points="37.28,-116.92 31.4,-108.1 30.5,-118.66 37.28,-116.92"/>
</g>
<!-- ast.Name object at 0x7dbe7502aa50 -->
<g id="node9" class="node">
<title>ast.Name object at 0x7dbe7502aa50</title>
<path fill="#66cdaa" stroke="black" d="M186,-108C186,-108 156,-108 156,-108 150,-108 144,-102 144,-96 144,-96 144,-84 144,-84 144,-78 150,-72 156,-72 156,-72 186,-72 186,-72 192,-72 198,-78 198,-84 198,-84 198,-96 198,-96 198,-102 192,-108 186,-108"/>
<text text-anchor="middle" x="171" y="-86.3" font-family="Times,serif" font-size="14.00">Name</text>
</g>
<!-- ast.Call object at 0x7dbe7502a290&#45;&gt;ast.Name object at 0x7dbe7502aa50 -->
<g id="edge8" class="edge">
<title>ast.Call object at 0x7dbe7502a290&#45;&gt;ast.Name object at 0x7dbe7502aa50</title>
<path fill="none" stroke="black" d="M157.45,-143.7C159.45,-135.9 161.87,-126.51 164.1,-117.83"/>
<polygon fill="black" stroke="black" points="167.5,-118.66 166.6,-108.1 160.72,-116.92 167.5,-118.66"/>
</g>
<!-- ast.Name object at 0x7dbe75029210 -->
<g id="node11" class="node">
<title>ast.Name object at 0x7dbe75029210</title>
<path fill="#66cdaa" stroke="black" d="M114,-108C114,-108 84,-108 84,-108 78,-108 72,-102 72,-96 72,-96 72,-84 72,-84 72,-78 78,-72 84,-72 84,-72 114,-72 114,-72 120,-72 126,-78 126,-84 126,-84 126,-96 126,-96 126,-102 120,-108 114,-108"/>
<text text-anchor="middle" x="99" y="-86.3" font-family="Times,serif" font-size="14.00">Name</text>
</g>
<!-- ast.Call object at 0x7dbe7502a290&#45;&gt;ast.Name object at 0x7dbe75029210 -->
<g id="edge10" class="edge">
<title>ast.Call object at 0x7dbe7502a290&#45;&gt;ast.Name object at 0x7dbe75029210</title>
<path fill="none" stroke="black" d="M139.65,-143.7C133.24,-135.39 125.44,-125.28 118.39,-116.14"/>
<polygon fill="black" stroke="black" points="121.07,-113.88 112.19,-108.1 115.53,-118.16 121.07,-113.88"/>
</g>
<!-- ast.Load object at 0x7dbf54602c10 -->
<g id="node10" class="node">
<title>ast.Load object at 0x7dbf54602c10</title>
<path fill="#66cdaa" stroke="black" d="M423,-36C423,-36 393,-36 393,-36 387,-36 381,-30 381,-24 381,-24 381,-12 381,-12 381,-6 387,0 393,0 393,0 423,0 423,0 429,0 435,-6 435,-12 435,-12 435,-24 435,-24 435,-30 429,-36 423,-36"/>
<text text-anchor="middle" x="408" y="-14.3" font-family="Times,serif" font-size="14.00">Load</text>
</g>
<!-- ast.Name object at 0x7dbe7502aa50&#45;&gt;ast.Load object at 0x7dbf54602c10 -->
<g id="edge9" class="edge">
<title>ast.Name object at 0x7dbe7502aa50&#45;&gt;ast.Load object at 0x7dbf54602c10</title>
<path fill="none" stroke="black" d="M198.3,-75.48C201.2,-74.23 204.14,-73.04 207,-72 262.95,-51.61 330.29,-35.48 371.08,-26.6"/>
<polygon fill="black" stroke="black" points="371.82,-30.02 380.86,-24.5 370.35,-23.18 371.82,-30.02"/>
</g>
<!-- ast.Name object at 0x7dbe75029210&#45;&gt;ast.Load object at 0x7dbf54602c10 -->
<g id="edge11" class="edge">
<title>ast.Name object at 0x7dbe75029210&#45;&gt;ast.Load object at 0x7dbf54602c10</title>
<path fill="none" stroke="black" d="M126.23,-75.28C129.15,-74.07 132.11,-72.95 135,-72 216.94,-45.17 317.42,-29.98 370.69,-23.25"/>
<polygon fill="black" stroke="black" points="371.2,-26.71 380.7,-22.01 370.34,-19.76 371.2,-26.71"/>
</g>
<!-- ast.Compare object at 0x7dbe7502a0d0 -->
<g id="node13" class="node">
<title>ast.Compare object at 0x7dbe7502a0d0</title>
<path fill="#66cdaa" stroke="black" d="M597.5,-252C597.5,-252 554.5,-252 554.5,-252 548.5,-252 542.5,-246 542.5,-240 542.5,-240 542.5,-228 542.5,-228 542.5,-222 548.5,-216 554.5,-216 554.5,-216 597.5,-216 597.5,-216 603.5,-216 609.5,-222 609.5,-228 609.5,-228 609.5,-240 609.5,-240 609.5,-246 603.5,-252 597.5,-252"/>
<text text-anchor="middle" x="576" y="-230.3" font-family="Times,serif" font-size="14.00">Compare</text>
</g>
<!-- ast.If object at 0x7dbe76951850&#45;&gt;ast.Compare object at 0x7dbe7502a0d0 -->
<g id="edge13" class="edge">
<title>ast.If object at 0x7dbe76951850&#45;&gt;ast.Compare object at 0x7dbe7502a0d0</title>
<path fill="none" stroke="black" d="M485.42,-359.87C503.37,-335.14 536.66,-289.24 557.49,-260.51"/>
<polygon fill="black" stroke="black" points="560.49,-262.34 563.53,-252.19 554.83,-258.23 560.49,-262.34"/>
</g>
<!-- ast.Return object at 0x7dbe7502aed0 -->
<g id="node19" class="node">
<title>ast.Return object at 0x7dbe7502aed0</title>
<path fill="#66cdaa" stroke="black" d="M461,-324C461,-324 431,-324 431,-324 425,-324 419,-318 419,-312 419,-312 419,-300 419,-300 419,-294 425,-288 431,-288 431,-288 461,-288 461,-288 467,-288 473,-294 473,-300 473,-300 473,-312 473,-312 473,-318 467,-324 461,-324"/>
<text text-anchor="middle" x="446" y="-302.3" font-family="Times,serif" font-size="14.00">Return</text>
</g>
<!-- ast.If object at 0x7dbe76951850&#45;&gt;ast.Return object at 0x7dbe7502aed0 -->
<g id="edge21" class="edge">
<title>ast.If object at 0x7dbe76951850&#45;&gt;ast.Return object at 0x7dbe7502aed0</title>
<path fill="none" stroke="black" d="M466.33,-359.7C463.29,-351.81 459.62,-342.3 456.24,-333.55"/>
<polygon fill="black" stroke="black" points="459.46,-332.17 452.6,-324.1 452.93,-334.69 459.46,-332.17"/>
</g>
<!-- ast.Return object at 0x7dbe75028a10 -->
<g id="node28" class="node">
<title>ast.Return object at 0x7dbe75028a10</title>
<path fill="#66cdaa" stroke="black" d="M693,-324C693,-324 663,-324 663,-324 657,-324 651,-318 651,-312 651,-312 651,-300 651,-300 651,-294 657,-288 663,-288 663,-288 693,-288 693,-288 699,-288 705,-294 705,-300 705,-300 705,-312 705,-312 705,-318 699,-324 693,-324"/>
<text text-anchor="middle" x="678" y="-302.3" font-family="Times,serif" font-size="14.00">Return</text>
</g>
<!-- ast.If object at 0x7dbe76951850&#45;&gt;ast.Return object at 0x7dbe75028a10 -->
<g id="edge33" class="edge">
<title>ast.If object at 0x7dbe76951850&#45;&gt;ast.Return object at 0x7dbe75028a10</title>
<path fill="none" stroke="black" d="M500.22,-367.7C536.55,-355.3 600.98,-333.3 641.49,-319.47"/>
<polygon fill="black" stroke="black" points="642.66,-322.77 650.99,-316.22 640.4,-316.14 642.66,-322.77"/>
</g>
<!-- ast.Call object at 0x7dbe7502bc50 -->
<g id="node14" class="node">
<title>ast.Call object at 0x7dbe7502bc50</title>
<path fill="#66cdaa" stroke="black" d="M702,-180C702,-180 672,-180 672,-180 666,-180 660,-174 660,-168 660,-168 660,-156 660,-156 660,-150 666,-144 672,-144 672,-144 702,-144 702,-144 708,-144 714,-150 714,-156 714,-156 714,-168 714,-168 714,-174 708,-180 702,-180"/>
<text text-anchor="middle" x="687" y="-158.3" font-family="Times,serif" font-size="14.00">Call</text>
</g>
<!-- ast.Compare object at 0x7dbe7502a0d0&#45;&gt;ast.Call object at 0x7dbe7502bc50 -->
<g id="edge14" class="edge">
<title>ast.Compare object at 0x7dbe7502a0d0&#45;&gt;ast.Call object at 0x7dbe7502bc50</title>
<path fill="none" stroke="black" d="M603.15,-215.88C617.53,-206.81 635.38,-195.55 650.91,-185.76"/>
<polygon fill="black" stroke="black" points="653.15,-188.48 659.74,-180.19 649.42,-182.56 653.15,-188.48"/>
</g>
<!-- ast.GtE object at 0x7dbf54603e90 -->
<g id="node17" class="node">
<title>ast.GtE object at 0x7dbf54603e90</title>
<path fill="#66cdaa" stroke="black" d="M630,-180C630,-180 600,-180 600,-180 594,-180 588,-174 588,-168 588,-168 588,-156 588,-156 588,-150 594,-144 600,-144 600,-144 630,-144 630,-144 636,-144 642,-150 642,-156 642,-156 642,-168 642,-168 642,-174 636,-180 630,-180"/>
<text text-anchor="middle" x="615" y="-158.3" font-family="Times,serif" font-size="14.00">GtE</text>
</g>
<!-- ast.Compare object at 0x7dbe7502a0d0&#45;&gt;ast.GtE object at 0x7dbf54603e90 -->
<g id="edge19" class="edge">
<title>ast.Compare object at 0x7dbe7502a0d0&#45;&gt;ast.GtE object at 0x7dbf54603e90</title>
<path fill="none" stroke="black" d="M585.64,-215.7C590.13,-207.64 595.56,-197.89 600.52,-188.98"/>
<polygon fill="black" stroke="black" points="603.66,-190.54 605.47,-180.1 597.55,-187.14 603.66,-190.54"/>
</g>
<!-- ast.Constant object at 0x7dbe75028990 -->
<g id="node18" class="node">
<title>ast.Constant object at 0x7dbe75028990</title>
<path fill="#66cdaa" stroke="black" d="M557.5,-180C557.5,-180 516.5,-180 516.5,-180 510.5,-180 504.5,-174 504.5,-168 504.5,-168 504.5,-156 504.5,-156 504.5,-150 510.5,-144 516.5,-144 516.5,-144 557.5,-144 557.5,-144 563.5,-144 569.5,-150 569.5,-156 569.5,-156 569.5,-168 569.5,-168 569.5,-174 563.5,-180 557.5,-180"/>
<text text-anchor="middle" x="537" y="-158.3" font-family="Times,serif" font-size="14.00">Constant</text>
</g>
<!-- ast.Compare object at 0x7dbe7502a0d0&#45;&gt;ast.Constant object at 0x7dbe75028990 -->
<g id="edge20" class="edge">
<title>ast.Compare object at 0x7dbe7502a0d0&#45;&gt;ast.Constant object at 0x7dbe75028990</title>
<path fill="none" stroke="black" d="M566.36,-215.7C561.87,-207.64 556.44,-197.89 551.48,-188.98"/>
<polygon fill="black" stroke="black" points="554.45,-187.14 546.53,-180.1 548.34,-190.54 554.45,-187.14"/>
</g>
<!-- ast.Name object at 0x7dbe7502a350 -->
<g id="node15" class="node">
<title>ast.Name object at 0x7dbe7502a350</title>
<path fill="#66cdaa" stroke="black" d="M634,-108C634,-108 604,-108 604,-108 598,-108 592,-102 592,-96 592,-96 592,-84 592,-84 592,-78 598,-72 604,-72 604,-72 634,-72 634,-72 640,-72 646,-78 646,-84 646,-84 646,-96 646,-96 646,-102 640,-108 634,-108"/>
<text text-anchor="middle" x="619" y="-86.3" font-family="Times,serif" font-size="14.00">Name</text>
</g>
<!-- ast.Call object at 0x7dbe7502bc50&#45;&gt;ast.Name object at 0x7dbe7502a350 -->
<g id="edge15" class="edge">
<title>ast.Call object at 0x7dbe7502bc50&#45;&gt;ast.Name object at 0x7dbe7502a350</title>
<path fill="none" stroke="black" d="M670.19,-143.7C661.87,-135.14 651.69,-124.66 642.61,-115.3"/>
<polygon fill="black" stroke="black" points="645.09,-112.84 635.62,-108.1 640.07,-117.72 645.09,-112.84"/>
</g>
<!-- ast.Name object at 0x7dbe7502bb90 -->
<g id="node16" class="node">
<title>ast.Name object at 0x7dbe7502bb90</title>
<path fill="#66cdaa" stroke="black" d="M562,-108C562,-108 532,-108 532,-108 526,-108 520,-102 520,-96 520,-96 520,-84 520,-84 520,-78 526,-72 532,-72 532,-72 562,-72 562,-72 568,-72 574,-78 574,-84 574,-84 574,-96 574,-96 574,-102 568,-108 562,-108"/>
<text text-anchor="middle" x="547" y="-86.3" font-family="Times,serif" font-size="14.00">Name</text>
</g>
<!-- ast.Call object at 0x7dbe7502bc50&#45;&gt;ast.Name object at 0x7dbe7502bb90 -->
<g id="edge17" class="edge">
<title>ast.Call object at 0x7dbe7502bc50&#45;&gt;ast.Name object at 0x7dbe7502bb90</title>
<path fill="none" stroke="black" d="M659.67,-147.34C637.9,-136.45 607.21,-121.1 583.36,-109.18"/>
<polygon fill="black" stroke="black" points="584.77,-105.97 574.26,-104.63 581.64,-112.23 584.77,-105.97"/>
</g>
<!-- ast.Name object at 0x7dbe7502a350&#45;&gt;ast.Load object at 0x7dbf54602c10 -->
<g id="edge16" class="edge">
<title>ast.Name object at 0x7dbe7502a350&#45;&gt;ast.Load object at 0x7dbf54602c10</title>
<path fill="none" stroke="black" d="M591.66,-75.58C588.76,-74.31 585.84,-73.09 583,-72 536.36,-54.04 480.89,-38.12 445.09,-28.53"/>
<polygon fill="black" stroke="black" points="445.66,-25.06 435.1,-25.88 443.87,-31.82 445.66,-25.06"/>
</g>
<!-- ast.Name object at 0x7dbe7502bb90&#45;&gt;ast.Load object at 0x7dbf54602c10 -->
<g id="edge18" class="edge">
<title>ast.Name object at 0x7dbe7502bb90&#45;&gt;ast.Load object at 0x7dbf54602c10</title>
<path fill="none" stroke="black" d="M519.87,-75.34C498.25,-64.45 467.78,-49.1 444.1,-37.18"/>
<polygon fill="black" stroke="black" points="445.57,-34 435.06,-32.63 442.42,-40.25 445.57,-34"/>
</g>
<!-- ast.Call object at 0x7dbe7502ae90 -->
<g id="node20" class="node">
<title>ast.Call object at 0x7dbe7502ae90</title>
<path fill="#66cdaa" stroke="black" d="M415,-252C415,-252 385,-252 385,-252 379,-252 373,-246 373,-240 373,-240 373,-228 373,-228 373,-222 379,-216 385,-216 385,-216 415,-216 415,-216 421,-216 427,-222 427,-228 427,-228 427,-240 427,-240 427,-246 421,-252 415,-252"/>
<text text-anchor="middle" x="400" y="-230.3" font-family="Times,serif" font-size="14.00">Call</text>
</g>
<!-- ast.Return object at 0x7dbe7502aed0&#45;&gt;ast.Call object at 0x7dbe7502ae90 -->
<g id="edge22" class="edge">
<title>ast.Return object at 0x7dbe7502aed0&#45;&gt;ast.Call object at 0x7dbe7502ae90</title>
<path fill="none" stroke="black" d="M434.63,-287.7C429.28,-279.56 422.8,-269.69 416.89,-260.7"/>
<polygon fill="black" stroke="black" points="419.66,-258.54 411.24,-252.1 413.81,-262.38 419.66,-258.54"/>
</g>
<!-- ast.Name object at 0x7dbe75029c50 -->
<g id="node21" class="node">
<title>ast.Name object at 0x7dbe75029c50</title>
<path fill="#66cdaa" stroke="black" d="M392,-180C392,-180 362,-180 362,-180 356,-180 350,-174 350,-168 350,-168 350,-156 350,-156 350,-150 356,-144 362,-144 362,-144 392,-144 392,-144 398,-144 404,-150 404,-156 404,-156 404,-168 404,-168 404,-174 398,-180 392,-180"/>
<text text-anchor="middle" x="377" y="-158.3" font-family="Times,serif" font-size="14.00">Name</text>
</g>
<!-- ast.Call object at 0x7dbe7502ae90&#45;&gt;ast.Name object at 0x7dbe75029c50 -->
<g id="edge23" class="edge">
<title>ast.Call object at 0x7dbe7502ae90&#45;&gt;ast.Name object at 0x7dbe75029c50</title>
<path fill="none" stroke="black" d="M394.31,-215.7C391.75,-207.9 388.67,-198.51 385.82,-189.83"/>
<polygon fill="black" stroke="black" points="389.07,-188.51 382.62,-180.1 382.42,-190.7 389.07,-188.51"/>
</g>
<!-- ast.Subscript object at 0x7dbe75028f10 -->
<g id="node22" class="node">
<title>ast.Subscript object at 0x7dbe75028f10</title>
<path fill="#66cdaa" stroke="black" d="M320,-180C320,-180 276,-180 276,-180 270,-180 264,-174 264,-168 264,-168 264,-156 264,-156 264,-150 270,-144 276,-144 276,-144 320,-144 320,-144 326,-144 332,-150 332,-156 332,-156 332,-168 332,-168 332,-174 326,-180 320,-180"/>
<text text-anchor="middle" x="298" y="-158.3" font-family="Times,serif" font-size="14.00">Subscript</text>
</g>
<!-- ast.Call object at 0x7dbe7502ae90&#45;&gt;ast.Subscript object at 0x7dbe75028f10 -->
<g id="edge25" class="edge">
<title>ast.Call object at 0x7dbe7502ae90&#45;&gt;ast.Subscript object at 0x7dbe75028f10</title>
<path fill="none" stroke="black" d="M375.05,-215.88C361.96,-206.89 345.74,-195.76 331.56,-186.03"/>
<polygon fill="black" stroke="black" points="333.27,-182.96 323.05,-180.19 329.31,-188.73 333.27,-182.96"/>
</g>
<!-- ast.keyword object at 0x7dbe7502b990 -->
<g id="node26" class="node">
<title>ast.keyword object at 0x7dbe7502b990</title>
<path fill="#66cdaa" stroke="black" d="M474,-180C474,-180 434,-180 434,-180 428,-180 422,-174 422,-168 422,-168 422,-156 422,-156 422,-150 428,-144 434,-144 434,-144 474,-144 474,-144 480,-144 486,-150 486,-156 486,-156 486,-168 486,-168 486,-174 480,-180 474,-180"/>
<text text-anchor="middle" x="454" y="-158.3" font-family="Times,serif" font-size="14.00">keyword</text>
</g>
<!-- ast.Call object at 0x7dbe7502ae90&#45;&gt;ast.keyword object at 0x7dbe7502b990 -->
<g id="edge31" class="edge">
<title>ast.Call object at 0x7dbe7502ae90&#45;&gt;ast.keyword object at 0x7dbe7502b990</title>
<path fill="none" stroke="black" d="M413.35,-215.7C419.76,-207.39 427.56,-197.28 434.61,-188.14"/>
<polygon fill="black" stroke="black" points="437.47,-190.16 440.81,-180.1 431.93,-185.88 437.47,-190.16"/>
</g>
<!-- ast.Name object at 0x7dbe75029c50&#45;&gt;ast.Load object at 0x7dbf54602c10 -->
<g id="edge24" class="edge">
<title>ast.Name object at 0x7dbe75029c50&#45;&gt;ast.Load object at 0x7dbf54602c10</title>
<path fill="none" stroke="black" d="M380.94,-143.83C383.31,-133.46 386.37,-119.98 389,-108 393.55,-87.3 398.55,-63.85 402.28,-46.22"/>
<polygon fill="black" stroke="black" points="405.78,-46.58 404.42,-36.08 398.93,-45.14 405.78,-46.58"/>
</g>
<!-- ast.Subscript object at 0x7dbe75028f10&#45;&gt;ast.Load object at 0x7dbf54602c10 -->
<g id="edge30" class="edge">
<title>ast.Subscript object at 0x7dbe75028f10&#45;&gt;ast.Load object at 0x7dbf54602c10</title>
<path fill="none" stroke="black" d="M297.68,-143.96C298.15,-124.73 301.52,-93.37 317,-72 330.4,-53.51 352.38,-40.44 371.39,-31.91"/>
<polygon fill="black" stroke="black" points="372.86,-35.09 380.71,-27.97 370.13,-28.64 372.86,-35.09"/>
</g>
<!-- ast.Name object at 0x7dbe7502b1d0 -->
<g id="node23" class="node">
<title>ast.Name object at 0x7dbe7502b1d0</title>
<path fill="#66cdaa" stroke="black" d="M368,-108C368,-108 338,-108 338,-108 332,-108 326,-102 326,-96 326,-96 326,-84 326,-84 326,-78 332,-72 338,-72 338,-72 368,-72 368,-72 374,-72 380,-78 380,-84 380,-84 380,-96 380,-96 380,-102 374,-108 368,-108"/>
<text text-anchor="middle" x="353" y="-86.3" font-family="Times,serif" font-size="14.00">Name</text>
</g>
<!-- ast.Subscript object at 0x7dbe75028f10&#45;&gt;ast.Name object at 0x7dbe7502b1d0 -->
<g id="edge26" class="edge">
<title>ast.Subscript object at 0x7dbe75028f10&#45;&gt;ast.Name object at 0x7dbe7502b1d0</title>
<path fill="none" stroke="black" d="M311.6,-143.7C318.12,-135.39 326.07,-125.28 333.25,-116.14"/>
<polygon fill="black" stroke="black" points="336.13,-118.13 339.56,-108.1 330.63,-113.81 336.13,-118.13"/>
</g>
<!-- ast.Slice object at 0x7dbe75028590 -->
<g id="node24" class="node">
<title>ast.Slice object at 0x7dbe75028590</title>
<path fill="#66cdaa" stroke="black" d="M258,-108C258,-108 228,-108 228,-108 222,-108 216,-102 216,-96 216,-96 216,-84 216,-84 216,-78 222,-72 228,-72 228,-72 258,-72 258,-72 264,-72 270,-78 270,-84 270,-84 270,-96 270,-96 270,-102 264,-108 258,-108"/>
<text text-anchor="middle" x="243" y="-86.3" font-family="Times,serif" font-size="14.00">Slice</text>
</g>
<!-- ast.Subscript object at 0x7dbe75028f10&#45;&gt;ast.Slice object at 0x7dbe75028590 -->
<g id="edge28" class="edge">
<title>ast.Subscript object at 0x7dbe75028f10&#45;&gt;ast.Slice object at 0x7dbe75028590</title>
<path fill="none" stroke="black" d="M284.4,-143.7C277.88,-135.39 269.93,-125.28 262.75,-116.14"/>
<polygon fill="black" stroke="black" points="265.37,-113.81 256.44,-108.1 259.87,-118.13 265.37,-113.81"/>
</g>
<!-- ast.Name object at 0x7dbe7502b1d0&#45;&gt;ast.Load object at 0x7dbf54602c10 -->
<g id="edge27" class="edge">
<title>ast.Name object at 0x7dbe7502b1d0&#45;&gt;ast.Load object at 0x7dbf54602c10</title>
<path fill="none" stroke="black" d="M366.6,-71.7C373.12,-63.39 381.07,-53.28 388.25,-44.14"/>
<polygon fill="black" stroke="black" points="391.13,-46.13 394.56,-36.1 385.63,-41.81 391.13,-46.13"/>
</g>
<!-- ast.Constant object at 0x7dbe75028290 -->
<g id="node25" class="node">
<title>ast.Constant object at 0x7dbe75028290</title>
<path fill="#66cdaa" stroke="black" d="M263.5,-36C263.5,-36 222.5,-36 222.5,-36 216.5,-36 210.5,-30 210.5,-24 210.5,-24 210.5,-12 210.5,-12 210.5,-6 216.5,0 222.5,0 222.5,0 263.5,0 263.5,0 269.5,0 275.5,-6 275.5,-12 275.5,-12 275.5,-24 275.5,-24 275.5,-30 269.5,-36 263.5,-36"/>
<text text-anchor="middle" x="243" y="-14.3" font-family="Times,serif" font-size="14.00">Constant</text>
</g>
<!-- ast.Slice object at 0x7dbe75028590&#45;&gt;ast.Constant object at 0x7dbe75028290 -->
<g id="edge29" class="edge">
<title>ast.Slice object at 0x7dbe75028590&#45;&gt;ast.Constant object at 0x7dbe75028290</title>
<path fill="none" stroke="black" d="M243,-71.7C243,-63.98 243,-54.71 243,-46.11"/>
<polygon fill="black" stroke="black" points="246.5,-46.1 243,-36.1 239.5,-46.1 246.5,-46.1"/>
</g>
<!-- ast.Constant object at 0x7dbe75028c10 -->
<g id="node27" class="node">
<title>ast.Constant object at 0x7dbe75028c10</title>
<path fill="#66cdaa" stroke="black" d="M489.5,-108C489.5,-108 448.5,-108 448.5,-108 442.5,-108 436.5,-102 436.5,-96 436.5,-96 436.5,-84 436.5,-84 436.5,-78 442.5,-72 448.5,-72 448.5,-72 489.5,-72 489.5,-72 495.5,-72 501.5,-78 501.5,-84 501.5,-84 501.5,-96 501.5,-96 501.5,-102 495.5,-108 489.5,-108"/>
<text text-anchor="middle" x="469" y="-86.3" font-family="Times,serif" font-size="14.00">Constant</text>
</g>
<!-- ast.keyword object at 0x7dbe7502b990&#45;&gt;ast.Constant object at 0x7dbe75028c10 -->
<g id="edge32" class="edge">
<title>ast.keyword object at 0x7dbe7502b990&#45;&gt;ast.Constant object at 0x7dbe75028c10</title>
<path fill="none" stroke="black" d="M457.71,-143.7C459.36,-135.98 461.35,-126.71 463.19,-118.11"/>
<polygon fill="black" stroke="black" points="466.66,-118.62 465.33,-108.1 459.82,-117.15 466.66,-118.62"/>
</g>
<!-- ast.Call object at 0x7dbe75029050 -->
<g id="node29" class="node">
<title>ast.Call object at 0x7dbe75029050</title>
<path fill="#66cdaa" stroke="black" d="M776,-180C776,-180 746,-180 746,-180 740,-180 734,-174 734,-168 734,-168 734,-156 734,-156 734,-150 740,-144 746,-144 746,-144 776,-144 776,-144 782,-144 788,-150 788,-156 788,-156 788,-168 788,-168 788,-174 782,-180 776,-180"/>
<text text-anchor="middle" x="761" y="-158.3" font-family="Times,serif" font-size="14.00">Call</text>
</g>
<!-- ast.Return object at 0x7dbe75028a10&#45;&gt;ast.Call object at 0x7dbe75029050 -->
<g id="edge34" class="edge">
<title>ast.Return object at 0x7dbe75028a10&#45;&gt;ast.Call object at 0x7dbe75029050</title>
<path fill="none" stroke="black" d="M688.01,-287.87C702.41,-263.24 729.06,-217.64 745.87,-188.88"/>
<polygon fill="black" stroke="black" points="748.93,-190.59 750.95,-180.19 742.88,-187.06 748.93,-190.59"/>
</g>
<!-- ast.Name object at 0x7dbe75029f90 -->
<g id="node30" class="node">
<title>ast.Name object at 0x7dbe75029f90</title>
<path fill="#66cdaa" stroke="black" d="M778,-108C778,-108 748,-108 748,-108 742,-108 736,-102 736,-96 736,-96 736,-84 736,-84 736,-78 742,-72 748,-72 748,-72 778,-72 778,-72 784,-72 790,-78 790,-84 790,-84 790,-96 790,-96 790,-102 784,-108 778,-108"/>
<text text-anchor="middle" x="763" y="-86.3" font-family="Times,serif" font-size="14.00">Name</text>
</g>
<!-- ast.Call object at 0x7dbe75029050&#45;&gt;ast.Name object at 0x7dbe75029f90 -->
<g id="edge35" class="edge">
<title>ast.Call object at 0x7dbe75029050&#45;&gt;ast.Name object at 0x7dbe75029f90</title>
<path fill="none" stroke="black" d="M761.49,-143.7C761.71,-135.98 761.98,-126.71 762.23,-118.11"/>
<polygon fill="black" stroke="black" points="765.72,-118.2 762.51,-108.1 758.73,-118 765.72,-118.2"/>
</g>
<!-- ast.Name object at 0x7dbe7502b4d0 -->
<g id="node31" class="node">
<title>ast.Name object at 0x7dbe7502b4d0</title>
<path fill="#66cdaa" stroke="black" d="M706,-108C706,-108 676,-108 676,-108 670,-108 664,-102 664,-96 664,-96 664,-84 664,-84 664,-78 670,-72 676,-72 676,-72 706,-72 706,-72 712,-72 718,-78 718,-84 718,-84 718,-96 718,-96 718,-102 712,-108 706,-108"/>
<text text-anchor="middle" x="691" y="-86.3" font-family="Times,serif" font-size="14.00">Name</text>
</g>
<!-- ast.Call object at 0x7dbe75029050&#45;&gt;ast.Name object at 0x7dbe7502b4d0 -->
<g id="edge37" class="edge">
<title>ast.Call object at 0x7dbe75029050&#45;&gt;ast.Name object at 0x7dbe7502b4d0</title>
<path fill="none" stroke="black" d="M743.7,-143.7C735.14,-135.14 724.66,-124.66 715.3,-115.3"/>
<polygon fill="black" stroke="black" points="717.65,-112.7 708.1,-108.1 712.7,-117.65 717.65,-112.7"/>
</g>
<!-- ast.keyword object at 0x7dbe75029890 -->
<g id="node32" class="node">
<title>ast.keyword object at 0x7dbe75029890</title>
<path fill="#66cdaa" stroke="black" d="M860,-108C860,-108 820,-108 820,-108 814,-108 808,-102 808,-96 808,-96 808,-84 808,-84 808,-78 814,-72 820,-72 820,-72 860,-72 860,-72 866,-72 872,-78 872,-84 872,-84 872,-96 872,-96 872,-102 866,-108 860,-108"/>
<text text-anchor="middle" x="840" y="-86.3" font-family="Times,serif" font-size="14.00">keyword</text>
</g>
<!-- ast.Call object at 0x7dbe75029050&#45;&gt;ast.keyword object at 0x7dbe75029890 -->
<g id="edge39" class="edge">
<title>ast.Call object at 0x7dbe75029050&#45;&gt;ast.keyword object at 0x7dbe75029890</title>
<path fill="none" stroke="black" d="M780.53,-143.7C790.38,-134.97 802.49,-124.24 813.2,-114.75"/>
<polygon fill="black" stroke="black" points="815.53,-117.36 820.7,-108.1 810.89,-112.12 815.53,-117.36"/>
</g>
<!-- ast.Name object at 0x7dbe75029f90&#45;&gt;ast.Load object at 0x7dbf54602c10 -->
<g id="edge36" class="edge">
<title>ast.Name object at 0x7dbe75029f90&#45;&gt;ast.Load object at 0x7dbf54602c10</title>
<path fill="none" stroke="black" d="M735.8,-75.2C732.87,-74 729.9,-72.91 727,-72 627.92,-41.04 505.55,-27.15 445.23,-21.83"/>
<polygon fill="black" stroke="black" points="445.31,-18.32 435.05,-20.96 444.71,-25.3 445.31,-18.32"/>
</g>
<!-- ast.Name object at 0x7dbe7502b4d0&#45;&gt;ast.Load object at 0x7dbf54602c10 -->
<g id="edge38" class="edge">
<title>ast.Name object at 0x7dbe7502b4d0&#45;&gt;ast.Load object at 0x7dbf54602c10</title>
<path fill="none" stroke="black" d="M663.75,-75.34C660.83,-74.12 657.88,-72.97 655,-72 582.62,-47.51 494.36,-31.81 445.36,-24.27"/>
<polygon fill="black" stroke="black" points="445.64,-20.78 435.23,-22.75 444.59,-27.7 445.64,-20.78"/>
</g>
<!-- ast.Constant object at 0x7dbe75028dd0 -->
<g id="node33" class="node">
<title>ast.Constant object at 0x7dbe75028dd0</title>
<path fill="#66cdaa" stroke="black" d="M860.5,-36C860.5,-36 819.5,-36 819.5,-36 813.5,-36 807.5,-30 807.5,-24 807.5,-24 807.5,-12 807.5,-12 807.5,-6 813.5,0 819.5,0 819.5,0 860.5,0 860.5,0 866.5,0 872.5,-6 872.5,-12 872.5,-12 872.5,-24 872.5,-24 872.5,-30 866.5,-36 860.5,-36"/>
<text text-anchor="middle" x="840" y="-14.3" font-family="Times,serif" font-size="14.00">Constant</text>
</g>
<!-- ast.keyword object at 0x7dbe75029890&#45;&gt;ast.Constant object at 0x7dbe75028dd0 -->
<g id="edge40" class="edge">
<title>ast.keyword object at 0x7dbe75029890&#45;&gt;ast.Constant object at 0x7dbe75028dd0</title>
<path fill="none" stroke="black" d="M840,-71.7C840,-63.98 840,-54.71 840,-46.11"/>
<polygon fill="black" stroke="black" points="843.5,-46.1 840,-36.1 836.5,-46.1 843.5,-46.1"/>
</g>
</g>
</svg>
