<?xml version="1.0" encoding="UTF-8" standalone="no"?>
<!DOCTYPE svg PUBLIC "-//W3C//DTD SVG 1.1//EN"
 "http://www.w3.org/Graphics/SVG/1.1/DTD/svg11.dtd">
<!-- Generated by graphviz version 2.50.0 (0)
 -->
<!-- Pages: 1 -->
<svg width="780pt" height="620pt"
 viewBox="0.00 0.00 780.00 620.00" xmlns="http://www.w3.org/2000/svg" xmlns:xlink="http://www.w3.org/1999/xlink">
<g id="graph0" class="graph" transform="scale(1 1) rotate(0) translate(4 616)">
<polygon fill="white" stroke="transparent" points="-4,4 -4,-616 776,-616 776,4 -4,4"/>
<!-- ast.Module object at 0x7405d5a220d0 -->
<g id="node1" class="node">
<title>ast.Module object at 0x7405d5a220d0</title>
<path fill="#66cdaa" stroke="black" d="M338,-612C338,-612 303,-612 303,-612 297,-612 291,-606 291,-600 291,-600 291,-588 291,-588 291,-582 297,-576 303,-576 303,-576 338,-576 338,-576 344,-576 350,-582 350,-588 350,-588 350,-600 350,-600 350,-606 344,-612 338,-612"/>
<text text-anchor="middle" x="320.5" y="-590.3" font-family="Times,serif" font-size="14.00">Module</text>
</g>
<!-- ast.FunctionDef object at 0x7405d5a23890 -->
<g id="node2" class="node">
<title>ast.FunctionDef object at 0x7405d5a23890</title>
<path fill="#66cdaa" stroke="black" d="M351,-540C351,-540 290,-540 290,-540 284,-540 278,-534 278,-528 278,-528 278,-516 278,-516 278,-510 284,-504 290,-504 290,-504 351,-504 351,-504 357,-504 363,-510 363,-516 363,-516 363,-528 363,-528 363,-534 357,-540 351,-540"/>
<text text-anchor="middle" x="320.5" y="-518.3" font-family="Times,serif" font-size="14.00">FunctionDef</text>
</g>
<!-- ast.Module object at 0x7405d5a220d0&#45;&gt;ast.FunctionDef object at 0x7405d5a23890 -->
<g id="edge1" class="edge">
<title>ast.Module object at 0x7405d5a220d0&#45;&gt;ast.FunctionDef object at 0x7405d5a23890</title>
<path fill="none" stroke="black" d="M320.5,-575.7C320.5,-567.98 320.5,-558.71 320.5,-550.11"/>
<polygon fill="black" stroke="black" points="324,-550.1 320.5,-540.1 317,-550.1 324,-550.1"/>
</g>
<!-- ast.arguments object at 0x7405d5a20550 -->
<g id="node3" class="node">
<title>ast.arguments object at 0x7405d5a20550</title>
<path fill="#66cdaa" stroke="black" d="M248.5,-468C248.5,-468 198.5,-468 198.5,-468 192.5,-468 186.5,-462 186.5,-456 186.5,-456 186.5,-444 186.5,-444 186.5,-438 192.5,-432 198.5,-432 198.5,-432 248.5,-432 248.5,-432 254.5,-432 260.5,-438 260.5,-444 260.5,-444 260.5,-456 260.5,-456 260.5,-462 254.5,-468 248.5,-468"/>
<text text-anchor="middle" x="223.5" y="-446.3" font-family="Times,serif" font-size="14.00">arguments</text>
</g>
<!-- ast.FunctionDef object at 0x7405d5a23890&#45;&gt;ast.arguments object at 0x7405d5a20550 -->
<g id="edge2" class="edge">
<title>ast.FunctionDef object at 0x7405d5a23890&#45;&gt;ast.arguments object at 0x7405d5a20550</title>
<path fill="none" stroke="black" d="M296.52,-503.7C284.19,-494.8 268.98,-483.82 255.65,-474.2"/>
<polygon fill="black" stroke="black" points="257.36,-471.12 247.2,-468.1 253.26,-476.79 257.36,-471.12"/>
</g>
<!-- ast.Assign object at 0x7405d5b53b90 -->
<g id="node5" class="node">
<title>ast.Assign object at 0x7405d5b53b90</title>
<path fill="#66cdaa" stroke="black" d="M335.5,-468C335.5,-468 305.5,-468 305.5,-468 299.5,-468 293.5,-462 293.5,-456 293.5,-456 293.5,-444 293.5,-444 293.5,-438 299.5,-432 305.5,-432 305.5,-432 335.5,-432 335.5,-432 341.5,-432 347.5,-438 347.5,-444 347.5,-444 347.5,-456 347.5,-456 347.5,-462 341.5,-468 335.5,-468"/>
<text text-anchor="middle" x="320.5" y="-446.3" font-family="Times,serif" font-size="14.00">Assign</text>
</g>
<!-- ast.FunctionDef object at 0x7405d5a23890&#45;&gt;ast.Assign object at 0x7405d5b53b90 -->
<g id="edge4" class="edge">
<title>ast.FunctionDef object at 0x7405d5a23890&#45;&gt;ast.Assign object at 0x7405d5b53b90</title>
<path fill="none" stroke="black" d="M320.5,-503.7C320.5,-495.98 320.5,-486.71 320.5,-478.11"/>
<polygon fill="black" stroke="black" points="324,-478.1 320.5,-468.1 317,-478.1 324,-478.1"/>
</g>
<!-- ast.Return object at 0x7405d5a9f350 -->
<g id="node19" class="node">
<title>ast.Return object at 0x7405d5a9f350</title>
<path fill="#66cdaa" stroke="black" d="M473.5,-468C473.5,-468 443.5,-468 443.5,-468 437.5,-468 431.5,-462 431.5,-456 431.5,-456 431.5,-444 431.5,-444 431.5,-438 437.5,-432 443.5,-432 443.5,-432 473.5,-432 473.5,-432 479.5,-432 485.5,-438 485.5,-444 485.5,-444 485.5,-456 485.5,-456 485.5,-462 479.5,-468 473.5,-468"/>
<text text-anchor="middle" x="458.5" y="-446.3" font-family="Times,serif" font-size="14.00">Return</text>
</g>
<!-- ast.FunctionDef object at 0x7405d5a23890&#45;&gt;ast.Return object at 0x7405d5a9f350 -->
<g id="edge21" class="edge">
<title>ast.FunctionDef object at 0x7405d5a23890&#45;&gt;ast.Return object at 0x7405d5a9f350</title>
<path fill="none" stroke="black" d="M354.26,-503.88C374.83,-493.44 401.12,-480.1 422.15,-469.44"/>
<polygon fill="black" stroke="black" points="423.77,-472.54 431.11,-464.9 420.61,-466.3 423.77,-472.54"/>
</g>
<!-- ast.arg object at 0x7405e7033810 -->
<g id="node4" class="node">
<title>ast.arg object at 0x7405e7033810</title>
<path fill="#66cdaa" stroke="black" d="M207.5,-396C207.5,-396 177.5,-396 177.5,-396 171.5,-396 165.5,-390 165.5,-384 165.5,-384 165.5,-372 165.5,-372 165.5,-366 171.5,-360 177.5,-360 177.5,-360 207.5,-360 207.5,-360 213.5,-360 219.5,-366 219.5,-372 219.5,-372 219.5,-384 219.5,-384 219.5,-390 213.5,-396 207.5,-396"/>
<text text-anchor="middle" x="192.5" y="-374.3" font-family="Times,serif" font-size="14.00">arg</text>
</g>
<!-- ast.arguments object at 0x7405d5a20550&#45;&gt;ast.arg object at 0x7405e7033810 -->
<g id="edge3" class="edge">
<title>ast.arguments object at 0x7405d5a20550&#45;&gt;ast.arg object at 0x7405e7033810</title>
<path fill="none" stroke="black" d="M215.84,-431.7C212.31,-423.73 208.04,-414.1 204.13,-405.26"/>
<polygon fill="black" stroke="black" points="207.32,-403.83 200.07,-396.1 200.92,-406.67 207.32,-403.83"/>
</g>
<!-- ast.Name object at 0x7405d5a54810 -->
<g id="node6" class="node">
<title>ast.Name object at 0x7405d5a54810</title>
<path fill="#66cdaa" stroke="black" d="M351.5,-396C351.5,-396 321.5,-396 321.5,-396 315.5,-396 309.5,-390 309.5,-384 309.5,-384 309.5,-372 309.5,-372 309.5,-366 315.5,-360 321.5,-360 321.5,-360 351.5,-360 351.5,-360 357.5,-360 363.5,-366 363.5,-372 363.5,-372 363.5,-384 363.5,-384 363.5,-390 357.5,-396 351.5,-396"/>
<text text-anchor="middle" x="336.5" y="-374.3" font-family="Times,serif" font-size="14.00">Name</text>
</g>
<!-- ast.Assign object at 0x7405d5b53b90&#45;&gt;ast.Name object at 0x7405d5a54810 -->
<g id="edge5" class="edge">
<title>ast.Assign object at 0x7405d5b53b90&#45;&gt;ast.Name object at 0x7405d5a54810</title>
<path fill="none" stroke="black" d="M324.46,-431.7C326.22,-423.98 328.34,-414.71 330.3,-406.11"/>
<polygon fill="black" stroke="black" points="333.77,-406.63 332.59,-396.1 326.95,-405.07 333.77,-406.63"/>
</g>
<!-- ast.Call object at 0x7405d5dbc2d0 -->
<g id="node8" class="node">
<title>ast.Call object at 0x7405d5dbc2d0</title>
<path fill="#66cdaa" stroke="black" d="M279.5,-396C279.5,-396 249.5,-396 249.5,-396 243.5,-396 237.5,-390 237.5,-384 237.5,-384 237.5,-372 237.5,-372 237.5,-366 243.5,-360 249.5,-360 249.5,-360 279.5,-360 279.5,-360 285.5,-360 291.5,-366 291.5,-372 291.5,-372 291.5,-384 291.5,-384 291.5,-390 285.5,-396 279.5,-396"/>
<text text-anchor="middle" x="264.5" y="-374.3" font-family="Times,serif" font-size="14.00">Call</text>
</g>
<!-- ast.Assign object at 0x7405d5b53b90&#45;&gt;ast.Call object at 0x7405d5dbc2d0 -->
<g id="edge7" class="edge">
<title>ast.Assign object at 0x7405d5b53b90&#45;&gt;ast.Call object at 0x7405d5dbc2d0</title>
<path fill="none" stroke="black" d="M306.66,-431.7C300.01,-423.39 291.92,-413.28 284.61,-404.14"/>
<polygon fill="black" stroke="black" points="287.16,-401.73 278.18,-396.1 281.7,-406.1 287.16,-401.73"/>
</g>
<!-- ast.Store object at 0x7405e6dbd950 -->
<g id="node7" class="node">
<title>ast.Store object at 0x7405e6dbd950</title>
<path fill="#66cdaa" stroke="black" d="M346.5,-108C346.5,-108 316.5,-108 316.5,-108 310.5,-108 304.5,-102 304.5,-96 304.5,-96 304.5,-84 304.5,-84 304.5,-78 310.5,-72 316.5,-72 316.5,-72 346.5,-72 346.5,-72 352.5,-72 358.5,-78 358.5,-84 358.5,-84 358.5,-96 358.5,-96 358.5,-102 352.5,-108 346.5,-108"/>
<text text-anchor="middle" x="331.5" y="-86.3" font-family="Times,serif" font-size="14.00">Store</text>
</g>
<!-- ast.Name object at 0x7405d5a54810&#45;&gt;ast.Store object at 0x7405e6dbd950 -->
<g id="edge6" class="edge">
<title>ast.Name object at 0x7405d5a54810&#45;&gt;ast.Store object at 0x7405e6dbd950</title>
<path fill="none" stroke="black" d="M336.2,-359.97C335.37,-312.29 333.01,-177.18 331.98,-118.63"/>
<polygon fill="black" stroke="black" points="335.48,-118.24 331.8,-108.31 328.48,-118.37 335.48,-118.24"/>
</g>
<!-- ast.Attribute object at 0x7405d5d65050 -->
<g id="node9" class="node">
<title>ast.Attribute object at 0x7405d5d65050</title>
<path fill="#66cdaa" stroke="black" d="M208,-324C208,-324 167,-324 167,-324 161,-324 155,-318 155,-312 155,-312 155,-300 155,-300 155,-294 161,-288 167,-288 167,-288 208,-288 208,-288 214,-288 220,-294 220,-300 220,-300 220,-312 220,-312 220,-318 214,-324 208,-324"/>
<text text-anchor="middle" x="187.5" y="-302.3" font-family="Times,serif" font-size="14.00">Attribute</text>
</g>
<!-- ast.Call object at 0x7405d5dbc2d0&#45;&gt;ast.Attribute object at 0x7405d5d65050 -->
<g id="edge8" class="edge">
<title>ast.Call object at 0x7405d5dbc2d0&#45;&gt;ast.Attribute object at 0x7405d5d65050</title>
<path fill="none" stroke="black" d="M245.47,-359.7C235.96,-351.05 224.29,-340.45 213.93,-331.03"/>
<polygon fill="black" stroke="black" points="216.07,-328.24 206.31,-324.1 211.36,-333.42 216.07,-328.24"/>
</g>
<!-- ast.Constant object at 0x7405d5a9f6d0 -->
<g id="node18" class="node">
<title>ast.Constant object at 0x7405d5a9f6d0</title>
<path fill="#66cdaa" stroke="black" d="M291,-324C291,-324 250,-324 250,-324 244,-324 238,-318 238,-312 238,-312 238,-300 238,-300 238,-294 244,-288 250,-288 250,-288 291,-288 291,-288 297,-288 303,-294 303,-300 303,-300 303,-312 303,-312 303,-318 297,-324 291,-324"/>
<text text-anchor="middle" x="270.5" y="-302.3" font-family="Times,serif" font-size="14.00">Constant</text>
</g>
<!-- ast.Call object at 0x7405d5dbc2d0&#45;&gt;ast.Constant object at 0x7405d5a9f6d0 -->
<g id="edge20" class="edge">
<title>ast.Call object at 0x7405d5dbc2d0&#45;&gt;ast.Constant object at 0x7405d5a9f6d0</title>
<path fill="none" stroke="black" d="M265.98,-359.7C266.64,-351.98 267.44,-342.71 268.18,-334.11"/>
<polygon fill="black" stroke="black" points="271.67,-334.37 269.03,-324.1 264.69,-333.77 271.67,-334.37"/>
</g>
<!-- ast.Call object at 0x7405d5a9d850 -->
<g id="node10" class="node">
<title>ast.Call object at 0x7405d5a9d850</title>
<path fill="#66cdaa" stroke="black" d="M202.5,-252C202.5,-252 172.5,-252 172.5,-252 166.5,-252 160.5,-246 160.5,-240 160.5,-240 160.5,-228 160.5,-228 160.5,-222 166.5,-216 172.5,-216 172.5,-216 202.5,-216 202.5,-216 208.5,-216 214.5,-222 214.5,-228 214.5,-228 214.5,-240 214.5,-240 214.5,-246 208.5,-252 202.5,-252"/>
<text text-anchor="middle" x="187.5" y="-230.3" font-family="Times,serif" font-size="14.00">Call</text>
</g>
<!-- ast.Attribute object at 0x7405d5d65050&#45;&gt;ast.Call object at 0x7405d5a9d850 -->
<g id="edge9" class="edge">
<title>ast.Attribute object at 0x7405d5d65050&#45;&gt;ast.Call object at 0x7405d5a9d850</title>
<path fill="none" stroke="black" d="M187.5,-287.7C187.5,-279.98 187.5,-270.71 187.5,-262.11"/>
<polygon fill="black" stroke="black" points="191,-262.1 187.5,-252.1 184,-262.1 191,-262.1"/>
</g>
<!-- ast.Load object at 0x7405e6dbd8d0 -->
<g id="node12" class="node">
<title>ast.Load object at 0x7405e6dbd8d0</title>
<path fill="#66cdaa" stroke="black" d="M401.5,-36C401.5,-36 371.5,-36 371.5,-36 365.5,-36 359.5,-30 359.5,-24 359.5,-24 359.5,-12 359.5,-12 359.5,-6 365.5,0 371.5,0 371.5,0 401.5,0 401.5,0 407.5,0 413.5,-6 413.5,-12 413.5,-12 413.5,-24 413.5,-24 413.5,-30 407.5,-36 401.5,-36"/>
<text text-anchor="middle" x="386.5" y="-14.3" font-family="Times,serif" font-size="14.00">Load</text>
</g>
<!-- ast.Attribute object at 0x7405d5d65050&#45;&gt;ast.Load object at 0x7405e6dbd8d0 -->
<g id="edge19" class="edge">
<title>ast.Attribute object at 0x7405d5d65050&#45;&gt;ast.Load object at 0x7405e6dbd8d0</title>
<path fill="none" stroke="black" d="M200.49,-287.93C207.82,-277.82 216.82,-264.57 223.5,-252 263.94,-175.92 239.21,-137.23 295.5,-72 310.15,-55.03 331.64,-42.15 350.06,-33.35"/>
<polygon fill="black" stroke="black" points="351.71,-36.44 359.36,-29.11 348.81,-30.07 351.71,-36.44"/>
</g>
<!-- ast.Name object at 0x7405d5a9c290 -->
<g id="node11" class="node">
<title>ast.Name object at 0x7405d5a9c290</title>
<path fill="#66cdaa" stroke="black" d="M133.5,-180C133.5,-180 103.5,-180 103.5,-180 97.5,-180 91.5,-174 91.5,-168 91.5,-168 91.5,-156 91.5,-156 91.5,-150 97.5,-144 103.5,-144 103.5,-144 133.5,-144 133.5,-144 139.5,-144 145.5,-150 145.5,-156 145.5,-156 145.5,-168 145.5,-168 145.5,-174 139.5,-180 133.5,-180"/>
<text text-anchor="middle" x="118.5" y="-158.3" font-family="Times,serif" font-size="14.00">Name</text>
</g>
<!-- ast.Call object at 0x7405d5a9d850&#45;&gt;ast.Name object at 0x7405d5a9c290 -->
<g id="edge10" class="edge">
<title>ast.Call object at 0x7405d5a9d850&#45;&gt;ast.Name object at 0x7405d5a9c290</title>
<path fill="none" stroke="black" d="M170.44,-215.7C162,-207.14 151.68,-196.66 142.46,-187.3"/>
<polygon fill="black" stroke="black" points="144.87,-184.77 135.36,-180.1 139.89,-189.68 144.87,-184.77"/>
</g>
<!-- ast.Subscript object at 0x7405d5a9c550 -->
<g id="node13" class="node">
<title>ast.Subscript object at 0x7405d5a9c550</title>
<path fill="#66cdaa" stroke="black" d="M219.5,-180C219.5,-180 175.5,-180 175.5,-180 169.5,-180 163.5,-174 163.5,-168 163.5,-168 163.5,-156 163.5,-156 163.5,-150 169.5,-144 175.5,-144 175.5,-144 219.5,-144 219.5,-144 225.5,-144 231.5,-150 231.5,-156 231.5,-156 231.5,-168 231.5,-168 231.5,-174 225.5,-180 219.5,-180"/>
<text text-anchor="middle" x="197.5" y="-158.3" font-family="Times,serif" font-size="14.00">Subscript</text>
</g>
<!-- ast.Call object at 0x7405d5a9d850&#45;&gt;ast.Subscript object at 0x7405d5a9c550 -->
<g id="edge12" class="edge">
<title>ast.Call object at 0x7405d5a9d850&#45;&gt;ast.Subscript object at 0x7405d5a9c550</title>
<path fill="none" stroke="black" d="M189.97,-215.7C191.07,-207.98 192.4,-198.71 193.63,-190.11"/>
<polygon fill="black" stroke="black" points="197.11,-190.5 195.06,-180.1 190.18,-189.51 197.11,-190.5"/>
</g>
<!-- ast.Name object at 0x7405d5a9c290&#45;&gt;ast.Load object at 0x7405e6dbd8d0 -->
<g id="edge11" class="edge">
<title>ast.Name object at 0x7405d5a9c290&#45;&gt;ast.Load object at 0x7405e6dbd8d0</title>
<path fill="none" stroke="black" d="M124.51,-143.78C132.49,-123.48 148.56,-90.21 173.5,-72 226.18,-33.54 303.64,-22.82 349.19,-19.93"/>
<polygon fill="black" stroke="black" points="349.43,-23.43 359.22,-19.39 349.05,-16.44 349.43,-23.43"/>
</g>
<!-- ast.Subscript object at 0x7405d5a9c550&#45;&gt;ast.Load object at 0x7405e6dbd8d0 -->
<g id="edge18" class="edge">
<title>ast.Subscript object at 0x7405d5a9c550&#45;&gt;ast.Load object at 0x7405e6dbd8d0</title>
<path fill="none" stroke="black" d="M188.4,-143.69C179.56,-124.22 169.61,-92.63 185.5,-72 205.38,-46.2 297.12,-30.44 349.52,-23.38"/>
<polygon fill="black" stroke="black" points="349.98,-26.85 359.45,-22.09 349.08,-19.91 349.98,-26.85"/>
</g>
<!-- ast.Name object at 0x7405d5a9d010 -->
<g id="node14" class="node">
<title>ast.Name object at 0x7405d5a9d010</title>
<path fill="#66cdaa" stroke="black" d="M236.5,-108C236.5,-108 206.5,-108 206.5,-108 200.5,-108 194.5,-102 194.5,-96 194.5,-96 194.5,-84 194.5,-84 194.5,-78 200.5,-72 206.5,-72 206.5,-72 236.5,-72 236.5,-72 242.5,-72 248.5,-78 248.5,-84 248.5,-84 248.5,-96 248.5,-96 248.5,-102 242.5,-108 236.5,-108"/>
<text text-anchor="middle" x="221.5" y="-86.3" font-family="Times,serif" font-size="14.00">Name</text>
</g>
<!-- ast.Subscript object at 0x7405d5a9c550&#45;&gt;ast.Name object at 0x7405d5a9d010 -->
<g id="edge13" class="edge">
<title>ast.Subscript object at 0x7405d5a9c550&#45;&gt;ast.Name object at 0x7405d5a9d010</title>
<path fill="none" stroke="black" d="M203.43,-143.7C206.11,-135.9 209.33,-126.51 212.3,-117.83"/>
<polygon fill="black" stroke="black" points="215.7,-118.7 215.64,-108.1 209.08,-116.43 215.7,-118.7"/>
</g>
<!-- ast.Slice object at 0x7405d5a9ce50 -->
<g id="node15" class="node">
<title>ast.Slice object at 0x7405d5a9ce50</title>
<path fill="#66cdaa" stroke="black" d="M88.5,-108C88.5,-108 58.5,-108 58.5,-108 52.5,-108 46.5,-102 46.5,-96 46.5,-96 46.5,-84 46.5,-84 46.5,-78 52.5,-72 58.5,-72 58.5,-72 88.5,-72 88.5,-72 94.5,-72 100.5,-78 100.5,-84 100.5,-84 100.5,-96 100.5,-96 100.5,-102 94.5,-108 88.5,-108"/>
<text text-anchor="middle" x="73.5" y="-86.3" font-family="Times,serif" font-size="14.00">Slice</text>
</g>
<!-- ast.Subscript object at 0x7405d5a9c550&#45;&gt;ast.Slice object at 0x7405d5a9ce50 -->
<g id="edge15" class="edge">
<title>ast.Subscript object at 0x7405d5a9c550&#45;&gt;ast.Slice object at 0x7405d5a9ce50</title>
<path fill="none" stroke="black" d="M167.17,-143.88C149.75,-134.04 127.77,-121.64 109.48,-111.31"/>
<polygon fill="black" stroke="black" points="111,-108.15 100.57,-106.28 107.55,-114.24 111,-108.15"/>
</g>
<!-- ast.Name object at 0x7405d5a9d010&#45;&gt;ast.Load object at 0x7405e6dbd8d0 -->
<g id="edge14" class="edge">
<title>ast.Name object at 0x7405d5a9d010&#45;&gt;ast.Load object at 0x7405e6dbd8d0</title>
<path fill="none" stroke="black" d="M248.75,-77.44C276.42,-65.7 319.43,-47.45 350.03,-34.47"/>
<polygon fill="black" stroke="black" points="351.65,-37.59 359.49,-30.46 348.91,-31.14 351.65,-37.59"/>
</g>
<!-- ast.Constant object at 0x7405d5a9e210 -->
<g id="node16" class="node">
<title>ast.Constant object at 0x7405d5a9e210</title>
<path fill="#66cdaa" stroke="black" d="M53,-36C53,-36 12,-36 12,-36 6,-36 0,-30 0,-24 0,-24 0,-12 0,-12 0,-6 6,0 12,0 12,0 53,0 53,0 59,0 65,-6 65,-12 65,-12 65,-24 65,-24 65,-30 59,-36 53,-36"/>
<text text-anchor="middle" x="32.5" y="-14.3" font-family="Times,serif" font-size="14.00">Constant</text>
</g>
<!-- ast.Slice object at 0x7405d5a9ce50&#45;&gt;ast.Constant object at 0x7405d5a9e210 -->
<g id="edge16" class="edge">
<title>ast.Slice object at 0x7405d5a9ce50&#45;&gt;ast.Constant object at 0x7405d5a9e210</title>
<path fill="none" stroke="black" d="M63.37,-71.7C58.65,-63.64 52.94,-53.89 47.72,-44.98"/>
<polygon fill="black" stroke="black" points="50.59,-42.96 42.52,-36.1 44.55,-46.5 50.59,-42.96"/>
</g>
<!-- ast.Constant object at 0x7405d5a9fdd0 -->
<g id="node17" class="node">
<title>ast.Constant object at 0x7405d5a9fdd0</title>
<path fill="#66cdaa" stroke="black" d="M136,-36C136,-36 95,-36 95,-36 89,-36 83,-30 83,-24 83,-24 83,-12 83,-12 83,-6 89,0 95,0 95,0 136,0 136,0 142,0 148,-6 148,-12 148,-12 148,-24 148,-24 148,-30 142,-36 136,-36"/>
<text text-anchor="middle" x="115.5" y="-14.3" font-family="Times,serif" font-size="14.00">Constant</text>
</g>
<!-- ast.Slice object at 0x7405d5a9ce50&#45;&gt;ast.Constant object at 0x7405d5a9fdd0 -->
<g id="edge17" class="edge">
<title>ast.Slice object at 0x7405d5a9ce50&#45;&gt;ast.Constant object at 0x7405d5a9fdd0</title>
<path fill="none" stroke="black" d="M83.88,-71.7C88.76,-63.56 94.69,-53.69 100.08,-44.7"/>
<polygon fill="black" stroke="black" points="103.09,-46.48 105.24,-36.1 97.09,-42.88 103.09,-46.48"/>
</g>
<!-- ast.Call object at 0x7405d5a9fd10 -->
<g id="node20" class="node">
<title>ast.Call object at 0x7405d5a9fd10</title>
<path fill="#66cdaa" stroke="black" d="M551.5,-396C551.5,-396 521.5,-396 521.5,-396 515.5,-396 509.5,-390 509.5,-384 509.5,-384 509.5,-372 509.5,-372 509.5,-366 515.5,-360 521.5,-360 521.5,-360 551.5,-360 551.5,-360 557.5,-360 563.5,-366 563.5,-372 563.5,-372 563.5,-384 563.5,-384 563.5,-390 557.5,-396 551.5,-396"/>
<text text-anchor="middle" x="536.5" y="-374.3" font-family="Times,serif" font-size="14.00">Call</text>
</g>
<!-- ast.Return object at 0x7405d5a9f350&#45;&gt;ast.Call object at 0x7405d5a9fd10 -->
<g id="edge22" class="edge">
<title>ast.Return object at 0x7405d5a9f350&#45;&gt;ast.Call object at 0x7405d5a9fd10</title>
<path fill="none" stroke="black" d="M477.78,-431.7C487.42,-423.05 499.23,-412.45 509.73,-403.03"/>
<polygon fill="black" stroke="black" points="512.34,-405.39 517.44,-396.1 507.66,-400.18 512.34,-405.39"/>
</g>
<!-- ast.Attribute object at 0x7405d5be5650 -->
<g id="node21" class="node">
<title>ast.Attribute object at 0x7405d5be5650</title>
<path fill="#66cdaa" stroke="black" d="M699,-324C699,-324 658,-324 658,-324 652,-324 646,-318 646,-312 646,-312 646,-300 646,-300 646,-294 652,-288 658,-288 658,-288 699,-288 699,-288 705,-288 711,-294 711,-300 711,-300 711,-312 711,-312 711,-318 705,-324 699,-324"/>
<text text-anchor="middle" x="678.5" y="-302.3" font-family="Times,serif" font-size="14.00">Attribute</text>
</g>
<!-- ast.Call object at 0x7405d5a9fd10&#45;&gt;ast.Attribute object at 0x7405d5be5650 -->
<g id="edge23" class="edge">
<title>ast.Call object at 0x7405d5a9fd10&#45;&gt;ast.Attribute object at 0x7405d5be5650</title>
<path fill="none" stroke="black" d="M563.54,-363.67C584.22,-353.48 613.08,-339.25 636.72,-327.6"/>
<polygon fill="black" stroke="black" points="638.4,-330.67 645.82,-323.11 635.31,-324.39 638.4,-330.67"/>
</g>
<!-- ast.GeneratorExp object at 0x7405d5be5010 -->
<g id="node23" class="node">
<title>ast.GeneratorExp object at 0x7405d5be5010</title>
<path fill="#66cdaa" stroke="black" d="M570.5,-324C570.5,-324 502.5,-324 502.5,-324 496.5,-324 490.5,-318 490.5,-312 490.5,-312 490.5,-300 490.5,-300 490.5,-294 496.5,-288 502.5,-288 502.5,-288 570.5,-288 570.5,-288 576.5,-288 582.5,-294 582.5,-300 582.5,-300 582.5,-312 582.5,-312 582.5,-318 576.5,-324 570.5,-324"/>
<text text-anchor="middle" x="536.5" y="-302.3" font-family="Times,serif" font-size="14.00">GeneratorExp</text>
</g>
<!-- ast.Call object at 0x7405d5a9fd10&#45;&gt;ast.GeneratorExp object at 0x7405d5be5010 -->
<g id="edge26" class="edge">
<title>ast.Call object at 0x7405d5a9fd10&#45;&gt;ast.GeneratorExp object at 0x7405d5be5010</title>
<path fill="none" stroke="black" d="M536.5,-359.7C536.5,-351.98 536.5,-342.71 536.5,-334.11"/>
<polygon fill="black" stroke="black" points="540,-334.1 536.5,-324.1 533,-334.1 540,-334.1"/>
</g>
<!-- ast.Attribute object at 0x7405d5be5650&#45;&gt;ast.Load object at 0x7405e6dbd8d0 -->
<g id="edge25" class="edge">
<title>ast.Attribute object at 0x7405d5be5650&#45;&gt;ast.Load object at 0x7405e6dbd8d0</title>
<path fill="none" stroke="black" d="M681.63,-287.86C688.37,-245.07 699.31,-132.62 641.5,-72 612.01,-41.08 487.1,-26.93 423.72,-21.64"/>
<polygon fill="black" stroke="black" points="423.98,-18.15 413.73,-20.84 423.42,-25.13 423.98,-18.15"/>
</g>
<!-- ast.Constant object at 0x7405d5be7210 -->
<g id="node22" class="node">
<title>ast.Constant object at 0x7405d5be7210</title>
<path fill="#66cdaa" stroke="black" d="M760,-252C760,-252 719,-252 719,-252 713,-252 707,-246 707,-240 707,-240 707,-228 707,-228 707,-222 713,-216 719,-216 719,-216 760,-216 760,-216 766,-216 772,-222 772,-228 772,-228 772,-240 772,-240 772,-246 766,-252 760,-252"/>
<text text-anchor="middle" x="739.5" y="-230.3" font-family="Times,serif" font-size="14.00">Constant</text>
</g>
<!-- ast.Attribute object at 0x7405d5be5650&#45;&gt;ast.Constant object at 0x7405d5be7210 -->
<g id="edge24" class="edge">
<title>ast.Attribute object at 0x7405d5be5650&#45;&gt;ast.Constant object at 0x7405d5be7210</title>
<path fill="none" stroke="black" d="M693.58,-287.7C700.89,-279.3 709.81,-269.07 717.84,-259.86"/>
<polygon fill="black" stroke="black" points="720.66,-261.94 724.59,-252.1 715.39,-257.34 720.66,-261.94"/>
</g>
<!-- ast.Name object at 0x7405d5b39310 -->
<g id="node24" class="node">
<title>ast.Name object at 0x7405d5b39310</title>
<path fill="#66cdaa" stroke="black" d="M603.5,-252C603.5,-252 573.5,-252 573.5,-252 567.5,-252 561.5,-246 561.5,-240 561.5,-240 561.5,-228 561.5,-228 561.5,-222 567.5,-216 573.5,-216 573.5,-216 603.5,-216 603.5,-216 609.5,-216 615.5,-222 615.5,-228 615.5,-228 615.5,-240 615.5,-240 615.5,-246 609.5,-252 603.5,-252"/>
<text text-anchor="middle" x="588.5" y="-230.3" font-family="Times,serif" font-size="14.00">Name</text>
</g>
<!-- ast.GeneratorExp object at 0x7405d5be5010&#45;&gt;ast.Name object at 0x7405d5b39310 -->
<g id="edge27" class="edge">
<title>ast.GeneratorExp object at 0x7405d5be5010&#45;&gt;ast.Name object at 0x7405d5b39310</title>
<path fill="none" stroke="black" d="M549.35,-287.7C555.53,-279.39 563.04,-269.28 569.82,-260.14"/>
<polygon fill="black" stroke="black" points="572.64,-262.22 575.79,-252.1 567.02,-258.04 572.64,-262.22"/>
</g>
<!-- ast.comprehension object at 0x7405d5b39150 -->
<g id="node25" class="node">
<title>ast.comprehension object at 0x7405d5b39150</title>
<path fill="#66cdaa" stroke="black" d="M513.5,-252C513.5,-252 437.5,-252 437.5,-252 431.5,-252 425.5,-246 425.5,-240 425.5,-240 425.5,-228 425.5,-228 425.5,-222 431.5,-216 437.5,-216 437.5,-216 513.5,-216 513.5,-216 519.5,-216 525.5,-222 525.5,-228 525.5,-228 525.5,-240 525.5,-240 525.5,-246 519.5,-252 513.5,-252"/>
<text text-anchor="middle" x="475.5" y="-230.3" font-family="Times,serif" font-size="14.00">comprehension</text>
</g>
<!-- ast.GeneratorExp object at 0x7405d5be5010&#45;&gt;ast.comprehension object at 0x7405d5b39150 -->
<g id="edge29" class="edge">
<title>ast.GeneratorExp object at 0x7405d5be5010&#45;&gt;ast.comprehension object at 0x7405d5b39150</title>
<path fill="none" stroke="black" d="M521.42,-287.7C514.11,-279.3 505.19,-269.07 497.16,-259.86"/>
<polygon fill="black" stroke="black" points="499.61,-257.34 490.41,-252.1 494.34,-261.94 499.61,-257.34"/>
</g>
<!-- ast.Name object at 0x7405d5b39310&#45;&gt;ast.Load object at 0x7405e6dbd8d0 -->
<g id="edge28" class="edge">
<title>ast.Name object at 0x7405d5b39310&#45;&gt;ast.Load object at 0x7405e6dbd8d0</title>
<path fill="none" stroke="black" d="M600.07,-215.87C620.04,-183.96 655.71,-114.79 621.5,-72 597.17,-41.57 483.78,-27.36 423.85,-21.88"/>
<polygon fill="black" stroke="black" points="423.93,-18.37 413.67,-20.98 423.32,-25.35 423.93,-18.37"/>
</g>
<!-- ast.Name object at 0x7405d5b39fd0 -->
<g id="node26" class="node">
<title>ast.Name object at 0x7405d5b39fd0</title>
<path fill="#66cdaa" stroke="black" d="M401.5,-180C401.5,-180 371.5,-180 371.5,-180 365.5,-180 359.5,-174 359.5,-168 359.5,-168 359.5,-156 359.5,-156 359.5,-150 365.5,-144 371.5,-144 371.5,-144 401.5,-144 401.5,-144 407.5,-144 413.5,-150 413.5,-156 413.5,-156 413.5,-168 413.5,-168 413.5,-174 407.5,-180 401.5,-180"/>
<text text-anchor="middle" x="386.5" y="-158.3" font-family="Times,serif" font-size="14.00">Name</text>
</g>
<!-- ast.comprehension object at 0x7405d5b39150&#45;&gt;ast.Name object at 0x7405d5b39fd0 -->
<g id="edge30" class="edge">
<title>ast.comprehension object at 0x7405d5b39150&#45;&gt;ast.Name object at 0x7405d5b39fd0</title>
<path fill="none" stroke="black" d="M453.5,-215.7C442.29,-206.88 428.5,-196.03 416.35,-186.47"/>
<polygon fill="black" stroke="black" points="418.27,-183.54 408.25,-180.1 413.94,-189.04 418.27,-183.54"/>
</g>
<!-- ast.Name object at 0x7405d5a93a10 -->
<g id="node27" class="node">
<title>ast.Name object at 0x7405d5a93a10</title>
<path fill="#66cdaa" stroke="black" d="M473.5,-180C473.5,-180 443.5,-180 443.5,-180 437.5,-180 431.5,-174 431.5,-168 431.5,-168 431.5,-156 431.5,-156 431.5,-150 437.5,-144 443.5,-144 443.5,-144 473.5,-144 473.5,-144 479.5,-144 485.5,-150 485.5,-156 485.5,-156 485.5,-168 485.5,-168 485.5,-174 479.5,-180 473.5,-180"/>
<text text-anchor="middle" x="458.5" y="-158.3" font-family="Times,serif" font-size="14.00">Name</text>
</g>
<!-- ast.comprehension object at 0x7405d5b39150&#45;&gt;ast.Name object at 0x7405d5a93a10 -->
<g id="edge32" class="edge">
<title>ast.comprehension object at 0x7405d5b39150&#45;&gt;ast.Name object at 0x7405d5a93a10</title>
<path fill="none" stroke="black" d="M471.3,-215.7C469.4,-207.9 467.12,-198.51 465.02,-189.83"/>
<polygon fill="black" stroke="black" points="468.42,-189 462.65,-180.1 461.61,-190.65 468.42,-189"/>
</g>
<!-- ast.Compare object at 0x7405d5ade890 -->
<g id="node28" class="node">
<title>ast.Compare object at 0x7405d5ade890</title>
<path fill="#66cdaa" stroke="black" d="M559,-180C559,-180 516,-180 516,-180 510,-180 504,-174 504,-168 504,-168 504,-156 504,-156 504,-150 510,-144 516,-144 516,-144 559,-144 559,-144 565,-144 571,-150 571,-156 571,-156 571,-168 571,-168 571,-174 565,-180 559,-180"/>
<text text-anchor="middle" x="537.5" y="-158.3" font-family="Times,serif" font-size="14.00">Compare</text>
</g>
<!-- ast.comprehension object at 0x7405d5b39150&#45;&gt;ast.Compare object at 0x7405d5ade890 -->
<g id="edge34" class="edge">
<title>ast.comprehension object at 0x7405d5b39150&#45;&gt;ast.Compare object at 0x7405d5ade890</title>
<path fill="none" stroke="black" d="M490.83,-215.7C498.26,-207.3 507.32,-197.07 515.48,-187.86"/>
<polygon fill="black" stroke="black" points="518.34,-189.91 522.35,-180.1 513.1,-185.27 518.34,-189.91"/>
</g>
<!-- ast.Name object at 0x7405d5b39fd0&#45;&gt;ast.Store object at 0x7405e6dbd950 -->
<g id="edge31" class="edge">
<title>ast.Name object at 0x7405d5b39fd0&#45;&gt;ast.Store object at 0x7405e6dbd950</title>
<path fill="none" stroke="black" d="M372.9,-143.7C366.38,-135.39 358.43,-125.28 351.25,-116.14"/>
<polygon fill="black" stroke="black" points="353.87,-113.81 344.94,-108.1 348.37,-118.13 353.87,-113.81"/>
</g>
<!-- ast.Name object at 0x7405d5a93a10&#45;&gt;ast.Load object at 0x7405e6dbd8d0 -->
<g id="edge33" class="edge">
<title>ast.Name object at 0x7405d5a93a10&#45;&gt;ast.Load object at 0x7405e6dbd8d0</title>
<path fill="none" stroke="black" d="M436.1,-143.87C425.27,-134.43 413.02,-121.83 405.5,-108 395.09,-88.85 390.38,-64.5 388.26,-46.11"/>
<polygon fill="black" stroke="black" points="391.73,-45.67 387.28,-36.06 384.76,-46.35 391.73,-45.67"/>
</g>
<!-- ast.Name object at 0x7405d5ade310 -->
<g id="node29" class="node">
<title>ast.Name object at 0x7405d5ade310</title>
<path fill="#66cdaa" stroke="black" d="M528.5,-108C528.5,-108 498.5,-108 498.5,-108 492.5,-108 486.5,-102 486.5,-96 486.5,-96 486.5,-84 486.5,-84 486.5,-78 492.5,-72 498.5,-72 498.5,-72 528.5,-72 528.5,-72 534.5,-72 540.5,-78 540.5,-84 540.5,-84 540.5,-96 540.5,-96 540.5,-102 534.5,-108 528.5,-108"/>
<text text-anchor="middle" x="513.5" y="-86.3" font-family="Times,serif" font-size="14.00">Name</text>
</g>
<!-- ast.Compare object at 0x7405d5ade890&#45;&gt;ast.Name object at 0x7405d5ade310 -->
<g id="edge35" class="edge">
<title>ast.Compare object at 0x7405d5ade890&#45;&gt;ast.Name object at 0x7405d5ade310</title>
<path fill="none" stroke="black" d="M531.57,-143.7C528.89,-135.9 525.67,-126.51 522.7,-117.83"/>
<polygon fill="black" stroke="black" points="525.92,-116.43 519.36,-108.1 519.3,-118.7 525.92,-116.43"/>
</g>
<!-- ast.NotIn object at 0x7405e6dbed50 -->
<g id="node30" class="node">
<title>ast.NotIn object at 0x7405e6dbed50</title>
<path fill="#66cdaa" stroke="black" d="M600.5,-108C600.5,-108 570.5,-108 570.5,-108 564.5,-108 558.5,-102 558.5,-96 558.5,-96 558.5,-84 558.5,-84 558.5,-78 564.5,-72 570.5,-72 570.5,-72 600.5,-72 600.5,-72 606.5,-72 612.5,-78 612.5,-84 612.5,-84 612.5,-96 612.5,-96 612.5,-102 606.5,-108 600.5,-108"/>
<text text-anchor="middle" x="585.5" y="-86.3" font-family="Times,serif" font-size="14.00">NotIn</text>
</g>
<!-- ast.Compare object at 0x7405d5ade890&#45;&gt;ast.NotIn object at 0x7405e6dbed50 -->
<g id="edge37" class="edge">
<title>ast.Compare object at 0x7405d5ade890&#45;&gt;ast.NotIn object at 0x7405e6dbed50</title>
<path fill="none" stroke="black" d="M549.37,-143.7C555,-135.47 561.85,-125.48 568.07,-116.42"/>
<polygon fill="black" stroke="black" points="571,-118.33 573.77,-108.1 565.23,-114.37 571,-118.33"/>
</g>
<!-- ast.Name object at 0x7405d5adc590 -->
<g id="node31" class="node">
<title>ast.Name object at 0x7405d5adc590</title>
<path fill="#66cdaa" stroke="black" d="M456.5,-108C456.5,-108 426.5,-108 426.5,-108 420.5,-108 414.5,-102 414.5,-96 414.5,-96 414.5,-84 414.5,-84 414.5,-78 420.5,-72 426.5,-72 426.5,-72 456.5,-72 456.5,-72 462.5,-72 468.5,-78 468.5,-84 468.5,-84 468.5,-96 468.5,-96 468.5,-102 462.5,-108 456.5,-108"/>
<text text-anchor="middle" x="441.5" y="-86.3" font-family="Times,serif" font-size="14.00">Name</text>
</g>
<!-- ast.Compare object at 0x7405d5ade890&#45;&gt;ast.Name object at 0x7405d5adc590 -->
<g id="edge38" class="edge">
<title>ast.Compare object at 0x7405d5ade890&#45;&gt;ast.Name object at 0x7405d5adc590</title>
<path fill="none" stroke="black" d="M513.77,-143.7C501.56,-134.8 486.51,-123.82 473.32,-114.2"/>
<polygon fill="black" stroke="black" points="475.1,-111.17 464.96,-108.1 470.98,-116.82 475.1,-111.17"/>
</g>
<!-- ast.Name object at 0x7405d5ade310&#45;&gt;ast.Load object at 0x7405e6dbd8d0 -->
<g id="edge36" class="edge">
<title>ast.Name object at 0x7405d5ade310&#45;&gt;ast.Load object at 0x7405e6dbd8d0</title>
<path fill="none" stroke="black" d="M486.26,-73.98C467.67,-63.74 442.86,-50.07 422.63,-38.92"/>
<polygon fill="black" stroke="black" points="424.15,-35.75 413.7,-33.99 420.77,-41.88 424.15,-35.75"/>
</g>
<!-- ast.Name object at 0x7405d5adc590&#45;&gt;ast.Load object at 0x7405e6dbd8d0 -->
<g id="edge39" class="edge">
<title>ast.Name object at 0x7405d5adc590&#45;&gt;ast.Load object at 0x7405e6dbd8d0</title>
<path fill="none" stroke="black" d="M427.9,-71.7C421.38,-63.39 413.43,-53.28 406.25,-44.14"/>
<polygon fill="black" stroke="black" points="408.87,-41.81 399.94,-36.1 403.37,-46.13 408.87,-41.81"/>
</g>
</g>
</svg>
