<?xml version="1.0" encoding="UTF-8" standalone="no"?>
<!DOCTYPE svg PUBLIC "-//W3C//DTD SVG 1.1//EN"
 "http://www.w3.org/Graphics/SVG/1.1/DTD/svg11.dtd">
<!-- Generated by graphviz version 2.50.0 (0)
 -->
<!-- Pages: 1 -->
<svg width="1505pt" height="764pt"
 viewBox="0.00 0.00 1505.00 764.00" xmlns="http://www.w3.org/2000/svg" xmlns:xlink="http://www.w3.org/1999/xlink">
<g id="graph0" class="graph" transform="scale(1 1) rotate(0) translate(4 760)">
<polygon fill="white" stroke="transparent" points="-4,4 -4,-760 1501,-760 1501,4 -4,4"/>
<!-- ast.Module object at 0x7f12a454e150 -->
<g id="node1" class="node">
<title>ast.Module object at 0x7f12a454e150</title>
<path fill="#66cdaa" stroke="black" d="M593,-756C593,-756 558,-756 558,-756 552,-756 546,-750 546,-744 546,-744 546,-732 546,-732 546,-726 552,-720 558,-720 558,-720 593,-720 593,-720 599,-720 605,-726 605,-732 605,-732 605,-744 605,-744 605,-750 599,-756 593,-756"/>
<text text-anchor="middle" x="575.5" y="-734.3" font-family="Times,serif" font-size="14.00">Module</text>
</g>
<!-- ast.ImportFrom object at 0x7f12a454c390 -->
<g id="node2" class="node">
<title>ast.ImportFrom object at 0x7f12a454c390</title>
<path fill="#66cdaa" stroke="black" d="M554.5,-684C554.5,-684 494.5,-684 494.5,-684 488.5,-684 482.5,-678 482.5,-672 482.5,-672 482.5,-660 482.5,-660 482.5,-654 488.5,-648 494.5,-648 494.5,-648 554.5,-648 554.5,-648 560.5,-648 566.5,-654 566.5,-660 566.5,-660 566.5,-672 566.5,-672 566.5,-678 560.5,-684 554.5,-684"/>
<text text-anchor="middle" x="524.5" y="-662.3" font-family="Times,serif" font-size="14.00">ImportFrom</text>
</g>
<!-- ast.Module object at 0x7f12a454e150&#45;&gt;ast.ImportFrom object at 0x7f12a454c390 -->
<g id="edge1" class="edge">
<title>ast.Module object at 0x7f12a454e150&#45;&gt;ast.ImportFrom object at 0x7f12a454c390</title>
<path fill="none" stroke="black" d="M562.89,-719.7C556.9,-711.47 549.62,-701.48 543.02,-692.42"/>
<polygon fill="black" stroke="black" points="545.68,-690.13 536.96,-684.1 540.02,-694.25 545.68,-690.13"/>
</g>
<!-- ast.FunctionDef object at 0x7f12a4793d10 -->
<g id="node4" class="node">
<title>ast.FunctionDef object at 0x7f12a4793d10</title>
<path fill="#66cdaa" stroke="black" d="M714,-684C714,-684 653,-684 653,-684 647,-684 641,-678 641,-672 641,-672 641,-660 641,-660 641,-654 647,-648 653,-648 653,-648 714,-648 714,-648 720,-648 726,-654 726,-660 726,-660 726,-672 726,-672 726,-678 720,-684 714,-684"/>
<text text-anchor="middle" x="683.5" y="-662.3" font-family="Times,serif" font-size="14.00">FunctionDef</text>
</g>
<!-- ast.Module object at 0x7f12a454e150&#45;&gt;ast.FunctionDef object at 0x7f12a4793d10 -->
<g id="edge3" class="edge">
<title>ast.Module object at 0x7f12a454e150&#45;&gt;ast.FunctionDef object at 0x7f12a4793d10</title>
<path fill="none" stroke="black" d="M601.92,-719.88C615.91,-710.81 633.28,-699.55 648.39,-689.76"/>
<polygon fill="black" stroke="black" points="650.49,-692.57 656.98,-684.19 646.68,-686.69 650.49,-692.57"/>
</g>
<!-- ast.alias object at 0x7f12a47934d0 -->
<g id="node3" class="node">
<title>ast.alias object at 0x7f12a47934d0</title>
<path fill="#66cdaa" stroke="black" d="M447.5,-612C447.5,-612 417.5,-612 417.5,-612 411.5,-612 405.5,-606 405.5,-600 405.5,-600 405.5,-588 405.5,-588 405.5,-582 411.5,-576 417.5,-576 417.5,-576 447.5,-576 447.5,-576 453.5,-576 459.5,-582 459.5,-588 459.5,-588 459.5,-600 459.5,-600 459.5,-606 453.5,-612 447.5,-612"/>
<text text-anchor="middle" x="432.5" y="-590.3" font-family="Times,serif" font-size="14.00">alias</text>
</g>
<!-- ast.ImportFrom object at 0x7f12a454c390&#45;&gt;ast.alias object at 0x7f12a47934d0 -->
<g id="edge2" class="edge">
<title>ast.ImportFrom object at 0x7f12a454c390&#45;&gt;ast.alias object at 0x7f12a47934d0</title>
<path fill="none" stroke="black" d="M501.76,-647.7C490.06,-638.8 475.64,-627.82 462.99,-618.2"/>
<polygon fill="black" stroke="black" points="465.06,-615.37 454.98,-612.1 460.82,-620.94 465.06,-615.37"/>
</g>
<!-- ast.arguments object at 0x7f12a4792e50 -->
<g id="node5" class="node">
<title>ast.arguments object at 0x7f12a4792e50</title>
<path fill="#66cdaa" stroke="black" d="M1170.5,-612C1170.5,-612 1120.5,-612 1120.5,-612 1114.5,-612 1108.5,-606 1108.5,-600 1108.5,-600 1108.5,-588 1108.5,-588 1108.5,-582 1114.5,-576 1120.5,-576 1120.5,-576 1170.5,-576 1170.5,-576 1176.5,-576 1182.5,-582 1182.5,-588 1182.5,-588 1182.5,-600 1182.5,-600 1182.5,-606 1176.5,-612 1170.5,-612"/>
<text text-anchor="middle" x="1145.5" y="-590.3" font-family="Times,serif" font-size="14.00">arguments</text>
</g>
<!-- ast.FunctionDef object at 0x7f12a4793d10&#45;&gt;ast.arguments object at 0x7f12a4792e50 -->
<g id="edge4" class="edge">
<title>ast.FunctionDef object at 0x7f12a4793d10&#45;&gt;ast.arguments object at 0x7f12a4792e50</title>
<path fill="none" stroke="black" d="M726.07,-659.72C795.74,-650.92 938.38,-632.21 1058.5,-612 1071.43,-609.82 1085.4,-607.21 1098.27,-604.7"/>
<polygon fill="black" stroke="black" points="1099.19,-608.08 1108.32,-602.71 1097.83,-601.22 1099.19,-608.08"/>
</g>
<!-- ast.FunctionDef object at 0x7f12a4793d50 -->
<g id="node7" class="node">
<title>ast.FunctionDef object at 0x7f12a4793d50</title>
<path fill="#66cdaa" stroke="black" d="M316,-540C316,-540 255,-540 255,-540 249,-540 243,-534 243,-528 243,-528 243,-516 243,-516 243,-510 249,-504 255,-504 255,-504 316,-504 316,-504 322,-504 328,-510 328,-516 328,-516 328,-528 328,-528 328,-534 322,-540 316,-540"/>
<text text-anchor="middle" x="285.5" y="-518.3" font-family="Times,serif" font-size="14.00">FunctionDef</text>
</g>
<!-- ast.FunctionDef object at 0x7f12a4793d10&#45;&gt;ast.FunctionDef object at 0x7f12a4793d50 -->
<g id="edge6" class="edge">
<title>ast.FunctionDef object at 0x7f12a4793d10&#45;&gt;ast.FunctionDef object at 0x7f12a4793d50</title>
<path fill="none" stroke="black" d="M640.99,-656.86C605,-648.83 552.82,-634.46 511.5,-612 489.6,-600.1 490.5,-587.72 468.5,-576 427.23,-554.02 375.74,-540.15 337.89,-532.14"/>
<polygon fill="black" stroke="black" points="338.59,-528.71 328.09,-530.13 337.19,-535.57 338.59,-528.71"/>
</g>
<!-- ast.Assign object at 0x7f12a4793390 -->
<g id="node20" class="node">
<title>ast.Assign object at 0x7f12a4793390</title>
<path fill="#66cdaa" stroke="black" d="M540.5,-468C540.5,-468 510.5,-468 510.5,-468 504.5,-468 498.5,-462 498.5,-456 498.5,-456 498.5,-444 498.5,-444 498.5,-438 504.5,-432 510.5,-432 510.5,-432 540.5,-432 540.5,-432 546.5,-432 552.5,-438 552.5,-444 552.5,-444 552.5,-456 552.5,-456 552.5,-462 546.5,-468 540.5,-468"/>
<text text-anchor="middle" x="525.5" y="-446.3" font-family="Times,serif" font-size="14.00">Assign</text>
</g>
<!-- ast.FunctionDef object at 0x7f12a4793d10&#45;&gt;ast.Assign object at 0x7f12a4793390 -->
<g id="edge22" class="edge">
<title>ast.FunctionDef object at 0x7f12a4793d10&#45;&gt;ast.Assign object at 0x7f12a4793390</title>
<path fill="none" stroke="black" d="M654.71,-647.91C622.22,-626.92 570.65,-588.13 545.5,-540 535.45,-520.76 530.42,-496.6 527.93,-478.31"/>
<polygon fill="black" stroke="black" points="531.39,-477.82 526.73,-468.3 524.44,-478.65 531.39,-477.82"/>
</g>
<!-- ast.Assign object at 0x7f12a4793350 -->
<g id="node26" class="node">
<title>ast.Assign object at 0x7f12a4793350</title>
<path fill="#66cdaa" stroke="black" d="M662.5,-612C662.5,-612 632.5,-612 632.5,-612 626.5,-612 620.5,-606 620.5,-600 620.5,-600 620.5,-588 620.5,-588 620.5,-582 626.5,-576 632.5,-576 632.5,-576 662.5,-576 662.5,-576 668.5,-576 674.5,-582 674.5,-588 674.5,-588 674.5,-600 674.5,-600 674.5,-606 668.5,-612 662.5,-612"/>
<text text-anchor="middle" x="647.5" y="-590.3" font-family="Times,serif" font-size="14.00">Assign</text>
</g>
<!-- ast.FunctionDef object at 0x7f12a4793d10&#45;&gt;ast.Assign object at 0x7f12a4793350 -->
<g id="edge30" class="edge">
<title>ast.FunctionDef object at 0x7f12a4793d10&#45;&gt;ast.Assign object at 0x7f12a4793350</title>
<path fill="none" stroke="black" d="M674.6,-647.7C670.5,-639.73 665.55,-630.1 661.01,-621.26"/>
<polygon fill="black" stroke="black" points="663.98,-619.4 656.3,-612.1 657.76,-622.6 663.98,-619.4"/>
</g>
<!-- ast.For object at 0x7f12a406a9d0 -->
<g id="node29" class="node">
<title>ast.For object at 0x7f12a406a9d0</title>
<path fill="#66cdaa" stroke="black" d="M761.5,-612C761.5,-612 731.5,-612 731.5,-612 725.5,-612 719.5,-606 719.5,-600 719.5,-600 719.5,-588 719.5,-588 719.5,-582 725.5,-576 731.5,-576 731.5,-576 761.5,-576 761.5,-576 767.5,-576 773.5,-582 773.5,-588 773.5,-588 773.5,-600 773.5,-600 773.5,-606 767.5,-612 761.5,-612"/>
<text text-anchor="middle" x="746.5" y="-590.3" font-family="Times,serif" font-size="14.00">For</text>
</g>
<!-- ast.FunctionDef object at 0x7f12a4793d10&#45;&gt;ast.For object at 0x7f12a406a9d0 -->
<g id="edge34" class="edge">
<title>ast.FunctionDef object at 0x7f12a4793d10&#45;&gt;ast.For object at 0x7f12a406a9d0</title>
<path fill="none" stroke="black" d="M699.07,-647.7C706.7,-639.22 716.02,-628.86 724.38,-619.58"/>
<polygon fill="black" stroke="black" points="727.02,-621.88 731.11,-612.1 721.81,-617.2 727.02,-621.88"/>
</g>
<!-- ast.For object at 0x7f12a456e550 -->
<g id="node48" class="node">
<title>ast.For object at 0x7f12a456e550</title>
<path fill="#66cdaa" stroke="black" d="M882.5,-612C882.5,-612 852.5,-612 852.5,-612 846.5,-612 840.5,-606 840.5,-600 840.5,-600 840.5,-588 840.5,-588 840.5,-582 846.5,-576 852.5,-576 852.5,-576 882.5,-576 882.5,-576 888.5,-576 894.5,-582 894.5,-588 894.5,-588 894.5,-600 894.5,-600 894.5,-606 888.5,-612 882.5,-612"/>
<text text-anchor="middle" x="867.5" y="-590.3" font-family="Times,serif" font-size="14.00">For</text>
</g>
<!-- ast.FunctionDef object at 0x7f12a4793d10&#45;&gt;ast.For object at 0x7f12a456e550 -->
<g id="edge63" class="edge">
<title>ast.FunctionDef object at 0x7f12a4793d10&#45;&gt;ast.For object at 0x7f12a456e550</title>
<path fill="none" stroke="black" d="M726.18,-648.76C757.84,-636.72 800.58,-620.46 830.74,-608.99"/>
<polygon fill="black" stroke="black" points="832.35,-612.12 840.45,-605.29 829.86,-605.58 832.35,-612.12"/>
</g>
<!-- ast.Return object at 0x7f12a479d850 -->
<g id="node76" class="node">
<title>ast.Return object at 0x7f12a479d850</title>
<path fill="#66cdaa" stroke="black" d="M1037.5,-612C1037.5,-612 1007.5,-612 1007.5,-612 1001.5,-612 995.5,-606 995.5,-600 995.5,-600 995.5,-588 995.5,-588 995.5,-582 1001.5,-576 1007.5,-576 1007.5,-576 1037.5,-576 1037.5,-576 1043.5,-576 1049.5,-582 1049.5,-588 1049.5,-588 1049.5,-600 1049.5,-600 1049.5,-606 1043.5,-612 1037.5,-612"/>
<text text-anchor="middle" x="1022.5" y="-590.3" font-family="Times,serif" font-size="14.00">Return</text>
</g>
<!-- ast.FunctionDef object at 0x7f12a4793d10&#45;&gt;ast.Return object at 0x7f12a479d850 -->
<g id="edge102" class="edge">
<title>ast.FunctionDef object at 0x7f12a4793d10&#45;&gt;ast.Return object at 0x7f12a479d850</title>
<path fill="none" stroke="black" d="M726.09,-656.21C793.13,-642.36 922.16,-615.72 985.53,-602.63"/>
<polygon fill="black" stroke="black" points="986.4,-606.03 995.49,-600.58 984.98,-599.17 986.4,-606.03"/>
</g>
<!-- ast.arg object at 0x7f12a4793950 -->
<g id="node6" class="node">
<title>ast.arg object at 0x7f12a4793950</title>
<path fill="#66cdaa" stroke="black" d="M1181.5,-540C1181.5,-540 1151.5,-540 1151.5,-540 1145.5,-540 1139.5,-534 1139.5,-528 1139.5,-528 1139.5,-516 1139.5,-516 1139.5,-510 1145.5,-504 1151.5,-504 1151.5,-504 1181.5,-504 1181.5,-504 1187.5,-504 1193.5,-510 1193.5,-516 1193.5,-516 1193.5,-528 1193.5,-528 1193.5,-534 1187.5,-540 1181.5,-540"/>
<text text-anchor="middle" x="1166.5" y="-518.3" font-family="Times,serif" font-size="14.00">arg</text>
</g>
<!-- ast.arguments object at 0x7f12a4792e50&#45;&gt;ast.arg object at 0x7f12a4793950 -->
<g id="edge5" class="edge">
<title>ast.arguments object at 0x7f12a4792e50&#45;&gt;ast.arg object at 0x7f12a4793950</title>
<path fill="none" stroke="black" d="M1150.69,-575.7C1153.03,-567.9 1155.85,-558.51 1158.45,-549.83"/>
<polygon fill="black" stroke="black" points="1161.85,-550.69 1161.37,-540.1 1155.14,-548.68 1161.85,-550.69"/>
</g>
<!-- ast.arguments object at 0x7f12a47937d0 -->
<g id="node8" class="node">
<title>ast.arguments object at 0x7f12a47937d0</title>
<path fill="#66cdaa" stroke="black" d="M310.5,-468C310.5,-468 260.5,-468 260.5,-468 254.5,-468 248.5,-462 248.5,-456 248.5,-456 248.5,-444 248.5,-444 248.5,-438 254.5,-432 260.5,-432 260.5,-432 310.5,-432 310.5,-432 316.5,-432 322.5,-438 322.5,-444 322.5,-444 322.5,-456 322.5,-456 322.5,-462 316.5,-468 310.5,-468"/>
<text text-anchor="middle" x="285.5" y="-446.3" font-family="Times,serif" font-size="14.00">arguments</text>
</g>
<!-- ast.FunctionDef object at 0x7f12a4793d50&#45;&gt;ast.arguments object at 0x7f12a47937d0 -->
<g id="edge7" class="edge">
<title>ast.FunctionDef object at 0x7f12a4793d50&#45;&gt;ast.arguments object at 0x7f12a47937d0</title>
<path fill="none" stroke="black" d="M285.5,-503.7C285.5,-495.98 285.5,-486.71 285.5,-478.11"/>
<polygon fill="black" stroke="black" points="289,-478.1 285.5,-468.1 282,-478.1 289,-478.1"/>
</g>
<!-- ast.Return object at 0x7f12a4793c90 -->
<g id="node10" class="node">
<title>ast.Return object at 0x7f12a4793c90</title>
<path fill="#66cdaa" stroke="black" d="M197.5,-468C197.5,-468 167.5,-468 167.5,-468 161.5,-468 155.5,-462 155.5,-456 155.5,-456 155.5,-444 155.5,-444 155.5,-438 161.5,-432 167.5,-432 167.5,-432 197.5,-432 197.5,-432 203.5,-432 209.5,-438 209.5,-444 209.5,-444 209.5,-456 209.5,-456 209.5,-462 203.5,-468 197.5,-468"/>
<text text-anchor="middle" x="182.5" y="-446.3" font-family="Times,serif" font-size="14.00">Return</text>
</g>
<!-- ast.FunctionDef object at 0x7f12a4793d50&#45;&gt;ast.Return object at 0x7f12a4793c90 -->
<g id="edge9" class="edge">
<title>ast.FunctionDef object at 0x7f12a4793d50&#45;&gt;ast.Return object at 0x7f12a4793c90</title>
<path fill="none" stroke="black" d="M260.3,-503.88C247.09,-494.89 230.71,-483.76 216.39,-474.03"/>
<polygon fill="black" stroke="black" points="218.03,-470.92 207.79,-468.19 214.1,-476.71 218.03,-470.92"/>
</g>
<!-- ast.arg object at 0x7f12a4793ad0 -->
<g id="node9" class="node">
<title>ast.arg object at 0x7f12a4793ad0</title>
<path fill="#66cdaa" stroke="black" d="M300.5,-396C300.5,-396 270.5,-396 270.5,-396 264.5,-396 258.5,-390 258.5,-384 258.5,-384 258.5,-372 258.5,-372 258.5,-366 264.5,-360 270.5,-360 270.5,-360 300.5,-360 300.5,-360 306.5,-360 312.5,-366 312.5,-372 312.5,-372 312.5,-384 312.5,-384 312.5,-390 306.5,-396 300.5,-396"/>
<text text-anchor="middle" x="285.5" y="-374.3" font-family="Times,serif" font-size="14.00">arg</text>
</g>
<!-- ast.arguments object at 0x7f12a47937d0&#45;&gt;ast.arg object at 0x7f12a4793ad0 -->
<g id="edge8" class="edge">
<title>ast.arguments object at 0x7f12a47937d0&#45;&gt;ast.arg object at 0x7f12a4793ad0</title>
<path fill="none" stroke="black" d="M285.5,-431.7C285.5,-423.98 285.5,-414.71 285.5,-406.11"/>
<polygon fill="black" stroke="black" points="289,-406.1 285.5,-396.1 282,-406.1 289,-406.1"/>
</g>
<!-- ast.Call object at 0x7f12a4791fd0 -->
<g id="node11" class="node">
<title>ast.Call object at 0x7f12a4791fd0</title>
<path fill="#66cdaa" stroke="black" d="M191.5,-396C191.5,-396 161.5,-396 161.5,-396 155.5,-396 149.5,-390 149.5,-384 149.5,-384 149.5,-372 149.5,-372 149.5,-366 155.5,-360 161.5,-360 161.5,-360 191.5,-360 191.5,-360 197.5,-360 203.5,-366 203.5,-372 203.5,-372 203.5,-384 203.5,-384 203.5,-390 197.5,-396 191.5,-396"/>
<text text-anchor="middle" x="176.5" y="-374.3" font-family="Times,serif" font-size="14.00">Call</text>
</g>
<!-- ast.Return object at 0x7f12a4793c90&#45;&gt;ast.Call object at 0x7f12a4791fd0 -->
<g id="edge10" class="edge">
<title>ast.Return object at 0x7f12a4793c90&#45;&gt;ast.Call object at 0x7f12a4791fd0</title>
<path fill="none" stroke="black" d="M181.02,-431.7C180.36,-423.98 179.56,-414.71 178.82,-406.11"/>
<polygon fill="black" stroke="black" points="182.31,-405.77 177.97,-396.1 175.33,-406.37 182.31,-405.77"/>
</g>
<!-- ast.Attribute object at 0x7f12a47928d0 -->
<g id="node12" class="node">
<title>ast.Attribute object at 0x7f12a47928d0</title>
<path fill="#66cdaa" stroke="black" d="M114,-324C114,-324 73,-324 73,-324 67,-324 61,-318 61,-312 61,-312 61,-300 61,-300 61,-294 67,-288 73,-288 73,-288 114,-288 114,-288 120,-288 126,-294 126,-300 126,-300 126,-312 126,-312 126,-318 120,-324 114,-324"/>
<text text-anchor="middle" x="93.5" y="-302.3" font-family="Times,serif" font-size="14.00">Attribute</text>
</g>
<!-- ast.Call object at 0x7f12a4791fd0&#45;&gt;ast.Attribute object at 0x7f12a47928d0 -->
<g id="edge11" class="edge">
<title>ast.Call object at 0x7f12a4791fd0&#45;&gt;ast.Attribute object at 0x7f12a47928d0</title>
<path fill="none" stroke="black" d="M155.98,-359.7C145.63,-350.97 132.91,-340.24 121.66,-330.75"/>
<polygon fill="black" stroke="black" points="123.68,-327.88 113.78,-324.1 119.17,-333.23 123.68,-327.88"/>
</g>
<!-- ast.Call object at 0x7f12a4793710 -->
<g id="node15" class="node">
<title>ast.Call object at 0x7f12a4793710</title>
<path fill="#66cdaa" stroke="black" d="M191.5,-324C191.5,-324 161.5,-324 161.5,-324 155.5,-324 149.5,-318 149.5,-312 149.5,-312 149.5,-300 149.5,-300 149.5,-294 155.5,-288 161.5,-288 161.5,-288 191.5,-288 191.5,-288 197.5,-288 203.5,-294 203.5,-300 203.5,-300 203.5,-312 203.5,-312 203.5,-318 197.5,-324 191.5,-324"/>
<text text-anchor="middle" x="176.5" y="-302.3" font-family="Times,serif" font-size="14.00">Call</text>
</g>
<!-- ast.Call object at 0x7f12a4791fd0&#45;&gt;ast.Call object at 0x7f12a4793710 -->
<g id="edge14" class="edge">
<title>ast.Call object at 0x7f12a4791fd0&#45;&gt;ast.Call object at 0x7f12a4793710</title>
<path fill="none" stroke="black" d="M176.5,-359.7C176.5,-351.98 176.5,-342.71 176.5,-334.11"/>
<polygon fill="black" stroke="black" points="180,-334.1 176.5,-324.1 173,-334.1 180,-334.1"/>
</g>
<!-- ast.Constant object at 0x7f12a4793890 -->
<g id="node13" class="node">
<title>ast.Constant object at 0x7f12a4793890</title>
<path fill="#66cdaa" stroke="black" d="M53,-252C53,-252 12,-252 12,-252 6,-252 0,-246 0,-240 0,-240 0,-228 0,-228 0,-222 6,-216 12,-216 12,-216 53,-216 53,-216 59,-216 65,-222 65,-228 65,-228 65,-240 65,-240 65,-246 59,-252 53,-252"/>
<text text-anchor="middle" x="32.5" y="-230.3" font-family="Times,serif" font-size="14.00">Constant</text>
</g>
<!-- ast.Attribute object at 0x7f12a47928d0&#45;&gt;ast.Constant object at 0x7f12a4793890 -->
<g id="edge12" class="edge">
<title>ast.Attribute object at 0x7f12a47928d0&#45;&gt;ast.Constant object at 0x7f12a4793890</title>
<path fill="none" stroke="black" d="M78.42,-287.7C71.11,-279.3 62.19,-269.07 54.16,-259.86"/>
<polygon fill="black" stroke="black" points="56.61,-257.34 47.41,-252.1 51.34,-261.94 56.61,-257.34"/>
</g>
<!-- ast.Load object at 0x7f12e0fc1810 -->
<g id="node14" class="node">
<title>ast.Load object at 0x7f12e0fc1810</title>
<path fill="#66cdaa" stroke="black" d="M723.5,-36C723.5,-36 693.5,-36 693.5,-36 687.5,-36 681.5,-30 681.5,-24 681.5,-24 681.5,-12 681.5,-12 681.5,-6 687.5,0 693.5,0 693.5,0 723.5,0 723.5,0 729.5,0 735.5,-6 735.5,-12 735.5,-12 735.5,-24 735.5,-24 735.5,-30 729.5,-36 723.5,-36"/>
<text text-anchor="middle" x="708.5" y="-14.3" font-family="Times,serif" font-size="14.00">Load</text>
</g>
<!-- ast.Attribute object at 0x7f12a47928d0&#45;&gt;ast.Load object at 0x7f12e0fc1810 -->
<g id="edge13" class="edge">
<title>ast.Attribute object at 0x7f12a47928d0&#45;&gt;ast.Load object at 0x7f12e0fc1810</title>
<path fill="none" stroke="black" d="M91.66,-287.84C88.03,-243.99 85.25,-127.38 150.5,-72 190.16,-38.34 552.76,-23.94 671.24,-20.1"/>
<polygon fill="black" stroke="black" points="671.4,-23.6 681.28,-19.78 671.18,-16.6 671.4,-23.6"/>
</g>
<!-- ast.Name object at 0x7f12a4792510 -->
<g id="node16" class="node">
<title>ast.Name object at 0x7f12a4792510</title>
<path fill="#66cdaa" stroke="black" d="M163.5,-252C163.5,-252 133.5,-252 133.5,-252 127.5,-252 121.5,-246 121.5,-240 121.5,-240 121.5,-228 121.5,-228 121.5,-222 127.5,-216 133.5,-216 133.5,-216 163.5,-216 163.5,-216 169.5,-216 175.5,-222 175.5,-228 175.5,-228 175.5,-240 175.5,-240 175.5,-246 169.5,-252 163.5,-252"/>
<text text-anchor="middle" x="148.5" y="-230.3" font-family="Times,serif" font-size="14.00">Name</text>
</g>
<!-- ast.Call object at 0x7f12a4793710&#45;&gt;ast.Name object at 0x7f12a4792510 -->
<g id="edge15" class="edge">
<title>ast.Call object at 0x7f12a4793710&#45;&gt;ast.Name object at 0x7f12a4792510</title>
<path fill="none" stroke="black" d="M169.58,-287.7C166.43,-279.81 162.62,-270.3 159.12,-261.55"/>
<polygon fill="black" stroke="black" points="162.31,-260.09 155.34,-252.1 155.81,-262.69 162.31,-260.09"/>
</g>
<!-- ast.Call object at 0x7f12a4793790 -->
<g id="node17" class="node">
<title>ast.Call object at 0x7f12a4793790</title>
<path fill="#66cdaa" stroke="black" d="M235.5,-252C235.5,-252 205.5,-252 205.5,-252 199.5,-252 193.5,-246 193.5,-240 193.5,-240 193.5,-228 193.5,-228 193.5,-222 199.5,-216 205.5,-216 205.5,-216 235.5,-216 235.5,-216 241.5,-216 247.5,-222 247.5,-228 247.5,-228 247.5,-240 247.5,-240 247.5,-246 241.5,-252 235.5,-252"/>
<text text-anchor="middle" x="220.5" y="-230.3" font-family="Times,serif" font-size="14.00">Call</text>
</g>
<!-- ast.Call object at 0x7f12a4793710&#45;&gt;ast.Call object at 0x7f12a4793790 -->
<g id="edge17" class="edge">
<title>ast.Call object at 0x7f12a4793710&#45;&gt;ast.Call object at 0x7f12a4793790</title>
<path fill="none" stroke="black" d="M187.38,-287.7C192.49,-279.56 198.7,-269.69 204.34,-260.7"/>
<polygon fill="black" stroke="black" points="207.39,-262.43 209.75,-252.1 201.46,-258.71 207.39,-262.43"/>
</g>
<!-- ast.Name object at 0x7f12a4792510&#45;&gt;ast.Load object at 0x7f12e0fc1810 -->
<g id="edge16" class="edge">
<title>ast.Name object at 0x7f12a4792510&#45;&gt;ast.Load object at 0x7f12e0fc1810</title>
<path fill="none" stroke="black" d="M145.66,-215.82C141.25,-182.57 137.04,-109.4 177.5,-72 213.71,-38.54 556.8,-24.08 671.42,-20.16"/>
<polygon fill="black" stroke="black" points="671.59,-23.65 681.47,-19.82 671.36,-16.66 671.59,-23.65"/>
</g>
<!-- ast.Attribute object at 0x7f12a47939d0 -->
<g id="node18" class="node">
<title>ast.Attribute object at 0x7f12a47939d0</title>
<path fill="#66cdaa" stroke="black" d="M241,-180C241,-180 200,-180 200,-180 194,-180 188,-174 188,-168 188,-168 188,-156 188,-156 188,-150 194,-144 200,-144 200,-144 241,-144 241,-144 247,-144 253,-150 253,-156 253,-156 253,-168 253,-168 253,-174 247,-180 241,-180"/>
<text text-anchor="middle" x="220.5" y="-158.3" font-family="Times,serif" font-size="14.00">Attribute</text>
</g>
<!-- ast.Call object at 0x7f12a4793790&#45;&gt;ast.Attribute object at 0x7f12a47939d0 -->
<g id="edge18" class="edge">
<title>ast.Call object at 0x7f12a4793790&#45;&gt;ast.Attribute object at 0x7f12a47939d0</title>
<path fill="none" stroke="black" d="M220.5,-215.7C220.5,-207.98 220.5,-198.71 220.5,-190.11"/>
<polygon fill="black" stroke="black" points="224,-190.1 220.5,-180.1 217,-190.1 224,-190.1"/>
</g>
<!-- ast.Attribute object at 0x7f12a47939d0&#45;&gt;ast.Load object at 0x7f12e0fc1810 -->
<g id="edge21" class="edge">
<title>ast.Attribute object at 0x7f12a47939d0&#45;&gt;ast.Load object at 0x7f12e0fc1810</title>
<path fill="none" stroke="black" d="M205.2,-143.94C189.57,-124.4 170.01,-92.47 188.5,-72 220.8,-36.24 557.46,-23.34 671.2,-19.98"/>
<polygon fill="black" stroke="black" points="671.59,-23.47 681.49,-19.68 671.39,-16.47 671.59,-23.47"/>
</g>
<!-- ast.Name object at 0x7f12a47924d0 -->
<g id="node19" class="node">
<title>ast.Name object at 0x7f12a47924d0</title>
<path fill="#66cdaa" stroke="black" d="M239.5,-108C239.5,-108 209.5,-108 209.5,-108 203.5,-108 197.5,-102 197.5,-96 197.5,-96 197.5,-84 197.5,-84 197.5,-78 203.5,-72 209.5,-72 209.5,-72 239.5,-72 239.5,-72 245.5,-72 251.5,-78 251.5,-84 251.5,-84 251.5,-96 251.5,-96 251.5,-102 245.5,-108 239.5,-108"/>
<text text-anchor="middle" x="224.5" y="-86.3" font-family="Times,serif" font-size="14.00">Name</text>
</g>
<!-- ast.Attribute object at 0x7f12a47939d0&#45;&gt;ast.Name object at 0x7f12a47924d0 -->
<g id="edge19" class="edge">
<title>ast.Attribute object at 0x7f12a47939d0&#45;&gt;ast.Name object at 0x7f12a47924d0</title>
<path fill="none" stroke="black" d="M221.49,-143.7C221.93,-135.98 222.46,-126.71 222.95,-118.11"/>
<polygon fill="black" stroke="black" points="226.45,-118.29 223.52,-108.1 219.46,-117.89 226.45,-118.29"/>
</g>
<!-- ast.Name object at 0x7f12a47924d0&#45;&gt;ast.Load object at 0x7f12e0fc1810 -->
<g id="edge20" class="edge">
<title>ast.Name object at 0x7f12a47924d0&#45;&gt;ast.Load object at 0x7f12e0fc1810</title>
<path fill="none" stroke="black" d="M251.66,-75.06C254.59,-73.89 257.58,-72.84 260.5,-72 408.43,-29.55 593.23,-21.04 671.13,-19.38"/>
<polygon fill="black" stroke="black" points="671.46,-22.87 681.4,-19.19 671.33,-15.87 671.46,-22.87"/>
</g>
<!-- ast.Name object at 0x7f12a4792290 -->
<g id="node21" class="node">
<title>ast.Name object at 0x7f12a4792290</title>
<path fill="#66cdaa" stroke="black" d="M655.5,-396C655.5,-396 625.5,-396 625.5,-396 619.5,-396 613.5,-390 613.5,-384 613.5,-384 613.5,-372 613.5,-372 613.5,-366 619.5,-360 625.5,-360 625.5,-360 655.5,-360 655.5,-360 661.5,-360 667.5,-366 667.5,-372 667.5,-372 667.5,-384 667.5,-384 667.5,-390 661.5,-396 655.5,-396"/>
<text text-anchor="middle" x="640.5" y="-374.3" font-family="Times,serif" font-size="14.00">Name</text>
</g>
<!-- ast.Assign object at 0x7f12a4793390&#45;&gt;ast.Name object at 0x7f12a4792290 -->
<g id="edge23" class="edge">
<title>ast.Assign object at 0x7f12a4793390&#45;&gt;ast.Name object at 0x7f12a4792290</title>
<path fill="none" stroke="black" d="M552.75,-432.41C568.22,-423 587.77,-411.1 604.49,-400.92"/>
<polygon fill="black" stroke="black" points="606.72,-403.66 613.44,-395.47 603.08,-397.68 606.72,-403.66"/>
</g>
<!-- ast.Call object at 0x7f12a4792cd0 -->
<g id="node23" class="node">
<title>ast.Call object at 0x7f12a4792cd0</title>
<path fill="#66cdaa" stroke="black" d="M366.5,-180C366.5,-180 336.5,-180 336.5,-180 330.5,-180 324.5,-174 324.5,-168 324.5,-168 324.5,-156 324.5,-156 324.5,-150 330.5,-144 336.5,-144 336.5,-144 366.5,-144 366.5,-144 372.5,-144 378.5,-150 378.5,-156 378.5,-156 378.5,-168 378.5,-168 378.5,-174 372.5,-180 366.5,-180"/>
<text text-anchor="middle" x="351.5" y="-158.3" font-family="Times,serif" font-size="14.00">Call</text>
</g>
<!-- ast.Assign object at 0x7f12a4793390&#45;&gt;ast.Call object at 0x7f12a4792cd0 -->
<g id="edge25" class="edge">
<title>ast.Assign object at 0x7f12a4793390&#45;&gt;ast.Call object at 0x7f12a4792cd0</title>
<path fill="none" stroke="black" d="M506.83,-431.81C473.46,-399.9 403.97,-327.85 370.5,-252 361.8,-232.28 356.97,-208.29 354.37,-190.19"/>
<polygon fill="black" stroke="black" points="357.81,-189.5 353.04,-180.04 350.86,-190.4 357.81,-189.5"/>
</g>
<!-- ast.Store object at 0x7f12e0fc1890 -->
<g id="node22" class="node">
<title>ast.Store object at 0x7f12e0fc1890</title>
<path fill="#66cdaa" stroke="black" d="M832.5,-324C832.5,-324 802.5,-324 802.5,-324 796.5,-324 790.5,-318 790.5,-312 790.5,-312 790.5,-300 790.5,-300 790.5,-294 796.5,-288 802.5,-288 802.5,-288 832.5,-288 832.5,-288 838.5,-288 844.5,-294 844.5,-300 844.5,-300 844.5,-312 844.5,-312 844.5,-318 838.5,-324 832.5,-324"/>
<text text-anchor="middle" x="817.5" y="-302.3" font-family="Times,serif" font-size="14.00">Store</text>
</g>
<!-- ast.Name object at 0x7f12a4792290&#45;&gt;ast.Store object at 0x7f12e0fc1890 -->
<g id="edge24" class="edge">
<title>ast.Name object at 0x7f12a4792290&#45;&gt;ast.Store object at 0x7f12e0fc1890</title>
<path fill="none" stroke="black" d="M667.81,-365.58C672.38,-363.7 677.07,-361.78 681.5,-360 715,-346.53 753.35,-331.63 780.76,-321.07"/>
<polygon fill="black" stroke="black" points="782.26,-324.24 790.34,-317.39 779.75,-317.71 782.26,-324.24"/>
</g>
<!-- ast.Name object at 0x7f12a47925d0 -->
<g id="node24" class="node">
<title>ast.Name object at 0x7f12a47925d0</title>
<path fill="#66cdaa" stroke="black" d="M311.5,-108C311.5,-108 281.5,-108 281.5,-108 275.5,-108 269.5,-102 269.5,-96 269.5,-96 269.5,-84 269.5,-84 269.5,-78 275.5,-72 281.5,-72 281.5,-72 311.5,-72 311.5,-72 317.5,-72 323.5,-78 323.5,-84 323.5,-84 323.5,-96 323.5,-96 323.5,-102 317.5,-108 311.5,-108"/>
<text text-anchor="middle" x="296.5" y="-86.3" font-family="Times,serif" font-size="14.00">Name</text>
</g>
<!-- ast.Call object at 0x7f12a4792cd0&#45;&gt;ast.Name object at 0x7f12a47925d0 -->
<g id="edge26" class="edge">
<title>ast.Call object at 0x7f12a4792cd0&#45;&gt;ast.Name object at 0x7f12a47925d0</title>
<path fill="none" stroke="black" d="M337.9,-143.7C331.38,-135.39 323.43,-125.28 316.25,-116.14"/>
<polygon fill="black" stroke="black" points="318.87,-113.81 309.94,-108.1 313.37,-118.13 318.87,-113.81"/>
</g>
<!-- ast.Name object at 0x7f12a4792fd0 -->
<g id="node25" class="node">
<title>ast.Name object at 0x7f12a4792fd0</title>
<path fill="#66cdaa" stroke="black" d="M383.5,-108C383.5,-108 353.5,-108 353.5,-108 347.5,-108 341.5,-102 341.5,-96 341.5,-96 341.5,-84 341.5,-84 341.5,-78 347.5,-72 353.5,-72 353.5,-72 383.5,-72 383.5,-72 389.5,-72 395.5,-78 395.5,-84 395.5,-84 395.5,-96 395.5,-96 395.5,-102 389.5,-108 383.5,-108"/>
<text text-anchor="middle" x="368.5" y="-86.3" font-family="Times,serif" font-size="14.00">Name</text>
</g>
<!-- ast.Call object at 0x7f12a4792cd0&#45;&gt;ast.Name object at 0x7f12a4792fd0 -->
<g id="edge28" class="edge">
<title>ast.Call object at 0x7f12a4792cd0&#45;&gt;ast.Name object at 0x7f12a4792fd0</title>
<path fill="none" stroke="black" d="M355.7,-143.7C357.6,-135.9 359.88,-126.51 361.98,-117.83"/>
<polygon fill="black" stroke="black" points="365.39,-118.65 364.35,-108.1 358.58,-117 365.39,-118.65"/>
</g>
<!-- ast.Name object at 0x7f12a47925d0&#45;&gt;ast.Load object at 0x7f12e0fc1810 -->
<g id="edge27" class="edge">
<title>ast.Name object at 0x7f12a47925d0&#45;&gt;ast.Load object at 0x7f12e0fc1810</title>
<path fill="none" stroke="black" d="M323.68,-75.13C326.61,-73.95 329.59,-72.87 332.5,-72 453,-35.96 602.74,-24.2 671.2,-20.55"/>
<polygon fill="black" stroke="black" points="671.66,-24.03 681.47,-20.03 671.31,-17.04 671.66,-24.03"/>
</g>
<!-- ast.Name object at 0x7f12a4792fd0&#45;&gt;ast.Load object at 0x7f12e0fc1810 -->
<g id="edge29" class="edge">
<title>ast.Name object at 0x7f12a4792fd0&#45;&gt;ast.Load object at 0x7f12e0fc1810</title>
<path fill="none" stroke="black" d="M395.55,-76.82C400.14,-75.03 404.91,-73.34 409.5,-72 501.68,-45.07 614.07,-29.63 671.23,-22.96"/>
<polygon fill="black" stroke="black" points="671.71,-26.43 681.25,-21.82 670.91,-19.48 671.71,-26.43"/>
</g>
<!-- ast.Name object at 0x7f12a4792850 -->
<g id="node27" class="node">
<title>ast.Name object at 0x7f12a4792850</title>
<path fill="#66cdaa" stroke="black" d="M619.5,-468C619.5,-468 589.5,-468 589.5,-468 583.5,-468 577.5,-462 577.5,-456 577.5,-456 577.5,-444 577.5,-444 577.5,-438 583.5,-432 589.5,-432 589.5,-432 619.5,-432 619.5,-432 625.5,-432 631.5,-438 631.5,-444 631.5,-444 631.5,-456 631.5,-456 631.5,-462 625.5,-468 619.5,-468"/>
<text text-anchor="middle" x="604.5" y="-446.3" font-family="Times,serif" font-size="14.00">Name</text>
</g>
<!-- ast.Assign object at 0x7f12a4793350&#45;&gt;ast.Name object at 0x7f12a4792850 -->
<g id="edge31" class="edge">
<title>ast.Assign object at 0x7f12a4793350&#45;&gt;ast.Name object at 0x7f12a4792850</title>
<path fill="none" stroke="black" d="M644.99,-575.98C642.05,-557.86 636.55,-528.46 628.5,-504 625.6,-495.17 621.68,-485.84 617.85,-477.52"/>
<polygon fill="black" stroke="black" points="620.92,-475.82 613.47,-468.29 614.6,-478.82 620.92,-475.82"/>
</g>
<!-- ast.Constant object at 0x7f12a4792390 -->
<g id="node28" class="node">
<title>ast.Constant object at 0x7f12a4792390</title>
<path fill="#66cdaa" stroke="black" d="M607,-540C607,-540 566,-540 566,-540 560,-540 554,-534 554,-528 554,-528 554,-516 554,-516 554,-510 560,-504 566,-504 566,-504 607,-504 607,-504 613,-504 619,-510 619,-516 619,-516 619,-528 619,-528 619,-534 613,-540 607,-540"/>
<text text-anchor="middle" x="586.5" y="-518.3" font-family="Times,serif" font-size="14.00">Constant</text>
</g>
<!-- ast.Assign object at 0x7f12a4793350&#45;&gt;ast.Constant object at 0x7f12a4792390 -->
<g id="edge33" class="edge">
<title>ast.Assign object at 0x7f12a4793350&#45;&gt;ast.Constant object at 0x7f12a4792390</title>
<path fill="none" stroke="black" d="M632.42,-575.7C625.11,-567.3 616.19,-557.07 608.16,-547.86"/>
<polygon fill="black" stroke="black" points="610.61,-545.34 601.41,-540.1 605.34,-549.94 610.61,-545.34"/>
</g>
<!-- ast.Name object at 0x7f12a4792850&#45;&gt;ast.Store object at 0x7f12e0fc1890 -->
<g id="edge32" class="edge">
<title>ast.Name object at 0x7f12a4792850&#45;&gt;ast.Store object at 0x7f12e0fc1890</title>
<path fill="none" stroke="black" d="M629.01,-431.98C643.18,-421.9 661.18,-408.65 676.5,-396 694.69,-380.98 696.2,-373.56 715.5,-360 736.08,-345.54 761.12,-332.47 781.24,-322.93"/>
<polygon fill="black" stroke="black" points="782.8,-326.06 790.39,-318.67 779.85,-319.72 782.8,-326.06"/>
</g>
<!-- ast.Name object at 0x7f12a450a4d0 -->
<g id="node30" class="node">
<title>ast.Name object at 0x7f12a450a4d0</title>
<path fill="#66cdaa" stroke="black" d="M789.5,-540C789.5,-540 759.5,-540 759.5,-540 753.5,-540 747.5,-534 747.5,-528 747.5,-528 747.5,-516 747.5,-516 747.5,-510 753.5,-504 759.5,-504 759.5,-504 789.5,-504 789.5,-504 795.5,-504 801.5,-510 801.5,-516 801.5,-516 801.5,-528 801.5,-528 801.5,-534 795.5,-540 789.5,-540"/>
<text text-anchor="middle" x="774.5" y="-518.3" font-family="Times,serif" font-size="14.00">Name</text>
</g>
<!-- ast.For object at 0x7f12a406a9d0&#45;&gt;ast.Name object at 0x7f12a450a4d0 -->
<g id="edge35" class="edge">
<title>ast.For object at 0x7f12a406a9d0&#45;&gt;ast.Name object at 0x7f12a450a4d0</title>
<path fill="none" stroke="black" d="M753.42,-575.7C756.57,-567.81 760.38,-558.3 763.88,-549.55"/>
<polygon fill="black" stroke="black" points="767.19,-550.69 767.66,-540.1 760.69,-548.09 767.19,-550.69"/>
</g>
<!-- ast.Name object at 0x7f12a4508d90 -->
<g id="node31" class="node">
<title>ast.Name object at 0x7f12a4508d90</title>
<path fill="#66cdaa" stroke="black" d="M893.5,-252C893.5,-252 863.5,-252 863.5,-252 857.5,-252 851.5,-246 851.5,-240 851.5,-240 851.5,-228 851.5,-228 851.5,-222 857.5,-216 863.5,-216 863.5,-216 893.5,-216 893.5,-216 899.5,-216 905.5,-222 905.5,-228 905.5,-228 905.5,-240 905.5,-240 905.5,-246 899.5,-252 893.5,-252"/>
<text text-anchor="middle" x="878.5" y="-230.3" font-family="Times,serif" font-size="14.00">Name</text>
</g>
<!-- ast.For object at 0x7f12a406a9d0&#45;&gt;ast.Name object at 0x7f12a4508d90 -->
<g id="edge37" class="edge">
<title>ast.For object at 0x7f12a406a9d0&#45;&gt;ast.Name object at 0x7f12a4508d90</title>
<path fill="none" stroke="black" d="M773.74,-586.26C809.68,-576.76 869.84,-558.51 882.5,-540 912.93,-495.48 892.41,-328.76 882.75,-262.45"/>
<polygon fill="black" stroke="black" points="886.18,-261.72 881.25,-252.35 879.26,-262.75 886.18,-261.72"/>
</g>
<!-- ast.If object at 0x7f12a4509790 -->
<g id="node32" class="node">
<title>ast.If object at 0x7f12a4509790</title>
<path fill="#66cdaa" stroke="black" d="M717.5,-540C717.5,-540 687.5,-540 687.5,-540 681.5,-540 675.5,-534 675.5,-528 675.5,-528 675.5,-516 675.5,-516 675.5,-510 681.5,-504 687.5,-504 687.5,-504 717.5,-504 717.5,-504 723.5,-504 729.5,-510 729.5,-516 729.5,-516 729.5,-528 729.5,-528 729.5,-534 723.5,-540 717.5,-540"/>
<text text-anchor="middle" x="702.5" y="-518.3" font-family="Times,serif" font-size="14.00">If</text>
</g>
<!-- ast.For object at 0x7f12a406a9d0&#45;&gt;ast.If object at 0x7f12a4509790 -->
<g id="edge39" class="edge">
<title>ast.For object at 0x7f12a406a9d0&#45;&gt;ast.If object at 0x7f12a4509790</title>
<path fill="none" stroke="black" d="M735.62,-575.7C730.51,-567.56 724.3,-557.69 718.66,-548.7"/>
<polygon fill="black" stroke="black" points="721.54,-546.71 713.25,-540.1 715.61,-550.43 721.54,-546.71"/>
</g>
<!-- ast.Name object at 0x7f12a450a4d0&#45;&gt;ast.Store object at 0x7f12e0fc1890 -->
<g id="edge36" class="edge">
<title>ast.Name object at 0x7f12a450a4d0&#45;&gt;ast.Store object at 0x7f12e0fc1890</title>
<path fill="none" stroke="black" d="M783.9,-503.84C789.03,-493.71 795.03,-480.46 798.5,-468 811.24,-422.2 815.44,-366.75 816.82,-334.32"/>
<polygon fill="black" stroke="black" points="820.32,-334.38 817.19,-324.25 813.33,-334.12 820.32,-334.38"/>
</g>
<!-- ast.Name object at 0x7f12a4508d90&#45;&gt;ast.Load object at 0x7f12e0fc1810 -->
<g id="edge38" class="edge">
<title>ast.Name object at 0x7f12a4508d90&#45;&gt;ast.Load object at 0x7f12e0fc1810</title>
<path fill="none" stroke="black" d="M879.84,-215.69C881.37,-183.47 879.99,-113.82 844.5,-72 819.68,-42.75 776.65,-29.56 745.64,-23.66"/>
<polygon fill="black" stroke="black" points="746.07,-20.19 735.62,-21.93 744.88,-27.09 746.07,-20.19"/>
</g>
<!-- ast.Compare object at 0x7f12a450bd90 -->
<g id="node33" class="node">
<title>ast.Compare object at 0x7f12a450bd90</title>
<path fill="#66cdaa" stroke="black" d="M777,-468C777,-468 734,-468 734,-468 728,-468 722,-462 722,-456 722,-456 722,-444 722,-444 722,-438 728,-432 734,-432 734,-432 777,-432 777,-432 783,-432 789,-438 789,-444 789,-444 789,-456 789,-456 789,-462 783,-468 777,-468"/>
<text text-anchor="middle" x="755.5" y="-446.3" font-family="Times,serif" font-size="14.00">Compare</text>
</g>
<!-- ast.If object at 0x7f12a4509790&#45;&gt;ast.Compare object at 0x7f12a450bd90 -->
<g id="edge40" class="edge">
<title>ast.If object at 0x7f12a4509790&#45;&gt;ast.Compare object at 0x7f12a450bd90</title>
<path fill="none" stroke="black" d="M715.6,-503.7C721.89,-495.39 729.55,-485.28 736.46,-476.14"/>
<polygon fill="black" stroke="black" points="739.3,-478.19 742.55,-468.1 733.72,-473.96 739.3,-478.19"/>
</g>
<!-- ast.Expr object at 0x7f12a4711bd0 -->
<g id="node39" class="node">
<title>ast.Expr object at 0x7f12a4711bd0</title>
<path fill="#66cdaa" stroke="black" d="M691.5,-468C691.5,-468 661.5,-468 661.5,-468 655.5,-468 649.5,-462 649.5,-456 649.5,-456 649.5,-444 649.5,-444 649.5,-438 655.5,-432 661.5,-432 661.5,-432 691.5,-432 691.5,-432 697.5,-432 703.5,-438 703.5,-444 703.5,-444 703.5,-456 703.5,-456 703.5,-462 697.5,-468 691.5,-468"/>
<text text-anchor="middle" x="676.5" y="-446.3" font-family="Times,serif" font-size="14.00">Expr</text>
</g>
<!-- ast.If object at 0x7f12a4509790&#45;&gt;ast.Expr object at 0x7f12a4711bd0 -->
<g id="edge48" class="edge">
<title>ast.If object at 0x7f12a4509790&#45;&gt;ast.Expr object at 0x7f12a4711bd0</title>
<path fill="none" stroke="black" d="M696.07,-503.7C693.14,-495.81 689.61,-486.3 686.36,-477.55"/>
<polygon fill="black" stroke="black" points="689.62,-476.26 682.85,-468.1 683.05,-478.7 689.62,-476.26"/>
</g>
<!-- ast.Call object at 0x7f12a450aad0 -->
<g id="node34" class="node">
<title>ast.Call object at 0x7f12a450aad0</title>
<path fill="#66cdaa" stroke="black" d="M751.5,-180C751.5,-180 721.5,-180 721.5,-180 715.5,-180 709.5,-174 709.5,-168 709.5,-168 709.5,-156 709.5,-156 709.5,-150 715.5,-144 721.5,-144 721.5,-144 751.5,-144 751.5,-144 757.5,-144 763.5,-150 763.5,-156 763.5,-156 763.5,-168 763.5,-168 763.5,-174 757.5,-180 751.5,-180"/>
<text text-anchor="middle" x="736.5" y="-158.3" font-family="Times,serif" font-size="14.00">Call</text>
</g>
<!-- ast.Compare object at 0x7f12a450bd90&#45;&gt;ast.Call object at 0x7f12a450aad0 -->
<g id="edge41" class="edge">
<title>ast.Compare object at 0x7f12a450bd90&#45;&gt;ast.Call object at 0x7f12a450aad0</title>
<path fill="none" stroke="black" d="M721.77,-435.46C718.64,-434.27 715.52,-433.1 712.5,-432 664.96,-414.69 634.08,-437.05 604.5,-396 552.53,-323.89 651.8,-229.53 705.41,-186.38"/>
<polygon fill="black" stroke="black" points="707.61,-189.1 713.27,-180.15 703.26,-183.61 707.61,-189.1"/>
</g>
<!-- ast.GtE object at 0x7f12e0fc2a90 -->
<g id="node37" class="node">
<title>ast.GtE object at 0x7f12e0fc2a90</title>
<path fill="#66cdaa" stroke="black" d="M1263.5,-396C1263.5,-396 1233.5,-396 1233.5,-396 1227.5,-396 1221.5,-390 1221.5,-384 1221.5,-384 1221.5,-372 1221.5,-372 1221.5,-366 1227.5,-360 1233.5,-360 1233.5,-360 1263.5,-360 1263.5,-360 1269.5,-360 1275.5,-366 1275.5,-372 1275.5,-372 1275.5,-384 1275.5,-384 1275.5,-390 1269.5,-396 1263.5,-396"/>
<text text-anchor="middle" x="1248.5" y="-374.3" font-family="Times,serif" font-size="14.00">GtE</text>
</g>
<!-- ast.Compare object at 0x7f12a450bd90&#45;&gt;ast.GtE object at 0x7f12e0fc2a90 -->
<g id="edge46" class="edge">
<title>ast.Compare object at 0x7f12a450bd90&#45;&gt;ast.GtE object at 0x7f12e0fc2a90</title>
<path fill="none" stroke="black" d="M789.14,-445.74C882.6,-436.58 1142.53,-410.53 1211.64,-395.37"/>
<polygon fill="black" stroke="black" points="1212.49,-398.77 1221.34,-392.95 1210.79,-391.98 1212.49,-398.77"/>
</g>
<!-- ast.Constant object at 0x7f12a4712e90 -->
<g id="node38" class="node">
<title>ast.Constant object at 0x7f12a4712e90</title>
<path fill="#66cdaa" stroke="black" d="M777,-396C777,-396 736,-396 736,-396 730,-396 724,-390 724,-384 724,-384 724,-372 724,-372 724,-366 730,-360 736,-360 736,-360 777,-360 777,-360 783,-360 789,-366 789,-372 789,-372 789,-384 789,-384 789,-390 783,-396 777,-396"/>
<text text-anchor="middle" x="756.5" y="-374.3" font-family="Times,serif" font-size="14.00">Constant</text>
</g>
<!-- ast.Compare object at 0x7f12a450bd90&#45;&gt;ast.Constant object at 0x7f12a4712e90 -->
<g id="edge47" class="edge">
<title>ast.Compare object at 0x7f12a450bd90&#45;&gt;ast.Constant object at 0x7f12a4712e90</title>
<path fill="none" stroke="black" d="M755.75,-431.7C755.86,-423.98 755.99,-414.71 756.11,-406.11"/>
<polygon fill="black" stroke="black" points="759.61,-406.15 756.26,-396.1 752.61,-406.05 759.61,-406.15"/>
</g>
<!-- ast.Name object at 0x7f12a4710410 -->
<g id="node35" class="node">
<title>ast.Name object at 0x7f12a4710410</title>
<path fill="#66cdaa" stroke="black" d="M823.5,-108C823.5,-108 793.5,-108 793.5,-108 787.5,-108 781.5,-102 781.5,-96 781.5,-96 781.5,-84 781.5,-84 781.5,-78 787.5,-72 793.5,-72 793.5,-72 823.5,-72 823.5,-72 829.5,-72 835.5,-78 835.5,-84 835.5,-84 835.5,-96 835.5,-96 835.5,-102 829.5,-108 823.5,-108"/>
<text text-anchor="middle" x="808.5" y="-86.3" font-family="Times,serif" font-size="14.00">Name</text>
</g>
<!-- ast.Call object at 0x7f12a450aad0&#45;&gt;ast.Name object at 0x7f12a4710410 -->
<g id="edge42" class="edge">
<title>ast.Call object at 0x7f12a450aad0&#45;&gt;ast.Name object at 0x7f12a4710410</title>
<path fill="none" stroke="black" d="M754.3,-143.7C763.1,-135.14 773.88,-124.66 783.5,-115.3"/>
<polygon fill="black" stroke="black" points="786.18,-117.58 790.91,-108.1 781.3,-112.57 786.18,-117.58"/>
</g>
<!-- ast.Name object at 0x7f12a4711410 -->
<g id="node36" class="node">
<title>ast.Name object at 0x7f12a4711410</title>
<path fill="#66cdaa" stroke="black" d="M751.5,-108C751.5,-108 721.5,-108 721.5,-108 715.5,-108 709.5,-102 709.5,-96 709.5,-96 709.5,-84 709.5,-84 709.5,-78 715.5,-72 721.5,-72 721.5,-72 751.5,-72 751.5,-72 757.5,-72 763.5,-78 763.5,-84 763.5,-84 763.5,-96 763.5,-96 763.5,-102 757.5,-108 751.5,-108"/>
<text text-anchor="middle" x="736.5" y="-86.3" font-family="Times,serif" font-size="14.00">Name</text>
</g>
<!-- ast.Call object at 0x7f12a450aad0&#45;&gt;ast.Name object at 0x7f12a4711410 -->
<g id="edge44" class="edge">
<title>ast.Call object at 0x7f12a450aad0&#45;&gt;ast.Name object at 0x7f12a4711410</title>
<path fill="none" stroke="black" d="M736.5,-143.7C736.5,-135.98 736.5,-126.71 736.5,-118.11"/>
<polygon fill="black" stroke="black" points="740,-118.1 736.5,-108.1 733,-118.1 740,-118.1"/>
</g>
<!-- ast.Name object at 0x7f12a4710410&#45;&gt;ast.Load object at 0x7f12e0fc1810 -->
<g id="edge43" class="edge">
<title>ast.Name object at 0x7f12a4710410&#45;&gt;ast.Load object at 0x7f12e0fc1810</title>
<path fill="none" stroke="black" d="M784.04,-71.88C771.2,-62.89 755.3,-51.76 741.41,-42.03"/>
<polygon fill="black" stroke="black" points="743.26,-39.06 733.06,-36.19 739.24,-44.79 743.26,-39.06"/>
</g>
<!-- ast.Name object at 0x7f12a4711410&#45;&gt;ast.Load object at 0x7f12e0fc1810 -->
<g id="edge45" class="edge">
<title>ast.Name object at 0x7f12a4711410&#45;&gt;ast.Load object at 0x7f12e0fc1810</title>
<path fill="none" stroke="black" d="M729.58,-71.7C726.43,-63.81 722.62,-54.3 719.12,-45.55"/>
<polygon fill="black" stroke="black" points="722.31,-44.09 715.34,-36.1 715.81,-46.69 722.31,-44.09"/>
</g>
<!-- ast.Call object at 0x7f12a4712b90 -->
<g id="node40" class="node">
<title>ast.Call object at 0x7f12a4712b90</title>
<path fill="#66cdaa" stroke="black" d="M524.5,-396C524.5,-396 494.5,-396 494.5,-396 488.5,-396 482.5,-390 482.5,-384 482.5,-384 482.5,-372 482.5,-372 482.5,-366 488.5,-360 494.5,-360 494.5,-360 524.5,-360 524.5,-360 530.5,-360 536.5,-366 536.5,-372 536.5,-372 536.5,-384 536.5,-384 536.5,-390 530.5,-396 524.5,-396"/>
<text text-anchor="middle" x="509.5" y="-374.3" font-family="Times,serif" font-size="14.00">Call</text>
</g>
<!-- ast.Expr object at 0x7f12a4711bd0&#45;&gt;ast.Call object at 0x7f12a4712b90 -->
<g id="edge49" class="edge">
<title>ast.Expr object at 0x7f12a4711bd0&#45;&gt;ast.Call object at 0x7f12a4712b90</title>
<path fill="none" stroke="black" d="M649.45,-436.02C646.44,-434.64 643.41,-433.28 640.5,-432 608.92,-418.17 572.53,-403.55 546.13,-393.18"/>
<polygon fill="black" stroke="black" points="547.12,-389.8 536.53,-389.42 544.57,-396.32 547.12,-389.8"/>
</g>
<!-- ast.Attribute object at 0x7f12a47114d0 -->
<g id="node41" class="node">
<title>ast.Attribute object at 0x7f12a47114d0</title>
<path fill="#66cdaa" stroke="black" d="M530,-324C530,-324 489,-324 489,-324 483,-324 477,-318 477,-312 477,-312 477,-300 477,-300 477,-294 483,-288 489,-288 489,-288 530,-288 530,-288 536,-288 542,-294 542,-300 542,-300 542,-312 542,-312 542,-318 536,-324 530,-324"/>
<text text-anchor="middle" x="509.5" y="-302.3" font-family="Times,serif" font-size="14.00">Attribute</text>
</g>
<!-- ast.Call object at 0x7f12a4712b90&#45;&gt;ast.Attribute object at 0x7f12a47114d0 -->
<g id="edge50" class="edge">
<title>ast.Call object at 0x7f12a4712b90&#45;&gt;ast.Attribute object at 0x7f12a47114d0</title>
<path fill="none" stroke="black" d="M509.5,-359.7C509.5,-351.98 509.5,-342.71 509.5,-334.11"/>
<polygon fill="black" stroke="black" points="513,-334.1 509.5,-324.1 506,-334.1 513,-334.1"/>
</g>
<!-- ast.Name object at 0x7f12acafaf50 -->
<g id="node47" class="node">
<title>ast.Name object at 0x7f12acafaf50</title>
<path fill="#66cdaa" stroke="black" d="M421.5,-252C421.5,-252 391.5,-252 391.5,-252 385.5,-252 379.5,-246 379.5,-240 379.5,-240 379.5,-228 379.5,-228 379.5,-222 385.5,-216 391.5,-216 391.5,-216 421.5,-216 421.5,-216 427.5,-216 433.5,-222 433.5,-228 433.5,-228 433.5,-240 433.5,-240 433.5,-246 427.5,-252 421.5,-252"/>
<text text-anchor="middle" x="406.5" y="-230.3" font-family="Times,serif" font-size="14.00">Name</text>
</g>
<!-- ast.Call object at 0x7f12a4712b90&#45;&gt;ast.Name object at 0x7f12acafaf50 -->
<g id="edge61" class="edge">
<title>ast.Call object at 0x7f12a4712b90&#45;&gt;ast.Name object at 0x7f12acafaf50</title>
<path fill="none" stroke="black" d="M495.19,-359.57C486.92,-349.34 476.42,-336.09 467.5,-324 452.16,-303.2 435.64,-278.98 423.67,-261.05"/>
<polygon fill="black" stroke="black" points="426.3,-258.7 417.85,-252.31 420.47,-262.57 426.3,-258.7"/>
</g>
<!-- ast.Attribute object at 0x7f12a47114d0&#45;&gt;ast.Load object at 0x7f12e0fc1810 -->
<g id="edge60" class="edge">
<title>ast.Attribute object at 0x7f12a47114d0&#45;&gt;ast.Load object at 0x7f12e0fc1810</title>
<path fill="none" stroke="black" d="M497.19,-287.78C490.85,-277.84 483.77,-264.8 480.5,-252 460.52,-173.86 444.89,-127.4 503.5,-72 549.35,-28.66 625.86,-19.61 671.32,-18.35"/>
<polygon fill="black" stroke="black" points="671.4,-21.85 681.35,-18.19 671.29,-14.85 671.4,-21.85"/>
</g>
<!-- ast.Subscript object at 0x7f12a4710750 -->
<g id="node42" class="node">
<title>ast.Subscript object at 0x7f12a4710750</title>
<path fill="#66cdaa" stroke="black" d="M545.5,-252C545.5,-252 501.5,-252 501.5,-252 495.5,-252 489.5,-246 489.5,-240 489.5,-240 489.5,-228 489.5,-228 489.5,-222 495.5,-216 501.5,-216 501.5,-216 545.5,-216 545.5,-216 551.5,-216 557.5,-222 557.5,-228 557.5,-228 557.5,-240 557.5,-240 557.5,-246 551.5,-252 545.5,-252"/>
<text text-anchor="middle" x="523.5" y="-230.3" font-family="Times,serif" font-size="14.00">Subscript</text>
</g>
<!-- ast.Attribute object at 0x7f12a47114d0&#45;&gt;ast.Subscript object at 0x7f12a4710750 -->
<g id="edge51" class="edge">
<title>ast.Attribute object at 0x7f12a47114d0&#45;&gt;ast.Subscript object at 0x7f12a4710750</title>
<path fill="none" stroke="black" d="M512.96,-287.7C514.5,-279.98 516.36,-270.71 518.08,-262.11"/>
<polygon fill="black" stroke="black" points="521.55,-262.6 520.08,-252.1 514.69,-261.22 521.55,-262.6"/>
</g>
<!-- ast.Subscript object at 0x7f12a4710750&#45;&gt;ast.Load object at 0x7f12e0fc1810 -->
<g id="edge59" class="edge">
<title>ast.Subscript object at 0x7f12a4710750&#45;&gt;ast.Load object at 0x7f12e0fc1810</title>
<path fill="none" stroke="black" d="M557.65,-221.13C578.92,-212.38 605.71,-198.74 624.5,-180 663.34,-141.26 688.19,-80.8 700.12,-46.05"/>
<polygon fill="black" stroke="black" points="703.58,-46.73 703.41,-36.14 696.94,-44.53 703.58,-46.73"/>
</g>
<!-- ast.Name object at 0x7f12a4710250 -->
<g id="node43" class="node">
<title>ast.Name object at 0x7f12a4710250</title>
<path fill="#66cdaa" stroke="black" d="M531.5,-180C531.5,-180 501.5,-180 501.5,-180 495.5,-180 489.5,-174 489.5,-168 489.5,-168 489.5,-156 489.5,-156 489.5,-150 495.5,-144 501.5,-144 501.5,-144 531.5,-144 531.5,-144 537.5,-144 543.5,-150 543.5,-156 543.5,-156 543.5,-168 543.5,-168 543.5,-174 537.5,-180 531.5,-180"/>
<text text-anchor="middle" x="516.5" y="-158.3" font-family="Times,serif" font-size="14.00">Name</text>
</g>
<!-- ast.Subscript object at 0x7f12a4710750&#45;&gt;ast.Name object at 0x7f12a4710250 -->
<g id="edge52" class="edge">
<title>ast.Subscript object at 0x7f12a4710750&#45;&gt;ast.Name object at 0x7f12a4710250</title>
<path fill="none" stroke="black" d="M521.77,-215.7C521,-207.98 520.07,-198.71 519.21,-190.11"/>
<polygon fill="black" stroke="black" points="522.69,-189.71 518.21,-180.1 515.72,-190.4 522.69,-189.71"/>
</g>
<!-- ast.Call object at 0x7f12a4711dd0 -->
<g id="node44" class="node">
<title>ast.Call object at 0x7f12a4711dd0</title>
<path fill="#66cdaa" stroke="black" d="M603.5,-180C603.5,-180 573.5,-180 573.5,-180 567.5,-180 561.5,-174 561.5,-168 561.5,-168 561.5,-156 561.5,-156 561.5,-150 567.5,-144 573.5,-144 573.5,-144 603.5,-144 603.5,-144 609.5,-144 615.5,-150 615.5,-156 615.5,-156 615.5,-168 615.5,-168 615.5,-174 609.5,-180 603.5,-180"/>
<text text-anchor="middle" x="588.5" y="-158.3" font-family="Times,serif" font-size="14.00">Call</text>
</g>
<!-- ast.Subscript object at 0x7f12a4710750&#45;&gt;ast.Call object at 0x7f12a4711dd0 -->
<g id="edge54" class="edge">
<title>ast.Subscript object at 0x7f12a4710750&#45;&gt;ast.Call object at 0x7f12a4711dd0</title>
<path fill="none" stroke="black" d="M539.57,-215.7C547.44,-207.22 557.06,-196.86 565.67,-187.58"/>
<polygon fill="black" stroke="black" points="568.38,-189.81 572.62,-180.1 563.25,-185.05 568.38,-189.81"/>
</g>
<!-- ast.Name object at 0x7f12a4710250&#45;&gt;ast.Load object at 0x7f12e0fc1810 -->
<g id="edge53" class="edge">
<title>ast.Name object at 0x7f12a4710250&#45;&gt;ast.Load object at 0x7f12e0fc1810</title>
<path fill="none" stroke="black" d="M511.4,-143.95C506.69,-124.42 502.57,-92.5 518.5,-72 537.19,-47.95 621.61,-31.74 671.42,-24.08"/>
<polygon fill="black" stroke="black" points="672.11,-27.51 681.48,-22.58 671.07,-20.59 672.11,-27.51"/>
</g>
<!-- ast.Name object at 0x7f12a4713fd0 -->
<g id="node45" class="node">
<title>ast.Name object at 0x7f12a4713fd0</title>
<path fill="#66cdaa" stroke="black" d="M569.5,-108C569.5,-108 539.5,-108 539.5,-108 533.5,-108 527.5,-102 527.5,-96 527.5,-96 527.5,-84 527.5,-84 527.5,-78 533.5,-72 539.5,-72 539.5,-72 569.5,-72 569.5,-72 575.5,-72 581.5,-78 581.5,-84 581.5,-84 581.5,-96 581.5,-96 581.5,-102 575.5,-108 569.5,-108"/>
<text text-anchor="middle" x="554.5" y="-86.3" font-family="Times,serif" font-size="14.00">Name</text>
</g>
<!-- ast.Call object at 0x7f12a4711dd0&#45;&gt;ast.Name object at 0x7f12a4713fd0 -->
<g id="edge55" class="edge">
<title>ast.Call object at 0x7f12a4711dd0&#45;&gt;ast.Name object at 0x7f12a4713fd0</title>
<path fill="none" stroke="black" d="M580.1,-143.7C576.23,-135.73 571.55,-126.1 567.26,-117.26"/>
<polygon fill="black" stroke="black" points="570.33,-115.57 562.81,-108.1 564.03,-118.63 570.33,-115.57"/>
</g>
<!-- ast.Name object at 0x7f12acaf8b50 -->
<g id="node46" class="node">
<title>ast.Name object at 0x7f12acaf8b50</title>
<path fill="#66cdaa" stroke="black" d="M641.5,-108C641.5,-108 611.5,-108 611.5,-108 605.5,-108 599.5,-102 599.5,-96 599.5,-96 599.5,-84 599.5,-84 599.5,-78 605.5,-72 611.5,-72 611.5,-72 641.5,-72 641.5,-72 647.5,-72 653.5,-78 653.5,-84 653.5,-84 653.5,-96 653.5,-96 653.5,-102 647.5,-108 641.5,-108"/>
<text text-anchor="middle" x="626.5" y="-86.3" font-family="Times,serif" font-size="14.00">Name</text>
</g>
<!-- ast.Call object at 0x7f12a4711dd0&#45;&gt;ast.Name object at 0x7f12acaf8b50 -->
<g id="edge57" class="edge">
<title>ast.Call object at 0x7f12a4711dd0&#45;&gt;ast.Name object at 0x7f12acaf8b50</title>
<path fill="none" stroke="black" d="M597.89,-143.7C602.26,-135.64 607.56,-125.89 612.4,-116.98"/>
<polygon fill="black" stroke="black" points="615.52,-118.56 617.21,-108.1 609.37,-115.22 615.52,-118.56"/>
</g>
<!-- ast.Name object at 0x7f12a4713fd0&#45;&gt;ast.Load object at 0x7f12e0fc1810 -->
<g id="edge56" class="edge">
<title>ast.Name object at 0x7f12a4713fd0&#45;&gt;ast.Load object at 0x7f12e0fc1810</title>
<path fill="none" stroke="black" d="M581.6,-76.13C584.6,-74.73 587.61,-73.33 590.5,-72 617.75,-59.45 648.69,-45.56 672.06,-35.15"/>
<polygon fill="black" stroke="black" points="673.54,-38.33 681.25,-31.06 670.69,-31.93 673.54,-38.33"/>
</g>
<!-- ast.Name object at 0x7f12acaf8b50&#45;&gt;ast.Load object at 0x7f12e0fc1810 -->
<g id="edge58" class="edge">
<title>ast.Name object at 0x7f12acaf8b50&#45;&gt;ast.Load object at 0x7f12e0fc1810</title>
<path fill="none" stroke="black" d="M646.77,-71.7C657,-62.97 669.56,-52.24 680.68,-42.75"/>
<polygon fill="black" stroke="black" points="683.13,-45.26 688.46,-36.1 678.59,-39.94 683.13,-45.26"/>
</g>
<!-- ast.Name object at 0x7f12acafaf50&#45;&gt;ast.Load object at 0x7f12e0fc1810 -->
<g id="edge62" class="edge">
<title>ast.Name object at 0x7f12acafaf50&#45;&gt;ast.Load object at 0x7f12e0fc1810</title>
<path fill="none" stroke="black" d="M405.41,-215.78C404.34,-182.78 407.08,-110.49 447.5,-72 479.22,-41.8 606.93,-27.27 671.19,-21.76"/>
<polygon fill="black" stroke="black" points="671.63,-25.24 681.3,-20.92 671.05,-18.26 671.63,-25.24"/>
</g>
<!-- ast.Name object at 0x7f12acafac90 -->
<g id="node49" class="node">
<title>ast.Name object at 0x7f12acafac90</title>
<path fill="#66cdaa" stroke="black" d="M861.5,-540C861.5,-540 831.5,-540 831.5,-540 825.5,-540 819.5,-534 819.5,-528 819.5,-528 819.5,-516 819.5,-516 819.5,-510 825.5,-504 831.5,-504 831.5,-504 861.5,-504 861.5,-504 867.5,-504 873.5,-510 873.5,-516 873.5,-516 873.5,-528 873.5,-528 873.5,-534 867.5,-540 861.5,-540"/>
<text text-anchor="middle" x="846.5" y="-518.3" font-family="Times,serif" font-size="14.00">Name</text>
</g>
<!-- ast.For object at 0x7f12a456e550&#45;&gt;ast.Name object at 0x7f12acafac90 -->
<g id="edge64" class="edge">
<title>ast.For object at 0x7f12a456e550&#45;&gt;ast.Name object at 0x7f12acafac90</title>
<path fill="none" stroke="black" d="M862.31,-575.7C859.97,-567.9 857.15,-558.51 854.55,-549.83"/>
<polygon fill="black" stroke="black" points="857.86,-548.68 851.63,-540.1 851.15,-550.69 857.86,-548.68"/>
</g>
<!-- ast.Call object at 0x7f12acaf8f10 -->
<g id="node50" class="node">
<title>ast.Call object at 0x7f12acaf8f10</title>
<path fill="#66cdaa" stroke="black" d="M1071.5,-540C1071.5,-540 1041.5,-540 1041.5,-540 1035.5,-540 1029.5,-534 1029.5,-528 1029.5,-528 1029.5,-516 1029.5,-516 1029.5,-510 1035.5,-504 1041.5,-504 1041.5,-504 1071.5,-504 1071.5,-504 1077.5,-504 1083.5,-510 1083.5,-516 1083.5,-516 1083.5,-528 1083.5,-528 1083.5,-534 1077.5,-540 1071.5,-540"/>
<text text-anchor="middle" x="1056.5" y="-518.3" font-family="Times,serif" font-size="14.00">Call</text>
</g>
<!-- ast.For object at 0x7f12a456e550&#45;&gt;ast.Call object at 0x7f12acaf8f10 -->
<g id="edge66" class="edge">
<title>ast.For object at 0x7f12a456e550&#45;&gt;ast.Call object at 0x7f12acaf8f10</title>
<path fill="none" stroke="black" d="M894.64,-584.58C923.61,-575.37 970.98,-559.72 1019.69,-540.14"/>
<polygon fill="black" stroke="black" points="1021.17,-543.31 1029.12,-536.3 1018.54,-536.83 1021.17,-543.31"/>
</g>
<!-- ast.If object at 0x7f12acaf8e50 -->
<g id="node53" class="node">
<title>ast.If object at 0x7f12acaf8e50</title>
<path fill="#66cdaa" stroke="black" d="M999.5,-540C999.5,-540 969.5,-540 969.5,-540 963.5,-540 957.5,-534 957.5,-528 957.5,-528 957.5,-516 957.5,-516 957.5,-510 963.5,-504 969.5,-504 969.5,-504 999.5,-504 999.5,-504 1005.5,-504 1011.5,-510 1011.5,-516 1011.5,-516 1011.5,-528 1011.5,-528 1011.5,-534 1005.5,-540 999.5,-540"/>
<text text-anchor="middle" x="984.5" y="-518.3" font-family="Times,serif" font-size="14.00">If</text>
</g>
<!-- ast.For object at 0x7f12a456e550&#45;&gt;ast.If object at 0x7f12acaf8e50 -->
<g id="edge71" class="edge">
<title>ast.For object at 0x7f12a456e550&#45;&gt;ast.If object at 0x7f12acaf8e50</title>
<path fill="none" stroke="black" d="M894.64,-576.76C910.62,-567.2 931.03,-554.99 948.36,-544.62"/>
<polygon fill="black" stroke="black" points="950.32,-547.53 957.11,-539.39 946.73,-541.52 950.32,-547.53"/>
</g>
<!-- ast.Name object at 0x7f12acafac90&#45;&gt;ast.Store object at 0x7f12e0fc1890 -->
<g id="edge65" class="edge">
<title>ast.Name object at 0x7f12acafac90&#45;&gt;ast.Store object at 0x7f12e0fc1890</title>
<path fill="none" stroke="black" d="M845.84,-503.96C844.49,-474.43 840.72,-411.96 831.5,-360 829.96,-351.34 827.71,-342.02 825.46,-333.66"/>
<polygon fill="black" stroke="black" points="828.83,-332.71 822.77,-324.03 822.09,-334.6 828.83,-332.71"/>
</g>
<!-- ast.Attribute object at 0x7f12acafb8d0 -->
<g id="node51" class="node">
<title>ast.Attribute object at 0x7f12acafb8d0</title>
<path fill="#66cdaa" stroke="black" d="M1370,-180C1370,-180 1329,-180 1329,-180 1323,-180 1317,-174 1317,-168 1317,-168 1317,-156 1317,-156 1317,-150 1323,-144 1329,-144 1329,-144 1370,-144 1370,-144 1376,-144 1382,-150 1382,-156 1382,-156 1382,-168 1382,-168 1382,-174 1376,-180 1370,-180"/>
<text text-anchor="middle" x="1349.5" y="-158.3" font-family="Times,serif" font-size="14.00">Attribute</text>
</g>
<!-- ast.Call object at 0x7f12acaf8f10&#45;&gt;ast.Attribute object at 0x7f12acafb8d0 -->
<g id="edge67" class="edge">
<title>ast.Call object at 0x7f12acaf8f10&#45;&gt;ast.Attribute object at 0x7f12acafb8d0</title>
<path fill="none" stroke="black" d="M1083.5,-506.01C1085.17,-505.29 1086.85,-504.61 1088.5,-504 1158.54,-478.26 1187.04,-503.83 1252.5,-468 1301.57,-441.14 1341.5,-434.94 1341.5,-379 1341.5,-379 1341.5,-379 1341.5,-305 1341.5,-264.93 1344.71,-218.61 1347.07,-190.05"/>
<polygon fill="black" stroke="black" points="1350.56,-190.29 1347.92,-180.03 1343.59,-189.7 1350.56,-190.29"/>
</g>
<!-- ast.Attribute object at 0x7f12acafb8d0&#45;&gt;ast.Load object at 0x7f12e0fc1810 -->
<g id="edge70" class="edge">
<title>ast.Attribute object at 0x7f12acafb8d0&#45;&gt;ast.Load object at 0x7f12e0fc1810</title>
<path fill="none" stroke="black" d="M1348.01,-143.7C1345.22,-122.99 1337.24,-88.99 1314.5,-72 1268.93,-37.95 870.76,-23.67 745.83,-20"/>
<polygon fill="black" stroke="black" points="745.72,-16.5 735.62,-19.71 745.52,-23.5 745.72,-16.5"/>
</g>
<!-- ast.Name object at 0x7f12acafaa10 -->
<g id="node52" class="node">
<title>ast.Name object at 0x7f12acafaa10</title>
<path fill="#66cdaa" stroke="black" d="M1403.5,-108C1403.5,-108 1373.5,-108 1373.5,-108 1367.5,-108 1361.5,-102 1361.5,-96 1361.5,-96 1361.5,-84 1361.5,-84 1361.5,-78 1367.5,-72 1373.5,-72 1373.5,-72 1403.5,-72 1403.5,-72 1409.5,-72 1415.5,-78 1415.5,-84 1415.5,-84 1415.5,-96 1415.5,-96 1415.5,-102 1409.5,-108 1403.5,-108"/>
<text text-anchor="middle" x="1388.5" y="-86.3" font-family="Times,serif" font-size="14.00">Name</text>
</g>
<!-- ast.Attribute object at 0x7f12acafb8d0&#45;&gt;ast.Name object at 0x7f12acafaa10 -->
<g id="edge68" class="edge">
<title>ast.Attribute object at 0x7f12acafb8d0&#45;&gt;ast.Name object at 0x7f12acafaa10</title>
<path fill="none" stroke="black" d="M1359.14,-143.7C1363.63,-135.64 1369.06,-125.89 1374.02,-116.98"/>
<polygon fill="black" stroke="black" points="1377.16,-118.54 1378.97,-108.1 1371.05,-115.14 1377.16,-118.54"/>
</g>
<!-- ast.Name object at 0x7f12acafaa10&#45;&gt;ast.Load object at 0x7f12e0fc1810 -->
<g id="edge69" class="edge">
<title>ast.Name object at 0x7f12acafaa10&#45;&gt;ast.Load object at 0x7f12e0fc1810</title>
<path fill="none" stroke="black" d="M1361.1,-76.28C1356.63,-74.6 1351.99,-73.09 1347.5,-72 1231.99,-43.99 864.52,-25.83 745.85,-20.58"/>
<polygon fill="black" stroke="black" points="745.94,-17.08 735.8,-20.14 745.63,-24.07 745.94,-17.08"/>
</g>
<!-- ast.Compare object at 0x7f12acaf8cd0 -->
<g id="node54" class="node">
<title>ast.Compare object at 0x7f12acaf8cd0</title>
<path fill="#66cdaa" stroke="black" d="M1231,-468C1231,-468 1188,-468 1188,-468 1182,-468 1176,-462 1176,-456 1176,-456 1176,-444 1176,-444 1176,-438 1182,-432 1188,-432 1188,-432 1231,-432 1231,-432 1237,-432 1243,-438 1243,-444 1243,-444 1243,-456 1243,-456 1243,-462 1237,-468 1231,-468"/>
<text text-anchor="middle" x="1209.5" y="-446.3" font-family="Times,serif" font-size="14.00">Compare</text>
</g>
<!-- ast.If object at 0x7f12acaf8e50&#45;&gt;ast.Compare object at 0x7f12acaf8cd0 -->
<g id="edge72" class="edge">
<title>ast.If object at 0x7f12acaf8e50&#45;&gt;ast.Compare object at 0x7f12acaf8cd0</title>
<path fill="none" stroke="black" d="M1011.81,-507.52C1014.72,-506.26 1017.65,-505.06 1020.5,-504 1069.3,-485.78 1127.2,-470.43 1165.94,-461.01"/>
<polygon fill="black" stroke="black" points="1166.94,-464.37 1175.84,-458.63 1165.3,-457.56 1166.94,-464.37"/>
</g>
<!-- ast.AugAssign object at 0x7f12acaf8d50 -->
<g id="node59" class="node">
<title>ast.AugAssign object at 0x7f12acaf8d50</title>
<path fill="#66cdaa" stroke="black" d="M1029,-468C1029,-468 976,-468 976,-468 970,-468 964,-462 964,-456 964,-456 964,-444 964,-444 964,-438 970,-432 976,-432 976,-432 1029,-432 1029,-432 1035,-432 1041,-438 1041,-444 1041,-444 1041,-456 1041,-456 1041,-462 1035,-468 1029,-468"/>
<text text-anchor="middle" x="1002.5" y="-446.3" font-family="Times,serif" font-size="14.00">AugAssign</text>
</g>
<!-- ast.If object at 0x7f12acaf8e50&#45;&gt;ast.AugAssign object at 0x7f12acaf8d50 -->
<g id="edge80" class="edge">
<title>ast.If object at 0x7f12acaf8e50&#45;&gt;ast.AugAssign object at 0x7f12acaf8d50</title>
<path fill="none" stroke="black" d="M988.95,-503.7C990.95,-495.9 993.37,-486.51 995.6,-477.83"/>
<polygon fill="black" stroke="black" points="999,-478.66 998.1,-468.1 992.22,-476.92 999,-478.66"/>
</g>
<!-- ast.Compare object at 0x7f12acaf8cd0&#45;&gt;ast.GtE object at 0x7f12e0fc2a90 -->
<g id="edge78" class="edge">
<title>ast.Compare object at 0x7f12acaf8cd0&#45;&gt;ast.GtE object at 0x7f12e0fc2a90</title>
<path fill="none" stroke="black" d="M1219.14,-431.7C1223.63,-423.64 1229.06,-413.89 1234.02,-404.98"/>
<polygon fill="black" stroke="black" points="1237.16,-406.54 1238.97,-396.1 1231.05,-403.14 1237.16,-406.54"/>
</g>
<!-- ast.Call object at 0x7f12acaf9a90 -->
<g id="node55" class="node">
<title>ast.Call object at 0x7f12acaf9a90</title>
<path fill="#66cdaa" stroke="black" d="M1286.5,-180C1286.5,-180 1256.5,-180 1256.5,-180 1250.5,-180 1244.5,-174 1244.5,-168 1244.5,-168 1244.5,-156 1244.5,-156 1244.5,-150 1250.5,-144 1256.5,-144 1256.5,-144 1286.5,-144 1286.5,-144 1292.5,-144 1298.5,-150 1298.5,-156 1298.5,-156 1298.5,-168 1298.5,-168 1298.5,-174 1292.5,-180 1286.5,-180"/>
<text text-anchor="middle" x="1271.5" y="-158.3" font-family="Times,serif" font-size="14.00">Call</text>
</g>
<!-- ast.Compare object at 0x7f12acaf8cd0&#45;&gt;ast.Call object at 0x7f12acaf9a90 -->
<g id="edge73" class="edge">
<title>ast.Compare object at 0x7f12acaf8cd0&#45;&gt;ast.Call object at 0x7f12acaf9a90</title>
<path fill="none" stroke="black" d="M1243.06,-434.4C1258.67,-425.7 1275.7,-412.99 1284.5,-396 1319.41,-328.58 1296.24,-235.01 1281.32,-189.7"/>
<polygon fill="black" stroke="black" points="1284.56,-188.36 1278.01,-180.03 1277.94,-190.62 1284.56,-188.36"/>
</g>
<!-- ast.Constant object at 0x7f12acafba10 -->
<g id="node58" class="node">
<title>ast.Constant object at 0x7f12acafba10</title>
<path fill="#66cdaa" stroke="black" d="M1191,-396C1191,-396 1150,-396 1150,-396 1144,-396 1138,-390 1138,-384 1138,-384 1138,-372 1138,-372 1138,-366 1144,-360 1150,-360 1150,-360 1191,-360 1191,-360 1197,-360 1203,-366 1203,-372 1203,-372 1203,-384 1203,-384 1203,-390 1197,-396 1191,-396"/>
<text text-anchor="middle" x="1170.5" y="-374.3" font-family="Times,serif" font-size="14.00">Constant</text>
</g>
<!-- ast.Compare object at 0x7f12acaf8cd0&#45;&gt;ast.Constant object at 0x7f12acafba10 -->
<g id="edge79" class="edge">
<title>ast.Compare object at 0x7f12acaf8cd0&#45;&gt;ast.Constant object at 0x7f12acafba10</title>
<path fill="none" stroke="black" d="M1199.86,-431.7C1195.37,-423.64 1189.94,-413.89 1184.98,-404.98"/>
<polygon fill="black" stroke="black" points="1187.95,-403.14 1180.03,-396.1 1181.84,-406.54 1187.95,-403.14"/>
</g>
<!-- ast.Name object at 0x7f12acaf8d90 -->
<g id="node56" class="node">
<title>ast.Name object at 0x7f12acaf8d90</title>
<path fill="#66cdaa" stroke="black" d="M1221.5,-108C1221.5,-108 1191.5,-108 1191.5,-108 1185.5,-108 1179.5,-102 1179.5,-96 1179.5,-96 1179.5,-84 1179.5,-84 1179.5,-78 1185.5,-72 1191.5,-72 1191.5,-72 1221.5,-72 1221.5,-72 1227.5,-72 1233.5,-78 1233.5,-84 1233.5,-84 1233.5,-96 1233.5,-96 1233.5,-102 1227.5,-108 1221.5,-108"/>
<text text-anchor="middle" x="1206.5" y="-86.3" font-family="Times,serif" font-size="14.00">Name</text>
</g>
<!-- ast.Call object at 0x7f12acaf9a90&#45;&gt;ast.Name object at 0x7f12acaf8d90 -->
<g id="edge74" class="edge">
<title>ast.Call object at 0x7f12acaf9a90&#45;&gt;ast.Name object at 0x7f12acaf8d90</title>
<path fill="none" stroke="black" d="M1255.43,-143.7C1247.56,-135.22 1237.94,-124.86 1229.33,-115.58"/>
<polygon fill="black" stroke="black" points="1231.75,-113.05 1222.38,-108.1 1226.62,-117.81 1231.75,-113.05"/>
</g>
<!-- ast.Name object at 0x7f12acafb9d0 -->
<g id="node57" class="node">
<title>ast.Name object at 0x7f12acafb9d0</title>
<path fill="#66cdaa" stroke="black" d="M1293.5,-108C1293.5,-108 1263.5,-108 1263.5,-108 1257.5,-108 1251.5,-102 1251.5,-96 1251.5,-96 1251.5,-84 1251.5,-84 1251.5,-78 1257.5,-72 1263.5,-72 1263.5,-72 1293.5,-72 1293.5,-72 1299.5,-72 1305.5,-78 1305.5,-84 1305.5,-84 1305.5,-96 1305.5,-96 1305.5,-102 1299.5,-108 1293.5,-108"/>
<text text-anchor="middle" x="1278.5" y="-86.3" font-family="Times,serif" font-size="14.00">Name</text>
</g>
<!-- ast.Call object at 0x7f12acaf9a90&#45;&gt;ast.Name object at 0x7f12acafb9d0 -->
<g id="edge76" class="edge">
<title>ast.Call object at 0x7f12acaf9a90&#45;&gt;ast.Name object at 0x7f12acafb9d0</title>
<path fill="none" stroke="black" d="M1273.23,-143.7C1274,-135.98 1274.93,-126.71 1275.79,-118.11"/>
<polygon fill="black" stroke="black" points="1279.28,-118.4 1276.79,-108.1 1272.31,-117.71 1279.28,-118.4"/>
</g>
<!-- ast.Name object at 0x7f12acaf8d90&#45;&gt;ast.Load object at 0x7f12e0fc1810 -->
<g id="edge75" class="edge">
<title>ast.Name object at 0x7f12acaf8d90&#45;&gt;ast.Load object at 0x7f12e0fc1810</title>
<path fill="none" stroke="black" d="M1179.34,-75.05C1176.41,-73.88 1173.42,-72.83 1170.5,-72 1017.06,-28.26 825.19,-20.47 745.67,-19.19"/>
<polygon fill="black" stroke="black" points="745.7,-15.69 735.66,-19.05 745.61,-22.69 745.7,-15.69"/>
</g>
<!-- ast.Name object at 0x7f12acafb9d0&#45;&gt;ast.Load object at 0x7f12e0fc1810 -->
<g id="edge77" class="edge">
<title>ast.Name object at 0x7f12acafb9d0&#45;&gt;ast.Load object at 0x7f12e0fc1810</title>
<path fill="none" stroke="black" d="M1251.35,-75C1248.42,-73.85 1245.43,-72.81 1242.5,-72 1061.31,-21.84 833.96,-17.83 745.81,-18.38"/>
<polygon fill="black" stroke="black" points="745.73,-14.88 735.76,-18.46 745.79,-21.88 745.73,-14.88"/>
</g>
<!-- ast.Name object at 0x7f12acaf80d0 -->
<g id="node60" class="node">
<title>ast.Name object at 0x7f12acaf80d0</title>
<path fill="#66cdaa" stroke="black" d="M963.5,-396C963.5,-396 933.5,-396 933.5,-396 927.5,-396 921.5,-390 921.5,-384 921.5,-384 921.5,-372 921.5,-372 921.5,-366 927.5,-360 933.5,-360 933.5,-360 963.5,-360 963.5,-360 969.5,-360 975.5,-366 975.5,-372 975.5,-372 975.5,-384 975.5,-384 975.5,-390 969.5,-396 963.5,-396"/>
<text text-anchor="middle" x="948.5" y="-374.3" font-family="Times,serif" font-size="14.00">Name</text>
</g>
<!-- ast.AugAssign object at 0x7f12acaf8d50&#45;&gt;ast.Name object at 0x7f12acaf80d0 -->
<g id="edge81" class="edge">
<title>ast.AugAssign object at 0x7f12acaf8d50&#45;&gt;ast.Name object at 0x7f12acaf80d0</title>
<path fill="none" stroke="black" d="M989.15,-431.7C982.74,-423.39 974.94,-413.28 967.89,-404.14"/>
<polygon fill="black" stroke="black" points="970.57,-401.88 961.69,-396.1 965.03,-406.16 970.57,-401.88"/>
</g>
<!-- ast.Add object at 0x7f12e0fc1d10 -->
<g id="node61" class="node">
<title>ast.Add object at 0x7f12e0fc1d10</title>
<path fill="#66cdaa" stroke="black" d="M1035.5,-396C1035.5,-396 1005.5,-396 1005.5,-396 999.5,-396 993.5,-390 993.5,-384 993.5,-384 993.5,-372 993.5,-372 993.5,-366 999.5,-360 1005.5,-360 1005.5,-360 1035.5,-360 1035.5,-360 1041.5,-360 1047.5,-366 1047.5,-372 1047.5,-372 1047.5,-384 1047.5,-384 1047.5,-390 1041.5,-396 1035.5,-396"/>
<text text-anchor="middle" x="1020.5" y="-374.3" font-family="Times,serif" font-size="14.00">Add</text>
</g>
<!-- ast.AugAssign object at 0x7f12acaf8d50&#45;&gt;ast.Add object at 0x7f12e0fc1d10 -->
<g id="edge83" class="edge">
<title>ast.AugAssign object at 0x7f12acaf8d50&#45;&gt;ast.Add object at 0x7f12e0fc1d10</title>
<path fill="none" stroke="black" d="M1006.95,-431.7C1008.95,-423.9 1011.37,-414.51 1013.6,-405.83"/>
<polygon fill="black" stroke="black" points="1017,-406.66 1016.1,-396.1 1010.22,-404.92 1017,-406.66"/>
</g>
<!-- ast.BinOp object at 0x7f1293c93710 -->
<g id="node62" class="node">
<title>ast.BinOp object at 0x7f1293c93710</title>
<path fill="#66cdaa" stroke="black" d="M1107.5,-396C1107.5,-396 1077.5,-396 1077.5,-396 1071.5,-396 1065.5,-390 1065.5,-384 1065.5,-384 1065.5,-372 1065.5,-372 1065.5,-366 1071.5,-360 1077.5,-360 1077.5,-360 1107.5,-360 1107.5,-360 1113.5,-360 1119.5,-366 1119.5,-372 1119.5,-372 1119.5,-384 1119.5,-384 1119.5,-390 1113.5,-396 1107.5,-396"/>
<text text-anchor="middle" x="1092.5" y="-374.3" font-family="Times,serif" font-size="14.00">BinOp</text>
</g>
<!-- ast.AugAssign object at 0x7f12acaf8d50&#45;&gt;ast.BinOp object at 0x7f1293c93710 -->
<g id="edge84" class="edge">
<title>ast.AugAssign object at 0x7f12acaf8d50&#45;&gt;ast.BinOp object at 0x7f1293c93710</title>
<path fill="none" stroke="black" d="M1024.75,-431.7C1036.08,-422.88 1050.03,-412.03 1062.32,-402.47"/>
<polygon fill="black" stroke="black" points="1064.76,-405.01 1070.51,-396.1 1060.47,-399.48 1064.76,-405.01"/>
</g>
<!-- ast.Name object at 0x7f12acaf80d0&#45;&gt;ast.Store object at 0x7f12e0fc1890 -->
<g id="edge82" class="edge">
<title>ast.Name object at 0x7f12acaf80d0&#45;&gt;ast.Store object at 0x7f12e0fc1890</title>
<path fill="none" stroke="black" d="M921.36,-362.5C901.68,-351.98 874.88,-337.66 853.44,-326.2"/>
<polygon fill="black" stroke="black" points="855.08,-323.11 844.61,-321.49 851.78,-329.29 855.08,-323.11"/>
</g>
<!-- ast.BinOp object at 0x7f1293a9dfd0 -->
<g id="node63" class="node">
<title>ast.BinOp object at 0x7f1293a9dfd0</title>
<path fill="#66cdaa" stroke="black" d="M1044.5,-324C1044.5,-324 1014.5,-324 1014.5,-324 1008.5,-324 1002.5,-318 1002.5,-312 1002.5,-312 1002.5,-300 1002.5,-300 1002.5,-294 1008.5,-288 1014.5,-288 1014.5,-288 1044.5,-288 1044.5,-288 1050.5,-288 1056.5,-294 1056.5,-300 1056.5,-300 1056.5,-312 1056.5,-312 1056.5,-318 1050.5,-324 1044.5,-324"/>
<text text-anchor="middle" x="1029.5" y="-302.3" font-family="Times,serif" font-size="14.00">BinOp</text>
</g>
<!-- ast.BinOp object at 0x7f1293c93710&#45;&gt;ast.BinOp object at 0x7f1293a9dfd0 -->
<g id="edge85" class="edge">
<title>ast.BinOp object at 0x7f1293c93710&#45;&gt;ast.BinOp object at 0x7f1293a9dfd0</title>
<path fill="none" stroke="black" d="M1076.93,-359.7C1069.3,-351.22 1059.98,-340.86 1051.62,-331.58"/>
<polygon fill="black" stroke="black" points="1054.19,-329.2 1044.89,-324.1 1048.98,-333.88 1054.19,-329.2"/>
</g>
<!-- ast.FloorDiv object at 0x7f12e0fc2390 -->
<g id="node74" class="node">
<title>ast.FloorDiv object at 0x7f12e0fc2390</title>
<path fill="#66cdaa" stroke="black" d="M1128.5,-324C1128.5,-324 1086.5,-324 1086.5,-324 1080.5,-324 1074.5,-318 1074.5,-312 1074.5,-312 1074.5,-300 1074.5,-300 1074.5,-294 1080.5,-288 1086.5,-288 1086.5,-288 1128.5,-288 1128.5,-288 1134.5,-288 1140.5,-294 1140.5,-300 1140.5,-300 1140.5,-312 1140.5,-312 1140.5,-318 1134.5,-324 1128.5,-324"/>
<text text-anchor="middle" x="1107.5" y="-302.3" font-family="Times,serif" font-size="14.00">FloorDiv</text>
</g>
<!-- ast.BinOp object at 0x7f1293c93710&#45;&gt;ast.FloorDiv object at 0x7f12e0fc2390 -->
<g id="edge100" class="edge">
<title>ast.BinOp object at 0x7f1293c93710&#45;&gt;ast.FloorDiv object at 0x7f12e0fc2390</title>
<path fill="none" stroke="black" d="M1096.21,-359.7C1097.86,-351.98 1099.85,-342.71 1101.69,-334.11"/>
<polygon fill="black" stroke="black" points="1105.16,-334.62 1103.83,-324.1 1098.32,-333.15 1105.16,-334.62"/>
</g>
<!-- ast.Constant object at 0x7f12a479c210 -->
<g id="node75" class="node">
<title>ast.Constant object at 0x7f12a479c210</title>
<path fill="#66cdaa" stroke="black" d="M1212,-324C1212,-324 1171,-324 1171,-324 1165,-324 1159,-318 1159,-312 1159,-312 1159,-300 1159,-300 1159,-294 1165,-288 1171,-288 1171,-288 1212,-288 1212,-288 1218,-288 1224,-294 1224,-300 1224,-300 1224,-312 1224,-312 1224,-318 1218,-324 1212,-324"/>
<text text-anchor="middle" x="1191.5" y="-302.3" font-family="Times,serif" font-size="14.00">Constant</text>
</g>
<!-- ast.BinOp object at 0x7f1293c93710&#45;&gt;ast.Constant object at 0x7f12a479c210 -->
<g id="edge101" class="edge">
<title>ast.BinOp object at 0x7f1293c93710&#45;&gt;ast.Constant object at 0x7f12a479c210</title>
<path fill="none" stroke="black" d="M1116.72,-359.88C1129.42,-350.89 1145.16,-339.76 1158.92,-330.03"/>
<polygon fill="black" stroke="black" points="1161.04,-332.82 1167.19,-324.19 1157,-327.11 1161.04,-332.82"/>
</g>
<!-- ast.Call object at 0x7f12a479db50 -->
<g id="node64" class="node">
<title>ast.Call object at 0x7f12a479db50</title>
<path fill="#66cdaa" stroke="black" d="M1161.5,-180C1161.5,-180 1131.5,-180 1131.5,-180 1125.5,-180 1119.5,-174 1119.5,-168 1119.5,-168 1119.5,-156 1119.5,-156 1119.5,-150 1125.5,-144 1131.5,-144 1131.5,-144 1161.5,-144 1161.5,-144 1167.5,-144 1173.5,-150 1173.5,-156 1173.5,-156 1173.5,-168 1173.5,-168 1173.5,-174 1167.5,-180 1161.5,-180"/>
<text text-anchor="middle" x="1146.5" y="-158.3" font-family="Times,serif" font-size="14.00">Call</text>
</g>
<!-- ast.BinOp object at 0x7f1293a9dfd0&#45;&gt;ast.Call object at 0x7f12a479db50 -->
<g id="edge86" class="edge">
<title>ast.BinOp object at 0x7f1293a9dfd0&#45;&gt;ast.Call object at 0x7f12a479db50</title>
<path fill="none" stroke="black" d="M1032.88,-287.99C1037.4,-268.79 1046.94,-237.46 1064.5,-216 1071.36,-207.62 1091.8,-194.4 1110.55,-183.26"/>
<polygon fill="black" stroke="black" points="1112.41,-186.23 1119.27,-178.16 1108.87,-180.19 1112.41,-186.23"/>
</g>
<!-- ast.Mult object at 0x7f12e0fc1e10 -->
<g id="node67" class="node">
<title>ast.Mult object at 0x7f12e0fc1e10</title>
<path fill="#66cdaa" stroke="black" d="M1115.5,-252C1115.5,-252 1085.5,-252 1085.5,-252 1079.5,-252 1073.5,-246 1073.5,-240 1073.5,-240 1073.5,-228 1073.5,-228 1073.5,-222 1079.5,-216 1085.5,-216 1085.5,-216 1115.5,-216 1115.5,-216 1121.5,-216 1127.5,-222 1127.5,-228 1127.5,-228 1127.5,-240 1127.5,-240 1127.5,-246 1121.5,-252 1115.5,-252"/>
<text text-anchor="middle" x="1100.5" y="-230.3" font-family="Times,serif" font-size="14.00">Mult</text>
</g>
<!-- ast.BinOp object at 0x7f1293a9dfd0&#45;&gt;ast.Mult object at 0x7f12e0fc1e10 -->
<g id="edge91" class="edge">
<title>ast.BinOp object at 0x7f1293a9dfd0&#45;&gt;ast.Mult object at 0x7f12e0fc1e10</title>
<path fill="none" stroke="black" d="M1047.05,-287.7C1055.73,-279.14 1066.36,-268.66 1075.85,-259.3"/>
<polygon fill="black" stroke="black" points="1078.49,-261.62 1083.15,-252.1 1073.57,-256.63 1078.49,-261.62"/>
</g>
<!-- ast.BinOp object at 0x7f12a479e750 -->
<g id="node68" class="node">
<title>ast.BinOp object at 0x7f12a479e750</title>
<path fill="#66cdaa" stroke="black" d="M1005.5,-252C1005.5,-252 975.5,-252 975.5,-252 969.5,-252 963.5,-246 963.5,-240 963.5,-240 963.5,-228 963.5,-228 963.5,-222 969.5,-216 975.5,-216 975.5,-216 1005.5,-216 1005.5,-216 1011.5,-216 1017.5,-222 1017.5,-228 1017.5,-228 1017.5,-240 1017.5,-240 1017.5,-246 1011.5,-252 1005.5,-252"/>
<text text-anchor="middle" x="990.5" y="-230.3" font-family="Times,serif" font-size="14.00">BinOp</text>
</g>
<!-- ast.BinOp object at 0x7f1293a9dfd0&#45;&gt;ast.BinOp object at 0x7f12a479e750 -->
<g id="edge92" class="edge">
<title>ast.BinOp object at 0x7f1293a9dfd0&#45;&gt;ast.BinOp object at 0x7f12a479e750</title>
<path fill="none" stroke="black" d="M1019.86,-287.7C1015.37,-279.64 1009.94,-269.89 1004.98,-260.98"/>
<polygon fill="black" stroke="black" points="1007.95,-259.14 1000.03,-252.1 1001.84,-262.54 1007.95,-259.14"/>
</g>
<!-- ast.Name object at 0x7f12a479fa50 -->
<g id="node65" class="node">
<title>ast.Name object at 0x7f12a479fa50</title>
<path fill="#66cdaa" stroke="black" d="M1077.5,-108C1077.5,-108 1047.5,-108 1047.5,-108 1041.5,-108 1035.5,-102 1035.5,-96 1035.5,-96 1035.5,-84 1035.5,-84 1035.5,-78 1041.5,-72 1047.5,-72 1047.5,-72 1077.5,-72 1077.5,-72 1083.5,-72 1089.5,-78 1089.5,-84 1089.5,-84 1089.5,-96 1089.5,-96 1089.5,-102 1083.5,-108 1077.5,-108"/>
<text text-anchor="middle" x="1062.5" y="-86.3" font-family="Times,serif" font-size="14.00">Name</text>
</g>
<!-- ast.Call object at 0x7f12a479db50&#45;&gt;ast.Name object at 0x7f12a479fa50 -->
<g id="edge87" class="edge">
<title>ast.Call object at 0x7f12a479db50&#45;&gt;ast.Name object at 0x7f12a479fa50</title>
<path fill="none" stroke="black" d="M1125.74,-143.7C1115.26,-134.97 1102.39,-124.24 1091,-114.75"/>
<polygon fill="black" stroke="black" points="1092.95,-111.82 1083.03,-108.1 1088.47,-117.19 1092.95,-111.82"/>
</g>
<!-- ast.Name object at 0x7f12a479d4d0 -->
<g id="node66" class="node">
<title>ast.Name object at 0x7f12a479d4d0</title>
<path fill="#66cdaa" stroke="black" d="M1149.5,-108C1149.5,-108 1119.5,-108 1119.5,-108 1113.5,-108 1107.5,-102 1107.5,-96 1107.5,-96 1107.5,-84 1107.5,-84 1107.5,-78 1113.5,-72 1119.5,-72 1119.5,-72 1149.5,-72 1149.5,-72 1155.5,-72 1161.5,-78 1161.5,-84 1161.5,-84 1161.5,-96 1161.5,-96 1161.5,-102 1155.5,-108 1149.5,-108"/>
<text text-anchor="middle" x="1134.5" y="-86.3" font-family="Times,serif" font-size="14.00">Name</text>
</g>
<!-- ast.Call object at 0x7f12a479db50&#45;&gt;ast.Name object at 0x7f12a479d4d0 -->
<g id="edge89" class="edge">
<title>ast.Call object at 0x7f12a479db50&#45;&gt;ast.Name object at 0x7f12a479d4d0</title>
<path fill="none" stroke="black" d="M1143.53,-143.7C1142.21,-135.98 1140.62,-126.71 1139.15,-118.11"/>
<polygon fill="black" stroke="black" points="1142.57,-117.37 1137.43,-108.1 1135.67,-118.55 1142.57,-117.37"/>
</g>
<!-- ast.Name object at 0x7f12a479fa50&#45;&gt;ast.Load object at 0x7f12e0fc1810 -->
<g id="edge88" class="edge">
<title>ast.Name object at 0x7f12a479fa50&#45;&gt;ast.Load object at 0x7f12e0fc1810</title>
<path fill="none" stroke="black" d="M1035.3,-75.2C1032.37,-74.01 1029.4,-72.91 1026.5,-72 927.98,-41.18 806.37,-27.26 746.07,-21.89"/>
<polygon fill="black" stroke="black" points="746.15,-18.38 735.89,-21.01 745.55,-25.35 746.15,-18.38"/>
</g>
<!-- ast.Name object at 0x7f12a479d4d0&#45;&gt;ast.Load object at 0x7f12e0fc1810 -->
<g id="edge90" class="edge">
<title>ast.Name object at 0x7f12a479d4d0&#45;&gt;ast.Load object at 0x7f12e0fc1810</title>
<path fill="none" stroke="black" d="M1107.32,-75.11C1104.39,-73.93 1101.42,-72.86 1098.5,-72 972.62,-34.69 816.01,-23.53 745.7,-20.28"/>
<polygon fill="black" stroke="black" points="745.72,-16.78 735.57,-19.84 745.41,-23.78 745.72,-16.78"/>
</g>
<!-- ast.Call object at 0x7f12a479dad0 -->
<g id="node69" class="node">
<title>ast.Call object at 0x7f12a479dad0</title>
<path fill="#66cdaa" stroke="black" d="M933.5,-180C933.5,-180 903.5,-180 903.5,-180 897.5,-180 891.5,-174 891.5,-168 891.5,-168 891.5,-156 891.5,-156 891.5,-150 897.5,-144 903.5,-144 903.5,-144 933.5,-144 933.5,-144 939.5,-144 945.5,-150 945.5,-156 945.5,-156 945.5,-168 945.5,-168 945.5,-174 939.5,-180 933.5,-180"/>
<text text-anchor="middle" x="918.5" y="-158.3" font-family="Times,serif" font-size="14.00">Call</text>
</g>
<!-- ast.BinOp object at 0x7f12a479e750&#45;&gt;ast.Call object at 0x7f12a479dad0 -->
<g id="edge93" class="edge">
<title>ast.BinOp object at 0x7f12a479e750&#45;&gt;ast.Call object at 0x7f12a479dad0</title>
<path fill="none" stroke="black" d="M972.7,-215.7C963.9,-207.14 953.12,-196.66 943.5,-187.3"/>
<polygon fill="black" stroke="black" points="945.7,-184.57 936.09,-180.1 940.82,-189.58 945.7,-184.57"/>
</g>
<!-- ast.Sub object at 0x7f12e0fc1d90 -->
<g id="node72" class="node">
<title>ast.Sub object at 0x7f12e0fc1d90</title>
<path fill="#66cdaa" stroke="black" d="M1005.5,-180C1005.5,-180 975.5,-180 975.5,-180 969.5,-180 963.5,-174 963.5,-168 963.5,-168 963.5,-156 963.5,-156 963.5,-150 969.5,-144 975.5,-144 975.5,-144 1005.5,-144 1005.5,-144 1011.5,-144 1017.5,-150 1017.5,-156 1017.5,-156 1017.5,-168 1017.5,-168 1017.5,-174 1011.5,-180 1005.5,-180"/>
<text text-anchor="middle" x="990.5" y="-158.3" font-family="Times,serif" font-size="14.00">Sub</text>
</g>
<!-- ast.BinOp object at 0x7f12a479e750&#45;&gt;ast.Sub object at 0x7f12e0fc1d90 -->
<g id="edge98" class="edge">
<title>ast.BinOp object at 0x7f12a479e750&#45;&gt;ast.Sub object at 0x7f12e0fc1d90</title>
<path fill="none" stroke="black" d="M990.5,-215.7C990.5,-207.98 990.5,-198.71 990.5,-190.11"/>
<polygon fill="black" stroke="black" points="994,-190.1 990.5,-180.1 987,-190.1 994,-190.1"/>
</g>
<!-- ast.Constant object at 0x7f12a479e010 -->
<g id="node73" class="node">
<title>ast.Constant object at 0x7f12a479e010</title>
<path fill="#66cdaa" stroke="black" d="M1089,-180C1089,-180 1048,-180 1048,-180 1042,-180 1036,-174 1036,-168 1036,-168 1036,-156 1036,-156 1036,-150 1042,-144 1048,-144 1048,-144 1089,-144 1089,-144 1095,-144 1101,-150 1101,-156 1101,-156 1101,-168 1101,-168 1101,-174 1095,-180 1089,-180"/>
<text text-anchor="middle" x="1068.5" y="-158.3" font-family="Times,serif" font-size="14.00">Constant</text>
</g>
<!-- ast.BinOp object at 0x7f12a479e750&#45;&gt;ast.Constant object at 0x7f12a479e010 -->
<g id="edge99" class="edge">
<title>ast.BinOp object at 0x7f12a479e750&#45;&gt;ast.Constant object at 0x7f12a479e010</title>
<path fill="none" stroke="black" d="M1009.78,-215.7C1019.42,-207.05 1031.23,-196.45 1041.73,-187.03"/>
<polygon fill="black" stroke="black" points="1044.34,-189.39 1049.44,-180.1 1039.66,-184.18 1044.34,-189.39"/>
</g>
<!-- ast.Name object at 0x7f12a479cf10 -->
<g id="node70" class="node">
<title>ast.Name object at 0x7f12a479cf10</title>
<path fill="#66cdaa" stroke="black" d="M933.5,-108C933.5,-108 903.5,-108 903.5,-108 897.5,-108 891.5,-102 891.5,-96 891.5,-96 891.5,-84 891.5,-84 891.5,-78 897.5,-72 903.5,-72 903.5,-72 933.5,-72 933.5,-72 939.5,-72 945.5,-78 945.5,-84 945.5,-84 945.5,-96 945.5,-96 945.5,-102 939.5,-108 933.5,-108"/>
<text text-anchor="middle" x="918.5" y="-86.3" font-family="Times,serif" font-size="14.00">Name</text>
</g>
<!-- ast.Call object at 0x7f12a479dad0&#45;&gt;ast.Name object at 0x7f12a479cf10 -->
<g id="edge94" class="edge">
<title>ast.Call object at 0x7f12a479dad0&#45;&gt;ast.Name object at 0x7f12a479cf10</title>
<path fill="none" stroke="black" d="M918.5,-143.7C918.5,-135.98 918.5,-126.71 918.5,-118.11"/>
<polygon fill="black" stroke="black" points="922,-118.1 918.5,-108.1 915,-118.1 922,-118.1"/>
</g>
<!-- ast.Name object at 0x7f12a479f9d0 -->
<g id="node71" class="node">
<title>ast.Name object at 0x7f12a479f9d0</title>
<path fill="#66cdaa" stroke="black" d="M1005.5,-108C1005.5,-108 975.5,-108 975.5,-108 969.5,-108 963.5,-102 963.5,-96 963.5,-96 963.5,-84 963.5,-84 963.5,-78 969.5,-72 975.5,-72 975.5,-72 1005.5,-72 1005.5,-72 1011.5,-72 1017.5,-78 1017.5,-84 1017.5,-84 1017.5,-96 1017.5,-96 1017.5,-102 1011.5,-108 1005.5,-108"/>
<text text-anchor="middle" x="990.5" y="-86.3" font-family="Times,serif" font-size="14.00">Name</text>
</g>
<!-- ast.Call object at 0x7f12a479dad0&#45;&gt;ast.Name object at 0x7f12a479f9d0 -->
<g id="edge96" class="edge">
<title>ast.Call object at 0x7f12a479dad0&#45;&gt;ast.Name object at 0x7f12a479f9d0</title>
<path fill="none" stroke="black" d="M936.3,-143.7C945.1,-135.14 955.88,-124.66 965.5,-115.3"/>
<polygon fill="black" stroke="black" points="968.18,-117.58 972.91,-108.1 963.3,-112.57 968.18,-117.58"/>
</g>
<!-- ast.Name object at 0x7f12a479cf10&#45;&gt;ast.Load object at 0x7f12e0fc1810 -->
<g id="edge95" class="edge">
<title>ast.Name object at 0x7f12a479cf10&#45;&gt;ast.Load object at 0x7f12e0fc1810</title>
<path fill="none" stroke="black" d="M891.29,-77.32C886.71,-75.47 881.99,-73.63 877.5,-72 832.52,-55.66 779.77,-39.6 745.32,-29.52"/>
<polygon fill="black" stroke="black" points="746.26,-26.14 735.68,-26.71 744.3,-32.86 746.26,-26.14"/>
</g>
<!-- ast.Name object at 0x7f12a479f9d0&#45;&gt;ast.Load object at 0x7f12e0fc1810 -->
<g id="edge97" class="edge">
<title>ast.Name object at 0x7f12a479f9d0&#45;&gt;ast.Load object at 0x7f12e0fc1810</title>
<path fill="none" stroke="black" d="M963.25,-75.34C960.33,-74.12 957.38,-72.98 954.5,-72 882.41,-47.57 794.51,-31.85 745.71,-24.29"/>
<polygon fill="black" stroke="black" points="746.03,-20.8 735.62,-22.76 744.98,-27.72 746.03,-20.8"/>
</g>
<!-- ast.Compare object at 0x7f12a479fd10 -->
<g id="node77" class="node">
<title>ast.Compare object at 0x7f12a479fd10</title>
<path fill="#66cdaa" stroke="black" d="M1425,-468C1425,-468 1382,-468 1382,-468 1376,-468 1370,-462 1370,-456 1370,-456 1370,-444 1370,-444 1370,-438 1376,-432 1382,-432 1382,-432 1425,-432 1425,-432 1431,-432 1437,-438 1437,-444 1437,-444 1437,-456 1437,-456 1437,-462 1431,-468 1425,-468"/>
<text text-anchor="middle" x="1403.5" y="-446.3" font-family="Times,serif" font-size="14.00">Compare</text>
</g>
<!-- ast.Return object at 0x7f12a479d850&#45;&gt;ast.Compare object at 0x7f12a479fd10 -->
<g id="edge103" class="edge">
<title>ast.Return object at 0x7f12a479d850&#45;&gt;ast.Compare object at 0x7f12a479fd10</title>
<path fill="none" stroke="black" d="M1046.34,-575.96C1060.12,-565.87 1077.62,-552.62 1092.5,-540 1110.25,-524.96 1109.64,-514.3 1130.5,-504 1221.31,-459.18 1257.36,-493.01 1355.5,-468 1356.97,-467.62 1358.46,-467.22 1359.96,-466.8"/>
<polygon fill="black" stroke="black" points="1361.37,-470.03 1369.91,-463.76 1359.32,-463.34 1361.37,-470.03"/>
</g>
<!-- ast.Compare object at 0x7f12a479fd10&#45;&gt;ast.GtE object at 0x7f12e0fc2a90 -->
<g id="edge106" class="edge">
<title>ast.Compare object at 0x7f12a479fd10&#45;&gt;ast.GtE object at 0x7f12e0fc2a90</title>
<path fill="none" stroke="black" d="M1369.87,-433.81C1344.92,-422.54 1310.93,-407.19 1285.26,-395.6"/>
<polygon fill="black" stroke="black" points="1286.43,-392.29 1275.87,-391.36 1283.54,-398.67 1286.43,-392.29"/>
</g>
<!-- ast.Name object at 0x7f12a479d990 -->
<g id="node78" class="node">
<title>ast.Name object at 0x7f12a479d990</title>
<path fill="#66cdaa" stroke="black" d="M1438.5,-324C1438.5,-324 1408.5,-324 1408.5,-324 1402.5,-324 1396.5,-318 1396.5,-312 1396.5,-312 1396.5,-300 1396.5,-300 1396.5,-294 1402.5,-288 1408.5,-288 1408.5,-288 1438.5,-288 1438.5,-288 1444.5,-288 1450.5,-294 1450.5,-300 1450.5,-300 1450.5,-312 1450.5,-312 1450.5,-318 1444.5,-324 1438.5,-324"/>
<text text-anchor="middle" x="1423.5" y="-302.3" font-family="Times,serif" font-size="14.00">Name</text>
</g>
<!-- ast.Compare object at 0x7f12a479fd10&#45;&gt;ast.Name object at 0x7f12a479d990 -->
<g id="edge104" class="edge">
<title>ast.Compare object at 0x7f12a479fd10&#45;&gt;ast.Name object at 0x7f12a479d990</title>
<path fill="none" stroke="black" d="M1405.91,-431.87C1409.32,-407.67 1415.58,-363.21 1419.64,-334.39"/>
<polygon fill="black" stroke="black" points="1423.15,-334.58 1421.08,-324.19 1416.22,-333.6 1423.15,-334.58"/>
</g>
<!-- ast.Constant object at 0x7f12a479d790 -->
<g id="node79" class="node">
<title>ast.Constant object at 0x7f12a479d790</title>
<path fill="#66cdaa" stroke="black" d="M1485,-396C1485,-396 1444,-396 1444,-396 1438,-396 1432,-390 1432,-384 1432,-384 1432,-372 1432,-372 1432,-366 1438,-360 1444,-360 1444,-360 1485,-360 1485,-360 1491,-360 1497,-366 1497,-372 1497,-372 1497,-384 1497,-384 1497,-390 1491,-396 1485,-396"/>
<text text-anchor="middle" x="1464.5" y="-374.3" font-family="Times,serif" font-size="14.00">Constant</text>
</g>
<!-- ast.Compare object at 0x7f12a479fd10&#45;&gt;ast.Constant object at 0x7f12a479d790 -->
<g id="edge107" class="edge">
<title>ast.Compare object at 0x7f12a479fd10&#45;&gt;ast.Constant object at 0x7f12a479d790</title>
<path fill="none" stroke="black" d="M1418.58,-431.7C1425.89,-423.3 1434.81,-413.07 1442.84,-403.86"/>
<polygon fill="black" stroke="black" points="1445.66,-405.94 1449.59,-396.1 1440.39,-401.34 1445.66,-405.94"/>
</g>
<!-- ast.Name object at 0x7f12a479d990&#45;&gt;ast.Load object at 0x7f12e0fc1810 -->
<g id="edge105" class="edge">
<title>ast.Name object at 0x7f12a479d990&#45;&gt;ast.Load object at 0x7f12e0fc1810</title>
<path fill="none" stroke="black" d="M1430.44,-287.86C1446.51,-245.07 1480.79,-132.62 1424.5,-72 1378.05,-21.99 886.89,-18.76 746.05,-18.87"/>
<polygon fill="black" stroke="black" points="745.77,-15.37 735.77,-18.88 745.78,-22.37 745.77,-15.37"/>
</g>
</g>
</svg>
